<?xml version="1.0" encoding="UTF-8" standalone="no"?>
<!-- Created with Inkscape (http://www.inkscape.org/) -->

<svg
   xmlns:dc="http://purl.org/dc/elements/1.1/"
   xmlns:cc="http://creativecommons.org/ns#"
   xmlns:rdf="http://www.w3.org/1999/02/22-rdf-syntax-ns#"
   xmlns:svg="http://www.w3.org/2000/svg"
   xmlns="http://www.w3.org/2000/svg"
   xmlns:xlink="http://www.w3.org/1999/xlink"
   xmlns:sodipodi="http://sodipodi.sourceforge.net/DTD/sodipodi-0.dtd"
   xmlns:inkscape="http://www.inkscape.org/namespaces/inkscape"
   width="48"
   height="48"
   id="svg3840"
   version="1.1"
   inkscape:version="0.48+devel r12012"
   sodipodi:docname="x-office-address-book.svg">
  <defs
     id="defs3842">
    <linearGradient
       y2="1050.365"
       x2="28.595896"
       y1="1008.5136"
       x1="28.595896"
       gradientTransform="matrix(1.3800042,0,0,1.1414014,136.26424,-693.58429)"
       gradientUnits="userSpaceOnUse"
       id="linearGradient15991"
       xlink:href="#linearGradient839-6"
       inkscape:collect="always" />
    <linearGradient
       id="linearGradient839-6">
      <stop
         style="stop-color:#00aad4;stop-opacity:1"
         offset="0"
         id="stop841-3" />
      <stop
         style="stop-color:#00738f;stop-opacity:1"
         offset="1"
         id="stop843-0" />
    </linearGradient>
    <linearGradient
       inkscape:collect="always"
       xlink:href="#linearGradient839-6"
       id="linearGradient3019-9"
       gradientUnits="userSpaceOnUse"
       gradientTransform="matrix(0.25447547,0,0,1.1414014,148.80314,-693.58429)"
       x1="26.4048"
       y1="1008.5425"
       x2="26.4048"
       y2="1050.3241" />
  </defs>
  <sodipodi:namedview
     id="base"
     pagecolor="#ffffff"
     bordercolor="#666666"
     borderopacity="1.0"
     inkscape:pageopacity="0.0"
     inkscape:pageshadow="2"
     inkscape:zoom="7.9195959"
     inkscape:cx="42.348788"
     inkscape:cy="21.400682"
     inkscape:document-units="px"
     inkscape:current-layer="layer1"
     showgrid="false"
     fit-margin-top="0"
     fit-margin-left="0"
     fit-margin-right="0"
     fit-margin-bottom="0"
     inkscape:window-width="1366"
     inkscape:window-height="718"
     inkscape:window-x="0"
     inkscape:window-y="28"
     inkscape:window-maximized="1" />
  <metadata
     id="metadata3845">
    <rdf:RDF>
      <cc:Work
         rdf:about="">
        <dc:format>image/svg+xml</dc:format>
        <dc:type
           rdf:resource="http://purl.org/dc/dcmitype/StillImage" />
        <dc:title />
      </cc:Work>
    </rdf:RDF>
  </metadata>
  <g
     inkscape:label="Capa 1"
     inkscape:groupmode="layer"
     id="layer1"
     transform="translate(-153.14285,-456.93362)">
    <path
       inkscape:connector-curvature="0"
       style="fill:url(#linearGradient15991);fill-opacity:1;stroke:none"
       d="m 160.51785,458.62103 c -0.24078,0 -0.48602,0.034 -0.71875,0.062 l 0,44.5 c 0.23273,0.029 0.47797,0.062 0.71875,0.062 l 33.25,0 c 3.14425,0 5.6875,-2.5433 5.6875,-5.6875 l 0,-33.25 c 0,-3.1442 -2.54325,-5.6875 -5.6875,-5.6875 L 160.51785,458.62103 Z"
       id="rect5519" />
    <path
       inkscape:connector-curvature="0"
       style="fill:url(#linearGradient3019-9);fill-opacity:1;stroke:none"
       d="m 160.51785,458.62103 c -3.14425,0 -5.6875,2.5433 -5.6875,5.6875 l 0,33.25 c 0,3.1442 2.54325,5.6875 5.6875,5.6875 l 0.25,0 0,-44.625 L 160.51785,458.62103 Z"
       id="rect5570" />
    <path
       inkscape:connector-curvature="0"
       style="fill:#000000;fill-opacity:1;stroke:none"
       d="m 160.58035,458.62103 0,44.625 0.1875,0 0,-44.625 L 160.58035,458.62103 Z"
       id="rect878" />
    <path
       inkscape:connector-curvature="0"
       style="fill:#ff8880;fill-opacity:1;stroke:none"
       d="m 196.6741,460.46483 0,8.9375 2.78125,0 0,-5.0938 c 0,-1.482 -0.57618,-2.835 -1.5,-3.8437 L 196.6741,460.46483 Z"
       id="rect890" />
    <path
       inkscape:connector-curvature="0"
       style="fill:#ffdf55;fill-opacity:1;stroke:none"
       d="m 196.6741,470.24603 0,8.9063 2.78125,0 0,-8.9063 L 196.6741,470.24603 Z"
       id="rect892" />
    <path
       inkscape:connector-curvature="0"
       style="fill:#00d765;fill-opacity:1;stroke:none"
       d="m 196.6741,479.99603 0,8.9375 2.78125,0 0,-8.9375 L 196.6741,479.99603 Z"
       id="rect894" />
    <rect
       ry="5.6755357"
       y="458.63287"
       x="154.84209"
       height="44.601513"
       width="44.601513"
       id="rect2992-1"
       style="fill:none;stroke:#7d7d7d;stroke-width:0.39848712;stroke-miterlimit:4;stroke-opacity:1;stroke-dasharray:none" />
    <rect
       style="fill:none;stroke:none"
       id="rect3801-1"
       width="48"
       height="48"
       x="153.14285"
       y="456.93362" />
    <g
       style="fill:#ffffff"
       transform="matrix(0.7631579,0,0,0.7631579,158.82706,461.09152)"
       id="g898">
      <rect
         ry="6.5009885"
         y="25.664032"
         x="10.528965"
         height="17.335968"
         width="26.942068"
         id="rect900"
         style="color:#000000;fill:#ffffff;fill-opacity:1;fill-rule:nonzero;stroke:none;stroke-width:1.39999998;marker:none;visibility:visible;display:inline;overflow:visible;enable-background:accumulate" />
      <rect
         style="color:#000000;fill:#ffffff;fill-opacity:1;fill-rule:nonzero;stroke:none;stroke-width:1.39999998;marker:none;visibility:visible;display:inline;overflow:visible;enable-background:accumulate"
         id="rect902"
         width="26.942068"
         height="9.810277"
         x="10.528965"
         y="35.18972"
         ry="0" />
      <path
         transform="matrix(0.81027837,0,0,0.81027837,1.355731,4.122449)"
         d="m 37.316996,12.922024 c 0,5.175301 -4.195411,9.370712 -9.370713,9.370712 -5.175301,0 -9.370712,-4.195411 -9.370712,-9.370712 0,-5.1753017 4.195411,-9.3707125 9.370712,-9.3707125 C 33.121585,3.5513115 37.316996,7.7467223 37.316996,12.922024 Z"
         sodipodi:ry="9.3707123"
         sodipodi:rx="9.3707123"
         sodipodi:cy="12.922024"
         sodipodi:cx="27.946283"
         id="path904"
         style="color:#000000;fill:#ffffff;fill-opacity:1;fill-rule:nonzero;stroke:none;stroke-width:1.39999998;marker:none;visibility:visible;display:inline;overflow:visible;enable-background:accumulate"
         sodipodi:type="arc" />
    </g>
  </g>
</svg>
