<?xml version="1.0" encoding="UTF-8" standalone="no"?>
<!-- Created with Inkscape (http://www.inkscape.org/) -->

<svg
   xmlns:dc="http://purl.org/dc/elements/1.1/"
   xmlns:cc="http://creativecommons.org/ns#"
   xmlns:rdf="http://www.w3.org/1999/02/22-rdf-syntax-ns#"
   xmlns:svg="http://www.w3.org/2000/svg"
   xmlns="http://www.w3.org/2000/svg"
   xmlns:xlink="http://www.w3.org/1999/xlink"
   xmlns:sodipodi="http://sodipodi.sourceforge.net/DTD/sodipodi-0.dtd"
   xmlns:inkscape="http://www.inkscape.org/namespaces/inkscape"
   width="48"
   height="48"
   id="svg2"
   version="1.1"
   inkscape:version="0.48+devel r12012"
   sodipodi:docname="x-office-calendar.svg">
  <defs
     id="defs4">
    <linearGradient
       id="linearGradient914">
      <stop
         id="stop916"
         offset="0"
         style="stop-color:#900000;stop-opacity:1" />
      <stop
         id="stop918"
         offset="1"
         style="stop-color:#ff5c5c;stop-opacity:1" />
    </linearGradient>
    <linearGradient
       inkscape:collect="always"
       id="linearGradient3886">
      <stop
         style="stop-color:#000000;stop-opacity:1;"
         offset="0"
         id="stop3888" />
      <stop
         style="stop-color:#000000;stop-opacity:0;"
         offset="1"
         id="stop3890" />
    </linearGradient>
    <linearGradient
       id="linearGradient3878">
      <stop
         id="stop3880"
         offset="0"
         style="stop-color:#ffffff;stop-opacity:1;" />
      <stop
         style="stop-color:#7f7f7f;stop-opacity:1;"
         offset="0.53514361"
         id="stop3882" />
      <stop
         id="stop3884"
         offset="1"
         style="stop-color:#000000;stop-opacity:1;" />
    </linearGradient>
    <linearGradient
       id="linearGradient3870">
      <stop
         id="stop3872"
         offset="0"
         style="stop-color:#ffffff;stop-opacity:1;" />
      <stop
         style="stop-color:#7f7f7f;stop-opacity:1;"
         offset="0.40510312"
         id="stop3874" />
      <stop
         id="stop3876"
         offset="1"
         style="stop-color:#000000;stop-opacity:1;" />
    </linearGradient>
    <linearGradient
       id="linearGradient3795">
      <stop
         style="stop-color:#b9b9b9;stop-opacity:1;"
         offset="0"
         id="stop3797" />
      <stop
         style="stop-color:#f4f4f4;stop-opacity:1;"
         offset="1"
         id="stop3799" />
    </linearGradient>
    <linearGradient
       inkscape:collect="always"
       xlink:href="#linearGradient3878"
       id="linearGradient3926"
       gradientUnits="userSpaceOnUse"
       gradientTransform="matrix(0.47557005,0,0,0.80691337,30.915308,1004.6346)"
       x1="10.78986"
       y1="2.8449159"
       x2="17.019991"
       y2="5.9120231" />
    <linearGradient
       inkscape:collect="always"
       xlink:href="#linearGradient3886"
       id="linearGradient3928"
       gradientUnits="userSpaceOnUse"
       x1="39.009506"
       y1="1009.4051"
       x2="35.653683"
       y2="1008.2338" />
    <linearGradient
       inkscape:collect="always"
       xlink:href="#linearGradient3870"
       id="linearGradient3930"
       gradientUnits="userSpaceOnUse"
       gradientTransform="matrix(0.47557005,0,0,0.80691337,6.5201246,1004.6346)"
       x1="11.905006"
       y1="2.5162995"
       x2="17.205851"
       y2="4.7070761" />
    <linearGradient
       inkscape:collect="always"
       xlink:href="#linearGradient3886"
       id="linearGradient3932"
       gradientUnits="userSpaceOnUse"
       gradientTransform="translate(2.2980969,0)"
       x1="13.119718"
       y1="1009.4271"
       x2="8.3416843"
       y2="1007.4384" />
    <linearGradient
       y2="1049.5842"
       x2="24.113745"
       y1="1007.2183"
       x1="24.113745"
       gradientTransform="matrix(0.96799712,0,0,1.0252613,0.76811915,-2082.7022)"
       gradientUnits="userSpaceOnUse"
       id="linearGradient924"
       xlink:href="#linearGradient3795"
       inkscape:collect="always" />
    <linearGradient
       inkscape:collect="always"
       xlink:href="#linearGradient914"
       id="linearGradient911"
       gradientUnits="userSpaceOnUse"
       gradientTransform="matrix(0.96799712,0,0,-1.0252613,0.76811915,1078.34)"
       x1="-2.3517594"
       y1="1025.064"
       x2="13.15648"
       y2="1025.064" />
  </defs>
  <sodipodi:namedview
     id="base"
     pagecolor="#ffffff"
     bordercolor="#666666"
     borderopacity="1.0"
     inkscape:pageopacity="0.0"
     inkscape:pageshadow="2"
     inkscape:zoom="13.261539"
     inkscape:cx="22.174184"
     inkscape:cy="33.746186"
     inkscape:document-units="px"
     inkscape:current-layer="layer1"
     showgrid="false"
     inkscape:window-width="1366"
     inkscape:window-height="718"
     inkscape:window-x="0"
     inkscape:window-y="28"
     inkscape:window-maximized="1">
    <inkscape:grid
       type="xygrid"
       id="grid3850" />
  </sodipodi:namedview>
  <metadata
     id="metadata7">
    <rdf:RDF>
      <cc:Work
         rdf:about="">
        <dc:format>image/svg+xml</dc:format>
        <dc:type
           rdf:resource="http://purl.org/dc/dcmitype/StillImage" />
        <dc:title />
      </cc:Work>
    </rdf:RDF>
  </metadata>
  <g
     inkscape:label="Capa 1"
     inkscape:groupmode="layer"
     id="layer1"
     transform="translate(0,-1004.3622)">
    <rect
       ry="5.6755357"
       y="-1050.663"
       x="1.6992435"
       height="44.601513"
       width="44.601513"
       id="rect2992"
       style="fill:url(#linearGradient924);fill-opacity:1;stroke:#7d7d7d;stroke-width:0.39848712;stroke-miterlimit:4;stroke-opacity:1;stroke-dasharray:none"
       transform="scale(1,-1)" />
    <path
       style="fill:url(#linearGradient911);fill-opacity:1;stroke:none"
       d="m 7.375,1.6875 c -3.1442467,0 -5.6875,2.5432 -5.6875,5.6875 l 0,33.25 c 0,3.1443 2.5432533,5.6875 5.6875,5.6875 l 8.446225,0 0,-44.625 z"
       transform="translate(0,1004.3622)"
       id="rect906"
       inkscape:connector-curvature="0"
       sodipodi:nodetypes="ssssccs" />
    <g
       id="g3922"
       transform="translate(-1.1490487,0)">
      <rect
         style="fill:url(#linearGradient3926);fill-opacity:1;stroke:url(#linearGradient3928);stroke-width:0.1;stroke-linecap:round;stroke-linejoin:round;stroke-miterlimit:4;stroke-opacity:1;stroke-dasharray:none"
         id="rect3820"
         width="2.1017425"
         height="7.132174"
         x="36.295769"
         y="1004.4247"
         ry="1.1472349" />
      <rect
         ry="1.1472349"
         y="1004.4247"
         x="11.900586"
         height="7.132174"
         width="2.1017425"
         id="rect3838"
         style="fill:url(#linearGradient3930);fill-opacity:1;stroke:url(#linearGradient3932);stroke-width:0.1;stroke-linecap:round;stroke-linejoin:round;stroke-miterlimit:4;stroke-opacity:1;stroke-dasharray:none" />
    </g>
    <text
       xml:space="preserve"
       style="font-size:22px;font-style:normal;font-variant:normal;font-weight:normal;font-stretch:normal;line-height:125%;letter-spacing:0px;word-spacing:0px;fill:#ffffff;fill-opacity:1;stroke:none;font-family:Decker;-inkscape-font-specification:Decker"
       x="2.2392259"
       y="1038.6919"
       id="text3792"
       sodipodi:linespacing="125%"><tspan
         sodipodi:role="line"
         id="tspan3794"
         x="2.2392259"
         y="1038.6919">7</tspan></text>
    <g
       style="font-size:6px;font-style:normal;font-variant:normal;font-weight:normal;font-stretch:normal;line-height:125%;letter-spacing:0px;word-spacing:0px;fill:#000000;fill-opacity:1;stroke:none;font-family:Droid Sans;-inkscape-font-specification:Droid Sans"
       id="text920">
      <path
         d="m 21.358219,1029.1372 q -0.313476,0 -0.568359,0.1201 -0.254883,0.1172 -0.436524,0.3399 -0.178711,0.2226 -0.27832,0.542 -0.09668,0.3193 -0.09668,0.7207 0,0.413 0.08496,0.7353 0.08789,0.3194 0.260742,0.5391 0.172852,0.2197 0.430665,0.334 0.257812,0.1142 0.603515,0.1142 0.260742,0 0.495117,-0.05 0.234375,-0.053 0.462891,-0.1201 l 0,0.4746 q -0.114258,0.044 -0.228516,0.079 -0.114257,0.032 -0.240234,0.053 -0.123047,0.021 -0.266602,0.029 -0.140625,0.012 -0.313476,0.012 -0.480469,0 -0.832031,-0.1582 -0.351563,-0.1582 -0.583008,-0.4483 -0.228516,-0.29 -0.339844,-0.6973 -0.111328,-0.4072 -0.111328,-0.9023 0,-0.4863 0.125976,-0.8906 0.128907,-0.4043 0.375,-0.6944 0.249024,-0.29 0.615235,-0.4511 0.366211,-0.1612 0.84082,-0.1612 0.316406,0 0.603516,0.064 0.287109,0.064 0.518554,0.1875 l -0.228515,0.457 q -0.18457,-0.094 -0.401367,-0.1611 -0.216797,-0.067 -0.492188,-0.067 z"
         style=""
         id="path899" />
      <path
         d="m 24.979313,1033.0015 -0.108399,-0.4453 -0.02344,0 q -0.09668,0.1318 -0.193359,0.2285 -0.09668,0.094 -0.210938,0.1552 -0.114258,0.062 -0.254883,0.091 -0.140625,0.029 -0.325195,0.029 -0.202148,0 -0.37207,-0.059 -0.169922,-0.056 -0.295899,-0.1729 -0.123047,-0.1201 -0.193359,-0.2988 -0.07031,-0.1817 -0.07031,-0.4277 0,-0.4805 0.336914,-0.7383 0.339844,-0.2578 1.03125,-0.2813 l 0.539063,-0.021 0,-0.2021 q 0,-0.1963 -0.04395,-0.3282 -0.04102,-0.1318 -0.123047,-0.2109 -0.0791,-0.082 -0.199219,-0.1172 -0.117188,-0.035 -0.269531,-0.035 -0.243164,0 -0.454102,0.07 -0.208008,0.07 -0.401367,0.1699 l -0.1875,-0.4014 q 0.216797,-0.1172 0.483398,-0.1992 0.266602,-0.082 0.559571,-0.082 0.298828,0 0.515625,0.062 0.219726,0.059 0.360351,0.1904 0.143555,0.1289 0.213867,0.3311 0.07031,0.2021 0.07031,0.4892 l 0,2.2032 -0.383789,0 z m -0.978516,-0.3721 q 0.178711,0 0.331055,-0.056 0.152344,-0.056 0.263672,-0.167 0.111328,-0.1142 0.172851,-0.2841 0.06445,-0.1729 0.06445,-0.4043 l 0,-0.2901 -0.418946,0.02 q -0.263672,0.012 -0.442383,0.059 -0.178711,0.047 -0.287109,0.1319 -0.105469,0.082 -0.152344,0.2021 -0.04687,0.1172 -0.04687,0.2666 0,0.2695 0.140625,0.3955 0.143555,0.126 0.375,0.126 z"
         style=""
         id="path901" />
      <path
         d="m 26.886539,1033.0015 -0.533203,0 0,-4.5586 0.533203,0 0,4.5586 z"
         style=""
         id="path903" />
      <path
         d="m 29.183414,1033.0601 q -0.322265,0 -0.588867,-0.1084 -0.266601,-0.1084 -0.459961,-0.3164 -0.190429,-0.2081 -0.295898,-0.5157 -0.105469,-0.3076 -0.105469,-0.7031 0,-0.3984 0.09668,-0.7119 0.09668,-0.3135 0.272461,-0.5303 0.175781,-0.2197 0.418945,-0.334 0.246094,-0.1142 0.541992,-0.1142 0.290039,0 0.521485,0.1054 0.231445,0.1026 0.392578,0.293 0.161133,0.1875 0.246094,0.4541 0.08789,0.2637 0.08789,0.586 l 0,0.331 -2.027344,0 q 0.01465,0.5654 0.237305,0.832 0.225586,0.2666 0.667969,0.2666 0.149414,0 0.27539,-0.015 0.128907,-0.015 0.246094,-0.041 0.120117,-0.029 0.231446,-0.07 0.111328,-0.044 0.225585,-0.097 l 0,0.4746 q -0.117187,0.056 -0.231445,0.097 -0.111328,0.041 -0.231445,0.067 -0.117188,0.026 -0.246094,0.038 -0.125976,0.012 -0.275391,0.012 z m -0.131835,-2.8916 q -0.333985,0 -0.530274,0.2285 -0.193359,0.2285 -0.225586,0.665 l 1.441406,0 q 0,-0.1992 -0.04101,-0.3633 -0.03809,-0.167 -0.123047,-0.2841 -0.08203,-0.1172 -0.210938,-0.1817 -0.128906,-0.064 -0.310546,-0.064 z"
         style=""
         id="path905" />
      <path
         d="m 33.132633,1033.0015 0,-2.0713 q 0,-0.3809 -0.155273,-0.5713 -0.152344,-0.1904 -0.480469,-0.1904 -0.237305,0 -0.398437,0.076 -0.161133,0.076 -0.260743,0.2256 -0.09668,0.1494 -0.140625,0.3662 -0.04101,0.2168 -0.04101,0.4981 l 0,1.667 -0.533203,0 0,-3.2168 0.433593,0 0.07617,0.4336 0.0293,0 q 0.07324,-0.126 0.172852,-0.2168 0.102539,-0.094 0.222656,-0.1553 0.120117,-0.062 0.254883,-0.091 0.134765,-0.029 0.27539,-0.029 0.536133,0 0.805664,0.2812 0.272461,0.2783 0.272461,0.8936 l 0,2.1006 -0.533203,0 z"
         style=""
         id="path907" />
      <path
         d="m 36.648258,1032.5708 -0.02344,0 q -0.06445,0.1 -0.152344,0.1904 -0.08496,0.088 -0.199219,0.1553 -0.111328,0.067 -0.251953,0.1055 -0.140625,0.038 -0.316406,0.038 -0.272461,0 -0.498047,-0.1055 -0.225586,-0.1055 -0.386719,-0.3135 -0.161133,-0.2109 -0.249023,-0.5215 -0.08789,-0.3105 -0.08789,-0.7207 0,-0.4131 0.08789,-0.7236 0.08789,-0.3135 0.249023,-0.5244 0.161133,-0.211 0.386719,-0.3164 0.225586,-0.1084 0.498047,-0.1084 0.172851,0 0.313476,0.038 0.140625,0.038 0.251954,0.1025 0.114257,0.064 0.202148,0.1494 0.08789,0.085 0.152344,0.1787 l 0.03516,0 q -0.0088,-0.1 -0.01758,-0.1904 -0.0059,-0.076 -0.01172,-0.1553 -0.0059,-0.082 -0.0059,-0.1289 l 0,-1.2773 0.533203,0 0,4.5586 -0.430664,0 -0.0791,-0.4307 z m -0.84082,0.047 q 0.222656,0 0.375,-0.067 0.155273,-0.067 0.249023,-0.2051 0.09668,-0.1377 0.140625,-0.3428 0.04687,-0.208 0.05273,-0.4834 l 0,-0.1201 q 0,-0.2959 -0.04102,-0.5244 -0.03809,-0.2314 -0.134766,-0.3867 -0.09375,-0.1582 -0.251953,-0.2373 -0.158203,-0.082 -0.395507,-0.082 -0.395508,0 -0.583008,0.3193 -0.184571,0.3193 -0.184571,0.917 0,0.6123 0.184571,0.914 0.1875,0.2989 0.588867,0.2989 z"
         style=""
         id="path909" />
      <path
         d="m 39.991032,1033.0015 -0.108399,-0.4453 -0.02344,0 q -0.09668,0.1318 -0.19336,0.2285 -0.09668,0.094 -0.210937,0.1552 -0.114258,0.062 -0.254883,0.091 -0.140625,0.029 -0.325195,0.029 -0.202149,0 -0.372071,-0.059 -0.169921,-0.056 -0.295898,-0.1729 -0.123047,-0.1201 -0.193359,-0.2988 -0.07031,-0.1817 -0.07031,-0.4277 0,-0.4805 0.336914,-0.7383 0.339844,-0.2578 1.03125,-0.2813 l 0.539063,-0.021 0,-0.2021 q 0,-0.1963 -0.04395,-0.3282 -0.04102,-0.1318 -0.123047,-0.2109 -0.0791,-0.082 -0.199218,-0.1172 -0.117188,-0.035 -0.269532,-0.035 -0.243164,0 -0.454101,0.07 -0.208008,0.07 -0.401367,0.1699 l -0.1875,-0.4014 q 0.216797,-0.1172 0.483398,-0.1992 0.266602,-0.082 0.55957,-0.082 0.298829,0 0.515625,0.062 0.219727,0.059 0.360352,0.1904 0.143555,0.1289 0.213867,0.3311 0.07031,0.2021 0.07031,0.4892 l 0,2.2032 -0.383789,0 z m -0.978516,-0.3721 q 0.178711,0 0.331055,-0.056 0.152343,-0.056 0.263672,-0.167 0.111328,-0.1142 0.172851,-0.2841 0.06445,-0.1729 0.06445,-0.4043 l 0,-0.2901 -0.418945,0.02 q -0.263672,0.012 -0.442383,0.059 -0.178711,0.047 -0.287109,0.1319 -0.105469,0.082 -0.152344,0.2021 -0.04687,0.1172 -0.04687,0.2666 0,0.2695 0.140625,0.3955 0.143555,0.126 0.375,0.126 z"
         style=""
         id="path911" />
      <path
         d="m 42.756657,1029.7261 q 0.08496,0 0.190429,0.01 0.105469,0.01 0.181641,0.021 l -0.07031,0.4922 q -0.08203,-0.015 -0.169921,-0.024 -0.08496,-0.012 -0.161133,-0.012 -0.184571,0 -0.336914,0.076 -0.152344,0.073 -0.263672,0.2138 -0.108399,0.1377 -0.169922,0.334 -0.05859,0.1934 -0.05859,0.4307 l 0,1.7344 -0.533203,0 0,-3.2168 0.433594,0 0.06445,0.5888 0.02344,0 q 0.07324,-0.1259 0.155274,-0.2431 0.08496,-0.1172 0.1875,-0.2051 0.105469,-0.091 0.234375,-0.1436 0.128906,-0.056 0.292969,-0.056 z"
         style=""
         id="path913" />
    </g>
  </g>
</svg>
