<?xml version="1.0" encoding="UTF-8" standalone="no"?>
<!-- Created with Inkscape (http://www.inkscape.org/) -->

<svg
   xmlns:dc="http://purl.org/dc/elements/1.1/"
   xmlns:cc="http://creativecommons.org/ns#"
   xmlns:rdf="http://www.w3.org/1999/02/22-rdf-syntax-ns#"
   xmlns:svg="http://www.w3.org/2000/svg"
   xmlns="http://www.w3.org/2000/svg"
   xmlns:xlink="http://www.w3.org/1999/xlink"
   xmlns:sodipodi="http://sodipodi.sourceforge.net/DTD/sodipodi-0.dtd"
   xmlns:inkscape="http://www.inkscape.org/namespaces/inkscape"
   width="48"
   height="48"
   id="svg2"
   version="1.1"
   inkscape:version="0.48+devel r12149"
   sodipodi:docname="folder-saved-search.svg">
  <defs
     id="defs4">
    <linearGradient
       gradientTransform="matrix(0.95835365,0,0,-0.95835365,0.9995126,42.838798)"
       y2="-1004.4247"
       x2="23.875"
       y1="-1052.4872"
       x1="23.875"
       gradientUnits="userSpaceOnUse"
       id="linearGradient915"
       xlink:href="#linearGradient1035"
       inkscape:collect="always" />
    <linearGradient
       id="linearGradient1035"
       inkscape:collect="always">
      <stop
         id="stop1037"
         offset="0"
         style="stop-color:#ffffff;stop-opacity:1" />
      <stop
         id="stop1039"
         offset="1"
         style="stop-color:#ececec;stop-opacity:1" />
    </linearGradient>
    <linearGradient
       inkscape:collect="always"
       xlink:href="#linearGradient1045"
       id="linearGradient2700"
       gradientUnits="userSpaceOnUse"
       x1="27.709515"
       y1="-1004.9823"
       x2="27.709515"
       y2="-1052.8083"
       gradientTransform="matrix(0.87849084,0,0,0.87849084,2.9162206,-124.96669)" />
    <linearGradient
       inkscape:collect="always"
       id="linearGradient1045">
      <stop
         style="stop-color:#000000;stop-opacity:1;"
         offset="0"
         id="stop1047" />
      <stop
         style="stop-color:#000000;stop-opacity:0;"
         offset="1"
         id="stop1049" />
    </linearGradient>
    <linearGradient
       gradientTransform="matrix(0.95835365,0,0,0.95835365,-42.838798,0.9995116)"
       inkscape:collect="always"
       xlink:href="#linearGradient2869"
       id="linearGradient2875"
       x1="-1050.2408"
       y1="33.41077"
       x2="-1006.7538"
       y2="33.41077"
       gradientUnits="userSpaceOnUse" />
    <linearGradient
       inkscape:collect="always"
       id="linearGradient2869">
      <stop
         style="stop-color:#f9f9f9;stop-opacity:1"
         offset="0"
         id="stop2871" />
      <stop
         style="stop-color:#ffffff;stop-opacity:1"
         offset="1"
         id="stop2873" />
    </linearGradient>
    <linearGradient
       inkscape:collect="always"
       xlink:href="#linearGradient2476"
       id="linearGradient1043"
       gradientUnits="userSpaceOnUse"
       x1="48.5"
       y1="-1026.1804"
       x2="1.2499999"
       y2="-1026.1804"
       gradientTransform="matrix(0,0.95835365,0.60396245,0,636.58677,1005.3729)" />
    <linearGradient
       id="linearGradient2476"
       inkscape:collect="always">
      <stop
         id="stop2478"
         offset="0"
         style="stop-color:#0c5dfc;stop-opacity:1" />
      <stop
         id="stop2480"
         offset="1"
         style="stop-color:#39e3ff;stop-opacity:1" />
    </linearGradient>
    <linearGradient
       inkscape:collect="always"
       xlink:href="#linearGradient1045"
       id="linearGradient2800"
       gradientUnits="userSpaceOnUse"
       gradientTransform="matrix(0,0.95835365,0.60396245,0,636.58677,1005.3729)"
       x1="29"
       y1="-1059.3043"
       x2="29"
       y2="-1045.8168" />
    <linearGradient
       inkscape:collect="always"
       xlink:href="#linearGradient1045"
       id="linearGradient2852"
       gradientUnits="userSpaceOnUse"
       gradientTransform="matrix(0,1.103105,-0.60396245,0,-627.87927,1001.8989)"
       x1="29"
       y1="-1059.3043"
       x2="29"
       y2="-1045.8168" />
  </defs>
  <sodipodi:namedview
     id="base"
     pagecolor="#ffffff"
     bordercolor="#666666"
     borderopacity="1.0"
     inkscape:pageopacity="0.0"
     inkscape:pageshadow="2"
     inkscape:zoom="7.9195959"
     inkscape:cx="0.3486573"
     inkscape:cy="23.455304"
     inkscape:document-units="px"
     inkscape:current-layer="layer1"
     showgrid="false"
     inkscape:window-width="1366"
     inkscape:window-height="716"
     inkscape:window-x="0"
     inkscape:window-y="28"
     inkscape:window-maximized="1" />
  <metadata
     id="metadata7">
    <rdf:RDF>
      <cc:Work
         rdf:about="">
        <dc:format>image/svg+xml</dc:format>
        <dc:type
           rdf:resource="http://purl.org/dc/dcmitype/StillImage" />
        <dc:title />
      </cc:Work>
    </rdf:RDF>
  </metadata>
  <g
     inkscape:label="Capa 1"
     inkscape:groupmode="layer"
     id="layer1"
     transform="translate(0,-1004.3622)">
    <rect
       style="color:#000000;fill:#333333;fill-opacity:1;fill-rule:nonzero;stroke:none;stroke-width:0.2;marker:none;visibility:visible;display:inline;overflow:visible;enable-background:accumulate"
       id="rect6294"
       width="45.5"
       height="45.5"
       x="1.25"
       y="1005.6122"
       ry="6.3565426" />
    <path
       inkscape:connector-curvature="0"
       style="fill:url(#linearGradient915);fill-opacity:1;stroke:none"
       d="m 7.5937496,1006.1122 c -3.244525,0 -5.84375,2.5992 -5.84375,5.8438 l 0,32.8125 c 0,3.2445 2.599225,5.8437 5.84375,5.8437 l 32.8125004,0 c 3.244525,0 5.84375,-2.5992 5.84375,-5.8437 l 0,-32.8125 c 0,-3.2446 -2.599225,-5.8438 -5.84375,-5.8438 L 7.5937496,1006.1122 Z"
       id="rect1041" />
    <rect
       style="opacity:0.05;fill:url(#linearGradient2700);fill-opacity:1;stroke:none"
       id="rect2698"
       width="42.167561"
       height="42.167561"
       x="2.9162197"
       y="-1049.4572"
       ry="1.7082638"
       transform="scale(1,-1)" />
    <rect
       transform="matrix(-2.3953356e-8,-1,1,0,0,0)"
       ry="0.906506"
       y="20.790474"
       x="-1049.4572"
       height="22.376604"
       width="42.167561"
       id="rect2714"
       style="fill:#000000;fill-opacity:0.29411765;stroke:none" />
    <rect
       style="fill:url(#linearGradient2875);fill-opacity:1;stroke:none"
       id="rect2716"
       width="41.554951"
       height="21.744093"
       x="-1049.1509"
       y="21.106728"
       ry="0.88088214"
       transform="matrix(-2.372795e-8,-1,1,0,0,0)" />
    <path
       style="fill:#000000;fill-opacity:0.04858303;stroke:none"
       d="m 42.178771,1049.1577 c 0.03088,-0.092 0.0599,-0.1972 0.0599,-0.2995 l 0,-39.7717 c 0,-0.4879 -0.380498,-0.8984 -0.868507,-0.8984 l -19.975684,0 c -0.08079,0 -0.164565,0.01 -0.239588,0.03 0.124383,-0.3487 0.452768,-0.599 0.838559,-0.599 l 19.975683,0 c 0.48801,0 0.868508,0.4104 0.868508,0.8985 l 0,39.7717 C 42.837639,1048.7001 42.555331,1049.0555 42.178771,1049.1577 Z"
       id="rect2837"
       inkscape:connector-curvature="0" />
    <path
       inkscape:connector-curvature="0"
       style="fill:url(#linearGradient1043);fill-opacity:1;stroke:none"
       d="m 7.5937496,1006.1122 c -3.244525,0 -5.84375,2.5992 -5.84375,5.8438 l 0,32.8125 c 0,3.2445 2.599225,5.8437 5.84375,5.8437 l 28.0937504,0 0,-24.0312 2.15625,-2.1563 0,-18.3125 L 7.5937496,1006.1122 Z"
       id="rect2991-1" />
    <path
       inkscape:connector-curvature="0"
       style="fill:#000000;fill-opacity:0.23529412;stroke:none"
       d="m 37.84375,1006.1122 0,18.3125 -2.15625,2.1563 0,24.0312 0.40625,0 0,-23.8437 2.15625,-2.1563 0,-18.5 L 37.84375,1006.1122 Z"
       id="path1068" />
    <path
       inkscape:connector-curvature="0"
       style="fill:#000000;fill-opacity:0.07843137;stroke:none"
       d="m 38.25,1006.1122 0,18.5 -2.15625,2.1563 0,23.8437 0.4375,0 0,-23.6875 2.15625,-2.1562 0,-18.6563 L 38.25,1006.1122 Z"
       id="path1080" />
    <path
       inkscape:connector-curvature="0"
       style="fill:#000000;fill-opacity:0.01960784;stroke:none"
       d="m 38.6875,1006.1122 0,18.6563 -2.15625,2.1562 0,23.6875 0.40625,0 0,-23.5 2.15625,-2.1562 0,-18.8438 L 38.6875,1006.1122 Z"
       id="path1082" />
    <path
       inkscape:connector-curvature="0"
       style="fill:#ffffff;fill-opacity:0.23529412;stroke:none"
       d="m 37.40625,1006.1122 0,18.125 -2.15625,2.1563 0,24.2187 0.4375,0 0,-24.0312 2.15625,-2.1563 0,-18.3125 L 37.40625,1006.1122 Z"
       id="path1113" />
    <path
       inkscape:connector-curvature="0"
       style="fill:#ffffff;fill-opacity:0.1187944;stroke:none"
       d="m 37,1006.1122 0,17.9375 -2.15625,2.1563 0,24.4062 0.40625,0 0,-24.2187 2.15625,-2.1563 0,-18.125 L 37,1006.1122 Z"
       id="path1115" />
    <path
       inkscape:connector-curvature="0"
       style="fill:#ffffff;fill-opacity:0.02745098;stroke:none"
       d="m 36.59375,1006.1122 0,17.75 -2.15625,2.1563 0,24.5937 0.40625,0 0,-24.4062 L 37,1024.0497 37,1006.1122 36.59375,1006.1122 Z"
       id="path1117" />
    <path
       inkscape:connector-curvature="0"
       style="opacity:0.30899999;fill:url(#linearGradient2800);fill-opacity:1;stroke:none"
       d="m 7.5937496,1006.1122 c -3.244525,0 -5.84375,2.5992 -5.84375,5.8438 l 0,32.8125 c 0,3.2445 2.599225,5.8437 5.84375,5.8437 l 0.125,0 0,-44.5 L 7.5937496,1006.1122 Z"
       id="path2796" />
    <path
       style="fill:#000000;fill-opacity:0.03643727;stroke:none"
       d="M 8.90625 1.75 L 1.75 14.1875 L 1.75 23.3125 L 14.1875 1.75 L 8.90625 1.75 z M 22.34375 1.75 L 1.75 37.4375 L 1.75 40.40625 C 1.75 41.84185 2.273642 43.13975 3.125 44.15625 L 16.71875 20.59375 C 16.681035 20.327672 16.65625 20.057609 16.65625 19.78125 C 16.65625 17.59005 17.888631 15.69595 19.6875 14.71875 C 19.883737 14.612118 20.071364 14.4907 20.28125 14.40625 L 20.3125 14.40625 L 27.59375 1.75 L 22.34375 1.75 z M 35.75 1.75 L 27.21875 16.5625 C 27.839785 17.486383 28.21875 18.5862 28.21875 19.78125 C 28.21875 21.51205 27.453585 23.067 26.25 24.125 L 27.1875 25.75 L 37.84375 7.3125 L 37.84375 1.75 L 35.75 1.75 z M 37.84375 18.125 L 30.75 30.40625 L 31.21875 31.25 C 31.460423 31.6685 31.324888 32.1958 30.90625 32.4375 L 29.1875 33.4375 C 29.120684 33.476047 29.039683 33.48058 28.96875 33.5 L 21.59375 46.25 L 26.875 46.25 L 35.6875 30.96875 L 35.6875 22.21875 L 37.84375 20.0625 L 37.84375 18.125 z M 26 18.65625 L 23.25 23.46875 C 24.941606 23.097091 26.21875 21.585575 26.21875 19.78125 C 26.21875 19.383396 26.113252 19.016339 26 18.65625 z M 24.28125 25.21875 C 23.698482 25.41765 23.088222 25.5625 22.4375 25.5625 C 22.301037 25.5625 22.165385 25.54059 22.03125 25.53125 L 10.09375 46.25 L 15.375 46.25 L 25.46875 28.75 L 25.21875 28.3125 C 24.997218 27.929 25.096654 27.4506 25.4375 27.1875 L 24.28125 25.21875 z "
       transform="translate(0,1004.3622)"
       id="rect2762" />
    <path
       style="fill:#ffffff;fill-opacity:0.10526315;stroke:none"
       d="M 13.84375 1.75 L 1.75 22.75 L 1.75 23.3125 L 14.1875 1.75 L 13.84375 1.75 z M 27.28125 1.75 L 19.84375 14.65625 C 19.993637 14.580284 20.123836 14.469588 20.28125 14.40625 L 20.3125 14.40625 L 27.59375 1.75 L 27.28125 1.75 z M 37.5 1.75 L 37.5 7.3125 L 27.03125 25.46875 L 27.1875 25.75 L 37.84375 7.3125 L 37.84375 1.75 L 37.5 1.75 z M 37.84375 18.125 L 37.5 18.6875 L 37.5 20.0625 L 35.625 21.9375 L 35.34375 22.4375 L 35.34375 30.96875 L 26.53125 46.25 L 26.875 46.25 L 35.6875 30.96875 L 35.6875 22.21875 L 37.84375 20.0625 L 37.84375 18.125 z M 16.6875 20.125 L 2.9375 43.9375 C 2.99612 44.0145 3.062667 44.08175 3.125 44.15625 L 16.71875 20.59375 C 16.696805 20.438928 16.696861 20.283487 16.6875 20.125 z M 25.3125 28.46875 L 15.03125 46.25 L 15.375 46.25 L 25.46875 28.75 L 25.3125 28.46875 z "
       transform="translate(0,1004.3622)"
       id="path2784" />
    <path
       style="fill:#000000;fill-opacity:0.09716599;stroke:none"
       d="M 8.90625 1.75 L 1.75 14.1875 L 1.75 14.84375 L 9.3125 1.75 L 8.90625 1.75 z M 22.34375 1.75 L 1.75 37.4375 L 1.75 38.09375 L 22.71875 1.75 L 22.34375 1.75 z M 35.75 1.75 L 27.21875 16.5625 C 27.292828 16.672702 27.339709 16.79086 27.40625 16.90625 L 36.15625 1.75 L 35.75 1.75 z M 37.84375 18.125 L 30.75 30.40625 L 30.9375 30.75 L 35.6875 22.5 L 35.6875 22.21875 L 36.09375 21.78125 L 37.84375 18.8125 L 37.84375 18.125 z M 26 18.65625 L 23.25 23.46875 C 23.410703 23.433442 23.56647 23.367448 23.71875 23.3125 L 26.125 19.125 C 26.096403 18.964079 26.048169 18.809406 26 18.65625 z M 22.03125 25.53125 L 10.09375 46.25 L 10.46875 46.25 L 22.40625 25.5625 C 22.280396 25.561829 22.155108 25.539874 22.03125 25.53125 z M 29.46875 33.28125 L 29.1875 33.4375 C 29.120684 33.476047 29.039683 33.48058 28.96875 33.5 L 21.59375 46.25 L 21.96875 46.25 L 29.46875 33.28125 z "
       transform="translate(0,1004.3622)"
       id="path2791" />
    <path
       inkscape:connector-curvature="0"
       style="opacity:0.30899999;fill:url(#linearGradient2852);fill-opacity:1;stroke:none"
       d="m 7.5937496,1006.1122 c -3.244525,0 -5.84375,2.5992 -5.84375,5.8438 l 0,32.8125 c 0,3.2445 2.599225,5.8437 5.84375,5.8437 l 0.125,0 0,-44.5 L 7.5937496,1006.1122 Z"
       id="path2850" />
    <path
       inkscape:connector-curvature="0"
       style="fill:#ffffff;fill-opacity:0.24696356;stroke:none"
       d="m 7.7187496,1006.1122 0,44.5 0.21875,0 0,-44.5 L 7.7187496,1006.1122 Z"
       id="rect2857" />
    <path
       id="path6361"
       d="m 1.7499876,1012.5498 0,-0.5625 c 0,-3.2445 2.59922,-5.875 5.84375,-5.875 l 32.8125004,0 c 3.24452,0 5.84375,2.6305 5.84375,5.875 l 0,0.5625 c 0,-3.2445 -2.59923,-5.875 -5.84375,-5.875 l -32.8125004,0 C 4.3492076,1006.6748 1.7499876,1009.3053 1.7499876,1012.5498 Z"
       style="color:#000000;fill:#ffffff;fill-opacity:1;fill-rule:nonzero;stroke:none;stroke-width:0.2;marker:none;visibility:visible;display:inline;overflow:visible;enable-background:accumulate"
       inkscape:connector-curvature="0" />
    <path
       inkscape:connector-curvature="0"
       style="color:#000000;fill:#000000;fill-opacity:1;fill-rule:nonzero;stroke:none;stroke-width:0.2;marker:none;visibility:visible;display:inline;overflow:visible;enable-background:accumulate"
       d="m 1.7499876,1044.1748 0,0.5625 c 0,3.2445 2.59922,5.875 5.84375,5.875 l 32.8125004,0 c 3.24452,0 5.84375,-2.6305 5.84375,-5.875 l 0,-0.5625 c 0,3.2445 -2.59923,5.875 -5.84375,5.875 l -32.8125004,0 C 4.3492076,1050.0498 1.7499876,1047.4193 1.7499876,1044.1748 Z"
       id="path6388" />
    <path
       style="fill:#000000;fill-opacity:0.39215686;stroke:none"
       d="m 19.681538,1019.0678 c 0.817655,-0.4443 1.76305,-0.7054 2.759011,-0.7054 3.187076,0 5.763951,2.6002 5.763951,5.787 0,1.7308 -0.761168,3.2669 -1.964753,4.3249 l 1.132159,1.9608 c 0.395329,-0.1545 0.864846,0 1.083871,0.3816 l 2.762876,4.7855 c 0.241673,0.4185 0.09927,0.9501 -0.319368,1.1918 l -1.727051,0.9973 c -0.418609,0.2415 -0.950146,0.099 -1.191841,-0.3194 l -2.762854,-4.7856 c -0.221532,-0.3835 -0.129435,-0.8662 0.211411,-1.1293 l -1.132148,-1.9612 c -0.582768,0.1989 -1.200445,0.3254 -1.851167,0.3254 -3.187077,0 -5.781942,-2.5898 -5.781942,-5.7769 C 16.663693,1021.9531 17.882669,1020.045 19.681538,1019.0678 z m 0.961133,1.7476 c -1.177317,0.6399 -1.987229,1.8962 -1.987229,3.3305 0,2.0857 1.695372,3.7655 3.781254,3.7655 2.085859,0 3.776057,-1.6775 3.776057,-3.7633 0,-2.0858 -1.677396,-3.7761 -3.763243,-3.7761 C 21.797661,1020.372 21.177818,1020.5249 20.642671,1020.8154 Z"
       id="rect3910"
       inkscape:connector-curvature="0" />
    <path
       style="fill:#000000;fill-opacity:0.39215686;stroke:none"
       d="m 22.442392,1018.3624 c -0.995961,0 -1.931066,0.2581 -2.748721,0.7024 -1.798869,0.9772 -3.023592,2.8787 -3.023592,5.0699 0,0.1098 0.02446,0.2277 0.03054,0.3359 0.07617,-2.1013 1.252775,-3.9106 2.993051,-4.856 0.817655,-0.4443 1.75276,-0.733 2.748721,-0.733 3.092982,0 5.626312,2.4706 5.772313,5.528 0.0043,-0.091 0,-0.1824 0,-0.2749 C 28.214705,1020.9479 25.629468,1018.3624 22.442392,1018.3624 z m -3.756585,5.9555 c -0.01234,0.1237 -0.03054,0.2398 -0.03054,0.3665 0,2.0857 1.701244,3.7566 3.787126,3.7566 2.085859,0 3.756584,-1.6708 3.756584,-3.7566 0,-0.094 -0.02383,-0.1825 -0.03054,-0.2748 -0.143099,1.954 -1.73428,3.5122 -3.726043,3.5122 C 20.419432,1027.9218 18.783854,1026.3158 18.685807,1024.3179 z m 7.7575,4.4896 c -0.07169,0.07 -0.138565,0.1477 -0.213789,0.2138 l 1.130029,1.9546 c 0.395329,-0.1545 0.880464,-0.015 1.099489,0.3665 l 2.74872,4.795 c 0.03263,0.056 0.04219,0.1236 0.06108,0.1833 0.0815,-0.2316 0.07184,-0.5028 -0.06108,-0.733 l -2.74872,-4.7645 c -0.219025,-0.3815 -0.70416,-0.5515 -1.099489,-0.397 L 26.443307,1028.8075 z m -1.191112,2.9625 c -0.144399,0.2156 -0.201145,0.4776 -0.122165,0.733 0.05058,-0.1644 0.162223,-0.317 0.305413,-0.4276 L 25.252195,1031.77 Z"
       id="path943"
       inkscape:connector-curvature="0" />
    <path
       style="fill:#ffffff;fill-opacity:0.19607843;stroke:none"
       d="m 22.442392,1020.3749 c -0.651849,0 -1.266792,0.1675 -1.801939,0.458 -1.177317,0.6399 -1.985187,1.8948 -1.985187,3.3291 0,0.053 0.0284,0.1006 0.03054,0.1527 0.09857,-1.3152 0.855478,-2.4567 1.954646,-3.0542 0.535147,-0.2905 1.15009,-0.4276 1.801939,-0.4276 2.009426,0 3.609275,1.5631 3.726043,3.5428 0.0041,-0.072 0.03054,-0.1404 0.03054,-0.2137 C 26.198976,1022.0762 24.528239,1020.3749 22.442392,1020.3749 z m 5.772313,4.0008 c -0.06013,1.6429 -0.831638,3.0785 -1.985187,4.0926 l 0.152707,0.3054 c 1.111508,-1.051 1.83248,-2.5306 1.83248,-4.1841 C 28.214705,1024.5164 28.217398,1024.4483 28.214705,1024.3757 z m -11.544626,0.03 c -0.002,0.063 0,0.1204 0,0.1833 0,3.187 2.585237,5.7722 5.772313,5.7722 0.650722,0 1.280254,-0.1065 1.863021,-0.3054 l 0.977323,1.6799 c 0.04542,-0.062 0.09012,-0.135 0.152707,-0.1833 l -1.13003,-1.9546 c -0.582767,0.1988 -1.212299,0.3359 -1.863021,0.3359 C 19.338954,1029.9343 16.801356,1027.4779 16.670079,1024.4063 z m 8.459951,8.0629 c -0.05988,0.2199 -0.03171,0.4584 0.09162,0.672 l 2.74872,4.7949 c 0.241695,0.4182 0.772503,0.547 1.191112,0.3054 l 1.740857,-1.0078 c 0.342242,-0.1976 0.48295,-0.5819 0.397037,-0.9468 -0.06173,0.205 -0.196092,0.4032 -0.397037,0.5192 l -1.740857,0.9773 c -0.418609,0.2416 -0.949417,0.1128 -1.191112,-0.3054 l -2.74872,-4.7947 C 25.182504,1032.6153 25.149947,1032.5414 25.13003,1032.4692 Z"
       id="path948"
       inkscape:connector-curvature="0" />
  </g>
</svg>
