<?xml version="1.0" encoding="UTF-8" standalone="no"?>
<!-- Created with Inkscape (http://www.inkscape.org/) -->

<svg
   xmlns:dc="http://purl.org/dc/elements/1.1/"
   xmlns:cc="http://creativecommons.org/ns#"
   xmlns:rdf="http://www.w3.org/1999/02/22-rdf-syntax-ns#"
   xmlns:svg="http://www.w3.org/2000/svg"
   xmlns="http://www.w3.org/2000/svg"
   xmlns:xlink="http://www.w3.org/1999/xlink"
   xmlns:sodipodi="http://sodipodi.sourceforge.net/DTD/sodipodi-0.dtd"
   xmlns:inkscape="http://www.inkscape.org/namespaces/inkscape"
   width="48"
   height="48"
   id="svg2"
   version="1.1"
   inkscape:version="0.48+devel r12149"
   sodipodi:docname="folder-music.svg">
  <defs
     id="defs4">
    <linearGradient
       gradientTransform="matrix(0.95835365,0,0,-0.95835365,0.99951344,42.838791)"
       y2="-1004.4247"
       x2="23.875"
       y1="-1052.4872"
       x1="23.875"
       gradientUnits="userSpaceOnUse"
       id="linearGradient915"
       xlink:href="#linearGradient1035"
       inkscape:collect="always" />
    <linearGradient
       id="linearGradient1035"
       inkscape:collect="always">
      <stop
         id="stop1037"
         offset="0"
         style="stop-color:#ffffff;stop-opacity:1" />
      <stop
         id="stop1039"
         offset="1"
         style="stop-color:#ececec;stop-opacity:1" />
    </linearGradient>
    <linearGradient
       inkscape:collect="always"
       xlink:href="#linearGradient1045"
       id="linearGradient2700"
       gradientUnits="userSpaceOnUse"
       x1="27.709515"
       y1="-1004.9823"
       x2="27.709515"
       y2="-1052.8083"
       gradientTransform="matrix(0.87849084,0,0,0.87849084,2.9162207,-124.96668)" />
    <linearGradient
       inkscape:collect="always"
       id="linearGradient1045">
      <stop
         style="stop-color:#000000;stop-opacity:1;"
         offset="0"
         id="stop1047" />
      <stop
         style="stop-color:#000000;stop-opacity:0;"
         offset="1"
         id="stop1049" />
    </linearGradient>
    <linearGradient
       gradientTransform="matrix(0.95835365,0,0,0.95835365,-42.838791,0.99951244)"
       inkscape:collect="always"
       xlink:href="#linearGradient2869"
       id="linearGradient2875"
       x1="-1050.2408"
       y1="33.41077"
       x2="-1006.7538"
       y2="33.41077"
       gradientUnits="userSpaceOnUse" />
    <linearGradient
       inkscape:collect="always"
       id="linearGradient2869">
      <stop
         style="stop-color:#f9f9f9;stop-opacity:1"
         offset="0"
         id="stop2871" />
      <stop
         style="stop-color:#ffffff;stop-opacity:1"
         offset="1"
         id="stop2873" />
    </linearGradient>
    <linearGradient
       inkscape:collect="always"
       xlink:href="#linearGradient2476"
       id="linearGradient1043"
       gradientUnits="userSpaceOnUse"
       x1="48.5"
       y1="-1026.1804"
       x2="1.2499999"
       y2="-1026.1804"
       gradientTransform="matrix(0,0.95835365,0.60396245,0,636.58677,1005.3729)" />
    <linearGradient
       id="linearGradient2476"
       inkscape:collect="always">
      <stop
         id="stop2478"
         offset="0"
         style="stop-color:#0c5dfc;stop-opacity:1" />
      <stop
         id="stop2480"
         offset="1"
         style="stop-color:#39e3ff;stop-opacity:1" />
    </linearGradient>
    <linearGradient
       inkscape:collect="always"
       xlink:href="#linearGradient1045"
       id="linearGradient2800"
       gradientUnits="userSpaceOnUse"
       gradientTransform="matrix(0,0.95835365,0.60396245,0,636.58677,1005.3729)"
       x1="29"
       y1="-1059.3043"
       x2="29"
       y2="-1045.8168" />
    <linearGradient
       inkscape:collect="always"
       xlink:href="#linearGradient1045"
       id="linearGradient2852"
       gradientUnits="userSpaceOnUse"
       gradientTransform="matrix(0,1.103105,-0.60396245,0,-627.87927,1001.8989)"
       x1="29"
       y1="-1059.3043"
       x2="29"
       y2="-1045.8168" />
  </defs>
  <sodipodi:namedview
     id="base"
     pagecolor="#ffffff"
     bordercolor="#666666"
     borderopacity="1.0"
     inkscape:pageopacity="0.0"
     inkscape:pageshadow="2"
     inkscape:zoom="10.75"
     inkscape:cx="30.666206"
     inkscape:cy="22.578767"
     inkscape:document-units="px"
     inkscape:current-layer="layer1"
     showgrid="false"
     inkscape:window-width="1366"
     inkscape:window-height="716"
     inkscape:window-x="0"
     inkscape:window-y="28"
     inkscape:window-maximized="1"
     showborder="true"
     inkscape:showpageshadow="false" />
  <metadata
     id="metadata7">
    <rdf:RDF>
      <cc:Work
         rdf:about="">
        <dc:format>image/svg+xml</dc:format>
        <dc:type
           rdf:resource="http://purl.org/dc/dcmitype/StillImage" />
        <dc:title />
      </cc:Work>
    </rdf:RDF>
  </metadata>
  <g
     inkscape:label="Capa 1"
     inkscape:groupmode="layer"
     id="layer1"
     transform="translate(0,-1004.3622)">
    <rect
       style="color:#000000;fill:#333333;fill-opacity:1;fill-rule:nonzero;stroke:none;stroke-width:0.2;marker:none;visibility:visible;display:inline;overflow:visible;enable-background:accumulate"
       id="rect6294"
       width="45.5"
       height="45.5"
       x="1.25"
       y="1005.6122"
       ry="6.3565426" />
    <path
       inkscape:connector-curvature="0"
       style="fill:url(#linearGradient915);fill-opacity:1;stroke:none"
       d="m 7.5937499,1006.1122 c -3.2445246,0 -5.84375,2.5992 -5.84375,5.8438 l 0,32.8125 c 0,3.2445 2.5992254,5.8437 5.84375,5.8437 l 32.8125001,0 c 3.244525,0 5.84375,-2.5992 5.84375,-5.8437 l 0,-32.8125 c 0,-3.2446 -2.599225,-5.8438 -5.84375,-5.8438 L 7.5937499,1006.1122 Z"
       id="rect1041" />
    <rect
       style="opacity:0.05;fill:url(#linearGradient2700);fill-opacity:1;stroke:none"
       id="rect2698"
       width="42.167561"
       height="42.167561"
       x="2.9162197"
       y="-1049.4572"
       ry="1.7082638"
       transform="scale(1,-1)" />
    <rect
       transform="matrix(-2.3953356e-8,-1,1,0,0,0)"
       ry="0.906506"
       y="20.790474"
       x="-1049.4572"
       height="22.376604"
       width="42.167561"
       id="rect2714"
       style="fill:#000000;fill-opacity:0.29411765;stroke:none" />
    <rect
       style="fill:url(#linearGradient2875);fill-opacity:1;stroke:none"
       id="rect2716"
       width="41.554951"
       height="21.744093"
       x="-1049.1509"
       y="21.10673"
       ry="0.88088214"
       transform="matrix(-2.372795e-8,-1,1,0,0,0)" />
    <path
       style="fill:#000000;fill-opacity:0.04858303;stroke:none"
       d="m 42.178771,1049.1577 c 0.03088,-0.092 0.0599,-0.1972 0.0599,-0.2995 l 0,-39.7717 c 0,-0.4879 -0.380498,-0.8984 -0.868507,-0.8984 l -19.975684,0 c -0.08079,0 -0.164565,0.01 -0.239588,0.03 0.124383,-0.3487 0.452768,-0.599 0.838559,-0.599 l 19.975683,0 c 0.48801,0 0.868508,0.4104 0.868508,0.8985 l 0,39.7717 C 42.837639,1048.7001 42.555331,1049.0555 42.178771,1049.1577 Z"
       id="rect2837"
       inkscape:connector-curvature="0" />
    <path
       inkscape:connector-curvature="0"
       style="fill:url(#linearGradient1043);fill-opacity:1;stroke:none"
       d="m 7.5937499,1006.1122 c -3.2445246,0 -5.84375,2.5992 -5.84375,5.8438 l 0,32.8125 c 0,3.2445 2.5992254,5.8437 5.84375,5.8437 l 28.0937501,0 0,-24.0312 2.15625,-2.1563 0,-18.3125 L 7.5937499,1006.1122 Z"
       id="rect2991-1" />
    <path
       inkscape:connector-curvature="0"
       style="fill:#000000;fill-opacity:0.23529412;stroke:none"
       d="m 37.84375,1006.1122 0,18.3125 -2.15625,2.1563 0,24.0312 0.40625,0 0,-23.8437 2.15625,-2.1563 0,-18.5 L 37.84375,1006.1122 Z"
       id="path1068" />
    <path
       inkscape:connector-curvature="0"
       style="fill:#000000;fill-opacity:0.07843137;stroke:none"
       d="m 38.25,1006.1122 0,18.5 -2.15625,2.1563 0,23.8437 0.4375,0 0,-23.6875 2.15625,-2.1562 0,-18.6563 L 38.25,1006.1122 Z"
       id="path1080" />
    <path
       inkscape:connector-curvature="0"
       style="fill:#000000;fill-opacity:0.01960784;stroke:none"
       d="m 38.6875,1006.1122 0,18.6563 -2.15625,2.1562 0,23.6875 0.40625,0 0,-23.5 2.15625,-2.1562 0,-18.8438 L 38.6875,1006.1122 Z"
       id="path1082" />
    <path
       inkscape:connector-curvature="0"
       style="fill:#ffffff;fill-opacity:0.23529412;stroke:none"
       d="m 37.40625,1006.1122 0,18.125 -2.15625,2.1563 0,24.2187 0.4375,0 0,-24.0312 2.15625,-2.1563 0,-18.3125 L 37.40625,1006.1122 Z"
       id="path1113" />
    <path
       inkscape:connector-curvature="0"
       style="fill:#ffffff;fill-opacity:0.1187944;stroke:none"
       d="m 37,1006.1122 0,17.9375 -2.15625,2.1563 0,24.4062 0.40625,0 0,-24.2187 2.15625,-2.1563 0,-18.125 L 37,1006.1122 Z"
       id="path1115" />
    <path
       inkscape:connector-curvature="0"
       style="fill:#ffffff;fill-opacity:0.02745098;stroke:none"
       d="m 36.59375,1006.1122 0,17.75 -2.15625,2.1563 0,24.5937 0.40625,0 0,-24.4062 L 37,1024.0497 37,1006.1122 36.59375,1006.1122 Z"
       id="path1117" />
    <path
       inkscape:connector-curvature="0"
       style="opacity:0.30899999;fill:url(#linearGradient2800);fill-opacity:1;stroke:none"
       d="m 7.5937499,1006.1122 c -3.2445246,0 -5.84375,2.5992 -5.84375,5.8438 l 0,32.8125 c 0,3.2445 2.5992254,5.8437 5.84375,5.8437 l 0.125,0 0,-44.5 L 7.5937499,1006.1122 Z"
       id="path2796" />
    <path
       style="fill:#000000;fill-opacity:0.03643727;stroke:none"
       d="M 8.90625 1.75 L 1.75 14.1875 L 1.75 23.3125 L 14.1875 1.75 L 8.90625 1.75 z M 22.34375 1.75 L 1.75 37.4375 L 1.75 40.40625 C 1.75 41.84185 2.2736421 43.13975 3.125 44.15625 L 19.09375 16.5 L 18.59375 16.5 L 18.59375 14 L 20.53125 14 L 27.59375 1.75 L 22.34375 1.75 z M 35.75 1.75 L 28.6875 14 L 33.78125 14 L 33.78125 14.34375 L 37.84375 7.3125 L 37.84375 1.75 L 35.75 1.75 z M 27.25 16.5 L 26.21875 18.28125 L 31.46875 18.28125 L 31.5 18.28125 L 32.53125 16.5 L 27.25 16.5 z M 37.84375 18.125 L 33.78125 25.15625 L 33.78125 30.28125 C 33.78125 32.12515 32.281447 33.625 30.4375 33.625 C 29.938014 33.625 29.487979 33.509091 29.0625 33.3125 L 21.59375 46.25 L 26.875 46.25 L 35.6875 30.96875 L 35.6875 22.21875 L 37.84375 20.0625 L 37.84375 18.125 z M 24.78125 20.78125 L 20.90625 27.5 L 20.90625 30.28125 C 20.90625 32.12515 19.406446 33.625 17.5625 33.625 C 17.499209 33.625 17.437422 33.597226 17.375 33.59375 L 10.09375 46.25 L 15.375 46.25 L 30.0625 20.78125 L 24.78125 20.78125 z "
       transform="translate(0,1004.3622)"
       id="rect2762" />
    <path
       style="fill:#ffffff;fill-opacity:0.10526315;stroke:none"
       d="M 13.84375 1.75 L 1.75 22.75 L 1.75 23.3125 L 14.1875 1.75 L 13.84375 1.75 z M 27.28125 1.75 L 20.21875 14 L 20.53125 14 L 27.59375 1.75 L 27.28125 1.75 z M 37.5 1.75 L 37.5 7.3125 L 33.65625 14 L 33.78125 14 L 33.78125 14.34375 L 37.84375 7.3125 L 37.84375 1.75 L 37.5 1.75 z M 18.78125 16.5 L 2.9375 43.9375 C 2.996121 44.0145 3.0626672 44.08175 3.125 44.15625 L 19.09375 16.5 L 18.78125 16.5 z M 32.1875 16.5 L 31.15625 18.28125 L 31.46875 18.28125 L 31.5 18.28125 L 32.53125 16.5 L 32.1875 16.5 z M 37.84375 18.125 L 37.5 18.6875 L 37.5 20.0625 L 35.625 21.9375 L 35.34375 22.4375 L 35.34375 30.96875 L 26.53125 46.25 L 26.875 46.25 L 35.6875 30.96875 L 35.6875 22.21875 L 37.84375 20.0625 L 37.84375 18.125 z M 29.71875 20.78125 L 15.03125 46.25 L 15.375 46.25 L 30.0625 20.78125 L 29.71875 20.78125 z "
       transform="translate(0,1004.3622)"
       id="path2784" />
    <path
       style="fill:#000000;fill-opacity:0.09716599;stroke:none"
       d="M 8.90625 1.75 L 1.75 14.1875 L 1.75 14.84375 L 9.3125 1.75 L 8.90625 1.75 z M 22.34375 1.75 L 1.75 37.4375 L 1.75 38.09375 L 22.71875 1.75 L 22.34375 1.75 z M 35.75 1.75 L 28.6875 14 L 29.09375 14 L 36.15625 1.75 L 35.75 1.75 z M 27.25 16.5 L 26.21875 18.28125 L 26.625 18.28125 L 27.65625 16.5 L 27.25 16.5 z M 37.84375 18.125 L 33.78125 25.15625 L 33.78125 25.8125 L 35.6875 22.5 L 35.6875 22.21875 L 36.09375 21.78125 L 37.84375 18.8125 L 37.84375 18.125 z M 24.78125 20.78125 L 20.90625 27.5 L 20.90625 28.15625 L 25.15625 20.78125 L 24.78125 20.78125 z M 29.0625 33.3125 L 21.59375 46.25 L 21.96875 46.25 L 29.375 33.4375 C 29.268583 33.400869 29.163744 33.359279 29.0625 33.3125 z M 17.375 33.59375 L 10.09375 46.25 L 10.46875 46.25 L 17.78125 33.59375 C 17.705381 33.598903 17.639676 33.625 17.5625 33.625 C 17.499209 33.625 17.437422 33.597226 17.375 33.59375 z "
       transform="translate(0,1004.3622)"
       id="path2791" />
    <path
       inkscape:connector-curvature="0"
       style="opacity:0.30899999;fill:url(#linearGradient2852);fill-opacity:1;stroke:none"
       d="m 7.5937499,1006.1122 c -3.2445246,0 -5.84375,2.5992 -5.84375,5.8438 l 0,32.8125 c 0,3.2445 2.5992254,5.8437 5.84375,5.8437 l 0.125,0 0,-44.5 L 7.5937499,1006.1122 Z"
       id="path2850" />
    <path
       inkscape:connector-curvature="0"
       style="fill:#ffffff;fill-opacity:0.24696356;stroke:none"
       d="m 7.7187499,1006.1122 0,44.5 0.21875,0 0,-44.5 L 7.7187499,1006.1122 Z"
       id="rect2857" />
    <path
       id="path6361"
       d="m 1.7499879,1012.5498 0,-0.5625 c 0,-3.2445 2.59922,-5.875 5.84375,-5.875 l 32.8125001,0 c 3.24452,0 5.84375,2.6305 5.84375,5.875 l 0,0.5625 c 0,-3.2445 -2.59923,-5.875 -5.84375,-5.875 l -32.8125001,0 C 4.3492079,1006.6748 1.7499879,1009.3053 1.7499879,1012.5498 Z"
       style="color:#000000;fill:#ffffff;fill-opacity:1;fill-rule:nonzero;stroke:none;stroke-width:0.2;marker:none;visibility:visible;display:inline;overflow:visible;enable-background:accumulate"
       inkscape:connector-curvature="0" />
    <path
       inkscape:connector-curvature="0"
       style="color:#000000;fill:#000000;fill-opacity:1;fill-rule:nonzero;stroke:none;stroke-width:0.2;marker:none;visibility:visible;display:inline;overflow:visible;enable-background:accumulate"
       d="m 1.7499879,1044.1748 0,0.5625 c 0,3.2445 2.59922,5.875 5.84375,5.875 l 32.8125001,0 c 3.24452,0 5.84375,-2.6305 5.84375,-5.875 l 0,-0.5625 c 0,3.2445 -2.59923,5.875 -5.84375,5.875 l -32.8125001,0 C 4.3492079,1050.0498 1.7499879,1047.4193 1.7499879,1044.1748 Z"
       id="path6388" />
    <path
       inkscape:connector-curvature="0"
       id="path1271"
       d="m 18.591204,1018.3622 0,2.5041 15.191368,0 0,-2.5041 L 18.591204,1018.3622 z m 0,4.2736 0,2.5041 0,6.3436 c -0.326643,-0.1067 -0.672729,-0.1669 -1.035014,-0.1669 -1.843947,0 -3.338763,1.4948 -3.338763,3.3388 0,1.8439 1.494815,3.3387 3.338763,3.3387 1.843946,0 3.33876,-1.4948 3.33876,-3.3387 l 0,-9.5155 10.583876,0 0,6.3436 c -0.326643,-0.1067 -0.672728,-0.1669 -1.035015,-0.1669 -1.843948,0 -3.338762,1.4948 -3.338762,3.3388 0,1.8439 1.494813,3.3387 3.338762,3.3387 1.843947,0 3.338761,-1.4948 3.338761,-3.3387 l 0,-9.5155 0,-2.5041 -2.303744,0 -10.583877,0 L 18.591204,1022.6358 Z"
       style="fill:#000000;fill-opacity:0.39215686;stroke:none" />
    <path
       inkscape:connector-curvature="0"
       id="path1320"
       d="m 18.601221,1018.3622 0,0.4294 15.184064,0 0,-0.4294 L 18.601221,1018.3622 z m 0,4.2638 0,0.4295 2.300617,0 10.582833,0 2.300614,0 0,-0.4295 -2.300615,0 -10.582833,0 L 18.601221,1022.626 z m -1.042944,8.681 c -1.843948,0 -3.343562,1.4996 -3.343562,3.3436 0,0.074 0.02597,0.1422 0.03068,0.2147 0.112933,-1.7417 1.542621,-3.1289 3.312886,-3.1289 0.362285,0 0.716303,0.047 1.042945,0.1534 l 0,-0.3988 C 18.274579,1031.3843 17.920561,1031.307 17.558276,1031.307 z m 12.883447,0 c -1.843948,0 -3.343562,1.4996 -3.343562,3.3436 0,0.074 0.02597,0.1422 0.03067,0.2147 0.112933,-1.7417 1.542621,-3.1289 3.312887,-3.1289 0.362286,0 0.716303,0.047 1.042946,0.1534 l 0,-0.3988 C 31.158027,1031.3843 30.804011,1031.307 30.441724,1031.307 Z"
       style="fill:#000000;fill-opacity:0.39215686;stroke:none" />
    <path
       inkscape:connector-curvature="0"
       id="path1325"
       d="m 18.601221,1020.8775 0,0.3681 15.184064,0 0,-0.3681 L 18.601221,1020.8775 z m 2.300617,4.2638 0,0.3681 10.582833,0 0,-0.3681 L 20.901837,1025.1413 z m 0,9.5399 c 0,1.844 -1.499616,3.3129 -3.343561,3.3129 -1.788526,0 -3.226735,-1.3923 -3.312887,-3.1595 -0.0034,0.062 -0.03068,0.1207 -0.03068,0.184 0,1.844 1.499614,3.3436 3.343561,3.3436 1.843946,0 3.343561,-1.4996 3.343561,-3.3436 L 20.901837,1034.6812 z m 12.883447,0 c 0,1.844 -1.499614,3.3129 -3.343561,3.3129 -1.788527,0 -3.226735,-1.3923 -3.312887,-3.1595 -0.0034,0.062 -0.03067,0.1207 -0.03067,0.184 0,1.844 1.499613,3.3436 3.343562,3.3436 1.843947,0 3.343561,-1.4996 3.343561,-3.3436 L 33.785285,1034.6812 Z"
       style="fill:#ffffff;fill-opacity:0.19607843;stroke:none" />
  </g>
  <g
     inkscape:groupmode="layer"
     id="layer2"
     inkscape:label="Capa 2" />
</svg>
