<?xml version="1.0" encoding="UTF-8" standalone="no"?>
<!-- Created with Inkscape (http://www.inkscape.org/) -->

<svg
   xmlns:dc="http://purl.org/dc/elements/1.1/"
   xmlns:cc="http://creativecommons.org/ns#"
   xmlns:rdf="http://www.w3.org/1999/02/22-rdf-syntax-ns#"
   xmlns:svg="http://www.w3.org/2000/svg"
   xmlns="http://www.w3.org/2000/svg"
   xmlns:xlink="http://www.w3.org/1999/xlink"
   xmlns:sodipodi="http://sodipodi.sourceforge.net/DTD/sodipodi-0.dtd"
   xmlns:inkscape="http://www.inkscape.org/namespaces/inkscape"
   width="48"
   height="48"
   id="svg1174"
   version="1.1"
   inkscape:version="0.48+devel r12149"
   sodipodi:docname="folder-templates.svg">
  <defs
     id="defs1176">
    <linearGradient
       gradientTransform="matrix(0.95835365,0,0,-0.95835365,326.9995,-453.16125)"
       y2="-1004.4247"
       x2="23.875"
       y1="-1052.4872"
       x1="23.875"
       gradientUnits="userSpaceOnUse"
       id="linearGradient915"
       xlink:href="#linearGradient1035"
       inkscape:collect="always" />
    <linearGradient
       id="linearGradient1035"
       inkscape:collect="always">
      <stop
         id="stop1037"
         offset="0"
         style="stop-color:#ffffff;stop-opacity:1" />
      <stop
         id="stop1039"
         offset="1"
         style="stop-color:#ececec;stop-opacity:1" />
    </linearGradient>
    <linearGradient
       inkscape:collect="always"
       xlink:href="#linearGradient1045"
       id="linearGradient2700"
       gradientUnits="userSpaceOnUse"
       x1="27.709515"
       y1="-1004.9823"
       x2="27.709515"
       y2="-1052.8083"
       gradientTransform="matrix(0.87849084,0,0,0.87849084,328.91621,371.03336)" />
    <linearGradient
       inkscape:collect="always"
       id="linearGradient1045">
      <stop
         style="stop-color:#000000;stop-opacity:1;"
         offset="0"
         id="stop1047" />
      <stop
         style="stop-color:#000000;stop-opacity:0;"
         offset="1"
         id="stop1049" />
    </linearGradient>
    <linearGradient
       gradientTransform="matrix(0.95835365,0,0,0.95835365,453.16125,326.99951)"
       inkscape:collect="always"
       xlink:href="#linearGradient2869"
       id="linearGradient2875"
       x1="-1050.2408"
       y1="33.41077"
       x2="-1006.7538"
       y2="33.41077"
       gradientUnits="userSpaceOnUse" />
    <linearGradient
       inkscape:collect="always"
       id="linearGradient2869">
      <stop
         style="stop-color:#f9f9f9;stop-opacity:1"
         offset="0"
         id="stop2871" />
      <stop
         style="stop-color:#ffffff;stop-opacity:1"
         offset="1"
         id="stop2873" />
    </linearGradient>
    <linearGradient
       inkscape:collect="always"
       xlink:href="#linearGradient2476"
       id="linearGradient1043"
       gradientUnits="userSpaceOnUse"
       x1="48.5"
       y1="-1026.1804"
       x2="1.2499999"
       y2="-1026.1804"
       gradientTransform="matrix(0,0.95835365,0.60396245,0,962.58676,509.37289)" />
    <linearGradient
       id="linearGradient2476"
       inkscape:collect="always">
      <stop
         id="stop2478"
         offset="0"
         style="stop-color:#0c5dfc;stop-opacity:1" />
      <stop
         id="stop2480"
         offset="1"
         style="stop-color:#39e3ff;stop-opacity:1" />
    </linearGradient>
    <linearGradient
       inkscape:collect="always"
       xlink:href="#linearGradient1045"
       id="linearGradient2800"
       gradientUnits="userSpaceOnUse"
       gradientTransform="matrix(0,0.95835365,0.60396245,0,962.58676,509.37289)"
       x1="29"
       y1="-1059.3043"
       x2="29"
       y2="-1045.8168" />
    <linearGradient
       inkscape:collect="always"
       xlink:href="#linearGradient1045"
       id="linearGradient2852"
       gradientUnits="userSpaceOnUse"
       gradientTransform="matrix(0,1.103105,-0.60396245,0,-301.87928,505.89889)"
       x1="29"
       y1="-1059.3043"
       x2="29"
       y2="-1045.8168" />
  </defs>
  <sodipodi:namedview
     id="base"
     pagecolor="#ffffff"
     bordercolor="#666666"
     borderopacity="1.0"
     inkscape:pageopacity="0.0"
     inkscape:pageshadow="2"
     inkscape:zoom="5.375"
     inkscape:cx="-6.4169948"
     inkscape:cy="37.383817"
     inkscape:document-units="px"
     inkscape:current-layer="layer1"
     showgrid="false"
     fit-margin-top="0"
     fit-margin-left="0"
     fit-margin-right="0"
     fit-margin-bottom="0"
     inkscape:window-width="1366"
     inkscape:window-height="716"
     inkscape:window-x="0"
     inkscape:window-y="28"
     inkscape:window-maximized="1" />
  <metadata
     id="metadata1179">
    <rdf:RDF>
      <cc:Work
         rdf:about="">
        <dc:format>image/svg+xml</dc:format>
        <dc:type
           rdf:resource="http://purl.org/dc/dcmitype/StillImage" />
        <dc:title />
      </cc:Work>
    </rdf:RDF>
  </metadata>
  <g
     inkscape:label="Capa 1"
     inkscape:groupmode="layer"
     id="layer1"
     transform="translate(-326,-508.36218)">
    <rect
       style="color:#000000;fill:#333333;fill-opacity:1;fill-rule:nonzero;stroke:none;stroke-width:0.2;marker:none;visibility:visible;display:inline;overflow:visible;enable-background:accumulate"
       id="rect6294"
       width="45.5"
       height="45.5"
       x="327.25"
       y="509.61218"
       ry="6.3565426" />
    <path
       inkscape:connector-curvature="0"
       style="fill:url(#linearGradient915);fill-opacity:1;stroke:none"
       d="m 333.59374,510.11219 c -3.24452,0 -5.84375,2.59922 -5.84375,5.84375 l 0,32.8125 c 0,3.24452 2.59923,5.84375 5.84375,5.84375 l 32.8125,0 c 3.24452,0 5.84375,-2.59923 5.84375,-5.84375 l 0,-32.8125 c 0,-3.24453 -2.59923,-5.84375 -5.84375,-5.84375 L 333.59374,510.11219 Z"
       id="rect1041" />
    <rect
       style="opacity:0.05;fill:url(#linearGradient2700);fill-opacity:1;stroke:none"
       id="rect2698"
       width="42.167561"
       height="42.167561"
       x="328.91623"
       y="-553.45715"
       ry="1.7082638"
       transform="scale(1,-1)" />
    <rect
       transform="matrix(-2.3953356e-8,-1,1,0,0,0)"
       ry="0.906506"
       y="346.7905"
       x="-553.45715"
       height="22.376604"
       width="42.167561"
       id="rect2714"
       style="fill:#000000;fill-opacity:0.29411765;stroke:none" />
    <rect
       style="fill:url(#linearGradient2875);fill-opacity:1;stroke:none"
       id="rect2716"
       width="41.554951"
       height="21.744093"
       x="-553.15088"
       y="347.10675"
       ry="0.88088214"
       transform="matrix(-2.372795e-8,-1,1,0,0,0)" />
    <path
       style="fill:#000000;fill-opacity:0.04858303;stroke:none"
       d="m 368.17876,553.15769 c 0.0309,-0.092 0.0599,-0.1972 0.0599,-0.2995 l 0,-39.7717 c 0,-0.4879 -0.3805,-0.8984 -0.86851,-0.8984 l -19.97568,0 c -0.0808,0 -0.16457,0.01 -0.23959,0.03 0.12438,-0.3487 0.45277,-0.599 0.83856,-0.599 l 19.97568,0 c 0.48801,0 0.86851,0.4104 0.86851,0.8985 l 0,39.7717 C 368.83763,552.70009 368.55532,553.05549 368.17876,553.15769 Z"
       id="rect2837"
       inkscape:connector-curvature="0" />
    <path
       inkscape:connector-curvature="0"
       style="fill:url(#linearGradient1043);fill-opacity:1;stroke:none"
       d="m 333.59374,510.11219 c -3.24452,0 -5.84375,2.59922 -5.84375,5.84375 l 0,32.8125 c 0,3.24452 2.59923,5.84375 5.84375,5.84375 l 28.09375,0 0,-24.03125 2.15625,-2.15625 0,-18.3125 L 333.59374,510.11219 Z"
       id="rect2991-1" />
    <path
       inkscape:connector-curvature="0"
       style="fill:#000000;fill-opacity:0.23529412;stroke:none"
       d="m 363.84374,510.11219 0,18.3125 -2.15625,2.15625 0,24.03125 0.40625,0 0,-23.84375 2.15625,-2.15625 0,-18.5 L 363.84374,510.11219 Z"
       id="path1068" />
    <path
       inkscape:connector-curvature="0"
       style="fill:#000000;fill-opacity:0.07843137;stroke:none"
       d="m 364.24999,510.11219 0,18.5 -2.15625,2.15625 0,23.84375 0.4375,0 0,-23.6875 2.15625,-2.15625 0,-18.65625 L 364.24999,510.11219 Z"
       id="path1080" />
    <path
       inkscape:connector-curvature="0"
       style="fill:#000000;fill-opacity:0.01960784;stroke:none"
       d="m 364.68749,510.11219 0,18.65625 -2.15625,2.15625 0,23.6875 0.40625,0 0,-23.5 2.15625,-2.15625 0,-18.84375 L 364.68749,510.11219 Z"
       id="path1082" />
    <path
       inkscape:connector-curvature="0"
       style="fill:#ffffff;fill-opacity:0.23529412;stroke:none"
       d="m 363.40624,510.11219 0,18.125 -2.15625,2.15625 0,24.21875 0.4375,0 0,-24.03125 2.15625,-2.15625 0,-18.3125 L 363.40624,510.11219 Z"
       id="path1113" />
    <path
       inkscape:connector-curvature="0"
       style="fill:#ffffff;fill-opacity:0.1187944;stroke:none"
       d="m 362.99999,510.11219 0,17.9375 -2.15625,2.15625 0,24.40625 0.40625,0 0,-24.21875 2.15625,-2.15625 0,-18.125 L 362.99999,510.11219 Z"
       id="path1115" />
    <path
       inkscape:connector-curvature="0"
       style="fill:#ffffff;fill-opacity:0.02745098;stroke:none"
       d="m 362.59374,510.11219 0,17.75 -2.15625,2.15625 0,24.59375 0.40625,0 0,-24.40625 2.15625,-2.15625 0,-17.9375 L 362.59374,510.11219 Z"
       id="path1117" />
    <path
       inkscape:connector-curvature="0"
       style="opacity:0.30899999;fill:url(#linearGradient2800);fill-opacity:1;stroke:none"
       d="m 333.59374,510.11219 c -3.24452,0 -5.84375,2.59922 -5.84375,5.84375 l 0,32.8125 c 0,3.24452 2.59923,5.84375 5.84375,5.84375 l 0.125,0 0,-44.5 L 333.59374,510.11219 Z"
       id="path2796" />
    <path
       style="fill:#000000;fill-opacity:0.03643727;stroke:none"
       d="M 8.90625 1.75 L 1.75 14.1875 L 1.75 23.3125 L 14.1875 1.75 L 8.90625 1.75 z M 22.34375 1.75 L 15.28125 14 L 17.8125 14 L 20.53125 14 L 27.59375 1.75 L 22.34375 1.75 z M 17.8125 14 L 15.90625 16.40625 L 14 18.8125 L 15.90625 18.8125 L 16.5 20.96875 L 19.375 15.96875 L 17.8125 14 z M 14 18.8125 L 14 16.21875 L 1.75 37.4375 L 1.75 40.40625 C 1.75 41.84192 2.27364 43.13976 3.125 44.15625 L 14 25.3125 L 14 18.8125 z M 35.75 1.75 L 28.6875 14 L 34 14 L 37.84375 7.3125 L 37.84375 1.75 L 35.75 1.75 z M 37.84375 18.125 L 34 24.78125 L 34 30.1875 L 34 33.90625 L 35.6875 30.96875 L 35.6875 22.21875 L 37.84375 20.0625 L 37.84375 18.125 z M 34 30.1875 L 31.84375 28.5 L 29.1875 33.09375 L 29.1875 34 L 31.59375 32.09375 L 34 30.1875 z M 29.1875 34 L 28.65625 34 L 21.59375 46.25 L 26.875 46.25 L 33.9375 34 L 29.1875 34 z M 19.875 29.3125 L 19.3125 30.25 C 19.711093 30.918343 19.9375 31.698237 19.9375 32.53125 C 19.9375 33.04345 19.84694 33.5413 19.6875 34 L 17.15625 34 L 10.09375 46.25 L 15.375 46.25 L 22.4375 34 L 20.71875 34 C 20.8501 33.5309 20.9375 33.04175 20.9375 32.53125 C 20.9375 31.326592 20.537117 30.217001 19.875 29.3125 z M 25.0625 29.4375 L 22.4375 30.1875 L 24.34375 30.71875 L 25.0625 29.4375 z "
       transform="translate(326,508.36218)"
       id="rect2762" />
    <path
       style="fill:#ffffff;fill-opacity:0.10526315;stroke:none"
       d="M 13.84375 1.75 L 1.75 22.75 L 1.75 23.3125 L 14.1875 1.75 L 13.84375 1.75 z M 27.28125 1.75 L 20.21875 14 L 20.53125 14 L 27.59375 1.75 L 27.28125 1.75 z M 37.5 1.75 L 37.5 7.3125 L 33.65625 14 L 34 14 L 37.84375 7.3125 L 37.84375 1.75 L 37.5 1.75 z M 19.1875 15.75 L 16.40625 20.59375 L 16.5 20.96875 L 19.375 15.96875 L 19.1875 15.75 z M 37.84375 18.125 L 37.5 18.6875 L 37.5 20.0625 L 35.625 21.9375 L 35.34375 22.4375 L 35.34375 30.96875 L 34 33.3125 L 34 33.90625 L 35.6875 30.96875 L 35.6875 22.21875 L 37.84375 20.0625 L 37.84375 18.125 z M 14 24.78125 L 2.9375 43.9375 C 2.9961 44.015 3.06267 44.08182 3.125 44.15625 L 14 25.3125 L 14 24.78125 z M 25.0625 29.4375 L 24.65625 29.5625 L 24.03125 30.65625 L 24.34375 30.71875 L 25.0625 29.4375 z M 22.09375 34 L 15.03125 46.25 L 15.375 46.25 L 22.4375 34 L 22.09375 34 z M 33.59375 34 L 26.53125 46.25 L 26.875 46.25 L 33.9375 34 L 33.59375 34 z "
       transform="translate(326,508.36218)"
       id="path2784" />
    <path
       style="fill:#000000;fill-opacity:0.09716599;stroke:none"
       d="M 8.90625 1.75 L 1.75 14.1875 L 1.75 14.84375 L 9.3125 1.75 L 8.90625 1.75 z M 22.34375 1.75 L 15.28125 14 L 15.65625 14 L 22.71875 1.75 L 22.34375 1.75 z M 35.75 1.75 L 28.6875 14 L 29.09375 14 L 36.15625 1.75 L 35.75 1.75 z M 14 16.21875 L 1.75 37.4375 L 1.75 38.09375 L 14 16.875 L 14 16.21875 z M 37.84375 18.125 L 34 24.78125 L 34 25.40625 L 35.6875 22.5 L 35.6875 22.21875 L 36.09375 21.78125 L 37.84375 18.8125 L 37.84375 18.125 z M 31.84375 28.5 L 29.1875 33.09375 L 29.1875 33.75 L 32.125 28.6875 L 31.84375 28.5 z M 19.875 29.3125 L 19.3125 30.25 C 19.380152 30.363436 19.442401 30.474142 19.5 30.59375 L 20.09375 29.59375 C 20.030028 29.493714 19.944902 29.407991 19.875 29.3125 z M 17.15625 34 L 10.09375 46.25 L 10.46875 46.25 L 17.53125 34 L 17.15625 34 z M 28.65625 34 L 21.59375 46.25 L 21.96875 46.25 L 29.03125 34 L 28.65625 34 z "
       transform="translate(326,508.36218)"
       id="path2791" />
    <path
       inkscape:connector-curvature="0"
       style="opacity:0.30899999;fill:url(#linearGradient2852);fill-opacity:1;stroke:none"
       d="m 333.59374,510.11219 c -3.24452,0 -5.84375,2.59922 -5.84375,5.84375 l 0,32.8125 c 0,3.24452 2.59923,5.84375 5.84375,5.84375 l 0.125,0 0,-44.5 L 333.59374,510.11219 Z"
       id="path2850" />
    <path
       inkscape:connector-curvature="0"
       style="fill:#ffffff;fill-opacity:0.24696356;stroke:none"
       d="m 333.71874,510.11219 0,44.5 0.21875,0 0,-44.5 L 333.71874,510.11219 Z"
       id="rect2857" />
    <path
       id="path6361"
       d="m 327.74998,516.54979 0,-0.5625 c 0,-3.2445 2.59922,-5.875 5.84375,-5.875 l 32.8125,0 c 3.24452,0 5.84375,2.6305 5.84375,5.875 l 0,0.5625 c 0,-3.2445 -2.59923,-5.875 -5.84375,-5.875 l -32.8125,0 C 330.3492,510.67479 327.74998,513.30529 327.74998,516.54979 Z"
       style="color:#000000;fill:#ffffff;fill-opacity:1;fill-rule:nonzero;stroke:none;stroke-width:0.2;marker:none;visibility:visible;display:inline;overflow:visible;enable-background:accumulate"
       inkscape:connector-curvature="0" />
    <path
       inkscape:connector-curvature="0"
       style="color:#000000;fill:#000000;fill-opacity:1;fill-rule:nonzero;stroke:none;stroke-width:0.2;marker:none;visibility:visible;display:inline;overflow:visible;enable-background:accumulate"
       d="m 327.74998,548.17479 0,0.5625 c 0,3.2445 2.59922,5.875 5.84375,5.875 l 32.8125,0 c 3.24452,0 5.84375,-2.6305 5.84375,-5.875 l 0,-0.5625 c 0,3.2445 -2.59923,5.875 -5.84375,5.875 l -32.8125,0 C 330.3492,554.04979 327.74998,551.41929 327.74998,548.17479 Z"
       id="path6388" />
    <path
       inkscape:connector-curvature="0"
       style="fill:#000000;fill-opacity:0.39215686;stroke:none"
       d="m 340,522.36219 0,4.8125 1.90625,-2.4062 1.90625,-2.4063 L 340,522.36219 z m 3.8125,0 1.90625,2.4063 1.90625,2.4062 -1.875,0 -0.90625,3.2188 -1.03125,3.5312 -1,-3.5312 -0.90625,-3.2188 -1.90625,0 0,8.4688 c 0.46907,-0.1314 0.95824,-0.2188 1.46875,-0.2188 3.0161,0 5.46875,2.4526 5.46875,5.4688 0,0.5105 -0.0874,0.9996 -0.21875,1.4687 l 8.46875,0 0,-1.875 -3.21875,-0.9375 -3.53125,-1 3.53125,-1 3.21875,-0.9375 0,-1.875 2.40625,1.9063 2.40625,1.9062 0,-16.1875 L 343.8125,522.36219 z m 16.1875,16.1875 -2.40625,1.9063 -2.40625,1.9062 4.8125,0 L 360,538.54969 z m -18.53125,-2.125 c -0.51226,0 -1.01006,0.091 -1.46875,0.25 l 0,5.6875 5.6875,0 c 0.15944,-0.4587 0.25,-0.9565 0.25,-1.4687 C 345.9375,538.42959 343.93257,536.42469 341.46875,536.42469 Z"
       id="rect929" />
    <path
       inkscape:connector-curvature="0"
       style="fill:#000000;fill-opacity:0.39215686;stroke:none"
       d="m 340,522.36219 0,0.4688 3.4375,0 0.375,-0.4688 L 340,522.36219 z m 3.8125,0 0.375,0.4688 15.8125,0 0,-0.4688 L 343.8125,522.36219 z m -3.4375,4.8125 -0.375,0.4688 1.90625,0 0.90625,3.2187 1,3.5313 1.03125,-3.5313 0.90625,-3.2187 1.875,0 -0.375,-0.4688 -1.5,0 -0.90625,3.2188 -1.03125,3.5312 -1,-3.5312 -0.90625,-3.2188 L 340.375,527.17469 z m 1.09375,9.25 c -0.51226,0 -1.01006,0.091 -1.46875,0.25 l 0,0.4688 c 0.45869,-0.159 0.95649,-0.25 1.46875,-0.25 2.38918,0 4.32108,1.8891 4.4375,4.25 0.005,-0.085 0.0312,-0.1644 0.0312,-0.25 C 345.9375,538.42959 343.93257,536.42469 341.46875,536.42469 z m 7.78125,2.375 -0.8125,0.2188 3.53125,1 3.21875,0.9375 0,-0.4688 -3.21875,-0.9375 L 349.25,538.79969 z m 10.46875,0 -2.125,1.6563 -2.40625,1.9062 0.59375,0 1.8125,-1.4375 L 360,539.01849 359.71875,538.79969 z m -12.78125,2.2813 c -0.0184,0.4425 -0.10368,0.8704 -0.21875,1.2812 l 0.0937,0 c 0.0663,-0.3256 0.125,-0.6554 0.125,-1 C 346.9375,541.26819 346.9422,541.17379 346.9375,541.08099 Z"
       id="path950" />
    <path
       style="fill:#ffffff;fill-opacity:0.19607843;stroke:none"
       d="m 343.40625,522.89069 -1.5,1.875 -1.90625,2.4062 0.40625,0 1.5,-1.875 1.90625,-2.4062 L 343.40625,522.89069 z m 0.40625,0 1.90625,2.4062 1.5,1.875 0.40625,0 -1.90625,-2.4062 -1.5,-1.875 L 343.8125,522.89069 z m 11.375,11.8437 0,0.5313 2.40625,1.9062 2.0625,1.6563 0.34375,-0.2813 -2.40625,-1.9062 L 355.1875,534.73439 z m -13.71875,0.6875 c -0.51051,0 -0.99968,0.087 -1.46875,0.2188 l 0,0.5312 c 0.46907,-0.1313 0.95824,-0.2187 1.46875,-0.2187 2.91112,0 5.27491,2.2852 5.4375,5.1562 0.004,-0.074 0.0312,-0.1439 0.0312,-0.2187 C 346.9375,537.87459 344.48485,535.42189 341.46875,535.42189 z m 13.71875,1.1875 -3.21875,0.9375 -3.53125,1 0.9375,0.2813 2.59375,-0.75 3.21875,-0.9375 L 355.1875,536.60939 z m -9.28125,4.5625 c -0.027,0.4109 -0.0893,0.815 -0.21875,1.1875 l -5.6875,0 0,0.5313 5.6875,0 c 0.15944,-0.4587 0.25,-0.9565 0.25,-1.4688 C 345.9375,541.33679 345.91097,541.25589 345.90625,541.17189 z m 0.9375,1.1875 c -0.0344,0.1796 -0.0763,0.3573 -0.125,0.5313 l 8.46875,0 0,-0.5313 L 346.84375,542.35939 z m 8.34375,0.5313 4.8125,0 0,-0.5313 -4.15625,0 L 355.1875,542.89069 Z"
       id="path955"
       inkscape:connector-curvature="0" />
  </g>
</svg>
