<?xml version="1.0" encoding="UTF-8" standalone="no"?>
<!-- Created with Inkscape (http://www.inkscape.org/) -->

<svg
   xmlns:dc="http://purl.org/dc/elements/1.1/"
   xmlns:cc="http://creativecommons.org/ns#"
   xmlns:rdf="http://www.w3.org/1999/02/22-rdf-syntax-ns#"
   xmlns:svg="http://www.w3.org/2000/svg"
   xmlns="http://www.w3.org/2000/svg"
   xmlns:xlink="http://www.w3.org/1999/xlink"
   xmlns:sodipodi="http://sodipodi.sourceforge.net/DTD/sodipodi-0.dtd"
   xmlns:inkscape="http://www.inkscape.org/namespaces/inkscape"
   width="48"
   height="48"
   id="svg2"
   version="1.1"
   inkscape:version="0.48+devel r12149"
   sodipodi:docname="folder-pictures.svg">
  <defs
     id="defs4">
    <linearGradient
       gradientTransform="matrix(0.95835365,0,0,-0.95835365,0.99951345,42.838811)"
       y2="-1004.4247"
       x2="23.875"
       y1="-1052.4872"
       x1="23.875"
       gradientUnits="userSpaceOnUse"
       id="linearGradient915"
       xlink:href="#linearGradient1035"
       inkscape:collect="always" />
    <linearGradient
       id="linearGradient1035"
       inkscape:collect="always">
      <stop
         id="stop1037"
         offset="0"
         style="stop-color:#ffffff;stop-opacity:1" />
      <stop
         id="stop1039"
         offset="1"
         style="stop-color:#ececec;stop-opacity:1" />
    </linearGradient>
    <linearGradient
       inkscape:collect="always"
       xlink:href="#linearGradient1045"
       id="linearGradient2700"
       gradientUnits="userSpaceOnUse"
       x1="27.709515"
       y1="-1004.9823"
       x2="27.709515"
       y2="-1052.8083"
       gradientTransform="matrix(0.87849084,0,0,0.87849084,2.9162207,-124.9667)" />
    <linearGradient
       inkscape:collect="always"
       id="linearGradient1045">
      <stop
         style="stop-color:#000000;stop-opacity:1;"
         offset="0"
         id="stop1047" />
      <stop
         style="stop-color:#000000;stop-opacity:0;"
         offset="1"
         id="stop1049" />
    </linearGradient>
    <linearGradient
       gradientTransform="matrix(0.95835365,0,0,0.95835365,-42.838811,0.99951236)"
       inkscape:collect="always"
       xlink:href="#linearGradient2869"
       id="linearGradient2875"
       x1="-1050.2408"
       y1="33.41077"
       x2="-1006.7538"
       y2="33.41077"
       gradientUnits="userSpaceOnUse" />
    <linearGradient
       inkscape:collect="always"
       id="linearGradient2869">
      <stop
         style="stop-color:#f9f9f9;stop-opacity:1"
         offset="0"
         id="stop2871" />
      <stop
         style="stop-color:#ffffff;stop-opacity:1"
         offset="1"
         id="stop2873" />
    </linearGradient>
    <linearGradient
       inkscape:collect="always"
       xlink:href="#linearGradient2476"
       id="linearGradient1043"
       gradientUnits="userSpaceOnUse"
       x1="48.5"
       y1="-1026.1804"
       x2="1.2499999"
       y2="-1026.1804"
       gradientTransform="matrix(0,0.95835365,0.60396245,0,636.58677,1005.3729)" />
    <linearGradient
       id="linearGradient2476"
       inkscape:collect="always">
      <stop
         id="stop2478"
         offset="0"
         style="stop-color:#0c5dfc;stop-opacity:1" />
      <stop
         id="stop2480"
         offset="1"
         style="stop-color:#39e3ff;stop-opacity:1" />
    </linearGradient>
    <linearGradient
       inkscape:collect="always"
       xlink:href="#linearGradient1045"
       id="linearGradient2800"
       gradientUnits="userSpaceOnUse"
       gradientTransform="matrix(0,0.95835365,0.60396245,0,636.58677,1005.3729)"
       x1="29"
       y1="-1059.3043"
       x2="29"
       y2="-1045.8168" />
    <linearGradient
       inkscape:collect="always"
       xlink:href="#linearGradient1045"
       id="linearGradient2852"
       gradientUnits="userSpaceOnUse"
       gradientTransform="matrix(0,1.103105,-0.60396245,0,-627.87927,1001.8989)"
       x1="29"
       y1="-1059.3043"
       x2="29"
       y2="-1045.8168" />
  </defs>
  <sodipodi:namedview
     id="base"
     pagecolor="#ffffff"
     bordercolor="#666666"
     borderopacity="1.0"
     inkscape:pageopacity="0.0"
     inkscape:pageshadow="2"
     inkscape:zoom="7.6013979"
     inkscape:cx="14.75068"
     inkscape:cy="24.596604"
     inkscape:document-units="px"
     inkscape:current-layer="layer1"
     showgrid="false"
     inkscape:window-width="1366"
     inkscape:window-height="716"
     inkscape:window-x="0"
     inkscape:window-y="28"
     inkscape:window-maximized="1">
    <inkscape:grid
       type="xygrid"
       id="grid3831" />
  </sodipodi:namedview>
  <metadata
     id="metadata7">
    <rdf:RDF>
      <cc:Work
         rdf:about="">
        <dc:format>image/svg+xml</dc:format>
        <dc:type
           rdf:resource="http://purl.org/dc/dcmitype/StillImage" />
        <dc:title />
      </cc:Work>
    </rdf:RDF>
  </metadata>
  <g
     inkscape:label="Capa 1"
     inkscape:groupmode="layer"
     id="layer1"
     transform="translate(0,-1004.3622)">
    <rect
       style="color:#000000;fill:#333333;fill-opacity:1;fill-rule:nonzero;stroke:none;stroke-width:0.2;marker:none;visibility:visible;display:inline;overflow:visible;enable-background:accumulate"
       id="rect6294"
       width="45.5"
       height="45.5"
       x="1.25"
       y="1005.6122"
       ry="6.3565426" />
    <path
       inkscape:connector-curvature="0"
       style="fill:url(#linearGradient915);fill-opacity:1;stroke:none"
       d="m 7.59375,1006.1122 c -3.244525,0 -5.8437501,2.5992 -5.8437501,5.8438 l 0,32.8125 c 0,3.2445 2.5992251,5.8437 5.8437501,5.8437 l 32.8125,0 c 3.244525,0 5.84375,-2.5992 5.84375,-5.8437 l 0,-32.8125 c 0,-3.2446 -2.599225,-5.8438 -5.84375,-5.8438 L 7.59375,1006.1122 Z"
       id="rect1041" />
    <rect
       style="opacity:0.05;fill:url(#linearGradient2700);fill-opacity:1;stroke:none"
       id="rect2698"
       width="42.167561"
       height="42.167561"
       x="2.9162197"
       y="-1049.4573"
       ry="1.7082638"
       transform="scale(1,-1)" />
    <rect
       transform="matrix(-2.3953356e-8,-1,1,0,0,0)"
       ry="0.906506"
       y="20.790474"
       x="-1049.4573"
       height="22.376604"
       width="42.167561"
       id="rect2714"
       style="fill:#000000;fill-opacity:0.29411765;stroke:none" />
    <rect
       style="fill:url(#linearGradient2875);fill-opacity:1;stroke:none"
       id="rect2716"
       width="41.554951"
       height="21.744093"
       x="-1049.151"
       y="21.106728"
       ry="0.88088214"
       transform="matrix(-2.372795e-8,-1,1,0,0,0)" />
    <path
       style="fill:#000000;fill-opacity:0.04858303;stroke:none"
       d="m 42.178771,1049.1577 c 0.03088,-0.092 0.0599,-0.1972 0.0599,-0.2995 l 0,-39.7717 c 0,-0.4879 -0.380498,-0.8984 -0.868507,-0.8984 l -19.975684,0 c -0.08079,0 -0.164565,0.01 -0.239588,0.03 0.124383,-0.3487 0.452768,-0.599 0.838559,-0.599 l 19.975683,0 c 0.48801,0 0.868508,0.4104 0.868508,0.8985 l 0,39.7717 C 42.837639,1048.7001 42.555331,1049.0555 42.178771,1049.1577 Z"
       id="rect2837"
       inkscape:connector-curvature="0" />
    <path
       inkscape:connector-curvature="0"
       style="fill:url(#linearGradient1043);fill-opacity:1;stroke:none"
       d="m 7.59375,1006.1122 c -3.244525,0 -5.8437501,2.5992 -5.8437501,5.8438 l 0,32.8125 c 0,3.2445 2.5992251,5.8437 5.8437501,5.8437 l 28.09375,0 0,-24.0312 2.15625,-2.1563 0,-18.3125 L 7.59375,1006.1122 Z"
       id="rect2991-1" />
    <path
       inkscape:connector-curvature="0"
       style="fill:#000000;fill-opacity:0.23529412;stroke:none"
       d="m 37.84375,1006.1122 0,18.3125 -2.15625,2.1563 0,24.0312 0.40625,0 0,-23.8437 2.15625,-2.1563 0,-18.5 L 37.84375,1006.1122 Z"
       id="path1068" />
    <path
       inkscape:connector-curvature="0"
       style="fill:#000000;fill-opacity:0.07843137;stroke:none"
       d="m 38.25,1006.1122 0,18.5 -2.15625,2.1563 0,23.8437 0.4375,0 0,-23.6875 2.15625,-2.1562 0,-18.6563 L 38.25,1006.1122 Z"
       id="path1080" />
    <path
       inkscape:connector-curvature="0"
       style="fill:#000000;fill-opacity:0.01960784;stroke:none"
       d="m 38.6875,1006.1122 0,18.6563 -2.15625,2.1562 0,23.6875 0.40625,0 0,-23.5 2.15625,-2.1562 0,-18.8438 L 38.6875,1006.1122 Z"
       id="path1082" />
    <path
       inkscape:connector-curvature="0"
       style="fill:#ffffff;fill-opacity:0.23529412;stroke:none"
       d="m 37.40625,1006.1122 0,18.125 -2.15625,2.1563 0,24.2187 0.4375,0 0,-24.0312 2.15625,-2.1563 0,-18.3125 L 37.40625,1006.1122 Z"
       id="path1113" />
    <path
       inkscape:connector-curvature="0"
       style="fill:#ffffff;fill-opacity:0.1187944;stroke:none"
       d="m 37,1006.1122 0,17.9375 -2.15625,2.1563 0,24.4062 0.40625,0 0,-24.2187 2.15625,-2.1563 0,-18.125 L 37,1006.1122 Z"
       id="path1115" />
    <path
       inkscape:connector-curvature="0"
       style="fill:#ffffff;fill-opacity:0.02745098;stroke:none"
       d="m 36.59375,1006.1122 0,17.75 -2.15625,2.1563 0,24.5937 0.40625,0 0,-24.4062 L 37,1024.0497 37,1006.1122 36.59375,1006.1122 Z"
       id="path1117" />
    <path
       inkscape:connector-curvature="0"
       style="opacity:0.30899999;fill:url(#linearGradient2800);fill-opacity:1;stroke:none"
       d="m 7.59375,1006.1122 c -3.244525,0 -5.8437501,2.5992 -5.8437501,5.8438 l 0,32.8125 c 0,3.2445 2.5992251,5.8437 5.8437501,5.8437 l 0.125,0 0,-44.5 L 7.59375,1006.1122 Z"
       id="path2796" />
    <path
       style="fill:#000000;fill-opacity:0.03643727;stroke:none"
       d="M 8.90625 1.75 L 1.75 14.1875 L 1.75 23.3125 L 14.1875 1.75 L 8.90625 1.75 z M 22.34375 1.75 L 15.28125 14 L 20.53125 14 L 27.59375 1.75 L 22.34375 1.75 z M 35.75 1.75 L 28.6875 14 L 34 14 L 37.84375 7.3125 L 37.84375 1.75 L 35.75 1.75 z M 14.96875 14.9375 L 14.96875 23.625 L 20 14.9375 L 14.96875 14.9375 z M 28.15625 14.9375 L 27.40625 16.21875 C 27.780098 15.969018 28.23057 15.8125 28.71875 15.8125 C 30.020564 15.8125 31.09375 16.851 31.09375 18.125 C 31.09375 19.3988 30.020564 20.40625 28.71875 20.40625 C 27.416937 20.40625 26.375 19.3988 26.375 18.125 C 26.375 18.071453 26.402627 18.021405 26.40625 17.96875 L 21.5625 26.34375 L 23.84375 30.1875 L 24.65625 30.1875 L 33.03125 15.65625 L 33.03125 14.9375 L 28.15625 14.9375 z M 14 16.21875 L 1.75 37.4375 L 1.75 40.40625 C 1.75 41.84185 2.2736421 43.13975 3.125 44.15625 L 14 25.3125 L 14 16.21875 z M 37.84375 18.125 L 34 24.78125 L 34 33.5625 L 28.9375 33.5625 L 21.59375 46.25 L 26.875 46.25 L 35.6875 30.96875 L 35.6875 22.21875 L 37.84375 20.0625 L 37.84375 18.125 z M 33.03125 26.46875 L 30.875 30.1875 L 33.03125 30.1875 L 33.03125 26.46875 z M 17.40625 33.5625 L 10.09375 46.25 L 15.375 46.25 L 22.6875 33.5625 L 17.40625 33.5625 z "
       transform="translate(0,1004.3622)"
       id="rect2762" />
    <path
       style="fill:#ffffff;fill-opacity:0.10526315;stroke:none"
       d="M 13.84375 1.75 L 1.75 22.75 L 1.75 23.3125 L 14.1875 1.75 L 13.84375 1.75 z M 27.28125 1.75 L 20.21875 14 L 20.53125 14 L 27.59375 1.75 L 27.28125 1.75 z M 37.5 1.75 L 37.5 7.3125 L 33.65625 14 L 34 14 L 37.84375 7.3125 L 37.84375 1.75 L 37.5 1.75 z M 19.65625 14.9375 L 14.96875 23.09375 L 14.96875 23.625 L 20 14.9375 L 19.65625 14.9375 z M 33.03125 15.0625 L 31.03125 18.5 C 30.937475 19.049287 30.670775 19.534351 30.25 19.875 L 24.3125 30.1875 L 24.65625 30.1875 L 33.03125 15.65625 L 33.03125 15.0625 z M 37.84375 18.125 L 37.5 18.6875 L 37.5 20.0625 L 35.625 21.9375 L 35.34375 22.4375 L 35.34375 30.96875 L 34 33.3125 L 34 33.5625 L 33.84375 33.5625 L 26.53125 46.25 L 26.875 46.25 L 35.6875 30.96875 L 35.6875 22.21875 L 37.84375 20.0625 L 37.84375 18.125 z M 14 24.78125 L 2.9375 43.9375 C 2.996121 44.0145 3.0626672 44.08175 3.125 44.15625 L 14 25.3125 L 14 24.78125 z M 22.34375 33.5625 L 15.03125 46.25 L 15.375 46.25 L 22.6875 33.5625 L 22.34375 33.5625 z "
       transform="translate(0,1004.3622)"
       id="path2784" />
    <path
       style="fill:#000000;fill-opacity:0.09716599;stroke:none"
       d="M 8.90625 1.75 L 1.75 14.1875 L 1.75 14.84375 L 9.3125 1.75 L 8.90625 1.75 z M 22.34375 1.75 L 15.28125 14 L 15.65625 14 L 22.71875 1.75 L 22.34375 1.75 z M 35.75 1.75 L 28.6875 14 L 29.09375 14 L 36.15625 1.75 L 35.75 1.75 z M 14.96875 14.9375 L 14.96875 15.1875 L 15.125 14.9375 L 14.96875 14.9375 z M 28.15625 14.9375 L 27.40625 16.21875 C 27.574364 16.106449 27.772927 16.035263 27.96875 15.96875 L 28.53125 14.9375 L 28.15625 14.9375 z M 14 16.21875 L 1.75 37.4375 L 1.75 38.09375 L 14 16.875 L 14 16.21875 z M 26.40625 17.96875 L 21.5625 26.34375 L 21.78125 26.65625 L 26.4375 18.59375 C 26.406467 18.444295 26.375 18.284225 26.375 18.125 C 26.375 18.071453 26.402627 18.021405 26.40625 17.96875 z M 37.84375 18.125 L 34 24.78125 L 34 25.40625 L 35.6875 22.5 L 35.6875 22.21875 L 36.09375 21.78125 L 37.84375 18.8125 L 37.84375 18.125 z M 33.03125 26.46875 L 30.875 30.1875 L 31.25 30.1875 L 33.03125 27.09375 L 33.03125 26.46875 z M 17.40625 33.5625 L 10.09375 46.25 L 10.46875 46.25 L 17.78125 33.5625 L 17.40625 33.5625 z M 28.9375 33.5625 L 21.59375 46.25 L 21.96875 46.25 L 29.3125 33.5625 L 28.9375 33.5625 z "
       transform="translate(0,1004.3622)"
       id="path2791" />
    <path
       inkscape:connector-curvature="0"
       style="opacity:0.30899999;fill:url(#linearGradient2852);fill-opacity:1;stroke:none"
       d="m 7.59375,1006.1122 c -3.244525,0 -5.8437501,2.5992 -5.8437501,5.8438 l 0,32.8125 c 0,3.2445 2.5992251,5.8437 5.8437501,5.8437 l 0.125,0 0,-44.5 L 7.59375,1006.1122 Z"
       id="path2850" />
    <path
       inkscape:connector-curvature="0"
       style="fill:#ffffff;fill-opacity:0.24696356;stroke:none"
       d="m 7.71875,1006.1122 0,44.5 0.21875,0 0,-44.5 L 7.71875,1006.1122 Z"
       id="rect2857" />
    <path
       id="path6361"
       d="m 1.7499879,1012.5498 0,-0.5625 c 0,-3.2445 2.5992201,-5.875 5.8437501,-5.875 l 32.8125,0 c 3.24452,0 5.84375,2.6305 5.84375,5.875 l 0,0.5625 c 0,-3.2445 -2.59923,-5.875 -5.84375,-5.875 l -32.8125,0 C 4.349208,1006.6748 1.7499879,1009.3053 1.7499879,1012.5498 Z"
       style="color:#000000;fill:#ffffff;fill-opacity:1;fill-rule:nonzero;stroke:none;stroke-width:0.2;marker:none;visibility:visible;display:inline;overflow:visible;enable-background:accumulate"
       inkscape:connector-curvature="0" />
    <path
       inkscape:connector-curvature="0"
       style="color:#000000;fill:#000000;fill-opacity:1;fill-rule:nonzero;stroke:none;stroke-width:0.2;marker:none;visibility:visible;display:inline;overflow:visible;enable-background:accumulate"
       d="m 1.7499879,1044.1748 0,0.5625 c 0,3.2445 2.5992201,5.875 5.8437501,5.875 l 32.8125,0 c 3.24452,0 5.84375,-2.6305 5.84375,-5.875 l 0,-0.5625 c 0,3.2445 -2.59923,5.875 -5.84375,5.875 l -32.8125,0 C 4.349208,1050.0498 1.7499879,1047.4193 1.7499879,1044.1748 Z"
       id="path6388" />
    <path
       id="rect982"
       d="m 14,1018.3622 0,19.5625 20,0 0,-19.5625 L 14,1018.3622 z m 0.96875,0.9375 18.0625,0 0,15.25 -3.03125,0 -2.53125,-4.2187 -2.5,4.2187 -1.125,0 -4.53125,-7.6875 -4.34375,7.375 L 14.96875,1019.2997 z m 13.75,0.875 c -1.301813,0 -2.34375,1.0385 -2.34375,2.3125 0,1.2738 1.041937,2.2813 2.34375,2.2813 1.301814,0 2.375,-1.0075 2.375,-2.2813 C 31.09375,1021.2132 30.020564,1020.1747 28.71875,1020.1747 Z"
       style="fill:#000000;fill-opacity:0.39215686"
       inkscape:connector-curvature="0" />
    <path
       sodipodi:nodetypes="ccccc"
       inkscape:connector-curvature="0"
       id="rect1004"
       d="m 14,1018.3622 0,0.3341 20,0 L 34,1018.3622 Z"
       style="fill:#000000;fill-opacity:0.39215686" />
    <path
       inkscape:connector-curvature="0"
       id="rect1009"
       d="m 14,1037.9341 0,0.4281 20,0 0,-0.4281 L 14,1037.9341 Z"
       style="fill:#ffffff;fill-opacity:0.19607843" />
  </g>
  <g
     inkscape:groupmode="layer"
     id="layer2"
     inkscape:label="Capa 2" />
</svg>
