<?xml version="1.0" encoding="UTF-8" standalone="no"?>
<!-- Created with Inkscape (http://www.inkscape.org/) -->

<svg
   xmlns:dc="http://purl.org/dc/elements/1.1/"
   xmlns:cc="http://creativecommons.org/ns#"
   xmlns:rdf="http://www.w3.org/1999/02/22-rdf-syntax-ns#"
   xmlns:svg="http://www.w3.org/2000/svg"
   xmlns="http://www.w3.org/2000/svg"
   xmlns:xlink="http://www.w3.org/1999/xlink"
   xmlns:sodipodi="http://sodipodi.sourceforge.net/DTD/sodipodi-0.dtd"
   xmlns:inkscape="http://www.inkscape.org/namespaces/inkscape"
   width="48"
   height="48"
   id="svg2"
   version="1.1"
   inkscape:version="0.48+devel r12149"
   sodipodi:docname="folder-videos.svg">
  <defs
     id="defs4">
    <linearGradient
       gradientTransform="matrix(0.95835365,0,0,-0.95835365,0.9995137,42.838811)"
       y2="-1004.4247"
       x2="23.875"
       y1="-1052.4872"
       x1="23.875"
       gradientUnits="userSpaceOnUse"
       id="linearGradient915"
       xlink:href="#linearGradient1035"
       inkscape:collect="always" />
    <linearGradient
       id="linearGradient1035"
       inkscape:collect="always">
      <stop
         id="stop1037"
         offset="0"
         style="stop-color:#ffffff;stop-opacity:1" />
      <stop
         id="stop1039"
         offset="1"
         style="stop-color:#ececec;stop-opacity:1" />
    </linearGradient>
    <linearGradient
       inkscape:collect="always"
       xlink:href="#linearGradient1045"
       id="linearGradient2700"
       gradientUnits="userSpaceOnUse"
       x1="27.709515"
       y1="-1004.9823"
       x2="27.709515"
       y2="-1052.8083"
       gradientTransform="matrix(0.87849084,0,0,0.87849084,2.9162217,-124.9667)" />
    <linearGradient
       inkscape:collect="always"
       id="linearGradient1045">
      <stop
         style="stop-color:#000000;stop-opacity:1;"
         offset="0"
         id="stop1047" />
      <stop
         style="stop-color:#000000;stop-opacity:0;"
         offset="1"
         id="stop1049" />
    </linearGradient>
    <linearGradient
       gradientTransform="matrix(0.95835365,0,0,0.95835365,-42.838811,0.9995137)"
       inkscape:collect="always"
       xlink:href="#linearGradient2869"
       id="linearGradient2875"
       x1="-1050.2408"
       y1="33.41077"
       x2="-1006.7538"
       y2="33.41077"
       gradientUnits="userSpaceOnUse" />
    <linearGradient
       inkscape:collect="always"
       id="linearGradient2869">
      <stop
         style="stop-color:#f9f9f9;stop-opacity:1"
         offset="0"
         id="stop2871" />
      <stop
         style="stop-color:#ffffff;stop-opacity:1"
         offset="1"
         id="stop2873" />
    </linearGradient>
    <linearGradient
       inkscape:collect="always"
       xlink:href="#linearGradient2476"
       id="linearGradient1043"
       gradientUnits="userSpaceOnUse"
       x1="48.5"
       y1="-1026.1804"
       x2="1.2499999"
       y2="-1026.1804"
       gradientTransform="matrix(0,0.95835365,0.60396245,0,636.58677,1005.3729)" />
    <linearGradient
       id="linearGradient2476"
       inkscape:collect="always">
      <stop
         id="stop2478"
         offset="0"
         style="stop-color:#0c5dfc;stop-opacity:1" />
      <stop
         id="stop2480"
         offset="1"
         style="stop-color:#39e3ff;stop-opacity:1" />
    </linearGradient>
    <linearGradient
       inkscape:collect="always"
       xlink:href="#linearGradient1045"
       id="linearGradient2800"
       gradientUnits="userSpaceOnUse"
       gradientTransform="matrix(0,0.95835365,0.60396245,0,636.58677,1005.3729)"
       x1="29"
       y1="-1059.3043"
       x2="29"
       y2="-1045.8168" />
    <linearGradient
       inkscape:collect="always"
       xlink:href="#linearGradient1045"
       id="linearGradient2852"
       gradientUnits="userSpaceOnUse"
       gradientTransform="matrix(0,1.103105,-0.60396245,0,-627.87927,1001.8989)"
       x1="29"
       y1="-1059.3043"
       x2="29"
       y2="-1045.8168" />
  </defs>
  <sodipodi:namedview
     id="base"
     pagecolor="#ffffff"
     bordercolor="#666666"
     borderopacity="1.0"
     inkscape:pageopacity="0.0"
     inkscape:pageshadow="2"
     inkscape:zoom="5.3750001"
     inkscape:cx="18.951567"
     inkscape:cy="18.47622"
     inkscape:document-units="px"
     inkscape:current-layer="layer1"
     showgrid="false"
     inkscape:window-width="1366"
     inkscape:window-height="716"
     inkscape:window-x="0"
     inkscape:window-y="28"
     inkscape:window-maximized="1"
     showguides="true"
     inkscape:guide-bbox="true">
    <inkscape:grid
       type="xygrid"
       id="grid3031" />
  </sodipodi:namedview>
  <metadata
     id="metadata7">
    <rdf:RDF>
      <cc:Work
         rdf:about="">
        <dc:format>image/svg+xml</dc:format>
        <dc:type
           rdf:resource="http://purl.org/dc/dcmitype/StillImage" />
        <dc:title />
      </cc:Work>
    </rdf:RDF>
  </metadata>
  <g
     inkscape:label="Capa 1"
     inkscape:groupmode="layer"
     id="layer1"
     transform="translate(0,-1004.3622)">
    <rect
       style="color:#000000;fill:#333333;fill-opacity:1;fill-rule:nonzero;stroke:none;stroke-width:0.2;marker:none;visibility:visible;display:inline;overflow:visible;enable-background:accumulate"
       id="rect6294"
       width="45.5"
       height="45.5"
       x="1.25"
       y="1005.6122"
       ry="6.3565426" />
    <path
       inkscape:connector-curvature="0"
       style="fill:url(#linearGradient915);fill-opacity:1;stroke:none"
       d="m 7.5937507,1006.1122 c -3.244525,0 -5.84375,2.5992 -5.84375,5.8438 l 0,32.8125 c 0,3.2445 2.599225,5.8437 5.84375,5.8437 l 32.8125003,0 c 3.244525,0 5.84375,-2.5992 5.84375,-5.8437 l 0,-32.8125 c 0,-3.2446 -2.599225,-5.8438 -5.84375,-5.8438 L 7.5937507,1006.1122 Z"
       id="rect1041" />
    <rect
       style="opacity:0.05;fill:url(#linearGradient2700);fill-opacity:1;stroke:none"
       id="rect2698"
       width="42.167561"
       height="42.167561"
       x="2.9162216"
       y="-1049.4572"
       ry="1.7082638"
       transform="scale(1,-1)" />
    <rect
       transform="matrix(-2.3953356e-8,-1,1,0,0,0)"
       ry="0.906506"
       y="20.790474"
       x="-1049.4572"
       height="22.376604"
       width="42.167561"
       id="rect2714"
       style="fill:#000000;fill-opacity:0.29411765;stroke:none" />
    <rect
       style="fill:url(#linearGradient2875);fill-opacity:1;stroke:none"
       id="rect2716"
       width="41.554951"
       height="21.744093"
       x="-1049.1509"
       y="21.10673"
       ry="0.88088214"
       transform="matrix(-2.372795e-8,-1,1,0,0,0)" />
    <path
       style="fill:#000000;fill-opacity:0.04858303;stroke:none"
       d="m 42.178772,1049.1577 c 0.03088,-0.092 0.0599,-0.1972 0.0599,-0.2995 l 0,-39.7717 c 0,-0.4879 -0.380498,-0.8984 -0.868507,-0.8984 l -19.975684,0 c -0.08079,0 -0.164565,0.01 -0.239588,0.03 0.124383,-0.3487 0.452768,-0.599 0.838559,-0.599 l 19.975683,0 c 0.48801,0 0.868508,0.4104 0.868508,0.8985 l 0,39.7717 C 42.83764,1048.7001 42.555332,1049.0555 42.178772,1049.1577 Z"
       id="rect2837"
       inkscape:connector-curvature="0" />
    <path
       inkscape:connector-curvature="0"
       style="fill:url(#linearGradient1043);fill-opacity:1;stroke:none"
       d="m 7.5937507,1006.1122 c -3.244525,0 -5.84375,2.5992 -5.84375,5.8438 l 0,32.8125 c 0,3.2445 2.599225,5.8437 5.84375,5.8437 l 28.0937503,0 0,-24.0312 2.15625,-2.1563 0,-18.3125 L 7.5937507,1006.1122 Z"
       id="rect2991-1" />
    <path
       inkscape:connector-curvature="0"
       style="fill:#000000;fill-opacity:0.23529412;stroke:none"
       d="m 37.843751,1006.1122 0,18.3125 -2.15625,2.1563 0,24.0312 0.40625,0 0,-23.8437 2.15625,-2.1563 0,-18.5 L 37.843751,1006.1122 Z"
       id="path1068" />
    <path
       inkscape:connector-curvature="0"
       style="fill:#000000;fill-opacity:0.07843137;stroke:none"
       d="m 38.250001,1006.1122 0,18.5 -2.15625,2.1563 0,23.8437 0.4375,0 0,-23.6875 2.15625,-2.1562 0,-18.6563 L 38.250001,1006.1122 Z"
       id="path1080" />
    <path
       inkscape:connector-curvature="0"
       style="fill:#000000;fill-opacity:0.01960784;stroke:none"
       d="m 38.687501,1006.1122 0,18.6563 -2.15625,2.1562 0,23.6875 0.40625,0 0,-23.5 2.15625,-2.1562 0,-18.8438 L 38.687501,1006.1122 Z"
       id="path1082" />
    <path
       inkscape:connector-curvature="0"
       style="fill:#ffffff;fill-opacity:0.23529412;stroke:none"
       d="m 37.406251,1006.1122 0,18.125 -2.15625,2.1563 0,24.2187 0.4375,0 0,-24.0312 2.15625,-2.1563 0,-18.3125 L 37.406251,1006.1122 Z"
       id="path1113" />
    <path
       inkscape:connector-curvature="0"
       style="fill:#ffffff;fill-opacity:0.1187944;stroke:none"
       d="m 37.000001,1006.1122 0,17.9375 -2.15625,2.1563 0,24.4062 0.40625,0 0,-24.2187 2.15625,-2.1563 0,-18.125 L 37.000001,1006.1122 Z"
       id="path1115" />
    <path
       inkscape:connector-curvature="0"
       style="fill:#ffffff;fill-opacity:0.02745098;stroke:none"
       d="m 36.593751,1006.1122 0,17.75 -2.15625,2.1563 0,24.5937 0.40625,0 0,-24.4062 2.15625,-2.1563 0,-17.9375 L 36.593751,1006.1122 Z"
       id="path1117" />
    <path
       inkscape:connector-curvature="0"
       style="opacity:0.30899999;fill:url(#linearGradient2800);fill-opacity:1;stroke:none"
       d="m 7.5937507,1006.1122 c -3.244525,0 -5.84375,2.5992 -5.84375,5.8438 l 0,32.8125 c 0,3.2445 2.599225,5.8437 5.84375,5.8437 l 0.125,0 0,-44.5 L 7.5937507,1006.1122 Z"
       id="path2796" />
    <path
       style="fill:#000000;fill-opacity:0.03643727;stroke:none"
       d="M 8.90625 1.75 L 1.75 14.1875 L 1.75 23.3125 L 14.1875 1.75 L 8.90625 1.75 z M 22.34375 1.75 L 1.75 37.4375 L 1.75 40.40625 C 1.75 41.84185 2.273642 43.13975 3.125 44.15625 L 15.59375 22.5625 L 15.59375 14 L 19.28125 16.125 L 27.59375 1.75 L 22.34375 1.75 z M 35.75 1.75 L 25.40625 19.65625 L 29.375 21.96875 L 37.84375 7.3125 L 37.84375 1.75 L 35.75 1.75 z M 37.84375 18.125 L 21.59375 46.25 L 26.875 46.25 L 35.6875 30.96875 L 35.6875 22.21875 L 37.84375 20.0625 L 37.84375 18.125 z M 26.375 27.1875 L 24 28.5625 L 18.4375 31.75 L 10.09375 46.25 L 15.375 46.25 L 26.375 27.1875 z "
       transform="translate(0,1004.3622)"
       id="rect2762" />
    <path
       style="fill:#ffffff;fill-opacity:0.10526315;stroke:none"
       d="M 13.84375 1.75 L 1.75 22.75 L 1.75 23.3125 L 14.1875 1.75 L 13.84375 1.75 z M 27.28125 1.75 L 19.0625 16 L 19.28125 16.125 L 27.59375 1.75 L 27.28125 1.75 z M 37.5 1.75 L 37.5 7.3125 L 29.125 21.8125 L 29.375 21.96875 L 37.84375 7.3125 L 37.84375 1.75 L 37.5 1.75 z M 37.84375 18.125 L 37.5 18.6875 L 37.5 20.0625 L 35.625 21.9375 L 35.34375 22.4375 L 35.34375 30.96875 L 26.53125 46.25 L 26.875 46.25 L 35.6875 30.96875 L 35.6875 22.21875 L 37.84375 20.0625 L 37.84375 18.125 z M 15.59375 22 L 2.9375 43.9375 C 2.99612 44.0145 3.062667 44.08175 3.125 44.15625 L 15.59375 22.5625 L 15.59375 22 z M 26.375 27.1875 L 25.84375 27.5 L 15.03125 46.25 L 15.375 46.25 L 26.375 27.1875 z "
       transform="translate(0,1004.3622)"
       id="path2784" />
    <path
       style="fill:#000000;fill-opacity:0.09716599;stroke:none"
       d="M 8.90625 1.75 L 1.75 14.1875 L 1.75 14.84375 L 9.3125 1.75 L 8.90625 1.75 z M 22.34375 1.75 L 1.75 37.4375 L 1.75 38.09375 L 15.59375 14.09375 L 15.59375 14 L 15.625 14.03125 L 22.71875 1.75 L 22.34375 1.75 z M 35.75 1.75 L 25.40625 19.65625 L 25.71875 19.84375 L 36.15625 1.75 L 35.75 1.75 z M 37.84375 18.125 L 21.59375 46.25 L 21.96875 46.25 L 35.6875 22.5 L 35.6875 22.21875 L 36.09375 21.78125 L 37.84375 18.8125 L 37.84375 18.125 z M 19.03125 31.4375 L 18.4375 31.75 L 10.09375 46.25 L 10.46875 46.25 L 19.03125 31.4375 z "
       transform="translate(0,1004.3622)"
       id="path2791" />
    <path
       inkscape:connector-curvature="0"
       style="opacity:0.30899999;fill:url(#linearGradient2852);fill-opacity:1;stroke:none"
       d="m 7.5937507,1006.1122 c -3.244525,0 -5.84375,2.5992 -5.84375,5.8438 l 0,32.8125 c 0,3.2445 2.599225,5.8437 5.84375,5.8437 l 0.125,0 0,-44.5 L 7.5937507,1006.1122 Z"
       id="path2850" />
    <path
       inkscape:connector-curvature="0"
       style="fill:#ffffff;fill-opacity:0.24696356;stroke:none"
       d="m 7.7187507,1006.1122 0,44.5 0.21875,0 0,-44.5 L 7.7187507,1006.1122 Z"
       id="rect2857" />
    <path
       id="path6361"
       d="m 1.7499887,1012.5498 0,-0.5625 c 0,-3.2445 2.59922,-5.875 5.84375,-5.875 l 32.8125003,0 c 3.24452,0 5.84375,2.6305 5.84375,5.875 l 0,0.5625 c 0,-3.2445 -2.59923,-5.875 -5.84375,-5.875 l -32.8125003,0 C 4.3492087,1006.6748 1.7499887,1009.3053 1.7499887,1012.5498 Z"
       style="color:#000000;fill:#ffffff;fill-opacity:1;fill-rule:nonzero;stroke:none;stroke-width:0.2;marker:none;visibility:visible;display:inline;overflow:visible;enable-background:accumulate"
       inkscape:connector-curvature="0" />
    <path
       inkscape:connector-curvature="0"
       style="color:#000000;fill:#000000;fill-opacity:1;fill-rule:nonzero;stroke:none;stroke-width:0.2;marker:none;visibility:visible;display:inline;overflow:visible;enable-background:accumulate"
       d="m 1.7499887,1044.1748 0,0.5625 c 0,3.2445 2.59922,5.875 5.84375,5.875 l 32.8125003,0 c 3.24452,0 5.84375,-2.6305 5.84375,-5.875 l 0,-0.5625 c 0,3.2445 -2.59923,5.875 -5.84375,5.875 l -32.8125003,0 C 4.3492087,1050.0498 1.7499887,1047.4193 1.7499887,1044.1748 Z"
       id="path6388" />
    <path
       sodipodi:type="star"
       style="fill:#000000;fill-opacity:0.39215686"
       id="path941"
       sodipodi:sides="3"
       sodipodi:cx="19.062502"
       sodipodi:cy="23.124998"
       sodipodi:r1="10.11844"
       sodipodi:r2="5.0592198"
       sodipodi:arg1="0"
       sodipodi:arg2="1.0471976"
       inkscape:flatsided="false"
       inkscape:rounded="0"
       inkscape:randomized="0"
       d="m 29.180942,23.124998 -7.58883,4.381413 -7.58883,4.381413 0,-8.762826 0,-8.762826 L 21.592112,18.743585 Z"
       transform="matrix(1.1074364,0,0,1.1074364,0.096761,1002.457)"
       inkscape:transform-center-x="-2.8013819" />
    <path
       style="fill:#000000;fill-opacity:0.39215686"
       d="m 15.599057,1018.3764 0,0.5537 8.409595,4.8797 7.890484,4.5335 0.519111,-0.2768 -8.409595,-4.8451 L 15.599057,1018.3764 Z"
       id="path957"
       inkscape:connector-curvature="0" />
    <path
       style="fill:#ffffff;fill-opacity:0.19607843"
       d="m 31.881833,1028.3953 -7.890485,4.5335 -8.409595,4.845 0,0.5884 8.409595,-4.845 8.409595,-4.8451 L 31.881833,1028.3953 Z"
       id="path963"
       inkscape:connector-curvature="0" />
  </g>
</svg>
