<?xml version="1.0" encoding="UTF-8" standalone="no"?>
<!-- Created with Inkscape (http://www.inkscape.org/) -->

<svg
   xmlns:dc="http://purl.org/dc/elements/1.1/"
   xmlns:cc="http://creativecommons.org/ns#"
   xmlns:rdf="http://www.w3.org/1999/02/22-rdf-syntax-ns#"
   xmlns:svg="http://www.w3.org/2000/svg"
   xmlns="http://www.w3.org/2000/svg"
   xmlns:xlink="http://www.w3.org/1999/xlink"
   xmlns:sodipodi="http://sodipodi.sourceforge.net/DTD/sodipodi-0.dtd"
   xmlns:inkscape="http://www.inkscape.org/namespaces/inkscape"
   width="48"
   height="48"
   id="svg2"
   version="1.1"
   inkscape:version="0.48+devel r12149"
   sodipodi:docname="folder-wine.svg"
   inkscape:export-filename="/home/uri/Iconos/NITRUX-Buttons/places/16/folder-wine.png"
   inkscape:export-xdpi="30"
   inkscape:export-ydpi="30">
  <defs
     id="defs4">
    <linearGradient
       inkscape:collect="always"
       id="linearGradient1035">
      <stop
         style="stop-color:#ffffff;stop-opacity:1"
         offset="0"
         id="stop1037" />
      <stop
         style="stop-color:#ececec;stop-opacity:1"
         offset="1"
         id="stop1039" />
    </linearGradient>
    <linearGradient
       gradientTransform="matrix(0.87849084,0,0,0.87849084,2.9162208,-124.96667)"
       y2="-1052.8083"
       x2="27.709515"
       y1="-1004.9823"
       x1="27.709515"
       gradientUnits="userSpaceOnUse"
       id="linearGradient2700"
       xlink:href="#linearGradient1045"
       inkscape:collect="always" />
    <linearGradient
       id="linearGradient1045"
       inkscape:collect="always">
      <stop
         id="stop1047"
         offset="0"
         style="stop-color:#000000;stop-opacity:1;" />
      <stop
         id="stop1049"
         offset="1"
         style="stop-color:#000000;stop-opacity:0;" />
    </linearGradient>
    <linearGradient
       gradientUnits="userSpaceOnUse"
       y2="33.41077"
       x2="-1006.7538"
       y1="33.41077"
       x1="-1050.2408"
       id="linearGradient2875"
       xlink:href="#linearGradient2869"
       inkscape:collect="always"
       gradientTransform="matrix(0.95835365,0,0,0.95835365,-42.838777,0.99951249)" />
    <linearGradient
       id="linearGradient2869"
       inkscape:collect="always">
      <stop
         id="stop2871"
         offset="0"
         style="stop-color:#f9f9f9;stop-opacity:1" />
      <stop
         id="stop2873"
         offset="1"
         style="stop-color:#ffffff;stop-opacity:1" />
    </linearGradient>
    <linearGradient
       gradientTransform="matrix(0,0.95835365,0.60396245,0,636.58677,1005.3729)"
       y2="-1026.1804"
       x2="1.2499999"
       y1="-1026.1804"
       x1="48.5"
       gradientUnits="userSpaceOnUse"
       id="linearGradient1043"
       xlink:href="#linearGradient2476"
       inkscape:collect="always" />
    <linearGradient
       inkscape:collect="always"
       id="linearGradient2476">
      <stop
         style="stop-color:#0c5dfc;stop-opacity:1"
         offset="0"
         id="stop2478" />
      <stop
         style="stop-color:#39e3ff;stop-opacity:1"
         offset="1"
         id="stop2480" />
    </linearGradient>
    <linearGradient
       y2="-1045.8168"
       x2="29"
       y1="-1059.3043"
       x1="29"
       gradientTransform="matrix(0,0.95835365,0.60396245,0,636.58677,1005.3729)"
       gradientUnits="userSpaceOnUse"
       id="linearGradient2800"
       xlink:href="#linearGradient1045"
       inkscape:collect="always" />
    <linearGradient
       y2="-1045.8168"
       x2="29"
       y1="-1059.3043"
       x1="29"
       gradientTransform="matrix(0,1.103105,-0.60396245,0,-627.87927,1001.8989)"
       gradientUnits="userSpaceOnUse"
       id="linearGradient2852"
       xlink:href="#linearGradient1045"
       inkscape:collect="always" />
    <linearGradient
       inkscape:collect="always"
       xlink:href="#linearGradient1035"
       id="linearGradient915"
       gradientUnits="userSpaceOnUse"
       x1="23.875"
       y1="-1052.4872"
       x2="23.875"
       y2="-1004.4247"
       gradientTransform="matrix(0.95835365,0,0,-0.95835365,0.9995135,42.83876)" />
  </defs>
  <sodipodi:namedview
     id="base"
     pagecolor="#ffffff"
     bordercolor="#666666"
     borderopacity="1.0"
     inkscape:pageopacity="0.0"
     inkscape:pageshadow="2"
     inkscape:zoom="3.959798"
     inkscape:cx="85.973308"
     inkscape:cy="24.200841"
     inkscape:document-units="px"
     inkscape:current-layer="layer1"
     showgrid="false"
     inkscape:window-width="1366"
     inkscape:window-height="716"
     inkscape:window-x="0"
     inkscape:window-y="28"
     inkscape:window-maximized="1"
     width="0px"
     height="0px"
     fit-margin-top="0"
     fit-margin-left="0"
     fit-margin-right="0"
     fit-margin-bottom="0" />
  <metadata
     id="metadata7">
    <rdf:RDF>
      <cc:Work
         rdf:about="">
        <dc:format>image/svg+xml</dc:format>
        <dc:type
           rdf:resource="http://purl.org/dc/dcmitype/StillImage" />
        <dc:title />
      </cc:Work>
    </rdf:RDF>
  </metadata>
  <g
     inkscape:label="Capa 1"
     inkscape:groupmode="layer"
     id="layer1"
     transform="translate(0,-1004.3622)">
    <rect
       style="fill:none;stroke:none"
       id="rect2989"
       width="48"
       height="48"
       x="0"
       y="1004.3622" />
    <rect
       style="color:#000000;fill:#333333;fill-opacity:1;fill-rule:nonzero;stroke:none;stroke-width:0.2;marker:none;visibility:visible;display:inline;overflow:visible;enable-background:accumulate"
       id="rect6294"
       width="45.5"
       height="45.5"
       x="1.25"
       y="1005.6122"
       ry="6.3565426" />
    <path
       inkscape:connector-curvature="0"
       style="fill:url(#linearGradient915);fill-opacity:1;stroke:none"
       d="m 7.59375,1006.1122 c -3.2445246,0 -5.84375,2.5992 -5.84375,5.8438 l 0,32.8125 c 0,3.2445 2.5992254,5.8437 5.84375,5.8437 l 32.8125,0 c 3.244525,0 5.84375,-2.5992 5.84375,-5.8437 l 0,-32.8125 c 0,-3.2446 -2.599225,-5.8438 -5.84375,-5.8438 L 7.59375,1006.1122 Z"
       id="rect1041" />
    <rect
       style="opacity:0.05;fill:url(#linearGradient2700);fill-opacity:1;stroke:none"
       id="rect2698"
       width="42.167561"
       height="42.167561"
       x="2.9162197"
       y="-1049.4572"
       ry="1.7082638"
       transform="scale(1,-1)" />
    <rect
       transform="matrix(-2.3953356e-8,-1,1,0,0,0)"
       ry="0.906506"
       y="20.790474"
       x="-1049.4572"
       height="22.376604"
       width="42.167561"
       id="rect2714"
       style="fill:#000000;fill-opacity:0.29411765;stroke:none" />
    <rect
       style="fill:url(#linearGradient2875);fill-opacity:1;stroke:none"
       id="rect2716"
       width="41.554951"
       height="21.744093"
       x="-1049.1509"
       y="21.106728"
       ry="0.88088214"
       transform="matrix(-2.372795e-8,-1,1,0,0,0)" />
    <path
       style="fill:#000000;fill-opacity:0.04858303;stroke:none"
       d="m 42.178771,1049.1577 c 0.03088,-0.092 0.0599,-0.1972 0.0599,-0.2995 l 0,-39.7717 c 0,-0.4879 -0.380498,-0.8984 -0.868507,-0.8984 l -19.975684,0 c -0.08079,0 -0.164565,0.01 -0.239588,0.03 0.124383,-0.3487 0.452768,-0.599 0.838559,-0.599 l 19.975683,0 c 0.48801,0 0.868508,0.4104 0.868508,0.8985 l 0,39.7717 C 42.837639,1048.7001 42.555331,1049.0555 42.178771,1049.1577 Z"
       id="rect2837"
       inkscape:connector-curvature="0" />
    <path
       inkscape:connector-curvature="0"
       style="fill:url(#linearGradient1043);fill-opacity:1;stroke:none"
       d="m 7.59375,1006.1122 c -3.2445246,0 -5.84375,2.5992 -5.84375,5.8438 l 0,32.8125 c 0,3.2445 2.5992254,5.8437 5.84375,5.8437 l 28.09375,0 0,-24.0312 2.15625,-2.1563 0,-18.3125 L 7.59375,1006.1122 Z"
       id="rect2991-1" />
    <path
       inkscape:connector-curvature="0"
       style="fill:#000000;fill-opacity:0.23529412;stroke:none"
       d="m 37.84375,1006.1122 0,18.3125 -2.15625,2.1563 0,24.0312 0.40625,0 0,-23.8437 2.15625,-2.1563 0,-18.5 L 37.84375,1006.1122 Z"
       id="path1068" />
    <path
       inkscape:connector-curvature="0"
       style="fill:#000000;fill-opacity:0.07843137;stroke:none"
       d="m 38.25,1006.1122 0,18.5 -2.15625,2.1563 0,23.8437 0.4375,0 0,-23.6875 2.15625,-2.1562 0,-18.6563 L 38.25,1006.1122 Z"
       id="path1080" />
    <path
       inkscape:connector-curvature="0"
       style="fill:#000000;fill-opacity:0.01960784;stroke:none"
       d="m 38.6875,1006.1122 0,18.6563 -2.15625,2.1562 0,23.6875 0.40625,0 0,-23.5 2.15625,-2.1562 0,-18.8438 L 38.6875,1006.1122 Z"
       id="path1082" />
    <path
       inkscape:connector-curvature="0"
       style="fill:#ffffff;fill-opacity:0.23529412;stroke:none"
       d="m 37.40625,1006.1122 0,18.125 -2.15625,2.1563 0,24.2187 0.4375,0 0,-24.0312 2.15625,-2.1563 0,-18.3125 L 37.40625,1006.1122 Z"
       id="path1113" />
    <path
       inkscape:connector-curvature="0"
       style="fill:#ffffff;fill-opacity:0.1187944;stroke:none"
       d="m 37,1006.1122 0,17.9375 -2.15625,2.1563 0,24.4062 0.40625,0 0,-24.2187 2.15625,-2.1563 0,-18.125 L 37,1006.1122 Z"
       id="path1115" />
    <path
       inkscape:connector-curvature="0"
       style="fill:#ffffff;fill-opacity:0.02745098;stroke:none"
       d="m 36.59375,1006.1122 0,17.75 -2.15625,2.1563 0,24.5937 0.40625,0 0,-24.4062 L 37,1024.0497 37,1006.1122 36.59375,1006.1122 Z"
       id="path1117" />
    <path
       inkscape:connector-curvature="0"
       style="opacity:0.30899999;fill:url(#linearGradient2800);fill-opacity:1;stroke:none"
       d="m 7.59375,1006.1122 c -3.2445246,0 -5.84375,2.5992 -5.84375,5.8438 l 0,32.8125 c 0,3.2445 2.5992254,5.8437 5.84375,5.8437 l 0.125,0 0,-44.5 L 7.59375,1006.1122 Z"
       id="path2796" />
    <path
       style="fill:#000000;fill-opacity:0.03643727;stroke:none"
       d="M 8.90625 1.75 L 1.75 14.1875 L 1.75 23.3125 L 14.1875 1.75 L 8.90625 1.75 z M 22.34375 1.75 L 15.28125 14 L 20.53125 14 L 27.59375 1.75 L 22.34375 1.75 z M 35.75 1.75 L 28.6875 14 L 33.5625 14 L 33.5625 14.71875 L 37.84375 7.3125 L 37.84375 1.75 L 35.75 1.75 z M 14.4375 15.4375 L 1.75 37.4375 L 1.75 40.40625 C 1.75 41.84185 2.2736421 43.13975 3.125 44.15625 L 15.40625 22.875 L 14.4375 22.875 L 14.4375 15.4375 z M 37.84375 18.125 L 33.5625 25.53125 L 33.5625 33.5 L 28.96875 33.5 L 21.59375 46.25 L 26.875 46.25 L 35.6875 30.96875 L 35.6875 22.21875 L 37.84375 20.0625 L 37.84375 18.125 z M 24.71875 20.875 L 22.5625 24.625 L 23.3125 24.625 L 23.3125 32.5 L 24.71875 30.0625 L 24.71875 24.625 L 27.84375 24.625 L 28.875 22.875 L 24.71875 22.875 L 24.71875 20.875 z M 17.4375 33.5 L 10.09375 46.25 L 15.375 46.25 L 22.71875 33.5 L 17.4375 33.5 z "
       transform="translate(0,1004.3622)"
       id="rect2762" />
    <path
       style="fill:#ffffff;fill-opacity:0.10526315;stroke:none"
       d="M 13.84375 1.75 L 1.75 22.75 L 1.75 23.3125 L 14.1875 1.75 L 13.84375 1.75 z M 27.28125 1.75 L 20.21875 14 L 20.53125 14 L 27.59375 1.75 L 27.28125 1.75 z M 37.5 1.75 L 37.5 7.3125 L 33.5625 14.125 L 33.5625 14.71875 L 37.84375 7.3125 L 37.84375 1.75 L 37.5 1.75 z M 37.84375 18.125 L 37.5 18.6875 L 37.5 20.0625 L 35.625 21.9375 L 35.34375 22.4375 L 35.34375 30.96875 L 26.53125 46.25 L 26.875 46.25 L 35.6875 30.96875 L 35.6875 22.21875 L 37.84375 20.0625 L 37.84375 18.125 z M 15.09375 22.875 L 2.9375 43.9375 C 2.996121 44.0145 3.0626672 44.08175 3.125 44.15625 L 15.40625 22.875 L 15.09375 22.875 z M 28.53125 22.875 L 27.5 24.625 L 27.84375 24.625 L 28.875 22.875 L 28.53125 22.875 z M 24.71875 29.46875 L 23.3125 31.90625 L 23.3125 32.5 L 24.71875 30.0625 L 24.71875 29.46875 z M 22.375 33.5 L 15.03125 46.25 L 15.375 46.25 L 22.71875 33.5 L 22.375 33.5 z "
       transform="translate(0,1004.3622)"
       id="path2784" />
    <path
       style="fill:#000000;fill-opacity:0.09716599;stroke:none"
       d="M 8.90625 1.75 L 1.75 14.1875 L 1.75 14.84375 L 9.3125 1.75 L 8.90625 1.75 z M 22.34375 1.75 L 15.28125 14 L 15.65625 14 L 22.71875 1.75 L 22.34375 1.75 z M 35.75 1.75 L 28.6875 14 L 29.09375 14 L 36.15625 1.75 L 35.75 1.75 z M 14.4375 15.4375 L 1.75 37.4375 L 1.75 38.09375 L 14.4375 16.09375 L 14.4375 15.4375 z M 37.84375 18.125 L 33.5625 25.53125 L 33.5625 26.1875 L 35.6875 22.5 L 35.6875 22.21875 L 36.09375 21.78125 L 37.84375 18.8125 L 37.84375 18.125 z M 24.71875 20.875 L 22.5625 24.625 L 22.9375 24.625 L 24.71875 21.5625 L 24.71875 20.875 z M 17.4375 33.5 L 10.09375 46.25 L 10.46875 46.25 L 17.84375 33.5 L 17.4375 33.5 z M 28.96875 33.5 L 21.59375 46.25 L 21.96875 46.25 L 29.34375 33.5 L 28.96875 33.5 z "
       transform="translate(0,1004.3622)"
       id="path2791" />
    <path
       inkscape:connector-curvature="0"
       style="opacity:0.30899999;fill:url(#linearGradient2852);fill-opacity:1;stroke:none"
       d="m 7.59375,1006.1122 c -3.2445246,0 -5.84375,2.5992 -5.84375,5.8438 l 0,32.8125 c 0,3.2445 2.5992254,5.8437 5.84375,5.8437 l 0.125,0 0,-44.5 L 7.59375,1006.1122 Z"
       id="path2850" />
    <path
       inkscape:connector-curvature="0"
       style="fill:#ffffff;fill-opacity:0.24696356;stroke:none"
       d="m 7.71875,1006.1122 0,44.5 0.21875,0 0,-44.5 L 7.71875,1006.1122 Z"
       id="rect2857" />
    <path
       id="path6361"
       d="m 1.749988,1012.5498 0,-0.5625 c 0,-3.2445 2.59922,-5.875 5.84375,-5.875 l 32.8125,0 c 3.24452,0 5.84375,2.6305 5.84375,5.875 l 0,0.5625 c 0,-3.2445 -2.59923,-5.875 -5.84375,-5.875 l -32.8125,0 C 4.349208,1006.6748 1.749988,1009.3053 1.749988,1012.5498 Z"
       style="color:#000000;fill:#ffffff;fill-opacity:1;fill-rule:nonzero;stroke:none;stroke-width:0.2;marker:none;visibility:visible;display:inline;overflow:visible;enable-background:accumulate"
       inkscape:connector-curvature="0" />
    <path
       inkscape:connector-curvature="0"
       style="color:#000000;fill:#000000;fill-opacity:1;fill-rule:nonzero;stroke:none;stroke-width:0.2;marker:none;visibility:visible;display:inline;overflow:visible;enable-background:accumulate"
       d="m 1.749988,1044.1748 0,0.5625 c 0,3.2445 2.59922,5.875 5.84375,5.875 l 32.8125,0 c 3.24452,0 5.84375,-2.6305 5.84375,-5.875 l 0,-0.5625 c 0,3.2445 -2.59923,5.875 -5.84375,5.875 l -32.8125,0 C 4.349208,1050.0498 1.749988,1047.4193 1.749988,1044.1748 Z"
       id="path6388" />
    <rect
       style="fill:#000000;fill-opacity:0.39215686;stroke:none"
       id="rect876"
       width="8.8678827"
       height="8.8678827"
       x="14.436065"
       y="1018.3622"
       ry="0" />
    <rect
       ry="0"
       y="1018.3622"
       x="24.704117"
       height="8.8678827"
       width="8.8678827"
       id="rect878"
       style="fill:#000000;fill-opacity:0.39215686;stroke:none" />
    <rect
       ry="0"
       y="1028.9803"
       x="14.436065"
       height="8.8678827"
       width="8.8678827"
       id="rect880"
       style="fill:#000000;fill-opacity:0.39215686;stroke:none" />
    <rect
       style="fill:#000000;fill-opacity:0.39215686;stroke:none"
       id="rect882"
       width="8.8678827"
       height="8.8678827"
       x="24.704117"
       y="1028.9803"
       ry="0" />
    <path
       style="fill:#000000;fill-opacity:0.39215686;stroke:none"
       d="m 14.426591,1018.3665 0,0.516 8.867998,0 0,-0.516 L 14.426591,1018.3665 z m 10.286879,0 0,0.516 8.868,0 0,-0.516 L 24.71347,1018.3665 z m -10.286879,10.6094 0,0.5159 8.867998,0 0,-0.5159 L 14.426591,1028.9759 z m 10.286879,0 0,0.5159 8.868,0 0,-0.5159 L 24.71347,1028.9759 Z"
       id="rect949"
       inkscape:connector-curvature="0" />
    <path
       id="path975"
       d="m 14.41853,1027.2368 0,0.516 8.867998,0 0,-0.516 L 14.41853,1027.2368 z m 10.286878,0 0,0.516 8.868,0 0,-0.516 L 24.705408,1027.2368 z m -10.286878,10.6094 0,0.516 8.867998,0 0,-0.516 L 14.41853,1037.8462 z m 10.286878,0 0,0.516 8.868,0 0,-0.516 L 24.705408,1037.8462 Z"
       style="fill:#ffffff;fill-opacity:0.19607843;stroke:none"
       inkscape:connector-curvature="0" />
  </g>
</svg>
