<?xml version="1.0" encoding="UTF-8" standalone="no"?>
<!-- Created with Inkscape (http://www.inkscape.org/) -->

<svg
   xmlns:dc="http://purl.org/dc/elements/1.1/"
   xmlns:cc="http://creativecommons.org/ns#"
   xmlns:rdf="http://www.w3.org/1999/02/22-rdf-syntax-ns#"
   xmlns:svg="http://www.w3.org/2000/svg"
   xmlns="http://www.w3.org/2000/svg"
   xmlns:xlink="http://www.w3.org/1999/xlink"
   xmlns:sodipodi="http://sodipodi.sourceforge.net/DTD/sodipodi-0.dtd"
   xmlns:inkscape="http://www.inkscape.org/namespaces/inkscape"
   width="48"
   height="48"
   id="svg880"
   version="1.1"
   inkscape:version="0.48+devel r12149"
   sodipodi:docname="folder.svg">
  <defs
     id="defs882">
    <linearGradient
       inkscape:collect="always"
       xlink:href="#linearGradient1035"
       id="linearGradient1033"
       x1="23.875"
       y1="-1052.4872"
       x2="23.875"
       y2="-1004.4247"
       gradientUnits="userSpaceOnUse" />
    <linearGradient
       id="linearGradient1035"
       inkscape:collect="always">
      <stop
         id="stop1037"
         offset="0"
         style="stop-color:#ffffff;stop-opacity:1" />
      <stop
         id="stop1039"
         offset="1"
         style="stop-color:#ececec;stop-opacity:1" />
    </linearGradient>
    <linearGradient
       inkscape:collect="always"
       xlink:href="#linearGradient1045"
       id="linearGradient2700"
       gradientUnits="userSpaceOnUse"
       x1="27.709515"
       y1="-1004.9823"
       x2="27.709515"
       y2="-1052.8083"
       gradientTransform="matrix(0.87849084,0,0,0.87849084,2.9162208,-124.96665)" />
    <linearGradient
       inkscape:collect="always"
       id="linearGradient1045">
      <stop
         style="stop-color:#000000;stop-opacity:1;"
         offset="0"
         id="stop1047" />
      <stop
         style="stop-color:#000000;stop-opacity:0;"
         offset="1"
         id="stop1049" />
    </linearGradient>
    <linearGradient
       gradientTransform="matrix(0.95835365,0,0,0.95835365,-42.83876,0.99951249)"
       inkscape:collect="always"
       xlink:href="#linearGradient2869"
       id="linearGradient2875"
       x1="-1050.2408"
       y1="33.41077"
       x2="-1006.7538"
       y2="33.41077"
       gradientUnits="userSpaceOnUse" />
    <linearGradient
       inkscape:collect="always"
       id="linearGradient2869">
      <stop
         style="stop-color:#f9f9f9;stop-opacity:1"
         offset="0"
         id="stop2871" />
      <stop
         style="stop-color:#ffffff;stop-opacity:1"
         offset="1"
         id="stop2873" />
    </linearGradient>
    <linearGradient
       inkscape:collect="always"
       xlink:href="#linearGradient2476"
       id="linearGradient1043"
       gradientUnits="userSpaceOnUse"
       x1="48.5"
       y1="-1026.1804"
       x2="1.2499999"
       y2="-1026.1804"
       gradientTransform="matrix(0,0.95835365,0.60396245,0,636.58677,1.0107)" />
    <linearGradient
       id="linearGradient2476"
       inkscape:collect="always">
      <stop
         id="stop2478"
         offset="0"
         style="stop-color:#0c5dfc;stop-opacity:1" />
      <stop
         id="stop2480"
         offset="1"
         style="stop-color:#39e3ff;stop-opacity:1" />
    </linearGradient>
    <linearGradient
       inkscape:collect="always"
       xlink:href="#linearGradient1045"
       id="linearGradient2800"
       gradientUnits="userSpaceOnUse"
       gradientTransform="matrix(0,0.95835365,0.60396245,0,636.58677,1.0107)"
       x1="29"
       y1="-1059.3043"
       x2="29"
       y2="-1045.8168" />
    <linearGradient
       inkscape:collect="always"
       xlink:href="#linearGradient1045"
       id="linearGradient2852"
       gradientUnits="userSpaceOnUse"
       gradientTransform="matrix(0,1.103105,-0.60396245,0,-627.87927,-2.4633)"
       x1="29"
       y1="-1059.3043"
       x2="29"
       y2="-1045.8168" />
    <linearGradient
       gradientTransform="matrix(0.95835365,0,0,-0.95835365,0.9995135,-961.52344)"
       y2="-1004.4247"
       x2="23.875"
       y1="-1052.4872"
       x1="23.875"
       gradientUnits="userSpaceOnUse"
       id="linearGradient915"
       xlink:href="#linearGradient1035"
       inkscape:collect="always" />
  </defs>
  <sodipodi:namedview
     id="base"
     pagecolor="#ffffff"
     bordercolor="#666666"
     borderopacity="1.0"
     inkscape:pageopacity="0"
     inkscape:pageshadow="2"
     inkscape:zoom="5.6"
     inkscape:cx="28.090462"
     inkscape:cy="29.344016"
     inkscape:document-units="px"
     inkscape:current-layer="layer1"
     showgrid="false"
     inkscape:window-width="1366"
     inkscape:window-height="716"
     inkscape:window-x="0"
     inkscape:window-y="28"
     inkscape:window-maximized="1" />
  <metadata
     id="metadata885">
    <rdf:RDF>
      <cc:Work
         rdf:about="">
        <dc:format>image/svg+xml</dc:format>
        <dc:type
           rdf:resource="http://purl.org/dc/dcmitype/StillImage" />
        <dc:title></dc:title>
      </cc:Work>
    </rdf:RDF>
  </metadata>
  <g
     inkscape:label="Capa 1"
     inkscape:groupmode="layer"
     id="layer1"
     transform="translate(0,-1004.3622)">
    <rect
       style="color:#000000;fill:#333333;fill-opacity:1;fill-rule:nonzero;stroke:none;stroke-width:0.2;marker:none;visibility:visible;display:inline;overflow:visible;enable-background:accumulate"
       id="rect6294"
       width="45.5"
       height="45.5"
       x="1.25"
       y="1005.6122"
       ry="6.3565426" />
    <path
       style="fill:url(#linearGradient915);fill-opacity:1;stroke:none"
       d="M 7.59375 1.75 C 4.3492254 1.75 1.75 4.3492254 1.75 7.59375 L 1.75 40.40625 C 1.75 43.650775 4.3492254 46.25 7.59375 46.25 L 40.40625 46.25 C 43.650775 46.25 46.25 43.650775 46.25 40.40625 L 46.25 7.59375 C 46.25 4.3492254 43.650775 1.75 40.40625 1.75 L 7.59375 1.75 z "
       transform="translate(0,1004.3622)"
       id="rect1041" />
    <rect
       style="opacity:0.05;fill:url(#linearGradient2700);fill-opacity:1;stroke:none"
       id="rect2698"
       width="42.167561"
       height="42.167561"
       x="2.9162197"
       y="-1049.4572"
       ry="1.7082638"
       transform="scale(1,-1)" />
    <rect
       transform="matrix(-2.3953356e-8,-1,1,0,0,0)"
       ry="0.906506"
       y="20.790474"
       x="-1049.4572"
       height="22.376604"
       width="42.167561"
       id="rect2714"
       style="fill:#000000;fill-opacity:0.29411765;stroke:none" />
    <rect
       style="fill:url(#linearGradient2875);fill-opacity:1;stroke:none"
       id="rect2716"
       width="41.554951"
       height="21.744093"
       x="-1049.1509"
       y="21.106728"
       ry="0.88088214"
       transform="matrix(-2.372795e-8,-1,1,0,0,0)" />
    <path
       style="fill:#000000;fill-opacity:0.04858303;stroke:none"
       d="m 42.178771,1049.1577 c 0.03088,-0.092 0.0599,-0.1972 0.0599,-0.2995 l 0,-39.7717 c 0,-0.4879 -0.380498,-0.8984 -0.868507,-0.8984 l -19.975684,0 c -0.08079,0 -0.164565,0.01 -0.239588,0.03 0.124383,-0.3487 0.452768,-0.599 0.838559,-0.599 l 19.975683,0 c 0.48801,0 0.868508,0.4104 0.868508,0.8985 l 0,39.7717 C 42.837639,1048.7001 42.555331,1049.0555 42.178771,1049.1577 Z"
       id="rect2837"
       inkscape:connector-curvature="0" />
    <path
       style="fill:url(#linearGradient1043);fill-opacity:1;stroke:none"
       d="M 7.59375 1.75 C 4.3492254 1.75 1.75 4.3492254 1.75 7.59375 L 1.75 40.40625 C 1.75 43.650775 4.3492254 46.25 7.59375 46.25 L 35.6875 46.25 L 35.6875 22.21875 L 37.84375 20.0625 L 37.84375 1.75 L 7.59375 1.75 z "
       transform="translate(0,1004.3622)"
       id="rect2991-1" />
    <path
       style="fill:#000000;fill-opacity:0.23529412;stroke:none"
       d="M 37.84375 1.75 L 37.84375 20.0625 L 35.6875 22.21875 L 35.6875 46.25 L 36.09375 46.25 L 36.09375 22.40625 L 38.25 20.25 L 38.25 1.75 L 37.84375 1.75 z "
       transform="translate(0,1004.3622)"
       id="path1068" />
    <path
       style="fill:#000000;fill-opacity:0.07843137;stroke:none"
       d="M 38.25 1.75 L 38.25 20.25 L 36.09375 22.40625 L 36.09375 46.25 L 36.53125 46.25 L 36.53125 22.5625 L 38.6875 20.40625 L 38.6875 1.75 L 38.25 1.75 z "
       transform="translate(0,1004.3622)"
       id="path1080" />
    <path
       style="fill:#000000;fill-opacity:0.01960784;stroke:none"
       d="M 38.6875 1.75 L 38.6875 20.40625 L 36.53125 22.5625 L 36.53125 46.25 L 36.9375 46.25 L 36.9375 22.75 L 39.09375 20.59375 L 39.09375 1.75 L 38.6875 1.75 z "
       transform="translate(0,1004.3622)"
       id="path1082" />
    <path
       style="fill:#ffffff;fill-opacity:0.23529412;stroke:none"
       d="M 37.40625 1.75 L 37.40625 19.875 L 35.25 22.03125 L 35.25 46.25 L 35.6875 46.25 L 35.6875 22.21875 L 37.84375 20.0625 L 37.84375 1.75 L 37.40625 1.75 z "
       transform="translate(0,1004.3622)"
       id="path1113" />
    <path
       style="fill:#ffffff;fill-opacity:0.1187944;stroke:none"
       d="M 37 1.75 L 37 19.6875 L 34.84375 21.84375 L 34.84375 46.25 L 35.25 46.25 L 35.25 22.03125 L 37.40625 19.875 L 37.40625 1.75 L 37 1.75 z "
       transform="translate(0,1004.3622)"
       id="path1115" />
    <path
       style="fill:#ffffff;fill-opacity:0.02745098;stroke:none"
       d="M 36.59375 1.75 L 36.59375 19.5 L 34.4375 21.65625 L 34.4375 46.25 L 34.84375 46.25 L 34.84375 21.84375 L 37 19.6875 L 37 1.75 L 36.59375 1.75 z "
       transform="translate(0,1004.3622)"
       id="path1117" />
    <path
       style="opacity:0.30899999;fill:url(#linearGradient2800);fill-opacity:1;stroke:none"
       d="M 7.59375 1.75 C 4.3492254 1.75 1.75 4.3492254 1.75 7.59375 L 1.75 40.40625 C 1.75 43.650775 4.3492254 46.25 7.59375 46.25 L 7.71875 46.25 L 7.71875 1.75 L 7.59375 1.75 z "
       transform="translate(0,1004.3622)"
       id="path2796" />
    <path
       style="fill:#000000;fill-opacity:0.03643727;stroke:none"
       d="M 8.90625 1.75 L 1.75 14.1875 L 1.75 23.3125 L 14.1875 1.75 L 8.90625 1.75 z M 22.34375 1.75 L 1.75 37.4375 L 1.75 40.40625 C 1.75 41.841926 2.2736421 43.139766 3.125 44.15625 L 27.59375 1.75 L 22.34375 1.75 z M 35.75 1.75 L 10.09375 46.25 L 15.375 46.25 L 37.84375 7.3125 L 37.84375 1.75 L 35.75 1.75 z M 37.84375 18.125 L 21.59375 46.25 L 26.875 46.25 L 35.6875 30.96875 L 35.6875 22.21875 L 37.84375 20.0625 L 37.84375 18.125 z "
       transform="translate(0,1004.3622)"
       id="rect2762" />
    <path
       style="fill:#ffffff;fill-opacity:0.10526315;stroke:none"
       d="M 13.84375 1.75 L 1.75 22.75 L 1.75 23.3125 L 14.1875 1.75 L 13.84375 1.75 z M 27.28125 1.75 L 2.9375 43.9375 C 2.9961211 44.015022 3.0626672 44.081827 3.125 44.15625 L 27.59375 1.75 L 27.28125 1.75 z M 37.5 1.75 L 37.5 7.3125 L 15.03125 46.25 L 15.375 46.25 L 37.84375 7.3125 L 37.84375 1.75 L 37.5 1.75 z M 37.84375 18.125 L 37.5 18.6875 L 37.5 20.0625 L 35.625 21.9375 L 35.34375 22.4375 L 35.34375 30.96875 L 26.53125 46.25 L 26.875 46.25 L 35.6875 30.96875 L 35.6875 22.21875 L 37.84375 20.0625 L 37.84375 18.125 z "
       transform="translate(0,1004.3622)"
       id="path2784" />
    <path
       style="fill:#000000;fill-opacity:0.09716599;stroke:none"
       d="M 8.90625 1.75 L 1.75 14.1875 L 1.75 14.84375 L 9.3125 1.75 L 8.90625 1.75 z M 22.34375 1.75 L 1.75 37.4375 L 1.75 38.09375 L 22.71875 1.75 L 22.34375 1.75 z M 35.75 1.75 L 10.09375 46.25 L 10.46875 46.25 L 36.15625 1.75 L 35.75 1.75 z M 37.84375 18.125 L 21.59375 46.25 L 21.96875 46.25 L 35.6875 22.5 L 35.6875 22.21875 L 36.09375 21.78125 L 37.84375 18.8125 L 37.84375 18.125 z "
       transform="translate(0,1004.3622)"
       id="path2791" />
    <path
       style="opacity:0.30899999;fill:url(#linearGradient2852);fill-opacity:1;stroke:none"
       d="M 7.59375 1.75 C 4.3492254 1.75 1.75 4.3492254 1.75 7.59375 L 1.75 40.40625 C 1.75 43.650775 4.3492254 46.25 7.59375 46.25 L 7.71875 46.25 L 7.71875 1.75 L 7.59375 1.75 z "
       transform="translate(0,1004.3622)"
       id="path2850" />
    <path
       style="fill:#ffffff;fill-opacity:0.24696356;stroke:none"
       d="M 7.71875 1.75 L 7.71875 46.25 L 7.9375 46.25 L 7.9375 1.75 L 7.71875 1.75 z "
       transform="translate(0,1004.3622)"
       id="rect2857" />
    <path
       id="path6361"
       d="m 1.749988,1012.5498 0,-0.5625 c 0,-3.2445 2.59922,-5.875 5.84375,-5.875 l 32.8125,0 c 3.24452,0 5.84375,2.6305 5.84375,5.875 l 0,0.5625 c 0,-3.2445 -2.59923,-5.875 -5.84375,-5.875 l -32.8125,0 C 4.349208,1006.6748 1.749988,1009.3053 1.749988,1012.5498 Z"
       style="color:#000000;fill:#ffffff;fill-opacity:1;fill-rule:nonzero;stroke:none;stroke-width:0.2;marker:none;visibility:visible;display:inline;overflow:visible;enable-background:accumulate"
       inkscape:connector-curvature="0" />
    <path
       inkscape:connector-curvature="0"
       style="color:#000000;fill:#000000;fill-opacity:1;fill-rule:nonzero;stroke:none;stroke-width:0.2;marker:none;visibility:visible;display:inline;overflow:visible;enable-background:accumulate"
       d="m 1.749988,1044.1748 0,0.5625 c 0,3.2445 2.59922,5.875 5.84375,5.875 l 32.8125,0 c 3.24452,0 5.84375,-2.6305 5.84375,-5.875 l 0,-0.5625 c 0,3.2445 -2.59923,5.875 -5.84375,5.875 l -32.8125,0 C 4.349208,1050.0498 1.749988,1047.4193 1.749988,1044.1748 Z"
       id="path6388" />
  </g>
</svg>
