<?xml version="1.0" encoding="UTF-8" standalone="no"?>
<!-- Created with Inkscape (http://www.inkscape.org/) -->

<svg
   xmlns:dc="http://purl.org/dc/elements/1.1/"
   xmlns:cc="http://creativecommons.org/ns#"
   xmlns:rdf="http://www.w3.org/1999/02/22-rdf-syntax-ns#"
   xmlns:svg="http://www.w3.org/2000/svg"
   xmlns="http://www.w3.org/2000/svg"
   xmlns:xlink="http://www.w3.org/1999/xlink"
   xmlns:sodipodi="http://sodipodi.sourceforge.net/DTD/sodipodi-0.dtd"
   xmlns:inkscape="http://www.inkscape.org/namespaces/inkscape"
   width="48"
   height="48"
   id="svg1195"
   version="1.1"
   inkscape:version="0.48+devel r12149"
   sodipodi:docname="folder-documents.svg">
  <defs
     id="defs1197">
    <linearGradient
       gradientTransform="matrix(0.95835365,0,0,-0.95835365,505.57093,-484.58982)"
       y2="-1004.4247"
       x2="23.875"
       y1="-1052.4872"
       x1="23.875"
       gradientUnits="userSpaceOnUse"
       id="linearGradient915"
       xlink:href="#linearGradient1035"
       inkscape:collect="always" />
    <linearGradient
       id="linearGradient1035"
       inkscape:collect="always">
      <stop
         id="stop1037"
         offset="0"
         style="stop-color:#ffffff;stop-opacity:1" />
      <stop
         id="stop1039"
         offset="1"
         style="stop-color:#ececec;stop-opacity:1" />
    </linearGradient>
    <linearGradient
       inkscape:collect="always"
       xlink:href="#linearGradient1045"
       id="linearGradient2700"
       gradientUnits="userSpaceOnUse"
       x1="27.709515"
       y1="-1004.9823"
       x2="27.709515"
       y2="-1052.8083"
       gradientTransform="matrix(0.87849084,0,0,0.87849084,507.48764,402.46193)" />
    <linearGradient
       inkscape:collect="always"
       id="linearGradient1045">
      <stop
         style="stop-color:#000000;stop-opacity:1;"
         offset="0"
         id="stop1047" />
      <stop
         style="stop-color:#000000;stop-opacity:0;"
         offset="1"
         id="stop1049" />
    </linearGradient>
    <linearGradient
       gradientTransform="matrix(0.95835365,0,0,0.95835365,484.58982,505.57095)"
       inkscape:collect="always"
       xlink:href="#linearGradient2869"
       id="linearGradient2875"
       x1="-1050.2408"
       y1="33.41077"
       x2="-1006.7538"
       y2="33.41077"
       gradientUnits="userSpaceOnUse" />
    <linearGradient
       inkscape:collect="always"
       id="linearGradient2869">
      <stop
         style="stop-color:#f9f9f9;stop-opacity:1"
         offset="0"
         id="stop2871" />
      <stop
         style="stop-color:#ffffff;stop-opacity:1"
         offset="1"
         id="stop2873" />
    </linearGradient>
    <linearGradient
       inkscape:collect="always"
       xlink:href="#linearGradient2476"
       id="linearGradient1043"
       gradientUnits="userSpaceOnUse"
       x1="48.5"
       y1="-1026.1804"
       x2="1.2499999"
       y2="-1026.1804"
       gradientTransform="matrix(0,0.95835365,0.60396245,0,1141.1582,477.94432)" />
    <linearGradient
       id="linearGradient2476"
       inkscape:collect="always">
      <stop
         id="stop2478"
         offset="0"
         style="stop-color:#0c5dfc;stop-opacity:1" />
      <stop
         id="stop2480"
         offset="1"
         style="stop-color:#39e3ff;stop-opacity:1" />
    </linearGradient>
    <linearGradient
       inkscape:collect="always"
       xlink:href="#linearGradient1045"
       id="linearGradient2800"
       gradientUnits="userSpaceOnUse"
       gradientTransform="matrix(0,0.95835365,0.60396245,0,1141.1582,477.94432)"
       x1="29"
       y1="-1059.3043"
       x2="29"
       y2="-1045.8168" />
    <linearGradient
       inkscape:collect="always"
       xlink:href="#linearGradient1045"
       id="linearGradient2852"
       gradientUnits="userSpaceOnUse"
       gradientTransform="matrix(0,1.103105,-0.60396245,0,-123.30785,474.47032)"
       x1="29"
       y1="-1059.3043"
       x2="29"
       y2="-1045.8168" />
  </defs>
  <sodipodi:namedview
     id="base"
     pagecolor="#ffffff"
     bordercolor="#666666"
     borderopacity="1.0"
     inkscape:pageopacity="0.0"
     inkscape:pageshadow="2"
     inkscape:zoom="5.375"
     inkscape:cx="6.9370174"
     inkscape:cy="21.591979"
     inkscape:document-units="px"
     inkscape:current-layer="layer1"
     showgrid="false"
     fit-margin-top="0"
     fit-margin-left="0"
     fit-margin-right="0"
     fit-margin-bottom="0"
     inkscape:window-width="1366"
     inkscape:window-height="716"
     inkscape:window-x="0"
     inkscape:window-y="28"
     inkscape:window-maximized="1" />
  <metadata
     id="metadata1200">
    <rdf:RDF>
      <cc:Work
         rdf:about="">
        <dc:format>image/svg+xml</dc:format>
        <dc:type
           rdf:resource="http://purl.org/dc/dcmitype/StillImage" />
        <dc:title />
      </cc:Work>
    </rdf:RDF>
  </metadata>
  <g
     inkscape:label="Capa 1"
     inkscape:groupmode="layer"
     id="layer1"
     transform="translate(-504.57143,-476.93361)">
    <rect
       style="color:#000000;fill:#333333;fill-opacity:1;fill-rule:nonzero;stroke:none;stroke-width:0.2;marker:none;visibility:visible;display:inline;overflow:visible;enable-background:accumulate"
       id="rect6294"
       width="45.5"
       height="45.5"
       x="505.82144"
       y="478.18362"
       ry="6.3565426" />
    <path
       inkscape:connector-curvature="0"
       style="fill:url(#linearGradient915);fill-opacity:1;stroke:none"
       d="m 512.16517,478.68362 c -3.24452,0 -5.84375,2.59922 -5.84375,5.84375 l 0,32.8125 c 0,3.24452 2.59923,5.84375 5.84375,5.84375 l 32.8125,0 c 3.24453,0 5.84375,-2.59923 5.84375,-5.84375 l 0,-32.8125 c 0,-3.24453 -2.59922,-5.84375 -5.84375,-5.84375 L 512.16517,478.68362 Z"
       id="rect1041" />
    <rect
       style="opacity:0.05;fill:url(#linearGradient2700);fill-opacity:1;stroke:none"
       id="rect2698"
       width="42.167561"
       height="42.167561"
       x="507.48764"
       y="-522.02856"
       ry="1.7082638"
       transform="scale(1,-1)" />
    <rect
       transform="matrix(-2.3953356e-8,-1,1,0,0,0)"
       ry="0.906506"
       y="525.36194"
       x="-522.02856"
       height="22.376604"
       width="42.167561"
       id="rect2714"
       style="fill:#000000;fill-opacity:0.29411765;stroke:none" />
    <rect
       style="fill:url(#linearGradient2875);fill-opacity:1;stroke:none"
       id="rect2716"
       width="41.554951"
       height="21.744093"
       x="-521.72229"
       y="525.67816"
       ry="0.88088214"
       transform="matrix(-2.372795e-8,-1,1,0,0,0)" />
    <path
       style="fill:#000000;fill-opacity:0.04858303;stroke:none"
       d="m 546.75019,521.72912 c 0.0309,-0.092 0.0599,-0.1972 0.0599,-0.2995 l 0,-39.7717 c 0,-0.4879 -0.3805,-0.8984 -0.86851,-0.8984 l -19.97568,0 c -0.0808,0 -0.16457,0.01 -0.23959,0.03 0.12439,-0.3487 0.45277,-0.599 0.83856,-0.599 l 19.97568,0 c 0.48801,0 0.86851,0.4104 0.86851,0.8985 l 0,39.7717 C 547.40906,521.27152 547.12675,521.62692 546.75019,521.72912 Z"
       id="rect2837"
       inkscape:connector-curvature="0" />
    <path
       inkscape:connector-curvature="0"
       style="fill:url(#linearGradient1043);fill-opacity:1;stroke:none"
       d="m 512.16517,478.68362 c -3.24452,0 -5.84375,2.59922 -5.84375,5.84375 l 0,32.8125 c 0,3.24452 2.59923,5.84375 5.84375,5.84375 l 28.09375,0 0,-24.03125 2.15625,-2.15625 0,-18.3125 L 512.16517,478.68362 Z"
       id="rect2991-1" />
    <path
       inkscape:connector-curvature="0"
       style="fill:#000000;fill-opacity:0.23529412;stroke:none"
       d="m 542.41517,478.68362 0,18.3125 -2.15625,2.15625 0,24.03125 0.40625,0 0,-23.84375 2.15625,-2.15625 0,-18.5 L 542.41517,478.68362 Z"
       id="path1068" />
    <path
       inkscape:connector-curvature="0"
       style="fill:#000000;fill-opacity:0.07843137;stroke:none"
       d="m 542.82142,478.68362 0,18.5 -2.15625,2.15625 0,23.84375 0.4375,0 0,-23.6875 2.15625,-2.15625 0,-18.65625 L 542.82142,478.68362 Z"
       id="path1080" />
    <path
       inkscape:connector-curvature="0"
       style="fill:#000000;fill-opacity:0.01960784;stroke:none"
       d="m 543.25892,478.68362 0,18.65625 -2.15625,2.15625 0,23.6875 0.40625,0 0,-23.5 2.15625,-2.15625 0,-18.84375 L 543.25892,478.68362 Z"
       id="path1082" />
    <path
       inkscape:connector-curvature="0"
       style="fill:#ffffff;fill-opacity:0.23529412;stroke:none"
       d="m 541.97767,478.68362 0,18.125 -2.15625,2.15625 0,24.21875 0.4375,0 0,-24.03125 2.15625,-2.15625 0,-18.3125 L 541.97767,478.68362 Z"
       id="path1113" />
    <path
       inkscape:connector-curvature="0"
       style="fill:#ffffff;fill-opacity:0.1187944;stroke:none"
       d="m 541.57142,478.68362 0,17.9375 -2.15625,2.15625 0,24.40625 0.40625,0 0,-24.21875 2.15625,-2.15625 0,-18.125 L 541.57142,478.68362 Z"
       id="path1115" />
    <path
       inkscape:connector-curvature="0"
       style="fill:#ffffff;fill-opacity:0.02745098;stroke:none"
       d="m 541.16517,478.68362 0,17.75 -2.15625,2.15625 0,24.59375 0.40625,0 0,-24.40625 2.15625,-2.15625 0,-17.9375 L 541.16517,478.68362 Z"
       id="path1117" />
    <path
       inkscape:connector-curvature="0"
       style="opacity:0.30899999;fill:url(#linearGradient2800);fill-opacity:1;stroke:none"
       d="m 512.16517,478.68362 c -3.24452,0 -5.84375,2.59922 -5.84375,5.84375 l 0,32.8125 c 0,3.24452 2.59923,5.84375 5.84375,5.84375 l 0.125,0 0,-44.5 L 512.16517,478.68362 Z"
       id="path2796" />
    <path
       style="fill:#000000;fill-opacity:0.03643727;stroke:none"
       d="M 8.90625 1.75 L 1.75 14.1875 L 1.75 23.3125 L 14.1875 1.75 L 8.90625 1.75 z M 22.34375 1.75 L 15.28125 14 L 20.53125 14 L 27.59375 1.75 L 22.34375 1.75 z M 35.75 1.75 L 28.6875 14 L 34 14 L 37.84375 7.3125 L 37.84375 1.75 L 35.75 1.75 z M 28.28125 14.6875 L 27.6875 15.75 L 31.0625 19.0625 L 31.65625 18 L 28.28125 14.6875 z M 14 16.21875 L 1.75 37.4375 L 1.75 40.40625 C 1.75 41.84192 2.27364 43.13976 3.125 44.15625 L 14 25.3125 L 14 16.21875 z M 37.84375 18.125 L 34 24.78125 L 34 33.5625 L 28.9375 33.5625 L 21.59375 46.25 L 26.875 46.25 L 35.6875 30.96875 L 35.6875 22.21875 L 37.84375 20.0625 L 37.84375 18.125 z M 17.40625 33.5625 L 10.09375 46.25 L 15.375 46.25 L 22.6875 33.5625 L 17.40625 33.5625 z "
       transform="translate(504.57143,476.93361)"
       id="rect2762" />
    <path
       style="fill:#ffffff;fill-opacity:0.10526315;stroke:none"
       d="M 13.84375 1.75 L 1.75 22.75 L 1.75 23.3125 L 14.1875 1.75 L 13.84375 1.75 z M 27.28125 1.75 L 20.21875 14 L 20.53125 14 L 27.59375 1.75 L 27.28125 1.75 z M 37.5 1.75 L 37.5 7.3125 L 33.65625 14 L 34 14 L 37.84375 7.3125 L 37.84375 1.75 L 37.5 1.75 z M 31.4375 17.8125 L 30.84375 18.84375 L 31.0625 19.0625 L 31.65625 18 L 31.4375 17.8125 z M 37.84375 18.125 L 37.5 18.6875 L 37.5 20.0625 L 35.625 21.9375 L 35.34375 22.4375 L 35.34375 30.96875 L 34 33.3125 L 34 33.5625 L 33.84375 33.5625 L 26.53125 46.25 L 26.875 46.25 L 35.6875 30.96875 L 35.6875 22.21875 L 37.84375 20.0625 L 37.84375 18.125 z M 14 24.78125 L 2.9375 43.9375 C 2.9961 44.015 3.06267 44.08182 3.125 44.15625 L 14 25.3125 L 14 24.78125 z M 22.34375 33.5625 L 15.03125 46.25 L 15.375 46.25 L 22.6875 33.5625 L 22.34375 33.5625 z "
       transform="translate(504.57143,476.93361)"
       id="path2784" />
    <path
       style="fill:#000000;fill-opacity:0.09716599;stroke:none"
       d="M 8.90625 1.75 L 1.75 14.1875 L 1.75 14.84375 L 9.3125 1.75 L 8.90625 1.75 z M 22.34375 1.75 L 15.28125 14 L 15.65625 14 L 22.71875 1.75 L 22.34375 1.75 z M 35.75 1.75 L 28.6875 14 L 29.09375 14 L 36.15625 1.75 L 35.75 1.75 z M 28.28125 14.6875 L 27.6875 15.75 L 27.9375 16 L 28.53125 14.9375 L 28.28125 14.6875 z M 14 16.21875 L 1.75 37.4375 L 1.75 38.09375 L 14 16.875 L 14 16.21875 z M 37.84375 18.125 L 34 24.78125 L 34 25.40625 L 35.6875 22.5 L 35.6875 22.21875 L 36.09375 21.78125 L 37.84375 18.8125 L 37.84375 18.125 z M 17.40625 33.5625 L 10.09375 46.25 L 10.46875 46.25 L 17.78125 33.5625 L 17.40625 33.5625 z M 28.9375 33.5625 L 21.59375 46.25 L 21.96875 46.25 L 29.3125 33.5625 L 28.9375 33.5625 z "
       transform="translate(504.57143,476.93361)"
       id="path2791" />
    <path
       inkscape:connector-curvature="0"
       style="opacity:0.30899999;fill:url(#linearGradient2852);fill-opacity:1;stroke:none"
       d="m 512.16517,478.68362 c -3.24452,0 -5.84375,2.59922 -5.84375,5.84375 l 0,32.8125 c 0,3.24452 2.59923,5.84375 5.84375,5.84375 l 0.125,0 0,-44.5 L 512.16517,478.68362 Z"
       id="path2850" />
    <path
       inkscape:connector-curvature="0"
       style="fill:#ffffff;fill-opacity:0.24696356;stroke:none"
       d="m 512.29017,478.68362 0,44.5 0.21875,0 0,-44.5 L 512.29017,478.68362 Z"
       id="rect2857" />
    <path
       id="path6361"
       d="m 506.32141,485.12122 0,-0.5625 c 0,-3.2445 2.59922,-5.875 5.84375,-5.875 l 32.8125,0 c 3.24452,0 5.84375,2.6305 5.84375,5.875 l 0,0.5625 c 0,-3.2445 -2.59923,-5.875 -5.84375,-5.875 l -32.8125,0 C 508.92063,479.24622 506.32141,481.87672 506.32141,485.12122 Z"
       style="color:#000000;fill:#ffffff;fill-opacity:1;fill-rule:nonzero;stroke:none;stroke-width:0.2;marker:none;visibility:visible;display:inline;overflow:visible;enable-background:accumulate"
       inkscape:connector-curvature="0" />
    <path
       inkscape:connector-curvature="0"
       style="color:#000000;fill:#000000;fill-opacity:1;fill-rule:nonzero;stroke:none;stroke-width:0.2;marker:none;visibility:visible;display:inline;overflow:visible;enable-background:accumulate"
       d="m 506.32141,516.74622 0,0.5625 c 0,3.2445 2.59922,5.875 5.84375,5.875 l 32.8125,0 c 3.24452,0 5.84375,-2.6305 5.84375,-5.875 l 0,-0.5625 c 0,3.2445 -2.59923,5.875 -5.84375,5.875 l -32.8125,0 C 508.92063,522.62122 506.32141,519.99072 506.32141,516.74622 Z"
       id="path6388" />
    <path
       style="fill:#000000;fill-opacity:0.39215686"
       d="m 518.57143,490.93361 0,19.57225 20,0 0,-11.62102 -8.125,-7.95123 L 518.57143,490.93361 z m 13.59375,0 6.40625,6.29982 0,-6.29982 L 532.16518,490.93361 Z"
       id="rect927"
       inkscape:connector-curvature="0" />
    <path
       style="fill:#000000;fill-opacity:0.39215686"
       d="m 518.57143,490.93361 0,0.45872 11.875,0 8.125,7.95123 0,-0.45872 -8.125,-7.95123 L 518.57143,490.93361 z m 13.59375,0 0.46875,0.45872 5.9375,0 0,-0.45872 L 532.16518,490.93361 Z"
       id="path937"
       inkscape:connector-curvature="0" />
    <path
       style="fill:#ffffff;fill-opacity:0.19607843"
       d="m 532.16518,491.36136 6.40625,6.29982 0,-0.42814 -5.96875,-5.87168 L 532.16518,491.36136 z m -13.59375,19.14411 0,0.42814 20,0 0,-0.42814 L 518.57143,510.50547 Z"
       id="path942"
       inkscape:connector-curvature="0" />
  </g>
</svg>
