<?xml version="1.0" encoding="UTF-8" standalone="no"?>
<!-- Created with Inkscape (http://www.inkscape.org/) -->

<svg
   xmlns:dc="http://purl.org/dc/elements/1.1/"
   xmlns:cc="http://creativecommons.org/ns#"
   xmlns:rdf="http://www.w3.org/1999/02/22-rdf-syntax-ns#"
   xmlns:svg="http://www.w3.org/2000/svg"
   xmlns="http://www.w3.org/2000/svg"
   xmlns:xlink="http://www.w3.org/1999/xlink"
   xmlns:sodipodi="http://sodipodi.sourceforge.net/DTD/sodipodi-0.dtd"
   xmlns:inkscape="http://www.inkscape.org/namespaces/inkscape"
   width="48"
   height="48"
   id="svg1075"
   version="1.1"
   inkscape:version="0.48+devel r12149"
   sodipodi:docname="user-trash.svg">
  <defs
     id="defs1077">
    <linearGradient
       inkscape:collect="always"
       xlink:href="#linearGradient4508"
       id="linearGradient4558"
       gradientUnits="userSpaceOnUse"
       x1="22.555048"
       y1="31.53602"
       x2="26.957504"
       y2="31.53602"
       gradientTransform="matrix(0.93213281,0,0,0.93993006,-15.11312,1.3638)" />
    <linearGradient
       inkscape:collect="always"
       id="linearGradient4508">
      <stop
         style="stop-color:#454545;stop-opacity:1"
         offset="0"
         id="stop4510" />
      <stop
         style="stop-color:#c7c7c7;stop-opacity:0;"
         offset="1"
         id="stop4512" />
    </linearGradient>
    <linearGradient
       inkscape:collect="always"
       xlink:href="#linearGradient4540"
       id="linearGradient4556"
       gradientUnits="userSpaceOnUse"
       gradientTransform="matrix(0.93213281,0,0,0.93993006,-0.1989954,1.3638)"
       x1="14.498934"
       y1="26.166311"
       x2="11.769723"
       y2="26.166311" />
    <linearGradient
       inkscape:collect="always"
       id="linearGradient4540">
      <stop
         style="stop-color:#ffffff;stop-opacity:1;"
         offset="0"
         id="stop4542" />
      <stop
         style="stop-color:#ffffff;stop-opacity:0;"
         offset="1"
         id="stop4544" />
    </linearGradient>
    <linearGradient
       inkscape:collect="always"
       xlink:href="#linearGradient4540"
       id="linearGradient4550"
       gradientUnits="userSpaceOnUse"
       gradientTransform="matrix(0.93213281,0,0,0.93993006,27.764989,1.3638)"
       x1="14.498934"
       y1="26.166311"
       x2="11.769723"
       y2="26.166311" />
    <linearGradient
       gradientTransform="matrix(0.93213281,0,0,0.93993006,1.66527,1.3638)"
       inkscape:collect="always"
       xlink:href="#linearGradient4524"
       id="linearGradient4530"
       x1="43.582088"
       y1="31.965885"
       x2="44.776119"
       y2="31.965885"
       gradientUnits="userSpaceOnUse" />
    <linearGradient
       inkscape:collect="always"
       id="linearGradient4524">
      <stop
         style="stop-color:#7b7b7b;stop-opacity:1"
         offset="0"
         id="stop4526" />
      <stop
         style="stop-color:#c7c7c7;stop-opacity:0;"
         offset="1"
         id="stop4528" />
    </linearGradient>
    <linearGradient
       gradientTransform="matrix(0.93213281,0,0,0.93993006,1.66527,1.3638)"
       inkscape:collect="always"
       xlink:href="#linearGradient4516"
       id="linearGradient4522"
       x1="35.820896"
       y1="32.221748"
       x2="38.208954"
       y2="32.221748"
       gradientUnits="userSpaceOnUse" />
    <linearGradient
       inkscape:collect="always"
       id="linearGradient4516">
      <stop
         style="stop-color:#838383;stop-opacity:1"
         offset="0"
         id="stop4518" />
      <stop
         style="stop-color:#c7c7c7;stop-opacity:0;"
         offset="1"
         id="stop4520" />
    </linearGradient>
    <linearGradient
       gradientTransform="matrix(0.93213281,0,0,0.93993006,1.66527,1.3638)"
       inkscape:collect="always"
       xlink:href="#linearGradient4508"
       id="linearGradient4514"
       x1="22.555048"
       y1="31.53602"
       x2="26.957504"
       y2="31.53602"
       gradientUnits="userSpaceOnUse" />
    <linearGradient
       gradientTransform="matrix(0.93213281,0,0,0.93993006,1.66527,1.3638)"
       inkscape:collect="always"
       xlink:href="#linearGradient4532"
       id="linearGradient4538"
       x1="15.351812"
       y1="33.33049"
       x2="19.01919"
       y2="33.33049"
       gradientUnits="userSpaceOnUse" />
    <linearGradient
       inkscape:collect="always"
       id="linearGradient4532">
      <stop
         style="stop-color:#c7c7c7;stop-opacity:1;"
         offset="0"
         id="stop4534" />
      <stop
         style="stop-color:#c7c7c7;stop-opacity:0;"
         offset="1"
         id="stop4536" />
    </linearGradient>
    <linearGradient
       inkscape:collect="always"
       xlink:href="#linearGradient4540"
       id="linearGradient4546"
       x1="14.498934"
       y1="26.166311"
       x2="11.769723"
       y2="26.166311"
       gradientUnits="userSpaceOnUse"
       gradientTransform="matrix(0.93213281,0,0,0.93993006,16.579395,1.3638)" />
    <linearGradient
       inkscape:collect="always"
       xlink:href="#linearGradient4472"
       id="linearGradient4478"
       x1="-0.3618457"
       y1="1029.0835"
       x2="16.886131"
       y2="1029.0835"
       gradientUnits="userSpaceOnUse"
       gradientTransform="matrix(0.93213281,0,0,0.93993006,1.66527,-942.6664)" />
    <linearGradient
       inkscape:collect="always"
       id="linearGradient4472">
      <stop
         style="stop-color:#c7c7c7;stop-opacity:1;"
         offset="0"
         id="stop4474" />
      <stop
         style="stop-color:#c7c7c7;stop-opacity:0;"
         offset="1"
         id="stop4476" />
    </linearGradient>
    <linearGradient
       y2="-1004.601"
       x2="22.174841"
       y1="-1051.8505"
       x1="22.174841"
       gradientTransform="matrix(0.93213281,0,0,-0.93993006,1.66527,-942.6664)"
       gradientUnits="userSpaceOnUse"
       id="linearGradient4830"
       xlink:href="#linearGradient4375"
       inkscape:collect="always" />
    <linearGradient
       inkscape:collect="always"
       id="linearGradient4375">
      <stop
         style="stop-color:#dcdee0;stop-opacity:1"
         offset="0"
         id="stop4377" />
      <stop
         style="stop-color:#ecedef;stop-opacity:1"
         offset="1"
         id="stop4379" />
    </linearGradient>
    <linearGradient
       inkscape:collect="always"
       xlink:href="#linearGradient4718"
       id="linearGradient4738"
       gradientUnits="userSpaceOnUse"
       x1="0.25113612"
       y1="1009.6716"
       x2="47.748863"
       y2="1009.6716"
       gradientTransform="matrix(0.94353298,0,0,0.93993006,1.304216,-942.69357)" />
    <linearGradient
       inkscape:collect="always"
       id="linearGradient4718">
      <stop
         style="stop-color:#1e1e1e;stop-opacity:1"
         offset="0"
         id="stop4720" />
      <stop
         id="stop4722"
         offset="0.11589403"
         style="stop-color:#2f2f2f;stop-opacity:1" />
      <stop
         style="stop-color:#555555;stop-opacity:1"
         offset="0.26655626"
         id="stop4724" />
      <stop
         id="stop4726"
         offset="0.52731788"
         style="stop-color:#2c2c2c;stop-opacity:1" />
      <stop
         style="stop-color:#525252;stop-opacity:1"
         offset="0.77690399"
         id="stop4728" />
      <stop
         id="stop4730"
         offset="0.91494209"
         style="stop-color:#161616;stop-opacity:1" />
      <stop
         style="stop-color:#4d4d4d;stop-opacity:1"
         offset="1"
         id="stop4732" />
    </linearGradient>
  </defs>
  <sodipodi:namedview
     id="base"
     pagecolor="#ffffff"
     bordercolor="#666666"
     borderopacity="1.0"
     inkscape:pageopacity="0.0"
     inkscape:pageshadow="2"
     inkscape:zoom="6.1373045"
     inkscape:cx="37.691824"
     inkscape:cy="21.494042"
     inkscape:document-units="px"
     inkscape:current-layer="layer1"
     showgrid="false"
     inkscape:window-width="1366"
     inkscape:window-height="716"
     inkscape:window-x="0"
     inkscape:window-y="28"
     inkscape:window-maximized="1" />
  <metadata
     id="metadata1080">
    <rdf:RDF>
      <cc:Work
         rdf:about="">
        <dc:format>image/svg+xml</dc:format>
        <dc:type
           rdf:resource="http://purl.org/dc/dcmitype/StillImage" />
        <dc:title />
      </cc:Work>
    </rdf:RDF>
  </metadata>
  <g
     inkscape:label="Capa 1"
     inkscape:groupmode="layer"
     id="layer1"
     transform="translate(0,-1004.3622)">
    <rect
       style="color:#000000;fill:#333333;fill-opacity:1;fill-rule:nonzero;stroke:none;stroke-width:0.2;marker:none;visibility:visible;display:inline;overflow:visible;enable-background:accumulate"
       id="rect6294"
       width="45.5"
       height="45.5"
       x="1.25"
       y="1005.6122"
       ry="6.3565426" />
    <path
       style="color:#000000;fill:url(#linearGradient4738);fill-opacity:1;fill-rule:nonzero;stroke:none;stroke-width:1.39999998;marker:none;visibility:visible;display:inline;overflow:visible;enable-background:accumulate"
       d="M 5.78125 2.03125 C 3.440988 2.7978404 1.75 4.9907366 1.75 7.59375 L 1.75 9.125 C 2.0628257 9.8670653 2.7977709 10.375 3.65625 10.375 L 44.25 10.375 C 45.218303 10.375 46.023839 9.7086215 46.25 8.8125 L 46.25 7.59375 C 46.25 4.9907366 44.559012 2.7978404 42.21875 2.03125 L 5.78125 2.03125 z "
       transform="translate(0,1004.3622)"
       id="rect4560" />
    <rect
       style="fill:none;stroke:none"
       id="rect3776"
       width="44.742374"
       height="45.116642"
       x="1.6215458"
       y="1005.7261" />
    <rect
       style="fill:none;stroke:none"
       id="rect3776-6"
       width="44.742374"
       height="45.116642"
       x="1.6215458"
       y="1005.7261" />
    <rect
       y="882.94641"
       x="-486.98438"
       height="11.031452"
       width="10.985601"
       id="rect1751"
       style="fill:none;stroke:none"
       transform="matrix(0.86421248,-0.503127,0.49687946,0.86781957,0,0)" />
    <path
       style="fill:url(#linearGradient4830);fill-opacity:1;stroke:none"
       d="M 46.25 9.75 C 46.060164 10.640024 45.398366 11.28125 44.59375 11.28125 L 3.3125 11.28125 C 2.5852713 11.28125 2.0006024 10.729374 1.75 9.96875 L 1.75 40.40625 C 1.75 43.650775 4.3492254 46.25 7.59375 46.25 L 40.40625 46.25 C 43.650775 46.25 46.25 43.650775 46.25 40.40625 L 46.25 9.75 z "
       transform="translate(0,1004.3622)"
       id="rect2991-1" />
    <path
       style="color:#000000;fill:url(#linearGradient4478);fill-opacity:1;fill-rule:nonzero;stroke:none;stroke-width:1.39999998;marker:none;visibility:visible;display:inline;overflow:visible;enable-background:accumulate"
       d="M 1.90625 10.4375 L 1.90625 41.6875 C 2.4984293 44.296845 4.8001189 46.25 7.59375 46.25 L 22.90625 46.25 L 22.90625 11.28125 L 3.3125 11.28125 C 2.736822 11.28125 2.217651 10.9528 1.90625 10.4375 z "
       transform="translate(0,1004.3622)"
       id="rect4470" />
    <path
       style="color:#000000;fill:url(#linearGradient4546);fill-opacity:1;fill-rule:nonzero;stroke:none;stroke-width:1.39999998;marker:none;visibility:visible;display:inline;overflow:visible;enable-background:accumulate"
       d="M 25.90625 11.28125 L 25.90625 46.25 L 29.84375 46.25 L 29.84375 11.28125 L 25.90625 11.28125 z "
       transform="translate(0,1004.3622)"
       id="rect4483" />
    <path
       style="color:#000000;fill:url(#linearGradient4538);fill-opacity:1;fill-rule:nonzero;stroke:none;stroke-width:1.39999998;marker:none;visibility:visible;display:inline;overflow:visible;enable-background:accumulate"
       d="M 16.40625 11.28125 L 16.40625 46.25 L 20.34375 46.25 L 20.34375 11.28125 L 16.40625 11.28125 z "
       transform="translate(0,1004.3622)"
       id="rect4485" />
    <path
       style="color:#000000;fill:url(#linearGradient4514);fill-opacity:1;fill-rule:nonzero;stroke:none;stroke-width:1.39999998;marker:none;visibility:visible;display:inline;overflow:visible;enable-background:accumulate"
       d="M 22.90625 11.28125 L 22.90625 46.25 L 29.6875 46.25 L 29.6875 11.28125 L 22.90625 11.28125 z "
       transform="translate(0,1004.3622)"
       id="rect4487" />
    <path
       style="color:#000000;fill:url(#linearGradient4522);fill-opacity:1;fill-rule:nonzero;stroke:none;stroke-width:1.39999998;marker:none;visibility:visible;display:inline;overflow:visible;enable-background:accumulate"
       d="M 35.0625 11.28125 L 35.0625 46.25 L 38.6875 46.25 L 38.6875 11.28125 L 35.0625 11.28125 z "
       transform="translate(0,1004.3622)"
       id="rect4489" />
    <path
       style="color:#000000;fill:url(#linearGradient4530);fill-opacity:1;fill-rule:nonzero;stroke:none;stroke-width:1.39999998;marker:none;visibility:visible;display:inline;overflow:visible;enable-background:accumulate"
       d="M 42.375 11.28125 L 42.375 45.90625 C 42.936591 45.705004 43.471023 45.415245 43.9375 45.0625 L 43.9375 11.28125 L 42.375 11.28125 z "
       transform="translate(0,1004.3622)"
       id="rect4491" />
    <path
       style="color:#000000;fill:url(#linearGradient4550);fill-opacity:1;fill-rule:nonzero;stroke:none;stroke-width:1.39999998;marker:none;visibility:visible;display:inline;overflow:visible;enable-background:accumulate"
       d="M 37.09375 11.28125 L 37.09375 46.25 L 40.40625 46.25 C 40.619994 46.25 40.823562 46.240856 41.03125 46.21875 L 41.03125 11.28125 L 37.09375 11.28125 z "
       transform="translate(0,1004.3622)"
       id="path4548" />
    <path
       style="color:#000000;fill:url(#linearGradient4556);fill-opacity:1;fill-rule:nonzero;stroke:none;stroke-width:1.39999998;marker:none;visibility:visible;display:inline;overflow:visible;enable-background:accumulate"
       d="M 9.125 11.28125 L 9.125 46.25 L 13.0625 46.25 L 13.0625 11.28125 L 9.125 11.28125 z "
       transform="translate(0,1004.3622)"
       id="path4552" />
    <path
       style="color:#000000;fill:url(#linearGradient4558);fill-opacity:1;fill-rule:nonzero;stroke:none;stroke-width:1.39999998;marker:none;visibility:visible;display:inline;overflow:visible;enable-background:accumulate"
       d="M 6.125 11.28125 L 6.125 46.0625 C 6.6024453 46.187458 7.0760575 46.25 7.59375 46.25 L 12.90625 46.25 L 12.90625 11.28125 L 6.125 11.28125 z "
       transform="translate(0,1004.3622)"
       id="path4554" />
    <path
       inkscape:connector-curvature="0"
       style="fill:#ffffff;fill-opacity:0.34468085;stroke:none"
       d="m 20.890509,1024.6716 -2.126428,3.8478 3.408111,1.9974 1.864265,-3.2604 0.640841,1.1455 -0.582582,1.028 3.466368,0 1.893395,-3.2896 -0.844745,0.4698 -1.077778,-1.9385 -5.942347,0 -0.553453,0 L 20.890509,1024.6716 z m 9.26307,5.9627 -3.408111,1.9973 1.864266,3.2603 -1.281683,0 -0.611712,-1.028 -1.71862,3.0254 1.893395,3.2899 0,-0.9694 2.213816,0 2.942043,-5.1696 0.291292,-0.4993 0.05826,-0.1175 L 30.153579,1030.6343 z m -14.215025,1.1748 0.815616,0.4994 -1.077779,1.9092 2.942045,5.199 0.291293,0.4701 0.05826,0.1174 4.398502,-0.058 0,-3.9653 -3.75766,0 0.66997,-1.1453 1.194295,0 -1.747749,-3.0255 L 15.938554,1031.8091 Z"
       id="path3802" />
    <path
       inkscape:connector-curvature="0"
       style="fill:#000000;fill-opacity:0.54893619;stroke:none"
       d="m 29.454479,1026.1403 -0.349549,0.2055 -1.543846,2.7022 -3.262464,0 -0.203904,0.3819 3.466368,0 L 29.454479,1026.1403 z m -5.418022,0.7049 -1.864265,3.2899 -3.262463,-1.9094 -0.145648,0.2937 3.408111,1.9974 1.864265,-3.2604 0.524326,0.94 0.116515,-0.2057 L 24.036457,1026.8452 z m -8.097903,4.9639 0.640841,0.3819 0.174775,-0.2937 -0.145646,-0.088 L 15.938554,1031.8091 z m 10.98169,0.7344 -0.174776,0.089 1.660363,2.8785 0.203903,0 L 26.920244,1032.5435 z m -11.127335,1.4687 -0.116518,0.2055 2.942045,5.199 0.291293,0.4701 0.05826,0.1174 4.398502,-0.058 0,-0.3818 -4.398502,0.058 -0.05826,-0.1175 -0.291293,-0.4994 L 15.792909,1034.0122 z m 16.487097,0.2349 -0.233033,0.4113 -2.942043,5.1696 -2.213816,0 0,0.3818 2.213816,0 2.942043,-5.1696 0.291292,-0.4993 0.05826,-0.1175 L 32.280006,1034.2471 z m -12.001209,0.2057 -0.66997,1.116 0.233033,0 0.436937,-0.7341 1.194295,0 -0.233033,-0.3819 L 20.278797,1034.4528 z m 4.835439,3.231 -0.116517,0.2055 1.893395,3.2899 0,-0.3819 L 25.114236,1037.6838 Z"
       id="path4590" />
    <path
       inkscape:connector-curvature="0"
       style="fill:#ffffff;fill-opacity:0.69787233;stroke:none"
       d="m 20.890509,1024.6716 -2.126428,3.8478 0.174775,0.089 1.951653,-3.5248 0.145647,0 0.553453,0 5.942347,0 1.077778,1.9386 0.495196,-0.2645 0.349549,-0.6166 -0.844745,0.4698 -1.077778,-1.9385 -5.942347,0 -0.553453,0 L 20.890509,1024.6716 z m 3.670274,3.936 -0.466067,0.8223 0.233033,0 0.349549,-0.6168 L 24.560783,1028.6076 z m 5.592796,2.0267 -3.408111,1.9973 0.174776,0.2937 3.233335,-1.8798 2.126427,3.5834 0.05826,-0.089 0.05826,-0.1175 L 30.153579,1030.6343 z m -14.215025,1.1748 0.66997,0.4113 3.116819,0 1.514716,2.6143 0.233033,0 -1.747749,-3.0256 L 15.938554,1031.8091 z m 0.640841,0.7932 -0.903004,1.6154 0.116518,0.2057 0.961261,-1.7036 L 16.579395,1032.6023 z m 10.136944,2.2616 -1.71862,3.0254 0.116517,0.2056 1.602103,-2.8197 0.611712,1.028 1.281683,0 -0.233033,-0.4113 -1.04865,0 L 26.716339,1034.8639 z m -6.874479,1.1162 -0.233033,0.4112 3.75766,0 0,-0.4112 L 19.84186,1035.9801 Z"
       id="path4619" />
    <path
       inkscape:connector-curvature="0"
       id="path4624"
       d="m 20.890509,1024.6716 -2.126428,3.8478 3.408111,1.9974 1.864265,-3.2604 0.640841,1.1455 -0.582582,1.028 3.466368,0 1.893395,-3.2896 -0.844745,0.4698 -1.077778,-1.9385 -5.942347,0 -0.553453,0 L 20.890509,1024.6716 z m 9.26307,5.9627 -3.408111,1.9973 1.864266,3.2603 -1.281683,0 -0.611712,-1.028 -1.71862,3.0254 1.893395,3.2899 0,-0.9694 2.213816,0 2.942043,-5.1696 0.291292,-0.4993 0.05826,-0.1175 L 30.153579,1030.6343 z m -14.215025,1.1748 0.815616,0.4994 -1.077779,1.9092 2.942045,5.199 0.291293,0.4701 0.05826,0.1174 4.398502,-0.058 0,-3.9653 -3.75766,0 0.66997,-1.1453 1.194295,0 -1.747749,-3.0255 L 15.938554,1031.8091 Z"
       style="fill:#0a0a0a;fill-opacity:0.55319148;stroke:none" />
    <path
       style="color:#000000;fill:#000000;fill-opacity:1;fill-rule:nonzero;stroke:none;stroke-width:1.39999998;marker:none;visibility:visible;display:inline;overflow:visible;enable-background:accumulate"
       d="m 1.597386,1012.5015 0,1.0946 c 0,1.1434 0.76148,2.0566 1.7151,2.0566 l 41.273043,0 c 0.95362,0 1.715099,-0.9132 1.715099,-2.0566 l 0,-1.0946 c 0,1.1434 -0.761479,2.0565 -1.715099,2.0565 l -41.273043,0 C 2.358866,1014.558 1.597386,1013.6449 1.597386,1012.5015 Z"
       id="rect4562"
       inkscape:connector-curvature="0" />
    <path
       id="path6361"
       d="m 1.7499882,1012.5497 0,-0.5625 c 0,-3.2445 2.59922,-5.875 5.8437495,-5.875 l 32.8125003,0 c 3.24452,0 5.84375,2.6305 5.84375,5.875 l 0,0.5625 c 0,-3.2445 -2.59923,-5.875 -5.84375,-5.875 l -32.8125003,0 C 4.3492082,1006.6747 1.7499882,1009.3052 1.7499882,1012.5497 Z"
       style="color:#000000;fill:#ffffff;fill-opacity:1;fill-rule:nonzero;stroke:none;stroke-width:0.2;marker:none;visibility:visible;display:inline;overflow:visible;enable-background:accumulate"
       inkscape:connector-curvature="0" />
    <path
       inkscape:connector-curvature="0"
       style="color:#000000;fill:#000000;fill-opacity:1;fill-rule:nonzero;stroke:none;stroke-width:0.2;marker:none;visibility:visible;display:inline;overflow:visible;enable-background:accumulate"
       d="m 1.7499882,1044.1747 0,0.5625 c 0,3.2445 2.59922,5.875 5.8437495,5.875 l 32.8125003,0 c 3.24452,0 5.84375,-2.6305 5.84375,-5.875 l 0,-0.5625 c 0,3.2445 -2.59923,5.875 -5.84375,5.875 l -32.8125003,0 C 4.3492082,1050.0497 1.7499882,1047.4192 1.7499882,1044.1747 Z"
       id="path6388" />
  </g>
</svg>
