<?xml version="1.0" encoding="UTF-8" standalone="no"?>
<!-- Created with Inkscape (http://www.inkscape.org/) -->

<svg
   xmlns:dc="http://purl.org/dc/elements/1.1/"
   xmlns:cc="http://creativecommons.org/ns#"
   xmlns:rdf="http://www.w3.org/1999/02/22-rdf-syntax-ns#"
   xmlns:svg="http://www.w3.org/2000/svg"
   xmlns="http://www.w3.org/2000/svg"
   xmlns:xlink="http://www.w3.org/1999/xlink"
   xmlns:sodipodi="http://sodipodi.sourceforge.net/DTD/sodipodi-0.dtd"
   xmlns:inkscape="http://www.inkscape.org/namespaces/inkscape"
   width="48"
   height="48"
   id="svg2"
   version="1.1"
   inkscape:version="0.48+devel r12149"
   sodipodi:docname="folder-remote.svg">
  <defs
     id="defs4">
    <linearGradient
       gradientTransform="matrix(0.95835365,0,0,-0.95835365,0.9995148,42.838798)"
       y2="-1004.4247"
       x2="23.875"
       y1="-1052.4872"
       x1="23.875"
       gradientUnits="userSpaceOnUse"
       id="linearGradient915"
       xlink:href="#linearGradient1035"
       inkscape:collect="always" />
    <linearGradient
       id="linearGradient1035"
       inkscape:collect="always">
      <stop
         id="stop1037"
         offset="0"
         style="stop-color:#ffffff;stop-opacity:1" />
      <stop
         id="stop1039"
         offset="1"
         style="stop-color:#ececec;stop-opacity:1" />
    </linearGradient>
    <linearGradient
       inkscape:collect="always"
       xlink:href="#linearGradient1045"
       id="linearGradient2700"
       gradientUnits="userSpaceOnUse"
       x1="27.709515"
       y1="-1004.9823"
       x2="27.709515"
       y2="-1052.8083"
       gradientTransform="matrix(0.87849084,0,0,0.87849084,2.9162218,-124.96669)" />
    <linearGradient
       inkscape:collect="always"
       id="linearGradient1045">
      <stop
         style="stop-color:#000000;stop-opacity:1;"
         offset="0"
         id="stop1047" />
      <stop
         style="stop-color:#000000;stop-opacity:0;"
         offset="1"
         id="stop1049" />
    </linearGradient>
    <linearGradient
       gradientTransform="matrix(0.95835365,0,0,0.95835365,-42.838798,0.9995138)"
       inkscape:collect="always"
       xlink:href="#linearGradient2869"
       id="linearGradient2875"
       x1="-1050.2408"
       y1="33.41077"
       x2="-1006.7538"
       y2="33.41077"
       gradientUnits="userSpaceOnUse" />
    <linearGradient
       inkscape:collect="always"
       id="linearGradient2869">
      <stop
         style="stop-color:#f9f9f9;stop-opacity:1"
         offset="0"
         id="stop2871" />
      <stop
         style="stop-color:#ffffff;stop-opacity:1"
         offset="1"
         id="stop2873" />
    </linearGradient>
    <linearGradient
       inkscape:collect="always"
       xlink:href="#linearGradient2476"
       id="linearGradient1043"
       gradientUnits="userSpaceOnUse"
       x1="48.5"
       y1="-1026.1804"
       x2="1.2499999"
       y2="-1026.1804"
       gradientTransform="matrix(0,0.95835365,0.60396245,0,636.58677,1005.3729)" />
    <linearGradient
       id="linearGradient2476"
       inkscape:collect="always">
      <stop
         id="stop2478"
         offset="0"
         style="stop-color:#0c5dfc;stop-opacity:1" />
      <stop
         id="stop2480"
         offset="1"
         style="stop-color:#39e3ff;stop-opacity:1" />
    </linearGradient>
    <linearGradient
       inkscape:collect="always"
       xlink:href="#linearGradient1045"
       id="linearGradient2800"
       gradientUnits="userSpaceOnUse"
       gradientTransform="matrix(0,0.95835365,0.60396245,0,636.58677,1005.3729)"
       x1="29"
       y1="-1059.3043"
       x2="29"
       y2="-1045.8168" />
    <linearGradient
       inkscape:collect="always"
       xlink:href="#linearGradient1045"
       id="linearGradient2852"
       gradientUnits="userSpaceOnUse"
       gradientTransform="matrix(0,1.103105,-0.60396245,0,-627.87927,1001.8989)"
       x1="29"
       y1="-1059.3043"
       x2="29"
       y2="-1045.8168" />
  </defs>
  <sodipodi:namedview
     id="base"
     pagecolor="#ffffff"
     bordercolor="#666666"
     borderopacity="1.0"
     inkscape:pageopacity="0.0"
     inkscape:pageshadow="2"
     inkscape:zoom="2.8"
     inkscape:cx="9.6483975"
     inkscape:cy="36.892856"
     inkscape:document-units="px"
     inkscape:current-layer="layer1"
     showgrid="false"
     inkscape:window-width="1366"
     inkscape:window-height="716"
     inkscape:window-x="0"
     inkscape:window-y="28"
     inkscape:window-maximized="1">
    <inkscape:grid
       type="xygrid"
       id="grid2995" />
  </sodipodi:namedview>
  <metadata
     id="metadata7">
    <rdf:RDF>
      <cc:Work
         rdf:about="">
        <dc:format>image/svg+xml</dc:format>
        <dc:type
           rdf:resource="http://purl.org/dc/dcmitype/StillImage" />
        <dc:title />
      </cc:Work>
    </rdf:RDF>
  </metadata>
  <g
     inkscape:label="Capa 1"
     inkscape:groupmode="layer"
     id="layer1"
     transform="translate(0,-1004.3622)">
    <rect
       style="color:#000000;fill:#333333;fill-opacity:1;fill-rule:nonzero;stroke:none;stroke-width:0.2;marker:none;visibility:visible;display:inline;overflow:visible;enable-background:accumulate"
       id="rect6294"
       width="45.5"
       height="45.5"
       x="1.25"
       y="1005.6122"
       ry="6.3565426" />
    <path
       inkscape:connector-curvature="0"
       style="fill:url(#linearGradient915);fill-opacity:1;stroke:none"
       d="m 7.5937508,1006.1122 c -3.244524,0 -5.84375,2.5992 -5.84375,5.8438 l 0,32.8125 c 0,3.2445 2.599226,5.8437 5.84375,5.8437 l 32.8125002,0 c 3.244525,0 5.84375,-2.5992 5.84375,-5.8437 l 0,-32.8125 c 0,-3.2446 -2.599225,-5.8438 -5.84375,-5.8438 L 7.5937508,1006.1122 Z"
       id="rect1041" />
    <rect
       style="opacity:0.05;fill:url(#linearGradient2700);fill-opacity:1;stroke:none"
       id="rect2698"
       width="42.167561"
       height="42.167561"
       x="2.9162216"
       y="-1049.4572"
       ry="1.7082638"
       transform="scale(1,-1)" />
    <rect
       transform="matrix(-2.3953356e-8,-1,1,0,0,0)"
       ry="0.906506"
       y="20.790474"
       x="-1049.4572"
       height="22.376604"
       width="42.167561"
       id="rect2714"
       style="fill:#000000;fill-opacity:0.29411765;stroke:none" />
    <rect
       style="fill:url(#linearGradient2875);fill-opacity:1;stroke:none"
       id="rect2716"
       width="41.554951"
       height="21.744093"
       x="-1049.1509"
       y="21.10673"
       ry="0.88088214"
       transform="matrix(-2.372795e-8,-1,1,0,0,0)" />
    <path
       style="fill:#000000;fill-opacity:0.04858303;stroke:none"
       d="m 42.178772,1049.1577 c 0.03088,-0.092 0.0599,-0.1972 0.0599,-0.2995 l 0,-39.7717 c 0,-0.4879 -0.380498,-0.8984 -0.868507,-0.8984 l -19.975684,0 c -0.08079,0 -0.164565,0.01 -0.239588,0.03 0.124383,-0.3487 0.452768,-0.599 0.838559,-0.599 l 19.975683,0 c 0.48801,0 0.868508,0.4104 0.868508,0.8985 l 0,39.7717 C 42.83764,1048.7001 42.555332,1049.0555 42.178772,1049.1577 Z"
       id="rect2837"
       inkscape:connector-curvature="0" />
    <path
       inkscape:connector-curvature="0"
       style="fill:url(#linearGradient1043);fill-opacity:1;stroke:none"
       d="m 7.5937508,1006.1122 c -3.244524,0 -5.84375,2.5992 -5.84375,5.8438 l 0,32.8125 c 0,3.2445 2.599226,5.8437 5.84375,5.8437 l 28.0937502,0 0,-24.0312 2.15625,-2.1563 0,-18.3125 L 7.5937508,1006.1122 Z"
       id="rect2991-1" />
    <path
       inkscape:connector-curvature="0"
       style="fill:#000000;fill-opacity:0.23529412;stroke:none"
       d="m 37.843751,1006.1122 0,18.3125 -2.15625,2.1563 0,24.0312 0.40625,0 0,-23.8437 2.15625,-2.1563 0,-18.5 L 37.843751,1006.1122 Z"
       id="path1068" />
    <path
       inkscape:connector-curvature="0"
       style="fill:#000000;fill-opacity:0.07843137;stroke:none"
       d="m 38.250001,1006.1122 0,18.5 -2.15625,2.1563 0,23.8437 0.4375,0 0,-23.6875 2.15625,-2.1562 0,-18.6563 L 38.250001,1006.1122 Z"
       id="path1080" />
    <path
       inkscape:connector-curvature="0"
       style="fill:#000000;fill-opacity:0.01960784;stroke:none"
       d="m 38.687501,1006.1122 0,18.6563 -2.15625,2.1562 0,23.6875 0.40625,0 0,-23.5 2.15625,-2.1562 0,-18.8438 L 38.687501,1006.1122 Z"
       id="path1082" />
    <path
       inkscape:connector-curvature="0"
       style="fill:#ffffff;fill-opacity:0.23529412;stroke:none"
       d="m 37.406251,1006.1122 0,18.125 -2.15625,2.1563 0,24.2187 0.4375,0 0,-24.0312 2.15625,-2.1563 0,-18.3125 L 37.406251,1006.1122 Z"
       id="path1113" />
    <path
       inkscape:connector-curvature="0"
       style="fill:#ffffff;fill-opacity:0.1187944;stroke:none"
       d="m 37.000001,1006.1122 0,17.9375 -2.15625,2.1563 0,24.4062 0.40625,0 0,-24.2187 2.15625,-2.1563 0,-18.125 L 37.000001,1006.1122 Z"
       id="path1115" />
    <path
       inkscape:connector-curvature="0"
       style="fill:#ffffff;fill-opacity:0.02745098;stroke:none"
       d="m 36.593751,1006.1122 0,17.75 -2.15625,2.1563 0,24.5937 0.40625,0 0,-24.4062 2.15625,-2.1563 0,-17.9375 L 36.593751,1006.1122 Z"
       id="path1117" />
    <path
       inkscape:connector-curvature="0"
       style="opacity:0.30899999;fill:url(#linearGradient2800);fill-opacity:1;stroke:none"
       d="m 7.5937508,1006.1122 c -3.244524,0 -5.84375,2.5992 -5.84375,5.8438 l 0,32.8125 c 0,3.2445 2.599226,5.8437 5.84375,5.8437 l 0.125,0 0,-44.5 L 7.5937508,1006.1122 Z"
       id="path2796" />
    <path
       style="fill:#000000;fill-opacity:0.03643727;stroke:none"
       d="M 8.90625 1.75 L 1.75 14.1875 L 1.75 23.3125 L 14.1875 1.75 L 8.90625 1.75 z M 22.34375 1.75 L 1.75 37.4375 L 1.75 40.40625 C 1.75 41.84185 2.273642 43.13975 3.125 44.15625 L 18.1875 18.0625 C 16.805947 18.920803 15.517735 20.089404 14.375 21.59375 L 13.125 19.9375 C 15.135374 17.291016 17.562386 15.566395 20.125 14.6875 L 27.59375 1.75 L 22.34375 1.75 z M 35.75 1.75 L 28.21875 14.78125 C 29.60063 15.299809 30.938302 16.087002 32.1875 17.125 L 37.84375 7.3125 L 37.84375 1.75 L 35.75 1.75 z M 27.0625 16.8125 L 25.6875 19.1875 C 27.146266 19.468677 28.56808 20.110318 29.875 21.125 L 31.125 18.96875 C 29.857864 17.944919 28.470577 17.240172 27.0625 16.8125 z M 37.84375 18.125 L 21.59375 46.25 L 26.875 46.25 L 35.6875 30.96875 L 35.6875 22.21875 L 37.84375 20.0625 L 37.84375 18.125 z M 24.28125 21.65625 L 22.84375 24.15625 C 23.225677 24.082683 23.615089 24.03125 24 24.03125 C 25.22464 24.03125 26.445318 24.405979 27.5625 25.15625 L 28.65625 23.25 C 27.295131 22.253322 25.795472 21.715474 24.28125 21.65625 z M 24.03125 26.46875 C 22.901463 26.469206 21.763139 26.905264 20.78125 27.75 L 20.75 27.75 L 10.09375 46.25 L 15.375 46.25 L 22.875 33.21875 C 22.153435 32.838609 21.65625 32.117232 21.65625 31.28125 C 21.65625 30.05505 22.70573 29.0625 24 29.0625 C 24.411881 29.0625 24.788189 29.166295 25.125 29.34375 L 26.40625 27.125 C 25.648802 26.68767 24.844053 26.468422 24.03125 26.46875 z "
       transform="translate(0,1004.3622)"
       id="rect2762" />
    <path
       style="fill:#ffffff;fill-opacity:0.10526315;stroke:none"
       d="M 13.84375 1.75 L 1.75 22.75 L 1.75 23.3125 L 14.1875 1.75 L 13.84375 1.75 z M 27.28125 1.75 L 19.75 14.8125 C 19.874603 14.765293 19.999695 14.730476 20.125 14.6875 L 27.59375 1.75 L 27.28125 1.75 z M 37.5 1.75 L 37.5 7.3125 L 31.9375 16.9375 C 32.018915 17.002384 32.106808 17.05795 32.1875 17.125 L 37.84375 7.3125 L 37.84375 1.75 L 37.5 1.75 z M 18.1875 18.0625 C 18.032141 18.159018 17.871821 18.239063 17.71875 18.34375 L 2.9375 43.9375 C 2.99612 44.0145 3.062667 44.08175 3.125 44.15625 L 18.1875 18.0625 z M 37.84375 18.125 L 37.5 18.6875 L 37.5 20.0625 L 35.625 21.9375 L 35.34375 22.4375 L 35.34375 30.96875 L 26.53125 46.25 L 26.875 46.25 L 35.6875 30.96875 L 35.6875 22.21875 L 37.84375 20.0625 L 37.84375 18.125 z M 30.875 18.78125 L 29.625 20.9375 C 29.70862 20.998774 29.792303 21.060794 29.875 21.125 L 31.125 18.96875 C 31.043347 18.902775 30.957464 18.84475 30.875 18.78125 z M 28.40625 23.0625 L 27.3125 25 C 27.397622 25.052087 27.478572 25.099886 27.5625 25.15625 L 28.65625 23.25 C 28.57125 23.187759 28.492344 23.121085 28.40625 23.0625 z M 26.15625 26.96875 L 24.875 29.21875 C 24.961438 29.252242 25.044046 29.301098 25.125 29.34375 L 26.40625 27.125 C 26.32188 27.076287 26.241915 27.01203 26.15625 26.96875 z M 22.625 33.09375 L 15.03125 46.25 L 15.375 46.25 L 22.875 33.21875 C 22.794617 33.176402 22.699263 33.144451 22.625 33.09375 z "
       transform="translate(0,1004.3622)"
       id="path2784" />
    <path
       style="fill:#000000;fill-opacity:0.09716599;stroke:none"
       d="M 8.90625 1.75 L 1.75 14.1875 L 1.75 14.84375 L 9.3125 1.75 L 8.90625 1.75 z M 22.34375 1.75 L 1.75 37.4375 L 1.75 38.09375 L 22.71875 1.75 L 22.34375 1.75 z M 35.75 1.75 L 28.21875 14.78125 C 28.336116 14.825292 28.445805 14.889708 28.5625 14.9375 L 36.15625 1.75 L 35.75 1.75 z M 27.0625 16.8125 L 25.6875 19.1875 C 25.812805 19.211652 25.93775 19.220427 26.0625 19.25 L 27.40625 16.90625 C 27.29381 16.868088 27.175505 16.846823 27.0625 16.8125 z M 37.84375 18.125 L 21.59375 46.25 L 21.96875 46.25 L 35.6875 22.5 L 35.6875 22.21875 L 36.09375 21.78125 L 37.84375 18.8125 L 37.84375 18.125 z M 24.28125 21.65625 L 22.84375 24.15625 C 22.988618 24.128345 23.13564 24.079798 23.28125 24.0625 L 24.65625 21.65625 C 24.529871 21.644749 24.407828 21.661201 24.28125 21.65625 z M 21.4375 27.25 C 21.207834 27.395396 20.998072 27.563464 20.78125 27.75 L 20.75 27.75 L 10.09375 46.25 L 10.46875 46.25 L 21.4375 27.25 z "
       transform="translate(0,1004.3622)"
       id="path2791" />
    <path
       inkscape:connector-curvature="0"
       style="opacity:0.30899999;fill:url(#linearGradient2852);fill-opacity:1;stroke:none"
       d="m 7.5937508,1006.1122 c -3.244524,0 -5.84375,2.5992 -5.84375,5.8438 l 0,32.8125 c 0,3.2445 2.599226,5.8437 5.84375,5.8437 l 0.125,0 0,-44.5 L 7.5937508,1006.1122 Z"
       id="path2850" />
    <path
       inkscape:connector-curvature="0"
       style="fill:#ffffff;fill-opacity:0.24696356;stroke:none"
       d="m 7.7187508,1006.1122 0,44.5 0.21875,0 0,-44.5 L 7.7187508,1006.1122 Z"
       id="rect2857" />
    <path
       id="path6361"
       d="m 1.7499888,1012.5498 0,-0.5625 c 0,-3.2445 2.59922,-5.875 5.84375,-5.875 l 32.8125002,0 c 3.24452,0 5.84375,2.6305 5.84375,5.875 l 0,0.5625 c 0,-3.2445 -2.59923,-5.875 -5.84375,-5.875 l -32.8125002,0 C 4.3492088,1006.6748 1.7499888,1009.3053 1.7499888,1012.5498 Z"
       style="color:#000000;fill:#ffffff;fill-opacity:1;fill-rule:nonzero;stroke:none;stroke-width:0.2;marker:none;visibility:visible;display:inline;overflow:visible;enable-background:accumulate"
       inkscape:connector-curvature="0" />
    <path
       inkscape:connector-curvature="0"
       style="color:#000000;fill:#000000;fill-opacity:1;fill-rule:nonzero;stroke:none;stroke-width:0.2;marker:none;visibility:visible;display:inline;overflow:visible;enable-background:accumulate"
       d="m 1.7499888,1044.1748 0,0.5625 c 0,3.2445 2.59922,5.875 5.84375,5.875 l 32.8125002,0 c 3.24452,0 5.84375,-2.6305 5.84375,-5.875 l 0,-0.5625 c 0,3.2445 -2.59923,5.875 -5.84375,5.875 l -32.8125002,0 C 4.3492088,1050.0498 1.7499888,1047.4193 1.7499888,1044.1748 Z"
       id="path6388" />
    <path
       style="fill:#1a1a1a;fill-opacity:0.39215686;stroke:none"
       d="m 24,1018.3622 c -3.942689,0 -7.873267,1.9836 -10.881439,5.9436 l 1.249689,1.646 c 5.321838,-7.0059 13.941661,-7.0059 19.2635,0 l 1.249689,-1.646 C 31.873268,1020.3458 27.94269,1018.3621 24,1018.3622 z m 0,4.9988 c -2.97034,0 -5.932886,1.4971 -8.199179,4.4805 l 1.40209,1.8593 c 3.755403,-4.9437 9.838775,-4.9437 13.594179,0 l 1.40209,-1.8593 C 29.932887,1024.8581 26.97034,1023.361 24,1023.361 z m 0,5.0292 c -1.994238,0 -3.995367,0.984 -5.51692,2.9871 l 1.34113,1.7373 c 2.317234,-3.0426 6.067119,-3.0475 8.382061,0 l 1.310649,-1.7373 C 27.995367,1029.3742 25.994239,1028.3902 24,1028.3902 z m 0,5.0292 c -1.29427,0 -2.346977,0.9989 -2.346977,2.2251 0,1.2262 1.052707,2.225 2.346977,2.225 1.29427,0 2.346977,-0.9988 2.346977,-2.225 C 26.346977,1034.4183 25.29427,1033.4194 24,1033.4194 Z"
       id="path2830"
       inkscape:connector-curvature="0" />
    <path
       style="fill:#000000;fill-opacity:0.39215686;stroke:none"
       d="m 24,1018.3622 c -3.942689,0 -7.873267,1.9836 -10.881439,5.9436 l 0.182881,0.2439 c 2.984684,-3.8088 6.832009,-5.7303 10.698558,-5.7303 3.86655,-10e-5 7.713874,1.9215 10.698558,5.7303 l 0.182881,-0.2439 C 31.873268,1020.3458 27.94269,1018.3621 24,1018.3622 z m 0,4.9988 c -2.97034,0 -5.932886,1.4971 -8.199179,4.4805 l 0.182881,0.2439 c 2.242387,-2.8318 5.12256,-4.2672 8.016298,-4.2672 2.893739,0 5.773912,1.4354 8.016299,4.2672 l 0.182881,-0.2439 C 29.932887,1024.8581 26.97034,1023.361 24,1023.361 z m 0,5.0292 c -1.994238,0 -3.995367,0.984 -5.51692,2.9871 l 0.182881,0.2438 c 1.497703,-1.85 3.416825,-2.7737 5.334039,-2.7737 1.917214,0 3.836337,0.9237 5.334039,2.7737 l 0.182881,-0.2438 C 27.995367,1029.3742 25.994239,1028.3902 24,1028.3902 z m 0,5.0292 c -1.29427,0 -2.346977,0.9989 -2.346977,2.2251 0,0.072 0.02346,0.1434 0.03048,0.2133 0.127513,-1.1131 1.108417,-1.9812 2.316497,-1.9812 1.20808,0 2.188984,0.8681 2.316497,1.9812 0.007,-0.07 0.03048,-0.1417 0.03048,-0.2133 C 26.346977,1034.4183 25.29427,1033.4194 24,1033.4194 Z"
       id="path999"
       inkscape:connector-curvature="0" />
    <path
       style="fill:#ffffff;fill-opacity:0.19607843;stroke:none"
       d="m 24,1020.6837 c -3.485416,0 -6.970831,1.7702 -9.63175,5.2731 l -1.066808,-1.4021 c -0.06375,0.081 -0.119929,0.1609 -0.182881,0.2438 l 1.249689,1.646 c 5.321838,-7.0059 13.941661,-7.0059 19.2635,0 l 1.249689,-1.646 c -0.06295,-0.083 -0.119129,-0.1627 -0.182881,-0.2438 l -1.066808,1.4021 C 30.970831,1022.4539 27.485416,1020.6837 24,1020.6837 z m 0,5.3035 c -2.459694,0 -4.919388,1.2467 -6.797089,3.7186 l -1.219209,-1.6154 c -0.06433,0.081 -0.119613,0.1606 -0.182881,0.2439 l 1.40209,1.8592 c 3.755403,-4.9437 9.838775,-4.9437 13.594179,0 l 1.40209,-1.8592 c -0.06327,-0.083 -0.118543,-0.1629 -0.182881,-0.2439 l -1.219209,1.6154 C 28.919388,1027.2339 26.459695,1025.9872 24,1025.9872 z m 0.03048,4.8464 c -1.516492,6e-4 -3.047653,0.7647 -4.20627,2.286 l -1.158249,-1.4935 c -0.06533,0.08 -0.119198,0.16 -0.182881,0.2439 l 1.34113,1.7373 c 2.317234,-3.0427 6.067119,-3.0475 8.382061,0 l 1.310649,-1.7373 c -0.06368,-0.084 -0.117554,-0.1636 -0.182881,-0.2439 l -1.127768,1.4935 C 27.0488,1031.5959 25.546973,1030.833 24.03048,1030.8336 z m -2.346977,5.0598 c -0.0091,0.079 -0.03048,0.1621 -0.03048,0.2438 0,1.2261 1.052707,2.225 2.346977,2.225 1.29427,0 2.346977,-0.9989 2.346977,-2.225 0,-0.082 -0.02138,-0.1645 -0.03048,-0.2438 -0.127513,1.113 -1.108417,1.9811 -2.316497,1.9811 C 22.79192,1037.8745 21.811016,1037.0064 21.683503,1035.8934 Z"
       id="path1004"
       inkscape:connector-curvature="0" />
  </g>
</svg>
