<?xml version="1.0" encoding="UTF-8" standalone="no"?>
<!-- Created with Inkscape (http://www.inkscape.org/) -->

<svg
   xmlns:dc="http://purl.org/dc/elements/1.1/"
   xmlns:cc="http://creativecommons.org/ns#"
   xmlns:rdf="http://www.w3.org/1999/02/22-rdf-syntax-ns#"
   xmlns:svg="http://www.w3.org/2000/svg"
   xmlns="http://www.w3.org/2000/svg"
   xmlns:sodipodi="http://sodipodi.sourceforge.net/DTD/sodipodi-0.dtd"
   xmlns:inkscape="http://www.inkscape.org/namespaces/inkscape"
   width="48"
   height="48"
   id="svg3813"
   version="1.1"
   inkscape:version="0.48+devel r12149"
   sodipodi:docname="appointment.svg">
  <defs
     id="defs3815" />
  <sodipodi:namedview
     id="base"
     pagecolor="#ffffff"
     bordercolor="#666666"
     borderopacity="1.0"
     inkscape:pageopacity="0.0"
     inkscape:pageshadow="2"
     inkscape:zoom="18.172618"
     inkscape:cx="29.721941"
     inkscape:cy="21.064844"
     inkscape:document-units="px"
     inkscape:current-layer="layer1"
     showgrid="false"
     fit-margin-top="0"
     fit-margin-left="0"
     fit-margin-right="0"
     fit-margin-bottom="0"
     inkscape:window-width="1366"
     inkscape:window-height="716"
     inkscape:window-x="0"
     inkscape:window-y="28"
     inkscape:window-maximized="1" />
  <metadata
     id="metadata3818">
    <rdf:RDF>
      <cc:Work
         rdf:about="">
        <dc:format>image/svg+xml</dc:format>
        <dc:type
           rdf:resource="http://purl.org/dc/dcmitype/StillImage" />
        <dc:title />
      </cc:Work>
    </rdf:RDF>
  </metadata>
  <g
     inkscape:label="Capa 1"
     inkscape:groupmode="layer"
     id="layer1"
     transform="translate(-378.85714,-514.07647)">
    <g
       id="g832"
       style="fill:#1a1a1a"
       transform="translate(27.123865,-49.536225)">
      <g
         transform="matrix(1.4975291,0,0,-1.4975291,375.73627,597.8221)"
         id="g22"
         style="fill:#1a1a1a">
        <path
           inkscape:connector-curvature="0"
           id="path24"
           style="fill:#1a1a1a;fill-opacity:1;fill-rule:nonzero;stroke:none"
           d="M 0,0 C -3.766,0.008 -6.813,3.053 -6.818,6.817 -6.813,10.582 -3.766,13.628 0,13.634 3.764,13.628 6.809,10.582 6.814,6.817 6.809,3.053 3.764,0.008 0,0 m 0,16.834 c -5.533,0 -10.018,-4.483 -10.018,-10.017 0,-5.533 4.485,-10.014 10.018,-10.016 5.531,0.002 10.014,4.483 10.014,10.016 0,5.534 -4.483,10.017 -10.014,10.017" />
      </g>
      <g
         transform="matrix(1.4975291,0,0,-1.4975291,376.2246,587.12152)"
         id="g26"
         style="fill:#1a1a1a">
        <path
           inkscape:connector-curvature="0"
           id="path28"
           style="fill:#1a1a1a;fill-opacity:1;fill-rule:nonzero;stroke:none"
           d="m 0,0 0,5.013 -0.656,0 0,-5.67 5.67,0 L 5.014,0 0,0 Z" />
      </g>
    </g>
  </g>
</svg>
