<?xml version="1.0" encoding="UTF-8" standalone="no"?>
<!-- Created with Inkscape (http://www.inkscape.org/) -->

<svg
   xmlns:dc="http://purl.org/dc/elements/1.1/"
   xmlns:cc="http://creativecommons.org/ns#"
   xmlns:rdf="http://www.w3.org/1999/02/22-rdf-syntax-ns#"
   xmlns:svg="http://www.w3.org/2000/svg"
   xmlns="http://www.w3.org/2000/svg"
   xmlns:xlink="http://www.w3.org/1999/xlink"
   xmlns:sodipodi="http://sodipodi.sourceforge.net/DTD/sodipodi-0.dtd"
   xmlns:inkscape="http://www.inkscape.org/namespaces/inkscape"
   width="48"
   height="48"
   id="svg4649"
   version="1.1"
   inkscape:version="0.48+devel r12149"
   sodipodi:docname="archive-insert.svg">
  <defs
     id="defs4651">
    <linearGradient
       id="linearGradient826"
       inkscape:collect="always">
      <stop
         id="stop828"
         offset="0"
         style="stop-color:#598113;stop-opacity:1" />
      <stop
         id="stop830"
         offset="1"
         style="stop-color:#93f030;stop-opacity:1" />
    </linearGradient>
    <linearGradient
       gradientUnits="userSpaceOnUse"
       y2="-501.70206"
       x2="486.09668"
       y1="-546.00665"
       x1="486.09668"
       id="linearGradient832"
       xlink:href="#linearGradient826"
       inkscape:collect="always"
       gradientTransform="translate(-461.7143,-504.57156)" />
  </defs>
  <sodipodi:namedview
     id="base"
     pagecolor="#ffffff"
     bordercolor="#666666"
     borderopacity="1.0"
     inkscape:pageopacity="0.0"
     inkscape:pageshadow="2"
     inkscape:zoom="8"
     inkscape:cx="22.664527"
     inkscape:cy="25.830945"
     inkscape:document-units="px"
     inkscape:current-layer="layer1"
     showgrid="false"
     inkscape:window-width="1366"
     inkscape:window-height="716"
     inkscape:window-x="0"
     inkscape:window-y="28"
     inkscape:window-maximized="1" />
  <metadata
     id="metadata4654">
    <rdf:RDF>
      <cc:Work
         rdf:about="">
        <dc:format>image/svg+xml</dc:format>
        <dc:type
           rdf:resource="http://purl.org/dc/dcmitype/StillImage" />
        <dc:title />
      </cc:Work>
    </rdf:RDF>
  </metadata>
  <g
     inkscape:label="Capa 1"
     inkscape:groupmode="layer"
     id="layer1"
     transform="translate(0,-1004.3622)">
    <rect
       style="fill:url(#linearGradient832);fill-opacity:1;stroke:none"
       id="rect2991-1-7-2"
       width="44.000008"
       height="44.000008"
       x="2.0000036"
       y="-1050.3622"
       ry="1.7824985"
       transform="scale(1,-1)" />
    <path
       inkscape:connector-curvature="0"
       style="fill:#000000;fill-opacity:1;stroke:none"
       d="m 1.9999889,1047.6122 0,0.974 c 0,0.9875 0.78854,1.776 1.77604,1.776 l 40.4479201,0 c 0.9875,0 1.77604,-0.7885 1.77604,-1.776 l 0,-0.974 c 0,0.9875 -0.78854,1.776 -1.77604,1.776 l -40.4479201,0 C 2.7885289,1049.3882 1.9999889,1048.5997 1.9999889,1047.6122 Z"
       id="rect846" />
    <g
       id="g821"
       transform="translate(0,0.11477499)">
      <path
         id="path7515"
         d="m 4.3202989,1006.849 c -0.84067,0 -1.53189,0.5862 -1.69011,1.375 0.30765,-0.2566 0.70997,-0.401 1.14584,-0.401 l 40.4479201,0 c 0.43587,0 0.83819,0.1444 1.14584,0.401 -0.15822,-0.7888 -0.84944,-1.375 -1.69011,-1.375 L 4.3202989,1006.849 Z"
         style="fill:#ffffff;fill-opacity:0.5372549;stroke:none"
         inkscape:connector-curvature="0" />
      <path
         id="rect4280"
         d="m 3.7760289,1006.2474 c -0.9875,0 -1.77604,0.7885 -1.77604,1.776 l 0,39.474 c 0,0.7273 0.44002,1.3283 1.05989,1.6042 -0.28356,-0.3056 -0.45832,-0.7172 -0.45832,-1.1745 l 0,-39.3593 c 0,-0.9609 0.75798,-1.7188 1.71874,-1.7188 l 39.3593801,0 c 0.96076,0 1.71874,0.7579 1.71874,1.7188 l 0,39.3593 c 0,0.4573 -0.17476,0.8689 -0.45832,1.1745 0.61987,-0.2759 1.05989,-0.8769 1.05989,-1.6042 l 0,-39.474 c 0,-0.9875 -0.78854,-1.776 -1.77604,-1.776 L 3.7760289,1006.2474 Z"
         style="fill:#000000;fill-opacity:0.39215686;stroke:none"
         inkscape:connector-curvature="0" />
    </g>
    <path
       inkscape:connector-curvature="0"
       style="fill:#ffffff;fill-opacity:1"
       d="m 17.272643,1018.3621 -1.584435,3.1429 c 0,0 6.637448,3.1939 6.545536,6.4157 l 0,4 0,0.026 -2.935101,0 4.701357,6.4156 4.701357,-6.4156 -2.935101,0 0,-0.026 0,-4 c -0.09257,-3.2218 6.545536,-6.4157 6.545536,-6.4157 l -1.584435,-3.1429 c 0,0 -4.124719,2.3599 -4.961101,3.2728 L 24,1023.1933 22.233744,1021.6349 C 21.398018,1020.722 17.272643,1018.3621 17.272643,1018.3621 Z"
       id="path870" />
  </g>
</svg>
