<?xml version="1.0" encoding="UTF-8" standalone="no"?>
<!-- Created with Inkscape (http://www.inkscape.org/) -->

<svg
   xmlns:dc="http://purl.org/dc/elements/1.1/"
   xmlns:cc="http://creativecommons.org/ns#"
   xmlns:rdf="http://www.w3.org/1999/02/22-rdf-syntax-ns#"
   xmlns:svg="http://www.w3.org/2000/svg"
   xmlns="http://www.w3.org/2000/svg"
   xmlns:xlink="http://www.w3.org/1999/xlink"
   xmlns:sodipodi="http://sodipodi.sourceforge.net/DTD/sodipodi-0.dtd"
   xmlns:inkscape="http://www.inkscape.org/namespaces/inkscape"
   width="48"
   height="48"
   id="svg3979"
   version="1.1"
   inkscape:version="0.48+devel r12149"
   sodipodi:docname="archive-extract.svg">
  <defs
     id="defs3981">
    <linearGradient
       inkscape:collect="always"
       id="linearGradient826">
      <stop
         style="stop-color:#598113;stop-opacity:1"
         offset="0"
         id="stop828" />
      <stop
         style="stop-color:#93f030;stop-opacity:1"
         offset="1"
         id="stop830" />
    </linearGradient>
    <linearGradient
       gradientTransform="translate(139.99999,8.571387)"
       inkscape:collect="always"
       xlink:href="#linearGradient826"
       id="linearGradient832"
       x1="486.09668"
       y1="-546.00665"
       x2="486.09668"
       y2="-501.70206"
       gradientUnits="userSpaceOnUse" />
  </defs>
  <sodipodi:namedview
     id="base"
     pagecolor="#ffffff"
     bordercolor="#666666"
     borderopacity="1.0"
     inkscape:pageopacity="0.0"
     inkscape:pageshadow="2"
     inkscape:zoom="6.4249908"
     inkscape:cx="21.639534"
     inkscape:cy="42.01145"
     inkscape:document-units="px"
     inkscape:current-layer="layer1"
     showgrid="false"
     fit-margin-top="0"
     fit-margin-left="0"
     fit-margin-right="0"
     fit-margin-bottom="0"
     inkscape:window-width="1366"
     inkscape:window-height="716"
     inkscape:window-x="0"
     inkscape:window-y="28"
     inkscape:window-maximized="1" />
  <metadata
     id="metadata3984">
    <rdf:RDF>
      <cc:Work
         rdf:about="">
        <dc:format>image/svg+xml</dc:format>
        <dc:type
           rdf:resource="http://purl.org/dc/dcmitype/StillImage" />
        <dc:title />
      </cc:Work>
    </rdf:RDF>
  </metadata>
  <g
     inkscape:label="Capa 1"
     inkscape:groupmode="layer"
     id="layer1"
     transform="translate(-601.71428,-491.21933)">
    <rect
       style="fill:url(#linearGradient832);fill-opacity:1;stroke:none"
       id="rect2991-1-7-2"
       width="44.000008"
       height="44.000008"
       x="603.71429"
       y="-537.2193"
       ry="1.7824985"
       transform="scale(1,-1)" />
    <path
       inkscape:connector-curvature="0"
       style="fill:#000000;fill-opacity:1;stroke:none"
       d="m 603.71428,534.46934 0,0.97396 c 0,0.98752 0.78854,1.77604 1.77604,1.77604 l 40.44792,0 c 0.9875,0 1.77604,-0.78852 1.77604,-1.77604 l 0,-0.97396 c 0,0.98752 -0.78854,1.77604 -1.77604,1.77604 l -40.44792,0 C 604.50282,536.24538 603.71428,535.45686 603.71428,534.46934 Z"
       id="rect846" />
    <path
       inkscape:connector-curvature="0"
       style="fill:#ffffff;fill-opacity:0.5372549;stroke:none"
       d="m 606.03459,493.82094 c -0.84067,0 -1.53189,0.58622 -1.69011,1.375 0.30765,-0.25656 0.70997,-0.40104 1.14584,-0.40104 l 40.44792,0 c 0.43587,0 0.83819,0.14448 1.14584,0.40104 -0.15822,-0.78878 -0.84944,-1.375 -1.69011,-1.375 L 606.03459,493.82094 Z"
       id="path7515" />
    <path
       inkscape:connector-curvature="0"
       style="fill:#000000;fill-opacity:0.39215686;stroke:none"
       d="m 605.49032,493.21934 c -0.9875,0 -1.77604,0.78852 -1.77604,1.77604 l 0,39.47396 c 0,0.72728 0.44002,1.32825 1.05989,1.60416 -0.28356,-0.30552 -0.45832,-0.7172 -0.45832,-1.17442 l 0,-39.35938 c 0,-0.96086 0.75798,-1.71876 1.71874,-1.71876 l 39.35938,0 c 0.96076,0 1.71874,0.7579 1.71874,1.71876 l 0,39.35938 c 0,0.45722 -0.17476,0.8689 -0.45832,1.17442 0.61987,-0.27591 1.05989,-0.87688 1.05989,-1.60416 l 0,-39.47396 c 0,-0.98752 -0.78854,-1.77604 -1.77604,-1.77604 L 605.49032,493.21934 Z"
       id="rect4280" />
    <path
       id="path615"
       d="m 625.71382,505.21933 -7.58434,10.34477 4.73076,0 0,9.65523 5.65988,0 0,-9.65523 L 633.29908,515.5641 Z"
       inkscape:connector-curvature="0"
       style="fill:#ffffff"
       sodipodi:nodetypes="cccccccc" />
  </g>
</svg>
