<?xml version="1.0" encoding="UTF-8" standalone="no"?>
<!-- Created with Inkscape (http://www.inkscape.org/) -->

<svg
   xmlns:dc="http://purl.org/dc/elements/1.1/"
   xmlns:cc="http://creativecommons.org/ns#"
   xmlns:rdf="http://www.w3.org/1999/02/22-rdf-syntax-ns#"
   xmlns:svg="http://www.w3.org/2000/svg"
   xmlns="http://www.w3.org/2000/svg"
   xmlns:xlink="http://www.w3.org/1999/xlink"
   xmlns:sodipodi="http://sodipodi.sourceforge.net/DTD/sodipodi-0.dtd"
   xmlns:inkscape="http://www.inkscape.org/namespaces/inkscape"
   width="48"
   height="48"
   id="svg3979"
   version="1.1"
   inkscape:version="0.48+devel r12149"
   sodipodi:docname="archive-remove.svg">
  <defs
     id="defs3981">
    <linearGradient
       gradientTransform="translate(-461.7143,-504.57156)"
       inkscape:collect="always"
       xlink:href="#linearGradient4150"
       id="linearGradient832"
       x1="486.09668"
       y1="-546.00665"
       x2="486.09668"
       y2="-501.70206"
       gradientUnits="userSpaceOnUse" />
    <linearGradient
       inkscape:collect="always"
       id="linearGradient4150">
      <stop
         style="stop-color:#fe4542;stop-opacity:1"
         offset="0"
         id="stop4152" />
      <stop
         style="stop-color:#ff7271;stop-opacity:1"
         offset="1"
         id="stop4154" />
    </linearGradient>
  </defs>
  <sodipodi:namedview
     id="base"
     pagecolor="#ffffff"
     bordercolor="#666666"
     borderopacity="1.0"
     inkscape:pageopacity="0.0"
     inkscape:pageshadow="2"
     inkscape:zoom="2.9620683"
     inkscape:cx="30.967201"
     inkscape:cy="31.236913"
     inkscape:document-units="px"
     inkscape:current-layer="layer1"
     showgrid="false"
     fit-margin-top="0"
     fit-margin-left="0"
     fit-margin-right="0"
     fit-margin-bottom="0"
     inkscape:window-width="1366"
     inkscape:window-height="716"
     inkscape:window-x="0"
     inkscape:window-y="28"
     inkscape:window-maximized="1" />
  <metadata
     id="metadata3984">
    <rdf:RDF>
      <cc:Work
         rdf:about="">
        <dc:format>image/svg+xml</dc:format>
        <dc:type
           rdf:resource="http://purl.org/dc/dcmitype/StillImage" />
        <dc:title />
      </cc:Work>
    </rdf:RDF>
  </metadata>
  <g
     inkscape:label="Capa 1"
     inkscape:groupmode="layer"
     id="layer1"
     transform="translate(-601.71428,-491.21933)">
    <g
       transform="translate(601.71428,-513.14286)"
       id="layer1-7"
       inkscape:label="Capa 1">
      <rect
         transform="scale(1,-1)"
         ry="1.7824985"
         y="-1050.3622"
         x="2.0000036"
         height="44.000008"
         width="44.000008"
         id="rect2991-1-7-2"
         style="fill:url(#linearGradient832);fill-opacity:1.0;stroke:none" />
      <path
         id="rect846"
         d="m 1.9999889,1047.6122 0,0.974 c 0,0.9875 0.78854,1.776 1.77604,1.776 l 40.4479201,0 c 0.9875,0 1.77604,-0.7885 1.77604,-1.776 l 0,-0.974 c 0,0.9875 -0.78854,1.776 -1.77604,1.776 l -40.4479201,0 C 2.7885289,1049.3882 1.9999889,1048.5997 1.9999889,1047.6122 Z"
         style="fill:#000000;fill-opacity:1;stroke:none"
         inkscape:connector-curvature="0" />
      <g
         transform="translate(0,0.11477499)"
         id="g821">
        <path
           inkscape:connector-curvature="0"
           style="fill:#ffffff;fill-opacity:0.5372549;stroke:none"
           d="m 4.3202989,1006.849 c -0.84067,0 -1.53189,0.5862 -1.69011,1.375 0.30765,-0.2566 0.70997,-0.401 1.14584,-0.401 l 40.4479201,0 c 0.43587,0 0.83819,0.1444 1.14584,0.401 -0.15822,-0.7888 -0.84944,-1.375 -1.69011,-1.375 L 4.3202989,1006.849 Z"
           id="path7515" />
        <path
           inkscape:connector-curvature="0"
           style="fill:#000000;fill-opacity:0.39215686;stroke:none"
           d="m 3.7760289,1006.2474 c -0.9875,0 -1.77604,0.7885 -1.77604,1.776 l 0,39.474 c 0,0.7273 0.44002,1.3283 1.05989,1.6042 -0.28356,-0.3056 -0.45832,-0.7172 -0.45832,-1.1745 l 0,-39.3593 c 0,-0.9609 0.75798,-1.7188 1.71874,-1.7188 l 39.3593801,0 c 0.96076,0 1.71874,0.7579 1.71874,1.7188 l 0,39.3593 c 0,0.4573 -0.17476,0.8689 -0.45832,1.1745 0.61987,-0.2759 1.05989,-0.8769 1.05989,-1.6042 l 0,-39.474 c 0,-0.9875 -0.78854,-1.776 -1.77604,-1.776 L 3.7760289,1006.2474 Z"
           id="rect4280" />
      </g>
    </g>
    <g
       transform="matrix(0.37237707,0,0,0.37237707,482.18619,-286.3467)"
       id="_x35__content_remove"
       style="fill:#ffffff">
      <polygon
         style="fill:#ffffff;fill-rule:evenodd;clip-rule:evenodd"
         points="385.438,2156.709 408.149,2179.42 412.292,2175.277 389.582,2152.565 412.292,2129.854 408.149,2125.711 385.438,2148.422 362.726,2125.711 358.583,2129.854 381.294,2152.565 358.583,2175.277 362.726,2179.42 "
         id="polygon994" />
    </g>
  </g>
</svg>
