<?xml version="1.0" encoding="UTF-8" standalone="no"?>
<!-- Created with Inkscape (http://www.inkscape.org/) -->

<svg
   xmlns:dc="http://purl.org/dc/elements/1.1/"
   xmlns:cc="http://creativecommons.org/ns#"
   xmlns:rdf="http://www.w3.org/1999/02/22-rdf-syntax-ns#"
   xmlns:svg="http://www.w3.org/2000/svg"
   xmlns="http://www.w3.org/2000/svg"
   xmlns:xlink="http://www.w3.org/1999/xlink"
   xmlns:sodipodi="http://sodipodi.sourceforge.net/DTD/sodipodi-0.dtd"
   xmlns:inkscape="http://www.inkscape.org/namespaces/inkscape"
   width="48"
   height="48.292236"
   id="svg3944"
   version="1.1"
   inkscape:version="0.48+devel r12149"
   sodipodi:docname="document-open-recent.svg">
  <defs
     id="defs3946">
    <linearGradient
       gradientUnits="userSpaceOnUse"
       y2="-1004.4247"
       x2="23.875"
       y1="-1052.4872"
       x1="23.875"
       id="linearGradient1033-8"
       xlink:href="#linearGradient1035-3"
       inkscape:collect="always" />
    <linearGradient
       inkscape:collect="always"
       id="linearGradient1035-3">
      <stop
         style="stop-color:#ffffff;stop-opacity:1"
         offset="0"
         id="stop1037-8" />
      <stop
         style="stop-color:#ececec;stop-opacity:1"
         offset="1"
         id="stop1039-5" />
    </linearGradient>
    <linearGradient
       id="linearGradient2476-8"
       inkscape:collect="always">
      <stop
         id="stop2478-0"
         offset="0"
         style="stop-color:#0c5dfc;stop-opacity:1" />
      <stop
         id="stop2480-4"
         offset="1"
         style="stop-color:#39e3ff;stop-opacity:1" />
    </linearGradient>
    <linearGradient
       inkscape:collect="always"
       xlink:href="#linearGradient2476-8"
       id="linearGradient893"
       gradientUnits="userSpaceOnUse"
       x1="486.09668"
       y1="-546.00665"
       x2="486.09668"
       y2="-501.70206"
       gradientTransform="translate(-461.71429,-504.57154)" />
  </defs>
  <sodipodi:namedview
     id="base"
     pagecolor="#ffffff"
     bordercolor="#666666"
     borderopacity="1.0"
     inkscape:pageopacity="0.0"
     inkscape:pageshadow="2"
     inkscape:zoom="6.1373047"
     inkscape:cx="28.997159"
     inkscape:cy="31.737602"
     inkscape:document-units="px"
     inkscape:current-layer="layer1"
     showgrid="false"
     fit-margin-top="0"
     fit-margin-left="0"
     fit-margin-right="0"
     fit-margin-bottom="0"
     inkscape:window-width="1366"
     inkscape:window-height="716"
     inkscape:window-x="0"
     inkscape:window-y="28"
     inkscape:window-maximized="1" />
  <metadata
     id="metadata3949">
    <rdf:RDF>
      <cc:Work
         rdf:about="">
        <dc:format>image/svg+xml</dc:format>
        <dc:type
           rdf:resource="http://purl.org/dc/dcmitype/StillImage" />
        <dc:title />
      </cc:Work>
    </rdf:RDF>
  </metadata>
  <g
     inkscape:label="Capa 1"
     inkscape:groupmode="layer"
     id="layer1"
     transform="translate(-507.42857,-653.93035)">
    <g
       transform="translate(507.42857,-350.28572)"
       id="layer1-0"
       inkscape:label="Capa 1">
      <rect
         transform="scale(1,-1)"
         ry="1.7824985"
         y="-1050.3622"
         x="1.9999962"
         height="44.000008"
         width="44.000008"
         id="rect2991-1-7-9"
         style="fill:url(#linearGradient893);fill-opacity:1;stroke:none" />
      <path
         id="rect846-1"
         d="m 1.999995,1047.6122 0,0.9739 c 0,0.9875 0.7885351,1.7761 1.7760417,1.7761 l 40.4479183,0 c 0.987506,0 1.776042,-0.7886 1.776042,-1.7761 l 0,-0.9739 c 0,0.9875 -0.788536,1.7761 -1.776042,1.7761 l -40.4479183,0 C 2.7885301,1049.3883 1.999995,1048.5997 1.999995,1047.6122 Z"
         style="fill:#000000;fill-opacity:1;stroke:none"
         inkscape:connector-curvature="0" />
      <path
         id="path7515-7"
         d="m 4.3203076,1006.9639 c -0.8406659,0 -1.5318875,0.5861 -1.6901042,1.375 0.3076425,-0.2567 0.7099675,-0.4011 1.1458333,-0.4011 l 40.4479183,0 c 0.435866,0 0.83819,0.1444 1.145832,0.4011 -0.158216,-0.7889 -0.849438,-1.375 -1.690104,-1.375 L 4.3203076,1006.9639 Z"
         style="fill:#ffffff;fill-opacity:0.5372549;stroke:none"
         inkscape:connector-curvature="0" />
      <path
         id="rect4280-8"
         d="m 3.7760367,1006.3622 c -0.9875066,0 -1.7760417,0.7886 -1.7760417,1.7761 l 0,39.4739 c 0,0.7272 0.4400184,1.3282 1.0598959,1.6042 -0.2835617,-0.3055 -0.4583334,-0.7172 -0.4583334,-1.1744 l 0,-39.3595 c 0,-0.9608 0.7579918,-1.7186 1.7187501,-1.7186 l 39.3593754,0 c 0.960759,0 1.71875,0.7578 1.71875,1.7186 l 0,39.3595 c 0,0.4572 -0.174771,0.8689 -0.458332,1.1744 0.619876,-0.276 1.059896,-0.877 1.059896,-1.6042 l 0,-39.4739 c 0,-0.9875 -0.788536,-1.7761 -1.776042,-1.7761 L 3.7760367,1006.3622 Z"
         style="fill:#000000;fill-opacity:0.39215686;stroke:none"
         inkscape:connector-curvature="0" />
    </g>
    <rect
       style="fill:none;stroke:none"
       id="rect2989-4"
       width="48"
       height="48"
       x="507.42856"
       y="653.93036" />
    <rect
       style="fill:none;stroke:none"
       id="rect2989"
       width="48"
       height="48"
       x="507.42856"
       y="654.2226" />
    <path
       style="fill:#ffffff;fill-opacity:1"
       d="m 531.42857,667.86785 c -5.52254,0 -10,4.47683 -10,10 0,5.52317 4.47746,10 10,10 5.52317,0 10,-4.47683 10,-10 C 541.42857,672.34468 536.95174,667.86785 531.42857,667.86785 z m 0,1.59375 c 4.63856,0 8.40625,3.76959 8.40625,8.40625 0,4.63666 -3.76737,8.375 -8.40625,8.375 -4.6354,0 -8.40625,-3.73834 -8.40625,-8.375 C 523.02232,673.23119 526.79317,669.4616 531.42857,669.4616 z m -0.90625,1.625 -0.34375,6.84375 0.0937,0.71875 5.09375,4.53125 0.8125,-0.8125 -4.21875,-4.53125 -0.375,-6.75 L 530.52232,671.0866 Z"
       id="path365"
       inkscape:connector-curvature="0" />
  </g>
</svg>
