<?xml version="1.0" encoding="UTF-8" standalone="no"?>
<!-- Created with Inkscape (http://www.inkscape.org/) -->

<svg
   xmlns:dc="http://purl.org/dc/elements/1.1/"
   xmlns:cc="http://creativecommons.org/ns#"
   xmlns:rdf="http://www.w3.org/1999/02/22-rdf-syntax-ns#"
   xmlns:svg="http://www.w3.org/2000/svg"
   xmlns="http://www.w3.org/2000/svg"
   xmlns:xlink="http://www.w3.org/1999/xlink"
   xmlns:sodipodi="http://sodipodi.sourceforge.net/DTD/sodipodi-0.dtd"
   xmlns:inkscape="http://www.inkscape.org/namespaces/inkscape"
   width="48"
   height="48"
   id="svg11925"
   version="1.1"
   inkscape:version="0.48+devel r12149"
   sodipodi:docname="document-encrypted.svg">
  <defs
     id="defs11927">
    <linearGradient
       id="linearGradient1069-5">
      <stop
         id="stop1071-6"
         offset="0"
         style="stop-color:#ffffff;stop-opacity:1" />
      <stop
         id="stop1073-0"
         offset="1"
         style="stop-color:#e6e6e6;stop-opacity:1" />
    </linearGradient>
    <linearGradient
       id="linearGradient918-1">
      <stop
         style="stop-color:#f6f6f6;stop-opacity:1"
         offset="0"
         id="stop920-5" />
      <stop
         style="stop-color:#e2e2e2;stop-opacity:1"
         offset="1"
         id="stop922-7" />
    </linearGradient>
    <linearGradient
       gradientUnits="userSpaceOnUse"
       y2="-501.70206"
       x2="486.09668"
       y1="-546.00665"
       x1="486.09668"
       id="linearGradient832"
       xlink:href="#linearGradient1925"
       inkscape:collect="always"
       gradientTransform="translate(-74.285735,-48.571461)" />
    <linearGradient
       inkscape:collect="always"
       id="linearGradient1925">
      <stop
         style="stop-color:#e07b67;stop-opacity:1"
         offset="0"
         id="stop1927" />
      <stop
         style="stop-color:#f6cc3c;stop-opacity:1"
         offset="1"
         id="stop1929" />
    </linearGradient>
  </defs>
  <sodipodi:namedview
     id="base"
     pagecolor="#ffffff"
     bordercolor="#666666"
     borderopacity="1.0"
     inkscape:pageopacity="0.0"
     inkscape:pageshadow="2"
     inkscape:zoom="3.959798"
     inkscape:cx="8.0478899"
     inkscape:cy="54.791408"
     inkscape:document-units="px"
     inkscape:current-layer="layer1"
     showgrid="true"
     fit-margin-top="0"
     fit-margin-left="0"
     fit-margin-right="0"
     fit-margin-bottom="0"
     inkscape:window-width="1366"
     inkscape:window-height="716"
     inkscape:window-x="0"
     inkscape:window-y="28"
     inkscape:window-maximized="1"
     showguides="false" />
  <metadata
     id="metadata11930">
    <rdf:RDF>
      <cc:Work
         rdf:about="">
        <dc:format>image/svg+xml</dc:format>
        <dc:type
           rdf:resource="http://purl.org/dc/dcmitype/StillImage" />
        <dc:title />
      </cc:Work>
    </rdf:RDF>
  </metadata>
  <g
     inkscape:label="Capa 1"
     inkscape:groupmode="layer"
     id="layer1"
     transform="translate(-387.42856,-548.36218)">
    <rect
       style="fill:url(#linearGradient832);fill-opacity:1;stroke:none"
       id="rect2991-1-7-2"
       width="44.000008"
       height="44.000008"
       x="389.42856"
       y="-594.36218"
       ry="1.7824985"
       transform="scale(1,-1)" />
    <path
       inkscape:connector-curvature="0"
       style="fill:#000000;fill-opacity:1;stroke:none"
       d="m 389.42856,591.61219 0,0.97396 c 0,0.98752 0.78854,1.77604 1.77604,1.77604 l 40.44792,0 c 0.9875,0 1.77604,-0.78852 1.77604,-1.77604 l 0,-0.97396 c 0,0.98752 -0.78854,1.77604 -1.77604,1.77604 l -40.44792,0 C 390.2171,593.38823 389.42856,592.59971 389.42856,591.61219 Z"
       id="rect846" />
    <path
       inkscape:connector-curvature="0"
       style="fill:#ffffff;fill-opacity:0.5372549;stroke:none"
       d="m 391.74887,550.96379 c -0.84067,0 -1.53189,0.58622 -1.69011,1.375 0.30765,-0.25656 0.70997,-0.40104 1.14584,-0.40104 l 40.44792,0 c 0.43587,0 0.83819,0.14448 1.14584,0.40104 -0.15822,-0.78878 -0.84944,-1.375 -1.69011,-1.375 L 391.74887,550.96379 Z"
       id="path7515" />
    <path
       inkscape:connector-curvature="0"
       style="fill:#000000;fill-opacity:0.39215686;stroke:none"
       d="m 391.2046,550.36219 c -0.9875,0 -1.77604,0.78852 -1.77604,1.77604 l 0,39.47396 c 0,0.72728 0.44002,1.32825 1.05989,1.60416 -0.28356,-0.30552 -0.45832,-0.7172 -0.45832,-1.17442 l 0,-39.35938 c 0,-0.96086 0.75798,-1.71876 1.71874,-1.71876 l 39.35938,0 c 0.96076,0 1.71874,0.7579 1.71874,1.71876 l 0,39.35938 c 0,0.45722 -0.17476,0.8689 -0.45832,1.17442 0.61987,-0.27591 1.05989,-0.87688 1.05989,-1.60416 l 0,-39.47396 c 0,-0.98752 -0.78854,-1.77604 -1.77604,-1.77604 L 391.2046,550.36219 Z"
       id="rect4280" />
    <g
       transform="matrix(0.33080269,0,0,0.33080269,125.5846,-258.93191)"
       id="_x31_0_device_access_secure"
       style="fill:#ffffff">
      <path
         style="fill:#ffffff"
         inkscape:connector-curvature="0"
         d="m 880.733,2509.877 0,-10.739 c 0,-8.153 -5.713,-16.407 -16.641,-16.407 -10.928,0 -16.645,8.254 -16.645,16.407 l 0,10.739 -8.23,0 0,33.313 49.75,0 0,-33.313 L 880.733,2509.877 z m -26.277,-10.739 c 0,-4.53 3.016,-9.401 9.637,-9.401 6.621,0 9.637,4.871 9.637,9.401 l 0,10.739 -19.273,0 L 854.457,2499.138 Z"
         id="path568" />
    </g>
  </g>
</svg>
