<?xml version="1.0" encoding="UTF-8" standalone="no"?>
<!-- Created with Inkscape (http://www.inkscape.org/) -->

<svg
   xmlns:dc="http://purl.org/dc/elements/1.1/"
   xmlns:cc="http://creativecommons.org/ns#"
   xmlns:rdf="http://www.w3.org/1999/02/22-rdf-syntax-ns#"
   xmlns:svg="http://www.w3.org/2000/svg"
   xmlns="http://www.w3.org/2000/svg"
   xmlns:sodipodi="http://sodipodi.sourceforge.net/DTD/sodipodi-0.dtd"
   xmlns:inkscape="http://www.inkscape.org/namespaces/inkscape"
   width="16"
   height="16"
   id="svg2"
   sodipodi:version="0.32"
   inkscape:version="0.48.3.1 r9886"
   version="1.0"
   sodipodi:docname="edit-find-symbolic.svg"
   inkscape:output_extension="org.inkscape.output.svg.inkscape"
   inkscape:export-filename="/home/matt/.icons/Sirocco/scalable/mimetypes/text-plain.png"
   inkscape:export-xdpi="90"
   inkscape:export-ydpi="90"
   sodipodi:modified="true"
   style="display:inline">
  <sodipodi:namedview
     id="base"
     pagecolor="#ffffff"
     bordercolor="#666666"
     borderopacity="1.0"
     inkscape:pageopacity="0.0"
     inkscape:pageshadow="2"
     inkscape:zoom="17.578558"
     inkscape:cx="-4.4094782"
     inkscape:cy="5.7328537"
     inkscape:document-units="px"
     inkscape:current-layer="layer1"
     width="128px"
     height="128px"
     inkscape:showpageshadow="false"
     inkscape:window-width="1366"
     inkscape:window-height="716"
     inkscape:window-x="0"
     inkscape:window-y="28"
     showguides="true"
     inkscape:guide-bbox="true"
     showgrid="true"
     inkscape:window-maximized="1">
    <sodipodi:guide
       id="guide2226"
       position="32.637397,117.99844"
       orientation="horizontal" />
    <sodipodi:guide
       id="guide2230"
       position="110,57.402344"
       orientation="vertical" />
    <sodipodi:guide
       id="guide2232"
       position="33.760911"
       orientation="horizontal" />
    <sodipodi:guide
       id="guide2231"
       position="46.774696"
       orientation="horizontal" />
    <inkscape:grid
       enabled="true"
       visible="true"
       id="grid3231"
       type="xygrid" />
    <sodipodi:guide
       orientation="1,0"
       position="100,67.625"
       id="guide2713" />
  </sodipodi:namedview>
  <defs
     id="defs4" />
  <metadata
     id="metadata7">
    <rdf:RDF>
      <cc:Work
         rdf:about="">
        <dc:format>image/svg+xml</dc:format>
        <dc:type
           rdf:resource="http://purl.org/dc/dcmitype/StillImage" />
      </cc:Work>
    </rdf:RDF>
  </metadata>
  <g
     style="display:inline"
     inkscape:label="Calque 1"
     id="layer1"
     inkscape:groupmode="layer">
    <g
       transform="matrix(0.40000048,0,0,0.40000048,-1.6000116,-403.34537)"
       id="layer1-0"
       inkscape:label="Capa 1"
       style="fill:#bebebe;fill-opacity:1">
      <path
         inkscape:connector-curvature="0"
         id="rect3910-3"
         d="m 30.627971,1014.445 c -1.254955,-0.682 -2.705941,-1.0828 -4.234545,-1.0828 -4.891506,0 -8.846499,3.9905 -8.846499,8.882 0,2.6564 1.168254,5.014 3.01551,6.6374 l -1.737622,3.01 c -0.606767,-0.2372 -1.327397,0 -1.663556,0.5855 l -4.240421,7.3449 c -0.370925,0.6423 -0.152327,1.4582 0.490138,1.829 l 2.650696,1.5307 c 0.642466,0.3708 1.458292,0.1521 1.829224,-0.4902 l 4.240427,-7.3449 c 0.340009,-0.5887 0.198643,-1.3294 -0.324471,-1.7333 l 1.737615,-3.0099 c 0.894419,0.3048 1.842445,0.4993 2.841155,0.4993 4.891513,0 8.874112,-3.9749 8.874112,-8.8664 0,-3.363 -1.87086,-6.2915 -4.631763,-7.7913 z m -1.475156,2.6824 c 1.806947,0.9818 3.049986,2.9101 3.049986,5.1113 0,3.2013 -2.602064,5.7795 -5.803445,5.7795 -3.201381,0 -5.795497,-2.5747 -5.795497,-5.776 0,-3.2013 2.574459,-5.7956 5.77584,-5.7956 1.000424,0 1.951775,0.2348 2.773116,0.6808 z"
         style="fill:#bebebe;fill-opacity:1;stroke:none" />
    </g>
  </g>
</svg>
