<?xml version="1.0" encoding="UTF-8" standalone="no"?>
<!-- Created with Inkscape (http://www.inkscape.org/) -->

<svg
   xmlns:dc="http://purl.org/dc/elements/1.1/"
   xmlns:cc="http://creativecommons.org/ns#"
   xmlns:rdf="http://www.w3.org/1999/02/22-rdf-syntax-ns#"
   xmlns:svg="http://www.w3.org/2000/svg"
   xmlns="http://www.w3.org/2000/svg"
   xmlns:xlink="http://www.w3.org/1999/xlink"
   xmlns:sodipodi="http://sodipodi.sourceforge.net/DTD/sodipodi-0.dtd"
   xmlns:inkscape="http://www.inkscape.org/namespaces/inkscape"
   width="48.000008"
   height="48"
   id="svg3812"
   version="1.1"
   inkscape:version="0.48+devel r12149"
   sodipodi:docname="folder-new.svg">
  <defs
     id="defs3814">
    <linearGradient
       id="linearGradient2476-2"
       inkscape:collect="always">
      <stop
         id="stop2478-1"
         offset="0"
         style="stop-color:#0c5dfc;stop-opacity:1" />
      <stop
         id="stop2480-9"
         offset="1"
         style="stop-color:#39e3ff;stop-opacity:1" />
    </linearGradient>
    <linearGradient
       inkscape:collect="always"
       xlink:href="#linearGradient2476-2"
       id="linearGradient893"
       gradientUnits="userSpaceOnUse"
       x1="486.09668"
       y1="-546.00665"
       x2="486.09668"
       y2="-501.70206"
       gradientTransform="translate(19.99999,-154.28582)" />
  </defs>
  <sodipodi:namedview
     id="base"
     pagecolor="#ffffff"
     bordercolor="#666666"
     borderopacity="1.0"
     inkscape:pageopacity="0.0"
     inkscape:pageshadow="2"
     inkscape:zoom="4"
     inkscape:cx="23.425852"
     inkscape:cy="31.511498"
     inkscape:document-units="px"
     inkscape:current-layer="layer1"
     showgrid="false"
     fit-margin-top="0"
     fit-margin-left="0"
     fit-margin-right="0"
     fit-margin-bottom="0"
     inkscape:window-width="1366"
     inkscape:window-height="716"
     inkscape:window-x="0"
     inkscape:window-y="28"
     inkscape:window-maximized="1" />
  <metadata
     id="metadata3817">
    <rdf:RDF>
      <cc:Work
         rdf:about="">
        <dc:format>image/svg+xml</dc:format>
        <dc:type
           rdf:resource="http://purl.org/dc/dcmitype/StillImage" />
        <dc:title />
      </cc:Work>
    </rdf:RDF>
  </metadata>
  <g
     inkscape:label="Capa 1"
     inkscape:groupmode="layer"
     id="layer1"
     transform="translate(-481.71428,-654.07647)">
    <rect
       style="fill:url(#linearGradient893);fill-opacity:1;stroke:none"
       id="rect2991-1-7-9"
       width="44.000008"
       height="44.000008"
       x="483.71426"
       y="-700.07648"
       ry="1.7824985"
       transform="scale(1,-1)" />
    <path
       inkscape:connector-curvature="0"
       style="fill:#000000;fill-opacity:1;stroke:none"
       d="m 483.71427,697.32648 0,0.9739 c 0,0.9875 0.78854,1.7761 1.77605,1.7761 l 40.44791,0 c 0.98751,0 1.77605,-0.7886 1.77605,-1.7761 l 0,-0.9739 c 0,0.9875 -0.78854,1.7761 -1.77605,1.7761 l -40.44791,0 C 484.50281,699.10258 483.71427,698.31398 483.71427,697.32648 Z"
       id="rect846-1" />
    <path
       inkscape:connector-curvature="0"
       style="fill:#ffffff;fill-opacity:0.5372549;stroke:none"
       d="m 486.03459,656.67818 c -0.84067,0 -1.53189,0.5861 -1.69011,1.375 0.30765,-0.2567 0.70997,-0.4011 1.14584,-0.4011 l 40.44791,0 c 0.43587,0 0.8382,0.1444 1.14584,0.4011 -0.15822,-0.7889 -0.84944,-1.375 -1.69011,-1.375 L 486.03459,656.67818 Z"
       id="path7515-7" />
    <path
       inkscape:connector-curvature="0"
       style="fill:#000000;fill-opacity:0.39215686;stroke:none"
       d="m 485.49032,656.07648 c -0.98751,0 -1.77605,0.7886 -1.77605,1.7761 l 0,39.4739 c 0,0.7272 0.44002,1.3282 1.0599,1.6042 -0.28356,-0.3055 -0.45833,-0.7172 -0.45833,-1.1744 l 0,-39.3595 c 0,-0.9608 0.75799,-1.7186 1.71875,-1.7186 l 39.35937,0 c 0.96076,0 1.71875,0.7578 1.71875,1.7186 l 0,39.3595 c 0,0.4572 -0.17477,0.8689 -0.45833,1.1744 0.61988,-0.276 1.0599,-0.877 1.0599,-1.6042 l 0,-39.4739 c 0,-0.9875 -0.78854,-1.7761 -1.77605,-1.7761 L 485.49032,656.07648 Z"
       id="rect4280-8" />
    <path
       style="color:#000000;color-interpolation:sRGB;color-interpolation-filters:linearRGB;fill:#ffffff;fill-opacity:1;fill-rule:nonzero;stroke-width:3.50486469;stroke-linecap:butt;stroke-linejoin:miter;stroke-miterlimit:4;stroke-opacity:1;stroke-dashoffset:0;marker:none;visibility:visible;display:inline;overflow:visible;enable-background:accumulate;clip-rule:nonzero"
       d="m 504.03814,668.07647 0,1.81818 0,6.50568 -6.50568,0 -1.81818,0 0,1.53409 0,1.81819 8.32386,0 0,6.50568 0,1.81818 3.35228,0 0,-1.81818 0,-6.50568 8.32386,0 0,-1.81819 0,-1.53409 -1.81818,0 -6.50568,0 0,-8.32386 -1.53409,0 L 504.03814,668.07647 Z"
       id="polygon1013"
       inkscape:connector-curvature="0" />
  </g>
</svg>
