<?xml version="1.0" encoding="UTF-8" standalone="no"?>
<!-- Created with Inkscape (http://www.inkscape.org/) -->

<svg
   xmlns:dc="http://purl.org/dc/elements/1.1/"
   xmlns:cc="http://creativecommons.org/ns#"
   xmlns:rdf="http://www.w3.org/1999/02/22-rdf-syntax-ns#"
   xmlns:svg="http://www.w3.org/2000/svg"
   xmlns="http://www.w3.org/2000/svg"
   xmlns:sodipodi="http://sodipodi.sourceforge.net/DTD/sodipodi-0.dtd"
   xmlns:inkscape="http://www.inkscape.org/namespaces/inkscape"
   width="48"
   height="48"
   id="svg3129"
   version="1.1"
   inkscape:version="0.48+devel r12012"
   sodipodi:docname="zoom-in.svg">
  <defs
     id="defs3131" />
  <sodipodi:namedview
     id="base"
     pagecolor="#ffffff"
     bordercolor="#666666"
     borderopacity="1.0"
     inkscape:pageopacity="0.0"
     inkscape:pageshadow="2"
     inkscape:zoom="11.725"
     inkscape:cx="18.58512"
     inkscape:cy="30.158713"
     inkscape:document-units="px"
     inkscape:current-layer="layer1"
     showgrid="false"
     fit-margin-top="0"
     fit-margin-left="0"
     fit-margin-right="0"
     fit-margin-bottom="0"
     inkscape:window-width="1366"
     inkscape:window-height="718"
     inkscape:window-x="0"
     inkscape:window-y="28"
     inkscape:window-maximized="1" />
  <metadata
     id="metadata3134">
    <rdf:RDF>
      <cc:Work
         rdf:about="">
        <dc:format>image/svg+xml</dc:format>
        <dc:type
           rdf:resource="http://purl.org/dc/dcmitype/StillImage" />
        <dc:title />
      </cc:Work>
    </rdf:RDF>
  </metadata>
  <g
     inkscape:label="Capa 1"
     inkscape:groupmode="layer"
     id="layer1"
     transform="translate(-267.42857,-565.50504)">
    <path
       style="fill:#1a1a1a;fill-opacity:1;fill-rule:nonzero;stroke:none"
       d="m 279.11607,573.56754 c -1.56671,0 -2.8125,1.24579 -2.8125,2.8125 l 0,21.75 c 0,1.56671 1.24579,2.8125 2.8125,2.8125 l 24.625,0 c 1.56671,0 2.8125,-1.24579 2.8125,-2.8125 l 0,-21.75 c 0,-1.56671 -1.24579,-2.8125 -2.8125,-2.8125 L 279.11607,573.56754 z m 9.15625,5 6.625,0 0,5.3125 5.21875,0 0,6.75 -5.21875,0 0,5.3125 -6.625,0 0,-5.3125 -5.21875,0 0,-6.75 5.21875,0 L 288.27232,578.56754 z m -11.96875,21.25 0,0.875 0,0.75 0,0.875 c 0,1.7312 1.39375,3.125 3.125,3.125 l 24,0 c 1.73125,0 3.125,-1.3938 3.125,-3.125 l 0,-0.875 0,-0.75 0,-0.875 c 0,1.7312 -1.39375,3.125 -3.125,3.125 l -24,0 C 277.69732,602.94254 276.30357,601.54874 276.30357,599.81754 Z"
       id="rect4109"
       inkscape:connector-curvature="0" />
  </g>
</svg>
