<?xml version="1.0" encoding="UTF-8" standalone="no"?>
<!-- Created with Inkscape (http://www.inkscape.org/) -->

<svg
   xmlns:dc="http://purl.org/dc/elements/1.1/"
   xmlns:cc="http://creativecommons.org/ns#"
   xmlns:rdf="http://www.w3.org/1999/02/22-rdf-syntax-ns#"
   xmlns:svg="http://www.w3.org/2000/svg"
   xmlns="http://www.w3.org/2000/svg"
   xmlns:xlink="http://www.w3.org/1999/xlink"
   xmlns:sodipodi="http://sodipodi.sourceforge.net/DTD/sodipodi-0.dtd"
   xmlns:inkscape="http://www.inkscape.org/namespaces/inkscape"
   width="48"
   height="48"
   id="svg3241"
   version="1.1"
   inkscape:version="0.48+devel r12149"
   sodipodi:docname="edit-cut.svg">
  <defs
     id="defs3243">
    <linearGradient
       gradientUnits="userSpaceOnUse"
       y2="-501.70206"
       x2="486.09668"
       y1="-546.00665"
       x1="486.09668"
       id="linearGradient832"
       xlink:href="#linearGradient1925"
       inkscape:collect="always"
       gradientTransform="translate(-78.179489,107.23157)" />
    <linearGradient
       inkscape:collect="always"
       id="linearGradient1925">
      <stop
         style="stop-color:#e07b67;stop-opacity:1"
         offset="0"
         id="stop1927" />
      <stop
         style="stop-color:#f6cc3c;stop-opacity:1"
         offset="1"
         id="stop1929" />
    </linearGradient>
  </defs>
  <sodipodi:namedview
     id="base"
     pagecolor="#ffffff"
     bordercolor="#666666"
     borderopacity="1.0"
     inkscape:pageopacity="0.0"
     inkscape:pageshadow="2"
     inkscape:zoom="11.725"
     inkscape:cx="6.3265815"
     inkscape:cy="25.759401"
     inkscape:document-units="px"
     inkscape:current-layer="layer1"
     showgrid="false"
     fit-margin-top="0"
     fit-margin-left="0"
     fit-margin-right="0"
     fit-margin-bottom="0"
     inkscape:window-width="1366"
     inkscape:window-height="716"
     inkscape:window-x="0"
     inkscape:window-y="28"
     inkscape:window-maximized="1" />
  <metadata
     id="metadata3246">
    <rdf:RDF>
      <cc:Work
         rdf:about="">
        <dc:format>image/svg+xml</dc:format>
        <dc:type
           rdf:resource="http://purl.org/dc/dcmitype/StillImage" />
        <dc:title />
      </cc:Work>
    </rdf:RDF>
  </metadata>
  <g
     inkscape:label="Capa 1"
     inkscape:groupmode="layer"
     id="layer1"
     transform="translate(-436,-408.36218)">
    <g
       id="g15375"
       transform="translate(52.465205,15.803032)">
      <rect
         transform="scale(1,-1)"
         ry="1.7824985"
         y="-438.55914"
         x="385.53479"
         height="44.000008"
         width="44.000008"
         id="rect2991-1-7-2"
         style="fill:url(#linearGradient832);fill-opacity:1;stroke:none" />
      <path
         id="rect846"
         d="m 385.5348,435.80916 0,0.97396 c 0,0.98752 0.78854,1.77604 1.77604,1.77604 l 40.44792,0 c 0.9875,0 1.77604,-0.78852 1.77604,-1.77604 l 0,-0.97396 c 0,0.98752 -0.78854,1.77604 -1.77604,1.77604 l -40.44792,0 C 386.32334,437.5852 385.5348,436.79668 385.5348,435.80916 Z"
         style="fill:#000000;fill-opacity:1;stroke:none"
         inkscape:connector-curvature="0" />
      <path
         id="path7515"
         d="m 387.85511,395.16076 c -0.84067,0 -1.53189,0.58622 -1.69011,1.375 0.30765,-0.25656 0.70997,-0.40104 1.14584,-0.40104 l 40.44792,0 c 0.43587,0 0.83819,0.14448 1.14584,0.40104 -0.15822,-0.78878 -0.84944,-1.375 -1.69011,-1.375 L 387.85511,395.16076 Z"
         style="fill:#ffffff;fill-opacity:0.5372549;stroke:none"
         inkscape:connector-curvature="0" />
      <path
         id="rect4280"
         d="m 387.31084,394.55916 c -0.9875,0 -1.77604,0.78852 -1.77604,1.77604 l 0,39.47396 c 0,0.72728 0.44002,1.32825 1.05989,1.60416 -0.28356,-0.30552 -0.45832,-0.7172 -0.45832,-1.17442 l 0,-39.35938 c 0,-0.96086 0.75798,-1.71876 1.71874,-1.71876 l 39.35938,0 c 0.96076,0 1.71874,0.7579 1.71874,1.71876 l 0,39.35938 c 0,0.45722 -0.17476,0.8689 -0.45832,1.17442 0.61987,-0.27591 1.05989,-0.87688 1.05989,-1.60416 l 0,-39.47396 c 0,-0.98752 -0.78854,-1.77604 -1.77604,-1.77604 L 387.31084,394.55916 Z"
         style="fill:#000000;fill-opacity:0.39215686;stroke:none"
         inkscape:connector-curvature="0" />
    </g>
    <path
       style="fill:#ffffff"
       d="m 468.84392,439.56525 c -0.0198,-0.52135 -0.1662,-1.0431 -0.4981,-1.49426 -0.29541,-0.40612 -0.78543,-0.7548 -1.11111,-0.91953 -0.16858,-0.0849 -0.36014,-0.19925 -0.61302,-0.34485 -0.22606,-0.12646 -0.47509,-0.28006 -0.80459,-0.45975 -1.72413,-0.93909 -2.8663,-1.90768 -2.87358,-1.9157 -0.008,-0.008 -0.59002,-0.52877 -1.11111,-1.11111 1.39848,-3.2567 3.66282,-8.56706 3.79311,-9.08047 0.19158,-0.7663 -0.35975,-1.50192 -0.38314,-1.53258 l -0.22989,-0.34482 -0.22988,0.34482 -4.78929,7.85441 -4.75094,-7.85441 -0.22989,-0.34482 -0.22988,0.34482 c -0.023,0.0308 -0.57471,0.76628 -0.38313,1.53258 0.12648,0.50959 2.39424,5.82377 3.7931,9.08047 -0.52529,0.58274 -1.1069,1.10764 -1.11111,1.11111 -0.0109,0.0109 -1.14559,0.97661 -2.87357,1.9157 -0.3295,0.17969 -0.57891,0.32951 -0.8046,0.45975 -0.25289,0.14217 -0.44447,0.26017 -0.61301,0.34485 -0.32608,0.16474 -0.81229,0.51341 -1.11112,0.91953 -0.88124,1.20306 -0.62876,2.91188 0.57471,3.7931 0.46704,0.34139 1.03064,0.49809 1.6092,0.49809 0.85402,0 1.6705,-0.38698 2.1839,-1.0728 0.2184,-0.295 0.38698,-0.64022 0.45978,-0.95783 0.0919,-0.2571 0.11878,-0.44485 0.15324,-0.65137 0.0537,-0.3069 0.10347,-0.64368 0.38316,-1.34099 0.54404,-1.35632 1.55172,-2.50959 1.57085,-2.52873 0.27588,-0.3295 0.74292,-0.63601 1.37931,-0.91955 0.63987,0.28354 1.13411,0.58237 1.41766,0.91955 0.008,0.0109 1.02681,1.16859 1.57089,2.52873 0.27969,0.69691 0.33331,1.03409 0.38312,1.34099 0.0346,0.20652 0.0723,0.38317 0.15324,0.61302 0.0846,0.34447 0.24177,0.69349 0.45977,0.99618 0.51342,0.68199 1.32991,1.0728 2.18392,1.0728 0.57891,0 1.10728,-0.15709 1.57088,-0.49809 C 468.48378,441.31095 468.87681,440.43411 468.84392,439.56525 z m -1.53259,0.2682 c -0.0498,0.31073 -0.21072,0.58275 -0.45975,0.76626 -0.20268,0.14985 -0.44061,0.22989 -0.68966,0.22989 -0.37164,0 -0.73945,-0.16051 -0.95784,-0.45975 -0.18391,-0.25248 -0.24139,-0.57049 -0.19159,-0.88125 0.046,-0.3065 0.2069,-0.58234 0.45979,-0.76625 0.20269,-0.14945 0.44061,-0.22989 0.68964,-0.22989 0.37204,0 0.70117,0.1996 0.91955,0.49805 C 467.26959,439.24378 467.3577,439.5273 467.31133,439.83345 z m -6.39844,-6.89657 c 0,0.5023 -0.41341,0.91957 -0.91957,0.91957 -0.50229,0 -0.88121,-0.41727 -0.88121,-0.91957 3.9e-4,-0.50611 0.3793,-0.91952 0.88121,-0.91952 C 460.4991,432.01736 460.91289,432.43077 460.91289,432.93688 z m -5.9004,6.55172 c 0.0453,0.29558 0,0.6209 -0.19158,0.88125 -0.21801,0.29924 -0.5862,0.45975 -0.95783,0.45975 -0.24907,0 -0.48659,-0.0801 -0.68967,-0.22989 -0.25284,-0.18351 -0.41418,-0.45553 -0.45978,-0.76626 -0.0501,-0.30615 0.0462,-0.58967 0.22989,-0.84294 0.21839,-0.29845 0.54755,-0.49805 0.91956,-0.49805 0.24903,0 0.48659,0.0806 0.68964,0.22989 C 454.81137,438.91198 454.9671,439.19307 455.01249,439.4886 Z"
       id="path5315"
       inkscape:connector-curvature="0"
       sodipodi:nodetypes="cccccccccccccccccccccccscccccccccccsccccscccsccsscssccscccscc" />
  </g>
</svg>
