<?xml version="1.0" encoding="UTF-8" standalone="no"?>
<!-- Created with Inkscape (http://www.inkscape.org/) -->

<svg
   xmlns:dc="http://purl.org/dc/elements/1.1/"
   xmlns:cc="http://creativecommons.org/ns#"
   xmlns:rdf="http://www.w3.org/1999/02/22-rdf-syntax-ns#"
   xmlns:svg="http://www.w3.org/2000/svg"
   xmlns="http://www.w3.org/2000/svg"
   xmlns:xlink="http://www.w3.org/1999/xlink"
   xmlns:sodipodi="http://sodipodi.sourceforge.net/DTD/sodipodi-0.dtd"
   xmlns:inkscape="http://www.inkscape.org/namespaces/inkscape"
   width="48"
   height="48"
   id="svg2"
   version="1.1"
   inkscape:version="0.48+devel r12137"
   sodipodi:docname="google.svg">
  <defs
     id="defs4">
    <linearGradient
       gradientTransform="matrix(0.5720176,0,0,0.5720176,-3.4282887,1000.9079)"
       x1="69.788139"
       y1="35.460526"
       x2="69.788139"
       y2="5.5467491"
       id="linearGradient3950"
       xlink:href="#linearGradient3944"
       gradientUnits="userSpaceOnUse" />
    <linearGradient
       id="linearGradient3944">
      <stop
         id="stop3946"
         style="stop-color:#df1a1a;stop-opacity:1"
         offset="0" />
      <stop
         id="stop3948"
         style="stop-color:#e44848;stop-opacity:1"
         offset="1" />
    </linearGradient>
    <linearGradient
       gradientTransform="matrix(0.5720176,0,0,0.5720176,-3.4282887,1000.9079)"
       x1="18.07872"
       y1="59.01622"
       x2="18.215158"
       y2="6.6697359"
       id="linearGradient3930"
       xlink:href="#linearGradient3924"
       gradientUnits="userSpaceOnUse" />
    <linearGradient
       id="linearGradient3924">
      <stop
         id="stop3926"
         style="stop-color:#005ec0;stop-opacity:1"
         offset="0" />
      <stop
         id="stop3928"
         style="stop-color:#0072ea;stop-opacity:1"
         offset="1" />
    </linearGradient>
    <linearGradient
       gradientTransform="matrix(0.5720176,0,0,0.5720176,-3.4282887,1000.9079)"
       x1="23.362806"
       y1="90.200294"
       x2="27.000059"
       y2="62.572609"
       id="linearGradient3940"
       xlink:href="#linearGradient3934"
       gradientUnits="userSpaceOnUse" />
    <linearGradient
       id="linearGradient3934">
      <stop
         id="stop3936"
         style="stop-color:#e8ac0c;stop-opacity:1"
         offset="0" />
      <stop
         id="stop3938"
         style="stop-color:#e8db0c;stop-opacity:1"
         offset="1" />
    </linearGradient>
    <linearGradient
       id="linearGradient3914-2">
      <stop
         id="stop3916-6"
         style="stop-color:#028537;stop-opacity:1"
         offset="0" />
      <stop
         id="stop3918-0"
         style="stop-color:#03b035;stop-opacity:1"
         offset="1" />
    </linearGradient>
    <linearGradient
       gradientTransform="matrix(0.5720176,0,0,0.5720176,-3.4282887,1000.9079)"
       x1="24.065893"
       y1="5.1119947"
       x2="24.065893"
       y2="90.059601"
       id="linearGradient4040"
       xlink:href="#linearGradient4034"
       gradientUnits="userSpaceOnUse" />
    <linearGradient
       id="linearGradient4034">
      <stop
         id="stop4036"
         style="stop-color:#ffffff;stop-opacity:1"
         offset="0" />
      <stop
         id="stop4038"
         style="stop-color:#f0f0f0;stop-opacity:1"
         offset="1" />
    </linearGradient>
    <linearGradient
       y2="48"
       x2="90"
       y1="48"
       x1="6"
       gradientTransform="matrix(0.5720176,0,0,0.5720176,-1055.8216,-3.4282887)"
       gradientUnits="userSpaceOnUse"
       id="linearGradient918"
       xlink:href="#linearGradient3914-2"
       inkscape:collect="always" />
  </defs>
  <sodipodi:namedview
     id="base"
     pagecolor="#ffffff"
     bordercolor="#666666"
     borderopacity="1.0"
     inkscape:pageopacity="0.0"
     inkscape:pageshadow="2"
     inkscape:zoom="8"
     inkscape:cx="25.543417"
     inkscape:cy="18.738918"
     inkscape:document-units="px"
     inkscape:current-layer="layer1"
     showgrid="false"
     inkscape:window-width="1366"
     inkscape:window-height="714"
     inkscape:window-x="0"
     inkscape:window-y="30"
     inkscape:window-maximized="1"
     showguides="false" />
  <metadata
     id="metadata7">
    <rdf:RDF>
      <cc:Work
         rdf:about="">
        <dc:format>image/svg+xml</dc:format>
        <dc:type
           rdf:resource="http://purl.org/dc/dcmitype/StillImage" />
        <dc:title />
      </cc:Work>
    </rdf:RDF>
  </metadata>
  <g
     inkscape:label="Capa 1"
     inkscape:groupmode="layer"
     id="layer1"
     transform="translate(0,-1004.3622)">
    <g
       id="g948">
      <rect
         style="fill:url(#linearGradient918);fill-opacity:1;fill-rule:nonzero;stroke:none"
         id="rect2419"
         transform="matrix(0,-1,1,0,0,0)"
         y="0.0038072078"
         x="-1052.3894"
         ry="2.0674326"
         rx="1.989319"
         height="48.049477"
         width="48.049477" />
      <path
         style="fill:url(#linearGradient3940);fill-opacity:1"
         id="path3932"
         inkscape:connector-curvature="0"
         d="m 7.4400457,1052.3895 c -3.8135841,-1.0816 -5.3018023,-4.838 -5.199108,-7.6638 0.2706959,-7.449 8.6755963,-8.0883 15.1735163,-8.5145 3.149432,2.4641 8.193477,4.5831 7.974297,9.7794 -0.140773,3.3376 -0.718643,4.2912 -3.076248,6.3989 -0.168625,0.065 -3.047973,0.01 -6.864211,0 C 10.031549,1052.3795 8.5840809,1052.3895 7.4400457,1052.3895 Z" />
      <path
         sodipodi:nodetypes="cscscscc"
         style="fill:url(#linearGradient3950);fill-opacity:1;fill-rule:nonzero;stroke:none"
         id="path3942"
         inkscape:connector-curvature="0"
         d="m 23.903427,1004.34 c 1.721894,2.2015 3.378216,4.3837 3.825368,6.9357 0.728081,4.1554 -0.534991,7.6601 -2.895839,10.4036 3.895932,-3.8438 7.789072,-4.1232 11.976618,-3.9505 5.998457,0.2474 8.754575,2.6431 11.243721,4.9158 l 0,-16.1575 C 48.053295,1004.5857 46.28952,1004.34 46.28952,1004.34 Z" />
      <path
         style="fill:url(#linearGradient3930);fill-opacity:1"
         id="path3922"
         inkscape:connector-curvature="0"
         d="m 12.355822,1004.34 c -2.228031,4e-4 -2.3727405,0.026 -3.3248523,0.572 -1.4266863,0.8186 -2.4382765,1.9545 -2.8422125,3.5751 -0.8860838,3.5549 -0.1281891,7.7164 1.3942929,10.5466 1.9687988,3.66 4.9598789,6.0573 8.4193839,5.3269 2.114297,-0.4464 3.920672,-1.7127 4.719145,-3.2891 1.609772,-3.1779 0.762997,-9.1544 -1.948435,-13.2279 C 16.720219,1004.7594 15.540953,1004.3394 12.355822,1004.34 z m -12.33979823,15.2431 -0.06932281,18.5216 c 4.48700334,-2.3369 9.39396474,-3.5753 14.99536104,-3.9442 -1.28216,-1.9148 -2.321047,-3.9452 -1.477956,-7.6369 C 7.0239716,1026.726 3.1427578,1025.1112 0.01602377,1019.5831 Z" />
      <path
         sodipodi:nodetypes="cccccccsscscsccccssscsccccsccccccc"
         style="fill:url(#linearGradient4040);fill-opacity:1;fill-rule:nonzero;stroke:none"
         id="rect3064-7"
         inkscape:connector-curvature="0"
         d="m 18.30838,1004.3042 c -6.696381,0.011 -16.4570546,0.035 -16.4570546,0.035 0,0 -1.84750848,0.187 -1.84750848,2.0884 l 0.01790415,13.1595 c 3.12673403,5.5281 7.00227913,7.1381 13.44241393,6.9357 -0.843091,3.6918 0.20151,5.7181 1.48367,7.6328 -5.5806491,0.3676 -10.4705359,1.6125 -14.94398808,3.9327 l 0,12.1495 c 0,0.5739 0.28071908,2.1509 2.18210558,2.1509 l 5.2541232,0 c -3.8135841,-1.0816 -5.3044794,-4.8427 -5.201785,-7.6686 0.2706959,-7.4489 8.6784223,-8.0826 15.1763423,-8.5087 3.149431,2.464 8.191675,4.5815 7.972495,9.7779 -0.140773,3.3375 -0.71699,4.2918 -3.074595,6.3994 l 2.288071,0 1.716053,0 c 1.344504,-1.6283 2.849219,-3.6333 3.646612,-5.8095 0.581839,-1.7242 0.710738,-4.1866 0.303884,-5.9169 -0.667275,-2.8378 -2.445781,-5.1174 -6.649705,-8.5087 -3.369435,-2.7181 -3.743369,-3.243 -3.521483,-4.8979 0.149371,-1.1141 0.932457,-2.1193 2.93159,-3.8075 3.465049,-2.9426 5.59737,-7.059 4.70127,-12.1733 -0.447152,-2.552 -2.103474,-4.7342 -3.825368,-6.9357 L 18.30838,1004.34 z m -5.952558,0.035 c 3.185131,0 4.364397,0.4194 6.417322,3.5036 2.711432,4.0735 3.558207,10.05 1.948435,13.2279 -0.798473,1.5764 -2.604848,2.8427 -4.719145,3.2891 -3.459505,0.7305 -6.4505851,-1.6669 -8.4193839,-5.3269 -1.522482,-2.8302 -2.2803767,-6.9916 -1.3942929,-10.5466 0.403936,-1.6205 1.4155262,-2.7565 2.8422125,-3.5751 C 9.9830815,1004.3657 10.127791,1004.3404 12.355822,1004.34 Z" />
    </g>
    <path
       inkscape:connector-curvature="0"
       style="fill:#000000;fill-opacity:1;stroke:none"
       d="m 0,1049.3622 0,1.0625 c 0,1.0773 0.860223,1.9375 1.9375,1.9375 l 44.125,0 c 1.077277,0 1.9375,-0.8602 1.9375,-1.9375 l 0,-1.0625 c 0,1.0773 -0.860223,1.9375 -1.9375,1.9375 l -44.125,0 C 0.860223,1051.2997 0,1050.4395 0,1049.3622 Z"
       id="rect846" />
    <path
       inkscape:connector-curvature="0"
       style="fill:#ffffff;fill-opacity:0.5372549;stroke:none"
       d="m 2.53125,1005.0185 c -0.917088,0 -1.671147,0.6395 -1.84375,1.5 0.335612,-0.2799 0.774512,-0.4375 1.25,-0.4375 l 44.125,0 c 0.475488,0 0.914388,0.1576 1.25,0.4375 -0.172603,-0.8605 -0.926662,-1.5 -1.84375,-1.5 L 2.53125,1005.0185 Z"
       id="path7515" />
    <path
       inkscape:connector-curvature="0"
       style="fill:#000000;fill-opacity:0.39215686;stroke:none"
       d="m 1.9375,1004.3622 c -1.077277,0 -1.9375,0.8602 -1.9375,1.9375 l 0,43.0625 c 0,0.7934 0.4800236,1.449 1.15625,1.75 -0.309342,-0.3333 -0.5,-0.7824 -0.5,-1.2812 l 0,-42.9375 c 0,-1.0482 0.826899,-1.875 1.875,-1.875 l 42.9375,0 c 1.048101,0 1.875,0.8268 1.875,1.875 l 0,42.9375 c 0,0.4988 -0.190658,0.9479 -0.5,1.2812 0.676226,-0.301 1.15625,-0.9566 1.15625,-1.75 l 0,-43.0625 c 0,-1.0773 -0.860223,-1.9375 -1.9375,-1.9375 L 1.9375,1004.3622 Z"
       id="rect4280" />
  </g>
</svg>
