<?xml version="1.0" encoding="UTF-8" standalone="no"?>
<!-- Created with Inkscape (http://www.inkscape.org/) -->

<svg
   xmlns:dc="http://purl.org/dc/elements/1.1/"
   xmlns:cc="http://creativecommons.org/ns#"
   xmlns:rdf="http://www.w3.org/1999/02/22-rdf-syntax-ns#"
   xmlns:svg="http://www.w3.org/2000/svg"
   xmlns="http://www.w3.org/2000/svg"
   xmlns:xlink="http://www.w3.org/1999/xlink"
   xmlns:sodipodi="http://sodipodi.sourceforge.net/DTD/sodipodi-0.dtd"
   xmlns:inkscape="http://www.inkscape.org/namespaces/inkscape"
   width="48"
   height="48"
   id="svg3048"
   version="1.1"
   inkscape:version="0.48+devel r12149"
   sodipodi:docname="mail-mark-read.svg">
  <defs
     id="defs3050">
    <linearGradient
       y2="456.34464"
       x2="314.34872"
       y1="429.50378"
       x1="314.34872"
       gradientTransform="matrix(1.0005439,0,0,1.0005439,-291.08947,580.33926)"
       gradientUnits="userSpaceOnUse"
       id="linearGradient1882"
       xlink:href="#linearGradient1069"
       inkscape:collect="always" />
    <linearGradient
       id="linearGradient1069">
      <stop
         style="stop-color:#ffffff;stop-opacity:1"
         offset="0"
         id="stop1071" />
      <stop
         style="stop-color:#e6e6e6;stop-opacity:1"
         offset="1"
         id="stop1073" />
    </linearGradient>
    <linearGradient
       inkscape:collect="always"
       xlink:href="#linearGradient1069"
       id="linearGradient1090"
       gradientUnits="userSpaceOnUse"
       gradientTransform="matrix(1.0005439,0,0,-1.0005439,-291.08947,1476.3872)"
       x1="314.91562"
       y1="445.10623"
       x2="314.91562"
       y2="426.38174" />
    <linearGradient
       inkscape:collect="always"
       xlink:href="#linearGradient1069"
       id="linearGradient1018"
       gradientUnits="userSpaceOnUse"
       gradientTransform="matrix(1.0005439,0,0,1.0005439,-291.08947,580.33926)"
       x1="314.34872"
       y1="425.61682"
       x2="314.34872"
       y2="452.11774" />
  </defs>
  <sodipodi:namedview
     id="base"
     pagecolor="#ffffff"
     bordercolor="#666666"
     borderopacity="1.0"
     inkscape:pageopacity="0.0"
     inkscape:pageshadow="2"
     inkscape:zoom="9.0863092"
     inkscape:cx="29.224723"
     inkscape:cy="20.241255"
     inkscape:document-units="px"
     inkscape:current-layer="layer1"
     showgrid="false"
     inkscape:window-width="1366"
     inkscape:window-height="716"
     inkscape:window-x="0"
     inkscape:window-y="28"
     inkscape:window-maximized="1">
    <inkscape:grid
       type="xygrid"
       id="grid34" />
  </sodipodi:namedview>
  <metadata
     id="metadata3053">
    <rdf:RDF>
      <cc:Work
         rdf:about="">
        <dc:format>image/svg+xml</dc:format>
        <dc:type
           rdf:resource="http://purl.org/dc/dcmitype/StillImage" />
        <dc:title />
      </cc:Work>
    </rdf:RDF>
  </metadata>
  <g
     inkscape:label="Capa 1"
     inkscape:groupmode="layer"
     id="layer1"
     transform="translate(0,-1004.3622)">
    <g
       id="g828"
       transform="matrix(1,0,0,0.99575672,0,4.363579)">
      <path
         style="fill:url(#linearGradient1882);fill-opacity:1;stroke:none"
         d="m 4.19199,1006.829 39.616,0 c 0.87463,0 1.57877,0.7781 1.57877,1.7446 l 0,39.5772 c 0,0.9665 -0.70414,1.7446 -1.57877,1.7446 l -39.616,0 c -0.87463,0 -1.57876,-0.7781 -1.57876,-1.7446 l 0,-39.5772 C 2.61323,1007.6071 3.31737,1006.829 4.19199,1006.829 Z"
         id="path869"
         inkscape:connector-curvature="0" />
      <path
         id="path1016"
         d="m 4.1875,1006.831 c -0.87462,0 -1.5625,0.7834 -1.5625,1.75 l 0,11.0625 21.375,12.3437 21.375,-12.3437 0,-11.0625 c 0,-0.9666 -0.68787,-1.75 -1.5625,-1.75 L 4.1875,1006.831 Z"
         style="fill:url(#linearGradient1018);fill-opacity:1;stroke:none"
         inkscape:connector-curvature="0" />
      <path
         inkscape:connector-curvature="0"
         id="rect3922"
         d="m 3.78125,1006.2685 c -0.89741,0 -1.625,0.7895 -1.625,1.7812 l 0,40.625 c 0,0.9917 0.72759,1.7813 1.625,1.7813 l 40.4375,0 c 0.89742,0 1.625,-0.7896 1.625,-1.7813 l 0,-40.625 c 0,-0.9917 -0.72758,-1.7812 -1.625,-1.7812 L 3.78125,1006.2685 z m 0.40625,0.5625 39.625,0 c 0.87905,0 1.5625,0.7834 1.5625,1.75 l 0,39.5625 c 0,0.9665 -0.68345,1.75 -1.5625,1.75 l -39.625,0 c -0.87904,0 -1.5625,-0.7835 -1.5625,-1.75 l 0,-39.5625 C 2.625,1007.6144 3.30846,1006.831 4.1875,1006.831 Z"
         style="opacity:0.84100001;fill:#000000;fill-opacity:1;stroke:none" />
      <rect
         y="1009.6063"
         x="3.7687426"
         height="36.177086"
         width="40.065952"
         id="rect834"
         style="fill:#959595;fill-opacity:1;fill-rule:nonzero;stroke:none" />
      <rect
         style="fill:#ffffff;fill-opacity:1;fill-rule:nonzero;stroke:none"
         id="rect948"
         width="38.110695"
         height="34.547707"
         x="4.7463703"
         y="1011.2357" />
      <path
         style="fill:#000000;fill-opacity:0.53617021;stroke:none"
         d="m 2.625,1037.083 0,-0.625 21.375,-12.3438 21.375,12.3438 0,0.625 L 24,1024.7392 2.625,1037.083 Z"
         id="path1084"
         inkscape:connector-curvature="0" />
      <g
         style="fill:#000000;fill-opacity:0.5372549"
         id="g862">
        <rect
           style="color:#000000;fill:#000000;fill-opacity:0.5372549;fill-rule:nonzero;stroke:none;stroke-width:1.39999998;marker:none;visibility:visible;display:inline;overflow:visible;enable-background:accumulate"
           id="rect950"
           width="8.9615889"
           height="8.9615889"
           x="9.7762785"
           y="10.035452"
           transform="translate(0,1004.3622)" />
        <rect
           y="1014.3976"
           x="21.182035"
           height="1.792318"
           width="17.434364"
           id="rect952"
           style="color:#000000;fill:#000000;fill-opacity:0.5372549;fill-rule:nonzero;stroke:none;stroke-width:1.39999998;marker:none;visibility:visible;display:inline;overflow:visible;enable-background:accumulate" />
        <rect
           style="color:#000000;fill:#000000;fill-opacity:0.5372549;fill-rule:nonzero;stroke:none;stroke-width:1.39999998;marker:none;visibility:visible;display:inline;overflow:visible;enable-background:accumulate"
           id="rect954"
           width="17.434364"
           height="1.792318"
           x="21.182035"
           y="1022.463" />
        <rect
           y="1018.4303"
           x="21.182035"
           height="1.792318"
           width="17.434364"
           id="rect956"
           style="color:#000000;fill:#000000;fill-opacity:0.5372549;fill-rule:nonzero;stroke:none;stroke-width:1.39999998;marker:none;visibility:visible;display:inline;overflow:visible;enable-background:accumulate" />
        <rect
           y="1026.4957"
           x="21.182035"
           height="1.792318"
           width="17.434364"
           id="rect958"
           style="color:#000000;fill:#000000;fill-opacity:0.5372549;fill-rule:nonzero;stroke:none;stroke-width:1.39999998;marker:none;visibility:visible;display:inline;overflow:visible;enable-background:accumulate" />
        <rect
           style="color:#000000;fill:#000000;fill-opacity:0.5372549;fill-rule:nonzero;stroke:none;stroke-width:1.39999998;marker:none;visibility:visible;display:inline;overflow:visible;enable-background:accumulate"
           id="rect960"
           width="17.434364"
           height="1.792318"
           x="21.182035"
           y="1030.5284" />
      </g>
      <path
         style="fill:url(#linearGradient1090);fill-opacity:1;stroke:none"
         d="m 4.1875,1049.8955 c -0.87462,0 -1.5625,-0.7835 -1.5625,-1.75 l 0,-11.0625 21.375,-12.3438 21.375,12.3438 0,11.0625 c 0,0.9665 -0.68787,1.75 -1.5625,1.75 L 4.1875,1049.8955 Z"
         id="path1086"
         inkscape:connector-curvature="0" />
    </g>
  </g>
</svg>
