<?xml version="1.0" encoding="UTF-8" standalone="no"?>
<!-- Created with Inkscape (http://www.inkscape.org/) -->

<svg
   xmlns:dc="http://purl.org/dc/elements/1.1/"
   xmlns:cc="http://creativecommons.org/ns#"
   xmlns:rdf="http://www.w3.org/1999/02/22-rdf-syntax-ns#"
   xmlns:svg="http://www.w3.org/2000/svg"
   xmlns="http://www.w3.org/2000/svg"
   xmlns:xlink="http://www.w3.org/1999/xlink"
   xmlns:sodipodi="http://sodipodi.sourceforge.net/DTD/sodipodi-0.dtd"
   xmlns:inkscape="http://www.inkscape.org/namespaces/inkscape"
   width="48"
   height="48"
   id="svg973"
   version="1.1"
   inkscape:version="0.48+devel r12149"
   sodipodi:docname="mail-encrytped-part.svg">
  <defs
     id="defs975">
    <linearGradient
       id="linearGradient879">
      <stop
         id="stop881"
         offset="0"
         style="stop-color:#ff6600;stop-opacity:1" />
      <stop
         id="stop883"
         offset="1"
         style="stop-color:#ffb380;stop-opacity:1" />
    </linearGradient>
    <linearGradient
       id="linearGradient872">
      <stop
         id="stop874"
         offset="0"
         style="stop-color:#ffccaa;stop-opacity:1" />
      <stop
         id="stop877"
         offset="1"
         style="stop-color:#ff6600;stop-opacity:1" />
    </linearGradient>
    <linearGradient
       inkscape:collect="always"
       xlink:href="#linearGradient850"
       id="linearGradient848"
       x1="23.880714"
       y1="35.992313"
       x2="23.880714"
       y2="-2.5197544"
       gradientUnits="userSpaceOnUse"
       gradientTransform="translate(0,4.9245)" />
    <linearGradient
       id="linearGradient850"
       inkscape:collect="always">
      <stop
         id="stop852"
         offset="0"
         style="stop-color:#999999;stop-opacity:1" />
      <stop
         id="stop854"
         offset="1"
         style="stop-color:#f2f2f2;stop-opacity:1" />
    </linearGradient>
    <linearGradient
       inkscape:collect="always"
       xlink:href="#linearGradient823"
       id="linearGradient829"
       x1="42.678944"
       y1="1045.9225"
       x2="3.7880721"
       y2="1019.0272"
       gradientUnits="userSpaceOnUse"
       gradientTransform="matrix(0.97101449,0,0,0.90322581,0.6956522,106.04418)" />
    <linearGradient
       inkscape:collect="always"
       id="linearGradient823">
      <stop
         style="stop-color:#ffae00;stop-opacity:1"
         offset="0"
         id="stop825" />
      <stop
         style="stop-color:#ffecaa;stop-opacity:1"
         offset="1"
         id="stop827" />
    </linearGradient>
    <linearGradient
       inkscape:collect="always"
       xlink:href="#linearGradient874"
       id="linearGradient880"
       x1="25.357143"
       y1="40.142857"
       x2="25.357143"
       y2="27.821428"
       gradientUnits="userSpaceOnUse" />
    <linearGradient
       inkscape:collect="always"
       id="linearGradient874">
      <stop
         style="stop-color:#333333;stop-opacity:1;"
         offset="0"
         id="stop876" />
      <stop
         style="stop-color:#5b5b5b;stop-opacity:1"
         offset="1"
         id="stop878" />
    </linearGradient>
    <linearGradient
       y2="456.34464"
       x2="314.34872"
       y1="429.50378"
       x1="314.34872"
       gradientTransform="matrix(1.0005439,0,0,1.0005439,416.3391,238.62495)"
       gradientUnits="userSpaceOnUse"
       id="linearGradient1882"
       xlink:href="#linearGradient1069"
       inkscape:collect="always" />
    <linearGradient
       id="linearGradient1069">
      <stop
         style="stop-color:#d45500;stop-opacity:1"
         offset="0"
         id="stop1071" />
      <stop
         style="stop-color:#ffb380;stop-opacity:1"
         offset="1"
         id="stop1073" />
    </linearGradient>
    <linearGradient
       inkscape:collect="always"
       xlink:href="#linearGradient872"
       id="linearGradient1090"
       gradientUnits="userSpaceOnUse"
       gradientTransform="matrix(1.0005439,0,0,-1.0005439,416.3391,1134.6729)"
       x1="314.91562"
       y1="447.20764"
       x2="314.91562"
       y2="426.38174" />
    <linearGradient
       inkscape:collect="always"
       xlink:href="#linearGradient879"
       id="linearGradient1018"
       gradientUnits="userSpaceOnUse"
       gradientTransform="matrix(1.0005439,0,0,1.0005439,416.3391,238.62495)"
       x1="314.34872"
       y1="425.61682"
       x2="314.34872"
       y2="446.09576" />
  </defs>
  <sodipodi:namedview
     id="base"
     pagecolor="#ffffff"
     bordercolor="#666666"
     borderopacity="1.0"
     inkscape:pageopacity="0.0"
     inkscape:pageshadow="2"
     inkscape:zoom="7.0414516"
     inkscape:cx="16.839368"
     inkscape:cy="19.86017"
     inkscape:document-units="px"
     inkscape:current-layer="layer1"
     showgrid="false"
     fit-margin-top="0"
     fit-margin-left="0"
     fit-margin-right="0"
     fit-margin-bottom="0"
     inkscape:window-width="1366"
     inkscape:window-height="716"
     inkscape:window-x="0"
     inkscape:window-y="28"
     inkscape:window-maximized="1" />
  <metadata
     id="metadata978">
    <rdf:RDF>
      <cc:Work
         rdf:about="">
        <dc:format>image/svg+xml</dc:format>
        <dc:type
           rdf:resource="http://purl.org/dc/dcmitype/StillImage" />
        <dc:title />
      </cc:Work>
    </rdf:RDF>
  </metadata>
  <g
     inkscape:label="Capa 1"
     inkscape:groupmode="layer"
     id="layer1"
     transform="translate(-413.14286,-488.36218)">
    <g
       id="g850"
       transform="translate(0.09268592,-0.09375096)">
      <g
         id="g1103"
         transform="matrix(0.99575672,0,0,0.99575672,-291.27474,-171.27832)">
        <path
           inkscape:connector-curvature="0"
           id="path869-8"
           d="m 711.62056,665.11464 39.616,0 c 0.87463,0 1.57877,0.77813 1.57877,1.74469 l 0,39.57711 c 0,0.96657 -0.70414,1.74469 -1.57877,1.74469 l -39.616,0 c -0.87463,0 -1.57876,-0.77812 -1.57876,-1.74469 l 0,-39.57711 C 710.0418,665.89277 710.74594,665.11464 711.62056,665.11464 Z"
           style="fill:url(#linearGradient1882);fill-opacity:1;stroke:none" />
        <path
           inkscape:connector-curvature="0"
           id="path1084"
           d="m 710.05357,695.36866 0,-0.625 21.375,-12.34375 21.375,12.34375 0,0.625 -21.375,-12.34375 L 710.05357,695.36866 Z"
           style="fill:#000000;fill-opacity:0.53617021;stroke:none" />
        <path
           inkscape:connector-curvature="0"
           id="path1086"
           d="m 711.61607,708.18116 c -0.87462,0 -1.5625,-0.78344 -1.5625,-1.75 l 0,-11.0625 21.375,-12.34375 21.375,12.34375 0,11.0625 c 0,0.96656 -0.68787,1.75 -1.5625,1.75 L 711.61607,708.18116 Z"
           style="fill:url(#linearGradient1090);fill-opacity:1;stroke:none" />
        <path
           style="fill:#000000;fill-opacity:0.59574465;stroke:none"
           d="m 2.625,15.28125 0,0.5 0,0.125 0,0.5 L 24,28.75 45.375,16.40625 l 0,-0.5 0,-0.125 0,-0.5 L 24,27.625 2.625,15.28125 Z"
           transform="translate(707.42857,662.64789)"
           id="path1023"
           inkscape:connector-curvature="0" />
        <path
           inkscape:connector-curvature="0"
           style="fill:url(#linearGradient1018);fill-opacity:1;stroke:none"
           d="m 711.61607,665.11664 c -0.87462,0 -1.5625,0.78344 -1.5625,1.75 l 0,11.0625 21.375,12.34375 21.375,-12.34375 0,-11.0625 c 0,-0.96656 -0.68787,-1.75 -1.5625,-1.75 L 711.61607,665.11664 Z"
           id="path1016" />
        <path
           style="opacity:0.84100001;fill:#000000;fill-opacity:1;stroke:none"
           d="m 3.78125,1.90625 c -0.89741,0 -1.625,0.78953 -1.625,1.78125 l 0,40.625 c 0,0.99173 0.72759,1.78125 1.625,1.78125 l 40.4375,0 c 0.89742,0 1.625,-0.78951 1.625,-1.78125 l 0,-40.625 c 0,-0.99172 -0.72758,-1.78125 -1.625,-1.78125 L 3.78125,1.90625 z m 0.40625,0.5625 39.625,0 c 0.87905,0 1.5625,0.78344 1.5625,1.75 l 0,39.5625 c 0,0.96658 -0.68345,1.75 -1.5625,1.75 l -39.625,0 c -0.87904,0 -1.5625,-0.78343 -1.5625,-1.75 l 0,-39.5625 C 2.625,3.25219 3.30846,2.46875 4.1875,2.46875 Z"
           transform="translate(707.42857,662.64789)"
           id="rect3922"
           inkscape:connector-curvature="0" />
      </g>
      <g
         transform="matrix(0.49787836,0,0,0.49787836,438.33878,11.624253)"
         inkscape:label="Capa 1"
         id="layer1-4">
        <g
           id="layer1-8"
           inkscape:label="Capa 1">
          <g
             transform="translate(-0.17925191,-0.31960667)"
             id="g882">
            <path
               id="path865"
               d="m 21.850095,1006.9247 c -5.741474,0 -10.34375,4.6335 -10.34375,10.375 l 0,17.0938 c 0,5.7415 4.602276,10.375 10.34375,10.375 l 5.5625,0 c 5.741474,0 10.34375,-4.6335 10.34375,-10.375 l 0,-17.0938 c 0,-5.7415 -4.602276,-10.375 -10.34375,-10.375 L 21.850095,1006.9247 z m 0.8125,4.5625 3.9375,0 c 4.057419,0 7.3125,3.2549 7.3125,7.3125 l 0,14.0625 c 0,4.0576 -3.255081,7.3125 -7.3125,7.3125 l -3.9375,0 c -4.057419,0 -7.3125,-3.2549 -7.3125,-7.3125 l 0,-14.0625 C 15.350095,1014.7421 18.605176,1011.4872 22.662595,1011.4872 Z"
               style="fill:#000000;fill-opacity:0.46666667;stroke:none"
               inkscape:connector-curvature="0" />
            <rect
               ry="0"
               y="1029.2257"
               x="7.4384475"
               height="21.213205"
               width="33.840111"
               id="rect861"
               style="fill:#000000;fill-opacity:0.55555558;stroke:none" />
            <path
               inkscape:connector-curvature="0"
               style="fill:url(#linearGradient848);fill-opacity:1;stroke:none"
               d="M 21.21875,2.5625 C 15.477276,2.5625 10.875,7.196 10.875,12.9375 l 0,17.09375 c 0,5.7415 4.602276,10.375 10.34375,10.375 l 5.5625,0 c 5.741474,0 10.34375,-4.6335 10.34375,-10.375 l 0,-17.09375 C 37.125,7.196 32.522724,2.5625 26.78125,2.5625 L 21.21875,2.5625 z m 0.8125,4.5625 3.9375,0 c 4.057419,0 7.3125,3.2549 7.3125,7.3125 l 0,14.0625 c 0,4.0576 -3.255081,7.3125 -7.3125,7.3125 l -3.9375,0 c -4.057419,0 -7.3125,-3.2549 -7.3125,-7.3125 l 0,-14.0625 C 14.71875,10.3799 17.973831,7.125 22.03125,7.125 Z"
               transform="translate(0,1004.3622)"
               id="rect831" />
            <rect
               style="fill:url(#linearGradient829);fill-opacity:1;stroke:none"
               id="rect821"
               width="33.840111"
               height="21.213205"
               x="7.0799456"
               y="1028.6146"
               ry="0" />
            <path
               inkscape:connector-curvature="0"
               style="fill:url(#linearGradient880);fill-opacity:1;stroke:none"
               d="m 24,29.0625 c -1.98749,0 -3.59375,1.60626 -3.59375,3.59375 0,1.36128 0.760103,2.544819 1.875,3.15625 l 0,3.4375 3.4375,0 0,-3.4375 c 1.114897,-0.611431 1.875,-1.79497 1.875,-3.15625 C 27.59375,30.66876 25.98749,29.0625 24,29.0625 Z"
               transform="translate(0,1004.3622)"
               id="path869" />
          </g>
        </g>
      </g>
    </g>
  </g>
</svg>
