<?xml version="1.0" encoding="UTF-8" standalone="no"?>
<!-- Created with Inkscape (http://www.inkscape.org/) -->

<svg
   xmlns:dc="http://purl.org/dc/elements/1.1/"
   xmlns:cc="http://creativecommons.org/ns#"
   xmlns:rdf="http://www.w3.org/1999/02/22-rdf-syntax-ns#"
   xmlns:svg="http://www.w3.org/2000/svg"
   xmlns="http://www.w3.org/2000/svg"
   xmlns:sodipodi="http://sodipodi.sourceforge.net/DTD/sodipodi-0.dtd"
   xmlns:inkscape="http://www.inkscape.org/namespaces/inkscape"
   version="1.1"
   width="16"
   height="16"
   id="svg7384"
   inkscape:version="0.48.3.1 r9886"
   sodipodi:docname="media-eq-symbolic.svg">
  <sodipodi:namedview
     pagecolor="#ffffff"
     bordercolor="#666666"
     borderopacity="1"
     objecttolerance="10"
     gridtolerance="10"
     guidetolerance="10"
     inkscape:pageopacity="0"
     inkscape:pageshadow="2"
     inkscape:window-width="1366"
     inkscape:window-height="716"
     id="namedview7"
     showgrid="false"
     inkscape:zoom="14.75"
     inkscape:cx="18.745763"
     inkscape:cy="8"
     inkscape:window-x="0"
     inkscape:window-y="28"
     inkscape:window-maximized="1"
     inkscape:current-layer="svg7384" />
  <title
     id="title9167">Gnome Symbolic Icon Theme</title>
  <defs
     id="defs11" />
  <metadata
     id="metadata90">
    <rdf:RDF>
      <cc:Work
         rdf:about="">
        <dc:format>image/svg+xml</dc:format>
        <dc:type
           rdf:resource="http://purl.org/dc/dcmitype/StillImage" />
        <dc:title>Gnome Symbolic Icon Theme</dc:title>
      </cc:Work>
    </rdf:RDF>
  </metadata>
  <g
     transform="matrix(0,-0.16661576,0.16661576,0,-82.567079,88.046043)"
     id="_x32__action_settings"
     style="fill:#bebebe;fill-opacity:1">
    <path
       style="fill:#bebebe;fill-opacity:1"
       inkscape:connector-curvature="0"
       d="m 464.538,530.565 c -2.811,0 -5.121,2.3 -5.121,5.121 v 15.765 c 0,2.82 2.311,5.121 5.121,5.121 h 1.76 c 2.811,0 5.122,-2.301 5.122,-5.121 v -15.765 c 0,-2.821 -2.312,-5.121 -5.122,-5.121 h -1.76 z m 30.009,24.007 c -2.811,0 -5.121,2.299 -5.121,5.121 v 15.764 c 0,2.822 2.311,5.121 5.121,5.121 h 1.761 c 2.81,0 5.122,-2.299 5.122,-5.121 v -15.764 c 0,-2.822 -2.313,-5.121 -5.122,-5.121 h -1.761 z m 0,-48.013 c -2.811,0 -5.121,2.301 -5.121,5.121 v 15.765 c 0,2.821 2.311,5.122 5.121,5.122 h 1.761 c 2.821,0 5.122,-2.301 5.122,-5.122 V 511.68 c 0,-2.82 -2.301,-5.121 -5.122,-5.121 h -1.761 z m -8.122,11.003 h -42.013 v 4.001 h 42.013 v -4.001 z m 30.009,4.001 v -4.001 H 504.43 v 4.001 h 12.004 z m -60.019,20.005 h -12.003 v 4 h 12.003 v -4 z m 60.019,4 v -4 h -42.013 v 4 h 42.013 z m -30.009,20.006 h -42.013 v 4.002 h 42.013 v -4.002 z m 30.009,4.002 v -4.002 H 504.43 v 4.002 h 12.004 z"
       id="path1128" />
  </g>
</svg>
