<?xml version="1.0" encoding="UTF-8" standalone="no"?>
<!-- Created with Inkscape (http://www.inkscape.org/) -->

<svg
   xmlns:dc="http://purl.org/dc/elements/1.1/"
   xmlns:cc="http://creativecommons.org/ns#"
   xmlns:rdf="http://www.w3.org/1999/02/22-rdf-syntax-ns#"
   xmlns:svg="http://www.w3.org/2000/svg"
   xmlns="http://www.w3.org/2000/svg"
   xmlns:sodipodi="http://sodipodi.sourceforge.net/DTD/sodipodi-0.dtd"
   xmlns:inkscape="http://www.inkscape.org/namespaces/inkscape"
   width="48"
   height="48"
   id="svg2"
   version="1.1"
   inkscape:version="0.48+devel r12149"
   sodipodi:docname="media-playlist-repeat.svg">
  <defs
     id="defs4" />
  <sodipodi:namedview
     id="base"
     pagecolor="#ffffff"
     bordercolor="#666666"
     borderopacity="1.0"
     inkscape:pageopacity="0.0"
     inkscape:pageshadow="2"
     inkscape:zoom="5.8625"
     inkscape:cx="20.402184"
     inkscape:cy="23.637266"
     inkscape:document-units="px"
     inkscape:current-layer="layer1"
     showgrid="false"
     inkscape:window-width="1366"
     inkscape:window-height="716"
     inkscape:window-x="0"
     inkscape:window-y="28"
     inkscape:window-maximized="1" />
  <metadata
     id="metadata7">
    <rdf:RDF>
      <cc:Work
         rdf:about="">
        <dc:format>image/svg+xml</dc:format>
        <dc:type
           rdf:resource="http://purl.org/dc/dcmitype/StillImage" />
        <dc:title />
      </cc:Work>
    </rdf:RDF>
  </metadata>
  <g
     inkscape:label="Capa 1"
     inkscape:groupmode="layer"
     id="layer1"
     transform="translate(0,-1004.3622)">
    <g
       transform="matrix(0.31620553,0,0,0.31620553,-67.154782,400.76031)"
       id="_x39__av_repeat"
       style="fill:#1a1a1a">
      <g
         id="g640"
         style="fill:#1a1a1a">
        <path
           style="fill:#1a1a1a"
           inkscape:connector-curvature="0"
           d="m 317.468,1983.436 c 0.064,0.508 0.107,1.023 0.107,1.553 0,7.301 -5.942,13.242 -13.244,13.242 l -35.766,0 0,-11.965 -18.654,15.078 18.654,15.072 0,-11.176 35.766,0 c 11.17,0 20.255,-9.082 20.255,-20.252 0,-2.256 -0.381,-4.479 -1.129,-6.625 L 317.468,1983.436 Z"
           id="path642" />
        <path
           style="fill:#1a1a1a"
           inkscape:connector-curvature="0"
           d="m 259.082,1986.15 c -0.064,-0.508 -0.102,-1.027 -0.102,-1.555 0,-7.301 5.942,-13.244 13.243,-13.244 l 35.767,0 0,11.965 18.653,-15.074 -18.653,-15.076 0,11.176 -35.767,0 c -11.169,0 -20.256,9.086 -20.256,20.254 0,2.254 0.377,4.477 1.129,6.625 L 259.082,1986.15 Z"
           id="path644" />
      </g>
    </g>
  </g>
</svg>
