<?xml version="1.0" encoding="UTF-8" standalone="no"?>
<!-- Created with Inkscape (http://www.inkscape.org/) -->

<svg
   xmlns:dc="http://purl.org/dc/elements/1.1/"
   xmlns:cc="http://creativecommons.org/ns#"
   xmlns:rdf="http://www.w3.org/1999/02/22-rdf-syntax-ns#"
   xmlns:svg="http://www.w3.org/2000/svg"
   xmlns="http://www.w3.org/2000/svg"
   xmlns:sodipodi="http://sodipodi.sourceforge.net/DTD/sodipodi-0.dtd"
   xmlns:inkscape="http://www.inkscape.org/namespaces/inkscape"
   version="1.1"
   width="16"
   height="16"
   id="svg7384"
   inkscape:version="0.48.3.1 r9886"
   sodipodi:docname="media-playlist-repeat-symbolic.svg">
  <sodipodi:namedview
     pagecolor="#ffffff"
     bordercolor="#666666"
     borderopacity="1"
     objecttolerance="10"
     gridtolerance="10"
     guidetolerance="10"
     inkscape:pageopacity="0"
     inkscape:pageshadow="2"
     inkscape:window-width="1366"
     inkscape:window-height="716"
     id="namedview7"
     showgrid="false"
     inkscape:zoom="14.75"
     inkscape:cx="-11.084746"
     inkscape:cy="8"
     inkscape:window-x="0"
     inkscape:window-y="28"
     inkscape:window-maximized="1"
     inkscape:current-layer="svg7384" />
  <title
     id="title9167">Gnome Symbolic Icon Theme</title>
  <defs
     id="defs11" />
  <metadata
     id="metadata90">
    <rdf:RDF>
      <cc:Work
         rdf:about="">
        <dc:format>image/svg+xml</dc:format>
        <dc:type
           rdf:resource="http://purl.org/dc/dcmitype/StillImage" />
        <dc:title>Gnome Symbolic Icon Theme</dc:title>
      </cc:Work>
    </rdf:RDF>
  </metadata>
  <g
     transform="matrix(0.18972332,0,0,0.18972332,-46.69287,-368.56114)"
     id="_x39__av_repeat"
     style="fill:#bebebe;fill-opacity:1">
    <g
       id="g640"
       style="fill:#bebebe;fill-opacity:1">
      <path
         style="fill:#bebebe;fill-opacity:1"
         inkscape:connector-curvature="0"
         d="m 317.468,1983.436 c 0.064,0.508 0.107,1.023 0.107,1.553 0,7.301 -5.942,13.242 -13.244,13.242 h -35.766 v -11.965 l -18.654,15.078 18.654,15.072 v -11.176 h 35.766 c 11.17,0 20.255,-9.082 20.255,-20.252 0,-2.256 -0.381,-4.479 -1.129,-6.625 l -5.989,5.073 z"
         id="path642" />
      <path
         style="fill:#bebebe;fill-opacity:1"
         inkscape:connector-curvature="0"
         d="m 259.082,1986.15 c -0.064,-0.508 -0.102,-1.027 -0.102,-1.555 0,-7.301 5.942,-13.244 13.243,-13.244 h 35.767 v 11.965 l 18.653,-15.074 -18.653,-15.076 v 11.176 h -35.767 c -11.169,0 -20.256,9.086 -20.256,20.254 0,2.254 0.377,4.477 1.129,6.625 l 5.986,-5.071 z"
         id="path644" />
    </g>
  </g>
</svg>
