<?xml version="1.0" encoding="UTF-8" standalone="no"?>
<!-- Created with Inkscape (http://www.inkscape.org/) -->

<svg
   xmlns:dc="http://purl.org/dc/elements/1.1/"
   xmlns:cc="http://creativecommons.org/ns#"
   xmlns:rdf="http://www.w3.org/1999/02/22-rdf-syntax-ns#"
   xmlns:svg="http://www.w3.org/2000/svg"
   xmlns="http://www.w3.org/2000/svg"
   xmlns:sodipodi="http://sodipodi.sourceforge.net/DTD/sodipodi-0.dtd"
   xmlns:inkscape="http://www.inkscape.org/namespaces/inkscape"
   width="48"
   height="48"
   id="svg3091"
   version="1.1"
   inkscape:version="0.48+devel r12149"
   sodipodi:docname="object-rotate-left.svg">
  <defs
     id="defs3093" />
  <sodipodi:namedview
     id="base"
     pagecolor="#ffffff"
     bordercolor="#666666"
     borderopacity="1.0"
     inkscape:pageopacity="0.0"
     inkscape:pageshadow="2"
     inkscape:zoom="4.1454135"
     inkscape:cx="9.3465988"
     inkscape:cy="8.4808633"
     inkscape:document-units="px"
     inkscape:current-layer="layer1"
     showgrid="false"
     inkscape:window-width="1366"
     inkscape:window-height="716"
     inkscape:window-x="0"
     inkscape:window-y="28"
     inkscape:window-maximized="1" />
  <metadata
     id="metadata3096">
    <rdf:RDF>
      <cc:Work
         rdf:about="">
        <dc:format>image/svg+xml</dc:format>
        <dc:type
           rdf:resource="http://purl.org/dc/dcmitype/StillImage" />
        <dc:title />
      </cc:Work>
    </rdf:RDF>
  </metadata>
  <g
     inkscape:label="Capa 1"
     inkscape:groupmode="layer"
     id="layer1"
     transform="translate(0,-1004.3622)">
    <g
       transform="matrix(-0.45878764,0,0,0.45878764,244.41259,393.53814)"
       id="_x38__images_rotate_right"
       style="fill:#1a1a1a">
      <g
         id="g720"
         style="fill:#1a1a1a">
        <path
           style="fill:#1a1a1a"
           inkscape:connector-curvature="0"
           d="m 474.437,1383.957 c 0,3.654 2.963,6.617 6.621,6.617 3.652,0 6.614,-2.963 6.614,-6.617 0,-3.65 -2.962,-6.613 -6.614,-6.613 C 477.399,1377.344 474.437,1380.307 474.437,1383.957 Z"
           id="path722" />
        <path
           style="fill:#1a1a1a"
           inkscape:connector-curvature="0"
           d="m 496.704,1401.369 c -2.395,2.057 -5.113,3.586 -8.08,4.547 -2.316,0.748 -4.727,1.127 -7.143,1.127 -0.591,-0.01 -1.17,-0.023 -1.732,-0.066 -3.052,-0.225 -5.964,-1.023 -8.658,-2.352 -2.795,-1.377 -5.256,-3.295 -7.328,-5.689 -2.06,-2.389 -3.586,-5.105 -4.549,-8.074 -0.74,-2.299 -1.118,-4.711 -1.118,-7.158 0,-0.578 0.022,-1.16 0.066,-1.758 0.223,-3.02 1.019,-5.914 2.354,-8.613 1.382,-2.803 3.297,-5.266 5.68,-7.324 2.39,-2.061 5.105,-3.592 8.073,-4.549 2.79,-0.895 5.803,-1.225 8.937,-1.059 2.963,0.219 5.93,1.035 8.598,2.354 2.082,1.027 4.164,2.578 5.84,4.168 l -0.038,0.025 -5.941,5.061 20.591,4.879 -1.542,-21.102 -6.003,5.109 -0.039,0.025 c -2.578,-2.631 -5.584,-4.926 -8.875,-6.545 -3.787,-1.883 -7.856,-2.992 -12.127,-3.307 -4.137,-0.242 -8.413,0.195 -12.41,1.486 -4.177,1.348 -7.991,3.49 -11.326,6.371 -3.347,2.885 -6.025,6.336 -7.968,10.264 -1.864,3.793 -2.974,7.861 -3.285,12.102 -0.062,0.807 -0.089,1.607 -0.089,2.412 0,3.412 0.528,6.785 1.57,10.025 1.342,4.174 3.484,7.979 6.363,11.318 2.879,3.339 6.336,6.018 10.268,7.963 3.798,1.873 7.867,2.984 12.095,3.297 0.762,0.057 1.53,0.088 2.293,0.088 l 0.156,0 c 3.407,0 6.771,-0.531 9.988,-1.574 4.171,-1.34 7.979,-3.48 11.331,-6.365 3.341,-2.885 6.02,-6.334 7.957,-10.266 l -8.229,-4.143 C 500.996,1396.844 499.093,1399.305 496.704,1401.369 Z"
           id="path724" />
      </g>
    </g>
  </g>
</svg>
