<?xml version="1.0" encoding="UTF-8" standalone="no"?>
<!-- Created with Inkscape (http://www.inkscape.org/) -->

<svg
   xmlns:dc="http://purl.org/dc/elements/1.1/"
   xmlns:cc="http://creativecommons.org/ns#"
   xmlns:rdf="http://www.w3.org/1999/02/22-rdf-syntax-ns#"
   xmlns:svg="http://www.w3.org/2000/svg"
   xmlns="http://www.w3.org/2000/svg"
   xmlns:xlink="http://www.w3.org/1999/xlink"
   xmlns:sodipodi="http://sodipodi.sourceforge.net/DTD/sodipodi-0.dtd"
   xmlns:inkscape="http://www.inkscape.org/namespaces/inkscape"
   width="48"
   height="48"
   id="svg4327"
   version="1.1"
   inkscape:version="0.48+devel r12149"
   sodipodi:docname="document-print-preview.svg">
  <defs
     id="defs4329">
    <linearGradient
       gradientTransform="translate(131.42858,-182.85726)"
       y2="-501.70206"
       x2="486.09668"
       y1="-546.00665"
       x1="486.09668"
       gradientUnits="userSpaceOnUse"
       id="linearGradient893"
       xlink:href="#linearGradient1913"
       inkscape:collect="always" />
    <linearGradient
       id="linearGradient1913"
       inkscape:collect="always">
      <stop
         id="stop1915"
         offset="0"
         style="stop-color:#642673;stop-opacity:1" />
      <stop
         id="stop1917"
         offset="1"
         style="stop-color:#e85a74;stop-opacity:1" />
    </linearGradient>
  </defs>
  <sodipodi:namedview
     id="base"
     pagecolor="#ffffff"
     bordercolor="#666666"
     borderopacity="1.0"
     inkscape:pageopacity="0.0"
     inkscape:pageshadow="2"
     inkscape:zoom="5.8625"
     inkscape:cx="65.515714"
     inkscape:cy="29.27308"
     inkscape:document-units="px"
     inkscape:current-layer="layer1"
     showgrid="false"
     fit-margin-top="0"
     fit-margin-left="0"
     fit-margin-right="0"
     fit-margin-bottom="0"
     inkscape:window-width="1366"
     inkscape:window-height="716"
     inkscape:window-x="0"
     inkscape:window-y="28"
     inkscape:window-maximized="1"
     showguides="false" />
  <metadata
     id="metadata4332">
    <rdf:RDF>
      <cc:Work
         rdf:about="">
        <dc:format>image/svg+xml</dc:format>
        <dc:type
           rdf:resource="http://purl.org/dc/dcmitype/StillImage" />
        <dc:title />
      </cc:Work>
    </rdf:RDF>
  </metadata>
  <g
     inkscape:label="Capa 1"
     inkscape:groupmode="layer"
     id="layer1"
     transform="translate(-593.14286,-682.6479)">
    <rect
       style="fill:url(#linearGradient893);fill-opacity:1;stroke:none"
       id="rect2991-1-7-9"
       width="44.000008"
       height="44.000008"
       x="595.14282"
       y="-728.64789"
       ry="1.7824985"
       transform="scale(1,-1)" />
    <path
       inkscape:connector-curvature="0"
       style="fill:#000000;fill-opacity:1;stroke:none"
       d="m 595.14287,725.89792 0,0.9739 c 0,0.9875 0.78853,1.7761 1.77604,1.7761 l 40.44791,0 c 0.98751,0 1.77605,-0.7886 1.77605,-1.7761 l 0,-0.9739 c 0,0.9875 -0.78854,1.7761 -1.77605,1.7761 l -40.44791,0 C 595.9314,727.67402 595.14287,726.88542 595.14287,725.89792 Z"
       id="rect846-1" />
    <path
       inkscape:connector-curvature="0"
       style="fill:#ffffff;fill-opacity:0.5372549;stroke:none"
       d="m 597.46318,685.24962 c -0.84067,0 -1.53189,0.5861 -1.69011,1.375 0.30765,-0.2567 0.70997,-0.4011 1.14584,-0.4011 l 40.44791,0 c 0.43587,0 0.83819,0.1444 1.14584,0.4011 -0.15822,-0.7889 -0.84944,-1.375 -1.69011,-1.375 L 597.46318,685.24962 Z"
       id="path7515-7" />
    <path
       inkscape:connector-curvature="0"
       style="fill:#000000;fill-opacity:0.39215686;stroke:none"
       d="m 596.91891,684.64792 c -0.98751,0 -1.77604,0.7886 -1.77604,1.7761 l 0,39.4739 c 0,0.7272 0.44001,1.3282 1.05989,1.6042 -0.28356,-0.3055 -0.45833,-0.7172 -0.45833,-1.1744 l 0,-39.3595 c 0,-0.9608 0.75799,-1.7186 1.71875,-1.7186 l 39.35937,0 c 0.96076,0 1.71875,0.7578 1.71875,1.7186 l 0,39.3595 c 0,0.4572 -0.17477,0.8689 -0.45833,1.1744 0.61988,-0.276 1.0599,-0.877 1.0599,-1.6042 l 0,-39.4739 c 0,-0.9875 -0.78854,-1.7761 -1.77605,-1.7761 L 596.91891,684.64792 Z"
       id="rect4280-8" />
    <path
       style="fill:#ffffff;fill-opacity:1;stroke:none"
       d="m 612.72419,697.36969 c 0.83665,-0.45449 1.80397,-0.72179 2.82303,-0.72179 3.26102,0 5.89769,2.66048 5.89769,5.92148 0,1.77096 -0.77884,3.3425 -2.01035,4.42498 l 1.15842,2.00644 c 0.40452,-0.15821 0.88494,0 1.10903,0.39054 l 2.82696,4.89641 c 0.24729,0.4283 0.10164,0.97217 -0.32677,1.21948 l -1.76713,1.02026 c -0.4283,0.2473 -0.97219,0.10164 -1.21947,-0.32676 l -2.82696,-4.89641 c -0.22667,-0.39266 -0.13252,-0.8864 0.21632,-1.15573 l -1.15842,-2.00644 c -0.59628,0.20324 -1.22829,0.33274 -1.8941,0.33274 -3.26102,0 -5.91609,-2.64987 -5.91609,-5.91087 C 609.63635,700.32204 610.88359,698.36955 612.72419,697.36969 z m 0.98345,1.78837 c -1.20464,0.65439 -2.03332,1.94012 -2.03332,3.40738 0,2.13424 1.7347,3.85302 3.86897,3.85302 2.13424,0 3.86365,-1.71627 3.86365,-3.85051 0,-2.1343 -1.71629,-3.86369 -3.85055,-3.86369 C 614.88943,698.70426 614.2552,698.86063 613.70764,699.15806 Z"
       id="path5429-6"
       inkscape:connector-curvature="0" />
  </g>
</svg>
