<?xml version="1.0" encoding="UTF-8" standalone="no"?>
<!-- Created with Inkscape (http://www.inkscape.org/) -->

<svg
   xmlns:dc="http://purl.org/dc/elements/1.1/"
   xmlns:cc="http://creativecommons.org/ns#"
   xmlns:rdf="http://www.w3.org/1999/02/22-rdf-syntax-ns#"
   xmlns:svg="http://www.w3.org/2000/svg"
   xmlns="http://www.w3.org/2000/svg"
   xmlns:sodipodi="http://sodipodi.sourceforge.net/DTD/sodipodi-0.dtd"
   xmlns:inkscape="http://www.inkscape.org/namespaces/inkscape"
   width="48"
   height="48"
   id="svg2"
   version="1.1"
   inkscape:version="0.48+devel r12149"
   sodipodi:docname="media-playlist-shuffle.svg">
  <defs
     id="defs4" />
  <sodipodi:namedview
     id="base"
     pagecolor="#ffffff"
     bordercolor="#666666"
     borderopacity="1.0"
     inkscape:pageopacity="0.0"
     inkscape:pageshadow="2"
     inkscape:zoom="8"
     inkscape:cx="42.979887"
     inkscape:cy="29.65168"
     inkscape:document-units="px"
     inkscape:current-layer="layer1"
     showgrid="false"
     inkscape:window-width="1366"
     inkscape:window-height="716"
     inkscape:window-x="0"
     inkscape:window-y="28"
     inkscape:window-maximized="1" />
  <metadata
     id="metadata7">
    <rdf:RDF>
      <cc:Work
         rdf:about="">
        <dc:format>image/svg+xml</dc:format>
        <dc:type
           rdf:resource="http://purl.org/dc/dcmitype/StillImage" />
        <dc:title />
      </cc:Work>
    </rdf:RDF>
  </metadata>
  <g
     inkscape:label="Capa 1"
     inkscape:groupmode="layer"
     id="layer1"
     transform="translate(0,-1004.3622)">
    <g
       transform="matrix(0.31620553,0,0,0.31620553,-370.09201,431.45501)"
       id="_x39__av_shuffle"
       style="fill:#1a1a1a">
      <g
         id="g647"
         style="fill:#1a1a1a">
        <path
           style="fill:#1a1a1a"
           inkscape:connector-curvature="0"
           d="m 1209.717,1873.006 c 4.7,0.012 9.164,1.08 13.641,3.26 3.926,1.932 7.828,4.74 11.61,8.354 0.35,-0.381 0.697,-0.768 1.043,-1.158 1.493,-1.711 3.084,-3.385 4.738,-4.984 -3.791,-3.334 -7.635,-5.939 -11.734,-7.951 -5.963,-2.947 -12.55,-4.504 -19.117,-4.504 -0.634,0 -1.256,0.025 -1.865,0.055 l -1.226,0.057 0,7.002 1.354,-0.082 C 1208.679,1873.027 1209.194,1873.006 1209.717,1873.006 Z"
           id="path649" />
        <path
           style="fill:#1a1a1a"
           inkscape:connector-curvature="0"
           d="m 1263.508,1877.201 c 1.225,-0.598 2.444,-1.105 3.664,-1.537 l 0,10.58 18.654,-15.074 -18.654,-15.076 0,12 c -3.205,0.758 -6.343,1.883 -9.323,3.359 -6.622,3.262 -12.696,8.119 -18.578,14.85 -5.119,5.869 -10.473,10.201 -15.916,12.873 -4.474,2.184 -8.938,3.252 -13.64,3.262 -0.521,0 -1.04,-0.021 -1.556,-0.053 l -1.353,-0.078 0,7.006 1.224,0.057 c 0.611,0.025 1.233,0.053 1.867,0.053 l 0.068,0 c 6.488,0 13.074,-1.555 19.049,-4.502 6.617,-3.256 12.69,-8.113 18.572,-14.85 C 1252.698,1884.199 1258.057,1879.869 1263.508,1877.201 Z"
           id="path651" />
        <path
           style="fill:#1a1a1a"
           inkscape:connector-curvature="0"
           d="m 1267.172,1899.779 c -1.221,-0.434 -2.44,-0.939 -3.666,-1.539 -3.588,-1.762 -7.18,-4.277 -10.683,-7.486 -0.659,0.691 -1.319,1.404 -1.975,2.156 -1.183,1.354 -2.431,2.693 -3.726,3.986 3.473,2.926 6.99,5.252 10.726,7.092 2.982,1.471 6.12,2.596 9.323,3.354 l 0,12.002 18.654,-15.076 -18.654,-15.074 L 1267.171,1899.779 Z"
           id="path653" />
      </g>
    </g>
  </g>
</svg>
