<?xml version="1.0" encoding="UTF-8" standalone="no"?>
<!-- Created with Inkscape (http://www.inkscape.org/) -->

<svg
   xmlns:dc="http://purl.org/dc/elements/1.1/"
   xmlns:cc="http://creativecommons.org/ns#"
   xmlns:rdf="http://www.w3.org/1999/02/22-rdf-syntax-ns#"
   xmlns:svg="http://www.w3.org/2000/svg"
   xmlns="http://www.w3.org/2000/svg"
   xmlns:sodipodi="http://sodipodi.sourceforge.net/DTD/sodipodi-0.dtd"
   xmlns:inkscape="http://www.inkscape.org/namespaces/inkscape"
   width="48"
   height="48"
   id="svg2"
   version="1.1"
   inkscape:version="0.48+devel r12149"
   sodipodi:docname="folder-copy.svg">
  <defs
     id="defs4" />
  <sodipodi:namedview
     id="base"
     pagecolor="#ffffff"
     bordercolor="#666666"
     borderopacity="1.0"
     inkscape:pageopacity="0.0"
     inkscape:pageshadow="2"
     inkscape:zoom="5.8625"
     inkscape:cx="36.503264"
     inkscape:cy="18.528575"
     inkscape:document-units="px"
     inkscape:current-layer="layer1"
     showgrid="false"
     inkscape:window-width="1366"
     inkscape:window-height="716"
     inkscape:window-x="0"
     inkscape:window-y="28"
     inkscape:window-maximized="1" />
  <metadata
     id="metadata7">
    <rdf:RDF>
      <cc:Work
         rdf:about="">
        <dc:format>image/svg+xml</dc:format>
        <dc:type
           rdf:resource="http://purl.org/dc/dcmitype/StillImage" />
        <dc:title />
      </cc:Work>
    </rdf:RDF>
  </metadata>
  <g
     inkscape:label="Capa 1"
     inkscape:groupmode="layer"
     id="layer1"
     transform="translate(0,-1004.3622)">
    <g
       id="g967"
       transform="translate(5.250811,-6.99525)">
      <path
         inkscape:connector-curvature="0"
         id="path833"
         d="m 5,1020.3573 0,0.068 0,9.2023 0,3.1654 0,9.2702 1.6957543,0 4.0019797,0 0,-0.6557 0,-3.7985 0,-11.0563 0,-0.068 2.034905,0 8.365721,0 0,-2.2836 0,-2.8262 1.650535,0 c -0.02895,1.6871 -0.0383,3.4099 -0.04522,5.1098 l 2.125346,0 0,-6.1273 -2.261006,0 -15.8722597,0 L 5,1020.3573 Z"
         style="fill:#666666;fill-opacity:1;stroke:none" />
      <path
         sodipodi:nodetypes="ccccccccccccccscccccc"
         inkscape:connector-curvature="0"
         id="path962"
         d="m 12.675012,1028.6526 0,0.056 0,9.2135 0,3.1654 0,9.2701 1.695755,0 11.983328,0 6.144283,0 0,-21.7057 -2.244048,0 L 14.370767,1028.6526 z m 16.109664,1.0174 1.639229,0 c -0.05994,3.4937 -0.05653,7.1079 -0.05653,10.4573 l 0,9.2701 -2.656683,0 0,-10.6834 1.073978,-1.8652 L 28.784676,1032.4963 Z"
         style="fill:#1a1a1a;fill-opacity:1;stroke:none" />
    </g>
  </g>
</svg>
