<?xml version="1.0" encoding="UTF-8" standalone="no"?>
<!-- Created with Inkscape (http://www.inkscape.org/) -->

<svg
   xmlns:dc="http://purl.org/dc/elements/1.1/"
   xmlns:cc="http://creativecommons.org/ns#"
   xmlns:rdf="http://www.w3.org/1999/02/22-rdf-syntax-ns#"
   xmlns:svg="http://www.w3.org/2000/svg"
   xmlns="http://www.w3.org/2000/svg"
   xmlns:sodipodi="http://sodipodi.sourceforge.net/DTD/sodipodi-0.dtd"
   xmlns:inkscape="http://www.inkscape.org/namespaces/inkscape"
   width="48"
   height="48"
   id="svg3251"
   version="1.1"
   inkscape:version="0.48+devel r12012"
   sodipodi:docname="zoom-original.svg">
  <defs
     id="defs3253" />
  <sodipodi:namedview
     id="base"
     pagecolor="#ffffff"
     bordercolor="#666666"
     borderopacity="1.0"
     inkscape:pageopacity="0.0"
     inkscape:pageshadow="2"
     inkscape:zoom="8.290827"
     inkscape:cx="5.3068775"
     inkscape:cy="23.805937"
     inkscape:document-units="px"
     inkscape:current-layer="layer1"
     showgrid="false"
     inkscape:window-width="1366"
     inkscape:window-height="718"
     inkscape:window-x="0"
     inkscape:window-y="28"
     inkscape:window-maximized="1" />
  <metadata
     id="metadata3256">
    <rdf:RDF>
      <cc:Work
         rdf:about="">
        <dc:format>image/svg+xml</dc:format>
        <dc:type
           rdf:resource="http://purl.org/dc/dcmitype/StillImage" />
        <dc:title />
      </cc:Work>
    </rdf:RDF>
  </metadata>
  <g
     inkscape:label="Capa 1"
     inkscape:groupmode="layer"
     id="layer1"
     transform="translate(0,-1004.3622)">
    <path
       style="fill:#1a1a1a;fill-opacity:1;fill-rule:nonzero;stroke:none"
       d="m 11.6875,1012.4247 c -1.56671,0 -2.8125,1.2458 -2.8125,2.8125 l 0,21.75 c 0,1.5667 1.24579,2.8125 2.8125,2.8125 l 24.625,0 c 1.56671,0 2.8125,-1.2458 2.8125,-2.8125 l 0,-21.75 c 0,-1.5667 -1.24579,-2.8125 -2.8125,-2.8125 L 11.6875,1012.4247 z m 13.5625,3.8125 2.90625,0 0,19.75 -4.90625,0 0,-10.5937 c 0,-1.53 -0.05176,-2.4408 -0.125,-2.75 -0.07324,-0.3093 -0.260091,-0.533 -0.59375,-0.6875 -0.325521,-0.1628 -1.079427,-0.25 -2.21875,-0.25 l -0.46875,0 0,-2.3125 C 22.22819,1018.8808 24.013021,1017.8323 25.25,1016.2372 z m -16.375,22.4375 0,0.875 0,0.75 0,0.875 c 0,1.7312 1.39375,3.125 3.125,3.125 l 24,0 c 1.73125,0 3.125,-1.3938 3.125,-3.125 l 0,-0.875 0,-0.75 0,-0.875 c 0,1.7312 -1.39375,3.125 -3.125,3.125 l -24,0 C 10.26875,1041.7997 8.875,1040.4059 8.875,1038.6747 Z"
       id="path1074"
       inkscape:connector-curvature="0" />
  </g>
</svg>
