<?xml version="1.0" encoding="UTF-8" standalone="no"?>
<!-- Created with Inkscape (http://www.inkscape.org/) -->

<svg
   xmlns:dc="http://purl.org/dc/elements/1.1/"
   xmlns:cc="http://creativecommons.org/ns#"
   xmlns:rdf="http://www.w3.org/1999/02/22-rdf-syntax-ns#"
   xmlns:svg="http://www.w3.org/2000/svg"
   xmlns="http://www.w3.org/2000/svg"
   xmlns:xlink="http://www.w3.org/1999/xlink"
   xmlns:sodipodi="http://sodipodi.sourceforge.net/DTD/sodipodi-0.dtd"
   xmlns:inkscape="http://www.inkscape.org/namespaces/inkscape"
   width="48"
   height="48"
   id="svg3404"
   version="1.1"
   inkscape:version="0.48+devel r12149"
   sodipodi:docname="document-print.svg">
  <defs
     id="defs3406">
    <linearGradient
       inkscape:collect="always"
       xlink:href="#linearGradient1913"
       id="linearGradient893"
       gradientUnits="userSpaceOnUse"
       x1="486.09668"
       y1="-546.00665"
       x2="486.09668"
       y2="-501.70206"
       gradientTransform="translate(-77.14286,42.85704)" />
    <linearGradient
       inkscape:collect="always"
       id="linearGradient1913">
      <stop
         style="stop-color:#642673;stop-opacity:1"
         offset="0"
         id="stop1915" />
      <stop
         style="stop-color:#e85a74;stop-opacity:1"
         offset="1"
         id="stop1917" />
    </linearGradient>
  </defs>
  <sodipodi:namedview
     id="base"
     pagecolor="#ffffff"
     bordercolor="#666666"
     borderopacity="1.0"
     inkscape:pageopacity="0.0"
     inkscape:pageshadow="2"
     inkscape:zoom="4"
     inkscape:cx="60.900468"
     inkscape:cy="36.525737"
     inkscape:document-units="px"
     inkscape:current-layer="layer1"
     showgrid="false"
     fit-margin-top="0"
     fit-margin-left="0"
     fit-margin-right="0"
     fit-margin-bottom="0"
     inkscape:window-width="1366"
     inkscape:window-height="716"
     inkscape:window-x="0"
     inkscape:window-y="28"
     inkscape:window-maximized="1" />
  <metadata
     id="metadata3409">
    <rdf:RDF>
      <cc:Work
         rdf:about="">
        <dc:format>image/svg+xml</dc:format>
        <dc:type
           rdf:resource="http://purl.org/dc/dcmitype/StillImage" />
        <dc:title />
      </cc:Work>
    </rdf:RDF>
  </metadata>
  <g
     inkscape:label="Capa 1"
     inkscape:groupmode="layer"
     id="layer1"
     transform="translate(-384.57143,-456.93361)">
    <rect
       style="fill:url(#linearGradient893);fill-opacity:1.0;stroke:none"
       id="rect2991-1-7-9"
       width="44.000008"
       height="44.000008"
       x="386.57141"
       y="-502.93359"
       ry="1.7824985"
       transform="scale(1,-1)" />
    <path
       inkscape:connector-curvature="0"
       style="fill:#000000;fill-opacity:1;stroke:none"
       d="m 386.57143,500.18362 0,0.9739 c 0,0.9875 0.78853,1.7761 1.77604,1.7761 l 40.44791,0 c 0.98751,0 1.77605,-0.7886 1.77605,-1.7761 l 0,-0.9739 c 0,0.9875 -0.78854,1.7761 -1.77605,1.7761 l -40.44791,0 C 387.35996,501.95972 386.57143,501.17112 386.57143,500.18362 Z"
       id="rect846-1" />
    <path
       inkscape:connector-curvature="0"
       style="fill:#ffffff;fill-opacity:0.5372549;stroke:none"
       d="m 388.89174,459.53532 c -0.84067,0 -1.53189,0.5861 -1.69011,1.375 0.30765,-0.2567 0.70997,-0.4011 1.14584,-0.4011 l 40.44791,0 c 0.43587,0 0.83819,0.1444 1.14584,0.4011 -0.15822,-0.7889 -0.84944,-1.375 -1.69011,-1.375 L 388.89174,459.53532 Z"
       id="path7515-7" />
    <path
       inkscape:connector-curvature="0"
       style="fill:#000000;fill-opacity:0.39215686;stroke:none"
       d="m 388.34747,458.93362 c -0.98751,0 -1.77604,0.7886 -1.77604,1.7761 l 0,39.4739 c 0,0.7272 0.44001,1.3282 1.05989,1.6042 -0.28356,-0.3055 -0.45833,-0.7172 -0.45833,-1.1744 l 0,-39.3595 c 0,-0.9608 0.75799,-1.7186 1.71875,-1.7186 l 39.35937,0 c 0.96076,0 1.71875,0.7578 1.71875,1.7186 l 0,39.3595 c 0,0.4572 -0.17477,0.8689 -0.45833,1.1744 0.61988,-0.276 1.0599,-0.877 1.0599,-1.6042 l 0,-39.4739 c 0,-0.9875 -0.78854,-1.7761 -1.77605,-1.7761 L 388.34747,458.93362 Z"
       id="rect4280-8" />
    <g
       id="g34"
       transform="matrix(0.28055609,0,0,-0.28055609,402.25892,478.78284)">
      <path
         inkscape:connector-curvature="0"
         d="M 0,0 0.095,0 0.052,0.545 0,0 Z M 2.445,25.518 16.323,26.604 2.659,27.756 2.445,25.518 Z M 43.328,24.327 45.133,1.271 47.5,23.976 43.328,24.327 Z"
         style="fill:#ffffff;fill-opacity:1;fill-rule:nonzero;stroke:none"
         id="path36" />
    </g>
    <g
       id="g364"
       transform="matrix(0.28055609,0,0,-0.28055609,414.88394,479.57109)">
      <path
         d="M 0,0 -45,0 -51.366,23.124 -7.023,30.787 0,0 Z"
         style="fill:#ffffff;fill-opacity:1;fill-rule:nonzero;stroke:none"
         id="path366"
         inkscape:connector-curvature="0" />
    </g>
    <path
       d="m 406.04642,487.1461 5.05001,0 0,-1.2625 -5.05001,0 L 406.04642,487.1461 z m 10.10002,-1.2625 -3.7875,0 0,2.52501 -7.57502,0 0,-2.52501 -3.78751,0 0,-1.2625 c 0,0 -0.0701,-0.28056 0.37399,-0.79482 0.38464,-0.44524 0.88852,-0.46768 0.88852,-0.46768 l 12.62502,0 c 0,0 0.54372,-0.0351 0.88852,0.39755 0.36613,0.45898 0.37398,0.86495 0.37398,0.86495 L 416.14644,485.8836 z m -17.67503,5.05001 20.20004,0 0,-10.10002 -20.20004,0 L 398.47141,490.93361 Z"
       style="fill:#ffffff;fill-opacity:1;fill-rule:nonzero;stroke:none"
       id="path434"
       inkscape:connector-curvature="0" />
  </g>
</svg>
