<?xml version="1.0" encoding="UTF-8" standalone="no"?>
<!-- Created with Inkscape (http://www.inkscape.org/) -->

<svg
   xmlns:dc="http://purl.org/dc/elements/1.1/"
   xmlns:cc="http://creativecommons.org/ns#"
   xmlns:rdf="http://www.w3.org/1999/02/22-rdf-syntax-ns#"
   xmlns:svg="http://www.w3.org/2000/svg"
   xmlns="http://www.w3.org/2000/svg"
   xmlns:xlink="http://www.w3.org/1999/xlink"
   xmlns:sodipodi="http://sodipodi.sourceforge.net/DTD/sodipodi-0.dtd"
   xmlns:inkscape="http://www.inkscape.org/namespaces/inkscape"
   width="48"
   height="48"
   id="svg2"
   version="1.1"
   inkscape:version="0.48+devel r12149"
   sodipodi:docname="gnome-help.svg">
  <defs
     id="defs4">
    <linearGradient
       gradientTransform="scale(1.0058652,0.994169)"
       gradientUnits="userSpaceOnUse"
       id="ButtonShadow"
       y2="7.0165396"
       x2="45.447727"
       y1="92.539597"
       x1="45.447727">
      <stop
         offset="0"
         style="stop-color:#000000;stop-opacity:1"
         id="stop3750" />
      <stop
         offset="1"
         style="stop-color:#000000;stop-opacity:0.58823532"
         id="stop3752" />
    </linearGradient>
    <linearGradient
       id="linearGradient3737">
      <stop
         offset="0"
         style="stop-color:#ffffff;stop-opacity:1"
         id="stop3739" />
      <stop
         offset="1"
         style="stop-color:#ffffff;stop-opacity:0"
         id="stop3741" />
    </linearGradient>
    <filter
       style="color-interpolation-filters:sRGB"
       id="filter3174">
      <feGaussianBlur
         stdDeviation="1.71"
         id="feGaussianBlur3176" />
    </filter>
    <filter
       style="color-interpolation-filters:sRGB"
       id="filter3794"
       height="1.3839999"
       width="1.3839999"
       y="-0.192"
       x="-0.192">
      <feGaussianBlur
         stdDeviation="5.28"
         id="feGaussianBlur3796" />
    </filter>
    <linearGradient
       gradientUnits="userSpaceOnUse"
       xlink:href="#linearGradient3737"
       id="linearGradient3613"
       y2="138.66119"
       x2="48"
       y1="20.220806"
       x1="48" />
    <clipPath
       id="clipPath3613">
      <rect
         style="fill:#ffffff;fill-opacity:1;fill-rule:nonzero;stroke:none"
         id="rect3615"
         y="6"
         x="6"
         ry="6"
         rx="6"
         height="84"
         width="84" />
    </clipPath>
    <linearGradient
       id="linearGradient908-5">
      <stop
         id="stop910-1"
         offset="0"
         style="stop-color:#4d78c6;stop-opacity:1" />
      <stop
         id="stop912-1"
         offset="1"
         style="stop-color:#adc1e6;stop-opacity:1" />
    </linearGradient>
    <linearGradient
       gradientTransform="translate(48.65401,3.7616346)"
       gradientUnits="userSpaceOnUse"
       y2="-3.8895545"
       x2="-25.481943"
       y1="-51.669636"
       x1="-25.481943"
       id="linearGradient1737"
       xlink:href="#linearGradient908-5"
       inkscape:collect="always" />
  </defs>
  <sodipodi:namedview
     id="base"
     pagecolor="#ffffff"
     bordercolor="#666666"
     borderopacity="1.0"
     inkscape:pageopacity="0.0"
     inkscape:pageshadow="2"
     inkscape:zoom="19.356462"
     inkscape:cx="30.650497"
     inkscape:cy="33.049541"
     inkscape:document-units="px"
     inkscape:current-layer="g1795"
     showgrid="false"
     inkscape:window-width="1366"
     inkscape:window-height="716"
     inkscape:window-x="0"
     inkscape:window-y="28"
     inkscape:window-maximized="1" />
  <metadata
     id="metadata7">
    <rdf:RDF>
      <cc:Work
         rdf:about="">
        <dc:format>image/svg+xml</dc:format>
        <dc:type
           rdf:resource="http://purl.org/dc/dcmitype/StillImage" />
        <dc:title />
      </cc:Work>
    </rdf:RDF>
  </metadata>
  <g
     inkscape:label="Capa 1"
     inkscape:groupmode="layer"
     id="layer1"
     transform="translate(0,-1004.3622)">
    <g
       id="g846"
       transform="translate(-61.043672,-14.648105)">
      <g
         id="g874"
         transform="translate(61.043671,1019.0103)">
        <g
           transform="translate(-69.966102,-41.898303)"
           style="display:none"
           id="layer2">
          <rect
             style="opacity:0.9;fill:url(#ButtonShadow);fill-opacity:1;fill-rule:nonzero;stroke:none;filter:url(#filter3174)"
             id="rect3745"
             y="7"
             x="5"
             ry="6"
             rx="6"
             height="85"
             width="86" />
        </g>
        <g
           transform="translate(-69.966102,-41.898303)"
           style="display:none"
           id="layer5">
          <rect
             style="opacity:0.1;fill:url(#linearGradient3613);fill-opacity:1;fill-rule:nonzero;stroke:#ffffff;stroke-width:0.5;stroke-linecap:round;stroke-linejoin:miter;stroke-miterlimit:4;stroke-opacity:1;stroke-dasharray:none;stroke-dashoffset:0;filter:url(#filter3794)"
             id="rect3171"
             clip-path="url(#clipPath3613)"
             y="15"
             x="15"
             ry="12"
             rx="12"
             height="66"
             width="66" />
        </g>
        <rect
           transform="scale(1,-1)"
           ry="1.9445436"
           y="-47.999992"
           x="-6.1635251e-07"
           height="48"
           width="48"
           id="rect2991-1"
           style="fill:url(#linearGradient1737);fill-opacity:1;stroke:none" />
        <path
           id="rect846"
           d="m 1.5635254e-7,45.000007 0,1.0625 c 0,1.0773 0.86022300364746,1.9375 1.93750004364746,1.9375 l 44.1250008,0 c 1.077277,0 1.9375,-0.8602 1.9375,-1.9375 l 0,-1.0625 c 0,1.0773 -0.860223,1.9375 -1.9375,1.9375 l -44.1250008,0 C 0.86022316,46.937507 1.5635254e-7,46.077307 1.5635254e-7,45.000007 Z"
           style="fill:#000000;fill-opacity:1;stroke:none"
           inkscape:connector-curvature="0" />
        <path
           id="path7515"
           d="m 2.5312502,0.6563083 c -0.917088,0 -1.67114604,0.6395 -1.84375004,1.5 0.33561204,-0.2799 0.77451304,-0.4375 1.25000004,-0.4375 l 44.1250008,0 c 0.475488,0 0.914388,0.1576 1.25,0.4375 -0.172603,-0.8605 -0.926662,-1.5 -1.84375,-1.5 L 2.5312502,0.6563083 Z"
           style="fill:#ffffff;fill-opacity:0.5372549;stroke:none"
           inkscape:connector-curvature="0" />
        <path
           id="rect4280-9"
           d="M 1.9375002,8.3013672e-6 C 0.86022316,8.3013672e-6 1.5635254e-7,0.8602083 1.5635254e-7,1.9375083 l 0,43.0624987 c 0,0.7934 0.48002400364746,1.449 1.15625004364746,1.75 -0.30934104,-0.3333 -0.50000004,-0.7824 -0.50000004,-1.2812 l 0,-42.9374987 c 0,-1.0482 0.82689904,-1.875 1.87500004,-1.875 l 42.9375008,0 c 1.048101,0 1.875,0.8268 1.875,1.875 l 0,42.9374987 c 0,0.4988 -0.190658,0.9479 -0.5,1.2812 0.676226,-0.301 1.15625,-0.9566 1.15625,-1.75 l 0,-43.0624987 c 0,-1.0773 -0.860223,-1.9374999986328 -1.9375,-1.9374999986328 L 1.9375002,8.3013672e-6 Z"
           style="fill:#000000;fill-opacity:0.39215686;stroke:none"
           inkscape:connector-curvature="0" />
        <g
           transform="matrix(0.98643553,0,0,0.98643553,0.32308396,0.10851568)"
           id="g1795">
          <g
             style="font-size:64.90872192px;font-style:normal;font-variant:normal;font-weight:normal;font-stretch:normal;text-align:start;line-height:125%;letter-spacing:0px;word-spacing:0px;writing-mode:lr-tb;text-anchor:start;fill:#000000;fill-opacity:0.42745098;stroke:none;font-family:Alex Brush;-inkscape-font-specification:Alex Brush"
             id="text1739">
            <path
               d="m 31.991428,20.851928 c 2.336714,-1.817445 3.505071,-4.024341 3.505071,-6.685599 0,-4.089249 -3.569979,-6.1663283 -10.774847,-6.1663283 -2.726167,0 -5.257607,0.7139959 -7.594321,2.1419883 -2.791075,1.752535 -4.348884,4.089249 -4.608519,7.010141 -0.194726,2.141988 1.4929,3.699798 3.634888,3.699798 1.687627,0 3.245436,-0.713996 4.60852,-2.206897 0.194726,-0.194726 0.324543,-0.454361 0.324543,-0.778905 0,-0.259634 -0.06491,-0.389452 -0.259635,-0.389452 -0.06491,0 -0.194726,0.06491 -0.324543,0.194726 -1.233266,1.298175 -2.466532,1.947262 -3.764706,1.947262 -1.55781,0 -2.855984,-1.233266 -2.661258,-2.336714 0.259635,-2.141988 1.427992,-3.829615 3.56998,-5.06288 1.817444,-1.03854 4.024341,-1.55781 6.555781,-1.55781 4.413793,0 8.11359,1.817445 8.11359,4.60852 0,1.427991 -0.908722,2.985801 -2.791075,4.673428 -0.713996,0.584178 -3.05071,2.206896 -7.139959,4.868154 -2.726167,1.752535 -4.60852,3.764706 -5.711968,6.036511 -0.06491,0.194726 -0.129817,0.389452 -0.129817,0.649087 0,0.584179 0.129817,0.843813 0.454361,0.843813 0.259635,0 0.584178,-0.324543 0.973631,-1.038539 1.103448,-2.077079 3.180527,-4.024341 6.231237,-5.776876 C 28.87581,22.799189 31.472159,21.24138 31.991428,20.851928 Z M 18.036053,38.052739 c 0,-1.233266 -1.4929,-2.141988 -2.726166,-2.141988 -1.622718,0 -2.466532,0.584179 -2.466532,1.817444 0,1.233266 1.168357,2.271806 2.661258,2.271806 C 16.543153,40.000001 18.036053,39.091279 18.036053,38.052739 Z"
               style=""
               id="path840" />
          </g>
          <path
             inkscape:connector-curvature="0"
             style="font-size:64.90872192px;font-style:normal;font-variant:normal;font-weight:normal;font-stretch:normal;text-align:start;line-height:125%;letter-spacing:0px;word-spacing:0px;writing-mode:lr-tb;text-anchor:start;fill:#000000;fill-opacity:0.42745098;stroke:none;font-family:Alex Brush;-inkscape-font-specification:Alex Brush"
             d="m 24.71875,8 c -2.726166,0 -5.257036,0.7282581 -7.59375,2.15625 -2.791075,1.752535 -4.334115,4.079108 -4.59375,7 -0.0146,0.160649 -0.006,0.315084 0,0.46875 0.259635,-2.920892 1.802675,-5.247465 4.59375,-7 2.336714,-1.4279919 4.867584,-2.125 7.59375,-2.125 7.017567,0 10.600418,1.962749 10.78125,5.84375 0.0013,-0.06164 0,-0.125369 0,-0.1875 C 35.5,10.067001 31.923618,8 24.71875,8 z m 7.59375,7.53125 c -0.100504,1.35861 -1.009242,2.817553 -2.78125,4.40625 -0.713996,0.584178 -3.067001,2.213742 -7.15625,4.875 -2.726166,1.752535 -4.584052,3.759445 -5.6875,6.03125 -0.06491,0.194726 -0.15625,0.396615 -0.15625,0.65625 0,0.133958 0.01682,0.24314 0.03125,0.34375 0.01925,-0.186007 0.07369,-0.346061 0.125,-0.5 1.103448,-2.271805 2.961334,-4.278715 5.6875,-6.03125 4.089249,-2.661258 6.442254,-4.290822 7.15625,-4.875 C 31.413603,18.749873 32.3125,17.177992 32.3125,15.75 32.3125,15.673979 32.317929,15.60581 32.3125,15.53125 z m -11.5,1.9375 c -0.06491,0 -0.182683,0.05768 -0.3125,0.1875 -1.233266,1.298174 -2.451826,1.96875 -3.75,1.96875 -1.350224,0 -2.530405,-0.940833 -2.6875,-1.90625 -0.0027,0.02051 0.0025,0.0419 0,0.0625 -0.194726,1.103448 1.129691,2.3125 2.6875,2.3125 1.298174,0 2.516734,-0.639326 3.75,-1.9375 0.129817,-0.129817 0.247591,-0.1875 0.3125,-0.1875 0.117981,0 0.181642,0.06094 0.21875,0.15625 0.01996,-0.08265 0.0625,-0.156595 0.0625,-0.25 C 21.09375,17.615365 21.007226,17.46875 20.8125,17.46875 z m -5.5,18.4375 c -1.622718,0 -2.46875,0.579234 -2.46875,1.8125 0,0.06193 0.02546,0.126656 0.03125,0.1875 0.137005,-1.017649 0.959962,-1.5 2.4375,-1.5 1.145396,0 2.498182,0.775311 2.6875,1.875 0.01501,-0.07377 0.03125,-0.143316 0.03125,-0.21875 C 18.03125,36.829234 16.545766,35.90625 15.3125,35.90625 Z"
             id="text1777" />
          <path
             style="font-size:64.90872192px;font-style:normal;font-variant:normal;font-weight:normal;font-stretch:normal;text-align:start;line-height:125%;letter-spacing:0px;word-spacing:0px;writing-mode:lr-tb;text-anchor:start;fill:#ffffff;fill-opacity:0.42745098;stroke:none;font-family:Alex Brush;-inkscape-font-specification:Alex Brush"
             d="m 24.1875,10.658784 c -2.53144,0 -4.713806,0.523961 -6.53125,1.5625 -2.141988,1.233267 -3.334115,2.920513 -3.59375,5.062498 -0.02434,0.137931 -0.0199,0.266924 0,0.40625 0.267084,-2.127341 1.46206,-3.803911 3.59375,-5.031248 1.817444,-1.03854 3.99981,-1.5625 6.53125,-1.5625 4.300595,0 7.942007,1.735956 8.125,4.40625 0.0048,-0.07393 0,-0.145505 0,-0.21875 C 32.3125,12.49271 28.601293,10.658784 24.1875,10.658784 z m 11.3125,3.6875 c -0.05328,2.578441 -1.21784,4.724984 -3.5,6.499998 -0.51927,0.389452 -3.139072,1.961335 -7.8125,4.6875 -3.05071,1.752536 -5.115302,3.704171 -6.21875,5.78125 -0.389452,0.713997 -0.709115,1.03125 -0.96875,1.03125 -0.256837,0 -0.392399,-0.17387 -0.4375,-0.53125 -0.004,0.04378 -0.03125,0.07723 -0.03125,0.125 0,0.584179 0.144206,0.84375 0.46875,0.84375 0.259635,0 0.579298,-0.317253 0.96875,-1.03125 1.103448,-2.077079 3.16804,-4.028714 6.21875,-5.78125 4.673428,-2.726165 7.29323,-4.298048 7.8125,-4.6875 2.336714,-1.817444 3.5,-4.026242 3.5,-6.687498 C 35.5,14.507554 35.503362,14.433119 35.5,14.346284 z m -22.96875,3.593748 c 0.0076,1.960671 1.600822,3.34375 3.625,3.34375 1.687627,0 3.230667,-0.694599 4.59375,-2.1875 0.194726,-0.194725 0.34375,-0.456706 0.34375,-0.78125 0,-0.08987 -0.013,-0.159986 -0.03125,-0.21875 -0.04524,0.220494 -0.165743,0.415743 -0.3125,0.5625 -1.363083,1.492901 -2.906123,2.1875 -4.59375,2.1875 C 14.282011,20.846282 12.753106,19.673171 12.53125,17.940032 z m 0.34375,19.9375 c -0.01093,0.09099 -0.03125,0.181869 -0.03125,0.28125 0,1.233267 1.163349,2.28125 2.65625,2.28125 1.03854,0 2.53125,-0.89896 2.53125,-1.9375 0,-0.08213 -0.01853,-0.170923 -0.03125,-0.25 -0.167818,0.955565 -1.526369,1.75 -2.5,1.75 C 14.069847,40.002532 12.967657,39.041854 12.875,37.877532 Z"
             id="text1786"
             inkscape:connector-curvature="0" />
        </g>
      </g>
    </g>
  </g>
</svg>
