<?xml version="1.0" encoding="UTF-8" standalone="no"?>
<!-- Created with Inkscape (http://www.inkscape.org/) -->

<svg
   xmlns:dc="http://purl.org/dc/elements/1.1/"
   xmlns:cc="http://creativecommons.org/ns#"
   xmlns:rdf="http://www.w3.org/1999/02/22-rdf-syntax-ns#"
   xmlns:svg="http://www.w3.org/2000/svg"
   xmlns="http://www.w3.org/2000/svg"
   xmlns:xlink="http://www.w3.org/1999/xlink"
   xmlns:sodipodi="http://sodipodi.sourceforge.net/DTD/sodipodi-0.dtd"
   xmlns:inkscape="http://www.inkscape.org/namespaces/inkscape"
   width="16"
   height="16"
   id="svg2"
   sodipodi:version="0.32"
   inkscape:version="0.48.3.1 r9886"
   version="1.0"
   sodipodi:docname="system-run-symbolic.svg"
   inkscape:output_extension="org.inkscape.output.svg.inkscape">
  <defs
     id="defs4">
    <inkscape:perspective
       sodipodi:type="inkscape:persp3d"
       inkscape:vp_x="0 : 11 : 1"
       inkscape:vp_y="0 : 1000 : 0"
       inkscape:vp_z="22 : 11 : 1"
       inkscape:persp3d-origin="11 : 7.3333333 : 1"
       id="perspective23" />
    <linearGradient
       id="ShadowGradient">
      <stop
         style="stop-color:#000000;stop-opacity:1;"
         offset="0"
         id="stop3393" />
      <stop
         style="stop-color:#000000;stop-opacity:0;"
         offset="1"
         id="stop3395" />
    </linearGradient>
    <linearGradient
       id="StandardGradient">
      <stop
         style="stop-color:#000000;stop-opacity:0.86274511;"
         offset="0"
         id="stop3389" />
      <stop
         style="stop-color:#000000;stop-opacity:0.47058824;"
         offset="1"
         id="stop3391" />
    </linearGradient>
    <linearGradient
       inkscape:collect="always"
       xlink:href="#StandardGradient"
       id="linearGradient3381"
       x1="9.9375"
       y1="3"
       x2="9.9375"
       y2="19.017569"
       gradientUnits="userSpaceOnUse" />
    <linearGradient
       inkscape:collect="always"
       xlink:href="#StandardGradient"
       id="linearGradient3782"
       x1="9.75"
       y1="5"
       x2="9.75"
       y2="19.055693"
       gradientUnits="userSpaceOnUse"
       gradientTransform="translate(0,-1)" />
    <linearGradient
       inkscape:collect="always"
       xlink:href="#StandardGradient"
       id="linearGradient2400"
       gradientUnits="userSpaceOnUse"
       gradientTransform="translate(-9,10)"
       x1="9.75"
       y1="5"
       x2="9.75"
       y2="19.055693" />
    <linearGradient
       inkscape:collect="always"
       xlink:href="#StandardGradient"
       id="linearGradient3174"
       gradientUnits="userSpaceOnUse"
       gradientTransform="matrix(0.7071068,0.7071068,-0.7071068,0.7071068,0.8856249,4.1536343)"
       x1="9.75"
       y1="5"
       x2="9.75"
       y2="19.055693" />
    <linearGradient
       inkscape:collect="always"
       xlink:href="#StandardGradient"
       id="linearGradient3178"
       gradientUnits="userSpaceOnUse"
       gradientTransform="matrix(0,1,-1,0,12.009822,7.0098219)"
       x1="9.75"
       y1="5"
       x2="9.75"
       y2="19.055693" />
    <linearGradient
       inkscape:collect="always"
       xlink:href="#StandardGradient"
       id="linearGradient3182"
       gradientUnits="userSpaceOnUse"
       gradientTransform="matrix(-0.7071068,0.7071068,-0.7071068,-0.7071068,17.856188,16.895447)"
       x1="9.75"
       y1="5"
       x2="9.75"
       y2="19.055693" />
    <linearGradient
       inkscape:collect="always"
       xlink:href="#StandardGradient"
       id="linearGradient3186"
       gradientUnits="userSpaceOnUse"
       gradientTransform="matrix(-1,0,0,-1,15,28.019644)"
       x1="9.75"
       y1="5"
       x2="9.75"
       y2="19.055693" />
    <linearGradient
       inkscape:collect="always"
       xlink:href="#StandardGradient"
       id="linearGradient3190"
       gradientUnits="userSpaceOnUse"
       gradientTransform="matrix(-0.7071068,-0.7071068,0.7071068,-0.7071068,5.1143752,33.866009)"
       x1="9.75"
       y1="5"
       x2="9.75"
       y2="19.055693" />
    <linearGradient
       inkscape:collect="always"
       xlink:href="#StandardGradient"
       id="linearGradient3194"
       gradientUnits="userSpaceOnUse"
       gradientTransform="matrix(0,-1,1,0,-6.0098215,31.009821)"
       x1="9.75"
       y1="5"
       x2="9.75"
       y2="19.055693" />
    <linearGradient
       inkscape:collect="always"
       xlink:href="#StandardGradient"
       id="linearGradient3198"
       gradientUnits="userSpaceOnUse"
       gradientTransform="matrix(0.7071068,-0.7071068,0.7071068,0.7071068,-11.856186,21.124197)"
       x1="9.75"
       y1="5"
       x2="9.75"
       y2="19.055693" />
    <linearGradient
       inkscape:collect="always"
       xlink:href="#StandardGradient"
       id="linearGradient3224"
       gradientUnits="userSpaceOnUse"
       gradientTransform="matrix(0.7071068,0.7071068,-0.7071068,0.7071068,11.292893,-6.263456)"
       x1="9.75"
       y1="5"
       x2="9.75"
       y2="19.055693" />
    <linearGradient
       inkscape:collect="always"
       xlink:href="#StandardGradient"
       id="linearGradient2407"
       gradientUnits="userSpaceOnUse"
       gradientTransform="translate(-22,-5)"
       x1="9.75"
       y1="5"
       x2="9.75"
       y2="19.055693" />
    <linearGradient
       inkscape:collect="always"
       xlink:href="#StandardGradient"
       id="linearGradient3228"
       x1="6.7010484"
       y1="1"
       x2="6.7010484"
       y2="15.001111"
       gradientUnits="userSpaceOnUse" />
    <inkscape:perspective
       id="perspective3648"
       inkscape:persp3d-origin="0.5 : 0.33333333 : 1"
       inkscape:vp_z="1 : 0.5 : 1"
       inkscape:vp_y="0 : 1000 : 0"
       inkscape:vp_x="0 : 0.5 : 1"
       sodipodi:type="inkscape:persp3d" />
    <inkscape:perspective
       id="perspective2876"
       inkscape:persp3d-origin="0.5 : 0.33333333 : 1"
       inkscape:vp_z="1 : 0.5 : 1"
       inkscape:vp_y="0 : 1000 : 0"
       inkscape:vp_x="0 : 0.5 : 1"
       sodipodi:type="inkscape:persp3d" />
    <linearGradient
       y2="45.017357"
       x2="20.758585"
       y1="1"
       x1="20.758585"
       gradientTransform="matrix(0.41860332,0,0,0.41860332,0.9535131,1.3721447)"
       gradientUnits="userSpaceOnUse"
       id="linearGradient4427"
       xlink:href="#StandardGradient-9"
       inkscape:collect="always" />
    <linearGradient
       id="StandardGradient-9">
      <stop
         style="stop-color:#000000;stop-opacity:0.86274511;"
         offset="0"
         id="stop3389-8" />
      <stop
         style="stop-color:#000000;stop-opacity:0.47058824;"
         offset="1"
         id="stop3391-3" />
    </linearGradient>
    <linearGradient
       inkscape:collect="always"
       xlink:href="#StandardGradient-9"
       id="linearGradient2891"
       gradientUnits="userSpaceOnUse"
       gradientTransform="matrix(0.27906888,0,0,0.27906888,1.3023421,2.5814282)"
       x1="20.758585"
       y1="1"
       x2="20.758585"
       y2="45.017357" />
    <linearGradient
       inkscape:collect="always"
       xlink:href="#StandardGradient-9"
       id="linearGradient2893"
       gradientUnits="userSpaceOnUse"
       gradientTransform="matrix(0.27906888,0,0,0.27906888,1.3023421,1.5814282)"
       x1="20.758585"
       y1="1"
       x2="20.758585"
       y2="45.017357" />
    <linearGradient
       inkscape:collect="always"
       xlink:href="#StandardGradient-9"
       id="linearGradient3670"
       gradientUnits="userSpaceOnUse"
       gradientTransform="matrix(0.27906888,0,0,0.27906888,1.3023421,2.5814282)"
       x1="20.758585"
       y1="1"
       x2="20.758585"
       y2="45.017357" />
    <linearGradient
       inkscape:collect="always"
       xlink:href="#StandardGradient-9"
       id="linearGradient3674"
       gradientUnits="userSpaceOnUse"
       gradientTransform="matrix(0.27906888,0,0,0.27906888,1.3023421,1.5814282)"
       x1="20.758585"
       y1="1"
       x2="20.758585"
       y2="45.017357" />
    <linearGradient
       inkscape:collect="always"
       xlink:href="#StandardGradient-9"
       id="linearGradient3679"
       gradientUnits="userSpaceOnUse"
       gradientTransform="matrix(0.27906888,0,0,0.27906888,-18.697658,1.5814282)"
       x1="20.758585"
       y1="1"
       x2="20.758585"
       y2="45.017357" />
    <clipPath
       clipPathUnits="userSpaceOnUse"
       id="clipPath3686">
      <path
         style="fill:#ff00ff;fill-opacity:1;stroke:none;display:inline"
         d="m -20,0 0,16 16,0 0,-16 -16,0 z m 7.15625,2 1.6875,0 c 0.236127,0 0.40625,0.1973338 0.40625,0.4375 l 0,0.84375 c 0.422214,0.1124949 0.818378,0.2853208 1.1875,0.5 l 0.625,-0.59375 c 0.169822,-0.1698 0.426778,-0.1982162 0.59375,-0.03125 l 1.1875,1.1875 c 0.166988,0.166968 0.13857,0.4239286 -0.03125,0.59375 l -0.59375,0.625 c 0.214677,0.3691225 0.387506,0.7652869 0.5,1.1875 l 0.84375,0 C -6.197338,6.75 -6,6.9201224 -6,7.15625 l 0,1.6875 C -6,9.0798786 -6.197348,9.2500183 -6.4375,9.25 l -0.84375,0 c -0.112494,0.4222147 -0.285323,0.81838 -0.5,1.1875 l 0.59375,0.625 c 0.1698,0.169822 0.198217,0.426782 0.03125,0.59375 l -1.1875,1.1875 c -0.166968,0.166988 -0.42393,0.13857 -0.59375,-0.03125 l -0.625,-0.59375 c -0.369122,0.214678 -0.765286,0.387506 -1.1875,0.5 l 0,0.84375 c 0,0.240164 -0.170121,0.4375 -0.40625,0.4375 l -1.6875,0 C -13.07988,14 -13.25,13.802664 -13.25,13.5625 l 0,-0.84375 c -0.422213,-0.112494 -0.818378,-0.285322 -1.1875,-0.5 l -0.625,0.59375 c -0.169822,0.1698 -0.426783,0.198218 -0.59375,0.03125 l -1.1875,-1.1875 c -0.166988,-0.166968 -0.138572,-0.423928 0.03125,-0.59375 l 0.59375,-0.625 c -0.214677,-0.36912 -0.387503,-0.7652854 -0.5,-1.1875 l -0.84375,0 C -17.802664,9.25 -18,9.079878 -18,8.84375 l 0,-1.6875 C -18,6.9201214 -17.802654,6.75 -17.5625,6.75 l 0.84375,0 c 0.112497,-0.422214 0.28532,-0.8183783 0.5,-1.1875 l -0.59375,-0.625 c -0.169801,-0.1698223 -0.198217,-0.426782 -0.03125,-0.59375 l 1.1875,-1.1875 c 0.08348,-0.083478 0.202616,-0.1259428 0.3125,-0.125 0.109883,9.3e-4 0.19634,0.071341 0.28125,0.15625 l 0.625,0.59375 c 0.369122,-0.2146783 0.765286,-0.387506 1.1875,-0.5 l 0,-0.84375 C -13.25,2.1973355 -13.07988,2 -12.84375,2 z M -12,6.1875 c -1.001298,0 -1.8125,0.8112009 -1.8125,1.8125 0,1.0013006 0.811202,1.8125 1.8125,1.8125 1.001299,0 1.8125,-0.8111994 1.8125,-1.8125 0,-1.0012991 -0.811199,-1.8125 -1.8125,-1.8125 z"
         id="path3688" />
    </clipPath>
    <linearGradient
       inkscape:collect="always"
       xlink:href="#StandardGradient-9"
       id="linearGradient3987"
       gradientUnits="userSpaceOnUse"
       gradientTransform="matrix(0.27906888,0,0,0.27906888,1.3023421,1.5814282)"
       x1="20.758585"
       y1="1"
       x2="20.758585"
       y2="45.017357" />
    <linearGradient
       inkscape:collect="always"
       xlink:href="#StandardGradient-9"
       id="linearGradient3991"
       gradientUnits="userSpaceOnUse"
       gradientTransform="matrix(0.27906888,0,0,0.27906888,1.3023421,1.5814282)"
       x1="24.000017"
       y1="1.4998871"
       x2="20.758585"
       y2="45.017357" />
    <radialGradient
       inkscape:collect="always"
       xlink:href="#StandardGradient-0"
       id="radialGradient3080"
       gradientUnits="userSpaceOnUse"
       gradientTransform="matrix(1.2223365,0,0,0.88897199,-5.2743537,-3.0419905)"
       cx="11.677924"
       cy="14.670868"
       fx="11.677924"
       fy="14.670868"
       r="8.9991589" />
    <linearGradient
       id="StandardGradient-0"
       gradientTransform="scale(0.9219544,1.0846523)"
       x1="11.998966"
       y1="0.92195445"
       x2="11.998966"
       y2="19.387045"
       gradientUnits="userSpaceOnUse">
      <stop
         style="stop-color:#000000;stop-opacity:0.23529412;"
         offset="0"
         id="stop3283-4" />
      <stop
         id="stop3850"
         offset="0.69999999"
         style="stop-color:#000000;stop-opacity:0.39215686;" />
      <stop
         style="stop-color:#000000;stop-opacity:0.55;"
         offset="1"
         id="stop2651-8" />
    </linearGradient>
  </defs>
  <sodipodi:namedview
     id="base"
     pagecolor="#ffffff"
     bordercolor="#e7e7e7"
     borderopacity="1"
     inkscape:pageopacity="0.0"
     inkscape:pageshadow="2"
     inkscape:zoom="24.711919"
     inkscape:cx="15.759891"
     inkscape:cy="5.4569417"
     inkscape:document-units="px"
     inkscape:current-layer="layer1"
     showgrid="true"
     inkscape:showpageshadow="false"
     showguides="true"
     inkscape:guide-bbox="true"
     inkscape:window-width="1366"
     inkscape:window-height="716"
     inkscape:window-x="0"
     inkscape:window-y="28"
     inkscape:window-maximized="1">
    <sodipodi:guide
       orientation="1,0"
       position="0,112"
       id="guide2383" />
    <sodipodi:guide
       orientation="0,1"
       position="78.156291,0"
       id="guide2389" />
    <inkscape:grid
       type="xygrid"
       id="grid3672"
       visible="true"
       enabled="true" />
    <sodipodi:guide
       orientation="1,0"
       position="22.008699,4.1542523"
       id="guide2950" />
    <sodipodi:guide
       orientation="0,1"
       position="11.22532,22.008699"
       id="guide2952" />
  </sodipodi:namedview>
  <metadata
     id="metadata7">
    <rdf:RDF>
      <cc:Work
         rdf:about="">
        <dc:format>image/svg+xml</dc:format>
        <dc:type
           rdf:resource="http://purl.org/dc/dcmitype/StillImage" />
      </cc:Work>
    </rdf:RDF>
  </metadata>
  <g
     inkscape:label="Calque 1"
     inkscape:groupmode="layer"
     id="layer1">
    <g
       transform="matrix(0.3999718,0,0,0.3999718,-1.5993232,-403.31588)"
       id="layer1-9"
       inkscape:label="Capa 1"
       style="fill:#bebebe;fill-opacity:1">
      <path
         inkscape:connector-curvature="0"
         id="path866"
         d="m 27.016415,1013.3749 c -0.303198,0.014 -0.612118,0.053 -0.91003,0.093 0.0942,0.8213 -0.411844,1.6005 -1.236707,1.82 -0.765888,0.204 -1.562598,-0.1356 -1.936731,-0.7933 -0.449525,0.237 -0.876203,0.512 -1.283376,0.8167 0.506848,0.6661 0.468571,1.6101 -0.140004,2.2167 -0.580439,0.5786 -1.485216,0.6663 -2.146738,0.2333 -0.316525,0.486 -0.58893,0.9905 -0.816693,1.5401 0.522097,0.1956 0.883249,0.6337 1.0267,1.1434 0.118223,-0.119 0.212862,-0.2587 0.280009,-0.42 0.402293,0.1685 0.78461,0.3767 1.143371,0.6066 -0.290455,0.507 -0.224737,1.1534 0.210007,1.5868 0.462572,0.461 1.184476,0.5207 1.70339,0.1633 0.260907,0.3383 0.499965,0.6968 0.700023,1.0734 -0.573006,0.2675 -0.893526,0.9091 -0.723357,1.54 0.04057,0.1505 0.102768,0.2754 0.186673,0.3967 l 0.02333,0 c 0.03305,0.058 0.07804,0.1101 0.11667,0.1633 0.01912,0.019 0.02643,0.051 0.04667,0.07 0.300942,0.2749 0.719946,0.4053 1.143372,0.3267 0.01463,0.1063 0.01327,0.2195 0.02333,0.3267 0.235113,0.031 0.478194,0.018 0.723357,-0.047 0.232817,-0.062 0.448631,-0.1673 0.630021,-0.3033 -0.04049,-0.023 -0.100772,-0.023 -0.140005,-0.047 -0.0948,-0.06 -0.16907,-0.1418 -0.256675,-0.21 -0.08762,-0.068 -0.176658,-0.1343 -0.256675,-0.21 -0.04001,-0.038 -0.07865,-0.077 -0.116671,-0.1167 -0.03802,-0.04 -0.08053,-0.075 -0.11667,-0.1166 -0.036,-0.041 -0.05941,-0.074 -0.09334,-0.1167 -0.06786,-0.086 -0.150766,-0.1882 -0.210007,-0.28 -0.02943,-0.046 -0.04277,-0.093 -0.07,-0.14 -0.02758,-0.048 -0.06807,-0.091 -0.09334,-0.14 -0.0251,-0.049 -0.04724,-0.09 -0.07,-0.14 -0.02278,-0.05 -0.04961,-0.1127 -0.07,-0.1634 -0.02039,-0.051 -0.02871,-0.088 -0.04667,-0.14 -0.03592,-0.1034 -0.06746,-0.2198 -0.09334,-0.3267 -0.02588,-0.1068 -0.05456,-0.217 -0.07,-0.3266 -0.0077,-0.054 0.005,-0.1084 0,-0.1634 -0.005,-0.055 -0.02105,-0.1075 -0.02333,-0.1633 -0.0022,-0.054 -4.48e-4,-0.1085 0,-0.1634 5.84e-4,-0.05 -0.0028,-0.1132 0,-0.1633 7.47e-4,-0.013 -8.21e-4,-0.034 0,-0.047 0.0023,-0.036 0.01982,-0.058 0.02333,-0.093 0.0017,-0.018 -0.002,-0.029 0,-0.047 1.46e-4,0 -1.49e-4,-0.023 0,-0.023 0.0055,-0.046 0.01588,-0.093 0.02333,-0.14 0.0013,-0.01 -0.0014,-0.015 0,-0.023 0.008,-0.048 0.01322,-0.092 0.02333,-0.14 0.01216,-0.057 0.03146,-0.13 0.04667,-0.1867 0.01521,-0.057 0.02879,-0.1082 0.04667,-0.1634 0.01759,-0.055 0.04964,-0.1096 0.07,-0.1633 0.02029,-0.054 0.02393,-0.1115 0.04667,-0.1633 0.02275,-0.052 0.04488,-0.09 0.07,-0.14 0.02514,-0.05 0.06592,-0.091 0.09334,-0.14 0.02744,-0.049 0.06371,-0.1164 0.09334,-0.1634 0.02989,-0.047 0.0613,-0.095 0.09334,-0.14 0.024,-0.034 0.04485,-0.061 0.07,-0.093 0.01231,-0.016 0.03409,-0.032 0.04667,-0.047 0.01938,-0.025 0.02665,-0.046 0.04667,-0.07 0.01371,-0.016 0.03267,-0.032 0.04667,-0.047 0.03082,-0.035 0.06112,-0.083 0.09334,-0.1166 0.03792,-0.04 0.07696,-0.079 0.116671,-0.1167 0.04,-0.038 0.07495,-0.081 0.11667,-0.1167 0.04112,-0.036 0.0973,-0.06 0.140005,-0.093 0.04273,-0.034 0.07244,-0.062 0.11667,-0.093 0.04455,-0.031 0.09402,-0.064 0.140005,-0.093 0.137966,-0.088 0.294032,-0.1654 0.443348,-0.2333 0.199073,-0.09 0.392351,-0.1589 0.606687,-0.21 0.107173,-0.025 0.216741,-0.054 0.326677,-0.07 0.109928,-0.015 0.238023,-0.019 0.350011,-0.023 0.056,0 0.10696,-0.01 0.163339,0 0.225508,0.01 0.448567,0.022 0.676689,0.07 0.05696,0.013 0.106364,0.032 0.163339,0.047 0.05697,0.015 0.131166,0.029 0.186673,0.047 0.222022,0.072 0.410195,0.1693 0.606686,0.28 0.04913,0.028 0.115934,0.04 0.163339,0.07 0.0948,0.06 0.16907,0.1418 0.256675,0.21 0.04381,0.034 0.09817,0.058 0.140005,0.093 0.02092,0.018 0.04957,0.051 0.07,0.07 0.02779,0.025 0.04312,0.044 0.07,0.07 0.02958,0.028 0.06481,0.063 0.09334,0.093 0.07605,0.079 0.142166,0.1707 0.210007,0.2566 0.02545,0.032 0.06903,0.061 0.09334,0.093 0.01492,0.02 0.03221,0.026 0.04667,0.047 0.01953,0.028 0.02798,0.065 0.04667,0.093 0.03503,0.053 0.06142,0.1083 0.09334,0.1633 0.02054,0.036 0.05076,0.081 0.07,0.1167 0.0089,0.016 0.01472,0.029 0.02333,0.047 0.0221,0.043 0.04977,0.072 0.07,0.1166 0.0057,0.012 -0.0055,0.033 0,0.047 0.01669,0.037 0.05466,0.078 0.07,0.1167 0.01909,0.048 0.02972,0.091 0.04667,0.14 0.02369,0.068 0.05057,0.1407 0.07,0.21 0.01108,0.04 0.01366,0.077 0.02333,0.1167 0.02588,0.1068 0.05457,0.2171 0.07,0.3266 0.0068,0.048 -0.0047,0.091 0,0.14 5.39e-4,0.01 -4.39e-4,0.018 0,0.023 0.004,0.043 0.02101,0.073 0.02333,0.1166 2.93e-4,0.01 -2.24e-4,0.017 0,0.023 8.22e-4,0.017 -5.3e-4,0.03 0,0.047 0.0013,0.043 2.24e-4,0.097 0,0.1401 -6.6e-5,0.012 2.19e-4,0.011 0,0.023 -5.39e-4,0.03 0.0013,0.063 0,0.093 -0.0016,0.037 0.0029,0.079 0,0.1167 -2.93e-4,0.01 2.24e-4,0.021 0,0.023 -0.0036,0.043 -0.01812,0.073 -0.02333,0.1167 -3.66e-4,0.01 2.82e-4,0.023 0,0.023 -0.0012,0.01 0.0013,0.014 0,0.023 -0.0052,0.04 -0.0166,0.077 -0.02333,0.1166 -0.0084,0.05 -0.01268,0.1136 -0.02333,0.1634 -0.01209,0.057 -0.03158,0.107 -0.04667,0.1633 -0.03042,0.1135 -0.07576,0.2192 -0.116671,0.3267 -0.02031,0.053 -0.02391,0.1116 -0.04667,0.1633 -0.02278,0.052 -0.04486,0.09 -0.07,0.14 -0.01258,0.025 -0.0333,0.045 -0.04667,0.07 -0.01318,0.024 -0.03293,0.069 -0.04667,0.093 -0.02746,0.049 -0.06368,0.093 -0.09334,0.14 -0.05958,0.094 -0.118779,0.1698 -0.186673,0.2567 -0.06817,0.087 -0.134156,0.177 -0.210007,0.2566 -0.07559,0.079 -0.150825,0.162 -0.233341,0.2334 -0.04113,0.035 -0.09729,0.06 -0.140005,0.093 -0.04274,0.034 -0.07242,0.062 -0.11667,0.093 -0.04161,0.03 -0.0971,0.042 -0.140005,0.07 0.147844,0.091 0.290427,0.1629 0.466682,0.2101 0.89553,0.2399 1.824538,-0.2198 2.170072,-1.0501 0.551892,0.2313 1.07117,0.5023 1.563385,0.8167 -0.398465,0.6956 -0.29307,1.5989 0.303343,2.1934 0.427337,0.4259 1.008717,0.5968 1.563385,0.5134 0.240022,-0.3425 0.457711,-0.6965 0.653355,-1.0734 -0.667972,-0.3701 -1.0225,-1.1453 -0.816694,-1.9134 0.218883,-0.8169 1.001836,-1.3453 1.82006,-1.26 0.1147,-0.8635 0.114846,-1.7089 0,-2.5435 -0.866431,0.161 -1.727278,-0.3736 -1.960064,-1.2367 -0.217629,-0.8069 0.177211,-1.6412 0.91003,-1.9834 -0.255855,-0.4815 -0.553023,-0.944 -0.886696,-1.3767 -0.663639,0.457 -1.578489,0.4031 -2.170072,-0.1866 -0.555995,-0.5542 -0.651472,-1.405 -0.280009,-2.0535 -0.458826,-0.2928 -0.932222,-0.5311 -1.446714,-0.7466 -0.322119,0.7739 -1.171891,1.2037 -2.006733,0.98 -0.79242,-0.2123 -1.325719,-0.9648 -1.283376,-1.7501 -0.307001,-0.016 -0.606832,-0.014 -0.91003,0 z m -10.360342,7.5369 c -0.19023,0.01 -0.396438,0.021 -0.583352,0.047 0.0591,0.5155 -0.252495,1.0289 -0.770026,1.1667 -0.480527,0.1279 -0.978638,-0.1006 -1.213373,-0.5133 -0.282038,0.1487 -0.561229,0.3222 -0.816694,0.5133 0.318002,0.4179 0.288491,1.0194 -0.09334,1.4001 -0.364174,0.3629 -0.914997,0.4116 -1.330044,0.14 -0.198592,0.3048 -0.370449,0.6119 -0.51335,0.9567 0.509237,0.1908 0.796477,0.7492 0.653355,1.2833 -0.134819,0.5032 -0.616984,0.8325 -1.120037,0.7934 -0.0072,0.1697 -0.0071,0.3222 0,0.49 0.100305,0 0.209279,0.019 0.303343,0.047 0.346809,0.1013 0.622747,0.3736 0.723357,0.7467 0.136945,0.5077 -0.121158,1.0464 -0.583352,1.26 0.136749,0.3329 0.320239,0.6533 0.51335,0.9567 0.257615,-0.1828 0.567197,-0.2589 0.863362,-0.1867 0.183863,0.046 0.369736,0.1368 0.51335,0.2801 0.398202,0.3968 0.406792,1.0517 0.04667,1.47 0.284716,0.2178 0.584231,0.3932 0.91003,0.56 0.223303,-0.4399 0.739533,-0.6699 1.236708,-0.5367 0.523789,0.1403 0.861135,0.6451 0.793359,1.1667 0.324391,0.041 0.637355,0.058 0.956698,0.047 -0.03252,-0.4965 0.292981,-0.9636 0.79336,-1.0967 0.178134,-0.047 0.345647,-0.039 0.51335,0 0.337167,0.081 0.64245,0.314 0.770026,0.6534 0.357923,-0.1447 0.703197,-0.3275 1.0267,-0.5367 -0.272769,-0.4137 -0.24758,-0.9671 0.116671,-1.3301 0.273658,-0.2727 0.675689,-0.3656 1.0267,-0.28 0.140023,0.034 0.277091,0.095 0.39668,0.1867 0.200306,-0.2651 0.380694,-0.563 0.536684,-0.8634 -0.419094,-0.2322 -0.642475,-0.7081 -0.51335,-1.19 0.13733,-0.5125 0.630006,-0.8469 1.143371,-0.7934 0.07197,-0.5418 0.04878,-1.0865 -0.02333,-1.61 -0.543609,0.1008 -1.067321,-0.2285 -1.213373,-0.77 -0.136544,-0.5063 0.100239,-1.0221 0.560018,-1.2367 -0.160526,-0.3022 -0.327333,-0.5919 -0.536684,-0.8634 -0.416375,0.2867 -1.005546,0.2533 -1.376712,-0.1167 -0.348839,-0.3477 -0.3964,-0.8766 -0.163339,-1.2834 -0.287832,-0.1823 -0.610566,-0.3547 -0.933364,-0.49 -0.202102,0.4856 -0.736251,0.7704 -1.260042,0.6301 -0.497174,-0.1333 -0.819927,-0.6042 -0.793359,-1.0968 -0.192617,-0.01 -0.369789,-0.01 -0.560019,0 z m -0.02333,3.9202 c 0.06897,-0.01 0.139745,0 0.210007,0 l 0.116671,0 c 0.141486,0.01 0.276886,0.016 0.420013,0.047 0.03588,0 0.08093,0.014 0.116671,0.023 0.03574,0.01 0.05851,0.012 0.09334,0.023 0.1393,0.046 0.273398,0.094 0.39668,0.1634 0.03082,0.017 0.06359,0.051 0.09334,0.07 0.05947,0.038 0.108373,0.074 0.163338,0.1166 0.02749,0.022 0.06709,0.048 0.09334,0.07 0.01313,0.011 0.01052,0.012 0.02333,0.023 0.0018,0.01 0.02154,0 0.02333,0 0.01744,0.016 0.0298,0.03 0.04667,0.047 0.01855,0.018 0.02877,0.051 0.04667,0.07 0.04771,0.05 0.09744,0.086 0.140005,0.14 0.01597,0.02 0.03142,0.049 0.04667,0.07 0.0094,0.013 0.01427,0.033 0.02333,0.047 0.01226,0.017 0.03494,0.029 0.04667,0.047 0.02198,0.034 0.02664,0.059 0.04667,0.093 0.01288,0.022 0.03459,0.048 0.04667,0.07 0.0056,0.01 0.01793,0.036 0.02333,0.047 0.01387,0.027 0.01063,0.042 0.02333,0.07 0.0036,0.01 0.01985,0.015 0.02333,0.023 0.01047,0.024 0.01372,0.045 0.02333,0.07 0.01198,0.03 0.03602,0.063 0.04667,0.093 0.01486,0.043 0.01114,0.097 0.02334,0.14 0.0069,0.025 0.01727,0.045 0.02333,0.07 0.01623,0.067 0.03698,0.1413 0.04667,0.21 0.0043,0.03 -0.003,0.039 0,0.07 3.37e-4,0.01 -2.75e-4,0.021 0,0.023 0.0025,0.027 0.02191,0.043 0.02333,0.07 1.84e-4,0.01 -1.52e-4,0.02 0,0.023 5.36e-4,0.011 -3.35e-4,0.012 0,0.023 8.96e-4,0.027 1.49e-4,0.066 0,0.093 -4.1e-5,0.01 1.38e-4,0.017 0,0.023 -3.38e-4,0.019 6.72e-4,0.027 0,0.047 -9.71e-4,0.023 0.0019,0.045 0,0.07 -9.3e-5,0 8.4e-5,0.023 0,0.023 -1.84e-4,0.01 -0.02311,0 -0.02333,0 -0.0022,0.028 0.0033,0.043 0,0.07 -2.29e-4,0.01 1.98e-4,0.023 0,0.023 -0.0034,0.025 0.0043,0.069 0,0.093 -0.0052,0.031 -0.01665,0.062 -0.02333,0.093 -0.0076,0.035 -0.01387,0.058 -0.02333,0.093 -0.01909,0.071 -0.04433,0.1426 -0.07,0.21 -0.01274,0.034 -0.03238,0.061 -0.04667,0.093 -0.01428,0.033 -0.03089,0.062 -0.04667,0.093 -0.0079,0.016 -0.01496,0.032 -0.02333,0.047 -0.0083,0.015 -0.01471,0.033 -0.02333,0.047 -0.01723,0.031 -0.02808,0.064 -0.04667,0.093 -0.03739,0.058 -0.09741,0.1321 -0.140005,0.1866 -0.04278,0.055 -0.06908,0.09 -0.116671,0.14 -0.04743,0.05 -0.111566,0.095 -0.163338,0.14 -0.0258,0.022 -0.0432,0.05 -0.07,0.07 -0.02682,0.022 -0.06558,0.051 -0.09334,0.07 -0.11165,0.079 -0.225306,0.13 -0.350012,0.1867 -0.1249,0.058 -0.262202,0.1079 -0.396679,0.14 -0.06724,0.016 -0.117698,0.036 -0.186673,0.047 -0.06897,0.01 -0.139746,0.02 -0.210007,0.023 -0.03514,0 -0.0813,0.01 -0.116671,0 -0.141486,-0.01 -0.276887,-0.015 -0.420013,-0.047 -0.03578,-0.01 -0.08092,-0.036 -0.116671,-0.047 -0.03574,-0.01 -0.05851,-0.012 -0.09334,-0.023 -0.1393,-0.045 -0.273398,-0.094 -0.39668,-0.1633 -0.03083,-0.017 -0.06359,-0.051 -0.09334,-0.07 -0.05947,-0.038 -0.131708,-0.074 -0.186672,-0.1167 -0.05497,-0.043 -0.0898,-0.092 -0.140005,-0.14 -0.0251,-0.024 -0.04615,-0.045 -0.07,-0.07 -0.02386,-0.025 -0.04733,-0.044 -0.07,-0.07 -0.02259,-0.026 -0.04871,-0.043 -0.07,-0.07 -0.04258,-0.054 -0.0795,-0.129 -0.11667,-0.1866 -0.01847,-0.028 -0.05292,-0.04 -0.07,-0.07 -0.01731,-0.03 -0.03081,-0.063 -0.04667,-0.093 -0.01575,-0.031 -0.03238,-0.062 -0.04667,-0.093 -0.01428,-0.031 -0.01054,-0.062 -0.02333,-0.093 -0.01279,-0.032 -0.03541,-0.061 -0.04667,-0.093 -0.02254,-0.065 -0.05376,-0.1429 -0.07,-0.21 -0.01623,-0.067 -0.01365,-0.1178 -0.02333,-0.1867 -0.0048,-0.034 -0.0202,-0.082 -0.02333,-0.1166 -0.0032,-0.034 0.0015,-0.059 0,-0.093 -0.0015,-0.034 -1.49e-4,-0.082 0,-0.1167 3.67e-4,-0.031 -0.0017,-0.062 0,-0.093 4.79e-4,-0.01 -5.23e-4,-0.016 0,-0.023 0.0015,-0.022 -0.0022,-0.048 0,-0.07 0.001,-0.011 0.02206,-0.013 0.02333,-0.023 9.3e-5,0 -1.39e-4,-0.023 0,-0.023 0.0034,-0.029 -0.0047,-0.04 0,-0.07 8.22e-4,-0.01 -7.47e-4,-0.018 0,-0.023 0.005,-0.03 0.017,-0.064 0.02333,-0.093 0.0076,-0.036 0.01379,-0.081 0.02333,-0.1166 0.0095,-0.035 0.01212,-0.059 0.02333,-0.093 0.01104,-0.034 0.0339,-0.083 0.04667,-0.1166 0.01272,-0.034 0.03241,-0.061 0.04667,-0.093 0.01428,-0.033 0.03091,-0.062 0.04667,-0.093 0.01577,-0.032 0.02947,-0.063 0.04667,-0.093 0.01721,-0.031 0.02808,-0.064 0.04667,-0.093 0.01876,-0.029 0.0499,-0.064 0.07,-0.093 0.01506,-0.021 0.03088,-0.025 0.04667,-0.047 0.0018,0 -0.0018,-0.023 0,-0.023 0.0077,-0.01 0.01545,-0.014 0.02333,-0.023 0.01216,-0.016 0.01078,-0.031 0.02333,-0.047 0.0086,-0.01 0.03789,-0.014 0.04667,-0.023 0.01934,-0.022 0.02646,-0.049 0.04667,-0.07 0.0238,-0.025 0.04509,-0.047 0.07,-0.07 0.0251,-0.024 0.04382,-0.048 0.07,-0.07 0.0258,-0.022 0.06654,-0.049 0.09334,-0.07 0.02681,-0.021 0.04225,-0.027 0.07,-0.047 0.02795,-0.02 0.06448,-0.051 0.09334,-0.07 0.08656,-0.055 0.186327,-0.098 0.28001,-0.14 0.124901,-0.057 0.238868,-0.1079 0.373345,-0.1401 0.06724,-0.016 0.141032,-0.036 0.210007,-0.047 z m 10.897026,0.84 c -0.278391,0.013 -0.543155,0.056 -0.816693,0.093 0.08649,0.7543 -0.385993,1.4785 -1.143371,1.6801 -0.386774,0.103 -0.788075,0.027 -1.120037,-0.14 -0.0095,0.2183 0.0058,0.4336 -0.02333,0.6533 -0.639788,-0.066 -1.252231,0.3414 -1.423381,0.9801 -0.160924,0.6005 0.10772,1.204 0.630021,1.4934 -0.194405,0.3744 -0.427055,0.7429 -0.676689,1.0733 -0.149039,-0.1137 -0.315511,-0.1907 -0.490016,-0.2333 -0.437453,-0.1068 -0.918992,0.01 -1.260042,0.35 -0.453952,0.4524 -0.503281,1.1411 -0.163338,1.6567 -0.251295,0.1625 -0.524473,0.3114 -0.79336,0.4434 -0.312596,0.2831 -0.729591,0.4306 -1.166705,0.3967 -0.0106,0.2483 -0.01041,0.5011 0,0.7466 0.14679,0 0.282356,0.03 0.420014,0.07 0.507536,0.1484 0.92613,0.5508 1.073369,1.0967 0.20041,0.7432 -0.163632,1.5076 -0.840028,1.8201 0.200124,0.4871 0.44075,0.9561 0.723357,1.4001 0.377006,-0.2675 0.849956,-0.3625 1.283376,-0.2567 0.269074,0.066 0.513185,0.2105 0.723357,0.42 0.582747,0.5808 0.620359,1.5113 0.09334,2.1234 0.416665,0.3188 0.876589,0.5959 1.353378,0.84 0.326794,-0.6438 1.069138,-0.9883 1.796726,-0.7933 0.766539,0.2053 1.242559,0.94 1.143371,1.7034 0.47473,0.06 0.956038,0.085 1.423381,0.07 -0.04759,-0.7267 0.411094,-1.4152 1.143371,-1.6101 0.260689,-0.069 0.5246,-0.059 0.770025,0 0.493425,0.1187 0.910004,0.4599 1.096703,0.9567 0.523801,-0.2119 1.019953,-0.4639 1.493383,-0.77 -0.399183,-0.6054 -0.323054,-1.4287 0.210006,-1.9601 0.400483,-0.3991 0.956364,-0.5454 1.470049,-0.42 0.204915,0.049 0.40834,0.1465 0.583353,0.28 0.293136,-0.388 0.565075,-0.797 0.793359,-1.2367 -0.613321,-0.3397 -0.935659,-1.0681 -0.746691,-1.7734 0.200975,-0.7501 0.90544,-1.2216 1.656721,-1.1434 0.105315,-0.7928 0.10549,-1.5905 0,-2.3567 -0.795544,0.1476 -1.582984,-0.3275 -1.796726,-1.12 -0.199823,-0.7409 0.167166,-1.5059 0.840028,-1.8201 -0.234921,-0.442 -0.51032,-0.8628 -0.816694,-1.26 -0.609342,0.4194 -1.440216,0.3547 -1.983399,-0.1867 -0.510506,-0.509 -0.597746,-1.2713 -0.256675,-1.8667 -0.421329,-0.2693 -0.88098,-0.5022 -1.353378,-0.7001 -0.295764,0.7107 -1.076855,1.1155 -1.843394,0.9101 -0.727588,-0.195 -1.205584,-0.8892 -1.166705,-1.6101 -0.281883,-0.015 -0.561637,-0.013 -0.840028,0 z m 0.303344,5.7169 c 0.05142,0 0.08824,-0.01 0.140004,0 0.207059,0.01 0.420563,0.024 0.630021,0.07 0.05229,0.013 0.111026,0.01 0.163339,0.023 0.05231,0.013 0.08904,0.03 0.140004,0.047 0.203858,0.066 0.402937,0.1549 0.583353,0.2566 0.04511,0.025 0.09648,0.066 0.140005,0.093 0.08704,0.055 0.176237,0.1007 0.256675,0.1633 0.04023,0.031 0.07826,0.061 0.11667,0.093 0.01921,0.016 0.02792,0.053 0.04667,0.07 0.02551,0.023 0.06865,0.046 0.09334,0.07 0.02716,0.026 0.04381,0.042 0.07,0.07 0.06983,0.073 0.147717,0.1544 0.210007,0.2333 0.02337,0.03 0.04768,0.063 0.07,0.093 0.0137,0.019 0.01006,0.026 0.02333,0.047 0.01794,0.025 0.05283,0.067 0.07,0.093 0.03217,0.049 0.04069,0.089 0.07,0.14 0.01886,0.032 0.05234,0.06 0.07,0.093 0.0082,0.015 0.01543,0.032 0.02333,0.047 0.02029,0.04 0.02808,0.099 0.04667,0.14 0.0052,0.011 0.01826,0.012 0.02333,0.023 0.01532,0.034 0.03259,0.058 0.04667,0.093 0.01753,0.043 0.0311,0.095 0.04667,0.14 0.02175,0.062 0.05216,0.1231 0.07,0.1867 0.01017,0.037 0.01446,0.08 0.02333,0.1167 0.02376,0.098 0.0325,0.2026 0.04667,0.3033 0.0062,0.044 0.01901,0.072 0.02333,0.1167 4.95e-4,0.01 -4.03e-4,0.019 0,0.023 0.0037,0.04 -0.0022,0.076 0,0.1167 2.68e-4,0.01 -2.24e-4,0.018 0,0.023 7.47e-4,0.016 -4.85e-4,0.03 0,0.047 0.0013,0.04 0.02356,0.077 0.02333,0.1167 -6.1e-5,0.011 2.01e-4,0.013 0,0.023 -4.94e-4,0.028 -0.02221,0.066 -0.02333,0.093 -0.0014,0.034 0.0026,0.059 0,0.093 -1.35e-4,0 1.22e-4,0.023 0,0.023 -0.0032,0.04 0.0048,0.077 0,0.1167 -0.0011,0.01 -0.02229,0.038 -0.02333,0.047 -0.0049,0.037 0.0062,0.057 0,0.093 -0.0077,0.046 -0.01355,0.094 -0.02333,0.14 -0.0111,0.052 -0.03281,0.1117 -0.04667,0.1633 -0.02793,0.1043 -0.05578,0.2047 -0.09334,0.3034 -0.01864,0.049 -0.0491,0.092 -0.07,0.14 -0.02091,0.048 -0.04691,0.094 -0.07,0.14 -0.01155,0.023 -0.01107,0.048 -0.02333,0.07 -0.0121,0.022 -0.03405,0.048 -0.04667,0.07 -0.02521,0.045 -0.04278,0.097 -0.07,0.14 -0.0547,0.086 -0.124333,0.1536 -0.186673,0.2333 -0.06259,0.08 -0.117028,0.1602 -0.186673,0.2334 -0.0694,0.072 -0.157576,0.1443 -0.233341,0.21 -0.03776,0.032 -0.07745,0.063 -0.11667,0.093 -0.03925,0.031 -0.07605,0.064 -0.116671,0.093 -0.163393,0.1159 -0.330849,0.2204 -0.51335,0.3034 -0.182785,0.083 -0.363218,0.1395 -0.560019,0.1867 -0.0984,0.023 -0.202403,0.032 -0.303343,0.047 -0.100936,0.014 -0.200519,0.042 -0.303343,0.047 -0.05142,0 -0.111572,0.01 -0.163339,0 -0.207058,-0.01 -0.420563,-0.024 -0.630021,-0.07 -0.05237,-0.011 -0.111025,-0.033 -0.163338,-0.047 -0.05231,-0.013 -0.08904,-0.031 -0.140005,-0.047 -0.203857,-0.066 -0.402937,-0.155 -0.583353,-0.2567 -0.04512,-0.025 -0.09648,-0.042 -0.140004,-0.07 -0.08704,-0.055 -0.152902,-0.124 -0.233341,-0.1867 -0.08045,-0.063 -0.159871,-0.1171 -0.233341,-0.1867 -0.03673,-0.035 -0.08176,-0.08 -0.116671,-0.1166 -0.03492,-0.037 -0.06015,-0.079 -0.09334,-0.1167 -0.03306,-0.038 -0.06218,-0.077 -0.09334,-0.1167 -0.0623,-0.079 -0.132279,-0.149 -0.186672,-0.2333 -0.02703,-0.042 -0.045,-0.097 -0.07,-0.14 -0.02533,-0.043 -0.04679,-0.072 -0.07,-0.1167 -0.02304,-0.045 -0.04909,-0.094 -0.07,-0.14 -0.02091,-0.046 -0.05128,-0.093 -0.07,-0.14 -0.01872,-0.047 -0.03018,-0.092 -0.04667,-0.14 -0.03297,-0.095 -0.06957,-0.182 -0.09334,-0.28 -0.02376,-0.098 -0.0325,-0.2028 -0.04667,-0.3034 -0.007,-0.049 -0.01874,-0.1128 -0.02333,-0.1633 -0.0046,-0.051 0.0021,-0.089 0,-0.14 -0.0021,-0.049 -3.73e-4,-0.1129 0,-0.1633 5.36e-4,-0.046 -0.0025,-0.094 0,-0.14 6.9e-4,-0.012 -8.21e-4,-0.036 0,-0.047 0.0022,-0.032 -0.0032,-0.061 0,-0.093 0.0016,-0.016 -0.0017,-0.03 0,-0.047 0.0049,-0.043 0.0165,-0.097 0.02333,-0.14 0.0012,-0.01 -0.0012,-0.015 0,-0.023 0.0073,-0.044 0.01405,-0.072 0.02333,-0.1166 7.46e-4,-0.01 -7.3e-4,-0.02 0,-0.023 0.01117,-0.052 0.0327,-0.088 0.04667,-0.14 0.01397,-0.052 0.03026,-0.1126 0.04667,-0.1633 0.01616,-0.05 0.02798,-0.091 0.04667,-0.14 0.01862,-0.049 0.04913,-0.1157 0.07,-0.1633 0.02089,-0.048 0.04694,-0.094 0.07,-0.14 0.02308,-0.046 0.04482,-0.072 0.07,-0.1167 0.02519,-0.045 0.0428,-0.097 0.07,-0.14 0.02745,-0.043 0.06393,-0.098 0.09334,-0.14 0.02204,-0.031 0.0469,-0.039 0.07,-0.07 0.0026,-0.01 -0.0026,-0.021 0,-0.023 0.01131,-0.014 0.03512,-0.032 0.04667,-0.047 0.01779,-0.022 0.0283,-0.048 0.04667,-0.07 0.01259,-0.014 0.03382,-0.033 0.04667,-0.047 0.0283,-0.032 0.04043,-0.062 0.07,-0.093 0.03482,-0.037 0.08021,-0.059 0.116671,-0.093 0.03672,-0.035 0.07836,-0.083 0.11667,-0.1166 0.03776,-0.032 0.07746,-0.063 0.116671,-0.093 0.03923,-0.031 0.07606,-0.041 0.11667,-0.07 0.0409,-0.029 0.07444,-0.067 0.116671,-0.093 0.126677,-0.081 0.25958,-0.1477 0.396679,-0.21 0.182787,-0.083 0.386554,-0.1631 0.583353,-0.21 0.0984,-0.023 0.179069,-0.033 0.280009,-0.047 0.100934,-0.012 0.223852,-0.019 0.326678,-0.023 z"
         style="fill:#bebebe;fill-opacity:1;stroke:none" />
    </g>
  </g>
</svg>
