<?xml version="1.0" encoding="UTF-8" standalone="no"?>
<!-- Created with Inkscape (http://www.inkscape.org/) -->

<svg
   xmlns:dc="http://purl.org/dc/elements/1.1/"
   xmlns:cc="http://creativecommons.org/ns#"
   xmlns:rdf="http://www.w3.org/1999/02/22-rdf-syntax-ns#"
   xmlns:svg="http://www.w3.org/2000/svg"
   xmlns="http://www.w3.org/2000/svg"
   xmlns:sodipodi="http://sodipodi.sourceforge.net/DTD/sodipodi-0.dtd"
   xmlns:inkscape="http://www.inkscape.org/namespaces/inkscape"
   width="48"
   height="48"
   id="svg3613"
   version="1.1"
   inkscape:version="0.48.3.1 r9886"
   sodipodi:docname="gnome-run.svg">
  <defs
     id="defs3615" />
  <sodipodi:namedview
     id="base"
     pagecolor="#ffffff"
     bordercolor="#666666"
     borderopacity="1.0"
     inkscape:pageopacity="0.0"
     inkscape:pageshadow="2"
     inkscape:zoom="5.8625001"
     inkscape:cx="6.9685057"
     inkscape:cy="13.572476"
     inkscape:document-units="px"
     inkscape:current-layer="layer1"
     showgrid="false"
     inkscape:window-width="1366"
     inkscape:window-height="716"
     inkscape:window-x="0"
     inkscape:window-y="28"
     inkscape:window-maximized="1" />
  <metadata
     id="metadata3618">
    <rdf:RDF>
      <cc:Work
         rdf:about="">
        <dc:format>image/svg+xml</dc:format>
        <dc:type
           rdf:resource="http://purl.org/dc/dcmitype/StillImage" />
        <dc:title />
      </cc:Work>
    </rdf:RDF>
  </metadata>
  <g
     inkscape:label="Capa 1"
     inkscape:groupmode="layer"
     id="layer1"
     transform="translate(0,-1004.3622)">
    <path
       style="fill:#1a1a1a;fill-opacity:1;stroke:none"
       d="m 27.016192,1013.376 c -0.303176,0.014 -0.612074,0.053 -0.909965,0.093 0.09419,0.8212 -0.411815,1.6004 -1.23662,1.8199 -0.765834,0.204 -1.562488,-0.1356 -1.936595,-0.7933 -0.449493,0.237 -0.876141,0.512 -1.283285,0.8167 0.506812,0.666 0.468538,1.61 -0.139994,2.2165 -0.580398,0.5786 -1.485112,0.6663 -2.146587,0.2333 -0.316503,0.486 -0.588889,0.9904 -0.816636,1.54 0.522061,0.1956 0.883187,0.6337 1.026628,1.1433 0.118215,-0.119 0.212847,-0.2587 0.279989,-0.42 0.402265,0.1685 0.784555,0.3767 1.143291,0.6066 -0.290435,0.507 -0.224721,1.1533 0.209992,1.5867 0.462539,0.461 1.184393,0.5207 1.70327,0.1633 0.260889,0.3383 0.49993,0.6967 0.699974,1.0733 -0.572966,0.2675 -0.893463,0.909 -0.723306,1.5399 0.04057,0.1505 0.10276,0.2754 0.186659,0.3967 l 0.02333,0 c 0.03305,0.058 0.07803,0.1101 0.116662,0.1633 0.01912,0.019 0.02643,0.051 0.04667,0.07 0.300921,0.2748 0.719896,0.4052 1.143292,0.3266 0.01463,0.1063 0.01327,0.2195 0.02333,0.3267 0.235096,0.031 0.47816,0.018 0.723306,-0.047 0.232801,-0.062 0.448599,-0.1673 0.629977,-0.3033 -0.04049,-0.023 -0.100765,-0.023 -0.139996,-0.047 -0.09479,-0.06 -0.169058,-0.1418 -0.256656,-0.21 -0.08761,-0.068 -0.176646,-0.1342 -0.256657,-0.2099 -0.04001,-0.038 -0.07864,-0.077 -0.116663,-0.1167 -0.03802,-0.04 -0.08052,-0.075 -0.116662,-0.1166 -0.036,-0.041 -0.05941,-0.074 -0.09333,-0.1167 -0.06786,-0.086 -0.150756,-0.1882 -0.209992,-0.28 -0.02943,-0.046 -0.04277,-0.093 -0.07,-0.14 -0.02758,-0.048 -0.06806,-0.091 -0.09333,-0.14 -0.0251,-0.049 -0.04724,-0.09 -0.07,-0.14 -0.02278,-0.05 -0.04961,-0.1127 -0.06999,-0.1634 -0.02039,-0.051 -0.02871,-0.088 -0.04667,-0.1399 -0.03592,-0.1034 -0.06745,-0.2198 -0.09333,-0.3267 -0.02588,-0.1068 -0.05456,-0.217 -0.06999,-0.3266 -0.0077,-0.054 0.005,-0.1084 0,-0.1634 -0.005,-0.055 -0.02105,-0.1075 -0.02333,-0.1633 -0.0022,-0.054 -4.48e-4,-0.1085 0,-0.1634 5.84e-4,-0.05 -0.0028,-0.1132 0,-0.1633 7.47e-4,-0.013 -8.21e-4,-0.034 0,-0.047 0.0023,-0.036 0.01982,-0.058 0.02333,-0.093 0.0017,-0.018 -0.002,-0.029 0,-0.047 1.46e-4,0 -1.49e-4,-0.023 0,-0.023 0.0055,-0.046 0.01588,-0.093 0.02333,-0.14 0.0013,-0.01 -0.0014,-0.015 0,-0.023 0.008,-0.048 0.01322,-0.092 0.02333,-0.14 0.01216,-0.057 0.03146,-0.13 0.04667,-0.1867 0.01521,-0.057 0.02879,-0.1082 0.04667,-0.1634 0.01759,-0.055 0.04964,-0.1096 0.06999,-0.1633 0.02029,-0.054 0.02393,-0.1115 0.04667,-0.1633 0.02275,-0.052 0.04488,-0.09 0.06999,-0.14 0.02514,-0.05 0.06592,-0.091 0.09333,-0.1399 0.02744,-0.049 0.06371,-0.1164 0.09333,-0.1634 0.02989,-0.047 0.06129,-0.095 0.09333,-0.14 0.024,-0.034 0.04485,-0.061 0.07,-0.093 0.01231,-0.016 0.03409,-0.032 0.04667,-0.047 0.01938,-0.025 0.02665,-0.046 0.04667,-0.07 0.01371,-0.016 0.03267,-0.032 0.04667,-0.047 0.03082,-0.035 0.06112,-0.083 0.09333,-0.1166 0.03792,-0.04 0.07695,-0.079 0.116662,-0.1167 0.04,-0.038 0.07494,-0.081 0.116662,-0.1167 0.04112,-0.036 0.09729,-0.06 0.139995,-0.093 0.04273,-0.034 0.07243,-0.062 0.116662,-0.093 0.04455,-0.031 0.09401,-0.064 0.139995,-0.093 0.137956,-0.088 0.294011,-0.1654 0.443317,-0.2332 0.199059,-0.09 0.392323,-0.1589 0.606644,-0.21 0.107166,-0.025 0.216726,-0.054 0.326654,-0.07 0.10992,-0.015 0.238006,-0.019 0.349986,-0.023 0.056,0 0.106953,-0.01 0.163328,0 0.225492,0.01 0.448535,0.022 0.676641,0.07 0.05696,0.013 0.106357,0.032 0.163328,0.047 0.05697,0.015 0.131156,0.029 0.18666,0.047 0.222006,0.072 0.410166,0.1693 0.606643,0.2799 0.04913,0.028 0.115926,0.04 0.163327,0.07 0.09479,0.06 0.169058,0.1418 0.256657,0.21 0.04381,0.034 0.09816,0.058 0.139995,0.093 0.02092,0.018 0.04957,0.051 0.07,0.07 0.02779,0.025 0.04312,0.044 0.06999,0.07 0.02958,0.028 0.06481,0.063 0.09333,0.093 0.07604,0.079 0.142156,0.1707 0.209992,0.2566 0.02545,0.032 0.06903,0.061 0.09333,0.093 0.01492,0.02 0.03221,0.026 0.04667,0.047 0.01953,0.028 0.02798,0.065 0.04667,0.093 0.03503,0.053 0.06142,0.1083 0.09333,0.1633 0.02054,0.036 0.05076,0.081 0.07,0.1166 0.0089,0.016 0.01472,0.029 0.02333,0.047 0.0221,0.043 0.04977,0.072 0.07,0.1166 0.0057,0.012 -0.0055,0.033 0,0.047 0.01669,0.037 0.05466,0.078 0.06999,0.1167 0.01909,0.048 0.02972,0.091 0.04667,0.14 0.02369,0.068 0.05057,0.1407 0.07,0.21 0.01108,0.04 0.01366,0.077 0.02333,0.1167 0.02588,0.1068 0.05457,0.2171 0.06999,0.3266 0.0068,0.048 -0.0047,0.091 0,0.14 5.39e-4,0.01 -4.39e-4,0.018 0,0.023 0.004,0.043 0.02101,0.073 0.02333,0.1165 2.93e-4,0.01 -2.24e-4,0.017 0,0.023 8.22e-4,0.017 -5.3e-4,0.03 0,0.047 0.0013,0.043 2.24e-4,0.097 0,0.1401 -6.6e-5,0.012 2.19e-4,0.011 0,0.023 -5.39e-4,0.03 0.0013,0.063 0,0.093 -0.0016,0.037 0.0029,0.079 0,0.1167 -2.93e-4,0.01 2.24e-4,0.021 0,0.023 -0.0036,0.043 -0.01812,0.073 -0.02333,0.1167 -3.66e-4,0.01 2.82e-4,0.023 0,0.023 -0.0012,0.01 0.0013,0.014 0,0.023 -0.0052,0.04 -0.0166,0.077 -0.02333,0.1166 -0.0084,0.05 -0.01268,0.1136 -0.02333,0.1634 -0.01209,0.057 -0.03158,0.107 -0.04667,0.1633 -0.03042,0.1135 -0.07576,0.2192 -0.116663,0.3266 -0.02031,0.053 -0.02391,0.1116 -0.04667,0.1633 -0.02278,0.052 -0.04486,0.09 -0.06999,0.14 -0.01258,0.025 -0.0333,0.045 -0.04667,0.07 -0.01318,0.024 -0.03293,0.069 -0.04667,0.093 -0.02746,0.049 -0.06368,0.093 -0.09333,0.14 -0.05958,0.094 -0.11877,0.1698 -0.18666,0.2567 -0.06817,0.087 -0.134146,0.177 -0.209992,0.2566 -0.07558,0.079 -0.150814,0.162 -0.233324,0.2334 -0.04113,0.035 -0.09728,0.06 -0.139995,0.093 -0.04274,0.034 -0.07241,0.062 -0.116662,0.093 -0.04161,0.03 -0.09709,0.042 -0.139995,0.07 0.147833,0.091 0.290406,0.1629 0.466649,0.2101 0.895467,0.2399 1.824409,-0.2198 2.169919,-1.05 0.551853,0.2313 1.071094,0.5023 1.563275,0.8166 -0.398437,0.6956 -0.29305,1.5988 0.303321,2.1933 0.427307,0.4259 1.008646,0.5967 1.563275,0.5133 0.240005,-0.3424 0.457679,-0.6964 0.653309,-1.0733 -0.667925,-0.3701 -1.022428,-1.1452 -0.816637,-1.9132 0.218868,-0.8169 1.001766,-1.3452 1.819932,-1.26 0.114692,-0.8634 0.114838,-1.7087 0,-2.5433 -0.86637,0.161 -1.727156,-0.3735 -1.959926,-1.2366 -0.217613,-0.8068 0.177199,-1.6411 0.909966,-1.9832 -0.255837,-0.4815 -0.552984,-0.944 -0.886633,-1.3767 -0.663593,0.457 -1.578378,0.4031 -2.169919,-0.1865 -0.555956,-0.5542 -0.651426,-1.4049 -0.27999,-2.0534 -0.458793,-0.2928 -0.932156,-0.5311 -1.446612,-0.7465 -0.322096,0.7738 -1.171808,1.2036 -2.006591,0.9799 -0.792364,-0.2123 -1.325626,-0.9647 -1.283286,-1.75 -0.306979,-0.016 -0.606789,-0.014 -0.909966,0 z m -10.359611,7.5364 c -0.190217,0.01 -0.39641,0.021 -0.583311,0.047 0.0591,0.5154 -0.252477,1.0288 -0.769972,1.1666 -0.480493,0.1279 -0.978569,-0.1006 -1.213287,-0.5133 -0.282018,0.1487 -0.56119,0.3222 -0.816637,0.5133 0.31798,0.4179 0.288471,1.0193 -0.09333,1.4 -0.364149,0.3629 -0.914933,0.4116 -1.32995,0.14 -0.198578,0.3048 -0.370423,0.6118 -0.513314,0.9566 0.509201,0.1908 0.796421,0.7492 0.653309,1.2832 -0.13481,0.5032 -0.616941,0.8325 -1.119958,0.7934 -0.0072,0.1697 -0.0071,0.3222 0,0.4899 0.100298,0 0.209264,0.019 0.303321,0.047 0.346785,0.1013 0.622703,0.3736 0.723306,0.7467 0.136936,0.5076 -0.121149,1.0463 -0.583311,1.2599 0.13674,0.3329 0.320217,0.6532 0.513314,0.9566 0.257597,-0.1828 0.567157,-0.2589 0.863301,-0.1867 0.18385,0.046 0.36971,0.1368 0.513314,0.2801 0.398174,0.3968 0.406763,1.0516 0.04667,1.4699 0.284696,0.2178 0.58419,0.3932 0.909966,0.56 0.223287,-0.4399 0.739481,-0.6699 1.236621,-0.5367 0.523752,0.1403 0.861074,0.6451 0.793303,1.1666 0.324368,0.041 0.63731,0.058 0.95663,0.047 -0.03252,-0.4964 0.292961,-0.9635 0.793304,-1.0966 0.178122,-0.047 0.345623,-0.039 0.513314,0 0.337143,0.081 0.642405,0.314 0.769972,0.6534 0.357898,-0.1447 0.703147,-0.3275 1.026627,-0.5367 -0.272749,-0.4137 -0.247562,-0.967 0.116663,-1.33 0.273639,-0.2727 0.675642,-0.3656 1.026628,-0.28 0.140013,0.034 0.277071,0.095 0.396652,0.1867 0.200292,-0.2651 0.380667,-0.563 0.536646,-0.8633 -0.419064,-0.2322 -0.64243,-0.7081 -0.513314,-1.19 0.137321,-0.5124 0.629962,-0.8468 1.143291,-0.7933 0.07196,-0.5418 0.04878,-1.0864 -0.02333,-1.6099 -0.54357,0.1008 -1.067245,-0.2285 -1.213287,-0.7699 -0.136535,-0.5063 0.100232,-1.0221 0.559978,-1.2366 -0.160514,-0.3022 -0.32731,-0.5919 -0.536646,-0.8634 -0.416345,0.2867 -1.005475,0.2533 -1.376615,-0.1167 -0.348814,-0.3477 -0.396372,-0.8765 -0.163327,-1.2833 -0.287812,-0.1823 -0.610523,-0.3547 -0.933298,-0.49 -0.202088,0.4856 -0.7362,0.7704 -1.259954,0.6301 -0.497139,-0.1333 -0.819869,-0.6042 -0.793303,-1.0967 -0.192603,-0.01 -0.369763,-0.01 -0.559979,0 z m -0.02333,3.9199 c 0.06897,-0.01 0.139736,0 0.209993,0 l 0.116662,0 c 0.141476,0.01 0.276867,0.016 0.419984,0.047 0.03588,0 0.08092,0.014 0.116663,0.023 0.03574,0.01 0.05851,0.012 0.09333,0.023 0.13929,0.046 0.273379,0.094 0.396652,0.1634 0.03082,0.017 0.06358,0.051 0.09333,0.07 0.05947,0.038 0.108366,0.074 0.163327,0.1166 0.02749,0.022 0.06708,0.048 0.09333,0.07 0.01313,0.011 0.01052,0.012 0.02333,0.023 0.0018,0.01 0.02154,0 0.02333,0 0.01744,0.016 0.0298,0.03 0.04667,0.047 0.01855,0.018 0.02877,0.051 0.04667,0.07 0.04771,0.05 0.09743,0.086 0.139996,0.14 0.01597,0.02 0.03142,0.049 0.04667,0.07 0.0094,0.013 0.01427,0.033 0.02333,0.047 0.01226,0.017 0.03494,0.029 0.04667,0.047 0.02198,0.034 0.02664,0.059 0.04667,0.093 0.01288,0.022 0.03459,0.048 0.04667,0.07 0.0056,0.01 0.01793,0.036 0.02333,0.047 0.01387,0.027 0.01063,0.042 0.02333,0.07 0.0036,0.01 0.01985,0.015 0.02333,0.023 0.01047,0.024 0.01372,0.045 0.02333,0.07 0.01198,0.03 0.03602,0.063 0.04667,0.093 0.01486,0.043 0.01114,0.097 0.02334,0.14 0.0069,0.025 0.01727,0.045 0.02333,0.07 0.01623,0.067 0.03698,0.1413 0.04667,0.21 0.0043,0.03 -0.003,0.039 0,0.07 3.37e-4,0.01 -2.75e-4,0.021 0,0.023 0.0025,0.027 0.02191,0.043 0.02333,0.07 1.84e-4,0.01 -1.52e-4,0.02 0,0.023 5.36e-4,0.011 -3.35e-4,0.012 0,0.023 8.96e-4,0.027 1.49e-4,0.066 0,0.093 -4.1e-5,0.01 1.38e-4,0.017 0,0.023 -3.38e-4,0.019 6.72e-4,0.027 0,0.047 -9.71e-4,0.023 0.0019,0.045 0,0.07 -9.3e-5,0 8.4e-5,0.023 0,0.023 -1.84e-4,0.01 -0.02311,0 -0.02333,0 -0.0022,0.028 0.0033,0.043 0,0.07 -2.29e-4,0.01 1.98e-4,0.023 0,0.023 -0.0034,0.025 0.0043,0.069 0,0.093 -0.0052,0.031 -0.01665,0.062 -0.02333,0.093 -0.0076,0.035 -0.01387,0.058 -0.02333,0.093 -0.01909,0.071 -0.04433,0.1426 -0.06999,0.21 -0.01274,0.034 -0.03238,0.061 -0.04667,0.093 -0.01428,0.033 -0.03089,0.062 -0.04667,0.093 -0.0079,0.016 -0.01496,0.032 -0.02333,0.047 -0.0083,0.015 -0.01471,0.033 -0.02333,0.047 -0.01723,0.031 -0.02808,0.064 -0.04667,0.093 -0.03739,0.058 -0.0974,0.1321 -0.139995,0.1866 -0.04278,0.055 -0.06908,0.09 -0.116663,0.14 -0.04743,0.05 -0.111558,0.095 -0.163327,0.1399 -0.0258,0.022 -0.0432,0.05 -0.06999,0.07 -0.02682,0.022 -0.06557,0.051 -0.09333,0.07 -0.111642,0.079 -0.22529,0.13 -0.349988,0.1867 -0.124891,0.058 -0.262183,0.1079 -0.396651,0.14 -0.06724,0.016 -0.117689,0.036 -0.186659,0.047 -0.06897,0.01 -0.139737,0.02 -0.209993,0.023 -0.03514,0 -0.08129,0.01 -0.116662,0 -0.141476,-0.01 -0.276868,-0.015 -0.419984,-0.047 -0.03578,-0.01 -0.08091,-0.036 -0.116663,-0.047 -0.03574,-0.01 -0.05851,-0.012 -0.09333,-0.023 -0.13929,-0.045 -0.273379,-0.094 -0.396652,-0.1633 -0.03083,-0.017 -0.06359,-0.051 -0.09333,-0.07 -0.05947,-0.038 -0.131699,-0.074 -0.186659,-0.1167 -0.05497,-0.043 -0.08979,-0.092 -0.139995,-0.14 -0.0251,-0.024 -0.04615,-0.045 -0.07,-0.07 -0.02386,-0.025 -0.04733,-0.044 -0.07,-0.07 -0.02259,-0.026 -0.04871,-0.043 -0.06999,-0.07 -0.04258,-0.054 -0.07949,-0.129 -0.116661,-0.1866 -0.01847,-0.028 -0.05292,-0.04 -0.07,-0.07 -0.01731,-0.03 -0.03081,-0.063 -0.04667,-0.093 -0.01575,-0.031 -0.03238,-0.062 -0.04667,-0.093 -0.01428,-0.031 -0.01054,-0.062 -0.02333,-0.093 -0.01279,-0.032 -0.03541,-0.061 -0.04667,-0.093 -0.02254,-0.065 -0.05376,-0.1429 -0.07,-0.21 -0.01623,-0.067 -0.01365,-0.1178 -0.02333,-0.1867 -0.0048,-0.034 -0.0202,-0.082 -0.02333,-0.1166 -0.0032,-0.034 0.0015,-0.059 0,-0.093 -0.0015,-0.034 -1.49e-4,-0.082 0,-0.1167 3.67e-4,-0.031 -0.0017,-0.062 0,-0.093 4.79e-4,-0.01 -5.23e-4,-0.016 0,-0.023 0.0015,-0.022 -0.0022,-0.048 0,-0.07 0.001,-0.011 0.02206,-0.013 0.02333,-0.023 9.3e-5,0 -1.39e-4,-0.023 0,-0.023 0.0034,-0.029 -0.0047,-0.04 0,-0.07 8.22e-4,-0.01 -7.47e-4,-0.018 0,-0.023 0.005,-0.03 0.017,-0.064 0.02333,-0.093 0.0076,-0.036 0.01379,-0.081 0.02333,-0.1166 0.0095,-0.035 0.01212,-0.059 0.02333,-0.093 0.01104,-0.034 0.0339,-0.083 0.04667,-0.1166 0.01272,-0.034 0.03241,-0.061 0.04667,-0.093 0.01428,-0.033 0.03091,-0.062 0.04667,-0.093 0.01577,-0.032 0.02947,-0.063 0.04667,-0.093 0.01721,-0.031 0.02808,-0.064 0.04667,-0.093 0.01876,-0.029 0.0499,-0.064 0.07,-0.093 0.01506,-0.021 0.03088,-0.025 0.04667,-0.047 0.0018,0 -0.0018,-0.023 0,-0.023 0.0077,-0.01 0.01545,-0.014 0.02333,-0.023 0.01216,-0.016 0.01078,-0.031 0.02333,-0.047 0.0086,-0.01 0.03789,-0.014 0.04667,-0.023 0.01934,-0.022 0.02646,-0.049 0.04667,-0.07 0.0238,-0.025 0.04509,-0.047 0.06999,-0.07 0.0251,-0.024 0.04382,-0.048 0.07,-0.07 0.0258,-0.022 0.06654,-0.049 0.09333,-0.07 0.02681,-0.021 0.04225,-0.027 0.07,-0.047 0.02795,-0.02 0.06447,-0.051 0.09333,-0.07 0.08655,-0.055 0.186314,-0.098 0.27999,-0.14 0.124893,-0.057 0.238852,-0.1079 0.373319,-0.1401 0.06724,-0.016 0.141022,-0.036 0.209992,-0.047 z m 10.896258,0.8399 c -0.278371,0.013 -0.543116,0.056 -0.816635,0.093 0.08648,0.7543 -0.385966,1.4784 -1.143291,1.68 -0.386746,0.103 -0.788019,0.027 -1.119958,-0.14 -0.0095,0.2183 0.0058,0.4336 -0.02333,0.6533 -0.639743,-0.066 -1.252143,0.3414 -1.423281,0.98 -0.160912,0.6005 0.107713,1.2039 0.629977,1.4933 -0.194391,0.3744 -0.427025,0.7429 -0.676641,1.0732 -0.149029,-0.1137 -0.315489,-0.1907 -0.489982,-0.2332 -0.437422,-0.1068 -0.918927,0.01 -1.259953,0.3499 -0.45392,0.4524 -0.503246,1.141 -0.163326,1.6566 -0.251278,0.1625 -0.524437,0.3114 -0.793305,0.4434 -0.312574,0.2831 -0.729539,0.4305 -1.166622,0.3967 -0.0106,0.2482 -0.01041,0.501 0,0.7465 0.146779,0 0.282336,0.03 0.419984,0.07 0.5075,0.1484 0.926065,0.5508 1.073293,1.0966 0.200396,0.7432 -0.16362,1.5075 -0.839968,1.82 0.20011,0.4871 0.440719,0.956 0.723306,1.4 0.376979,-0.2675 0.849896,-0.3625 1.283285,-0.2567 0.269055,0.066 0.513149,0.2105 0.723306,0.42 0.582706,0.5807 0.620315,1.5112 0.09333,2.1232 0.416635,0.3188 0.876527,0.5959 1.353282,0.84 0.326771,-0.6438 1.069063,-0.9883 1.7966,-0.7933 0.766485,0.2053 1.242471,0.94 1.14329,1.7033 0.474696,0.06 0.955971,0.085 1.423281,0.07 -0.04759,-0.7266 0.411065,-1.4151 1.14329,-1.61 0.260671,-0.069 0.524563,-0.059 0.769971,0 0.49339,0.1187 0.90994,0.4599 1.096625,0.9566 0.523765,-0.2118 1.019882,-0.4638 1.493278,-0.7699 -0.399155,-0.6054 -0.323031,-1.4286 0.209991,-1.96 0.400455,-0.399 0.956297,-0.5453 1.469946,-0.4199 0.2049,0.049 0.408311,0.1465 0.583312,0.2799 0.293115,-0.3879 0.565035,-0.7969 0.793303,-1.2366 -0.613278,-0.3396 -0.935593,-1.068 -0.746639,-1.7732 0.200961,-0.7501 0.905377,-1.2216 1.656605,-1.1434 0.105307,-0.7927 0.105482,-1.5903 0,-2.3565 -0.795488,0.1476 -1.582873,-0.3275 -1.7966,-1.1199 -0.199809,-0.7409 0.167154,-1.5058 0.839969,-1.82 -0.234904,-0.442 -0.510284,-0.8627 -0.816636,-1.2599 -0.609299,0.4194 -1.440115,0.3547 -1.98326,-0.1867 -0.51047,-0.5089 -0.597703,-1.2712 -0.256657,-1.8666 -0.421299,-0.2692 -0.880917,-0.5021 -1.353282,-0.7 -0.295743,0.7106 -1.076779,1.1154 -1.843264,0.91 -0.727537,-0.195 -1.205499,-0.8891 -1.166623,-1.61 -0.281863,-0.015 -0.561597,-0.013 -0.839969,0 z m 0.303323,5.7165 c 0.05142,0 0.08823,-0.01 0.139994,0 0.207044,0.01 0.420533,0.024 0.629977,0.07 0.05229,0.013 0.111018,0.01 0.163327,0.023 0.05231,0.013 0.08903,0.03 0.139994,0.047 0.203844,0.066 0.402909,0.1549 0.583312,0.2566 0.04511,0.025 0.09647,0.066 0.139995,0.093 0.08703,0.055 0.176225,0.1007 0.256657,0.1633 0.04023,0.031 0.07825,0.061 0.116662,0.093 0.01921,0.016 0.02792,0.053 0.04667,0.07 0.02551,0.023 0.06865,0.046 0.09333,0.07 0.02716,0.026 0.04381,0.042 0.06999,0.07 0.06983,0.073 0.147707,0.1544 0.209992,0.2333 0.02337,0.03 0.04768,0.063 0.07,0.093 0.0137,0.019 0.01006,0.026 0.02333,0.047 0.01794,0.025 0.05283,0.067 0.06999,0.093 0.03217,0.049 0.04069,0.089 0.06999,0.14 0.01886,0.032 0.05234,0.06 0.07,0.093 0.0082,0.015 0.01543,0.032 0.02333,0.047 0.02029,0.04 0.02808,0.099 0.04667,0.14 0.0052,0.011 0.01826,0.012 0.02333,0.023 0.01532,0.034 0.03259,0.058 0.04667,0.093 0.01753,0.043 0.0311,0.095 0.04667,0.14 0.02175,0.062 0.05216,0.1231 0.06999,0.1867 0.01017,0.037 0.01446,0.08 0.02333,0.1167 0.02376,0.098 0.0325,0.2026 0.04667,0.3033 0.0062,0.044 0.01901,0.072 0.02333,0.1166 4.95e-4,0.01 -4.03e-4,0.019 0,0.023 0.0037,0.04 -0.0022,0.076 0,0.1167 2.68e-4,0.01 -2.24e-4,0.018 0,0.023 7.47e-4,0.016 -4.85e-4,0.03 0,0.047 0.0013,0.04 0.02356,0.077 0.02333,0.1167 -6.1e-5,0.011 2.01e-4,0.013 0,0.023 -4.94e-4,0.028 -0.02221,0.066 -0.02333,0.093 -0.0014,0.034 0.0026,0.059 0,0.093 -1.35e-4,0 1.22e-4,0.023 0,0.023 -0.0032,0.04 0.0048,0.077 0,0.1167 -0.0011,0.01 -0.02229,0.038 -0.02333,0.047 -0.0049,0.037 0.0062,0.057 0,0.093 -0.0077,0.046 -0.01355,0.094 -0.02333,0.14 -0.0111,0.052 -0.03281,0.1117 -0.04667,0.1633 -0.02793,0.1043 -0.05578,0.2047 -0.09333,0.3033 -0.01864,0.049 -0.0491,0.092 -0.07,0.14 -0.02091,0.048 -0.04691,0.094 -0.06999,0.14 -0.01155,0.023 -0.01107,0.048 -0.02333,0.07 -0.0121,0.022 -0.03405,0.048 -0.04667,0.07 -0.02521,0.045 -0.04278,0.097 -0.07,0.14 -0.0547,0.086 -0.124324,0.1536 -0.18666,0.2333 -0.06258,0.08 -0.117019,0.1602 -0.18666,0.2334 -0.0694,0.072 -0.157564,0.1443 -0.233324,0.21 -0.03776,0.032 -0.07745,0.063 -0.116662,0.093 -0.03925,0.031 -0.07604,0.064 -0.116663,0.093 -0.163381,0.1159 -0.330825,0.2204 -0.513313,0.3034 -0.182773,0.083 -0.363193,0.1395 -0.55998,0.1867 -0.09839,0.023 -0.202389,0.032 -0.303322,0.047 -0.100928,0.014 -0.200504,0.042 -0.303321,0.047 -0.05142,0 -0.111564,0.01 -0.163328,0 -0.207043,-0.01 -0.420533,-0.024 -0.629976,-0.07 -0.05237,-0.011 -0.111017,-0.033 -0.163327,-0.047 -0.05231,-0.013 -0.08903,-0.031 -0.139995,-0.047 -0.203843,-0.066 -0.402909,-0.155 -0.583312,-0.2567 -0.04512,-0.025 -0.09647,-0.042 -0.139994,-0.07 -0.08703,-0.055 -0.152891,-0.124 -0.233324,-0.1866 -0.08045,-0.063 -0.15986,-0.1171 -0.233325,-0.1867 -0.03673,-0.035 -0.08175,-0.08 -0.116663,-0.1166 -0.03492,-0.037 -0.06015,-0.079 -0.09333,-0.1167 -0.03306,-0.038 -0.06218,-0.077 -0.09333,-0.1167 -0.0623,-0.079 -0.132269,-0.149 -0.186658,-0.2333 -0.02703,-0.042 -0.045,-0.097 -0.07,-0.14 -0.02533,-0.043 -0.04679,-0.072 -0.06999,-0.1167 -0.02304,-0.045 -0.04909,-0.094 -0.07,-0.14 -0.02091,-0.046 -0.05128,-0.093 -0.06999,-0.14 -0.01872,-0.047 -0.03018,-0.092 -0.04667,-0.1399 -0.03297,-0.095 -0.06957,-0.182 -0.09333,-0.28 -0.02376,-0.098 -0.0325,-0.2028 -0.04667,-0.3034 -0.007,-0.049 -0.01874,-0.1128 -0.02333,-0.1633 -0.0046,-0.051 0.0021,-0.089 0,-0.14 -0.0021,-0.049 -3.73e-4,-0.1129 0,-0.1633 5.36e-4,-0.046 -0.0025,-0.094 0,-0.14 6.9e-4,-0.012 -8.21e-4,-0.036 0,-0.047 0.0022,-0.032 -0.0032,-0.061 0,-0.093 0.0016,-0.016 -0.0017,-0.03 0,-0.047 0.0049,-0.043 0.0165,-0.097 0.02333,-0.14 0.0012,-0.01 -0.0012,-0.015 0,-0.023 0.0073,-0.044 0.01405,-0.072 0.02333,-0.1166 7.46e-4,-0.01 -7.3e-4,-0.02 0,-0.023 0.01117,-0.052 0.0327,-0.088 0.04667,-0.14 0.01397,-0.052 0.03026,-0.1126 0.04667,-0.1633 0.01616,-0.05 0.02798,-0.091 0.04667,-0.14 0.01862,-0.049 0.04913,-0.1157 0.06999,-0.1633 0.02089,-0.048 0.04694,-0.094 0.06999,-0.14 0.02308,-0.046 0.04482,-0.072 0.07,-0.1167 0.02519,-0.045 0.0428,-0.097 0.06999,-0.14 0.02745,-0.043 0.06393,-0.098 0.09333,-0.1399 0.02204,-0.031 0.0469,-0.039 0.07,-0.07 0.0026,-0.01 -0.0026,-0.021 0,-0.023 0.01131,-0.014 0.03512,-0.032 0.04667,-0.047 0.01779,-0.022 0.0283,-0.048 0.04667,-0.07 0.01259,-0.014 0.03382,-0.033 0.04667,-0.047 0.0283,-0.032 0.04043,-0.062 0.06999,-0.093 0.03482,-0.037 0.0802,-0.059 0.116663,-0.093 0.03672,-0.035 0.07835,-0.083 0.116661,-0.1166 0.03776,-0.032 0.07746,-0.063 0.116663,-0.093 0.03923,-0.031 0.07606,-0.041 0.116662,-0.07 0.0409,-0.029 0.07444,-0.067 0.116663,-0.093 0.126668,-0.081 0.259561,-0.1477 0.396651,-0.21 0.182774,-0.083 0.386527,-0.1631 0.583312,-0.21 0.09839,-0.023 0.179056,-0.033 0.279989,-0.047 0.100927,-0.012 0.223836,-0.019 0.326655,-0.023 z"
       id="path866"
       inkscape:connector-curvature="0" />
  </g>
</svg>
