<?xml version="1.0" encoding="UTF-8" standalone="no"?>
<!-- Created with Inkscape (http://www.inkscape.org/) -->

<svg
   xmlns:dc="http://purl.org/dc/elements/1.1/"
   xmlns:cc="http://creativecommons.org/ns#"
   xmlns:rdf="http://www.w3.org/1999/02/22-rdf-syntax-ns#"
   xmlns:svg="http://www.w3.org/2000/svg"
   xmlns="http://www.w3.org/2000/svg"
   xmlns:sodipodi="http://sodipodi.sourceforge.net/DTD/sodipodi-0.dtd"
   xmlns:inkscape="http://www.inkscape.org/namespaces/inkscape"
   width="16"
   height="16"
   id="svg2"
   sodipodi:version="0.32"
   inkscape:version="0.48.3.1 r9886"
   version="1.0"
   sodipodi:docname="view-restore-symbolic.svg"
   inkscape:output_extension="org.inkscape.output.svg.inkscape">
  <defs
     id="defs4" />
  <sodipodi:namedview
     id="base"
     pagecolor="#ffffff"
     bordercolor="#9a9a9a"
     borderopacity="1"
     inkscape:pageopacity="0.0"
     inkscape:pageshadow="2"
     inkscape:zoom="24.785766"
     inkscape:cx="-14.271849"
     inkscape:cy="6.0071272"
     inkscape:document-units="px"
     inkscape:current-layer="layer3"
     showgrid="true"
     inkscape:showpageshadow="false"
     showguides="true"
     inkscape:guide-bbox="true"
     inkscape:window-width="1366"
     inkscape:window-height="716"
     inkscape:window-x="0"
     inkscape:window-y="28"
     inkscape:window-maximized="1">
    <sodipodi:guide
       orientation="1,0"
       position="0,112"
       id="guide2383" />
    <sodipodi:guide
       orientation="0,1"
       position="26.278146,128"
       id="guide2385" />
    <sodipodi:guide
       orientation="1,0"
       position="128,54.082119"
       id="guide2387" />
    <sodipodi:guide
       orientation="0,1"
       position="78.156291,0"
       id="guide2389" />
    <inkscape:grid
       type="xygrid"
       id="grid3672"
       visible="true"
       enabled="true" />
  </sodipodi:namedview>
  <metadata
     id="metadata7">
    <rdf:RDF>
      <cc:Work
         rdf:about="">
        <dc:format>image/svg+xml</dc:format>
        <dc:type
           rdf:resource="http://purl.org/dc/dcmitype/StillImage" />
      </cc:Work>
    </rdf:RDF>
  </metadata>
  <g
     inkscape:groupmode="layer"
     id="layer3"
     inkscape:label="Cross"
     style="display:inline"
     transform="translate(-3,-2.9995677)">
    <g
       transform="matrix(0.40000005,0,0,0.40000005,1.3999989,-400.34536)"
       id="layer1"
       inkscape:label="Capa 1"
       style="fill:#bebebe;fill-opacity:1">
      <g
         style="fill:#bebebe;fill-opacity:1"
         transform="matrix(1.1589142,0,0,1.1589142,36.860008,-170.12811)"
         id="g833">
        <g
           style="fill:#bebebe;fill-opacity:1"
           id="g224"
           transform="matrix(1.25,0,0,-1.25,-20.858536,1034.148)">
          <path
             d="M 0,0 -2.545,-2.545 -0.182,-4.906 2.363,-2.363 4.727,0 2.363,2.363 -0.182,4.906 -2.545,2.545 0,0 z"
             style="fill:#bebebe;fill-opacity:1;fill-rule:nonzero;stroke:none"
             id="path226"
             inkscape:connector-curvature="0" />
        </g>
        <g
           style="fill:#bebebe;fill-opacity:1"
           id="g228"
           transform="matrix(1.25,0,0,-1.25,-11.095416,1024.3849)">
          <path
             d="M 0,0 -2.545,2.543 -4.906,0.182 -2.363,-2.363 0,-4.727 2.363,-2.363 4.906,0.182 2.545,2.543 0,0 z"
             style="fill:#bebebe;fill-opacity:1;fill-rule:nonzero;stroke:none"
             id="path230"
             inkscape:connector-curvature="0" />
        </g>
        <g
           style="fill:#bebebe;fill-opacity:1"
           id="g232"
           transform="matrix(1.25,0,0,-1.25,-11.095416,1043.9112)">
          <path
             d="M 0,0 -2.545,-2.545 -4.906,-0.182 -2.363,2.363 0,4.727 2.363,2.363 4.906,-0.182 2.545,-2.545 0,0 z"
             style="fill:#bebebe;fill-opacity:1;fill-rule:nonzero;stroke:none"
             id="path234"
             inkscape:connector-curvature="0" />
        </g>
        <g
           style="fill:#bebebe;fill-opacity:1"
           id="g236"
           transform="matrix(1.25,0,0,-1.25,-1.3321658,1034.148)">
          <path
             d="M 0,0 2.543,-2.545 0.182,-4.906 -2.363,-2.363 -4.727,0 -2.363,2.363 0.182,4.906 2.543,2.545 0,0 z"
             style="fill:#bebebe;fill-opacity:1;fill-rule:nonzero;stroke:none"
             id="path238"
             inkscape:connector-curvature="0" />
        </g>
      </g>
    </g>
  </g>
</svg>
