<?xml version="1.0" encoding="UTF-8" standalone="no"?>
<!-- Created with Inkscape (http://www.inkscape.org/) -->

<svg
   xmlns:dc="http://purl.org/dc/elements/1.1/"
   xmlns:cc="http://creativecommons.org/ns#"
   xmlns:rdf="http://www.w3.org/1999/02/22-rdf-syntax-ns#"
   xmlns:svg="http://www.w3.org/2000/svg"
   xmlns="http://www.w3.org/2000/svg"
   xmlns:xlink="http://www.w3.org/1999/xlink"
   xmlns:sodipodi="http://sodipodi.sourceforge.net/DTD/sodipodi-0.dtd"
   xmlns:inkscape="http://www.inkscape.org/namespaces/inkscape"
   width="48"
   height="48"
   id="svg2"
   version="1.1"
   inkscape:version="0.48+devel r12149"
   sodipodi:docname="podcast.svg">
  <defs
     id="defs4">
    <linearGradient
       id="linearGradient944"
       inkscape:collect="always">
      <stop
         id="stop946"
         offset="0"
         style="stop-color:#b467f8;stop-opacity:1" />
      <stop
         id="stop948"
         offset="1"
         style="stop-color:#340890;stop-opacity:1" />
    </linearGradient>
    <linearGradient
       inkscape:collect="always"
       id="linearGradient910">
      <stop
         style="stop-color:#ffffff;stop-opacity:1;"
         offset="0"
         id="stop912" />
      <stop
         style="stop-color:#ffffff;stop-opacity:0;"
         offset="1"
         id="stop914" />
    </linearGradient>
    <linearGradient
       inkscape:collect="always"
       id="linearGradient891">
      <stop
         style="stop-color:#ffffff;stop-opacity:1;"
         offset="0"
         id="stop893" />
      <stop
         style="stop-color:#ffffff;stop-opacity:0;"
         offset="1"
         id="stop895" />
    </linearGradient>
    <linearGradient
       inkscape:collect="always"
       id="linearGradient2538">
      <stop
         style="stop-color:#ffffff;stop-opacity:1;"
         offset="0"
         id="stop2540" />
      <stop
         style="stop-color:#ffffff;stop-opacity:0;"
         offset="1"
         id="stop2542" />
    </linearGradient>
    <linearGradient
       id="linearGradient2525"
       inkscape:collect="always">
      <stop
         id="stop2527"
         offset="0"
         style="stop-color:#e1d4f9;stop-opacity:1" />
      <stop
         id="stop2529"
         offset="1"
         style="stop-color:#9ad2f7;stop-opacity:1" />
    </linearGradient>
    <linearGradient
       inkscape:collect="always"
       id="linearGradient868">
      <stop
         style="stop-color:#49179f;stop-opacity:1"
         offset="0"
         id="stop870" />
      <stop
         style="stop-color:#8644d2;stop-opacity:1"
         offset="1"
         id="stop872" />
    </linearGradient>
    <linearGradient
       y2="-1004.986"
       x2="28.107494"
       y1="-1053.0693"
       x1="28.107494"
       gradientUnits="userSpaceOnUse"
       id="linearGradient862"
       xlink:href="#linearGradient868"
       inkscape:collect="always"
       gradientTransform="translate(-4.6325686e-8,-1.9691406e-5)" />
    <linearGradient
       inkscape:collect="always"
       xlink:href="#linearGradient2525"
       id="linearGradient2517"
       x1="25.013901"
       y1="1038.0433"
       x2="25.013901"
       y2="1025.3153"
       gradientUnits="userSpaceOnUse"
       gradientTransform="matrix(1.0450669,0,0,1.0450669,-1.0979348,-40.757934)" />
    <radialGradient
       inkscape:collect="always"
       xlink:href="#linearGradient2538"
       id="radialGradient2544"
       cx="24.242846"
       cy="23.790611"
       fx="24.242846"
       fy="23.790611"
       r="2.3422911"
       gradientUnits="userSpaceOnUse"
       gradientTransform="matrix(1.4912398,0,0,1.4912398,-12.065876,996.50127)" />
    <linearGradient
       inkscape:collect="always"
       xlink:href="#linearGradient2538"
       id="linearGradient2550"
       gradientUnits="userSpaceOnUse"
       x1="20.437498"
       y1="1032.3622"
       x2="21.843748"
       y2="1032.0184"
       gradientTransform="matrix(1.0450669,0,0,1.0450669,-1.1010237,-40.757934)" />
    <linearGradient
       inkscape:collect="always"
       xlink:href="#linearGradient868"
       id="linearGradient2576"
       gradientUnits="userSpaceOnUse"
       x1="25.013901"
       y1="1038.0433"
       x2="25.013901"
       y2="1025.3153"
       gradientTransform="matrix(1.0450669,0,0,1.0450669,-1.0979348,-40.757934)" />
    <linearGradient
       inkscape:collect="always"
       xlink:href="#linearGradient2538"
       id="linearGradient2586"
       gradientUnits="userSpaceOnUse"
       gradientTransform="matrix(-1.0450669,0,0,1.0450669,49.068366,-40.757934)"
       x1="20.437498"
       y1="1032.3622"
       x2="21.843748"
       y2="1032.0184" />
    <radialGradient
       inkscape:collect="always"
       xlink:href="#linearGradient2538"
       id="radialGradient853"
       gradientUnits="userSpaceOnUse"
       gradientTransform="matrix(1.4912398,0,0,1.4912398,-12.065876,996.50127)"
       cx="24.173161"
       cy="22.667896"
       fx="24.173161"
       fy="22.667896"
       r="2.3422911" />
    <linearGradient
       inkscape:collect="always"
       xlink:href="#linearGradient868"
       id="linearGradient881"
       x1="24.1875"
       y1="1024.0497"
       x2="24.1875"
       y2="1017.8622"
       gradientUnits="userSpaceOnUse"
       gradientTransform="matrix(1.0450669,0,0,1.0450669,-1.0979348,-40.757934)" />
    <linearGradient
       inkscape:collect="always"
       xlink:href="#linearGradient2525"
       id="linearGradient885"
       gradientUnits="userSpaceOnUse"
       x1="24.1875"
       y1="1024.0497"
       x2="24.1875"
       y2="1017.8622"
       gradientTransform="matrix(1.0450669,0,0,1.0450669,-1.0979348,-40.757934)" />
    <radialGradient
       inkscape:collect="always"
       xlink:href="#linearGradient891"
       id="radialGradient897"
       cx="24.012871"
       cy="1018.3842"
       fx="24.012871"
       fy="1018.3842"
       r="2.1387095"
       gradientTransform="matrix(1.1519577,0,0,1.0009228,-3.6646898,4.9013743)"
       gradientUnits="userSpaceOnUse" />
    <linearGradient
       inkscape:collect="always"
       xlink:href="#linearGradient910"
       id="linearGradient916"
       x1="25.125"
       y1="3.375"
       x2="25.125"
       y2="26.125"
       gradientUnits="userSpaceOnUse"
       gradientTransform="matrix(1.0450669,0,0,1.0450669,-1.0979348,1008.8678)" />
    <radialGradient
       inkscape:collect="always"
       xlink:href="#linearGradient944"
       id="radialGradient942"
       cx="24"
       cy="-1039.3622"
       fx="24"
       fy="-1039.3622"
       r="24"
       gradientUnits="userSpaceOnUse"
       gradientTransform="matrix(1.421875,1.37692e-6,-1.4172693e-6,1.4635417,-10.126473,481.78765)" />
  </defs>
  <sodipodi:namedview
     id="base"
     pagecolor="#ffffff"
     bordercolor="#666666"
     borderopacity="1.0"
     inkscape:pageopacity="0.0"
     inkscape:pageshadow="2"
     inkscape:zoom="8"
     inkscape:cx="7.1607766"
     inkscape:cy="29.091017"
     inkscape:document-units="px"
     inkscape:current-layer="layer1"
     showgrid="false"
     inkscape:window-width="1366"
     inkscape:window-height="714"
     inkscape:window-x="0"
     inkscape:window-y="30"
     inkscape:window-maximized="1">
    <inkscape:grid
       type="xygrid"
       id="grid3850" />
  </sodipodi:namedview>
  <metadata
     id="metadata7">
    <rdf:RDF>
      <cc:Work
         rdf:about="">
        <dc:format>image/svg+xml</dc:format>
        <dc:type
           rdf:resource="http://purl.org/dc/dcmitype/StillImage" />
        <dc:title></dc:title>
      </cc:Work>
    </rdf:RDF>
  </metadata>
  <g
     inkscape:label="Capa 1"
     inkscape:groupmode="layer"
     id="layer1"
     transform="translate(0,-1004.3622)">
    <rect
       transform="scale(1,-1)"
       ry="1.9445436"
       y="-1052.3622"
       x="4.6325681e-08"
       height="48"
       width="48"
       id="rect940"
       style="fill:url(#radialGradient942);fill-opacity:1;stroke:none;display:inline;filter:url(#filter6731)" />
    <rect
       style="fill:url(#linearGradient862);fill-opacity:1;stroke:none;display:inline;filter:url(#filter6731);opacity:0.5"
       id="rect2991-1"
       width="48"
       height="48"
       x="4.6325681e-08"
       y="-1052.3622"
       ry="1.9445436"
       transform="scale(1,-1)" />
    <path
       inkscape:connector-curvature="0"
       style="fill:#000000;fill-opacity:1;stroke:none;display:inline;filter:url(#filter6731)"
       d="m -4.6325686e-8,1049.3622 0,1.0625 c 0,1.0773 0.860222996325686,1.9375 1.937500046325686,1.9375 l 44.125,0 c 1.077277,0 1.9375,-0.8602 1.9375,-1.9375 l 0,-1.0625 c 0,1.0773 -0.860223,1.9375 -1.9375,1.9375 l -44.125,0 C 0.86022295,1051.2997 -4.6325686e-8,1050.4395 -4.6325686e-8,1049.3622 Z"
       id="rect846" />
    <path
       inkscape:connector-curvature="0"
       style="fill:#ffffff;fill-opacity:0.5372549;stroke:none;display:inline;filter:url(#filter6731)"
       d="m 2.53125,1005.0185 c -0.917089,0 -1.67114705,0.6395 -1.84375005,1.5 C 1.023112,1006.2386 1.462012,1006.081 1.9375,1006.081 l 44.125,0 c 0.475488,0 0.914388,0.1576 1.25,0.4375 -0.172603,-0.8605 -0.926662,-1.5 -1.84375,-1.5 L 2.53125,1005.0185 Z"
       id="path7515" />
    <path
       inkscape:connector-curvature="0"
       style="fill:#000000;fill-opacity:0.39215686;stroke:none;display:inline;filter:url(#filter6731)"
       d="m 1.9375,1004.3622 c -1.07727705,0 -1.937500046325685,0.8602 -1.937500046325685,1.9375 l 0,43.0625 c 0,0.7934 0.480022996325685,1.449 1.156250046325685,1.75 -0.30934205,-0.3333 -0.50000005,-0.7824 -0.50000005,-1.2812 l 0,-42.9375 c 0,-1.0482 0.82689905,-1.875 1.87500005,-1.875 l 42.9375,0 c 1.048101,0 1.875,0.8268 1.875,1.875 l 0,42.9375 c 0,0.4988 -0.190658,0.9479 -0.5,1.2812 0.676226,-0.301 1.15625,-0.9566 1.15625,-1.75 l 0,-43.0625 c 0,-1.0773 -0.860223,-1.9375 -1.9375,-1.9375 L 1.9375,1004.3622 Z"
       id="rect4280" />
    <g
       id="g1800">
      <path
         id="path899"
         d="m 23.983671,1012.3622 c -7.601093,0 -13.716503,6.1481 -13.716503,13.7492 0,7.6011 6.11541,13.7818 13.716503,13.7818 7.601093,0 13.749161,-6.1807 13.749161,-13.7818 C 37.732832,1018.5103 31.584764,1012.3622 23.983671,1012.3622 z m 0,2.4494 c 6.240089,0 11.299786,5.0597 11.299786,11.2998 0,6.2401 -5.059697,11.2998 -11.299786,11.2998 -6.240088,0 -11.267128,-5.0597 -11.267128,-11.2998 C 12.716543,1019.8713 17.743583,1014.8116 23.983671,1014.8116 z m 0,2.6127 c -4.788865,0 -8.65446,3.8982 -8.65446,8.6871 0,4.7889 3.865595,8.6871 8.65446,8.6871 4.788865,0 8.687118,-3.8982 8.687118,-8.6871 C 32.670789,1021.3225 28.772536,1017.4243 23.983671,1017.4243 z m 0,2.482 c 3.427862,0 6.205085,2.7773 6.205085,6.2051 0,3.4278 -2.777223,6.2377 -6.205085,6.2377 -3.427862,0 -6.172427,-2.8099 -6.172427,-6.2377 C 17.811244,1022.6836 20.555809,1019.9063 23.983671,1019.9063 Z"
         style="opacity:0.647;fill:url(#linearGradient916);fill-opacity:1;stroke:none"
         inkscape:connector-curvature="0" />
      <g
         id="g1779">
        <path
           style="fill:#000000;fill-opacity:0.23545293;fill-rule:nonzero;stroke:none;display:inline;filter:url(#filter6731)"
           d="m 20.346454,1032.2185 c -0.06318,0.1374 -0.144373,0.2934 -0.168389,0.4572 -0.01865,0.1316 0,0.2738 0,0.4573 8.43e-4,2.6198 1.784927,10.2211 1.784927,10.222 0,0 0.09488,0.6205 0.841948,0.6205 l 2.357451,0 c 0.747916,0 0.841099,-0.6189 0.841948,-0.6205 0,0 1.784927,-7.6023 1.784927,-10.222 0,-0.1835 0.01943,-0.3257 0,-0.4573 -0.02403,-0.1638 -0.105204,-0.3196 -0.168389,-0.4572 0.0187,0.1316 0.03368,0.2738 0.03368,0.4572 0,2.6198 -1.717571,10.222 -1.717571,10.222 -8.18e-4,0 -0.08835,0.6206 -0.80827,0.6206 l -2.290097,0 c -0.719099,0 -0.808268,-0.6206 -0.808268,-0.6206 0,-8e-4 -1.716761,-7.6021 -1.717573,-10.222 C 20.312776,1032.4923 20.3285,1032.3501 20.346454,1032.2185 Z"
           id="path2560"
           inkscape:connector-curvature="0" />
        <path
           id="path2574"
           d="m 23.968814,1030.5139 c -0.240935,0.012 -3.385436,0.031 -3.659263,1.9576 -0.01809,0.1316 -0.0274,0.2917 -0.0274,0.4751 8.19e-4,2.6199 1.735981,10.2163 1.735981,10.2171 0,0 0.08415,0.6077 0.808601,0.6077 l 2.31388,0 c 0.725273,0 0.807778,-0.606 0.808601,-0.6077 0,0 1.73598,-7.5973 1.73598,-10.2171 0,-0.1834 -0.0086,-0.3435 -0.02741,-0.4751 -0.273828,-1.9258 -3.418329,-1.9567 -3.659264,-1.9576 l -0.01599,0 L 23.968814,1030.5139 Z"
           style="opacity:0.47099998;fill:url(#linearGradient2576);fill-opacity:1;fill-rule:nonzero;stroke:none;display:inline;filter:url(#filter6731)"
           inkscape:connector-curvature="0" />
        <path
           style="opacity:0.41700003;fill:url(#linearGradient881);fill-opacity:1;fill-rule:nonzero;stroke:none;display:inline;filter:url(#filter6731)"
           d="m 23.998397,1022.8409 c -0.906546,0 -1.728384,0.3684 -2.321724,0.9619 -0.593338,0.5942 -0.959304,1.4126 -0.959304,2.3191 0,0.9056 0.365966,1.7275 0.959304,2.3217 0.59334,0.5935 1.415182,0.9594 2.321724,0.9594 0.905623,0 1.72583,-0.3659 2.31917,-0.9594 0.594258,-0.5942 0.959305,-1.4161 0.959305,-2.3217 0,-0.9065 -0.365047,-1.7249 -0.959305,-2.3191 C 25.724229,1023.2093 24.90402,1022.8409 23.998397,1022.8409 Z"
           id="path2509"
           inkscape:connector-curvature="0" />
        <path
           style="opacity:0.647;fill:url(#linearGradient2517);fill-opacity:1;fill-rule:nonzero;stroke:none;display:inline;filter:url(#filter6731)"
           d="m 23.968814,1030.5139 c -0.240935,0.012 -3.385436,0.031 -3.659263,1.9576 -0.01809,0.1316 -0.0274,0.2917 -0.0274,0.4751 8.19e-4,2.6199 1.735981,10.2163 1.735981,10.2171 0,0 0.08415,0.6077 0.808601,0.6077 l 2.31388,0 c 0.725273,0 0.807778,-0.606 0.808601,-0.6077 0,0 1.73598,-7.5973 1.73598,-10.2171 0,-0.1834 -0.0086,-0.3435 -0.02741,-0.4751 -0.273828,-1.9258 -3.418329,-1.9567 -3.659264,-1.9576 l -0.01599,0 L 23.968814,1030.5139 Z"
           id="path128"
           inkscape:connector-curvature="0" />
        <path
           style="opacity:0.74100001;fill:url(#linearGradient2550);fill-opacity:1;fill-rule:nonzero;stroke:none;display:inline;filter:url(#filter6731)"
           d="m 22.902856,1030.5856 c -0.122661,0.019 -0.260683,0.069 -0.3919,0.098 0.157935,-0.033 0.279348,-0.045 0.424559,-0.065 C 22.927537,1030.6059 22.911057,1030.5977 22.902856,1030.5856 z m -0.97975,0.2613 c -0.36139,0.1268 -0.727105,0.2825 -1.012408,0.5225 C 21.198771,1031.1284 21.554254,1030.9707 21.923106,1030.8469 z m -1.012408,0.5225 c -0.146007,0.1228 -0.255424,0.2656 -0.359242,0.4245 C 20.653071,1031.6368 20.766661,1031.4898 20.910698,1031.3694 z m -0.391901,0.4898 c -0.109669,0.1843 -0.194985,0.384 -0.228608,0.6206 -0.01809,0.1316 0,0.2738 0,0.4572 8.18e-4,2.6199 1.730892,10.2212 1.730892,10.222 0,0 0.09201,0.6206 0.816459,0.6206 l 0.424558,0 0,-8.0014 c -1.591956,-0.3259 -2.775959,-1.7412 -2.775959,-3.429 C 20.486139,1032.1773 20.495793,1032.0226 20.518797,1031.8592 Z"
           id="path2546"
           inkscape:connector-curvature="0" />
        <path
           inkscape:connector-curvature="0"
           style="opacity:0.66799999;fill:url(#radialGradient2544);fill-opacity:1;stroke:none"
           d="m 23.983671,1030.5203 c -0.208711,0.01 -2.616205,0.017 -3.429126,1.2737 -0.0083,0.013 -0.02477,0.02 -0.03266,0.033 -0.02717,0.1756 -0.03266,0.3394 -0.03266,0.5225 0,1.9291 1.565358,3.4945 3.494443,3.4945 1.929085,0 3.494442,-1.5654 3.494442,-3.4945 0,-0.1831 -0.0055,-0.3469 -0.03266,-0.5225 -0.0019,-0.012 -0.03068,-0.021 -0.03266,-0.033 C 26.599875,1030.5359 24.192381,1030.521 23.983671,1030.5203 Z"
           id="path2536" />
        <path
           style="fill:#000000;fill-opacity:0.118171;fill-rule:nonzero;stroke:none;display:inline;filter:url(#filter6731)"
           d="m 20.358595,1032.4416 c -0.06116,0.1312 -0.173384,0.2706 -0.19595,0.4246 -0.01865,0.1315 0,0.2738 0,0.4572 8.43e-4,2.6198 1.796209,10.2212 1.796209,10.2221 0,0 0.10205,0.6204 0.849117,0.6204 l 2.3514,0 c 0.747916,0 0.848268,-0.6187 0.849117,-0.6204 0,0 1.796209,-7.6024 1.796209,-10.2221 0,-0.1834 0.01943,-0.3257 0,-0.4572 -0.02257,-0.154 -0.134794,-0.2933 -0.19595,-0.4246 0.0197,0.071 0.05438,0.1518 0.06532,0.2286 0.01884,0.1316 0,0.2738 0,0.4572 0,2.6198 -1.730892,10.2221 -1.730892,10.2221 -8.22e-4,0 -0.09118,0.6205 -0.816458,0.6205 l -2.286084,0 c -0.724452,0 -0.816459,-0.6205 -0.816459,-0.6205 0,-8e-4 -1.730073,-7.6022 -1.730892,-10.2221 0,-0.1834 -0.01809,-0.3256 0,-0.4572 C 20.304206,1032.5934 20.338893,1032.5125 20.358595,1032.4416 Z"
           id="path2565"
           inkscape:connector-curvature="0" />
        <path
           inkscape:connector-curvature="0"
           id="path2570"
           d="m 20.358595,1032.6379 c -0.06116,0.1312 -0.173384,0.2706 -0.19595,0.4245 -0.01865,0.1316 0,0.2738 0,0.4572 8.43e-4,2.6199 1.796209,10.2213 1.796209,10.2221 0,0 0.10205,0.6205 0.849117,0.6205 l 2.3514,0 c 0.747916,0 0.848268,-0.6188 0.849117,-0.6205 0,0 1.796209,-7.6023 1.796209,-10.2221 0,-0.1834 0.01943,-0.3256 0,-0.4572 -0.02257,-0.1539 -0.134794,-0.2932 -0.19595,-0.4245 0.0197,0.071 0.05438,0.1518 0.06532,0.2286 0.01884,0.1315 0,0.2738 0,0.4572 0,2.6198 -1.730892,10.2221 -1.730892,10.2221 -8.22e-4,0 -0.09118,0.6204 -0.816458,0.6204 l -2.286084,0 c -0.724452,0 -0.816459,-0.6204 -0.816459,-0.6204 0,-8e-4 -1.730073,-7.6022 -1.730892,-10.2221 0,-0.1834 -0.01809,-0.3257 0,-0.4572 C 20.304206,1032.7897 20.338893,1032.7088 20.358595,1032.6379 Z"
           style="fill:#000000;fill-opacity:0.05882353;fill-rule:nonzero;stroke:none;display:inline;filter:url(#filter6731)" />
        <path
           id="path2584"
           d="m 25.064485,1030.5856 c 0.122662,0.019 0.260684,0.069 0.3919,0.098 -0.157934,-0.033 -0.279347,-0.045 -0.424558,-0.065 C 25.039805,1030.6059 25.056285,1030.5977 25.064485,1030.5856 z m 0.97975,0.2613 c 0.361391,0.1268 0.727106,0.2825 1.012409,0.5225 C 26.76857,1031.1284 26.413088,1030.9707 26.044235,1030.8469 z m 1.012409,0.5225 c 0.146006,0.1228 0.255424,0.2656 0.359242,0.4245 C 27.314271,1031.6368 27.20068,1031.4898 27.056644,1031.3694 z m 0.3919,0.4898 c 0.109669,0.1843 0.194986,0.384 0.228609,0.6206 0.01809,0.1316 0,0.2738 0,0.4572 -8.19e-4,2.6199 -1.730893,10.2212 -1.730893,10.222 0,0 -0.09201,0.6206 -0.816458,0.6206 l -0.424558,0 0,-8.0014 c 1.591955,-0.3259 2.775958,-1.7412 2.775958,-3.429 C 27.481202,1032.1773 27.471548,1032.0226 27.448544,1031.8592 Z"
           style="opacity:0.74100001;fill:url(#linearGradient2586);fill-opacity:1;fill-rule:nonzero;stroke:none;display:inline;filter:url(#filter6731)"
           inkscape:connector-curvature="0" />
        <path
           inkscape:connector-curvature="0"
           id="path2636"
           d="m 23.983671,1030.5203 c -0.208711,0.01 -2.616205,0.017 -3.429126,1.2737 -0.0083,0.013 -0.02477,0.02 -0.03266,0.033 -0.02717,0.1756 -0.03266,0.3394 -0.03266,0.5225 0,1.9291 1.565358,3.4945 3.494443,3.4945 1.929085,0 3.494442,-1.5654 3.494442,-3.4945 0,-0.1831 -0.0055,-0.3469 -0.03266,-0.5225 -0.0019,-0.012 -0.03068,-0.021 -0.03266,-0.033 C 26.599875,1030.5359 24.192381,1030.521 23.983671,1030.5203 Z"
           style="opacity:0.66799999;fill:url(#radialGradient853);fill-opacity:1;stroke:none" />
        <path
           inkscape:connector-curvature="0"
           style="fill:#ffffff;fill-opacity:0.36842107;fill-rule:nonzero;stroke:none;display:inline;filter:url(#filter6731)"
           d="m 23.983671,1030.5203 c -0.240935,0.012 -3.416565,0.033 -3.690393,1.9595 -0.0077,0.056 -0.0022,0.131 0,0.1959 0.273828,-1.926 3.449458,-1.948 3.690393,-1.9595 0.240935,9e-4 3.416564,0.034 3.690392,1.9595 0.0023,-0.065 0.008,-0.1395 0,-0.1959 C 27.400235,1030.5539 24.224606,1030.5211 23.983671,1030.5203 Z"
           id="path2531" />
        <path
           id="path845"
           d="m 23.983671,1030.7121 c -0.240935,0.012 -3.416565,0.033 -3.690393,1.9595 -0.0077,0.056 -0.0022,0.131 0,0.1959 0.273828,-1.926 3.449458,-1.948 3.690393,-1.9595 0.240935,8e-4 3.416564,0.034 3.690392,1.9595 0.0023,-0.065 0.008,-0.1395 0,-0.1959 C 27.400235,1030.7457 24.224606,1030.7129 23.983671,1030.7121 Z"
           style="fill:#ffffff;fill-opacity:0.22672065;fill-rule:nonzero;stroke:none;display:inline;filter:url(#filter6731)"
           inkscape:connector-curvature="0" />
        <path
           inkscape:connector-curvature="0"
           style="fill:#ffffff;fill-opacity:0.12550605;fill-rule:nonzero;stroke:none;display:inline;filter:url(#filter6731)"
           d="m 23.983671,1030.9121 c -0.240935,0.012 -3.416565,0.033 -3.690393,1.9595 -0.0077,0.056 -0.0022,0.131 0,0.1959 0.273828,-1.926 3.449458,-1.948 3.690393,-1.9595 0.240935,9e-4 3.416564,0.034 3.690392,1.9595 0.0023,-0.065 0.008,-0.1395 0,-0.1959 C 27.400235,1030.9457 24.224606,1030.9129 23.983671,1030.9121 Z"
           id="path849" />
        <g
           id="g869"
           transform="matrix(0.1842164,0,0,0.1842164,19.575928,838.65129)">
          <path
             inkscape:connector-curvature="0"
             id="path860"
             d="m 6.21875,1018.2215 c -0.00594,0.1895 -0.03125,0.3716 -0.03125,0.5625 0,4.9158 1.9978777,9.3681 5.21875,12.5938 3.220887,3.2219 7.672679,5.2187 12.59375,5.2187 4.916085,0 9.372864,-1.9968 12.59375,-5.2187 3.225859,-3.2256 5.21875,-7.678 5.21875,-12.5938 0,-0.1909 -0.02533,-0.373 -0.03125,-0.5625 -0.146744,4.6901 -2.086807,8.9308 -5.1875,12.0313 -3.220886,3.2219 -7.677665,5.2187 -12.59375,5.2187 -4.921071,0 -9.372863,-1.9968 -12.59375,-5.2187 C 8.31035,1027.1522 6.3658439,1022.9116 6.21875,1018.2215 Z"
             style="fill:#000000;fill-opacity:0.23608793;fill-rule:nonzero;stroke:none;display:inline;filter:url(#filter6731)" />
          <path
             style="fill:#000000;fill-opacity:0.11664686;fill-rule:nonzero;stroke:none;display:inline;filter:url(#filter6731)"
             d="m 6.21875,1019.3465 c -0.00594,0.1895 -0.03125,0.3716 -0.03125,0.5625 0,4.9158 1.9978777,9.3681 5.21875,12.5938 3.220887,3.2219 7.672679,5.2187 12.59375,5.2187 4.916085,0 9.372864,-1.9968 12.59375,-5.2187 3.225859,-3.2256 5.21875,-7.678 5.21875,-12.5938 0,-0.1909 -0.02533,-0.373 -0.03125,-0.5625 -0.146744,4.6901 -2.086807,8.9308 -5.1875,12.0313 -3.220886,3.2219 -7.677665,5.2187 -12.59375,5.2187 -4.921071,0 -9.372863,-1.9968 -12.59375,-5.2187 C 8.31035,1028.2772 6.3658439,1024.0366 6.21875,1019.3465 Z"
             id="path865"
             inkscape:connector-curvature="0" />
          <path
             inkscape:connector-curvature="0"
             id="path867"
             d="m 6.25,1020.4871 c -0.00594,0.1895 -0.03125,0.3716 -0.03125,0.5625 0,4.9158 1.9978777,9.3681 5.21875,12.5938 3.220887,3.2219 7.672679,5.2187 12.59375,5.2187 4.916085,0 9.372864,-1.9968 12.59375,-5.2187 3.225859,-3.2256 5.21875,-7.678 5.21875,-12.5938 0,-0.1909 -0.02533,-0.373 -0.03125,-0.5625 -0.146744,4.6901 -2.086807,8.9308 -5.1875,12.0313 -3.220886,3.2219 -7.677665,5.2187 -12.59375,5.2187 -4.921071,0 -9.372863,-1.9968 -12.59375,-5.2187 C 8.3416,1029.4178 6.3970939,1025.1772 6.25,1020.4871 Z"
             style="fill:#000000;fill-opacity:0.05882353;fill-rule:nonzero;stroke:none;display:inline;filter:url(#filter6731)" />
        </g>
        <path
           inkscape:connector-curvature="0"
           id="path883"
           d="m 23.998397,1022.8409 c -0.906546,0 -1.728384,0.3684 -2.321724,0.9619 -0.593338,0.5942 -0.959304,1.4126 -0.959304,2.3191 0,0.9056 0.365966,1.7275 0.959304,2.3217 0.59334,0.5935 1.415182,0.9594 2.321724,0.9594 0.905623,0 1.72583,-0.3659 2.31917,-0.9594 0.594258,-0.5942 0.959305,-1.4161 0.959305,-2.3217 0,-0.9065 -0.365047,-1.7249 -0.959305,-2.3191 C 25.724229,1023.2093 24.90402,1022.8409 23.998397,1022.8409 Z"
           style="opacity:0.647;fill:url(#linearGradient885);fill-opacity:1;fill-rule:nonzero;stroke:none;display:inline;filter:url(#filter6731)" />
        <path
           style="opacity:0.647;fill:url(#radialGradient897);fill-opacity:1;fill-rule:nonzero;stroke:none;display:inline;filter:url(#filter6731)"
           d="m 23.998079,1023.1675 c -0.680984,0 -1.298339,0.2402 -1.744047,0.6277 -0.445707,0.3875 -0.720615,0.9214 -0.720615,1.513 0,0.5906 0.274908,1.1269 0.720615,1.5149 0.445708,0.387 1.063065,0.6257 1.744047,0.6257 0.680294,0 1.296419,-0.2387 1.74213,-0.6257 0.446396,-0.388 0.720614,-0.9243 0.720614,-1.5149 0,-0.5916 -0.274218,-1.1255 -0.720614,-1.513 C 25.2945,1023.4077 24.678373,1023.1675 23.998079,1023.1675 Z"
           id="path887"
           inkscape:connector-curvature="0" />
      </g>
    </g>
  </g>
</svg>
