<?xml version="1.0" encoding="UTF-8" standalone="no"?>
<!-- Created with Inkscape (http://www.inkscape.org/) -->

<svg
   xmlns:dc="http://purl.org/dc/elements/1.1/"
   xmlns:cc="http://creativecommons.org/ns#"
   xmlns:rdf="http://www.w3.org/1999/02/22-rdf-syntax-ns#"
   xmlns:svg="http://www.w3.org/2000/svg"
   xmlns="http://www.w3.org/2000/svg"
   xmlns:sodipodi="http://sodipodi.sourceforge.net/DTD/sodipodi-0.dtd"
   xmlns:inkscape="http://www.inkscape.org/namespaces/inkscape"
   width="48"
   height="48"
   id="svg3180"
   version="1.1"
   inkscape:version="0.48.3.1 r9886"
   sodipodi:docname="view-sort-descending.svg">
  <defs
     id="defs3182" />
  <sodipodi:namedview
     id="base"
     pagecolor="#ffffff"
     bordercolor="#666666"
     borderopacity="1.0"
     inkscape:pageopacity="0.0"
     inkscape:pageshadow="2"
     inkscape:zoom="5.8625"
     inkscape:cx="20.24181"
     inkscape:cy="21.637382"
     inkscape:document-units="px"
     inkscape:current-layer="layer1"
     showgrid="false"
     fit-margin-top="0"
     fit-margin-left="0"
     fit-margin-right="0"
     fit-margin-bottom="0"
     inkscape:window-width="1366"
     inkscape:window-height="716"
     inkscape:window-x="0"
     inkscape:window-y="28"
     inkscape:window-maximized="1" />
  <metadata
     id="metadata3185">
    <rdf:RDF>
      <cc:Work
         rdf:about="">
        <dc:format>image/svg+xml</dc:format>
        <dc:type
           rdf:resource="http://purl.org/dc/dcmitype/StillImage" />
        <dc:title />
      </cc:Work>
    </rdf:RDF>
  </metadata>
  <g
     inkscape:label="Capa 1"
     inkscape:groupmode="layer"
     id="layer1"
     transform="translate(-327.42857,-496.93361)">
    <path
       inkscape:connector-curvature="0"
       style="fill:#1a1a1a;fill-opacity:1;fill-rule:nonzero;stroke:none"
       d="m 339.95272,535.93361 c -2.0542,0 -3.71227,-1.65807 -3.71227,-3.71227 0,-2.05421 1.65807,-3.71228 3.71227,-3.71228 2.05421,0 3.71228,1.65807 3.71228,3.71228 0,2.0542 -1.65807,3.71227 -3.71228,3.71227 z m 0,-11.28773 c -2.0542,0 -3.71227,-1.65806 -3.71227,-3.71227 0,-2.05421 1.65807,-3.71227 3.71227,-3.71227 2.05421,0 3.71228,1.65806 3.71228,3.71227 0,2.05421 -1.65807,3.71227 -3.71228,3.71227 z m 0,-11.28772 c -2.0542,0 -3.71227,-1.65807 -3.71227,-3.71228 0,-2.0542 1.65807,-3.71227 3.71227,-3.71227 2.05421,0 3.71228,1.65807 3.71228,3.71227 0,2.05421 -1.65807,3.71228 -3.71228,3.71228 z"
       id="path833-7" />
    <path
       inkscape:connector-curvature="0"
       style="fill:#1a1a1a;fill-opacity:1;stroke:none"
       d="m 351.67705,526.39346 3.47082,0 0,6.79074 8.02817,0 0,-6.79074 3.44065,0 -3.71228,-4.3159 -3.74245,-4.31589 -3.74246,4.31589 -3.74245,4.3159 z"
       id="rect3036" />
  </g>
</svg>
