<?xml version="1.0" encoding="UTF-8" standalone="no"?>
<!-- Created with Inkscape (http://www.inkscape.org/) -->

<svg
   xmlns:dc="http://purl.org/dc/elements/1.1/"
   xmlns:cc="http://creativecommons.org/ns#"
   xmlns:rdf="http://www.w3.org/1999/02/22-rdf-syntax-ns#"
   xmlns:svg="http://www.w3.org/2000/svg"
   xmlns="http://www.w3.org/2000/svg"
   xmlns:sodipodi="http://sodipodi.sourceforge.net/DTD/sodipodi-0.dtd"
   xmlns:inkscape="http://www.inkscape.org/namespaces/inkscape"
   width="16"
   height="16"
   id="svg3049"
   version="1.1"
   inkscape:version="0.48.3.1 r9886"
   sodipodi:docname="view-list-icons-symbolic.svg">
  <defs
     id="defs3051" />
  <sodipodi:namedview
     id="base"
     pagecolor="#ffffff"
     bordercolor="#666666"
     borderopacity="1.0"
     inkscape:pageopacity="0.0"
     inkscape:pageshadow="2"
     inkscape:zoom="4.3073437"
     inkscape:cx="-27.563016"
     inkscape:cy="59.192924"
     inkscape:document-units="px"
     inkscape:current-layer="layer1"
     showgrid="false"
     fit-margin-top="0"
     fit-margin-left="0"
     fit-margin-right="0"
     fit-margin-bottom="0"
     inkscape:window-width="1366"
     inkscape:window-height="716"
     inkscape:window-x="0"
     inkscape:window-y="28"
     inkscape:window-maximized="1"
     inkscape:showpageshadow="false"
     borderlayer="true" />
  <metadata
     id="metadata3054">
    <rdf:RDF>
      <cc:Work
         rdf:about="">
        <dc:format>image/svg+xml</dc:format>
        <dc:type
           rdf:resource="http://purl.org/dc/dcmitype/StillImage" />
        <dc:title />
      </cc:Work>
    </rdf:RDF>
  </metadata>
  <g
     inkscape:label="Capa 1"
     inkscape:groupmode="layer"
     id="layer1"
     transform="translate(-421.71429,-531.79074)">
    <g
       id="g13768"
       transform="matrix(0.13333333,0,0,0.13333333,372.80471,478.63865)">
      <path
         inkscape:connector-curvature="0"
         id="path396"
         style="fill:#bebebe;fill-opacity:1;fill-rule:nonzero;stroke:none"
         d="m 404.32185,436.14067 -22.5,0 0,-22.5 22.5,0 0,22.5 z" />
      <path
         inkscape:connector-curvature="0"
         id="path398"
         style="fill:#bebebe;fill-opacity:1;fill-rule:nonzero;stroke:none"
         d="m 438.07185,436.14067 -22.5,0 0,-22.5 22.5,0 0,22.5 z" />
      <path
         inkscape:connector-curvature="0"
         id="path400"
         style="fill:#bebebe;fill-opacity:1;fill-rule:nonzero;stroke:none"
         d="m 471.82185,436.14067 -22.5,0 0,-22.5 22.5,0 0,22.5 z" />
      <path
         inkscape:connector-curvature="0"
         id="path402"
         style="fill:#bebebe;fill-opacity:1;fill-rule:nonzero;stroke:none"
         d="m 404.32185,469.89067 -22.5,0 0,-22.5 22.5,0 0,22.5 z" />
      <path
         inkscape:connector-curvature="0"
         id="path404"
         style="fill:#bebebe;fill-opacity:1;fill-rule:nonzero;stroke:none"
         d="m 438.07185,469.89067 -22.5,0 0,-22.5 22.5,0 0,22.5 z" />
      <path
         inkscape:connector-curvature="0"
         id="path406"
         style="fill:#bebebe;fill-opacity:1;fill-rule:nonzero;stroke:none"
         d="m 471.82185,469.89067 -22.5,0 0,-22.5 22.5,0 0,22.5 z" />
      <path
         inkscape:connector-curvature="0"
         id="path408"
         style="fill:#bebebe;fill-opacity:1;fill-rule:nonzero;stroke:none"
         d="m 404.32185,503.64067 -22.5,0 0,-22.5 22.5,0 0,22.5 z" />
      <path
         inkscape:connector-curvature="0"
         id="path410"
         style="fill:#bebebe;fill-opacity:1;fill-rule:nonzero;stroke:none"
         d="m 438.07185,503.64067 -22.5,0 0,-22.5 22.5,0 0,22.5 z" />
      <path
         inkscape:connector-curvature="0"
         id="path412"
         style="fill:#bebebe;fill-opacity:1;fill-rule:nonzero;stroke:none"
         d="m 471.82185,503.64067 -22.5,0 0,-22.5 22.5,0 0,22.5 z" />
    </g>
  </g>
</svg>
