<?xml version="1.0" encoding="UTF-8" standalone="no"?>
<!-- Created with Inkscape (http://www.inkscape.org/) -->

<svg
   xmlns:dc="http://purl.org/dc/elements/1.1/"
   xmlns:cc="http://creativecommons.org/ns#"
   xmlns:rdf="http://www.w3.org/1999/02/22-rdf-syntax-ns#"
   xmlns:svg="http://www.w3.org/2000/svg"
   xmlns="http://www.w3.org/2000/svg"
   xmlns:sodipodi="http://sodipodi.sourceforge.net/DTD/sodipodi-0.dtd"
   xmlns:inkscape="http://www.inkscape.org/namespaces/inkscape"
   width="48"
   height="48"
   id="svg3923"
   version="1.1"
   inkscape:version="0.48+devel r12012"
   sodipodi:docname="zoom-fit-page.svg">
  <defs
     id="defs3925" />
  <sodipodi:namedview
     id="base"
     pagecolor="#ffffff"
     bordercolor="#666666"
     borderopacity="1.0"
     inkscape:pageopacity="0.0"
     inkscape:pageshadow="2"
     inkscape:zoom="8.290827"
     inkscape:cx="14.878791"
     inkscape:cy="24.571691"
     inkscape:document-units="px"
     inkscape:current-layer="layer1"
     showgrid="false"
     fit-margin-top="0"
     fit-margin-left="0"
     fit-margin-right="0"
     fit-margin-bottom="0"
     inkscape:window-width="1366"
     inkscape:window-height="718"
     inkscape:window-x="0"
     inkscape:window-y="28"
     inkscape:window-maximized="1" />
  <metadata
     id="metadata3928">
    <rdf:RDF>
      <cc:Work
         rdf:about="">
        <dc:format>image/svg+xml</dc:format>
        <dc:type
           rdf:resource="http://purl.org/dc/dcmitype/StillImage" />
        <dc:title />
      </cc:Work>
    </rdf:RDF>
  </metadata>
  <g
     inkscape:label="Capa 1"
     inkscape:groupmode="layer"
     id="layer1"
     transform="translate(-490.28571,-542.64789)">
    <path
       style="fill:#1a1a1a;fill-opacity:1;fill-rule:nonzero;stroke:none"
       d="m 501.97321,550.71039 c -1.56671,0 -2.8125,1.2458 -2.8125,2.8125 l 0,21.75 c 0,1.5667 1.24579,2.8125 2.8125,2.8125 l 24.625,0 c 1.56671,0 2.8125,-1.2458 2.8125,-2.8125 l 0,-21.75 c 0,-1.5667 -1.24579,-2.8125 -2.8125,-2.8125 L 501.97321,550.71039 z m 12.3125,0.65625 0.0312,0.0312 -0.0625,0 L 514.28571,551.36664 z m -8.53125,4.71875 17.0625,0 0,6.75 -17.0625,0 L 505.75446,556.08539 z m 0,9.875 17.0625,0 0,6.75 -17.0625,0 L 505.75446,565.96039 z m -6.59375,11 0,0.875 0,0.75 0,0.875 c 0,1.7312 1.39375,3.125 3.125,3.125 l 24,0 c 1.73125,0 3.125,-1.3938 3.125,-3.125 l 0,-0.875 0,-0.75 0,-0.875 c 0,1.7312 -1.39375,3.125 -3.125,3.125 l -24,0 C 500.55446,580.08539 499.16071,578.69159 499.16071,576.96039 Z"
       id="path1074"
       inkscape:connector-curvature="0" />
  </g>
</svg>
