<?xml version="1.0" encoding="UTF-8" standalone="no"?>
<!-- Created with Inkscape (http://www.inkscape.org/) -->

<svg
   xmlns:dc="http://purl.org/dc/elements/1.1/"
   xmlns:cc="http://creativecommons.org/ns#"
   xmlns:rdf="http://www.w3.org/1999/02/22-rdf-syntax-ns#"
   xmlns:svg="http://www.w3.org/2000/svg"
   xmlns="http://www.w3.org/2000/svg"
   xmlns:sodipodi="http://sodipodi.sourceforge.net/DTD/sodipodi-0.dtd"
   xmlns:inkscape="http://www.inkscape.org/namespaces/inkscape"
   width="48"
   height="48"
   id="svg4415"
   version="1.1"
   inkscape:version="0.48+devel r12012"
   sodipodi:docname="zoom-out.svg">
  <defs
     id="defs4417" />
  <sodipodi:namedview
     id="base"
     pagecolor="#ffffff"
     bordercolor="#666666"
     borderopacity="1.0"
     inkscape:pageopacity="0.0"
     inkscape:pageshadow="2"
     inkscape:zoom="11.725"
     inkscape:cx="-6.8332851"
     inkscape:cy="22.12154"
     inkscape:document-units="px"
     inkscape:current-layer="layer1"
     showgrid="false"
     inkscape:window-width="1366"
     inkscape:window-height="718"
     inkscape:window-x="0"
     inkscape:window-y="28"
     inkscape:window-maximized="1" />
  <metadata
     id="metadata4420">
    <rdf:RDF>
      <cc:Work
         rdf:about="">
        <dc:format>image/svg+xml</dc:format>
        <dc:type
           rdf:resource="http://purl.org/dc/dcmitype/StillImage" />
        <dc:title />
      </cc:Work>
    </rdf:RDF>
  </metadata>
  <g
     inkscape:label="Capa 1"
     inkscape:groupmode="layer"
     id="layer1"
     transform="translate(0,-1004.3622)">
    <path
       inkscape:connector-curvature="0"
       style="fill:#1a1a1a;fill-opacity:1;fill-rule:nonzero;stroke:none"
       d="m 11.6875,1012.4247 c -1.56671,0 -2.8125,1.2458 -2.8125,2.8125 l 0,21.75 c 0,1.5667 1.24579,2.8125 2.8125,2.8125 l 24.625,0 c 1.56671,0 2.8125,-1.2458 2.8125,-2.8125 l 0,-21.75 c 0,-1.5667 -1.24579,-2.8125 -2.8125,-2.8125 L 11.6875,1012.4247 z m 3.78125,10.3125 17.0625,0 0,6.75 -17.0625,0 L 15.46875,1022.7372 z m -6.59375,15.9375 0,0.875 0,0.75 0,0.875 c 0,1.7312 1.39375,3.125 3.125,3.125 l 24,0 c 1.73125,0 3.125,-1.3938 3.125,-3.125 l 0,-0.875 0,-0.75 0,-0.875 c 0,1.7312 -1.39375,3.125 -3.125,3.125 l -24,0 C 10.26875,1041.7997 8.875,1040.4059 8.875,1038.6747 Z"
       id="path1058" />
  </g>
</svg>
