<?xml version="1.0" encoding="UTF-8" standalone="no"?>
<!-- Created with Inkscape (http://www.inkscape.org/) -->

<svg
   xmlns:dc="http://purl.org/dc/elements/1.1/"
   xmlns:cc="http://creativecommons.org/ns#"
   xmlns:rdf="http://www.w3.org/1999/02/22-rdf-syntax-ns#"
   xmlns:svg="http://www.w3.org/2000/svg"
   xmlns="http://www.w3.org/2000/svg"
   xmlns:sodipodi="http://sodipodi.sourceforge.net/DTD/sodipodi-0.dtd"
   xmlns:inkscape="http://www.inkscape.org/namespaces/inkscape"
   id="svg7384"
   height="16"
   width="16"
   version="1.1"
   inkscape:version="0.48.3.1 r9886"
   sodipodi:docname="battery-caution-symbolic.svg">
  <defs
     id="defs11" />
  <sodipodi:namedview
     pagecolor="#ffffff"
     bordercolor="#666666"
     borderopacity="1"
     objecttolerance="10"
     gridtolerance="10"
     guidetolerance="10"
     inkscape:pageopacity="0"
     inkscape:pageshadow="2"
     inkscape:window-width="1366"
     inkscape:window-height="716"
     id="namedview9"
     showgrid="false"
     inkscape:zoom="5.6568543"
     inkscape:cx="-31.253212"
     inkscape:cy="7.8442265"
     inkscape:window-x="0"
     inkscape:window-y="28"
     inkscape:window-maximized="1"
     inkscape:current-layer="svg7384" />
  <metadata
     id="metadata90">
    <rdf:RDF>
      <cc:Work
         rdf:about="">
        <dc:format>image/svg+xml</dc:format>
        <dc:type
           rdf:resource="http://purl.org/dc/dcmitype/StillImage" />
        <dc:title>Gnome Symbolic Icon Theme</dc:title>
      </cc:Work>
    </rdf:RDF>
  </metadata>
  <title
     id="title9167">Gnome Symbolic Icon Theme</title>
  <g
     id="g13019"
     transform="translate(2.1002462,2e-6)">
    <path
       sodipodi:nodetypes="cccccccccccccc"
       inkscape:connector-curvature="0"
       id="rect2985"
       d="m 1.59375,3.5 0,10.5 2.5625,0 C 3.8263166,14 3.7098364,13.754686 3.875,13.46875 L 4,13.25 l -1.65625,0 0,-9 4.5,0 0,4.0625 0.0625,-0.09375 c 0.1650651,-0.2859358 0.4290786,-0.2859358 0.59375,0 l 0.09375,0.15625 0,-4.875 z"
       style="fill:#bebebe;fill-opacity:1;stroke:none" />
    <path
       style="fill:#bebebe;fill-opacity:1;stroke:none"
       d="m 3.08863,3.1379778 3.0143755,0 0,-1.1379818 -3.0143755,0 z"
       id="path2993"
       inkscape:connector-curvature="0" />
    <rect
       transform="matrix(0,-1,1,0,0,0)"
       ry="0"
       y="3.0565448"
       x="-12.501551"
       height="3.0699794"
       width="1.5228318"
       id="rect838"
       style="fill:#ef2929;fill-opacity:1;stroke:none" />
    <g
       transform="matrix(0.165625,0,0,0.165625,0.56496909,-158.97251)"
       id="layer1-1"
       inkscape:label="Capa 1"
       style="fill:#f57900;fill-opacity:1">
      <g
         style="fill:#f57900;fill-opacity:1"
         id="_x31_1_alerts_and_states_warning"
         transform="matrix(0.52495376,0,0,0.52495376,-127.33203,212.74148)">
        <path
           id="path336"
           d="m 352.72635,1578.899 -30.891,-53.499 c -1.673,-2.905 -4.416,-2.905 -6.093,0 l -30.889,53.499 c -1.678,2.905 -0.307,5.28 3.045,5.28 l 61.785,0 c 3.35,10e-4 4.718,-2.374 3.043,-5.28 z m -29.673,-3.205 -8.523,0 0,-8.249 8.523,0 0,8.249 z m 0,-13.47 -8.523,0 0,-19.525 8.523,0 0,19.525 z"
           inkscape:connector-curvature="0"
           style="fill:#f57900;fill-opacity:1" />
      </g>
    </g>
  </g>
  <g
     transform="matrix(0.1875,0,0,0.1875,-0.29248782,-181.81792)"
     id="g13005"
     inkscape:label="Capa 1"
     style="fill:#f57900;fill-opacity:1">
    <g
       style="fill:#f57900;fill-opacity:1"
       id="g13007"
       transform="matrix(0.52495376,0,0,0.52495376,-127.33203,212.74148)" />
  </g>
</svg>
