<?xml version="1.0" encoding="UTF-8" standalone="no"?>
<!-- Created with Inkscape (http://www.inkscape.org/) -->

<svg
   xmlns:dc="http://purl.org/dc/elements/1.1/"
   xmlns:cc="http://creativecommons.org/ns#"
   xmlns:rdf="http://www.w3.org/1999/02/22-rdf-syntax-ns#"
   xmlns:svg="http://www.w3.org/2000/svg"
   xmlns="http://www.w3.org/2000/svg"
   xmlns:sodipodi="http://sodipodi.sourceforge.net/DTD/sodipodi-0.dtd"
   xmlns:inkscape="http://www.inkscape.org/namespaces/inkscape"
   width="48px"
   height="48px"
   id="svg3409"
   version="1.1"
   inkscape:version="0.48+devel r12012"
   sodipodi:docname="dropboxstatus-busy.svg">
  <defs
     id="defs3411" />
  <sodipodi:namedview
     id="base"
     pagecolor="#ffffff"
     bordercolor="#666666"
     borderopacity="1.0"
     inkscape:pageopacity="0.0"
     inkscape:pageshadow="2"
     inkscape:zoom="3.8572845"
     inkscape:cx="-47.787686"
     inkscape:cy="31.920106"
     inkscape:current-layer="layer1"
     showgrid="true"
     inkscape:grid-bbox="true"
     inkscape:document-units="px"
     inkscape:window-width="1366"
     inkscape:window-height="718"
     inkscape:window-x="0"
     inkscape:window-y="28"
     inkscape:window-maximized="1" />
  <metadata
     id="metadata3414">
    <rdf:RDF>
      <cc:Work
         rdf:about="">
        <dc:format>image/svg+xml</dc:format>
        <dc:type
           rdf:resource="http://purl.org/dc/dcmitype/StillImage" />
        <dc:title />
      </cc:Work>
    </rdf:RDF>
  </metadata>
  <g
     id="layer1"
     inkscape:label="Layer 1"
     inkscape:groupmode="layer">
    <path
       style="fill:#47a2ec;stroke:none;fill-opacity:1"
       d="m 17.066985,8 -10.16268,6.736842 6.96651,5.502392 L 23.918655,14 17.066985,8 z m -3.19617,12.239234 -6.96651,5.492823 10.16268,6.736843 6.85167,-6 L 13.870815,20.239234 Z M 30.933015,8 l -6.85168,6 10.04785,6.239234 6.96651,-5.502392 L 30.933015,8 z m 3.19617,12.239234 -10.04785,6.229666 6.85168,6 10.16268,-6.736843 L 34.129185,20.239234 z m -10.11483,7.129187 -6.92823,5.837321 -3.33015,-1.85646 0,2.526316 L 24.014355,40 l 10.25837,-6.124402 0,-2.526316 -3.33971,1.85646 L 24.014355,27.368421 Z"
       id="path899"
       inkscape:connector-curvature="0" />
  </g>
</svg>
