<?xml version="1.0" encoding="UTF-8" standalone="no"?>
<!-- Created with Inkscape (http://www.inkscape.org/) -->

<svg
   xmlns:dc="http://purl.org/dc/elements/1.1/"
   xmlns:cc="http://creativecommons.org/ns#"
   xmlns:rdf="http://www.w3.org/1999/02/22-rdf-syntax-ns#"
   xmlns:svg="http://www.w3.org/2000/svg"
   xmlns="http://www.w3.org/2000/svg"
   xmlns:sodipodi="http://sodipodi.sourceforge.net/DTD/sodipodi-0.dtd"
   xmlns:inkscape="http://www.inkscape.org/namespaces/inkscape"
   width="48"
   height="48"
   id="svg7759"
   version="1.1"
   inkscape:version="0.48+devel r12012"
   sodipodi:docname="glipper.svg">
  <defs
     id="defs7761" />
  <sodipodi:namedview
     id="base"
     pagecolor="#ffffff"
     bordercolor="#666666"
     borderopacity="1.0"
     inkscape:pageopacity="0.0"
     inkscape:pageshadow="2"
     inkscape:zoom="5.9220193"
     inkscape:cx="2.5441675"
     inkscape:cy="9.7180569"
     inkscape:document-units="px"
     inkscape:current-layer="layer1"
     showgrid="false"
     width="0px"
     height="0px"
     fit-margin-top="0"
     fit-margin-left="0"
     fit-margin-right="0"
     fit-margin-bottom="0"
     inkscape:window-width="1366"
     inkscape:window-height="718"
     inkscape:window-x="0"
     inkscape:window-y="28"
     inkscape:window-maximized="1" />
  <metadata
     id="metadata7764">
    <rdf:RDF>
      <cc:Work
         rdf:about="">
        <dc:format>image/svg+xml</dc:format>
        <dc:type
           rdf:resource="http://purl.org/dc/dcmitype/StillImage" />
        <dc:title />
      </cc:Work>
    </rdf:RDF>
  </metadata>
  <g
     inkscape:label="Capa 1"
     inkscape:groupmode="layer"
     id="layer1"
     transform="translate(-170.28572,-474.07648)">
    <path
       style="color:#000000;fill:#1a1a1a;fill-opacity:1;fill-rule:nonzero;stroke:none;stroke-width:1.39999998;marker:none;visibility:visible;display:inline;overflow:visible;enable-background:accumulate"
       d="M 10.96875 8 C 10.805766 8 10.65625 8.1182657 10.65625 8.28125 L 10.65625 39.71875 C 10.65625 39.881734 10.805766 40 10.96875 40 L 37.03125 40 C 37.194234 40 37.34375 39.881734 37.34375 39.71875 L 37.34375 15.5625 L 30.125 15.5625 C 29.96202 15.5625 29.8125 15.44423 29.8125 15.28125 L 29.8125 8 L 10.96875 8 z "
       transform="translate(170.28572,474.07648)"
       id="path3995" />
    <path
       style="color:#000000;fill:#1a1a1a;fill-opacity:1;fill-rule:nonzero;stroke:none;stroke-width:1.39999998;marker:none;visibility:visible;display:inline;overflow:visible;enable-background:accumulate"
       d="M 29.8125 8 L 37.34375 15.5625 L 37.34375 8.28125 C 37.34375 8.1182657 37.194234 8 37.03125 8 L 29.8125 8 z "
       id="rect3987"
       transform="translate(170.28572,474.07648)" />
    <path
       style="color:#000000;fill:#ffffff;fill-opacity:1;fill-rule:nonzero;stroke:none;stroke-width:1.39999998;marker:none;visibility:visible;display:inline;overflow:visible;enable-background:accumulate"
       d="m 185.7614,494.34885 c -0.34886,-0.0935 -0.70868,0.11425 -0.80215,0.46311 l -0.79853,2.98013 c -0.0935,0.34886 0.11872,0.69204 0.46759,0.78552 l 9.78945,2.62307 c 0.34888,0.0935 0.70421,-0.0976 0.79768,-0.44649 l 0.28105,-1.04887 1.86468,0.49964 -0.82082,3.06335 -6.67614,-1.78887 c -0.14367,-0.21733 -0.35529,-0.38068 -0.62789,-0.45372 l -0.0333,-0.009 c -0.59188,-0.1586 -1.19242,0.18816 -1.35101,0.78002 l -2.44909,9.14014 c -0.15859,0.59186 0.18812,1.19241 0.78,1.351 l 0.0333,0.009 c 0.59187,0.15859 1.19245,-0.18813 1.35104,-0.77999 l 2.44909,-9.14014 c 0.006,-0.0228 0.0138,-0.0439 0.0179,-0.0666 l 6.89257,1.84686 c 0.0907,0.0243 0.17011,-0.0356 0.19443,-0.12635 l 0.10707,-0.39957 0.91004,-3.39634 0.11153,-0.41623 c 0.0243,-0.0907 -0.019,-0.16565 -0.10968,-0.18996 l -2.44739,-0.65577 0.3212,-1.19872 c 0.0935,-0.34885 -0.11424,-0.70867 -0.46311,-0.80215 L 185.7614,494.34885 Z"
       id="rect3975"
       inkscape:connector-curvature="0" />
  </g>
</svg>
