<?xml version="1.0" encoding="UTF-8" standalone="no"?>
<!-- Created with Inkscape (http://www.inkscape.org/) -->

<svg
   xmlns:dc="http://purl.org/dc/elements/1.1/"
   xmlns:cc="http://creativecommons.org/ns#"
   xmlns:rdf="http://www.w3.org/1999/02/22-rdf-syntax-ns#"
   xmlns:svg="http://www.w3.org/2000/svg"
   xmlns="http://www.w3.org/2000/svg"
   xmlns:sodipodi="http://sodipodi.sourceforge.net/DTD/sodipodi-0.dtd"
   xmlns:inkscape="http://www.inkscape.org/namespaces/inkscape"
   width="48"
   height="48"
   id="svg837"
   version="1.1"
   inkscape:version="0.48+devel r12011"
   sodipodi:docname="notification-gsm-3g-full-secure.svg">
  <defs
     id="defs839" />
  <sodipodi:namedview
     id="base"
     pagecolor="#ffffff"
     bordercolor="#666666"
     borderopacity="1.0"
     inkscape:pageopacity="0.0"
     inkscape:pageshadow="2"
     inkscape:zoom="11.725"
     inkscape:cx="7.0006769"
     inkscape:cy="16.248895"
     inkscape:document-units="px"
     inkscape:current-layer="layer1"
     showgrid="false"
     width="0px"
     height="0px"
     fit-margin-top="0"
     fit-margin-left="0"
     fit-margin-right="0"
     fit-margin-bottom="0"
     inkscape:window-width="1366"
     inkscape:window-height="718"
     inkscape:window-x="0"
     inkscape:window-y="28"
     inkscape:window-maximized="1" />
  <metadata
     id="metadata842">
    <rdf:RDF>
      <cc:Work
         rdf:about="">
        <dc:format>image/svg+xml</dc:format>
        <dc:type
           rdf:resource="http://purl.org/dc/dcmitype/StillImage" />
        <dc:title />
      </cc:Work>
    </rdf:RDF>
  </metadata>
  <g
     inkscape:label="Capa 1"
     inkscape:groupmode="layer"
     id="layer1"
     transform="translate(0,-1004.3622)">
    <path
       style="fill:#1a1a1a;fill-opacity:1;fill-rule:nonzero;stroke:none"
       d="m 39.948256,1015.9342 0,24.856 4.395494,0 0,-24.856 L 39.948256,1015.9342 z m -36.292006,2.0226 3.6175294,4.7068 2.8784696,3.7732 0,14.3534 1.439229,0 0,-14.3144 2.917366,-3.8122 3.578632,-4.7067 -7.196161,0 L 3.65625,1017.9568 z m 2.489484,1.3225 4.006515,0 0,5.0569 -1.6337244,-2.0615 L 6.145734,1019.2793 z m 5.445744,0 4.045412,0 -2.411688,2.9955 -1.633724,2.1003 L 11.591478,1019.2793 z m 20.14926,2.9565 0,18.5544 4.395494,0 0,-18.5544 L 31.740738,1022.2358 z m -8.16862,6.9237 0,11.6307 4.395498,0 0,-11.6307 L 23.572118,1029.1595 z m -8.207514,6.885 0,4.7457 4.395494,0 0,-4.7457 L 15.364604,1036.0445 Z"
       id="rect808"
       inkscape:connector-curvature="0" />
    <path
       style="fill:#ffae00;fill-opacity:1;fill-rule:nonzero;stroke:none"
       d="m 38.848427,1036.0615 c -0.402615,0 -0.726614,0.324 -0.726614,0.7266 l 0,4.4171 c 0,0.04 0.01296,0.076 0.01912,0.1151 -0.234974,0.07 -0.40155,0.2772 -0.40155,0.5355 l 0,4.9907 c 0,0.3154 0.239186,0.5545 0.554521,0.5545 l 7.667697,0 c 0.315334,0 0.573643,-0.2391 0.573643,-0.5545 l 0,-4.9907 c 0,-0.2517 -0.175962,-0.4598 -0.40155,-0.5355 0.0062,-0.038 0.01912,-0.075 0.01912,-0.1151 l 0,-4.4171 c 0,-0.4026 -0.323999,-0.7266 -0.726614,-0.7266 L 38.848427,1036.0615 z m 1.319379,1.2238 3.919895,0 c 0.505053,0 0.917829,0.4128 0.917829,0.9179 l 0,3.0785 -5.755553,0 0,-3.0785 C 39.249977,1037.6981 39.662754,1037.2853 40.167806,1037.2853 z m 1.969509,6.2336 c 0.407332,0 0.745736,0.3384 0.745736,0.7457 0,0.4073 -0.338404,0.7457 -0.745736,0.7457 -0.407333,0 -0.745737,-0.3384 -0.745737,-0.7457 C 41.391578,1043.8573 41.729982,1043.5189 42.137315,1043.5189 Z"
       id="rect846"
       inkscape:connector-curvature="0" />
  </g>
</svg>
