<?xml version="1.0" encoding="UTF-8" standalone="no"?>
<!-- Created with Inkscape (http://www.inkscape.org/) -->

<svg
   xmlns:dc="http://purl.org/dc/elements/1.1/"
   xmlns:cc="http://creativecommons.org/ns#"
   xmlns:rdf="http://www.w3.org/1999/02/22-rdf-syntax-ns#"
   xmlns:svg="http://www.w3.org/2000/svg"
   xmlns="http://www.w3.org/2000/svg"
   xmlns:sodipodi="http://sodipodi.sourceforge.net/DTD/sodipodi-0.dtd"
   xmlns:inkscape="http://www.inkscape.org/namespaces/inkscape"
   width="48"
   height="48"
   id="svg837"
   version="1.1"
   inkscape:version="0.48+devel r12011"
   sodipodi:docname="notification-gsm-3g-none.svg">
  <defs
     id="defs839" />
  <sodipodi:namedview
     id="base"
     pagecolor="#ffffff"
     bordercolor="#666666"
     borderopacity="1.0"
     inkscape:pageopacity="0.0"
     inkscape:pageshadow="2"
     inkscape:zoom="8.2908271"
     inkscape:cx="28.991458"
     inkscape:cy="18.538648"
     inkscape:document-units="px"
     inkscape:current-layer="layer1"
     showgrid="false"
     width="0px"
     height="0px"
     fit-margin-top="0"
     fit-margin-left="0"
     fit-margin-right="0"
     fit-margin-bottom="0"
     inkscape:window-width="1366"
     inkscape:window-height="718"
     inkscape:window-x="0"
     inkscape:window-y="28"
     inkscape:window-maximized="1" />
  <metadata
     id="metadata842">
    <rdf:RDF>
      <cc:Work
         rdf:about="">
        <dc:format>image/svg+xml</dc:format>
        <dc:type
           rdf:resource="http://purl.org/dc/dcmitype/StillImage" />
        <dc:title />
      </cc:Work>
    </rdf:RDF>
  </metadata>
  <g
     inkscape:label="Capa 1"
     inkscape:groupmode="layer"
     id="layer1"
     transform="translate(0,-1004.3622)">
    <path
       style="fill:#1a1a1a;fill-opacity:0.53725493;fill-rule:nonzero;stroke:none"
       d="m 39.948256,1015.9342 0,24.856 4.395494,0 0,-24.856 L 39.948256,1015.9342 Z"
       id="path820" />
    <path
       style="fill:#1a1a1a;fill-opacity:1;fill-rule:nonzero;stroke:none"
       d="M 3.65625 13.59375 L 7.28125 18.3125 L 10.15625 22.0625 L 10.15625 36.4375 L 11.59375 36.4375 L 11.59375 22.125 L 14.5 18.3125 L 18.09375 13.59375 L 10.90625 13.59375 L 3.65625 13.59375 z M 6.15625 14.90625 L 10.15625 14.90625 L 10.15625 19.96875 L 8.53125 17.90625 L 6.15625 14.90625 z M 11.59375 14.90625 L 15.625 14.90625 L 13.21875 17.90625 L 11.59375 20 L 11.59375 14.90625 z "
       transform="translate(0,1004.3622)"
       id="path818" />
    <path
       style="fill:#1a1a1a;fill-opacity:0.53725493;fill-rule:nonzero;stroke:none"
       d="m 31.740738,1022.2358 0,18.5544 4.395494,0 0,-18.5544 L 31.740738,1022.2358 Z"
       id="path812" />
    <path
       style="fill:#1a1a1a;fill-opacity:0.53725493;fill-rule:nonzero;stroke:none"
       d="m 23.572118,1029.1595 0,11.6307 4.395498,0 0,-11.6307 L 23.572118,1029.1595 Z"
       id="path810" />
    <path
       style="fill:#1a1a1a;fill-opacity:0.53725493;fill-rule:nonzero;stroke:none"
       d="m 15.364604,1036.0445 0,4.7457 4.395494,0 0,-4.7457 L 15.364604,1036.0445 Z"
       id="rect808" />
  </g>
</svg>
