<?xml version="1.0" encoding="UTF-8" standalone="no"?>
<!-- Created with Inkscape (http://www.inkscape.org/) -->

<svg
   xmlns:dc="http://purl.org/dc/elements/1.1/"
   xmlns:cc="http://creativecommons.org/ns#"
   xmlns:rdf="http://www.w3.org/1999/02/22-rdf-syntax-ns#"
   xmlns:svg="http://www.w3.org/2000/svg"
   xmlns="http://www.w3.org/2000/svg"
   xmlns:sodipodi="http://sodipodi.sourceforge.net/DTD/sodipodi-0.dtd"
   xmlns:inkscape="http://www.inkscape.org/namespaces/inkscape"
   width="48"
   height="48"
   id="svg2"
   version="1.1"
   inkscape:version="0.48+devel r12149"
   sodipodi:docname="dialog-information.svg">
  <defs
     id="defs4">
    <linearGradient
       id="linearGradient908">
      <stop
         style="stop-color:#00aad4;stop-opacity:1"
         offset="0"
         id="stop910" />
      <stop
         style="stop-color:#55ddff;stop-opacity:1"
         offset="1"
         id="stop912" />
    </linearGradient>
    <linearGradient
       id="linearGradient908-8">
      <stop
         id="stop910-6"
         offset="0"
         style="stop-color:#4d78c6;stop-opacity:1" />
      <stop
         id="stop912-7"
         offset="1"
         style="stop-color:#adc1e6;stop-opacity:1" />
    </linearGradient>
  </defs>
  <sodipodi:namedview
     id="base"
     pagecolor="#ffffff"
     bordercolor="#666666"
     borderopacity="1.0"
     inkscape:pageopacity="0.0"
     inkscape:pageshadow="2"
     inkscape:zoom="3.0953125"
     inkscape:cx="12.053384"
     inkscape:cy="66.372018"
     inkscape:document-units="px"
     inkscape:current-layer="layer1"
     showgrid="false"
     inkscape:window-width="1366"
     inkscape:window-height="716"
     inkscape:window-x="0"
     inkscape:window-y="28"
     inkscape:window-maximized="1" />
  <metadata
     id="metadata7">
    <rdf:RDF>
      <cc:Work
         rdf:about="">
        <dc:format>image/svg+xml</dc:format>
        <dc:type
           rdf:resource="http://purl.org/dc/dcmitype/StillImage" />
        <dc:title />
      </cc:Work>
    </rdf:RDF>
  </metadata>
  <g
     inkscape:label="Capa 1"
     inkscape:groupmode="layer"
     id="layer1"
     transform="translate(0,-1004.3622)">
    <g
       id="g634"
       transform="matrix(0.50793651,0,0,-0.50793651,27.588064,1035.8334)"
       style="fill:#1a1a1a">
      <path
         d="m 0,0 c -0.288,-2.029 -1.231,-3.744 -2.825,-5.145 -1.594,-1.4 -3.405,-2.1 -5.435,-2.1 -1.787,0 -3.286,0.58 -4.491,1.739 -1.209,1.158 -1.812,2.632 -1.812,4.42 0,0.482 -10e-4,0.844 -10e-4,1.086 l 3.478,24.492 8.343,-0.002 -3.478,-24.491 c -0.195,-1.158 0.345,-1.737 1.618,-1.737 1.129,0 1.791,0.58 1.989,1.738 l 0.441,2.754 2.609,0 L 0,0 z m -9.998,32.462 c 0.192,1.159 0.748,2.148 1.666,2.971 0.917,0.82 1.957,1.231 3.116,1.231 1.014,0 1.859,-0.338 2.536,-1.016 0.675,-0.676 1.015,-1.52 1.015,-2.535 l 0,-0.651 c -0.146,-1.112 -0.678,-2.078 -1.595,-2.899 -0.919,-0.822 -1.956,-1.232 -3.115,-1.232 -1.112,0 -2.028,0.41 -2.754,1.232 -0.725,0.821 -1.014,1.787 -0.869,2.899 m 2.934,13.747 c -17.397,0 -31.5,-14.104 -31.5,-31.5 0,-17.397 14.103,-31.5 31.5,-31.5 17.396,0 31.5,14.103 31.5,31.5 0,17.396 -14.104,31.5 -31.5,31.5"
         style="fill:#1a1a1a;fill-opacity:1;fill-rule:nonzero;stroke:none"
         id="path636"
         inkscape:connector-curvature="0" />
    </g>
  </g>
</svg>
