<?xml version="1.0" encoding="UTF-8" standalone="no"?>
<!-- Created with Inkscape (http://www.inkscape.org/) -->

<svg
   xmlns:dc="http://purl.org/dc/elements/1.1/"
   xmlns:cc="http://creativecommons.org/ns#"
   xmlns:rdf="http://www.w3.org/1999/02/22-rdf-syntax-ns#"
   xmlns:svg="http://www.w3.org/2000/svg"
   xmlns="http://www.w3.org/2000/svg"
   xmlns:xlink="http://www.w3.org/1999/xlink"
   xmlns:sodipodi="http://sodipodi.sourceforge.net/DTD/sodipodi-0.dtd"
   xmlns:inkscape="http://www.inkscape.org/namespaces/inkscape"
   width="48"
   height="48"
   id="svg1618"
   version="1.1"
   inkscape:version="0.48+devel r12035"
   sodipodi:docname="image-missing.svg">
  <defs
     id="defs1620">
    <linearGradient
       inkscape:collect="always"
       xlink:href="#linearGradient7182-6"
       id="linearGradient906"
       x1="401.29413"
       y1="437.67206"
       x2="401.29413"
       y2="427.76126"
       gradientUnits="userSpaceOnUse" />
    <linearGradient
       id="linearGradient7182-6">
      <stop
         style="stop-color:#79b4d5;stop-opacity:1"
         offset="0"
         id="stop7184-5" />
      <stop
         style="stop-color:#62a3c7;stop-opacity:1"
         offset="1"
         id="stop7186-5" />
    </linearGradient>
    <linearGradient
       inkscape:collect="always"
       xlink:href="#linearGradient4069"
       id="linearGradient4075"
       x1="26.339727"
       y1="38.316494"
       x2="26.339727"
       y2="19.353292"
       gradientUnits="userSpaceOnUse"
       gradientTransform="translate(376,414.07648)" />
    <linearGradient
       inkscape:collect="always"
       id="linearGradient4069">
      <stop
         style="stop-color:#22353e;stop-opacity:1"
         offset="0"
         id="stop4071" />
      <stop
         style="stop-color:#2c444f;stop-opacity:1"
         offset="1"
         id="stop4073" />
    </linearGradient>
    <radialGradient
       inkscape:collect="always"
       xlink:href="#linearGradient4106"
       id="radialGradient4112"
       cx="9.6058702"
       cy="12.60264"
       fx="9.6058702"
       fy="12.60264"
       r="2.265625"
       gradientTransform="matrix(0.70828969,1.2161217,-1.0729824,0.624923,390.89829,405.17652)"
       gradientUnits="userSpaceOnUse" />
    <linearGradient
       inkscape:collect="always"
       id="linearGradient4106">
      <stop
         style="stop-color:#ffffff;stop-opacity:1;"
         offset="0"
         id="stop4108" />
      <stop
         style="stop-color:#ffffff;stop-opacity:0;"
         offset="1"
         id="stop4110" />
    </linearGradient>
  </defs>
  <sodipodi:namedview
     id="base"
     pagecolor="#ffffff"
     bordercolor="#666666"
     borderopacity="1.0"
     inkscape:pageopacity="0.0"
     inkscape:pageshadow="2"
     inkscape:zoom="5.8625"
     inkscape:cx="3.7602243"
     inkscape:cy="23.543712"
     inkscape:document-units="px"
     inkscape:current-layer="layer1"
     showgrid="false"
     inkscape:window-width="1366"
     inkscape:window-height="718"
     inkscape:window-x="0"
     inkscape:window-y="28"
     inkscape:window-maximized="1" />
  <metadata
     id="metadata1623">
    <rdf:RDF>
      <cc:Work
         rdf:about="">
        <dc:format>image/svg+xml</dc:format>
        <dc:type
           rdf:resource="http://purl.org/dc/dcmitype/StillImage" />
        <dc:title />
      </cc:Work>
    </rdf:RDF>
  </metadata>
  <g
     inkscape:label="Capa 1"
     inkscape:groupmode="layer"
     id="layer1"
     transform="translate(0,-1004.3622)">
    <g
       transform="translate(-376.00002,590.28574)"
       id="g936">
      <path
         inkscape:connector-curvature="0"
         id="rect3922-8"
         d="m 379.79856,415.99447 40.4029,0 c 0.89693,0 1.619,0.79795 1.619,1.78914 l 0,40.58571 c 0,0.99119 -0.72207,1.78914 -1.619,1.78914 l -40.4029,0 c -0.89692,0 -1.61899,-0.79795 -1.61899,-1.78914 l 0,-40.58571 C 378.17957,416.79242 378.90164,415.99447 379.79856,415.99447 Z"
         style="opacity:0.5;fill:#000000;fill-opacity:1;stroke:none" />
      <path
         inkscape:connector-curvature="0"
         id="rect3924-9"
         d="m 380.20278,416.55497 39.59446,0 c 0.87416,0 1.57791,0.77771 1.57791,1.74374 l 0,39.5556 c 0,0.96604 -0.70375,1.74374 -1.57791,1.74374 l -39.59446,0 c -0.87416,0 -1.5779,-0.7777 -1.5779,-1.74374 l 0,-39.5556 C 378.62488,417.33268 379.32862,416.55497 380.20278,416.55497 Z"
         style="fill:#ffffff;fill-opacity:1;stroke:none" />
      <path
         style="fill:url(#linearGradient906);fill-opacity:1;stroke:none"
         d="m 382.04254,418.55497 35.91494,0 c 0.79292,0 1.43127,0.61057 1.43127,1.36901 l 0,31.05506 c 0,0.75845 -0.63835,1.36901 -1.43127,1.36901 l -35.91494,0 c -0.79292,0 -1.43126,-0.61056 -1.43126,-1.36901 l 0,-31.05506 C 380.61128,419.16554 381.24962,418.55497 382.04254,418.55497 Z"
         id="path898"
         inkscape:connector-curvature="0" />
      <path
         id="rect864"
         d="m 406.875,433.17023 -10.65625,10.65625 -1.5625,-1.5625 -1.53125,-1.53125 -12.5,10.5625 c 0.1445,0.61025 0.72331,1.0625 1.40625,1.0625 l 35.9375,0 c 0.79292,0 1.40625,-0.61655 1.40625,-1.375 l 0,-5.34375 -7.8125,-7.8125 -0.15625,-0.15625 L 408.375,434.63898 406.875,433.17023 Z"
         style="color:#000000;fill:url(#linearGradient4075);fill-opacity:1;fill-rule:nonzero;stroke:none;stroke-width:0.40000001;marker:none;visibility:visible;display:inline;overflow:visible;enable-background:accumulate"
         inkscape:connector-curvature="0" />
      <path
         transform="matrix(1.5238292,0,0,1.5238292,570.61643,446.79113)"
         d="m -116.84939,-13.297318 c 0,1.440058 -1.1674,2.607456 -2.60746,2.607456 -1.44006,0 -2.60745,-1.167398 -2.60745,-2.607456 0,-1.440059 1.16739,-2.607457 2.60745,-2.607457 C -118.01679,-15.904775 -116.84939,-14.737377 -116.84939,-13.297318 Z"
         sodipodi:ry="2.6074562"
         sodipodi:rx="2.6074562"
         sodipodi:cy="-13.297318"
         sodipodi:cx="-119.45685"
         id="path896"
         style="color:#000000;fill:#f1cf52;fill-opacity:1;fill-rule:nonzero;stroke:none;stroke-width:0.40000001;marker:none;visibility:visible;display:inline;overflow:visible;enable-background:accumulate"
         sodipodi:type="arc" />
      <path
         id="path4101"
         d="m 387.0625,423.13898 c -1.30161,0.5802 -2.1875,1.85791 -2.1875,3.375 0,0.49051 0.0776,0.97739 0.25,1.40625 1.29366,-1.17472 4.28125,-1.78125 4.28125,-1.78125 C 389.40625,426.13898 387.4936,424.5595 387.0625,423.13898 Z"
         style="color:#000000;fill:url(#radialGradient4112);fill-opacity:1;fill-rule:nonzero;stroke:none;stroke-width:0.40000001;marker:none;visibility:visible;display:inline;overflow:visible;enable-background:accumulate"
         inkscape:connector-curvature="0" />
      <path
         style="color:#000000;fill:#000000;fill-opacity:0.13924052;fill-rule:nonzero;stroke:none;stroke-width:0.40000001;marker:none;visibility:visible;display:inline;overflow:visible;enable-background:accumulate"
         d="m 393.06249,426.88898 c -0.91904,0 -1.6875,0.7372 -1.6875,1.65624 0,0.11488 0.0403,0.23542 0.0625,0.34375 -0.0307,-0.002 -0.0625,0 -0.0937,0 -0.75939,0 -1.375,0.61561 -1.375,1.375 0,0.75939 0.61561,1.375 1.375,1.375 0.0208,0 0.0419,7.7e-4 0.0625,0 l 3.68749,0 0,-0.0312 c 0.0803,0.0146 0.1655,0.0312 0.25,0.0312 0.75939,0 1.375,-0.61561 1.375,-1.375 0,-0.62817 -0.42458,-1.14817 -1,-1.3125 0.014,-0.0627 0.0312,-0.12061 0.0312,-0.1875 0,-0.49188 -0.38312,-0.90625 -0.875,-0.90625 -0.0931,0 -0.19693,0.036 -0.28124,0.0625 C 394.34113,427.32297 393.75177,426.88898 393.06249,426.88898 Z"
         id="path4127"
         inkscape:connector-curvature="0" />
      <path
         sodipodi:nodetypes="sscssscccscsscs"
         inkscape:connector-curvature="0"
         id="path4129"
         d="m 392.93749,426.88898 c -0.91904,0 -1.6875,0.7372 -1.6875,1.65624 0,0.11488 0.0403,0.23542 0.0625,0.34375 -0.0307,-0.002 -0.0625,0 -0.0937,0 -0.75939,0 -1.375,0.61561 -1.375,1.375 0,0.75939 0.61561,1.375 1.375,1.375 0.0208,0 0.0419,7.7e-4 0.0625,0 l 3.68749,0 c 0.1345,0 0.1938,0 0.25,0 0.75939,0 1.375,-0.61561 1.375,-1.375 0,-0.62817 -0.42458,-1.14817 -1,-1.3125 0.014,-0.0627 0.0312,-0.12061 0.0312,-0.1875 0,-0.49188 -0.38312,-0.90625 -0.875,-0.90625 -0.0931,0 -0.19693,0.036 -0.28124,0.0625 C 394.21613,427.32297 393.62677,426.88898 392.93749,426.88898 Z"
         style="color:#000000;fill:#ffffff;fill-opacity:1;fill-rule:nonzero;stroke:none;stroke-width:0.40000001;marker:none;visibility:visible;display:inline;overflow:visible;enable-background:accumulate" />
      <path
         sodipodi:nodetypes="sscssscccscsscs"
         inkscape:connector-curvature="0"
         id="path4114"
         d="m 387.1979,426.18522 c -1.19135,0 -2.1875,0.95564 -2.1875,2.14699 0,0.14891 0.0522,0.30517 0.081,0.4456 -0.0398,-0.003 -0.081,0 -0.12146,0 -0.9844,0 -1.78241,0.79801 -1.78241,1.78241 0,0.98439 0.79801,1.7824 1.78241,1.7824 0.027,0 0.0543,10e-4 0.081,0 l 4.78009,0 c -0.31366,-0.0781 0.21708,0 0.32407,0 0.9844,0 1.78241,-0.79801 1.78241,-1.7824 0,-0.8143 -0.55038,-1.48837 -1.2963,-1.70139 0.0181,-0.0813 0.0404,-0.15635 0.0404,-0.24306 0,-0.63762 -0.49664,-1.17477 -1.13426,-1.17477 -0.12069,0 -0.25528,0.0467 -0.36458,0.081 C 388.85539,426.7478 388.09141,426.18522 387.1979,426.18522 Z"
         style="color:#000000;fill:#000000;fill-opacity:0.45147681;fill-rule:nonzero;stroke:none;stroke-width:0.40000001;marker:none;visibility:visible;display:inline;overflow:visible;enable-background:accumulate" />
      <path
         sodipodi:nodetypes="sscssscccsscsscs"
         style="color:#000000;fill:#ffffff;fill-opacity:1;fill-rule:nonzero;stroke:none;stroke-width:0.40000001;marker:none;visibility:visible;display:inline;overflow:visible;enable-background:accumulate"
         d="m 387.0729,426.18522 c -1.19135,0 -2.1875,0.95564 -2.1875,2.14699 0,0.14891 0.0522,0.30517 0.081,0.4456 -0.0398,-0.003 -0.081,0 -0.12146,0 -0.9844,0 -1.78241,0.79801 -1.78241,1.78241 0,0.98439 0.79801,1.7824 1.78241,1.7824 0.027,0 0.0543,10e-4 0.081,0 l 4.78009,0 0.11328,-0.005 c 0.16738,0 0.21079,0.005 0.21079,0.005 0.9844,0 1.78241,-0.79801 1.78241,-1.7824 0,-0.8143 -0.55038,-1.48837 -1.2963,-1.70139 0.0181,-0.0813 0.0404,-0.15635 0.0404,-0.24306 0,-0.63762 -0.49664,-1.17477 -1.13426,-1.17477 -0.12069,0 -0.25528,0.0467 -0.36458,0.081 C 388.73039,426.7478 387.96641,426.18522 387.0729,426.18522 Z"
         id="path4125"
         inkscape:connector-curvature="0" />
      <path
         sodipodi:nodetypes="ccccccccccccc"
         inkscape:connector-curvature="0"
         id="path4131"
         d="m 406.875,433.17023 -4.4375,4.40625 0,0.0312 0.46875,1.75 1.5625,-1.5625 1.46875,5.40625 1.40625,-5.40625 3.34375,3.3125 0.90625,-3.25 -0.0312,-0.0312 -0.15625,-0.15625 L 408.375,434.63898 Z"
         style="color:#000000;fill:#ffffff;fill-opacity:0.88185658;fill-rule:nonzero;stroke:none;stroke-width:0.40000001;marker:none;visibility:visible;display:inline;overflow:visible;enable-background:accumulate" />
      <path
         inkscape:connector-curvature="0"
         id="path4152"
         d="M 411.17856,437.92436 406.83648,433.58229 410.67683,440.23397 Z"
         style="fill:#000000;fill-opacity:0.15611818;stroke:none" />
      <path
         sodipodi:nodetypes="cccc"
         style="fill:#000000;fill-opacity:0.15611818;stroke:none"
         d="M 403.14204,437.31325 404.9355,435.55104 403.34205,438.23397 Z"
         id="path4154"
         inkscape:connector-curvature="0" />
    </g>
    <path
       inkscape:connector-curvature="0"
       style="fill:#ff0000;fill-opacity:1;stroke:none"
       d="m 32.195182,1032.5376 -4.281294,4.2813 4.671982,4.672 -4.671982,4.672 4.281294,4.2813 4.671982,-4.672 4.671982,4.672 4.281294,-4.2813 -4.671982,-4.672 4.671982,-4.672 -4.281294,-4.2813 -4.671982,4.672 L 32.195182,1032.5376 Z"
       id="rect1923" />
  </g>
</svg>
