<?xml version="1.0" encoding="UTF-8" standalone="no"?>
<!-- Created with Inkscape (http://www.inkscape.org/) -->

<svg
   xmlns:dc="http://purl.org/dc/elements/1.1/"
   xmlns:cc="http://creativecommons.org/ns#"
   xmlns:rdf="http://www.w3.org/1999/02/22-rdf-syntax-ns#"
   xmlns:svg="http://www.w3.org/2000/svg"
   xmlns="http://www.w3.org/2000/svg"
   xmlns:sodipodi="http://sodipodi.sourceforge.net/DTD/sodipodi-0.dtd"
   xmlns:inkscape="http://www.inkscape.org/namespaces/inkscape"
   width="48"
   height="48"
   id="svg2"
   version="1.1"
   inkscape:version="0.48+devel r12012"
   sodipodi:docname="screenlets-tray.svg"
   inkscape:export-filename="/home/uri/Iconos/NITRUX/apps/16/screenlets.png"
   inkscape:export-xdpi="30"
   inkscape:export-ydpi="30">
  <defs
     id="defs4" />
  <sodipodi:namedview
     id="base"
     pagecolor="#ffffff"
     bordercolor="#666666"
     borderopacity="1.0"
     inkscape:pageopacity="0.0"
     inkscape:pageshadow="2"
     inkscape:zoom="18.220124"
     inkscape:cx="-6.5899016"
     inkscape:cy="37.923024"
     inkscape:document-units="px"
     inkscape:current-layer="layer1"
     showgrid="false"
     inkscape:window-width="1366"
     inkscape:window-height="718"
     inkscape:window-x="0"
     inkscape:window-y="28"
     inkscape:window-maximized="1">
    <inkscape:grid
       type="xygrid"
       id="grid3850" />
  </sodipodi:namedview>
  <metadata
     id="metadata7">
    <rdf:RDF>
      <cc:Work
         rdf:about="">
        <dc:format>image/svg+xml</dc:format>
        <dc:type
           rdf:resource="http://purl.org/dc/dcmitype/StillImage" />
        <dc:title />
      </cc:Work>
    </rdf:RDF>
  </metadata>
  <g
     inkscape:label="Capa 1"
     inkscape:groupmode="layer"
     id="layer1"
     transform="translate(0,-1004.3622)">
    <path
       style="fill:#1a1a1a"
       d="m 19.762311,1044.2323 c 0,-0.3083 2.061172,-2.6491 2.819538,-3.202 0.412628,-0.3008 1.005941,-0.5471 1.318469,-0.5471 0.7781,0 2.096812,1.0169 3.361805,2.5922 1.202998,1.4981 1.167145,1.4941 3.577888,0.417 1.209464,-0.5404 1.369727,-0.6803 1.266623,-1.1068 -0.308394,-1.2755 -0.392163,-3.6014 -0.160642,-4.4601 0.400604,-1.4859 0.868506,-1.6651 3.944839,-1.5107 2.970286,0.1492 2.664197,0.3304 3.589186,-2.1242 l 0.51998,-1.38 -1.606549,-1.3273 c -1.920418,-1.5866 -2.606699,-2.5772 -2.40889,-3.4767 0.132536,-0.6027 2.414925,-2.9958 3.555819,-3.7282 0.48004,-0.3081 0.488002,-0.3577 0.191204,-1.1918 -0.170332,-0.4787 -0.517811,-1.3117 -0.772177,-1.8507 l -0.462481,-0.9803 -2.8236,0 c -3.734658,0 -3.602681,0.135 -3.608641,-3.6436 l -0.0045,-2.8659 -1.834017,-0.7419 -1.834016,-0.742 -0.653686,0.8425 c -0.359517,0.4637 -1.171919,1.3566 -1.80533,1.9851 -0.960709,0.9527 -1.281502,1.1422 -1.934823,1.1422 -0.653279,0 -0.994686,-0.2016 -2.058461,-1.2152 -0.70141,-0.6681 -1.502792,-1.552 -1.780852,-1.9638 -0.587457,-0.8703 -0.713123,-0.8631 -3.037636,0.175 -1.042433,0.4656 -1.48213,0.7724 -1.402898,0.9786 0.06347,0.1653 0.178338,1.2024 0.255263,2.305 0.109396,1.568 0.06591,2.1808 -0.199619,2.8129 -0.432407,1.0294 -0.833841,1.1294 -3.976964,0.9909 l -2.4738006,-0.109 -0.6616679,1.5876 c -0.3639208,0.8731 -0.6616714,1.7259 -0.6616714,1.8949 0,0.1694 0.6031316,0.788 1.3402923,1.375 1.6244906,1.2937 2.5804876,2.5497 2.5804876,3.3897 0,0.7168 -1.147271,2.0728 -2.852361,3.3715 -0.5876308,0.4477 -1.0684189,0.9474 -1.0684189,1.1107 0,0.1632 0.3015418,1.0202 0.6700943,1.9045 l 0.6700921,1.6079 2.4735745,-0.1323 c 4.01878,-0.2154 4.419836,0.1905 4.159924,4.2057 l -0.144881,2.2384 0.920207,0.4689 C 18.438689,1044.1911 19.762311,1044.5874 19.762311,1044.2323 z m 1.345948,-10.0733 c -2.382328,-1.1892 -3.526133,-3.0871 -3.52203,-5.8441 0.0026,-1.8272 0.65031,-3.2656 2.047319,-4.5466 1.397171,-1.2814 2.307538,-1.634 4.267364,-1.6532 1.367142,-0.013 1.835557,0.083 2.871231,0.5907 2.290182,1.1233 3.522274,3.1117 3.533783,5.7024 C 30.32732,1033.2245 25.403803,1036.303 21.108259,1034.159 Z"
       id="path866"
       inkscape:connector-curvature="0"
       sodipodi:nodetypes="ssssssssscsssscccsccccssccsssssccssscsscssccsssscsss" />
  </g>
</svg>
