<?xml version="1.0" encoding="UTF-8" standalone="no"?>
<!-- Created with Inkscape (http://www.inkscape.org/) -->

<svg
   xmlns:dc="http://purl.org/dc/elements/1.1/"
   xmlns:cc="http://creativecommons.org/ns#"
   xmlns:rdf="http://www.w3.org/1999/02/22-rdf-syntax-ns#"
   xmlns:svg="http://www.w3.org/2000/svg"
   xmlns="http://www.w3.org/2000/svg"
   xmlns:sodipodi="http://sodipodi.sourceforge.net/DTD/sodipodi-0.dtd"
   xmlns:inkscape="http://www.inkscape.org/namespaces/inkscape"
   width="48"
   height="48"
   id="svg1091"
   version="1.1"
   inkscape:version="0.48+devel r12012"
   sodipodi:docname="shutter-panel.svg">
  <defs
     id="defs1093" />
  <sodipodi:namedview
     id="base"
     pagecolor="#ffffff"
     bordercolor="#666666"
     borderopacity="1.0"
     inkscape:pageopacity="0.0"
     inkscape:pageshadow="2"
     inkscape:zoom="8.6794595"
     inkscape:cx="-20.990559"
     inkscape:cy="14.527741"
     inkscape:document-units="px"
     inkscape:current-layer="layer1"
     showgrid="false"
     width="0px"
     height="0px"
     fit-margin-top="0"
     fit-margin-left="0"
     fit-margin-right="0"
     fit-margin-bottom="0"
     inkscape:window-width="1366"
     inkscape:window-height="718"
     inkscape:window-x="0"
     inkscape:window-y="28"
     inkscape:window-maximized="1" />
  <metadata
     id="metadata1096">
    <rdf:RDF>
      <cc:Work
         rdf:about="">
        <dc:format>image/svg+xml</dc:format>
        <dc:type
           rdf:resource="http://purl.org/dc/dcmitype/StillImage" />
        <dc:title />
      </cc:Work>
    </rdf:RDF>
  </metadata>
  <g
     inkscape:label="Capa 1"
     inkscape:groupmode="layer"
     id="layer1"
     transform="translate(-356.4041,-335.17981)">
    <g
       transform="matrix(0.96915809,0,0,0.96915809,356.3911,-636.86897)"
       id="g1030"
       style="fill:#1a1a1a">
      <path
         d="m 31.042828,1019.6684 c -3.179039,0.2271 -8.767093,5.5822 -7.981338,5.5551 6.499303,-0.2244 10.558927,0.146 15.630036,1.7055 C 39.442396,1027.16 37.881261,1020.1911 31.042828,1019.6684 Z"
         inkscape:connector-curvature="0"
         id="path4091"
         style="fill:#1a1a1a;fill-opacity:1;fill-rule:nonzero;stroke:none;stroke-width:25;marker-mid:none" />
      <path
         d="m 21.374881,1015.2642 c -1.80735,2.6003 -2.03427,12.7767 -1.567725,12.1499 3.845234,-5.1661 13.061556,-11.5461 18.558095,-14.1152 C 45.159519,1010.1232 25.39833,1010.5107 21.374881,1015.2642 Z"
         inkscape:connector-curvature="0"
         id="path4093"
         style="fill:#1a1a1a;fill-opacity:1;fill-rule:nonzero;stroke:#000000;stroke-width:0;stroke-linecap:butt;stroke-linejoin:round;stroke-miterlimit:4;stroke-opacity:1;stroke-dasharray:none;stroke-dashoffset:1;marker-mid:none" />
      <path
         d="m 13.190883,1026.3331 c 1.041485,2.9837 7.706373,6.9501 7.477263,6.2052 -1.89506,-6.1617 -2.580674,-10.1422 -2.367275,-15.3972 C 18.332471,1016.363 11.937143,1019.6542 13.190883,1026.3331 Z"
         inkscape:connector-curvature="0"
         id="path4095"
         style="fill:#1a1a1a;fill-opacity:1;fill-rule:nonzero;stroke:none;stroke-width:25;marker-mid:none" />
      <path
         d="m 14.061308,1036.1283 c 2.951779,1.191 10.356527,-1.1587 9.639927,-1.4791 -5.927348,-2.6501 -9.401367,-4.7632 -13.250516,-8.3861 C 9.8807839,1025.7267 8.1640093,1032.6596 14.061308,1036.1283 Z"
         inkscape:connector-curvature="0"
         id="path4097"
         style="fill:#1a1a1a;fill-opacity:1;fill-rule:nonzero;stroke:none;stroke-width:25;marker-mid:none" />
      <path
         d="m 22.601285,1041.733 c 2.822189,-1.4672 5.782549,-8.5885 5.073284,-8.2525 -5.866673,2.7794 -9.737242,4.0475 -15.014911,4.6262 C 11.878203,1038.1927 16.122197,1043.9619 22.601285,1041.733 Z"
         inkscape:connector-curvature="0"
         id="path4099"
         style="fill:#1a1a1a;fill-opacity:1;fill-rule:nonzero;stroke:none;stroke-width:25;marker-mid:none" />
      <path
         d="m 32.554148,1038.7082 c 0.689404,-3.0822 -2.89322,-9.9173 -3.0917,-9.1638 -1.641694,6.2326 -3.161129,9.9796 -6.120183,14.3466 C 22.90412,1044.5376 30.092668,1045.049 32.554148,1038.7082 Z"
         inkscape:connector-curvature="0"
         id="path4101"
         style="fill:#1a1a1a;fill-opacity:1;fill-rule:nonzero;stroke:none;stroke-width:25;marker-mid:none" />
      <path
         d="m 36.472351,1029.0088 c -1.917554,-2.5217 -9.491107,-4.2654 -9.041767,-3.6263 3.716709,5.2856 5.605213,8.8642 7.034123,13.9295 C 34.676282,1040.062 39.739455,1034.9819 36.472351,1029.0088 Z"
         inkscape:connector-curvature="0"
         id="path4103"
         style="fill:#1a1a1a;fill-opacity:1;fill-rule:nonzero;stroke:none;stroke-width:25;marker-mid:none" />
    </g>
  </g>
</svg>
