<?xml version="1.0" encoding="UTF-8" standalone="no"?>
<!-- Created with Inkscape (http://www.inkscape.org/) -->

<svg
   xmlns:dc="http://purl.org/dc/elements/1.1/"
   xmlns:cc="http://creativecommons.org/ns#"
   xmlns:rdf="http://www.w3.org/1999/02/22-rdf-syntax-ns#"
   xmlns:svg="http://www.w3.org/2000/svg"
   xmlns="http://www.w3.org/2000/svg"
   xmlns:sodipodi="http://sodipodi.sourceforge.net/DTD/sodipodi-0.dtd"
   xmlns:inkscape="http://www.inkscape.org/namespaces/inkscape"
   width="48"
   height="48"
   id="svg2"
   version="1.1"
   inkscape:version="0.48+devel r12012"
   sodipodi:docname="synapse-panel.svg">
  <defs
     id="defs4" />
  <sodipodi:namedview
     id="base"
     pagecolor="#ffffff"
     bordercolor="#666666"
     borderopacity="1.0"
     inkscape:pageopacity="0.0"
     inkscape:pageshadow="2"
     inkscape:zoom="4.3837892"
     inkscape:cx="-65.947512"
     inkscape:cy="0.99356864"
     inkscape:document-units="px"
     inkscape:current-layer="layer1"
     showgrid="false"
     inkscape:window-width="1366"
     inkscape:window-height="718"
     inkscape:window-x="0"
     inkscape:window-y="28"
     inkscape:window-maximized="1" />
  <metadata
     id="metadata7">
    <rdf:RDF>
      <cc:Work
         rdf:about="">
        <dc:format>image/svg+xml</dc:format>
        <dc:type
           rdf:resource="http://purl.org/dc/dcmitype/StillImage" />
        <dc:title />
      </cc:Work>
    </rdf:RDF>
  </metadata>
  <g
     inkscape:label="Capa 1"
     inkscape:groupmode="layer"
     id="layer1"
     transform="translate(0,-1004.3622)">
    <g
       id="g913"
       transform="matrix(0.83666143,0,0,0.83666143,4.037107,166.12462)">
      <g
         style="fill:#1a1a1a"
         transform="matrix(0.56069169,0.11706164,-0.11706164,0.56069169,118.36324,450.28901)"
         inkscape:label="Capa 1"
         id="layer1-4">
        <path
           style="fill:#1a1a1a"
           d="m 19.665365,1044.6142 c 0,-0.3157 2.108324,-2.7129 2.884039,-3.2791 0.422068,-0.308 1.028953,-0.5603 1.34863,-0.5603 0.7959,0 2.14478,1.0414 3.438711,2.6546 1.230518,1.5342 1.193845,1.5301 3.659737,0.4271 1.237132,-0.5534 1.401061,-0.6967 1.295599,-1.1335 -0.315449,-1.3062 -0.401135,-3.688 -0.164318,-4.5674 0.409769,-1.5217 0.888375,-1.7052 4.035084,-1.5471 3.038234,0.1528 2.725143,0.3384 3.671293,-2.1753 l 0.531875,-1.4132 -1.643301,-1.3592 c -1.96435,-1.6248 -2.666331,-2.6393 -2.463996,-3.5604 0.135568,-0.6172 2.470169,-3.0679 3.637163,-3.8179 0.491021,-0.3155 0.499165,-0.3663 0.195578,-1.2205 -0.174229,-0.4902 -0.529657,-1.3433 -0.789842,-1.8952 l -0.473061,-1.0039 -2.888194,0 c -3.820093,0 -3.685096,0.1382 -3.691193,-3.7313 l -0.0046,-2.9349 -1.875973,-0.7598 -1.875971,-0.7598 -0.66864,0.8628 c -0.367741,0.4748 -1.198728,1.3892 -1.846629,2.0328 -0.982686,0.9757 -1.310819,1.1697 -1.979085,1.1697 -0.668224,0 -1.01744,-0.2064 -2.10555,-1.2444 -0.717456,-0.6842 -1.537171,-1.5894 -1.821592,-2.0111 -0.600896,-0.8912 -0.729437,-0.8839 -3.107126,0.1792 -1.066279,0.4768 -1.516036,0.791 -1.434991,1.0022 0.06493,0.1693 0.182418,1.2313 0.261103,2.3605 0.111898,1.6057 0.06741,2.2332 -0.204186,2.8805 -0.442299,1.0542 -0.852917,1.1566 -4.067942,1.0148 l -2.5303924,-0.1116 -0.6768044,1.6258 c -0.372246,0.8941 -0.676808,1.7674 -0.676808,1.9405 0,0.1735 0.616929,0.8069 1.3709532,1.4081 1.6616536,1.3248 2.6395196,2.611 2.6395196,3.4712 0,0.7341 -1.173516,2.1227 -2.9176124,3.4527 -0.6010736,0.4585 -1.0928604,0.9702 -1.0928604,1.1374 0,0.1671 0.30844,1.0448 0.6854236,1.9504 l 0.6854214,1.6465 2.5301598,-0.1354 c 4.110716,-0.2206 4.520947,0.195 4.255089,4.3069 l -0.148196,2.2922 0.941258,0.4802 C 18.311463,1044.572 19.665365,1044.9778 19.665365,1044.6142 z m 1.376739,-10.3158 c -2.436828,-1.2178 -3.606799,-3.1613 -3.602602,-5.9847 0.0027,-1.8712 0.665187,-3.3442 2.094155,-4.656 1.429133,-1.3122 2.360325,-1.6733 4.364986,-1.693 1.398416,-0.013 1.877547,0.085 2.936913,0.6049 2.342573,1.1504 3.602851,3.1866 3.614624,5.8396 C 30.472063,1033.3415 25.435914,1036.494 21.042104,1034.2984 Z"
           id="path866"
           inkscape:connector-curvature="0"
           sodipodi:nodetypes="ssssssssscsssscccsccccssccsssssccssscsscssccsssscsss" />
      </g>
      <g
         id="g905"
         inkscape:label="Capa 1"
         transform="matrix(0.81690634,0,0,0.81690634,13.046852,196.2323)"
         style="fill:#1a1a1a">
        <path
           sodipodi:nodetypes="ssssssssscsssscccsccccssccsssssccssscsscssccsssscsss"
           inkscape:connector-curvature="0"
           id="path907"
           d="m 19.665365,1044.6142 c 0,-0.3157 2.108324,-2.7129 2.884039,-3.2791 0.422068,-0.308 1.028953,-0.5603 1.34863,-0.5603 0.7959,0 2.14478,1.0414 3.438711,2.6546 1.230518,1.5342 1.193845,1.5301 3.659737,0.4271 1.237132,-0.5534 1.401061,-0.6967 1.295599,-1.1335 -0.315449,-1.3062 -0.401135,-3.688 -0.164318,-4.5674 0.409769,-1.5217 0.888375,-1.7052 4.035084,-1.5471 3.038234,0.1528 2.725143,0.3384 3.671293,-2.1753 l 0.531875,-1.4132 -1.643301,-1.3592 c -1.96435,-1.6248 -2.666331,-2.6393 -2.463996,-3.5604 0.135568,-0.6172 2.470169,-3.0679 3.637163,-3.8179 0.491021,-0.3155 0.499165,-0.3663 0.195578,-1.2205 -0.174229,-0.4902 -0.529657,-1.3433 -0.789842,-1.8952 l -0.473061,-1.0039 -2.888194,0 c -3.820093,0 -3.685096,0.1382 -3.691193,-3.7313 l -0.0046,-2.9349 -1.875973,-0.7598 -1.875971,-0.7598 -0.66864,0.8628 c -0.367741,0.4748 -1.198728,1.3892 -1.846629,2.0328 -0.982686,0.9757 -1.310819,1.1697 -1.979085,1.1697 -0.668224,0 -1.01744,-0.2064 -2.10555,-1.2444 -0.717456,-0.6842 -1.537171,-1.5894 -1.821592,-2.0111 -0.600896,-0.8912 -0.729437,-0.8839 -3.107126,0.1792 -1.066279,0.4768 -1.516036,0.791 -1.434991,1.0022 0.06493,0.1693 0.182418,1.2313 0.261103,2.3605 0.111898,1.6057 0.06741,2.2332 -0.204186,2.8805 -0.442299,1.0542 -0.852917,1.1566 -4.067942,1.0148 l -2.5303924,-0.1116 -0.6768044,1.6258 c -0.372246,0.8941 -0.676808,1.7674 -0.676808,1.9405 0,0.1735 0.616929,0.8069 1.3709532,1.4081 1.6616536,1.3248 2.6395196,2.611 2.6395196,3.4712 0,0.7341 -1.173516,2.1227 -2.9176124,3.4527 -0.6010736,0.4585 -1.0928604,0.9702 -1.0928604,1.1374 0,0.1671 0.30844,1.0448 0.6854236,1.9504 l 0.6854214,1.6465 2.5301598,-0.1354 c 4.110716,-0.2206 4.520947,0.195 4.255089,4.3069 l -0.148196,2.2922 0.941258,0.4802 C 18.311463,1044.572 19.665365,1044.9778 19.665365,1044.6142 z m 1.376739,-10.3158 c -2.436828,-1.2178 -3.606799,-3.1613 -3.602602,-5.9847 0.0027,-1.8712 0.665187,-3.3442 2.094155,-4.656 1.429133,-1.3122 2.360325,-1.6733 4.364986,-1.693 1.398416,-0.013 1.877547,0.085 2.936913,0.6049 2.342573,1.1504 3.602851,3.1866 3.614624,5.8396 C 30.472063,1033.3415 25.435914,1036.494 21.042104,1034.2984 Z"
           style="fill:#1a1a1a" />
      </g>
      <g
         id="g909"
         inkscape:label="Capa 1"
         transform="matrix(0.3896878,0,0,0.3896878,11.894439,617.09054)"
         style="fill:#1a1a1a">
        <path
           sodipodi:nodetypes="ssssssssscsssscccsccccssccsssssccssscsscssccsssscsss"
           inkscape:connector-curvature="0"
           id="path911"
           d="m 19.665365,1044.6142 c 0,-0.3157 2.108324,-2.7129 2.884039,-3.2791 0.422068,-0.308 1.028953,-0.5603 1.34863,-0.5603 0.7959,0 2.14478,1.0414 3.438711,2.6546 1.230518,1.5342 1.193845,1.5301 3.659737,0.4271 1.237132,-0.5534 1.401061,-0.6967 1.295599,-1.1335 -0.315449,-1.3062 -0.401135,-3.688 -0.164318,-4.5674 0.409769,-1.5217 0.888375,-1.7052 4.035084,-1.5471 3.038234,0.1528 2.725143,0.3384 3.671293,-2.1753 l 0.531875,-1.4132 -1.643301,-1.3592 c -1.96435,-1.6248 -2.666331,-2.6393 -2.463996,-3.5604 0.135568,-0.6172 2.470169,-3.0679 3.637163,-3.8179 0.491021,-0.3155 0.499165,-0.3663 0.195578,-1.2205 -0.174229,-0.4902 -0.529657,-1.3433 -0.789842,-1.8952 l -0.473061,-1.0039 -2.888194,0 c -3.820093,0 -3.685096,0.1382 -3.691193,-3.7313 l -0.0046,-2.9349 -1.875973,-0.7598 -1.875971,-0.7598 -0.66864,0.8628 c -0.367741,0.4748 -1.198728,1.3892 -1.846629,2.0328 -0.982686,0.9757 -1.310819,1.1697 -1.979085,1.1697 -0.668224,0 -1.01744,-0.2064 -2.10555,-1.2444 -0.717456,-0.6842 -1.537171,-1.5894 -1.821592,-2.0111 -0.600896,-0.8912 -0.729437,-0.8839 -3.107126,0.1792 -1.066279,0.4768 -1.516036,0.791 -1.434991,1.0022 0.06493,0.1693 0.182418,1.2313 0.261103,2.3605 0.111898,1.6057 0.06741,2.2332 -0.204186,2.8805 -0.442299,1.0542 -0.852917,1.1566 -4.067942,1.0148 l -2.5303924,-0.1116 -0.6768044,1.6258 c -0.372246,0.8941 -0.676808,1.7674 -0.676808,1.9405 0,0.1735 0.616929,0.8069 1.3709532,1.4081 1.6616536,1.3248 2.6395196,2.611 2.6395196,3.4712 0,0.7341 -1.173516,2.1227 -2.9176124,3.4527 -0.6010736,0.4585 -1.0928604,0.9702 -1.0928604,1.1374 0,0.1671 0.30844,1.0448 0.6854236,1.9504 l 0.6854214,1.6465 2.5301598,-0.1354 c 4.110716,-0.2206 4.520947,0.195 4.255089,4.3069 l -0.148196,2.2922 0.941258,0.4802 C 18.311463,1044.572 19.665365,1044.9778 19.665365,1044.6142 z m 1.376739,-10.3158 c -2.436828,-1.2178 -3.606799,-3.1613 -3.602602,-5.9847 0.0027,-1.8712 0.665187,-3.3442 2.094155,-4.656 1.429133,-1.3122 2.360325,-1.6733 4.364986,-1.693 1.398416,-0.013 1.877547,0.085 2.936913,0.6049 2.342573,1.1504 3.602851,3.1866 3.614624,5.8396 C 30.472063,1033.3415 25.435914,1036.494 21.042104,1034.2984 Z"
           style="fill:#1a1a1a" />
      </g>
    </g>
  </g>
</svg>
