<?xml version="1.0" encoding="UTF-8" standalone="no"?>
<!-- Created with Inkscape (http://www.inkscape.org/) -->

<svg
   xmlns:dc="http://purl.org/dc/elements/1.1/"
   xmlns:cc="http://creativecommons.org/ns#"
   xmlns:rdf="http://www.w3.org/1999/02/22-rdf-syntax-ns#"
   xmlns:svg="http://www.w3.org/2000/svg"
   xmlns="http://www.w3.org/2000/svg"
   xmlns:sodipodi="http://sodipodi.sourceforge.net/DTD/sodipodi-0.dtd"
   xmlns:inkscape="http://www.inkscape.org/namespaces/inkscape"
   width="48"
   height="48"
   id="svg2"
   version="1.1"
   inkscape:version="0.48+devel r12012"
   sodipodi:docname="transmission-tray-icon.svg">
  <defs
     id="defs4" />
  <sodipodi:namedview
     id="base"
     pagecolor="#ffffff"
     bordercolor="#666666"
     borderopacity="1.0"
     inkscape:pageopacity="0.0"
     inkscape:pageshadow="2"
     inkscape:zoom="3.3983175"
     inkscape:cx="-93.257762"
     inkscape:cy="34.884214"
     inkscape:document-units="px"
     inkscape:current-layer="layer1"
     showgrid="false"
     inkscape:window-width="1366"
     inkscape:window-height="718"
     inkscape:window-x="0"
     inkscape:window-y="28"
     inkscape:window-maximized="1"
     width="0px"
     height="0px"
     fit-margin-top="0"
     fit-margin-left="0"
     fit-margin-right="0"
     fit-margin-bottom="0">
    <inkscape:grid
       type="xygrid"
       id="grid3850"
       empspacing="5"
       visible="true"
       enabled="true"
       snapvisiblegridlinesonly="true" />
  </sodipodi:namedview>
  <metadata
     id="metadata7">
    <rdf:RDF>
      <cc:Work
         rdf:about="">
        <dc:format>image/svg+xml</dc:format>
        <dc:type
           rdf:resource="http://purl.org/dc/dcmitype/StillImage" />
        <dc:title />
      </cc:Work>
    </rdf:RDF>
  </metadata>
  <g
     inkscape:label="Capa 1"
     inkscape:groupmode="layer"
     id="layer1"
     transform="translate(0,-1004.3622)">
    <path
       style="fill:#1a1a1a;stroke:none"
       d="m 20.148713,1012.3673 c -0.697515,0.048 -1.350739,0.4325 -1.728142,1.0862 l -10.1219733,17.5283 c -0.6038444,1.0459 -0.2558814,2.3586 0.7900075,2.9625 l 17.5282958,10.1219 c 1.045889,0.6039 2.358685,0.256 2.962528,-0.7899 l 10.121974,-17.5284 c 0.603844,-1.0459 0.255881,-2.3587 -0.790008,-2.9624 L 21.3831,1012.6634 C 20.990891,1012.4371 20.567222,1012.3379 20.148713,1012.3673 z m 0.740632,4.3449 6.616315,5.0857 -3.209407,0.79 2.814403,10.5663 3.16003,-0.7899 -3.16003,7.6531 -6.616315,-5.0856 3.209406,-0.79 -2.814402,-10.5664 -3.160031,0.79 L 20.889345,1016.7122 Z"
       id="rect3806"
       inkscape:connector-curvature="0" />
  </g>
</svg>
