<?xml version="1.0" encoding="UTF-8" standalone="no"?>
<!-- Created with Inkscape (http://www.inkscape.org/) -->

<svg
   xmlns:dc="http://purl.org/dc/elements/1.1/"
   xmlns:cc="http://creativecommons.org/ns#"
   xmlns:rdf="http://www.w3.org/1999/02/22-rdf-syntax-ns#"
   xmlns:svg="http://www.w3.org/2000/svg"
   xmlns="http://www.w3.org/2000/svg"
   xmlns:sodipodi="http://sodipodi.sourceforge.net/DTD/sodipodi-0.dtd"
   xmlns:inkscape="http://www.inkscape.org/namespaces/inkscape"
   id="svg3215"
   height="48"
   width="48"
   version="1.0"
   inkscape:version="0.48+devel r12010"
   sodipodi:docname="ubuntuone-client-offline.svg">
  <defs
     id="defs8" />
  <sodipodi:namedview
     pagecolor="#ffffff"
     bordercolor="#666666"
     borderopacity="1"
     objecttolerance="10"
     gridtolerance="10"
     guidetolerance="10"
     inkscape:pageopacity="0"
     inkscape:pageshadow="2"
     inkscape:window-width="1097"
     inkscape:window-height="683"
     id="namedview6"
     showgrid="false"
     width="0px"
     height="0px"
     fit-margin-top="0"
     fit-margin-left="0"
     fit-margin-right="0"
     fit-margin-bottom="0"
     inkscape:zoom="18.352569"
     inkscape:cx="11.532711"
     inkscape:cy="0.55032701"
     inkscape:window-x="0"
     inkscape:window-y="28"
     inkscape:window-maximized="0"
     inkscape:current-layer="svg3215" />
  <metadata
     id="metadata8">
    <rdf:RDF>
      <cc:Work
         rdf:about="">
        <dc:format>image/svg+xml</dc:format>
        <dc:type
           rdf:resource="http://purl.org/dc/dcmitype/StillImage" />
        <dc:title />
      </cc:Work>
    </rdf:RDF>
  </metadata>
  <path
     id="rect3193"
     style="fill:#1a1a1a;fill-rule:evenodd"
     d="m 27.428456,8.0009145 c -3.861713,0 -7.169826,2.4285015 -8.928455,5.9285145 -0.990403,-0.823975 -2.255085,-1.357214 -3.642972,-1.357214 -3.154284,0 -5.714286,2.559922 -5.714286,5.714118 0,0.708392 0.1211657,1.373769 0.3571427,1.999945 C 5.9124574,21.888515 3.428572,25.518128 3.428572,29.714579 3.428572,35.412701 8.0160004,40 13.714286,40 l 20.571428,0 c 5.698285,0 10.285714,-4.587299 10.285714,-10.285421 0,-4.513472 -2.899887,-8.322048 -6.928457,-9.714009 0.009,-0.196565 0.07084,-0.374844 0.07084,-0.572325 C 37.713826,13.119854 33.105826,8 27.428112,8 z m -3.428572,6.8569445 c 1.266287,0 2.285718,1.019403 2.285718,2.285649 l 0,11.428246 c 0,1.26625 -1.019431,2.28565 -2.285718,2.28565 -1.266284,0 -2.285714,-1.0194 -2.285714,-2.28565 l 0,-11.428246 C 21.71417,15.877262 22.7336,14.857859 23.999884,14.857859 z m -1.142855,18.285193 1.142855,0 1.142859,0 c 0.633144,0 1.142859,0.5097 1.142859,1.142825 l 0,1.142824 0,1.142825 c 0,0.633126 -0.509715,1.142825 -1.142859,1.142825 l -1.142859,0 -1.142855,0 c -0.633144,0 -1.142859,-0.509699 -1.142859,-1.142825 l 0,-1.142825 0,-1.142824 C 21.71417,33.652752 22.223885,33.143052 22.857029,33.143052 Z"
     inkscape:connector-curvature="0" />
</svg>
