<?xml version="1.0" encoding="UTF-8" standalone="no"?>
<!-- Created with Inkscape (http://www.inkscape.org/) -->

<svg
   xmlns:dc="http://purl.org/dc/elements/1.1/"
   xmlns:cc="http://creativecommons.org/ns#"
   xmlns:rdf="http://www.w3.org/1999/02/22-rdf-syntax-ns#"
   xmlns:svg="http://www.w3.org/2000/svg"
   xmlns="http://www.w3.org/2000/svg"
   xmlns:xlink="http://www.w3.org/1999/xlink"
   xmlns:sodipodi="http://sodipodi.sourceforge.net/DTD/sodipodi-0.dtd"
   xmlns:inkscape="http://www.inkscape.org/namespaces/inkscape"
   width="48"
   height="48"
   id="svg6654"
   version="1.1"
   inkscape:version="0.48+devel r12012"
   sodipodi:docname="text-x-ruby.svg">
  <defs
     id="defs6656">
    <linearGradient
       id="linearGradient971">
      <stop
         id="stop973"
         offset="0"
         style="stop-color:#ff0000;stop-opacity:1" />
      <stop
         id="stop975"
         offset="1"
         style="stop-color:#aa0000;stop-opacity:1" />
    </linearGradient>
    <linearGradient
       y2="468.35892"
       x2="314.34872"
       y1="425.61682"
       x1="314.34872"
       gradientTransform="translate(-123.48961,387.43992)"
       gradientUnits="userSpaceOnUse"
       id="linearGradient1679"
       xlink:href="#linearGradient971"
       inkscape:collect="always" />
    <linearGradient
       id="linearGradient6707">
      <stop
         id="stop6709"
         offset="0"
         style="stop-color:#000000;stop-opacity:1;" />
      <stop
         id="stop6711"
         offset="1"
         style="stop-color:#ffffff;stop-opacity:1;" />
    </linearGradient>
    <linearGradient
       y2="442.7843"
       x2="262.01361"
       y1="471.95245"
       x1="262.01361"
       gradientTransform="translate(-69.686184,387.43266)"
       gradientUnits="userSpaceOnUse"
       id="linearGradient1696"
       xlink:href="#linearGradient6707"
       inkscape:collect="always" />
  </defs>
  <sodipodi:namedview
     id="base"
     pagecolor="#ffffff"
     bordercolor="#666666"
     borderopacity="1.0"
     inkscape:pageopacity="0.0"
     inkscape:pageshadow="2"
     inkscape:zoom="7.9195959"
     inkscape:cx="-24.942084"
     inkscape:cy="30.288657"
     inkscape:document-units="px"
     inkscape:current-layer="layer1"
     showgrid="false"
     fit-margin-top="0"
     fit-margin-left="0"
     fit-margin-right="0"
     fit-margin-bottom="0"
     inkscape:window-width="1366"
     inkscape:window-height="718"
     inkscape:window-x="0"
     inkscape:window-y="28"
     inkscape:window-maximized="1" />
  <metadata
     id="metadata6659">
    <rdf:RDF>
      <cc:Work
         rdf:about="">
        <dc:format>image/svg+xml</dc:format>
        <dc:type
           rdf:resource="http://purl.org/dc/dcmitype/StillImage" />
        <dc:title />
      </cc:Work>
    </rdf:RDF>
  </metadata>
  <g
     inkscape:label="Capa 1"
     inkscape:groupmode="layer"
     id="layer1"
     transform="translate(-167.42857,-811.2193)">
    <path
       style="opacity:0.5;fill:#000000;fill-opacity:1;stroke:none"
       d="m 171.22712,813.13731 40.4029,0 c 0.89692,0 1.619,0.79795 1.619,1.78913 l 0,40.58571 c 0,0.9912 -0.72207,1.78914 -1.619,1.78914 l -40.4029,0 c -0.89692,0 -1.61899,-0.79795 -1.61899,-1.78914 l 0,-40.58571 C 169.60813,813.93526 170.33019,813.13731 171.22712,813.13731 Z"
       id="rect3922"
       inkscape:connector-curvature="0" />
    <path
       inkscape:connector-curvature="0"
       id="path869"
       d="m 171.63133,813.69776 39.59446,0 c 0.87417,0 1.57791,0.77771 1.57791,1.74374 l 0,39.5556 c 0,0.96604 -0.70375,1.74374 -1.57791,1.74374 l -39.59445,0 c -0.87416,0 -1.5779,-0.7777 -1.5779,-1.74374 l 0,-39.5556 C 170.05343,814.47547 170.75718,813.69776 171.63133,813.69776 Z"
       style="fill:url(#linearGradient1679);fill-opacity:1.0;stroke:none" />
    <rect
       style="opacity:0.35648151;fill:none;stroke:none"
       id="rect4543"
       width="48"
       height="48"
       x="167.42857"
       y="811.2193" />
    <path
       inkscape:connector-curvature="0"
       style="fill:url(#linearGradient1696);fill-opacity:1;stroke:none"
       d="m 170.05357,848.24084 0,6.75 c 0,0.96604 0.68835,1.75 1.5625,1.75 l 39.625,0 c 0.87417,0 1.5625,-0.78396 1.5625,-1.75 l 0,-6.75 L 170.05357,848.24084 Z"
       id="path874" />
    <g
       id="g1122"
       transform="translate(0,72.142857)"
       style="fill:#000000">
      <path
         sodipodi:nodetypes="cccc"
         inkscape:connector-curvature="0"
         id="polygon27"
         d="M 187.089,187.54 175.00599,102.74623 140.42585,146.58055 Z"
         style="fill:#000000;fill-opacity:0.52571429;fill-rule:evenodd"
         transform="matrix(0.1091782,0,0,0.1091782,180.39827,819.04704)" />
      <path
         id="polygon38"
         transform="translate(167.42857,811.2193)"
         d="M 20.3125,21.25 17.4375,29.375 33.40625,28.3125 23.34375,27.5 23.25,27.53125 20.3125,21.25 Z"
         style="fill:#000000;fill-opacity:0.52571429;fill-rule:evenodd"
         inkscape:connector-curvature="0" />
      <polygon
         style="fill:#000000;fill-opacity:0.52571429;fill-rule:evenodd"
         id="polygon68"
         transform="matrix(0.09683971,0,0,0.09701355,182.12813,820.82527)"
         points="58.33,120.01 140.2,146.18 119,63.14 " />
      <path
         sodipodi:nodetypes="cccc"
         inkscape:connector-curvature="0"
         id="polygon96"
         d="M 166.5,0.77 136.81789,16.518647 112.50197,-0.78110866 Z"
         style="fill:#000000;fill-opacity:0.52571429;fill-rule:evenodd"
         transform="matrix(0.1091782,0,0,0.1091782,180.39827,819.04704)" />
      <path
         style="fill:#000000;fill-opacity:0.52571429;fill-rule:evenodd"
         id="path111"
         inkscape:connector-curvature="0"
         d="m 180.61007,830.03583 1.25556,3.56139 5.45563,-1.224 6.22862,-5.78863 1.75777,-5.58326 -2.76778,-1.95429 -4.70558,1.76104 c -1.48253,1.37893 -4.35938,4.10729 -4.46309,4.1586 C 183.26856,825.01909 181.47149,828.41562 180.61007,830.03583 Z" />
      <path
         transform="translate(167.42857,811.2193)"
         id="path169"
         d="m 27.8125,9.75 6.25,5.0625 c -0.01723,0.04601 -0.01091,0.11411 -0.03125,0.15625 -0.06689,0.13859 -0.151834,0.271917 -0.21875,0.40625 L 26.15625,15.34375 31.25,18.5 l 0.03125,0.03125 0.8125,0.5 c 0.732686,-1.042317 1.291302,-2.272381 1.71875,-3.40625 l 0.28125,-0.53125 -0.78125,11.78125 0.0625,1.34375 1.15625,-15.3125 0.03125,-0.125 c 0.01902,-0.178245 0.0252,-0.353248 0.03125,-0.53125 0.01814,-0.533392 -0.0264,-1.064432 -0.15625,-1.5625 L 27.8125,9.75 Z"
         style="fill:#000000;fill-opacity:0.52571429;fill-rule:evenodd"
         inkscape:connector-curvature="0" />
      <path
         style="fill:#000000;fill-opacity:0.52571429;fill-rule:evenodd"
         id="path206"
         inkscape:connector-curvature="0"
         d="m 181.8558,833.58849 -0.47274,5.62922 c 0.89198,1.21843 2.11915,1.32433 3.40636,1.22935 C 183.85813,838.12921 181.99773,833.49459 181.8558,833.58849 Z" />
      <path
         sodipodi:nodetypes="cccc"
         inkscape:connector-curvature="0"
         id="polygon109"
         d="M 0,158.09 14.840843,132.63748 -0.38498185,102.80008 Z"
         style="fill:#000000;fill-opacity:0.52571429;fill-rule:evenodd"
         transform="matrix(0.10909286,-0.00431598,0.00431598,0.10909286,179.64902,819.21488)" />
    </g>
    <g
       transform="translate(169.31761,812.9489)"
       style="font-size:7.5px;font-style:normal;font-variant:normal;font-weight:bold;font-stretch:normal;line-height:125%;letter-spacing:0px;word-spacing:0px;fill:#ffffff;fill-opacity:1;stroke:none;font-family:Impact;-inkscape-font-specification:Impact Bold"
       id="text1330">
      <path
         d="m 14.323484,36.515205 1.091309,0 q 1.091309,0 1.47583,0.08423 0.388184,0.08423 0.629883,0.432129 0.245361,0.344238 0.245361,1.102295 0,0.692138 -0.172119,0.930176 -0.172119,0.238037 -0.67749,0.285644 0.457764,0.113525 0.615234,0.303955 0.157471,0.19043 0.194092,0.351563 0.04028,0.15747 0.04028,0.875244 l 0,1.56372 -1.431885,0 0,-1.970214 q 0,-0.476075 -0.0769,-0.5896 -0.07324,-0.113525 -0.391846,-0.113525 l 0,2.673339 -1.541748,0 L 14.323484,36.515205 z m 1.541748,1.014405 0,1.318359 q 0.26001,0 0.362549,-0.06958 0.106201,-0.07324 0.106201,-0.465088 l 0,-0.325928 q 0,-0.281982 -0.102539,-0.369873 Q 16.132566,37.52961 15.865232,37.52961 Z"
         id="path1335"
         inkscape:connector-curvature="0" />
      <path
         d="m 21.871092,36.515205 0,3.962403 q 0,0.673828 -0.04395,0.948486 -0.04395,0.270996 -0.26001,0.560303 -0.216065,0.285644 -0.571289,0.435791 -0.351563,0.146484 -0.831299,0.146484 -0.531006,0 -0.9375,-0.175781 -0.406494,-0.175781 -0.60791,-0.457764 -0.201416,-0.281982 -0.238037,-0.593261 -0.03662,-0.314942 -0.03662,-1.31836 l 0,-3.508301 1.541748,0 0,4.445801 q 0,0.388184 0.04028,0.498047 0.04395,0.106201 0.172119,0.106201 0.146484,0 0.186767,-0.117187 0.04395,-0.12085 0.04395,-0.563965 l 0,-4.368897 L 21.871092,36.515205 Z"
         id="path1337"
         inkscape:connector-curvature="0" />
      <path
         d="m 22.468016,36.515205 1.538086,0 q 0.728759,0 1.102295,0.113526 0.377197,0.113525 0.60791,0.461426 0.230713,0.344238 0.230713,1.113281 0,0.520019 -0.164795,0.725097 -0.161133,0.205079 -0.640869,0.314942 0.534667,0.120849 0.725097,0.402832 0.19043,0.27832 0.19043,0.856933 l 0,0.549317 q 0,0.600586 -0.13916,0.889892 -0.135498,0.289307 -0.435791,0.395508 -0.300293,0.106201 -1.230469,0.106201 l -1.783447,0 L 22.468016,36.515205 z m 1.541748,1.014405 0,1.318359 q 0.09888,-0.0037 0.153808,-0.0037 0.227051,0 0.289307,-0.109863 0.06226,-0.113526 0.06226,-0.640869 0,-0.278321 -0.05127,-0.388184 -0.05127,-0.113525 -0.135498,-0.142822 Q 24.247801,37.533272 24.009764,37.52961 z m 0,2.241211 0,1.658935 q 0.325927,-0.01099 0.413818,-0.102539 0.09155,-0.09155 0.09155,-0.450439 l 0,-0.552979 q 0,-0.380859 -0.08057,-0.461426 Q 24.354002,39.781807 24.009764,39.770821 Z"
         id="path1339"
         inkscape:connector-curvature="0" />
      <path
         d="m 29.898436,36.515205 -1.124268,3.782959 0,2.145996 -1.428223,0 0,-2.145996 -1.083984,-3.782959 1.417236,0 q 0.333252,1.732178 0.373535,2.332764 0.128174,-0.948486 0.428467,-2.332764 L 29.898436,36.515205 Z"
         id="path1341"
         inkscape:connector-curvature="0" />
    </g>
    <g
       id="g1133"
       transform="matrix(0.19529712,0,0,0.19529712,176.92852,658.61805)"
       style="fill:#ffffff;fill-opacity:0.50285716">
      <path
         id="path1098"
         transform="translate(167.42857,811.2193)"
         d="M -61.90625,39.46875 -80.3125,39.6875 -71.34375,45.59375 -61.90625,39.46875 z m 7.71875,0.375 L -64.78125,45.875 -45.125,46.96875 -54.1875,39.84375 z m -32.78125,7.6875 c -2.617643,0.148838 -5.753931,1.041427 -9.25,2.78125 -11.18742,5.567434 -21.71894,17.537967 -23.53125,26.71875 -1.81231,9.180783 5.78133,12.098684 16.96875,6.53125 C -91.593828,77.995066 -81.062313,66.055783 -79.25,56.875 -78.004035,50.563212 -81.209935,47.203806 -86.96875,47.53125 z m 16.5,1.59375 -6.0625,15.65625 L -50.25,64.40625 -70.46875,49.125 Z M -64,49.53125 l 19.25,15.125 0.28125,-13.4375 L -64,49.53125 z m 18.03125,18.40625 -26.25,0.40625 19.0625,12.875 L -45.96875,67.9375 z m -31.9375,1.40625 c -17.817765,17.377547 -21.369186,23.774063 -42.8125,25.375 -3.91428,-0.859937 -4.24849,-8.364551 -6.0625,-13.125 l -0.25,30.3125 c 0.35281,2.00674 2.92133,7.97777 11.5,9.59375 21.739944,0.75514 44.135158,-1.1618 66.53125,-3.03125 2.523456,-13.9741 2.372252,-28.402659 3.03125,-42.6875 -9.653875,14.984578 -20.481656,25.48166 -31.8125,34.09375 L -75,107.09375 -55.0625,83.46875 -77.90625,69.34375 Z"
         style="fill:#ffffff;fill-opacity:0.50285716;stroke:none"
         inkscape:connector-curvature="0" />
      <path
         transform="translate(167.42857,811.2193)"
         inkscape:connector-curvature="0"
         id="path1112"
         d="M -84.600276,27.291873 -73.362329,28.428294 -76.013979,6.7100145 Z"
         style="fill:#ffffff;fill-opacity:0.50285716;stroke:none" />
      <path
         style="fill:#ffffff;fill-opacity:0.50285716;stroke:none"
         d="M 122.53277,842.06225 130.83313,849.723 141.76293,830.76899 Z"
         id="path1114"
         inkscape:connector-curvature="0" />
      <path
         sodipodi:nodetypes="cccc"
         style="fill:#ffffff;fill-opacity:0.50285716;stroke:none"
         d="M 46.535233,861.43599 54.874956,854.0572 36.535268,842.22371 Z"
         id="path1116"
         inkscape:connector-curvature="0" />
      <path
         sodipodi:nodetypes="cccc"
         inkscape:connector-curvature="0"
         id="path1118"
         d="M 28.938769,900.64748 28.739985,889.35397 6.7292655,897.07747 Z"
         style="fill:#ffffff;fill-opacity:0.50285716;stroke:none" />
      <path
         style="fill:#ffffff;fill-opacity:0.50285716;stroke:none"
         d="M 36.561923,937.49047 28.553167,929.52539 16.923776,948.05838 Z"
         id="path1120"
         inkscape:connector-curvature="0" />
    </g>
  </g>
</svg>
