<?xml version="1.0" encoding="UTF-8" standalone="no"?>
<!-- Created with Inkscape (http://www.inkscape.org/) -->

<svg
   xmlns:dc="http://purl.org/dc/elements/1.1/"
   xmlns:cc="http://creativecommons.org/ns#"
   xmlns:rdf="http://www.w3.org/1999/02/22-rdf-syntax-ns#"
   xmlns:svg="http://www.w3.org/2000/svg"
   xmlns="http://www.w3.org/2000/svg"
   xmlns:sodipodi="http://sodipodi.sourceforge.net/DTD/sodipodi-0.dtd"
   xmlns:inkscape="http://www.inkscape.org/namespaces/inkscape"
   width="24"
   height="24"
   id="svg2"
   version="1.1"
   inkscape:version="0.48.3.1 r9886"
   sodipodi:docname="preferences-desktop-peripherals-directory.svg">
  <defs
     id="defs4" />
  <sodipodi:namedview
     id="base"
     pagecolor="#ffffff"
     bordercolor="#666666"
     borderopacity="1.0"
     inkscape:pageopacity="0.0"
     inkscape:pageshadow="2"
     inkscape:zoom="7.9195959"
     inkscape:cx="23.682842"
     inkscape:cy="17.048525"
     inkscape:document-units="px"
     inkscape:current-layer="layer1"
     showgrid="false"
     inkscape:window-width="1366"
     inkscape:window-height="716"
     inkscape:window-x="0"
     inkscape:window-y="28"
     inkscape:window-maximized="1"
     width="0px"
     height="0px"
     fit-margin-top="0"
     fit-margin-left="0"
     fit-margin-right="0"
     fit-margin-bottom="0">
    <inkscape:grid
       type="xygrid"
       id="grid2984"
       empspacing="5"
       visible="true"
       enabled="true"
       snapvisiblegridlinesonly="true" />
  </sodipodi:namedview>
  <metadata
     id="metadata7">
    <rdf:RDF>
      <cc:Work
         rdf:about="">
        <dc:format>image/svg+xml</dc:format>
        <dc:type
           rdf:resource="http://purl.org/dc/dcmitype/StillImage" />
        <dc:title />
      </cc:Work>
    </rdf:RDF>
  </metadata>
  <g
     inkscape:label="Capa 1"
     inkscape:groupmode="layer"
     id="layer1"
     transform="translate(0,-1028.3622)">
    <g
       id="g836"
       transform="matrix(0.32079917,0.32079917,-0.32079917,0.32079917,318.68055,695.62228)"
       style="fill:#1a1a1a">
      <path
         id="rect826"
         transform="translate(0,1004.3622)"
         d="m 63.5625,3.875 c -3.116255,0 -5.625,2.5087452 -5.625,5.625 l 0,2.65625 c 0,3.116255 2.508745,5.625 5.625,5.625 l 20,0 c 3.116255,0 5.625,-2.508745 5.625,-5.625 l 0,-2.65625 c 0,-3.1162548 -2.508745,-5.625 -5.625,-5.625 L 63.5625,3.875 z m 18.59375,4.21875 c 1.513852,0 2.71875,1.236148 2.71875,2.75 0,1.513852 -1.204898,2.71875 -2.71875,2.71875 -1.513852,0 -2.75,-1.204898 -2.75,-2.71875 C 79.40625,9.329898 80.642398,8.09375 82.15625,8.09375 Z"
         style="fill:#1a1a1a;fill-opacity:1;fill-rule:nonzero;stroke:none"
         inkscape:connector-curvature="0" />
      <path
         id="path831"
         transform="translate(0,1004.3622)"
         d="m 43.84375,-1.71875 c -5.334755,0 -9.903213,3.2910298 -11.8125,7.9375 l 10.8125,0 c 0.995993,0 1.8125,0.8165073 1.8125,1.8125 l 0,6.03125 c 0,0.995993 -0.816507,1.8125 -1.8125,1.8125 L 32,15.875 c 1.901002,4.664335 6.496113,7.9375 11.84375,7.9375 7.051493,0 12.75,-5.698507 12.75,-12.75 C 56.59375,4.0110071 50.895243,-1.71875 43.84375,-1.71875 Z"
         style="fill:#1a1a1a;fill-opacity:1;fill-rule:nonzero;stroke:none"
         inkscape:connector-curvature="0" />
    </g>
  </g>
</svg>
