<?xml version="1.0" encoding="UTF-8" standalone="no"?>
<!-- Created with Inkscape (http://www.inkscape.org/) -->

<svg
   xmlns:dc="http://purl.org/dc/elements/1.1/"
   xmlns:cc="http://creativecommons.org/ns#"
   xmlns:rdf="http://www.w3.org/1999/02/22-rdf-syntax-ns#"
   xmlns:svg="http://www.w3.org/2000/svg"
   xmlns="http://www.w3.org/2000/svg"
   xmlns:xlink="http://www.w3.org/1999/xlink"
   xmlns:sodipodi="http://sodipodi.sourceforge.net/DTD/sodipodi-0.dtd"
   xmlns:inkscape="http://www.inkscape.org/namespaces/inkscape"
   width="48"
   height="48"
   id="svg2"
   version="1.1"
   inkscape:version="0.48+devel r12149"
   sodipodi:docname="applications-internet.svg">
  <defs
     id="defs4">
    <linearGradient
       inkscape:collect="always"
       xlink:href="#linearGradient3795-17"
       id="linearGradient3801"
       x1="23.204165"
       y1="1053.158"
       x2="23.204165"
       y2="1004.8474"
       gradientUnits="userSpaceOnUse"
       gradientTransform="translate(0,-2056.7244)" />
    <linearGradient
       id="linearGradient3795-17">
      <stop
         id="stop3797-46"
         offset="0"
         style="stop-color:#74bef2;stop-opacity:1;" />
      <stop
         id="stop3799-73"
         offset="1"
         style="stop-color:#1482cf;stop-opacity:1;" />
    </linearGradient>
    <linearGradient
       id="linearGradient5944-6-9-3">
      <stop
         id="stop5946-9-5-0"
         style="stop-color:#f0f0f0;stop-opacity:1"
         offset="0" />
      <stop
         id="stop5952-4-9-7"
         style="stop-color:#e6e6e6;stop-opacity:1"
         offset="0.5" />
      <stop
         id="stop5954-4-7-2"
         style="stop-color:#d2d2d2;stop-opacity:1"
         offset="0.5" />
      <stop
         id="stop5948-6-2-1"
         style="stop-color:#bebebe;stop-opacity:1"
         offset="1" />
    </linearGradient>
    <linearGradient
       x1="59"
       y1="88"
       x2="69"
       y2="88"
       id="linearGradient4580"
       xlink:href="#linearGradient5944-6-9-3"
       gradientUnits="userSpaceOnUse" />
    <linearGradient
       id="linearGradient5932-3-2-4">
      <stop
         id="stop5934-3-2-9"
         style="stop-color:#ff7c53;stop-opacity:1"
         offset="0" />
      <stop
         id="stop5940-1-4-5"
         style="stop-color:#f21919;stop-opacity:1"
         offset="0.5" />
      <stop
         id="stop5942-5-4-7"
         style="stop-color:#db1414;stop-opacity:1"
         offset="0.5" />
      <stop
         id="stop5936-2-5-0"
         style="stop-color:#9b1818;stop-opacity:1"
         offset="1" />
    </linearGradient>
    <linearGradient
       x1="59"
       y1="40"
       x2="69"
       y2="40"
       id="linearGradient4578"
       xlink:href="#linearGradient5932-3-2-4"
       gradientUnits="userSpaceOnUse" />
    <linearGradient
       x1="48"
       y1="20.220806"
       x2="48"
       y2="138.66119"
       id="linearGradient2885"
       xlink:href="#linearGradient3737-6"
       gradientUnits="userSpaceOnUse" />
    <filter
       x="-0.192"
       y="-0.192"
       width="1.3839999"
       height="1.3839999"
       color-interpolation-filters="sRGB"
       id="filter3794">
      <feGaussianBlur
         id="feGaussianBlur3796"
         stdDeviation="5.28" />
    </filter>
    <clipPath
       id="clipPath3613">
      <rect
         width="84"
         height="84"
         rx="6"
         ry="6"
         x="6"
         y="6"
         id="rect3615"
         style="fill:#ffffff;fill-opacity:1;fill-rule:nonzero;stroke:none" />
    </clipPath>
    <linearGradient
       id="linearGradient3737-6">
      <stop
         id="stop3739-73"
         style="stop-color:#ffffff;stop-opacity:1"
         offset="0" />
      <stop
         id="stop3741-6"
         style="stop-color:#ffffff;stop-opacity:0"
         offset="1" />
    </linearGradient>
    <filter
       color-interpolation-filters="sRGB"
       id="filter3174">
      <feGaussianBlur
         id="feGaussianBlur3176"
         stdDeviation="1.71" />
    </filter>
    <linearGradient
       x1="45.447727"
       y1="92.539597"
       x2="45.447727"
       y2="7.0165396"
       id="ButtonShadow"
       gradientUnits="userSpaceOnUse"
       gradientTransform="scale(1.0058652,0.994169)">
      <stop
         id="stop3750"
         style="stop-color:#000000;stop-opacity:1"
         offset="0" />
      <stop
         id="stop3752-8"
         style="stop-color:#000000;stop-opacity:0.58823532"
         offset="1" />
    </linearGradient>
  </defs>
  <sodipodi:namedview
     id="base"
     pagecolor="#ffffff"
     bordercolor="#666666"
     borderopacity="1.0"
     inkscape:pageopacity="0.0"
     inkscape:pageshadow="2"
     inkscape:zoom="5.6568545"
     inkscape:cx="-14.59255"
     inkscape:cy="31.654974"
     inkscape:document-units="px"
     inkscape:current-layer="layer1"
     showgrid="false"
     inkscape:window-width="1366"
     inkscape:window-height="716"
     inkscape:window-x="0"
     inkscape:window-y="28"
     inkscape:window-maximized="1">
    <inkscape:grid
       type="xygrid"
       id="grid3850" />
  </sodipodi:namedview>
  <metadata
     id="metadata7">
    <rdf:RDF>
      <cc:Work
         rdf:about="">
        <dc:format>image/svg+xml</dc:format>
        <dc:type
           rdf:resource="http://purl.org/dc/dcmitype/StillImage" />
        <dc:title />
      </cc:Work>
    </rdf:RDF>
  </metadata>
  <g
     inkscape:label="Capa 1"
     inkscape:groupmode="layer"
     id="layer1"
     transform="translate(0,-1004.3622)">
    <rect
       style="fill:url(#linearGradient3801);fill-opacity:1.0;stroke:none"
       id="rect2991"
       width="48"
       height="48"
       x="0"
       y="-1052.3622"
       ry="1.9445436"
       transform="scale(1,-1)" />
    <g
       id="layer2"
       style="display:none"
       transform="translate(-145.09362,976.21837)">
      <rect
         width="86"
         height="85"
         rx="6"
         ry="6"
         x="5"
         y="7"
         id="rect3745"
         style="opacity:0.9;fill:url(#ButtonShadow);fill-opacity:1;fill-rule:nonzero;stroke:none;filter:url(#filter3174)" />
    </g>
    <g
       id="layer4"
       style="display:none"
       transform="translate(-145.09362,976.21837)">
      <rect
         width="66"
         height="66"
         rx="12"
         ry="12"
         x="15"
         y="15"
         clip-path="url(#clipPath3613)"
         id="rect3171"
         style="opacity:0.15;fill:url(#linearGradient2885);fill-opacity:1;fill-rule:nonzero;stroke:#ffffff;stroke-width:0.5;stroke-linecap:round;stroke-linejoin:miter;stroke-miterlimit:4;stroke-opacity:1;stroke-dasharray:none;stroke-dashoffset:0;filter:url(#filter3794)" />
    </g>
    <path
       inkscape:connector-curvature="0"
       style="opacity:0.2;fill:#000000;fill-opacity:1;stroke:none;display:inline"
       d="m 25.4354,1004.5675 c -0.288346,-0.01 -0.565033,0.052 -0.806721,0.1014 l 0,-0.033 -7.731094,0 a 0.42518752,0.42708384 0 0 0 -0.336135,0.6752 c 0.371344,0.501 0.424992,1.2997 0.504203,2.0258 0.0396,0.3632 0.06883,0.6859 0.268907,1.013 0.105389,0.1724 0.271105,0.3082 0.470588,0.4053 -0.05252,0.021 -0.09495,0.035 -0.168067,0.135 -0.01791,0.024 0.01127,0.07 0,0.1013 a 0.42518752,0.42708384 0 0 0 -0.06722,0.033 c -0.146942,0.1228 -0.287332,0.2385 -0.336134,0.439 -0.04878,0.2004 0.02286,0.4454 0.134454,0.5739 0.22318,0.2567 0.499993,0.2909 0.739495,0.3039 -0.08936,0.1202 -0.19497,0.242 -0.20168,0.4727 -0.0046,0.1606 0.06958,0.3059 0.168067,0.4388 0.0035,0.01 -0.0035,0.029 0,0.033 -0.15596,0.2258 -0.283767,0.478 -0.302522,0.7427 -0.03222,0.455 0.09503,0.9223 0.268908,1.3842 0.344262,0.915 0.89029,1.7843 1.478993,2.2285 0.007,0.01 0.02673,0 0.03361,0 0.216555,0.18 0.417054,0.3117 0.672269,0.3376 0.263333,0.027 0.531166,-0.129 0.672269,-0.3039 0.282209,-0.3498 0.34144,-0.744 0.436976,-1.1817 0.09553,-0.4374 0.186491,-0.8995 0.336133,-1.2155 0.149642,-0.3161 0.281813,-0.4751 0.537815,-0.5064 a 0.42518752,0.42708384 0 0 0 0.302521,-0.135 c 0.815931,-0.9361 2.433448,-1.6304 3.663867,-2.7687 a 0.42518752,0.42708384 0 0 0 0.06722,-0.5401 c 0.08889,-0.049 0.194822,-0.057 0.235293,-0.1351 0.07504,-0.146 0.0437,-0.2501 0.03361,-0.3377 -0.02019,-0.1752 -0.05928,-0.3137 -0.134453,-0.4727 -0.15035,-0.3185 -0.389386,-0.6729 -0.672269,-1.0129 -0.06718,-0.08 -0.164177,-0.1264 -0.235294,-0.2025 0.199222,-0.03 0.415917,-0.09 0.605042,-0.1351 0.221186,-0.052 0.451834,-0.093 0.638654,-0.3039 0.113996,-0.1291 0.07819,-0.3276 0.100839,-0.5064 0.119208,-0.099 0.265004,-0.2037 0.336135,-0.3376 0.09144,-0.172 0.08223,-0.4223 0,-0.6078 -0.164445,-0.3711 -0.440429,-0.4547 -0.739497,-0.5402 C 26.111125,1004.6509 25.756274,1004.5802 25.4354,1004.5675 z m -18.0840338,1.0129 a 0.42518752,0.42708384 0 0 0 -0.2689075,0.2026 c -0.1197077,0.1887 -0.1392424,0.3569 -0.2016807,0.5402 -0.1186946,-0.1801 -0.24232,-0.3521 -0.5042017,-0.4052 a 0.42518752,0.42708384 0 0 0 -0.2352941,0 c -0.6947299,0.2327 -1.0765862,0.8655 -1.0084034,1.4855 0.068183,0.62 0.6096295,1.1881 1.4117647,1.283 a 0.42518752,0.42708384 0 0 0 0.033613,0 c -0.00507,0.1086 -0.021768,0.2393 0,0.3376 0.026819,0.1216 0.049383,0.2095 0.1008407,0.3041 a 0.42518752,0.42708384 0 0 0 -0.4369749,0.1013 c -0.1488092,0.1565 -0.2487893,0.321 -0.302521,0.5066 -0.053729,0.1853 -0.0323,0.4137 0.067227,0.5739 0.024268,0.04 0.073595,0.035 0.1008406,0.067 -0.017287,0.01 -0.050458,0.025 -0.067227,0.033 -0.1503132,0.081 -0.2869603,0.1284 -0.4033613,0.135 -0.1164011,0.011 -0.2372943,0.024 -0.4705883,-0.1689 0.2284949,-0.021 0.4657958,-0.1291 0.6050421,-0.3376 0.1392461,-0.2086 0.164733,-0.4532 0.1344537,-0.6415 -0.030281,-0.1882 -0.090229,-0.3571 -0.1680673,-0.5402 -0.1556772,-0.3661 -0.3843012,-0.7422 -0.5714285,-1.1142 -0.1871276,-0.3722 -0.3366036,-0.764 -0.3697479,-0.9791 a 0.42518752,0.42708384 0 0 0 -0.1008407,-0.2025 c -0.144613,-0.1559 -0.2844967,-0.3009 -0.5378152,-0.3377 -0.1266596,-0.019 -0.2965551,0.023 -0.4033613,0.1013 -0.093092,0.068 -0.1335491,0.1313 -0.1680673,0.2027 a 0.42518752,0.42708384 0 0 0 -0.4369748,0.2363 c -0.028975,0.064 -0.053202,0.064 -0.067227,0.067 -0.014026,0.01 -0.046836,0 -0.1344538,-0.033 -0.1752325,-0.072 -0.3982806,-0.3197 -0.4033613,-0.3376 a 0.42518752,0.42708384 0 0 0 -0.4369749,-0.3038 c -0.00297,-0.1531 0.00278,-0.3133 -0.1008406,-0.439 -0.020654,-0.025 -0.045192,-0.046 -0.067227,-0.067 -0.9297419,0.7584 -1.59208308,1.7895 -1.94957996,2.9711 0.1930934,0.017 0.38389282,-0.068 0.53781516,-0.1687 0.16428221,-0.1085 0.30962632,-0.2727 0.47058824,-0.4727 0.0286776,0.069 0.0307052,0.1408 0.0672267,0.2026 -0.042629,0.042 -0.0685731,0.086 -0.10084056,0.1688 -0.0364265,0.095 -0.0660254,0.2407 -0.0336139,0.3376 0.0648157,0.1946 0.19517876,0.2275 0.26890756,0.2701 0.1153059,0.067 0.2281611,0.1059 0.3361345,0.1351 -0.020574,0.021 -0.048105,0.047 -0.067227,0.067 -0.094901,0.1157 -0.067917,0.2733 -0.067227,0.4389 -0.3503648,-0.2207 -0.6509996,-0.3864 -1.07563043,-0.6077 a 0.42518752,0.42708384 0 0 0 -0.13445375,-0.033 c -0.10617548,-0.014 -0.20065689,-0.011 -0.30252102,0 -0.11154673,0.465 -0.20168068,0.9516 -0.20168068,1.452 l 0,14.0792 c 0.24868917,0.6414 0.64566403,1.2564 1.34453788,1.6544 0.1982584,0.371 0.6465866,1.1954 1.0756302,1.8909 0.224981,0.3644 0.4230055,0.6581 0.6386556,0.8778 0.1078254,0.1095 0.1786243,0.252 0.5042017,0.2363 0.1192293,-0.011 0.2165361,-0.086 0.302521,-0.1687 1.1179275,1.4283 2.5911938,2.4223 4.4705881,2.8359 0.5253357,0.1799 1.0679139,0.6111 1.6470588,1.0131 0.4392934,0.3047 0.9690664,0.5443 1.5126054,0.574 0.03608,0.2292 0.07453,0.4772 0,0.7428 -0.100602,0.3585 -0.311934,0.7584 -0.470588,1.1816 -0.158656,0.4229 -0.300528,0.844 -0.235294,1.3504 0.06077,0.472 0.327787,0.9675 0.806721,1.3844 0.544811,0.843 1.249793,1.4987 1.64706,2.161 0.397268,0.662 0.551318,1.266 0.134454,2.262 a 0.42518752,0.42708384 0 0 0 0,0.033 c -0.680574,2.2713 -0.414235,4.6216 -0.941177,6.5162 a 0.42518752,0.42708384 0 0 0 0,0.067 c -0.06198,0.4371 0.007,0.8892 0.168067,1.3505 0.161029,0.4612 0.397542,0.8978 0.638656,1.2493 0.120556,0.1758 0.256608,0.3498 0.40336,0.4726 0.146756,0.1228 0.350465,0.2434 0.638657,0.1688 0.288194,-0.075 0.418492,-0.3519 0.470588,-0.5739 0.04515,-0.1926 0.04569,-0.4369 0.03361,-0.709 0.543394,-1.7547 0.608312,-3.4571 1.64706,-4.5244 0.396086,-0.043 0.714241,-0.1694 0.907562,-0.4051 0.232953,-0.2842 0.260192,-0.5887 0.302521,-0.8103 0.04233,-0.2217 0.112324,-0.3488 0.134454,-0.3714 0.02213,-0.023 0.100613,-0.087 0.470588,-0.033 a 0.42518752,0.42708384 0 0 0 0.369748,-0.1686 c 0.571079,-0.7523 0.939228,-1.5397 1.344539,-2.1608 0.405311,-0.6212 0.821004,-1.0715 1.613446,-1.3169 a 0.42518752,0.42708384 0 0 0 0.302521,-0.3376 c 0.08223,-0.6521 0.815193,-1.7692 1.210083,-2.8023 0.197444,-0.5169 0.302112,-1.0593 0.100839,-1.587 -0.19218,-0.5037 -0.712114,-0.8553 -1.44538,-1.0465 -0.02888,-0.011 -0.03761,-0.028 -0.06722,-0.033 -0.495352,-0.2238 -1.127393,-0.3392 -1.680673,-0.4388 -0.268255,-0.049 -0.51772,-0.066 -0.672268,-0.1013 -0.0096,-0.411 -0.09291,-0.8256 -0.336134,-1.1143 -0.309582,-0.3674 -0.729034,-0.6215 -1.176471,-0.844 -0.894877,-0.4451 -1.955586,-0.749 -2.487396,-1.0467 l 0,0.033 c -0.507892,-0.3376 -1.1019,-0.3954 -1.613444,-0.3039 -0.528437,0.094 -1.022154,0.2996 -1.44538,0.4388 -0.423223,0.139 -0.771913,0.1876 -0.941175,0.1351 -0.169264,-0.052 -0.310699,-0.1566 -0.436975,-0.7428 a 0.42518752,0.42708384 0 0 0 -0.03361,-0.1013 c -0.239235,-0.5857 -0.7224763,-0.8377 -0.9411762,-1.0467 -0.1093515,-0.1037 -0.150143,-0.1513 -0.1680675,-0.2362 -0.017924,-0.086 -0.019169,-0.2368 0.1008387,-0.5067 a 0.42518752,0.42708384 0 0 0 -0.7058823,-0.4727 c -0.403864,0.4037 -1.0296839,0.5376 -1.4117645,0.4053 -0.1910405,-0.066 -0.287684,-0.1884 -0.369748,-0.3715 -0.078782,-0.1758 -0.098431,-0.4414 0,-0.844 0.3266009,-0.6231 1.100322,-1.0303 1.8823529,-1.0131 0.8008715,0.018 1.5030849,0.4044 1.7142859,1.2156 l 0.40336,-0.1013 0.403362,-0.135 c -0.316579,-0.9662 -0.01998,-1.7767 0.537815,-2.6337 0.557803,-0.8569 1.359332,-1.7005 1.983194,-2.5322 a 0.42518752,0.42708384 0 0 0 0.06722,-0.1351 c 0.03478,-0.1085 0.216549,-0.2398 0.369748,-0.3714 a 0.42518752,0.42708384 0 0 0 0.436976,0.2701 c 0.334598,-0.012 0.585042,-0.1424 0.840336,-0.3037 0.255293,-0.1615 0.478936,-0.3422 0.638655,-0.5403 0.07986,-0.099 0.156222,-0.2233 0.201682,-0.3716 0.02273,-0.074 0.06118,-0.1472 0.03361,-0.27 -0.01378,-0.061 -0.05942,-0.1443 -0.100839,-0.2026 0.426415,0.4837 1.167509,0.6243 1.848739,0.3376 a 0.42518752,0.42708384 0 0 0 0.235294,-0.5402 c -0.145285,-0.3992 -0.398692,-0.6836 -0.571427,-0.9115 -0.172737,-0.2281 -0.23293,-0.3714 -0.235295,-0.5065 a 0.42518752,0.42708384 0 0 0 -0.201682,-0.3376 c 0.03751,-0.1654 0.113825,-0.3386 0.06723,-0.5064 -0.07412,-0.2666 -0.238993,-0.4958 -0.470588,-0.7766 a 0.42518752,0.42708384 0 0 0 -0.168067,-0.1352 c -0.188291,-0.076 -0.367749,-0.2769 -0.537815,-0.5739 -0.170067,-0.2968 -0.310703,-0.68 -0.470589,-1.0128 -0.159887,-0.3331 -0.323717,-0.682 -0.77311,-0.8104 -0.224696,-0.064 -0.47906,-0.021 -0.672268,0.1014 -0.07154,-0.1238 -0.14529,-0.2553 -0.235294,-0.3715 -0.278393,-0.3584 -0.627178,-0.6702 -1.008404,-0.9116 -0.381225,-0.2412 -0.800541,-0.4414 -1.243697,-0.3712 -0.221579,0.035 -0.438338,0.1933 -0.571429,0.405 -0.133089,0.212 -0.177499,0.4672 -0.168067,0.7429 a 0.42518752,0.42708384 0 0 0 0,0.067 c 0.234898,1.0983 0.152064,2.341 -0.168068,3.2749 -0.140044,-0.2131 -0.284386,-0.4199 -0.470588,-0.5739 -0.443143,-0.3662 -0.9802871,-0.578 -1.4453774,-0.8103 -0.4650897,-0.2323 -0.8478325,-0.4552 -1.0756306,-0.7091 -0.2209022,-0.2462 -0.3251426,-0.4962 -0.2352941,-0.9791 0.3576235,-0.58 0.7093061,-1.2499 1.0084036,-1.7555 0.098065,-0.1659 0.1927337,-0.2504 0.2689076,-0.3716 0.01764,0.1473 -0.012337,0.2992 0.067227,0.4052 0.2766529,0.3684 0.705573,0.4492 1.0756309,0.4727 0.185028,0.01 0.358327,0.031 0.537815,-0.033 0.179486,-0.057 0.393385,-0.1957 0.470589,-0.4725 0.0772,-0.277 -0.03994,-0.5305 -0.201682,-0.7091 -0.161721,-0.179 -0.387942,-0.3231 -0.705882,-0.5065 a 0.42518752,0.42708384 0 0 0 0,-0.033 l -0.06722,0 c 0.291041,-0.2541 0.523534,-0.5676 0.67227,-0.9116 0.152054,-0.3514 0.198983,-0.7897 0.06722,-1.1817 -0.07415,-0.2206 -0.194253,-0.3854 -0.369748,-0.5739 0.138358,10e-5 0.297708,-0.01 0.403361,0 0.220593,0.016 0.321054,0.049 0.436975,0.135 0.08024,0.058 0.209099,0.2307 0.302522,0.4052 a 0.42518752,0.42708384 0 0 0 -0.168068,0.1687 c -0.104594,0.1722 -0.197808,0.3173 -0.235294,0.4727 -0.03748,0.1558 -0.02786,0.3338 0.06722,0.5064 0.09507,0.1732 0.288504,0.2854 0.436974,0.3039 0.148474,0.019 0.259434,-0.025 0.369749,-0.067 0.07353,-0.031 0.133073,-0.081 0.201681,-0.135 -0.02083,0.088 0.01628,0.1366 -0.03361,0.2364 -0.226685,0.4544 -0.772299,0.9832 -1.008403,1.148 l 0.235295,0.3376 0.268907,0.3377 c 0.05897,-0.051 0.100108,-0.069 0.168068,-0.067 0.06794,0 0.17217,0.039 0.302521,0.1014 0.2607,0.1297 0.591115,0.3859 0.873948,0.6415 0.141418,0.1277 0.280707,0.2313 0.403362,0.3377 0.122656,0.1059 0.219593,0.1967 0.403362,0.2702 0.09188,0.037 0.24968,0.1122 0.436974,0 0.187295,-0.1131 0.226605,-0.3315 0.235295,-0.4391 0.0016,-0.019 -5.48e-4,-0.017 0,-0.033 0.08381,0.01 0.163756,0.018 0.268907,0 0.147082,-0.022 0.384117,-0.1081 0.470588,-0.3376 0.08646,-0.2299 0.04394,-0.4441 -0.03361,-0.6078 -0.03282,-0.068 -0.121037,-0.1632 -0.168068,-0.2364 a 0.42518752,0.42708384 0 0 0 0.302521,-0.1013 c 0.232035,-0.2089 0.406554,-0.4121 0.504202,-0.6415 0.09765,-0.2296 0.104368,-0.4951 0.03361,-0.709 -0.1415,-0.4277 -0.48953,-0.6304 -0.773109,-0.8441 -0.28358,-0.2137 -0.52927,-0.4521 -0.638656,-0.6078 -0.109384,-0.1557 -0.152794,-0.1726 0,-0.4389 a 0.42518752,0.42708384 0 0 0 -0.100838,-0.5402 c -0.284892,-0.232 -0.727597,-0.8803 -1.277311,-1.4181 -0.274857,-0.2688 -0.579505,-0.5103 -0.941176,-0.6752 -0.361671,-0.1652 -0.807551,-0.2537 -1.243698,-0.1351 -0.01842,-0.099 -0.01597,-0.1231 -0.03361,-0.2364 -0.02252,-0.1446 -0.05096,-0.2893 -0.100838,-0.4388 -0.04988,-0.1495 -0.101909,-0.3491 -0.336135,-0.4727 -0.117117,-0.061 -0.279759,-0.059 -0.40336,-0.033 -0.123602,0.027 -0.216202,0.071 -0.302522,0.1352 -0.02416,0.018 -0.043928,0.047 -0.067224,0.067 -0.012132,-0.025 -0.017048,-0.043 -0.033612,-0.067 -0.087702,-0.1255 -0.2140869,-0.2036 -0.3361351,-0.2364 a 0.42518752,0.42708384 0 0 0 -0.3025209,0.033 c -0.2054829,0.095 -0.3579609,0.2046 -0.5042015,0.3376 -0.067367,-0.2335 -0.2458226,-0.3927 -0.4033616,-0.4726 -0.3405543,-0.173 -0.7093546,-0.1901 -0.9411761,-0.2026 A 0.42518752,0.42708384 0 0 0 7.3513662,1005.5804 z m 38.4201698,0.9116 a 0.42518752,0.42708384 0 0 0 -0.100838,0.033 c -0.582281,0.2291 -0.853323,0.7455 -0.840336,1.2156 0.01298,0.4702 0.23618,0.8531 0.504202,1.1479 0.134011,0.1478 0.26255,0.2861 0.436974,0.3714 0.174425,0.086 0.425617,0.1382 0.672269,0 0.246655,-0.1373 0.325924,-0.4013 0.336135,-0.6416 0.01,-0.2351 -0.03764,-0.5153 -0.134453,-0.8439 0.0022,-1e-4 -0.0033,-0.068 0,-0.1689 0.0038,-0.1106 0.013,-0.2514 0,-0.4052 -9.1e-4,-0.01 0.0011,-0.023 0,-0.033 -0.150647,-0.2243 -0.326045,-0.4397 -0.504203,-0.6417 -0.06825,-0.019 -0.131627,-0.033 -0.20168,-0.033 C 45.877647,1006.4915 45.828805,1006.4854 45.771536,1006.492 z m -37.4453802,0.8778 c -0.012649,0.1967 -0.067023,0.3955 -0.033614,0.5739 0.062644,0.3342 0.1725204,0.6099 0.2689076,0.8442 0.072293,0.1757 0.1462795,0.3661 0.1680675,0.4051 a 0.42518752,0.42708384 0 0 0 0.2689076,0.3377 c 0.2138621,0.074 0.3786022,0.067 0.5714288,0.1015 a 0.42518752,0.42708384 0 0 0 0,0.067 c -0.00927,0.095 -0.1087152,0.2158 -0.1680674,0.3715 A 0.42518752,0.42708384 0 0 0 8.66229,1009.9358 c -0.03839,-0.087 -0.072174,-0.1517 -0.134454,-0.3717 -0.089568,-0.3164 -0.1596472,-0.6906 -0.3025211,-1.0466 -0.089718,-0.2233 -0.2257478,-0.4279 -0.4033613,-0.6077 0.047144,-0.016 0.092107,-0.01 0.1344537,-0.033 C 8.1168112,1007.7801 8.2037297,1007.5431 8.3261558,1007.3698 z m 30.5210112,1.0129 c -0.04331,0 -0.07726,0.051 -0.134455,0.067 l -0.03361,-0.033 c -1.266574,0.3117 -2.161772,1.0918 -2.857144,1.9922 -0.67857,0.8785 -1.171892,1.8882 -1.714284,2.7685 -0.938245,0.5167 -1.388817,1.5981 -1.344539,2.4984 0.02335,0.475 0.173782,0.9347 0.571429,1.2156 0.122164,0.087 0.287814,0.073 0.436974,0.1014 -0.120243,0.1684 -0.204232,0.3685 -0.235294,0.5402 -0.05452,0.3019 -0.02972,0.5674 -0.03361,0.7765 -0.0039,0.2092 -0.03122,0.3243 -0.06723,0.3714 -0.036,0.047 -0.09356,0.1151 -0.436975,0.1351 a 0.42518752,0.42708384 0 0 0 -0.403361,0.3376 c -0.0039,0.014 -0.0286,0.019 -0.03361,0.033 -0.0075,-0.1639 -0.009,-0.327 -0.100839,-0.4726 -0.106971,-0.1698 -0.278076,-0.3133 -0.470588,-0.439 -0.119073,-0.4553 -0.314759,-0.8877 -0.504202,-1.2155 -0.111467,-0.1928 -0.229178,-0.353 -0.268907,-0.4388 0.0026,0.03 -0.002,0.061 -0.03361,0.135 -0.03549,0.081 -0.126494,0.1724 -0.20168,0.2026 l -0.168067,-0.4052 -0.235295,-0.3715 c -0.383814,0.2516 -0.556747,0.6747 -0.571428,1.0468 -0.0061,0.1526 0.03955,0.2642 0.06722,0.4051 -0.01413,0 -0.01964,0 -0.03361,0 a 0.42518752,0.42708384 0 0 0 -0.100839,0 c -0.504767,0.1434 -0.860817,0.5104 -1.008403,0.8779 -0.147586,0.367 -0.114392,0.7408 0.03361,1.0465 0.074,0.1527 0.192885,0.2775 0.369747,0.3715 0.176862,0.094 0.412663,0.094 0.605042,0 0.248096,-0.1207 0.411784,-0.3504 0.537815,-0.6416 -0.0062,0.019 0.0097,0.089 0,0.1014 a 0.42518752,0.42708384 0 0 0 -0.03361,0.033 c -0.117249,0.2053 -0.197514,0.4193 -0.134454,0.6752 0.04653,0.189 0.181818,0.3291 0.336134,0.4052 -0.103131,0.098 -0.225565,0.1692 -0.268908,0.3376 -0.05861,0.228 0.01125,0.4843 0.134455,0.6752 0.09452,0.1465 0.243129,0.3018 0.403361,0.4391 0.04108,0.1374 0.07166,0.2427 0.06722,0.2701 -0.0055,0.034 0.03037,0.012 0,0.033 -0.06073,0.041 -0.388115,0.1274 -0.739497,0.169 -0.351382,0.042 -0.775699,0.053 -1.109243,0.4051 -0.166771,0.1758 -0.270472,0.4408 -0.268908,0.7091 0.0016,0.2627 0.09789,0.52 0.235294,0.8439 0.0021,0.011 -0.0021,0.029 0,0.033 0.122853,0.326 0.278915,0.5808 0.470589,0.7765 0.144715,0.148 0.318138,0.1812 0.504201,0.2363 -0.327416,0.1928 -0.649762,0.3964 -0.907563,0.709 a 0.42518752,0.42708384 0 0 0 0,0.033 c -0.590912,0.8149 -1.341754,1.7937 -1.781512,2.9037 -0.432478,1.0915 -0.55247,2.3545 0.134454,3.5115 0.0095,0.022 0.02391,0.047 0.03361,0.067 0.356832,0.8125 0.911759,1.2967 1.512606,1.5193 0.617217,0.2287 1.234428,0.1944 1.848739,0.135 0.614309,-0.058 1.231296,-0.129 1.7479,-0.1013 0.507571,0.027 0.906383,0.1487 1.27731,0.5064 0.05674,0.091 0.06758,0.1707 0.06723,0.3039 -3.85e-4,0.1503 -0.04668,0.3338 -0.06723,0.574 -0.02057,0.24 -0.01809,0.5436 0.100839,0.8441 0.08996,0.2272 0.311665,0.4442 0.537815,0.6413 0.184362,0.7571 0.113058,1.5439 0.06723,2.3974 -0.04541,0.8456 -0.0063,1.755 0.571428,2.6672 0.278198,0.7508 0.487981,1.7718 1.008403,2.4985 0.260213,0.3634 0.654287,0.6815 1.142857,0.7429 0.484379,0.061 0.992682,-0.1206 1.579832,-0.5065 0.0078,-0.01 0.02589,-0.029 0.03361,-0.033 1.247829,-0.7648 1.708783,-1.8688 2.084034,-2.8699 0.377575,-1.0074 0.678156,-1.8739 1.512605,-2.4985 a 0.42518752,0.42708384 0 0 0 0.134453,-0.574 c -0.340713,-0.6627 -0.398325,-1.1463 -0.30252,-1.6206 0.0958,-0.4743 0.348999,-0.9511 0.705882,-1.4182 0.713766,-0.9339 1.817243,-1.8404 2.285715,-3.1736 a 0.42518752,0.42708384 0 0 0 -0.470589,-0.574 c -0.164399,0.025 -0.309145,-0.052 -0.470588,-0.067 0.153704,-0.076 0.310833,-0.1504 0.470588,-0.2701 0.545471,-0.2293 1.468404,-0.6978 2.084034,-1.3169 0.307813,-0.3094 0.600361,-0.7023 0.537816,-1.1815 -0.01945,-0.149 -0.146879,-0.2778 -0.235295,-0.4053 0.128763,-0.026 0.250804,-0.09 0.369748,-0.1688 l 0,-18.0972 c 0,-0.3653 -0.04041,-0.7329 -0.100839,-1.0803 -0.208796,0.1994 -0.542347,0.4845 -0.873949,0.6413 -0.181558,0.087 -0.352027,0.1311 -0.470588,0.1351 -0.118561,0.01 -0.173308,-0.041 -0.235294,-0.1013 a 0.42518752,0.42708384 0 0 0 -0.369748,-0.1014 c -0.38039,0.053 -0.685998,0.2453 -0.97479,0.439 -0.247339,0.1658 -0.461443,0.3155 -0.638656,0.4388 0.0069,-0.068 0.01856,-0.077 0.03361,-0.1687 a 0.42518752,0.42708384 0 0 0 -0.403361,-0.4727 c -0.180832,-0.013 -0.351776,0 -0.504203,0.1014 -0.152426,0.097 -0.275268,0.242 -0.336134,0.3714 -0.09387,0.1996 -0.106477,0.3658 -0.134453,0.5402 -0.128548,-0.437 -0.464115,-0.7311 -0.840336,-1.0129 -0.418024,-0.3131 -0.908557,-0.6101 -1.310925,-0.8442 -0.201186,-0.1172 -0.373652,-0.2217 -0.504203,-0.3037 -0.0038,-0.069 0.0212,-0.156 0,-0.2025 -0.115743,-0.254 -0.251919,-0.2835 -0.40336,-0.3716 -0.151438,-0.088 -0.334453,-0.1612 -0.504202,-0.2025 C 39.031197,1008.3959 38.956356,1008.3763 38.847167,1008.3827 z m -11.193279,3.2751 a 0.42518752,0.42708384 0 0 0 -0.268907,0.1688 c -0.149857,0.1734 -0.266507,0.2148 -0.403362,0.2364 -0.136855,0.021 -0.324766,0 -0.504201,-0.033 -0.179439,-0.039 -0.361481,-0.108 -0.638656,-0.067 -0.138589,0.021 -0.298816,0.1208 -0.403362,0.2701 -0.10454,0.149 -0.131142,0.2859 -0.134453,0.4389 a 0.42518752,0.42708384 0 0 0 0.06723,0.2363 c -0.01289,-0.021 0.0908,0.2009 0.20168,0.4052 0.110882,0.2045 0.246523,0.4326 0.470588,0.6416 0.224068,0.209 0.557701,0.3926 0.941177,0.3714 0.383479,-0.021 0.764113,-0.2308 1.142858,-0.6076 0.392201,-0.2428 0.611819,-0.6663 0.537815,-1.0469 -0.0832,-0.4277 -0.395267,-0.7748 -0.806724,-0.9455 A 0.42518752,0.42708384 0 0 0 27.6875,1011.659 0.42518752,0.42708384 0 0 0 27.653888,1011.6578 z m 13.54622,0.9116 c 0.03706,0.024 0.02704,0.01 0.06722,0.033 a 0.42518752,0.42708384 0 0 0 0.134454,0.1013 c -0.02571,0.01 -0.06684,0.022 -0.100838,0.033 C 41.260784,1012.6777 41.234291,1012.629 41.200108,1012.5694 z m -4.235295,2.5997 c 0.01242,0.1832 0.01821,0.3665 0.134455,0.5403 0.131653,0.1967 0.362342,0.3153 0.605042,0.3715 -0.03333,0.033 -0.06988,0.029 -0.100839,0.067 -0.128613,0.1607 -0.240428,0.3622 -0.235295,0.6079 1.61e-4,0.01 0.0333,0.027 0.03361,0.033 -0.09293,0.043 -0.207944,0.072 -0.268909,0.1352 -0.23412,0.2407 -0.28821,0.4967 -0.369747,0.7091 -0.08155,0.2123 -0.155936,0.3672 -0.20168,0.4052 -0.04575,0.04 -0.07466,0.07 -0.336136,-0.033 a 0.42518752,0.42708384 0 0 0 -0.168067,-0.033 c 0.0053,0 -0.0065,-0.029 0,-0.033 a 0.42518752,0.42708384 0 0 0 0.06722,-0.1014 C 36.753447,1017 36.841013,1016.0392 36.964813,1015.1691 z m -20.705884,5.2333 c -0.09099,0.3402 -0.03182,0.701 0.168068,0.9455 -0.03465,-0.041 -0.0594,-0.077 -0.100839,-0.1013 -0.220998,-0.1275 -0.385851,-0.071 -0.537815,-0.033 -0.02638,0.011 -0.07362,0.026 -0.100838,0.033 -0.05285,-0.1535 -0.03766,-0.3577 -0.134455,-0.4728 -0.06784,-0.08 -0.153704,-0.079 -0.235294,-0.135 C 15.629985,1020.56 15.942053,1020.487 16.258929,1020.4024 z m 28.268909,1.7896 c -0.03672,0.058 -0.04374,0.1628 -0.06723,0.2363 -0.0094,-0.069 -0.03974,-0.1577 0,-0.2025 C 44.465344,1022.2149 44.520685,1022.1983 44.527838,1022.192 z m -4.638655,0.067 c -0.0028,0.01 -0.0043,0 0.100839,0.033 0.142246,0.05 0.330334,0.1566 0.504201,0.2363 0.08693,0.041 0.15407,0.074 0.268909,0.1014 0.05741,0.014 0.132975,0.05 0.235294,0.033 0.102321,-0.016 0.256591,-0.1125 0.336133,-0.2363 0.0102,0.019 0.02329,0.051 0.03361,0.067 0.151681,0.2699 0.297579,0.4936 0.40336,0.6752 -0.127647,-0.01 -0.24331,-0.021 -0.470586,-0.067 a 0.42518752,0.42708384 0 0 0 -0.134456,0 c -0.592486,0.07 -1.363468,0 -1.613445,-0.1351 -0.06249,-0.033 -0.09678,-0.028 -0.100838,-0.033 -0.004,-0.01 -0.0039,0 0,-0.033 C 39.4592,1022.8406 39.607844,1022.5651 39.889183,1022.2595 z m -6.352942,0.7768 c 0.105348,-0.022 0.215654,-0.028 0.336135,0 0.07948,0.019 0.184451,0.1285 0.268907,0.1688 a 0.42518752,0.42708384 0 0 0 -0.235294,0.067 c -0.299033,0.1935 -0.523737,0.483 -0.504201,0.8103 0.01723,0.2887 0.195892,0.4501 0.403362,0.5402 -0.678255,0.047 -1.387331,0.062 -2.117649,0.2027 0.306674,-0.2858 0.622372,-0.582 0.873951,-0.878 0.288332,-0.3394 0.552944,-0.6409 0.672268,-0.7427 C 33.342058,1023.1207 33.43089,1023.0585 33.536241,1023.0361 z m 11.193279,0.2363 c 0.06206,0.053 0.125598,0.089 0.20168,0.135 0.0031,0 -0.0031,0.031 0,0.033 0.263906,0.3246 0.374088,0.9511 0.302521,1.1817 -0.0091,0.029 0.0075,0.021 0,0.033 -0.0082,-0.01 -0.183432,-0.097 -0.369748,-0.2702 C 44.866662,1023.9633 44.847014,1023.5909 44.72952,1023.2724 z m -10.252102,0.135 c 0.04793,0.039 0.122648,0.058 0.168068,0.1013 0.235338,0.2196 0.407487,0.4908 0.504201,0.7091 0.09671,0.2181 0.07004,0.3149 0.100839,0.27 a 0.42518752,0.42708384 0 0 0 0.504201,0.6416 c 0.50616,-0.2064 0.735859,-0.6519 0.773109,-1.1142 0.05285,0.132 0.129689,0.3308 0.134454,0.3039 a 0.42518752,0.42708384 0 0 0 0.03361,0.2701 c 0.127242,0.2392 0.254666,0.4038 0.403361,0.5402 0.07435,0.068 0.174455,0.1367 0.302522,0.1687 0.128064,0.032 0.293916,0 0.40336,-0.067 0.218888,-0.1206 0.24817,-0.2437 0.302521,-0.3713 0.05436,-0.1277 0.0991,-0.2538 0.134455,-0.3714 0.02663,0.1547 0.04921,0.3216 0.134453,0.4389 0.151097,0.2075 0.367797,0.3464 0.571428,0.4388 0.407263,0.1848 0.829895,0.2319 1.176471,0.3039 0.173287,0.038 0.315651,0.066 0.403362,0.1014 0.03508,0.015 0.05554,0.025 0.06722,0.033 -0.0041,0.012 -0.02309,0.012 -0.03361,0.033 -0.03284,0.077 -0.132866,0.2698 -0.268907,0.439 -0.670706,0.1059 -1.394824,0.015 -2.117649,-0.067 -0.728711,-0.08 -1.463172,-0.1188 -2.218487,0.1015 l 0,-0.033 c -0.493085,-0.012 -0.605676,-0.1505 -0.773108,-0.4727 -0.08372,-0.1611 -0.147526,-0.3774 -0.235294,-0.574 -0.08778,-0.1967 -0.20792,-0.4048 -0.436976,-0.5739 a 0.42518752,0.42708384 0 0 0 -0.06723,-0.067 c 0.09067,-0.053 0.15774,-0.1362 0.201682,-0.2364 C 34.784317,1024.0362 34.67092,1023.7277 34.477418,1023.4074 z m -23.831933,5.4023 a 0.42518752,0.42708384 0 0 0 -0.268909,0.3038 c -0.07753,0.26 0.07892,0.5224 0.201682,0.6416 0.122753,0.1188 0.262034,0.1691 0.40336,0.2362 0.282656,0.1336 0.597445,0.2167 0.87395,0.2701 0.138252,0.027 0.243825,0.068 0.369748,0.067 0.06295,-8e-4 0.124239,0.015 0.235294,-0.033 0.0305,-0.01 0.09469,-0.072 0.134454,-0.1014 -0.04432,0.2139 0.106605,0.5056 0.268908,0.6076 0.324608,0.204 0.560099,0.1591 0.806722,0.1014 0.123312,-0.029 0.248775,-0.093 0.369748,-0.1688 0.06048,-0.04 0.106444,-0.079 0.168067,-0.1689 0.06162,-0.089 0.129859,-0.2235 0.100839,-0.3713 -0.05804,-0.2956 -0.275205,-0.4073 -0.436976,-0.4726 -0.161769,-0.065 -0.377424,-0.096 -0.638654,-0.1352 a 0.42518752,0.42708384 0 0 0 -0.336135,0.1014 c -0.08832,0.09 -0.145555,0.2035 -0.20168,0.3038 0.02651,-0.084 0.08264,-0.167 0.06722,-0.2362 -0.04773,-0.214 -0.140354,-0.2557 -0.20168,-0.304 -0.06134,-0.049 -0.128424,-0.096 -0.201682,-0.1351 -0.146516,-0.079 -0.328876,-0.1614 -0.605042,-0.2701 a 0.42518752,0.42708384 0 0 0 -0.03361,0 l -0.302521,-0.1012 a 0.42518752,0.42708384 0 0 0 -0.03361,0 l -0.504201,-0.1351 a 0.42518752,0.42708384 0 0 0 -0.100839,0 0.42518752,0.42708384 0 0 0 -0.06722,0 A 0.42518752,0.42708384 0 0 0 10.645485,1028.8097 z m 33.949581,9.5212 c -0.693104,0.018 -1.197396,0.5447 -1.478992,1.0803 -0.281594,0.5355 -0.398505,1.1538 -0.403362,1.6883 -0.0025,0.2668 0.03094,0.4868 0.100839,0.709 0.06991,0.2224 0.188822,0.4818 0.504201,0.5739 0.157691,0.047 0.339834,0.031 0.470589,-0.033 0.130752,-0.063 0.207439,-0.1649 0.302521,-0.2701 0.19016,-0.2108 0.34953,-0.4972 0.537815,-0.9116 a 0.42518752,0.42708384 0 0 0 0.03361,-0.067 c 0.05331,-0.2683 0.249269,-0.6886 0.369748,-1.1142 0.120478,-0.4259 0.211838,-0.9425 -0.03361,-1.4179 A 0.42518752,0.42708384 0 0 0 44.595066,1038.3309 Z"
       id="path3798" />
    <g
       transform="matrix(0.45346585,0,0,0.4522522,3.3156538,1006.2841)"
       id="layer7">
      <path
         d="m 48,16 -4.625,16.6875 c -1.750115,0.528895 -3.372187,1.350473 -4.8125,2.40625 l -7.53125,-4.0625 4.0625,7.53125 c -1.055777,1.440313 -1.877355,3.062385 -2.40625,4.8125 L 16,48 32.6875,52.625 c 0.528895,1.750115 1.350473,3.372187 2.40625,4.8125 l -4.0625,7.53125 7.53125,-4.0625 c 1.440313,1.055777 3.062385,1.877355 4.8125,2.40625 L 48,80 52.625,63.3125 c 1.750115,-0.528895 3.372187,-1.350473 4.8125,-2.40625 l 7.53125,4.0625 -4.0625,-7.53125 c 1.055777,-1.440313 1.877355,-3.062385 2.40625,-4.8125 L 80,48 63.3125,43.375 c -0.528895,-1.750115 -1.350473,-3.372187 -2.40625,-4.8125 l 4.0625,-7.53125 -7.53125,4.0625 C 55.997187,34.037973 54.375115,33.216395 52.625,32.6875 L 48,16 z m 0,20 c 6.627417,0 12,5.372583 12,12 0,6.627417 -5.372583,12 -12,12 C 41.372583,60 36,54.627417 36,48 36,41.372583 41.372583,36 48,36 Z"
         inkscape:connector-curvature="0"
         id="path4588"
         style="color:#000000;fill:#ffffff;fill-opacity:1;fill-rule:nonzero;stroke:none;stroke-width:0.80000001;marker:none;visibility:visible;display:inline;overflow:visible;enable-background:accumulate" />
      <g
         transform="matrix(0.70710678,0.70710678,-0.70710678,0.70710678,48.020021,-19.873366)"
         id="g4572">
        <g
           transform="matrix(0.98983765,0,0,0.77048859,-15.350324,-1.2826605)"
           id="g5928-7-4">
          <path
             d="M 69,64 59,64 64,16 69,64 Z"
             inkscape:connector-curvature="0"
             id="path5923-0-5"
             style="fill:url(#linearGradient4578);fill-opacity:1;fill-rule:evenodd;stroke:none" />
          <path
             d="m 69,63.999997 -10,0 L 64,112 69,63.999997 Z"
             inkscape:connector-curvature="0"
             id="path5926-8-6"
             style="fill:url(#linearGradient4580);fill-opacity:1;fill-rule:evenodd;stroke:none" />
        </g>
        <path
           inkscape:connector-curvature="0"
           d="m 65.503089,63.920891 a 1.7404205,1.7404205 0 1 1 -3.480841,0 A 1.7404205,1.7404205 0 1 1 65.503089,63.920891 Z"
           transform="matrix(0.88540527,0,0,0.88540527,-8.4565171,-8.5672842)"
           id="path5958-8-4"
           style="fill:#000000;fill-opacity:1;fill-rule:evenodd;stroke:none" />
      </g>
    </g>
    <g
       id="g1156"
       transform="matrix(1.0699286,0,0,1.067065,-2.0856112,-69.336796)">
      <g
         id="g1150">
        <g
           style="font-size:5.86223602px;font-style:normal;font-weight:normal;line-height:125%;letter-spacing:0px;word-spacing:0px;fill:#ffffff;fill-opacity:1;stroke:none;font-family:Droid Sans;-inkscape-font-specification:Droid Sans"
           id="text1110">
          <path
             inkscape:connector-curvature="0"
             d="m 26.959175,1013.2133 -0.615421,0 -2.05808,-3.4635 -0.0229,0 q 0.01717,0.2204 0.02862,0.4379 0.01145,0.1861 0.01718,0.3893 0.0086,0.2033 0.0086,0.3664 l 0,2.2699 -0.492336,0 0,-4.1848 0.609695,0 2.049493,3.4463 0.02004,0 q -0.0086,-0.2175 -0.02004,-0.4293 -0.0029,-0.092 -0.0086,-0.1861 -0.0029,-0.097 -0.0086,-0.1918 -0.0029,-0.097 -0.0057,-0.186 0,-0.089 0,-0.1632 l 0,-2.2899 0.498061,0 L 26.959187,1013.2133 Z"
             id="path1169" />
        </g>
        <g
           style="font-size:5.86223602px;font-style:normal;font-weight:normal;line-height:125%;letter-spacing:0px;word-spacing:0px;fill:#ffffff;fill-opacity:1;stroke:none;font-family:Droid Sans;-inkscape-font-specification:Droid Sans"
           id="text1114">
          <path
             inkscape:connector-curvature="0"
             d="m 26.629997,1047.2126 q 0,0.2776 -0.100185,0.498 -0.09732,0.2176 -0.280517,0.3693 -0.183195,0.1517 -0.446538,0.2319 -0.263342,0.077 -0.592521,0.077 -0.317728,0 -0.595383,-0.051 -0.274792,-0.049 -0.46085,-0.146 l 0,-0.5095 q 0.09732,0.046 0.220407,0.092 0.125946,0.043 0.263342,0.077 0.137397,0.034 0.28338,0.057 0.145983,0.02 0.289104,0.02 0.457988,0 0.675532,-0.1718 0.220406,-0.1717 0.220406,-0.4923 0,-0.1546 -0.04294,-0.2691 -0.04007,-0.1145 -0.145984,-0.2089 -0.103047,-0.097 -0.277655,-0.1861 -0.174607,-0.092 -0.440812,-0.1975 -0.254756,-0.1002 -0.443675,-0.2175 -0.186058,-0.1202 -0.309142,-0.2691 -0.120221,-0.1488 -0.180332,-0.3378 -0.05725,-0.1889 -0.05725,-0.4293 0,-0.2519 0.0916,-0.4494 0.0916,-0.1975 0.257618,-0.3321 0.16602,-0.1374 0.395014,-0.2089 0.231856,-0.072 0.50951,-0.072 0.340628,0 0.612558,0.066 0.27193,0.063 0.483749,0.1631 l -0.191782,0.4465 q -0.186057,-0.083 -0.423638,-0.1431 -0.234719,-0.063 -0.486611,-0.063 -0.349216,0 -0.540998,0.1631 -0.191782,0.1603 -0.191782,0.4351 0,0.1632 0.04294,0.2834 0.04294,0.1173 0.143121,0.2147 0.100185,0.094 0.263343,0.1803 0.16602,0.083 0.406464,0.1775 0.26048,0.103 0.455124,0.2118 0.197507,0.1088 0.329179,0.2462 0.131671,0.1373 0.197507,0.3177 Q 26.63,1046.9661 26.63,1047.2123 Z"
             id="path1172" />
        </g>
      </g>
      <g
         id="g1144">
        <g
           style="font-size:5.86223602px;font-style:normal;font-weight:normal;line-height:125%;letter-spacing:0px;word-spacing:0px;fill:#ffffff;fill-opacity:1;stroke:none;font-family:Droid Sans;-inkscape-font-specification:Droid Sans"
           id="text1118">
          <path
             inkscape:connector-curvature="0"
             d="m 43.101963,1030.1219 -2.172576,0 0,-4.1848 2.172576,0 0,0.4694 -1.640166,0 0,1.2938 1.531394,0 0,0.4638 -1.531394,0 0,1.4884 1.640166,0 L 43.101963,1030.1219 Z"
             id="path1175" />
        </g>
        <g
           style="font-size:5.86223602px;font-style:normal;font-weight:normal;line-height:125%;letter-spacing:0px;word-spacing:0px;fill:#ffffff;fill-opacity:1;stroke:none;font-family:Droid Sans;-inkscape-font-specification:Droid Sans"
           id="text1122">
          <path
             inkscape:connector-curvature="0"
             d="m 7.9178925,1025.9371 0.5638967,0 0.6554942,2.4502 q 0.042936,0.1603 0.08301,0.3206 0.042936,0.1603 0.077285,0.312 0.037211,0.1489 0.062973,0.2834 0.028624,0.1345 0.045799,0.2433 0.01145,-0.1088 0.028624,-0.2376 0.017174,-0.1288 0.040074,-0.269 0.022899,-0.1432 0.048661,-0.2892 0.028624,-0.1488 0.060111,-0.2891 l 0.5724836,-2.5246 0.569621,0 -1.0505071,4.1848 -0.538135,0 -0.7270547,-2.6849 q -0.040074,-0.146 -0.077285,-0.3006 -0.037211,-0.1545 -0.068698,-0.2891 -0.034349,-0.1574 -0.065836,-0.3062 -0.031487,0.1459 -0.062973,0.3034 -0.028624,0.1345 -0.065836,0.2948 -0.034349,0.1603 -0.074423,0.3149 l -0.6927057,2.6677 -0.5381349,0 -1.1048941,-4.1848 0.5638967,0 0.6383197,2.5447 q 0.034349,0.1317 0.062973,0.2748 0.028624,0.1402 0.051524,0.2805 0.025762,0.1402 0.045799,0.2719 0.020037,0.1288 0.034349,0.2376 0.014312,-0.1059 0.034349,-0.2462 0.022899,-0.1402 0.051524,-0.2948 0.028624,-0.1546 0.060111,-0.312 0.034349,-0.1603 0.071561,-0.3006 L 7.9178934,1025.9371 Z"
             id="path1178" />
        </g>
      </g>
    </g>
    <path
       inkscape:connector-curvature="0"
       style="fill:#000000;fill-opacity:1;stroke:none"
       d="m 2e-7,1049.3622 0,1.0625 c 0,1.0773 0.86022,1.9375 1.9375,1.9375 l 44.1249998,0 c 1.07728,0 1.9375,-0.8602 1.9375,-1.9375 l 0,-1.0625 c 0,1.0773 -0.86022,1.9375 -1.9375,1.9375 l -44.1249998,0 c -1.07728,0 -1.9375,-0.8602 -1.9375,-1.9375 z"
       id="rect846" />
    <path
       inkscape:connector-curvature="0"
       style="fill:#ffffff;fill-opacity:0.5372549;stroke:none"
       d="m 2.5312502,1005.0185 c -0.91709,0 -1.67115,0.6395 -1.84375,1.5 0.33561,-0.2799 0.77451,-0.4375 1.25,-0.4375 l 44.1249998,0 c 0.47549,0 0.91439,0.1576 1.25,0.4375 -0.1726,-0.8605 -0.92666,-1.5 -1.84375,-1.5 l -42.9374998,0 z"
       id="path7515" />
    <path
       inkscape:connector-curvature="0"
       style="fill:#000000;fill-opacity:0.39215686;stroke:none"
       d="m 1.9375002,1004.3622 c -1.07728,0 -1.9375,0.8602 -1.9375,1.9375 l 0,43.0625 c 0,0.7934 0.48002,1.449 1.15625,1.75 -0.30934,-0.3333 -0.5,-0.7824 -0.5,-1.2812 l 0,-42.9375 c 0,-1.0482 0.8269,-1.875 1.875,-1.875 l 42.9374998,0 c 1.0481,0 1.875,0.8268 1.875,1.875 l 0,42.9375 c 0,0.4988 -0.19066,0.9479 -0.5,1.2812 0.67623,-0.301 1.15625,-0.9566 1.15625,-1.75 l 0,-43.0625 c 0,-1.0773 -0.86022,-1.9375 -1.9375,-1.9375 l -44.1249998,0 z"
       id="rect4280" />
  </g>
</svg>
