<?xml version="1.0" encoding="UTF-8" standalone="no"?>
<!-- Created with Inkscape (http://www.inkscape.org/) -->

<svg
   xmlns:dc="http://purl.org/dc/elements/1.1/"
   xmlns:cc="http://creativecommons.org/ns#"
   xmlns:rdf="http://www.w3.org/1999/02/22-rdf-syntax-ns#"
   xmlns:svg="http://www.w3.org/2000/svg"
   xmlns="http://www.w3.org/2000/svg"
   xmlns:sodipodi="http://sodipodi.sourceforge.net/DTD/sodipodi-0.dtd"
   xmlns:inkscape="http://www.inkscape.org/namespaces/inkscape"
   width="48"
   height="48"
   id="svg3022"
   version="1.1"
   inkscape:version="0.48+devel r12149"
   sodipodi:docname="bookmark-missing.svg">
  <defs
     id="defs3024" />
  <sodipodi:namedview
     id="base"
     pagecolor="#ffffff"
     bordercolor="#666666"
     borderopacity="1.0"
     inkscape:pageopacity="0.0"
     inkscape:pageshadow="2"
     inkscape:zoom="7.9195959"
     inkscape:cx="17.161114"
     inkscape:cy="35.301729"
     inkscape:document-units="px"
     inkscape:current-layer="layer1"
     showgrid="false"
     inkscape:window-width="1366"
     inkscape:window-height="716"
     inkscape:window-x="0"
     inkscape:window-y="28"
     inkscape:window-maximized="1" />
  <metadata
     id="metadata3027">
    <rdf:RDF>
      <cc:Work
         rdf:about="">
        <dc:format>image/svg+xml</dc:format>
        <dc:type
           rdf:resource="http://purl.org/dc/dcmitype/StillImage" />
        <dc:title />
      </cc:Work>
    </rdf:RDF>
  </metadata>
  <g
     inkscape:label="Capa 1"
     inkscape:groupmode="layer"
     id="layer1"
     transform="translate(0,-1004.3622)">
    <g
       transform="matrix(0.40454165,0,0,0.40454165,-131.92572,740.86739)"
       id="_x33__rating_not_important"
       style="fill:#1a1a1a">
      <path
         style="fill:#1a1a1a"
         inkscape:connector-curvature="0"
         d="m 385.436,680.875 8.375,19.686 0.67,1.574 1.703,0.15 21.311,1.879 -16.134,14.05 -1.29,1.123 0.384,1.667 4.796,20.85 -18.348,-11.005 -1.467,-0.88 -1.467,0.88 -18.347,11.004 4.799,-20.849 0.384,-1.667 -1.291,-1.123 -16.133,-14.05 21.311,-1.879 1.703,-0.15 0.67,-1.574 8.371,-19.686 m 0,-7.286 -10.995,25.855 -27.988,2.469 21.189,18.451 -6.303,27.383 24.097,-14.453 24.097,14.453 -6.299,-27.383 21.189,-18.451 -27.988,-2.469 L 385.436,673.589 385.436,673.589 Z"
         id="path1108" />
    </g>
  </g>
</svg>
