<?xml version="1.0" encoding="UTF-8" standalone="no"?>
<!-- Created with Inkscape (http://www.inkscape.org/) -->

<svg
   xmlns:dc="http://purl.org/dc/elements/1.1/"
   xmlns:cc="http://creativecommons.org/ns#"
   xmlns:rdf="http://www.w3.org/1999/02/22-rdf-syntax-ns#"
   xmlns:svg="http://www.w3.org/2000/svg"
   xmlns="http://www.w3.org/2000/svg"
   xmlns:xlink="http://www.w3.org/1999/xlink"
   xmlns:sodipodi="http://sodipodi.sourceforge.net/DTD/sodipodi-0.dtd"
   xmlns:inkscape="http://www.inkscape.org/namespaces/inkscape"
   width="48"
   height="48"
   id="svg2"
   version="1.1"
   inkscape:version="0.48+devel r12149"
   sodipodi:docname="folder-music.svg">
  <defs
     id="defs4">
    <linearGradient
       inkscape:collect="always"
       xlink:href="#linearGradient1035"
       id="linearGradient1033"
       x1="23.875"
       y1="-1052.4872"
       x2="23.875"
       y2="-1004.4247"
       gradientUnits="userSpaceOnUse"
       gradientTransform="translate(0,1004.3622)" />
    <linearGradient
       id="linearGradient1035"
       inkscape:collect="always">
      <stop
         id="stop1037"
         offset="0"
         style="stop-color:#ffffff;stop-opacity:1" />
      <stop
         id="stop1039"
         offset="1"
         style="stop-color:#ececec;stop-opacity:1" />
    </linearGradient>
    <linearGradient
       inkscape:collect="always"
       xlink:href="#linearGradient1045"
       id="linearGradient2700"
       gradientUnits="userSpaceOnUse"
       x1="27.709515"
       y1="-1004.9823"
       x2="27.709515"
       y2="-1052.8083"
       gradientTransform="matrix(0.91666666,0,0,0.91666666,2,918.66535)" />
    <linearGradient
       inkscape:collect="always"
       id="linearGradient1045">
      <stop
         style="stop-color:#000000;stop-opacity:1;"
         offset="0"
         id="stop1047" />
      <stop
         style="stop-color:#000000;stop-opacity:0;"
         offset="1"
         id="stop1049" />
    </linearGradient>
    <linearGradient
       inkscape:collect="always"
       xlink:href="#linearGradient2869"
       id="linearGradient2875"
       x1="-1050.2408"
       y1="33.41077"
       x2="-1006.7538"
       y2="33.41077"
       gradientUnits="userSpaceOnUse"
       gradientTransform="translate(1004.3622,2.3831456e-5)" />
    <linearGradient
       inkscape:collect="always"
       id="linearGradient2869">
      <stop
         style="stop-color:#f9f9f9;stop-opacity:1"
         offset="0"
         id="stop2871" />
      <stop
         style="stop-color:#ffffff;stop-opacity:1"
         offset="1"
         id="stop2873" />
    </linearGradient>
    <linearGradient
       inkscape:collect="always"
       xlink:href="#linearGradient2476"
       id="linearGradient1043"
       gradientUnits="userSpaceOnUse"
       x1="48.5"
       y1="-1026.1804"
       x2="1.2499999"
       y2="-1026.1804"
       gradientTransform="matrix(0,1,0.63020833,0,663.20743,0)" />
    <linearGradient
       id="linearGradient2476"
       inkscape:collect="always">
      <stop
         id="stop2478"
         offset="0"
         style="stop-color:#0c5dfc;stop-opacity:1" />
      <stop
         id="stop2480"
         offset="1"
         style="stop-color:#39e3ff;stop-opacity:1" />
    </linearGradient>
    <linearGradient
       inkscape:collect="always"
       xlink:href="#linearGradient1045"
       id="linearGradient2800"
       gradientUnits="userSpaceOnUse"
       gradientTransform="matrix(0,1,0.63020833,0,663.20743,0)"
       x1="29"
       y1="-1059.3043"
       x2="29"
       y2="-1045.8168" />
    <linearGradient
       inkscape:collect="always"
       xlink:href="#linearGradient1045"
       id="linearGradient2852"
       gradientUnits="userSpaceOnUse"
       gradientTransform="matrix(0,1.1510417,-0.63020833,0,-656.20743,-3.625)"
       x1="29"
       y1="-1059.3043"
       x2="29"
       y2="-1045.8168" />
  </defs>
  <sodipodi:namedview
     id="base"
     pagecolor="#ffffff"
     bordercolor="#666666"
     borderopacity="1.0"
     inkscape:pageopacity="0.0"
     inkscape:pageshadow="2"
     inkscape:zoom="22.627416"
     inkscape:cx="16.07131"
     inkscape:cy="16.992362"
     inkscape:document-units="px"
     inkscape:current-layer="layer2"
     showgrid="false"
     inkscape:window-width="1366"
     inkscape:window-height="716"
     inkscape:window-x="0"
     inkscape:window-y="28"
     inkscape:window-maximized="1"
     showborder="true"
     inkscape:showpageshadow="false"
     showguides="false"
     inkscape:guide-bbox="true" />
  <metadata
     id="metadata7">
    <rdf:RDF>
      <cc:Work
         rdf:about="">
        <dc:format>image/svg+xml</dc:format>
        <dc:type
           rdf:resource="http://purl.org/dc/dcmitype/StillImage" />
        <dc:title />
      </cc:Work>
    </rdf:RDF>
  </metadata>
  <g
     inkscape:label="Capa 1"
     inkscape:groupmode="layer"
     id="layer1"
     transform="translate(0,-1004.3622)" />
  <g
     inkscape:groupmode="layer"
     id="layer2"
     inkscape:label="Capa 2">
    <rect
       transform="scale(1,-1)"
       ry="1.9445436"
       y="-47.999981"
       x="5.7919461e-08"
       height="48"
       width="48"
       id="rect1041"
       style="fill:url(#linearGradient1033);fill-opacity:1;stroke:none" />
    <rect
       style="opacity:0.05;fill:url(#linearGradient2700);fill-opacity:1;stroke:none"
       id="rect2698"
       width="44"
       height="44"
       x="2"
       y="-45.999981"
       ry="1.7824984"
       transform="scale(1,-1)" />
    <rect
       transform="matrix(-2.3953356e-8,-1,1,0,0,0)"
       ry="0.94589925"
       y="20.651024"
       x="-45.999981"
       height="23.349005"
       width="44"
       id="rect2714"
       style="fill:#000000;fill-opacity:0.29411765;stroke:none" />
    <rect
       style="fill:url(#linearGradient2875);fill-opacity:1;stroke:none"
       id="rect2716"
       width="43.360767"
       height="22.689007"
       x="-45.680401"
       y="20.981022"
       ry="0.91916192"
       transform="matrix(-2.372795e-8,-1,1,0,0,0)" />
    <path
       style="fill:#000000;fill-opacity:0.04858303;stroke:none"
       d="m 42.96875,45.6875 c 0.03222,-0.096 0.0625,-0.2058 0.0625,-0.3125 l 0,-41.5 c 0,-0.5092 -0.397034,-0.9375 -0.90625,-0.9375 l -20.84375,0 c -0.0843,0 -0.171716,0.01 -0.25,0.031 0.129788,-0.3638 0.472444,-0.625 0.875,-0.625 l 20.84375,0 c 0.509216,0 0.90625,0.4282 0.90625,0.9375 l 0,41.5 C 43.65625,45.21 43.361674,45.5808 42.96875,45.6875 Z"
       id="rect2837"
       inkscape:connector-curvature="0" />
    <path
       style="fill:url(#linearGradient1043);fill-opacity:1;stroke:none"
       d="m 38.437454,0 -2.25,0 -1.625,0 -32.62495,0 C 0.860204,0 4e-6,0.8602 4e-6,1.9375 l 0,44.125 c 0,1.0773 0.8602,1.9375 1.9375,1.9375 l 34.24995,0 0,-25.875 L 38.437454,19.875 Z"
       id="rect2991-1"
       inkscape:connector-curvature="0"
       sodipodi:nodetypes="cccsssscccc" />
    <path
       style="fill:#000000;fill-opacity:0.23529412;stroke:none"
       d="m 38.874954,0 -0.4375,0 0,19.875 -2.25,2.25 0,25.875 0.4375,0 0,-25.6875 L 38.874954,20.0625 Z"
       id="path1068"
       inkscape:connector-curvature="0"
       sodipodi:nodetypes="ccccccccc" />
    <path
       id="path1080"
       d="m 39.312454,0 -0.4375,0 0,20.0625 -2.25,2.25 0,25.6875 0.4375,0 0,-25.5 L 39.312454,20.25 Z"
       style="fill:#000000;fill-opacity:0.07843137;stroke:none"
       inkscape:connector-curvature="0"
       sodipodi:nodetypes="ccccccccc" />
    <path
       sodipodi:nodetypes="ccccccccc"
       inkscape:connector-curvature="0"
       style="fill:#000000;fill-opacity:0.01960784;stroke:none"
       d="m 39.753854,0 -0.4375,0 0,20.2461 -2.25,2.25 0,25.5039 0.4375,0 0,-25.3164 L 39.753854,20.4336 Z"
       id="path1082" />
    <path
       inkscape:connector-curvature="0"
       id="path1113"
       d="m 38.437554,0 -0.4375,0 0,19.6836 -2.2501,2.25 0,26.0664 0.4375,0 0,-25.8789 L 38.437454,19.8711 Z"
       style="fill:#ffffff;fill-opacity:0.23529412;stroke:none"
       sodipodi:nodetypes="ccccccccc" />
    <path
       style="fill:#ffffff;fill-opacity:0.1187944;stroke:none"
       d="m 37.5625,0 0,19.5 -2.25,2.25 0,26.21875 0.4375,0 0,-26.03125 L 38,19.6875 38,0 37.5625,0 Z"
       id="path1115"
       inkscape:connector-curvature="0" />
    <path
       inkscape:connector-curvature="0"
       id="path1117"
       d="m 37.567354,0 -0.4375,0 0,19.3008 -2.2501,2.25 0,26.4258 0.4375,0 0,-26.2383 L 37.567254,19.4883 Z"
       style="fill:#ffffff;fill-opacity:0.02745098;stroke:none"
       sodipodi:nodetypes="ccccccccc" />
    <path
       style="opacity:0.30899999;fill:url(#linearGradient2800);fill-opacity:1;stroke:none"
       d="M 1.9375,0 C 0.8602,0 0,0.8602 0,1.9375 l 0,44.125 C 0,47.1398 0.8602,48 1.9375,48 L 7,48 7,0 1.9375,0 Z"
       id="path2796"
       inkscape:connector-curvature="0" />
    <path
       style="fill:#000000;fill-opacity:0.03643727;stroke:none"
       d="M 8.71875 0 L 0 15.125 L 0 24.65625 L 14.21875 0 L 8.71875 0 z M 22.71875 0 L 0 39.375 L 0 46.0625 C 0 46.693342 0.28920522 47.240926 0.75 47.59375 L 18.6875 16.5 L 18.59375 16.5 L 18.59375 14 L 20.125 14 L 28.21875 0 L 22.71875 0 z M 36.71875 0 L 28.65625 14 L 33.78125 14 L 33.78125 14.625 L 38.4375 6.5625 L 38.4375 0 L 36.71875 0 z M 27.1875 16.5 L 26.1875 18.28125 L 31.46875 18.28125 L 31.6875 18.28125 L 32.71875 16.5 L 27.1875 16.5 z M 38.4375 17.84375 L 33.78125 25.90625 L 33.78125 30.28125 C 33.78125 32.125197 32.281447 33.625 30.4375 33.625 C 30.081186 33.625 29.759474 33.572114 29.4375 33.46875 L 21.03125 48 L 26.53125 48 L 36.1875 31.25 L 36.1875 22.125 L 38.4375 19.875 L 38.4375 17.84375 z M 24.71875 20.78125 L 20.90625 27.40625 L 20.90625 30.28125 C 20.90625 32.125197 19.406446 33.625 17.5625 33.625 C 17.488818 33.625 17.416244 33.598451 17.34375 33.59375 L 9.03125 48 L 14.53125 48 L 30.25 20.78125 L 24.71875 20.78125 z "
       id="rect2762" />
    <path
       style="fill:#ffffff;fill-opacity:0.10526315;stroke:none"
       d="M 13.875 0 L 0 24.0625 L 0 24.65625 L 14.21875 0 L 13.875 0 z M 27.875 0 L 19.78125 14 L 20.125 14 L 28.21875 0 L 27.875 0 z M 38.09375 0 L 38.09375 6.5625 L 33.78125 14 L 33.78125 14.03125 L 33.78125 14.625 L 38.4375 6.5625 L 38.4375 0 L 38.09375 0 z M 18.59375 16.09375 L 0.53125 47.375 C 0.6007489 47.44808 0.66936091 47.532006 0.75 47.59375 L 18.6875 16.5 L 18.59375 16.5 L 18.59375 16.09375 z M 32.375 16.5 L 31.34375 18.28125 L 31.46875 18.28125 L 31.6875 18.28125 L 32.71875 16.5 L 32.375 16.5 z M 38.4375 17.84375 L 38.09375 18.4375 L 38.09375 19.875 L 36.125 21.84375 L 35.84375 22.34375 L 35.84375 31.25 L 26.1875 48 L 26.53125 48 L 36.1875 31.25 L 36.1875 22.125 L 38.4375 19.875 L 38.4375 17.84375 z M 29.875 20.78125 L 14.1875 48 L 14.53125 48 L 30.25 20.78125 L 29.875 20.78125 z "
       id="path2784" />
    <path
       style="fill:#000000;fill-opacity:0.09716599;stroke:none"
       d="M 8.71875 0 L 0 15.125 L 0 24.65625 L 0.40625 23.9375 L 0.40625 15.125 L 9.125 0 L 8.71875 0 z M 22.71875 0 L 0 39.375 L 0 46.0625 C 0 46.693342 0.28920522 47.240926 0.75 47.59375 L 0.90625 47.34375 C 0.59628653 47.002694 0.40625 46.56714 0.40625 46.0625 L 0.40625 39.375 L 23.125 0 L 22.71875 0 z M 36.71875 0 L 28.65625 14 L 29.0625 14 L 37.125 0 L 36.71875 0 z M 27.1875 16.5 L 26.1875 18.28125 L 26.59375 18.28125 L 27.59375 16.5 L 27.1875 16.5 z M 38.4375 17.84375 L 33.78125 25.90625 L 33.78125 26.59375 L 36.1875 22.4375 L 36.1875 22.125 L 36.625 21.6875 L 38.4375 18.5625 L 38.4375 17.84375 z M 24.71875 20.78125 L 20.90625 27.40625 L 20.90625 28.125 L 25.125 20.78125 L 24.71875 20.78125 z M 29.4375 33.46875 L 21.03125 48 L 21.4375 48 L 29.78125 33.5625 C 29.662607 33.538222 29.551194 33.50525 29.4375 33.46875 z M 17.34375 33.59375 L 9.03125 48 L 9.4375 48 L 17.75 33.59375 C 17.684657 33.597562 17.628799 33.625 17.5625 33.625 C 17.488818 33.625 17.416244 33.598451 17.34375 33.59375 z "
       id="path2791" />
    <path
       style="opacity:0.30899999;fill:url(#linearGradient2852);fill-opacity:1;stroke:none"
       d="M 1.9375,0 C 0.86022285,0 0,0.86022285 0,1.9375 l 0,44.125 C 0,47.139777 0.86022285,48 1.9375,48 L 7,48 7,0 1.9375,0 Z"
       id="path2850"
       inkscape:connector-curvature="0" />
    <path
       style="fill:#ffffff;fill-opacity:0.24696356;stroke:none"
       d="M 7,0 7,48 7.25,48 7.25,0 7,0 Z"
       id="rect2857"
       inkscape:connector-curvature="0" />
    <path
       inkscape:connector-curvature="0"
       style="fill:#ffffff;fill-opacity:0.5372549;stroke:none"
       d="m 2.5546872,0.6563 c -0.9170885,0 -1.67114687,0.6395 -1.84375007,1.5 C 1.0465491,1.8764 1.4854492,1.7188 1.960937,1.7188 l 44.125,0 c 0.475488,0 0.914388,0.1576 1.25,0.4375 -0.172603,-0.8605 -0.926662,-1.5 -1.84375,-1.5 L 2.5546872,0.6563 Z"
       id="path7515" />
    <path
       inkscape:connector-curvature="0"
       style="fill:#000000;fill-opacity:1;stroke:none"
       d="m 48,45 0,1.0625 C 48,47.1398 47.139777,48 46.0625,48 L 1.9374997,48 C 0.86022275,48 -2.5e-7,47.1398 -2.5e-7,46.0625 l 0,-1.0625 c 0,1.0773 0.860223,1.9375 1.93749995,1.9375 l 44.1250003,0 C 47.139777,46.9375 48,46.0773 48,45 Z"
       id="rect846" />
    <path
       inkscape:connector-curvature="0"
       style="fill:#000000;fill-opacity:0.39215686;stroke:none"
       d="M 1.9374999,0 C 0.86022292,0 -4.2500001e-8,0.8602 -4.2500001e-8,1.9375 l 0,43.0625 C -4.2500001e-8,45.7934 0.48002352,46.449 1.1562499,46.75 0.84690822,46.4167 0.65624992,45.9676 0.65624992,45.4688 l 0,-42.9375 c 0,-1.0482 0.82689888,-1.875 1.87499998,-1.875 l 42.9375001,0 c 1.048101,0 1.875,0.8268 1.875,1.875 l 0,42.9375 c 0,0.4988 -0.190658,0.9479 -0.5,1.2812 C 47.519976,46.449 48,45.7934 48,45 L 48,1.9375 C 48,0.8602 47.139777,0 46.0625,0 L 1.9374999,0 Z"
       id="rect4280" />
    <path
       style="fill:#000000;fill-opacity:0.39215686;stroke:none"
       d="m 18.591204,14 0,2.504072 15.191368,0 0,-2.504072 L 18.591204,14 z m 0,4.273616 0,2.504071 0,6.343648 c -0.326643,-0.106716 -0.672729,-0.166938 -1.035014,-0.166938 -1.843947,0 -3.338763,1.494815 -3.338763,3.338762 0,1.843947 1.494815,3.338762 3.338763,3.338762 1.843946,0 3.33876,-1.494815 3.33876,-3.338762 l 0,-9.515472 10.583876,0 0,6.343648 c -0.326643,-0.106716 -0.672728,-0.166938 -1.035015,-0.166938 -1.843948,0 -3.338762,1.494815 -3.338762,3.338762 0,1.843947 1.494813,3.338762 3.338762,3.338762 1.843947,0 3.338761,-1.494815 3.338761,-3.338762 l 0,-9.515472 0,-2.504071 -2.303744,0 -10.583877,0 L 18.591204,18.273616 Z"
       id="path1271"
       inkscape:connector-curvature="0" />
    <path
       style="fill:#000000;fill-opacity:0.39215686;stroke:none"
       d="m 18.601221,14 0,0.429448 15.184064,0 0,-0.429448 L 18.601221,14 z m 0,4.263808 0,0.429448 2.300617,0 10.582833,0 2.300614,0 0,-0.429448 -2.300615,0 -10.582833,0 L 18.601221,18.263808 z m -1.042944,8.68099 c -1.843948,0 -3.343562,1.499615 -3.343562,3.343562 0,0.07368 0.02597,0.142229 0.03068,0.214724 0.112933,-1.741722 1.542621,-3.128838 3.312886,-3.128838 0.362285,0 0.716303,0.04666 1.042945,0.153375 l 0,-0.398774 C 18.274579,27.022131 17.920561,26.944798 17.558276,26.944798 z m 12.883447,0 c -1.843948,0 -3.343562,1.499615 -3.343562,3.343562 0,0.07368 0.02597,0.142229 0.03067,0.214724 0.112933,-1.741722 1.542621,-3.128838 3.312887,-3.128838 0.362286,0 0.716303,0.04666 1.042946,0.153375 l 0,-0.398774 C 31.158027,27.022131 30.804011,26.944798 30.441724,26.944798 Z"
       id="path1320"
       inkscape:connector-curvature="0" />
    <path
       style="fill:#ffffff;fill-opacity:0.19607843;stroke:none"
       d="m 18.601221,16.51532 0,0.368099 15.184064,0 0,-0.368099 L 18.601221,16.51532 z m 2.300617,4.263808 0,0.368099 10.582833,0 0,-0.368099 L 20.901837,20.779128 z m 0,9.539887 c 0,1.843948 -1.499616,3.312886 -3.343561,3.312886 -1.788526,0 -3.226735,-1.392346 -3.312887,-3.159512 -0.0034,0.06242 -0.03068,0.120758 -0.03068,0.184049 0,1.843948 1.499614,3.343562 3.343561,3.343562 1.843946,0 3.343561,-1.499614 3.343561,-3.343562 L 20.901837,30.319015 z m 12.883447,0 c 0,1.843948 -1.499614,3.312886 -3.343561,3.312886 -1.788527,0 -3.226735,-1.392346 -3.312887,-3.159512 -0.0034,0.06242 -0.03067,0.120758 -0.03067,0.184049 0,1.843948 1.499613,3.343562 3.343562,3.343562 1.843947,0 3.343561,-1.499614 3.343561,-3.343562 L 33.785285,30.319015 Z"
       id="path1325"
       inkscape:connector-curvature="0" />
  </g>
</svg>
