<?xml version="1.0" encoding="UTF-8" standalone="no"?>
<!-- Created with Inkscape (http://www.inkscape.org/) -->

<svg
   xmlns:dc="http://purl.org/dc/elements/1.1/"
   xmlns:cc="http://creativecommons.org/ns#"
   xmlns:rdf="http://www.w3.org/1999/02/22-rdf-syntax-ns#"
   xmlns:svg="http://www.w3.org/2000/svg"
   xmlns="http://www.w3.org/2000/svg"
   xmlns:xlink="http://www.w3.org/1999/xlink"
   xmlns:sodipodi="http://sodipodi.sourceforge.net/DTD/sodipodi-0.dtd"
   xmlns:inkscape="http://www.inkscape.org/namespaces/inkscape"
   width="48"
   height="48"
   id="svg2"
   version="1.1"
   inkscape:version="0.48+devel r12149"
   sodipodi:docname="folder-wine.svg"
   inkscape:export-filename="/home/uri/Iconos/NITRUX/places/16/folder-wine.png"
   inkscape:export-xdpi="30"
   inkscape:export-ydpi="30">
  <defs
     id="defs4">
    <linearGradient
       inkscape:collect="always"
       xlink:href="#linearGradient1035"
       id="linearGradient1033"
       x1="23.875"
       y1="-1052.4872"
       x2="23.875"
       y2="-1004.4247"
       gradientUnits="userSpaceOnUse"
       gradientTransform="translate(0,-8.6914063e-6)" />
    <linearGradient
       id="linearGradient1035"
       inkscape:collect="always">
      <stop
         id="stop1037"
         offset="0"
         style="stop-color:#ffffff;stop-opacity:1" />
      <stop
         id="stop1039"
         offset="1"
         style="stop-color:#ececec;stop-opacity:1" />
    </linearGradient>
    <linearGradient
       inkscape:collect="always"
       xlink:href="#linearGradient1045"
       id="linearGradient2700"
       gradientUnits="userSpaceOnUse"
       x1="27.709515"
       y1="-1004.9823"
       x2="27.709515"
       y2="-1052.8083"
       gradientTransform="matrix(0.91666666,0,0,0.91666666,2,-85.696855)" />
    <linearGradient
       inkscape:collect="always"
       id="linearGradient1045">
      <stop
         style="stop-color:#000000;stop-opacity:1;"
         offset="0"
         id="stop1047" />
      <stop
         style="stop-color:#000000;stop-opacity:0;"
         offset="1"
         id="stop1049" />
    </linearGradient>
    <linearGradient
       inkscape:collect="always"
       xlink:href="#linearGradient2869"
       id="linearGradient2875"
       x1="-1050.2408"
       y1="33.41077"
       x2="-1006.7538"
       y2="33.41077"
       gradientUnits="userSpaceOnUse"
       gradientTransform="translate(-8.6914063e-6,0)" />
    <linearGradient
       inkscape:collect="always"
       id="linearGradient2869">
      <stop
         style="stop-color:#f9f9f9;stop-opacity:1"
         offset="0"
         id="stop2871" />
      <stop
         style="stop-color:#ffffff;stop-opacity:1"
         offset="1"
         id="stop2873" />
    </linearGradient>
    <linearGradient
       inkscape:collect="always"
       xlink:href="#linearGradient2476"
       id="linearGradient1043"
       gradientUnits="userSpaceOnUse"
       x1="48.5"
       y1="-1026.1804"
       x2="1.2499999"
       y2="-1026.1804"
       gradientTransform="matrix(0,1,0.63020833,0,663.20743,1004.3622)" />
    <linearGradient
       id="linearGradient2476"
       inkscape:collect="always">
      <stop
         id="stop2478"
         offset="0"
         style="stop-color:#0c5dfc;stop-opacity:1" />
      <stop
         id="stop2480"
         offset="1"
         style="stop-color:#39e3ff;stop-opacity:1" />
    </linearGradient>
    <linearGradient
       inkscape:collect="always"
       xlink:href="#linearGradient1045"
       id="linearGradient2800"
       gradientUnits="userSpaceOnUse"
       gradientTransform="matrix(0,1,0.63020833,0,663.20743,1004.3622)"
       x1="29"
       y1="-1059.3043"
       x2="29"
       y2="-1045.8168" />
    <linearGradient
       inkscape:collect="always"
       xlink:href="#linearGradient1045"
       id="linearGradient2852"
       gradientUnits="userSpaceOnUse"
       gradientTransform="matrix(0,1.1510417,-0.63020833,0,-656.20743,1000.7372)"
       x1="29"
       y1="-1059.3043"
       x2="29"
       y2="-1045.8168" />
  </defs>
  <sodipodi:namedview
     id="base"
     pagecolor="#ffffff"
     bordercolor="#666666"
     borderopacity="1.0"
     inkscape:pageopacity="0.0"
     inkscape:pageshadow="2"
     inkscape:zoom="7.9999996"
     inkscape:cx="13.253261"
     inkscape:cy="29.351142"
     inkscape:document-units="px"
     inkscape:current-layer="layer1"
     showgrid="false"
     inkscape:window-width="1366"
     inkscape:window-height="716"
     inkscape:window-x="0"
     inkscape:window-y="28"
     inkscape:window-maximized="1" />
  <metadata
     id="metadata7">
    <rdf:RDF>
      <cc:Work
         rdf:about="">
        <dc:format>image/svg+xml</dc:format>
        <dc:type
           rdf:resource="http://purl.org/dc/dcmitype/StillImage" />
        <dc:title />
      </cc:Work>
    </rdf:RDF>
  </metadata>
  <g
     inkscape:label="Capa 1"
     inkscape:groupmode="layer"
     id="layer1"
     transform="translate(0,-1004.3622)">
    <rect
       transform="scale(1,-1)"
       ry="1.9445436"
       y="-1052.3622"
       x="5.7919461e-08"
       height="48"
       width="48"
       id="rect1041"
       style="fill:url(#linearGradient1033);fill-opacity:1;stroke:none" />
    <rect
       style="opacity:0.05;fill:url(#linearGradient2700);fill-opacity:1;stroke:none"
       id="rect2698"
       width="44"
       height="44"
       x="2"
       y="-1050.3622"
       ry="1.7824984"
       transform="scale(1,-1)" />
    <rect
       transform="matrix(-2.3953356e-8,-1,1,0,0,0)"
       ry="0.94589925"
       y="20.650999"
       x="-1050.3622"
       height="23.349005"
       width="44"
       id="rect2714"
       style="fill:#000000;fill-opacity:0.29411765;stroke:none" />
    <rect
       style="fill:url(#linearGradient2875);fill-opacity:1;stroke:none"
       id="rect2716"
       width="43.360767"
       height="22.689007"
       x="-1050.0426"
       y="20.980999"
       ry="0.91916192"
       transform="matrix(-2.372795e-8,-1,1,0,0,0)" />
    <path
       style="fill:#000000;fill-opacity:0.04858303;stroke:none"
       d="m 42.96875,1050.0497 c 0.03222,-0.096 0.0625,-0.2058 0.0625,-0.3125 l 0,-41.5 c 0,-0.5092 -0.397034,-0.9375 -0.90625,-0.9375 l -20.84375,0 c -0.0843,0 -0.171716,0.01 -0.25,0.031 0.129788,-0.3638 0.472444,-0.625 0.875,-0.625 l 20.84375,0 c 0.509216,0 0.90625,0.4282 0.90625,0.9375 l 0,41.5 C 43.65625,1049.5722 43.361674,1049.943 42.96875,1050.0497 Z"
       id="rect2837"
       inkscape:connector-curvature="0" />
    <path
       style="fill:url(#linearGradient1043);fill-opacity:1;stroke:none"
       d="m 38.437454,1004.3622 -2.25,0 -1.625,0 -32.62495,0 c -1.0773,0 -1.9375,0.8602 -1.9375,1.9375 l 0,44.125 c 0,1.0773 0.8602,1.9375 1.9375,1.9375 l 34.24995,0 0,-25.875 L 38.437454,1024.2372 Z"
       id="rect2991-1"
       inkscape:connector-curvature="0"
       sodipodi:nodetypes="cccsssscccc" />
    <path
       style="fill:#000000;fill-opacity:0.23529412;stroke:none"
       d="m 38.874954,1004.3622 -0.4375,0 0,19.875 -2.25,2.25 0,25.875 0.4375,0 0,-25.6875 L 38.874954,1024.4247 Z"
       id="path1068"
       inkscape:connector-curvature="0"
       sodipodi:nodetypes="ccccccccc" />
    <path
       id="path1080"
       d="m 39.312454,1004.3622 -0.4375,0 0,20.0625 -2.25,2.25 0,25.6875 0.4375,0 0,-25.5 L 39.312454,1024.6122 Z"
       style="fill:#000000;fill-opacity:0.07843137;stroke:none"
       inkscape:connector-curvature="0"
       sodipodi:nodetypes="ccccccccc" />
    <path
       sodipodi:nodetypes="ccccccccc"
       inkscape:connector-curvature="0"
       style="fill:#000000;fill-opacity:0.01960784;stroke:none"
       d="m 39.753854,1004.3622 -0.4375,0 0,20.2461 -2.25,2.25 0,25.5039 0.4375,0 0,-25.3164 L 39.753854,1024.7958 Z"
       id="path1082" />
    <path
       inkscape:connector-curvature="0"
       id="path1113"
       d="m 38.437554,1004.3622 -0.4375,0 0,19.6836 -2.2501,2.25 0,26.0664 0.4375,0 0,-25.8789 L 38.437454,1024.2333 Z"
       style="fill:#ffffff;fill-opacity:0.23529412;stroke:none"
       sodipodi:nodetypes="ccccccccc" />
    <path
       style="fill:#ffffff;fill-opacity:0.1187944;stroke:none"
       d="m 37.5625,1004.3622 0,19.5 -2.25,2.25 0,26.2188 0.4375,0 0,-26.0313 2.25,-2.25 0,-19.6875 L 37.5625,1004.3622 Z"
       id="path1115"
       inkscape:connector-curvature="0" />
    <path
       inkscape:connector-curvature="0"
       id="path1117"
       d="m 37.567354,1004.3622 -0.4375,0 0,19.3008 -2.2501,2.25 0,26.4258 0.4375,0 0,-26.2383 L 37.567254,1023.8505 Z"
       style="fill:#ffffff;fill-opacity:0.02745098;stroke:none"
       sodipodi:nodetypes="ccccccccc" />
    <path
       style="opacity:0.30899999;fill:url(#linearGradient2800);fill-opacity:1;stroke:none"
       d="m 1.9375,1004.3622 c -1.0773,0 -1.9375,0.8602 -1.9375,1.9375 l 0,44.125 c 0,1.0773 0.8602,1.9375 1.9375,1.9375 l 5.0625,0 0,-48 L 1.9375,1004.3622 Z"
       id="path2796"
       inkscape:connector-curvature="0" />
    <path
       style="fill:#000000;fill-opacity:0.03643727;stroke:none"
       d="M 8.71875 0 L 0 15.125 L 0 24.65625 L 14.21875 0 L 8.71875 0 z M 22.71875 0 L 14.65625 14 L 20.125 14 L 28.21875 0 L 22.71875 0 z M 36.71875 0 L 28.65625 14 L 33.5625 14 L 33.5625 15 L 38.4375 6.5625 L 38.4375 0 L 36.71875 0 z M 14.4375 14.34375 L 0 39.375 L 0 46.0625 C 0 46.6933 0.28920522 47.24085 0.75 47.59375 L 15.03125 22.875 L 14.4375 22.875 L 14.4375 14.34375 z M 38.4375 17.84375 L 33.5625 26.28125 L 33.5625 33.5 L 29.40625 33.5 L 21.03125 48 L 26.53125 48 L 36.1875 31.25 L 36.1875 22.125 L 38.4375 19.875 L 38.4375 17.84375 z M 24.71875 20.8125 L 22.5 24.625 L 23.3125 24.625 L 23.3125 32.78125 L 24.71875 30.34375 L 24.71875 24.625 L 28.03125 24.625 L 29.03125 22.875 L 24.71875 22.875 L 24.71875 20.8125 z M 17.40625 33.5 L 9.03125 48 L 14.53125 48 L 22.90625 33.5 L 17.40625 33.5 z "
       transform="translate(0,1004.3622)"
       id="rect2762" />
    <path
       style="fill:#ffffff;fill-opacity:0.10526315;stroke:none"
       d="M 13.875 0 L 0 24.0625 L 0 24.65625 L 14.21875 0 L 13.875 0 z M 27.875 0 L 19.78125 14 L 20.125 14 L 28.21875 0 L 27.875 0 z M 38.09375 0 L 38.09375 6.5625 L 33.5625 14.40625 L 33.5625 15 L 38.4375 6.5625 L 38.4375 0 L 38.09375 0 z M 38.4375 17.84375 L 38.09375 18.4375 L 38.09375 19.875 L 36.125 21.84375 L 35.84375 22.34375 L 35.84375 31.25 L 26.1875 48 L 26.53125 48 L 36.1875 31.25 L 36.1875 22.125 L 38.4375 19.875 L 38.4375 17.84375 z M 14.6875 22.875 L 0.53125 47.375 C 0.6007489 47.448 0.66936091 47.53195 0.75 47.59375 L 15.03125 22.875 L 14.6875 22.875 z M 28.6875 22.875 L 27.6875 24.625 L 28.03125 24.625 L 29.03125 22.875 L 28.6875 22.875 z M 24.71875 29.75 L 23.3125 32.1875 L 23.3125 32.78125 L 24.71875 30.34375 L 24.71875 29.75 z M 22.5625 33.5 L 14.1875 48 L 14.53125 48 L 22.90625 33.5 L 22.5625 33.5 z "
       transform="translate(0,1004.3622)"
       id="path2784" />
    <path
       style="fill:#000000;fill-opacity:0.09716599;stroke:none"
       d="M 8.71875 0 L 0 15.125 L 0 24.65625 L 0.40625 23.9375 L 0.40625 15.125 L 9.125 0 L 8.71875 0 z M 22.71875 0 L 14.65625 14 L 15.0625 14 L 23.125 0 L 22.71875 0 z M 36.71875 0 L 28.65625 14 L 29.0625 14 L 37.125 0 L 36.71875 0 z M 14.4375 14.34375 L 0 39.375 L 0 46.0625 C 0 46.6933 0.28920522 47.24085 0.75 47.59375 L 0.90625 47.34375 C 0.59628653 47.00265 0.40625 46.5671 0.40625 46.0625 L 0.40625 39.375 L 14.4375 15.0625 L 14.4375 14.34375 z M 38.4375 17.84375 L 33.5625 26.28125 L 33.5625 27 L 36.1875 22.4375 L 36.1875 22.125 L 36.625 21.6875 L 38.4375 18.5625 L 38.4375 17.84375 z M 24.71875 20.8125 L 22.5 24.625 L 22.90625 24.625 L 24.71875 21.5 L 24.71875 20.8125 z M 17.40625 33.5 L 9.03125 48 L 9.4375 48 L 17.8125 33.5 L 17.40625 33.5 z M 29.40625 33.5 L 21.03125 48 L 21.4375 48 L 29.8125 33.5 L 29.40625 33.5 z "
       transform="translate(0,1004.3622)"
       id="path2791" />
    <path
       style="opacity:0.30899999;fill:url(#linearGradient2852);fill-opacity:1;stroke:none"
       d="m 1.9375,1004.3622 c -1.07727715,0 -1.9375,0.8602 -1.9375,1.9375 l 0,44.125 c 0,1.0773 0.86022285,1.9375 1.9375,1.9375 l 5.0625,0 0,-48 L 1.9375,1004.3622 Z"
       id="path2850"
       inkscape:connector-curvature="0" />
    <path
       style="fill:#ffffff;fill-opacity:0.24696356;stroke:none"
       d="m 7,1004.3622 0,48 0.25,0 0,-48 L 7,1004.3622 Z"
       id="rect2857"
       inkscape:connector-curvature="0" />
    <path
       inkscape:connector-curvature="0"
       style="fill:#ffffff;fill-opacity:0.5372549;stroke:none"
       d="m 2.5546872,1005.0185 c -0.9170885,0 -1.67114687,0.6395 -1.84375007,1.5 0.33561197,-0.2799 0.77451207,-0.4375 1.24999987,-0.4375 l 44.125,0 c 0.475488,0 0.914388,0.1576 1.25,0.4375 -0.172603,-0.8605 -0.926662,-1.5 -1.84375,-1.5 L 2.5546872,1005.0185 Z"
       id="path7515" />
    <path
       inkscape:connector-curvature="0"
       style="fill:#000000;fill-opacity:1;stroke:none"
       d="m 48,1049.3622 0,1.0625 c 0,1.0773 -0.860223,1.9375 -1.9375,1.9375 l -44.1250003,0 c -1.07727695,0 -1.93749995,-0.8602 -1.93749995,-1.9375 l 0,-1.0625 c 0,1.0773 0.860223,1.9375 1.93749995,1.9375 l 44.1250003,0 C 47.139777,1051.2997 48,1050.4395 48,1049.3622 Z"
       id="rect846" />
    <path
       inkscape:connector-curvature="0"
       style="fill:#000000;fill-opacity:0.39215686;stroke:none"
       d="m 1.9374999,1004.3622 c -1.07727698,0 -1.937499942500001,0.8602 -1.937499942500001,1.9375 l 0,43.0625 c 0,0.7934 0.480023562500001,1.449 1.156249942500001,1.75 -0.30934168,-0.3333 -0.49999998,-0.7824 -0.49999998,-1.2812 l 0,-42.9375 c 0,-1.0482 0.82689888,-1.875 1.87499998,-1.875 l 42.9375001,0 c 1.048101,0 1.875,0.8268 1.875,1.875 l 0,42.9375 c 0,0.4988 -0.190658,0.9479 -0.5,1.2812 0.676226,-0.301 1.15625,-0.9566 1.15625,-1.75 l 0,-43.0625 c 0,-1.0773 -0.860223,-1.9375 -1.9375,-1.9375 L 1.9374999,1004.3622 Z"
       id="rect4280" />
    <rect
       style="fill:#000000;fill-opacity:0.39215686;stroke:none"
       id="rect876"
       width="8.8678827"
       height="8.8678827"
       x="14.436062"
       y="1018.3622"
       ry="0" />
    <rect
       ry="0"
       y="1018.3622"
       x="24.704115"
       height="8.8678827"
       width="8.8678827"
       id="rect878"
       style="fill:#000000;fill-opacity:0.39215686;stroke:none" />
    <rect
       ry="0"
       y="1028.9803"
       x="14.436062"
       height="8.8678827"
       width="8.8678827"
       id="rect880"
       style="fill:#000000;fill-opacity:0.39215686;stroke:none" />
    <rect
       style="fill:#000000;fill-opacity:0.39215686;stroke:none"
       id="rect882"
       width="8.8678827"
       height="8.8678827"
       x="24.704115"
       y="1028.9803"
       ry="0" />
    <path
       style="fill:#000000;fill-opacity:0.39215686;stroke:none"
       d="m 14.426591,1018.3665 0,0.516 8.867999,0 0,-0.516 L 14.426591,1018.3665 z m 10.286879,0 0,0.516 8.868001,0 0,-0.516 L 24.71347,1018.3665 z m -10.286879,10.6094 0,0.5159 8.867999,0 0,-0.5159 L 14.426591,1028.9759 z m 10.286879,0 0,0.5159 8.868001,0 0,-0.5159 L 24.71347,1028.9759 Z"
       id="rect949"
       inkscape:connector-curvature="0" />
    <path
       id="path975"
       d="m 14.41853,1027.2368 0,0.516 8.867998,0 0,-0.516 L 14.41853,1027.2368 z m 10.286878,0 0,0.516 8.868,0 0,-0.516 L 24.705408,1027.2368 z m -10.286878,10.6094 0,0.516 8.867998,0 0,-0.516 L 14.41853,1037.8462 z m 10.286878,0 0,0.516 8.868,0 0,-0.516 L 24.705408,1037.8462 Z"
       style="fill:#ffffff;fill-opacity:0.19607843;stroke:none"
       inkscape:connector-curvature="0" />
  </g>
</svg>
