<?xml version="1.0" encoding="UTF-8" standalone="no"?>
<!-- Created with Inkscape (http://www.inkscape.org/) -->

<svg
   xmlns:dc="http://purl.org/dc/elements/1.1/"
   xmlns:cc="http://creativecommons.org/ns#"
   xmlns:rdf="http://www.w3.org/1999/02/22-rdf-syntax-ns#"
   xmlns:svg="http://www.w3.org/2000/svg"
   xmlns="http://www.w3.org/2000/svg"
   xmlns:xlink="http://www.w3.org/1999/xlink"
   xmlns:sodipodi="http://sodipodi.sourceforge.net/DTD/sodipodi-0.dtd"
   xmlns:inkscape="http://www.inkscape.org/namespaces/inkscape"
   width="48"
   height="48"
   id="svg2"
   version="1.1"
   inkscape:version="0.48+devel r12149"
   sodipodi:docname="folder-publicshare.svg">
  <defs
     id="defs4">
    <linearGradient
       inkscape:collect="always"
       xlink:href="#linearGradient1035"
       id="linearGradient1033"
       x1="23.875"
       y1="-1052.4872"
       x2="23.875"
       y2="-1004.4247"
       gradientUnits="userSpaceOnUse"
       gradientTransform="translate(0,-8.691406e-6)" />
    <linearGradient
       id="linearGradient1035"
       inkscape:collect="always">
      <stop
         id="stop1037"
         offset="0"
         style="stop-color:#ffffff;stop-opacity:1" />
      <stop
         id="stop1039"
         offset="1"
         style="stop-color:#ececec;stop-opacity:1" />
    </linearGradient>
    <linearGradient
       inkscape:collect="always"
       xlink:href="#linearGradient1045"
       id="linearGradient2700"
       gradientUnits="userSpaceOnUse"
       x1="27.709515"
       y1="-1004.9823"
       x2="27.709515"
       y2="-1052.8083"
       gradientTransform="matrix(0.91666666,0,0,0.91666666,2,-85.696855)" />
    <linearGradient
       inkscape:collect="always"
       id="linearGradient1045">
      <stop
         style="stop-color:#000000;stop-opacity:1;"
         offset="0"
         id="stop1047" />
      <stop
         style="stop-color:#000000;stop-opacity:0;"
         offset="1"
         id="stop1049" />
    </linearGradient>
    <linearGradient
       inkscape:collect="always"
       xlink:href="#linearGradient2869"
       id="linearGradient2875"
       x1="-1050.2408"
       y1="33.41077"
       x2="-1006.7538"
       y2="33.41077"
       gradientUnits="userSpaceOnUse"
       gradientTransform="translate(-8.691406e-6,0)" />
    <linearGradient
       inkscape:collect="always"
       id="linearGradient2869">
      <stop
         style="stop-color:#f9f9f9;stop-opacity:1"
         offset="0"
         id="stop2871" />
      <stop
         style="stop-color:#ffffff;stop-opacity:1"
         offset="1"
         id="stop2873" />
    </linearGradient>
    <linearGradient
       inkscape:collect="always"
       xlink:href="#linearGradient2476"
       id="linearGradient1043"
       gradientUnits="userSpaceOnUse"
       x1="48.5"
       y1="-1026.1804"
       x2="1.2499999"
       y2="-1026.1804"
       gradientTransform="matrix(0,1,0.63020833,0,663.20743,1004.3622)" />
    <linearGradient
       id="linearGradient2476"
       inkscape:collect="always">
      <stop
         id="stop2478"
         offset="0"
         style="stop-color:#0c5dfc;stop-opacity:1" />
      <stop
         id="stop2480"
         offset="1"
         style="stop-color:#39e3ff;stop-opacity:1" />
    </linearGradient>
    <linearGradient
       inkscape:collect="always"
       xlink:href="#linearGradient1045"
       id="linearGradient2800"
       gradientUnits="userSpaceOnUse"
       gradientTransform="matrix(0,1,0.63020833,0,663.20743,1004.3622)"
       x1="29"
       y1="-1059.3043"
       x2="29"
       y2="-1045.8168" />
    <linearGradient
       inkscape:collect="always"
       xlink:href="#linearGradient1045"
       id="linearGradient2852"
       gradientUnits="userSpaceOnUse"
       gradientTransform="matrix(0,1.1510417,-0.63020833,0,-656.20743,1000.7372)"
       x1="29"
       y1="-1059.3043"
       x2="29"
       y2="-1045.8168" />
  </defs>
  <sodipodi:namedview
     id="base"
     pagecolor="#ffffff"
     bordercolor="#666666"
     borderopacity="1.0"
     inkscape:pageopacity="0.0"
     inkscape:pageshadow="2"
     inkscape:zoom="22.627417"
     inkscape:cx="20.387222"
     inkscape:cy="19.32026"
     inkscape:document-units="px"
     inkscape:current-layer="layer1"
     showgrid="false"
     inkscape:window-width="1366"
     inkscape:window-height="716"
     inkscape:window-x="0"
     inkscape:window-y="28"
     inkscape:window-maximized="1" />
  <metadata
     id="metadata7">
    <rdf:RDF>
      <cc:Work
         rdf:about="">
        <dc:format>image/svg+xml</dc:format>
        <dc:type
           rdf:resource="http://purl.org/dc/dcmitype/StillImage" />
        <dc:title />
      </cc:Work>
    </rdf:RDF>
  </metadata>
  <g
     inkscape:label="Capa 1"
     inkscape:groupmode="layer"
     id="layer1"
     transform="translate(0,-1004.3622)">
    <rect
       transform="scale(1,-1)"
       ry="1.9445436"
       y="-1052.3622"
       x="5.7919461e-08"
       height="48"
       width="48"
       id="rect1041"
       style="fill:url(#linearGradient1033);fill-opacity:1;stroke:none" />
    <rect
       style="opacity:0.05;fill:url(#linearGradient2700);fill-opacity:1;stroke:none"
       id="rect2698"
       width="44"
       height="44"
       x="2"
       y="-1050.3622"
       ry="1.7824984"
       transform="scale(1,-1)" />
    <rect
       transform="matrix(-2.3953356e-8,-1,1,0,0,0)"
       ry="0.94589925"
       y="20.650999"
       x="-1050.3622"
       height="23.349005"
       width="44"
       id="rect2714"
       style="fill:#000000;fill-opacity:0.29411765;stroke:none" />
    <rect
       style="fill:url(#linearGradient2875);fill-opacity:1;stroke:none"
       id="rect2716"
       width="43.360767"
       height="22.689007"
       x="-1050.0426"
       y="20.980999"
       ry="0.91916192"
       transform="matrix(-2.372795e-8,-1,1,0,0,0)" />
    <path
       style="fill:#000000;fill-opacity:0.04858303;stroke:none"
       d="m 42.96875,1050.0497 c 0.03222,-0.096 0.0625,-0.2058 0.0625,-0.3125 l 0,-41.5 c 0,-0.5092 -0.397034,-0.9375 -0.90625,-0.9375 l -20.84375,0 c -0.0843,0 -0.171716,0.01 -0.25,0.031 0.129788,-0.3638 0.472444,-0.625 0.875,-0.625 l 20.84375,0 c 0.509216,0 0.90625,0.4282 0.90625,0.9375 l 0,41.5 C 43.65625,1049.5722 43.361674,1049.943 42.96875,1050.0497 Z"
       id="rect2837"
       inkscape:connector-curvature="0" />
    <path
       style="fill:url(#linearGradient1043);fill-opacity:1;stroke:none"
       d="m 38.437454,1004.3622 -2.25,0 -1.625,0 -32.62495,0 c -1.0773,0 -1.9375,0.8602 -1.9375,1.9375 l 0,44.125 c 0,1.0773 0.8602,1.9375 1.9375,1.9375 l 34.24995,0 0,-25.875 L 38.437454,1024.2372 Z"
       id="rect2991-1"
       inkscape:connector-curvature="0"
       sodipodi:nodetypes="cccsssscccc" />
    <path
       style="fill:#000000;fill-opacity:0.23529412;stroke:none"
       d="m 38.874954,1004.3622 -0.4375,0 0,19.875 -2.25,2.25 0,25.875 0.4375,0 0,-25.6875 L 38.874954,1024.4247 Z"
       id="path1068"
       inkscape:connector-curvature="0"
       sodipodi:nodetypes="ccccccccc" />
    <path
       id="path1080"
       d="m 39.312454,1004.3622 -0.4375,0 0,20.0625 -2.25,2.25 0,25.6875 0.4375,0 0,-25.5 L 39.312454,1024.6122 Z"
       style="fill:#000000;fill-opacity:0.07843137;stroke:none"
       inkscape:connector-curvature="0"
       sodipodi:nodetypes="ccccccccc" />
    <path
       sodipodi:nodetypes="ccccccccc"
       inkscape:connector-curvature="0"
       style="fill:#000000;fill-opacity:0.01960784;stroke:none"
       d="m 39.753854,1004.3622 -0.4375,0 0,20.2461 -2.25,2.25 0,25.5039 0.4375,0 0,-25.3164 L 39.753854,1024.7958 Z"
       id="path1082" />
    <path
       inkscape:connector-curvature="0"
       id="path1113"
       d="m 38.437554,1004.3622 -0.4375,0 0,19.6836 -2.2501,2.25 0,26.0664 0.4375,0 0,-25.8789 L 38.437454,1024.2333 Z"
       style="fill:#ffffff;fill-opacity:0.23529412;stroke:none"
       sodipodi:nodetypes="ccccccccc" />
    <path
       style="fill:#ffffff;fill-opacity:0.1187944;stroke:none"
       d="m 37.5625,1004.3622 0,19.5 -2.25,2.25 0,26.2188 0.4375,0 0,-26.0313 2.25,-2.25 0,-19.6875 L 37.5625,1004.3622 Z"
       id="path1115"
       inkscape:connector-curvature="0" />
    <path
       inkscape:connector-curvature="0"
       id="path1117"
       d="m 37.567354,1004.3622 -0.4375,0 0,19.3008 -2.2501,2.25 0,26.4258 0.4375,0 0,-26.2383 L 37.567254,1023.8505 Z"
       style="fill:#ffffff;fill-opacity:0.02745098;stroke:none"
       sodipodi:nodetypes="ccccccccc" />
    <path
       style="opacity:0.30899999;fill:url(#linearGradient2800);fill-opacity:1;stroke:none"
       d="m 1.9375,1004.3622 c -1.0773,0 -1.9375,0.8602 -1.9375,1.9375 l 0,44.125 c 0,1.0773 0.8602,1.9375 1.9375,1.9375 l 5.0625,0 0,-48 L 1.9375,1004.3622 Z"
       id="path2796"
       inkscape:connector-curvature="0" />
    <path
       style="fill:#000000;fill-opacity:0.03643727;stroke:none"
       d="M 8.71875 0 L 0 15.125 L 0 24.65625 L 14.21875 0 L 8.71875 0 z M 22.71875 0 L 0 39.375 L 0 46.0625 C 0 46.6933 0.28920522 47.24085 0.75 47.59375 L 17.09375 19.28125 C 16.326339 18.763715 15.84375 17.874625 15.84375 16.875 C 15.84375 15.2755 17.119248 14 18.71875 14 C 19.167276 14 19.586111 14.100378 19.96875 14.28125 L 28.21875 0 L 22.71875 0 z M 36.71875 0 L 22.0625 25.40625 L 22.75 27.90625 C 22.833327 27.89225 22.91475 27.90625 23 27.90625 C 23.157311 27.90625 23.318243 27.94375 23.46875 27.96875 L 27.125 21.625 C 26.660837 21.1114 26.40625 20.4343 26.40625 19.6875 C 26.40625 18.088 27.681747 16.8125 29.28125 16.8125 C 30.320928 16.8125 31.242154 17.336475 31.75 18.15625 L 38.4375 6.5625 L 38.4375 0 L 36.71875 0 z M 38.4375 17.84375 L 21.03125 48 L 26.53125 48 L 36.1875 31.25 L 36.1875 22.125 L 38.4375 19.875 L 38.4375 17.84375 z M 28.65625 22.53125 L 25.03125 28.78125 C 25.162275 28.912275 25.302105 29.03443 25.40625 29.1875 L 29.1875 22.625 C 29.003465 22.615238 28.827565 22.567942 28.65625 22.53125 z M 20.8125 27.59375 L 9.03125 48 L 14.53125 48 L 22.8125 33.65625 C 21.301894 33.559571 20.125 32.348458 20.125 30.8125 C 20.125 29.9469 20.494517 29.18405 21.09375 28.65625 L 20.8125 27.59375 z "
       transform="translate(0,1004.3622)"
       id="rect2762" />
    <path
       style="fill:#ffffff;fill-opacity:0.10526315;stroke:none"
       d="M 13.875 0 L 0 24.0625 L 0 24.65625 L 14.21875 0 L 13.875 0 z M 27.875 0 L 19.6875 14.1875 C 19.782564 14.221049 19.878358 14.238522 19.96875 14.28125 L 28.21875 0 L 27.875 0 z M 38.09375 0 L 38.09375 6.5625 L 31.5625 17.90625 C 31.626258 17.987929 31.695209 18.067805 31.75 18.15625 L 38.4375 6.5625 L 38.4375 0 L 38.09375 0 z M 38.4375 17.84375 L 38.09375 18.4375 L 38.09375 19.875 L 36.125 21.84375 L 35.84375 22.34375 L 35.84375 31.25 L 26.1875 48 L 26.53125 48 L 36.1875 31.25 L 36.1875 22.125 L 38.4375 19.875 L 38.4375 17.84375 z M 16.875 19.09375 L 0.53125 47.375 C 0.6007489 47.448 0.66936091 47.53195 0.75 47.59375 L 17.09375 19.28125 C 17.010658 19.225213 16.95158 19.157924 16.875 19.09375 z M 28.875 22.5625 L 25.1875 28.9375 C 25.260033 29.021718 25.343697 29.09556 25.40625 29.1875 L 29.1875 22.625 C 29.078872 22.619238 28.981766 22.581281 28.875 22.5625 z M 22.46875 33.625 L 14.1875 48 L 14.53125 48 L 22.8125 33.65625 C 22.698827 33.648975 22.578383 33.644939 22.46875 33.625 z "
       transform="translate(0,1004.3622)"
       id="path2784" />
    <path
       style="fill:#000000;fill-opacity:0.09716599;stroke:none"
       d="M 8.71875 0 L 0 15.125 L 0 24.65625 L 0.40625 23.9375 L 0.40625 15.125 L 9.125 0 L 8.71875 0 z M 22.71875 0 L 0 39.375 L 0 46.0625 C 0 46.6933 0.28920522 47.24085 0.75 47.59375 L 0.90625 47.34375 C 0.59628653 47.00265 0.40625 46.5671 0.40625 46.0625 L 0.40625 39.375 L 23.125 0 L 22.71875 0 z M 36.71875 0 L 22.0625 25.40625 L 22.1875 25.875 L 37.125 0 L 36.71875 0 z M 38.4375 17.84375 L 21.03125 48 L 21.4375 48 L 36.1875 22.4375 L 36.1875 22.125 L 36.625 21.6875 L 38.4375 18.5625 L 38.4375 17.84375 z M 20.8125 27.59375 L 9.03125 48 L 9.4375 48 L 20.9375 28.0625 L 20.8125 27.59375 z "
       transform="translate(0,1004.3622)"
       id="path2791" />
    <path
       style="opacity:0.30899999;fill:url(#linearGradient2852);fill-opacity:1;stroke:none"
       d="m 1.9375,1004.3622 c -1.07727715,0 -1.9375,0.8602 -1.9375,1.9375 l 0,44.125 c 0,1.0773 0.86022285,1.9375 1.9375,1.9375 l 5.0625,0 0,-48 L 1.9375,1004.3622 Z"
       id="path2850"
       inkscape:connector-curvature="0" />
    <path
       style="fill:#ffffff;fill-opacity:0.24696356;stroke:none"
       d="m 7,1004.3622 0,48 0.25,0 0,-48 L 7,1004.3622 Z"
       id="rect2857"
       inkscape:connector-curvature="0" />
    <path
       inkscape:connector-curvature="0"
       style="fill:#ffffff;fill-opacity:0.5372549;stroke:none"
       d="m 2.5546872,1005.0185 c -0.9170885,0 -1.67114687,0.6395 -1.84375007,1.5 0.33561197,-0.2799 0.77451207,-0.4375 1.24999987,-0.4375 l 44.125,0 c 0.475488,0 0.914388,0.1576 1.25,0.4375 -0.172603,-0.8605 -0.926662,-1.5 -1.84375,-1.5 L 2.5546872,1005.0185 Z"
       id="path7515" />
    <path
       inkscape:connector-curvature="0"
       style="fill:#000000;fill-opacity:1;stroke:none"
       d="m 48,1049.3622 0,1.0625 c 0,1.0773 -0.860223,1.9375 -1.9375,1.9375 l -44.1250003,0 c -1.07727695,0 -1.93749995,-0.8602 -1.93749995,-1.9375 l 0,-1.0625 c 0,1.0773 0.860223,1.9375 1.93749995,1.9375 l 44.1250003,0 C 47.139777,1051.2997 48,1050.4395 48,1049.3622 Z"
       id="rect846" />
    <path
       inkscape:connector-curvature="0"
       style="fill:#000000;fill-opacity:0.39215686;stroke:none"
       d="m 1.9374999,1004.3622 c -1.07727698,0 -1.937499942500001,0.8602 -1.937499942500001,1.9375 l 0,43.0625 c 0,0.7934 0.480023562500001,1.449 1.156249942500001,1.75 -0.30934168,-0.3333 -0.49999998,-0.7824 -0.49999998,-1.2812 l 0,-42.9375 c 0,-1.0482 0.82689888,-1.875 1.87499998,-1.875 l 42.9375001,0 c 1.048101,0 1.875,0.8268 1.875,1.875 l 0,42.9375 c 0,0.4988 -0.190658,0.9479 -0.5,1.2812 0.676226,-0.301 1.15625,-0.9566 1.15625,-1.75 l 0,-43.0625 c 0,-1.0773 -0.860223,-1.9375 -1.9375,-1.9375 L 1.9374999,1004.3622 Z"
       id="rect4280" />
    <path
       inkscape:connector-curvature="0"
       id="path815"
       d="m 18.716049,1018.3622 c -1.599502,0 -2.886012,1.2865 -2.886012,2.886 0,1.5994 1.28651,2.8861 2.886012,2.8861 l 2.376718,8.8703 c -0.599233,0.5278 -0.976152,1.2988 -0.976152,2.1644 0,1.5995 1.28651,2.886 2.886013,2.886 1.599503,0 2.886012,-1.2865 2.886012,-2.886 0,-0.7998 -0.324725,-1.5131 -0.848827,-2.0372 l 3.607517,-6.2388 c 0.200767,0.043 0.422632,0.085 0.636619,0.085 1.599504,0 2.886013,-1.3291 2.886013,-2.9285 0,-1.5995 -1.286509,-2.8861 -2.886013,-2.8861 -1.599503,0 -2.886012,1.2866 -2.886012,2.8861 0,0.7468 0.25734,1.4386 0.721503,1.9522 l -3.649957,6.3239 c -0.150507,-0.025 -0.309544,-0.042 -0.466855,-0.042 -0.08525,0 -0.171322,-0.014 -0.254649,0 l -2.334275,-8.658 c 0.743258,-0.5243 1.2308,-1.3981 1.2308,-2.3767 C 21.644504,1019.6487 20.315553,1018.3622 18.716049,1018.3622 Z"
       style="fill:#000000;fill-opacity:0.39215686;stroke:none" />
    <path
       style="fill:#000000;fill-opacity:0.39215686;stroke:none"
       d="m 18.707562,1018.3622 c -1.599503,0 -2.892379,1.2929 -2.892379,2.8924 0,0.053 0.02797,0.1014 0.03077,0.1538 0.0816,-1.5251 1.31524,-2.7077 2.861609,-2.7077 1.547465,0 2.840573,1.181 2.923149,2.7077 0.0028,-0.052 0,-0.101 0,-0.1538 C 21.630711,1019.6551 20.307066,1018.3622 18.707562,1018.3622 z m 10.584876,2.8001 c -1.599503,0 -2.892379,1.2929 -2.892379,2.8923 0,0.072 -0.0048,0.1442 0,0.2154 0.04888,-1.5559 1.324099,-2.7693 2.892379,-2.7693 1.546369,0 2.780013,1.1826 2.861609,2.7078 0.0028,-0.053 0.03077,-0.1007 0.03077,-0.1539 C 32.184817,1022.4552 30.891942,1021.1623 29.292438,1021.1623 z m -8.830987,2.7385 c -0.02263,0.017 -0.0384,0.045 -0.06154,0.062 l 2.338519,8.6464 c 0.08333,-0.014 0.19168,0 0.27693,0 0.157311,0 0.311043,0.01 0.46155,0.031 l 3.630859,-6.3079 c -0.0392,-0.043 -0.05609,-0.108 -0.09231,-0.1538 l -3.538549,6.154 c -0.150507,-0.025 -0.304239,-0.062 -0.46155,-0.062 -0.08525,0 -0.193603,-0.014 -0.27693,0 L 20.461451,1023.9008 z m 0.58463,9.1695 c -0.56233,0.5255 -0.9231,1.2576 -0.9231,2.0923 0,0.053 0.02797,0.1015 0.03077,0.1539 0.04957,-0.79 0.397728,-1.5102 0.95387,-2.0001 L 21.046081,1033.0703 z m 4.123178,0.2153 -0.12308,0.1847 c 0.489282,0.4893 0.760254,1.1414 0.80002,1.8769 0.004,-0.062 0.03077,-0.1211 0.03077,-0.1846 C 25.876969,1034.4347 25.612693,1033.7928 25.169259,1033.2856 Z"
       id="path935"
       inkscape:connector-curvature="0" />
    <path
       style="fill:#ffffff;fill-opacity:0.19607843;stroke:none"
       d="m 15.845953,1021.4085 c -0.0028,0.052 -0.03077,0.1006 -0.03077,0.1538 0,1.5994 1.292876,2.8924 2.892379,2.8924 l 2.338519,8.6156 c 0.02011,-0.019 0.0409,-0.043 0.06154,-0.061 l -2.400059,-8.8618 C 17.161193,1024.147 15.927549,1022.9336 15.845953,1021.4085 z m 5.784758,0 c -0.04912,0.9144 -0.527633,1.7194 -1.2308,2.2154 l 0.06154,0.2462 c 0.704479,-0.5289 1.16926,-1.3596 1.16926,-2.3078 C 21.630711,1021.5103 21.633488,1021.4598 21.630711,1021.4085 z m 10.523336,2.8 c -0.0816,1.5279 -1.31524,2.7693 -2.861609,2.7693 -0.213987,0 -0.445403,-0.019 -0.64617,-0.061 l -3.600089,6.2156 c 0.03679,0.036 0.05753,0.085 0.09231,0.1231 l 3.507779,-6.0617 c 0.200767,0.043 0.432183,0.093 0.64617,0.093 1.599504,0 2.892379,-1.3237 2.892379,-2.9231 C 32.184817,1024.3092 32.15685,1024.2609 32.154047,1024.2085 z m -5.753988,0.061 c -10e-4,0.032 0,0.061 0,0.093 0,0.6898 0.216001,1.3165 0.6154,1.8154 l 0.09231,-0.1538 C 26.688594,1025.5601 26.44468,1024.9338 26.400059,1024.27 z m -6.277078,11.0465 c -0.0029,0.053 0,0.1003 0,0.1538 0,1.5995 1.292877,2.8924 2.892379,2.8924 1.599503,0 2.861609,-1.2929 2.861609,-2.8924 0,-0.041 0.0018,-0.082 0,-0.1231 -0.07999,1.5267 -1.314144,2.7078 -2.861609,2.7078 C 21.457488,1038.055 20.187565,1036.8578 20.122981,1035.3165 Z"
       id="path940"
       inkscape:connector-curvature="0" />
  </g>
</svg>
