<?xml version="1.0" encoding="UTF-8" standalone="no"?>
<!-- Created with Inkscape (http://www.inkscape.org/) -->

<svg
   xmlns:dc="http://purl.org/dc/elements/1.1/"
   xmlns:cc="http://creativecommons.org/ns#"
   xmlns:rdf="http://www.w3.org/1999/02/22-rdf-syntax-ns#"
   xmlns:svg="http://www.w3.org/2000/svg"
   xmlns="http://www.w3.org/2000/svg"
   xmlns:sodipodi="http://sodipodi.sourceforge.net/DTD/sodipodi-0.dtd"
   xmlns:inkscape="http://www.inkscape.org/namespaces/inkscape"
   id="svg7384"
   height="16"
   width="16"
   version="1.1"
   inkscape:version="0.48+devel r12137"
   sodipodi:docname="folder-templates-symbolic.svg">
  <defs
     id="defs25" />
  <sodipodi:namedview
     pagecolor="#ffffff"
     bordercolor="#666666"
     borderopacity="1"
     objecttolerance="10"
     gridtolerance="10"
     guidetolerance="10"
     inkscape:pageopacity="0"
     inkscape:pageshadow="2"
     inkscape:window-width="1366"
     inkscape:window-height="714"
     id="namedview23"
     showgrid="false"
     inkscape:zoom="11.937261"
     inkscape:cx="3.2690244"
     inkscape:cy="3.912416"
     inkscape:window-x="0"
     inkscape:window-y="30"
     inkscape:window-maximized="1"
     inkscape:current-layer="svg7384" />
  <metadata
     id="metadata90">
    <rdf:RDF>
      <cc:Work
         rdf:about="">
        <dc:format>image/svg+xml</dc:format>
        <dc:type
           rdf:resource="http://purl.org/dc/dcmitype/StillImage" />
        <dc:title>Gnome Symbolic Icon Theme</dc:title>
      </cc:Work>
    </rdf:RDF>
  </metadata>
  <title
     id="title9167">Gnome Symbolic Icon Theme</title>
  <path
     inkscape:connector-curvature="0"
     style="fill:#bebebf;fill-opacity:1;stroke:none"
     d="m 2,1.9999999 0,2.8875 1.14375,-1.44375 L 4.2875,1.9999999 2,1.9999999 z m 2.2875,0 1.14375,1.44375 1.14375,1.44375 -1.125,0 -0.54375,1.93125 -0.61875,2.11875 -0.6,-2.11875 -0.54375,-1.93125 -1.14375,0 0,5.0812502 c 0.281438,-0.07882 0.57494,-0.13125 0.88125,-0.13125 1.809662,0 3.28125,1.4715859 3.28125,3.2812499 0,0.306308 -0.05242,0.59981 -0.13125,0.88125 l 5.08125,0 0,-1.125 -1.93125,-0.5625 -2.11875,-0.6 2.11875,-0.6 1.93125,-0.5625 0,-1.1249999 L 12.55625,10.56875 14,11.7125 14,1.9999999 4.2875,1.9999999 Z M 14,11.7125 12.55625,12.85625 11.1125,14 14,14 14,11.7125 Z M 2.88125,10.4375 c -0.307356,0 -0.606035,0.05434 -0.88125,0.15 L 2,14 5.4125,14 c 0.09566,-0.275215 0.15,-0.573894 0.15,-0.88125 C 5.5625,11.64046 4.35954,10.4375 2.88125,10.4375 Z"
     id="rect929" />
</svg>
