<?xml version="1.0" encoding="UTF-8" standalone="no"?>
<!-- Created with Inkscape (http://www.inkscape.org/) -->

<svg
   xmlns:dc="http://purl.org/dc/elements/1.1/"
   xmlns:cc="http://creativecommons.org/ns#"
   xmlns:rdf="http://www.w3.org/1999/02/22-rdf-syntax-ns#"
   xmlns:svg="http://www.w3.org/2000/svg"
   xmlns="http://www.w3.org/2000/svg"
   xmlns:xlink="http://www.w3.org/1999/xlink"
   xmlns:sodipodi="http://sodipodi.sourceforge.net/DTD/sodipodi-0.dtd"
   xmlns:inkscape="http://www.inkscape.org/namespaces/inkscape"
   width="48"
   height="48"
   id="svg2"
   version="1.1"
   inkscape:version="0.48+devel r12149"
   sodipodi:docname="folder-remote.svg">
  <defs
     id="defs4">
    <linearGradient
       inkscape:collect="always"
       xlink:href="#linearGradient1035"
       id="linearGradient1033"
       x1="23.875"
       y1="-1052.4872"
       x2="23.875"
       y2="-1004.4247"
       gradientUnits="userSpaceOnUse"
       gradientTransform="translate(0,-8.691406e-6)" />
    <linearGradient
       id="linearGradient1035"
       inkscape:collect="always">
      <stop
         id="stop1037"
         offset="0"
         style="stop-color:#ffffff;stop-opacity:1" />
      <stop
         id="stop1039"
         offset="1"
         style="stop-color:#ececec;stop-opacity:1" />
    </linearGradient>
    <linearGradient
       inkscape:collect="always"
       xlink:href="#linearGradient1045"
       id="linearGradient2700"
       gradientUnits="userSpaceOnUse"
       x1="27.709515"
       y1="-1004.9823"
       x2="27.709515"
       y2="-1052.8083"
       gradientTransform="matrix(0.91666666,0,0,0.91666666,2,-85.696855)" />
    <linearGradient
       inkscape:collect="always"
       id="linearGradient1045">
      <stop
         style="stop-color:#000000;stop-opacity:1;"
         offset="0"
         id="stop1047" />
      <stop
         style="stop-color:#000000;stop-opacity:0;"
         offset="1"
         id="stop1049" />
    </linearGradient>
    <linearGradient
       inkscape:collect="always"
       xlink:href="#linearGradient2869"
       id="linearGradient2875"
       x1="-1050.2408"
       y1="33.41077"
       x2="-1006.7538"
       y2="33.41077"
       gradientUnits="userSpaceOnUse"
       gradientTransform="translate(-8.691406e-6,0)" />
    <linearGradient
       inkscape:collect="always"
       id="linearGradient2869">
      <stop
         style="stop-color:#f9f9f9;stop-opacity:1"
         offset="0"
         id="stop2871" />
      <stop
         style="stop-color:#ffffff;stop-opacity:1"
         offset="1"
         id="stop2873" />
    </linearGradient>
    <linearGradient
       inkscape:collect="always"
       xlink:href="#linearGradient2476"
       id="linearGradient1043"
       gradientUnits="userSpaceOnUse"
       x1="48.5"
       y1="-1026.1804"
       x2="1.2499999"
       y2="-1026.1804"
       gradientTransform="matrix(0,1,0.63020833,0,663.20743,1004.3622)" />
    <linearGradient
       id="linearGradient2476"
       inkscape:collect="always">
      <stop
         id="stop2478"
         offset="0"
         style="stop-color:#0c5dfc;stop-opacity:1" />
      <stop
         id="stop2480"
         offset="1"
         style="stop-color:#39e3ff;stop-opacity:1" />
    </linearGradient>
    <linearGradient
       inkscape:collect="always"
       xlink:href="#linearGradient1045"
       id="linearGradient2800"
       gradientUnits="userSpaceOnUse"
       gradientTransform="matrix(0,1,0.63020833,0,663.20743,1004.3622)"
       x1="29"
       y1="-1059.3043"
       x2="29"
       y2="-1045.8168" />
    <linearGradient
       inkscape:collect="always"
       xlink:href="#linearGradient1045"
       id="linearGradient2852"
       gradientUnits="userSpaceOnUse"
       gradientTransform="matrix(0,1.1510417,-0.63020833,0,-656.20743,1000.7372)"
       x1="29"
       y1="-1059.3043"
       x2="29"
       y2="-1045.8168" />
  </defs>
  <sodipodi:namedview
     id="base"
     pagecolor="#ffffff"
     bordercolor="#666666"
     borderopacity="1.0"
     inkscape:pageopacity="0.0"
     inkscape:pageshadow="2"
     inkscape:zoom="7.9999999"
     inkscape:cx="10.564405"
     inkscape:cy="25.486166"
     inkscape:document-units="px"
     inkscape:current-layer="layer1"
     showgrid="false"
     inkscape:window-width="1366"
     inkscape:window-height="716"
     inkscape:window-x="0"
     inkscape:window-y="28"
     inkscape:window-maximized="1">
    <inkscape:grid
       type="xygrid"
       id="grid2995" />
  </sodipodi:namedview>
  <metadata
     id="metadata7">
    <rdf:RDF>
      <cc:Work
         rdf:about="">
        <dc:format>image/svg+xml</dc:format>
        <dc:type
           rdf:resource="http://purl.org/dc/dcmitype/StillImage" />
        <dc:title />
      </cc:Work>
    </rdf:RDF>
  </metadata>
  <g
     inkscape:label="Capa 1"
     inkscape:groupmode="layer"
     id="layer1"
     transform="translate(0,-1004.3622)">
    <rect
       transform="scale(1,-1)"
       ry="1.9445436"
       y="-1052.3622"
       x="5.7919461e-08"
       height="48"
       width="48"
       id="rect1041"
       style="fill:url(#linearGradient1033);fill-opacity:1;stroke:none" />
    <rect
       style="opacity:0.05;fill:url(#linearGradient2700);fill-opacity:1;stroke:none"
       id="rect2698"
       width="44"
       height="44"
       x="2"
       y="-1050.3622"
       ry="1.7824984"
       transform="scale(1,-1)" />
    <rect
       transform="matrix(-2.3953356e-8,-1,1,0,0,0)"
       ry="0.94589925"
       y="20.650999"
       x="-1050.3622"
       height="23.349005"
       width="44"
       id="rect2714"
       style="fill:#000000;fill-opacity:0.29411765;stroke:none" />
    <rect
       style="fill:url(#linearGradient2875);fill-opacity:1;stroke:none"
       id="rect2716"
       width="43.360767"
       height="22.689007"
       x="-1050.0426"
       y="20.980999"
       ry="0.91916192"
       transform="matrix(-2.372795e-8,-1,1,0,0,0)" />
    <path
       style="fill:#000000;fill-opacity:0.04858303;stroke:none"
       d="m 42.96875,1050.0497 c 0.03222,-0.096 0.0625,-0.2058 0.0625,-0.3125 l 0,-41.5 c 0,-0.5092 -0.397034,-0.9375 -0.90625,-0.9375 l -20.84375,0 c -0.0843,0 -0.171716,0.01 -0.25,0.031 0.129788,-0.3638 0.472444,-0.625 0.875,-0.625 l 20.84375,0 c 0.509216,0 0.90625,0.4282 0.90625,0.9375 l 0,41.5 C 43.65625,1049.5722 43.361674,1049.943 42.96875,1050.0497 Z"
       id="rect2837"
       inkscape:connector-curvature="0" />
    <path
       style="fill:url(#linearGradient1043);fill-opacity:1;stroke:none"
       d="m 38.437454,1004.3622 -2.25,0 -1.625,0 -32.62495,0 c -1.0773,0 -1.9375,0.8602 -1.9375,1.9375 l 0,44.125 c 0,1.0773 0.8602,1.9375 1.9375,1.9375 l 34.24995,0 0,-25.875 L 38.437454,1024.2372 Z"
       id="rect2991-1"
       inkscape:connector-curvature="0"
       sodipodi:nodetypes="cccsssscccc" />
    <path
       style="fill:#000000;fill-opacity:0.23529412;stroke:none"
       d="m 38.874954,1004.3622 -0.4375,0 0,19.875 -2.25,2.25 0,25.875 0.4375,0 0,-25.6875 L 38.874954,1024.4247 Z"
       id="path1068"
       inkscape:connector-curvature="0"
       sodipodi:nodetypes="ccccccccc" />
    <path
       id="path1080"
       d="m 39.312454,1004.3622 -0.4375,0 0,20.0625 -2.25,2.25 0,25.6875 0.4375,0 0,-25.5 L 39.312454,1024.6122 Z"
       style="fill:#000000;fill-opacity:0.07843137;stroke:none"
       inkscape:connector-curvature="0"
       sodipodi:nodetypes="ccccccccc" />
    <path
       sodipodi:nodetypes="ccccccccc"
       inkscape:connector-curvature="0"
       style="fill:#000000;fill-opacity:0.01960784;stroke:none"
       d="m 39.753854,1004.3622 -0.4375,0 0,20.2461 -2.25,2.25 0,25.5039 0.4375,0 0,-25.3164 L 39.753854,1024.7958 Z"
       id="path1082" />
    <path
       inkscape:connector-curvature="0"
       id="path1113"
       d="m 38.437554,1004.3622 -0.4375,0 0,19.6836 -2.2501,2.25 0,26.0664 0.4375,0 0,-25.8789 L 38.437454,1024.2333 Z"
       style="fill:#ffffff;fill-opacity:0.23529412;stroke:none"
       sodipodi:nodetypes="ccccccccc" />
    <path
       style="fill:#ffffff;fill-opacity:0.1187944;stroke:none"
       d="m 37.5625,1004.3622 0,19.5 -2.25,2.25 0,26.2188 0.4375,0 0,-26.0313 2.25,-2.25 0,-19.6875 L 37.5625,1004.3622 Z"
       id="path1115"
       inkscape:connector-curvature="0" />
    <path
       inkscape:connector-curvature="0"
       id="path1117"
       d="m 37.567354,1004.3622 -0.4375,0 0,19.3008 -2.2501,2.25 0,26.4258 0.4375,0 0,-26.2383 L 37.567254,1023.8505 Z"
       style="fill:#ffffff;fill-opacity:0.02745098;stroke:none"
       sodipodi:nodetypes="ccccccccc" />
    <path
       style="opacity:0.30899999;fill:url(#linearGradient2800);fill-opacity:1;stroke:none"
       d="m 1.9375,1004.3622 c -1.0773,0 -1.9375,0.8602 -1.9375,1.9375 l 0,44.125 c 0,1.0773 0.8602,1.9375 1.9375,1.9375 l 5.0625,0 0,-48 L 1.9375,1004.3622 Z"
       id="path2796"
       inkscape:connector-curvature="0" />
    <path
       style="fill:#000000;fill-opacity:0.03643727;stroke:none"
       d="M 8.71875 0 L 0 15.125 L 0 24.65625 L 14.21875 0 L 8.71875 0 z M 22.71875 0 L 0 39.375 L 0 46.0625 C 0 46.6933 0.28920522 47.24085 0.75 47.59375 L 17.59375 18.4375 C 16.433958 19.25177 15.352978 20.306297 14.375 21.59375 L 13.125 19.9375 C 15.012496 17.452773 17.267319 15.770475 19.65625 14.84375 L 28.21875 0 L 22.71875 0 z M 36.71875 0 L 28.1875 14.78125 C 29.616987 15.313794 30.994566 16.130854 32.28125 17.21875 L 38.4375 6.5625 L 38.4375 0 L 36.71875 0 z M 27.03125 16.78125 L 25.65625 19.15625 C 27.166685 19.440952 28.622637 20.148291 29.96875 21.21875 L 31.21875 19.0625 C 29.911644 17.985054 28.490761 17.218852 27.03125 16.78125 z M 38.4375 17.84375 L 21.03125 48 L 26.53125 48 L 36.1875 31.25 L 36.1875 22.125 L 38.4375 19.875 L 38.4375 17.84375 z M 24.25 21.65625 L 22.78125 24.15625 C 23.182569 24.074861 23.59518 24.03125 24 24.03125 C 25.259376 24.03125 26.513894 24.42507 27.65625 25.21875 L 28.78125 23.3125 C 27.381898 22.255471 25.816019 21.710742 24.25 21.65625 z M 24.03125 26.46875 C 22.855968 26.469225 21.665024 26.929664 20.65625 27.84375 L 9.03125 48 L 14.53125 48 L 23 33.3125 C 22.204891 32.955633 21.65625 32.168558 21.65625 31.28125 C 21.65625 30.05505 22.70573 29.0625 24 29.0625 C 24.460861 29.0625 24.887016 29.187782 25.25 29.40625 L 26.53125 27.21875 C 25.737193 26.729688 24.89075 26.468403 24.03125 26.46875 z "
       transform="translate(0,1004.3622)"
       id="rect2762" />
    <path
       style="fill:#ffffff;fill-opacity:0.10526315;stroke:none"
       d="M 13.875 0 L 0 24.0625 L 0 24.65625 L 14.21875 0 L 13.875 0 z M 27.875 0 L 19.1875 15.03125 C 19.341523 14.964436 19.500997 14.903976 19.65625 14.84375 L 28.21875 0 L 27.875 0 z M 38.09375 0 L 38.09375 6.5625 L 32.0625 17.03125 C 32.137181 17.092028 32.207191 17.156133 32.28125 17.21875 L 38.4375 6.5625 L 38.4375 0 L 38.09375 0 z M 38.4375 17.84375 L 38.09375 18.4375 L 38.09375 19.875 L 36.125 21.84375 L 35.84375 22.34375 L 35.84375 31.25 L 26.1875 48 L 26.53125 48 L 36.1875 31.25 L 36.1875 22.125 L 38.4375 19.875 L 38.4375 17.84375 z M 17.59375 18.4375 C 17.372251 18.593011 17.153576 18.76473 16.9375 18.9375 L 0.53125 47.375 C 0.6007489 47.448 0.66936091 47.53195 0.75 47.59375 L 17.59375 18.4375 z M 31 18.875 L 29.75 21.03125 C 29.826686 21.089103 29.892865 21.158404 29.96875 21.21875 L 31.21875 19.0625 C 31.143848 19.000758 31.075602 18.934641 31 18.875 z M 28.53125 23.125 L 27.40625 25.0625 C 27.490573 25.115994 27.573147 25.161012 27.65625 25.21875 L 28.78125 23.3125 C 28.697524 23.249256 28.616078 23.184655 28.53125 23.125 z M 26.28125 27.0625 L 25 29.28125 C 25.082881 29.319056 25.172844 29.359812 25.25 29.40625 L 26.53125 27.21875 C 26.449666 27.168502 26.364143 27.107578 26.28125 27.0625 z M 22.75 33.15625 L 14.1875 48 L 14.53125 48 L 23 33.3125 C 22.912425 33.273194 22.831248 33.205147 22.75 33.15625 z "
       transform="translate(0,1004.3622)"
       id="path2784" />
    <path
       style="fill:#000000;fill-opacity:0.09716599;stroke:none"
       d="M 8.71875 0 L 0 15.125 L 0 24.65625 L 0.40625 23.9375 L 0.40625 15.125 L 9.125 0 L 8.71875 0 z M 22.71875 0 L 0 39.375 L 0 46.0625 C 0 46.6933 0.28920522 47.24085 0.75 47.59375 L 0.90625 47.34375 C 0.59628653 47.00265 0.40625 46.5671 0.40625 46.0625 L 0.40625 39.375 L 23.125 0 L 22.71875 0 z M 36.71875 0 L 28.1875 14.78125 C 28.301523 14.823728 28.417855 14.860236 28.53125 14.90625 L 37.125 0 L 36.71875 0 z M 27.03125 16.78125 L 25.65625 19.15625 C 25.783625 19.180259 25.904438 19.220394 26.03125 19.25 L 27.375 16.90625 C 27.259526 16.867405 27.147313 16.816049 27.03125 16.78125 z M 38.4375 17.84375 L 21.03125 48 L 21.4375 48 L 36.1875 22.4375 L 36.1875 22.125 L 36.625 21.6875 L 38.4375 18.5625 L 38.4375 17.84375 z M 24.25 21.65625 L 22.78125 24.15625 C 22.935445 24.124979 23.094918 24.08173 23.25 24.0625 L 24.625 21.65625 C 24.498599 21.645295 24.376587 21.660655 24.25 21.65625 z M 21.375 27.28125 C 21.123649 27.444806 20.891578 27.630511 20.65625 27.84375 L 9.03125 48 L 9.4375 48 L 21.375 27.28125 z "
       transform="translate(0,1004.3622)"
       id="path2791" />
    <path
       style="opacity:0.30899999;fill:url(#linearGradient2852);fill-opacity:1;stroke:none"
       d="m 1.9375,1004.3622 c -1.07727715,0 -1.9375,0.8602 -1.9375,1.9375 l 0,44.125 c 0,1.0773 0.86022285,1.9375 1.9375,1.9375 l 5.0625,0 0,-48 L 1.9375,1004.3622 Z"
       id="path2850"
       inkscape:connector-curvature="0" />
    <path
       style="fill:#ffffff;fill-opacity:0.24696356;stroke:none"
       d="m 7,1004.3622 0,48 0.25,0 0,-48 L 7,1004.3622 Z"
       id="rect2857"
       inkscape:connector-curvature="0" />
    <path
       inkscape:connector-curvature="0"
       style="fill:#ffffff;fill-opacity:0.5372549;stroke:none"
       d="m 2.5546872,1005.0185 c -0.9170885,0 -1.67114687,0.6395 -1.84375007,1.5 0.33561197,-0.2799 0.77451207,-0.4375 1.24999987,-0.4375 l 44.125,0 c 0.475488,0 0.914388,0.1576 1.25,0.4375 -0.172603,-0.8605 -0.926662,-1.5 -1.84375,-1.5 L 2.5546872,1005.0185 Z"
       id="path7515" />
    <path
       inkscape:connector-curvature="0"
       style="fill:#000000;fill-opacity:1;stroke:none"
       d="m 48,1049.3622 0,1.0625 c 0,1.0773 -0.860223,1.9375 -1.9375,1.9375 l -44.1250003,0 c -1.07727695,0 -1.93749995,-0.8602 -1.93749995,-1.9375 l 0,-1.0625 c 0,1.0773 0.860223,1.9375 1.93749995,1.9375 l 44.1250003,0 C 47.139777,1051.2997 48,1050.4395 48,1049.3622 Z"
       id="rect846" />
    <path
       inkscape:connector-curvature="0"
       style="fill:#000000;fill-opacity:0.39215686;stroke:none"
       d="m 1.9374999,1004.3622 c -1.07727698,0 -1.937499942500001,0.8602 -1.937499942500001,1.9375 l 0,43.0625 c 0,0.7934 0.480023562500001,1.449 1.156249942500001,1.75 -0.30934168,-0.3333 -0.49999998,-0.7824 -0.49999998,-1.2812 l 0,-42.9375 c 0,-1.0482 0.82689888,-1.875 1.87499998,-1.875 l 42.9375001,0 c 1.048101,0 1.875,0.8268 1.875,1.875 l 0,42.9375 c 0,0.4988 -0.190658,0.9479 -0.5,1.2812 0.676226,-0.301 1.15625,-0.9566 1.15625,-1.75 l 0,-43.0625 c 0,-1.0773 -0.860223,-1.9375 -1.9375,-1.9375 L 1.9374999,1004.3622 Z"
       id="rect4280" />
    <path
       style="fill:#1a1a1a;fill-opacity:0.39215686;stroke:none"
       d="m 24,1018.3622 c -3.942689,0 -7.873267,1.9836 -10.881439,5.9436 l 1.249689,1.646 c 5.321838,-7.0059 13.941661,-7.0059 19.2635,0 l 1.249689,-1.646 C 31.873268,1020.3458 27.94269,1018.3621 24,1018.3622 z m 0,4.9988 c -2.97034,0 -5.932886,1.4971 -8.199179,4.4805 l 1.40209,1.8593 c 3.755403,-4.9437 9.838775,-4.9437 13.594179,0 l 1.40209,-1.8593 C 29.932887,1024.8581 26.97034,1023.361 24,1023.361 z m 0,5.0292 c -1.994238,0 -3.995367,0.984 -5.51692,2.9871 l 1.34113,1.7373 c 2.317234,-3.0426 6.067119,-3.0475 8.382061,0 l 1.310649,-1.7373 C 27.995367,1029.3742 25.994239,1028.3902 24,1028.3902 z m 0,5.0292 c -1.29427,0 -2.346977,0.9989 -2.346977,2.2251 0,1.2262 1.052707,2.225 2.346977,2.225 1.29427,0 2.346977,-0.9988 2.346977,-2.225 C 26.346977,1034.4183 25.29427,1033.4194 24,1033.4194 Z"
       id="path2830"
       inkscape:connector-curvature="0" />
    <path
       style="fill:#000000;fill-opacity:0.39215686;stroke:none"
       d="m 24,1018.3622 c -3.942689,0 -7.873267,1.9836 -10.881439,5.9436 l 0.182881,0.2439 c 2.984684,-3.8088 6.832009,-5.7303 10.698558,-5.7303 3.86655,-10e-5 7.713874,1.9215 10.698558,5.7303 l 0.182881,-0.2439 C 31.873268,1020.3458 27.94269,1018.3621 24,1018.3622 z m 0,4.9988 c -2.97034,0 -5.932886,1.4971 -8.199179,4.4805 l 0.182881,0.2439 c 2.242387,-2.8318 5.12256,-4.2672 8.016298,-4.2672 2.893739,0 5.773912,1.4354 8.016299,4.2672 l 0.182881,-0.2439 C 29.932887,1024.8581 26.97034,1023.361 24,1023.361 z m 0,5.0292 c -1.994238,0 -3.995367,0.984 -5.51692,2.9871 l 0.182881,0.2438 c 1.497703,-1.85 3.416825,-2.7737 5.334039,-2.7737 1.917214,0 3.836337,0.9237 5.334039,2.7737 l 0.182881,-0.2438 C 27.995367,1029.3742 25.994239,1028.3902 24,1028.3902 z m 0,5.0292 c -1.29427,0 -2.346977,0.9989 -2.346977,2.2251 0,0.072 0.02346,0.1434 0.03048,0.2133 0.127513,-1.1131 1.108417,-1.9812 2.316497,-1.9812 1.20808,0 2.188984,0.8681 2.316497,1.9812 0.007,-0.07 0.03048,-0.1417 0.03048,-0.2133 C 26.346977,1034.4183 25.29427,1033.4194 24,1033.4194 Z"
       id="path999"
       inkscape:connector-curvature="0" />
    <path
       style="fill:#ffffff;fill-opacity:0.19607843;stroke:none"
       d="m 24,1020.6837 c -3.485416,0 -6.970831,1.7702 -9.63175,5.2731 l -1.066808,-1.4021 c -0.06375,0.081 -0.119929,0.1609 -0.182881,0.2438 l 1.249689,1.646 c 5.321838,-7.0059 13.941661,-7.0059 19.2635,0 l 1.249689,-1.646 c -0.06295,-0.083 -0.119129,-0.1627 -0.182881,-0.2438 l -1.066808,1.4021 C 30.970831,1022.4539 27.485416,1020.6837 24,1020.6837 z m 0,5.3035 c -2.459694,0 -4.919388,1.2467 -6.797089,3.7186 l -1.219209,-1.6154 c -0.06433,0.081 -0.119613,0.1606 -0.182881,0.2439 l 1.40209,1.8592 c 3.755403,-4.9437 9.838775,-4.9437 13.594179,0 l 1.40209,-1.8592 c -0.06327,-0.083 -0.118543,-0.1629 -0.182881,-0.2439 l -1.219209,1.6154 C 28.919388,1027.2339 26.459695,1025.9872 24,1025.9872 z m 0.03048,4.8464 c -1.516492,6e-4 -3.047653,0.7647 -4.20627,2.286 l -1.158249,-1.4935 c -0.06533,0.08 -0.119198,0.16 -0.182881,0.2439 l 1.34113,1.7373 c 2.317234,-3.0427 6.067119,-3.0475 8.382061,0 l 1.310649,-1.7373 c -0.06368,-0.084 -0.117554,-0.1636 -0.182881,-0.2439 l -1.127768,1.4935 C 27.0488,1031.5959 25.546973,1030.833 24.03048,1030.8336 z m -2.346977,5.0598 c -0.0091,0.079 -0.03048,0.1621 -0.03048,0.2438 0,1.2261 1.052707,2.225 2.346977,2.225 1.29427,0 2.346977,-0.9989 2.346977,-2.225 0,-0.082 -0.02138,-0.1645 -0.03048,-0.2438 -0.127513,1.113 -1.108417,1.9811 -2.316497,1.9811 C 22.79192,1037.8745 21.811016,1037.0064 21.683503,1035.8934 Z"
       id="path1004"
       inkscape:connector-curvature="0" />
  </g>
</svg>
