<?xml version="1.0" encoding="UTF-8" standalone="no"?>
<!-- Created with Inkscape (http://www.inkscape.org/) -->

<svg
   xmlns:dc="http://purl.org/dc/elements/1.1/"
   xmlns:cc="http://creativecommons.org/ns#"
   xmlns:rdf="http://www.w3.org/1999/02/22-rdf-syntax-ns#"
   xmlns:svg="http://www.w3.org/2000/svg"
   xmlns="http://www.w3.org/2000/svg"
   xmlns:xlink="http://www.w3.org/1999/xlink"
   xmlns:sodipodi="http://sodipodi.sourceforge.net/DTD/sodipodi-0.dtd"
   xmlns:inkscape="http://www.inkscape.org/namespaces/inkscape"
   width="48"
   height="48"
   id="svg865"
   version="1.1"
   inkscape:version="0.48+devel r12149"
   sodipodi:docname="folder.svg">
  <defs
     id="defs867">
    <linearGradient
       inkscape:collect="always"
       id="linearGradient2869">
      <stop
         style="stop-color:#f9f9f9;stop-opacity:1"
         offset="0"
         id="stop2871" />
      <stop
         style="stop-color:#ffffff;stop-opacity:1"
         offset="1"
         id="stop2873" />
    </linearGradient>
    <linearGradient
       id="linearGradient2476"
       inkscape:collect="always">
      <stop
         id="stop2478"
         offset="0"
         style="stop-color:#0c5dfc;stop-opacity:1" />
      <stop
         id="stop2480"
         offset="1"
         style="stop-color:#39e3ff;stop-opacity:1" />
    </linearGradient>
    <linearGradient
       id="linearGradient1035"
       inkscape:collect="always">
      <stop
         id="stop1037"
         offset="0"
         style="stop-color:#ffffff;stop-opacity:1" />
      <stop
         id="stop1039"
         offset="1"
         style="stop-color:#ececec;stop-opacity:1" />
    </linearGradient>
    <linearGradient
       inkscape:collect="always"
       id="linearGradient1045">
      <stop
         style="stop-color:#000000;stop-opacity:1;"
         offset="0"
         id="stop1047" />
      <stop
         style="stop-color:#000000;stop-opacity:0;"
         offset="1"
         id="stop1049" />
    </linearGradient>
    <linearGradient
       inkscape:collect="always"
       xlink:href="#linearGradient1035"
       id="linearGradient1033"
       x1="23.875"
       y1="-1052.4872"
       x2="23.875"
       y2="-1004.4247"
       gradientUnits="userSpaceOnUse" />
    <linearGradient
       inkscape:collect="always"
       xlink:href="#linearGradient2476"
       id="linearGradient1043"
       gradientUnits="userSpaceOnUse"
       x1="48.5"
       y1="-1026.1804"
       x2="1.2499999"
       y2="-1026.1804"
       gradientTransform="matrix(0,1,0.63020833,0,663.20743,1004.3622)" />
    <linearGradient
       inkscape:collect="always"
       xlink:href="#linearGradient1045"
       id="linearGradient2700"
       gradientUnits="userSpaceOnUse"
       x1="27.709515"
       y1="-1004.9823"
       x2="27.709515"
       y2="-1052.8083"
       gradientTransform="matrix(0.91666666,0,0,0.91666666,2,-85.696846)" />
    <linearGradient
       inkscape:collect="always"
       xlink:href="#linearGradient1045"
       id="linearGradient2800"
       gradientUnits="userSpaceOnUse"
       gradientTransform="matrix(0,1,0.63020833,0,663.20743,0)"
       x1="29"
       y1="-1059.3043"
       x2="29"
       y2="-1045.8168" />
    <linearGradient
       inkscape:collect="always"
       xlink:href="#linearGradient1045"
       id="linearGradient2852"
       gradientUnits="userSpaceOnUse"
       gradientTransform="matrix(0,1.1510417,-0.63020833,0,-656.20743,-3.625)"
       x1="29"
       y1="-1059.3043"
       x2="29"
       y2="-1045.8168" />
    <linearGradient
       inkscape:collect="always"
       xlink:href="#linearGradient2869"
       id="linearGradient2875"
       x1="-1050.2408"
       y1="33.41077"
       x2="-1006.7538"
       y2="33.41077"
       gradientUnits="userSpaceOnUse" />
  </defs>
  <sodipodi:namedview
     id="base"
     pagecolor="#ffffff"
     bordercolor="#666666"
     borderopacity="1.0"
     inkscape:pageopacity="0"
     inkscape:pageshadow="2"
     inkscape:zoom="4"
     inkscape:cx="3.921823"
     inkscape:cy="40.158441"
     inkscape:document-units="px"
     inkscape:current-layer="layer1"
     showgrid="false"
     inkscape:window-width="1366"
     inkscape:window-height="716"
     inkscape:window-x="0"
     inkscape:window-y="28"
     inkscape:window-maximized="1" />
  <metadata
     id="metadata870">
    <rdf:RDF>
      <cc:Work
         rdf:about="">
        <dc:format>image/svg+xml</dc:format>
        <dc:type
           rdf:resource="http://purl.org/dc/dcmitype/StillImage" />
        <dc:title></dc:title>
      </cc:Work>
    </rdf:RDF>
  </metadata>
  <g
     inkscape:label="Capa 1"
     inkscape:groupmode="layer"
     id="layer1"
     transform="translate(0,-1004.3622)">
    <g
       id="g1498">
      <rect
         style="fill:url(#linearGradient1033);fill-opacity:1;stroke:none"
         id="rect1041"
         width="48"
         height="48"
         x="5.7919461e-08"
         y="-1052.3622"
         ry="1.9445436"
         transform="scale(1,-1)" />
      <rect
         transform="scale(1,-1)"
         ry="1.7824984"
         y="-1050.3622"
         x="2"
         height="44"
         width="44"
         id="rect2698"
         style="opacity:0.05;fill:url(#linearGradient2700);fill-opacity:1;stroke:none" />
      <rect
         style="fill:#000000;fill-opacity:0.29411765;stroke:none"
         id="rect2714"
         width="44"
         height="23.349005"
         x="-1050.3622"
         y="20.650999"
         ry="0.94589925"
         transform="matrix(-2.3953356e-8,-1,1,0,0,0)" />
      <rect
         transform="matrix(-2.372795e-8,-1,1,0,0,0)"
         ry="0.91916192"
         y="20.980999"
         x="-1050.0426"
         height="22.689007"
         width="43.360767"
         id="rect2716"
         style="fill:url(#linearGradient2875);fill-opacity:1;stroke:none" />
      <path
         inkscape:connector-curvature="0"
         id="rect2837"
         d="m 42.96875,1050.0497 c 0.03222,-0.096 0.0625,-0.2058 0.0625,-0.3125 l 0,-41.5 c 0,-0.5092 -0.397034,-0.9375 -0.90625,-0.9375 l -20.84375,0 c -0.0843,0 -0.171716,0.01 -0.25,0.031 0.129788,-0.3638 0.472444,-0.625 0.875,-0.625 l 20.84375,0 c 0.509216,0 0.90625,0.4282 0.90625,0.9375 l 0,41.5 C 43.65625,1049.5722 43.361674,1049.943 42.96875,1050.0497 Z"
         style="fill:#000000;fill-opacity:0.04858303;stroke:none" />
      <path
         sodipodi:nodetypes="cccsssscccc"
         inkscape:connector-curvature="0"
         id="rect2991-1"
         d="m 38.437454,1004.3622 -2.25,0 -1.625,0 -32.62495,0 c -1.0773,0 -1.9375,0.8602 -1.9375,1.9375 l 0,44.125 c 0,1.0773 0.8602,1.9375 1.9375,1.9375 l 34.24995,0 0,-25.875 L 38.437454,1024.2372 Z"
         style="fill:url(#linearGradient1043);fill-opacity:1;stroke:none" />
      <path
         sodipodi:nodetypes="ccccccccc"
         inkscape:connector-curvature="0"
         id="path1068"
         d="m 38.874954,1004.3622 -0.4375,0 0,19.875 -2.25,2.25 0,25.875 0.4375,0 0,-25.6875 L 38.874954,1024.4247 Z"
         style="fill:#000000;fill-opacity:0.23529412;stroke:none" />
      <path
         sodipodi:nodetypes="ccccccccc"
         inkscape:connector-curvature="0"
         style="fill:#000000;fill-opacity:0.07843137;stroke:none"
         d="m 39.312454,1004.3622 -0.4375,0 0,20.0625 -2.25,2.25 0,25.6875 0.4375,0 0,-25.5 L 39.312454,1024.6122 Z"
         id="path1080" />
      <path
         id="path1082"
         d="m 39.753854,1004.3622 -0.4375,0 0,20.2461 -2.25,2.25 0,25.5039 0.4375,0 0,-25.3164 L 39.753854,1024.7958 Z"
         style="fill:#000000;fill-opacity:0.01960784;stroke:none"
         inkscape:connector-curvature="0"
         sodipodi:nodetypes="ccccccccc" />
      <path
         sodipodi:nodetypes="ccccccccc"
         style="fill:#ffffff;fill-opacity:0.23529412;stroke:none"
         d="m 38.437554,1004.3622 -0.4375,0 0,19.6836 -2.2501,2.25 0,26.0664 0.4375,0 0,-25.8789 L 38.437454,1024.2333 Z"
         id="path1113"
         inkscape:connector-curvature="0" />
      <path
         id="path1115"
         transform="translate(0,1004.3622)"
         d="M 37.5625 0 L 37.5625 19.5 L 35.3125 21.75 L 35.3125 47.96875 L 35.75 47.96875 L 35.75 21.9375 L 38 19.6875 L 38 0 L 37.5625 0 z "
         style="fill:#ffffff;fill-opacity:0.1187944;stroke:none" />
      <path
         sodipodi:nodetypes="ccccccccc"
         style="fill:#ffffff;fill-opacity:0.02745098;stroke:none"
         d="m 37.567354,1004.3622 -0.4375,0 0,19.3008 -2.2501,2.25 0,26.4258 0.4375,0 0,-26.2383 L 37.567254,1023.8505 Z"
         id="path1117"
         inkscape:connector-curvature="0" />
      <path
         transform="translate(0,1004.3622)"
         id="path2796"
         d="M 1.9375 0 C 0.8602 0 0 0.8602 0 1.9375 L 0 46.0625 C 0 47.1398 0.8602 48 1.9375 48 L 7 48 L 7 0 L 1.9375 0 z "
         style="fill:url(#linearGradient2800);fill-opacity:1;stroke:none;opacity:0.309" />
      <g
         id="g3045">
        <path
           style="fill:#000000;fill-opacity:0.03643725;stroke:none"
           d="M 8.71875 0 L 0 15.125 L 0 24.65625 L 14.21875 0 L 8.71875 0 z M 22.71875 0 L 0 39.375 L 0 46.0625 C 0 46.693342 0.28920522 47.240926 0.75 47.59375 L 28.21875 0 L 22.71875 0 z M 36.71875 0 L 9.03125 48 L 14.53125 48 L 38.4375 6.5625 L 38.4375 0 L 36.71875 0 z M 38.4375 17.84375 L 21.03125 48 L 26.53125 48 L 36.1875 31.25 L 36.1875 22.125 L 38.4375 19.875 L 38.4375 17.84375 z "
           transform="translate(0,1004.3622)"
           id="rect2762" />
        <path
           style="fill:#ffffff;fill-opacity:0.10526316;stroke:none"
           d="M 13.875 0 L 0 24.0625 L 0 24.65625 L 14.21875 0 L 13.875 0 z M 27.875 0 L 0.53125 47.375 C 0.60074888 47.448076 0.66936091 47.532006 0.75 47.59375 L 28.21875 0 L 27.875 0 z M 38.09375 0 L 38.09375 6.5625 L 14.1875 48 L 14.53125 48 L 38.4375 6.5625 L 38.4375 0 L 38.09375 0 z M 38.4375 17.84375 L 38.09375 18.4375 L 38.09375 19.875 L 36.125 21.84375 L 35.84375 22.34375 L 35.84375 31.25 L 26.1875 48 L 26.53125 48 L 36.1875 31.25 L 36.1875 22.125 L 38.4375 19.875 L 38.4375 17.84375 z "
           transform="translate(0,1004.3622)"
           id="path2784" />
        <path
           style="fill:#000000;fill-opacity:0.09716599;stroke:none"
           d="M 8.71875 0 L 0 15.125 L 0 24.65625 L 0.40625 23.9375 L 0.40625 15.125 L 9.125 0 L 8.71875 0 z M 22.71875 0 L 0 39.375 L 0 46.0625 C 0 46.693342 0.28920522 47.240926 0.75 47.59375 L 0.90625 47.34375 C 0.59628653 47.002694 0.40625 46.56714 0.40625 46.0625 L 0.40625 39.375 L 23.125 0 L 22.71875 0 z M 36.71875 0 L 9.03125 48 L 9.4375 48 L 37.125 0 L 36.71875 0 z M 38.4375 17.84375 L 21.03125 48 L 21.4375 48 L 36.1875 22.4375 L 36.1875 22.125 L 36.625 21.6875 L 38.4375 18.5625 L 38.4375 17.84375 z "
           transform="translate(0,1004.3622)"
           id="path2791" />
      </g>
      <path
         transform="translate(0,1004.3622)"
         id="path2850"
         d="M 1.9375 0 C 0.86022285 0 0 0.86022285 0 1.9375 L 0 46.0625 C 0 47.139777 0.86022285 48 1.9375 48 L 7 48 L 7 0 L 1.9375 0 z "
         style="opacity:0.30899999;fill:url(#linearGradient2852);fill-opacity:1;stroke:none" />
      <path
         transform="translate(0,1004.3622)"
         id="rect2857"
         d="M 7 0 L 7 48 L 7.25 48 L 7.25 0 L 7 0 z "
         style="fill:#ffffff;fill-opacity:0.24696356;stroke:none" />
      <g
         transform="translate(0.02343725,0)"
         id="g2708">
        <path
           inkscape:connector-curvature="0"
           style="fill:#ffffff;fill-opacity:0.5372549;stroke:none"
           d="m 2.5312499,1005.0185 c -0.9170885,0 -1.67114682,0.6395 -1.84375002,1.5 0.33561202,-0.2799 0.77451212,-0.4375 1.24999992,-0.4375 l 44.1250002,0 c 0.475488,0 0.914388,0.1576 1.25,0.4375 -0.172603,-0.8605 -0.926662,-1.5 -1.84375,-1.5 L 2.5312499,1005.0185 Z"
           id="path7515" />
        <path
           inkscape:connector-curvature="0"
           style="fill:#000000;fill-opacity:1;stroke:none"
           d="m 47.976563,1049.3622 0,1.0625 c 0,1.0773 -0.860223,1.9375 -1.9375,1.9375 l -44.1250005,0 c -1.077277,0 -1.9375,-0.8602 -1.9375,-1.9375 l 0,-1.0625 c 0,1.0773 0.860223,1.9375 1.9375,1.9375 l 44.1250005,0 C 47.11634,1051.2997 47.976563,1050.4395 47.976563,1049.3622 Z"
           id="rect846" />
      </g>
      <path
         id="rect4280"
         d="m 1.9374999,1004.3622 c -1.07727698,0 -1.937499942500001,0.8602 -1.937499942500001,1.9375 l 0,43.0625 c 0,0.7934 0.480023562500001,1.449 1.156249942500001,1.75 -0.30934168,-0.3333 -0.49999998,-0.7824 -0.49999998,-1.2812 l 0,-42.9375 c 0,-1.0482 0.82689888,-1.875 1.87499998,-1.875 l 42.9375001,0 c 1.048101,0 1.875,0.8268 1.875,1.875 l 0,42.9375 c 0,0.4988 -0.190658,0.9479 -0.5,1.2812 0.676226,-0.301 1.15625,-0.9566 1.15625,-1.75 l 0,-43.0625 c 0,-1.0773 -0.860223,-1.9375 -1.9375,-1.9375 L 1.9374999,1004.3622 Z"
         style="fill:#000000;fill-opacity:0.39215686;stroke:none"
         inkscape:connector-curvature="0" />
    </g>
  </g>
  <g
     inkscape:groupmode="layer"
     id="layer2"
     inkscape:label="Capa 2" />
</svg>
