<?xml version="1.0" encoding="UTF-8" standalone="no"?>
<!-- Created with Inkscape (http://www.inkscape.org/) -->

<svg
   xmlns:dc="http://purl.org/dc/elements/1.1/"
   xmlns:cc="http://creativecommons.org/ns#"
   xmlns:rdf="http://www.w3.org/1999/02/22-rdf-syntax-ns#"
   xmlns:svg="http://www.w3.org/2000/svg"
   xmlns="http://www.w3.org/2000/svg"
   xmlns:sodipodi="http://sodipodi.sourceforge.net/DTD/sodipodi-0.dtd"
   xmlns:inkscape="http://www.inkscape.org/namespaces/inkscape"
   id="svg7384"
   height="16"
   width="16"
   version="1.1"
   inkscape:version="0.48+devel r12149"
   sodipodi:docname="user-trash-full-symbolic.svg">
  <defs
     id="defs9" />
  <sodipodi:namedview
     pagecolor="#ffffff"
     bordercolor="#666666"
     borderopacity="1"
     objecttolerance="10"
     gridtolerance="10"
     guidetolerance="10"
     inkscape:pageopacity="0"
     inkscape:pageshadow="2"
     inkscape:window-width="1366"
     inkscape:window-height="716"
     id="namedview7"
     showgrid="false"
     inkscape:zoom="4.2132569"
     inkscape:cx="-0.33358044"
     inkscape:cy="8.6218017"
     inkscape:window-x="0"
     inkscape:window-y="28"
     inkscape:window-maximized="1"
     inkscape:current-layer="svg7384" />
  <metadata
     id="metadata90">
    <rdf:RDF>
      <cc:Work
         rdf:about="">
        <dc:format>image/svg+xml</dc:format>
        <dc:type
           rdf:resource="http://purl.org/dc/dcmitype/StillImage" />
        <dc:title>Gnome Symbolic Icon Theme</dc:title>
      </cc:Work>
    </rdf:RDF>
  </metadata>
  <title
     id="title9167">Gnome Symbolic Icon Theme</title>
  <path
     style="fill:#bebebe;fill-opacity:1;fill-rule:nonzero;stroke:none"
     d="m 6.0000005,2 c -0.220978,0 -0.4,0.1792 -0.4,0.4 l 0,0.4 -2,0 c -0.220978,0 -0.4,0.1792 -0.4,0.4 0,0.2208 0.179022,0.4 0.4,0.4 L 12.4,3.6 c 0.220978,0 0.399999,-0.1792 0.399999,-0.4 0,-0.2208 -0.179022,-0.4 -0.399999,-0.4 l -2,0 0,-0.4 C 10.4,2.1792 10.220978,2 10,2 L 6.0000005,2 z m -2,2.4 0,9.6 L 12,14 12,4.4 4.0000005,4.4 Z M 6.2844445,6.8 8.0000005,8.515556 9.7155565,6.8 10.4,7.484444 8.6844445,9.2 10.4,10.911111 9.7155565,11.6 8.0000005,9.884444 6.2844445,11.6 5.6000005,10.911111 7.3155565,9.2 5.6000005,7.484444 6.2844445,6.8 Z"
     id="path494"
     inkscape:connector-curvature="0" />
</svg>
