<?xml version="1.0" encoding="UTF-8" standalone="no"?>
<!-- Created with Inkscape (http://www.inkscape.org/) -->

<svg
   xmlns:dc="http://purl.org/dc/elements/1.1/"
   xmlns:cc="http://creativecommons.org/ns#"
   xmlns:rdf="http://www.w3.org/1999/02/22-rdf-syntax-ns#"
   xmlns:svg="http://www.w3.org/2000/svg"
   xmlns="http://www.w3.org/2000/svg"
   xmlns:xlink="http://www.w3.org/1999/xlink"
   xmlns:sodipodi="http://sodipodi.sourceforge.net/DTD/sodipodi-0.dtd"
   xmlns:inkscape="http://www.inkscape.org/namespaces/inkscape"
   width="48"
   height="48"
   id="svg2"
   version="1.1"
   inkscape:version="0.48+devel r12149"
   sodipodi:docname="user-home.svg">
  <defs
     id="defs4">
    <linearGradient
       inkscape:collect="always"
       xlink:href="#linearGradient1035"
       id="linearGradient1033"
       x1="23.875"
       y1="-1052.4872"
       x2="23.875"
       y2="-1004.4247"
       gradientUnits="userSpaceOnUse"
       gradientTransform="translate(180.23661,314.54969)" />
    <linearGradient
       id="linearGradient1035"
       inkscape:collect="always">
      <stop
         id="stop1037"
         offset="0"
         style="stop-color:#ffffff;stop-opacity:1" />
      <stop
         id="stop1039"
         offset="1"
         style="stop-color:#ececec;stop-opacity:1" />
    </linearGradient>
    <linearGradient
       inkscape:collect="always"
       xlink:href="#linearGradient1045"
       id="linearGradient2700"
       gradientUnits="userSpaceOnUse"
       x1="27.709515"
       y1="-1004.9823"
       x2="27.709515"
       y2="-1052.8083"
       gradientTransform="matrix(0.91666666,0,0,0.91666666,182.23661,228.85284)" />
    <linearGradient
       inkscape:collect="always"
       id="linearGradient1045">
      <stop
         style="stop-color:#000000;stop-opacity:1;"
         offset="0"
         id="stop1047" />
      <stop
         style="stop-color:#000000;stop-opacity:0;"
         offset="1"
         id="stop1049" />
    </linearGradient>
    <linearGradient
       inkscape:collect="always"
       xlink:href="#linearGradient2869"
       id="linearGradient2875"
       x1="-1050.2408"
       y1="33.41077"
       x2="-1006.7538"
       y2="33.41077"
       gradientUnits="userSpaceOnUse"
       gradientTransform="translate(314.54969,180.23662)" />
    <linearGradient
       inkscape:collect="always"
       id="linearGradient2869">
      <stop
         style="stop-color:#f9f9f9;stop-opacity:1"
         offset="0"
         id="stop2871" />
      <stop
         style="stop-color:#ffffff;stop-opacity:1"
         offset="1"
         id="stop2873" />
    </linearGradient>
    <linearGradient
       inkscape:collect="always"
       xlink:href="#linearGradient2476"
       id="linearGradient1043"
       gradientUnits="userSpaceOnUse"
       x1="48.5"
       y1="-1026.1804"
       x2="1.2499999"
       y2="-1026.1804"
       gradientTransform="matrix(0,1,0.63020833,0,843.44404,689.81251)" />
    <linearGradient
       id="linearGradient2476"
       inkscape:collect="always">
      <stop
         id="stop2478"
         offset="0"
         style="stop-color:#0c5dfc;stop-opacity:1" />
      <stop
         id="stop2480"
         offset="1"
         style="stop-color:#39e3ff;stop-opacity:1" />
    </linearGradient>
    <linearGradient
       inkscape:collect="always"
       xlink:href="#linearGradient1045"
       id="linearGradient2800"
       gradientUnits="userSpaceOnUse"
       gradientTransform="matrix(0,1,0.63020833,0,843.44404,689.81251)"
       x1="29"
       y1="-1059.3043"
       x2="29"
       y2="-1045.8168" />
    <linearGradient
       inkscape:collect="always"
       xlink:href="#linearGradient1045"
       id="linearGradient2852"
       gradientUnits="userSpaceOnUse"
       gradientTransform="matrix(0,1.1510417,-0.63020833,0,-475.97082,686.18751)"
       x1="29"
       y1="-1059.3043"
       x2="29"
       y2="-1045.8168" />
  </defs>
  <sodipodi:namedview
     id="base"
     pagecolor="#ffffff"
     bordercolor="#666666"
     borderopacity="1.0"
     inkscape:pageopacity="0.0"
     inkscape:pageshadow="2"
     inkscape:zoom="8"
     inkscape:cx="9.6834678"
     inkscape:cy="33.590813"
     inkscape:document-units="px"
     inkscape:current-layer="layer1"
     showgrid="false"
     fit-margin-top="0"
     fit-margin-left="0"
     fit-margin-right="0"
     fit-margin-bottom="0"
     inkscape:window-width="1366"
     inkscape:window-height="716"
     inkscape:window-x="0"
     inkscape:window-y="28"
     inkscape:window-maximized="1" />
  <metadata
     id="metadata7">
    <rdf:RDF>
      <cc:Work
         rdf:about="">
        <dc:format>image/svg+xml</dc:format>
        <dc:type
           rdf:resource="http://purl.org/dc/dcmitype/StillImage" />
        <dc:title />
      </cc:Work>
    </rdf:RDF>
  </metadata>
  <g
     inkscape:label="Capa 1"
     inkscape:groupmode="layer"
     id="layer1"
     transform="translate(-180.23661,-689.8125)">
    <rect
       transform="scale(1,-1)"
       ry="1.9445436"
       y="-737.8125"
       x="180.2366"
       height="48"
       width="48"
       id="rect1041"
       style="fill:url(#linearGradient1033);fill-opacity:1;stroke:none" />
    <rect
       style="opacity:0.05;fill:url(#linearGradient2700);fill-opacity:1;stroke:none"
       id="rect2698"
       width="44"
       height="44"
       x="182.2366"
       y="-735.8125"
       ry="1.7824984"
       transform="scale(1,-1)" />
    <rect
       transform="matrix(-2.3953356e-8,-1,1,0,0,0)"
       ry="0.94589925"
       y="200.88762"
       x="-735.8125"
       height="23.349005"
       width="44"
       id="rect2714"
       style="fill:#000000;fill-opacity:0.29411765;stroke:none" />
    <rect
       style="fill:url(#linearGradient2875);fill-opacity:1;stroke:none"
       id="rect2716"
       width="43.360767"
       height="22.689007"
       x="-735.49292"
       y="201.21762"
       ry="0.91916192"
       transform="matrix(-2.372795e-8,-1,1,0,0,0)" />
    <path
       style="fill:#000000;fill-opacity:0.04858303;stroke:none"
       d="m 223.20536,735.50001 c 0.0322,-0.096 0.0625,-0.2058 0.0625,-0.3125 l 0,-41.5 c 0,-0.5092 -0.39703,-0.9375 -0.90625,-0.9375 l -20.84375,0 c -0.0843,0 -0.17172,0.01 -0.25,0.031 0.12979,-0.3638 0.47244,-0.625 0.875,-0.625 l 20.84375,0 c 0.50922,0 0.90625,0.4282 0.90625,0.9375 l 0,41.5 C 223.89286,735.02251 223.59828,735.39331 223.20536,735.50001 Z"
       id="rect2837"
       inkscape:connector-curvature="0" />
    <path
       style="fill:url(#linearGradient1043);fill-opacity:1;stroke:none"
       d="m 218.67406,689.81251 -2.25,0 -1.625,0 -32.62495,0 c -1.0773,0 -1.9375,0.8602 -1.9375,1.9375 l 0,44.125 c 0,1.0773 0.8602,1.9375 1.9375,1.9375 l 34.24995,0 0,-25.875 L 218.67406,709.68751 Z"
       id="rect2991-1"
       inkscape:connector-curvature="0"
       sodipodi:nodetypes="cccsssscccc" />
    <path
       style="fill:#000000;fill-opacity:0.23529412;stroke:none"
       d="m 219.11156,689.81251 -0.4375,0 0,19.875 -2.25,2.25 0,25.875 0.4375,0 0,-25.6875 L 219.11156,709.87501 Z"
       id="path1068"
       inkscape:connector-curvature="0"
       sodipodi:nodetypes="ccccccccc" />
    <path
       id="path1080"
       d="m 219.54906,689.81251 -0.4375,0 0,20.0625 -2.25,2.25 0,25.6875 0.4375,0 0,-25.5 L 219.54906,710.06251 Z"
       style="fill:#000000;fill-opacity:0.07843137;stroke:none"
       inkscape:connector-curvature="0"
       sodipodi:nodetypes="ccccccccc" />
    <path
       sodipodi:nodetypes="ccccccccc"
       inkscape:connector-curvature="0"
       style="fill:#000000;fill-opacity:0.01960784;stroke:none"
       d="m 219.99046,689.81251 -0.4375,0 0,20.2461 -2.25,2.25 0,25.5039 0.4375,0 0,-25.3164 L 219.99046,710.24611 Z"
       id="path1082" />
    <path
       inkscape:connector-curvature="0"
       id="path1113"
       d="m 218.67416,689.81251 -0.4375,0 0,19.6836 -2.2501,2.25 0,26.0664 0.4375,0 0,-25.8789 L 218.67406,709.68361 Z"
       style="fill:#ffffff;fill-opacity:0.23529412;stroke:none"
       sodipodi:nodetypes="ccccccccc" />
    <path
       style="fill:#ffffff;fill-opacity:0.1187944;stroke:none"
       d="m 217.79911,689.81251 0,19.5 -2.25,2.25 0,26.21875 0.4375,0 0,-26.03125 2.25,-2.25 0,-19.6875 L 217.79911,689.81251 Z"
       id="path1115"
       inkscape:connector-curvature="0" />
    <path
       inkscape:connector-curvature="0"
       id="path1117"
       d="m 217.80396,689.81251 -0.4375,0 0,19.3008 -2.2501,2.25 0,26.4258 0.4375,0 0,-26.2383 L 217.80386,709.30081 Z"
       style="fill:#ffffff;fill-opacity:0.02745098;stroke:none"
       sodipodi:nodetypes="ccccccccc" />
    <path
       style="opacity:0.30899999;fill:url(#linearGradient2800);fill-opacity:1;stroke:none"
       d="m 182.17411,689.81251 c -1.0773,0 -1.9375,0.8602 -1.9375,1.9375 l 0,44.125 c 0,1.0773 0.8602,1.9375 1.9375,1.9375 l 5.0625,0 0,-48 L 182.17411,689.81251 Z"
       id="path2796"
       inkscape:connector-curvature="0" />
    <path
       style="fill:#000000;fill-opacity:0.03643727;stroke:none"
       d="M 8.71875 0 L 0 15.125 L 0 24.65625 L 14.21875 0 L 8.71875 0 z M 22.71875 0 L 0 39.375 L 0 46.0625 C 0 46.69334 0.28921 47.24093 0.75 47.59375 L 13.25 25.9375 L 12.9375 25.9375 L 13.75 25.03125 L 28.21875 0 L 22.71875 0 z M 36.71875 0 L 26.875 17.09375 L 29.0625 19.46875 L 29.0625 16.21875 L 31.53125 16.21875 L 31.53125 18.53125 L 38.4375 6.5625 L 38.4375 0 L 36.71875 0 z M 38.4375 17.84375 L 34.28125 25.0625 L 35.0625 25.9375 L 33.78125 25.9375 L 31.53125 29.8125 L 31.53125 34 L 29.125 34 L 21.03125 48 L 26.53125 48 L 36.1875 31.25 L 36.1875 22.125 L 38.4375 19.875 L 38.4375 17.84375 z M 17.09375 34 L 9.03125 48 L 14.53125 48 L 22.59375 34 L 17.09375 34 z "
       transform="translate(180.23661,689.8125)"
       id="rect2762" />
    <path
       style="fill:#ffffff;fill-opacity:0.10526315;stroke:none"
       d="M 13.875 0 L 0 24.0625 L 0 24.65625 L 14.21875 0 L 13.875 0 z M 27.875 0 L 0.53125 47.375 C 0.60075 47.4481 0.66936 47.53201 0.75 47.59375 L 13.25 25.9375 L 12.9375 25.9375 L 13.75 25.03125 L 28.21875 0 L 27.875 0 z M 38.09375 0 L 38.09375 6.5625 L 31.53125 17.9375 L 31.53125 18.53125 L 38.4375 6.5625 L 38.4375 0 L 38.09375 0 z M 38.4375 17.84375 L 38.09375 18.4375 L 38.09375 19.875 L 36.125 21.84375 L 35.84375 22.34375 L 35.84375 31.25 L 26.1875 48 L 26.53125 48 L 36.1875 31.25 L 36.1875 22.125 L 38.4375 19.875 L 38.4375 17.84375 z M 22.25 34 L 14.1875 48 L 14.53125 48 L 22.59375 34 L 22.25 34 z "
       transform="translate(180.23661,689.8125)"
       id="path2784" />
    <path
       style="fill:#000000;fill-opacity:0.09716599;stroke:none"
       d="M 8.71875 0 L 0 15.125 L 0 24.65625 L 0.40625 23.9375 L 0.40625 15.125 L 9.125 0 L 8.71875 0 z M 22.71875 0 L 0 39.375 L 0 46.0625 C 0 46.69334 0.28921 47.24093 0.75 47.59375 L 0.90625 47.34375 C 0.59629 47.00269 0.40625 46.56714 0.40625 46.0625 L 0.40625 39.375 L 23.125 0 L 22.71875 0 z M 36.71875 0 L 26.875 17.09375 L 27.125 17.375 L 37.125 0 L 36.71875 0 z M 38.4375 17.84375 L 34.28125 25.0625 L 34.5 25.34375 L 36.1875 22.4375 L 36.1875 22.125 L 36.625 21.6875 L 38.4375 18.5625 L 38.4375 17.84375 z M 33.78125 25.9375 L 31.53125 29.8125 L 31.53125 30.5 L 34.15625 25.9375 L 33.78125 25.9375 z M 17.09375 34 L 9.03125 48 L 9.4375 48 L 17.5 34 L 17.09375 34 z M 29.125 34 L 21.03125 48 L 21.4375 48 L 29.53125 34 L 29.125 34 z "
       transform="translate(180.23661,689.8125)"
       id="path2791" />
    <path
       style="opacity:0.30899999;fill:url(#linearGradient2852);fill-opacity:1;stroke:none"
       d="m 182.17411,689.81251 c -1.07728,0 -1.9375,0.86022 -1.9375,1.9375 l 0,44.125 c 0,1.07728 0.86022,1.9375 1.9375,1.9375 l 5.0625,0 0,-48 L 182.17411,689.81251 Z"
       id="path2850"
       inkscape:connector-curvature="0" />
    <path
       style="fill:#ffffff;fill-opacity:0.24696356;stroke:none"
       d="m 187.23661,689.81251 0,48 0.25,0 0,-48 L 187.23661,689.81251 Z"
       id="rect2857"
       inkscape:connector-curvature="0" />
    <path
       inkscape:connector-curvature="0"
       style="fill:#ffffff;fill-opacity:0.5372549;stroke:none"
       d="m 182.7913,690.46881 c -0.91709,0 -1.67115,0.6395 -1.84375,1.5 0.33561,-0.2799 0.77451,-0.4375 1.25,-0.4375 l 44.125,0 c 0.47549,0 0.91439,0.1576 1.25,0.4375 -0.1726,-0.8605 -0.92666,-1.5 -1.84375,-1.5 L 182.7913,690.46881 Z"
       id="path7515" />
    <path
       inkscape:connector-curvature="0"
       style="fill:#000000;fill-opacity:1;stroke:none"
       d="m 228.23661,734.81251 0,1.0625 c 0,1.0773 -0.86022,1.9375 -1.9375,1.9375 l -44.125,0 c -1.07727,0 -1.9375,-0.8602 -1.9375,-1.9375 l 0,-1.0625 c 0,1.0773 0.86023,1.9375 1.9375,1.9375 l 44.125,0 C 227.37639,736.75001 228.23661,735.88981 228.23661,734.81251 Z"
       id="rect846" />
    <path
       inkscape:connector-curvature="0"
       style="fill:#000000;fill-opacity:0.39215686;stroke:none"
       d="m 182.17411,689.81251 c -1.07728,0 -1.9375,0.8602 -1.9375,1.9375 l 0,43.0625 c 0,0.7934 0.48002,1.449 1.15625,1.75 -0.30934,-0.3333 -0.5,-0.7824 -0.5,-1.2812 l 0,-42.9375 c 0,-1.0482 0.8269,-1.875 1.875,-1.875 l 42.9375,0 c 1.0481,0 1.875,0.8268 1.875,1.875 l 0,42.9375 c 0,0.4988 -0.19066,0.9479 -0.5,1.2812 0.67623,-0.301 1.15625,-0.9566 1.15625,-1.75 l 0,-43.0625 c 0,-1.0773 -0.86022,-1.9375 -1.9375,-1.9375 L 182.17411,689.81251 Z"
       id="rect4280" />
    <path
       style="fill:#000000;fill-opacity:0.39215686;stroke:none"
       d="m 204.23661,703.8125 -11.07271,11.95105 3.55651,0 0,8.04895 12.5702,0 2.4622,0 0,-8.04895 3.55652,0 -3.55652,-3.8445 0,-5.88913 -2.4622,0 0,3.23974 L 204.23661,703.8125 Z"
       id="path4827"
       inkscape:connector-curvature="0" />
    <path
       inkscape:connector-curvature="0"
       style="fill:#000000;fill-opacity:0.39215686;stroke:none"
       d="m 204.23661,703.8125 -11.0625,11.9375 0.40625,0 10.65625,-11.53125 5.0625,5.46875 0,-0.40625 L 204.23661,703.8125 z m 5.0625,2.21875 0,0.40625 2.46875,0 0,-0.40625 L 209.29911,706.03125 z m 2.46875,5.875 0,0.4375 3.125,3.40625 0.40625,0 L 211.76786,711.90625 Z"
       id="path1057" />
    <path
       style="fill:#ffffff;fill-opacity:0.19607843;stroke:none"
       d="m 193.64286,715.75 -0.46875,0.5 3.53125,0 0,-0.5 L 193.64286,715.75 z m 18.125,0 0,0.5 3.53125,0 -0.46875,-0.5 L 211.76786,715.75 z m -15.0625,8.0625 0,0.5 12.59375,0 2.46875,0 0,-0.5 -2.46875,0 L 196.70536,723.8125 Z"
       id="path1062"
       inkscape:connector-curvature="0" />
  </g>
</svg>
