<?xml version="1.0" encoding="UTF-8" standalone="no"?>
<!-- Created with Inkscape (http://www.inkscape.org/) -->

<svg
   xmlns:dc="http://purl.org/dc/elements/1.1/"
   xmlns:cc="http://creativecommons.org/ns#"
   xmlns:rdf="http://www.w3.org/1999/02/22-rdf-syntax-ns#"
   xmlns:svg="http://www.w3.org/2000/svg"
   xmlns="http://www.w3.org/2000/svg"
   xmlns:xlink="http://www.w3.org/1999/xlink"
   xmlns:sodipodi="http://sodipodi.sourceforge.net/DTD/sodipodi-0.dtd"
   xmlns:inkscape="http://www.inkscape.org/namespaces/inkscape"
   width="48"
   height="48"
   id="svg880"
   version="1.1"
   inkscape:version="0.48+devel r12149"
   sodipodi:docname="folder-visiting.svg">
  <defs
     id="defs882">
    <linearGradient
       id="linearGradient837">
      <stop
         style="stop-color:#666666;stop-opacity:1"
         offset="0"
         id="stop839" />
      <stop
         style="stop-color:#b3b3b3;stop-opacity:1"
         offset="1"
         id="stop841" />
    </linearGradient>
    <linearGradient
       gradientTransform="matrix(0.95835365,0,0,-0.95835365,0.99951359,42.838854)"
       y2="-1004.4247"
       x2="23.875"
       y1="-1052.4872"
       x1="23.875"
       gradientUnits="userSpaceOnUse"
       id="linearGradient915"
       xlink:href="#linearGradient1035"
       inkscape:collect="always" />
    <linearGradient
       id="linearGradient1035"
       inkscape:collect="always">
      <stop
         id="stop1037"
         offset="0"
         style="stop-color:#ffffff;stop-opacity:1" />
      <stop
         id="stop1039"
         offset="1"
         style="stop-color:#ececec;stop-opacity:1" />
    </linearGradient>
    <linearGradient
       inkscape:collect="always"
       xlink:href="#linearGradient1045"
       id="linearGradient2700"
       gradientUnits="userSpaceOnUse"
       x1="27.709515"
       y1="-1004.9823"
       x2="27.709515"
       y2="-1052.8083"
       gradientTransform="matrix(0.87849084,0,0,0.87849084,2.9162209,-124.96675)" />
    <linearGradient
       inkscape:collect="always"
       id="linearGradient1045">
      <stop
         style="stop-color:#000000;stop-opacity:1;"
         offset="0"
         id="stop1047" />
      <stop
         style="stop-color:#000000;stop-opacity:0;"
         offset="1"
         id="stop1049" />
    </linearGradient>
    <linearGradient
       gradientTransform="matrix(0.95835365,0,0,0.95835365,-42.838854,0.99951279)"
       inkscape:collect="always"
       xlink:href="#linearGradient2869"
       id="linearGradient2875"
       x1="-1050.2408"
       y1="33.41077"
       x2="-1006.7538"
       y2="33.41077"
       gradientUnits="userSpaceOnUse" />
    <linearGradient
       inkscape:collect="always"
       id="linearGradient2869">
      <stop
         style="stop-color:#f9f9f9;stop-opacity:1"
         offset="0"
         id="stop2871" />
      <stop
         style="stop-color:#ffffff;stop-opacity:1"
         offset="1"
         id="stop2873" />
    </linearGradient>
    <linearGradient
       inkscape:collect="always"
       xlink:href="#linearGradient837"
       id="linearGradient1043"
       gradientUnits="userSpaceOnUse"
       x1="48.5"
       y1="-1026.1804"
       x2="1.2499999"
       y2="-1026.1804"
       gradientTransform="matrix(0,0.95835365,0.60396245,0,636.58677,1005.3729)" />
    <linearGradient
       inkscape:collect="always"
       xlink:href="#linearGradient1045"
       id="linearGradient2800"
       gradientUnits="userSpaceOnUse"
       gradientTransform="matrix(0,0.95835365,0.60396245,0,636.58677,1005.3729)"
       x1="29"
       y1="-1059.3043"
       x2="29"
       y2="-1045.8168" />
    <linearGradient
       inkscape:collect="always"
       xlink:href="#linearGradient1045"
       id="linearGradient2852"
       gradientUnits="userSpaceOnUse"
       gradientTransform="matrix(0,1.103105,-0.60396245,0,-627.87927,1001.8989)"
       x1="29"
       y1="-1059.3043"
       x2="29"
       y2="-1045.8168" />
  </defs>
  <sodipodi:namedview
     id="base"
     pagecolor="#ffffff"
     bordercolor="#666666"
     borderopacity="1.0"
     inkscape:pageopacity="0.0"
     inkscape:pageshadow="2"
     inkscape:zoom="5.6"
     inkscape:cx="12.503999"
     inkscape:cy="25.99922"
     inkscape:document-units="px"
     inkscape:current-layer="layer1"
     showgrid="false"
     inkscape:window-width="1366"
     inkscape:window-height="716"
     inkscape:window-x="0"
     inkscape:window-y="28"
     inkscape:window-maximized="1" />
  <metadata
     id="metadata885">
    <rdf:RDF>
      <cc:Work
         rdf:about="">
        <dc:format>image/svg+xml</dc:format>
        <dc:type
           rdf:resource="http://purl.org/dc/dcmitype/StillImage" />
        <dc:title />
      </cc:Work>
    </rdf:RDF>
  </metadata>
  <g
     inkscape:label="Capa 1"
     inkscape:groupmode="layer"
     id="layer1"
     transform="translate(0,-1004.3622)">
    <rect
       style="color:#000000;fill:#333333;fill-opacity:1;fill-rule:nonzero;stroke:none;stroke-width:0.2;marker:none;visibility:visible;display:inline;overflow:visible;enable-background:accumulate"
       id="rect6294"
       width="45.5"
       height="45.5"
       x="1.25"
       y="1005.6122"
       ry="6.3565426" />
    <path
       inkscape:connector-curvature="0"
       style="fill:url(#linearGradient915);fill-opacity:1;stroke:none"
       d="m 7.5937501,1006.1122 c -3.2445246,0 -5.84375,2.5992 -5.84375,5.8438 l 0,32.8125 c 0,3.2445 2.5992254,5.8437 5.84375,5.8437 l 32.8124999,0 c 3.244525,0 5.84375,-2.5992 5.84375,-5.8437 l 0,-32.8125 c 0,-3.2446 -2.599225,-5.8438 -5.84375,-5.8438 L 7.5937501,1006.1122 Z"
       id="rect1041" />
    <rect
       style="opacity:0.05;fill:url(#linearGradient2700);fill-opacity:1;stroke:none"
       id="rect2698"
       width="42.167561"
       height="42.167561"
       x="2.9162197"
       y="-1049.4573"
       ry="1.7082638"
       transform="scale(1,-1)" />
    <rect
       transform="matrix(-2.3953356e-8,-1,1,0,0,0)"
       ry="0.906506"
       y="20.790474"
       x="-1049.4573"
       height="22.376604"
       width="42.167561"
       id="rect2714"
       style="fill:#000000;fill-opacity:0.29411765;stroke:none" />
    <rect
       style="fill:url(#linearGradient2875);fill-opacity:1;stroke:none"
       id="rect2716"
       width="41.554951"
       height="21.744093"
       x="-1049.151"
       y="21.106731"
       ry="0.88088214"
       transform="matrix(-2.372795e-8,-1,1,0,0,0)" />
    <path
       style="fill:#000000;fill-opacity:0.04858303;stroke:none"
       d="m 42.178771,1049.1577 c 0.03088,-0.092 0.0599,-0.1972 0.0599,-0.2995 l 0,-39.7717 c 0,-0.4879 -0.380498,-0.8984 -0.868507,-0.8984 l -19.975684,0 c -0.08079,0 -0.164565,0.01 -0.239588,0.03 0.124383,-0.3487 0.452768,-0.599 0.838559,-0.599 l 19.975683,0 c 0.48801,0 0.868508,0.4104 0.868508,0.8985 l 0,39.7717 C 42.837639,1048.7001 42.555331,1049.0555 42.178771,1049.1577 Z"
       id="rect2837"
       inkscape:connector-curvature="0" />
    <path
       inkscape:connector-curvature="0"
       style="fill:url(#linearGradient1043);fill-opacity:1.0;stroke:none"
       d="m 7.5937501,1006.1122 c -3.2445246,0 -5.84375,2.5992 -5.84375,5.8438 l 0,32.8125 c 0,3.2445 2.5992254,5.8437 5.84375,5.8437 l 20.0937499,0 0,-24.0312 2.15625,-2.1563 L 29.84375,1006.1122 Z"
       id="rect2991-1"
       sodipodi:nodetypes="ssssccccs" />
    <path
       inkscape:connector-curvature="0"
       style="fill:#000000;fill-opacity:0.23529412;stroke:none"
       d="m 29.84375,1006.1122 0,18.3125 -2.15625,2.1563 0,24.0312 0.40625,0 0,-23.8437 L 30.25,1024.6122 30.25,1006.1122 Z"
       id="path1068"
       sodipodi:nodetypes="ccccccccc" />
    <path
       inkscape:connector-curvature="0"
       style="fill:#000000;fill-opacity:0.07843137;stroke:none"
       d="m 30.25,1006.1122 0,18.5 -2.15625,2.1563 0,23.8437 0.4375,0 0,-23.6875 2.15625,-2.1562 L 30.6875,1006.1122 Z"
       id="path1080"
       sodipodi:nodetypes="ccccccccc" />
    <path
       inkscape:connector-curvature="0"
       style="fill:#000000;fill-opacity:0.01960784;stroke:none"
       d="m 30.6875,1006.1122 0,18.6563 -2.15625,2.1562 0,23.6875 0.40625,0 0,-23.5 2.15625,-2.1562 L 31.09375,1006.1122 Z"
       id="path1082"
       sodipodi:nodetypes="ccccccccc" />
    <path
       inkscape:connector-curvature="0"
       style="fill:#ffffff;fill-opacity:0.23529412;stroke:none"
       d="m 29.40625,1006.1122 0,18.125 -2.15625,2.1563 0,24.2187 0.4375,0 0,-24.0312 2.15625,-2.1563 L 29.84375,1006.1122 Z"
       id="path1113"
       sodipodi:nodetypes="ccccccccc" />
    <path
       inkscape:connector-curvature="0"
       style="fill:#ffffff;fill-opacity:0.1187944;stroke:none"
       d="m 29,1006.1122 0,17.9375 -2.15625,2.1563 0,24.4062 0.40625,0 0,-24.2187 2.15625,-2.1563 L 29.40625,1006.1122 Z"
       id="path1115"
       sodipodi:nodetypes="ccccccccc" />
    <path
       inkscape:connector-curvature="0"
       style="fill:#ffffff;fill-opacity:0.02745098;stroke:none"
       d="m 28.59375,1006.1122 0,17.75 -2.15625,2.1563 0,24.5937 0.40625,0 0,-24.4062 L 29,1024.0497 29,1006.1122 Z"
       id="path1117"
       sodipodi:nodetypes="ccccccccc" />
    <path
       inkscape:connector-curvature="0"
       style="opacity:0.30899999;fill:url(#linearGradient2800);fill-opacity:1;stroke:none"
       d="m 7.5937501,1006.1122 c -3.2445246,0 -5.84375,2.5992 -5.84375,5.8438 l 0,32.8125 c 0,3.2445 2.5992254,5.8437 5.84375,5.8437 l 0.125,0 0,-44.5 L 7.5937501,1006.1122 Z"
       id="path2796" />
    <path
       inkscape:connector-curvature="0"
       style="fill:#000000;fill-opacity:0.03643727;stroke:none"
       d="m 8.9062501,1006.1122 -7.15625,12.4375 0,9.125 L 14.1875,1006.1122 8.9062501,1006.1122 z m 13.4374999,0 -20.5937499,35.6875 0,2.9688 c 0,0.3065 0.047911,0.6136 0.09375,0.9062 0.013086,0.083 0.014629,0.1678 0.03125,0.25 0.00194,0.01 -0.00199,0.022 0,0.031 0.060993,0.2936 0.1464812,0.5685 0.25,0.8437 0.232109,0.6171 0.5559731,1.1874 0.96875,1.6875 0.00929,0.011 0.021885,0.02 0.03125,0.031 L 27.59375,1006.1122 22.34375,1006.1122 z m 7.5,10.25 -19.75,34.25 5.28125,0 12.3125,-21.3437 0,-2.6875 2.15625,-2.1563 L 29.84375,1016.3622 z m -2.15625,23.6875 -6.09375,10.5625 5.28125,0 0.8125,-1.4062 L 27.6875,1040.0497 Z"
       id="rect2762" />
    <path
       inkscape:connector-curvature="0"
       style="fill:#ffffff;fill-opacity:0.10526315;stroke:none"
       d="m 13.84375,1006.1122 -12.0937499,21 0,0.5625 L 14.1875,1006.1122 13.84375,1006.1122 z m 13.4375,0 -24.3437499,42.1875 c 0.031724,0.042 0.059308,0.086 0.09375,0.125 0.018393,0.023 0.043766,0.04 0.0625,0.062 0.00969,0.011 0.021717,0.02 0.03125,0.031 L 27.59375,1006.1122 27.28125,1006.1122 z m 0.40625,22.5625 -12.65625,21.9375 0.34375,0 12.3125,-21.3437 L 27.6875,1028.6747 z m 0,19.9375 -1.15625,2 0.34375,0 0.8125,-1.4062 L 27.6875,1048.6122 Z"
       id="path2784" />
    <path
       inkscape:connector-curvature="0"
       style="fill:#000000;fill-opacity:0.09716599;stroke:none"
       d="m 8.9062501,1006.1122 -7.15625,12.4375 0,0.6563 7.5625,-13.0938 L 8.9062501,1006.1122 z m 13.4374999,0 -20.5937499,35.6875 0,0.6563 L 22.71875,1006.1122 22.34375,1006.1122 z m 7.5,10.25 -19.75,34.25 0.375,0 19.375,-33.5625 L 29.84375,1016.3622 z m -2.15625,23.6875 -6.09375,10.5625 0.375,0 5.71875,-9.9062 L 27.6875,1040.0497 Z"
       id="path2791" />
    <path
       inkscape:connector-curvature="0"
       style="opacity:0.30899999;fill:url(#linearGradient2852);fill-opacity:1;stroke:none"
       d="m 7.5937501,1006.1122 c -3.2445246,0 -5.84375,2.5992 -5.84375,5.8438 l 0,32.8125 c 0,3.2445 2.5992254,5.8437 5.84375,5.8437 l 0.125,0 0,-44.5 L 7.5937501,1006.1122 Z"
       id="path2850" />
    <path
       inkscape:connector-curvature="0"
       style="fill:#ffffff;fill-opacity:0.24696356;stroke:none"
       d="m 7.7187501,1006.1122 0,44.5 0.21875,0 0,-44.5 L 7.7187501,1006.1122 Z"
       id="rect2857" />
    <path
       id="path6361"
       d="m 1.7499881,1012.5498 0,-0.5625 c 0,-3.2445 2.59922,-5.875 5.84375,-5.875 l 32.8124999,0 c 3.24452,0 5.84375,2.6305 5.84375,5.875 l 0,0.5625 c 0,-3.2445 -2.59923,-5.875 -5.84375,-5.875 l -32.8124999,0 C 4.3492081,1006.6748 1.7499881,1009.3053 1.7499881,1012.5498 Z"
       style="color:#000000;fill:#ffffff;fill-opacity:1;fill-rule:nonzero;stroke:none;stroke-width:0.2;marker:none;visibility:visible;display:inline;overflow:visible;enable-background:accumulate"
       inkscape:connector-curvature="0" />
    <path
       inkscape:connector-curvature="0"
       style="color:#000000;fill:#000000;fill-opacity:1;fill-rule:nonzero;stroke:none;stroke-width:0.2;marker:none;visibility:visible;display:inline;overflow:visible;enable-background:accumulate"
       d="m 1.7499881,1044.1748 0,0.5625 c 0,3.2445 2.59922,5.875 5.84375,5.875 l 32.8124999,0 c 3.24452,0 5.84375,-2.6305 5.84375,-5.875 l 0,-0.5625 c 0,3.2445 -2.59923,5.875 -5.84375,5.875 l -32.8124999,0 C 4.3492081,1050.0498 1.7499881,1047.4193 1.7499881,1044.1748 Z"
       id="path6388" />
  </g>
</svg>
