<?xml version="1.0" encoding="UTF-8" standalone="no"?>
<!-- Created with Inkscape (http://www.inkscape.org/) -->

<svg
   xmlns:dc="http://purl.org/dc/elements/1.1/"
   xmlns:cc="http://creativecommons.org/ns#"
   xmlns:rdf="http://www.w3.org/1999/02/22-rdf-syntax-ns#"
   xmlns:svg="http://www.w3.org/2000/svg"
   xmlns="http://www.w3.org/2000/svg"
   xmlns:sodipodi="http://sodipodi.sourceforge.net/DTD/sodipodi-0.dtd"
   xmlns:inkscape="http://www.inkscape.org/namespaces/inkscape"
   width="24"
   height="24"
   id="svg3409"
   version="1.1"
   inkscape:version="0.48+devel r12012"
   sodipodi:docname="emblem-dropbox-uptodate.svg">
  <defs
     id="defs3411" />
  <sodipodi:namedview
     id="base"
     pagecolor="#ffffff"
     bordercolor="#666666"
     borderopacity="1.0"
     inkscape:pageopacity="0.0"
     inkscape:pageshadow="2"
     inkscape:zoom="16.068964"
     inkscape:cx="-17.629519"
     inkscape:cy="16.902925"
     inkscape:current-layer="layer1"
     showgrid="true"
     inkscape:grid-bbox="true"
     inkscape:document-units="px"
     inkscape:window-width="1366"
     inkscape:window-height="718"
     inkscape:window-x="0"
     inkscape:window-y="28"
     inkscape:window-maximized="1"
     width="0px"
     height="0px"
     fit-margin-top="0"
     fit-margin-left="0"
     fit-margin-right="0"
     fit-margin-bottom="0" />
  <metadata
     id="metadata3414">
    <rdf:RDF>
      <cc:Work
         rdf:about="">
        <dc:format>image/svg+xml</dc:format>
        <dc:type
           rdf:resource="http://purl.org/dc/dcmitype/StillImage" />
        <dc:title />
      </cc:Work>
    </rdf:RDF>
  </metadata>
  <g
     id="layer1"
     inkscape:label="Layer 1"
     inkscape:groupmode="layer"
     transform="translate(0,-24)">
    <rect
       style="color:#000000;fill:#47a2ec;fill-opacity:1;fill-rule:nonzero;stroke:none;stroke-width:1.39999998;marker:none;visibility:visible;display:inline;overflow:visible;enable-background:accumulate"
       id="rect817"
       width="22"
       height="22"
       x="1"
       y="24.999983"
       ry="3.0515654" />
    <path
       style="color:#000000;fill:#0e5187;fill-opacity:1;fill-rule:nonzero;stroke:none;stroke-width:1.39999998;marker:none;visibility:visible;display:inline;overflow:visible;enable-background:accumulate"
       d="M 4.0555556,25 C 2.3649882,25 1,26.365 1,28.0556 l 0,15.8888 c 0,0.9975 0.4865291,1.8501 1.2222222,2.4063 C 1.7055265,45.8045 1.3819444,45.1028 1.3819444,44.2882 l 0,-15.8889 c 0,-1.6906 1.3649884,-3.0555 3.0555556,-3.0555 l 15.888888,0 c 0.739624,0 1.382634,0.2528 1.909724,0.6875 C 21.677701,25.3966 20.860169,25 19.944444,25 L 4.0555556,25 Z"
       id="rect3992"
       inkscape:connector-curvature="0" />
    <g
       style="font-size:20px;font-style:normal;font-variant:normal;font-weight:bold;font-stretch:normal;line-height:125%;letter-spacing:0px;word-spacing:0px;fill:#ffffff;fill-opacity:1;stroke:none;font-family:Helvetica;-inkscape-font-specification:Helvetica Bold"
       id="text984">
      <path
         d="m 5.9099999,43.18 0,-14.36 6.3400001,0 q 3.24,0 4.74,2.4 1.1,1.76 1.1,4.44 0,2.9 -1.2,4.9 -1.56,2.62 -4.76,2.62 L 5.9099999,43.18 z m 2.92,-11.88 0.02,9.4 2.9200001,0 q 1.68,0 2.54,-1.52 0.72,-1.28 0.72,-3.3 0,-2.8 -1.18,-3.88 -0.76,-0.7 -2.14,-0.7 L 8.8299999,31.3 Z"
         style="fill:#ffffff;fill-opacity:1"
         id="path989" />
    </g>
  </g>
</svg>
