<?xml version="1.0" encoding="UTF-8" standalone="no"?>
<!-- Created with Inkscape (http://www.inkscape.org/) -->

<svg
   xmlns:dc="http://purl.org/dc/elements/1.1/"
   xmlns:cc="http://creativecommons.org/ns#"
   xmlns:rdf="http://www.w3.org/1999/02/22-rdf-syntax-ns#"
   xmlns:svg="http://www.w3.org/2000/svg"
   xmlns="http://www.w3.org/2000/svg"
   xmlns:sodipodi="http://sodipodi.sourceforge.net/DTD/sodipodi-0.dtd"
   xmlns:inkscape="http://www.inkscape.org/namespaces/inkscape"
   width="24"
   height="24"
   id="svg2"
   version="1.1"
   inkscape:version="0.48+devel r12012"
   sodipodi:docname="emblem-web.svg">
  <defs
     id="defs4" />
  <sodipodi:namedview
     id="base"
     pagecolor="#ffffff"
     bordercolor="#666666"
     borderopacity="1.0"
     inkscape:pageopacity="0.0"
     inkscape:pageshadow="2"
     inkscape:zoom="4.1875"
     inkscape:cx="-17.50189"
     inkscape:cy="26.078635"
     inkscape:document-units="px"
     inkscape:current-layer="layer1"
     showgrid="false"
     inkscape:window-width="1366"
     inkscape:window-height="718"
     inkscape:window-x="0"
     inkscape:window-y="28"
     inkscape:window-maximized="1"
     showguides="true"
     inkscape:guide-bbox="true" />
  <metadata
     id="metadata7">
    <rdf:RDF>
      <cc:Work
         rdf:about="">
        <dc:format>image/svg+xml</dc:format>
        <dc:type
           rdf:resource="http://purl.org/dc/dcmitype/StillImage" />
        <dc:title></dc:title>
      </cc:Work>
    </rdf:RDF>
  </metadata>
  <g
     inkscape:label="Capa 1"
     inkscape:groupmode="layer"
     id="layer1"
     transform="translate(0,-1028.3622)">
    <g
       transform="translate(0,1.7382813e-5)"
       id="g846">
      <rect
         ry="3.0515654"
         y="1029.3622"
         x="1"
         height="22"
         width="22"
         id="rect817"
         style="color:#000000;fill:#333333;fill-opacity:1;fill-rule:nonzero;stroke:none;stroke-width:1.39999998;marker:none;visibility:visible;display:inline;overflow:visible;enable-background:accumulate" />
      <path
         inkscape:connector-curvature="0"
         id="rect3992"
         d="M 4.0555556,1029.3622 C 2.3649882,1029.3622 1,1030.7272 1,1032.4178 l 0,15.8888 c 0,0.9975 0.4865291,1.8501 1.2222222,2.4063 -0.5166957,-0.5462 -0.8402778,-1.2479 -0.8402778,-2.0625 l 0,-15.8889 c 0,-1.6906 1.3649884,-3.0555 3.0555556,-3.0555 l 15.888888,0 c 0.739624,0 1.382634,0.2528 1.909724,0.6875 -0.558411,-0.6347 -1.375943,-1.0313 -2.291668,-1.0313 L 4.0555556,1029.3622 Z"
         style="color:#000000;fill:#000000;fill-opacity:0.8851064;fill-rule:nonzero;stroke:none;stroke-width:1.39999998;marker:none;visibility:visible;display:inline;overflow:visible;enable-background:accumulate" />
    </g>
    <path
       style="fill:#ffffff"
       d="m 11.532722,1033.3623 c -0.595132,0.046 -1.169487,0.1658 -1.7136223,0.3515 -0.5950951,0.8206 -1.3302509,2.0054 -1.3302509,2.2248 0,0.019 0.1805669,0.04 0.4711306,0.051 l 2.5727426,0 L 11.532722,1033.3623 z m 1.094685,0 0,2.6271 2.568124,0 c 0.290563,-0.013 0.471131,-0.032 0.471131,-0.051 0,-0.2338 -0.726082,-1.4186 -1.311775,-2.2202 C 13.806499,1033.5303 13.227404,1033.4091 12.627407,1033.3623 z m 3.87528,1.5495 c 0.108904,0.3599 0.209697,0.7184 0.295612,1.0777 l 0.771361,0 C 17.253617,1035.5923 16.896231,1035.2321 16.502687,1034.9118 z m -8.8821965,0.036 c -0.3762275,0.3109 -0.7213286,0.6586 -1.0254019,1.0407 l 0.7344095,0 C 7.4146165,1035.6438 7.5133566,1035.2963 7.6204905,1034.9489 z m -1.7413354,2.1369 c -0.4516705,0.8539 -0.7347272,1.8091 -0.7990745,2.826 l 1.7413356,0 c 0.00103,-0.056 -0.0015,-0.1112 0,-0.1664 l 0.00461,-0.1757 c 5.62e-5,-0.012 0.00426,-0.027 0.00461,-0.036 0.031662,-0.8109 0.1192807,-1.6268 0.2678979,-2.4469 L 5.8791551,1037.0857 z m 2.2217038,0 c -0.2122503,0.9444 -0.3545828,1.8852 -0.4110844,2.826 l 3.8429475,0 0,-2.826 L 8.1008589,1037.0857 z m 4.5265481,0 0,2.826 3.861424,0 c -0.02521,-0.8401 -0.118914,-1.6848 -0.281755,-2.5347 -0.03281,-0.1136 -0.06616,-0.2148 -0.097,-0.2913 L 12.627407,1037.0857 z m 4.397219,0 c 0.09548,0.5442 0.163028,1.09 0.207851,1.6328 0.0016,0.012 0.0029,0.021 0.0047,0.033 0.01768,0.1277 0.03071,0.2506 0.04157,0.3609 l 0.0739,0.8001 1.72748,0 c -0.06435,-1.0173 -0.347348,-1.9722 -0.799076,-2.8261 L 17.024626,1037.0857 z m -11.9214507,3.9269 c 0.093781,1.018 0.4021467,1.9757 0.882215,2.8214 l 1.1963022,0 c -0.1573096,-0.7847 -0.2673805,-1.5707 -0.3233249,-2.3635 -0.021225,-0.1591 -0.036458,-0.2914 -0.036952,-0.3608 l 0,-0.097 L 5.1031753,1041.0126 z m 2.5588857,0 c 0.0043,0.4305 0.027719,0.8606 0.069284,1.2905 0.066157,0.4325 0.1294586,0.8131 0.1570435,0.8927 0.036705,0.1054 0.1000908,0.3352 0.1385679,0.5135 l 0.023094,0.1247 3.4826716,0 0,-2.8214 L 7.662061,1041.0126 z m 4.965346,0 0,2.8214 3.381055,0 c 0.06949,-0.1191 0.145248,-0.3296 0.221708,-0.583 0.136536,-0.7418 0.223656,-1.4891 0.254042,-2.2384 L 12.627407,1041.0126 z m 4.702068,0 0,0.2266 c -0.0012,0.1984 -0.06967,0.6578 -0.161662,1.1424 -2.96e-4,0 2.96e-4,0 0,0.012 -0.05741,0.4829 -0.13689,0.9613 -0.230947,1.4431 l 1.237873,0 c 0.47997,-0.8456 0.788585,-1.8032 0.882215,-2.8214 L 17.329475,1041.0126 z m -10.5681049,3.9222 c 0.2803992,0.3269 0.5886361,0.6268 0.9237854,0.8973 -0.091596,-0.2991 -0.1762553,-0.5969 -0.254041,-0.8973 L 6.7613701,1044.935 z m 1.7459544,0 c 0.1060701,0.334 0.7576933,1.3706 1.2840623,2.0628 0.5525152,0.1912 1.1358942,0.3177 1.7413352,0.3656 l 0,-2.4284 L 8.5073245,1044.935 z m 4.1200825,0 0,2.4284 c 0.613407,-0.049 1.205197,-0.1792 1.764431,-0.3748 0.54916,-0.7067 1.198685,-1.7418 1.265586,-2.0536 L 12.627407,1044.935 z m 4.064656,0 c -0.07839,0.3111 -0.16566,0.6188 -0.258659,0.9297 0.351711,-0.2791 0.677877,-0.59 0.969975,-0.9297 L 16.692063,1044.935 Z"
       id="path883"
       inkscape:connector-curvature="0" />
  </g>
</svg>
