<?xml version="1.0" encoding="UTF-8" standalone="no"?>
<!-- Created with Inkscape (http://www.inkscape.org/) -->

<svg
   xmlns:dc="http://purl.org/dc/elements/1.1/"
   xmlns:cc="http://creativecommons.org/ns#"
   xmlns:rdf="http://www.w3.org/1999/02/22-rdf-syntax-ns#"
   xmlns:svg="http://www.w3.org/2000/svg"
   xmlns="http://www.w3.org/2000/svg"
   xmlns:xlink="http://www.w3.org/1999/xlink"
   xmlns:sodipodi="http://sodipodi.sourceforge.net/DTD/sodipodi-0.dtd"
   xmlns:inkscape="http://www.inkscape.org/namespaces/inkscape"
   width="48"
   height="48"
   id="svg6391"
   version="1.1"
   inkscape:version="0.48+devel r12012"
   sodipodi:docname="application-illustrator.svg">
  <defs
     id="defs6393">
    <linearGradient
       id="linearGradient868">
      <stop
         id="stop870"
         offset="0"
         style="stop-color:#ffd72a;stop-opacity:1" />
      <stop
         id="stop872"
         offset="1"
         style="stop-color:#ffc700;stop-opacity:1" />
    </linearGradient>
    <linearGradient
       inkscape:collect="always"
       xlink:href="#linearGradient918-1"
       id="linearGradient912"
       x1="462.37933"
       y1="837.0611"
       x2="463.75925"
       y2="835.67212"
       gradientUnits="userSpaceOnUse"
       gradientTransform="translate(57.14285,-297.14288)" />
    <linearGradient
       id="linearGradient918-1">
      <stop
         id="stop920-5"
         offset="0"
         style="stop-color:#f6f6f6;stop-opacity:1" />
      <stop
         id="stop922-7"
         offset="1"
         style="stop-color:#e2e2e2;stop-opacity:1" />
    </linearGradient>
    <linearGradient
       y2="468.35892"
       x2="314.34872"
       y1="425.61682"
       x1="314.34872"
       gradientTransform="translate(190.7961,107.43992)"
       gradientUnits="userSpaceOnUse"
       id="linearGradient887"
       xlink:href="#linearGradient868"
       inkscape:collect="always" />
    <linearGradient
       gradientTransform="translate(244.59953,107.44237)"
       inkscape:collect="always"
       xlink:href="#linearGradient6707"
       id="linearGradient1110"
       x1="262.01361"
       y1="471.95245"
       x2="262.01361"
       y2="442.7843"
       gradientUnits="userSpaceOnUse" />
    <linearGradient
       id="linearGradient6707">
      <stop
         id="stop6709"
         offset="0"
         style="stop-color:#000000;stop-opacity:1;" />
      <stop
         id="stop6711"
         offset="1"
         style="stop-color:#ffffff;stop-opacity:1;" />
    </linearGradient>
  </defs>
  <sodipodi:namedview
     id="base"
     pagecolor="#ffffff"
     bordercolor="#666666"
     borderopacity="1.0"
     inkscape:pageopacity="0.0"
     inkscape:pageshadow="2"
     inkscape:zoom="7.919596"
     inkscape:cx="5.8964889"
     inkscape:cy="25.681491"
     inkscape:document-units="px"
     inkscape:current-layer="layer1"
     showgrid="false"
     fit-margin-top="0"
     fit-margin-left="0"
     fit-margin-right="0"
     fit-margin-bottom="0"
     inkscape:window-width="1366"
     inkscape:window-height="718"
     inkscape:window-x="0"
     inkscape:window-y="28"
     inkscape:window-maximized="1" />
  <metadata
     id="metadata6396">
    <rdf:RDF>
      <cc:Work
         rdf:about="">
        <dc:format>image/svg+xml</dc:format>
        <dc:type
           rdf:resource="http://purl.org/dc/dcmitype/StillImage" />
        <dc:title />
      </cc:Work>
    </rdf:RDF>
  </metadata>
  <g
     inkscape:label="Capa 1"
     inkscape:groupmode="layer"
     id="layer1"
     transform="translate(-481.71429,-531.2193)">
    <path
       style="opacity:0.5;fill:#000000;fill-opacity:1;stroke:none"
       d="m 485.52679,533.12555 c -0.89692,0 -1.625,0.82132 -1.625,1.8125 l 0,40.5625 c 0,0.99119 0.72808,1.8125 1.625,1.8125 l 40.375,0 c 0.89693,0 1.625,-0.8213 1.625,-1.8125 l 0,-32 -10.40625,-10.375 L 485.52679,533.12555 Z"
       id="rect3922-2"
       inkscape:connector-curvature="0" />
    <path
       style="fill:url(#linearGradient887);fill-opacity:1;stroke:none"
       d="m 485.90179,533.68805 c -0.87415,0 -1.5625,0.78397 -1.5625,1.75 l 0,39.5625 c 0,0.96604 0.68834,1.75 1.5625,1.75 l 39.625,0 c 0.87416,0 1.5625,-0.78396 1.5625,-1.75 l 0,-31.125 -10.21875,-10.1875 L 485.90179,533.68805 Z"
       id="path869-2"
       inkscape:connector-curvature="0" />
    <path
       inkscape:connector-curvature="0"
       style="opacity:0.5;fill:#000000;fill-opacity:1;stroke:none"
       d="m 527.19978,544.0176 -10.53539,-10.50317 0,8.69895 c 0,0.99596 0.70967,1.80422 1.61092,1.80422 L 527.19978,544.0176 Z"
       id="path914" />
    <path
       id="path902"
       d="m 527.08929,543.87555 -10.21875,-10.1875 0,8.4375 c 0,0.96603 0.68834,1.75 1.5625,1.75 L 527.08929,543.87555 Z"
       style="fill:url(#linearGradient912);fill-opacity:1;stroke:none"
       inkscape:connector-curvature="0" />
    <path
       inkscape:connector-curvature="0"
       style="fill:url(#linearGradient1110);fill-opacity:1;stroke:none"
       d="m 484.33929,568.25055 0,6.75 c 0,0.96604 0.68835,1.75 1.5625,1.75 l 39.625,0 c 0.87417,0 1.5625,-0.78396 1.5625,-1.75 l 0,-6.75 L 484.33929,568.25055 Z"
       id="path874" />
    <g
       id="g855"
       transform="translate(14.142136,-2.0203051)">
      <path
         id="path2783"
         style="fill:#ececec;fill-rule:evenodd;stroke:#4d4d4d;stroke-width:1px"
         d="m 482.67747,564.69549 c 4.3862,2.8138 13.963,-0.9506 6.0011,-11.025 -7.889,-9.983 7.839,-16.5299 12.506,-4.985"
         inkscape:connector-curvature="0" />
      <rect
         id="rect3565"
         style="fill:#4d4d4d;stroke:none"
         height="3"
         width="3"
         y="563.11755"
         x="480.18448" />
      <rect
         id="rect3567"
         style="fill:#4d4d4d;stroke:none"
         height="3"
         width="3"
         y="547.11761"
         x="499.18448" />
      <path
         id="path3571"
         style="fill:none;stroke:#9f9f9f;stroke-width:1px"
         d="m 481.62247,544.59849 15.13,18.921"
         inkscape:connector-curvature="0" />
      <path
         id="path3573"
         style="fill:#e6e6e6;stroke:#9f9f9f;stroke-opacity:1"
         d="m 482.68447,544.61749 c 3.7e-4,0.5526 -0.44745,1.0007 -1,1.0007 -0.55255,0 -1.0004,-0.4481 -1,-1.0007 -3.7e-4,-0.5525 0.44745,-1.0007 1,-1.0007 C 482.23702,543.61679 482.68487,544.06489 482.68447,544.61749 Z"
         inkscape:connector-curvature="0" />
      <path
         id="path3575"
         style="fill:#e6e6e6;stroke:#9f9f9f;stroke-opacity:1"
         d="m 497.68447,563.61749 c 3.7e-4,0.5526 -0.44745,1.0007 -1,1.0007 -0.55255,0 -1.0004,-0.4481 -1,-1.0007 -3.7e-4,-0.5525 0.44745,-1.0007 1,-1.0007 C 497.23702,562.61679 497.68487,563.06489 497.68447,563.61749 Z"
         inkscape:connector-curvature="0" />
      <rect
         id="rect3569"
         style="fill:#4d4d4d;stroke:none"
         height="3"
         width="3"
         y="552.11768"
         x="487.18448" />
    </g>
    <g
       style="font-size:7.5px;font-style:normal;font-variant:normal;font-weight:bold;font-stretch:normal;line-height:125%;letter-spacing:0px;word-spacing:0px;fill:#ffffff;fill-opacity:1;stroke:none;font-family:Impact;-inkscape-font-specification:Impact Bold"
       id="text864">
      <path
         d="m 505.87726,569.53607 0.88257,5.92896 -1.57837,0 -0.0769,-1.06568 -0.55298,0 -0.0916,1.06568 -1.59668,0 0.78369,-5.92896 L 505.87726,569.53607 z m -0.81665,3.81226 q -0.11719,-1.00708 -0.23438,-2.48657 -0.23437,1.69921 -0.29297,2.48657 L 505.06061,573.34833 Z"
         style=""
         id="path958" />
      <path
         d="m 508.56525,569.53607 0,5.92896 -1.54175,0 0,-5.92896 L 508.56525,569.53607 Z"
         style=""
         id="path960" />
    </g>
  </g>
</svg>
