<?xml version="1.0" encoding="UTF-8" standalone="no"?>
<!-- Created with Inkscape (http://www.inkscape.org/) -->

<svg
   xmlns:dc="http://purl.org/dc/elements/1.1/"
   xmlns:cc="http://creativecommons.org/ns#"
   xmlns:rdf="http://www.w3.org/1999/02/22-rdf-syntax-ns#"
   xmlns:svg="http://www.w3.org/2000/svg"
   xmlns="http://www.w3.org/2000/svg"
   xmlns:xlink="http://www.w3.org/1999/xlink"
   xmlns:sodipodi="http://sodipodi.sourceforge.net/DTD/sodipodi-0.dtd"
   xmlns:inkscape="http://www.inkscape.org/namespaces/inkscape"
   width="48"
   height="48"
   id="svg4768"
   version="1.1"
   inkscape:version="0.48+devel r12012"
   sodipodi:docname="package-x-generic.svg"
   inkscape:export-filename="/home/uri/mintscicon.png"
   inkscape:export-xdpi="13.719384"
   inkscape:export-ydpi="13.719384">
  <defs
     id="defs4770">
    <linearGradient
       gradientTransform="translate(5e-6,-5e-5)"
       inkscape:collect="always"
       xlink:href="#linearGradient6707"
       id="linearGradient1110"
       x1="262.01361"
       y1="471.95245"
       x2="262.01361"
       y2="442.7843"
       gradientUnits="userSpaceOnUse" />
    <linearGradient
       id="linearGradient6707">
      <stop
         id="stop6709"
         offset="0"
         style="stop-color:#000000;stop-opacity:1;" />
      <stop
         id="stop6711"
         offset="1"
         style="stop-color:#ffffff;stop-opacity:1;" />
    </linearGradient>
    <linearGradient
       id="linearGradient1069">
      <stop
         style="stop-color:#ffffff;stop-opacity:1"
         offset="0"
         id="stop1071" />
      <stop
         style="stop-color:#e6e6e6;stop-opacity:1"
         offset="1"
         id="stop1073" />
    </linearGradient>
    <linearGradient
       y2="468.35892"
       x2="314.34872"
       y1="425.61682"
       x1="314.34872"
       gradientTransform="translate(-53.785477,-0.003684)"
       gradientUnits="userSpaceOnUse"
       id="linearGradient1882"
       xlink:href="#linearGradient1069"
       inkscape:collect="always" />
  </defs>
  <sodipodi:namedview
     id="base"
     pagecolor="#ffffff"
     bordercolor="#666666"
     borderopacity="1.0"
     inkscape:pageopacity="0.0"
     inkscape:pageshadow="2"
     inkscape:zoom="7.9999996"
     inkscape:cx="4.1575968"
     inkscape:cy="23.550512"
     inkscape:document-units="px"
     inkscape:current-layer="layer1"
     showgrid="false"
     inkscape:window-width="1366"
     inkscape:window-height="718"
     inkscape:window-x="0"
     inkscape:window-y="28"
     inkscape:window-maximized="1"
     showguides="true"
     inkscape:guide-bbox="true"
     fit-margin-top="0"
     fit-margin-left="0"
     fit-margin-right="0"
     fit-margin-bottom="0" />
  <metadata
     id="metadata4773">
    <rdf:RDF>
      <cc:Work
         rdf:about="">
        <dc:format>image/svg+xml</dc:format>
        <dc:type
           rdf:resource="http://purl.org/dc/dcmitype/StillImage" />
        <dc:title />
      </cc:Work>
    </rdf:RDF>
  </metadata>
  <g
     inkscape:label="Capa 1"
     inkscape:groupmode="layer"
     id="layer1"
     transform="translate(-237.12677,-423.77933)">
    <g
       id="g1012">
      <g
         id="g1391"
         transform="translate(-0.005935,0.00363)">
        <path
           style="opacity:0.5;fill:#000000;fill-opacity:1;stroke:none"
           d="m 240.93125,425.69371 40.4029,0 c 0.89693,0 1.619,0.79795 1.619,1.78913 l 0,40.58571 c 0,0.9912 -0.72207,1.78914 -1.619,1.78914 l -40.4029,0 c -0.89692,0 -1.61899,-0.79795 -1.61899,-1.78914 l 0,-40.58571 C 239.31226,426.49166 240.03433,425.69371 240.93125,425.69371 Z"
           id="rect3922"
           inkscape:connector-curvature="0" />
        <path
           inkscape:connector-curvature="0"
           id="path869"
           d="m 241.33547,426.25416 39.59446,0 c 0.87416,0 1.57791,0.77771 1.57791,1.74374 l 0,39.5556 c 0,0.96604 -0.70375,1.74374 -1.57791,1.74374 l -39.59446,0 c -0.87416,0 -1.5779,-0.7777 -1.5779,-1.74374 l 0,-39.5556 C 239.75757,427.03187 240.46132,426.25416 241.33547,426.25416 Z"
           style="fill:url(#linearGradient1882);fill-opacity:1;stroke:none" />
      </g>
      <g
         transform="translate(-53.791415,-5e-5)"
         id="g1503">
        <path
           style="fill:#000000;fill-opacity:1;stroke:none"
           d="m 318.94862,432.02439 -0.36479,1.97543 -0.0165,0.0614 -2.31245,4.08617 c -0.10297,0.18095 -0.0508,0.39311 0.13045,0.49566 l 1.16834,0.67503 c 0.18095,0.10297 0.39311,0.0508 0.49564,-0.13044 l 2.34535,-4.20899 1.47171,-1.31685 -0.83925,-1.90316 L 318.94862,432.02439 z m -1.32394,4.44975 c 0.0925,-0.0257 0.19396,-0.008 0.28455,0.0434 l 0.62641,0.36469 c 0.18096,0.10296 0.233,0.31446 0.13047,0.49565 l -0.67504,1.16833 c -0.10298,0.18097 -0.31446,0.233 -0.49568,0.13046 l -0.60362,-0.32629 c -0.18095,-0.10296 -0.25547,-0.35339 -0.15292,-0.53458 l 0.63616,-1.14583 C 317.42593,436.5798 317.53212,436.49979 317.62468,436.47414 Z"
           id="path3798"
           inkscape:connector-curvature="0" />
        <path
           style="fill:#000000;fill-opacity:1;stroke:none"
           d="m 325.04243,429.77974 -3.14418,0.61761 -0.95449,0.18623 0,3.79308 0.93577,0.2878 3.1629,0.61762 1.04808,-0.61762 1.47851,-1.19778 0,-1.87154 L 326.09051,430.39735 Z"
           id="rect1396"
           inkscape:connector-curvature="0"
           sodipodi:nodetypes="ccccccccccc" />
        <g
           id="g1465"
           transform="matrix(0.95351085,0,0,0.95351085,14.473848,20.094107)">
          <rect
             y="430.96652"
             x="293.58234"
             height="1.2569011"
             width="1.2569011"
             id="rect1052"
             style="fill:#000000;fill-opacity:1;stroke:none" />
          <rect
             style="fill:#000000;fill-opacity:1;stroke:none"
             id="rect1054"
             width="1.2569011"
             height="1.2569011"
             x="294.85669"
             y="432.24088" />
          <rect
             transform="scale(-1,-1)"
             style="fill:#000000;fill-opacity:1;stroke:none"
             id="rect1056"
             width="1.2569011"
             height="1.2569011"
             x="-298.64822"
             y="-433.49777" />
          <rect
             transform="scale(-1,-1)"
             y="-432.22342"
             x="-297.37387"
             height="1.2569011"
             width="1.2569011"
             id="rect1058"
             style="fill:#000000;fill-opacity:1;stroke:none" />
          <rect
             style="fill:#000000;fill-opacity:1;stroke:none"
             id="rect1060"
             width="1.2569011"
             height="1.2569011"
             x="298.65158"
             y="430.96652" />
          <rect
             y="432.24088"
             x="299.92593"
             height="1.2569011"
             width="1.2569011"
             id="rect1062"
             style="fill:#000000;fill-opacity:1;stroke:none" />
          <rect
             y="-433.49777"
             x="-303.71747"
             height="1.2569011"
             width="1.2569011"
             id="rect1064"
             style="fill:#000000;fill-opacity:1;stroke:none"
             transform="scale(-1,-1)" />
          <rect
             style="fill:#000000;fill-opacity:1;stroke:none"
             id="rect1066"
             width="1.2569011"
             height="1.2569011"
             x="-302.44312"
             y="-432.22342"
             transform="scale(-1,-1)" />
          <rect
             style="fill:#000000;fill-opacity:1;stroke:none"
             id="rect1068"
             width="1.2569011"
             height="1.2569011"
             x="303.70737"
             y="430.96652" />
          <rect
             y="432.24088"
             x="304.98172"
             height="1.2569011"
             width="1.2569011"
             id="rect1070"
             style="fill:#000000;fill-opacity:1;stroke:none" />
          <rect
             y="-433.49777"
             x="-308.77325"
             height="1.2569011"
             width="1.2569011"
             id="rect1072"
             style="fill:#000000;fill-opacity:1;stroke:none"
             transform="scale(-1,-1)" />
          <rect
             style="fill:#000000;fill-opacity:1;stroke:none"
             id="rect1074"
             width="1.2569011"
             height="1.2569011"
             x="-307.4989"
             y="-432.22342"
             transform="scale(-1,-1)" />
          <rect
             y="430.96652"
             x="308.77661"
             height="1.2569011"
             width="1.2569011"
             id="rect1076"
             style="fill:#000000;fill-opacity:1;stroke:none" />
          <rect
             style="fill:#000000;fill-opacity:1;stroke:none"
             id="rect1078"
             width="1.2569011"
             height="1.2569011"
             x="310.05096"
             y="432.24088" />
          <rect
             style="fill:#000000;fill-opacity:1;stroke:none"
             id="rect1409"
             width="1.2569011"
             height="1.2569011"
             x="311.33246"
             y="430.96652" />
          <rect
             y="432.24088"
             x="312.60681"
             height="1.2569011"
             width="1.2569011"
             id="rect1411"
             style="fill:#000000;fill-opacity:1;stroke:none" />
          <rect
             y="-433.49777"
             x="-316.39835"
             height="1.2569011"
             width="1.2569011"
             id="rect1413"
             style="fill:#000000;fill-opacity:1;stroke:none"
             transform="scale(-1,-1)" />
          <rect
             style="fill:#000000;fill-opacity:1;stroke:none"
             id="rect1415"
             width="1.2569011"
             height="1.2569011"
             x="-315.12399"
             y="-432.22342"
             transform="scale(-1,-1)" />
          <rect
             y="430.96652"
             x="316.4017"
             height="1.2569011"
             width="1.2569011"
             id="rect1417"
             style="fill:#000000;fill-opacity:1;stroke:none" />
          <rect
             style="fill:#000000;fill-opacity:1;stroke:none"
             id="rect1419"
             width="1.2569011"
             height="1.2569011"
             x="317.67606"
             y="432.24088" />
          <rect
             transform="scale(-1,-1)"
             style="fill:#000000;fill-opacity:1;stroke:none"
             id="rect1421"
             width="1.2569011"
             height="1.2569011"
             x="-321.46759"
             y="-433.49777" />
          <rect
             transform="scale(-1,-1)"
             y="-432.22342"
             x="-320.19324"
             height="1.2569011"
             width="1.2569011"
             id="rect1423"
             style="fill:#000000;fill-opacity:1;stroke:none" />
          <rect
             y="430.96652"
             x="321.45749"
             height="1.2569011"
             width="1.2569011"
             id="rect1425"
             style="fill:#000000;fill-opacity:1;stroke:none" />
          <rect
             style="fill:#000000;fill-opacity:1;stroke:none"
             id="rect1427"
             width="1.2569011"
             height="1.2569011"
             x="322.73184"
             y="432.24088" />
          <rect
             transform="scale(-1,-1)"
             style="fill:#000000;fill-opacity:1;stroke:none"
             id="rect1429"
             width="1.2569011"
             height="1.2569011"
             x="-326.52338"
             y="-433.49777" />
          <rect
             transform="scale(-1,-1)"
             y="-432.22342"
             x="-325.24902"
             height="1.2569011"
             width="1.2569011"
             id="rect1431"
             style="fill:#000000;fill-opacity:1;stroke:none" />
          <rect
             style="fill:#000000;fill-opacity:1;stroke:none"
             id="rect1433"
             width="1.2569011"
             height="1.2569011"
             x="326.52673"
             y="430.96652" />
          <rect
             y="432.24088"
             x="327.80109"
             height="1.2569011"
             width="1.2569011"
             id="rect1435"
             style="fill:#000000;fill-opacity:1;stroke:none" />
          <rect
             y="430.96652"
             x="329.00262"
             height="1.2569011"
             width="1.2569011"
             id="rect1437"
             style="fill:#000000;fill-opacity:1;stroke:none" />
          <rect
             style="fill:#000000;fill-opacity:1;stroke:none"
             id="rect1439"
             width="1.2569011"
             height="1.2569011"
             x="330.27698"
             y="432.24088" />
          <rect
             transform="scale(-1,-1)"
             style="fill:#000000;fill-opacity:1;stroke:none"
             id="rect1441"
             width="1.2569011"
             height="1.2569011"
             x="-334.06851"
             y="-433.49777" />
          <rect
             transform="scale(-1,-1)"
             y="-432.22342"
             x="-332.79416"
             height="1.2569011"
             width="1.2569011"
             id="rect1443"
             style="fill:#000000;fill-opacity:1;stroke:none" />
          <rect
             style="fill:#000000;fill-opacity:1;stroke:none"
             id="rect1445"
             width="1.2569011"
             height="1.2569011"
             x="334.07187"
             y="430.96652" />
          <rect
             y="432.24088"
             x="335.34622"
             height="1.2569011"
             width="1.2569011"
             id="rect1447"
             style="fill:#000000;fill-opacity:1;stroke:none" />
        </g>
      </g>
      <path
         id="path874"
         d="m 239.73976,460.80813 0,6.75 c 0,0.96604 0.68835,1.75 1.5625,1.75 l 39.625,0 c 0.87417,0 1.5625,-0.78396 1.5625,-1.75 l 0,-6.75 L 239.73976,460.80813 Z"
         style="fill:url(#linearGradient1110);fill-opacity:1;stroke:none"
         inkscape:connector-curvature="0" />
    </g>
  </g>
</svg>
