<?xml version="1.0" encoding="UTF-8" standalone="no"?>
<!-- Created with Inkscape (http://www.inkscape.org/) -->

<svg
   xmlns:dc="http://purl.org/dc/elements/1.1/"
   xmlns:cc="http://creativecommons.org/ns#"
   xmlns:rdf="http://www.w3.org/1999/02/22-rdf-syntax-ns#"
   xmlns:svg="http://www.w3.org/2000/svg"
   xmlns="http://www.w3.org/2000/svg"
   xmlns:xlink="http://www.w3.org/1999/xlink"
   xmlns:sodipodi="http://sodipodi.sourceforge.net/DTD/sodipodi-0.dtd"
   xmlns:inkscape="http://www.inkscape.org/namespaces/inkscape"
   width="48"
   height="48"
   id="svg4424"
   version="1.1"
   inkscape:version="0.48+devel r11721"
   sodipodi:docname="libreoffice-oasis-database.svg">
  <defs
     id="defs4426">
    <linearGradient
       y2="468.35892"
       x2="314.34872"
       y1="425.61682"
       x1="314.34872"
       gradientTransform="translate(-290.91819,580.58282)"
       gradientUnits="userSpaceOnUse"
       id="linearGradient887"
       xlink:href="#linearGradient1069-5"
       inkscape:collect="always" />
    <linearGradient
       id="linearGradient1069-5">
      <stop
         style="stop-color:#de87aa;stop-opacity:1"
         offset="0"
         id="stop1071-6" />
      <stop
         style="stop-color:#c83771;stop-opacity:1"
         offset="1"
         id="stop1073-0" />
    </linearGradient>
    <linearGradient
       inkscape:collect="always"
       xlink:href="#linearGradient918-1"
       id="linearGradient912"
       x1="462.37933"
       y1="837.0611"
       x2="463.75925"
       y2="835.67212"
       gradientUnits="userSpaceOnUse"
       gradientTransform="translate(-424.57144,176.00002)" />
    <linearGradient
       id="linearGradient918-1">
      <stop
         id="stop920-5"
         offset="0"
         style="stop-color:#f6f6f6;stop-opacity:1" />
      <stop
         id="stop922-7"
         offset="1"
         style="stop-color:#e2e2e2;stop-opacity:1" />
    </linearGradient>
    <linearGradient
       gradientTransform="translate(-237.11476,580.58527)"
       inkscape:collect="always"
       xlink:href="#linearGradient6707"
       id="linearGradient1110"
       x1="262.01361"
       y1="471.95245"
       x2="262.01361"
       y2="442.7843"
       gradientUnits="userSpaceOnUse" />
    <linearGradient
       id="linearGradient6707">
      <stop
         id="stop6709"
         offset="0"
         style="stop-color:#000000;stop-opacity:1;" />
      <stop
         id="stop6711"
         offset="1"
         style="stop-color:#ffffff;stop-opacity:1;" />
    </linearGradient>
  </defs>
  <sodipodi:namedview
     id="base"
     pagecolor="#ffffff"
     bordercolor="#666666"
     borderopacity="1.0"
     inkscape:pageopacity="0.0"
     inkscape:pageshadow="2"
     inkscape:zoom="15.839192"
     inkscape:cx="32.523582"
     inkscape:cy="13.844788"
     inkscape:document-units="px"
     inkscape:current-layer="layer1"
     showgrid="false"
     inkscape:window-width="1366"
     inkscape:window-height="746"
     inkscape:window-x="0"
     inkscape:window-y="0"
     inkscape:window-maximized="1" />
  <metadata
     id="metadata4429">
    <rdf:RDF>
      <cc:Work
         rdf:about="">
        <dc:format>image/svg+xml</dc:format>
        <dc:type
           rdf:resource="http://purl.org/dc/dcmitype/StillImage" />
        <dc:title />
      </cc:Work>
    </rdf:RDF>
  </metadata>
  <g
     inkscape:label="Capa 1"
     inkscape:groupmode="layer"
     id="layer1"
     transform="translate(0,-1004.3622)">
    <path
       style="opacity:0.5;fill:#000000;fill-opacity:1;stroke:none"
       d="m 3.8125,1006.2685 c -0.89692,0 -1.625,0.8213 -1.625,1.8125 l 0,40.5625 c 0,0.9911 0.72808,1.8125 1.625,1.8125 l 40.375,0 c 0.89693,0 1.625,-0.8213 1.625,-1.8125 l 0,-32 -10.40625,-10.375 L 3.8125,1006.2685 Z"
       id="rect3922-2"
       inkscape:connector-curvature="0" />
    <path
       style="fill:url(#linearGradient887);fill-opacity:1;stroke:none"
       d="m 4.1875,1006.831 c -0.87415,0 -1.5625,0.7839 -1.5625,1.75 l 0,39.5625 c 0,0.966 0.68834,1.75 1.5625,1.75 l 39.625,0 c 0.87416,0 1.5625,-0.784 1.5625,-1.75 l 0,-31.125 L 35.15625,1006.831 4.1875,1006.831 Z"
       id="path869-2"
       inkscape:connector-curvature="0" />
    <path
       inkscape:connector-curvature="0"
       style="opacity:0.5;fill:#000000;fill-opacity:1;stroke:none"
       d="m 45.48549,1017.1605 -10.53539,-10.5032 0,8.699 c 0,0.9959 0.70967,1.8042 1.61092,1.8042 L 45.48549,1017.1605 Z"
       id="path914" />
    <path
       id="path902"
       d="m 45.375,1017.0185 -10.21875,-10.1875 0,8.4375 c 0,0.966 0.68834,1.75 1.5625,1.75 L 45.375,1017.0185 Z"
       style="fill:url(#linearGradient912);fill-opacity:1;stroke:none"
       inkscape:connector-curvature="0" />
    <path
       inkscape:connector-curvature="0"
       style="fill:url(#linearGradient1110);fill-opacity:1;stroke:none"
       d="m 2.6249791,1041.3935 0,6.75 c 0,0.966 0.68835,1.75 1.5625,1.75 l 39.6250099,0 c 0.87417,0 1.5625,-0.784 1.5625,-1.75 l 0,-6.75 L 2.6249791,1041.3935 Z"
       id="path874" />
    <g
       id="g6430"
       transform="matrix(4.9840616,0,0,4.9840616,-33.709821,-3999.73)">
      <path
         sodipodi:nodetypes="cccccc"
         inkscape:connector-curvature="0"
         id="path6396"
         d="m 9.8553007,1006.4134 0,4.0466 3.4471463,0 0,-2.4655 L 11.835502,1006.4063 Z"
         style="fill:none;stroke:#ffffff;stroke-width:0.40000001;stroke-linecap:butt;stroke-linejoin:miter;stroke-miterlimit:4;stroke-opacity:1;stroke-dasharray:none" />
      <path
         sodipodi:nodetypes="ccccc"
         inkscape:connector-curvature="0"
         id="path7166"
         d="m 13.496923,1007.4589 -1.146561,-1.2526 1.152085,0 L 13.502447,1007.4589 Z"
         style="fill:#ffffff;stroke:none" />
    </g>
    <g
       transform="translate(2.391549,1006.6689)"
       style="font-size:7.5px;font-style:normal;font-variant:normal;font-weight:bold;font-stretch:normal;line-height:125%;letter-spacing:0px;word-spacing:0px;fill:#ffffff;fill-opacity:1;stroke:none;font-family:Impact;-inkscape-font-specification:Impact Bold"
       id="text834">
      <path
         d="m 19.235393,39.481808 q 0,0.893554 -0.04395,1.26709 -0.04028,0.369873 -0.263672,0.67749 -0.219726,0.307617 -0.596923,0.472412 -0.377198,0.164795 -0.878907,0.164795 -0.476074,0 -0.856933,-0.153809 -0.377198,-0.15747 -0.60791,-0.46875 -0.230713,-0.311279 -0.274659,-0.67749 -0.04395,-0.366211 -0.04395,-1.281738 l 0,-1.014405 q 0,-0.893554 0.04028,-1.263427 0.04395,-0.373535 0.263672,-0.681153 0.223389,-0.307617 0.600586,-0.472412 0.377197,-0.164795 0.878906,-0.164795 0.476075,0 0.853272,0.157471 0.380859,0.153809 0.611572,0.465088 0.230713,0.311279 0.274658,0.67749 0.04395,0.366211 0.04395,1.281738 L 19.235393,39.481808 z m -1.541748,-1.948242 q 0,-0.413819 -0.04761,-0.527344 -0.04395,-0.117188 -0.186767,-0.117188 -0.12085,0 -0.186768,0.09521 -0.06226,0.09155 -0.06226,0.549317 l 0,2.768554 q 0,0.516358 0.04028,0.637207 0.04395,0.12085 0.197754,0.12085 0.157471,0 0.201416,-0.13916 0.04395,-0.13916 0.04395,-0.662842 L 17.693645,37.533566 Z"
         id="path839"
         inkscape:connector-curvature="0" />
      <path
         d="m 19.814006,36.010128 1.153564,0 q 1.116944,0 1.508789,0.102539 0.395508,0.102539 0.600586,0.336914 0.205078,0.234375 0.256348,0.523682 0.05127,0.285644 0.05127,1.127929 l 0,2.076416 q 0,0.79834 -0.0769,1.069336 -0.07324,0.267334 -0.26001,0.421143 -0.186767,0.150146 -0.461425,0.212402 -0.274659,0.05859 -0.827637,0.05859 l -1.94458,0 L 19.814006,36.010128 z m 1.541748,1.014404 0,3.900147 q 0.333252,0 0.410156,-0.131836 0.0769,-0.135498 0.0769,-0.72876 l 0,-2.303467 q 0,-0.402832 -0.02563,-0.516357 Q 21.79154,37.130733 21.699992,37.079464 21.608439,37.024532 21.355754,37.024532 Z"
         id="path841"
         inkscape:connector-curvature="0" />
      <path
         d="m 23.959514,36.010128 1.538086,0 q 0.728759,0 1.102295,0.113525 0.377197,0.113526 0.60791,0.461426 0.230713,0.344238 0.230713,1.113281 0,0.52002 -0.164795,0.725098 -0.161133,0.205078 -0.640869,0.314942 0.534667,0.120849 0.725097,0.402832 0.19043,0.27832 0.19043,0.856933 l 0,0.549317 q 0,0.600585 -0.13916,0.889892 -0.135498,0.289307 -0.435791,0.395508 -0.300293,0.106201 -1.230469,0.106201 l -1.783447,0 L 23.959514,36.010128 z m 1.541748,1.014404 0,1.31836 q 0.09888,-0.0037 0.153808,-0.0037 0.227051,0 0.289307,-0.109864 0.06226,-0.113525 0.06226,-0.640869 0,-0.27832 -0.05127,-0.388183 Q 25.904097,37.08675 25.819869,37.057453 25.739299,37.028194 25.501262,37.024532 z m 0,2.241211 0,1.658936 q 0.325927,-0.01099 0.413818,-0.102539 0.09155,-0.09155 0.09155,-0.45044 l 0,-0.552978 q 0,-0.38086 -0.08057,-0.461426 Q 25.8455,39.27673 25.501262,39.265743 Z"
         id="path843"
         inkscape:connector-curvature="0" />
    </g>
  </g>
</svg>
