<?xml version="1.0" encoding="UTF-8" standalone="no"?>
<!-- Created with Inkscape (http://www.inkscape.org/) -->

<svg
   xmlns:dc="http://purl.org/dc/elements/1.1/"
   xmlns:cc="http://creativecommons.org/ns#"
   xmlns:rdf="http://www.w3.org/1999/02/22-rdf-syntax-ns#"
   xmlns:svg="http://www.w3.org/2000/svg"
   xmlns="http://www.w3.org/2000/svg"
   xmlns:xlink="http://www.w3.org/1999/xlink"
   xmlns:sodipodi="http://sodipodi.sourceforge.net/DTD/sodipodi-0.dtd"
   xmlns:inkscape="http://www.inkscape.org/namespaces/inkscape"
   width="48"
   height="48"
   id="svg4768"
   version="1.1"
   inkscape:version="0.48+devel r12012"
   sodipodi:docname="application-x-bzip-compressed.svg"
   inkscape:export-filename="/home/uri/mintscicon.png"
   inkscape:export-xdpi="13.719384"
   inkscape:export-ydpi="13.719384">
  <defs
     id="defs4770">
    <linearGradient
       id="linearGradient1069">
      <stop
         style="stop-color:#ffffff;stop-opacity:1"
         offset="0"
         id="stop1071" />
      <stop
         style="stop-color:#e6e6e6;stop-opacity:1"
         offset="1"
         id="stop1073" />
    </linearGradient>
    <linearGradient
       gradientTransform="translate(4.9999999e-6,-5e-5)"
       inkscape:collect="always"
       xlink:href="#linearGradient6707"
       id="linearGradient1110"
       x1="262.01361"
       y1="471.95245"
       x2="262.01361"
       y2="442.7843"
       gradientUnits="userSpaceOnUse" />
    <linearGradient
       id="linearGradient6707">
      <stop
         id="stop6709"
         offset="0"
         style="stop-color:#000000;stop-opacity:1;" />
      <stop
         id="stop6711"
         offset="1"
         style="stop-color:#ffffff;stop-opacity:1;" />
    </linearGradient>
    <linearGradient
       y2="468.35892"
       x2="314.34872"
       y1="425.61682"
       x1="314.34872"
       gradientTransform="translate(-53.785477,-0.003684)"
       gradientUnits="userSpaceOnUse"
       id="linearGradient1579"
       xlink:href="#linearGradient1069"
       inkscape:collect="always" />
  </defs>
  <sodipodi:namedview
     id="base"
     pagecolor="#ffffff"
     bordercolor="#666666"
     borderopacity="1.0"
     inkscape:pageopacity="0.0"
     inkscape:pageshadow="2"
     inkscape:zoom="6.2534755"
     inkscape:cx="-8.3494049"
     inkscape:cy="27.604145"
     inkscape:document-units="px"
     inkscape:current-layer="layer1"
     showgrid="false"
     inkscape:window-width="1366"
     inkscape:window-height="718"
     inkscape:window-x="0"
     inkscape:window-y="28"
     inkscape:window-maximized="1"
     showguides="true"
     inkscape:guide-bbox="true"
     fit-margin-top="0"
     fit-margin-left="0"
     fit-margin-right="0"
     fit-margin-bottom="0" />
  <metadata
     id="metadata4773">
    <rdf:RDF>
      <cc:Work
         rdf:about="">
        <dc:format>image/svg+xml</dc:format>
        <dc:type
           rdf:resource="http://purl.org/dc/dcmitype/StillImage" />
        <dc:title />
      </cc:Work>
    </rdf:RDF>
  </metadata>
  <g
     inkscape:label="Capa 1"
     inkscape:groupmode="layer"
     id="layer1"
     transform="translate(-237.12677,-423.77933)">
    <g
       transform="translate(-0.005935,0.00363)"
       id="g1391">
      <path
         inkscape:connector-curvature="0"
         id="rect3922"
         d="m 240.93125,425.69371 40.4029,0 c 0.89693,0 1.619,0.79795 1.619,1.78913 l 0,40.58571 c 0,0.9912 -0.72207,1.78914 -1.619,1.78914 l -40.4029,0 c -0.89692,0 -1.61899,-0.79795 -1.61899,-1.78914 l 0,-40.58571 C 239.31226,426.49166 240.03433,425.69371 240.93125,425.69371 Z"
         style="opacity:0.5;fill:#000000;fill-opacity:1;stroke:none" />
      <path
         style="fill:url(#linearGradient1579);fill-opacity:1;stroke:none"
         d="m 241.33547,426.25416 39.59446,0 c 0.87416,0 1.57791,0.77771 1.57791,1.74374 l 0,39.5556 c 0,0.96604 -0.70375,1.74374 -1.57791,1.74374 l -39.59446,0 c -0.87416,0 -1.5779,-0.7777 -1.5779,-1.74374 l 0,-39.5556 C 239.75757,427.03187 240.46132,426.25416 241.33547,426.25416 Z"
         id="path869"
         inkscape:connector-curvature="0" />
    </g>
    <g
       id="g1503"
       transform="translate(-53.791415,-5e-5)">
      <path
         inkscape:connector-curvature="0"
         id="path3798"
         d="m 318.94862,432.02439 -0.36479,1.97543 -0.0165,0.0614 -2.31245,4.08617 c -0.10297,0.18095 -0.0508,0.39311 0.13045,0.49566 l 1.16834,0.67503 c 0.18095,0.10297 0.39311,0.0508 0.49564,-0.13044 l 2.34535,-4.20899 1.47171,-1.31685 -0.83925,-1.90316 L 318.94862,432.02439 z m -1.32394,4.44975 c 0.0925,-0.0257 0.19396,-0.008 0.28455,0.0434 l 0.62641,0.36469 c 0.18096,0.10296 0.233,0.31446 0.13047,0.49565 l -0.67504,1.16833 c -0.10298,0.18097 -0.31446,0.233 -0.49568,0.13046 l -0.60362,-0.32629 c -0.18095,-0.10296 -0.25547,-0.35339 -0.15292,-0.53458 l 0.63616,-1.14583 C 317.42593,436.5798 317.53212,436.49979 317.62468,436.47414 Z"
         style="fill:#000000;fill-opacity:1;stroke:none" />
      <path
         sodipodi:nodetypes="ccccccccccc"
         inkscape:connector-curvature="0"
         id="rect1396"
         d="m 325.04243,429.77974 -3.14418,0.61761 -0.95449,0.18623 0,3.79308 0.93577,0.2878 3.1629,0.61762 1.04808,-0.61762 1.47851,-1.19778 0,-1.87154 L 326.09051,430.39735 Z"
         style="fill:#000000;fill-opacity:1;stroke:none" />
      <g
         transform="matrix(0.95351085,0,0,0.95351085,14.473848,20.094107)"
         id="g1465">
        <rect
           style="fill:#000000;fill-opacity:1;stroke:none"
           id="rect1052"
           width="1.2569011"
           height="1.2569011"
           x="293.58234"
           y="430.96652" />
        <rect
           y="432.24088"
           x="294.85669"
           height="1.2569011"
           width="1.2569011"
           id="rect1054"
           style="fill:#000000;fill-opacity:1;stroke:none" />
        <rect
           y="-433.49777"
           x="-298.64822"
           height="1.2569011"
           width="1.2569011"
           id="rect1056"
           style="fill:#000000;fill-opacity:1;stroke:none"
           transform="scale(-1,-1)" />
        <rect
           style="fill:#000000;fill-opacity:1;stroke:none"
           id="rect1058"
           width="1.2569011"
           height="1.2569011"
           x="-297.37387"
           y="-432.22342"
           transform="scale(-1,-1)" />
        <rect
           y="430.96652"
           x="298.65158"
           height="1.2569011"
           width="1.2569011"
           id="rect1060"
           style="fill:#000000;fill-opacity:1;stroke:none" />
        <rect
           style="fill:#000000;fill-opacity:1;stroke:none"
           id="rect1062"
           width="1.2569011"
           height="1.2569011"
           x="299.92593"
           y="432.24088" />
        <rect
           transform="scale(-1,-1)"
           style="fill:#000000;fill-opacity:1;stroke:none"
           id="rect1064"
           width="1.2569011"
           height="1.2569011"
           x="-303.71747"
           y="-433.49777" />
        <rect
           transform="scale(-1,-1)"
           y="-432.22342"
           x="-302.44312"
           height="1.2569011"
           width="1.2569011"
           id="rect1066"
           style="fill:#000000;fill-opacity:1;stroke:none" />
        <rect
           y="430.96652"
           x="303.70737"
           height="1.2569011"
           width="1.2569011"
           id="rect1068"
           style="fill:#000000;fill-opacity:1;stroke:none" />
        <rect
           style="fill:#000000;fill-opacity:1;stroke:none"
           id="rect1070"
           width="1.2569011"
           height="1.2569011"
           x="304.98172"
           y="432.24088" />
        <rect
           transform="scale(-1,-1)"
           style="fill:#000000;fill-opacity:1;stroke:none"
           id="rect1072"
           width="1.2569011"
           height="1.2569011"
           x="-308.77325"
           y="-433.49777" />
        <rect
           transform="scale(-1,-1)"
           y="-432.22342"
           x="-307.4989"
           height="1.2569011"
           width="1.2569011"
           id="rect1074"
           style="fill:#000000;fill-opacity:1;stroke:none" />
        <rect
           style="fill:#000000;fill-opacity:1;stroke:none"
           id="rect1076"
           width="1.2569011"
           height="1.2569011"
           x="308.77661"
           y="430.96652" />
        <rect
           y="432.24088"
           x="310.05096"
           height="1.2569011"
           width="1.2569011"
           id="rect1078"
           style="fill:#000000;fill-opacity:1;stroke:none" />
        <rect
           y="430.96652"
           x="311.33246"
           height="1.2569011"
           width="1.2569011"
           id="rect1409"
           style="fill:#000000;fill-opacity:1;stroke:none" />
        <rect
           style="fill:#000000;fill-opacity:1;stroke:none"
           id="rect1411"
           width="1.2569011"
           height="1.2569011"
           x="312.60681"
           y="432.24088" />
        <rect
           transform="scale(-1,-1)"
           style="fill:#000000;fill-opacity:1;stroke:none"
           id="rect1413"
           width="1.2569011"
           height="1.2569011"
           x="-316.39835"
           y="-433.49777" />
        <rect
           transform="scale(-1,-1)"
           y="-432.22342"
           x="-315.12399"
           height="1.2569011"
           width="1.2569011"
           id="rect1415"
           style="fill:#000000;fill-opacity:1;stroke:none" />
        <rect
           style="fill:#000000;fill-opacity:1;stroke:none"
           id="rect1417"
           width="1.2569011"
           height="1.2569011"
           x="316.4017"
           y="430.96652" />
        <rect
           y="432.24088"
           x="317.67606"
           height="1.2569011"
           width="1.2569011"
           id="rect1419"
           style="fill:#000000;fill-opacity:1;stroke:none" />
        <rect
           y="-433.49777"
           x="-321.46759"
           height="1.2569011"
           width="1.2569011"
           id="rect1421"
           style="fill:#000000;fill-opacity:1;stroke:none"
           transform="scale(-1,-1)" />
        <rect
           style="fill:#000000;fill-opacity:1;stroke:none"
           id="rect1423"
           width="1.2569011"
           height="1.2569011"
           x="-320.19324"
           y="-432.22342"
           transform="scale(-1,-1)" />
        <rect
           style="fill:#000000;fill-opacity:1;stroke:none"
           id="rect1425"
           width="1.2569011"
           height="1.2569011"
           x="321.45749"
           y="430.96652" />
        <rect
           y="432.24088"
           x="322.73184"
           height="1.2569011"
           width="1.2569011"
           id="rect1427"
           style="fill:#000000;fill-opacity:1;stroke:none" />
        <rect
           y="-433.49777"
           x="-326.52338"
           height="1.2569011"
           width="1.2569011"
           id="rect1429"
           style="fill:#000000;fill-opacity:1;stroke:none"
           transform="scale(-1,-1)" />
        <rect
           style="fill:#000000;fill-opacity:1;stroke:none"
           id="rect1431"
           width="1.2569011"
           height="1.2569011"
           x="-325.24902"
           y="-432.22342"
           transform="scale(-1,-1)" />
        <rect
           y="430.96652"
           x="326.52673"
           height="1.2569011"
           width="1.2569011"
           id="rect1433"
           style="fill:#000000;fill-opacity:1;stroke:none" />
        <rect
           style="fill:#000000;fill-opacity:1;stroke:none"
           id="rect1435"
           width="1.2569011"
           height="1.2569011"
           x="327.80109"
           y="432.24088" />
        <rect
           style="fill:#000000;fill-opacity:1;stroke:none"
           id="rect1437"
           width="1.2569011"
           height="1.2569011"
           x="329.00262"
           y="430.96652" />
        <rect
           y="432.24088"
           x="330.27698"
           height="1.2569011"
           width="1.2569011"
           id="rect1439"
           style="fill:#000000;fill-opacity:1;stroke:none" />
        <rect
           y="-433.49777"
           x="-334.06851"
           height="1.2569011"
           width="1.2569011"
           id="rect1441"
           style="fill:#000000;fill-opacity:1;stroke:none"
           transform="scale(-1,-1)" />
        <rect
           style="fill:#000000;fill-opacity:1;stroke:none"
           id="rect1443"
           width="1.2569011"
           height="1.2569011"
           x="-332.79416"
           y="-432.22342"
           transform="scale(-1,-1)" />
        <rect
           y="430.96652"
           x="334.07187"
           height="1.2569011"
           width="1.2569011"
           id="rect1445"
           style="fill:#000000;fill-opacity:1;stroke:none" />
        <rect
           style="fill:#000000;fill-opacity:1;stroke:none"
           id="rect1447"
           width="1.2569011"
           height="1.2569011"
           x="335.34622"
           y="432.24088" />
      </g>
    </g>
    <path
       inkscape:connector-curvature="0"
       style="fill:url(#linearGradient1110);fill-opacity:1;stroke:none"
       d="m 239.73975,460.80813 0,6.75 c 0,0.96604 0.68835,1.75 1.5625,1.75 l 39.625,0 c 0.87417,0 1.5625,-0.78396 1.5625,-1.75 l 0,-6.75 L 239.73975,460.80813 Z"
       id="path874" />
    <g
       transform="translate(244.90815,425.7794)"
       style="font-size:7.5px;font-style:normal;font-variant:normal;font-weight:bold;font-stretch:normal;line-height:125%;letter-spacing:0px;word-spacing:0px;fill:#ffffff;fill-opacity:1;stroke:none;font-family:Impact;-inkscape-font-specification:Impact Bold"
       id="text987">
      <path
         d="m 9.9022818,36.314247 1.5380862,0 q 0.728759,0 1.102295,0.113526 0.377197,0.113525 0.60791,0.461425 0.230713,0.344239 0.230713,1.113282 0,0.520019 -0.164795,0.725097 -0.161133,0.205078 -0.640869,0.314942 0.534668,0.120849 0.725097,0.402832 0.19043,0.27832 0.19043,0.856933 l 0,0.549317 q 0,0.600586 -0.13916,0.889892 -0.135498,0.289307 -0.435791,0.395508 -0.300293,0.106201 -1.230469,0.106201 l -1.7834472,0 L 9.9022818,36.314247 z m 1.5417482,1.014404 0,1.31836 q 0.09888,-0.0037 0.153808,-0.0037 0.227051,0 0.289307,-0.109864 0.06226,-0.113525 0.06226,-0.640869 0,-0.27832 -0.05127,-0.388183 Q 11.846862,37.390907 11.762633,37.36161 11.682067,37.332314 11.44403,37.328651 z m 0,2.241211 0,1.658936 q 0.325928,-0.01099 0.413818,-0.102539 0.09155,-0.09155 0.09155,-0.45044 l 0,-0.552978 q 0,-0.380859 -0.08057,-0.461426 Q 11.788268,39.580849 11.44403,39.569862 Z"
         id="path992"
         inkscape:connector-curvature="0" />
      <path
         d="m 16.625915,36.314247 0,1.186524 -1.149903,3.555908 1.149903,0 0,1.186523 -2.841797,0 0,-0.860595 1.186523,-3.881836 -1.047363,0 0,-1.186524 L 16.625915,36.314247 Z"
         id="path994"
         inkscape:connector-curvature="0" />
      <path
         d="m 18.56317,36.314247 0,5.928955 -1.541748,0 0,-5.928955 L 18.56317,36.314247 Z"
         id="path996"
         inkscape:connector-curvature="0" />
      <path
         d="m 19.189391,36.314247 1.552735,0 q 0.629882,0 0.966796,0.09888 0.340577,0.09888 0.509034,0.285645 0.172119,0.186767 0.230712,0.454101 0.06226,0.263672 0.06226,0.820313 l 0,0.516357 q 0,0.567627 -0.117187,0.827637 -0.117188,0.26001 -0.432129,0.39917 -0.311279,0.13916 -0.81665,0.13916 l -0.413819,0 0,2.387695 -1.541748,0 L 19.189391,36.314247 z m 1.541748,1.014404 0,1.508789 q 0.06592,0.0037 0.113526,0.0037 0.212402,0 0.292968,-0.102539 0.08423,-0.106202 0.08423,-0.435791 l 0,-0.487061 q 0,-0.303955 -0.09522,-0.395508 Q 21.031432,37.328651 20.731139,37.328651 Z"
         id="path998"
         inkscape:connector-curvature="0" />
    </g>
  </g>
</svg>
