<?xml version="1.0" encoding="UTF-8" standalone="no"?>
<!-- Created with Inkscape (http://www.inkscape.org/) -->

<svg
   xmlns:dc="http://purl.org/dc/elements/1.1/"
   xmlns:cc="http://creativecommons.org/ns#"
   xmlns:rdf="http://www.w3.org/1999/02/22-rdf-syntax-ns#"
   xmlns:svg="http://www.w3.org/2000/svg"
   xmlns="http://www.w3.org/2000/svg"
   xmlns:xlink="http://www.w3.org/1999/xlink"
   xmlns:sodipodi="http://sodipodi.sourceforge.net/DTD/sodipodi-0.dtd"
   xmlns:inkscape="http://www.inkscape.org/namespaces/inkscape"
   width="48"
   height="48"
   id="svg6654"
   version="1.1"
   inkscape:version="0.48+devel r12012"
   sodipodi:docname="application-x-cd-image.svg">
  <defs
     id="defs6656">
    <linearGradient
       id="linearGradient1069">
      <stop
         style="stop-color:#ffffff;stop-opacity:1"
         offset="0"
         id="stop1071" />
      <stop
         style="stop-color:#e6e6e6;stop-opacity:1"
         offset="1"
         id="stop1073" />
    </linearGradient>
    <linearGradient
       y2="468.35892"
       x2="314.34872"
       y1="425.61682"
       x1="314.34872"
       gradientTransform="translate(-123.48961,387.43992)"
       gradientUnits="userSpaceOnUse"
       id="linearGradient1679"
       xlink:href="#linearGradient1069"
       inkscape:collect="always" />
    <linearGradient
       id="linearGradient6707">
      <stop
         id="stop6709"
         offset="0"
         style="stop-color:#000000;stop-opacity:1;" />
      <stop
         id="stop6711"
         offset="1"
         style="stop-color:#ffffff;stop-opacity:1;" />
    </linearGradient>
    <linearGradient
       y2="442.7843"
       x2="262.01361"
       y1="471.95245"
       x1="262.01361"
       gradientTransform="translate(-69.686184,387.99311)"
       gradientUnits="userSpaceOnUse"
       id="linearGradient1696"
       xlink:href="#linearGradient6707"
       inkscape:collect="always" />
  </defs>
  <sodipodi:namedview
     id="base"
     pagecolor="#ffffff"
     bordercolor="#666666"
     borderopacity="1.0"
     inkscape:pageopacity="0.0"
     inkscape:pageshadow="2"
     inkscape:zoom="5.6"
     inkscape:cx="-19.660367"
     inkscape:cy="-0.23319541"
     inkscape:document-units="px"
     inkscape:current-layer="layer1"
     showgrid="false"
     fit-margin-top="0"
     fit-margin-left="0"
     fit-margin-right="0"
     fit-margin-bottom="0"
     inkscape:window-width="1366"
     inkscape:window-height="718"
     inkscape:window-x="0"
     inkscape:window-y="28"
     inkscape:window-maximized="1" />
  <metadata
     id="metadata6659">
    <rdf:RDF>
      <cc:Work
         rdf:about="">
        <dc:format>image/svg+xml</dc:format>
        <dc:type
           rdf:resource="http://purl.org/dc/dcmitype/StillImage" />
        <dc:title />
      </cc:Work>
    </rdf:RDF>
  </metadata>
  <g
     inkscape:label="Capa 1"
     inkscape:groupmode="layer"
     id="layer1"
     transform="translate(-167.42857,-811.2193)">
    <path
       style="opacity:0.5;fill:#000000;fill-opacity:1;stroke:none"
       d="m 171.22712,813.13731 40.4029,0 c 0.89692,0 1.619,0.79795 1.619,1.78913 l 0,40.58571 c 0,0.9912 -0.72207,1.78914 -1.619,1.78914 l -40.4029,0 c -0.89692,0 -1.61899,-0.79795 -1.61899,-1.78914 l 0,-40.58571 C 169.60813,813.93526 170.33019,813.13731 171.22712,813.13731 Z"
       id="rect3922"
       inkscape:connector-curvature="0" />
    <path
       inkscape:connector-curvature="0"
       id="path869"
       d="m 171.63133,813.69776 39.59446,0 c 0.87417,0 1.57791,0.77771 1.57791,1.74374 l 0,39.5556 c 0,0.96604 -0.70375,1.74374 -1.57791,1.74374 l -39.59445,0 c -0.87416,0 -1.5779,-0.7777 -1.5779,-1.74374 l 0,-39.5556 C 170.05343,814.47547 170.75718,813.69776 171.63133,813.69776 Z"
       style="fill:url(#linearGradient1679);fill-opacity:1;stroke:none" />
    <rect
       style="opacity:0.35648151;fill:none;stroke:none"
       id="rect4543"
       width="48"
       height="48"
       x="167.42857"
       y="811.2193" />
    <g
       id="g962"
       transform="matrix(0.93220339,0,0,0.93220339,12.978208,53.232184)">
      <rect
         style="fill:none;stroke:none"
         id="rect3332"
         width="29.499998"
         height="29.499998"
         x="176.67856"
         y="820.4693" />
      <path
         transform="translate(167.42857,811.2193)"
         id="path2985"
         d="m 24,10.34375 c -7.540206,0 -13.65625,6.116044 -13.65625,13.65625 0,7.540206 6.116044,13.65625 13.65625,13.65625 7.540206,0 13.65625,-6.116044 13.65625,-13.65625 C 37.65625,16.459794 31.540206,10.34375 24,10.34375 Z M 22.71875,13.125 c 0.40794,0 0.3623,0.10711 0.375,0.21875 0.0025,0.02173 0.03025,0.0751 0.03125,0.125 l -0.25,0 c -6.4e-4,-0.0264 8.8e-4,-0.0555 0,-0.0625 -0.0063,-0.0555 0.0046,-0.09375 -0.15625,-0.09375 -0.16105,0 -0.15025,0.03795 -0.15625,0.09375 -0.002,0.0182 2e-4,0.11005 0,0.15625 -1.9e-4,0.04646 -0.002,0.1692 0,0.1875 0.0064,0.0556 -0.0046,0.0625 0.15625,0.0625 0.16069,0 0.15025,-0.0067 0.15625,-0.0625 8e-4,-0.0074 -6.4e-4,-0.0375 0,-0.0625 l 0.25,0 c -0.0014,0.04835 -0.02925,0.1037 -0.03125,0.125 C 23.08106,13.92406 23.1267,14 22.71875,14 c -0.4079,0 -0.3623,-0.07594 -0.375,-0.1875 -0.004,-0.03634 3.9e-4,-0.1571 0,-0.25 -4.1e-4,-0.09292 -0.004,-0.18205 0,-0.21875 C 22.35643,13.23211 22.31081,13.125 22.71875,13.125 z m 0.875,0 c 0.40791,0 0.39355,0.10711 0.40625,0.21875 0.004,0.03634 3.9e-4,0.12585 0,0.21875 -3.9e-4,0.09292 0.004,0.2133 0,0.25 C 23.98731,13.92406 24.0017,14 23.59375,14 23.18581,14 23.2627,13.92406 23.25,13.8125 23.2458,13.77616 23.21914,13.6554 23.21875,13.5625 23.21835,13.46958 23.246,13.38045 23.25,13.34375 23.2627,13.23211 23.18581,13.125 23.59375,13.125 z m 3.71875,0 c 0.40791,0 0.39355,0.10711 0.40625,0.21875 0.002,0.02173 -0.001,0.0751 0,0.125 l -0.21875,0 c -6.4e-4,-0.0264 7.3e-4,-0.0555 0,-0.0625 -0.0063,-0.0555 -0.02663,-0.09375 -0.1875,-0.09375 -0.16068,0 -0.118,0.03795 -0.125,0.09375 -0.002,0.0182 -0.03105,0.11005 -0.03125,0.15625 -3e-4,0.04646 0.02925,0.1692 0.03125,0.1875 0.0063,0.0556 -0.03586,0.0625 0.125,0.0625 0.16105,0 0.1805,-0.0067 0.1875,-0.0625 7.3e-4,-0.0074 -6.4e-4,-0.0375 0,-0.0625 l 0.21875,0 c -0.001,0.04835 0.002,0.1037 0,0.125 C 27.70606,13.92406 27.72045,14 27.3125,14 c -0.40793,0 -0.33105,-0.07594 -0.34375,-0.1875 -0.0041,-0.03634 -0.03086,-0.1571 -0.03125,-0.25 -5e-4,-0.09292 0.02725,-0.18205 0.03125,-0.21875 C 26.98144,13.23211 26.90456,13.125 27.3125,13.125 z m -6.09375,0.03125 0.65625,0 c 0.10105,0 0.1875,0.0865 0.1875,0.1875 l 0,3.8125 c 0,0.10105 -0.08649,0.1875 -0.1875,0.1875 l -0.3125,0 -1.34375,0 c -0.29645,0 -0.53125,-0.23487 -0.53125,-0.53125 l 0,-2.0625 c 0,-0.29646 0.2348,-0.53125 0.53125,-0.53125 l 0.75,0 c 0.0423,0 0.09375,-0.0199 0.09375,-0.0625 l 0,-0.8125 C 21.0625,13.24287 21.11774,13.15625 21.21875,13.15625 z m 2.90625,0 0.34375,0 0.1875,0.625 0.21875,-0.625 0.34375,0 0,0.84375 L 25,14 25,13.375 24.78125,14 24.5625,14 24.34375,13.375 24.34375,14 24.125,14 24.125,13.15625 z m 1.25,0 0.34375,0 c 0.40793,0 0.36,0.10748 0.375,0.21875 0.0018,0.0133 0.03125,0.06075 0.03125,0.09375 0,0.02653 -0.02925,0.1059 -0.03125,0.125 -0.0103,0.11186 0.03295,0.21875 -0.375,0.21875 l -0.125,0 0,0.1875 L 25.375,14 25.375,13.15625 z m 0.96875,0 0.3125,0 0.25,0.84375 -0.21875,0 -0.03125,-0.1875 -0.28125,0 L 26.3125,14 26.09375,14 26.34375,13.15625 z m 1.40625,0 0.625,0 0,0.21875 -0.1875,0 0,0.625 -0.21875,0 0,-0.625 -0.21875,0 L 27.75,13.15625 z m -4.15625,0.15625 c -0.16068,0 -0.119,0.03795 -0.125,0.09375 -0.002,0.0182 2e-4,0.11005 0,0.15625 -2e-4,0.04646 -0.002,0.1692 0,0.1875 0.0063,0.0556 -0.03586,0.0625 0.125,0.0625 0.16105,0 0.1815,-0.0067 0.1875,-0.0625 0.002,-0.01813 2e-4,-0.1413 0,-0.1875 -2e-4,-0.04646 0.002,-0.13785 0,-0.15625 C 23.77491,13.35075 23.75462,13.3125 23.59375,13.3125 z m -2.28125,0.03125 c -0.0423,0 -0.09375,0.0199 -0.09375,0.0625 l 0,0.8125 c 0,0.10098 -0.08649,0.1875 -0.1875,0.1875 l -0.8125,0 c -0.19446,0 -0.375,0.14925 -0.375,0.34375 l 0,2.0625 c 0,0.19443 0.18054,0.34375 0.375,0.34375 l 1.34375,0 0.25,0 c 0.0423,0 0.0625,-0.0199 0.0625,-0.0625 l 0,-3.6875 c 0,-0.0424 -0.0202,-0.0625 -0.0625,-0.0625 L 21.3125,13.34375 z m 4.28125,0 0,0.28125 0.125,0 c 0.16068,0 0.15025,-0.03795 0.15625,-0.09375 0.002,-0.0183 1.9e-4,-0.0177 0,-0.0625 -2e-4,-0.04634 0.002,-0.01295 0,-0.03125 -0.0064,-0.0555 0.0046,-0.09375 -0.15625,-0.09375 L 25.59375,13.34375 z m 0.90625,0 -0.09375,0.34375 0.1875,0 L 26.5,13.34375 z m -4,0.875 0.65625,0 c 0.10101,0 0.1875,0.0865 0.1875,0.1875 l 0,2.75 c 0,0.10105 -0.08648,0.1875 -0.1875,0.1875 l -0.34375,0 -0.3125,0 c -0.10102,0 -0.1875,-0.08643 -0.1875,-0.1875 l 0,-2.75 C 22.3125,14.30527 22.39899,14.21875 22.5,14.21875 z m 1.65625,0 1.4375,0 c 0.10102,0 0.1875,0.08651 0.1875,0.1875 l 0,0.5 c 0,0.10098 -0.0865,0.1875 -0.1875,0.1875 l -0.4375,0 -0.5625,0 c -0.06705,0 -0.125,0.0582 -0.125,0.125 0,0.06714 0.058,0.125 0.125,0.125 l 0.75,0 c 0.29643,0 0.53125,0.23487 0.53125,0.53125 l 0,0.9375 c 0,0.29645 -0.23483,0.53125 -0.53125,0.53125 l -1.5625,0 c -0.10102,0 -0.1875,-0.08643 -0.1875,-0.1875 l 0,-0.53125 c 0,-0.10097 0.08649,-0.15625 0.1875,-0.15625 l 1.09375,0 c 0.06705,0 0.125,-0.0582 0.125,-0.125 0,-0.06714 -0.058,-0.125 -0.125,-0.125 l -0.71875,0 c -0.29642,0 -0.53125,-0.23479 -0.53125,-0.53125 l 0,-0.9375 C 23.625,14.45355 23.85983,14.21875 24.15625,14.21875 z m 2.5,0 1.1875,0 c 0.29645,0 0.53125,0.2348 0.53125,0.53125 l 0,0.6875 c 0,0.10105 -0.08646,0.1875 -0.1875,0.1875 l -0.3125,0 -0.28125,0 c -0.10102,0 -0.1875,-0.08643 -0.1875,-0.1875 l 0,-0.34375 c 0,-0.11089 -0.04535,-0.21875 -0.15625,-0.21875 -0.11098,0 -0.15625,0.10785 -0.15625,0.21875 l 0,1.4375 c 0,0.11099 0.04531,0.1875 0.15625,0.1875 0.11095,0 0.15625,-0.07652 0.15625,-0.1875 l 0,-0.375 c 0,-0.10105 0.08649,-0.1875 0.1875,-0.1875 l 0.59375,0 c 0.10102,0 0.1875,0.0865 0.1875,0.1875 l 0,0.65625 c 0,0.29638 -0.23481,0.53125 -0.53125,0.53125 l -1.1875,0 c -0.29644,0 -0.5,-0.23487 -0.5,-0.53125 l 0,-2.0625 C 26.15625,14.45355 26.3598,14.21875 26.65625,14.21875 z m -4.0625,0.1875 C 22.55145,14.40625 22.5,14.4574 22.5,14.5 l 0,2.59375 c 0,0.0423 0.05135,0.0625 0.09375,0.0625 l 0.21875,0 0.25,0 c 0.0424,0 0.09375,-0.0199 0.09375,-0.0625 l 0,-2.59375 c 0,-0.0424 -0.05135,-0.09375 -0.09375,-0.09375 L 22.59375,14.40625 z m 1.5625,0 c -0.19444,0 -0.34375,0.14932 -0.34375,0.34375 l 0,0.9375 c 0,0.19443 0.14931,0.34375 0.34375,0.34375 l 0.71875,0 c 0.16672,0 0.31251,0.14582 0.3125,0.3125 0,0.16676 -0.14578,0.28125 -0.3125,0.28125 l -1,0.03125 c -0.0423,0 -0.09375,0.0199 -0.09375,0.0625 l 0,0.375 c 0,0.0423 0.05145,0.0625 0.09375,0.0625 l 1.46875,0 c 0.19444,0 0.34375,-0.14932 0.34375,-0.34375 l 0,-0.9375 c 0,-0.19436 -0.14931,-0.34375 -0.34375,-0.34375 l -0.75,0 c -0.16669,0 -0.28124,-0.14574 -0.28125,-0.3125 0,-0.16669 0.11456,-0.3125 0.28125,-0.3125 l 0.5625,0 0.34375,0 c 0.0423,0 0.09375,-0.0199 0.09375,-0.0625 l 0,-0.375 c 0,-0.0423 -0.05145,-0.0625 -0.09375,-0.0625 L 24.15625,14.40625 z m 2.5,0 c -0.19447,0 -0.3125,0.14931 -0.3125,0.34375 l 0,2.0625 c 0,0.19444 0.11803,0.34375 0.3125,0.34375 l 1.1875,0 c 0.19447,0 0.34375,-0.14931 0.34375,-0.34375 l 0,-0.5625 c 0,-0.0423 -0.0202,-0.09375 -0.0625,-0.09375 l -0.4375,0 c -0.0423,0 -0.09375,0.05115 -0.09375,0.09375 l 0,0.28125 c 0,0.21183 -0.13203,0.375 -0.34375,0.375 -0.21175,0 -0.34375,-0.16317 -0.34375,-0.375 l 0,-1.4375 c 0,-0.21176 0.132,-0.375 0.34375,-0.375 0.21173,0 0.34375,0.16324 0.34375,0.375 l 0,0.25 c 0,0.0423 0.05145,0.09375 0.09375,0.09375 l 0.1875,0 0.25,0 c 0.0423,0 0.0625,-0.05115 0.0625,-0.09375 l 0,-0.59375 c 0,-0.19444 -0.14928,-0.34375 -0.34375,-0.34375 L 26.65625,14.40625 z m -5.9375,0.3125 c 0.04594,-0.01948 0.07207,0 0.125,0 0.21175,0 0.375,0.16324 0.375,0.375 l 0,1.3125 0,0.125 c 0,0.21183 -0.16325,0.375 -0.375,0.375 -0.21171,0 -0.375,-0.16317 -0.375,-0.375 l 0,-1.4375 C 20.46875,14.93493 20.580922,14.777186 20.71875,14.71875 z m 0.125,0.15625 c -0.1109,0 -0.1875,0.10784 -0.1875,0.21875 l 0,1.4375 c 0,0.11089 0.07659,0.1875 0.1875,0.1875 0.11089,0 0.21875,-0.07659 0.21875,-0.1875 l 0,-0.125 0,-1.3125 C 21.0625,14.98286 20.95469,14.875 20.84375,14.875 z m 3.1875,5.9375 c 1.775623,0 3.21875,1.443127 3.21875,3.21875 0,1.775623 -1.443127,3.21875 -3.21875,3.21875 -1.775623,0 -3.21875,-1.443127 -3.21875,-3.21875 C 20.8125,22.255627 22.255627,20.8125 24.03125,20.8125 Z"
         style="fill:#4d4d4d;fill-opacity:1;stroke:none"
         inkscape:connector-curvature="0" />
      <path
         transform="matrix(0.67224855,0,0,0.67224855,174.19526,817.05427)"
         d="m 33.214286,27.0625 c 0,4.166791 -3.377851,7.544643 -7.544643,7.544643 -4.166791,0 -7.544643,-3.377852 -7.544643,-7.544643 0,-4.166791 3.377852,-7.544643 7.544643,-7.544643 C 29.836435,19.517857 33.214286,22.895709 33.214286,27.0625 Z"
         sodipodi:ry="7.5446429"
         sodipodi:rx="7.5446429"
         sodipodi:cy="27.0625"
         sodipodi:cx="25.669643"
         id="path3771"
         style="fill:none;stroke:#999999;stroke-width:1.60000002;stroke-miterlimit:4;stroke-opacity:1;stroke-dasharray:none"
         sodipodi:type="arc" />
      <path
         sodipodi:type="arc"
         style="fill:none;stroke:#999999;stroke-width:1.67762256;stroke-miterlimit:4;stroke-opacity:1;stroke-dasharray:none"
         id="path3773"
         sodipodi:cx="25.669643"
         sodipodi:cy="27.0625"
         sodipodi:rx="7.5446429"
         sodipodi:ry="7.5446429"
         d="m 33.214286,27.0625 c 0,4.166791 -3.377851,7.544643 -7.544643,7.544643 -4.166791,0 -7.544643,-3.377852 -7.544643,-7.544643 0,-4.166791 3.377852,-7.544643 7.544643,-7.544643 C 29.836435,19.517857 33.214286,22.895709 33.214286,27.0625 Z"
         transform="matrix(0.42613675,0,0,0.42613675,180.51286,823.7147)" />
    </g>
    <g
       id="g965"
       transform="translate(0,-0.56045)">
      <path
         id="path874"
         d="m 170.05357,848.80129 0,6.75 c 0,0.96604 0.68835,1.75 1.5625,1.75 l 39.625,0 c 0.87417,0 1.5625,-0.78396 1.5625,-1.75 l 0,-6.75 L 170.05357,848.80129 Z"
         style="fill:url(#linearGradient1696);fill-opacity:1;stroke:none"
         inkscape:connector-curvature="0" />
      <g
         id="text970"
         style="font-size:7.5px;font-style:normal;font-variant:normal;font-weight:bold;font-stretch:normal;line-height:125%;letter-spacing:0px;word-spacing:0px;fill:#ffffff;fill-opacity:1;stroke:none;font-family:Impact;-inkscape-font-specification:Impact Bold">
        <path
           id="path975"
           d="m 191.18504,852.67224 -1.54174,0 0,-1.03271 q 0,-0.45044 -0.0513,-0.56031 -0.0476,-0.11352 -0.21607,-0.11352 -0.19043,0 -0.2417,0.1355 -0.0513,0.13549 -0.0513,0.58593 l 0,2.75391 q 0,0.43213 0.0513,0.56396 0.0513,0.13184 0.23071,0.13184 0.17212,0 0.22339,-0.13184 0.0549,-0.13183 0.0549,-0.61889 l 0,-0.74341 1.54174,0 0,0.23071 q 0,0.91919 -0.13183,1.30371 -0.12818,0.38453 -0.57495,0.67383 -0.44312,0.28931 -1.09497,0.28931 -0.67749,0 -1.11695,-0.24536 -0.43945,-0.24536 -0.58227,-0.67749 -0.14283,-0.43579 -0.14283,-1.30738 l 0,-1.73217 q 0,-0.64087 0.044,-0.95948 0.0439,-0.32226 0.26001,-0.61889 0.21973,-0.29663 0.60425,-0.46509 0.38818,-0.17212 0.88989,-0.17212 0.68115,0 1.12427,0.26367 0.44311,0.26367 0.58227,0.65918 0.13916,0.39185 0.13916,1.22315 L 191.18504,852.67224 Z"
           inkscape:connector-curvature="0" />
        <path
           id="path977"
           d="m 191.74535,850.08679 1.15356,0 q 1.11694,0 1.50879,0.10254 0.39551,0.10254 0.60059,0.33692 0.20507,0.23437 0.25634,0.52368 0.0513,0.28564 0.0513,1.12793 l 0,2.07641 q 0,0.79834 -0.0769,1.06934 -0.0732,0.26733 -0.26001,0.42114 -0.18677,0.15015 -0.46143,0.2124 -0.27466,0.0586 -0.82763,0.0586 l -1.94458,0 L 191.74535,850.08679 z m 1.54174,1.01441 0,3.90014 q 0.33326,0 0.41016,-0.13183 0.0769,-0.1355 0.0769,-0.72876 l 0,-2.30347 q 0,-0.40283 -0.0256,-0.51636 -0.0256,-0.11352 -0.11719,-0.16479 Q 193.53978,851.1012 193.28709,851.1012 Z"
           inkscape:connector-curvature="0" />
      </g>
    </g>
  </g>
</svg>
