<?xml version="1.0" encoding="UTF-8" standalone="no"?>
<!-- Created with Inkscape (http://www.inkscape.org/) -->

<svg
   xmlns:dc="http://purl.org/dc/elements/1.1/"
   xmlns:cc="http://creativecommons.org/ns#"
   xmlns:rdf="http://www.w3.org/1999/02/22-rdf-syntax-ns#"
   xmlns:svg="http://www.w3.org/2000/svg"
   xmlns="http://www.w3.org/2000/svg"
   xmlns:xlink="http://www.w3.org/1999/xlink"
   xmlns:sodipodi="http://sodipodi.sourceforge.net/DTD/sodipodi-0.dtd"
   xmlns:inkscape="http://www.inkscape.org/namespaces/inkscape"
   width="48"
   height="48"
   id="svg6391"
   version="1.1"
   inkscape:version="0.48+devel r12012"
   sodipodi:docname="text-x-bak.svg">
  <defs
     id="defs6393">
    <linearGradient
       id="linearGradient836">
      <stop
         id="stop838"
         offset="0"
         style="stop-color:#b7c8be;stop-opacity:1" />
      <stop
         id="stop840"
         offset="1"
         style="stop-color:#536c5d;stop-opacity:1" />
    </linearGradient>
    <linearGradient
       inkscape:collect="always"
       xlink:href="#linearGradient918-1"
       id="linearGradient912"
       x1="462.37933"
       y1="837.0611"
       x2="463.75925"
       y2="835.67212"
       gradientUnits="userSpaceOnUse"
       gradientTransform="translate(57.14285,-297.14288)" />
    <linearGradient
       id="linearGradient918-1">
      <stop
         id="stop920-5"
         offset="0"
         style="stop-color:#f6f6f6;stop-opacity:1" />
      <stop
         id="stop922-7"
         offset="1"
         style="stop-color:#e2e2e2;stop-opacity:1" />
    </linearGradient>
    <linearGradient
       y2="468.35892"
       x2="314.34872"
       y1="425.61682"
       x1="314.34872"
       gradientTransform="translate(190.7961,107.43992)"
       gradientUnits="userSpaceOnUse"
       id="linearGradient887"
       xlink:href="#linearGradient836"
       inkscape:collect="always" />
    <linearGradient
       gradientTransform="translate(244.59953,107.44237)"
       inkscape:collect="always"
       xlink:href="#linearGradient6707"
       id="linearGradient1110"
       x1="262.01361"
       y1="471.95245"
       x2="262.01361"
       y2="442.7843"
       gradientUnits="userSpaceOnUse" />
    <linearGradient
       id="linearGradient6707">
      <stop
         id="stop6709"
         offset="0"
         style="stop-color:#000000;stop-opacity:1;" />
      <stop
         id="stop6711"
         offset="1"
         style="stop-color:#ffffff;stop-opacity:1;" />
    </linearGradient>
  </defs>
  <sodipodi:namedview
     id="base"
     pagecolor="#ffffff"
     bordercolor="#666666"
     borderopacity="1.0"
     inkscape:pageopacity="0.0"
     inkscape:pageshadow="2"
     inkscape:zoom="4"
     inkscape:cx="-22.881559"
     inkscape:cy="45.930373"
     inkscape:document-units="px"
     inkscape:current-layer="layer1"
     showgrid="false"
     fit-margin-top="0"
     fit-margin-left="0"
     fit-margin-right="0"
     fit-margin-bottom="0"
     inkscape:window-width="1366"
     inkscape:window-height="718"
     inkscape:window-x="0"
     inkscape:window-y="28"
     inkscape:window-maximized="1" />
  <metadata
     id="metadata6396">
    <rdf:RDF>
      <cc:Work
         rdf:about="">
        <dc:format>image/svg+xml</dc:format>
        <dc:type
           rdf:resource="http://purl.org/dc/dcmitype/StillImage" />
        <dc:title />
      </cc:Work>
    </rdf:RDF>
  </metadata>
  <g
     inkscape:label="Capa 1"
     inkscape:groupmode="layer"
     id="layer1"
     transform="translate(-481.71429,-531.2193)">
    <path
       style="opacity:0.5;fill:#000000;fill-opacity:1;stroke:none"
       d="m 485.52679,533.12555 c -0.89692,0 -1.625,0.82132 -1.625,1.8125 l 0,40.5625 c 0,0.99119 0.72808,1.8125 1.625,1.8125 l 40.375,0 c 0.89693,0 1.625,-0.8213 1.625,-1.8125 l 0,-32 -10.40625,-10.375 L 485.52679,533.12555 Z"
       id="rect3922-2"
       inkscape:connector-curvature="0" />
    <path
       style="fill:url(#linearGradient887);fill-opacity:1;stroke:none"
       d="m 485.90179,533.68805 c -0.87415,0 -1.5625,0.78397 -1.5625,1.75 l 0,39.5625 c 0,0.96604 0.68834,1.75 1.5625,1.75 l 39.625,0 c 0.87416,0 1.5625,-0.78396 1.5625,-1.75 l 0,-31.125 -10.21875,-10.1875 L 485.90179,533.68805 Z"
       id="path869-2"
       inkscape:connector-curvature="0" />
    <path
       inkscape:connector-curvature="0"
       style="opacity:0.5;fill:#000000;fill-opacity:1;stroke:none"
       d="m 527.19978,544.0176 -10.53539,-10.50317 0,8.69895 c 0,0.99596 0.70967,1.80422 1.61092,1.80422 L 527.19978,544.0176 Z"
       id="path914" />
    <path
       id="path902"
       d="m 527.08929,543.87555 -10.21875,-10.1875 0,8.4375 c 0,0.96603 0.68834,1.75 1.5625,1.75 L 527.08929,543.87555 Z"
       style="fill:url(#linearGradient912);fill-opacity:1;stroke:none"
       inkscape:connector-curvature="0" />
    <path
       inkscape:connector-curvature="0"
       style="fill:url(#linearGradient1110);fill-opacity:1;stroke:none"
       d="m 484.33929,568.25055 0,6.75 c 0,0.96604 0.68835,1.75 1.5625,1.75 l 39.625,0 c 0.87417,0 1.5625,-0.78396 1.5625,-1.75 l 0,-6.75 L 484.33929,568.25055 Z"
       id="path874" />
    <rect
       style="fill:none;stroke:none"
       id="rect3785"
       width="48"
       height="48"
       x="423.45563"
       y="526.10254" />
    <g
       id="g3812"
       transform="matrix(0.04534429,0,0,0.04534429,502.10283,489.20973)"
       style="fill:#37483e;stroke:none">
      <path
         inkscape:connector-curvature="0"
         id="path3802"
         d="m 56.158741,1617.7293 0,-135.3604 -128.289364,0 22.332934,-38.6818 41.0541297,0 -59.4999537,-103.0569 -130.156187,0 28.36488,16.3764 -37.90806,65.6587 101.79851,176.3202 9.684027,16.7732 L -94.056043,1619.9231 Z"
         style="fill:#37483e;stroke:none" />
      <path
         style="fill:#37483e;stroke:none"
         d="m 290.22673,1300.6731 -117.22554,67.6802 64.14468,111.1018 -44.66589,0 -20.52706,-35.5539 -59.49992,103.0569 65.07809,112.7186 -6e-5,-32.7529 75.81613,0 101.79852,-176.3202 9.68401,-16.7732 L 367.23401,1429.666 Z"
         id="path3804"
         inkscape:connector-curvature="0" />
      <path
         inkscape:connector-curvature="0"
         id="path3806"
         d="m -101.71339,1228.6175 117.225538,67.6802 64.14467,-111.1018 22.332952,38.6818 -20.527092,35.5539 118.999892,0 65.07813,-112.7186 -28.36481,16.3766 -37.90807,-65.6587 -203.597073,0 -19.368019,0 L -28.505912,1097.4309 Z"
         style="fill:#37483e;stroke:none" />
    </g>
    <g
       transform="translate(486.30096,532.71503)"
       style="font-size:7.5px;font-style:normal;font-variant:normal;font-weight:bold;font-stretch:normal;line-height:125%;letter-spacing:0px;word-spacing:0px;fill:#ffffff;fill-opacity:1;stroke:none;font-family:Impact;-inkscape-font-specification:Impact Bold"
       id="text866">
      <path
         d="m 13.557617,36.821045 1.538086,0 q 0.72876,0 1.102295,0.113525 0.377197,0.113526 0.60791,0.461426 0.230713,0.344238 0.230713,1.113281 0,0.52002 -0.164795,0.725098 -0.161133,0.205078 -0.640869,0.314941 0.534668,0.12085 0.725098,0.402832 0.190429,0.278321 0.190429,0.856934 l 0,0.549316 q 0,0.600586 -0.13916,0.889893 -0.135498,0.289307 -0.435791,0.395508 Q 16.27124,42.75 15.341064,42.75 l -1.783447,0 L 13.557617,36.821045 z m 1.541748,1.014404 0,1.31836 q 0.09888,-0.0037 0.153809,-0.0037 0.227051,0 0.289306,-0.109863 0.06226,-0.113525 0.06226,-0.640869 0,-0.27832 -0.05127,-0.388184 Q 15.5022,37.897668 15.417972,37.868371 15.337402,37.839111 15.099365,37.835449 z m 0,2.241211 0,1.658936 q 0.325928,-0.01099 0.413819,-0.102539 0.09155,-0.09155 0.09155,-0.45044 l 0,-0.552978 q 0,-0.38086 -0.08057,-0.461426 Q 15.443604,40.087646 15.099365,40.07666 Z"
         id="path871"
         inkscape:connector-curvature="0" />
      <path
         d="m 20.365479,36.821045 0.882568,5.928955 -1.578369,0 -0.07691,-1.065674 -0.552978,0 -0.09155,1.065674 -1.59668,0 0.783692,-5.928955 L 20.365479,36.821045 z m -0.816651,3.812256 q -0.117187,-1.00708 -0.234375,-2.486572 -0.234375,1.699218 -0.292969,2.486572 L 19.548828,40.633301 Z"
         id="path873"
         inkscape:connector-curvature="0" />
      <path
         d="m 25.184814,36.821045 -0.882568,2.677002 0.966797,3.251953 -1.593018,0 -0.622558,-2.541504 0,2.541504 -1.541748,0 0,-5.928955 1.541748,0 0,2.303467 0.684814,-2.303467 L 25.184814,36.821045 Z"
         id="path875"
         inkscape:connector-curvature="0" />
    </g>
  </g>
</svg>
