<?xml version="1.0" encoding="UTF-8" standalone="no"?>
<!-- Created with Inkscape (http://www.inkscape.org/) -->

<svg
   xmlns:dc="http://purl.org/dc/elements/1.1/"
   xmlns:cc="http://creativecommons.org/ns#"
   xmlns:rdf="http://www.w3.org/1999/02/22-rdf-syntax-ns#"
   xmlns:svg="http://www.w3.org/2000/svg"
   xmlns="http://www.w3.org/2000/svg"
   xmlns:xlink="http://www.w3.org/1999/xlink"
   xmlns:sodipodi="http://sodipodi.sourceforge.net/DTD/sodipodi-0.dtd"
   xmlns:inkscape="http://www.inkscape.org/namespaces/inkscape"
   width="48"
   height="48"
   id="svg4224"
   version="1.1"
   inkscape:version="0.48+devel r12012"
   sodipodi:docname="application-octet-stream.svg">
  <defs
     id="defs4226">
    <linearGradient
       id="linearGradient6707">
      <stop
         id="stop6709"
         offset="0"
         style="stop-color:#000000;stop-opacity:1;" />
      <stop
         id="stop6711"
         offset="1"
         style="stop-color:#ffffff;stop-opacity:1;" />
    </linearGradient>
    <linearGradient
       gradientTransform="translate(-237.11475,580.57566)"
       y2="442.7843"
       x2="262.01361"
       y1="471.95245"
       x1="262.01361"
       gradientUnits="userSpaceOnUse"
       id="linearGradient1114"
       xlink:href="#linearGradient6707"
       inkscape:collect="always" />
  </defs>
  <sodipodi:namedview
     id="base"
     pagecolor="#ffffff"
     bordercolor="#666666"
     borderopacity="1.0"
     inkscape:pageopacity="0.0"
     inkscape:pageshadow="2"
     inkscape:zoom="5.6"
     inkscape:cx="22.260326"
     inkscape:cy="30.622436"
     inkscape:document-units="px"
     inkscape:current-layer="layer1"
     showgrid="false"
     width="0px"
     height="0px"
     fit-margin-top="0"
     fit-margin-left="0"
     fit-margin-right="0"
     fit-margin-bottom="0"
     inkscape:window-width="1366"
     inkscape:window-height="718"
     inkscape:window-x="0"
     inkscape:window-y="28"
     inkscape:window-maximized="1" />
  <metadata
     id="metadata4229">
    <rdf:RDF>
      <cc:Work
         rdf:about="">
        <dc:format>image/svg+xml</dc:format>
        <dc:type
           rdf:resource="http://purl.org/dc/dcmitype/StillImage" />
        <dc:title />
      </cc:Work>
    </rdf:RDF>
  </metadata>
  <g
     inkscape:label="Capa 1"
     inkscape:groupmode="layer"
     id="layer1"
     transform="translate(0,-1004.3622)">
    <rect
       style="opacity:0.35648151;fill:none;stroke:none"
       id="rect4543"
       width="48"
       height="48"
       x="-3.9999826"
       y="996.88452" />
    <path
       style="opacity:0.5;fill:#000000;fill-opacity:1;stroke:none"
       d="m 3.79854,1006.2802 40.4029,0 c 0.89693,0 1.619,0.798 1.619,1.7891 l 0,40.5858 c 0,0.9912 -0.72207,1.7891 -1.619,1.7891 l -40.4029,0 c -0.89692,0 -1.61899,-0.7979 -1.61899,-1.7891 l 0,-40.5858 C 2.17955,1007.0782 2.90162,1006.2802 3.79854,1006.2802 Z"
       id="rect3922"
       inkscape:connector-curvature="0" />
    <path
       style="fill:#ffffff;fill-opacity:1;stroke:none"
       d="m 4.20276,1006.8407 39.59446,0 c 0.87416,0 1.57791,0.7777 1.57791,1.7438 l 0,39.5556 c 0,0.966 -0.70375,1.7437 -1.57791,1.7437 l -39.59446,0 c -0.87416,0 -1.5779,-0.7777 -1.5779,-1.7437 l 0,-39.5556 C 2.62486,1007.6184 3.3286,1006.8407 4.20276,1006.8407 Z"
       id="rect3924"
       inkscape:connector-curvature="0" />
    <g
       style="font-size:12.5px;font-style:normal;font-variant:normal;font-weight:bold;font-stretch:normal;line-height:125%;letter-spacing:0px;word-spacing:0px;fill:#4d4d4d;fill-opacity:1;stroke:none;font-family:Consolas;-inkscape-font-specification:Consolas Bold"
       id="text4216">
      <path
         d="m 13.498901,1016.7631 q 0,0.9826 -0.213623,1.7578 -0.213623,0.7751 -0.628662,1.3122 -0.408935,0.531 -1.000976,0.8118 -0.592041,0.2808 -1.354981,0.2808 -0.6591795,0 -1.2145994,-0.232 -0.55542,-0.2319 -0.958252,-0.7263 -0.402832,-0.5005 -0.6286621,-1.2756 -0.2258301,-0.7752 -0.2258301,-1.8555 0,-0.9827 0.2136231,-1.7578 0.2197265,-0.7752 0.6286621,-1.3062 0.4089355,-0.5371 1.0070801,-0.8178 0.5981445,-0.2808 1.3549803,-0.2808 0.65918,0 1.2146,0.2319 0.55542,0.232 0.952148,0.7264 0.402832,0.4943 0.628662,1.2695 Q 13.498901,1015.6766 13.498901,1016.7631 z m -4.7241207,0.024 q 0,0.122 0,0.2319 0,0.1038 0.012207,0.2136 l 2.9907227,-2.1606 q -0.213623,-0.6043 -0.567627,-0.8911 -0.3479,-0.293 -0.823975,-0.293 -0.341796,0 -0.6347652,0.177 -0.2929688,0.1709 -0.5126953,0.531 -0.2136231,0.3601 -0.3417969,0.9033 Q 8.7747803,1016.0428 8.7747803,1016.7875 z m 3.2226567,0.024 q 0,-0.1038 -0.0061,-0.2075 -0.0061,-0.1099 -0.0061,-0.2075 l -2.9724116,2.1484 q 0.1953125,0.592 0.5493164,0.8789 0.3540039,0.2869 0.8239742,0.2869 0.341797,0 0.634766,-0.177 0.299072,-0.177 0.512695,-0.531 0.219727,-0.3602 0.341797,-0.9034 Q 11.997437,1017.5504 11.997437,1016.8119 Z"
         style=""
         id="path4818" />
      <path
         d="m 14.762329,1020.7853 0,-1.3245 2.032471,0 0,-5.1269 -1.77002,0.9765 -0.488281,-1.2146 2.532959,-1.3366 1.251221,0 0,6.7016 1.751709,0 0,1.3245 L 14.762329,1020.7853 Z"
         style=""
         id="path4820" />
      <path
         d="m 27.268433,1016.7631 q 0,0.9826 -0.213623,1.7578 -0.213623,0.7751 -0.628663,1.3122 -0.408935,0.531 -1.000976,0.8118 -0.592041,0.2808 -1.354981,0.2808 -0.659179,0 -1.214599,-0.232 -0.55542,-0.2319 -0.958252,-0.7263 -0.402832,-0.5005 -0.628662,-1.2756 -0.22583,-0.7752 -0.22583,-1.8555 0,-0.9827 0.213623,-1.7578 0.219726,-0.7752 0.628662,-1.3062 0.408935,-0.5371 1.00708,-0.8178 0.598144,-0.2808 1.35498,-0.2808 0.65918,0 1.2146,0.2319 0.55542,0.232 0.952148,0.7264 0.402832,0.4943 0.628663,1.2695 Q 27.268433,1015.6766 27.268433,1016.7631 z m -4.724121,0.024 q 0,0.122 0,0.2319 0,0.1038 0.01221,0.2136 l 2.990722,-2.1606 q -0.213623,-0.6043 -0.567627,-0.8911 -0.3479,-0.293 -0.823974,-0.293 -0.341797,0 -0.634766,0.177 -0.292969,0.1709 -0.512695,0.531 -0.213623,0.3601 -0.341797,0.9033 Q 22.544312,1016.0428 22.544312,1016.7875 z m 3.222656,0.024 q 0,-0.1038 -0.0061,-0.2075 -0.0061,-0.1099 -0.0061,-0.2075 l -2.972412,2.1484 q 0.195312,0.592 0.549316,0.8789 0.354004,0.2869 0.823975,0.2869 0.341797,0 0.634765,-0.177 0.299073,-0.177 0.512696,-0.531 0.219726,-0.3602 0.341796,-0.9034 Q 25.766968,1017.5504 25.766968,1016.8119 Z"
         style=""
         id="path4822" />
      <path
         d="m 28.53186,1020.7853 0,-1.3245 2.032471,0 0,-5.1269 -1.770019,0.9765 -0.488282,-1.2146 2.532959,-1.3366 1.251221,0 0,6.7016 1.751709,0 0,1.3245 L 28.53186,1020.7853 Z"
         style=""
         id="path4824" />
      <path
         d="m 35.416626,1020.7853 0,-1.3245 2.032471,0 0,-5.1269 -1.77002,0.9765 -0.488281,-1.2146 2.532959,-1.3366 1.251221,0 0,6.7016 1.751709,0 0,1.3245 L 35.416626,1020.7853 Z"
         style=""
         id="path4826" />
      <path
         d="m 13.498901,1032.3881 q 0,0.9826 -0.213623,1.7578 -0.213623,0.7751 -0.628662,1.3122 -0.408935,0.531 -1.000976,0.8118 -0.592041,0.2808 -1.354981,0.2808 -0.6591795,0 -1.2145994,-0.232 -0.55542,-0.2319 -0.958252,-0.7263 -0.402832,-0.5005 -0.6286621,-1.2756 -0.2258301,-0.7752 -0.2258301,-1.8555 0,-0.9827 0.2136231,-1.7578 0.2197265,-0.7752 0.6286621,-1.3062 0.4089355,-0.5371 1.0070801,-0.8178 0.5981445,-0.2808 1.3549803,-0.2808 0.65918,0 1.2146,0.2319 0.55542,0.232 0.952148,0.7264 0.402832,0.4943 0.628662,1.2695 Q 13.498901,1031.3016 13.498901,1032.3881 z m -4.7241207,0.024 q 0,0.122 0,0.2319 0,0.1038 0.012207,0.2136 l 2.9907227,-2.1606 q -0.213623,-0.6043 -0.567627,-0.8911 -0.3479,-0.293 -0.823975,-0.293 -0.341796,0 -0.6347652,0.177 -0.2929688,0.1709 -0.5126953,0.531 -0.2136231,0.3601 -0.3417969,0.9033 Q 8.7747803,1031.6678 8.7747803,1032.4125 z m 3.2226567,0.024 q 0,-0.1038 -0.0061,-0.2075 -0.0061,-0.1099 -0.0061,-0.2075 l -2.9724116,2.1484 q 0.1953125,0.592 0.5493164,0.8789 0.3540039,0.2869 0.8239742,0.2869 0.341797,0 0.634766,-0.177 0.299072,-0.177 0.512695,-0.531 0.219727,-0.3602 0.341797,-0.9034 Q 11.997437,1033.1754 11.997437,1032.4369 Z"
         style=""
         id="path4828" />
      <path
         d="m 14.762329,1036.4103 0,-1.3245 2.032471,0 0,-5.1269 -1.77002,0.9765 -0.488281,-1.2146 2.532959,-1.3366 1.251221,0 0,6.7016 1.751709,0 0,1.3245 L 14.762329,1036.4103 Z"
         style=""
         id="path4830" />
      <path
         d="m 27.268433,1032.3881 q 0,0.9826 -0.213623,1.7578 -0.213623,0.7751 -0.628663,1.3122 -0.408935,0.531 -1.000976,0.8118 -0.592041,0.2808 -1.354981,0.2808 -0.659179,0 -1.214599,-0.232 -0.55542,-0.2319 -0.958252,-0.7263 -0.402832,-0.5005 -0.628662,-1.2756 -0.22583,-0.7752 -0.22583,-1.8555 0,-0.9827 0.213623,-1.7578 0.219726,-0.7752 0.628662,-1.3062 0.408935,-0.5371 1.00708,-0.8178 0.598144,-0.2808 1.35498,-0.2808 0.65918,0 1.2146,0.2319 0.55542,0.232 0.952148,0.7264 0.402832,0.4943 0.628663,1.2695 Q 27.268433,1031.3016 27.268433,1032.3881 z m -4.724121,0.024 q 0,0.122 0,0.2319 0,0.1038 0.01221,0.2136 l 2.990722,-2.1606 q -0.213623,-0.6043 -0.567627,-0.8911 -0.3479,-0.293 -0.823974,-0.293 -0.341797,0 -0.634766,0.177 -0.292969,0.1709 -0.512695,0.531 -0.213623,0.3601 -0.341797,0.9033 Q 22.544312,1031.6678 22.544312,1032.4125 z m 3.222656,0.024 q 0,-0.1038 -0.0061,-0.2075 -0.0061,-0.1099 -0.0061,-0.2075 l -2.972412,2.1484 q 0.195312,0.592 0.549316,0.8789 0.354004,0.2869 0.823975,0.2869 0.341797,0 0.634765,-0.177 0.299073,-0.177 0.512696,-0.531 0.219726,-0.3602 0.341796,-0.9034 Q 25.766968,1033.1754 25.766968,1032.4369 Z"
         style=""
         id="path4832" />
      <path
         d="m 28.53186,1036.4103 0,-1.3245 2.032471,0 0,-5.1269 -1.770019,0.9765 -0.488282,-1.2146 2.532959,-1.3366 1.251221,0 0,6.7016 1.751709,0 0,1.3245 L 28.53186,1036.4103 Z"
         style=""
         id="path4834" />
      <path
         d="m 35.416626,1036.4103 0,-1.3245 2.032471,0 0,-5.1269 -1.77002,0.9765 -0.488281,-1.2146 2.532959,-1.3366 1.251221,0 0,6.7016 1.751709,0 0,1.3245 L 35.416626,1036.4103 Z"
         style=""
         id="path4836" />
    </g>
    <path
       inkscape:connector-curvature="0"
       style="fill:url(#linearGradient1114);fill-opacity:1;stroke:none"
       d="m 2.624995,1041.3838 0,6.75 c 0,0.966 0.68834,1.75 1.5625,1.75 l 39.625,0 c 0.87416,0 1.5625,-0.784 1.5625,-1.75 l 0,-6.75 L 2.624995,1041.3838 Z"
       id="path874" />
    <g
       style="font-size:7.5px;font-style:normal;font-variant:normal;font-weight:bold;font-stretch:normal;line-height:125%;letter-spacing:0px;word-spacing:0px;fill:#ffffff;fill-opacity:1;stroke:none;font-family:Impact;-inkscape-font-specification:Impact Bold"
       id="text4857">
      <path
         d="m 19.122065,1042.6693 1.538086,0 q 0.728759,0 1.102294,0.1135 0.377198,0.1136 0.607911,0.4615 0.230712,0.3442 0.230712,1.1132 0,0.5201 -0.164794,0.7251 -0.161133,0.2051 -0.64087,0.315 0.534668,0.1208 0.725098,0.4028 0.19043,0.2783 0.19043,0.8569 l 0,0.5494 q 0,0.6006 -0.13916,0.8899 -0.135498,0.2893 -0.435791,0.3955 -0.300293,0.1062 -1.230469,0.1062 l -1.783447,0 L 19.122065,1042.6693 z m 1.541748,1.0144 0,1.3184 q 0.09888,-0 0.153808,-0 0.227051,0 0.289307,-0.1099 0.06226,-0.1135 0.06226,-0.6408 0,-0.2783 -0.05127,-0.3882 -0.05127,-0.1135 -0.135498,-0.1428 Q 20.90185,1043.6874 20.663813,1043.6837 z m 0,2.2412 0,1.659 q 0.325927,-0.011 0.413818,-0.1026 0.09155,-0.091 0.09155,-0.4504 l 0,-0.553 q 0,-0.3809 -0.08057,-0.4614 Q 21.008051,1045.9359 20.663813,1045.9249 Z"
         style=""
         id="path4862" />
      <path
         d="m 24.80932,1042.6693 0,5.929 -1.541748,0 0,-5.929 L 24.80932,1042.6693 Z"
         style=""
         id="path4864" />
      <path
         d="m 28.877924,1042.6693 0,5.929 -1.351318,0 -0.802002,-2.6953 0,2.6953 -1.289063,0 0,-5.929 1.289063,0 0.864257,2.6697 0,-2.6697 L 28.877924,1042.6693 Z"
         style=""
         id="path4866" />
    </g>
  </g>
</svg>
