<?xml version="1.0" encoding="UTF-8" standalone="no"?>
<!-- Created with Inkscape (http://www.inkscape.org/) -->

<svg
   xmlns:dc="http://purl.org/dc/elements/1.1/"
   xmlns:cc="http://creativecommons.org/ns#"
   xmlns:rdf="http://www.w3.org/1999/02/22-rdf-syntax-ns#"
   xmlns:svg="http://www.w3.org/2000/svg"
   xmlns="http://www.w3.org/2000/svg"
   xmlns:xlink="http://www.w3.org/1999/xlink"
   xmlns:sodipodi="http://sodipodi.sourceforge.net/DTD/sodipodi-0.dtd"
   xmlns:inkscape="http://www.inkscape.org/namespaces/inkscape"
   width="48"
   height="48"
   id="svg6654"
   version="1.1"
   inkscape:version="0.48+devel r12012"
   sodipodi:docname="application-x-emerald-theme.svg">
  <defs
     id="defs6656">
    <linearGradient
       id="linearGradient971">
      <stop
         id="stop973"
         offset="0"
         style="stop-color:#71c837;stop-opacity:1" />
      <stop
         id="stop975"
         offset="1"
         style="stop-color:#225500;stop-opacity:1" />
    </linearGradient>
    <linearGradient
       y2="468.35892"
       x2="314.34872"
       y1="425.61682"
       x1="314.34872"
       gradientTransform="translate(-123.48961,387.43992)"
       gradientUnits="userSpaceOnUse"
       id="linearGradient1679"
       xlink:href="#linearGradient971"
       inkscape:collect="always" />
    <linearGradient
       id="linearGradient6707">
      <stop
         id="stop6709"
         offset="0"
         style="stop-color:#000000;stop-opacity:1;" />
      <stop
         id="stop6711"
         offset="1"
         style="stop-color:#ffffff;stop-opacity:1;" />
    </linearGradient>
    <linearGradient
       y2="442.7843"
       x2="262.01361"
       y1="471.95245"
       x1="262.01361"
       gradientTransform="translate(-69.686184,387.43266)"
       gradientUnits="userSpaceOnUse"
       id="linearGradient1696"
       xlink:href="#linearGradient6707"
       inkscape:collect="always" />
  </defs>
  <sodipodi:namedview
     id="base"
     pagecolor="#ffffff"
     bordercolor="#666666"
     borderopacity="1.0"
     inkscape:pageopacity="0.0"
     inkscape:pageshadow="2"
     inkscape:zoom="7.9195959"
     inkscape:cx="-18.123554"
     inkscape:cy="30.288657"
     inkscape:document-units="px"
     inkscape:current-layer="text1330"
     showgrid="false"
     fit-margin-top="0"
     fit-margin-left="0"
     fit-margin-right="0"
     fit-margin-bottom="0"
     inkscape:window-width="1366"
     inkscape:window-height="718"
     inkscape:window-x="0"
     inkscape:window-y="28"
     inkscape:window-maximized="1" />
  <metadata
     id="metadata6659">
    <rdf:RDF>
      <cc:Work
         rdf:about="">
        <dc:format>image/svg+xml</dc:format>
        <dc:type
           rdf:resource="http://purl.org/dc/dcmitype/StillImage" />
        <dc:title />
      </cc:Work>
    </rdf:RDF>
  </metadata>
  <g
     inkscape:label="Capa 1"
     inkscape:groupmode="layer"
     id="layer1"
     transform="translate(-167.42857,-811.2193)">
    <path
       style="opacity:0.5;fill:#000000;fill-opacity:1;stroke:none"
       d="m 171.22712,813.13731 40.4029,0 c 0.89692,0 1.619,0.79795 1.619,1.78913 l 0,40.58571 c 0,0.9912 -0.72207,1.78914 -1.619,1.78914 l -40.4029,0 c -0.89692,0 -1.61899,-0.79795 -1.61899,-1.78914 l 0,-40.58571 C 169.60813,813.93526 170.33019,813.13731 171.22712,813.13731 Z"
       id="rect3922"
       inkscape:connector-curvature="0" />
    <path
       inkscape:connector-curvature="0"
       id="path869"
       d="m 171.63133,813.69776 39.59446,0 c 0.87417,0 1.57791,0.77771 1.57791,1.74374 l 0,39.5556 c 0,0.96604 -0.70375,1.74374 -1.57791,1.74374 l -39.59445,0 c -0.87416,0 -1.5779,-0.7777 -1.5779,-1.74374 l 0,-39.5556 C 170.05343,814.47547 170.75718,813.69776 171.63133,813.69776 Z"
       style="fill:url(#linearGradient1679);fill-opacity:1.0;stroke:none" />
    <rect
       style="opacity:0.35648151;fill:none;stroke:none"
       id="rect4543"
       width="48"
       height="48"
       x="167.42857"
       y="811.2193" />
    <path
       inkscape:connector-curvature="0"
       style="fill:url(#linearGradient1696);fill-opacity:1;stroke:none"
       d="m 170.05357,848.24084 0,6.75 c 0,0.96604 0.68835,1.75 1.5625,1.75 l 39.625,0 c 0.87417,0 1.5625,-0.78396 1.5625,-1.75 l 0,-6.75 L 170.05357,848.24084 Z"
       id="path874" />
    <g
       id="g1122"
       transform="translate(0,72.142857)"
       style="fill:#000000">
      <path
         sodipodi:nodetypes="cccc"
         inkscape:connector-curvature="0"
         id="polygon27"
         d="M 187.089,187.54 175.00599,102.74623 140.42585,146.58055 Z"
         style="fill:#000000;fill-opacity:0.52571429;fill-rule:evenodd"
         transform="matrix(0.1091782,0,0,0.1091782,180.39827,819.04704)" />
      <path
         id="polygon38"
         transform="translate(167.42857,811.2193)"
         d="M 20.3125,21.25 17.4375,29.375 33.40625,28.3125 23.34375,27.5 23.25,27.53125 20.3125,21.25 Z"
         style="fill:#000000;fill-opacity:0.52571429;fill-rule:evenodd"
         inkscape:connector-curvature="0" />
      <polygon
         style="fill:#000000;fill-opacity:0.52571429;fill-rule:evenodd"
         id="polygon68"
         transform="matrix(0.09683971,0,0,0.09701355,182.12813,820.82527)"
         points="58.33,120.01 140.2,146.18 119,63.14 " />
      <path
         sodipodi:nodetypes="cccc"
         inkscape:connector-curvature="0"
         id="polygon96"
         d="M 166.5,0.77 136.81789,16.518647 112.50197,-0.78110866 Z"
         style="fill:#000000;fill-opacity:0.52571429;fill-rule:evenodd"
         transform="matrix(0.1091782,0,0,0.1091782,180.39827,819.04704)" />
      <path
         style="fill:#000000;fill-opacity:0.52571429;fill-rule:evenodd"
         id="path111"
         inkscape:connector-curvature="0"
         d="m 180.61007,830.03583 1.25556,3.56139 5.45563,-1.224 6.22862,-5.78863 1.75777,-5.58326 -2.76778,-1.95429 -4.70558,1.76104 c -1.48253,1.37893 -4.35938,4.10729 -4.46309,4.1586 C 183.26856,825.01909 181.47149,828.41562 180.61007,830.03583 Z" />
      <path
         transform="translate(167.42857,811.2193)"
         id="path169"
         d="m 27.8125,9.75 6.25,5.0625 c -0.01723,0.04601 -0.01091,0.11411 -0.03125,0.15625 -0.06689,0.13859 -0.151834,0.271917 -0.21875,0.40625 L 26.15625,15.34375 31.25,18.5 l 0.03125,0.03125 0.8125,0.5 c 0.732686,-1.042317 1.291302,-2.272381 1.71875,-3.40625 l 0.28125,-0.53125 -0.78125,11.78125 0.0625,1.34375 1.15625,-15.3125 0.03125,-0.125 c 0.01902,-0.178245 0.0252,-0.353248 0.03125,-0.53125 0.01814,-0.533392 -0.0264,-1.064432 -0.15625,-1.5625 L 27.8125,9.75 Z"
         style="fill:#000000;fill-opacity:0.52571429;fill-rule:evenodd"
         inkscape:connector-curvature="0" />
      <path
         style="fill:#000000;fill-opacity:0.52571429;fill-rule:evenodd"
         id="path206"
         inkscape:connector-curvature="0"
         d="m 181.8558,833.58849 -0.47274,5.62922 c 0.89198,1.21843 2.11915,1.32433 3.40636,1.22935 C 183.85813,838.12921 181.99773,833.49459 181.8558,833.58849 Z" />
      <path
         sodipodi:nodetypes="cccc"
         inkscape:connector-curvature="0"
         id="polygon109"
         d="M 0,158.09 14.840843,132.63748 -0.38498185,102.80008 Z"
         style="fill:#000000;fill-opacity:0.52571429;fill-rule:evenodd"
         transform="matrix(0.10909286,-0.00431598,0.00431598,0.10909286,179.64902,819.21488)" />
    </g>
    <g
       transform="translate(169.31761,812.9489)"
       style="font-size:7.5px;font-style:normal;font-variant:normal;font-weight:bold;font-stretch:normal;line-height:125%;letter-spacing:0px;word-spacing:0px;fill:#ffffff;fill-opacity:1;stroke:none;font-family:Impact;-inkscape-font-specification:Impact Bold"
       id="text1330">
      <g
         transform="translate(2.0374251,-0.3165505)"
         style="font-weight:normal;fill:#ffffff;font-family:Impact;-inkscape-font-specification:Impact"
         id="text1096">
        <path
           d="m 7.1261468,36.894012 2.5708008,0 0,1.186524 -1.0290528,0 0,1.124267 0.9631348,0 0,1.12793 -0.9631348,0 0,1.303711 1.1315918,0 0,1.186524 -2.6733398,0 L 7.1261468,36.894012 Z"
           id="path1101"
           inkscape:connector-curvature="0" />
        <path
           d="m 15.003344,36.894012 0,5.928956 -1.347656,0 0,-4.002686 -0.53833,4.002686 -0.955811,0 -0.567627,-3.911133 0,3.911133 -1.347656,0 0,-5.928956 1.99585,0 q 0.08789,0.534668 0.186767,1.259766 l 0.212403,1.508789 0.351562,-2.768555 L 15.003344,36.894012 Z"
           id="path1103"
           inkscape:connector-curvature="0" />
        <path
           d="m 15.622241,36.894012 2.5708,0 0,1.186524 -1.029052,0 0,1.124267 0.963134,0 0,1.12793 -0.963134,0 0,1.303711 1.131591,0 0,1.186524 -2.673339,0 L 15.622241,36.894012 Z"
           id="path1105"
           inkscape:connector-curvature="0" />
        <path
           d="m 18.742358,36.894012 1.091308,0 q 1.091309,0 1.47583,0.08423 0.388184,0.08423 0.629883,0.432129 0.245362,0.344238 0.245362,1.102295 0,0.692138 -0.17212,0.930176 -0.172119,0.238037 -0.67749,0.285644 0.457764,0.113525 0.615235,0.303955 0.15747,0.19043 0.194091,0.351563 0.04028,0.15747 0.04028,0.875244 l 0,1.563721 -1.431885,0 0,-1.970215 q 0,-0.476075 -0.07691,-0.5896 -0.07324,-0.113525 -0.391845,-0.113525 l 0,2.67334 -1.541748,0 L 18.742358,36.894012 z m 1.541748,1.014405 0,1.318359 q 0.26001,0 0.362549,-0.06958 0.106201,-0.07324 0.106201,-0.465088 l 0,-0.325928 q 0,-0.281982 -0.102539,-0.369873 Q 20.55144,37.908417 20.284106,37.908417 Z"
           id="path1107"
           inkscape:connector-curvature="0" />
        <path
           d="m 25.44768,36.894012 0.882568,5.928956 -1.578369,0 -0.0769,-1.065674 -0.552979,0 -0.09155,1.065674 -1.59668,0 0.783691,-5.928956 L 25.44768,36.894012 z m -0.81665,3.812256 q -0.117188,-1.00708 -0.234375,-2.486572 -0.234375,1.699219 -0.292969,2.486572 L 24.63103,40.706268 Z"
           id="path1109"
           inkscape:connector-curvature="0" />
        <path
           d="m 28.135668,36.894012 0,4.742432 0.9375,0 0,1.186524 -2.479248,0 0,-5.928956 L 28.135668,36.894012 Z"
           id="path1111"
           inkscape:connector-curvature="0" />
        <path
           d="m 29.450366,36.894012 1.153564,0 q 1.116943,0 1.508789,0.10254 0.395508,0.102539 0.600586,0.336914 0.205078,0.234375 0.256348,0.523681 0.05127,0.285645 0.05127,1.12793 l 0,2.076416 q 0,0.79834 -0.0769,1.069336 -0.07324,0.267334 -0.26001,0.421142 -0.186767,0.150147 -0.461426,0.212403 -0.274658,0.05859 -0.827636,0.05859 l -1.94458,0 L 29.450366,36.894012 z m 1.541748,1.014405 0,3.900146 q 0.333252,0 0.410156,-0.131836 0.0769,-0.135498 0.0769,-0.728759 l 0,-2.303467 q 0,-0.402832 -0.02564,-0.516358 Q 31.4279,38.014618 31.336343,37.963348 31.244799,37.908417 30.992114,37.908417 Z"
           id="path1113"
           inkscape:connector-curvature="0" />
      </g>
    </g>
    <path
       inkscape:connector-curvature="0"
       style="fill:#ffffff;fill-opacity:0.50285716;stroke:none"
       d="m 197.24039,821.20141 -4.48645,0.0533 2.18609,1.43962 L 197.24039,821.20141 z m 1.88141,0.0914 -2.58219,1.47009 4.79113,0.2666 L 199.1218,821.29283 z m -7.9903,1.87381 c -0.63802,0.0363 -1.40249,0.25382 -2.25464,0.67791 -2.72689,1.35703 -5.29389,4.27479 -5.73564,6.51257 -0.44174,2.23777 1.40918,2.949 4.13606,1.59197 2.72689,-1.35704 5.29389,-4.26719 5.73564,-6.50497 C 193.31662,823.90565 192.53519,823.08681 191.1315,823.16662 z m 4.02182,0.38845 -1.47771,3.81614 6.40593,-0.0914 L 195.15332,823.55509 z m 1.57672,0.0989 4.69209,3.68665 0.0685,-3.27534 L 196.73004,823.65411 z m 4.39504,4.48643 -6.39833,0.0989 4.64641,3.13823 L 201.12508,828.14054 z m -7.78463,0.34277 c -4.34299,4.23571 -5.20865,5.79483 -10.43535,6.18505 -0.95409,-0.2096 -1.03555,-2.03883 -1.47771,-3.19917 l -0.0609,7.38854 c 0.0859,0.48913 0.71207,1.94454 2.80308,2.33843 5.29901,0.18407 10.75775,-0.28318 16.21669,-0.73885 0.61508,-3.40613 0.57823,-6.92302 0.73886,-10.40489 -2.3531,3.65242 -4.99231,6.21103 -7.75416,8.3102 l 0.67792,-0.67792 4.85967,-5.75847 L 193.34045,828.48331 Z"
       id="path1098" />
  </g>
</svg>
