<?xml version="1.0" encoding="UTF-8" standalone="no"?>
<!-- Created with Inkscape (http://www.inkscape.org/) -->

<svg
   xmlns:dc="http://purl.org/dc/elements/1.1/"
   xmlns:cc="http://creativecommons.org/ns#"
   xmlns:rdf="http://www.w3.org/1999/02/22-rdf-syntax-ns#"
   xmlns:svg="http://www.w3.org/2000/svg"
   xmlns="http://www.w3.org/2000/svg"
   xmlns:xlink="http://www.w3.org/1999/xlink"
   xmlns:sodipodi="http://sodipodi.sourceforge.net/DTD/sodipodi-0.dtd"
   xmlns:inkscape="http://www.inkscape.org/namespaces/inkscape"
   width="48"
   height="48"
   id="svg6389"
   version="1.1"
   inkscape:version="0.48+devel r11731"
   sodipodi:docname="application-vnd.oasis.opendocument.formula.svg">
  <defs
     id="defs6391">
    <linearGradient
       gradientTransform="translate(90.418334,-122.87094)"
       inkscape:collect="always"
       xlink:href="#linearGradient6707"
       id="linearGradient1110"
       x1="262.01361"
       y1="471.95245"
       x2="262.01361"
       y2="442.7843"
       gradientUnits="userSpaceOnUse" />
    <linearGradient
       id="linearGradient6707">
      <stop
         id="stop6709"
         offset="0"
         style="stop-color:#000000;stop-opacity:1;" />
      <stop
         id="stop6711"
         offset="1"
         style="stop-color:#ffffff;stop-opacity:1;" />
    </linearGradient>
    <linearGradient
       y2="468.35892"
       x2="314.34872"
       y1="425.61682"
       x1="314.34872"
       gradientTransform="translate(36.6149,-122.87339)"
       gradientUnits="userSpaceOnUse"
       id="linearGradient887"
       xlink:href="#linearGradient1069-5"
       inkscape:collect="always" />
    <linearGradient
       id="linearGradient1069-5">
      <stop
         style="stop-color:#ffffff;stop-opacity:1"
         offset="0"
         id="stop1071-6" />
      <stop
         style="stop-color:#e6e6e6;stop-opacity:1"
         offset="1"
         id="stop1073-0" />
    </linearGradient>
    <linearGradient
       inkscape:collect="always"
       xlink:href="#linearGradient918-1"
       id="linearGradient912"
       x1="462.37933"
       y1="837.0611"
       x2="463.75925"
       y2="835.67212"
       gradientUnits="userSpaceOnUse" />
    <linearGradient
       id="linearGradient918-1">
      <stop
         id="stop920-5"
         offset="0"
         style="stop-color:#f6f6f6;stop-opacity:1" />
      <stop
         id="stop922-7"
         offset="1"
         style="stop-color:#e2e2e2;stop-opacity:1" />
    </linearGradient>
  </defs>
  <sodipodi:namedview
     id="base"
     pagecolor="#ffffff"
     bordercolor="#666666"
     borderopacity="1.0"
     inkscape:pageopacity="0.0"
     inkscape:pageshadow="2"
     inkscape:zoom="7.919596"
     inkscape:cx="11.313338"
     inkscape:cy="28.462036"
     inkscape:document-units="px"
     inkscape:current-layer="layer1"
     showgrid="false"
     fit-margin-top="0"
     fit-margin-left="0"
     fit-margin-right="0"
     fit-margin-bottom="0"
     inkscape:window-width="1366"
     inkscape:window-height="746"
     inkscape:window-x="0"
     inkscape:window-y="0"
     inkscape:window-maximized="1" />
  <metadata
     id="metadata6394">
    <rdf:RDF>
      <cc:Work
         rdf:about="">
        <dc:format>image/svg+xml</dc:format>
        <dc:type
           rdf:resource="http://purl.org/dc/dcmitype/StillImage" />
        <dc:title></dc:title>
      </cc:Work>
    </rdf:RDF>
  </metadata>
  <g
     inkscape:label="Capa 1"
     inkscape:groupmode="layer"
     id="layer1"
     transform="translate(-327.53309,-301.05235)">
    <path
       style="opacity:0.5;fill:#000000;fill-opacity:1;stroke:none"
       d="m 331.34559,302.9586 c -0.89692,0 -1.625,0.82132 -1.625,1.8125 l 0,40.5625 c 0,0.99119 0.72808,1.8125 1.625,1.8125 l 40.375,0 c 0.89693,0 1.625,-0.8213 1.625,-1.8125 l 0,-32 -10.40625,-10.375 L 331.34559,302.9586 Z"
       id="rect3922-2"
       inkscape:connector-curvature="0" />
    <path
       style="fill:url(#linearGradient887);fill-opacity:1;stroke:none"
       d="m 331.72059,303.37474 c -0.87415,0 -1.5625,0.78397 -1.5625,1.75 l 0,39.5625 c 0,0.96604 0.68834,1.75 1.5625,1.75 l 39.625,0 c 0.87416,0 1.5625,-0.78396 1.5625,-1.75 l 0,-31.125 -10.21875,-10.1875 L 331.72059,303.37474 Z"
       id="path869-2"
       inkscape:connector-curvature="0" />
    <path
       inkscape:connector-curvature="0"
       style="fill:url(#linearGradient1110);fill-opacity:1;stroke:none"
       d="m 330.15809,337.93724 0,6.75 c 0,0.96604 0.68835,1.75 1.5625,1.75 l 39.625,0 c 0.87417,0 1.5625,-0.78396 1.5625,-1.75 l 0,-6.75 L 330.15809,337.93724 Z"
       id="path874" />
    <path
       style="fill:#000000;stroke:none"
       d="M 4.1875 2.46875 C 3.31335 2.46875 2.625 3.25272 2.625 4.21875 L 2.625 7.15625 L 39.84375 7.15625 L 35.15625 2.46875 L 4.1875 2.46875 z "
       transform="translate(327.53309,301.05235)"
       id="rect7260" />
    <g
       transform="translate(-97.03835,-527.30983)"
       id="g851">
      <path
         id="path914"
         d="m 470.05693,841.16048 -10.53539,-10.50317 0,8.69895 c 0,0.99596 0.70967,1.80422 1.61092,1.80422 L 470.05693,841.16048 Z"
         style="opacity:0.5;fill:#000000;fill-opacity:1;stroke:none"
         inkscape:connector-curvature="0" />
      <path
         inkscape:connector-curvature="0"
         style="fill:url(#linearGradient912);fill-opacity:1;stroke:none"
         d="m 469.94644,841.01843 -10.21875,-10.1875 0,8.4375 c 0,0.96603 0.68834,1.75 1.5625,1.75 L 469.94644,841.01843 Z"
         id="path902" />
    </g>
    <g
       style="font-size:12.5px;font-style:normal;font-variant:normal;font-weight:bold;font-stretch:normal;line-height:125%;letter-spacing:0px;word-spacing:0px;fill:#4d4d4d;fill-opacity:1;stroke:none;font-family:Impact;-inkscape-font-specification:Impact Bold"
       id="text868">
      <path
         d="m 340.9863,314.82071 0,1.28784 q -0.50659,0 -0.65918,0.0427 -0.14649,0.0427 -0.21973,0.20141 -0.0671,0.15259 -0.0671,0.87891 l 0,5.05981 q 0,0.67749 0.0549,0.84839 0.0549,0.1648 0.20142,0.21973 0.15259,0.0549 0.6897,0.0549 l 0,1.28784 -0.77515,0 q -1.07422,0 -1.58081,-0.19531 -0.50049,-0.20142 -0.66528,-0.58594 -0.15869,-0.38452 -0.15869,-1.63574 l 0,-5.04761 q 0,-1.24512 0.15869,-1.63574 0.15869,-0.39063 0.67749,-0.58594 0.5188,-0.19531 1.5686,-0.19531 L 340.9863,314.82071 Z"
         style="fill:#4d4d4d"
         id="path887" />
      <path
         d="m 346.49167,314.82071 1.47095,9.88159 -2.63062,0 -0.12817,-1.77612 -0.92163,0 -0.15259,1.77612 -2.66113,0 1.30615,-9.88159 L 346.49167,314.82071 z m -1.36109,6.35376 q -0.19531,-1.67847 -0.39062,-4.14429 -0.39063,2.83203 -0.48828,4.14429 L 345.13058,321.17447 Z"
         style="fill:#4d4d4d"
         id="path889" />
      <path
         d="m 348.28,319.02603 2.19116,0 0,-2.19726 1.48926,0 0,2.19726 2.20337,0 0,1.48926 -2.20337,0 0,2.18506 -1.48926,0 0,-2.18506 -2.19116,0 L 348.28,319.02603 Z"
         style="fill:#4d4d4d"
         id="path891" />
      <path
         d="m 355.06711,314.82071 2.56347,0 q 1.2146,0 1.83716,0.18921 0.62867,0.18921 1.01319,0.76904 0.38452,0.57373 0.38452,1.85547 0,0.8667 -0.27466,1.2085 -0.26855,0.34179 -1.06812,0.5249 0.89112,0.20141 1.2085,0.67139 0.31738,0.46386 0.31738,1.42822 l 0,0.91553 q 0,1.00097 -0.23193,1.48315 -0.22583,0.48218 -0.72632,0.65918 -0.50049,0.177 -2.05078,0.177 l -2.97241,0 L 355.06711,314.82071 z m 2.56958,1.69067 0,2.19727 q 0.16479,-0.006 0.25635,-0.006 0.37841,0 0.48217,-0.18311 0.10376,-0.18921 0.10376,-1.06812 0,-0.46386 -0.0854,-0.64697 -0.0855,-0.18921 -0.22583,-0.23804 Q 358.03342,316.51749 357.63669,316.51138 z m 0,3.73535 0,2.7649 q 0.54321,-0.0183 0.6897,-0.1709 0.15258,-0.15259 0.15258,-0.75073 l 0,-0.92163 q 0,-0.63477 -0.13427,-0.76905 Q 358.21042,320.26505 357.63669,320.24673 Z"
         style="fill:#4d4d4d"
         id="path894" />
      <path
         d="m 361.68332,314.82071 0.77515,0 q 1.0498,0 1.5686,0.19531 0.5188,0.19531 0.67749,0.58594 0.15869,0.39062 0.15869,1.63574 l 0,5.04761 q 0,1.25122 -0.15869,1.63574 -0.15869,0.38452 -0.66528,0.58594 -0.5066,0.19531 -1.58081,0.19531 l -0.77515,0 0,-1.28784 q 0.54321,0 0.6897,-0.0549 0.14648,-0.0549 0.20141,-0.21973 0.061,-0.1709 0.061,-0.84839 l 0,-5.05981 q 0,-0.72632 -0.0732,-0.87891 -0.0732,-0.15869 -0.22583,-0.20141 -0.14649,-0.0427 -0.65308,-0.0427 L 361.68332,314.82071 Z"
         style="fill:#4d4d4d"
         id="path896" />
    </g>
    <path
       transform="translate(327.53309,301.05235)"
       style="fill:#4d4d4d;fill-opacity:1;fill-rule:nonzero;stroke:none"
       d="m 8.3337584,24.766491 30.9359206,0 0,1.767767 L 8.3337584,26.534258 Z"
       id="rect872" />
    <g
       style="font-size:7.55711937px;font-style:normal;font-variant:normal;font-weight:bold;font-stretch:normal;line-height:125%;letter-spacing:0px;word-spacing:0px;fill:#4d4d4d;fill-opacity:1;stroke:none;font-family:Impact;-inkscape-font-specification:Impact Bold"
       id="text874">
      <path
         d="m 349.9031,332.05245 -1.32102,0 0,-0.26568 q 0,-0.33948 -0.0406,-0.42804 -0.0369,-0.0922 -0.19188,-0.0922 -0.12546,0 -0.18819,0.0849 -0.0627,0.0812 -0.0627,0.24723 0,0.22509 0.0295,0.3321 0.0332,0.10332 0.18819,0.22878 0.15867,0.12546 0.64575,0.36531 0.64944,0.31734 0.85239,0.59778 0.20295,0.28044 0.20295,0.81549 0,0.59778 -0.15498,0.90405 -0.15498,0.30258 -0.52029,0.46863 -0.36162,0.16236 -0.87453,0.16236 -0.56826,0 -0.97416,-0.17712 -0.40221,-0.17712 -0.5535,-0.4797 -0.15129,-0.30258 -0.15129,-0.91512 l 0,-0.23616 1.32102,0 0,0.30996 q 0,0.39483 0.048,0.51291 0.0517,0.11808 0.19926,0.11808 0.15867,0 0.2214,-0.0775 0.0627,-0.0812 0.0627,-0.33579 0,-0.35055 -0.0812,-0.43911 -0.0849,-0.0886 -0.86715,-0.52398 -0.65682,-0.369 -0.80073,-0.66789 -0.14391,-0.30258 -0.14391,-0.71586 0,-0.58671 0.15498,-0.86346 0.15498,-0.28044 0.52398,-0.43173 0.37269,-0.15129 0.86346,-0.15129 0.48708,0 0.82656,0.12546 0.34317,0.12177 0.52398,0.32472 0.1845,0.20295 0.2214,0.37638 0.0406,0.17343 0.0406,0.54243 L 349.9031,332.05245 Z"
         style="fill:#4d4d4d"
         id="path879" />
      <path
         d="m 351.95105,329.41041 0,0.77859 -1.53504,0 0,-0.77859 L 351.95105,329.41041 z m 0,1.07748 0,4.89663 -1.53504,0 0,-4.89663 L 351.95105,330.48789 Z"
         style="fill:#4d4d4d"
         id="path881" />
      <path
         d="m 353.999,330.48789 -0.0258,0.45018 q 0.16236,-0.26937 0.39483,-0.40221 0.23616,-0.13653 0.54243,-0.13653 0.38376,0 0.6273,0.18081 0.24354,0.18081 0.31365,0.45756 0.0701,0.27306 0.0701,0.91512 l 0,3.4317 -1.49076,0 0,-3.39111 q 0,-0.50553 -0.0332,-0.61623 -0.0332,-0.1107 -0.1845,-0.1107 -0.15867,0 -0.19926,0.12915 -0.0406,0.12546 -0.0406,0.67896 l 0,3.30993 -1.49076,0 0,-4.89663 L 353.999,330.48789 Z"
         style="fill:#4d4d4d"
         id="path883" />
    </g>
    <g
       transform="translate(320.83061,301.44487)"
       style="font-size:7.5px;font-style:normal;font-variant:normal;font-weight:bold;font-stretch:normal;line-height:125%;letter-spacing:0px;word-spacing:0px;fill:#ffffff;fill-opacity:1;stroke:none;font-family:Impact;-inkscape-font-specification:Impact Bold"
       id="text903">
      <path
         d="m 17.101402,37.777897 2.611084,0 0,1.186523 -1.069336,0 0,1.124268 0.952149,0 0,1.12793 -0.952149,0 0,2.490234 -1.541748,0 L 17.101402,37.777897 Z"
         id="path908"
         inkscape:connector-curvature="0" />
      <path
         d="m 23.612633,41.249577 q 0,0.893554 -0.04395,1.267089 -0.04028,0.369873 -0.263671,0.677491 -0.219727,0.307617 -0.596924,0.472412 -0.377198,0.164795 -0.878907,0.164795 -0.476074,0 -0.856933,-0.153809 -0.377197,-0.157471 -0.60791,-0.46875 -0.230713,-0.311279 -0.274658,-0.67749 -0.04395,-0.366211 -0.04395,-1.281738 l 0,-1.014405 q 0,-0.893554 0.04028,-1.263427 0.04395,-0.373536 0.263672,-0.681153 0.223389,-0.307617 0.600586,-0.472412 0.377198,-0.164795 0.878906,-0.164795 0.476075,0 0.853272,0.157471 0.380859,0.153808 0.611572,0.465088 0.230713,0.311279 0.274658,0.67749 0.04395,0.366211 0.04395,1.281738 L 23.612633,41.249577 z m -1.541748,-1.948243 q 0,-0.413818 -0.04761,-0.527343 -0.04395,-0.117188 -0.186767,-0.117188 -0.12085,0 -0.186768,0.09522 -0.06226,0.09155 -0.06226,0.549316 l 0,2.768555 q 0,0.516357 0.04028,0.637207 0.04395,0.12085 0.197754,0.12085 0.157471,0 0.201416,-0.13916 0.04395,-0.139161 0.04395,-0.662842 L 22.070885,39.301334 Z"
         id="path910"
         inkscape:connector-curvature="0" />
      <path
         d="m 24.191246,37.777897 1.091309,0 q 1.091308,0 1.47583,0.08423 0.388183,0.08423 0.629883,0.432129 0.245361,0.344239 0.245361,1.102295 0,0.692139 -0.172119,0.930176 -0.172119,0.238037 -0.677491,0.285645 0.457764,0.113525 0.615235,0.303955 0.157471,0.190429 0.194092,0.351562 0.04028,0.157471 0.04028,0.875244 l 0,1.563721 -1.431885,0 0,-1.970215 q 0,-0.476074 -0.0769,-0.589599 -0.07324,-0.113526 -0.391846,-0.113526 l 0,2.67334 -1.541748,0 L 24.191246,37.777897 z m 1.541748,1.014404 0,1.31836 q 0.26001,0 0.362549,-0.06958 0.106201,-0.07324 0.106201,-0.465087 l 0,-0.325928 q 0,-0.281983 -0.102539,-0.369873 Q 26.000328,38.792301 25.732994,38.792301 Z"
         id="path912"
         inkscape:connector-curvature="0" />
      <path
         d="m 32.991295,37.777897 0,5.928955 -1.347656,0 0,-4.002686 -0.53833,4.002686 -0.955811,0 -0.567627,-3.911133 0,3.911133 -1.347656,0 0,-5.928955 1.995849,0 q 0.08789,0.534668 0.186768,1.259766 l 0.212402,1.508789 0.351563,-2.768555 L 32.991295,37.777897 Z"
         id="path915"
         inkscape:connector-curvature="0" />
      <path
         d="m 37.11483,37.777897 0,3.962402 q 0,0.673828 -0.04395,0.948487 -0.04395,0.270996 -0.26001,0.560302 -0.216065,0.285645 -0.571289,0.435791 -0.351563,0.146485 -0.831299,0.146485 -0.531006,0 -0.9375,-0.175782 -0.406494,-0.175781 -0.60791,-0.457763 -0.201416,-0.281983 -0.238037,-0.593262 -0.03662,-0.314941 -0.03662,-1.318359 l 0,-3.508301 1.541748,0 0,4.445801 q 0,0.388183 0.04028,0.498047 0.04394,0.106201 0.172119,0.106201 0.146484,0 0.186768,-0.117188 0.04395,-0.120849 0.04395,-0.563965 l 0,-4.368896 L 37.11483,37.777897 Z"
         id="path917"
         inkscape:connector-curvature="0" />
      <path
         d="m 39.253502,37.777897 0,4.742432 0.9375,0 0,1.186523 -2.479248,0 0,-5.928955 L 39.253502,37.777897 Z"
         id="path919"
         inkscape:connector-curvature="0" />
      <path
         d="m 43.420982,37.777897 0.882569,5.928955 -1.578369,0 -0.0769,-1.065674 -0.552978,0 -0.09155,1.065674 -1.59668,0 0.783692,-5.928955 L 43.420982,37.777897 z m -0.81665,3.812256 q -0.117188,-1.00708 -0.234375,-2.486573 -0.234375,1.699219 -0.292969,2.486573 L 42.604332,41.590153 Z"
         id="path921"
         inkscape:connector-curvature="0" />
    </g>
  </g>
</svg>
