<?xml version="1.0" encoding="UTF-8" standalone="no"?>
<!-- Created with Inkscape (http://www.inkscape.org/) -->

<svg
   xmlns:dc="http://purl.org/dc/elements/1.1/"
   xmlns:cc="http://creativecommons.org/ns#"
   xmlns:rdf="http://www.w3.org/1999/02/22-rdf-syntax-ns#"
   xmlns:svg="http://www.w3.org/2000/svg"
   xmlns="http://www.w3.org/2000/svg"
   xmlns:xlink="http://www.w3.org/1999/xlink"
   xmlns:sodipodi="http://sodipodi.sourceforge.net/DTD/sodipodi-0.dtd"
   xmlns:inkscape="http://www.inkscape.org/namespaces/inkscape"
   width="48"
   height="48"
   id="svg6391"
   version="1.1"
   inkscape:version="0.48+devel r12022"
   sodipodi:docname="application-x-cbt.svg">
  <defs
     id="defs6393">
    <linearGradient
       id="linearGradient1069-5">
      <stop
         style="stop-color:#7ce3ff;stop-opacity:1"
         offset="0"
         id="stop1071-6" />
      <stop
         style="stop-color:#48daff;stop-opacity:1"
         offset="1"
         id="stop1073-0" />
    </linearGradient>
    <linearGradient
       inkscape:collect="always"
       xlink:href="#linearGradient918-1"
       id="linearGradient912"
       x1="462.37933"
       y1="837.0611"
       x2="463.75925"
       y2="835.67212"
       gradientUnits="userSpaceOnUse"
       gradientTransform="translate(57.14285,-297.14288)" />
    <linearGradient
       id="linearGradient918-1">
      <stop
         id="stop920-5"
         offset="0"
         style="stop-color:#f6f6f6;stop-opacity:1" />
      <stop
         id="stop922-7"
         offset="1"
         style="stop-color:#e2e2e2;stop-opacity:1" />
    </linearGradient>
    <linearGradient
       y2="468.35892"
       x2="314.34872"
       y1="425.61682"
       x1="314.34872"
       gradientTransform="translate(190.7961,107.43992)"
       gradientUnits="userSpaceOnUse"
       id="linearGradient887"
       xlink:href="#linearGradient1069-5"
       inkscape:collect="always" />
    <linearGradient
       gradientTransform="translate(244.59953,107.44237)"
       inkscape:collect="always"
       xlink:href="#linearGradient6707"
       id="linearGradient1110"
       x1="262.01361"
       y1="471.95245"
       x2="262.01361"
       y2="442.7843"
       gradientUnits="userSpaceOnUse" />
    <linearGradient
       id="linearGradient6707">
      <stop
         id="stop6709"
         offset="0"
         style="stop-color:#000000;stop-opacity:1;" />
      <stop
         id="stop6711"
         offset="1"
         style="stop-color:#ffffff;stop-opacity:1;" />
    </linearGradient>
  </defs>
  <sodipodi:namedview
     id="base"
     pagecolor="#ffffff"
     bordercolor="#666666"
     borderopacity="1.0"
     inkscape:pageopacity="0.0"
     inkscape:pageshadow="2"
     inkscape:zoom="5.6"
     inkscape:cx="7.3872862"
     inkscape:cy="33.003156"
     inkscape:document-units="px"
     inkscape:current-layer="layer1"
     showgrid="false"
     fit-margin-top="0"
     fit-margin-left="0"
     fit-margin-right="0"
     fit-margin-bottom="0"
     inkscape:window-width="1366"
     inkscape:window-height="718"
     inkscape:window-x="0"
     inkscape:window-y="28"
     inkscape:window-maximized="1" />
  <metadata
     id="metadata6396">
    <rdf:RDF>
      <cc:Work
         rdf:about="">
        <dc:format>image/svg+xml</dc:format>
        <dc:type
           rdf:resource="http://purl.org/dc/dcmitype/StillImage" />
        <dc:title></dc:title>
      </cc:Work>
    </rdf:RDF>
  </metadata>
  <g
     inkscape:label="Capa 1"
     inkscape:groupmode="layer"
     id="layer1"
     transform="translate(-481.71429,-531.2193)">
    <path
       style="opacity:0.5;fill:#000000;fill-opacity:1;stroke:none"
       d="m 485.52679,533.12555 c -0.89692,0 -1.625,0.82132 -1.625,1.8125 l 0,40.5625 c 0,0.99119 0.72808,1.8125 1.625,1.8125 l 40.375,0 c 0.89693,0 1.625,-0.8213 1.625,-1.8125 l 0,-32 -10.40625,-10.375 L 485.52679,533.12555 Z"
       id="rect3922-2"
       inkscape:connector-curvature="0" />
    <path
       style="fill:url(#linearGradient887);fill-opacity:1;stroke:none"
       d="m 485.90179,533.68805 c -0.87415,0 -1.5625,0.78397 -1.5625,1.75 l 0,39.5625 c 0,0.96604 0.68834,1.75 1.5625,1.75 l 39.625,0 c 0.87416,0 1.5625,-0.78396 1.5625,-1.75 l 0,-31.125 -10.21875,-10.1875 L 485.90179,533.68805 Z"
       id="path869-2"
       inkscape:connector-curvature="0" />
    <path
       inkscape:connector-curvature="0"
       style="opacity:0.5;fill:#000000;fill-opacity:1;stroke:none"
       d="m 527.19978,544.0176 -10.53539,-10.50317 0,8.69895 c 0,0.99596 0.70967,1.80422 1.61092,1.80422 L 527.19978,544.0176 Z"
       id="path914" />
    <path
       id="path902"
       d="m 527.08929,543.87555 -10.21875,-10.1875 0,8.4375 c 0,0.96603 0.68834,1.75 1.5625,1.75 L 527.08929,543.87555 Z"
       style="fill:url(#linearGradient912);fill-opacity:1;stroke:none"
       inkscape:connector-curvature="0" />
    <path
       inkscape:connector-curvature="0"
       style="fill:url(#linearGradient1110);fill-opacity:1;stroke:none"
       d="m 484.33929,568.25055 0,6.75 c 0,0.96604 0.68835,1.75 1.5625,1.75 l 39.625,0 c 0.87417,0 1.5625,-0.78396 1.5625,-1.75 l 0,-6.75 L 484.33929,568.25055 Z"
       id="path874" />
    <g
       transform="translate(486.84363,529.86414)"
       style="font-size:7.5px;font-style:normal;font-variant:normal;font-weight:bold;font-stretch:normal;line-height:125%;letter-spacing:0px;word-spacing:0px;fill:#ffffff;fill-opacity:1;stroke:none;font-family:Impact;-inkscape-font-specification:Impact Bold"
       id="text865">
      <path
         d="m 16.786916,42.257381 -1.541748,0 0,-1.032714 q 0,-0.45044 -0.05127,-0.560303 -0.04761,-0.113526 -0.216064,-0.113526 -0.19043,0 -0.241699,0.135499 -0.05127,0.135498 -0.05127,0.585937 l 0,2.753906 q 0,0.432129 0.05127,0.563965 0.05127,0.131836 0.230712,0.131836 0.17212,0 0.223389,-0.131836 0.05493,-0.131836 0.05493,-0.618896 l 0,-0.743409 1.541748,0 0,0.230713 q 0,0.91919 -0.131836,1.303711 -0.128174,0.384522 -0.574951,0.673828 -0.443116,0.289307 -1.094971,0.289307 -0.67749,0 -1.116943,-0.245361 -0.439454,-0.245362 -0.582276,-0.677491 -0.142822,-0.435791 -0.142822,-1.307373 l 0,-1.732177 q 0,-0.640869 0.04394,-0.959473 0.04395,-0.322266 0.26001,-0.618896 0.219727,-0.296631 0.604248,-0.465088 0.388184,-0.172119 0.889893,-0.172119 0.681152,0 1.124267,0.263671 0.443115,0.263672 0.582276,0.65918 0.13916,0.391846 0.13916,1.223145 L 16.786916,42.257381 Z"
         style="fill:#ffffff"
         id="path870"
         inkscape:connector-curvature="0" />
      <path
         d="m 17.347219,39.671932 1.538085,0 q 0.72876,0 1.102295,0.113526 0.377198,0.113525 0.607911,0.461425 0.230712,0.344239 0.230712,1.113282 0,0.520019 -0.164795,0.725097 -0.161132,0.205078 -0.640869,0.314942 0.534668,0.120849 0.725098,0.402832 0.19043,0.27832 0.19043,0.856933 l 0,0.549317 q 0,0.600586 -0.13916,0.889892 -0.135499,0.289307 -0.435791,0.395508 -0.300293,0.106201 -1.230469,0.106201 l -1.783447,0 L 17.347219,39.671932 z m 1.541748,1.014405 0,1.318359 q 0.09888,-0.0037 0.153808,-0.0037 0.227051,0 0.289307,-0.109863 0.06226,-0.113526 0.06226,-0.64087 0,-0.27832 -0.05127,-0.388183 Q 19.291799,40.748592 19.20757,40.719296 19.127004,40.689999 18.888967,40.686337 z m 0,2.24121 0,1.658936 q 0.325927,-0.01099 0.413818,-0.102539 0.09155,-0.09155 0.09155,-0.45044 l 0,-0.552978 q 0,-0.380859 -0.08057,-0.461426 Q 19.233205,42.938534 18.888967,42.927547 Z"
         style="fill:#ffffff"
         id="path872"
         inkscape:connector-curvature="0" />
      <path
         d="m 24.598195,39.671932 0,1.186524 -0.915527,0 0,4.742431 -1.541748,0 0,-4.742431 -0.911866,0 0,-1.186524 L 24.598195,39.671932 Z"
         style="fill:#ffffff"
         id="path875"
         inkscape:connector-curvature="0" />
    </g>
    <path
       style="opacity:0.95400002;color:#000000;fill:#000000;fill-opacity:1;fill-rule:nonzero;stroke:none;stroke-width:0.40000001;marker:none;visibility:visible;display:inline;overflow:visible;enable-background:accumulate"
       d="m 505.72991,542.0943 c -7.46179,0 -13.53125,4.34904 -13.53125,9.71875 0,3.12153 2.07243,5.90854 5.25,7.6875 l -1.3125,4.84375 5.5625,-3.21875 c 1.26919,0.28408 2.63216,0.4375 4.03125,0.4375 7.4618,0 13.5,-4.38029 13.5,-9.75 C 519.22991,546.44334 513.19171,542.0943 505.72991,542.0943 Z"
       id="path877"
       inkscape:connector-curvature="0" />
    <path
       style="color:#000000;fill:#ffffff;fill-opacity:1;fill-rule:nonzero;stroke:none;stroke-width:0.40000001;marker:none;visibility:visible;display:inline;overflow:visible;enable-background:accumulate"
       d="m 505.72991,543.06305 c -6.90951,0 -12.53125,3.9172 -12.53125,8.75 0,2.93537 2.07916,5.56886 5.25,7.15625 l -1.375,4.03125 4.6875,-2.875 c 1.24795,0.29202 2.58032,0.4375 3.96875,0.4375 6.90953,0 12.5,-3.9172 12.5,-8.75 C 518.22991,546.98025 512.63944,543.06305 505.72991,543.06305 Z"
       id="path879"
       inkscape:connector-curvature="0" />
    <path
       sodipodi:type="arc"
       style="color:#000000;fill:#000000;fill-opacity:1;fill-rule:nonzero;stroke:none;stroke-width:0.40000001;marker:none;visibility:visible;display:inline;overflow:visible;enable-background:accumulate"
       id="path947"
       sodipodi:cx="12.388392"
       sodipodi:cy="18.513393"
       sodipodi:rx="0.51339287"
       sodipodi:ry="0.51339287"
       d="m 12.901785,18.513393 a 0.51339287,0.51339287 0 1 1 -1.026785,0 A 0.51339287,0.51339287 0 1 1 12.901785,18.513393 Z"
       transform="translate(481.71429,531.2193)" />
    <path
       transform="translate(481.71429,533.2193)"
       d="m 12.901785,18.513393 a 0.51339287,0.51339287 0 1 1 -1.026785,0 A 0.51339287,0.51339287 0 1 1 12.901785,18.513393 Z"
       sodipodi:ry="0.51339287"
       sodipodi:rx="0.51339287"
       sodipodi:cy="18.513393"
       sodipodi:cx="12.388392"
       id="path949"
       style="color:#000000;fill:#000000;fill-opacity:1;fill-rule:nonzero;stroke:none;stroke-width:0.40000001;marker:none;visibility:visible;display:inline;overflow:visible;enable-background:accumulate"
       sodipodi:type="arc" />
    <path
       sodipodi:type="arc"
       style="color:#000000;fill:#000000;fill-opacity:1;fill-rule:nonzero;stroke:none;stroke-width:0.40000001;marker:none;visibility:visible;display:inline;overflow:visible;enable-background:accumulate"
       id="path951"
       sodipodi:cx="12.388392"
       sodipodi:cy="18.513393"
       sodipodi:rx="0.51339287"
       sodipodi:ry="0.51339287"
       d="m 12.901785,18.513393 a 0.51339287,0.51339287 0 1 1 -1.026785,0 A 0.51339287,0.51339287 0 1 1 12.901785,18.513393 Z"
       transform="translate(481.71429,535.2193)" />
    <path
       transform="translate(483.71429,535.2193)"
       d="m 12.901785,18.513393 a 0.51339287,0.51339287 0 1 1 -1.026785,0 A 0.51339287,0.51339287 0 1 1 12.901785,18.513393 Z"
       sodipodi:ry="0.51339287"
       sodipodi:rx="0.51339287"
       sodipodi:cy="18.513393"
       sodipodi:cx="12.388392"
       id="path953"
       style="color:#000000;fill:#000000;fill-opacity:1;fill-rule:nonzero;stroke:none;stroke-width:0.40000001;marker:none;visibility:visible;display:inline;overflow:visible;enable-background:accumulate"
       sodipodi:type="arc" />
    <path
       sodipodi:type="arc"
       style="color:#000000;fill:#000000;fill-opacity:1;fill-rule:nonzero;stroke:none;stroke-width:0.40000001;marker:none;visibility:visible;display:inline;overflow:visible;enable-background:accumulate"
       id="path955"
       sodipodi:cx="12.388392"
       sodipodi:cy="18.513393"
       sodipodi:rx="0.51339287"
       sodipodi:ry="0.51339287"
       d="m 12.901785,18.513393 a 0.51339287,0.51339287 0 1 1 -1.026785,0 A 0.51339287,0.51339287 0 1 1 12.901785,18.513393 Z"
       transform="translate(483.71429,533.2193)" />
    <path
       transform="translate(483.71429,531.2193)"
       d="m 12.901785,18.513393 a 0.51339287,0.51339287 0 1 1 -1.026785,0 A 0.51339287,0.51339287 0 1 1 12.901785,18.513393 Z"
       sodipodi:ry="0.51339287"
       sodipodi:rx="0.51339287"
       sodipodi:cy="18.513393"
       sodipodi:cx="12.388392"
       id="path957"
       style="color:#000000;fill:#000000;fill-opacity:1;fill-rule:nonzero;stroke:none;stroke-width:0.40000001;marker:none;visibility:visible;display:inline;overflow:visible;enable-background:accumulate"
       sodipodi:type="arc" />
    <path
       sodipodi:type="arc"
       style="color:#000000;fill:#000000;fill-opacity:1;fill-rule:nonzero;stroke:none;stroke-width:0.40000001;marker:none;visibility:visible;display:inline;overflow:visible;enable-background:accumulate"
       id="path959"
       sodipodi:cx="12.388392"
       sodipodi:cy="18.513393"
       sodipodi:rx="0.51339287"
       sodipodi:ry="0.51339287"
       d="m 12.901785,18.513393 a 0.51339287,0.51339287 0 1 1 -1.026785,0 A 0.51339287,0.51339287 0 1 1 12.901785,18.513393 Z"
       transform="translate(485.71429,531.2193)" />
    <path
       transform="translate(485.71429,533.2193)"
       d="m 12.901785,18.513393 a 0.51339287,0.51339287 0 1 1 -1.026785,0 A 0.51339287,0.51339287 0 1 1 12.901785,18.513393 Z"
       sodipodi:ry="0.51339287"
       sodipodi:rx="0.51339287"
       sodipodi:cy="18.513393"
       sodipodi:cx="12.388392"
       id="path961"
       style="color:#000000;fill:#000000;fill-opacity:1;fill-rule:nonzero;stroke:none;stroke-width:0.40000001;marker:none;visibility:visible;display:inline;overflow:visible;enable-background:accumulate"
       sodipodi:type="arc" />
    <path
       sodipodi:type="arc"
       style="color:#000000;fill:#000000;fill-opacity:1;fill-rule:nonzero;stroke:none;stroke-width:0.40000001;marker:none;visibility:visible;display:inline;overflow:visible;enable-background:accumulate"
       id="path963"
       sodipodi:cx="12.388392"
       sodipodi:cy="18.513393"
       sodipodi:rx="0.51339287"
       sodipodi:ry="0.51339287"
       d="m 12.901785,18.513393 a 0.51339287,0.51339287 0 1 1 -1.026785,0 A 0.51339287,0.51339287 0 1 1 12.901785,18.513393 Z"
       transform="translate(485.71429,535.2193)" />
    <path
       transform="translate(485.71429,537.2193)"
       d="m 12.901785,18.513393 a 0.51339287,0.51339287 0 1 1 -1.026785,0 A 0.51339287,0.51339287 0 1 1 12.901785,18.513393 Z"
       sodipodi:ry="0.51339287"
       sodipodi:rx="0.51339287"
       sodipodi:cy="18.513393"
       sodipodi:cx="12.388392"
       id="path965"
       style="color:#000000;fill:#000000;fill-opacity:1;fill-rule:nonzero;stroke:none;stroke-width:0.40000001;marker:none;visibility:visible;display:inline;overflow:visible;enable-background:accumulate"
       sodipodi:type="arc" />
    <path
       sodipodi:type="arc"
       style="color:#000000;fill:#000000;fill-opacity:1;fill-rule:nonzero;stroke:none;stroke-width:0.40000001;marker:none;visibility:visible;display:inline;overflow:visible;enable-background:accumulate"
       id="path967"
       sodipodi:cx="12.388392"
       sodipodi:cy="18.513393"
       sodipodi:rx="0.51339287"
       sodipodi:ry="0.51339287"
       d="m 12.901785,18.513393 a 0.51339287,0.51339287 0 1 1 -1.026785,0 A 0.51339287,0.51339287 0 1 1 12.901785,18.513393 Z"
       transform="translate(485.71429,529.2193)" />
    <path
       transform="translate(487.71429,529.2193)"
       d="m 12.901785,18.513393 a 0.51339287,0.51339287 0 1 1 -1.026785,0 A 0.51339287,0.51339287 0 1 1 12.901785,18.513393 Z"
       sodipodi:ry="0.51339287"
       sodipodi:rx="0.51339287"
       sodipodi:cy="18.513393"
       sodipodi:cx="12.388392"
       id="path969"
       style="color:#000000;fill:#000000;fill-opacity:1;fill-rule:nonzero;stroke:none;stroke-width:0.40000001;marker:none;visibility:visible;display:inline;overflow:visible;enable-background:accumulate"
       sodipodi:type="arc" />
    <path
       sodipodi:type="arc"
       style="color:#000000;fill:#000000;fill-opacity:1;fill-rule:nonzero;stroke:none;stroke-width:0.40000001;marker:none;visibility:visible;display:inline;overflow:visible;enable-background:accumulate"
       id="path971"
       sodipodi:cx="12.388392"
       sodipodi:cy="18.513393"
       sodipodi:rx="0.51339287"
       sodipodi:ry="0.51339287"
       d="m 12.901785,18.513393 a 0.51339287,0.51339287 0 1 1 -1.026785,0 A 0.51339287,0.51339287 0 1 1 12.901785,18.513393 Z"
       transform="translate(487.71429,527.2193)" />
    <path
       transform="translate(489.71429,527.2193)"
       d="m 12.901785,18.513393 a 0.51339287,0.51339287 0 1 1 -1.026785,0 A 0.51339287,0.51339287 0 1 1 12.901785,18.513393 Z"
       sodipodi:ry="0.51339287"
       sodipodi:rx="0.51339287"
       sodipodi:cy="18.513393"
       sodipodi:cx="12.388392"
       id="path973"
       style="color:#000000;fill:#000000;fill-opacity:1;fill-rule:nonzero;stroke:none;stroke-width:0.40000001;marker:none;visibility:visible;display:inline;overflow:visible;enable-background:accumulate"
       sodipodi:type="arc" />
    <path
       sodipodi:type="arc"
       style="color:#000000;fill:#000000;fill-opacity:1;fill-rule:nonzero;stroke:none;stroke-width:0.40000001;marker:none;visibility:visible;display:inline;overflow:visible;enable-background:accumulate"
       id="path975"
       sodipodi:cx="12.388392"
       sodipodi:cy="18.513393"
       sodipodi:rx="0.51339287"
       sodipodi:ry="0.51339287"
       d="m 12.901785,18.513393 a 0.51339287,0.51339287 0 1 1 -1.026785,0 A 0.51339287,0.51339287 0 1 1 12.901785,18.513393 Z"
       transform="translate(489.71429,529.2193)" />
    <path
       transform="translate(489.71429,531.2193)"
       d="m 12.901785,18.513393 a 0.51339287,0.51339287 0 1 1 -1.026785,0 A 0.51339287,0.51339287 0 1 1 12.901785,18.513393 Z"
       sodipodi:ry="0.51339287"
       sodipodi:rx="0.51339287"
       sodipodi:cy="18.513393"
       sodipodi:cx="12.388392"
       id="path977"
       style="color:#000000;fill:#000000;fill-opacity:1;fill-rule:nonzero;stroke:none;stroke-width:0.40000001;marker:none;visibility:visible;display:inline;overflow:visible;enable-background:accumulate"
       sodipodi:type="arc" />
    <path
       sodipodi:type="arc"
       style="color:#000000;fill:#000000;fill-opacity:1;fill-rule:nonzero;stroke:none;stroke-width:0.40000001;marker:none;visibility:visible;display:inline;overflow:visible;enable-background:accumulate"
       id="path979"
       sodipodi:cx="12.388392"
       sodipodi:cy="18.513393"
       sodipodi:rx="0.51339287"
       sodipodi:ry="0.51339287"
       d="m 12.901785,18.513393 a 0.51339287,0.51339287 0 1 1 -1.026785,0 A 0.51339287,0.51339287 0 1 1 12.901785,18.513393 Z"
       transform="translate(487.71429,531.2193)" />
    <path
       transform="translate(487.71429,533.2193)"
       d="m 12.901785,18.513393 a 0.51339287,0.51339287 0 1 1 -1.026785,0 A 0.51339287,0.51339287 0 1 1 12.901785,18.513393 Z"
       sodipodi:ry="0.51339287"
       sodipodi:rx="0.51339287"
       sodipodi:cy="18.513393"
       sodipodi:cx="12.388392"
       id="path981"
       style="color:#000000;fill:#000000;fill-opacity:1;fill-rule:nonzero;stroke:none;stroke-width:0.40000001;marker:none;visibility:visible;display:inline;overflow:visible;enable-background:accumulate"
       sodipodi:type="arc" />
    <path
       sodipodi:type="arc"
       style="color:#000000;fill:#000000;fill-opacity:1;fill-rule:nonzero;stroke:none;stroke-width:0.40000001;marker:none;visibility:visible;display:inline;overflow:visible;enable-background:accumulate"
       id="path983"
       sodipodi:cx="12.388392"
       sodipodi:cy="18.513393"
       sodipodi:rx="0.51339287"
       sodipodi:ry="0.51339287"
       d="m 12.901785,18.513393 a 0.51339287,0.51339287 0 1 1 -1.026785,0 A 0.51339287,0.51339287 0 1 1 12.901785,18.513393 Z"
       transform="translate(489.71429,533.2193)" />
    <path
       transform="translate(489.71429,535.2193)"
       d="m 12.901785,18.513393 a 0.51339287,0.51339287 0 1 1 -1.026785,0 A 0.51339287,0.51339287 0 1 1 12.901785,18.513393 Z"
       sodipodi:ry="0.51339287"
       sodipodi:rx="0.51339287"
       sodipodi:cy="18.513393"
       sodipodi:cx="12.388392"
       id="path985"
       style="color:#000000;fill:#000000;fill-opacity:1;fill-rule:nonzero;stroke:none;stroke-width:0.40000001;marker:none;visibility:visible;display:inline;overflow:visible;enable-background:accumulate"
       sodipodi:type="arc" />
    <path
       sodipodi:type="arc"
       style="color:#000000;fill:#000000;fill-opacity:1;fill-rule:nonzero;stroke:none;stroke-width:0.40000001;marker:none;visibility:visible;display:inline;overflow:visible;enable-background:accumulate"
       id="path987"
       sodipodi:cx="12.388392"
       sodipodi:cy="18.513393"
       sodipodi:rx="0.51339287"
       sodipodi:ry="0.51339287"
       d="m 12.901785,18.513393 a 0.51339287,0.51339287 0 1 1 -1.026785,0 A 0.51339287,0.51339287 0 1 1 12.901785,18.513393 Z"
       transform="translate(487.71429,535.2193)" />
    <path
       transform="translate(487.71429,537.2193)"
       d="m 12.901785,18.513393 a 0.51339287,0.51339287 0 1 1 -1.026785,0 A 0.51339287,0.51339287 0 1 1 12.901785,18.513393 Z"
       sodipodi:ry="0.51339287"
       sodipodi:rx="0.51339287"
       sodipodi:cy="18.513393"
       sodipodi:cx="12.388392"
       id="path989"
       style="color:#000000;fill:#000000;fill-opacity:1;fill-rule:nonzero;stroke:none;stroke-width:0.40000001;marker:none;visibility:visible;display:inline;overflow:visible;enable-background:accumulate"
       sodipodi:type="arc" />
    <path
       sodipodi:type="arc"
       style="color:#000000;fill:#000000;fill-opacity:1;fill-rule:nonzero;stroke:none;stroke-width:0.40000001;marker:none;visibility:visible;display:inline;overflow:visible;enable-background:accumulate"
       id="path991"
       sodipodi:cx="12.388392"
       sodipodi:cy="18.513393"
       sodipodi:rx="0.51339287"
       sodipodi:ry="0.51339287"
       d="m 12.901785,18.513393 a 0.51339287,0.51339287 0 1 1 -1.026785,0 A 0.51339287,0.51339287 0 1 1 12.901785,18.513393 Z"
       transform="translate(489.71429,537.2193)" />
    <path
       transform="translate(489.71429,539.2193)"
       d="m 12.901785,18.513393 a 0.51339287,0.51339287 0 1 1 -1.026785,0 A 0.51339287,0.51339287 0 1 1 12.901785,18.513393 Z"
       sodipodi:ry="0.51339287"
       sodipodi:rx="0.51339287"
       sodipodi:cy="18.513393"
       sodipodi:cx="12.388392"
       id="path993"
       style="color:#000000;fill:#000000;fill-opacity:1;fill-rule:nonzero;stroke:none;stroke-width:0.40000001;marker:none;visibility:visible;display:inline;overflow:visible;enable-background:accumulate"
       sodipodi:type="arc" />
    <path
       sodipodi:type="arc"
       style="color:#000000;fill:#000000;fill-opacity:1;fill-rule:nonzero;stroke:none;stroke-width:0.40000001;marker:none;visibility:visible;display:inline;overflow:visible;enable-background:accumulate"
       id="path995"
       sodipodi:cx="12.388392"
       sodipodi:cy="18.513393"
       sodipodi:rx="0.51339287"
       sodipodi:ry="0.51339287"
       d="m 12.901785,18.513393 a 0.51339287,0.51339287 0 1 1 -1.026785,0 A 0.51339287,0.51339287 0 1 1 12.901785,18.513393 Z"
       transform="translate(487.71429,539.2193)" />
    <path
       transform="translate(487.71429,541.2193)"
       d="m 12.901785,18.513393 a 0.51339287,0.51339287 0 1 1 -1.026785,0 A 0.51339287,0.51339287 0 1 1 12.901785,18.513393 Z"
       sodipodi:ry="0.51339287"
       sodipodi:rx="0.51339287"
       sodipodi:cy="18.513393"
       sodipodi:cx="12.388392"
       id="path997"
       style="color:#000000;fill:#000000;fill-opacity:1;fill-rule:nonzero;stroke:none;stroke-width:0.40000001;marker:none;visibility:visible;display:inline;overflow:visible;enable-background:accumulate"
       sodipodi:type="arc" />
    <path
       sodipodi:type="arc"
       style="color:#000000;fill:#000000;fill-opacity:1;fill-rule:nonzero;stroke:none;stroke-width:0.40000001;marker:none;visibility:visible;display:inline;overflow:visible;enable-background:accumulate"
       id="path999"
       sodipodi:cx="12.388392"
       sodipodi:cy="18.513393"
       sodipodi:rx="0.51339287"
       sodipodi:ry="0.51339287"
       d="m 12.901785,18.513393 a 0.51339287,0.51339287 0 1 1 -1.026785,0 A 0.51339287,0.51339287 0 1 1 12.901785,18.513393 Z"
       transform="translate(491.71429,539.2193)" />
    <path
       sodipodi:type="arc"
       style="color:#000000;fill:#000000;fill-opacity:1;fill-rule:nonzero;stroke:none;stroke-width:0.40000001;marker:none;visibility:visible;display:inline;overflow:visible;enable-background:accumulate"
       id="path1011"
       sodipodi:cx="12.388392"
       sodipodi:cy="18.513393"
       sodipodi:rx="0.51339287"
       sodipodi:ry="0.51339287"
       d="m 12.901785,18.513393 a 0.51339287,0.51339287 0 1 1 -1.026785,0 A 0.51339287,0.51339287 0 1 1 12.901785,18.513393 Z"
       transform="translate(493.71429,527.2193)" />
    <path
       transform="translate(491.71429,529.2193)"
       d="m 12.901785,18.513393 a 0.51339287,0.51339287 0 1 1 -1.026785,0 A 0.51339287,0.51339287 0 1 1 12.901785,18.513393 Z"
       sodipodi:ry="0.51339287"
       sodipodi:rx="0.51339287"
       sodipodi:cy="18.513393"
       sodipodi:cx="12.388392"
       id="path1013"
       style="color:#000000;fill:#000000;fill-opacity:1;fill-rule:nonzero;stroke:none;stroke-width:0.40000001;marker:none;visibility:visible;display:inline;overflow:visible;enable-background:accumulate"
       sodipodi:type="arc" />
    <path
       sodipodi:type="arc"
       style="color:#000000;fill:#000000;fill-opacity:1;fill-rule:nonzero;stroke:none;stroke-width:0.40000001;marker:none;visibility:visible;display:inline;overflow:visible;enable-background:accumulate"
       id="path1015"
       sodipodi:cx="12.388392"
       sodipodi:cy="18.513393"
       sodipodi:rx="0.51339287"
       sodipodi:ry="0.51339287"
       d="m 12.901785,18.513393 a 0.51339287,0.51339287 0 1 1 -1.026785,0 A 0.51339287,0.51339287 0 1 1 12.901785,18.513393 Z"
       transform="translate(491.71429,527.2193)" />
    <path
       transform="translate(491.71429,527.2193)"
       d="m 12.901785,18.513393 a 0.51339287,0.51339287 0 1 1 -1.026785,0 A 0.51339287,0.51339287 0 1 1 12.901785,18.513393 Z"
       sodipodi:ry="0.51339287"
       sodipodi:rx="0.51339287"
       sodipodi:cy="18.513393"
       sodipodi:cx="12.388392"
       id="path1017"
       style="color:#000000;fill:#000000;fill-opacity:1;fill-rule:nonzero;stroke:none;stroke-width:0.40000001;marker:none;visibility:visible;display:inline;overflow:visible;enable-background:accumulate"
       sodipodi:type="arc" />
    <path
       transform="translate(481.71429,535.2193)"
       d="m 12.901785,18.513393 a 0.51339287,0.51339287 0 1 1 -1.026785,0 A 0.51339287,0.51339287 0 1 1 12.901785,18.513393 Z"
       sodipodi:ry="0.51339287"
       sodipodi:rx="0.51339287"
       sodipodi:cy="18.513393"
       sodipodi:cx="12.388392"
       id="path1019"
       style="color:#000000;fill:#000000;fill-opacity:1;fill-rule:nonzero;stroke:none;stroke-width:0.40000001;marker:none;visibility:visible;display:inline;overflow:visible;enable-background:accumulate"
       sodipodi:type="arc" />
    <path
       sodipodi:type="arc"
       style="color:#000000;fill:#000000;fill-opacity:1;fill-rule:nonzero;stroke:none;stroke-width:0.40000001;marker:none;visibility:visible;display:inline;overflow:visible;enable-background:accumulate"
       id="path1075"
       sodipodi:cx="12.388392"
       sodipodi:cy="18.513393"
       sodipodi:rx="0.51339287"
       sodipodi:ry="0.51339287"
       d="m 12.901785,18.513393 a 0.51339287,0.51339287 0 1 1 -1.026785,0 A 0.51339287,0.51339287 0 1 1 12.901785,18.513393 Z"
       transform="translate(483.71429,529.2193)" />
    <path
       sodipodi:type="arc"
       style="color:#000000;fill:#000000;fill-opacity:1;fill-rule:nonzero;stroke:none;stroke-width:0.40000001;marker:none;visibility:visible;display:inline;overflow:visible;enable-background:accumulate"
       id="path1077"
       sodipodi:cx="12.388392"
       sodipodi:cy="18.513393"
       sodipodi:rx="0.51339287"
       sodipodi:ry="0.51339287"
       d="m 12.901785,18.513393 a 0.51339287,0.51339287 0 1 1 -1.026785,0 A 0.51339287,0.51339287 0 1 1 12.901785,18.513393 Z"
       transform="translate(483.71429,537.2193)" />
    <path
       sodipodi:type="arc"
       style="color:#000000;fill:#000000;fill-opacity:1;fill-rule:nonzero;stroke:none;stroke-width:0.40000001;marker:none;visibility:visible;display:inline;overflow:visible;enable-background:accumulate"
       id="path1079"
       sodipodi:cx="12.388392"
       sodipodi:cy="18.513393"
       sodipodi:rx="0.51339287"
       sodipodi:ry="0.51339287"
       d="m 12.901785,18.513393 a 0.51339287,0.51339287 0 1 1 -1.026785,0 A 0.51339287,0.51339287 0 1 1 12.901785,18.513393 Z"
       transform="translate(491.71429,525.2193)" />
    <path
       sodipodi:type="arc"
       style="color:#000000;fill:#000000;fill-opacity:1;fill-rule:nonzero;stroke:none;stroke-width:0.40000001;marker:none;visibility:visible;display:inline;overflow:visible;enable-background:accumulate"
       id="path1083"
       sodipodi:cx="12.388392"
       sodipodi:cy="18.513393"
       sodipodi:rx="0.51339287"
       sodipodi:ry="0.51339287"
       d="m 12.901785,18.513393 a 0.51339287,0.51339287 0 1 1 -1.026785,0 A 0.51339287,0.51339287 0 1 1 12.901785,18.513393 Z"
       transform="translate(493.71429,525.2193)" />
    <path
       transform="translate(491.71429,541.2193)"
       d="m 12.901785,18.513393 a 0.51339287,0.51339287 0 1 1 -1.026785,0 A 0.51339287,0.51339287 0 1 1 12.901785,18.513393 Z"
       sodipodi:ry="0.51339287"
       sodipodi:rx="0.51339287"
       sodipodi:cy="18.513393"
       sodipodi:cx="12.388392"
       id="path1085"
       style="color:#000000;fill:#000000;fill-opacity:1;fill-rule:nonzero;stroke:none;stroke-width:0.40000001;marker:none;visibility:visible;display:inline;overflow:visible;enable-background:accumulate"
       sodipodi:type="arc" />
    <path
       transform="translate(485.71429,527.2193)"
       d="m 12.901785,18.513393 a 0.51339287,0.51339287 0 1 1 -1.026785,0 A 0.51339287,0.51339287 0 1 1 12.901785,18.513393 Z"
       sodipodi:ry="0.51339287"
       sodipodi:rx="0.51339287"
       sodipodi:cy="18.513393"
       sodipodi:cx="12.388392"
       id="path1089"
       style="color:#000000;fill:#000000;fill-opacity:1;fill-rule:nonzero;stroke:none;stroke-width:0.40000001;marker:none;visibility:visible;display:inline;overflow:visible;enable-background:accumulate"
       sodipodi:type="arc" />
    <path
       sodipodi:type="arc"
       style="color:#000000;fill:#000000;fill-opacity:1;fill-rule:nonzero;stroke:none;stroke-width:0.40000001;marker:none;visibility:visible;display:inline;overflow:visible;enable-background:accumulate"
       id="path1091"
       sodipodi:cx="12.388392"
       sodipodi:cy="18.513393"
       sodipodi:rx="0.51339287"
       sodipodi:ry="0.51339287"
       d="m 12.901785,18.513393 a 0.51339287,0.51339287 0 1 1 -1.026785,0 A 0.51339287,0.51339287 0 1 1 12.901785,18.513393 Z"
       transform="translate(489.71429,525.2193)" />
    <path
       sodipodi:type="arc"
       style="color:#000000;fill:#000000;fill-opacity:1;fill-rule:nonzero;stroke:none;stroke-width:0.40000001;marker:none;visibility:visible;display:inline;overflow:visible;enable-background:accumulate"
       id="path1093"
       sodipodi:cx="12.388392"
       sodipodi:cy="18.513393"
       sodipodi:rx="0.51339287"
       sodipodi:ry="0.51339287"
       d="m 12.901785,18.513393 a 0.51339287,0.51339287 0 1 1 -1.026785,0 A 0.51339287,0.51339287 0 1 1 12.901785,18.513393 Z"
       transform="translate(485.71429,539.2193)" />
    <path
       transform="translate(489.71429,541.2193)"
       d="m 12.901785,18.513393 a 0.51339287,0.51339287 0 1 1 -1.026785,0 A 0.51339287,0.51339287 0 1 1 12.901785,18.513393 Z"
       sodipodi:ry="0.51339287"
       sodipodi:rx="0.51339287"
       sodipodi:cy="18.513393"
       sodipodi:cx="12.388392"
       id="path1095"
       style="color:#000000;fill:#000000;fill-opacity:1;fill-rule:nonzero;stroke:none;stroke-width:0.40000001;marker:none;visibility:visible;display:inline;overflow:visible;enable-background:accumulate"
       sodipodi:type="arc" />
    <path
       transform="translate(487.71429,525.2193)"
       d="m 12.901785,18.513393 a 0.51339287,0.51339287 0 1 1 -1.026785,0 A 0.51339287,0.51339287 0 1 1 12.901785,18.513393 Z"
       sodipodi:ry="0.51339287"
       sodipodi:rx="0.51339287"
       sodipodi:cy="18.513393"
       sodipodi:cx="12.388392"
       id="path1097"
       style="color:#000000;fill:#000000;fill-opacity:1;fill-rule:nonzero;stroke:none;stroke-width:0.40000001;marker:none;visibility:visible;display:inline;overflow:visible;enable-background:accumulate"
       sodipodi:type="arc" />
    <path
       sodipodi:type="arc"
       style="color:#000000;fill:#000000;fill-opacity:1;fill-rule:nonzero;stroke:none;stroke-width:0.40000001;marker:none;visibility:visible;display:inline;overflow:visible;enable-background:accumulate"
       id="path1099"
       sodipodi:cx="12.388392"
       sodipodi:cy="18.513393"
       sodipodi:rx="0.51339287"
       sodipodi:ry="0.51339287"
       d="m 12.901785,18.513393 a 0.51339287,0.51339287 0 1 1 -1.026785,0 A 0.51339287,0.51339287 0 1 1 12.901785,18.513393 Z"
       transform="translate(485.71429,543.2193)" />
    <path
       transform="translate(485.71429,541.2193)"
       d="m 12.901785,18.513393 a 0.51339287,0.51339287 0 1 1 -1.026785,0 A 0.51339287,0.51339287 0 1 1 12.901785,18.513393 Z"
       sodipodi:ry="0.51339287"
       sodipodi:rx="0.51339287"
       sodipodi:cy="18.513393"
       sodipodi:cx="12.388392"
       id="path1101"
       style="color:#000000;fill:#000000;fill-opacity:1;fill-rule:nonzero;stroke:none;stroke-width:0.40000001;marker:none;visibility:visible;display:inline;overflow:visible;enable-background:accumulate"
       sodipodi:type="arc" />
    <path
       sodipodi:type="arc"
       style="color:#000000;fill:#000000;fill-opacity:1;fill-rule:nonzero;stroke:none;stroke-width:0.40000001;marker:none;visibility:visible;display:inline;overflow:visible;enable-background:accumulate"
       id="path1103"
       sodipodi:cx="12.388392"
       sodipodi:cy="18.513393"
       sodipodi:rx="0.51339287"
       sodipodi:ry="0.51339287"
       d="m 12.901785,18.513393 a 0.51339287,0.51339287 0 1 1 -1.026785,0 A 0.51339287,0.51339287 0 1 1 12.901785,18.513393 Z"
       transform="translate(483.71429,539.2193)" />
    <path
       transform="translate(481.71429,537.2193)"
       d="m 12.901785,18.513393 a 0.51339287,0.51339287 0 1 1 -1.026785,0 A 0.51339287,0.51339287 0 1 1 12.901785,18.513393 Z"
       sodipodi:ry="0.51339287"
       sodipodi:rx="0.51339287"
       sodipodi:cy="18.513393"
       sodipodi:cx="12.388392"
       id="path1105"
       style="color:#000000;fill:#000000;fill-opacity:1;fill-rule:nonzero;stroke:none;stroke-width:0.40000001;marker:none;visibility:visible;display:inline;overflow:visible;enable-background:accumulate"
       sodipodi:type="arc" />
    <path
       sodipodi:type="arc"
       style="color:#000000;fill:#000000;fill-opacity:1;fill-rule:nonzero;stroke:none;stroke-width:0.40000001;marker:none;visibility:visible;display:inline;overflow:visible;enable-background:accumulate"
       id="path1107"
       sodipodi:cx="12.388392"
       sodipodi:cy="18.513393"
       sodipodi:rx="0.51339287"
       sodipodi:ry="0.51339287"
       d="m 12.901785,18.513393 a 0.51339287,0.51339287 0 1 1 -1.026785,0 A 0.51339287,0.51339287 0 1 1 12.901785,18.513393 Z"
       transform="translate(483.71429,527.2193)" />
    <path
       transform="translate(493.71429,541.2193)"
       d="m 12.901785,18.513393 a 0.51339287,0.51339287 0 1 1 -1.026785,0 A 0.51339287,0.51339287 0 1 1 12.901785,18.513393 Z"
       sodipodi:ry="0.51339287"
       sodipodi:rx="0.51339287"
       sodipodi:cy="18.513393"
       sodipodi:cx="12.388392"
       id="path1109"
       style="color:#000000;fill:#000000;fill-opacity:1;fill-rule:nonzero;stroke:none;stroke-width:0.40000001;marker:none;visibility:visible;display:inline;overflow:visible;enable-background:accumulate"
       sodipodi:type="arc" />
    <path
       transform="translate(495.71429,525.2193)"
       d="m 12.901785,18.513393 a 0.51339287,0.51339287 0 1 1 -1.026785,0 A 0.51339287,0.51339287 0 1 1 12.901785,18.513393 Z"
       sodipodi:ry="0.51339287"
       sodipodi:rx="0.51339287"
       sodipodi:cy="18.513393"
       sodipodi:cx="12.388392"
       id="path1111"
       style="color:#000000;fill:#000000;fill-opacity:1;fill-rule:nonzero;stroke:none;stroke-width:0.40000001;marker:none;visibility:visible;display:inline;overflow:visible;enable-background:accumulate"
       sodipodi:type="arc" />
    <path
       sodipodi:type="arc"
       style="color:#000000;fill:#000000;fill-opacity:1;fill-rule:nonzero;stroke:none;stroke-width:0.40000001;marker:none;visibility:visible;display:inline;overflow:visible;enable-background:accumulate"
       id="path1113"
       sodipodi:cx="12.388392"
       sodipodi:cy="18.513393"
       sodipodi:rx="0.51339287"
       sodipodi:ry="0.51339287"
       d="m 12.901785,18.513393 a 0.51339287,0.51339287 0 1 1 -1.026785,0 A 0.51339287,0.51339287 0 1 1 12.901785,18.513393 Z"
       transform="translate(497.71429,525.2193)" />
    <path
       transform="translate(481.71429,529.2193)"
       d="m 12.901785,18.513393 a 0.51339287,0.51339287 0 1 1 -1.026785,0 A 0.51339287,0.51339287 0 1 1 12.901785,18.513393 Z"
       sodipodi:ry="0.51339287"
       sodipodi:rx="0.51339287"
       sodipodi:cy="18.513393"
       sodipodi:cx="12.388392"
       id="path1243"
       style="color:#000000;fill:#000000;fill-opacity:1;fill-rule:nonzero;stroke:none;stroke-width:0.40000001;marker:none;visibility:visible;display:inline;overflow:visible;enable-background:accumulate"
       sodipodi:type="arc" />
  </g>
</svg>
