<?xml version="1.0" encoding="UTF-8" standalone="no"?>
<!-- Created with Inkscape (http://www.inkscape.org/) -->

<svg
   xmlns:dc="http://purl.org/dc/elements/1.1/"
   xmlns:cc="http://creativecommons.org/ns#"
   xmlns:rdf="http://www.w3.org/1999/02/22-rdf-syntax-ns#"
   xmlns:svg="http://www.w3.org/2000/svg"
   xmlns="http://www.w3.org/2000/svg"
   xmlns:xlink="http://www.w3.org/1999/xlink"
   xmlns:sodipodi="http://sodipodi.sourceforge.net/DTD/sodipodi-0.dtd"
   xmlns:inkscape="http://www.inkscape.org/namespaces/inkscape"
   width="48"
   height="48"
   id="svg4424"
   version="1.1"
   inkscape:version="0.48+devel r11721"
   sodipodi:docname="application-vnd.ms-access.svg">
  <defs
     id="defs4426">
    <linearGradient
       y2="468.35892"
       x2="314.34872"
       y1="425.61682"
       x1="314.34872"
       gradientTransform="translate(-290.91819,580.58282)"
       gradientUnits="userSpaceOnUse"
       id="linearGradient887"
       xlink:href="#linearGradient1069-5"
       inkscape:collect="always" />
    <linearGradient
       id="linearGradient1069-5">
      <stop
         style="stop-color:#de87aa;stop-opacity:1"
         offset="0"
         id="stop1071-6" />
      <stop
         style="stop-color:#c83771;stop-opacity:1"
         offset="1"
         id="stop1073-0" />
    </linearGradient>
    <linearGradient
       inkscape:collect="always"
       xlink:href="#linearGradient918-1"
       id="linearGradient912"
       x1="462.37933"
       y1="837.0611"
       x2="463.75925"
       y2="835.67212"
       gradientUnits="userSpaceOnUse"
       gradientTransform="translate(-424.57144,176.00002)" />
    <linearGradient
       id="linearGradient918-1">
      <stop
         id="stop920-5"
         offset="0"
         style="stop-color:#f6f6f6;stop-opacity:1" />
      <stop
         id="stop922-7"
         offset="1"
         style="stop-color:#e2e2e2;stop-opacity:1" />
    </linearGradient>
    <linearGradient
       gradientTransform="translate(-237.11476,580.58527)"
       inkscape:collect="always"
       xlink:href="#linearGradient6707"
       id="linearGradient1110"
       x1="262.01361"
       y1="471.95245"
       x2="262.01361"
       y2="442.7843"
       gradientUnits="userSpaceOnUse" />
    <linearGradient
       id="linearGradient6707">
      <stop
         id="stop6709"
         offset="0"
         style="stop-color:#000000;stop-opacity:1;" />
      <stop
         id="stop6711"
         offset="1"
         style="stop-color:#ffffff;stop-opacity:1;" />
    </linearGradient>
  </defs>
  <sodipodi:namedview
     id="base"
     pagecolor="#ffffff"
     bordercolor="#666666"
     borderopacity="1.0"
     inkscape:pageopacity="0.0"
     inkscape:pageshadow="2"
     inkscape:zoom="15.839192"
     inkscape:cx="34.538631"
     inkscape:cy="8.9815703"
     inkscape:document-units="px"
     inkscape:current-layer="layer1"
     showgrid="false"
     inkscape:window-width="1366"
     inkscape:window-height="746"
     inkscape:window-x="0"
     inkscape:window-y="0"
     inkscape:window-maximized="1" />
  <metadata
     id="metadata4429">
    <rdf:RDF>
      <cc:Work
         rdf:about="">
        <dc:format>image/svg+xml</dc:format>
        <dc:type
           rdf:resource="http://purl.org/dc/dcmitype/StillImage" />
        <dc:title />
      </cc:Work>
    </rdf:RDF>
  </metadata>
  <g
     inkscape:label="Capa 1"
     inkscape:groupmode="layer"
     id="layer1"
     transform="translate(0,-1004.3622)">
    <path
       style="opacity:0.5;fill:#000000;fill-opacity:1;stroke:none"
       d="m 3.8125,1006.2685 c -0.89692,0 -1.625,0.8213 -1.625,1.8125 l 0,40.5625 c 0,0.9911 0.72808,1.8125 1.625,1.8125 l 40.375,0 c 0.89693,0 1.625,-0.8213 1.625,-1.8125 l 0,-32 -10.40625,-10.375 L 3.8125,1006.2685 Z"
       id="rect3922-2"
       inkscape:connector-curvature="0" />
    <path
       style="fill:url(#linearGradient887);fill-opacity:1;stroke:none"
       d="m 4.1875,1006.831 c -0.87415,0 -1.5625,0.7839 -1.5625,1.75 l 0,39.5625 c 0,0.966 0.68834,1.75 1.5625,1.75 l 39.625,0 c 0.87416,0 1.5625,-0.784 1.5625,-1.75 l 0,-31.125 L 35.15625,1006.831 4.1875,1006.831 Z"
       id="path869-2"
       inkscape:connector-curvature="0" />
    <path
       inkscape:connector-curvature="0"
       style="opacity:0.5;fill:#000000;fill-opacity:1;stroke:none"
       d="m 45.48549,1017.1605 -10.53539,-10.5032 0,8.699 c 0,0.9959 0.70967,1.8042 1.61092,1.8042 L 45.48549,1017.1605 Z"
       id="path914" />
    <path
       id="path902"
       d="m 45.375,1017.0185 -10.21875,-10.1875 0,8.4375 c 0,0.966 0.68834,1.75 1.5625,1.75 L 45.375,1017.0185 Z"
       style="fill:url(#linearGradient912);fill-opacity:1;stroke:none"
       inkscape:connector-curvature="0" />
    <path
       inkscape:connector-curvature="0"
       style="fill:url(#linearGradient1110);fill-opacity:1;stroke:none"
       d="m 2.6249791,1041.3935 0,6.75 c 0,0.966 0.68835,1.75 1.5625,1.75 l 39.6250099,0 c 0.87417,0 1.5625,-0.784 1.5625,-1.75 l 0,-6.75 L 2.6249791,1041.3935 Z"
       id="path874" />
    <g
       id="g2642"
       transform="translate(-2.0727585,-0.5627)">
      <path
         d="m 22.205555,1043.2415 1.153564,0 q 1.116944,0 1.508789,0.1026 0.395508,0.1025 0.600586,0.3369 0.205078,0.2344 0.256348,0.5237 0.05127,0.2856 0.05127,1.1279 l 0,2.0764 q 0,0.7983 -0.0769,1.0693 -0.07324,0.2674 -0.26001,0.4212 -0.186767,0.1501 -0.461425,0.2124 -0.274659,0.059 -0.827637,0.059 l -1.94458,0 L 22.205555,1043.2415 z m 1.541748,1.0144 0,3.9002 q 0.333252,0 0.410156,-0.1319 0.0769,-0.1355 0.0769,-0.7287 l 0,-2.3035 q 0,-0.4028 -0.02563,-0.5163 -0.02564,-0.1136 -0.117188,-0.1648 Q 23.999988,1044.2559 23.747303,1044.2559 Z"
         id="path841"
         inkscape:connector-curvature="0"
         style="font-size:7.5px;font-style:normal;font-variant:normal;font-weight:bold;font-stretch:normal;line-height:125%;letter-spacing:0px;word-spacing:0px;fill:#ffffff;fill-opacity:1;stroke:none;font-family:Impact;-inkscape-font-specification:Impact Bold" />
      <path
         d="m 26.351063,1043.2415 1.538086,0 q 0.728759,0 1.102295,0.1136 0.377197,0.1135 0.60791,0.4614 0.230713,0.3442 0.230713,1.1133 0,0.52 -0.164795,0.7251 -0.161133,0.205 -0.640869,0.3149 0.534667,0.1208 0.725097,0.4028 0.19043,0.2784 0.19043,0.857 l 0,0.5493 q 0,0.6006 -0.13916,0.8899 -0.135498,0.2893 -0.435791,0.3955 -0.300293,0.1062 -1.230469,0.1062 l -1.783447,0 L 26.351063,1043.2415 z m 1.541748,1.0144 0,1.3184 q 0.09888,0 0.153808,0 0.227051,0 0.289307,-0.1099 0.06226,-0.1135 0.06226,-0.6408 0,-0.2784 -0.05127,-0.3882 -0.05127,-0.1135 -0.135498,-0.1428 Q 28.130848,1044.2596 27.892811,1044.2559 z m 0,2.2412 0,1.659 q 0.325927,-0.011 0.413818,-0.1026 0.09155,-0.091 0.09155,-0.4504 l 0,-0.553 q 0,-0.3808 -0.08057,-0.4614 Q 28.237049,1046.5081 27.892811,1046.4971 Z"
         id="path843"
         inkscape:connector-curvature="0"
         style="font-size:7.5px;font-style:normal;font-variant:normal;font-weight:bold;font-stretch:normal;line-height:125%;letter-spacing:0px;word-spacing:0px;fill:#ffffff;fill-opacity:1;stroke:none;font-family:Impact;-inkscape-font-specification:Impact Bold" />
    </g>
    <g
       id="g7278"
       transform="matrix(0.8685244,0,0,0.8685244,4.6128921,150.00326)"
       style="fill:#ffffff">
      <path
         sodipodi:nodetypes="ccccccccccccc"
         inkscape:connector-curvature="0"
         id="path7232"
         d="m 10.182967,1008.2634 0,-11.92117 11.6336,0 c 0.38608,0.081 0.71327,0.2592 0.81154,0.8115 l 0,10.23277 -2.95231,-2.9523 0,-5.20027 -6.59023,0 0.003,6.64617 5.07258,0 2.89738,2.9137 -10.23556,0 C 10.548317,1008.6988 10.365637,1008.5331 10.183427,1008.2634 Z"
         style="fill:#ffffff;fill-opacity:1;stroke:none" />
      <path
         style="fill:#ffffff;fill-opacity:1;stroke:none"
         d="m 11.940767,1011.42 0,10.2788 9.8758,0 c 0.38608,-0.081 0.71327,-0.2592 0.81154,-0.8116 l 0.005,-8.3841 -2.84637,2.8474 0,3.4522 -5.05911,0 0.003,-5.0323 3.56786,0 2.89738,-2.8412 -8.61462,0 C 12.293967,1010.9852 12.105947,1011.0939 11.941707,1011.42 Z"
         id="path7234"
         inkscape:connector-curvature="0"
         sodipodi:nodetypes="cccccccccccccc" />
      <path
         sodipodi:nodetypes="cccccccccccccc"
         inkscape:connector-curvature="0"
         id="path7236"
         d="m 34.460817,1011.42 0,9.1245 -8.76289,0 c -0.38608,-0.081 -0.71327,-0.2592 -0.81153,-0.8115 l -0.005,-7.2299 2.84636,2.8474 0,2.3573 3.88504,0 -0.003,-3.9374 -2.47774,0 -2.89737,-2.8412 7.58566,0 C 34.107617,1010.9852 34.295647,1011.0939 34.459887,1011.42 Z"
         style="fill:#ffffff;fill-opacity:1;stroke:none" />
      <path
         style="fill:#ffffff;fill-opacity:1;stroke:none"
         d="m 33.094267,1008.26 0,-7.66 -7.39634,0 c -0.38608,0.082 -0.71327,0.2592 -0.81153,0.8116 l -0.005,5.8118 2.84636,-2.8475 0,-0.9391 2.53715,0 -0.003,2.5242 -0.93862,0 -3.0886,2.7899 6.21911,0 C 32.741067,1008.6949 32.929097,1008.5862 33.093337,1008.26 Z"
         id="path7238"
         inkscape:connector-curvature="0"
         sodipodi:nodetypes="cccccccccccccc" />
    </g>
  </g>
</svg>
