<?xml version="1.0" encoding="UTF-8" standalone="no"?>
<!-- Created with Inkscape (http://www.inkscape.org/) -->

<svg
   xmlns:dc="http://purl.org/dc/elements/1.1/"
   xmlns:cc="http://creativecommons.org/ns#"
   xmlns:rdf="http://www.w3.org/1999/02/22-rdf-syntax-ns#"
   xmlns:svg="http://www.w3.org/2000/svg"
   xmlns="http://www.w3.org/2000/svg"
   xmlns:xlink="http://www.w3.org/1999/xlink"
   xmlns:sodipodi="http://sodipodi.sourceforge.net/DTD/sodipodi-0.dtd"
   xmlns:inkscape="http://www.inkscape.org/namespaces/inkscape"
   width="48"
   height="48"
   id="svg6654"
   version="1.1"
   inkscape:version="0.48+devel r12012"
   sodipodi:docname="text-x-perl.svg">
  <defs
     id="defs6656">
    <linearGradient
       id="linearGradient971">
      <stop
         id="stop973"
         offset="0"
         style="stop-color:#5f8dd3;stop-opacity:1" />
      <stop
         id="stop975"
         offset="1"
         style="stop-color:#0088aa;stop-opacity:1" />
    </linearGradient>
    <linearGradient
       y2="468.35892"
       x2="314.34872"
       y1="425.61682"
       x1="314.34872"
       gradientTransform="translate(-123.48961,387.43992)"
       gradientUnits="userSpaceOnUse"
       id="linearGradient1679"
       xlink:href="#linearGradient971"
       inkscape:collect="always" />
    <linearGradient
       id="linearGradient6707">
      <stop
         id="stop6709"
         offset="0"
         style="stop-color:#000000;stop-opacity:1;" />
      <stop
         id="stop6711"
         offset="1"
         style="stop-color:#ffffff;stop-opacity:1;" />
    </linearGradient>
    <linearGradient
       y2="442.7843"
       x2="262.01361"
       y1="471.95245"
       x1="262.01361"
       gradientTransform="translate(-69.686184,387.43266)"
       gradientUnits="userSpaceOnUse"
       id="linearGradient1696"
       xlink:href="#linearGradient6707"
       inkscape:collect="always" />
  </defs>
  <sodipodi:namedview
     id="base"
     pagecolor="#ffffff"
     bordercolor="#666666"
     borderopacity="1.0"
     inkscape:pageopacity="0.0"
     inkscape:pageshadow="2"
     inkscape:zoom="5.6"
     inkscape:cx="-45.655346"
     inkscape:cy="42.728213"
     inkscape:document-units="px"
     inkscape:current-layer="layer1"
     showgrid="false"
     fit-margin-top="0"
     fit-margin-left="0"
     fit-margin-right="0"
     fit-margin-bottom="0"
     inkscape:window-width="1366"
     inkscape:window-height="718"
     inkscape:window-x="0"
     inkscape:window-y="28"
     inkscape:window-maximized="1" />
  <metadata
     id="metadata6659">
    <rdf:RDF>
      <cc:Work
         rdf:about="">
        <dc:format>image/svg+xml</dc:format>
        <dc:type
           rdf:resource="http://purl.org/dc/dcmitype/StillImage" />
        <dc:title />
      </cc:Work>
    </rdf:RDF>
  </metadata>
  <g
     inkscape:label="Capa 1"
     inkscape:groupmode="layer"
     id="layer1"
     transform="translate(-167.42857,-811.2193)">
    <path
       style="opacity:0.5;fill:#000000;fill-opacity:1;stroke:none"
       d="m 171.22712,813.13731 40.4029,0 c 0.89692,0 1.619,0.79795 1.619,1.78913 l 0,40.58571 c 0,0.9912 -0.72207,1.78914 -1.619,1.78914 l -40.4029,0 c -0.89692,0 -1.61899,-0.79795 -1.61899,-1.78914 l 0,-40.58571 C 169.60813,813.93526 170.33019,813.13731 171.22712,813.13731 Z"
       id="rect3922"
       inkscape:connector-curvature="0" />
    <path
       inkscape:connector-curvature="0"
       id="path869"
       d="m 171.63133,813.69776 39.59446,0 c 0.87417,0 1.57791,0.77771 1.57791,1.74374 l 0,39.5556 c 0,0.96604 -0.70375,1.74374 -1.57791,1.74374 l -39.59445,0 c -0.87416,0 -1.5779,-0.7777 -1.5779,-1.74374 l 0,-39.5556 C 170.05343,814.47547 170.75718,813.69776 171.63133,813.69776 Z"
       style="fill:url(#linearGradient1679);fill-opacity:1.0;stroke:none" />
    <rect
       style="opacity:0.35648151;fill:none;stroke:none"
       id="rect4543"
       width="48"
       height="48"
       x="167.42857"
       y="811.2193" />
    <path
       inkscape:connector-curvature="0"
       style="fill:url(#linearGradient1696);fill-opacity:1;stroke:none"
       d="m 170.05357,848.24084 0,6.75 c 0,0.96604 0.68835,1.75 1.5625,1.75 l 39.625,0 c 0.87417,0 1.5625,-0.78396 1.5625,-1.75 l 0,-6.75 L 170.05357,848.24084 Z"
       id="path874" />
    <g
       id="g1122"
       transform="translate(0,72.142857)"
       style="fill:#000000">
      <path
         sodipodi:nodetypes="cccc"
         inkscape:connector-curvature="0"
         id="polygon27"
         d="M 187.089,187.54 175.00599,102.74623 140.42585,146.58055 Z"
         style="fill:#000000;fill-opacity:0.52571429;fill-rule:evenodd"
         transform="matrix(0.1091782,0,0,0.1091782,180.39827,819.04704)" />
      <path
         id="polygon38"
         transform="translate(167.42857,811.2193)"
         d="M 20.3125,21.25 17.4375,29.375 33.40625,28.3125 23.34375,27.5 23.25,27.53125 20.3125,21.25 Z"
         style="fill:#000000;fill-opacity:0.52571429;fill-rule:evenodd"
         inkscape:connector-curvature="0" />
      <polygon
         style="fill:#000000;fill-opacity:0.52571429;fill-rule:evenodd"
         id="polygon68"
         transform="matrix(0.09683971,0,0,0.09701355,182.12813,820.82527)"
         points="58.33,120.01 140.2,146.18 119,63.14 " />
      <path
         sodipodi:nodetypes="cccc"
         inkscape:connector-curvature="0"
         id="polygon96"
         d="M 166.5,0.77 136.81789,16.518647 112.50197,-0.78110866 Z"
         style="fill:#000000;fill-opacity:0.52571429;fill-rule:evenodd"
         transform="matrix(0.1091782,0,0,0.1091782,180.39827,819.04704)" />
      <path
         style="fill:#000000;fill-opacity:0.52571429;fill-rule:evenodd"
         id="path111"
         inkscape:connector-curvature="0"
         d="m 180.61007,830.03583 1.25556,3.56139 5.45563,-1.224 6.22862,-5.78863 1.75777,-5.58326 -2.76778,-1.95429 -4.70558,1.76104 c -1.48253,1.37893 -4.35938,4.10729 -4.46309,4.1586 C 183.26856,825.01909 181.47149,828.41562 180.61007,830.03583 Z" />
      <path
         transform="translate(167.42857,811.2193)"
         id="path169"
         d="m 27.8125,9.75 6.25,5.0625 c -0.01723,0.04601 -0.01091,0.11411 -0.03125,0.15625 -0.06689,0.13859 -0.151834,0.271917 -0.21875,0.40625 L 26.15625,15.34375 31.25,18.5 l 0.03125,0.03125 0.8125,0.5 c 0.732686,-1.042317 1.291302,-2.272381 1.71875,-3.40625 l 0.28125,-0.53125 -0.78125,11.78125 0.0625,1.34375 1.15625,-15.3125 0.03125,-0.125 c 0.01902,-0.178245 0.0252,-0.353248 0.03125,-0.53125 0.01814,-0.533392 -0.0264,-1.064432 -0.15625,-1.5625 L 27.8125,9.75 Z"
         style="fill:#000000;fill-opacity:0.52571429;fill-rule:evenodd"
         inkscape:connector-curvature="0" />
      <path
         style="fill:#000000;fill-opacity:0.52571429;fill-rule:evenodd"
         id="path206"
         inkscape:connector-curvature="0"
         d="m 181.8558,833.58849 -0.47274,5.62922 c 0.89198,1.21843 2.11915,1.32433 3.40636,1.22935 C 183.85813,838.12921 181.99773,833.49459 181.8558,833.58849 Z" />
      <path
         sodipodi:nodetypes="cccc"
         inkscape:connector-curvature="0"
         id="polygon109"
         d="M 0,158.09 14.840843,132.63748 -0.38498185,102.80008 Z"
         style="fill:#000000;fill-opacity:0.52571429;fill-rule:evenodd"
         transform="matrix(0.10909286,-0.00431598,0.00431598,0.10909286,179.64902,819.21488)" />
    </g>
    <path
       style="fill:#ffffff;fill-opacity:0.49142857"
       d="m 185.58226,843.94283 c -0.52783,-0.13747 -0.47468,-0.28501 0.39557,-1.09794 1.49864,-1.39994 1.74825,-2.79474 1.32165,-7.38513 -0.34012,-3.6597 -0.41642,-3.94002 -0.98895,-3.6336 -1.23881,0.66299 -2.78685,-0.19204 -4.54434,-2.50999 -0.86897,-1.14607 -0.95142,-1.48194 -0.80222,-3.26798 0.0915,-1.09484 0.27834,-2.41632 0.41529,-2.93661 0.2103,-0.79899 0.1424,-0.946 -0.43697,-0.946 -0.37729,0 -0.8811,-0.2351 -1.11957,-0.52245 -0.60044,-0.72348 0.46979,-1.88553 1.73653,-1.88553 0.51511,0 1.12926,-0.2322 1.3648,-0.516 0.60806,-0.73266 1.53799,-0.63955 2.58207,0.25854 1.10985,0.95464 1.48772,3.16509 0.8641,5.05468 -0.70489,2.13581 -0.21529,2.3451 0.77084,0.32952 0.55178,-1.1278 1.33083,-2.11154 1.9722,-2.49041 0.58308,-0.34443 1.43515,-1.2203 1.8935,-1.94637 0.45835,-0.72607 1.03313,-1.44799 1.27729,-1.60425 0.74948,-0.47969 2.8117,-1.13906 3.57953,-1.14452 1.04743,-0.007 2.45226,1.21848 2.70265,2.35848 0.11829,0.53861 0.74938,1.80859 1.40239,2.82219 0.65303,1.0136 1.18732,2.02034 1.18732,2.23721 0,0.21685 0.4644,0.97865 1.032,1.69289 0.85005,1.06965 1.02945,1.60864 1.01757,3.05728 -0.0163,1.98675 -1.08654,4.51957 -1.47834,3.49856 -0.12362,-0.32215 -0.0718,-0.8716 0.11523,-1.221 0.39065,-0.72993 0.0456,-3.96864 -0.37758,-3.54534 -0.2953,0.2953 -0.48826,3.45489 -0.40543,6.63844 0.10757,4.13401 -0.0934,8.03166 -0.41944,8.13537 -0.83334,0.26504 -1.19757,-0.42236 -0.8556,-1.61472 0.51516,-1.79625 0.40926,-6.57183 -0.16246,-7.32637 -0.2641,-0.34855 -0.58225,-1.23783 -0.70699,-1.97618 -0.12474,-0.73836 -0.36154,-1.42574 -0.52622,-1.52752 -0.54228,-0.33513 -1.36071,1.8346 -1.36071,3.60732 0,1.38748 -0.20911,2.02872 -1.032,3.16468 -1.16446,1.60749 -1.25554,2.08363 -0.516,2.6974 0.57678,0.47868 0.68884,1.57256 0.19251,1.87931 -0.17792,0.10996 -0.64232,-0.14229 -1.03199,-0.56056 -0.551,-0.59142 -0.70851,-0.64027 -0.70851,-0.21974 0,0.6292 -1.27517,1.05557 -1.97899,0.66171 -0.3767,-0.21082 -0.28783,-0.3981 0.40404,-0.85143 1.23222,-0.80738 1.11343,-1.46976 -0.53361,-2.97531 -1.28384,-1.17353 -1.39816,-1.40977 -1.18767,-2.45423 0.66609,-3.30531 0.66339,-3.39171 -0.10611,-3.39171 -0.504,0 -0.72563,0.21705 -0.72563,0.71061 0,0.39084 -0.17084,1.02983 -0.37964,1.41997 -0.36839,0.68834 -0.47826,1.24185 -1.36955,6.89937 C 187.61064,844.33495 187.50101,844.44257 185.58226,843.94283 z m 9.23646,-6.00505 c 0.44677,-0.86395 0.51167,-1.60366 0.3201,-3.64804 -0.25455,-2.71649 -0.44136,-2.81106 -1.18558,-0.60023 -0.25476,0.7568 -0.75076,1.74517 -1.10222,2.19638 -0.8186,1.05093 -0.80385,1.36781 0.10893,2.33942 C 193.93705,839.26539 194.14916,839.23258 194.81872,837.93778 Z"
       id="path1119"
       inkscape:connector-curvature="0" />
    <g
       transform="translate(226.38175,816.74103)"
       style="font-size:7.5px;font-style:normal;font-variant:normal;font-weight:bold;font-stretch:normal;line-height:125%;letter-spacing:0px;word-spacing:0px;fill:#ffffff;fill-opacity:1;stroke:none;font-family:Impact;-inkscape-font-specification:Impact Bold"
       id="text1121">
      <path
         d="m -41.65667,32.785332 1.552735,0 q 0.629883,0 0.966797,0.09888 0.340576,0.09888 0.509033,0.285644 0.172119,0.186768 0.230713,0.454102 0.06226,0.263672 0.06226,0.820312 l 0,0.516358 q 0,0.567627 -0.117188,0.827636 -0.117187,0.26001 -0.432129,0.39917 -0.311279,0.13916 -0.81665,0.13916 l -0.413819,0 0,2.387696 -1.541748,0 L -41.65667,32.785332 z m 1.541748,1.014404 0,1.508789 q 0.06592,0.0037 0.113526,0.0037 0.212402,0 0.292969,-0.102539 0.08423,-0.106201 0.08423,-0.435791 l 0,-0.48706 q 0,-0.303956 -0.09522,-0.395508 Q -39.814629,33.799736 -40.114922,33.799736 Z"
         id="path1126"
         inkscape:connector-curvature="0" />
      <path
         d="m -37.892021,32.785332 2.570801,0 0,1.186523 -1.029053,0 0,1.124268 0.963135,0 0,1.127929 -0.963135,0 0,1.303711 1.131592,0 0,1.186524 -2.67334,0 L -37.892021,32.785332 Z"
         id="path1128"
         inkscape:connector-curvature="0" />
      <path
         d="m -34.771904,32.785332 1.091309,0 q 1.091308,0 1.47583,0.08423 0.388183,0.08423 0.629882,0.432129 0.245362,0.344238 0.245362,1.102295 0,0.692139 -0.172119,0.930176 -0.172119,0.238037 -0.677491,0.285644 0.457764,0.113526 0.615235,0.303955 0.157471,0.19043 0.194092,0.351563 0.04028,0.157471 0.04028,0.875244 l 0,1.563721 -1.431885,0 0,-1.970215 q 0,-0.476074 -0.0769,-0.5896 -0.07324,-0.113525 -0.391846,-0.113525 l 0,2.67334 -1.541748,0 L -34.771904,32.785332 z m 1.541748,1.014404 0,1.318359 q 0.26001,0 0.362549,-0.06958 0.106201,-0.07324 0.106201,-0.465088 l 0,-0.325927 q 0,-0.281983 -0.102539,-0.369873 Q -32.962822,33.799736 -33.230156,33.799736 Z"
         id="path1130"
         inkscape:connector-curvature="0" />
      <path
         d="m -29.187187,32.785332 0,4.742431 0.9375,0 0,1.186524 -2.479248,0 0,-5.928955 L -29.187187,32.785332 Z"
         id="path1132"
         inkscape:connector-curvature="0" />
    </g>
  </g>
</svg>
