<?xml version="1.0" encoding="UTF-8" standalone="no"?>
<!-- Created with Inkscape (http://www.inkscape.org/) -->

<svg
   xmlns:dc="http://purl.org/dc/elements/1.1/"
   xmlns:cc="http://creativecommons.org/ns#"
   xmlns:rdf="http://www.w3.org/1999/02/22-rdf-syntax-ns#"
   xmlns:svg="http://www.w3.org/2000/svg"
   xmlns="http://www.w3.org/2000/svg"
   xmlns:xlink="http://www.w3.org/1999/xlink"
   xmlns:sodipodi="http://sodipodi.sourceforge.net/DTD/sodipodi-0.dtd"
   xmlns:inkscape="http://www.inkscape.org/namespaces/inkscape"
   width="48"
   height="48"
   id="svg6654"
   version="1.1"
   inkscape:version="0.48+devel r12012"
   sodipodi:docname="application-x-theme.svg">
  <defs
     id="defs6656">
    <linearGradient
       id="linearGradient1085">
      <stop
         id="stop1087"
         offset="0"
         style="stop-color:#ff2a7f;stop-opacity:1" />
      <stop
         id="stop1089"
         offset="1"
         style="stop-color:#d40055;stop-opacity:1" />
    </linearGradient>
    <linearGradient
       y2="468.35892"
       x2="314.34872"
       y1="425.61682"
       x1="314.34872"
       gradientTransform="translate(-123.48961,387.43992)"
       gradientUnits="userSpaceOnUse"
       id="linearGradient1679"
       xlink:href="#linearGradient1085"
       inkscape:collect="always" />
    <linearGradient
       id="linearGradient6707">
      <stop
         id="stop6709"
         offset="0"
         style="stop-color:#000000;stop-opacity:1;" />
      <stop
         id="stop6711"
         offset="1"
         style="stop-color:#ffffff;stop-opacity:1;" />
    </linearGradient>
    <linearGradient
       y2="442.7843"
       x2="262.01361"
       y1="471.95245"
       x1="262.01361"
       gradientTransform="translate(-69.686184,387.43266)"
       gradientUnits="userSpaceOnUse"
       id="linearGradient1696"
       xlink:href="#linearGradient6707"
       inkscape:collect="always" />
  </defs>
  <sodipodi:namedview
     id="base"
     pagecolor="#ffffff"
     bordercolor="#666666"
     borderopacity="1.0"
     inkscape:pageopacity="0.0"
     inkscape:pageshadow="2"
     inkscape:zoom="7.919596"
     inkscape:cx="-7.6547701"
     inkscape:cy="16.721022"
     inkscape:document-units="px"
     inkscape:current-layer="layer1"
     showgrid="false"
     fit-margin-top="0"
     fit-margin-left="0"
     fit-margin-right="0"
     fit-margin-bottom="0"
     inkscape:window-width="1366"
     inkscape:window-height="718"
     inkscape:window-x="0"
     inkscape:window-y="28"
     inkscape:window-maximized="1" />
  <metadata
     id="metadata6659">
    <rdf:RDF>
      <cc:Work
         rdf:about="">
        <dc:format>image/svg+xml</dc:format>
        <dc:type
           rdf:resource="http://purl.org/dc/dcmitype/StillImage" />
        <dc:title />
      </cc:Work>
    </rdf:RDF>
  </metadata>
  <g
     inkscape:label="Capa 1"
     inkscape:groupmode="layer"
     id="layer1"
     transform="translate(-167.42857,-811.2193)">
    <path
       style="opacity:0.5;fill:#000000;fill-opacity:1;stroke:none"
       d="m 171.22712,813.13731 40.4029,0 c 0.89692,0 1.619,0.79795 1.619,1.78913 l 0,40.58571 c 0,0.9912 -0.72207,1.78914 -1.619,1.78914 l -40.4029,0 c -0.89692,0 -1.61899,-0.79795 -1.61899,-1.78914 l 0,-40.58571 C 169.60813,813.93526 170.33019,813.13731 171.22712,813.13731 Z"
       id="rect3922"
       inkscape:connector-curvature="0" />
    <path
       inkscape:connector-curvature="0"
       id="path869"
       d="m 171.63133,813.69776 39.59446,0 c 0.87417,0 1.57791,0.77771 1.57791,1.74374 l 0,39.5556 c 0,0.96604 -0.70375,1.74374 -1.57791,1.74374 l -39.59445,0 c -0.87416,0 -1.5779,-0.7777 -1.5779,-1.74374 l 0,-39.5556 C 170.05343,814.47547 170.75718,813.69776 171.63133,813.69776 Z"
       style="fill:url(#linearGradient1679);fill-opacity:1.0;stroke:none" />
    <rect
       style="opacity:0.35648151;fill:none;stroke:none"
       id="rect4543"
       width="48"
       height="48"
       x="167.42857"
       y="811.2193" />
    <path
       inkscape:connector-curvature="0"
       style="fill:url(#linearGradient1696);fill-opacity:1;stroke:none"
       d="m 170.05357,848.24084 0,6.75 c 0,0.96604 0.68835,1.75 1.5625,1.75 l 39.625,0 c 0.87417,0 1.5625,-0.78396 1.5625,-1.75 l 0,-6.75 L 170.05357,848.24084 Z"
       id="path874" />
    <path
       style="fill:#ffffff;fill-opacity:1;fill-rule:nonzero;stroke:none"
       d="m 182.48793,819.01474 0,0.0234 -9.34061,5.38791 4.35266,7.57604 4.98795,-2.87044 0,14.21088 17.85779,0 0,-14.21088 4.98788,2.87044 4.37622,-7.57604 -9.3641,-5.38791 0,-0.0234 -0.0234,0 -3.5292,0 c -0.69282,2.31115 -2.82179,3.97619 -5.3644,3.97619 -2.5426,0 -4.6951,-1.66504 -5.38789,-3.97619 l -3.5057,0 L 182.48793,819.01474 Z"
       id="rect981"
       inkscape:connector-curvature="0" />
    <g
       style="font-size:7.5px;font-style:normal;font-variant:normal;font-weight:bold;font-stretch:normal;line-height:125%;letter-spacing:0px;word-spacing:0px;fill:#ffffff;fill-opacity:1;stroke:none;font-family:Impact;-inkscape-font-specification:Impact Bold"
       id="text998">
      <path
         d="m 185.27257,849.52637 0,1.18652 -0.91553,0 0,4.74243 -1.54175,0 0,-4.74243 -0.91186,0 0,-1.18652 L 185.27257,849.52637 Z"
         style="fill:#ffffff"
         id="path1003" />
      <path
         d="m 189.16905,849.52637 0,5.92895 -1.54175,0 0,-2.49023 -0.46142,0 0,2.49023 -1.54175,0 0,-5.92895 1.54175,0 0,2.12036 0.46142,0 0,-2.12036 L 189.16905,849.52637 Z"
         style="fill:#ffffff"
         id="path1005" />
      <path
         d="m 189.78429,849.52637 2.5708,0 0,1.18652 -1.02906,0 0,1.12427 0.96314,0 0,1.12793 -0.96314,0 0,1.30371 1.1316,0 0,1.18652 -2.67334,0 L 189.78429,849.52637 Z"
         style="fill:#ffffff"
         id="path1007" />
      <path
         d="m 197.66148,849.52637 0,5.92895 -1.34765,0 0,-4.00268 -0.53833,4.00268 -0.95581,0 -0.56763,-3.91113 0,3.91113 -1.34766,0 0,-5.92895 1.99585,0 q 0.0879,0.53467 0.18677,1.25976 l 0.2124,1.50879 0.35157,-2.76855 L 197.66148,849.52637 Z"
         style="fill:#ffffff"
         id="path1009" />
      <path
         d="m 198.28038,849.52637 2.5708,0 0,1.18652 -1.02905,0 0,1.12427 0.96313,0 0,1.12793 -0.96313,0 0,1.30371 1.13159,0 0,1.18652 -2.67334,0 L 198.28038,849.52637 Z"
         style="fill:#ffffff"
         id="path1011" />
    </g>
  </g>
</svg>
