<?xml version="1.0" encoding="UTF-8" standalone="no"?>
<!-- Created with Inkscape (http://www.inkscape.org/) -->

<svg
   xmlns:dc="http://purl.org/dc/elements/1.1/"
   xmlns:cc="http://creativecommons.org/ns#"
   xmlns:rdf="http://www.w3.org/1999/02/22-rdf-syntax-ns#"
   xmlns:svg="http://www.w3.org/2000/svg"
   xmlns="http://www.w3.org/2000/svg"
   xmlns:xlink="http://www.w3.org/1999/xlink"
   xmlns:sodipodi="http://sodipodi.sourceforge.net/DTD/sodipodi-0.dtd"
   xmlns:inkscape="http://www.inkscape.org/namespaces/inkscape"
   width="48"
   height="48"
   id="svg6407"
   version="1.1"
   inkscape:version="0.48+devel r11821"
   sodipodi:docname="text-x-c++hdr.svg">
  <defs
     id="defs6409">
    <linearGradient
       y2="468.35892"
       x2="314.34872"
       y1="425.61682"
       x1="314.34872"
       gradientTransform="translate(370.7961,227.43994)"
       gradientUnits="userSpaceOnUse"
       id="linearGradient887"
       xlink:href="#linearGradient1069-5"
       inkscape:collect="always" />
    <linearGradient
       id="linearGradient1069-5">
      <stop
         style="stop-color:#bcd35f;stop-opacity:1"
         offset="0"
         id="stop1071-6" />
      <stop
         style="stop-color:#44aa00;stop-opacity:1"
         offset="1"
         id="stop1073-0" />
    </linearGradient>
    <linearGradient
       inkscape:collect="always"
       xlink:href="#linearGradient918-1"
       id="linearGradient912"
       x1="462.37933"
       y1="837.0611"
       x2="463.75925"
       y2="835.67212"
       gradientUnits="userSpaceOnUse"
       gradientTransform="translate(237.14285,-177.14286)" />
    <linearGradient
       id="linearGradient918-1">
      <stop
         id="stop920-5"
         offset="0"
         style="stop-color:#f6f6f6;stop-opacity:1" />
      <stop
         id="stop922-7"
         offset="1"
         style="stop-color:#e2e2e2;stop-opacity:1" />
    </linearGradient>
    <linearGradient
       gradientTransform="translate(424.59953,227.44239)"
       inkscape:collect="always"
       xlink:href="#linearGradient6707"
       id="linearGradient1110"
       x1="262.01361"
       y1="471.95245"
       x2="262.01361"
       y2="442.7843"
       gradientUnits="userSpaceOnUse" />
    <linearGradient
       id="linearGradient6707">
      <stop
         id="stop6709"
         offset="0"
         style="stop-color:#000000;stop-opacity:1;" />
      <stop
         id="stop6711"
         offset="1"
         style="stop-color:#ffffff;stop-opacity:1;" />
    </linearGradient>
  </defs>
  <sodipodi:namedview
     id="base"
     pagecolor="#ffffff"
     bordercolor="#666666"
     borderopacity="1.0"
     inkscape:pageopacity="0.0"
     inkscape:pageshadow="2"
     inkscape:zoom="5.6"
     inkscape:cx="-37.825735"
     inkscape:cy="34.144913"
     inkscape:document-units="px"
     inkscape:current-layer="layer1"
     showgrid="false"
     fit-margin-top="0"
     fit-margin-left="0"
     fit-margin-right="0"
     fit-margin-bottom="0"
     inkscape:window-width="1366"
     inkscape:window-height="718"
     inkscape:window-x="0"
     inkscape:window-y="0"
     inkscape:window-maximized="1" />
  <metadata
     id="metadata6412">
    <rdf:RDF>
      <cc:Work
         rdf:about="">
        <dc:format>image/svg+xml</dc:format>
        <dc:type
           rdf:resource="http://purl.org/dc/dcmitype/StillImage" />
        <dc:title />
      </cc:Work>
    </rdf:RDF>
  </metadata>
  <g
     inkscape:label="Capa 1"
     inkscape:groupmode="layer"
     id="layer1"
     transform="translate(-661.71429,-651.21932)">
    <path
       style="opacity:0.5;fill:#000000;fill-opacity:1;stroke:none"
       d="m 665.52679,653.12557 c -0.89692,0 -1.625,0.82132 -1.625,1.8125 l 0,40.5625 c 0,0.99119 0.72808,1.8125 1.625,1.8125 l 40.375,0 c 0.89693,0 1.625,-0.8213 1.625,-1.8125 l 0,-32 -10.40625,-10.375 L 665.52679,653.12557 Z"
       id="rect3922-2"
       inkscape:connector-curvature="0" />
    <path
       style="fill:url(#linearGradient887);fill-opacity:1;stroke:none"
       d="m 665.90179,653.68807 c -0.87415,0 -1.5625,0.78397 -1.5625,1.75 l 0,39.5625 c 0,0.96604 0.68834,1.75 1.5625,1.75 l 39.625,0 c 0.87416,0 1.5625,-0.78396 1.5625,-1.75 l 0,-31.125 -10.21875,-10.1875 L 665.90179,653.68807 Z"
       id="path869-2"
       inkscape:connector-curvature="0" />
    <path
       inkscape:connector-curvature="0"
       style="opacity:0.5;fill:#000000;fill-opacity:1;stroke:none"
       d="m 707.19978,664.01762 -10.53539,-10.50317 0,8.69895 c 0,0.99596 0.70967,1.80422 1.61092,1.80422 L 707.19978,664.01762 Z"
       id="path914" />
    <path
       id="path902"
       d="m 707.08929,663.87557 -10.21875,-10.1875 0,8.4375 c 0,0.96603 0.68834,1.75 1.5625,1.75 L 707.08929,663.87557 Z"
       style="fill:url(#linearGradient912);fill-opacity:1;stroke:none"
       inkscape:connector-curvature="0" />
    <g
       transform="matrix(0.78487392,0,0,0.78487392,704.03578,651.44996)"
       style="font-size:1.25px;font-style:normal;font-variant:normal;font-weight:bold;font-stretch:normal;line-height:125%;letter-spacing:0px;word-spacing:0px;fill:#ffffff;fill-opacity:1;stroke:none;font-family:Anonymous;-inkscape-font-specification:Anonymous Bold"
       id="flowRoot1150">
      <path
         d="m -37.179545,7.4399621 -0.168182,0 0,0.1681818 -0.08295,0 0,-0.1681818 -0.193182,0 0,0.1681818 -0.08295,0 0,-0.1681818 -0.168182,0 0,-0.082954 0.168182,0 0,-0.1931818 -0.168182,0 0,-0.081818 0.168182,0 0,-0.1681818 0.08295,0 0,0.1681818 0.193182,0 0,-0.1681818 0.08295,0 0,0.1681818 0.168182,0 0,0.081818 -0.168182,0 0,0.1931818 0.168182,0 L -37.179545,7.4399621 z m -0.251137,-0.082954 0,-0.1931818 -0.193182,0 0,0.1931818 L -37.430682,7.3570076 Z"
         id="path1411"
         inkscape:connector-curvature="0" />
      <path
         d="m -36.62413,7.0513258 -0.1375,0 0,-0.1386364 0.1375,0 L -36.62413,7.0513258 z m 0.139773,0.8340909 -0.417046,0 0,-0.090909 0.156818,0 0,-0.5136364 -0.156818,0 0,-0.090909 0.260228,0 0,0.6045455 0.156818,0 L -36.484357,7.8854167 Z"
         id="path1413"
         inkscape:connector-curvature="0" />
      <path
         d="m -35.540305,7.8854167 -0.104546,0 0,-0.4284091 q 0,-0.1852273 -0.152273,-0.1852273 -0.12159,0 -0.195454,0.090909 -0.07045,0.085227 -0.07045,0.2113636 l 0,0.3113637 -0.104545,0 0,-0.6954546 0.104545,0 0,0.175 q 0.07273,-0.1920454 0.265909,-0.1920454 0.256819,0 0.256819,0.2840909 L -35.540305,7.8854167 Z"
         id="path1415"
         inkscape:connector-curvature="0" />
      <path
         d="m -34.700799,7.7547348 q -0.09432,0.15 -0.302273,0.15 -0.171591,0 -0.272727,-0.1113636 -0.09318,-0.1011364 -0.09318,-0.2545454 0,-0.1545455 0.08636,-0.2545455 0.09545,-0.1113636 0.265909,-0.1113636 0.07727,0 0.140909,0.039773 0.06364,0.039773 0.07727,0.090909 l 0,-0.1136364 0.09091,0 0,0.2772727 -0.09091,0 q 0,-0.089773 -0.07159,-0.153409 -0.06705,-0.056818 -0.146591,-0.056818 -0.127273,0 -0.193182,0.089773 -0.05568,0.076136 -0.05568,0.1920455 0,0.1136363 0.0625,0.1920454 0.07159,0.089773 0.2,0.089773 0.07727,0 0.139773,-0.031818 0.0625,-0.032955 0.09091,-0.084091 L -34.700799,7.7547348 Z"
         id="path1417"
         inkscape:connector-curvature="0" />
      <path
         d="m -33.978338,7.8854167 -0.417046,0 0,-0.090909 0.155682,0 0,-0.7920455 -0.155682,0 0,-0.089773 0.260228,0 0,0.8818182 0.156818,0 L -33.978338,7.8854167 Z"
         id="path1419"
         inkscape:connector-curvature="0" />
      <path
         d="m -33.036559,7.8854167 -0.104545,0 0,-0.175 q -0.07273,0.1920454 -0.265909,0.1920454 -0.256819,0 -0.256819,-0.2840909 l 0,-0.4284091 0.104546,0 0,0.4284091 q 0,0.1863636 0.152273,0.1863636 0.12159,0 0.195454,-0.090909 0.07046,-0.086364 0.07046,-0.2125 l 0,-0.3113637 0.104545,0 L -33.036559,7.8854167 Z"
         id="path1421"
         inkscape:connector-curvature="0" />
      <path
         d="m -32.205007,7.8854167 -0.104546,0 0,-0.054546 q -0.09432,0.073864 -0.204545,0.073864 -0.170455,0 -0.265909,-0.1113636 -0.08636,-0.1 -0.08636,-0.2545454 0,-0.1545455 0.08636,-0.2545455 0.09545,-0.1113636 0.265909,-0.1113636 0.110227,0 0.204545,0.073864 l 0,-0.2443182 -0.136363,0 0,-0.089773 0.240909,0 L -32.205007,7.8854167 z m -0.104546,-0.1602273 0,-0.3727273 q -0.09091,-0.095455 -0.204545,-0.095455 -0.127273,0 -0.193182,0.089773 -0.05568,0.076136 -0.05568,0.1920455 0,0.115909 0.05568,0.1920454 0.06591,0.089773 0.193182,0.089773 Q -32.400462,7.8206439 -32.309553,7.7251894 Z"
         id="path1423"
         inkscape:connector-curvature="0" />
      <path
         d="m -31.328001,7.574053 -0.597727,0 q 0.01023,0.1034091 0.07159,0.1704546 0.07045,0.076136 0.1875,0.076136 0.07727,0 0.139773,-0.031818 0.0625,-0.032955 0.09091,-0.084091 l 0.07159,0.05 q -0.09432,0.15 -0.302273,0.15 -0.170455,0 -0.271591,-0.1113636 -0.09432,-0.1011364 -0.09432,-0.2545454 0,-0.1545455 0.0875,-0.2545455 0.09545,-0.1113636 0.264773,-0.1113636 0.186363,0 0.278409,0.1284091 Q -31.328001,7.4058712 -31.328001,7.574053 z m -0.109091,-0.090909 q -0.03295,-0.2261363 -0.243181,-0.2261363 -0.110228,0 -0.175,0.069318 -0.05568,0.059091 -0.06932,0.1568181 L -31.437092,7.4831439 Z"
         id="path1425"
         inkscape:connector-curvature="0" />
      <path
         d="m -30.606676,7.7217803 -0.05909,0.059091 -0.380682,-0.3806818 0.380682,-0.3818182 0.05909,0.059091 -0.322727,0.3227273 L -30.606676,7.7217803 Z"
         id="path1427"
         inkscape:connector-curvature="0" />
      <path
         d="m -29.684215,7.6922348 q 0,0.094318 -0.0875,0.1522728 -0.09091,0.060227 -0.245455,0.060227 -0.09659,0 -0.197727,-0.030682 -0.09432,-0.028409 -0.154545,-0.070455 l 0.04659,-0.088636 q 0.148864,0.1068182 0.305682,0.1068182 0.229546,0 0.229546,-0.1261364 0,-0.073864 -0.144318,-0.096591 -0.207955,-0.028409 -0.26591,-0.045454 -0.144318,-0.046591 -0.144318,-0.1772727 0,-0.082955 0.08409,-0.1397728 0.09091,-0.0625 0.240909,-0.0625 0.178409,0 0.295455,0.081818 l -0.04091,0.079546 q -0.09318,-0.077273 -0.254546,-0.077273 -0.09659,0 -0.156818,0.030682 -0.06364,0.031818 -0.06364,0.0875 0,0.072727 0.143182,0.096591 0.195454,0.027273 0.267045,0.045454 Q -29.684215,7.5649621 -29.684215,7.6922348 Z"
         id="path1429"
         inkscape:connector-curvature="0" />
      <path
         d="m -28.819709,7.6638258 q -0.01136,0.103409 -0.07954,0.1693181 -0.07386,0.070455 -0.192046,0.070455 -0.128409,0 -0.204545,-0.082955 -0.07045,-0.076136 -0.07045,-0.1909091 l 0,-0.3488636 -0.155682,0 0,-0.089773 0.155682,0 0,-0.2784091 0.104546,0 0,0.2784091 0.293182,0 0,0.089773 -0.293182,0 0,0.3488636 q 0,0.073864 0.04091,0.1238637 0.04659,0.059091 0.129545,0.059091 0.07955,0 0.126137,-0.054545 0.03977,-0.047727 0.04318,-0.1181818 L -28.819709,7.6638258 Z"
         id="path1431"
         inkscape:connector-curvature="0" />
      <path
         d="m -28.030202,7.8854167 -0.104546,0 0,-0.054546 q -0.09432,0.073864 -0.204545,0.073864 -0.170455,0 -0.265909,-0.1113636 -0.08636,-0.1 -0.08636,-0.2545454 0,-0.1545455 0.08636,-0.2545455 0.09545,-0.1113636 0.265909,-0.1113636 0.110227,0 0.204545,0.073864 l 0,-0.2443182 -0.136364,0 0,-0.089773 0.24091,0 L -28.030202,7.8854167 z m -0.104546,-0.1602273 0,-0.3727273 q -0.09091,-0.095455 -0.204545,-0.095455 -0.127273,0 -0.193182,0.089773 -0.05568,0.076136 -0.05568,0.1920455 0,0.115909 0.05568,0.1920454 0.06591,0.089773 0.193182,0.089773 Q -28.225657,7.8206439 -28.134748,7.7251894 Z"
         id="path1433"
         inkscape:connector-curvature="0" />
      <path
         d="m -27.43956,7.0513258 -0.1375,0 0,-0.1386364 0.1375,0 L -27.43956,7.0513258 z m 0.139773,0.8340909 -0.417045,0 0,-0.090909 0.156818,0 0,-0.5136364 -0.156818,0 0,-0.090909 0.260227,0 0,0.6045455 0.156818,0 L -27.299787,7.8854167 Z"
         id="path1435"
         inkscape:connector-curvature="0" />
      <path
         d="m -26.305735,7.5399621 q 0,0.1522727 -0.09318,0.2545455 -0.101136,0.1102272 -0.272727,0.1102272 -0.170455,0 -0.271591,-0.1102272 -0.09432,-0.1022728 -0.09432,-0.2545455 0,-0.1534091 0.09432,-0.2556818 0.101136,-0.1102273 0.271591,-0.1102273 0.171591,0 0.272727,0.1102273 Q -26.305735,7.386553 -26.305735,7.5399621 z m -0.103409,0 q 0,-0.1147727 -0.0625,-0.1920454 -0.07159,-0.089773 -0.2,-0.089773 -0.127273,0 -0.198864,0.089773 -0.0625,0.077273 -0.0625,0.1920454 0,0.1136364 0.0625,0.1920455 0.07159,0.089773 0.198864,0.089773 0.128409,0 0.2,-0.089773 Q -26.409144,7.6535985 -26.409144,7.5399621 Z"
         id="path1437"
         inkscape:connector-curvature="0" />
      <path
         d="m -25.770774,7.8899621 -0.136364,0 0,-0.1363636 0.136364,0 L -25.770774,7.8899621 Z"
         id="path1439"
         inkscape:connector-curvature="0" />
      <path
         d="m -24.692631,7.8854167 -0.104546,0 0,-0.4284091 q 0,-0.1852273 -0.151136,-0.1852273 -0.121591,0 -0.196591,0.090909 -0.07045,0.085227 -0.07045,0.2113636 l 0,0.3113637 -0.103409,0 0,-0.9727273 0.103409,0 0,0.4522727 q 0.07273,-0.1920454 0.267046,-0.1920454 0.255682,0 0.255682,0.2840909 L -24.692631,7.8854167 Z"
         id="path1441"
         inkscape:connector-curvature="0" />
      <path
         d="m -23.969034,7.4001894 -0.381818,0.3806818 -0.05795,-0.059091 0.322727,-0.3215909 -0.322727,-0.3227273 0.05795,-0.059091 L -23.969034,7.4001894 Z"
         id="path1443"
         inkscape:connector-curvature="0" />
      <path
         d="m -37.180682,12.572917 -0.103409,0 0,-0.477273 q 0,-0.136364 -0.07955,-0.136364 -0.113637,0 -0.113637,0.220455 l 0,0.393182 -0.103409,0 0,-0.477273 q 0,-0.136364 -0.08068,-0.136364 -0.05455,0 -0.07955,0.04659 -0.02727,0.05114 -0.02727,0.173864 l -0.0011,0 0,0.393182 -0.103409,0 0,-0.695455 0.103409,0 0,0.101136 q 0.03295,-0.118181 0.135227,-0.118181 0.103409,0 0.138636,0.103409 0.05114,-0.103409 0.144319,-0.103409 0.0875,0 0.128409,0.05568 0.04205,0.05568 0.04205,0.179546 L -37.180682,12.572917 Z"
         id="path1445"
         inkscape:connector-curvature="0" />
      <path
         d="m -36.68663,11.860417 q 0.110227,0 0.204545,0.07386 l 0,-0.05682 0.104546,0 0,0.695455 -0.104546,0 0,-0.286364 q -0.01932,0.110227 -0.0875,0.198864 -0.07955,0.106818 -0.179545,0.106818 -0.143182,0 -0.220455,-0.105682 -0.06932,-0.09432 -0.06932,-0.243182 0,-0.163636 0.09318,-0.270454 Q -36.847994,11.860417 -36.68663,11.860417 z m 0.204545,0.179545 q -0.08977,-0.09545 -0.204545,-0.09545 -0.120455,0 -0.1875,0.09204 -0.06023,0.08182 -0.06023,0.206818 0,0.103409 0.03977,0.170455 0.04886,0.08068 0.145455,0.08068 0.117045,0 0.198864,-0.146591 0.06818,-0.125 0.06818,-0.253409 L -36.482085,12.039962 Z"
         id="path1447"
         inkscape:connector-curvature="0" />
      <path
         d="m -35.789169,11.738826 -0.1375,0 0,-0.138637 0.1375,0 L -35.789169,11.738826 z m 0.139773,0.834091 -0.417046,0 0,-0.09091 0.156818,0 0,-0.513637 -0.156818,0 0,-0.09091 0.260228,0 0,0.604546 0.156818,0 L -35.649396,12.572917 Z"
         id="path1449"
         inkscape:connector-curvature="0" />
      <path
         d="m -34.705344,12.572917 -0.104546,0 0,-0.428409 q 0,-0.185228 -0.152273,-0.185228 -0.121591,0 -0.195454,0.09091 -0.07045,0.08523 -0.07045,0.211364 l 0,0.311364 -0.104545,0 0,-0.695455 0.104545,0 0,0.175 q 0.07273,-0.192045 0.265909,-0.192045 0.256819,0 0.256819,0.284091 L -34.705344,12.572917 Z"
         id="path1451"
         inkscape:connector-curvature="0" />
      <path
         d="m -34.00902,12.783144 -0.05454,0.06705 q -0.154546,-0.127272 -0.242046,-0.306818 -0.08977,-0.185227 -0.08977,-0.393182 0,-0.206818 0.08977,-0.393181 0.0875,-0.17841 0.242046,-0.305682 l 0.05454,0.06705 q -0.139773,0.114773 -0.218182,0.277273 -0.08068,0.167045 -0.08068,0.354545 0,0.188637 0.08068,0.355682 Q -34.148793,12.668371 -34.00902,12.783144 Z"
         id="path1453"
         inkscape:connector-curvature="0" />
      <path
         d="m -33.143377,12.151326 q 0,0.207954 -0.08977,0.393182 -0.08636,0.179545 -0.242045,0.305681 l -0.05455,-0.06705 q 0.139773,-0.114773 0.218182,-0.276136 0.08182,-0.168182 0.08182,-0.355682 0,-0.1875 -0.08182,-0.355682 -0.07841,-0.161364 -0.218182,-0.276136 l 0.05455,-0.06705 q 0.155682,0.126136 0.242045,0.305682 Q -33.143377,11.943371 -33.143377,12.151326 Z"
         id="path1455"
         inkscape:connector-curvature="0" />
      <path
         d="m -37.318182,15.975189 -0.06932,0 q -0.09432,0 -0.152273,-0.06136 -0.05568,-0.05795 -0.05568,-0.147728 l 0,-0.318181 q 0,-0.125 -0.138636,-0.125 l 0,-0.08409 q 0.138636,0 0.138636,-0.126137 l 0,-0.318181 q 0,-0.08864 0.05682,-0.147728 0.05682,-0.06023 0.151136,-0.06023 l 0.06932,0 0,0.08296 -0.06932,0 q -0.126136,0 -0.126136,0.125 l 0,0.318181 q 0,0.05455 -0.03409,0.103409 -0.0375,0.05114 -0.09432,0.06477 0.05455,0.01136 0.09318,0.06364 0.03523,0.04886 0.03523,0.103409 l 0,0.318181 q 0,0.126137 0.126136,0.126137 l 0.06932,0 L -37.318182,15.975189 Z"
         id="path1457"
         inkscape:connector-curvature="0" />
      <path
         d="m -34.954208,19.551326 -0.1375,0 0,-0.138637 0.1375,0 L -34.954208,19.551326 z m 0.139773,0.834091 -0.417046,0 0,-0.09091 0.156818,0 0,-0.513637 -0.156818,0 0,-0.09091 0.260227,0 0,0.604546 0.156819,0 L -34.814435,20.385417 Z"
         id="path1459"
         inkscape:connector-curvature="0" />
      <path
         d="m -33.870384,20.385417 -0.104545,0 0,-0.428409 q 0,-0.185228 -0.152273,-0.185228 -0.121591,0 -0.195454,0.09091 -0.07045,0.08523 -0.07045,0.211364 l 0,0.311364 -0.104545,0 0,-0.695455 0.104545,0 0,0.175 q 0.07273,-0.192045 0.265909,-0.192045 0.256818,0 0.256818,0.284091 L -33.870384,20.385417 Z"
         id="path1461"
         inkscape:connector-curvature="0" />
      <path
         d="m -32.994513,20.163826 q -0.01136,0.103409 -0.07955,0.169318 -0.07386,0.07045 -0.192045,0.07045 -0.128409,0 -0.204546,-0.08295 -0.07045,-0.07614 -0.07045,-0.190909 l 0,-0.348864 -0.155682,0 0,-0.08977 0.155682,0 0,-0.278409 0.104545,0 0,0.278409 0.293182,0 0,0.08977 -0.293182,0 0,0.348864 q 0,0.07386 0.04091,0.123863 0.04659,0.05909 0.129546,0.05909 0.07954,0 0.126136,-0.05454 0.03977,-0.04773 0.04318,-0.118182 L -32.994513,20.163826 Z"
         id="path1463"
         inkscape:connector-curvature="0" />
      <path
         d="m -31.676864,19.672917 q 0.110227,0 0.204545,0.07386 l 0,-0.05682 0.104546,0 0,0.695455 -0.104546,0 0,-0.286364 q -0.01932,0.110227 -0.0875,0.198864 -0.07954,0.106818 -0.179545,0.106818 -0.143182,0 -0.220455,-0.105682 -0.06932,-0.09432 -0.06932,-0.243182 0,-0.163636 0.09318,-0.270454 Q -31.838228,19.672917 -31.676864,19.672917 z m 0.204545,0.179545 q -0.08977,-0.09545 -0.204545,-0.09545 -0.120455,0 -0.1875,0.09205 -0.06023,0.08182 -0.06023,0.206818 0,0.103409 0.03977,0.170455 0.04886,0.08068 0.145455,0.08068 0.117045,0 0.198863,-0.146591 0.06818,-0.125 0.06818,-0.253409 L -31.472319,19.852462 Z"
         id="path1465"
         inkscape:connector-curvature="0" />
      <path
         d="m -30.739631,20.110417 -0.204545,0.417045 -0.07273,0 0.139772,-0.417045 L -30.739631,20.110417 Z"
         id="path1467"
         inkscape:connector-curvature="0" />
      <path
         d="m -28.826527,20.038826 q 0,0.154545 -0.0875,0.254545 -0.09545,0.111364 -0.264773,0.111364 -0.110227,0 -0.204545,-0.07386 l 0,0.05455 -0.104546,0 0,-0.972728 0.104546,0 0,0.334091 q 0.09432,-0.07386 0.204545,-0.07386 0.169318,0 0.264773,0.111363 Q -28.826527,19.88428 -28.826527,20.038826 z m -0.104545,0 q 0,-0.115909 -0.05568,-0.192046 -0.06591,-0.08977 -0.192046,-0.08977 -0.114772,0 -0.204545,0.09545 l 0,0.372727 q 0.08977,0.09546 0.204545,0.09546 0.126137,0 0.192046,-0.08977 Q -28.931072,20.154735 -28.931072,20.038826 Z"
         id="path1469"
         inkscape:connector-curvature="0" />
      <path
         d="m -28.234748,20.110417 -0.204545,0.417045 -0.07273,0 0.139773,-0.417045 L -28.234748,20.110417 Z"
         id="path1471"
         inkscape:connector-curvature="0" />
      <path
         d="m -26.35119,20.254735 q -0.09432,0.15 -0.302272,0.15 -0.171591,0 -0.272728,-0.111364 -0.09318,-0.101136 -0.09318,-0.254545 0,-0.154546 0.08636,-0.254546 0.09546,-0.111363 0.265909,-0.111363 0.07727,0 0.140909,0.03977 0.06364,0.03977 0.07727,0.09091 l 0,-0.113636 0.09091,0 0,0.277273 -0.09091,0 q 0,-0.08977 -0.07159,-0.153409 -0.06705,-0.05682 -0.146591,-0.05682 -0.127272,0 -0.193182,0.08977 -0.05568,0.07614 -0.05568,0.192046 0,0.113636 0.0625,0.192045 0.07159,0.08977 0.2,0.08977 0.07727,0 0.139772,-0.03182 0.0625,-0.03296 0.09091,-0.08409 L -26.35119,20.254735 Z"
         id="path1473"
         inkscape:connector-curvature="0" />
      <path
         d="m -25.770774,19.829735 -0.136364,0 0,-0.135227 0.136364,0 L -25.770774,19.829735 z m 0.04091,0.281818 -0.204546,0.417045 -0.07273,0 0.139773,-0.417045 L -25.729865,20.111553 Z"
         id="path1475"
         inkscape:connector-curvature="0" />
      <path
         d="m -34.675799,23.163826 q 0,0.155682 -0.08636,0.255682 -0.09545,0.110227 -0.265909,0.110227 -0.110227,0 -0.204545,-0.07386 l 0,0.331818 -0.104546,0 0,-0.971591 0.104546,0 0,0.05568 q 0.09432,-0.07273 0.204545,-0.07273 0.170455,0 0.265909,0.110227 Q -34.675799,23.00928 -34.675799,23.163826 z m -0.103409,0 q 0,-0.115909 -0.05568,-0.192046 -0.06591,-0.08977 -0.193182,-0.08977 -0.113636,0 -0.204545,0.09545 l 0,0.372727 q 0.09091,0.09546 0.204545,0.09546 0.127273,0 0.193182,-0.08977 Q -34.779208,23.280871 -34.779208,23.163826 Z"
         id="path1477"
         inkscape:connector-curvature="0" />
      <path
         d="m -33.842143,22.822917 -0.03523,0.09545 q -0.05682,-0.02727 -0.130682,-0.02727 -0.122727,0 -0.197727,0.09546 -0.06818,0.0875 -0.06818,0.2125 l 0,0.221591 0.156818,0 0,0.08977 -0.417046,0 0,-0.08977 0.155682,0 0,-0.514773 -0.155682,0 0,-0.09091 0.260228,0 0,0.175 q 0.07159,-0.192045 0.265909,-0.192045 Q -33.90237,22.797917 -33.842143,22.822917 Z"
         id="path1479"
         inkscape:connector-curvature="0" />
      <path
         d="m -33.286728,22.676326 -0.1375,0 0,-0.138637 0.1375,0 L -33.286728,22.676326 z m 0.139773,0.834091 -0.417045,0 0,-0.09091 0.156818,0 0,-0.513637 -0.156818,0 0,-0.09091 0.260227,0 0,0.604546 0.156818,0 L -33.146955,23.510417 Z"
         id="path1481"
         inkscape:connector-curvature="0" />
      <path
         d="m -32.202903,23.510417 -0.104546,0 0,-0.428409 q 0,-0.185228 -0.152272,-0.185228 -0.121591,0 -0.195455,0.09091 -0.07045,0.08523 -0.07045,0.211364 l 0,0.311364 -0.104546,0 0,-0.695455 0.104546,0 0,0.175 q 0.07273,-0.192045 0.265909,-0.192045 0.256818,0 0.256818,0.284091 L -32.202903,23.510417 Z"
         id="path1483"
         inkscape:connector-curvature="0" />
      <path
         d="m -31.327033,23.288826 q -0.01136,0.103409 -0.07954,0.169318 -0.07386,0.07045 -0.192046,0.07045 -0.128409,0 -0.204545,-0.08295 -0.07045,-0.07614 -0.07045,-0.190909 l 0,-0.348864 -0.155682,0 0,-0.08977 0.155682,0 0,-0.278409 0.104546,0 0,0.278409 0.293181,0 0,0.08977 -0.293181,0 0,0.348864 q 0,0.07386 0.04091,0.123863 0.04659,0.05909 0.129545,0.05909 0.07955,0 0.126136,-0.05454 0.03977,-0.04773 0.04318,-0.118182 L -31.327033,23.288826 Z"
         id="path1485"
         inkscape:connector-curvature="0" />
      <path
         d="m -30.503436,22.905871 -0.293182,0 0,0.513637 0.156819,0 0,0.09091 -0.417046,0 0,-0.09091 0.156818,0 0,-0.513637 -0.156818,0 0,-0.09091 0.156818,0 q 0,-0.285227 0.298864,-0.285227 0.04546,0 0.09773,0.008 l 0,0.08409 q -0.04318,-0.0057 -0.07954,-0.0057 -0.119318,0 -0.169318,0.05455 -0.04432,0.04773 -0.04432,0.144318 l 0.293182,0 L -30.503436,22.905871 Z"
         id="path1487"
         inkscape:connector-curvature="0" />
      <path
         d="m -29.836657,23.720644 -0.05455,0.06705 q -0.154546,-0.127272 -0.242046,-0.306818 -0.08977,-0.185227 -0.08977,-0.393182 0,-0.206818 0.08977,-0.393181 0.0875,-0.17841 0.242046,-0.305682 l 0.05455,0.06704 q -0.139772,0.114773 -0.218181,0.277273 -0.08068,0.167045 -0.08068,0.354545 0,0.188637 0.08068,0.355682 Q -29.976429,23.605871 -29.836657,23.720644 Z"
         id="path1489"
         inkscape:connector-curvature="0" />
      <path
         d="m -28.969877,22.538826 -0.03182,0.346591 -0.07386,0 -0.03182,-0.346591 L -28.969877,22.538826 z m -0.279546,0 -0.03182,0.346591 -0.07386,0 -0.03182,-0.346591 L -29.249423,22.538826 Z"
         id="path1491"
         inkscape:connector-curvature="0" />
      <path
         d="m -28.03378,23.510417 -0.625,0 0,-0.972728 0.625,0 0,0.08977 -0.521591,0 0,0.340909 0.384091,0 0,0.09091 -0.384091,0 0,0.360228 0.521591,0 L -28.03378,23.510417 Z"
         id="path1493"
         inkscape:connector-curvature="0" />
      <path
         d="m -27.193137,23.510417 -0.104546,0 0,-0.428409 q 0,-0.185228 -0.152273,-0.185228 -0.121591,0 -0.195454,0.09091 -0.07046,0.08523 -0.07046,0.211364 l 0,0.311364 -0.104545,0 0,-0.695455 0.104545,0 0,0.175 q 0.07273,-0.192045 0.265909,-0.192045 0.256819,0 0.256819,0.284091 L -27.193137,23.510417 Z"
         id="path1495"
         inkscape:connector-curvature="0" />
      <path
         d="m -26.317267,23.288826 q -0.01136,0.103409 -0.07955,0.169318 -0.07386,0.07045 -0.192045,0.07045 -0.128409,0 -0.204546,-0.08295 -0.07045,-0.07614 -0.07045,-0.190909 l 0,-0.348864 -0.155682,0 0,-0.08977 0.155682,0 0,-0.278409 0.104545,0 0,0.278409 0.293182,0 0,0.08977 -0.293182,0 0,0.348864 q 0,0.07386 0.04091,0.123863 0.04659,0.05909 0.129546,0.05909 0.07954,0 0.126136,-0.05454 0.03977,-0.04773 0.04318,-0.118182 L -26.317267,23.288826 Z"
         id="path1497"
         inkscape:connector-curvature="0" />
      <path
         d="m -25.485716,23.199053 -0.597727,0 q 0.01023,0.103409 0.07159,0.170455 0.07046,0.07614 0.1875,0.07614 0.07727,0 0.139773,-0.03182 0.0625,-0.03296 0.09091,-0.08409 l 0.07159,0.05 q -0.09432,0.15 -0.302273,0.15 -0.170454,0 -0.271591,-0.111364 -0.09432,-0.101136 -0.09432,-0.254545 0,-0.154546 0.0875,-0.254546 0.09546,-0.111363 0.264773,-0.111363 0.186363,0 0.278409,0.128409 Q -25.485716,23.030871 -25.485716,23.199053 z m -0.10909,-0.09091 q -0.03296,-0.226136 -0.243182,-0.226136 -0.110228,0 -0.175,0.06932 -0.05568,0.05909 -0.06932,0.156818 L -25.594806,23.108144 Z"
         id="path1499"
         inkscape:connector-curvature="0" />
      <path
         d="m -24.657573,22.822917 -0.03523,0.09545 q -0.05682,-0.02727 -0.130682,-0.02727 -0.122727,0 -0.197727,0.09546 -0.06818,0.0875 -0.06818,0.2125 l 0,0.221591 0.156818,0 0,0.08977 -0.417045,0 0,-0.08977 0.155682,0 0,-0.514773 -0.155682,0 0,-0.09091 0.260227,0 0,0.175 q 0.07159,-0.192045 0.265909,-0.192045 Q -24.7178,22.797917 -24.657573,22.822917 Z"
         id="path1501"
         inkscape:connector-curvature="0" />
      <path
         d="m -22.977424,23.288826 q -0.01136,0.103409 -0.07954,0.169318 -0.07386,0.07045 -0.192046,0.07045 -0.128409,0 -0.204545,-0.08295 -0.07045,-0.07614 -0.07045,-0.190909 l 0,-0.348864 -0.155681,0 0,-0.08977 0.155681,0 0,-0.278409 0.104546,0 0,0.278409 0.293182,0 0,0.08977 -0.293182,0 0,0.348864 q 0,0.07386 0.04091,0.123863 0.04659,0.05909 0.129545,0.05909 0.07955,0 0.126137,-0.05454 0.03977,-0.04773 0.04318,-0.118182 L -22.977424,23.288826 Z"
         id="path1503"
         inkscape:connector-curvature="0" />
      <path
         d="m -22.15269,22.814962 -0.126136,0.694318 -0.119319,0 -0.1,-0.509091 -0.101136,0.509091 -0.119318,0 -0.126136,-0.694318 0.107954,0 0.08977,0.556818 0.09773,-0.551136 0.101136,0 0.09773,0.551136 0.08977,-0.556818 L -22.15269,22.814962 Z"
         id="path1505"
         inkscape:connector-curvature="0" />
      <path
         d="m -21.298411,23.164962 q 0,0.152273 -0.09318,0.254546 -0.101136,0.110227 -0.272727,0.110227 -0.170455,0 -0.271591,-0.110227 -0.09432,-0.102273 -0.09432,-0.254546 0,-0.153409 0.09432,-0.255682 0.101136,-0.110227 0.271591,-0.110227 0.171591,0 0.272727,0.110227 Q -21.298411,23.011553 -21.298411,23.164962 z m -0.103409,0 q 0,-0.114773 -0.0625,-0.192045 -0.07159,-0.08977 -0.2,-0.08977 -0.127273,0 -0.198864,0.08977 -0.0625,0.07727 -0.0625,0.192045 0,0.113636 0.0625,0.192046 0.07159,0.08977 0.198864,0.08977 0.128409,0 0.2,-0.08977 Q -21.40182,23.278598 -21.40182,23.164962 Z"
         id="path1507"
         inkscape:connector-curvature="0" />
      <path
         d="m -19.678489,23.510417 -0.104545,0 0,-0.428409 q 0,-0.185228 -0.152273,-0.185228 -0.121591,0 -0.195455,0.09091 -0.07045,0.08523 -0.07045,0.211364 l 0,0.311364 -0.104546,0 0,-0.695455 0.104546,0 0,0.175 q 0.07273,-0.192045 0.265909,-0.192045 0.256818,0 0.256818,0.284091 L -19.678489,23.510417 Z"
         id="path1509"
         inkscape:connector-curvature="0" />
      <path
         d="m -18.844664,23.510417 -0.104546,0 0,-0.175 q -0.07273,0.192045 -0.265909,0.192045 -0.256818,0 -0.256818,-0.284091 l 0,-0.428409 0.104545,0 0,0.428409 q 0,0.186364 0.152273,0.186364 0.121591,0 0.195455,-0.09091 0.07045,-0.08636 0.07045,-0.2125 l 0,-0.311364 0.104546,0 L -18.844664,23.510417 Z"
         id="path1511"
         inkscape:connector-curvature="0" />
      <path
         d="m -17.979022,23.510417 -0.103409,0 0,-0.477273 q 0,-0.136364 -0.07954,-0.136364 -0.113637,0 -0.113637,0.220455 l 0,0.393182 -0.103409,0 0,-0.477273 q 0,-0.136364 -0.08068,-0.136364 -0.05455,0 -0.07955,0.04659 -0.02727,0.05114 -0.02727,0.173864 l -0.0011,0 0,0.393182 -0.103409,0 0,-0.695455 0.103409,0 0,0.101136 q 0.03296,-0.118181 0.135227,-0.118181 0.103409,0 0.138637,0.103409 0.05114,-0.103409 0.144318,-0.103409 0.0875,0 0.128409,0.05568 0.04204,0.05568 0.04204,0.179546 L -17.979022,23.510417 Z"
         id="path1513"
         inkscape:connector-curvature="0" />
      <path
         d="m -17.139515,23.163826 q 0,0.154545 -0.0875,0.254545 -0.09545,0.111364 -0.264773,0.111364 -0.110227,0 -0.204545,-0.07386 l 0,0.05455 -0.104546,0 0,-0.972728 0.104546,0 0,0.334091 q 0.09432,-0.07386 0.204545,-0.07386 0.169318,0 0.264773,0.111363 Q -17.139515,23.00928 -17.139515,23.163826 z m -0.104546,0 q 0,-0.115909 -0.05568,-0.192046 -0.06591,-0.08977 -0.192045,-0.08977 -0.114773,0 -0.204545,0.09545 l 0,0.372727 q 0.08977,0.09546 0.204545,0.09546 0.126136,0 0.192045,-0.08977 Q -17.244061,23.279735 -17.244061,23.163826 Z"
         id="path1515"
         inkscape:connector-curvature="0" />
      <path
         d="m -16.301145,23.199053 -0.597728,0 q 0.01023,0.103409 0.07159,0.170455 0.07045,0.07614 0.1875,0.07614 0.07727,0 0.139773,-0.03182 0.0625,-0.03296 0.09091,-0.08409 l 0.07159,0.05 q -0.09432,0.15 -0.302273,0.15 -0.170454,0 -0.271591,-0.111364 -0.09432,-0.101136 -0.09432,-0.254545 0,-0.154546 0.0875,-0.254546 0.09546,-0.111363 0.264773,-0.111363 0.186364,0 0.278409,0.128409 Q -16.301145,23.030871 -16.301145,23.199053 z m -0.109091,-0.09091 q -0.03295,-0.226136 -0.243182,-0.226136 -0.110227,0 -0.175,0.06932 -0.05568,0.05909 -0.06932,0.156818 L -16.410236,23.108144 Z"
         id="path1517"
         inkscape:connector-curvature="0" />
      <path
         d="m -15.473002,22.822917 -0.03523,0.09545 q -0.05682,-0.02727 -0.130682,-0.02727 -0.122727,0 -0.197727,0.09546 -0.06818,0.0875 -0.06818,0.2125 l 0,0.221591 0.156819,0 0,0.08977 -0.417046,0 0,-0.08977 0.155682,0 0,-0.514773 -0.155682,0 0,-0.09091 0.260227,0 0,0.175 q 0.07159,-0.192045 0.265909,-0.192045 Q -15.53323,22.797917 -15.473002,22.822917 Z"
         id="path1519"
         inkscape:connector-curvature="0" />
      <path
         d="m -14.65736,23.317235 q 0,0.09432 -0.0875,0.152273 -0.09091,0.06023 -0.245454,0.06023 -0.09659,0 -0.197728,-0.03068 -0.09432,-0.02841 -0.154545,-0.07045 l 0.04659,-0.08864 q 0.148864,0.106818 0.305682,0.106818 0.229545,0 0.229545,-0.126136 0,-0.07386 -0.144318,-0.09659 -0.207955,-0.02841 -0.265909,-0.04546 -0.144318,-0.04659 -0.144318,-0.177272 0,-0.08295 0.08409,-0.139773 0.09091,-0.0625 0.240909,-0.0625 0.178409,0 0.295454,0.08182 l -0.04091,0.07955 q -0.09318,-0.07727 -0.254545,-0.07727 -0.09659,0 -0.156818,0.03068 -0.06364,0.03182 -0.06364,0.0875 0,0.07273 0.143182,0.09659 0.195455,0.02727 0.267045,0.04545 Q -14.65736,23.189962 -14.65736,23.317235 Z"
         id="path1521"
         inkscape:connector-curvature="0" />
      <path
         d="m -12.957892,23.288826 q -0.01136,0.103409 -0.07955,0.169318 -0.07386,0.07045 -0.192045,0.07045 -0.128409,0 -0.204546,-0.08295 -0.07045,-0.07614 -0.07045,-0.190909 l 0,-0.348864 -0.155682,0 0,-0.08977 0.155682,0 0,-0.278409 0.104545,0 0,0.278409 0.293182,0 0,0.08977 -0.293182,0 0,0.348864 q 0,0.07386 0.04091,0.123863 0.04659,0.05909 0.129546,0.05909 0.07954,0 0.126136,-0.05454 0.03977,-0.04773 0.04318,-0.118182 L -12.957892,23.288826 Z"
         id="path1523"
         inkscape:connector-curvature="0" />
      <path
         d="m -12.113841,23.164962 q 0,0.152273 -0.09318,0.254546 -0.101137,0.110227 -0.272728,0.110227 -0.170454,0 -0.271591,-0.110227 -0.09432,-0.102273 -0.09432,-0.254546 0,-0.153409 0.09432,-0.255682 0.101137,-0.110227 0.271591,-0.110227 0.171591,0 0.272728,0.110227 Q -12.113841,23.011553 -12.113841,23.164962 z m -0.103409,0 q 0,-0.114773 -0.0625,-0.192045 -0.07159,-0.08977 -0.2,-0.08977 -0.127272,0 -0.198863,0.08977 -0.0625,0.07727 -0.0625,0.192045 0,0.113636 0.0625,0.192046 0.07159,0.08977 0.198863,0.08977 0.128409,0 0.2,-0.08977 Q -12.21725,23.278598 -12.21725,23.164962 Z"
         id="path1525"
         inkscape:connector-curvature="0" />
      <path
         d="m -10.805282,22.797917 q 0.110227,0 0.204545,0.07386 l 0,-0.05682 0.104546,0 0,0.695455 -0.104546,0 0,-0.286364 q -0.01932,0.110227 -0.0875,0.198864 -0.07954,0.106818 -0.179545,0.106818 -0.143182,0 -0.220455,-0.105682 -0.06932,-0.09432 -0.06932,-0.243182 0,-0.163636 0.09318,-0.270454 Q -10.966646,22.797917 -10.805282,22.797917 z m 0.204545,0.179545 q -0.08977,-0.09545 -0.204545,-0.09545 -0.120455,0 -0.1875,0.09205 -0.06023,0.08182 -0.06023,0.206818 0,0.103409 0.03977,0.170455 0.04886,0.08068 0.145455,0.08068 0.117045,0 0.198863,-0.146591 0.06818,-0.125 0.06818,-0.253409 L -10.600737,22.977462 Z"
         id="path1527"
         inkscape:connector-curvature="0" />
      <path
         d="m -9.6635032,23.510417 -0.1045455,0 0,-0.05455 q -0.094318,0.07386 -0.2045454,0.07386 -0.1704549,0 -0.2659089,-0.111364 -0.08636,-0.1 -0.08636,-0.254545 0,-0.154546 0.08636,-0.254546 0.09545,-0.111363 0.2659089,-0.111363 0.1102273,0 0.2045454,0.07386 l 0,-0.244318 -0.1363636,0 0,-0.08977 0.2409091,0 L -9.6635032,23.510417 z m -0.1045455,-0.160228 0,-0.372727 q -0.090909,-0.09545 -0.2045454,-0.09545 -0.1272729,0 -0.1931819,0.08977 -0.05568,0.07614 -0.05568,0.192046 0,0.115909 0.05568,0.192045 0.06591,0.08977 0.1931819,0.08977 Q -9.8589577,23.445644 -9.7680487,23.350189 Z"
         id="path1529"
         inkscape:connector-curvature="0" />
      <path
         d="m -8.8285423,23.510417 -0.1045454,0 0,-0.05455 q -0.094318,0.07386 -0.2045455,0.07386 -0.1704545,0 -0.2659091,-0.111364 -0.086364,-0.1 -0.086364,-0.254545 0,-0.154546 0.086364,-0.254546 0.095455,-0.111363 0.2659091,-0.111363 0.1102273,0 0.2045455,0.07386 l 0,-0.244318 -0.1363636,0 0,-0.08977 0.240909,0 L -8.8285423,23.510417 z m -0.1045454,-0.160228 0,-0.372727 q -0.090909,-0.09545 -0.2045455,-0.09545 -0.1272727,0 -0.1931818,0.08977 -0.055682,0.07614 -0.055682,0.192046 0,0.115909 0.055682,0.192045 0.065909,0.08977 0.1931818,0.08977 Q -9.0239968,23.445644 -8.9330877,23.350189 Z"
         id="path1531"
         inkscape:connector-curvature="0" />
      <path
         d="m -37.130682,25.214962 -0.07386,0.0375 -0.571591,-1.151136 0.07386,-0.0375 L -37.130682,25.214962 Z"
         id="path1533"
         inkscape:connector-curvature="0" />
      <path
         d="m -36.375266,25.072917 -0.104546,0 0,-0.428409 q 0,-0.185228 -0.152273,-0.185228 -0.12159,0 -0.195454,0.09091 -0.07045,0.08523 -0.07045,0.211364 l 0,0.311364 -0.104545,0 0,-0.695455 0.104545,0 0,0.175 q 0.07273,-0.192045 0.265909,-0.192045 0.256819,0 0.256819,0.284091 L -36.375266,25.072917 Z"
         id="path1535"
         inkscape:connector-curvature="0" />
      <path
         d="m -35.647124,24.101326 -0.03182,0.346591 -0.07386,0 -0.03182,-0.346591 L -35.647124,24.101326 z m -0.279545,0 -0.03182,0.346591 -0.07386,0 -0.03182,-0.346591 L -35.926669,24.101326 Z"
         id="path1537"
         inkscape:connector-curvature="0" />
      <path
         d="m -34.813299,24.651326 q 0,0.207954 -0.08977,0.393182 -0.08636,0.179545 -0.242045,0.305681 l -0.05455,-0.06705 q 0.139773,-0.114773 0.218182,-0.276136 0.08182,-0.168182 0.08182,-0.355682 0,-0.1875 -0.08182,-0.355682 -0.07841,-0.161364 -0.218182,-0.276136 l 0.05455,-0.06705 q 0.155682,0.126136 0.242045,0.305682 Q -34.813299,24.443371 -34.813299,24.651326 Z"
         id="path1539"
         inkscape:connector-curvature="0" />
      <path
         d="m -34.120384,24.517235 -0.136363,0 0,-0.135227 0.136363,0 L -34.120384,24.517235 z m 0.04091,0.281818 -0.204546,0.417045 -0.07273,0 0.139773,-0.417045 L -34.079474,24.799053 Z"
         id="path1541"
         inkscape:connector-curvature="0" />
      <path
         d="m -34.693981,26.442235 q 0,0.09432 -0.0875,0.152273 -0.09091,0.06023 -0.245454,0.06023 -0.09659,0 -0.197728,-0.03068 -0.09432,-0.02841 -0.154545,-0.07045 l 0.04659,-0.08864 q 0.148863,0.106818 0.305682,0.106818 0.229545,0 0.229545,-0.126136 0,-0.07386 -0.144318,-0.09659 -0.207955,-0.02841 -0.265909,-0.04546 -0.144318,-0.04659 -0.144318,-0.177272 0,-0.08295 0.08409,-0.139773 0.09091,-0.0625 0.240909,-0.0625 0.178409,0 0.295454,0.08182 l -0.04091,0.07955 q -0.09318,-0.07727 -0.254545,-0.07727 -0.09659,0 -0.156819,0.03068 -0.06364,0.03182 -0.06364,0.0875 0,0.07273 0.143182,0.09659 0.195454,0.02727 0.267045,0.04545 Q -34.693981,26.314962 -34.693981,26.442235 Z"
         id="path1543"
         inkscape:connector-curvature="0" />
      <path
         d="m -33.865838,26.504735 q -0.09432,0.15 -0.302273,0.15 -0.171591,0 -0.272727,-0.111364 -0.09318,-0.101136 -0.09318,-0.254545 0,-0.154546 0.08636,-0.254546 0.09545,-0.111363 0.265909,-0.111363 0.07727,0 0.140909,0.03977 0.06364,0.03977 0.07727,0.09091 l 0,-0.113636 0.09091,0 0,0.277273 -0.09091,0 q 0,-0.08977 -0.07159,-0.153409 -0.06705,-0.05682 -0.146591,-0.05682 -0.127273,0 -0.193182,0.08977 -0.05568,0.07614 -0.05568,0.192046 0,0.113636 0.0625,0.192045 0.07159,0.08977 0.2,0.08977 0.07727,0 0.139773,-0.03182 0.0625,-0.03296 0.09091,-0.08409 L -33.865838,26.504735 Z"
         id="path1545"
         inkscape:connector-curvature="0" />
      <path
         d="m -33.346786,25.922917 q 0.110227,0 0.204545,0.07386 l 0,-0.05682 0.104546,0 0,0.695455 -0.104546,0 0,-0.286364 q -0.01932,0.110227 -0.0875,0.198864 -0.07955,0.106818 -0.179545,0.106818 -0.143182,0 -0.220455,-0.105682 -0.06932,-0.09432 -0.06932,-0.243182 0,-0.163636 0.09318,-0.270454 Q -33.50815,25.922917 -33.346786,25.922917 z m 0.204545,0.179545 q -0.08977,-0.09545 -0.204545,-0.09545 -0.120455,0 -0.1875,0.09205 -0.06023,0.08182 -0.06023,0.206818 0,0.103409 0.03977,0.170455 0.04886,0.08068 0.145455,0.08068 0.117045,0 0.198863,-0.146591 0.06818,-0.125 0.06818,-0.253409 L -33.142241,26.102462 Z"
         id="path1547"
         inkscape:connector-curvature="0" />
      <path
         d="m -32.200462,26.635417 -0.104545,0 0,-0.428409 q 0,-0.185228 -0.152273,-0.185228 -0.121591,0 -0.195454,0.09091 -0.07045,0.08523 -0.07045,0.211364 l 0,0.311364 -0.104545,0 0,-0.695455 0.104545,0 0,0.175 q 0.07273,-0.192045 0.265909,-0.192045 0.256818,0 0.256818,0.284091 L -32.200462,26.635417 Z"
         id="path1549"
         inkscape:connector-curvature="0" />
      <path
         d="m -31.335955,26.030871 -0.293182,0 0,0.513637 0.156818,0 0,0.09091 -0.417045,0 0,-0.09091 0.156818,0 0,-0.513637 -0.156818,0 0,-0.09091 0.156818,0 q 0,-0.285227 0.298863,-0.285227 0.04545,0 0.09773,0.008 l 0,0.08409 q -0.04318,-0.0057 -0.07955,-0.0057 -0.119318,0 -0.169318,0.05455 -0.04432,0.04773 -0.04432,0.144318 l 0.293182,0 L -31.335955,26.030871 Z"
         id="path1551"
         inkscape:connector-curvature="0" />
      <path
         d="m -30.669176,26.845644 -0.05455,0.06705 q -0.154545,-0.127272 -0.242045,-0.306818 -0.08977,-0.185227 -0.08977,-0.393182 0,-0.206818 0.08977,-0.393181 0.0875,-0.17841 0.242045,-0.305682 l 0.05455,0.06704 q -0.139773,0.114773 -0.218182,0.277273 -0.08068,0.167045 -0.08068,0.354545 0,0.188637 0.08068,0.355682 Q -30.808949,26.730871 -30.669176,26.845644 Z"
         id="path1553"
         inkscape:connector-curvature="0" />
      <path
         d="m -29.802397,25.663826 -0.03182,0.346591 -0.07386,0 -0.03182,-0.346591 L -29.802397,25.663826 z m -0.279545,0 -0.03182,0.346591 -0.07386,0 -0.03182,-0.346591 L -30.081942,25.663826 Z"
         id="path1555"
         inkscape:connector-curvature="0" />
      <path
         d="m -29.1663,25.83428 q 0,0.07727 -0.05568,0.132955 -0.05455,0.05455 -0.131818,0.05455 -0.07841,0 -0.134091,-0.05455 -0.05454,-0.05568 -0.05454,-0.132955 0,-0.07841 0.05454,-0.132954 0.05568,-0.05568 0.134091,-0.05568 0.07727,0 0.131818,0.05568 Q -29.1663,25.755871 -29.1663,25.83428 z m 0.336364,-0.147727 -0.623864,0.970455 -0.06932,-0.04546 0.623864,-0.971591 L -28.829936,25.686553 z m 0.02045,0.778409 q 0,0.07841 -0.05568,0.134091 -0.05455,0.05454 -0.132955,0.05454 -0.07841,0 -0.134091,-0.05454 -0.05455,-0.05568 -0.05455,-0.134091 0,-0.07727 0.05455,-0.131818 0.05568,-0.05568 0.134091,-0.05568 0.07841,0 0.132955,0.05568 Q -28.809482,26.387689 -28.809482,26.464962 Z M -29.24244,25.83428 q 0,-0.04659 -0.03295,-0.07954 -0.03182,-0.03296 -0.07841,-0.03296 -0.04659,0 -0.07954,0.03296 -0.03296,0.03295 -0.03296,0.07954 0,0.04659 0.03296,0.07955 0.03295,0.03295 0.07954,0.03295 0.04659,0 0.07841,-0.03295 Q -29.242436,25.880871 -29.242436,25.83428 z m 0.356818,0.630682 q 0,-0.04659 -0.03295,-0.07954 -0.03295,-0.03296 -0.07955,-0.03296 -0.04659,0 -0.07954,0.03296 -0.03295,0.03295 -0.03295,0.07954 0,0.04659 0.03295,0.07955 0.03295,0.03295 0.07954,0.03295 0.04659,0 0.07955,-0.03295 Q -28.885618,26.511553 -28.885618,26.464962 Z"
         id="path1557"
         inkscape:connector-curvature="0" />
      <path
         d="m -28.030202,26.635417 -0.104546,0 0,-0.05455 q -0.09432,0.07386 -0.204545,0.07386 -0.170455,0 -0.265909,-0.111364 -0.08636,-0.1 -0.08636,-0.254545 0,-0.154546 0.08636,-0.254546 0.09545,-0.111363 0.265909,-0.111363 0.110227,0 0.204545,0.07386 l 0,-0.244318 -0.136364,0 0,-0.08977 0.24091,0 L -28.030202,26.635417 z m -0.104546,-0.160228 0,-0.372727 q -0.09091,-0.09545 -0.204545,-0.09545 -0.127273,0 -0.193182,0.08977 -0.05568,0.07614 -0.05568,0.192046 0,0.115909 0.05568,0.192045 0.06591,0.08977 0.193182,0.08977 Q -28.225657,26.570644 -28.134748,26.475189 Z"
         id="path1559"
         inkscape:connector-curvature="0" />
      <path
         d="m -27.496378,25.83428 q 0,0.07727 -0.05568,0.132955 -0.05454,0.05455 -0.131818,0.05455 -0.07841,0 -0.134091,-0.05455 -0.05454,-0.05568 -0.05454,-0.132955 0,-0.07841 0.05454,-0.132954 0.05568,-0.05568 0.134091,-0.05568 0.07727,0 0.131818,0.05568 Q -27.496378,25.755871 -27.496378,25.83428 z m 0.336364,-0.147727 -0.623864,0.970455 -0.06932,-0.04546 0.623864,-0.971591 L -27.160014,25.686553 z m 0.02045,0.778409 q 0,0.07841 -0.05568,0.134091 -0.05455,0.05454 -0.132955,0.05454 -0.07841,0 -0.134091,-0.05454 -0.05455,-0.05568 -0.05455,-0.134091 0,-0.07727 0.05455,-0.131818 0.05568,-0.05568 0.134091,-0.05568 0.07841,0 0.132955,0.05568 Q -27.13956,26.387689 -27.13956,26.464962 z m -0.432954,-0.630682 q 0,-0.04659 -0.03295,-0.07954 -0.03182,-0.03296 -0.07841,-0.03296 -0.04659,0 -0.07954,0.03296 -0.03296,0.03295 -0.03296,0.07954 0,0.04659 0.03296,0.07955 0.03295,0.03295 0.07954,0.03295 0.04659,0 0.07841,-0.03295 Q -27.572514,25.880871 -27.572514,25.83428 z m 0.356818,0.630682 q 0,-0.04659 -0.03295,-0.07954 -0.03295,-0.03296 -0.07954,-0.03296 -0.04659,0 -0.07955,0.03296 -0.03295,0.03295 -0.03295,0.07954 0,0.04659 0.03295,0.07955 0.03295,0.03295 0.07955,0.03295 0.04659,0 0.07954,-0.03295 Q -27.215696,26.511553 -27.215696,26.464962 Z"
         id="path1561"
         inkscape:connector-curvature="0" />
      <path
         d="m -26.360281,26.635417 -0.104545,0 0,-0.05455 q -0.09432,0.07386 -0.204545,0.07386 -0.170455,0 -0.26591,-0.111364 -0.08636,-0.1 -0.08636,-0.254545 0,-0.154546 0.08636,-0.254546 0.09546,-0.111363 0.26591,-0.111363 0.110227,0 0.204545,0.07386 l 0,-0.244318 -0.136364,0 0,-0.08977 0.240909,0 L -26.360281,26.635417 z m -0.104545,-0.160228 0,-0.372727 q -0.09091,-0.09545 -0.204545,-0.09545 -0.127273,0 -0.193182,0.08977 -0.05568,0.07614 -0.05568,0.192046 0,0.115909 0.05568,0.192045 0.06591,0.08977 0.193182,0.08977 Q -26.555735,26.570644 -26.464826,26.475189 Z"
         id="path1563"
         inkscape:connector-curvature="0" />
      <path
         d="m -25.627592,25.663826 -0.03182,0.346591 -0.07386,0 -0.03182,-0.346591 L -25.627592,25.663826 z m -0.279546,0 -0.03182,0.346591 -0.07386,0 -0.03182,-0.346591 L -25.907138,25.663826 Z"
         id="path1565"
         inkscape:connector-curvature="0" />
      <path
         d="m -24.894904,26.360417 -0.204546,0.417045 -0.07273,0 0.139773,-0.417045 L -24.894904,26.360417 Z"
         id="path1567"
         inkscape:connector-curvature="0" />
      <path
         d="m -23.801989,26.213826 q -0.025,0.128409 -0.120454,0.252272 l 0.120454,0.110228 -0.07045,0.08068 q -0.05,-0.05 -0.118182,-0.114773 -0.121591,0.110227 -0.267045,0.110227 -0.119319,0 -0.2,-0.08295 -0.07727,-0.07841 -0.07727,-0.182955 0,-0.157955 0.132954,-0.259091 -0.09886,-0.121591 -0.09886,-0.234091 0,-0.114773 0.06704,-0.181818 0.06705,-0.06705 0.178409,-0.06705 0.115909,0 0.181818,0.06705 0.05909,0.06023 0.05909,0.15 0,0.102273 -0.08068,0.173864 -0.02046,0.01818 -0.167046,0.110227 0.0625,0.06591 0.268182,0.254545 0.06818,-0.09659 0.09432,-0.211363 L -23.801989,26.213826 Z M -24.12017,25.85928 q 0,-0.05 -0.03295,-0.08523 -0.0375,-0.03864 -0.102273,-0.03864 -0.06364,0 -0.102272,0.04659 -0.0375,0.04545 -0.0375,0.111363 0,0.09091 0.07045,0.181818 0.115909,-0.06932 0.140909,-0.09091 Q -24.12017,25.929735 -24.12017,25.85928 z m 0.05909,0.614773 q -0.104545,-0.1 -0.277272,-0.272727 -0.08523,0.07614 -0.08523,0.185227 0,0.07045 0.04659,0.118182 0.04659,0.04773 0.119319,0.04773 Q -24.149716,26.552462 -24.06108,26.474053 Z"
         id="path1569"
         inkscape:connector-curvature="0" />
      <path
         d="m -23.327255,25.922917 q 0.110227,0 0.204545,0.07386 l 0,-0.05682 0.104546,0 0,0.695455 -0.104546,0 0,-0.286364 q -0.01932,0.110227 -0.0875,0.198864 -0.07954,0.106818 -0.179545,0.106818 -0.143182,0 -0.220455,-0.105682 -0.06932,-0.09432 -0.06932,-0.243182 0,-0.163636 0.09318,-0.270454 Q -23.488619,25.922917 -23.327255,25.922917 z m 0.204545,0.179545 q -0.08977,-0.09545 -0.204545,-0.09545 -0.120455,0 -0.1875,0.09205 -0.06023,0.08182 -0.06023,0.206818 0,0.103409 0.03977,0.170455 0.04886,0.08068 0.145455,0.08068 0.117045,0 0.198864,-0.146591 0.06818,-0.125 0.06818,-0.253409 L -23.12271,26.102462 Z"
         id="path1571"
         inkscape:connector-curvature="0" />
      <path
         d="m -22.390021,26.360417 -0.204546,0.417045 -0.07273,0 0.139773,-0.417045 L -22.390021,26.360417 Z"
         id="path1573"
         inkscape:connector-curvature="0" />
      <path
         d="m -21.297106,26.213826 q -0.025,0.128409 -0.120454,0.252272 l 0.120454,0.110228 -0.07045,0.08068 q -0.05,-0.05 -0.118182,-0.114773 -0.121591,0.110227 -0.267046,0.110227 -0.119318,0 -0.2,-0.08295 -0.07727,-0.07841 -0.07727,-0.182955 0,-0.157955 0.132954,-0.259091 -0.09886,-0.121591 -0.09886,-0.234091 0,-0.114773 0.06705,-0.181818 0.06705,-0.06705 0.178409,-0.06705 0.115909,0 0.181818,0.06705 0.05909,0.06023 0.05909,0.15 0,0.102273 -0.08068,0.173864 -0.02045,0.01818 -0.167045,0.110227 0.0625,0.06591 0.268182,0.254545 0.06818,-0.09659 0.09432,-0.211363 L -21.297106,26.213826 z m -0.318182,-0.354546 q 0,-0.05 -0.03295,-0.08523 -0.0375,-0.03864 -0.102273,-0.03864 -0.06364,0 -0.102273,0.04659 -0.0375,0.04545 -0.0375,0.111363 0,0.09091 0.07046,0.181818 0.115909,-0.06932 0.140909,-0.09091 Q -21.615288,25.929735 -21.615288,25.85928 z m 0.05909,0.614773 q -0.104545,-0.1 -0.277272,-0.272727 -0.08523,0.07614 -0.08523,0.185227 0,0.07045 0.04659,0.118182 0.04659,0.04773 0.119318,0.04773 Q -21.644833,26.552462 -21.556197,26.474053 Z"
         id="path1575"
         inkscape:connector-curvature="0" />
      <path
         d="m -20.476918,26.288826 q 0,0.154545 -0.0875,0.254545 -0.09545,0.111364 -0.264772,0.111364 -0.110228,0 -0.204546,-0.07386 l 0,0.05455 -0.104545,0 0,-0.972728 0.104545,0 0,0.334091 q 0.09432,-0.07386 0.204546,-0.07386 0.169318,0 0.264772,0.111363 Q -20.476918,26.13428 -20.476918,26.288826 z m -0.104545,0 q 0,-0.115909 -0.05568,-0.192046 -0.06591,-0.08977 -0.192045,-0.08977 -0.114773,0 -0.204546,0.09545 l 0,0.372727 q 0.08977,0.09546 0.204546,0.09546 0.126136,0 0.192045,-0.08977 Q -20.581463,26.404735 -20.581463,26.288826 Z"
         id="path1577"
         inkscape:connector-curvature="0" />
      <path
         d="m -19.784002,26.213826 q 0,0.207954 -0.08977,0.393182 -0.08636,0.179545 -0.242045,0.305681 l -0.05455,-0.06705 q 0.139773,-0.114773 0.218182,-0.276136 0.08182,-0.168182 0.08182,-0.355682 0,-0.1875 -0.08182,-0.355682 -0.07841,-0.161364 -0.218182,-0.276136 l 0.05455,-0.06705 q 0.155682,0.126136 0.242045,0.305682 Q -19.784002,26.005871 -19.784002,26.213826 Z"
         id="path1579"
         inkscape:connector-curvature="0" />
      <path
         d="m -19.091087,26.079735 -0.136363,0 0,-0.135227 0.136363,0 L -19.091087,26.079735 z m 0.04091,0.281818 -0.204545,0.417045 -0.07273,0 0.139772,-0.417045 L -19.050178,26.361553 Z"
         id="path1581"
         inkscape:connector-curvature="0" />
      <path
         d="m -34.700799,29.629735 q -0.09432,0.15 -0.302273,0.15 -0.171591,0 -0.272727,-0.111364 -0.09318,-0.101136 -0.09318,-0.254545 0,-0.154546 0.08636,-0.254546 0.09545,-0.111363 0.265909,-0.111363 0.07727,0 0.140909,0.03977 0.06364,0.03977 0.07727,0.09091 l 0,-0.113636 0.09091,0 0,0.277273 -0.09091,0 q 0,-0.08977 -0.07159,-0.153409 -0.06705,-0.05682 -0.146591,-0.05682 -0.127273,0 -0.193182,0.08977 -0.05568,0.07614 -0.05568,0.192046 0,0.113636 0.0625,0.192045 0.07159,0.08977 0.2,0.08977 0.07727,0 0.139773,-0.03182 0.0625,-0.03296 0.09091,-0.08409 L -34.700799,29.629735 Z"
         id="path1583"
         inkscape:connector-curvature="0" />
      <path
         d="m -33.005877,29.147917 -0.694318,0 0,-0.08182 0.694318,0 L -33.005877,29.147917 z m 0,0.334091 -0.694318,0 0,-0.08296 0.694318,0 L -33.005877,29.482008 Z"
         id="path1585"
         inkscape:connector-curvature="0" />
      <path
         d="m -31.676864,29.047917 q 0.110227,0 0.204545,0.07386 l 0,-0.05682 0.104546,0 0,0.695455 -0.104546,0 0,-0.286364 q -0.01932,0.110227 -0.0875,0.198864 -0.07954,0.106818 -0.179545,0.106818 -0.143182,0 -0.220455,-0.105682 -0.06932,-0.09432 -0.06932,-0.243182 0,-0.163636 0.09318,-0.270454 Q -31.838228,29.047917 -31.676864,29.047917 z m 0.204545,0.179545 q -0.08977,-0.09545 -0.204545,-0.09545 -0.120455,0 -0.1875,0.09205 -0.06023,0.08182 -0.06023,0.206818 0,0.103409 0.03977,0.170455 0.04886,0.08068 0.145455,0.08068 0.117045,0 0.198863,-0.146591 0.06818,-0.125 0.06818,-0.253409 L -31.472319,29.227462 Z"
         id="path1587"
         inkscape:connector-curvature="0" />
      <path
         d="m -29.666033,29.316098 -0.305682,0 0,0.305682 -0.08296,0 0,-0.305682 -0.305682,0 0,-0.08295 0.305682,0 0,-0.305682 0.08296,0 0,0.305682 0.305682,0 L -29.666033,29.316098 Z"
         id="path1589"
         inkscape:connector-curvature="0" />
      <path
         d="m -27.991566,29.413826 q 0,0.154545 -0.0875,0.254545 -0.09545,0.111364 -0.264773,0.111364 -0.110227,0 -0.204545,-0.07386 l 0,0.05455 -0.104546,0 0,-0.972728 0.104546,0 0,0.334091 q 0.09432,-0.07386 0.204545,-0.07386 0.169318,0 0.264773,0.111363 Q -27.991566,29.25928 -27.991566,29.413826 z m -0.104546,0 q 0,-0.115909 -0.05568,-0.192046 -0.06591,-0.08977 -0.192046,-0.08977 -0.114773,0 -0.204545,0.09545 l 0,0.372727 q 0.08977,0.09546 0.204545,0.09546 0.126137,0 0.192046,-0.08977 Q -28.096112,29.529735 -28.096112,29.413826 Z"
         id="path1591"
         inkscape:connector-curvature="0" />
      <path
         d="m -27.440696,29.204735 -0.136364,0 0,-0.135227 0.136364,0 L -27.440696,29.204735 z m 0.04091,0.281818 -0.204545,0.417045 -0.07273,0 0.139773,-0.417045 L -27.399787,29.486553 Z"
         id="path1593"
         inkscape:connector-curvature="0" />
      <path
         d="m -34.675799,34.101326 q 0,0.155682 -0.08636,0.255682 -0.09545,0.110227 -0.265909,0.110227 -0.110227,0 -0.204545,-0.07386 l 0,0.331818 -0.104546,0 0,-0.971591 0.104546,0 0,0.05568 q 0.09432,-0.07273 0.204545,-0.07273 0.170455,0 0.265909,0.110227 Q -34.675799,33.94678 -34.675799,34.101326 z m -0.103409,0 q 0,-0.115909 -0.05568,-0.192046 -0.06591,-0.08977 -0.193182,-0.08977 -0.113636,0 -0.204545,0.09545 l 0,0.372727 q 0.09091,0.09546 0.204545,0.09546 0.127273,0 0.193182,-0.08977 Q -34.779208,34.218371 -34.779208,34.101326 Z"
         id="path1595"
         inkscape:connector-curvature="0" />
      <path
         d="m -33.842143,33.760417 -0.03523,0.09545 q -0.05682,-0.02727 -0.130682,-0.02727 -0.122727,0 -0.197727,0.09546 -0.06818,0.0875 -0.06818,0.2125 l 0,0.221591 0.156818,0 0,0.08977 -0.417046,0 0,-0.08977 0.155682,0 0,-0.514773 -0.155682,0 0,-0.09091 0.260228,0 0,0.175 q 0.07159,-0.192045 0.265909,-0.192045 Q -33.90237,33.735417 -33.842143,33.760417 Z"
         id="path1597"
         inkscape:connector-curvature="0" />
      <path
         d="m -33.286728,33.613826 -0.1375,0 0,-0.138637 0.1375,0 L -33.286728,33.613826 z m 0.139773,0.834091 -0.417045,0 0,-0.09091 0.156818,0 0,-0.513637 -0.156818,0 0,-0.09091 0.260227,0 0,0.604546 0.156818,0 L -33.146955,34.447917 Z"
         id="path1599"
         inkscape:connector-curvature="0" />
      <path
         d="m -32.202903,34.447917 -0.104546,0 0,-0.428409 q 0,-0.185228 -0.152272,-0.185228 -0.121591,0 -0.195455,0.09091 -0.07045,0.08523 -0.07045,0.211364 l 0,0.311364 -0.104546,0 0,-0.695455 0.104546,0 0,0.175 q 0.07273,-0.192045 0.265909,-0.192045 0.256818,0 0.256818,0.284091 L -32.202903,34.447917 Z"
         id="path1601"
         inkscape:connector-curvature="0" />
      <path
         d="m -31.327033,34.226326 q -0.01136,0.103409 -0.07954,0.169318 -0.07386,0.07045 -0.192046,0.07045 -0.128409,0 -0.204545,-0.08295 -0.07045,-0.07614 -0.07045,-0.190909 l 0,-0.348864 -0.155682,0 0,-0.08977 0.155682,0 0,-0.278409 0.104546,0 0,0.278409 0.293181,0 0,0.08977 -0.293181,0 0,0.348864 q 0,0.07386 0.04091,0.123863 0.04659,0.05909 0.129545,0.05909 0.07955,0 0.126136,-0.05454 0.03977,-0.04773 0.04318,-0.118182 L -31.327033,34.226326 Z"
         id="path1603"
         inkscape:connector-curvature="0" />
      <path
         d="m -30.503436,33.843371 -0.293182,0 0,0.513637 0.156819,0 0,0.09091 -0.417046,0 0,-0.09091 0.156818,0 0,-0.513637 -0.156818,0 0,-0.09091 0.156818,0 q 0,-0.285227 0.298864,-0.285227 0.04546,0 0.09773,0.008 l 0,0.08409 q -0.04318,-0.0057 -0.07954,-0.0057 -0.119318,0 -0.169318,0.05455 -0.04432,0.04773 -0.04432,0.144318 l 0.293182,0 L -30.503436,33.843371 Z"
         id="path1605"
         inkscape:connector-curvature="0" />
      <path
         d="m -29.836657,34.658144 -0.05455,0.06705 q -0.154546,-0.127272 -0.242046,-0.306818 -0.08977,-0.185227 -0.08977,-0.393182 0,-0.206818 0.08977,-0.393181 0.0875,-0.17841 0.242046,-0.305682 l 0.05455,0.06705 q -0.139772,0.114773 -0.218181,0.277273 -0.08068,0.167045 -0.08068,0.354545 0,0.188637 0.08068,0.355682 Q -29.976429,34.543371 -29.836657,34.658144 Z"
         id="path1607"
         inkscape:connector-curvature="0" />
      <path
         d="m -28.969877,33.476326 -0.03182,0.346591 -0.07386,0 -0.03182,-0.346591 L -28.969877,33.476326 z m -0.279546,0 -0.03182,0.346591 -0.07386,0 -0.03182,-0.346591 L -29.249423,33.476326 Z"
         id="path1609"
         inkscape:connector-curvature="0" />
      <path
         d="m -28.022417,34.194508 q 0,0.113636 -0.0875,0.192045 -0.08636,0.07841 -0.218181,0.07841 -0.1125,0 -0.189773,-0.06023 -0.0625,-0.05 -0.06591,-0.09773 l 0,0.140909 -0.08977,0 0,-0.294319 0.08977,0 q 0,0.08295 0.06705,0.148864 0.07386,0.07273 0.188637,0.07273 0.107954,0 0.159091,-0.06477 0.03523,-0.04546 0.03523,-0.106819 0,-0.1125 -0.136364,-0.177272 -0.127273,-0.05227 -0.253409,-0.103409 -0.1375,-0.075 -0.1375,-0.215909 0,-0.102273 0.07727,-0.172728 0.08409,-0.07614 0.222727,-0.07614 0.08864,0 0.159091,0.05227 0.06591,0.05 0.06591,0.103409 l 0,-0.138637 0.09091,0 0,0.277273 -0.09091,0 q 0,-0.08295 -0.06705,-0.143182 -0.06705,-0.06136 -0.157955,-0.06136 -0.0875,0 -0.140909,0.04773 -0.05341,0.04659 -0.05341,0.110227 0,0.09432 0.138636,0.153409 0.128409,0.05341 0.256818,0.106818 Q -28.022417,34.04678 -28.022417,34.194508 Z"
         id="path1611"
         inkscape:connector-curvature="0" />
      <path
         d="m -27.194274,34.447917 -0.104545,0 0,-0.175 q -0.07273,0.192045 -0.265909,0.192045 -0.256819,0 -0.256819,-0.284091 l 0,-0.428409 0.104546,0 0,0.428409 q 0,0.186364 0.152273,0.186364 0.121591,0 0.195454,-0.09091 0.07045,-0.08636 0.07045,-0.2125 l 0,-0.311364 0.104545,0 L -27.194274,34.447917 Z"
         id="path1613"
         inkscape:connector-curvature="0" />
      <path
         d="m -26.328631,34.447917 -0.103409,0 0,-0.477273 q 0,-0.136364 -0.07955,-0.136364 -0.113636,0 -0.113636,0.220455 l 0,0.393182 -0.103409,0 0,-0.477273 q 0,-0.136364 -0.08068,-0.136364 -0.05455,0 -0.07954,0.04659 -0.02727,0.05114 -0.02727,0.173864 l -0.0011,0 0,0.393182 -0.103409,0 0,-0.695455 0.103409,0 0,0.101136 q 0.03295,-0.118181 0.135227,-0.118181 0.103409,0 0.138636,0.103409 0.05114,-0.103409 0.144318,-0.103409 0.0875,0 0.12841,0.05568 0.04204,0.05568 0.04204,0.179546 L -26.328631,34.447917 Z"
         id="path1615"
         inkscape:connector-curvature="0" />
      <path
         d="m -24.638255,34.102462 q 0,0.152273 -0.09318,0.254546 -0.101137,0.110227 -0.272728,0.110227 -0.170454,0 -0.271591,-0.110227 -0.09432,-0.102273 -0.09432,-0.254546 0,-0.153409 0.09432,-0.255682 0.101137,-0.110227 0.271591,-0.110227 0.171591,0 0.272728,0.110227 Q -24.638255,33.949053 -24.638255,34.102462 z m -0.103409,0 q 0,-0.114773 -0.0625,-0.192045 -0.07159,-0.08977 -0.2,-0.08977 -0.127272,0 -0.198863,0.08977 -0.0625,0.07727 -0.0625,0.192045 0,0.113636 0.0625,0.192046 0.07159,0.08977 0.198863,0.08977 0.128409,0 0.2,-0.08977 Q -24.741664,34.216098 -24.741664,34.102462 Z"
         id="path1617"
         inkscape:connector-curvature="0" />
      <path
         d="m -23.823748,33.843371 -0.293182,0 0,0.513637 0.156818,0 0,0.09091 -0.417045,0 0,-0.09091 0.156818,0 0,-0.513637 -0.156818,0 0,-0.09091 0.156818,0 q 0,-0.285227 0.298864,-0.285227 0.04545,0 0.09773,0.008 l 0,0.08409 q -0.04318,-0.0057 -0.07955,-0.0057 -0.119318,0 -0.169318,0.05455 -0.04432,0.04773 -0.04432,0.144318 l 0.293182,0 L -23.823748,33.843371 Z"
         id="path1619"
         inkscape:connector-curvature="0" />
      <path
         d="m -22.145872,34.136553 -0.597727,0 q 0.01023,0.103409 0.07159,0.170455 0.07045,0.07614 0.1875,0.07614 0.07727,0 0.139773,-0.03182 0.0625,-0.03296 0.09091,-0.08409 l 0.07159,0.05 q -0.09432,0.15 -0.302273,0.15 -0.170455,0 -0.271591,-0.111364 -0.09432,-0.101136 -0.09432,-0.254545 0,-0.154546 0.0875,-0.254546 0.09545,-0.111363 0.264772,-0.111363 0.186364,0 0.27841,0.128409 Q -22.145872,33.968371 -22.145872,34.136553 z m -0.109091,-0.09091 q -0.03295,-0.226136 -0.243182,-0.226136 -0.110227,0 -0.175,0.06932 -0.05568,0.05909 -0.06932,0.156818 L -22.254963,34.045644 Z"
         id="path1621"
         inkscape:connector-curvature="0" />
      <path
         d="m -21.348411,34.447917 -0.104545,0 0,-0.428409 q 0,-0.185228 -0.152273,-0.185228 -0.121591,0 -0.195455,0.09091 -0.07045,0.08523 -0.07045,0.211364 l 0,0.311364 -0.104546,0 0,-0.695455 0.104546,0 0,0.175 q 0.07273,-0.192045 0.265909,-0.192045 0.256818,0 0.256818,0.284091 L -21.348411,34.447917 Z"
         id="path1623"
         inkscape:connector-curvature="0" />
      <path
         d="m -20.472541,34.226326 q -0.01136,0.103409 -0.07954,0.169318 -0.07386,0.07045 -0.192046,0.07045 -0.128409,0 -0.204545,-0.08295 -0.07045,-0.07614 -0.07045,-0.190909 l 0,-0.348864 -0.155682,0 0,-0.08977 0.155682,0 0,-0.278409 0.104546,0 0,0.278409 0.293182,0 0,0.08977 -0.293182,0 0,0.348864 q 0,0.07386 0.04091,0.123863 0.04659,0.05909 0.129545,0.05909 0.07955,0 0.126137,-0.05454 0.03977,-0.04773 0.04318,-0.118182 L -20.472541,34.226326 Z"
         id="path1625"
         inkscape:connector-curvature="0" />
      <path
         d="m -19.640989,34.136553 -0.597727,0 q 0.01023,0.103409 0.07159,0.170455 0.07045,0.07614 0.1875,0.07614 0.07727,0 0.139772,-0.03182 0.0625,-0.03296 0.09091,-0.08409 l 0.07159,0.05 q -0.09432,0.15 -0.302272,0.15 -0.170455,0 -0.271591,-0.111364 -0.09432,-0.101136 -0.09432,-0.254545 0,-0.154546 0.0875,-0.254546 0.09545,-0.111363 0.264772,-0.111363 0.186364,0 0.278409,0.128409 Q -19.640989,33.968371 -19.640989,34.136553 z m -0.109091,-0.09091 q -0.03295,-0.226136 -0.243182,-0.226136 -0.110227,0 -0.175,0.06932 -0.05568,0.05909 -0.06932,0.156818 L -19.75008,34.045644 Z"
         id="path1627"
         inkscape:connector-curvature="0" />
      <path
         d="m -18.812846,33.760417 -0.03523,0.09545 q -0.05682,-0.02727 -0.130681,-0.02727 -0.122728,0 -0.197728,0.09546 -0.06818,0.0875 -0.06818,0.2125 l 0,0.221591 0.156818,0 0,0.08977 -0.417046,0 0,-0.08977 0.155682,0 0,-0.514773 -0.155682,0 0,-0.09091 0.260228,0 0,0.175 q 0.07159,-0.192045 0.265909,-0.192045 Q -18.873074,33.735417 -18.812846,33.760417 Z"
         id="path1629"
         inkscape:connector-curvature="0" />
      <path
         d="m -17.971067,34.136553 -0.597727,0 q 0.01023,0.103409 0.07159,0.170455 0.07045,0.07614 0.1875,0.07614 0.07727,0 0.139772,-0.03182 0.0625,-0.03296 0.09091,-0.08409 l 0.07159,0.05 q -0.09432,0.15 -0.302272,0.15 -0.170455,0 -0.271591,-0.111364 -0.09432,-0.101136 -0.09432,-0.254545 0,-0.154546 0.0875,-0.254546 0.09546,-0.111363 0.264773,-0.111363 0.186364,0 0.278409,0.128409 Q -17.971067,33.968371 -17.971067,34.136553 z m -0.109091,-0.09091 q -0.03295,-0.226136 -0.243182,-0.226136 -0.110227,0 -0.175,0.06932 -0.05568,0.05909 -0.06932,0.156818 L -18.080158,34.045644 Z"
         id="path1631"
         inkscape:connector-curvature="0" />
      <path
         d="m -17.178152,34.447917 -0.104545,0 0,-0.05455 q -0.09432,0.07386 -0.204546,0.07386 -0.170454,0 -0.265909,-0.111364 -0.08636,-0.1 -0.08636,-0.254545 0,-0.154546 0.08636,-0.254546 0.09546,-0.111363 0.265909,-0.111363 0.110228,0 0.204546,0.07386 l 0,-0.244318 -0.136364,0 0,-0.08977 0.240909,0 L -17.178152,34.447917 z m -0.104545,-0.160228 0,-0.372727 q -0.09091,-0.09545 -0.204546,-0.09545 -0.127272,0 -0.193181,0.08977 -0.05568,0.07614 -0.05568,0.192046 0,0.115909 0.05568,0.192045 0.06591,0.08977 0.193181,0.08977 Q -17.373606,34.383144 -17.282697,34.287689 Z"
         id="path1633"
         inkscape:connector-curvature="0" />
      <path
         d="m -15.503684,34.447917 -0.104546,0 0,-0.428409 q 0,-0.185228 -0.152272,-0.185228 -0.121591,0 -0.195455,0.09091 -0.07046,0.08523 -0.07046,0.211364 l 0,0.311364 -0.104545,0 0,-0.695455 0.104545,0 0,0.175 q 0.07273,-0.192045 0.26591,-0.192045 0.256818,0 0.256818,0.284091 L -15.503684,34.447917 Z"
         id="path1635"
         inkscape:connector-curvature="0" />
      <path
         d="m -14.66986,34.447917 -0.104545,0 0,-0.175 q -0.07273,0.192045 -0.265909,0.192045 -0.256818,0 -0.256818,-0.284091 l 0,-0.428409 0.104545,0 0,0.428409 q 0,0.186364 0.152273,0.186364 0.121591,0 0.195454,-0.09091 0.07046,-0.08636 0.07046,-0.2125 l 0,-0.311364 0.104545,0 L -14.66986,34.447917 Z"
         id="path1637"
         inkscape:connector-curvature="0" />
      <path
         d="m -13.804217,34.447917 -0.103409,0 0,-0.477273 q 0,-0.136364 -0.07955,-0.136364 -0.113636,0 -0.113636,0.220455 l 0,0.393182 -0.103409,0 0,-0.477273 q 0,-0.136364 -0.08068,-0.136364 -0.05455,0 -0.07955,0.04659 -0.02727,0.05114 -0.02727,0.173864 l -0.0011,0 0,0.393182 -0.103409,0 0,-0.695455 0.103409,0 0,0.101136 q 0.03295,-0.118181 0.135227,-0.118181 0.103409,0 0.138636,0.103409 0.05114,-0.103409 0.144318,-0.103409 0.0875,0 0.12841,0.05568 0.04204,0.05568 0.04204,0.179546 L -13.804217,34.447917 Z"
         id="path1639"
         inkscape:connector-curvature="0" />
      <path
         d="m -12.964711,34.101326 q 0,0.154545 -0.0875,0.254545 -0.09545,0.111364 -0.264772,0.111364 -0.110228,0 -0.204546,-0.07386 l 0,0.05455 -0.104545,0 0,-0.972728 0.104545,0 0,0.334091 q 0.09432,-0.07386 0.204546,-0.07386 0.169318,0 0.264772,0.111363 Q -12.964711,33.94678 -12.964711,34.101326 z m -0.104545,0 q 0,-0.115909 -0.05568,-0.192046 -0.06591,-0.08977 -0.192045,-0.08977 -0.114773,0 -0.204546,0.09545 l 0,0.372727 q 0.08977,0.09546 0.204546,0.09546 0.126136,0 0.192045,-0.08977 Q -13.069256,34.217235 -13.069256,34.101326 Z"
         id="path1641"
         inkscape:connector-curvature="0" />
      <path
         d="m -12.126341,34.136553 -0.597727,0 q 0.01023,0.103409 0.07159,0.170455 0.07045,0.07614 0.1875,0.07614 0.07727,0 0.139773,-0.03182 0.0625,-0.03296 0.09091,-0.08409 l 0.07159,0.05 q -0.09432,0.15 -0.302273,0.15 -0.170454,0 -0.271591,-0.111364 -0.09432,-0.101136 -0.09432,-0.254545 0,-0.154546 0.0875,-0.254546 0.09545,-0.111363 0.264773,-0.111363 0.186363,0 0.278409,0.128409 Q -12.126341,33.968371 -12.126341,34.136553 z m -0.10909,-0.09091 q -0.03295,-0.226136 -0.243182,-0.226136 -0.110228,0 -0.175,0.06932 -0.05568,0.05909 -0.06932,0.156818 L -12.235431,34.045644 Z"
         id="path1643"
         inkscape:connector-curvature="0" />
      <path
         d="m -11.298198,33.760417 -0.03523,0.09545 q -0.05682,-0.02727 -0.130682,-0.02727 -0.122727,0 -0.197727,0.09546 -0.06818,0.0875 -0.06818,0.2125 l 0,0.221591 0.156818,0 0,0.08977 -0.417045,0 0,-0.08977 0.155682,0 0,-0.514773 -0.155682,0 0,-0.09091 0.260227,0 0,0.175 q 0.07159,-0.192045 0.265909,-0.192045 Q -11.358425,33.735417 -11.298198,33.760417 Z"
         id="path1645"
         inkscape:connector-curvature="0" />
      <path
         d="m -10.482555,34.254735 q 0,0.09432 -0.0875,0.152273 -0.09091,0.06023 -0.245455,0.06023 -0.09659,0 -0.197727,-0.03068 -0.09432,-0.02841 -0.154545,-0.07046 l 0.04659,-0.08864 q 0.148863,0.106818 0.305681,0.106818 0.229546,0 0.229546,-0.126136 0,-0.07386 -0.144318,-0.09659 -0.207955,-0.02841 -0.265909,-0.04545 -0.144319,-0.04659 -0.144319,-0.177272 0,-0.08295 0.08409,-0.139773 0.09091,-0.0625 0.240909,-0.0625 0.17841,0 0.295455,0.08182 l -0.04091,0.07955 q -0.09318,-0.07727 -0.254546,-0.07727 -0.09659,0 -0.156818,0.03068 -0.06364,0.03182 -0.06364,0.0875 0,0.07273 0.143182,0.09659 0.195454,0.02727 0.267045,0.04545 Q -10.482555,34.127462 -10.482555,34.254735 Z"
         id="path1647"
         inkscape:connector-curvature="0" />
      <path
         d="m -8.7944513,33.835417 -0.6943182,0 0,-0.08182 0.6943182,0 L -8.7944513,33.835417 z m 0,0.334091 -0.6943182,0 0,-0.08295 0.6943182,0 L -8.7944513,34.169508 Z"
         id="path1649"
         inkscape:connector-curvature="0" />
      <path
         d="m -37.515909,35.20928 q 0,0.07727 -0.05568,0.132955 -0.05455,0.05454 -0.131818,0.05454 -0.07841,0 -0.134091,-0.05454 -0.05455,-0.05568 -0.05455,-0.132955 0,-0.07841 0.05455,-0.132954 0.05568,-0.05568 0.134091,-0.05568 0.07727,0 0.131818,0.05568 Q -37.515909,35.130871 -37.515909,35.20928 z m 0.336364,-0.147727 -0.623864,0.970455 -0.06932,-0.04545 0.623863,-0.971591 L -37.179545,35.061553 z m 0.02045,0.778409 q 0,0.07841 -0.05568,0.134091 -0.05454,0.05455 -0.132954,0.05455 -0.07841,0 -0.134091,-0.05455 -0.05455,-0.05568 -0.05455,-0.134091 0,-0.07727 0.05455,-0.131818 0.05568,-0.05568 0.134091,-0.05568 0.07841,0 0.132954,0.05568 Q -37.159091,35.762689 -37.159091,35.839962 z m -0.432954,-0.630682 q 0,-0.04659 -0.03296,-0.07955 -0.03182,-0.03295 -0.07841,-0.03295 -0.04659,0 -0.07955,0.03295 -0.03295,0.03295 -0.03295,0.07955 0,0.04659 0.03295,0.07955 0.03296,0.03295 0.07955,0.03295 0.04659,0 0.07841,-0.03295 Q -37.592045,35.255871 -37.592045,35.20928 z m 0.356818,0.630682 q 0,-0.04659 -0.03296,-0.07955 -0.03295,-0.03295 -0.07954,-0.03295 -0.04659,0 -0.07955,0.03295 -0.03295,0.03295 -0.03295,0.07955 0,0.04659 0.03295,0.07955 0.03296,0.03295 0.07955,0.03295 0.04659,0 0.07954,-0.03295 Q -37.235227,35.886553 -37.235227,35.839962 Z"
         id="path1651"
         inkscape:connector-curvature="0" />
      <path
         d="m -36.379812,36.010417 -0.104545,0 0,-0.05455 q -0.09432,0.07386 -0.204546,0.07386 -0.170454,0 -0.265909,-0.111364 -0.08636,-0.1 -0.08636,-0.254545 0,-0.154546 0.08636,-0.254546 0.09545,-0.111363 0.265909,-0.111363 0.110228,0 0.204546,0.07386 l 0,-0.244318 -0.136364,0 0,-0.08977 0.240909,0 L -36.379812,36.010417 z m -0.104545,-0.160228 0,-0.372727 q -0.09091,-0.09545 -0.204546,-0.09545 -0.127272,0 -0.193182,0.08977 -0.05568,0.07614 -0.05568,0.192046 0,0.115909 0.05568,0.192045 0.06591,0.08977 0.193182,0.08977 Q -36.575266,35.945644 -36.484357,35.850189 Z"
         id="path1653"
         inkscape:connector-curvature="0" />
      <path
         d="m -35.46076,36.152462 -0.07386,0.0375 -0.57159,-1.151136 0.07386,-0.0375 L -35.46076,36.152462 Z"
         id="path1655"
         inkscape:connector-curvature="0" />
      <path
         d="m -34.705344,36.010417 -0.104546,0 0,-0.428409 q 0,-0.185228 -0.152273,-0.185228 -0.121591,0 -0.195454,0.09091 -0.07045,0.08523 -0.07045,0.211364 l 0,0.311364 -0.104545,0 0,-0.695455 0.104545,0 0,0.175 q 0.07273,-0.192045 0.265909,-0.192045 0.256819,0 0.256819,0.284091 L -34.705344,36.010417 Z"
         id="path1657"
         inkscape:connector-curvature="0" />
      <path
         d="m -33.977202,35.038826 -0.03182,0.346591 -0.07386,0 -0.03182,-0.346591 L -33.977202,35.038826 z m -0.279545,0 -0.03182,0.346591 -0.07386,0 -0.03182,-0.346591 L -34.256747,35.038826 Z"
         id="path1659"
         inkscape:connector-curvature="0" />
      <path
         d="m -33.244513,35.735417 -0.204546,0.417045 -0.07273,0 0.139773,-0.417045 L -33.244513,35.735417 Z"
         id="path1661"
         inkscape:connector-curvature="0" />
      <path
         d="m -32.195916,35.879735 q -0.09432,0.15 -0.302273,0.15 -0.171591,0 -0.272727,-0.111364 -0.09318,-0.101136 -0.09318,-0.254545 0,-0.154546 0.08636,-0.254546 0.09545,-0.111363 0.265909,-0.111363 0.07727,0 0.140909,0.03977 0.06364,0.03977 0.07727,0.09091 l 0,-0.113636 0.09091,0 0,0.277273 -0.09091,0 q 0,-0.08977 -0.07159,-0.153409 -0.06705,-0.05682 -0.146591,-0.05682 -0.127273,0 -0.193182,0.08977 -0.05568,0.07614 -0.05568,0.192046 0,0.113636 0.0625,0.192045 0.07159,0.08977 0.2,0.08977 0.07727,0 0.139773,-0.03182 0.0625,-0.03296 0.09091,-0.08409 L -32.195916,35.879735 Z"
         id="path1663"
         inkscape:connector-curvature="0" />
      <path
         d="m -31.473455,35.588826 q 0,0.207954 -0.08977,0.393182 -0.08636,0.179545 -0.242045,0.305681 l -0.05455,-0.06705 q 0.139773,-0.114773 0.218182,-0.276136 0.08182,-0.168182 0.08182,-0.355682 0,-0.1875 -0.08182,-0.355682 -0.07841,-0.161364 -0.218182,-0.276136 l 0.05455,-0.06705 q 0.155681,0.126136 0.242045,0.305682 Q -31.473455,35.380871 -31.473455,35.588826 Z"
         id="path1665"
         inkscape:connector-curvature="0" />
      <path
         d="m -30.78054,35.454735 -0.136363,0 0,-0.135227 0.136363,0 L -30.78054,35.454735 z m 0.04091,0.281818 -0.204545,0.417045 -0.07273,0 0.139772,-0.417045 L -30.739631,35.736553 Z"
         id="path1667"
         inkscape:connector-curvature="0" />
      <path
         d="m -34.674663,40.010417 -0.03523,0.09545 q -0.05682,-0.02727 -0.130682,-0.02727 -0.122727,0 -0.197727,0.09546 -0.06818,0.0875 -0.06818,0.2125 l 0,0.221591 0.156818,0 0,0.08977 -0.417045,0 0,-0.08977 0.155682,0 0,-0.514773 -0.155682,0 0,-0.09091 0.260227,0 0,0.175 q 0.07159,-0.192045 0.265909,-0.192045 Q -34.73489,39.985417 -34.674663,40.010417 Z"
         id="path1669"
         inkscape:connector-curvature="0" />
      <path
         d="m -33.832884,40.386553 -0.597727,0 q 0.01023,0.103409 0.07159,0.170455 0.07046,0.07614 0.1875,0.07614 0.07727,0 0.139773,-0.03182 0.0625,-0.03296 0.09091,-0.08409 l 0.07159,0.05 q -0.09432,0.15 -0.302273,0.15 -0.170454,0 -0.271591,-0.111364 -0.09432,-0.101136 -0.09432,-0.254545 0,-0.154546 0.0875,-0.254546 0.09545,-0.111363 0.264773,-0.111363 0.186363,0 0.278409,0.128409 Q -33.832884,40.218371 -33.832884,40.386553 z m -0.10909,-0.09091 q -0.03296,-0.226136 -0.243182,-0.226136 -0.110228,0 -0.175,0.06932 -0.05568,0.05909 -0.06932,0.156818 L -33.941974,40.295644 Z"
         id="path1671"
         inkscape:connector-curvature="0" />
      <path
         d="m -32.994513,40.476326 q -0.01136,0.103409 -0.07955,0.169318 -0.07386,0.07045 -0.192045,0.07045 -0.128409,0 -0.204546,-0.08295 -0.07045,-0.07614 -0.07045,-0.190909 l 0,-0.348864 -0.155682,0 0,-0.08977 0.155682,0 0,-0.278409 0.104545,0 0,0.278409 0.293182,0 0,0.08977 -0.293182,0 0,0.348864 q 0,0.07386 0.04091,0.123863 0.04659,0.05909 0.129546,0.05909 0.07954,0 0.126136,-0.05454 0.03977,-0.04773 0.04318,-0.118182 L -32.994513,40.476326 Z"
         id="path1673"
         inkscape:connector-curvature="0" />
      <path
         d="m -32.201598,40.697917 -0.104545,0 0,-0.175 q -0.07273,0.192045 -0.26591,0.192045 -0.256818,0 -0.256818,-0.284091 l 0,-0.428409 0.104546,0 0,0.428409 q 0,0.186364 0.152272,0.186364 0.121591,0 0.195455,-0.09091 0.07046,-0.08636 0.07046,-0.2125 l 0,-0.311364 0.104545,0 L -32.201598,40.697917 Z"
         id="path1675"
         inkscape:connector-curvature="0" />
      <path
         d="m -31.334819,40.010417 -0.03523,0.09545 q -0.05682,-0.02727 -0.130682,-0.02727 -0.122727,0 -0.197727,0.09546 -0.06818,0.0875 -0.06818,0.2125 l 0,0.221591 0.156818,0 0,0.08977 -0.417045,0 0,-0.08977 0.155681,0 0,-0.514773 -0.155681,0 0,-0.09091 0.260227,0 0,0.175 q 0.07159,-0.192045 0.265909,-0.192045 Q -31.395046,39.985417 -31.334819,40.010417 Z"
         id="path1677"
         inkscape:connector-curvature="0" />
      <path
         d="m -30.53054,40.697917 -0.104545,0 0,-0.428409 q 0,-0.185228 -0.152273,-0.185228 -0.121591,0 -0.195455,0.09091 -0.07045,0.08523 -0.07045,0.211364 l 0,0.311364 -0.104545,0 0,-0.695455 0.104545,0 0,0.175 q 0.07273,-0.192045 0.265909,-0.192045 0.256818,0 0.256818,0.284091 L -30.53054,40.697917 Z"
         id="path1679"
         inkscape:connector-curvature="0" />
      <path
         d="m -28.794709,40.682008 -0.102273,-0.109091 q -0.101136,0.143181 -0.279545,0.143181 -0.164773,0 -0.264773,-0.123863 -0.107954,-0.132955 -0.107954,-0.379546 0,-0.163636 0.04886,-0.280681 l -0.05682,-0.06136 -0.0011,-0.119318 0.09886,0.104545 q 0.101137,-0.147727 0.282955,-0.147727 0.165909,0 0.265909,0.123864 0.107955,0.132954 0.107955,0.380681 0,0.167046 -0.05227,0.285228 l 0.06023,0.06477 L -28.794709,40.682008 z m -0.1125,-0.469319 q 0,-0.194318 -0.07045,-0.303409 -0.06932,-0.110227 -0.198864,-0.110227 -0.139773,0 -0.211364,0.132955 l 0.454546,0.482954 Q -28.907209,40.322917 -28.907209,40.212689 z m -0.06023,0.285228 -0.453409,-0.481819 q -0.025,0.08864 -0.025,0.196591 0,0.193182 0.07045,0.303409 0.07045,0.109091 0.198864,0.109091 Q -29.039027,40.625189 -28.967436,40.497917 Z"
         id="path1681"
         inkscape:connector-curvature="0" />
      <path
         d="m -28.275657,40.142235 -0.136364,0 0,-0.135227 0.136364,0 L -28.275657,40.142235 z m 0.04091,0.281818 -0.204545,0.417045 -0.07273,0 0.139773,-0.417045 L -28.234748,40.424053 Z"
         id="path1683"
         inkscape:connector-curvature="0" />
      <path
         d="m -37.319318,43.447917 q -0.138637,0 -0.138637,0.125 l 0,0.318181 q 0,0.08977 -0.05682,0.147728 -0.05795,0.06136 -0.152272,0.06136 l -0.06932,0 0,-0.08295 0.06932,0 q 0.126136,0 0.126136,-0.126137 l 0,-0.318181 q 0,-0.05455 0.03636,-0.104546 0.0375,-0.05114 0.09318,-0.0625 -0.05682,-0.01364 -0.09318,-0.06364 -0.03636,-0.05 -0.03636,-0.104546 l 0,-0.318181 q 0,-0.125 -0.126136,-0.125 l -0.06932,0 0,-0.08295 0.06932,0 q 0.09432,0 0.151136,0.06023 0.05795,0.05909 0.05795,0.147728 l 0,0.318181 q 0,0.126137 0.138637,0.126137 L -37.319318,43.447917 Z"
         id="path1685"
         inkscape:connector-curvature="0" />
    </g>
    <path
       inkscape:connector-curvature="0"
       style="fill:url(#linearGradient1110);fill-opacity:1;stroke:none"
       d="m 664.33929,688.25057 0,6.75 c 0,0.96604 0.68835,1.75 1.5625,1.75 l 39.625,0 c 0.87417,0 1.5625,-0.78396 1.5625,-1.75 l 0,-6.75 L 664.33929,688.25057 Z"
       id="path874" />
    <g
       style="font-size:29.88017273px;font-style:normal;font-variant:normal;font-weight:bold;font-stretch:normal;line-height:125%;letter-spacing:0px;word-spacing:0px;fill:#ffffff;fill-opacity:1;stroke:none;font-family:Impact;-inkscape-font-specification:Impact Bold"
       id="text968">
      <path
         d="m 680.31611,678.44729 0,4.81467 -4.44993,0 0,-4.81467 L 680.31611,678.44729 Z"
         style=""
         id="path977" />
      <path
         d="m 687.82992,659.64087 0,5.31073 q 0.75868,-0.70031 1.63407,-1.05047 0.88999,-0.35016 1.89669,-0.35016 1.54654,0 2.62619,0.78786 1.09425,0.78785 1.32768,1.82374 0.24803,1.02129 0.24803,3.74961 l 0,13.34978 -5.89433,0 0,-13.62699 q 0,-1.69243 -0.17508,-2.1739 -0.16049,-0.48147 -0.74408,-0.48147 -0.53983,0 -0.7295,0.49606 -0.18967,0.49606 -0.18967,1.96964 l 0,13.81666 -5.89433,0 0,-23.62109 L 687.82992,659.64087 Z"
         style=""
         id="path979" />
    </g>
    <g
       style="font-size:7.5px;font-style:normal;font-variant:normal;font-weight:bold;font-stretch:normal;line-height:125%;letter-spacing:0px;word-spacing:0px;fill:#ffffff;fill-opacity:1;stroke:none;font-family:Impact;-inkscape-font-specification:Impact Bold"
       id="text972">
      <path
         d="m 671.04022,692.12152 -1.54175,0 0,-1.03271 q 0,-0.45044 -0.0513,-0.56031 -0.0476,-0.11352 -0.21606,-0.11352 -0.19043,0 -0.2417,0.1355 -0.0513,0.13549 -0.0513,0.58593 l 0,2.75391 q 0,0.43213 0.0513,0.56396 0.0513,0.13184 0.23071,0.13184 0.17212,0 0.22339,-0.13184 0.0549,-0.13183 0.0549,-0.61889 l 0,-0.74341 1.54175,0 0,0.23071 q 0,0.91919 -0.13183,1.30371 -0.12818,0.38453 -0.57495,0.67383 -0.44312,0.28931 -1.09498,0.28931 -0.67749,0 -1.11694,-0.24536 -0.43945,-0.24536 -0.58227,-0.67749 -0.14283,-0.43579 -0.14283,-1.30738 l 0,-1.73217 q 0,-0.64087 0.0439,-0.95948 0.0439,-0.32226 0.26001,-0.61889 0.21972,-0.29663 0.60425,-0.46509 0.38818,-0.17212 0.88989,-0.17212 0.68115,0 1.12427,0.26367 0.44311,0.26367 0.58227,0.65918 0.13916,0.39185 0.13916,1.22315 L 671.04022,692.12152 Z"
         style=""
         id="path968" />
      <path
         d="m 672.84564,692.05927 1.3147,0 0,-1.31836 0.89355,0 0,1.31836 1.32203,0 0,0.89355 -1.32203,0 0,1.31103 -0.89355,0 0,-1.31103 -1.3147,0 L 672.84564,692.05927 Z"
         style=""
         id="path970" />
      <path
         d="m 676.84467,692.05927 1.31469,0 0,-1.31836 0.89356,0 0,1.31836 1.32202,0 0,0.89355 -1.32202,0 0,1.31103 -0.89356,0 0,-1.31103 -1.31469,0 L 676.84467,692.05927 Z"
         style=""
         id="path972" />
      <path
         d="m 685.78021,689.53607 0,5.92896 -1.54175,0 0,-2.49024 -0.46142,0 0,2.49024 -1.54175,0 0,-5.92896 1.54175,0 0,2.12036 0.46142,0 0,-2.12036 L 685.78021,689.53607 Z"
         style=""
         id="path974" />
      <path
         d="m 686.39545,689.53607 2.5708,0 0,1.18653 -1.02906,0 0,1.12426 0.96314,0 0,1.12793 -0.96314,0 0,1.30371 1.1316,0 0,1.18653 -2.67334,0 L 686.39545,689.53607 Z"
         style=""
         id="path976" />
      <path
         d="m 692.17792,689.53607 0.88257,5.92896 -1.57837,0 -0.0769,-1.06568 -0.55298,0 -0.0915,1.06568 -1.59668,0 0.78369,-5.92896 L 692.17792,689.53607 z m -0.81665,3.81226 q -0.11719,-1.00708 -0.23438,-2.48657 -0.23437,1.69921 -0.29297,2.48657 L 691.36127,693.34833 Z"
         style=""
         id="path978" />
      <path
         d="m 693.32416,689.53607 1.15356,0 q 1.11695,0 1.50879,0.10254 0.39551,0.10254 0.60059,0.33691 0.20508,0.23438 0.25634,0.52369 0.0513,0.28564 0.0513,1.12793 l 0,2.07641 q 0,0.79834 -0.0769,1.06934 -0.0732,0.26733 -0.26001,0.42114 -0.18677,0.15015 -0.46143,0.2124 -0.27465,0.0586 -0.82763,0.0586 l -1.94458,0 L 693.32416,689.53607 z m 1.54175,1.01441 0,3.90014 q 0.33325,0 0.41015,-0.13183 0.0769,-0.1355 0.0769,-0.72876 l 0,-2.30347 q 0,-0.40283 -0.0256,-0.51636 -0.0256,-0.11352 -0.11719,-0.16479 Q 695.11859,690.55048 694.86591,690.55048 Z"
         style=""
         id="path980" />
      <path
         d="m 697.46967,689.53607 2.5708,0 0,1.18653 -1.02906,0 0,1.12426 0.96314,0 0,1.12793 -0.96314,0 0,1.30371 1.1316,0 0,1.18653 -2.67334,0 L 697.46967,689.53607 Z"
         style=""
         id="path982" />
      <path
         d="m 700.58978,689.53607 1.09131,0 q 1.09131,0 1.47583,0.0842 0.38818,0.0842 0.62988,0.43213 0.24537,0.34424 0.24537,1.10229 0,0.69214 -0.17212,0.93018 -0.17212,0.23804 -0.67749,0.28564 0.45776,0.11353 0.61523,0.30396 0.15747,0.19043 0.19409,0.35156 0.0403,0.15747 0.0403,0.87525 l 0,1.56372 -1.43189,0 0,-1.97022 q 0,-0.47607 -0.0769,-0.5896 -0.0733,-0.11352 -0.39185,-0.11352 l 0,2.67334 -1.54175,0 L 700.58978,689.53607 z m 1.54175,1.01441 0,1.31836 q 0.26001,0 0.36255,-0.0696 0.1062,-0.0733 0.1062,-0.46509 l 0,-0.32593 q 0,-0.28198 -0.10254,-0.36987 Q 702.39886,690.55048 702.13153,690.55048 Z"
         style=""
         id="path984" />
    </g>
  </g>
</svg>
