<?xml version="1.0" encoding="UTF-8" standalone="no"?>
<!-- Created with Inkscape (http://www.inkscape.org/) -->

<svg
   xmlns:dc="http://purl.org/dc/elements/1.1/"
   xmlns:cc="http://creativecommons.org/ns#"
   xmlns:rdf="http://www.w3.org/1999/02/22-rdf-syntax-ns#"
   xmlns:svg="http://www.w3.org/2000/svg"
   xmlns="http://www.w3.org/2000/svg"
   xmlns:xlink="http://www.w3.org/1999/xlink"
   xmlns:sodipodi="http://sodipodi.sourceforge.net/DTD/sodipodi-0.dtd"
   xmlns:inkscape="http://www.inkscape.org/namespaces/inkscape"
   width="48"
   height="48"
   id="svg6391"
   version="1.1"
   inkscape:version="0.48+devel r12012"
   sodipodi:docname="application-x-bittorrent.svg">
  <defs
     id="defs6393">
    <linearGradient
       id="linearGradient1069-5">
      <stop
         style="stop-color:#ffffff;stop-opacity:1"
         offset="0"
         id="stop1071-6" />
      <stop
         style="stop-color:#e6e6e6;stop-opacity:1"
         offset="1"
         id="stop1073-0" />
    </linearGradient>
    <linearGradient
       inkscape:collect="always"
       xlink:href="#linearGradient918-1"
       id="linearGradient912"
       x1="462.37933"
       y1="837.0611"
       x2="463.75925"
       y2="835.67212"
       gradientUnits="userSpaceOnUse"
       gradientTransform="translate(57.14285,-297.14288)" />
    <linearGradient
       id="linearGradient918-1">
      <stop
         id="stop920-5"
         offset="0"
         style="stop-color:#f6f6f6;stop-opacity:1" />
      <stop
         id="stop922-7"
         offset="1"
         style="stop-color:#e2e2e2;stop-opacity:1" />
    </linearGradient>
    <linearGradient
       y2="468.35892"
       x2="314.34872"
       y1="425.61682"
       x1="314.34872"
       gradientTransform="translate(190.7961,107.43992)"
       gradientUnits="userSpaceOnUse"
       id="linearGradient887"
       xlink:href="#linearGradient1069-5"
       inkscape:collect="always" />
    <linearGradient
       gradientTransform="translate(244.59953,107.44237)"
       inkscape:collect="always"
       xlink:href="#linearGradient6707"
       id="linearGradient1110"
       x1="262.01361"
       y1="471.95245"
       x2="262.01361"
       y2="442.7843"
       gradientUnits="userSpaceOnUse" />
    <linearGradient
       id="linearGradient6707">
      <stop
         id="stop6709"
         offset="0"
         style="stop-color:#000000;stop-opacity:1;" />
      <stop
         id="stop6711"
         offset="1"
         style="stop-color:#ffffff;stop-opacity:1;" />
    </linearGradient>
    <linearGradient
       id="linearGradient3764">
      <stop
         id="stop3766"
         offset="0"
         style="stop-color:#8dd600;stop-opacity:1;" />
      <stop
         id="stop3768"
         offset="1"
         style="stop-color:#b0ff00;stop-opacity:1;" />
    </linearGradient>
    <linearGradient
       y2="1005.5562"
       x2="24.275551"
       y1="1045.1848"
       x1="24.275551"
       gradientTransform="matrix(0.72061424,0,0,0.72061424,488.41955,-185.99836)"
       gradientUnits="userSpaceOnUse"
       id="linearGradient4223"
       xlink:href="#linearGradient3764"
       inkscape:collect="always" />
  </defs>
  <sodipodi:namedview
     id="base"
     pagecolor="#ffffff"
     bordercolor="#666666"
     borderopacity="1.0"
     inkscape:pageopacity="0.0"
     inkscape:pageshadow="2"
     inkscape:zoom="15.839192"
     inkscape:cx="2.6057749"
     inkscape:cy="3.5470305"
     inkscape:document-units="px"
     inkscape:current-layer="layer1"
     showgrid="false"
     fit-margin-top="0"
     fit-margin-left="0"
     fit-margin-right="0"
     fit-margin-bottom="0"
     inkscape:window-width="1366"
     inkscape:window-height="718"
     inkscape:window-x="0"
     inkscape:window-y="28"
     inkscape:window-maximized="1" />
  <metadata
     id="metadata6396">
    <rdf:RDF>
      <cc:Work
         rdf:about="">
        <dc:format>image/svg+xml</dc:format>
        <dc:type
           rdf:resource="http://purl.org/dc/dcmitype/StillImage" />
        <dc:title />
      </cc:Work>
    </rdf:RDF>
  </metadata>
  <g
     inkscape:label="Capa 1"
     inkscape:groupmode="layer"
     id="layer1"
     transform="translate(-481.71429,-531.2193)">
    <path
       style="opacity:0.5;fill:#000000;fill-opacity:1;stroke:none"
       d="m 485.52679,533.12555 c -0.89692,0 -1.625,0.82132 -1.625,1.8125 l 0,40.5625 c 0,0.99119 0.72808,1.8125 1.625,1.8125 l 40.375,0 c 0.89693,0 1.625,-0.8213 1.625,-1.8125 l 0,-32 -10.40625,-10.375 L 485.52679,533.12555 Z"
       id="rect3922-2"
       inkscape:connector-curvature="0" />
    <path
       style="fill:url(#linearGradient887);fill-opacity:1;stroke:none"
       d="m 485.90179,533.68805 c -0.87415,0 -1.5625,0.78397 -1.5625,1.75 l 0,39.5625 c 0,0.96604 0.68834,1.75 1.5625,1.75 l 39.625,0 c 0.87416,0 1.5625,-0.78396 1.5625,-1.75 l 0,-31.125 -10.21875,-10.1875 L 485.90179,533.68805 Z"
       id="path869-2"
       inkscape:connector-curvature="0" />
    <path
       inkscape:connector-curvature="0"
       style="opacity:0.5;fill:#000000;fill-opacity:1;stroke:none"
       d="m 527.19978,544.0176 -10.53539,-10.50317 0,8.69895 c 0,0.99596 0.70967,1.80422 1.61092,1.80422 L 527.19978,544.0176 Z"
       id="path914" />
    <path
       id="path902"
       d="m 527.08929,543.87555 -10.21875,-10.1875 0,8.4375 c 0,0.96603 0.68834,1.75 1.5625,1.75 L 527.08929,543.87555 Z"
       style="fill:url(#linearGradient912);fill-opacity:1;stroke:none"
       inkscape:connector-curvature="0" />
    <path
       inkscape:connector-curvature="0"
       style="fill:url(#linearGradient1110);fill-opacity:1;stroke:none"
       d="m 484.33929,568.25055 0,6.75 c 0,0.96604 0.68835,1.75 1.5625,1.75 l 39.625,0 c 0.87417,0 1.5625,-0.78396 1.5625,-1.75 l 0,-6.75 L 484.33929,568.25055 Z"
       id="path874" />
    <path
       sodipodi:nodetypes="cccccccc"
       inkscape:connector-curvature="0"
       id="path5583-3"
       d="m 515.38659,551.29636 -5.50317,0 0,-11.3669 -7.88103,0 0,11.3669 -5.9604,0 L 505.85792,565.28706 Z"
       style="fill:url(#linearGradient4223);fill-opacity:1;stroke:none" />
    <g
       style="font-size:7.5px;font-style:normal;font-variant:normal;font-weight:bold;font-stretch:normal;line-height:125%;letter-spacing:0px;word-spacing:0px;fill:#ffffff;fill-opacity:1;stroke:none;font-family:Impact;-inkscape-font-specification:Impact Bold"
       id="text852">
      <path
         d="m 495.98773,569.53607 0,1.18653 -0.91553,0 0,4.74243 -1.54174,0 0,-4.74243 -0.91187,0 0,-1.18653 L 495.98773,569.53607 Z"
         style=""
         id="path857" />
      <path
         d="m 499.86224,573.00775 q 0,0.89356 -0.0439,1.26709 -0.0403,0.36987 -0.26367,0.67749 -0.21973,0.30762 -0.59693,0.47241 -0.37719,0.1648 -0.8789,0.1648 -0.47608,0 -0.85694,-0.15381 -0.37719,-0.15747 -0.60791,-0.46875 -0.23071,-0.31128 -0.27466,-0.67749 -0.0439,-0.36621 -0.0439,-1.28174 l 0,-1.0144 q 0,-0.89356 0.0403,-1.26343 0.0439,-0.37354 0.26367,-0.68115 0.22339,-0.30762 0.60059,-0.47242 0.3772,-0.16479 0.87891,-0.16479 0.47607,0 0.85327,0.15747 0.38086,0.15381 0.61157,0.46509 0.23071,0.31128 0.27466,0.67749 0.0439,0.36621 0.0439,1.28174 L 499.86224,573.00775 z m -1.54174,-1.94824 q 0,-0.41382 -0.0476,-0.52734 -0.0439,-0.11719 -0.18677,-0.11719 -0.12085,0 -0.18677,0.0952 -0.0623,0.0916 -0.0623,0.54932 l 0,2.76855 q 0,0.51636 0.0403,0.63721 0.0439,0.12085 0.19775,0.12085 0.15747,0 0.20142,-0.13916 0.0439,-0.13916 0.0439,-0.66284 L 498.3205,571.05951 Z"
         style=""
         id="path859" />
      <path
         d="m 500.44086,569.53607 1.09131,0 q 1.0913,0 1.47583,0.0842 0.38818,0.0842 0.62988,0.43213 0.24536,0.34424 0.24536,1.10229 0,0.69214 -0.17212,0.93018 -0.17212,0.23804 -0.67749,0.28564 0.45776,0.11353 0.61523,0.30396 0.15748,0.19043 0.1941,0.35156 0.0403,0.15747 0.0403,0.87525 l 0,1.56372 -1.43189,0 0,-1.97022 q 0,-0.47607 -0.0769,-0.5896 -0.0732,-0.11352 -0.39185,-0.11352 l 0,2.67334 -1.54174,0 L 500.44086,569.53607 z m 1.54174,1.01441 0,1.31836 q 0.26001,0 0.36255,-0.0696 0.1062,-0.0733 0.1062,-0.46509 l 0,-0.32593 q 0,-0.28198 -0.10253,-0.36987 Q 502.24994,570.55048 501.9826,570.55048 Z"
         style=""
         id="path861" />
      <path
         d="m 504.48383,569.53607 1.0913,0 q 1.09131,0 1.47583,0.0842 0.38819,0.0842 0.62989,0.43213 0.24536,0.34424 0.24536,1.10229 0,0.69214 -0.17212,0.93018 -0.17212,0.23804 -0.67749,0.28564 0.45776,0.11353 0.61523,0.30396 0.15747,0.19043 0.1941,0.35156 0.0403,0.15747 0.0403,0.87525 l 0,1.56372 -1.43189,0 0,-1.97022 q 0,-0.47607 -0.0769,-0.5896 -0.0732,-0.11352 -0.39185,-0.11352 l 0,2.67334 -1.54174,0 L 504.48383,569.53607 z m 1.54174,1.01441 0,1.31836 q 0.26001,0 0.36255,-0.0696 0.1062,-0.0733 0.1062,-0.46509 l 0,-0.32593 q 0,-0.28198 -0.10254,-0.36987 Q 506.29291,570.55048 506.02557,570.55048 Z"
         style=""
         id="path863" />
      <path
         d="m 508.52679,569.53607 2.57081,0 0,1.18653 -1.02906,0 0,1.12426 0.96314,0 0,1.12793 -0.96314,0 0,1.30371 1.13159,0 0,1.18653 -2.67334,0 L 508.52679,569.53607 Z"
         style=""
         id="path865" />
      <path
         d="m 515.08929,569.53607 0,5.92896 -1.35131,0 -0.80201,-2.69532 0,2.69532 -1.28906,0 0,-5.92896 1.28906,0 0.86426,2.66968 0,-2.66968 L 515.08929,569.53607 Z"
         style=""
         id="path867" />
      <path
         d="m 518.81,569.53607 0,1.18653 -0.91553,0 0,4.74243 -1.54175,0 0,-4.74243 -0.91186,0 0,-1.18653 L 518.81,569.53607 Z"
         style=""
         id="path869" />
    </g>
  </g>
</svg>
