<?xml version="1.0" encoding="UTF-8" standalone="no"?>
<!-- Created with Inkscape (http://www.inkscape.org/) -->

<svg
   xmlns:dc="http://purl.org/dc/elements/1.1/"
   xmlns:cc="http://creativecommons.org/ns#"
   xmlns:rdf="http://www.w3.org/1999/02/22-rdf-syntax-ns#"
   xmlns:svg="http://www.w3.org/2000/svg"
   xmlns="http://www.w3.org/2000/svg"
   xmlns:xlink="http://www.w3.org/1999/xlink"
   xmlns:sodipodi="http://sodipodi.sourceforge.net/DTD/sodipodi-0.dtd"
   xmlns:inkscape="http://www.inkscape.org/namespaces/inkscape"
   width="48"
   height="48"
   id="svg6391"
   version="1.1"
   inkscape:version="0.48+devel r12012"
   sodipodi:docname="authors.svg">
  <defs
     id="defs6393">
    <linearGradient
       id="linearGradient1069-5">
      <stop
         style="stop-color:#ffffff;stop-opacity:1"
         offset="0"
         id="stop1071-6" />
      <stop
         style="stop-color:#e6e6e6;stop-opacity:1"
         offset="1"
         id="stop1073-0" />
    </linearGradient>
    <linearGradient
       inkscape:collect="always"
       xlink:href="#linearGradient918-1"
       id="linearGradient912"
       x1="462.37933"
       y1="837.0611"
       x2="463.75925"
       y2="835.67212"
       gradientUnits="userSpaceOnUse"
       gradientTransform="translate(57.14285,-297.14288)" />
    <linearGradient
       id="linearGradient918-1">
      <stop
         id="stop920-5"
         offset="0"
         style="stop-color:#f6f6f6;stop-opacity:1" />
      <stop
         id="stop922-7"
         offset="1"
         style="stop-color:#e2e2e2;stop-opacity:1" />
    </linearGradient>
    <linearGradient
       y2="468.35892"
       x2="314.34872"
       y1="425.61682"
       x1="314.34872"
       gradientTransform="translate(190.7961,107.43992)"
       gradientUnits="userSpaceOnUse"
       id="linearGradient887"
       xlink:href="#linearGradient1069-5"
       inkscape:collect="always" />
    <linearGradient
       gradientTransform="translate(244.59953,107.44237)"
       inkscape:collect="always"
       xlink:href="#linearGradient6707"
       id="linearGradient1110"
       x1="262.01361"
       y1="471.95245"
       x2="262.01361"
       y2="442.7843"
       gradientUnits="userSpaceOnUse" />
    <linearGradient
       id="linearGradient6707">
      <stop
         id="stop6709"
         offset="0"
         style="stop-color:#000000;stop-opacity:1;" />
      <stop
         id="stop6711"
         offset="1"
         style="stop-color:#ffffff;stop-opacity:1;" />
    </linearGradient>
  </defs>
  <sodipodi:namedview
     id="base"
     pagecolor="#ffffff"
     bordercolor="#666666"
     borderopacity="1.0"
     inkscape:pageopacity="0.0"
     inkscape:pageshadow="2"
     inkscape:zoom="7.919596"
     inkscape:cx="-1.1482831"
     inkscape:cy="24.176685"
     inkscape:document-units="px"
     inkscape:current-layer="layer1"
     showgrid="false"
     fit-margin-top="0"
     fit-margin-left="0"
     fit-margin-right="0"
     fit-margin-bottom="0"
     inkscape:window-width="1366"
     inkscape:window-height="718"
     inkscape:window-x="0"
     inkscape:window-y="28"
     inkscape:window-maximized="1" />
  <metadata
     id="metadata6396">
    <rdf:RDF>
      <cc:Work
         rdf:about="">
        <dc:format>image/svg+xml</dc:format>
        <dc:type
           rdf:resource="http://purl.org/dc/dcmitype/StillImage" />
        <dc:title />
      </cc:Work>
    </rdf:RDF>
  </metadata>
  <g
     inkscape:label="Capa 1"
     inkscape:groupmode="layer"
     id="layer1"
     transform="translate(-481.71429,-531.2193)">
    <path
       style="opacity:0.5;fill:#000000;fill-opacity:1;stroke:none"
       d="m 485.52679,533.12555 c -0.89692,0 -1.625,0.82132 -1.625,1.8125 l 0,40.5625 c 0,0.99119 0.72808,1.8125 1.625,1.8125 l 40.375,0 c 0.89693,0 1.625,-0.8213 1.625,-1.8125 l 0,-32 -10.40625,-10.375 L 485.52679,533.12555 Z"
       id="rect3922-2"
       inkscape:connector-curvature="0" />
    <path
       style="fill:url(#linearGradient887);fill-opacity:1;stroke:none"
       d="m 485.90179,533.68805 c -0.87415,0 -1.5625,0.78397 -1.5625,1.75 l 0,39.5625 c 0,0.96604 0.68834,1.75 1.5625,1.75 l 39.625,0 c 0.87416,0 1.5625,-0.78396 1.5625,-1.75 l 0,-31.125 -10.21875,-10.1875 L 485.90179,533.68805 Z"
       id="path869-2"
       inkscape:connector-curvature="0" />
    <path
       inkscape:connector-curvature="0"
       style="opacity:0.5;fill:#000000;fill-opacity:1;stroke:none"
       d="m 527.19978,544.0176 -10.53539,-10.50317 0,8.69895 c 0,0.99596 0.70967,1.80422 1.61092,1.80422 L 527.19978,544.0176 Z"
       id="path914" />
    <path
       id="path902"
       d="m 527.08929,543.87555 -10.21875,-10.1875 0,8.4375 c 0,0.96603 0.68834,1.75 1.5625,1.75 L 527.08929,543.87555 Z"
       style="fill:url(#linearGradient912);fill-opacity:1;stroke:none"
       inkscape:connector-curvature="0" />
    <path
       inkscape:connector-curvature="0"
       style="fill:url(#linearGradient1110);fill-opacity:1;stroke:none"
       d="m 484.33929,568.25055 0,6.75 c 0,0.96604 0.68835,1.75 1.5625,1.75 l 39.625,0 c 0.87417,0 1.5625,-0.78396 1.5625,-1.75 l 0,-6.75 L 484.33929,568.25055 Z"
       id="path874" />
    <g
       id="g826"
       transform="matrix(0.7631579,0,0,0.7631579,487.3985,531.15991)"
       style="fill:#4d4d4d">
      <rect
         style="color:#000000;fill:#4d4d4d;fill-opacity:1;fill-rule:nonzero;stroke:none;stroke-width:1.39999998;marker:none;visibility:visible;display:inline;overflow:visible;enable-background:accumulate"
         id="rect3973"
         width="26.942068"
         height="17.335968"
         x="10.528965"
         y="25.664032"
         ry="6.5009885" />
      <rect
         ry="0"
         y="35.18972"
         x="10.528965"
         height="9.810277"
         width="26.942068"
         id="rect3975"
         style="color:#000000;fill:#4d4d4d;fill-opacity:1;fill-rule:nonzero;stroke:none;stroke-width:1.39999998;marker:none;visibility:visible;display:inline;overflow:visible;enable-background:accumulate" />
      <path
         sodipodi:type="arc"
         style="color:#000000;fill:#4d4d4d;fill-opacity:1;fill-rule:nonzero;stroke:none;stroke-width:1.39999998;marker:none;visibility:visible;display:inline;overflow:visible;enable-background:accumulate"
         id="path3977"
         sodipodi:cx="27.946283"
         sodipodi:cy="12.922024"
         sodipodi:rx="9.3707123"
         sodipodi:ry="9.3707123"
         d="m 37.316996,12.922024 c 0,5.175301 -4.195411,9.370712 -9.370713,9.370712 -5.175301,0 -9.370712,-4.195411 -9.370712,-9.370712 0,-5.1753017 4.195411,-9.3707125 9.370712,-9.3707125 C 33.121585,3.5513115 37.316996,7.7467223 37.316996,12.922024 Z"
         transform="matrix(0.81027837,0,0,0.81027837,1.355731,4.122449)" />
    </g>
    <g
       style="font-size:7.5px;font-style:normal;font-variant:normal;font-weight:bold;font-stretch:normal;line-height:125%;letter-spacing:0px;word-spacing:0px;fill:#ffffff;fill-opacity:1;stroke:none;font-family:Impact;-inkscape-font-specification:Impact Bold"
       id="text870">
      <path
         d="m 495.0191,569.53607 0.88257,5.92896 -1.57837,0 -0.0769,-1.06568 -0.55298,0 -0.0915,1.06568 -1.59668,0 0.78369,-5.92896 L 495.0191,569.53607 z m -0.81665,3.81226 q -0.11718,-1.00708 -0.23437,-2.48657 -0.23438,1.69921 -0.29297,2.48657 L 494.20245,573.34833 Z"
         style=""
         id="path875" />
      <path
         d="m 499.66998,569.53607 0,3.9624 q 0,0.67383 -0.0439,0.94849 -0.0439,0.271 -0.26001,0.5603 -0.21607,0.28565 -0.57129,0.43579 -0.35156,0.14649 -0.8313,0.14649 -0.53101,0 -0.9375,-0.17578 -0.40649,-0.17578 -0.60791,-0.45777 -0.20142,-0.28198 -0.23804,-0.59326 -0.0366,-0.31494 -0.0366,-1.31836 l 0,-3.5083 1.54175,0 0,4.4458 q 0,0.38819 0.0403,0.49805 0.0439,0.1062 0.17212,0.1062 0.14649,0 0.18677,-0.11719 0.0439,-0.12085 0.0439,-0.56396 l 0,-4.3689 L 499.66998,569.53607 Z"
         style=""
         id="path877" />
      <path
         d="m 503.37238,569.53607 0,1.18653 -0.91553,0 0,4.74243 -1.54175,0 0,-4.74243 -0.91187,0 0,-1.18653 L 503.37238,569.53607 Z"
         style=""
         id="path879" />
      <path
         d="m 507.26886,569.53607 0,5.92896 -1.54175,0 0,-2.49024 -0.46142,0 0,2.49024 -1.54175,0 0,-5.92896 1.54175,0 0,2.12036 0.46142,0 0,-2.12036 L 507.26886,569.53607 Z"
         style=""
         id="path881" />
      <path
         d="m 511.40704,573.00775 q 0,0.89356 -0.0439,1.26709 -0.0403,0.36987 -0.26367,0.67749 -0.21973,0.30762 -0.59693,0.47241 -0.37719,0.1648 -0.8789,0.1648 -0.47608,0 -0.85694,-0.15381 -0.37719,-0.15747 -0.60791,-0.46875 -0.23071,-0.31128 -0.27466,-0.67749 -0.0439,-0.36621 -0.0439,-1.28174 l 0,-1.0144 q 0,-0.89356 0.0403,-1.26343 0.0439,-0.37354 0.26367,-0.68115 0.22339,-0.30762 0.60059,-0.47242 0.3772,-0.16479 0.87891,-0.16479 0.47607,0 0.85327,0.15747 0.38086,0.15381 0.61157,0.46509 0.23071,0.31128 0.27466,0.67749 0.0439,0.36621 0.0439,1.28174 L 511.40704,573.00775 z m -1.54174,-1.94824 q 0,-0.41382 -0.0476,-0.52734 -0.044,-0.11719 -0.18677,-0.11719 -0.12085,0 -0.18677,0.0952 -0.0623,0.0916 -0.0623,0.54932 l 0,2.76855 q 0,0.51636 0.0403,0.63721 0.0439,0.12085 0.19775,0.12085 0.15747,0 0.20142,-0.13916 0.0439,-0.13916 0.0439,-0.66284 L 509.8653,571.05951 Z"
         style=""
         id="path883" />
      <path
         d="m 511.98566,569.53607 1.09131,0 q 1.0913,0 1.47583,0.0842 0.38818,0.0842 0.62988,0.43213 0.24536,0.34424 0.24536,1.10229 0,0.69214 -0.17212,0.93018 -0.17212,0.23804 -0.67749,0.28564 0.45776,0.11353 0.61523,0.30396 0.15748,0.19043 0.1941,0.35156 0.0403,0.15747 0.0403,0.87525 l 0,1.56372 -1.43189,0 0,-1.97022 q 0,-0.47607 -0.0769,-0.5896 -0.0732,-0.11352 -0.39185,-0.11352 l 0,2.67334 -1.54174,0 L 511.98566,569.53607 z m 1.54174,1.01441 0,1.31836 q 0.26001,0 0.36255,-0.0696 0.1062,-0.0733 0.1062,-0.46509 l 0,-0.32593 q 0,-0.28198 -0.10253,-0.36987 Q 513.79474,570.55048 513.5274,570.55048 Z"
         style=""
         id="path885" />
      <path
         d="m 519.29523,571.33051 -1.43189,0 0,-0.43946 q 0,-0.30761 -0.0549,-0.39184 -0.0549,-0.0842 -0.1831,-0.0842 -0.13916,0 -0.21241,0.11352 -0.0696,0.11353 -0.0696,0.34424 0,0.29663 0.0806,0.44678 0.0769,0.15015 0.43579,0.36255 1.02905,0.61157 1.29639,1.00342 0.26733,0.39184 0.26733,1.26342 0,0.63355 -0.15015,0.93384 -0.14648,0.30029 -0.57128,0.50537 -0.42481,0.20142 -0.98877,0.20142 -0.6189,0 -1.05835,-0.23438 -0.43579,-0.23437 -0.57129,-0.59692 -0.1355,-0.36255 -0.1355,-1.02905 l 0,-0.38819 1.43188,0 0,0.72144 q 0,0.33325 0.0586,0.42847 0.0623,0.0952 0.21606,0.0952 0.15381,0 0.22705,-0.12085 0.0769,-0.12085 0.0769,-0.35889 0,-0.52368 -0.14283,-0.68481 -0.14648,-0.16113 -0.72143,-0.53833 -0.57495,-0.38086 -0.76172,-0.55298 -0.18677,-0.17212 -0.31128,-0.47607 -0.12085,-0.30396 -0.12085,-0.77637 0,-0.68115 0.17212,-0.99609 0.17578,-0.31495 0.56397,-0.49073 0.38818,-0.17944 0.9375,-0.17944 0.60058,0 1.02172,0.19409 0.42481,0.19409 0.56031,0.49072 0.13916,0.29297 0.13916,0.99976 L 519.29523,571.33051 Z"
         style=""
         id="path887" />
    </g>
  </g>
</svg>
