<?xml version="1.0" encoding="UTF-8" standalone="no"?>
<!-- Created with Inkscape (http://www.inkscape.org/) -->

<svg
   xmlns:dc="http://purl.org/dc/elements/1.1/"
   xmlns:cc="http://creativecommons.org/ns#"
   xmlns:rdf="http://www.w3.org/1999/02/22-rdf-syntax-ns#"
   xmlns:svg="http://www.w3.org/2000/svg"
   xmlns="http://www.w3.org/2000/svg"
   xmlns:xlink="http://www.w3.org/1999/xlink"
   xmlns:sodipodi="http://sodipodi.sourceforge.net/DTD/sodipodi-0.dtd"
   xmlns:inkscape="http://www.inkscape.org/namespaces/inkscape"
   width="48"
   height="48"
   id="svg6536"
   version="1.1"
   inkscape:version="0.48+devel r12012"
   sodipodi:docname="application-x-ms-dos-executable.svg">
  <defs
     id="defs6538">
    <linearGradient
       inkscape:collect="always"
       id="linearGradient4071">
      <stop
         style="stop-color:#501616;stop-opacity:1"
         offset="0"
         id="stop4073" />
      <stop
         style="stop-color:#d80056;stop-opacity:1"
         offset="1"
         id="stop4075" />
    </linearGradient>
    <linearGradient
       id="linearGradient6707-5">
      <stop
         id="stop6709-0"
         offset="0"
         style="stop-color:#000000;stop-opacity:1;" />
      <stop
         id="stop6711-5"
         offset="1"
         style="stop-color:#ffffff;stop-opacity:1;" />
    </linearGradient>
    <linearGradient
       gradientTransform="translate(284.59954,181.72814)"
       y2="442.7843"
       x2="262.01361"
       y1="471.95245"
       x1="262.01361"
       gradientUnits="userSpaceOnUse"
       id="linearGradient1127"
       xlink:href="#linearGradient6707-5"
       inkscape:collect="always" />
    <linearGradient
       inkscape:collect="always"
       xlink:href="#linearGradient4071"
       id="linearGradient4077"
       x1="545.91217"
       y1="651.69586"
       x2="545.91217"
       y2="608.50153"
       gradientUnits="userSpaceOnUse" />
  </defs>
  <sodipodi:namedview
     id="base"
     pagecolor="#ffffff"
     bordercolor="#666666"
     borderopacity="1.0"
     inkscape:pageopacity="0.0"
     inkscape:pageshadow="2"
     inkscape:zoom="2.2109375"
     inkscape:cx="-150.04405"
     inkscape:cy="23.523296"
     inkscape:document-units="px"
     inkscape:current-layer="layer1"
     showgrid="false"
     fit-margin-top="0"
     fit-margin-left="0"
     fit-margin-right="0"
     fit-margin-bottom="0"
     inkscape:window-width="1366"
     inkscape:window-height="718"
     inkscape:window-x="0"
     inkscape:window-y="28"
     inkscape:window-maximized="1"
     showguides="false">
    <inkscape:grid
       type="xygrid"
       id="grid3918" />
  </sodipodi:namedview>
  <metadata
     id="metadata6541">
    <rdf:RDF>
      <cc:Work
         rdf:about="">
        <dc:format>image/svg+xml</dc:format>
        <dc:type
           rdf:resource="http://purl.org/dc/dcmitype/StillImage" />
        <dc:title />
      </cc:Work>
    </rdf:RDF>
  </metadata>
  <g
     inkscape:label="Capa 1"
     inkscape:groupmode="layer"
     id="layer1"
     transform="translate(-521.71429,-605.50507)">
    <path
       style="opacity:0.5;fill:#000000;fill-opacity:1;stroke:none"
       d="m 525.51283,607.42308 40.4029,0 c 0.89693,0 1.619,0.79795 1.619,1.78914 l 0,40.58571 c 0,0.99119 -0.72207,1.78914 -1.619,1.78914 l -40.4029,0 c -0.89692,0 -1.61899,-0.79795 -1.61899,-1.78914 l 0,-40.58571 C 523.89384,608.22103 524.61591,607.42308 525.51283,607.42308 Z"
       id="rect3922"
       inkscape:connector-curvature="0" />
    <path
       style="fill:#ffffff;fill-opacity:1;stroke:none"
       d="m 525.91705,607.98358 39.59446,0 c 0.87416,0 1.57791,0.77771 1.57791,1.74374 l 0,39.5556 c 0,0.96604 -0.70375,1.74374 -1.57791,1.74374 l -39.59446,0 c -0.87416,0 -1.5779,-0.7777 -1.5779,-1.74374 l 0,-39.5556 C 524.33915,608.76129 525.04289,607.98358 525.91705,607.98358 Z"
       id="rect3924"
       inkscape:connector-curvature="0" />
    <path
       inkscape:connector-curvature="0"
       id="path869"
       d="m 525.91705,607.98358 39.59446,0 c 0.87416,0 1.57791,0.77771 1.57791,1.74374 l 0,39.5556 c 0,0.96604 -0.70375,1.74374 -1.57791,1.74374 l -39.59446,0 c -0.87416,0 -1.5779,-0.7777 -1.5779,-1.74374 l 0,-39.5556 C 524.33915,608.76129 525.04289,607.98358 525.91705,607.98358 Z"
       style="fill:url(#linearGradient4077);fill-opacity:1;stroke:none" />
    <path
       inkscape:connector-curvature="0"
       style="fill:url(#linearGradient1127);fill-opacity:1;stroke:none"
       d="m 524.33929,642.53632 0,6.75 c 0,0.96604 0.68834,1.75 1.5625,1.75 l 39.625,0 c 0.87416,0 1.5625,-0.78396 1.5625,-1.75 l 0,-6.75 L 524.33929,642.53632 Z"
       id="path874-2" />
    <path
       style="opacity:0.35648151;fill:none;stroke:none"
       d="m 521.71429,605.50507 48,0 0,48 -48,0 z"
       id="rect4543" />
    <g
       style="font-size:10px;font-style:normal;font-variant:normal;font-weight:normal;font-stretch:normal;line-height:125%;letter-spacing:0px;word-spacing:0px;fill:#000000;fill-opacity:1;stroke:none;font-family:Decker;-inkscape-font-specification:Decker"
       id="text6661" />
    <g
       id="g871"
       transform="translate(2.02331,-5e-6)">
      <path
         d="m 538.98517,643.82185 2.5708,0 0,1.18652 -1.02906,0 0,1.12427 0.96314,0 0,1.12793 -0.96314,0 0,1.30371 1.1316,0 0,1.18652 -2.67334,0 L 538.98517,643.82185 Z"
         id="path881"
         inkscape:connector-curvature="0"
         style="font-size:7.5px;font-style:normal;font-variant:normal;font-weight:bold;font-stretch:normal;line-height:125%;letter-spacing:0px;word-spacing:0px;fill:#ffffff;fill-opacity:1;stroke:none;font-family:Impact;-inkscape-font-specification:Impact Bold" />
      <path
         d="m 545.22906,643.82185 -0.53833,2.62207 0.81299,3.30688 -1.42822,0 q -0.25635,-0.88623 -0.46875,-2.15698 -0.0586,0.5603 -0.16113,1.19018 l -0.14649,0.9668 -1.50146,0 0.55664,-3.30688 -0.55664,-2.62207 1.49047,0 q 0.0403,0.24536 0.16114,0.81665 0.0952,0.43579 0.15747,0.79834 l 0.32959,-1.61499 L 545.22906,643.82185 Z"
         id="path883"
         inkscape:connector-curvature="0"
         style="font-size:7.5px;font-style:normal;font-variant:normal;font-weight:bold;font-stretch:normal;line-height:125%;letter-spacing:0px;word-spacing:0px;fill:#ffffff;fill-opacity:1;stroke:none;font-family:Impact;-inkscape-font-specification:Impact Bold" />
      <path
         d="m 545.72345,643.82185 2.5708,0 0,1.18652 -1.02905,0 0,1.12427 0.96313,0 0,1.12793 -0.96313,0 0,1.30371 1.13159,0 0,1.18652 -2.67334,0 L 545.72345,643.82185 Z"
         id="path885"
         inkscape:connector-curvature="0"
         style="font-size:7.5px;font-style:normal;font-variant:normal;font-weight:bold;font-stretch:normal;line-height:125%;letter-spacing:0px;word-spacing:0px;fill:#ffffff;fill-opacity:1;stroke:none;font-family:Impact;-inkscape-font-specification:Impact Bold" />
    </g>
    <rect
       style="fill:#f04f21;fill-opacity:1;stroke:none"
       id="rect876"
       width="10.413999"
       height="10.413999"
       x="534.22369"
       y="613.62518"
       ry="0" />
    <rect
       ry="0"
       y="613.62518"
       x="546.28198"
       height="10.413999"
       width="10.413999"
       id="rect878"
       style="fill:#7eb801;fill-opacity:1;stroke:none" />
    <rect
       ry="0"
       y="626.0946"
       x="534.22369"
       height="10.413999"
       width="10.413999"
       id="rect880"
       style="fill:#01a3ee;fill-opacity:1;stroke:none" />
    <rect
       style="fill:#feb800;fill-opacity:1;stroke:none"
       id="rect882"
       width="10.413999"
       height="10.413999"
       x="546.28198"
       y="626.0946"
       ry="0" />
  </g>
</svg>
