<?xml version="1.0" encoding="UTF-8" standalone="no"?>
<!-- Created with Inkscape (http://www.inkscape.org/) -->

<svg
   xmlns:dc="http://purl.org/dc/elements/1.1/"
   xmlns:cc="http://creativecommons.org/ns#"
   xmlns:rdf="http://www.w3.org/1999/02/22-rdf-syntax-ns#"
   xmlns:svg="http://www.w3.org/2000/svg"
   xmlns="http://www.w3.org/2000/svg"
   xmlns:xlink="http://www.w3.org/1999/xlink"
   xmlns:sodipodi="http://sodipodi.sourceforge.net/DTD/sodipodi-0.dtd"
   xmlns:inkscape="http://www.inkscape.org/namespaces/inkscape"
   width="48"
   height="48"
   id="svg4424"
   version="1.1"
   inkscape:version="0.48+devel r11721"
   sodipodi:docname="libreoffice-oasis-spreadsheet.svg">
  <defs
     id="defs4426">
    <linearGradient
       y2="468.35892"
       x2="314.34872"
       y1="425.61682"
       x1="314.34872"
       gradientTransform="translate(-290.91819,580.58282)"
       gradientUnits="userSpaceOnUse"
       id="linearGradient887"
       xlink:href="#linearGradient1069-5"
       inkscape:collect="always" />
    <linearGradient
       id="linearGradient1069-5">
      <stop
         style="stop-color:#55d400;stop-opacity:1"
         offset="0"
         id="stop1071-6" />
      <stop
         style="stop-color:#44aa00;stop-opacity:1"
         offset="1"
         id="stop1073-0" />
    </linearGradient>
    <linearGradient
       inkscape:collect="always"
       xlink:href="#linearGradient918-1"
       id="linearGradient912"
       x1="462.37933"
       y1="837.0611"
       x2="463.75925"
       y2="835.67212"
       gradientUnits="userSpaceOnUse"
       gradientTransform="translate(-424.57144,176.00002)" />
    <linearGradient
       id="linearGradient918-1">
      <stop
         id="stop920-5"
         offset="0"
         style="stop-color:#f6f6f6;stop-opacity:1" />
      <stop
         id="stop922-7"
         offset="1"
         style="stop-color:#e2e2e2;stop-opacity:1" />
    </linearGradient>
    <linearGradient
       gradientTransform="translate(-237.11476,581.14777)"
       inkscape:collect="always"
       xlink:href="#linearGradient6707"
       id="linearGradient1110"
       x1="262.01361"
       y1="471.95245"
       x2="262.01361"
       y2="442.7843"
       gradientUnits="userSpaceOnUse" />
    <linearGradient
       id="linearGradient6707">
      <stop
         id="stop6709"
         offset="0"
         style="stop-color:#000000;stop-opacity:1;" />
      <stop
         id="stop6711"
         offset="1"
         style="stop-color:#ffffff;stop-opacity:1;" />
    </linearGradient>
  </defs>
  <sodipodi:namedview
     id="base"
     pagecolor="#ffffff"
     bordercolor="#666666"
     borderopacity="1.0"
     inkscape:pageopacity="0.0"
     inkscape:pageshadow="2"
     inkscape:zoom="7.9195959"
     inkscape:cx="10.733848"
     inkscape:cy="24.908577"
     inkscape:document-units="px"
     inkscape:current-layer="layer1"
     showgrid="false"
     inkscape:window-width="1366"
     inkscape:window-height="746"
     inkscape:window-x="0"
     inkscape:window-y="0"
     inkscape:window-maximized="1" />
  <metadata
     id="metadata4429">
    <rdf:RDF>
      <cc:Work
         rdf:about="">
        <dc:format>image/svg+xml</dc:format>
        <dc:type
           rdf:resource="http://purl.org/dc/dcmitype/StillImage" />
        <dc:title />
      </cc:Work>
    </rdf:RDF>
  </metadata>
  <g
     inkscape:label="Capa 1"
     inkscape:groupmode="layer"
     id="layer1"
     transform="translate(0,-1004.3622)">
    <path
       style="opacity:0.5;fill:#000000;fill-opacity:1;stroke:none"
       d="m 3.8125,1006.2685 c -0.89692,0 -1.625,0.8213 -1.625,1.8125 l 0,40.5625 c 0,0.9911 0.72808,1.8125 1.625,1.8125 l 40.375,0 c 0.89693,0 1.625,-0.8213 1.625,-1.8125 l 0,-32 -10.40625,-10.375 L 3.8125,1006.2685 Z"
       id="rect3922-2"
       inkscape:connector-curvature="0" />
    <path
       style="fill:url(#linearGradient887);fill-opacity:1;stroke:none"
       d="m 4.1875,1006.831 c -0.87415,0 -1.5625,0.7839 -1.5625,1.75 l 0,39.5625 c 0,0.966 0.68834,1.75 1.5625,1.75 l 39.625,0 c 0.87416,0 1.5625,-0.784 1.5625,-1.75 l 0,-31.125 L 35.15625,1006.831 4.1875,1006.831 Z"
       id="path869-2"
       inkscape:connector-curvature="0" />
    <path
       inkscape:connector-curvature="0"
       style="opacity:0.5;fill:#000000;fill-opacity:1;stroke:none"
       d="m 45.48549,1017.1605 -10.53539,-10.5032 0,8.699 c 0,0.9959 0.70967,1.8042 1.61092,1.8042 L 45.48549,1017.1605 Z"
       id="path914" />
    <path
       id="path902"
       d="m 45.375,1017.0185 -10.21875,-10.1875 0,8.4375 c 0,0.966 0.68834,1.75 1.5625,1.75 L 45.375,1017.0185 Z"
       style="fill:url(#linearGradient912);fill-opacity:1;stroke:none"
       inkscape:connector-curvature="0" />
    <g
       id="g6430"
       transform="matrix(4.9840616,0,0,4.9840616,-33.709821,-3999.73)">
      <path
         sodipodi:nodetypes="cccccc"
         inkscape:connector-curvature="0"
         id="path6396"
         d="m 9.8553007,1006.4134 0,4.0466 3.4471463,0 0,-2.4655 L 11.835502,1006.4063 Z"
         style="fill:none;stroke:#ffffff;stroke-width:0.40000001;stroke-linecap:butt;stroke-linejoin:miter;stroke-miterlimit:4;stroke-opacity:1;stroke-dasharray:none" />
      <path
         sodipodi:nodetypes="ccccc"
         inkscape:connector-curvature="0"
         id="path7166"
         d="m 13.496923,1007.4589 -1.146561,-1.2526 1.152085,0 L 13.502447,1007.4589 Z"
         style="fill:#ffffff;stroke:none" />
    </g>
    <g
       id="g844"
       transform="translate(0,-0.5625)">
      <path
         id="path874"
         d="m 2.6249791,1041.956 0,6.75 c 0,0.966 0.68835,1.75 1.5625,1.75 l 39.6250099,0 c 0.87417,0 1.5625,-0.784 1.5625,-1.75 l 0,-6.75 L 2.6249791,1041.956 Z"
         style="fill:url(#linearGradient1110);fill-opacity:1;stroke:none"
         inkscape:connector-curvature="0" />
      <g
         id="text4483"
         style="font-size:7.5px;font-style:normal;font-variant:normal;font-weight:bold;font-stretch:normal;line-height:125%;letter-spacing:0px;word-spacing:0px;fill:#ffffff;fill-opacity:1;stroke:none;font-family:Impact;-inkscape-font-specification:Impact Bold">
        <path
           id="path4488"
           d="m 21.723984,1046.7133 q 0,0.8935 -0.04395,1.267 -0.04028,0.3699 -0.263671,0.6775 -0.219727,0.3077 -0.596924,0.4724 -0.377198,0.1648 -0.878907,0.1648 -0.476074,0 -0.856933,-0.1538 -0.377197,-0.1574 -0.60791,-0.4687 -0.230713,-0.3113 -0.274658,-0.6775 -0.04395,-0.3662 -0.04395,-1.2817 l 0,-1.0144 q 0,-0.8936 0.04028,-1.2635 0.04395,-0.3735 0.263672,-0.6811 0.223389,-0.3076 0.600586,-0.4724 0.377198,-0.1648 0.878906,-0.1648 0.476075,0 0.853272,0.1574 0.380859,0.1538 0.611572,0.4651 0.230713,0.3113 0.274658,0.6775 0.04395,0.3662 0.04395,1.2818 L 21.723984,1046.7133 z m -1.541748,-1.9483 q 0,-0.4138 -0.04761,-0.5273 -0.04395,-0.1172 -0.186767,-0.1172 -0.12085,0 -0.186768,0.095 -0.06226,0.092 -0.06226,0.5493 l 0,2.7686 q 0,0.5163 0.04028,0.6372 0.04395,0.1208 0.197754,0.1208 0.157471,0 0.201416,-0.1391 0.04395,-0.1392 0.04395,-0.6629 L 20.182236,1044.765 Z"
           inkscape:connector-curvature="0" />
        <path
           id="path4490"
           d="m 22.302597,1043.2416 1.153564,0 q 1.116944,0 1.50879,0.1025 0.395507,0.1026 0.600585,0.3369 0.205079,0.2344 0.256348,0.5237 0.05127,0.2857 0.05127,1.1279 l 0,2.0765 q 0,0.7983 -0.07691,1.0693 -0.07324,0.2673 -0.260009,0.4211 -0.186768,0.1502 -0.461426,0.2124 -0.274658,0.059 -0.827637,0.059 l -1.94458,0 L 22.302597,1043.2416 z m 1.541748,1.0144 0,3.9001 q 0.333252,0 0.410156,-0.1318 0.07691,-0.1355 0.07691,-0.7288 l 0,-2.3034 q 0,-0.4029 -0.02564,-0.5164 -0.02564,-0.1135 -0.117188,-0.1648 Q 24.097031,1044.256 23.844345,1044.256 Z"
           inkscape:connector-curvature="0" />
        <path
           id="path4492"
           d="m 29.714706,1045.036 -1.431884,0 0,-0.4394 q 0,-0.3077 -0.05493,-0.3919 -0.05493,-0.084 -0.183105,-0.084 -0.139161,0 -0.212403,0.1135 -0.06958,0.1135 -0.06958,0.3442 0,0.2967 0.08057,0.4468 0.0769,0.1502 0.435791,0.3626 1.029052,0.6115 1.296386,1.0034 0.267334,0.3918 0.267334,1.2634 0,0.6336 -0.150146,0.9339 -0.146485,0.3002 -0.571289,0.5053 -0.424805,0.2014 -0.98877,0.2014 -0.618896,0 -1.058349,-0.2343 -0.435791,-0.2344 -0.57129,-0.597 -0.135498,-0.3625 -0.135498,-1.029 l 0,-0.3882 1.431885,0 0,0.7214 q 0,0.3333 0.05859,0.4285 0.06226,0.095 0.216064,0.095 0.153809,0 0.227051,-0.1208 0.0769,-0.1209 0.0769,-0.3589 0,-0.5237 -0.142822,-0.6848 -0.146484,-0.1612 -0.721435,-0.5384 -0.574951,-0.3808 -0.761719,-0.5529 -0.186768,-0.1722 -0.311279,-0.4761 -0.12085,-0.304 -0.12085,-0.7764 0,-0.6811 0.172119,-0.9961 0.175781,-0.3149 0.563965,-0.4907 0.388184,-0.1794 0.9375,-0.1794 0.600586,0 1.021729,0.1941 0.424804,0.194 0.560302,0.4907 0.13916,0.2929 0.13916,0.9997 L 29.714706,1045.036 Z"
           inkscape:connector-curvature="0" />
      </g>
    </g>
  </g>
</svg>
