<?xml version="1.0" encoding="UTF-8" standalone="no"?>
<!-- Created with Inkscape (http://www.inkscape.org/) -->

<svg
   xmlns:dc="http://purl.org/dc/elements/1.1/"
   xmlns:cc="http://creativecommons.org/ns#"
   xmlns:rdf="http://www.w3.org/1999/02/22-rdf-syntax-ns#"
   xmlns:svg="http://www.w3.org/2000/svg"
   xmlns="http://www.w3.org/2000/svg"
   xmlns:xlink="http://www.w3.org/1999/xlink"
   xmlns:sodipodi="http://sodipodi.sourceforge.net/DTD/sodipodi-0.dtd"
   xmlns:inkscape="http://www.inkscape.org/namespaces/inkscape"
   width="48"
   height="48"
   id="svg6399"
   version="1.1"
   inkscape:version="0.48+devel r12012"
   sodipodi:docname="text-xml.svg">
  <defs
     id="defs6401">
    <linearGradient
       id="linearGradient1069">
      <stop
         style="stop-color:#ffffff;stop-opacity:1"
         offset="0"
         id="stop1071" />
      <stop
         style="stop-color:#e6e6e6;stop-opacity:1"
         offset="1"
         id="stop1073" />
    </linearGradient>
    <linearGradient
       y2="468.35892"
       x2="314.34872"
       y1="425.61682"
       x1="314.34872"
       gradientTransform="translate(165.08181,181.72569)"
       gradientUnits="userSpaceOnUse"
       id="linearGradient1660"
       xlink:href="#linearGradient1069"
       inkscape:collect="always" />
    <linearGradient
       gradientTransform="translate(218.88524,181.71843)"
       inkscape:collect="always"
       xlink:href="#linearGradient6707"
       id="linearGradient1110"
       x1="262.01361"
       y1="471.95245"
       x2="262.01361"
       y2="442.7843"
       gradientUnits="userSpaceOnUse" />
    <linearGradient
       id="linearGradient6707">
      <stop
         id="stop6709"
         offset="0"
         style="stop-color:#000000;stop-opacity:1;" />
      <stop
         id="stop6711"
         offset="1"
         style="stop-color:#ffffff;stop-opacity:1;" />
    </linearGradient>
  </defs>
  <sodipodi:namedview
     id="base"
     pagecolor="#ffffff"
     bordercolor="#666666"
     borderopacity="1.0"
     inkscape:pageopacity="0.0"
     inkscape:pageshadow="2"
     inkscape:zoom="5.6"
     inkscape:cx="-2.5121929"
     inkscape:cy="35.115291"
     inkscape:document-units="px"
     inkscape:current-layer="text7167"
     showgrid="false"
     fit-margin-top="0"
     fit-margin-left="0"
     fit-margin-right="0"
     fit-margin-bottom="0"
     inkscape:window-width="1366"
     inkscape:window-height="718"
     inkscape:window-x="0"
     inkscape:window-y="28"
     inkscape:window-maximized="1" />
  <metadata
     id="metadata6404">
    <rdf:RDF>
      <cc:Work
         rdf:about="">
        <dc:format>image/svg+xml</dc:format>
        <dc:type
           rdf:resource="http://purl.org/dc/dcmitype/StillImage" />
        <dc:title />
      </cc:Work>
    </rdf:RDF>
  </metadata>
  <g
     inkscape:label="Capa 1"
     inkscape:groupmode="layer"
     id="layer1"
     transform="translate(-456,-605.50507)">
    <path
       style="opacity:0.5;fill:#000000;fill-opacity:1;stroke:none"
       d="m 459.79854,607.42308 40.4029,0 c 0.89693,0 1.619,0.79795 1.619,1.78913 l 0,40.58571 c 0,0.9912 -0.72207,1.78914 -1.619,1.78914 l -40.4029,0 c -0.89692,0 -1.61899,-0.79795 -1.61899,-1.78914 l 0,-40.58571 C 458.17955,608.22103 458.90162,607.42308 459.79854,607.42308 Z"
       id="rect3922"
       inkscape:connector-curvature="0" />
    <path
       inkscape:connector-curvature="0"
       id="path869"
       d="m 460.20276,607.98353 39.59446,0 c 0.87416,0 1.57791,0.77771 1.57791,1.74374 l 0,39.5556 c 0,0.96604 -0.70375,1.74374 -1.57791,1.74374 l -39.59446,0 c -0.87416,0 -1.5779,-0.7777 -1.5779,-1.74374 l 0,-39.5556 C 458.62486,608.76124 459.32861,607.98353 460.20276,607.98353 Z"
       style="fill:url(#linearGradient1660);fill-opacity:1;stroke:none" />
    <g
       style="font-size:18px;font-style:normal;font-variant:normal;font-weight:500;font-stretch:normal;line-height:125%;letter-spacing:-0.03px;word-spacing:0px;fill:#4d4d4d;fill-opacity:1;stroke:none;font-family:Courier Std;-inkscape-font-specification:Courier Std Medium"
       id="text7167"
       transform="matrix(0.86797556,0,0,0.86797556,63.371732,81.721096)">
      <g
         style="font-size:23.05916786px;font-weight:bold;letter-spacing:0px;fill:#4d4d4d;font-family:Impact;-inkscape-font-specification:Impact Bold"
         id="text837">
        <path
           d="m 474.69682,632.73704 -10.83151,-4.515 0,-2.28565 10.83151,-4.52627 0,2.97247 -6.68806,2.69099 6.68806,2.67973 L 474.69682,632.73704 Z"
           style=""
           id="path834" />
        <path
           d="m 484.41364,617.80713 -5.40449,18.92698 -3.44536,0 5.43827,-18.92698 L 484.41364,617.80713 Z"
           style=""
           id="path836" />
        <path
           d="m 485.30313,621.41012 10.83151,4.50375 0,2.29691 -10.83151,4.52626 0,-2.97247 6.68806,-2.69099 -6.68806,-2.67973 L 485.30313,621.41012 Z"
           style=""
           id="path838" />
      </g>
    </g>
    <path
       inkscape:connector-curvature="0"
       style="fill:url(#linearGradient1110);fill-opacity:1;stroke:none"
       d="m 458.625,642.52661 0,6.75 c 0,0.96604 0.68835,1.75 1.5625,1.75 l 39.625,0 c 0.87416,0 1.5625,-0.78396 1.5625,-1.75 l 0,-6.75 L 458.625,642.52661 Z"
       id="path874" />
    <g
       transform="translate(457.07407,605.7817)"
       style="font-size:7.5px;font-style:normal;font-variant:normal;font-weight:bold;font-stretch:normal;line-height:125%;letter-spacing:0px;word-spacing:0px;fill:#ffffff;fill-opacity:1;stroke:none;font-family:Impact;-inkscape-font-specification:Impact Bold"
       id="text850">
      <path
         d="m 19.871726,38.030434 -0.684814,5.928955 -1.92627,0 q -0.263672,-1.365967 -0.465088,-3.105469 -0.09155,0.743408 -0.428467,3.105469 l -1.915283,0 -0.688476,-5.928955 1.497802,0 0.157471,2.069091 0.161133,1.99585 q 0.08423,-1.549072 0.424805,-4.064941 l 1.604003,0 q 0.03296,0.260009 0.168457,1.955566 l 0.168458,2.252197 q 0.128173,-2.149658 0.428466,-4.207763 L 19.871726,38.030434 Z"
         id="path855"
         inkscape:connector-curvature="0" />
      <path
         d="m 25.980124,38.030434 -0.684814,5.928955 -1.92627,0 q -0.263671,-1.365967 -0.465087,-3.105469 -0.09155,0.743408 -0.428467,3.105469 l -1.915283,0 -0.688477,-5.928955 1.497803,0 0.15747,2.069091 0.161133,1.99585 q 0.08423,-1.549072 0.424805,-4.064941 l 1.604004,0 q 0.03296,0.260009 0.168457,1.955566 l 0.168457,2.252197 q 0.128174,-2.149658 0.428467,-4.207763 L 25.980124,38.030434 Z"
         id="path857"
         inkscape:connector-curvature="0" />
      <path
         d="m 32.088523,38.030434 -0.684815,5.928955 -1.926269,0 q -0.263672,-1.365967 -0.465088,-3.105469 -0.09155,0.743408 -0.428467,3.105469 l -1.915283,0 -0.688477,-5.928955 1.497803,0 0.157471,2.069091 0.161133,1.99585 q 0.08423,-1.549072 0.424804,-4.064941 l 1.604004,0 q 0.03296,0.260009 0.168457,1.955566 l 0.168457,2.252197 q 0.128174,-2.149658 0.428467,-4.207763 L 32.088523,38.030434 Z"
         id="path859"
         inkscape:connector-curvature="0" />
    </g>
  </g>
</svg>
