<?xml version="1.0" encoding="UTF-8" standalone="no"?>
<!-- Created with Inkscape (http://www.inkscape.org/) -->

<svg
   xmlns:dc="http://purl.org/dc/elements/1.1/"
   xmlns:cc="http://creativecommons.org/ns#"
   xmlns:rdf="http://www.w3.org/1999/02/22-rdf-syntax-ns#"
   xmlns:svg="http://www.w3.org/2000/svg"
   xmlns="http://www.w3.org/2000/svg"
   xmlns:xlink="http://www.w3.org/1999/xlink"
   xmlns:sodipodi="http://sodipodi.sourceforge.net/DTD/sodipodi-0.dtd"
   xmlns:inkscape="http://www.inkscape.org/namespaces/inkscape"
   width="48"
   height="48"
   id="svg6391"
   version="1.1"
   inkscape:version="0.48+devel r12012"
   sodipodi:docname="image-x-psd.svg">
  <defs
     id="defs6393">
    <linearGradient
       id="linearGradient868">
      <stop
         id="stop870"
         offset="0"
         style="stop-color:#80c7ff;stop-opacity:1" />
      <stop
         id="stop872"
         offset="1"
         style="stop-color:#009bc2;stop-opacity:1" />
    </linearGradient>
    <linearGradient
       inkscape:collect="always"
       xlink:href="#linearGradient918-1"
       id="linearGradient912"
       x1="462.37933"
       y1="837.0611"
       x2="463.75925"
       y2="835.67212"
       gradientUnits="userSpaceOnUse"
       gradientTransform="translate(57.14285,-297.14288)" />
    <linearGradient
       id="linearGradient918-1">
      <stop
         id="stop920-5"
         offset="0"
         style="stop-color:#f6f6f6;stop-opacity:1" />
      <stop
         id="stop922-7"
         offset="1"
         style="stop-color:#e2e2e2;stop-opacity:1" />
    </linearGradient>
    <linearGradient
       y2="468.35892"
       x2="314.34872"
       y1="425.61682"
       x1="314.34872"
       gradientTransform="translate(190.7961,107.43992)"
       gradientUnits="userSpaceOnUse"
       id="linearGradient887"
       xlink:href="#linearGradient868"
       inkscape:collect="always" />
    <linearGradient
       gradientTransform="translate(244.59953,107.44237)"
       inkscape:collect="always"
       xlink:href="#linearGradient6707"
       id="linearGradient1110"
       x1="262.01361"
       y1="471.95245"
       x2="262.01361"
       y2="442.7843"
       gradientUnits="userSpaceOnUse" />
    <linearGradient
       id="linearGradient6707">
      <stop
         id="stop6709"
         offset="0"
         style="stop-color:#000000;stop-opacity:1;" />
      <stop
         id="stop6711"
         offset="1"
         style="stop-color:#ffffff;stop-opacity:1;" />
    </linearGradient>
  </defs>
  <sodipodi:namedview
     id="base"
     pagecolor="#ffffff"
     bordercolor="#666666"
     borderopacity="1.0"
     inkscape:pageopacity="0.0"
     inkscape:pageshadow="2"
     inkscape:zoom="7.919596"
     inkscape:cx="3.5441629"
     inkscape:cy="20.671073"
     inkscape:document-units="px"
     inkscape:current-layer="layer1"
     showgrid="false"
     fit-margin-top="0"
     fit-margin-left="0"
     fit-margin-right="0"
     fit-margin-bottom="0"
     inkscape:window-width="1366"
     inkscape:window-height="718"
     inkscape:window-x="0"
     inkscape:window-y="28"
     inkscape:window-maximized="1" />
  <metadata
     id="metadata6396">
    <rdf:RDF>
      <cc:Work
         rdf:about="">
        <dc:format>image/svg+xml</dc:format>
        <dc:type
           rdf:resource="http://purl.org/dc/dcmitype/StillImage" />
        <dc:title />
      </cc:Work>
    </rdf:RDF>
  </metadata>
  <g
     inkscape:label="Capa 1"
     inkscape:groupmode="layer"
     id="layer1"
     transform="translate(-481.71429,-531.2193)">
    <path
       style="opacity:0.5;fill:#000000;fill-opacity:1;stroke:none"
       d="m 485.52679,533.12555 c -0.89692,0 -1.625,0.82132 -1.625,1.8125 l 0,40.5625 c 0,0.99119 0.72808,1.8125 1.625,1.8125 l 40.375,0 c 0.89693,0 1.625,-0.8213 1.625,-1.8125 l 0,-32 -10.40625,-10.375 L 485.52679,533.12555 Z"
       id="rect3922-2"
       inkscape:connector-curvature="0" />
    <path
       style="fill:url(#linearGradient887);fill-opacity:1;stroke:none"
       d="m 485.90179,533.68805 c -0.87415,0 -1.5625,0.78397 -1.5625,1.75 l 0,39.5625 c 0,0.96604 0.68834,1.75 1.5625,1.75 l 39.625,0 c 0.87416,0 1.5625,-0.78396 1.5625,-1.75 l 0,-31.125 -10.21875,-10.1875 L 485.90179,533.68805 Z"
       id="path869-2"
       inkscape:connector-curvature="0" />
    <path
       inkscape:connector-curvature="0"
       style="opacity:0.5;fill:#000000;fill-opacity:1;stroke:none"
       d="m 527.19978,544.0176 -10.53539,-10.50317 0,8.69895 c 0,0.99596 0.70967,1.80422 1.61092,1.80422 L 527.19978,544.0176 Z"
       id="path914" />
    <path
       id="path902"
       d="m 527.08929,543.87555 -10.21875,-10.1875 0,8.4375 c 0,0.96603 0.68834,1.75 1.5625,1.75 L 527.08929,543.87555 Z"
       style="fill:url(#linearGradient912);fill-opacity:1;stroke:none"
       inkscape:connector-curvature="0" />
    <path
       inkscape:connector-curvature="0"
       style="fill:url(#linearGradient1110);fill-opacity:1;stroke:none"
       d="m 484.33929,568.25055 0,6.75 c 0,0.96604 0.68835,1.75 1.5625,1.75 l 39.625,0 c 0.87417,0 1.5625,-0.78396 1.5625,-1.75 l 0,-6.75 L 484.33929,568.25055 Z"
       id="path874" />
    <path
       inkscape:connector-curvature="0"
       id="path22"
       style="fill:#ffffff;fill-opacity:1;fill-rule:nonzero;stroke:none"
       d="m 494.50473,560.87119 c -0.11088,0.0646 -0.2442,0.0672 -0.36634,0.0989 -0.0575,-0.039 -0.11935,-0.0712 -0.17607,-0.11088 -0.0326,-0.0755 -0.0704,-0.14829 -0.12741,-0.20869 0.005,-0.0205 0.0135,-0.0615 0.0172,-0.0819 0.13146,0.003 0.26812,-0.006 0.38276,-0.0772 0.18011,-0.11303 0.42012,-0.0779 0.58778,-0.21563 0.0908,-0.0542 0.21117,-0.0341 0.29452,-0.10401 0.11383,-0.0996 0.2891,-0.0671 0.39948,-0.17252 0.0821,-0.0666 0.20578,-0.0382 0.28284,-0.11383 0.0903,-0.0888 0.23939,-0.0574 0.32861,-0.14536 0.0716,-0.0785 0.19655,-0.0445 0.26993,-0.12002 0.0616,-0.0578 0.14999,-0.0636 0.22574,-0.0918 0.0687,-0.0194 0.10804,-0.0934 0.18143,-0.10146 0.0666,-0.0135 0.13226,-0.0306 0.18207,-0.0788 0.0819,-0.0725 0.20933,-0.0515 0.28776,-0.12878 0.063,-0.0665 0.1656,-0.0498 0.2347,-0.10467 0.10804,-0.099 0.28149,-0.075 0.36755,-0.20603 -0.0244,-0.10805 -0.0492,-0.21915 -0.0108,-0.32714 -0.009,-0.1683 0.0533,-0.34064 0.17514,-0.45952 0.14199,-0.1353 0.2358,-0.3101 0.34506,-0.4705 0.12393,-0.1719 0.1971,-0.37228 0.29286,-0.55969 0.0687,-0.13637 0.11652,-0.29627 0.24181,-0.39261 0.0211,0.0684 0.0413,0.13953 0.0339,0.21184 -0.0173,0.0809 -0.06,0.15359 -0.0839,0.23245 0.019,0.0932 0.0499,0.18546 0.0437,0.2822 -0.009,0.0413 0.036,0.0623 0.0576,0.0897 0.14851,-0.24293 0.23266,-0.5209 0.40151,-0.75206 0.0581,-0.0807 0.13818,-0.14277 0.19741,-0.22206 0.14168,-0.2995 0.26382,-0.61908 0.26338,-0.95461 0.0203,-0.1215 0.0931,-0.22493 0.18563,-0.30402 0.20725,-0.17856 0.30532,-0.44404 0.48853,-0.64268 0.0959,-0.0985 0.191,-0.2065 0.32426,-0.25335 0.20055,-0.25506 0.3186,-0.56304 0.39813,-0.8744 -0.006,-0.17077 0.0906,-0.32728 0.19161,-0.45811 0.032,-0.0528 0.0909,-0.075 0.14339,-0.10118 0.0433,0.19935 -0.0507,0.39207 -0.0395,0.59123 0.007,0.0631 -0.0391,0.11895 -0.0263,0.18245 0.0202,0.0883 -0.042,0.16838 -0.022,0.25718 0.0143,0.0719 -0.0352,0.13653 -0.0243,0.20783 0.0139,0.0792 -0.0364,0.15249 -0.0217,0.23126 0.0197,0.10414 -0.025,0.20407 -0.0217,0.30824 -0.0364,0.16097 -0.11881,0.31126 -0.12097,0.47991 -0.0282,0.10535 -0.006,0.21613 -0.0385,0.32021 -0.0121,0.16053 0.0631,0.31521 0.0611,0.47505 -0.0326,0.1192 -0.0381,0.28609 0.0694,0.36535 -0.0219,-0.1416 0.0308,-0.2735 0.0637,-0.40819 0.009,-0.15077 0.0686,-0.29261 0.0821,-0.44258 0.0423,-0.19262 0.0696,-0.38783 0.11329,-0.5801 0.0278,-0.0751 0.0139,-0.15546 0.0144,-0.23314 0.0426,0.0687 0.0842,0.13806 0.13293,0.20245 -0.0167,-0.13889 0.0122,-0.27331 0.0221,-0.41035 0.0391,-0.007 0.0783,-0.0172 0.11691,-0.0258 -0.0135,-0.24686 0.11666,-0.48555 0.0797,-0.73511 0.0325,-0.10333 0.0156,-0.21379 0.0517,-0.3159 -0.007,-0.13456 0.0492,-0.25968 0.0672,-0.39128 6.7e-4,-0.14819 0.0742,-0.2847 0.0754,-0.43273 0.0243,-0.10872 0.0384,-0.22047 0.0769,-0.32533 0.052,-0.0698 0.0833,-0.15929 0.15857,-0.20803 0.032,0.0943 -0.0317,0.18214 -0.0161,0.27635 0.0147,0.10549 -0.0469,0.20433 -0.0144,0.31043 -0.054,0.13789 0.0149,0.28283 -0.0346,0.42062 -0.009,0.13213 0.0669,0.26068 0.0384,0.39363 -0.0423,0.16077 0.0617,0.32311 0.007,0.48244 -0.0256,0.0909 0.04,0.18299 0.005,0.27285 -0.0387,0.0938 0.0202,0.1945 -0.0108,0.28904 -0.0246,0.0832 -0.009,0.17217 -0.0349,0.25527 -0.0161,0.0548 0.002,0.111 0.006,0.16609 0.0171,0.0789 -0.041,0.15306 -0.0173,0.23116 0.0122,0.0864 0.0442,0.17274 0.0238,0.2602 -0.0404,0.16405 0.068,0.32955 0.0135,0.49145 -0.022,0.0598 0.005,0.12149 0.015,0.18044 0.0108,-0.0121 0.0315,-0.0346 0.042,-0.0458 0.23219,-0.64982 0.47493,-1.2955 0.69101,-1.95051 0.0276,-0.067 0.0502,-0.13678 0.0848,-0.20077 -0.0149,0.1176 -0.0247,0.23643 -0.054,0.35186 -0.006,0.0769 0.024,0.15191 0.0299,0.22827 -1.2e-4,0.0588 -0.0144,0.11612 -0.0165,0.1745 0.003,0.102 0.0388,0.19968 0.0451,0.30129 -0.028,0.0774 -0.049,0.15647 -0.02,0.23769 0.0344,-0.0136 0.0683,-0.0279 0.10157,-0.0437 0.0332,-0.0827 -0.005,-0.1688 -0.0199,-0.25106 0.0247,-0.0164 0.0492,-0.0327 0.0733,-0.0493 -0.0121,-0.0575 -0.0196,-0.11585 -0.0258,-0.17453 0.0241,0.0341 0.0482,0.0684 0.0731,0.10172 -0.0161,0.059 -0.0473,0.11774 -0.0322,0.18054 -1.5e-4,0.0859 0.11613,0.11356 0.11008,0.20123 0.006,0.0619 -0.0398,0.11761 -0.0292,0.1805 0.0244,0.1075 -0.0955,0.23567 0.0302,0.31346 0.0426,-0.26287 0.20596,-0.49603 0.20941,-0.76726 0.006,-0.0857 -0.034,-0.17289 -8.4e-4,-0.25619 0.0346,-0.0966 -0.0186,-0.19931 0.0108,-0.29706 0.0426,-0.11989 -0.0475,-0.24112 -0.006,-0.36016 0.0391,-0.0996 -0.0293,-0.20506 0.006,-0.30574 0.0167,-0.0971 0.0311,-0.1948 0.0607,-0.28959 0.0416,-0.12231 0.0433,-0.25246 0.0657,-0.37873 0.11505,-0.39825 0.218,-0.79974 0.32984,-1.19846 0.14165,-0.0144 0.25575,-0.0992 0.38388,-0.15029 0.0292,0.14122 0.031,0.29034 0.0882,0.42457 0.0352,0.0592 0.0786,0.12325 0.0543,0.19564 -0.0184,-0.0499 -0.0328,-0.10145 -0.0437,-0.1538 -0.0191,0.006 -0.0572,0.0149 -0.076,0.0199 0.0108,0.0635 0.0217,0.12715 0.0301,0.19073 0.0292,0.019 0.0581,0.0381 0.0865,0.0575 -0.0259,0.0792 -0.0456,0.16264 -0.0164,0.2441 0.0523,-0.037 0.0757,-0.0983 0.10455,-0.15318 -0.003,-0.0475 -0.0139,-0.0939 -0.0232,-0.14066 0.0185,-0.0185 0.0553,-0.0552 0.0741,-0.0736 -0.005,0.0802 0.0172,0.15789 0.0511,0.22989 0.0306,-0.0853 0.0305,-0.1754 -0.0511,-0.22989 -0.0926,-0.10441 4.9e-4,-0.22744 0.0266,-0.33792 0.0252,0.0587 0.0566,0.11478 0.0924,0.16729 0.0209,-0.0882 0.0279,-0.20208 -0.0545,-0.26153 -0.0388,-0.029 -0.0334,-0.0806 -0.0252,-0.12216 0.015,0.0396 0.028,0.0795 0.0396,0.12028 0.0219,0.0121 0.0654,0.0362 0.0873,0.0484 -0.0161,-0.13334 0.0207,-0.26203 0.0498,-0.39052 0.0208,-0.0654 -5e-4,-0.13601 0.024,-0.20072 0.0267,-0.13712 0.0837,-0.26649 0.10669,-0.4045 0.0161,-0.006 0.0482,-0.0172 0.064,-0.0229 0.0346,0.13038 0.0399,0.26489 0.006,0.39522 0.0252,0.0915 -0.0481,0.18129 -0.0121,0.26789 0.11867,0.0934 0.12943,0.26651 0.0821,0.40077 0.0156,0.15674 -0.0302,0.31087 -0.0522,0.46429 0.0135,0.10038 0.0361,0.20085 0.0809,0.29251 0.031,-0.10186 -0.003,-0.20926 0.0334,-0.31065 -0.005,-0.18626 0.0542,-0.36696 0.0577,-0.55327 0.0592,-0.37112 0.11289,-0.7462 0.21463,-1.1082 0.0494,-0.0683 0.0959,-0.1383 0.0779,-0.22668 0.0334,-0.0341 0.0671,-0.0675 0.097,-0.10441 0.0533,-0.2389 0.10872,-0.47685 0.16105,-0.71636 0.017,-0.0584 0.0682,-0.10051 0.12325,-0.12204 0.003,0.0604 0.0167,0.12244 0,0.18184 -0.0314,0.0949 -0.0176,0.19686 -0.0496,0.29213 0.0108,0.0953 0.0147,0.18967 -0.0181,0.28141 0.0162,0.11718 0.0475,0.23428 0.0108,0.35131 0.0388,0.31934 0.11208,0.63558 0.19581,0.94625 0.0255,-0.0363 0.0514,-0.0719 0.0748,-0.1098 0.14076,-0.45247 0.31996,-0.89781 0.55275,-1.31213 0.0909,-0.19638 0.22271,-0.36933 0.3433,-0.54793 0.0379,0.0433 0.0831,0.079 0.12191,0.12149 0.009,0.0408 0.0162,0.0819 0.0219,0.12339 0.0487,-0.0121 0.0974,-0.0234 0.14597,-0.0349 -0.0121,-0.046 -0.025,-0.0923 -0.0369,-0.13905 0.0193,-0.003 0.058,-0.009 0.0774,-0.0121 0.0147,0.0763 -0.006,0.14626 -0.0534,0.20655 0.073,0.0173 0.1455,0.006 0.21082,-0.0292 -0.006,-0.13957 0.0466,-0.27159 0.10898,-0.39361 0.0235,-0.0989 0.0367,-0.20076 0.0734,-0.29699 0.0349,0.0219 0.069,0.0443 0.10279,0.0674 0.10092,-0.11262 0.0833,-0.28202 0.1879,-0.38944 0.0765,-0.0344 0.15423,-0.0665 0.23524,-0.0883 0.0246,0.10576 0.0393,0.21382 0.0727,0.31752 0.0267,-0.0305 0.0516,-0.0624 0.075,-0.0957 0.0408,0.0243 0.0842,0.0443 0.12862,0.0601 0.009,0.0716 0.0416,0.14772 0.006,0.21666 -0.042,0.0734 0.002,0.15167 0.0472,0.21106 -0.006,0.0399 -0.0108,0.0798 -0.0165,0.11963 0.0792,-0.003 0.10576,-0.0866 0.11652,-0.15252 0.0662,-0.34816 0.0753,-0.71542 0.23199,-1.04049 0.0575,-0.0767 0.13429,-0.13567 0.19671,-0.20767 0.50772,-0.47418 1.01344,-0.9511 1.54226,-1.40149 0.0294,-0.0254 0.0554,-0.0539 0.0824,-0.0815 -0.0108,0.0339 -0.0217,0.0672 -0.0305,0.10118 0.0158,0.0419 0.0375,0.0813 0.0564,0.12164 -0.0135,-0.10187 0.051,-0.18645 0.066,-0.28415 0.0854,-0.0984 0.19472,-0.17177 0.28663,-0.2635 0.0317,-0.0388 0.0859,-0.0399 0.12971,-0.0557 0.006,0.10118 -0.0804,0.21182 -8.4e-4,0.30055 0.009,5e-4 0.0292,0.002 0.0387,0.003 0.0108,-0.13862 0.0686,-0.26792 0.0907,-0.40486 0.0385,-0.10549 0.1289,-0.18234 0.23995,-0.20329 -0.0391,0.16669 -0.14375,0.31554 -0.14561,0.48957 -0.0276,0.10764 -0.067,0.21217 -0.11382,0.31303 -0.0226,0.0502 -0.0108,0.10535 0.006,0.15466 -0.0349,0.064 -0.0431,0.13534 -0.0241,0.20587 0.0121,-0.0108 0.0362,-0.0339 0.0484,-0.0452 0.081,-0.25342 0.23289,-0.47573 0.3144,-0.72929 0.0636,-0.0745 0.15171,-0.13105 0.18583,-0.22733 0.0351,-0.10266 0.0895,-0.19689 0.13052,-0.29714 0.0146,-0.003 0.0433,-0.009 0.0577,-0.0121 0.024,0.10615 -0.0179,0.20829 -0.0518,0.30679 -0.0528,0.13053 -0.0913,0.26636 -0.14837,0.39521 -0.0249,0.0677 0.0158,0.14082 -0.009,0.20869 -0.0306,0.18906 -0.0904,0.37301 -0.18077,0.54228 -0.0308,0.0461 -0.006,0.10212 3.3e-4,0.15167 0.0121,-0.0121 0.034,-0.0343 0.0457,-0.0455 0.1609,-0.42792 0.33971,-0.84903 0.54153,-1.25896 0.0619,-0.0923 0.11828,-0.19092 0.20386,-0.26401 0.0942,-0.18935 0.17914,-0.38364 0.26659,-0.57673 0.0633,-0.14376 0.10468,-0.31231 0.23642,-0.41054 0.11195,-0.0481 0.19952,-0.13608 0.30213,-0.20075 0.12083,-0.0642 0.22607,-0.15348 0.34496,-0.22179 0.10213,-0.0466 0.19253,-0.11356 0.29119,-0.16691 0.0747,-0.0732 0.1901,-0.0703 0.26499,-0.1425 0.0659,-0.0613 0.16769,-0.044 0.23685,-0.1 0.11099,-0.0902 0.25941,-0.0978 0.393,-0.13079 0.10521,-0.0188 0.20992,-0.0527 0.3174,-0.051 0.11033,0.0278 0.22432,0.0404 0.32947,0.086 -0.0716,0.13526 -0.11127,0.28326 -0.16728,0.42469 -0.12958,0.35522 -0.25934,0.71082 -0.38894,1.06605 -0.0561,0.19485 -0.1682,0.37342 -0.19128,0.57681 0.11718,-0.0598 0.14483,-0.20691 0.20553,-0.3149 0.12956,-0.006 0.19246,-0.14005 0.20873,-0.25251 0.0513,-0.11087 0.18222,-0.20214 0.14195,-0.33819 0.16235,-0.0381 0.14016,-0.23522 0.23272,-0.34156 0.15371,-0.18886 0.18698,-0.43645 0.28654,-0.65219 0.0599,0.003 0.1219,0.005 0.15101,0.0651 0.11234,-0.0197 0.22776,-0.0694 0.34178,-0.0334 0.22252,0.0196 0.45071,0.098 0.61138,0.25948 0.10898,0.0974 0.18557,0.22312 0.26979,0.34073 0.0442,0.0969 0.0481,0.21026 0.11342,0.29742 0.0528,0.0736 0.0616,0.16518 0.0815,0.25031 -0.0842,0.0863 -0.19465,0.12406 -0.30567,0.16169 -0.0797,0.0821 -0.2014,0.0884 -0.28195,0.16899 -0.18724,0.0624 -0.31571,0.2328 -0.5072,0.28115 0.0422,0.0614 0.12581,0.0326 0.17042,-0.009 0.0857,-0.0873 0.22761,-0.0636 0.31499,-0.14826 0.0722,-0.0709 0.18763,-0.0464 0.2638,-0.10953 0.0985,-0.0848 0.23403,-0.0943 0.35362,-0.13185 0.0381,0.0399 0.0331,0.10508 0.0279,0.15649 -0.0254,0.14588 0.0674,0.29069 0.0174,0.43484 -0.0373,0.24211 -0.11195,0.47662 -0.20944,0.70078 -0.12298,0.33056 -0.3192,0.62484 -0.47858,0.93764 -0.12661,0.20738 -0.26398,0.40765 -0.39718,0.61051 -0.12243,0.18753 -0.27944,0.34919 -0.40086,0.53737 -0.12971,0.19925 -0.30192,0.36581 -0.43726,0.56082 -0.28996,0.34117 -0.57593,0.68493 -0.87946,1.01381 -0.11988,0.14212 -0.24921,0.28784 -0.42827,0.35377 -0.11625,0.10872 -0.2959,0.0848 -0.41123,0.19543 -0.12958,0.059 -0.28813,0.0455 -0.40324,0.14174 -0.18933,0.0837 -0.40273,0.0962 -0.5981,0.16433 -0.32595,0.19401 -0.73711,0.14046 -1.0669,0.32701 -0.33625,0.0975 -0.68743,0.14584 -1.01915,0.25978 0.10617,-0.0122 0.21306,-0.0156 0.31883,-0.0278 0.34657,-0.0668 0.69194,-0.1405 1.03709,-0.21401 0.10723,-0.0205 0.20673,-0.0668 0.30425,-0.11329 0.24765,-0.0778 0.51005,-0.10751 0.75361,-0.1956 0.17536,-0.13478 0.42189,-0.0845 0.59637,-0.21939 0.1172,-0.0586 0.25017,-0.0849 0.38079,-0.0826 -0.4206,0.41698 -0.82345,0.85277 -1.25761,1.25638 -0.17541,0.16492 -0.27357,0.39006 -0.41673,0.58045 -0.0672,0.10347 -0.22009,0.0682 -0.30554,0.15114 -0.10065,0.0921 -0.25474,0.0574 -0.3628,0.13683 -0.15094,0.1141 -0.36344,0.0813 -0.51508,0.19322 -0.12608,0.0903 -0.30277,0.0531 -0.4252,0.15254 -0.14247,0.0988 -0.3383,0.0681 -0.47729,0.1755 -0.12824,0.0886 -0.30325,0.0576 -0.42987,0.15037 -0.14681,0.10535 -0.34964,0.0739 -0.49476,0.1831 -0.12163,0.085 -0.2869,0.0555 -0.40801,0.14215 -0.1465,0.10805 -0.35005,0.0774 -0.49593,0.18564 -0.0967,0.067 -0.21914,0.067 -0.3289,0.1 -0.0684,0.0174 -0.11759,0.0745 -0.18399,0.097 -0.14489,0.047 -0.29865,0.0634 -0.43927,0.12419 0.33154,0.0381 0.65877,-0.0659 0.98111,-0.13145 0.208,-0.08 0.42963,-0.11168 0.64691,-0.15624 0.0624,-0.016 0.12661,-0.006 0.18902,1.7e-4 -0.0742,0.0769 -0.18426,0.0696 -0.28119,0.0901 -0.0891,0.0149 -0.17494,0.0433 -0.25919,0.0755 0.19131,0.0332 0.39317,-0.0185 0.5543,-0.12326 0.20386,-0.071 0.42286,-0.0921 0.62549,-0.16513 0.15351,-0.0974 0.33716,-0.11074 0.50654,-0.16309 0.12096,-0.0982 0.27708,-0.11962 0.42322,-0.15924 -0.005,0.0156 -0.0108,0.047 -0.0147,0.0624 -0.28607,0.22897 -0.5602,0.47305 -0.85628,0.68934 -0.088,0.0571 -0.16874,0.12432 -0.25307,0.18663 -0.15272,0.075 -0.27577,0.20041 -0.43702,0.25901 -0.0706,0.0813 -0.18537,0.0809 -0.26239,0.15099 -0.064,0.0548 -0.15422,0.054 -0.229,0.0868 -0.14846,0.1551 -0.31028,0.30045 -0.49739,0.40725 -0.11975,0.0767 -0.23369,0.16617 -0.37351,0.20324 -0.10146,0.11127 -0.26481,0.0856 -0.38001,0.17192 -0.0847,0.0663 -0.20244,0.0531 -0.29298,0.10738 -0.21207,0.19777 -0.45057,0.36406 -0.67785,0.5434 -0.14616,0.0696 -0.25495,0.20349 -0.41259,0.24937 -0.06,0.0555 -0.12997,0.0916 -0.20816,0.11492 -0.12473,0.13064 -0.32771,0.0946 -0.46652,0.20141 -0.11707,0.0501 -0.21076,0.13954 -0.33285,0.17864 -0.0836,0.0783 -0.19771,0.10226 -0.29354,0.16117 -0.18629,0.10805 -0.43186,0.0649 -0.60005,0.20995 -0.17407,0.0719 -0.37113,0.07 -0.54745,0.13827 -0.11182,0.0478 -0.23366,0.0645 -0.35448,0.0669 -0.17623,0.0232 -0.34841,0.0716 -0.52396,0.0993 0.006,-0.0177 0.009,-0.0351 0.0135,-0.0525 -0.2047,0.0311 -0.40807,0.0755 -0.61414,0.0974 -0.083,-0.0388 -0.16981,-0.0268 -0.25732,-0.0146 -0.14728,-0.0348 -0.2968,-0.06 -0.44119,-0.1067 -0.0558,0.0108 -0.14635,0.006 -0.14379,0.0839 0.0583,-0.002 0.11611,0 0.17391,0.003 -0.0243,0.0303 -0.049,0.0599 -0.0734,0.0901 0.10198,0.0108 0.19357,0.0842 0.29647,0.0402 0.13254,0.0196 0.26429,0.0455 0.39928,0.0375 -0.0647,0.0291 -0.1289,0.0596 -0.19063,0.095 0.0266,0.006 0.079,0.0167 0.10549,0.022 0.06,-0.0396 0.1106,-0.10441 0.1893,-0.10441 0.0378,0.0252 0.0743,0.0516 0.11208,0.0765 0.0454,-0.0268 0.0898,-0.0577 0.14214,-0.0684 0.13038,-0.0351 0.25954,0.0499 0.38976,0.0121 0.15577,-0.0355 0.31615,-0.0584 0.4631,-0.12284 0.0652,-0.0255 0.13472,-0.0108 0.20094,-0.002 -0.0728,0.0343 -0.14785,0.0671 -0.21084,0.11854 -0.0789,0.0736 -0.20016,0.0628 -0.28425,0.12769 -0.11853,0.10858 -0.3034,0.0637 -0.42468,0.17008 -0.18916,0.0955 -0.41044,0.10145 -0.60923,0.17231 -0.21624,0.11707 -0.46865,0.16775 -0.71338,0.14551 -0.12837,0.009 -0.2536,0.046 -0.38236,0.0542 -0.16151,-0.032 -0.32947,-0.0281 -0.48814,-0.0768 -0.1906,-0.0548 -0.35744,-0.17316 -0.49653,-0.31159 -0.19773,-0.11127 -0.4248,-0.0193 -0.62638,0.0313 -0.097,0.0809 -0.21738,0.10617 -0.33766,0.13187 -0.0763,0.0572 -0.15643,0.10535 -0.2493,0.13186 -0.0665,0.0554 -0.14254,0.0927 -0.22602,0.11504 -0.0687,0.0743 -0.16883,0.0909 -0.25474,0.13441 -0.0675,0.0733 -0.17514,0.0754 -0.24565,0.14391 -0.0645,0.0553 -0.16273,0.0487 -0.2225,0.11302 -0.0601,0.0622 -0.15853,0.0511 -0.22117,0.111 -0.10334,0.0897 -0.2602,0.0639 -0.36656,0.149 -0.0793,0.0681 -0.18763,0.0696 -0.28386,0.0963 -0.0864,0.0196 -0.14626,0.0955 -0.23371,0.11249 -0.11934,0.0398 -0.25528,0.0421 -0.35941,0.12016 -0.12808,0.0909 -0.30286,0.0593 -0.43282,0.14699 -0.16141,0.11571 -0.38265,0.0832 -0.54521,0.19604 -0.10684,0.0715 -0.2406,0.0734 -0.36134,0.1067 -0.0971,0.0178 -0.16855,0.0975 -0.26543,0.11707 -0.16381,0.0517 -0.34638,0.0578 -0.49223,0.15668" />
    <g
       transform="translate(482.62556,535.04117)"
       style="font-size:7.5px;font-style:normal;font-variant:normal;font-weight:bold;font-stretch:normal;line-height:125%;letter-spacing:0px;word-spacing:0px;fill:#ffffff;fill-opacity:1;stroke:none;font-family:Impact;-inkscape-font-specification:Impact Bold"
       id="text857">
      <path
         d="m 17.480209,34.4949 1.552735,0 q 0.629883,0 0.966797,0.09888 0.340576,0.09888 0.509033,0.285644 0.172119,0.186768 0.230713,0.454102 0.06226,0.263672 0.06226,0.820312 l 0,0.516358 q 0,0.567627 -0.117188,0.827636 -0.117187,0.26001 -0.432129,0.39917 -0.311279,0.139161 -0.81665,0.139161 l -0.413819,0 0,2.387695 -1.541748,0 L 17.480209,34.4949 z m 1.541748,1.014404 0,1.508789 q 0.06592,0.0037 0.113526,0.0037 0.212402,0 0.292969,-0.102539 0.08423,-0.106201 0.08423,-0.435791 l 0,-0.48706 q 0,-0.303955 -0.09521,-0.395508 Q 19.32225,35.509304 19.021957,35.509304 Z"
         id="path862"
         inkscape:connector-curvature="0" />
      <path
         d="m 24.511459,36.289333 -1.431884,0 0,-0.439453 q 0,-0.307617 -0.05493,-0.391845 -0.05493,-0.08423 -0.183106,-0.08423 -0.13916,0 -0.212402,0.113525 -0.06958,0.113526 -0.06958,0.344239 0,0.296631 0.08057,0.446777 0.07691,0.150146 0.435791,0.362549 1.029053,0.611572 1.296387,1.003418 0.267334,0.391846 0.267334,1.263428 0,0.633544 -0.150146,0.933837 -0.146485,0.300293 -0.571289,0.505372 -0.424805,0.201416 -0.98877,0.201416 -0.618896,0 -1.05835,-0.234375 -0.435791,-0.234375 -0.571289,-0.596924 -0.135498,-0.362549 -0.135498,-1.029053 l 0,-0.388184 1.431885,0 0,0.721436 q 0,0.333252 0.05859,0.428467 0.06226,0.09522 0.216064,0.09522 0.153809,0 0.227051,-0.12085 0.0769,-0.12085 0.0769,-0.358887 0,-0.523681 -0.142822,-0.684814 -0.146484,-0.161133 -0.721435,-0.53833 -0.574952,-0.38086 -0.761719,-0.552979 -0.186768,-0.172119 -0.311279,-0.476074 -0.12085,-0.303955 -0.12085,-0.776367 0,-0.681153 0.172119,-0.996094 0.175781,-0.314941 0.563965,-0.490723 0.388184,-0.179443 0.9375,-0.179443 0.600586,0 1.021728,0.194092 0.424805,0.194092 0.560303,0.490722 0.13916,0.292969 0.13916,0.999756 L 24.511459,36.289333 Z"
         id="path864"
         inkscape:connector-curvature="0" />
      <path
         d="m 25.126694,34.4949 1.153564,0 q 1.116944,0 1.508789,0.102539 0.395508,0.102539 0.600586,0.336914 0.205078,0.234375 0.256348,0.523682 0.05127,0.285644 0.05127,1.127929 l 0,2.076416 q 0,0.79834 -0.0769,1.069336 -0.07324,0.267334 -0.26001,0.421143 -0.186767,0.150146 -0.461425,0.212402 -0.274659,0.05859 -0.827637,0.05859 l -1.94458,0 L 25.126694,34.4949 z m 1.541748,1.014404 0,3.900147 q 0.333252,0 0.410156,-0.131836 0.0769,-0.135498 0.0769,-0.72876 l 0,-2.303467 q 0,-0.402832 -0.02563,-0.516357 Q 27.104233,35.615505 27.01268,35.564236 26.921127,35.509304 26.668442,35.509304 Z"
         id="path866"
         inkscape:connector-curvature="0" />
    </g>
  </g>
</svg>
