<?xml version="1.0" encoding="UTF-8" standalone="no"?>
<!-- Created with Inkscape (http://www.inkscape.org/) -->

<svg
   xmlns:dc="http://purl.org/dc/elements/1.1/"
   xmlns:cc="http://creativecommons.org/ns#"
   xmlns:rdf="http://www.w3.org/1999/02/22-rdf-syntax-ns#"
   xmlns:svg="http://www.w3.org/2000/svg"
   xmlns="http://www.w3.org/2000/svg"
   xmlns:xlink="http://www.w3.org/1999/xlink"
   xmlns:sodipodi="http://sodipodi.sourceforge.net/DTD/sodipodi-0.dtd"
   xmlns:inkscape="http://www.inkscape.org/namespaces/inkscape"
   width="48"
   height="48"
   id="svg6654"
   version="1.1"
   inkscape:version="0.48+devel r12012"
   sodipodi:docname="application-ogg.svg">
  <defs
     id="defs6656">
    <linearGradient
       id="linearGradient998">
      <stop
         id="stop1000"
         offset="0"
         style="stop-color:#8dd35f;stop-opacity:1" />
      <stop
         id="stop1002"
         offset="1"
         style="stop-color:#5aa02c;stop-opacity:1" />
    </linearGradient>
    <linearGradient
       y2="468.35892"
       x2="314.34872"
       y1="425.61682"
       x1="314.34872"
       gradientTransform="translate(-123.48961,387.43992)"
       gradientUnits="userSpaceOnUse"
       id="linearGradient1679"
       xlink:href="#linearGradient998"
       inkscape:collect="always" />
    <linearGradient
       id="linearGradient6707">
      <stop
         id="stop6709"
         offset="0"
         style="stop-color:#000000;stop-opacity:1;" />
      <stop
         id="stop6711"
         offset="1"
         style="stop-color:#ffffff;stop-opacity:1;" />
    </linearGradient>
    <linearGradient
       y2="442.7843"
       x2="262.01361"
       y1="471.95245"
       x1="262.01361"
       gradientTransform="translate(-69.686184,387.43266)"
       gradientUnits="userSpaceOnUse"
       id="linearGradient1696"
       xlink:href="#linearGradient6707"
       inkscape:collect="always" />
  </defs>
  <sodipodi:namedview
     id="base"
     pagecolor="#ffffff"
     bordercolor="#666666"
     borderopacity="1.0"
     inkscape:pageopacity="0.0"
     inkscape:pageshadow="2"
     inkscape:zoom="3.959798"
     inkscape:cx="-74.229204"
     inkscape:cy="40.150372"
     inkscape:document-units="px"
     inkscape:current-layer="layer1"
     showgrid="false"
     fit-margin-top="0"
     fit-margin-left="0"
     fit-margin-right="0"
     fit-margin-bottom="0"
     inkscape:window-width="1366"
     inkscape:window-height="718"
     inkscape:window-x="0"
     inkscape:window-y="28"
     inkscape:window-maximized="1" />
  <metadata
     id="metadata6659">
    <rdf:RDF>
      <cc:Work
         rdf:about="">
        <dc:format>image/svg+xml</dc:format>
        <dc:type
           rdf:resource="http://purl.org/dc/dcmitype/StillImage" />
        <dc:title />
      </cc:Work>
    </rdf:RDF>
  </metadata>
  <g
     inkscape:label="Capa 1"
     inkscape:groupmode="layer"
     id="layer1"
     transform="translate(-167.42857,-811.2193)">
    <path
       style="opacity:0.5;fill:#000000;fill-opacity:1;stroke:none"
       d="m 171.22712,813.13731 40.4029,0 c 0.89692,0 1.619,0.79795 1.619,1.78913 l 0,40.58571 c 0,0.9912 -0.72207,1.78914 -1.619,1.78914 l -40.4029,0 c -0.89692,0 -1.61899,-0.79795 -1.61899,-1.78914 l 0,-40.58571 C 169.60813,813.93526 170.33019,813.13731 171.22712,813.13731 Z"
       id="rect3922"
       inkscape:connector-curvature="0" />
    <path
       inkscape:connector-curvature="0"
       id="path869"
       d="m 171.63133,813.69776 39.59446,0 c 0.87417,0 1.57791,0.77771 1.57791,1.74374 l 0,39.5556 c 0,0.96604 -0.70375,1.74374 -1.57791,1.74374 l -39.59445,0 c -0.87416,0 -1.5779,-0.7777 -1.5779,-1.74374 l 0,-39.5556 C 170.05343,814.47547 170.75718,813.69776 171.63133,813.69776 Z"
       style="fill:url(#linearGradient1679);fill-opacity:1;stroke:none" />
    <rect
       style="opacity:0.35648151;fill:none;stroke:none"
       id="rect4543"
       width="48"
       height="48"
       x="167.42857"
       y="811.2193" />
    <path
       inkscape:connector-curvature="0"
       style="fill:url(#linearGradient1696);fill-opacity:1;stroke:none"
       d="m 170.05357,848.24084 0,6.75 c 0,0.96604 0.68835,1.75 1.5625,1.75 l 39.625,0 c 0.87417,0 1.5625,-0.78396 1.5625,-1.75 l 0,-6.75 L 170.05357,848.24084 Z"
       id="path874" />
    <path
       style="fill:#f9f9f9;fill-opacity:1;stroke:none"
       d="m 185.51936,822.59608 0,0.33446 0,2.7173 0,9.95618 c -0.66226,-0.0757 -1.3827,-0.049 -2.11114,0.14634 -2.34289,0.62774 -3.86585,2.53105 -3.40709,4.24313 0.45876,1.71214 2.73638,2.59262 5.07928,1.96485 2.05975,-0.55189 3.48701,-2.09031 3.4907,-3.6161 l 0,-13.49645 11.32911,-1.87345 0,11.96282 c -0.66503,-0.0776 -1.379,-0.0289 -2.11114,0.1672 -2.34291,0.62776 -3.86586,2.51015 -3.4071,4.22228 0.45876,1.71213 2.71549,2.59259 5.05838,1.96484 1.91273,-0.51253 3.28111,-1.86853 3.46981,-3.28169 l 0.021,0 0,-0.31353 c 0.002,-0.10845 0.0135,-0.20545 0,-0.31353 L 202.93106,819.92058 Z"
       id="path1798"
       inkscape:connector-curvature="0"
       sodipodi:nodetypes="ccccsssccccssscccccc" />
    <g
       style="font-size:7.5px;font-style:normal;font-variant:normal;font-weight:bold;font-stretch:normal;line-height:125%;letter-spacing:0px;word-spacing:0px;fill:#ffffff;fill-opacity:1;stroke:none;font-family:Impact;-inkscape-font-specification:Impact Bold"
       id="text1030">
      <path
         d="m 189.08849,852.99805 q 0,0.89355 -0.0439,1.26709 -0.0403,0.36987 -0.26367,0.67749 -0.21973,0.30761 -0.59693,0.47241 -0.37719,0.16479 -0.8789,0.16479 -0.47608,0 -0.85694,-0.1538 -0.37719,-0.15748 -0.60791,-0.46875 -0.23071,-0.31128 -0.27465,-0.67749 -0.0439,-0.36622 -0.0439,-1.28174 l 0,-1.01441 q 0,-0.89355 0.0403,-1.26343 0.0439,-0.37353 0.26368,-0.68115 0.22338,-0.30761 0.60058,-0.47241 0.3772,-0.16479 0.87891,-0.16479 0.47607,0 0.85327,0.15747 0.38086,0.1538 0.61157,0.46508 0.23072,0.31128 0.27466,0.67749 0.0439,0.36622 0.0439,1.28174 L 189.08849,852.99805 z m -1.54175,-1.94825 q 0,-0.41381 -0.0476,-0.52734 -0.0439,-0.11719 -0.18677,-0.11719 -0.12085,0 -0.18676,0.0952 -0.0623,0.0915 -0.0623,0.54931 l 0,2.76856 q 0,0.51636 0.0403,0.63721 0.0439,0.12085 0.19776,0.12085 0.15747,0 0.20141,-0.13916 0.0439,-0.13916 0.0439,-0.66285 L 187.54674,851.0498 Z"
         style=""
         id="path961" />
      <path
         d="m 193.2047,851.70898 -1.54175,0 0,-0.53833 q 0,-0.50903 -0.0439,-0.6372 -0.0439,-0.12818 -0.20874,-0.12818 -0.14282,0 -0.19409,0.10987 -0.0513,0.10986 -0.0513,0.56396 l 0,2.84546 q 0,0.39917 0.0513,0.52734 0.0513,0.12452 0.20508,0.12452 0.16846,0 0.22705,-0.14283 0.0623,-0.14282 0.0623,-0.55664 l 0,-0.70312 -0.31128,0 0,-0.90088 1.80542,0 0,3.18237 -0.97046,0 -0.14282,-0.4248 q -0.15748,0.27466 -0.39917,0.41382 -0.23804,0.13549 -0.56397,0.13549 -0.38818,0 -0.72876,-0.18676 -0.33691,-0.19043 -0.51269,-0.46875 -0.17579,-0.27832 -0.21973,-0.58228 -0.0439,-0.30762 -0.0439,-0.91919 l 0,-1.76147 q 0,-0.84961 0.0916,-1.23413 0.0916,-0.38453 0.52368,-0.70313 0.43579,-0.32226 1.12427,-0.32226 0.67749,0 1.12426,0.27832 0.44678,0.27832 0.58228,0.66284 0.1355,0.38086 0.1355,1.10962 L 193.2047,851.70898 Z"
         style=""
         id="path963" />
      <path
         d="m 197.33556,851.70898 -1.54175,0 0,-0.53833 q 0,-0.50903 -0.0439,-0.6372 -0.0439,-0.12818 -0.20874,-0.12818 -0.14282,0 -0.19409,0.10987 -0.0513,0.10986 -0.0513,0.56396 l 0,2.84546 q 0,0.39917 0.0513,0.52734 0.0513,0.12452 0.20508,0.12452 0.16846,0 0.22705,-0.14283 0.0623,-0.14282 0.0623,-0.55664 l 0,-0.70312 -0.31128,0 0,-0.90088 1.80542,0 0,3.18237 -0.97046,0 -0.14283,-0.4248 q -0.15747,0.27466 -0.39917,0.41382 -0.23803,0.13549 -0.56396,0.13549 -0.38818,0 -0.72876,-0.18676 -0.33691,-0.19043 -0.5127,-0.46875 -0.17578,-0.27832 -0.21972,-0.58228 -0.0439,-0.30762 -0.0439,-0.91919 l 0,-1.76147 q 0,-0.84961 0.0916,-1.23413 0.0915,-0.38453 0.52368,-0.70313 0.43579,-0.32226 1.12427,-0.32226 0.67749,0 1.12426,0.27832 0.44678,0.27832 0.58228,0.66284 0.1355,0.38086 0.1355,1.10962 L 197.33556,851.70898 Z"
         style=""
         id="path965" />
    </g>
  </g>
</svg>
