<?xml version="1.0" encoding="UTF-8" standalone="no"?>
<!-- Created with Inkscape (http://www.inkscape.org/) -->

<svg
   xmlns:dc="http://purl.org/dc/elements/1.1/"
   xmlns:cc="http://creativecommons.org/ns#"
   xmlns:rdf="http://www.w3.org/1999/02/22-rdf-syntax-ns#"
   xmlns:svg="http://www.w3.org/2000/svg"
   xmlns="http://www.w3.org/2000/svg"
   xmlns:xlink="http://www.w3.org/1999/xlink"
   xmlns:sodipodi="http://sodipodi.sourceforge.net/DTD/sodipodi-0.dtd"
   xmlns:inkscape="http://www.inkscape.org/namespaces/inkscape"
   width="48"
   height="48"
   id="svg4768"
   version="1.1"
   inkscape:version="0.48+devel r12012"
   sodipodi:docname="image-x-compressed-xcf.svg"
   inkscape:export-filename="/home/uri/mintscicon.png"
   inkscape:export-xdpi="13.719384"
   inkscape:export-ydpi="13.719384">
  <defs
     id="defs4770">
    <linearGradient
       gradientTransform="translate(5e-6,-5e-5)"
       inkscape:collect="always"
       xlink:href="#linearGradient6707"
       id="linearGradient1110"
       x1="262.01361"
       y1="471.95245"
       x2="262.01361"
       y2="442.7843"
       gradientUnits="userSpaceOnUse" />
    <linearGradient
       id="linearGradient6707">
      <stop
         id="stop6709"
         offset="0"
         style="stop-color:#000000;stop-opacity:1;" />
      <stop
         id="stop6711"
         offset="1"
         style="stop-color:#ffffff;stop-opacity:1;" />
    </linearGradient>
    <linearGradient
       y2="468.35892"
       x2="314.34872"
       y1="425.61682"
       x1="314.34872"
       gradientTransform="translate(-53.791412,-5.4e-5)"
       gradientUnits="userSpaceOnUse"
       id="linearGradient1882"
       xlink:href="#linearGradient848"
       inkscape:collect="always" />
    <linearGradient
       id="linearGradient848">
      <stop
         id="stop850"
         offset="0"
         style="stop-color:#ff80b2;stop-opacity:1" />
      <stop
         id="stop852"
         offset="1"
         style="stop-color:#aa0044;stop-opacity:1" />
    </linearGradient>
  </defs>
  <sodipodi:namedview
     id="base"
     pagecolor="#ffffff"
     bordercolor="#666666"
     borderopacity="1.0"
     inkscape:pageopacity="0.0"
     inkscape:pageshadow="2"
     inkscape:zoom="2.828427"
     inkscape:cx="-55.347668"
     inkscape:cy="15.351976"
     inkscape:document-units="px"
     inkscape:current-layer="layer1"
     showgrid="false"
     inkscape:window-width="1366"
     inkscape:window-height="718"
     inkscape:window-x="0"
     inkscape:window-y="28"
     inkscape:window-maximized="1"
     showguides="true"
     inkscape:guide-bbox="true"
     fit-margin-top="0"
     fit-margin-left="0"
     fit-margin-right="0"
     fit-margin-bottom="0" />
  <metadata
     id="metadata4773">
    <rdf:RDF>
      <cc:Work
         rdf:about="">
        <dc:format>image/svg+xml</dc:format>
        <dc:type
           rdf:resource="http://purl.org/dc/dcmitype/StillImage" />
        <dc:title />
      </cc:Work>
    </rdf:RDF>
  </metadata>
  <g
     inkscape:label="Capa 1"
     inkscape:groupmode="layer"
     id="layer1"
     transform="translate(-237.12677,-423.77933)">
    <path
       style="opacity:0.5;fill:#000000;fill-opacity:1;stroke:none"
       d="m 240.92531,425.69734 40.4029,0 c 0.89693,0 1.61901,0.79795 1.61901,1.78913 l 0,40.58571 c 0,0.9912 -0.72207,1.78914 -1.61901,1.78914 l -40.40289,0 c -0.89692,0 -1.61899,-0.79795 -1.61899,-1.78914 l 0,-40.58571 C 239.30633,426.49529 240.0284,425.69734 240.92531,425.69734 Z"
       id="rect3922"
       inkscape:connector-curvature="0" />
    <path
       inkscape:connector-curvature="0"
       id="path869"
       d="m 241.32953,426.25779 39.59446,0 c 0.87416,0 1.57791,0.77771 1.57791,1.74374 l 0,39.5556 c 0,0.96604 -0.70375,1.74374 -1.57791,1.74374 l -39.59445,0 c -0.87416,0 -1.5779,-0.7777 -1.5779,-1.74374 l 0,-39.5556 C 239.75163,427.0355 240.45538,426.25779 241.32953,426.25779 Z"
       style="fill:url(#linearGradient1882);fill-opacity:1.0;stroke:none" />
    <g
       id="g1503"
       transform="translate(-53.791415,-5e-5)">
      <path
         inkscape:connector-curvature="0"
         id="path3798"
         d="m 318.94862,432.02439 -0.36479,1.97543 -0.0165,0.0614 -2.31245,4.08617 c -0.10297,0.18095 -0.0508,0.39311 0.13045,0.49566 l 1.16834,0.67503 c 0.18095,0.10297 0.39311,0.0508 0.49564,-0.13044 l 2.34535,-4.20899 1.47171,-1.31685 -0.83925,-1.90316 L 318.94862,432.02439 z m -1.32394,4.44975 c 0.0925,-0.0257 0.19396,-0.008 0.28455,0.0434 l 0.62641,0.36469 c 0.18096,0.10296 0.233,0.31446 0.13047,0.49565 l -0.67504,1.16833 c -0.10298,0.18097 -0.31446,0.233 -0.49568,0.13046 l -0.60362,-0.32629 c -0.18095,-0.10296 -0.25547,-0.35339 -0.15292,-0.53458 l 0.63616,-1.14583 C 317.42593,436.5798 317.53212,436.49979 317.62468,436.47414 Z"
         style="fill:#000000;fill-opacity:1;stroke:none" />
      <path
         sodipodi:nodetypes="ccccccccccc"
         inkscape:connector-curvature="0"
         id="rect1396"
         d="m 325.04243,429.77974 -3.14418,0.61761 -0.95449,0.18623 0,3.79308 0.93577,0.2878 3.1629,0.61762 1.04808,-0.61762 1.47851,-1.19778 0,-1.87154 L 326.09051,430.39735 Z"
         style="fill:#000000;fill-opacity:1;stroke:none" />
      <g
         transform="matrix(0.95351085,0,0,0.95351085,14.473848,20.094107)"
         id="g1465">
        <rect
           style="fill:#000000;fill-opacity:1;stroke:none"
           id="rect1052"
           width="1.2569011"
           height="1.2569011"
           x="293.58234"
           y="430.96652" />
        <rect
           y="432.24088"
           x="294.85669"
           height="1.2569011"
           width="1.2569011"
           id="rect1054"
           style="fill:#000000;fill-opacity:1;stroke:none" />
        <rect
           y="-433.49777"
           x="-298.64822"
           height="1.2569011"
           width="1.2569011"
           id="rect1056"
           style="fill:#000000;fill-opacity:1;stroke:none"
           transform="scale(-1,-1)" />
        <rect
           style="fill:#000000;fill-opacity:1;stroke:none"
           id="rect1058"
           width="1.2569011"
           height="1.2569011"
           x="-297.37387"
           y="-432.22342"
           transform="scale(-1,-1)" />
        <rect
           y="430.96652"
           x="298.65158"
           height="1.2569011"
           width="1.2569011"
           id="rect1060"
           style="fill:#000000;fill-opacity:1;stroke:none" />
        <rect
           style="fill:#000000;fill-opacity:1;stroke:none"
           id="rect1062"
           width="1.2569011"
           height="1.2569011"
           x="299.92593"
           y="432.24088" />
        <rect
           transform="scale(-1,-1)"
           style="fill:#000000;fill-opacity:1;stroke:none"
           id="rect1064"
           width="1.2569011"
           height="1.2569011"
           x="-303.71747"
           y="-433.49777" />
        <rect
           transform="scale(-1,-1)"
           y="-432.22342"
           x="-302.44312"
           height="1.2569011"
           width="1.2569011"
           id="rect1066"
           style="fill:#000000;fill-opacity:1;stroke:none" />
        <rect
           y="430.96652"
           x="303.70737"
           height="1.2569011"
           width="1.2569011"
           id="rect1068"
           style="fill:#000000;fill-opacity:1;stroke:none" />
        <rect
           style="fill:#000000;fill-opacity:1;stroke:none"
           id="rect1070"
           width="1.2569011"
           height="1.2569011"
           x="304.98172"
           y="432.24088" />
        <rect
           transform="scale(-1,-1)"
           style="fill:#000000;fill-opacity:1;stroke:none"
           id="rect1072"
           width="1.2569011"
           height="1.2569011"
           x="-308.77325"
           y="-433.49777" />
        <rect
           transform="scale(-1,-1)"
           y="-432.22342"
           x="-307.4989"
           height="1.2569011"
           width="1.2569011"
           id="rect1074"
           style="fill:#000000;fill-opacity:1;stroke:none" />
        <rect
           style="fill:#000000;fill-opacity:1;stroke:none"
           id="rect1076"
           width="1.2569011"
           height="1.2569011"
           x="308.77661"
           y="430.96652" />
        <rect
           y="432.24088"
           x="310.05096"
           height="1.2569011"
           width="1.2569011"
           id="rect1078"
           style="fill:#000000;fill-opacity:1;stroke:none" />
        <rect
           y="430.96652"
           x="311.33246"
           height="1.2569011"
           width="1.2569011"
           id="rect1409"
           style="fill:#000000;fill-opacity:1;stroke:none" />
        <rect
           style="fill:#000000;fill-opacity:1;stroke:none"
           id="rect1411"
           width="1.2569011"
           height="1.2569011"
           x="312.60681"
           y="432.24088" />
        <rect
           transform="scale(-1,-1)"
           style="fill:#000000;fill-opacity:1;stroke:none"
           id="rect1413"
           width="1.2569011"
           height="1.2569011"
           x="-316.39835"
           y="-433.49777" />
        <rect
           transform="scale(-1,-1)"
           y="-432.22342"
           x="-315.12399"
           height="1.2569011"
           width="1.2569011"
           id="rect1415"
           style="fill:#000000;fill-opacity:1;stroke:none" />
        <rect
           style="fill:#000000;fill-opacity:1;stroke:none"
           id="rect1417"
           width="1.2569011"
           height="1.2569011"
           x="316.4017"
           y="430.96652" />
        <rect
           y="432.24088"
           x="317.67606"
           height="1.2569011"
           width="1.2569011"
           id="rect1419"
           style="fill:#000000;fill-opacity:1;stroke:none" />
        <rect
           y="-433.49777"
           x="-321.46759"
           height="1.2569011"
           width="1.2569011"
           id="rect1421"
           style="fill:#000000;fill-opacity:1;stroke:none"
           transform="scale(-1,-1)" />
        <rect
           style="fill:#000000;fill-opacity:1;stroke:none"
           id="rect1423"
           width="1.2569011"
           height="1.2569011"
           x="-320.19324"
           y="-432.22342"
           transform="scale(-1,-1)" />
        <rect
           style="fill:#000000;fill-opacity:1;stroke:none"
           id="rect1425"
           width="1.2569011"
           height="1.2569011"
           x="321.45749"
           y="430.96652" />
        <rect
           y="432.24088"
           x="322.73184"
           height="1.2569011"
           width="1.2569011"
           id="rect1427"
           style="fill:#000000;fill-opacity:1;stroke:none" />
        <rect
           y="-433.49777"
           x="-326.52338"
           height="1.2569011"
           width="1.2569011"
           id="rect1429"
           style="fill:#000000;fill-opacity:1;stroke:none"
           transform="scale(-1,-1)" />
        <rect
           style="fill:#000000;fill-opacity:1;stroke:none"
           id="rect1431"
           width="1.2569011"
           height="1.2569011"
           x="-325.24902"
           y="-432.22342"
           transform="scale(-1,-1)" />
        <rect
           y="430.96652"
           x="326.52673"
           height="1.2569011"
           width="1.2569011"
           id="rect1433"
           style="fill:#000000;fill-opacity:1;stroke:none" />
        <rect
           style="fill:#000000;fill-opacity:1;stroke:none"
           id="rect1435"
           width="1.2569011"
           height="1.2569011"
           x="327.80109"
           y="432.24088" />
        <rect
           style="fill:#000000;fill-opacity:1;stroke:none"
           id="rect1437"
           width="1.2569011"
           height="1.2569011"
           x="329.00262"
           y="430.96652" />
        <rect
           y="432.24088"
           x="330.27698"
           height="1.2569011"
           width="1.2569011"
           id="rect1439"
           style="fill:#000000;fill-opacity:1;stroke:none" />
        <rect
           y="-433.49777"
           x="-334.06851"
           height="1.2569011"
           width="1.2569011"
           id="rect1441"
           style="fill:#000000;fill-opacity:1;stroke:none"
           transform="scale(-1,-1)" />
        <rect
           style="fill:#000000;fill-opacity:1;stroke:none"
           id="rect1443"
           width="1.2569011"
           height="1.2569011"
           x="-332.79416"
           y="-432.22342"
           transform="scale(-1,-1)" />
        <rect
           y="430.96652"
           x="334.07187"
           height="1.2569011"
           width="1.2569011"
           id="rect1445"
           style="fill:#000000;fill-opacity:1;stroke:none" />
        <rect
           style="fill:#000000;fill-opacity:1;stroke:none"
           id="rect1447"
           width="1.2569011"
           height="1.2569011"
           x="335.34622"
           y="432.24088" />
      </g>
    </g>
    <path
       inkscape:connector-curvature="0"
       style="fill:url(#linearGradient1110);fill-opacity:1;stroke:none"
       d="m 239.73976,460.80813 0,6.75 c 0,0.96604 0.68835,1.75 1.5625,1.75 l 39.625,0 c 0.87417,0 1.5625,-0.78396 1.5625,-1.75 l 0,-6.75 L 239.73976,460.80813 Z"
       id="path874" />
    <path
       style="fill:#ffffff;fill-opacity:1"
       d="m 247.72416,453.15529 c -1.49673,-0.28006 -3.45648,-1.78377 -4.38118,-3.36167 -0.49619,-0.84663 -1.20921,-1.61965 -1.5845,-1.71782 -1.65166,-0.43196 -1.52295,-3.43443 0.17491,-4.07995 2.48381,-0.94431 4.13351,1.83465 2.33283,3.92968 -0.48037,0.55891 -0.46369,0.71092 0.17227,1.56947 2.49606,3.36962 7.13042,3.36692 9.18653,-0.006 0.56217,-0.92202 0.69328,-1.75919 0.69433,-4.43348 l 8.4e-4,-3.29681 -1.39505,1.36223 -1.39504,1.36224 -1.34789,-1.31622 c -1.28389,-1.25371 -1.35733,-1.28014 -1.54639,-0.55717 -0.32526,1.24382 -1.11647,0.60016 -1.11647,-0.90818 0,-1.90157 0.90098,-1.99889 2.65438,-0.28674 l 1.35637,1.32447 1.35637,-1.32447 c 0.82987,-0.8103 1.6083,-1.27509 2.00538,-1.19728 0.58775,0.11516 0.649,0.50503 0.649,4.13097 0,3.62824 -0.0822,4.1506 -0.87629,5.56878 C 253.38153,452.20902 250.31439,453.63949 247.72368,453.15477 z m -4.04071,-7.06924 c 0,-0.63919 -0.20986,-0.90166 -0.78627,-0.98352 -0.47162,-0.067 -0.87035,0.10745 -0.9964,0.43593 -0.34725,0.90486 0.13946,1.65282 0.9964,1.53111 C 243.47359,446.98771 243.68345,446.72525 243.68345,446.08605 z m 2.61571,0.34878 c 0,-0.19183 0.15695,-0.34878 0.34875,-0.34878 0.19182,0 0.34877,0.15695 0.34877,0.34878 0,0.19183 -0.15695,0.34872 -0.34877,0.34872 C 246.45611,446.78355 246.29916,446.62666 246.29916,446.43483 z m 3.48761,0 c 0,-0.19183 0.15695,-0.34878 0.34876,-0.34878 0.19182,0 0.34876,0.15695 0.34876,0.34878 0,0.19183 -0.15694,0.34872 -0.34876,0.34872 C 249.94372,446.78355 249.78677,446.62666 249.78677,446.43483 Z"
       id="path3811"
       inkscape:connector-curvature="0" />
    <g
       style="font-size:7.5px;font-style:normal;font-weight:normal;line-height:125%;letter-spacing:0px;word-spacing:0px;fill:#ffffff;fill-opacity:1;stroke:none;font-family:Impact;-inkscape-font-specification:Impact"
       id="text994">
      <path
         d="m 249.88307,462.09366 -0.53833,2.62207 0.81299,3.30688 -1.42822,0 q -0.25635,-0.88623 -0.46875,-2.15698 -0.0586,0.5603 -0.16114,1.19019 l -0.14648,0.96679 -1.50146,0 0.55664,-3.30688 -0.55664,-2.62207 1.49047,0 q 0.0403,0.24536 0.16114,0.81665 0.0952,0.43579 0.15747,0.79834 l 0.32959,-1.61499 L 249.88307,462.09366 Z"
         style=""
         id="path999" />
      <path
         d="m 253.97731,464.67911 -1.54175,0 0,-1.03272 q 0,-0.45044 -0.0513,-0.5603 -0.0476,-0.11353 -0.21606,-0.11353 -0.19043,0 -0.2417,0.1355 -0.0513,0.1355 -0.0513,0.58594 l 0,2.75391 q 0,0.43213 0.0513,0.56396 0.0513,0.13184 0.23071,0.13184 0.17212,0 0.22339,-0.13184 0.0549,-0.13183 0.0549,-0.6189 l 0,-0.7434 1.54175,0 0,0.23071 q 0,0.91919 -0.13184,1.30371 -0.12817,0.38452 -0.57495,0.67383 -0.44311,0.28931 -1.09497,0.28931 -0.67749,0 -1.11694,-0.24537 -0.43945,-0.24536 -0.58228,-0.67749 -0.14282,-0.43579 -0.14282,-1.30737 l 0,-1.73218 q 0,-0.64087 0.044,-0.95947 0.0439,-0.32227 0.26001,-0.6189 0.21972,-0.29663 0.60424,-0.46508 0.38819,-0.17212 0.8899,-0.17212 0.68115,0 1.12426,0.26367 0.44312,0.26367 0.58228,0.65918 0.13916,0.39184 0.13916,1.22314 L 253.97731,464.67911 Z"
         style=""
         id="path1001" />
      <path
         d="m 254.53761,462.09366 2.61109,0 0,1.18652 -1.06934,0 0,1.12427 0.95215,0 0,1.12793 -0.95215,0 0,2.49023 -1.54175,0 L 254.53761,462.09366 Z"
         style=""
         id="path1003" />
      <path
         d="m 259.29469,465.08194 0,1.02173 -1.94458,0 0,-1.02173 L 259.29469,465.08194 Z"
         style=""
         id="path1005" />
      <path
         d="m 259.73781,462.09366 1.53808,0 q 0.72876,0 1.1023,0.11352 0.3772,0.11353 0.60791,0.46143 0.23071,0.34424 0.23071,1.11328 0,0.52002 -0.16479,0.7251 -0.16114,0.20508 -0.64087,0.31494 0.53467,0.12085 0.7251,0.40283 0.19043,0.27832 0.19043,0.85694 l 0,0.54931 q 0,0.60059 -0.13916,0.88989 -0.1355,0.28931 -0.4358,0.39551 -0.30029,0.1062 -1.23046,0.1062 l -1.78345,0 L 259.73781,462.09366 z m 1.54175,1.0144 0,1.31836 q 0.0989,-0.004 0.1538,-0.004 0.22706,0 0.28931,-0.10986 0.0623,-0.11353 0.0623,-0.64087 0,-0.27832 -0.0513,-0.38819 -0.0513,-0.11352 -0.1355,-0.14282 Q 261.51759,463.11172 261.27956,463.10806 z m 0,2.24121 0,1.65894 q 0.32592,-0.011 0.41381,-0.10254 0.0916,-0.0915 0.0916,-0.45044 l 0,-0.55298 q 0,-0.38086 -0.0806,-0.46142 Q 261.62379,465.36026 261.27956,465.34927 Z"
         style=""
         id="path1007" />
      <path
         d="m 266.46144,462.09366 0,1.18652 -1.1499,3.55591 1.1499,0 0,1.18652 -2.8418,0 0,-0.86059 1.18653,-3.88184 -1.04737,0 0,-1.18652 L 266.46144,462.09366 Z"
         style=""
         id="path1009" />
      <path
         d="m 268.62575,465.08194 0,1.02173 -1.94458,0 0,-1.02173 L 268.62575,465.08194 Z"
         style=""
         id="path1011" />
      <path
         d="m 272.60646,464.27628 -1.54175,0 0,-0.53833 q 0,-0.50904 -0.0439,-0.63721 -0.044,-0.12818 -0.20874,-0.12818 -0.14283,0 -0.19409,0.10987 -0.0513,0.10986 -0.0513,0.56396 l 0,2.84546 q 0,0.39917 0.0513,0.52735 0.0513,0.12451 0.20507,0.12451 0.16846,0 0.22705,-0.14282 0.0623,-0.14283 0.0623,-0.55665 l 0,-0.70312 -0.31128,0 0,-0.90088 1.80542,0 0,3.18237 -0.97046,0 -0.14282,-0.4248 q -0.15747,0.27466 -0.39917,0.41382 -0.23804,0.1355 -0.56397,0.1355 -0.38818,0 -0.72876,-0.18677 -0.33691,-0.19043 -0.51269,-0.46875 -0.17578,-0.27832 -0.21973,-0.58228 -0.0439,-0.30761 -0.0439,-0.91919 l 0,-1.76147 q 0,-0.84961 0.0915,-1.23413 0.0915,-0.38452 0.52368,-0.70313 0.43579,-0.32226 1.12427,-0.32226 0.67749,0 1.12427,0.27832 0.44677,0.27832 0.58227,0.66284 0.1355,0.38086 0.1355,1.10962 L 272.60646,464.27628 Z"
         style=""
         id="path1013" />
      <path
         d="m 275.77785,462.09366 0,1.18652 -1.14991,3.55591 1.14991,0 0,1.18652 -2.8418,0 0,-0.86059 1.18652,-3.88184 -1.04736,0 0,-1.18652 L 275.77785,462.09366 Z"
         style=""
         id="path1015" />
    </g>
  </g>
</svg>
