<?xml version="1.0" encoding="UTF-8" standalone="no"?>
<!-- Created with Inkscape (http://www.inkscape.org/) -->

<svg
   xmlns:dc="http://purl.org/dc/elements/1.1/"
   xmlns:cc="http://creativecommons.org/ns#"
   xmlns:rdf="http://www.w3.org/1999/02/22-rdf-syntax-ns#"
   xmlns:svg="http://www.w3.org/2000/svg"
   xmlns="http://www.w3.org/2000/svg"
   xmlns:xlink="http://www.w3.org/1999/xlink"
   xmlns:sodipodi="http://sodipodi.sourceforge.net/DTD/sodipodi-0.dtd"
   xmlns:inkscape="http://www.inkscape.org/namespaces/inkscape"
   width="48"
   height="48"
   id="svg6388"
   version="1.1"
   inkscape:version="0.48+devel r12012"
   sodipodi:docname="text-x-changelog.svg">
  <defs
     id="defs6390">
    <linearGradient
       id="linearGradient918">
      <stop
         id="stop920"
         offset="0"
         style="stop-color:#f6f6f6;stop-opacity:1" />
      <stop
         id="stop922"
         offset="1"
         style="stop-color:#e2e2e2;stop-opacity:1" />
    </linearGradient>
    <linearGradient
       id="linearGradient1069">
      <stop
         style="stop-color:#ffffff;stop-opacity:1"
         offset="0"
         id="stop1071" />
      <stop
         style="stop-color:#e6e6e6;stop-opacity:1"
         offset="1"
         id="stop1073" />
    </linearGradient>
    <linearGradient
       y2="468.35892"
       x2="314.34872"
       y1="425.61682"
       x1="314.34872"
       gradientTransform="translate(133.65325,404.5828)"
       gradientUnits="userSpaceOnUse"
       id="linearGradient836"
       xlink:href="#linearGradient1069"
       inkscape:collect="always" />
    <linearGradient
       inkscape:collect="always"
       xlink:href="#linearGradient918"
       id="linearGradient912"
       x1="462.37933"
       y1="837.0611"
       x2="463.75925"
       y2="835.67212"
       gradientUnits="userSpaceOnUse" />
    <linearGradient
       id="linearGradient6707">
      <stop
         id="stop6709"
         offset="0"
         style="stop-color:#000000;stop-opacity:1;" />
      <stop
         id="stop6711"
         offset="1"
         style="stop-color:#ffffff;stop-opacity:1;" />
    </linearGradient>
    <linearGradient
       y2="442.7843"
       x2="262.01361"
       y1="471.95245"
       x1="262.01361"
       gradientTransform="translate(187.45668,404.58525)"
       gradientUnits="userSpaceOnUse"
       id="linearGradient854"
       xlink:href="#linearGradient6707"
       inkscape:collect="always" />
  </defs>
  <sodipodi:namedview
     id="base"
     pagecolor="#ffffff"
     bordercolor="#666666"
     borderopacity="1.0"
     inkscape:pageopacity="0.0"
     inkscape:pageshadow="2"
     inkscape:zoom="5.6"
     inkscape:cx="-9.7781649"
     inkscape:cy="45.535555"
     inkscape:document-units="px"
     inkscape:current-layer="layer1"
     showgrid="false"
     fit-margin-top="0"
     fit-margin-left="0"
     fit-margin-right="0"
     fit-margin-bottom="0"
     inkscape:window-width="1366"
     inkscape:window-height="718"
     inkscape:window-x="0"
     inkscape:window-y="28"
     inkscape:window-maximized="1" />
  <metadata
     id="metadata6393">
    <rdf:RDF>
      <cc:Work
         rdf:about="">
        <dc:format>image/svg+xml</dc:format>
        <dc:type
           rdf:resource="http://purl.org/dc/dcmitype/StillImage" />
        <dc:title />
      </cc:Work>
    </rdf:RDF>
  </metadata>
  <g
     inkscape:label="Capa 1"
     inkscape:groupmode="layer"
     id="layer1"
     transform="translate(-424.57144,-828.36218)">
    <path
       inkscape:connector-curvature="0"
       style="opacity:0.5;fill:#000000;fill-opacity:1;stroke:none"
       d="m 428.38394,830.26843 c -0.89692,0 -1.625,0.82132 -1.625,1.8125 l 0,40.5625 c 0,0.99119 0.72808,1.8125 1.625,1.8125 l 40.375,0 c 0.89693,0 1.625,-0.8213 1.625,-1.8125 l 0,-32 -10.40625,-10.375 L 428.38394,830.26843 Z"
       id="rect3922" />
    <path
       inkscape:connector-curvature="0"
       style="fill:url(#linearGradient836);fill-opacity:1;stroke:none"
       d="m 428.75894,830.83093 c -0.87415,0 -1.5625,0.78397 -1.5625,1.75 l 0,39.5625 c 0,0.96604 0.68834,1.75 1.5625,1.75 l 39.625,0 c 0.87416,0 1.5625,-0.78396 1.5625,-1.75 l 0,-31.125 -10.21875,-10.1875 L 428.75894,830.83093 Z"
       id="path869" />
    <path
       inkscape:connector-curvature="0"
       style="fill:url(#linearGradient854);fill-opacity:1;stroke:none"
       d="m 427.19644,865.39343 0,6.75 c 0,0.96604 0.68835,1.75 1.5625,1.75 l 39.625,0 c 0.87417,0 1.5625,-0.78396 1.5625,-1.75 l 0,-6.75 L 427.19644,865.39343 Z"
       id="path874" />
    <rect
       style="fill:none;stroke:none"
       id="rect3345"
       width="48"
       height="48"
       x="479.63141"
       y="836.80109" />
    <path
       style="fill:#4d4d4d;fill-opacity:1;stroke:none"
       d="m 437.69665,849.45539 4.00219,4.0022 4.24275,4.24274 4.25369,-4.25369 9.25095,-9.25095 -4.24274,-4.24273 -9.25097,9.25094 -4.00217,-4.0022 L 437.69665,849.45539 Z"
       id="rect1172"
       inkscape:connector-curvature="0" />
    <g
       id="g851">
      <path
         id="path914"
         d="m 470.05693,841.16048 -10.53539,-10.50317 0,8.69895 c 0,0.99596 0.70967,1.80422 1.61092,1.80422 L 470.05693,841.16048 Z"
         style="opacity:0.5;fill:#000000;fill-opacity:1;stroke:none"
         inkscape:connector-curvature="0" />
      <path
         inkscape:connector-curvature="0"
         style="fill:url(#linearGradient912);fill-opacity:1;stroke:none"
         d="m 469.94644,841.01843 -10.21875,-10.1875 0,8.4375 c 0,0.96603 0.68834,1.75 1.5625,1.75 L 469.94644,841.01843 Z"
         id="path902" />
    </g>
    <g
       style="font-size:7.5px;font-style:normal;font-variant:normal;font-weight:bold;font-stretch:normal;line-height:125%;letter-spacing:0px;word-spacing:0px;fill:#ffffff;fill-opacity:1;stroke:none;font-family:Impact;-inkscape-font-specification:Impact Bold"
       id="text1601">
      <path
         d="m 438.77713,869.2644 -1.54175,0 0,-1.03271 q 0,-0.45044 -0.0513,-0.5603 -0.0476,-0.11353 -0.21606,-0.11353 -0.19043,0 -0.2417,0.1355 -0.0513,0.1355 -0.0513,0.58594 l 0,2.7539 q 0,0.43213 0.0513,0.56397 0.0513,0.13183 0.23071,0.13183 0.17212,0 0.22339,-0.13183 0.0549,-0.13184 0.0549,-0.6189 l 0,-0.74341 1.54175,0 0,0.23072 q 0,0.91919 -0.13184,1.30371 -0.12817,0.38452 -0.57495,0.67383 -0.44311,0.2893 -1.09497,0.2893 -0.67749,0 -1.11694,-0.24536 -0.43945,-0.24536 -0.58228,-0.67749 -0.14282,-0.43579 -0.14282,-1.30737 l 0,-1.73218 q 0,-0.64087 0.0439,-0.95947 0.0439,-0.32227 0.26001,-0.6189 0.21972,-0.29663 0.60424,-0.46509 0.38819,-0.17212 0.8899,-0.17212 0.68115,0 1.12426,0.26368 0.44312,0.26367 0.58228,0.65917 0.13916,0.39185 0.13916,1.22315 L 438.77713,869.2644 Z"
         style=""
         id="path1606" />
      <path
         d="m 442.88235,866.67896 0,5.92895 -1.54174,0 0,-2.49023 -0.46143,0 0,2.49023 -1.54175,0 0,-5.92895 1.54175,0 0,2.12036 0.46143,0 0,-2.12036 L 442.88235,866.67896 Z"
         style=""
         id="path1608" />
      <path
         d="m 446.15994,866.67896 0.88257,5.92895 -1.57837,0 -0.0769,-1.06567 -0.55298,0 -0.0915,1.06567 -1.59668,0 0.78369,-5.92895 L 446.15994,866.67896 z m -0.81665,3.81225 q -0.11719,-1.00708 -0.23437,-2.48657 -0.23438,1.69922 -0.29297,2.48657 L 445.34329,870.49121 Z"
         style=""
         id="path1610" />
      <path
         d="m 450.74857,866.67896 0,5.92895 -1.35132,0 -0.802,-2.69531 0,2.69531 -1.28907,0 0,-5.92895 1.28907,0 0.86425,2.66967 0,-2.66967 L 450.74857,866.67896 Z"
         style=""
         id="path1612" />
      <path
         d="m 454.9014,868.86157 -1.54175,0 0,-0.53833 q 0,-0.50903 -0.0439,-0.6372 -0.0439,-0.12818 -0.20874,-0.12818 -0.14282,0 -0.19409,0.10986 -0.0513,0.10987 -0.0513,0.56397 l 0,2.84546 q 0,0.39917 0.0513,0.52734 0.0513,0.12451 0.20508,0.12451 0.16846,0 0.22705,-0.14282 0.0623,-0.14282 0.0623,-0.55664 l 0,-0.70312 -0.31128,0 0,-0.90088 1.80542,0 0,3.18237 -0.97046,0 -0.14282,-0.4248 q -0.15747,0.27465 -0.39917,0.41381 -0.23804,0.1355 -0.56397,0.1355 -0.38818,0 -0.72876,-0.18677 -0.33691,-0.19043 -0.51269,-0.46875 -0.17578,-0.27832 -0.21973,-0.58227 -0.044,-0.30762 -0.044,-0.91919 l 0,-1.76148 q 0,-0.8496 0.0916,-1.23413 0.0915,-0.38452 0.52368,-0.70312 0.43579,-0.32227 1.12427,-0.32227 0.67749,0 1.12426,0.27832 0.44678,0.27832 0.58228,0.66285 0.1355,0.38085 0.1355,1.10961 L 454.9014,868.86157 Z"
         style=""
         id="path1614" />
      <path
         d="m 455.49466,866.67896 2.5708,0 0,1.18652 -1.02905,0 0,1.12427 0.96313,0 0,1.12793 -0.96313,0 0,1.30371 1.13159,0 0,1.18652 -2.67334,0 L 455.49466,866.67896 Z"
         style=""
         id="path1616" />
      <path
         d="m 461.88138,868.47339 -1.43189,0 0,-0.43945 q 0,-0.30762 -0.0549,-0.39185 -0.0549,-0.0842 -0.1831,-0.0842 -0.13916,0 -0.21241,0.11353 -0.0696,0.11352 -0.0696,0.34423 0,0.29664 0.0806,0.44678 0.0769,0.15015 0.43579,0.36255 1.02905,0.61157 1.29639,1.00342 0.26733,0.39184 0.26733,1.26343 0,0.63354 -0.15014,0.93383 -0.14649,0.3003 -0.57129,0.50538 -0.42481,0.20141 -0.98877,0.20141 -0.6189,0 -1.05835,-0.23437 -0.43579,-0.23438 -0.57129,-0.59693 -0.1355,-0.36255 -0.1355,-1.02905 l 0,-0.38818 1.43188,0 0,0.72143 q 0,0.33325 0.0586,0.42847 0.0623,0.0952 0.21606,0.0952 0.15381,0 0.22705,-0.12085 0.0769,-0.12085 0.0769,-0.35888 0,-0.52368 -0.14282,-0.68482 -0.14649,-0.16113 -0.72144,-0.53833 -0.57495,-0.38086 -0.76172,-0.55298 -0.18677,-0.17211 -0.31128,-0.47607 -0.12085,-0.30395 -0.12085,-0.77637 0,-0.68115 0.17212,-0.99609 0.17578,-0.31494 0.56397,-0.49072 0.38818,-0.17945 0.9375,-0.17945 0.60058,0 1.02173,0.1941 0.4248,0.19409 0.5603,0.49072 0.13916,0.29297 0.13916,0.99975 L 461.88138,868.47339 Z"
         style=""
         id="path1618" />
    </g>
  </g>
</svg>
