<?xml version="1.0" encoding="UTF-8" standalone="no"?>
<!-- Created with Inkscape (http://www.inkscape.org/) -->

<svg
   xmlns:dc="http://purl.org/dc/elements/1.1/"
   xmlns:cc="http://creativecommons.org/ns#"
   xmlns:rdf="http://www.w3.org/1999/02/22-rdf-syntax-ns#"
   xmlns:svg="http://www.w3.org/2000/svg"
   xmlns="http://www.w3.org/2000/svg"
   xmlns:xlink="http://www.w3.org/1999/xlink"
   xmlns:sodipodi="http://sodipodi.sourceforge.net/DTD/sodipodi-0.dtd"
   xmlns:inkscape="http://www.inkscape.org/namespaces/inkscape"
   width="48"
   height="48"
   id="svg2"
   version="1.1"
   inkscape:version="0.48+devel r12012"
   sodipodi:docname="video-x-generic.svg">
  <defs
     id="defs4">
    <linearGradient
       id="linearGradient1069">
      <stop
         style="stop-color:#ffffff;stop-opacity:1"
         offset="0"
         id="stop1071" />
      <stop
         style="stop-color:#e6e6e6;stop-opacity:1"
         offset="1"
         id="stop1073" />
    </linearGradient>
    <linearGradient
       y2="468.35892"
       x2="314.34872"
       y1="425.61682"
       x1="314.34872"
       gradientTransform="translate(-290.91819,580.58282)"
       gradientUnits="userSpaceOnUse"
       id="linearGradient1679"
       xlink:href="#linearGradient1069"
       inkscape:collect="always" />
    <linearGradient
       id="linearGradient6707">
      <stop
         id="stop6709"
         offset="0"
         style="stop-color:#000000;stop-opacity:1;" />
      <stop
         id="stop6711"
         offset="1"
         style="stop-color:#ffffff;stop-opacity:1;" />
    </linearGradient>
    <linearGradient
       y2="442.7843"
       x2="262.01361"
       y1="471.95245"
       x1="262.01361"
       gradientTransform="translate(-237.11475,581.13596)"
       gradientUnits="userSpaceOnUse"
       id="linearGradient1696"
       xlink:href="#linearGradient6707"
       inkscape:collect="always" />
  </defs>
  <sodipodi:namedview
     id="base"
     pagecolor="#ffffff"
     bordercolor="#666666"
     borderopacity="1.0"
     inkscape:pageopacity="0.0"
     inkscape:pageshadow="2"
     inkscape:zoom="22.627418"
     inkscape:cx="36.808406"
     inkscape:cy="9.6850078"
     inkscape:document-units="px"
     inkscape:current-layer="layer1"
     showgrid="false"
     inkscape:window-width="1366"
     inkscape:window-height="718"
     inkscape:window-x="0"
     inkscape:window-y="28"
     inkscape:window-maximized="1"
     showguides="true"
     inkscape:guide-bbox="true">
    <inkscape:grid
       type="xygrid"
       id="grid3031" />
  </sodipodi:namedview>
  <metadata
     id="metadata7">
    <rdf:RDF>
      <cc:Work
         rdf:about="">
        <dc:format>image/svg+xml</dc:format>
        <dc:type
           rdf:resource="http://purl.org/dc/dcmitype/StillImage" />
        <dc:title />
      </cc:Work>
    </rdf:RDF>
  </metadata>
  <g
     inkscape:label="Capa 1"
     inkscape:groupmode="layer"
     id="layer1"
     transform="translate(0,-1004.3622)">
    <path
       style="opacity:0.5;fill:#000000;fill-opacity:1;stroke:none"
       d="m 3.79854,1006.2802 40.4029,0 c 0.89693,0 1.619,0.798 1.619,1.7891 l 0,40.5858 c 0,0.9912 -0.72207,1.7891 -1.619,1.7891 l -40.4029,0 c -0.89692,0 -1.61899,-0.798 -1.61899,-1.7891 l 0,-40.5858 C 2.17955,1007.0782 2.90162,1006.2802 3.79854,1006.2802 Z"
       id="rect3922"
       inkscape:connector-curvature="0" />
    <path
       inkscape:connector-curvature="0"
       id="path869"
       d="m 4.20276,1006.8407 39.59446,0 c 0.87416,0 1.57791,0.7777 1.57791,1.7437 l 0,39.5556 c 0,0.966 -0.70375,1.7437 -1.57791,1.7437 l -39.59446,0 c -0.87416,0 -1.5779,-0.7777 -1.5779,-1.7437 l 0,-39.5556 C 2.62486,1007.6184 3.32861,1006.8407 4.20276,1006.8407 Z"
       style="fill:url(#linearGradient1679);fill-opacity:1;stroke:none" />
    <rect
       style="opacity:0.29064038;fill:none;stroke:none"
       id="rect3873"
       width="48"
       height="48"
       x="0"
       y="1004.7387"
       ry="3.3244677" />
    <g
       id="g3032"
       transform="translate(0.0883884,-2.3676)">
      <path
         inkscape:connector-curvature="0"
         id="path3803-3"
         d="m 17.518123,1015.0151 -0.34456,0.6125 -2.603337,0 c -0.368845,0 -0.400407,-0.3319 -0.535981,-0.5743 -0.237528,0.021 -0.395201,0.028 -0.689118,0.1532 -0.276889,0.1449 -0.394876,0.5593 -0.497697,0.9571 l 0,21.4392 c 0.04214,0.2368 -0.06598,0.5031 0.267991,0.6891 l 0.88054,0.3829 0.382844,-0.7274 2.871327,0 0.306275,0.6125 12.863547,0 0.306275,-0.5359 2.603337,0 0.421128,0.4594 0.803972,0 c 0.256743,-0.1385 0.412715,-0.3927 0.421128,-0.7657 l 0,-21.7073 c -0.03577,-0.4047 -0.169837,-0.7184 -0.535981,-0.8805 -0.216047,-0.076 -0.416403,-0.1103 -0.574266,0 -0.154611,0.3347 -0.297414,0.3041 -0.535981,0.536 l -2.526768,0 c -0.43584,-0.1623 -0.448222,-0.2871 -0.61255,-0.6508 l -1.110247,0 c 0.09827,0 0.153138,0.093 0.153138,0.1914 l 0,3.8667 c 0,0.098 -0.05486,0.1531 -0.153138,0.1531 l -10.5282,0 c -0.09827,0 -0.191422,-0.055 -0.191422,-0.1531 l 0,-3.8667 c 0,-0.098 0.09315,-0.1914 0.191422,-0.1914 l -1.033678,0 z m -2.909612,1.8376 2.297062,0 c 0.268341,0 0.497697,0.2294 0.497697,0.4977 l 0,0.6891 c 0,0.2684 -0.229356,0.4977 -0.497697,0.4977 l -2.297062,0 c -0.26834,0 -0.497697,-0.2293 -0.497697,-0.4977 l 0,-0.6891 c 0,-0.2683 0.229357,-0.4977 0.497697,-0.4977 z m 16.347424,0 2.297062,0 c 0.26834,0 0.459413,0.2294 0.459413,0.4977 l 0,0.6891 c 0,0.2684 -0.191073,0.4977 -0.459413,0.4977 l -2.297062,0 c -0.268339,0 -0.497696,-0.2293 -0.497696,-0.4977 l 0,-0.6891 c 0,-0.2683 0.229357,-0.4977 0.497696,-0.4977 z m -16.347424,2.9862 2.297062,0 c 0.268341,0 0.497697,0.2294 0.497697,0.4977 l 0,0.6891 c 0,0.2683 -0.229356,0.4977 -0.497697,0.4977 l -2.297062,0 c -0.26834,0 -0.497697,-0.2294 -0.497697,-0.4977 l 0,-0.6891 c 0,-0.2683 0.229357,-0.4977 0.497697,-0.4977 z m 16.347424,0 2.297062,0 c 0.26834,0 0.459413,0.2294 0.459413,0.4977 l 0,0.6891 c 0,0.2683 -0.191073,0.4977 -0.459413,0.4977 l -2.297062,0 c -0.268339,0 -0.497696,-0.2294 -0.497696,-0.4977 l 0,-0.6891 c 0,-0.2683 0.229357,-0.4977 0.497696,-0.4977 z m -12.059575,0.5742 9.839082,0 c 0.28599,0 0.497697,0.25 0.497697,0.536 l 0,11.2556 c 0,0.286 -0.211707,0.4977 -0.497697,0.4977 l -9.839082,0 c -0.28599,0 -0.535981,-0.2117 -0.535981,-0.4977 l 0,-11.2556 c 0,-0.286 0.249991,-0.536 0.535981,-0.536 z m -4.287849,2.3737 2.297062,0 c 0.268341,0 0.497697,0.2294 0.497697,0.4977 l 0,0.6891 c 0,0.2683 -0.229356,0.4977 -0.497697,0.4977 l -2.297062,0 c -0.26834,0 -0.497697,-0.2294 -0.497697,-0.4977 l 0,-0.6891 c 0,-0.2683 0.229357,-0.4977 0.497697,-0.4977 z m 16.347424,0 2.297062,0 c 0.26834,0 0.459413,0.2294 0.459413,0.4977 l 0,0.6891 c 0,0.2683 -0.191073,0.4977 -0.459413,0.4977 l -2.297062,0 c -0.268339,0 -0.497696,-0.2294 -0.497696,-0.4977 l 0,-0.6891 c 0,-0.2683 0.229357,-0.4977 0.497696,-0.4977 z m -16.347424,2.9862 2.297062,0 c 0.268341,0 0.497697,0.2294 0.497697,0.4977 l 0,0.6891 c 0,0.2684 -0.229356,0.4977 -0.497697,0.4977 l -2.297062,0 c -0.26834,0 -0.497697,-0.2293 -0.497697,-0.4977 l 0,-0.6891 c 0,-0.2683 0.229357,-0.4977 0.497697,-0.4977 z m 16.347424,0 2.297062,0 c 0.26834,0 0.459413,0.2294 0.459413,0.4977 l 0,0.6891 c 0,0.2684 -0.191073,0.4977 -0.459413,0.4977 l -2.297062,0 c -0.268339,0 -0.497696,-0.2293 -0.497696,-0.4977 l 0,-0.6891 c 0,-0.2683 0.229357,-0.4977 0.497696,-0.4977 z m -16.347424,2.9479 2.297062,0 c 0.268341,0 0.497697,0.2292 0.497697,0.4976 l 0,0.6892 c 0,0.2683 -0.229356,0.4977 -0.497697,0.4977 l -2.297062,0 c -0.26834,0 -0.497697,-0.2294 -0.497697,-0.4977 l 0,-0.6892 c 0,-0.2684 0.229357,-0.4976 0.497697,-0.4976 z m 16.347424,0 2.297062,0 c 0.26834,0 0.459413,0.2292 0.459413,0.4976 l 0,0.6892 c 0,0.2683 -0.191073,0.4977 -0.459413,0.4977 l -2.297062,0 c -0.268339,0 -0.497696,-0.2294 -0.497696,-0.4977 l 0,-0.6892 c 0,-0.2684 0.229357,-0.4976 0.497696,-0.4976 z m -16.347424,2.9861 2.297062,0 c 0.268341,0 0.497697,0.1911 0.497697,0.4594 l 0,0.7274 c 0,0.2683 -0.229356,0.4977 -0.497697,0.4977 l -2.297062,0 c -0.26834,0 -0.497697,-0.2294 -0.497697,-0.4977 l 0,-0.7274 c 0,-0.2683 0.229357,-0.4594 0.497697,-0.4594 z m 16.347424,0 2.297062,0 c 0.26834,0 0.459413,0.1911 0.459413,0.4594 l 0,0.7274 c 0,0.2683 -0.191073,0.4977 -0.459413,0.4977 l -2.297062,0 c -0.268339,0 -0.497696,-0.2294 -0.497696,-0.4977 l 0,-0.7274 c 0,-0.2683 0.229357,-0.4594 0.497696,-0.4594 z m -12.404134,2.4885 10.5282,0 c 0.09827,0 0.153138,0.093 0.153138,0.1914 l 0,3.8668 c 0,0.098 -0.05486,0.1531 -0.153138,0.1531 l -10.5282,0 c -0.09827,0 -0.191422,-0.055 -0.191422,-0.1531 l 0,-3.8668 c 0,-0.098 0.09315,-0.1914 0.191422,-0.1914 z m -3.94329,0.4594 2.297062,0 c 0.268341,0 0.497697,0.2294 0.497697,0.4977 l 0,0.6891 c 0,0.2685 -0.229356,0.4977 -0.497697,0.4977 l -2.297062,0 c -0.26834,0 -0.497697,-0.2292 -0.497697,-0.4977 l 0,-0.6891 c 0,-0.2683 0.229357,-0.4977 0.497697,-0.4977 z m 16.347424,0 2.297062,0 c 0.26834,0 0.459413,0.2294 0.459413,0.4977 l 0,0.6891 c 0,0.2685 -0.191073,0.4977 -0.459413,0.4977 l -2.297062,0 c -0.268339,0 -0.497696,-0.2292 -0.497696,-0.4977 l 0,-0.6891 c 0,-0.2683 0.229357,-0.4977 0.497696,-0.4977 z"
         style="fill:#4d4d4d;stroke:none" />
      <path
         inkscape:transform-center-y="3.3729638e-05"
         inkscape:transform-center-x="-2.1622796"
         transform="matrix(0.15156836,0.26252407,-0.26252407,0.15156836,25.248112,1019.4995)"
         d="M 23.63759,32.570201 11.993705,25.847601 0.34981918,19.124999 11.993705,12.4024 23.637591,5.6797994 23.63759,19.125 Z"
         inkscape:randomized="0"
         inkscape:rounded="0"
         inkscape:flatsided="false"
         sodipodi:arg2="2.0943951"
         sodipodi:arg1="1.0471976"
         sodipodi:r2="7.7625904"
         sodipodi:r1="15.525181"
         sodipodi:cy="19.125"
         sodipodi:cx="15.875"
         sodipodi:sides="3"
         id="path3817-8"
         style="fill:#4d4d4d;fill-opacity:1;stroke:none"
         sodipodi:type="star" />
    </g>
    <g
       id="g870"
       transform="translate(0,-0.5605)">
      <path
         id="path874"
         d="m 2.624995,1041.9442 0,6.75 c 0,0.966 0.68835,1.75 1.5625,1.75 l 39.625,0 c 0.87417,0 1.5625,-0.784 1.5625,-1.75 l 0,-6.75 L 2.624995,1041.9442 Z"
         style="fill:url(#linearGradient1696);fill-opacity:1;stroke:none"
         inkscape:connector-curvature="0" />
      <g
         id="text4011"
         style="font-size:7.5px;font-style:normal;font-variant:normal;font-weight:bold;font-stretch:normal;line-height:125%;letter-spacing:0px;word-spacing:0px;fill:#ffffff;fill-opacity:1;stroke:none;font-family:Impact;-inkscape-font-specification:Impact Bold"
         transform="translate(-1.1900125,1005.4013)">
        <path
           inkscape:connector-curvature="0"
           id="path4054"
           d="m 20.586735,37.828403 -0.783692,5.928956 -2.340088,0 -0.889892,-5.928956 1.625976,0 q 0.281983,2.449952 0.402832,4.141846 0.12085,-1.710205 0.252686,-3.039551 L 18.960758,37.828403 20.586735,37.828403 Z" />
        <path
           inkscape:connector-curvature="0"
           id="path4056"
           d="m 22.392155,37.828403 0,5.928956 -1.541748,0 0,-5.928956 L 22.392155,37.828403 Z" />
        <path
           inkscape:connector-curvature="0"
           id="path4058"
           d="m 23.018375,37.828403 1.153565,0 q 1.116943,0 1.508789,0.10254 0.395508,0.102539 0.600586,0.336914 0.205078,0.234375 0.256348,0.523681 0.05127,0.285645 0.05127,1.12793 l 0,2.076416 q 0,0.79834 -0.0769,1.069336 -0.07324,0.267334 -0.26001,0.421142 -0.186768,0.150147 -0.461426,0.212403 -0.274658,0.05859 -0.827637,0.05859 l -1.94458,0 L 23.018375,37.828403 z m 1.541748,1.014405 0,3.900146 q 0.333252,0 0.410157,-0.131836 0.0769,-0.135498 0.0769,-0.728759 l 0,-2.303467 q 0,-0.402832 -0.02564,-0.516358 Q 24.9959,38.949009 24.904353,38.897739 24.812809,38.842808 24.560123,38.842808 Z" />
        <path
           inkscape:connector-curvature="0"
           id="path4060"
           d="m 27.163883,37.828403 2.570801,0 0,1.186524 -1.029053,0 0,1.124267 0.963135,0 0,1.12793 -0.963135,0 0,1.303711 1.131592,0 0,1.186524 -2.67334,0 L 27.163883,37.828403 Z" />
        <path
           inkscape:connector-curvature="0"
           id="path4062"
           d="m 33.80695,41.300083 q 0,0.893555 -0.04395,1.26709 -0.04028,0.369873 -0.263672,0.67749 -0.219726,0.307617 -0.596923,0.472412 -0.377198,0.164795 -0.878907,0.164795 -0.476074,0 -0.856933,-0.153808 -0.377198,-0.157471 -0.60791,-0.46875 -0.230713,-0.31128 -0.274659,-0.677491 -0.04394,-0.36621 -0.04394,-1.281738 l 0,-1.014404 q 0,-0.893555 0.04028,-1.263428 0.04395,-0.373535 0.263672,-0.681152 0.223389,-0.307617 0.600586,-0.472412 0.377197,-0.164795 0.878906,-0.164795 0.476075,0 0.853272,0.15747 0.380859,0.153809 0.611572,0.465088 0.230713,0.31128 0.274658,0.677491 0.04395,0.366211 0.04395,1.281738 L 33.80695,41.300083 z m -1.541748,-1.948242 q 0,-0.413818 -0.04761,-0.527344 -0.04395,-0.117187 -0.186767,-0.117187 -0.12085,0 -0.186768,0.09522 -0.06226,0.09155 -0.06226,0.549316 l 0,2.768555 q 0,0.516357 0.04028,0.637207 0.04395,0.120849 0.197754,0.120849 0.157471,0 0.201416,-0.13916 0.04395,-0.13916 0.04395,-0.662842 L 32.265202,39.351841 Z" />
      </g>
    </g>
  </g>
</svg>
