<?xml version="1.0" encoding="UTF-8" standalone="no"?>
<!-- Created with Inkscape (http://www.inkscape.org/) -->

<svg
   xmlns:dc="http://purl.org/dc/elements/1.1/"
   xmlns:cc="http://creativecommons.org/ns#"
   xmlns:rdf="http://www.w3.org/1999/02/22-rdf-syntax-ns#"
   xmlns:svg="http://www.w3.org/2000/svg"
   xmlns="http://www.w3.org/2000/svg"
   xmlns:xlink="http://www.w3.org/1999/xlink"
   xmlns:sodipodi="http://sodipodi.sourceforge.net/DTD/sodipodi-0.dtd"
   xmlns:inkscape="http://www.inkscape.org/namespaces/inkscape"
   width="48"
   height="48"
   id="svg2"
   version="1.1"
   inkscape:version="0.48+devel r12103"
   sodipodi:docname="accessories-character-map.svg">
  <defs
     id="defs4">
    <linearGradient
       inkscape:collect="always"
       id="linearGradient818">
      <stop
         style="stop-color:#ffffff;stop-opacity:1;"
         offset="0"
         id="stop820" />
      <stop
         style="stop-color:#ffffff;stop-opacity:0;"
         offset="1"
         id="stop822" />
    </linearGradient>
    <radialGradient
       inkscape:collect="always"
       xlink:href="#linearGradient818"
       id="radialGradient824"
       cx="24"
       cy="1016.0184"
       fx="24"
       fy="1016.0184"
       r="17.875"
       gradientTransform="matrix(1,0,0,0.01223776,0,1003.5846)"
       gradientUnits="userSpaceOnUse" />
    <radialGradient
       inkscape:collect="always"
       xlink:href="#linearGradient818"
       id="radialGradient828"
       gradientUnits="userSpaceOnUse"
       gradientTransform="matrix(1,0,0,0.01223776,-1052.3622,20.51441)"
       cx="24"
       cy="1016.0184"
       fx="24"
       fy="1016.0184"
       r="17.875" />
    <radialGradient
       inkscape:collect="always"
       xlink:href="#linearGradient818"
       id="radialGradient832"
       gradientUnits="userSpaceOnUse"
       gradientTransform="matrix(1,0,0,0.01223776,-1052.3622,2.6179248)"
       cx="24"
       cy="1016.0184"
       fx="24"
       fy="1016.0184"
       r="17.875" />
    <radialGradient
       inkscape:collect="always"
       xlink:href="#linearGradient818"
       id="radialGradient836"
       gradientUnits="userSpaceOnUse"
       gradientTransform="matrix(1,0,0,0.01223776,-1.7581726e-5,1017.0824)"
       cx="24"
       cy="1016.0184"
       fx="24"
       fy="1016.0184"
       r="17.875" />
    <radialGradient
       inkscape:collect="always"
       xlink:href="#linearGradient818"
       id="radialGradient840"
       gradientUnits="userSpaceOnUse"
       gradientTransform="matrix(1,0,0,0.01223776,-1.7581726e-5,1028.3953)"
       cx="24"
       cy="1016.0184"
       fx="24"
       fy="1016.0184"
       r="17.875" />
    <radialGradient
       inkscape:collect="always"
       xlink:href="#linearGradient818"
       id="radialGradient844"
       gradientUnits="userSpaceOnUse"
       gradientTransform="matrix(1,0,0,0.01223776,-1054.6644,13.510742)"
       cx="24"
       cy="1016.0184"
       fx="24"
       fy="1016.0184"
       r="17.875" />
    <radialGradient
       inkscape:collect="always"
       xlink:href="#linearGradient818"
       id="radialGradient848"
       gradientUnits="userSpaceOnUse"
       gradientTransform="matrix(1,0,0,0.01223776,-1054.6644,17.956048)"
       cx="24"
       cy="1016.0184"
       fx="24"
       fy="1016.0184"
       r="17.875" />
    <radialGradient
       inkscape:collect="always"
       xlink:href="#linearGradient818"
       id="radialGradient854"
       gradientUnits="userSpaceOnUse"
       gradientTransform="matrix(1,0,0,0.01223776,1.2224182e-6,1009.7454)"
       cx="24"
       cy="1016.0184"
       fx="24"
       fy="1016.0184"
       r="17.875" />
    <radialGradient
       inkscape:collect="always"
       xlink:href="#linearGradient818"
       id="radialGradient856"
       gradientUnits="userSpaceOnUse"
       gradientTransform="matrix(1,0,0,0.01223776,2.2981326,1015.2255)"
       cx="24"
       cy="1016.0184"
       fx="24"
       fy="1016.0184"
       r="17.875" />
    <linearGradient
       id="linearGradient887">
      <stop
         style="stop-color:#00ccff;stop-opacity:1"
         offset="0"
         id="stop889" />
      <stop
         style="stop-color:#00a9d3;stop-opacity:1"
         offset="1"
         id="stop891" />
    </linearGradient>
    <linearGradient
       inkscape:collect="always"
       xlink:href="#linearGradient887"
       id="linearGradient977"
       x1="-20"
       y1="-985.61218"
       x2="-20"
       y2="-1033.3622"
       gradientUnits="userSpaceOnUse"
       gradientTransform="translate(44.5,-19.250009)" />
  </defs>
  <sodipodi:namedview
     id="base"
     pagecolor="#ffffff"
     bordercolor="#666666"
     borderopacity="1.0"
     inkscape:pageopacity="0.0"
     inkscape:pageshadow="2"
     inkscape:zoom="3.9999998"
     inkscape:cx="20.696559"
     inkscape:cy="20.255318"
     inkscape:document-units="px"
     inkscape:current-layer="layer1"
     showgrid="false"
     inkscape:window-width="1366"
     inkscape:window-height="718"
     inkscape:window-x="0"
     inkscape:window-y="28"
     inkscape:window-maximized="1" />
  <metadata
     id="metadata7">
    <rdf:RDF>
      <cc:Work
         rdf:about="">
        <dc:format>image/svg+xml</dc:format>
        <dc:type
           rdf:resource="http://purl.org/dc/dcmitype/StillImage" />
        <dc:title />
      </cc:Work>
    </rdf:RDF>
  </metadata>
  <g
     inkscape:label="Capa 1"
     inkscape:groupmode="layer"
     id="layer1"
     transform="translate(0,-1004.3622)">
    <rect
       style="fill:url(#linearGradient977);fill-opacity:1;stroke:none"
       id="rect2991-1"
       width="48"
       height="48"
       x="5e-07"
       y="-1052.3622"
       ry="1.9445436"
       transform="scale(1,-1)" />
    <path
       inkscape:connector-curvature="0"
       style="fill:#000000;fill-opacity:1;stroke:none"
       d="m -5e-7,1049.3622 0,1.0625 c 0,1.0773 0.860223,1.9375 1.9375,1.9375 l 44.1250005,0 c 1.077277,0 1.9375,-0.8602 1.9375,-1.9375 l 0,-1.0625 c 0,1.0773 -0.860223,1.9375 -1.9375,1.9375 l -44.1250005,0 C 0.8602225,1051.2997 -5e-7,1050.4395 -5e-7,1049.3622 Z"
       id="rect846-2" />
    <path
       inkscape:connector-curvature="0"
       style="fill:#ffffff;fill-opacity:0.5372549;stroke:none"
       d="m 2.5312495,1005.0185 c -0.917089,0 -1.671147,0.6395 -1.84375,1.5 0.335612,-0.2799 0.774512,-0.4375 1.25,-0.4375 l 44.1250005,0 c 0.475487,0 0.914388,0.1576 1.25,0.4375 -0.172604,-0.8605 -0.926663,-1.5 -1.843751,-1.5 L 2.5312495,1005.0185 Z"
       id="path7515" />
    <path
       inkscape:connector-curvature="0"
       style="fill:#000000;fill-opacity:0.39215686;stroke:none"
       d="m 1.9374995,1004.3622 c -1.077277,0 -1.9375,0.8602 -1.9375,1.9375 l 0,43.0625 c 0,0.7934 0.480024,1.449 1.15625,1.75 -0.309342,-0.3333 -0.5,-0.7824 -0.5,-1.2812 l 0,-42.9375 c 0,-1.0482 0.826899,-1.875 1.875,-1.875 l 42.9374995,0 c 1.048101,0 1.875001,0.8268 1.875001,1.875 l 0,42.9375 c 0,0.4988 -0.190659,0.9479 -0.5,1.2812 0.676225,-0.301 1.15625,-0.9566 1.15625,-1.75 l 0,-43.0625 c 0,-1.0773 -0.860224,-1.9375 -1.9375,-1.9375 L 1.9374995,1004.3622 Z"
       id="rect4280-1" />
    <path
       style="opacity:0.95400002;color:#000000;fill:#ffffff;fill-opacity:0.17647059;fill-rule:nonzero;stroke:none;stroke-width:0.5;marker:none;visibility:visible;display:inline;overflow:visible;enable-background:accumulate"
       d="M 1.9375 0 C 1.7018456 0 1.4899259 0.048879735 1.28125 0.125 L 1.625 0.125 L 1.625 1.625 L 0.125 1.625 L 0.125 1.28125 C 0.048879735 1.4899259 0 1.7018456 0 1.9375 L 0 46.0625 C 0 46.298154 0.048879735 46.510074 0.125 46.71875 L 0.125 46.375 L 1.625 46.375 L 1.625 47.875 L 1.28125 47.875 C 1.4899259 47.95112 1.7018456 48 1.9375 48 L 46.0625 48 C 46.298154 48 46.510074 47.95112 46.71875 47.875 L 46.375 47.875 L 46.375 46.375 L 47.875 46.375 L 47.875 46.71875 C 47.95112 46.510074 48 46.298154 48 46.0625 L 48 1.9375 C 48 1.7018456 47.95112 1.4899259 47.875 1.28125 L 47.875 1.625 L 46.375 1.625 L 46.375 0.125 L 46.71875 0.125 C 46.510074 0.048879735 46.298154 0 46.0625 0 L 1.9375 0 z M 2 0.125 L 3.46875 0.125 L 3.46875 1.625 L 2 1.625 L 2 0.125 z M 3.8125 0.125 L 5.3125 0.125 L 5.3125 1.625 L 3.8125 1.625 L 3.8125 0.125 z M 5.6875 0.125 L 7.125 0.125 L 7.125 1.625 L 5.6875 1.625 L 5.6875 0.125 z M 7.53125 0.125 L 9.03125 0.125 L 9.03125 1.625 L 7.53125 1.625 L 7.53125 0.125 z M 9.375 0.125 L 10.84375 0.125 L 10.84375 1.625 L 9.375 1.625 L 9.375 0.125 z M 11.25 0.125 L 12.75 0.125 L 12.75 1.625 L 11.25 1.625 L 11.25 0.125 z M 13.09375 0.125 L 14.59375 0.125 L 14.59375 1.625 L 13.09375 1.625 L 13.09375 0.125 z M 14.9375 0.125 L 16.40625 0.125 L 16.40625 1.625 L 14.9375 1.625 L 14.9375 0.125 z M 16.78125 0.125 L 18.28125 0.125 L 18.28125 1.625 L 16.78125 1.625 L 16.78125 0.125 z M 18.625 0.125 L 20.09375 0.125 L 20.09375 1.625 L 18.625 1.625 L 18.625 0.125 z M 20.4375 0.125 L 21.9375 0.125 L 21.9375 1.625 L 20.4375 1.625 L 20.4375 0.125 z M 22.34375 0.125 L 23.84375 0.125 L 23.84375 1.625 L 22.34375 1.625 L 22.34375 0.125 z M 24.1875 0.125 L 25.65625 0.125 L 25.65625 1.625 L 24.1875 1.625 L 24.1875 0.125 z M 26.0625 0.125 L 27.5625 0.125 L 27.5625 1.625 L 26.0625 1.625 L 26.0625 0.125 z M 27.90625 0.125 L 29.375 0.125 L 29.375 1.625 L 27.90625 1.625 L 27.90625 0.125 z M 29.71875 0.125 L 31.21875 0.125 L 31.21875 1.625 L 29.71875 1.625 L 29.71875 0.125 z M 31.59375 0.125 L 33.0625 0.125 L 33.0625 1.625 L 31.59375 1.625 L 31.59375 0.125 z M 33.40625 0.125 L 34.90625 0.125 L 34.90625 1.625 L 33.40625 1.625 L 33.40625 0.125 z M 35.25 0.125 L 36.75 0.125 L 36.75 1.625 L 35.25 1.625 L 35.25 0.125 z M 37.15625 0.125 L 38.625 0.125 L 38.625 1.625 L 37.15625 1.625 L 37.15625 0.125 z M 38.96875 0.125 L 40.46875 0.125 L 40.46875 1.625 L 38.96875 1.625 L 38.96875 0.125 z M 40.875 0.125 L 42.3125 0.125 L 42.3125 1.625 L 40.875 1.625 L 40.875 0.125 z M 42.6875 0.125 L 44.1875 0.125 L 44.1875 1.625 L 42.6875 1.625 L 42.6875 0.125 z M 44.53125 0.125 L 46 0.125 L 46 1.625 L 44.53125 1.625 L 44.53125 0.125 z M 0.125 2 L 1.625 2 L 1.625 3.46875 L 0.125 3.46875 L 0.125 2 z M 2 2 L 3.46875 2 L 3.46875 3.46875 L 2 3.46875 L 2 2 z M 3.8125 2 L 5.3125 2 L 5.3125 3.46875 L 3.8125 3.46875 L 3.8125 2 z M 5.6875 2 L 7.125 2 L 7.125 3.46875 L 5.6875 3.46875 L 5.6875 2 z M 7.53125 2 L 9.03125 2 L 9.03125 3.46875 L 7.53125 3.46875 L 7.53125 2 z M 9.375 2 L 10.84375 2 L 10.84375 3.46875 L 9.375 3.46875 L 9.375 2 z M 11.25 2 L 12.75 2 L 12.75 3.46875 L 11.25 3.46875 L 11.25 2 z M 13.09375 2 L 14.59375 2 L 14.59375 3.46875 L 13.09375 3.46875 L 13.09375 2 z M 14.9375 2 L 16.40625 2 L 16.40625 3.46875 L 14.9375 3.46875 L 14.9375 2 z M 16.78125 2 L 18.28125 2 L 18.28125 3.46875 L 16.78125 3.46875 L 16.78125 2 z M 18.625 2 L 20.09375 2 L 20.09375 3.46875 L 18.625 3.46875 L 18.625 2 z M 20.4375 2 L 21.9375 2 L 21.9375 3.46875 L 20.4375 3.46875 L 20.4375 2 z M 22.34375 2 L 23.84375 2 L 23.84375 3.46875 L 22.34375 3.46875 L 22.34375 2 z M 24.1875 2 L 25.65625 2 L 25.65625 3.46875 L 24.1875 3.46875 L 24.1875 2 z M 26.0625 2 L 27.5625 2 L 27.5625 3.46875 L 26.0625 3.46875 L 26.0625 2 z M 27.90625 2 L 29.375 2 L 29.375 3.46875 L 27.90625 3.46875 L 27.90625 2 z M 29.71875 2 L 31.21875 2 L 31.21875 3.46875 L 29.71875 3.46875 L 29.71875 2 z M 31.59375 2 L 33.0625 2 L 33.0625 3.46875 L 31.59375 3.46875 L 31.59375 2 z M 33.40625 2 L 34.90625 2 L 34.90625 3.46875 L 33.40625 3.46875 L 33.40625 2 z M 35.25 2 L 36.75 2 L 36.75 3.46875 L 35.25 3.46875 L 35.25 2 z M 37.15625 2 L 38.625 2 L 38.625 3.46875 L 37.15625 3.46875 L 37.15625 2 z M 38.96875 2 L 40.46875 2 L 40.46875 3.46875 L 38.96875 3.46875 L 38.96875 2 z M 40.875 2 L 42.3125 2 L 42.3125 3.46875 L 40.875 3.46875 L 40.875 2 z M 42.6875 2 L 44.1875 2 L 44.1875 3.46875 L 42.6875 3.46875 L 42.6875 2 z M 44.53125 2 L 46 2 L 46 3.46875 L 44.53125 3.46875 L 44.53125 2 z M 46.375 2 L 47.875 2 L 47.875 3.46875 L 46.375 3.46875 L 46.375 2 z M 0.125 3.8125 L 1.625 3.8125 L 1.625 5.3125 L 0.125 5.3125 L 0.125 3.8125 z M 2 3.8125 L 3.46875 3.8125 L 3.46875 5.3125 L 2 5.3125 L 2 3.8125 z M 3.8125 3.8125 L 5.3125 3.8125 L 5.3125 5.3125 L 3.8125 5.3125 L 3.8125 3.8125 z M 5.6875 3.8125 L 7.125 3.8125 L 7.125 5.3125 L 5.6875 5.3125 L 5.6875 3.8125 z M 7.53125 3.8125 L 9.03125 3.8125 L 9.03125 5.3125 L 7.53125 5.3125 L 7.53125 3.8125 z M 9.375 3.8125 L 10.84375 3.8125 L 10.84375 5.3125 L 9.375 5.3125 L 9.375 3.8125 z M 11.25 3.8125 L 12.75 3.8125 L 12.75 5.3125 L 11.25 5.3125 L 11.25 3.8125 z M 13.09375 3.8125 L 14.59375 3.8125 L 14.59375 5.3125 L 13.09375 5.3125 L 13.09375 3.8125 z M 14.9375 3.8125 L 16.40625 3.8125 L 16.40625 5.3125 L 14.9375 5.3125 L 14.9375 3.8125 z M 16.78125 3.8125 L 18.28125 3.8125 L 18.28125 5.3125 L 16.78125 5.3125 L 16.78125 3.8125 z M 18.625 3.8125 L 20.09375 3.8125 L 20.09375 5.3125 L 18.625 5.3125 L 18.625 3.8125 z M 20.4375 3.8125 L 21.9375 3.8125 L 21.9375 5.3125 L 20.4375 5.3125 L 20.4375 3.8125 z M 22.34375 3.8125 L 23.84375 3.8125 L 23.84375 5.3125 L 22.34375 5.3125 L 22.34375 3.8125 z M 24.1875 3.8125 L 25.65625 3.8125 L 25.65625 5.3125 L 24.1875 5.3125 L 24.1875 3.8125 z M 26.0625 3.8125 L 27.5625 3.8125 L 27.5625 5.3125 L 26.0625 5.3125 L 26.0625 3.8125 z M 27.90625 3.8125 L 29.375 3.8125 L 29.375 5.3125 L 27.90625 5.3125 L 27.90625 3.8125 z M 29.71875 3.8125 L 31.21875 3.8125 L 31.21875 5.3125 L 29.71875 5.3125 L 29.71875 3.8125 z M 31.59375 3.8125 L 33.0625 3.8125 L 33.0625 5.3125 L 31.59375 5.3125 L 31.59375 3.8125 z M 33.40625 3.8125 L 34.90625 3.8125 L 34.90625 5.3125 L 33.40625 5.3125 L 33.40625 3.8125 z M 35.25 3.8125 L 36.75 3.8125 L 36.75 5.3125 L 35.25 5.3125 L 35.25 3.8125 z M 37.15625 3.8125 L 38.625 3.8125 L 38.625 5.3125 L 37.15625 5.3125 L 37.15625 3.8125 z M 38.96875 3.8125 L 40.46875 3.8125 L 40.46875 5.3125 L 38.96875 5.3125 L 38.96875 3.8125 z M 40.875 3.8125 L 42.3125 3.8125 L 42.3125 5.3125 L 40.875 5.3125 L 40.875 3.8125 z M 42.6875 3.8125 L 44.1875 3.8125 L 44.1875 5.3125 L 42.6875 5.3125 L 42.6875 3.8125 z M 44.53125 3.8125 L 46 3.8125 L 46 5.3125 L 44.53125 5.3125 L 44.53125 3.8125 z M 46.375 3.8125 L 47.875 3.8125 L 47.875 5.3125 L 46.375 5.3125 L 46.375 3.8125 z M 0.125 5.6875 L 1.625 5.6875 L 1.625 7.125 L 0.125 7.125 L 0.125 5.6875 z M 2 5.6875 L 3.46875 5.6875 L 3.46875 7.125 L 2 7.125 L 2 5.6875 z M 3.8125 5.6875 L 5.3125 5.6875 L 5.3125 7.125 L 3.8125 7.125 L 3.8125 5.6875 z M 5.6875 5.6875 L 7.125 5.6875 L 7.125 7.125 L 5.6875 7.125 L 5.6875 5.6875 z M 7.53125 5.6875 L 9.03125 5.6875 L 9.03125 7.125 L 7.53125 7.125 L 7.53125 5.6875 z M 9.375 5.6875 L 10.84375 5.6875 L 10.84375 7.125 L 9.375 7.125 L 9.375 5.6875 z M 11.25 5.6875 L 12.75 5.6875 L 12.75 7.125 L 11.25 7.125 L 11.25 5.6875 z M 13.09375 5.6875 L 14.59375 5.6875 L 14.59375 7.125 L 13.09375 7.125 L 13.09375 5.6875 z M 14.9375 5.6875 L 16.40625 5.6875 L 16.40625 7.125 L 14.9375 7.125 L 14.9375 5.6875 z M 16.78125 5.6875 L 18.28125 5.6875 L 18.28125 7.125 L 16.78125 7.125 L 16.78125 5.6875 z M 18.625 5.6875 L 20.09375 5.6875 L 20.09375 7.125 L 18.625 7.125 L 18.625 5.6875 z M 20.4375 5.6875 L 21.9375 5.6875 L 21.9375 7.125 L 20.4375 7.125 L 20.4375 5.6875 z M 22.34375 5.6875 L 23.84375 5.6875 L 23.84375 7.125 L 22.34375 7.125 L 22.34375 5.6875 z M 24.1875 5.6875 L 25.65625 5.6875 L 25.65625 7.125 L 24.1875 7.125 L 24.1875 5.6875 z M 26.0625 5.6875 L 27.5625 5.6875 L 27.5625 7.125 L 26.0625 7.125 L 26.0625 5.6875 z M 27.90625 5.6875 L 29.375 5.6875 L 29.375 7.125 L 27.90625 7.125 L 27.90625 5.6875 z M 29.71875 5.6875 L 31.21875 5.6875 L 31.21875 7.125 L 29.71875 7.125 L 29.71875 5.6875 z M 31.59375 5.6875 L 33.0625 5.6875 L 33.0625 7.125 L 31.59375 7.125 L 31.59375 5.6875 z M 33.40625 5.6875 L 34.90625 5.6875 L 34.90625 7.125 L 33.40625 7.125 L 33.40625 5.6875 z M 35.25 5.6875 L 36.75 5.6875 L 36.75 7.125 L 35.25 7.125 L 35.25 5.6875 z M 37.15625 5.6875 L 38.625 5.6875 L 38.625 7.125 L 37.15625 7.125 L 37.15625 5.6875 z M 38.96875 5.6875 L 40.46875 5.6875 L 40.46875 7.125 L 38.96875 7.125 L 38.96875 5.6875 z M 40.875 5.6875 L 42.3125 5.6875 L 42.3125 7.125 L 40.875 7.125 L 40.875 5.6875 z M 42.6875 5.6875 L 44.1875 5.6875 L 44.1875 7.125 L 42.6875 7.125 L 42.6875 5.6875 z M 44.53125 5.6875 L 46 5.6875 L 46 7.125 L 44.53125 7.125 L 44.53125 5.6875 z M 46.375 5.6875 L 47.875 5.6875 L 47.875 7.125 L 46.375 7.125 L 46.375 5.6875 z M 0.125 7.53125 L 1.625 7.53125 L 1.625 9.03125 L 0.125 9.03125 L 0.125 7.53125 z M 2 7.53125 L 3.46875 7.53125 L 3.46875 9.03125 L 2 9.03125 L 2 7.53125 z M 3.8125 7.53125 L 5.3125 7.53125 L 5.3125 9.03125 L 3.8125 9.03125 L 3.8125 7.53125 z M 5.6875 7.53125 L 7.125 7.53125 L 7.125 9.03125 L 5.6875 9.03125 L 5.6875 7.53125 z M 7.53125 7.53125 L 9.03125 7.53125 L 9.03125 9.03125 L 7.53125 9.03125 L 7.53125 7.53125 z M 9.375 7.53125 L 10.84375 7.53125 L 10.84375 9.03125 L 9.375 9.03125 L 9.375 7.53125 z M 11.25 7.53125 L 12.75 7.53125 L 12.75 9.03125 L 11.25 9.03125 L 11.25 7.53125 z M 13.09375 7.53125 L 14.59375 7.53125 L 14.59375 9.03125 L 13.09375 9.03125 L 13.09375 7.53125 z M 14.9375 7.53125 L 16.40625 7.53125 L 16.40625 9.03125 L 14.9375 9.03125 L 14.9375 7.53125 z M 16.78125 7.53125 L 18.28125 7.53125 L 18.28125 9.03125 L 16.78125 9.03125 L 16.78125 7.53125 z M 18.625 7.53125 L 20.09375 7.53125 L 20.09375 9.03125 L 18.625 9.03125 L 18.625 7.53125 z M 20.4375 7.53125 L 21.9375 7.53125 L 21.9375 9.03125 L 20.4375 9.03125 L 20.4375 7.53125 z M 22.34375 7.53125 L 23.84375 7.53125 L 23.84375 9.03125 L 22.34375 9.03125 L 22.34375 7.53125 z M 24.1875 7.53125 L 25.65625 7.53125 L 25.65625 9.03125 L 24.1875 9.03125 L 24.1875 7.53125 z M 26.0625 7.53125 L 27.5625 7.53125 L 27.5625 9.03125 L 26.0625 9.03125 L 26.0625 7.53125 z M 27.90625 7.53125 L 29.375 7.53125 L 29.375 9.03125 L 27.90625 9.03125 L 27.90625 7.53125 z M 29.71875 7.53125 L 31.21875 7.53125 L 31.21875 9.03125 L 29.71875 9.03125 L 29.71875 7.53125 z M 31.59375 7.53125 L 33.0625 7.53125 L 33.0625 9.03125 L 31.59375 9.03125 L 31.59375 7.53125 z M 33.40625 7.53125 L 34.90625 7.53125 L 34.90625 9.03125 L 33.40625 9.03125 L 33.40625 7.53125 z M 35.25 7.53125 L 36.75 7.53125 L 36.75 9.03125 L 35.25 9.03125 L 35.25 7.53125 z M 37.15625 7.53125 L 38.625 7.53125 L 38.625 9.03125 L 37.15625 9.03125 L 37.15625 7.53125 z M 38.96875 7.53125 L 40.46875 7.53125 L 40.46875 9.03125 L 38.96875 9.03125 L 38.96875 7.53125 z M 40.875 7.53125 L 42.3125 7.53125 L 42.3125 9.03125 L 40.875 9.03125 L 40.875 7.53125 z M 42.6875 7.53125 L 44.1875 7.53125 L 44.1875 9.03125 L 42.6875 9.03125 L 42.6875 7.53125 z M 44.53125 7.53125 L 46 7.53125 L 46 9.03125 L 44.53125 9.03125 L 44.53125 7.53125 z M 46.375 7.53125 L 47.875 7.53125 L 47.875 9.03125 L 46.375 9.03125 L 46.375 7.53125 z M 0.125 9.375 L 1.625 9.375 L 1.625 10.84375 L 0.125 10.84375 L 0.125 9.375 z M 2 9.375 L 3.46875 9.375 L 3.46875 10.84375 L 2 10.84375 L 2 9.375 z M 3.8125 9.375 L 5.3125 9.375 L 5.3125 10.84375 L 3.8125 10.84375 L 3.8125 9.375 z M 5.6875 9.375 L 7.125 9.375 L 7.125 10.84375 L 5.6875 10.84375 L 5.6875 9.375 z M 7.53125 9.375 L 9.03125 9.375 L 9.03125 10.84375 L 7.53125 10.84375 L 7.53125 9.375 z M 9.375 9.375 L 10.84375 9.375 L 10.84375 10.84375 L 9.375 10.84375 L 9.375 9.375 z M 11.25 9.375 L 12.75 9.375 L 12.75 10.84375 L 11.25 10.84375 L 11.25 9.375 z M 13.09375 9.375 L 14.59375 9.375 L 14.59375 10.84375 L 13.09375 10.84375 L 13.09375 9.375 z M 14.9375 9.375 L 16.40625 9.375 L 16.40625 10.84375 L 14.9375 10.84375 L 14.9375 9.375 z M 16.78125 9.375 L 18.28125 9.375 L 18.28125 10.84375 L 16.78125 10.84375 L 16.78125 9.375 z M 18.625 9.375 L 20.09375 9.375 L 20.09375 10.84375 L 18.625 10.84375 L 18.625 9.375 z M 20.4375 9.375 L 21.9375 9.375 L 21.9375 10.84375 L 20.4375 10.84375 L 20.4375 9.375 z M 22.34375 9.375 L 23.84375 9.375 L 23.84375 10.84375 L 22.34375 10.84375 L 22.34375 9.375 z M 24.1875 9.375 L 25.65625 9.375 L 25.65625 10.84375 L 24.1875 10.84375 L 24.1875 9.375 z M 26.0625 9.375 L 27.5625 9.375 L 27.5625 10.84375 L 26.0625 10.84375 L 26.0625 9.375 z M 27.90625 9.375 L 29.375 9.375 L 29.375 10.84375 L 27.90625 10.84375 L 27.90625 9.375 z M 29.71875 9.375 L 31.21875 9.375 L 31.21875 10.84375 L 29.71875 10.84375 L 29.71875 9.375 z M 31.59375 9.375 L 33.0625 9.375 L 33.0625 10.84375 L 31.59375 10.84375 L 31.59375 9.375 z M 33.40625 9.375 L 34.90625 9.375 L 34.90625 10.84375 L 33.40625 10.84375 L 33.40625 9.375 z M 35.25 9.375 L 36.75 9.375 L 36.75 10.84375 L 35.25 10.84375 L 35.25 9.375 z M 37.15625 9.375 L 38.625 9.375 L 38.625 10.84375 L 37.15625 10.84375 L 37.15625 9.375 z M 38.96875 9.375 L 40.46875 9.375 L 40.46875 10.84375 L 38.96875 10.84375 L 38.96875 9.375 z M 40.875 9.375 L 42.3125 9.375 L 42.3125 10.84375 L 40.875 10.84375 L 40.875 9.375 z M 42.6875 9.375 L 44.1875 9.375 L 44.1875 10.84375 L 42.6875 10.84375 L 42.6875 9.375 z M 44.53125 9.375 L 46 9.375 L 46 10.84375 L 44.53125 10.84375 L 44.53125 9.375 z M 46.375 9.375 L 47.875 9.375 L 47.875 10.84375 L 46.375 10.84375 L 46.375 9.375 z M 0.125 11.25 L 1.625 11.25 L 1.625 12.75 L 0.125 12.75 L 0.125 11.25 z M 2 11.25 L 3.46875 11.25 L 3.46875 12.75 L 2 12.75 L 2 11.25 z M 3.8125 11.25 L 5.3125 11.25 L 5.3125 12.75 L 3.8125 12.75 L 3.8125 11.25 z M 5.6875 11.25 L 7.125 11.25 L 7.125 12.75 L 5.6875 12.75 L 5.6875 11.25 z M 7.53125 11.25 L 9.03125 11.25 L 9.03125 12.75 L 7.53125 12.75 L 7.53125 11.25 z M 9.375 11.25 L 10.84375 11.25 L 10.84375 12.75 L 9.375 12.75 L 9.375 11.25 z M 11.25 11.25 L 12.75 11.25 L 12.75 12.75 L 11.25 12.75 L 11.25 11.25 z M 13.09375 11.25 L 14.59375 11.25 L 14.59375 12.75 L 13.09375 12.75 L 13.09375 11.25 z M 14.9375 11.25 L 16.40625 11.25 L 16.40625 12.75 L 14.9375 12.75 L 14.9375 11.25 z M 16.78125 11.25 L 18.28125 11.25 L 18.28125 12.75 L 16.78125 12.75 L 16.78125 11.25 z M 18.625 11.25 L 20.09375 11.25 L 20.09375 12.75 L 18.625 12.75 L 18.625 11.25 z M 20.4375 11.25 L 21.9375 11.25 L 21.9375 12.75 L 20.4375 12.75 L 20.4375 11.25 z M 22.34375 11.25 L 23.84375 11.25 L 23.84375 12.75 L 22.34375 12.75 L 22.34375 11.25 z M 24.1875 11.25 L 25.65625 11.25 L 25.65625 12.75 L 24.1875 12.75 L 24.1875 11.25 z M 26.0625 11.25 L 27.5625 11.25 L 27.5625 12.75 L 26.0625 12.75 L 26.0625 11.25 z M 27.90625 11.25 L 29.375 11.25 L 29.375 12.75 L 27.90625 12.75 L 27.90625 11.25 z M 29.71875 11.25 L 31.21875 11.25 L 31.21875 12.75 L 29.71875 12.75 L 29.71875 11.25 z M 31.59375 11.25 L 33.0625 11.25 L 33.0625 12.75 L 31.59375 12.75 L 31.59375 11.25 z M 33.40625 11.25 L 34.90625 11.25 L 34.90625 12.75 L 33.40625 12.75 L 33.40625 11.25 z M 35.25 11.25 L 36.75 11.25 L 36.75 12.75 L 35.25 12.75 L 35.25 11.25 z M 37.15625 11.25 L 38.625 11.25 L 38.625 12.75 L 37.15625 12.75 L 37.15625 11.25 z M 38.96875 11.25 L 40.46875 11.25 L 40.46875 12.75 L 38.96875 12.75 L 38.96875 11.25 z M 40.875 11.25 L 42.3125 11.25 L 42.3125 12.75 L 40.875 12.75 L 40.875 11.25 z M 42.6875 11.25 L 44.1875 11.25 L 44.1875 12.75 L 42.6875 12.75 L 42.6875 11.25 z M 44.53125 11.25 L 46 11.25 L 46 12.75 L 44.53125 12.75 L 44.53125 11.25 z M 46.375 11.25 L 47.875 11.25 L 47.875 12.75 L 46.375 12.75 L 46.375 11.25 z M 0.125 13.09375 L 1.625 13.09375 L 1.625 14.59375 L 0.125 14.59375 L 0.125 13.09375 z M 2 13.09375 L 3.46875 13.09375 L 3.46875 14.59375 L 2 14.59375 L 2 13.09375 z M 3.8125 13.09375 L 5.3125 13.09375 L 5.3125 14.59375 L 3.8125 14.59375 L 3.8125 13.09375 z M 5.6875 13.09375 L 7.125 13.09375 L 7.125 14.59375 L 5.6875 14.59375 L 5.6875 13.09375 z M 7.53125 13.09375 L 9.03125 13.09375 L 9.03125 14.59375 L 7.53125 14.59375 L 7.53125 13.09375 z M 9.375 13.09375 L 10.84375 13.09375 L 10.84375 14.59375 L 9.375 14.59375 L 9.375 13.09375 z M 11.25 13.09375 L 12.75 13.09375 L 12.75 14.59375 L 11.25 14.59375 L 11.25 13.09375 z M 13.09375 13.09375 L 14.59375 13.09375 L 14.59375 14.59375 L 13.09375 14.59375 L 13.09375 13.09375 z M 14.9375 13.09375 L 16.40625 13.09375 L 16.40625 14.59375 L 14.9375 14.59375 L 14.9375 13.09375 z M 16.78125 13.09375 L 18.28125 13.09375 L 18.28125 14.59375 L 16.78125 14.59375 L 16.78125 13.09375 z M 18.625 13.09375 L 20.09375 13.09375 L 20.09375 14.59375 L 18.625 14.59375 L 18.625 13.09375 z M 20.4375 13.09375 L 21.9375 13.09375 L 21.9375 14.59375 L 20.4375 14.59375 L 20.4375 13.09375 z M 22.34375 13.09375 L 23.84375 13.09375 L 23.84375 14.59375 L 22.34375 14.59375 L 22.34375 13.09375 z M 24.1875 13.09375 L 25.65625 13.09375 L 25.65625 14.59375 L 24.1875 14.59375 L 24.1875 13.09375 z M 26.0625 13.09375 L 27.5625 13.09375 L 27.5625 14.59375 L 26.0625 14.59375 L 26.0625 13.09375 z M 27.90625 13.09375 L 29.375 13.09375 L 29.375 14.59375 L 27.90625 14.59375 L 27.90625 13.09375 z M 29.71875 13.09375 L 31.21875 13.09375 L 31.21875 14.59375 L 29.71875 14.59375 L 29.71875 13.09375 z M 31.59375 13.09375 L 33.0625 13.09375 L 33.0625 14.59375 L 31.59375 14.59375 L 31.59375 13.09375 z M 33.40625 13.09375 L 34.90625 13.09375 L 34.90625 14.59375 L 33.40625 14.59375 L 33.40625 13.09375 z M 35.25 13.09375 L 36.75 13.09375 L 36.75 14.59375 L 35.25 14.59375 L 35.25 13.09375 z M 37.15625 13.09375 L 38.625 13.09375 L 38.625 14.59375 L 37.15625 14.59375 L 37.15625 13.09375 z M 38.96875 13.09375 L 40.46875 13.09375 L 40.46875 14.59375 L 38.96875 14.59375 L 38.96875 13.09375 z M 40.875 13.09375 L 42.3125 13.09375 L 42.3125 14.59375 L 40.875 14.59375 L 40.875 13.09375 z M 42.6875 13.09375 L 44.1875 13.09375 L 44.1875 14.59375 L 42.6875 14.59375 L 42.6875 13.09375 z M 44.53125 13.09375 L 46 13.09375 L 46 14.59375 L 44.53125 14.59375 L 44.53125 13.09375 z M 46.375 13.09375 L 47.875 13.09375 L 47.875 14.59375 L 46.375 14.59375 L 46.375 13.09375 z M 0.125 14.9375 L 1.625 14.9375 L 1.625 16.40625 L 0.125 16.40625 L 0.125 14.9375 z M 2 14.9375 L 3.46875 14.9375 L 3.46875 16.40625 L 2 16.40625 L 2 14.9375 z M 3.8125 14.9375 L 5.3125 14.9375 L 5.3125 16.40625 L 3.8125 16.40625 L 3.8125 14.9375 z M 5.6875 14.9375 L 7.125 14.9375 L 7.125 16.40625 L 5.6875 16.40625 L 5.6875 14.9375 z M 7.53125 14.9375 L 9.03125 14.9375 L 9.03125 16.40625 L 7.53125 16.40625 L 7.53125 14.9375 z M 9.375 14.9375 L 10.84375 14.9375 L 10.84375 16.40625 L 9.375 16.40625 L 9.375 14.9375 z M 11.25 14.9375 L 12.75 14.9375 L 12.75 16.40625 L 11.25 16.40625 L 11.25 14.9375 z M 13.09375 14.9375 L 14.59375 14.9375 L 14.59375 16.40625 L 13.09375 16.40625 L 13.09375 14.9375 z M 14.9375 14.9375 L 16.40625 14.9375 L 16.40625 16.40625 L 14.9375 16.40625 L 14.9375 14.9375 z M 16.78125 14.9375 L 18.28125 14.9375 L 18.28125 16.40625 L 16.78125 16.40625 L 16.78125 14.9375 z M 18.625 14.9375 L 20.09375 14.9375 L 20.09375 16.40625 L 18.625 16.40625 L 18.625 14.9375 z M 20.4375 14.9375 L 21.9375 14.9375 L 21.9375 16.40625 L 20.4375 16.40625 L 20.4375 14.9375 z M 22.34375 14.9375 L 23.84375 14.9375 L 23.84375 16.40625 L 22.34375 16.40625 L 22.34375 14.9375 z M 24.1875 14.9375 L 25.65625 14.9375 L 25.65625 16.40625 L 24.1875 16.40625 L 24.1875 14.9375 z M 26.0625 14.9375 L 27.5625 14.9375 L 27.5625 16.40625 L 26.0625 16.40625 L 26.0625 14.9375 z M 27.90625 14.9375 L 29.375 14.9375 L 29.375 16.40625 L 27.90625 16.40625 L 27.90625 14.9375 z M 29.71875 14.9375 L 31.21875 14.9375 L 31.21875 16.40625 L 29.71875 16.40625 L 29.71875 14.9375 z M 31.59375 14.9375 L 33.0625 14.9375 L 33.0625 16.40625 L 31.59375 16.40625 L 31.59375 14.9375 z M 33.40625 14.9375 L 34.90625 14.9375 L 34.90625 16.40625 L 33.40625 16.40625 L 33.40625 14.9375 z M 35.25 14.9375 L 36.75 14.9375 L 36.75 16.40625 L 35.25 16.40625 L 35.25 14.9375 z M 37.15625 14.9375 L 38.625 14.9375 L 38.625 16.40625 L 37.15625 16.40625 L 37.15625 14.9375 z M 38.96875 14.9375 L 40.46875 14.9375 L 40.46875 16.40625 L 38.96875 16.40625 L 38.96875 14.9375 z M 40.875 14.9375 L 42.3125 14.9375 L 42.3125 16.40625 L 40.875 16.40625 L 40.875 14.9375 z M 42.6875 14.9375 L 44.1875 14.9375 L 44.1875 16.40625 L 42.6875 16.40625 L 42.6875 14.9375 z M 44.53125 14.9375 L 46 14.9375 L 46 16.40625 L 44.53125 16.40625 L 44.53125 14.9375 z M 46.375 14.9375 L 47.875 14.9375 L 47.875 16.40625 L 46.375 16.40625 L 46.375 14.9375 z M 0.125 16.78125 L 1.625 16.78125 L 1.625 18.28125 L 0.125 18.28125 L 0.125 16.78125 z M 2 16.78125 L 3.46875 16.78125 L 3.46875 18.28125 L 2 18.28125 L 2 16.78125 z M 3.8125 16.78125 L 5.3125 16.78125 L 5.3125 18.28125 L 3.8125 18.28125 L 3.8125 16.78125 z M 5.6875 16.78125 L 7.125 16.78125 L 7.125 18.28125 L 5.6875 18.28125 L 5.6875 16.78125 z M 7.53125 16.78125 L 9.03125 16.78125 L 9.03125 18.28125 L 7.53125 18.28125 L 7.53125 16.78125 z M 9.375 16.78125 L 10.84375 16.78125 L 10.84375 18.28125 L 9.375 18.28125 L 9.375 16.78125 z M 11.25 16.78125 L 12.75 16.78125 L 12.75 18.28125 L 11.25 18.28125 L 11.25 16.78125 z M 13.09375 16.78125 L 14.59375 16.78125 L 14.59375 18.28125 L 13.09375 18.28125 L 13.09375 16.78125 z M 14.9375 16.78125 L 16.40625 16.78125 L 16.40625 18.28125 L 14.9375 18.28125 L 14.9375 16.78125 z M 16.78125 16.78125 L 18.28125 16.78125 L 18.28125 18.28125 L 16.78125 18.28125 L 16.78125 16.78125 z M 18.625 16.78125 L 20.09375 16.78125 L 20.09375 18.28125 L 18.625 18.28125 L 18.625 16.78125 z M 20.4375 16.78125 L 21.9375 16.78125 L 21.9375 18.28125 L 20.4375 18.28125 L 20.4375 16.78125 z M 22.34375 16.78125 L 23.84375 16.78125 L 23.84375 18.28125 L 22.34375 18.28125 L 22.34375 16.78125 z M 24.1875 16.78125 L 25.65625 16.78125 L 25.65625 18.28125 L 24.1875 18.28125 L 24.1875 16.78125 z M 26.0625 16.78125 L 27.5625 16.78125 L 27.5625 18.28125 L 26.0625 18.28125 L 26.0625 16.78125 z M 27.90625 16.78125 L 29.375 16.78125 L 29.375 18.28125 L 27.90625 18.28125 L 27.90625 16.78125 z M 29.71875 16.78125 L 31.21875 16.78125 L 31.21875 18.28125 L 29.71875 18.28125 L 29.71875 16.78125 z M 31.59375 16.78125 L 33.0625 16.78125 L 33.0625 18.28125 L 31.59375 18.28125 L 31.59375 16.78125 z M 33.40625 16.78125 L 34.90625 16.78125 L 34.90625 18.28125 L 33.40625 18.28125 L 33.40625 16.78125 z M 35.25 16.78125 L 36.75 16.78125 L 36.75 18.28125 L 35.25 18.28125 L 35.25 16.78125 z M 37.15625 16.78125 L 38.625 16.78125 L 38.625 18.28125 L 37.15625 18.28125 L 37.15625 16.78125 z M 38.96875 16.78125 L 40.46875 16.78125 L 40.46875 18.28125 L 38.96875 18.28125 L 38.96875 16.78125 z M 40.875 16.78125 L 42.3125 16.78125 L 42.3125 18.28125 L 40.875 18.28125 L 40.875 16.78125 z M 42.6875 16.78125 L 44.1875 16.78125 L 44.1875 18.28125 L 42.6875 18.28125 L 42.6875 16.78125 z M 44.53125 16.78125 L 46 16.78125 L 46 18.28125 L 44.53125 18.28125 L 44.53125 16.78125 z M 46.375 16.78125 L 47.875 16.78125 L 47.875 18.28125 L 46.375 18.28125 L 46.375 16.78125 z M 0.125 18.625 L 1.625 18.625 L 1.625 20.09375 L 0.125 20.09375 L 0.125 18.625 z M 2 18.625 L 3.46875 18.625 L 3.46875 20.09375 L 2 20.09375 L 2 18.625 z M 3.8125 18.625 L 5.3125 18.625 L 5.3125 20.09375 L 3.8125 20.09375 L 3.8125 18.625 z M 5.6875 18.625 L 7.125 18.625 L 7.125 20.09375 L 5.6875 20.09375 L 5.6875 18.625 z M 7.53125 18.625 L 9.03125 18.625 L 9.03125 20.09375 L 7.53125 20.09375 L 7.53125 18.625 z M 9.375 18.625 L 10.84375 18.625 L 10.84375 20.09375 L 9.375 20.09375 L 9.375 18.625 z M 11.25 18.625 L 12.75 18.625 L 12.75 20.09375 L 11.25 20.09375 L 11.25 18.625 z M 13.09375 18.625 L 14.59375 18.625 L 14.59375 20.09375 L 13.09375 20.09375 L 13.09375 18.625 z M 14.9375 18.625 L 16.40625 18.625 L 16.40625 20.09375 L 14.9375 20.09375 L 14.9375 18.625 z M 16.78125 18.625 L 18.28125 18.625 L 18.28125 20.09375 L 16.78125 20.09375 L 16.78125 18.625 z M 18.625 18.625 L 20.09375 18.625 L 20.09375 20.09375 L 18.625 20.09375 L 18.625 18.625 z M 20.4375 18.625 L 21.9375 18.625 L 21.9375 20.09375 L 20.4375 20.09375 L 20.4375 18.625 z M 22.34375 18.625 L 23.84375 18.625 L 23.84375 20.09375 L 22.34375 20.09375 L 22.34375 18.625 z M 24.1875 18.625 L 25.65625 18.625 L 25.65625 20.09375 L 24.1875 20.09375 L 24.1875 18.625 z M 26.0625 18.625 L 27.5625 18.625 L 27.5625 20.09375 L 26.0625 20.09375 L 26.0625 18.625 z M 27.90625 18.625 L 29.375 18.625 L 29.375 20.09375 L 27.90625 20.09375 L 27.90625 18.625 z M 29.71875 18.625 L 31.21875 18.625 L 31.21875 20.09375 L 29.71875 20.09375 L 29.71875 18.625 z M 31.59375 18.625 L 33.0625 18.625 L 33.0625 20.09375 L 31.59375 20.09375 L 31.59375 18.625 z M 33.40625 18.625 L 34.90625 18.625 L 34.90625 20.09375 L 33.40625 20.09375 L 33.40625 18.625 z M 35.25 18.625 L 36.75 18.625 L 36.75 20.09375 L 35.25 20.09375 L 35.25 18.625 z M 37.15625 18.625 L 38.625 18.625 L 38.625 20.09375 L 37.15625 20.09375 L 37.15625 18.625 z M 38.96875 18.625 L 40.46875 18.625 L 40.46875 20.09375 L 38.96875 20.09375 L 38.96875 18.625 z M 40.875 18.625 L 42.3125 18.625 L 42.3125 20.09375 L 40.875 20.09375 L 40.875 18.625 z M 42.6875 18.625 L 44.1875 18.625 L 44.1875 20.09375 L 42.6875 20.09375 L 42.6875 18.625 z M 44.53125 18.625 L 46 18.625 L 46 20.09375 L 44.53125 20.09375 L 44.53125 18.625 z M 46.375 18.625 L 47.875 18.625 L 47.875 20.09375 L 46.375 20.09375 L 46.375 18.625 z M 0.125 20.4375 L 1.625 20.4375 L 1.625 21.9375 L 0.125 21.9375 L 0.125 20.4375 z M 2 20.4375 L 3.46875 20.4375 L 3.46875 21.9375 L 2 21.9375 L 2 20.4375 z M 3.8125 20.4375 L 5.3125 20.4375 L 5.3125 21.9375 L 3.8125 21.9375 L 3.8125 20.4375 z M 5.6875 20.4375 L 7.125 20.4375 L 7.125 21.9375 L 5.6875 21.9375 L 5.6875 20.4375 z M 7.53125 20.4375 L 9.03125 20.4375 L 9.03125 21.9375 L 7.53125 21.9375 L 7.53125 20.4375 z M 9.375 20.4375 L 10.84375 20.4375 L 10.84375 21.9375 L 9.375 21.9375 L 9.375 20.4375 z M 11.25 20.4375 L 12.75 20.4375 L 12.75 21.9375 L 11.25 21.9375 L 11.25 20.4375 z M 13.09375 20.4375 L 14.59375 20.4375 L 14.59375 21.9375 L 13.09375 21.9375 L 13.09375 20.4375 z M 14.9375 20.4375 L 16.40625 20.4375 L 16.40625 21.9375 L 14.9375 21.9375 L 14.9375 20.4375 z M 16.78125 20.4375 L 18.28125 20.4375 L 18.28125 21.9375 L 16.78125 21.9375 L 16.78125 20.4375 z M 18.625 20.4375 L 20.09375 20.4375 L 20.09375 21.9375 L 18.625 21.9375 L 18.625 20.4375 z M 20.4375 20.4375 L 21.9375 20.4375 L 21.9375 21.9375 L 20.4375 21.9375 L 20.4375 20.4375 z M 22.34375 20.4375 L 23.84375 20.4375 L 23.84375 21.9375 L 22.34375 21.9375 L 22.34375 20.4375 z M 24.1875 20.4375 L 25.65625 20.4375 L 25.65625 21.9375 L 24.1875 21.9375 L 24.1875 20.4375 z M 26.0625 20.4375 L 27.5625 20.4375 L 27.5625 21.9375 L 26.0625 21.9375 L 26.0625 20.4375 z M 27.90625 20.4375 L 29.375 20.4375 L 29.375 21.9375 L 27.90625 21.9375 L 27.90625 20.4375 z M 29.71875 20.4375 L 31.21875 20.4375 L 31.21875 21.9375 L 29.71875 21.9375 L 29.71875 20.4375 z M 31.59375 20.4375 L 33.0625 20.4375 L 33.0625 21.9375 L 31.59375 21.9375 L 31.59375 20.4375 z M 33.40625 20.4375 L 34.90625 20.4375 L 34.90625 21.9375 L 33.40625 21.9375 L 33.40625 20.4375 z M 35.25 20.4375 L 36.75 20.4375 L 36.75 21.9375 L 35.25 21.9375 L 35.25 20.4375 z M 37.15625 20.4375 L 38.625 20.4375 L 38.625 21.9375 L 37.15625 21.9375 L 37.15625 20.4375 z M 38.96875 20.4375 L 40.46875 20.4375 L 40.46875 21.9375 L 38.96875 21.9375 L 38.96875 20.4375 z M 40.875 20.4375 L 42.3125 20.4375 L 42.3125 21.9375 L 40.875 21.9375 L 40.875 20.4375 z M 42.6875 20.4375 L 44.1875 20.4375 L 44.1875 21.9375 L 42.6875 21.9375 L 42.6875 20.4375 z M 44.53125 20.4375 L 46 20.4375 L 46 21.9375 L 44.53125 21.9375 L 44.53125 20.4375 z M 46.375 20.4375 L 47.875 20.4375 L 47.875 21.9375 L 46.375 21.9375 L 46.375 20.4375 z M 0.125 22.34375 L 1.625 22.34375 L 1.625 23.84375 L 0.125 23.84375 L 0.125 22.34375 z M 2 22.34375 L 3.46875 22.34375 L 3.46875 23.84375 L 2 23.84375 L 2 22.34375 z M 3.8125 22.34375 L 5.3125 22.34375 L 5.3125 23.84375 L 3.8125 23.84375 L 3.8125 22.34375 z M 5.6875 22.34375 L 7.125 22.34375 L 7.125 23.84375 L 5.6875 23.84375 L 5.6875 22.34375 z M 7.53125 22.34375 L 9.03125 22.34375 L 9.03125 23.84375 L 7.53125 23.84375 L 7.53125 22.34375 z M 9.375 22.34375 L 10.84375 22.34375 L 10.84375 23.84375 L 9.375 23.84375 L 9.375 22.34375 z M 11.25 22.34375 L 12.75 22.34375 L 12.75 23.84375 L 11.25 23.84375 L 11.25 22.34375 z M 13.09375 22.34375 L 14.59375 22.34375 L 14.59375 23.84375 L 13.09375 23.84375 L 13.09375 22.34375 z M 14.9375 22.34375 L 16.40625 22.34375 L 16.40625 23.84375 L 14.9375 23.84375 L 14.9375 22.34375 z M 16.78125 22.34375 L 18.28125 22.34375 L 18.28125 23.84375 L 16.78125 23.84375 L 16.78125 22.34375 z M 18.625 22.34375 L 20.09375 22.34375 L 20.09375 23.84375 L 18.625 23.84375 L 18.625 22.34375 z M 20.4375 22.34375 L 21.9375 22.34375 L 21.9375 23.84375 L 20.4375 23.84375 L 20.4375 22.34375 z M 22.34375 22.34375 L 23.84375 22.34375 L 23.84375 23.84375 L 22.34375 23.84375 L 22.34375 22.34375 z M 24.1875 22.34375 L 25.65625 22.34375 L 25.65625 23.84375 L 24.1875 23.84375 L 24.1875 22.34375 z M 26.0625 22.34375 L 27.5625 22.34375 L 27.5625 23.84375 L 26.0625 23.84375 L 26.0625 22.34375 z M 27.90625 22.34375 L 29.375 22.34375 L 29.375 23.84375 L 27.90625 23.84375 L 27.90625 22.34375 z M 29.71875 22.34375 L 31.21875 22.34375 L 31.21875 23.84375 L 29.71875 23.84375 L 29.71875 22.34375 z M 31.59375 22.34375 L 33.0625 22.34375 L 33.0625 23.84375 L 31.59375 23.84375 L 31.59375 22.34375 z M 33.40625 22.34375 L 34.90625 22.34375 L 34.90625 23.84375 L 33.40625 23.84375 L 33.40625 22.34375 z M 35.25 22.34375 L 36.75 22.34375 L 36.75 23.84375 L 35.25 23.84375 L 35.25 22.34375 z M 37.15625 22.34375 L 38.625 22.34375 L 38.625 23.84375 L 37.15625 23.84375 L 37.15625 22.34375 z M 38.96875 22.34375 L 40.46875 22.34375 L 40.46875 23.84375 L 38.96875 23.84375 L 38.96875 22.34375 z M 40.875 22.34375 L 42.3125 22.34375 L 42.3125 23.84375 L 40.875 23.84375 L 40.875 22.34375 z M 42.6875 22.34375 L 44.1875 22.34375 L 44.1875 23.84375 L 42.6875 23.84375 L 42.6875 22.34375 z M 44.53125 22.34375 L 46 22.34375 L 46 23.84375 L 44.53125 23.84375 L 44.53125 22.34375 z M 46.375 22.34375 L 47.875 22.34375 L 47.875 23.84375 L 46.375 23.84375 L 46.375 22.34375 z M 0.125 24.1875 L 1.625 24.1875 L 1.625 25.65625 L 0.125 25.65625 L 0.125 24.1875 z M 2 24.1875 L 3.46875 24.1875 L 3.46875 25.65625 L 2 25.65625 L 2 24.1875 z M 3.8125 24.1875 L 5.3125 24.1875 L 5.3125 25.65625 L 3.8125 25.65625 L 3.8125 24.1875 z M 5.6875 24.1875 L 7.125 24.1875 L 7.125 25.65625 L 5.6875 25.65625 L 5.6875 24.1875 z M 7.53125 24.1875 L 9.03125 24.1875 L 9.03125 25.65625 L 7.53125 25.65625 L 7.53125 24.1875 z M 9.375 24.1875 L 10.84375 24.1875 L 10.84375 25.65625 L 9.375 25.65625 L 9.375 24.1875 z M 11.25 24.1875 L 12.75 24.1875 L 12.75 25.65625 L 11.25 25.65625 L 11.25 24.1875 z M 13.09375 24.1875 L 14.59375 24.1875 L 14.59375 25.65625 L 13.09375 25.65625 L 13.09375 24.1875 z M 14.9375 24.1875 L 16.40625 24.1875 L 16.40625 25.65625 L 14.9375 25.65625 L 14.9375 24.1875 z M 16.78125 24.1875 L 18.28125 24.1875 L 18.28125 25.65625 L 16.78125 25.65625 L 16.78125 24.1875 z M 18.625 24.1875 L 20.09375 24.1875 L 20.09375 25.65625 L 18.625 25.65625 L 18.625 24.1875 z M 20.4375 24.1875 L 21.9375 24.1875 L 21.9375 25.65625 L 20.4375 25.65625 L 20.4375 24.1875 z M 22.34375 24.1875 L 23.84375 24.1875 L 23.84375 25.65625 L 22.34375 25.65625 L 22.34375 24.1875 z M 24.1875 24.1875 L 25.65625 24.1875 L 25.65625 25.65625 L 24.1875 25.65625 L 24.1875 24.1875 z M 26.0625 24.1875 L 27.5625 24.1875 L 27.5625 25.65625 L 26.0625 25.65625 L 26.0625 24.1875 z M 27.90625 24.1875 L 29.375 24.1875 L 29.375 25.65625 L 27.90625 25.65625 L 27.90625 24.1875 z M 29.71875 24.1875 L 31.21875 24.1875 L 31.21875 25.65625 L 29.71875 25.65625 L 29.71875 24.1875 z M 31.59375 24.1875 L 33.0625 24.1875 L 33.0625 25.65625 L 31.59375 25.65625 L 31.59375 24.1875 z M 33.40625 24.1875 L 34.90625 24.1875 L 34.90625 25.65625 L 33.40625 25.65625 L 33.40625 24.1875 z M 35.25 24.1875 L 36.75 24.1875 L 36.75 25.65625 L 35.25 25.65625 L 35.25 24.1875 z M 37.15625 24.1875 L 38.625 24.1875 L 38.625 25.65625 L 37.15625 25.65625 L 37.15625 24.1875 z M 38.96875 24.1875 L 40.46875 24.1875 L 40.46875 25.65625 L 38.96875 25.65625 L 38.96875 24.1875 z M 40.875 24.1875 L 42.3125 24.1875 L 42.3125 25.65625 L 40.875 25.65625 L 40.875 24.1875 z M 42.6875 24.1875 L 44.1875 24.1875 L 44.1875 25.65625 L 42.6875 25.65625 L 42.6875 24.1875 z M 44.53125 24.1875 L 46 24.1875 L 46 25.65625 L 44.53125 25.65625 L 44.53125 24.1875 z M 46.375 24.1875 L 47.875 24.1875 L 47.875 25.65625 L 46.375 25.65625 L 46.375 24.1875 z M 0.125 26.0625 L 1.625 26.0625 L 1.625 27.5625 L 0.125 27.5625 L 0.125 26.0625 z M 2 26.0625 L 3.46875 26.0625 L 3.46875 27.5625 L 2 27.5625 L 2 26.0625 z M 3.8125 26.0625 L 5.3125 26.0625 L 5.3125 27.5625 L 3.8125 27.5625 L 3.8125 26.0625 z M 5.6875 26.0625 L 7.125 26.0625 L 7.125 27.5625 L 5.6875 27.5625 L 5.6875 26.0625 z M 7.53125 26.0625 L 9.03125 26.0625 L 9.03125 27.5625 L 7.53125 27.5625 L 7.53125 26.0625 z M 9.375 26.0625 L 10.84375 26.0625 L 10.84375 27.5625 L 9.375 27.5625 L 9.375 26.0625 z M 11.25 26.0625 L 12.75 26.0625 L 12.75 27.5625 L 11.25 27.5625 L 11.25 26.0625 z M 13.09375 26.0625 L 14.59375 26.0625 L 14.59375 27.5625 L 13.09375 27.5625 L 13.09375 26.0625 z M 14.9375 26.0625 L 16.40625 26.0625 L 16.40625 27.5625 L 14.9375 27.5625 L 14.9375 26.0625 z M 16.78125 26.0625 L 18.28125 26.0625 L 18.28125 27.5625 L 16.78125 27.5625 L 16.78125 26.0625 z M 18.625 26.0625 L 20.09375 26.0625 L 20.09375 27.5625 L 18.625 27.5625 L 18.625 26.0625 z M 20.4375 26.0625 L 21.9375 26.0625 L 21.9375 27.5625 L 20.4375 27.5625 L 20.4375 26.0625 z M 22.34375 26.0625 L 23.84375 26.0625 L 23.84375 27.5625 L 22.34375 27.5625 L 22.34375 26.0625 z M 24.1875 26.0625 L 25.65625 26.0625 L 25.65625 27.5625 L 24.1875 27.5625 L 24.1875 26.0625 z M 26.0625 26.0625 L 27.5625 26.0625 L 27.5625 27.5625 L 26.0625 27.5625 L 26.0625 26.0625 z M 27.90625 26.0625 L 29.375 26.0625 L 29.375 27.5625 L 27.90625 27.5625 L 27.90625 26.0625 z M 29.71875 26.0625 L 31.21875 26.0625 L 31.21875 27.5625 L 29.71875 27.5625 L 29.71875 26.0625 z M 31.59375 26.0625 L 33.0625 26.0625 L 33.0625 27.5625 L 31.59375 27.5625 L 31.59375 26.0625 z M 33.40625 26.0625 L 34.90625 26.0625 L 34.90625 27.5625 L 33.40625 27.5625 L 33.40625 26.0625 z M 35.25 26.0625 L 36.75 26.0625 L 36.75 27.5625 L 35.25 27.5625 L 35.25 26.0625 z M 37.15625 26.0625 L 38.625 26.0625 L 38.625 27.5625 L 37.15625 27.5625 L 37.15625 26.0625 z M 38.96875 26.0625 L 40.46875 26.0625 L 40.46875 27.5625 L 38.96875 27.5625 L 38.96875 26.0625 z M 40.875 26.0625 L 42.3125 26.0625 L 42.3125 27.5625 L 40.875 27.5625 L 40.875 26.0625 z M 42.6875 26.0625 L 44.1875 26.0625 L 44.1875 27.5625 L 42.6875 27.5625 L 42.6875 26.0625 z M 44.53125 26.0625 L 46 26.0625 L 46 27.5625 L 44.53125 27.5625 L 44.53125 26.0625 z M 46.375 26.0625 L 47.875 26.0625 L 47.875 27.5625 L 46.375 27.5625 L 46.375 26.0625 z M 0.125 27.90625 L 1.625 27.90625 L 1.625 29.375 L 0.125 29.375 L 0.125 27.90625 z M 2 27.90625 L 3.46875 27.90625 L 3.46875 29.375 L 2 29.375 L 2 27.90625 z M 3.8125 27.90625 L 5.3125 27.90625 L 5.3125 29.375 L 3.8125 29.375 L 3.8125 27.90625 z M 5.6875 27.90625 L 7.125 27.90625 L 7.125 29.375 L 5.6875 29.375 L 5.6875 27.90625 z M 7.53125 27.90625 L 9.03125 27.90625 L 9.03125 29.375 L 7.53125 29.375 L 7.53125 27.90625 z M 9.375 27.90625 L 10.84375 27.90625 L 10.84375 29.375 L 9.375 29.375 L 9.375 27.90625 z M 11.25 27.90625 L 12.75 27.90625 L 12.75 29.375 L 11.25 29.375 L 11.25 27.90625 z M 13.09375 27.90625 L 14.59375 27.90625 L 14.59375 29.375 L 13.09375 29.375 L 13.09375 27.90625 z M 14.9375 27.90625 L 16.40625 27.90625 L 16.40625 29.375 L 14.9375 29.375 L 14.9375 27.90625 z M 16.78125 27.90625 L 18.28125 27.90625 L 18.28125 29.375 L 16.78125 29.375 L 16.78125 27.90625 z M 18.625 27.90625 L 20.09375 27.90625 L 20.09375 29.375 L 18.625 29.375 L 18.625 27.90625 z M 20.4375 27.90625 L 21.9375 27.90625 L 21.9375 29.375 L 20.4375 29.375 L 20.4375 27.90625 z M 22.34375 27.90625 L 23.84375 27.90625 L 23.84375 29.375 L 22.34375 29.375 L 22.34375 27.90625 z M 24.1875 27.90625 L 25.65625 27.90625 L 25.65625 29.375 L 24.1875 29.375 L 24.1875 27.90625 z M 26.0625 27.90625 L 27.5625 27.90625 L 27.5625 29.375 L 26.0625 29.375 L 26.0625 27.90625 z M 27.90625 27.90625 L 29.375 27.90625 L 29.375 29.375 L 27.90625 29.375 L 27.90625 27.90625 z M 29.71875 27.90625 L 31.21875 27.90625 L 31.21875 29.375 L 29.71875 29.375 L 29.71875 27.90625 z M 31.59375 27.90625 L 33.0625 27.90625 L 33.0625 29.375 L 31.59375 29.375 L 31.59375 27.90625 z M 33.40625 27.90625 L 34.90625 27.90625 L 34.90625 29.375 L 33.40625 29.375 L 33.40625 27.90625 z M 35.25 27.90625 L 36.75 27.90625 L 36.75 29.375 L 35.25 29.375 L 35.25 27.90625 z M 37.15625 27.90625 L 38.625 27.90625 L 38.625 29.375 L 37.15625 29.375 L 37.15625 27.90625 z M 38.96875 27.90625 L 40.46875 27.90625 L 40.46875 29.375 L 38.96875 29.375 L 38.96875 27.90625 z M 40.875 27.90625 L 42.3125 27.90625 L 42.3125 29.375 L 40.875 29.375 L 40.875 27.90625 z M 42.6875 27.90625 L 44.1875 27.90625 L 44.1875 29.375 L 42.6875 29.375 L 42.6875 27.90625 z M 44.53125 27.90625 L 46 27.90625 L 46 29.375 L 44.53125 29.375 L 44.53125 27.90625 z M 46.375 27.90625 L 47.875 27.90625 L 47.875 29.375 L 46.375 29.375 L 46.375 27.90625 z M 0.125 29.71875 L 1.625 29.71875 L 1.625 31.21875 L 0.125 31.21875 L 0.125 29.71875 z M 2 29.71875 L 3.46875 29.71875 L 3.46875 31.21875 L 2 31.21875 L 2 29.71875 z M 3.8125 29.71875 L 5.3125 29.71875 L 5.3125 31.21875 L 3.8125 31.21875 L 3.8125 29.71875 z M 5.6875 29.71875 L 7.125 29.71875 L 7.125 31.21875 L 5.6875 31.21875 L 5.6875 29.71875 z M 7.53125 29.71875 L 9.03125 29.71875 L 9.03125 31.21875 L 7.53125 31.21875 L 7.53125 29.71875 z M 9.375 29.71875 L 10.84375 29.71875 L 10.84375 31.21875 L 9.375 31.21875 L 9.375 29.71875 z M 11.25 29.71875 L 12.75 29.71875 L 12.75 31.21875 L 11.25 31.21875 L 11.25 29.71875 z M 13.09375 29.71875 L 14.59375 29.71875 L 14.59375 31.21875 L 13.09375 31.21875 L 13.09375 29.71875 z M 14.9375 29.71875 L 16.40625 29.71875 L 16.40625 31.21875 L 14.9375 31.21875 L 14.9375 29.71875 z M 16.78125 29.71875 L 18.28125 29.71875 L 18.28125 31.21875 L 16.78125 31.21875 L 16.78125 29.71875 z M 18.625 29.71875 L 20.09375 29.71875 L 20.09375 31.21875 L 18.625 31.21875 L 18.625 29.71875 z M 20.4375 29.71875 L 21.9375 29.71875 L 21.9375 31.21875 L 20.4375 31.21875 L 20.4375 29.71875 z M 22.34375 29.71875 L 23.84375 29.71875 L 23.84375 31.21875 L 22.34375 31.21875 L 22.34375 29.71875 z M 24.1875 29.71875 L 25.65625 29.71875 L 25.65625 31.21875 L 24.1875 31.21875 L 24.1875 29.71875 z M 26.0625 29.71875 L 27.5625 29.71875 L 27.5625 31.21875 L 26.0625 31.21875 L 26.0625 29.71875 z M 27.90625 29.71875 L 29.375 29.71875 L 29.375 31.21875 L 27.90625 31.21875 L 27.90625 29.71875 z M 29.71875 29.71875 L 31.21875 29.71875 L 31.21875 31.21875 L 29.71875 31.21875 L 29.71875 29.71875 z M 31.59375 29.71875 L 33.0625 29.71875 L 33.0625 31.21875 L 31.59375 31.21875 L 31.59375 29.71875 z M 33.40625 29.71875 L 34.90625 29.71875 L 34.90625 31.21875 L 33.40625 31.21875 L 33.40625 29.71875 z M 35.25 29.71875 L 36.75 29.71875 L 36.75 31.21875 L 35.25 31.21875 L 35.25 29.71875 z M 37.15625 29.71875 L 38.625 29.71875 L 38.625 31.21875 L 37.15625 31.21875 L 37.15625 29.71875 z M 38.96875 29.71875 L 40.46875 29.71875 L 40.46875 31.21875 L 38.96875 31.21875 L 38.96875 29.71875 z M 40.875 29.71875 L 42.3125 29.71875 L 42.3125 31.21875 L 40.875 31.21875 L 40.875 29.71875 z M 42.6875 29.71875 L 44.1875 29.71875 L 44.1875 31.21875 L 42.6875 31.21875 L 42.6875 29.71875 z M 44.53125 29.71875 L 46 29.71875 L 46 31.21875 L 44.53125 31.21875 L 44.53125 29.71875 z M 46.375 29.71875 L 47.875 29.71875 L 47.875 31.21875 L 46.375 31.21875 L 46.375 29.71875 z M 0.125 31.59375 L 1.625 31.59375 L 1.625 33.0625 L 0.125 33.0625 L 0.125 31.59375 z M 2 31.59375 L 3.46875 31.59375 L 3.46875 33.0625 L 2 33.0625 L 2 31.59375 z M 3.8125 31.59375 L 5.3125 31.59375 L 5.3125 33.0625 L 3.8125 33.0625 L 3.8125 31.59375 z M 5.6875 31.59375 L 7.125 31.59375 L 7.125 33.0625 L 5.6875 33.0625 L 5.6875 31.59375 z M 7.53125 31.59375 L 9.03125 31.59375 L 9.03125 33.0625 L 7.53125 33.0625 L 7.53125 31.59375 z M 9.375 31.59375 L 10.84375 31.59375 L 10.84375 33.0625 L 9.375 33.0625 L 9.375 31.59375 z M 11.25 31.59375 L 12.75 31.59375 L 12.75 33.0625 L 11.25 33.0625 L 11.25 31.59375 z M 13.09375 31.59375 L 14.59375 31.59375 L 14.59375 33.0625 L 13.09375 33.0625 L 13.09375 31.59375 z M 14.9375 31.59375 L 16.40625 31.59375 L 16.40625 33.0625 L 14.9375 33.0625 L 14.9375 31.59375 z M 16.78125 31.59375 L 18.28125 31.59375 L 18.28125 33.0625 L 16.78125 33.0625 L 16.78125 31.59375 z M 18.625 31.59375 L 20.09375 31.59375 L 20.09375 33.0625 L 18.625 33.0625 L 18.625 31.59375 z M 20.4375 31.59375 L 21.9375 31.59375 L 21.9375 33.0625 L 20.4375 33.0625 L 20.4375 31.59375 z M 22.34375 31.59375 L 23.84375 31.59375 L 23.84375 33.0625 L 22.34375 33.0625 L 22.34375 31.59375 z M 24.1875 31.59375 L 25.65625 31.59375 L 25.65625 33.0625 L 24.1875 33.0625 L 24.1875 31.59375 z M 26.0625 31.59375 L 27.5625 31.59375 L 27.5625 33.0625 L 26.0625 33.0625 L 26.0625 31.59375 z M 27.90625 31.59375 L 29.375 31.59375 L 29.375 33.0625 L 27.90625 33.0625 L 27.90625 31.59375 z M 29.71875 31.59375 L 31.21875 31.59375 L 31.21875 33.0625 L 29.71875 33.0625 L 29.71875 31.59375 z M 31.59375 31.59375 L 33.0625 31.59375 L 33.0625 33.0625 L 31.59375 33.0625 L 31.59375 31.59375 z M 33.40625 31.59375 L 34.90625 31.59375 L 34.90625 33.0625 L 33.40625 33.0625 L 33.40625 31.59375 z M 35.25 31.59375 L 36.75 31.59375 L 36.75 33.0625 L 35.25 33.0625 L 35.25 31.59375 z M 37.15625 31.59375 L 38.625 31.59375 L 38.625 33.0625 L 37.15625 33.0625 L 37.15625 31.59375 z M 38.96875 31.59375 L 40.46875 31.59375 L 40.46875 33.0625 L 38.96875 33.0625 L 38.96875 31.59375 z M 40.875 31.59375 L 42.3125 31.59375 L 42.3125 33.0625 L 40.875 33.0625 L 40.875 31.59375 z M 42.6875 31.59375 L 44.1875 31.59375 L 44.1875 33.0625 L 42.6875 33.0625 L 42.6875 31.59375 z M 44.53125 31.59375 L 46 31.59375 L 46 33.0625 L 44.53125 33.0625 L 44.53125 31.59375 z M 46.375 31.59375 L 47.875 31.59375 L 47.875 33.0625 L 46.375 33.0625 L 46.375 31.59375 z M 0.125 33.40625 L 1.625 33.40625 L 1.625 34.90625 L 0.125 34.90625 L 0.125 33.40625 z M 2 33.40625 L 3.46875 33.40625 L 3.46875 34.90625 L 2 34.90625 L 2 33.40625 z M 3.8125 33.40625 L 5.3125 33.40625 L 5.3125 34.90625 L 3.8125 34.90625 L 3.8125 33.40625 z M 5.6875 33.40625 L 7.125 33.40625 L 7.125 34.90625 L 5.6875 34.90625 L 5.6875 33.40625 z M 7.53125 33.40625 L 9.03125 33.40625 L 9.03125 34.90625 L 7.53125 34.90625 L 7.53125 33.40625 z M 9.375 33.40625 L 10.84375 33.40625 L 10.84375 34.90625 L 9.375 34.90625 L 9.375 33.40625 z M 11.25 33.40625 L 12.75 33.40625 L 12.75 34.90625 L 11.25 34.90625 L 11.25 33.40625 z M 13.09375 33.40625 L 14.59375 33.40625 L 14.59375 34.90625 L 13.09375 34.90625 L 13.09375 33.40625 z M 14.9375 33.40625 L 16.40625 33.40625 L 16.40625 34.90625 L 14.9375 34.90625 L 14.9375 33.40625 z M 16.78125 33.40625 L 18.28125 33.40625 L 18.28125 34.90625 L 16.78125 34.90625 L 16.78125 33.40625 z M 18.625 33.40625 L 20.09375 33.40625 L 20.09375 34.90625 L 18.625 34.90625 L 18.625 33.40625 z M 20.4375 33.40625 L 21.9375 33.40625 L 21.9375 34.90625 L 20.4375 34.90625 L 20.4375 33.40625 z M 22.34375 33.40625 L 23.84375 33.40625 L 23.84375 34.90625 L 22.34375 34.90625 L 22.34375 33.40625 z M 24.1875 33.40625 L 25.65625 33.40625 L 25.65625 34.90625 L 24.1875 34.90625 L 24.1875 33.40625 z M 26.0625 33.40625 L 27.5625 33.40625 L 27.5625 34.90625 L 26.0625 34.90625 L 26.0625 33.40625 z M 27.90625 33.40625 L 29.375 33.40625 L 29.375 34.90625 L 27.90625 34.90625 L 27.90625 33.40625 z M 29.71875 33.40625 L 31.21875 33.40625 L 31.21875 34.90625 L 29.71875 34.90625 L 29.71875 33.40625 z M 31.59375 33.40625 L 33.0625 33.40625 L 33.0625 34.90625 L 31.59375 34.90625 L 31.59375 33.40625 z M 33.40625 33.40625 L 34.90625 33.40625 L 34.90625 34.90625 L 33.40625 34.90625 L 33.40625 33.40625 z M 35.25 33.40625 L 36.75 33.40625 L 36.75 34.90625 L 35.25 34.90625 L 35.25 33.40625 z M 37.15625 33.40625 L 38.625 33.40625 L 38.625 34.90625 L 37.15625 34.90625 L 37.15625 33.40625 z M 38.96875 33.40625 L 40.46875 33.40625 L 40.46875 34.90625 L 38.96875 34.90625 L 38.96875 33.40625 z M 40.875 33.40625 L 42.3125 33.40625 L 42.3125 34.90625 L 40.875 34.90625 L 40.875 33.40625 z M 42.6875 33.40625 L 44.1875 33.40625 L 44.1875 34.90625 L 42.6875 34.90625 L 42.6875 33.40625 z M 44.53125 33.40625 L 46 33.40625 L 46 34.90625 L 44.53125 34.90625 L 44.53125 33.40625 z M 46.375 33.40625 L 47.875 33.40625 L 47.875 34.90625 L 46.375 34.90625 L 46.375 33.40625 z M 0.125 35.25 L 1.625 35.25 L 1.625 36.75 L 0.125 36.75 L 0.125 35.25 z M 2 35.25 L 3.46875 35.25 L 3.46875 36.75 L 2 36.75 L 2 35.25 z M 3.8125 35.25 L 5.3125 35.25 L 5.3125 36.75 L 3.8125 36.75 L 3.8125 35.25 z M 5.6875 35.25 L 7.125 35.25 L 7.125 36.75 L 5.6875 36.75 L 5.6875 35.25 z M 7.53125 35.25 L 9.03125 35.25 L 9.03125 36.75 L 7.53125 36.75 L 7.53125 35.25 z M 9.375 35.25 L 10.84375 35.25 L 10.84375 36.75 L 9.375 36.75 L 9.375 35.25 z M 11.25 35.25 L 12.75 35.25 L 12.75 36.75 L 11.25 36.75 L 11.25 35.25 z M 13.09375 35.25 L 14.59375 35.25 L 14.59375 36.75 L 13.09375 36.75 L 13.09375 35.25 z M 14.9375 35.25 L 16.40625 35.25 L 16.40625 36.75 L 14.9375 36.75 L 14.9375 35.25 z M 16.78125 35.25 L 18.28125 35.25 L 18.28125 36.75 L 16.78125 36.75 L 16.78125 35.25 z M 18.625 35.25 L 20.09375 35.25 L 20.09375 36.75 L 18.625 36.75 L 18.625 35.25 z M 20.4375 35.25 L 21.9375 35.25 L 21.9375 36.75 L 20.4375 36.75 L 20.4375 35.25 z M 22.34375 35.25 L 23.84375 35.25 L 23.84375 36.75 L 22.34375 36.75 L 22.34375 35.25 z M 24.1875 35.25 L 25.65625 35.25 L 25.65625 36.75 L 24.1875 36.75 L 24.1875 35.25 z M 26.0625 35.25 L 27.5625 35.25 L 27.5625 36.75 L 26.0625 36.75 L 26.0625 35.25 z M 27.90625 35.25 L 29.375 35.25 L 29.375 36.75 L 27.90625 36.75 L 27.90625 35.25 z M 29.71875 35.25 L 31.21875 35.25 L 31.21875 36.75 L 29.71875 36.75 L 29.71875 35.25 z M 31.59375 35.25 L 33.0625 35.25 L 33.0625 36.75 L 31.59375 36.75 L 31.59375 35.25 z M 33.40625 35.25 L 34.90625 35.25 L 34.90625 36.75 L 33.40625 36.75 L 33.40625 35.25 z M 35.25 35.25 L 36.75 35.25 L 36.75 36.75 L 35.25 36.75 L 35.25 35.25 z M 37.15625 35.25 L 38.625 35.25 L 38.625 36.75 L 37.15625 36.75 L 37.15625 35.25 z M 38.96875 35.25 L 40.46875 35.25 L 40.46875 36.75 L 38.96875 36.75 L 38.96875 35.25 z M 40.875 35.25 L 42.3125 35.25 L 42.3125 36.75 L 40.875 36.75 L 40.875 35.25 z M 42.6875 35.25 L 44.1875 35.25 L 44.1875 36.75 L 42.6875 36.75 L 42.6875 35.25 z M 44.53125 35.25 L 46 35.25 L 46 36.75 L 44.53125 36.75 L 44.53125 35.25 z M 46.375 35.25 L 47.875 35.25 L 47.875 36.75 L 46.375 36.75 L 46.375 35.25 z M 0.125 37.15625 L 1.625 37.15625 L 1.625 38.625 L 0.125 38.625 L 0.125 37.15625 z M 2 37.15625 L 3.46875 37.15625 L 3.46875 38.625 L 2 38.625 L 2 37.15625 z M 3.8125 37.15625 L 5.3125 37.15625 L 5.3125 38.625 L 3.8125 38.625 L 3.8125 37.15625 z M 5.6875 37.15625 L 7.125 37.15625 L 7.125 38.625 L 5.6875 38.625 L 5.6875 37.15625 z M 7.53125 37.15625 L 9.03125 37.15625 L 9.03125 38.625 L 7.53125 38.625 L 7.53125 37.15625 z M 9.375 37.15625 L 10.84375 37.15625 L 10.84375 38.625 L 9.375 38.625 L 9.375 37.15625 z M 11.25 37.15625 L 12.75 37.15625 L 12.75 38.625 L 11.25 38.625 L 11.25 37.15625 z M 13.09375 37.15625 L 14.59375 37.15625 L 14.59375 38.625 L 13.09375 38.625 L 13.09375 37.15625 z M 14.9375 37.15625 L 16.40625 37.15625 L 16.40625 38.625 L 14.9375 38.625 L 14.9375 37.15625 z M 16.78125 37.15625 L 18.28125 37.15625 L 18.28125 38.625 L 16.78125 38.625 L 16.78125 37.15625 z M 18.625 37.15625 L 20.09375 37.15625 L 20.09375 38.625 L 18.625 38.625 L 18.625 37.15625 z M 20.4375 37.15625 L 21.9375 37.15625 L 21.9375 38.625 L 20.4375 38.625 L 20.4375 37.15625 z M 22.34375 37.15625 L 23.84375 37.15625 L 23.84375 38.625 L 22.34375 38.625 L 22.34375 37.15625 z M 24.1875 37.15625 L 25.65625 37.15625 L 25.65625 38.625 L 24.1875 38.625 L 24.1875 37.15625 z M 26.0625 37.15625 L 27.5625 37.15625 L 27.5625 38.625 L 26.0625 38.625 L 26.0625 37.15625 z M 27.90625 37.15625 L 29.375 37.15625 L 29.375 38.625 L 27.90625 38.625 L 27.90625 37.15625 z M 29.71875 37.15625 L 31.21875 37.15625 L 31.21875 38.625 L 29.71875 38.625 L 29.71875 37.15625 z M 31.59375 37.15625 L 33.0625 37.15625 L 33.0625 38.625 L 31.59375 38.625 L 31.59375 37.15625 z M 33.40625 37.15625 L 34.90625 37.15625 L 34.90625 38.625 L 33.40625 38.625 L 33.40625 37.15625 z M 35.25 37.15625 L 36.75 37.15625 L 36.75 38.625 L 35.25 38.625 L 35.25 37.15625 z M 37.15625 37.15625 L 38.625 37.15625 L 38.625 38.625 L 37.15625 38.625 L 37.15625 37.15625 z M 38.96875 37.15625 L 40.46875 37.15625 L 40.46875 38.625 L 38.96875 38.625 L 38.96875 37.15625 z M 40.875 37.15625 L 42.3125 37.15625 L 42.3125 38.625 L 40.875 38.625 L 40.875 37.15625 z M 42.6875 37.15625 L 44.1875 37.15625 L 44.1875 38.625 L 42.6875 38.625 L 42.6875 37.15625 z M 44.53125 37.15625 L 46 37.15625 L 46 38.625 L 44.53125 38.625 L 44.53125 37.15625 z M 46.375 37.15625 L 47.875 37.15625 L 47.875 38.625 L 46.375 38.625 L 46.375 37.15625 z M 0.125 38.96875 L 1.625 38.96875 L 1.625 40.46875 L 0.125 40.46875 L 0.125 38.96875 z M 2 38.96875 L 3.46875 38.96875 L 3.46875 40.46875 L 2 40.46875 L 2 38.96875 z M 3.8125 38.96875 L 5.3125 38.96875 L 5.3125 40.46875 L 3.8125 40.46875 L 3.8125 38.96875 z M 5.6875 38.96875 L 7.125 38.96875 L 7.125 40.46875 L 5.6875 40.46875 L 5.6875 38.96875 z M 7.53125 38.96875 L 9.03125 38.96875 L 9.03125 40.46875 L 7.53125 40.46875 L 7.53125 38.96875 z M 9.375 38.96875 L 10.84375 38.96875 L 10.84375 40.46875 L 9.375 40.46875 L 9.375 38.96875 z M 11.25 38.96875 L 12.75 38.96875 L 12.75 40.46875 L 11.25 40.46875 L 11.25 38.96875 z M 13.09375 38.96875 L 14.59375 38.96875 L 14.59375 40.46875 L 13.09375 40.46875 L 13.09375 38.96875 z M 14.9375 38.96875 L 16.40625 38.96875 L 16.40625 40.46875 L 14.9375 40.46875 L 14.9375 38.96875 z M 16.78125 38.96875 L 18.28125 38.96875 L 18.28125 40.46875 L 16.78125 40.46875 L 16.78125 38.96875 z M 18.625 38.96875 L 20.09375 38.96875 L 20.09375 40.46875 L 18.625 40.46875 L 18.625 38.96875 z M 20.4375 38.96875 L 21.9375 38.96875 L 21.9375 40.46875 L 20.4375 40.46875 L 20.4375 38.96875 z M 22.34375 38.96875 L 23.84375 38.96875 L 23.84375 40.46875 L 22.34375 40.46875 L 22.34375 38.96875 z M 24.1875 38.96875 L 25.65625 38.96875 L 25.65625 40.46875 L 24.1875 40.46875 L 24.1875 38.96875 z M 26.0625 38.96875 L 27.5625 38.96875 L 27.5625 40.46875 L 26.0625 40.46875 L 26.0625 38.96875 z M 27.90625 38.96875 L 29.375 38.96875 L 29.375 40.46875 L 27.90625 40.46875 L 27.90625 38.96875 z M 29.71875 38.96875 L 31.21875 38.96875 L 31.21875 40.46875 L 29.71875 40.46875 L 29.71875 38.96875 z M 31.59375 38.96875 L 33.0625 38.96875 L 33.0625 40.46875 L 31.59375 40.46875 L 31.59375 38.96875 z M 33.40625 38.96875 L 34.90625 38.96875 L 34.90625 40.46875 L 33.40625 40.46875 L 33.40625 38.96875 z M 35.25 38.96875 L 36.75 38.96875 L 36.75 40.46875 L 35.25 40.46875 L 35.25 38.96875 z M 37.15625 38.96875 L 38.625 38.96875 L 38.625 40.46875 L 37.15625 40.46875 L 37.15625 38.96875 z M 38.96875 38.96875 L 40.46875 38.96875 L 40.46875 40.46875 L 38.96875 40.46875 L 38.96875 38.96875 z M 40.875 38.96875 L 42.3125 38.96875 L 42.3125 40.46875 L 40.875 40.46875 L 40.875 38.96875 z M 42.6875 38.96875 L 44.1875 38.96875 L 44.1875 40.46875 L 42.6875 40.46875 L 42.6875 38.96875 z M 44.53125 38.96875 L 46 38.96875 L 46 40.46875 L 44.53125 40.46875 L 44.53125 38.96875 z M 46.375 38.96875 L 47.875 38.96875 L 47.875 40.46875 L 46.375 40.46875 L 46.375 38.96875 z M 0.125 40.875 L 1.625 40.875 L 1.625 42.3125 L 0.125 42.3125 L 0.125 40.875 z M 2 40.875 L 3.46875 40.875 L 3.46875 42.3125 L 2 42.3125 L 2 40.875 z M 3.8125 40.875 L 5.3125 40.875 L 5.3125 42.3125 L 3.8125 42.3125 L 3.8125 40.875 z M 5.6875 40.875 L 7.125 40.875 L 7.125 42.3125 L 5.6875 42.3125 L 5.6875 40.875 z M 7.53125 40.875 L 9.03125 40.875 L 9.03125 42.3125 L 7.53125 42.3125 L 7.53125 40.875 z M 9.375 40.875 L 10.84375 40.875 L 10.84375 42.3125 L 9.375 42.3125 L 9.375 40.875 z M 11.25 40.875 L 12.75 40.875 L 12.75 42.3125 L 11.25 42.3125 L 11.25 40.875 z M 13.09375 40.875 L 14.59375 40.875 L 14.59375 42.3125 L 13.09375 42.3125 L 13.09375 40.875 z M 14.9375 40.875 L 16.40625 40.875 L 16.40625 42.3125 L 14.9375 42.3125 L 14.9375 40.875 z M 16.78125 40.875 L 18.28125 40.875 L 18.28125 42.3125 L 16.78125 42.3125 L 16.78125 40.875 z M 18.625 40.875 L 20.09375 40.875 L 20.09375 42.3125 L 18.625 42.3125 L 18.625 40.875 z M 20.4375 40.875 L 21.9375 40.875 L 21.9375 42.3125 L 20.4375 42.3125 L 20.4375 40.875 z M 22.34375 40.875 L 23.84375 40.875 L 23.84375 42.3125 L 22.34375 42.3125 L 22.34375 40.875 z M 24.1875 40.875 L 25.65625 40.875 L 25.65625 42.3125 L 24.1875 42.3125 L 24.1875 40.875 z M 26.0625 40.875 L 27.5625 40.875 L 27.5625 42.3125 L 26.0625 42.3125 L 26.0625 40.875 z M 27.90625 40.875 L 29.375 40.875 L 29.375 42.3125 L 27.90625 42.3125 L 27.90625 40.875 z M 29.71875 40.875 L 31.21875 40.875 L 31.21875 42.3125 L 29.71875 42.3125 L 29.71875 40.875 z M 31.59375 40.875 L 33.0625 40.875 L 33.0625 42.3125 L 31.59375 42.3125 L 31.59375 40.875 z M 33.40625 40.875 L 34.90625 40.875 L 34.90625 42.3125 L 33.40625 42.3125 L 33.40625 40.875 z M 35.25 40.875 L 36.75 40.875 L 36.75 42.3125 L 35.25 42.3125 L 35.25 40.875 z M 37.15625 40.875 L 38.625 40.875 L 38.625 42.3125 L 37.15625 42.3125 L 37.15625 40.875 z M 38.96875 40.875 L 40.46875 40.875 L 40.46875 42.3125 L 38.96875 42.3125 L 38.96875 40.875 z M 40.875 40.875 L 42.3125 40.875 L 42.3125 42.3125 L 40.875 42.3125 L 40.875 40.875 z M 42.6875 40.875 L 44.1875 40.875 L 44.1875 42.3125 L 42.6875 42.3125 L 42.6875 40.875 z M 44.53125 40.875 L 46 40.875 L 46 42.3125 L 44.53125 42.3125 L 44.53125 40.875 z M 46.375 40.875 L 47.875 40.875 L 47.875 42.3125 L 46.375 42.3125 L 46.375 40.875 z M 0.125 42.6875 L 1.625 42.6875 L 1.625 44.1875 L 0.125 44.1875 L 0.125 42.6875 z M 2 42.6875 L 3.46875 42.6875 L 3.46875 44.1875 L 2 44.1875 L 2 42.6875 z M 3.8125 42.6875 L 5.3125 42.6875 L 5.3125 44.1875 L 3.8125 44.1875 L 3.8125 42.6875 z M 5.6875 42.6875 L 7.125 42.6875 L 7.125 44.1875 L 5.6875 44.1875 L 5.6875 42.6875 z M 7.53125 42.6875 L 9.03125 42.6875 L 9.03125 44.1875 L 7.53125 44.1875 L 7.53125 42.6875 z M 9.375 42.6875 L 10.84375 42.6875 L 10.84375 44.1875 L 9.375 44.1875 L 9.375 42.6875 z M 11.25 42.6875 L 12.75 42.6875 L 12.75 44.1875 L 11.25 44.1875 L 11.25 42.6875 z M 13.09375 42.6875 L 14.59375 42.6875 L 14.59375 44.1875 L 13.09375 44.1875 L 13.09375 42.6875 z M 14.9375 42.6875 L 16.40625 42.6875 L 16.40625 44.1875 L 14.9375 44.1875 L 14.9375 42.6875 z M 16.78125 42.6875 L 18.28125 42.6875 L 18.28125 44.1875 L 16.78125 44.1875 L 16.78125 42.6875 z M 18.625 42.6875 L 20.09375 42.6875 L 20.09375 44.1875 L 18.625 44.1875 L 18.625 42.6875 z M 20.4375 42.6875 L 21.9375 42.6875 L 21.9375 44.1875 L 20.4375 44.1875 L 20.4375 42.6875 z M 22.34375 42.6875 L 23.84375 42.6875 L 23.84375 44.1875 L 22.34375 44.1875 L 22.34375 42.6875 z M 24.1875 42.6875 L 25.65625 42.6875 L 25.65625 44.1875 L 24.1875 44.1875 L 24.1875 42.6875 z M 26.0625 42.6875 L 27.5625 42.6875 L 27.5625 44.1875 L 26.0625 44.1875 L 26.0625 42.6875 z M 27.90625 42.6875 L 29.375 42.6875 L 29.375 44.1875 L 27.90625 44.1875 L 27.90625 42.6875 z M 29.71875 42.6875 L 31.21875 42.6875 L 31.21875 44.1875 L 29.71875 44.1875 L 29.71875 42.6875 z M 31.59375 42.6875 L 33.0625 42.6875 L 33.0625 44.1875 L 31.59375 44.1875 L 31.59375 42.6875 z M 33.40625 42.6875 L 34.90625 42.6875 L 34.90625 44.1875 L 33.40625 44.1875 L 33.40625 42.6875 z M 35.25 42.6875 L 36.75 42.6875 L 36.75 44.1875 L 35.25 44.1875 L 35.25 42.6875 z M 37.15625 42.6875 L 38.625 42.6875 L 38.625 44.1875 L 37.15625 44.1875 L 37.15625 42.6875 z M 38.96875 42.6875 L 40.46875 42.6875 L 40.46875 44.1875 L 38.96875 44.1875 L 38.96875 42.6875 z M 40.875 42.6875 L 42.3125 42.6875 L 42.3125 44.1875 L 40.875 44.1875 L 40.875 42.6875 z M 42.6875 42.6875 L 44.1875 42.6875 L 44.1875 44.1875 L 42.6875 44.1875 L 42.6875 42.6875 z M 44.53125 42.6875 L 46 42.6875 L 46 44.1875 L 44.53125 44.1875 L 44.53125 42.6875 z M 46.375 42.6875 L 47.875 42.6875 L 47.875 44.1875 L 46.375 44.1875 L 46.375 42.6875 z M 0.125 44.53125 L 1.625 44.53125 L 1.625 46 L 0.125 46 L 0.125 44.53125 z M 2 44.53125 L 3.46875 44.53125 L 3.46875 46 L 2 46 L 2 44.53125 z M 3.8125 44.53125 L 5.3125 44.53125 L 5.3125 46 L 3.8125 46 L 3.8125 44.53125 z M 5.6875 44.53125 L 7.125 44.53125 L 7.125 46 L 5.6875 46 L 5.6875 44.53125 z M 7.53125 44.53125 L 9.03125 44.53125 L 9.03125 46 L 7.53125 46 L 7.53125 44.53125 z M 9.375 44.53125 L 10.84375 44.53125 L 10.84375 46 L 9.375 46 L 9.375 44.53125 z M 11.25 44.53125 L 12.75 44.53125 L 12.75 46 L 11.25 46 L 11.25 44.53125 z M 13.09375 44.53125 L 14.59375 44.53125 L 14.59375 46 L 13.09375 46 L 13.09375 44.53125 z M 14.9375 44.53125 L 16.40625 44.53125 L 16.40625 46 L 14.9375 46 L 14.9375 44.53125 z M 16.78125 44.53125 L 18.28125 44.53125 L 18.28125 46 L 16.78125 46 L 16.78125 44.53125 z M 18.625 44.53125 L 20.09375 44.53125 L 20.09375 46 L 18.625 46 L 18.625 44.53125 z M 20.4375 44.53125 L 21.9375 44.53125 L 21.9375 46 L 20.4375 46 L 20.4375 44.53125 z M 22.34375 44.53125 L 23.84375 44.53125 L 23.84375 46 L 22.34375 46 L 22.34375 44.53125 z M 24.1875 44.53125 L 25.65625 44.53125 L 25.65625 46 L 24.1875 46 L 24.1875 44.53125 z M 26.0625 44.53125 L 27.5625 44.53125 L 27.5625 46 L 26.0625 46 L 26.0625 44.53125 z M 27.90625 44.53125 L 29.375 44.53125 L 29.375 46 L 27.90625 46 L 27.90625 44.53125 z M 29.71875 44.53125 L 31.21875 44.53125 L 31.21875 46 L 29.71875 46 L 29.71875 44.53125 z M 31.59375 44.53125 L 33.0625 44.53125 L 33.0625 46 L 31.59375 46 L 31.59375 44.53125 z M 33.40625 44.53125 L 34.90625 44.53125 L 34.90625 46 L 33.40625 46 L 33.40625 44.53125 z M 35.25 44.53125 L 36.75 44.53125 L 36.75 46 L 35.25 46 L 35.25 44.53125 z M 37.15625 44.53125 L 38.625 44.53125 L 38.625 46 L 37.15625 46 L 37.15625 44.53125 z M 38.96875 44.53125 L 40.46875 44.53125 L 40.46875 46 L 38.96875 46 L 38.96875 44.53125 z M 40.875 44.53125 L 42.3125 44.53125 L 42.3125 46 L 40.875 46 L 40.875 44.53125 z M 42.6875 44.53125 L 44.1875 44.53125 L 44.1875 46 L 42.6875 46 L 42.6875 44.53125 z M 44.53125 44.53125 L 46 44.53125 L 46 46 L 44.53125 46 L 44.53125 44.53125 z M 46.375 44.53125 L 47.875 44.53125 L 47.875 46 L 46.375 46 L 46.375 44.53125 z M 2 46.375 L 3.46875 46.375 L 3.46875 47.875 L 2 47.875 L 2 46.375 z M 3.8125 46.375 L 5.3125 46.375 L 5.3125 47.875 L 3.8125 47.875 L 3.8125 46.375 z M 5.6875 46.375 L 7.125 46.375 L 7.125 47.875 L 5.6875 47.875 L 5.6875 46.375 z M 7.53125 46.375 L 9.03125 46.375 L 9.03125 47.875 L 7.53125 47.875 L 7.53125 46.375 z M 9.375 46.375 L 10.84375 46.375 L 10.84375 47.875 L 9.375 47.875 L 9.375 46.375 z M 11.25 46.375 L 12.75 46.375 L 12.75 47.875 L 11.25 47.875 L 11.25 46.375 z M 13.09375 46.375 L 14.59375 46.375 L 14.59375 47.875 L 13.09375 47.875 L 13.09375 46.375 z M 14.9375 46.375 L 16.40625 46.375 L 16.40625 47.875 L 14.9375 47.875 L 14.9375 46.375 z M 16.78125 46.375 L 18.28125 46.375 L 18.28125 47.875 L 16.78125 47.875 L 16.78125 46.375 z M 18.625 46.375 L 20.09375 46.375 L 20.09375 47.875 L 18.625 47.875 L 18.625 46.375 z M 20.4375 46.375 L 21.9375 46.375 L 21.9375 47.875 L 20.4375 47.875 L 20.4375 46.375 z M 22.34375 46.375 L 23.84375 46.375 L 23.84375 47.875 L 22.34375 47.875 L 22.34375 46.375 z M 24.1875 46.375 L 25.65625 46.375 L 25.65625 47.875 L 24.1875 47.875 L 24.1875 46.375 z M 26.0625 46.375 L 27.5625 46.375 L 27.5625 47.875 L 26.0625 47.875 L 26.0625 46.375 z M 27.90625 46.375 L 29.375 46.375 L 29.375 47.875 L 27.90625 47.875 L 27.90625 46.375 z M 29.71875 46.375 L 31.21875 46.375 L 31.21875 47.875 L 29.71875 47.875 L 29.71875 46.375 z M 31.59375 46.375 L 33.0625 46.375 L 33.0625 47.875 L 31.59375 47.875 L 31.59375 46.375 z M 33.40625 46.375 L 34.90625 46.375 L 34.90625 47.875 L 33.40625 47.875 L 33.40625 46.375 z M 35.25 46.375 L 36.75 46.375 L 36.75 47.875 L 35.25 47.875 L 35.25 46.375 z M 37.15625 46.375 L 38.625 46.375 L 38.625 47.875 L 37.15625 47.875 L 37.15625 46.375 z M 38.96875 46.375 L 40.46875 46.375 L 40.46875 47.875 L 38.96875 47.875 L 38.96875 46.375 z M 40.875 46.375 L 42.3125 46.375 L 42.3125 47.875 L 40.875 47.875 L 40.875 46.375 z M 42.6875 46.375 L 44.1875 46.375 L 44.1875 47.875 L 42.6875 47.875 L 42.6875 46.375 z M 44.53125 46.375 L 46 46.375 L 46 47.875 L 44.53125 47.875 L 44.53125 46.375 z "
       transform="translate(0,1004.3622)"
       id="path970" />
    <g
       id="g883"
       transform="matrix(0.84094904,0,0,0.84094904,2.8509289,162.59397)">
      <rect
         ry="0"
         y="1015.7997"
         x="6.1249995"
         height="0.43750003"
         width="35.75"
         id="rect816"
         style="opacity:0.95400002;color:#000000;fill:url(#radialGradient824);fill-opacity:1;fill-rule:nonzero;stroke:none;stroke-width:0.5;marker:none;visibility:visible;display:inline;overflow:visible;enable-background:accumulate" />
      <rect
         transform="matrix(0,-1,1,0,0,0)"
         style="opacity:0.95099996;color:#000000;fill:url(#radialGradient828);fill-opacity:1;fill-rule:nonzero;stroke:none;stroke-width:0.5;marker:none;visibility:visible;display:inline;overflow:visible;enable-background:accumulate"
         id="rect826"
         width="35.75"
         height="0.43750003"
         x="-1046.2372"
         y="32.729492"
         ry="0" />
      <rect
         ry="0"
         y="14.833006"
         x="-1046.2372"
         height="0.43750003"
         width="35.75"
         id="rect830"
         style="opacity:0.86100003;color:#000000;fill:url(#radialGradient832);fill-opacity:1;fill-rule:nonzero;stroke:none;stroke-width:0.5;marker:none;visibility:visible;display:inline;overflow:visible;enable-background:accumulate"
         transform="matrix(0,-1,1,0,0,0)" />
      <rect
         ry="0"
         y="1029.2975"
         x="6.1249995"
         height="0.43750003"
         width="35.75"
         id="rect834"
         style="opacity:0.95400002;color:#000000;fill:url(#radialGradient836);fill-opacity:1;fill-rule:nonzero;stroke:none;stroke-width:0.5;marker:none;visibility:visible;display:inline;overflow:visible;enable-background:accumulate" />
      <rect
         style="opacity:0.95400002;color:#000000;fill:url(#radialGradient840);fill-opacity:1;fill-rule:nonzero;stroke:none;stroke-width:0.5;marker:none;visibility:visible;display:inline;overflow:visible;enable-background:accumulate"
         id="rect838"
         width="35.75"
         height="0.43750003"
         x="6.1249995"
         y="1040.6104"
         ry="0" />
      <rect
         transform="matrix(0,-1,1,0,0,0)"
         ry="0"
         y="25.725794"
         x="-1048.5394"
         height="0.43750003"
         width="35.75"
         id="rect842"
         style="opacity:0.95099996;color:#000000;fill:url(#radialGradient844);fill-opacity:1;fill-rule:nonzero;stroke:none;stroke-width:0.5;marker:none;visibility:visible;display:inline;overflow:visible;enable-background:accumulate" />
      <rect
         style="opacity:0.95099996;color:#000000;fill:url(#radialGradient848);fill-opacity:1;fill-rule:nonzero;stroke:none;stroke-width:0.5;marker:none;visibility:visible;display:inline;overflow:visible;enable-background:accumulate"
         id="rect846"
         width="35.75"
         height="0.43750003"
         x="-1048.5394"
         y="30.171101"
         ry="0"
         transform="matrix(0,-1,1,0,0,0)" />
      <rect
         style="opacity:0.95400002;color:#000000;fill:url(#radialGradient854);fill-opacity:1;fill-rule:nonzero;stroke:none;stroke-width:0.5;marker:none;visibility:visible;display:inline;overflow:visible;enable-background:accumulate"
         id="rect850"
         width="35.75"
         height="0.43750003"
         x="6.1249995"
         y="1021.9604"
         ry="0" />
      <rect
         ry="0"
         y="1027.4404"
         x="8.4231043"
         height="0.43750003"
         width="35.75"
         id="rect852"
         style="opacity:0.95400002;color:#000000;fill:url(#radialGradient856);fill-opacity:1;fill-rule:nonzero;stroke:none;stroke-width:0.5;marker:none;visibility:visible;display:inline;overflow:visible;enable-background:accumulate" />
      <g
         id="text3784-5"
         style="font-size:34.314785px;font-style:normal;font-variant:normal;font-weight:normal;font-stretch:normal;line-height:125%;letter-spacing:0px;word-spacing:0px;opacity:0.95400002;fill:#ffffff;fill-opacity:1;stroke:none;font-family:Decker;-inkscape-font-specification:Decker">
        <path
           id="path868"
           style="fill:#ffffff;fill-opacity:1;font-family:Droid Serif;-inkscape-font-specification:Droid Serif"
           d="m 21.989368,1017.8231 0,9.9191 8.277101,0 0,1.6755 -8.277101,0 0,7.2886 q 0,0.8042 0.217818,1.2901 0.234574,0.4859 0.60319,0.754 0.385371,0.2513 0.904784,0.3351 0.519414,0.084 1.089093,0.084 l 1.139358,0 0,1.4409 -10.673105,0 0,-1.4409 0.435637,0 q 0.569679,0 1.072337,-0.067 0.519413,-0.084 0.904784,-0.3184 0.385372,-0.2346 0.60319,-0.687 0.234574,-0.4691 0.234574,-1.2231 l 0,-16.9898 q 0,-0.754 -0.234574,-1.2064 -0.217818,-0.4692 -0.60319,-0.7205 -0.385371,-0.2513 -0.904784,-0.3183 -0.502658,-0.084 -1.072337,-0.084 l -0.435637,0 0,-1.441 17.291435,0 0.167552,5.9984 -1.776058,0 -0.167552,-1.4744 q -0.06702,-0.5865 -0.268085,-1.0891 -0.201063,-0.5195 -0.586434,-0.8881 -0.368616,-0.3853 -0.938295,-0.6032 -0.569679,-0.2345 -1.373932,-0.2345 L 21.989368,1017.8231 Z"
           inkscape:connector-curvature="0" />
      </g>
    </g>
  </g>
</svg>
