<?xml version="1.0" encoding="UTF-8" standalone="no"?>
<!-- Created with Inkscape (http://www.inkscape.org/) -->

<svg
   xmlns:dc="http://purl.org/dc/elements/1.1/"
   xmlns:cc="http://creativecommons.org/ns#"
   xmlns:rdf="http://www.w3.org/1999/02/22-rdf-syntax-ns#"
   xmlns:svg="http://www.w3.org/2000/svg"
   xmlns="http://www.w3.org/2000/svg"
   xmlns:xlink="http://www.w3.org/1999/xlink"
   xmlns:sodipodi="http://sodipodi.sourceforge.net/DTD/sodipodi-0.dtd"
   xmlns:inkscape="http://www.inkscape.org/namespaces/inkscape"
   width="48"
   height="48"
   id="svg2"
   version="1.1"
   inkscape:version="0.48+devel r12084"
   sodipodi:docname="aim.svg">
  <defs
     id="defs4">
    <linearGradient
       id="linearGradient3698">
      <stop
         id="stop3700"
         offset="0"
         style="stop-color:#f69c3b;stop-opacity:1" />
      <stop
         style="stop-color:#ee4226;stop-opacity:1"
         offset="0.69999999"
         id="stop857" />
      <stop
         id="stop3702"
         offset="1"
         style="stop-color:#e84d19;stop-opacity:1" />
    </linearGradient>
    <linearGradient
       inkscape:collect="always"
       xlink:href="#linearGradient3698"
       id="linearGradient864"
       x1="-36.490707"
       y1="-1000.7935"
       x2="-36.490707"
       y2="-1048.615"
       gradientUnits="userSpaceOnUse"
       gradientTransform="translate(59.152416,-3.6579882)" />
  </defs>
  <sodipodi:namedview
     id="base"
     pagecolor="#ffffff"
     bordercolor="#666666"
     borderopacity="1.0"
     inkscape:pageopacity="0.0"
     inkscape:pageshadow="2"
     inkscape:zoom="5.6041667"
     inkscape:cx="13.65881"
     inkscape:cy="37.19102"
     inkscape:document-units="px"
     inkscape:current-layer="layer1"
     showgrid="false"
     inkscape:window-width="1366"
     inkscape:window-height="718"
     inkscape:window-x="0"
     inkscape:window-y="28"
     inkscape:window-maximized="1">
    <inkscape:grid
       type="xygrid"
       id="grid3850" />
  </sodipodi:namedview>
  <metadata
     id="metadata7">
    <rdf:RDF>
      <cc:Work
         rdf:about="">
        <dc:format>image/svg+xml</dc:format>
        <dc:type
           rdf:resource="http://purl.org/dc/dcmitype/StillImage" />
        <dc:title />
      </cc:Work>
    </rdf:RDF>
  </metadata>
  <g
     inkscape:label="Capa 1"
     inkscape:groupmode="layer"
     id="layer1"
     transform="translate(0,-1004.3622)">
    <rect
       style="fill:url(#linearGradient864);fill-opacity:1;stroke:none"
       id="rect2991-1"
       width="48"
       height="48"
       x="-1.1462402e-07"
       y="-1052.3622"
       ry="1.9445436"
       transform="scale(1,-1)" />
    <path
       inkscape:connector-curvature="0"
       style="fill:#000000;fill-opacity:1;stroke:none"
       d="m 1.1462402e-7,1049.3622 0,1.0625 c 0,1.0773 0.86022299537598,1.9375 1.93749998537598,1.9375 l 44.1249999,0 c 1.077277,0 1.9375,-0.8602 1.9375,-1.9375 l 0,-1.0625 c 0,1.0773 -0.860223,1.9375 -1.9375,1.9375 l -44.1249999,0 C 0.86022311,1051.2997 1.1462402e-7,1050.4395 1.1462402e-7,1049.3622 Z"
       id="rect846" />
    <path
       inkscape:connector-curvature="0"
       style="fill:#ffffff;fill-opacity:0.5372549;stroke:none"
       d="m 2.5312501,1005.0185 c -0.917089,0 -1.67114699,0.6395 -1.84374999,1.5 0.33561199,-0.2799 0.77451199,-0.4375 1.24999999,-0.4375 l 44.1249999,0 c 0.475488,0 0.914388,0.1576 1.25,0.4375 -0.172603,-0.8605 -0.926662,-1.5 -1.84375,-1.5 L 2.5312501,1005.0185 Z"
       id="path7515" />
    <path
       inkscape:connector-curvature="0"
       style="fill:#000000;fill-opacity:0.39215686;stroke:none"
       d="m 1.9375001,1004.3622 c -1.07727699,0 -1.93749998537598,0.8602 -1.93749998537598,1.9375 l 0,43.0625 c 0,0.7934 0.48002299537598,1.449 1.15624998537598,1.75 -0.30934199,-0.3333 -0.49999999,-0.7824 -0.49999999,-1.2812 l 0,-42.9375 c 0,-1.0482 0.82689899,-1.875 1.87499999,-1.875 l 42.9374999,0 c 1.048101,0 1.875,0.8268 1.875,1.875 l 0,42.9375 c 0,0.4988 -0.190658,0.9479 -0.5,1.2812 0.676226,-0.301 1.15625,-0.9566 1.15625,-1.75 l 0,-43.0625 c 0,-1.0773 -0.860223,-1.9375 -1.9375,-1.9375 L 1.9375001,1004.3622 Z"
       id="rect4280-9" />
    <path
       style="fill:#ffffff"
       d="m 21.60198,1043.9547 c 0.961264,-0.2669 2.751133,-1.3693 3.977482,-2.4484 l 2.229727,-1.9625 0.449152,1.1808 c 0.586838,1.544 2.770702,3.2384 4.17325,3.2384 2.766927,0 5.996977,-2.2544 5.996977,-4.1854 0,-0.9523 -0.245568,-1.1218 -1.629507,-1.1218 -3.137843,0 -3.668964,-2.3502 -2.009592,-8.8911 0.935315,-3.6874 1.08401,-4.9318 0.651466,-5.4529 -0.845076,-1.0186 -3.086093,-2.0592 -4.433484,-2.0592 -1.102676,0 -1.260445,0.2949 -1.998668,3.7392 -1.369717,6.3894 -1.664868,7.2688 -2.952863,8.8 -2.334706,2.7744 -5.602505,3.6752 -7.785686,2.146 -4.042256,-2.8308 -3.142707,-12.1108 1.548894,-15.9779 2.252082,-1.856 4.627851,-2.5667 8.582572,-2.5667 3.771481,0 5.81398,0.6204 8.222585,2.4979 1.511304,1.1791 1.862384,1.2891 2.103424,0.6607 0.452204,-1.1783 -0.217169,-3.8608 -1.396404,-5.5959 -1.874681,-2.7583 -4.198813,-3.5937 -9.9991,-3.5937 -4.55509,0 -5.339269,0.1344 -7.779294,1.3326 -7.196806,3.5341 -11.5587971,12.5203 -10.1638981,20.9386 C 10.598575,1041.9326 15.476836,1045.6558 21.60198,1043.9547 Z"
       id="path874"
       inkscape:connector-curvature="0"
       sodipodi:nodetypes="cscssssssssssssscsscsc" />
  </g>
</svg>
