<?xml version="1.0" encoding="UTF-8" standalone="no"?>
<!-- Created with Inkscape (http://www.inkscape.org/) -->

<svg
   xmlns:dc="http://purl.org/dc/elements/1.1/"
   xmlns:cc="http://creativecommons.org/ns#"
   xmlns:rdf="http://www.w3.org/1999/02/22-rdf-syntax-ns#"
   xmlns:svg="http://www.w3.org/2000/svg"
   xmlns="http://www.w3.org/2000/svg"
   xmlns:xlink="http://www.w3.org/1999/xlink"
   xmlns:sodipodi="http://sodipodi.sourceforge.net/DTD/sodipodi-0.dtd"
   xmlns:inkscape="http://www.inkscape.org/namespaces/inkscape"
   width="48"
   height="48.000008"
   id="svg3652"
   version="1.1"
   inkscape:version="0.48+devel r12106"
   sodipodi:docname="anjuta.svg">
  <defs
     id="defs3654">
    <linearGradient
       id="linearGradient985">
      <stop
         style="stop-color:#de87cd;stop-opacity:1"
         offset="0"
         id="stop987" />
      <stop
         style="stop-color:#672178;stop-opacity:1"
         offset="1"
         id="stop989" />
    </linearGradient>
    <linearGradient
       gradientTransform="matrix(0.58015547,0,0,1,-284.54252,0)"
       gradientUnits="userSpaceOnUse"
       y2="657.36115"
       x2="-668.97479"
       y1="689.62286"
       x1="-668.97479"
       id="linearGradient1156"
       xlink:href="#linearGradient1148"
       inkscape:collect="always" />
    <linearGradient
       id="linearGradient1148"
       inkscape:collect="always">
      <stop
         id="stop1150"
         offset="0"
         style="stop-color:#ffffff;stop-opacity:0" />
      <stop
         style="stop-color:#ffffff;stop-opacity:0.49803922;"
         offset="0.5"
         id="stop1158" />
      <stop
         id="stop1152"
         offset="1"
         style="stop-color:#ffffff;stop-opacity:0;" />
    </linearGradient>
    <linearGradient
       y2="657.36115"
       x2="-668.97479"
       y1="689.62286"
       x1="-668.97479"
       gradientTransform="matrix(0.58015547,0,0,1.2020305,-297.85385,-1495.3987)"
       gradientUnits="userSpaceOnUse"
       id="linearGradient1162"
       xlink:href="#linearGradient1176"
       inkscape:collect="always" />
    <linearGradient
       inkscape:collect="always"
       id="linearGradient1176">
      <stop
         style="stop-color:#ffffff;stop-opacity:0"
         offset="0"
         id="stop1178" />
      <stop
         id="stop1180"
         offset="0.89140642"
         style="stop-color:#ffffff;stop-opacity:0.49803922;" />
      <stop
         style="stop-color:#ffffff;stop-opacity:0;"
         offset="1"
         id="stop1182" />
    </linearGradient>
    <linearGradient
       y2="657.36115"
       x2="-668.97479"
       y1="689.62286"
       x1="-668.97479"
       gradientTransform="matrix(0.58015547,0,0,1.2020305,1050.3387,-124.09674)"
       gradientUnits="userSpaceOnUse"
       id="linearGradient1186"
       xlink:href="#linearGradient1176"
       inkscape:collect="always" />
    <linearGradient
       y2="657.36115"
       x2="-668.97479"
       y1="689.62286"
       x1="-668.97479"
       gradientTransform="matrix(0.58015547,0,0,1.2020305,1053.7316,-124.09674)"
       gradientUnits="userSpaceOnUse"
       id="linearGradient1196"
       xlink:href="#linearGradient1176"
       inkscape:collect="always" />
    <linearGradient
       y2="657.36115"
       x2="-668.97479"
       y1="689.62286"
       x1="-668.97479"
       gradientTransform="matrix(0.58015547,0,0,1,-310.34609,0)"
       gradientUnits="userSpaceOnUse"
       id="linearGradient1200"
       xlink:href="#linearGradient1148"
       inkscape:collect="always" />
    <linearGradient
       y2="657.36115"
       x2="-668.97479"
       y1="689.62286"
       x1="-668.97479"
       gradientTransform="matrix(0.58015547,0,0,1,-287.76797,0)"
       gradientUnits="userSpaceOnUse"
       id="linearGradient1208"
       xlink:href="#linearGradient1148"
       inkscape:collect="always" />
    <linearGradient
       y2="657.36115"
       x2="-668.97479"
       y1="689.62286"
       x1="-668.97479"
       gradientTransform="matrix(0.58015547,0,0,1,-290.99344,0)"
       gradientUnits="userSpaceOnUse"
       id="linearGradient1216"
       xlink:href="#linearGradient1148"
       inkscape:collect="always" />
    <linearGradient
       y2="657.36115"
       x2="-668.97479"
       y1="689.62286"
       x1="-668.97479"
       gradientTransform="matrix(0.58015547,0,0,1,-294.21888,0)"
       gradientUnits="userSpaceOnUse"
       id="linearGradient1222"
       xlink:href="#linearGradient1148"
       inkscape:collect="always" />
    <linearGradient
       y2="657.36115"
       x2="-668.97479"
       y1="689.62286"
       x1="-668.97479"
       gradientTransform="matrix(0.58015547,0,0,1,-297.44431,0)"
       gradientUnits="userSpaceOnUse"
       id="linearGradient1226"
       xlink:href="#linearGradient1148"
       inkscape:collect="always" />
    <linearGradient
       y2="657.36115"
       x2="-668.97479"
       y1="689.62286"
       x1="-668.97479"
       gradientTransform="matrix(0.58015547,0,0,1,-300.6698,0)"
       gradientUnits="userSpaceOnUse"
       id="linearGradient1234"
       xlink:href="#linearGradient1148"
       inkscape:collect="always" />
    <linearGradient
       y2="657.36115"
       x2="-668.97479"
       y1="689.62286"
       x1="-668.97479"
       gradientTransform="matrix(0.58015547,0,0,1,-303.89525,0)"
       gradientUnits="userSpaceOnUse"
       id="linearGradient1236"
       xlink:href="#linearGradient1148"
       inkscape:collect="always" />
    <linearGradient
       y2="657.36115"
       x2="-668.97479"
       y1="689.62286"
       x1="-668.97479"
       gradientTransform="matrix(0.58015547,0,0,1,-307.12068,0)"
       gradientUnits="userSpaceOnUse"
       id="linearGradient1238"
       xlink:href="#linearGradient1148"
       inkscape:collect="always" />
    <linearGradient
       y2="657.36115"
       x2="-668.97479"
       y1="689.62286"
       x1="-668.97479"
       gradientTransform="matrix(0.58015547,0,0,1.2020305,-290.02643,-1495.3987)"
       gradientUnits="userSpaceOnUse"
       id="linearGradient1246"
       xlink:href="#linearGradient1176"
       inkscape:collect="always" />
    <linearGradient
       y2="657.36115"
       x2="-668.97479"
       y1="689.62286"
       x1="-668.97479"
       gradientTransform="matrix(0.58015547,0,0,1.2020305,-294.55028,-1495.3987)"
       gradientUnits="userSpaceOnUse"
       id="linearGradient1250"
       xlink:href="#linearGradient1176"
       inkscape:collect="always" />
    <linearGradient
       y2="657.36115"
       x2="-668.97479"
       y1="689.62286"
       x1="-668.97479"
       gradientTransform="matrix(0.58015547,0,0,1.2020305,-285.50265,-1495.3987)"
       gradientUnits="userSpaceOnUse"
       id="linearGradient1254"
       xlink:href="#linearGradient1176"
       inkscape:collect="always" />
    <linearGradient
       y2="657.36115"
       x2="-668.97479"
       y1="689.62286"
       x1="-668.97479"
       gradientTransform="matrix(0.58015547,0,0,1.2020305,-280.97885,-1495.3987)"
       gradientUnits="userSpaceOnUse"
       id="linearGradient1258"
       xlink:href="#linearGradient1176"
       inkscape:collect="always" />
    <linearGradient
       inkscape:collect="always"
       xlink:href="#linearGradient985"
       id="linearGradient878"
       x1="292.16071"
       y1="-498.88004"
       x2="292.16071"
       y2="-546.36218"
       gradientUnits="userSpaceOnUse"
       gradientTransform="translate(58.107144,-9.7499925)" />
  </defs>
  <sodipodi:namedview
     id="base"
     pagecolor="#ffffff"
     bordercolor="#666666"
     borderopacity="1.0"
     inkscape:pageopacity="0.0"
     inkscape:pageshadow="2"
     inkscape:zoom="5.6"
     inkscape:cx="2.7203595"
     inkscape:cy="23.905802"
     inkscape:document-units="px"
     inkscape:current-layer="layer1"
     showgrid="false"
     width="0px"
     height="0px"
     fit-margin-top="0"
     fit-margin-left="0"
     fit-margin-right="0"
     fit-margin-bottom="0"
     inkscape:window-width="1366"
     inkscape:window-height="718"
     inkscape:window-x="0"
     inkscape:window-y="28"
     inkscape:window-maximized="1" />
  <metadata
     id="metadata3657">
    <rdf:RDF>
      <cc:Work
         rdf:about="">
        <dc:format>image/svg+xml</dc:format>
        <dc:type
           rdf:resource="http://purl.org/dc/dcmitype/StillImage" />
        <cc:license
           rdf:resource="" />
        <dc:title />
      </cc:Work>
    </rdf:RDF>
  </metadata>
  <g
     inkscape:label="Capa 1"
     inkscape:groupmode="layer"
     id="layer1"
     transform="translate(-326,-508.36218)">
    <rect
       style="fill:url(#linearGradient878);fill-opacity:1;stroke:none"
       id="rect2991-1"
       width="48"
       height="48"
       x="326"
       y="-556.36218"
       ry="1.9445436"
       transform="scale(1,-1)" />
    <path
       inkscape:connector-curvature="0"
       style="fill:#000000;fill-opacity:1;stroke:none"
       d="m 326,553.36219 0,1.0625 c 0,1.0773 0.86022,1.9375 1.9375,1.9375 l 44.125,0 c 1.07728,0 1.9375,-0.8602 1.9375,-1.9375 l 0,-1.0625 c 0,1.0773 -0.86022,1.9375 -1.9375,1.9375 l -44.125,0 C 326.86022,555.29969 326,554.43949 326,553.36219 Z"
       id="rect846" />
    <path
       inkscape:connector-curvature="0"
       style="fill:#ffffff;fill-opacity:0.5372549;stroke:none"
       d="m 328.53125,509.01849 c -0.91709,0 -1.67115,0.6395 -1.84375,1.5 0.33561,-0.2799 0.77451,-0.4375 1.25,-0.4375 l 44.125,0 c 0.47549,0 0.91439,0.1576 1.25,0.4375 -0.1726,-0.8605 -0.92666,-1.5 -1.84375,-1.5 L 328.53125,509.01849 Z"
       id="path7515" />
    <path
       inkscape:connector-curvature="0"
       style="fill:#000000;fill-opacity:0.39215686;stroke:none"
       d="m 327.9375,508.36219 c -1.07728,0 -1.9375,0.8602 -1.9375,1.9375 l 0,43.0625 c 0,0.7934 0.48002,1.449 1.15625,1.75 -0.30934,-0.3333 -0.5,-0.7824 -0.5,-1.2812 l 0,-42.9375 c 0,-1.0482 0.8269,-1.875 1.875,-1.875 l 42.9375,0 c 1.0481,0 1.875,0.8268 1.875,1.875 l 0,42.9375 c 0,0.4988 -0.19066,0.9479 -0.5,1.2812 0.67623,-0.301 1.15625,-0.9566 1.15625,-1.75 l 0,-43.0625 c 0,-1.0773 -0.86022,-1.9375 -1.9375,-1.9375 L 327.9375,508.36219 Z"
       id="rect4280-1" />
    <g
       transform="matrix(1.203506,0,0,1.203506,-475.18517,-278.37953)"
       id="g882">
      <rect
         transform="scale(-1,1)"
         style="fill:url(#linearGradient1156);fill-opacity:1;fill-rule:nonzero;stroke:none"
         id="rect1146"
         width="0.29302284"
         height="32.70369"
         x="-672.76178"
         y="657.29797"
         ry="0" />
      <rect
         ry="0"
         y="-705.3064"
         x="-686.07312"
         height="39.310833"
         width="0.29302284"
         id="rect1160"
         style="fill:url(#linearGradient1162);fill-opacity:1;fill-rule:nonzero;stroke:none"
         transform="matrix(0,-1,-1,0,0,0)" />
      <rect
         transform="matrix(0,1,1,0,0,0)"
         style="fill:url(#linearGradient1186);fill-opacity:1;fill-rule:nonzero;stroke:none"
         id="rect1184"
         width="0.29302284"
         height="39.310833"
         x="662.11938"
         y="665.99554"
         ry="0" />
      <rect
         ry="0"
         y="665.99554"
         x="665.51227"
         height="39.310833"
         width="0.29302284"
         id="rect1194"
         style="fill:url(#linearGradient1196);fill-opacity:1;fill-rule:nonzero;stroke:none"
         transform="matrix(0,1,1,0,0,0)" />
      <rect
         ry="0"
         y="657.29797"
         x="-698.56537"
         height="32.70369"
         width="0.29302284"
         id="rect1198"
         style="fill:url(#linearGradient1200);fill-opacity:1;fill-rule:nonzero;stroke:none"
         transform="scale(-1,1)" />
      <rect
         ry="0"
         y="657.29797"
         x="-675.98724"
         height="32.70369"
         width="0.29302284"
         id="rect1206"
         style="opacity:0.26800005;fill:url(#linearGradient1208);fill-opacity:1;fill-rule:nonzero;stroke:none"
         transform="scale(-1,1)" />
      <rect
         ry="0"
         y="657.29797"
         x="-679.21271"
         height="32.70369"
         width="0.29302284"
         id="rect1212"
         style="opacity:0.26800005;fill:url(#linearGradient1216);fill-opacity:1;fill-rule:nonzero;stroke:none"
         transform="scale(-1,1)" />
      <rect
         transform="scale(-1,1)"
         style="opacity:0.26800005;fill:url(#linearGradient1222);fill-opacity:1;fill-rule:nonzero;stroke:none"
         id="rect1220"
         width="0.29302284"
         height="32.70369"
         x="-682.43811"
         y="657.29797"
         ry="0" />
      <rect
         ry="0"
         y="657.29797"
         x="-685.66357"
         height="32.70369"
         width="0.29302284"
         id="rect1224"
         style="opacity:0.26800005;fill:url(#linearGradient1226);fill-opacity:1;fill-rule:nonzero;stroke:none"
         transform="scale(-1,1)" />
      <rect
         transform="scale(-1,1)"
         style="opacity:0.26800005;fill:url(#linearGradient1234);fill-opacity:1;fill-rule:nonzero;stroke:none"
         id="rect1228"
         width="0.29302284"
         height="32.70369"
         x="-688.88904"
         y="657.29797"
         ry="0" />
      <rect
         ry="0"
         y="657.29797"
         x="-692.1145"
         height="32.70369"
         width="0.29302284"
         id="rect1230"
         style="opacity:0.26800005;fill:url(#linearGradient1236);fill-opacity:1;fill-rule:nonzero;stroke:none"
         transform="scale(-1,1)" />
      <rect
         transform="scale(-1,1)"
         style="opacity:0.26800005;fill:url(#linearGradient1238);fill-opacity:1;fill-rule:nonzero;stroke:none"
         id="rect1232"
         width="0.29302284"
         height="32.70369"
         x="-695.3399"
         y="657.29797"
         ry="0" />
      <rect
         ry="0"
         y="-705.3064"
         x="-678.24573"
         height="39.310833"
         width="0.29302284"
         id="rect1244"
         style="opacity:0.28985506;fill:url(#linearGradient1246);fill-opacity:1;fill-rule:nonzero;stroke:none"
         transform="matrix(0,-1,-1,0,0,0)" />
      <rect
         transform="matrix(0,-1,-1,0,0,0)"
         style="opacity:0.28985506;fill:url(#linearGradient1250);fill-opacity:1;fill-rule:nonzero;stroke:none"
         id="rect1248"
         width="0.29302284"
         height="39.310833"
         x="-682.76953"
         y="-705.3064"
         ry="0" />
      <rect
         ry="0"
         y="-705.3064"
         x="-673.72186"
         height="39.310833"
         width="0.29302284"
         id="rect1252"
         style="opacity:0.28985506;fill:url(#linearGradient1254);fill-opacity:1;fill-rule:nonzero;stroke:none"
         transform="matrix(0,-1,-1,0,0,0)" />
      <rect
         transform="matrix(0,-1,-1,0,0,0)"
         style="opacity:0.28985506;fill:url(#linearGradient1258);fill-opacity:1;fill-rule:nonzero;stroke:none"
         id="rect1256"
         width="0.29302284"
         height="39.310833"
         x="-669.19806"
         y="-705.3064"
         ry="0" />
      <rect
         y="683.05865"
         x="676.07513"
         height="2.1428571"
         width="5.9821429"
         id="rect1260"
         style="fill:#ffffff;fill-opacity:0.32571429;fill-rule:nonzero;stroke:none" />
      <path
         inkscape:connector-curvature="0"
         id="rect1264"
         d="m 676.14527,670.33986 0,2.44374 2.41929,0 0,-2.44374 L 676.14527,670.33986 z m 1.73505,0.61093 0.24437,0.24438 -0.73312,0.75756 -0.24437,0.24437 -0.29325,-0.29325 -0.26881,-0.26881 0.24437,-0.24437 0.29325,0.29324 L 677.88032,670.95079 Z"
         style="fill:#ffffff;fill-opacity:0.32571429;fill-rule:nonzero;stroke:none" />
      <path
         inkscape:connector-curvature="0"
         style="fill:#ffffff;fill-opacity:0.32571429;fill-rule:nonzero;stroke:none"
         d="m 676.14527,674.71308 0,2.44374 2.41929,0 0,-2.44374 L 676.14527,674.71308 z m 1.73505,0.61094 0.24437,0.24437 -0.73312,0.75756 -0.24437,0.24437 -0.29325,-0.29324 -0.26881,-0.26882 0.24437,-0.24437 0.29325,0.29325 L 677.88032,675.32402 Z"
         id="path879" />
      <rect
         style="fill:#ffffff;fill-opacity:0.32571429;fill-rule:nonzero;stroke:none"
         id="rect881"
         width="5.9821429"
         height="2.1428571"
         x="688.97693"
         y="683.05865" />
    </g>
  </g>
</svg>
