<?xml version="1.0" encoding="UTF-8" standalone="no"?>
<!-- Created with Inkscape (http://www.inkscape.org/) -->

<svg
   xmlns:dc="http://purl.org/dc/elements/1.1/"
   xmlns:cc="http://creativecommons.org/ns#"
   xmlns:rdf="http://www.w3.org/1999/02/22-rdf-syntax-ns#"
   xmlns:svg="http://www.w3.org/2000/svg"
   xmlns="http://www.w3.org/2000/svg"
   xmlns:xlink="http://www.w3.org/1999/xlink"
   xmlns:sodipodi="http://sodipodi.sourceforge.net/DTD/sodipodi-0.dtd"
   xmlns:inkscape="http://www.inkscape.org/namespaces/inkscape"
   width="48"
   height="48"
   id="svg2"
   version="1.1"
   inkscape:version="0.48+devel r12106"
   sodipodi:docname="audacious.svg"
   inkscape:export-filename="/home/uri/Iconos/NITRUX/apps/16/audacious.png"
   inkscape:export-xdpi="30"
   inkscape:export-ydpi="30">
  <defs
     id="defs4">
    <linearGradient
       id="linearGradient1218"
       inkscape:collect="always">
      <stop
         id="stop1220"
         offset="0"
         style="stop-color:#f9f9f9;stop-opacity:1" />
      <stop
         id="stop1222"
         offset="1"
         style="stop-color:#ffffff;stop-opacity:1" />
    </linearGradient>
    <linearGradient
       inkscape:collect="always"
       id="linearGradient983">
      <stop
         style="stop-color:#ffffff;stop-opacity:1;"
         offset="0"
         id="stop985" />
      <stop
         style="stop-color:#ffffff;stop-opacity:0;"
         offset="1"
         id="stop987" />
    </linearGradient>
    <linearGradient
       inkscape:collect="always"
       id="linearGradient964">
      <stop
         style="stop-color:#000000;stop-opacity:1;"
         offset="0"
         id="stop966" />
      <stop
         style="stop-color:#000000;stop-opacity:0;"
         offset="1"
         id="stop968" />
    </linearGradient>
    <linearGradient
       id="linearGradient1215">
      <stop
         id="stop1217"
         offset="0"
         style="stop-color:#050505;stop-opacity:1" />
      <stop
         id="stop1219"
         offset="1"
         style="stop-color:#2e3b44;stop-opacity:1" />
    </linearGradient>
    <linearGradient
       inkscape:collect="always"
       xlink:href="#linearGradient12826"
       id="linearGradient963"
       x1="-0.74285024"
       y1="1048.3107"
       x2="49.270245"
       y2="1019.2572"
       gradientUnits="userSpaceOnUse"
       gradientTransform="matrix(1.0250364,0,0,1.0250364,-0.60087465,-25.746223)" />
    <linearGradient
       inkscape:collect="always"
       xlink:href="#linearGradient1218"
       id="linearGradient846"
       x1="-53.999367"
       y1="-1046.4377"
       x2="-53.999367"
       y2="-997.99951"
       gradientUnits="userSpaceOnUse"
       gradientTransform="translate(68.750893,-6.052015)" />
    <linearGradient
       x1="0"
       y1="0"
       x2="1"
       y2="0"
       gradientUnits="userSpaceOnUse"
       gradientTransform="matrix(-8.302958e-7,-18.93786,18.93786,-8.302958e-7,9.518287,1036.8856)"
       spreadMethod="pad"
       id="linearGradient5364">
      <stop
         style="stop-opacity:1;stop-color:#11181d"
         offset="0"
         id="stop5366" />
      <stop
         style="stop-opacity:1;stop-color:#a4b0c0"
         offset="1"
         id="stop5368" />
    </linearGradient>
    <linearGradient
       inkscape:collect="always"
       xlink:href="#linearGradient1215"
       id="linearGradient953"
       gradientUnits="userSpaceOnUse"
       gradientTransform="matrix(0.87499999,0,0,0.87499999,63.157031,1922.8836)"
       x1="-40.999367"
       y1="-998.18768"
       x2="-40.999367"
       y2="-1046.6245" />
    <linearGradient
       inkscape:collect="always"
       xlink:href="#linearGradient964"
       id="linearGradient970"
       x1="28.195883"
       y1="1.7728938"
       x2="28.195883"
       y2="5.1316509"
       gradientUnits="userSpaceOnUse" />
    <linearGradient
       inkscape:collect="always"
       xlink:href="#linearGradient983"
       id="linearGradient989"
       x1="28.875"
       y1="19"
       x2="28.875"
       y2="2.6249995"
       gradientUnits="userSpaceOnUse" />
    <linearGradient
       x1="0"
       y1="0"
       x2="1"
       y2="0"
       gradientUnits="userSpaceOnUse"
       gradientTransform="matrix(102.54324,263.67313,263.67313,-102.54324,983.50684,1838.207)"
       spreadMethod="pad"
       id="linearGradient12826">
      <stop
         style="stop-opacity:1;stop-color:#ffffff"
         offset="0"
         id="stop12828" />
      <stop
         style="stop-opacity:1;stop-color:#6b6b6b"
         offset="0.199997"
         id="stop12830" />
      <stop
         style="stop-opacity:1;stop-color:#ffffff"
         offset="0.330002"
         id="stop12832" />
      <stop
         style="stop-opacity:1;stop-color:#ffffff"
         offset="0.62774891"
         id="stop12834" />
      <stop
         style="stop-opacity:1;stop-color:#6e6e6e"
         offset="0.78614467"
         id="stop12836" />
      <stop
         style="stop-opacity:1;stop-color:#404040"
         offset="1"
         id="stop12838" />
    </linearGradient>
  </defs>
  <sodipodi:namedview
     id="base"
     pagecolor="#ffffff"
     bordercolor="#666666"
     borderopacity="1.0"
     inkscape:pageopacity="0.0"
     inkscape:pageshadow="2"
     inkscape:zoom="4"
     inkscape:cx="23.317395"
     inkscape:cy="39.228176"
     inkscape:document-units="px"
     inkscape:current-layer="layer1"
     showgrid="false"
     inkscape:window-width="1366"
     inkscape:window-height="718"
     inkscape:window-x="0"
     inkscape:window-y="28"
     inkscape:window-maximized="1"
     showguides="true"
     inkscape:guide-bbox="true">
    <inkscape:grid
       type="xygrid"
       id="grid3850" />
  </sodipodi:namedview>
  <metadata
     id="metadata7">
    <rdf:RDF>
      <cc:Work
         rdf:about="">
        <dc:format>image/svg+xml</dc:format>
        <dc:type
           rdf:resource="http://purl.org/dc/dcmitype/StillImage" />
        <dc:title />
      </cc:Work>
    </rdf:RDF>
  </metadata>
  <g
     inkscape:label="Capa 1"
     inkscape:groupmode="layer"
     id="layer1"
     transform="translate(0,-1004.3622)">
    <rect
       style="fill:url(#linearGradient846);fill-opacity:1;stroke:none"
       id="rect2991-1"
       width="48"
       height="48"
       x="1.8041993e-07"
       y="-1052.3622"
       ry="1.9445436"
       transform="scale(1,-1)" />
    <rect
       style="fill:#000000;fill-opacity:1;stroke:none"
       id="rect972"
       width="43.099995"
       height="43.099995"
       x="2.4500027"
       y="1006.8122"
       ry="1.7460381" />
    <path
       inkscape:connector-curvature="0"
       style="fill:#000000;fill-opacity:1;stroke:none"
       d="m -1.8041992e-7,1049.3622 0,1.0625 c 0,1.0773 0.86022300041992,1.9375 1.93749998041992,1.9375 l 44.1250002,0 c 1.077277,0 1.9375,-0.8602 1.9375,-1.9375 l 0,-1.0625 c 0,1.0773 -0.860223,1.9375 -1.9375,1.9375 l -44.1250002,0 C 0.86022282,1051.2997 -1.8041992e-7,1050.4395 -1.8041992e-7,1049.3622 Z"
       id="rect846" />
    <path
       inkscape:connector-curvature="0"
       style="fill:#ffffff;fill-opacity:0.5372549;stroke:none"
       d="m 2.5312498,1005.0185 c -0.917088,0 -1.67114698,0.6395 -1.84374998,1.5 0.33561198,-0.2799 0.77451198,-0.4375 1.24999998,-0.4375 l 44.1250002,0 c 0.475488,0 0.914388,0.1576 1.25,0.4375 -0.172603,-0.8605 -0.926662,-1.5 -1.84375,-1.5 L 2.5312498,1005.0185 Z"
       id="path7515" />
    <path
       inkscape:connector-curvature="0"
       style="fill:#000000;fill-opacity:0.39215686;stroke:none"
       d="m 1.9374998,1004.3622 c -1.07727698,0 -1.93749998041992,0.8602 -1.93749998041992,1.9375 l 0,43.0625 c 0,0.7934 0.48002400041992,1.449 1.15624998041992,1.75 -0.30934198,-0.3333 -0.49999998,-0.7824 -0.49999998,-1.2812 l 0,-42.9375 c 0,-1.0482 0.82689898,-1.875 1.87499998,-1.875 l 42.9375002,0 c 1.048101,0 1.875,0.8268 1.875,1.875 l 0,42.9375 c 0,0.4988 -0.190658,0.9479 -0.5,1.2812 0.676226,-0.301 1.15625,-0.9566 1.15625,-1.75 l 0,-43.0625 c 0,-1.0773 -0.860223,-1.9375 -1.9375,-1.9375 L 1.9374998,1004.3622 Z"
       id="rect4280-6" />
    <rect
       ry="1.7014757"
       y="1007.3622"
       x="3.0000002"
       height="42"
       width="42"
       id="rect951"
       style="fill:url(#linearGradient953);fill-opacity:1;stroke:none" />
    <path
       style="fill:url(#linearGradient5364);fill-opacity:1;fill-rule:nonzero;stroke:none"
       d="m 6.78125,1017.1732 0,1.3245 5.456229,0 0,-1.3245 L 6.78125,1017.1732 z m 28.9615,0.042 0,1.3443 5.476,0 0,-1.3443 L 35.74275,1017.2128 z m -21.706299,1.8584 0,1.3441 5.456229,0 0,-1.3441 L 14.036451,1019.071 z m 14.470869,1.1466 0,1.3442 5.45623,0 0,-1.3442 L 28.50732,1020.2176 z m -21.72607,1.0477 0,1.7396 5.456229,0 0,-1.7396 L 6.78125,1021.2655 z m 14.490637,1.3048 0,1.3443 5.456226,0 0,-1.3443 L 21.271887,1022.5701 z m -14.490637,1.4827 0,1.7395 5.456229,0 0,-1.7395 L 6.78125,1024.0528 z m 7.255201,0 0,1.7395 5.456229,0 0,-1.7395 L 14.036451,1024.0528 z m 21.706299,0 0,1.7395 5.476,0 0,-1.7395 L 35.74275,1024.0528 z m -28.9615,2.8071 0,1.7397 5.456229,0 0,-1.7397 L 6.78125,1026.8601 z m 7.255201,0 0,1.7397 5.456229,0 0,-1.7397 L 14.036451,1026.8601 z m 7.235436,0 0,1.7397 5.456226,0 0,-1.7397 L 21.271887,1026.8601 z m 7.235433,0 0,1.7397 5.45623,0 0,-1.7397 L 28.50732,1026.8601 z m 7.23543,0 0,1.7397 5.476,0 0,-1.7397 L 35.74275,1026.8601 z m -28.9615,2.7875 0,1.7395 5.456229,0 0,-1.7395 L 6.78125,1029.6475 z m 7.255201,0 0,1.7395 5.456229,0 0,-1.7395 L 14.036451,1029.6475 z m 7.235436,0 0,1.7395 5.456226,0 0,-1.7395 L 21.271887,1029.6475 z m 7.235433,0 0,1.7395 5.45623,0 0,-1.7395 L 28.50732,1029.6475 z m 7.23543,0 0,1.7395 5.476,0 0,-1.7395 L 35.74275,1029.6475 z m -28.9615,2.807 0,1.7399 5.456229,0 0,-1.7399 L 6.78125,1032.4547 z m 7.255201,0 0,1.7399 5.456229,0 0,-1.7399 L 14.036451,1032.4547 z m 7.235436,0 0,1.7399 5.456226,0 0,-1.7399 L 21.271887,1032.4547 z m 7.235433,0 0,1.7399 5.45623,0 0,-1.7399 L 28.50732,1032.4547 z m 7.23543,0 0,1.7399 5.476,0 0,-1.7399 L 35.74275,1032.4547 z m -28.9615,2.7875 0,1.7397 5.456229,0 0,-1.7397 L 6.78125,1035.2422 z m 7.255201,0 0,1.7397 5.456229,0 0,-1.7397 L 14.036451,1035.2422 z m 7.235436,0 0,1.7397 5.456226,0 0,-1.7397 L 21.271887,1035.2422 z m 7.235433,0 0,1.7397 5.45623,0 0,-1.7397 L 28.50732,1035.2422 z m 7.23543,0 0,1.7397 5.476,0 0,-1.7397 L 35.74275,1035.2422 z m -28.9615,2.8072 0,1.5025 5.456229,0 0,-1.5025 L 6.78125,1038.0492 z m 7.255201,0 0,1.5025 5.456229,0 0,-1.5025 L 14.036451,1038.0492 z m 7.235436,0 0,1.5025 5.456226,0 0,-1.5025 L 21.271887,1038.0492 z m 7.235433,0 0,1.5025 5.45623,0 0,-1.5025 L 28.50732,1038.0492 z m 7.23543,0 0,1.5025 5.476,0 0,-1.5025 L 35.74275,1038.0492 Z"
       id="path5370"
       inkscape:connector-curvature="0" />
    <rect
       style="fill:#ffffff;fill-opacity:0.10059172;stroke:none"
       id="rect976"
       width="42"
       height="42"
       x="3.0000002"
       y="1007.3622"
       ry="1.7014757" />
    <path
       style="fill:url(#linearGradient970);fill-opacity:1;stroke:none"
       d="M 4.6875 3 C 3.7448824 3 3 3.7448824 3 4.6875 L 3 5.40625 L 45 5.40625 L 45 4.6875 C 45 3.7448824 44.255118 3 43.3125 3 L 4.6875 3 z "
       transform="translate(0,1004.3622)"
       id="rect956" />
    <path
       style="fill:url(#linearGradient989);fill-opacity:1;stroke:none;opacity:0.191"
       d="M 4.6875 3 C 3.7448824 3 3 3.7448824 3 4.6875 L 3 18.75 L 45 18.75 L 45 4.6875 C 45 3.7448824 44.255118 3 43.3125 3 L 4.6875 3 z "
       transform="translate(0,1004.3622)"
       id="rect978" />
    <g
       id="g1113"
       transform="matrix(1.0197838,0,0,1.0197838,-0.4748112,-20.686234)">
      <path
         style="opacity:0.82599996;fill:#2d81ff;fill-opacity:0.14792899;stroke:none"
         d="m 24.154488,1013.9943 c -6.317612,0 -11.411637,5.0947 -11.411637,11.4124 l 0,17.3235 2.286447,0 c -0.02649,-0.3113 -0.04121,-0.6292 -0.04121,-0.9477 l 0,-15.3047 c 0,-5.5441 4.090366,-10.0109 9.166392,-10.0109 5.076025,0 9.16639,4.4669 9.16639,10.0109 l 0,15.3047 c 0,0.3185 -0.0147,0.6364 -0.04121,0.9477 l 2.28645,0 0,-17.3235 C 35.566129,1019.089 30.4721,1013.9943 24.154488,1013.9943 z m -12.503365,12.8542 c -3.4405374,0.4878 -6.1177945,3.3208 -6.1177945,6.9003 l 0,2.0806 c 0,3.5791 2.6772571,6.4129 6.1177945,6.9008 L 11.651123,1026.8485 z m 24.718356,0 0,15.8817 c 3.440531,-0.4879 6.097193,-3.3217 6.097193,-6.9008 l 0,-2.0806 C 42.466672,1030.1692 39.81001,1027.3363 36.369479,1026.8485 Z"
         id="path965"
         inkscape:connector-curvature="0" />
      <path
         inkscape:connector-curvature="0"
         id="path946"
         d="m 24.154488,1013.9943 c -6.317612,0 -11.411637,5.0947 -11.411637,11.4123 l 0,17.3236 2.286447,0 c -0.02649,-0.3114 -0.04121,-0.6293 -0.04121,-0.9477 l 0,-15.3047 c 0,-5.5442 4.090366,-10.0109 9.166392,-10.0109 5.076025,0 9.16639,4.4669 9.16639,10.0109 l 0,15.3047 c 0,0.3184 -0.0147,0.6363 -0.04121,0.9477 l 2.28645,0 0,-17.3236 C 35.566129,1019.089 30.4721,1013.9943 24.154488,1013.9943 z m -12.503365,12.8541 c -3.4405377,0.4876 -6.1177948,3.3208 -6.1177948,6.9003 l 0,2.0805 c 0,3.5792 2.6772571,6.413 6.1177948,6.9008 L 11.651123,1026.8484 z m 24.718356,0 0,15.8816 c 3.440531,-0.4882 6.097193,-3.3216 6.097193,-6.9008 l 0,-2.0805 C 42.466672,1030.1692 39.81001,1027.3361 36.369479,1026.8484 Z"
         style="fill:url(#linearGradient963);fill-opacity:1;stroke:none" />
      <path
         transform="translate(0,1004.3622)"
         id="path1031"
         d="M 24.15625,9.625 C 17.838638,9.625 12.75,14.71365 12.75,21.03125 l 0,1.0625 c 0,-6.3176 5.088638,-11.40625 11.40625,-11.40625 6.317612,0 11.406269,5.08865 11.40625,11.40625 l 0,-1.0625 C 35.562519,14.71365 30.473862,9.625 24.15625,9.625 z m -12.5,12.875 c -3.4405377,0.4876 -6.125,3.2955 -6.125,6.875 l 0,1.0625 c 0,-3.5795 2.6844623,-6.3874 6.125,-6.875 L 11.65625,22.5 z m 24.71875,0 0,1.0625 c 3.440531,0.4877 6.09375,3.2955 6.09375,6.875 l 0,-1.0625 C 42.46875,25.7955 39.815531,22.9877 36.375,22.5 Z M 15,37.40625 l 0,0.96875 0.03125,0 C 15.00476,38.0636 15,37.72465 15,37.40625 z m 18.3125,0 c 0,0.3184 -0.0047,0.65735 -0.03125,0.96875 l 0.03125,0 L 33.3125,37.40625 Z"
         style="fill:#ffffff;fill-opacity:0.17159765;stroke:none"
         inkscape:connector-curvature="0" />
      <path
         inkscape:connector-curvature="0"
         id="path1026"
         d="m 24.15625,1015.3552 c -5.076026,0 -9.15625,4.4558 -9.15625,10 l 0,1.125 c 0,-5.5442 4.080224,-10 9.15625,-10 5.076025,0 9.15625,4.456 9.15625,10 l 0,-1.125 C 33.3125,1019.8112 29.232275,1015.3552 24.15625,1015.3552 z m -18.625,19.3438 0,1.125 c 0,3.5792 2.6844623,6.4184 6.125,6.9062 l 0,-1.125 C 8.2157123,1041.1174 5.53125,1038.2782 5.53125,1034.699 z m 36.9375,0 c 0,3.5792 -2.653219,6.418 -6.09375,6.9062 l 0,1.125 c 3.440531,-0.4882 6.09375,-3.327 6.09375,-6.9062 L 42.46875,1034.699 z m -29.71875,6.9062 0,1.125 2.28125,0 C 15.00476,1042.4188 15,1042.1111 15,1041.7927 l 0,-0.1875 L 12.75,1041.6052 z m 20.5625,0 0,0.1875 c 0,0.3184 -0.0047,0.6261 -0.03125,0.9375 l 2.28125,0 0,-1.125 L 33.3125,1041.6052 Z"
         style="fill:#000000;fill-opacity:0.36686389;stroke:none" />
      <path
         style="fill:#000000;fill-opacity:0.11834322;stroke:none"
         d="m 24.15625,1015.8864 c -5.076026,0 -9.15625,4.4558 -9.15625,10 l 0,1.125 c 0,-5.5442 4.080224,-10 9.15625,-10 5.076025,0 9.15625,4.456 9.15625,10 l 0,-1.125 C 33.3125,1020.3424 29.232275,1015.8864 24.15625,1015.8864 z m -18.625,19.3438 0,1.125 c 0,3.5792 2.6844623,6.4184 6.125,6.9062 l 0,-1.125 C 8.2157123,1041.6486 5.53125,1038.8094 5.53125,1035.2302 z m 36.9375,0 c 0,3.5792 -2.653219,6.418 -6.09375,6.9062 l 0,1.125 c 3.440531,-0.4882 6.09375,-3.327 6.09375,-6.9062 L 42.46875,1035.2302 z m -29.71875,6.9062 0,1.125 2.28125,0 C 15.00476,1042.95 15,1042.6423 15,1042.3239 l 0,-0.1875 L 12.75,1042.1364 z m 20.5625,0 0,0.1875 c 0,0.3184 -0.0047,0.6261 -0.03125,0.9375 l 2.28125,0 0,-1.125 L 33.3125,1042.1364 Z"
         id="path1036"
         inkscape:connector-curvature="0" />
      <path
         inkscape:connector-curvature="0"
         style="fill:#ffffff;fill-opacity:0.04142013;stroke:none"
         d="m 24.15625,1013.4136 c -6.317612,0 -11.40625,5.0887 -11.40625,11.4063 l 0,1.0625 c 0,-6.3176 5.088638,-11.4063 11.40625,-11.4063 6.317612,0 11.406269,5.0887 11.40625,11.4063 l 0,-1.0625 C 35.562519,1018.5023 30.473862,1013.4136 24.15625,1013.4136 z m -12.5,12.875 c -3.4405377,0.4876 -6.125,3.2955 -6.125,6.875 l 0,1.0625 c 0,-3.5795 2.6844623,-6.3874 6.125,-6.875 L 11.65625,1026.2886 z m 24.71875,0 0,1.0625 c 3.440531,0.4877 6.09375,3.2955 6.09375,6.875 l 0,-1.0625 C 42.46875,1029.5841 39.815531,1026.7763 36.375,1026.2886 Z M 15,1041.1949 l 0,0.9687 0.03125,0 C 15.00476,1041.8522 15,1041.5133 15,1041.1949 z m 18.3125,0 c 0,0.3184 -0.0047,0.6573 -0.03125,0.9687 l 0.03125,0 L 33.3125,1041.1949 Z"
         id="path1038" />
      <path
         style="fill:#000000;fill-opacity:0.08284021;stroke:none"
         d="m 24.15625,1017.0115 c -5.076026,0 -9.15625,4.4558 -9.15625,10 l 0,1.125 c 0,-5.5442 4.080224,-10 9.15625,-10 5.076025,0 9.15625,4.456 9.15625,10 l 0,-1.125 C 33.3125,1021.4675 29.232275,1017.0115 24.15625,1017.0115 z m -18.625,19.3438 0,1.125 c 0,3.5792 2.6844623,6.4184 6.125,6.9062 l 0,-1.125 C 8.2157123,1042.7737 5.53125,1039.9345 5.53125,1036.3553 z m 36.9375,0 c 0,3.5792 -2.653219,6.418 -6.09375,6.9062 l 0,1.125 c 3.440531,-0.4882 6.09375,-3.327 6.09375,-6.9062 L 42.46875,1036.3553 z m -29.71875,6.9062 0,1.125 2.28125,0 C 15.00476,1044.0751 15,1043.7674 15,1043.449 l 0,-0.1875 L 12.75,1043.2615 z m 20.5625,0 0,0.1875 c 0,0.3184 -0.0047,0.6261 -0.03125,0.9375 l 2.28125,0 0,-1.125 L 33.3125,1043.2615 Z"
         id="path1042"
         inkscape:connector-curvature="0" />
      <path
         inkscape:connector-curvature="0"
         id="path1040"
         d="m 24.15625,1016.3552 c -5.076026,0 -9.15625,4.4558 -9.15625,10 l 0,1.125 c 0,-5.5442 4.080224,-10 9.15625,-10 5.076025,0 9.15625,4.456 9.15625,10 l 0,-1.125 C 33.3125,1020.8112 29.232275,1016.3552 24.15625,1016.3552 z m -18.625,19.3438 0,1.125 c 0,3.5792 2.6844623,6.4184 6.125,6.9062 l 0,-1.125 C 8.2157123,1042.1174 5.53125,1039.2782 5.53125,1035.699 z m 36.9375,0 c 0,3.5792 -2.653219,6.418 -6.09375,6.9062 l 0,1.125 c 3.440531,-0.4882 6.09375,-3.327 6.09375,-6.9062 L 42.46875,1035.699 z m -29.71875,6.9062 0,1.125 2.28125,0 C 15.00476,1043.4188 15,1043.1111 15,1042.7927 l 0,-0.1875 L 12.75,1042.6052 z m 20.5625,0 0,0.1875 c 0,0.3184 -0.0047,0.6261 -0.03125,0.9375 l 2.28125,0 0,-1.125 L 33.3125,1042.6052 Z"
         style="fill:#000000;fill-opacity:0.07692309;stroke:none" />
      <path
         id="path1044"
         d="m 24.15625,1013.0073 c -6.317612,0 -11.40625,5.0887 -11.40625,11.4063 l 0,1.0625 c 0,-6.3176 5.088638,-11.4063 11.40625,-11.4063 6.317612,0 11.406269,5.0887 11.40625,11.4063 l 0,-1.0625 C 35.562519,1018.096 30.473862,1013.0073 24.15625,1013.0073 z m -12.5,12.875 c -3.4405377,0.4876 -6.125,3.2955 -6.125,6.875 l 0,1.0625 c 0,-3.5795 2.6844623,-6.3874 6.125,-6.875 L 11.65625,1025.8823 z m 24.71875,0 0,1.0625 c 3.440531,0.4877 6.09375,3.2955 6.09375,6.875 l 0,-1.0625 C 42.46875,1029.1778 39.815531,1026.37 36.375,1025.8823 Z M 15,1040.7886 l 0,0.9687 0.03125,0 C 15.00476,1041.4459 15,1041.107 15,1040.7886 z m 18.3125,0 c 0,0.3184 -0.0047,0.6573 -0.03125,0.9687 l 0.03125,0 L 33.3125,1040.7886 Z"
         style="fill:#ffffff;fill-opacity:0.02352941;stroke:none"
         inkscape:connector-curvature="0" />
      <path
         id="path1046"
         transform="translate(0,1004.3622)"
         d="m 24.15625,9.625 c -3.190344,0 -6.057168,1.306397 -8.125,3.40625 C 15.365155,14.420138 15,16.00572 15,17.6875 l 0,4.4375 c 0,-5.5442 4.080224,-10.03125 9.15625,-10.03125 5.076025,0 9.15625,4.48725 9.15625,10.03125 l 0,-4.4375 c 0,-1.68172 -0.365155,-3.267366 -1.03125,-4.65625 C 30.21342,10.931397 27.346594,9.625 24.15625,9.625 Z M 5.625,28.21875 C 5.5601645,28.599692 5.53125,28.972963 5.53125,29.375 l 0,2.09375 c 0,3.5792 2.6844623,6.41845 6.125,6.90625 l 0,-4.4375 C 8.6021419,33.504488 6.1374206,31.229387 5.625,28.21875 z m 36.75,0 c -0.508775,3.010571 -2.945898,5.285383 -6,5.71875 l 0,4.4375 c 3.440531,-0.4882 6.09375,-3.32705 6.09375,-6.90625 l 0,-2.09375 C 42.46875,28.972963 42.439374,28.59969 42.375,28.21875 z m -29.625,5.71875 0,4.4375 2.28125,0 C 15.00476,38.0636 15,37.72465 15,37.40625 L 15,33.9375 12.75,33.9375 z m 20.5625,0 0,3.46875 c 0,0.3184 -0.0047,0.65735 -0.03125,0.96875 l 2.28125,0 0,-4.4375 L 33.3125,33.9375 Z"
         style="fill:#000000;fill-opacity:0.15976329;stroke:none"
         inkscape:connector-curvature="0" />
    </g>
  </g>
</svg>
