<?xml version="1.0" encoding="UTF-8" standalone="no"?>
<!-- Created with Inkscape (http://www.inkscape.org/) -->

<svg
   xmlns:dc="http://purl.org/dc/elements/1.1/"
   xmlns:cc="http://creativecommons.org/ns#"
   xmlns:rdf="http://www.w3.org/1999/02/22-rdf-syntax-ns#"
   xmlns:svg="http://www.w3.org/2000/svg"
   xmlns="http://www.w3.org/2000/svg"
   xmlns:xlink="http://www.w3.org/1999/xlink"
   xmlns:sodipodi="http://sodipodi.sourceforge.net/DTD/sodipodi-0.dtd"
   xmlns:inkscape="http://www.inkscape.org/namespaces/inkscape"
   width="48"
   height="48"
   id="svg2"
   version="1.1"
   inkscape:version="0.48+devel r12112"
   sodipodi:docname="brasero.svg">
  <defs
     id="defs4">
    <linearGradient
       inkscape:collect="always"
       id="linearGradient1758">
      <stop
         style="stop-color:#f9f9f9;stop-opacity:1"
         offset="0"
         id="stop1760" />
      <stop
         style="stop-color:#ffffff;stop-opacity:1"
         offset="1"
         id="stop1762" />
    </linearGradient>
    <linearGradient
       inkscape:collect="always"
       xlink:href="#linearGradient1422"
       id="linearGradient1428"
       x1="22.490341"
       y1="1044.4824"
       x2="22.490341"
       y2="1039.6395"
       gradientUnits="userSpaceOnUse"
       gradientTransform="translate(0,2.6516504)" />
    <linearGradient
       inkscape:collect="always"
       id="linearGradient1422">
      <stop
         style="stop-color:#c8c8c8;stop-opacity:1"
         offset="0"
         id="stop1424" />
      <stop
         style="stop-color:#e5e5e5;stop-opacity:1"
         offset="1"
         id="stop1426" />
    </linearGradient>
    <linearGradient
       inkscape:collect="always"
       xlink:href="#linearGradient1987"
       id="linearGradient1471"
       gradientUnits="userSpaceOnUse"
       gradientTransform="matrix(0.52580846,0,0,1,2.6821874,2.6516504)"
       x1="22.490341"
       y1="1044.4824"
       x2="22.490341"
       y2="1039.6395" />
    <linearGradient
       inkscape:collect="always"
       id="linearGradient1987">
      <stop
         style="stop-color:#456919;stop-opacity:1"
         offset="0"
         id="stop1989" />
      <stop
         style="stop-color:#63bb17;stop-opacity:1"
         offset="1"
         id="stop1991" />
    </linearGradient>
    <linearGradient
       inkscape:collect="always"
       xlink:href="#linearGradient1463"
       id="linearGradient1461"
       gradientUnits="userSpaceOnUse"
       x1="22.490341"
       y1="1044.4824"
       x2="22.490341"
       y2="1039.6395"
       gradientTransform="matrix(0.52580846,0,0,1,2.5275078,2.6516504)" />
    <linearGradient
       id="linearGradient1463"
       inkscape:collect="always">
      <stop
         id="stop1465"
         offset="0"
         style="stop-color:#74b12a;stop-opacity:1" />
      <stop
         id="stop1467"
         offset="1"
         style="stop-color:#b2ef7d;stop-opacity:1" />
    </linearGradient>
    <linearGradient
       inkscape:collect="always"
       xlink:href="#linearGradient1492"
       id="linearGradient1498"
       x1="16.125"
       y1="34.833946"
       x2="16.125"
       y2="36.925476"
       gradientUnits="userSpaceOnUse"
       gradientTransform="translate(0,1007.0139)" />
    <linearGradient
       inkscape:collect="always"
       id="linearGradient1492">
      <stop
         style="stop-color:#ffffff;stop-opacity:1;"
         offset="0"
         id="stop1494" />
      <stop
         style="stop-color:#ffffff;stop-opacity:0;"
         offset="1"
         id="stop1496" />
    </linearGradient>
    <linearGradient
       inkscape:collect="always"
       xlink:href="#linearGradient1451"
       id="linearGradient1457"
       x1="24.085825"
       y1="33.106564"
       x2="24.085825"
       y2="35.669827"
       gradientUnits="userSpaceOnUse"
       gradientTransform="translate(0,1007.0139)" />
    <linearGradient
       inkscape:collect="always"
       id="linearGradient1451">
      <stop
         style="stop-color:#000000;stop-opacity:1;"
         offset="0"
         id="stop1453" />
      <stop
         style="stop-color:#000000;stop-opacity:0;"
         offset="1"
         id="stop1455" />
    </linearGradient>
    <linearGradient
       inkscape:collect="always"
       xlink:href="#linearGradient1512"
       id="linearGradient1518"
       x1="17.0625"
       y1="40.875"
       x2="17.0625"
       y2="35"
       gradientUnits="userSpaceOnUse"
       gradientTransform="translate(0,1007.0139)" />
    <linearGradient
       inkscape:collect="always"
       id="linearGradient1512">
      <stop
         style="stop-color:#000000;stop-opacity:0.62130177"
         offset="0"
         id="stop1514" />
      <stop
         style="stop-color:#000000;stop-opacity:0.147929"
         offset="1"
         id="stop1516" />
    </linearGradient>
    <linearGradient
       y2="39.4375"
       x2="23.9375"
       y1="41.375"
       x1="23.9375"
       gradientTransform="translate(0,1007.0139)"
       gradientUnits="userSpaceOnUse"
       id="linearGradient927"
       xlink:href="#linearGradient1525"
       inkscape:collect="always" />
    <linearGradient
       inkscape:collect="always"
       id="linearGradient1525">
      <stop
         style="stop-color:#000000;stop-opacity:1;"
         offset="0"
         id="stop1527" />
      <stop
         style="stop-color:#000000;stop-opacity:0;"
         offset="1"
         id="stop1529" />
    </linearGradient>
    <linearGradient
       inkscape:collect="always"
       xlink:href="#linearGradient1758"
       id="linearGradient1764"
       x1="24.04163"
       y1="-1053.0693"
       x2="24.04163"
       y2="-1004.6628"
       gradientUnits="userSpaceOnUse" />
  </defs>
  <sodipodi:namedview
     id="base"
     pagecolor="#ffffff"
     bordercolor="#666666"
     borderopacity="1.0"
     inkscape:pageopacity="0.0"
     inkscape:pageshadow="2"
     inkscape:zoom="8.0000004"
     inkscape:cx="15.982156"
     inkscape:cy="26.910058"
     inkscape:document-units="px"
     inkscape:current-layer="layer1"
     showgrid="false"
     inkscape:window-width="1366"
     inkscape:window-height="718"
     inkscape:window-x="0"
     inkscape:window-y="28"
     inkscape:window-maximized="1">
    <inkscape:grid
       type="xygrid"
       id="grid3850" />
  </sodipodi:namedview>
  <metadata
     id="metadata7">
    <rdf:RDF>
      <cc:Work
         rdf:about="">
        <dc:format>image/svg+xml</dc:format>
        <dc:type
           rdf:resource="http://purl.org/dc/dcmitype/StillImage" />
        <dc:title />
      </cc:Work>
    </rdf:RDF>
  </metadata>
  <g
     inkscape:label="Capa 1"
     inkscape:groupmode="layer"
     id="layer1"
     transform="translate(0,-1004.3622)">
    <rect
       style="fill:url(#linearGradient1764);fill-opacity:1;stroke:none"
       id="rect2991-1-2"
       width="48"
       height="48"
       x="-1.0754395e-06"
       y="-1052.5815"
       ry="1.9445436"
       transform="scale(1,-1)" />
    <path
       inkscape:connector-curvature="0"
       style="fill:#000000;fill-opacity:1;stroke:none"
       d="m -9.2456055e-7,1049.5816 0,1.0625 c 0,1.0773 0.86022300456055,1.9375 1.93750002456055,1.9375 l 44.1250019,0 c 1.07728,0 1.9375,-0.8602 1.9375,-1.9375 l 0,-1.0625 c 0,1.0773 -0.86022,1.9375 -1.9375,1.9375 l -44.1250019,0 C 0.86022208,1051.5191 -9.2456055e-7,1050.6589 -9.2456055e-7,1049.5816 Z"
       id="rect846-6" />
    <path
       inkscape:connector-curvature="0"
       style="fill:#ffffff;fill-opacity:0.5372549;stroke:none"
       d="m 2.5312491,1005.2379 c -0.917089,0 -1.67114702,0.6395 -1.84375002,1.5 0.33561202,-0.2799 0.77451202,-0.4375 1.25000002,-0.4375 l 44.1250019,0 c 0.47549,0 0.91439,0.1576 1.25,0.4375 -0.1726,-0.8605 -0.92666,-1.5 -1.84375,-1.5 L 2.5312491,1005.2379 Z"
       id="path7515-9" />
    <path
       inkscape:connector-curvature="0"
       style="fill:#000000;fill-opacity:0.39215686;stroke:none"
       d="m 1.9374991,1004.5816 c -1.07727702,0 -1.93750002456055,0.8602 -1.93750002456055,1.9375 l 0,43.0625 c 0,0.7934 0.48002300456055,1.449 1.15625002456055,1.75 -0.30934202,-0.3333 -0.50000002,-0.7824 -0.50000002,-1.2812 l 0,-42.9375 c 0,-1.0482 0.82689902,-1.875 1.87500002,-1.875 l 42.9375019,0 c 1.0481,0 1.875,0.8268 1.875,1.875 l 0,42.9375 c 0,0.4988 -0.19066,0.9479 -0.5,1.2812 0.67622,-0.301 1.15625,-0.9566 1.15625,-1.75 l 0,-43.0625 c 0,-1.0773 -0.86022,-1.9375 -1.9375,-1.9375 L 1.9374991,1004.5816 Z"
       id="rect4280-0" />
    <g
       id="g1609"
       transform="matrix(0.81126674,0,0,0.80826492,4.6673991,197.49503)">
      <path
         inkscape:connector-curvature="0"
         id="rect1439"
         d="m 42.3125,1045.1344 c -0.06769,1.3236 -1.127697,2.375 -2.46875,2.375 l -32,0 c -1.211875,0 -2.2363965,-0.8588 -2.46875,-2 0.1280207,1.2632 1.1706493,2.25 2.46875,2.25 l 32,0 c 1.385,0 2.5,-1.115 2.5,-2.5 C 42.34375,1045.2154 42.314718,1045.1777 42.3125,1045.1344 Z"
         style="color:#000000;fill:#ffffff;fill-opacity:0.72189349;fill-rule:nonzero;stroke:none;stroke-width:0.2;marker:none;visibility:visible;display:inline;overflow:visible;enable-background:accumulate" />
      <rect
         style="color:#000000;fill:#bbbbbb;fill-opacity:1;fill-rule:nonzero;stroke:none;stroke-width:0.2;marker:none;visibility:visible;display:inline;overflow:visible;enable-background:accumulate"
         id="rect1432"
         width="37.620029"
         height="5.4999995"
         x="5.0201263"
         y="1042.0151"
         ry="2.7499998" />
      <rect
         ry="2.5"
         y="1042.2651"
         x="5.3301411"
         height="5"
         width="37"
         id="rect1412"
         style="color:#000000;fill:url(#linearGradient1428);fill-opacity:1;fill-rule:nonzero;stroke:none;stroke-width:0.2;marker:none;visibility:visible;display:inline;overflow:visible;enable-background:accumulate" />
      <path
         inkscape:connector-curvature="0"
         id="rect1469"
         d="m 22.28125,1042.2639 c 0.173125,0 0.336963,0.029 0.5,0.062 1.14126,0.2323 2,1.2256 2,2.4375 0,1.2118 -0.85874,2.2051 -2,2.4375 -0.163037,0.033 -0.326875,0.062 -0.5,0.062 l 0.15625,0 c 0.08656,0 0.165753,-0.023 0.25,-0.031 0.08003,-0.01 0.172272,-0.018 0.25,-0.031 1.183937,-0.1984 2.0625,-1.1955 2.0625,-2.4375 0,-1.2421 -0.878563,-2.2392 -2.0625,-2.4375 -0.07773,-0.013 -0.169968,-0.026 -0.25,-0.031 -0.08425,-0.01 -0.163438,-0.031 -0.25,-0.031 L 22.28125,1042.2639 Z"
         style="color:#000000;fill:url(#linearGradient1471);fill-opacity:1;fill-rule:nonzero;stroke:none;stroke-width:0.2;marker:none;visibility:visible;display:inline;overflow:visible;enable-background:accumulate" />
      <rect
         style="color:#000000;fill:url(#linearGradient1461);fill-opacity:1;fill-rule:nonzero;stroke:none;stroke-width:0.2;marker:none;visibility:visible;display:inline;overflow:visible;enable-background:accumulate"
         id="rect1459"
         width="19.454912"
         height="5"
         x="5.3301411"
         y="1042.2651"
         ry="2.5" />
      <path
         inkscape:connector-curvature="0"
         id="rect1487"
         d="m 7.84375,1042.2639 c -1.1668625,0 -2.1592528,0.7974 -2.4375,1.875 l 19.3125,0 c -0.278247,-1.0776 -1.270637,-1.875 -2.4375,-1.875 L 7.84375,1042.2639 Z"
         style="opacity:0.75;color:#000000;fill:url(#linearGradient1498);fill-opacity:1;fill-rule:nonzero;stroke:none;stroke-width:0.2;marker:none;visibility:visible;display:inline;overflow:visible;enable-background:accumulate" />
      <path
         inkscape:connector-curvature="0"
         id="rect1446"
         d="m 7.78125,1042.0139 c -0.6744114,0 -1.3038682,0.2561 -1.78125,0.6562 l 35.65625,0 c -0.477382,-0.4001 -1.106839,-0.6562 -1.78125,-0.6562 L 7.78125,1042.0139 Z"
         style="color:#000000;fill:url(#linearGradient1457);fill-opacity:1;fill-rule:nonzero;stroke:none;stroke-width:0.2;marker:none;visibility:visible;display:inline;overflow:visible;enable-background:accumulate" />
      <path
         inkscape:connector-curvature="0"
         id="rect1500"
         d="m 7.84375,1042.2639 c -1.385,0 -2.5,1.115 -2.5,2.5 0,0.46 0.1287011,0.8805 0.34375,1.25 L 7.84375,1042.2639 z m 2.6875,0 -2.875,4.9687 c 0.060314,0 0.1260495,0.031 0.1875,0.031 l 3.0625,0 2.90625,-5 L 10.53125,1042.2639 z m 5.96875,0 -2.90625,5 3.28125,0 2.875,-5 L 16.5,1042.2639 z m 5.9375,0.031 -2.875,4.9688 2.71875,0 c 0.197549,0 0.378389,-0.051 0.5625,-0.094 l 1.84375,-3.125 C 24.39274,1043.066 23.497551,1042.3625 22.4375,1042.2951 Z"
         style="opacity:0.4;color:#000000;fill:url(#linearGradient1518);fill-opacity:1;fill-rule:nonzero;stroke:none;stroke-width:0.2;marker:none;visibility:visible;display:inline;overflow:visible;enable-background:accumulate" />
      <path
         inkscape:connector-curvature="0"
         id="rect1520"
         d="m 5.34375,1044.6076 c -0.00333,0.053 0,0.1024 0,0.1563 0,1.385 1.115,2.5 2.5,2.5 l 32,0 c 1.385,0 2.5,-1.115 2.5,-2.5 0,-0.055 -0.02784,-0.1026 -0.03125,-0.1563 -0.08319,1.3087 -1.138351,2.3438 -2.46875,2.3438 l -32,0 C 6.5126411,1046.9514 5.4259146,1045.9173 5.34375,1044.6076 Z"
         style="opacity:0.56099997;color:#000000;fill:url(#linearGradient927);fill-opacity:1;fill-rule:nonzero;stroke:none;stroke-width:0.2;marker:none;visibility:visible;display:inline;overflow:visible;enable-background:accumulate" />
    </g>
    <g
       id="g1937"
       transform="matrix(0.89994643,0,0,0.89661648,2.1014391,106.23064)">
      <path
         id="path18558"
         d="m 24,1010.6122 c -7.436387,0 -13.46875,6.0321 -13.46875,13.4688 0,7.4366 6.032363,13.4687 13.46875,13.4687 7.436299,0 13.46875,-6.0321 13.46875,-13.4687 C 37.46875,1016.6443 31.436299,1010.6122 24,1010.6122 z m 0,8 c 3.019379,0 5.46875,2.449 5.46875,5.4688 0,3.0196 -2.449371,5.4687 -5.46875,5.4687 -3.019415,0 -5.46875,-2.4491 -5.46875,-5.4687 C 18.53125,1021.0612 20.980585,1018.6122 24,1018.6122 z m 0,1 c -2.467293,0 -4.46875,2.0013 -4.46875,4.4688 0,2.4674 2.001457,4.4687 4.46875,4.4687 2.467264,0 4.46875,-2.0013 4.46875,-4.4687 C 28.46875,1021.6135 26.467264,1019.6122 24,1019.6122 z m 0,2 c 1.363034,0 2.46875,1.1056 2.46875,2.4688 0,1.3631 -1.105716,2.4687 -2.46875,2.4687 -1.36305,0 -2.46875,-1.1056 -2.46875,-2.4687 C 21.53125,1022.7178 22.63695,1021.6122 24,1021.6122 Z"
         style="fill:#000000;fill-opacity:0.5372549;stroke:none"
         inkscape:connector-curvature="0" />
      <path
         id="path1884"
         d="m 24,1010.6122 c -7.087567,0 -12.876579,5.4849 -13.40625,12.4375 0.689968,-6.7903 6.434637,-12.0937 13.40625,-12.0937 6.97153,0 12.716273,5.3034 13.40625,12.0937 C 36.876572,1016.0971 31.087483,1010.6122 24,1010.6122 z m 0,9 c -2.467293,0 -4.46875,2.0013 -4.46875,4.4688 0,0.054 0.02937,0.103 0.03125,0.1562 0.100468,-2.3786 2.034429,-4.2812 4.4375,-4.2812 2.403043,0 4.337031,1.9026 4.4375,4.2812 0.0019,-0.053 0.03125,-0.1025 0.03125,-0.1562 C 28.46875,1021.6135 26.467264,1019.6122 24,1019.6122 z m -5.46875,4.625 c -0.0021,0.062 0,0.1248 0,0.1875 0,3.0196 2.449335,5.4688 5.46875,5.4688 3.019379,0 5.46875,-2.4492 5.46875,-5.4688 0,-0.063 0.0021,-0.1253 0,-0.1875 -0.08276,2.9474 -2.501629,5.3125 -5.46875,5.3125 C 21.032844,1029.5497 18.614014,1027.1846 18.53125,1024.2372 z m 3.03125,0 c -0.0048,0.063 -0.03125,0.1233 -0.03125,0.1875 0,1.3631 1.1057,2.4688 2.46875,2.4688 1.363034,0 2.46875,-1.1057 2.46875,-2.4688 0,-0.064 -0.02643,-0.1245 -0.03125,-0.1875 -0.08248,1.2886 -1.128201,2.3125 -2.4375,2.3125 C 22.690686,1026.5497 21.644977,1025.5258 21.5625,1024.2372 Z"
         style="fill:#000000;fill-opacity:0.31336407;stroke:none"
         inkscape:connector-curvature="0" />
      <path
         id="path1889"
         d="m 24,1018.2372 c -3.019415,0 -5.46875,2.449 -5.46875,5.4688 0,0.063 -0.0021,0.1252 0,0.1875 0.09884,-2.933 2.512046,-5.2813 5.46875,-5.2813 2.956669,0 5.369914,2.3483 5.46875,5.2813 0.0021,-0.062 0,-0.1248 0,-0.1875 C 29.46875,1020.6862 27.019379,1018.2372 24,1018.2372 z m 0,3 c -1.36305,0 -2.46875,1.1056 -2.46875,2.4688 0,0.064 0.02643,0.1245 0.03125,0.1875 0.09749,-1.2741 1.138671,-2.2813 2.4375,-2.2813 1.298814,0 2.340011,1.0072 2.4375,2.2813 0.0048,-0.063 0.03125,-0.1233 0.03125,-0.1875 C 26.46875,1022.3428 25.363034,1021.2372 24,1021.2372 z m -13.46875,2.6563 c -8.7e-4,0.063 0,0.1242 0,0.1875 0,7.4366 6.032363,13.4687 13.46875,13.4687 7.436299,0 13.46875,-6.0321 13.46875,-13.4687 0,-0.063 8.7e-4,-0.1245 0,-0.1875 C 37.367341,1031.2428 31.373052,1037.1747 24,1037.1747 16.626861,1037.1747 10.632658,1031.2428 10.53125,1023.8935 z m 9.03125,0 c -0.0027,0.063 -0.03125,0.1232 -0.03125,0.1875 0,2.4674 2.001457,4.4687 4.46875,4.4687 2.467264,0 4.46875,-2.0013 4.46875,-4.4687 0,-0.064 -0.02857,-0.124 -0.03125,-0.1875 -0.100469,2.3785 -2.034457,4.2812 -4.4375,4.2812 C 21.596929,1028.1747 19.662968,1026.272 19.5625,1023.8935 Z"
         style="fill:#ffffff;fill-opacity:0.5372549;stroke:none"
         inkscape:connector-curvature="0" />
    </g>
  </g>
</svg>
