<?xml version="1.0" encoding="UTF-8" standalone="no"?>
<!-- Created with Inkscape (http://www.inkscape.org/) -->

<svg
   xmlns:dc="http://purl.org/dc/elements/1.1/"
   xmlns:cc="http://creativecommons.org/ns#"
   xmlns:rdf="http://www.w3.org/1999/02/22-rdf-syntax-ns#"
   xmlns:svg="http://www.w3.org/2000/svg"
   xmlns="http://www.w3.org/2000/svg"
   xmlns:xlink="http://www.w3.org/1999/xlink"
   xmlns:sodipodi="http://sodipodi.sourceforge.net/DTD/sodipodi-0.dtd"
   xmlns:inkscape="http://www.inkscape.org/namespaces/inkscape"
   width="48"
   height="48"
   id="svg2"
   version="1.1"
   inkscape:version="0.48+devel r12068"
   sodipodi:docname="preferences-system-bluetooth.svg">
  <defs
     id="defs4">
    <linearGradient
       id="linearGradient3795-2">
      <stop
         style="stop-color:#0a7cea;stop-opacity:1"
         offset="0"
         id="stop3797-1" />
      <stop
         style="stop-color:#075aab;stop-opacity:1"
         offset="1"
         id="stop3799-1" />
    </linearGradient>
    <linearGradient
       inkscape:collect="always"
       xlink:href="#linearGradient3795-2"
       id="linearGradient1399"
       x1="-30.894293"
       y1="-1007.1073"
       x2="-30.894293"
       y2="-1054.6603"
       gradientUnits="userSpaceOnUse"
       gradientTransform="translate(55.819804,2.7867629)" />
  </defs>
  <sodipodi:namedview
     id="base"
     pagecolor="#ffffff"
     bordercolor="#666666"
     borderopacity="1.0"
     inkscape:pageopacity="0.0"
     inkscape:pageshadow="2"
     inkscape:zoom="5.6568545"
     inkscape:cx="10.524313"
     inkscape:cy="20.59306"
     inkscape:document-units="px"
     inkscape:current-layer="layer1"
     showgrid="false"
     inkscape:window-width="1366"
     inkscape:window-height="718"
     inkscape:window-x="0"
     inkscape:window-y="28"
     inkscape:window-maximized="1">
    <inkscape:grid
       type="xygrid"
       id="grid3850" />
  </sodipodi:namedview>
  <metadata
     id="metadata7">
    <rdf:RDF>
      <cc:Work
         rdf:about="">
        <dc:format>image/svg+xml</dc:format>
        <dc:type
           rdf:resource="http://purl.org/dc/dcmitype/StillImage" />
        <dc:title />
      </cc:Work>
    </rdf:RDF>
  </metadata>
  <g
     inkscape:label="Capa 1"
     inkscape:groupmode="layer"
     id="layer1"
     transform="translate(0,-1004.3622)">
    <rect
       style="fill:url(#linearGradient1399);fill-opacity:1;stroke:none"
       id="rect2991-1"
       width="48"
       height="48"
       x="-6.7263181e-07"
       y="-1052.3622"
       ry="1.9445436"
       transform="scale(1,-1)" />
    <path
       inkscape:connector-curvature="0"
       style="fill:#000000;fill-opacity:1;stroke:none"
       d="m 4.7263183e-7,1049.3622 0,1.0625 c 0,1.0773 0.86022299736817,1.9375 1.93750002736817,1.9375 l 44.1250005,0 c 1.077277,0 1.9375,-0.8602 1.9375,-1.9375 l 0,-1.0625 c 0,1.0773 -0.860223,1.9375 -1.9375,1.9375 l -44.1250005,0 C 0.86022347,1051.2997 4.7263183e-7,1050.4395 4.7263183e-7,1049.3622 Z"
       id="rect846" />
    <path
       inkscape:connector-curvature="0"
       style="fill:#ffffff;fill-opacity:0.5372549;stroke:none"
       d="m 2.5312505,1005.0185 c -0.917089,0 -1.67114703,0.6395 -1.84375003,1.5 0.33561203,-0.2799 0.77451203,-0.4375 1.25000003,-0.4375 l 44.1250005,0 c 0.475488,0 0.914388,0.1576 1.25,0.4375 -0.172603,-0.8605 -0.926662,-1.5 -1.843751,-1.5 L 2.5312505,1005.0185 Z"
       id="path7515" />
    <path
       inkscape:connector-curvature="0"
       style="fill:#000000;fill-opacity:0.39215686;stroke:none"
       d="m 1.9375005,1004.3622 c -1.07727703,0 -1.93750002736817,0.8602 -1.93750002736817,1.9375 l 0,43.0625 c 0,0.7934 0.48002299736817,1.449 1.15625002736817,1.75 -0.30934203,-0.3333 -0.50000003,-0.7824 -0.50000003,-1.2812 l 0,-42.9375 c 0,-1.0482 0.82689903,-1.875 1.87500003,-1.875 l 42.9374995,0 c 1.048102,0 1.875001,0.8268 1.875001,1.875 l 0,42.9375 c 0,0.4988 -0.190658,0.9479 -0.5,1.2812 0.676226,-0.301 1.15625,-0.9566 1.15625,-1.75 l 0,-43.0625 c 0,-1.0773 -0.860223,-1.9375 -1.9375,-1.9375 L 1.9375005,1004.3622 Z"
       id="rect4280-1" />
    <g
       id="layer1-2"
       inkscape:label="Capa 1"
       style="fill:#ffffff">
      <path
         sodipodi:nodetypes="ccccccccccccccccccccc"
         style="fill:#ffffff;fill-opacity:1;fill-rule:evenodd;stroke:none;display:inline"
         d="m 22.363517,1012.3622 0,12.7548 -7.206369,-5.3922 -2.002835,1.9958 8.548773,6.6416 -8.20324,6.5669 2.160279,2.2078 6.703392,-5.4248 0,12.6501 12.48217,-9.3137 -8.271913,-6.5805 L 34.581506,1021.978 z m 3.306918,6.2059 4.188994,3.5153 L 25.670435,1025.2545 z m -2.07e-4,13.2485 4.321228,3.1262 -4.323903,2.8256 C 25.667553,1035.6257 25.670228,1033.9176 25.670228,1031.8166 Z"
         id="path2311-1"
         inkscape:connector-curvature="0" />
    </g>
  </g>
</svg>
