<?xml version="1.0" encoding="UTF-8" standalone="no"?>
<!-- Created with Inkscape (http://www.inkscape.org/) -->

<svg
   xmlns:dc="http://purl.org/dc/elements/1.1/"
   xmlns:cc="http://creativecommons.org/ns#"
   xmlns:rdf="http://www.w3.org/1999/02/22-rdf-syntax-ns#"
   xmlns:svg="http://www.w3.org/2000/svg"
   xmlns="http://www.w3.org/2000/svg"
   xmlns:xlink="http://www.w3.org/1999/xlink"
   xmlns:sodipodi="http://sodipodi.sourceforge.net/DTD/sodipodi-0.dtd"
   xmlns:inkscape="http://www.inkscape.org/namespaces/inkscape"
   width="48"
   height="48"
   id="svg2"
   version="1.1"
   inkscape:version="0.48+devel r12103"
   sodipodi:docname="accessories-calculator.svg">
  <defs
     id="defs4">
    <linearGradient
       inkscape:collect="always"
       id="linearGradient984">
      <stop
         style="stop-color:#a34f2f;stop-opacity:1"
         offset="0"
         id="stop986" />
      <stop
         style="stop-color:#dba163;stop-opacity:1"
         offset="1"
         id="stop988" />
    </linearGradient>
    <linearGradient
       id="linearGradient978"
       inkscape:collect="always">
      <stop
         id="stop980"
         offset="0"
         style="stop-color:#6e7176;stop-opacity:1" />
      <stop
         id="stop982"
         offset="1"
         style="stop-color:#9fa4a8;stop-opacity:1" />
    </linearGradient>
    <linearGradient
       inkscape:collect="always"
       id="linearGradient886">
      <stop
         style="stop-color:#000000;stop-opacity:1;"
         offset="0"
         id="stop888" />
      <stop
         style="stop-color:#000000;stop-opacity:0;"
         offset="1"
         id="stop890" />
    </linearGradient>
    <linearGradient
       inkscape:collect="always"
       id="linearGradient861">
      <stop
         style="stop-color:#4d4f4e;stop-opacity:1"
         offset="0"
         id="stop863" />
      <stop
         style="stop-color:#494949;stop-opacity:1"
         offset="1"
         id="stop865" />
    </linearGradient>
    <linearGradient
       inkscape:collect="always"
       id="linearGradient851">
      <stop
         style="stop-color:#5c5d5f;stop-opacity:1"
         offset="0"
         id="stop853" />
      <stop
         style="stop-color:#67686a;stop-opacity:1"
         offset="1"
         id="stop855" />
    </linearGradient>
    <linearGradient
       inkscape:collect="always"
       xlink:href="#linearGradient851"
       id="linearGradient857"
       x1="25.279068"
       y1="-1052.3719"
       x2="25.279068"
       y2="-1004.4557"
       gradientUnits="userSpaceOnUse" />
    <linearGradient
       inkscape:collect="always"
       xlink:href="#linearGradient861"
       id="linearGradient867"
       x1="23.25"
       y1="1021.2372"
       x2="23.25"
       y2="1008.8622"
       gradientUnits="userSpaceOnUse" />
    <linearGradient
       inkscape:collect="always"
       xlink:href="#linearGradient886"
       id="linearGradient892"
       x1="38.29425"
       y1="4.2035737"
       x2="38.29425"
       y2="4.9769716"
       gradientUnits="userSpaceOnUse" />
    <linearGradient
       inkscape:collect="always"
       xlink:href="#linearGradient978"
       id="linearGradient946"
       x1="-9.25"
       y1="1034.9247"
       x2="-9.25"
       y2="1024.6747"
       gradientUnits="userSpaceOnUse"
       gradientTransform="matrix(0.96144578,0,0,0.96144578,-0.3505814,39.698401)" />
    <linearGradient
       inkscape:collect="always"
       xlink:href="#linearGradient978"
       id="linearGradient954"
       gradientUnits="userSpaceOnUse"
       gradientTransform="matrix(0.96144578,0,0,0.96144578,-14.350581,39.698401)"
       x1="-9.25"
       y1="1034.9247"
       x2="-9.25"
       y2="1024.6747" />
    <linearGradient
       inkscape:collect="always"
       xlink:href="#linearGradient978"
       id="linearGradient964"
       gradientUnits="userSpaceOnUse"
       gradientTransform="matrix(0.96144578,0,0,0.96144578,-0.3505814,51.698445)"
       x1="-9.25"
       y1="1034.9247"
       x2="-9.25"
       y2="1024.6747" />
    <linearGradient
       inkscape:collect="always"
       xlink:href="#linearGradient978"
       id="linearGradient966"
       gradientUnits="userSpaceOnUse"
       gradientTransform="matrix(0.96144578,0,0,0.96144578,-14.350581,51.698445)"
       x1="-9.25"
       y1="1034.9247"
       x2="-9.25"
       y2="1024.6747" />
    <linearGradient
       inkscape:collect="always"
       xlink:href="#linearGradient984"
       id="linearGradient976"
       x1="37.466061"
       y1="1046.9299"
       x2="37.466061"
       y2="1024.3275"
       gradientUnits="userSpaceOnUse"
       gradientTransform="matrix(0.96221346,0,0,0.98147271,1.4699605,19.188223)" />
  </defs>
  <sodipodi:namedview
     id="base"
     pagecolor="#ffffff"
     bordercolor="#666666"
     borderopacity="1.0"
     inkscape:pageopacity="0.0"
     inkscape:pageshadow="2"
     inkscape:zoom="2.8284271"
     inkscape:cx="-65.890256"
     inkscape:cy="33.180713"
     inkscape:document-units="px"
     inkscape:current-layer="layer1"
     showgrid="false"
     inkscape:window-width="1366"
     inkscape:window-height="718"
     inkscape:window-x="0"
     inkscape:window-y="28"
     inkscape:window-maximized="1" />
  <metadata
     id="metadata7">
    <rdf:RDF>
      <cc:Work
         rdf:about="">
        <dc:format>image/svg+xml</dc:format>
        <dc:type
           rdf:resource="http://purl.org/dc/dcmitype/StillImage" />
        <dc:title />
      </cc:Work>
    </rdf:RDF>
  </metadata>
  <g
     inkscape:label="Capa 1"
     inkscape:groupmode="layer"
     id="layer1"
     transform="translate(0,-1004.3622)">
    <rect
       style="fill:url(#linearGradient857);fill-opacity:1;stroke:none"
       id="rect2991-1"
       width="48"
       height="48"
       x="1.1500549e-07"
       y="-1052.3622"
       ry="1.9445436"
       transform="scale(1,-1)" />
    <path
       inkscape:connector-curvature="0"
       style="fill:#000000;fill-opacity:1;stroke:none"
       d="m -1.1500549e-7,1049.3622 0,1.0625 c 0,1.0773 0.86022279500549,1.9375 1.93749991500549,1.9375 l 44.1250002,0 c 1.077277,0 1.9375,-0.8602 1.9375,-1.9375 l 0,-1.0625 c 0,1.0773 -0.860223,1.9375 -1.9375,1.9375 l -44.1250002,0 C 0.86022268,1051.2997 -1.1500549e-7,1050.4395 -1.1500549e-7,1049.3622 Z"
       id="rect846" />
    <path
       inkscape:connector-curvature="0"
       style="fill:#ffffff;fill-opacity:0.5372549;stroke:none"
       d="m 2.5312498,1005.0185 c -0.9170884,0 -1.67114682,0.6395 -1.84375002,1.5 0.33561212,-0.2799 0.77451222,-0.4375 1.25000002,-0.4375 l 44.1250002,0 c 0.475488,0 0.914388,0.1576 1.25,0.4375 -0.172603,-0.8605 -0.926662,-1.5 -1.84375,-1.5 L 2.5312498,1005.0185 Z"
       id="path7515" />
    <path
       inkscape:connector-curvature="0"
       style="fill:#000000;fill-opacity:0.39215686;stroke:none"
       d="m 1.9374998,1004.3622 c -1.07727702,0 -1.93749991500549,0.8602 -1.93749991500549,1.9375 l 0,43.0625 c 0,0.7934 0.48002349500549,1.449 1.15624991500549,1.75 -0.30934172,-0.3333 -0.50000002,-0.7824 -0.50000002,-1.2812 l 0,-42.9375 c 0,-1.0482 0.82689902,-1.875 1.87500002,-1.875 l 42.9375002,0 c 1.048101,0 1.875,0.8268 1.875,1.875 l 0,42.9375 c 0,0.4988 -0.190658,0.9479 -0.5,1.2812 0.676226,-0.301 1.15625,-0.9566 1.15625,-1.75 l 0,-43.0625 c 0,-1.0773 -0.860223,-1.9375 -1.9375,-1.9375 L 1.9374998,1004.3622 Z"
       id="rect4280" />
    <rect
       style="color:#000000;fill:url(#linearGradient867);fill-opacity:1;fill-rule:nonzero;stroke:none;stroke-width:0.2;marker:none;visibility:visible;display:inline;overflow:visible;enable-background:accumulate"
       id="rect859"
       width="40.188679"
       height="12"
       x="3.9056606"
       y="1008.8622"
       ry="1.7610961" />
    <path
       style="color:#000000;fill:url(#linearGradient892);fill-opacity:1;fill-rule:nonzero;stroke:none;stroke-width:0.2;marker:none;visibility:visible;display:inline;overflow:visible;enable-background:accumulate"
       d="M 5.65625 4.5 C 5.152791 4.5 4.6953735 4.69474 4.375 5.03125 L 43.625 5.03125 C 43.304627 4.69474 42.847209 4.5 42.34375 4.5 L 5.65625 4.5 z "
       transform="translate(0,1004.3622)"
       id="rect879" />
    <path
       style="color:#000000;fill:#38393b;fill-opacity:1;fill-rule:nonzero;stroke:none;stroke-width:0.2;marker:none;visibility:visible;display:inline;overflow:visible;enable-background:accumulate"
       d="M 5.65625 4.5 C 4.6806027 4.5 3.90625 5.2743527 3.90625 6.25 L 3.90625 14.75 C 3.90625 15.725647 4.6806027 16.5 5.65625 16.5 L 42.34375 16.5 C 43.319397 16.5 44.09375 15.725647 44.09375 14.75 L 44.09375 6.25 C 44.09375 5.2743527 43.319397 4.5 42.34375 4.5 L 5.65625 4.5 z M 5.78125 4.65625 L 42.21875 4.65625 C 43.168708 4.65625 43.9375 5.425042 43.9375 6.375 L 43.9375 14.625 C 43.9375 15.574958 43.168708 16.34375 42.21875 16.34375 L 5.78125 16.34375 C 4.831292 16.34375 4.0625 15.574958 4.0625 14.625 L 4.0625 6.375 C 4.0625 5.425042 4.831292 4.65625 5.78125 4.65625 z "
       transform="translate(0,1004.3622)"
       id="rect869" />
    <path
       style="color:#000000;fill:#808183;fill-opacity:1;fill-rule:nonzero;stroke:none;stroke-width:0.2;marker:none;visibility:visible;display:inline;overflow:visible;enable-background:accumulate"
       d="m 3.9375,1019.4911 c 0.1256869,0.8507 0.8320706,1.5 1.71875,1.5 l 36.6875,0 c 0.886679,0 1.593063,-0.6493 1.71875,-1.5 -0.163679,0.804 -0.865059,1.375 -1.71875,1.375 l -36.6875,0 C 4.8025587,1020.8661 4.1011787,1020.2951 3.9375,1019.4911 Z"
       id="rect874"
       inkscape:connector-curvature="0" />
    <path
       style="font-size:5.98977375px;font-style:normal;font-variant:normal;font-weight:normal;font-stretch:normal;line-height:125%;letter-spacing:0px;word-spacing:0px;fill:#000000;fill-opacity:0.52156863;stroke:none;font-family:Helvetica;-inkscape-font-specification:Helvetica"
       d="m 31.84375,1012.4941 c 0,0.1957 -0.075,0.3683 -0.21875,0.5 -0.179693,0.1638 -0.445127,0.25 -0.8125,0.25 l -0.125,0 0,0.5625 1,0 0,2.9375 0.84375,0 0,-4.25 L 31.84375,1012.4941 z m 3.5,0 -1.5625,2.5938 0,0.7187 1.65625,0 0,0.9375 0.84375,0 0,-0.9375 0.46875,0 0,-0.6562 -0.46875,0 0,-2.6563 L 35.34375,1012.4941 z m 3.3125,0 -1.5625,2.5938 0,0.7187 1.6875,0 0,0.9375 0.84375,0 0,-0.9375 0.46875,0 0,-0.6562 -0.46875,0 0,-2.6563 L 38.65625,1012.4941 z m -3.1875,0.8438 0,1.8125 -1.09375,0 L 35.46875,1013.3379 z m 3.3125,0 0,1.8125 -1.0625,0 L 38.78125,1013.3379 Z"
       id="path1037"
       inkscape:connector-curvature="0" />
    <path
       id="path1105"
       d="m 31.84375,1012.7372 c 0,0.1956 -0.075,0.3682 -0.21875,0.5 -0.179693,0.1637 -0.445127,0.25 -0.8125,0.25 l -0.125,0 0,0.5625 1,0 0,2.9375 0.84375,0 0,-4.25 L 31.84375,1012.7372 z m 3.5,0 -1.5625,2.5937 0,0.7188 1.65625,0 0,0.9375 0.84375,0 0,-0.9375 0.46875,0 0,-0.6563 -0.46875,0 0,-2.6562 L 35.34375,1012.7372 z m 3.3125,0 -1.5625,2.5937 0,0.7188 1.6875,0 0,0.9375 0.84375,0 0,-0.9375 0.46875,0 0,-0.6563 -0.46875,0 0,-2.6562 L 38.65625,1012.7372 z m -3.1875,0.8437 0,1.8125 -1.09375,0 L 35.46875,1013.5809 z m 3.3125,0 0,1.8125 -1.0625,0 L 38.78125,1013.5809 Z"
       style="font-size:5.98977375px;font-style:normal;font-variant:normal;font-weight:normal;font-stretch:normal;line-height:125%;letter-spacing:0px;word-spacing:0px;fill:#ffffff;fill-opacity:1;stroke:none;font-family:Helvetica;-inkscape-font-specification:Helvetica"
       inkscape:connector-curvature="0" />
    <g
       id="g1114">
      <rect
         ry="1.6302739"
         y="1024.4872"
         x="-14.280661"
         height="10.375"
         width="10.375"
         id="rect948"
         style="color:#000000;fill:#38393b;fill-opacity:1;fill-rule:nonzero;stroke:none;stroke-width:0.2;marker:none;visibility:visible;display:inline;overflow:visible;enable-background:accumulate"
         transform="scale(-1,1)" />
      <rect
         transform="scale(-1,1)"
         style="color:#000000;fill:url(#linearGradient946);fill-opacity:1;fill-rule:nonzero;stroke:none;stroke-width:0.2;marker:none;visibility:visible;display:inline;overflow:visible;enable-background:accumulate"
         id="rect921"
         width="9.9749985"
         height="9.9749985"
         x="-14.08066"
         y="1024.6871"
         ry="1.5674201" />
      <path
         id="rect990"
         transform="translate(0,1004.3622)"
         d="M 4.09375 28.40625 L 4.09375 28.71875 C 4.09375 29.587101 4.8191493 30.3125 5.6875 30.3125 L 12.5 30.3125 C 13.368351 30.3125 14.09375 29.587101 14.09375 28.71875 L 14.09375 28.40625 C 14.09375 29.274601 13.368351 29.96875 12.5 29.96875 L 5.6875 29.96875 C 4.8191493 29.96875 4.09375 29.274601 4.09375 28.40625 z "
         style="color:#000000;fill:#ffffff;fill-opacity:0.16770187;fill-rule:nonzero;stroke:none;stroke-width:0.2;marker:none;visibility:visible;display:inline;overflow:visible;enable-background:accumulate" />
      <path
         id="path1000"
         transform="translate(0,1004.3622)"
         d="M 5.6875 20.3125 C 4.8739586 20.3125 4.2086187 20.95551 4.125 21.75 C 4.2757179 21.029413 4.9276931 20.46875 5.6875 20.46875 L 12.5 20.46875 C 13.259807 20.46875 13.911782 21.029413 14.0625 21.75 C 13.978881 20.95551 13.313542 20.3125 12.5 20.3125 L 5.6875 20.3125 z M 14.0625 21.75 C 14.073159 21.800961 14.056977 21.853774 14.0625 21.90625 C 14.06261 21.9073 14.093642 21.9052 14.09375 21.90625 C 14.09375 21.851438 14.068133 21.803526 14.0625 21.75 z M 4.125 21.75 C 4.1193665 21.803526 4.09375 21.851438 4.09375 21.90625 C 4.0938583 21.9052 4.1248895 21.9073 4.125 21.90625 C 4.130523 21.853774 4.114341 21.800961 4.125 21.75 z "
         style="color:#000000;fill:#000000;fill-opacity:0.16770187;fill-rule:nonzero;stroke:none;stroke-width:0.2;marker:none;visibility:visible;display:inline;overflow:visible;enable-background:accumulate" />
      <path
         d="m 8.539801,1029.1213 0,-1.9466 1.1067193,0 0,1.9466 1.9367587,0 0,1.1067 -1.9367587,0 0,1.9467 -1.1067193,0 0,-1.9467 -1.936759,0 0,-1.1067 L 8.539801,1029.1213 Z"
         style="font-size:9.881423px;font-style:normal;font-variant:normal;font-weight:normal;font-stretch:normal;line-height:125%;letter-spacing:0px;word-spacing:0px;fill:#ffffff;fill-opacity:1;stroke:none;font-family:Helvetica;-inkscape-font-specification:Helvetica"
         id="path1080"
         inkscape:connector-curvature="0" />
    </g>
    <g
       id="g1107">
      <rect
         transform="scale(-1,1)"
         style="color:#000000;fill:#38393b;fill-opacity:1;fill-rule:nonzero;stroke:none;stroke-width:0.2;marker:none;visibility:visible;display:inline;overflow:visible;enable-background:accumulate"
         id="rect956"
         width="10.375"
         height="10.375"
         x="-14.280661"
         y="1036.4872"
         ry="1.6302739" />
      <rect
         ry="1.5674201"
         y="1036.6871"
         x="-14.08066"
         height="9.9749985"
         width="9.9749985"
         id="rect958"
         style="color:#000000;fill:url(#linearGradient964);fill-opacity:1.0;fill-rule:nonzero;stroke:none;stroke-width:0.2;marker:none;visibility:visible;display:inline;overflow:visible;enable-background:accumulate"
         transform="scale(-1,1)" />
      <path
         inkscape:connector-curvature="0"
         style="color:#000000;fill:#ffffff;fill-opacity:0.16770187;fill-rule:nonzero;stroke:none;stroke-width:0.2;marker:none;visibility:visible;display:inline;overflow:visible;enable-background:accumulate"
         d="m 4.09375,1044.7559 0,0.3125 c 0,0.8683 0.7253993,1.5937 1.59375,1.5937 l 6.8125,0 c 0.868351,0 1.59375,-0.7254 1.59375,-1.5937 l 0,-0.3125 c 0,0.8683 -0.725399,1.5625 -1.59375,1.5625 l -6.8125,0 C 4.8191493,1046.3184 4.09375,1045.6242 4.09375,1044.7559 Z"
         id="path1007" />
      <path
         inkscape:connector-curvature="0"
         style="color:#000000;fill:#000000;fill-opacity:0.16770187;fill-rule:nonzero;stroke:none;stroke-width:0.2;marker:none;visibility:visible;display:inline;overflow:visible;enable-background:accumulate"
         d="m 5.6875,1036.6871 c -0.8135414,0 -1.4788813,0.643 -1.5625,1.4375 0.1507179,-0.7206 0.8026931,-1.2812 1.5625,-1.2812 l 6.8125,0 c 0.759807,0 1.411782,0.5606 1.5625,1.2812 -0.08362,-0.7945 -0.748958,-1.4375 -1.5625,-1.4375 L 5.6875,1036.6871 z m 8.375,1.4375 c 0.01066,0.051 -0.0055,0.1038 0,0.1563 1.1e-4,10e-4 0.03114,-0 0.03125,0 C 14.09375,1038.2261 14.068133,1038.1782 14.0625,1038.1246 z m -9.9375,0 c -0.00563,0.054 -0.03125,0.1015 -0.03125,0.1563 1.083e-4,-0 0.03114,10e-4 0.03125,0 C 4.130523,1038.2284 4.114341,1038.1756 4.125,1038.1246 Z"
         id="path1013" />
      <path
         d="m 9.8638374,1041.6277 1.7011276,2.547 -1.6259396,0 -0.8646617,-1.5038 -0.8646617,1.5038 -1.5883459,0 1.7011279,-2.547 -1.6447369,-2.453 1.5977444,0 0.8458647,1.4567 0.8270677,-1.4567 1.5507521,0 L 9.8638374,1041.6277 Z"
         style="font-size:9.39849663px;font-style:normal;font-variant:normal;font-weight:normal;font-stretch:normal;line-height:125%;letter-spacing:0px;word-spacing:0px;fill:#ffffff;fill-opacity:1;stroke:none;font-family:Helvetica;-inkscape-font-specification:Helvetica"
         id="path1077"
         inkscape:connector-curvature="0" />
    </g>
    <g
       id="g1137"
       transform="translate(-2.335178e-6,0)">
      <path
         sodipodi:nodetypes="ssscscscsssssscscscssss"
         inkscape:connector-curvature="0"
         id="rect909"
         d="m 42.779911,1024.4872 c 0.729066,0 1.3125,0.5834 1.3125,1.3125 l 0,5.75 c 0,0.045 0.0043,0.081 0,0.125 0.0043,0.044 0,0.08 0,0.125 l 0,5.75 0,2 c 0,0.045 0.0043,0.081 0,0.125 0.0043,0.044 0,0.08 0,0.125 l 0,5.75 c 0,0.7291 -0.583434,1.3125 -1.3125,1.3125 l -9.42938,0 c -0.729066,0 -1.3125,-0.5834 -1.3125,-1.3125 l 0,-5.75 c 0,-0.045 -0.0043,-0.081 0,-0.125 -0.0043,-0.044 0,-0.08 0,-0.125 l 0,-5.75 0,-2 c 0,-0.045 -0.0043,-0.081 0,-0.125 -0.0043,-0.044 0,-0.08 0,-0.125 l 0,-5.75 C 32.038031,1025.0706 32.621465,1024.4872 33.350531,1024.4872 Z"
         style="color:#000000;fill:#38393b;fill-opacity:1;fill-rule:nonzero;stroke:none;stroke-width:0.2;marker:none;visibility:visible;display:inline;overflow:visible;enable-background:accumulate" />
      <path
         style="color:#000000;fill:url(#linearGradient976);fill-opacity:1;fill-rule:nonzero;stroke:none;stroke-width:0.2;marker:none;visibility:visible;display:inline;overflow:visible;enable-background:accumulate"
         d="m 42.633366,1024.6945 c 0.701518,0 1.262905,0.5725 1.262905,1.288 l 0,5.6436 c 0,0.044 0.0043,0.08 0,0.1228 0.0043,0.043 0,0.079 0,0.1225 l 0,5.6435 0,1.963 c 0,0.045 0.0043,0.08 0,0.1226 0.0043,0.044 0,0.079 0,0.1228 l 0,5.6434 c 0,0.7156 -0.561387,1.2882 -1.262905,1.2882 l -9.136534,0 c -0.701518,0 -1.262905,-0.5726 -1.262905,-1.2882 l 0,-5.6434 c 0,-0.045 -0.0043,-0.08 0,-0.1228 -0.0043,-0.044 0,-0.079 0,-0.1226 l 0,-5.6434 0,-1.9631 c 0,-0.044 -0.0043,-0.08 0,-0.1225 -0.0043,-0.044 -7.71e-4,-0.079 0,-0.1228 l 0.09944,-5.6436 C 32.345969,1025.2671 32.894751,1024.6945 33.596269,1024.6945 Z"
         id="path968"
         inkscape:connector-curvature="0"
         sodipodi:nodetypes="ssscscscsssssscscscssss" />
      <path
         sodipodi:nodetypes="cscsscsccssc"
         inkscape:connector-curvature="0"
         id="path1017"
         transform="translate(0,1004.3622)"
         d="m 32.289371,41.34375 c 0.09837,0.354252 0.337744,0.654454 0.65625,0.8125 0.02056,0.0102 0.04132,0.02217 0.0625,0.03125 0.15659,0.05605 0.326701,0.08456 0.5,0.09375 0.03087,0.0016 0.06251,0 0.09375,0 l 9.023129,0 c 0.173299,-0.0092 0.34341,-0.0377 0.5,-0.09375 0.02176,-0.0078 0.04116,-0.02264 0.0625,-0.03125 0.318506,-0.158046 0.557877,-0.458248 0.65625,-0.8125 -0.31288,0.360403 -0.780998,0.59375 -1.3125,0.59375 l -8.929379,0 C 33.070369,41.9375 32.602251,41.704153 32.289371,41.34375 Z"
         style="color:#000000;fill:#ffffff;fill-opacity:0.16770187;fill-rule:nonzero;stroke:none;stroke-width:0.2;marker:none;visibility:visible;display:inline;overflow:visible;enable-background:accumulate" />
      <path
         sodipodi:nodetypes="cccccccccssccccccccccscc"
         inkscape:connector-curvature="0"
         id="path1019"
         d="m 33.351871,1024.6978 c -0.164683,0.031 -0.325706,0.08 -0.46875,0.1563 -0.09206,0.049 -0.169553,0.123 -0.25,0.1875 -0.01037,0.01 -0.02122,0.021 -0.03125,0.031 -0.01139,0.01 -0.02013,0.021 -0.03125,0.031 -0.0575,0.063 -0.107613,0.1457 -0.15625,0.2187 -0.05489,0.079 -0.09292,0.1905 -0.125,0.2813 0.03769,-0.054 0.08126,-0.1073 0.125,-0.1563 -0.04864,0.073 -0.0958,0.1361 -0.125,0.2188 0.30148,-0.4298 0.805267,-0.7188 1.375,-0.7188 l 8.804379,0 c 0.579197,0 1.075653,0.3084 1.375,0.75 -0.01881,-0.057 -0.06648,-0.1028 -0.09375,-0.1562 0.02725,0.034 0.06911,0.057 0.09375,0.094 -0.01881,-0.057 -0.06648,-0.1028 -0.09375,-0.1562 0.02725,0.034 0.06911,0.057 0.09375,0.094 -0.05786,-0.1765 -0.15978,-0.3362 -0.28125,-0.4687 -0.01018,-0.01 -0.02084,-0.022 -0.03125,-0.031 -0.06203,-0.063 -0.144808,-0.1073 -0.21875,-0.1562 -0.0084,-0.01 -0.02278,0 -0.03125,0 -0.160981,-0.095 -0.309113,-0.1824 -0.5,-0.2188 -0.04974,-0.01 -0.105003,0 -0.15625,0 l -9.116879,0 C 33.456874,1024.7027 33.401607,1024.6883 33.351871,1024.6978 Z"
         style="color:#000000;fill:#000000;fill-opacity:0.30434798;fill-rule:nonzero;stroke:none;stroke-width:0.2;marker:none;visibility:visible;display:inline;overflow:visible;enable-background:accumulate" />
      <path
         d="m 40.565007,1034.0278 0,1.1111 -5,0 0,-1.1111 L 40.565007,1034.0278 z m 0,2.1826 0,1.1111 -5,0 0,-1.1111 L 40.565007,1036.2104 Z"
         style="font-size:9.92063522px;font-style:normal;font-variant:normal;font-weight:normal;font-stretch:normal;line-height:125%;letter-spacing:0px;word-spacing:0px;fill:#ffffff;fill-opacity:1;stroke:none;font-family:Helvetica;-inkscape-font-specification:Helvetica"
         id="path1068"
         inkscape:connector-curvature="0" />
    </g>
    <g
       id="g1130"
       transform="translate(0.06522942,0)">
      <rect
         transform="scale(-1,1)"
         style="color:#000000;fill:#38393b;fill-opacity:1;fill-rule:nonzero;stroke:none;stroke-width:0.2;marker:none;visibility:visible;display:inline;overflow:visible;enable-background:accumulate"
         id="rect950"
         width="10.375"
         height="10.375"
         x="-28.280661"
         y="1024.4872"
         ry="1.6302739" />
      <rect
         ry="1.5674201"
         y="1024.6871"
         x="-28.08066"
         height="9.9749985"
         width="9.9749985"
         id="rect952"
         style="color:#000000;fill:url(#linearGradient954);fill-opacity:1;fill-rule:nonzero;stroke:none;stroke-width:0.2;marker:none;visibility:visible;display:inline;overflow:visible;enable-background:accumulate"
         transform="scale(-1,1)" />
      <path
         inkscape:connector-curvature="0"
         style="color:#000000;fill:#ffffff;fill-opacity:0.16770187;fill-rule:nonzero;stroke:none;stroke-width:0.2;marker:none;visibility:visible;display:inline;overflow:visible;enable-background:accumulate"
         d="m 18.093161,1032.7685 0,0.3125 c 0,0.8683 0.725399,1.5937 1.59375,1.5937 l 6.8125,0 c 0.868351,0 1.59375,-0.7254 1.59375,-1.5937 l 0,-0.3125 c 0,0.8683 -0.725399,1.5625 -1.59375,1.5625 l -6.8125,0 C 18.81856,1034.331 18.093161,1033.6368 18.093161,1032.7685 Z"
         id="path1005" />
      <path
         inkscape:connector-curvature="0"
         style="color:#000000;fill:#000000;fill-opacity:0.16770187;fill-rule:nonzero;stroke:none;stroke-width:0.2;marker:none;visibility:visible;display:inline;overflow:visible;enable-background:accumulate"
         d="m 19.686911,1024.6871 c -0.813542,0 -1.478882,0.643 -1.5625,1.4375 0.150718,-0.7206 0.802693,-1.2812 1.5625,-1.2812 l 6.8125,0 c 0.759807,0 1.411782,0.5606 1.5625,1.2812 -0.08362,-0.7945 -0.748958,-1.4375 -1.5625,-1.4375 L 19.686911,1024.6871 z m 8.375,1.4375 c 0.01066,0.051 -0.0055,0.1038 0,0.1563 1.1e-4,10e-4 0.03114,0 0.03125,0 C 28.093161,1026.2261 28.067544,1026.1782 28.061911,1026.1246 z m -9.9375,0 c -0.0056,0.054 -0.03125,0.1015 -0.03125,0.1563 1.08e-4,0 0.03114,10e-4 0.03125,0 C 18.129934,1026.2284 18.113752,1026.1756 18.124411,1026.1246 Z"
         id="path1011" />
      <path
         inkscape:connector-curvature="0"
         id="path1103"
         d="m 25.59316,1029.1191 0,1.1111 -5,0 0,-1.1111 L 25.59316,1029.1191 Z"
         style="font-size:9.92063522px;font-style:normal;font-variant:normal;font-weight:normal;font-stretch:normal;line-height:125%;letter-spacing:0px;word-spacing:0px;fill:#ffffff;fill-opacity:1;stroke:none;font-family:Helvetica;-inkscape-font-specification:Helvetica" />
    </g>
    <text
       xml:space="preserve"
       style="font-size:20px;font-style:normal;font-variant:normal;font-weight:normal;font-stretch:normal;line-height:125%;letter-spacing:0px;word-spacing:0px;fill:#000000;fill-opacity:1;stroke:none;font-family:Helvetica;-inkscape-font-specification:Helvetica"
       x="21.6875"
       y="33.5"
       id="text1091"
       sodipodi:linespacing="125%"
       transform="translate(0,1004.3622)"><tspan
         sodipodi:role="line"
         id="tspan1093"
         x="21.6875"
         y="33.5" /></text>
    <g
       id="g1121"
       transform="translate(0.06522942,0)">
      <rect
         ry="1.6302739"
         y="1036.4872"
         x="-28.280661"
         height="10.375"
         width="10.375"
         id="rect960"
         style="color:#000000;fill:#38393b;fill-opacity:1;fill-rule:nonzero;stroke:none;stroke-width:0.2;marker:none;visibility:visible;display:inline;overflow:visible;enable-background:accumulate"
         transform="scale(-1,1)" />
      <rect
         transform="scale(-1,1)"
         style="color:#000000;fill:url(#linearGradient966);fill-opacity:1;fill-rule:nonzero;stroke:none;stroke-width:0.2;marker:none;visibility:visible;display:inline;overflow:visible;enable-background:accumulate"
         id="rect962"
         width="9.9749985"
         height="9.9749985"
         x="-28.08066"
         y="1036.6871"
         ry="1.5674201" />
      <path
         id="path1009"
         d="m 18.093161,1044.7559 0,0.3125 c 0,0.8683 0.725399,1.5937 1.59375,1.5937 l 6.8125,0 c 0.868351,0 1.59375,-0.7254 1.59375,-1.5937 l 0,-0.3125 c 0,0.8683 -0.725399,1.5625 -1.59375,1.5625 l -6.8125,0 C 18.81856,1046.3184 18.093161,1045.6242 18.093161,1044.7559 Z"
         style="color:#000000;fill:#ffffff;fill-opacity:0.16770187;fill-rule:nonzero;stroke:none;stroke-width:0.2;marker:none;visibility:visible;display:inline;overflow:visible;enable-background:accumulate"
         inkscape:connector-curvature="0" />
      <path
         id="path1015"
         d="m 19.686911,1036.6871 c -0.813542,0 -1.478882,0.643 -1.5625,1.4375 0.150718,-0.7206 0.802693,-1.2812 1.5625,-1.2812 l 6.8125,0 c 0.759807,0 1.411782,0.5606 1.5625,1.2812 -0.08362,-0.7945 -0.748958,-1.4375 -1.5625,-1.4375 L 19.686911,1036.6871 z m 8.375,1.4375 c 0.01066,0.051 -0.0055,0.1038 0,0.1563 1.1e-4,10e-4 0.03114,0 0.03125,0 C 28.093161,1038.2261 28.067544,1038.1782 28.061911,1038.1246 z m -9.9375,0 c -0.0056,0.054 -0.03125,0.1015 -0.03125,0.1563 1.08e-4,0 0.03114,10e-4 0.03125,0 C 18.129934,1038.2284 18.113752,1038.1756 18.124411,1038.1246 Z"
         style="color:#000000;fill:#000000;fill-opacity:0.16770187;fill-rule:nonzero;stroke:none;stroke-width:0.2;marker:none;visibility:visible;display:inline;overflow:visible;enable-background:accumulate"
         inkscape:connector-curvature="0" />
      <path
         inkscape:connector-curvature="0"
         id="path1074"
         d="m 25.593161,1041.1191 0,1.1111 -5,0 0,-1.1111 L 25.593161,1041.1191 Z"
         style="font-size:9.92063522px;font-style:normal;font-variant:normal;font-weight:normal;font-stretch:normal;line-height:125%;letter-spacing:0px;word-spacing:0px;fill:#ffffff;fill-opacity:1;stroke:none;font-family:Helvetica;-inkscape-font-specification:Helvetica" />
      <path
         sodipodi:type="arc"
         style="color:#000000;fill:#ffffff;fill-opacity:1;fill-rule:nonzero;stroke:none;stroke-width:0.2;marker:none;visibility:visible;display:inline;overflow:visible;enable-background:accumulate"
         id="path1097"
         sodipodi:cx="22.96875"
         sodipodi:cy="34.65625"
         sodipodi:rx="1.15625"
         sodipodi:ry="1.15625"
         d="m 24.125,34.65625 c 0,0.638579 -0.517671,1.15625 -1.15625,1.15625 -0.638579,0 -1.15625,-0.517671 -1.15625,-1.15625 C 21.8125,34.017671 22.330171,33.5 22.96875,33.5 23.607329,33.5 24.125,34.017671 24.125,34.65625 Z"
         transform="matrix(0.63689111,0,0,0.63689111,8.4645683,1021.366)" />
      <path
         transform="matrix(0.63689111,0,0,0.63689111,8.4645683,1017.8388)"
         d="m 24.125,34.65625 c 0,0.638579 -0.517671,1.15625 -1.15625,1.15625 -0.638579,0 -1.15625,-0.517671 -1.15625,-1.15625 C 21.8125,34.017671 22.330171,33.5 22.96875,33.5 23.607329,33.5 24.125,34.017671 24.125,34.65625 Z"
         sodipodi:ry="1.15625"
         sodipodi:rx="1.15625"
         sodipodi:cy="34.65625"
         sodipodi:cx="22.96875"
         id="path1099"
         style="color:#000000;fill:#ffffff;fill-opacity:1;fill-rule:nonzero;stroke:none;stroke-width:0.2;marker:none;visibility:visible;display:inline;overflow:visible;enable-background:accumulate"
         sodipodi:type="arc" />
    </g>
  </g>
</svg>
