<?xml version="1.0" encoding="UTF-8" standalone="no"?>
<!-- Created with Inkscape (http://www.inkscape.org/) -->

<svg
   xmlns:dc="http://purl.org/dc/elements/1.1/"
   xmlns:cc="http://creativecommons.org/ns#"
   xmlns:rdf="http://www.w3.org/1999/02/22-rdf-syntax-ns#"
   xmlns:svg="http://www.w3.org/2000/svg"
   xmlns="http://www.w3.org/2000/svg"
   xmlns:xlink="http://www.w3.org/1999/xlink"
   xmlns:sodipodi="http://sodipodi.sourceforge.net/DTD/sodipodi-0.dtd"
   xmlns:inkscape="http://www.inkscape.org/namespaces/inkscape"
   width="48"
   height="48"
   id="svg2"
   version="1.1"
   inkscape:version="0.48+devel r12112"
   sodipodi:docname="calligrastage.svg">
  <defs
     id="defs4">
    <linearGradient
       inkscape:collect="always"
       id="linearGradient959">
      <stop
         style="stop-color:#fcfdff;stop-opacity:1"
         offset="0"
         id="stop961" />
      <stop
         style="stop-color:#fcfdff;stop-opacity:1"
         offset="1"
         id="stop963" />
    </linearGradient>
    <linearGradient
       inkscape:collect="always"
       id="linearGradient923">
      <stop
         style="stop-color:#c12321;stop-opacity:1"
         offset="0"
         id="stop925" />
      <stop
         style="stop-color:#d42726;stop-opacity:1"
         offset="1"
         id="stop927" />
    </linearGradient>
    <linearGradient
       inkscape:collect="always"
       id="linearGradient894">
      <stop
         style="stop-color:#f4f9ff;stop-opacity:1;"
         offset="0"
         id="stop896" />
      <stop
         style="stop-color:#f4f9ff;stop-opacity:0;"
         offset="1"
         id="stop898" />
    </linearGradient>
    <linearGradient
       inkscape:collect="always"
       xlink:href="#linearGradient894"
       id="linearGradient900"
       x1="24.670391"
       y1="-1042.7086"
       x2="24.670391"
       y2="-1014.6415"
       gradientUnits="userSpaceOnUse"
       gradientTransform="matrix(1.0301811,0,0,1.0301811,-0.38631763,32.421394)" />
    <linearGradient
       inkscape:collect="always"
       xlink:href="#linearGradient923"
       id="linearGradient929"
       x1="23.28125"
       y1="24.90625"
       x2="23.28125"
       y2="22.9375"
       gradientUnits="userSpaceOnUse" />
    <linearGradient
       inkscape:collect="always"
       xlink:href="#linearGradient959"
       id="linearGradient965"
       x1="26.162951"
       y1="-1052.7157"
       x2="26.162951"
       y2="-1004.8093"
       gradientUnits="userSpaceOnUse" />
  </defs>
  <sodipodi:namedview
     id="base"
     pagecolor="#ffffff"
     bordercolor="#666666"
     borderopacity="1.0"
     inkscape:pageopacity="0.0"
     inkscape:pageshadow="2"
     inkscape:zoom="8"
     inkscape:cx="19.861228"
     inkscape:cy="25.950717"
     inkscape:document-units="px"
     inkscape:current-layer="layer1"
     showgrid="false"
     inkscape:window-width="1366"
     inkscape:window-height="718"
     inkscape:window-x="0"
     inkscape:window-y="28"
     inkscape:window-maximized="1" />
  <metadata
     id="metadata7">
    <rdf:RDF>
      <cc:Work
         rdf:about="">
        <dc:format>image/svg+xml</dc:format>
        <dc:type
           rdf:resource="http://purl.org/dc/dcmitype/StillImage" />
        <dc:title />
      </cc:Work>
    </rdf:RDF>
  </metadata>
  <g
     inkscape:label="Capa 1"
     inkscape:groupmode="layer"
     id="layer1"
     transform="translate(0,-1004.3622)">
    <rect
       style="fill:url(#linearGradient965);fill-opacity:1;stroke:none"
       id="rect2991-1"
       width="48"
       height="48"
       x="8.3740233e-08"
       y="-1052.3622"
       ry="1.9445436"
       transform="scale(1,-1)" />
    <path
       inkscape:connector-curvature="0"
       style="fill:#000000;fill-opacity:1;stroke:none"
       d="m -8.3740236e-8,1049.3622 0,1.0625 c 0,1.0773 0.860223003740236,1.9375 1.937499983740236,1.9375 l 44.1250001,0 c 1.077277,0 1.9375,-0.8602 1.9375,-1.9375 l 0,-1.0625 c 0,1.0773 -0.860223,1.9375 -1.9375,1.9375 l -44.1250001,0 C 0.86022292,1051.2997 -8.3740236e-8,1050.4395 -8.3740236e-8,1049.3622 Z"
       id="rect846" />
    <path
       inkscape:connector-curvature="0"
       style="fill:#ffffff;fill-opacity:0.5372549;stroke:none"
       d="m 2.5312499,1005.0185 c -0.917088,0 -1.67114698,0.6395 -1.84374998,1.5 0.33561198,-0.2799 0.77451198,-0.4375 1.24999998,-0.4375 l 44.1250001,0 c 0.475488,0 0.914388,0.1576 1.25,0.4375 -0.172603,-0.8605 -0.926662,-1.5 -1.84375,-1.5 L 2.5312499,1005.0185 Z"
       id="path7515" />
    <path
       inkscape:connector-curvature="0"
       style="fill:#000000;fill-opacity:0.39215686;stroke:none"
       d="m 1.9374999,1004.3622 c -1.07727698,0 -1.937499983740236,0.8602 -1.937499983740236,1.9375 l 0,43.0625 c 0,0.7934 0.480024003740236,1.449 1.156249983740236,1.75 -0.30934198,-0.3333 -0.49999998,-0.7824 -0.49999998,-1.2812 l 0,-42.9375 c 0,-1.0482 0.82689898,-1.875 1.87499998,-1.875 l 42.9375001,0 c 1.048101,0 1.875,0.8268 1.875,1.875 l 0,42.9375 c 0,0.4988 -0.190658,0.9479 -0.5,1.2812 0.676226,-0.301 1.15625,-0.9566 1.15625,-1.75 l 0,-43.0625 c 0,-1.0773 -0.860223,-1.9375 -1.9375,-1.9375 L 1.9374999,1004.3622 Z"
       id="rect4280" />
    <path
       style="color:#000000;fill:#cccccc;fill-opacity:1;fill-rule:nonzero;stroke:none;stroke-width:0.2;marker:none;visibility:visible;display:inline;overflow:visible;enable-background:accumulate"
       d="m 9.7223343,1012.7485 0,28.6519 0.3863187,0 L 10.108653,1012.7485 z m 14.4225357,0 0,28.6519 0.386318,0 L 24.531188,1012.7485 z m 14.422535,0 0,28.6519 0.386318,0 L 38.953723,1012.7485 Z"
       id="rect870"
       inkscape:connector-curvature="0"
       sodipodi:nodetypes="ccccccccccccccc" />
    <path
       style="color:#000000;fill:#cccccc;fill-opacity:1;fill-rule:nonzero;stroke:none;stroke-width:0.2;marker:none;visibility:visible;display:inline;overflow:visible;enable-background:accumulate"
       d="m 5.7947689,1012.3622 0,0.3863 37.0865191,0 L 42.881288,1012.3622 z m 0,14.4225 0,0.3864 37.0865191,0 L 42.881288,1026.7847 z m 0,14.4226 0,0.3863 37.0865191,0 L 42.881288,1041.2073 Z"
       id="rect886"
       inkscape:connector-curvature="0"
       sodipodi:nodetypes="ccccccccccccccc" />
    <rect
       transform="scale(1,-1)"
       ry="0"
       y="-1041.4004"
       x="9.915493"
       height="28.84507"
       width="28.84507"
       id="rect892"
       style="fill:url(#linearGradient900);fill-opacity:1;stroke:none" />
    <path
       style="color:#000000;fill:#2999f4;fill-opacity:1;fill-rule:nonzero;stroke:none;stroke-width:0.2;marker:none;visibility:visible;display:inline;overflow:visible;enable-background:accumulate"
       d="m 18.990729,1021.1509 -0.321932,0.3219 -8.65996,8.66 0.321932,0.3541 8.65996,-8.6922 L 19.31266,1021.4728 Z"
       id="rect902"
       inkscape:connector-curvature="0"
       sodipodi:nodetypes="ccccccc" />
    <path
       style="color:#000000;fill:#2999f4;fill-opacity:1;fill-rule:nonzero;stroke:none;stroke-width:0.2;marker:none;visibility:visible;display:inline;overflow:visible;enable-background:accumulate"
       d="m 18.990729,1021.1509 -0.321932,0.3219 5.730382,5.7304 L 24.624532,1026.7847 z m 5.955734,5.9558 L 24.721111,1027.5251 Z"
       id="rect904"
       inkscape:connector-curvature="0"
       sodipodi:nodetypes="cccccccc" />
    <rect
       style="color:#000000;fill:#2999f4;fill-opacity:1;fill-rule:nonzero;stroke:none;stroke-width:0.2;marker:none;visibility:visible;display:inline;overflow:visible;enable-background:accumulate"
       id="rect914"
       width="0.46041617"
       height="15.654147"
       x="-534.7168"
       y="861.56671"
       transform="matrix(-0.8660254,-0.5,-0.5,0.8660254,0,0)" />
    <path
       style="color:#000000;fill:#000000;fill-opacity:0.49302326;fill-rule:nonzero;stroke:none;stroke-width:0.2;marker:none;visibility:visible;display:inline;overflow:visible;enable-background:accumulate"
       d="m 23.404427,1027.0584 c -0.0035,0.033 -0.03219,0.063 -0.03219,0.097 0,0.5333 0.432401,0.9658 0.965795,0.9658 0.533394,0 0.965795,-0.4325 0.965795,-0.9658 0,-0.034 -0.02872,-0.063 -0.03219,-0.097 -0.05479,0.4814 -0.437546,0.8692 -0.933602,0.8692 C 23.841973,1027.9276 23.459215,1027.5398 23.404427,1027.0584 Z"
       id="path931"
       inkscape:connector-curvature="0" />
    <path
       sodipodi:type="arc"
       style="color:#000000;fill:url(#linearGradient929);fill-opacity:1;fill-rule:nonzero;stroke:none;stroke-width:0.2;marker:none;visibility:visible;display:inline;overflow:visible;enable-background:accumulate"
       id="path921"
       sodipodi:cx="23.125"
       sodipodi:cy="23.875"
       sodipodi:rx="0.9375"
       sodipodi:ry="0.9375"
       d="m 24.0625,23.875 a 0.9375,0.9375 0 1 1 -1.875,0 A 0.9375,0.9375 0 1 1 24.0625,23.875 Z"
       transform="matrix(1.0301811,0,0,1.0301811,0.51509082,1002.3823)" />
    <path
       style="font-size:2.41932726px;font-style:normal;font-variant:normal;font-weight:normal;font-stretch:normal;line-height:125%;letter-spacing:0px;word-spacing:0px;fill:#6c7587;fill-opacity:1;stroke:none;font-family:Helvetica;-inkscape-font-specification:Helvetica"
       d="m 5.6981895,1013.7143 c 0,0.081 -0.036763,0.1382 -0.09658,0.1932 -0.07477,0.068 -0.1690678,0.097 -0.3219316,0.097 l -0.064386,0 0,0.2575 0.418511,0 0,1.2233 0.3541248,0 0,-1.7706 L 5.6981895,1013.7143 z m 1.416499,0 c -0.2093571,0 -0.3510105,0.077 -0.4507043,0.2254 -0.098032,0.1462 -0.1609658,0.3653 -0.1609658,0.676 0,0.3091 0.061272,0.5265 0.1609658,0.6761 0.1013553,0.1478 0.275202,0.2253 0.4828974,0.2253 0.209357,0 0.3510104,-0.077 0.4507042,-0.2253 0.099694,-0.148 0.1609658,-0.3654 0.1609658,-0.6761 0,-0.3107 -0.059611,-0.5298 -0.1609658,-0.676 C 7.497892,1013.7918 7.3240455,1013.7143 7.1146885,1013.7143 z m 1.4164989,0 c -0.209357,0 -0.3832035,0.077 -0.4828973,0.2254 -0.098032,0.1462 -0.1287727,0.3653 -0.1287727,0.676 0,0.3091 0.029079,0.5265 0.1287727,0.6761 0.1013554,0.1478 0.2752019,0.2253 0.4828973,0.2253 0.2093571,0 0.3510105,-0.077 0.4507043,-0.2253 0.099694,-0.148 0.1609658,-0.3654 0.1609658,-0.6761 0,-0.3107 -0.05961,-0.5298 -0.1609658,-0.676 C 8.8821979,1013.7918 8.7405445,1013.7143 8.5311874,1013.7143 z m -1.4164989,0.2576 c 0.098032,0 0.1887978,0.068 0.2253521,0.1609 0.036554,0.093 0.032193,0.2503 0.032193,0.4829 0,0.2344 0.00436,0.3899 -0.032193,0.4829 -0.034893,0.093 -0.095127,0.161 -0.193159,0.161 -0.098032,0 -0.1887979,-0.068 -0.2253521,-0.161 -0.034893,-0.095 -0.032193,-0.2503 -0.032193,-0.4829 0,-0.2326 -0.0027,-0.3898 0.032193,-0.4829 C 6.9580839,1014.0398 7.0183178,1013.9719 7.1146885,1013.9719 z m 1.4164989,0 c 0.098032,0 0.1566048,0.068 0.193159,0.1609 0.036554,0.093 0.064386,0.2503 0.064386,0.4829 0,0.2344 -0.027832,0.3899 -0.064386,0.4829 -0.034893,0.093 -0.095127,0.161 -0.193159,0.161 -0.098032,0 -0.1887978,-0.068 -0.2253521,-0.161 -0.034893,-0.095 -0.032193,-0.2503 -0.032193,-0.4829 0,-0.2326 -0.0027,-0.3898 0.032193,-0.4829 C 8.3423898,1014.0398 8.4348168,1013.9719 8.5311874,1013.9719 z m -2.8008048,14.1649 c -0.15951,0 -0.2833009,0.041 -0.3863179,0.1288 -0.103017,0.086 -0.1609658,0.2063 -0.1609658,0.3541 0,0.1596 0.084119,0.2827 0.2253521,0.3542 -0.114648,0.053 -0.2160063,0.1189 -0.2575452,0.2253 -0.0216,0.055 -0.032193,0.1084 -0.032193,0.1932 0,0.1412 0.06958,0.2866 0.1609658,0.3863 0.1096632,0.118 0.2430088,0.161 0.4507042,0.161 0.2110186,0 0.3715726,-0.057 0.4828974,-0.1932 0.086401,-0.1047 0.1287726,-0.245 0.1287726,-0.3863 0,-0.1097 -0.017862,-0.1878 -0.064386,-0.2576 -0.039878,-0.06 -0.1017729,-0.1163 -0.1931589,-0.1609 0.071447,-0.037 0.1277342,-0.069 0.1609657,-0.1288 0.033232,-0.06 0.064386,-0.144 0.064386,-0.2253 0,-0.1297 -0.064595,-0.2356 -0.1609657,-0.322 C 6.0458767,1028.1743 5.9065084,1028.1368 5.7303826,1028.1368 z m 1.3843059,0 c -0.2093571,0 -0.3510105,0.078 -0.4507043,0.2254 -0.098032,0.1462 -0.1609658,0.3654 -0.1609658,0.6761 0,0.309 0.061272,0.5265 0.1609658,0.676 0.1013553,0.1479 0.275202,0.2254 0.4828974,0.2254 0.209357,0 0.3510104,-0.077 0.4507042,-0.2254 0.099694,-0.1479 0.1609658,-0.3653 0.1609658,-0.676 0,-0.3107 -0.059611,-0.5299 -0.1609658,-0.6761 C 7.497892,1028.2143 7.3240455,1028.1368 7.1146885,1028.1368 z m -1.3521127,0.2576 c 0.058154,0 0.090556,0.023 0.1287726,0.064 0.039878,0.04 0.064386,0.096 0.064386,0.1609 0,0.065 -0.026171,0.1198 -0.064386,0.161 -0.036555,0.04 -0.060649,0.064 -0.1287726,0.064 -0.071447,0 -0.1516194,-0.021 -0.193159,-0.064 -0.039878,-0.045 -0.064386,-0.1026 -0.064386,-0.161 0,-0.068 0.024509,-0.1225 0.064386,-0.1609 C 5.6109559,1028.4189 5.6844823,1028.3944 5.7625758,1028.3944 z m 1.3521127,0 c 0.098032,0 0.1887978,0.068 0.2253521,0.161 0.036554,0.093 0.032193,0.2502 0.032193,0.4829 0,0.2342 0.00436,0.3898 -0.032193,0.4829 -0.034893,0.093 -0.095127,0.1609 -0.193159,0.1609 -0.098032,0 -0.1887979,-0.068 -0.2253521,-0.1609 -0.034893,-0.095 -0.032193,-0.2503 -0.032193,-0.4829 0,-0.2327 -0.0027,-0.3899 0.032193,-0.4829 C 6.9580839,1028.4623 7.0183178,1028.3944 7.1146885,1028.3944 z m -1.3843059,0.7082 c 0.089725,0 0.1788284,0.035 0.2253521,0.097 0.038216,0.05 0.032193,0.1201 0.032193,0.1932 0,0.073 0.00602,0.1415 -0.032193,0.1931 -0.044862,0.062 -0.1084192,0.097 -0.1931589,0.097 -0.079755,0 -0.1466353,-0.046 -0.193159,-0.097 -0.044862,-0.051 -0.064386,-0.1067 -0.064386,-0.1931 0,-0.092 0.017863,-0.1807 0.064386,-0.2254 C 5.6176022,1029.1203 5.6605969,1029.1026 5.7303826,1029.1026 z m 0.064386,13.4568 c -0.1877566,0 -0.3427026,0.05 -0.4507042,0.1609 -0.086401,0.09 -0.1599274,0.1963 -0.1931589,0.3542 -0.0216,0.1029 -0.032193,0.23 -0.032193,0.3863 0,0.2641 0.049018,0.4687 0.1287726,0.6117 0.103017,0.1861 0.2708407,0.2897 0.5150906,0.2897 0.1728025,0 0.3121709,-0.043 0.4185109,-0.161 0.1063401,-0.118 0.1609658,-0.2885 0.1609658,-0.4829 0,-0.1445 -0.039048,-0.2816 -0.1287726,-0.3863 -0.099694,-0.1147 -0.2473701,-0.1609 -0.4185111,-0.1609 -0.069786,0 -0.1366658,0.011 -0.1931589,0.032 -0.054831,0.022 -0.088895,0.074 -0.1287727,0.1288 0,-0.1329 0.022847,-0.2661 0.064386,-0.3541 0.049847,-0.1047 0.1223351,-0.161 0.2253521,-0.161 0.064801,0 0.095541,0.034 0.1287726,0.064 0.03323,0.03 0.057738,0.075 0.064386,0.1288 l 0.3541248,0 c -0.014954,-0.088 -0.041126,-0.1488 -0.064386,-0.1932 -0.0216,-0.043 -0.045071,-0.1115 -0.096579,-0.1609 -0.039878,-0.04 -0.1084193,-0.075 -0.193159,-0.097 C 5.8959184,1042.5443 5.851262,1042.5594 5.7947689,1042.5594 z m 1.3199196,0 c -0.2093571,0 -0.3510105,0.077 -0.4507043,0.2253 -0.098032,0.1463 -0.1609658,0.3654 -0.1609658,0.6761 0,0.309 0.061272,0.5265 0.1609658,0.676 0.1013553,0.148 0.275202,0.2254 0.4828974,0.2254 0.209357,0 0.3510104,-0.077 0.4507042,-0.2254 0.099694,-0.1478 0.1609657,-0.3653 0.1609657,-0.676 0,-0.3107 -0.059611,-0.5298 -0.1609657,-0.6761 C 7.497892,1042.6369 7.3240455,1042.5594 7.1146885,1042.5594 z m 0,0.2575 c 0.098032,0 0.1887978,0.068 0.2253521,0.161 0.036554,0.093 0.032193,0.2503 0.032193,0.4829 0,0.2343 0.00436,0.3898 -0.032193,0.4829 -0.034893,0.093 -0.095127,0.161 -0.193159,0.161 -0.098032,0 -0.1887979,-0.068 -0.2253521,-0.161 -0.034893,-0.095 -0.032193,-0.2503 -0.032193,-0.4829 0,-0.2326 -0.0027,-0.3898 0.032193,-0.4829 C 6.9580839,1042.8848 7.0183178,1042.8169 7.1146885,1042.8169 z m -1.3843059,0.6439 c 0.064801,0 0.1466353,0.021 0.193159,0.064 0.056493,0.053 0.064386,0.124 0.064386,0.2253 0,0.1147 -0.017863,0.2032 -0.064386,0.2576 -0.044862,0.055 -0.09118,0.097 -0.1609658,0.097 -0.08474,0 -0.1755051,-0.037 -0.2253521,-0.097 -0.049847,-0.062 -0.064386,-0.1595 -0.064386,-0.2576 0,-0.1029 0.040087,-0.1704 0.096579,-0.2253 C 5.6159405,1043.4805 5.6556123,1043.4608 5.7303826,1043.4608 Z"
       id="path978"
       inkscape:connector-curvature="0" />
  </g>
</svg>
