<?xml version="1.0" encoding="UTF-8" standalone="no"?>
<!-- Created with Inkscape (http://www.inkscape.org/) -->

<svg
   xmlns:dc="http://purl.org/dc/elements/1.1/"
   xmlns:cc="http://creativecommons.org/ns#"
   xmlns:rdf="http://www.w3.org/1999/02/22-rdf-syntax-ns#"
   xmlns:svg="http://www.w3.org/2000/svg"
   xmlns="http://www.w3.org/2000/svg"
   xmlns:xlink="http://www.w3.org/1999/xlink"
   xmlns:sodipodi="http://sodipodi.sourceforge.net/DTD/sodipodi-0.dtd"
   xmlns:inkscape="http://www.inkscape.org/namespaces/inkscape"
   width="48"
   height="48"
   id="svg2"
   version="1.1"
   inkscape:version="0.48+devel r12064"
   sodipodi:docname="checkbox.svg">
  <defs
     id="defs4">
    <linearGradient
       id="linearGradient980">
      <stop
         style="stop-color:#3e9b2e;stop-opacity:1"
         offset="0"
         id="stop982" />
      <stop
         style="stop-color:#76d347;stop-opacity:1"
         offset="1"
         id="stop984" />
    </linearGradient>
    <linearGradient
       inkscape:collect="always"
       xlink:href="#linearGradient980"
       id="linearGradient842"
       x1="23.625002"
       y1="-1052.3622"
       x2="23.625002"
       y2="-1004.3622"
       gradientUnits="userSpaceOnUse" />
  </defs>
  <sodipodi:namedview
     id="base"
     pagecolor="#ffffff"
     bordercolor="#666666"
     borderopacity="1.0"
     inkscape:pageopacity="0.0"
     inkscape:pageshadow="2"
     inkscape:zoom="5.656854"
     inkscape:cx="5.1183593"
     inkscape:cy="27.104044"
     inkscape:document-units="px"
     inkscape:current-layer="layer1"
     showgrid="false"
     inkscape:window-width="1366"
     inkscape:window-height="718"
     inkscape:window-x="0"
     inkscape:window-y="28"
     inkscape:window-maximized="1"
     inkscape:object-paths="true" />
  <metadata
     id="metadata7">
    <rdf:RDF>
      <cc:Work
         rdf:about="">
        <dc:format>image/svg+xml</dc:format>
        <dc:type
           rdf:resource="http://purl.org/dc/dcmitype/StillImage" />
        <dc:title />
      </cc:Work>
    </rdf:RDF>
  </metadata>
  <g
     inkscape:label="Capa 1"
     inkscape:groupmode="layer"
     id="layer1"
     transform="translate(0,-1004.3622)">
    <rect
       style="fill:url(#linearGradient842);fill-opacity:1;stroke:none"
       id="rect2991-1"
       width="48"
       height="48"
       x="0"
       y="-1052.3622"
       ry="1.9445436"
       transform="scale(1,-1)" />
    <path
       inkscape:connector-curvature="0"
       style="fill:#000000;fill-opacity:1;stroke:none"
       d="m 0,1049.3622 0,1.0625 c 0,1.0773 0.860222,1.9375 1.937499,1.9375 l 44.125001,0 c 1.077277,0 1.9375,-0.8602 1.9375,-1.9375 l 0,-1.0625 c 0,1.0773 -0.860223,1.9375 -1.9375,1.9375 l -44.125001,0 C 0.860222,1051.2997 0,1050.4395 0,1049.3622 Z"
       id="rect846" />
    <path
       inkscape:connector-curvature="0"
       style="fill:#ffffff;fill-opacity:0.5372549;stroke:none"
       d="m 2.531249,1005.0185 c -0.917088,0 -1.671146,0.6395 -1.843749,1.5 0.335612,-0.2799 0.774512,-0.4375 1.249999,-0.4375 l 44.125001,0 c 0.475488,0 0.914388,0.1576 1.25,0.4375 -0.172603,-0.8605 -0.926662,-1.5 -1.84375,-1.5 L 2.531249,1005.0185 Z"
       id="path7515" />
    <path
       inkscape:connector-curvature="0"
       style="fill:#000000;fill-opacity:0.39215686;stroke:none"
       d="M 1.937499,1004.3622 C 0.860223,1004.3622 0,1005.2224 0,1006.2997 l 0,43.0625 c 0,0.7934 0.480023,1.449 1.156249,1.75 -0.309341,-0.3333 -0.499999,-0.7824 -0.499999,-1.2812 l 0,-42.9375 c 0,-1.0482 0.826898,-1.875 1.874999,-1.875 l 42.937501,0 c 1.048101,0 1.875,0.8268 1.875,1.875 l 0,42.9375 c 0,0.4988 -0.190658,0.9479 -0.5,1.2812 0.676226,-0.301 1.15625,-0.9566 1.15625,-1.75 l 0,-43.0625 c 0,-1.0773 -0.860223,-1.9375 -1.9375,-1.9375 L 1.937499,1004.3622 Z"
       id="rect4280" />
    <path
       style="color:#000000;fill:#ffffff;fill-opacity:1;fill-rule:nonzero;stroke:none;stroke-width:0.2;marker:none;visibility:visible;display:inline;overflow:visible;enable-background:accumulate"
       d="m 33.516549,1013.2423 -12.256672,21.2292 -2.539986,-1.4664 -3.238324,-1.8697 -3.352006,-1.9353 -3.2327838,5.5592 5.7857108,3.3635 4.818477,2.7819 4.120119,2.3788 L 39.103222,1016.4677 Z"
       id="rect818"
       inkscape:connector-curvature="0"
       sodipodi:nodetypes="ccccccccccc" />
    <path
       style="color:#000000;fill:#000000;fill-opacity:0.31176471;fill-rule:nonzero;stroke:none;stroke-width:0.2;marker:none;visibility:visible;display:inline;overflow:visible;enable-background:accumulate"
       d="m 33.505229,1012.3622 -12.233582,21.2401 -2.55233,-1.4669 -3.227084,-1.8776 -3.37377,-1.9362 -3.2270835,5.5447 0.4107198,0.2347 2.8163637,-4.87 3.37377,1.9363 3.227084,1.8775 2.55233,1.4669 12.233582,-21.2401 5.222009,2.9924 0.381382,-0.6747 L 33.505229,1012.3622 Z"
       id="path847"
       inkscape:connector-curvature="0" />
    <path
       style="color:#000000;fill:#ffffff;fill-opacity:0.20588235;fill-rule:nonzero;stroke:none;stroke-width:0.2;marker:none;visibility:visible;display:inline;overflow:visible;enable-background:accumulate"
       d="m 38.609889,1017.2547 -14.991272,25.934 -4.107198,-2.3762 -4.840626,-2.7871 -5.2806823,-3.0511 -0.4987312,0.8508 5.7794135,3.3738 4.840626,2.787 4.107198,2.3763 L 39.10862,1017.5481 38.609889,1017.2547 Z"
       id="path852"
       inkscape:connector-curvature="0" />
  </g>
</svg>
