<?xml version="1.0" encoding="UTF-8" standalone="no"?>
<!-- Created with Inkscape (http://www.inkscape.org/) -->

<svg
   xmlns:dc="http://purl.org/dc/elements/1.1/"
   xmlns:cc="http://creativecommons.org/ns#"
   xmlns:rdf="http://www.w3.org/1999/02/22-rdf-syntax-ns#"
   xmlns:svg="http://www.w3.org/2000/svg"
   xmlns="http://www.w3.org/2000/svg"
   xmlns:xlink="http://www.w3.org/1999/xlink"
   xmlns:sodipodi="http://sodipodi.sourceforge.net/DTD/sodipodi-0.dtd"
   xmlns:inkscape="http://www.inkscape.org/namespaces/inkscape"
   width="48"
   height="48"
   id="svg2"
   version="1.1"
   inkscape:version="0.48+devel r12137"
   sodipodi:docname="choqok-offline.svg">
  <defs
     id="defs4">
    <linearGradient
       inkscape:collect="always"
       id="linearGradient1163">
      <stop
         style="stop-color:#8a9396;stop-opacity:1"
         offset="0"
         id="stop1165" />
      <stop
         style="stop-color:#92999c;stop-opacity:1"
         offset="1"
         id="stop1167" />
    </linearGradient>
    <linearGradient
       inkscape:collect="always"
       xlink:href="#linearGradient1163"
       id="linearGradient1169"
       x1="29.999998"
       y1="-1052.6122"
       x2="29.999998"
       y2="-1004.2372"
       gradientUnits="userSpaceOnUse" />
  </defs>
  <sodipodi:namedview
     id="base"
     pagecolor="#ffffff"
     bordercolor="#666666"
     borderopacity="1.0"
     inkscape:pageopacity="0.0"
     inkscape:pageshadow="2"
     inkscape:zoom="5.6568543"
     inkscape:cx="14.056098"
     inkscape:cy="23.985181"
     inkscape:document-units="px"
     inkscape:current-layer="layer1"
     showgrid="false"
     inkscape:window-width="1366"
     inkscape:window-height="714"
     inkscape:window-x="0"
     inkscape:window-y="30"
     inkscape:window-maximized="1">
    <inkscape:grid
       type="xygrid"
       id="grid3850"
       empspacing="5"
       visible="true"
       enabled="true"
       snapvisiblegridlinesonly="true" />
  </sodipodi:namedview>
  <metadata
     id="metadata7">
    <rdf:RDF>
      <cc:Work
         rdf:about="">
        <dc:format>image/svg+xml</dc:format>
        <dc:type
           rdf:resource="http://purl.org/dc/dcmitype/StillImage" />
        <dc:title></dc:title>
      </cc:Work>
    </rdf:RDF>
  </metadata>
  <g
     inkscape:label="Capa 1"
     inkscape:groupmode="layer"
     id="layer1"
     transform="translate(0,-1004.3622)">
    <rect
       style="fill:url(#linearGradient1169);fill-opacity:1;stroke:none"
       id="rect2991-1"
       width="48"
       height="48"
       x="1.2897644e-07"
       y="-1052.3622"
       ry="1.9445436"
       transform="scale(1,-1)" />
    <path
       inkscape:connector-curvature="0"
       style="fill:#000000;fill-opacity:1;stroke:none"
       d="m -1.2897644e-7,1049.3622 0,1.0625 c 0,1.0773 0.86022289897644,1.9375 1.93749992897644,1.9375 l 44.1250002,0 c 1.077277,0 1.9375,-0.8602 1.9375,-1.9375 l 0,-1.0625 c 0,1.0773 -0.860223,1.9375 -1.9375,1.9375 l -44.1250002,0 C 0.86022277,1051.2997 -1.2897644e-7,1050.4395 -1.2897644e-7,1049.3622 Z"
       id="rect846" />
    <path
       inkscape:connector-curvature="0"
       style="fill:#ffffff;fill-opacity:0.5372549;stroke:none"
       d="m 2.5312498,1005.0185 c -0.9170884,0 -1.67114673,0.6395 -1.84374993,1.5 0.33561203,-0.2799 0.77451213,-0.4375 1.24999993,-0.4375 l 44.1250002,0 c 0.475488,0 0.914388,0.1576 1.25,0.4375 -0.172603,-0.8605 -0.926662,-1.5 -1.84375,-1.5 L 2.5312498,1005.0185 Z"
       id="path7515" />
    <path
       inkscape:connector-curvature="0"
       style="fill:#000000;fill-opacity:0.39215686;stroke:none"
       d="m 1.9374998,1004.3622 c -1.07727693,0 -1.93749992897644,0.8602 -1.93749992897644,1.9375 l 0,43.0625 c 0,0.7934 0.48002359897644,1.449 1.15624992897644,1.75 -0.30934163,-0.3333 -0.49999993,-0.7824 -0.49999993,-1.2812 l 0,-42.9375 c 0,-1.0482 0.82689893,-1.875 1.87499993,-1.875 l 42.9375002,0 c 1.048101,0 1.875,0.8268 1.875,1.875 l 0,42.9375 c 0,0.4988 -0.190658,0.9479 -0.5,1.2812 0.676226,-0.301 1.15625,-0.9566 1.15625,-1.75 l 0,-43.0625 c 0,-1.0773 -0.860223,-1.9375 -1.9375,-1.9375 L 1.9374998,1004.3622 Z"
       id="rect4280" />
    <g
       id="g830">
      <path
         inkscape:connector-curvature="0"
         id="path1171"
         d="m 40.797801,1014.39 c -0.400285,0.952 -1.424091,2.2241 -2.371046,2.9138 -0.42406,0.3089 -0.454108,0.3694 -0.171401,0.3714 0.06127,0 0.234864,-0.032 0.371369,-0.057 0.990408,-0.7954 2.016897,-2.1227 2.285345,-3.028 C 40.960069,1014.4281 40.946439,1014.3574 40.797801,1014.39 z m 1.142672,2.7996 c -0.03129,0 -0.212925,0.057 -0.371369,0.1142 -0.552358,0.691 -1.581462,1.7711 -2.171078,2.2568 l -0.999839,0.857 -0.0857,2.0854 c -0.216504,4.9629 -2.34684,9.9334 -5.827631,13.5978 -2.943836,3.0991 -6.886798,5.1926 -11.112494,5.9419 -1.423816,0.2535 -4.867795,0.4716 -5.627663,0.3428 -0.228635,-0.038 -1.050902,-0.1535 -1.828276,-0.257 -2.097882,-0.2795 -4.8629551,-1.2685 -6.8846048,-2.3997 -0.023824,0 -0.062884,0 -0.0857,0 l -0.9141382,-0.086 0.5427695,0.3143 c 2.0432362,1.2426 5.0830835,2.3559 7.3416735,2.6566 0.777374,0.1036 1.599641,0.2188 1.828276,0.2571 0.759868,0.1289 4.203847,-0.09 5.627663,-0.3428 4.225696,-0.7491 8.168658,-2.8428 11.112494,-5.9418 3.480791,-3.6643 5.611127,-8.6349 5.827631,-13.5978 l 0.0857,-2.0855 0.999839,-0.857 C 40.274137,1019.3245 42.181129,1017.1896 41.940473,1017.1896 z m -34.4230188,1.2569 c -0.039823,2.1984 0.8982743,4.4229 2.5995808,5.8563 l 0.714171,0.086 -0.571337,-0.4571 C 8.5964647,1022.6042 7.6131757,1020.5415 7.5174542,1018.4465 z m 16.0831208,2.2282 c -0.01636,0.3217 -0.0028,0.6284 0.02857,0.9428 l 0.05713,0.5713 0.02857,0 -0.0857,-1.0571 C 23.613793,1020.9782 23.604341,1020.8305 23.600575,1020.6747 z m -16.1402545,3.3995 c -0.047306,0.047 0.00174,0.5891 0.1142674,1.1998 0.4986623,2.7062 2.252007,4.7776 4.8277931,5.6847 0.03987,0.014 0.04936,0.015 0.0857,0.028 0.815739,-0.062 0.762944,-0.2153 -0.0857,-0.5142 -2.5757861,-0.9071 -4.3291308,-2.9787 -4.8277931,-5.6848 C 7.5242346,1024.5151 7.4832551,1024.281 7.4603205,1024.0742 z m 2.7995485,7.4845 c -0.05349,0.01 -0.1714,0.02 -0.1714,0.028 0,0.3331 1.03548,1.941 1.685442,2.6282 1.191774,1.26 3.106521,2.2008 4.627825,2.2568 0.02176,-0.016 0.06603,-0.042 0.0857,-0.057 l 0.485635,-0.4285 -0.485635,0 c -1.533376,-0.024 -3.500281,-0.974 -4.713526,-2.2567 C 11.28644,1033.2143 10.579454,1032.1852 10.259869,1031.5587 Z"
         style="fill:#000000;fill-opacity:0.18532817" />
      <path
         style="fill:#000000;fill-opacity:0.07335905"
         d="m 40.797801,1014.8756 c -0.400285,0.952 -1.424091,2.2241 -2.371046,2.9138 -0.42406,0.3089 -0.454108,0.3694 -0.171401,0.3714 0.06127,0 0.234864,-0.032 0.371369,-0.057 0.990408,-0.7956 2.016897,-2.1228 2.285345,-3.0282 C 40.960069,1014.9137 40.946439,1014.843 40.797801,1014.8756 z m 1.142672,2.7995 c -0.03129,0 -0.212925,0.057 -0.371369,0.1143 -0.552358,0.691 -1.581462,1.7711 -2.171078,2.2568 l -0.999839,0.857 -0.0857,2.0854 c -0.216504,4.9629 -2.34684,9.9335 -5.827631,13.5978 -2.943836,3.0991 -6.886798,5.1927 -11.112494,5.9419 -1.423816,0.2535 -4.867795,0.4715 -5.627663,0.3427 -0.228635,-0.038 -1.050902,-0.1534 -1.828276,-0.257 -2.097882,-0.2793 -4.8629551,-1.2683 -6.8846048,-2.3996 -0.023824,0 -0.062884,0 -0.0857,0 l -0.9141382,-0.086 0.5427695,0.3142 c 2.0432362,1.2426 5.0830835,2.356 7.3416735,2.6567 0.777374,0.1036 1.599641,0.2188 1.828276,0.2572 0.759868,0.1288 4.203847,-0.089 5.627663,-0.3428 4.225696,-0.7493 8.168658,-2.8428 11.112494,-5.9419 3.480791,-3.6644 5.611127,-8.6349 5.827631,-13.5978 l 0.0857,-2.0854 0.999839,-0.8571 C 40.274137,1019.8101 42.181129,1017.6751 41.940473,1017.6751 z m -34.4230188,1.257 c -0.039823,2.1984 0.8982743,4.4229 2.5995808,5.8562 l 0.714171,0.086 -0.571337,-0.457 C 8.5964647,1023.0898 7.6131757,1021.0271 7.5174542,1018.9321 z m 16.0831208,2.2282 c -0.01636,0.3216 -0.0028,0.6285 0.02857,0.9427 l 0.05713,0.5714 0.02857,0 -0.0857,-1.057 C 23.613793,1021.4638 23.604341,1021.3162 23.600575,1021.1603 z m -16.1402545,3.3995 c -0.047306,0.048 0.00174,0.589 0.1142674,1.1998 0.4986623,2.7062 2.252007,4.7777 4.8277931,5.6848 0.03987,0.014 0.04936,0.015 0.0857,0.028 0.815739,-0.062 0.762944,-0.2153 -0.0857,-0.5142 -2.5757861,-0.9071 -4.3291308,-2.9786 -4.8277931,-5.6849 C 7.5242346,1025.0007 7.4832551,1024.7665 7.4603205,1024.5598 z m 2.7995485,7.4845 c -0.05349,0.01 -0.1714,0.02 -0.1714,0.028 0,0.3329 1.03548,1.9408 1.685442,2.628 1.191774,1.2602 3.106521,2.201 4.627825,2.2569 0.02176,-0.016 0.06603,-0.042 0.0857,-0.057 l 0.485635,-0.4286 -0.485635,0 c -1.533376,-0.024 -3.500281,-0.974 -4.713526,-2.2568 C 11.28644,1033.6999 10.579454,1032.6709 10.259869,1032.0443 Z"
         id="path1176"
         inkscape:connector-curvature="0" />
      <path
         inkscape:connector-curvature="0"
         id="path1178"
         d="m 40.797801,1015.3612 c -0.400285,0.952 -1.424091,2.2241 -2.371046,2.9138 -0.42406,0.3088 -0.454108,0.3694 -0.171401,0.3714 0.06127,0 0.234864,-0.033 0.371369,-0.057 0.990408,-0.7954 2.016897,-2.1227 2.285345,-3.028 C 40.960069,1015.3993 40.946439,1015.3285 40.797801,1015.3612 z m 1.142672,2.7996 c -0.03129,0 -0.212925,0.057 -0.371369,0.1142 -0.552358,0.691 -1.581462,1.771 -2.171078,2.2568 l -0.999839,0.857 -0.0857,2.0853 c -0.216504,4.963 -2.34684,9.9335 -5.827631,13.5979 -2.943836,3.0991 -6.886798,5.1926 -11.112494,5.9419 -1.423816,0.2534 -4.867795,0.4716 -5.627663,0.3428 -0.228635,-0.039 -1.050902,-0.1535 -1.828276,-0.2571 -2.097882,-0.2794 -4.8629551,-1.2684 -6.8846048,-2.3996 -0.023824,0 -0.062884,0 -0.0857,0 l -0.9141382,-0.086 0.5427695,0.3144 c 2.0432362,1.2426 5.0830835,2.3559 7.3416735,2.6566 0.777374,0.1036 1.599641,0.2188 1.828276,0.2571 0.759868,0.1288 4.203847,-0.09 5.627663,-0.3428 4.225696,-0.7491 8.168658,-2.8428 11.112494,-5.9418 3.480791,-3.6644 5.611127,-8.6349 5.827631,-13.5978 l 0.0857,-2.0855 0.999839,-0.857 C 40.274137,1020.2957 42.181129,1018.1608 41.940473,1018.1608 z m -34.4230188,1.2569 c -0.039823,2.1984 0.8982743,4.4228 2.5995808,5.8562 l 0.714171,0.086 -0.571337,-0.457 C 8.5964647,1023.5753 7.6131757,1021.5127 7.5174542,1019.4177 z m 16.0831208,2.2281 c -0.01636,0.3218 -0.0028,0.6285 0.02857,0.9429 l 0.05713,0.5713 0.02857,0 -0.0857,-1.0571 C 23.613793,1021.9493 23.604341,1021.8017 23.600575,1021.6458 z m -16.1402545,3.3995 c -0.047306,0.048 0.00174,0.5892 0.1142674,1.1999 0.4986623,2.7062 2.252007,4.7776 4.8277931,5.6847 0.03987,0.014 0.04936,0.015 0.0857,0.028 0.815739,-0.062 0.762944,-0.2153 -0.0857,-0.5142 -2.5757861,-0.9071 -4.3291308,-2.9787 -4.8277931,-5.6849 C 7.5242346,1025.4862 7.4832551,1025.2522 7.4603205,1025.0453 z m 2.7995485,7.4846 c -0.05349,0.01 -0.1714,0.02 -0.1714,0.028 0,0.3331 1.03548,1.941 1.685442,2.6282 1.191774,1.26 3.106521,2.2008 4.627825,2.2568 0.02176,-0.016 0.06603,-0.042 0.0857,-0.057 l 0.485635,-0.4285 -0.485635,0 c -1.533376,-0.024 -3.500281,-0.9741 -4.713526,-2.2568 C 11.28644,1034.1854 10.579454,1033.1564 10.259869,1032.5299 Z"
         style="fill:#000000;fill-opacity:0.03861006" />
      <path
         style="fill:#000000;fill-opacity:0.02702703"
         d="m 40.797801,1015.8432 c -0.400285,0.952 -1.424091,2.2241 -2.371046,2.9139 -0.42406,0.3088 -0.454108,0.3693 -0.171401,0.3713 0.06127,0 0.234864,-0.033 0.371369,-0.057 0.990408,-0.7954 2.016897,-2.1227 2.285345,-3.028 C 40.960069,1015.8814 40.946439,1015.8106 40.797801,1015.8432 z m 1.142672,2.7996 c -0.03129,0 -0.212925,0.057 -0.371369,0.1143 -0.552358,0.6909 -1.581462,1.7709 -2.171078,2.2567 l -0.999839,0.8571 -0.0857,2.0853 c -0.216504,4.963 -2.34684,9.9335 -5.827631,13.5978 -2.943836,3.0991 -6.886798,5.1926 -11.112494,5.9419 -1.423816,0.2535 -4.867795,0.4716 -5.627663,0.3428 -0.228635,-0.039 -1.050902,-0.1535 -1.828276,-0.2571 -2.097882,-0.2794 -4.8629551,-1.2684 -6.8846048,-2.3996 -0.023824,0 -0.062884,0 -0.0857,0 l -0.9141382,-0.086 0.5427695,0.3143 c 2.0432362,1.2426 5.0830835,2.3559 7.3416735,2.6566 0.777374,0.1037 1.599641,0.2188 1.828276,0.2571 0.759868,0.1289 4.203847,-0.089 5.627663,-0.3428 4.225696,-0.7491 8.168658,-2.8427 11.112494,-5.9418 3.480791,-3.6644 5.611127,-8.6349 5.827631,-13.5979 l 0.0857,-2.0854 0.999839,-0.857 C 40.274137,1020.7777 42.181129,1018.6428 41.940473,1018.6428 z m -34.4230188,1.2569 c -0.039823,2.1984 0.8982743,4.4229 2.5995808,5.8562 l 0.714171,0.086 -0.571337,-0.4571 C 8.5964647,1024.0573 7.6131757,1021.9947 7.5174542,1019.8997 z m 16.0831208,2.2282 c -0.01636,0.3217 -0.0028,0.6284 0.02857,0.9428 l 0.05713,0.5713 0.02857,0 -0.0857,-1.0571 C 23.613793,1022.4314 23.604341,1022.2837 23.600575,1022.1279 z m -16.1402545,3.3995 c -0.047306,0.048 0.00174,0.5891 0.1142674,1.1998 0.4986623,2.7063 2.252007,4.7776 4.8277931,5.6847 0.03987,0.014 0.04936,0.015 0.0857,0.028 0.815739,-0.062 0.762944,-0.2153 -0.0857,-0.5142 -2.5757861,-0.9071 -4.3291308,-2.9786 -4.8277931,-5.6848 C 7.5242346,1025.9682 7.4832551,1025.7342 7.4603205,1025.5274 z m 2.7995485,7.4845 c -0.05349,0.01 -0.1714,0.02 -0.1714,0.028 0,0.3331 1.03548,1.941 1.685442,2.6282 1.191774,1.26 3.106521,2.2009 4.627825,2.2568 0.02176,-0.016 0.06603,-0.042 0.0857,-0.057 l 0.485635,-0.4285 -0.485635,0 c -1.533376,-0.024 -3.500281,-0.9741 -4.713526,-2.2568 C 11.28644,1034.6675 10.579454,1033.6384 10.259869,1033.0119 Z"
         id="path1180"
         inkscape:connector-curvature="0" />
      <path
         inkscape:connector-curvature="0"
         id="path1186"
         d="m 30.942248,1012.7566 c -1.881702,0.01 -3.74202,0.7185 -5.142028,2.0854 -1.408516,1.3752 -2.228628,3.4411 -2.199645,5.3706 0.08435,-1.8083 0.889196,-3.6912 2.199645,-4.9707 2.240013,-2.1869 5.652309,-2.7097 8.484345,-1.314 0.64019,0.3155 1.367697,0.7847 1.628309,1.0569 l 0.485636,0.5142 1.17124,-0.3428 c 0.653947,-0.1801 1.696037,-0.5602 2.313912,-0.857 0.518417,-0.2489 0.80511,-0.3733 0.942706,-0.3999 0.02725,-0.07 0.06615,-0.134 0.0857,-0.1999 0.0936,-0.3157 0.0084,-0.2982 -1.028406,0.1999 -0.617875,0.2968 -1.659965,0.6768 -2.313912,0.857 l -1.17124,0.3428 -0.485636,-0.5142 c -0.260612,-0.2722 -0.988119,-0.7414 -1.628309,-1.0569 C 33.222552,1013.0046 32.071268,1012.7528 30.942248,1012.7566 z m -22.5392224,1.3427 -0.314235,0.7713 c -0.4241672,0.9895 -0.6117339,2.0567 -0.5713364,3.1138 0.013279,-0.9262 0.2000777,-1.8478 0.5713364,-2.7139 l 0.314235,-0.7713 1.3140737,1.3141 c 2.6463757,2.7 5.9547697,4.6715 9.4270517,5.6276 1.181506,0.3254 3.37753,0.7425 4.027922,0.7428 l 0.542769,0 -0.02857,-0.4 -0.514202,0 c -0.650392,-3e-4 -2.846417,-0.4174 -4.027922,-0.7427 -3.472282,-0.9561 -6.780676,-2.9276 -9.4270517,-5.6277 L 8.4030256,1014.0993 z m 33.5374474,2.1996 c -0.04584,0 -0.285311,0.07 -0.54277,0.1714 -0.628762,0.2499 -2.252688,0.6761 -2.885248,0.7713 -0.02553,0.019 -0.06027,0.038 -0.0857,0.057 -0.42406,0.3089 -0.454108,0.3693 -0.171401,0.3714 0.376889,0 2.434395,-0.5186 3.142349,-0.7999 0.12257,-0.049 0.159577,-0.053 0.257103,-0.086 C 41.873886,1016.5027 42.011268,1016.2989 41.940473,1016.2989 z m -34.4801525,6.8847 c -0.023653,0.024 -0.021487,0.1831 0,0.3998 0.047262,-0.048 0.4312356,0.069 0.8570046,0.2571 0.4257782,0.1884 1.1482582,0.3753 1.6283088,0.4285 l 0.8855721,0.1143 -0.571337,-0.4571 c -0.01044,-0.01 -0.01818,-0.02 -0.02857,-0.028 l -0.2856681,-0.028 C 9.4655835,1023.8172 8.7431035,1023.63 8.3173253,1023.4417 7.8915561,1023.2518 7.5075815,1023.136 7.4603205,1023.1836 z m 5.0848945,7.3987 c -0.257106,0.022 -0.611911,0.026 -1.056973,0.028 -0.771614,0 -1.399773,0.049 -1.399773,0.086 0,0.068 0.06937,0.2158 0.142833,0.3714 0.173323,-0.028 0.624216,-0.055 1.25694,-0.057 1.598892,-0.01 1.889065,-0.12 1.142674,-0.4286 C 12.592337,1030.5866 12.589216,1030.5787 12.545215,1030.5823 z m 3.970788,5.3992 -0.02857,0.028 c -0.775254,0.6393 -3.197674,1.8228 -4.484991,2.1996 -1.54899,0.4534 -3.9298814,0.7447 -5.0563283,0.6285 l -0.9141382,-0.086 0.5427696,0.3144 c 0.092338,0.056 0.1894094,0.1159 0.2856682,0.1714 l 0.0857,0 c 1.1264469,0.1161 3.5073387,-0.1752 5.0563287,-0.6285 1.287317,-0.3768 3.709737,-1.5604 4.484991,-2.1997 l 0.485635,-0.4281 L 16.516003,1035.9815 Z"
         style="fill:#000000;fill-opacity:0.15830114" />
      <path
         style="fill:#000000;fill-opacity:0.16988418"
         d="m 30.942248,1012.3622 c -1.881702,0.01 -3.74202,0.7185 -5.142028,2.0854 -1.408516,1.3751 -2.228628,3.4409 -2.199645,5.3706 0.08435,-1.8083 0.889196,-3.6912 2.199645,-4.9707 2.240013,-2.187 5.652309,-2.7098 8.484345,-1.3141 0.64019,0.3156 1.367697,0.7847 1.628309,1.057 l 0.485636,0.5142 1.17124,-0.3428 c 0.653947,-0.1802 1.696037,-0.5602 2.313912,-0.857 0.518417,-0.2491 0.80511,-0.3733 0.942706,-0.3999 0.02725,-0.071 0.06615,-0.1341 0.0857,-0.2 0.0936,-0.3156 0.0084,-0.2982 -1.028406,0.2 -0.617875,0.2967 -1.659965,0.6768 -2.313912,0.857 l -1.17124,0.3428 -0.485636,-0.5142 c -0.260612,-0.2723 -0.988119,-0.7414 -1.628309,-1.057 C 33.222552,1012.6101 32.071268,1012.3583 30.942248,1012.3622 z m -22.5392224,1.3426 -0.314235,0.7713 c -0.4241672,0.9896 -0.6117339,2.0567 -0.5713364,3.1139 0.013279,-0.9263 0.2000777,-1.8478 0.5713364,-2.7139 l 0.314235,-0.7713 1.3140737,1.3141 c 2.6463757,2.7 5.9547697,4.6715 9.4270517,5.6276 1.181506,0.3253 3.37753,0.7425 4.027922,0.7427 l 0.542769,0 -0.02857,-0.3999 -0.514202,0 c -0.650392,-3e-4 -2.846417,-0.4174 -4.027922,-0.7428 -3.472282,-0.956 -6.780676,-2.9275 -9.4270517,-5.6276 L 8.4030256,1013.7048 z m 33.5374474,2.1996 c -0.04584,0 -0.285311,0.07 -0.54277,0.1714 -0.628762,0.25 -2.252688,0.6761 -2.885248,0.7714 -0.02553,0.019 -0.06027,0.038 -0.0857,0.057 -0.42406,0.3089 -0.454108,0.3693 -0.171401,0.3713 0.376889,0 2.434395,-0.5185 3.142349,-0.7999 0.12257,-0.049 0.159577,-0.053 0.257103,-0.086 C 41.873886,1016.1082 42.011268,1015.9044 41.940473,1015.9044 z m -34.4801525,6.8847 c -0.023653,0.024 -0.021487,0.1831 0,0.3999 0.047262,-0.048 0.4312356,0.069 0.8570046,0.2571 0.4257782,0.1883 1.1482582,0.3753 1.6283088,0.4285 l 0.8855721,0.1143 -0.571337,-0.4571 c -0.01044,-0.01 -0.01818,-0.02 -0.02857,-0.028 l -0.2856681,-0.028 c -0.4800504,-0.053 -1.2025304,-0.2402 -1.6283086,-0.4285 C 7.8915561,1022.8574 7.5075815,1022.7415 7.4603205,1022.7891 z m 5.0848945,7.3988 c -0.257106,0.022 -0.611911,0.026 -1.056973,0.028 -0.771614,0 -1.399773,0.049 -1.399773,0.086 0,0.068 0.06937,0.2158 0.142833,0.3714 0.173323,-0.028 0.624216,-0.055 1.25694,-0.057 1.598892,-0.01 1.889065,-0.1199 1.142674,-0.4285 C 12.592337,1030.1921 12.589216,1030.1842 12.545215,1030.1879 z m 3.970788,5.3991 -0.02857,0.028 c -0.775254,0.6395 -3.197674,1.8229 -4.484991,2.1998 -1.54899,0.4534 -3.9298814,0.7446 -5.0563283,0.6285 l -0.9141382,-0.086 0.5427696,0.3142 c 0.092338,0.056 0.1894094,0.116 0.2856682,0.1714 l 0.0857,0 c 1.1264469,0.1163 3.5073387,-0.175 5.0563287,-0.6284 1.287317,-0.3768 3.709737,-1.5604 4.484991,-2.1997 l 0.485635,-0.4281 L 16.516003,1035.587 Z"
         id="path1191"
         inkscape:connector-curvature="0" />
      <path
         inkscape:connector-curvature="0"
         id="path1150"
         d="m 15.735758,1042.3545 c -0.228634,-0.038 -1.051734,-0.1552 -1.829108,-0.2587 -2.258589,-0.3007 -5.301892,-1.3926 -7.3451281,-2.6352 l -0.5285273,-0.3214 0.9113684,0.094 c 1.1264468,0.1162 3.501049,-0.1828 5.050038,-0.6363 1.287317,-0.3768 3.714381,-1.5724 4.489635,-2.2117 l 0.498844,-0.4115 -0.498844,-0.01 c -1.533376,-0.024 -3.510703,-0.9656 -4.723947,-2.2483 -0.649961,-0.6873 -1.677938,-2.301 -1.677938,-2.6341 0,-0.037 0.631333,-0.07 1.402947,-0.072 1.780248,-0.01 2.037605,-0.1597 0.92605,-0.5512 -2.5757861,-0.9071 -4.3434371,-2.9846 -4.8420994,-5.6909 -0.1125213,-0.6107 -0.1658614,-1.149 -0.1185547,-1.1963 0.047261,-0.048 0.4343894,0.068 0.8601585,0.2564 0.4257781,0.1883 1.1669065,0.3861 1.6469575,0.4393 l 0.8728191,0.097 -0.581995,-0.4643 c -2.5173545,-2.0085 -3.4338421,-5.6735 -2.1611605,-8.6426 l 0.3285596,-0.7665 1.2904341,1.3167 c 2.6463758,2.6999 5.9525578,4.6755 9.4248388,5.6316 1.181505,0.3253 3.400037,0.7196 4.050427,0.7199 l 0.545055,10e-5 -0.103818,-1.0392 c -0.207006,-2.0723 0.653947,-4.3854 2.190604,-5.8858 2.240014,-2.1869 5.630854,-2.7158 8.462891,-1.3201 0.640189,0.3155 1.377213,0.7964 1.637825,1.0687 l 0.473844,0.4948 1.188974,-0.3275 c 0.653947,-0.1802 1.694529,-0.5705 2.312404,-0.8672 1.036834,-0.4982 1.115596,-0.5134 1.021997,-0.1977 -0.286345,0.9656 -1.429703,2.447 -2.477973,3.2106 -0.42406,0.3089 -0.448988,0.3637 -0.166281,0.3658 0.376889,0 2.420665,-0.5222 3.128619,-0.8036 0.257458,-0.1023 0.505611,-0.186 0.551454,-0.186 0.240657,0 -1.65885,2.1575 -2.53496,2.8792 l -1.016558,0.8374 -0.09123,2.0909 c -0.216504,4.963 -2.346566,9.9333 -5.827357,13.5977 -2.943837,3.0991 -6.871815,5.2074 -11.097511,5.9567 C 19.955695,1042.2874 16.495627,1042.4833 15.735758,1042.3545 Z"
         style="fill:#ffffff" />
      <path
         inkscape:connector-curvature="0"
         id="path1195"
         d="m 30.942248,1013.1215 c -1.881702,0.01 -3.74202,0.7185 -5.142028,2.0854 -1.408516,1.3751 -2.228628,3.4409 -2.199645,5.3706 0.08435,-1.8083 0.889196,-3.6912 2.199645,-4.9707 2.240013,-2.187 5.652309,-2.7098 8.484345,-1.3141 0.64019,0.3156 1.367697,0.7847 1.628309,1.057 l 0.485636,0.5142 1.17124,-0.3428 c 0.653947,-0.1803 1.696037,-0.5602 2.313912,-0.857 0.518417,-0.2491 0.80511,-0.3733 0.942706,-0.3999 0.02725,-0.071 0.06615,-0.1341 0.0857,-0.2 0.0936,-0.3156 0.0084,-0.2982 -1.028406,0.2 -0.617875,0.2967 -1.659965,0.6768 -2.313912,0.857 l -1.17124,0.3428 -0.485636,-0.5142 c -0.260612,-0.2723 -0.988119,-0.7414 -1.628309,-1.057 C 33.222552,1013.3694 32.071268,1013.1176 30.942248,1013.1215 z m -22.5392224,1.3426 -0.314235,0.7713 c -0.4241672,0.9896 -0.6117339,2.0567 -0.5713364,3.1139 0.013279,-0.9263 0.2000777,-1.8478 0.5713364,-2.7139 l 0.314235,-0.7713 1.3140737,1.3141 c 2.6463757,2.6999 5.9547697,4.6715 9.4270517,5.6276 1.181506,0.3253 3.37753,0.7425 4.027922,0.7427 l 0.542769,0 -0.02857,-0.3999 -0.514202,0 c -0.650392,-3e-4 -2.846417,-0.4174 -4.027922,-0.7428 -3.472282,-0.956 -6.780676,-2.9275 -9.4270517,-5.6276 L 8.4030256,1014.4641 z m 33.5374474,2.1996 c -0.04584,0 -0.285311,0.07 -0.54277,0.1714 -0.628762,0.25 -2.252688,0.6761 -2.885248,0.7714 -0.02553,0.019 -0.06027,0.038 -0.0857,0.057 -0.42406,0.3089 -0.454108,0.3693 -0.171401,0.3713 0.376889,0 2.434395,-0.5185 3.142349,-0.7999 0.12257,-0.049 0.159577,-0.053 0.257103,-0.086 C 41.873886,1016.8675 42.011268,1016.6637 41.940473,1016.6637 z m -34.4801525,6.8847 c -0.023653,0.024 -0.021487,0.1831 0,0.3999 0.047262,-0.048 0.4312356,0.069 0.8570046,0.2571 0.4257782,0.1883 1.1482582,0.3753 1.6283088,0.4285 l 0.8855721,0.1143 -0.571337,-0.4571 c -0.01044,-0.01 -0.01818,-0.02 -0.02857,-0.028 l -0.2856681,-0.028 c -0.4800504,-0.053 -1.2025304,-0.2402 -1.6283086,-0.4285 C 7.8915561,1023.6167 7.5075815,1023.5008 7.4603205,1023.5484 z m 5.0848945,7.3988 c -0.257106,0.022 -0.611911,0.026 -1.056973,0.028 -0.771614,0 -1.399773,0.049 -1.399773,0.086 0,0.068 0.06937,0.2158 0.142833,0.3714 0.173323,-0.028 0.624216,-0.055 1.25694,-0.057 1.598892,-0.01 1.889065,-0.1199 1.142674,-0.4285 C 12.592337,1030.9514 12.589216,1030.9435 12.545215,1030.9472 z m 3.970788,5.3991 -0.02857,0.028 c -0.775254,0.6395 -3.197674,1.8229 -4.484991,2.1998 -1.54899,0.4534 -3.9298814,0.7446 -5.0563283,0.6284 l -0.9141382,-0.086 0.5427696,0.3142 c 0.092338,0.056 0.1894094,0.116 0.2856682,0.1714 l 0.0857,0 c 1.1264469,0.1163 3.5073387,-0.175 5.0563287,-0.6284 1.287317,-0.3768 3.709737,-1.5604 4.484991,-2.1997 l 0.485635,-0.4281 L 16.516003,1036.3463 Z"
         style="fill:#000000;fill-opacity:0.16988418" />
    </g>
  </g>
</svg>
