<?xml version="1.0" encoding="UTF-8" standalone="no"?>
<!-- Created with Inkscape (http://www.inkscape.org/) -->

<svg
   xmlns:dc="http://purl.org/dc/elements/1.1/"
   xmlns:cc="http://creativecommons.org/ns#"
   xmlns:rdf="http://www.w3.org/1999/02/22-rdf-syntax-ns#"
   xmlns:svg="http://www.w3.org/2000/svg"
   xmlns="http://www.w3.org/2000/svg"
   xmlns:xlink="http://www.w3.org/1999/xlink"
   xmlns:sodipodi="http://sodipodi.sourceforge.net/DTD/sodipodi-0.dtd"
   xmlns:inkscape="http://www.inkscape.org/namespaces/inkscape"
   width="48"
   height="48.000011"
   id="svg1604"
   version="1.1"
   inkscape:version="0.48+devel r12114"
   sodipodi:docname="dc++.svg">
  <defs
     id="defs1606">
    <linearGradient
       inkscape:collect="always"
       id="linearGradient967">
      <stop
         style="stop-color:#2caad6;stop-opacity:1"
         offset="0"
         id="stop969" />
      <stop
         style="stop-color:#2ca9d5;stop-opacity:1"
         offset="1"
         id="stop971" />
    </linearGradient>
    <linearGradient
       inkscape:collect="always"
       id="linearGradient863">
      <stop
         style="stop-color:#454544;stop-opacity:1"
         offset="0"
         id="stop865" />
      <stop
         style="stop-color:#646465;stop-opacity:1"
         offset="1"
         id="stop867" />
    </linearGradient>
    <linearGradient
       inkscape:collect="always"
       id="linearGradient845">
      <stop
         style="stop-color:#43657f;stop-opacity:1"
         offset="0"
         id="stop847" />
      <stop
         id="stop853"
         offset="0.22500011"
         style="stop-color:#b7b4a4;stop-opacity:1" />
      <stop
         style="stop-color:#c7c6b9;stop-opacity:1"
         offset="0.48750007"
         id="stop857" />
      <stop
         style="stop-color:#7d847e;stop-opacity:1"
         offset="0.75"
         id="stop855" />
      <stop
         style="stop-color:#36526d;stop-opacity:1"
         offset="1"
         id="stop849" />
    </linearGradient>
    <linearGradient
       inkscape:collect="always"
       xlink:href="#linearGradient845"
       id="linearGradient851"
       x1="2311.5286"
       y1="-973.13568"
       x2="2311.5286"
       y2="-913.61792"
       gradientUnits="userSpaceOnUse" />
    <linearGradient
       inkscape:collect="always"
       xlink:href="#linearGradient863"
       id="linearGradient869"
       x1="2299.0713"
       y1="-931.64789"
       x2="2299.0713"
       y2="-955.93365"
       gradientUnits="userSpaceOnUse"
       gradientTransform="matrix(0.80220941,0,0,1.2802938,454.35321,2151.8438)" />
    <linearGradient
       inkscape:collect="always"
       xlink:href="#linearGradient967"
       id="linearGradient973"
       x1="2283.4463"
       y1="949.70905"
       x2="2283.4463"
       y2="939.10242"
       gradientUnits="userSpaceOnUse" />
    <linearGradient
       inkscape:collect="always"
       xlink:href="#linearGradient967"
       id="linearGradient1043"
       gradientUnits="userSpaceOnUse"
       x1="2283.4463"
       y1="949.70905"
       x2="2283.4463"
       y2="939.10242" />
    <linearGradient
       inkscape:collect="always"
       xlink:href="#linearGradient967"
       id="linearGradient1106"
       gradientUnits="userSpaceOnUse"
       x1="2283.4463"
       y1="949.70905"
       x2="2283.4463"
       y2="939.10242" />
    <linearGradient
       inkscape:collect="always"
       xlink:href="#linearGradient967"
       id="linearGradient1108"
       gradientUnits="userSpaceOnUse"
       x1="2283.4463"
       y1="949.70905"
       x2="2283.4463"
       y2="939.10242" />
  </defs>
  <sodipodi:namedview
     id="base"
     pagecolor="#ffffff"
     bordercolor="#666666"
     borderopacity="1.0"
     inkscape:pageopacity="0.0"
     inkscape:pageshadow="2"
     inkscape:zoom="5.6568543"
     inkscape:cx="9.5292032"
     inkscape:cy="25.56272"
     inkscape:document-units="px"
     inkscape:current-layer="layer1"
     showgrid="false"
     width="0px"
     height="0px"
     fit-margin-top="0"
     fit-margin-left="0"
     fit-margin-right="0"
     fit-margin-bottom="0"
     inkscape:window-width="1366"
     inkscape:window-height="718"
     inkscape:window-x="0"
     inkscape:window-y="28"
     inkscape:window-maximized="1" />
  <metadata
     id="metadata1609">
    <rdf:RDF>
      <cc:Work
         rdf:about="">
        <dc:format>image/svg+xml</dc:format>
        <dc:type
           rdf:resource="http://purl.org/dc/dcmitype/StillImage" />
        <dc:title />
        <cc:license
           rdf:resource="" />
      </cc:Work>
    </rdf:RDF>
  </metadata>
  <g
     inkscape:label="Capa 1"
     inkscape:groupmode="layer"
     id="layer1"
     transform="translate(-2273.1428,-919.79076)">
    <rect
       style="fill:url(#linearGradient851);fill-opacity:1;stroke:none"
       id="rect2991-1"
       width="48"
       height="48"
       x="2273.1428"
       y="-967.79077"
       ry="1.9445436"
       transform="scale(1,-1)" />
    <path
       inkscape:connector-curvature="0"
       style="fill:#000000;fill-opacity:1;stroke:none"
       d="m 2273.1428,964.79078 0,1.0625 c 0,1.0773 0.8602,1.9375 1.9375,1.9375 l 44.125,0 c 1.0773,0 1.9375,-0.8602 1.9375,-1.9375 l 0,-1.0625 c 0,1.0773 -0.8602,1.9375 -1.9375,1.9375 l -44.125,0 C 2274.003,966.72828 2273.1428,965.86808 2273.1428,964.79078 Z"
       id="rect846" />
    <path
       inkscape:connector-curvature="0"
       style="fill:#ffffff;fill-opacity:0.5372549;stroke:none"
       d="m 2275.674,920.44708 c -0.917,0 -1.6711,0.6395 -1.8437,1.5 0.3356,-0.2799 0.7745,-0.4375 1.25,-0.4375 l 44.125,0 c 0.4755,0 0.9144,0.1576 1.25,0.4375 -0.1726,-0.8605 -0.9267,-1.5 -1.8437,-1.5 L 2275.674,920.44708 Z"
       id="path7515" />
    <path
       inkscape:connector-curvature="0"
       style="fill:#000000;fill-opacity:0.39215686;stroke:none"
       d="m 2275.0803,919.79078 c -1.0773,0 -1.9375,0.8602 -1.9375,1.9375 l 0,43.0625 c 0,0.7934 0.48,1.449 1.1562,1.75 -0.3093,-0.3333 -0.5,-0.7824 -0.5,-1.2812 l 0,-42.9375 c 0,-1.0482 0.8269,-1.875 1.875,-1.875 l 42.9376,0 c 1.0481,0 1.875,0.8268 1.875,1.875 l 0,42.9375 c 0,0.4988 -0.1907,0.9479 -0.5,1.2812 0.6762,-0.301 1.1562,-0.9566 1.1562,-1.75 l 0,-43.0625 c 0,-1.0773 -0.8602,-1.9375 -1.9375,-1.9375 L 2275.0803,919.79078 Z"
       id="rect4280" />
    <path
       style="fill:url(#linearGradient869);fill-opacity:1;stroke:none"
       d="m 2293.7033,927.79077 -5.5892,5.06718 0,4.36084 -3.6545,3.16315 -3.5931,3.13244 3.5931,3.13244 3.6545,3.16314 0,3.6238 6.3877,5.80423 5.2821,0 6.3878,-5.80423 0,-3.6238 3.6545,-3.16314 3.5931,-3.13244 -3.5931,-3.13244 -3.6545,-3.16315 0,-4.36084 -5.5893,-5.06718 L 2293.7033,927.79077 Z"
       id="rect859"
       inkscape:connector-curvature="0" />
    <path
       style="color:#000000;fill:#ffffff;fill-opacity:0.09302326;fill-rule:nonzero;stroke:none;stroke-width:0.2;marker:none;visibility:visible;display:inline;overflow:visible;enable-background:accumulate"
       d="m 2293.8569,927.79077 0,30.86372 0.3378,0.30711 0,-31.17083 L 2293.8569,927.79077 z m 0.8906,0 0,31.44722 0.3071,0 0,-31.44722 L 2294.7475,927.79077 z m 0.8599,0 0,31.44722 0.3378,0 0,-31.44722 L 2295.6074,927.79077 z m 0.8906,0 0,31.44722 0.3378,0 0,-31.44722 L 2296.498,927.79077 z m 0.8905,0 0,31.44722 0.3993,0 0,-31.44722 L 2297.3885,927.79077 z m 0.9521,0 0,31.44722 0.3071,0 0,-31.44722 L 2298.3406,927.79077 z m 0.8906,0 0,31.44722 0.3071,0 0,-31.44722 L 2299.2312,927.79077 z m 0.8598,0 0,31.17083 0.3379,-0.30711 0,-30.86372 L 2300.091,927.79077 z m 0.9828,0.42994 0,29.85029 0.3071,-0.27639 0,-29.29751 L 2301.0738,928.22071 z m -7.8618,0.0307 -0.3071,0.27639 0,29.23609 0.3071,0.27639 L 2293.212,928.25142 z m -0.8599,0.76776 -0.3378,0.3071 0,27.63915 0.3378,0.30711 L 2292.3521,929.01918 z m 9.5816,0 0,28.25336 0.3378,-0.30711 0,-27.63915 L 2301.9337,929.01918 z m -10.4722,0.79846 -0.3071,0.27639 0,26.10365 0.3071,0.27639 L 2291.4615,929.81764 z m 11.3627,0 0,26.65643 0.3072,-0.27639 0,-26.10365 L 2302.8242,929.81764 z m -12.3147,0.85989 -0.3378,0.3071 0,24.32245 0.3378,0.30711 L 2290.5095,930.67753 z m 13.2668,0 0,24.93666 0.3378,-0.30711 0,-24.32245 L 2303.7763,930.67753 z m -14.1574,0.82917 -0.3071,0.27639 0,22.72553 0.3071,0.27639 L 2289.6189,931.5067 z m 15.048,0 0,23.27831 0.3071,-0.27639 0,-22.72553 L 2304.6669,931.5067 z m -15.9386,0.79847 -0.3071,0.27639 0,21.1286 0.3071,0.27639 L 2288.7283,932.30517 z m 16.8292,0 0,21.68138 0.3071,-0.27639 0,-21.1286 L 2305.5575,932.30517 z m -17.7812,5.22072 -0.3071,0.2764 0,11.42418 0.3071,0.27639 L 2287.7763,937.52589 z m 18.7332,0 0,11.97697 0.3071,-0.27639 0,-11.42418 L 2306.5095,937.52589 z m -19.6238,0.73705 -0.3071,0.27639 0,9.9501 0.3071,0.27639 L 2286.8857,938.26294 z m 20.5144,0 0,10.50288 0.3071,-0.27639 0,-9.9501 L 2307.4001,938.26294 z m -21.3743,0.76775 -0.3378,0.27639 0,8.41459 0.3378,0.27639 L 2286.0258,939.03069 z m 22.2342,0 0,8.96737 0.3378,-0.27639 0,-8.41459 L 2308.26,939.03069 z m -23.1248,0.76776 -0.3071,0.27639 0,6.87908 0.3071,0.27639 L 2285.1352,939.79845 z m 24.0153,0 0,7.43186 0.3071,-0.27639 0,-6.87908 L 2309.1505,939.79845 z m -24.9059,0.76775 -0.3992,0.33781 0,5.22073 0.3992,0.33782 L 2284.2446,940.5662 z m 25.7658,0 0,5.89636 0.43,-0.33782 0,-5.22073 L 2310.0104,940.5662 z m -26.7178,0.82918 -0.3071,0.27639 0,3.68522 0.3071,0.27639 L 2283.2926,941.39538 z m 27.7006,0 0,4.238 0.3071,-0.27639 0,-3.68522 L 2310.9932,941.39538 z m -28.5605,0.76775 -0.3378,0.27639 0,2.14971 0.3378,0.2764 L 2282.4327,942.16313 z m 29.4203,0 0,2.7025 0.3379,-0.2764 0,-2.14971 L 2311.853,942.16313 Z"
       id="path1150"
       inkscape:connector-curvature="0" />
    <g
       id="g1017"
       transform="matrix(0.90478088,0,0,1.922319,217.31224,-872.53885)">
      <path
         inkscape:connector-curvature="0"
         id="path1004"
         d="m 2288.6741,941.37558 -7.2188,3.0625 0.2188,0.0937 7,-2.96875 L 2288.6741,941.37558 z m -10.125,3.96875 0,0.1875 10.1562,4.3125 0,-0.1875 L 2278.5491,945.34433 Z"
         style="font-size:20px;font-style:normal;font-variant:normal;font-weight:normal;font-stretch:normal;line-height:125%;letter-spacing:0px;word-spacing:0px;fill:#000000;fill-opacity:0.17674423;stroke:none;font-family:Helvetica;-inkscape-font-specification:Helvetica" />
      <path
         style="font-size:20px;font-style:normal;font-variant:normal;font-weight:normal;font-stretch:normal;line-height:125%;letter-spacing:0px;word-spacing:0px;fill:#000000;fill-opacity:0.07441861;stroke:none;font-family:Helvetica;-inkscape-font-specification:Helvetica"
         d="m 2288.6741,941.56308 -7.2188,3.0625 0.2188,0.0937 7,-2.96875 L 2288.6741,941.56308 z m -10.125,3.96875 0,0.1875 10.1562,4.3125 0,-0.1875 L 2278.5491,945.53183 Z"
         id="path1013"
         inkscape:connector-curvature="0" />
      <path
         inkscape:connector-curvature="0"
         id="path1015"
         d="m 2288.6741,941.74612 -7.2188,3.0625 0.2188,0.0937 7,-2.96875 L 2288.6741,941.74612 z m -10.125,3.96875 0,0.1875 10.1562,4.3125 0,-0.1875 L 2278.5491,945.71487 Z"
         style="font-size:20px;font-style:normal;font-variant:normal;font-weight:normal;font-stretch:normal;line-height:125%;letter-spacing:0px;word-spacing:0px;fill:#000000;fill-opacity:0.02790701;stroke:none;font-family:Helvetica;-inkscape-font-specification:Helvetica" />
      <g
         id="text956"
         style="font-size:20px;font-style:normal;font-variant:normal;font-weight:normal;font-stretch:normal;line-height:125%;letter-spacing:0px;word-spacing:0px;fill:url(#linearGradient973);fill-opacity:1;stroke:none;font-family:Helvetica;-inkscape-font-specification:Helvetica">
        <path
           id="path965"
           style="fill:url(#linearGradient1043);fill-opacity:1"
           d="m 2288.7056,947.50507 0,2.16 -10.16,-4.32 0,-1.8 10.14,-4.32 0,2.16 -7.24,3.06 L 2288.7056,947.50507 Z"
           inkscape:connector-curvature="0" />
      </g>
      <path
         id="path991"
         transform="translate(2273.1428,919.79076)"
         d="m 15.53125,19.4375 -10.125,4.3125 0,1.8125 10.15625,4.3125 0,-0.25 -10.03125,-4.09375 0,-1.75 10,-4.09375 L 15.53125,19.4375 Z"
         style="font-size:20px;font-style:normal;font-variant:normal;font-weight:normal;font-stretch:normal;line-height:125%;letter-spacing:0px;word-spacing:0px;fill:#ffffff;fill-opacity:0.1906977;stroke:none;font-family:Helvetica;-inkscape-font-specification:Helvetica"
         inkscape:connector-curvature="0" />
    </g>
    <path
       style="fill:#000000;fill-opacity:0.25116284;stroke:none"
       d="m 2293.9419,937.43299 c -1.1309,0 -2.0404,0.53912 -2.0404,1.24029 0,0.0368 0,0.084 0,0.11996 0.069,-0.65955 0.9554,-1.16027 2.0404,-1.16027 1.0852,0 2.0079,0.50072 2.0805,1.16027 0,-0.0361 0,-0.0832 0,-0.11996 C 2296.0224,937.97211 2295.073,937.43299 2293.9419,937.43299 z m 6.3615,0.80018 c -1.131,0 -2.0405,0.53913 -2.0405,1.24029 0,0.0369 0,0.084 0,0.11996 0.069,-0.65954 0.9554,-1.16026 2.0405,-1.16026 1.085,0 2.0078,0.50072 2.0805,1.16026 0,-0.0361 0,-0.0832 0,-0.11996 C 2302.3839,938.7723 2301.4344,938.23317 2300.3034,938.23317 z m -9.7223,2.36055 c 0,0.0402 0,0.0795 0,0.11996 0,1.86033 1.5005,3.36077 3.3608,3.36077 0.1101,0 0.2144,-0.0204 0.3201,-0.04 0.084,-0.0745 0.1485,-0.17445 0.24,-0.24005 -0.1833,0.0308 -0.368,0.08 -0.5601,0.08 C 2292.1087,943.87447 2290.6238,942.41654 2290.5811,940.59372 z m 13.123,0.80018 c -0.043,1.8228 -1.5674,3.28075 -3.4007,3.28075 -0.4513,0 -0.8475,-0.11958 -1.2403,-0.28006 0.059,0.0727 0.1062,0.16174 0.16,0.24006 0.3433,0.12919 0.6878,0.24005 1.0803,0.24005 1.8603,0 3.4007,-1.50046 3.4007,-3.36078 C 2303.7041,941.47345 2303.7056,941.43407 2303.7041,941.3939 z m -6.6814,0.48011 c -0.2475,0.54305 -0.6385,1.01787 -1.1202,1.36031 0.078,-0.0134 0.1601,-0.0254 0.24,-0.0399 0.3587,-0.31559 0.6806,-0.6822 0.8802,-1.12026 0.081,0.49181 0.2891,0.9299 0.5601,1.32032 0.052,0.0195 0.1088,0.019 0.16,0.0399 C 2297.3765,942.99034 2297.1225,942.46711 2297.0227,941.87401 z m -0.5602,1.56035 c -1.131,0 -2.0405,0.57913 -2.0405,1.2803 0,0.0368 0,0.084 0,0.11996 0.069,-0.66252 0.9554,-1.20027 2.0405,-1.20027 1.085,0 1.9708,0.53775 2.0405,1.20027 0,-0.0361 0,-0.0832 0,-0.11996 C 2298.503,944.01349 2297.5934,943.43436 2296.4625,943.43436 z m -3.3607,3.20074 c 0,0.0398 0,0.08 0,0.11996 0,1.86034 1.5003,3.36078 3.3607,3.36078 1.8603,0 3.3609,-1.50044 3.3609,-3.36078 0,-0.0403 0,-0.08 0,-0.11996 -0.042,1.82282 -1.5276,3.28075 -3.3609,3.28075 C 2294.6291,949.91585 2293.1445,948.45792 2293.1018,946.6351 Z"
       id="path1077"
       inkscape:connector-curvature="0" />
    <path
       inkscape:connector-curvature="0"
       id="path1082"
       d="m 2293.9419,937.62732 c -1.1309,0 -2.0404,0.53913 -2.0404,1.24029 0,0.0368 0,0.084 0,0.11996 0.069,-0.65954 0.9554,-1.16026 2.0404,-1.16026 1.0852,0 2.0079,0.50072 2.0805,1.16026 0,-0.0361 0,-0.0832 0,-0.11996 C 2296.0224,938.16645 2295.073,937.62732 2293.9419,937.62732 z m 6.3615,0.80019 c -1.131,0 -2.0405,0.53912 -2.0405,1.24028 0,0.0369 0,0.084 0,0.11997 0.069,-0.65954 0.9554,-1.16027 2.0405,-1.16027 1.085,0 2.0078,0.50073 2.0805,1.16027 0,-0.0361 0,-0.0832 0,-0.11997 C 2302.3839,938.96663 2301.4344,938.42751 2300.3034,938.42751 z m -9.7223,2.36054 c 0,0.0402 0,0.0795 0,0.11996 0,1.86033 1.5005,3.36078 3.3608,3.36078 0.1101,0 0.2144,-0.0204 0.3201,-0.04 0.084,-0.0745 0.1485,-0.17443 0.24,-0.24005 -0.1833,0.0308 -0.368,0.08 -0.5601,0.08 C 2292.1087,944.0688 2290.6238,942.61087 2290.5811,940.78805 z m 13.123,0.80019 c -0.043,1.8228 -1.5674,3.28075 -3.4007,3.28075 -0.4513,0 -0.8475,-0.11958 -1.2403,-0.28007 0.059,0.0727 0.1062,0.16175 0.16,0.24006 0.3433,0.12919 0.6878,0.24005 1.0803,0.24005 1.8603,0 3.4007,-1.50044 3.4007,-3.36076 C 2303.7041,941.6678 2303.7056,941.6284 2303.7041,941.58824 z m -6.6814,0.48011 c -0.2475,0.54304 -0.6385,1.01786 -1.1202,1.36031 0.078,-0.0134 0.1601,-0.0254 0.24,-0.0399 0.3587,-0.3156 0.6806,-0.68221 0.8802,-1.12026 0.081,0.49179 0.2891,0.92988 0.5601,1.3203 0.052,0.0195 0.1088,0.019 0.16,0.04 C 2297.3765,943.18467 2297.1225,942.66144 2297.0227,942.06835 z m -0.5602,1.56036 c -1.131,0 -2.0405,0.57912 -2.0405,1.28028 0,0.0369 0,0.084 0,0.11997 0.069,-0.66253 0.9554,-1.20028 2.0405,-1.20028 1.085,0 1.9708,0.53775 2.0405,1.20028 0,-0.0361 0,-0.0832 0,-0.11997 C 2298.503,944.20783 2297.5934,943.62871 2296.4625,943.62871 z m -3.3607,3.20073 c 0,0.0398 0,0.08 0,0.11997 0,1.86033 1.5003,3.36076 3.3607,3.36076 1.8603,0 3.3609,-1.50043 3.3609,-3.36076 0,-0.0403 0,-0.08 0,-0.11997 -0.042,1.82281 -1.5276,3.28076 -3.3609,3.28076 C 2294.6291,950.1102 2293.1445,948.65225 2293.1018,946.82944 Z"
       style="fill:#000000;fill-opacity:0.12558139;stroke:none" />
    <path
       style="fill:#000000;fill-opacity:0.04651166;stroke:none"
       d="m 2293.9419,937.82738 c -1.1309,0 -2.0404,0.53911 -2.0404,1.24027 0,0.0369 0,0.084 0,0.11997 0.069,-0.65954 0.9554,-1.16027 2.0404,-1.16027 1.0852,0 2.0079,0.50073 2.0805,1.16027 0,-0.0361 0,-0.0832 0,-0.11997 C 2296.0224,938.36649 2295.073,937.82738 2293.9419,937.82738 z m 6.3615,0.80018 c -1.131,0 -2.0405,0.53911 -2.0405,1.24028 0,0.0368 0,0.084 0,0.11997 0.069,-0.65955 0.9554,-1.16028 2.0405,-1.16028 1.085,0 2.0078,0.50073 2.0805,1.16028 0,-0.0361 0,-0.0832 0,-0.11997 C 2302.3839,939.16667 2301.4344,938.62756 2300.3034,938.62756 z m -9.7223,2.36054 c 0,0.0402 0,0.0795 0,0.11996 0,1.86034 1.5005,3.36077 3.3608,3.36077 0.1101,0 0.2144,-0.0204 0.3201,-0.0399 0.084,-0.0745 0.1485,-0.17443 0.24,-0.24005 -0.1833,0.0308 -0.368,0.08 -0.5601,0.08 C 2292.1087,944.26885 2290.6238,942.81091 2290.5811,940.9881 z m 13.123,0.80018 c -0.043,1.82281 -1.5674,3.28075 -3.4007,3.28075 -0.4513,0 -0.8475,-0.11958 -1.2403,-0.28006 0.059,0.0727 0.1062,0.16174 0.16,0.24005 0.3433,0.1292 0.6878,0.24006 1.0803,0.24006 1.8603,0 3.4007,-1.50045 3.4007,-3.36077 C 2303.7041,941.86784 2303.7056,941.82844 2303.7041,941.78828 z m -6.6814,0.48011 c -0.2475,0.54305 -0.6385,1.01788 -1.1202,1.36032 0.078,-0.0134 0.1601,-0.0254 0.24,-0.04 0.3587,-0.31559 0.6806,-0.68221 0.8802,-1.12026 0.081,0.4918 0.2891,0.92989 0.5601,1.32031 0.052,0.0195 0.1088,0.019 0.16,0.04 C 2297.3765,943.38472 2297.1225,942.86149 2297.0227,942.26839 z m -0.5602,1.56036 c -1.131,0 -2.0405,0.57913 -2.0405,1.2803 0,0.0368 0,0.084 0,0.11996 0.069,-0.66253 0.9554,-1.20028 2.0405,-1.20028 1.085,0 1.9708,0.53775 2.0405,1.20028 0,-0.0361 0,-0.0832 0,-0.11996 C 2298.503,944.40788 2297.5934,943.82875 2296.4625,943.82875 z m -3.3607,3.20074 c 0,0.0398 0,0.08 0,0.11996 0,1.86033 1.5003,3.36076 3.3607,3.36076 1.8603,0 3.3609,-1.50043 3.3609,-3.36076 0,-0.0403 0,-0.08 0,-0.11996 -0.042,1.82282 -1.5276,3.28075 -3.3609,3.28075 C 2294.6291,950.31024 2293.1445,948.85231 2293.1018,947.02949 Z"
       id="path1084"
       inkscape:connector-curvature="0" />
    <path
       inkscape:connector-curvature="0"
       style="fill:#ffffff;fill-opacity:1;stroke:none"
       d="m 2293.9419,937.11291 c -1.8603,0 -3.3608,1.54047 -3.3608,3.40078 0,1.86033 1.5005,3.36078 3.3608,3.36078 0.1921,0 0.3767,-0.0492 0.5602,-0.08 -0.8545,0.61236 -1.4004,1.62906 -1.4004,2.76064 0,1.86034 1.5004,3.36077 3.3608,3.36077 1.8602,0 3.3608,-1.50043 3.3608,-3.36077 0,-0.80906 -0.2837,-1.57861 -0.7602,-2.16049 0.3928,0.16045 0.7891,0.28006 1.2403,0.28006 1.8602,0 3.4007,-1.50045 3.4007,-3.36077 0,-1.86033 -1.5405,-3.40078 -3.4007,-3.40078 -1.3631,0 -2.5119,0.83436 -3.0407,2.00045 C 2296.9779,938.33965 2295.5967,937.11291 2293.9419,937.11291 z m 0,0.32008 c 1.1311,0 2.0805,0.53912 2.0805,1.24029 0,0.70116 -0.9494,1.28029 -2.0805,1.28029 -1.1309,0 -2.0405,-0.57913 -2.0405,-1.28029 C 2291.9014,937.97211 2292.811,937.43299 2293.9419,937.43299 z m 6.3615,0.80018 c 1.131,0 2.0804,0.53913 2.0804,1.24029 0,0.70117 -0.9494,1.2803 -2.0804,1.2803 -1.131,0 -2.0405,-0.57913 -2.0405,-1.2803 C 2298.2629,938.7723 2299.1724,938.23317 2300.3034,938.23317 z m -3.2808,3.64083 c 0.1,0.5931 0.3539,1.11633 0.7202,1.56036 -0.3942,-0.16184 -0.8285,-0.28006 -1.2803,-0.28006 -0.1921,0 -0.3769,0.049 -0.5601,0.08 C 2296.3842,942.89187 2296.7752,942.41706 2297.0226,941.874 z m -0.5601,1.56036 c 1.1308,0 2.0405,0.57913 2.0405,1.2803 0,0.70116 -0.9097,1.28029 -2.0405,1.28029 -1.131,0 -2.0405,-0.57913 -2.0405,-1.28029 C 2294.422,944.01349 2295.3315,943.43436 2296.4625,943.43436 Z"
       id="path2198" />
    <g
       transform="matrix(-0.90478088,0,0,1.922319,4376.9734,-872.53885)"
       id="g1092">
      <path
         style="font-size:20px;font-style:normal;font-variant:normal;font-weight:normal;font-stretch:normal;line-height:125%;letter-spacing:0px;word-spacing:0px;fill:#000000;fill-opacity:0.17674423;stroke:none;font-family:Helvetica;-inkscape-font-specification:Helvetica"
         d="m 2288.6741,941.37558 -7.2188,3.0625 0.2188,0.0937 7,-2.96875 L 2288.6741,941.37558 z m -10.125,3.96875 0,0.1875 10.1562,4.3125 0,-0.1875 L 2278.5491,945.34433 Z"
         id="path1094"
         inkscape:connector-curvature="0" />
      <path
         inkscape:connector-curvature="0"
         id="path1096"
         d="m 2288.6741,941.56308 -7.2188,3.0625 0.2188,0.0937 7,-2.96875 L 2288.6741,941.56308 z m -10.125,3.96875 0,0.1875 10.1562,4.3125 0,-0.1875 L 2278.5491,945.53183 Z"
         style="font-size:20px;font-style:normal;font-variant:normal;font-weight:normal;font-stretch:normal;line-height:125%;letter-spacing:0px;word-spacing:0px;fill:#000000;fill-opacity:0.07441861;stroke:none;font-family:Helvetica;-inkscape-font-specification:Helvetica" />
      <path
         style="font-size:20px;font-style:normal;font-variant:normal;font-weight:normal;font-stretch:normal;line-height:125%;letter-spacing:0px;word-spacing:0px;fill:#000000;fill-opacity:0.02790701;stroke:none;font-family:Helvetica;-inkscape-font-specification:Helvetica"
         d="m 2288.6741,941.74612 -7.2188,3.0625 0.2188,0.0937 7,-2.96875 L 2288.6741,941.74612 z m -10.125,3.96875 0,0.1875 10.1562,4.3125 0,-0.1875 L 2278.5491,945.71487 Z"
         id="path1098"
         inkscape:connector-curvature="0" />
      <g
         style="font-size:20px;font-style:normal;font-variant:normal;font-weight:normal;font-stretch:normal;line-height:125%;letter-spacing:0px;word-spacing:0px;fill:url(#linearGradient1108);fill-opacity:1;stroke:none;font-family:Helvetica;-inkscape-font-specification:Helvetica"
         id="g1100">
        <path
           inkscape:connector-curvature="0"
           d="m 2288.7056,947.50507 0,2.16 -10.16,-4.32 0,-1.8 10.14,-4.32 0,2.16 -7.24,3.06 L 2288.7056,947.50507 Z"
           style="fill:url(#linearGradient1106);fill-opacity:1"
           id="path1102" />
      </g>
      <path
         inkscape:connector-curvature="0"
         style="font-size:20px;font-style:normal;font-variant:normal;font-weight:normal;font-stretch:normal;line-height:125%;letter-spacing:0px;word-spacing:0px;fill:#ffffff;fill-opacity:0.1906977;stroke:none;font-family:Helvetica;-inkscape-font-specification:Helvetica"
         d="m 15.53125,19.4375 -10.125,4.3125 0,1.8125 10.15625,4.3125 0,-0.25 -10.03125,-4.09375 0,-1.75 10,-4.09375 L 15.53125,19.4375 Z"
         transform="translate(2273.1428,919.79076)"
         id="path1104" />
    </g>
    <path
       style="fill:#000000;fill-opacity:0.26046514;stroke:none"
       d="m 2288.1141,953.43376 0,0.18427 6.3877,5.80422 5.2821,0 6.3878,-5.80422 0,-0.18427 -6.3878,5.80423 L 2294.5018,959.23799 Z"
       id="path1258"
       inkscape:connector-curvature="0"
       sodipodi:nodetypes="ccccccccc" />
    <path
       sodipodi:nodetypes="ccccccccc"
       inkscape:connector-curvature="0"
       id="path1263"
       d="m 2288.1141,953.61803 0,0.18426 6.3877,5.80422 5.2821,0 6.3878,-5.80422 0,-0.18426 -6.3878,5.80422 L 2294.5018,959.42225 Z"
       style="fill:#000000;fill-opacity:0.14418604;stroke:none" />
    <path
       style="fill:#000000;fill-opacity:0.14418604;stroke:none"
       d="m 2288.1141,953.80229 0,0.18426 6.3877,5.80422 5.2821,0 6.3878,-5.80422 0,-0.18426 -6.3878,5.80422 L 2294.5018,959.60651 Z"
       id="path1265"
       inkscape:connector-curvature="0"
       sodipodi:nodetypes="ccccccccc" />
  </g>
</svg>
