<?xml version="1.0" encoding="UTF-8" standalone="no"?>
<!-- Created with Inkscape (http://www.inkscape.org/) -->

<svg
   xmlns:dc="http://purl.org/dc/elements/1.1/"
   xmlns:cc="http://creativecommons.org/ns#"
   xmlns:rdf="http://www.w3.org/1999/02/22-rdf-syntax-ns#"
   xmlns:svg="http://www.w3.org/2000/svg"
   xmlns="http://www.w3.org/2000/svg"
   xmlns:xlink="http://www.w3.org/1999/xlink"
   xmlns:sodipodi="http://sodipodi.sourceforge.net/DTD/sodipodi-0.dtd"
   xmlns:inkscape="http://www.inkscape.org/namespaces/inkscape"
   width="48"
   height="48"
   id="svg2"
   version="1.1"
   inkscape:version="0.48+devel r12114"
   sodipodi:docname="deja-dup.svg">
  <defs
     id="defs4">
    <linearGradient
       inkscape:collect="always"
       id="linearGradient1082">
      <stop
         style="stop-color:#00d8fe;stop-opacity:1"
         offset="0"
         id="stop1084" />
      <stop
         style="stop-color:#0081ed;stop-opacity:1"
         offset="1"
         id="stop1086" />
    </linearGradient>
    <linearGradient
       inkscape:collect="always"
       id="linearGradient896">
      <stop
         style="stop-color:#daffaa;stop-opacity:1"
         offset="0"
         id="stop898" />
      <stop
         style="stop-color:#2fd410;stop-opacity:1"
         offset="1"
         id="stop900" />
    </linearGradient>
    <linearGradient
       inkscape:collect="always"
       id="linearGradient876">
      <stop
         style="stop-color:#000000;stop-opacity:1;"
         offset="0"
         id="stop878" />
      <stop
         style="stop-color:#000000;stop-opacity:0;"
         offset="1"
         id="stop880" />
    </linearGradient>
    <linearGradient
       id="linearGradient868"
       inkscape:collect="always">
      <stop
         id="stop870"
         offset="0"
         style="stop-color:#1a1a1a;stop-opacity:1" />
      <stop
         id="stop872"
         offset="1"
         style="stop-color:#333333;stop-opacity:1" />
    </linearGradient>
    <linearGradient
       inkscape:collect="always"
       id="linearGradient853">
      <stop
         style="stop-color:#e2e7e9;stop-opacity:1"
         offset="0"
         id="stop855" />
      <stop
         style="stop-color:#eff2f2;stop-opacity:1"
         offset="1"
         id="stop857" />
    </linearGradient>
    <linearGradient
       inkscape:collect="always"
       xlink:href="#linearGradient853"
       id="linearGradient859"
       x1="25.102289"
       y1="-1052.4038"
       x2="25.102289"
       y2="-1004.1438"
       gradientUnits="userSpaceOnUse" />
    <linearGradient
       inkscape:collect="always"
       xlink:href="#linearGradient868"
       id="linearGradient865"
       gradientUnits="userSpaceOnUse"
       x1="25.102289"
       y1="-1052.4038"
       x2="25.102289"
       y2="-1040.3831"
       gradientTransform="matrix(1,0,0,-1,0,-1004.3622)" />
    <linearGradient
       inkscape:collect="always"
       xlink:href="#linearGradient876"
       id="linearGradient882"
       x1="24.792931"
       y1="1040.9159"
       x2="24.792931"
       y2="1042.3743"
       gradientUnits="userSpaceOnUse"
       gradientTransform="translate(0,2)" />
    <radialGradient
       inkscape:collect="always"
       xlink:href="#linearGradient896"
       id="radialGradient902"
       cx="37.0625"
       cy="40.8125"
       fx="37.0625"
       fy="40.8125"
       r="1.3749999"
       gradientUnits="userSpaceOnUse" />
    <radialGradient
       inkscape:collect="always"
       xlink:href="#linearGradient896"
       id="radialGradient1006"
       gradientUnits="userSpaceOnUse"
       cx="37.0625"
       cy="40.8125"
       fx="37.0625"
       fy="40.8125"
       r="1.3749999" />
    <radialGradient
       inkscape:collect="always"
       xlink:href="#linearGradient896"
       id="radialGradient1010"
       gradientUnits="userSpaceOnUse"
       cx="37.0625"
       cy="40.8125"
       fx="37.0625"
       fy="40.8125"
       r="1.3749999" />
    <radialGradient
       inkscape:collect="always"
       xlink:href="#linearGradient896"
       id="radialGradient1014"
       gradientUnits="userSpaceOnUse"
       cx="37.0625"
       cy="40.8125"
       fx="37.0625"
       fy="40.8125"
       r="1.3749999" />
    <radialGradient
       inkscape:collect="always"
       xlink:href="#linearGradient896"
       id="radialGradient1018"
       gradientUnits="userSpaceOnUse"
       cx="37.0625"
       cy="40.8125"
       fx="37.0625"
       fy="40.8125"
       r="1.3749999" />
    <linearGradient
       inkscape:collect="always"
       xlink:href="#linearGradient1082"
       id="linearGradient1054"
       x1="31.3734"
       y1="1039.2506"
       x2="31.3734"
       y2="1007.7097"
       gradientUnits="userSpaceOnUse"
       gradientTransform="matrix(0.9777202,0,0,0.9777202,0.18937829,24.422025)" />
  </defs>
  <sodipodi:namedview
     id="base"
     pagecolor="#ffffff"
     bordercolor="#666666"
     borderopacity="1.0"
     inkscape:pageopacity="0.0"
     inkscape:pageshadow="2"
     inkscape:zoom="8.0000004"
     inkscape:cx="21.027153"
     inkscape:cy="33.893594"
     inkscape:document-units="px"
     inkscape:current-layer="layer1"
     showgrid="false"
     inkscape:window-width="1366"
     inkscape:window-height="718"
     inkscape:window-x="0"
     inkscape:window-y="28"
     inkscape:window-maximized="1">
    <inkscape:grid
       type="xygrid"
       id="grid3850" />
  </sodipodi:namedview>
  <metadata
     id="metadata7">
    <rdf:RDF>
      <cc:Work
         rdf:about="">
        <dc:format>image/svg+xml</dc:format>
        <dc:type
           rdf:resource="http://purl.org/dc/dcmitype/StillImage" />
        <dc:title />
      </cc:Work>
    </rdf:RDF>
  </metadata>
  <g
     inkscape:label="Capa 1"
     inkscape:groupmode="layer"
     id="layer1"
     transform="translate(0,-1004.3622)">
    <rect
       style="fill:url(#linearGradient859);fill-opacity:1;stroke:none"
       id="rect2991-1"
       width="48"
       height="48"
       x="-4.1259725e-09"
       y="-1052.3622"
       ry="1.9445436"
       transform="scale(1,-1)" />
    <path
       style="fill:url(#linearGradient865);fill-opacity:1;stroke:none"
       d="m 0,38.5 0,7.5625 C 0,47.139777 0.86022285,48 1.9375,48 l 44.125,0 C 47.139777,48 48,47.139777 48,46.0625 L 48,38.5 Z"
       id="rect861"
       transform="translate(0,1004.3622)"
       inkscape:connector-curvature="0"
       sodipodi:nodetypes="csssscc" />
    <path
       style="color:#000000;fill:#000000;fill-opacity:0.46976749;fill-rule:nonzero;stroke:none;stroke-width:0.2;marker:none;visibility:visible;display:inline;overflow:visible;enable-background:accumulate"
       d="M 0 42.875 L 0 43.625 L 48 43.625 L 48 42.875 L 0 42.875 z "
       transform="translate(0,1004.3622)"
       id="rect1077" />
    <path
       style="opacity:0.54500002;color:#000000;fill:url(#linearGradient882);fill-opacity:1;fill-rule:nonzero;stroke:none;stroke-width:0.2;marker:none;visibility:visible;display:inline;overflow:visible;enable-background:accumulate"
       d="m 0,1042.8622 0,1.9688 48,0 0,-1.9688 L 0,1042.8622 Z"
       id="rect874"
       inkscape:connector-curvature="0" />
    <path
       transform="matrix(1.125,0,0,1.125,-1.0703124,1001.6981)"
       d="m 38.4375,40.8125 a 1.3749999,1.3749999 0 1 1 -2.75,0 A 1.3749999,1.3749999 0 1 1 38.4375,40.8125 Z"
       sodipodi:ry="1.3749999"
       sodipodi:rx="1.3749999"
       sodipodi:cy="40.8125"
       sodipodi:cx="37.0625"
       id="path1004"
       style="opacity:0.19200003;color:#000000;fill:url(#radialGradient1006);fill-opacity:1;fill-rule:nonzero;stroke:none;stroke-width:0.2;marker:none;visibility:visible;display:inline;overflow:visible;enable-background:accumulate"
       sodipodi:type="arc" />
    <path
       sodipodi:type="arc"
       style="opacity:0.10100002;color:#000000;fill:url(#radialGradient1010);fill-opacity:1;fill-rule:nonzero;stroke:none;stroke-width:0.2;marker:none;visibility:visible;display:inline;overflow:visible;enable-background:accumulate"
       id="path1008"
       sodipodi:cx="37.0625"
       sodipodi:cy="40.8125"
       sodipodi:rx="1.3749999"
       sodipodi:ry="1.3749999"
       d="m 38.4375,40.8125 a 1.3749999,1.3749999 0 1 1 -2.75,0 A 1.3749999,1.3749999 0 1 1 38.4375,40.8125 Z"
       transform="matrix(1.2415119,0,0,1.2415119,-5.3885347,996.943)" />
    <path
       transform="matrix(1.3620415,0,0,1.3620415,-9.855663,992.02388)"
       d="m 38.4375,40.8125 a 1.3749999,1.3749999 0 1 1 -2.75,0 A 1.3749999,1.3749999 0 1 1 38.4375,40.8125 Z"
       sodipodi:ry="1.3749999"
       sodipodi:rx="1.3749999"
       sodipodi:cy="40.8125"
       sodipodi:cx="37.0625"
       id="path1012"
       style="opacity:0.0357143;color:#000000;fill:url(#radialGradient1014);fill-opacity:1;fill-rule:nonzero;stroke:none;stroke-width:0.2;marker:none;visibility:visible;display:inline;overflow:visible;enable-background:accumulate"
       sodipodi:type="arc" />
    <path
       sodipodi:type="arc"
       style="opacity:0.02999998;color:#000000;fill:url(#radialGradient1018);fill-opacity:1;fill-rule:nonzero;stroke:none;stroke-width:0.2;marker:none;visibility:visible;display:inline;overflow:visible;enable-background:accumulate"
       id="path1016"
       sodipodi:cx="37.0625"
       sodipodi:cy="40.8125"
       sodipodi:rx="1.3749999"
       sodipodi:ry="1.3749999"
       d="m 38.4375,40.8125 a 1.3749999,1.3749999 0 1 1 -2.75,0 A 1.3749999,1.3749999 0 1 1 38.4375,40.8125 Z"
       transform="matrix(1.5428359,0,0,1.5428359,-16.556355,984.64521)" />
    <path
       sodipodi:type="arc"
       style="color:#000000;fill:url(#radialGradient902);fill-opacity:1;fill-rule:nonzero;stroke:none;stroke-width:0.2;marker:none;visibility:visible;display:inline;overflow:visible;enable-background:accumulate"
       id="path894"
       sodipodi:cx="37.0625"
       sodipodi:cy="40.8125"
       sodipodi:rx="1.3749999"
       sodipodi:ry="1.3749999"
       d="m 38.4375,40.8125 a 1.3749999,1.3749999 0 1 1 -2.75,0 A 1.3749999,1.3749999 0 1 1 38.4375,40.8125 Z"
       transform="translate(3.5625001,1006.7997)" />
    <g
       id="g1100"
       transform="translate(-0.1435284,-1.4136)">
      <path
         sodipodi:nodetypes="scccsccccccssccccss"
         inkscape:connector-curvature="0"
         id="path1020"
         d="m 24.143523,1009.4192 c -7.284333,0 -13.397547,4.9928 -15.1388933,11.7326 l 0.031541,0 c -0.066319,0.2562 -0.1673065,0.4958 -0.2207751,0.7568 C 8.6070076,1022.9273 8.5,1023.9822 8.5,1025.0627 c 0,1.0474 0.1189103,2.0689 0.315394,3.0595 0.4970558,1.3434 1.0221659,2.0607 1.766202,3.091 l 1.513892,-2.618 1.387727,-2.429 2.901629,-5.0144 -3.343177,0 c 1.614248,-4.5942 5.98754,-7.8848 11.133397,-7.8848 6.51797,0 11.795716,5.278 11.795716,11.7957 0,6.5177 -5.277746,11.7957 -11.795716,11.7957 l 0,0.8198 -0.03153,0 0,3.028 c 8.639676,0 15.643523,-7.004 15.643523,-15.6435 C 39.787046,1016.4231 32.7832,1009.4192 24.143523,1009.4192 Z"
         style="color:#000000;fill:url(#linearGradient1054);fill-opacity:1;fill-rule:nonzero;stroke:none;stroke-width:0.2;marker:none;visibility:visible;display:inline;overflow:visible;enable-background:accumulate" />
      <path
         inkscape:connector-curvature="0"
         id="path1056"
         d="m 24.174077,1013.2639 c -5.145858,0 -9.507319,3.2887 -11.121567,7.8829 l 0.274983,0 c 1.800184,-4.215 5.973154,-7.1802 10.846584,-7.1802 6.402836,0 11.581276,5.0994 11.763196,11.4577 0.0037,-0.1215 0.03055,-0.2442 0.03055,-0.3666 C 35.967827,1018.54 30.692047,1013.2639 24.174077,1013.2639 z m -8.188407,8.5856 -2.505408,4.3386 -1.374919,2.4138 -1.527688,2.6276 c -0.7440354,-1.0303 -1.2750616,-1.7424 -1.7721174,-3.0859 -0.1752544,-0.8835 -0.252495,-1.8206 -0.2749838,-2.7499 -0.00285,0.1242 -0.030554,0.2418 -0.030554,0.3667 0,1.0474 0.1090539,2.0954 0.3055376,3.086 0.4970558,1.3434 1.028082,2.0555 1.7721176,3.0858 l 1.527688,-2.6276 1.374919,-2.4137 2.902607,-5.0414 L 15.98567,1021.8495 z m 23.770823,3.5748 c -0.194645,8.4703 -7.095737,15.2769 -15.61297,15.2769 l 0,0.7027 c 8.639677,0 15.643523,-7.004 15.643523,-15.6435 C 39.787046,1025.646 39.758938,1025.5381 39.756493,1025.4243 Z"
         style="color:#000000;fill:#ffffff;fill-opacity:0.15813958;fill-rule:nonzero;stroke:none;stroke-width:0.2;marker:none;visibility:visible;display:inline;overflow:visible;enable-background:accumulate" />
      <path
         inkscape:connector-curvature="0"
         id="path1090"
         d="m 24.143523,1009.4039 c -7.284333,0 -13.382763,4.9928 -15.1241091,11.7326 l 0.030554,0 c -0.066319,0.2562 -0.1909615,0.5029 -0.24443,0.7639 C 8.5971492,1022.9192 8.5,1023.9669 8.5,1025.0474 c 0,0.1541 0.025538,0.3054 0.030554,0.4583 0.026326,-0.918 0.096667,-1.8169 0.2749838,-2.6887 0.053469,-0.261 0.1781113,-0.5077 0.24443,-0.7638 l -0.030554,0 c 1.7413462,-6.7399 7.8397762,-11.7327 15.1241092,-11.7327 8.483833,0 15.366561,6.7612 15.61297,15.1852 0.0044,-0.1518 0.03055,-0.3054 0.03055,-0.4583 C 39.787037,1016.4079 32.7832,1009.4039 24.143523,1009.4039 z m -10.724368,11.7326 c -0.137102,0.3042 -0.255194,0.5995 -0.366645,0.9167 l 2.810945,0 0.519414,-0.9167 L 13.419155,1021.1365 z m 22.518118,4.3692 c -0.239622,6.3059 -5.398118,11.366 -11.763196,11.366 l 0,0.7944 -0.03055,0 0,0.9166 0.03055,0 0,-0.8249 c 6.51797,0 11.79375,-5.2761 11.79375,-11.7938 C 35.967827,1025.8072 35.943326,1025.661 35.937273,1025.5057 Z"
         style="color:#000000;fill:#000000;fill-opacity:0.27441861;fill-rule:nonzero;stroke:none;stroke-width:0.2;marker:none;visibility:visible;display:inline;overflow:visible;enable-background:accumulate" />
    </g>
    <path
       style="fill:#caced0;fill-opacity:1;stroke:none"
       d="M 3.7760416,1006.9903 C 2.7885376,1006.9903 2,1007.7789 2,1008.7664 l 0,30.4478 c 0,0.9875 0.7885376,1.7761 1.7760416,1.7761 l 40.4479164,0 c 0.987505,0 1.776042,-0.7886 1.776042,-1.7761 l 0,-30.4478 C 46,1007.7789 45.211463,1006.9903 44.223958,1006.9903 z m 0.2291668,0.2292 39.9895836,0 c 0.977217,0 1.776042,0.7988 1.776042,1.7762 l 0,29.9894 c 0,0.9772 -0.798825,1.776 -1.776042,1.776 l -39.9895836,0 c -0.9772174,0 -1.7760418,-0.7988 -1.7760418,-1.776 l 0,-29.9896 C 2.2291666,1008.0183 3.027991,1007.2195 4.0052084,1007.2195 Z"
       id="rect1095"
       inkscape:connector-curvature="0"
       sodipodi:nodetypes="ssssssssssssssssss" />
    <path
       inkscape:connector-curvature="0"
       style="fill:#000000;fill-opacity:1;stroke:none"
       d="m -9.9999996e-8,1049.3622 0,1.0625 c 0,1.0773 0.860222899999996,1.9375 1.937500199999996,1.9375 l 44.1249999,0 c 1.077277,0 1.9375,-0.8602 1.9375,-1.9375 l 0,-1.0625 c 0,1.0773 -0.860223,1.9375 -1.9375,1.9375 l -44.1249999,0 C 0.8602228,1051.2997 -9.9999996e-8,1050.4395 -9.9999996e-8,1049.3622 Z"
       id="rect846" />
    <path
       inkscape:connector-curvature="0"
       style="fill:#000000;fill-opacity:0.39215686;stroke:none"
       d="m 1.9375001,1004.3622 c -1.0772772,0 -1.937500199999996,0.8602 -1.937500199999996,1.9375 l 0,43.0625 c 0,0.7934 0.480023599999996,1.449 1.156249899999996,1.75 -0.3093416,-0.3333 -0.4999999,-0.7824 -0.4999999,-1.2812 l 0,-42.9375 c 0,-1.0482 0.8268989,-1.875 1.8750002,-1.875 l 42.9374999,0 c 1.048101,0 1.875,0.8268 1.875,1.875 l 0,42.9375 c 0,0.4988 -0.190658,0.9479 -0.5,1.2812 0.676226,-0.301 1.15625,-0.9566 1.15625,-1.75 l 0,-43.0625 c 0,-1.0773 -0.860223,-1.9375 -1.9375,-1.9375 L 1.9375001,1004.3622 Z"
       id="rect4280" />
    <path
       inkscape:connector-curvature="0"
       style="fill:#ffffff;fill-opacity:0.5372549;stroke:none"
       d="m 2.5312501,1005.0185 c -0.9170887,0 -1.671147,0.6395 -1.8437502,1.5 0.335612,-0.2799 0.7745121,-0.4375 1.2500002,-0.4375 l 44.1249999,0 c 0.475488,0 0.914388,0.1576 1.25,0.4375 -0.172603,-0.8605 -0.926662,-1.5 -1.84375,-1.5 L 2.5312501,1005.0185 Z"
       id="path7515" />
  </g>
</svg>
