<?xml version="1.0" encoding="UTF-8" standalone="no"?>
<!-- Created with Inkscape (http://www.inkscape.org/) -->

<svg
   xmlns:dc="http://purl.org/dc/elements/1.1/"
   xmlns:cc="http://creativecommons.org/ns#"
   xmlns:rdf="http://www.w3.org/1999/02/22-rdf-syntax-ns#"
   xmlns:svg="http://www.w3.org/2000/svg"
   xmlns="http://www.w3.org/2000/svg"
   xmlns:xlink="http://www.w3.org/1999/xlink"
   xmlns:sodipodi="http://sodipodi.sourceforge.net/DTD/sodipodi-0.dtd"
   xmlns:inkscape="http://www.inkscape.org/namespaces/inkscape"
   width="48"
   height="48"
   id="svg2"
   version="1.1"
   inkscape:version="0.48+devel r12123"
   sodipodi:docname="desura.svg">
  <defs
     id="defs4">
    <linearGradient
       id="linearGradient1409">
      <stop
         id="stop1411"
         offset="0"
         style="stop-color:#1378c1;stop-opacity:1" />
      <stop
         id="stop1413"
         offset="1"
         style="stop-color:#329feb;stop-opacity:1" />
    </linearGradient>
    <linearGradient
       inkscape:collect="always"
       xlink:href="#linearGradient1409"
       id="linearGradient1407"
       x1="85.247993"
       y1="-1051.4783"
       x2="85.247993"
       y2="-1003.7486"
       gradientUnits="userSpaceOnUse"
       gradientTransform="translate(-61.913469,-0.92552397)" />
  </defs>
  <sodipodi:namedview
     id="base"
     pagecolor="#ffffff"
     bordercolor="#666666"
     borderopacity="1.0"
     inkscape:pageopacity="0.0"
     inkscape:pageshadow="2"
     inkscape:zoom="4"
     inkscape:cx="-51.747035"
     inkscape:cy="7.1657081"
     inkscape:document-units="px"
     inkscape:current-layer="layer1"
     showgrid="false"
     inkscape:window-width="1366"
     inkscape:window-height="718"
     inkscape:window-x="0"
     inkscape:window-y="28"
     inkscape:window-maximized="1">
    <inkscape:grid
       type="xygrid"
       id="grid3850" />
  </sodipodi:namedview>
  <metadata
     id="metadata7">
    <rdf:RDF>
      <cc:Work
         rdf:about="">
        <dc:format>image/svg+xml</dc:format>
        <dc:type
           rdf:resource="http://purl.org/dc/dcmitype/StillImage" />
        <dc:title />
      </cc:Work>
    </rdf:RDF>
  </metadata>
  <g
     inkscape:label="Capa 1"
     inkscape:groupmode="layer"
     id="layer1"
     transform="translate(0,-1004.3622)">
    <rect
       style="fill:url(#linearGradient1407);fill-opacity:1;stroke:none"
       id="rect2991-1"
       width="48"
       height="48"
       x="-1.2963867e-06"
       y="-1052.3622"
       ry="1.9445436"
       transform="scale(1,-1)" />
    <path
       inkscape:connector-curvature="0"
       style="fill:#000000;fill-opacity:1;stroke:none"
       d="m 3.2963867e-6,1049.3622 0,1.0625 c 0,1.0773 0.8602000036133,1.9375 1.9375000036133,1.9375 l 44.1249977,0 c 1.0773,0 1.9375,-0.8602 1.9375,-1.9375 l 0,-1.0625 c 0,1.0773 -0.8602,1.9375 -1.9375,1.9375 l -44.1249977,0 C 0.8602033,1051.2997 3.2963867e-6,1050.4395 3.2963867e-6,1049.3622 Z"
       id="rect846" />
    <path
       inkscape:connector-curvature="0"
       style="fill:#ffffff;fill-opacity:0.5372549;stroke:none"
       d="m 2.5312033,1005.0185 c -0.917,0 -1.6711,0.6395 -1.8437,1.5 0.3356,-0.2799 0.7745,-0.4375 1.25,-0.4375 l 44.1249977,0 c 0.4755,0 0.9144,0.1576 1.25,0.4375 -0.1726,-0.8605 -0.9267,-1.5 -1.8437,-1.5 L 2.5312033,1005.0185 Z"
       id="path7515" />
    <path
       inkscape:connector-curvature="0"
       style="fill:#000000;fill-opacity:0.39215686;stroke:none"
       d="m 1.9375033,1004.3622 c -1.0773,0 -1.9375000036133,0.8602 -1.9375000036133,1.9375 l 0,43.0625 c 0,0.7934 0.4800000036133,1.449 1.1562000036133,1.75 -0.3093,-0.3333 -0.5,-0.7824 -0.5,-1.2812 l 0,-42.9375 c 0,-1.0482 0.8269,-1.875 1.875,-1.875 l 42.9375977,0 c 1.0481,0 1.875,0.8268 1.875,1.875 l 0,42.9375 c 0,0.4988 -0.1907,0.9479 -0.5,1.2812 0.6762,-0.301 1.1562,-0.9566 1.1562,-1.75 l 0,-43.0625 c 0,-1.0773 -0.8602,-1.9375 -1.9375,-1.9375 L 1.9375033,1004.3622 Z"
       id="rect4280-7" />
    <rect
       style="fill:none;stroke:none"
       id="rect1526"
       width="48"
       height="48"
       x="-1.2963867e-06"
       y="1004.3622"
       ry="0" />
    <path
       style="fill:#ffffff;fill-opacity:1;display:inline"
       id="path3033"
       inkscape:connector-curvature="0"
       d="m 24.022706,1012.3636 c -0.0363,-0.017 -1.725396,1.4029 -3.758233,3.1696 -2.944342,2.5586 -3.751565,3.2155 -3.939355,3.2151 -0.129639,-2e-4 -2.217535,-0.1964 -4.663833,-0.453 -2.4462958,-0.2566 -4.4631074,-0.4497 -4.4827137,-0.4301 -0.038552,0.039 -3.4173154,11.2119 -3.4639135,11.4559 -0.020004,0.1047 1.3325564,1.3043 4.6411941,4.1203 l 4.6638331,3.962 1.675354,0 c 0.918076,0 1.837231,-0.038 2.060237,-0.065 l 0.407519,-0.044 -4.912868,-4.0751 c -2.7038691,-2.2364 -4.9101942,-4.1194 -4.9128753,-4.1885 -0.00276,-0.067 0.456851,-1.5172 1.0188002,-3.2375 0.5619505,-1.7202 1.1213645,-3.5029 1.2678365,-3.9619 0.264313,-0.8283 0.2712528,-0.8409 0.5433596,-0.8377 0.15081,0 1.941744,0.202 3.961994,0.4528 l 3.667675,0.4529 2.875275,-2.4677 c 1.581438,-1.3663 2.978085,-2.5808 3.101677,-2.6944 l 0.226396,-0.2037 2.264,1.9469 c 1.241747,1.0745 2.630863,2.2892 3.101673,2.6944 l 0.860321,0.7245 3.916715,-0.4756 c 2.157005,-0.2664 3.925486,-0.4786 3.939353,-0.4528 0.0442,0.081 2.626236,8.0286 2.626236,8.0826 0,0.029 -2.222084,1.8923 -4.935514,4.143 l -4.935515,4.0978 0.430165,0.044 c 0.229909,0.029 1.154716,0.063 2.060232,0.065 l 1.65272,0.021 4.641193,-3.9626 c 2.554921,-2.1712 4.650834,-3.9763 4.663833,-4.0296 0.01949,-0.08 -3.379971,-11.5302 -3.441278,-11.5914 -0.01046,-0.017 -2.036113,0.1936 -4.505349,0.4527 -2.469236,0.2585 -4.582606,0.4662 -4.709111,0.4527 -0.162023,-0.018 -1.324861,-0.9614 -3.894076,-3.1925 C 25.729524,1013.8129 24.058994,1012.3752 24.022706,1012.3626 z m -0.04527,6.9052 -2.082875,2.1056 -2.060236,2.1282 0,1.834 c -0.0063,2.8806 0.325196,5.3256 0.996156,7.4029 0.616853,1.9102 1.336239,3.1918 2.422477,4.2791 0.364523,0.3647 0.682654,0.6564 0.724478,0.6564 0.168227,0 1.040298,-0.8592 1.49424,-1.4712 0.675195,-0.9108 1.241981,-2.0297 1.675357,-3.3509 0.70331,-2.1449 0.978546,-4.0148 1.041439,-7.1089 l 0.04527,-2.2414 -2.128157,-2.1282 L 23.977427,1019.2688 z m 12.768945,4.3016 c -0.02129,-0.021 -1.231434,0.1036 -2.694158,0.2718 -1.462722,0.1668 -2.712748,0.3168 -2.762075,0.3168 -0.05787,0 -0.09053,0.3938 -0.09053,1.1095 0,3.7705 -1.356695,8.3152 -3.373355,11.3199 -0.467187,0.6961 -0.512569,0.8274 -0.316959,0.7019 1.306126,-0.8392 10.611356,-8.711 10.572865,-8.9428 C 38.039879,1028.0927 36.786195,1023.6105 36.746355,1023.5704 z m -25.492604,0.044 c -0.03507,0.038 -0.34333,1.149 -0.701839,2.4673 l -0.656558,2.3775 0.2264,0.2265 c 2.185281,1.9133 8.1823,6.9357 9.599345,8.0372 0.491653,0.3818 0.914291,0.6702 0.928239,0.6562 0.01399,-0.017 -0.213115,-0.3926 -0.520721,-0.8603 -1.97527,-3.001 -3.159916,-6.94 -3.350715,-11.1388 -0.03097,-0.6805 -0.08541,-1.2223 -0.113193,-1.2223 -0.02776,0 -1.23893,-0.1508 -2.694155,-0.3173 C 12.515334,1023.6743 11.28885,1023.5772 11.253767,1023.615 z m 7.856069,15.4401 -4.935512,0.021 4.912873,2.5128 c 2.692675,1.3744 4.910207,2.4768 4.935511,2.4677 0.0253,-0.017 2.246507,-1.1248 4.935513,-2.4904 l 4.890233,-2.4901 -4.912873,-0.021 C 26.233034,1039.0401 21.814275,1039.0401 19.109825,1039.0555 Z" />
    <path
       style="fill:#000000;fill-opacity:0.22707424;display:inline"
       d="m 24.03095,1012.3624 c -0.0363,-0.017 -1.743106,1.3902 -3.775943,3.1569 -2.944343,2.5587 -3.742905,3.2193 -3.930695,3.2189 -0.129639,-2e-4 -2.227206,-0.1767 -4.673504,-0.4333 -2.4462954,-0.2566 -4.4372445,-0.4529 -4.4568508,-0.4333 -0.038552,0.039 -3.4198416,11.2076 -3.4664397,11.4516 -0.00176,0.01 0.072988,0.066 0.092851,0.093 0.2157259,-0.7962 3.3360781,-11.1046 3.3735887,-11.1422 0.019606,-0.02 2.0105554,0.1458 4.4568508,0.4024 2.446298,0.2566 4.543865,0.464 4.673504,0.4642 0.18779,4e-4 0.986352,-0.6602 3.930695,-3.2188 2.032837,-1.7667 3.739645,-3.1738 3.775943,-3.1569 0.03629,0.013 1.707903,1.4472 3.714043,3.1878 2.569215,2.2311 3.737722,3.1701 3.899745,3.1879 0.126505,0.014 2.235218,-0.2057 4.704453,-0.4642 2.469237,-0.2591 4.477343,-0.4502 4.487802,-0.4333 0.05966,0.06 3.187876,10.6103 3.342638,11.2659 0.0016,0 0.09262,-0.061 0.09285,-0.062 0.01949,-0.08 -3.374183,-11.5452 -3.435489,-11.6064 -0.01046,-0.017 -2.018565,0.2052 -4.487802,0.4643 -2.469235,0.2585 -4.577948,0.4467 -4.704453,0.4333 -0.162023,-0.018 -1.33053,-0.9568 -3.899745,-3.1879 C 25.738853,1013.8096 24.067238,1012.375 24.03095,1012.3624 z m -0.0619,6.9019 -2.073674,2.1047 -2.073674,2.1355 0,0.4024 2.073674,-2.1356 2.073674,-2.1046 2.135574,2.1046 2.135574,2.1356 0,-0.4024 -2.135574,-2.1355 L 23.96905,1019.2643 z m 12.782496,4.3021 c -0.02129,-0.021 -1.229956,0.1104 -2.692681,0.2786 -1.462721,0.1669 -2.705254,0.3095 -2.754581,0.3095 -0.04287,0 -0.08068,0.278 -0.09285,0.6809 0.0154,-0.1879 0.06392,-0.2786 0.09285,-0.2786 0.04933,0 1.29186,-0.1426 2.754581,-0.3095 1.462725,-0.1681 2.671387,-0.2993 2.692681,-0.2785 0.03724,0.038 1.060308,3.7373 1.238014,4.4568 0.01294,-0.018 0.09392,-0.086 0.09285,-0.093 C 38.040128,1028.078 36.791385,1023.6065 36.751546,1023.5664 z m -25.503092,0.062 c -0.03507,0.038 -0.353349,1.1269 -0.711859,2.4451 l -0.6499569,2.3832 0.092851,0.093 0.5571059,-2.0736 c 0.35851,-1.3183 0.676788,-2.4384 0.711859,-2.4761 0.03508,-0.038 1.268387,0.082 2.723631,0.2476 1.455224,0.1665 2.66492,0.3095 2.692681,0.3095 0.02778,0 0.09283,0.5266 0.123801,1.2071 0.190799,4.1989 1.367368,8.1411 3.342638,11.1421 0.05476,0.083 0.0441,0.079 0.09285,0.1548 0.151737,0.1052 0.426752,0.3161 0.433305,0.3095 0.01398,-0.017 -0.218551,-0.3989 -0.526157,-0.8666 -1.97527,-3.0011 -3.151839,-6.9123 -3.342638,-11.1112 -0.03097,-0.6805 -0.09602,-1.238 -0.123801,-1.238 -0.02776,0 -1.237457,-0.143 -2.692681,-0.3095 C 12.516841,1023.6793 11.283536,1023.5906 11.248454,1023.6283 z m 19.962979,1.6404 c 0,0.4713 -0.02087,0.9637 -0.0619,1.4547 0.02264,-0.36 0.0619,-0.7037 0.0619,-1.0523 C 31.211433,1025.4988 31.20775,1025.4027 31.211433,1025.2687 z m -0.0619,1.4547 c -0.287251,3.4369 -1.547111,7.244 -3.311688,9.8731 -0.467187,0.6962 -0.536063,0.8064 -0.340454,0.6809 0.04943,-0.032 0.176201,-0.1346 0.247603,-0.1857 0.03711,-0.056 0.04819,-0.057 0.09285,-0.1238 C 29.668058,1034.241 30.927269,1030.2572 31.149532,1026.7234 z m -23.7079719,2.4141 c -0.00651,0.026 -0.093091,0.2727 -0.092851,0.2786 0.00268,0.069 2.186287,1.9729 4.8901559,4.2092 l 4.518752,3.714 0.402354,-0.031 -4.921106,-4.0855 C 9.6279259,1031.0635 7.5884721,1029.3229 7.4415601,1029.1375 z m 33.1787799,0 c -0.08748,0.1004 -2.200721,1.8494 -4.859205,4.0545 l -4.921107,4.1164 0.402355,0.031 0.03095,0 4.487802,-3.745 c 2.71343,-2.2507 4.952057,-4.1186 4.952057,-4.1473 C 40.713192,1029.4449 40.627526,1029.1615 40.62034,1029.1375 z m -21.510496,9.9041 -4.921107,0.031 0.773759,0.4023 4.147348,-0.031 c 2.70445,-0.015 7.108707,-0.014 9.811262,0 l 4.147348,0.031 0.773759,-0.4023 -4.921107,-0.031 C 26.218551,1039.0276 21.814294,1039.0263 19.109844,1039.0416 Z"
       id="path1415"
       inkscape:connector-curvature="0" />
    <path
       style="fill:#000000;fill-opacity:0.07860263;display:inline"
       d="m 24.03095,1012.7338 c -0.0363,-0.017 -1.743106,1.3903 -3.775943,3.1569 -2.944343,2.5587 -3.742905,3.2193 -3.930695,3.2189 -0.129639,-2e-4 -2.227206,-0.1767 -4.673504,-0.4333 -2.4462954,-0.2566 -4.4372445,-0.4529 -4.4568508,-0.4333 -0.037606,0.038 -3.1724605,10.4251 -3.3735887,11.1731 0.019863,0.026 0.050573,0.048 0.092851,0.093 0.3493466,-1.2314 3.2441727,-10.827 3.2807376,-10.8636 0.019606,-0.02 2.0105554,0.1458 4.4568509,0.4024 2.446298,0.2566 4.543865,0.464 4.673504,0.4642 0.18779,4e-4 0.986352,-0.6602 3.930695,-3.2188 2.032837,-1.7667 3.739645,-3.1738 3.775943,-3.1569 0.03629,0.013 1.707903,1.4472 3.714043,3.1879 2.569215,2.2311 3.737722,3.17 3.899745,3.1878 0.126505,0.014 2.235218,-0.2057 4.704453,-0.4642 2.469237,-0.2591 4.477343,-0.4502 4.487802,-0.4333 0.05823,0.058 2.962417,9.894 3.249787,10.9874 0.0037,0 0.09099,-0.09 0.09285,-0.093 -0.153433,-0.6529 -3.282966,-11.2373 -3.342638,-11.2969 -0.01046,-0.017 -2.018565,0.2052 -4.487802,0.4643 -2.469235,0.2585 -4.577948,0.4468 -4.704453,0.4333 -0.162023,-0.018 -1.33053,-0.9568 -3.899745,-3.1879 C 25.738853,1014.1803 24.067238,1012.7464 24.03095,1012.7338 z m -0.0619,6.9019 -2.073674,2.1047 -2.073674,2.1355 0,0.4024 2.073674,-2.1356 2.073674,-2.1046 2.135574,2.1046 2.104624,2.1046 0.03095,-0.3714 -2.135574,-2.1355 L 23.96905,1019.6357 z m 12.782496,4.3021 c -0.02129,-0.021 -1.229956,0.1104 -2.692681,0.2786 -1.462721,0.1669 -2.705254,0.3095 -2.754581,0.3095 -0.04287,0 -0.08068,0.278 -0.09285,0.6809 0.0154,-0.1879 0.06391,-0.2786 0.09285,-0.2786 0.04932,0 1.29186,-0.1426 2.754581,-0.3095 1.462725,-0.1681 2.671387,-0.2993 2.692681,-0.2785 0.03488,0.035 0.885226,3.1754 1.145163,4.1783 0.02621,-0.029 0.07991,-0.075 0.09285,-0.093 C 37.823244,1027.7446 36.789024,1023.9756 36.751546,1023.9378 z m -25.503092,0.062 c -0.03507,0.038 -0.353349,1.1269 -0.711859,2.4451 l -0.5571058,2.0737 0.092851,0.093 0.464255,-1.7641 c 0.35851,-1.3183 0.676788,-2.4384 0.711859,-2.4761 0.03508,-0.038 1.268387,0.082 2.723631,0.2476 1.455224,0.1665 2.66492,0.3095 2.692681,0.3095 0.02778,0 0.09283,0.5266 0.123801,1.2071 0.181407,3.9922 1.261247,7.738 3.064085,10.6779 0.201416,0.1521 0.271295,0.1887 0.402355,0.2785 -0.06404,-0.1005 -0.04812,-0.1015 -0.123802,-0.2166 -1.782728,-2.7085 -2.905746,-6.1705 -3.249787,-9.9041 -0.0033,-0.031 0.0032,-0.062 0,-0.093 -0.03302,-0.3729 -0.07567,-0.7362 -0.09285,-1.1142 -0.01548,-0.3402 -0.03829,-0.6422 -0.0619,-0.8666 -0.02361,-0.2244 -0.04801,-0.3714 -0.0619,-0.3714 -0.02776,0 -1.237457,-0.143 -2.692681,-0.3095 C 12.516841,1024.0509 11.283536,1023.962 11.248454,1023.9997 z m 19.962979,1.6404 c -0.008,0.3556 -0.03132,0.7174 -0.0619,1.0833 -0.0078,0.1249 0.01046,0.2462 0,0.3714 0.02264,-0.36 0.0619,-0.7038 0.0619,-1.0523 C 31.211433,1025.8706 31.20775,1025.7741 31.211433,1025.6401 z m -0.0619,1.4547 c -0.287251,3.4368 -1.547111,7.244 -3.311688,9.8731 -0.04621,0.069 -0.05431,0.066 -0.09285,0.1238 0.112943,-0.081 0.240505,-0.1544 0.402354,-0.2785 C 29.80061,1034.1146 30.940693,1030.4151 31.149532,1027.0948 z m -23.7079719,2.4141 c -0.00652,0.026 -0.093092,0.2727 -0.092851,0.2786 0.00268,0.069 2.186287,1.9729 4.8901559,4.2092 l 4.085447,3.3426 c 0.100895,-0.01 0.386748,0.01 0.433305,0 l -4.518752,-3.745 C 9.6279259,1031.4352 7.5884721,1029.6942 7.4415601,1029.5089 z m 33.1787799,0 c -0.08747,0.1003 -2.200721,1.8493 -4.859205,4.0545 l -4.487802,3.7759 c 0.04873,0.01 0.328959,-0.01 0.433305,0 l 4.054497,-3.3735 c 2.71343,-2.2508 4.952057,-4.1187 4.952057,-4.1474 C 40.713192,1029.817 40.627526,1029.5329 40.62034,1029.5089 z m -21.510496,9.9041 -4.209248,0.031 0.773758,0.4023 3.43549,-0.031 c 2.70445,-0.015 7.108707,-0.014 9.811262,0 l 3.43549,0.031 0.773759,-0.4023 -4.209249,-0.031 C 26.218551,1039.3995 21.814294,1039.3977 19.109844,1039.413 Z"
       id="path1420"
       inkscape:connector-curvature="0" />
    <path
       style="fill:#000000;fill-opacity:0.04366814;display:inline"
       d="m 24.03095,1013.1362 c -0.0363,-0.017 -1.743106,1.3902 -3.775943,3.1569 -2.944343,2.5586 -3.742905,3.2192 -3.930695,3.2188 -0.129639,-2e-4 -2.227206,-0.1767 -4.673504,-0.4333 -2.4462954,-0.2566 -4.4372445,-0.4529 -4.4568508,-0.4333 -0.036565,0.037 -2.9273532,9.6196 -3.2807376,10.8636 0.040358,0.043 0.031361,0.064 0.092851,0.1238 0.4685462,-1.6192 3.1522673,-10.5494 3.1878865,-10.585 0.019606,-0.02 2.0105554,0.1457 4.4568509,0.4023 2.446298,0.2567 4.543865,0.4641 4.673504,0.4643 0.18779,4e-4 0.986352,-0.6602 3.930695,-3.2188 2.032837,-1.7667 3.739645,-3.1738 3.775943,-3.157 0.03629,0.013 1.707903,1.4473 3.714043,3.1879 2.569215,2.2311 3.737722,3.1701 3.899745,3.1879 0.126505,0.014 2.235218,-0.2058 4.704453,-0.4643 2.469237,-0.2591 4.477343,-0.4501 4.487802,-0.4333 0.05664,0.056 2.73901,9.1543 3.156936,10.6779 0.0055,-0.01 0.08913,-0.089 0.09285,-0.093 -0.307846,-1.1636 -3.191748,-10.9295 -3.249787,-10.9874 -0.01046,-0.017 -2.018565,0.2051 -4.487802,0.4642 -2.469235,0.2585 -4.577948,0.4468 -4.704453,0.4333 -0.162023,-0.018 -1.33053,-0.9567 -3.899745,-3.1878 C 25.738853,1014.5826 24.067238,1013.1487 24.03095,1013.1362 z m -0.0619,6.9019 -2.073674,2.1046 -2.073674,2.1356 0,0.4023 2.073674,-2.1355 2.073674,-2.1047 2.135574,2.1047 2.104624,2.1046 0,-0.4024 -2.104624,-2.1046 L 23.96905,1020.0381 z m 12.782496,4.3021 c -0.02129,-0.021 -1.229956,0.1104 -2.692681,0.2785 -1.462721,0.1669 -2.705254,0.3095 -2.754581,0.3095 -0.04287,0 -0.08068,0.2781 -0.09285,0.681 0.0154,-0.1879 0.06391,-0.2786 0.09285,-0.2786 0.04932,0 1.29186,-0.1426 2.754581,-0.3095 1.462725,-0.1682 2.671387,-0.2994 2.692681,-0.2786 0.03234,0.033 0.763369,2.663 1.083263,3.8688 0.03678,-0.037 0.06872,-0.066 0.09285,-0.093 C 37.662518,1027.5008 36.786491,1024.3754 36.751546,1024.3402 z m -25.503092,0.062 c -0.03507,0.038 -0.353349,1.1268 -0.711859,2.4451 l -0.464255,1.7641 0.0619,0.062 c 0.0038,0 0.02707,0 0.03095,0 l 0.371404,-1.4237 c 0.35851,-1.3182 0.676788,-2.4384 0.711859,-2.476 0.03508,-0.038 1.268387,0.082 2.723631,0.2476 1.455224,0.1665 2.66492,0.3095 2.692681,0.3095 0.02778,0 0.09283,0.5266 0.123801,1.2071 0.165756,3.6477 1.068755,7.0925 2.59983,9.9041 0.06579,0.052 0.28717,0.2371 0.340454,0.2785 0.06709,0.052 0.06014,0.045 0.123801,0.093 -1.802838,-2.9371 -2.882678,-6.6548 -3.064085,-10.6469 -0.03097,-0.6805 -0.09602,-1.2381 -0.123801,-1.2381 -0.02776,0 -1.237457,-0.143 -2.692681,-0.3095 C 12.516841,1024.4532 11.283536,1024.3644 11.248454,1024.4021 z m 19.962979,1.6404 c 0,0.4713 -0.02087,0.9636 -0.0619,1.4546 0.02264,-0.36 0.0619,-0.7038 0.0619,-1.0523 C 31.211433,1026.273 31.20775,1026.1765 31.211433,1026.0425 z m -0.0619,1.4546 c -0.267061,3.1953 -1.367848,6.6939 -2.940284,9.2851 0.114012,-0.088 0.238245,-0.1735 0.371404,-0.2785 C 30.003924,1033.8875 30.958818,1030.5293 31.149532,1027.4971 z m -23.7079719,2.4142 c -0.00652,0.026 -0.093092,0.2727 -0.092851,0.2785 0.00268,0.069 2.186287,1.9729 4.8901559,4.2093 l 3.621192,2.9712 c 0.145418,-0.01 0.328791,-0.025 0.433304,-0.031 l -4.054496,-3.3426 C 9.6279259,1031.8375 7.5884721,1030.0966 7.4415601,1029.9113 z m 33.1787799,0 c -0.08747,0.1003 -2.200721,1.8493 -4.859205,4.0545 l -4.054497,3.3735 c 0.112026,0.01 0.304368,0.025 0.464256,0.031 l 3.590241,-3.0022 c 2.71343,-2.2507 4.952057,-4.1186 4.952057,-4.1473 C 40.713192,1030.2194 40.627526,1029.9352 40.62034,1029.9113 z m -21.510496,9.9041 -3.43549,0.031 0.773759,0.4024 2.661731,-0.031 c 2.70445,-0.015 7.108707,-0.014 9.811262,0 l 2.661731,0.031 0.773759,-0.4024 -3.43549,-0.031 C 26.218551,1039.8019 21.814294,1039.8 19.109844,1039.8154 Z"
       id="path1422"
       inkscape:connector-curvature="0" />
    <path
       style="fill:#ffffff;fill-opacity:0.47598255;display:inline"
       d="m 24,1016.5376 -0.216653,0.1857 c -0.123592,0.1135 -1.544547,1.3264 -3.125985,2.6927 l -2.847433,2.476 -3.683092,-0.4333 c -2.02025,-0.2507 -3.810836,-0.4643 -3.961646,-0.4643 -0.2721068,0 -0.2618427,0.01 -0.5261557,0.8357 -0.146472,0.459 -0.7070141,2.2415 -1.2689646,3.9617 -0.5619492,1.7203 -1.0241249,3.1824 -1.0213617,3.2497 6.14e-5,0 0.059546,0.058 0.061901,0.061 0.059569,-0.2479 0.4395397,-1.4104 0.959461,-3.0021 0.5619505,-1.7201 1.1224926,-3.5027 1.2689646,-3.9616 0.264313,-0.8284 0.2540489,-0.839 0.5261564,-0.8358 0.150809,0 1.941395,0.2136 3.961645,0.4643 l 3.683092,0.4334 2.847433,-2.4761 c 1.581438,-1.3662 3.002393,-2.5792 3.125985,-2.6927 L 24,1016.8467 l 2.259376,1.9499 c 1.241747,1.0745 2.624225,2.2875 3.095035,2.6926 l 0.86661,0.7119 3.930695,-0.4643 c 2.157005,-0.2664 3.916829,-0.4899 3.930695,-0.4642 0.04283,0.078 2.387135,7.3173 2.537929,7.8304 0.0013,0 0.09285,-0.061 0.09285,-0.061 0,-0.053 -2.586579,-7.9968 -2.630781,-8.078 -0.01387,-0.026 -1.77369,0.1978 -3.930695,0.4642 l -3.930695,0.4643 -0.86661,-0.7119 c -0.47081,-0.4051 -1.853288,-1.6181 -3.095035,-2.6926 L 24,1016.5376 z m -4.116397,10.8636 c 0.108232,2.1243 0.431227,3.9975 0.959461,5.633 0.616853,1.9102 1.327889,3.2147 2.414127,4.302 0.364523,0.3647 0.670034,0.65 0.711859,0.65 0.168226,0 1.062625,-0.8736 1.516567,-1.4856 0.675195,-0.9108 1.237943,-2.0214 1.671319,-3.3426 0.552917,-1.6863 0.799917,-3.2178 0.928511,-5.2926 -0.136911,1.9318 -0.401029,3.3743 -0.928511,4.9831 -0.433376,1.3212 -0.996124,2.4318 -1.671319,3.3426 -0.453942,0.612 -1.348341,1.4856 -1.516567,1.4856 -0.04183,0 -0.347336,-0.2853 -0.711859,-0.65 -1.086238,-1.0873 -1.797274,-2.3918 -2.414127,-4.302 C 20.339844,1031.1667 20.005624,1029.4014 19.883603,1027.4012 z m 18.136908,0.9904 c -0.287378,0.486 -8.686768,7.6023 -10.337419,8.7589 -0.256885,0.4032 -0.344769,0.5353 -0.185702,0.4333 1.306127,-0.8392 10.623513,-8.7128 10.585021,-8.9446 C 38.080231,1028.626 38.028797,1028.426 38.020511,1028.3916 z m -28.0719722,0.1238 -0.061901,0.2476 0.2476032,0.2166 c 2.18528,1.9133 8.177565,6.9457 9.59461,8.0471 0.491653,0.3818 0.914563,0.664 0.928511,0.65 0.0086,-0.01 -0.202888,-0.3047 -0.340454,-0.5262 -0.168623,-0.1125 -0.271287,-0.1873 -0.588057,-0.4333 -1.417045,-1.1014 -7.40933,-6.1338 -9.59461,-8.0471 L 9.9485388,1028.5154 z m -6.1591206,0.8975 c -0.0032,0.012 -0.061023,0.2121 -0.061901,0.2167 -0.020004,0.1047 1.3339155,1.3003 4.6425532,4.1164 l 4.6425536,3.9616 1.671319,0 c 0.918077,0 1.850668,-0.034 2.073674,-0.061 l 0.402354,-0.031 -0.340453,-0.2786 -0.0619,0 c -0.223006,0.028 -1.155597,0.061 -2.073674,0.061 l -1.671319,0 -4.6425536,-3.9616 C 5.3067286,1030.8292 3.9622963,1029.6628 3.7894182,1029.4129 z m 40.4211638,0.093 c -0.07085,0.1013 -2.062046,1.8212 -4.580653,3.9617 l -4.642553,3.9616 -1.671319,-0.031 c -0.905516,0 -1.812815,-0.034 -2.042724,-0.061 l -0.09285,0 -0.340454,0.2786 0.433305,0.031 c 0.229909,0.029 1.137208,0.06 2.042724,0.061 l 1.671319,0.031 4.642553,-3.9616 c 2.554921,-2.1713 4.629555,-3.9703 4.642553,-4.0236 C 44.272893,1029.7518 44.213143,1029.5173 44.210582,1029.5058 z m -30.021845,9.8731 4.890156,2.5071 c 2.692675,1.3744 4.926753,2.4851 4.952057,2.476 0.0253,-0.017 2.232101,-1.1104 4.921107,-2.476 l 4.890156,-2.5071 -0.588057,0 -4.302099,2.1974 c -2.689006,1.3655 -4.895802,2.4592 -4.921107,2.476 -0.0253,0.01 -2.259382,-1.1016 -4.952057,-2.476 L 14.776794,1039.3789 14.188737,1039.3789 Z"
       id="path1430"
       inkscape:connector-curvature="0" />
  </g>
</svg>
