<?xml version="1.0" encoding="UTF-8" standalone="no"?>
<!-- Created with Inkscape (http://www.inkscape.org/) -->

<svg
   xmlns:dc="http://purl.org/dc/elements/1.1/"
   xmlns:cc="http://creativecommons.org/ns#"
   xmlns:rdf="http://www.w3.org/1999/02/22-rdf-syntax-ns#"
   xmlns:svg="http://www.w3.org/2000/svg"
   xmlns="http://www.w3.org/2000/svg"
   xmlns:xlink="http://www.w3.org/1999/xlink"
   xmlns:sodipodi="http://sodipodi.sourceforge.net/DTD/sodipodi-0.dtd"
   xmlns:inkscape="http://www.inkscape.org/namespaces/inkscape"
   width="48"
   height="48"
   id="svg2"
   version="1.1"
   inkscape:version="0.48+devel r12068"
   sodipodi:docname="emerald-theme-manager-icon.svg">
  <defs
     id="defs4">
    <linearGradient
       id="linearGradient1414">
      <stop
         style="stop-color:#f2f2f2;stop-opacity:1"
         offset="0"
         id="stop1416" />
      <stop
         id="stop1418"
         offset="1"
         style="stop-color:#ffffff;stop-opacity:1" />
    </linearGradient>
    <linearGradient
       id="linearGradient1400">
      <stop
         id="stop1402"
         offset="0"
         style="stop-color:#7bd46d;stop-opacity:1" />
      <stop
         style="stop-color:#529c38;stop-opacity:1"
         offset="1"
         id="stop1404" />
    </linearGradient>
    <linearGradient
       inkscape:collect="always"
       xlink:href="#linearGradient1414"
       id="linearGradient1398"
       x1="76.279137"
       y1="-1044.454"
       x2="76.279137"
       y2="-996.32404"
       gradientUnits="userSpaceOnUse"
       gradientTransform="translate(-52.721087,-8.350115)" />
    <radialGradient
       inkscape:collect="always"
       xlink:href="#linearGradient1400"
       id="radialGradient1441"
       cx="24.298065"
       cy="1016.8723"
       fx="24.298065"
       fy="1016.8723"
       r="18.307276"
       gradientTransform="matrix(0.99967198,0,0,0.87368277,-0.29009592,130.1222)"
       gradientUnits="userSpaceOnUse" />
  </defs>
  <sodipodi:namedview
     id="base"
     pagecolor="#ffffff"
     bordercolor="#666666"
     borderopacity="1.0"
     inkscape:pageopacity="0.0"
     inkscape:pageshadow="2"
     inkscape:zoom="3.9627443"
     inkscape:cx="4.1029473"
     inkscape:cy="43.533887"
     inkscape:document-units="px"
     inkscape:current-layer="layer1"
     showgrid="false"
     inkscape:window-width="1366"
     inkscape:window-height="718"
     inkscape:window-x="0"
     inkscape:window-y="28"
     inkscape:window-maximized="1">
    <inkscape:grid
       type="xygrid"
       id="grid3043" />
  </sodipodi:namedview>
  <metadata
     id="metadata7">
    <rdf:RDF>
      <cc:Work
         rdf:about="">
        <dc:format>image/svg+xml</dc:format>
        <dc:type
           rdf:resource="http://purl.org/dc/dcmitype/StillImage" />
        <dc:title />
      </cc:Work>
    </rdf:RDF>
  </metadata>
  <g
     inkscape:label="Capa 1"
     inkscape:groupmode="layer"
     id="layer1"
     transform="translate(0,-1004.3622)">
    <rect
       style="fill:url(#linearGradient1398);fill-opacity:1;stroke:none"
       id="rect2991-1"
       width="48"
       height="48"
       x="-2.7026367e-06"
       y="-1052.3622"
       ry="1.9445436"
       transform="scale(1,-1)" />
    <path
       inkscape:connector-curvature="0"
       style="fill:#000000;fill-opacity:1;stroke:none"
       d="m -2.2973633e-6,1049.3622 0,1.0625 c 0,1.0773 0.8602229973633,1.9375 1.9374999973633,1.9375 l 44.1250003,0 c 1.077277,0 1.937505,-0.8602 1.937505,-1.9375 l 0,-1.0625 c 0,1.0773 -0.860228,1.9375 -1.937505,1.9375 l -44.1250003,0 C 0.8602207,1051.2997 -2.2973633e-6,1050.4395 -2.2973633e-6,1049.3622 Z"
       id="rect846" />
    <path
       inkscape:connector-curvature="0"
       style="fill:#ffffff;fill-opacity:0.5372549;stroke:none"
       d="m 2.5312477,1005.0185 c -0.917088,0 -1.671147,0.6395 -1.84375,1.5 0.335612,-0.2799 0.774512,-0.4375 1.25,-0.4375 l 44.1250003,0 c 0.475488,0 0.914388,0.1576 1.250005,0.4375 -0.172608,-0.8605 -0.926667,-1.5 -1.843755,-1.5 L 2.5312477,1005.0185 Z"
       id="path7515" />
    <path
       inkscape:connector-curvature="0"
       style="fill:#000000;fill-opacity:0.39215686;stroke:none"
       d="m 1.9374977,1004.3622 c -1.077277,0 -1.9374999973633,0.8602 -1.9374999973633,1.9375 l 0,43.0625 c 0,0.7934 0.4800239973633,1.449 1.1562499973633,1.75 -0.309342,-0.3333 -0.5,-0.7824 -0.5,-1.2812 l 0,-42.9375 c 0,-1.0482 0.826899,-1.875 1.875,-1.875 l 42.9375003,0 c 1.048101,0 1.875005,0.8268 1.875005,1.875 l 0,42.9375 c 0,0.4988 -0.190663,0.9479 -0.500005,1.2812 0.676225,-0.301 1.156255,-0.9566 1.156255,-1.75 l 0,-43.0625 c 0,-1.0773 -0.860228,-1.9375 -1.937505,-1.9375 L 1.9374977,1004.3622 Z"
       id="rect4280-0" />
    <g
       id="g1443">
      <path
         d="m 10.922217,1012.3622 -5.223488,8.4642 10.466038,0 L 10.922217,1012.3622 z m 1.315404,0 5.223485,8.4642 5.223491,-8.4642 L 12.237621,1012.3622 z m 11.762378,0 -5.223489,8.4642 10.446978,0 L 23.999999,1012.3622 z m 1.315404,0 5.223489,8.4642 5.223484,-8.4642 L 25.315402,1012.3622 z m 11.762377,0 -5.242549,8.4642 10.46604,0 L 37.07778,1012.3622 z m -31.379051,9.7609 17.290888,22.2286 L 16.81294,1022.1231 5.698729,1022.1231 z m 12.410549,0 5.890721,22.2286 5.890721,-22.2286 L 18.109278,1022.1231 z m 13.077782,0 -6.176681,22.2286 17.290892,-22.2286 L 31.187058,1022.1231 Z"
         inkscape:connector-curvature="0"
         id="path2990"
         style="fill:url(#radialGradient1441);fill-opacity:1;fill-rule:nonzero;stroke:none;display:inline" />
      <path
         inkscape:connector-curvature="0"
         id="path1431"
         d="m 12.237044,1012.3727 5.217038,8.466 5.217038,-8.466 -0.562316,0 -4.654722,7.56 -4.654723,-7.56 L 12.237044,1012.3727 z m 13.089455,0 5.217038,8.466 5.217038,-8.466 -0.562316,0 -4.654722,7.56 -4.654723,-7.56 L 25.326499,1012.3727 z m -19.0562475,7.56 -0.5623155,0.906 10.465316,0 -0.562315,-0.906 L 6.2702515,1019.9327 z m 13.0582155,0 -0.562316,0.906 10.465316,0 -0.562315,-0.906 L 19.328467,1019.9327 z m 13.058215,0 -0.562315,0.906 10.465316,0 -0.562316,-0.906 L 32.386682,1019.9327 z m -26.678746,2.1868 17.275581,22.2427 -0.406116,-1.4058 L 6.3952105,1022.1195 5.707936,1022.1195 z m 12.402181,0 5.904312,22.2427 5.873073,-22.2427 -0.218678,0 -5.654395,21.3367 -5.685634,-21.3367 L 18.110117,1022.1195 z m 23.492291,0 -16.18219,20.8369 -0.406117,1.4058 17.275582,-22.2427 L 41.602408,1022.1195 Z"
         style="fill:#000000;fill-opacity:0.14705882;fill-rule:nonzero;stroke:none;display:inline" />
      <path
         inkscape:connector-curvature="0"
         id="path1436"
         d="m 10.924974,1012.3727 -5.217038,8.466 0.2811577,0 4.9358803,-8.0286 4.96712,8.0286 0.281158,0 L 10.924974,1012.3727 z m 1.31207,0 0.281157,0.4374 9.871761,0 0.281158,-0.4374 L 12.237044,1012.3727 z m 11.777385,0 -5.248278,8.466 0.281158,0 4.96712,-8.0286 4.935881,8.0286 0.281157,0 L 24.014429,1012.3727 z m 1.31207,0 0.281157,0.4374 9.871761,0 0.281158,-0.4374 L 25.326499,1012.3727 z m 11.746145,0 -5.248277,8.466 0.281157,0 4.96712,-8.0286 4.935881,8.0286 0.281158,0 L 37.072644,1012.3727 z m -31.364708,9.7468 0.3436372,0.4374 10.7464738,0 5.998032,21.5554 0.187438,0.2499 -6.18547,-22.2427 L 5.707936,1022.1195 z m 12.402181,0 0.124959,0.4374 11.527467,0 0.124959,-0.4374 L 18.110117,1022.1195 z m 13.089455,0 -6.185471,22.2427 0.187439,-0.2499 5.998032,-21.5554 10.746473,0 0.343638,-0.4374 L 31.199572,1022.1195 Z"
         style="fill:#ffffff;fill-opacity:0.57058824;fill-rule:nonzero;stroke:none;display:inline" />
    </g>
  </g>
</svg>
