<?xml version="1.0" encoding="UTF-8" standalone="no"?>
<!-- Created with Inkscape (http://www.inkscape.org/) -->

<svg
   xmlns:dc="http://purl.org/dc/elements/1.1/"
   xmlns:cc="http://creativecommons.org/ns#"
   xmlns:rdf="http://www.w3.org/1999/02/22-rdf-syntax-ns#"
   xmlns:svg="http://www.w3.org/2000/svg"
   xmlns="http://www.w3.org/2000/svg"
   xmlns:xlink="http://www.w3.org/1999/xlink"
   xmlns:sodipodi="http://sodipodi.sourceforge.net/DTD/sodipodi-0.dtd"
   xmlns:inkscape="http://www.inkscape.org/namespaces/inkscape"
   width="48"
   height="48"
   id="svg2"
   version="1.1"
   inkscape:version="0.48+devel r12084"
   sodipodi:docname="emesene.svg">
  <defs
     id="defs4">
    <linearGradient
       inkscape:collect="always"
       id="linearGradient827">
      <stop
         style="stop-color:#ffffff;stop-opacity:1"
         offset="0"
         id="stop829" />
      <stop
         style="stop-color:#e6e6e6;stop-opacity:1"
         offset="1"
         id="stop831" />
    </linearGradient>
    <linearGradient
       id="linearGradient879">
      <stop
         id="stop881"
         offset="0"
         style="stop-color:#71c837;stop-opacity:1" />
      <stop
         id="stop883"
         offset="1"
         style="stop-color:#008000;stop-opacity:1" />
    </linearGradient>
    <linearGradient
       inkscape:collect="always"
       xlink:href="#linearGradient879"
       id="linearGradient835"
       x1="23.864853"
       y1="-1004.8509"
       x2="23.864853"
       y2="-1051.6967"
       gradientUnits="userSpaceOnUse" />
    <radialGradient
       inkscape:collect="always"
       xlink:href="#linearGradient827"
       id="radialGradient835"
       cx="25.851397"
       cy="1021.5694"
       fx="25.851397"
       fy="1021.5694"
       r="16.3125"
       gradientTransform="matrix(1.1611118,0,0,0.93948501,-4.1048993,62.241135)"
       gradientUnits="userSpaceOnUse" />
  </defs>
  <sodipodi:namedview
     id="base"
     pagecolor="#ffffff"
     bordercolor="#666666"
     borderopacity="1.0"
     inkscape:pageopacity="0.0"
     inkscape:pageshadow="2"
     inkscape:zoom="8.0000005"
     inkscape:cx="24.959132"
     inkscape:cy="26.547029"
     inkscape:document-units="px"
     inkscape:current-layer="layer1"
     showgrid="false"
     inkscape:window-width="1366"
     inkscape:window-height="718"
     inkscape:window-x="0"
     inkscape:window-y="28"
     inkscape:window-maximized="1">
    <inkscape:grid
       type="xygrid"
       id="grid3850"
       empspacing="5"
       visible="true"
       enabled="true"
       snapvisiblegridlinesonly="true" />
  </sodipodi:namedview>
  <metadata
     id="metadata7">
    <rdf:RDF>
      <cc:Work
         rdf:about="">
        <dc:format>image/svg+xml</dc:format>
        <dc:type
           rdf:resource="http://purl.org/dc/dcmitype/StillImage" />
        <dc:title />
      </cc:Work>
    </rdf:RDF>
  </metadata>
  <g
     inkscape:label="Capa 1"
     inkscape:groupmode="layer"
     id="layer1"
     transform="translate(0,-1004.3622)">
    <rect
       style="fill:url(#linearGradient835);fill-opacity:1;stroke:none"
       id="rect2991-1"
       width="48"
       height="48"
       x="2.5494384e-07"
       y="-1052.3622"
       ry="1.9445436"
       transform="scale(1,-1)" />
    <path
       inkscape:connector-curvature="0"
       style="fill:#000000;fill-opacity:1;stroke:none"
       d="m -2.5494385e-7,1049.3622 0,1.0625 c 0,1.0773 0.86022290494385,1.9375 1.93749945494385,1.9375 l 44.1250008,0 c 1.077277,0 1.9375,-0.8602 1.9375,-1.9375 l 0,-1.0625 c 0,1.0773 -0.860223,1.9375 -1.9375,1.9375 l -44.1250008,0 C 0.86022265,1051.2997 -2.5494385e-7,1050.4395 -2.5494385e-7,1049.3622 Z"
       id="rect846" />
    <path
       inkscape:connector-curvature="0"
       style="fill:#ffffff;fill-opacity:0.5372549;stroke:none"
       d="m 2.5312492,1005.0185 c -0.917088,0 -1.67114625,0.6395 -1.84374945,1.5 0.33561195,-0.2799 0.77451205,-0.4375 1.24999945,-0.4375 l 44.1250008,0 c 0.475488,0 0.914388,0.1576 1.25,0.4375 -0.172603,-0.8605 -0.926662,-1.5 -1.84375,-1.5 L 2.5312492,1005.0185 Z"
       id="path7515" />
    <path
       inkscape:connector-curvature="0"
       style="fill:#000000;fill-opacity:0.39215686;stroke:none"
       d="m 1.9374992,1004.3622 c -1.07727645,0 -1.93749945494385,0.8602 -1.93749945494385,1.9375 l 0,43.0625 c 0,0.7934 0.48002360494385,1.449 1.15624985494385,1.75 -0.30934155,-0.3333 -0.49999985,-0.7824 -0.49999985,-1.2812 l 0,-42.9375 c 0,-1.0482 0.82689885,-1.875 1.87499945,-1.875 l 42.9375008,0 c 1.048101,0 1.875,0.8268 1.875,1.875 l 0,42.9375 c 0,0.4988 -0.190658,0.9479 -0.5,1.2812 0.676226,-0.301 1.15625,-0.9566 1.15625,-1.75 l 0,-43.0625 c 0,-1.0773 -0.860223,-1.9375 -1.9375,-1.9375 L 1.9374992,1004.3622 Z"
       id="rect4280" />
    <g
       id="g837">
      <path
         sodipodi:nodetypes="cssccsccsscccsscscccsc"
         inkscape:connector-curvature="0"
         id="path817"
         d="m 7.158248,1032.2955 0,1.1615 c 0,0.741 0.5353814,1.3551 1.2260279,1.3551 l 1.3228201,0 0,-1.1615 -1.3228201,0 C 7.6936294,1033.6506 7.158248,1033.0365 7.158248,1032.2955 z m 3.839403,4.5815 0,1.1615 c 0,0.7618 0.564197,1.3874 1.290556,1.3874 l 8.840307,0 4.775056,4.9363 4.775056,-4.9363 8.87257,0 c 0.726359,0 1.290556,-0.6256 1.290556,-1.3874 l 0,-1.1615 c 0,0.7618 -0.564197,1.3874 -1.290556,1.3874 l -8.87257,0 -4.775056,4.9363 -4.775056,-4.9363 -8.840307,0 C 11.561848,1038.2644 10.997651,1037.6388 10.997651,1036.877 Z"
         style="fill:#ffffff;fill-opacity:0.54022983;stroke:none" />
      <path
         inkscape:connector-curvature="0"
         id="path822"
         d="m 8.3842759,1012.3622 c -0.6906465,0 -1.2260279,0.6141 -1.2260279,1.3551 l 0,0.6453 c 0,-0.741 0.5353814,-1.3551 1.2260279,-1.3551 l 25.9401701,0 c 0.690646,0 1.226028,0.6141 1.226028,1.3551 l 0,-0.6453 c 0,-0.741 -0.535382,-1.3551 -1.226028,-1.3551 L 8.3842759,1012.3622 z m 3.9039311,4.033 c -0.726359,0 -1.290556,0.6255 -1.290556,1.3873 l 0,0.6453 c 0,-0.7618 0.564197,-1.3873 1.290556,-1.3873 l 27.262989,0 c 0.726359,0 1.290556,0.6255 1.290556,1.3873 l 0,-0.6453 c 0,-0.7618 -0.564197,-1.3873 -1.290556,-1.3873 L 12.288207,1016.3952 Z"
         style="fill:#000000;fill-opacity:0.32567055;stroke:none" />
      <path
         inkscape:connector-curvature="0"
         id="path873"
         d="m 8.3842761,1013.0466 c -0.6906465,0 -1.2260279,0.6141 -1.2260279,1.3551 l 0,18.3904 c 0,0.741 0.5353814,1.3551 1.2260279,1.3551 l 1.3228199,0 0,-16.7772 c 0,-0.7619 0.564196,-1.3873 1.290555,-1.3873 l 24.552823,0 0,-1.581 c 0,-0.741 -0.535382,-1.3551 -1.226028,-1.3551 L 8.3842761,1013.0466 z m 3.9039309,4.033 c -0.726359,0 -1.290556,0.6255 -1.290556,1.3873 l 0,18.9067 c 0,0.7618 0.564197,1.3874 1.290556,1.3874 l 8.840307,0 4.775056,4.9363 4.775056,-4.9363 8.87257,0 c 0.726359,0 1.290556,-0.6256 1.290556,-1.3874 l 0,-18.9067 c 0,-0.7618 -0.564197,-1.3873 -1.290556,-1.3873 L 12.288207,1017.0796 Z"
         style="fill:url(#radialGradient835);fill-opacity:1;stroke:none" />
    </g>
  </g>
</svg>
