<?xml version="1.0" encoding="UTF-8" standalone="no"?>
<!-- Created with Inkscape (http://www.inkscape.org/) -->

<svg
   xmlns:dc="http://purl.org/dc/elements/1.1/"
   xmlns:cc="http://creativecommons.org/ns#"
   xmlns:rdf="http://www.w3.org/1999/02/22-rdf-syntax-ns#"
   xmlns:svg="http://www.w3.org/2000/svg"
   xmlns="http://www.w3.org/2000/svg"
   xmlns:xlink="http://www.w3.org/1999/xlink"
   xmlns:sodipodi="http://sodipodi.sourceforge.net/DTD/sodipodi-0.dtd"
   xmlns:inkscape="http://www.inkscape.org/namespaces/inkscape"
   width="48"
   height="48"
   id="svg2"
   version="1.1"
   inkscape:version="0.48+devel r12106"
   sodipodi:docname="baobab.svg">
  <defs
     id="defs4">
    <linearGradient
       inkscape:collect="always"
       id="linearGradient920">
      <stop
         style="stop-color:#000000;stop-opacity:1;"
         offset="0"
         id="stop922" />
      <stop
         style="stop-color:#000000;stop-opacity:0;"
         offset="1"
         id="stop924" />
    </linearGradient>
    <linearGradient
       id="linearGradient907"
       inkscape:collect="always">
      <stop
         id="stop909"
         offset="0"
         style="stop-color:#d0d0d0;stop-opacity:1" />
      <stop
         id="stop911"
         offset="1"
         style="stop-color:#d5d5d5;stop-opacity:1" />
    </linearGradient>
    <linearGradient
       inkscape:collect="always"
       id="linearGradient895">
      <stop
         style="stop-color:#a02a18;stop-opacity:1"
         offset="0"
         id="stop897" />
      <stop
         style="stop-color:#ee8970;stop-opacity:1"
         offset="1"
         id="stop899" />
    </linearGradient>
    <linearGradient
       inkscape:collect="always"
       id="linearGradient877">
      <stop
         style="stop-color:#f4f4f6;stop-opacity:1"
         offset="0"
         id="stop879" />
      <stop
         style="stop-color:#f5f7f6;stop-opacity:1"
         offset="1"
         id="stop881" />
    </linearGradient>
    <linearGradient
       inkscape:collect="always"
       xlink:href="#linearGradient877"
       id="linearGradient883"
       x1="21.5"
       y1="-1052.8622"
       x2="21.5"
       y2="-1004.1122"
       gradientUnits="userSpaceOnUse" />
    <linearGradient
       inkscape:collect="always"
       xlink:href="#linearGradient907"
       id="linearGradient901"
       x1="27.400389"
       y1="1034.2426"
       x2="27.400389"
       y2="1021.4263"
       gradientUnits="userSpaceOnUse"
       gradientTransform="matrix(0.98452516,0,0,0.95546598,0.37139707,45.771807)" />
    <linearGradient
       inkscape:collect="always"
       xlink:href="#linearGradient895"
       id="linearGradient905"
       gradientUnits="userSpaceOnUse"
       gradientTransform="matrix(0.66426602,0,0,0.95546598,1.7451161,45.77181)"
       x1="27.400389"
       y1="1034.2426"
       x2="27.400389"
       y2="1021.4263" />
    <linearGradient
       inkscape:collect="always"
       xlink:href="#linearGradient920"
       id="linearGradient926"
       x1="24.218407"
       y1="15.82664"
       x2="24.218407"
       y2="18.655069"
       gradientUnits="userSpaceOnUse"
       gradientTransform="translate(0,1004.3622)" />
  </defs>
  <sodipodi:namedview
     id="base"
     pagecolor="#ffffff"
     bordercolor="#666666"
     borderopacity="1.0"
     inkscape:pageopacity="0.0"
     inkscape:pageshadow="2"
     inkscape:zoom="4"
     inkscape:cx="17.069734"
     inkscape:cy="36.425786"
     inkscape:document-units="px"
     inkscape:current-layer="layer1"
     showgrid="false"
     inkscape:window-width="1366"
     inkscape:window-height="718"
     inkscape:window-x="0"
     inkscape:window-y="28"
     inkscape:window-maximized="1"
     showguides="false" />
  <metadata
     id="metadata7">
    <rdf:RDF>
      <cc:Work
         rdf:about="">
        <dc:format>image/svg+xml</dc:format>
        <dc:type
           rdf:resource="http://purl.org/dc/dcmitype/StillImage" />
        <dc:title />
      </cc:Work>
    </rdf:RDF>
  </metadata>
  <g
     inkscape:label="Capa 1"
     inkscape:groupmode="layer"
     id="layer1"
     transform="translate(0,-1004.3622)">
    <rect
       style="fill:url(#linearGradient883);fill-opacity:1;stroke:none"
       id="rect2991-1"
       width="48"
       height="48"
       x="0"
       y="-1052.3622"
       ry="1.9445436"
       transform="scale(1,-1)" />
    <path
       inkscape:connector-curvature="0"
       style="fill:#000000;fill-opacity:1;stroke:none"
       d="m 0,1049.3622 0,1.0625 c 0,1.0773 0.860223,1.9375 1.9375,1.9375 l 44.125,0 c 1.077277,0 1.9375,-0.8602 1.9375,-1.9375 l 0,-1.0625 c 0,1.0773 -0.860223,1.9375 -1.9375,1.9375 l -44.125,0 C 0.860223,1051.2997 0,1050.4395 0,1049.3622 Z"
       id="rect846" />
    <path
       inkscape:connector-curvature="0"
       style="fill:#ffffff;fill-opacity:0.5372549;stroke:none"
       d="m 2.53125,1005.0185 c -0.917089,0 -1.671147,0.6395 -1.84375,1.5 0.335612,-0.2799 0.774512,-0.4375 1.25,-0.4375 l 44.125,0 c 0.475488,0 0.914388,0.1576 1.25,0.4375 -0.172603,-0.8605 -0.926662,-1.5 -1.84375,-1.5 L 2.53125,1005.0185 Z"
       id="path7515" />
    <path
       inkscape:connector-curvature="0"
       style="fill:#000000;fill-opacity:0.39215686;stroke:none"
       d="m 1.9375,1004.3622 c -1.077277,0 -1.9375,0.8602 -1.9375,1.9375 l 0,43.0625 c 0,0.7934 0.480024,1.449 1.15625,1.75 -0.309342,-0.3333 -0.5,-0.7824 -0.5,-1.2812 l 0,-42.9375 c 0,-1.0482 0.826899,-1.875 1.875,-1.875 l 42.9375,0 c 1.048101,0 1.875,0.8268 1.875,1.875 l 0,42.9375 c 0,0.4988 -0.190658,0.9479 -0.5,1.2812 0.676226,-0.301 1.15625,-0.9566 1.15625,-1.75 l 0,-43.0625 c 0,-1.0773 -0.860223,-1.9375 -1.9375,-1.9375 L 1.9375,1004.3622 Z"
       id="rect4280" />
    <g
       id="g1000"
       transform="matrix(1.0407472,0,0,1.0407472,-0.97793282,-42.257198)">
      <g
         transform="translate(0,0.1893308)"
         id="g951">
        <rect
           style="color:#000000;fill:#000000;fill-opacity:0.02484472;fill-rule:nonzero;stroke:none;stroke-width:0.2;marker:none;visibility:visible;display:inline;overflow:visible;enable-background:accumulate"
           id="rect889"
           width="39.421204"
           height="12.904698"
           x="4.2893982"
           y="1022.478"
           ry="6.4523492" />
        <rect
           ry="6.4523492"
           y="1022.0992"
           x="4.2893982"
           height="12.904698"
           width="39.421204"
           id="rect887"
           style="color:#000000;fill:#000000;fill-opacity:0.0559006;fill-rule:nonzero;stroke:none;stroke-width:0.2;marker:none;visibility:visible;display:inline;overflow:visible;enable-background:accumulate" />
        <rect
           style="color:#000000;fill:#000000;fill-opacity:0.18012426;fill-rule:nonzero;stroke:none;stroke-width:0.2;marker:none;visibility:visible;display:inline;overflow:visible;enable-background:accumulate"
           id="rect885"
           width="39.421204"
           height="12.904698"
           x="4.2893982"
           y="1021.7205"
           ry="6.4523492" />
      </g>
      <g
         transform="translate(0,0.56817601)"
         id="g956">
        <rect
           ry="6.4523492"
           y="1021.3417"
           x="4.2893982"
           height="12.904698"
           width="39.421204"
           id="rect891"
           style="color:#000000;fill:#ffffff;fill-opacity:1;fill-rule:nonzero;stroke:none;stroke-width:0.2;marker:none;visibility:visible;display:inline;overflow:visible;enable-background:accumulate" />
        <rect
           style="color:#000000;fill:url(#linearGradient901);fill-opacity:1;fill-rule:nonzero;stroke:none;stroke-width:0.2;marker:none;visibility:visible;display:inline;overflow:visible;enable-background:accumulate"
           id="rect893"
           width="38.811165"
           height="12.33"
           x="4.5944176"
           y="1021.629"
           ry="6.165" />
        <path
           style="color:#000000;fill:url(#linearGradient905);fill-opacity:1;fill-rule:nonzero;stroke:none;stroke-width:0.2;marker:none;visibility:visible;display:inline;overflow:visible;enable-background:accumulate"
           d="m 10.75,1021.6434 c -3.41541,0 -6.15625,2.7409 -6.15625,6.1563 0,3.4154 2.74084,6.1562 6.15625,6.1562 l 13.875,0 c 0.298535,0 0.58803,-0.022 0.875,-0.062 l 0,-12.1875 c -0.28697,-0.041 -0.576465,-0.062 -0.875,-0.062 L 10.75,1021.6434 Z"
           id="rect903"
           inkscape:connector-curvature="0" />
        <path
           style="opacity:0.5;color:#000000;fill:url(#linearGradient926);fill-opacity:1;fill-rule:nonzero;stroke:none;stroke-width:0.2;marker:none;visibility:visible;display:inline;overflow:visible;enable-background:accumulate"
           d="m 10.75,1021.6434 c -1.5416131,0 -2.9213111,0.54 -4,1.4688 l 34.5,0 c -1.078689,-0.9288 -2.458387,-1.4688 -4,-1.4688 L 10.75,1021.6434 Z"
           id="rect913"
           inkscape:connector-curvature="0" />
      </g>
      <g
         transform="translate(-0.89044556,-0.62498262)"
         id="g935">
        <rect
           style="opacity:0.5;color:#000000;fill:#000000;fill-opacity:1;fill-rule:nonzero;stroke:none;stroke-width:0.2;marker:none;visibility:visible;display:inline;overflow:visible;enable-background:accumulate"
           id="rect931"
           width="0.17233495"
           height="22.5"
           x="10.890446"
           y="1017.7372"
           ry="0" />
        <rect
           ry="0"
           y="1017.7372"
           x="10.71811"
           height="22.5"
           width="0.17233495"
           id="rect933"
           style="opacity:0.25;color:#000000;fill:#ffffff;fill-opacity:0.5372549;fill-rule:nonzero;stroke:none;stroke-width:0.2;marker:none;visibility:visible;display:inline;overflow:visible;enable-background:accumulate" />
      </g>
      <g
         id="g939"
         transform="translate(13.109555,-0.62498262)">
        <rect
           ry="0"
           y="1017.7372"
           x="10.890446"
           height="22.5"
           width="0.17233495"
           id="rect941"
           style="opacity:0.5;color:#000000;fill:#000000;fill-opacity:1;fill-rule:nonzero;stroke:none;stroke-width:0.2;marker:none;visibility:visible;display:inline;overflow:visible;enable-background:accumulate" />
        <rect
           style="opacity:0.25;color:#000000;fill:#ffffff;fill-opacity:0.5372549;fill-rule:nonzero;stroke:none;stroke-width:0.2;marker:none;visibility:visible;display:inline;overflow:visible;enable-background:accumulate"
           id="rect943"
           width="0.17233495"
           height="22.5"
           x="10.71811"
           y="1017.7372"
           ry="0" />
      </g>
      <g
         transform="translate(27.109555,-0.62498262)"
         id="g945">
        <rect
           style="opacity:0.5;color:#000000;fill:#000000;fill-opacity:1;fill-rule:nonzero;stroke:none;stroke-width:0.2;marker:none;visibility:visible;display:inline;overflow:visible;enable-background:accumulate"
           id="rect947"
           width="0.17233495"
           height="22.5"
           x="10.890446"
           y="1017.7372"
           ry="0" />
        <rect
           ry="0"
           y="1017.7372"
           x="10.71811"
           height="22.5"
           width="0.17233495"
           id="rect949"
           style="opacity:0.25;color:#000000;fill:#ffffff;fill-opacity:0.5372549;fill-rule:nonzero;stroke:none;stroke-width:0.2;marker:none;visibility:visible;display:inline;overflow:visible;enable-background:accumulate" />
      </g>
      <path
         style="font-size:2.62429023px;font-style:normal;font-variant:normal;font-weight:normal;font-stretch:normal;line-height:125%;letter-spacing:0px;word-spacing:0px;fill:#000000;fill-opacity:1;stroke:none;font-family:Helvetica;-inkscape-font-specification:Helvetica"
         d="M 9.78125 8 C 9.78125 8.0889492 9.7530463 8.1583867 9.6875 8.21875 C 9.6055634 8.2934063 9.4800149 8.34375 9.3125 8.34375 L 9.25 8.34375 L 9.25 8.59375 L 9.71875 8.59375 L 9.71875 9.9375 L 10.09375 9.9375 L 10.09375 8 L 9.78125 8 z M 11.34375 8 C 11.114328 8 10.952999 8.0879904 10.84375 8.25 C 10.736322 8.4102751 10.65625 8.6595369 10.65625 9 C 10.65625 9.3386591 10.734501 9.586117 10.84375 9.75 C 10.954819 9.912079 11.116148 10 11.34375 10 C 11.573172 10 11.734501 9.912079 11.84375 9.75 C 11.952999 9.5879904 12 9.3405325 12 9 C 12 8.6595369 11.95482 8.4102751 11.84375 8.25 C 11.734501 8.0879904 11.573173 8 11.34375 8 z M 12.84375 8 C 12.614327 8 12.452999 8.0879904 12.34375 8.25 C 12.236322 8.4102751 12.1875 8.6595369 12.1875 9 C 12.1875 9.3386591 12.234501 9.586117 12.34375 9.75 C 12.45482 9.912079 12.647398 10 12.875 10 C 13.104423 10 13.265751 9.912079 13.375 9.75 C 13.484249 9.5879904 13.53125 9.3405325 13.53125 9 C 13.53125 8.6595369 13.48607 8.4102751 13.375 8.25 C 13.265751 8.0879904 13.073172 8 12.84375 8 z M 11.34375 8.3125 C 11.451181 8.3125 11.522445 8.3667568 11.5625 8.46875 C 11.602555 8.5706738 11.625 8.7450863 11.625 9 C 11.625 9.2567176 11.602555 9.4292568 11.5625 9.53125 C 11.524263 9.6332432 11.451178 9.6875 11.34375 9.6875 C 11.236319 9.6875 11.165055 9.6332432 11.125 9.53125 C 11.086763 9.4274528 11.0625 9.2549137 11.0625 9 C 11.0625 8.7450863 11.086763 8.5706738 11.125 8.46875 C 11.165058 8.3667568 11.238143 8.3125 11.34375 8.3125 z M 12.84375 8.3125 C 12.951181 8.3125 13.053695 8.3667568 13.09375 8.46875 C 13.133805 8.5706738 13.125 8.7450863 13.125 9 C 13.125 9.2567176 13.133805 9.4292568 13.09375 9.53125 C 13.055513 9.6332432 12.982428 9.6875 12.875 9.6875 C 12.767569 9.6875 12.665055 9.6332432 12.625 9.53125 C 12.586763 9.4274528 12.59375 9.2549137 12.59375 9 C 12.59375 8.7450863 12.586763 8.5706738 12.625 8.46875 C 12.665058 8.3667568 12.738143 8.3125 12.84375 8.3125 z "
         transform="matrix(0.96084813,0,0,0.96084813,0.93964492,1005.6423)"
         id="path1151" />
      <path
         style="font-size:2.62429023px;font-style:normal;font-variant:normal;font-weight:normal;font-stretch:normal;line-height:125%;letter-spacing:0px;word-spacing:0px;fill:#000000;fill-opacity:1;stroke:none;font-family:Helvetica;-inkscape-font-specification:Helvetica"
         d="M 25.90625 8 C 25.676828 8 25.515499 8.0879904 25.40625 8.25 C 25.298822 8.4102751 25.25 8.6595369 25.25 9 C 25.25 9.3386591 25.297001 9.586117 25.40625 9.75 C 25.517319 9.912079 25.678648 10 25.90625 10 C 26.135672 10 26.297001 9.912079 26.40625 9.75 C 26.515499 9.5879904 26.59375 9.3405325 26.59375 9 C 26.59375 8.6595369 26.51732 8.4102751 26.40625 8.25 C 26.297001 8.0879904 26.135673 8 25.90625 8 z M 27.4375 8 C 27.208077 8 27.015499 8.0879904 26.90625 8.25 C 26.798822 8.4102751 26.75 8.6595369 26.75 9 C 26.75 9.3386591 26.828251 9.586117 26.9375 9.75 C 27.04857 9.912079 27.209898 10 27.4375 10 C 27.666923 10 27.828251 9.912079 27.9375 9.75 C 28.046749 9.5879904 28.09375 9.3405325 28.09375 9 C 28.09375 8.6595369 28.04857 8.4102751 27.9375 8.25 C 27.828251 8.0879904 27.666922 8 27.4375 8 z M 23.90625 8.03125 L 23.75 9.09375 L 24.09375 9.125 C 24.128344 9.0652611 24.191732 9.0222026 24.25 9 C 24.279133 8.9888987 24.324017 8.96875 24.375 8.96875 C 24.469682 8.96875 24.542767 9.0208977 24.59375 9.09375 C 24.637448 9.1575131 24.65625 9.2178614 24.65625 9.3125 C 24.65625 9.4200439 24.615301 9.5264483 24.5625 9.59375 C 24.511517 9.6610517 24.43297 9.6875 24.34375 9.6875 C 24.261815 9.6875 24.201772 9.6707929 24.15625 9.625 C 24.110728 9.5776113 24.102853 9.4899955 24.09375 9.40625 L 23.71875 9.40625 C 23.71875 9.5901847 23.77151 9.7381489 23.90625 9.84375 C 24.022782 9.9347807 24.172594 10 24.34375 10 C 24.598664 10 24.782434 9.915687 24.90625 9.75 C 24.99729 9.627955 25.03125 9.4578301 25.03125 9.28125 C 25.03125 9.0754596 24.974849 8.9271903 24.84375 8.8125 C 24.734501 8.715988 24.619878 8.65625 24.46875 8.65625 C 24.386813 8.65625 24.313728 8.6951597 24.25 8.71875 C 24.20812 8.7347081 24.137448 8.7500276 24.09375 8.78125 L 24.1875 8.34375 L 24.96875 8.34375 L 24.96875 8.03125 L 23.90625 8.03125 z M 25.90625 8.3125 C 26.013675 8.3125 26.084938 8.3667568 26.125 8.46875 C 26.165055 8.5706738 26.1875 8.7450863 26.1875 9 C 26.1875 9.2567176 26.165055 9.4292568 26.125 9.53125 C 26.086763 9.6332432 26.013678 9.6875 25.90625 9.6875 C 25.798819 9.6875 25.727555 9.6332432 25.6875 9.53125 C 25.649263 9.4274528 25.625 9.2549137 25.625 9 C 25.625 8.7450863 25.649263 8.5706738 25.6875 8.46875 C 25.727558 8.3667568 25.800643 8.3125 25.90625 8.3125 z M 27.4375 8.3125 C 27.544931 8.3125 27.616195 8.3667568 27.65625 8.46875 C 27.696312 8.5706738 27.71875 8.7450863 27.71875 9 C 27.71875 9.2567176 27.696312 9.4292568 27.65625 9.53125 C 27.618013 9.6332432 27.544928 9.6875 27.4375 9.6875 C 27.330069 9.6875 27.258805 9.6332432 27.21875 9.53125 C 27.180513 9.4274528 27.15625 9.2549137 27.15625 9 C 27.15625 8.7450863 27.180513 8.5706738 27.21875 8.46875 C 27.258808 8.3667568 27.331893 8.3125 27.4375 8.3125 z "
         transform="matrix(0.96084813,0,0,0.96084813,0.93964492,1005.6423)"
         id="path1144" />
      <path
         style="font-size:2.62429023px;font-style:normal;font-variant:normal;font-weight:normal;font-stretch:normal;line-height:125%;letter-spacing:0px;word-spacing:0px;fill:#000000;fill-opacity:1;stroke:none;font-family:Helvetica;-inkscape-font-specification:Helvetica"
         d="M 38.90625 8 C 38.90625 8.0889492 38.878046 8.1583867 38.8125 8.21875 C 38.730563 8.2934063 38.605015 8.34375 38.4375 8.34375 L 38.40625 8.34375 L 38.40625 8.59375 L 38.84375 8.59375 L 38.84375 9.9375 L 39.25 9.9375 L 39.21875 8 L 38.90625 8 z M 40.46875 8 C 40.239328 8 40.077999 8.0879904 39.96875 8.25 C 39.861322 8.4102751 39.8125 8.6595369 39.8125 9 C 39.8125 9.3386591 39.859501 9.586117 39.96875 9.75 C 40.079819 9.912079 40.241148 10 40.46875 10 C 40.698172 10 40.890751 9.912079 41 9.75 C 41.109249 9.5879904 41.15625 9.3405325 41.15625 9 C 41.15625 8.6595369 41.11107 8.4102751 41 8.25 C 40.890751 8.0879904 40.698173 8 40.46875 8 z M 42 8 C 41.770577 8 41.609249 8.0879904 41.5 8.25 C 41.392572 8.4102751 41.34375 8.6595369 41.34375 9 C 41.34375 9.3386591 41.390751 9.586117 41.5 9.75 C 41.61107 9.912079 41.772398 10 42 10 C 42.229423 10 42.390751 9.912079 42.5 9.75 C 42.609249 9.5879904 42.6875 9.3405325 42.6875 9 C 42.6875 8.6595369 42.61107 8.4102751 42.5 8.25 C 42.390751 8.0879904 42.229422 8 42 8 z M 43.53125 8 C 43.301828 8 43.109249 8.0879904 43 8.25 C 42.892572 8.4102751 42.84375 8.6595369 42.84375 9 C 42.84375 9.3386591 42.890751 9.586117 43 9.75 C 43.111069 9.912079 43.303648 10 43.53125 10 C 43.760672 10 43.922001 9.912079 44.03125 9.75 C 44.140499 9.5879904 44.1875 9.3405325 44.1875 9 C 44.1875 8.6595369 44.14232 8.4102751 44.03125 8.25 C 43.922001 8.0879904 43.760673 8 43.53125 8 z M 40.46875 8.3125 C 40.576175 8.3125 40.647438 8.3667568 40.6875 8.46875 C 40.727555 8.5706738 40.75 8.7450863 40.75 9 C 40.75 9.2567176 40.727555 9.4292568 40.6875 9.53125 C 40.649263 9.6332432 40.576178 9.6875 40.46875 9.6875 C 40.361325 9.6875 40.290062 9.6332432 40.25 9.53125 C 40.211763 9.4274528 40.21875 9.2549137 40.21875 9 C 40.21875 8.7450863 40.211763 8.5706738 40.25 8.46875 C 40.290058 8.3667568 40.363143 8.3125 40.46875 8.3125 z M 42 8.3125 C 42.107431 8.3125 42.178695 8.3667568 42.21875 8.46875 C 42.258812 8.5706738 42.28125 8.7450863 42.28125 9 C 42.28125 9.2567176 42.258812 9.4292568 42.21875 9.53125 C 42.180513 9.6332432 42.107428 9.6875 42 9.6875 C 41.892569 9.6875 41.821305 9.6332432 41.78125 9.53125 C 41.743013 9.4274528 41.71875 9.2549137 41.71875 9 C 41.71875 8.7450863 41.743013 8.5706738 41.78125 8.46875 C 41.821308 8.3667568 41.894393 8.3125 42 8.3125 z M 43.53125 8.3125 C 43.638675 8.3125 43.709938 8.3667568 43.75 8.46875 C 43.790055 8.5706738 43.8125 8.7450863 43.8125 9 C 43.8125 9.2567176 43.790055 9.4292568 43.75 9.53125 C 43.711763 9.6332432 43.638678 9.6875 43.53125 9.6875 C 43.423819 9.6875 43.352555 9.6332432 43.3125 9.53125 C 43.274263 9.4274528 43.25 9.2549137 43.25 9 C 43.25 8.7450863 43.274263 8.5706738 43.3125 8.46875 C 43.352558 8.3667568 43.425643 8.3125 43.53125 8.3125 z "
         transform="matrix(0.96084813,0,0,0.96084813,0.93964492,1005.6423)"
         id="path1135" />
      <path
         style="font-size:2.62429023px;font-style:normal;font-variant:normal;font-weight:normal;font-stretch:normal;line-height:125%;letter-spacing:0px;word-spacing:0px;fill:#000000;fill-opacity:1;stroke:none;font-family:Helvetica;-inkscape-font-specification:Helvetica"
         d="m 31.187268,1041.6741 0,1.8917 0.360318,0 0,-0.1802 c 0.04199,0.073 0.10318,0.1435 0.180159,0.1802 0.06648,0.031 0.156235,0.03 0.240212,0.03 0.195947,0 0.345426,-0.086 0.450398,-0.2402 0.09098,-0.1347 0.120106,-0.2988 0.120106,-0.5105 0,-0.2309 -0.06294,-0.411 -0.180159,-0.5404 -0.106722,-0.119 -0.22589,-0.1802 -0.390345,-0.1802 -0.08048,0 -0.173732,0.027 -0.240212,0.06 -0.06648,0.031 -0.120672,0.07 -0.180159,0.1501 l 0,-0.6606 L 31.187268,1041.6741 z m 7.836917,0 0,0.3003 0.09008,0 0,-0.3003 L 39.024185,1041.6741 z m 1.801591,0 0,0.3003 0.09008,0 0,-0.3003 L 40.825776,1041.6741 z m -16.484551,0.03 -0.69061,1.141 0,0.3003 0.750663,0 0,0.4204 0.360318,0 0,-0.4204 0.210186,0 0,-0.2702 -0.210186,0 0,-1.1711 L 24.341225,1041.7041 z m 1.411246,0 c -0.167955,0 -0.3119,0.027 -0.420371,0.1201 -0.108471,0.091 -0.150133,0.2347 -0.150133,0.3904 0,0.168 0.0915,0.2851 0.240212,0.3603 -0.120716,0.056 -0.226499,0.1282 -0.270238,0.2402 -0.02275,0.058 -0.03003,0.151 -0.03003,0.2402 0,0.1488 0.05391,0.2554 0.150133,0.3603 0.115469,0.1242 0.291759,0.2102 0.51045,0.2102 0.222191,0 0.393233,-0.097 0.510451,-0.2402 0.09098,-0.1102 0.120106,-0.2417 0.120106,-0.3903 0,-0.1156 -0.01107,-0.1968 -0.06005,-0.2703 -0.04199,-0.063 -0.113962,-0.1028 -0.210186,-0.1501 0.07523,-0.039 0.11514,-0.1175 0.150133,-0.1802 0.03499,-0.063 0.06005,-0.1244 0.06005,-0.2101 0,-0.1365 -0.04866,-0.2394 -0.150133,-0.3303 C 26.094397,1041.758 25.93792,1041.7041 25.752471,1041.7041 z m 1.531351,0 c -0.197696,0 -0.366704,0.063 -0.480424,0.1802 -0.09098,0.095 -0.145172,0.2241 -0.180159,0.3903 -0.02275,0.1085 -0.03003,0.2559 -0.03003,0.4204 0,0.2781 0.03613,0.4801 0.120106,0.6306 0.108471,0.1959 0.283297,0.3002 0.540477,0.3002 0.181951,0 0.338428,-0.056 0.450397,-0.1801 0.11197,-0.1242 0.150133,-0.3057 0.150133,-0.5105 0,-0.1522 -0.02563,-0.2801 -0.120106,-0.3903 -0.104972,-0.1208 -0.270196,-0.1802 -0.450398,-0.1802 -0.07348,0 -0.120672,0.01 -0.180159,0.03 -0.05774,0.023 -0.108145,0.062 -0.150132,0.1201 0,-0.1399 0.01631,-0.2675 0.06005,-0.3603 0.05248,-0.1102 0.131741,-0.1501 0.240212,-0.1501 0.06823,0 0.115146,-0 0.150132,0.03 0.03499,0.032 0.05305,0.094 0.06005,0.1502 l 0.360318,0 c -0.01575,-0.093 -0.03558,-0.17 -0.06005,-0.2102 -0.02275,-0.045 -0.06587,-0.098 -0.120106,-0.1502 -0.04199,-0.042 -0.09093,-0.067 -0.180159,-0.09 C 27.401002,1041.7182 27.343309,1041.7041 27.283822,1041.7041 z m -1.501325,0.3003 c 0.06123,0 0.109892,0.016 0.150133,0.06 0.04199,0.042 0.06005,0.082 0.06005,0.1502 0,0.068 -0.01981,0.1361 -0.06005,0.1801 -0.03849,0.042 -0.0784,0.06 -0.150133,0.06 -0.07523,0 -0.136423,-0.014 -0.180159,-0.06 -0.04199,-0.047 -0.06005,-0.1188 -0.06005,-0.1801 0,-0.072 0.01807,-0.1102 0.06005,-0.1502 C 25.646077,1042.0224 25.70027,1042.0044 25.782497,1042.0044 z m -1.381219,0.06 0,0.8108 -0.480424,0 L 24.401278,1042.0644 z m 5.194585,0.06 c -0.108471,0 -0.196757,0.032 -0.270238,0.09 -0.04549,0.035 -0.07987,0.082 -0.120106,0.1501 l 0,-0.2102 -0.360318,0 0,1.4113 0.390344,0 0,-0.8408 c 0,-0.084 -0.005,-0.1615 0.03003,-0.2102 0.03674,-0.049 0.09968,-0.09 0.180159,-0.09 0.09797,0 0.178691,0.055 0.210185,0.1201 0.01749,0.035 0.03003,0.091 0.03003,0.1801 l 0,0.8408 0.360318,0 0,-0.8408 c 0,-0.089 0.02157,-0.1595 0.06005,-0.2102 0.04024,-0.051 0.09268,-0.09 0.180159,-0.09 0.06123,0 0.115139,0.046 0.150132,0.09 0.03674,0.042 0.06005,0.1123 0.06005,0.2102 l 0,0.8408 0.360318,0 0,-0.9609 c 0,-0.1486 -0.05916,-0.279 -0.150132,-0.3603 -0.09098,-0.082 -0.18858,-0.1201 -0.330292,-0.1201 -0.09622,0 -0.198508,0.032 -0.270238,0.09 -0.03325,0.026 -0.07287,0.085 -0.120106,0.1501 -0.05073,-0.078 -0.09415,-0.1448 -0.150133,-0.1801 C 29.78009,1042.1492 29.692087,1042.1245 29.595863,1042.1245 z m 5.164559,0.06 c -0.200751,0.01 -0.350449,0.068 -0.450398,0.2101 -0.09995,0.1436 -0.154403,0.3166 -0.150132,0.5105 -0.0017,0.1905 0.04931,0.3505 0.150132,0.4804 0.09995,0.1307 0.253063,0.2059 0.450398,0.2102 0.328891,-0.01 0.540732,-0.1616 0.60053,-0.4804 l -0.120106,0 c -0.05723,0.264 -0.215601,0.3869 -0.480424,0.3903 -0.165727,0 -0.278309,-0.056 -0.360318,-0.1801 -0.08457,-0.118 -0.121815,-0.2581 -0.120106,-0.4204 l 1.080954,0 c 0.01111,-0.2016 -0.02357,-0.3746 -0.120106,-0.5105 C 35.142606,1042.2563 34.972278,1042.188 34.760422,1042.1846 z m 1.351193,0 c -0.100803,0 -0.190792,0.031 -0.270239,0.09 -0.07859,0.057 -0.127922,0.1216 -0.150132,0.2102 l 0,-0.2702 -0.09008,0 0,1.3512 0.09008,0 0,-0.8107 c 0.0034,-0.1726 0.05786,-0.2801 0.150132,-0.3604 0.08799,-0.078 0.169436,-0.1201 0.270239,-0.1201 0.02477,0 0.05505,-0.01 0.09008,0 0.03332,0.01 0.08508,0.034 0.120106,0.06 0.03503,0.023 0.06616,0.042 0.09008,0.09 0.02477,0.051 0.03003,0.1248 0.03003,0.2102 l 0,0.9308 0.09008,0 0,-0.8107 c 0,-0.1624 0.03981,-0.2766 0.120106,-0.3604 0.07859,-0.085 0.177251,-0.1201 0.300265,-0.1201 0.02221,0 0.05506,-0.01 0.09008,0 0.03503,0.01 0.08508,0.036 0.120106,0.06 0.03844,0.023 0.06531,0.042 0.09008,0.09 0.02477,0.053 0.03003,0.1244 0.03003,0.2102 l 0,0.9308 0.09008,0 0,-0.9308 c -0.0017,-0.159 -0.01322,-0.2552 -0.09008,-0.3303 -0.07688,-0.072 -0.204715,-0.1201 -0.330291,-0.1201 -0.211857,0 -0.346905,0.1097 -0.420371,0.3002 -0.01281,-0.073 -0.05604,-0.152 -0.120106,-0.2102 -0.03331,-0.027 -0.07226,-0.044 -0.120106,-0.06 C 36.243081,1042.1992 36.176538,1042.1846 36.111615,1042.1846 z m 2.101855,0 c -0.323766,0 -0.491657,0.1531 -0.510451,0.4504 l 0.09008,0 c 0.02392,-0.2384 0.168364,-0.3587 0.420371,-0.3604 0.07859,0 0.130612,0.011 0.180159,0.03 0.04869,0.023 0.09363,0.031 0.120106,0.06 0.02819,0.03 0.04981,0.062 0.06005,0.09 0.0085,0.03 0,0.073 0,0.09 0,0.055 0.0051,0.088 0,0.1201 -0.0068,0.033 -0.03015,0.069 -0.06005,0.09 -0.05297,0.035 -0.175928,0.049 -0.390345,0.06 -0.02648,0 -0.06189,-0.01 -0.09008,0 -0.02819,0.01 -0.06104,0.024 -0.09008,0.03 -0.05809,0.012 -0.09973,0.03 -0.150132,0.06 -0.04955,0.028 -0.09021,0.071 -0.120106,0.1201 -0.03075,0.052 -0.06005,0.1006 -0.06005,0.1802 0.0017,0.1392 0.06473,0.2438 0.150132,0.3002 0.08372,0.058 0.170418,0.09 0.300265,0.09 0.128993,0 0.242302,-0.029 0.330292,-0.09 0.08543,-0.058 0.148552,-0.1298 0.180159,-0.2102 l 0,0.06 c -0.0017,0.057 0.0052,0.1153 0.03003,0.1501 0.0205,0.04 0.07325,0.06 0.150133,0.06 0.02648,0 0.06189,0.01 0.09008,0 l 0,-0.09 c -0.03161,0.01 -0.07214,0 -0.09008,0 -0.04186,0 -0.05151,-0.025 -0.06005,-0.06 -0.01025,-0.033 -0.0017,-0.049 0,-0.09 l 0,-0.7807 c -0.0017,-0.1358 -0.05363,-0.249 -0.150133,-0.3003 C 38.449792,1042.1959 38.336483,1042.1832 38.21347,1042.1846 z m 1.80159,0 c -0.106783,0 -0.181396,0.036 -0.270238,0.09 -0.08884,0.057 -0.173454,0.1371 -0.210186,0.2402 l 0,-0.3002 -0.09008,0 0,1.3512 0.09008,0 0,-0.7207 c 0,-0.1683 0.06214,-0.317 0.150133,-0.4203 0.08543,-0.1034 0.179941,-0.1485 0.330291,-0.1502 0.09141,0 0.186393,-0 0.240212,0.03 0.05297,0.03 0.06787,0.072 0.09008,0.1201 0.02477,0.048 0.05322,0.1016 0.06005,0.1501 0.0034,0.051 0,0.084 0,0.1201 l 0,0.8708 0.09008,0 0,-0.8408 c 0,-0.043 0.0034,-0.088 0,-0.1501 -0.0068,-0.06 -0.03015,-0.1214 -0.06005,-0.1802 -0.02819,-0.06 -0.05348,-0.1101 -0.120106,-0.1501 C 40.249545,1042.2059 40.134655,1042.1859 40.01506,1042.1846 z m 1.80159,0 c -0.106783,0 -0.181395,0.036 -0.270238,0.09 -0.08884,0.057 -0.173452,0.1371 -0.210186,0.2402 l 0,-0.3002 -0.09008,0 0,1.3512 0.09008,0 0,-0.7207 c 0,-0.1683 0.06214,-0.317 0.150133,-0.4203 0.08543,-0.1034 0.179942,-0.1485 0.330291,-0.1502 0.09141,0 0.186393,-0 0.240212,0.03 0.05297,0.03 0.06787,0.072 0.09008,0.1201 0.02477,0.048 0.05322,0.1016 0.06005,0.1501 0.0034,0.051 0,0.084 0,0.1201 l 0,0.8708 0.09008,0 0,-0.8408 c 0,-0.043 0.0034,-0.088 0,-0.1501 -0.0068,-0.06 -0.03015,-0.1214 -0.06005,-0.1802 -0.02819,-0.06 -0.05347,-0.1101 -0.120106,-0.1501 C 42.051136,1042.2059 41.936245,1042.1859 41.81665,1042.1846 z m 1.321167,0 c -0.188792,0.01 -0.352158,0.056 -0.450398,0.1801 -0.100803,0.1264 -0.150133,0.295 -0.150133,0.4804 0,0.1905 0.05446,0.3557 0.150133,0.4805 0.09653,0.1272 0.254772,0.1784 0.450398,0.1801 0.228942,0 0.383892,-0.095 0.480424,-0.3002 l 0,0.3002 c 0,0.023 0.0034,0.072 0,0.1201 -0.0068,0.051 -0.03015,0.092 -0.06005,0.1502 -0.0299,0.055 -0.0835,0.1116 -0.150133,0.1501 -0.06578,0.042 -0.152352,0.059 -0.270238,0.06 -0.113617,0 -0.191647,-0.01 -0.270239,-0.06 -0.0803,-0.052 -0.136464,-0.1531 -0.150133,-0.2702 l -0.120106,0 c 0.01025,0.152 0.08192,0.2653 0.180159,0.3302 0.09568,0.062 0.213386,0.09 0.360319,0.09 0.145223,0 0.249137,-0.011 0.330291,-0.06 0.0803,-0.047 0.145134,-0.1105 0.180159,-0.1802 0.03503,-0.07 0.05322,-0.1469 0.06005,-0.2102 0.0051,-0.063 0,-0.093 0,-0.1201 l 0,-1.2911 -0.09008,0 0,0.2702 c -0.03844,-0.1034 -0.09131,-0.1572 -0.180159,-0.2102 C 43.348384,1042.2226 43.246308,1042.1846 43.137817,1042.1846 z m -9.638508,0.03 0,1.3512 0.09008,0 0,-0.7507 c 0.006,-0.1 0.03615,-0.1538 0.06005,-0.2102 0.02307,-0.055 0.07141,-0.1321 0.120106,-0.1801 0.06321,-0.059 0.113524,-0.1002 0.180159,-0.1201 0.06493,-0.017 0.126344,-0.01 0.180159,0 l 0,-0.09 c -0.123867,-0.01 -0.235468,-0 -0.330291,0.06 -0.09653,0.059 -0.151115,0.1486 -0.180159,0.2402 l -0.03003,0 0,-0.3002 L 33.499309,1042.2146 z m 5.524876,0 0,1.3512 0.09008,0 0,-1.3512 L 39.024185,1042.2146 z m 1.801591,0 0,1.3512 0.09008,0 0,-1.3512 L 40.825776,1042.2146 z m -6.065354,0.06 c 0.15633,0.01 0.274892,0.047 0.360318,0.1502 0.08372,0.1067 0.146715,0.2434 0.150132,0.3903 l -0.990874,0 c 0.01281,-0.1392 0.03639,-0.2501 0.120106,-0.3603 C 34.483822,1042.3446 34.610072,1042.2789 34.760422,1042.2746 z m 8.377395,0 c 0.166581,0.01 0.280017,0.071 0.360318,0.1802 0.0803,0.1119 0.120106,0.2331 0.120106,0.3903 0,0.1572 -0.0398,0.2802 -0.120106,0.3904 -0.0803,0.117 -0.193737,0.1775 -0.360318,0.1801 -0.157185,0 -0.27831,-0.034 -0.360319,-0.1501 -0.08286,-0.1102 -0.120106,-0.2598 -0.120106,-0.4204 0,-0.1503 0.03895,-0.275 0.120106,-0.3903 C 42.85609,1042.3395 42.975507,1042.2789 43.137817,1042.2746 z m -11.289966,0.1802 c 0.110222,0 0.185979,0.033 0.240212,0.1201 0.04549,0.073 0.09008,0.1761 0.09008,0.3003 0,0.105 -0.04809,0.1933 -0.09008,0.2702 -0.05423,0.1 -0.133491,0.1501 -0.240212,0.1501 -0.110218,0 -0.184225,-0.038 -0.240212,-0.1201 -0.04899,-0.072 -0.06005,-0.1565 -0.06005,-0.2702 0,-0.1312 0.01807,-0.255 0.06005,-0.3303 C 31.658376,1042.4822 31.732382,1042.4548 31.847851,1042.4548 z m -4.624082,0.2102 c 0.06823,0 0.131172,0.015 0.180159,0.06 0.05949,0.056 0.09008,0.1336 0.09008,0.2402 0,0.1208 -0.01106,0.2129 -0.06005,0.2703 -0.04724,0.058 -0.106679,0.09 -0.180159,0.09 -0.08923,0 -0.157699,-0.027 -0.210186,-0.09 -0.05249,-0.065 -0.09008,-0.1671 -0.09008,-0.2703 0,-0.1082 0.03059,-0.1822 0.09008,-0.2402 C 27.092597,1042.6777 27.14504,1042.665 27.223769,1042.665 z m -1.471298,0.06 c 0.09447,0 0.191225,0.056 0.240212,0.1201 0.04024,0.053 0.06005,0.1032 0.06005,0.1802 0,0.077 -0.01982,0.1558 -0.06005,0.2102 -0.04724,0.065 -0.12096,0.09 -0.210186,0.09 -0.08398,0 -0.161198,-0.037 -0.210185,-0.09 -0.04724,-0.054 -0.06005,-0.1193 -0.06005,-0.2102 0,-0.096 0.01107,-0.1629 0.06005,-0.2102 C 25.623048,1042.7664 25.678991,1042.725 25.752471,1042.725 z m 12.821317,0.06 0,0.2702 c 0,0.017 0.0085,0.041 0,0.09 -0.01111,0.049 -0.02759,0.096 -0.06005,0.1501 -0.03331,0.055 -0.08179,0.1118 -0.150133,0.1502 -0.06663,0.043 -0.184941,0.06 -0.300265,0.06 -0.117034,0 -0.182123,-0.032 -0.240212,-0.09 -0.06151,-0.054 -0.09008,-0.1266 -0.09008,-0.2101 0.0017,-0.1931 0.115169,-0.285 0.360318,-0.3003 0.09995,-0.01 0.208004,-0.019 0.300265,-0.03 0.04613,-0.01 0.08679,-0.019 0.120106,-0.03 C 38.547908,1042.8351 38.554141,1042.8064 38.573788,1042.7851 Z"
         id="path1171"
         inkscape:connector-curvature="0" />
    </g>
  </g>
</svg>
