<?xml version="1.0" encoding="UTF-8" standalone="no"?>
<!-- Created with Inkscape (http://www.inkscape.org/) -->

<svg
   xmlns:dc="http://purl.org/dc/elements/1.1/"
   xmlns:cc="http://creativecommons.org/ns#"
   xmlns:rdf="http://www.w3.org/1999/02/22-rdf-syntax-ns#"
   xmlns:svg="http://www.w3.org/2000/svg"
   xmlns="http://www.w3.org/2000/svg"
   xmlns:xlink="http://www.w3.org/1999/xlink"
   xmlns:sodipodi="http://sodipodi.sourceforge.net/DTD/sodipodi-0.dtd"
   xmlns:inkscape="http://www.inkscape.org/namespaces/inkscape"
   width="48"
   height="48"
   id="svg2"
   version="1.1"
   inkscape:version="0.48+devel r12126"
   sodipodi:docname="firefox.svg"
   inkscape:export-filename="/home/uri/Iconos/NITRUX/apps/512/firefox.png"
   inkscape:export-xdpi="960"
   inkscape:export-ydpi="960">
  <defs
     id="defs4">
    <linearGradient
       inkscape:collect="always"
       id="linearGradient1194">
      <stop
         style="stop-color:#000000;stop-opacity:1;"
         offset="0"
         id="stop1196" />
      <stop
         style="stop-color:#000000;stop-opacity:0;"
         offset="1"
         id="stop1198" />
    </linearGradient>
    <linearGradient
       inkscape:collect="always"
       id="linearGradient859">
      <stop
         style="stop-color:#d66016;stop-opacity:1"
         offset="0"
         id="stop861" />
      <stop
         id="stop1190"
         offset="0.5"
         style="stop-color:#f3851e;stop-opacity:1" />
      <stop
         style="stop-color:#fbaa3c;stop-opacity:1"
         offset="1"
         id="stop863" />
    </linearGradient>
    <style
       id="style874"
       type="text/css"><![CDATA[
    .fil0 {fill:#1F1A17}
   ]]></style>
    <linearGradient
       inkscape:collect="always"
       xlink:href="#linearGradient859"
       id="linearGradient865"
       x1="-19.312702"
       y1="-1064.4777"
       x2="-19.312702"
       y2="-1016.2559"
       gradientUnits="userSpaceOnUse"
       gradientTransform="translate(45.374831,11.785775)" />
    <linearGradient
       y2="32.832401"
       x2="29.173901"
       y1="19.146999"
       x1="38.491699"
       gradientUnits="userSpaceOnUse"
       id="XMLID_70_">
      <stop
         id="stop111"
         style="stop-color:#0F80BC"
         offset="0" />
      <stop
         id="stop113"
         style="stop-color:#0A5F9E"
         offset="0.3376" />
      <stop
         id="stop115"
         style="stop-color:#00145A"
         offset="1" />
    </linearGradient>
    <clipPath
       id="XMLID_68_">
      <use
         height="127.219"
         width="132.72"
         y="0"
         x="0"
         id="use99"
         xlink:href="#XMLID_8_" />
    </clipPath>
    <linearGradient
       y2="18.029301"
       x2="93.231796"
       y1="16.591801"
       x1="76.371597"
       gradientUnits="userSpaceOnUse"
       id="XMLID_69_">
      <stop
         id="stop102"
         style="stop-color:#0F80BC"
         offset="0" />
      <stop
         id="stop104"
         style="stop-color:#0A5F9E"
         offset="0.3376" />
      <stop
         id="stop106"
         style="stop-color:#00145A"
         offset="1" />
    </linearGradient>
    <radialGradient
       id="XMLID_61_"
       cx="64.568802"
       cy="7.2266002"
       r="104.221"
       fx="64.568802"
       fy="7.2266002"
       gradientUnits="userSpaceOnUse">
      <stop
         offset="0"
         style="stop-color:#67C5D5"
         id="stop13" />
      <stop
         offset="0.1604"
         style="stop-color:#66C2D3"
         id="stop15" />
      <stop
         offset="0.2795"
         style="stop-color:#62B9CE"
         id="stop17" />
      <stop
         offset="0.3852"
         style="stop-color:#5CA8C6"
         id="stop19" />
      <stop
         offset="0.4832"
         style="stop-color:#5392BA"
         id="stop21" />
      <stop
         offset="0.5759"
         style="stop-color:#4874AA"
         id="stop23" />
      <stop
         offset="0.6646"
         style="stop-color:#3A5097"
         id="stop25" />
      <stop
         offset="0.7485"
         style="stop-color:#2A2781"
         id="stop27" />
      <stop
         offset="0.8146"
         style="stop-color:#1B006D"
         id="stop29" />
      <stop
         offset="1"
         style="stop-color:#596AAD"
         id="stop31" />
    </radialGradient>
    <radialGradient
       inkscape:collect="always"
       xlink:href="#linearGradient1194"
       id="radialGradient1200"
       cx="23.999999"
       cy="-1028.3622"
       fx="23.999999"
       fy="-1028.3622"
       r="24"
       gradientUnits="userSpaceOnUse"
       gradientTransform="matrix(0.79166665,0,0,0.79166665,4.9999996,-214.24211)" />
  </defs>
  <sodipodi:namedview
     id="base"
     pagecolor="#ffffff"
     bordercolor="#666666"
     borderopacity="1.0"
     inkscape:pageopacity="0.0"
     inkscape:pageshadow="2"
     inkscape:zoom="5.6568543"
     inkscape:cx="-10.39012"
     inkscape:cy="11.673826"
     inkscape:document-units="px"
     inkscape:current-layer="layer1"
     showgrid="false"
     inkscape:window-width="1366"
     inkscape:window-height="717"
     inkscape:window-x="0"
     inkscape:window-y="28"
     inkscape:window-maximized="1" />
  <metadata
     id="metadata7">
    <rdf:RDF>
      <cc:Work
         rdf:about="">
        <dc:format>image/svg+xml</dc:format>
        <dc:type
           rdf:resource="http://purl.org/dc/dcmitype/StillImage" />
        <dc:title />
      </cc:Work>
    </rdf:RDF>
  </metadata>
  <g
     inkscape:label="Capa 1"
     inkscape:groupmode="layer"
     id="layer1"
     transform="translate(0,-1004.3622)">
    <rect
       style="fill:url(#linearGradient865);fill-opacity:1.0;stroke:none"
       id="rect2991-1"
       width="48"
       height="48"
       x="-1.4033203e-06"
       y="-1052.3622"
       ry="1.9445436"
       transform="scale(1,-1)" />
    <rect
       transform="scale(1,-1)"
       ry="1.5394305"
       y="-1047.3622"
       x="4.9999986"
       height="38"
       width="38"
       id="rect1192"
       style="fill:url(#radialGradient1200);fill-opacity:1;stroke:none;opacity:0.5" />
    <path
       inkscape:connector-curvature="0"
       style="fill:#000000;fill-opacity:1;stroke:none"
       d="m -2.25e-6,1049.3622 0,1.0625 c 0,1.0773 0.860223,1.9375 1.93749905,1.9375 l 44.1250002,0 c 1.077277,0 1.937505,-0.8602 1.937505,-1.9375 l 0,-1.0625 c 0,1.0773 -0.860228,1.9375 -1.937505,1.9375 l -44.1250002,0 C 0.86022075,1051.2997 -2.25e-6,1050.4395 -2.25e-6,1049.3622 Z"
       id="rect846" />
    <path
       inkscape:connector-curvature="0"
       style="fill:#ffffff;fill-opacity:0.5372549;stroke:none"
       d="m 2.5312468,1005.0185 c -0.917088,0 -1.67114605,0.6395 -1.84374905,1.5 0.33561095,-0.2799 0.77451095,-0.4375 1.24999905,-0.4375 l 44.1250002,0 c 0.475488,0 0.914388,0.1576 1.250005,0.4375 -0.172608,-0.8605 -0.926667,-1.5 -1.843755,-1.5 L 2.5312468,1005.0185 Z"
       id="path7515" />
    <path
       inkscape:connector-curvature="0"
       style="fill:#000000;fill-opacity:0.39215686;stroke:none"
       d="m 1.9374968,1004.3622 c -1.07727605,0 -1.93749905,0.8602 -1.93749905,1.9375 l 0,43.0625 c 0,0.7934 0.480024,1.449 1.15624905,1.75 -0.30934105,-0.3333 -0.49999905,-0.7824 -0.49999905,-1.2812 l 0,-42.9375 c 0,-1.0482 0.82689795,-1.875 1.87499905,-1.875 l 42.9375002,0 c 1.048101,0 1.875005,0.8268 1.875005,1.875 l 0,42.9375 c 0,0.4988 -0.190663,0.9479 -0.500005,1.2812 0.676225,-0.301 1.156255,-0.9566 1.156255,-1.75 l 0,-43.0625 c 0,-1.0773 -0.860228,-1.9375 -1.937505,-1.9375 L 1.9374968,1004.3622 Z"
       id="rect4280-0" />
    <ellipse
       transform="matrix(0.25473698,0,0,0.25473698,7.0192277,1012.3621)"
       cx="63.755001"
       cy="59.375"
       rx="59.335999"
       ry="59.375"
       id="ellipse10"
       sodipodi:cx="63.755001"
       sodipodi:cy="59.375"
       sodipodi:rx="59.335999"
       sodipodi:ry="59.375"
       style="fill:#ffffff"
       d="m 123.091,59.375 c 0,32.791907 -26.565632,59.375 -59.335999,59.375 C 30.984634,118.75 4.4190025,92.166907 4.4190025,59.375 4.4190025,26.583093 30.984634,0 63.755001,0 96.525368,0 123.091,26.583093 123.091,59.375 Z" />
    <ellipse
       transform="matrix(0.24423904,0,0,0.24423904,7.6885237,1012.9854)"
       cx="63.755001"
       cy="59.375"
       rx="58.215"
       ry="58.254002"
       id="ellipse33"
       style="fill:url(#XMLID_61_)"
       sodipodi:cx="63.755001"
       sodipodi:cy="59.375"
       sodipodi:rx="58.215"
       sodipodi:ry="58.254002"
       d="m 121.97,59.375 c 0,32.172797 -26.063742,58.254 -58.214999,58.254 C 31.603744,117.629 5.5400009,91.547797 5.5400009,59.375 5.5400009,27.202203 31.603744,1.1209984 63.755001,1.1209984 95.906258,1.1209984 121.97,27.202203 121.97,59.375 Z" />
    <path
       transform="matrix(0.25,0,0,0.25,136.36318,1016.3553)"
       inkscape:connector-curvature="0"
       style="fill:url(#XMLID_69_)"
       id="path108"
       d="m 65.061,1.002 c -0.912,0.203 0.613,3.503 0.613,3.503 0,0 -0.055,2.216 0.321,2.329 0.374,0.113 2.852,0.733 4.147,2.345 1.301,1.614 0.625,2.463 -0.458,1.997 -1.084,-0.465 -0.797,0.959 -0.797,0.959 0,0 3.27,1.063 0.8,0.995 -2.475,-0.066 1.666,1.741 1.393,1.93 -0.273,0.191 -0.429,1.231 -0.429,1.231 0,0 -2.183,0.182 -0.333,0.959 6.26,2.637 -0.669,1.925 -0.669,1.925 l -0.884,1.087 1.749,2.194 1.345,0.962 c 0,0 2.833,-0.945 3.716,-1.093 0.884,-0.146 3.114,-1.815 3.114,-1.815 0,0 0.669,0.478 0.169,-0.497 -0.501,-0.976 1.841,-0.54 2.425,0.186 l 4.134,1.867 c 0.054,0.144 0.146,0.274 0.292,0.375 0.806,0.565 -0.729,1.535 -0.573,2.562 0.156,1.016 1.093,2.704 2.121,2.526 -0.18,-0.969 1.851,-1.086 1.144,-0.006 -0.706,1.077 0.077,1.056 0.077,1.056 0,0 0.653,1.521 2.034,0.676 -0.056,0.464 0.227,1.397 1.413,1.459 0,0 -0.126,0.506 0.848,0.865 -0.132,1.737 0.424,1.792 0.561,-0.846 0.245,1.157 0.992,-0.471 1.141,-1.25 0.15,-0.784 1.756,-2.505 1.322,-0.984 -0.431,1.508 4.735,2.06 5.308,0.259 0.578,-1.815 2.637,-2.763 2.699,-3.038 0.062,-0.281 -4.583,-0.712 -4.07,-0.493 0.514,0.219 1.47,-0.948 1.115,-1.986 0.576,0.116 0.83,-2.301 -0.083,-2.927 1.143,-2.405 0.651,-2.48 0.182,-2.001 -0.57,1.205 -2.922,3.023 -1.327,0.783 1.609,-2.263 -0.653,-0.284 -1.438,0.208 -0.689,1.341 -1.899,1.08 -1.899,1.08 0,0 -0.222,-0.911 -1.516,-0.607 0.151,-1.612 -0.653,-0.838 -1.12,-1.154 -0.285,-0.193 -0.558,-0.627 -0.726,-0.999 1.115,0.452 2.612,0.933 2.354,0.104 -0.167,-0.542 2.112,0.643 2.192,0.396 l 2.848,-0.396 2.769,-1.75 C 85.388,0.164 65.061,1.002 65.061,1.002 Z"
       clip-path="url(#XMLID_68_)" />
    <path
       transform="matrix(0.25,0,0,0.25,136.36318,1016.3553)"
       inkscape:connector-curvature="0"
       style="fill:url(#XMLID_70_)"
       id="path117"
       d="m 38.752,6.095 c -10.573,4.747 -18.551,14.531 -18.551,14.531 0,0 0.938,2.145 1.265,1.987 0.33,-0.156 -2.361,5.628 -0.386,5.954 1.985,0.325 7.696,-3.578 6.637,-3.22 -1.056,0.356 0.595,-2.112 0.595,-2.112 0,0 2.972,-1.318 1.214,0.202 -1.743,1.511 2.318,0.187 2.255,0.496 -0.064,0.311 0.525,1.147 0.525,1.147 0,0 -1.393,1.494 0.406,0.892 6.172,-2.075 0.812,1.779 0.812,1.779 l 0.106,1.312 2.67,0.464 1.578,-0.15 c 0,0 1.381,-2.436 1.914,-3.098 0.535,-0.663 1.028,-3.284 1.028,-3.284 0,0 0.803,-0.084 -0.213,-0.468 -1.016,-0.385 0.972,-1.583 1.886,-1.434 l 4.303,-1.336 c 0.138,0.068 0.292,0.103 0.47,0.082 0.985,-0.114 0.489,1.603 1.294,2.25 0.796,0.644 2.627,1.264 3.283,0.469 -0.784,-0.594 0.674,-2.011 0.86,-0.751 0.187,1.249 0.767,0.723 0.767,0.723 0,0 1.543,-2.654 2.036,-4.177 0.27,0.377 2.788,-3.309 2.025,-5.067 -0.771,-1.78 0.479,-3.456 0.34,-3.715 -0.143,-0.256 -0.896,0.528 -0.34,0.34 0.561,-0.192 -1.589,0.772 -1.874,-2.061 -0.288,-2.89 -0.707,0.243 -0.985,1.169 0.377,1.508 4.29,-6.093 4.29,-6.093 L 64.006,0.869 C 64.006,0.873 52.525,-0.088 38.752,6.095 Z"
       clip-path="url(#XMLID_68_)" />
    <path
       style="fill:#ffffff"
       d="m 27.633125,1014.8528 c -0.513804,0.015 -0.769367,0.09 -0.764211,0.096 0.03433,0 0.06144,0.029 0.09548,0.032 0.290767,0.063 3.663404,0.6556 4.298687,1.5284 0,0 -1.574275,-0.01 -3.15237,0.4458 -0.07133,0.02 5.803673,0.7499 7.005267,6.6231 0,0 -0.636078,-1.3639 -1.432896,-1.592 0.523994,1.5941 0.371661,4.6421 -0.127368,6.1455 -0.03903,-0.043 -0.135163,-0.3493 -0.350263,-0.6686 -0.01254,-0.019 -0.01834,-0.045 -0.03179,-0.063 -0.145802,-0.292 -0.317352,-0.5651 -0.509475,-0.8597 0,0 0.03607,0.1802 0.09548,0.4457 -0.08671,-0.06 -0.179059,-0.1106 -0.286579,-0.1591 0.314856,2.2561 -0.0268,5.8601 -1.592105,6.8459 -0.12202,0.076 0.982265,-3.5288 0.222894,-2.1333 -4.533554,6.9511 -9.945695,2.8126 -12.131848,1.3373 1.754628,0.4301 3.633568,0.1007 4.712634,-0.6368 1.089001,-0.7445 1.745967,-1.2749 2.324475,-1.1465 0.578253,0.1293 0.958575,-0.4722 0.509474,-0.9871 -0.449611,-0.5159 -1.548037,-1.2144 -3.025002,-0.8279 -1.04162,0.2728 -2.328296,1.4217 -4.298686,0.2547 -1.68101,-0.996 -1.687633,-1.8092 -1.687633,-2.3244 0,-0.5156 0.471009,-1.2749 1.305527,-1.1464 0.747398,0.1155 0.342112,-0.3234 1.146317,0 0.219074,0.088 -0.0061,-1.0527 -0.318422,-1.7831 0.600415,-1.253 2.529284,-1.6416 2.674738,-1.7514 0.263398,-0.1992 0.132973,-0.3048 0.222895,-0.6049 0.08406,-0.2795 0.142143,-1.0366 -2.037895,-0.8279 -1.003155,0.096 -1.637705,-1.1811 -1.846844,-1.4966 0.06776,-0.4018 0.171183,-0.7783 0.318422,-1.1145 0.14953,-0.3064 0.314599,-0.5836 0.477632,-0.7961 0.05094,-0.066 0.08712,-0.1367 0.127368,-0.1911 0.325045,-0.379 0.731095,-0.6857 1.210001,-0.9551 0.248633,-0.1405 -2.760004,-0.01 -4.139477,1.7513 -1.219232,-0.3026 -2.299561,-0.3102 -3.216054,-0.096 -0.177907,0 -0.37431,-0.01 -0.636842,-0.063 -0.229019,-0.2069 -0.519215,-0.4716 -0.764211,-0.796 -0.06481,-0.085 -0.130171,-0.1938 -0.191053,-0.2866 -0.0071,-0.011 0.0071,-0.021 0,-0.032 -0.01468,-0.023 -0.04921,-0.042 -0.06368,-0.063 -0.105166,-0.17 -0.173975,-0.352 -0.254737,-0.5413 -0.0071,-0.016 -0.02527,-0.015 -0.03179,-0.032 -0.021,-0.051 -0.04493,-0.1072 -0.06369,-0.1592 -0.02354,-0.066 -0.04433,-0.1543 -0.06368,-0.223 -0.05838,-0.211 -0.08681,-0.4418 -0.09548,-0.6687 l -0.03179,0 c -0.05054,0.04 -1.6602947,1.3315 -1.5921065,4.7446 0.00406,0.184 0.018242,0.3447 0.03179,0.5412 -5.09e-4,0.066 -0.02975,0.1302 -0.03179,0.1911 -0.516739,0.7024 -0.7609605,1.3015 -0.764211,1.401 -0.445861,0.906 -0.9062522,2.2607 -1.2736848,4.3306 0,0 0.2832267,-0.801 0.796053,-1.7195 -0.3786104,1.1653 -0.6844171,2.9588 -0.509474,5.6679 0,0 0.05645,-0.596 0.2228949,-1.4647 0.1095471,1.4449 0.5138962,3.1822 1.5284219,5.1902 0.070512,0.1397 0.1465967,0.2717 0.2228948,0.414 0.014469,0.028 0.049012,0.068 0.063689,0.096 0.04718,0.086 0.078049,0.1666 0.1273677,0.2547 0.04453,0.079 0.0808,0.143 0.127368,0.2228 0.0051,0.01 0.02701,0.023 0.03179,0.032 0.09568,0.1633 0.18707,0.3197 0.28658,0.4776 0.103606,0.1661 0.211024,0.3494 0.318421,0.5095 0.07816,0.1164 0.174627,0.2053 0.254737,0.3184 0.493629,0.9836 1.141487,1.9922 1.974211,3.0251 -0.166149,-0.2728 -0.412357,-0.787 -0.668684,-1.4012 1.022056,1.1016 2.159304,1.9791 3.375265,2.6749 0.02028,0.011 0.04341,0.021 0.06369,0.032 0.01253,0.01 0.01926,0.024 0.03179,0.032 0.345974,0.1944 0.691979,0.3791 1.05079,0.5414 1.198508,0.8691 2.617127,1.5369 4.266845,1.8468 1.23308,0.4581 2.697022,0.7575 4.457897,0.7642 0,0 -0.613019,-0.1947 -1.528422,-0.6369 1.619057,-0.1276 3.415177,-0.5552 5.381319,-1.4647 0,0 -1.37345,0.5047 -3.279738,0.5095 0.383083,-0.069 0.763426,-0.1622 1.146316,-0.2547 0.502586,-0.1215 0.972412,-0.2566 1.432895,-0.4139 1.71171,0.1364 3.717459,-0.1489 6.018161,-1.2419 0,0 -1.080309,0.1202 -2.611054,0.032 2.604442,-1.1267 5.040369,-3.4302 6.623162,-7.7377 0,0 -0.886577,1.9125 -2.929475,3.5026 0.239911,-0.3632 0.464028,-0.7399 0.668684,-1.1144 2.133208,-1.6975 4.271573,-4.8225 3.279738,-10.2214 0,0 -0.210055,1.8122 -1.21,4.044 0.993273,-4.0242 0.664766,-8.3019 -0.796053,-11.4314 0,0 0.178663,1.4031 -0.03179,3.3753 -0.115437,-0.4841 -0.25439,-0.9182 -0.382105,-1.2418 -0.975644,-2.4719 -1.398252,-2.4555 -1.401054,-2.4519 0.653401,1.6607 0.541316,2.5474 0.541316,2.5474 0,0 -1.173828,-3.1675 -4.235002,-4.1713 C 30.048246,1014.9329 28.48948,1014.8274 27.633125,1014.8528 Z"
       id="path159"
       inkscape:connector-curvature="0"
       sodipodi:nodetypes="cccccccccccccccccccccscccccccccccccccccccccccccccccccccccccccccccccccccccccccccccccccccccc" />
    <path
       style="fill:#000000;fill-opacity:0.07602342"
       d="m 27.555374,1015.0855 c 0.05784,0.012 0.05914,0.017 0.123793,0.031 0.03193,0 0.06116,0.027 0.09285,0.031 0.05588,0.01 0.09961,0.024 0.154741,0.031 4.339906,0.5328 6.356365,2.7784 7.241892,4.178 -0.716066,-0.5923 -2.717443,-2.1723 -5.725427,-2.2902 2.331217,0.7475 4.006903,2.0956 4.95172,3.59 6.526825,12.261 -7.681137,23.1019 -18.011884,17.9811 -0.127216,-0.2153 -0.614796,-1.0831 -1.114137,-1.9807 -0.08191,-0.1487 -0.192601,-0.3373 -0.278534,-0.4953 -0.186766,-0.3432 -0.385322,-0.7592 -0.588017,-1.1451 -0.156551,-0.2974 -0.305448,-0.5551 -0.464224,-0.8665 -0.403296,-0.7935 -0.825624,-1.6306 -1.206982,-2.4759 0.275221,0.1714 0.581072,0.3342 0.928448,0.4953 0,0 -0.17455,-0.2383 -0.402327,-0.5571 -0.130006,-0.1774 -0.198403,-0.2553 -0.371379,-0.5261 -0.03662,-0.057 -0.05548,-0.125 -0.09285,-0.1857 -0.133804,-0.2173 -0.270813,-0.4285 -0.402328,-0.681 -0.128908,-0.2474 -0.262581,-0.5047 -0.371379,-0.7737 -0.0123,-0.03 -0.01903,-0.062 -0.03095,-0.093 -0.0085,-0.022 -0.02261,-0.04 -0.03095,-0.062 -0.0117,-0.031 -0.0195,-0.062 -0.03095,-0.093 -0.08212,-0.2265 -0.163436,-0.4501 -0.216638,-0.6809 0.113088,0.1086 0.236506,0.2037 0.371379,0.3095 0.262338,0.2056 0.603802,0.4231 0.959396,0.6189 0.183283,0.1026 0.376119,0.2113 0.588017,0.3095 -0.248882,-0.3001 -0.478822,-0.6301 -0.680862,-0.9594 -0.20204,-0.3293 -0.373556,-0.6712 -0.52612,-1.0213 -0.04554,-0.1045 -0.08281,-0.2036 -0.123793,-0.3095 -0.09456,-0.2459 -0.178137,-0.4913 -0.247586,-0.7427 -0.20091,-0.725 -0.301871,-1.4728 -0.278535,-2.1973 0.0037,-3.5743 1.362457,-5.6041 5.942065,-4.3018 l 0.990344,1.2379 c -0.54664,-2.3138 -0.138599,-3.6994 1.206982,-4.4566 0.04978,-0.028 -0.08149,-0.031 -0.340431,0 -0.717582,0.085 -2.141339,0.4917 -2.836619,1.6528 -1.671696,-0.4596 -2.470787,-0.4347 -3.941048,-0.043 -0.179527,-0.1316 -0.345131,-0.3114 -0.495172,-0.4951 -0.512091,-0.6269 -0.873926,-1.4982 -1.114137,-2.2592 0,0 -1.4828279,1.3557 -1.3926719,4.0542 0.1036455,0.2939 0.2575059,0.6547 0.061896,0.9284 -0.6956701,0.9734 -1.6496118,3.2813 -2.0116366,4.9827 0,0 0.3032644,-0.8023 0.8356029,-1.7022 -0.168828,0.4667 -0.31201,1.0732 -0.4332756,1.7642 -0.032523,0.1853 -0.065834,0.3538 -0.092845,0.5571 -0.036902,0.2725 -0.081177,0.5296 -0.092845,0.8045 -0.00341,0.082 0.00126,0.1641 0,0.2476 -0.046852,0.667 -0.085445,1.3923 -0.061896,2.2283 0.00717,-0.047 0.021078,-0.103 0.030948,-0.1548 0.00972,-0.061 0.019786,-0.1201 0.030948,-0.1857 0.013601,-0.085 0.043242,-0.2355 0.061897,-0.3404 -7.58e-4,-0.01 7.317e-4,-0.021 0,-0.031 0.00643,-0.036 0.023933,-0.086 0.030948,-0.1238 0.055652,0.4183 0.1362118,0.8526 0.247586,1.2998 0.00804,0.033 0.022597,0.06 0.030948,0.093 0.1271634,0.4964 0.2670972,1.0012 0.4642238,1.5475 0,0 -0.2586245,-1.1332 -0.2785343,-2.5997 0.079172,0.3767 0.1980517,0.7869 0.3404308,1.2379 -0.018196,0.85 0.058391,1.822 0.3404308,2.9401 0.1169488,0.265 0.2013642,0.5294 0.3404308,0.8047 0.070512,0.1396 0.1403397,0.26 0.2166378,0.4023 0.014469,0.028 0.04722,0.096 0.061897,0.1238 0.04718,0.086 0.1054215,0.1595 0.1547405,0.2476 0.04453,0.079 0.07723,0.1368 0.123793,0.2166 0.0051,0.01 0.02617,0.022 0.03095,0.031 0.09568,0.1633 0.179023,0.3063 0.278534,0.4642 0.103606,0.1662 0.202086,0.3661 0.309482,0.5261 0.07816,0.1165 0.167477,0.1964 0.247587,0.3095 0.493629,0.9836 1.147963,2 1.980688,3.0329 -0.08307,-0.1364 -0.164173,-0.3486 -0.278534,-0.588 -0.114362,-0.2394 -0.243216,-0.4976 -0.37138,-0.8047 1.022056,1.1016 2.157399,1.9658 3.37336,2.6616 0.02028,0.011 0.04161,0.02 0.0619,0.031 0.01253,0.01 0.01842,0.023 0.03095,0.031 0.345974,0.1943 0.693429,0.3947 1.052241,0.5571 0.269069,0.1951 0.547634,0.357 0.835602,0.5261 0.09157,0.054 0.184744,0.1028 0.278535,0.1547 0.163782,0.09 0.322863,0.1948 0.495172,0.2786 0.112549,0.055 0.224906,0.1036 0.340431,0.1547 0.718881,0.3145 1.486329,0.555 2.321119,0.7118 0.30827,0.1145 0.621361,0.216 0.959396,0.3095 0.33816,0.093 0.682125,0.1811 1.05224,0.2476 0.748124,0.1387 1.552522,0.2132 2.444912,0.2166 0,0 -0.165595,-0.051 -0.433275,-0.1547 -0.272428,-0.1072 -0.656436,-0.2741 -1.114137,-0.4952 1.619057,-0.1277 3.418854,-0.545 5.384996,-1.4546 0,0 -1.374226,0.5213 -3.280515,0.5262 0.383083,-0.069 0.762196,-0.1861 1.145085,-0.2786 0.502586,-0.1215 0.994085,-0.2449 1.454568,-0.4023 0.348357,0.028 0.710468,0.041 1.083189,0.031 0.525642,-0.017 1.063384,-0.075 1.640258,-0.1857 0.327806,-0.063 0.675504,-0.1509 1.021292,-0.2475 -0.737065,-0.051 -1.548207,-0.1059 -2.352067,-0.1548 2.610758,-0.9468 5.447063,-2.9706 7.953701,-6.9943 -0.146194,0.1004 -0.287214,0.2092 -0.433275,0.3095 -0.20612,0.2578 -0.443494,0.5281 -0.71181,0.8047 -0.03213,0.033 -0.0598,0.06 -0.09284,0.093 -0.09886,0.1 -0.202349,0.1788 -0.309483,0.2785 -0.227409,0.211 -0.44606,0.4121 -0.711809,0.619 0.239911,-0.3633 0.476206,-0.7397 0.680861,-1.1141 0.244469,-0.1946 0.471925,-0.4166 0.71181,-0.65 0.01599,-0.022 0.04594,-0.04 0.0619,-0.062 1.199572,-1.6587 2.279405,-4.1003 2.352067,-7.4586 0,0 -0.337899,2.0583 -1.361723,3.621 0.542405,-4.0756 0.821007,-8.5975 -0.216638,-12.008 0,0 0.394056,2.4107 -0.216638,4.3637 -0.339315,-1.8845 -0.759472,-3.6123 -1.114137,-4.4565 -0.180573,-0.1196 -0.288412,-0.2062 -0.433276,-0.3095 0.0099,0.036 0.02192,0.089 0.03095,0.1238 0.05052,0.1997 0.09657,0.3971 0.123793,0.5571 0.01231,0.075 0.0228,0.1824 0.03095,0.2476 0.01,0.083 0.02608,0.1808 0.03095,0.2476 0.0049,0.081 1.49e-4,0.1932 0,0.2475 -0.0017,0.041 0,0.1548 0,0.1548 0,0 -0.117997,-0.242 -0.247586,-0.4952 -0.01712,-0.034 -0.04276,-0.087 -0.0619,-0.1238 -0.06798,-0.1243 -0.155887,-0.2843 -0.247586,-0.4333 -0.03907,-0.065 -0.08011,-0.1485 -0.123793,-0.2166 -0.08923,-0.1361 -0.202138,-0.2878 -0.309483,-0.4333 -0.07411,-0.1005 -0.164163,-0.2068 -0.247586,-0.3095 0.05623,0.2025 0.09985,0.4724 0.123793,0.8047 C 34.087936,1015.5316 29.310914,1015.115 27.555374,1015.0855 z m -8.696459,8.4489 c -2.730333,1.3835 -2.972353,2.8317 -2.692498,2.7545 2.238599,-0.6167 2.874901,-0.74 3.682842,-0.4332 -0.02427,-0.3315 -0.14399,-1.1451 -0.526121,-1.4545 C 19.031281,1024.1648 18.933006,1023.878 18.858915,1023.5344 z m 5.446892,5.8185 c -0.887678,0.096 -1.877678,0.6666 -2.228274,0.8046 0,0 1.758467,-0.3256 2.413964,-0.2166 0.888458,0.1478 1.186354,1.1269 1.609309,0.7118 0.173353,-0.17 0.06833,-0.8116 -1.021292,-1.2071 -0.12359,-0.045 -0.264609,-0.084 -0.402328,-0.093 C 24.556682,1029.345 24.432619,1029.3391 24.305807,1029.3528 z m -5.415944,1.2998 c 0.183783,1.0293 0.760986,1.5487 1.114137,1.795 0.930797,0.279 2.965343,0.028 3.837584,-0.6189 0.587672,-0.437 1.019215,-0.7599 1.392671,-0.8975 -0.660131,-0.4487 -0.654499,0.1738 -2.042585,0.4951 C 20.300071,1032.0973 18.889863,1030.6526 18.889863,1030.6526 z m -7.210943,2.6616 c 0.02519,0.041 0.06692,0.082 0.09284,0.1238 0.04546,0.073 0.0761,0.1423 0.123793,0.2166 0.171807,0.2681 0.353934,0.5222 0.557069,0.8045 0.286246,0.4004 0.605647,0.8097 0.959396,1.2381 0.332249,0.4023 0.716444,0.8125 1.114137,1.2379 0.04517,0.048 0.07775,0.1063 0.123793,0.1548 0.372475,0.3931 0.774104,0.7956 1.206982,1.2069 0.04448,0.042 0.07866,0.081 0.123793,0.1238 -1.349901,-0.7319 -2.628837,-1.7345 -3.775687,-3.0638 0.185253,0.1985 0.399255,0.3997 0.618965,0.588 C 12.824005,1035.9448 12.04645,1034.7817 11.67892,1033.3143 Z"
       id="path214"
       inkscape:connector-curvature="0"
       sodipodi:nodetypes="cccccccccccccccccscccccsccscccccccsccsccsccscccccccccccccccccccccccccscccccccccccccccccccccccccccccccccccccccccccccccccccccccccsccccssccccccccccsccccccc" />
    <path
       style="fill:#000000;fill-opacity:0.21052635"
       d="m 27.648219,1014.2799 c -0.513804,0.015 -0.778862,0.1179 -0.773706,0.1238 0.03433,0 0.05881,0.028 0.09284,0.031 0.148694,0.033 1.091167,0.1884 2.073533,0.4642 0.850464,0.097 1.924785,0.2947 3.280515,0.7427 3.061175,1.0038 4.239911,4.1781 4.239911,4.1781 0,0 0.01023,-0.2099 -0.03095,-0.5881 -0.07175,-0.1868 -1.243449,-3.1436 -4.208963,-4.116 C 30.055663,1014.3668 28.504573,1014.2545 27.648219,1014.2799 z m -16.402575,0.4952 c -0.05054,0.04 -1.6774974,1.322 -1.6093092,4.7351 0.0018,0.081 -0.00483,0.17 0,0.2476 0.027239,-3.1916 1.5602642,-4.4181 1.6093092,-4.4566 l 0.03095,0 c 0.0086,0.2269 0.03446,0.47 0.09284,0.6809 0.01935,0.068 0.03836,0.1502 0.0619,0.2166 0.01876,0.053 0.0409,0.1033 0.0619,0.1548 0.0065,0.017 0.02382,0.015 0.03095,0.031 0.08076,0.1893 0.142421,0.3561 0.247586,0.5262 0.01447,0.022 0.04722,0.04 0.0619,0.061 0.0071,0.011 -0.0071,0.02 0,0.031 0.06089,0.093 0.120881,0.2243 0.185689,0.3094 0.244996,0.3245 0.544688,0.5668 0.773707,0.7738 0.262531,0.053 0.472006,0.061 0.649913,0.061 0.916493,-0.2141 1.999386,-0.1788 3.218619,0.1238 0.883392,-1.1279 2.406062,-1.5857 3.342411,-1.7331 0.237286,-0.2017 0.479566,-0.3916 0.773706,-0.5571 0.248634,-0.1404 -2.736645,0 -4.116117,1.764 -1.219233,-0.3025 -2.302126,-0.3069 -3.218619,-0.093 -0.177907,0 -0.387382,-0.04 -0.649913,-0.093 -0.229019,-0.2069 -0.528711,-0.4492 -0.773707,-0.7736 -0.06481,-0.085 -0.124807,-0.2166 -0.185689,-0.3094 -0.0071,-0.011 0.0071,-0.02 0,-0.031 -0.01468,-0.023 -0.04743,-0.04 -0.0619,-0.061 -0.105165,-0.17 -0.166823,-0.3367 -0.247586,-0.5262 -0.0071,-0.016 -0.02443,-0.014 -0.03095,-0.031 -0.021,-0.052 -0.04314,-0.1027 -0.0619,-0.1548 -0.02354,-0.066 -0.04255,-0.148 -0.0619,-0.2166 -0.05838,-0.211 -0.08418,-0.4539 -0.09284,-0.6808 L 11.245644,1014.7752 z m 19.311711,1.207 c -0.594783,0.035 -1.433273,0.1101 -2.444912,0.4023 -0.0198,0.01 0.444605,0.068 1.114137,0.2786 1.121887,-0.1946 2.042585,-0.1857 2.042585,-0.1857 C 31.13803,1016.2971 30.870578,1016.1362 30.557355,1015.9822 z m 5.446893,0.7737 c 0.107507,0.2732 0.177615,0.481 0.247586,0.7118 0.217243,0.2367 0.565797,0.7915 1.145085,2.2592 0.127715,0.3236 0.28689,0.7538 0.402327,1.2379 0.07892,-0.7396 0.09342,-1.3523 0.09285,-1.8878 -0.01284,0.4088 -0.04023,0.8687 -0.09285,1.3618 -0.115437,-0.4841 -0.274612,-0.9143 -0.402327,-1.238 C 36.421276,1016.7288 36.007049,1016.7522 36.004248,1016.7558 z m 1.825947,0.3094 c 0,0 0.01284,0.3555 0.03095,0.619 0.856898,1.8746 1.316875,4.1468 1.330775,6.5302 C 39.24765,1021.6038 38.77669,1019.0929 37.830195,1017.0652 z m -19.095073,2.1355 c -0.02865,0.1209 -0.07151,0.2449 -0.09285,0.3714 0.209139,0.3155 0.853741,1.5816 1.856895,1.4855 1.362525,-0.1304 1.857571,0.1306 2.011637,0.4023 0.0056,-0.035 0.01836,-0.051 0.03095,-0.093 0.08406,-0.2795 0.137454,-1.0443 -2.042585,-0.8356 C 19.597297,1020.6178 18.999853,1019.6376 18.735122,1019.2007 z m -9.0987872,1.0523 c -0.516739,0.7024 -0.7395076,1.2931 -0.7427581,1.3926 -0.4458611,0.906 -0.9323941,2.2629 -1.2998267,4.3327 0,0 0.081728,-0.211 0.2166378,-0.526 0.00426,-0.01 0.02656,-0.021 0.030948,-0.031 0.3229045,-1.4624 0.691387,-2.5164 1.0522407,-3.2495 0.00325,-0.1 0.2260191,-0.6903 0.7427581,-1.3928 0.00204,-0.06 0.030439,-0.1193 0.030948,-0.1857 C 9.6589875,1020.4731 9.6426366,1020.36 9.6363348,1020.2531 z m 24.0467942,1.176 c 0.0596,0.1812 0.112157,0.3735 0.154741,0.588 0.719873,0.3463 1.268878,1.5165 1.268878,1.5165 -0.0751,-0.3671 -0.169516,-0.6934 -0.278534,-1.0214 -0.0075,-0.023 -0.02328,-0.04 -0.03095,-0.061 C 34.535856,1022.0425 34.14309,1021.5607 33.683129,1021.429 z m -13.926715,2.6306 c -0.03981,0.063 -0.09128,0.1179 -0.123793,0.1857 0.161689,0.3783 0.305956,0.8672 0.371379,1.238 C 20.124539,1025.4153 19.974683,1024.6956 19.756414,1024.0597 z m 20.085417,0.4023 c 0,0 -0.218594,1.4542 -0.959396,3.3424 -0.0729,0.4047 -0.179581,0.8062 -0.278534,1.2071 0.999945,-2.2319 1.23793,-4.0233 1.23793,-4.0233 0.161647,0.8798 0.238653,1.6821 0.247586,2.4449 C 40.117883,1026.5235 40.0415,1025.5489 39.841831,1024.4619 z m -5.84922,0.061 c -0.03496,1.1492 -0.183761,2.3122 -0.433275,3.064 -0.03903,-0.043 -0.125331,-0.3616 -0.340431,-0.681 -0.01254,-0.019 -0.0175,-0.043 -0.03095,-0.061 -0.145801,-0.292 -0.333997,-0.5719 -0.52612,-0.8667 0,0 0.03343,0.1988 0.09284,0.4644 -0.08671,-0.06 -0.171015,-0.1371 -0.278534,-0.1857 0.02445,0.175 0.04564,0.3674 0.0619,0.5571 0.07939,0.039 0.148739,0.076 0.216638,0.1238 -0.05941,-0.2655 -0.09284,-0.4333 -0.09284,-0.4333 0.192123,0.2946 0.380319,0.5746 0.52612,0.8667 0.01345,0.019 0.01841,0.043 0.03095,0.061 0.2151,0.3194 0.301401,0.6383 0.340431,0.6809 C 33.848126,1027.2438 33.999922,1025.8473 33.992611,1024.5239 z m -25.5942064,0.2785 c -0.1025653,0.1837 -0.1638178,0.2954 -0.247586,0.4643 -0.00384,0.018 0.00379,0.044 0,0.061 -0.166486,0.8069 -0.3068214,1.8137 -0.3094826,3.0638 C 7.8861375,1026.7945 8.1257644,1025.6415 8.3984046,1024.8025 z m 9.1297354,2.2902 c -0.0028,0.03 -0.03095,0.064 -0.03095,0.093 0,0.5153 0.02114,1.3251 1.702154,2.321 1.970391,1.1671 3.260188,0.025 4.301808,-0.2475 1.476964,-0.3865 2.583318,0.2887 3.032929,0.8046 0.05614,0.064 0.09234,0.1512 0.123793,0.2167 0.111224,-0.1987 0.100757,-0.4854 -0.123793,-0.7428 -0.449611,-0.5158 -1.555965,-1.191 -3.032929,-0.8046 -1.04162,0.2728 -2.331417,1.4146 -4.301808,0.2476 C 17.938589,1028.2336 17.6088,1027.5854 17.52814,1027.0926 z m 15.040851,1.0522 c -0.03529,1.9381 -0.495429,4.076 -1.578361,4.8898 -0.08631,0.3501 -0.157034,0.6398 -0.123793,0.619 C 32.144764,1032.8489 32.61363,1030.2817 32.568991,1028.1449 z m -1.206982,2.5069 c -0.03171,-0.033 -0.105204,0.079 -0.247586,0.3404 -3.939294,6.0399 -8.537243,3.6948 -11.110423,2.0116 -0.347108,-0.029 -0.676774,-0.07 -1.021292,-0.1547 2.186153,1.4753 7.598162,5.6203 12.131715,-1.3308 0.08794,-0.1615 0.142939,-0.2375 0.18569,-0.2786 0.0023,-0.012 -0.0022,-0.02 0,-0.031 C 31.347402,1030.9619 31.396899,1030.6876 31.362009,1030.6517 z m 7.118099,2.4758 c -0.381023,0.5603 -0.83055,1.0344 -1.268878,1.4546 -0.1852,0.2014 -0.399211,0.3835 -0.618966,0.588 -0.01109,0.01 -0.01986,0.022 -0.03095,0.031 -0.204655,0.3745 -0.44095,0.7509 -0.680861,1.1142 0.963954,-0.7504 1.658042,-1.5692 2.135429,-2.2283 0.02313,-0.048 0.06996,-0.076 0.09284,-0.1238 C 38.235839,1033.6981 38.360746,1033.4116 38.480108,1033.1276 z m -25.996534,5.1065 c 0.185552,0.2552 0.348888,0.5154 0.557069,0.7737 -0.05657,-0.093 -0.113313,-0.2591 -0.18569,-0.4024 C 12.728259,1038.4811 12.607046,1038.3647 12.483574,1038.234 z m 22.313692,1.7642 c 0,0 -0.64228,0.07 -1.640258,0.061 -0.318952,0.1792 -0.633841,0.3543 -0.959396,0.4952 0.456172,0.027 0.847485,0.033 1.206982,0.031 C 33.859344,1040.4248 34.316796,1040.2263 34.797266,1039.9981 z m -6.74672,1.9806 c -0.2321,0.066 -0.466857,0.1265 -0.71181,0.1857 -0.382889,0.092 -0.762002,0.2092 -1.145085,0.2785 0.16621,-4e-4 0.306672,-0.024 0.464224,-0.031 C 27.106465,1042.2937 27.580373,1042.1487 28.050546,1041.9787 z m -3.032929,1.2689 c -0.308413,0.044 -0.631873,0.1004 -0.928447,0.1238 0.03657,0.018 0.05726,0.014 0.09284,0.031 0.461824,0.047 0.944526,0.091 1.454568,0.093 C 25.636582,1043.4953 25.375066,1043.3915 25.017617,1043.2476 Z"
       id="path1597"
       inkscape:connector-curvature="0" />
    <path
       style="fill:#000000;fill-opacity:0.0994152"
       d="m 20.71581,1023.194 c -0.239318,0.024 -0.461259,0.021 -0.742758,0.062 -0.288133,0.042 -0.549927,0.2015 -0.742758,0.3404 0.06463,0.1243 0.102739,0.2754 0.154741,0.4023 0.111924,0.1555 0.202794,0.238 0.247586,0.2476 0.03592,-0.072 0.110563,-0.1189 0.154741,-0.1857 C 20.02298,1023.7054 20.35593,1023.4073 20.71581,1023.194 Z"
       id="path265"
       inkscape:connector-curvature="0"
       sodipodi:nodetypes="cccccsc" />
    <path
       style="fill:#000000;fill-opacity:0.0994152"
       d="m 21.42762,1021.0896 c 0.142142,0.077 0.387851,0.2145 0.649913,0.4642 0.270366,0.2573 0.34332,0.5336 0.371379,0.8047 0.05442,-0.1167 0.03069,-0.2259 0.09285,-0.4333 0.05154,-0.1714 0.106609,-0.545 -0.371379,-0.7427 -0.01504,0 -0.04605,0 -0.0619,0 C 21.931208,1021.1558 21.721791,1021.1164 21.42762,1021.0896 Z"
       id="path377"
       inkscape:connector-curvature="0" />
    <path
       style="fill:#ffffff;fill-opacity:0.50292394"
       d="m 27.555374,1015.395 c 0.05784,0.012 0.05914,0.017 0.123793,0.031 0.03193,0 0.06116,0.028 0.09285,0.031 0.05588,0.01 0.09961,0.024 0.154741,0.031 3.797418,0.4662 5.801033,2.2461 6.839564,3.6209 0.136714,0.1056 0.308825,0.2322 0.402328,0.3095 -0.764689,-1.2086 -2.382355,-3.0459 -5.601634,-3.8685 -0.04122,-0.01 -0.08309,-0.026 -0.123793,-0.031 -0.02797,-0.01 -0.06464,0.01 -0.09285,0 C 28.634417,1015.427 27.994259,1015.4025 27.555374,1015.395 z m -8.015598,1.9188 c -0.660531,0.5054 -1.006193,1.2387 -1.05224,2.2283 0.104349,-1.0374 0.582631,-1.755 1.423619,-2.2283 0.04978,-0.028 -0.08149,-0.031 -0.340431,0 C 19.562481,1017.3148 19.548204,1017.3128 19.539776,1017.3138 z m 9.903442,0.061 c 2.331217,0.7473 4.006903,2.0956 4.95172,3.59 1.019817,1.9157 1.538995,3.8108 1.640258,5.6018 -0.06561,-1.8663 -0.57245,-3.8434 -1.640258,-5.8493 -0.822875,-1.3016 -2.203291,-2.5011 -4.085169,-3.2805 -0.0099,0 -0.02098,0 -0.03095,0 C 30.007984,1017.4013 29.732986,1017.3872 29.443218,1017.3758 z m 5.880168,0.7738 c 0.03023,0.1088 0.04006,0.2862 0.0619,0.4333 0.02018,0.043 0.04302,0.08 0.0619,0.1237 -0.01468,-0.2037 -0.03408,-0.3396 -0.0619,-0.4951 C 35.36657,1018.1885 35.341699,1018.1721 35.323386,1018.1495 z m 1.021292,0.4333 c 0.0099,0.037 0.02192,0.088 0.03095,0.1237 0.05052,0.1997 0.09657,0.3972 0.123793,0.5571 0.01231,0.074 0.0228,0.1824 0.03095,0.2477 0.01,0.082 0.02608,0.1807 0.03095,0.2476 1.49e-4,-0.054 0.0049,-0.1664 0,-0.2476 -0.0049,-0.066 -0.02096,-0.1654 -0.03095,-0.2477 -0.0081,-0.065 -0.01864,-0.1733 -0.03095,-0.2476 -0.01825,-0.1073 -0.06199,-0.2411 -0.09285,-0.3713 C 36.384563,1018.6286 36.368169,1018.5996 36.344678,1018.5828 z m 1.764051,0.4022 c 0,0 0.03449,0.1458 0.0619,0.4024 -0.0033,-0.036 0.0033,-0.091 0,-0.1238 C 38.145451,1019.1736 38.135657,1019.0737 38.108729,1018.985 z m -23.242139,0.9285 c -2.003714,0.1636 -2.841112,1.5448 -3.032929,3.6519 0.325148,-2.7653 1.873011,-4.1724 5.880168,-3.033 l 0.990344,1.238 c -0.02537,-0.1074 -0.04063,-0.2061 -0.0619,-0.3094 l -0.928448,-1.1761 C 16.568927,1019.9593 15.638041,1019.8505 14.86659,1019.9135 z m -5.0755139,0.093 c 1.094e-4,0.074 -0.00255,0.1405 0,0.2166 0.051823,0.1468 0.1277716,0.303 0.1547412,0.4642 C 9.9788324,1020.4657 9.8676112,1020.2209 9.7910761,1020.0064 z m -1.1141372,4.178 c -0.2661692,0.4499 -0.4766067,0.8939 -0.6189651,1.2071 -0.00879,0.032 -0.02244,0.061 -0.030948,0.093 -0.058845,0.2177 -0.142351,0.4462 -0.1856896,0.6499 0,0 0.2536645,-0.6303 0.6499134,-1.3617 C 8.5463811,1024.5669 8.6151113,1024.3554 8.6769389,1024.1845 z m 10.5843031,1.5784 c -0.624744,-0.065 -1.415875,0.1256 -3.094825,0.588 -0.03498,0.01 -0.04706,0 -0.0619,-0.031 -0.0486,0.1858 -0.01717,0.3003 0.0619,0.2785 2.238599,-0.6166 2.874901,-0.7399 3.682842,-0.4333 -0.0041,-0.054 -0.02095,-0.1707 -0.03095,-0.2476 C 19.627208,1025.8472 19.459239,1025.7836 19.261242,1025.7628 z m 20.425848,1.6094 c -0.0012,0.032 -0.02961,0.061 -0.03095,0.093 -0.01277,0.2984 -0.0029,0.614 -0.03095,0.8976 C 39.652905,1028.0371 39.679634,1027.7168 39.68709,1027.3722 z m -0.0619,0.9903 c -0.271765,2.7398 -1.240545,4.7692 -2.29017,6.2205 -0.01595,0.022 -0.0459,0.041 -0.0619,0.062 -0.239885,0.2332 -0.467341,0.4555 -0.71181,0.6499 -0.204655,0.3745 -0.44095,0.7509 -0.680861,1.1142 0.117284,-0.091 0.205744,-0.1882 0.309482,-0.2786 0.122712,-0.1983 0.262383,-0.3886 0.371379,-0.588 0.244469,-0.1946 0.471925,-0.4166 0.71181,-0.65 0.01599,-0.022 0.04594,-0.04 0.0619,-0.061 C 38.411491,1033.3422 39.382871,1031.2085 39.625193,1028.3625 z m -0.959395,-0.7119 c -0.08618,1.0504 -0.204829,2.076 -0.340431,3.0949 0.01301,-0.02 0.01816,-0.042 0.03095,-0.061 C 38.484459,1029.6906 38.586688,1028.6693 38.665798,1027.6506 z m -26.95593,0.9288 c 0.02625,0.1139 0.05618,0.2289 0.09285,0.3405 0.08663,0.075 0.180143,0.1394 0.278534,0.2166 0.262338,0.2056 0.603802,0.4231 0.959396,0.6188 0.183283,0.1025 0.376119,0.2112 0.588017,0.3096 -0.103514,-0.1249 -0.182219,-0.2694 -0.278535,-0.4023 -0.101938,-0.054 -0.214064,-0.1014 -0.309482,-0.1548 -0.355594,-0.1958 -0.697058,-0.4133 -0.959396,-0.6189 C 11.946374,1028.7828 11.822956,1028.6877 11.709868,1028.5791 z m -3.5590494,0.3714 c -0.00701,0.038 -0.024521,0.088 -0.030948,0.1238 7.317e-4,0.01 -7.58e-4,0.021 0,0.031 -0.018654,0.1048 -0.048295,0.2552 -0.061897,0.3403 -0.011162,0.065 -0.021233,0.1253 -0.030948,0.1857 -0.00987,0.052 -0.023778,0.1083 -0.030948,0.1548 0.00117,0.085 -0.00248,0.1596 0,0.2476 0.00717,-0.046 0.021078,-0.103 0.030948,-0.1548 0.00972,-0.06 0.019786,-0.1203 0.030948,-0.1857 0.013601,-0.085 0.043242,-0.2356 0.061897,-0.3404 -7.58e-4,-0.01 7.317e-4,-0.022 0,-0.031 0.00643,-0.036 0.023933,-0.086 0.030948,-0.1239 0.055652,0.4185 0.1362118,0.8526 0.247586,1.2998 0.00804,0.034 0.022597,0.059 0.030948,0.093 0.1271634,0.4963 0.2670972,1.001 0.4642238,1.5473 0,0 -0.046333,-0.2807 -0.092845,-0.5571 -0.1408211,-0.4248 -0.2696483,-0.8408 -0.371379,-1.238 -0.00835,-0.034 -0.022907,-0.06 -0.030948,-0.093 C 8.2870304,1029.8032 8.206471,1029.3688 8.1508186,1028.9505 z m 0.4642238,0.3404 c 0.0012,0.088 -0.00283,0.1617 0,0.2476 0.00419,0.02 0.026542,0.042 0.030948,0.061 0.078919,0.3603 0.1746319,0.7489 0.3094825,1.1761 7.9e-6,-0.079 -0.00165,-0.1706 0,-0.2476 C 8.8130941,1030.0778 8.6942145,1029.6677 8.6150424,1029.2909 z m 15.2265416,0.7118 c -0.356617,0.021 -0.659869,0.045 -0.990345,0.093 -0.328826,0.1474 -0.622751,0.312 -0.773706,0.3714 0,0 1.758467,-0.3257 2.413964,-0.2167 0.888458,0.1479 1.186354,1.1269 1.609309,0.7118 0.06043,-0.059 0.06811,-0.1969 0.03095,-0.3404 -0.01159,0.035 -0.0093,0.071 -0.03095,0.093 -0.422955,0.415 -0.720851,-0.5639 -1.609309,-0.7119 C 24.327623,1029.9755 24.09862,1029.9876 23.841584,1030.0027 z m -4.951721,0.9595 c 0.183783,1.0292 0.760986,1.5486 1.114137,1.7949 0.930797,0.279 2.965343,0.028 3.837584,-0.6189 0.587672,-0.437 1.019215,-0.7599 1.392671,-0.8976 -0.08252,-0.056 -0.150904,-0.099 -0.216638,-0.1238 -0.326918,0.1654 -0.692134,0.414 -1.176033,0.7738 -0.872241,0.6467 -2.906787,0.8979 -3.837584,0.6189 -0.309586,-0.2159 -0.783327,-0.6594 -1.021292,-1.4547 C 18.95862,1031.0333 18.889863,1030.9622 18.889863,1030.9622 z m -6.158703,0.7736 c 0.05176,0.1147 0.101626,0.2261 0.154742,0.3405 0.23704,0.1397 0.485829,0.2689 0.773706,0.4023 0,0 -0.145361,-0.2177 -0.278534,-0.4023 C 13.155708,1031.9628 12.923053,1031.8553 12.73116,1031.7358 z m -3.7137903,0.1548 c 0.046033,0.5634 0.1119271,1.1651 0.2785343,1.8259 0.1169488,0.265 0.2013642,0.5294 0.3404308,0.8047 0.070512,0.1396 0.1403397,0.26 0.2166378,0.4023 0.014469,0.028 0.04722,0.096 0.061897,0.1238 0.04718,0.086 0.1054224,0.1596 0.1547414,0.2475 0.04453,0.079 0.07723,0.1368 0.123793,0.2165 0.0051,0.01 0.02617,0.022 0.03095,0.031 0.09568,0.1633 0.179023,0.3063 0.278534,0.4642 0.103606,0.1661 0.202086,0.3661 0.309482,0.5261 0.07816,0.1165 0.167477,0.1964 0.247587,0.3095 0.493629,0.9836 1.147963,2 1.980688,3.033 -0.08307,-0.1364 -0.164173,-0.3487 -0.278534,-0.5881 -0.01422,-0.03 -0.04725,-0.062 -0.0619,-0.093 -0.666622,-0.8775 -1.218863,-1.76 -1.640257,-2.5997 -0.08011,-0.1131 -0.169429,-0.193 -0.247587,-0.3094 -0.107396,-0.1601 -0.205876,-0.36 -0.309482,-0.5262 -0.09951,-0.1579 -0.182857,-0.3009 -0.278534,-0.4642 -0.0048,-0.01 -0.0259,-0.021 -0.03095,-0.031 -0.04657,-0.08 -0.07927,-0.1373 -0.123793,-0.2166 -0.04932,-0.088 -0.1075614,-0.1614 -0.1547414,-0.2475 -0.014677,-0.028 -0.047428,-0.096 -0.061897,-0.1239 -0.076298,-0.1423 -0.1461253,-0.2627 -0.2166378,-0.4023 -0.1390666,-0.2753 -0.223482,-0.5397 -0.3404308,-0.8045 C 9.1548839,1032.91 9.0694969,1032.3795 9.0173697,1031.8906 z m 2.6615503,1.4855 c 0.0431,0.172 0.102279,0.3327 0.154741,0.4952 0.01732,0.032 0.04061,0.059 0.0619,0.093 0.171807,0.2681 0.353934,0.5222 0.557069,0.8046 0.286246,0.4004 0.605647,0.8096 0.959396,1.238 0.332249,0.4022 0.716444,0.8124 1.114137,1.2379 0.04517,0.048 0.07775,0.1064 0.123793,0.1548 0.219665,0.2318 0.471437,0.4735 0.71181,0.7117 0.207781,0.1282 0.407464,0.2567 0.618965,0.3714 -0.04513,-0.043 -0.07932,-0.081 -0.123793,-0.1238 -0.432878,-0.4114 -0.834507,-0.8137 -1.206982,-1.2069 -0.04604,-0.048 -0.07862,-0.1063 -0.123793,-0.1548 -0.397693,-0.4254 -0.781888,-0.8356 -1.114137,-1.2379 -0.353749,-0.4284 -0.67315,-0.8376 -0.959396,-1.238 -0.203135,-0.2824 -0.385262,-0.5365 -0.557069,-0.8046 -0.0477,-0.074 -0.07834,-0.1433 -0.123793,-0.2166 C 11.745837,1033.4583 11.704114,1033.4177 11.67892,1033.3761 z m 26.460757,1.176 c -0.103719,0.071 -0.207324,0.143 -0.309482,0.2165 -2.429626,3.7057 -5.13952,5.6217 -7.644219,6.5301 0.179728,0.011 0.346573,0.02 0.52612,0.031 C 33.174872,1040.3084 35.799816,1038.3079 38.139677,1034.5522 z m -25.748948,3.6828 c 0.07409,0.1775 0.145024,0.3136 0.216638,0.4643 0.965113,0.9938 2.025878,1.7978 3.156722,2.4449 0.02028,0.011 0.04161,0.02 0.0619,0.031 0.01253,0.01 0.01842,0.023 0.03095,0.031 0.345974,0.1943 0.693429,0.3947 1.052241,0.557 0.269069,0.1949 0.547634,0.3569 0.835602,0.5262 0.09157,0.054 0.184744,0.1025 0.278535,0.1547 0.163782,0.09 0.322863,0.1948 0.495172,0.2786 0.112549,0.054 0.224906,0.1036 0.340431,0.1547 0.718881,0.3145 1.486329,0.555 2.321119,0.7118 0.30827,0.1145 0.621361,0.216 0.959396,0.3095 0.33816,0.093 0.682125,0.1811 1.05224,0.2476 0.748124,0.1387 1.552522,0.2132 2.444912,0.2166 0,0 -0.165595,-0.05 -0.433275,-0.1547 -0.06811,-0.027 -0.197072,-0.089 -0.278534,-0.1238 -0.608435,-0.031 -1.194765,-0.086 -1.733103,-0.1857 -0.370115,-0.066 -0.71408,-0.1555 -1.05224,-0.2476 -0.338035,-0.093 -0.651126,-0.1949 -0.959396,-0.3094 -0.83479,-0.1568 -1.602238,-0.3974 -2.321119,-0.7119 -0.115525,-0.052 -0.227882,-0.1003 -0.340431,-0.1547 -0.172309,-0.084 -0.33139,-0.1885 -0.495172,-0.2788 -0.0938,-0.053 -0.186967,-0.1002 -0.278535,-0.1547 -0.287968,-0.169 -0.566533,-0.3309 -0.835602,-0.5261 -0.358812,-0.1624 -0.706267,-0.3628 -1.052241,-0.5571 -0.01253,-0.01 -0.01842,-0.021 -0.03095,-0.031 -0.02028,-0.011 -0.04162,-0.02 -0.0619,-0.031 C 14.548128,1040.2008 13.412785,1039.3365 12.390729,1038.2349 z m 19.34266,3.4041 c -0.07184,0.016 -0.146415,0.049 -0.216638,0.062 -0.576874,0.1104 -1.114616,0.1688 -1.640258,0.1856 -0.372721,0.011 -0.734832,0 -1.083189,-0.031 -0.460483,0.1575 -0.951982,0.2808 -1.454568,0.4023 -0.382889,0.092 -0.762002,0.2093 -1.145085,0.2788 0.476572,0 0.93387,-0.044 1.330775,-0.093 0.02961,-0.01 0.06333,0.01 0.09285,0 0.403717,-0.1001 0.802495,-0.2128 1.176033,-0.3404 0.109395,0.01 0.228421,-0.01 0.340431,0 0.02166,-0.01 0.0764,0.01 0.09284,0 0.215426,0.01 0.426159,0.038 0.649913,0.031 0.525642,-0.017 1.063384,-0.075 1.640258,-0.1857 0.327806,-0.062 0.675504,-0.1509 1.021292,-0.2475 C 32.285705,1041.6838 31.999827,1041.6573 31.733389,1041.6393 z m -2.259223,0.619 c 0,0 -0.577566,0.1863 -1.454568,0.3405 -0.01023,0 -0.02063,0 -0.03095,0 -1.400536,0.5001 -2.693541,0.7715 -3.89948,0.8666 0.176946,0.085 0.280546,0.1168 0.433275,0.1857 C 26.028342,1043.4866 27.68044,1043.088 29.474166,1042.2582 Z"
       id="path2311"
       inkscape:connector-curvature="0" />
  </g>
</svg>
