<?xml version="1.0" encoding="UTF-8" standalone="no"?>
<!-- Created with Inkscape (http://www.inkscape.org/) -->

<svg
   xmlns:dc="http://purl.org/dc/elements/1.1/"
   xmlns:cc="http://creativecommons.org/ns#"
   xmlns:rdf="http://www.w3.org/1999/02/22-rdf-syntax-ns#"
   xmlns:svg="http://www.w3.org/2000/svg"
   xmlns="http://www.w3.org/2000/svg"
   xmlns:xlink="http://www.w3.org/1999/xlink"
   xmlns:sodipodi="http://sodipodi.sourceforge.net/DTD/sodipodi-0.dtd"
   xmlns:inkscape="http://www.inkscape.org/namespaces/inkscape"
   width="48"
   height="48"
   id="svg2"
   version="1.1"
   inkscape:version="0.48+devel r12064"
   sodipodi:docname="flash.svg">
  <defs
     id="defs4">
    <linearGradient
       id="linearGradient868">
      <stop
         style="stop-color:#aa0000;stop-opacity:1"
         offset="0"
         id="stop870" />
      <stop
         style="stop-color:#ff5555;stop-opacity:1"
         offset="1"
         id="stop872" />
    </linearGradient>
    <linearGradient
       inkscape:collect="always"
       xlink:href="#linearGradient868"
       id="linearGradient1403"
       x1="91.081619"
       y1="-1057.2456"
       x2="91.081619"
       y2="-1009.2728"
       gradientUnits="userSpaceOnUse" />
  </defs>
  <sodipodi:namedview
     id="base"
     pagecolor="#ffffff"
     bordercolor="#666666"
     borderopacity="1.0"
     inkscape:pageopacity="0.0"
     inkscape:pageshadow="2"
     inkscape:zoom="4.0000002"
     inkscape:cx="-14.859556"
     inkscape:cy="30.366261"
     inkscape:document-units="px"
     inkscape:current-layer="layer1"
     showgrid="false"
     inkscape:window-width="1366"
     inkscape:window-height="718"
     inkscape:window-x="0"
     inkscape:window-y="28"
     inkscape:window-maximized="1" />
  <metadata
     id="metadata7">
    <rdf:RDF>
      <cc:Work
         rdf:about="">
        <dc:format>image/svg+xml</dc:format>
        <dc:type
           rdf:resource="http://purl.org/dc/dcmitype/StillImage" />
        <dc:title />
      </cc:Work>
    </rdf:RDF>
  </metadata>
  <g
     inkscape:label="Capa 1"
     inkscape:groupmode="layer"
     id="layer1"
     transform="translate(0,-1004.3622)">
    <g
       id="g1405"
       transform="translate(-67.039993,-4.9080818)">
      <rect
         transform="scale(1,-1)"
         ry="1.9445436"
         y="-1057.2703"
         x="67.039993"
         height="48"
         width="48"
         id="rect2991-1"
         style="fill:url(#linearGradient1403);fill-opacity:1;stroke:none" />
      <path
         id="rect846"
         d="m 67.039994,1054.2703 0,1.0625 c 0,1.0773 0.860223,1.9375 1.9375,1.9375 l 44.124996,0 c 1.07728,0 1.9375,-0.8602 1.9375,-1.9375 l 0,-1.0625 c 0,1.0773 -0.86022,1.9375 -1.9375,1.9375 l -44.124996,0 C 67.900217,1056.2078 67.039994,1055.3476 67.039994,1054.2703 Z"
         style="fill:#000000;fill-opacity:1;stroke:none"
         inkscape:connector-curvature="0" />
      <path
         id="path7515"
         d="m 69.571244,1009.9266 c -0.917088,0 -1.671147,0.6395 -1.84375,1.5 0.335612,-0.2799 0.774512,-0.4375 1.25,-0.4375 l 44.124996,0 c 0.47549,0 0.91439,0.1576 1.25,0.4375 -0.1726,-0.8605 -0.92666,-1.5 -1.84375,-1.5 L 69.571244,1009.9266 Z"
         style="fill:#ffffff;fill-opacity:0.5372549;stroke:none"
         inkscape:connector-curvature="0" />
      <path
         id="rect4280-0"
         d="m 68.977494,1009.2703 c -1.077277,0 -1.9375,0.8602 -1.9375,1.9375 l 0,43.0625 c 0,0.7934 0.480024,1.449 1.15625,1.75 -0.309342,-0.3333 -0.5,-0.7824 -0.5,-1.2812 l 0,-42.9375 c 0,-1.0482 0.826899,-1.875 1.875,-1.875 l 42.937496,0 c 1.04811,0 1.875,0.8268 1.875,1.875 l 0,42.9375 c 0,0.4988 -0.19065,0.9479 -0.5,1.2812 0.67623,-0.301 1.15625,-0.9566 1.15625,-1.75 l 0,-43.0625 c 0,-1.0773 -0.86022,-1.9375 -1.9375,-1.9375 L 68.977494,1009.2703 Z"
         style="fill:#000000;fill-opacity:0.39215686;stroke:none"
         inkscape:connector-curvature="0" />
    </g>
    <path
       style="fill:#ffffff;fill-opacity:1;stroke:none"
       id="path3727"
       inkscape:connector-curvature="0"
       d="m 36.799877,1012.3727 0,6.4376 c -6.427173,0.1127 -8.006733,6.3808 -8.006733,6.3808 l 4.847614,0 0,6.4375 -7.516523,0 c -4.520806,13.9472 -14.924112,12.7052 -14.924112,12.7052 l 0,-6.4375 c 0,0 6.60154,1.2248 9.967565,-11.0677 C 25.378275,1011.4522 36.799877,1012.3727 36.799877,1012.3727 Z" />
  </g>
</svg>
