<?xml version="1.0" encoding="UTF-8" standalone="no"?>
<!-- Created with Inkscape (http://www.inkscape.org/) -->

<svg
   xmlns:dc="http://purl.org/dc/elements/1.1/"
   xmlns:cc="http://creativecommons.org/ns#"
   xmlns:rdf="http://www.w3.org/1999/02/22-rdf-syntax-ns#"
   xmlns:svg="http://www.w3.org/2000/svg"
   xmlns="http://www.w3.org/2000/svg"
   xmlns:xlink="http://www.w3.org/1999/xlink"
   xmlns:sodipodi="http://sodipodi.sourceforge.net/DTD/sodipodi-0.dtd"
   xmlns:inkscape="http://www.inkscape.org/namespaces/inkscape"
   width="48"
   height="48"
   id="svg2"
   version="1.1"
   inkscape:version="0.48+devel r12137"
   sodipodi:docname="geary.svg">
  <defs
     id="defs4">
    <linearGradient
       inkscape:collect="always"
       id="linearGradient897">
      <stop
         style="stop-color:#000000;stop-opacity:1"
         offset="0"
         id="stop899" />
      <stop
         style="stop-color:#333333;stop-opacity:1"
         offset="1"
         id="stop901" />
    </linearGradient>
    <linearGradient
       inkscape:collect="always"
       id="linearGradient874">
      <stop
         style="stop-color:#ff5555;stop-opacity:1"
         offset="0"
         id="stop876" />
      <stop
         style="stop-color:#aa0000;stop-opacity:1"
         offset="1"
         id="stop878" />
    </linearGradient>
    <linearGradient
       inkscape:collect="always"
       id="linearGradient866">
      <stop
         style="stop-color:#aa0000;stop-opacity:1"
         offset="0"
         id="stop868" />
      <stop
         style="stop-color:#800000;stop-opacity:1"
         offset="1"
         id="stop870" />
    </linearGradient>
    <linearGradient
       inkscape:collect="always"
       xlink:href="#linearGradient897"
       id="linearGradient1452"
       x1="26.465649"
       y1="47.53648"
       x2="26.465649"
       y2="16.986317"
       gradientUnits="userSpaceOnUse"
       gradientTransform="matrix(1.5941642,0,0,1.5941642,-14.259948,977.11157)" />
    <linearGradient
       inkscape:collect="always"
       xlink:href="#linearGradient897"
       id="linearGradient1489"
       gradientUnits="userSpaceOnUse"
       gradientTransform="matrix(1.5941642,0,0,-1.5941642,-14.259948,1079.6128)"
       x1="25.232605"
       y1="17.188345"
       x2="25.232605"
       y2="47.520309" />
    <linearGradient
       y2="-1004.4658"
       x2="15.909904"
       y1="-1052.2942"
       x1="15.909904"
       gradientUnits="userSpaceOnUse"
       id="linearGradient1585"
       xlink:href="#linearGradient897"
       inkscape:collect="always"
       gradientTransform="translate(0,-2.5322813e-5)" />
    <linearGradient
       gradientUnits="userSpaceOnUse"
       y2="1005.917"
       x2="23.812502"
       y1="1051.1122"
       x1="23.812502"
       id="linearGradient1474"
       xlink:href="#linearGradient3987"
       inkscape:collect="always" />
    <linearGradient
       inkscape:collect="always"
       id="linearGradient3987">
      <stop
         style="stop-color:#1b1b1b;stop-opacity:1"
         offset="0"
         id="stop3989" />
      <stop
         style="stop-color:#666666;stop-opacity:1"
         offset="1"
         id="stop3991" />
    </linearGradient>
    <radialGradient
       inkscape:collect="always"
       xlink:href="#linearGradient866"
       id="radialGradient872"
       cx="24"
       cy="1028.3621"
       fx="24"
       fy="1028.3621"
       r="7.4575535"
       gradientTransform="translate(0,4.8263382e-4)"
       gradientUnits="userSpaceOnUse" />
    <radialGradient
       inkscape:collect="always"
       xlink:href="#linearGradient874"
       id="radialGradient880"
       cx="24.002917"
       cy="1028.2342"
       fx="24.002917"
       fy="1028.2342"
       r="6.6728715"
       gradientTransform="matrix(1,0,0,1.0186109,0,-19.13634)"
       gradientUnits="userSpaceOnUse" />
    <radialGradient
       inkscape:collect="always"
       xlink:href="#linearGradient866"
       id="radialGradient888"
       cx="24.002916"
       cy="1028.2343"
       fx="24.002916"
       fy="1028.2343"
       r="5.8987465"
       gradientTransform="matrix(1,0,0,1.0186097,0,-19.135158)"
       gradientUnits="userSpaceOnUse" />
  </defs>
  <sodipodi:namedview
     id="base"
     pagecolor="#ffffff"
     bordercolor="#666666"
     borderopacity="1.0"
     inkscape:pageopacity="0.0"
     inkscape:pageshadow="2"
     inkscape:zoom="1.9999999"
     inkscape:cx="-91.378264"
     inkscape:cy="-7.6699179"
     inkscape:document-units="px"
     inkscape:current-layer="layer1"
     showgrid="false"
     inkscape:window-width="1366"
     inkscape:window-height="714"
     inkscape:window-x="0"
     inkscape:window-y="30"
     inkscape:window-maximized="1"
     showguides="false"
     inkscape:guide-bbox="true">
    <inkscape:grid
       type="xygrid"
       id="grid3850" />
  </sodipodi:namedview>
  <metadata
     id="metadata7">
    <rdf:RDF>
      <cc:Work
         rdf:about="">
        <dc:format>image/svg+xml</dc:format>
        <dc:type
           rdf:resource="http://purl.org/dc/dcmitype/StillImage" />
        <dc:title />
      </cc:Work>
    </rdf:RDF>
  </metadata>
  <g
     inkscape:label="Capa 1"
     inkscape:groupmode="layer"
     id="layer1"
     transform="translate(0,-1004.3622)">
    <rect
       style="fill:url(#linearGradient1585);fill-opacity:1;stroke:none"
       id="rect2991-1"
       width="48"
       height="48"
       x="0"
       y="-1052.3622"
       ry="1.9445437"
       transform="scale(1,-1)" />
    <path
       inkscape:connector-curvature="0"
       style="color:#000000;fill:#000000;fill-opacity:0.30337118;fill-rule:nonzero;stroke:none;stroke-width:0.2;marker:none;visibility:visible;display:inline;overflow:visible;enable-background:accumulate"
       d="M 24,1023.081 -3.0508424e-8,1041.8622 l 0,8.5625 c 0,1.0773 0.860222900508424,1.9375 1.937500030508424,1.9375 l 44.125,0 c 1.077277,0 1.9375,-0.8602 1.9375,-1.9375 l 0,-8.5625 L 24,1023.081 Z"
       id="path1466" />
    <path
       inkscape:connector-curvature="0"
       style="color:#000000;fill:url(#linearGradient1452);fill-opacity:1;fill-rule:nonzero;stroke:none;stroke-width:0.2;marker:none;visibility:visible;display:inline;overflow:visible;enable-background:accumulate"
       d="m 24,1023.7372 -24.000000030508424,18.75 0,7.9375 c 0,1.0773 0.860222900508424,1.9375 1.937500030508424,1.9375 l 44.125,0 c 1.077277,0 1.9375,-0.8602 1.9375,-1.9375 l 0,-7.9375 L 24,1023.7372 Z"
       id="path1441" />
    <path
       style="color:#000000;fill:#ffffff;fill-opacity:0.05847953;fill-rule:nonzero;stroke:none;stroke-width:0.2;marker:none;visibility:visible;display:inline;overflow:visible;enable-background:accumulate"
       d="m 24,1023.7372 -24,18.7813 0,0.9062 24,-18.7812 24,18.7812 0,-0.9062 L 24,1023.7372 Z"
       id="path955"
       inkscape:connector-curvature="0" />
    <path
       inkscape:connector-curvature="0"
       style="color:#000000;fill:#000000;fill-opacity:0.30337118;fill-rule:nonzero;stroke:none;stroke-width:0.2;marker:none;visibility:visible;display:inline;overflow:visible;enable-background:accumulate"
       d="m 1.9375,1004.3622 c -1.07727713,0 -1.937500030508422,0.8602 -1.937500030508422,1.9375 l 0,8.5625 L 24,1033.6435 l 24,-18.7813 0,-8.5625 c 0,-1.0773 -0.860223,-1.9375 -1.9375,-1.9375 L 1.9375,1004.3622 Z"
       id="path1485" />
    <path
       inkscape:connector-curvature="0"
       style="color:#000000;fill:url(#linearGradient1489);fill-opacity:1;fill-rule:nonzero;stroke:none;stroke-width:0.2;marker:none;visibility:visible;display:inline;overflow:visible;enable-background:accumulate"
       d="m 1.9375,1004.3622 c -1.07727713,0 -1.937500030508422,0.8602 -1.937500030508422,1.9375 l 0,7.9375 L 24,1032.9872 l 24,-18.75 0,-7.9375 c 0,-1.0773 -0.860223,-1.9375 -1.9375,-1.9375 L 1.9375,1004.3622 Z"
       id="path1487" />
    <path
       inkscape:connector-curvature="0"
       id="path960"
       d="m 24,1032.9872 -24,-18.7813 0,-0.9062 24,18.7812 24,-18.7812 0,0.9062 L 24,1032.9872 Z"
       style="color:#000000;fill:#ffffff;fill-opacity:0.05847952;fill-rule:nonzero;stroke:none;stroke-width:0.2;marker:none;visibility:visible;display:inline;overflow:visible;enable-background:accumulate" />
    <path
       inkscape:connector-curvature="0"
       style="fill:#000000;fill-opacity:0.25490196;stroke:none"
       d="m 1.9375,1004.3622 c -1.07727703,0 -1.937500030508422,0.8602 -1.937500030508422,1.9375 l 0,44.125 c 0,1.0773 0.860223000508422,1.9375 1.937500030508422,1.9375 l 44.125,0 c 1.077277,0 1.9375,-0.8602 1.9375,-1.9375 l 0,-44.125 c 0,-1.0773 -0.860223,-1.9375 -1.9375,-1.9375 L 1.9375,1004.3622 z m 0.59375,0.6563 42.9375,0 c 1.048101,0 1.875,0.8268 1.875,1.875 l 0,42.9375 c 0,1.0481 -0.826899,1.875 -1.875,1.875 l -42.9375,0 c -1.048101,0 -1.87500003,-0.8269 -1.87500003,-1.875 l 0,-42.9375 C 0.65624997,1005.8453 1.483149,1005.0185 2.53125,1005.0185 Z"
       id="rect4280" />
    <path
       style="color:#000000;fill:url(#radialGradient872);fill-opacity:1;fill-rule:nonzero;stroke:none;stroke-width:0.2;marker:none;visibility:visible;display:inline;overflow:visible;enable-background:accumulate"
       d="m 31.457554,1028.3622 c 0,1.4413 -0.50746,2.7872 -1.215576,3.9278 -0.447339,0.7206 -0.741196,1.6208 -1.429809,2.1049 -1.33619,0.9392 -3.045351,1.4248 -4.812169,1.4248 -0.792942,0 -1.754111,-0.7644 -2.470983,-0.9936 -1.477904,-0.4727 -2.558215,-0.753 -3.47519,-1.9623 -0.266331,-0.3513 -0.107989,-1.1211 -0.309582,-1.5171 -0.516391,-1.0143 -1.201798,-1.7683 -1.201798,-2.9845 0,-1.5324 0.659333,-2.5626 1.451933,-3.7473 1.337684,-1.9995 3.41934,-3.7103 6.00562,-3.7103 1.929603,0 3.688039,0.7329 5.012161,1.9354 0.566201,0.5143 0.806573,1.6565 1.193374,2.3219 C 30.844957,1026.2619 31.457554,1026.9982 31.457554,1028.3622 Z"
       id="path1002"
       inkscape:connector-curvature="0"
       sodipodi:nodetypes="sssssssssssss" />
    <path
       style="color:#000000;fill:#ffffff;fill-opacity:0.14035088;fill-rule:nonzero;stroke:none;stroke-width:0.2;marker:none;visibility:visible;display:inline;overflow:visible;enable-background:accumulate"
       d="M 24 16.53125 C 21.41372 16.53125 19.337684 18.2505 18 20.25 C 17.2074 21.4347 16.53125 22.4676 16.53125 24 C 16.53125 24.098006 16.554045 24.188869 16.5625 24.28125 C 16.652858 22.933576 17.268064 21.969025 18 20.875 C 19.337684 18.8755 21.41372 17.15625 24 17.15625 C 25.929603 17.15625 27.675878 17.89125 29 19.09375 C 29.566201 19.60805 29.831949 20.74085 30.21875 21.40625 C 30.798148 22.402991 31.337963 23.112909 31.4375 24.25 C 31.440971 24.165632 31.46875 24.085055 31.46875 24 C 31.46875 22.636 30.858172 21.9125 30.21875 20.8125 C 29.831949 20.1471 29.566201 18.98305 29 18.46875 C 27.675878 17.26625 25.929603 16.53125 24 16.53125 z "
       transform="translate(0,1004.3622)"
       id="path962" />
    <path
       id="path895"
       d="m 24,1022.581 c -3.187369,0 -5.78125,2.5939 -5.78125,5.7812 0,3.1873 2.593881,5.7813 5.78125,5.7813 3.187369,0 5.78125,-2.594 5.78125,-5.7813 C 29.78125,1025.1749 27.187369,1022.581 24,1022.581 z m 0,0.1889 c 3.087691,0 5.59232,2.5046 5.59232,5.5923 0,3.0877 -2.504629,5.5923 -5.59232,5.5923 -3.087691,0 -5.59232,-2.5046 -5.59232,-5.5923 C 18.40768,1025.2745 20.912309,1022.7699 24,1022.7699 Z"
       style="fill:#000000;fill-opacity:0.08187136;stroke:none"
       inkscape:connector-curvature="0" />
    <path
       style="color:#000000;fill:url(#radialGradient880);fill-opacity:1;fill-rule:nonzero;stroke:none;stroke-width:0.2;marker:none;visibility:visible;display:inline;overflow:visible;enable-background:accumulate"
       d="m 30.669026,1028.3622 c 0.08449,1.0991 -0.641842,1.694 -1.109289,2.6098 -0.492827,0.9655 -0.603666,2.1802 -1.408237,2.8989 -0.982288,0.8773 -2.732688,1.1604 -4.1515,1.1604 -0.73478,0 -1.242803,-0.7596 -1.901285,-0.9791 -0.61826,-0.2061 -1.452582,0.1256 -1.990972,-0.1893 -0.904754,-0.529 -1.358322,-1.9607 -1.829254,-2.9587 -0.446477,-0.9463 -0.933488,-1.4429 -0.947513,-2.542 -0.01887,-1.4785 0.248076,-2.4248 0.917695,-3.2071 0.508484,-0.5941 0.904182,-1.685 1.928227,-2.2513 0.918891,-0.5081 2.410922,-0.4785 3.823102,-1.2106 1.014442,-0.5259 2.351901,-0.1946 3.263563,0.566 0.516787,0.4312 0.662624,1.0672 1.116755,1.597 0.583533,0.6809 0.615791,1.4811 1.01704,2.1834 C 29.819071,1026.7776 30.59682,1027.423 30.669026,1028.3622 Z"
       id="path1004"
       inkscape:connector-curvature="0"
       sodipodi:nodetypes="sssssssssssssss" />
    <path
       sodipodi:nodetypes="sssssssssssssss"
       inkscape:connector-curvature="0"
       id="path1007"
       d="m 29.895685,1028.3474 c 0.07469,0.9715 -0.567381,1.4974 -0.980599,2.307 -0.435654,0.8535 -0.533634,1.9273 -1.244866,2.5625 -0.868331,0.7756 -2.415667,1.0258 -3.669881,1.0258 -0.649538,0 -1.098625,-0.6714 -1.680716,-0.8655 -0.546535,-0.1821 -1.284067,0.111 -1.759998,-0.1673 -0.799793,-0.4676 -1.200742,-1.7332 -1.617041,-2.6155 -0.394681,-0.8364 -0.825193,-1.2755 -0.837591,-2.247 -0.01668,-1.3071 0.219297,-2.1436 0.811232,-2.8352 0.449494,-0.5251 0.799287,-1.4895 1.704533,-1.99 0.812289,-0.4492 2.131228,-0.4231 3.379581,-1.0702 0.896756,-0.4649 2.079054,-0.1721 2.884955,0.5003 0.456834,0.3812 0.585752,0.9434 0.987198,1.4118 0.515837,0.6019 0.544353,1.3093 0.899052,1.93 C 29.144334,1026.9466 29.831856,1027.517 29.895685,1028.3474 Z"
       style="color:#000000;fill:url(#radialGradient888);fill-opacity:1.0;fill-rule:nonzero;stroke:none;stroke-width:0.2;marker:none;visibility:visible;display:inline;overflow:visible;enable-background:accumulate" />
    <g
       id="g971"
       transform="matrix(1.0958212,0,0,1.0958212,-2.2997088,-98.5389)">
      <path
         id="path890"
         transform="translate(0,1004.3622)"
         d="m 24,19.21875 c -2.636039,0 -4.78125,2.145211 -4.78125,4.78125 0,2.636039 2.145211,4.78125 4.78125,4.78125 2.636039,0 4.78125,-2.145211 4.78125,-4.78125 C 28.78125,21.363961 26.636039,19.21875 24,19.21875 z m 0,0.15625 c 2.553604,0 4.625,2.071396 4.625,4.625 0,2.553604 -2.071396,4.625 -4.625,4.625 -2.553604,0 -4.625,-2.071396 -4.625,-4.625 C 19.375,21.446396 21.446396,19.375 24,19.375 Z"
         style="fill:#000000;fill-opacity:0.08187136;stroke:none"
         inkscape:connector-curvature="0" />
      <path
         inkscape:connector-curvature="0"
         style="fill:#000000;fill-opacity:0.08187136;stroke:none"
         d="m 24,1024.1997 c -2.294923,0 -4.162533,1.8676 -4.162533,4.1625 0,2.295 1.86761,4.1626 4.162533,4.1626 2.294922,0 4.162533,-1.8676 4.162533,-4.1626 C 28.162533,1026.0673 26.294922,1024.1997 24,1024.1997 z m 0,0.136 c 2.223155,0 4.026502,1.8035 4.026502,4.0265 0,2.2231 -1.803347,4.0264 -4.026502,4.0264 -2.223156,0 -4.026503,-1.8033 -4.026503,-4.0264 C 19.973497,1026.1391 21.776844,1024.3357 24,1024.3357 Z"
         id="path967" />
    </g>
    <g
       id="layer1-6"
       transform="matrix(0.07773278,0,0,0.07773274,18.922577,951.49721)"
       style="fill:#000000;fill-opacity:0.32748539">
      <path
         inkscape:connector-curvature="0"
         style="fill:#000000;fill-opacity:0.32748539;stroke:none"
         id="path2993"
         d="m 64,940.36218 c -26.509667,0 -48,21.49034 -48,48 0,26.50972 21.490333,48.00002 48,48.00002 26.509664,0 48,-21.4903 48,-48.00002 C 112,961.85252 90.509664,940.36218 64,940.36218 z m 0,4 c 20.15479,0 37.14462,13.55176 42.355,32.04 -4.4877,9.25637 -10.873381,17.59038 -18.650002,24.32502 -3.735795,3.2352 -7.814534,6.1193 -12.32,8.15 -4.505465,2.0307 -9.461145,3.1829 -14.394998,2.9 -3.706902,-0.2126 -7.368725,-1.2452 -10.615,-3.045 8.603218,-4.6618 16.365742,-10.87737 22.720002,-18.32002 4.170803,-4.88521 7.819942,-10.43709 9.224998,-16.705 0.702528,-3.13395 0.821581,-6.4161 0.164998,-9.56 -0.656582,-3.1439 -2.110188,-6.1399 -4.309996,-8.48 -2.149082,-2.28613 -4.97033,-3.90553 -7.995002,-4.74 -3.024672,-0.83446 -6.24345,-0.89907 -9.33,-0.335 -6.173101,1.12814 -11.684554,4.71584 -16.105,9.17 -7.79168,7.8511 -12.608581,18.92915 -11.725,29.955 0.441789,5.51292 2.289248,10.93012 5.455,15.46502 0.706642,1.0122 1.483501,1.9764 2.315,2.89 -4.611828,1.614 -9.386995,2.7629 -14.23,3.41 C 22.40195,1004.7634 20,996.8442 20,988.36218 20,964.06165 39.69947,944.36218 64,944.36218 z m 0.28,8.89 c 3.093024,0.004 6.207066,0.94057 8.675002,2.805 2.223488,1.67977 3.871027,4.06951 4.804998,6.695 0.933971,2.62549 1.173658,5.47662 0.855002,8.245 -0.637319,5.53677 -3.430458,10.61442 -6.804999,15.05 -5.975053,7.85375 -13.917093,14.13972 -22.750003,18.54002 -0.904118,0.4504 -1.822565,0.8785 -2.745,1.29 -1.921973,-1.6819 -3.569314,-3.6768 -4.825,-5.90002 -2.623798,-4.64556 -3.489056,-10.16402 -2.98,-15.475 0.509056,-5.31097 2.331648,-10.42962 4.78,-15.17 2.838755,-5.49625 6.70822,-10.70239 12.125,-13.69 C 58.12339,954.14838 61.186973,953.24799 64.28,953.25218 z m 43.325,29.22 c 0.25778,1.9268 0.395,3.89265 0.395,5.89 0,24.30052 -19.699469,44.00002 -44,44.00002 -13.647425,0 -25.844438,-6.2128 -33.915,-15.965 4.98138,-1.1314 9.850072,-2.7565 14.52,-4.825 2.042194,1.5553 4.297558,2.8309 6.695,3.75 6.904163,2.6469 14.742694,2.2639 21.730003,-0.155 6.987303,-2.4189 13.183469,-6.7606 18.584999,-11.81 C 98.049619,997.34198 103.47485,990.25205 107.605,982.47218 Z" />
    </g>
    <path
       inkscape:connector-curvature="0"
       style="fill:#000000;fill-opacity:1;stroke:none"
       d="m -2.6e-6,1049.3622 0,1.0625 c 0,1.0773 0.860223,1.9375 1.9375,1.9375 l 44.1250006,0 c 1.077277,0 1.937505,-0.8602 1.937505,-1.9375 l 0,-1.0625 c 0,1.0773 -0.860228,1.9375 -1.937505,1.9375 l -44.1250006,0 C 0.8602204,1051.2997 -2.6e-6,1050.4395 -2.6e-6,1049.3622 Z"
       id="rect846" />
    <path
       inkscape:connector-curvature="0"
       style="fill:#ffffff;fill-opacity:0.5372549;stroke:none"
       d="m 2.5312474,1005.0185 c -0.917088,0 -1.671147,0.6395 -1.84375,1.5 0.335612,-0.2799 0.774512,-0.4375 1.25,-0.4375 l 44.1250006,0 c 0.475488,0 0.914388,0.1576 1.250005,0.4375 -0.172608,-0.8605 -0.926667,-1.5 -1.843755,-1.5 L 2.5312474,1005.0185 Z"
       id="path7515" />
    <path
       inkscape:connector-curvature="0"
       style="fill:#000000;fill-opacity:0.39215686;stroke:none"
       d="m 1.9374974,1004.3622 c -1.077277,0 -1.9375,0.8602 -1.9375,1.9375 l 0,43.0625 c 0,0.7934 0.480024,1.449 1.15625,1.75 -0.309342,-0.3333 -0.5,-0.7824 -0.5,-1.2812 l 0,-42.9375 c 0,-1.0482 0.826899,-1.875 1.875,-1.875 l 42.9375006,0 c 1.048101,0 1.875005,0.8268 1.875005,1.875 l 0,42.9375 c 0,0.4988 -0.190663,0.9479 -0.500005,1.2812 0.676225,-0.301 1.156255,-0.9566 1.156255,-1.75 l 0,-43.0625 c 0,-1.0773 -0.860228,-1.9375 -1.937505,-1.9375 L 1.9374974,1004.3622 Z"
       id="rect4280-0" />
    <path
       style="color:#000000;fill:#000000;fill-opacity:0.24561404;fill-rule:nonzero;stroke:none;stroke-width:0.2;marker:none;visibility:visible;display:inline;overflow:visible;enable-background:accumulate"
       d="M 24.71875 17.875 C 24.469211 17.90242 24.224189 17.977525 24 18.09375 C 22.751647 18.74085 21.437289 18.70705 20.625 19.15625 C 19.719754 19.65675 19.355744 20.63115 18.90625 21.15625 C 18.314315 21.84785 18.07707 22.6929 18.09375 24 C 18.094379 24.049288 18.122278 24.078332 18.125 24.125 C 18.150348 23.002887 18.365453 22.225602 18.90625 21.59375 C 19.355744 21.06865 19.719754 20.09425 20.625 19.59375 C 21.437289 19.14455 22.751647 19.17835 24 18.53125 C 24.896756 18.06635 26.069099 18.35885 26.875 19.03125 C 27.331834 19.41245 27.473554 19.9691 27.875 20.4375 C 28.390837 21.0394 28.426551 21.7543 28.78125 22.375 C 29.140598 23.003972 29.802543 23.560937 29.90625 24.34375 C 29.917466 24.234813 29.915586 24.121438 29.90625 24 C 29.842421 23.1696 29.15404 22.59 28.78125 21.9375 C 28.426551 21.3168 28.390837 20.6019 27.875 20 C 27.473554 19.5316 27.331834 18.97495 26.875 18.59375 C 26.270574 18.08945 25.467367 17.792739 24.71875 17.875 z "
       transform="translate(0,1004.3622)"
       id="path931" />
    <path
       id="path936"
       d="m 24.71875,1022.657 c -0.249539,0.027 -0.494561,0.1026 -0.71875,0.2188 -1.248353,0.6471 -2.562711,0.6133 -3.375,1.0625 -0.905246,0.5005 -1.269256,1.4749 -1.71875,2 -0.591935,0.6916 -0.82918,1.5366 -0.8125,2.8437 6.29e-4,0.049 0.02853,0.078 0.03125,0.125 0.02535,-1.1221 0.240453,-1.8994 0.78125,-2.5312 0.449494,-0.5251 0.813504,-1.4995 1.71875,-2 0.812289,-0.4492 2.126647,-0.4154 3.375,-1.0625 0.896756,-0.4649 2.069099,-0.1724 2.875,0.5 0.456834,0.3812 0.598554,0.9378 1,1.4062 0.515837,0.6019 0.551551,1.3168 0.90625,1.9375 0.359348,0.629 1.021293,1.186 1.125,1.9688 0.01122,-0.1089 0.0093,-0.2223 0,-0.3438 -0.06383,-0.8304 -0.75221,-1.41 -1.125,-2.0625 -0.354699,-0.6207 -0.390413,-1.3356 -0.90625,-1.9375 -0.401446,-0.4684 -0.543166,-1.025 -1,-1.4062 C 26.270574,1022.8715 25.467367,1022.5748 24.71875,1022.657 Z"
       style="color:#000000;fill:#000000;fill-opacity:0.14035088;fill-rule:nonzero;stroke:none;stroke-width:0.2;marker:none;visibility:visible;display:inline;overflow:visible;enable-background:accumulate"
       inkscape:connector-curvature="0" />
    <path
       inkscape:connector-curvature="0"
       style="color:#000000;fill:#000000;fill-opacity:0.06432749;fill-rule:nonzero;stroke:none;stroke-width:0.2;marker:none;visibility:visible;display:inline;overflow:visible;enable-background:accumulate"
       d="m 24.71875,1023.1023 c -0.249539,0.027 -0.494561,0.1026 -0.71875,0.2188 -1.248353,0.6471 -2.562711,0.6133 -3.375,1.0625 -0.905246,0.5005 -1.269256,1.4749 -1.71875,2 -0.591935,0.6916 -0.82918,1.5366 -0.8125,2.8437 6.29e-4,0.049 0.02853,0.078 0.03125,0.125 0.02535,-1.1221 0.240453,-1.8994 0.78125,-2.5312 0.449494,-0.5251 0.813504,-1.4995 1.71875,-2 0.812289,-0.4492 2.126647,-0.4154 3.375,-1.0625 0.896756,-0.4649 2.069099,-0.1724 2.875,0.5 0.456834,0.3812 0.598554,0.9378 1,1.4062 0.515837,0.6019 0.551551,1.3168 0.90625,1.9375 0.359348,0.629 1.021293,1.186 1.125,1.9688 0.01122,-0.1089 0.0093,-0.2223 0,-0.3438 -0.06383,-0.8304 -0.75221,-1.41 -1.125,-2.0625 -0.354699,-0.6207 -0.390413,-1.3356 -0.90625,-1.9375 -0.401446,-0.4684 -0.543166,-1.025 -1,-1.4062 C 26.270574,1023.3168 25.467367,1023.0201 24.71875,1023.1023 Z"
       id="path942" />
    <path
       style="color:#000000;fill:#ffffff;fill-opacity:0.14035088;fill-rule:nonzero;stroke:none;stroke-width:0.2;marker:none;visibility:visible;display:inline;overflow:visible;enable-background:accumulate"
       d="M 17.34375 23.78125 C 17.343056 23.85891 17.342719 23.919223 17.34375 24 C 17.357775 25.0991 17.834773 25.58495 18.28125 26.53125 C 18.752182 27.52925 19.188996 28.971 20.09375 29.5 C 20.63214 29.8149 21.47549 29.4814 22.09375 29.6875 C 22.752232 29.907 23.26522 30.65625 24 30.65625 C 25.418812 30.65625 27.173962 30.3773 28.15625 29.5 C 28.960821 28.7813 29.069673 27.5905 29.5625 26.625 C 30.015339 25.737819 30.690019 25.128756 30.65625 24.09375 C 30.567436 24.956449 29.971516 25.542425 29.5625 26.34375 C 29.069673 27.30925 28.960821 28.50005 28.15625 29.21875 C 27.173962 30.09605 25.418812 30.375 24 30.375 C 23.26522 30.375 22.752232 29.62575 22.09375 29.40625 C 21.47549 29.20015 20.63214 29.53365 20.09375 29.21875 C 19.188996 28.68975 18.752182 27.248 18.28125 26.25 C 17.844317 25.323928 17.377034 24.83212 17.34375 23.78125 z "
       transform="translate(0,1004.3622)"
       id="path944" />
    <path
       id="path949"
       d="m 17.34375,1028.4247 c -6.94e-4,0.078 -0.001,0.1379 0,0.2187 0.01403,1.0991 0.491023,1.585 0.9375,2.5313 0.470932,0.998 0.907746,2.4397 1.8125,2.9687 0.53839,0.3149 1.38174,-0.019 2,0.1875 0.658482,0.2195 1.17147,0.9688 1.90625,0.9688 1.418812,0 3.173962,-0.279 4.15625,-1.1563 0.804571,-0.7187 0.913423,-1.9095 1.40625,-2.875 0.452839,-0.8872 1.127519,-1.4962 1.09375,-2.5312 -0.08881,0.8626 -0.684734,1.4486 -1.09375,2.25 -0.492827,0.9655 -0.601679,2.1563 -1.40625,2.875 -0.982288,0.8773 -2.737438,1.1562 -4.15625,1.1562 -0.73478,0 -1.247768,-0.7492 -1.90625,-0.9687 -0.61826,-0.2061 -1.46161,0.1274 -2,-0.1875 -0.904754,-0.529 -1.341568,-1.9708 -1.8125,-2.9688 C 17.844317,1029.9673 17.377034,1029.4755 17.34375,1028.4247 Z"
       style="color:#000000;fill:#ffffff;fill-opacity:0.11695907;fill-rule:nonzero;stroke:none;stroke-width:0.2;marker:none;visibility:visible;display:inline;overflow:visible;enable-background:accumulate"
       inkscape:connector-curvature="0" />
    <path
       inkscape:connector-curvature="0"
       style="color:#000000;fill:#ffffff;fill-opacity:0.04678363;fill-rule:nonzero;stroke:none;stroke-width:0.2;marker:none;visibility:visible;display:inline;overflow:visible;enable-background:accumulate"
       d="m 17.34375,1028.706 c -6.94e-4,0.078 -0.001,0.1379 0,0.2187 0.01403,1.0991 0.491023,1.585 0.9375,2.5313 0.470932,0.998 0.907746,2.4397 1.8125,2.9687 0.53839,0.3149 1.38174,-0.019 2,0.1875 0.658482,0.2195 1.17147,0.9688 1.90625,0.9688 1.418812,0 3.173962,-0.279 4.15625,-1.1563 0.804571,-0.7187 0.913423,-1.9095 1.40625,-2.875 0.452839,-0.8872 1.127519,-1.4962 1.09375,-2.5312 -0.08881,0.8626 -0.684734,1.4486 -1.09375,2.25 -0.492827,0.9655 -0.601679,2.1563 -1.40625,2.875 -0.982288,0.8773 -2.737438,1.1562 -4.15625,1.1562 -0.73478,0 -1.247768,-0.7492 -1.90625,-0.9687 -0.61826,-0.2061 -1.46161,0.1274 -2,-0.1875 -0.904754,-0.529 -1.341568,-1.9708 -1.8125,-2.9688 C 17.844317,1030.2486 17.377034,1029.7568 17.34375,1028.706 Z"
       id="path951" />
    <path
       style="fill:#000000;fill-opacity:0.32748539;stroke:none"
       d="M 23.90625 20.21875 C 22.340248 20.21875 21.022172 21.194908 20.46875 22.5625 C 21.035173 21.223314 22.360747 20.3125 23.90625 20.3125 C 25.451752 20.3125 26.777327 21.223314 27.34375 22.5625 C 26.790329 21.194908 25.472252 20.21875 23.90625 20.21875 z M 24.03125 21 C 23.909319 20.996125 23.776213 21.00925 23.65625 21.03125 C 23.176397 21.11925 22.749864 21.4037 22.40625 21.75 C 22.089164 22.069458 21.847427 22.454571 21.6875 22.875 C 21.848231 22.476287 22.103416 22.11765 22.40625 21.8125 C 22.749864 21.4663 23.176397 21.18175 23.65625 21.09375 C 23.896176 21.04975 24.139883 21.06 24.375 21.125 C 24.610116 21.1898 24.832946 21.3223 25 21.5 C 25.085498 21.59095 25.162748 21.669737 25.21875 21.78125 C 25.159533 21.650443 25.098323 21.510843 25 21.40625 C 24.832946 21.22855 24.610116 21.1274 24.375 21.0625 C 24.257441 21.03 24.153181 21.003875 24.03125 21 z M 24.96875 22.9375 C 24.87449 23.246247 24.696735 23.52265 24.5 23.78125 C 24.035543 24.39175 23.436607 24.87675 22.75 25.21875 C 22.67972 25.25375 22.602953 25.2802 22.53125 25.3125 C 22.381849 25.1818 22.253858 25.0478 22.15625 24.875 C 22.105261 24.784725 22.065618 24.691198 22.03125 24.59375 C 22.068435 24.710299 22.095906 24.830661 22.15625 24.9375 C 22.253858 25.1103 22.381849 25.27555 22.53125 25.40625 C 22.602953 25.37395 22.67972 25.31625 22.75 25.28125 C 23.436607 24.93925 24.035543 24.45425 24.5 23.84375 C 24.709346 23.568653 24.879185 23.269021 24.96875 22.9375 z M 27.1875 23.0625 C 26.83932 23.772103 26.347555 24.420013 25.75 24.9375 C 25.459607 25.189 25.131473 25.4046 24.78125 25.5625 C 24.431028 25.7204 24.039772 25.80325 23.65625 25.78125 C 23.399728 25.766116 23.168149 25.675165 22.9375 25.5625 C 22.904395 25.58122 22.877188 25.60688 22.84375 25.625 C 23.096092 25.7647 23.368102 25.82775 23.65625 25.84375 C 24.039772 25.86575 24.431028 25.7828 24.78125 25.625 C 25.131473 25.4671 25.459607 25.2514 25.75 25 C 26.354499 24.4765 26.838658 23.81325 27.1875 23.09375 C 27.184726 23.083907 27.19036 23.072307 27.1875 23.0625 z M 27.25 24.71875 C 26.907966 26.246782 25.537417 27.375 23.90625 27.375 C 22.877516 27.375 21.939503 26.93756 21.3125 26.21875 C 21.293483 26.223266 21.26906 26.214418 21.25 26.21875 C 21.877347 26.97685 22.845398 27.4375 23.90625 27.4375 C 25.55908 27.4375 26.931075 26.277266 27.25 24.71875 z M 20.625 24.90625 C 20.712131 25.228861 20.828333 25.535096 21 25.8125 C 21.37646 25.7622 21.73526 25.688 22.09375 25.5625 C 22.078542 25.545794 22.077222 25.517115 22.0625 25.5 C 21.713051 25.620194 21.366269 25.701062 21 25.75 C 20.838392 25.48885 20.71208 25.20785 20.625 24.90625 z "
       transform="translate(0,1004.3622)"
       id="path993" />
    <path
       style="fill:#ffffff;fill-opacity:0.17543862;stroke:none"
       d="m 23.90625,1024.8936 c -1.684764,0 -3.09197,1.2402 -3.375,2.8438 0.318922,-1.5586 1.72217,-2.75 3.375,-2.75 1.542585,0 2.823629,1.0343 3.25,2.4375 0.0062,-0.013 0.02512,-0.019 0.03125,-0.031 C 26.782482,1025.9564 25.472938,1024.8936 23.90625,1024.8936 z m 0,0.6875 c -0.240429,-4e-4 -0.476962,0.071 -0.6875,0.1875 -0.421061,0.2322 -0.716836,0.6353 -0.9375,1.0625 -0.190317,0.3685 -0.33543,0.7747 -0.375,1.1875 -0.002,0.021 0.0014,0.042 0,0.062 0.04356,-0.4017 0.189479,-0.7971 0.375,-1.1562 0.220664,-0.4273 0.516439,-0.8303 0.9375,-1.0625 0.210538,-0.1161 0.447071,-0.1878 0.6875,-0.1875 0.240429,3e-4 0.495661,0.074 0.6875,0.2187 0.172838,0.1305 0.3024,0.3272 0.375,0.5313 -0.0083,-0.03 0.01047,-0.064 0,-0.094 -0.0726,-0.2041 -0.202162,-0.4006 -0.375,-0.5312 C 24.401911,1025.6549 24.146679,1025.5814 23.90625,1025.5811 z m 1.40625,1.5938 c -0.109218,0.4872 -0.394542,0.9328 -0.71875,1.3125 -0.493935,0.5786 -1.081248,1.0438 -1.75,1.4062 0.0277,0.015 0.06531,0.017 0.09375,0.031 0.627839,-0.3554 1.187738,-0.7951 1.65625,-1.3438 0.324208,-0.3798 0.609532,-0.8252 0.71875,-1.3125 C 25.319142,1027.239 25.307227,1027.2048 25.3125,1027.1749 z m 1.96875,0.6875 c -0.321048,0.6048 -0.749811,1.1574 -1.25,1.625 -0.419876,0.3925 -0.894357,0.7182 -1.4375,0.9062 -0.543143,0.188 -1.150821,0.2371 -1.6875,0.031 -0.18636,-0.071 -0.372505,-0.1916 -0.53125,-0.3125 -0.363007,0.1608 -0.737784,0.287 -1.125,0.375 0.02768,0.033 0.06484,0.061 0.09375,0.094 0.355174,-0.087 0.697046,-0.1957 1.03125,-0.3437 0.158745,0.1209 0.34489,0.2097 0.53125,0.2812 0.536679,0.2057 1.144357,0.1568 1.6875,-0.031 0.543143,-0.188 1.017624,-0.5138 1.4375,-0.9063 0.500189,-0.4677 0.928952,-1.0203 1.25,-1.625 C 27.278014,1027.9261 27.28524,1027.8922 27.28125,1027.8624 z m -5.65625,1.1875 c 0.07243,0.2351 0.140462,0.4858 0.28125,0.6875 0.03813,0.055 0.08202,0.1053 0.125,0.1562 0.02236,-0.01 0.04024,-0.023 0.0625,-0.031 -0.06463,-0.071 -0.13257,-0.171 -0.1875,-0.25 C 21.783209,1029.4361 21.695955,1029.2528 21.625,1029.0499 z m -1.375,0.031 c 0.312384,1.745 1.821461,3.0625 3.65625,3.0625 1.835062,0 3.344181,-1.3172 3.65625,-3.0625 -0.347918,1.7002 -1.853164,2.9688 -3.65625,2.9688 C 22.103164,1032.0499 20.597918,1030.7813 20.25,1029.0811 Z"
       id="path1005"
       inkscape:connector-curvature="0" />
  </g>
</svg>
