<?xml version="1.0" encoding="UTF-8" standalone="no"?>
<!-- Created with Inkscape (http://www.inkscape.org/) -->

<svg
   xmlns:dc="http://purl.org/dc/elements/1.1/"
   xmlns:cc="http://creativecommons.org/ns#"
   xmlns:rdf="http://www.w3.org/1999/02/22-rdf-syntax-ns#"
   xmlns:svg="http://www.w3.org/2000/svg"
   xmlns="http://www.w3.org/2000/svg"
   xmlns:xlink="http://www.w3.org/1999/xlink"
   xmlns:sodipodi="http://sodipodi.sourceforge.net/DTD/sodipodi-0.dtd"
   xmlns:inkscape="http://www.inkscape.org/namespaces/inkscape"
   width="48"
   height="48"
   id="svg2"
   version="1.1"
   inkscape:version="0.48+devel r12130"
   sodipodi:docname="glade-3.svg">
  <defs
     id="defs4">
    <linearGradient
       id="linearGradient996"
       inkscape:collect="always">
      <stop
         id="stop998"
         offset="0"
         style="stop-color:#ffffff;stop-opacity:1;" />
      <stop
         id="stop1000"
         offset="1"
         style="stop-color:#656565;stop-opacity:1" />
    </linearGradient>
    <linearGradient
       inkscape:collect="always"
       id="linearGradient951">
      <stop
         style="stop-color:#ffffff;stop-opacity:1;"
         offset="0"
         id="stop953" />
      <stop
         style="stop-color:#ffffff;stop-opacity:0;"
         offset="1"
         id="stop955" />
    </linearGradient>
    <linearGradient
       inkscape:collect="always"
       id="linearGradient922">
      <stop
         style="stop-color:#ffffff;stop-opacity:1;"
         offset="0"
         id="stop924" />
      <stop
         style="stop-color:#ffffff;stop-opacity:0;"
         offset="1"
         id="stop926" />
    </linearGradient>
    <linearGradient
       inkscape:collect="always"
       xlink:href="#linearGradient1020"
       id="linearGradient890"
       x1="25.63262"
       y1="-1052.7157"
       x2="25.63262"
       y2="-1004.4557"
       gradientUnits="userSpaceOnUse" />
    <radialGradient
       inkscape:collect="always"
       xlink:href="#linearGradient922"
       id="radialGradient928"
       cx="8.0067282"
       cy="1029.116"
       fx="8.0067282"
       fy="1029.116"
       r="0.53033006"
       gradientTransform="matrix(0.84195047,0,0,40.691052,2.1958909,-40847.45)"
       gradientUnits="userSpaceOnUse" />
    <radialGradient
       inkscape:collect="always"
       xlink:href="#linearGradient922"
       id="radialGradient932"
       gradientUnits="userSpaceOnUse"
       gradientTransform="matrix(0.84195047,0,0,48.051565,1007.5183,-49474.637)"
       cx="8.0067282"
       cy="1029.116"
       fx="8.0067282"
       fy="1029.116"
       r="0.53033006" />
    <radialGradient
       inkscape:collect="always"
       xlink:href="#linearGradient922"
       id="radialGradient936"
       gradientUnits="userSpaceOnUse"
       gradientTransform="matrix(0.84195047,0,0,48.051565,1034.4606,-49474.637)"
       cx="8.0067282"
       cy="1029.116"
       fx="8.0067282"
       fy="1029.116"
       r="0.53033006" />
    <radialGradient
       inkscape:collect="always"
       xlink:href="#linearGradient922"
       id="radialGradient940"
       gradientUnits="userSpaceOnUse"
       gradientTransform="matrix(0.84195047,0,0,40.691052,33.174389,-40847.45)"
       cx="8.0067282"
       cy="1029.116"
       fx="8.0067282"
       fy="1029.116"
       r="0.53033006" />
    <radialGradient
       inkscape:collect="always"
       xlink:href="#linearGradient922"
       id="radialGradient944"
       gradientUnits="userSpaceOnUse"
       gradientTransform="matrix(0.84195047,0,0,48.051565,1012.8636,-49474.637)"
       cx="8.0067282"
       cy="1029.116"
       fx="8.0067282"
       fy="1029.116"
       r="0.53033006" />
    <linearGradient
       inkscape:collect="always"
       xlink:href="#linearGradient951"
       id="linearGradient957"
       x1="16.970562"
       y1="16.356972"
       x2="16.970562"
       y2="39.691494"
       gradientUnits="userSpaceOnUse"
       gradientTransform="matrix(0.97187445,0,0,0.97187445,1.2151569,1004.3046)" />
    <linearGradient
       inkscape:collect="always"
       xlink:href="#linearGradient951"
       id="linearGradient961"
       gradientUnits="userSpaceOnUse"
       x1="16.970562"
       y1="16.356972"
       x2="16.970562"
       y2="39.691494"
       gradientTransform="matrix(0,-0.97187445,0.97187445,0,3.7013954,1039.4136)" />
    <linearGradient
       inkscape:collect="always"
       xlink:href="#linearGradient951"
       id="linearGradient965"
       gradientUnits="userSpaceOnUse"
       gradientTransform="matrix(0,-0.97187445,0.97187445,0,3.7013954,1049.7398)"
       x1="16.970562"
       y1="16.356972"
       x2="16.970562"
       y2="39.691494" />
    <linearGradient
       inkscape:collect="always"
       xlink:href="#linearGradient996"
       id="linearGradient994"
       x1="-10.625349"
       y1="13.329739"
       x2="-8.2469807"
       y2="13.329739"
       gradientUnits="userSpaceOnUse" />
    <linearGradient
       id="linearGradient1020"
       inkscape:collect="always">
      <stop
         id="stop1022"
         offset="0"
         style="stop-color:#8a0808;stop-opacity:1" />
      <stop
         id="stop1024"
         offset="1"
         style="stop-color:#e88832;stop-opacity:1" />
    </linearGradient>
  </defs>
  <sodipodi:namedview
     id="base"
     pagecolor="#ffffff"
     bordercolor="#666666"
     borderopacity="1.0"
     inkscape:pageopacity="0.0"
     inkscape:pageshadow="2"
     inkscape:zoom="5.6568543"
     inkscape:cx="1.5748756"
     inkscape:cy="25.090867"
     inkscape:document-units="px"
     inkscape:current-layer="layer1"
     showgrid="false"
     inkscape:window-width="1366"
     inkscape:window-height="717"
     inkscape:window-x="0"
     inkscape:window-y="28"
     inkscape:window-maximized="1">
    <inkscape:grid
       type="xygrid"
       id="grid3850" />
  </sodipodi:namedview>
  <metadata
     id="metadata7">
    <rdf:RDF>
      <cc:Work
         rdf:about="">
        <dc:format>image/svg+xml</dc:format>
        <dc:type
           rdf:resource="http://purl.org/dc/dcmitype/StillImage" />
        <dc:title></dc:title>
      </cc:Work>
    </rdf:RDF>
  </metadata>
  <g
     inkscape:label="Capa 1"
     inkscape:groupmode="layer"
     id="layer1"
     transform="translate(0,-1004.3622)">
    <rect
       style="fill:url(#linearGradient890);fill-opacity:1.0;stroke:none"
       id="rect2991-1"
       width="48"
       height="48"
       x="-3.082077e-06"
       y="-1052.3622"
       ry="1.9445436"
       transform="scale(1,-1)" />
    <path
       style="opacity:0.152;fill:#ffffff;fill-opacity:1;stroke:none"
       d="M 7.65625 0 L 7.65625 7.65625 L 0 7.65625 L 0 8.34375 L 7.65625 8.34375 L 7.65625 15.65625 L 0 15.65625 L 0 16.34375 L 7.65625 16.34375 L 7.65625 23.65625 L 0 23.65625 L 0 24.34375 L 7.65625 24.34375 L 7.65625 31.65625 L 0 31.65625 L 0 32.34375 L 7.65625 32.34375 L 7.65625 39.65625 L 0 39.65625 L 0 40.34375 L 7.65625 40.34375 L 7.65625 48 L 8.34375 48 L 8.34375 40.34375 L 15.65625 40.34375 L 15.65625 48 L 16.34375 48 L 16.34375 40.34375 L 23.65625 40.34375 L 23.65625 48 L 24.34375 48 L 24.34375 40.34375 L 31.65625 40.34375 L 31.65625 48 L 32.34375 48 L 32.34375 40.34375 L 39.65625 40.34375 L 39.65625 48 L 40.34375 48 L 40.34375 40.34375 L 48 40.34375 L 48 39.65625 L 40.34375 39.65625 L 40.34375 32.34375 L 48 32.34375 L 48 31.65625 L 40.34375 31.65625 L 40.34375 24.34375 L 48 24.34375 L 48 23.65625 L 40.34375 23.65625 L 40.34375 16.34375 L 48 16.34375 L 48 15.65625 L 40.34375 15.65625 L 40.34375 8.34375 L 48 8.34375 L 48 7.65625 L 40.34375 7.65625 L 40.34375 0 L 39.65625 0 L 39.65625 7.65625 L 32.34375 7.65625 L 32.34375 0 L 31.65625 0 L 31.65625 7.65625 L 24.34375 7.65625 L 24.34375 0 L 23.65625 0 L 23.65625 7.65625 L 16.34375 7.65625 L 16.34375 0 L 15.65625 0 L 15.65625 7.65625 L 8.34375 7.65625 L 8.34375 0 L 7.65625 0 z M 8.34375 8.34375 L 15.65625 8.34375 L 15.65625 15.65625 L 8.34375 15.65625 L 8.34375 8.34375 z M 16.34375 8.34375 L 23.65625 8.34375 L 23.65625 15.65625 L 16.34375 15.65625 L 16.34375 8.34375 z M 24.34375 8.34375 L 31.65625 8.34375 L 31.65625 15.65625 L 24.34375 15.65625 L 24.34375 8.34375 z M 32.34375 8.34375 L 39.65625 8.34375 L 39.65625 15.65625 L 32.34375 15.65625 L 32.34375 8.34375 z M 8.34375 16.34375 L 15.65625 16.34375 L 15.65625 23.65625 L 8.34375 23.65625 L 8.34375 16.34375 z M 16.34375 16.34375 L 23.65625 16.34375 L 23.65625 23.65625 L 16.34375 23.65625 L 16.34375 16.34375 z M 24.34375 16.34375 L 31.65625 16.34375 L 31.65625 23.65625 L 24.34375 23.65625 L 24.34375 16.34375 z M 32.34375 16.34375 L 39.65625 16.34375 L 39.65625 23.65625 L 32.34375 23.65625 L 32.34375 16.34375 z M 8.34375 24.34375 L 15.65625 24.34375 L 15.65625 31.65625 L 8.34375 31.65625 L 8.34375 24.34375 z M 16.34375 24.34375 L 23.65625 24.34375 L 23.65625 31.65625 L 16.34375 31.65625 L 16.34375 24.34375 z M 24.34375 24.34375 L 31.65625 24.34375 L 31.65625 31.65625 L 24.34375 31.65625 L 24.34375 24.34375 z M 32.34375 24.34375 L 39.65625 24.34375 L 39.65625 31.65625 L 32.34375 31.65625 L 32.34375 24.34375 z M 8.34375 32.34375 L 15.65625 32.34375 L 15.65625 39.65625 L 8.34375 39.65625 L 8.34375 32.34375 z M 16.34375 32.34375 L 23.65625 32.34375 L 23.65625 39.65625 L 16.34375 39.65625 L 16.34375 32.34375 z M 24.34375 32.34375 L 31.65625 32.34375 L 31.65625 39.65625 L 24.34375 39.65625 L 24.34375 32.34375 z M 32.34375 32.34375 L 39.65625 32.34375 L 39.65625 39.65625 L 32.34375 39.65625 L 32.34375 32.34375 z "
       id="rect892"
       transform="translate(0,1004.3622)" />
    <path
       inkscape:connector-curvature="0"
       style="fill:#000000;fill-opacity:1;stroke:none"
       d="m -2.717923e-6,1049.3623 0,1.0625 c 0,1.0773 0.860222997923,1.9375 1.937500017923,1.9375 l 44.1250007,0 c 1.077277,0 1.937505,-0.8602 1.937505,-1.9375 l 0,-1.0625 c 0,1.0773 -0.860228,1.9375 -1.937505,1.9375 l -44.1250007,0 C 0.86022028,1051.2998 -2.717923e-6,1050.4396 -2.717923e-6,1049.3623 Z"
       id="rect846" />
    <path
       inkscape:connector-curvature="0"
       style="fill:#ffffff;fill-opacity:0.5372549;stroke:none"
       d="m 2.5312473,1005.0186 c -0.917088,0 -1.67114702,0.6395 -1.84375002,1.5 0.33561202,-0.2799 0.77451202,-0.4375 1.25000002,-0.4375 l 44.1250007,0 c 0.475488,0 0.914388,0.1576 1.250005,0.4375 -0.172608,-0.8605 -0.926667,-1.5 -1.843755,-1.5 L 2.5312473,1005.0186 Z"
       id="path7515" />
    <path
       inkscape:connector-curvature="0"
       style="fill:#000000;fill-opacity:0.39215686;stroke:none"
       d="m 1.9374973,1004.3623 c -1.07727702,0 -1.937500017923,0.8602 -1.937500017923,1.9375 l 0,43.0625 c 0,0.7934 0.480023997923,1.449 1.156250017923,1.75 -0.30934202,-0.3333 -0.50000002,-0.7824 -0.50000002,-1.2812 l 0,-42.9375 c 0,-1.0482 0.82689902,-1.875 1.87500002,-1.875 l 42.9375007,0 c 1.048101,0 1.875005,0.8268 1.875005,1.875 l 0,42.9375 c 0,0.4988 -0.190663,0.9479 -0.500005,1.2812 0.676225,-0.301 1.156255,-0.9566 1.156255,-1.75 l 0,-43.0625 c 0,-1.0773 -0.860228,-1.9375 -1.937505,-1.9375 L 1.9374973,1004.3623 Z"
       id="rect4280-0" />
    <rect
       style="fill:url(#radialGradient928);fill-opacity:1;stroke:none"
       id="rect920"
       width="0.89302325"
       height="32"
       x="8.4906473"
       y="1012.3622"
       ry="0.44651163" />
    <rect
       ry="0.52728021"
       y="-42.894203"
       x="1013.813"
       height="37.78841"
       width="0.89302325"
       id="rect930"
       style="fill:url(#radialGradient932);fill-opacity:1;stroke:none"
       transform="matrix(0,1,-1,0,0,0)" />
    <rect
       transform="matrix(0,1,-1,0,0,0)"
       style="fill:url(#radialGradient936);fill-opacity:1;stroke:none"
       id="rect934"
       width="0.89302325"
       height="37.78841"
       x="1040.7555"
       y="-42.894203"
       ry="0.52728021" />
    <rect
       ry="0.44651163"
       y="1012.3622"
       x="39.469147"
       height="32"
       width="0.89302325"
       id="rect938"
       style="fill:url(#radialGradient940);fill-opacity:1;stroke:none" />
    <rect
       transform="matrix(0,1,-1,0,0,0)"
       style="fill:url(#radialGradient944);fill-opacity:1;stroke:none"
       id="rect942"
       width="0.89302325"
       height="37.78841"
       x="1019.1583"
       y="-42.894203"
       ry="0.52728021" />
    <path
       style="fill:url(#linearGradient957);fill-opacity:1;stroke:none"
       d="m 11.541323,1021.0695 0,18.3441 8.017964,0 0,-18.3441 L 11.541323,1021.0695 z m 0.425195,0.3644 7.167574,0 0,17.6153 -7.167574,0 L 11.966518,1021.4339 Z"
       id="rect946"
       inkscape:connector-curvature="0" />
    <path
       id="path959"
       d="m 20.46623,1029.0874 18.34413,0 0,-8.0179 -18.34413,0 L 20.46623,1029.0874 z m 0.364453,-0.4252 0,-7.1675 17.615224,0 0,7.1675 L 20.830683,1028.6622 Z"
       style="fill:url(#linearGradient961);fill-opacity:1;stroke:none"
       inkscape:connector-curvature="0" />
    <path
       inkscape:connector-curvature="0"
       style="fill:url(#linearGradient965);fill-opacity:1;stroke:none"
       d="m 20.46623,1039.4136 18.34413,0 0,-8.018 -18.34413,0 L 20.46623,1039.4136 z m 0.364453,-0.4252 0,-7.1676 17.615224,0 0,7.1676 L 20.830683,1038.9884 Z"
       id="path963" />
    <g
       id="g1013"
       transform="matrix(-0.70710678,-0.70710678,-0.70710678,0.70710678,748.036,291.37786)">
      <path
         inkscape:connector-curvature="0"
         style="fill:#000000;fill-opacity:0.31877729;stroke:none"
         d="m -10.84375,1013.2997 c -0.121187,0 -0.21875,0.098 -0.21875,0.2188 l 0,6.625 0,0.094 c 0,0 -7.86e-4,0.031 0,0.031 0.0032,0.028 0.02002,0.038 0.03125,0.062 0.003,0 -0.0036,0.031 0,0.031 0.0076,0.011 0.02171,0.022 0.03125,0.031 l 0.875,1.4687 c 0.006,0.026 -0.01189,0.07 0,0.094 0.006,0 0.02411,0 0.03125,0 0.01363,0.017 0.04398,0.038 0.0625,0.062 0.02698,0.019 0.061579,0.062 0.09375,0.062 0.032169,0.01 0.060152,0 0.09375,0 l 0.03125,0 c 0.025522,0 0.038606,-0.01 0.0625,-0.031 0.027967,-0.017 0.073028,-0.037 0.09375,-0.062 0.02044,-0.026 0.02263,-0.094 0.03125,-0.125 l 0.875,-1.4687 c 0.039539,-0.04 0.0625,-0.096 0.0625,-0.1563 6.805e-4,-0.028 0.00644,-0.038 0,-0.062 l 0,-6.6562 c 0,-0.1212 -0.097563,-0.2188 -0.21875,-0.2188 L -10.84375,1013.2997 Z"
         id="path1009" />
      <path
         id="rect978"
         transform="translate(0,1004.3622)"
         d="m -10.40625,8.9375 c -0.121187,0 -0.21875,0.097563 -0.21875,0.21875 l 0,6.625 0,0.09375 c 0,0 -7.86e-4,0.03125 0,0.03125 0.0032,0.028 0.02002,0.0385 0.03125,0.0625 0.003,0 -0.0036,0.03125 0,0.03125 0.0076,0.01118 0.02171,0.02171 0.03125,0.03125 L -9.6875,17.5 c 0.00603,0.026 -0.011886,0.06975 0,0.09375 0.00601,0 0.02411,0 0.03125,0 0.013626,0.017 0.043981,0.0375 0.0625,0.0625 0.026982,0.019 0.061579,0.0625 0.09375,0.0625 0.032169,0.0085 0.060152,-0.0028 0.09375,0 l 0.03125,0 c 0.025522,0 0.038606,-0.0072 0.0625,-0.03125 0.027967,-0.017 0.073028,-0.0365 0.09375,-0.0625 0.02044,-0.026 0.02263,-0.094 0.03125,-0.125 l 0.875,-1.46875 C -8.272961,15.99171 -8.25,15.93559 -8.25,15.875 c 6.805e-4,-0.028 0.00644,-0.0385 0,-0.0625 l 0,-6.65625 C -8.25,9.0350625 -8.3475625,8.9375 -8.46875,8.9375 L -10.40625,8.9375 Z"
         style="fill:url(#linearGradient994);fill-opacity:1;stroke:none"
         inkscape:connector-curvature="0" />
      <path
         id="path1002"
         transform="translate(0,1004.3622)"
         d="m -9.3125,8.9375 0,8.75 c 0.027967,-0.017 0.073028,-0.0365 0.09375,-0.0625 0.02044,-0.026 0.02263,-0.094 0.03125,-0.125 l 0.875,-1.46875 C -8.272961,15.99171 -8.25,15.93559 -8.25,15.875 c 6.805e-4,-0.028 0.00644,-0.0385 0,-0.0625 l 0,-6.65625 C -8.25,9.0350625 -8.3475625,8.9375 -8.46875,8.9375 L -9.3125,8.9375 Z"
         style="fill:#ffffff;fill-opacity:1;stroke:none"
         inkscape:connector-curvature="0" />
    </g>
  </g>
</svg>
