<?xml version="1.0" encoding="UTF-8" standalone="no"?>
<!-- Created with Inkscape (http://www.inkscape.org/) -->

<svg
   xmlns:dc="http://purl.org/dc/elements/1.1/"
   xmlns:cc="http://creativecommons.org/ns#"
   xmlns:rdf="http://www.w3.org/1999/02/22-rdf-syntax-ns#"
   xmlns:svg="http://www.w3.org/2000/svg"
   xmlns="http://www.w3.org/2000/svg"
   xmlns:xlink="http://www.w3.org/1999/xlink"
   xmlns:sodipodi="http://sodipodi.sourceforge.net/DTD/sodipodi-0.dtd"
   xmlns:inkscape="http://www.inkscape.org/namespaces/inkscape"
   width="48"
   height="48"
   id="svg2"
   version="1.1"
   inkscape:version="0.48+devel r12130"
   sodipodi:docname="gmusicbrowser.svg">
  <defs
     id="defs4">
    <linearGradient
       inkscape:collect="always"
       id="linearGradient943">
      <stop
         style="stop-color:#212121;stop-opacity:1"
         offset="0"
         id="stop945" />
      <stop
         style="stop-color:#606060;stop-opacity:1"
         offset="1"
         id="stop947" />
    </linearGradient>
    <linearGradient
       id="linearGradient911"
       inkscape:collect="always">
      <stop
         id="stop913"
         offset="0"
         style="stop-color:#000000;stop-opacity:1" />
      <stop
         id="stop915"
         offset="1"
         style="stop-color:#333333;stop-opacity:1" />
    </linearGradient>
    <linearGradient
       inkscape:collect="always"
       id="linearGradient897">
      <stop
         style="stop-color:#676b6f;stop-opacity:1"
         offset="0"
         id="stop899" />
      <stop
         style="stop-color:#cccccc;stop-opacity:1"
         offset="1"
         id="stop901" />
    </linearGradient>
    <linearGradient
       inkscape:collect="always"
       id="linearGradient887">
      <stop
         style="stop-color:#f9f9f9;stop-opacity:1"
         offset="0"
         id="stop889" />
      <stop
         style="stop-color:#ffffff;stop-opacity:1"
         offset="1"
         id="stop891" />
    </linearGradient>
    <linearGradient
       inkscape:collect="always"
       xlink:href="#linearGradient887"
       id="linearGradient893"
       x1="23.875002"
       y1="-1052.4872"
       x2="23.875002"
       y2="-1004.4202"
       gradientUnits="userSpaceOnUse" />
    <linearGradient
       inkscape:collect="always"
       xlink:href="#linearGradient897"
       id="linearGradient903"
       x1="26.584179"
       y1="38.447128"
       x2="26.584179"
       y2="7.871665"
       gradientUnits="userSpaceOnUse" />
    <linearGradient
       inkscape:collect="always"
       xlink:href="#linearGradient911"
       id="linearGradient909"
       gradientUnits="userSpaceOnUse"
       x1="26.584179"
       y1="38.447128"
       x2="26.584179"
       y2="7.871665" />
    <linearGradient
       inkscape:collect="always"
       xlink:href="#linearGradient943"
       id="linearGradient949"
       x1="27"
       y1="1038.1122"
       x2="27"
       y2="1018.6122"
       gradientUnits="userSpaceOnUse"
       gradientTransform="matrix(0.76190475,0,0,0.76190475,5.9047619,244.84814)" />
    <linearGradient
       inkscape:collect="always"
       xlink:href="#linearGradient897"
       id="linearGradient958"
       gradientUnits="userSpaceOnUse"
       x1="26.584179"
       y1="38.447128"
       x2="26.584179"
       y2="7.871665" />
    <linearGradient
       inkscape:collect="always"
       xlink:href="#linearGradient943"
       id="linearGradient964"
       gradientUnits="userSpaceOnUse"
       gradientTransform="matrix(0.28682261,0,0,0.28682261,32.002753,733.40369)"
       x1="27"
       y1="1038.1122"
       x2="27"
       y2="1018.6122" />
    <linearGradient
       inkscape:collect="always"
       xlink:href="#linearGradient911"
       id="linearGradient995"
       gradientUnits="userSpaceOnUse"
       x1="26.584179"
       y1="38.447128"
       x2="26.584179"
       y2="7.871665" />
    <linearGradient
       inkscape:collect="always"
       xlink:href="#linearGradient897"
       id="linearGradient997"
       gradientUnits="userSpaceOnUse"
       x1="26.584179"
       y1="38.447128"
       x2="26.584179"
       y2="7.871665" />
    <linearGradient
       inkscape:collect="always"
       xlink:href="#linearGradient911"
       id="linearGradient1009"
       gradientUnits="userSpaceOnUse"
       x1="26.584179"
       y1="38.447128"
       x2="26.584179"
       y2="7.871665" />
    <linearGradient
       inkscape:collect="always"
       xlink:href="#linearGradient897"
       id="linearGradient1011"
       gradientUnits="userSpaceOnUse"
       x1="26.584179"
       y1="38.447128"
       x2="26.584179"
       y2="7.871665" />
    <linearGradient
       inkscape:collect="always"
       xlink:href="#linearGradient943"
       id="linearGradient1013"
       gradientUnits="userSpaceOnUse"
       gradientTransform="matrix(-0.28682261,0,0,0.28682261,15.997247,733.40369)"
       x1="27"
       y1="1038.1122"
       x2="27"
       y2="1018.6122" />
  </defs>
  <sodipodi:namedview
     id="base"
     pagecolor="#ffffff"
     bordercolor="#666666"
     borderopacity="1.0"
     inkscape:pageopacity="0.0"
     inkscape:pageshadow="2"
     inkscape:zoom="5.6568542"
     inkscape:cx="17.677586"
     inkscape:cy="21.125797"
     inkscape:document-units="px"
     inkscape:current-layer="layer1"
     showgrid="false"
     inkscape:window-width="1366"
     inkscape:window-height="717"
     inkscape:window-x="0"
     inkscape:window-y="28"
     inkscape:window-maximized="1" />
  <metadata
     id="metadata7">
    <rdf:RDF>
      <cc:Work
         rdf:about="">
        <dc:format>image/svg+xml</dc:format>
        <dc:type
           rdf:resource="http://purl.org/dc/dcmitype/StillImage" />
        <dc:title />
      </cc:Work>
    </rdf:RDF>
  </metadata>
  <g
     inkscape:label="Capa 1"
     inkscape:groupmode="layer"
     id="layer1"
     transform="translate(0,-1004.3622)">
    <rect
       style="fill:url(#linearGradient893);fill-opacity:1;stroke:none"
       id="rect2991-1"
       width="48"
       height="48"
       x="-3.2483979e-06"
       y="-1052.3622"
       ry="1.9445436"
       transform="scale(1,-1)" />
    <path
       transform="matrix(1.0711203,0,0,1.0711203,-2.2248525,1003.9307)"
       d="m 39.421206,22.80932 a 14.937632,14.937632 0 1 1 -29.8752637,0 A 14.937632,14.937632 0 1 1 39.421206,22.80932 Z"
       sodipodi:ry="14.937632"
       sodipodi:rx="14.937632"
       sodipodi:cy="22.80932"
       sodipodi:cx="24.483574"
       id="path956"
       style="opacity:0.35700001;fill:url(#linearGradient958);fill-opacity:1;stroke:none"
       sodipodi:type="arc" />
    <path
       inkscape:connector-curvature="0"
       style="fill:#000000;fill-opacity:1;stroke:none"
       d="m -2.8516022e-6,1049.3622 0,1.0625 c 0,1.0773 0.8602230016022,1.9375 1.9374999516022,1.9375 l 44.1250009,0 c 1.077277,0 1.937505,-0.8602 1.937505,-1.9375 l 0,-1.0625 c 0,1.0773 -0.860228,1.9375 -1.937505,1.9375 l -44.1250009,0 C 0.86022015,1051.2997 -2.8516022e-6,1050.4395 -2.8516022e-6,1049.3622 Z"
       id="rect846" />
    <path
       inkscape:connector-curvature="0"
       style="fill:#ffffff;fill-opacity:0.5372549;stroke:none"
       d="m 2.5312471,1005.0185 c -0.917088,0 -1.67114695,0.6395 -1.84374995,1.5 0.33561195,-0.2799 0.77451195,-0.4375 1.24999995,-0.4375 l 44.1250009,0 c 0.475488,0 0.914388,0.1576 1.250005,0.4375 -0.172608,-0.8605 -0.926667,-1.5 -1.843755,-1.5 L 2.5312471,1005.0185 Z"
       id="path7515" />
    <path
       inkscape:connector-curvature="0"
       style="fill:#000000;fill-opacity:0.39215686;stroke:none"
       d="m 1.9374971,1004.3622 c -1.07727695,0 -1.9374999516022,0.8602 -1.9374999516022,1.9375 l 0,43.0625 c 0,0.7934 0.4800240016022,1.449 1.1562499516022,1.75 -0.30934195,-0.3333 -0.49999995,-0.7824 -0.49999995,-1.2812 l 0,-42.9375 c 0,-1.0482 0.82689895,-1.875 1.87499995,-1.875 l 42.9375009,0 c 1.048101,0 1.875005,0.8268 1.875005,1.875 l 0,42.9375 c 0,0.4988 -0.190663,0.9479 -0.500005,1.2812 0.676225,-0.301 1.156255,-0.9566 1.156255,-1.75 l 0,-43.0625 c 0,-1.0773 -0.860228,-1.9375 -1.937505,-1.9375 L 1.9374971,1004.3622 Z"
       id="rect4280-0" />
    <g
       id="g982">
      <path
         sodipodi:type="arc"
         style="fill:url(#linearGradient909);fill-opacity:1;stroke:none"
         id="path905"
         sodipodi:cx="24.483574"
         sodipodi:cy="22.80932"
         sodipodi:rx="14.937632"
         sodipodi:ry="14.937632"
         d="m 39.421206,22.80932 a 14.937632,14.937632 0 1 1 -29.8752637,0 A 14.937632,14.937632 0 1 1 39.421206,22.80932 Z"
         transform="matrix(0.82629224,0,0,0.82629224,3.769412,1009.515)" />
      <path
         transform="matrix(0.81609168,0,0,0.81609168,4.0191595,1009.7477)"
         d="m 39.421206,22.80932 a 14.937632,14.937632 0 1 1 -29.8752637,0 A 14.937632,14.937632 0 1 1 39.421206,22.80932 Z"
         sodipodi:ry="14.937632"
         sodipodi:rx="14.937632"
         sodipodi:cy="22.80932"
         sodipodi:cx="24.483574"
         id="path895"
         style="fill:url(#linearGradient903);fill-opacity:1;stroke:none"
         sodipodi:type="arc" />
      <path
         inkscape:connector-curvature="0"
         id="path917"
         d="m 24,1016.1717 c -6.732616,0 -12.190476,5.4579 -12.190476,12.1905 0,0.065 -9.41e-4,0.1261 0,0.1905 0.115937,-6.6325 5.53045,-11.9762 12.190476,-11.9762 6.660026,0 12.074537,5.3437 12.190475,11.9762 8.9e-4,-0.064 0,-0.1258 0,-0.1905 C 36.190475,1021.6296 30.732616,1016.1717 24,1016.1717 Z"
         style="fill:#ffffff;fill-opacity:0.79039301;stroke:none" />
    </g>
    <g
       id="g977">
      <path
         inkscape:connector-curvature="0"
         id="path933"
         d="m 31.20696,1028.369 c -0.0033,-0.056 -0.02552,-0.1052 -0.06664,-0.1453 -0.0349,-0.035 -2.806321,-1.6451 -6.158675,-3.5792 -5.464233,-3.1527 -6.106165,-3.5167 -6.203105,-3.5167 -0.07844,0 -0.123954,0.016 -0.166268,0.056 l -0.05857,0.057 -0.01278,5.8962 c -0.0072,3.2428 -0.01614,6.409 -0.01952,7.0357 -0.004,0.7013 0.0039,1.1752 0.01952,1.2319 0.03623,0.1304 0.111587,0.1891 0.239641,0.1885 0.09364,-4e-4 0.822905,-0.4102 6.188296,-3.4788 3.345312,-1.9134 6.116738,-3.5122 6.158674,-3.553 C 31.184399,1028.5096 31.21123,1028.4378 31.20696,1028.369 Z"
         style="fill:url(#linearGradient949);fill-opacity:1" />
      <path
         inkscape:connector-curvature="0"
         id="path938"
         d="m 30.97619,1028.6718 c -0.168366,0.1122 -2.73549,1.5853 -6,3.4524 -5.365391,3.0685 -6.096837,3.4756 -6.190475,3.476 -0.128057,9e-4 -0.201883,-0.059 -0.238095,-0.1905 0.0036,0.172 -0.0072,0.5228 0,0.5478 0.03623,0.1303 0.110038,0.1911 0.238095,0.1905 0.09364,-5e-4 0.825084,-0.4075 6.190475,-3.4762 3.345312,-1.9136 6.100922,-3.5072 6.142858,-3.5476 0.05688,-0.056 0.09951,-0.1454 0.09524,-0.2142 -0.0033,-0.056 -0.03032,-0.1025 -0.07145,-0.143 C 31.141916,1028.7662 30.98106,1028.675 30.97619,1028.6718 Z"
         style="fill:#ffffff;fill-opacity:0.41048039" />
      <path
         inkscape:connector-curvature="0"
         id="path951"
         d="m 18.785715,1021.1242 c -0.07844,-10e-5 -0.124354,0.029 -0.166667,0.072 l -0.07144,0.047 0,0.4761 0.07144,-0.047 c 0.04232,-0.04 0.08824,-0.072 0.166667,-0.072 0.09694,1e-4 0.726244,0.3713 6.190475,3.5237 3.287051,1.8965 5.909671,3.4067 6.04762,3.5001 0.0019,0 0.09461,-0.047 0.09524,-0.047 0.05688,-0.055 0.09951,-0.1455 0.09524,-0.2143 -0.0033,-0.055 -0.03032,-0.1025 -0.07145,-0.1428 -0.0349,-0.035 -2.814312,-1.6373 -6.166666,-3.5714 C 19.511959,1021.4955 18.882654,1021.1243 18.785715,1021.1242 Z"
         style="fill:#000000;fill-opacity:0.68122271" />
    </g>
    <g
       id="g987"
       transform="matrix(0.43287001,0,0,0.43287001,29.29862,583.21506)">
      <path
         transform="matrix(0.82629224,0,0,0.82629224,3.769412,1009.515)"
         d="m 39.421206,22.80932 c 0,8.249827 -6.687806,14.937632 -14.937632,14.937632 -8.249826,0 -14.9376317,-6.687805 -14.9376317,-14.937632 0,-8.249826 6.6878057,-14.9376312 14.9376317,-14.9376312 C 32.7334,7.8716888 39.421206,14.559494 39.421206,22.80932 Z"
         sodipodi:ry="14.937632"
         sodipodi:rx="14.937632"
         sodipodi:cy="22.80932"
         sodipodi:cx="24.483574"
         id="path989"
         style="fill:url(#linearGradient995);fill-opacity:1;stroke:none"
         sodipodi:type="arc" />
      <path
         sodipodi:type="arc"
         style="fill:url(#linearGradient997);fill-opacity:1;stroke:none"
         id="path991"
         sodipodi:cx="24.483574"
         sodipodi:cy="22.80932"
         sodipodi:rx="14.937632"
         sodipodi:ry="14.937632"
         d="m 39.421206,22.80932 c 0,8.249827 -6.687806,14.937632 -14.937632,14.937632 -8.249826,0 -14.9376317,-6.687805 -14.9376317,-14.937632 0,-8.249826 6.6878057,-14.9376312 14.9376317,-14.9376312 C 32.7334,7.8716888 39.421206,14.559494 39.421206,22.80932 Z"
         transform="matrix(0.81609168,0,0,0.81609168,4.0191595,1009.7477)" />
      <path
         style="fill:#ffffff;fill-opacity:0.79039301;stroke:none"
         d="m 24,1016.1717 c -6.732616,0 -12.190476,5.4579 -12.190476,12.1905 0,0.065 -9.41e-4,0.1261 0,0.1905 0.115937,-6.6325 5.53045,-11.9762 12.190476,-11.9762 6.660026,0 12.074537,5.3437 12.190475,11.9762 8.9e-4,-0.064 0,-0.1258 0,-0.1905 C 36.190475,1021.6296 30.732616,1016.1717 24,1016.1717 Z"
         id="path993"
         inkscape:connector-curvature="0" />
    </g>
    <path
       style="fill:url(#linearGradient964);fill-opacity:1"
       d="m 42.123879,1025.5982 c -0.278417,0 -0.50014,0.2217 -0.50014,0.5002 l 0,4.5012 c 0,0.2784 0.221723,0.5265 0.50014,0.5265 0.278418,0 0.500141,-0.2481 0.500141,-0.5265 l 0,-4.5012 C 42.62402,1025.8199 42.402297,1025.5982 42.123879,1025.5982 z m -5.264638,0.026 c -0.02952,0 -0.06303,0.017 -0.07897,0.026 l -0.02632,0.026 0,2.2111 c -0.0027,1.2207 0.0013,2.4227 0,2.6586 -0.0014,0.264 -0.0059,0.4525 0,0.4738 0.01364,0.049 0.05709,0.052 0.105293,0.052 0.03524,0 0.296614,-0.1345 2.316441,-1.2897 1.259359,-0.7203 2.300654,-1.3273 2.316441,-1.3426 0.02133,-0.019 0.02793,-0.053 0.02632,-0.079 -0.0012,-0.019 -0.01087,-0.036 -0.02632,-0.052 -0.01314,-0.012 -1.054431,-0.6143 -2.316441,-1.3425 C 37.118648,1025.7803 36.895734,1025.6246 36.859241,1025.6246 Z"
       id="path960"
       inkscape:connector-curvature="0" />
    <g
       transform="matrix(-0.43287001,0,0,0.43287001,18.70138,583.21506)"
       id="g999">
      <path
         sodipodi:type="arc"
         style="fill:url(#linearGradient1009);fill-opacity:1;stroke:none"
         id="path1001"
         sodipodi:cx="24.483574"
         sodipodi:cy="22.80932"
         sodipodi:rx="14.937632"
         sodipodi:ry="14.937632"
         d="m 39.421206,22.80932 c 0,8.249827 -6.687806,14.937632 -14.937632,14.937632 -8.249826,0 -14.9376317,-6.687805 -14.9376317,-14.937632 0,-8.249826 6.6878057,-14.9376312 14.9376317,-14.9376312 C 32.7334,7.8716888 39.421206,14.559494 39.421206,22.80932 Z"
         transform="matrix(0.82629224,0,0,0.82629224,3.769412,1009.515)" />
      <path
         transform="matrix(0.81609168,0,0,0.81609168,4.0191595,1009.7477)"
         d="m 39.421206,22.80932 c 0,8.249827 -6.687806,14.937632 -14.937632,14.937632 -8.249826,0 -14.9376317,-6.687805 -14.9376317,-14.937632 0,-8.249826 6.6878057,-14.9376312 14.9376317,-14.9376312 C 32.7334,7.8716888 39.421206,14.559494 39.421206,22.80932 Z"
         sodipodi:ry="14.937632"
         sodipodi:rx="14.937632"
         sodipodi:cy="22.80932"
         sodipodi:cx="24.483574"
         id="path1003"
         style="fill:url(#linearGradient1011);fill-opacity:1;stroke:none"
         sodipodi:type="arc" />
      <path
         inkscape:connector-curvature="0"
         id="path1005"
         d="m 24,1016.1717 c -6.732616,0 -12.190476,5.4579 -12.190476,12.1905 0,0.065 -9.41e-4,0.1261 0,0.1905 0.115937,-6.6325 5.53045,-11.9762 12.190476,-11.9762 6.660026,0 12.074537,5.3437 12.190475,11.9762 8.9e-4,-0.064 0,-0.1258 0,-0.1905 C 36.190475,1021.6296 30.732616,1016.1717 24,1016.1717 Z"
         style="fill:#ffffff;fill-opacity:0.79039301;stroke:none" />
    </g>
    <path
       inkscape:connector-curvature="0"
       id="path1007"
       d="m 5.8761209,1025.5982 c 0.278417,0 0.50014,0.2217 0.50014,0.5002 l 0,4.5012 c 0,0.2784 -0.221723,0.5265 -0.50014,0.5265 -0.278418,0 -0.500141,-0.2481 -0.500141,-0.5265 l 0,-4.5012 C 5.3759799,1025.8199 5.5977029,1025.5982 5.8761209,1025.5982 z m 5.2646381,0.026 c 0.02952,0 0.06303,0.017 0.07897,0.026 l 0.02632,0.026 0,2.2111 c 0.0027,1.2207 -0.0013,2.4227 0,2.6586 0.0014,0.264 0.0059,0.4525 0,0.4738 -0.01364,0.049 -0.05709,0.052 -0.105293,0.052 -0.03524,0 -0.296614,-0.1345 -2.3164411,-1.2897 -1.259359,-0.7203 -2.300654,-1.3273 -2.316441,-1.3426 -0.02133,-0.019 -0.02793,-0.053 -0.02632,-0.079 0.0012,-0.019 0.01087,-0.036 0.02632,-0.052 0.01314,-0.012 1.054431,-0.6143 2.316441,-1.3425 C 10.881352,1025.7803 11.104266,1025.6246 11.140759,1025.6246 Z"
       style="fill:url(#linearGradient1013);fill-opacity:1" />
    <path
       style="fill:#ffffff;fill-opacity:0.37117908"
       d="m 6.5625,1028.4231 c -0.00172,0 -0.062157,0.031 -0.0625,0.031 -0.01545,0.016 -0.03005,0.043 -0.03125,0.062 -0.00161,0.026 0.00992,0.043 0.03125,0.062 0.015787,0.015 1.053141,0.6234 2.3125,1.3437 2.019827,1.1552 2.30851,1.3125 2.34375,1.3125 0.0482,0 0.08011,-0.014 0.09375,-0.062 0.0024,-0.01 1.04e-4,-0.1323 0,-0.1875 -0.01364,0.048 -0.04555,0.062 -0.09375,0.062 -0.03524,0 -0.323923,-0.1573 -2.34375,-1.3125 C 7.5859789,1029.0341 6.6292316,1028.4676 6.5625,1028.4231 z m 34.875,0 c -0.06673,0.045 -1.023479,0.611 -2.25,1.3125 -2.019827,1.1552 -2.30851,1.3125 -2.34375,1.3125 -0.0482,0 -0.08011,-0.014 -0.09375,-0.062 -1.04e-4,0.055 -0.0024,0.179 0,0.1875 0.01364,0.049 0.04555,0.062 0.09375,0.062 0.03524,0 0.323923,-0.1573 2.34375,-1.3125 1.259359,-0.7203 2.296713,-1.3284 2.3125,-1.3437 0.02133,-0.019 0.03286,-0.037 0.03125,-0.062 -0.0012,-0.019 -0.0158,-0.047 -0.03125,-0.062 C 41.499657,1028.4541 41.439221,1028.4242 41.4375,1028.4231 z m -36.0625,2.1563 0,0.1875 c 0,0.2784 0.221582,0.5 0.5,0.5 0.278417,0 0.5,-0.2216 0.5,-0.5 l 0,-0.1875 c 0,0.2784 -0.221583,0.5 -0.5,0.5 C 5.596582,1031.0794 5.375,1030.8578 5.375,1030.5794 z m 36.25,0 0,0.1875 c 0,0.2784 0.221583,0.5 0.5,0.5 0.278418,0 0.5,-0.2216 0.5,-0.5 l 0,-0.1875 c 0,0.2784 -0.221582,0.5 -0.5,0.5 C 41.846583,1031.0794 41.625,1030.8578 41.625,1030.5794 Z"
       id="path1015"
       inkscape:connector-curvature="0" />
    <path
       style="fill:#000000;fill-opacity:0.3580786"
       d="M 5.875 21.25 C 5.596582 21.25 5.375 21.4715 5.375 21.75 L 5.375 21.96875 C 5.375 21.69025 5.596582 21.46875 5.875 21.46875 C 6.153417 21.46875 6.375 21.69025 6.375 21.96875 L 6.375 21.75 C 6.375 21.4715 6.153417 21.25 5.875 21.25 z M 11.15625 21.25 C 11.119757 21.25 10.869537 21.40815 8.8125 22.59375 C 7.55049 23.32195 6.51314 23.9255 6.5 23.9375 C 6.48455 23.9535 6.46995 23.981 6.46875 24 C 6.46714 24.026 6.47867 24.0435 6.5 24.0625 C 6.5006638 24.063143 6.5895333 24.122296 6.59375 24.125 C 6.6768317 24.072773 7.5961463 23.514356 8.8125 22.8125 C 10.869537 21.6269 11.11976 21.46875 11.15625 21.46875 C 11.18577 21.46875 11.20281 21.4913 11.21875 21.5 L 11.25 21.53125 L 11.25 21.3125 L 11.21875 21.28125 C 11.20281 21.27225 11.18577 21.25 11.15625 21.25 z M 36.84375 21.25 C 36.81423 21.25 36.79719 21.27225 36.78125 21.28125 L 36.75 21.3125 L 36.75 21.53125 L 36.78125 21.5 C 36.79719 21.491 36.81423 21.46875 36.84375 21.46875 C 36.880243 21.46875 37.130463 21.6269 39.1875 22.8125 C 40.403854 23.514356 41.323168 24.072773 41.40625 24.125 C 41.410467 24.122296 41.499336 24.063143 41.5 24.0625 C 41.52133 24.0435 41.53286 24.026 41.53125 24 C 41.53005 23.981 41.51545 23.9535 41.5 23.9375 C 41.48686 23.9255 40.44951 23.32195 39.1875 22.59375 C 37.130463 21.40815 36.880243 21.25 36.84375 21.25 z M 42.125 21.25 C 41.846583 21.25 41.625 21.4715 41.625 21.75 L 41.625 21.96875 C 41.625 21.69025 41.846583 21.46875 42.125 21.46875 C 42.403418 21.46875 42.625 21.69025 42.625 21.96875 L 42.625 21.75 C 42.625 21.4715 42.403418 21.25 42.125 21.25 z "
       transform="translate(0,1004.3622)"
       id="path1025" />
  </g>
  <g
     inkscape:groupmode="layer"
     id="layer2"
     inkscape:label=" Capa 2" />
</svg>
