<?xml version="1.0" encoding="UTF-8" standalone="no"?>
<!-- Created with Inkscape (http://www.inkscape.org/) -->

<svg
   xmlns:dc="http://purl.org/dc/elements/1.1/"
   xmlns:cc="http://creativecommons.org/ns#"
   xmlns:rdf="http://www.w3.org/1999/02/22-rdf-syntax-ns#"
   xmlns:svg="http://www.w3.org/2000/svg"
   xmlns="http://www.w3.org/2000/svg"
   xmlns:xlink="http://www.w3.org/1999/xlink"
   xmlns:sodipodi="http://sodipodi.sourceforge.net/DTD/sodipodi-0.dtd"
   xmlns:inkscape="http://www.inkscape.org/namespaces/inkscape"
   width="48"
   height="48"
   id="svg2"
   version="1.1"
   inkscape:version="0.48+devel r12114"
   sodipodi:docname="clock.svg">
  <defs
     id="defs4">
    <linearGradient
       id="linearGradient4079"
       inkscape:collect="always">
      <stop
         id="stop4081"
         offset="0"
         style="stop-color:#191919;stop-opacity:1" />
      <stop
         id="stop4083"
         offset="1"
         style="stop-color:#ffffff;stop-opacity:1" />
    </linearGradient>
    <linearGradient
       inkscape:collect="always"
       id="linearGradient4032">
      <stop
         style="stop-color:#cfcfcf;stop-opacity:1"
         offset="0"
         id="stop4034" />
      <stop
         style="stop-color:#ffffff;stop-opacity:1"
         offset="1"
         id="stop4036" />
    </linearGradient>
    <linearGradient
       id="linearGradient1504"
       inkscape:collect="always">
      <stop
         id="stop1506"
         offset="0"
         style="stop-color:#101010;stop-opacity:1" />
      <stop
         id="stop1508"
         offset="1"
         style="stop-color:#515151;stop-opacity:1" />
    </linearGradient>
    <linearGradient
       inkscape:collect="always"
       id="linearGradient1475">
      <stop
         style="stop-color:#000000;stop-opacity:1;"
         offset="0"
         id="stop1477" />
      <stop
         style="stop-color:#000000;stop-opacity:0;"
         offset="1"
         id="stop1479" />
    </linearGradient>
    <linearGradient
       inkscape:collect="always"
       id="linearGradient1422">
      <stop
         style="stop-color:#787878;stop-opacity:1"
         offset="0"
         id="stop1424" />
      <stop
         style="stop-color:#ffffff;stop-opacity:1"
         offset="1"
         id="stop1426" />
    </linearGradient>
    <linearGradient
       inkscape:collect="always"
       xlink:href="#linearGradient1422"
       id="linearGradient1428"
       x1="16.749998"
       y1="-1052.4872"
       x2="16.749998"
       y2="-1004.3622"
       gradientUnits="userSpaceOnUse" />
    <linearGradient
       inkscape:collect="always"
       xlink:href="#linearGradient1504"
       id="linearGradient1432"
       gradientUnits="userSpaceOnUse"
       x1="16.749998"
       y1="-1047.0323"
       x2="16.749998"
       y2="-1029.9336"
       gradientTransform="matrix(0.87499999,0,0,-0.87499999,3,-875.81693)" />
    <linearGradient
       inkscape:collect="always"
       xlink:href="#linearGradient1504"
       id="linearGradient1439"
       gradientUnits="userSpaceOnUse"
       gradientTransform="matrix(0.87499999,0,0,-0.87499999,3,-875.81693)"
       x1="27.395649"
       y1="-1029.0099"
       x2="27.395649"
       y2="-1004.537" />
    <linearGradient
       inkscape:collect="always"
       xlink:href="#linearGradient1475"
       id="linearGradient1464"
       x1="21.374998"
       y1="45.8125"
       x2="21.374998"
       y2="43.375"
       gradientUnits="userSpaceOnUse" />
    <linearGradient
       inkscape:collect="always"
       xlink:href="#linearGradient1475"
       id="linearGradient1468"
       gradientUnits="userSpaceOnUse"
       x1="21.374998"
       y1="45.8125"
       x2="21.374998"
       y2="43.375"
       gradientTransform="matrix(1,0,0,-1,0,1052.3622)" />
    <linearGradient
       inkscape:collect="always"
       xlink:href="#linearGradient1475"
       id="linearGradient1481"
       x1="1.7677668"
       y1="15.826643"
       x2="3.844893"
       y2="15.826643"
       gradientUnits="userSpaceOnUse"
       gradientTransform="matrix(1,0,0,-1,0,1052.3622)" />
    <linearGradient
       inkscape:collect="always"
       xlink:href="#linearGradient1475"
       id="linearGradient1485"
       gradientUnits="userSpaceOnUse"
       x1="1.7677668"
       y1="15.826643"
       x2="3.844893"
       y2="15.826643"
       gradientTransform="matrix(-1,0,0,-1,48,1052.3622)" />
    <linearGradient
       inkscape:collect="always"
       xlink:href="#linearGradient1475"
       id="linearGradient1514"
       gradientUnits="userSpaceOnUse"
       gradientTransform="translate(0,1004.3622)"
       x1="1.7677668"
       y1="15.826643"
       x2="3.844893"
       y2="15.826643" />
    <linearGradient
       inkscape:collect="always"
       xlink:href="#linearGradient1475"
       id="linearGradient1516"
       gradientUnits="userSpaceOnUse"
       gradientTransform="matrix(-1,0,0,1,48,1004.3622)"
       x1="1.7677668"
       y1="15.826643"
       x2="3.844893"
       y2="15.826643" />
    <linearGradient
       inkscape:collect="always"
       xlink:href="#linearGradient4032"
       id="linearGradient4046"
       gradientUnits="userSpaceOnUse"
       x1="27.046835"
       y1="1043.1698"
       x2="27.046835"
       y2="1029.3812"
       gradientTransform="translate(0,-1004.3622)" />
    <linearGradient
       inkscape:collect="always"
       xlink:href="#linearGradient4032"
       id="linearGradient4056"
       gradientUnits="userSpaceOnUse"
       gradientTransform="translate(0,-1004.3622)"
       x1="27.046835"
       y1="1029.7347"
       x2="27.046835"
       y2="1014.532" />
    <linearGradient
       inkscape:collect="always"
       xlink:href="#linearGradient4032"
       id="linearGradient4067"
       x1="8.125"
       y1="1012.8466"
       x2="8.125"
       y2="1009.3154"
       gradientUnits="userSpaceOnUse" />
    <linearGradient
       inkscape:collect="always"
       xlink:href="#linearGradient4079"
       id="linearGradient4077"
       x1="3.5625"
       y1="1030.9247"
       x2="3.5625"
       y2="1027.2372"
       gradientUnits="userSpaceOnUse"
       gradientTransform="matrix(0.74465588,0,0,0.62139164,0.76603235,389.63047)" />
    <linearGradient
       inkscape:collect="always"
       xlink:href="#linearGradient4079"
       id="linearGradient4087"
       gradientUnits="userSpaceOnUse"
       gradientTransform="matrix(0.74465588,0,0,0.62139164,41.928294,389.63047)"
       x1="3.5625"
       y1="1030.9247"
       x2="3.5625"
       y2="1027.2372" />
  </defs>
  <sodipodi:namedview
     id="base"
     pagecolor="#ffffff"
     bordercolor="#666666"
     borderopacity="1.0"
     inkscape:pageopacity="0.0"
     inkscape:pageshadow="2"
     inkscape:zoom="5.6568543"
     inkscape:cx="10.963523"
     inkscape:cy="24.058408"
     inkscape:document-units="px"
     inkscape:current-layer="layer1"
     showgrid="false"
     inkscape:window-width="1366"
     inkscape:window-height="718"
     inkscape:window-x="0"
     inkscape:window-y="28"
     inkscape:window-maximized="1"
     showguides="false">
    <inkscape:grid
       type="xygrid"
       id="grid3850" />
  </sodipodi:namedview>
  <metadata
     id="metadata7">
    <rdf:RDF>
      <cc:Work
         rdf:about="">
        <dc:format>image/svg+xml</dc:format>
        <dc:type
           rdf:resource="http://purl.org/dc/dcmitype/StillImage" />
        <dc:title></dc:title>
      </cc:Work>
    </rdf:RDF>
  </metadata>
  <g
     inkscape:label="Capa 1"
     inkscape:groupmode="layer"
     id="layer1"
     transform="translate(0,-1004.3622)">
    <rect
       style="fill:url(#linearGradient1428);fill-opacity:1;stroke:none"
       id="rect2991-1"
       width="48"
       height="48"
       x="0"
       y="-1052.3622"
       ry="1.9445436"
       transform="scale(1,-1)" />
    <path
       inkscape:connector-curvature="0"
       style="fill:#000000;fill-opacity:1;stroke:none"
       d="m 9.5385742e-7,1049.3622 0,1.0625 c 0,1.0773 0.86022199614258,1.9375 1.93750004614258,1.9375 l 44.124998,0 c 1.07728,0 1.9375,-0.8602 1.9375,-1.9375 l 0,-1.0625 c 0,1.0773 -0.86022,1.9375 -1.9375,1.9375 l -44.124998,0 C 0.86022295,1051.2997 9.5385742e-7,1050.4395 9.5385742e-7,1049.3622 Z"
       id="rect846" />
    <path
       inkscape:connector-curvature="0"
       style="fill:#ffffff;fill-opacity:0.5372549;stroke:none"
       d="m 2.531251,1005.0185 c -0.917089,0 -1.67114705,0.6395 -1.84375005,1.5 0.33561205,-0.2799 0.77451205,-0.4375 1.25000005,-0.4375 l 44.124998,0 c 0.47549,0 0.91439,0.1576 1.25,0.4375 -0.1726,-0.8605 -0.92666,-1.5 -1.84375,-1.5 L 2.531251,1005.0185 Z"
       id="path7515" />
    <path
       inkscape:connector-curvature="0"
       style="fill:#000000;fill-opacity:0.39215686;stroke:none"
       d="m 1.937501,1004.3622 c -1.07727705,0 -1.93750004614258,0.8602 -1.93750004614258,1.9375 l 0,43.0625 c 0,0.7934 0.48002299614258,1.449 1.15625004614258,1.75 -0.30934205,-0.3333 -0.50000005,-0.7824 -0.50000005,-1.2812 l 0,-42.9375 c 0,-1.0482 0.82689905,-1.875 1.87500005,-1.875 l 42.937498,0 c 1.0481,0 1.875,0.8268 1.875,1.875 l 0,42.9375 c 0,0.4988 -0.19066,0.9479 -0.5,1.2812 0.67623,-0.301 1.15625,-0.9566 1.15625,-1.75 l 0,-43.0625 c 0,-1.0773 -0.86022,-1.9375 -1.9375,-1.9375 L 1.937501,1004.3622 Z"
       id="rect4280" />
    <path
       style="fill:url(#linearGradient1432);fill-opacity:1;stroke:none"
       d="M 3 25 L 3 43.3125 C 3 44.255118 3.7448824 45 4.6875 45 L 43.3125 45 C 44.255118 45 45 44.255118 45 43.3125 L 45 25 L 3 25 z "
       id="path1437"
       transform="translate(0,1004.3622)" />
    <path
       style="fill:url(#linearGradient1439);fill-opacity:1;stroke:none"
       d="M 3 25 L 45 25 L 45 4.6875 C 45 3.7448824 44.255118 3 43.3125 3 L 4.6875 3 C 3.7448824 3 3 3.7448824 3 4.6875 L 3 25 z "
       id="rect1430"
       transform="translate(0,1004.3622)" />
    <path
       style="fill:url(#linearGradient1464);fill-opacity:1.0;stroke:none"
       d="M 3 42.53125 L 3 43.3125 C 3 44.255118 3.7448824 45 4.6875 45 L 43.3125 45 C 44.255118 45 45 44.255118 45 43.3125 L 45 42.53125 C 45 43.47385 44.255118 44.21875 43.3125 44.21875 L 4.6875 44.21875 C 3.7448824 44.21875 3 43.47385 3 42.53125 z "
       transform="translate(0,1004.3622)"
       id="path1453" />
    <path
       id="path1466"
       d="m 3,1009.8309 0,-0.7812 c 0,-0.9427 0.7448824,-1.6875 1.6875,-1.6875 l 38.625,0 c 0.942618,0 1.6875,0.7448 1.6875,1.6875 l 0,0.7812 c 0,-0.9426 -0.744882,-1.6875 -1.6875,-1.6875 l -38.625,0 C 3.7448824,1008.1434 3,1008.8883 3,1009.8309 Z"
       style="fill:url(#linearGradient1468);fill-opacity:1.0;stroke:none"
       inkscape:connector-curvature="0" />
    <path
       style="fill:url(#linearGradient1481);fill-opacity:1;stroke:none"
       d="M 4.6875,1049.3622 C 3.7448824,1049.3622 3,1048.6173 3,1047.6747 l 0,-20.3125 0.71875,0 0,20.3125 c 0,0.9426 0.7448824,1.6875 1.6875,1.6875 L 4.6875,1049.3622 Z"
       id="path1470"
       inkscape:connector-curvature="0" />
    <path
       id="path1483"
       d="m 43.3125,1049.3622 c 0.942618,0 1.6875,-0.7449 1.6875,-1.6875 l 0,-20.3125 -0.71875,0 0,20.3125 c 0,0.9426 -0.744882,1.6875 -1.6875,1.6875 L 43.3125,1049.3622 Z"
       style="fill:url(#linearGradient1485);fill-opacity:1;stroke:none"
       inkscape:connector-curvature="0" />
    <path
       style="fill:#ffffff;fill-opacity:0.23474178;stroke:none"
       d="m 3,1047.6825 0,0.625 c 0,0.9427 0.7448824,1.6875 1.6875,1.6875 l 38.625,0 c 0.942618,0 1.6875,-0.7448 1.6875,-1.6875 l 0,-0.625 c 0,0.9426 -0.744882,1.6875 -1.6875,1.6875 l -38.625,0 C 3.7448824,1049.37 3,1048.6251 3,1047.6825 Z"
       id="path1487"
       inkscape:connector-curvature="0" />
    <path
       style="font-size:33.21625137px;font-style:normal;font-variant:normal;font-weight:normal;font-stretch:normal;text-align:start;line-height:125%;letter-spacing:0px;word-spacing:0px;writing-mode:lr-tb;text-anchor:start;fill:url(#linearGradient4067);fill-opacity:1;stroke:none;font-family:Bebas;-inkscape-font-specification:Bebas"
       d="M 5.59375,1009.3622 5,1012.831 l 0.53125,0 0.15625,-0.8125 0.53125,0 0.125,0.8125 0.5625,0 L 6.3125,1009.3622 5.59375,1009.3622 z m 1.75,0 0,3.4688 0.5,0 0,-2.1563 0.5,2.1563 0.40625,0 0.46875,-2.1875 0,2.1875 0.5,0 0,-3.4688 -0.6875,0 -0.46875,2.4688 -0.5,-2.4688 L 7.34375,1009.3622 z m -1.40625,0.8125 0.1875,1.3438 -0.375,0 L 5.9375,1010.1747 Z"
       id="path870"
       inkscape:connector-curvature="0" />
    <path
       style="font-size:33.21625137px;font-style:normal;font-variant:normal;font-weight:normal;font-stretch:normal;text-align:start;line-height:125%;letter-spacing:0px;word-spacing:0px;writing-mode:lr-tb;text-anchor:start;fill:url(#linearGradient4046);fill-opacity:1;stroke:none;font-family:Bebas;-inkscape-font-specification:Bebas"
       d="M 15.0625 25 L 15.0625 38 L 19.3125 38 L 19.3125 25 L 15.0625 25 z M 29.03125 25 C 28.936929 25.136039 28.910895 25.23702 28.8125 25.375 C 27.443141 27.3099 26.390026 28.6843 25.75 29.5625 L 24.6875 31.125 C 24.330276 31.646 23.970302 32.1309 23.6875 32.5625 C 23.062358 33.5003 22.75 34.0357 22.75 34.125 L 22.75 38 L 36.1875 38 L 36.1875 33.875 L 27.875 33.875 C 27.875 33.83 27.94342 33.6458 28.0625 33.4375 C 28.315533 33.0058 28.696317 32.4317 29.1875 31.6875 L 30 30.5625 C 30.907944 29.1783 31.538586 28.155 32 27.5 C 32.836229 26.31905 33.062149 25.836184 33.59375 25 L 29.03125 25 z "
       transform="translate(0,1004.3622)"
       id="path4049" />
    <path
       style="font-size:33.21625137px;font-style:normal;font-variant:normal;font-weight:normal;font-stretch:normal;text-align:start;line-height:125%;letter-spacing:0px;word-spacing:0px;writing-mode:lr-tb;text-anchor:start;fill:url(#linearGradient4056);fill-opacity:1;stroke:none;font-family:Bebas;-inkscape-font-specification:Bebas"
       d="M 16.3125 10 C 15.910623 10.9229 15.297829 11.68885 14.375 12.34375 C 13.467055 12.98375 12.449636 13.381 11.4375 13.5 L 11.4375 16.4375 L 15.0625 16.4375 L 15.0625 25 L 19.3125 25 L 19.3125 10 L 16.3125 10 z M 29.875 10 C 27.865615 10 26.235399 10.5771 25 11.8125 C 23.571104 13.2117 22.8125 15.2256 22.8125 17.875 L 22.8125 18.625 L 27 18.625 L 27 17.5625 C 27 16.9373 27.08627 16.4466 27.25 16 C 27.741182 14.6456 28.574137 13.9375 29.75 13.9375 C 30.568639 13.9375 31.229048 14.2498 31.75 14.875 C 32.2263 15.4703 32.4375 16.2141 32.4375 17.0625 C 32.4375 18.1044 32.208452 19.2318 31.6875 20.4375 C 31.096105 21.799037 30.178249 23.345679 29.03125 25 L 33.59375 25 C 34.140836 24.13946 35.015981 22.935751 35.25 22.4375 C 36.098407 20.6663 36.5625 18.7802 36.5625 16.875 C 36.5625 15.0294 35.872322 13.4467 34.5625 12.0625 C 33.267563 10.6782 31.720658 10 29.875 10 z "
       transform="translate(0,1004.3622)"
       id="path4042" />
    <path
       inkscape:connector-curvature="0"
       id="path1510"
       d="m 4.6875,1007.3622 c -0.9426176,0 -1.6875,0.7449 -1.6875,1.6875 l 0,20.3125 0.71875,0 0,-20.3125 c 0,-0.9426 0.7448824,-1.6875 1.6875,-1.6875 L 4.6875,1007.3622 Z"
       style="fill:url(#linearGradient1514);fill-opacity:1;stroke:none" />
    <path
       inkscape:connector-curvature="0"
       style="fill:url(#linearGradient1516);fill-opacity:1;stroke:none"
       d="m 43.3125,1007.3622 c 0.942618,0 1.6875,0.7449 1.6875,1.6875 l 0,20.3125 -0.71875,0 0,-20.3125 c 0,-0.9426 -0.744882,-1.6875 -1.6875,-1.6875 L 43.3125,1007.3622 Z"
       id="path1512" />
    <rect
       style="color:#000000;fill:url(#linearGradient4077);fill-opacity:1;fill-rule:nonzero;stroke:none;stroke-width:0.2;marker:none;visibility:visible;display:inline;overflow:visible;enable-background:accumulate"
       id="rect4069"
       width="0.83773786"
       height="2.4661481"
       x="3"
       y="1027.8792" />
    <rect
       y="1027.8792"
       x="44.162262"
       height="2.4661481"
       width="0.83773786"
       id="rect4085"
       style="color:#000000;fill:url(#linearGradient4087);fill-opacity:1;fill-rule:nonzero;stroke:none;stroke-width:0.2;marker:none;visibility:visible;display:inline;overflow:visible;enable-background:accumulate" />
    <path
       style="fill:url(#linearGradient1514);fill-opacity:1;stroke:none"
       d="m 4.6875,1007.3622 c -0.9426176,0 -1.6875,0.7449 -1.6875,1.6875 l 0,20.3125 0.71875,0 0,-20.3125 c 0,-0.9426 0.7448824,-1.6875 1.6875,-1.6875 L 4.6875,1007.3622 Z"
       id="path4093"
       inkscape:connector-curvature="0" />
    <path
       inkscape:connector-curvature="0"
       id="path4095"
       d="M 4.6875,1049.3622 C 3.7448824,1049.3622 3,1048.6173 3,1047.6747 l 0,-20.3125 0.71875,0 0,20.3125 c 0,0.9426 0.7448824,1.6875 1.6875,1.6875 L 4.6875,1049.3622 Z"
       style="fill:url(#linearGradient1481);fill-opacity:1;stroke:none" />
    <path
       inkscape:connector-curvature="0"
       style="fill:url(#linearGradient1485);fill-opacity:1;stroke:none"
       d="m 43.3125,1049.3622 c 0.942618,0 1.6875,-0.7449 1.6875,-1.6875 l 0,-20.3125 -0.71875,0 0,20.3125 c 0,0.9426 -0.744882,1.6875 -1.6875,1.6875 L 43.3125,1049.3622 Z"
       id="path4097" />
    <path
       id="path4099"
       d="m 43.3125,1007.3622 c 0.942618,0 1.6875,0.7449 1.6875,1.6875 l 0,20.3125 -0.71875,0 0,-20.3125 c 0,-0.9426 -0.744882,-1.6875 -1.6875,-1.6875 L 43.3125,1007.3622 Z"
       style="fill:url(#linearGradient1516);fill-opacity:1;stroke:none"
       inkscape:connector-curvature="0" />
  </g>
</svg>
