<?xml version="1.0" encoding="UTF-8" standalone="no"?>
<!-- Created with Inkscape (http://www.inkscape.org/) -->

<svg
   xmlns:dc="http://purl.org/dc/elements/1.1/"
   xmlns:cc="http://creativecommons.org/ns#"
   xmlns:rdf="http://www.w3.org/1999/02/22-rdf-syntax-ns#"
   xmlns:svg="http://www.w3.org/2000/svg"
   xmlns="http://www.w3.org/2000/svg"
   xmlns:xlink="http://www.w3.org/1999/xlink"
   xmlns:sodipodi="http://sodipodi.sourceforge.net/DTD/sodipodi-0.dtd"
   xmlns:inkscape="http://www.inkscape.org/namespaces/inkscape"
   width="48"
   height="48"
   id="svg2"
   version="1.1"
   inkscape:version="0.48+devel r12130"
   sodipodi:docname="gnome-documents.svg">
  <defs
     id="defs4">
    <linearGradient
       inkscape:collect="always"
       id="linearGradient994">
      <stop
         style="stop-color:#000000;stop-opacity:0.27205882"
         offset="0"
         id="stop996" />
      <stop
         style="stop-color:#000000;stop-opacity:0"
         offset="1"
         id="stop998" />
    </linearGradient>
    <linearGradient
       id="linearGradient900"
       inkscape:collect="always">
      <stop
         id="stop902"
         offset="0"
         style="stop-color:#cb9c1f;stop-opacity:1" />
      <stop
         id="stop904"
         offset="1"
         style="stop-color:#ebcb63;stop-opacity:1" />
    </linearGradient>
    <linearGradient
       inkscape:collect="always"
       id="linearGradient885">
      <stop
         style="stop-color:#e0b134;stop-opacity:1"
         offset="0"
         id="stop887" />
      <stop
         style="stop-color:#ebcb63;stop-opacity:1"
         offset="1"
         id="stop889" />
    </linearGradient>
    <linearGradient
       inkscape:collect="always"
       xlink:href="#linearGradient900"
       id="linearGradient891"
       x1="25.249998"
       y1="-1053.1122"
       x2="25.249998"
       y2="-1004.8622"
       gradientUnits="userSpaceOnUse" />
    <linearGradient
       inkscape:collect="always"
       xlink:href="#linearGradient885"
       id="linearGradient897"
       gradientUnits="userSpaceOnUse"
       x1="25.249998"
       y1="-1053.1122"
       x2="25.249998"
       y2="-1004.8622"
       gradientTransform="matrix(1,0,0,-1,0,-1004.3622)" />
    <linearGradient
       inkscape:collect="always"
       id="linearGradient917">
      <stop
         style="stop-color:#f9f9f9;stop-opacity:1"
         offset="0"
         id="stop919" />
      <stop
         style="stop-color:#ffffff;stop-opacity:1"
         offset="1"
         id="stop921" />
    </linearGradient>
    <linearGradient
       y2="-1004.6122"
       x2="24.5"
       y1="-1052.5819"
       x1="24.5"
       gradientUnits="userSpaceOnUse"
       id="linearGradient866"
       xlink:href="#linearGradient917"
       inkscape:collect="always"
       gradientTransform="translate(1004.3622,1052.3622)" />
    <linearGradient
       inkscape:collect="always"
       xlink:href="#linearGradient994"
       id="linearGradient1000"
       x1="-0.79549569"
       y1="4.0709939"
       x2="13.34664"
       y2="18.213129"
       gradientUnits="userSpaceOnUse"
       gradientTransform="matrix(1,0,0,-1,-1.5909902,1052.2789)" />
  </defs>
  <sodipodi:namedview
     id="base"
     pagecolor="#ffffff"
     bordercolor="#666666"
     borderopacity="1.0"
     inkscape:pageopacity="0.0"
     inkscape:pageshadow="2"
     inkscape:zoom="11.313709"
     inkscape:cx="35.000835"
     inkscape:cy="30.865846"
     inkscape:document-units="px"
     inkscape:current-layer="layer1"
     showgrid="false"
     inkscape:window-width="1366"
     inkscape:window-height="717"
     inkscape:window-x="0"
     inkscape:window-y="28"
     inkscape:window-maximized="1">
    <inkscape:grid
       type="xygrid"
       id="grid3850" />
  </sodipodi:namedview>
  <metadata
     id="metadata7">
    <rdf:RDF>
      <cc:Work
         rdf:about="">
        <dc:format>image/svg+xml</dc:format>
        <dc:type
           rdf:resource="http://purl.org/dc/dcmitype/StillImage" />
        <dc:title />
      </cc:Work>
    </rdf:RDF>
  </metadata>
  <g
     inkscape:label="Capa 1"
     inkscape:groupmode="layer"
     id="layer1"
     transform="translate(0,-1004.3622)">
    <rect
       style="fill:url(#linearGradient891);fill-opacity:1;stroke:none"
       id="rect2991-1"
       width="48"
       height="48"
       x="-3.1457671e-06"
       y="-1052.3622"
       ry="1.9445436"
       transform="scale(1,-1)" />
    <rect
       style="fill:url(#linearGradient866);fill-opacity:1;stroke:none"
       id="rect2991-1-9"
       width="48"
       height="48"
       x="1004.3622"
       y="0"
       ry="1.9445436"
       transform="matrix(0,1,1,0,0,0)" />
    <path
       style="fill:#000000;fill-opacity:0.42458099;stroke:none"
       d="m 41.173413,1004.3622 c 1.077277,0 1.9375,0.8602 1.9375,1.9375 l 0,44.125 c 0,1.0773 -0.860223,1.9375 -1.9375,1.9375 l 1,0 c 1.077277,0 1.9375,-0.8602 1.9375,-1.9375 l 0,-44.125 c 0,-1.0773 -0.860223,-1.9375 -1.9375,-1.9375 L 41.173413,1004.3622 Z"
       id="rect1061"
       inkscape:connector-curvature="0" />
    <g
       id="g898"
       transform="matrix(0,0.96557061,-0.96557061,0,1016.5265,1005.1023)">
      <g
         id="text861"
         style="font-size:40px;font-style:normal;font-variant:normal;font-weight:bold;font-stretch:normal;line-height:125%;letter-spacing:0px;word-spacing:0px;fill:#000000;fill-opacity:1;stroke:none;font-family:Times New Roman;-inkscape-font-specification:'Times New Roman, Bold'"
         transform="matrix(0.6041298,0,0,0.6041298,-3.7432642,1005.1833)">
        <path
           inkscape:connector-curvature="0"
           id="path866"
           d="m 40.260394,10.201916 0,7.167968 -0.703125,0 q -0.625,-2.480468 -1.386719,-3.554687 -0.761718,-1.09375 -2.089843,-1.738281 -0.742188,-0.351563 -2.597657,-0.351563 l -1.972656,0 0,20.429688 q 0,2.03125 0.214844,2.539062 0.234375,0.507813 0.878906,0.898438 0.664063,0.371093 1.796875,0.371093 l 0.878906,0 0,0.722657 -13.867187,0 0,-0.722657 0.878906,0 q 1.152344,0 1.855469,-0.410156 0.507812,-0.273437 0.800781,-0.9375 0.214844,-0.46875 0.214844,-2.460937 l 0,-20.429688 -1.914063,0 q -2.675781,0 -3.886718,1.132813 -1.699219,1.582031 -2.148438,4.511718 l -0.742187,0 0,-7.167968 L 40.260394,10.201916 Z" />
      </g>
      <rect
         ry="0"
         y="1011.3466"
         x="21.743534"
         height="1.1409271"
         width="20.227606"
         id="rect868"
         style="color:#000000;fill:#6c7587;fill-opacity:1;fill-rule:nonzero;stroke:none;stroke-width:0.2;marker:none;visibility:visible;display:inline;overflow:visible;enable-background:accumulate" />
      <rect
         style="color:#000000;fill:#6c7587;fill-opacity:1;fill-rule:nonzero;stroke:none;stroke-width:0.2;marker:none;visibility:visible;display:inline;overflow:visible;enable-background:accumulate"
         id="rect870"
         width="20.227606"
         height="1.1409271"
         x="21.743534"
         y="1013.3466"
         ry="0" />
      <rect
         ry="0"
         y="1015.3466"
         x="21.743534"
         height="1.1409271"
         width="20.227606"
         id="rect872"
         style="color:#000000;fill:#6c7587;fill-opacity:1;fill-rule:nonzero;stroke:none;stroke-width:0.2;marker:none;visibility:visible;display:inline;overflow:visible;enable-background:accumulate" />
      <rect
         style="color:#000000;fill:#6c7587;fill-opacity:1;fill-rule:nonzero;stroke:none;stroke-width:0.2;marker:none;visibility:visible;display:inline;overflow:visible;enable-background:accumulate"
         id="rect874"
         width="20.227606"
         height="1.1409271"
         x="21.743534"
         y="1017.3466"
         ry="0" />
      <rect
         ry="0"
         y="1019.3466"
         x="21.743534"
         height="1.1409271"
         width="10.540106"
         id="rect876"
         style="color:#000000;fill:#6c7587;fill-opacity:1;fill-rule:nonzero;stroke:none;stroke-width:0.2;marker:none;visibility:visible;display:inline;overflow:visible;enable-background:accumulate" />
      <rect
         style="color:#000000;fill:#6c7587;fill-opacity:1;fill-rule:nonzero;stroke:none;stroke-width:0.2;marker:none;visibility:visible;display:inline;overflow:visible;enable-background:accumulate"
         id="rect878"
         width="20.227606"
         height="1.1409271"
         x="21.743534"
         y="1023.3466"
         ry="0" />
      <rect
         ry="0"
         y="1025.3467"
         x="21.743534"
         height="1.1409271"
         width="20.227606"
         id="rect880"
         style="color:#000000;fill:#6c7587;fill-opacity:1;fill-rule:nonzero;stroke:none;stroke-width:0.2;marker:none;visibility:visible;display:inline;overflow:visible;enable-background:accumulate" />
      <rect
         style="color:#000000;fill:#6c7587;fill-opacity:1;fill-rule:nonzero;stroke:none;stroke-width:0.2;marker:none;visibility:visible;display:inline;overflow:visible;enable-background:accumulate"
         id="rect882"
         width="20.227606"
         height="1.1409271"
         x="21.743534"
         y="1027.3467"
         ry="0" />
      <rect
         ry="0"
         y="1029.3467"
         x="6.2075582"
         height="1.1409271"
         width="35.739761"
         id="rect884"
         style="color:#000000;fill:#6c7587;fill-opacity:1;fill-rule:nonzero;stroke:none;stroke-width:0.2;marker:none;visibility:visible;display:inline;overflow:visible;enable-background:accumulate" />
      <rect
         style="color:#000000;fill:#6c7587;fill-opacity:1;fill-rule:nonzero;stroke:none;stroke-width:0.2;marker:none;visibility:visible;display:inline;overflow:visible;enable-background:accumulate"
         id="rect886"
         width="10.540106"
         height="1.1409271"
         x="6.2075582"
         y="1031.3467"
         ry="0" />
      <rect
         style="color:#000000;fill:#6c7587;fill-opacity:1;fill-rule:nonzero;stroke:none;stroke-width:0.2;marker:none;visibility:visible;display:inline;overflow:visible;enable-background:accumulate"
         id="rect888"
         width="35.739761"
         height="1.1409271"
         x="6.2075582"
         y="1035.3467"
         ry="0" />
      <rect
         ry="0"
         y="1037.3467"
         x="6.2075582"
         height="1.1409271"
         width="35.739761"
         id="rect890"
         style="color:#000000;fill:#6c7587;fill-opacity:1;fill-rule:nonzero;stroke:none;stroke-width:0.2;marker:none;visibility:visible;display:inline;overflow:visible;enable-background:accumulate" />
      <rect
         style="color:#000000;fill:#6c7587;fill-opacity:1;fill-rule:nonzero;stroke:none;stroke-width:0.2;marker:none;visibility:visible;display:inline;overflow:visible;enable-background:accumulate"
         id="rect892"
         width="35.739761"
         height="1.1409271"
         x="6.2075582"
         y="1039.3467"
         ry="0" />
      <rect
         ry="0"
         y="1043.3467"
         x="6.2075582"
         height="1.1409271"
         width="35.739761"
         id="rect894"
         style="color:#000000;fill:#6c7587;fill-opacity:1;fill-rule:nonzero;stroke:none;stroke-width:0.2;marker:none;visibility:visible;display:inline;overflow:visible;enable-background:accumulate" />
      <rect
         style="color:#000000;fill:#6c7587;fill-opacity:1;fill-rule:nonzero;stroke:none;stroke-width:0.2;marker:none;visibility:visible;display:inline;overflow:visible;enable-background:accumulate"
         id="rect896"
         width="35.739761"
         height="1.1409271"
         x="6.2075582"
         y="1041.3467"
         ry="0" />
    </g>
    <path
       style="fill:url(#linearGradient897);fill-opacity:1;stroke:none"
       d="M 1.9375,0 C 0.86022285,0 0,0.86022285 0,1.9375 l 0,44.125 C 0,47.139777 0.86022285,48 1.9375,48 l 31.46875,0 0,-26 c 0,-1.077277 0.860223,-1.9375 1.9375,-1.9375 l 6.65625,0 0,-18.125 C 42,0.86022285 41.139777,0 40.0625,0 Z"
       transform="translate(0,1004.3622)"
       id="rect893"
       inkscape:connector-curvature="0"
       sodipodi:nodetypes="sssscsscsss" />
    <path
       style="fill:#000000;fill-opacity:0.10055866;stroke:none"
       d="M 40.0625 0 L 40.0625 17.75 L 33.40625 17.75 C 32.328973 17.75 31.46875 18.6103 31.46875 19.6875 L 31.46875 45.6875 L 0 45.6875 L 0 46.0625 C 0 47.139777 0.86022285 48 1.9375 48 L 33.40625 48 L 33.40625 22 C 33.40625 20.922723 34.266473 20.0625 35.34375 20.0625 L 42 20.0625 L 42 1.9375 C 42 0.86022285 41.139777 0 40.0625 0 z "
       transform="translate(0,1004.3622)"
       id="path987" />
    <path
       inkscape:connector-curvature="0"
       style="fill:#000000;fill-opacity:1;stroke:none"
       d="m -2.8542328e-6,1049.3622 0,1.0625 c 0,1.0773 0.8602230042328,1.9375 1.9374999542328,1.9375 l 44.1250009,0 c 1.077277,0 1.937505,-0.8602 1.937505,-1.9375 l 0,-1.0625 c 0,1.0773 -0.860228,1.9375 -1.937505,1.9375 l -44.1250009,0 C 0.86022015,1051.2997 -2.8542328e-6,1050.4395 -2.8542328e-6,1049.3622 Z"
       id="rect846" />
    <path
       style="fill:#000000;fill-opacity:0.24581006;stroke:none"
       d="m 41.03125,0.28125 c 0.284236,0.33680469 0.416147,0.7732877 0.46875,1.25 l 0,18.125 -6.65625,0 c -1.077277,0 -1.9375,0.8602 -1.9375,1.9375 l 0,26 -31.46875,0 c -0.3559475,0 -0.68339631,-0.116626 -0.96875,-0.28125 C 0.8229701,47.732235 1.3398184,48 1.9375,48 l 31.46875,0 0,-26 c 0,-1.077277 0.860223,-1.9375 1.9375,-1.9375 l 6.65625,0 0,-18.125 C 42,1.2161703 41.609521,0.61486617 41.03125,0.28125 Z"
       id="path906"
       inkscape:connector-curvature="0"
       sodipodi:nodetypes="cscsscscscsscsc"
       transform="translate(0,1004.3622)" />
    <path
       inkscape:connector-curvature="0"
       style="fill:#ffffff;fill-opacity:0.5372549;stroke:none"
       d="m 2.5312471,1005.0185 c -0.917088,0 -1.67114695,0.6395 -1.84374995,1.5 0.33561195,-0.2799 0.77451195,-0.4375 1.24999995,-0.4375 l 44.1250009,0 c 0.475488,0 0.914388,0.1576 1.250005,0.4375 -0.172608,-0.8605 -0.926667,-1.5 -1.843755,-1.5 L 2.5312471,1005.0185 Z"
       id="path7515" />
    <path
       inkscape:connector-curvature="0"
       style="fill:#000000;fill-opacity:0.39215686;stroke:none"
       d="m 1.9374971,1004.3622 c -1.07727695,0 -1.9374999542328,0.8602 -1.9374999542328,1.9375 l 0,43.0625 c 0,0.7934 0.4800240042328,1.449 1.1562499542328,1.75 -0.30934195,-0.3333 -0.49999995,-0.7824 -0.49999995,-1.2812 l 0,-42.9375 c 0,-1.0482 0.82689895,-1.875 1.87499995,-1.875 l 42.9375009,0 c 1.048101,0 1.875005,0.8268 1.875005,1.875 l 0,42.9375 c 0,0.4988 -0.190663,0.9479 -0.500005,1.2812 0.676225,-0.301 1.156255,-0.9566 1.156255,-1.75 l 0,-43.0625 c 0,-1.0773 -0.860228,-1.9375 -1.937505,-1.9375 L 1.9374971,1004.3622 Z"
       id="rect4280-0" />
    <path
       style="opacity:0.272;fill:url(#linearGradient1000);fill-opacity:1;stroke:none"
       d="m 2.6516503,1048.1196 0,-39.598 C 5.6657035,1027.0202 8.0958928,1045.9761 31.996581,1048.1196 Z"
       id="path992"
       inkscape:connector-curvature="0"
       sodipodi:nodetypes="cccc" />
    <path
       inkscape:connector-curvature="0"
       id="path1066"
       d="m 43.267163,1004.3622 c 1.077277,0 1.9375,0.8602 1.9375,1.9375 l 0,44.125 c 0,1.0773 -0.860223,1.9375 -1.9375,1.9375 l 1,0 c 1.077277,0 1.9375,-0.8602 1.9375,-1.9375 l 0,-44.125 c 0,-1.0773 -0.860223,-1.9375 -1.9375,-1.9375 L 43.267163,1004.3622 Z"
       style="fill:#000000;fill-opacity:0.42458101;stroke:none" />
  </g>
</svg>
