<?xml version="1.0" encoding="UTF-8" standalone="no"?>
<!-- Created with Inkscape (http://www.inkscape.org/) -->

<svg
   xmlns:dc="http://purl.org/dc/elements/1.1/"
   xmlns:cc="http://creativecommons.org/ns#"
   xmlns:rdf="http://www.w3.org/1999/02/22-rdf-syntax-ns#"
   xmlns:svg="http://www.w3.org/2000/svg"
   xmlns="http://www.w3.org/2000/svg"
   xmlns:xlink="http://www.w3.org/1999/xlink"
   xmlns:sodipodi="http://sodipodi.sourceforge.net/DTD/sodipodi-0.dtd"
   xmlns:inkscape="http://www.inkscape.org/namespaces/inkscape"
   width="48"
   height="48"
   id="svg2"
   version="1.1"
   inkscape:version="0.48+devel r12137"
   sodipodi:docname="jupiter.svg">
  <defs
     id="defs4">
    <linearGradient
       id="linearGradient2005"
       inkscape:collect="always">
      <stop
         id="stop2007"
         offset="0"
         style="stop-color:#1a1a1a;stop-opacity:1" />
      <stop
         style="stop-color:#4d4d4d;stop-opacity:1"
         offset="0.1127381"
         id="stop2013" />
      <stop
         id="stop2015"
         offset="0.16910715"
         style="stop-color:#ffffff;stop-opacity:1" />
      <stop
         style="stop-color:#808080;stop-opacity:1"
         offset="0.91594511"
         id="stop2009" />
      <stop
         id="stop2011"
         offset="1"
         style="stop-color:#4d4d4d;stop-opacity:1" />
    </linearGradient>
    <linearGradient
       id="linearGradient1995">
      <stop
         id="stop1997"
         offset="0"
         style="stop-color:#000000;stop-opacity:0.12184874" />
      <stop
         id="stop1999"
         offset="1"
         style="stop-color:#4d4d4d;stop-opacity:0" />
    </linearGradient>
    <linearGradient
       inkscape:collect="always"
       id="linearGradient1975">
      <stop
         style="stop-color:#4c5b19;stop-opacity:1"
         offset="0"
         id="stop1977" />
      <stop
         id="stop1983"
         offset="0.22547621"
         style="stop-color:#add858;stop-opacity:1" />
      <stop
         style="stop-color:#91ba60;stop-opacity:1"
         offset="1"
         id="stop1979" />
    </linearGradient>
    <linearGradient
       id="linearGradient3795">
      <stop
         style="stop-color:#000000;stop-opacity:1"
         offset="0"
         id="stop3797" />
      <stop
         style="stop-color:#4d4d4d;stop-opacity:1"
         offset="1"
         id="stop3799" />
    </linearGradient>
    <linearGradient
       inkscape:collect="always"
       xlink:href="#linearGradient3795"
       id="linearGradient3801"
       x1="23.204165"
       y1="1053.158"
       x2="23.204165"
       y2="1004.8474"
       gradientUnits="userSpaceOnUse" />
    <linearGradient
       inkscape:collect="always"
       xlink:href="#linearGradient1975"
       id="linearGradient1981"
       x1="10.429825"
       y1="25.814526"
       x2="25.455844"
       y2="25.814526"
       gradientUnits="userSpaceOnUse"
       gradientTransform="matrix(1,0,0,0.85341842,-4.25,1008.2713)" />
    <linearGradient
       inkscape:collect="always"
       xlink:href="#linearGradient1995"
       id="linearGradient1992"
       gradientUnits="userSpaceOnUse"
       x1="10.429825"
       y1="25.814526"
       x2="25.455845"
       y2="25.814526"
       gradientTransform="matrix(1,0,0,0.85341842,-4.25,1008.2713)" />
    <linearGradient
       inkscape:collect="always"
       xlink:href="#linearGradient2005"
       id="linearGradient2003"
       gradientUnits="userSpaceOnUse"
       x1="10.429825"
       y1="25.814526"
       x2="25.455844"
       y2="25.814526"
       gradientTransform="matrix(1,0,0,0.04551025,-4.25,1014.6722)" />
    <linearGradient
       inkscape:collect="always"
       xlink:href="#linearGradient2005"
       id="linearGradient2021"
       gradientUnits="userSpaceOnUse"
       gradientTransform="matrix(1,0,0,0.04551025,-4.25,1043.6749)"
       x1="10.429825"
       y1="25.814526"
       x2="25.455844"
       y2="25.814526" />
    <linearGradient
       inkscape:collect="always"
       xlink:href="#linearGradient2005"
       id="linearGradient2025"
       gradientUnits="userSpaceOnUse"
       gradientTransform="matrix(0.35944445,0,0,0.04551025,7.243382,1013.1254)"
       x1="10.429825"
       y1="25.814526"
       x2="25.455844"
       y2="25.814526" />
  </defs>
  <sodipodi:namedview
     id="base"
     pagecolor="#ffffff"
     bordercolor="#666666"
     borderopacity="1.0"
     inkscape:pageopacity="0.0"
     inkscape:pageshadow="2"
     inkscape:zoom="5.6568543"
     inkscape:cx="-10.278281"
     inkscape:cy="19.263476"
     inkscape:document-units="px"
     inkscape:current-layer="layer1"
     showgrid="false"
     inkscape:window-width="1366"
     inkscape:window-height="714"
     inkscape:window-x="0"
     inkscape:window-y="30"
     inkscape:window-maximized="1">
    <inkscape:grid
       type="xygrid"
       id="grid3803" />
  </sodipodi:namedview>
  <metadata
     id="metadata7">
    <rdf:RDF>
      <cc:Work
         rdf:about="">
        <dc:format>image/svg+xml</dc:format>
        <dc:type
           rdf:resource="http://purl.org/dc/dcmitype/StillImage" />
        <dc:title />
      </cc:Work>
    </rdf:RDF>
  </metadata>
  <g
     inkscape:label="Capa 1"
     inkscape:groupmode="layer"
     id="layer1"
     transform="translate(0,-1004.3622)">
    <rect
       style="fill:url(#linearGradient3801);fill-opacity:1;stroke:none"
       id="rect2991"
       width="48"
       height="48"
       x="0"
       y="1004.3622"
       ry="1.9445436" />
    <path
       style="opacity:0.117;fill:#ffffff;fill-opacity:0.5466667;stroke:none"
       d="M 5.125 0 L 0 8.875 L 0 15.8125 L 9.125 0 L 5.125 0 z M 17.3125 0 L 0 30 L 0 37 L 21.34375 0 L 17.3125 0 z M 29.5 0 L 1.78125 48 C 1.8357566 48.00455 1.8817788 48 1.9375 48 L 5.8125 48 L 33.53125 0 L 29.5 0 z M 41.71875 0 L 14 48 L 18.03125 48 L 45.75 0 L 41.71875 0 z M 48 10.21875 L 26.1875 48 L 30.21875 48 L 48 17.21875 L 48 10.21875 z M 48 31.40625 L 38.40625 48 L 42.40625 48 L 48 38.34375 L 48 31.40625 z "
       transform="translate(0,1004.3622)"
       id="rect2124" />
    <g
       id="g2089"
       transform="matrix(0.99931848,0,0,0.99931848,10.310049,-0.51112266)">
      <rect
         style="fill:url(#linearGradient1981);fill-opacity:1;stroke:none"
         id="rect2001"
         width="15.026019"
         height="27.608202"
         x="6.1798248"
         y="1016.4978"
         ry="0" />
      <rect
         ry="0"
         y="1015.1109"
         x="6.1798248"
         height="1.4722629"
         width="15.026019"
         id="rect1971"
         style="fill:url(#linearGradient2003);fill-opacity:1;stroke:none" />
      <path
         sodipodi:nodetypes="cccccccc"
         inkscape:connector-curvature="0"
         id="rect1990"
         d="m 6.1875,1016.4854 0,27.6295 15.03125,0 0,-0.019 -12,0 c 0,-17.1287 -3.109723,-25.9032 12,-25.9032 L 21.21875,1016.4854 Z"
         style="opacity:0.64099995;fill:url(#linearGradient1992);fill-opacity:1;stroke:none" />
      <rect
         style="fill:url(#linearGradient2021);fill-opacity:1;stroke:none"
         id="rect2017"
         width="15.026019"
         height="1.4722629"
         x="6.1798248"
         y="1044.1136"
         ry="0" />
      <rect
         style="fill:url(#linearGradient2025);fill-opacity:1;stroke:none"
         id="rect2023"
         width="5.4010191"
         height="1.4722629"
         x="10.992325"
         y="1013.5641"
         ry="0" />
      <path
         id="rect2027"
         transform="translate(0,1004.3622)"
         d="m 13.78125,17.28125 -5.9375,6.40625 3.28125,0 0,4.25 5.3125,0 0,-4.25 3.28125,0 L 13.78125,17.28125 z m -2.65625,11.5 0,2.125 5.3125,0 0,-2.125 L 11.125,28.78125 z m 0,2.96875 0,2.09375 5.3125,0 0,-2.09375 L 11.125,31.75 Z"
         style="opacity:0.64099995;fill:#000000;fill-opacity:0.5466667;stroke:none"
         inkscape:connector-curvature="0" />
    </g>
    <path
       inkscape:connector-curvature="0"
       style="fill:#000000;fill-opacity:1;stroke:none"
       d="m 0,1049.3622 0,1.0625 c 0,1.0773 0.860222,1.9375 1.937499,1.9375 l 44.125001,0 c 1.077277,0 1.9375,-0.8602 1.9375,-1.9375 l 0,-1.0625 c 0,1.0773 -0.860223,1.9375 -1.9375,1.9375 l -44.125001,0 C 0.860222,1051.2997 0,1050.4395 0,1049.3622 Z"
       id="rect846" />
    <path
       inkscape:connector-curvature="0"
       style="fill:#ffffff;fill-opacity:0.5372549;stroke:none"
       d="m 2.531249,1005.0185 c -0.917088,0 -1.671146,0.6395 -1.843749,1.5 0.335612,-0.2799 0.774512,-0.4375 1.249999,-0.4375 l 44.125001,0 c 0.475488,0 0.914388,0.1576 1.25,0.4375 -0.172603,-0.8605 -0.926662,-1.5 -1.84375,-1.5 L 2.531249,1005.0185 Z"
       id="path7515" />
    <path
       inkscape:connector-curvature="0"
       style="fill:#000000;fill-opacity:0.39215686;stroke:none"
       d="M 1.937499,1004.3622 C 0.860223,1004.3622 0,1005.2224 0,1006.2997 l 0,43.0625 c 0,0.7934 0.480023,1.449 1.156249,1.75 -0.309341,-0.3333 -0.499999,-0.7824 -0.499999,-1.2812 l 0,-42.9375 c 0,-1.0482 0.826898,-1.875 1.874999,-1.875 l 42.937501,0 c 1.048101,0 1.875,0.8268 1.875,1.875 l 0,42.9375 c 0,0.4988 -0.190658,0.9479 -0.5,1.2812 0.676226,-0.301 1.15625,-0.9566 1.15625,-1.75 l 0,-43.0625 c 0,-1.0773 -0.860223,-1.9375 -1.9375,-1.9375 L 1.937499,1004.3622 Z"
       id="rect4280" />
  </g>
</svg>
