<?xml version="1.0" encoding="UTF-8" standalone="no"?>
<!-- Created with Inkscape (http://www.inkscape.org/) -->

<svg
   xmlns:dc="http://purl.org/dc/elements/1.1/"
   xmlns:cc="http://creativecommons.org/ns#"
   xmlns:rdf="http://www.w3.org/1999/02/22-rdf-syntax-ns#"
   xmlns:svg="http://www.w3.org/2000/svg"
   xmlns="http://www.w3.org/2000/svg"
   xmlns:xlink="http://www.w3.org/1999/xlink"
   xmlns:sodipodi="http://sodipodi.sourceforge.net/DTD/sodipodi-0.dtd"
   xmlns:inkscape="http://www.inkscape.org/namespaces/inkscape"
   width="48"
   height="48"
   id="svg2"
   version="1.1"
   inkscape:version="0.48+devel r12130"
   sodipodi:docname="gnome-do.svg">
  <defs
     id="defs4">
    <linearGradient
       inkscape:collect="always"
       id="linearGradient844">
      <stop
         style="stop-color:#e5e5e5;stop-opacity:1"
         offset="0"
         id="stop846" />
      <stop
         style="stop-color:#fdfdfd;stop-opacity:1"
         offset="1"
         id="stop848" />
    </linearGradient>
    <linearGradient
       inkscape:collect="always"
       xlink:href="#linearGradient844"
       id="linearGradient850"
       x1="23.874998"
       y1="-1052.7372"
       x2="23.874998"
       y2="-1004.6122"
       gradientUnits="userSpaceOnUse" />
  </defs>
  <sodipodi:namedview
     id="base"
     pagecolor="#ffffff"
     bordercolor="#666666"
     borderopacity="1.0"
     inkscape:pageopacity="0.0"
     inkscape:pageshadow="2"
     inkscape:zoom="4"
     inkscape:cx="-2.9859313"
     inkscape:cy="30.315737"
     inkscape:document-units="px"
     inkscape:current-layer="layer1"
     showgrid="false"
     inkscape:window-width="1366"
     inkscape:window-height="717"
     inkscape:window-x="0"
     inkscape:window-y="28"
     inkscape:window-maximized="1" />
  <metadata
     id="metadata7">
    <rdf:RDF>
      <cc:Work
         rdf:about="">
        <dc:format>image/svg+xml</dc:format>
        <dc:type
           rdf:resource="http://purl.org/dc/dcmitype/StillImage" />
        <dc:title />
      </cc:Work>
    </rdf:RDF>
  </metadata>
  <g
     inkscape:label="Capa 1"
     inkscape:groupmode="layer"
     id="layer1"
     transform="translate(0,-1004.3622)">
    <rect
       style="fill:url(#linearGradient850);fill-opacity:1;stroke:none"
       id="rect2991-1"
       width="48"
       height="48"
       x="-4.1965332e-06"
       y="-1052.3622"
       ry="1.9445436"
       transform="scale(1,-1)" />
    <path
       inkscape:connector-curvature="0"
       style="fill:#000000;fill-opacity:1;stroke:none"
       d="m -1.8034668e-6,1049.3622 0,1.0625 c 0,1.0773 0.8602230034668,1.9375 1.9375000034668,1.9375 l 44.1249958,0 c 1.07728,0 1.93751,-0.8602 1.93751,-1.9375 l 0,-1.0625 c 0,1.0773 -0.86023,1.9375 -1.93751,1.9375 l -44.1249958,0 C 0.8602212,1051.2997 -1.8034668e-6,1050.4395 -1.8034668e-6,1049.3622 Z"
       id="rect846" />
    <path
       inkscape:connector-curvature="0"
       style="fill:#ffffff;fill-opacity:0.5372549;stroke:none"
       d="m 2.5312482,1005.0185 c -0.917088,0 -1.671147,0.6395 -1.84375,1.5 0.335612,-0.2799 0.774512,-0.4375 1.25,-0.4375 l 44.1249958,0 c 0.47549,0 0.91439,0.1576 1.25001,0.4375 -0.17261,-0.8605 -0.92667,-1.5 -1.843756,-1.5 L 2.5312482,1005.0185 Z"
       id="path7515" />
    <path
       inkscape:connector-curvature="0"
       style="fill:#000000;fill-opacity:0.39215686;stroke:none"
       d="m 1.9374982,1004.3622 c -1.077277,0 -1.9375000034668,0.8602 -1.9375000034668,1.9375 l 0,43.0625 c 0,0.7934 0.4800240034668,1.449 1.1562500034668,1.75 -0.309342,-0.3333 -0.5,-0.7824 -0.5,-1.2812 l 0,-42.9375 c 0,-1.0482 0.826899,-1.875 1.875,-1.875 l 42.9374998,0 c 1.048106,0 1.875006,0.8268 1.875006,1.875 l 0,42.9375 c 0,0.4988 -0.19066,0.9479 -0.50001,1.2812 0.67623,-0.301 1.15626,-0.9566 1.15626,-1.75 l 0,-43.0625 c 0,-1.0773 -0.86023,-1.9375 -1.93751,-1.9375 L 1.9374982,1004.3622 Z"
       id="rect4280-0" />
    <path
       style="fill:#6a6f72;fill-opacity:1"
       d="m 17.869787,1012.362 -0.215636,0.2772 c -0.11819,0.1526 -0.407869,0.4401 -0.616102,0.6469 -0.31583,0.3137 -0.401325,0.3697 -0.616103,0.3697 -0.214763,0 -0.327999,-0.067 -0.677711,-0.4005 -0.230587,-0.2199 -0.493885,-0.5114 -0.585297,-0.6469 -0.193124,-0.2865 -0.25239,-0.2797 -1.016568,0.062 -0.342696,0.1533 -0.488124,0.2709 -0.462076,0.3389 0.02087,0.054 0.06713,0.3763 0.09241,0.7393 0.03596,0.516 0.02568,0.7161 -0.06161,0.9241 -0.03554,0.085 -0.07471,0.1657 -0.12322,0.2157 -0.04851,0.05 -0.09487,0.07 -0.184831,0.092 -0.179924,0.045 -0.499922,0.054 -1.016568,0.031 l -0.800933,-0.031 -0.215636,0.5237 c -0.119637,0.2873 -0.215636,0.5604 -0.215636,0.6161 0,0.055 0.188932,0.2688 0.431272,0.4621 0.534046,0.4257 0.862543,0.8324 0.862543,1.1089 0,0.2359 -0.394415,0.6816 -0.954958,1.109 -0.193182,0.1474 -0.338856,0.316 -0.338856,0.3697 0,0.054 0.09448,0.3251 0.215636,0.6161 l 0.215635,0.5237 0.831738,-0.031 c 1.321164,-0.071 1.44087,0.065 1.355424,1.3862 l -0.0308,0.7393 0.277246,0.154 c 0.555466,0.2837 0.985763,0.4249 0.985763,0.3081 0,-0.051 0.199901,-0.2957 0.400466,-0.5237 0.200565,-0.228 0.429836,-0.4635 0.554492,-0.5545 0.135649,-0.099 0.328527,-0.1848 0.43127,-0.1848 0.255798,0 0.693121,0.344 1.108984,0.8625 0.09887,0.1233 0.148742,0.2136 0.215635,0.2773 0.06689,0.064 0.142859,0.1147 0.215636,0.1232 0.145555,0.017 0.343059,-0.069 0.739322,-0.2464 0.397609,-0.1779 0.434361,-0.2293 0.400467,-0.3697 -0.101384,-0.4198 -0.106921,-1.196 -0.03081,-1.4786 0.131698,-0.4891 0.282478,-0.5437 1.293814,-0.4929 0.976473,0.049 0.866507,0.099 1.170595,-0.7085 l 0.154026,-0.4313 -0.523687,-0.4621 c -0.631332,-0.5223 -0.835157,-0.8438 -0.770127,-1.1398 0.04357,-0.1984 0.795527,-0.9912 1.170593,-1.2322 0.157812,-0.1014 0.159177,-0.095 0.06161,-0.3696 -0.056,-0.1577 -0.193623,-0.4388 -0.277246,-0.6161 l -0.154025,-0.3389 -0.924153,0 c -0.30694,0 -0.5399,0.015 -0.708517,0 -0.08431,-0.01 -0.127389,-0.012 -0.184831,-0.031 -0.287207,-0.096 -0.276021,-0.3934 -0.277245,-1.1706 l 0,-0.9242 L 18.45508,1012.608 17.869787,1012.362 z m -1.478645,3.2037 c 0.449444,0 0.583678,0.049 0.924153,0.2156 0.752891,0.3698 1.16681,0.9957 1.170594,1.8483 0.007,1.5853 -1.606752,2.6157 -3.0189,1.9099 -0.783184,-0.3913 -1.171942,-1.0333 -1.170593,-1.9407 2.17e-4,-0.1503 0.03435,-0.2649 0.06161,-0.4004 0.02726,-0.1356 0.06785,-0.2774 0.12322,-0.4005 0.110747,-0.2462 0.26325,-0.4669 0.492882,-0.6777 0.114828,-0.1054 0.23614,-0.207 0.338856,-0.2773 C 15.621111,1015.6321 15.907926,1015.5704 16.391142,1015.5657 z m 12.445259,6.2534 -0.431272,0.5853 c -0.247762,0.3199 -0.826489,0.9527 -1.263008,1.3863 -0.662078,0.6574 -0.87438,0.7701 -1.32462,0.7701 -0.450211,0 -0.683927,-0.1325 -1.417034,-0.8318 -0.483381,-0.461 -1.040576,-1.0712 -1.232204,-1.3554 -0.404849,-0.6004 -0.492794,-0.593 -2.094746,0.1232 -0.3592,0.1607 -0.611398,0.2896 -0.770128,0.4005 -0.158729,0.1109 -0.212132,0.2061 -0.18483,0.2773 0.04375,0.114 0.131816,0.8103 0.18483,1.571 0.07539,1.0819 0.02896,1.5046 -0.154025,1.9407 -0.297996,0.7103 -0.575552,0.8041 -2.741654,0.7085 l -1.69428,-0.092 -0.462076,1.109 c -0.250798,0.6024 -0.462077,1.1772 -0.462077,1.2938 0,0.1169 0.416135,0.5499 0.924153,0.955 1.119529,0.8925 1.786696,1.7616 1.786696,2.3412 0,0.4946 -0.796453,1.4143 -1.971526,2.3104 -0.40497,0.3089 -0.739323,0.6574 -0.739323,0.7701 0,0.1126 0.208086,0.7145 0.462077,1.3246 l 0.462076,1.109 1.69428,-0.092 c 2.769569,-0.1487 3.074799,0.1253 2.895679,2.8957 l -0.12322,1.5402 0.646907,0.3389 c 1.164404,0.595 2.063941,0.861 2.063941,0.6161 0,-0.053 0.105106,-0.1824 0.246441,-0.3697 0.424005,-0.5619 1.302305,-1.5622 1.69428,-1.8483 0.284365,-0.2075 0.708773,-0.3697 0.924153,-0.3697 0.536233,0 1.438605,0.6998 2.310382,1.7867 0.310895,0.3877 0.503806,0.6276 0.708518,0.7394 0.06824,0.037 0.139354,0.053 0.215635,0.062 0.07628,0.01 0.152193,0.018 0.246441,0 0.09425,-0.018 0.216722,-0.048 0.338856,-0.092 0.244269,-0.089 0.539614,-0.2146 0.954958,-0.4004 0.83351,-0.3728 0.933596,-0.4759 0.862543,-0.7701 -0.212532,-0.8801 -0.25197,-2.4881 -0.09242,-3.0806 0.276079,-1.0252 0.590774,-1.1539 2.710849,-1.0473 2.04699,0.1029 1.826945,0.215 2.464407,-1.4787 l 0.369662,-0.9241 -1.108984,-0.9242 c -1.323468,-1.0947 -1.799797,-1.7821 -1.663475,-2.4028 0.09134,-0.4158 1.678152,-2.0823 2.464408,-2.5876 0.248116,-0.1594 0.31568,-0.1997 0.24644,-0.4621 -0.02308,-0.087 -0.07209,-0.195 -0.123221,-0.3388 -0.117386,-0.3303 -0.348388,-0.922 -0.523687,-1.2938 l -0.338856,-0.6778 -1.94072,0 c -0.64344,0 -1.125172,0 -1.478645,-0.031 -0.176737,-0.016 -0.310857,-0.021 -0.431272,-0.062 -0.120414,-0.04 -0.202372,-0.1091 -0.277245,-0.1848 -0.299496,-0.3027 -0.275193,-0.9147 -0.277246,-2.218 l -0.03081,-1.9715 L 30.0994,1022.3439 28.836401,1021.8191 z m -3.08051,6.7463 c 0.942174,-0.01 1.257785,0.05 1.971526,0.4005 1.578293,0.775 2.425671,2.1556 2.433603,3.9431 0.01474,3.3231 -3.385549,5.4222 -6.34585,3.943 -1.641797,-0.8204 -2.405625,-2.1024 -2.402797,-4.0046 0.0018,-1.2607 0.423472,-2.2584 1.386229,-3.1422 0.240717,-0.221 0.462388,-0.4071 0.677712,-0.5545 C 24.122288,1028.7087 24.74292,1028.5754 25.755891,1028.5654 Z"
       id="path907"
       inkscape:connector-curvature="0" />
    <g
       style="fill:#6a6f72;fill-opacity:1"
       transform="matrix(0.46910911,0.09794096,-0.09794096,0.46910911,97.557209,542.86405)"
       inkscape:label="Capa 1"
       id="g854" />
    <path
       style="fill:#ffffff;fill-opacity:0.72067039"
       d="m 13.741904,1013.4047 c -0.02016,0.027 -0.06891,0.042 -0.06161,0.061 0.02087,0.054 0.06713,0.3764 0.09241,0.7393 0.0056,0.081 -0.0033,0.118 0,0.1849 0.02275,-0.1562 0.02296,-0.3483 0,-0.6777 C 13.762206,1013.5619 13.756323,1013.5251 13.741904,1013.4047 z m 2.649238,2.1255 c -0.483216,0 -0.770031,0.066 -1.078178,0.2773 -0.102716,0.07 -0.224028,0.1718 -0.338856,0.2772 -0.229632,0.2109 -0.382135,0.4315 -0.492882,0.6777 -0.05537,0.1231 -0.09596,0.265 -0.12322,0.4005 -0.02726,0.1355 -0.06139,0.2501 -0.06161,0.4004 -1.69e-4,0.1135 0.01878,0.203 0.0308,0.3081 0.01229,-0.069 0.01615,-0.1427 0.03081,-0.2156 0.02726,-0.1355 0.06785,-0.2774 0.12322,-0.4005 0.110747,-0.2462 0.26325,-0.4669 0.492882,-0.6777 0.114828,-0.1054 0.23614,-0.2069 0.338856,-0.2772 0.308147,-0.2109 0.594962,-0.2726 1.078178,-0.2773 0.449444,0 0.583678,0.049 0.924153,0.2157 0.683707,0.3357 1.068449,0.8964 1.139789,1.6326 0.01178,-0.095 0.03124,-0.1781 0.03081,-0.2772 -0.0037,-0.8526 -0.417703,-1.4786 -1.170594,-1.8483 C 16.97482,1015.5795 16.840586,1015.5302 16.391142,1015.5302 z m -5.113646,0.7393 c -0.04003,0.1139 -0.12322,0.2798 -0.12322,0.3081 0,0.055 0.188932,0.2688 0.431271,0.4621 0.382902,0.3053 0.643872,0.6178 0.770128,0.8625 0.05713,-0.095 0.09241,-0.1802 0.09241,-0.2464 0,-0.2765 -0.328496,-0.6832 -0.862543,-1.109 C 11.464377,1016.4501 11.355022,1016.354 11.277496,1016.2695 z m 10.258097,0 c -0.375066,0.241 -1.127023,1.0338 -1.170593,1.2322 -0.02514,0.1145 -0.0028,0.2375 0.06161,0.3697 0.172534,-0.2846 0.778166,-0.8964 1.108983,-1.109 0.157812,-0.1014 0.159177,-0.095 0.06161,-0.3697 C 21.585793,1016.3607 21.552632,1016.31 21.535593,1016.2695 z m -10.258097,3.173 c -0.07563,0.08 -0.12322,0.1544 -0.12322,0.1848 0,0.054 0.09448,0.3251 0.215636,0.6161 l 0.215635,0.5237 0.831738,-0.031 c 0.990873,-0.053 1.295875,0.024 1.355424,0.6161 0.03681,-1.0153 -0.153165,-1.1735 -1.355424,-1.109 l -0.831738,0.031 -0.215635,-0.5236 C 11.310276,1019.6073 11.316119,1019.5525 11.277496,1019.4425 z m 10.258097,0.031 -0.03081,0.061 c -0.304088,0.8078 -0.194121,0.7578 -1.170594,0.7085 -1.011336,-0.05 -1.162116,0 -1.293814,0.4929 -0.04833,0.1795 -0.05196,0.5334 -0.03081,0.8933 0.0079,-0.1474 0.0084,-0.317 0.03081,-0.4004 0.131698,-0.489 0.282478,-0.5436 1.293814,-0.4929 0.976473,0.049 0.866506,0.099 1.170594,-0.7085 l 0.154026,-0.4306 L 21.535593,1019.4733 z m -5.144451,2.0947 c -0.102743,0 -0.295621,0.086 -0.431271,0.1848 -0.124656,0.091 -0.353927,0.3265 -0.554492,0.5545 -0.200565,0.228 -0.400466,0.4725 -0.400466,0.5238 0,0.1168 -0.430297,-0.025 -0.985763,-0.3081 l -0.246441,-0.1541 -0.0308,0.4929 0.277246,0.1541 c 0.555466,0.2836 0.985763,0.4249 0.985763,0.308 0,-0.05 0.199901,-0.2956 0.400466,-0.5237 0.200565,-0.228 0.429836,-0.4635 0.554492,-0.5545 0.135649,-0.099 0.328527,-0.1848 0.431271,-0.1848 0.255797,0 0.693121,0.344 1.108983,0.8625 0.09887,0.1233 0.148742,0.2136 0.215635,0.2773 0.06689,0.064 0.142859,0.1148 0.215636,0.1232 0.145556,0.017 0.343059,-0.069 0.739322,-0.2464 0.397609,-0.1778 0.434361,-0.2293 0.400467,-0.3697 -0.01946,-0.081 -0.01831,-0.2072 -0.03081,-0.308 -0.05465,0.052 -0.170858,0.096 -0.369662,0.1848 -0.396263,0.1775 -0.593767,0.2632 -0.739322,0.2465 -0.07278,-0.01 -0.148742,-0.06 -0.215636,-0.1233 -0.06689,-0.064 -0.116764,-0.1539 -0.215635,-0.2773 C 17.084263,1021.912 16.64694,1021.568 16.391142,1021.568 z m 3.789027,1.9099 c -0.04704,0.058 -0.07799,0.1114 -0.06161,0.1541 0.04375,0.114 0.131816,0.8103 0.18483,1.571 -0.0051,-0.1721 0.01546,-0.2711 0,-0.4929 C 20.266613,1024.1824 20.224185,1023.7708 20.180169,1023.4779 z m 5.575722,5.0521 c -1.012971,0.01 -1.633603,0.1432 -2.279577,0.5853 -0.215324,0.1473 -0.436995,0.3334 -0.677712,0.5545 -0.962757,0.8837 -1.384455,1.8814 -1.386229,3.1421 -1.78e-4,0.1191 0.02494,0.2246 0.03081,0.3388 0.03689,-1.1841 0.434575,-2.1427 1.355424,-2.988 0.240717,-0.221 0.462388,-0.4071 0.677712,-0.5545 0.645973,-0.442 1.266605,-0.5753 2.279576,-0.5854 0.942175,-0.01 1.257785,0.05 1.971527,0.4006 1.503305,0.7381 2.350304,2.0312 2.433603,3.6966 0.0038,-0.081 3.68e-4,-0.1636 0,-0.2465 -0.0079,-1.7875 -0.85531,-3.168 -2.433603,-3.943 C 27.013676,1028.5802 26.698065,1028.5201 25.755891,1028.53 z m -10.874198,1.3248 c -0.04122,0.1264 -0.09242,0.2688 -0.09242,0.3081 0,0.1169 0.416135,0.5498 0.924153,0.9549 0.9516,0.7586 1.589871,1.5026 1.755891,2.064 0.02407,-0.074 0.0308,-0.1538 0.0308,-0.2157 0,-0.5795 -0.667167,-1.4487 -1.786696,-2.3412 C 15.35056,1030.3354 15.032637,1030.047 14.881693,1029.8546 z m 21.840812,0.093 c -0.04457,0.042 -0.09551,0.066 -0.18483,0.1232 -0.786256,0.5053 -2.373067,2.1718 -2.464408,2.5876 -0.03208,0.1461 -0.008,0.3042 0.03081,0.4622 0.151399,-0.4585 1.664292,-2.0625 2.433603,-2.5569 0.248116,-0.1594 0.31568,-0.1996 0.24644,-0.462 C 36.773502,1030.0608 36.741769,1029.9974 36.722505,1029.947 z m -0.03081,6.4074 -0.215637,0.5545 c -0.637461,1.6937 -0.417417,1.5816 -2.464407,1.4787 -2.120075,-0.1066 -2.43477,0.022 -2.710849,1.0474 -0.06444,0.2393 -0.09118,0.6533 -0.09241,1.1089 0.01542,-0.2478 0.05252,-0.4679 0.09241,-0.6161 0.276079,-1.0253 0.590774,-1.1539 2.710849,-1.0473 2.04699,0.1029 1.826946,0.215 2.464407,-1.4787 L 36.845726,1036.478 36.6917,1036.3544 z m -21.810007,0.061 c -0.02576,0.04 -0.09242,0.1001 -0.09242,0.1232 0,0.1126 0.208086,0.7146 0.462077,1.3247 l 0.462076,1.1089 1.69428,-0.093 c 2.318208,-0.1244 2.900253,0.072 2.926484,1.7559 0.07222,-2.1435 -0.399368,-2.3844 -2.926484,-2.2488 l -1.69428,0.093 -0.462076,-1.109 C 15.098538,1037.004 14.965952,1036.6725 14.881693,1036.4161 z m 10.874198,4.7748 c -0.21538,0 -0.639787,0.1622 -0.924153,0.3697 -0.391975,0.286 -1.270275,1.2864 -1.69428,1.8483 -0.141335,0.1872 -0.246441,0.3164 -0.246441,0.3696 0,0.245 -0.899537,-0.021 -2.063941,-0.6161 l -0.616102,-0.308 -0.03081,0.462 0.646907,0.3389 c 1.164404,0.595 2.063941,0.8611 2.063941,0.6161 0,-0.053 0.105106,-0.1824 0.246441,-0.3697 0.424005,-0.5618 1.302305,-1.5622 1.69428,-1.8483 0.284366,-0.2075 0.708773,-0.3696 0.924153,-0.3696 0.536233,0 1.438605,0.6998 2.310382,1.7867 0.310895,0.3876 0.503806,0.6275 0.708518,0.7393 0.06823,0.037 0.139354,0.052 0.215635,0.061 0.07628,0.01 0.152193,0.018 0.246441,0 0.09425,-0.019 0.216722,-0.048 0.338856,-0.093 0.244269,-0.089 0.539614,-0.2146 0.954958,-0.4005 0.83351,-0.3728 0.933596,-0.4759 0.862543,-0.7701 -0.01691,-0.07 -0.0161,-0.1681 -0.03081,-0.2465 -0.07034,0.1454 -0.276064,0.2752 -0.831738,0.5238 -0.415344,0.1857 -0.710689,0.3117 -0.954958,0.4004 -0.122134,0.044 -0.244607,0.074 -0.338856,0.093 -0.09425,0.019 -0.170162,0.01 -0.246441,0 -0.07628,-0.01 -0.147401,-0.024 -0.215635,-0.061 -0.204712,-0.1118 -0.397623,-0.3517 -0.708518,-0.7393 C 27.194496,1041.8907 26.292124,1041.1909 25.755891,1041.1909 Z"
       id="path903"
       inkscape:connector-curvature="0" />
    <path
       style="fill:#000000;fill-opacity:0.31284916"
       d="m 17.869787,1012.362 -0.215636,0.2772 c -0.11819,0.1526 -0.407869,0.4401 -0.616102,0.6469 -0.31583,0.3137 -0.401325,0.3697 -0.616103,0.3697 -0.214763,0 -0.327999,-0.067 -0.677711,-0.4005 -0.230587,-0.2199 -0.493885,-0.5114 -0.585297,-0.6469 -0.193124,-0.2865 -0.25239,-0.2797 -1.016568,0.062 -0.342696,0.1533 -0.488124,0.2709 -0.462076,0.3389 0.007,0.018 0.01992,0.1772 0.0308,0.2464 0.01933,-0.07 0.136552,-0.1762 0.431271,-0.308 0.764178,-0.3408 0.823444,-0.3481 1.016568,-0.062 0.09141,0.1356 0.35471,0.427 0.585297,0.647 0.349712,0.3343 0.462947,0.4004 0.677712,0.4004 0.214777,0 0.300272,-0.056 0.616102,-0.3696 0.208233,-0.2069 0.497912,-0.4944 0.616102,-0.6469 l 0.215636,-0.2773 0.585297,0.2464 0.616102,0.2465 0,-0.2773 -0.616102,-0.2464 L 17.869787,1012.362 z m -4.066273,2.0023 c -0.01064,0.1229 -0.05246,0.2128 -0.09242,0.308 -0.03554,0.085 -0.07471,0.1657 -0.12322,0.2157 -0.04851,0.05 -0.09487,0.07 -0.184831,0.092 -0.179923,0.045 -0.499921,0.054 -1.016568,0.031 l -0.800933,-0.031 -0.215635,0.5237 c -0.119637,0.2873 -0.215636,0.5604 -0.215636,0.6161 0,0.014 0.04011,0.062 0.06161,0.092 0.03568,-0.1174 0.07009,-0.2297 0.154026,-0.4313 l 0.215635,-0.5237 0.800933,0.031 c 0.516647,0.023 0.836645,0.014 1.016568,-0.031 0.08996,-0.023 0.136321,-0.042 0.184831,-0.092 0.04851,-0.05 0.08768,-0.1308 0.12322,-0.2156 C 13.77307,1014.8019 13.808162,1014.6199 13.803514,1014.3643 z m 5.298477,0.2464 c 0.01835,0.3252 0.05504,0.5518 0.24644,0.6161 0.05744,0.019 0.100519,0.021 0.184831,0.031 0.168617,0.015 0.401577,0 0.708517,0 l 0.924153,0 0.154025,0.3389 c 0.08362,0.1773 0.221245,0.4585 0.277246,0.6161 0.04513,-0.049 0.06708,-0.088 0,-0.2772 -0.056,-0.1577 -0.193623,-0.4388 -0.277246,-0.6161 l -0.154025,-0.3389 -0.924153,0 c -0.30694,0 -0.5399,0.015 -0.708517,0 -0.08431,-0.01 -0.127389,-0.012 -0.184831,-0.031 C 19.204828,1014.9014 19.135248,1014.7942 19.101991,1014.6107 z m -4.77479,3.1422 c -0.0054,0.042 -0.03074,0.076 -0.0308,0.1232 -0.0013,0.9074 0.387409,1.5493 1.170593,1.9407 1.412148,0.7057 3.025899,-0.3246 3.0189,-1.9099 -2.02e-4,-0.045 -0.02828,-0.079 -0.03081,-0.1232 -0.100722,1.4907 -1.625458,2.4368 -2.988095,1.7558 C 14.733239,1019.1729 14.372091,1018.5716 14.327201,1017.7529 z m 6.068604,0.031 c -0.0034,0.01 -0.02921,0.024 -0.03081,0.031 -0.06503,0.296 0.138795,0.6175 0.770127,1.1398 l 0.462076,0.4004 0.06161,-0.2156 -0.523687,-0.4621 C 20.682781,1018.3028 20.467573,1018.0162 20.395805,1017.7837 z m -7.97852,0.062 c -0.107906,0.2494 -0.461441,0.6021 -0.924153,0.9549 -0.193182,0.1474 -0.338856,0.316 -0.338856,0.3697 0,0.016 0.04658,0.1353 0.06161,0.1848 0.05572,-0.077 0.143723,-0.1754 0.277246,-0.2772 0.560543,-0.4275 0.954958,-0.8731 0.954958,-1.109 C 12.44809,1017.9294 12.430093,1017.8893 12.417285,1017.8453 z m 6.561485,3.7274 c -0.0057,0.2873 0.01537,0.5803 0.06161,0.8317 0.03339,-0.044 0.04521,-0.094 0.03081,-0.154 C 19.028189,1022.0724 18.988373,1021.8141 18.97877,1021.5727 z m 9.857631,0.2464 -0.431272,0.5853 c -0.247762,0.3199 -0.826489,0.9527 -1.263008,1.3863 -0.662078,0.6574 -0.87438,0.7701 -1.32462,0.7701 -0.450211,0 -0.683927,-0.1325 -1.417034,-0.8318 -0.483381,-0.461 -1.040576,-1.0712 -1.232204,-1.3554 -0.404849,-0.6004 -0.492794,-0.593 -2.094746,0.1232 -0.3592,0.1607 -0.611398,0.2896 -0.770128,0.4005 -0.158729,0.1109 -0.212132,0.2061 -0.18483,0.2773 0.0061,0.016 0.02318,0.1168 0.03081,0.154 0.02978,-0.047 0.07466,-0.099 0.154025,-0.154 0.15873,-0.1108 0.410928,-0.2399 0.770128,-0.4005 1.601952,-0.7163 1.689897,-0.7237 2.094746,-0.1232 0.191628,0.2842 0.748823,0.8943 1.232204,1.3554 0.733107,0.6993 0.966823,0.8317 1.417034,0.8317 0.45024,0 0.662542,-0.1127 1.32462,-0.7701 0.436519,-0.4335 1.015246,-1.0664 1.263008,-1.3862 l 0.431272,-0.5853 1.263009,0.5237 1.263009,0.5236 0,-0.2772 -1.263009,-0.5237 L 28.836401,1021.8191 z m -8.502207,4.1587 c -0.02645,0.2786 -0.09678,0.4987 -0.18483,0.7085 -0.297996,0.7103 -0.575552,0.8041 -2.741654,0.7085 l -1.69428,-0.092 -0.462076,1.109 c -0.250798,0.6024 -0.462077,1.1772 -0.462077,1.2938 0,0.022 0.0031,0.081 0.0308,0.1233 0.05405,-0.2135 0.22158,-0.6362 0.431272,-1.1398 l 0.462076,-1.109 1.69428,0.092 c 2.166102,0.096 2.443658,0 2.741654,-0.7085 C 20.259613,1026.7008 20.319863,1026.378 20.334194,1025.9778 z m 11.089835,0.3389 c 0.02282,0.4777 0.06863,0.8369 0.246441,1.0165 0.07487,0.076 0.156831,0.1445 0.277245,0.1849 0.120415,0.039 0.254535,0.046 0.431272,0.062 0.353473,0.031 0.835204,0.031 1.478644,0.031 l 1.940721,0 0.338856,0.6777 c 0.175298,0.3718 0.406301,0.9636 0.523687,1.2938 0.05113,0.1439 0.100144,0.2511 0.12322,0.3389 0.03925,-0.063 0.03462,-0.1461 0,-0.2773 -0.02308,-0.087 -0.07209,-0.195 -0.12322,-0.3388 -0.117386,-0.3303 -0.348389,-0.922 -0.523687,-1.2938 l -0.338856,-0.6778 -1.940721,0 c -0.64344,0 -1.125171,0 -1.478644,-0.031 -0.176737,-0.016 -0.310857,-0.021 -0.431272,-0.062 -0.120414,-0.04 -0.202372,-0.1091 -0.277245,-0.1848 C 31.520722,1026.9047 31.455647,1026.6704 31.424029,1026.3167 z m 2.649238,6.7155 c -0.09537,0.6058 0.380729,1.2802 1.663475,2.3412 l 1.016568,0.8625 0.09242,-0.2156 -1.108984,-0.9242 C 34.641961,1034.1906 34.141433,1033.5731 34.073267,1033.0322 z m -16.603946,0.092 c -0.105076,0.5138 -0.85084,1.3561 -1.940721,2.1872 -0.40497,0.3089 -0.739323,0.6574 -0.739323,0.7701 0,0.026 0.04083,0.1416 0.06161,0.2156 0.06455,-0.1443 0.318948,-0.4348 0.677713,-0.7085 1.175073,-0.8961 1.971526,-1.8157 1.971526,-2.3104 C 17.500126,1033.2265 17.479972,1033.1813 17.469321,1033.1246 z m 3.973857,0.4005 c 0.102974,1.6773 0.851637,2.8444 2.371992,3.6042 2.858333,1.4282 6.10654,-0.4797 6.315045,-3.6042 -0.37226,2.9633 -3.539763,4.7137 -6.315045,3.3269 C 22.378598,1036.1341 21.609932,1035.056 21.443178,1033.5251 z m 9.765215,7.3624 c 3.18e-4,0.632 0.07205,1.3349 0.184831,1.8483 0.01241,-0.057 0.01776,-0.1113 0,-0.1848 C 31.286958,1042.1109 31.224875,1041.4735 31.208393,1040.8875 z m -10.905004,0.4313 -0.12322,1.5402 0.03081,0 0.09241,-1.263 C 20.310098,1041.4922 20.298143,1041.4156 20.303389,1041.3188 Z"
       id="path911"
       inkscape:connector-curvature="0" />
    <path
       style="fill:#000000;fill-opacity:0.15868111"
       d="m 17.869787,1012.6392 -0.215636,0.2773 c -0.11819,0.1525 -0.407869,0.44 -0.616102,0.6469 -0.31583,0.3136 -0.401325,0.3696 -0.616103,0.3696 -0.214763,0 -0.327999,-0.067 -0.677711,-0.4004 -0.230587,-0.22 -0.493885,-0.5114 -0.585297,-0.647 -0.193124,-0.2864 -0.25239,-0.2791 -1.016568,0.062 -0.294719,0.1318 -0.411946,0.2379 -0.431271,0.308 0.01088,0.069 0.01943,0.1429 0.03081,0.2465 0.03941,-0.069 0.142587,-0.162 0.400466,-0.2773 0.764178,-0.3408 0.823444,-0.3486 1.016568,-0.062 0.09141,0.1355 0.35471,0.427 0.585297,0.6469 0.349712,0.3344 0.462947,0.4005 0.677712,0.4005 0.214777,0 0.300272,-0.056 0.616102,-0.3697 0.208233,-0.2068 0.497912,-0.4943 0.616102,-0.6469 l 0.215636,-0.2772 0.585297,0.2464 0.616102,0.2464 0,-0.2772 -0.616102,-0.2465 L 17.869787,1012.6392 z m -4.066273,2.0023 c -0.01064,0.123 -0.05246,0.2129 -0.09242,0.3081 -0.03554,0.085 -0.07471,0.1655 -0.12322,0.2156 -0.04851,0.05 -0.09487,0.07 -0.184831,0.092 -0.179923,0.045 -0.499921,0.053 -1.016568,0.031 l -0.800933,-0.031 -0.215635,0.5237 c -0.08393,0.2016 -0.118348,0.3139 -0.154026,0.4313 0.0215,0.031 0.02285,0.05 0.06161,0.092 0.02516,-0.075 0.04418,-0.1306 0.09242,-0.2464 l 0.215635,-0.5237 0.800933,0.031 c 0.516647,0.023 0.836645,0.014 1.016568,-0.031 0.08996,-0.023 0.136321,-0.042 0.184831,-0.092 0.04851,-0.05 0.08768,-0.1309 0.12322,-0.2157 C 13.77307,1015.0788 13.808162,1014.8971 13.803514,1014.6415 z m 5.298477,0.2465 c 0.01835,0.3252 0.05504,0.5517 0.24644,0.6161 0.05744,0.019 0.100519,0.021 0.184831,0.031 0.168617,0.015 0.401577,0 0.708517,0 l 0.924153,0 0.154025,0.3388 c 0.05807,0.1232 0.120098,0.2842 0.184831,0.4313 0.0017,0 0.02909,0 0.03081,0 0.03945,-0.025 0.04082,-0.044 0.06161,-0.062 -0.0043,-0.013 0.0054,-0.015 0,-0.031 -0.056,-0.1576 -0.193623,-0.4388 -0.277246,-0.6161 l -0.154025,-0.3389 -0.924153,0 c -0.30694,0 -0.5399,0.015 -0.708517,0 -0.08431,-0.01 -0.127389,-0.012 -0.184831,-0.031 C 19.204828,1015.1787 19.135248,1015.0714 19.101991,1014.888 z m -4.77479,3.1421 c -0.0054,0.041 -0.03074,0.076 -0.0308,0.1232 -0.0014,0.9074 0.387409,1.5494 1.170593,1.9407 1.412148,0.7057 3.025899,-0.3246 3.0189,-1.9099 -2.02e-4,-0.045 -0.02827,-0.079 -0.03081,-0.1232 -0.0082,0.041 -0.02038,0.083 -0.03081,0.1232 -0.17865,1.414 -1.635235,2.2934 -2.95729,1.6327 -0.675744,-0.3376 -1.021267,-0.8796 -1.108983,-1.6019 C 14.343361,1018.1564 14.337388,1018.0916 14.327201,1018.0301 z m 6.068604,0.031 c -0.0035,0.01 -0.02922,0.024 -0.03081,0.031 -0.06503,0.296 0.138795,0.6175 0.770127,1.1398 l 0.369661,0.3389 0.09242,-0.2157 -0.462076,-0.4004 C 20.682781,1018.5805 20.467573,1018.2934 20.395805,1018.0609 z m -7.97852,0.062 c -0.107906,0.2494 -0.461441,0.6022 -0.924153,0.955 -0.133523,0.1018 -0.221529,0.2 -0.277246,0.2772 0.01727,0.057 0.02961,0.1295 0.06161,0.2157 0.055,-0.067 0.111785,-0.1365 0.215636,-0.2157 0.560543,-0.4274 0.954958,-0.8731 0.954958,-1.109 C 12.44809,1018.2074 12.430093,1018.1665 12.417285,1018.1225 z m 6.561485,3.7274 c -0.004,0.2019 0.0089,0.3942 0.0308,0.5853 0.01344,-0.011 0.02229,-0.019 0.03081,-0.031 C 19.007029,1022.2382 18.9866,1022.0468 18.97877,1021.8499 z m 9.857631,0.2465 -0.431272,0.5853 c -0.247762,0.3198 -0.826489,0.9527 -1.263008,1.3862 -0.662078,0.6574 -0.87438,0.7701 -1.32462,0.7701 -0.450211,0 -0.683927,-0.1324 -1.417034,-0.8317 -0.483381,-0.4611 -1.040576,-1.0712 -1.232204,-1.3554 -0.404849,-0.6005 -0.492794,-0.5931 -2.094746,0.1232 -0.3592,0.1607 -0.611398,0.2896 -0.770128,0.4005 -0.07936,0.055 -0.124246,0.1074 -0.154025,0.154 0.01205,0.059 0.01637,0.1435 0.03081,0.2464 0.02928,-0.039 0.05973,-0.079 0.12322,-0.1232 0.15873,-0.1108 0.410928,-0.2399 0.770128,-0.4005 1.601952,-0.7162 1.689897,-0.7236 2.094746,-0.1232 0.191628,0.2842 0.748823,0.8944 1.232204,1.3554 0.733107,0.6993 0.966823,0.8318 1.417034,0.8318 0.45024,0 0.662542,-0.1128 1.32462,-0.7702 0.436519,-0.4335 1.015246,-1.0663 1.263008,-1.3862 l 0.431272,-0.5853 1.263009,0.5237 1.263009,0.5237 0,-0.2773 -1.263009,-0.5236 L 28.836401,1022.0964 z m -8.502207,4.1587 c -0.02646,0.2785 -0.09677,0.4986 -0.18483,0.7085 -0.297996,0.7102 -0.575552,0.804 -2.741654,0.7085 l -1.69428,-0.092 -0.462076,1.109 c -0.209692,0.5036 -0.377223,0.9263 -0.431272,1.1398 0.01404,0.022 0.04131,0.036 0.06161,0.062 0.07617,-0.2335 0.198424,-0.5129 0.369661,-0.9242 l 0.462076,-1.109 1.69428,0.092 c 2.166102,0.096 2.443658,0 2.741654,-0.7085 C 20.259613,1026.9787 20.319863,1026.6552 20.334194,1026.2551 z m 11.089835,0.3388 c 0.02282,0.4777 0.06863,0.8369 0.246441,1.0166 0.07488,0.076 0.156831,0.1444 0.277245,0.1848 0.120415,0.039 0.254535,0.046 0.431272,0.062 0.353473,0.031 0.835204,0.031 1.478644,0.031 l 1.940721,0 0.338856,0.6777 c 0.175298,0.3719 0.406301,0.9636 0.523687,1.2939 0.01791,0.05 0.01444,0.081 0.03081,0.1232 0.02467,-0.021 0.07829,-0.039 0.09241,-0.062 -0.02308,-0.088 -0.07209,-0.1951 -0.12322,-0.3389 -0.117386,-0.3302 -0.348389,-0.922 -0.523687,-1.2938 l -0.338856,-0.6777 -1.940721,0 c -0.64344,0 -1.125171,-3e-4 -1.478644,-0.031 -0.176737,-0.016 -0.310857,-0.022 -0.431272,-0.062 -0.120414,-0.04 -0.202372,-0.1092 -0.277245,-0.1849 C 31.520722,1027.1826 31.455647,1026.9477 31.424029,1026.5939 z m 2.649238,6.7155 c -0.09537,0.6059 0.380729,1.2802 1.663475,2.3412 l 0.924153,0.8009 0.09242,-0.2156 -1.016568,-0.8625 C 34.641961,1034.4686 34.141433,1033.8503 34.073267,1033.3094 z m -16.603946,0.092 c -0.105076,0.5138 -0.85084,1.3561 -1.940721,2.1872 -0.358765,0.2737 -0.613164,0.5642 -0.677713,0.7085 0.02078,0.074 0.02422,0.1065 0.06161,0.2157 0.09458,-0.1556 0.29827,-0.4045 0.616102,-0.647 1.175073,-0.896 1.971526,-1.8157 1.971526,-2.3103 C 17.500126,1033.5043 17.479972,1033.4584 17.469321,1033.4018 z m 3.973857,0.4005 c 0.102974,1.6774 0.851637,2.8444 2.371992,3.6042 2.858333,1.4283 6.10654,-0.4796 6.315045,-3.6042 -0.37226,2.9634 -3.539763,4.7137 -6.315045,3.327 C 22.378598,1036.412 21.609932,1035.3333 21.443178,1033.8023 z m -1.139789,7.7937 -0.09241,1.263 0.03081,0.031 0.06161,-1.0166 C 20.310098,1041.77 20.298143,1041.6928 20.303389,1041.596 z m 10.966614,0.5545 c 0.02405,0.2392 0.05415,0.4381 0.09242,0.6469 0.0053,-0.011 0.02725,-0.02 0.03081,-0.031 -0.002,-0.01 0.002,-0.022 0,-0.031 C 31.354476,1042.5589 31.29567,1042.3673 31.270003,1042.1505 Z"
       id="path916"
       inkscape:connector-curvature="0" />
    <path
       style="fill:#000000;fill-opacity:0.07843137"
       d="m 17.869787,1012.9165 -0.215636,0.2772 c -0.11819,0.1526 -0.407869,0.4401 -0.616102,0.6469 -0.31583,0.3137 -0.401325,0.3697 -0.616103,0.3697 -0.214763,0 -0.327999,-0.067 -0.677711,-0.4005 -0.230587,-0.2199 -0.493885,-0.5114 -0.585297,-0.6469 -0.193124,-0.2865 -0.25239,-0.2792 -1.016568,0.062 -0.219325,0.098 -0.335981,0.1812 -0.400466,0.2464 0.01291,0.1126 0.02134,0.1414 0.0308,0.2773 0.05494,-0.066 0.148622,-0.1476 0.369661,-0.2464 0.764178,-0.3408 0.823444,-0.3486 1.016568,-0.062 0.09141,0.1356 0.35471,0.427 0.585297,0.6469 0.349712,0.3344 0.462947,0.4005 0.677712,0.4005 0.214777,0 0.300272,-0.056 0.616102,-0.3696 0.208233,-0.2069 0.497912,-0.4944 0.616102,-0.647 l 0.215636,-0.2772 0.585297,0.2464 0.616102,0.2465 0,-0.2773 -0.616102,-0.2464 L 17.869787,1012.9165 z m -4.066273,2.0023 c -0.01064,0.1229 -0.05246,0.2128 -0.09242,0.308 -0.03554,0.085 -0.07471,0.1656 -0.12322,0.2157 -0.04851,0.05 -0.09487,0.07 -0.184831,0.092 -0.179923,0.045 -0.499921,0.053 -1.016568,0.031 l -0.800933,-0.031 -0.215635,0.5237 c -0.04823,0.1158 -0.05661,0.1485 -0.09242,0.2464 0.02056,0.022 0.06791,0.037 0.09242,0.062 0.0049,-0.012 -0.0053,-0.018 0,-0.031 l 0.215635,-0.5237 0.800933,0.031 c 0.516647,0.023 0.836645,0.014 1.016568,-0.031 0.08996,-0.023 0.136321,-0.042 0.184831,-0.092 0.04851,-0.05 0.08768,-0.1308 0.12322,-0.2156 C 13.77307,1015.356 13.808162,1015.1744 13.803514,1014.9188 z m 5.298477,0.2464 c 0.01835,0.3252 0.05504,0.5518 0.24644,0.6161 0.05744,0.019 0.100519,0.021 0.184831,0.031 0.168617,0.015 0.401577,0 0.708517,0 l 0.924153,0 0.154025,0.3389 c 0.03408,0.072 0.08039,0.1551 0.123221,0.2464 0.02578,-0.019 0.03825,-0.077 0.06161,-0.092 -0.06473,-0.1471 -0.126764,-0.3081 -0.184831,-0.4313 l -0.154025,-0.3388 -0.924153,0 c -0.30694,0 -0.5399,0.015 -0.708517,0 -0.08431,-0.01 -0.127389,-0.012 -0.184831,-0.031 C 19.204828,1015.456 19.135248,1015.3487 19.101991,1015.1652 z m -4.77479,3.1421 c -0.0054,0.041 -0.03074,0.076 -0.0308,0.1233 -0.0014,0.9074 0.387409,1.5493 1.170593,1.9407 1.412148,0.7057 3.025899,-0.3246 3.0189,-1.9099 -2.02e-4,-0.045 -0.02827,-0.079 -0.03081,-0.1232 -0.100722,1.4907 -1.625458,2.4368 -2.988095,1.7558 C 14.733239,1019.7274 14.372091,1019.1261 14.327201,1018.3073 z m 6.068604,0.031 c -0.0035,0.01 -0.02922,0.024 -0.03081,0.031 -0.06503,0.296 0.138795,0.6175 0.770127,1.1397 l 0.308051,0.2465 c 0.02321,-0.063 0.0319,-0.1059 0.06161,-0.1848 l -0.369661,-0.3389 C 20.682781,1018.8578 20.467573,1018.5707 20.395805,1018.3382 z m -7.97852,0.062 c -0.107906,0.2494 -0.461441,0.6021 -0.924153,0.9549 -0.08377,0.064 -0.157737,0.1241 -0.215636,0.1848 0.03178,0.087 0.04987,0.1121 0.09242,0.2157 0.04252,-0.042 0.06388,-0.078 0.12322,-0.1232 0.560543,-0.4275 0.954958,-0.8731 0.954958,-1.109 C 12.44809,1018.4846 12.430093,1018.4437 12.417285,1018.3998 z m 16.419116,3.9738 -0.431272,0.5853 c -0.247762,0.3199 -0.826489,0.9527 -1.263008,1.3862 -0.662078,0.6574 -0.87438,0.7702 -1.32462,0.7702 -0.450211,0 -0.683927,-0.1325 -1.417034,-0.8318 -0.483381,-0.461 -1.040576,-1.0712 -1.232204,-1.3554 -0.404849,-0.6004 -0.492794,-0.593 -2.094746,0.1232 -0.3592,0.1607 -0.611398,0.2896 -0.770128,0.4005 -0.06349,0.044 -0.09186,0.084 -0.12322,0.1232 0.01208,0.086 0.01816,0.1366 0.03081,0.2465 0.02698,-0.03 0.0448,-0.059 0.09241,-0.092 0.15873,-0.1108 0.410928,-0.2398 0.770128,-0.4004 1.601952,-0.7163 1.689897,-0.7237 2.094746,-0.1232 0.191628,0.2842 0.748823,0.8943 1.232204,1.3554 0.733107,0.6993 0.966823,0.8317 1.417034,0.8317 0.45024,0 0.662542,-0.1127 1.32462,-0.7701 0.436519,-0.4335 1.015246,-1.0664 1.263008,-1.3862 l 0.431272,-0.5853 1.263009,0.5237 1.263009,0.5236 0,-0.2772 -1.263009,-0.5237 L 28.836401,1022.3736 z m -8.502207,4.1587 c -0.02646,0.2786 -0.09677,0.4987 -0.18483,0.7085 -0.297996,0.7103 -0.575552,0.8041 -2.741654,0.7085 l -1.69428,-0.092 -0.462076,1.109 c -0.150895,0.3624 -0.284786,0.6755 -0.369661,0.9242 0.02264,0.029 0.06274,0.059 0.09241,0.092 0.08107,-0.2235 0.141382,-0.413 0.277246,-0.7393 l 0.462076,-1.109 1.694279,0.092 c 2.166102,0.096 2.443658,-10e-5 2.741655,-0.7085 C 20.259613,1027.256 20.319863,1026.9324 20.334194,1026.5323 z m 11.089835,0.3389 c 0.02282,0.4777 0.06863,0.8368 0.246441,1.0165 0.07488,0.076 0.156831,0.1444 0.277245,0.1849 0.120415,0.039 0.254535,0.046 0.431272,0.062 0.353473,0.03 0.835204,0.031 1.478644,0.031 l 1.940721,0 0.338856,0.6777 c 0.163087,0.3459 0.369712,0.8624 0.492882,1.2014 0.02584,-0.018 0.04242,-0.045 0.06161,-0.062 -0.01637,-0.042 -0.01289,-0.073 -0.03081,-0.1232 -0.117386,-0.3303 -0.348389,-0.922 -0.523687,-1.2939 l -0.338856,-0.6777 -1.940721,0 c -0.64344,0 -1.125171,-2e-4 -1.478644,-0.031 -0.176737,-0.016 -0.310857,-0.022 -0.431272,-0.062 -0.120414,-0.04 -0.202372,-0.1091 -0.277245,-0.1848 C 31.520722,1027.4599 31.455647,1027.225 31.424029,1026.8712 z m 2.649238,6.7155 c -0.09537,0.6058 0.380729,1.2802 1.663474,2.3412 l 0.862544,0.7393 0.09242,-0.2157 -0.954957,-0.8009 C 34.641961,1034.7459 34.141433,1034.1276 34.073267,1033.5867 z m -16.603946,0.092 c -0.105076,0.5138 -0.850841,1.3561 -1.940721,2.1871 -0.308484,0.2354 -0.536949,0.4566 -0.646907,0.6162 0.02382,0.071 0.06217,0.132 0.09241,0.2156 0.1167,-0.1548 0.289632,-0.3525 0.554492,-0.5545 1.175073,-0.8961 1.971526,-1.8157 1.971526,-2.3104 C 17.500126,1033.7816 17.479972,1033.7357 17.469321,1033.6791 z m 3.973856,0.4005 c 0.102974,1.6773 0.851637,2.8443 2.371992,3.6042 2.858333,1.4282 6.10654,-0.4797 6.315045,-3.6042 -0.37226,2.9634 -3.539763,4.7137 -6.315044,3.3269 C 22.378598,1036.6893 21.609932,1035.6105 21.443178,1034.0796 z m -1.139789,7.7936 -0.09241,1.0166 0.03081,0 0.06161,-0.7393 C 20.310098,1042.0473 20.298143,1041.97 20.303389,1041.8732 Z"
       id="path918"
       inkscape:connector-curvature="0" />
  </g>
</svg>
