<?xml version="1.0" encoding="UTF-8" standalone="no"?>
<!-- Created with Inkscape (http://www.inkscape.org/) -->

<svg
   xmlns:dc="http://purl.org/dc/elements/1.1/"
   xmlns:cc="http://creativecommons.org/ns#"
   xmlns:rdf="http://www.w3.org/1999/02/22-rdf-syntax-ns#"
   xmlns:svg="http://www.w3.org/2000/svg"
   xmlns="http://www.w3.org/2000/svg"
   xmlns:xlink="http://www.w3.org/1999/xlink"
   xmlns:sodipodi="http://sodipodi.sourceforge.net/DTD/sodipodi-0.dtd"
   xmlns:inkscape="http://www.inkscape.org/namespaces/inkscape"
   width="48"
   height="48"
   id="svg2"
   version="1.1"
   inkscape:version="0.48+devel r12131"
   sodipodi:docname="gnome-pdf.svg">
  <defs
     id="defs4">
    <linearGradient
       inkscape:collect="always"
       id="linearGradient1514">
      <stop
         style="stop-color:#e6e6e6;stop-opacity:1"
         offset="0"
         id="stop1516" />
      <stop
         style="stop-color:#ffffff;stop-opacity:1"
         offset="1"
         id="stop1518" />
    </linearGradient>
    <linearGradient
       id="linearGradient1440"
       inkscape:collect="always">
      <stop
         id="stop1442"
         offset="0"
         style="stop-color:#600303;stop-opacity:1" />
      <stop
         id="stop1444"
         offset="1"
         style="stop-color:#d71a1a;stop-opacity:1" />
    </linearGradient>
    <linearGradient
       inkscape:collect="always"
       id="linearGradient1425">
      <stop
         style="stop-color:#a40606;stop-opacity:1"
         offset="0"
         id="stop1427" />
      <stop
         style="stop-color:#ed2f2f;stop-opacity:1"
         offset="1"
         id="stop1429" />
    </linearGradient>
    <linearGradient
       inkscape:collect="always"
       xlink:href="#linearGradient1425"
       id="linearGradient1431"
       x1="24.124998"
       y1="-1052.8622"
       x2="24.124998"
       y2="-1004.6122"
       gradientUnits="userSpaceOnUse"
       gradientTransform="matrix(1,0,0,-1,0,-1004.3622)" />
    <linearGradient
       inkscape:collect="always"
       xlink:href="#linearGradient1440"
       id="linearGradient1437"
       gradientUnits="userSpaceOnUse"
       x1="24.124998"
       y1="-1052.8622"
       x2="24.124998"
       y2="-1004.6122"
       gradientTransform="matrix(1,0,0,-1,0,-1004.3622)" />
    <linearGradient
       inkscape:collect="always"
       xlink:href="#linearGradient1514"
       id="linearGradient1520"
       x1="24.3125"
       y1="48.0625"
       x2="24.3125"
       y2="38.875"
       gradientUnits="userSpaceOnUse" />
    <linearGradient
       inkscape:collect="always"
       xlink:href="#linearGradient1440"
       id="linearGradient1577"
       x1="13.765625"
       y1="1051.1434"
       x2="13.765625"
       y2="1042.9716"
       gradientUnits="userSpaceOnUse"
       gradientTransform="translate(0,0.140625)" />
  </defs>
  <sodipodi:namedview
     id="base"
     pagecolor="#ffffff"
     bordercolor="#666666"
     borderopacity="1.0"
     inkscape:pageopacity="0.0"
     inkscape:pageshadow="2"
     inkscape:zoom="4"
     inkscape:cx="7.9148239"
     inkscape:cy="49.634689"
     inkscape:document-units="px"
     inkscape:current-layer="layer1"
     showgrid="false"
     inkscape:window-width="1366"
     inkscape:window-height="717"
     inkscape:window-x="0"
     inkscape:window-y="28"
     inkscape:window-maximized="1" />
  <metadata
     id="metadata7">
    <rdf:RDF>
      <cc:Work
         rdf:about="">
        <dc:format>image/svg+xml</dc:format>
        <dc:type
           rdf:resource="http://purl.org/dc/dcmitype/StillImage" />
        <dc:title></dc:title>
      </cc:Work>
    </rdf:RDF>
  </metadata>
  <g
     inkscape:label="Capa 1"
     inkscape:groupmode="layer"
     id="layer1"
     transform="translate(0,-1004.3622)">
    <path
       style="fill:url(#linearGradient1520);fill-opacity:1;stroke:none"
       d="M 5.6875 38.875 C 3.1598753 38.875 1.125 40.909875 1.125 43.4375 C 1.125 45.965125 3.1598753 48 5.6875 48 L 48 48 L 48 38.875 L 5.6875 38.875 z "
       transform="translate(0,1004.3622)"
       id="rect1448" />
    <path
       style="fill:#000000;fill-opacity:0.32960893;stroke:none"
       d="M 0.65625 40.3125 L 0.65625 40.6875 C 0.99749177 40.989618 1.4413311 41.1875 1.9375 41.1875 L 46.0625 41.1875 C 46.558669 41.1875 47.002508 40.989618 47.34375 40.6875 L 47.34375 40.3125 C 47.002508 40.614618 46.558669 40.8125 46.0625 40.8125 L 1.9375 40.8125 C 1.4413311 40.8125 0.99749177 40.614618 0.65625 40.3125 z M 0.65625 41.5625 L 0.65625 41.9375 C 0.99749177 42.239618 1.4413311 42.4375 1.9375 42.4375 L 46.0625 42.4375 C 46.558669 42.4375 47.002508 42.239618 47.34375 41.9375 L 47.34375 41.5625 C 47.002508 41.864618 46.558669 42.0625 46.0625 42.0625 L 1.9375 42.0625 C 1.4413311 42.0625 0.99749177 41.864618 0.65625 41.5625 z M 0.65625 42.8125 L 0.65625 43.1875 C 0.99749177 43.489618 1.4413311 43.6875 1.9375 43.6875 L 46.0625 43.6875 C 46.558669 43.6875 47.002508 43.489618 47.34375 43.1875 L 47.34375 42.8125 C 47.002508 43.114618 46.558669 43.3125 46.0625 43.3125 L 1.9375 43.3125 C 1.4413311 43.3125 0.99749177 43.114618 0.65625 42.8125 z M 0.65625 44.0625 L 0.65625 44.4375 C 0.99749177 44.739618 1.4413311 44.9375 1.9375 44.9375 L 46.0625 44.9375 C 46.558669 44.9375 47.002508 44.739618 47.34375 44.4375 L 47.34375 44.0625 C 47.002508 44.364618 46.558669 44.5625 46.0625 44.5625 L 1.9375 44.5625 C 1.4413311 44.5625 0.99749177 44.364618 0.65625 44.0625 z M 0.65625 45.3125 L 0.65625 45.46875 C 0.65625 45.55217 0.67717139 45.638419 0.6875 45.71875 C 1.0243066 46.002983 1.4579046 46.1875 1.9375 46.1875 L 46.0625 46.1875 C 46.542095 46.1875 46.975693 46.002983 47.3125 45.71875 C 47.322829 45.638419 47.34375 45.55217 47.34375 45.46875 L 47.34375 45.3125 C 47.002508 45.614618 46.558669 45.8125 46.0625 45.8125 L 1.9375 45.8125 C 1.4413311 45.8125 0.99749177 45.614618 0.65625 45.3125 z "
       transform="translate(0,1004.3622)"
       id="path1497" />
    <path
       style="fill:url(#linearGradient1577);fill-opacity:1;stroke:none"
       d="m 9.78125,1043.2215 0,8.0313 4.03125,-2.0313 4,2 0,-8 L 9.78125,1043.2215 Z"
       id="rect1566"
       inkscape:connector-curvature="0" />
    <path
       style="fill:url(#linearGradient1431);fill-opacity:1;stroke:none"
       d="M 1.9375,0 C 0.86022285,0 0,0.86022285 0,1.9375 l 0,35 c 0,1.0773 0.86022298,1.9375 1.9375,1.9375 l 2.625,0 41.5,0 C 47.139777,38.875 48,38.0148 48,36.9375 l 0,-35 C 48,0.86022285 47.139777,0 46.0625,0 Z M 0,38 0,43.4375 C 0,42.00394 0.65973457,40.741469 1.6875,39.90625 0.72786097,39.787217 0,38.994126 0,38 z m 0,5.4375 0,2.625 C 0,47.139777 0.86022285,48 1.9375,48 l 2.625,0 C 2.0348753,48 0,45.965125 0,43.4375 Z"
       transform="translate(0,1004.3622)"
       id="rect2991-1"
       inkscape:connector-curvature="0"
       sodipodi:nodetypes="sssscssssscccccsscc" />
    <path
       style="fill:#000000;fill-opacity:0.2122905;stroke:none"
       d="m 13.8125,1049.2063 -4.03125,2.0312 0,0.1875 4.03125,-2.0312 4,2 0,-0.1875 L 13.8125,1049.2063 Z"
       id="path1579"
       inkscape:connector-curvature="0" />
    <path
       style="fill:url(#linearGradient1437);fill-opacity:1;stroke:none"
       d="M 1.9375 0 C 0.86022285 0 0 0.86022285 0 1.9375 L 0 46.0625 C 0 47.139777 0.86022285 48 1.9375 48 L 5.6875 48 C 3.1598753 48 1.125 45.965125 1.125 43.4375 C 1.125 40.909875 3.1598753 38.875 5.6875 38.875 L 10.25 38.875 L 10.25 0 L 1.9375 0 z "
       transform="translate(0,1004.3622)"
       id="rect1433" />
    <path
       style="fill:#000000;fill-opacity:0.12849163;stroke:none"
       d="M 9.75 0 L 9.75 38.875 L 10.25 38.875 L 10.25 0 L 9.75 0 z "
       transform="translate(0,1004.3622)"
       id="rect1469" />
    <path
       style="fill:#ffffff;fill-opacity:0.12941176;stroke:none"
       d="M 10.25 0 L 10.25 38.875 L 10.75 38.875 L 10.75 0 L 10.25 0 z "
       transform="translate(0,1004.3622)"
       id="rect1471" />
    <path
       style="fill:#000000;fill-opacity:0.39106146;stroke:none"
       d="M 48 36.9375 C 48 38.0148 47.139777 38.875 46.0625 38.875 L 10.25 38.875 L 5.6875 38.875 C 3.1598753 38.875 1.125 40.9099 1.125 43.4375 C 1.125 43.503346 1.1463219 43.563005 1.15625 43.625 C 1.2902571 41.219406 3.247227 39.3125 5.6875 39.3125 L 10.25 39.3125 L 46.0625 39.3125 C 47.139777 39.3125 48 38.4523 48 37.375 L 48 36.9375 z "
       id="path1480"
       transform="translate(0,1004.3622)" />
    <path
       id="path1493"
       d="m 48,1041.7384 c 0,1.0773 -0.860223,1.9375 -1.9375,1.9375 l -35.8125,0 -4.5625,0 c -2.5276247,0 -4.5625,2.0349 -4.5625,4.5625 0,0.066 0.021322,0.1255 0.03125,0.1875 0.1340071,-2.4056 2.090977,-4.3125 4.53125,-4.3125 l 4.5625,0 35.8125,0 c 1.077277,0 1.9375,-0.8602 1.9375,-1.9375 L 48,1041.7384 Z"
       style="fill:#000000;fill-opacity:0.22905028;stroke:none"
       inkscape:connector-curvature="0" />
    <path
       inkscape:connector-curvature="0"
       style="fill:#000000;fill-opacity:0.12849163;stroke:none"
       d="m 48,1042.1751 c 0,1.0773 -0.860223,1.9375 -1.9375,1.9375 l -35.8125,0 -4.5625,0 c -2.5276247,0 -4.5625,2.0349 -4.5625,4.5625 0,0.066 0.021322,0.1255 0.03125,0.1875 0.1340071,-2.4056 2.090977,-4.3125 4.53125,-4.3125 l 4.5625,0 35.8125,0 c 1.077277,0 1.9375,-0.8602 1.9375,-1.9375 L 48,1042.1751 Z"
       id="path1495" />
    <path
       style="fill:#000000;fill-opacity:0.15642458;stroke:none"
       d="m 48,36 c 0,1.0773 -0.860223,1.9375 -1.9375,1.9375 l -35.8125,0 -4.5625,0 c -2.5276247,0 -4.5625,2.0349 -4.5625,4.5625 0,0.163922 0.045804,0.309393 0.0625,0.46875 0.2407529,-2.297868 2.1362992,-4.09375 4.5,-4.09375 l 4.5625,0 35.8125,0 C 47.139777,38.875 48,38.0148 48,36.9375 Z"
       transform="translate(0,1004.3622)"
       id="path1522"
       inkscape:connector-curvature="0"
       sodipodi:nodetypes="cscsscscssc" />
    <g
       transform="matrix(0.94114043,0,0,0.84702639,8.0786403,1004.2486)"
       style="font-size:40px;font-style:normal;font-variant:normal;font-weight:normal;font-stretch:normal;line-height:125%;letter-spacing:0px;word-spacing:0px;fill:#000000;fill-opacity:0.39215687;stroke:none;font-family:Segoe Script;-inkscape-font-specification:Segoe Script"
       id="text848-4">
      <path
         d="m 33.227802,21.037403 q 0,0.292969 -0.429687,1.035156 -1.015625,1.464844 -2.285156,2.929688 -1.25,1.464844 -2.675782,2.792969 -1.40625,1.308593 -2.949218,2.460937 -1.523438,1.132813 -3.085938,1.972656 -1.5625,0.820313 -3.125,1.269532 -1.542969,0.449218 -2.988281,0.429687 -3.125,0 -4.863281,-1.816406 -1.7187505,-1.816406 -1.7187505,-5.488281 0,-3.066407 0.9375005,-5.957032 0.957031,-2.890625 3.242187,-5.566406 0.429688,-0.46875 0.957031,-0.898437 0.546875,-0.429688 1.132813,-0.761719 0.605469,-0.332031 1.230469,-0.527344 0.644531,-0.195312 1.289062,-0.234375 0.15625,0 0.429688,0.03906 0.273437,0.03906 0.585937,0.136718 0.3125,0.09766 0.605469,0.253907 0.292969,0.136718 0.46875,0.351562 0.546875,0.625 0.859375,1.289063 0.332031,0.664062 0.371094,1.464843 0.03906,0.898438 -0.214844,1.777344 -0.234375,0.859375 -0.820313,1.777344 -0.566406,0.898437 -1.503906,1.875 -0.9375,0.957031 -2.265625,2.070312 -0.839844,0.703125 -1.875,1.5625 -1.015625,0.839844 -2.460937,1.777344 0,1.894531 1.132812,2.890625 1.152344,0.976563 3.144531,0.976563 1.113282,0 2.246094,-0.292969 1.132813,-0.292969 2.226563,-0.761719 1.09375,-0.488281 2.109375,-1.09375 1.035156,-0.625 1.933593,-1.269531 1.660157,-1.210938 3.007813,-2.402344 1.347656,-1.210937 2.675781,-2.539062 L 31.606709,21.50615 Q 32.56374,20.666306 32.993427,20.666306 33.227802,20.666306 33.227802,21.0374 Z M 18.305927,17.150684 q -0.01953,-0.292968 -0.09766,-0.566406 -0.05859,-0.292969 -0.195312,-0.507812 -0.136719,-0.214844 -0.3125,-0.332032 -0.175782,-0.136718 -0.410157,-0.136718 -1.035156,0.05859 -2.070312,1.269531 -1.035156,1.191406 -1.953125,3.164062 -0.214844,0.429688 -0.390625,0.976563 -0.15625,0.527344 -0.3125,1.09375 -0.136719,0.546875 -0.253906,1.09375 -0.09766,0.546875 -0.175782,0.976562 1.015625,-0.761718 1.875,-1.40625 0.859375,-0.644531 1.601563,-1.328125 0.46875,-0.429687 0.957031,-0.917968 0.488281,-0.507813 0.878906,-1.054688 0.410157,-0.546875 0.644532,-1.132812 Q 18.325455,17.756153 18.305923,17.150684 Z"
         id="path853-3"
         inkscape:connector-curvature="0"
         style="fill:#000000;fill-opacity:0.39215687" />
    </g>
    <path
       style="font-size:40px;font-style:normal;font-variant:normal;font-weight:normal;font-stretch:normal;line-height:125%;letter-spacing:0px;word-spacing:0px;fill:#ffffff;fill-opacity:0.21787709;stroke:none;font-family:Segoe Script;-inkscape-font-specification:Segoe Script"
       d="m 24.34375,1017.4716 c -0.649485,0.033 -1.288015,0.3789 -1.9375,1.0625 -0.649485,0.6727 -1.267792,1.5735 -1.84375,2.6875 -0.134799,0.2426 -0.264711,0.5037 -0.375,0.8125 -0.09804,0.2978 -0.183215,0.6177 -0.28125,0.9375 -0.08578,0.3088 -0.176474,0.6286 -0.25,0.9375 -0.06127,0.3088 -0.107233,0.5699 -0.15625,0.8125 0.02616,-0.018 0.03651,-0.045 0.0625,-0.062 0.02861,-0.143 0.06181,-0.2766 0.09375,-0.4375 0.07353,-0.3089 0.164219,-0.5975 0.25,-0.9063 0.09803,-0.3198 0.183214,-0.6397 0.28125,-0.9375 0.110289,-0.3088 0.240201,-0.5698 0.375,-0.8125 0.575958,-1.1139 1.194265,-2.0147 1.84375,-2.6875 0.649485,-0.6836 1.288015,-1.0604 1.9375,-1.0937 0.147053,0 0.29596,0.048 0.40625,0.125 0.11029,0.066 0.195469,0.1599 0.28125,0.2812 0.08578,0.1214 0.15074,0.2721 0.1875,0.4375 0.04274,0.1346 0.07896,0.2633 0.09375,0.4063 0.0068,-0.084 0.0031,-0.1649 0,-0.25 -0.01225,-0.1655 -0.04473,-0.3456 -0.09375,-0.5 -0.03676,-0.1654 -0.101716,-0.2849 -0.1875,-0.4063 -0.08578,-0.1213 -0.17096,-0.2151 -0.28125,-0.2812 C 24.63971,1017.5193 24.490803,1017.4716 24.34375,1017.4716 z m 3.65625,1.25 c -0.0337,0.2509 -0.0766,0.5018 -0.15625,0.75 -0.147053,0.4853 -0.413617,1.0129 -0.78125,1.5312 -0.355379,0.5074 -0.818037,1.0111 -1.40625,1.5625 -0.588213,0.5404 -1.291699,1.1214 -2.125,1.75 -0.526941,0.3971 -1.131765,0.8585 -1.78125,1.3438 -0.63723,0.4742 -1.405672,0.9706 -2.3125,1.5 0,0.1116 0.02352,0.2064 0.03125,0.3125 0.889702,-0.5209 1.653328,-1.0328 2.28125,-1.5 0.649485,-0.4853 1.254309,-0.9155 1.78125,-1.3125 0.833301,-0.6287 1.536787,-1.2096 2.125,-1.75 0.588213,-0.5515 1.050871,-1.0864 1.40625,-1.5938 0.367633,-0.5183 0.634197,-1.0146 0.78125,-1.5 C 27.959847,1019.4537 27.981526,1019.0891 28,1018.7216 z m 11.3125,3.5 c -0.04673,0.1725 -0.165544,0.3931 -0.375,0.7187 -0.63723,0.8272 -1.359712,1.6416 -2.15625,2.4688 -0.784284,0.8271 -1.605426,1.625 -2.5,2.375 -0.882319,0.7389 -1.813151,1.443 -2.78125,2.0937 -0.955846,0.6397 -1.925895,1.182 -2.90625,1.6563 -0.980355,0.4632 -1.957145,0.8401 -2.9375,1.0937 -0.968101,0.2537 -1.905673,0.3548 -2.8125,0.3438 -1.960709,0 -3.471855,-0.5056 -4.5625,-1.5313 -0.943591,-0.8975 -1.475801,-2.2066 -1.59375,-3.9062 0.06817,1.8666 0.588483,3.2938 1.59375,4.25 1.090645,1.0256 2.601791,1.5312 4.5625,1.5312 0.906827,0.011 1.844399,-0.1213 2.8125,-0.375 0.980355,-0.2536 1.957145,-0.5993 2.9375,-1.0625 0.980355,-0.4742 1.950404,-1.0478 2.90625,-1.6875 0.968099,-0.6507 1.898931,-1.3235 2.78125,-2.0625 0.894574,-0.75 1.715716,-1.5478 2.5,-2.375 0.796538,-0.8272 1.51902,-1.6415 2.15625,-2.4687 0.269597,-0.4191 0.40625,-0.7096 0.40625,-0.875 C 39.34375,1022.332 39.332376,1022.2703 39.3125,1022.2216 Z"
       id="path1543"
       inkscape:connector-curvature="0" />
    <path
       style="font-size:40px;font-style:normal;font-variant:normal;font-weight:normal;font-stretch:normal;line-height:125%;letter-spacing:0px;word-spacing:0px;fill:#000000;fill-opacity:0.32960895;stroke:none;font-family:Segoe Script;-inkscape-font-specification:Segoe Script"
       d="M 24.90625 10.625 C 24.501854 10.647067 24.123146 10.702233 23.71875 10.8125 C 23.326608 10.922833 22.942388 11.093783 22.5625 11.28125 C 22.194867 11.468783 21.811874 11.66365 21.46875 11.90625 C 21.137881 12.148917 20.863347 12.422833 20.59375 12.6875 C 19.159981 14.1985 18.131717 15.773983 17.53125 17.40625 C 17.068622 18.690025 16.817522 19.998529 16.71875 21.34375 C 16.82904 20.063675 17.090091 18.81795 17.53125 17.59375 C 18.131717 15.961483 19.159981 14.386 20.59375 12.875 C 20.863347 12.610333 21.137881 12.367667 21.46875 12.125 C 21.811874 11.8824 22.194867 11.656283 22.5625 11.46875 C 22.942388 11.281283 23.326608 11.141583 23.71875 11.03125 C 24.123146 10.920983 24.501854 10.834567 24.90625 10.8125 C 25.004285 10.8125 25.140937 10.82175 25.3125 10.84375 C 25.484061 10.86575 25.678929 10.91355 25.875 10.96875 C 26.071071 11.024083 26.253683 11.099433 26.4375 11.1875 C 26.621317 11.2647 26.76471 11.378667 26.875 11.5 C 27.218124 11.852933 27.491429 12.187567 27.6875 12.5625 C 27.890964 12.92875 28.003124 13.341361 28.03125 13.78125 C 28.030689 13.728614 28.033798 13.677756 28.03125 13.625 C 28.006741 13.1728 27.895825 12.75 27.6875 12.375 C 27.491429 12.000067 27.218124 11.634183 26.875 11.28125 C 26.76471 11.159917 26.621317 11.0772 26.4375 11 C 26.253683 10.911933 26.071071 10.836583 25.875 10.78125 C 25.678929 10.72605 25.484061 10.67825 25.3125 10.65625 C 25.140937 10.63425 25.004285 10.625 24.90625 10.625 z M 25.28125 14.9375 C 25.24755 15.105683 25.167276 15.272067 25.09375 15.4375 C 24.946697 15.768367 24.757343 16.066133 24.5 16.375 C 24.254911 16.6838 23.962611 16.994517 23.65625 17.28125 C 23.349889 17.556983 23.075357 17.8199 22.78125 18.0625 C 22.315581 18.448567 21.789195 18.823567 21.25 19.1875 C 20.721871 19.543964 20.153431 19.923776 19.53125 20.34375 C 19.517302 20.413177 19.513076 20.497784 19.5 20.5625 C 20.137231 20.132367 20.710805 19.738933 21.25 19.375 C 21.789195 19.011067 22.315581 18.636067 22.78125 18.25 C 23.075357 18.0074 23.349889 17.744483 23.65625 17.46875 C 23.962611 17.182017 24.254911 16.90255 24.5 16.59375 C 24.757343 16.284883 24.946697 15.955867 25.09375 15.625 C 25.194741 15.397771 25.255396 15.169918 25.28125 14.9375 z M 39.125 17.40625 C 38.855403 17.40625 38.412967 17.619483 37.8125 18.09375 L 36.84375 19 C 36.010449 19.75 35.158055 20.47245 34.3125 21.15625 C 33.466944 21.828983 32.510377 22.5037 31.46875 23.1875 C 30.905047 23.5515 30.305735 23.897067 29.65625 24.25 C 29.019019 24.591867 28.373748 24.911767 27.6875 25.1875 C 27.001251 25.452167 26.304507 25.678283 25.59375 25.84375 C 24.882993 26.00915 24.167253 26.0625 23.46875 26.0625 C 22.218799 26.0625 21.223012 25.8014 20.5 25.25 C 19.966932 24.8281 19.633267 24.269738 19.5 23.5625 C 19.608471 24.353836 19.922817 24.980684 20.5 25.4375 C 21.223012 25.9889 22.218799 26.28125 23.46875 26.28125 C 24.167253 26.28125 24.882993 26.19665 25.59375 26.03125 C 26.304507 25.865783 27.001251 25.639667 27.6875 25.375 C 28.373748 25.099267 29.019019 24.810617 29.65625 24.46875 C 30.305735 24.115817 30.905047 23.739 31.46875 23.375 C 32.510377 22.6912 33.466944 22.016483 34.3125 21.34375 C 35.158055 20.65995 36.010449 19.9375 36.84375 19.1875 L 37.8125 18.3125 C 38.412967 17.838233 38.855403 17.59375 39.125 17.59375 C 39.24394 17.593804 39.289761 17.675414 39.3125 17.8125 C 39.317669 17.784727 39.34375 17.741661 39.34375 17.71875 C 39.34375 17.509217 39.272053 17.406317 39.125 17.40625 z "
       transform="translate(0,1004.3622)"
       id="path1554" />
    <path
       inkscape:connector-curvature="0"
       style="fill:#000000;fill-opacity:1;stroke:none"
       d="m -2.4158142e-6,1049.3622 0,1.0625 c 0,1.0773 0.8602229958142,1.9375 1.9375000158142,1.9375 l 44.1250004,0 c 1.077277,0 1.937505,-0.8602 1.937505,-1.9375 l 0,-1.0625 c 0,1.0773 -0.860228,1.9375 -1.937505,1.9375 l -44.1250004,0 C 0.86022058,1051.2997 -2.4158142e-6,1050.4395 -2.4158142e-6,1049.3622 Z"
       id="rect846" />
    <path
       inkscape:connector-curvature="0"
       style="fill:#000000;fill-opacity:0.39215686;stroke:none"
       d="m 1.9374976,1004.3622 c -1.07727702,0 -1.9375000158142,0.8602 -1.9375000158142,1.9375 l 0,43.0625 c 0,0.7934 0.4800239958142,1.449 1.1562500158142,1.75 -0.30934202,-0.3333 -0.50000002,-0.7824 -0.50000002,-1.2812 l 0,-42.9375 c 0,-1.0482 0.82689902,-1.875 1.87500002,-1.875 l 42.9375004,0 c 1.048101,0 1.875005,0.8268 1.875005,1.875 l 0,42.9375 c 0,0.4988 -0.190663,0.9479 -0.500005,1.2812 0.676225,-0.301 1.156255,-0.9566 1.156255,-1.75 l 0,-43.0625 c 0,-1.0773 -0.860228,-1.9375 -1.937505,-1.9375 L 1.9374976,1004.3622 Z"
       id="rect4280-0" />
    <path
       inkscape:connector-curvature="0"
       style="fill:#ffffff;fill-opacity:0.5372549;stroke:none"
       d="m 2.5312476,1005.0185 c -0.917088,0 -1.67114702,0.6395 -1.84375002,1.5 0.33561202,-0.2799 0.77451202,-0.4375 1.25000002,-0.4375 l 44.1250004,0 c 0.475488,0 0.914388,0.1576 1.250005,0.4375 -0.172608,-0.8605 -0.926667,-1.5 -1.843755,-1.5 L 2.5312476,1005.0185 Z"
       id="path7515" />
  </g>
</svg>
