<?xml version="1.0" encoding="UTF-8" standalone="no"?>
<!-- Created with Inkscape (http://www.inkscape.org/) -->

<svg
   xmlns:dc="http://purl.org/dc/elements/1.1/"
   xmlns:cc="http://creativecommons.org/ns#"
   xmlns:rdf="http://www.w3.org/1999/02/22-rdf-syntax-ns#"
   xmlns:svg="http://www.w3.org/2000/svg"
   xmlns="http://www.w3.org/2000/svg"
   xmlns:xlink="http://www.w3.org/1999/xlink"
   xmlns:sodipodi="http://sodipodi.sourceforge.net/DTD/sodipodi-0.dtd"
   xmlns:inkscape="http://www.inkscape.org/namespaces/inkscape"
   width="48"
   height="48"
   id="svg2"
   version="1.1"
   inkscape:version="0.48+devel r12064"
   sodipodi:docname="session-properties.svg">
  <defs
     id="defs4">
    <linearGradient
       inkscape:collect="always"
       xlink:href="#linearGradient3545"
       id="linearGradient835"
       x1="25.63262"
       y1="-1052.3623"
       x2="25.63262"
       y2="-1004.2789"
       gradientUnits="userSpaceOnUse" />
    <linearGradient
       inkscape:collect="always"
       xlink:href="#linearGradient3545"
       id="linearGradient933"
       x1="24.395052"
       y1="1019.4653"
       x2="24.395052"
       y2="1037.009"
       gradientUnits="userSpaceOnUse" />
    <linearGradient
       id="linearGradient3545">
      <stop
         offset="0"
         style="stop-color:#fafafa;stop-opacity:1"
         id="stop3547" />
      <stop
         offset="0.5"
         style="stop-color:#dcdcdc;stop-opacity:1"
         id="stop3671" />
      <stop
         offset="0.5"
         style="stop-color:#c8c8c8;stop-opacity:1"
         id="stop3674" />
      <stop
         offset="1"
         style="stop-color:#ebebeb;stop-opacity:1"
         id="stop3549" />
    </linearGradient>
  </defs>
  <sodipodi:namedview
     id="base"
     pagecolor="#ffffff"
     bordercolor="#666666"
     borderopacity="1.0"
     inkscape:pageopacity="0.0"
     inkscape:pageshadow="2"
     inkscape:zoom="4.0000002"
     inkscape:cx="23.690286"
     inkscape:cy="31.981368"
     inkscape:document-units="px"
     inkscape:current-layer="layer1"
     showgrid="false"
     inkscape:window-width="1366"
     inkscape:window-height="718"
     inkscape:window-x="0"
     inkscape:window-y="28"
     inkscape:window-maximized="1">
    <inkscape:grid
       type="xygrid"
       id="grid3850" />
  </sodipodi:namedview>
  <metadata
     id="metadata7">
    <rdf:RDF>
      <cc:Work
         rdf:about="">
        <dc:format>image/svg+xml</dc:format>
        <dc:type
           rdf:resource="http://purl.org/dc/dcmitype/StillImage" />
        <dc:title />
      </cc:Work>
    </rdf:RDF>
  </metadata>
  <g
     inkscape:label="Capa 1"
     inkscape:groupmode="layer"
     id="layer1"
     transform="translate(0,-1004.3622)">
    <rect
       style="fill:url(#linearGradient835);fill-opacity:1.0;stroke:none"
       id="rect2991-1"
       width="48"
       height="48"
       x="5.0286864e-08"
       y="-1052.3622"
       ry="1.9445436"
       transform="scale(1,-1)" />
    <path
       inkscape:connector-curvature="0"
       style="fill:#000000;fill-opacity:1;stroke:none"
       d="m -5.0286866e-8,1049.3622 0,1.0625 c 0,1.0773 0.860222900286866,1.9375 1.937499850286866,1.9375 l 44.1250002,0 c 1.077277,0 1.9375,-0.8602 1.9375,-1.9375 l 0,-1.0625 c 0,1.0773 -0.860223,1.9375 -1.9375,1.9375 l -44.1250002,0 C 0.86022285,1051.2997 -5.0286866e-8,1050.4395 -5.0286866e-8,1049.3622 Z"
       id="rect846" />
    <path
       inkscape:connector-curvature="0"
       style="fill:#ffffff;fill-opacity:0.5372549;stroke:none"
       d="m 2.5312498,1005.0185 c -0.9170884,0 -1.67114665,0.6395 -1.84374985,1.5 0.33561195,-0.2799 0.77451205,-0.4375 1.24999985,-0.4375 l 44.1250002,0 c 0.475488,0 0.914388,0.1576 1.25,0.4375 -0.172603,-0.8605 -0.926662,-1.5 -1.84375,-1.5 L 2.5312498,1005.0185 Z"
       id="path7515" />
    <path
       inkscape:connector-curvature="0"
       style="fill:#000000;fill-opacity:0.39215686;stroke:none"
       d="m 1.9374998,1004.3622 c -1.07727685,0 -1.937499850286865,0.8602 -1.937499850286865,1.9375 l 0,43.0625 c 0,0.7934 0.480023600286865,1.449 1.156249850286865,1.75 -0.30934155,-0.3333 -0.49999985,-0.7824 -0.49999985,-1.2812 l 0,-42.9375 c 0,-1.0482 0.82689885,-1.875 1.87499985,-1.875 l 42.9375002,0 c 1.048101,0 1.875,0.8268 1.875,1.875 l 0,42.9375 c 0,0.4988 -0.190658,0.9479 -0.5,1.2812 0.676226,-0.301 1.15625,-0.9566 1.15625,-1.75 l 0,-43.0625 c 0,-1.0773 -0.860223,-1.9375 -1.9375,-1.9375 L 1.9374998,1004.3622 Z"
       id="rect4280" />
    <g
       id="g1022"
       transform="matrix(0.95927398,0,0,0.95927398,0.97742448,41.674586)">
      <g
         style="fill:#666666"
         transform="translate(-5.0000001e-8,-3.4068833e-6)"
         inkscape:label="Capa 1"
         id="layer1-1">
        <path
           style="fill:#666666"
           d="m 19.762311,1044.2323 c 0,-0.3083 2.061172,-2.6491 2.819538,-3.202 0.412628,-0.3008 1.005941,-0.5471 1.318469,-0.5471 0.7781,0 2.096812,1.0169 3.361805,2.5922 1.202998,1.4981 1.167145,1.4941 3.577888,0.417 1.209464,-0.5404 1.369727,-0.6803 1.266623,-1.1068 -0.308394,-1.2755 -0.392163,-3.6014 -0.160642,-4.4601 0.400604,-1.4859 0.868506,-1.6651 3.944839,-1.5107 2.970286,0.1492 2.664197,0.3304 3.589186,-2.1242 l 0.51998,-1.38 -1.606549,-1.3273 c -1.920418,-1.5866 -2.606699,-2.5772 -2.40889,-3.4767 0.132536,-0.6027 2.414925,-2.9958 3.555819,-3.7282 0.48004,-0.3081 0.488002,-0.3577 0.191204,-1.1918 -0.170332,-0.4787 -0.517811,-1.3117 -0.772177,-1.8507 l -0.462481,-0.9803 -2.8236,0 c -3.734658,0 -3.602681,0.135 -3.608641,-3.6436 l -0.0045,-2.8659 -1.834017,-0.7419 -1.834016,-0.742 -0.653686,0.8425 c -0.359517,0.4637 -1.171919,1.3566 -1.80533,1.9851 -0.960709,0.9527 -1.281502,1.1422 -1.934823,1.1422 -0.653279,0 -0.994686,-0.2016 -2.058461,-1.2152 -0.70141,-0.6681 -1.502792,-1.552 -1.780852,-1.9638 -0.587457,-0.8703 -0.713123,-0.8631 -3.037636,0.175 -1.042433,0.4656 -1.48213,0.7724 -1.402898,0.9786 0.06347,0.1653 0.178338,1.2024 0.255263,2.305 0.109396,1.568 0.06591,2.1808 -0.199619,2.8129 -0.432407,1.0294 -0.833841,1.1294 -3.976964,0.9909 l -2.4738006,-0.109 -0.6616679,1.5876 c -0.3639208,0.8731 -0.6616714,1.7259 -0.6616714,1.8949 0,0.1694 0.6031316,0.788 1.3402923,1.375 1.6244906,1.2937 2.5804876,2.5497 2.5804876,3.3897 0,0.7168 -1.147271,2.0728 -2.852361,3.3715 -0.5876308,0.4477 -1.0684189,0.9474 -1.0684189,1.1107 0,0.1632 0.3015418,1.0202 0.6700943,1.9045 l 0.6700921,1.6079 2.4735745,-0.1323 c 4.01878,-0.2154 4.419836,0.1905 4.159924,4.2057 l -0.144881,2.2384 0.920207,0.4689 C 18.438689,1044.1911 19.762311,1044.5874 19.762311,1044.2323 z m 1.792157,-11.0202 c -2.00774,-1.0022 -2.971697,-2.6017 -2.968239,-4.9252 0.0022,-1.5399 0.548058,-2.7521 1.725406,-3.8317 1.177485,-1.0799 1.944709,-1.377 3.596379,-1.3932 1.152177,-0.011 1.54694,0.07 2.419768,0.4978 1.930082,0.9467 2.968445,2.6224 2.978144,4.8058 C 29.323956,1032.4246 25.174595,1035.019 21.554468,1033.2121 Z"
           id="path866"
           inkscape:connector-curvature="0"
           sodipodi:nodetypes="ssssssssscsssscccsccccssccsssssccssscsscssccsssscsss" />
      </g>
      <path
         id="path848"
         transform="translate(0,1004.3622)"
         d="M 28.40625,8 27.75,8.84375 C 27.390483,9.30745 26.570911,10.184 25.9375,10.8125 24.976791,11.7652 24.653321,11.96875 24,11.96875 23.346721,11.96875 23.001275,11.7637 21.9375,10.75 21.23609,10.082 20.434311,9.19315 20.15625,8.78125 19.568793,7.91095 19.449513,7.93075 17.125,8.96875 16.082567,9.43435 15.639518,9.7313 15.71875,9.9375 c 0.06347,0.1653 0.173075,1.2099 0.25,2.3125 0.109396,1.568 0.07803,2.1804 -0.1875,2.8125 -0.432407,1.0294 -0.825627,1.1385 -3.96875,1 l -2.5,-0.125 -0.65625,1.59375 C 8.2923291,18.40445 8,19.2685 8,19.4375 c 0,0.1694 0.6065889,0.788 1.34375,1.375 1.624491,1.2937 2.5625,2.535 2.5625,3.375 0,0.7168 -1.13866,2.0763 -2.84375,3.375 C 8.4748692,28.0102 8,28.5242 8,28.6875 c 0,0.1632 0.2876975,0.9907 0.65625,1.875 l 0.6875,1.625 2.46875,-0.125 c 4.01878,-0.2154 4.416162,0.1723 4.15625,4.1875 l -0.125,2.25 0.90625,0.46875 c 1.689675,0.8622 3,1.26135 3,0.90625 0,-0.3083 2.085384,-2.66595 2.84375,-3.21875 0.412628,-0.3008 0.999972,-0.53125 1.3125,-0.53125 0.7781,0 2.078757,1.01835 3.34375,2.59375 1.202997,1.4981 1.183007,1.48325 3.59375,0.40625 1.209463,-0.5404 1.353104,-0.66735 1.25,-1.09375 -0.308394,-1.2755 -0.387771,-3.61005 -0.15625,-4.46875 0.400604,-1.4859 0.892417,-1.6543 3.96875,-1.5 2.970285,0.1492 2.637511,0.3296 3.5625,-2.125 L 40,28.5625 38.40625,27.21875 C 36.485831,25.63225 35.802191,24.6496 36,23.75 c 0.132535,-0.6027 2.390356,-2.98635 3.53125,-3.71875 0.480041,-0.308 0.484299,-0.38465 0.1875,-1.21875 -0.170331,-0.4787 -0.495634,-1.30475 -0.75,-1.84375 L 38.5,16 35.6875,16 c -3.734658,0 -3.61904,0.12245 -3.625,-3.65625 l 0,-2.875 L 30.21875,8.75 28.40625,8 z m -0.28125,1 1.71875,0.6875 1.71875,0.6875 0,2.6875 C 31.5681,16.605 31.46748,16.5 34.96875,16.5 l 2.625,0 0.4375,0.90625 c 0.23847,0.5053 0.559063,1.26995 0.71875,1.71875 0.278251,0.782 0.262542,0.86745 -0.1875,1.15625 -1.069598,0.6866 -3.188247,2.9349 -3.3125,3.5 -0.185448,0.8433 0.449591,1.7626 2.25,3.25 l 1.5,1.25 -0.5,1.28125 c -0.867185,2.3012 -0.559081,2.1399 -3.34375,2 -2.884089,-0.1447 -3.343181,0.01315 -3.71875,1.40625 -0.217053,0.805 -0.132872,2.9917 0.15625,4.1875 0.09666,0.3998 -0.05362,0.52455 -1.1875,1.03125 -2.260092,1.0097 -2.215929,1.0295 -3.34375,-0.375 -1.185942,-1.4769 -2.426775,-2.4375 -3.15625,-2.4375 -0.292998,0 -0.831907,0.218 -1.21875,0.5 -0.710974,0.5183 -2.6875,2.711 -2.6875,3 0,0.3329 -1.228415,-0.03545 -2.8125,-0.84375 L 16.34375,37.59375 16.46875,35.5 C 16.71242,31.7357 16.330142,31.3606 12.5625,31.5625 L 10.25,31.6875 9.625,30.15625 C 9.2794788,29.32725 9,28.55925 9,28.40625 c 0,-0.1531 0.4490909,-0.6428 1,-1.0625 1.598537,-1.2175 2.65625,-2.48425 2.65625,-3.15625 C 12.65625,23.4 11.772974,22.2129 10.25,21 9.558905,20.4497 9,19.87755 9,19.71875 9,19.56025 9.283821,18.7561 9.625,17.9375 l 0.59375,-1.5 2.34375,0.125 C 15.509205,16.6923 15.875865,16.59 16.28125,15.625 16.530183,15.0324 16.57131,14.47 16.46875,13 16.39663,11.9663 16.3095,10.9675 16.25,10.8125 c -0.07428,-0.1933 0.33521,-0.46975 1.3125,-0.90625 2.179252,-0.9732 2.293004,-1.0034 2.84375,-0.1875 0.260684,0.3861 0.998672,1.21745 1.65625,1.84375 0.997299,0.9503 1.325045,1.15625 1.9375,1.15625 0.612494,0 0.911827,-0.20055 1.8125,-1.09375 0.593829,-0.5892 1.381699,-1.40905 1.71875,-1.84375 L 28.125,9 Z"
         style="fill:#000000;fill-opacity:0.27058824"
         inkscape:connector-curvature="0" />
      <path
         sodipodi:nodetypes="ccscccccccccccscccsccscccccccccccccccccccscccccccccccsccccscsscccsccc"
         inkscape:connector-curvature="0"
         id="path862"
         d="m 15.8125,1014.9715 c -0.08147,0.087 -0.118817,0.1536 -0.09375,0.2188 0.06347,0.1653 0.173075,1.2099 0.25,2.3125 0.01793,0.257 0.02184,0.4463 0.03125,0.6562 0.01446,-0.3971 0.01549,-0.8613 -0.03125,-1.5312 C 15.92284,1015.9697 15.866448,1015.4115 15.8125,1014.9715 z m 8.101121,7.6846 c -1.651647,0.016 -2.430563,0.3158 -3.608031,1.3957 -1.177332,1.0796 -1.709649,2.2789 -1.71184,3.8188 -2.3e-4,0.1544 0.01799,0.2997 0.02634,0.4476 0.06906,-1.3993 0.585418,-2.5202 1.685504,-3.529 1.177468,-1.0799 1.956384,-1.3796 3.608031,-1.3957 1.152161,-0.011 1.550095,0.072 2.422912,0.5003 1.817433,0.8915 2.827895,2.4251 2.949631,4.4244 0.0074,-0.1238 0.0269,-0.2417 0.02634,-0.3687 -0.0097,-2.1833 -1.045912,-3.8464 -2.975967,-4.7931 C 25.463716,1022.7285 25.065782,1022.6451 23.913621,1022.6561 Z M 8.15625,1024.0653 C 8.0560026,1024.3597 8,1024.6139 8,1024.6903 c 0,0.1694 0.6065893,0.788 1.34375,1.375 1.344355,1.0706 2.202969,2.1017 2.46875,2.9062 0.06189,-0.153 0.09375,-0.2859 0.09375,-0.4062 0,-0.84 -0.938009,-2.1126 -2.5625,-3.4063 C 8.8277375,1024.7481 8.3800118,1024.3423 8.15625,1024.0653 z m 31.625,0.1562 c -0.06151,0.053 -0.145376,0.089 -0.25,0.1563 -1.140894,0.7324 -3.398714,3.1473 -3.53125,3.75 -0.05545,0.2522 -0.05996,0.5037 0.03125,0.7812 0.275185,-0.7025 2.400906,-2.9194 3.5,-3.625 C 39.973479,1025.0002 40.009485,1024.8821 39.78125,1024.2215 z m -0.03125,9.375 -0.28125,0.6875 c -0.924989,2.4546 -0.592214,2.2742 -3.5625,2.125 -3.076333,-0.1544 -3.568146,0.045 -3.96875,1.5313 -0.125693,0.4662 -0.139407,1.353 -0.09375,2.2812 0.0055,-0.5754 0.01,-1.0956 0.09375,-1.4062 0.400604,-1.4859 0.892417,-1.6544 3.96875,-1.5 2.970286,0.1492 2.637511,0.3296 3.5625,-2.125 L 40,1033.8153 z m -31.59375,0.062 C 8.0655634,1033.7717 8,1033.8866 8,1033.9403 c 0,0.1632 0.2876975,0.9907 0.65625,1.875 l 0.6875,1.625 2.46875,-0.125 c 3.257424,-0.1746 4.109161,0.08 4.1875,2.3125 0.101116,-3.0567 -0.542295,-3.4141 -4.1875,-3.2188 l -2.46875,0.1563 -0.6875,-1.625 C 8.4542549,1034.4556 8.2793744,1034.0176 8.15625,1033.659 z m 15.75,6.8438 c -0.312528,0 -0.899872,0.2304 -1.3125,0.5312 -0.758366,0.5529 -2.84375,2.9105 -2.84375,3.2188 0,0.3551 -1.310325,-0.044 -3,-0.9063 l -0.84375,-0.4375 -0.0625,0.8438 0.90625,0.4687 c 1.689675,0.8622 3,1.2614 3,0.9063 0,-0.3083 2.085384,-2.6659 2.84375,-3.2188 0.412628,-0.3008 0.999972,-0.5312 1.3125,-0.5312 0.7781,0 2.078757,1.0184 3.34375,2.5937 1.202998,1.4981 1.183007,1.4834 3.59375,0.4063 1.209464,-0.5404 1.353104,-0.6673 1.25,-1.0938 -0.03195,-0.1321 -0.03547,-0.3168 -0.0625,-0.4687 -0.142047,0.1829 -0.467257,0.3657 -1.1875,0.6875 -2.410743,1.0771 -2.390752,1.0918 -3.59375,-0.4063 C 25.985007,1041.5212 24.68435,1040.5028 23.90625,1040.5028 Z"
         style="fill:#ffffff;fill-opacity:1" />
      <path
         sodipodi:nodetypes="cccsccccccccscccccccccccccscccccccscccccccscccccsccccccccccsccscccccccccccccc"
         inkscape:connector-curvature="0"
         id="path876"
         d="m 28.40625,1011.8982 -0.65625,0.8437 c -0.359517,0.4637 -1.179089,1.3403 -1.8125,1.9688 -0.960709,0.9527 -1.284179,1.1562 -1.9375,1.1562 -0.653279,0 -0.998725,-0.2051 -2.0625,-1.2187 -0.70141,-0.6681 -1.50319,-1.557 -1.78125,-1.9688 -0.587457,-0.8703 -0.706737,-0.8506 -3.03125,0.1875 -1.042433,0.4656 -1.485482,0.7626 -1.40625,0.9688 0.01092,0.028 0.01775,0.2053 0.03125,0.2812 0.139103,-0.1951 0.593175,-0.4633 1.375,-0.8125 2.324513,-1.0381 2.443793,-1.0578 3.03125,-0.1875 0.27806,0.4118 1.07984,1.3007 1.78125,1.9688 1.063775,1.0136 1.409221,1.2187 2.0625,1.2187 0.653321,0 0.976791,-0.1723 1.9375,-1.125 0.633411,-0.6285 1.452983,-1.5363 1.8125,-2 l 0.65625,-0.8437 1.8125,0.75 1.84375,0.75 0,-0.4688 L 30.21875,1012.6482 z m -12.375,5.5312 c -0.0025,0.6739 -0.0757,1.1163 -0.25,1.5313 -0.432407,1.0294 -0.825627,1.1385 -3.96875,1 l -2.5,-0.125 -0.65625,1.5937 C 8.2923292,1022.3025 8,1023.1667 8,1023.3357 c 0,0.034 0.018002,0.09 0.0625,0.1562 0.08843,-0.3337 0.3033132,-0.9282 0.59375,-1.625 l 0.65625,-1.5937 2.5,0.125 c 3.143123,0.1385 3.536343,0.029 3.96875,-1 C 15.992422,1018.8955 16.066166,1018.3979 16.03125,1017.4294 z m 16.0625,0.9688 c 0.07727,1.9928 0.559599,1.9375 3.59375,1.9375 l 2.8125,0 0.46875,0.9687 c 0.254366,0.539 0.579668,1.3963 0.75,1.875 0.06397,0.1798 0.122271,0.2889 0.15625,0.4063 0.07514,-0.1607 0.02069,-0.3778 -0.15625,-0.875 -0.170332,-0.4787 -0.495634,-1.3048 -0.75,-1.8438 l -0.46875,-0.9687 -2.8125,0 C 32.886507,1019.8982 32.234208,1019.9543 32.09375,1018.3982 z m -2.78125,10.2229 c -0.104414,3.9522 -4.201464,6.4382 -7.765548,4.6593 -1.75594,-0.8765 -2.71241,-2.2046 -2.921952,-4.0802 0.120693,2.0712 1.052844,3.542 2.921952,4.4751 3.618414,1.806 7.78357,-0.7865 7.765548,-4.8436 C 29.312188,1028.7615 29.314929,1028.6901 29.3125,1028.6211 z m 6.65625,-0.4109 c -0.110408,0.8671 0.605421,1.8301 2.4375,3.3437 l 1.46875,1.25 0.125,-0.3437 -1.59375,-1.3438 C 36.877597,1029.854 36.110014,1028.973 35.96875,1028.2107 z m -24.09375,0.094 c -0.179756,0.7514 -1.257238,1.9717 -2.8125,3.1563 -0.5876308,0.4477 -1.0625,0.9617 -1.0625,1.125 0,0.035 0.067752,0.1873 0.09375,0.2812 0.1494497,-0.2278 0.5084392,-0.618 0.96875,-0.9687 1.70509,-1.2987 2.84375,-2.6582 2.84375,-3.375 C 11.90625,1028.4493 11.889568,1028.3844 11.875,1028.3044 z m 4.15625,10.6875 c -0.009,0.3522 -0.03453,0.7242 -0.0625,1.1563 l -0.125,2.25 0.03125,0 0.09375,-1.8125 C 16.009108,1039.9622 16.033834,1039.4525 16.03125,1038.9919 z m 15.78125,0.6563 c 0.01244,0.9103 0.116604,1.9003 0.28125,2.625 0.04398,-0.099 0.03239,-0.2098 0,-0.3438 C 31.947035,1041.3226 31.847775,1040.4594 31.8125,1039.6482 Z"
         style="fill:#000000;fill-opacity:0.8" />
      <path
         inkscape:connector-curvature="0"
         id="path922"
         d="m 24,1019.2997 c -5.01193,0 -9.0625,4.0506 -9.0625,9.0625 0,5.0119 4.05057,9.0625 9.0625,9.0625 5.01193,0 9.0625,-4.0506 9.0625,-9.0625 C 33.0625,1023.3503 29.01193,1019.2997 24,1019.2997 z m 0,1.8012 c 4.017131,0 7.261258,3.2442 7.261258,7.2613 0,4.0171 -3.244127,7.2613 -7.261258,7.2613 -4.017131,0 -7.261258,-3.2442 -7.261258,-7.2613 C 16.738742,1024.3451 19.982869,1021.1009 24,1021.1009 Z"
         style="color:#000000;fill:url(#linearGradient933);fill-opacity:1;fill-rule:nonzero;stroke:none;stroke-width:0.2;marker:none;visibility:visible;display:inline;overflow:visible;enable-background:accumulate" />
    </g>
  </g>
</svg>
