<?xml version="1.0" encoding="UTF-8" standalone="no"?>
<!-- Created with Inkscape (http://www.inkscape.org/) -->

<svg
   xmlns:dc="http://purl.org/dc/elements/1.1/"
   xmlns:cc="http://creativecommons.org/ns#"
   xmlns:rdf="http://www.w3.org/1999/02/22-rdf-syntax-ns#"
   xmlns:svg="http://www.w3.org/2000/svg"
   xmlns="http://www.w3.org/2000/svg"
   xmlns:xlink="http://www.w3.org/1999/xlink"
   xmlns:sodipodi="http://sodipodi.sourceforge.net/DTD/sodipodi-0.dtd"
   xmlns:inkscape="http://www.inkscape.org/namespaces/inkscape"
   width="48"
   height="48.000019"
   id="svg3139"
   version="1.1"
   inkscape:version="0.48+devel r12149"
   sodipodi:docname="system-log-out.svg">
  <defs
     id="defs3141">
    <linearGradient
       id="linearGradient3257-0">
      <stop
         offset="0"
         style="stop-color:#1f2732;stop-opacity:1"
         id="stop3259-2" />
      <stop
         offset="1"
         style="stop-color:#333b46;stop-opacity:1"
         id="stop3261-6" />
    </linearGradient>
    <linearGradient
       gradientTransform="translate(507.42857,304.57145)"
       y2="-1004.6271"
       x2="23.102119"
       y1="-1051.6226"
       x1="23.102119"
       gradientUnits="userSpaceOnUse"
       id="linearGradient1000"
       xlink:href="#linearGradient3257-0"
       inkscape:collect="always" />
  </defs>
  <sodipodi:namedview
     id="base"
     pagecolor="#ffffff"
     bordercolor="#666666"
     borderopacity="1.0"
     inkscape:pageopacity="0.0"
     inkscape:pageshadow="2"
     inkscape:zoom="11.313709"
     inkscape:cx="15.173738"
     inkscape:cy="19.040335"
     inkscape:document-units="px"
     inkscape:current-layer="layer1"
     showgrid="false"
     fit-margin-top="0"
     fit-margin-left="0"
     fit-margin-right="0"
     fit-margin-bottom="0"
     inkscape:window-width="1366"
     inkscape:window-height="716"
     inkscape:window-x="0"
     inkscape:window-y="28"
     inkscape:window-maximized="1" />
  <metadata
     id="metadata3144">
    <rdf:RDF>
      <cc:Work
         rdf:about="">
        <dc:format>image/svg+xml</dc:format>
        <dc:type
           rdf:resource="http://purl.org/dc/dcmitype/StillImage" />
        <dc:title />
      </cc:Work>
    </rdf:RDF>
  </metadata>
  <g
     inkscape:label="Capa 1"
     inkscape:groupmode="layer"
     id="layer1"
     transform="translate(-507.42857,-699.79074)">
    <rect
       style="fill:url(#linearGradient1000);fill-opacity:1;stroke:none"
       id="rect2991-1"
       width="48"
       height="48"
       x="507.42856"
       y="-747.79071"
       ry="1.9445436"
       transform="scale(1,-1)" />
    <path
       inkscape:connector-curvature="0"
       style="fill:#000000;fill-opacity:1;stroke:none"
       d="m 507.42857,744.79077 0,1.0625 c 0,1.0773 0.86022,1.9375 1.9375,1.9375 l 44.125,0 c 1.07728,0 1.9375,-0.8602 1.9375,-1.9375 l 0,-1.0625 c 0,1.0773 -0.86022,1.9375 -1.9375,1.9375 l -44.125,0 C 508.28879,746.72827 507.42857,745.86807 507.42857,744.79077 Z"
       id="rect846" />
    <path
       inkscape:connector-curvature="0"
       style="fill:#ffffff;fill-opacity:0.5372549;stroke:none"
       d="m 509.95982,700.44707 c -0.91709,0 -1.67115,0.6395 -1.84375,1.5 0.33561,-0.2799 0.77451,-0.4375 1.25,-0.4375 l 44.125,0 c 0.47549,0 0.91439,0.1576 1.25,0.4375 -0.1726,-0.8605 -0.92666,-1.5 -1.84375,-1.5 L 509.95982,700.44707 Z"
       id="path7515" />
    <path
       inkscape:connector-curvature="0"
       style="fill:#000000;fill-opacity:0.39215686;stroke:none"
       d="m 509.36607,699.79077 c -1.07728,0 -1.9375,0.8602 -1.9375,1.9375 l 0,43.0625 c 0,0.7934 0.48002,1.449 1.15625,1.75 -0.30934,-0.3333 -0.5,-0.7824 -0.5,-1.2812 l 0,-42.9375 c 0,-1.0482 0.8269,-1.875 1.875,-1.875 l 42.9375,0 c 1.0481,0 1.875,0.8268 1.875,1.875 l 0,42.9375 c 0,0.4988 -0.19066,0.9479 -0.5,1.2812 0.67623,-0.301 1.15625,-0.9566 1.15625,-1.75 l 0,-43.0625 c 0,-1.0773 -0.86022,-1.9375 -1.9375,-1.9375 L 509.36607,699.79077 Z"
       id="rect4280-8" />
    <g
       id="g821"
       transform="matrix(0.94231422,0,0,0.94231422,27.502144,42.737898)">
      <path
         id="path866"
         transform="translate(507.42857,699.79074)"
         d="m 12.625,36.9375 c -0.429327,0 -0.82675,0.07564 -1.21875,0.21875 -0.578667,0.211553 -1.045227,0.54578 -1.375,1 -0.4231067,0.584887 -0.625,1.354287 -0.625,2.3125 0,0.952 0.1956733,1.721393 0.625,2.3125 0.336,0.46044 0.80878,0.794667 1.375,1 C 11.79825,43.924363 12.195673,44 12.625,44 c 0.429333,0 0.82675,-0.07564 1.21875,-0.21875 0.56622,-0.205333 1.013977,-0.53956 1.34375,-1 0.423107,-0.584887 0.65625,-1.35428 0.65625,-2.3125 0,-0.958213 -0.233143,-1.727613 -0.65625,-2.3125 -0.329773,-0.45422 -0.771303,-0.788447 -1.34375,-1 C 13.451757,37.013137 13.048113,36.9375 12.625,36.9375 z m 7.3125,0 c -1.070213,0 -1.908893,0.36575 -2.5,1.09375 -0.522667,0.640887 -0.78125,1.473203 -0.78125,2.46875 0,1.12622 0.31528,1.99034 0.9375,2.625 C 18.15997,43.703667 18.88512,44 19.75,44 c 0.535113,0 0.995447,-0.107303 1.375,-0.34375 0.211553,-0.130667 0.451197,-0.376393 0.71875,-0.6875 l 0.125,0.84375 0.9375,0 0,-3.59375 -2.8125,0 0,1.125 1.5625,0 c -0.124447,0.584887 -0.395613,1.001113 -0.8125,1.25 -0.248887,0.149333 -0.52006,0.21875 -0.8125,0.21875 -0.56622,0 -1.013977,-0.157637 -1.34375,-0.46875 -0.410667,-0.385773 -0.59375,-1.003757 -0.59375,-1.84375 0,-0.802667 0.1705,-1.414423 0.5625,-1.84375 0.34222,-0.373333 0.796203,-0.5625 1.34375,-0.5625 0.435553,0 0.820107,0.163863 1.125,0.46875 0.23644,0.236447 0.34375,0.432113 0.34375,0.625 l 1.40625,0 c 0,-0.541333 -0.25209,-1.026977 -0.71875,-1.46875 C 21.60247,37.196083 20.870827,36.9375 19.9375,36.9375 z m 9.78125,0 c -0.429333,0 -0.826757,0.07564 -1.21875,0.21875 -0.578667,0.211553 -1.045227,0.54578 -1.375,1 -0.423113,0.584887 -0.625,1.354287 -0.625,2.3125 0,0.952 0.195667,1.721393 0.625,2.3125 0.336,0.46044 0.80878,0.794667 1.375,1 C 28.891993,43.924363 29.289417,44 29.71875,44 c 0.429333,0 0.858007,-0.07564 1.25,-0.21875 0.56622,-0.205333 1.013977,-0.53956 1.34375,-1 0.423113,-0.584887 0.625,-1.35428 0.625,-2.3125 0,-0.958213 -0.201887,-1.727613 -0.625,-2.3125 -0.329773,-0.45422 -0.80256,-0.788447 -1.375,-1 C 30.5455,37.013137 30.141857,36.9375 29.71875,36.9375 Z M 4,37.125 l 0,6.6875 4.71875,0 0,-1.21875 -3.3125,0 0,-5.46875 L 4,37.125 z m 30.03125,0 L 34,41.5625 c 0,0.67822 0.182803,1.22056 0.53125,1.625 0.28,0.304887 0.633173,0.519363 1.0625,0.65625 C 35.911083,43.94331 36.28928,44 36.6875,44 c 0.877327,0 1.539553,-0.19553 2,-0.59375 0.491547,-0.423113 0.71875,-1.07884 0.71875,-1.9375 l 0,-4.34375 -1.40625,0 0,4.40625 c 0,0.416887 -0.12597,0.750977 -0.34375,0.96875 -0.217773,0.21778 -0.533333,0.3125 -1,0.3125 -0.34844,0 -0.651,-0.11975 -0.875,-0.34375 -0.224,-0.23022 -0.34375,-0.558227 -0.34375,-1 l 0,-4.34375 L 34.03125,37.125 z m 6.1875,0 0,1.1875 2.03125,0 0,5.5 1.40625,0 0,-5.5 2.03125,0 0,-1.1875 L 40.21875,37.125 z m -27.59375,1 c 0.479113,0 0.870173,0.157637 1.1875,0.46875 0.410667,0.40444 0.625,1.028787 0.625,1.875 0,0.84622 -0.208113,1.47056 -0.625,1.875 -0.317333,0.311113 -0.714613,0.46875 -1.1875,0.46875 -0.479107,0 -0.863947,-0.157637 -1.1875,-0.46875 -0.416887,-0.40444 -0.625,-1.02878 -0.625,-1.875 0,-0.846213 0.201893,-1.47056 0.625,-1.875 C 11.761053,38.282637 12.152113,38.125 12.625,38.125 z m 17.09375,0 c 0.479107,0 0.870167,0.157637 1.1875,0.46875 0.410667,0.40444 0.625,1.028787 0.625,1.875 0,0.84622 -0.208113,1.47056 -0.625,1.875 -0.317333,0.311113 -0.714613,0.46875 -1.1875,0.46875 -0.479107,0 -0.863947,-0.157637 -1.1875,-0.46875 -0.416887,-0.40444 -0.625,-1.02878 -0.625,-1.875 0,-0.846213 0.201893,-1.47056 0.625,-1.875 C 28.854803,38.282637 29.245863,38.125 29.71875,38.125 Z"
         style="font-size:9.33328247px;font-style:normal;font-variant:normal;font-weight:bold;font-stretch:normal;text-align:start;line-height:125%;letter-spacing:0px;word-spacing:0px;writing-mode:lr-tb;text-anchor:start;fill:#ffffff;fill-opacity:0.5372543;stroke:none;font-family:Helvetica;-inkscape-font-specification:Helvetica Bold"
         inkscape:connector-curvature="0" />
      <path
         inkscape:connector-curvature="0"
         id="path885"
         d="m 527.42857,737.87556 c -0.54755,0 -1.00153,0.18916 -1.34375,0.5625 -0.33001,0.36142 -0.48478,0.84368 -0.53125,1.46875 0.0663,-0.5308 0.23725,-0.95925 0.53125,-1.28125 0.34222,-0.37333 0.7962,-0.5625 1.34375,-0.5625 0.43555,0 0.82011,0.16386 1.125,0.46875 0.23644,0.23645 0.34375,0.43211 0.34375,0.625 l 1.40625,0 c 0,-0.0621 0.007,-0.12685 0,-0.1875 l -1.40625,0 c 0,-0.19289 -0.10731,-0.38856 -0.34375,-0.625 C 528.24868,738.03942 527.86412,737.87556 527.42857,737.87556 z m -7.375,0.0312 c -0.47289,0 -0.86395,0.15763 -1.1875,0.46875 -0.35064,0.33517 -0.53597,0.8304 -0.59375,1.46875 0.0766,-0.55155 0.27642,-0.97792 0.59375,-1.28125 0.32355,-0.31111 0.71461,-0.46875 1.1875,-0.46875 0.47911,0 0.87017,0.15764 1.1875,0.46875 0.308,0.30333 0.51422,0.7297 0.59375,1.28125 -0.0604,-0.63835 -0.25342,-1.13358 -0.59375,-1.46875 C 520.92374,738.06444 520.53268,737.90681 520.05357,737.90681 z m 17.09375,0 c -0.47289,0 -0.86395,0.15763 -1.1875,0.46875 -0.35064,0.33517 -0.53597,0.8304 -0.59375,1.46875 0.0766,-0.55155 0.27642,-0.97792 0.59375,-1.28125 0.32355,-0.31111 0.71461,-0.46875 1.1875,-0.46875 0.47911,0 0.87017,0.15764 1.1875,0.46875 0.308,0.30333 0.51422,0.7297 0.59375,1.28125 -0.0604,-0.63835 -0.25342,-1.13358 -0.59375,-1.46875 C 538.01749,738.06444 537.62643,737.90681 537.14732,737.90681 z m 10.5,0.1875 0,0.1875 2.03125,0 0,-0.1875 L 547.64732,738.09431 z m 3.4375,0 0,0.1875 2.03125,0 0,-0.1875 L 551.08482,738.09431 z m -34.21875,2.8125 c 0.0563,0.738 0.23767,1.3535 0.59375,1.84375 0.336,0.46044 0.80878,0.79467 1.375,1 0.392,0.14311 0.78942,0.21875 1.21875,0.21875 0.42933,0 0.82675,-0.0756 1.21875,-0.21875 0.56622,-0.20533 1.01398,-0.53956 1.34375,-1 0.35092,-0.48509 0.56006,-1.10236 0.625,-1.84375 -0.0854,0.64806 -0.30767,1.21758 -0.625,1.65625 -0.32977,0.46044 -0.77753,0.79466 -1.34375,1 -0.392,0.14315 -0.78942,0.21875 -1.21875,0.21875 -0.42933,0 -0.82675,-0.0756 -1.21875,-0.21875 -0.56622,-0.20534 -1.039,-0.53956 -1.375,-1 C 517.13782,742.11973 516.94123,741.55254 516.86607,740.90681 z m 17.09375,0 c 0.0563,0.738 0.23767,1.3535 0.59375,1.84375 0.336,0.46044 0.80878,0.79467 1.375,1 0.39199,0.14311 0.78942,0.21875 1.21875,0.21875 0.42933,0 0.85801,-0.0756 1.25,-0.21875 0.56622,-0.20533 1.01398,-0.53956 1.34375,-1 0.35092,-0.48509 0.53615,-1.10236 0.59375,-1.84375 -0.0766,0.64806 -0.27642,1.21758 -0.59375,1.65625 -0.32977,0.46044 -0.77753,0.79466 -1.34375,1 -0.39199,0.14315 -0.82067,0.21875 -1.25,0.21875 -0.42933,0 -0.82676,-0.0756 -1.21875,-0.21875 -0.56622,-0.20534 -1.039,-0.53956 -1.375,-1 C 534.23157,742.11973 534.03498,741.55254 533.95982,740.90681 z m -9.8125,0.15625 c 0.0969,0.83197 0.37124,1.51742 0.875,2.03125 0.56622,0.57867 1.29137,0.875 2.15625,0.875 0.53511,0 0.99545,-0.1073 1.375,-0.34375 0.21155,-0.13067 0.4512,-0.37639 0.71875,-0.6875 l 0.125,0.84375 0.9375,0 0,-0.1875 -0.9375,0 -0.125,-0.84375 c -0.26755,0.3111 -0.5072,0.55683 -0.71875,0.6875 -0.37955,0.23644 -0.83989,0.34375 -1.375,0.34375 -0.86488,0 -1.59003,-0.29634 -2.15625,-0.875 C 524.55565,742.43082 524.26516,741.81097 524.14732,741.06306 z m 3.375,0.0625 0,0.1875 1.5,0 c 0.0184,-0.0634 0.048,-0.11953 0.0625,-0.1875 L 527.52232,741.12556 z m 13.9375,0.6875 c 0.0464,0.54142 0.20397,1.00016 0.5,1.34375 0.28,0.30489 0.63317,0.51936 1.0625,0.65625 0.31733,0.0996 0.69553,0.15625 1.09375,0.15625 0.87733,0 1.53955,-0.19553 2,-0.59375 0.40736,-0.35064 0.6221,-0.87798 0.6875,-1.53125 -0.0869,0.5665 -0.31884,1.02641 -0.6875,1.34375 -0.46045,0.39822 -1.12267,0.59375 -2,0.59375 -0.39822,0 -0.77642,-0.0566 -1.09375,-0.15625 -0.42933,-0.13689 -0.7825,-0.35137 -1.0625,-0.65625 C 541.69848,742.66598 541.52757,742.27068 541.45982,741.81306 z m -30.03125,1.78125 0,0.1875 4.71875,0 0,-0.1875 L 511.42857,743.59431 z m 38.25,0 0,0.1875 1.40625,0 0,-0.1875 L 549.67857,743.59431 Z"
         style="font-size:9.33328247px;font-style:normal;font-variant:normal;font-weight:bold;font-stretch:normal;text-align:start;line-height:125%;letter-spacing:0px;word-spacing:0px;writing-mode:lr-tb;text-anchor:start;fill:#ffffff;fill-opacity:0.15686275;stroke:none;font-family:Helvetica;-inkscape-font-specification:Helvetica Bold" />
      <path
         inkscape:connector-curvature="0"
         id="path897"
         d="m 520.05357,736.54074 c -0.42933,0 -0.82675,0.0756 -1.21875,0.21875 -0.57867,0.21155 -1.04523,0.54578 -1.375,1 -0.34612,0.47846 -0.53312,1.08474 -0.59375,1.8125 0.0766,-0.64805 0.27642,-1.18633 0.59375,-1.625 0.32977,-0.45422 0.79633,-0.78845 1.375,-1 0.392,-0.14315 0.78942,-0.21875 1.21875,-0.21875 0.42311,0 0.82676,0.0756 1.21875,0.21875 0.57245,0.21155 1.01398,0.54578 1.34375,1 0.31733,0.43867 0.5396,0.97695 0.625,1.625 -0.0682,-0.72776 -0.27888,-1.33404 -0.625,-1.8125 -0.32977,-0.45422 -0.7713,-0.78845 -1.34375,-1 C 520.88033,736.61638 520.47668,736.54074 520.05357,736.54074 z m 7.3125,0 c -1.07021,0 -1.90889,0.36575 -2.5,1.09375 -0.42583,0.52215 -0.64053,1.17647 -0.71875,1.9375 0.0972,-0.68413 0.32675,-1.26933 0.71875,-1.75 0.59111,-0.728 1.42979,-1.09375 2.5,-1.09375 0.93333,0 1.66497,0.25858 2.21875,0.78125 0.34999,0.33133 0.59472,0.67683 0.6875,1.0625 -0.0584,-0.45525 -0.28398,-0.868 -0.6875,-1.25 C 529.03104,736.79932 528.2994,736.54074 527.36607,736.54074 z m 9.78125,0 c -0.42933,0 -0.82676,0.0756 -1.21875,0.21875 -0.57867,0.21155 -1.04523,0.54578 -1.375,1 -0.34612,0.47846 -0.53313,1.08474 -0.59375,1.8125 0.0766,-0.64805 0.27642,-1.18633 0.59375,-1.625 0.32977,-0.45422 0.79633,-0.78845 1.375,-1 0.39199,-0.14315 0.78942,-0.21875 1.21875,-0.21875 0.42311,0 0.82675,0.0756 1.21875,0.21875 0.57244,0.21155 1.04523,0.54578 1.375,1 0.31733,0.43867 0.51713,0.97695 0.59375,1.625 -0.0606,-0.72776 -0.24763,-1.33404 -0.59375,-1.8125 -0.32977,-0.45422 -0.80256,-0.78845 -1.375,-1 C 537.97407,736.61638 537.57043,736.54074 537.14732,736.54074 z m -25.71875,0.1875 0,0.1875 1.40625,0 0,-0.1875 L 511.42857,736.72824 z m 30.03125,0 0,0.1875 1.40625,0 0,-0.1875 L 541.45982,736.72824 z m 3.96875,0 0,0.1875 1.40625,0 0,-0.1875 L 545.42857,736.72824 z m 2.21875,0 0,0.1875 5.46875,0 0,-0.1875 L 547.64732,736.72824 z m -20.125,3.09375 0,0.1875 2.8125,0 0,-0.1875 L 527.52232,739.82199 z m -9.25,0.84375 c 0.0591,0.63835 0.24826,1.13358 0.59375,1.46875 0.32355,0.31111 0.70839,0.46875 1.1875,0.46875 0.47289,0 0.87017,-0.15764 1.1875,-0.46875 0.34549,-0.33517 0.53466,-0.8304 0.59375,-1.46875 -0.0781,0.55155 -0.28109,0.97792 -0.59375,1.28125 -0.31733,0.31111 -0.71461,0.46875 -1.1875,0.46875 -0.47911,0 -0.86395,-0.15764 -1.1875,-0.46875 C 518.5534,741.64366 518.35039,741.21729 518.27232,740.66574 z m 17.09375,0 c 0.0591,0.63835 0.24826,1.13358 0.59375,1.46875 0.32355,0.31111 0.70839,0.46875 1.1875,0.46875 0.47289,0 0.87017,-0.15764 1.1875,-0.46875 0.34549,-0.33517 0.53466,-0.8304 0.59375,-1.46875 -0.0781,0.55155 -0.28109,0.97792 -0.59375,1.28125 -0.31733,0.31111 -0.71461,0.46875 -1.1875,0.46875 -0.47911,0 -0.86395,-0.15764 -1.1875,-0.46875 C 535.64715,741.64366 535.44414,741.21729 535.36607,740.66574 z m -9.8125,0.0312 c 0.0554,0.62212 0.22607,1.12147 0.5625,1.4375 0.32977,0.31111 0.77753,0.46875 1.34375,0.46875 0.29244,0 0.56361,-0.0694 0.8125,-0.21875 0.41689,-0.24889 0.68805,-0.66511 0.8125,-1.25 l -0.0625,0 c -0.14011,0.48228 -0.38156,0.84254 -0.75,1.0625 -0.24889,0.14933 -0.52006,0.21875 -0.8125,0.21875 -0.56622,0 -1.01398,-0.15764 -1.34375,-0.46875 C 525.80807,741.65766 525.62431,741.24325 525.55357,740.69699 z m 17.3125,0.375 0,0.1875 c 0,0.44177 0.11975,0.76978 0.34375,1 0.224,0.224 0.52656,0.34375 0.875,0.34375 0.46667,0 0.78223,-0.0947 1,-0.3125 0.21778,-0.21777 0.34375,-0.55186 0.34375,-0.96875 l 0,-0.1875 c 0,0.41689 -0.12597,0.75098 -0.34375,0.96875 -0.21777,0.21778 -0.53333,0.3125 -1,0.3125 -0.34844,0 -0.651,-0.11975 -0.875,-0.34375 C 542.98582,741.84177 542.86607,741.51376 542.86607,741.07199 z m -30.03125,1.125 0,0.1875 3.3125,0 0,-0.1875 L 512.83482,742.19699 Z"
         style="font-size:9.33328247px;font-style:normal;font-variant:normal;font-weight:bold;font-stretch:normal;text-align:start;line-height:125%;letter-spacing:0px;word-spacing:0px;writing-mode:lr-tb;text-anchor:start;fill:#000000;fill-opacity:0.5372543;stroke:none;font-family:Helvetica;-inkscape-font-specification:Helvetica Bold" />
    </g>
  </g>
</svg>
