<?xml version="1.0" encoding="UTF-8" standalone="no"?>
<!-- Created with Inkscape (http://www.inkscape.org/) -->

<svg
   xmlns:dc="http://purl.org/dc/elements/1.1/"
   xmlns:cc="http://creativecommons.org/ns#"
   xmlns:rdf="http://www.w3.org/1999/02/22-rdf-syntax-ns#"
   xmlns:svg="http://www.w3.org/2000/svg"
   xmlns="http://www.w3.org/2000/svg"
   xmlns:sodipodi="http://sodipodi.sourceforge.net/DTD/sodipodi-0.dtd"
   xmlns:inkscape="http://www.inkscape.org/namespaces/inkscape"
   width="48"
   height="48"
   id="svg2"
   version="1.1"
   inkscape:version="0.48+devel r12112"
   sodipodi:docname="calligrasheets.svg">
  <defs
     id="defs4" />
  <sodipodi:namedview
     id="base"
     pagecolor="#ffffff"
     bordercolor="#666666"
     borderopacity="1.0"
     inkscape:pageopacity="0.0"
     inkscape:pageshadow="2"
     inkscape:zoom="2"
     inkscape:cx="-5.8145188"
     inkscape:cy="35.602859"
     inkscape:document-units="px"
     inkscape:current-layer="layer1"
     showgrid="false"
     inkscape:window-width="1366"
     inkscape:window-height="718"
     inkscape:window-x="0"
     inkscape:window-y="28"
     inkscape:window-maximized="1" />
  <metadata
     id="metadata7">
    <rdf:RDF>
      <cc:Work
         rdf:about="">
        <dc:format>image/svg+xml</dc:format>
        <dc:type
           rdf:resource="http://purl.org/dc/dcmitype/StillImage" />
        <dc:title />
      </cc:Work>
    </rdf:RDF>
  </metadata>
  <g
     inkscape:label="Capa 1"
     inkscape:groupmode="layer"
     id="layer1"
     transform="translate(0,-1004.3622)">
    <rect
       style="fill:#f4f4f4;fill-opacity:1;stroke:none"
       id="rect2991-1"
       width="48"
       height="48"
       x="2.5e-07"
       y="-1052.3622"
       ry="1.9445436"
       transform="scale(1,-1)" />
    <path
       inkscape:connector-curvature="0"
       style="fill:#000000;fill-opacity:1;stroke:none"
       d="m -2.5e-7,1049.3622 0,1.0625 c 0,1.0773 0.860223,1.9375 1.93750005,1.9375 l 44.1250002,0 c 1.077277,0 1.9375,-0.8602 1.9375,-1.9375 l 0,-1.0625 c 0,1.0773 -0.860223,1.9375 -1.9375,1.9375 l -44.1250002,0 C 0.86022275,1051.2997 -2.5e-7,1050.4395 -2.5e-7,1049.3622 Z"
       id="rect846" />
    <path
       inkscape:connector-curvature="0"
       style="fill:#ffffff;fill-opacity:0.5372549;stroke:none"
       d="m 2.5312498,1005.0185 c -0.917088,0 -1.67114605,0.6395 -1.84375005,1.5 0.33561205,-0.2799 0.77451295,-0.4375 1.25000005,-0.4375 l 44.1250002,0 c 0.475488,0 0.914388,0.1576 1.25,0.4375 -0.172603,-0.8605 -0.926662,-1.5 -1.84375,-1.5 L 2.5312498,1005.0185 Z"
       id="path7515" />
    <path
       inkscape:connector-curvature="0"
       style="fill:#000000;fill-opacity:0.39215686;stroke:none"
       d="m 1.9374998,1004.3622 c -1.07727705,0 -1.93750005,0.8602 -1.93750005,1.9375 l 0,43.0625 c 0,0.7934 0.480024,1.449 1.15625005,1.75 -0.30934105,-0.3333 -0.50000005,-0.7824 -0.50000005,-1.2812 l 0,-42.9375 c 0,-1.0482 0.82689905,-1.875 1.87500005,-1.875 l 42.9375002,0 c 1.048101,0 1.875,0.8268 1.875,1.875 l 0,42.9375 c 0,0.4988 -0.190658,0.9479 -0.5,1.2812 0.676226,-0.301 1.15625,-0.9566 1.15625,-1.75 l 0,-43.0625 c 0,-1.0773 -0.860223,-1.9375 -1.9375,-1.9375 L 1.9374998,1004.3622 Z"
       id="rect4280" />
    <rect
       style="color:#000000;fill:#ffffff;fill-opacity:1;fill-rule:nonzero;stroke:none;stroke-width:0.2;marker:none;visibility:visible;display:inline;overflow:visible;enable-background:accumulate"
       id="rect981"
       width="14.297289"
       height="5.4369969"
       x="31.137974"
       y="1038.9252"
       ry="0" />
    <rect
       ry="0"
       y="1038.9252"
       x="16.851355"
       height="5.4369969"
       width="14.297289"
       id="rect983"
       style="color:#000000;fill:#ffffff;fill-opacity:1;fill-rule:nonzero;stroke:none;stroke-width:0.2;marker:none;visibility:visible;display:inline;overflow:visible;enable-background:accumulate" />
    <rect
       ry="0"
       y="1044.0513"
       x="31.137974"
       height="0.31094706"
       width="14.297289"
       id="rect985"
       style="color:#000000;fill:#cccccc;fill-opacity:1;fill-rule:nonzero;stroke:none;stroke-width:0.2;marker:none;visibility:visible;display:inline;overflow:visible;enable-background:accumulate" />
    <rect
       style="color:#000000;fill:#cccccc;fill-opacity:1;fill-rule:nonzero;stroke:none;stroke-width:0.2;marker:none;visibility:visible;display:inline;overflow:visible;enable-background:accumulate"
       id="rect987"
       width="14.297289"
       height="0.31094706"
       x="16.851355"
       y="1044.0513"
       ry="0" />
    <rect
       ry="0"
       y="1033.4882"
       x="31.137974"
       height="5.4369969"
       width="14.297289"
       id="rect971"
       style="color:#000000;fill:#ffffff;fill-opacity:1;fill-rule:nonzero;stroke:none;stroke-width:0.2;marker:none;visibility:visible;display:inline;overflow:visible;enable-background:accumulate" />
    <rect
       style="color:#000000;fill:#ffffff;fill-opacity:1;fill-rule:nonzero;stroke:none;stroke-width:0.2;marker:none;visibility:visible;display:inline;overflow:visible;enable-background:accumulate"
       id="rect973"
       width="14.297289"
       height="5.4369969"
       x="16.851355"
       y="1033.4882"
       ry="0" />
    <rect
       style="color:#000000;fill:#cccccc;fill-opacity:1;fill-rule:nonzero;stroke:none;stroke-width:0.2;marker:none;visibility:visible;display:inline;overflow:visible;enable-background:accumulate"
       id="rect975"
       width="14.297289"
       height="0.31094706"
       x="31.137974"
       y="1038.6143"
       ry="0" />
    <rect
       ry="0"
       y="1038.6143"
       x="16.851355"
       height="0.31094706"
       width="14.297289"
       id="rect977"
       style="color:#000000;fill:#cccccc;fill-opacity:1;fill-rule:nonzero;stroke:none;stroke-width:0.2;marker:none;visibility:visible;display:inline;overflow:visible;enable-background:accumulate" />
    <rect
       style="color:#000000;fill:#ffffff;fill-opacity:1;fill-rule:nonzero;stroke:none;stroke-width:0.2;marker:none;visibility:visible;display:inline;overflow:visible;enable-background:accumulate"
       id="rect933"
       width="14.297289"
       height="5.4369969"
       x="31.137974"
       y="1028.0513"
       ry="0" />
    <rect
       ry="0"
       y="1028.0513"
       x="16.851355"
       height="5.4369969"
       width="14.297289"
       id="rect935"
       style="color:#000000;fill:#ffffff;fill-opacity:1;fill-rule:nonzero;stroke:none;stroke-width:0.2;marker:none;visibility:visible;display:inline;overflow:visible;enable-background:accumulate" />
    <rect
       ry="0"
       y="1033.1772"
       x="31.137974"
       height="0.31094706"
       width="14.297289"
       id="rect943"
       style="color:#000000;fill:#cccccc;fill-opacity:1;fill-rule:nonzero;stroke:none;stroke-width:0.2;marker:none;visibility:visible;display:inline;overflow:visible;enable-background:accumulate" />
    <rect
       style="color:#000000;fill:#cccccc;fill-opacity:1;fill-rule:nonzero;stroke:none;stroke-width:0.2;marker:none;visibility:visible;display:inline;overflow:visible;enable-background:accumulate"
       id="rect945"
       width="14.297289"
       height="0.31094706"
       x="16.851355"
       y="1033.1772"
       ry="0" />
    <rect
       ry="0"
       y="1022.9252"
       x="31.137974"
       height="5.4369969"
       width="14.297289"
       id="rect925"
       style="color:#000000;fill:#ffffff;fill-opacity:1;fill-rule:nonzero;stroke:none;stroke-width:0.2;marker:none;visibility:visible;display:inline;overflow:visible;enable-background:accumulate" />
    <rect
       style="color:#000000;fill:#ffffff;fill-opacity:1;fill-rule:nonzero;stroke:none;stroke-width:0.2;marker:none;visibility:visible;display:inline;overflow:visible;enable-background:accumulate"
       id="rect927"
       width="14.297289"
       height="5.4369969"
       x="16.851355"
       y="1022.9252"
       ry="0" />
    <rect
       ry="0"
       y="1012.3622"
       x="16.851355"
       height="5.4369969"
       width="14.297289"
       id="rect893"
       style="color:#000000;fill:#484848;fill-opacity:1;fill-rule:nonzero;stroke:none;stroke-width:0.2;marker:none;visibility:visible;display:inline;overflow:visible;enable-background:accumulate" />
    <rect
       ry="0"
       y="1017.4883"
       x="31.137974"
       height="0.31094706"
       width="14.297289"
       id="rect897"
       style="color:#000000;fill:#cccccc;fill-opacity:1;fill-rule:nonzero;stroke:none;stroke-width:0.2;marker:none;visibility:visible;display:inline;overflow:visible;enable-background:accumulate" />
    <rect
       style="color:#000000;fill:#cccccc;fill-opacity:1;fill-rule:nonzero;stroke:none;stroke-width:0.2;marker:none;visibility:visible;display:inline;overflow:visible;enable-background:accumulate"
       id="rect901"
       width="14.297289"
       height="0.31094706"
       x="31.137974"
       y="1012.3622"
       ry="0" />
    <rect
       style="color:#000000;fill:#cccccc;fill-opacity:1;fill-rule:nonzero;stroke:none;stroke-width:0.2;marker:none;visibility:visible;display:inline;overflow:visible;enable-background:accumulate"
       id="rect903"
       width="14.297289"
       height="0.31094706"
       x="31.137974"
       y="1017.4883"
       ry="0" />
    <rect
       style="color:#000000;fill:#ffffff;fill-opacity:1;fill-rule:nonzero;stroke:none;stroke-width:0.2;marker:none;visibility:visible;display:inline;overflow:visible;enable-background:accumulate"
       id="rect907"
       width="14.297289"
       height="5.4369969"
       x="31.137974"
       y="1017.7991"
       ry="0" />
    <rect
       style="color:#000000;fill:#cccccc;fill-opacity:1;fill-rule:nonzero;stroke:none;stroke-width:0.2;marker:none;visibility:visible;display:inline;overflow:visible;enable-background:accumulate"
       id="rect899"
       width="31.988905"
       height="0.31094706"
       x="-1044.3511"
       y="45.134987"
       ry="0"
       transform="matrix(0,-1,1,0,0,0)" />
    <rect
       ry="0"
       y="1017.7991"
       x="16.851355"
       height="5.4369969"
       width="14.297289"
       id="rect909"
       style="color:#000000;fill:#e7fbff;fill-opacity:1;fill-rule:nonzero;stroke:none;stroke-width:0.2;marker:none;visibility:visible;display:inline;overflow:visible;enable-background:accumulate" />
    <rect
       transform="matrix(0,-1,1,0,0,0)"
       ry="0"
       y="30.837698"
       x="-1044.3511"
       height="0.31094706"
       width="31.988905"
       id="rect911"
       style="color:#000000;fill:#cccccc;fill-opacity:1;fill-rule:nonzero;stroke:none;stroke-width:0.2;marker:none;visibility:visible;display:inline;overflow:visible;enable-background:accumulate" />
    <rect
       style="color:#000000;fill:#cccccc;fill-opacity:1;fill-rule:nonzero;stroke:none;stroke-width:0.2;marker:none;visibility:visible;display:inline;overflow:visible;enable-background:accumulate"
       id="rect917"
       width="14.297289"
       height="0.31094706"
       x="31.137974"
       y="1022.9252"
       ry="0" />
    <rect
       ry="0"
       y="1022.9252"
       x="31.137974"
       height="0.31094706"
       width="14.297289"
       id="rect919"
       style="color:#000000;fill:#cccccc;fill-opacity:1;fill-rule:nonzero;stroke:none;stroke-width:0.2;marker:none;visibility:visible;display:inline;overflow:visible;enable-background:accumulate" />
    <path
       style="color:#000000;fill:#0055e1;fill-opacity:1;fill-rule:nonzero;stroke:none;stroke-width:0.2;marker:none;visibility:visible;display:inline;overflow:visible;enable-background:accumulate"
       d="M 16.84375 18.5625 L 16.84375 18.875 L 30.3125 18.875 L 30.3125 18.5625 L 16.84375 18.5625 z "
       transform="translate(0,1004.3622)"
       id="rect921" />
    <rect
       style="color:#000000;fill:#cccccc;fill-opacity:1;fill-rule:nonzero;stroke:none;stroke-width:0.2;marker:none;visibility:visible;display:inline;overflow:visible;enable-background:accumulate"
       id="rect923"
       width="31.988905"
       height="0.31094706"
       x="-1044.3511"
       y="16.851355"
       ry="0"
       transform="matrix(0,-1,1,0,0,0)" />
    <rect
       style="color:#000000;fill:#cccccc;fill-opacity:1;fill-rule:nonzero;stroke:none;stroke-width:0.2;marker:none;visibility:visible;display:inline;overflow:visible;enable-background:accumulate"
       id="rect929"
       width="14.297289"
       height="0.31094706"
       x="31.137974"
       y="1028.0513"
       ry="0" />
    <rect
       ry="0"
       y="1028.0513"
       x="16.851355"
       height="0.31094706"
       width="14.297289"
       id="rect931"
       style="color:#000000;fill:#cccccc;fill-opacity:1;fill-rule:nonzero;stroke:none;stroke-width:0.2;marker:none;visibility:visible;display:inline;overflow:visible;enable-background:accumulate" />
    <rect
       style="color:#000000;fill:#484848;fill-opacity:1;fill-rule:nonzero;stroke:none;stroke-width:0.2;marker:none;visibility:visible;display:inline;overflow:visible;enable-background:accumulate"
       id="rect989"
       width="14.297289"
       height="5.4369969"
       x="2.5540659"
       y="1017.7991"
       ry="0" />
    <rect
       ry="0"
       y="1022.9252"
       x="2.5540659"
       height="0.31094706"
       width="14.297289"
       id="rect993"
       style="color:#000000;fill:#cccccc;fill-opacity:1;fill-rule:nonzero;stroke:none;stroke-width:0.2;marker:none;visibility:visible;display:inline;overflow:visible;enable-background:accumulate" />
    <rect
       transform="matrix(0,-1,1,0,0,0)"
       ry="0"
       y="2.5540659"
       x="-1044.351"
       height="0.31094706"
       width="26.551908"
       id="rect995"
       style="color:#000000;fill:#cccccc;fill-opacity:1;fill-rule:nonzero;stroke:none;stroke-width:0.2;marker:none;visibility:visible;display:inline;overflow:visible;enable-background:accumulate" />
    <rect
       style="color:#000000;fill:#cccccc;fill-opacity:1;fill-rule:nonzero;stroke:none;stroke-width:0.2;marker:none;visibility:visible;display:inline;overflow:visible;enable-background:accumulate"
       id="rect997"
       width="14.297289"
       height="0.31094706"
       x="2.5540659"
       y="1017.7991"
       ry="0" />
    <rect
       style="color:#000000;fill:#cccccc;fill-opacity:1;fill-rule:nonzero;stroke:none;stroke-width:0.2;marker:none;visibility:visible;display:inline;overflow:visible;enable-background:accumulate"
       id="rect999"
       width="14.297289"
       height="0.31094706"
       x="2.5540659"
       y="1028.0513"
       ry="0" />
    <rect
       style="color:#000000;fill:#cccccc;fill-opacity:1;fill-rule:nonzero;stroke:none;stroke-width:0.2;marker:none;visibility:visible;display:inline;overflow:visible;enable-background:accumulate"
       id="rect1023"
       width="14.297289"
       height="0.31094706"
       x="2.5540659"
       y="1044.0513"
       ry="0" />
    <rect
       ry="0"
       y="1044.0513"
       x="2.5540659"
       height="0.31094706"
       width="14.297289"
       id="rect1025"
       style="color:#000000;fill:#cccccc;fill-opacity:1;fill-rule:nonzero;stroke:none;stroke-width:0.2;marker:none;visibility:visible;display:inline;overflow:visible;enable-background:accumulate" />
    <rect
       ry="0"
       y="1038.6143"
       x="2.5540659"
       height="0.31094706"
       width="14.297289"
       id="rect1027"
       style="color:#000000;fill:#cccccc;fill-opacity:1;fill-rule:nonzero;stroke:none;stroke-width:0.2;marker:none;visibility:visible;display:inline;overflow:visible;enable-background:accumulate" />
    <rect
       style="color:#000000;fill:#cccccc;fill-opacity:1;fill-rule:nonzero;stroke:none;stroke-width:0.2;marker:none;visibility:visible;display:inline;overflow:visible;enable-background:accumulate"
       id="rect1029"
       width="14.297289"
       height="0.31094706"
       x="2.5540659"
       y="1033.1772"
       ry="0" />
    <rect
       ry="0"
       y="1012.3622"
       x="16.851355"
       height="0.31094706"
       width="14.297289"
       id="rect1107"
       style="color:#000000;fill:#cccccc;fill-opacity:1;fill-rule:nonzero;stroke:none;stroke-width:0.2;marker:none;visibility:visible;display:inline;overflow:visible;enable-background:accumulate" />
    <rect
       ry="0"
       y="1017.4883"
       x="16.851355"
       height="0.31094706"
       width="14.297289"
       id="rect1111"
       style="color:#000000;fill:#0055e1;fill-opacity:1;fill-rule:nonzero;stroke:none;stroke-width:0.2;marker:none;visibility:visible;display:inline;overflow:visible;enable-background:accumulate" />
    <rect
       transform="matrix(0,-1,1,0,0,0)"
       ry="0"
       y="16.851355"
       x="-1023.2342"
       height="0.31094706"
       width="5.7459021"
       id="rect1113"
       style="color:#000000;fill:#0055e1;fill-opacity:1;fill-rule:nonzero;stroke:none;stroke-width:0.2;marker:none;visibility:visible;display:inline;overflow:visible;enable-background:accumulate" />
    <path
       style="color:#000000;fill:#0055e1;fill-opacity:1;fill-rule:nonzero;stroke:none;stroke-width:0.2;marker:none;visibility:visible;display:inline;overflow:visible;enable-background:accumulate"
       d="M 30.84375 13.125 L 30.84375 18.03125 L 31.15625 18.03125 L 31.15625 13.125 L 30.84375 13.125 z "
       transform="translate(0,1004.3622)"
       id="rect1115" />
    <rect
       style="color:#000000;fill:#0055e1;fill-opacity:1;fill-rule:nonzero;stroke:none;stroke-width:0.2;marker:none;visibility:visible;display:inline;overflow:visible;enable-background:accumulate"
       id="rect1117"
       width="1.0625"
       height="1.0625"
       x="30.453125"
       y="1022.5497" />
    <path
       inkscape:connector-curvature="0"
       id="path1149"
       style="font-size:3.39965391px;font-style:normal;font-variant:normal;font-weight:normal;font-stretch:normal;line-height:125%;letter-spacing:0px;word-spacing:0px;fill:#ffffff;fill-opacity:1;stroke:none;font-family:Helvetica;-inkscape-font-specification:Helvetica"
       d="m 23.544446,1015.7979 -0.166583,0.5032 -0.537146,0 0.870312,-2.441 0.58814,0 0.860112,2.441 -0.554143,0 -0.159784,-0.5032 L 23.544446,1015.7979 z m 0.139385,-0.4215 0.622137,0 -0.305969,-0.9655 L 23.683831,1015.3764 Z" />
    <path
       inkscape:connector-curvature="0"
       id="path1146"
       style="font-size:3.39965391px;font-style:normal;font-variant:normal;font-weight:normal;font-stretch:normal;line-height:125%;letter-spacing:0px;word-spacing:0px;fill:#000000;fill-opacity:1;stroke:none;font-family:Helvetica;-inkscape-font-specification:Helvetica"
       d="m 37.28032,1016.3011 0,-2.4409 1.186479,0 q 0.401159,0 0.598339,0.2176 0.152984,0.17 0.152984,0.4079 0,0.2278 -0.112188,0.3604 -0.06459,0.075 -0.190381,0.1394 0.207379,0.078 0.29917,0.2448 0.07819,0.1427 0.07819,0.3467 0,0.3026 -0.207379,0.5032 -0.118988,0.1156 -0.248175,0.1598 -0.180182,0.061 -0.523547,0.061 L 37.28032,1016.3011 z m 0.48615,-1.0742 0.0034,0.6527 0.625536,0 q 0.190381,0 0.288971,-0.085 0.101989,-0.088 0.101989,-0.272 0,-0.1496 -0.108789,-0.221 -0.108789,-0.075 -0.261773,-0.075 L 37.76647,1015.2269 z m 0,-0.9451 0.0034,0.5337 0.598339,0 q 0.163183,0 0.254974,-0.061 0.105389,-0.071 0.105389,-0.2108 0,-0.1394 -0.09859,-0.2006 -0.09859,-0.061 -0.278771,-0.061 L 37.76647,1014.2818 Z" />
    <path
       inkscape:connector-curvature="0"
       id="path1162"
       style="font-size:3.39965391px;font-style:normal;font-variant:normal;font-weight:normal;font-stretch:normal;line-height:125%;letter-spacing:0px;word-spacing:0px;fill:#ffffff;fill-opacity:1;stroke:none;font-family:Helvetica;-inkscape-font-specification:Helvetica"
       d="m 8.7100114,1020.0755 0,-0.3331 0.067993,0 q 0.3127681,0 0.4657525,-0.1394 0.1223876,-0.1122 0.1223876,-0.2788 l 0.3909602,0 0.0034,2.4138 -0.4759515,0 0,-1.6625 L 8.7100114,1020.0755 Z" />
    <path
       inkscape:connector-curvature="0"
       id="path1159"
       style="font-size:3.39965391px;font-style:normal;font-variant:normal;font-weight:normal;font-stretch:normal;line-height:125%;letter-spacing:0px;word-spacing:0px;fill:#000000;fill-opacity:1;stroke:none;font-family:Helvetica;-inkscape-font-specification:Helvetica"
       d="m 9.0533764,1025.2901 -0.4623529,0 q 0,-0.5099 0.3127681,-0.7207 0.1937803,-0.1326 0.4725519,-0.1326 0.3603634,0 0.5949395,0.204 0.234576,0.2006 0.234576,0.5576 0,0.2753 -0.163183,0.4861 -0.1087892,0.1428 -0.336566,0.2992 -0.1495848,0.1054 -0.2957699,0.2074 -0.2039793,0.1495 -0.2447751,0.2379 l 1.047093,0 0,0.4216 -1.6488317,0 q 0,-0.272 0.081592,-0.442 0.1223875,-0.2583 0.4793512,-0.5167 0.2991695,-0.2176 0.3807612,-0.289 0.2243772,-0.1972 0.2243772,-0.4215 0,-0.136 -0.078192,-0.2312 -0.091791,-0.1122 -0.254974,-0.1122 -0.2175779,0 -0.2957699,0.1598 Q 9.0533764,1025.0964 9.0533764,1025.2901 Z" />
    <path
       inkscape:connector-curvature="0"
       id="path1152"
       style="font-size:3.39965391px;font-style:normal;font-variant:normal;font-weight:normal;font-stretch:normal;line-height:125%;letter-spacing:0px;word-spacing:0px;fill:#000000;fill-opacity:1;stroke:none;font-family:Helvetica;-inkscape-font-specification:Helvetica"
       d="m 23.474753,1020.0755 0,-0.3331 0.06799,0 q 0.312769,0 0.465753,-0.1394 0.122387,-0.1122 0.122387,-0.2788 l 0.390961,0 0.0034,2.4138 -0.475951,0 0,-1.6625 L 23.474753,1020.0755 Z" />
    <path
       inkscape:connector-curvature="0"
       id="path1154"
       style="font-size:3.39965391px;font-style:normal;font-variant:normal;font-weight:normal;font-stretch:normal;line-height:125%;letter-spacing:0px;word-spacing:0px;fill:#000000;fill-opacity:1;stroke:none;font-family:Helvetica;-inkscape-font-specification:Helvetica"
       d="m 25.574518,1020.8337 0.608538,0 0,-1.0369 L 25.574518,1020.8337 z m 1.346263,0 -0.0034,0.3705 -0.265173,0 0,0.5338 -0.475952,0 0,-0.5338 -0.951903,0 0,-0.4113 0.88391,-1.4687 0.543945,0 0,1.5095 L 26.920781,1020.8337 Z" />
    <path
       inkscape:connector-curvature="0"
       id="path1156"
       style="font-size:3.39965391px;font-style:normal;font-variant:normal;font-weight:normal;font-stretch:normal;line-height:125%;letter-spacing:0px;word-spacing:0px;fill:#000000;fill-opacity:1;stroke:none;font-family:Helvetica;-inkscape-font-specification:Helvetica"
       d="m 28.745173,1019.9362 -0.472552,0 q -0.0136,-0.1088 -0.08159,-0.17 -0.06799,-0.061 -0.200579,-0.061 -0.210779,0 -0.312768,0.2142 -0.08499,0.1801 -0.08499,0.4521 l 0.0102,0.01 q 0.08159,-0.1122 0.193781,-0.1564 0.115588,-0.044 0.258373,-0.044 0.350165,0 0.554144,0.2346 0.183581,0.2142 0.183581,0.51 0,0.3977 -0.217578,0.6391 -0.217578,0.2414 -0.571142,0.2414 -0.499749,0 -0.710527,-0.3808 -0.163184,-0.2924 -0.163184,-0.8329 0,-0.3196 0.0442,-0.5304 0.06799,-0.3229 0.244775,-0.5065 0.220977,-0.2278 0.605138,-0.2278 0.115589,0 0.237976,0.031 0.173382,0.044 0.254974,0.1258 0.105389,0.102 0.149585,0.1904 Q 28.714576,1019.756 28.745173,1019.9362 z m -0.431756,1.0267 q 0,-0.2074 -0.115588,-0.3162 -0.09519,-0.088 -0.227777,-0.088 -0.152985,0 -0.248175,0.092 -0.115588,0.1122 -0.115588,0.323 0,0.2005 0.10199,0.3263 0.101989,0.1224 0.275372,0.1224 0.142785,0 0.234576,-0.1122 Q 28.313417,1021.1974 28.313417,1020.9629 Z" />
  </g>
</svg>
