<?xml version="1.0" encoding="UTF-8" standalone="no"?>
<!-- Created with Inkscape (http://www.inkscape.org/) -->

<svg
   xmlns:dc="http://purl.org/dc/elements/1.1/"
   xmlns:cc="http://creativecommons.org/ns#"
   xmlns:rdf="http://www.w3.org/1999/02/22-rdf-syntax-ns#"
   xmlns:svg="http://www.w3.org/2000/svg"
   xmlns="http://www.w3.org/2000/svg"
   xmlns:xlink="http://www.w3.org/1999/xlink"
   xmlns:sodipodi="http://sodipodi.sourceforge.net/DTD/sodipodi-0.dtd"
   xmlns:inkscape="http://www.inkscape.org/namespaces/inkscape"
   width="48"
   height="48"
   id="svg2"
   version="1.1"
   inkscape:version="0.48+devel r12126"
   sodipodi:docname="google-chrome.svg">
  <defs
     id="defs4">
    <linearGradient
       id="linearGradient860"
       inkscape:collect="always">
      <stop
         id="stop862"
         offset="0"
         style="stop-color:#f9f9f9;stop-opacity:1" />
      <stop
         id="stop864"
         offset="1"
         style="stop-color:#ffffff;stop-opacity:1" />
    </linearGradient>
    <linearGradient
       id="linearGradient4178"
       inkscape:collect="always">
      <stop
         id="stop4180"
         offset="0"
         style="stop-color:#81ddfc;stop-opacity:1" />
      <stop
         id="stop4182"
         offset="1"
         style="stop-color:#3ab7e3;stop-opacity:1" />
    </linearGradient>
    <linearGradient
       inkscape:collect="always"
       id="linearGradient4164">
      <stop
         style="stop-color:#ffad39;stop-opacity:1"
         offset="0"
         id="stop4166" />
      <stop
         style="stop-color:#fc870c;stop-opacity:1"
         offset="1"
         id="stop4168" />
    </linearGradient>
    <linearGradient
       id="linearGradient4150"
       inkscape:collect="always">
      <stop
         id="stop4152"
         offset="0"
         style="stop-color:#fe4542;stop-opacity:1" />
      <stop
         id="stop4154"
         offset="1"
         style="stop-color:#ff7271;stop-opacity:1" />
    </linearGradient>
    <linearGradient
       inkscape:collect="always"
       id="linearGradient4132">
      <stop
         style="stop-color:#22972e;stop-opacity:1"
         offset="0"
         id="stop4134" />
      <stop
         style="stop-color:#31c745;stop-opacity:1"
         offset="1"
         id="stop4136" />
    </linearGradient>
    <linearGradient
       inkscape:collect="always"
       xlink:href="#linearGradient4164"
       id="linearGradient3294-0"
       x1="31.168083"
       y1="29.210665"
       x2="39.297752"
       y2="29.210665"
       gradientUnits="userSpaceOnUse"
       gradientTransform="translate(34.661009,1003.3404)" />
    <linearGradient
       inkscape:collect="always"
       xlink:href="#linearGradient4178"
       id="linearGradient3351-4"
       x1="26.539043"
       y1="26.305723"
       x2="26.539043"
       y2="22.032402"
       gradientUnits="userSpaceOnUse" />
    <linearGradient
       inkscape:collect="always"
       xlink:href="#linearGradient4150"
       id="linearGradient3302-8"
       x1="11.400491"
       y1="16.725286"
       x2="38.169533"
       y2="16.725286"
       gradientUnits="userSpaceOnUse"
       gradientTransform="translate(34.672847,1003.3308)" />
    <linearGradient
       inkscape:collect="always"
       xlink:href="#linearGradient4132"
       id="linearGradient3310-5"
       x1="7.9698133"
       y1="30.295507"
       x2="28.67794"
       y2="30.295507"
       gradientUnits="userSpaceOnUse"
       gradientTransform="translate(34.670769,1003.3308)" />
    <linearGradient
       inkscape:collect="always"
       xlink:href="#linearGradient860"
       id="linearGradient858"
       x1="-20.506096"
       y1="-1053.7349"
       x2="-20.506096"
       y2="-1005.87"
       gradientUnits="userSpaceOnUse"
       gradientTransform="translate(44.859651,1.7261395)" />
  </defs>
  <sodipodi:namedview
     id="base"
     pagecolor="#ffffff"
     bordercolor="#666666"
     borderopacity="1.0"
     inkscape:pageopacity="0.0"
     inkscape:pageshadow="2"
     inkscape:zoom="5.656854"
     inkscape:cx="17.902471"
     inkscape:cy="26.114871"
     inkscape:document-units="px"
     inkscape:current-layer="layer1"
     showgrid="false"
     inkscape:window-width="1366"
     inkscape:window-height="717"
     inkscape:window-x="0"
     inkscape:window-y="28"
     inkscape:window-maximized="1" />
  <metadata
     id="metadata7">
    <rdf:RDF>
      <cc:Work
         rdf:about="">
        <dc:format>image/svg+xml</dc:format>
        <dc:type
           rdf:resource="http://purl.org/dc/dcmitype/StillImage" />
        <dc:title />
      </cc:Work>
    </rdf:RDF>
  </metadata>
  <g
     inkscape:label="Capa 1"
     inkscape:groupmode="layer"
     id="layer1"
     transform="translate(0,-1004.3622)">
    <rect
       style="fill:url(#linearGradient858);fill-opacity:1;stroke:none"
       id="rect2991-1"
       width="48"
       height="48"
       x="1.0917969e-06"
       y="-1052.3622"
       ry="1.9445436"
       transform="scale(1,-1)" />
    <path
       inkscape:connector-curvature="0"
       style="fill:#000000;fill-opacity:1;stroke:none"
       d="m -2.25e-6,1049.3622 0,1.0625 c 0,1.0773 0.860223,1.9375 1.93749905,1.9375 l 44.1250002,0 c 1.077277,0 1.937505,-0.8602 1.937505,-1.9375 l 0,-1.0625 c 0,1.0773 -0.860228,1.9375 -1.937505,1.9375 l -44.1250002,0 C 0.86022075,1051.2997 -2.25e-6,1050.4395 -2.25e-6,1049.3622 Z"
       id="rect846" />
    <path
       inkscape:connector-curvature="0"
       style="fill:#ffffff;fill-opacity:0.5372549;stroke:none"
       d="m 2.5312468,1005.0185 c -0.917088,0 -1.67114605,0.6395 -1.84374905,1.5 0.33561095,-0.2799 0.77451095,-0.4375 1.24999905,-0.4375 l 44.1250002,0 c 0.475488,0 0.914388,0.1576 1.250005,0.4375 -0.172608,-0.8605 -0.926667,-1.5 -1.843755,-1.5 L 2.5312468,1005.0185 Z"
       id="path7515" />
    <path
       inkscape:connector-curvature="0"
       style="fill:#000000;fill-opacity:0.39215686;stroke:none"
       d="m 1.9374968,1004.3622 c -1.07727605,0 -1.93749905,0.8602 -1.93749905,1.9375 l 0,43.0625 c 0,0.7934 0.480024,1.449 1.15624905,1.75 -0.30934105,-0.3333 -0.49999905,-0.7824 -0.49999905,-1.2812 l 0,-42.9375 c 0,-1.0482 0.82689795,-1.875 1.87499905,-1.875 l 42.9375002,0 c 1.048101,0 1.875005,0.8268 1.875005,1.875 l 0,42.9375 c 0,0.4988 -0.190663,0.9479 -0.500005,1.2812 0.676225,-0.301 1.156255,-0.9566 1.156255,-1.75 l 0,-43.0625 c 0,-1.0773 -0.860228,-1.9375 -1.937505,-1.9375 L 1.9374968,1004.3622 Z"
       id="rect4280-0" />
    <path
       style="fill:#000000"
       d=""
       id="path906"
       inkscape:connector-curvature="0" />
    <g
       id="g2387"
       transform="matrix(0.97896753,0,0,0.97896753,-33.438812,22.638655)">
      <path
         inkscape:connector-curvature="0"
         id="path3425"
         d="m 58.672846,1010.9871 c -9.029856,0 -16.343749,7.3139 -16.343749,16.3438 0,9.0298 7.313893,16.3437 16.343749,16.3437 9.029857,0 16.34375,-7.3139 16.34375,-16.3437 C 75.016596,1018.301 67.702703,1010.9871 58.672846,1010.9871 z m 0,9 c 4.059294,0 7.34375,3.2845 7.34375,7.3438 0,4.0592 -3.284456,7.3437 -7.34375,7.3437 -4.059294,0 -7.34375,-3.2845 -7.34375,-7.3437 C 51.329096,1023.2716 54.613552,1019.9871 58.672846,1019.9871 Z"
         style="opacity:0.21199999;fill:#000000;fill-opacity:1;stroke:none" />
      <path
         inkscape:connector-curvature="0"
         id="path3284-9"
         d="m 45.547847,1018.2996 c -3.404618,4.9278 -3.943797,11.5619 -0.75,17.0938 2.725606,4.7208 7.512571,7.5173 12.562499,7.9375 l 6.21875,-10.9063 c -0.393017,0.3784 -0.84023,0.6891 -1.3125,0.9688 -0.03052,0.022 -0.05981,0.043 -0.09375,0.062 -0.279004,0.161 -0.553681,0.2874 -0.84375,0.4062 -0.403196,0.1651 -0.834196,0.2892 -1.25,0.375 -0.233047,0.048 -0.452993,0.07 -0.6875,0.094 -0.175638,0.018 -0.35204,0.058 -0.53125,0.062 -0.133549,0 -0.27312,-0.027 -0.40625,-0.031 -0.0938,0 -0.188404,0.01 -0.28125,0 -0.07506,-0.01 -0.143984,-0.024 -0.21875,-0.031 -0.233821,-0.024 -0.457734,-0.046 -0.6875,-0.094 -0.134151,-0.027 -0.274993,-0.059 -0.40625,-0.094 -0.09387,-0.025 -0.188485,-0.065 -0.28125,-0.094 -0.198377,-0.062 -0.401372,-0.108 -0.59375,-0.1875 -0.127143,-0.052 -0.251716,-0.1281 -0.375,-0.1875 -0.10519,-0.051 -0.20979,-0.1 -0.3125,-0.1562 -0.03412,-0.019 -0.05997,-0.043 -0.09375,-0.062 -0.158954,-0.091 -0.316716,-0.1777 -0.46875,-0.2813 -0.09129,-0.062 -0.19307,-0.1217 -0.28125,-0.1875 -0.05273,-0.04 -0.104547,-0.084 -0.15625,-0.125 -0.128513,-0.1015 -0.253949,-0.2025 -0.375,-0.3125 -0.07905,-0.073 -0.174006,-0.1417 -0.25,-0.2187 -0.07974,-0.08 -0.142889,-0.1666 -0.21875,-0.25 -0.01926,-0.021 -0.04348,-0.041 -0.0625,-0.062 -0.13719,-0.1549 -0.251682,-0.3335 -0.375,-0.5 -0.01382,-0.019 -0.01759,-0.043 -0.03125,-0.062 -0.134027,-0.1847 -0.259059,-0.365 -0.375,-0.5625 -0.278691,-0.4749 -0.494007,-0.9938 -0.65625,-1.5313 l -0.03125,-0.031 L 45.547847,1018.2996 Z"
         style="fill:url(#linearGradient3310-5);fill-opacity:1;stroke:none" />
      <path
         inkscape:connector-curvature="0"
         id="path3272-2"
         d="m 58.672846,1011.3309 c -5.451212,0 -10.267395,2.7429 -13.156249,6.9062 l 6.374999,10.9375 c -0.160817,-0.5911 -0.28125,-1.2017 -0.28125,-1.8437 0,-3.8937 3.168892,-7.0625 7.0625,-7.0625 0.587785,0 1.141639,0.1144 1.6875,0.25 0.01912,0 0.04344,0 0.0625,0 l 12.6875,0 C 70.545017,1015.1059 65.060439,1011.3309 58.672846,1011.3309 Z"
         style="fill:url(#linearGradient3302-8);fill-opacity:1;stroke:none" />
      <path
         transform="matrix(2.6326131,0,0,2.6326131,-12.065617,963.79231)"
         d="m 29.168153,24.135147 c 0,1.269204 -1.028893,2.298097 -2.298097,2.298097 -1.269204,0 -2.298097,-1.028893 -2.298097,-2.298097 0,-1.269204 1.028893,-2.298097 2.298097,-2.298097 C 28.13926,21.83705 29.168153,22.865943 29.168153,24.135147 Z"
         sodipodi:ry="2.2980969"
         sodipodi:rx="2.2980969"
         sodipodi:cy="24.135147"
         sodipodi:cx="26.870056"
         id="path3014-9"
         style="fill:url(#linearGradient3351-4);fill-opacity:1;stroke:none"
         sodipodi:type="arc" />
      <path
         inkscape:connector-curvature="0"
         id="path3286-8"
         d="m 73.141596,1020.5184 -12.5,0.062 c 2.931652,0.8544 5.09375,3.5424 5.09375,6.75 0,1.9058 -0.771175,3.6373 -2,4.9062 l -0.03125,0.062 c -0.01052,0.011 -0.02067,0.021 -0.03125,0.031 l -6.3125,10.9375 c 5.96995,0.4845 11.993703,-2.3745 15.1875,-7.9063 C 75.273452,1030.6412 75.30267,1025.1018 73.141596,1020.5184 Z"
         style="fill:url(#linearGradient3294-0);fill-opacity:1;stroke:none" />
      <path
         inkscape:connector-curvature="0"
         id="path3479-1"
         d="m 45.516597,1018.3309 c -3.38246,4.9241 -3.90479,11.5441 -0.71875,17.0625 2.725606,4.7208 7.512571,7.5173 12.562499,7.9375 l 0.65625,-1.1563 c -5.02708,-0.4378 -9.785551,-3.2359 -12.499999,-7.9375 C 42.574917,1029.142 42.8024,1023.1017 45.516597,1018.3309 Z"
         style="fill:#000000;fill-opacity:0.10196078;stroke:none" />
      <path
         inkscape:connector-curvature="0"
         id="path3471-4"
         d="m 60.641596,1020.5809 c 2.738886,0.7982 4.80249,3.1975 5.0625,6.125 0.02349,-0.2323 0.03125,-0.4806 0.03125,-0.7188 C 65.735346,1023.7977 64.713407,1021.8682 63.141596,1020.5809 z m 14.03125,6.1562 c -0.104756,2.4872 -0.795031,4.9777 -2.125,7.2813 -3.060824,5.3015 -8.816358,8.3516 -14.537254,8.153 l -0.654236,1.1688 c 5.96995,0.4845 11.997693,-2.4463 15.19149,-7.9781 C 74.114919,1032.6478 74.792231,1029.6552 74.672846,1026.7371 Z"
         style="fill:#000000;fill-opacity:0.10126582;stroke:none"
         sodipodi:nodetypes="ccscccsccsc" />
    </g>
  </g>
</svg>
