<?xml version="1.0" encoding="UTF-8" standalone="no"?>
<!-- Created with Inkscape (http://www.inkscape.org/) -->

<svg
   xmlns:dc="http://purl.org/dc/elements/1.1/"
   xmlns:cc="http://creativecommons.org/ns#"
   xmlns:rdf="http://www.w3.org/1999/02/22-rdf-syntax-ns#"
   xmlns:svg="http://www.w3.org/2000/svg"
   xmlns="http://www.w3.org/2000/svg"
   xmlns:xlink="http://www.w3.org/1999/xlink"
   xmlns:sodipodi="http://sodipodi.sourceforge.net/DTD/sodipodi-0.dtd"
   xmlns:inkscape="http://www.inkscape.org/namespaces/inkscape"
   width="48"
   height="48"
   id="svg2"
   version="1.1"
   inkscape:version="0.48+devel r12123"
   sodipodi:docname="display.im6.svg"
   inkscape:export-filename="/home/uri/Iconos/NITRUX/apps/16/display.im6.png"
   inkscape:export-xdpi="30"
   inkscape:export-ydpi="30">
  <defs
     id="defs4">
    <linearGradient
       inkscape:collect="always"
       id="linearGradient1463">
      <stop
         style="stop-color:#f9f9f9;stop-opacity:1"
         offset="0"
         id="stop1465" />
      <stop
         style="stop-color:#ffffff;stop-opacity:1"
         offset="1"
         id="stop1467" />
    </linearGradient>
    <linearGradient
       inkscape:collect="always"
       xlink:href="#linearGradient1463"
       id="linearGradient1469"
       x1="25.455845"
       y1="-1052.7157"
       x2="25.455845"
       y2="-1004.6325"
       gradientUnits="userSpaceOnUse" />
  </defs>
  <sodipodi:namedview
     id="base"
     pagecolor="#ffffff"
     bordercolor="#666666"
     borderopacity="1.0"
     inkscape:pageopacity="0.0"
     inkscape:pageshadow="2"
     inkscape:zoom="16"
     inkscape:cx="22.783338"
     inkscape:cy="41.377813"
     inkscape:document-units="px"
     inkscape:current-layer="layer1"
     showgrid="false"
     inkscape:window-width="1366"
     inkscape:window-height="718"
     inkscape:window-x="0"
     inkscape:window-y="28"
     inkscape:window-maximized="1" />
  <metadata
     id="metadata7">
    <rdf:RDF>
      <cc:Work
         rdf:about="">
        <dc:format>image/svg+xml</dc:format>
        <dc:type
           rdf:resource="http://purl.org/dc/dcmitype/StillImage" />
        <dc:title />
      </cc:Work>
    </rdf:RDF>
  </metadata>
  <g
     inkscape:label="Capa 1"
     inkscape:groupmode="layer"
     id="layer1"
     transform="translate(0,-1004.3622)">
    <rect
       style="fill:url(#linearGradient1469);fill-opacity:1;stroke:none"
       id="rect2991-1"
       width="48"
       height="48"
       x="-1.871521e-06"
       y="-1052.3622"
       ry="1.9445436"
       transform="scale(1,-1)" />
    <path
       inkscape:connector-curvature="0"
       style="fill:#000000;fill-opacity:1;stroke:none"
       d="m 1.871521e-6,1049.3622 0,1.0625 c 0,1.0773 0.860199998479,1.9375 1.937500028479,1.9375 l 44.1250001,0 c 1.0773,0 1.9375,-0.8602 1.9375,-1.9375 l 0,-1.0625 c 0,1.0773 -0.8602,1.9375 -1.9375,1.9375 l -44.1250001,0 C 0.86020187,1051.2997 1.871521e-6,1050.4395 1.871521e-6,1049.3622 Z"
       id="rect846" />
    <path
       inkscape:connector-curvature="0"
       style="fill:#ffffff;fill-opacity:0.5372549;stroke:none"
       d="m 2.5312019,1005.0185 c -0.917,0 -1.67110003,0.6395 -1.84370003,1.5 0.33560003,-0.2799 0.77450003,-0.4375 1.25000003,-0.4375 l 44.1250001,0 c 0.4755,0 0.9144,0.1576 1.25,0.4375 -0.1726,-0.8605 -0.9267,-1.5 -1.8437,-1.5 L 2.5312019,1005.0185 Z"
       id="path7515" />
    <path
       inkscape:connector-curvature="0"
       style="fill:#000000;fill-opacity:0.39215686;stroke:none"
       d="m 1.9375019,1004.3622 c -1.07730003,0 -1.937500028479,0.8602 -1.937500028479,1.9375 l 0,43.0625 c 0,0.7934 0.479999998479,1.449 1.156200028479,1.75 -0.30930003,-0.3333 -0.50000003,-0.7824 -0.50000003,-1.2812 l 0,-42.9375 c 0,-1.0482 0.82690003,-1.875 1.87500003,-1.875 l 42.9376001,0 c 1.0481,0 1.875,0.8268 1.875,1.875 l 0,42.9375 c 0,0.4988 -0.1907,0.9479 -0.5,1.2812 0.6762,-0.301 1.1562,-0.9566 1.1562,-1.75 l 0,-43.0625 c 0,-1.0773 -0.8602,-1.9375 -1.9375,-1.9375 L 1.9375019,1004.3622 Z"
       id="rect4280-7" />
    <rect
       style="fill:none;stroke:none"
       id="rect1526"
       width="48"
       height="48"
       x="-1.871521e-06"
       y="1004.3622"
       ry="0" />
    <rect
       style="fill:#004a79;fill-opacity:1;stroke:none"
       id="rect1471"
       width="9.5267172"
       height="9.5267172"
       x="7.6946568"
       y="1012.3622"
       ry="0" />
    <rect
       ry="0"
       y="1012.3622"
       x="19.236641"
       height="9.5267172"
       width="9.5267172"
       id="rect1481"
       style="fill:#53346f;fill-opacity:1;stroke:none" />
    <rect
       style="fill:#7a0402;fill-opacity:1;stroke:none"
       id="rect1483"
       width="9.5267172"
       height="9.5267172"
       x="30.778625"
       y="1012.3622"
       ry="0" />
    <rect
       ry="0"
       y="1023.5988"
       x="7.6946568"
       height="9.5267172"
       width="9.5267172"
       id="rect1485"
       style="fill:#1681c5;fill-opacity:1;stroke:none" />
    <rect
       style="fill:#8152a2;fill-opacity:1;stroke:none"
       id="rect1487"
       width="9.5267172"
       height="9.5267172"
       x="19.236641"
       y="1023.5988"
       ry="0" />
    <rect
       ry="0"
       y="1023.5988"
       x="30.778625"
       height="9.5267172"
       width="9.5267172"
       id="rect1489"
       style="fill:#c31c16;fill-opacity:1;stroke:none" />
    <rect
       style="fill:#52abe3;fill-opacity:1;stroke:none"
       id="rect1491"
       width="9.5267172"
       height="9.5267172"
       x="7.6946568"
       y="1034.8354"
       ry="0" />
    <rect
       ry="0"
       y="1034.8354"
       x="19.236641"
       height="9.5267172"
       width="9.5267172"
       id="rect1493"
       style="fill:#a982c6;fill-opacity:1;stroke:none" />
    <rect
       style="fill:#e25951;fill-opacity:1;stroke:none"
       id="rect1495"
       width="9.5267172"
       height="9.5267172"
       x="30.778625"
       y="1034.8354"
       ry="0" />
    <path
       style="fill:#333333;fill-opacity:1;stroke:none"
       d="m 17.25,1021.6122 0,13.5 13.5,0 0,-13.5 L 17.25,1021.6122 z m 1,1.0001 11.5,0 0,11.4998 -11.5,0 L 18.25,1022.6123 Z"
       id="rect1497"
       inkscape:connector-curvature="0" />
    <path
       style="fill:#000000;fill-opacity:0.23580789;stroke:none"
       d="m 21.78125,1035.8075 0,0.3125 0.34375,0 0,0.062 0.125,0 0,-0.3125 -0.125,0 0,-0.062 L 21.78125,1035.8075 z m 0.46875,0.8438 0,0.3125 0.28125,0 0.40625,0 0,-0.3125 -0.40625,0 L 22.25,1036.6513 z m 0.6875,1.5625 0,0.3125 0.65625,0 0,-0.3125 L 22.9375,1038.2138 z m 9.90625,0.8437 0,0.3125 0.625,0 0,-0.3125 L 32.84375,1039.0575 z m -9.25,0.5313 0,0.3125 0.6875,0 0,-0.3125 L 23.59375,1039.5888 z m 0.6875,1.25 0,0.3125 0.65625,0 0,-0.3125 L 24.28125,1040.8388 z m 7.875,0.2187 0,0.3125 0.6875,0 0,-0.3125 L 32.15625,1041.0575 z m -7.21875,1.75 0,0.3125 0.71875,0 5.78125,0 0.71875,0 0,-0.3125 -0.71875,0 -5.78125,0 L 24.9375,1042.8075 Z"
       id="path1520"
       inkscape:connector-curvature="0" />
    <g
       id="g4731"
       transform="matrix(0.04221568,0,0,0.04221568,-33.667061,1018.3122)">
      <path
         inkscape:connector-curvature="0"
         style="fill:#000000;fill-opacity:1;stroke:none"
         d="m 1403.1624,215.57275 0,15.63321 -14.8343,0 0,145.84476 -14.9004,0 0,-15.63321 -43.5071,0 -16.1616,0 0,53.15288 10.885,0 0,19.96491 15.8299,0.0326 0,36.34722 15.9624,0 0,32.56915 15.9626,0 0,29.99623 15.896,0 0,46.80189 16.9914,0 136.9591,0 0,0.0651 17.0245,0 0,-41.75369 15.9293,0 0,-46.89963 14.8008,0 0,-126.10782 -14.8008,0 0,-17.13138 -15.9293,0 0,-13.09279 -16.9914,0 -14.8674,0 0,-15.6332 -32.9206,0 -15.9627,0 0,-15.63322 -26.4824,0 0,-73.5086 -14.9006,0 0,-15.01441 L 1403.1624,215.57275 Z"
         id="path4403"
         sodipodi:nodetypes="ccccccccccccccccccccccccccccccccccccccccccc" />
      <path
         inkscape:connector-curvature="0"
         sodipodi:nodetypes="ccccccccccccccccccccccccccccccccccccccccccc"
         id="path4323"
         d="m 1403.6189,219.77305 0,15.28424 -14.4328,0 0,142.58912 -14.4971,0 0,-15.28423 -42.3297,0 -15.7243,0 0,51.96637 10.5905,0 0,19.51924 15.4014,0.0318 0,35.53585 15.5305,0 0,31.84213 15.5306,0 0,29.32663 15.4659,0 0,45.75715 16.5314,0 133.2528,0 0,0.0637 16.5638,0 0,-40.82164 15.4981,0 0,-45.85271 14.4004,0 0,-123.29276 -14.4004,0 0,-16.74897 -15.4981,0 0,-12.80052 -16.5317,0 -14.4649,0 0,-15.28423 -32.0298,0 -15.5306,0 0,-15.28424 -25.7659,0 0,-71.8677 -14.4973,0 0,-14.67925 L 1403.6189,219.77305 Z"
         style="fill:#ffffff;fill-opacity:1;stroke:none" />
      <path
         inkscape:connector-curvature="0"
         id="rect4229"
         d="m 1405.4564,224.42468 0,15 -13.9724,0 0,139.9375 -14.0348,0 0,-15 -40.9792,0 -15.2226,0 0,51 10.2526,0 0,19.15625 14.9101,0.0312 0,34.875 15.0351,0 0,31.25 15.035,0 0,28.78125 14.9726,0 0,44.90625 16.0041,0 129.0017,0 0,0.0625 16.0353,0 0,-40.0625 15.0038,0 0,-45 13.9411,0 0,-121 -13.9411,0 0,-16.4375 -15.0038,0 0,-12.5625 -16.0041,0 -14.0036,0 0,-15 -31.0079,0 -15.035,0 0,-15 -24.944,0 0,-70.53125 -14.0348,0 0,-14.40625 L 1405.4564,224.42468 z m 0.7502,15.34375 30.2577,0 0,144.65625 15.035,0 0,-60 24.944,0 0,60.8125 15.035,0 0,-44.875 30.0077,0 0,59.15625 15.0038,0 0,-45.15625 15.0038,0 0,15 14.7538,0 0,115 -14.7538,0 0,45 -15.035,0 0,30.0625 -129.0017,0 0,-35 -15.0038,0 0,-30.03125 -15.0039,0 0,-30.03125 -15.0038,0 0,-34.90625 -15.0038,0 0,-15 -10.9716,-0.0312 0,-34.0625 40.0102,0 0,16.90625 15.0038,0 0,42.15625 14.7226,0 L 1406.2066,239.76843 Z"
         style="fill:#000000;fill-opacity:1;stroke:none" />
    </g>
    <path
       inkscape:connector-curvature="0"
       id="path1533"
       d="m 21.78125,1036.12 0,0.3125 0.34375,0 0,0.062 0.125,0 0,-0.3125 -0.125,0 0,-0.062 L 21.78125,1036.12 z m 0.46875,0.8438 0,0.3125 0.28125,0 0.40625,0 0,-0.3125 -0.40625,0 L 22.25,1036.9638 z m 0.6875,1.5625 0,0.3125 0.65625,0 0,-0.3125 L 22.9375,1038.5263 z m 9.90625,0.8437 0,0.3125 0.625,0 0,-0.3125 L 32.84375,1039.37 z m -9.25,0.5313 0,0.3125 0.6875,0 0,-0.3125 L 23.59375,1039.9013 z m 0.6875,1.25 0,0.3125 0.65625,0 0,-0.3125 L 24.28125,1041.1513 z m 7.875,0.2187 0,0.3125 0.6875,0 0,-0.3125 L 32.15625,1041.37 z m -7.21875,1.75 0,0.3125 0.71875,0 5.78125,0 0.71875,0 0,-0.3125 -0.71875,0 -5.78125,0 L 24.9375,1043.12 Z"
       style="fill:#000000;fill-opacity:0.11879441;stroke:none" />
    <path
       style="fill:#000000;fill-opacity:0.05882353;stroke:none"
       d="m 21.78125,1036.4325 0,0.3125 0.34375,0 0,0.062 0.125,0 0,-0.3125 -0.125,0 0,-0.062 L 21.78125,1036.4325 z m 0.46875,0.8438 0,0.3125 0.28125,0 0.40625,0 0,-0.3125 -0.40625,0 L 22.25,1037.2763 z m 0.6875,1.5625 0,0.3125 0.65625,0 0,-0.3125 L 22.9375,1038.8388 z m 9.90625,0.8437 0,0.3125 0.625,0 0,-0.3125 L 32.84375,1039.6825 z m -9.25,0.5313 0,0.3125 0.6875,0 0,-0.3125 L 23.59375,1040.2138 z m 0.6875,1.25 0,0.3125 0.65625,0 0,-0.3125 L 24.28125,1041.4638 z m 7.875,0.2187 0,0.3125 0.6875,0 0,-0.3125 L 32.15625,1041.6825 z m -7.21875,1.75 0,0.3125 0.71875,0 5.78125,0 0.71875,0 0,-0.3125 -0.71875,0 -5.78125,0 L 24.9375,1043.4325 Z"
       id="path1535"
       inkscape:connector-curvature="0" />
  </g>
</svg>
