<?xml version="1.0" encoding="UTF-8" standalone="no"?>
<!-- Created with Inkscape (http://www.inkscape.org/) -->

<svg
   xmlns:dc="http://purl.org/dc/elements/1.1/"
   xmlns:cc="http://creativecommons.org/ns#"
   xmlns:rdf="http://www.w3.org/1999/02/22-rdf-syntax-ns#"
   xmlns:svg="http://www.w3.org/2000/svg"
   xmlns="http://www.w3.org/2000/svg"
   xmlns:xlink="http://www.w3.org/1999/xlink"
   xmlns:sodipodi="http://sodipodi.sourceforge.net/DTD/sodipodi-0.dtd"
   xmlns:inkscape="http://www.inkscape.org/namespaces/inkscape"
   width="48"
   height="48"
   id="svg2"
   version="1.1"
   inkscape:version="0.48+devel r12137"
   sodipodi:docname="indicator-weather.svg">
  <defs
     id="defs4">
    <radialGradient
       id="radialGradient2493"
       spreadMethod="pad"
       gradientTransform="matrix(301.28952,0,0,-294.11624,297.63867,297.6377)"
       gradientUnits="userSpaceOnUse"
       r="1"
       cy="0"
       cx="0"
       fy="0"
       fx="0">
      <stop
         id="stop2495"
         offset="0"
         style="stop-opacity:1;stop-color:#4d96ca" />
      <stop
         id="stop2497"
         offset="1"
         style="stop-opacity:1;stop-color:#bfe5fa" />
    </radialGradient>
    <radialGradient
       fx="0"
       fy="0"
       cx="0"
       cy="0"
       r="1"
       gradientUnits="userSpaceOnUse"
       gradientTransform="matrix(301.28952,0,0,-294.11624,297.63867,297.6377)"
       spreadMethod="pad"
       id="radialGradient24">
      <stop
         style="stop-opacity:1;stop-color:#c9dfef"
         offset="0"
         id="stop26" />
      <stop
         style="stop-opacity:1;stop-color:#96cbe9"
         offset="1"
         id="stop28" />
    </radialGradient>
    <linearGradient
       x1="0"
       y1="0"
       x2="1"
       y2="0"
       gradientUnits="userSpaceOnUse"
       gradientTransform="matrix(0,-29.921328,29.921328,0,23.999973,40.0001)"
       spreadMethod="pad"
       id="linearGradient504">
      <stop
         style="stop-opacity:1;stop-color:#f9f9f9"
         offset="0"
         id="stop506" />
      <stop
         style="stop-opacity:1;stop-color:#ffffff"
         offset="1"
         id="stop508" />
    </linearGradient>
    <clipPath
       clipPathUnits="userSpaceOnUse"
       id="clipPath472">
      <path
         inkscape:connector-curvature="0"
         d="m 0,595.276 595.276,0 L 595.276,0 0,0 0,595.276 Z"
         id="path474" />
    </clipPath>
    <clipPath
       clipPathUnits="userSpaceOnUse"
       id="clipPath480">
      <path
         inkscape:connector-curvature="0"
         d="m 158.519,463.792 41.585,0 0,-22.514 -41.585,0 L 158.519,463.792 Z"
         id="path482" />
    </clipPath>
    <linearGradient
       x1="0"
       y1="0"
       x2="1"
       y2="0"
       gradientUnits="userSpaceOnUse"
       gradientTransform="matrix(-21.766113,37.700012,37.700012,21.766113,190.19434,424.35156)"
       spreadMethod="pad"
       id="linearGradient460">
      <stop
         style="stop-opacity:1;stop-color:#faa932"
         offset="0"
         id="stop462" />
      <stop
         style="stop-opacity:1;stop-color:#ffde23"
         offset="1"
         id="stop464" />
    </linearGradient>
    <linearGradient
       x1="0"
       y1="0"
       x2="1"
       y2="0"
       gradientUnits="userSpaceOnUse"
       gradientTransform="matrix(-45.039169,16.392914,16.392914,45.039185,201.83008,435.00586)"
       spreadMethod="pad"
       id="linearGradient440">
      <stop
         style="stop-opacity:1;stop-color:#faa932"
         offset="0"
         id="stop442" />
      <stop
         style="stop-opacity:1;stop-color:#ffde23"
         offset="1"
         id="stop444" />
    </linearGradient>
    <radialGradient
       inkscape:collect="always"
       xlink:href="#radialGradient24"
       id="radialGradient2487"
       cx="24"
       cy="-1028.3622"
       fx="24"
       fy="-1028.3622"
       r="24"
       gradientUnits="userSpaceOnUse" />
    <linearGradient
       inkscape:collect="always"
       xlink:href="#radialGradient2493"
       id="linearGradient2491"
       x1="25.102289"
       y1="-1051.4783"
       x2="25.102289"
       y2="-1004.6325"
       gradientUnits="userSpaceOnUse" />
  </defs>
  <sodipodi:namedview
     id="base"
     pagecolor="#ffffff"
     bordercolor="#666666"
     borderopacity="1.0"
     inkscape:pageopacity="0.0"
     inkscape:pageshadow="2"
     inkscape:zoom="8"
     inkscape:cx="29.942466"
     inkscape:cy="29.620823"
     inkscape:document-units="px"
     inkscape:current-layer="layer1"
     showgrid="false"
     inkscape:window-width="1366"
     inkscape:window-height="714"
     inkscape:window-x="0"
     inkscape:window-y="30"
     inkscape:window-maximized="1">
    <inkscape:grid
       type="xygrid"
       id="grid3850" />
  </sodipodi:namedview>
  <metadata
     id="metadata7">
    <rdf:RDF>
      <cc:Work
         rdf:about="">
        <dc:format>image/svg+xml</dc:format>
        <dc:type
           rdf:resource="http://purl.org/dc/dcmitype/StillImage" />
        <dc:title></dc:title>
      </cc:Work>
    </rdf:RDF>
  </metadata>
  <g
     inkscape:label="Capa 1"
     inkscape:groupmode="layer"
     id="layer1"
     transform="translate(0,-1004.3622)">
    <rect
       style="fill:url(#radialGradient2487);fill-opacity:1.0;stroke:none"
       id="rect2991-1"
       width="48"
       height="48"
       x="5.0286864e-08"
       y="-1052.3622"
       ry="1.9445436"
       transform="scale(1,-1)" />
    <rect
       transform="scale(1,-1)"
       ry="1.9445436"
       y="-1052.3622"
       x="5.0286864e-08"
       height="48"
       width="48"
       id="rect2489"
       style="fill:url(#linearGradient2491);fill-opacity:1;stroke:none;opacity:0.256" />
    <path
       inkscape:connector-curvature="0"
       style="fill:#000000;fill-opacity:0.39215686;stroke:none"
       d="m 1.9374998,1004.3622 c -1.07727685,0 -1.937499850286865,0.8602 -1.937499850286865,1.9375 l 0,43.0625 c 0,0.7934 0.480023600286865,1.449 1.156249850286865,1.75 -0.30934155,-0.3333 -0.49999985,-0.7824 -0.49999985,-1.2812 l 0,-42.9375 c 0,-1.0482 0.82689885,-1.875 1.87499985,-1.875 l 42.9375002,0 c 1.048101,0 1.875,0.8268 1.875,1.875 l 0,42.9375 c 0,0.4988 -0.190658,0.9479 -0.5,1.2812 0.676226,-0.301 1.15625,-0.9566 1.15625,-1.75 l 0,-43.0625 c 0,-1.0773 -0.860223,-1.9375 -1.9375,-1.9375 L 1.9374998,1004.3622 Z"
       id="rect4280" />
    <path
       inkscape:connector-curvature="0"
       style="fill:#ffffff;fill-opacity:0.5372549;stroke:none"
       d="m 2.5312498,1005.0185 c -0.9170884,0 -1.67114665,0.6395 -1.84374985,1.5 0.33561195,-0.2799 0.77451205,-0.4375 1.24999985,-0.4375 l 44.1250002,0 c 0.475488,0 0.914388,0.1576 1.25,0.4375 -0.172603,-0.8605 -0.926662,-1.5 -1.84375,-1.5 L 2.5312498,1005.0185 Z"
       id="path7515" />
    <path
       inkscape:connector-curvature="0"
       style="fill:#000000;fill-opacity:1;stroke:none"
       d="m -5.0286866e-8,1049.3622 0,1.0625 c 0,1.0773 0.860222900286866,1.9375 1.937499850286866,1.9375 l 44.1250002,0 c 1.077277,0 1.9375,-0.8602 1.9375,-1.9375 l 0,-1.0625 c 0,1.0773 -0.860223,1.9375 -1.9375,1.9375 l -44.1250002,0 C 0.86022285,1051.2997 -5.0286866e-8,1050.4395 -5.0286866e-8,1049.3622 Z"
       id="rect846" />
    <g
       id="g2771"
       transform="matrix(0.95500017,0,0,0.95500017,1.0762721,45.556155)">
      <g
         id="g428"
         transform="matrix(0.38191171,0,0,-0.38191171,-56.664145,1190.7027)">
        <g
           id="g430">
          <g
             id="g436">
            <g
               id="g438">
              <path
                 id="path446"
                 style="fill:url(#linearGradient440);stroke:none"
                 d="m 179.311,466.075 -3.417,0.893 -3.03,-1.814 -3.529,-0.109 -2.391,-2.598 -3.355,-1.101 -1.566,-3.164 -2.911,-1.998 -0.614,-3.477 -2.229,-2.738 0.397,-3.51 -1.364,-3.258 1.364,-3.256 -0.397,-3.509 2.228,-2.739 0.614,-3.476 2.911,-1.998 1.566,-3.165 3.355,-1.101 2.391,-2.598 3.53,-0.11 3.029,-1.813 3.418,0.892 3.417,-0.892 3.028,1.813 3.53,0.109 2.391,2.598 3.355,1.101 1.565,3.165 2.91,1.998 0.614,3.477 2.229,2.738 -0.397,3.509 1.363,3.257 -1.363,3.257 0.397,3.51 -2.229,2.737 -0.613,3.477 -2.91,1.998 -1.564,3.164 -3.356,1.103 -2.39,2.597 -3.53,0.11 -3.029,1.814 L 179.311,466.075 Z"
                 inkscape:connector-curvature="0" />
            </g>
          </g>
        </g>
      </g>
      <g
         id="g448"
         transform="matrix(0.38191171,0,0,-0.38191171,-56.664145,1190.7027)">
        <g
           id="g450">
          <g
             id="g456">
            <g
               id="g458">
              <path
                 id="path466"
                 style="fill:url(#linearGradient460);stroke:none"
                 d="m 157.549,443.201 c 0,-12.018 9.743,-21.762 21.762,-21.762 l 0,0 c 12.02,0 21.763,9.744 21.763,21.762 l 0,0 c 0,12.019 -9.743,21.763 -21.763,21.763 l 0,0 c -12.019,0 -21.762,-9.744 -21.762,-21.763"
                 inkscape:connector-curvature="0" />
            </g>
          </g>
        </g>
      </g>
      <g
         id="g468"
         transform="matrix(0.38191171,0,0,-0.38191171,-56.664145,1190.7027)">
        <g
           clip-path="url(#clipPath472)"
           id="g470">
          <g
             id="g476">
            <g
               id="g478" />
            <g
               id="g484">
              <g
                 id="g486"
                 clip-path="url(#clipPath480)"
                 style="opacity:0.25">
                <g
                   id="g488"
                   transform="translate(179.311,462.1675)">
                  <path
                     id="path490"
                     style="fill:#ffffff;fill-opacity:1;fill-rule:nonzero;stroke:none"
                     d="m 0,0 c 10.904,0 19.831,-10.212 20.707,-20.89 0.047,0.569 0.085,1.14 0.085,1.721 0,11.482 -9.306,20.794 -20.792,20.794 -11.485,0 -20.792,-9.312 -20.792,-20.794 0,-0.581 0.039,-1.152 0.086,-1.721 C -19.83,-10.212 -10.906,0 0,0"
                     inkscape:connector-curvature="0" />
                </g>
              </g>
            </g>
          </g>
        </g>
      </g>
      <path
         transform="translate(0,1004.3622)"
         id="path510"
         d="m 27.46875,10.09375 c -4.566136,0 -8.640539,2.67675 -10.46875,6.84375 -3.135496,0.3995 -5.793475,2.3932 -7.03125,5.3125 -4.7116448,0.1944 -8.5,4.1351 -8.5,8.875 0,4.8931 3.9506972,8.875 8.84375,8.875 l 27.375,0 c 4.893435,0 8.84375,-3.9819 8.84375,-8.875 0,-4.468 -3.240653,-8.17965 -7.625,-8.78125 0.01986,-0.2692 0.03125,-0.5447 0.03125,-0.8125 C 38.9375,15.21525 33.782514,10.09375 27.46875,10.09375 Z"
         style="fill:url(#linearGradient504);stroke:none"
         inkscape:connector-curvature="0" />
      <path
         inkscape:connector-curvature="0"
         id="path2520"
         d="m 27.46875,1013.329 c -4.566136,0 -8.640539,2.6768 -10.46875,6.8438 -3.135496,0.3995 -5.793475,2.3932 -7.03125,5.3125 -4.7116448,0.1944 -8.5,4.1351 -8.5,8.875 0,0.1822 0.019415,0.3525 0.03125,0.5312 0.3029426,-4.4687 3.95705,-8.0951 8.46875,-8.2812 1.237775,-2.9193 3.895754,-4.913 7.03125,-5.3125 1.828211,-4.167 5.902614,-6.8438 10.46875,-6.8438 6.153678,0 11.185222,4.8744 11.4375,10.9688 0.01333,-0.2191 0.03125,-0.4399 0.03125,-0.6563 C 38.9375,1018.4505 33.782514,1013.329 27.46875,1013.329 z m 11.4375,12.25 c 0.0029,0.1063 0.03125,0.2056 0.03125,0.3125 0,0.2678 -0.01139,0.5433 -0.03125,0.8125 4.191406,0.5752 7.324962,3.9842 7.59375,8.1875 0.01398,-0.1747 0.03125,-0.3525 0.03125,-0.5312 C 46.53125,1029.8923 43.290597,1026.1806 38.90625,1025.579 Z"
         style="fill:#000000;fill-opacity:0.10424709;stroke:none" />
      <path
         id="path2528"
         transform="translate(0,1004.3622)"
         d="m 1.5,31.71875 c -0.012062,0.1879 -0.03125,0.372 -0.03125,0.5625 0,0.105329 -0.00363,0.208046 0,0.3125 C 1.47532,32.468643 1.491946,32.344209 1.5,32.21875 1.8056418,36.83485 5.6199345,40.5 10.3125,40.5 l 27.375,0 c 4.692932,0 8.506886,-3.66515 8.8125,-8.28125 0.0074,0.122522 0.02447,0.248919 0.03125,0.375 0.0036,-0.104454 0,-0.207171 0,-0.3125 0,-0.1862 -0.02013,-0.379 -0.03125,-0.5625 C 46.194386,36.33485 42.380432,40 37.6875,40 l -27.375,0 C 5.6199345,40 1.8056418,36.33485 1.5,31.71875 Z"
         style="fill:#000000;fill-opacity:0.21235519;stroke:none"
         inkscape:connector-curvature="0" />
      <path
         inkscape:connector-curvature="0"
         style="fill:#000000;fill-opacity:0.09266411;stroke:none"
         d="m 1.5078125,1036.5849 c -0.012062,0.1879 -0.03125,0.372 -0.03125,0.5625 0,0.1053 -0.00363,0.208 0,0.3125 0.00657,-0.1251 0.023196,-0.2496 0.03125,-0.375 0.3056418,4.6161 4.1199345,8.2812 8.8125005,8.2812 l 27.374999,0 c 4.692932,0 8.506887,-3.6651 8.8125,-8.2812 0.0074,0.1225 0.02447,0.2489 0.03125,0.375 0.0036,-0.1045 0,-0.2072 0,-0.3125 0,-0.1862 -0.02013,-0.379 -0.03125,-0.5625 -0.305613,4.6161 -4.119568,8.2812 -8.8125,8.2812 l -27.374999,0 C 5.627747,1044.8661 1.8134543,1041.201 1.5078125,1036.5849 Z"
         id="path2536" />
      <path
         id="path2538"
         d="m 1.5078125,1037.0888 c -0.012062,0.1879 -0.03125,0.372 -0.03125,0.5625 0,0.1053 -0.00363,0.208 0,0.3125 0.00657,-0.1251 0.023196,-0.2496 0.03125,-0.375 0.3056418,4.6161 4.1199345,8.2812 8.8125005,8.2812 l 27.374999,0 c 4.692932,0 8.506887,-3.6651 8.8125,-8.2812 0.0074,0.1225 0.02447,0.2489 0.03125,0.375 0.0036,-0.1045 0,-0.2072 0,-0.3125 0,-0.1862 -0.02013,-0.379 -0.03125,-0.5625 -0.305613,4.6161 -4.119568,8.2812 -8.8125,8.2812 l -27.374999,0 C 5.627747,1045.37 1.8134543,1041.7049 1.5078125,1037.0888 Z"
         style="fill:#000000;fill-opacity:0.03861006;stroke:none"
         inkscape:connector-curvature="0" />
    </g>
  </g>
</svg>
