<?xml version="1.0" encoding="UTF-8" standalone="no"?>
<!-- Created with Inkscape (http://www.inkscape.org/) -->

<svg
   xmlns:dc="http://purl.org/dc/elements/1.1/"
   xmlns:cc="http://creativecommons.org/ns#"
   xmlns:rdf="http://www.w3.org/1999/02/22-rdf-syntax-ns#"
   xmlns:svg="http://www.w3.org/2000/svg"
   xmlns="http://www.w3.org/2000/svg"
   xmlns:xlink="http://www.w3.org/1999/xlink"
   xmlns:sodipodi="http://sodipodi.sourceforge.net/DTD/sodipodi-0.dtd"
   xmlns:inkscape="http://www.inkscape.org/namespaces/inkscape"
   width="48"
   height="48"
   id="svg2"
   version="1.1"
   inkscape:version="0.48+devel r12077"
   sodipodi:docname="jdownloader.svg"
   inkscape:export-filename="/home/uri/splash.png"
   inkscape:export-xdpi="96"
   inkscape:export-ydpi="96">
  <defs
     id="defs4">
    <linearGradient
       inkscape:collect="always"
       id="linearGradient1569">
      <stop
         style="stop-color:#ffffff;stop-opacity:1;"
         offset="0"
         id="stop1571" />
      <stop
         style="stop-color:#ffffff;stop-opacity:0;"
         offset="1"
         id="stop1573" />
    </linearGradient>
    <linearGradient
       id="linearGradient1535">
      <stop
         id="stop1537"
         style="stop-color:#307b8e;stop-opacity:0"
         offset="0" />
      <stop
         id="stop1539"
         style="stop-color:#14333b;stop-opacity:1"
         offset="1" />
    </linearGradient>
    <linearGradient
       id="linearGradient1519">
      <stop
         offset="0"
         style="stop-color:#183e47;stop-opacity:1"
         id="stop1521" />
      <stop
         offset="1"
         style="stop-color:#102a30;stop-opacity:1"
         id="stop1523" />
    </linearGradient>
    <linearGradient
       id="linearGradient1504">
      <stop
         id="stop1506"
         style="stop-color:#f4fafb;stop-opacity:1"
         offset="0" />
      <stop
         id="stop1508"
         style="stop-color:#97cedb;stop-opacity:1"
         offset="1" />
    </linearGradient>
    <linearGradient
       id="linearGradient1467">
      <stop
         id="stop1469"
         style="stop-color:#255f6d;stop-opacity:1"
         offset="0" />
      <stop
         id="stop1471"
         style="stop-color:#102a30;stop-opacity:1"
         offset="1" />
    </linearGradient>
    <linearGradient
       id="linearGradient1455">
      <stop
         offset="0"
         style="stop-color:#307b8e;stop-opacity:1"
         id="stop1457" />
      <stop
         offset="1"
         style="stop-color:#14333b;stop-opacity:1"
         id="stop1461" />
    </linearGradient>
    <linearGradient
       id="linearGradient1425"
       inkscape:collect="always">
      <stop
         id="stop1427"
         offset="0"
         style="stop-color:#cbcbcb;stop-opacity:1" />
      <stop
         id="stop1429"
         offset="1"
         style="stop-color:#fdfdfd;stop-opacity:1" />
    </linearGradient>
    <linearGradient
       inkscape:collect="always"
       id="linearGradient1407">
      <stop
         style="stop-color:#f9f9f9;stop-opacity:1"
         offset="0"
         id="stop1409" />
      <stop
         style="stop-color:#ffffff;stop-opacity:1"
         offset="1"
         id="stop1411" />
    </linearGradient>
    <linearGradient
       inkscape:collect="always"
       xlink:href="#linearGradient1407"
       id="linearGradient1413"
       x1="74.948059"
       y1="-1051.9836"
       x2="74.948059"
       y2="-1004.2894"
       gradientUnits="userSpaceOnUse"
       gradientTransform="translate(-54.60223,-0.62451455)" />
    <linearGradient
       inkscape:collect="always"
       xlink:href="#linearGradient1425"
       id="linearGradient1423"
       x1="82.101364"
       y1="7.2930632"
       x2="82.101364"
       y2="37.449196"
       gradientUnits="userSpaceOnUse" />
    <linearGradient
       inkscape:collect="always"
       xlink:href="#linearGradient1467"
       id="linearGradient1433"
       gradientUnits="userSpaceOnUse"
       x1="82.101364"
       y1="7.2930632"
       x2="82.101364"
       y2="37.449196" />
    <linearGradient
       inkscape:collect="always"
       xlink:href="#linearGradient1455"
       id="linearGradient1465"
       gradientUnits="userSpaceOnUse"
       x1="82.101364"
       y1="7.2930632"
       x2="82.101364"
       y2="37.449196" />
    <linearGradient
       inkscape:collect="always"
       xlink:href="#linearGradient1504"
       id="linearGradient1501"
       x1="24.176466"
       y1="1021.5051"
       x2="24.176466"
       y2="1034.7534"
       gradientUnits="userSpaceOnUse"
       gradientTransform="translate(-5.4054054e-8,-2.8828831e-6)" />
    <linearGradient
       inkscape:collect="always"
       xlink:href="#linearGradient1519"
       id="linearGradient1517"
       x1="24.475586"
       y1="15.8617"
       x2="24.475586"
       y2="32.138298"
       gradientUnits="userSpaceOnUse"
       gradientTransform="translate(-5.4054054e-8,1004.3622)" />
    <linearGradient
       inkscape:collect="always"
       xlink:href="#linearGradient1535"
       id="linearGradient1543"
       gradientUnits="userSpaceOnUse"
       x1="43.763988"
       y1="1028.3622"
       x2="46"
       y2="1028.3622"
       gradientTransform="translate(-48.000002,0)" />
    <linearGradient
       inkscape:collect="always"
       xlink:href="#linearGradient1504"
       id="linearGradient1551"
       x1="24.080658"
       y1="1006.1553"
       x2="24.080658"
       y2="1050.3167"
       gradientUnits="userSpaceOnUse" />
    <linearGradient
       inkscape:collect="always"
       xlink:href="#linearGradient1535"
       id="linearGradient1561"
       gradientUnits="userSpaceOnUse"
       gradientTransform="translate(-2.4410095e-6,0)"
       x1="43.763988"
       y1="1028.3622"
       x2="46"
       y2="1028.3622" />
    <linearGradient
       inkscape:collect="always"
       xlink:href="#linearGradient1569"
       id="linearGradient1575"
       x1="24.089314"
       y1="14.320247"
       x2="24.089314"
       y2="22.143108"
       gradientUnits="userSpaceOnUse" />
  </defs>
  <sodipodi:namedview
     id="base"
     pagecolor="#ffffff"
     bordercolor="#666666"
     borderopacity="1.0"
     inkscape:pageopacity="0.0"
     inkscape:pageshadow="2"
     inkscape:zoom="2.8020833"
     inkscape:cx="-63.597626"
     inkscape:cy="0.77634738"
     inkscape:document-units="px"
     inkscape:current-layer="layer1"
     showgrid="false"
     inkscape:window-width="1366"
     inkscape:window-height="718"
     inkscape:window-x="0"
     inkscape:window-y="28"
     inkscape:window-maximized="1">
    <inkscape:grid
       type="xygrid"
       id="grid3850"
       empspacing="5"
       visible="true"
       enabled="true"
       snapvisiblegridlinesonly="true" />
  </sodipodi:namedview>
  <metadata
     id="metadata7">
    <rdf:RDF>
      <cc:Work
         rdf:about="">
        <dc:format>image/svg+xml</dc:format>
        <dc:type
           rdf:resource="http://purl.org/dc/dcmitype/StillImage" />
        <dc:title />
      </cc:Work>
    </rdf:RDF>
  </metadata>
  <g
     inkscape:label="Capa 1"
     inkscape:groupmode="layer"
     id="layer1"
     transform="translate(0,-1004.3622)">
    <rect
       style="fill:url(#linearGradient1413);fill-opacity:1;stroke:none"
       id="rect2991-1"
       width="48"
       height="48"
       x="3.6010746e-08"
       y="-1052.3622"
       ry="1.9445436"
       transform="scale(1,-1)" />
    <rect
       ry="1.7824984"
       y="1006.3622"
       x="2"
       height="44"
       width="44"
       id="rect1441"
       style="fill:url(#linearGradient1551);fill-opacity:1;stroke:none;opacity:0.139" />
    <path
       transform="matrix(1.0479985,0,0,1.0479985,-61.024795,1004.6368)"
       d="m 96.397843,22.638788 a 15.267198,15.267198 0 1 1 -30.534395,0 A 15.267198,15.267198 0 1 1 96.397843,22.638788 Z"
       sodipodi:ry="15.267198"
       sodipodi:rx="15.267198"
       sodipodi:cy="22.638788"
       sodipodi:cx="81.130646"
       id="path1451"
       style="opacity:0.52100004;color:#000000;fill:#ffffff;fill-opacity:1;fill-rule:nonzero;stroke:none;stroke-width:0.2;marker:none;visibility:visible;display:inline;overflow:visible;enable-background:accumulate"
       sodipodi:type="arc" />
    <path
       sodipodi:type="arc"
       style="opacity:0.52100004;color:#000000;fill:url(#linearGradient1423);fill-opacity:1;fill-rule:nonzero;stroke:none;stroke-width:0.2;marker:none;visibility:visible;display:inline;overflow:visible;enable-background:accumulate"
       id="path1415"
       sodipodi:cx="81.130646"
       sodipodi:cy="22.638788"
       sodipodi:rx="15.267198"
       sodipodi:ry="15.267198"
       d="m 96.397843,22.638788 a 15.267198,15.267198 0 1 1 -30.534395,0 A 15.267198,15.267198 0 1 1 96.397843,22.638788 Z"
       transform="matrix(0.98635153,0,0,0.98635153,-56.023337,1006.0324)" />
    <path
       transform="matrix(0.85713964,0,0,0.85713964,-45.540293,1008.9576)"
       d="m 96.397843,22.638788 a 15.267198,15.267198 0 1 1 -30.534395,0 A 15.267198,15.267198 0 1 1 96.397843,22.638788 Z"
       sodipodi:ry="15.267198"
       sodipodi:rx="15.267198"
       sodipodi:cy="22.638788"
       sodipodi:cx="81.130646"
       id="path1431"
       style="color:#000000;fill:url(#linearGradient1433);fill-opacity:1;fill-rule:nonzero;stroke:none;stroke-width:0.2;marker:none;visibility:visible;display:inline;overflow:visible;enable-background:accumulate"
       sodipodi:type="arc" />
    <path
       sodipodi:type="arc"
       style="color:#000000;fill:url(#linearGradient1465);fill-opacity:1;fill-rule:nonzero;stroke:none;stroke-width:0.2;marker:none;visibility:visible;display:inline;overflow:visible;enable-background:accumulate"
       id="path1463"
       sodipodi:cx="81.130646"
       sodipodi:cy="22.638788"
       sodipodi:rx="15.267198"
       sodipodi:ry="15.267198"
       d="m 96.397843,22.638788 a 15.267198,15.267198 0 1 1 -30.534395,0 A 15.267198,15.267198 0 1 1 96.397843,22.638788 Z"
       transform="matrix(0.79163973,0,0,0.79163973,-40.226243,1010.4404)" />
    <path
       style="color:#000000;fill:url(#linearGradient1517);fill-opacity:1;fill-rule:nonzero;stroke:none;stroke-width:0.2;marker:none;visibility:visible;display:inline;overflow:visible;enable-background:accumulate"
       d="m 20.4375,1020.4247 c -0.295517,0 -0.53125,0.2357 -0.53125,0.5312 l 0,7.1251 -2.875,0 6.96875,8.2187 6.96875,-8.2187 -2.875,0 0,-7.1251 c 0,-0.2955 -0.235733,-0.5312 -0.53125,-0.5312 L 20.4375,1020.4247 Z"
       id="rect1483"
       inkscape:connector-curvature="0" />
    <path
       style="color:#000000;fill:url(#linearGradient1501);fill-opacity:1;fill-rule:nonzero;stroke:none;stroke-width:0.2;marker:none;visibility:visible;display:inline;overflow:visible;enable-background:accumulate"
       d="m 21.4375,1021.4247 c -0.305423,0 -0.53125,0.2571 -0.53125,0.5624 l 0,7.0314 -1.875,0 4.96875,5.8749 4.96875,-5.8749 -1.875,0 0,-7.0314 c 0,-0.3053 -0.225827,-0.5624 -0.53125,-0.5624 L 21.4375,1021.4247 Z"
       id="rect1488"
       inkscape:connector-curvature="0" />
    <path
       style="color:#000000;fill:url(#linearGradient1575);fill-opacity:1;fill-rule:nonzero;stroke:none;stroke-width:0.2;marker:none;visibility:visible;display:inline;overflow:visible;enable-background:accumulate"
       d="M 24 12.71875 C 18.745768 12.71875 14.5 15.811544 14.5 19.625 C 14.5 20.081079 14.571236 20.53738 14.6875 20.96875 C 17.286999 20.107201 20.504261 19.59375 24 19.59375 C 27.495739 19.59375 30.713001 20.107201 33.3125 20.96875 C 33.428764 20.53738 33.5 20.081079 33.5 19.625 C 33.5 15.811544 29.254232 12.71875 24 12.71875 z "
       transform="translate(0,1004.3622)"
       id="path1473" />
    <path
       inkscape:connector-curvature="0"
       style="fill:#000000;fill-opacity:0.39215686;stroke:none"
       d="m 1.9375,1004.3622 c -1.07727704,0 -1.937500036010739,0.8602 -1.937500036010739,1.9375 l 0,43.0625 c 0,0.7934 0.480023996010739,1.449 1.156250036010739,1.75 -0.30934104,-0.3333 -0.50000004,-0.7824 -0.50000004,-1.2812 l 0,-42.9375 c 0,-1.0482 0.82689904,-1.875 1.87500004,-1.875 l 42.9375,0 c 1.0481,0 1.875,0.8268 1.875,1.875 l 0,42.9375 c 0,0.4988 -0.19066,0.9479 -0.5,1.2812 0.67623,-0.301 1.15625,-0.9566 1.15625,-1.75 l 0,-43.0625 c 0,-1.0773 -0.86022,-1.9375 -1.9375,-1.9375 L 1.9375,1004.3622 Z"
       id="rect4280-3" />
    <path
       inkscape:connector-curvature="0"
       style="fill:#000000;fill-opacity:1;stroke:none"
       d="m -3.6010739e-8,1049.3622 0,1.0625 c 0,1.0773 0.860222996010739,1.9375 1.937500036010739,1.9375 l 44.125,0 c 1.07728,0 1.9375,-0.8602 1.9375,-1.9375 l 0,-1.0625 c 0,1.0773 -0.86022,1.9375 -1.9375,1.9375 l -44.125,0 C 0.86022296,1051.2997 -3.6010739e-8,1050.4395 -3.6010739e-8,1049.3622 Z"
       id="rect846" />
    <path
       inkscape:connector-curvature="0"
       style="fill:#ffffff;fill-opacity:0.5372549;stroke:none"
       d="m 2.53125,1005.0185 c -0.917088,0 -1.67114604,0.6395 -1.84375004,1.5 C 1.023112,1006.2386 1.462013,1006.081 1.9375,1006.081 l 44.125,0 c 0.47549,0 0.91439,0.1576 1.25,0.4375 -0.1726,-0.8605 -0.92666,-1.5 -1.84375,-1.5 L 2.53125,1005.0185 Z"
       id="path7515" />
    <rect
       ry="1.7824984"
       y="1006.3622"
       x="-7.8950934"
       height="44"
       width="5.8950934"
       id="rect1541"
       style="opacity:0.08;fill:url(#linearGradient1543);fill-opacity:1;stroke:none"
       transform="scale(-1,1)" />
    <rect
       style="opacity:0.08;fill:url(#linearGradient1561);fill-opacity:1;stroke:none"
       id="rect1559"
       width="5.8950934"
       height="44"
       x="40.104908"
       y="1006.3622"
       ry="1.7824984" />
  </g>
</svg>
