<?xml version="1.0" encoding="UTF-8" standalone="no"?>
<!-- Created with Inkscape (http://www.inkscape.org/) -->

<svg
   xmlns:dc="http://purl.org/dc/elements/1.1/"
   xmlns:cc="http://creativecommons.org/ns#"
   xmlns:rdf="http://www.w3.org/1999/02/22-rdf-syntax-ns#"
   xmlns:svg="http://www.w3.org/2000/svg"
   xmlns="http://www.w3.org/2000/svg"
   xmlns:xlink="http://www.w3.org/1999/xlink"
   xmlns:sodipodi="http://sodipodi.sourceforge.net/DTD/sodipodi-0.dtd"
   xmlns:inkscape="http://www.inkscape.org/namespaces/inkscape"
   width="48"
   height="48"
   id="svg2"
   version="1.1"
   inkscape:version="0.48+devel r12126"
   sodipodi:docname="flickr.svg">
  <defs
     id="defs4">
    <linearGradient
       inkscape:collect="always"
       id="linearGradient839">
      <stop
         style="stop-color:#f9f9f9;stop-opacity:1"
         offset="0"
         id="stop841" />
      <stop
         style="stop-color:#ffffff;stop-opacity:1"
         offset="1"
         id="stop843" />
    </linearGradient>
    <linearGradient
       id="linearGradient3744">
      <stop
         id="stop3746"
         style="stop-color:#167fff;stop-opacity:1"
         offset="0" />
      <stop
         id="stop3748"
         style="stop-color:#0063db;stop-opacity:1"
         offset="1" />
    </linearGradient>
    <linearGradient
       x1="16"
       y1="40"
       x2="48"
       y2="40"
       id="linearGradient3742"
       xlink:href="#linearGradient3736"
       gradientUnits="userSpaceOnUse"
       gradientTransform="matrix(0,0.67382812,-0.67382812,0,56.662124,1003.9203)" />
    <linearGradient
       id="linearGradient3736">
      <stop
         id="stop3738"
         style="stop-color:#ff41a3;stop-opacity:1"
         offset="0" />
      <stop
         id="stop3740"
         style="stop-color:#ff0084;stop-opacity:1"
         offset="1" />
    </linearGradient>
    <linearGradient
       y2="40"
       x2="48"
       y1="40"
       x1="16"
       gradientTransform="matrix(0,0.67382812,-0.67382812,0,32.224624,1003.9203)"
       gradientUnits="userSpaceOnUse"
       id="linearGradient4069"
       xlink:href="#linearGradient3744"
       inkscape:collect="always" />
    <linearGradient
       inkscape:collect="always"
       xlink:href="#linearGradient839"
       id="linearGradient845"
       x1="25.766008"
       y1="-1052.6803"
       x2="25.766008"
       y2="-1004.4883"
       gradientUnits="userSpaceOnUse" />
  </defs>
  <sodipodi:namedview
     id="base"
     pagecolor="#ffffff"
     bordercolor="#666666"
     borderopacity="1.0"
     inkscape:pageopacity="0.0"
     inkscape:pageshadow="2"
     inkscape:zoom="6.2873535"
     inkscape:cx="7.9418179"
     inkscape:cy="30.082933"
     inkscape:document-units="px"
     inkscape:current-layer="layer1"
     showgrid="false"
     inkscape:window-width="1366"
     inkscape:window-height="717"
     inkscape:window-x="0"
     inkscape:window-y="28"
     inkscape:window-maximized="1">
    <inkscape:grid
       type="xygrid"
       id="grid3850" />
  </sodipodi:namedview>
  <metadata
     id="metadata7">
    <rdf:RDF>
      <cc:Work
         rdf:about="">
        <dc:format>image/svg+xml</dc:format>
        <dc:type
           rdf:resource="http://purl.org/dc/dcmitype/StillImage" />
        <dc:title />
      </cc:Work>
    </rdf:RDF>
  </metadata>
  <g
     inkscape:label="Capa 1"
     inkscape:groupmode="layer"
     id="layer1"
     transform="translate(0,-1004.3622)">
    <rect
       style="fill:url(#linearGradient845);fill-opacity:1;stroke:none"
       id="rect2991-1"
       width="48"
       height="48"
       x="-1.2211304e-07"
       y="-1052.3622"
       ry="1.9445436"
       transform="scale(1,-1)" />
    <path
       inkscape:connector-curvature="0"
       style="fill:#000000;fill-opacity:1;stroke:none"
       d="m -2.7e-6,1049.3622 0,1.0625 c 0,1.0773 0.860223,1.9375 1.9374999,1.9375 l 44.1250008,0 c 1.077277,0 1.937505,-0.8602 1.937505,-1.9375 l 0,-1.0625 c 0,1.0773 -0.860228,1.9375 -1.937505,1.9375 l -44.1250008,0 C 0.8602203,1051.2997 -2.7e-6,1050.4395 -2.7e-6,1049.3622 Z"
       id="rect846" />
    <path
       inkscape:connector-curvature="0"
       style="fill:#ffffff;fill-opacity:0.5372549;stroke:none"
       d="m 2.5312472,1005.0185 c -0.917088,0 -1.6711469,0.6395 -1.8437499,1.5 0.3356119,-0.2799 0.7745119,-0.4375 1.2499999,-0.4375 l 44.1250008,0 c 0.475488,0 0.914388,0.1576 1.250005,0.4375 -0.172608,-0.8605 -0.926667,-1.5 -1.843755,-1.5 L 2.5312472,1005.0185 Z"
       id="path7515" />
    <path
       inkscape:connector-curvature="0"
       style="fill:#000000;fill-opacity:0.39215686;stroke:none"
       d="m 1.9374972,1004.3622 c -1.0772769,0 -1.9374999,0.8602 -1.9374999,1.9375 l 0,43.0625 c 0,0.7934 0.480024,1.449 1.1562499,1.75 -0.3093419,-0.3333 -0.4999999,-0.7824 -0.4999999,-1.2812 l 0,-42.9375 c 0,-1.0482 0.8268989,-1.875 1.8749999,-1.875 l 42.9375008,0 c 1.048101,0 1.875005,0.8268 1.875005,1.875 l 0,42.9375 c 0,0.4988 -0.190663,0.9479 -0.500005,1.2812 0.676225,-0.301 1.156255,-0.9566 1.156255,-1.75 l 0,-43.0625 c 0,-1.0773 -0.860228,-1.9375 -1.937505,-1.9375 L 1.9374972,1004.3622 Z"
       id="rect4280-0" />
    <g
       id="g872"
       transform="matrix(0.69565218,0,0,0.69565218,11.855712,314.98287)">
      <path
         d="m 5.2714994,1036.264 a 10.78125,10.78125 0 1 1 0,-21.5624 A 10.78125,10.78125 0 0 1 5.2714994,1036.264 Z"
         id="path3732"
         style="color:#000000;fill:url(#linearGradient4069);fill-opacity:1;fill-rule:nonzero;stroke:none;stroke-width:1;marker:none;visibility:visible;display:inline;overflow:visible;enable-background:accumulate"
         inkscape:connector-curvature="0" />
      <path
         d="m 29.708999,1036.264 a 10.78125,10.78125 0 1 1 0,-21.5624 A 10.78125,10.78125 0 0 1 29.708999,1036.264 Z"
         id="path3734"
         style="color:#000000;fill:url(#linearGradient3742);fill-opacity:1;fill-rule:nonzero;stroke:none;stroke-width:1;marker:none;visibility:visible;display:inline;overflow:visible;enable-background:accumulate"
         inkscape:connector-curvature="0" />
    </g>
  </g>
</svg>
