<?xml version="1.0" encoding="UTF-8" standalone="no"?>
<!-- Created with Inkscape (http://www.inkscape.org/) -->

<svg
   xmlns:dc="http://purl.org/dc/elements/1.1/"
   xmlns:cc="http://creativecommons.org/ns#"
   xmlns:rdf="http://www.w3.org/1999/02/22-rdf-syntax-ns#"
   xmlns:svg="http://www.w3.org/2000/svg"
   xmlns="http://www.w3.org/2000/svg"
   xmlns:xlink="http://www.w3.org/1999/xlink"
   xmlns:sodipodi="http://sodipodi.sourceforge.net/DTD/sodipodi-0.dtd"
   xmlns:inkscape="http://www.inkscape.org/namespaces/inkscape"
   width="48"
   height="48"
   id="svg2"
   version="1.1"
   inkscape:version="0.48+devel r12123"
   sodipodi:docname="dia.svg">
  <defs
     id="defs4">
    <linearGradient
       inkscape:collect="always"
       id="linearGradient861">
      <stop
         style="stop-color:#eeeeee;stop-opacity:1"
         offset="0"
         id="stop863" />
      <stop
         style="stop-color:#f6f6f6;stop-opacity:1"
         offset="1"
         id="stop865" />
    </linearGradient>
    <linearGradient
       inkscape:collect="always"
       xlink:href="#linearGradient861"
       id="linearGradient867"
       x1="25.809397"
       y1="-1052.8926"
       x2="25.809397"
       y2="-1004.1022"
       gradientUnits="userSpaceOnUse" />
  </defs>
  <sodipodi:namedview
     id="base"
     pagecolor="#ffffff"
     bordercolor="#666666"
     borderopacity="1.0"
     inkscape:pageopacity="0.0"
     inkscape:pageshadow="2"
     inkscape:zoom="5.6568543"
     inkscape:cx="-23.938199"
     inkscape:cy="23.993699"
     inkscape:document-units="px"
     inkscape:current-layer="layer1"
     showgrid="false"
     inkscape:window-width="1366"
     inkscape:window-height="718"
     inkscape:window-x="0"
     inkscape:window-y="28"
     inkscape:window-maximized="1">
    <inkscape:grid
       type="xygrid"
       id="grid3850" />
  </sodipodi:namedview>
  <metadata
     id="metadata7">
    <rdf:RDF>
      <cc:Work
         rdf:about="">
        <dc:format>image/svg+xml</dc:format>
        <dc:type
           rdf:resource="http://purl.org/dc/dcmitype/StillImage" />
        <dc:title />
      </cc:Work>
    </rdf:RDF>
  </metadata>
  <g
     inkscape:label="Capa 1"
     inkscape:groupmode="layer"
     id="layer1"
     transform="translate(0,-1004.3622)">
    <rect
       style="fill:url(#linearGradient867);fill-opacity:1;stroke:none"
       id="rect2991-1"
       width="48"
       height="48"
       x="-2.1634064e-06"
       y="-1052.3622"
       ry="1.9445436"
       transform="scale(1,-1)" />
    <path
       inkscape:connector-curvature="0"
       style="fill:#000000;fill-opacity:1;stroke:none"
       d="m 1.3634064e-6,1049.3622 0,1.0625 c 0,1.0773 0.8601999965936,1.9375 1.9375000365936,1.9375 l 44.1250006,0 c 1.0773,0 1.9375,-0.8602 1.9375,-1.9375 l 0,-1.0625 c 0,1.0773 -0.8602,1.9375 -1.9375,1.9375 l -44.1250006,0 C 0.86020136,1051.2997 1.3634064e-6,1050.4395 1.3634064e-6,1049.3622 Z"
       id="rect846" />
    <path
       inkscape:connector-curvature="0"
       style="fill:#ffffff;fill-opacity:0.5372549;stroke:none"
       d="m 2.5312014,1005.0185 c -0.917,0 -1.67110004,0.6395 -1.84370004,1.5 0.33560004,-0.2799 0.77450004,-0.4375 1.25000004,-0.4375 l 44.1250006,0 c 0.4755,0 0.9144,0.1576 1.25,0.4375 -0.1726,-0.8605 -0.9267,-1.5 -1.8437,-1.5 L 2.5312014,1005.0185 Z"
       id="path7515" />
    <path
       inkscape:connector-curvature="0"
       style="fill:#000000;fill-opacity:0.39215686;stroke:none"
       d="m 1.9375014,1004.3622 c -1.07730004,0 -1.9375000365936,0.8602 -1.9375000365936,1.9375 l 0,43.0625 c 0,0.7934 0.4799999965936,1.449 1.1562000365936,1.75 -0.30930004,-0.3333 -0.50000004,-0.7824 -0.50000004,-1.2812 l 0,-42.9375 c 0,-1.0482 0.82690004,-1.875 1.87500004,-1.875 l 42.9376006,0 c 1.0481,0 1.875,0.8268 1.875,1.875 l 0,42.9375 c 0,0.4988 -0.1907,0.9479 -0.5,1.2812 0.6762,-0.301 1.1562,-0.9566 1.1562,-1.75 l 0,-43.0625 c 0,-1.0773 -0.8602,-1.9375 -1.9375,-1.9375 L 1.9375014,1004.3622 Z"
       id="rect4280-7" />
    <rect
       style="fill:none;stroke:none"
       id="rect1526"
       width="48"
       height="48"
       x="-2.1634064e-06"
       y="1004.3622"
       ry="0" />
    <g
       id="g881"
       transform="matrix(0.8460814,0,0,0.8460814,4.1823108,158.2878)">
      <rect
         ry="0"
         y="1009.4471"
         x="8.8388338"
         height="11.136931"
         width="29.168154"
         id="rect869"
         style="fill:#b3b3b3;fill-opacity:1;stroke:none" />
      <rect
         style="fill:#ffffff;fill-opacity:1;stroke:none"
         id="rect871"
         width="28.726212"
         height="10.606602"
         x="9.0598049"
         y="1009.7123"
         ry="0" />
    </g>
    <rect
       ry="0"
       y="1023.6545"
       x="11.660684"
       height="9.4227505"
       width="24.678633"
       id="rect873"
       style="fill:#9bce41;fill-opacity:1;stroke:none" />
    <rect
       style="fill:#eeffd2;fill-opacity:1;stroke:none"
       id="rect875"
       width="24.304712"
       height="8.9740486"
       x="11.847643"
       y="1023.8788"
       ry="0" />
    <path
       style="fill:#9bce41;fill-opacity:1;stroke:none"
       d="m 11.665719,1034.9495 0,9.4127 24.668562,0 0,-9.4127 -10.840418,0 -0.343721,0.5817 -1.136922,2.0095 -1.163362,-2.0095 -0.34372,-0.5817 L 11.665719,1034.9495 Z"
       id="rect877"
       inkscape:connector-curvature="0" />
    <path
       style="fill:#eeffd2;fill-opacity:1;stroke:none"
       d="m 11.83758,1035.161 0,8.9896 24.32484,0 0,-8.9896 -10.523137,0 -0.23796,0.4231 L 24,1038.0165 22.598678,1035.5841 22.360718,1035.161 11.83758,1035.161 Z"
       id="rect879"
       inkscape:connector-curvature="0" />
    <path
       inkscape:transform-center-y="0.41963294"
       transform="matrix(0.5348482,0,0,0.5348482,11.732307,1017.5297)"
       d="m 22.936775,36.024624 -1.35924,-2.354273 -1.35924,-2.354273 2.71848,0 2.718481,0 L 24.296015,33.670351 Z"
       inkscape:randomized="0"
       inkscape:rounded="0"
       inkscape:flatsided="false"
       sodipodi:arg2="2.6179939"
       sodipodi:arg1="1.5707963"
       sodipodi:r2="1.5695153"
       sodipodi:r1="3.1390309"
       sodipodi:cy="32.885593"
       sodipodi:cx="22.936775"
       sodipodi:sides="3"
       id="path899"
       style="fill:#9bce41;fill-opacity:1;stroke:none"
       sodipodi:type="star" />
    <rect
       style="fill:#9bce41;fill-opacity:1;stroke:none"
       id="rect901"
       width="1.2526275"
       height="1.8602452"
       x="23.373686"
       y="1033.014"
       ry="0" />
    <path
       inkscape:connector-curvature="0"
       id="path950"
       style="font-size:2.87973762px;font-style:normal;font-variant:normal;font-weight:bold;font-stretch:normal;text-align:start;line-height:125%;letter-spacing:0px;word-spacing:0px;writing-mode:lr-tb;text-anchor:start;fill:#000000;fill-opacity:1;stroke:none;font-family:Helvetica;-inkscape-font-specification:Helvetica Bold"
       d="m 17.133287,1017.2377 0.0029,0.8697 -0.431961,0 0,-2.0676 1.471546,0 0,0.3657 -1.039585,0 -0.0029,0.4665 0.909997,0 0,0.3657 L 17.133287,1017.2377 Z" />
    <path
       inkscape:connector-curvature="0"
       id="path952"
       style="font-size:2.87973762px;font-style:normal;font-variant:normal;font-weight:bold;font-stretch:normal;text-align:start;line-height:125%;letter-spacing:0px;word-spacing:0px;writing-mode:lr-tb;text-anchor:start;fill:#000000;fill-opacity:1;stroke:none;font-family:Helvetica;-inkscape-font-specification:Helvetica Bold"
       d="m 18.847676,1016.0398 0,2.0676 -0.403164,0 0,-2.0676 L 18.847676,1016.0398 Z" />
    <path
       inkscape:connector-curvature="0"
       id="path954"
       style="font-size:2.87973762px;font-style:normal;font-variant:normal;font-weight:bold;font-stretch:normal;text-align:start;line-height:125%;letter-spacing:0px;word-spacing:0px;writing-mode:lr-tb;text-anchor:start;fill:#000000;fill-opacity:1;stroke:none;font-family:Helvetica;-inkscape-font-specification:Helvetica Bold"
       d="m 20.708976,1017.3414 q 0,0.3945 -0.236139,0.6105 -0.2131,0.1958 -0.54715,0.1958 -0.334049,0 -0.54715,-0.1958 -0.236138,-0.216 -0.236138,-0.6105 0,-0.3916 0.236138,-0.6105 0.213101,-0.1958 0.54427,-0.1958 0.33117,0 0.547151,0.1958 Q 20.708976,1016.9498 20.708976,1017.3414 z m -0.414682,0 q 0,-0.1901 -0.06623,-0.3052 -0.09215,-0.1613 -0.302373,-0.1613 -0.207341,0 -0.299493,0.1584 -0.06911,0.1209 -0.06911,0.3081 0,0.1901 0.06623,0.3053 0.09215,0.1612 0.302372,0.1612 0.207341,0 0.299493,-0.1584 Q 20.294294,1017.5286 20.294294,1017.3414 Z" />
    <path
       inkscape:connector-curvature="0"
       id="path956"
       style="font-size:2.87973762px;font-style:normal;font-variant:normal;font-weight:bold;font-stretch:normal;text-align:start;line-height:125%;letter-spacing:0px;word-spacing:0px;writing-mode:lr-tb;text-anchor:start;fill:#000000;fill-opacity:1;stroke:none;font-family:Helvetica;-inkscape-font-specification:Helvetica Bold"
       d="m 23.016591,1016.5754 -0.43772,1.532 -0.414683,0 -0.241898,-1.1173 -0.241898,1.1173 -0.414682,0 -0.43484,-1.532 0.429081,0 0.241898,1.1001 0.21886,-1.1001 0.406043,0 0.233258,1.1001 0.241898,-1.1001 L 23.016591,1016.5754 Z" />
    <path
       inkscape:connector-curvature="0"
       id="path958"
       style="font-size:2.87973762px;font-style:normal;font-variant:normal;font-weight:bold;font-stretch:normal;text-align:start;line-height:125%;letter-spacing:0px;word-spacing:0px;writing-mode:lr-tb;text-anchor:start;fill:#000000;fill-opacity:1;stroke:none;font-family:Helvetica;-inkscape-font-specification:Helvetica Bold"
       d="m 25.811916,1016.7165 -0.431961,0 q -0.04032,-0.1497 -0.10943,-0.2246 -0.118069,-0.1325 -0.351328,-0.1325 -0.198702,0 -0.331169,0.1411 -0.178544,0.1901 -0.178544,0.5817 0,0.3053 0.118069,0.4925 0.135348,0.2131 0.394524,0.2131 0.181424,0 0.299493,-0.098 0.118069,-0.1008 0.155506,-0.2909 l 0.43196,0 q -0.06623,0.3542 -0.282214,0.55 -0.233259,0.2131 -0.613384,0.2131 -0.426201,0 -0.679618,-0.2735 -0.267816,-0.288 -0.267816,-0.8121 0,-0.5241 0.276455,-0.8179 0.256297,-0.2735 0.676738,-0.2735 0.420442,0 0.668099,0.2505 Q 25.788878,1016.4401 25.811916,1016.7165 Z" />
    <path
       inkscape:connector-curvature="0"
       id="path960"
       style="font-size:2.87973762px;font-style:normal;font-variant:normal;font-weight:bold;font-stretch:normal;text-align:start;line-height:125%;letter-spacing:0px;word-spacing:0px;writing-mode:lr-tb;text-anchor:start;fill:#000000;fill-opacity:1;stroke:none;font-family:Helvetica;-inkscape-font-specification:Helvetica Bold"
       d="m 27.492693,1017.0477 0.0029,1.0597 -0.403164,0 0,-0.9301 q 0,-0.1296 -0.03456,-0.193 -0.0576,-0.1094 -0.2275,-0.1094 -0.138227,0 -0.227499,0.092 -0.08927,0.092 -0.08927,0.2621 l 0,0.8783 -0.403163,0 0,-2.0676 0.400283,0 0,0.7343 q 0.04896,-0.1008 0.169905,-0.1699 0.120949,-0.069 0.279334,-0.069 0.233259,0 0.383006,0.1353 Q 27.492693,1016.8029 27.492693,1017.0477 Z" />
    <path
       inkscape:connector-curvature="0"
       id="path962"
       style="font-size:2.87973762px;font-style:normal;font-variant:normal;font-weight:bold;font-stretch:normal;text-align:start;line-height:125%;letter-spacing:0px;word-spacing:0px;writing-mode:lr-tb;text-anchor:start;fill:#000000;fill-opacity:1;stroke:none;font-family:Helvetica;-inkscape-font-specification:Helvetica Bold"
       d="m 29.109171,1016.9786 0.0029,0.8293 q 0,0.1267 0.02304,0.1757 0.02304,0.049 0.06623,0.063 l 0,0.06 -0.43484,0 q -0.0288,-0.086 -0.03744,-0.1814 -0.09791,0.1037 -0.178543,0.1469 -0.132468,0.075 -0.316772,0.075 -0.192942,0 -0.31965,-0.1036 -0.146867,-0.121 -0.146867,-0.3427 0,-0.216 0.118069,-0.337 0.120949,-0.1238 0.32829,-0.1526 l 0.359967,-0.055 q 0.08351,-0.012 0.11231,-0.04 0.03168,-0.032 0.03168,-0.081 0,-0.1124 -0.09503,-0.1527 -0.06047,-0.026 -0.172784,-0.026 -0.132468,0 -0.192943,0.072 -0.0432,0.052 -0.05184,0.1411 l -0.388765,0 q 0.0288,-0.3168 0.239019,-0.4435 0.152626,-0.092 0.443479,-0.092 0.230379,0 0.385885,0.078 Q 29.109171,1016.7251 29.109171,1016.9786 z m -0.391645,0.5788 0,-0.1958 q -0.0288,0.023 -0.09215,0.046 -0.06335,0.02 -0.192943,0.04 -0.126708,0.02 -0.181423,0.058 -0.08063,0.055 -0.08063,0.1699 0,0.095 0.06335,0.1439 0.05184,0.04 0.123829,0.04 0.143987,0 0.250537,-0.083 Q 28.717526,1017.6927 28.717526,1017.5574 Z" />
    <path
       inkscape:connector-curvature="0"
       id="path964"
       style="font-size:2.87973762px;font-style:normal;font-variant:normal;font-weight:bold;font-stretch:normal;text-align:start;line-height:125%;letter-spacing:0px;word-spacing:0px;writing-mode:lr-tb;text-anchor:start;fill:#000000;fill-opacity:1;stroke:none;font-family:Helvetica;-inkscape-font-specification:Helvetica Bold"
       d="m 29.470982,1018.1074 -0.0029,-1.532 0.385885,0 0.0029,0.2649 q 0.08351,-0.1526 0.149747,-0.2102 0.10655,-0.095 0.273575,-0.095 l 0.08063,0.01 -0.0029,0.409 q -0.02592,0 -0.05184,0 -0.02304,0 -0.06047,0 -0.213101,0 -0.302373,0.1181 -0.06911,0.089 -0.06911,0.2476 l 0,0.7977 L 29.470982,1018.1074 Z" />
    <path
       inkscape:connector-curvature="0"
       id="path966"
       style="font-size:2.87973762px;font-style:normal;font-variant:normal;font-weight:bold;font-stretch:normal;text-align:start;line-height:125%;letter-spacing:0px;word-spacing:0px;writing-mode:lr-tb;text-anchor:start;fill:#000000;fill-opacity:1;stroke:none;font-family:Helvetica;-inkscape-font-specification:Helvetica Bold"
       d="m 31.045254,1016.1607 -0.0029,0.4147 0.253417,0 0,0.288 -0.250537,0 -0.0029,0.8322 q 0,0.075 0.02592,0.1008 0.0288,0.023 0.143987,0.023 l 0.08351,-0.01 0,0.3052 -0.190062,0.01 -0.05184,0 q -0.244777,0 -0.336929,-0.089 -0.07487,-0.072 -0.07487,-0.2419 l 0,-0.9301 -0.207341,0 -0.0029,-0.288 0.207341,0 0.0029,-0.4147 L 31.045254,1016.1607 Z" />
    <path
       inkscape:connector-curvature="0"
       id="path936"
       style="font-size:3.40361762px;font-style:normal;font-variant:normal;font-weight:bold;font-stretch:normal;text-align:start;line-height:125%;letter-spacing:0px;word-spacing:0px;writing-mode:lr-tb;text-anchor:start;fill:#9bce41;fill-opacity:1;stroke:none;font-family:Helvetica;-inkscape-font-specification:Helvetica Bold"
       d="m 22.735907,1028.6049 0,0.7747 -0.43196,0 0,-0.7804 -0.714175,-1.2872 0.509714,0 0.426201,0.8984 0.411803,-0.8984 0.489555,0 L 22.735907,1028.6049 Z" />
    <path
       inkscape:connector-curvature="0"
       id="path938"
       style="font-size:3.40361762px;font-style:normal;font-variant:normal;font-weight:bold;font-stretch:normal;text-align:start;line-height:125%;letter-spacing:0px;word-spacing:0px;writing-mode:lr-tb;text-anchor:start;fill:#9bce41;fill-opacity:1;stroke:none;font-family:Helvetica;-inkscape-font-specification:Helvetica Bold"
       d="m 24.401206,1028.9304 0.414682,0 q -0.07487,0.2563 -0.276455,0.383 -0.169904,0.1066 -0.397404,0.1066 -0.354207,0 -0.54427,-0.1815 -0.21886,-0.2102 -0.21886,-0.6566 0,-0.262 0.112309,-0.455 0.184304,-0.3196 0.619144,-0.3196 0.290854,0 0.475157,0.1584 0.247657,0.2131 0.247657,0.6854 l -0.0029,0.072 -1.051105,0 q 0.02591,0.2044 0.10943,0.2908 0.08639,0.084 0.253417,0.084 0.08927,0 0.161266,-0.043 Q 24.378168,1029.011 24.401206,1028.9304 z m -0.607625,-0.4695 0.624903,0 q -0.01728,-0.1698 -0.115189,-0.2534 -0.08063,-0.069 -0.195822,-0.069 -0.141108,0 -0.21886,0.084 Q 23.81086,1028.3055 23.793581,1028.4609 Z" />
    <path
       inkscape:connector-curvature="0"
       id="path940"
       style="font-size:3.40361762px;font-style:normal;font-variant:normal;font-weight:bold;font-stretch:normal;text-align:start;line-height:125%;letter-spacing:0px;word-spacing:0px;writing-mode:lr-tb;text-anchor:start;fill:#9bce41;fill-opacity:1;stroke:none;font-family:Helvetica;-inkscape-font-specification:Helvetica Bold"
       d="m 26.364152,1028.3142 -0.394524,0 q -0.01728,-0.098 -0.05759,-0.1383 -0.06335,-0.063 -0.213101,-0.063 -0.146867,0 -0.20734,0.049 -0.0432,0.035 -0.0432,0.1008 0,0.089 0.247657,0.144 0.357088,0.078 0.463638,0.1266 0.250538,0.1182 0.250538,0.3601 0,0.2937 -0.244779,0.429 -0.178543,0.098 -0.4262,0.098 -0.308132,0 -0.498195,-0.1095 -0.239018,-0.1383 -0.239018,-0.4204 l 0.414681,0 q 0,0.1065 0.07488,0.167 0.07775,0.057 0.259175,0.057 0.135348,0 0.204462,-0.057 0.05184,-0.043 0.05184,-0.1008 0,-0.095 -0.244777,-0.1497 -0.365727,-0.08 -0.460758,-0.1239 -0.247657,-0.1151 -0.247657,-0.3628 0,-0.2016 0.129587,-0.3399 0.164146,-0.1727 0.489555,-0.1727 0.290854,0 0.457879,0.089 Q 26.364152,1028.0204 26.364152,1028.3142 Z" />
    <path
       inkscape:connector-curvature="0"
       id="path927"
       style="font-size:3.40361762px;font-style:normal;font-variant:normal;font-weight:bold;font-stretch:normal;text-align:start;line-height:125%;letter-spacing:0px;word-spacing:0px;writing-mode:lr-tb;text-anchor:start;fill:#9bce41;fill-opacity:1;stroke:none;font-family:Helvetica;-inkscape-font-specification:Helvetica Bold"
       d="m 21.449993,1039.9237 0,-0.3485 0.863922,0 0,1.1145 -0.285094,0 -0.04319,-0.2592 q -0.123829,0.144 -0.22174,0.2045 -0.175664,0.1094 -0.423321,0.1094 -0.400284,0 -0.66234,-0.2678 -0.287974,-0.2938 -0.287974,-0.815 0,-0.4608 0.241898,-0.7574 0.273575,-0.3369 0.76889,-0.3369 0.431961,0 0.688258,0.2419 0.21598,0.2045 0.21598,0.455 l -0.431961,0 q 0,-0.089 -0.10943,-0.1987 -0.141107,-0.1411 -0.342689,-0.1411 -0.253417,0 -0.411802,0.1728 -0.181424,0.1987 -0.181424,0.5702 0,0.3888 0.190063,0.5673 0.152626,0.144 0.414682,0.144 0.135348,0 0.250537,-0.069 0.192943,-0.1152 0.250537,-0.3859 L 21.449993,1039.9237 Z" />
    <path
       inkscape:connector-curvature="0"
       id="path929"
       style="font-size:3.40361762px;font-style:normal;font-variant:normal;font-weight:bold;font-stretch:normal;text-align:start;line-height:125%;letter-spacing:0px;word-spacing:0px;writing-mode:lr-tb;text-anchor:start;fill:#9bce41;fill-opacity:1;stroke:none;font-family:Helvetica;-inkscape-font-specification:Helvetica Bold"
       d="m 24.166576,1039.9237 q 0,0.3945 -0.236139,0.6105 -0.213101,0.1958 -0.54715,0.1958 -0.33405,0 -0.54715,-0.1958 -0.236138,-0.216 -0.236138,-0.6105 0,-0.3917 0.236138,-0.6106 0.2131,-0.1958 0.54427,-0.1958 0.33117,0 0.547151,0.1958 Q 24.166576,1039.532 24.166576,1039.9237 z m -0.414682,0 q 0,-0.1901 -0.06623,-0.3053 -0.09215,-0.1613 -0.302372,-0.1613 -0.207342,0 -0.299493,0.1584 -0.06912,0.121 -0.06912,0.3082 0,0.19 0.06623,0.3052 0.09215,0.1613 0.302373,0.1613 0.20734,0 0.299492,-0.1584 Q 23.751894,1040.1108 23.751894,1039.9237 Z" />
    <path
       inkscape:connector-curvature="0"
       id="path931"
       style="font-size:3.40361762px;font-style:normal;font-variant:normal;font-weight:bold;font-stretch:normal;text-align:start;line-height:125%;letter-spacing:0px;word-spacing:0px;writing-mode:lr-tb;text-anchor:start;fill:#9bce41;fill-opacity:1;stroke:none;font-family:Helvetica;-inkscape-font-specification:Helvetica Bold"
       d="m 25.92704,1039.9237 q 0,0.3945 -0.236138,0.6105 -0.2131,0.1958 -0.54715,0.1958 -0.33405,0 -0.54715,-0.1958 -0.236139,-0.216 -0.236139,-0.6105 0,-0.3917 0.236139,-0.6106 0.2131,-0.1958 0.544271,-0.1958 0.331169,0 0.547149,0.1958 Q 25.92704,1039.532 25.92704,1039.9237 z m -0.414682,0 q 0,-0.1901 -0.06623,-0.3053 -0.09215,-0.1613 -0.302373,-0.1613 -0.20734,0 -0.299492,0.1584 -0.06912,0.121 -0.06912,0.3082 0,0.19 0.06623,0.3052 0.09215,0.1613 0.302372,0.1613 0.207342,0 0.299493,-0.1584 Q 25.512358,1040.1108 25.512358,1039.9237 Z" />
    <path
       inkscape:connector-curvature="0"
       id="path933"
       style="font-size:3.40361762px;font-style:normal;font-variant:normal;font-weight:bold;font-stretch:normal;text-align:start;line-height:125%;letter-spacing:0px;word-spacing:0px;writing-mode:lr-tb;text-anchor:start;fill:#9bce41;fill-opacity:1;stroke:none;font-family:Helvetica;-inkscape-font-specification:Helvetica Bold"
       d="m 27.609752,1038.622 0,2.0677 -0.394525,0 0,-0.193 q -0.07199,0.121 -0.198701,0.1814 -0.109431,0.052 -0.250538,0.052 -0.31965,0 -0.492435,-0.2534 -0.152625,-0.2246 -0.152625,-0.5702 0,-0.3801 0.190062,-0.5932 0.172785,-0.1958 0.44348,-0.1958 0.175663,0 0.296612,0.08 0.08351,0.055 0.146867,0.1584 l 0.0058,-0.7344 L 27.609752,1038.622 z m -1.074142,1.3132 q 0,0.1756 0.06623,0.2995 0.08639,0.1641 0.262056,0.1641 0.181424,0 0.276455,-0.1354 0.08351,-0.118 0.08351,-0.3052 0,-0.2131 -0.06912,-0.3369 -0.08639,-0.1555 -0.279333,-0.1555 -0.178545,0 -0.264936,0.144 Q 26.53561,1039.7336 26.53561,1039.9352 Z" />
  </g>
</svg>
