<?xml version="1.0" encoding="UTF-8" standalone="no"?>
<!-- Created with Inkscape (http://www.inkscape.org/) -->

<svg
   xmlns:dc="http://purl.org/dc/elements/1.1/"
   xmlns:cc="http://creativecommons.org/ns#"
   xmlns:rdf="http://www.w3.org/1999/02/22-rdf-syntax-ns#"
   xmlns:svg="http://www.w3.org/2000/svg"
   xmlns="http://www.w3.org/2000/svg"
   xmlns:xlink="http://www.w3.org/1999/xlink"
   xmlns:sodipodi="http://sodipodi.sourceforge.net/DTD/sodipodi-0.dtd"
   xmlns:inkscape="http://www.inkscape.org/namespaces/inkscape"
   width="48"
   height="48"
   id="svg2"
   version="1.1"
   inkscape:version="0.48+devel r12149"
   sodipodi:docname="pidgin.svg">
  <defs
     id="defs4">
    <linearGradient
       inkscape:collect="always"
       id="linearGradient873">
      <stop
         style="stop-color:#f9f9f9;stop-opacity:1;"
         offset="0"
         id="stop875" />
      <stop
         style="stop-color:#f9f9f9;stop-opacity:0;"
         offset="1"
         id="stop877" />
    </linearGradient>
    <linearGradient
       id="linearGradient857">
      <stop
         style="stop-color:#f9f9f9;stop-opacity:1"
         offset="0"
         id="stop859" />
      <stop
         style="stop-color:#ffffff;stop-opacity:1"
         offset="1"
         id="stop861" />
    </linearGradient>
    <linearGradient
       id="linearGradient850">
      <stop
         id="stop852"
         offset="0"
         style="stop-color:#9b2b85;stop-opacity:1" />
      <stop
         id="stop854"
         offset="1"
         style="stop-color:#e39dd6;stop-opacity:1" />
    </linearGradient>
    <linearGradient
       inkscape:collect="always"
       xlink:href="#linearGradient857"
       id="linearGradient835"
       x1="78.707253"
       y1="-1050.9479"
       x2="78.707253"
       y2="-1003.9253"
       gradientUnits="userSpaceOnUse"
       gradientTransform="translate(-52.367529,-0.57196943)" />
    <linearGradient
       inkscape:collect="always"
       xlink:href="#linearGradient850"
       id="linearGradient855"
       x1="27.411427"
       y1="1009.9774"
       x2="27.411427"
       y2="1044.8024"
       gradientUnits="userSpaceOnUse" />
    <linearGradient
       inkscape:collect="always"
       xlink:href="#linearGradient873"
       id="linearGradient879"
       x1="25.63262"
       y1="3.8058684"
       x2="25.63262"
       y2="25.019072"
       gradientUnits="userSpaceOnUse" />
    <linearGradient
       inkscape:collect="always"
       xlink:href="#linearGradient850"
       id="linearGradient911"
       gradientUnits="userSpaceOnUse"
       x1="27.411427"
       y1="1009.9774"
       x2="27.411427"
       y2="1044.8024"
       gradientTransform="matrix(-0.48947509,0,0,0.48947509,35.741587,525.4862)" />
    <linearGradient
       inkscape:collect="always"
       xlink:href="#linearGradient873"
       id="linearGradient913"
       gradientUnits="userSpaceOnUse"
       x1="25.63262"
       y1="3.8058684"
       x2="25.63262"
       y2="25.019072" />
  </defs>
  <sodipodi:namedview
     id="base"
     pagecolor="#ffffff"
     bordercolor="#666666"
     borderopacity="1.0"
     inkscape:pageopacity="0.0"
     inkscape:pageshadow="2"
     inkscape:zoom="2.8284271"
     inkscape:cx="-35.693429"
     inkscape:cy="4.6760115"
     inkscape:document-units="px"
     inkscape:current-layer="layer1"
     showgrid="false"
     inkscape:window-width="1366"
     inkscape:window-height="714"
     inkscape:window-x="0"
     inkscape:window-y="30"
     inkscape:window-maximized="1">
    <inkscape:grid
       type="xygrid"
       id="grid3850" />
  </sodipodi:namedview>
  <metadata
     id="metadata7">
    <rdf:RDF>
      <cc:Work
         rdf:about="">
        <dc:format>image/svg+xml</dc:format>
        <dc:type
           rdf:resource="http://purl.org/dc/dcmitype/StillImage" />
        <dc:title />
      </cc:Work>
    </rdf:RDF>
  </metadata>
  <g
     inkscape:label="Capa 1"
     inkscape:groupmode="layer"
     id="layer1"
     transform="translate(0,-1004.3622)">
    <rect
       style="fill:url(#linearGradient835);fill-opacity:1;stroke:none"
       id="rect2991-1"
       width="48"
       height="48"
       x="-1.4959717e-06"
       y="-1052.3622"
       ry="1.9445436"
       transform="scale(1,-1)" />
    <path
       inkscape:connector-curvature="0"
       style="fill:#000000;fill-opacity:1;stroke:none"
       d="m 4.9597168e-7,1049.3623 0,1.0625 c 0,1.0773 0.86022200402832,1.9375 1.93749900402832,1.9375 l 44.1250005,0 c 1.077277,0 1.937501,-0.8602 1.937501,-1.9375 l 0,-1.0625 c 0,1.0773 -0.860224,1.9375 -1.937501,1.9375 l -44.1250005,0 C 0.8602225,1051.2998 4.9597168e-7,1050.4396 4.9597168e-7,1049.3623 Z"
       id="rect846" />
    <path
       inkscape:connector-curvature="0"
       style="fill:#ffffff;fill-opacity:0.5372549;stroke:none"
       d="m 2.5312495,1005.0186 c -0.917088,0 -1.671146,0.6395 -1.843749,1.5 0.335612,-0.2799 0.774512,-0.4375 1.249999,-0.4375 l 44.1250005,0 c 0.475488,0 0.914388,0.1576 1.25,0.4375 -0.172603,-0.8605 -0.926662,-1.5 -1.84375,-1.5 L 2.5312495,1005.0186 Z"
       id="path7515" />
    <path
       inkscape:connector-curvature="0"
       style="fill:#000000;fill-opacity:0.39215686;stroke:none"
       d="m 1.9374995,1004.3623 c -1.077276,0 -1.93749900402832,0.8602 -1.93749900402832,1.9375 l 0,43.0625 c 0,0.7934 0.48002300402832,1.449 1.15624900402832,1.75 -0.309341,-0.3333 -0.499999,-0.7824 -0.499999,-1.2812 l 0,-42.9375 c 0,-1.0482 0.826898,-1.875 1.874999,-1.875 l 42.9375005,0 c 1.048101,0 1.875,0.8268 1.875,1.875 l 0,42.9375 c 0,0.4988 -0.190658,0.9479 -0.5,1.2812 0.676226,-0.301 1.156251,-0.9566 1.156251,-1.75 l 0,-43.0625 c 0,-1.0773 -0.860224,-1.9375 -1.937501,-1.9375 L 1.9374995,1004.3623 Z"
       id="rect4280-1" />
    <g
       id="g955"
       transform="matrix(0.90910511,0,0,0.90910511,2.1850286,92.615151)">
      <path
         inkscape:connector-curvature="0"
         id="path831"
         d="m 24,1011.7119 c -9.734018,0 -17.6249997,5.9726 -17.6249997,13.3255 0,3.7236 2.0257674,7.0907 5.2874997,9.5068 0.110717,0.7233 0.160227,1.4613 0.160227,2.2166 8e-6,3.0538 -0.929495,5.8914 -2.5102268,8.2517 4.1286438,-0.9598 7.6019608,-3.6351 9.6136368,-7.237 1.609711,0.3658 3.30642,0.5877 5.073863,0.5877 9.734018,0 17.625,-5.9729 17.625,-13.3258 C 41.625,1017.6846 33.734018,1011.7119 24,1011.7119 Z"
         style="fill:url(#linearGradient855);fill-opacity:1;stroke:none" />
      <path
         transform="translate(0,1003.3015)"
         d="m 39.244425,19.362177 c 0,5.662602 -6.925242,10.253048 -15.467961,10.253048 -8.542718,0 -15.4679599,-4.590446 -15.4679599,-10.253048 0,-5.662602 6.9252419,-10.253048 15.4679599,-10.253048 C 32.319183,9.109129 39.244425,13.699575 39.244425,19.362177 Z"
         sodipodi:ry="10.253048"
         sodipodi:rx="15.46796"
         sodipodi:cy="19.362177"
         sodipodi:cx="23.776464"
         id="path863"
         style="fill:url(#linearGradient879);fill-opacity:1;stroke:none"
         sodipodi:type="arc" />
      <path
         id="path881"
         transform="translate(0,1004.3622)"
         d="m 24,7.34375 c -2.340867,0 -4.581419,0.3730518 -6.625,1 1.593195,-0.3581621 3.284388,-0.5625 5.03125,-0.5625 9.734018,0 17.625,5.9597 17.625,13.3125 0,5.603734 -4.573201,10.407344 -11.0625,12.375 C 36.286759,31.846923 41.625,26.738832 41.625,20.6875 41.625,13.3347 33.734018,7.34375 24,7.34375 z m -6.65625,26.5 c -1.74414,3.122877 -4.583921,5.534332 -8,6.75 C 9.330947,40.61306 9.32539,40.637 9.3125,40.65625 13.171614,39.759108 16.444482,37.344281 18.5,34.09375 18.107764,34.024109 17.726374,33.9307 17.34375,33.84375 Z"
         style="fill:#ffffff;fill-opacity:0.22267205;stroke:none"
         inkscape:connector-curvature="0" />
      <path
         inkscape:connector-curvature="0"
         id="path886"
         d="m 6.3984375,1025.3741 c -0.00318,0.1041 -0.03125,0.2078 -0.03125,0.3125 0,3.7236 2.0195177,7.0839 5.2812505,9.5 0.09535,0.6229 0.144221,1.2599 0.15625,1.9063 0.0022,-0.1055 0,-0.2066 0,-0.3125 0,-0.7553 -0.04553,-1.4955 -0.15625,-2.2188 C 8.4795681,1032.2143 6.5098805,1028.9715 6.3984375,1025.3741 z m 35.1874995,0 c -0.225257,7.2052 -8.001511,13 -17.59375,13 -1.767443,0 -3.452789,-0.2279 -5.0625,-0.5937 -1.935085,3.4647 -5.23392,6.0771 -9.1562495,7.125 -0.1495377,0.2546 -0.3049102,0.5053 -0.46875,0.75 4.1286445,-0.9598 7.6133235,-3.6481 9.6249995,-7.25 1.609711,0.3658 3.295057,0.5937 5.0625,0.5937 9.734018,0 17.625,-5.9596 17.625,-13.3125 C 41.617187,1025.5819 41.589118,1025.4781 41.585937,1025.3741 Z"
         style="fill:#000000;fill-opacity:0.23570694;stroke:none" />
      <path
         style="fill:#000000;fill-opacity:0.11626581;stroke:none"
         d="m 6.3984375,1025.9991 c -0.00318,0.1041 -0.03125,0.2078 -0.03125,0.3125 0,3.7236 2.0195177,7.0839 5.2812505,9.5 0.09535,0.6229 0.144221,1.2599 0.15625,1.9063 0.0022,-0.1055 0,-0.2066 0,-0.3125 0,-0.7553 -0.04553,-1.4955 -0.15625,-2.2188 C 8.4795681,1032.8393 6.5098805,1029.5965 6.3984375,1025.9991 z m 35.1874995,0 c -0.225257,7.2052 -8.001511,13 -17.59375,13 -1.767443,0 -3.452789,-0.2279 -5.0625,-0.5937 -1.935085,3.4647 -5.23392,6.0771 -9.1562495,7.125 -0.1495377,0.2546 -0.3049102,0.5053 -0.46875,0.75 4.1286445,-0.9598 7.6133235,-3.6481 9.6249995,-7.25 1.609711,0.3658 3.295057,0.5937 5.0625,0.5937 9.734018,0 17.625,-5.9596 17.625,-13.3125 C 41.617187,1026.2069 41.589118,1026.1031 41.585937,1025.9991 Z"
         id="path891"
         inkscape:connector-curvature="0" />
      <path
         inkscape:connector-curvature="0"
         id="path893"
         d="m 6.3984375,1026.6241 c -0.00318,0.1041 -0.03125,0.2078 -0.03125,0.3125 0,3.7236 2.0195177,7.0839 5.2812505,9.5 0.09535,0.6229 0.144221,1.2599 0.15625,1.9063 0.0022,-0.1055 0,-0.2066 0,-0.3125 0,-0.7553 -0.04553,-1.4955 -0.15625,-2.2188 C 8.4795681,1033.4643 6.5098805,1030.2215 6.3984375,1026.6241 z m 35.1874995,0 c -0.225257,7.2052 -8.001511,13 -17.59375,13 -1.767443,0 -3.452789,-0.2279 -5.0625,-0.5937 -1.935085,3.4647 -5.23392,6.0771 -9.1562495,7.125 -0.1495377,0.2546 -0.3049102,0.5053 -0.46875,0.75 4.1286445,-0.9598 7.6133235,-3.6481 9.6249995,-7.25 1.609711,0.3658 3.295057,0.5937 5.0625,0.5937 9.734018,0 17.625,-5.9596 17.625,-13.3125 C 41.617187,1026.8319 41.589118,1026.7281 41.585937,1026.6241 Z"
         style="fill:#000000;fill-opacity:0.05882353;stroke:none" />
      <g
         transform="translate(8.999968,7.0921)"
         id="g915">
        <path
           inkscape:connector-curvature="0"
           id="path899"
           d="m 23.994186,1020.6939 c 4.764559,0 8.626998,2.9234 8.626998,6.5224 0,1.8228 -0.991562,3.4709 -2.588099,4.6535 -0.0542,0.3539 -0.07842,0.7153 -0.07842,1.0849 -5e-6,1.495 0.454964,2.8836 1.228692,4.0389 -2.020868,-0.4694 -3.72097,-1.7792 -4.705635,-3.5421 -0.787913,0.179 -1.61841,0.2875 -2.483529,0.2875 -4.764559,0 -8.626999,-2.9237 -8.626999,-6.5227 C 15.367187,1023.6174 19.229626,1020.6939 23.994186,1020.6939 Z"
           style="fill:url(#linearGradient911);fill-opacity:1;stroke:none" />
        <path
           transform="matrix(-0.48947509,0,0,0.48947509,35.741587,1016.5774)"
           d="m 39.244425,19.362177 c 0,5.662602 -6.925242,10.253048 -15.467961,10.253048 -8.542718,0 -15.4679599,-4.590446 -15.4679599,-10.253048 0,-5.662602 6.9252419,-10.253048 15.4679599,-10.253048 C 32.319183,9.109129 39.244425,13.699575 39.244425,19.362177 Z"
           sodipodi:ry="10.253048"
           sodipodi:rx="15.46796"
           sodipodi:cy="19.362177"
           sodipodi:cx="23.776464"
           id="path901"
           style="fill:url(#linearGradient913);fill-opacity:1;stroke:none"
           sodipodi:type="arc" />
        <path
           id="path903"
           d="m 23.994186,1020.691 c 1.145796,0 2.242491,0.1828 3.242773,0.4894 -0.77983,-0.1753 -1.607627,-0.2754 -2.462673,-0.2754 -4.764557,0 -8.626997,2.9175 -8.626997,6.5166 0,2.7426 2.238469,5.0937 5.414817,6.057 -3.581983,-0.7939 -6.194919,-3.294 -6.194919,-6.2563 C 15.367187,1023.6234 19.229626,1020.691 23.994186,1020.691 z m 3.258068,12.971 c 0.853714,1.5288 2.243716,2.7091 3.915801,3.304 0.0064,0.01 0.009,0.022 0.01532,0.031 -1.888941,-0.4391 -3.49093,-1.6211 -4.497054,-3.2122 C 26.878289,1033.7504 27.064969,1033.7047 27.252254,1033.662 Z"
           style="fill:#ffffff;fill-opacity:0.22267205;stroke:none"
           inkscape:connector-curvature="0" />
        <path
           inkscape:connector-curvature="0"
           id="path905"
           d="m 32.609712,1027.3811 c 0.0014,0.05 0.01532,0.1017 0.01532,0.1532 0,1.8227 -0.988505,3.4674 -2.585039,4.6499 -0.04666,0.3051 -0.0706,0.6166 -0.07649,0.9333 -0.0013,-0.052 0,-0.1012 0,-0.1531 0,-0.3698 0.02231,-0.7322 0.07649,-1.086 C 31.59105,1030.7293 32.555163,1029.1422 32.609712,1027.3811 z m -17.223405,0 c 0.110258,3.5269 3.916542,6.3634 8.611703,6.3634 0.865119,0 1.690054,-0.1118 2.477967,-0.2904 0.947177,1.6955 2.561874,2.9743 4.481757,3.4872 0.0732,0.1248 0.149246,0.2473 0.229441,0.3673 -2.020868,-0.47 -3.726532,-1.7858 -4.711198,-3.549 -0.787913,0.1794 -1.612848,0.2907 -2.477967,0.2907 -4.764558,0 -8.626997,-2.917 -8.626997,-6.516 C 15.371013,1027.4828 15.384751,1027.432 15.386307,1027.3811 Z"
           style="fill:#000000;fill-opacity:0.23570694;stroke:none" />
        <path
           style="fill:#000000;fill-opacity:0.11626581;stroke:none"
           d="m 32.609712,1027.6873 c 0.0014,0.05 0.01532,0.1018 0.01532,0.1528 0,1.8225 -0.988505,3.4674 -2.585039,4.6501 -0.04666,0.3047 -0.0706,0.6168 -0.07649,0.9329 -0.0013,-0.052 0,-0.1011 0,-0.1528 0,-0.3696 0.02231,-0.7318 0.07649,-1.0861 C 31.59105,1031.0354 32.555163,1029.448 32.609712,1027.6873 z m -17.223405,0 c 0.110258,3.5267 3.916542,6.363 8.611703,6.363 0.865119,0 1.690054,-0.1113 2.477967,-0.2907 0.947177,1.6962 2.561874,2.9748 4.481757,3.4877 0.0732,0.1245 0.149246,0.2474 0.229441,0.367 -2.020868,-0.4697 -3.726532,-1.7856 -4.711198,-3.5485 -0.787913,0.1788 -1.612848,0.2906 -2.477967,0.2906 -4.764558,0 -8.626997,-2.9172 -8.626997,-6.5163 C 15.371013,1027.7891 15.384751,1027.7383 15.386307,1027.6873 Z"
           id="path907"
           inkscape:connector-curvature="0" />
        <path
           inkscape:connector-curvature="0"
           id="path909"
           d="m 32.609712,1027.993 c 0.0014,0.05 0.01532,0.1016 0.01532,0.1532 0,1.8226 -0.988505,3.4673 -2.585039,4.6499 -0.04666,0.305 -0.0706,0.6165 -0.07649,0.9332 -0.0013,-0.052 0,-0.1011 0,-0.153 0,-0.3699 0.02231,-0.7323 0.07649,-1.0861 C 31.59105,1031.3412 32.555163,1029.754 32.609712,1027.993 z m -17.223405,0 c 0.110258,3.5269 3.916542,6.3634 8.611703,6.3634 0.865119,0 1.690054,-0.1118 2.477967,-0.2906 0.947177,1.6956 2.561874,2.9744 4.481757,3.4874 0.0732,0.1247 0.149246,0.2472 0.229441,0.3672 -2.020868,-0.4699 -3.726532,-1.7857 -4.711198,-3.5489 -0.787913,0.1793 -1.612848,0.2906 -2.477967,0.2906 -4.764558,0 -8.626997,-2.9169 -8.626997,-6.5159 C 15.371013,1028.0946 15.384751,1028.0439 15.386307,1027.993 Z"
           style="fill:#000000;fill-opacity:0.05882353;stroke:none" />
      </g>
      <g
         transform="matrix(0.20360045,0,0,0.20360045,22.335685,823.16829)"
         id="g950">
        <path
           style="fill:#a02d89;fill-opacity:1;stroke:none"
           d="m 32.983645,1033.6122 c -2.729946,0 -5.014895,2.2849 -5.014895,5.0149 0,2.7299 2.284949,4.8629 5.014895,4.8629 2.729946,0 4.862928,-2.133 4.862928,-4.8629 C 37.846573,1035.8971 35.713591,1033.6122 32.983645,1033.6122 z m 19.451713,0 c -2.729946,0 -5.014895,2.2849 -5.014895,5.0149 0,2.7299 2.284949,4.8629 5.014895,4.8629 2.729946,0 4.862929,-2.133 4.862929,-4.8629 C 57.298287,1035.8971 55.165304,1033.6122 52.435358,1033.6122 z m 19.451714,0 c -2.729946,0 -5.014895,2.2849 -5.014895,5.0149 0,2.7299 2.284949,4.8629 5.014895,4.8629 2.729945,0 4.862928,-2.133 4.862928,-4.8629 C 76.75,1035.8971 74.617017,1033.6122 71.887072,1033.6122 Z"
           id="path923"
           inkscape:connector-curvature="0" />
        <path
           inkscape:connector-curvature="0"
           style="fill:#000000;fill-opacity:0.26315792;stroke:none"
           d="m 32.96875,29.25 c -2.729946,0 -5,2.27 -5,5 0,0.25034 0.02549,0.510884 0.0625,0.75 0.380576,-2.376099 2.469074,-4.25 4.9375,-4.25 2.46369,0 4.4502,1.880409 4.8125,4.25 0.03616,-0.243946 0.0625,-0.49432 0.0625,-0.75 C 37.84375,31.52 35.698696,29.25 32.96875,29.25 z m 19.46875,0 c -2.729946,0 -5.03125,2.27 -5.03125,5 0,0.251553 0.05639,0.509785 0.09375,0.75 0.381786,-2.37476 2.470049,-4.25 4.9375,-4.25 2.463514,0 4.418744,1.880652 4.78125,4.25 0.03623,-0.24417 0.09375,-0.494072 0.09375,-0.75 C 57.3125,31.52 55.167446,29.25 52.4375,29.25 z m 19.4375,0 c -2.729946,0 -5,2.27 -5,5 0,0.25034 0.02549,0.510884 0.0625,0.75 0.380576,-2.376099 2.469074,-4.25 4.9375,-4.25 2.463689,0 4.4502,1.880409 4.8125,4.25 C 76.723659,34.756054 76.75,34.50568 76.75,34.25 76.75,31.52 74.604945,29.25 71.875,29.25 Z"
           transform="translate(0,1004.3622)"
           id="path940" />
        <path
           style="fill:#ffffff;fill-opacity:0.54251009;stroke:none"
           d="m 28,1038.8935 c -0.0056,0.095 -0.03125,0.185 -0.03125,0.2813 0,2.7299 2.270054,4.875 5,4.875 2.729946,0 4.875,-2.1451 4.875,-4.875 0,-0.096 -0.02603,-0.1863 -0.03125,-0.2813 -0.14309,2.5914 -2.209934,4.5938 -4.84375,4.5938 C 30.335069,1043.4873 28.153257,1041.4847 28,1038.8935 z m 19.4375,0 c -0.0056,0.095 -0.03125,0.185 -0.03125,0.2813 0,2.7299 2.301304,4.875 5.03125,4.875 2.729946,0 4.875,-2.1451 4.875,-4.875 0,-0.096 -0.02606,-0.1866 -0.03125,-0.2813 -0.142639,2.5919 -2.209615,4.5938 -4.84375,4.5938 C 49.803819,1043.4873 47.590757,1041.4847 47.4375,1038.8935 z m 19.46875,0 c -0.0056,0.095 -0.03125,0.185 -0.03125,0.2813 0,2.7299 2.270054,4.875 5,4.875 2.729945,0 4.875,-2.1451 4.875,-4.875 0,-0.096 -0.02603,-0.1863 -0.03125,-0.2813 -0.14309,2.5914 -2.209934,4.5938 -4.84375,4.5938 C 69.241319,1043.4873 67.059507,1041.4847 66.90625,1038.8935 Z"
           id="path945"
           inkscape:connector-curvature="0" />
      </g>
    </g>
  </g>
</svg>
