<?xml version="1.0" encoding="UTF-8" standalone="no"?>
<!-- Created with Inkscape (http://www.inkscape.org/) -->

<svg
   xmlns:dc="http://purl.org/dc/elements/1.1/"
   xmlns:cc="http://creativecommons.org/ns#"
   xmlns:rdf="http://www.w3.org/1999/02/22-rdf-syntax-ns#"
   xmlns:svg="http://www.w3.org/2000/svg"
   xmlns="http://www.w3.org/2000/svg"
   xmlns:xlink="http://www.w3.org/1999/xlink"
   xmlns:sodipodi="http://sodipodi.sourceforge.net/DTD/sodipodi-0.dtd"
   xmlns:inkscape="http://www.inkscape.org/namespaces/inkscape"
   width="48"
   height="48.000004"
   id="svg4340"
   version="1.1"
   inkscape:version="0.48+devel r12149"
   sodipodi:docname="lastfm.svg">
  <defs
     id="defs4342">
    <linearGradient
       inkscape:collect="always"
       id="linearGradient1408">
      <stop
         style="stop-color:#b6122a;stop-opacity:1"
         offset="0"
         id="stop1410" />
      <stop
         style="stop-color:#f53350;stop-opacity:1"
         offset="1"
         id="stop1412" />
    </linearGradient>
    <linearGradient
       inkscape:collect="always"
       xlink:href="#linearGradient1408"
       id="linearGradient1414"
       x1="258.66409"
       y1="-602.0835"
       x2="258.66409"
       y2="-554.09424"
       gradientUnits="userSpaceOnUse" />
  </defs>
  <sodipodi:namedview
     id="base"
     pagecolor="#ffffff"
     bordercolor="#666666"
     borderopacity="1.0"
     inkscape:pageopacity="0.0"
     inkscape:pageshadow="2"
     inkscape:zoom="3.959798"
     inkscape:cx="-1.9098452"
     inkscape:cy="36.071733"
     inkscape:document-units="px"
     inkscape:current-layer="layer1"
     showgrid="false"
     width="0px"
     height="0px"
     fit-margin-top="0"
     fit-margin-left="0"
     fit-margin-right="0"
     fit-margin-bottom="0"
     inkscape:window-width="1366"
     inkscape:window-height="716"
     inkscape:window-x="0"
     inkscape:window-y="28"
     inkscape:window-maximized="1" />
  <metadata
     id="metadata4345">
    <rdf:RDF>
      <cc:Work
         rdf:about="">
        <dc:format>image/svg+xml</dc:format>
        <dc:type
           rdf:resource="http://purl.org/dc/dcmitype/StillImage" />
        <cc:license
           rdf:resource="" />
        <dc:title />
      </cc:Work>
    </rdf:RDF>
  </metadata>
  <g
     inkscape:label="Capa 1"
     inkscape:groupmode="layer"
     id="layer1"
     transform="translate(-224.57143,-554.07648)">
    <rect
       style="fill:url(#linearGradient1414);fill-opacity:1;stroke:none"
       id="rect2991-1-7"
       width="48"
       height="48"
       x="224.57144"
       y="-602.07648"
       ry="1.9445436"
       transform="scale(1,-1)" />
    <path
       inkscape:connector-curvature="0"
       style="fill:#000000;fill-opacity:1;stroke:none"
       d="m 224.57143,599.0765 0,1.0625 c 0,1.0773 0.86022,1.9375 1.9375,1.9375 l 44.125,0 c 1.07728,0 1.9375,-0.8602 1.9375,-1.9375 l 0,-1.0625 c 0,1.0773 -0.86022,1.9375 -1.9375,1.9375 l -44.125,0 C 225.43165,601.014 224.57143,600.1538 224.57143,599.0765 Z"
       id="rect846" />
    <path
       inkscape:connector-curvature="0"
       style="fill:#ffffff;fill-opacity:0.5372549;stroke:none"
       d="m 227.10268,554.7328 c -0.91709,0 -1.67115,0.6395 -1.84375,1.5 0.33561,-0.2799 0.77451,-0.4375 1.25,-0.4375 l 44.125,0 c 0.47549,0 0.91439,0.1576 1.25,0.4375 -0.1726,-0.8605 -0.92666,-1.5 -1.84375,-1.5 L 227.10268,554.7328 Z"
       id="path7515" />
    <path
       inkscape:connector-curvature="0"
       style="fill:#000000;fill-opacity:0.39215686;stroke:none"
       d="m 226.50893,554.0765 c -1.07728,0 -1.9375,0.8602 -1.9375,1.9375 l 0,43.0625 c 0,0.7934 0.48002,1.449 1.15625,1.75 -0.30934,-0.3333 -0.5,-0.7824 -0.5,-1.2812 l 0,-42.9375 c 0,-1.0482 0.8269,-1.875 1.875,-1.875 l 42.9375,0 c 1.0481,0 1.875,0.8268 1.875,1.875 l 0,42.9375 c 0,0.4988 -0.19066,0.9479 -0.5,1.2812 0.67623,-0.301 1.15625,-0.9566 1.15625,-1.75 l 0,-43.0625 c 0,-1.0773 -0.86022,-1.9375 -1.9375,-1.9375 L 226.50893,554.0765 Z"
       id="rect4280-9" />
    <g
       id="g1426"
       transform="translate(1.3583389e-4,0.09245778)">
      <path
         style="fill:#ffffff"
         id="path3278"
         inkscape:connector-curvature="0"
         d="m 238.21062,590.54922 c -0.83674,-0.11233 -2.33612,-0.5855 -3.33195,-1.05149 -6.49375,-3.03856 -9.1511,-10.67781 -5.95262,-17.11231 3.65857,-7.35999 13.63005,-9.2365 19.62924,-3.6939 1.73264,1.60075 2.50979,2.97107 5.11519,9.01938 2.72536,6.32681 3.23205,7.33273 4.11718,8.17447 0.94347,0.89713 1.81831,1.19562 3.50382,1.19562 2.75785,0 4.72563,-1.65622 4.72563,-3.97754 0,-1.95613 -0.71042,-2.58971 -4.31917,-3.85202 -5.49513,-1.92213 -7.27553,-3.67565 -7.2795,-7.16948 -0.002,-1.87429 0.48891,-3.13271 1.72161,-4.41182 1.77442,-1.84125 4.83701,-2.46433 7.54618,-1.53529 1.14776,0.39357 3.5649,2.48334 3.5649,3.08196 0,0.28977 -1.39815,1.17797 -2.17563,1.38211 -0.40749,0.10696 -0.76152,-0.0286 -1.23407,-0.47159 -0.96053,-0.90108 -1.61056,-1.17912 -2.75658,-1.17912 -1.98183,0 -3.21245,1.16489 -3.21245,3.04092 0,1.87108 0.78644,2.50672 4.68933,3.79024 5.38802,1.7719 6.96949,3.36923 7.00844,7.07895 0.0336,3.19848 -1.43966,5.50607 -4.3858,6.86926 -1.34087,0.62047 -1.79128,0.69921 -3.98007,0.69582 -3.11287,-0.004 -4.51459,-0.56124 -6.26197,-2.48545 -1.17376,-1.29248 -2.36835,-3.71942 -6.1871,-12.56929 -1.58309,-3.66869 -3.61986,-5.46053 -7.00765,-6.16491 -1.70987,-0.35551 -4.10144,-0.0287 -5.66585,0.77473 -1.50883,0.77469 -3.21696,2.52448 -4.01843,4.11633 -0.65602,1.30301 -0.72287,1.66566 -0.72287,3.9198 0,2.15393 0.0847,2.66546 0.63836,3.85016 0.83872,1.795 2.4876,3.46581 4.30831,4.3655 1.31203,0.64831 1.72284,0.72656 3.81504,0.72656 2.01617,0 2.53856,-0.0917 3.72826,-0.65293 1.37089,-0.64697 3.21408,-2.24876 3.96494,-3.44558 l 0.38955,-0.62097 0.77139,1.71103 c 0.42429,0.94105 0.77142,1.84049 0.77142,1.99881 0,0.46746 -1.73853,2.0283 -3.33194,2.99135 C 243.97316,590.40272 241.19321,590.94978 238.21062,590.54922 Z" />
      <path
         inkscape:connector-curvature="0"
         id="path1416"
         d="m 240.66496,564.59032 c -4.70753,-0.15654 -9.4632,2.30614 -11.7498,6.90613 -1.03049,2.07306 -1.43012,4.27713 -1.31248,6.40615 0.0359,-1.83087 0.43294,-3.69927 1.31248,-5.46866 3.65857,-7.35999 13.62548,-9.23004 19.62467,-3.68744 1.73264,1.60075 2.51951,2.95154 5.12491,8.99985 2.72536,6.32681 3.2398,7.34562 4.12493,8.18736 0.94347,0.89713 1.81444,1.18748 3.49995,1.18748 2.75785,0 4.71867,-1.64736 4.71867,-3.96868 0,-0.23343 -0.007,-0.45716 -0.0312,-0.65624 -0.15519,2.16983 -2.04448,3.68744 -4.68742,3.68744 -1.68551,0 -2.55648,-0.29036 -3.49995,-1.18748 -0.88513,-0.84175 -1.39957,-1.86055 -4.12493,-8.18737 -2.6054,-6.0483 -3.39227,-7.39909 -5.12491,-8.99985 C 246.29014,565.73054 243.48948,564.68425 240.66496,564.59032 z m 19.90592,0.24999 c -1.71462,0.11756 -3.32842,0.78669 -4.43743,1.93747 -1.2327,1.27911 -1.72072,2.53189 -1.71872,4.40618 1.1e-4,0.0985 0.0283,0.18545 0.0312,0.28124 0.10948,-1.51398 0.60886,-2.63071 1.68747,-3.74993 1.77442,-1.84125 4.8532,-2.46027 7.56237,-1.53123 0.89525,0.30699 2.52831,1.6416 3.2187,2.49996 0.18529,-0.15303 0.34375,-0.29112 0.34375,-0.37499 0,-0.59862 -2.41469,-2.66889 -3.56245,-3.06245 C 262.67988,564.89816 261.59965,564.76979 260.57088,564.84031 z m -2.65621,6.71864 c -0.0193,0.15598 -0.0312,0.30109 -0.0312,0.46874 0,1.87108 0.78453,2.49767 4.68742,3.78119 5.17442,1.70165 6.81036,3.28214 6.96864,6.68739 0.008,-0.17785 0.0332,-0.3475 0.0312,-0.53124 -0.0389,-3.70973 -1.61187,-5.32173 -6.99989,-7.09363 C 259.01673,573.70259 258.05962,573.07544 257.91467,571.55895 z m -26.56205,6.90614 c 0.0139,1.77385 0.11317,2.34229 0.62499,3.43744 0.83872,1.795 2.49171,3.47524 4.31242,4.37493 1.31203,0.6483 1.72024,0.71873 3.81244,0.71873 2.01617,0 2.52899,-0.095 3.71869,-0.65624 1.37089,-0.64696 3.21782,-2.24062 3.96868,-3.43744 l 0.40624,-0.62499 0.74999,1.71872 c 0.2595,0.57554 0.48498,1.0531 0.62499,1.43748 0.1066,-0.15013 0.15625,-0.28872 0.15625,-0.37499 0,-0.15832 -0.35695,-1.05893 -0.78124,-1.99997 l -0.74999,-1.71872 -0.40624,0.62499 c -0.75086,1.19682 -2.59779,2.79047 -3.96868,3.43744 -1.1897,0.56124 -1.70252,0.65624 -3.71869,0.65624 -2.0922,0 -2.50041,-0.0704 -3.81244,-0.71874 -1.82071,-0.89968 -3.4737,-2.57993 -4.31242,-4.37493 C 231.56236,580.07652 231.4024,579.57318 231.35262,578.46509 Z"
         style="fill:#000000;fill-opacity:0.33529412" />
      <path
         inkscape:connector-curvature="0"
         id="path1421"
         d="m 261.07087,568.94337 c -1.98183,0 -3.18745,1.15516 -3.18745,3.0312 0,0.13387 0.0223,0.25308 0.0312,0.37499 0.14896,-1.66392 1.3044,-2.68746 3.1562,-2.68746 1.14602,0 1.82067,0.28641 2.7812,1.18748 0.47255,0.443 0.81124,0.5757 1.21873,0.46875 0.77748,-0.20414 2.18747,-1.11647 2.18747,-1.40623 0,-0.0998 -0.10153,-0.23839 -0.21875,-0.40624 -0.41223,0.38287 -1.36942,0.93638 -1.96872,1.09373 -0.40749,0.10696 -0.74618,-0.0258 -1.21873,-0.46874 C 262.89154,569.22977 262.21689,568.94337 261.07087,568.94337 z m -21.46839,0.12499 c -1.2556,0.0796 -2.55344,0.4041 -3.53119,0.90624 -1.50883,0.77469 -3.19847,2.53308 -3.99994,4.12493 -0.57775,1.14754 -0.69813,1.62678 -0.71873,3.24995 0.0496,-1.11405 0.22671,-1.55395 0.71873,-2.53121 0.80147,-1.59186 2.49111,-3.35025 3.99994,-4.12493 1.56441,-0.80343 3.97753,-1.13675 5.6874,-0.78124 3.38779,0.70438 5.4168,2.48746 6.99989,6.15615 3.81875,8.84987 5.01363,11.30106 6.18739,12.59354 1.74738,1.9242 3.13703,2.4647 6.2499,2.4687 2.18879,0.003 2.65906,-0.067 3.99993,-0.68748 2.94614,-1.36319 4.40853,-3.67641 4.37493,-6.87489 -0.001,-0.11332 -0.0271,-0.20305 -0.0312,-0.31249 -0.0945,2.98283 -1.52709,5.1654 -4.34368,6.46864 -1.34087,0.62047 -1.81114,0.69088 -3.99993,0.68749 -3.11287,-0.004 -4.50252,-0.5445 -6.2499,-2.46871 -1.17376,-1.29248 -2.36864,-3.74367 -6.18739,-12.59354 -1.58309,-3.66869 -3.6121,-5.45177 -6.99989,-6.15615 C 241.11749,569.06004 240.35584,569.02062 239.60248,569.06836 z m 14.8435,3.2812 c -0.007,0.14817 -0.0314,0.28112 -0.0312,0.43749 0.004,3.49383 1.786,5.26524 7.28113,7.18738 3.28042,1.14747 4.14721,1.76961 4.28118,3.3437 0.004,-0.0741 0.0312,-0.14326 0.0312,-0.21875 0,-1.95613 -0.70368,-2.58138 -4.31243,-3.84369 C 256.3557,577.38776 254.54871,575.65095 254.44598,572.34956 z m -26.87455,6.40614 c -0.0223,4.75894 2.66541,9.2629 7.31238,11.43731 0.99583,0.46599 2.4757,0.95014 3.31244,1.06248 2.98259,0.40056 5.76476,-0.12954 8.18736,-1.59372 1.59341,-0.96305 3.3437,-2.53249 3.3437,-2.99995 0,-0.0448 -0.0756,-0.25869 -0.125,-0.40624 -0.43044,0.65136 -1.88329,1.88033 -3.2187,2.68745 -2.4226,1.46419 -5.20477,1.99428 -8.18736,1.59372 -0.83674,-0.11233 -2.31661,-0.56524 -3.31244,-1.03123 C 230.47084,587.44061 227.8072,583.24801 227.57143,578.7557 Z"
         style="fill:#ffffff;fill-opacity:0.2" />
    </g>
  </g>
</svg>
