<?xml version="1.0" encoding="UTF-8" standalone="no"?>
<!-- Created with Inkscape (http://www.inkscape.org/) -->

<svg
   xmlns:dc="http://purl.org/dc/elements/1.1/"
   xmlns:cc="http://creativecommons.org/ns#"
   xmlns:rdf="http://www.w3.org/1999/02/22-rdf-syntax-ns#"
   xmlns:svg="http://www.w3.org/2000/svg"
   xmlns="http://www.w3.org/2000/svg"
   xmlns:xlink="http://www.w3.org/1999/xlink"
   xmlns:sodipodi="http://sodipodi.sourceforge.net/DTD/sodipodi-0.dtd"
   xmlns:inkscape="http://www.inkscape.org/namespaces/inkscape"
   width="48"
   height="48"
   id="svg2"
   version="1.1"
   inkscape:version="0.48+devel r12068"
   sodipodi:docname="libreoffice-calc.svg">
  <defs
     id="defs4">
    <linearGradient
       id="linearGradient4748"
       inkscape:collect="always">
      <stop
         id="stop4750"
         offset="0"
         style="stop-color:#89e704;stop-opacity:1" />
      <stop
         id="stop4752"
         offset="1"
         style="stop-color:#19a003;stop-opacity:1" />
    </linearGradient>
    <linearGradient
       gradientTransform="matrix(0.80813804,0,0,0.80813804,3.130729,1007.2408)"
       inkscape:collect="always"
       xlink:href="#linearGradient4748"
       id="linearGradient4573"
       x1="19.734877"
       y1="20.913715"
       x2="19.734877"
       y2="33.109589"
       gradientUnits="userSpaceOnUse" />
  </defs>
  <sodipodi:namedview
     id="base"
     pagecolor="#ffffff"
     bordercolor="#666666"
     borderopacity="1.0"
     inkscape:pageopacity="0.0"
     inkscape:pageshadow="2"
     inkscape:zoom="11.208333"
     inkscape:cx="24"
     inkscape:cy="24"
     inkscape:document-units="px"
     inkscape:current-layer="layer1"
     showgrid="false"
     inkscape:window-width="1366"
     inkscape:window-height="718"
     inkscape:window-x="0"
     inkscape:window-y="28"
     inkscape:window-maximized="1">
    <inkscape:grid
       type="xygrid"
       id="grid3850" />
  </sodipodi:namedview>
  <metadata
     id="metadata7">
    <rdf:RDF>
      <cc:Work
         rdf:about="">
        <dc:format>image/svg+xml</dc:format>
        <dc:type
           rdf:resource="http://purl.org/dc/dcmitype/StillImage" />
        <dc:title />
      </cc:Work>
    </rdf:RDF>
  </metadata>
  <g
     inkscape:label="Capa 1"
     inkscape:groupmode="layer"
     id="layer1"
     transform="translate(0,-1004.3622)">
    <rect
       style="fill:#ffffff;fill-opacity:1;stroke:none"
       id="rect2991-1"
       width="48"
       height="48"
       x="9.657505e-08"
       y="-1052.3622"
       ry="1.9445436"
       transform="scale(1,-1)" />
    <path
       inkscape:connector-curvature="0"
       style="fill:#000000;fill-opacity:1;stroke:none"
       d="m -9e-8,1049.3622 0,1.0625 c 0,1.0773 0.860223,1.9375 1.93749999,1.9375 l 44.1250001,0 c 1.077277,0 1.9375,-0.8602 1.9375,-1.9375 l 0,-1.0625 c 0,1.0773 -0.860223,1.9375 -1.9375,1.9375 l -44.1250001,0 C 0.86022291,1051.2997 -9e-8,1050.4395 -9e-8,1049.3622 Z"
       id="rect846" />
    <path
       inkscape:connector-curvature="0"
       style="fill:#ffffff;fill-opacity:0.5372549;stroke:none"
       d="m 2.5312499,1005.0185 c -0.917089,0 -1.67114699,0.6395 -1.84374999,1.5 0.33561199,-0.2799 0.77451199,-0.4375 1.24999999,-0.4375 l 44.1250001,0 c 0.475488,0 0.914388,0.1576 1.25,0.4375 -0.172603,-0.8605 -0.926662,-1.5 -1.84375,-1.5 L 2.5312499,1005.0185 Z"
       id="path7515" />
    <path
       inkscape:connector-curvature="0"
       style="fill:#000000;fill-opacity:0.39215686;stroke:none"
       d="m 1.9374999,1004.3622 c -1.07727699,0 -1.93749999,0.8602 -1.93749999,1.9375 l 0,43.0625 c 0,0.7934 0.480023,1.449 1.15624999,1.75 -0.30934199,-0.3333 -0.49999999,-0.7824 -0.49999999,-1.2812 l 0,-42.9375 c 0,-1.0482 0.82689899,-1.875 1.87499999,-1.875 l 42.9375001,0 c 1.048101,0 1.875,0.8268 1.875,1.875 l 0,42.9375 c 0,0.4988 -0.190658,0.9479 -0.5,1.2812 0.676226,-0.301 1.15625,-0.9566 1.15625,-1.75 l 0,-43.0625 c 0,-1.0773 -0.860223,-1.9375 -1.9375,-1.9375 L 1.9374999,1004.3622 Z"
       id="rect4280" />
    <path
       sodipodi:nodetypes="ccccccccccc"
       inkscape:connector-curvature="0"
       id="path1324"
       d="m 11.83423,1012.3622 0,32 24.33154,0 -1.1e-5,-23.9375 -8.054952,0 L 28.110799,1012.3622 z m 18.458954,0 5.872584,5.8802 L 36.165743,1012.3622 Z"
       style="color:#000000;fill:#000000;fill-opacity:1;fill-rule:nonzero;stroke:none;stroke-width:1.39999998;marker:none;visibility:visible;display:inline;overflow:visible;enable-background:accumulate" />
    <g
       id="g827">
      <path
         id="path5343"
         d="m 7.7647446,1034.0198 4.0659444,3.8386 0,-3.8386 L 7.7647446,1034.0198 Z"
         style="fill:#187503;fill-opacity:1;stroke:none"
         inkscape:connector-curvature="0" />
      <rect
         ry="0"
         y="1023.611"
         x="7.7647448"
         height="10.412836"
         width="16.848322"
         id="rect4565"
         style="color:#000000;fill:url(#linearGradient4573);fill-opacity:1;fill-rule:nonzero;stroke:none;stroke-width:0.2;marker:none;visibility:visible;display:inline;overflow:visible;enable-background:accumulate" />
      <path
         inkscape:connector-curvature="0"
         id="rect5380"
         d="m 24.613067,1023.611 0,10.4047 -0.277798,0 0,-10.0764 -16.5668285,0 0,-0.3283 L 24.613067,1023.611 Z"
         style="color:#000000;fill:#ffffff;fill-opacity:0.48235294;fill-rule:nonzero;stroke:none;stroke-width:0.2;marker:none;visibility:visible;display:inline;overflow:visible;enable-background:accumulate" />
      <path
         id="path5393"
         d="m 7.7647446,1034.0198 4.0659444,3.8386 0,-0.5808 -3.0557718,-2.879 3.0557718,0 0,-0.3788 L 7.7647446,1034.0198 Z"
         style="fill:#000000;fill-opacity:0.17647059;stroke:none"
         inkscape:connector-curvature="0" />
      <path
         id="path837"
         transform="translate(0,1004.3622)"
         d="M 12.59375 22.40625 C 12.370768 22.40625 12.172526 22.423533 12 22.5 C 11.829101 22.574867 11.691406 22.680633 11.59375 22.8125 C 11.497723 22.9443 11.457033 23.075483 11.4375 23.21875 C 11.417967 23.36035 11.40625 23.5902 11.40625 23.875 L 11.40625 25.03125 C 11.40625 25.418583 11.436527 25.712517 11.5 25.90625 C 11.563477 26.098317 11.679687 26.23475 11.875 26.34375 C 12.070312 26.452817 12.323893 26.5 12.625 26.5 C 12.914713 26.5 13.17806 26.4411 13.375 26.3125 C 13.573567 26.183967 13.693033 26.045933 13.75 25.875 C 13.808593 25.704133 13.84375 25.408533 13.84375 25 L 13.84375 24.84375 L 12.8125 24.84375 L 12.8125 25.34375 C 12.8125 25.56015 12.805663 25.691333 12.78125 25.75 C 12.758464 25.808667 12.701498 25.84375 12.625 25.84375 C 12.545248 25.84375 12.491537 25.808667 12.46875 25.75 C 12.445963 25.6914 12.4375 25.567067 12.4375 25.375 L 12.4375 23.53125 C 12.4375 23.330783 12.445963 23.21625 12.46875 23.15625 C 12.491537 23.09625 12.540365 23.0625 12.625 23.0625 C 12.699869 23.0625 12.76009 23.074333 12.78125 23.125 C 12.804037 23.1738 12.8125 23.2998 12.8125 23.5 L 12.8125 24.1875 L 13.84375 24.1875 L 13.84375 23.8125 C 13.84375 23.443033 13.811847 23.174133 13.75 23 C 13.688151 22.8242 13.540691 22.6797 13.34375 22.5625 C 13.14681 22.445367 12.896484 22.40625 12.59375 22.40625 z M 19.75 22.40625 C 19.527018 22.40625 19.328776 22.423533 19.15625 22.5 C 18.985351 22.574867 18.847656 22.680633 18.75 22.8125 C 18.653973 22.9443 18.582033 23.075483 18.5625 23.21875 C 18.542967 23.36035 18.53125 23.5902 18.53125 23.875 L 18.53125 25.03125 C 18.53125 25.418583 18.56152 25.712517 18.625 25.90625 C 18.688477 26.098317 18.835938 26.23475 19.03125 26.34375 C 19.226563 26.452817 19.480143 26.5 19.78125 26.5 C 20.070964 26.5 20.30306 26.4411 20.5 26.3125 C 20.698567 26.183967 20.818033 26.045933 20.875 25.875 C 20.933593 25.704133 20.96875 25.408533 20.96875 25 L 20.96875 24.84375 L 19.9375 24.84375 L 19.9375 25.34375 C 19.9375 25.56015 19.930663 25.691333 19.90625 25.75 C 19.883463 25.808667 19.826497 25.84375 19.75 25.84375 C 19.670248 25.84375 19.616537 25.808667 19.59375 25.75 C 19.570963 25.6914 19.5625 25.567067 19.5625 25.375 L 19.5625 23.53125 C 19.5625 23.330783 19.570963 23.21625 19.59375 23.15625 C 19.616536 23.09625 19.696614 23.0625 19.78125 23.0625 C 19.856119 23.0625 19.88509 23.074333 19.90625 23.125 C 19.929037 23.1738 19.9375 23.2998 19.9375 23.5 L 19.9375 24.1875 L 20.96875 24.1875 L 20.96875 23.8125 C 20.96875 23.443033 20.936847 23.174133 20.875 23 C 20.813151 22.8242 20.69694 22.6797 20.5 22.5625 C 20.30306 22.445367 20.052734 22.40625 19.75 22.40625 z M 14.5 22.46875 L 13.96875 26.4375 L 15.03125 26.4375 L 15.09375 25.71875 L 15.46875 25.71875 L 15.53125 26.4375 L 16.5625 26.4375 L 15.96875 22.46875 L 14.5 22.46875 z M 16.75 22.46875 L 16.75 26.4375 L 18.40625 26.4375 L 18.40625 25.625 L 17.78125 25.625 L 17.78125 22.46875 L 16.75 22.46875 z M 15.28125 23.375 C 15.33333 24.032533 15.385413 24.58365 15.4375 25.03125 L 15.09375 25.03125 C 15.119791 24.681317 15.177083 24.1302 15.28125 23.375 z "
         style="font-size:5px;font-style:normal;font-variant:normal;font-weight:bold;font-stretch:normal;line-height:125%;letter-spacing:0px;word-spacing:0px;fill:#ffffff;fill-opacity:1;stroke:none;font-family:Impact;-inkscape-font-specification:Impact Bold" />
      <path
         inkscape:connector-curvature="0"
         id="path851"
         d="m 12.625,1027.4269 c -0.08464,0 -0.13346,0.034 -0.15625,0.094 -0.02275,0.06 -0.03125,0.1745 -0.03125,0.375 l 0,0.2188 c 0,-0.2005 0.0085,-0.315 0.03125,-0.375 0.02279,-0.06 0.07161,-0.094 0.15625,-0.094 0.07487,0 0.13509,0.012 0.15625,0.062 0.02279,0.049 0.03125,0.1748 0.03125,0.375 l 0,-0.2187 c 0,-0.2002 -0.0085,-0.326 -0.03125,-0.375 C 12.76009,1027.4394 12.69987,1027.4269 12.625,1027.4269 z m 7.15625,0 c -0.08464,0 -0.16471,0.034 -0.1875,0.094 -0.02275,0.06 -0.03125,0.1745 -0.03125,0.375 l 0,0.2188 c 0,-0.2005 0.0085,-0.315 0.03125,-0.375 0.02279,-0.06 0.102864,-0.094 0.1875,-0.094 0.07487,0 0.10384,0.012 0.125,0.062 0.02279,0.049 0.03125,0.1748 0.03125,0.375 l 0,-0.2187 c 0,-0.2002 -0.0085,-0.326 -0.03125,-0.375 C 19.88509,1027.4394 19.85612,1027.4269 19.78125,1027.4269 z m -4.5,0.3125 c -0.104167,0.7552 -0.161459,1.3067 -0.1875,1.6562 l 0.03125,0 c 0.03001,-0.3498 0.06589,-0.7824 0.15625,-1.4375 0.04517,0.5703 0.07982,1.0254 0.125,1.4375 l 0.03125,0 C 15.385413,1028.948 15.33333,1028.397 15.28125,1027.7394 z m -2.46875,0.8125 0,0.2187 1.03125,0 0,-0.2187 L 12.8125,1028.5519 z m 7.125,0 0,0.2187 1.03125,0 0,-0.2187 L 19.9375,1028.5519 z m -8.5,1.3437 c 0.01243,0.2399 0.01693,0.4547 0.0625,0.5938 0.06348,0.192 0.179687,0.3285 0.375,0.4375 0.195312,0.109 0.448893,0.1562 0.75,0.1562 0.289713,0 0.55306,-0.059 0.75,-0.1875 0.198567,-0.1285 0.318033,-0.2665 0.375,-0.4375 0.04132,-0.1205 0.0486,-0.3221 0.0625,-0.5625 -0.01611,0.1463 -0.03321,0.2584 -0.0625,0.3438 -0.05697,0.171 -0.176433,0.309 -0.375,0.4375 -0.19694,0.1285 -0.460287,0.1875 -0.75,0.1875 -0.301107,0 -0.554688,-0.047 -0.75,-0.1563 -0.195313,-0.109 -0.31152,-0.2455 -0.375,-0.4375 C 11.468265,1030.1737 11.453004,1030.0417 11.4375,1029.8956 z m 7.125,0 c 0.01243,0.2399 0.01693,0.4547 0.0625,0.5938 0.06348,0.192 0.210938,0.3285 0.40625,0.4375 0.195313,0.109 0.448893,0.1562 0.75,0.1562 0.289714,0 0.52181,-0.059 0.71875,-0.1875 0.198567,-0.1285 0.318033,-0.2665 0.375,-0.4375 0.04132,-0.1205 0.0486,-0.3221 0.0625,-0.5625 -0.01611,0.1463 -0.0332,0.2584 -0.0625,0.3438 -0.05697,0.171 -0.176433,0.309 -0.375,0.4375 -0.19694,0.1285 -0.429036,0.1875 -0.71875,0.1875 -0.301107,0 -0.554687,-0.047 -0.75,-0.1563 -0.195312,-0.109 -0.34277,-0.2455 -0.40625,-0.4375 C 18.59326,1030.1737 18.578003,1030.0417 18.5625,1029.8956 z m -3.46875,0.1875 -0.0625,0.7188 -1.03125,0 -0.03125,0.2187 1.0625,0 0.0625,-0.7187 0.375,0 0.0625,0.7187 1.03125,0 -0.03125,-0.2187 -1,0 -0.0625,-0.7188 L 15.09375,1030.0831 z m 1.65625,0.7188 0,0.2187 1.65625,0 0,-0.2187 L 16.75,1030.8019 Z"
         style="font-size:5px;font-style:normal;font-variant:normal;font-weight:bold;font-stretch:normal;line-height:125%;letter-spacing:0px;word-spacing:0px;fill:#ffffff;fill-opacity:0.54705882;stroke:none;font-family:Impact;-inkscape-font-specification:Impact Bold" />
      <path
         inkscape:connector-curvature="0"
         id="path857"
         d="m 12.59375,1026.5775 c -0.222982,0 -0.421224,0.017 -0.59375,0.094 -0.170899,0.075 -0.308594,0.1807 -0.40625,0.3125 -0.09603,0.1318 -0.136717,0.263 -0.15625,0.4063 -0.0056,0.04 0.0042,0.1335 0,0.1875 0.01953,-0.1433 0.06022,-0.2745 0.15625,-0.4063 0.09766,-0.1318 0.235351,-0.2375 0.40625,-0.3125 0.172526,-0.077 0.370768,-0.094 0.59375,-0.094 0.302734,0 0.55306,0.039 0.75,0.1562 0.196941,0.1172 0.3444,0.2617 0.40625,0.4375 0.03092,0.087 0.04679,0.2086 0.0625,0.3438 -0.0133,-0.2164 -0.01926,-0.4095 -0.0625,-0.5313 -0.06185,-0.1758 -0.209309,-0.3203 -0.40625,-0.4375 C 13.14681,1026.6166 12.896484,1026.5775 12.59375,1026.5775 z m 7.15625,0 c -0.222982,0 -0.421224,0.017 -0.59375,0.094 -0.170899,0.075 -0.308594,0.1807 -0.40625,0.3125 -0.09603,0.1318 -0.167967,0.263 -0.1875,0.4063 -0.0056,0.04 0.0042,0.1335 0,0.1875 0.01953,-0.1433 0.09147,-0.2745 0.1875,-0.4063 0.09766,-0.1318 0.235351,-0.2375 0.40625,-0.3125 0.172526,-0.077 0.370768,-0.094 0.59375,-0.094 0.302734,0 0.55306,0.039 0.75,0.1562 0.19694,0.1172 0.31315,0.2617 0.375,0.4375 0.03092,0.087 0.04679,0.2086 0.0625,0.3438 -0.0133,-0.2164 -0.01926,-0.4095 -0.0625,-0.5313 -0.06185,-0.1758 -0.17806,-0.3203 -0.375,-0.4375 C 20.30306,1026.6166 20.052734,1026.5775 19.75,1026.5775 z m -5.25,0.062 -0.53125,3.9687 0.03125,0 0.5,-3.7812 1.46875,0 0.5625,3.7812 0.03125,0 -0.59375,-3.9687 L 14.5,1026.64 z m 2.25,0 0,0.1875 1.03125,0 0,-0.1875 L 16.75,1026.64 z m -3.9375,2.375 0,0.1875 1.03125,0 c 6e-5,-0.012 0,-0.019 0,-0.031 l 0,-0.1562 L 12.8125,1029.015 z m 7.125,0 0,0.1875 1.03125,0 c 6e-5,-0.012 0,-0.019 0,-0.031 l 0,-0.1562 L 19.9375,1029.015 z m -4.8125,0.1875 c -0.0038,0.045 -0.02828,0.1477 -0.03125,0.1875 l 0.34375,0 c -0.0059,-0.051 -0.02531,-0.1338 -0.03125,-0.1875 L 15.125,1029.2025 z m 2.65625,0.5937 0,0.1875 0.625,0 0,-0.1875 L 17.78125,1029.7962 z m -5.3125,0.125 c 0.005,0.062 -0.01132,0.1582 0,0.1875 0.02279,0.059 0.0765,0.094 0.15625,0.094 0.0765,0 0.13346,-0.035 0.15625,-0.094 0.01122,-0.027 -0.0048,-0.1288 0,-0.1875 -0.02279,0.059 -0.07975,0.094 -0.15625,0.094 C 12.545248,1030.015 12.491537,1029.9799 12.46875,1029.9212 z m 7.125,0 c 0.005,0.062 -0.01132,0.1582 0,0.1875 0.02279,0.059 0.0765,0.094 0.15625,0.094 0.0765,0 0.13346,-0.035 0.15625,-0.094 0.01122,-0.027 -0.0048,-0.1288 0,-0.1875 -0.02279,0.059 -0.07975,0.094 -0.15625,0.094 C 19.670248,1030.015 19.616537,1029.9799 19.59375,1029.9212 Z"
         style="font-size:5px;font-style:normal;font-variant:normal;font-weight:bold;font-stretch:normal;line-height:125%;letter-spacing:0px;word-spacing:0px;fill:#000000;fill-opacity:0.39215687;stroke:none;font-family:Impact;-inkscape-font-specification:Impact Bold" />
    </g>
  </g>
</svg>
