<?xml version="1.0" encoding="UTF-8" standalone="no"?>
<!-- Created with Inkscape (http://www.inkscape.org/) -->

<svg
   xmlns:dc="http://purl.org/dc/elements/1.1/"
   xmlns:cc="http://creativecommons.org/ns#"
   xmlns:rdf="http://www.w3.org/1999/02/22-rdf-syntax-ns#"
   xmlns:svg="http://www.w3.org/2000/svg"
   xmlns="http://www.w3.org/2000/svg"
   xmlns:xlink="http://www.w3.org/1999/xlink"
   xmlns:sodipodi="http://sodipodi.sourceforge.net/DTD/sodipodi-0.dtd"
   xmlns:inkscape="http://www.inkscape.org/namespaces/inkscape"
   width="48"
   height="48"
   id="svg2"
   version="1.1"
   inkscape:version="0.48+devel r12068"
   sodipodi:docname="libreoffice-main.svg">
  <defs
     id="defs4">
    <linearGradient
       id="linearGradient3795">
      <stop
         style="stop-color:#cfcfcf;stop-opacity:1;"
         offset="0"
         id="stop3797" />
      <stop
         style="stop-color:#a7a7a7;stop-opacity:1;"
         offset="1"
         id="stop3799" />
    </linearGradient>
    <linearGradient
       gradientTransform="matrix(0.80813804,0,0,0.80813804,3.130727,1007.2408)"
       inkscape:collect="always"
       xlink:href="#linearGradient3795"
       id="linearGradient4573"
       x1="19.734877"
       y1="20.913715"
       x2="19.734877"
       y2="33.109589"
       gradientUnits="userSpaceOnUse" />
  </defs>
  <sodipodi:namedview
     id="base"
     pagecolor="#ffffff"
     bordercolor="#666666"
     borderopacity="1.0"
     inkscape:pageopacity="0.0"
     inkscape:pageshadow="2"
     inkscape:zoom="5.6568543"
     inkscape:cx="8.3562821"
     inkscape:cy="33.913517"
     inkscape:document-units="px"
     inkscape:current-layer="layer1"
     showgrid="false"
     inkscape:window-width="1366"
     inkscape:window-height="718"
     inkscape:window-x="0"
     inkscape:window-y="28"
     inkscape:window-maximized="1">
    <inkscape:grid
       type="xygrid"
       id="grid3850" />
  </sodipodi:namedview>
  <metadata
     id="metadata7">
    <rdf:RDF>
      <cc:Work
         rdf:about="">
        <dc:format>image/svg+xml</dc:format>
        <dc:type
           rdf:resource="http://purl.org/dc/dcmitype/StillImage" />
        <dc:title />
      </cc:Work>
    </rdf:RDF>
  </metadata>
  <g
     inkscape:label="Capa 1"
     inkscape:groupmode="layer"
     id="layer1"
     transform="translate(0,-1004.3622)">
    <rect
       style="fill:#ffffff;fill-opacity:1;stroke:none"
       id="rect2991-1"
       width="48"
       height="48"
       x="-2e-06"
       y="-1052.3622"
       ry="1.9445436"
       transform="scale(1,-1)" />
    <path
       inkscape:connector-curvature="0"
       style="fill:#000000;fill-opacity:1;stroke:none"
       d="m -2e-6,1049.3622 0,1.0625 c 0,1.0773 0.860223,1.9375 1.9375,1.9375 l 44.125004,0 c 1.07727,0 1.9375,-0.8602 1.9375,-1.9375 l 0,-1.0625 c 0,1.0773 -0.86023,1.9375 -1.9375,1.9375 l -44.125004,0 C 0.860221,1051.2997 -2e-6,1050.4395 -2e-6,1049.3622 Z"
       id="rect846" />
    <path
       inkscape:connector-curvature="0"
       style="fill:#ffffff;fill-opacity:0.5372549;stroke:none"
       d="m 2.531248,1005.0185 c -0.917089,0 -1.671147,0.6395 -1.84375,1.5 0.335612,-0.2799 0.774512,-0.4375 1.25,-0.4375 l 44.125004,0 c 0.47548,0 0.91438,0.1576 1.25,0.4375 -0.17261,-0.8605 -0.92667,-1.5 -1.84375,-1.5 L 2.531248,1005.0185 Z"
       id="path7515" />
    <path
       inkscape:connector-curvature="0"
       style="fill:#000000;fill-opacity:0.39215686;stroke:none"
       d="m 1.937498,1004.3622 c -1.077277,0 -1.9375,0.8602 -1.9375,1.9375 l 0,43.0625 c 0,0.7934 0.480023,1.449 1.15625,1.75 -0.309342,-0.3333 -0.5,-0.7824 -0.5,-1.2812 l 0,-42.9375 c 0,-1.0482 0.826899,-1.875 1.875,-1.875 l 42.937504,0 c 1.0481,0 1.875,0.8268 1.875,1.875 l 0,42.9375 c 0,0.4988 -0.19066,0.9479 -0.5,1.2812 0.67622,-0.301 1.15625,-0.9566 1.15625,-1.75 l 0,-43.0625 c 0,-1.0773 -0.86023,-1.9375 -1.9375,-1.9375 L 1.937498,1004.3622 Z"
       id="rect4280-7" />
    <path
       sodipodi:nodetypes="ccccccccccc"
       inkscape:connector-curvature="0"
       id="path1324"
       d="m 11.834228,1012.3622 0,32 24.33154,0 -1.1e-5,-23.9375 -8.054952,0 L 28.110797,1012.3622 z m 18.458954,0 5.872584,5.8802 L 36.165741,1012.3622 Z"
       style="color:#000000;fill:#000000;fill-opacity:1;fill-rule:nonzero;stroke:none;stroke-width:1.39999998;marker:none;visibility:visible;display:inline;overflow:visible;enable-background:accumulate" />
    <path
       inkscape:connector-curvature="0"
       style="fill:#3c3c3c;fill-opacity:1;stroke:none"
       d="m 7.764743,1034.0198 4.065944,3.8386 0,-3.8386 L 7.764743,1034.0198 Z"
       id="path5343" />
    <rect
       style="color:#000000;fill:url(#linearGradient4573);fill-opacity:1;fill-rule:nonzero;stroke:none;stroke-width:0.2;marker:none;visibility:visible;display:inline;overflow:visible;enable-background:accumulate"
       id="rect4565"
       width="16.848322"
       height="10.412836"
       x="7.7647419"
       y="1023.6111"
       ry="0" />
    <path
       style="color:#000000;fill:#ffffff;fill-opacity:0.48235294;fill-rule:nonzero;stroke:none;stroke-width:0.2;marker:none;visibility:visible;display:inline;overflow:visible;enable-background:accumulate"
       d="m 24.613065,1023.611 0,10.4047 -0.277798,0 0,-10.0764 -16.566828,0 0,-0.3283 L 24.613065,1023.611 Z"
       id="rect5380"
       inkscape:connector-curvature="0" />
    <path
       inkscape:connector-curvature="0"
       style="fill:#000000;fill-opacity:0.17647059;stroke:none"
       d="m 7.764743,1034.0198 4.065944,3.8386 0,-0.5808 -3.055772,-2.879 3.055772,0 0,-0.3788 L 7.764743,1034.0198 Z"
       id="path5393" />
    <path
       style="font-size:5px;font-style:normal;font-variant:normal;font-weight:normal;font-stretch:normal;line-height:125%;letter-spacing:0px;word-spacing:0px;fill:#ffffff;fill-opacity:1;stroke:none;font-family:Impact;-inkscape-font-specification:Impact"
       d="m 10.999998,1026.7685 c -0.222982,0 -0.426107,0.021 -0.59375,0.094 -0.167643,0.073 -0.275716,0.1758 -0.375,0.3125 -0.09765,0.1367 -0.167967,0.3028 -0.1875,0.4688 -0.01791,0.1644 -0.03125,0.4466 -0.03125,0.8437 l 0,0.6563 c 0,0.4069 0.01172,0.7122 0.03125,0.875 0.01953,0.1628 0.08496,0.2991 0.1875,0.4375 0.102539,0.1383 0.238607,0.2425 0.40625,0.3125 0.169271,0.068 0.350911,0.094 0.5625,0.094 0.222982,0 0.426107,-0.021 0.59375,-0.094 0.167643,-0.073 0.308593,-0.1758 0.40625,-0.3125 0.09928,-0.1368 0.138343,-0.3045 0.15625,-0.4688 0.01953,-0.1661 0.03125,-0.4466 0.03125,-0.8437 l 0,-0.6563 c 0,-0.4069 -0.01172,-0.7123 -0.03125,-0.875 -0.01953,-0.1628 -0.08496,-0.2992 -0.1875,-0.4375 -0.102539,-0.1383 -0.236979,-0.2442 -0.40625,-0.3125 C 11.394855,1026.7922 11.211587,1026.7685 10.999998,1026.7685 z m 8.1875,0 c -0.222982,0 -0.421224,0.017 -0.59375,0.094 -0.170898,0.075 -0.308593,0.1806 -0.40625,0.3125 -0.09603,0.1318 -0.167967,0.263 -0.1875,0.4063 -0.01953,0.1416 -0.03125,0.3714 -0.03125,0.6562 l 0,1.1563 c 0,0.3874 0.03028,0.6813 0.09375,0.875 0.06348,0.192 0.210937,0.3284 0.40625,0.4375 0.195313,0.109 0.448893,0.1562 0.75,0.1562 0.289713,0 0.52181,-0.059 0.71875,-0.1875 0.198567,-0.1286 0.318033,-0.2666 0.375,-0.4375 0.05859,-0.1709 0.09375,-0.4665 0.09375,-0.875 l 0,-0.1562 -1.03125,0 0,0.5 c 0,0.2164 -0.0068,0.3475 -0.03125,0.4062 -0.02279,0.059 -0.07975,0.094 -0.15625,0.094 -0.07975,0 -0.133463,-0.035 -0.15625,-0.094 -0.02279,-0.059 -0.03125,-0.1829 -0.03125,-0.375 l 0,-1.8437 c 0,-0.2004 0.0085,-0.315 0.03125,-0.375 0.02279,-0.06 0.07162,-0.094 0.15625,-0.094 0.07487,0 0.13509,0.012 0.15625,0.062 0.02279,0.049 0.03125,0.1748 0.03125,0.375 l 0,0.6875 1.03125,0 0,-0.375 c 0,-0.3695 -0.0319,-0.6384 -0.09375,-0.8125 -0.06185,-0.1758 -0.17806,-0.3204 -0.375,-0.4375 C 19.740558,1026.8075 19.490233,1026.7685 19.187498,1026.7685 z m -6.625,0.062 0,3.9687 1.03125,0 0,-1.6562 0.65625,0 0,-0.75 -0.65625,0 0,-0.75 0.71875,0 0,-0.8125 L 12.562498,1026.831 z m 2,0 0,3.9687 1.03125,0 0,-1.6562 0.625,0 0,-0.75 -0.625,0 0,-0.75 0.71875,0 0,-0.8125 L 14.562498,1026.831 z m 2,0 0,3.9687 1.03125,0 0,-3.9687 L 16.562498,1026.831 z m 4.21875,0 0,3.9687 1.78125,0 0,-0.8125 -0.75,0 0,-0.8437 0.625,0 0,-0.75 -0.625,0 0,-0.75 0.6875,0 0,-0.8125 L 20.781248,1026.831 z m -9.78125,0.5937 c 0.06347,0 0.105467,0.042 0.125,0.094 0.02116,0.05 0.03125,0.1598 0.03125,0.3437 l 0,1.8125 c 0,0.2326 -0.01172,0.3755 -0.03125,0.4375 -0.01953,0.062 -0.05501,0.094 -0.125,0.094 -0.06836,0 -0.105467,-0.04 -0.125,-0.094 -0.01791,-0.054 -0.03125,-0.1767 -0.03125,-0.4062 l 0,-1.8438 c 0,-0.2035 0.0036,-0.3343 0.03125,-0.375 C 10.904293,1027.4452 10.946285,1027.4247 10.999998,1027.4247 Z"
       id="path863"
       inkscape:connector-curvature="0" />
    <path
       style="font-size:5px;font-style:normal;font-variant:normal;font-weight:normal;font-stretch:normal;line-height:125%;letter-spacing:0px;word-spacing:0px;fill:#000000;fill-opacity:0.39215686;stroke:none;font-family:Impact;-inkscape-font-specification:Impact"
       d="m 10.999998,1026.6122 c -0.222982,0 -0.426107,0.02 -0.59375,0.094 -0.167643,0.073 -0.275716,0.1757 -0.375,0.3125 -0.09765,0.1367 -0.167967,0.3027 -0.1875,0.4687 -0.0033,0.03 0.0029,0.1178 0,0.1563 0.01953,-0.1661 0.08985,-0.3321 0.1875,-0.4688 0.09928,-0.1368 0.207357,-0.2395 0.375,-0.3125 0.167643,-0.073 0.370768,-0.094 0.59375,-0.094 0.211589,0 0.394857,0.024 0.5625,0.094 0.169271,0.068 0.303711,0.1741 0.40625,0.3125 0.10254,0.1383 0.16797,0.2747 0.1875,0.4375 -0.003,-0.038 0.0035,-0.1272 0,-0.1562 -0.01953,-0.1628 -0.08496,-0.2992 -0.1875,-0.4375 -0.102539,-0.1384 -0.236979,-0.2442 -0.40625,-0.3125 C 11.394855,1026.6359 11.211587,1026.6122 10.999998,1026.6122 z m 8.1875,0 c -0.222982,0 -0.421224,0.017 -0.59375,0.094 -0.170898,0.075 -0.308593,0.1806 -0.40625,0.3125 -0.09603,0.1318 -0.167967,0.2629 -0.1875,0.4062 -0.0046,0.034 0.0037,0.1131 0,0.1563 0.01953,-0.1433 0.09147,-0.2745 0.1875,-0.4063 0.09766,-0.1319 0.235352,-0.2375 0.40625,-0.3125 0.172526,-0.077 0.370768,-0.094 0.59375,-0.094 0.302735,0 0.55306,0.04 0.75,0.1562 0.19694,0.1171 0.31315,0.2617 0.375,0.4375 0.03093,0.087 0.04679,0.2086 0.0625,0.3438 -0.01405,-0.2018 -0.02131,-0.3841 -0.0625,-0.5 -0.06185,-0.1758 -0.17806,-0.3204 -0.375,-0.4375 C 19.740558,1026.6512 19.490233,1026.6122 19.187498,1026.6122 z m -6.625,0.062 0,0.1563 1.75,0 0,-0.1563 L 12.562498,1026.6747 z m 2,0 0,0.1563 1.75,0 0,-0.1563 L 14.562498,1026.6747 z m 2,0 0,0.1563 1.03125,0 0,-0.1563 L 16.562498,1026.6747 z m 4.21875,0 0,0.1563 1.71875,0 0,-0.1563 L 20.781248,1026.6747 z m -7.1875,1.5625 0,0.1563 0.65625,0 0,-0.1563 L 13.593748,1028.2372 z m 2,0 0,0.1563 0.625,0 0,-0.1563 L 15.593748,1028.2372 z m 6.21875,0 0,0.1563 0.625,0 0,-0.1563 L 21.812498,1028.2372 z m -2.4375,0.8125 0,0.1563 1.03125,0 0,-0.1563 L 19.374998,1029.0497 z m 2.4375,0.7813 0,0.1562 0.75,0 0,-0.1562 L 21.812498,1029.831 z m -10.9375,0.125 c 0.005,0.043 -0.0068,0.1356 0,0.1562 0.01953,0.054 0.05664,0.094 0.125,0.094 0.06999,0 0.10547,-0.032 0.125,-0.094 0.0069,-0.022 -0.0048,-0.1134 0,-0.1562 -0.01953,0.062 -0.05501,0.094 -0.125,0.094 C 10.931641,1030.0497 10.894531,1030.01 10.874998,1029.956 z m 8.15625,0 c 0.0049,0.047 -0.0094,0.1318 0,0.1562 0.02279,0.059 0.0765,0.094 0.15625,0.094 0.0765,0 0.13346,-0.035 0.15625,-0.094 0.0093,-0.022 -0.0048,-0.1119 0,-0.1562 -0.02279,0.059 -0.07975,0.094 -0.15625,0.094 C 19.107745,1030.0497 19.054035,1030.0146 19.031248,1029.956 Z"
       id="path882"
       inkscape:connector-curvature="0" />
    <path
       style="font-size:5px;font-style:normal;font-variant:normal;font-weight:normal;font-stretch:normal;line-height:125%;letter-spacing:0px;word-spacing:0px;fill:#ffffff;fill-opacity:0.39215686;stroke:none;font-family:Impact;-inkscape-font-specification:Impact"
       d="m 10.999998,1027.4208 c -0.05371,0 -0.09571,0.021 -0.125,0.062 -0.01373,0.02 0.0044,0.125 0,0.1875 0.02929,-0.042 0.07129,-0.062 0.125,-0.062 0.06347,0 0.105467,0.042 0.125,0.094 -0.0051,-0.064 0.01145,-0.1604 0,-0.1875 C 11.105465,1027.4625 11.063468,1027.4208 10.999998,1027.4208 z m 8.1875,0 c -0.08463,0 -0.13346,0.034 -0.15625,0.094 -0.0113,0.03 0.005,0.127 0,0.1875 0.02279,-0.06 0.07162,-0.094 0.15625,-0.094 0.07487,0 0.13509,0.012 0.15625,0.062 -0.005,-0.062 0.01132,-0.1632 0,-0.1875 C 19.322588,1027.4333 19.262368,1027.4208 19.187498,1027.4208 z m -5.59375,0.2187 0,0.1875 0.71875,0 0,-0.1875 L 13.593748,1027.6395 z m 2,0 0,0.1875 0.71875,0 0,-0.1875 L 15.593748,1027.6395 z m 6.21875,0 0,0.1875 0.6875,0 0,-0.1875 L 21.812498,1027.6395 z m -2.4375,0.9063 0,0.1875 1.03125,0 0,-0.1875 L 19.374998,1028.5458 z m -5.78125,0.5937 0,0.1875 0.65625,0 0,-0.1875 L 13.593748,1029.1395 z m 2,0 0,0.1875 0.625,0 0,-0.1875 L 15.593748,1029.1395 z m 6.21875,0 0,0.1875 0.625,0 0,-0.1875 L 21.812498,1029.1395 z m -3.8125,0.75 c 0.01322,0.2254 0.01891,0.4295 0.0625,0.5625 0.06348,0.1921 0.210937,0.3285 0.40625,0.4375 0.195313,0.109 0.448893,0.1563 0.75,0.1563 0.289713,0 0.52181,-0.059 0.71875,-0.1875 0.198567,-0.1286 0.318033,-0.2666 0.375,-0.4375 0.0396,-0.1155 0.04793,-0.3055 0.0625,-0.5313 -0.01611,0.1464 -0.03321,0.2584 -0.0625,0.3438 -0.05697,0.171 -0.176433,0.3089 -0.375,0.4375 -0.19694,0.1285 -0.429037,0.1875 -0.71875,0.1875 -0.301107,0 -0.554687,-0.047 -0.75,-0.1563 -0.195313,-0.1091 -0.34277,-0.2454 -0.40625,-0.4375 C 18.030763,1030.1677 18.015502,1030.0357 17.999998,1029.8895 z m -5.84375,0.094 c -0.01791,0.1644 -0.05697,0.332 -0.15625,0.4687 -0.09766,0.1367 -0.238607,0.2395 -0.40625,0.3125 -0.167643,0.073 -0.370768,0.094 -0.59375,0.094 -0.211589,0 -0.393229,-0.026 -0.5625,-0.094 -0.167643,-0.07 -0.303711,-0.1742 -0.40625,-0.3125 -0.10254,-0.1383 -0.16797,-0.2747 -0.1875,-0.4375 0.0034,0.047 -0.0042,0.1527 0,0.1875 0.01953,0.1628 0.08496,0.2992 0.1875,0.4375 0.102539,0.1384 0.238607,0.2425 0.40625,0.3125 0.169271,0.068 0.350911,0.094 0.5625,0.094 0.222982,0 0.426107,-0.021 0.59375,-0.094 0.167643,-0.073 0.308593,-0.1757 0.40625,-0.3125 0.09928,-0.1367 0.138343,-0.3044 0.15625,-0.4687 C 12.160583,1030.1339 12.152726,1030.0314 12.156248,1029.9833 z m 0.40625,0.8125 0,0.1875 1.03125,0 0,-0.1875 L 12.562498,1030.7958 z m 2,0 0,0.1875 1.03125,0 0,-0.1875 L 14.562498,1030.7958 z m 2,0 0,0.1875 1.03125,0 0,-0.1875 L 16.562498,1030.7958 z m 4.21875,0 0,0.1875 1.78125,0 0,-0.1875 L 20.781248,1030.7958 Z"
       id="path887"
       inkscape:connector-curvature="0" />
  </g>
</svg>
