<?xml version="1.0" encoding="UTF-8" standalone="no"?>
<!-- Created with Inkscape (http://www.inkscape.org/) -->

<svg
   xmlns:dc="http://purl.org/dc/elements/1.1/"
   xmlns:cc="http://creativecommons.org/ns#"
   xmlns:rdf="http://www.w3.org/1999/02/22-rdf-syntax-ns#"
   xmlns:svg="http://www.w3.org/2000/svg"
   xmlns="http://www.w3.org/2000/svg"
   xmlns:xlink="http://www.w3.org/1999/xlink"
   xmlns:sodipodi="http://sodipodi.sourceforge.net/DTD/sodipodi-0.dtd"
   xmlns:inkscape="http://www.inkscape.org/namespaces/inkscape"
   width="48"
   height="48"
   id="svg2"
   version="1.1"
   inkscape:version="0.48+devel r12068"
   sodipodi:docname="libreoffice-impress.svg">
  <defs
     id="defs4">
    <linearGradient
       id="linearGradient862">
      <stop
         id="stop864"
         offset="0"
         style="stop-color:#fd5713;stop-opacity:1;" />
      <stop
         id="stop866"
         offset="1"
         style="stop-color:#d34204;stop-opacity:1" />
    </linearGradient>
    <linearGradient
       gradientTransform="matrix(0.80813804,0,0,0.80813804,3.1307272,1007.2408)"
       inkscape:collect="always"
       xlink:href="#linearGradient862"
       id="linearGradient4573"
       x1="19.734877"
       y1="20.913715"
       x2="19.734877"
       y2="33.109589"
       gradientUnits="userSpaceOnUse" />
  </defs>
  <sodipodi:namedview
     id="base"
     pagecolor="#ffffff"
     bordercolor="#666666"
     borderopacity="1.0"
     inkscape:pageopacity="0.0"
     inkscape:pageshadow="2"
     inkscape:zoom="5.6568543"
     inkscape:cx="27.172476"
     inkscape:cy="28.516912"
     inkscape:document-units="px"
     inkscape:current-layer="layer1"
     showgrid="false"
     inkscape:window-width="1366"
     inkscape:window-height="718"
     inkscape:window-x="0"
     inkscape:window-y="28"
     inkscape:window-maximized="1">
    <inkscape:grid
       type="xygrid"
       id="grid3850" />
  </sodipodi:namedview>
  <metadata
     id="metadata7">
    <rdf:RDF>
      <cc:Work
         rdf:about="">
        <dc:format>image/svg+xml</dc:format>
        <dc:type
           rdf:resource="http://purl.org/dc/dcmitype/StillImage" />
        <dc:title />
      </cc:Work>
    </rdf:RDF>
  </metadata>
  <g
     inkscape:label="Capa 1"
     inkscape:groupmode="layer"
     id="layer1"
     transform="translate(0,-1004.3622)">
    <rect
       style="fill:#ffffff;fill-opacity:1;stroke:none"
       id="rect2991-1"
       width="48"
       height="48"
       x="-1.7999999e-06"
       y="-1052.3622"
       ry="1.9445436"
       transform="scale(1,-1)" />
    <path
       inkscape:connector-curvature="0"
       style="fill:#000000;fill-opacity:1;stroke:none"
       d="m -1.8e-6,1049.3622 0,1.0625 c 0,1.0773 0.860223,1.9375 1.9375,1.9375 l 44.1250038,0 c 1.07727,0 1.9375,-0.8602 1.9375,-1.9375 l 0,-1.0625 c 0,1.0773 -0.86023,1.9375 -1.9375,1.9375 l -44.1250038,0 C 0.8602212,1051.2997 -1.8e-6,1050.4395 -1.8e-6,1049.3622 Z"
       id="rect846" />
    <path
       inkscape:connector-curvature="0"
       style="fill:#ffffff;fill-opacity:0.5372549;stroke:none"
       d="m 2.5312482,1005.0185 c -0.917089,0 -1.671147,0.6395 -1.84375,1.5 0.335612,-0.2799 0.774512,-0.4375 1.25,-0.4375 l 44.1250038,0 c 0.47548,0 0.91438,0.1576 1.25,0.4375 -0.17261,-0.8605 -0.92667,-1.5 -1.84375,-1.5 L 2.5312482,1005.0185 Z"
       id="path7515" />
    <path
       inkscape:connector-curvature="0"
       style="fill:#000000;fill-opacity:0.39215686;stroke:none"
       d="m 1.9374982,1004.3622 c -1.077277,0 -1.9375,0.8602 -1.9375,1.9375 l 0,43.0625 c 0,0.7934 0.480023,1.449 1.15625,1.75 -0.309342,-0.3333 -0.5,-0.7824 -0.5,-1.2812 l 0,-42.9375 c 0,-1.0482 0.826899,-1.875 1.875,-1.875 l 42.9375038,0 c 1.0481,0 1.875,0.8268 1.875,1.875 l 0,42.9375 c 0,0.4988 -0.19066,0.9479 -0.5,1.2812 0.67622,-0.301 1.15625,-0.9566 1.15625,-1.75 l 0,-43.0625 c 0,-1.0773 -0.86023,-1.9375 -1.9375,-1.9375 L 1.9374982,1004.3622 Z"
       id="rect4280-7" />
    <path
       sodipodi:nodetypes="ccccccccccc"
       inkscape:connector-curvature="0"
       id="path1324"
       d="m 11.834228,1012.3622 0,32 24.33154,0 -1.1e-5,-23.9375 -8.054952,0 L 28.110797,1012.3622 z m 18.458954,0 5.872584,5.8802 L 36.165741,1012.3622 Z"
       style="color:#000000;fill:#000000;fill-opacity:1;fill-rule:nonzero;stroke:none;stroke-width:1.39999998;marker:none;visibility:visible;display:inline;overflow:visible;enable-background:accumulate" />
    <path
       inkscape:connector-curvature="0"
       style="fill:#762502;fill-opacity:1;stroke:none"
       d="m 7.7647432,1034.0198 4.0659438,3.8386 0,-3.8386 L 7.7647432,1034.0198 Z"
       id="path5343" />
    <rect
       style="color:#000000;fill:url(#linearGradient4573);fill-opacity:1;fill-rule:nonzero;stroke:none;stroke-width:0.2;marker:none;visibility:visible;display:inline;overflow:visible;enable-background:accumulate"
       id="rect4565"
       width="16.848322"
       height="10.412836"
       x="7.7647419"
       y="1023.6111"
       ry="0" />
    <path
       style="color:#000000;fill:#ffffff;fill-opacity:0.48235294;fill-rule:nonzero;stroke:none;stroke-width:0.2;marker:none;visibility:visible;display:inline;overflow:visible;enable-background:accumulate"
       d="m 24.613065,1023.611 0,10.4047 -0.277798,0 0,-10.0764 -16.5668278,0 0,-0.3283 L 24.613065,1023.611 Z"
       id="rect5380"
       inkscape:connector-curvature="0" />
    <path
       inkscape:connector-curvature="0"
       style="fill:#000000;fill-opacity:0.17647059;stroke:none"
       d="m 7.7647432,1034.0198 4.0659438,3.8386 0,-0.5808 -3.0557718,-2.879 3.0557718,0 0,-0.3788 L 7.7647432,1034.0198 Z"
       id="path5393" />
    <path
       style="font-size:5px;font-style:normal;font-variant:normal;font-weight:bold;font-stretch:normal;line-height:125%;letter-spacing:0px;word-spacing:0px;fill:#ffffff;fill-opacity:1;stroke:none;font-family:Impact;-inkscape-font-specification:Impact Bold"
       d="m 10.751403,1026.755 c -0.244141,0 -0.452474,0.045 -0.625,0.125 -0.1725258,0.078 -0.2968748,0.1725 -0.3749998,0.3125 -0.0765,0.14 -0.125,0.3535 -0.125,0.6562 0,0.2099 0.04004,0.3961 0.09375,0.5313 0.05534,0.135 0.104493,0.2359 0.1875,0.3125 0.08301,0.076 0.2757158,0.2057 0.5312498,0.375 0.255531,0.1676 0.403643,0.2721 0.46875,0.3437 0.06347,0.072 0.09375,0.236 0.09375,0.4688 0,0.1054 -0.02832,0.196 -0.0625,0.25 -0.03255,0.054 -0.08789,0.062 -0.15625,0.062 -0.06836,0 -0.09733,-0.02 -0.125,-0.062 -0.02604,-0.042 -0.03125,-0.1332 -0.03125,-0.2813 l 0,-0.4687 -0.9687498,0 0,0.25 c 0,0.2962 0.03353,0.5263 0.09375,0.6875 0.06022,0.1611 0.181315,0.302 0.3749998,0.4062 0.195313,0.1041 0.443685,0.1563 0.71875,0.1563 0.250651,0 0.467448,-0.067 0.65625,-0.1563 0.1888,-0.091 0.309893,-0.179 0.375,-0.3125 0.06673,-0.1335 0.09375,-0.3435 0.09375,-0.625 0,-0.3874 -0.03744,-0.6696 -0.15625,-0.8437 -0.118815,-0.1742 -0.417643,-0.4157 -0.875,-0.6875 -0.159505,-0.094 -0.24707,-0.1521 -0.28125,-0.2188 -0.03581,-0.067 -0.0625,-0.1807 -0.0625,-0.3125 0,-0.1023 3.23e-4,-0.1681 0.03125,-0.2187 0.03255,-0.051 0.0944,-0.094 0.15625,-0.094 0.05697,0 0.100587,0.025 0.125,0.062 0.02441,0.037 0.03125,0.1445 0.03125,0.2813 l 0,0.2812 0.9375,0 0,-0.1562 c 0,-0.3142 -6.53e-4,-0.5261 -0.0625,-0.6563 -0.06022,-0.1318 -0.186198,-0.2575 -0.375,-0.3437 C 11.251728,1026.7937 11.01833,1026.755 10.751403,1026.755 z m 10.78125,0 c -0.244141,0 -0.452474,0.045 -0.625,0.125 -0.172526,0.078 -0.296875,0.1725 -0.375,0.3125 -0.0765,0.14 -0.125,0.3535 -0.125,0.6562 0,0.2099 0.04004,0.3961 0.09375,0.5313 0.05534,0.135 0.104493,0.2359 0.1875,0.3125 0.08301,0.076 0.275716,0.2057 0.53125,0.375 0.255531,0.1676 0.403643,0.2721 0.46875,0.3437 0.06347,0.072 0.09375,0.236 0.09375,0.4688 0,0.1054 -0.02832,0.196 -0.0625,0.25 -0.03255,0.054 -0.08789,0.062 -0.15625,0.062 -0.06836,0 -0.09733,-0.02 -0.125,-0.062 -0.02604,-0.042 -0.03125,-0.1332 -0.03125,-0.2813 l 0,-0.4687 -0.96875,0 0,0.25 c 0,0.2962 0.03353,0.5263 0.09375,0.6875 0.06022,0.1611 0.181315,0.302 0.375,0.4062 0.195313,0.1041 0.443685,0.1563 0.71875,0.1563 0.250651,0 0.467448,-0.067 0.65625,-0.1563 0.1888,-0.091 0.309893,-0.179 0.375,-0.3125 0.06673,-0.1335 0.09375,-0.3435 0.09375,-0.625 0,-0.3874 -0.03744,-0.6696 -0.15625,-0.8437 -0.118815,-0.1742 -0.417643,-0.4157 -0.875,-0.6875 -0.159505,-0.094 -0.24707,-0.1521 -0.28125,-0.2188 -0.03581,-0.067 -0.0625,-0.1807 -0.0625,-0.3125 0,-0.1023 3.23e-4,-0.1681 0.03125,-0.2187 0.03255,-0.051 0.0944,-0.094 0.15625,-0.094 0.05697,0 0.100587,0.025 0.125,0.062 0.02441,0.037 0.03125,0.1445 0.03125,0.2813 l 0,0.2812 0.9375,0 0,-0.1562 c 0,-0.3142 -6.53e-4,-0.5261 -0.0625,-0.6563 -0.06022,-0.1318 -0.186198,-0.2575 -0.375,-0.3437 C 22.032978,1026.7937 21.79958,1026.755 21.532653,1026.755 z m -9.21875,0.094 0,3.9375 1.625,0 0,-0.7812 -0.625,0 0,-3.1563 L 12.313903,1026.8487 z m 1.90625,0 0,3.9375 1,0 0,-3.9375 L 14.220153,1026.8487 z m 1.4375,0 0,3.9375 1.28125,0 c 0.245769,0 0.44043,-0.01 0.5625,-0.031 0.122071,-0.028 0.229493,-0.09 0.3125,-0.1563 0.08301,-0.068 0.123697,-0.1624 0.15625,-0.2812 0.03418,-0.1205 0.0625,-0.3327 0.0625,-0.6875 l 0,-1.4063 c 0,-0.3743 -0.0085,-0.6231 -0.03125,-0.75 -0.02279,-0.1286 -0.09636,-0.2395 -0.1875,-0.3437 -0.09115,-0.1044 -0.199219,-0.1735 -0.375,-0.2188 -0.174153,-0.045 -0.534831,-0.062 -1.03125,-0.062 L 15.657653,1026.8487 z m 2.75,0 0,3.9375 1.78125,0 0,-0.7812 -0.75,0 0,-0.875 0.65625,0 0,-0.75 -0.65625,0 0,-0.75 0.6875,0 0,-0.7813 L 18.407653,1026.8487 z m -1.71875,0.6563 c 0.112305,0 0.178063,0.01 0.21875,0.031 0.04069,0.023 0.08236,0.074 0.09375,0.125 0.01139,0.051 0,0.1647 0,0.3438 l 0,1.5312 c 0,0.2639 -0.02832,0.44 -0.0625,0.5 -0.03418,0.059 -0.101888,0.062 -0.25,0.062 L 16.688903,1027.505 Z"
       id="path869"
       inkscape:connector-curvature="0" />
    <path
       style="font-size:5px;font-style:normal;font-variant:normal;font-weight:bold;font-stretch:normal;line-height:125%;letter-spacing:0px;word-spacing:0px;fill:#000000;fill-opacity:0.39215686;stroke:none;font-family:Impact;-inkscape-font-specification:Impact Bold"
       d="m 10.749998,1026.5731 c -0.244141,0 -0.452474,0.045 -0.625,0.125 -0.1725258,0.078 -0.2968748,0.1725 -0.3749998,0.3125 -0.0558,0.1022 -0.0757,0.2511 -0.09375,0.4375 0.02169,-0.1087 0.0555,-0.18 0.09375,-0.25 0.07813,-0.14 0.202474,-0.2345 0.3749998,-0.3125 0.172526,-0.08 0.380859,-0.125 0.625,-0.125 0.266927,0 0.500325,0.039 0.6875,0.125 0.188802,0.086 0.31478,0.212 0.375,0.3438 0.03092,0.065 0.05461,0.1415 0.0625,0.25 -0.0035,-0.1905 -0.0173,-0.3424 -0.0625,-0.4375 -0.06022,-0.1318 -0.186198,-0.2576 -0.375,-0.3438 C 11.250323,1026.6125 11.016925,1026.5731 10.749998,1026.5731 z m 10.78125,0 c -0.244141,0 -0.452474,0.045 -0.625,0.125 -0.172526,0.078 -0.296875,0.1725 -0.375,0.3125 -0.0558,0.1022 -0.0757,0.2511 -0.09375,0.4375 0.02169,-0.1087 0.0555,-0.18 0.09375,-0.25 0.07813,-0.14 0.202474,-0.2345 0.375,-0.3125 0.172526,-0.08 0.380859,-0.125 0.625,-0.125 0.266927,0 0.500325,0.039 0.6875,0.125 0.188802,0.086 0.31478,0.212 0.375,0.3438 0.03092,0.065 0.05461,0.1415 0.0625,0.25 -0.0035,-0.1905 -0.0173,-0.3424 -0.0625,-0.4375 -0.06022,-0.1318 -0.186198,-0.2576 -0.375,-0.3438 C 22.031573,1026.6125 21.798175,1026.5731 21.531248,1026.5731 z m -9.21875,0.094 0,0.1875 1,0 0,-0.1875 L 12.312498,1026.6669 z m 1.90625,0 0,0.1875 1,0 0,-0.1875 L 14.218748,1026.6669 z m 1.4375,0 0,0.1875 0.75,0 c 0.496419,0 0.857097,0.018 1.03125,0.062 0.175781,0.045 0.28385,0.1143 0.375,0.2187 0.09114,0.1042 0.16471,0.2152 0.1875,0.3438 -0.004,-0.047 0.0057,-0.1558 0,-0.1875 -0.02279,-0.1286 -0.09636,-0.2396 -0.1875,-0.3438 -0.09115,-0.1044 -0.199219,-0.1734 -0.375,-0.2187 -0.174153,-0.045 -0.534831,-0.062 -1.03125,-0.062 L 15.656248,1026.6669 z m 2.75,0 0,0.1875 1.71875,0 0,-0.1875 L 18.406248,1026.6669 z m -7.78125,0.9375 c -0.0061,0.039 -0.03125,0.066 -0.03125,0.125 0,0.1318 0.02669,0.2455 0.0625,0.3125 0.03418,0.067 0.121745,0.1247 0.28125,0.2187 0.457357,0.2718 0.756185,0.5133 0.875,0.6875 0.0594,0.087 0.100789,0.2031 0.125,0.3438 -0.01907,-0.2206 -0.0434,-0.4117 -0.125,-0.5313 -0.118815,-0.1742 -0.417643,-0.4157 -0.875,-0.6875 -0.159505,-0.094 -0.24707,-0.152 -0.28125,-0.2187 C 10.628013,1027.8016 10.633281,1027.7013 10.624998,1027.6044 z m 10.75,0 c -0.0055,0.038 0,0.068 0,0.125 0,0.1318 0.02669,0.2455 0.0625,0.3125 0.03418,0.067 0.121745,0.1247 0.28125,0.2187 0.457357,0.2718 0.756185,0.5133 0.875,0.6875 0.0594,0.087 0.100789,0.2031 0.125,0.3438 -0.01907,-0.2206 -0.0434,-0.4117 -0.125,-0.5313 -0.118815,-0.1742 -0.417643,-0.4157 -0.875,-0.6875 -0.159505,-0.094 -0.24707,-0.152 -0.28125,-0.2187 C 21.408575,1027.8003 21.382764,1027.7044 21.374998,1027.6044 z m -1.9375,0.5937 0,0.1875 0.65625,0 0,-0.1875 L 19.437498,1028.1981 z m -9.7812498,1 0,0.1875 0.9687498,0 0,-0.1875 c -0.0076,-0.01 -0.02325,0.01 -0.03125,0 L 9.6562482,1029.1981 z m 10.7812498,0 0,0.1875 0.96875,0 0,-0.1875 c -0.0076,-0.01 -0.02325,0.01 -0.03125,0 L 20.437498,1029.1981 z m -3.4375,0.1563 c 0,0.2639 -0.02832,0.44 -0.0625,0.5 -0.03418,0.059 -0.101888,0.062 -0.25,0.062 l 0,0.1875 c 0.148112,0 0.21582,0 0.25,-0.062 0.03418,-0.06 0.0625,-0.2361 0.0625,-0.5 L 16.999998,1029.3544 z m -6.375,0.3125 0,0.1875 c 0,0.1481 0.0052,0.2392 0.03125,0.2812 0.02767,0.042 0.05664,0.062 0.125,0.062 0.06836,0 0.1237,-0.01 0.15625,-0.062 0.03418,-0.054 0.0625,-0.1446 0.0625,-0.25 0,-0.046 0.0024,-0.084 0,-0.125 -0.0092,0.074 -0.03636,0.1462 -0.0625,0.1875 -0.03255,0.054 -0.08789,0.062 -0.15625,0.062 -0.06836,0 -0.09733,-0.021 -0.125,-0.062 C 10.630208,1029.9061 10.624998,1029.815 10.624998,1029.6669 z m 10.78125,0 0,0.1875 c 0,0.1481 0.0052,0.2392 0.03125,0.2812 0.02767,0.042 0.05664,0.062 0.125,0.062 0.06836,0 0.1237,-0.01 0.15625,-0.062 0.03418,-0.054 0.0625,-0.1446 0.0625,-0.25 0,-0.046 0.0024,-0.084 0,-0.125 -0.0092,0.074 -0.03636,0.1462 -0.0625,0.1875 -0.03255,0.054 -0.08789,0.062 -0.15625,0.062 -0.06836,0 -0.09733,-0.021 -0.125,-0.062 C 21.411458,1029.9061 21.406248,1029.815 21.406248,1029.6669 z m -8.09375,0.1562 0,0.1875 0.625,0 0,-0.1875 L 13.312498,1029.8231 z m 6.125,0 0,0.1875 0.75,0 0,-0.1875 L 19.437498,1029.8231 Z"
       id="path888"
       inkscape:connector-curvature="0" />
    <path
       style="font-size:5px;font-style:normal;font-variant:normal;font-weight:bold;font-stretch:normal;line-height:125%;letter-spacing:0px;word-spacing:0px;fill:#ffffff;fill-opacity:0.54901961;stroke:none;font-family:Impact;-inkscape-font-specification:Impact Bold"
       d="m 10.781248,1027.3778 c -0.06185,0 -0.1237,0.074 -0.15625,0.125 -0.01732,0.028 0.0034,0.083 0,0.125 0.03255,-0.051 0.0944,-0.094 0.15625,-0.094 0.05697,0 0.100587,0.025 0.125,0.062 -0.0046,-0.056 0.0134,-0.136 0,-0.1563 C 10.881835,1027.4033 10.838218,1027.3778 10.781248,1027.3778 z m 10.78125,0 c -0.06185,0 -0.1237,0.074 -0.15625,0.125 -0.01732,0.028 0.0034,0.083 0,0.125 0.03255,-0.051 0.0944,-0.094 0.15625,-0.094 0.05697,0 0.100587,0.025 0.125,0.062 -0.0046,-0.056 0.0134,-0.136 0,-0.1563 C 21.663085,1027.4033 21.619468,1027.3778 21.562498,1027.3778 z m -4.875,0.125 0,0.125 c 0.112305,0 0.178063,0.01 0.21875,0.031 0.04069,0.023 0.08236,0.074 0.09375,0.125 2.4e-4,-0.035 0.0041,-0.1065 0,-0.125 -0.01139,-0.051 -0.05306,-0.102 -0.09375,-0.125 C 16.865561,1027.5131 16.799803,1027.5028 16.687498,1027.5028 z m 2.75,0.125 0,0.125 0.6875,0 0,-0.125 L 19.437498,1027.6278 z m -8.5,0.375 0,0.1563 0.9375,0 0,-0.1563 L 10.937498,1028.0028 z m 10.78125,0 0,0.1563 0.9375,0 0,-0.1563 L 21.718748,1028.0028 z m -12.0624998,0.125 c 0.01467,0.1399 0.02385,0.2777 0.0625,0.375 0.05534,0.135 0.104493,0.2359 0.1875,0.3125 0.08301,0.076 0.2757158,0.2057 0.5312498,0.375 0.255531,0.1676 0.403643,0.2722 0.46875,0.3438 0.03173,0.036 0.047,0.077 0.0625,0.1562 -0.01295,-0.132 -0.0182,-0.231 -0.0625,-0.2812 -0.06511,-0.072 -0.213219,-0.1762 -0.46875,-0.3438 -0.255534,-0.1693 -0.4482398,-0.299 -0.5312498,-0.375 -0.08301,-0.077 -0.13216,-0.1775 -0.1875,-0.3125 C 9.6918932,1028.3102 9.6729722,1028.2175 9.6562482,1028.1278 z m 10.7812498,0 c 0.01467,0.1399 0.02385,0.2777 0.0625,0.375 0.05534,0.135 0.104493,0.2359 0.1875,0.3125 0.08301,0.076 0.275716,0.2057 0.53125,0.375 0.255531,0.1676 0.403643,0.2722 0.46875,0.3438 0.03173,0.036 0.047,0.077 0.0625,0.1562 -0.01295,-0.132 -0.0182,-0.231 -0.0625,-0.2812 -0.06511,-0.072 -0.213219,-0.1762 -0.46875,-0.3438 -0.255534,-0.1693 -0.44824,-0.299 -0.53125,-0.375 -0.08301,-0.077 -0.13216,-0.1775 -0.1875,-0.3125 C 20.473143,1028.3102 20.454222,1028.2175 20.437498,1028.1278 z m -1,1 0,0.125 0.65625,0 0,-0.125 L 19.437498,1029.1278 z m -9.7499998,0.875 c 0.01442,0.1675 0.02242,0.3302 0.0625,0.4375 0.06022,0.1611 0.181315,0.3021 0.3749998,0.4063 0.195313,0.1041 0.443685,0.1562 0.71875,0.1562 0.250651,0 0.467448,-0.067 0.65625,-0.1562 0.1888,-0.091 0.309893,-0.179 0.375,-0.3125 0.0454,-0.091 0.04986,-0.2462 0.0625,-0.4063 -0.0151,0.1044 -0.02913,0.2145 -0.0625,0.2813 -0.06511,0.1335 -0.1862,0.2215 -0.375,0.3125 -0.188802,0.089 -0.405599,0.1562 -0.65625,0.1562 -0.275065,0 -0.523437,-0.052 -0.71875,-0.1562 -0.1936848,-0.1042 -0.3147798,-0.2452 -0.3749998,-0.4063 C 9.7198882,1030.2347 9.7034082,1030.1175 9.6874982,1030.0028 z m 10.7812498,0 c 0.01442,0.1675 0.02242,0.3302 0.0625,0.4375 0.06022,0.1611 0.181315,0.3021 0.375,0.4063 0.195313,0.1041 0.443685,0.1562 0.71875,0.1562 0.250651,0 0.467448,-0.067 0.65625,-0.1562 0.1888,-0.091 0.309893,-0.179 0.375,-0.3125 0.0454,-0.091 0.04986,-0.2462 0.0625,-0.4063 -0.0151,0.1044 -0.02913,0.2145 -0.0625,0.2813 -0.06511,0.1335 -0.1862,0.2215 -0.375,0.3125 -0.188802,0.089 -0.405599,0.1562 -0.65625,0.1562 -0.275065,0 -0.523437,-0.052 -0.71875,-0.1562 -0.193685,-0.1042 -0.31478,-0.2452 -0.375,-0.4063 C 20.501138,1030.2347 20.484658,1030.1175 20.468748,1030.0028 z m -2.5,0.3125 c -0.03255,0.1188 -0.07324,0.2133 -0.15625,0.2813 -0.08301,0.066 -0.190429,0.1282 -0.3125,0.1562 -0.12207,0.021 -0.316731,0.031 -0.5625,0.031 l -1.28125,0 0,0.125 1.28125,0 c 0.245769,0 0.44043,-0.01 0.5625,-0.031 0.122071,-0.028 0.229493,-0.09 0.3125,-0.1562 0.08301,-0.068 0.123697,-0.1625 0.15625,-0.2813 C 17.974912,1030.4186 17.963097,1030.3433 17.968748,1030.3153 z m -5.65625,0.4688 0,0.125 1.625,0 0,-0.125 L 12.312498,1030.7841 z m 1.90625,0 0,0.125 1,0 0,-0.125 L 14.218748,1030.7841 z m 4.1875,0 0,0.125 1.78125,0 0,-0.125 L 18.406248,1030.7841 Z"
       id="path894"
       inkscape:connector-curvature="0" />
  </g>
</svg>
