<?xml version="1.0" encoding="UTF-8" standalone="no"?>
<!-- Created with Inkscape (http://www.inkscape.org/) -->

<svg
   xmlns:dc="http://purl.org/dc/elements/1.1/"
   xmlns:cc="http://creativecommons.org/ns#"
   xmlns:rdf="http://www.w3.org/1999/02/22-rdf-syntax-ns#"
   xmlns:svg="http://www.w3.org/2000/svg"
   xmlns="http://www.w3.org/2000/svg"
   xmlns:xlink="http://www.w3.org/1999/xlink"
   xmlns:sodipodi="http://sodipodi.sourceforge.net/DTD/sodipodi-0.dtd"
   xmlns:inkscape="http://www.inkscape.org/namespaces/inkscape"
   width="48"
   height="48"
   id="svg2"
   version="1.1"
   inkscape:version="0.48+devel r12068"
   sodipodi:docname="libreoffice-base.svg">
  <defs
     id="defs4">
    <linearGradient
       id="linearGradient3795">
      <stop
         style="stop-color:#d868c4;stop-opacity:1;"
         offset="0"
         id="stop3797" />
      <stop
         style="stop-color:#b73baa;stop-opacity:1;"
         offset="1"
         id="stop3799" />
    </linearGradient>
    <linearGradient
       gradientTransform="matrix(0.80813804,0,0,0.80813804,3.1307272,1007.2408)"
       inkscape:collect="always"
       xlink:href="#linearGradient3795"
       id="linearGradient4573"
       x1="19.734877"
       y1="20.913715"
       x2="19.734877"
       y2="33.109589"
       gradientUnits="userSpaceOnUse" />
  </defs>
  <sodipodi:namedview
     id="base"
     pagecolor="#ffffff"
     bordercolor="#666666"
     borderopacity="1.0"
     inkscape:pageopacity="0.0"
     inkscape:pageshadow="2"
     inkscape:zoom="8"
     inkscape:cx="10.218752"
     inkscape:cy="22.159765"
     inkscape:document-units="px"
     inkscape:current-layer="layer1"
     showgrid="false"
     inkscape:window-width="1366"
     inkscape:window-height="718"
     inkscape:window-x="0"
     inkscape:window-y="28"
     inkscape:window-maximized="1">
    <inkscape:grid
       type="xygrid"
       id="grid3850" />
  </sodipodi:namedview>
  <metadata
     id="metadata7">
    <rdf:RDF>
      <cc:Work
         rdf:about="">
        <dc:format>image/svg+xml</dc:format>
        <dc:type
           rdf:resource="http://purl.org/dc/dcmitype/StillImage" />
        <dc:title />
      </cc:Work>
    </rdf:RDF>
  </metadata>
  <g
     inkscape:label="Capa 1"
     inkscape:groupmode="layer"
     id="layer1"
     transform="translate(0,-1004.3622)">
    <rect
       style="fill:#ffffff;fill-opacity:1;stroke:none"
       id="rect2991-1"
       width="48"
       height="48"
       x="-1.85e-06"
       y="-1052.3622"
       ry="1.9445436"
       transform="scale(1,-1)" />
    <path
       inkscape:connector-curvature="0"
       style="fill:#000000;fill-opacity:1;stroke:none"
       d="m -1.85e-6,1049.3622 0,1.0625 c 0,1.0773 0.860223,1.9375 1.93750005,1.9375 l 44.1250038,0 c 1.07727,0 1.9375,-0.8602 1.9375,-1.9375 l 0,-1.0625 c 0,1.0773 -0.86023,1.9375 -1.9375,1.9375 l -44.1250038,0 C 0.86022115,1051.2997 -1.85e-6,1050.4395 -1.85e-6,1049.3622 Z"
       id="rect846" />
    <path
       inkscape:connector-curvature="0"
       style="fill:#ffffff;fill-opacity:0.5372549;stroke:none"
       d="m 2.5312482,1005.0185 c -0.917089,0 -1.67114705,0.6395 -1.84375005,1.5 0.33561205,-0.2799 0.77451205,-0.4375 1.25000005,-0.4375 l 44.1250038,0 c 0.47548,0 0.91438,0.1576 1.25,0.4375 -0.17261,-0.8605 -0.92667,-1.5 -1.84375,-1.5 L 2.5312482,1005.0185 Z"
       id="path7515" />
    <path
       inkscape:connector-curvature="0"
       style="fill:#000000;fill-opacity:0.39215686;stroke:none"
       d="m 1.9374982,1004.3622 c -1.07727705,0 -1.93750005,0.8602 -1.93750005,1.9375 l 0,43.0625 c 0,0.7934 0.480023,1.449 1.15625005,1.75 -0.30934205,-0.3333 -0.50000005,-0.7824 -0.50000005,-1.2812 l 0,-42.9375 c 0,-1.0482 0.82689905,-1.875 1.87500005,-1.875 l 42.9375038,0 c 1.0481,0 1.875,0.8268 1.875,1.875 l 0,42.9375 c 0,0.4988 -0.19066,0.9479 -0.5,1.2812 0.67622,-0.301 1.15625,-0.9566 1.15625,-1.75 l 0,-43.0625 c 0,-1.0773 -0.86023,-1.9375 -1.9375,-1.9375 L 1.9374982,1004.3622 Z"
       id="rect4280-7" />
    <path
       sodipodi:nodetypes="ccccccccccc"
       inkscape:connector-curvature="0"
       id="path1324"
       d="m 11.834228,1012.3622 0,32 24.33154,0 -1.1e-5,-23.9375 -8.054952,0 L 28.110797,1012.3622 z m 18.458954,0 5.872584,5.8802 L 36.165741,1012.3622 Z"
       style="color:#000000;fill:#000000;fill-opacity:1;fill-rule:nonzero;stroke:none;stroke-width:1.39999998;marker:none;visibility:visible;display:inline;overflow:visible;enable-background:accumulate" />
    <g
       id="g1544">
      <path
         id="path5343"
         d="m 7.7647432,1034.0198 4.0659438,3.8386 0,-3.8386 L 7.7647432,1034.0198 Z"
         style="fill:#5b1d54;fill-opacity:1;stroke:none"
         inkscape:connector-curvature="0" />
      <rect
         ry="0"
         y="1023.6111"
         x="7.7647419"
         height="10.412836"
         width="16.848322"
         id="rect4565"
         style="color:#000000;fill:url(#linearGradient4573);fill-opacity:1;fill-rule:nonzero;stroke:none;stroke-width:0.2;marker:none;visibility:visible;display:inline;overflow:visible;enable-background:accumulate" />
      <path
         inkscape:connector-curvature="0"
         id="rect5380"
         d="m 24.613065,1023.611 0,10.4047 -0.277798,0 0,-10.0764 -16.5668278,0 0,-0.3283 L 24.613065,1023.611 Z"
         style="color:#000000;fill:#ffffff;fill-opacity:0.48235294;fill-rule:nonzero;stroke:none;stroke-width:0.2;marker:none;visibility:visible;display:inline;overflow:visible;enable-background:accumulate" />
      <path
         id="path5393"
         d="m 7.7647432,1034.0198 4.0659438,3.8386 0,-0.5808 -3.0557718,-2.879 3.0557718,0 0,-0.3788 L 7.7647432,1034.0198 Z"
         style="fill:#000000;fill-opacity:0.17647059;stroke:none"
         inkscape:connector-curvature="0" />
      <path
         style="font-size:5px;font-style:normal;font-variant:normal;font-weight:normal;font-stretch:normal;line-height:125%;letter-spacing:0px;word-spacing:0px;fill:#ffffff;fill-opacity:1;stroke:none;font-family:Impact;-inkscape-font-specification:Impact"
         d="m 17.360778,1026.7751 c -0.104167,0.02 -0.226237,0.054 -0.3125,0.094 -0.172526,0.078 -0.296875,0.2037 -0.375,0.3437 -0.0765,0.14 -0.09375,0.3535 -0.09375,0.6563 0,0.2099 0.0088,0.3961 0.0625,0.5312 0.05534,0.1351 0.135743,0.236 0.21875,0.3125 0.08301,0.077 0.244466,0.2057 0.5,0.375 0.255531,0.1677 0.434893,0.2721 0.5,0.3438 0.06348,0.072 0.09375,0.236 0.09375,0.4687 0,0.1058 -0.02832,0.165 -0.0625,0.2188 -0.03255,0.054 -0.08789,0.094 -0.15625,0.094 -0.06836,0 -0.09733,-0.02 -0.125,-0.062 -0.02604,-0.042 -0.0625,-0.1332 -0.0625,-0.2813 l 0,-0.5 -0.9375,0 0,0.2813 c 0,0.2962 0.03353,0.5263 0.09375,0.6875 0.06022,0.1611 0.181315,0.2708 0.375,0.375 0.195313,0.1041 0.412435,0.1562 0.6875,0.1562 0.250651,0 0.498698,-0.035 0.6875,-0.125 0.1888,-0.091 0.309893,-0.2103 0.375,-0.3437 0.06673,-0.1335 0.09375,-0.3435 0.09375,-0.625 0,-0.3874 -0.06869,-0.6696 -0.1875,-0.8438 -0.118815,-0.1741 -0.386393,-0.3844 -0.84375,-0.6562 -0.159505,-0.094 -0.27832,-0.1833 -0.3125,-0.25 -0.03581,-0.067 -0.03125,-0.1495 -0.03125,-0.2813 0,-0.1025 3.23e-4,-0.1995 0.03125,-0.25 0.03256,-0.05 0.0944,-0.062 0.15625,-0.062 0.05697,0 0.06934,0.025 0.09375,0.062 0.02441,0.037 0.0625,0.1133 0.0625,0.25 l 0,0.2813 0.9375,0 0,-0.1563 c 0,-0.3141 -0.0319,-0.526 -0.09375,-0.6562 -0.06022,-0.1319 -0.186198,-0.2263 -0.375,-0.3125 -0.187175,-0.086 -0.420573,-0.125 -0.6875,-0.125 C 17.551208,1026.7751 17.464945,1026.7551 17.360778,1026.7751 z m -6,0.062 0,3.9687 1.1875,0 c 0.413411,0 0.679036,-0.047 0.8125,-0.094 0.133465,-0.047 0.22103,-0.1214 0.28125,-0.25 0.06185,-0.1286 0.09375,-0.3268 0.09375,-0.5937 l 0,-0.375 c 0,-0.2572 -0.04036,-0.4388 -0.125,-0.5625 -0.08464,-0.1253 -0.23112,-0.2276 -0.46875,-0.2813 0.213216,-0.049 0.365885,-0.096 0.4375,-0.1875 0.07324,-0.091 0.09375,-0.2689 0.09375,-0.5 0,-0.3418 -0.05371,-0.597 -0.15625,-0.75 -0.102539,-0.1546 -0.238607,-0.2308 -0.40625,-0.2812 -0.166015,-0.05 -0.394857,-0.094 -0.71875,-0.094 L 11.360778,1026.8376 z m 3.03125,0 -0.5,3.9687 1.0625,0 0.0625,-0.7187 0.375,0 0.03125,0.7187 1.0625,0 -0.59375,-3.9687 L 14.392028,1026.8376 z m 4.84375,0 0,3.9687 1.78125,0 0,-0.8125 -0.75,0 0,-0.8437 0.65625,0 0,-0.7813 -0.65625,0 0,-0.7187 0.6875,0 0,-0.8125 L 19.235778,1026.8376 z m -6.84375,0.6875 c 0.105795,0 0.182944,0.018 0.21875,0.031 0.03743,0.013 0.03971,0.043 0.0625,0.094 0.02279,0.049 0.03125,0.1263 0.03125,0.25 0,0.2343 -0.0036,0.387 -0.03125,0.4375 -0.02767,0.049 -0.08659,0.062 -0.1875,0.062 -0.02441,0 -0.0498,-10e-4 -0.09375,0 L 12.392028,1027.5251 z m 2.8125,0.1875 c 0.05208,0.6575 0.104163,1.2399 0.15625,1.6875 l -0.375,0 C 15.011819,1029.0501 15.100361,1028.4678 15.204528,1027.7126 z m -2.8125,1.3125 c 0.152995,0 0.245446,0.027 0.28125,0.062 0.03581,0.036 0.03125,0.1119 0.03125,0.2812 l 0,0.375 c 0,0.1595 0.0094,0.2718 -0.03125,0.3125 -0.03906,0.041 -0.136393,0.058 -0.28125,0.062 L 12.392028,1029.0251 Z"
         id="path1504"
         inkscape:connector-curvature="0" />
      <path
         id="path1488"
         d="m 17.360778,1026.6189 c -0.104167,0.02 -0.226237,0.054 -0.3125,0.094 -0.172526,0.078 -0.296875,0.2037 -0.375,0.3437 -0.05407,0.099 -0.0528,0.2595 -0.0625,0.4375 0.01387,-0.1087 0.02425,-0.2113 0.0625,-0.2812 0.07813,-0.14 0.202474,-0.2657 0.375,-0.3438 0.08626,-0.04 0.208333,-0.074 0.3125,-0.094 0.104167,-0.02 0.19043,10e-5 0.3125,0 0.266927,0 0.500325,0.039 0.6875,0.125 0.188802,0.086 0.31478,0.1807 0.375,0.3125 0.03092,0.065 0.04679,0.1415 0.0625,0.25 -0.01349,-0.1748 -0.01975,-0.3162 -0.0625,-0.4062 -0.06022,-0.1319 -0.186198,-0.2263 -0.375,-0.3125 -0.187175,-0.086 -0.420573,-0.125 -0.6875,-0.125 C 17.551208,1026.6189 17.464945,1026.5989 17.360778,1026.6189 z m -6,0.062 0,0.1562 1.03125,0 c 0.323893,0 0.552735,0.043 0.71875,0.094 0.167643,0.051 0.303711,0.1267 0.40625,0.2813 0.05127,0.077 0.09875,0.1868 0.125,0.3125 -0.02312,-0.1927 -0.05551,-0.3651 -0.125,-0.4688 -0.102539,-0.1547 -0.238607,-0.2308 -0.40625,-0.2812 -0.166015,-0.05 -0.394857,-0.094 -0.71875,-0.094 L 11.360778,1026.6814 z m 3.03125,0 -0.5,3.9687 0.03125,0 0.46875,-3.8125 1.5,0 0.5625,3.8125 0.03125,0 -0.59375,-3.9687 L 14.392028,1026.6814 z m 4.84375,0 0,0.1562 1.71875,0 0,-0.1562 L 19.235778,1026.6814 z m -1.65625,1.1875 c 0.0028,0.052 -0.01965,0.1196 0,0.1562 0.03418,0.067 0.152995,0.1556 0.3125,0.25 0.457357,0.2717 0.724935,0.482 0.84375,0.6563 0.111499,0.1634 0.179632,0.4297 0.1875,0.7812 8.57e-4,-0.033 0,-0.059 0,-0.094 0,-0.3874 -0.06869,-0.6695 -0.1875,-0.8436 -0.118815,-0.1742 -0.386393,-0.3845 -0.84375,-0.6564 C 17.732523,1028.0245 17.613708,1027.9356 17.579528,1027.8689 z m -4.90625,0.3125 c -0.02767,0.049 -0.08659,0.062 -0.1875,0.062 -0.02441,0 -0.0498,-10e-4 -0.09375,0 l 0,0.1561 c 0.04395,-10e-4 0.06934,0 0.09375,0 0.10091,0 0.15983,-0.014 0.1875,-0.062 C 12.683103,1028.3197 12.668609,1028.2242 12.673278,1028.1814 z m 7.59375,0.031 0,0.1561 0.65625,0 0,-0.1561 L 20.267028,1028.2126 z m -6.875,0.375 c -0.06929,0.025 -0.15468,0.041 -0.25,0.062 0.23763,0.054 0.38411,0.1559 0.46875,0.2812 0.04232,0.062 0.07308,0.1257 0.09375,0.2188 -0.01629,-0.1563 -0.03235,-0.2841 -0.09375,-0.3738 C 13.562789,1028.7041 13.485127,1028.6392 13.392028,1028.5876 z m 3.21875,0.625 0,0.1561 0.9375,0 0,-0.1561 L 16.610778,1029.2126 z m -1.59375,0.031 c -0.0035,0.037 -0.02882,0.1234 -0.03125,0.1561 l 0.375,0 c -0.0048,-0.041 0.0048,-0.1129 0,-0.1561 L 15.017028,1029.2439 z m 2.53125,0.4686 0,0.1564 c 0,0.1481 0.03646,0.2389 0.0625,0.2811 0.02767,0.042 0.05664,0.062 0.125,0.062 0.06836,0 0.1237,-0.04 0.15625,-0.094 0.03418,-0.054 0.0625,-0.113 0.0625,-0.2187 0,-0.051 0.0029,-0.081 0,-0.125 -0.0062,0.082 -0.03283,0.1408 -0.0625,0.1875 -0.03255,0.054 -0.08789,0.094 -0.15625,0.094 -0.06836,0 -0.09733,-0.02 -0.125,-0.062 C 17.584738,1029.9515 17.548278,1029.8606 17.548278,1029.7126 z m -4.84375,0.062 c -0.0027,0.053 -0.01091,0.1047 -0.03125,0.125 -0.03906,0.041 -0.136393,0.058 -0.28125,0.062 l 0,0.1563 c 0.144857,0 0.24219,-0.022 0.28125,-0.062 C 12.710541,1030.0191 12.705586,1029.914 12.704528,1029.7751 z m 7.5625,0.062 0,0.1563 0.75,0 0,-0.1563 L 20.267028,1029.8376 Z"
         style="font-size:5px;font-style:normal;font-variant:normal;font-weight:normal;font-stretch:normal;line-height:125%;letter-spacing:0px;word-spacing:0px;fill:#000000;fill-opacity:0.39215686;stroke:none;font-family:Impact;-inkscape-font-specification:Impact"
         inkscape:connector-curvature="0" />
      <path
         id="path1507"
         d="m 17.642028,1027.4314 c -0.02726,0.01 -0.04622,0.037 -0.0625,0.062 -0.03093,0.051 -0.03125,0.1474 -0.03125,0.25 0,0.043 -6.15e-4,0.06 0,0.094 0.0015,-0.073 0.0079,-0.1495 0.03125,-0.1875 0.03256,-0.05 0.0944,-0.062 0.15625,-0.062 0.05697,0 0.06934,0.025 0.09375,0.062 0.02441,0.037 0.0625,0.1133 0.0625,0.25 l 0,-0.1563 c 0,-0.1367 -0.03809,-0.2127 -0.0625,-0.25 -0.02441,-0.037 -0.03678,-0.062 -0.09375,-0.062 C 17.704853,1027.4314 17.669289,1027.4221 17.642028,1027.4314 z m -5.25,0.094 0,0.1562 c 0.105795,0 0.182944,0.018 0.21875,0.031 0.03743,0.013 0.03971,0.043 0.0625,0.094 0.01718,0.037 0.02784,0.1106 0.03125,0.1875 5.25e-4,-0.042 0,-0.044 0,-0.094 0,-0.1237 -0.0085,-0.2012 -0.03125,-0.25 -0.02279,-0.05 -0.02507,-0.081 -0.0625,-0.094 C 12.574972,1027.5431 12.497823,1027.5271 12.392028,1027.5251 z m 7.875,0.125 0,0.1562 0.6875,0 0,-0.1562 L 20.267028,1027.6501 z m -5.0625,0.062 c -0.104167,0.7552 -0.192709,1.3375 -0.21875,1.6875 l 0.03125,0 c 0.03382,-0.3562 0.09306,-0.8466 0.1875,-1.5313 C 15.199747,1027.8098 15.209309,1027.773 15.204528,1027.7126 z m 2.6875,0.3125 0,0.1562 0.9375,0 0,-0.1562 L 17.892028,1028.0251 z m -1.3125,0.125 c 0.0044,0.154 0.02072,0.3011 0.0625,0.4062 0.05534,0.1351 0.135743,0.236 0.21875,0.3125 0.08301,0.077 0.244466,0.2057 0.5,0.375 0.09489,0.062 0.115566,0.079 0.1875,0.125 0.121774,0.078 0.271571,0.1737 0.3125,0.2188 0.03174,0.036 0.047,0.1083 0.0625,0.1875 -0.01069,-0.1554 -0.01334,-0.2883 -0.0625,-0.3438 -0.06511,-0.072 -0.244469,-0.1761 -0.5,-0.3437 -0.255534,-0.1693 -0.41699,-0.2985 -0.5,-0.375 -0.08301,-0.077 -0.16341,-0.1774 -0.21875,-0.3125 C 16.615178,1028.3326 16.58844,1028.2398 16.579528,1028.1501 z m -2.9375,0.125 c -0.01428,0.085 -0.02588,0.1419 -0.0625,0.1875 -0.07161,0.091 -0.224284,0.1387 -0.4375,0.1875 0.102891,0.023 0.178907,0.054 0.25,0.094 0.0857,-0.031 0.147901,-0.075 0.1875,-0.125 C 13.634278,1028.5507 13.632751,1028.4261 13.642028,1028.2751 z m -1.25,0.75 0,0.1562 c 0.152995,0 0.245446,0.027 0.28125,0.062 -0.0028,-0.053 0.01965,-0.1366 0,-0.1561 C 12.637474,1029.0518 12.545023,1029.03 12.392028,1029.0251 z m 7.875,0.125 0,0.1562 0.65625,0 0,-0.1562 L 20.267028,1029.1501 z m -3.625,0.9063 c 0.01386,0.1763 0.02088,0.3261 0.0625,0.4375 0.06022,0.1611 0.181315,0.2708 0.375,0.375 0.195313,0.1041 0.412435,0.1562 0.6875,0.1562 0.250651,0 0.498698,-0.035 0.6875,-0.125 0.1888,-0.091 0.309893,-0.2103 0.375,-0.3437 0.04717,-0.094 0.05053,-0.2372 0.0625,-0.4063 -0.0151,0.1044 -0.02913,0.1833 -0.0625,0.25 -0.06511,0.1335 -0.1862,0.2526 -0.375,0.3438 -0.188802,0.09 -0.436849,0.125 -0.6875,0.125 -0.275065,0 -0.492187,-0.052 -0.6875,-0.1563 -0.193685,-0.1042 -0.31478,-0.2139 -0.375,-0.375 C 16.674418,1030.2571 16.657938,1030.1711 16.642028,1030.0564 z m -1.625,0.031 0,0.1562 0.375,0 0,-0.1562 L 15.017028,1030.0876 z m -1.3125,0.125 c -0.01571,0.099 -0.03158,0.1857 -0.0625,0.25 -0.06022,0.1285 -0.147785,0.2028 -0.28125,0.25 -0.133464,0.047 -0.399089,0.094 -0.8125,0.094 l -1.1875,0 0,0.1562 1.1875,0 c 0.413411,0 0.679036,-0.047 0.8125,-0.094 0.133465,-0.047 0.22103,-0.1214 0.28125,-0.25 C 13.686892,1030.5256 13.691926,1030.3788 13.704528,1030.2126 z m 0.21875,0.5938 -0.03125,0.1562 1.0625,0 0,-0.1562 L 13.923278,1030.8064 z m 1.5,0 0,0.1562 1.0625,0 -0.03125,-0.1562 L 15.423278,1030.8064 z m 3.8125,0 0,0.1562 1.78125,0 0,-0.1562 L 19.235778,1030.8064 Z"
         style="font-size:5px;font-style:normal;font-variant:normal;font-weight:normal;font-stretch:normal;line-height:125%;letter-spacing:0px;word-spacing:0px;fill:#ffffff;fill-opacity:0.54901961;stroke:none;font-family:Impact;-inkscape-font-specification:Impact"
         inkscape:connector-curvature="0" />
    </g>
  </g>
</svg>
