<?xml version="1.0" encoding="UTF-8" standalone="no"?>
<!-- Created with Inkscape (http://www.inkscape.org/) -->

<svg
   xmlns:dc="http://purl.org/dc/elements/1.1/"
   xmlns:cc="http://creativecommons.org/ns#"
   xmlns:rdf="http://www.w3.org/1999/02/22-rdf-syntax-ns#"
   xmlns:svg="http://www.w3.org/2000/svg"
   xmlns="http://www.w3.org/2000/svg"
   xmlns:xlink="http://www.w3.org/1999/xlink"
   xmlns:sodipodi="http://sodipodi.sourceforge.net/DTD/sodipodi-0.dtd"
   xmlns:inkscape="http://www.inkscape.org/namespaces/inkscape"
   width="48"
   height="48"
   id="svg2"
   version="1.1"
   inkscape:version="0.48+devel r12068"
   sodipodi:docname="libreoffice-writer.svg">
  <defs
     id="defs4">
    <linearGradient
       id="linearGradient3795">
      <stop
         style="stop-color:#13a6fd;stop-opacity:1;"
         offset="0"
         id="stop3797" />
      <stop
         style="stop-color:#2975b6;stop-opacity:1;"
         offset="1"
         id="stop3799" />
    </linearGradient>
    <linearGradient
       gradientTransform="matrix(0.80813804,0,0,0.80813804,3.130727,1007.2408)"
       inkscape:collect="always"
       xlink:href="#linearGradient3795"
       id="linearGradient4573"
       x1="19.734877"
       y1="20.913715"
       x2="19.734877"
       y2="33.109589"
       gradientUnits="userSpaceOnUse" />
  </defs>
  <sodipodi:namedview
     id="base"
     pagecolor="#ffffff"
     bordercolor="#666666"
     borderopacity="1.0"
     inkscape:pageopacity="0.0"
     inkscape:pageshadow="2"
     inkscape:zoom="5.6568543"
     inkscape:cx="-0.60890167"
     inkscape:cy="33.648617"
     inkscape:document-units="px"
     inkscape:current-layer="layer1"
     showgrid="false"
     inkscape:window-width="1366"
     inkscape:window-height="718"
     inkscape:window-x="0"
     inkscape:window-y="28"
     inkscape:window-maximized="1">
    <inkscape:grid
       type="xygrid"
       id="grid3850" />
  </sodipodi:namedview>
  <metadata
     id="metadata7">
    <rdf:RDF>
      <cc:Work
         rdf:about="">
        <dc:format>image/svg+xml</dc:format>
        <dc:type
           rdf:resource="http://purl.org/dc/dcmitype/StillImage" />
        <dc:title />
      </cc:Work>
    </rdf:RDF>
  </metadata>
  <g
     inkscape:label="Capa 1"
     inkscape:groupmode="layer"
     id="layer1"
     transform="translate(0,-1004.3622)">
    <rect
       style="fill:#ffffff;fill-opacity:1;stroke:none"
       id="rect2991-1"
       width="48"
       height="48"
       x="-1.8146973e-06"
       y="-1052.3622"
       ry="1.9445436"
       transform="scale(1,-1)" />
    <path
       inkscape:connector-curvature="0"
       style="fill:#000000;fill-opacity:1;stroke:none"
       d="m -2e-6,1049.3622 0,1.0625 c 0,1.0773 0.860223,1.9375 1.9375,1.9375 l 44.125004,0 c 1.07727,0 1.9375,-0.8602 1.9375,-1.9375 l 0,-1.0625 c 0,1.0773 -0.86023,1.9375 -1.9375,1.9375 l -44.125004,0 C 0.860221,1051.2997 -2e-6,1050.4395 -2e-6,1049.3622 Z"
       id="rect846" />
    <path
       inkscape:connector-curvature="0"
       style="fill:#ffffff;fill-opacity:0.5372549;stroke:none"
       d="m 2.531248,1005.0185 c -0.917089,0 -1.671147,0.6395 -1.84375,1.5 0.335612,-0.2799 0.774512,-0.4375 1.25,-0.4375 l 44.125004,0 c 0.47548,0 0.91438,0.1576 1.25,0.4375 -0.17261,-0.8605 -0.92667,-1.5 -1.84375,-1.5 L 2.531248,1005.0185 Z"
       id="path7515" />
    <path
       inkscape:connector-curvature="0"
       style="fill:#000000;fill-opacity:0.39215686;stroke:none"
       d="m 1.937498,1004.3622 c -1.077277,0 -1.9375,0.8602 -1.9375,1.9375 l 0,43.0625 c 0,0.7934 0.480023,1.449 1.15625,1.75 -0.309342,-0.3333 -0.5,-0.7824 -0.5,-1.2812 l 0,-42.9375 c 0,-1.0482 0.826899,-1.875 1.875,-1.875 l 42.937504,0 c 1.0481,0 1.875,0.8268 1.875,1.875 l 0,42.9375 c 0,0.4988 -0.19066,0.9479 -0.5,1.2812 0.67622,-0.301 1.15625,-0.9566 1.15625,-1.75 l 0,-43.0625 c 0,-1.0773 -0.86023,-1.9375 -1.9375,-1.9375 L 1.937498,1004.3622 Z"
       id="rect4280-7" />
    <path
       sodipodi:nodetypes="ccccccccccc"
       inkscape:connector-curvature="0"
       id="path1324"
       d="m 11.834228,1012.3622 0,32 24.33154,0 -1.1e-5,-23.9375 -8.054952,0 L 28.110797,1012.3622 z m 18.458954,0 5.872584,5.8802 L 36.165741,1012.3622 Z"
       style="color:#000000;fill:#000000;fill-opacity:1;fill-rule:nonzero;stroke:none;stroke-width:1.39999998;marker:none;visibility:visible;display:inline;overflow:visible;enable-background:accumulate" />
    <path
       inkscape:connector-curvature="0"
       style="fill:#1e425a;fill-opacity:1;stroke:none"
       d="m 7.764743,1034.0198 4.065944,3.8386 0,-3.8386 L 7.764743,1034.0198 Z"
       id="path5343" />
    <rect
       style="color:#000000;fill:url(#linearGradient4573);fill-opacity:1;fill-rule:nonzero;stroke:none;stroke-width:0.2;marker:none;visibility:visible;display:inline;overflow:visible;enable-background:accumulate"
       id="rect4565"
       width="16.848322"
       height="10.412836"
       x="7.7647419"
       y="1023.611"
       ry="0" />
    <path
       style="color:#000000;fill:#ffffff;fill-opacity:0.48235294;fill-rule:nonzero;stroke:none;stroke-width:0.2;marker:none;visibility:visible;display:inline;overflow:visible;enable-background:accumulate"
       d="m 24.613065,1023.611 0,10.4047 -0.277798,0 0,-10.0764 -16.566828,0 0,-0.3283 L 24.613065,1023.611 Z"
       id="rect5380"
       inkscape:connector-curvature="0" />
    <path
       inkscape:connector-curvature="0"
       style="fill:#000000;fill-opacity:0.17647059;stroke:none"
       d="m 7.764743,1034.0198 4.065944,3.8386 0,-0.5808 -3.055772,-2.879 3.055772,0 0,-0.3788 L 7.764743,1034.0198 Z"
       id="path5393" />
    <path
       style="font-size:5px;font-style:normal;font-variant:normal;font-weight:bold;font-stretch:normal;line-height:125%;letter-spacing:0px;word-spacing:0px;fill:#000000;fill-opacity:0.39215686;stroke:none;font-family:Impact;-inkscape-font-specification:Impact Bold"
       d="m 11.656252,1026.6406 0,0.25 2.25,0 0,-0.25 L 11.656252,1026.6406 z m 2.5,0 0,0.25 1.71875,0 0,-0.25 L 14.156252,1026.6406 z m 1.875,0 0.0625,0.25 0.9375,0 c 0.0179,0.109 0.04004,0.3086 0.09375,0.5625 0.04232,0.1937 0.06608,0.3701 0.09375,0.5313 l 0.21875,-1.0938 0.8125,0 0.0625,-0.25 -0.875,0 -0.21875,1.0938 c -0.02767,-0.1611 -0.05143,-0.3376 -0.09375,-0.5313 -0.05371,-0.2539 -0.07585,-0.4535 -0.09375,-0.5625 L 16.031252,1026.6406 z m 2.4375,0 0,0.25 2.25,0 0,-0.25 L 18.468752,1026.6406 z m -3.28125,1.5625 0,0.25 0.625,0 0,-0.25 L 15.187502,1028.2031 z m 1.1875,0.3125 -0.34375,2.0938 0.03125,0 0.34375,-1.9688 L 16.375002,1028.5156 z m 1.59375,0 -0.03125,0.125 0.5,1.9688 0.0625,0 L 17.968752,1028.5156 z m -2.78125,1.2813 0,0.25 0.75,0 0,-0.25 L 15.187502,1029.7969 Z"
       id="path885"
       inkscape:connector-curvature="0" />
    <path
       style="font-size:5px;font-style:normal;font-variant:normal;font-weight:bold;font-stretch:normal;line-height:125%;letter-spacing:0px;word-spacing:0px;fill:#ffffff;fill-opacity:0.54901961;stroke:none;font-family:Impact;-inkscape-font-specification:Impact Bold"
       d="m 16.031252,1027.0069 0.34375,1.6562 0.03125,-0.094 -0.34375,-1.5625 L 16.031252,1027.0069 z m 2.25,0 -0.34375,1.5625 0.03125,0.094 0.34375,-1.6562 L 18.281252,1027.0069 z m -6.625,0.625 0,0.1875 0.625,0 0,-0.1875 L 11.656252,1027.6319 z m 1.65625,0 0,0.1875 0.59375,0 0,-0.1875 L 13.312502,1027.6319 z m 1.875,0 0,0.1875 0.6875,0 0,-0.1875 L 15.187502,1027.6319 z m 3.28125,0 0,0.1875 0.59375,0 0,-0.1875 L 18.468752,1027.6319 z m 1.625,0 0,0.1875 0.625,0 0,-0.1875 L 20.093752,1027.6319 z m -4.90625,1.5 0,0.1875 0.625,0 0,-0.1875 L 15.187502,1029.1319 z m 2.03125,0.2187 c -0.02604,0.249 -0.04818,0.5013 -0.09375,0.7813 l -0.09375,0.6562 -0.96875,0 -0.03125,0.1875 1,0 0.09375,-0.6562 c 0.04557,-0.28 0.06771,-0.5323 0.09375,-0.7813 0.0944,0.5648 0.198567,1.0436 0.3125,1.4375 l 0.96875,0 -0.0625,-0.1875 -0.90625,0 C 17.417319,1030.3942 17.313152,1029.9154 17.218752,1029.3506 z m -4.9375,1.4375 0,0.1875 1.03125,0 0,-0.1875 L 12.281252,1030.7881 z m 1.875,0 0,0.1875 1.78125,0 0,-0.1875 L 14.156252,1030.7881 z m 4.90625,0 0,0.1875 1.03125,0 0,-0.1875 L 19.062502,1030.7881 Z"
       id="path890"
       inkscape:connector-curvature="0" />
    <path
       style="font-size:5px;font-style:normal;font-variant:normal;font-weight:bold;font-stretch:normal;line-height:125%;letter-spacing:0px;word-spacing:0px;fill:#ffffff;fill-opacity:1;stroke:none;font-family:Impact;-inkscape-font-specification:Impact Bold"
       d="m 11.656252,1026.831 0,0.8125 0.625,0 0,3.1562 1.03125,0 0,-3.1562 0.59375,0 0,-0.8125 L 11.656252,1026.831 z m 2.5,0 0,3.9687 1.78125,0 0,-0.8125 -0.75,0 0,-0.8437 0.625,0 0,-0.75 -0.625,0 0,-0.75 0.6875,0 0,-0.8125 L 14.156252,1026.831 z m 1.875,0 0.375,1.75 -0.375,2.2187 1,0 0.09375,-0.6562 c 0.04557,-0.28 0.06771,-0.5323 0.09375,-0.7813 0.0944,0.5648 0.198567,1.0436 0.3125,1.4375 l 0.96875,0 -0.5625,-2.2187 0.375,-1.75 -0.875,0 -0.21875,1.0937 c -0.02767,-0.1611 -0.05143,-0.3376 -0.09375,-0.5312 -0.05371,-0.254 -0.07585,-0.4535 -0.09375,-0.5625 L 16.031252,1026.831 z m 2.4375,0 0,0.8125 0.59375,0 0,3.1562 1.03125,0 0,-3.1562 0.625,0 0,-0.8125 L 18.468752,1026.831 Z"
       id="path872"
       inkscape:connector-curvature="0" />
  </g>
</svg>
