<?xml version="1.0" encoding="UTF-8" standalone="no"?>
<!-- Created with Inkscape (http://www.inkscape.org/) -->

<svg
   xmlns:dc="http://purl.org/dc/elements/1.1/"
   xmlns:cc="http://creativecommons.org/ns#"
   xmlns:rdf="http://www.w3.org/1999/02/22-rdf-syntax-ns#"
   xmlns:svg="http://www.w3.org/2000/svg"
   xmlns="http://www.w3.org/2000/svg"
   xmlns:xlink="http://www.w3.org/1999/xlink"
   xmlns:sodipodi="http://sodipodi.sourceforge.net/DTD/sodipodi-0.dtd"
   xmlns:inkscape="http://www.inkscape.org/namespaces/inkscape"
   width="48"
   height="48"
   id="svg2"
   version="1.1"
   inkscape:version="0.48+devel r12149"
   sodipodi:docname="evolution.svg">
  <defs
     id="defs4">
    <linearGradient
       inkscape:collect="always"
       id="linearGradient1433">
      <stop
         style="stop-color:#ededed;stop-opacity:1"
         offset="0"
         id="stop1435" />
      <stop
         style="stop-color:#ffffff;stop-opacity:1"
         offset="1"
         id="stop1437" />
    </linearGradient>
    <linearGradient
       inkscape:collect="always"
       xlink:href="#linearGradient1433"
       id="linearGradient1439"
       x1="15.909904"
       y1="-1051.8319"
       x2="15.909904"
       y2="-1005.5164"
       gradientUnits="userSpaceOnUse" />
    <linearGradient
       inkscape:collect="always"
       xlink:href="#linearGradient1433"
       id="linearGradient1452"
       x1="26.465649"
       y1="47.308418"
       x2="26.465649"
       y2="29.079058"
       gradientUnits="userSpaceOnUse"
       gradientTransform="matrix(1.5941642,0,0,1.5941642,-14.259948,-27.25066)" />
    <linearGradient
       inkscape:collect="always"
       xlink:href="#linearGradient1433"
       id="linearGradient1489"
       gradientUnits="userSpaceOnUse"
       gradientTransform="matrix(1.5941642,0,0,-1.5941642,-14.259948,75.2506)"
       x1="26.465649"
       y1="16.963364"
       x2="26.465649"
       y2="47.113586" />
  </defs>
  <sodipodi:namedview
     id="base"
     pagecolor="#ffffff"
     bordercolor="#666666"
     borderopacity="1.0"
     inkscape:pageopacity="0.0"
     inkscape:pageshadow="2"
     inkscape:zoom="7.9999996"
     inkscape:cx="32.632059"
     inkscape:cy="26.076578"
     inkscape:document-units="px"
     inkscape:current-layer="layer1"
     showgrid="false"
     inkscape:window-width="1366"
     inkscape:window-height="716"
     inkscape:window-x="0"
     inkscape:window-y="28"
     inkscape:window-maximized="1">
    <inkscape:grid
       type="xygrid"
       id="grid3850" />
  </sodipodi:namedview>
  <metadata
     id="metadata7">
    <rdf:RDF>
      <cc:Work
         rdf:about="">
        <dc:format>image/svg+xml</dc:format>
        <dc:type
           rdf:resource="http://purl.org/dc/dcmitype/StillImage" />
        <dc:title />
      </cc:Work>
    </rdf:RDF>
  </metadata>
  <g
     inkscape:label="Capa 1"
     inkscape:groupmode="layer"
     id="layer1"
     transform="translate(0,-1004.3622)">
    <rect
       style="fill:url(#linearGradient1439);fill-opacity:1;stroke:none"
       id="rect2991-1"
       width="48"
       height="48"
       x="6.2698362e-09"
       y="-1052.3622"
       ry="1.9445436"
       transform="scale(1,-1)" />
    <path
       style="color:#000000;fill:#000000;fill-opacity:0.30337077;fill-rule:nonzero;stroke:none;stroke-width:0.2;marker:none;visibility:visible;display:inline;overflow:visible;enable-background:accumulate"
       d="M 24 18.71875 L 0 37.5 L 0 46.0625 C 0 47.139777 0.86022285 48 1.9375 48 L 46.0625 48 C 47.139777 48 48 47.139777 48 46.0625 L 48 37.5 L 24 18.71875 z "
       transform="translate(0,1004.3622)"
       id="path1466" />
    <path
       style="color:#000000;fill:url(#linearGradient1452);fill-opacity:1;fill-rule:nonzero;stroke:none;stroke-width:0.2;marker:none;visibility:visible;display:inline;overflow:visible;enable-background:accumulate"
       d="M 24 19.375 L 0 38.125 L 0 46.0625 C 0 47.139777 0.86022285 48 1.9375 48 L 46.0625 48 C 47.139777 48 48 47.139777 48 46.0625 L 48 38.125 L 24 19.375 z "
       transform="translate(0,1004.3622)"
       id="path1441" />
    <path
       style="color:#000000;fill:#000000;fill-opacity:0.30337077;fill-rule:nonzero;stroke:none;stroke-width:0.2;marker:none;visibility:visible;display:inline;overflow:visible;enable-background:accumulate"
       d="M 1.9375 0 C 0.86022285 0 0 0.86022285 0 1.9375 L 0 10.5 L 24 29.28125 L 48 10.5 L 48 1.9375 C 48 0.86022285 47.139777 0 46.0625 0 L 1.9375 0 z "
       transform="translate(0,1004.3622)"
       id="path1485" />
    <path
       style="color:#000000;fill:url(#linearGradient1489);fill-opacity:1;fill-rule:nonzero;stroke:none;stroke-width:0.2;marker:none;visibility:visible;display:inline;overflow:visible;enable-background:accumulate"
       d="M 1.9375 0 C 0.86022285 0 0 0.86022285 0 1.9375 L 0 9.875 L 24 28.625 L 48 9.875 L 48 1.9375 C 48 0.86022285 47.139777 0 46.0625 0 L 1.9375 0 z "
       transform="translate(0,1004.3622)"
       id="path1487" />
    <path
       inkscape:connector-curvature="0"
       style="fill:#000000;fill-opacity:1;stroke:none"
       d="m -2.5e-6,1049.3622 0,1.0625 c 0,1.0773 0.860223,1.9375 1.9375,1.9375 l 44.1249995,0 c 1.077277,0 1.937505,-0.8602 1.937505,-1.9375 l 0,-1.0625 c 0,1.0773 -0.860228,1.9375 -1.937505,1.9375 l -44.1249995,0 C 0.8602205,1051.2997 -2.5e-6,1050.4395 -2.5e-6,1049.3622 Z"
       id="rect846" />
    <path
       inkscape:connector-curvature="0"
       style="fill:#ffffff;fill-opacity:0.5372549;stroke:none"
       d="m 2.5312475,1005.0185 c -0.917088,0 -1.671147,0.6395 -1.84375,1.5 0.335612,-0.2799 0.774512,-0.4375 1.25,-0.4375 l 44.1249995,0 c 0.475488,0 0.914388,0.1576 1.250005,0.4375 -0.172608,-0.8605 -0.926667,-1.5 -1.843755,-1.5 L 2.5312475,1005.0185 Z"
       id="path7515" />
    <path
       inkscape:connector-curvature="0"
       style="fill:#000000;fill-opacity:0.39215686;stroke:none"
       d="m 1.9374975,1004.3622 c -1.077277,0 -1.9375,0.8602 -1.9375,1.9375 l 0,43.0625 c 0,0.7934 0.480024,1.449 1.15625,1.75 -0.309342,-0.3333 -0.5,-0.7824 -0.5,-1.2812 l 0,-42.9375 c 0,-1.0482 0.826899,-1.875 1.875,-1.875 l 42.9374995,0 c 1.048101,0 1.875005,0.8268 1.875005,1.875 l 0,42.9375 c 0,0.4988 -0.190663,0.9479 -0.500005,1.2812 0.676225,-0.301 1.156255,-0.9566 1.156255,-1.75 l 0,-43.0625 c 0,-1.0773 -0.860228,-1.9375 -1.937505,-1.9375 L 1.9374975,1004.3622 Z"
       id="rect4280-0" />
    <path
       style="color:#000000;fill:#ffffff;fill-opacity:0.05847952;fill-rule:nonzero;stroke:none;stroke-width:0.2;marker:none;visibility:visible;display:inline;overflow:visible;enable-background:accumulate"
       d="M 24,1023.7372 2e-7,1042.5185 l 0,0.9062 L 24,1024.6435 l 24,18.7812 0,-0.9062 L 24,1023.7372 Z"
       id="path955"
       inkscape:connector-curvature="0" />
    <path
       inkscape:connector-curvature="0"
       id="path960"
       d="M 24,1032.9872 2e-7,1014.2059 l 0,-0.9062 L 24,1032.0809 l 24,-18.7812 0,0.9062 L 24,1032.9872 Z"
       style="color:#000000;fill:#ffffff;fill-opacity:0.05847952;fill-rule:nonzero;stroke:none;stroke-width:0.2;marker:none;visibility:visible;display:inline;overflow:visible;enable-background:accumulate" />
  </g>
</svg>
