<?xml version="1.0" encoding="UTF-8" standalone="no"?>
<!-- Created with Inkscape (http://www.inkscape.org/) -->

<svg
   xmlns:dc="http://purl.org/dc/elements/1.1/"
   xmlns:cc="http://creativecommons.org/ns#"
   xmlns:rdf="http://www.w3.org/1999/02/22-rdf-syntax-ns#"
   xmlns:svg="http://www.w3.org/2000/svg"
   xmlns="http://www.w3.org/2000/svg"
   xmlns:xlink="http://www.w3.org/1999/xlink"
   xmlns:sodipodi="http://sodipodi.sourceforge.net/DTD/sodipodi-0.dtd"
   xmlns:inkscape="http://www.inkscape.org/namespaces/inkscape"
   width="48"
   height="48"
   id="svg1593"
   version="1.1"
   inkscape:version="0.48+devel r12064"
   sodipodi:docname="makehuman.svg">
  <defs
     id="defs1595">
    <linearGradient
       inkscape:collect="always"
       id="linearGradient824">
      <stop
         style="stop-color:#262626;stop-opacity:1"
         offset="0"
         id="stop826" />
      <stop
         style="stop-color:#424242;stop-opacity:1"
         offset="1"
         id="stop828" />
    </linearGradient>
    <linearGradient
       inkscape:collect="always"
       xlink:href="#linearGradient824"
       id="linearGradient830"
       x1="23.157747"
       y1="-1052.5389"
       x2="23.157747"
       y2="-1004.6325"
       gradientUnits="userSpaceOnUse" />
  </defs>
  <sodipodi:namedview
     id="base"
     pagecolor="#ffffff"
     bordercolor="#666666"
     borderopacity="1.0"
     inkscape:pageopacity="0.0"
     inkscape:pageshadow="2"
     inkscape:zoom="8"
     inkscape:cx="11.108028"
     inkscape:cy="24.180149"
     inkscape:document-units="px"
     inkscape:current-layer="layer1"
     showgrid="false"
     inkscape:window-width="1366"
     inkscape:window-height="718"
     inkscape:window-x="0"
     inkscape:window-y="28"
     inkscape:window-maximized="1" />
  <metadata
     id="metadata1598">
    <rdf:RDF>
      <cc:Work
         rdf:about="">
        <dc:format>image/svg+xml</dc:format>
        <dc:type
           rdf:resource="http://purl.org/dc/dcmitype/StillImage" />
        <dc:title />
      </cc:Work>
    </rdf:RDF>
  </metadata>
  <g
     inkscape:label="Capa 1"
     inkscape:groupmode="layer"
     id="layer1"
     transform="translate(0,-1004.3622)">
    <rect
       style="fill:url(#linearGradient830);fill-opacity:1;stroke:none"
       id="rect2991-1-7"
       width="48"
       height="48"
       x="-4.7314452e-07"
       y="-1052.3622"
       ry="1.9445436"
       transform="scale(1,-1)" />
    <path
       inkscape:connector-curvature="0"
       style="fill:#000000;fill-opacity:1;stroke:none"
       d="m 4.7314454e-7,1049.3622 0,1.0625 c 0,1.0773 0.86022299685546,1.9375 1.93750002685546,1.9375 l 44.1249995,0 c 1.077277,0 1.9375,-0.8602 1.9375,-1.9375 l 0,-1.0625 c 0,1.0773 -0.860223,1.9375 -1.9375,1.9375 l -44.1249995,0 C 0.86022347,1051.2997 4.7314454e-7,1050.4395 4.7314454e-7,1049.3622 Z"
       id="rect846" />
    <path
       inkscape:connector-curvature="0"
       style="fill:#ffffff;fill-opacity:0.5372549;stroke:none"
       d="m 2.5312505,1005.0185 c -0.917088,0 -1.67114703,0.6395 -1.84375003,1.5 0.33561203,-0.2799 0.77451203,-0.4375 1.25000003,-0.4375 l 44.1249995,0 c 0.475488,0 0.914388,0.1576 1.25,0.4375 -0.172603,-0.8605 -0.926662,-1.5 -1.84375,-1.5 L 2.5312505,1005.0185 Z"
       id="path7515" />
    <path
       inkscape:connector-curvature="0"
       style="fill:#000000;fill-opacity:0.39215686;stroke:none"
       d="m 1.9375005,1004.3622 c -1.07727703,0 -1.93750002685546,0.8602 -1.93750002685546,1.9375 l 0,43.0625 c 0,0.7934 0.48002399685546,1.449 1.15625002685546,1.75 -0.30934203,-0.3333 -0.50000003,-0.7824 -0.50000003,-1.2812 l 0,-42.9375 c 0,-1.0482 0.82689903,-1.875 1.87500003,-1.875 l 42.9374995,0 c 1.048101,0 1.875,0.8268 1.875,1.875 l 0,42.9375 c 0,0.4988 -0.190658,0.9479 -0.5,1.2812 0.676226,-0.301 1.15625,-0.9566 1.15625,-1.75 l 0,-43.0625 c 0,-1.0773 -0.860223,-1.9375 -1.9375,-1.9375 L 1.9375005,1004.3622 Z"
       id="rect4280-7" />
    <path
       style="fill:#ffffff;fill-opacity:0.25294118"
       d="m 21.378807,1015.9208 c -0.07817,0.4605 0.0077,0.8701 0.301286,1.4763 0.263519,0.5443 0.575174,0.8778 1.11476,1.1449 0.948838,0.47 1.445894,0.467 2.410292,0 0.80875,-0.3911 1.506433,-1.4621 1.506433,-2.32 0,-0.046 -0.04829,-0.1444 -0.06026,-0.2108 -0.166055,0.769 -0.75796,1.5953 -1.446175,1.9282 -0.964398,0.467 -1.461454,0.47 -2.410292,0 -0.539586,-0.267 -0.851241,-0.6005 -1.11476,-1.1449 C 21.512795,1016.4491 21.425419,1016.1836 21.378807,1015.9208 z m -11.177729,0.5122 c -0.02751,0.028 2.017844,1.1815 4.549426,2.5609 2.997638,1.6336 4.644259,2.6562 4.730198,2.8923 0.07261,0.1993 0.907254,5.3348 1.837847,11.4188 l 1.687205,11.0572 0,-0.6026 -1.687205,-11.0571 c -0.930593,-6.0841 -1.76524,-11.2196 -1.837847,-11.4188 -0.08594,-0.2362 -1.73256,-1.2286 -4.730198,-2.8622 -1.062326,-0.5789 -1.937038,-1.0741 -2.711579,-1.5065 C 11.350526,1016.7412 10.212165,1016.422 10.201078,1016.433 z m 27.597843,0 c -0.01109,-0.012 -1.149448,0.3083 -1.837848,0.482 -0.774543,0.4324 -1.649253,0.9276 -2.711578,1.5065 -2.997639,1.6336 -4.644257,2.626 -4.730198,2.8622 -0.07258,0.1992 -0.907255,5.3347 -1.837848,11.4188 l -1.687204,11.0571 0,0.6026 1.687204,-11.0572 c 0.930593,-6.084 1.765269,-11.2195 1.837848,-11.4188 0.08594,-0.2361 1.732559,-1.2587 4.730198,-2.8923 C 35.781077,1017.6145 37.826452,1016.4606 37.798921,1016.433 z m -14.702781,10.8764 0,0.6026 0.903859,0 0.90386,0 0,-0.6026 -0.90386,0 L 23.09614,1027.3094 Z"
       id="path832"
       inkscape:connector-curvature="0" />
    <path
       style="fill:#000000;fill-opacity:0.77647059"
       d="m 23.999999,1012.3622 c -0.857934,0 -1.928396,0.6978 -2.319906,1.5064 -0.271523,0.5609 -0.376335,0.9677 -0.331415,1.386 0.03114,-0.3018 0.135479,-0.6198 0.331415,-1.0244 0.39151,-0.8086 1.461972,-1.5065 2.319906,-1.5065 0.857937,0 1.928395,0.6979 2.319906,1.5065 0.186505,0.3852 0.336377,0.8559 0.361544,1.1147 0.01404,-0.092 0.03013,-0.1833 0.03013,-0.2711 0,-0.2344 -0.187778,-0.7839 -0.391673,-1.2052 C 25.928394,1013.06 24.857936,1012.3622 23.999999,1012.3622 z m -13.798921,2.9224 c -0.01122,0.012 0.513515,0.3085 1.084631,0.6328 1.262211,0.3018 4.876804,1.2704 11.1476,2.9526 l 0.662831,0.1808 0,-0.3616 -0.662831,-0.1808 C 14.937212,1016.4976 10.24099,1015.2452 10.201078,1015.2846 z m 27.597843,0 c -0.03992,-0.042 -4.736134,1.213 -12.232232,3.2238 l -0.66283,0.1808 0,0.3616 0.66283,-0.1808 c 6.270797,-1.6822 9.885384,-2.6518 11.1476,-2.9526 C 37.285406,1015.5931 37.810146,1015.2959 37.798921,1015.2846 z m -14.702781,7.8637 0,0.3615 0.903859,0 0.90386,0 0,-0.3615 -0.90386,0 L 23.09614,1023.1483 Z"
       id="path837"
       inkscape:connector-curvature="0" />
    <path
       style="fill:#ff9933;fill-opacity:1"
       d="m 24.000048,1027.3099 0.896128,0 0.04678,8.2278 0.04678,8.228 1.691978,-11.062 c 0.930594,-6.084 1.751368,-11.2252 1.823947,-11.4245 0.08594,-0.2361 1.737186,-1.2371 4.734825,-2.8707 2.531583,-1.3794 4.58035,-2.5309 4.552819,-2.5585 -0.03992,-0.042 -4.72263,1.1845 -12.218728,3.1954 l -0.674819,0.1807 0,2.2427 0,2.2421 -0.899758,0 -0.899758,0 0,-2.2421 0,-2.2427 -0.674818,-0.1807 c -7.496098,-2.0109 -12.178815,-3.2348 -12.218727,-3.1954 -0.02751,0.028 2.021237,1.1791 4.552819,2.5585 2.997637,1.6336 4.648886,2.6346 4.734824,2.8707 0.07261,0.1993 0.893354,5.3405 1.823947,11.4245 l 1.691979,11.062 0.04678,-8.228 L 23.103917,1027.3099 z m 1.19203,-9.3683 c 0.80875,-0.3911 1.507243,-1.4704 1.507243,-2.3283 0,-0.2344 -0.166824,-0.7709 -0.370719,-1.1921 -0.391512,-0.8086 -1.470617,-1.5072 -2.328554,-1.5072 -0.857933,0 -1.937041,0.6986 -2.328551,1.5072 -0.465468,0.9614 -0.465795,1.4219 -0.0015,2.3805 0.263519,0.5443 0.585111,0.8694 1.124698,1.1365 C 23.74349,1018.4082 24.22768,1018.4087 25.192078,1017.9416 Z"
       id="path1369"
       inkscape:connector-curvature="0"
       sodipodi:nodetypes="ccccscccccccccccccccscccccscscccc" />
  </g>
</svg>
