<?xml version="1.0" encoding="UTF-8" standalone="no"?>
<!-- Created with Inkscape (http://www.inkscape.org/) -->

<svg
   xmlns:dc="http://purl.org/dc/elements/1.1/"
   xmlns:cc="http://creativecommons.org/ns#"
   xmlns:rdf="http://www.w3.org/1999/02/22-rdf-syntax-ns#"
   xmlns:svg="http://www.w3.org/2000/svg"
   xmlns="http://www.w3.org/2000/svg"
   xmlns:xlink="http://www.w3.org/1999/xlink"
   xmlns:sodipodi="http://sodipodi.sourceforge.net/DTD/sodipodi-0.dtd"
   xmlns:inkscape="http://www.inkscape.org/namespaces/inkscape"
   width="48"
   height="48"
   id="svg2"
   version="1.1"
   inkscape:version="0.48+devel r12137"
   sodipodi:docname="mediainfo-gui.svg">
  <defs
     id="defs4">
    <linearGradient
       id="linearGradient890">
      <stop
         id="stop892"
         offset="0"
         style="stop-color:#aad400;stop-opacity:1" />
      <stop
         id="stop894"
         offset="1"
         style="stop-color:#cdde87;stop-opacity:1" />
    </linearGradient>
    <linearGradient
       id="linearGradient873">
      <stop
         style="stop-color:#009ac0;stop-opacity:1"
         offset="0"
         id="stop875" />
      <stop
         style="stop-color:#2ad4ff;stop-opacity:1"
         offset="1"
         id="stop877" />
    </linearGradient>
    <linearGradient
       inkscape:collect="always"
       xlink:href="#linearGradient890"
       id="linearGradient830"
       x1="24.056538"
       y1="-1052.3057"
       x2="24.056538"
       y2="-1004.7297"
       gradientUnits="userSpaceOnUse" />
    <linearGradient
       inkscape:collect="always"
       xlink:href="#linearGradient873"
       id="linearGradient843"
       x1="23.320379"
       y1="1044.5359"
       x2="23.320379"
       y2="1012.451"
       gradientUnits="userSpaceOnUse"
       gradientTransform="matrix(0.94379689,0,0,0.94379689,1.3488745,57.93919)" />
  </defs>
  <sodipodi:namedview
     id="base"
     pagecolor="#ffffff"
     bordercolor="#666666"
     borderopacity="1.0"
     inkscape:pageopacity="0.0"
     inkscape:pageshadow="2"
     inkscape:zoom="4"
     inkscape:cx="11.599964"
     inkscape:cy="21.447118"
     inkscape:document-units="px"
     inkscape:current-layer="layer1"
     showgrid="false"
     inkscape:window-width="1366"
     inkscape:window-height="714"
     inkscape:window-x="0"
     inkscape:window-y="30"
     inkscape:window-maximized="1"
     width="0px"
     height="0px"
     fit-margin-top="0"
     fit-margin-left="0"
     fit-margin-right="0"
     fit-margin-bottom="0">
    <inkscape:grid
       type="xygrid"
       id="grid3850"
       empspacing="5"
       visible="true"
       enabled="true"
       snapvisiblegridlinesonly="true" />
  </sodipodi:namedview>
  <metadata
     id="metadata7">
    <rdf:RDF>
      <cc:Work
         rdf:about="">
        <dc:format>image/svg+xml</dc:format>
        <dc:type
           rdf:resource="http://purl.org/dc/dcmitype/StillImage" />
        <dc:title />
      </cc:Work>
    </rdf:RDF>
  </metadata>
  <g
     inkscape:label="Capa 1"
     inkscape:groupmode="layer"
     id="layer1"
     transform="translate(0,-1004.3622)">
    <rect
       style="fill:url(#linearGradient830);fill-opacity:1;stroke:none"
       id="rect2991-1"
       width="48"
       height="48"
       x="1.0992431e-07"
       y="-1052.3622"
       ry="1.9445436"
       transform="scale(1,-1)" />
    <path
       style="fill:#000000;fill-opacity:0.05439331;stroke:none"
       d="M 5.1875 0 L 0 8.96875 L 0 18.84375 L 10.875 0 L 5.1875 0 z M 17.1875 0 L 0 29.75 L 0 39.625 L 22.875 0 L 17.1875 0 z M 29.1875 0 L 1.5 47.9375 C 1.6470818 47.972835 1.7792749 48 1.9375 48 L 7.15625 48 L 34.875 0 L 29.1875 0 z M 41.1875 0 L 13.46875 48 L 19.15625 48 L 46.8125 0.15625 C 46.579702 0.058111315 46.331819 0 46.0625 0 L 41.1875 0 z M 48 8.96875 L 25.46875 48 L 31.15625 48 L 48 18.84375 L 48 8.96875 z M 48 29.75 L 37.46875 48 L 43.15625 48 L 48 39.625 L 48 29.75 z "
       transform="translate(0,1004.3622)"
       id="rect2399" />
    <path
       inkscape:connector-curvature="0"
       style="fill:#000000;fill-opacity:1;stroke:none"
       d="m -1.0992432e-7,1049.3622 0,1.0625 c 0,1.0773 0.86022299992432,1.9375 1.93750000992432,1.9375 l 44.1250001,0 c 1.077277,0 1.9375,-0.8602 1.9375,-1.9375 l 0,-1.0625 c 0,1.0773 -0.860223,1.9375 -1.9375,1.9375 l -44.1250001,0 C 0.86022289,1051.2997 -1.0992432e-7,1050.4395 -1.0992432e-7,1049.3622 Z"
       id="rect846" />
    <path
       inkscape:connector-curvature="0"
       style="fill:#ffffff;fill-opacity:0.5372549;stroke:none"
       d="m 2.5312499,1005.0185 c -0.917088,0 -1.67114701,0.6395 -1.84375001,1.5 0.33561201,-0.2799 0.77451201,-0.4375 1.25000001,-0.4375 l 44.1250001,0 c 0.475488,0 0.914388,0.1576 1.25,0.4375 -0.172603,-0.8605 -0.926662,-1.5 -1.84375,-1.5 L 2.5312499,1005.0185 Z"
       id="path7515" />
    <path
       inkscape:connector-curvature="0"
       style="fill:#000000;fill-opacity:0.39215686;stroke:none"
       d="m 1.9374999,1004.3622 c -1.07727701,0 -1.93750000992432,0.8602 -1.93750000992432,1.9375 l 0,43.0625 c 0,0.7934 0.48002399992432,1.449 1.15625000992432,1.75 -0.30934201,-0.3333 -0.50000001,-0.7824 -0.50000001,-1.2812 l 0,-42.9375 c 0,-1.0482 0.82689901,-1.875 1.87500001,-1.875 l 42.9375001,0 c 1.048101,0 1.875,0.8268 1.875,1.875 l 0,42.9375 c 0,0.4988 -0.190658,0.9479 -0.5,1.2812 0.676226,-0.301 1.15625,-0.9566 1.15625,-1.75 l 0,-43.0625 c 0,-1.0773 -0.860223,-1.9375 -1.9375,-1.9375 L 1.9374999,1004.3622 Z"
       id="rect4280" />
    <path
       inkscape:connector-curvature="0"
       id="path855"
       d="m 10.692209,1012.9316 c -0.9698893,0 -1.7724966,0.7746 -1.7724966,1.7443 l 0,21.748 c 0,0.9698 0.8026073,1.7726 1.7724966,1.7726 l 9.903475,0 3.404315,5.8804 3.404324,-5.8804 9.903467,0 c 0.969889,0 1.772497,-0.8028 1.772497,-1.7726 l 0,-21.748 c 0,-0.9697 -0.802607,-1.7443 -1.772497,-1.7443 L 10.692209,1012.9316 Z"
       style="fill:#ffffff;fill-opacity:1;stroke:none" />
    <path
       style="fill:url(#linearGradient843);fill-opacity:1;stroke:none"
       d="m 11.095474,1013.4035 c -0.940499,0 -1.7187843,0.751 -1.7187843,1.6915 l 0,21.0892 c 0,0.9405 0.7782853,1.7187 1.7187843,1.7187 l 9.603367,0 3.301158,5.7021 3.301158,-5.7021 9.603367,0 c 0.940499,0 1.718786,-0.7782 1.718786,-1.7187 l 0,-21.0892 c 0,-0.9405 -0.778286,-1.6915 -1.718786,-1.6915 L 11.095474,1013.4035 Z"
       id="rect832"
       inkscape:connector-curvature="0" />
    <path
       style="fill:#ffffff;fill-opacity:0.32571429;stroke:none"
       d="m 8.9287434,1036.4579 0,0.4719 c 0,0.9405 0.7934228,1.7402 1.7623646,1.7402 l 9.905704,0 3.403188,5.6922 3.403187,-5.6922 9.905704,0 c 0.968943,0 1.762365,-0.7997 1.762365,-1.7402 l 0,-0.4719 c 0,0.9405 -0.793422,1.7106 -1.762365,1.7106 l -9.905704,0 -3.403187,5.7218 -3.403188,-5.7218 -9.905704,0 C 9.7221662,1038.1685 8.9287434,1037.3984 8.9287434,1036.4579 Z"
       id="path845"
       inkscape:connector-curvature="0" />
    <path
       style="fill:#000000;fill-opacity:0.36571428;stroke:none"
       d="m 10.676618,1012.3622 c -0.9699967,0 -1.7642834,0.7407 -1.7642834,1.6812 l 0,0.5899 c 0,-0.9405 0.7942867,-1.6812 1.7642834,-1.6812 l 26.646763,0 c 0.969998,0 1.764284,0.7407 1.764284,1.6812 l 0,-0.5899 c 0,-0.9405 -0.794286,-1.6812 -1.764284,-1.6812 L 10.676618,1012.3622 Z"
       id="path850"
       inkscape:connector-curvature="0" />
    <path
       inkscape:connector-curvature="0"
       d="m 19.741411,1020.9739 -0.613237,-2.6574 0.885786,-0.3407 q 1.317324,-0.4996 2.248535,-0.5904 0.931211,-0.091 1.726148,-0.091 1.044774,0 1.953272,0.2952 0.908499,0.2953 1.544449,0.8403 0.658661,0.5452 1.022061,1.3174 0.363399,0.7722 0.363399,1.7262 0,1.9532 -1.885135,4.0882 l -1.430886,1.5899 q -0.340687,0.3633 -0.545099,0.8403 -0.1817,0.477 -0.249837,0.7722 -0.06814,0.2954 -0.06814,0.3408 l -2.839059,0 q 0,0 0.02272,-0.318 0.02272,-0.318 0.09085,-0.795 0.09085,-0.477 0.249837,-1.0448 0.158987,-0.5677 0.408824,-1.0901 l 0.681375,-1.4082 q 0.408824,-0.8631 0.590524,-1.5444 0.204412,-0.7042 0.1817,-1.4309 0,-0.5224 -0.06813,-0.8404 -0.06814,-0.3407 -0.1817,-0.4997 -0.09085,-0.1817 -0.272549,-0.2498 -0.158988,-0.068 -0.3634,-0.068 -0.454249,-0.023 -0.999349,0.1363 -0.522387,0.1363 -0.999349,0.3407 -0.454249,0.1817 -0.794936,0.3407 -0.317975,0.159 -0.317975,0.159 L 19.741411,1020.9739 z m 5.97338,10.9247 q 0.06814,1.022 -0.63595,1.5444 -0.681374,0.5224 -1.83971,0.4543 -1.203761,0.045 -1.93056,-0.4543 -0.704087,-0.5224 -0.635949,-1.5444 -0.04543,-0.9539 0.635949,-1.4536 0.681374,-0.4997 1.794285,-0.4543 1.226474,-0.045 1.930561,0.4316 Q 25.760216,1030.8992 25.714791,1031.8986 Z"
       style="font-size:24.06500053px;font-style:normal;font-variant:normal;font-weight:bold;font-stretch:normal;text-align:start;line-height:125%;letter-spacing:0px;word-spacing:0px;writing-mode:lr-tb;text-anchor:start;fill:#ffffff;fill-opacity:1;stroke:none;font-family:ArmWrestler;-inkscape-font-specification:ArmWrestler Bold"
       id="path868" />
    <path
       style="font-size:24.06500053px;font-style:normal;font-variant:normal;font-weight:bold;font-stretch:normal;text-align:start;line-height:125%;letter-spacing:0px;word-spacing:0px;writing-mode:lr-tb;text-anchor:start;fill:#ffffff;fill-opacity:0.46861925;stroke:none;font-family:ArmWrestler;-inkscape-font-specification:ArmWrestler Bold"
       d="m 19.192534,1018.5686 -0.05899,0.029 0.619366,2.6544 0.324431,-0.177 0.32443,-0.1769 c 0.227125,-0.106 0.493495,-0.2033 0.796328,-0.3244 0.317975,-0.1363 0.654526,-0.2631 1.002785,-0.3539 0.363399,-0.106 0.699951,-0.1627 1.002784,-0.1476 0.136275,0 0.247933,0.043 0.353924,0.089 0.121133,0.045 0.204876,0.1147 0.265443,0.2359 0.0757,0.106 0.131534,0.2742 0.176962,0.5014 0.04077,0.1902 0.08431,0.4667 0.08848,0.7668 4.69e-4,-0.06 0.0019,-0.1165 0,-0.177 0,-0.3482 -0.04306,-0.6433 -0.08848,-0.8552 -0.04543,-0.2272 -0.101258,-0.3955 -0.176962,-0.5015 -0.06056,-0.1211 -0.14431,-0.1905 -0.265443,-0.2359 -0.105991,-0.045 -0.217649,-0.089 -0.353924,-0.089 -0.302833,-0.015 -0.639385,0.041 -1.002784,0.1474 -0.348259,0.091 -0.68481,0.2176 -1.002785,0.3539 -0.302833,0.1211 -0.569203,0.2184 -0.796328,0.3245 l -0.32443,0.1769 -0.324431,0.1773 L 19.192534,1018.5686 z m 9.673918,3.0673 c -0.047,1.256 -0.679737,2.5547 -1.887594,3.9227 l -1.415695,1.5926 c -0.227125,0.2423 -0.424104,0.5373 -0.560379,0.8554 -0.121134,0.3179 -0.190525,0.5699 -0.235949,0.7668 -0.04543,0.1969 -0.08848,0.2941 -0.08848,0.3244 l -2.801897,0 -0.02949,0.2655 2.831391,0 c 0,-0.03 0.04306,-0.1276 0.08848,-0.3245 0.04542,-0.1968 0.114815,-0.4489 0.235949,-0.7668 0.136275,-0.318 0.333254,-0.6131 0.560379,-0.8553 l 1.415695,-1.5927 c 1.256758,-1.4234 1.887594,-2.768 1.887594,-4.0701 C 28.866452,1021.7143 28.867391,1021.675 28.866452,1021.6359 z m -8.199235,10.4113 c -1.25e-4,0.041 -0.002,0.075 0,0.1179 -0.04543,0.6814 0.179469,1.1854 0.64886,1.5337 0.484533,0.3331 1.11458,0.5021 1.917088,0.4719 0.772224,0.045 1.40385,-0.1236 1.8581,-0.4719 0.418054,-0.3101 0.609675,-0.7529 0.619366,-1.3272 -0.06246,0.4485 -0.267321,0.8006 -0.619366,1.0618 -0.45425,0.3483 -1.085876,0.5173 -1.8581,0.4719 -0.802508,0.03 -1.432555,-0.1389 -1.917088,-0.4719 C 20.883214,1033.1122 20.662272,1032.6516 20.667217,1032.0472 Z"
       id="path871"
       inkscape:connector-curvature="0" />
    <path
       style="font-size:24.06500053px;font-style:normal;font-variant:normal;font-weight:bold;font-stretch:normal;text-align:start;line-height:125%;letter-spacing:0px;word-spacing:0px;writing-mode:lr-tb;text-anchor:start;fill:#000000;fill-opacity:0.16736402;stroke:none;font-family:ArmWrestler;-inkscape-font-specification:ArmWrestler Bold"
       d="m 24,1017.0681 c -0.529958,0 -1.119318,0.028 -1.740126,0.089 -0.620808,0.06 -1.363302,0.2567 -2.241518,0.5899 l -0.884809,0.3539 0.05899,0.1769 0.825822,-0.2949 c 0.878216,-0.3332 1.62071,-0.5294 2.241518,-0.5899 0.620808,-0.06 1.210168,-0.089 1.740126,-0.089 0.696515,0 1.340915,0.098 1.946581,0.295 0.605665,0.1968 1.109704,0.4624 1.53367,0.8258 0.439108,0.3634 0.790011,0.8124 1.032277,1.3272 0.1817,0.3861 0.279006,0.814 0.324431,1.2682 -0.02659,-0.5429 -0.112565,-1.0539 -0.324431,-1.5041 -0.242266,-0.5149 -0.593169,-0.9638 -1.032277,-1.3273 -0.423966,-0.3633 -0.928005,-0.6289 -1.53367,-0.8258 C 25.340915,1017.1662 24.696515,1017.0681 24,1017.0681 z m 0.05899,4.8959 c -0.03029,0.2385 -0.07933,0.4731 -0.147468,0.7079 -0.121134,0.4542 -0.317324,0.9877 -0.589873,1.5632 l -0.707848,1.3861 c -0.166559,0.3483 -0.277426,0.7128 -0.383418,1.0913 -0.105991,0.3785 -0.204876,0.7437 -0.265443,1.0618 -0.04542,0.318 -0.07333,0.5843 -0.08848,0.7963 l -0.02949,0.2949 0.02949,0 0,-0.089 c 0.01515,-0.212 0.04306,-0.4784 0.08848,-0.7964 0.06056,-0.3179 0.159452,-0.6537 0.265443,-1.0322 0.105992,-0.3786 0.216859,-0.743 0.383418,-1.0913 l 0.707848,-1.4157 c 0.272549,-0.5754 0.468739,-1.0794 0.589873,-1.5337 C 24.001425,1022.5981 24.034986,1022.2803 24.058987,1021.964 z m -0.943797,7.7863 c -0.741941,-0.03 -1.344863,0.1389 -1.799113,0.4719 -0.400985,0.2941 -0.595946,0.7087 -0.619367,1.2388 0.06814,-0.4202 0.27868,-0.7529 0.619367,-1.0028 0.45425,-0.3331 1.057172,-0.5022 1.799113,-0.4719 0.817649,-0.03 1.447697,0.1245 1.917087,0.4424 0.3634,0.2384 0.575045,0.5684 0.648861,1.0028 -0.03001,-0.5445 -0.22513,-0.9607 -0.648861,-1.2387 C 24.562887,1029.8748 23.932839,1029.7201 23.11519,1029.7503 Z"
       id="path879"
       inkscape:connector-curvature="0" />
  </g>
</svg>
