<?xml version="1.0" encoding="UTF-8" standalone="no"?>
<!-- Created with Inkscape (http://www.inkscape.org/) -->

<svg
   xmlns:dc="http://purl.org/dc/elements/1.1/"
   xmlns:cc="http://creativecommons.org/ns#"
   xmlns:rdf="http://www.w3.org/1999/02/22-rdf-syntax-ns#"
   xmlns:svg="http://www.w3.org/2000/svg"
   xmlns="http://www.w3.org/2000/svg"
   xmlns:xlink="http://www.w3.org/1999/xlink"
   xmlns:sodipodi="http://sodipodi.sourceforge.net/DTD/sodipodi-0.dtd"
   xmlns:inkscape="http://www.inkscape.org/namespaces/inkscape"
   width="48"
   height="48"
   id="svg2"
   version="1.1"
   inkscape:version="0.48+devel r12137"
   sodipodi:docname="meld.svg">
  <defs
     id="defs4">
    <linearGradient
       inkscape:collect="always"
       id="linearGradient5051">
      <stop
         style="stop-color:#f2f2f2;stop-opacity:1"
         offset="0"
         id="stop5053" />
      <stop
         style="stop-color:#ffffff;stop-opacity:1"
         offset="1"
         id="stop5055" />
    </linearGradient>
    <linearGradient
       id="linearGradient1479"
       inkscape:collect="always">
      <stop
         id="stop1481"
         offset="0"
         style="stop-color:#1b9bf9;stop-opacity:1" />
      <stop
         id="stop1483"
         offset="1"
         style="stop-color:#6bc0f7;stop-opacity:1" />
    </linearGradient>
    <linearGradient
       inkscape:collect="always"
       id="linearGradient1462">
      <stop
         style="stop-color:#588f1c;stop-opacity:1"
         offset="0"
         id="stop1464" />
      <stop
         style="stop-color:#73a836;stop-opacity:1"
         offset="1"
         id="stop1466" />
    </linearGradient>
    <linearGradient
       inkscape:collect="always"
       id="linearGradient1412">
      <stop
         style="stop-color:#000000;stop-opacity:1;"
         offset="0"
         id="stop1414" />
      <stop
         style="stop-color:#000000;stop-opacity:0;"
         offset="1"
         id="stop1416" />
    </linearGradient>
    <linearGradient
       inkscape:collect="always"
       xlink:href="#linearGradient1412"
       id="linearGradient1418"
       x1="28.375"
       y1="1028.3622"
       x2="30.5"
       y2="1028.3622"
       gradientUnits="userSpaceOnUse"
       gradientTransform="matrix(0.41847444,0,0,0.91756272,0.87405653,84.775394)" />
    <linearGradient
       inkscape:collect="always"
       xlink:href="#linearGradient1412"
       id="linearGradient1422"
       gradientUnits="userSpaceOnUse"
       gradientTransform="matrix(0.41847444,0,0,0.91756272,-8.6456586,84.775394)"
       x1="28.375"
       y1="1028.3622"
       x2="30.5"
       y2="1028.3622" />
    <linearGradient
       inkscape:collect="always"
       xlink:href="#linearGradient1412"
       id="linearGradient1426"
       gradientUnits="userSpaceOnUse"
       gradientTransform="matrix(0.41847444,0,0,1.1709186,1000.1479,-1228.1149)"
       x1="28.375"
       y1="1028.3622"
       x2="30.5"
       y2="1028.3622" />
    <linearGradient
       inkscape:collect="always"
       xlink:href="#linearGradient1412"
       id="linearGradient1445"
       gradientUnits="userSpaceOnUse"
       gradientTransform="matrix(0.41847444,0,0,0.91756272,-56.645662,84.775394)"
       x1="28.375"
       y1="1028.3622"
       x2="30.5"
       y2="1028.3622" />
    <linearGradient
       inkscape:collect="always"
       xlink:href="#linearGradient1412"
       id="linearGradient1458"
       gradientUnits="userSpaceOnUse"
       gradientTransform="matrix(0.41847444,0,0,1.1709186,-1056.5765,-1228.1149)"
       x1="28.375"
       y1="1028.3622"
       x2="30.5"
       y2="1028.3622" />
    <linearGradient
       inkscape:collect="always"
       xlink:href="#linearGradient1462"
       id="linearGradient4683"
       x1="37.52935"
       y1="1044.3622"
       x2="37.52935"
       y2="1030.7372"
       gradientUnits="userSpaceOnUse"
       gradientTransform="matrix(1,0,0,2.3272727,0,-1386.1534)" />
    <linearGradient
       inkscape:collect="always"
       xlink:href="#linearGradient1479"
       id="linearGradient4687"
       gradientUnits="userSpaceOnUse"
       x1="37.52935"
       y1="1044.3622"
       x2="37.52935"
       y2="1030.7372"
       gradientTransform="matrix(1,0,0,2.3272727,-15.625,-1386.1534)" />
    <linearGradient
       id="linearGradient907"
       inkscape:collect="always">
      <stop
         id="stop909"
         offset="0"
         style="stop-color:#000000;stop-opacity:1;" />
      <stop
         id="stop911"
         offset="1"
         style="stop-color:#000000;stop-opacity:0;" />
    </linearGradient>
    <linearGradient
       y2="8.187501"
       x2="8.625"
       y1="7.656251"
       x1="8.625"
       gradientTransform="matrix(0.78356216,0,0,0.78356216,61.721485,974.81621)"
       gradientUnits="userSpaceOnUse"
       id="linearGradient946"
       xlink:href="#linearGradient907"
       inkscape:collect="always" />
    <linearGradient
       y2="8.187501"
       x2="8.625"
       y1="7.656251"
       x1="8.625"
       gradientTransform="matrix(0.78356216,0,0,0.78356216,13.096485,1020.4412)"
       gradientUnits="userSpaceOnUse"
       id="linearGradient956"
       xlink:href="#linearGradient907"
       inkscape:collect="always" />
    <linearGradient
       inkscape:collect="always"
       xlink:href="#linearGradient907"
       id="linearGradient4914"
       gradientUnits="userSpaceOnUse"
       gradientTransform="matrix(0.78356216,0,0,0.78356216,61.721485,974.81621)"
       x1="8.625"
       y1="7.656251"
       x2="8.625"
       y2="8.187501" />
    <linearGradient
       inkscape:collect="always"
       xlink:href="#linearGradient907"
       id="linearGradient4926"
       gradientUnits="userSpaceOnUse"
       gradientTransform="matrix(0.78356216,0,0,0.78356216,61.721485,974.81621)"
       x1="8.625"
       y1="7.656251"
       x2="8.625"
       y2="8.187501" />
    <linearGradient
       inkscape:collect="always"
       xlink:href="#linearGradient907"
       id="linearGradient4938"
       gradientUnits="userSpaceOnUse"
       gradientTransform="matrix(0.78356216,0,0,0.78356216,61.721485,974.81621)"
       x1="8.625"
       y1="7.656251"
       x2="8.625"
       y2="8.187501" />
    <linearGradient
       inkscape:collect="always"
       xlink:href="#linearGradient907"
       id="linearGradient4950"
       gradientUnits="userSpaceOnUse"
       gradientTransform="matrix(0.78356216,0,0,0.78356216,61.721485,974.81621)"
       x1="8.625"
       y1="7.656251"
       x2="8.625"
       y2="8.187501" />
    <linearGradient
       inkscape:collect="always"
       xlink:href="#linearGradient907"
       id="linearGradient4962"
       gradientUnits="userSpaceOnUse"
       gradientTransform="matrix(0.78356216,0,0,0.78356216,61.721485,974.81621)"
       x1="8.625"
       y1="7.656251"
       x2="8.625"
       y2="8.187501" />
    <linearGradient
       inkscape:collect="always"
       xlink:href="#linearGradient907"
       id="linearGradient4974"
       gradientUnits="userSpaceOnUse"
       gradientTransform="matrix(0.78356216,0,0,0.78356216,61.721485,974.81621)"
       x1="8.625"
       y1="7.656251"
       x2="8.625"
       y2="8.187501" />
    <linearGradient
       inkscape:collect="always"
       xlink:href="#linearGradient907"
       id="linearGradient4989"
       gradientUnits="userSpaceOnUse"
       gradientTransform="matrix(0.78356216,0,0,0.78356216,13.096485,1020.4412)"
       x1="8.625"
       y1="7.656251"
       x2="8.625"
       y2="8.187501" />
    <linearGradient
       inkscape:collect="always"
       xlink:href="#linearGradient907"
       id="linearGradient4999"
       gradientUnits="userSpaceOnUse"
       gradientTransform="matrix(0.78356216,0,0,0.78356216,13.096485,1020.4412)"
       x1="8.625"
       y1="7.656251"
       x2="8.625"
       y2="8.187501" />
    <linearGradient
       inkscape:collect="always"
       xlink:href="#linearGradient907"
       id="linearGradient5009"
       gradientUnits="userSpaceOnUse"
       gradientTransform="matrix(0.78356216,0,0,0.78356216,13.096485,1020.4412)"
       x1="8.625"
       y1="7.656251"
       x2="8.625"
       y2="8.187501" />
    <linearGradient
       inkscape:collect="always"
       xlink:href="#linearGradient907"
       id="linearGradient5021"
       gradientUnits="userSpaceOnUse"
       gradientTransform="matrix(0.78356216,0,0,0.78356216,61.721485,974.81621)"
       x1="8.625"
       y1="7.656251"
       x2="8.625"
       y2="8.187501" />
    <linearGradient
       inkscape:collect="always"
       xlink:href="#linearGradient907"
       id="linearGradient5033"
       gradientUnits="userSpaceOnUse"
       gradientTransform="matrix(0.78356216,0,0,0.78356216,61.721485,974.81621)"
       x1="8.625"
       y1="7.656251"
       x2="8.625"
       y2="8.187501" />
    <linearGradient
       inkscape:collect="always"
       xlink:href="#linearGradient907"
       id="linearGradient5045"
       gradientUnits="userSpaceOnUse"
       gradientTransform="matrix(0.78356216,0,0,0.78356216,61.721485,974.81621)"
       x1="8.625"
       y1="7.656251"
       x2="8.625"
       y2="8.187501" />
    <linearGradient
       inkscape:collect="always"
       xlink:href="#linearGradient5051"
       id="linearGradient5049"
       gradientUnits="userSpaceOnUse"
       gradientTransform="matrix(1.9999841,0,0,0.18666768,-44.403894,819.9802)"
       x1="37.52935"
       y1="1044.3622"
       x2="37.52935"
       y2="1030.7372" />
    <linearGradient
       inkscape:collect="always"
       xlink:href="#linearGradient5051"
       id="linearGradient5063"
       x1="23.646446"
       y1="-1052.7157"
       x2="23.646446"
       y2="-1004.8509"
       gradientUnits="userSpaceOnUse" />
  </defs>
  <sodipodi:namedview
     id="base"
     pagecolor="#ffffff"
     bordercolor="#666666"
     borderopacity="1.0"
     inkscape:pageopacity="0.0"
     inkscape:pageshadow="2"
     inkscape:zoom="5.6568543"
     inkscape:cx="30.44522"
     inkscape:cy="31.336146"
     inkscape:document-units="px"
     inkscape:current-layer="layer1"
     showgrid="false"
     inkscape:window-width="1366"
     inkscape:window-height="714"
     inkscape:window-x="0"
     inkscape:window-y="30"
     inkscape:window-maximized="1"
     showguides="false">
    <inkscape:grid
       type="xygrid"
       id="grid3850" />
  </sodipodi:namedview>
  <metadata
     id="metadata7">
    <rdf:RDF>
      <cc:Work
         rdf:about="">
        <dc:format>image/svg+xml</dc:format>
        <dc:type
           rdf:resource="http://purl.org/dc/dcmitype/StillImage" />
        <dc:title></dc:title>
      </cc:Work>
    </rdf:RDF>
  </metadata>
  <g
     inkscape:label="Capa 1"
     inkscape:groupmode="layer"
     id="layer1"
     transform="translate(0,-1004.3622)">
    <rect
       style="fill:url(#linearGradient5063);fill-opacity:1;stroke:none"
       id="rect2991-1"
       width="48"
       height="48"
       x="0"
       y="-1052.3622"
       ry="1.9445436"
       transform="scale(1,-1)" />
    <rect
       ry="0"
       y="1012.3622"
       x="13.15435"
       height="32"
       width="15.625"
       id="rect4685"
       style="fill:url(#linearGradient4687);fill-opacity:1;stroke:none" />
    <rect
       style="fill:url(#linearGradient4683);fill-opacity:1;stroke:none"
       id="rect4675"
       width="15.625"
       height="32"
       x="28.77935"
       y="1012.3622"
       ry="0" />
    <rect
       style="fill:url(#linearGradient5049);fill-opacity:1;stroke:none"
       id="rect5047"
       width="31.249752"
       height="2.5666807"
       x="13.15435"
       y="1012.3622"
       ry="0" />
    <path
       inkscape:connector-curvature="0"
       style="fill:#000000;fill-opacity:1;stroke:none"
       d="m 7.4194336e-8,1049.3622 0,1.0625 c 0,1.0773 0.860222595805664,1.9375 1.937499625805664,1.9375 l 44.1250003,0 c 1.077277,0 1.9375,-0.8602 1.9375,-1.9375 l 0,-1.0625 c 0,1.0773 -0.860223,1.9375 -1.9375,1.9375 l -44.1250003,0 C 0.86022267,1051.2997 7.4194336e-8,1050.4395 7.4194336e-8,1049.3622 Z"
       id="rect846" />
    <path
       inkscape:connector-curvature="0"
       style="fill:#ffffff;fill-opacity:0.5372549;stroke:none"
       d="m 2.5312497,1005.0185 c -0.917088,0 -1.67114603,0.6395 -1.84374963,1.5 0.33561163,-0.2799 0.77451163,-0.4375 1.24999963,-0.4375 l 44.1250003,0 c 0.475488,0 0.914388,0.1576 1.25,0.4375 -0.172603,-0.8605 -0.926662,-1.5 -1.84375,-1.5 L 2.5312497,1005.0185 Z"
       id="path7515" />
    <path
       inkscape:connector-curvature="0"
       style="fill:#000000;fill-opacity:0.39215686;stroke:none"
       d="m 1.9374997,1004.3622 c -1.07727703,0 -1.937499625805664,0.8602 -1.937499625805664,1.9375 l 0,43.0625 c 0,0.7934 0.480023595805664,1.449 1.156249625805664,1.75 -0.30934103,-0.3333 -0.49999963,-0.7824 -0.49999963,-1.2812 l 0,-42.9375 c 0,-1.0482 0.82689863,-1.875 1.87499963,-1.875 l 42.9375003,0 c 1.048101,0 1.875,0.8268 1.875,1.875 l 0,42.9375 c 0,0.4988 -0.190658,0.9479 -0.5,1.2812 0.676226,-0.301 1.15625,-0.9566 1.15625,-1.75 l 0,-43.0625 c 0,-1.0773 -0.860223,-1.9375 -1.9375,-1.9375 L 1.9374997,1004.3622 Z"
       id="rect4280" />
    <rect
       style="fill:#fcfcfc;fill-opacity:1;stroke:none"
       id="rect1408"
       width="9.5197134"
       height="32"
       x="3.5685651"
       y="1012.3622"
       ry="0" />
    <rect
       ry="0"
       y="1012.3622"
       x="13.088279"
       height="32"
       width="0.68002099"
       id="rect1410"
       style="opacity:0.37700004;fill:url(#linearGradient1418);fill-opacity:1;stroke:none" />
    <rect
       style="opacity:0.37700004;fill:url(#linearGradient1422);fill-opacity:1;stroke:none"
       id="rect1420"
       width="0.68002099"
       height="32"
       x="3.5685651"
       y="1012.3622"
       ry="0" />
    <rect
       style="opacity:0.37700004;fill:url(#linearGradient1445);fill-opacity:1;stroke:none"
       id="rect1441"
       width="0.68002099"
       height="32"
       x="-44.431435"
       y="1012.3622"
       ry="0"
       transform="scale(-1,1)" />
    <rect
       style="opacity:0.37700004;fill:url(#linearGradient1426);fill-opacity:1;stroke:none"
       id="rect1424"
       width="0.68002099"
       height="40.835785"
       x="1012.3622"
       y="-44.40435"
       ry="0"
       transform="matrix(0,1,-1,0,0,0)" />
    <rect
       transform="matrix(0,-1,-1,0,0,0)"
       ry="0"
       y="-44.40435"
       x="-1044.3622"
       height="40.835785"
       width="0.68002099"
       id="rect1456"
       style="opacity:0.37700004;fill:url(#linearGradient1458);fill-opacity:1;stroke:none" />
    <rect
       style="fill:#000000;fill-opacity:0.5690377;stroke:none"
       id="rect4702"
       width="5.4375"
       height="0.75"
       x="5.6096716"
       y="1015.9872" />
    <rect
       y="1019.9872"
       x="5.6096716"
       height="0.75"
       width="5.4375"
       id="rect4704"
       style="fill:#000000;fill-opacity:0.5690377;stroke:none" />
    <rect
       style="fill:#000000;fill-opacity:0.5690377;stroke:none"
       id="rect4706"
       width="4.5536165"
       height="0.75"
       x="5.6096716"
       y="1023.9872" />
    <rect
       y="1027.9872"
       x="5.6096716"
       height="0.75"
       width="5.4375"
       id="rect4708"
       style="fill:#000000;fill-opacity:0.5690377;stroke:none" />
    <rect
       style="fill:#000000;fill-opacity:0.5690377;stroke:none"
       id="rect4710"
       width="3.2277913"
       height="0.75"
       x="5.6096716"
       y="1031.9872" />
    <rect
       y="1035.9872"
       x="5.6096716"
       height="0.75"
       width="5.4375"
       id="rect4712"
       style="fill:#000000;fill-opacity:0.5690377;stroke:none" />
    <rect
       style="fill:#000000;fill-opacity:0.5690377;stroke:none"
       id="rect4714"
       width="5.4375"
       height="0.75"
       x="5.6096716"
       y="1039.9872" />
    <rect
       y="1041.9872"
       x="5.6096716"
       height="0.75"
       width="3.7139273"
       id="rect4716"
       style="fill:#000000;fill-opacity:0.5690377;stroke:none" />
    <g
       id="g4898"
       transform="matrix(0.26750116,0,0,0.26750116,2.5431946,753.0432)">
      <rect
         ry="0.45607293"
         y="980.73712"
         x="64.777611"
         height="7.2572823"
         width="7.2572823"
         id="rect938"
         style="color:#000000;fill:#1e1e1e;fill-opacity:0.49112429;fill-rule:nonzero;stroke:none;stroke-width:0.2;marker:none;visibility:visible;display:inline;overflow:visible;enable-background:accumulate" />
      <rect
         style="color:#000000;fill:#ffffff;fill-opacity:1;fill-rule:nonzero;stroke:none;stroke-width:0.2;marker:none;visibility:visible;display:inline;overflow:visible;enable-background:accumulate"
         id="rect940"
         width="7.1010323"
         height="7.1010323"
         x="64.855736"
         y="980.81525"
         ry="0.44625363" />
      <path
         style="opacity:0.25600011;color:#000000;fill:url(#linearGradient946);fill-opacity:1;fill-rule:nonzero;stroke:none;stroke-width:0.2;marker:none;visibility:visible;display:inline;overflow:visible;enable-background:accumulate"
         d="m 65.296488,980.81531 c -0.247225,0 -0.440754,0.1936 -0.440754,0.4408 l 0,0.5142 7.101032,0 0,-0.5142 c 0,-0.2472 -0.193529,-0.4408 -0.440754,-0.4408 L 65.296488,980.81531 Z"
         id="path942"
         inkscape:connector-curvature="0" />
      <path
         style="fill:#000000;stroke:none"
         d="m 69.994566,986.13361 2.974184,-5.1053 -3.801231,2.9741 L 66.75,984.12961 Z"
         id="path944"
         inkscape:connector-curvature="0"
         sodipodi:nodetypes="ccccc" />
    </g>
    <g
       id="g4976"
       transform="matrix(0.26745549,0,0,0.26745549,15.676246,752.88551)">
      <rect
         style="color:#000000;fill:#1e1e1e;fill-opacity:0.49112429;fill-rule:nonzero;stroke:none;stroke-width:0.2;marker:none;visibility:visible;display:inline;overflow:visible;enable-background:accumulate"
         id="rect948"
         width="7.2572823"
         height="7.2572823"
         x="16.152611"
         y="1026.3621"
         ry="0.45607293" />
      <rect
         ry="0.44625363"
         y="1026.4402"
         x="16.230736"
         height="7.1010323"
         width="7.1010323"
         id="rect950"
         style="color:#000000;fill:#cccccc;fill-opacity:1;fill-rule:nonzero;stroke:none;stroke-width:0.2;marker:none;visibility:visible;display:inline;overflow:visible;enable-background:accumulate" />
      <path
         inkscape:connector-curvature="0"
         id="path952"
         d="m 16.671488,1026.4403 c -0.247225,0 -0.440754,0.1936 -0.440754,0.4408 l 0,0.5142 7.101032,0 0,-0.5142 c 0,-0.2472 -0.193529,-0.4408 -0.440754,-0.4408 L 16.671488,1026.4403 Z"
         style="opacity:0.25600011;color:#000000;fill:url(#linearGradient956);fill-opacity:1;fill-rule:nonzero;stroke:none;stroke-width:0.2;marker:none;visibility:visible;display:inline;overflow:visible;enable-background:accumulate" />
    </g>
    <g
       transform="matrix(0.26750116,0,0,0.26750116,2.5431946,757.0432)"
       id="g4904">
      <rect
         style="color:#000000;fill:#1e1e1e;fill-opacity:0.49112429;fill-rule:nonzero;stroke:none;stroke-width:0.2;marker:none;visibility:visible;display:inline;overflow:visible;enable-background:accumulate"
         id="rect4906"
         width="7.2572823"
         height="7.2572823"
         x="64.777611"
         y="980.73712"
         ry="0.45607293" />
      <rect
         ry="0.44625363"
         y="980.81525"
         x="64.855736"
         height="7.1010323"
         width="7.1010323"
         id="rect4908"
         style="color:#000000;fill:#ffffff;fill-opacity:1;fill-rule:nonzero;stroke:none;stroke-width:0.2;marker:none;visibility:visible;display:inline;overflow:visible;enable-background:accumulate" />
      <path
         inkscape:connector-curvature="0"
         id="path4910"
         d="m 65.296488,980.81531 c -0.247225,0 -0.440754,0.1936 -0.440754,0.4408 l 0,0.5142 7.101032,0 0,-0.5142 c 0,-0.2472 -0.193529,-0.4408 -0.440754,-0.4408 L 65.296488,980.81531 Z"
         style="opacity:0.25600011;color:#000000;fill:url(#linearGradient4914);fill-opacity:1;fill-rule:nonzero;stroke:none;stroke-width:0.2;marker:none;visibility:visible;display:inline;overflow:visible;enable-background:accumulate" />
      <path
         sodipodi:nodetypes="ccccc"
         inkscape:connector-curvature="0"
         id="path4912"
         d="m 69.994566,986.13361 2.974184,-5.1053 -3.801231,2.9741 L 66.75,984.12961 Z"
         style="fill:#000000;stroke:none" />
    </g>
    <g
       id="g4916"
       transform="matrix(0.26750116,0,0,0.26750116,2.5431946,761.0432)">
      <rect
         ry="0.45607293"
         y="980.73712"
         x="64.777611"
         height="7.2572823"
         width="7.2572823"
         id="rect4918"
         style="color:#000000;fill:#1e1e1e;fill-opacity:0.49112429;fill-rule:nonzero;stroke:none;stroke-width:0.2;marker:none;visibility:visible;display:inline;overflow:visible;enable-background:accumulate" />
      <rect
         style="color:#000000;fill:#ffffff;fill-opacity:1;fill-rule:nonzero;stroke:none;stroke-width:0.2;marker:none;visibility:visible;display:inline;overflow:visible;enable-background:accumulate"
         id="rect4920"
         width="7.1010323"
         height="7.1010323"
         x="64.855736"
         y="980.81525"
         ry="0.44625363" />
      <path
         style="opacity:0.25600011;color:#000000;fill:url(#linearGradient4926);fill-opacity:1;fill-rule:nonzero;stroke:none;stroke-width:0.2;marker:none;visibility:visible;display:inline;overflow:visible;enable-background:accumulate"
         d="m 65.296488,980.81531 c -0.247225,0 -0.440754,0.1936 -0.440754,0.4408 l 0,0.5142 7.101032,0 0,-0.5142 c 0,-0.2472 -0.193529,-0.4408 -0.440754,-0.4408 L 65.296488,980.81531 Z"
         id="path4922"
         inkscape:connector-curvature="0" />
      <path
         style="fill:#000000;stroke:none"
         d="m 69.994566,986.13361 2.974184,-5.1053 -3.801231,2.9741 L 66.75,984.12961 Z"
         id="path4924"
         inkscape:connector-curvature="0"
         sodipodi:nodetypes="ccccc" />
    </g>
    <g
       transform="matrix(0.26750116,0,0,0.26750116,18.543195,765.0432)"
       id="g4928">
      <rect
         style="color:#000000;fill:#1e1e1e;fill-opacity:0.49112429;fill-rule:nonzero;stroke:none;stroke-width:0.2;marker:none;visibility:visible;display:inline;overflow:visible;enable-background:accumulate"
         id="rect4930"
         width="7.2572823"
         height="7.2572823"
         x="64.777611"
         y="980.73712"
         ry="0.45607293" />
      <rect
         ry="0.44625363"
         y="980.81525"
         x="64.855736"
         height="7.1010323"
         width="7.1010323"
         id="rect4932"
         style="color:#000000;fill:#ffffff;fill-opacity:1;fill-rule:nonzero;stroke:none;stroke-width:0.2;marker:none;visibility:visible;display:inline;overflow:visible;enable-background:accumulate" />
      <path
         inkscape:connector-curvature="0"
         id="path4934"
         d="m 65.296488,980.81531 c -0.247225,0 -0.440754,0.1936 -0.440754,0.4408 l 0,0.5142 7.101032,0 0,-0.5142 c 0,-0.2472 -0.193529,-0.4408 -0.440754,-0.4408 L 65.296488,980.81531 Z"
         style="opacity:0.25600011;color:#000000;fill:url(#linearGradient4938);fill-opacity:1;fill-rule:nonzero;stroke:none;stroke-width:0.2;marker:none;visibility:visible;display:inline;overflow:visible;enable-background:accumulate" />
      <path
         sodipodi:nodetypes="ccccc"
         inkscape:connector-curvature="0"
         id="path4936"
         d="m 69.994566,986.13361 2.974184,-5.1053 -3.801231,2.9741 L 66.75,984.12961 Z"
         style="fill:#000000;stroke:none" />
    </g>
    <g
       id="g4940"
       transform="matrix(0.26750116,0,0,0.26750116,18.543195,769.0432)">
      <rect
         ry="0.45607293"
         y="980.73712"
         x="64.777611"
         height="7.2572823"
         width="7.2572823"
         id="rect4942"
         style="color:#000000;fill:#1e1e1e;fill-opacity:0.49112429;fill-rule:nonzero;stroke:none;stroke-width:0.2;marker:none;visibility:visible;display:inline;overflow:visible;enable-background:accumulate" />
      <rect
         style="color:#000000;fill:#ffffff;fill-opacity:1;fill-rule:nonzero;stroke:none;stroke-width:0.2;marker:none;visibility:visible;display:inline;overflow:visible;enable-background:accumulate"
         id="rect4944"
         width="7.1010323"
         height="7.1010323"
         x="64.855736"
         y="980.81525"
         ry="0.44625363" />
      <path
         style="opacity:0.25600011;color:#000000;fill:url(#linearGradient4950);fill-opacity:1;fill-rule:nonzero;stroke:none;stroke-width:0.2;marker:none;visibility:visible;display:inline;overflow:visible;enable-background:accumulate"
         d="m 65.296488,980.81531 c -0.247225,0 -0.440754,0.1936 -0.440754,0.4408 l 0,0.5142 7.101032,0 0,-0.5142 c 0,-0.2472 -0.193529,-0.4408 -0.440754,-0.4408 L 65.296488,980.81531 Z"
         id="path4946"
         inkscape:connector-curvature="0" />
      <path
         style="fill:#000000;stroke:none"
         d="m 69.994566,986.13361 2.974184,-5.1053 -3.801231,2.9741 L 66.75,984.12961 Z"
         id="path4948"
         inkscape:connector-curvature="0"
         sodipodi:nodetypes="ccccc" />
    </g>
    <g
       transform="matrix(0.26750116,0,0,0.26750116,18.543195,773.0432)"
       id="g4952">
      <rect
         style="color:#000000;fill:#1e1e1e;fill-opacity:0.49112429;fill-rule:nonzero;stroke:none;stroke-width:0.2;marker:none;visibility:visible;display:inline;overflow:visible;enable-background:accumulate"
         id="rect4954"
         width="7.2572823"
         height="7.2572823"
         x="64.777611"
         y="980.73712"
         ry="0.45607293" />
      <rect
         ry="0.44625363"
         y="980.81525"
         x="64.855736"
         height="7.1010323"
         width="7.1010323"
         id="rect4956"
         style="color:#000000;fill:#ffffff;fill-opacity:1;fill-rule:nonzero;stroke:none;stroke-width:0.2;marker:none;visibility:visible;display:inline;overflow:visible;enable-background:accumulate" />
      <path
         inkscape:connector-curvature="0"
         id="path4958"
         d="m 65.296488,980.81531 c -0.247225,0 -0.440754,0.1936 -0.440754,0.4408 l 0,0.5142 7.101032,0 0,-0.5142 c 0,-0.2472 -0.193529,-0.4408 -0.440754,-0.4408 L 65.296488,980.81531 Z"
         style="opacity:0.25600011;color:#000000;fill:url(#linearGradient4962);fill-opacity:1;fill-rule:nonzero;stroke:none;stroke-width:0.2;marker:none;visibility:visible;display:inline;overflow:visible;enable-background:accumulate" />
      <path
         sodipodi:nodetypes="ccccc"
         inkscape:connector-curvature="0"
         id="path4960"
         d="m 69.994566,986.13361 2.974184,-5.1053 -3.801231,2.9741 L 66.75,984.12961 Z"
         style="fill:#000000;stroke:none" />
    </g>
    <g
       id="g4964"
       transform="matrix(0.26750116,0,0,0.26750116,18.543195,777.0432)">
      <rect
         ry="0.45607293"
         y="980.73712"
         x="64.777611"
         height="7.2572823"
         width="7.2572823"
         id="rect4966"
         style="color:#000000;fill:#1e1e1e;fill-opacity:0.49112429;fill-rule:nonzero;stroke:none;stroke-width:0.2;marker:none;visibility:visible;display:inline;overflow:visible;enable-background:accumulate" />
      <rect
         style="color:#000000;fill:#ffffff;fill-opacity:1;fill-rule:nonzero;stroke:none;stroke-width:0.2;marker:none;visibility:visible;display:inline;overflow:visible;enable-background:accumulate"
         id="rect4968"
         width="7.1010323"
         height="7.1010323"
         x="64.855736"
         y="980.81525"
         ry="0.44625363" />
      <path
         style="opacity:0.25600011;color:#000000;fill:url(#linearGradient4974);fill-opacity:1;fill-rule:nonzero;stroke:none;stroke-width:0.2;marker:none;visibility:visible;display:inline;overflow:visible;enable-background:accumulate"
         d="m 65.296488,980.81531 c -0.247225,0 -0.440754,0.1936 -0.440754,0.4408 l 0,0.5142 7.101032,0 0,-0.5142 c 0,-0.2472 -0.193529,-0.4408 -0.440754,-0.4408 L 65.296488,980.81531 Z"
         id="path4970"
         inkscape:connector-curvature="0" />
      <path
         style="fill:#000000;stroke:none"
         d="m 69.994566,986.13361 2.974184,-5.1053 -3.801231,2.9741 L 66.75,984.12961 Z"
         id="path4972"
         inkscape:connector-curvature="0"
         sodipodi:nodetypes="ccccc" />
    </g>
    <g
       transform="matrix(0.26745549,0,0,0.26745549,15.676246,756.88551)"
       id="g4981">
      <rect
         ry="0.45607293"
         y="1026.3621"
         x="16.152611"
         height="7.2572823"
         width="7.2572823"
         id="rect4983"
         style="color:#000000;fill:#1e1e1e;fill-opacity:0.49112429;fill-rule:nonzero;stroke:none;stroke-width:0.2;marker:none;visibility:visible;display:inline;overflow:visible;enable-background:accumulate" />
      <rect
         style="color:#000000;fill:#cccccc;fill-opacity:1;fill-rule:nonzero;stroke:none;stroke-width:0.2;marker:none;visibility:visible;display:inline;overflow:visible;enable-background:accumulate"
         id="rect4985"
         width="7.1010323"
         height="7.1010323"
         x="16.230736"
         y="1026.4402"
         ry="0.44625363" />
      <path
         style="opacity:0.25600011;color:#000000;fill:url(#linearGradient4989);fill-opacity:1;fill-rule:nonzero;stroke:none;stroke-width:0.2;marker:none;visibility:visible;display:inline;overflow:visible;enable-background:accumulate"
         d="m 16.671488,1026.4403 c -0.247225,0 -0.440754,0.1936 -0.440754,0.4408 l 0,0.5142 7.101032,0 0,-0.5142 c 0,-0.2472 -0.193529,-0.4408 -0.440754,-0.4408 L 16.671488,1026.4403 Z"
         id="path4987"
         inkscape:connector-curvature="0" />
    </g>
    <g
       id="g4991"
       transform="matrix(0.26745549,0,0,0.26745549,15.676246,760.88551)">
      <rect
         style="color:#000000;fill:#1e1e1e;fill-opacity:0.49112429;fill-rule:nonzero;stroke:none;stroke-width:0.2;marker:none;visibility:visible;display:inline;overflow:visible;enable-background:accumulate"
         id="rect4993"
         width="7.2572823"
         height="7.2572823"
         x="16.152611"
         y="1026.3621"
         ry="0.45607293" />
      <rect
         ry="0.44625363"
         y="1026.4402"
         x="16.230736"
         height="7.1010323"
         width="7.1010323"
         id="rect4995"
         style="color:#000000;fill:#cccccc;fill-opacity:1;fill-rule:nonzero;stroke:none;stroke-width:0.2;marker:none;visibility:visible;display:inline;overflow:visible;enable-background:accumulate" />
      <path
         inkscape:connector-curvature="0"
         id="path4997"
         d="m 16.671488,1026.4403 c -0.247225,0 -0.440754,0.1936 -0.440754,0.4408 l 0,0.5142 7.101032,0 0,-0.5142 c 0,-0.2472 -0.193529,-0.4408 -0.440754,-0.4408 L 16.671488,1026.4403 Z"
         style="opacity:0.25600011;color:#000000;fill:url(#linearGradient4999);fill-opacity:1;fill-rule:nonzero;stroke:none;stroke-width:0.2;marker:none;visibility:visible;display:inline;overflow:visible;enable-background:accumulate" />
    </g>
    <g
       transform="matrix(0.26745549,0,0,0.26745549,15.676246,764.88551)"
       id="g5001">
      <rect
         ry="0.45607293"
         y="1026.3621"
         x="16.152611"
         height="7.2572823"
         width="7.2572823"
         id="rect5003"
         style="color:#000000;fill:#1e1e1e;fill-opacity:0.49112429;fill-rule:nonzero;stroke:none;stroke-width:0.2;marker:none;visibility:visible;display:inline;overflow:visible;enable-background:accumulate" />
      <rect
         style="color:#000000;fill:#cccccc;fill-opacity:1;fill-rule:nonzero;stroke:none;stroke-width:0.2;marker:none;visibility:visible;display:inline;overflow:visible;enable-background:accumulate"
         id="rect5005"
         width="7.1010323"
         height="7.1010323"
         x="16.230736"
         y="1026.4402"
         ry="0.44625363" />
      <path
         style="opacity:0.25600011;color:#000000;fill:url(#linearGradient5009);fill-opacity:1;fill-rule:nonzero;stroke:none;stroke-width:0.2;marker:none;visibility:visible;display:inline;overflow:visible;enable-background:accumulate"
         d="m 16.671488,1026.4403 c -0.247225,0 -0.440754,0.1936 -0.440754,0.4408 l 0,0.5142 7.101032,0 0,-0.5142 c 0,-0.2472 -0.193529,-0.4408 -0.440754,-0.4408 L 16.671488,1026.4403 Z"
         id="path5007"
         inkscape:connector-curvature="0" />
    </g>
    <g
       id="g5011"
       transform="matrix(0.26750116,0,0,0.26750116,18.543195,761.0432)">
      <rect
         ry="0.45607293"
         y="980.73712"
         x="64.777611"
         height="7.2572823"
         width="7.2572823"
         id="rect5013"
         style="color:#000000;fill:#1e1e1e;fill-opacity:0.49112429;fill-rule:nonzero;stroke:none;stroke-width:0.2;marker:none;visibility:visible;display:inline;overflow:visible;enable-background:accumulate" />
      <rect
         style="color:#000000;fill:#ffffff;fill-opacity:1;fill-rule:nonzero;stroke:none;stroke-width:0.2;marker:none;visibility:visible;display:inline;overflow:visible;enable-background:accumulate"
         id="rect5015"
         width="7.1010323"
         height="7.1010323"
         x="64.855736"
         y="980.81525"
         ry="0.44625363" />
      <path
         style="opacity:0.25600011;color:#000000;fill:url(#linearGradient5021);fill-opacity:1;fill-rule:nonzero;stroke:none;stroke-width:0.2;marker:none;visibility:visible;display:inline;overflow:visible;enable-background:accumulate"
         d="m 65.296488,980.81531 c -0.247225,0 -0.440754,0.1936 -0.440754,0.4408 l 0,0.5142 7.101032,0 0,-0.5142 c 0,-0.2472 -0.193529,-0.4408 -0.440754,-0.4408 L 65.296488,980.81531 Z"
         id="path5017"
         inkscape:connector-curvature="0" />
      <path
         style="fill:#000000;stroke:none"
         d="m 69.994566,986.13361 2.974184,-5.1053 -3.801231,2.9741 L 66.75,984.12961 Z"
         id="path5019"
         inkscape:connector-curvature="0"
         sodipodi:nodetypes="ccccc" />
    </g>
    <g
       transform="matrix(0.26750116,0,0,0.26750116,18.543195,757.0432)"
       id="g5023">
      <rect
         style="color:#000000;fill:#1e1e1e;fill-opacity:0.49112429;fill-rule:nonzero;stroke:none;stroke-width:0.2;marker:none;visibility:visible;display:inline;overflow:visible;enable-background:accumulate"
         id="rect5025"
         width="7.2572823"
         height="7.2572823"
         x="64.777611"
         y="980.73712"
         ry="0.45607293" />
      <rect
         ry="0.44625363"
         y="980.81525"
         x="64.855736"
         height="7.1010323"
         width="7.1010323"
         id="rect5027"
         style="color:#000000;fill:#ffffff;fill-opacity:1;fill-rule:nonzero;stroke:none;stroke-width:0.2;marker:none;visibility:visible;display:inline;overflow:visible;enable-background:accumulate" />
      <path
         inkscape:connector-curvature="0"
         id="path5029"
         d="m 65.296488,980.81531 c -0.247225,0 -0.440754,0.1936 -0.440754,0.4408 l 0,0.5142 7.101032,0 0,-0.5142 c 0,-0.2472 -0.193529,-0.4408 -0.440754,-0.4408 L 65.296488,980.81531 Z"
         style="opacity:0.25600011;color:#000000;fill:url(#linearGradient5033);fill-opacity:1;fill-rule:nonzero;stroke:none;stroke-width:0.2;marker:none;visibility:visible;display:inline;overflow:visible;enable-background:accumulate" />
      <path
         sodipodi:nodetypes="ccccc"
         inkscape:connector-curvature="0"
         id="path5031"
         d="m 69.994566,986.13361 2.974184,-5.1053 -3.801231,2.9741 L 66.75,984.12961 Z"
         style="fill:#000000;stroke:none" />
    </g>
    <g
       id="g5035"
       transform="matrix(0.26750116,0,0,0.26750116,18.543195,753.0432)">
      <rect
         ry="0.45607293"
         y="980.73712"
         x="64.777611"
         height="7.2572823"
         width="7.2572823"
         id="rect5037"
         style="color:#000000;fill:#1e1e1e;fill-opacity:0.49112429;fill-rule:nonzero;stroke:none;stroke-width:0.2;marker:none;visibility:visible;display:inline;overflow:visible;enable-background:accumulate" />
      <rect
         style="color:#000000;fill:#ffffff;fill-opacity:1;fill-rule:nonzero;stroke:none;stroke-width:0.2;marker:none;visibility:visible;display:inline;overflow:visible;enable-background:accumulate"
         id="rect5039"
         width="7.1010323"
         height="7.1010323"
         x="64.855736"
         y="980.81525"
         ry="0.44625363" />
      <path
         style="opacity:0.25600011;color:#000000;fill:url(#linearGradient5045);fill-opacity:1;fill-rule:nonzero;stroke:none;stroke-width:0.2;marker:none;visibility:visible;display:inline;overflow:visible;enable-background:accumulate"
         d="m 65.296488,980.81531 c -0.247225,0 -0.440754,0.1936 -0.440754,0.4408 l 0,0.5142 7.101032,0 0,-0.5142 c 0,-0.2472 -0.193529,-0.4408 -0.440754,-0.4408 L 65.296488,980.81531 Z"
         id="path5041"
         inkscape:connector-curvature="0" />
      <path
         style="fill:#000000;stroke:none"
         d="m 69.994566,986.13361 2.974184,-5.1053 -3.801231,2.9741 L 66.75,984.12961 Z"
         id="path5043"
         inkscape:connector-curvature="0"
         sodipodi:nodetypes="ccccc" />
    </g>
  </g>
</svg>
