<?xml version="1.0" encoding="UTF-8" standalone="no"?>
<!-- Created with Inkscape (http://www.inkscape.org/) -->

<svg
   xmlns:dc="http://purl.org/dc/elements/1.1/"
   xmlns:cc="http://creativecommons.org/ns#"
   xmlns:rdf="http://www.w3.org/1999/02/22-rdf-syntax-ns#"
   xmlns:svg="http://www.w3.org/2000/svg"
   xmlns="http://www.w3.org/2000/svg"
   xmlns:xlink="http://www.w3.org/1999/xlink"
   xmlns:sodipodi="http://sodipodi.sourceforge.net/DTD/sodipodi-0.dtd"
   xmlns:inkscape="http://www.inkscape.org/namespaces/inkscape"
   width="48"
   height="48"
   id="svg2"
   version="1.1"
   inkscape:version="0.48+devel r12149"
   sodipodi:docname="nvidia-settings.svg">
  <defs
     id="defs4">
    <linearGradient
       inkscape:collect="always"
       id="linearGradient852">
      <stop
         style="stop-color:#ffffff;stop-opacity:1;"
         offset="0"
         id="stop854" />
      <stop
         style="stop-color:#ffffff;stop-opacity:1"
         offset="1"
         id="stop856" />
    </linearGradient>
    <linearGradient
       id="linearGradient2408"
       inkscape:collect="always">
      <stop
         id="stop2410"
         offset="0"
         style="stop-color:#7eaf05;stop-opacity:1" />
      <stop
         id="stop2412"
         offset="1"
         style="stop-color:#83c320;stop-opacity:1" />
    </linearGradient>
    <linearGradient
       inkscape:collect="always"
       id="linearGradient1079">
      <stop
         style="stop-color:#7eaf05;stop-opacity:1"
         offset="0"
         id="stop1081" />
      <stop
         style="stop-color:#9fdf3c;stop-opacity:1"
         offset="1"
         id="stop1083" />
    </linearGradient>
    <linearGradient
       inkscape:collect="always"
       id="linearGradient872">
      <stop
         style="stop-color:#000000;stop-opacity:1"
         offset="0"
         id="stop874" />
      <stop
         style="stop-color:#1a1a1a;stop-opacity:1"
         offset="1"
         id="stop876" />
    </linearGradient>
    <linearGradient
       inkscape:collect="always"
       xlink:href="#linearGradient872"
       id="linearGradient878"
       x1="23.347015"
       y1="-1053.0018"
       x2="23.347015"
       y2="-1005.0285"
       gradientUnits="userSpaceOnUse"
       gradientTransform="scale(1,-1)" />
    <linearGradient
       inkscape:collect="always"
       xlink:href="#linearGradient1079"
       id="linearGradient1085"
       x1="24.04163"
       y1="1051.3015"
       x2="24.04163"
       y2="1045.8214"
       gradientUnits="userSpaceOnUse"
       gradientTransform="translate(0,-1004.3622)" />
    <linearGradient
       inkscape:collect="always"
       xlink:href="#linearGradient2408"
       id="linearGradient1104"
       x1="42.24963"
       y1="44.069542"
       x2="42.24963"
       y2="24.665476"
       gradientUnits="userSpaceOnUse"
       gradientTransform="translate(0.0122937,1003.8153)" />
    <linearGradient
       inkscape:collect="always"
       xlink:href="#linearGradient852"
       id="linearGradient858"
       x1="17.125"
       y1="1015.0142"
       x2="17.125"
       y2="1010.3267"
       gradientUnits="userSpaceOnUse" />
  </defs>
  <sodipodi:namedview
     id="base"
     pagecolor="#ffffff"
     bordercolor="#666666"
     borderopacity="1.0"
     inkscape:pageopacity="0.0"
     inkscape:pageshadow="2"
     inkscape:zoom="0.99999996"
     inkscape:cx="167.34716"
     inkscape:cy="-28.747516"
     inkscape:document-units="px"
     inkscape:current-layer="layer1"
     showgrid="false"
     inkscape:window-width="1366"
     inkscape:window-height="714"
     inkscape:window-x="0"
     inkscape:window-y="30"
     inkscape:window-maximized="1" />
  <metadata
     id="metadata7">
    <rdf:RDF>
      <cc:Work
         rdf:about="">
        <dc:format>image/svg+xml</dc:format>
        <dc:type
           rdf:resource="http://purl.org/dc/dcmitype/StillImage" />
        <dc:title />
      </cc:Work>
    </rdf:RDF>
  </metadata>
  <g
     inkscape:label="Capa 1"
     inkscape:groupmode="layer"
     id="layer1"
     transform="translate(0,-1004.3622)">
    <rect
       style="fill:#ffffff;fill-opacity:1;stroke:none"
       id="rect2991-1-8"
       width="48"
       height="48"
       x="0"
       y="-1052.3622"
       ry="1.9445436"
       transform="scale(1,-1)" />
    <path
       inkscape:connector-curvature="0"
       style="fill:url(#linearGradient878);fill-opacity:1;stroke:none"
       d="m 1.9375,1004.3622 c -1.07727715,0 -1.9375,0.8602 -1.9375,1.9375 l 0,37.8125 5.625,3.8125 42.375,0 0,-41.625 c 0,-1.0773 -0.860223,-1.9375 -1.9375,-1.9375 L 1.9375,1004.3622 Z M 0,1047.331 l 0,3.0937 c 0,1.0773 0.86022285,1.9375 1.9375,1.9375 l 44.125,0 c 1.077277,0 1.9375,-0.8602 1.9375,-1.9375 l 0,-0.3437 -43.625,0 L 0,1047.331 Z"
       id="rect2991-1" />
    <path
       style="fill:#ffffff;fill-opacity:0.11764706;stroke:none"
       d="M 1.9375,0 C 1.7409166,0 1.5532195,0.04036923 1.375,0.09375 L 0.09375,1.375 C 0.04036812,1.5532211 0,1.7409124 0,1.9375 L 0,2.53125 2.53125,0 Z M 3.46875,0 0,3.46875 0,4.53125 4.53125,0 z m 2,0 L 0,5.46875 0,6.53125 6.53125,0 z m 2,0 L 0,7.46875 0,8.53125 8.53125,0 z m 2,0 L 0,9.46875 0,10.53125 10.53125,0 z m 2,0 L 0,11.46875 0,12.53125 12.53125,0 z m 2,0 L 0,13.46875 0,14.53125 14.53125,0 z m 2,0 L 0,15.46875 0,16.53125 16.53125,0 z m 2,0 L 0,17.46875 0,18.53125 18.53125,0 z m 2,0 L 0,19.46875 0,20.53125 20.53125,0 z m 2,0 L 0,21.46875 0,22.53125 22.53125,0 z m 2,0 L 0,23.46875 0,24.53125 24.53125,0 z m 2,0 L 0,25.46875 0,26.53125 26.53125,0 z m 2,0 L 0,27.46875 0,28.53125 28.53125,0 z m 2,0 L 0,29.46875 0,30.53125 30.53125,0 z m 2,0 L 0,31.46875 0,32.53125 32.53125,0 z m 2,0 L 0,33.46875 0,34.53125 34.53125,0 z m 2,0 L 0,35.46875 0,36.53125 36.53125,0 z m 2,0 L 0,37.46875 0,38.53125 38.53125,0 z m 2,0 L 0,39.46875 0,39.75 0.46875,40.0625 40.53125,0 z m 2,0 -40.4375,40.4375 0.625,0.4375 L 42.53125,0 z m 2,0 -41.25,41.25 0.625,0.4375 L 44.53125,0 z m 2,0 L 3.40625,42.0625 4.03125,42.5 46.46875,0.03125 C 46.34213,0.0056248 46.19716,0 46.0625,0 Z M 47.125,0.34375 4.59375,42.875 5.21875,43.3125 47.65625,0.875 c -0.0048,-0.007287 0.0049,-0.0240331 0,-0.03125 -0.13868,-0.20600977 -0.29399,-0.36132148 -0.5,-0.5 C 47.149033,0.33889184 47.132287,0.34851277 47.125,0.34375 z m 0.84375,1.1875 -42.0625,42.03125 1.0625,0 L 48,2.53125 48,1.9375 C 48,1.8028375 47.994376,1.6578721 47.96875,1.53125 Z M 48,3.46875 7.90625,43.5625 l 1.0625,0 L 48,4.53125 z m 0,2 -38.09375,38.09375 1.0625,0 L 48,6.53125 z m 0,2 -36.09375,36.09375 1.0625,0 L 48,8.53125 z m 0,2 -34.09375,34.09375 1.0625,0 L 48,10.53125 z m 0,2 -32.09375,32.09375 1.0625,0 L 48,12.53125 z m 0,2 -30.09375,30.09375 1.0625,0 L 48,14.53125 z m 0,2 -28.09375,28.09375 1.0625,0 L 48,16.53125 z m 0,2 -26.09375,26.09375 1.0625,0 L 48,18.53125 z m 0,2 -24.09375,24.09375 1.0625,0 L 48,20.53125 z m 0,2 -22.09375,22.09375 1.0625,0 L 48,22.53125 z m 0,2 -20.09375,20.09375 1.0625,0 L 48,24.53125 z m 0,2 -18.09375,18.09375 1.0625,0 L 48,26.53125 z m 0,2 -16.09375,16.09375 1.0625,0 L 48,28.53125 z m 0,2 -14.09375,14.09375 1.0625,0 L 48,30.53125 z m 0,2 -12.09375,12.09375 1.0625,0 L 48,32.53125 z m 0,2 -10.09375,10.09375 1.0625,0 L 48,34.53125 z m 0,2 -8.09375,8.09375 1.0625,0 L 48,36.53125 z m 0,2 -6.09375,6.09375 1.0625,0 L 48,38.53125 z m 0,2 -4.09375,4.09375 1.0625,0 L 48,40.53125 z m 0,2 -2.09375,2.09375 1.0625,0 L 48,42.53125 z m 0,2 L 47.90625,43.5625 48,43.5625 Z"
       transform="translate(0,1004.3622)"
       id="rect1261"
       inkscape:connector-curvature="0"
       sodipodi:nodetypes="sccsccsccccccccccccccccccccccccccccccccccccccccccccccccccccccccccccccccccccccccccccccccccccccccccccccccccccccccccccccsccccccscccccsccccccccccccccccccccccccccccccccccccccccccccccccccccccccccccccccccccccccccccccccccccccccccccccccccccccccc" />
    <g
       id="g1161"
       transform="translate(-0.012294,0)">
      <path
         sodipodi:nodetypes="cccccccccccccccccccccccc"
         inkscape:connector-curvature="0"
         id="path1106"
         d="m 47.668544,1031.0497 c -9.684445,0.316 -15.96875,5.6875 -15.96875,5.6875 0,0 0.02651,0.2355 0.03125,0.3125 C 33.312998,1035.8481 39.208982,1031.8424 47.668544,1031.706 z m -22.90625,3.4688 c -0.0903,0.049 -0.5,0.25 -0.5,0.25 0,0 0.466588,6.2547 3.78125,13.1562 l 5.8125,0 c -0.100214,-0.2304 -0.157325,-0.4591 -0.25,-0.6875 l -5.125,0 C 25.498917,1041.0281 24.868084,1035.5968 24.762294,1034.5185 z m 22.90625,4.375 c -2.875069,0.3549 -5.1875,1.9375 -5.1875,1.9375 0,0 0.01862,0.1953 0.03125,0.4062 C 43.382368,1040.7253 45.375231,1039.6908 47.668544,1039.5185 z m -10.6875,0.1875 c -0.187274,0.1078 -0.46875,0.25 -0.46875,0.25 0,0 -0.0015,4.1878 2.09375,8.5937 l 4.96875,0 c -0.107727,-0.2326 -0.18814,-0.4566 -0.28125,-0.6875 l -4.25,0 C 37.267523,1043.5026 37.021943,1040.0845 36.981044,1039.081 Z"
         style="fill:#000000;fill-opacity:1;fill-rule:nonzero;stroke:none" />
      <path
         sodipodi:nodetypes="ccccccccccccccc"
         inkscape:connector-curvature="0"
         id="path24"
         d="m 48.012294,1027.7216 c -12.232587,0.2299 -23.40625,6.5 -23.40625,6.5 0,0 0.466588,6.2547 3.78125,13.1562 l 5.8125,0 c -2.385467,-5.4838 -2.59375,-10.5 -2.59375,-10.5 C 31.606044,1036.8778 38.073849,1031.3194 48.012294,1031.1591 z m -0.3125,7.875 c -6.401806,0.339 -10.84375,3.1875 -10.84375,3.1875 0,0 -0.0015,4.1878 2.09375,8.5937 l 4.96875,0 c -1.494981,-3.2274 -1.53125,-6.4062 -1.53125,-6.4062 0,0 2.546415,-1.7687 5.625,-2 l 0,-3.375 C 47.908743,1035.6007 47.802343,1035.5911 47.699794,1035.5966 Z"
         style="fill:url(#linearGradient1104);fill-opacity:1;fill-rule:nonzero;stroke:none" />
    </g>
    <path
       style="fill:url(#linearGradient1085);fill-opacity:1;stroke:none"
       d="M 0,42.369125 0,46.0625 C 0,47.1398 0.86022285,48 1.9375,48 l 44.125,0 C 47.139777,48 48,46.540175 48,45.462875 L 48,45.119125 4.375,45.119125 Z"
       transform="translate(0,1004.3622)"
       id="rect1042"
       inkscape:connector-curvature="0"
       sodipodi:nodetypes="cssssccc" />
    <path
       inkscape:connector-curvature="0"
       style="fill:#000000;fill-opacity:1;stroke:none"
       d="m -8.8191987e-8,1049.3622 0,1.0625 c 0,1.0773 0.860222898191987,1.9375 1.937499888191987,1.9375 l 44.1250002,0 c 1.077277,0 1.9375,-0.8602 1.9375,-1.9375 l 0,-1.0625 c 0,1.0773 -0.860223,1.9375 -1.9375,1.9375 l -44.1250002,0 C 0.86022281,1051.2997 -8.8191987e-8,1050.4395 -8.8191987e-8,1049.3622 Z"
       id="rect846" />
    <path
       inkscape:connector-curvature="0"
       style="fill:#ffffff;fill-opacity:0.5372549;stroke:none"
       d="m 2.5312498,1005.0185 c -0.9170884,0 -1.67114669,0.6395 -1.84374989,1.5 0.33561199,-0.2799 0.77451209,-0.4375 1.24999989,-0.4375 l 44.1250002,0 c 0.475488,0 0.914388,0.1576 1.25,0.4375 -0.172603,-0.8605 -0.926662,-1.5 -1.84375,-1.5 L 2.5312498,1005.0185 Z"
       id="path7515" />
    <path
       inkscape:connector-curvature="0"
       style="fill:#000000;fill-opacity:0.39215686;stroke:none"
       d="m 1.9374998,1004.3622 c -1.07727689,0 -1.937499888191987,0.8602 -1.937499888191987,1.9375 l 0,43.0625 c 0,0.7934 0.480023598191987,1.449 1.156249888191987,1.75 -0.30934159,-0.3333 -0.49999989,-0.7824 -0.49999989,-1.2812 l 0,-42.9375 c 0,-1.0482 0.82689889,-1.875 1.87499989,-1.875 l 42.9375002,0 c 1.048101,0 1.875,0.8268 1.875,1.875 l 0,42.9375 c 0,0.4988 -0.190658,0.9479 -0.5,1.2812 0.676226,-0.301 1.15625,-0.9566 1.15625,-1.75 l 0,-43.0625 c 0,-1.0773 -0.860223,-1.9375 -1.9375,-1.9375 L 1.9374998,1004.3622 Z"
       id="rect4280" />
    <path
       style="fill:#000000;fill-opacity:1;fill-rule:nonzero;stroke:none"
       d="m 8.78125,1010.62 1.4375,4.5625 1.875,0 1.46875,-4.5625 -0.09375,0 -1.375,4.3125 -1.875,0 L 8.875,1010.62 8.78125,1010.62 z m 16.8125,0.5938 -0.78125,2.125 0.09375,0 0.6875,-1.875 0.6875,1.875 0.09375,0 L 25.59375,1011.2138 z m -8.15625,0.1562 0,0.25 0.5625,0 c 0.77135,0 1.275766,0.3296 1.3125,1.1875 0.0025,-0.043 0,-0.079 0,-0.125 0,-0.9333 -0.511406,-1.3125 -1.3125,-1.3125 L 17.4375,1011.37 z m -12.15625,0.094 0,0.25 1.03125,0 c 0.3325,0 0.558517,0.079 0.71875,0.25 0.203125,0.2165 0.28125,0.58 0.28125,1.2187 l 0,-0.25 c 0,-0.6387 -0.078125,-1.0022 -0.28125,-1.2187 -0.160233,-0.1706 -0.38625,-0.25 -0.71875,-0.25 L 5.28125,1011.4638 z m 15.25,1.75 c -0.06332,0.487 -0.198535,0.9071 -0.40625,1.125 -0.391718,0.4137 -0.765078,0.5937 -1.875,0.5937 l -2.09375,0 0,0.25 2.09375,0 c 1.109922,0 1.483282,-0.18 1.875,-0.5937 C 20.3672,1014.3347 20.493082,1013.8063 20.53125,1013.2138 z m 4,0.9062 -0.28125,0.8125 -1.1875,0 -0.09375,0.25 1.28125,0 0.28125,-0.8125 2.125,0 0.25,0.8125 1.375,0 -0.09375,-0.25 -1.28125,0 -0.25,-0.8125 L 24.53125,1014.12 Z M 4,1014.9325 l 0,0.25 1.28125,0 0,-0.25 L 4,1014.9325 z m 3.3125,0 0,0.25 1.25,0 0,-0.25 L 7.3125,1014.9325 z m 6.78125,0 0,0.25 1.28125,0 0,-0.25 L 14.09375,1014.9325 z m 7.0625,0 0,0.25 1.3125,0 0,-0.25 L 21.15625,1014.9325 Z"
       id="path2399"
       inkscape:connector-curvature="0" />
    <path
       inkscape:connector-curvature="0"
       id="path2404"
       d="m 8.78125,1010.8622 1.4375,4.5625 1.875,0 1.46875,-4.5625 -0.09375,0 -1.375,4.3125 -1.875,0 L 8.875,1010.8622 8.78125,1010.8622 z m 16.8125,0.5938 -0.78125,2.125 0.09375,0 0.6875,-1.875 0.6875,1.875 0.09375,0 L 25.59375,1011.456 z m -8.15625,0.1562 0,0.25 0.5625,0 c 0.77135,0 1.275766,0.3296 1.3125,1.1875 0.0025,-0.043 0,-0.079 0,-0.125 0,-0.9333 -0.511406,-1.3125 -1.3125,-1.3125 L 17.4375,1011.6122 z m -12.15625,0.094 0,0.25 1.03125,0 c 0.3325,0 0.558517,0.079 0.71875,0.25 0.203125,0.2165 0.28125,0.58 0.28125,1.2187 l 0,-0.25 c 0,-0.6387 -0.078125,-1.0022 -0.28125,-1.2187 -0.160233,-0.1706 -0.38625,-0.25 -0.71875,-0.25 L 5.28125,1011.706 z m 15.25,1.75 c -0.06332,0.487 -0.198535,0.9071 -0.40625,1.125 -0.391718,0.4137 -0.765078,0.5937 -1.875,0.5937 l -2.09375,0 0,0.25 2.09375,0 c 1.109922,0 1.483282,-0.18 1.875,-0.5937 C 20.3672,1014.5769 20.493082,1014.0485 20.53125,1013.456 z m 4,0.9062 -0.28125,0.8125 -1.1875,0 -0.09375,0.25 1.28125,0 0.28125,-0.8125 2.125,0 0.25,0.8125 1.375,0 -0.09375,-0.25 -1.28125,0 -0.25,-0.8125 L 24.53125,1014.3622 Z M 4,1015.1747 l 0,0.25 1.28125,0 0,-0.25 L 4,1015.1747 z m 3.3125,0 0,0.25 1.25,0 0,-0.25 L 7.3125,1015.1747 z m 6.78125,0 0,0.25 1.28125,0 0,-0.25 L 14.09375,1015.1747 z m 7.0625,0 0,0.25 1.3125,0 0,-0.25 L 21.15625,1015.1747 Z"
       style="fill:#000000;fill-opacity:0.50857143;fill-rule:nonzero;stroke:none" />
    <path
       style="fill:#000000;fill-opacity:0.26285718;fill-rule:nonzero;stroke:none"
       d="m 8.78125,1011.1122 1.4375,4.5625 1.875,0 1.46875,-4.5625 -0.09375,0 -1.375,4.3125 -1.875,0 L 8.875,1011.1122 8.78125,1011.1122 z m 16.8125,0.5938 -0.78125,2.125 0.09375,0 0.6875,-1.875 0.6875,1.875 0.09375,0 L 25.59375,1011.706 z m -8.15625,0.1562 0,0.25 0.5625,0 c 0.77135,0 1.275766,0.3296 1.3125,1.1875 0.0025,-0.043 0,-0.079 0,-0.125 0,-0.9333 -0.511406,-1.3125 -1.3125,-1.3125 L 17.4375,1011.8622 z m -12.15625,0.094 0,0.25 1.03125,0 c 0.3325,0 0.558517,0.079 0.71875,0.25 0.203125,0.2165 0.28125,0.58 0.28125,1.2187 l 0,-0.25 c 0,-0.6387 -0.078125,-1.0022 -0.28125,-1.2187 -0.160233,-0.1706 -0.38625,-0.25 -0.71875,-0.25 L 5.28125,1011.956 z m 15.25,1.75 c -0.06332,0.487 -0.198535,0.9071 -0.40625,1.125 -0.391718,0.4137 -0.765078,0.5937 -1.875,0.5937 l -2.09375,0 0,0.25 2.09375,0 c 1.109922,0 1.483282,-0.18 1.875,-0.5937 C 20.3672,1014.8269 20.493082,1014.2985 20.53125,1013.706 z m 4,0.9062 -0.28125,0.8125 -1.1875,0 -0.09375,0.25 1.28125,0 0.28125,-0.8125 2.125,0 0.25,0.8125 1.375,0 -0.09375,-0.25 -1.28125,0 -0.25,-0.8125 L 24.53125,1014.6122 Z M 4,1015.4247 l 0,0.25 1.28125,0 0,-0.25 L 4,1015.4247 z m 3.3125,0 0,0.25 1.25,0 0,-0.25 L 7.3125,1015.4247 z m 6.78125,0 0,0.25 1.28125,0 0,-0.25 L 14.09375,1015.4247 z m 7.0625,0 0,0.25 1.3125,0 0,-0.25 L 21.15625,1015.4247 Z"
       id="path2406"
       inkscape:connector-curvature="0" />
    <path
       inkscape:connector-curvature="0"
       d="m 25.605937,1011.2013 0.777969,2.1289 -1.580547,0 L 25.605937,1011.2013 z m -0.83375,-0.8291 -1.793359,4.5443 1.266328,0 0.283828,-0.8032 2.122344,0 0.268672,0.8032 1.374922,0 -1.80711,-4.5447 L 24.772187,1010.3722 z m -3.60039,4.5458 1.284609,0 0,-4.5472 -1.284921,-2e-4 L 21.171797,1014.9181 z m -8.920234,-4.5474 -1.071876,3.6042 -1.027109,-3.604 -1.386406,-2e-4 1.466875,4.5474 1.851094,0 1.478281,-4.5474 L 12.251563,1010.3706 z m 5.193672,0.9902 0.552265,0 c 0.801094,0 1.319219,0.3598 1.319219,1.2931 0,0.9337 -0.518125,1.2935 -1.319219,1.2935 l -0.552265,0 L 17.445235,1011.3608 z m -1.273907,-0.9902 0,4.5474 2.083125,0 c 1.109922,0 1.47211,-0.1847 1.863828,-0.5984 0.276954,-0.2905 0.455938,-0.9284 0.455938,-1.6253 0,-0.6392 -0.151563,-1.2095 -0.415703,-1.5645 -0.47586,-0.6351 -1.161328,-0.7592 -2.184688,-0.7592 L 16.171328,1010.3706 Z M 4,1010.3606 l 0,4.5537 1.295702,0 0,-3.4577 1.00383,0 c 0.3325,0 0.569375,0.083 0.729608,0.2536 0.203125,0.2165 0.286017,0.5655 0.286017,1.2042 l 0,1.9996 1.255468,0 0,-2.516 c 0,-1.7957 -1.14461,-2.0378 -2.264375,-2.0378 L 4,1010.3642 z m 10.10336,0.01 4.75e-4,4.5476 1.284296,0 0,-4.5475 L 14.10336,1010.3705 Z"
       style="fill:url(#linearGradient858);fill-opacity:1.0;fill-rule:nonzero;stroke:none"
       id="path22" />
  </g>
</svg>
