<?xml version="1.0" encoding="UTF-8" standalone="no"?>
<!-- Created with Inkscape (http://www.inkscape.org/) -->

<svg
   xmlns:dc="http://purl.org/dc/elements/1.1/"
   xmlns:cc="http://creativecommons.org/ns#"
   xmlns:rdf="http://www.w3.org/1999/02/22-rdf-syntax-ns#"
   xmlns:svg="http://www.w3.org/2000/svg"
   xmlns="http://www.w3.org/2000/svg"
   xmlns:xlink="http://www.w3.org/1999/xlink"
   xmlns:sodipodi="http://sodipodi.sourceforge.net/DTD/sodipodi-0.dtd"
   xmlns:inkscape="http://www.inkscape.org/namespaces/inkscape"
   width="48"
   height="48"
   id="svg2"
   version="1.1"
   inkscape:version="0.48+devel r12149"
   sodipodi:docname="omegat.svg">
  <defs
     id="defs4">
    <radialGradient
       inkscape:collect="always"
       xlink:href="#linearGradient867"
       id="radialGradient4100"
       cx="-19.875002"
       cy="1018.7842"
       fx="-19.875002"
       fy="1018.7842"
       r="30.875"
       gradientTransform="matrix(0.53238866,1.0183635e-6,-9.8538012e-7,0.5151453,35.457226,493.23512)"
       gradientUnits="userSpaceOnUse" />
    <linearGradient
       id="linearGradient867">
      <stop
         id="stop869"
         offset="0"
         style="stop-color:#c4e987;stop-opacity:1" />
      <stop
         id="stop871"
         offset="1"
         style="stop-color:#659a14;stop-opacity:1" />
    </linearGradient>
    <linearGradient
       inkscape:collect="always"
       id="linearGradient4047">
      <stop
         style="stop-color:#f9f9f9;stop-opacity:1"
         offset="0"
         id="stop4049" />
      <stop
         style="stop-color:#ffffff;stop-opacity:1"
         offset="1"
         id="stop4051" />
    </linearGradient>
    <linearGradient
       y2="-1003.5718"
       x2="-29.303299"
       y1="-1051.3015"
       x1="-29.303299"
       gradientTransform="translate(53.344928,-1.1022814)"
       gradientUnits="userSpaceOnUse"
       id="linearGradient1098"
       xlink:href="#linearGradient4047"
       inkscape:collect="always" />
  </defs>
  <sodipodi:namedview
     id="base"
     pagecolor="#ffffff"
     bordercolor="#666666"
     borderopacity="1.0"
     inkscape:pageopacity="0.0"
     inkscape:pageshadow="2"
     inkscape:zoom="5.6568543"
     inkscape:cx="0.91726513"
     inkscape:cy="35.233266"
     inkscape:document-units="px"
     inkscape:current-layer="layer1"
     showgrid="false"
     inkscape:window-width="1366"
     inkscape:window-height="714"
     inkscape:window-x="0"
     inkscape:window-y="30"
     inkscape:window-maximized="1">
    <inkscape:grid
       type="xygrid"
       id="grid3850" />
  </sodipodi:namedview>
  <metadata
     id="metadata7">
    <rdf:RDF>
      <cc:Work
         rdf:about="">
        <dc:format>image/svg+xml</dc:format>
        <dc:type
           rdf:resource="http://purl.org/dc/dcmitype/StillImage" />
        <dc:title />
      </cc:Work>
    </rdf:RDF>
  </metadata>
  <g
     inkscape:label="Capa 1"
     inkscape:groupmode="layer"
     id="layer1"
     transform="translate(0,-1004.3622)">
    <rect
       style="fill:url(#linearGradient1098);fill-opacity:1;stroke:none"
       id="rect2991-1"
       width="48"
       height="48"
       x="2.3073455e-06"
       y="-1052.3622"
       ry="1.9445436"
       transform="scale(1,-1)" />
    <path
       inkscape:connector-curvature="0"
       style="fill:#000000;fill-opacity:1;stroke:none"
       d="m -2.3073456e-6,1049.3622 0,1.0625 c 0,1.0773 0.8602229973456,1.9375 1.9375000073456,1.9375 l 44.1250003,0 c 1.077277,0 1.9375,-0.8602 1.9375,-1.9375 l 0,-1.0625 c 0,1.0773 -0.860223,1.9375 -1.9375,1.9375 l -44.1250003,0 C 0.86022069,1051.2997 -2.3073456e-6,1050.4395 -2.3073456e-6,1049.3622 Z"
       id="rect846" />
    <path
       inkscape:connector-curvature="0"
       style="fill:#ffffff;fill-opacity:0.5372549;stroke:none"
       d="m 2.5312477,1005.0185 c -0.917088,0 -1.67114601,0.6395 -1.84375001,1.5 0.33561201,-0.2799 0.77451301,-0.4375 1.25000001,-0.4375 l 44.1250003,0 c 0.475488,0 0.914388,0.1576 1.25,0.4375 -0.172603,-0.8605 -0.926662,-1.5 -1.84375,-1.5 L 2.5312477,1005.0185 Z"
       id="path7515" />
    <path
       inkscape:connector-curvature="0"
       style="fill:#000000;fill-opacity:0.39215686;stroke:none"
       d="m 1.9374977,1004.3622 c -1.07727701,0 -1.9375000073456,0.8602 -1.9375000073456,1.9375 l 0,43.0625 c 0,0.7934 0.4800239973456,1.449 1.1562500073456,1.75 -0.30934101,-0.3333 -0.50000001,-0.7824 -0.50000001,-1.2812 l 0,-42.9375 c 0,-1.0482 0.82689901,-1.875 1.87500001,-1.875 l 42.9375003,0 c 1.048101,0 1.875,0.8268 1.875,1.875 l 0,42.9375 c 0,0.4988 -0.190658,0.9479 -0.5,1.2812 0.676226,-0.301 1.15625,-0.9566 1.15625,-1.75 l 0,-43.0625 c 0,-1.0773 -0.860223,-1.9375 -1.9375,-1.9375 L 1.9374977,1004.3622 Z"
       id="rect4280-2" />
    <g
       id="g4131"
       transform="matrix(1.0059635,0,0,1.0059635,-1.0233393,-7.0129186)">
      <path
         sodipodi:nodetypes="sscccss"
         inkscape:connector-curvature="0"
         id="path4088"
         d="m 24.874996,1013.3321 c -9.07818,0 -16.4375001,5.8398 -16.4375001,13.0435 0,4.9258 3.4397111,9.2103 8.5182181,11.4298 l 0,7.3369 8.019105,-5.7232 c 9.032153,-0.043 16.337677,-5.8663 16.337677,-13.0435 C 41.312496,1019.1719 33.953176,1013.3321 24.874996,1013.3321 Z"
         style="color:#000000;fill:url(#radialGradient4100);fill-opacity:1;fill-rule:nonzero;stroke:none;stroke-width:0.27500001;marker:none;visibility:visible;display:inline;overflow:visible;enable-background:accumulate" />
      <path
         id="path4102"
         transform="translate(0,1004.3622)"
         d="m 15.5625,18.9375 c -1.212874,0 -2.1875,1.005876 -2.1875,2.21875 0,1.212874 0.974626,2.1875 2.1875,2.1875 1.212874,0 2.1875,-0.974626 2.1875,-2.1875 C 17.75,19.943376 16.775374,18.9375 15.5625,18.9375 z m 9.1875,0 c -1.212874,0 -2.21875,1.005876 -2.21875,2.21875 0,1.212874 1.005876,2.1875 2.21875,2.1875 1.212874,0 2.1875,-0.974626 2.1875,-2.1875 C 26.9375,19.943376 25.962874,18.9375 24.75,18.9375 z m 9.1875,0 c -1.212874,0 -2.21875,1.005876 -2.21875,2.21875 0,1.212874 1.005876,2.1875 2.21875,2.1875 1.212874,0 2.1875,-0.974626 2.1875,-2.1875 C 36.125,19.943376 35.150374,18.9375 33.9375,18.9375 Z"
         style="color:#000000;fill:#ffffff;fill-opacity:1;fill-rule:nonzero;stroke:none;stroke-width:0.27500001;marker:none;visibility:visible;display:inline;overflow:visible;enable-background:accumulate"
         inkscape:connector-curvature="0" />
      <path
         id="path4108"
         d="m 14.110764,1016.5431 c -3.466221,2.3914 -5.6732665,5.9016 -5.6732665,9.8326 0,4.9257 3.4397105,9.2102 8.5182185,11.4297 l 0,7.337 8.019104,-5.7232 c 4.630879,-0.022 8.807893,-1.5617 11.779099,-4.0262 -2.867876,1.9917 -6.609638,3.2082 -10.714321,3.2276 l -8.019105,5.7232 0,-7.337 c -5.078507,-2.2194 -8.5182182,-6.504 -8.5182182,-11.4297 C 9.5022748,1022.0626 11.262556,1018.8885 14.110764,1016.5431 Z"
         style="color:#000000;fill:#000000;fill-opacity:0.22784813;fill-rule:nonzero;stroke:none;stroke-width:0.27500001;marker:none;visibility:visible;display:inline;overflow:visible;enable-background:accumulate"
         inkscape:connector-curvature="0" />
      <path
         id="path4126"
         transform="translate(0,1004.3622)"
         d="m 13.53125,20.34375 c -0.103083,0.257264 -0.15625,0.519935 -0.15625,0.8125 0,1.212874 0.974626,2.1875 2.1875,2.1875 1.036679,0 1.89625,-0.723268 2.125,-1.6875 -0.339807,0.765143 -1.10527,1.3125 -2,1.3125 -1.212874,0 -2.1875,-0.9747 -2.1875,-2.1875 C 13.5,20.629637 13.502231,20.487333 13.53125,20.34375 z m 9.15625,0.0625 c -0.09014,0.239795 -0.15625,0.481167 -0.15625,0.75 0,1.212874 1.005876,2.1875 2.21875,2.1875 1.036679,0 1.89625,-0.723268 2.125,-1.6875 -0.339807,0.765143 -1.10527,1.3125 -2,1.3125 -1.212874,0 -2.21875,-0.9747 -2.21875,-2.1875 C 22.65625,20.651186 22.665352,20.530568 22.6875,20.40625 z m 9.1875,0 c -0.09014,0.239795 -0.15625,0.481167 -0.15625,0.75 0,1.212874 1.005876,2.1875 2.21875,2.1875 1.036679,0 1.89625,-0.723268 2.125,-1.6875 -0.339807,0.765143 -1.10527,1.3125 -2,1.3125 -1.212874,0 -2.21875,-0.9747 -2.21875,-2.1875 C 31.84375,20.651186 31.852852,20.530568 31.875,20.40625 Z"
         style="color:#000000;fill:#000000;fill-opacity:0.29957808;fill-rule:nonzero;stroke:none;stroke-width:0.27500001;marker:none;visibility:visible;display:inline;overflow:visible;enable-background:accumulate"
         inkscape:connector-curvature="0" />
    </g>
  </g>
</svg>
