<?xml version="1.0" encoding="UTF-8" standalone="no"?>
<!-- Created with Inkscape (http://www.inkscape.org/) -->

<svg
   xmlns:dc="http://purl.org/dc/elements/1.1/"
   xmlns:cc="http://creativecommons.org/ns#"
   xmlns:rdf="http://www.w3.org/1999/02/22-rdf-syntax-ns#"
   xmlns:svg="http://www.w3.org/2000/svg"
   xmlns="http://www.w3.org/2000/svg"
   xmlns:xlink="http://www.w3.org/1999/xlink"
   xmlns:sodipodi="http://sodipodi.sourceforge.net/DTD/sodipodi-0.dtd"
   xmlns:inkscape="http://www.inkscape.org/namespaces/inkscape"
   width="48"
   height="48"
   id="svg2"
   version="1.1"
   inkscape:version="0.48+devel r12149"
   sodipodi:docname="opera-next-browser.svg"
   inkscape:export-filename="/home/uri/Iconos/NITRUX/apps/512/opera-next-browser.png"
   inkscape:export-xdpi="960"
   inkscape:export-ydpi="960">
  <defs
     id="defs4">
    <linearGradient
       id="linearGradient1861"
       spreadMethod="pad"
       gradientTransform="matrix(13.526835,20.525875,20.525875,-13.526835,19.18986,1021.0543)"
       gradientUnits="userSpaceOnUse"
       y2="0"
       x2="1"
       y1="0"
       x1="0">
      <stop
         id="stop1863"
         offset="0"
         style="stop-opacity:1;stop-color:#ffffff" />
      <stop
         id="stop1865"
         offset="0.168498"
         style="stop-opacity:1;stop-color:#29282b" />
      <stop
         id="stop1867"
         offset="0.263736"
         style="stop-opacity:1;stop-color:#868c95" />
      <stop
         id="stop1869"
         offset="0.395604"
         style="stop-opacity:1;stop-color:#92979f" />
      <stop
         id="stop1871"
         offset="0.542125"
         style="stop-opacity:1;stop-color:#737881" />
      <stop
         id="stop1873"
         offset="0.626374"
         style="stop-opacity:1;stop-color:#70757e" />
      <stop
         id="stop1875"
         offset="0.76692855"
         style="stop-opacity:1;stop-color:#e4e6e8" />
      <stop
         id="stop1877"
         offset="0.83202529"
         style="stop-opacity:1;stop-color:#ffffff" />
      <stop
         id="stop1879"
         offset="1"
         style="stop-opacity:1;stop-color:#1d191a" />
    </linearGradient>
    <linearGradient
       id="linearGradient3545">
      <stop
         id="stop3547"
         style="stop-color:#fafafa;stop-opacity:1"
         offset="0" />
      <stop
         id="stop3671"
         style="stop-color:#dcdcdc;stop-opacity:1"
         offset="0.5" />
      <stop
         id="stop3674"
         style="stop-color:#c8c8c8;stop-opacity:1"
         offset="0.5" />
      <stop
         id="stop3549"
         style="stop-color:#ebebeb;stop-opacity:1"
         offset="1" />
    </linearGradient>
    <linearGradient
       gradientUnits="userSpaceOnUse"
       y2="-1002.8647"
       x2="97.580727"
       y1="-1050.7296"
       x1="97.580727"
       id="linearGradient837"
       xlink:href="#linearGradient3545"
       inkscape:collect="always" />
    <linearGradient
       gradientTransform="matrix(0.97804294,0,0,0.97804294,0.23917415,22.946902)"
       gradientUnits="userSpaceOnUse"
       y2="1007.2222"
       x2="24.405426"
       y1="1051.4187"
       x1="24.405426"
       id="linearGradient847"
       xlink:href="#linearGradient1861"
       inkscape:collect="always" />
  </defs>
  <sodipodi:namedview
     id="base"
     pagecolor="#ffffff"
     bordercolor="#666666"
     borderopacity="1.0"
     inkscape:pageopacity="0.0"
     inkscape:pageshadow="2"
     inkscape:zoom="4.3186037"
     inkscape:cx="-8.7788206"
     inkscape:cy="31.74449"
     inkscape:document-units="px"
     inkscape:current-layer="layer1"
     showgrid="false"
     inkscape:window-width="1366"
     inkscape:window-height="714"
     inkscape:window-x="0"
     inkscape:window-y="30"
     inkscape:window-maximized="1" />
  <metadata
     id="metadata7">
    <rdf:RDF>
      <cc:Work
         rdf:about="">
        <dc:format>image/svg+xml</dc:format>
        <dc:type
           rdf:resource="http://purl.org/dc/dcmitype/StillImage" />
        <dc:title />
      </cc:Work>
    </rdf:RDF>
  </metadata>
  <g
     inkscape:label="Capa 1"
     inkscape:groupmode="layer"
     id="layer1"
     transform="translate(0,-1004.3622)">
    <g
       id="layer1-3"
       inkscape:label="Capa 1">
      <g
         transform="translate(-73.403954,1.455814)"
         id="g839">
        <rect
           style="fill:url(#linearGradient837);fill-opacity:1.0;stroke:none"
           id="rect2991-1-6"
           width="48"
           height="48"
           x="73.403954"
           y="-1050.9064"
           ry="1.9445436"
           transform="scale(1,-1)" />
        <path
           inkscape:connector-curvature="0"
           style="fill:#000000;fill-opacity:1;stroke:none"
           d="m 73.403955,1047.9064 0,1.0625 c 0,1.0773 0.860223,1.9375 1.9375,1.9375 l 44.124995,0 c 1.07728,0 1.9375,-0.8602 1.9375,-1.9375 l 0,-1.0625 c 0,1.0773 -0.86022,1.9375 -1.9375,1.9375 l -44.124995,0 C 74.264178,1049.8439 73.403955,1048.9837 73.403955,1047.9064 Z"
           id="rect846-1" />
        <path
           inkscape:connector-curvature="0"
           style="fill:#ffffff;fill-opacity:0.5372549;stroke:none"
           d="m 75.935205,1003.5627 c -0.917089,0 -1.671147,0.6395 -1.84375,1.5 0.335612,-0.2799 0.774512,-0.4375 1.25,-0.4375 l 44.124995,0 c 0.47549,0 0.91439,0.1576 1.25,0.4375 -0.1726,-0.8605 -0.92666,-1.5 -1.84375,-1.5 L 75.935205,1003.5627 Z"
           id="path7515-9" />
        <path
           inkscape:connector-curvature="0"
           style="fill:#000000;fill-opacity:0.39215686;stroke:none"
           d="m 75.341455,1002.9064 c -1.077277,0 -1.9375,0.8602 -1.9375,1.9375 l 0,43.0625 c 0,0.7934 0.480023,1.449 1.15625,1.75 -0.309342,-0.3333 -0.5,-0.7824 -0.5,-1.2812 l 0,-42.9375 c 0,-1.0482 0.826899,-1.875 1.875,-1.875 l 42.937495,0 c 1.04811,0 1.875,0.8268 1.875,1.875 l 0,42.9375 c 0,0.4988 -0.19065,0.9479 -0.5,1.2812 0.67623,-0.301 1.15625,-0.9566 1.15625,-1.75 l 0,-43.0625 c 0,-1.0773 -0.86022,-1.9375 -1.9375,-1.9375 L 75.341455,1002.9064 Z"
           id="rect4280-9" />
      </g>
      <g
         transform="translate(0.28779455,-0.71839996)"
         id="g853">
        <path
           style="fill:#ffffff;fill-opacity:0.99438201;fill-rule:nonzero;stroke:none;display:inline"
           d="m 23.712205,1014.5779 c -5.360815,0 -6.282445,5.301 -6.387843,12.1033 0.205339,-6.2131 1.347039,-10.8808 6.387843,-10.8808 5.12765,0 6.200145,4.6677 6.387843,10.8808 C 30.006143,1019.8789 29.16538,1014.5779 23.712205,1014.5779 z m -12.775686,14.2427 c -0.0064,0.2019 -0.03056,0.4076 -0.03056,0.6113 0,8.6339 5.73247,15.6487 12.80625,15.6487 7.073778,0 12.806249,-7.0148 12.806249,-15.6487 0,-0.2037 -0.02423,-0.4094 -0.03056,-0.6113 -0.267214,8.3478 -5.872025,15.0374 -12.775685,15.0374 C 16.808543,1043.858 11.203733,1037.1684 10.936519,1028.8206 Z"
           id="path824"
           inkscape:connector-curvature="0" />
        <path
           style="fill:url(#linearGradient847);fill-opacity:1;fill-rule:nonzero;stroke:none;display:inline"
           id="path3539"
           inkscape:connector-curvature="0"
           d="m 23.712205,1013.0806 c -7.073785,0 -12.819394,7.0024 -12.819394,15.6361 0,8.6338 5.745614,15.6613 12.819394,15.6613 7.073778,0 12.819394,-7.0275 12.819394,-15.6613 C 36.531599,1020.083 30.785983,1013.0806 23.712205,1013.0806 z m 0,2.003 c 5.860172,0 6.422212,6.102 6.422212,13.6331 6e-6,7.5312 -0.77897,13.6457 -6.422212,13.6457 -5.742801,0 -6.422219,-6.1145 -6.422219,-13.6457 C 17.289986,1021.1856 17.951286,1015.0836 23.712205,1015.0836 Z" />
        <path
           style="fill:#000000;fill-opacity:0.35393258;fill-rule:nonzero;stroke:none;display:inline"
           d="m 23.712205,1013.0806 c -7.073785,0 -12.80625,7.015 -12.80625,15.6487 0,0.1558 0.02685,0.3037 0.03056,0.4584 0.211373,-8.4082 5.835493,-15.1597 12.775686,-15.1597 6.940186,0 12.564312,6.7515 12.775685,15.1597 0.0037,-0.1547 0.03056,-0.3026 0.03056,-0.4584 C 36.518454,1020.0956 30.785983,1013.0806 23.712205,1013.0806 Z"
           id="path831"
           inkscape:connector-curvature="0"
           sodipodi:nodetypes="sscscss" />
      </g>
    </g>
  </g>
</svg>
