<?xml version="1.0" encoding="UTF-8" standalone="no"?>
<!-- Created with Inkscape (http://www.inkscape.org/) -->

<svg
   xmlns:dc="http://purl.org/dc/elements/1.1/"
   xmlns:cc="http://creativecommons.org/ns#"
   xmlns:rdf="http://www.w3.org/1999/02/22-rdf-syntax-ns#"
   xmlns:svg="http://www.w3.org/2000/svg"
   xmlns="http://www.w3.org/2000/svg"
   xmlns:xlink="http://www.w3.org/1999/xlink"
   xmlns:sodipodi="http://sodipodi.sourceforge.net/DTD/sodipodi-0.dtd"
   xmlns:inkscape="http://www.inkscape.org/namespaces/inkscape"
   width="48"
   height="48"
   id="svg2"
   version="1.1"
   inkscape:version="0.48+devel r12149"
   sodipodi:docname="preferences-desktop-accessibility.svg">
  <defs
     id="defs4">
    <linearGradient
       inkscape:collect="always"
       id="linearGradient929">
      <stop
         style="stop-color:#2174df;stop-opacity:1"
         offset="0"
         id="stop931" />
      <stop
         style="stop-color:#41b7f5;stop-opacity:1"
         offset="1"
         id="stop933" />
    </linearGradient>
    <linearGradient
       inkscape:collect="always"
       xlink:href="#linearGradient929"
       id="linearGradient935"
       x1="25.499998"
       y1="-1052.3622"
       x2="25.499998"
       y2="-1004.8622"
       gradientUnits="userSpaceOnUse" />
  </defs>
  <sodipodi:namedview
     id="base"
     pagecolor="#ffffff"
     bordercolor="#666666"
     borderopacity="1.0"
     inkscape:pageopacity="0.0"
     inkscape:pageshadow="2"
     inkscape:zoom="5.6568543"
     inkscape:cx="9.5065887"
     inkscape:cy="33.77263"
     inkscape:document-units="px"
     inkscape:current-layer="layer1"
     showgrid="false"
     inkscape:window-width="1366"
     inkscape:window-height="714"
     inkscape:window-x="0"
     inkscape:window-y="30"
     inkscape:window-maximized="1">
    <inkscape:grid
       type="xygrid"
       id="grid3850" />
  </sodipodi:namedview>
  <metadata
     id="metadata7">
    <rdf:RDF>
      <cc:Work
         rdf:about="">
        <dc:format>image/svg+xml</dc:format>
        <dc:type
           rdf:resource="http://purl.org/dc/dcmitype/StillImage" />
        <dc:title />
      </cc:Work>
    </rdf:RDF>
  </metadata>
  <g
     inkscape:label="Capa 1"
     inkscape:groupmode="layer"
     id="layer1"
     transform="translate(0,-1004.3622)">
    <rect
       style="fill:url(#linearGradient935);fill-opacity:1;stroke:none"
       id="rect2991-1"
       width="48"
       height="48"
       x="3.3551789e-08"
       y="-1052.3622"
       ry="1.9445436"
       transform="scale(1,-1)" />
    <path
       inkscape:connector-curvature="0"
       style="fill:#000000;fill-opacity:1;stroke:none"
       d="m -3.3551788e-8,1049.3622 0,1.0625 c 0,1.0773 0.860222863551788,1.9375 1.937499833551788,1.9375 l 44.1250002,0 c 1.077277,0 1.9375,-0.8602 1.9375,-1.9375 l 0,-1.0625 c 0,1.0773 -0.860223,1.9375 -1.9375,1.9375 l -44.1250002,0 C 0.86022283,1051.2997 -3.3551788e-8,1050.4395 -3.3551788e-8,1049.3622 Z"
       id="rect846" />
    <path
       inkscape:connector-curvature="0"
       style="fill:#ffffff;fill-opacity:0.5372549;stroke:none"
       d="m 2.5312498,1005.0185 c -0.9170884,0 -1.67114667,0.6395 -1.84374987,1.5 0.33561197,-0.2799 0.77451207,-0.4375 1.24999987,-0.4375 l 44.1250002,0 c 0.475488,0 0.914388,0.1576 1.25,0.4375 -0.172603,-0.8605 -0.926662,-1.5 -1.84375,-1.5 L 2.5312498,1005.0185 Z"
       id="path7515" />
    <path
       inkscape:connector-curvature="0"
       style="fill:#000000;fill-opacity:0.39215686;stroke:none"
       d="m 1.9374998,1004.3622 c -1.07727687,0 -1.937499833551788,0.8602 -1.937499833551788,1.9375 l 0,43.0625 c 0,0.7934 0.480023603551788,1.449 1.156249833551788,1.75 -0.30934157,-0.3333 -0.49999987,-0.7824 -0.49999987,-1.2812 l 0,-42.9375 c 0,-1.0482 0.82689887,-1.875 1.87499987,-1.875 l 42.9375002,0 c 1.048101,0 1.875,0.8268 1.875,1.875 l 0,42.9375 c 0,0.4988 -0.190658,0.9479 -0.5,1.2812 0.676226,-0.301 1.15625,-0.9566 1.15625,-1.75 l 0,-43.0625 c 0,-1.0773 -0.860223,-1.9375 -1.9375,-1.9375 L 1.9374998,1004.3622 Z"
       id="rect4280" />
    <g
       id="g955">
      <path
         style="fill:#ffffff;fill-opacity:1;stroke:none"
         id="path2851"
         inkscape:connector-curvature="0"
         d="m 27.678315,1015.87 c 0,1.9363 -1.575343,3.5077 -3.51639,3.5077 -1.941047,0 -3.51639,-1.5714 -3.51639,-3.5077 0,-1.9362 1.575343,-3.5076 3.51639,-3.5076 C 26.102972,1012.3624 27.678315,1013.9338 27.678315,1015.87 z m 8.328389,4.0752 -12.011521,1.7098 -11.946829,-1.7355 c -0.629869,-0.1702 -0.743021,-0.1582 -1.088097,0.01 -0.345077,0.1659 -0.5713,0.4268 -0.576058,0.8009 -0.0044,0.3743 0.235271,0.6969 0.576058,0.871 l 9.361505,2.8037 -0.06403,6.8007 -3.21584,10.1852 c -0.159466,0.5696 -0.09706,1.0065 0.168568,1.3686 0.336364,0.4585 1.153977,0.215 1.472158,-0.2488 l 5.330856,-10.994 5.23023,10.975 c 0.282814,0.4811 0.913239,0.6481 1.40814,0.3733 0.494902,-0.2749 0.517352,-0.8877 0.340338,-1.3687 l -3.19828,-10.229 -0.127992,-6.4024 9.492861,-3.3 c 0.38355,-0.2615 0.550176,-0.7563 0.384051,-1.182 -0.166137,-0.4258 -0.489498,-0.5412 -0.954921,-0.4897 C 36.421219,1019.8776 36.152029,1019.899 36.006704,1019.9452 Z" />
      <path
         inkscape:connector-curvature="0"
         id="path937"
         d="m 20.681509,1016.0974 c -0.0059,0.082 -0.02739,0.1626 -0.02739,0.2465 0,1.9363 1.564712,3.5058 3.505759,3.5058 1.941047,0 3.505759,-1.5695 3.505759,-3.5058 0,-0.084 -0.02156,-0.1639 -0.02739,-0.2465 -0.115197,1.8327 -1.612253,3.2866 -3.47837,3.2866 C 22.293763,1019.384 20.796706,1017.9301 20.681509,1016.0974 z m 16.898853,4.8204 c -0.05285,0.2519 -0.186662,0.5046 -0.410831,0.6573 l -9.503893,3.2867 0,0.4656 9.503893,-3.2866 C 37.528461,1021.7961 37.696294,1021.3233 37.580362,1020.9178 z m -27.142242,0.082 c -0.01735,0.065 -0.05384,0.118 -0.05478,0.1917 -0.0044,0.3742 0.234377,0.7023 0.575164,0.8764 l 9.366949,2.7937 0,-0.4656 -9.366949,-2.7937 C 10.702916,1021.472 10.519648,1021.2568 10.43812,1021 z m 13.584815,10.5173 -5.340804,10.9828 c -0.318181,0.4638 -1.142629,0.705 -1.478992,0.2466 -0.122397,-0.1669 -0.212223,-0.3435 -0.246499,-0.5478 -0.04976,0.4024 0.03876,0.7301 0.246499,1.0133 0.336363,0.4585 1.160811,0.2174 1.478992,-0.2464 l 5.340804,-10.9831 5.23125,10.9829 c 0.282814,0.4811 0.901924,0.6308 1.396825,0.356 0.398023,-0.221 0.481976,-0.6543 0.410832,-1.0681 -0.04535,0.2477 -0.163381,0.4651 -0.410832,0.6025 -0.494901,0.2749 -1.114011,0.125 -1.396825,-0.3561 L 24.022935,1031.5173 Z"
         style="fill:#ffffff;fill-opacity:0.23659602;stroke:none" />
      <path
         style="fill:#ffffff;fill-opacity:0.11664686;stroke:none"
         d="m 20.681509,1016.563 c -0.0059,0.082 -0.02739,0.1625 -0.02739,0.2465 0,1.9362 1.564712,3.5058 3.505759,3.5058 1.941047,0 3.505759,-1.5696 3.505759,-3.5058 0,-0.084 -0.02156,-0.164 -0.02739,-0.2465 -0.115197,1.8327 -1.612253,3.2866 -3.47837,3.2866 C 22.293763,1019.8496 20.796706,1018.3957 20.681509,1016.563 z m 16.898853,4.8204 c -0.05285,0.2519 -0.186662,0.5045 -0.410831,0.6573 l -9.503893,3.2867 0,0.4656 9.503893,-3.2866 C 37.528461,1022.2617 37.696294,1021.7889 37.580362,1021.3834 z m -27.142242,0.082 c -0.01735,0.065 -0.05384,0.1179 -0.05478,0.1916 -0.0044,0.3743 0.234377,0.7023 0.575164,0.8765 l 9.366949,2.7936 0,-0.4655 -9.366949,-2.7937 C 10.702916,1021.9375 10.519648,1021.7224 10.43812,1021.4656 z m 13.584815,10.5172 -5.340804,10.9829 c -0.318181,0.4638 -1.142629,0.705 -1.478992,0.2465 -0.122397,-0.1669 -0.212223,-0.3435 -0.246499,-0.5478 -0.04976,0.4024 0.03876,0.7302 0.246499,1.0134 0.336363,0.4584 1.160811,0.2173 1.478992,-0.2465 l 5.340804,-10.9831 5.23125,10.983 c 0.282814,0.481 0.901924,0.6308 1.396825,0.356 0.398023,-0.2211 0.481976,-0.6543 0.410832,-1.0682 -0.04535,0.2477 -0.163381,0.4652 -0.410832,0.6026 -0.494901,0.2748 -1.114011,0.125 -1.396825,-0.3561 L 24.022935,1031.9829 Z"
         id="path942"
         inkscape:connector-curvature="0" />
      <path
         inkscape:connector-curvature="0"
         id="path944"
         d="m 20.681509,1017.0012 c -0.0059,0.082 -0.02739,0.1626 -0.02739,0.2465 0,1.9362 1.564712,3.5058 3.505759,3.5058 1.941047,0 3.505759,-1.5696 3.505759,-3.5058 0,-0.084 -0.02156,-0.164 -0.02739,-0.2465 -0.115197,1.8327 -1.612253,3.2866 -3.47837,3.2866 C 22.293763,1020.2878 20.796706,1018.8339 20.681509,1017.0012 z m 16.898853,4.8204 c -0.05285,0.2519 -0.186662,0.5046 -0.410831,0.6573 l -9.503893,3.2867 0,0.4656 9.503893,-3.2866 C 37.528461,1022.6999 37.696294,1022.2271 37.580362,1021.8216 z m -27.142242,0.082 c -0.01735,0.065 -0.05384,0.1179 -0.05478,0.1917 -0.0044,0.3742 0.234377,0.7022 0.575164,0.8764 l 9.366949,2.7936 0,-0.4655 -9.366949,-2.7937 C 10.702916,1022.3758 10.519648,1022.1606 10.43812,1021.9038 z m 13.584815,10.5173 -5.340804,10.9828 c -0.318181,0.4638 -1.142629,0.705 -1.478992,0.2465 -0.122397,-0.1668 -0.212223,-0.3434 -0.246499,-0.5477 -0.04976,0.4023 0.03876,0.7301 0.246499,1.0133 0.336363,0.4585 1.160811,0.2174 1.478992,-0.2465 l 5.340804,-10.9831 5.23125,10.983 c 0.282814,0.4811 0.901924,0.6308 1.396825,0.356 0.398023,-0.2211 0.481976,-0.6543 0.410832,-1.0681 -0.04535,0.2476 -0.163381,0.4651 -0.410832,0.6025 -0.494901,0.2749 -1.114011,0.125 -1.396825,-0.3561 L 24.022935,1032.4211 Z"
         style="fill:#ffffff;fill-opacity:0.05882353;stroke:none" />
      <path
         inkscape:connector-curvature="0"
         id="path946"
         d="m 24.159879,1012.3726 c -1.941047,0 -3.505759,1.5695 -3.505759,3.5057 0,0.068 0.02354,0.1246 0.02739,0.1917 0.115197,-1.8326 1.612254,-3.2866 3.47837,-3.2866 1.866117,0 3.363173,1.454 3.47837,3.2866 0.0038,-0.067 0.02739,-0.1236 0.02739,-0.1917 C 27.665638,1013.9421 26.100926,1012.3726 24.159879,1012.3726 z m -12.763153,7.4223 c -0.150156,0 -0.265682,0.053 -0.43822,0.137 -0.345077,0.1659 -0.570405,0.4202 -0.575163,0.7942 -8.85e-4,0.076 0.03694,0.1486 0.05478,0.2191 0.07184,-0.2626 0.244988,-0.4701 0.520386,-0.6025 0.345076,-0.1669 0.46568,-0.1702 1.095549,0 l 11.941491,1.7255 12.023657,-1.6981 c 0.145325,-0.046 0.408484,-0.069 0.575163,-0.055 0.465423,-0.052 0.792469,0.067 0.958607,0.493 0.01403,0.036 0.01804,0.073 0.02739,0.1096 0.03757,-0.1791 0.04164,-0.3709 -0.02739,-0.5478 -0.166137,-0.4258 -0.493184,-0.5172 -0.958607,-0.4656 -0.166679,-0.014 -0.429837,-0.019 -0.575163,0.027 l -12.023657,1.7254 -11.941491,-1.7254 C 11.739121,1019.8468 11.546882,1019.7923 11.396726,1019.7949 z m 8.873952,11.4211 -3.231871,10.1612 c -0.07973,0.2848 -0.111038,0.5412 -0.08217,0.7669 0.01426,-0.1046 0.04997,-0.2136 0.08217,-0.3286 L 20.270678,1031.6268 20.270678,1031.216 z m 7.531903,0.055 0,0.4108 3.177094,10.2434 c 0.03465,0.094 0.06485,0.2006 0.08217,0.3013 0.03802,-0.2406 0.0032,-0.5076 -0.08217,-0.7395 L 27.802581,1031.2708 Z"
         style="fill:#000000;fill-opacity:0.23545293;stroke:none" />
      <path
         inkscape:connector-curvature="0"
         style="fill:#000000;fill-opacity:0.1174089;stroke:none"
         d="m 24.159879,1012.7889 c -1.941047,0 -3.505759,1.5695 -3.505759,3.5058 0,0.068 0.02354,0.1246 0.02739,0.1917 0.115197,-1.8327 1.612254,-3.2866 3.47837,-3.2866 1.866117,0 3.363173,1.4539 3.47837,3.2866 0.0039,-0.067 0.02739,-0.1236 0.02739,-0.1917 C 27.665638,1014.3584 26.100926,1012.7889 24.159879,1012.7889 z m -12.763153,7.4224 c -0.150156,0 -0.265682,0.053 -0.43822,0.1369 -0.345077,0.1659 -0.570405,0.4203 -0.575163,0.7943 -8.86e-4,0.075 0.03694,0.1486 0.05478,0.2191 0.07184,-0.2626 0.244988,-0.4701 0.520386,-0.6025 0.345076,-0.1669 0.46568,-0.1702 1.095549,0 l 11.941491,1.7254 12.023657,-1.6981 c 0.145325,-0.046 0.408484,-0.069 0.575163,-0.054 0.465423,-0.052 0.792469,0.068 0.958607,0.493 0.01403,0.036 0.01804,0.073 0.02739,0.1095 0.03757,-0.179 0.04164,-0.3708 -0.02739,-0.5477 -0.166137,-0.4258 -0.493184,-0.5171 -0.958607,-0.4656 -0.166679,-0.014 -0.429837,-0.019 -0.575163,0.027 l -12.023657,1.7252 -11.941491,-1.7255 C 11.739121,1020.2631 11.546882,1020.2087 11.396726,1020.2113 z m 8.873952,11.4211 -3.231871,10.1612 c -0.07973,0.2848 -0.111038,0.5412 -0.08217,0.7669 0.01426,-0.1046 0.04997,-0.2137 0.08217,-0.3286 L 20.270678,1032.0432 20.270678,1031.6324 z m 7.531903,0.054 0,0.4109 3.177094,10.2434 c 0.03466,0.094 0.06485,0.2005 0.08217,0.3012 0.03802,-0.2406 0.0032,-0.5075 -0.08217,-0.7394 L 27.802581,1031.6871 Z"
         id="path951" />
      <path
         id="path953"
         d="m 24.159879,1013.1956 c -1.941047,0 -3.505759,1.5695 -3.505759,3.5057 0,0.068 0.02354,0.1247 0.02739,0.1918 0.115197,-1.8327 1.612254,-3.2866 3.47837,-3.2866 1.866117,0 3.363173,1.4539 3.47837,3.2866 0.0039,-0.067 0.02739,-0.1237 0.02739,-0.1918 C 27.665638,1014.7651 26.100926,1013.1956 24.159879,1013.1956 z m -12.763153,7.4224 c -0.150156,0 -0.265682,0.053 -0.43822,0.1369 -0.345077,0.1659 -0.570405,0.4202 -0.575163,0.7943 -8.86e-4,0.075 0.03694,0.1486 0.05478,0.2191 0.07184,-0.2627 0.244988,-0.4701 0.520386,-0.6025 0.345076,-0.1669 0.46568,-0.1703 1.095549,0 l 11.941491,1.7254 12.023657,-1.6981 c 0.145325,-0.046 0.408484,-0.069 0.575163,-0.054 0.465423,-0.052 0.792469,0.067 0.958607,0.493 0.01403,0.036 0.01804,0.073 0.02739,0.1095 0.03757,-0.179 0.04164,-0.3708 -0.02739,-0.5478 -0.166137,-0.4257 -0.493184,-0.5171 -0.958607,-0.4655 -0.166679,-0.014 -0.429837,-0.019 -0.575163,0.027 l -12.023657,1.7253 -11.941491,-1.7255 C 11.739121,1020.6698 11.546882,1020.6153 11.396726,1020.618 z m 8.873952,11.421 -3.231871,10.1613 c -0.07973,0.2848 -0.111038,0.5412 -0.08217,0.7669 0.01426,-0.1047 0.04997,-0.2137 0.08217,-0.3287 L 20.270678,1032.4499 20.270678,1032.039 z m 7.531903,0.054 0,0.4109 3.177094,10.2433 c 0.03466,0.094 0.06485,0.2006 0.08217,0.3013 0.03802,-0.2406 0.0032,-0.5076 -0.08217,-0.7395 L 27.802581,1032.0938 Z"
         style="fill:#000000;fill-opacity:0.05882353;stroke:none"
         inkscape:connector-curvature="0" />
    </g>
  </g>
</svg>
