<?xml version="1.0" encoding="UTF-8" standalone="no"?>
<!-- Created with Inkscape (http://www.inkscape.org/) -->

<svg
   xmlns:dc="http://purl.org/dc/elements/1.1/"
   xmlns:cc="http://creativecommons.org/ns#"
   xmlns:rdf="http://www.w3.org/1999/02/22-rdf-syntax-ns#"
   xmlns:svg="http://www.w3.org/2000/svg"
   xmlns="http://www.w3.org/2000/svg"
   xmlns:xlink="http://www.w3.org/1999/xlink"
   xmlns:sodipodi="http://sodipodi.sourceforge.net/DTD/sodipodi-0.dtd"
   xmlns:inkscape="http://www.inkscape.org/namespaces/inkscape"
   width="48"
   height="48"
   id="svg2"
   version="1.1"
   inkscape:version="0.48+devel r12149"
   sodipodi:docname="pdfmod.svg">
  <defs
     id="defs4">
    <linearGradient
       id="linearGradient868">
      <stop
         style="stop-color:#aa0000;stop-opacity:1"
         offset="0"
         id="stop870" />
      <stop
         style="stop-color:#ff5555;stop-opacity:1"
         offset="1"
         id="stop872" />
    </linearGradient>
    <linearGradient
       id="linearGradient868-8">
      <stop
         id="stop870-1"
         offset="0"
         style="stop-color:#f9f9f9;stop-opacity:1" />
      <stop
         id="stop872-8"
         offset="1"
         style="stop-color:#ffffff;stop-opacity:1" />
    </linearGradient>
    <linearGradient
       gradientUnits="userSpaceOnUse"
       y2="-1005.2044"
       x2="24.176777"
       y1="-1052.1854"
       x1="24.176777"
       id="linearGradient844"
       xlink:href="#linearGradient868-8"
       inkscape:collect="always" />
    <linearGradient
       inkscape:collect="always"
       xlink:href="#linearGradient868"
       id="linearGradient851"
       x1="24.124998"
       y1="1042.9872"
       x2="24.124998"
       y2="1013.4872"
       gradientUnits="userSpaceOnUse" />
  </defs>
  <sodipodi:namedview
     id="base"
     pagecolor="#ffffff"
     bordercolor="#666666"
     borderopacity="1.0"
     inkscape:pageopacity="0.0"
     inkscape:pageshadow="2"
     inkscape:zoom="4.0000002"
     inkscape:cx="48.149335"
     inkscape:cy="26.688021"
     inkscape:document-units="px"
     inkscape:current-layer="layer1"
     showgrid="false"
     inkscape:window-width="1366"
     inkscape:window-height="714"
     inkscape:window-x="0"
     inkscape:window-y="30"
     inkscape:window-maximized="1" />
  <metadata
     id="metadata7">
    <rdf:RDF>
      <cc:Work
         rdf:about="">
        <dc:format>image/svg+xml</dc:format>
        <dc:type
           rdf:resource="http://purl.org/dc/dcmitype/StillImage" />
        <dc:title />
      </cc:Work>
    </rdf:RDF>
  </metadata>
  <g
     inkscape:label="Capa 1"
     inkscape:groupmode="layer"
     id="layer1"
     transform="translate(0,-1004.3622)">
    <g
       id="layer1-9"
       inkscape:label="Capa 1"
       transform="translate(0,8.691406e-6)">
      <rect
         transform="scale(1,-1)"
         ry="1.9445436"
         y="-1052.3622"
         x="7.3376464e-07"
         height="48"
         width="48"
         id="rect2991-1"
         style="fill:url(#linearGradient844);fill-opacity:1;stroke:none" />
      <path
         id="rect846"
         d="m -7.3376464e-7,1049.3622 0,1.0625 c 0,1.0773 0.86022300376464,1.9375 1.93750003376464,1.9375 l 44.1249997,0 c 1.077278,0 1.937501,-0.8602 1.937501,-1.9375 l 0,-1.0625 c 0,1.0773 -0.860223,1.9375 -1.937501,1.9375 l -44.1249997,0 C 0.86022227,1051.2997 -7.3376464e-7,1050.4395 -7.3376464e-7,1049.3622 Z"
         style="fill:#000000;fill-opacity:1;stroke:none"
         inkscape:connector-curvature="0" />
      <path
         id="path7515"
         d="m 2.5312493,1005.0185 c -0.917088,0 -1.67114603,0.6395 -1.84375003,1.5 0.33561203,-0.2799 0.77451303,-0.4375 1.25000003,-0.4375 l 44.1249997,0 c 0.475488,0 0.914388,0.1576 1.250001,0.4375 -0.172603,-0.8605 -0.926663,-1.5 -1.843751,-1.5 L 2.5312493,1005.0185 Z"
         style="fill:#ffffff;fill-opacity:0.5372549;stroke:none"
         inkscape:connector-curvature="0" />
      <path
         id="rect4280-4"
         d="m 1.9374993,1004.3622 c -1.07727703,0 -1.93750003376464,0.8602 -1.93750003376464,1.9375 l 0,43.0625 c 0,0.7934 0.48002400376464,1.449 1.15625003376464,1.75 -0.30934103,-0.3333 -0.50000003,-0.7824 -0.50000003,-1.2812 l 0,-42.9375 c 0,-1.0482 0.82689903,-1.875 1.87500003,-1.875 l 42.9374997,0 c 1.048101,0 1.875001,0.8268 1.875001,1.875 l 0,42.9375 c 0,0.4988 -0.190658,0.9479 -0.500001,1.2812 0.676227,-0.301 1.156251,-0.9566 1.156251,-1.75 l 0,-43.0625 c 0,-1.0773 -0.860223,-1.9375 -1.937501,-1.9375 L 1.9374993,1004.3622 Z"
         style="fill:#000000;fill-opacity:0.39215686;stroke:none"
         inkscape:connector-curvature="0" />
      <path
         style="fill:#000000;fill-opacity:0.5372549;fill-rule:nonzero;stroke:none;enable-background:new"
         id="path846"
         inkscape:connector-curvature="0"
         d="m 22.307282,1013.9932 c -0.506357,0 -0.606234,0.022 -0.809926,0.1946 -0.405525,0.3395 -0.636623,1.3858 -0.634282,2.906 0.0022,1.5727 0.217694,3.069 0.712346,5.0163 l 0.312264,1.2145 -0.292747,0.9141 c -0.929814,2.9713 -2.277872,6.0638 -4.264323,9.7687 -3.010554,5.6167 -5.337172,8.5646 -6.957585,8.8269 -0.260722,0.04 -0.273229,0.033 -0.273229,-0.1557 0,-0.948 1.797213,-3.318 3.795932,-5.0059 1.020984,-0.8625 -0.167149,-0.2863 -1.541792,0.7483 -1.385292,1.0424 -2.5327927,2.3942 -2.888422,3.4019 -0.2528796,0.7169 -0.1993865,0.9703 0.2634708,1.2052 0.8270062,0.4206 1.2478602,0.4374 1.9516362,0.088 1.368046,-0.6795 3.17725,-2.8282 5.191352,-6.163 0.653073,-1.0812 0.858002,-1.3511 1.024608,-1.3511 0.05869,0 0.675896,-0.1715 1.366146,-0.3789 2.758776,-0.8317 6.071422,-1.5027 9.319064,-1.8957 l 1.083158,-0.1366 0.546458,0.2726 c 1.423132,0.7141 3.406095,1.4064 4.859575,1.691 0.983045,0.1929 2.263159,0.2286 2.693258,0.078 0.271004,-0.094 0.835564,-0.4289 0.835571,-0.5391 -1.103149,0.5171 -2.765905,-0.1218 -4.01674,-0.4908 -0.824713,-0.2597 -2.639675,-0.9697 -2.742046,-1.0696 2.197491,-0.4249 6.319485,-0.5194 6.762417,1.0011 0.129775,0 0.09643,-0.6103 -0.04882,-0.8548 -0.271979,-0.4591 -1.060092,-0.8295 -2.195592,-1.0405 -0.919331,-0.1709 -3.097731,-0.2189 -4.801026,-0.1067 l -1.512519,0.097 -0.546457,-0.3304 c -3.133438,-1.8987 -4.792959,-4.0397 -6.294027,-8.1073 -0.225258,-0.6106 -0.240414,-0.6945 -0.165889,-1.0793 0.262388,-1.3546 0.505891,-5.9326 0.32202,-6.0456 -0.334885,1.4998 -0.605706,3 -0.946543,4.3544 -0.07041,0 -0.276692,-1.0552 -0.43912,-2.2839 -0.17672,-1.3372 -0.112542,-3.1454 0.126859,-3.7622 0.09593,-0.2467 0.221057,-0.472 0.282985,-0.4958 0.613644,0.1759 0.955176,0.6619 1.044125,1.4094 0.08707,0 0.109428,-0.1427 0.126858,-0.6023 C 23.594671,1014.2744 23.323639,1013.9932 22.307282,1013.9932 z m 0.243953,11.1595 c 0.03475,-0.01 0.05455,0.065 0.09758,0.1845 0.05295,0.1488 0.349438,0.7568 0.653799,1.3513 1.309591,2.5567 2.759813,4.2337 4.849817,5.6082 0.105886,0.069 0.171307,0.1496 0.146373,0.175 -0.02491,0.022 -0.450359,0.1176 -0.936785,0.2041 -3.317052,0.591 -7.446682,1.8338 -9.455678,2.8383 -0.03195,0.017 -0.05853,-0.016 -0.05853,-0.066 1e-6,-0.052 0.197476,-0.464 0.448876,-0.9136 1.893568,-3.3874 3.165961,-6.1247 3.883754,-8.3792 C 22.408134,1025.4384 22.493275,1025.1706 22.551235,1025.1527 Z" />
      <path
         d="m 22.307282,1013.3622 c -0.506357,0 -0.606234,0.022 -0.809926,0.1946 -0.405525,0.3396 -0.636623,1.3858 -0.634282,2.906 0.0022,1.5727 0.217694,3.0691 0.712346,5.0163 l 0.312264,1.2145 -0.292747,0.9141 c -0.929814,2.9713 -2.277872,6.0639 -4.264323,9.7687 -3.010554,5.6167 -5.337172,8.5646 -6.957585,8.8269 -0.260722,0.04 -0.273229,0.033 -0.273229,-0.1556 0,-0.9481 1.797213,-3.3181 3.795932,-5.0059 1.020984,-0.8626 -0.167149,-0.2864 -1.541792,0.7482 -1.385292,1.0424 -2.5327927,2.3942 -2.888422,3.4019 -0.2528796,0.7169 -0.1993865,0.9703 0.2634708,1.2053 0.8270062,0.4205 1.2478602,0.4374 1.9516362,0.088 1.368046,-0.6796 3.17725,-2.8283 5.191352,-6.1631 0.653073,-1.0811 0.858002,-1.351 1.024608,-1.351 0.05869,0 0.675896,-0.1716 1.366146,-0.379 2.758776,-0.8317 6.071422,-1.5027 9.319064,-1.8957 l 1.083158,-0.1365 0.546458,0.2726 c 1.423132,0.7141 3.406095,1.4064 4.859575,1.691 0.983045,0.1928 2.263159,0.2286 2.693258,0.078 0.271004,-0.094 0.835564,-0.429 0.835571,-0.5391 -1.103149,0.517 -2.765905,-0.1219 -4.01674,-0.4909 -0.824713,-0.2597 -2.639675,-0.9697 -2.742046,-1.0695 2.197491,-0.425 6.319485,-0.5195 6.762417,1.0011 0.129775,-10e-5 0.09643,-0.6103 -0.04882,-0.8548 -0.271979,-0.4592 -1.060092,-0.8295 -2.195592,-1.0406 -0.919331,-0.1709 -3.097731,-0.2189 -4.801026,-0.1067 l -1.512519,0.097 -0.546457,-0.3304 c -3.133438,-1.8987 -4.792959,-4.0397 -6.294027,-8.1072 -0.225258,-0.6106 -0.240414,-0.6945 -0.165889,-1.0793 0.262388,-1.3547 0.505891,-5.9326 0.32202,-6.0457 -0.334885,1.4998 -0.605706,3 -0.946543,4.3545 -0.07041,0 -0.276692,-1.0553 -0.43912,-2.284 -0.17672,-1.3372 -0.112542,-3.1454 0.126859,-3.7622 0.09593,-0.2467 0.221057,-0.472 0.282985,-0.4957 0.613644,0.1758 0.955176,0.6619 1.044125,1.4093 0.08707,0 0.109428,-0.1426 0.126858,-0.6022 C 23.594671,1013.6434 23.323639,1013.3622 22.307282,1013.3622 z m 0.243953,11.1595 c 0.03475,-0.01 0.05455,0.065 0.09758,0.1845 0.05295,0.1489 0.349438,0.7568 0.653799,1.3513 1.309591,2.5568 2.759813,4.2337 4.849817,5.6082 0.105886,0.069 0.171307,0.1496 0.146373,0.175 -0.02491,0.022 -0.450359,0.1176 -0.936785,0.2041 -3.317052,0.5911 -7.446682,1.8338 -9.455678,2.8383 -0.03195,0.017 -0.05853,-0.016 -0.05853,-0.066 1e-6,-0.052 0.197476,-0.4641 0.448876,-0.9137 1.893568,-3.3874 3.165961,-6.1247 3.883754,-8.3792 C 22.408134,1024.8074 22.493275,1024.5396 22.551235,1024.5217 Z"
         inkscape:connector-curvature="0"
         id="rect3364-1"
         style="fill:url(#linearGradient851);fill-opacity:1.0;fill-rule:nonzero;stroke:none;enable-background:new" />
    </g>
  </g>
</svg>
