<?xml version="1.0" encoding="UTF-8" standalone="no"?>
<!-- Created with Inkscape (http://www.inkscape.org/) -->

<svg
   xmlns:dc="http://purl.org/dc/elements/1.1/"
   xmlns:cc="http://creativecommons.org/ns#"
   xmlns:rdf="http://www.w3.org/1999/02/22-rdf-syntax-ns#"
   xmlns:svg="http://www.w3.org/2000/svg"
   xmlns="http://www.w3.org/2000/svg"
   xmlns:xlink="http://www.w3.org/1999/xlink"
   xmlns:sodipodi="http://sodipodi.sourceforge.net/DTD/sodipodi-0.dtd"
   xmlns:inkscape="http://www.inkscape.org/namespaces/inkscape"
   width="48"
   height="48"
   id="svg2"
   version="1.1"
   inkscape:version="0.48+devel r12149"
   inkscape:export-filename="/home/joern/Projects/Polly/polly-icons/nitrux_draft.png"
   inkscape:export-xdpi="45"
   inkscape:export-ydpi="45"
   sodipodi:docname="polly.svg">
  <defs
     id="defs4">
    <linearGradient
       inkscape:collect="always"
       id="linearGradient1620">
      <stop
         style="stop-color:#f9f9f9;stop-opacity:1"
         offset="0"
         id="stop1622" />
      <stop
         style="stop-color:#ffffff;stop-opacity:1"
         offset="1"
         id="stop1624" />
    </linearGradient>
    <linearGradient
       inkscape:collect="always"
       id="linearGradient1592">
      <stop
         style="stop-color:#000000;stop-opacity:1;"
         offset="0"
         id="stop1594" />
      <stop
         style="stop-color:#333333;stop-opacity:1"
         offset="1"
         id="stop1596" />
    </linearGradient>
    <linearGradient
       inkscape:collect="always"
       id="linearGradient1522">
      <stop
         style="stop-color:#ffffff;stop-opacity:1;"
         offset="0"
         id="stop1524" />
      <stop
         style="stop-color:#ffffff;stop-opacity:0;"
         offset="1"
         id="stop1526" />
    </linearGradient>
    <linearGradient
       gradientUnits="userSpaceOnUse"
       id="linearGradient879"
       y2="0.99929649"
       x2="10.31979"
       y1="21"
       x1="10.31979">
      <stop
         offset="0"
         style="stop-color:#a6d10b;stop-opacity:1"
         id="stop881" />
      <stop
         offset="1"
         style="stop-color:#537834;stop-opacity:1;"
         id="stop887" />
    </linearGradient>
    <radialGradient
       gradientUnits="userSpaceOnUse"
       gradientTransform="matrix(-0.53556356,1.0244365e-6,9.9125643e-7,0.51821737,13.354663,489.16362)"
       r="30.875"
       fy="1018.7842"
       fx="-19.875002"
       cy="1018.7842"
       cx="-19.875002"
       id="radialGradient4100"
       xlink:href="#linearGradient867"
       inkscape:collect="always" />
    <linearGradient
       id="linearGradient867">
      <stop
         style="stop-color:#c5d6de;stop-opacity:1"
         offset="0"
         id="stop869" />
      <stop
         style="stop-color:#7c9aac;stop-opacity:1"
         offset="1"
         id="stop871" />
    </linearGradient>
    <linearGradient
       inkscape:collect="always"
       xlink:href="#linearGradient1522"
       id="linearGradient1528"
       x1="22.749197"
       y1="9.8078527"
       x2="22.749197"
       y2="23.672771"
       gradientUnits="userSpaceOnUse" />
    <linearGradient
       inkscape:collect="always"
       xlink:href="#linearGradient1592"
       id="linearGradient1598"
       x1="25.279068"
       y1="1032.0328"
       x2="25.279068"
       y2="1020.1888"
       gradientUnits="userSpaceOnUse" />
    <linearGradient
       inkscape:collect="always"
       xlink:href="#linearGradient1620"
       id="linearGradient1626"
       x1="23.375"
       y1="-1052.6122"
       x2="23.375"
       y2="-1004.7372"
       gradientUnits="userSpaceOnUse" />
  </defs>
  <sodipodi:namedview
     id="base"
     pagecolor="#ffffff"
     bordercolor="#666666"
     borderopacity="1.0"
     inkscape:pageopacity="0.0"
     inkscape:pageshadow="2"
     inkscape:zoom="5.6568543"
     inkscape:cx="1.9213132"
     inkscape:cy="23.063234"
     inkscape:document-units="px"
     inkscape:current-layer="layer1"
     showgrid="false"
     showguides="false"
     inkscape:guide-bbox="true"
     inkscape:window-width="1366"
     inkscape:window-height="714"
     inkscape:window-x="0"
     inkscape:window-y="30"
     inkscape:window-maximized="1">
    <sodipodi:guide
       position="0,0"
       orientation="0,128"
       id="guide5328" />
    <sodipodi:guide
       position="128,0"
       orientation="-128,0"
       id="guide5330" />
    <sodipodi:guide
       position="128,128"
       orientation="0,-128"
       id="guide5332" />
    <sodipodi:guide
       position="0,128"
       orientation="128,0"
       id="guide5334" />
    <inkscape:grid
       type="xygrid"
       id="grid6340"
       empspacing="10"
       dotted="true"
       visible="true"
       enabled="true"
       snapvisiblegridlinesonly="true" />
    <sodipodi:guide
       orientation="0,1"
       position="27.779195,32"
       id="guide6342" />
    <sodipodi:guide
       orientation="0,1"
       position="13.131983,96"
       id="guide6344" />
  </sodipodi:namedview>
  <metadata
     id="metadata7">
    <rdf:RDF>
      <cc:Work
         rdf:about="">
        <dc:format>image/svg+xml</dc:format>
        <dc:type
           rdf:resource="http://purl.org/dc/dcmitype/StillImage" />
        <dc:title />
      </cc:Work>
    </rdf:RDF>
  </metadata>
  <g
     inkscape:label="Ebene 1"
     inkscape:groupmode="layer"
     id="layer1"
     transform="translate(0,-1004.3622)">
    <rect
       style="fill:url(#linearGradient1626);fill-opacity:1;stroke:none"
       id="rect2991-1"
       width="48"
       height="48"
       x="2.5787351e-08"
       y="-1052.3622"
       ry="1.9445436"
       transform="scale(1,-1)" />
    <path
       inkscape:connector-curvature="0"
       style="fill:#000000;fill-opacity:1;stroke:none"
       d="m -2.5e-7,1049.3622 0,1.0625 c 0,1.0773 0.8602229,1.9375 1.93749985,1.9375 l 44.1250004,0 c 1.077277,0 1.9375,-0.8602 1.9375,-1.9375 l 0,-1.0625 c 0,1.0773 -0.860223,1.9375 -1.9375,1.9375 l -44.1250004,0 C 0.86022265,1051.2997 -2.5e-7,1050.4395 -2.5e-7,1049.3622 Z"
       id="rect846" />
    <path
       inkscape:connector-curvature="0"
       style="fill:#ffffff;fill-opacity:0.5372549;stroke:none"
       d="m 2.5312496,1005.0185 c -0.9170884,0 -1.67114665,0.6395 -1.84374985,1.5 0.33561195,-0.2799 0.77451205,-0.4375 1.24999985,-0.4375 l 44.1250004,0 c 0.475488,0 0.914388,0.1576 1.25,0.4375 -0.172603,-0.8605 -0.926662,-1.5 -1.84375,-1.5 L 2.5312496,1005.0185 Z"
       id="path7515" />
    <path
       inkscape:connector-curvature="0"
       style="fill:#000000;fill-opacity:0.39215686;stroke:none"
       d="m 1.9374996,1004.3622 c -1.07727685,0 -1.93749985,0.8602 -1.93749985,1.9375 l 0,43.0625 c 0,0.7934 0.4800236,1.449 1.15624985,1.75 -0.30934155,-0.3333 -0.49999985,-0.7824 -0.49999985,-1.2812 l 0,-42.9375 c 0,-1.0482 0.82689885,-1.875 1.87499985,-1.875 l 42.9375004,0 c 1.048101,0 1.875,0.8268 1.875,1.875 l 0,42.9375 c 0,0.4988 -0.190658,0.9479 -0.5,1.2812 0.676226,-0.301 1.15625,-0.9566 1.15625,-1.75 l 0,-43.0625 c 0,-1.0773 -0.860223,-1.9375 -1.9375,-1.9375 L 1.9374996,1004.3622 Z"
       id="rect4280" />
    <g
       id="g1628"
       transform="matrix(0.96342594,0,0,0.96342594,0.87777749,37.026196)">
      <path
         id="path1509"
         transform="translate(0,1004.3622)"
         d="m 7.46875,21.3125 c -0.00157,0.07415 0,0.144301 0,0.21875 0,7.22 7.351483,13.082 16.4375,13.125 l 8.0625,5.75 0,-0.40625 -8.0625,-5.75 C 14.899088,34.207373 7.5947848,28.446077 7.46875,21.3125 z m 30.6875,7 c -1.16463,1.324857 -2.651792,2.462035 -4.34375,3.375 -0.09841,0.05754 -0.212441,0.100409 -0.3125,0.15625 -0.312994,0.174676 -0.640302,0.342506 -0.96875,0.5 l 0,0.03125 0,0.40625 C 34.837802,31.67735 36.764409,30.1415 38.15625,28.3125 Z"
         style="color:#000000;fill:#000000;fill-opacity:0.74898783;fill-rule:nonzero;stroke:none;stroke-width:0.27500001;marker:none;visibility:visible;display:inline;overflow:visible;enable-background:accumulate"
         inkscape:connector-curvature="0" />
      <path
         sodipodi:nodetypes="sscccss"
         inkscape:connector-curvature="0"
         id="path4088"
         d="m 24,1012.3622 c 9.132318,0 16.535525,5.8746 16.535525,13.1213 0,4.9552 -3.460224,9.2652 -8.569016,11.4979 l 0,7.3807 -8.066927,-5.7573 C 14.813565,1038.5618 7.4644749,1032.7035 7.4644749,1025.4835 7.4644749,1018.2368 14.867682,1012.3622 24,1012.3622 Z"
         style="color:#000000;fill:url(#radialGradient4100);fill-opacity:1;fill-rule:nonzero;stroke:none;stroke-width:0.27500001;marker:none;visibility:visible;display:inline;overflow:visible;enable-background:accumulate" />
      <path
         id="path1502"
         transform="translate(0,1004.3622)"
         d="m 10.5,13.5625 c -1.9054972,2.138325 -3.03125,4.744364 -3.03125,7.5625 0,7.22 7.351483,13.082 16.4375,13.125 l 8.0625,5.75 0,-1.09375 -7.5,-5.34375 C 15.382733,33.5195 8.03125,27.6575 8.03125,20.4375 8.03125,17.913211 8.9432399,15.563508 10.5,13.5625 z m 27.65625,14.34375 c -1.452296,1.652098 -3.389904,3.054444 -5.625,4.03125 l 0,0.4375 C 34.837802,31.271087 36.764409,29.7353 38.15625,27.90625 Z"
         style="color:#000000;fill:#ffffff;fill-opacity:0.20647774;fill-rule:nonzero;stroke:none;stroke-width:0.27500001;marker:none;visibility:visible;display:inline;overflow:visible;enable-background:accumulate"
         inkscape:connector-curvature="0" />
      <path
         inkscape:connector-curvature="0"
         style="color:#000000;fill:#000000;fill-opacity:0.46963567;fill-rule:nonzero;stroke:none;stroke-width:0.27500001;marker:none;visibility:visible;display:inline;overflow:visible;enable-background:accumulate"
         d="m 7.46875,1026.0765 c -0.00157,0.074 0,0.1443 0,0.2187 0,7.22 7.351483,13.082 16.4375,13.125 l 8.0625,5.75 0,-0.4062 -8.0625,-5.75 C 14.899088,1038.9714 7.5947848,1033.2101 7.46875,1026.0765 z m 30.6875,7 c -1.16463,1.3248 -2.651792,2.462 -4.34375,3.375 -0.09841,0.058 -0.212441,0.1004 -0.3125,0.1562 -0.312994,0.1747 -0.640302,0.3425 -0.96875,0.5 l 0,0.031 0,0.4062 C 34.837802,1036.4413 36.764409,1034.9055 38.15625,1033.0765 Z"
         id="path1516" />
      <path
         id="path1518"
         d="m 7.46875,1026.4833 c -0.00157,0.074 0,0.1443 0,0.2187 0,7.22 7.351483,13.082 16.4375,13.125 l 8.0625,5.75 0,-0.4062 -8.0625,-5.75 C 14.899088,1039.3782 7.5947848,1033.6169 7.46875,1026.4833 z m 30.6875,7 c -1.16463,1.3248 -2.651792,2.462 -4.34375,3.375 -0.09841,0.058 -0.212441,0.1004 -0.3125,0.1562 -0.312994,0.1747 -0.640302,0.3425 -0.96875,0.5 l 0,0.031 0,0.4062 C 34.837802,1036.8481 36.764409,1035.3123 38.15625,1033.4833 Z"
         style="color:#000000;fill:#000000;fill-opacity:0.24696356;fill-rule:nonzero;stroke:none;stroke-width:0.27500001;marker:none;visibility:visible;display:inline;overflow:visible;enable-background:accumulate"
         inkscape:connector-curvature="0" />
      <path
         transform="matrix(1.1534095,0,0,1.0837438,-4.1864447,1000.0137)"
         d="M 37.125,20.8125 C 37.125,25.886616 31.444613,30 24.4375,30 17.430387,30 11.75,25.886616 11.75,20.8125 11.75,15.738384 17.430387,11.625 24.4375,11.625 31.444613,11.625 37.125,15.738384 37.125,20.8125 Z"
         sodipodi:ry="9.1875"
         sodipodi:rx="12.6875"
         sodipodi:cy="20.8125"
         sodipodi:cx="24.4375"
         id="path1520"
         style="fill:url(#linearGradient1528);fill-opacity:1;stroke:none"
         sodipodi:type="arc" />
      <path
         inkscape:connector-curvature="0"
         id="path1150"
         d="m 20.795042,1031.3961 c -0.08866,-0.016 -0.407846,-0.059 -0.7093,-0.1003 -0.875845,-0.1168 -2.05599,-0.5401 -2.848327,-1.0219 l -0.204953,-0.1248 0.353416,0.038 c 0.436817,0.046 1.357652,-0.071 1.958324,-0.2466 0.499202,-0.1462 1.440379,-0.6097 1.741012,-0.8577 l 0.193442,-0.1596 -0.193442,-0.01 c -0.594621,-0.01 -1.361396,-0.3745 -1.831874,-0.872 -0.252045,-0.2664 -0.650679,-0.8922 -0.650679,-1.0214 0,-0.015 0.244824,-0.026 0.544043,-0.028 0.690351,-0.01 0.79015,-0.062 0.359108,-0.2137 -0.99885,-0.3517 -1.684317,-1.1575 -1.877692,-2.2069 -0.04365,-0.2368 -0.06432,-0.4454 -0.04596,-0.4639 0.01833,-0.017 0.168447,0.024 0.333556,0.099 0.165109,0.073 0.452506,0.1498 0.638664,0.1705 l 0.338465,0.038 -0.225688,-0.1803 c -0.976192,-0.7788 -1.331591,-2.1999 -0.838065,-3.3515 l 0.127412,-0.2971 0.500408,0.5106 c 1.026225,1.0469 2.30831,1.8131 3.654807,2.184 0.458169,0.1261 1.318479,0.2788 1.57069,0.279 l 0.211365,0 -0.04024,-0.403 c -0.08027,-0.8034 0.25359,-1.7006 0.849483,-2.2825 0.868642,-0.848 2.183555,-1.0529 3.281776,-0.5118 0.248255,0.1223 0.534061,0.309 0.635124,0.4144 l 0.183748,0.192 0.461067,-0.1271 c 0.253591,-0.07 0.65711,-0.2212 0.896715,-0.3361 0.402068,-0.1934 0.432608,-0.1993 0.396313,-0.077 -0.111042,0.3742 -0.554418,0.9489 -0.96092,1.245 -0.164444,0.1198 -0.174111,0.1409 -0.06448,0.1417 0.146153,0 0.938696,-0.2023 1.213231,-0.3116 0.09984,-0.038 0.196066,-0.073 0.213844,-0.073 0.09332,0 -0.643275,0.8366 -0.983018,1.1166 l -0.394207,0.3247 -0.03536,0.811 c -0.08396,1.9244 -0.909962,3.8517 -2.259759,5.2729 -1.141573,1.2016 -2.664782,2.0193 -4.303441,2.3099 C 22.431467,1031.3699 21.089708,1031.4459 20.795042,1031.3961 Z"
         style="opacity:0.82399998;fill:url(#linearGradient1598);fill-opacity:1" />
      <path
         inkscape:connector-curvature="0"
         id="path1600"
         d="m 30.53125,1020.9146 c -0.04041,0.01 -0.161423,0.069 -0.28125,0.125 -0.187176,0.2607 -0.424903,0.519 -0.65625,0.6875 -0.164444,0.1198 -0.172131,0.1242 -0.0625,0.125 0.06913,0 0.296124,-0.034 0.53125,-0.094 0.0047,-0.01 0.02659,0.01 0.03125,0 0.222354,-0.2629 0.402953,-0.5595 0.46875,-0.7813 C 30.580648,1020.916 30.584607,1020.9043 30.53125,1020.9146 z m 0.4375,1.0625 c -0.01778,0 -0.11891,0.056 -0.21875,0.094 -0.07165,0.028 -0.222221,0.058 -0.34375,0.094 -0.156001,0.1654 -0.324252,0.3442 -0.4375,0.4375 l -0.375,0.3125 -0.0625,0.8125 c -0.08396,1.9244 -0.900203,3.8601 -2.25,5.2813 -1.141573,1.2016 -2.673841,2.0219 -4.3125,2.3125 -0.552183,0.1043 -1.892834,0.1748 -2.1875,0.125 -0.08866,-0.016 -0.386046,-0.053 -0.6875,-0.094 -0.629383,-0.084 -1.406919,-0.3478 -2.09375,-0.6562 -0.223531,0.017 -0.479314,0.047 -0.625,0.031 l -0.34375,-0.031 0.21875,0.125 c 0.792337,0.4818 1.967905,0.9144 2.84375,1.0312 0.301454,0.041 0.59884,0.078 0.6875,0.094 0.294666,0.05 1.635317,-0.021 2.1875,-0.125 1.638659,-0.2906 3.170927,-1.1109 4.3125,-2.3125 1.349797,-1.4212 2.16604,-3.3569 2.25,-5.2813 l 0.0625,-0.8125 0.375,-0.3125 C 30.308493,1022.8221 31.06207,1021.9771 30.96875,1021.9771 z m -13.34375,0.3438 c -0.0486,0.7171 0.179961,1.4668 0.625,2.0312 0.109494,0.028 0.224614,0.053 0.3125,0.062 l 0.34375,0.062 -0.25,-0.1875 C 18.054123,1023.8093 17.701221,1023.076 17.625,1022.3209 z m 6.25,1 c -0.0056,0.098 -0.03694,0.185 -0.03125,0.2812 l 0.0625,0 L 23.875,1023.3209 z m -6.28125,1.3437 c -0.01836,0.018 -0.0124,0.232 0.03125,0.4688 0.153653,0.8338 0.62712,1.4856 1.3125,1.9062 0.08856,0 0.102745,8e-4 0.21875,0 0.690351,-0.01 0.774792,-0.067 0.34375,-0.2187 -0.989057,-0.3483 -1.673984,-1.1219 -1.875,-2.1563 C 17.62119,1024.6652 17.595432,1024.6631 17.59375,1024.6646 z m 1,2.9063 c 0,0.1292 0.404205,0.7648 0.65625,1.0312 0.352858,0.3732 0.886435,0.6512 1.375,0.7813 0.0083,0 0.02307,0 0.03125,0 0.152191,-0.087 0.356753,-0.1834 0.4375,-0.25 l 0.1875,-0.1563 -0.1875,0 c -0.594621,-0.01 -1.373272,-0.3775 -1.84375,-0.875 -0.121421,-0.1283 -0.277746,-0.3318 -0.40625,-0.5312 C 18.764188,1027.5755 18.59375,1027.5642 18.59375,1027.5709 Z"
         style="fill:#ffffff;fill-opacity:0.34817816" />
      <path
         id="path1607"
         transform="translate(0,1004.3622)"
         d="m 26.6875,15.6875 c -0.729694,0.0025 -1.457099,0.2825 -2,0.8125 -0.52511,0.512779 -0.798428,1.277481 -0.8125,2 0.08797,-0.618548 0.36558,-1.251075 0.8125,-1.6875 0.868642,-0.848 2.214279,-1.0411 3.3125,-0.5 0.248255,0.1223 0.523937,0.30085 0.625,0.40625 l 0.1875,0.1875 0.4375,-0.125 c 0.253591,-0.07 0.666645,-0.22885 0.90625,-0.34375 0.152262,-0.07324 0.219003,-0.102319 0.28125,-0.125 0.04584,-0.08705 0.102792,-0.17516 0.125,-0.25 0.03629,-0.1223 -0.0042,-0.09965 -0.40625,0.09375 -0.239605,0.1149 -0.652659,0.2425 -0.90625,0.3125 l -0.4375,0.125 -0.1875,-0.1875 C 28.523937,16.30085 28.248255,16.1223 28,16 27.588167,15.797087 27.125317,15.686026 26.6875,15.6875 z m -8.71875,0.53125 -0.125,0.3125 c -0.164509,0.383867 -0.234442,0.777515 -0.21875,1.1875 0.02083,-0.307341 0.09537,-0.5871 0.21875,-0.875 l 0.125,-0.3125 0.5,0.5 c 1.026225,1.0469 2.309753,1.8166 3.65625,2.1875 0.458169,0.1261 1.310289,0.28105 1.5625,0.28125 l 0.21875,0 -0.0625,-0.3125 -0.15625,0 c -0.252211,-2e-4 -1.104331,-0.15515 -1.5625,-0.28125 -1.346497,-0.3709 -2.630025,-1.1406 -3.65625,-2.1875 L 17.96875,16.21875 z m 13,0.84375 c -0.01778,0 -0.11891,0.05575 -0.21875,0.09375 -0.190443,0.07582 -0.574706,0.151999 -0.875,0.21875 -0.09051,0.08879 -0.190292,0.183746 -0.28125,0.25 -0.164444,0.1198 -0.172131,0.1242 -0.0625,0.125 0.138845,0 0.848996,-0.169281 1.15625,-0.28125 C 30.868203,17.258523 31.010512,17.0625 30.96875,17.0625 z m -13.375,2.6875 c -0.01227,0.01236 0.01346,0.178703 0.03125,0.3125 0.03772,-0.006 0.131289,0.02563 0.28125,0.09375 0.165109,0.073 0.470092,0.13555 0.65625,0.15625 l 0.34375,0.0625 -0.25,-0.1875 C 18.57083,20.11935 18.513258,20.046119 18.4375,19.96875 18.262207,19.93643 18.039825,19.90281 17.90625,19.84375 17.741141,19.76875 17.61208,19.733 17.59375,19.75 z m 1.5625,2.875 c -0.299219,0.002 -0.5625,0.01625 -0.5625,0.03125 0,0.04247 0.08947,0.193113 0.15625,0.3125 0.08749,-0.009 0.189892,-0.0298 0.40625,-0.03125 0.690351,-0.01 0.774792,-0.06705 0.34375,-0.21875 C 19.42132,22.69105 19.355951,22.65823 19.28125,22.625 19.222112,22.627017 19.228122,22.623959 19.15625,22.625 z m 1.75,2.21875 c -0.386061,0.257005 -1.123136,0.621325 -1.5625,0.75 -0.600672,0.1756 -1.531933,0.26475 -1.96875,0.21875 l -0.34375,-0.03125 0.21875,0.125 c 0.123362,0.07501 0.266699,0.147509 0.40625,0.21875 0.47933,-4.27e-4 1.176829,-0.100711 1.6875,-0.25 0.499202,-0.1462 1.449367,-0.59575 1.75,-0.84375 l 0.1875,-0.15625 -0.1875,0 C 21.034669,24.874006 20.968271,24.851526 20.90625,24.84375 Z"
         style="opacity:0.82399998;fill:#000000;fill-opacity:0.41700404"
         inkscape:connector-curvature="0" />
    </g>
  </g>
</svg>
