<?xml version="1.0" encoding="UTF-8" standalone="no"?>
<!-- Created with Inkscape (http://www.inkscape.org/) -->

<svg
   xmlns:dc="http://purl.org/dc/elements/1.1/"
   xmlns:cc="http://creativecommons.org/ns#"
   xmlns:rdf="http://www.w3.org/1999/02/22-rdf-syntax-ns#"
   xmlns:svg="http://www.w3.org/2000/svg"
   xmlns="http://www.w3.org/2000/svg"
   xmlns:xlink="http://www.w3.org/1999/xlink"
   xmlns:sodipodi="http://sodipodi.sourceforge.net/DTD/sodipodi-0.dtd"
   xmlns:inkscape="http://www.inkscape.org/namespaces/inkscape"
   width="48"
   height="48"
   id="svg2"
   version="1.1"
   inkscape:version="0.48+devel r12149"
   sodipodi:docname="preferences-management-service.svg">
  <defs
     id="defs4">
    <linearGradient
       inkscape:collect="always"
       id="linearGradient4010">
      <stop
         style="stop-color:#f9f9f9;stop-opacity:1"
         offset="0"
         id="stop4012" />
      <stop
         style="stop-color:#ffffff;stop-opacity:1"
         offset="1"
         id="stop4014" />
    </linearGradient>
    <linearGradient
       inkscape:collect="always"
       xlink:href="#linearGradient4010"
       id="linearGradient857"
       x1="23.864853"
       y1="-1052.4038"
       x2="23.864853"
       y2="-1004.4973"
       gradientUnits="userSpaceOnUse" />
  </defs>
  <sodipodi:namedview
     id="base"
     pagecolor="#ffffff"
     bordercolor="#666666"
     borderopacity="1.0"
     inkscape:pageopacity="0.0"
     inkscape:pageshadow="2"
     inkscape:zoom="8"
     inkscape:cx="36.30562"
     inkscape:cy="25.746146"
     inkscape:document-units="px"
     inkscape:current-layer="layer1"
     showgrid="false"
     inkscape:window-width="1366"
     inkscape:window-height="714"
     inkscape:window-x="0"
     inkscape:window-y="30"
     inkscape:window-maximized="1">
    <inkscape:grid
       type="xygrid"
       id="grid3850" />
  </sodipodi:namedview>
  <metadata
     id="metadata7">
    <rdf:RDF>
      <cc:Work
         rdf:about="">
        <dc:format>image/svg+xml</dc:format>
        <dc:type
           rdf:resource="http://purl.org/dc/dcmitype/StillImage" />
        <dc:title />
      </cc:Work>
    </rdf:RDF>
  </metadata>
  <g
     inkscape:label="Capa 1"
     inkscape:groupmode="layer"
     id="layer1"
     transform="translate(0,-1004.3622)">
    <rect
       style="fill:url(#linearGradient857);fill-opacity:1;stroke:none"
       id="rect2991-1"
       width="48"
       height="48"
       x="2.9138184e-07"
       y="-1052.3622"
       ry="1.9445436"
       transform="scale(1,-1)" />
    <path
       inkscape:connector-curvature="0"
       style="fill:#000000;fill-opacity:1;stroke:none"
       d="m -2.9138183e-7,1049.3622 0,1.0625 c 0,1.0773 0.86022300138183,1.9375 1.93749999138183,1.9375 l 44.1250003,0 c 1.077277,0 1.9375,-0.8602 1.9375,-1.9375 l 0,-1.0625 c 0,1.0773 -0.860223,1.9375 -1.9375,1.9375 l -44.1250003,0 C 0.86022271,1051.2997 -2.9138183e-7,1050.4395 -2.9138183e-7,1049.3622 Z"
       id="rect846" />
    <path
       inkscape:connector-curvature="0"
       style="fill:#ffffff;fill-opacity:0.5372549;stroke:none"
       d="m 2.5312497,1005.0185 c -0.917088,0 -1.67114699,0.6395 -1.84374999,1.5 0.33561199,-0.2799 0.77451199,-0.4375 1.24999999,-0.4375 l 44.1250003,0 c 0.475488,0 0.914388,0.1576 1.25,0.4375 -0.172603,-0.8605 -0.926662,-1.5 -1.84375,-1.5 L 2.5312497,1005.0185 Z"
       id="path7515" />
    <path
       inkscape:connector-curvature="0"
       style="fill:#000000;fill-opacity:0.39215686;stroke:none"
       d="m 1.9374997,1004.3622 c -1.07727699,0 -1.93749999138183,0.8602 -1.93749999138183,1.9375 l 0,43.0625 c 0,0.7934 0.48002400138183,1.449 1.15624999138183,1.75 -0.30934199,-0.3333 -0.49999999,-0.7824 -0.49999999,-1.2812 l 0,-42.9375 c 0,-1.0482 0.82689899,-1.875 1.87499999,-1.875 l 42.9375003,0 c 1.048101,0 1.875,0.8268 1.875,1.875 l 0,42.9375 c 0,0.4988 -0.190658,0.9479 -0.5,1.2812 0.676226,-0.301 1.15625,-0.9566 1.15625,-1.75 l 0,-43.0625 c 0,-1.0773 -0.860223,-1.9375 -1.9375,-1.9375 L 1.9374997,1004.3622 Z"
       id="rect4280" />
    <g
       id="g848">
      <path
         id="path3"
         transform="translate(0,1004.3622)"
         d="M 24 8.1875 C 15.164254 8.1875 8 15.3516 8 24.1875 C 8 33.0235 15.163785 40.1875 24 40.1875 C 32.836527 40.1875 40 33.0238 40 24.1875 C 40 15.3513 32.836214 8.1875 24 8.1875 z M 24 11.1875 C 31.179425 11.1875 37 17.0082 37 24.1875 C 37 31.3669 31.179678 37.1875 24 37.1875 C 16.820575 37.1875 11 31.3668 11 24.1875 C 11 17.0083 16.820956 11.1875 24 11.1875 z M 24 14.1875 C 18.477658 14.1875 14 18.665 14 24.1875 C 14 29.71 18.477365 34.1875 24 34.1875 C 29.522829 34.1875 34 29.71 34 24.1875 C 34 18.665 29.522635 14.1875 24 14.1875 z "
         style="fill:#772953" />
      <path
         id="path839"
         transform="translate(0,1004.3622)"
         d="M 24 8.1875 C 15.621226 8.1875 8.7825417 14.642744 8.09375 22.84375 C 8.9131959 14.776121 15.716488 8.5 24 8.5 C 32.283951 8.5 39.086854 14.775907 39.90625 22.84375 C 39.217501 14.642516 32.379218 8.1875 24 8.1875 z M 39.90625 22.84375 C 39.955739 23.331027 39.995243 23.844545 40 24.34375 C 40.000513 24.290945 40 24.240427 40 24.1875 C 40 23.730504 39.943814 23.291039 39.90625 22.84375 z M 8.09375 22.84375 C 8.0561838 23.291027 8 23.73052 8 24.1875 C 8 24.240425 7.9994872 24.290946 8 24.34375 C 8.0047577 23.844562 8.0442576 23.331014 8.09375 22.84375 z M 24 14.1875 C 18.477658 14.1875 14 18.665 14 24.1875 C 14 24.239605 13.999206 24.291834 14 24.34375 C 14.083394 18.893191 18.529762 14.5 24 14.5 C 29.470529 14.5 33.916612 18.893191 34 24.34375 C 34.000794 24.291834 34 24.239605 34 24.1875 C 34 18.665 29.522635 14.1875 24 14.1875 z M 11.0625 25.53125 C 11.596165 32.220578 17.173354 37.5 24 37.5 C 30.826887 37.5 36.403856 32.220655 36.9375 25.53125 C 36.271768 32.086364 30.730948 37.1875 24 37.1875 C 17.269289 37.1875 11.728259 32.086292 11.0625 25.53125 z "
         style="fill:#000000;fill-opacity:0.23529412" />
      <path
         inkscape:connector-curvature="0"
         style="fill:#000000;fill-opacity:0.11764706"
         d="m 24,1012.8544 c -8.378774,0 -15.2174583,6.4552 -15.90625,14.6562 0.8194459,-8.0676 7.622738,-14.3437 15.90625,-14.3437 8.283951,0 15.086854,6.2759 15.90625,14.3437 C 39.217501,1019.3094 32.379218,1012.8544 24,1012.8544 z m 15.90625,14.6562 c 0.04949,0.4873 0.08899,1.0008 0.09375,1.5 5.13e-4,-0.053 0,-0.1033 0,-0.1562 C 40,1028.3974 39.943814,1027.9579 39.90625,1027.5106 z m -31.8125,0 C 8.0561838,1027.9579 8,1028.3974 8,1028.8544 c 0,0.053 -5.128e-4,0.1034 0,0.1562 C 8.0047577,1028.5114 8.0442576,1027.9979 8.09375,1027.5106 Z M 24,1018.8544 c -5.522342,0 -10,4.4775 -10,10 0,0.052 -7.94e-4,0.1043 0,0.1562 0.08339,-5.4505 4.529762,-9.8437 10,-9.8437 5.470529,0 9.916612,4.3932 10,9.8437 7.94e-4,-0.052 0,-0.1041 0,-0.1562 C 34,1023.3319 29.522635,1018.8544 24,1018.8544 z m -12.9375,11.3437 c 0.533665,6.6894 6.110854,11.9688 12.9375,11.9688 6.826887,0 12.403856,-5.2794 12.9375,-11.9688 -0.665732,6.5552 -6.206552,11.6563 -12.9375,11.6563 C 17.269289,1041.8544 11.728259,1036.7532 11.0625,1030.1981 Z"
         id="path844" />
      <path
         id="path846"
         d="m 24,1013.1669 c -8.378774,0 -15.2174583,6.4552 -15.90625,14.6562 0.8194459,-8.0676 7.622738,-14.3437 15.90625,-14.3437 8.283951,0 15.086854,6.2759 15.90625,14.3437 C 39.217501,1019.6219 32.379218,1013.1669 24,1013.1669 z m 15.90625,14.6562 c 0.04949,0.4873 0.08899,1.0008 0.09375,1.5 5.13e-4,-0.053 0,-0.1033 0,-0.1562 C 40,1028.7099 39.943814,1028.2704 39.90625,1027.8231 z m -31.8125,0 C 8.0561838,1028.2704 8,1028.7099 8,1029.1669 c 0,0.053 -5.128e-4,0.1034 0,0.1562 C 8.0047577,1028.8239 8.0442576,1028.3104 8.09375,1027.8231 Z M 24,1019.1669 c -5.522342,0 -10,4.4775 -10,10 0,0.052 -7.94e-4,0.1043 0,0.1562 0.08339,-5.4505 4.529762,-9.8437 10,-9.8437 5.470529,0 9.916612,4.3932 10,9.8437 7.94e-4,-0.052 0,-0.1041 0,-0.1562 C 34,1023.6444 29.522635,1019.1669 24,1019.1669 z m -12.9375,11.3437 c 0.533665,6.6894 6.110854,11.9688 12.9375,11.9688 6.826887,0 12.403856,-5.2794 12.9375,-11.9688 -0.665732,6.5552 -6.206552,11.6563 -12.9375,11.6563 C 17.269289,1042.1669 11.728259,1037.0657 11.0625,1030.5106 Z"
         style="fill:#000000;fill-opacity:0.05882353"
         inkscape:connector-curvature="0" />
    </g>
  </g>
</svg>
