<?xml version="1.0" encoding="UTF-8" standalone="no"?>
<!-- Created with Inkscape (http://www.inkscape.org/) -->

<svg
   xmlns:dc="http://purl.org/dc/elements/1.1/"
   xmlns:cc="http://creativecommons.org/ns#"
   xmlns:rdf="http://www.w3.org/1999/02/22-rdf-syntax-ns#"
   xmlns:svg="http://www.w3.org/2000/svg"
   xmlns="http://www.w3.org/2000/svg"
   xmlns:xlink="http://www.w3.org/1999/xlink"
   xmlns:sodipodi="http://sodipodi.sourceforge.net/DTD/sodipodi-0.dtd"
   xmlns:inkscape="http://www.inkscape.org/namespaces/inkscape"
   width="48"
   height="48"
   id="svg2"
   version="1.1"
   inkscape:version="0.48+devel r12149"
   sodipodi:docname="preferences-desktop-wallpaper.svg">
  <defs
     id="defs4">
    <linearGradient
       id="linearGradient1051"
       inkscape:collect="always">
      <stop
         id="stop1053"
         offset="0"
         style="stop-color:#f2f2f2;stop-opacity:1" />
      <stop
         id="stop1055"
         offset="1"
         style="stop-color:#ffffff;stop-opacity:0" />
    </linearGradient>
    <linearGradient
       inkscape:collect="always"
       id="linearGradient988">
      <stop
         style="stop-color:#f2f2f2;stop-opacity:1"
         offset="0"
         id="stop990" />
      <stop
         style="stop-color:#ffffff;stop-opacity:0.61538464"
         offset="1"
         id="stop992" />
    </linearGradient>
    <linearGradient
       id="linearGradient952"
       inkscape:collect="always">
      <stop
         id="stop954"
         offset="0"
         style="stop-color:#3b8838;stop-opacity:1" />
      <stop
         id="stop956"
         offset="1"
         style="stop-color:#81b054;stop-opacity:1" />
    </linearGradient>
    <linearGradient
       inkscape:collect="always"
       id="linearGradient928">
      <stop
         style="stop-color:#90b95b;stop-opacity:1"
         offset="0"
         id="stop930" />
      <stop
         style="stop-color:#97be61;stop-opacity:1"
         offset="1"
         id="stop932" />
    </linearGradient>
    <linearGradient
       inkscape:collect="always"
       id="linearGradient896">
      <stop
         style="stop-color:#ffffff;stop-opacity:1;"
         offset="0"
         id="stop898" />
      <stop
         style="stop-color:#ffffff;stop-opacity:0;"
         offset="1"
         id="stop900" />
    </linearGradient>
    <linearGradient
       inkscape:collect="always"
       id="linearGradient874">
      <stop
         style="stop-color:#d9e3da;stop-opacity:1"
         offset="0"
         id="stop876" />
      <stop
         id="stop882"
         offset="0.5"
         style="stop-color:#4e7e8c;stop-opacity:1" />
      <stop
         style="stop-color:#1b1e2b;stop-opacity:1"
         offset="1"
         id="stop878" />
    </linearGradient>
    <linearGradient
       inkscape:collect="always"
       xlink:href="#linearGradient874"
       id="linearGradient880"
       x1="19.499998"
       y1="-1052.3934"
       x2="19.499998"
       y2="-1004.3622"
       gradientUnits="userSpaceOnUse" />
    <linearGradient
       inkscape:collect="always"
       xlink:href="#linearGradient896"
       id="linearGradient902"
       x1="17.766058"
       y1="1027.7019"
       x2="14.870476"
       y2="1016.8954"
       gradientUnits="userSpaceOnUse"
       gradientTransform="matrix(0.80644036,0,0,0.80644036,13.679751,204.90449)" />
    <linearGradient
       inkscape:collect="always"
       xlink:href="#linearGradient952"
       id="linearGradient934"
       x1="27.5"
       y1="34"
       x2="27.5"
       y2="-2.75"
       gradientUnits="userSpaceOnUse"
       gradientTransform="matrix(0.80644036,0,0,0.80644036,2.2672884,1035.8302)" />
    <linearGradient
       inkscape:collect="always"
       xlink:href="#linearGradient952"
       id="linearGradient942"
       x1="34.247475"
       y1="33.733128"
       x2="34.247475"
       y2="-3.0364268"
       gradientUnits="userSpaceOnUse"
       gradientTransform="matrix(0.80644036,0,0,0.80644036,21.420247,1037.8462)" />
    <linearGradient
       inkscape:collect="always"
       xlink:href="#linearGradient952"
       id="linearGradient950"
       x1="28.95369"
       y1="33.455845"
       x2="28.95369"
       y2="-3.1369317"
       gradientUnits="userSpaceOnUse"
       gradientTransform="matrix(0.80644036,0,0,0.80644036,12.146183,1045.9107)" />
    <linearGradient
       inkscape:collect="always"
       xlink:href="#linearGradient896"
       id="linearGradient974"
       gradientUnits="userSpaceOnUse"
       gradientTransform="matrix(0.71760699,0,0,0.71760699,19.620364,305.84158)"
       x1="17.766058"
       y1="1027.7019"
       x2="14.870476"
       y2="1016.8954" />
    <linearGradient
       inkscape:collect="always"
       xlink:href="#linearGradient896"
       id="linearGradient978"
       gradientUnits="userSpaceOnUse"
       gradientTransform="matrix(0.53994027,0,0,0.53994027,30.038795,490.60062)"
       x1="17.766058"
       y1="1027.7019"
       x2="14.870476"
       y2="1016.8954" />
    <linearGradient
       inkscape:collect="always"
       xlink:href="#linearGradient988"
       id="linearGradient994"
       x1="18.625"
       y1="40.75"
       x2="18.625"
       y2="23.875"
       gradientUnits="userSpaceOnUse"
       gradientTransform="matrix(0.80644036,0,0,0.80644036,9.1220315,1013.653)" />
    <linearGradient
       inkscape:collect="always"
       xlink:href="#linearGradient988"
       id="linearGradient1011"
       x1="43.045124"
       y1="39.779884"
       x2="43.045124"
       y2="26.786797"
       gradientUnits="userSpaceOnUse"
       gradientTransform="matrix(0.80644036,0,0,0.80644036,9.1220315,1013.653)" />
    <linearGradient
       inkscape:collect="always"
       xlink:href="#linearGradient928"
       id="linearGradient1025"
       x1="25.75"
       y1="61"
       x2="25.75"
       y2="23.375"
       gradientUnits="userSpaceOnUse"
       gradientTransform="matrix(0.80644036,0,0,0.80644036,9.1220315,1013.653)" />
    <linearGradient
       inkscape:collect="always"
       xlink:href="#linearGradient928"
       id="linearGradient1033"
       gradientUnits="userSpaceOnUse"
       x1="25.75"
       y1="61"
       x2="25.75"
       y2="23.375"
       gradientTransform="matrix(0.80644036,0,0,0.80644036,27.227133,1013.653)" />
    <linearGradient
       inkscape:collect="always"
       xlink:href="#linearGradient1051"
       id="linearGradient1049"
       x1="30.8125"
       y1="43.59375"
       x2="30.8125"
       y2="35.6875"
       gradientUnits="userSpaceOnUse"
       gradientTransform="matrix(0.80644036,0,0,0.80644036,9.1220315,1013.653)" />
    <linearGradient
       inkscape:collect="always"
       xlink:href="#linearGradient896"
       id="linearGradient1249"
       gradientUnits="userSpaceOnUse"
       gradientTransform="matrix(1.024685,0,0,1.024685,-2.7793443,-21.375856)"
       x1="17.766058"
       y1="1027.7019"
       x2="14.870476"
       y2="1016.8954" />
  </defs>
  <sodipodi:namedview
     id="base"
     pagecolor="#ffffff"
     bordercolor="#666666"
     borderopacity="1.0"
     inkscape:pageopacity="0.0"
     inkscape:pageshadow="2"
     inkscape:zoom="4"
     inkscape:cx="-15.197542"
     inkscape:cy="39.607537"
     inkscape:document-units="px"
     inkscape:current-layer="layer1"
     showgrid="false"
     inkscape:window-width="1366"
     inkscape:window-height="714"
     inkscape:window-x="0"
     inkscape:window-y="30"
     inkscape:window-maximized="1"
     showguides="true"
     inkscape:guide-bbox="true">
    <inkscape:grid
       type="xygrid"
       id="grid3850" />
  </sodipodi:namedview>
  <metadata
     id="metadata7">
    <rdf:RDF>
      <cc:Work
         rdf:about="">
        <dc:format>image/svg+xml</dc:format>
        <dc:type
           rdf:resource="http://purl.org/dc/dcmitype/StillImage" />
        <dc:title />
      </cc:Work>
    </rdf:RDF>
  </metadata>
  <g
     inkscape:label="Capa 1"
     inkscape:groupmode="layer"
     id="layer1"
     transform="translate(0,-1004.3622)">
    <rect
       style="fill:url(#linearGradient880);fill-opacity:1.0;stroke:none"
       id="rect2991-1"
       width="48"
       height="48"
       x="0"
       y="-1052.3622"
       ry="1.9445436"
       transform="scale(1,-1)" />
    <g
       id="g1183"
       transform="translate(-0.49889493,0)">
      <path
         transform="matrix(0.55805825,0,0,0.55805825,9.2187501,1007.4895)"
         d="m 21.566757,7.4297485 c 0,0.1952622 -0.158291,0.3535534 -0.353554,0.3535534 -0.195262,0 -0.353553,-0.1582912 -0.353553,-0.3535534 0,-0.1952621 0.158291,-0.3535533 0.353553,-0.3535533 C 21.408466,7.0761952 21.566757,7.2344864 21.566757,7.4297485 Z"
         sodipodi:ry="0.35355338"
         sodipodi:rx="0.35355338"
         sodipodi:cy="7.4297485"
         sodipodi:cx="21.213203"
         id="path1057"
         style="fill:#ffffff;fill-opacity:0.50202427;stroke:none"
         sodipodi:type="arc" />
      <path
         sodipodi:type="arc"
         style="fill:#ffffff;fill-opacity:0.30769234;stroke:none"
         id="path1059"
         sodipodi:cx="21.213203"
         sodipodi:cy="7.4297485"
         sodipodi:rx="0.35355338"
         sodipodi:ry="0.35355338"
         d="m 21.566757,7.4297485 c 0,0.1952622 -0.158291,0.3535534 -0.353554,0.3535534 -0.195262,0 -0.353553,-0.1582912 -0.353553,-0.3535534 0,-0.1952621 0.158291,-0.3535533 0.353553,-0.3535533 C 21.408466,7.0761952 21.566757,7.2344864 21.566757,7.4297485 Z"
         transform="matrix(0.55805825,0,0,0.55805825,19.21875,1011.4895)" />
      <path
         transform="matrix(0.55805825,0,0,0.55805825,19.925857,1011.2573)"
         d="m 21.566757,7.4297485 c 0,0.1952622 -0.158291,0.3535534 -0.353554,0.3535534 -0.195262,0 -0.353553,-0.1582912 -0.353553,-0.3535534 0,-0.1952621 0.158291,-0.3535533 0.353553,-0.3535533 C 21.408466,7.0761952 21.566757,7.2344864 21.566757,7.4297485 Z"
         sodipodi:ry="0.35355338"
         sodipodi:rx="0.35355338"
         sodipodi:cy="7.4297485"
         sodipodi:cx="21.213203"
         id="path1061"
         style="fill:#ffffff;fill-opacity:0.30769234;stroke:none"
         sodipodi:type="arc" />
      <path
         sodipodi:type="arc"
         style="fill:#ffffff;fill-opacity:0.30769234;stroke:none"
         id="path1063"
         sodipodi:cx="21.213203"
         sodipodi:cy="7.4297485"
         sodipodi:rx="0.35355338"
         sodipodi:ry="0.35355338"
         d="m 21.566757,7.4297485 c 0,0.1952622 -0.158291,0.3535534 -0.353554,0.3535534 -0.195262,0 -0.353553,-0.1582912 -0.353553,-0.3535534 0,-0.1952621 0.158291,-0.3535533 0.353553,-0.3535533 C 21.408466,7.0761952 21.566757,7.2344864 21.566757,7.4297485 Z"
         transform="matrix(0.55805825,0,0,0.55805825,23.21875,1015.4895)" />
      <path
         transform="matrix(0.55805825,0,0,0.55805825,-0.78125,1005.4895)"
         d="m 21.566757,7.4297485 c 0,0.1952622 -0.158291,0.3535534 -0.353554,0.3535534 -0.195262,0 -0.353553,-0.1582912 -0.353553,-0.3535534 0,-0.1952621 0.158291,-0.3535533 0.353553,-0.3535533 C 21.408466,7.0761952 21.566757,7.2344864 21.566757,7.4297485 Z"
         sodipodi:ry="0.35355338"
         sodipodi:rx="0.35355338"
         sodipodi:cy="7.4297485"
         sodipodi:cx="21.213203"
         id="path1065"
         style="fill:#ffffff;fill-opacity:0.50202427;stroke:none"
         sodipodi:type="arc" />
      <path
         sodipodi:type="arc"
         style="fill:#ffffff;fill-opacity:0.50202427;stroke:none"
         id="path1067"
         sodipodi:cx="21.213203"
         sodipodi:cy="7.4297485"
         sodipodi:rx="0.35355338"
         sodipodi:ry="0.35355338"
         d="m 21.566757,7.4297485 c 0,0.1952622 -0.158291,0.3535534 -0.353554,0.3535534 -0.195262,0 -0.353553,-0.1582912 -0.353553,-0.3535534 0,-0.1952621 0.158291,-0.3535533 0.353553,-0.3535533 C 21.408466,7.0761952 21.566757,7.2344864 21.566757,7.4297485 Z"
         transform="matrix(0.55805825,0,0,0.55805825,-1.8973665,1005.4895)" />
      <path
         transform="matrix(0.55805825,0,0,0.55805825,1.21875,1001.4895)"
         d="m 21.566757,7.4297485 c 0,0.1952622 -0.158291,0.3535534 -0.353554,0.3535534 -0.195262,0 -0.353553,-0.1582912 -0.353553,-0.3535534 0,-0.1952621 0.158291,-0.3535533 0.353553,-0.3535533 C 21.408466,7.0761952 21.566757,7.2344864 21.566757,7.4297485 Z"
         sodipodi:ry="0.35355338"
         sodipodi:rx="0.35355338"
         sodipodi:cy="7.4297485"
         sodipodi:cx="21.213203"
         id="path1069"
         style="fill:#ffffff;fill-opacity:0.50202427;stroke:none"
         sodipodi:type="arc" />
      <path
         transform="matrix(0.55805825,0,0,0.55805825,27.21875,1003.4895)"
         d="m 21.566757,7.4297485 c 0,0.1952622 -0.158291,0.3535534 -0.353554,0.3535534 -0.195262,0 -0.353553,-0.1582912 -0.353553,-0.3535534 0,-0.1952621 0.158291,-0.3535533 0.353553,-0.3535533 C 21.408466,7.0761952 21.566757,7.2344864 21.566757,7.4297485 Z"
         sodipodi:ry="0.35355338"
         sodipodi:rx="0.35355338"
         sodipodi:cy="7.4297485"
         sodipodi:cx="21.213203"
         id="path1071"
         style="fill:#ffffff;fill-opacity:0.30769234;stroke:none"
         sodipodi:type="arc" />
    </g>
    <g
       id="g1256"
       transform="translate(0.168831,0)">
      <path
         inkscape:connector-curvature="0"
         id="path884"
         d="m 25.654204,1024.7659 c -1.486842,0 -2.789473,0.7427 -3.586137,1.8717 -0.312215,-0.1249 -0.657837,-0.1923 -1.014614,-0.1923 -1.502947,0 -2.71147,1.2259 -2.71147,2.7288 0,0.2584 0.03818,0.4984 0.104961,0.7347 l 14.432012,0 c 0.06764,-0.2363 0.10496,-0.4763 0.10496,-0.7347 0,-1.5029 -1.226016,-2.7288 -2.728961,-2.7288 -0.356178,0 -0.685338,0.069 -0.997121,0.1923 C 28.461299,1025.5075 27.141858,1024.7659 25.654204,1024.7659 Z"
         style="fill:url(#linearGradient902);fill-opacity:1;stroke:none" />
      <path
         id="path924"
         d="m 33.315243,1043.2897 -5.241863,9.0725 10.483724,0 L 33.315243,1043.2897 Z"
         style="fill:url(#linearGradient950);fill-opacity:1;stroke:none"
         inkscape:connector-curvature="0" />
      <path
         inkscape:connector-curvature="0"
         id="path976"
         d="m 38.056116,1039.5267 c -0.995495,0 -1.867652,0.4973 -2.401047,1.2533 -0.209038,-0.084 -0.440445,-0.1289 -0.679319,-0.1289 -1.006276,0 -1.815425,0.8208 -1.815425,1.8271 0,0.173 0.02555,0.3336 0.07027,0.4919 l 9.662742,0 c 0.04529,-0.1583 0.07028,-0.3189 0.07028,-0.4919 0,-1.0063 -0.820861,-1.8271 -1.827136,-1.8271 -0.238474,0 -0.458857,0.047 -0.667608,0.1289 C 39.935563,1040.0232 39.052152,1039.5267 38.056116,1039.5267 Z"
         style="fill:url(#linearGradient978);fill-opacity:1;stroke:none" />
      <path
         id="path926"
         d="m 42.589306,1035.2253 -9.904095,17.1369 13.58348,0 c 0.86876,0 1.562478,-0.6937 1.562478,-1.5625 l 0,-6.5019 L 42.589306,1035.2253 Z"
         style="fill:url(#linearGradient942);fill-opacity:1;stroke:none"
         inkscape:connector-curvature="0" />
      <path
         id="path1031"
         d="m 42.589306,1035.2253 -3.024151,5.2418 c 3.994472,2.6351 4.812866,7.998 4.838642,11.8951 l 1.864894,0 c 0.86876,0 1.562478,-0.6937 1.562478,-1.5625 l 0,-6.5019 L 42.589306,1035.2253 Z"
         style="fill:url(#linearGradient1033);fill-opacity:1;stroke:none"
         inkscape:connector-curvature="0" />
      <path
         id="path1000"
         d="m 42.589306,1035.2253 -4.914245,8.5181 -0.504026,1.8397 4.410221,-2.5706 2.59573,2.5957 0.680434,-2.5201 2.016101,1.1846 0.478824,-0.8065 L 42.589306,1035.2253 Z"
         style="fill:url(#linearGradient1011);fill-opacity:1;stroke:none"
         inkscape:connector-curvature="0" />
      <path
         id="path1038"
         d="m 33.315243,1043.2897 -0.0252,0.05 -2.19251,3.8054 c -0.05069,0.1999 -0.163903,0.5545 -0.151207,0.5545 0.05403,0 1.927003,-0.6688 2.041301,-0.5545 l 0.932447,0.9577 1.38607,-1.3861 L 33.315243,1043.2897 Z"
         style="fill:url(#linearGradient1049);fill-opacity:1;stroke:none"
         inkscape:connector-curvature="0" />
      <path
         id="path922"
         d="m 23.436348,1033.2093 -11.063354,19.1529 22.126708,0 L 23.436348,1033.2093 Z"
         style="fill:url(#linearGradient934);fill-opacity:1;stroke:none"
         inkscape:connector-curvature="0" />
      <path
         id="path1013"
         d="m 23.436348,1033.2093 -3.679385,6.3759 c 5.471678,2.1002 6.523237,8.3786 6.552329,12.777 l 8.19041,0 L 23.436348,1033.2093 Z"
         style="fill:url(#linearGradient1025);fill-opacity:1;stroke:none"
         inkscape:connector-curvature="0" />
      <path
         id="path967"
         d="m 23.436348,1033.2093 -4.561428,7.888 0,4.7882 4.183409,-4.1834 2.167308,2.1673 2.39412,-2.369 0.907245,0.5292 L 23.436348,1033.2093 Z"
         style="fill:url(#linearGradient994);fill-opacity:1;stroke:none"
         inkscape:connector-curvature="0" />
      <path
         style="fill:url(#linearGradient974);fill-opacity:1;stroke:none"
         d="m 30.275773,1035.3912 c -1.323058,0 -2.482199,0.6609 -3.191107,1.6656 -0.277822,-0.1112 -0.585372,-0.1712 -0.902848,-0.1712 -1.337391,0 -2.412789,1.0909 -2.412789,2.4283 0,0.2299 0.03397,0.4434 0.0934,0.6537 l 12.842255,0 c 0.06019,-0.2103 0.0934,-0.4238 0.0934,-0.6537 0,-1.3374 -1.090964,-2.4283 -2.428352,-2.4283 -0.316944,0 -0.609844,0.062 -0.887284,0.1712 C 32.773653,1036.0511 31.599555,1035.3912 30.275773,1035.3912 Z"
         id="path972"
         inkscape:connector-curvature="0" />
      <path
         style="fill:url(#linearGradient1249);fill-opacity:1;stroke:none"
         d="m 12.435721,1020.3622 c -1.889221,0 -3.5443799,0.9437 -4.5566434,2.3783 -0.3967082,-0.1588 -0.835865,-0.2444 -1.2891953,-0.2444 -1.9096849,0 -3.4452674,1.5577 -3.4452674,3.4673 0,0.3284 0.048507,0.6333 0.1333656,0.9336 l 18.3377065,0 c 0.08595,-0.3003 0.133366,-0.6052 0.133366,-0.9336 0,-1.9096 -1.557809,-3.4673 -3.467493,-3.4673 -0.452568,0 -0.870809,0.088 -1.266969,0.2444 C 16.002492,1021.3045 14.325975,1020.3622 12.435721,1020.3622 Z"
         id="path1247"
         inkscape:connector-curvature="0" />
    </g>
    <g
       id="g1251">
      <path
         id="path7515"
         d="m 2.53125,1005.0185 c -0.917088,0 -1.671147,0.6395 -1.84375,1.5 0.335612,-0.2799 0.774512,-0.4375 1.25,-0.4375 l 44.125,0 c 0.475488,0 0.914388,0.1576 1.25,0.4375 -0.172603,-0.8605 -0.926662,-1.5 -1.84375,-1.5 L 2.53125,1005.0185 Z"
         style="fill:#ffffff;fill-opacity:0.5372549;stroke:none"
         inkscape:connector-curvature="0" />
      <path
         id="rect4280"
         d="m 1.9375,1004.3622 c -1.077277,0 -1.9375,0.8602 -1.9375,1.9375 l 0,43.0625 c 0,0.7934 0.480024,1.449 1.15625,1.75 -0.309341,-0.3333 -0.5,-0.7824 -0.5,-1.2812 l 0,-42.9375 c 0,-1.0482 0.826899,-1.875 1.875,-1.875 l 42.9375,0 c 1.048101,0 1.875,0.8268 1.875,1.875 l 0,42.9375 c 0,0.4988 -0.190658,0.9479 -0.5,1.2812 0.676226,-0.301 1.15625,-0.9566 1.15625,-1.75 l 0,-43.0625 c 0,-1.0773 -0.860223,-1.9375 -1.9375,-1.9375 L 1.9375,1004.3622 Z"
         style="fill:#000000;fill-opacity:0.39215686;stroke:none"
         inkscape:connector-curvature="0" />
      <path
         id="rect846"
         d="m 0,1049.3622 0,1.0625 c 0,1.0773 0.860223,1.9375 1.9375,1.9375 l 44.125,0 c 1.077277,0 1.9375,-0.8602 1.9375,-1.9375 l 0,-1.0625 c 0,1.0773 -0.860223,1.9375 -1.9375,1.9375 l -44.125,0 C 0.860223,1051.2997 0,1050.4395 0,1049.3622 Z"
         style="fill:#000000;fill-opacity:1;stroke:none"
         inkscape:connector-curvature="0" />
    </g>
  </g>
</svg>
