<?xml version="1.0" encoding="UTF-8" standalone="no"?>
<!-- Created with Inkscape (http://www.inkscape.org/) -->

<svg
   xmlns:dc="http://purl.org/dc/elements/1.1/"
   xmlns:cc="http://creativecommons.org/ns#"
   xmlns:rdf="http://www.w3.org/1999/02/22-rdf-syntax-ns#"
   xmlns:svg="http://www.w3.org/2000/svg"
   xmlns="http://www.w3.org/2000/svg"
   xmlns:xlink="http://www.w3.org/1999/xlink"
   xmlns:sodipodi="http://sodipodi.sourceforge.net/DTD/sodipodi-0.dtd"
   xmlns:inkscape="http://www.inkscape.org/namespaces/inkscape"
   width="48"
   height="48"
   id="svg2"
   version="1.1"
   inkscape:version="0.48+devel r12149"
   sodipodi:docname="preferences-desktop-keyboard-shortcuts.svg">
  <defs
     id="defs4">
    <linearGradient
       id="linearGradient908-7">
      <stop
         style="stop-color:#cccccc;stop-opacity:1"
         offset="0"
         id="stop910-5" />
      <stop
         style="stop-color:#ffffff;stop-opacity:1"
         offset="1"
         id="stop912-5" />
    </linearGradient>
    <linearGradient
       inkscape:collect="always"
       xlink:href="#linearGradient908-7"
       id="linearGradient901"
       gradientUnits="userSpaceOnUse"
       x1="24"
       y1="-1048.8622"
       x2="24"
       y2="-1008.1624"
       gradientTransform="matrix(0.74070692,0,0,0.74070692,6.2230318,-266.4723)" />
    <linearGradient
       y2="-1004.6097"
       x2="21.126709"
       y1="-1052.507"
       x1="21.126709"
       gradientUnits="userSpaceOnUse"
       id="linearGradient995"
       xlink:href="#linearGradient908-7"
       inkscape:collect="always"
       gradientTransform="translate(3.2446289e-7,-2.0991406e-5)" />
  </defs>
  <sodipodi:namedview
     id="base"
     pagecolor="#ffffff"
     bordercolor="#666666"
     borderopacity="1.0"
     inkscape:pageopacity="0.0"
     inkscape:pageshadow="2"
     inkscape:zoom="2.7479437"
     inkscape:cx="-12.31522"
     inkscape:cy="28.717577"
     inkscape:document-units="px"
     inkscape:current-layer="layer1"
     showgrid="false"
     inkscape:window-width="1366"
     inkscape:window-height="714"
     inkscape:window-x="0"
     inkscape:window-y="30"
     inkscape:window-maximized="1"
     width="0px"
     height="0px"
     fit-margin-top="0"
     fit-margin-left="0"
     fit-margin-right="0"
     fit-margin-bottom="0">
    <inkscape:grid
       type="xygrid"
       id="grid3850"
       empspacing="5"
       visible="true"
       enabled="true"
       snapvisiblegridlinesonly="true" />
  </sodipodi:namedview>
  <metadata
     id="metadata7">
    <rdf:RDF>
      <cc:Work
         rdf:about="">
        <dc:format>image/svg+xml</dc:format>
        <dc:type
           rdf:resource="http://purl.org/dc/dcmitype/StillImage" />
        <dc:title />
      </cc:Work>
    </rdf:RDF>
  </metadata>
  <g
     inkscape:label="Capa 1"
     inkscape:groupmode="layer"
     id="layer1"
     transform="translate(0,-1004.3622)">
    <rect
       style="fill:url(#linearGradient995);fill-opacity:1;stroke:none"
       id="rect2991-1"
       width="48"
       height="48"
       x="0"
       y="-1052.3622"
       ry="1.9445436"
       transform="scale(1,-1)" />
    <path
       inkscape:connector-curvature="0"
       style="fill:#000000;fill-opacity:1;stroke:none"
       d="m 2.3244629e-6,1049.3622 0,1.0625 c 0,1.0773 0.8602229955371,1.9375 1.9374999755371,1.9375 l 44.1249957,0 c 1.07728,0 1.9375,-0.8602 1.9375,-1.9375 l 0,-1.0625 c 0,1.0773 -0.86022,1.9375 -1.9375,1.9375 l -44.1249957,0 C 0.86022532,1051.2997 2.3244629e-6,1050.4395 2.3244629e-6,1049.3622 Z"
       id="rect846" />
    <path
       inkscape:connector-curvature="0"
       style="fill:#ffffff;fill-opacity:0.5372549;stroke:none"
       d="m 2.5312523,1005.0185 c -0.917089,0 -1.67114698,0.6395 -1.84374998,1.5 0.33561198,-0.2799 0.77451198,-0.4375 1.24999998,-0.4375 l 44.1249957,0 c 0.47549,0 0.91439,0.1576 1.25,0.4375 -0.1726,-0.8605 -0.92666,-1.5 -1.84375,-1.5 L 2.5312523,1005.0185 Z"
       id="path7515" />
    <path
       inkscape:connector-curvature="0"
       style="fill:#000000;fill-opacity:0.39215686;stroke:none"
       d="m 1.9375023,1004.3622 c -1.07727698,0 -1.9374999755371,0.8602 -1.9374999755371,1.9375 l 0,43.0625 c 0,0.7934 0.4800229955371,1.449 1.1562499755371,1.75 -0.30934198,-0.3333 -0.49999998,-0.7824 -0.49999998,-1.2812 l 0,-42.9375 c 0,-1.0482 0.82689898,-1.875 1.87499998,-1.875 l 42.9374957,0 c 1.0481,0 1.875,0.8268 1.875,1.875 l 0,42.9375 c 0,0.4988 -0.19065,0.9479 -0.5,1.2812 0.67623,-0.301 1.15625,-0.9566 1.15625,-1.75 l 0,-43.0625 c 0,-1.0773 -0.86022,-1.9375 -1.9375,-1.9375 L 1.9375023,1004.3622 Z"
       id="rect4280" />
    <path
       style="fill:#8f9095;fill-opacity:1;stroke:none"
       d="m 8.1749733,1042.7375 0,0.3532 c 0,0.7101 0.5615431,1.2715 1.271654,1.2715 l 29.1067467,0 c 0.710112,0 1.271653,-0.5614 1.271653,-1.2715 l 0,-0.3532 c 0,0.71 -0.561541,1.2714 -1.271653,1.2714 l -29.1067467,0 C 8.7365164,1044.0089 8.1749733,1043.4475 8.1749733,1042.7375 Z"
       id="rect920"
       inkscape:connector-curvature="0" />
    <rect
       transform="scale(1,-1)"
       ry="1.2821858"
       y="-1044.0123"
       x="8.1749725"
       height="31.650051"
       width="31.650051"
       id="rect885"
       style="fill:#8f9095;fill-opacity:1;stroke:none" />
    <path
       style="fill:#afafaf;fill-opacity:1;stroke:none"
       d="m 8.1749733,1042.152 0,0.5887 c 0,0.7104 0.5613232,1.2716 1.271654,1.2716 l 29.1067467,0 c 0.710332,0 1.271653,-0.5612 1.271653,-1.2716 l 0,-0.5887 c 0,0.7103 -0.561321,1.2716 -1.271653,1.2716 l -29.1067467,0 C 8.7362965,1043.4236 8.1749733,1042.8623 8.1749733,1042.152 Z"
       id="rect928"
       inkscape:connector-curvature="0" />
    <rect
       style="fill:#ffffff;fill-opacity:1;stroke:none"
       id="rect889"
       width="30.896494"
       height="30.896494"
       x="8.551755"
       y="-1043.6355"
       ry="1.2516576"
       transform="scale(1,-1)" />
    <rect
       transform="scale(1,-1)"
       ry="1.2302883"
       y="-1043.3719"
       x="8.8155012"
       height="30.369001"
       width="30.369001"
       id="rect899"
       style="fill:url(#linearGradient901);fill-opacity:1;stroke:none" />
    <g
       id="g834">
      <path
         inkscape:connector-curvature="0"
         d="m 25.388145,1027.9377 q 0,-0.5438 -0.337857,-0.8962 -0.337853,-0.3525 -0.851982,-0.3525 -0.71978,0 -1.219219,0.6317 -0.499438,0.6315 -0.499438,1.3515 0,0.5872 0.293789,0.9544 0.308476,0.3528 0.851982,0.3528 0.763848,0 1.263287,-0.6171 Q 25.388145,1028.7308 25.388145,1027.9377 z m 0.440681,-1.7187 0.176272,-0.7786 1.292663,0 -0.837293,3.7458 q -0.04407,0.2056 -0.07345,0.3672 -0.02936,0.1617 -0.02936,0.2645 0,0.2937 0.20565,0.2937 0.631643,0 1.14577,-0.7198 0.528817,-0.7196 0.528817,-1.8654 0,-1.7628 -1.116391,-2.7324 -1.116391,-0.9843 -2.893805,-0.9843 -1.86555,0 -3.02601,1.2486 -1.16046,1.2486 -1.16046,3.1582 0,1.9539 1.219218,3.1584 1.233907,1.1898 3.172904,1.1898 0.896051,0 1.689277,-0.3084 0.793226,-0.3233 1.39549,-0.8814 l 1.307353,0 q -0.763848,1.1311 -1.938996,1.748 -1.16046,0.6169 -2.541261,0.6169 -2.394367,0 -4.083644,-1.5863 -1.689277,-1.5868 -1.689277,-3.9663 0,-2.3355 1.659897,-3.9365 1.674588,-1.616 4.024889,-1.616 2.085889,0 3.584205,1.2338 1.586452,1.3074 1.586452,3.3052 0,2.0857 -1.483627,3.3199 -1.145771,0.9545 -2.262162,0.9545 -0.337856,0 -0.602264,-0.1908 -0.24972,-0.2056 -0.24972,-0.5876 -0.337855,0.3381 -0.749157,0.5583 -0.411303,0.2201 -0.807916,0.2201 -0.954809,0 -1.659899,-0.7488 -0.705089,-0.7642 -0.705089,-1.8071 0,-1.4394 0.851983,-2.4971 0.910741,-1.1311 2.291542,-1.1311 0.587575,0 1.013566,0.2204 Q 25.505659,1025.7048 25.828826,1026.219 Z"
         id="path2116"
         style="font-size:18.91450119px;font-style:normal;font-variant:normal;font-weight:bold;font-stretch:normal;line-height:125%;letter-spacing:0px;word-spacing:0px;fill:#000000;fill-opacity:0.39215686;stroke:none;font-family:Helvetica;-inkscape-font-specification:Helvetica Bold" />
      <path
         inkscape:connector-curvature="0"
         id="path905"
         d="m 24.235492,1023.8052 c -1.243699,0 -2.2642,0.4156 -3.037841,1.248 -0.77364,0.8323 -1.153907,1.8828 -1.153907,3.1556 0,0.065 -0.0022,0.1248 0,0.1884 0.03229,-1.199 0.414032,-2.1946 1.153907,-2.9907 0.773641,-0.8324 1.794142,-1.2479 3.037841,-1.2479 1.184941,0 2.152285,0.3327 2.896544,0.9891 0.717875,0.6233 1.081359,1.4985 1.106812,2.6138 0.004,-0.08 0,-0.1527 0,-0.2354 0,-1.1754 -0.362548,-2.0853 -1.106812,-2.7318 C 26.387777,1024.1383 25.420433,1023.8052 24.235492,1023.8052 z m 2.990742,1.9781 -0.777122,3.391 c -0.02937,0.1373 -0.05105,0.2692 -0.07065,0.3769 -0.01957,0.1077 -0.02354,0.1907 -0.02354,0.2589 0,0.043 0.0167,0.059 0.02354,0.095 0.01957,-0.1078 0.04125,-0.2399 0.07065,-0.3768 l 0.847771,-3.7444 L 27.226234,1025.7833 z m -3.037841,0.895 c -0.47985,0 -0.868046,0.2148 -1.201006,0.6359 -0.332959,0.4211 -0.518081,0.8624 -0.518081,1.3423 0,0.082 0.01502,0.1599 0.02354,0.2355 0.03009,-0.4266 0.195015,-0.846 0.494532,-1.2246 0.33296,-0.4211 0.721156,-0.6361 1.201008,-0.6361 0.342752,0 0.646081,0.1185 0.871319,0.3533 0.194312,0.2029 0.279461,0.4562 0.30614,0.7537 0.0057,-0.07 0.02354,-0.1417 0.02354,-0.2119 0,-0.3624 -0.104452,-0.6599 -0.329688,-0.8951 C 24.834476,1026.7964 24.531143,1026.6783 24.188393,1026.6783 z m 5.227911,0.9891 c -0.108182,1.1545 -0.618145,2.1062 -1.483596,2.8258 -0.763847,0.6367 -1.516455,0.9421 -2.260719,0.9421 -0.225236,0 -0.412454,-0.06 -0.588725,-0.1884 -0.166481,-0.1374 -0.259041,-0.3342 -0.259041,-0.5887 -0.225238,0.2248 -0.479372,0.4179 -0.753573,0.5651 -0.274202,0.1469 -0.536263,0.212 -0.800672,0.212 -0.636541,0 -1.178381,-0.2545 -1.648441,-0.7536 -0.436258,-0.4728 -0.651554,-1.0156 -0.682927,-1.6486 -0.0033,0.071 -0.02354,0.1397 -0.02354,0.212 0,0.6952 0.236416,1.304 0.706475,1.8134 0.470061,0.4992 1.011901,0.7297 1.648442,0.7297 0.264407,0 0.526468,-0.065 0.80067,-0.2119 0.274201,-0.1468 0.528336,-0.3399 0.753573,-0.5651 0,0.2548 0.09256,0.4516 0.25904,0.5887 0.176272,0.1274 0.363492,0.1883 0.588729,0.1883 0.744261,0 1.49687,-0.3054 2.260719,-0.9416 C 28.888076,1030.052 29.383734,1028.9919 29.416304,1027.6674 z m -10.832606,0.6828 c -0.002,0.064 0,0.1237 0,0.1885 0,1.5863 0.545805,2.8983 1.671988,3.9562 1.126184,1.0578 2.501309,1.6013 4.097552,1.6013 0.920533,0 1.769666,-0.201 2.543306,-0.6122 0.783433,-0.4113 1.421799,-1.0121 1.931033,-1.7663 l -0.259039,0 c -0.46377,0.5848 -1.015937,1.0452 -1.671994,1.3894 -0.77364,0.4113 -1.622773,0.6357 -2.543306,0.6357 -1.596243,0 -2.971368,-0.5435 -4.097552,-1.6013 C 19.170491,1031.1224 18.623193,1029.8604 18.583698,1028.3502 Z"
         style="font-size:18.91450119px;font-style:normal;font-variant:normal;font-weight:bold;font-stretch:normal;line-height:125%;letter-spacing:0px;word-spacing:0px;fill:#ffffff;fill-opacity:0.39215686;stroke:none;font-family:Helvetica;-inkscape-font-specification:Helvetica Bold" />
      <path
         inkscape:connector-curvature="0"
         id="path915"
         d="m 24.259042,1022.6297 c -1.566867,0 -2.910514,0.5476 -4.026906,1.6248 -1.037316,1.0007 -1.559945,2.2194 -1.624889,3.6503 0.121031,-1.3089 0.656614,-2.4338 1.624889,-3.3676 1.116392,-1.0775 2.460039,-1.6015 4.026906,-1.6015 1.390593,0 2.580595,0.402 3.57947,1.2248 1.057635,0.8714 1.577792,1.9648 1.577792,3.2966 0.0045,-0.092 0,-0.1876 0,-0.2825 0,-1.3318 -0.520157,-2.4253 -1.577792,-3.2969 C 26.839637,1023.0552 25.649635,1022.6297 24.259042,1022.6297 z m -0.211942,2.6373 c -0.920536,0 -1.677107,0.3764 -2.284268,1.1305 -0.567988,0.705 -0.847772,1.5365 -0.847772,2.4963 0,0.04 -0.0017,0.077 0,0.1176 0.03207,-0.8877 0.313895,-1.6684 0.847772,-2.3315 0.607161,-0.7538 1.363732,-1.13 2.284268,-1.13 0.391717,0 0.728619,0.088 1.012614,0.2354 0.293786,0.1468 0.561678,0.387 0.777121,0.73 l 0.164844,-0.777 1.224555,0 0.07066,-0.3063 -1.295203,0 -0.164845,0.7771 c -0.215444,-0.3427 -0.483334,-0.5831 -0.777121,-0.7301 C 24.775719,1025.3321 24.438817,1025.267 24.0471,1025.267 z m 4.191748,2.5434 c -0.03993,0.6324 -0.211433,1.1606 -0.518082,1.5779 -0.342751,0.4799 -0.732813,0.7301 -1.153906,0.7301 -0.109417,0 -0.166303,-0.087 -0.188397,-0.212 -0.01107,0.072 -0.02354,0.1603 -0.02354,0.212 0,0.1957 0.07484,0.2824 0.211943,0.2824 0.421096,0 0.811157,-0.2267 1.153909,-0.7062 C 28.073309,1029.2146 28.238848,1028.5742 28.238848,1027.8104 z m -2.849449,0.3063 c -0.03445,0.4556 -0.200609,0.8762 -0.494532,1.248 -0.33296,0.4113 -0.762419,0.6123 -1.271653,0.6123 -0.362338,0 -0.642117,-0.118 -0.847768,-0.3533 -0.164555,-0.2058 -0.25629,-0.4677 -0.282591,-0.7772 -0.0024,0.04 -0.02354,0.077 -0.02354,0.1179 0,0.3915 0.110279,0.7207 0.306139,0.9656 0.205651,0.2349 0.485432,0.3295 0.847769,0.3295 0.509231,0 0.938694,-0.2009 1.271653,-0.6124 0.332959,-0.4209 0.494533,-0.884 0.494533,-1.4129 C 25.389399,1028.1935 25.392263,1028.1559 25.389399,1028.1167 z m -5.345655,0.259 c -9.89e-4,0.046 0,0.094 0,0.1414 0,1.3025 0.411742,2.3525 1.224556,3.1556 0.822605,0.7929 1.862921,1.1774 3.155584,1.1774 0.597369,0 1.166723,-0.1006 1.695539,-0.3062 0.528819,-0.2155 0.987893,-0.4993 1.389402,-0.8712 l 1.08326,0 c 0.07862,-0.1013 0.162499,-0.1981 0.235492,-0.3063 l -1.318752,0 c -0.401509,0.3722 -0.860583,0.6796 -1.389402,0.895 -0.528816,0.2056 -1.09817,0.3059 -1.695539,0.3059 -1.292663,0 -2.332979,-0.4076 -3.155584,-1.2009 C 20.490961,1030.5983 20.077666,1029.6004 20.043744,1028.3757 Z"
         style="font-size:18.91450119px;font-style:normal;font-variant:normal;font-weight:bold;font-stretch:normal;line-height:125%;letter-spacing:0px;word-spacing:0px;fill:#000000;fill-opacity:0.39215686;stroke:none;font-family:Helvetica;-inkscape-font-specification:Helvetica Bold" />
    </g>
  </g>
</svg>
