<?xml version="1.0" encoding="UTF-8" standalone="no"?>
<!-- Created with Inkscape (http://www.inkscape.org/) -->

<svg
   xmlns:dc="http://purl.org/dc/elements/1.1/"
   xmlns:cc="http://creativecommons.org/ns#"
   xmlns:rdf="http://www.w3.org/1999/02/22-rdf-syntax-ns#"
   xmlns:svg="http://www.w3.org/2000/svg"
   xmlns="http://www.w3.org/2000/svg"
   xmlns:xlink="http://www.w3.org/1999/xlink"
   xmlns:sodipodi="http://sodipodi.sourceforge.net/DTD/sodipodi-0.dtd"
   xmlns:inkscape="http://www.inkscape.org/namespaces/inkscape"
   width="48"
   height="48"
   id="svg2"
   version="1.1"
   inkscape:version="0.48+devel r12149"
   sodipodi:docname="qbittorrent.svg">
  <defs
     id="defs4">
    <linearGradient
       inkscape:collect="always"
       id="linearGradient845">
      <stop
         style="stop-color:#353c42;stop-opacity:1"
         offset="0"
         id="stop847" />
      <stop
         style="stop-color:#505b64;stop-opacity:1"
         offset="1"
         id="stop849" />
    </linearGradient>
    <linearGradient
       inkscape:collect="always"
       xlink:href="#linearGradient845"
       id="linearGradient851"
       x1="23.5"
       y1="-1052.4247"
       x2="23.5"
       y2="-1004.6122"
       gradientUnits="userSpaceOnUse" />
  </defs>
  <sodipodi:namedview
     id="base"
     pagecolor="#ffffff"
     bordercolor="#666666"
     borderopacity="1.0"
     inkscape:pageopacity="0.0"
     inkscape:pageshadow="2"
     inkscape:zoom="5.6568543"
     inkscape:cx="5.6483584"
     inkscape:cy="35.152149"
     inkscape:document-units="px"
     inkscape:current-layer="layer1"
     showgrid="false"
     inkscape:window-width="1366"
     inkscape:window-height="714"
     inkscape:window-x="0"
     inkscape:window-y="30"
     inkscape:window-maximized="1">
    <inkscape:grid
       type="xygrid"
       id="grid3850" />
  </sodipodi:namedview>
  <metadata
     id="metadata7">
    <rdf:RDF>
      <cc:Work
         rdf:about="">
        <dc:format>image/svg+xml</dc:format>
        <dc:type
           rdf:resource="http://purl.org/dc/dcmitype/StillImage" />
        <dc:title />
      </cc:Work>
    </rdf:RDF>
  </metadata>
  <g
     inkscape:label="Capa 1"
     inkscape:groupmode="layer"
     id="layer1"
     transform="translate(0,-1004.3622)">
    <rect
       style="fill:url(#linearGradient851);fill-opacity:1;stroke:none"
       id="rect2991-1"
       width="48"
       height="48"
       x="2e-07"
       y="-1052.3622"
       ry="1.9445436"
       transform="scale(1,-1)" />
    <path
       inkscape:connector-curvature="0"
       style="fill:#000000;fill-opacity:1;stroke:none"
       d="m -2e-7,1049.3622 0,1.0625 c 0,1.0773 0.8602234,1.9375 1.9375004,1.9375 l 44.1249998,0 c 1.077277,0 1.9375,-0.8602 1.9375,-1.9375 l 0,-1.0625 c 0,1.0773 -0.860223,1.9375 -1.9375,1.9375 l -44.1249998,0 C 0.8602232,1051.2997 -2e-7,1050.4395 -2e-7,1049.3622 Z"
       id="rect846" />
    <path
       inkscape:connector-curvature="0"
       style="fill:#ffffff;fill-opacity:0.5372549;stroke:none"
       d="m 2.5312502,1005.0185 c -0.917089,0 -1.671147,0.6395 -1.84375,1.5 0.335612,-0.2799 0.774512,-0.4375 1.25,-0.4375 l 44.1249998,0 c 0.475488,0 0.914388,0.1576 1.25,0.4375 -0.172603,-0.8605 -0.926662,-1.5 -1.84375,-1.5 L 2.5312502,1005.0185 Z"
       id="path7515" />
    <path
       inkscape:connector-curvature="0"
       style="fill:#000000;fill-opacity:0.39215686;stroke:none"
       d="m 1.9375002,1004.3622 c -1.077277,0 -1.9375004,0.8602 -1.9375004,1.9375 l 0,43.0625 c 0,0.7934 0.4800236,1.449 1.1562504,1.75 -0.309342,-0.3333 -0.5,-0.7824 -0.5,-1.2812 l 0,-42.9375 c 0,-1.0482 0.826899,-1.875 1.875,-1.875 l 42.9374998,0 c 1.048101,0 1.875,0.8268 1.875,1.875 l 0,42.9375 c 0,0.4988 -0.190658,0.9479 -0.5,1.2812 0.676226,-0.301 1.15625,-0.9566 1.15625,-1.75 l 0,-43.0625 c 0,-1.0773 -0.860223,-1.9375 -1.9375,-1.9375 L 1.9375002,1004.3622 Z"
       id="rect4280" />
    <g
       id="g902">
      <path
         inkscape:connector-curvature="0"
         id="path853"
         d="m 24,1012.3622 c -8.73315,0 -15.812767,7.0796 -15.812767,15.8128 0,8.7331 7.079617,15.8127 15.812767,15.8127 8.73315,0 15.812767,-7.0796 15.812767,-15.8127 C 39.812767,1019.4418 32.73315,1012.3622 24,1012.3622 z m 0,2.9649 c 7.095685,0 12.847873,5.7522 12.847873,12.8479 0,7.0957 -5.752188,12.8478 -12.847873,12.8478 -7.095685,0 -12.847873,-5.7521 -12.847873,-12.8478 C 11.152127,1021.0793 16.904315,1015.3271 24,1015.3271 Z"
         style="fill:#d2d5d4;fill-opacity:1;stroke:none" />
      <path
         inkscape:connector-curvature="0"
         id="path863"
         d="m 24,1043.9877 c 8.73315,0 15.812767,-7.0796 15.812767,-15.8127 0,-8.7332 -7.079617,-15.8128 -15.812767,-15.8128 l 0,2.9649 c 7.095685,0 12.847873,5.7522 12.847873,12.8479 0,7.0957 -5.752188,12.8478 -12.847873,12.8478 L 24,1043.9877 Z"
         style="fill:#d2d5d4;fill-opacity:1;stroke:none" />
      <path
         inkscape:connector-curvature="0"
         id="path858"
         d="m 8.187233,1028.175 c 0,8.7331 7.079617,15.8127 15.812767,15.8127 l 0,-2.9649 c -7.095685,0 -12.847873,-5.7521 -12.847873,-12.8478 0,-7.0957 5.752188,-12.8479 12.847873,-12.8479 l 0,-2.9649 C 15.26685,1012.3622 8.187233,1019.4418 8.187233,1028.175 Z"
         style="fill:#2b9884;fill-opacity:1;stroke:none" />
      <path
         sodipodi:nodetypes="cccccssssscsssccccsssccsssccccccsscsssscssssssssscss"
         inkscape:connector-curvature="0"
         id="path870"
         d="m 30.485705,1025.2101 -4.292919,5.9298 0.679455,0 L 31.16516,1025.2101 z m -8.029921,0.093 c -1.774243,0 -1.883943,1.6484 -1.883943,2.9032 0,1.2468 0.1097,2.8722 1.883943,2.8722 1.774243,0 1.883943,-1.6254 1.883943,-2.8722 C 24.339727,1026.9511 24.230027,1025.3027 22.455784,1025.3027 z m 4.262035,0 c -0.983026,-2e-4 -1.297141,0.7817 -1.297141,1.6369 0,0.8632 0.330099,1.5751 1.297141,1.5751 0.927082,0 1.266257,-0.7748 1.266257,-1.606 C 27.984076,1026.0375 27.708838,1025.3027 26.717819,1025.3027 z m -9.975632,0.093 -0.525033,2.934 0.586802,0.031 c 0.263738,-0.3196 0.618494,-0.5251 1.050066,-0.5251 0.759249,0 1.266257,0.5459 1.266257,1.2972 0,0.9031 -0.526245,1.328 -1.173604,1.328 -0.679327,0 -1.164528,-0.4357 -1.204488,-1.0192 l -0.679455,0 c 0.02398,1.023 0.808264,1.6369 1.79129,1.6369 1.318694,0 2.00748,-0.9249 2.00748,-1.884 0,-1.2947 -0.846055,-1.9457 -1.853058,-1.9457 -0.38362,0 -0.802312,0.1218 -1.050067,0.4015 l 0,-0.031 0.308843,-1.6059 2.285439,0 L 19.552659,1025.3954 z m 9.975632,0.3397 c 0.599407,0 0.679455,0.702 0.679455,1.1736 0,0.4954 -0.10294,1.1736 -0.710339,1.1736 -0.599407,-3e-4 -0.679455,-0.7101 -0.679455,-1.1736 C 26.00748,1026.4291 26.126405,1025.7351 26.717819,1025.7351 z m -4.262035,0.1544 c 1.158853,0 1.173604,1.4463 1.173604,2.2855 0,0.8471 -0.01477,2.2854 -1.173604,2.2854 -1.158852,0 -1.173603,-1.4383 -1.173603,-2.2854 C 21.282181,1027.3358 21.296945,1025.8895 22.455784,1025.8895 z m 8.215227,1.9766 c -0.983027,0 -1.297141,0.7508 -1.297141,1.606 0,0.8631 0.330098,1.606 1.297141,1.606 0.927082,0 1.266257,-0.7748 1.266257,-1.606 C 31.937268,1028.601 31.66203,1027.8661 30.671011,1027.8661 z m 0,0.4324 c 0.599407,0 0.679455,0.7021 0.679455,1.1736 0,0.4955 -0.10294,1.1427 -0.710339,1.1427 -0.599407,-2e-4 -0.679455,-0.6792 -0.679455,-1.1427 C 29.960672,1028.9926 30.079597,1028.2985 30.671011,1028.2985 Z"
         style="font-size:8.08671761px;font-style:normal;font-variant:normal;font-weight:normal;font-stretch:normal;text-align:start;line-height:125%;letter-spacing:0px;word-spacing:0px;writing-mode:lr-tb;text-anchor:start;fill:#d2d5d4;fill-opacity:1;stroke:none;font-family:Helvetica Neue;-inkscape-font-specification:Helvetica Neue" />
      <path
         inkscape:connector-curvature="0"
         id="path886"
         d="m 24,1015.3309 c -6.693369,0 -12.184175,5.1072 -12.786105,11.6435 0.65794,-6.4787 6.1339,-11.5199 12.786105,-11.5199 6.652205,0 12.128165,5.0412 12.786104,11.5199 C 36.184175,1020.4381 30.693369,1015.3309 24,1015.3309 z m 7.072507,10.0066 -4.200266,5.8062 -0.586802,0 -0.09265,0.1236 0.679455,0 4.292919,-5.9298 L 31.072507,1025.3375 z m -4.354688,0.3706 c -0.500092,0 -0.641271,0.5139 -0.679455,0.9574 0.06117,-0.3976 0.235894,-0.803 0.679455,-0.803 0.449555,0 0.59796,0.4066 0.648571,0.803 -0.02976,-0.4401 -0.141719,-0.9265 -0.648571,-0.9265 L 26.717819,1025.7081 z m -4.262035,0.1853 c -0.929381,0 -1.10252,0.8972 -1.142719,1.6987 0.05848,-0.7608 0.273589,-1.5752 1.142719,-1.5752 0.86914,0 1.08425,0.8144 1.14272,1.5752 C 23.558308,1026.7908 23.385176,1025.8934 22.455784,1025.8934 z m -5.188564,0.1235 -0.308843,1.606 0,0.031 c 0.0095,-0.011 0.02092,-0.021 0.03088,-0.031 l 0.277959,-1.4824 2.285439,0 0,-0.1236 L 17.26722,1026.0169 z m 10.655087,1.4825 c -0.13885,0.5685 -0.509177,1.0192 -1.204488,1.0192 -0.725282,0 -1.097202,-0.424 -1.235372,-0.9883 0.109648,0.6384 0.450249,1.1118 1.235372,1.1118 C 27.46139,1028.6421 27.806794,1028.1256 27.922307,1027.4994 z m -10.068285,0.3397 c -0.431572,0 -0.786328,0.2054 -1.050066,0.525 l -0.555918,-0.031 -0.03088,0.1235 0.586802,0.031 c 0.263738,-0.3197 0.618494,-0.525 1.050066,-0.525 0.748421,0 1.252053,0.5315 1.266257,1.2662 0.0014,-0.033 0,-0.059 0,-0.093 C 19.120279,1028.385 18.613271,1027.8391 17.854022,1027.8391 z m 12.631683,0.4633 c -0.345029,0.1148 -0.461609,0.5486 -0.494149,0.9265 0.06117,-0.3975 0.235894,-0.803 0.679455,-0.803 0.449555,0 0.59796,0.4066 0.648571,0.803 -0.02976,-0.4401 -0.141719,-0.9265 -0.648571,-0.9265 C 30.597084,1028.3024 30.545557,1028.2825 30.485705,1028.3024 z m -9.882979,0.8647 c 0.09113,1.0395 0.453136,2.0384 1.853058,2.0384 1.399921,0 1.76193,-0.9989 1.853059,-2.0384 -0.114021,0.9832 -0.522377,1.9148 -1.853059,1.9148 C 21.125102,1031.0819 20.716747,1030.1503 20.602726,1029.1671 z m -0.772108,0.3706 c -0.149867,0.8195 -0.822738,1.5442 -1.976596,1.5442 -0.860148,0 -1.580786,-0.4943 -1.760406,-1.2971 0.122686,0.8915 0.849412,1.4207 1.760406,1.4207 C 19.076087,1031.2055 19.737365,1030.4174 19.830618,1029.5377 z m 9.605021,0.5251 c 0.109647,0.6461 0.450248,1.1427 1.235372,1.1427 0.743571,0 1.088975,-0.5166 1.204488,-1.1427 -0.13885,0.5686 -0.509177,1.0191 -1.204488,1.0191 C 29.945729,1031.0819 29.573809,1030.6358 29.435639,1030.0628 Z M 8.4960761,1031.36 c 1.428284,7.2647 7.8203999,12.7551 15.5039239,12.7551 7.683524,0 14.07564,-5.4904 15.503924,-12.7551 C 38.029443,1038.5655 31.641507,1043.9916 24,1043.9916 16.358494,1043.9916 9.9705575,1038.5655 8.4960761,1031.36 Z"
         style="font-size:8.08671761px;font-style:normal;font-variant:normal;font-weight:normal;font-stretch:normal;text-align:start;line-height:125%;letter-spacing:0px;word-spacing:0px;writing-mode:lr-tb;text-anchor:start;fill:#000000;fill-opacity:0.23529412;stroke:none;font-family:Helvetica Neue;-inkscape-font-specification:Helvetica Neue" />
      <path
         style="font-size:8.08671761px;font-style:normal;font-variant:normal;font-weight:normal;font-stretch:normal;text-align:start;line-height:125%;letter-spacing:0px;word-spacing:0px;writing-mode:lr-tb;text-anchor:start;fill:#000000;fill-opacity:0.11764706;stroke:none;font-family:Helvetica Neue;-inkscape-font-specification:Helvetica Neue"
         d="m 24,1015.4545 c -6.693369,0 -12.184175,5.1071 -12.786105,11.6434 0.65794,-6.4787 6.1339,-11.5199 12.786105,-11.5199 6.652205,0 12.128165,5.0412 12.786104,11.5199 C 36.184175,1020.5616 30.693369,1015.4545 24,1015.4545 z m 7.072507,10.0065 -4.200266,5.8063 -0.586802,0 -0.09265,0.1235 0.679455,0 4.292919,-5.9298 L 31.072507,1025.461 z m -4.354688,0.3706 c -0.500092,0 -0.641271,0.5139 -0.679455,0.9575 0.06117,-0.3976 0.235894,-0.803 0.679455,-0.803 0.449555,0 0.59796,0.4066 0.648571,0.803 -0.02976,-0.4402 -0.141719,-0.9266 -0.648571,-0.9266 L 26.717819,1025.8316 z m -4.262035,0.1853 c -0.929381,0 -1.10252,0.8972 -1.142719,1.6987 0.05848,-0.7608 0.273589,-1.5751 1.142719,-1.5751 0.86914,0 1.08425,0.8143 1.14272,1.5751 C 23.558308,1026.9143 23.385176,1026.0169 22.455784,1026.0169 z m -5.188564,0.1236 -0.308843,1.6059 0,0.031 c 0.0095,-0.011 0.02092,-0.021 0.03088,-0.031 l 0.277959,-1.4824 2.285439,0 0,-0.1235 L 17.26722,1026.1405 z m 10.655087,1.4824 c -0.13885,0.5686 -0.509177,1.0192 -1.204488,1.0192 -0.725282,0 -1.097202,-0.4239 -1.235372,-0.9883 0.109648,0.6385 0.450249,1.1119 1.235372,1.1119 C 27.46139,1028.7657 27.806794,1028.2491 27.922307,1027.6229 z m -10.068285,0.3398 c -0.431572,0 -0.786328,0.2053 -1.050066,0.525 l -0.555918,-0.031 -0.03088,0.1236 0.586802,0.031 c 0.263738,-0.3196 0.618494,-0.525 1.050066,-0.525 0.748421,0 1.252053,0.5315 1.266257,1.2662 0.0014,-0.033 0,-0.059 0,-0.093 C 19.120279,1028.5085 18.613271,1027.9627 17.854022,1027.9627 z m 12.631683,0.4632 c -0.345029,0.1148 -0.461609,0.5486 -0.494149,0.9265 0.06117,-0.3975 0.235894,-0.803 0.679455,-0.803 0.449555,0 0.59796,0.4066 0.648571,0.803 -0.02976,-0.4401 -0.141719,-0.9265 -0.648571,-0.9265 C 30.597084,1028.4259 30.545557,1028.406 30.485705,1028.4259 z m -9.882979,0.8648 c 0.09113,1.0394 0.453136,2.0383 1.853058,2.0383 1.399921,0 1.76193,-0.9989 1.853059,-2.0383 -0.114021,0.9831 -0.522377,1.9148 -1.853059,1.9148 C 21.125102,1031.2055 20.716747,1030.2738 20.602726,1029.2907 z m -0.772108,0.3706 c -0.149867,0.8195 -0.822738,1.5442 -1.976596,1.5442 -0.860148,0 -1.580786,-0.4944 -1.760406,-1.2972 0.122686,0.8915 0.849412,1.4207 1.760406,1.4207 C 19.076087,1031.329 19.737365,1030.541 19.830618,1029.6613 z m 9.605021,0.5251 c 0.109647,0.646 0.450248,1.1426 1.235372,1.1426 0.743571,0 1.088975,-0.5166 1.204488,-1.1426 -0.13885,0.5685 -0.509177,1.0191 -1.204488,1.0191 C 29.945729,1031.2055 29.573809,1030.7594 29.435639,1030.1864 z m -20.9395629,1.2971 c 1.428284,7.2648 7.8203999,12.7552 15.5039239,12.7552 7.683524,0 14.07564,-5.4904 15.503924,-12.7552 C 38.029443,1038.6891 31.641507,1044.1151 24,1044.1151 16.358494,1044.1151 9.9705575,1038.6891 8.4960761,1031.4835 Z"
         id="path894"
         inkscape:connector-curvature="0" />
      <path
         inkscape:connector-curvature="0"
         id="path896"
         d="m 24,1015.578 c -6.693369,0 -12.184175,5.1072 -12.786105,11.6435 0.65794,-6.4787 6.1339,-11.5199 12.786105,-11.5199 6.652205,0 12.128165,5.0412 12.786104,11.5199 C 36.184175,1020.6852 30.693369,1015.578 24,1015.578 z m 7.072507,10.0065 -4.200266,5.8063 -0.586802,0 -0.09265,0.1235 0.679455,0 4.292919,-5.9298 L 31.072507,1025.5845 z m -4.354688,0.3707 c -0.500092,0 -0.641271,0.5139 -0.679455,0.9574 0.06117,-0.3976 0.235894,-0.803 0.679455,-0.803 0.449555,0 0.59796,0.4066 0.648571,0.803 -0.02976,-0.4402 -0.141719,-0.9265 -0.648571,-0.9265 L 26.717819,1025.9552 z m -4.262035,0.1853 c -0.929381,0 -1.10252,0.8971 -1.142719,1.6986 0.05848,-0.7607 0.273589,-1.5751 1.142719,-1.5751 0.86914,0 1.08425,0.8144 1.14272,1.5751 C 23.558308,1027.0378 23.385176,1026.1405 22.455784,1026.1405 z m -5.188564,0.1235 -0.308843,1.606 0,0.031 c 0.0095,-0.011 0.02092,-0.021 0.03088,-0.031 l 0.277959,-1.4825 2.285439,0 0,-0.1235 L 17.26722,1026.264 z m 10.655087,1.4824 c -0.13885,0.5686 -0.509177,1.0193 -1.204488,1.0193 -0.725282,0 -1.097202,-0.424 -1.235372,-0.9883 0.109648,0.6384 0.450249,1.1118 1.235372,1.1118 C 27.46139,1028.8892 27.806794,1028.3726 27.922307,1027.7464 z m -10.068285,0.3398 c -0.431572,0 -0.786328,0.2054 -1.050066,0.525 l -0.555918,-0.031 -0.03088,0.1235 0.586802,0.031 c 0.263738,-0.3196 0.618494,-0.5249 1.050066,-0.5249 0.748421,0 1.252053,0.5315 1.266257,1.2662 0.0014,-0.033 0,-0.059 0,-0.093 C 19.120279,1028.6321 18.613271,1028.0862 17.854022,1028.0862 z m 12.631683,0.4632 c -0.345029,0.1149 -0.461609,0.5486 -0.494149,0.9266 0.06117,-0.3975 0.235894,-0.803 0.679455,-0.803 0.449555,0 0.59796,0.4066 0.648571,0.803 -0.02976,-0.4401 -0.141719,-0.9266 -0.648571,-0.9266 C 30.597084,1028.5494 30.545557,1028.5296 30.485705,1028.5494 z m -9.882979,0.8648 c 0.09113,1.0395 0.453136,2.0384 1.853058,2.0384 1.399921,0 1.76193,-0.9989 1.853059,-2.0384 -0.114021,0.9832 -0.522377,1.9148 -1.853059,1.9148 C 21.125102,1031.329 20.716747,1030.3974 20.602726,1029.4142 z m -0.772108,0.3706 c -0.149867,0.8195 -0.822738,1.5442 -1.976596,1.5442 -0.860148,0 -1.580786,-0.4943 -1.760406,-1.2971 0.122686,0.8914 0.849412,1.4207 1.760406,1.4207 C 19.076087,1031.4526 19.737365,1030.6645 19.830618,1029.7848 z m 9.605021,0.5251 c 0.109647,0.646 0.450248,1.1427 1.235372,1.1427 0.743571,0 1.088975,-0.5166 1.204488,-1.1427 -0.13885,0.5686 -0.509177,1.0191 -1.204488,1.0191 C 29.945729,1031.329 29.573809,1030.8829 29.435639,1030.3099 z m -20.9395629,1.2971 c 1.428284,7.2648 7.8203999,12.7552 15.5039239,12.7552 7.683524,0 14.07564,-5.4904 15.503924,-12.7552 C 38.029443,1038.8126 31.641507,1044.2387 24,1044.2387 16.358494,1044.2387 9.9705575,1038.8126 8.4960761,1031.607 Z"
         style="font-size:8.08671761px;font-style:normal;font-variant:normal;font-weight:normal;font-stretch:normal;text-align:start;line-height:125%;letter-spacing:0px;word-spacing:0px;writing-mode:lr-tb;text-anchor:start;fill:#000000;fill-opacity:0.05882353;stroke:none;font-family:Helvetica Neue;-inkscape-font-specification:Helvetica Neue" />
    </g>
  </g>
</svg>
