<?xml version="1.0" encoding="UTF-8" standalone="no"?>
<!-- Created with Inkscape (http://www.inkscape.org/) -->

<svg
   xmlns:dc="http://purl.org/dc/elements/1.1/"
   xmlns:cc="http://creativecommons.org/ns#"
   xmlns:rdf="http://www.w3.org/1999/02/22-rdf-syntax-ns#"
   xmlns:svg="http://www.w3.org/2000/svg"
   xmlns="http://www.w3.org/2000/svg"
   xmlns:xlink="http://www.w3.org/1999/xlink"
   xmlns:sodipodi="http://sodipodi.sourceforge.net/DTD/sodipodi-0.dtd"
   xmlns:inkscape="http://www.inkscape.org/namespaces/inkscape"
   width="48"
   height="48"
   id="svg2"
   version="1.1"
   inkscape:version="0.48+devel r12149"
   sodipodi:docname="qreator.svg">
  <defs
     id="defs4">
    <linearGradient
       inkscape:collect="always"
       id="linearGradient1050">
      <stop
         style="stop-color:#ff0000;stop-opacity:1;"
         offset="0"
         id="stop1052" />
      <stop
         style="stop-color:#ff0000;stop-opacity:0;"
         offset="1"
         id="stop1054" />
    </linearGradient>
    <linearGradient
       inkscape:collect="always"
       id="linearGradient1026">
      <stop
         style="stop-color:#ffffff;stop-opacity:1;"
         offset="0"
         id="stop1028" />
      <stop
         style="stop-color:#ffffff;stop-opacity:0;"
         offset="1"
         id="stop1030" />
    </linearGradient>
    <linearGradient
       inkscape:collect="always"
       id="linearGradient1004">
      <stop
         style="stop-color:#000000;stop-opacity:1;"
         offset="0"
         id="stop1006" />
      <stop
         style="stop-color:#000000;stop-opacity:0;"
         offset="1"
         id="stop1008" />
    </linearGradient>
    <linearGradient
       id="linearGradient3373">
      <stop
         id="stop3375"
         offset="0"
         style="stop-color:#000000;stop-opacity:1" />
      <stop
         id="stop3377"
         offset="1"
         style="stop-color:#333333;stop-opacity:1" />
    </linearGradient>
    <linearGradient
       gradientUnits="userSpaceOnUse"
       y2="-1004.6325"
       x2="26.516504"
       y1="-1052.7157"
       x1="26.516504"
       id="linearGradient1608"
       xlink:href="#linearGradient3373"
       inkscape:collect="always"
       gradientTransform="translate(-2.3515625e-6,-7.6065625e-5)" />
    <linearGradient
       inkscape:collect="always"
       xlink:href="#linearGradient1004"
       id="linearGradient1010"
       x1="-0.7470817"
       y1="30.07004"
       x2="5.4630351"
       y2="30.07004"
       gradientUnits="userSpaceOnUse" />
    <linearGradient
       inkscape:collect="always"
       xlink:href="#linearGradient1004"
       id="linearGradient1014"
       gradientUnits="userSpaceOnUse"
       x1="-0.7470817"
       y1="30.07004"
       x2="5.4630351"
       y2="30.07004"
       gradientTransform="matrix(-1,0,0,1,48,1004.3622)" />
    <linearGradient
       inkscape:collect="always"
       xlink:href="#linearGradient1004"
       id="linearGradient1020"
       gradientUnits="userSpaceOnUse"
       x1="-0.7470817"
       y1="30.07004"
       x2="5.4630351"
       y2="30.07004"
       gradientTransform="matrix(0,-1,1,0,0,1052.3622)" />
    <linearGradient
       inkscape:collect="always"
       xlink:href="#linearGradient1004"
       id="linearGradient1022"
       gradientUnits="userSpaceOnUse"
       gradientTransform="matrix(0,1,1,0,0,1004.3622)"
       x1="-0.7470817"
       y1="30.07004"
       x2="5.4630351"
       y2="30.07004" />
    <linearGradient
       inkscape:collect="always"
       xlink:href="#linearGradient1026"
       id="linearGradient1032"
       x1="24.300261"
       y1="-1005.8748"
       x2="24.300261"
       y2="-1034.137"
       gradientUnits="userSpaceOnUse" />
    <linearGradient
       inkscape:collect="always"
       xlink:href="#linearGradient1050"
       id="linearGradient1056"
       x1="24.432327"
       y1="20.92634"
       x2="24.432327"
       y2="41.396667"
       gradientUnits="userSpaceOnUse" />
  </defs>
  <sodipodi:namedview
     id="base"
     pagecolor="#ffffff"
     bordercolor="#666666"
     borderopacity="1.0"
     inkscape:pageopacity="0.0"
     inkscape:pageshadow="2"
     inkscape:zoom="11.313709"
     inkscape:cx="27.517978"
     inkscape:cy="31.468663"
     inkscape:document-units="px"
     inkscape:current-layer="layer1"
     showgrid="false"
     inkscape:window-width="1366"
     inkscape:window-height="716"
     inkscape:window-x="0"
     inkscape:window-y="28"
     inkscape:window-maximized="1" />
  <metadata
     id="metadata7">
    <rdf:RDF>
      <cc:Work
         rdf:about="">
        <dc:format>image/svg+xml</dc:format>
        <dc:type
           rdf:resource="http://purl.org/dc/dcmitype/StillImage" />
        <dc:title />
      </cc:Work>
    </rdf:RDF>
  </metadata>
  <g
     inkscape:label="Capa 1"
     inkscape:groupmode="layer"
     id="layer1"
     transform="translate(0,-1004.3622)">
    <rect
       style="fill:url(#linearGradient1608);fill-opacity:1;stroke:none"
       id="rect2991-1-9"
       width="48"
       height="48"
       x="0"
       y="-1052.3622"
       ry="1.9445436"
       transform="scale(1,-1)" />
    <g
       id="text6110-1-8-2"
       style="font-size:220.81851196px;font-style:normal;font-weight:normal;line-height:125%;letter-spacing:0px;word-spacing:0px;fill:#fff8c1;fill-opacity:1;stroke:none;font-family:Sans"
       transform="matrix(0.04171372,0,0,0.04113493,-48.809893,998.2314)" />
    <rect
       style="fill:#ffffff;fill-opacity:1;stroke:none"
       id="rect2991-1"
       width="42"
       height="42"
       x="3"
       y="-1049.3622"
       ry="1.7014757"
       transform="scale(1,-1)" />
    <path
       inkscape:connector-curvature="0"
       style="fill:#000000;fill-opacity:1;stroke:none"
       d="m -4.9999998e-8,1049.3622 0,1.0625 c 0,1.0773 0.860222899999998,1.9375 1.937499949999998,1.9375 l 44.1250001,0 c 1.077277,0 1.9375,-0.8602 1.9375,-1.9375 l 0,-1.0625 c 0,1.0773 -0.860223,1.9375 -1.9375,1.9375 l -44.1250002,0 C 0.86022285,1051.2997 -4.9999998e-8,1050.4395 -4.9999998e-8,1049.3622 Z"
       id="rect846" />
    <path
       inkscape:connector-curvature="0"
       style="fill:#ffffff;fill-opacity:0.5372549;stroke:none"
       d="m 2.5312499,1005.0185 c -0.9170884,0 -1.67114675,0.6395 -1.84374995,1.5 0.33561205,-0.2799 0.77451215,-0.4375 1.24999995,-0.4375 l 44.1250001,0 c 0.475488,0 0.914388,0.1576 1.25,0.4375 -0.172603,-0.8605 -0.926662,-1.5 -1.84375,-1.5 L 2.5312499,1005.0185 Z"
       id="path7515" />
    <path
       inkscape:connector-curvature="0"
       style="fill:#000000;fill-opacity:0.39215686;stroke:none"
       d="m 1.9374999,1004.3622 c -1.07727695,0 -1.937499949999998,0.8602 -1.937499949999998,1.9375 l 0,43.0625 c 0,0.7934 0.480023599999998,1.449 1.156249949999998,1.75 -0.30934165,-0.3333 -0.49999995,-0.7824 -0.49999995,-1.2812 l 0,-42.9375 c 0,-1.0482 0.82689895,-1.875 1.87499995,-1.875 l 42.9375001,0 c 1.048101,0 1.875,0.8268 1.875,1.875 l 0,42.9375 c 0,0.4988 -0.190658,0.9479 -0.5,1.2812 0.676226,-0.301 1.15625,-0.9566 1.15625,-1.75 l 0,-43.0625 c 0,-1.0773 -0.860223,-1.9375 -1.9375,-1.9375 L 1.9374999,1004.3622 Z"
       id="rect4280" />
    <path
       style="fill:#000000"
       d="m 3.9545564,1043.5691 0,-4.8385 4.8385537,0 4.8385549,0 0,4.8385 0,4.8386 -4.8385549,0 -4.8385537,0 L 3.9545564,1043.5691 z m 8.2946656,0 0,-3.4562 -3.4561119,0 -3.4561113,0 0,3.4562 0,3.4561 3.4561113,0 3.4561119,0 L 12.249221,1043.5691 z m -5.5297788,0 0,-2.0737 2.0736669,0 2.0736679,0 0,2.0737 0,2.0736 -2.0736679,0 -2.0736669,0 L 6.7194432,1043.5691 z m 8.2946678,4.1474 0,-0.6913 0.691222,0 0.691222,0 0,-0.6911 0,-0.6914 0.691221,0 0.691223,0 0,-0.6912 0,-0.6912 0.691223,0 0.691221,0 0,0.6912 0,0.6912 0.691221,0 0.691224,0 0,-1.3824 0,-1.3824 0.691222,0 0.691223,0 0,-0.6912 0,-0.6913 -1.382445,0 -1.382445,0 0,-1.3825 0,-1.3823 -0.691221,0 -0.691223,0 0,-0.6913 0,-0.6912 -0.691222,0 -0.691222,0 0,0.6912 0,0.6913 -0.691222,0 -0.691222,0 0,-0.6913 0,-0.6912 -2.073666,0 -2.073667,0 0,-0.6912 0,-0.6913 -0.691224,0 -0.6912212,0 0,-0.6912 0,-0.6912 -0.6912227,0 -0.6912217,0 0,-0.6912 0,-0.6912 -0.6912226,0 -0.6912226,0 0,-1.3825 0,-1.3825 0.6912226,0 0.6912226,0 0,-0.6911 0,-0.6913 0.6912217,0 0.6912227,0 0,-0.6912 0,-0.6912 0.6912212,0 0.691224,0 0,1.3824 0,1.3824 -0.691224,0 -0.6912212,0 0,0.6913 0,0.6912 1.3824452,0 1.382444,0 0,-0.6912 0,-0.6913 0.691223,0 0.691221,0 0,0.6913 0,0.6912 -0.691221,0 -0.691223,0 0,0.6912 0,0.6913 0.691223,0 0.691221,0 0,0.6912 0,0.6912 0.691223,0 0.691222,0 0,-0.6912 0,-0.6912 1.382445,0 1.382444,0 0,-1.3825 0,-1.3825 -0.691223,0 -0.691221,0 0,0.6913 0,0.6912 -0.691223,0 -0.691222,0 0,-0.6912 0,-0.6913 0.691222,0 0.691223,0 0,-1.3824 0,-1.3824 -0.691223,0 -0.691222,0 0,-1.3824 0,-1.3825 -0.691222,0 -0.691223,0 0,0.6913 0,0.6912 -1.382444,0 -1.382444,0 0,-0.6912 0,-0.6913 -0.691224,0 -0.6912213,0 0,0.6913 0,0.6912 -0.6912226,0 -0.6912217,0 0,0.6911 0,0.6913 -0.6912226,0 -0.6912226,0 0,0.6912 0,0.6912 -0.6912217,0 -0.6912227,0 0,1.3824 0,1.3825 -0.6912216,0 -0.6912208,0 0,-1.3825 0,-1.3824 0.6912208,0 0.6912216,0 0,-0.6912 0,-0.6912 0.6912227,0 0.6912217,0 0,-0.6913 0,-0.6911 -0.6912217,0 -0.6912227,0 0,-0.6912 0,-0.6913 -0.6912216,0 -0.6912208,0 0,-1.3825 0,-1.3824 1.3824424,0 1.3824444,0 0,-0.6912 0,-0.6912 1.3824452,0 1.3824443,0 0,1.3824 0,1.3824 0.6912213,0 0.691224,0 0,-1.3824 0,-1.3824 0.691222,0 0.691222,0 0,-0.6913 0,-0.6912 0.691223,0 0.691221,0 0,0.6912 0,0.6913 -0.691221,0 -0.691223,0 0,0.6912 0,0.6912 2.764889,0 2.764889,0 0,-0.6912 0,-0.6912 -1.382444,0 -1.382445,0 0,-2.0737 0,-2.0737 0.691222,0 0.691223,0 0,-1.3824 0,-1.3825 -0.691223,0 -0.691222,0 0,-2.0736 0,-2.0737 0.691222,0 0.691223,0 0,0.6912 0,0.6912 0.691221,0 0.691223,0 0,-0.6912 0,-0.6912 0.691223,0 0.691221,0 0,-0.6913 0,-0.6912 0.691221,0 0.691224,0 0,0.6912 0,0.6913 2.073668,0 2.073666,0 0,-0.6913 0,-0.6912 1.382444,0 1.382444,0 0,1.3825 0,1.3824 -0.691221,0 -0.691223,0 0,0.6913 0,0.6912 1.382444,0 1.382446,0 0,0.6912 0,0.6912 2.073666,0 2.073666,0 0,2.7649 0,2.7649 1.382445,0 1.382445,0 0,0.6912 0,0.6913 1.382444,0 1.382445,0 0,-0.6913 0,-0.6912 2.073667,0 2.073667,0 0,1.3825 0,1.3824 -1.382446,0 -1.382444,0 0,-0.6912 0,-0.6912 -0.691222,0 -0.691222,0 0,2.0736 0,2.0737 -0.691223,0 -0.691222,0 0,0.6913 0,0.6912 0.691222,0 0.691223,0 0,1.3824 0,1.3824 -1.382445,0 -1.382444,0 0,0.6913 0,0.6911 -0.691223,0 -0.691222,0 0,-0.6911 0,-0.6913 0.691222,0 0.691223,0 0,-0.6912 0,-0.6912 -2.76489,0 -2.764888,0 0,-1.3824 0,-1.3825 -0.691223,0 -0.691221,0 0,-0.6912 0,-0.6913 -0.691221,0 -0.691225,0 0,1.3825 0,1.3825 -0.691221,0 -0.691223,0 0,0.6911 0,0.6913 0.691223,0 0.691221,0 0,0.6912 0,0.6912 -1.382444,0 -1.382444,0 0,-1.3824 0,-1.3824 0.691221,0 0.691223,0 0,-0.6912 0,-0.6913 -0.691223,0 -0.691221,0 0,-0.6912 0,-0.6913 -0.691223,0 -0.691222,0 0,1.3825 0,1.3825 -0.691221,0 -0.691223,0 0,0.6911 0,0.6913 -0.691223,0 -0.691222,0 0,0.6912 0,0.6912 0.691222,0 0.691223,0 0,1.3824 0,1.3825 2.764889,0 2.764888,0 0,-0.6912 0,-0.6913 0.691225,0 0.691221,0 0,-0.6911 0,-0.6913 1.382444,0 1.382444,0 0,2.7649 0,2.7649 -2.073667,0 -2.073667,0 0,0.6912 0,0.6912 0.691225,0 0.691221,0 0,0.6913 0,0.6912 -0.691221,0 -0.691225,0 0,-0.6912 0,-0.6913 -1.382444,0 -1.382444,0 0,0.6913 0,0.6912 0.691221,0 0.691223,0 0,0.6912 0,0.6913 2.073669,0 2.073665,0 0,-0.6913 0,-0.6912 0.691222,0 0.691222,0 0,-0.6912 0,-0.6913 1.382444,0 1.382445,0 0,-0.6912 0,-0.6912 0.691222,0 0.691223,0 0,-0.6912 0,-0.6912 -0.691223,0 -0.691222,0 0,-0.6913 0,-0.6912 2.764889,0 2.764889,0 0,-2.7649 0,-2.7648 1.382444,0 1.382446,0 0,-0.6912 0,-0.6913 0.691221,0 0.691221,0 0,1.3825 0,1.3824 -1.382442,0 -1.382446,0 0,2.0737 0,2.0736 1.382446,0 1.382442,0 0,1.3825 0,1.3824 -0.691221,0 -0.691221,0 0,-0.6912 0,-0.6912 -2.76489,0 -2.764889,0 0,0.6912 0,0.6912 0.691222,0 0.691223,0 0,1.3824 0,1.3825 0.691222,0 0.691222,0 0,-0.6912 0,-0.6913 2.073667,0 2.073665,0 0,0.6913 0,0.6912 -2.073665,0 -2.073667,0 0,0.6912 0,0.6913 0.691223,0 0.691221,0 0,0.6912 0,0.6911 -0.691221,0 -0.691223,0 0,2.0738 0,2.0736 -0.691222,0 -0.691222,0 0,0.6912 0,0.6912 1.382444,0 1.382444,0 0,-0.6912 0,-0.6912 0.691223,0 0.691222,0 0,-0.6912 0,-0.6912 -0.691222,0 -0.691223,0 0,-0.6912 0,-0.6913 0.691223,0 0.691222,0 0,-0.6912 0,-0.6913 0.691221,0 0.691221,0 0,2.0738 0,2.0736 -0.691221,0 -0.691221,0 0,0.6912 0,0.6912 0.691221,0 0.691221,0 0,0.6914 0,0.6911 -0.691221,0 -0.691221,0 0,-0.6911 0,-0.6914 -0.691222,0 -0.691223,0 0,1.3825 0,1.3825 -0.691221,0 -0.691223,0 0,-0.6912 0,-0.6913 -0.691222,0 -0.691222,0 0,0.6913 0,0.6912 -2.073667,0 -2.073667,0 0,-0.6912 0,-0.6913 -0.691222,0 -0.691222,0 0,-0.6911 0,-0.6914 -0.691222,0 -0.691223,0 0,-0.6912 0,-0.6912 -0.691222,0 -0.691222,0 0,-1.3824 0,-1.3825 -0.691223,0 -0.691221,0 0,-0.6912 0,-0.6913 -1.382446,0 -1.382444,0 0,0.6913 0,0.6912 0.691223,0 0.691221,0 0,1.3825 0,1.3824 -0.691221,0 -0.691223,0 0,1.3824 0,1.3825 -2.764889,0 -2.764889,0 0,0.6913 0,0.6912 -1.382445,0 -1.382444,0 0,-0.6912 0,-0.6913 -0.691223,0 -0.691221,0 0,0.6913 0,0.6912 -0.691223,0 -0.691222,0 L 15.01411,1047.7165 z m 4.147333,-1.3824 0,-0.6914 -0.691221,0 -0.691223,0 0,0.6914 0,0.6911 0.691223,0 0.691221,0 L 19.161443,1046.3341 z m 15.20689,-1.3826 0,-0.6912 0.691222,0 0.691222,0 0,-0.6912 0,-0.6912 -1.382444,0 -1.382445,0 0,1.3824 0,1.3824 0.691223,0 0.691222,0 L 34.368334,1044.9515 z m -11.059556,-1.3824 0,-0.6912 -0.691221,0 -0.691223,0 0,0.6912 0,0.6912 0.691223,0 0.691221,0 L 23.308777,1043.5691 z m 15.20689,0 0,-0.6912 -0.691223,0 -0.691222,0 0,0.6912 0,0.6912 0.691222,0 0.691223,0 L 38.515668,1043.5691 z m -15.20689,-2.7649 0,-0.6913 0.691222,0 0.691222,0 0,-0.6911 0,-0.6912 -0.691222,0 -0.691222,0 0,-1.3825 0,-1.3825 0.691222,0 0.691222,0 0,-1.3824 0,-1.3824 -1.382445,0 -1.382444,0 0,-0.6913 0,-0.6912 -0.691223,0 -0.691222,0 0,-1.3825 0,-1.3824 -0.691224,0 -0.691221,0 0,-0.6912 0,-0.6912 -0.691221,0 -0.691223,0 0,1.3824 0,1.3824 0.691223,0 0.691221,0 0,2.0737 0,2.0737 -0.691221,0 -0.691223,0 0,0.6912 0,0.6912 0.691223,0 0.691221,0 0,1.3825 0,1.3825 0.691221,0 0.691224,0 0,0.6912 0,0.6911 0.691222,0 0.691223,0 0,0.6913 0,0.6912 0.691223,0 0.691221,0 L 23.308777,1040.8042 z m -4.147334,-5.5298 0,-0.6912 0.691221,0 0.691224,0 0,-0.6912 0,-0.6912 0.691222,0 0.691223,0 0,0.6912 0,0.6912 0.691223,0 0.691221,0 0,0.6912 0,0.6912 -0.691221,0 -0.691223,0 0,-0.6912 0,-0.6912 -0.691223,0 -0.691222,0 0,0.6912 0,0.6912 -0.691224,0 -0.691221,0 L 19.161443,1035.2744 z m 12.442,5.5298 0,-0.6913 -0.691221,0 -0.691222,0 0,0.6913 0,0.6912 0.691222,0 0.691221,0 L 31.603444,1040.8042 z m 5.529778,-1.3824 0,-2.0737 -2.073666,0 -2.073667,0 0,2.0737 0,2.0736 2.073667,0 2.073666,0 L 37.133222,1039.4218 z m -2.764889,0 0,-0.6912 0.691223,0 0.691222,0 0,0.6912 0,0.6911 -0.691222,0 -0.691223,0 L 34.368334,1039.4218 z m -17.971778,-3.4562 0,-1.3824 -0.691223,0 -0.691222,0 0,1.3824 0,1.3825 0.691222,0 0.691223,0 L 16.396555,1035.9656 z m -2.76489,-0.6912 0,-0.6912 -1.382444,0 -1.382444,0 0,0.6912 0,0.6912 1.382444,0 1.382444,0 L 13.631665,1035.2744 z m 13.824445,-1.3824 0,-0.6912 0.691225,0 0.691221,0 0,-0.6913 0,-0.6912 0.691221,0 0.691223,0 0,-0.6912 0,-0.6913 -0.691223,0 -0.691221,0 0,0.6913 0,0.6912 -0.691221,0 -0.691225,0 0,0.6912 0,0.6913 -0.691221,0 -0.691223,0 0,0.6912 0,0.6912 0.691223,0 0.691221,0 L 27.45611,1033.892 z m -17.9717773,-1.3825 0,-0.6912 -0.6912226,0 -0.6912217,0 0,0.6912 0,0.6913 0.6912217,0 0.6912226,0 L 9.4843327,1032.5095 z m -1.3824443,-6.9121 0,-0.6913 0.6912217,0 0.6912226,0 0,-0.6912 0,-0.6913 -0.6912226,0 -0.6912217,0 0,-0.6912 0,-0.6912 -0.6912226,0 -0.6912226,0 0,0.6912 0,0.6912 -0.6912217,0 -0.6912227,0 0,0.6913 0,0.6912 0.6912227,0 0.6912217,0 0,0.6913 0,0.6912 0.6912226,0 0.6912226,0 L 8.1018884,1025.5974 z m 9.6771106,0 0,-0.6913 -0.691223,0 -0.691221,0 0,-0.6912 0,-0.6913 -0.691223,0 -0.691222,0 0,0.6913 0,0.6912 0.691222,0 0.691223,0 0,0.6913 0,0.6912 0.691221,0 0.691223,0 L 17.778999,1025.5974 z m 2.764889,0 0,-0.6913 0.691222,0 0.691223,0 0,-0.6912 0,-0.6913 -0.691223,0 -0.691222,0 0,-0.6912 0,-0.6912 0.691222,0 0.691223,0 0,-0.6912 0,-0.6912 0.691223,0 0.691221,0 0,0.6912 0,0.6912 1.382445,0 1.382444,0 0,-0.6912 0,-0.6912 0.691223,0 0.691221,0 0,-0.6913 0,-0.6912 0.691225,0 0.691221,0 0,0.6912 0,0.6913 1.382444,0 1.382444,0 0,0.6912 0,0.6912 -1.382444,0 -1.382444,0 0,0.6912 0,0.6912 0.691221,0 0.691223,0 0,0.6913 0,0.6912 0.691222,0 0.691222,0 0,-0.6912 0,-0.6913 0.691223,0 0.691222,0 0,1.3825 0,1.3825 0.691222,0 0.691222,0 0,-2.0737 0,-2.0737 0.691222,0 0.691223,0 0,-0.6912 0,-0.6912 -1.382445,0 -1.382444,0 0,-0.6913 0,-0.6912 -0.691222,0 -0.691223,0 0,-2.0737 0,-2.0736 -0.691222,0 -0.691222,0 0,1.3825 0,1.3823 -0.691223,0 -0.691221,0 0,-2.0736 0,-2.0737 -0.691221,0 -0.691225,0 0,0.6913 0,0.6912 -0.691221,0 -0.691223,0 0,0.6912 0,0.6912 -0.691223,0 -0.691221,0 0,-1.3824 0,-1.3825 0.691221,0 0.691223,0 0,-0.6912 0,-0.6912 -0.691223,0 -0.691221,0 0,-0.6912 0,-0.6913 0.691221,0 0.691223,0 0,-0.6912 0,-0.6912 -0.691223,0 -0.691221,0 0,0.6912 0,0.6912 -0.691223,0 -0.691222,0 0,0.6913 0,0.6912 -0.691221,0 -0.691223,0 0,4.1474 0,4.1473 -0.691223,0 -0.691222,0 0,-0.6913 0,-0.6912 -0.691224,0 -0.691221,0 0,-0.6912 0,-0.6913 0.691221,0 0.691224,0 0,-0.6912 0,-0.6912 -0.691224,0 -0.691221,0 0,0.6912 0,0.6912 -0.691221,0 -0.691223,0 0,-0.6912 0,-0.6912 -0.691223,0 -0.691221,0 0,0.6912 0,0.6912 0.691221,0 0.691223,0 0,1.3825 0,1.3825 1.382444,0 1.382445,0 0,0.6912 0,0.6912 -1.382445,0 -1.382444,0 0,0.6912 0,0.6912 1.382444,0 1.382445,0 0,0.6913 0,0.6912 -0.691224,0 -0.691221,0 0,0.6913 0,0.6912 0.691221,0 0.691224,0 L 20.543888,1025.5974 z m 2.764889,-7.6036 0,-1.3823 0.691222,0 0.691223,0 0,0.6911 0,0.6912 0.691221,0 0.691223,0 0,-0.6912 0,-0.6911 0.691223,0 0.691221,0 0,1.3823 0,1.3825 -2.073667,0 -2.073666,0 L 23.308777,1017.9938 z m -9.677112,6.2211 0,-0.6913 -1.382444,0 -1.382444,0 0,0.6913 0,0.6912 1.382444,0 1.382444,0 L 13.631665,1024.2149 z m 23.501557,0 0,-0.6913 -0.691222,0 -0.691222,0 0,0.6913 0,0.6912 0.691222,0 0.691222,0 L 37.133222,1024.2149 z m -17.971779,-9.6771 0,-0.6913 0.691221,0 0.691224,0 0,-0.6912 0,-0.6912 -0.691224,0 -0.691221,0 0,0.6912 0,0.6912 -0.691221,0 -0.691223,0 0,0.6913 0,0.6912 0.691223,0 0.691221,0 L 19.161443,1014.5378 z m 8.294667,33.1787 0,-0.6913 0.691225,0 0.691221,0 0,-0.6911 0,-0.6914 0.691221,0 0.691223,0 0,0.6914 0,0.6911 0.691222,0 0.691222,0 0,0.6913 0,0.6912 -2.073667,0 -2.073667,0 L 27.45611,1047.7165 z m -11.059555,-5.5298 0,-0.6913 0.691221,0 0.691223,0 0,0.6913 0,0.6912 -0.691223,0 -0.691221,0 L 16.396555,1042.1867 z m -11.0595562,-6.2211 0,-1.3824 0.6912227,0 0.6912217,0 0,1.3824 0,1.3825 -0.6912217,0 -0.6912227,0 L 5.3369988,1035.9656 z m 37.3260022,-6.2209 0,-0.6913 0.691221,0 0.691221,0 0,0.6913 0,0.6911 -0.691221,0 -0.691221,0 L 42.663001,1029.7447 z m -30.41378,-1.3825 0,-0.6912 0.691223,0 0.691221,0 0,0.6912 0,0.6912 -0.691221,0 -0.691223,0 L 12.249221,1028.3622 z m -8.2946646,-8.2947 0,-0.6912 0.6912208,0 0.6912216,0 0,0.6912 0,0.6913 -0.6912216,0 -0.6912208,0 L 3.9545564,1020.0675 z m 0,-6.9122 0,-4.8386 4.8385537,0 4.8385549,0 0,4.8386 0,4.8385 -4.8385549,0 -4.8385537,0 L 3.9545564,1013.1553 z m 8.2946646,0 0,-3.4561 -3.4561109,0 -3.4561113,0 0,3.4561 0,3.4562 3.4561113,0 3.4561109,0 L 12.249221,1013.1553 z m -5.5297778,0 0,-2.0736 2.0736669,0 2.0736669,0 0,2.0736 0,2.0737 -2.0736669,0 -2.0736669,0 L 6.7194432,1013.1553 z m 27.6488898,0 0,-4.8386 4.838556,0 4.838554,0 0,4.8386 0,4.8385 -4.838554,0 -4.838556,0 L 34.368334,1013.1553 z m 8.294668,0 0,-3.4561 -3.456112,0 -3.456111,0 0,3.4561 0,3.4562 3.456111,0 3.456112,0 L 42.663001,1013.1553 z m -5.529779,0 0,-2.0736 2.073667,0 2.073666,0 0,2.0736 0,2.0737 -2.073666,0 -2.073667,0 L 37.133222,1013.1553 z m -6.912222,-1.3824 0,-0.6912 -0.691223,0 -0.691221,0 0,-1.3825 0,-1.3825 0.691221,0 0.691223,0 0,1.3825 0,1.3825 1.382444,0 1.382445,0 0,0.6912 0,0.6912 -1.382445,0 -1.382444,0 L 30.221001,1011.7729 Z"
       id="path849"
       inkscape:connector-curvature="0" />
    <rect
       transform="scale(1,-1)"
       ry="1.7014757"
       y="-1049.3622"
       x="3"
       height="42"
       width="42"
       id="rect1024"
       style="opacity:0.67900002;fill:url(#linearGradient1032);fill-opacity:1;stroke:none" />
    <path
       style="fill:url(#linearGradient1056);fill-opacity:1;stroke:none"
       d="M 3 24.5 L 3 43.3125 C 3.0511697 43.781023 3.2399946 44.195256 3.53125 44.5 C 3.6036559 44.570468 3.6659158 44.662037 3.75 44.71875 C 4.0098162 44.908004 4.3256767 45 4.6875 45 L 43.3125 45 C 43.783809 45 44.177388 44.804733 44.46875 44.5 C 44.760112 44.195267 44.949258 43.78107 45 43.3125 L 45 24.5 L 3 24.5 z "
       transform="translate(0,1004.3622)"
       id="rect1034" />
    <path
       style="fill:#ff0000;fill-opacity:1;stroke:none"
       d="m 3,1028.3657 0,0.4965 42,0 0,-0.4965 L 3,1028.3657 Z"
       id="rect1058"
       inkscape:connector-curvature="0" />
    <path
       inkscape:connector-curvature="0"
       id="path1063"
       d="m 3,1028.6628 0,0.1994 42,0 0,-0.1994 L 3,1028.6628 Z"
       style="fill:#aa0000;fill-opacity:1;stroke:none" />
    <path
       inkscape:connector-curvature="0"
       id="path1065"
       d="m 3,1028.3657 0,0.1498 42,0 0,-0.1498 L 3,1028.3657 Z"
       style="fill:#ffaaaa;fill-opacity:1;stroke:none" />
    <path
       style="fill:url(#linearGradient1010);fill-opacity:1;stroke:none"
       d="M 4.6875 3 C 3.7448824 3 3 3.7448824 3 4.6875 L 3 43.3125 C 3 44.255118 3.7448824 45 4.6875 45 L 7.84375 45 L 7.84375 3 L 4.6875 3 z "
       transform="translate(0,1004.3622)"
       id="rect999" />
    <path
       inkscape:connector-curvature="0"
       style="fill:url(#linearGradient1022);fill-opacity:1;stroke:none"
       d="m 3,1009.0497 c 0,-0.9426 0.7449,-1.6875 1.6875,-1.6875 l 38.625,0 c 0.9426,0 1.6875,0.7449 1.6875,1.6875 l 0,3.1563 -42,0 L 3,1009.0497 Z"
       id="path1018" />
    <path
       id="path1012"
       d="m 43.3125,1007.3622 c 0.942618,0 1.6875,0.7449 1.6875,1.6875 l 0,38.625 c 0,0.9426 -0.744882,1.6875 -1.6875,1.6875 l -3.15625,0 0,-42 L 43.3125,1007.3622 Z"
       style="fill:url(#linearGradient1014);fill-opacity:1;stroke:none"
       inkscape:connector-curvature="0" />
    <path
       id="path1016"
       d="m 3,1047.6747 c 0,0.9426 0.7448824,1.6875 1.6875,1.6875 l 38.625,0 c 0.942618,0 1.6875,-0.7449 1.6875,-1.6875 l 0,-3.1562 -42,0 L 3,1047.6747 Z"
       style="fill:url(#linearGradient1020);fill-opacity:1;stroke:none"
       inkscape:connector-curvature="0" />
  </g>
</svg>
