<?xml version="1.0" encoding="UTF-8" standalone="no"?>
<!-- Created with Inkscape (http://www.inkscape.org/) -->

<svg
   xmlns:dc="http://purl.org/dc/elements/1.1/"
   xmlns:cc="http://creativecommons.org/ns#"
   xmlns:rdf="http://www.w3.org/1999/02/22-rdf-syntax-ns#"
   xmlns:svg="http://www.w3.org/2000/svg"
   xmlns="http://www.w3.org/2000/svg"
   xmlns:xlink="http://www.w3.org/1999/xlink"
   xmlns:sodipodi="http://sodipodi.sourceforge.net/DTD/sodipodi-0.dtd"
   xmlns:inkscape="http://www.inkscape.org/namespaces/inkscape"
   width="48"
   height="48"
   id="svg2"
   version="1.1"
   inkscape:version="0.48+devel r12149"
   sodipodi:docname="qtassistant.svg">
  <defs
     id="defs4">
    <linearGradient
       inkscape:collect="always"
       id="linearGradient1292">
      <stop
         style="stop-color:#000000;stop-opacity:1;"
         offset="0"
         id="stop1294" />
      <stop
         style="stop-color:#000000;stop-opacity:0;"
         offset="1"
         id="stop1296" />
    </linearGradient>
    <linearGradient
       inkscape:collect="always"
       id="linearGradient1264">
      <stop
         style="stop-color:#222b32;stop-opacity:1"
         offset="0"
         id="stop1266" />
      <stop
         style="stop-color:#313a41;stop-opacity:1"
         offset="1"
         id="stop1268" />
    </linearGradient>
    <linearGradient
       inkscape:collect="always"
       xlink:href="#linearGradient1264"
       id="linearGradient1270"
       x1="23"
       y1="48.25"
       x2="23"
       y2="0.75000018"
       gradientUnits="userSpaceOnUse" />
    <linearGradient
       inkscape:collect="always"
       xlink:href="#linearGradient1292"
       id="linearGradient1298"
       x1="34.5"
       y1="-0.37499988"
       x2="34.5"
       y2="28.75"
       gradientUnits="userSpaceOnUse" />
    <linearGradient
       inkscape:collect="always"
       xlink:href="#linearGradient1264"
       id="linearGradient1327"
       gradientUnits="userSpaceOnUse"
       x1="35.5"
       y1="39.166668"
       x2="35.5"
       y2="7.5" />
  </defs>
  <sodipodi:namedview
     id="base"
     pagecolor="#ffffff"
     bordercolor="#666666"
     borderopacity="1.0"
     inkscape:pageopacity="0.0"
     inkscape:pageshadow="2"
     inkscape:zoom="4"
     inkscape:cx="-12.229955"
     inkscape:cy="25.998161"
     inkscape:document-units="px"
     inkscape:current-layer="layer1"
     showgrid="false"
     inkscape:window-width="1366"
     inkscape:window-height="716"
     inkscape:window-x="0"
     inkscape:window-y="28"
     inkscape:window-maximized="1"
     showguides="true"
     inkscape:guide-bbox="true">
    <inkscape:grid
       type="xygrid"
       id="grid3850" />
  </sodipodi:namedview>
  <metadata
     id="metadata7">
    <rdf:RDF>
      <cc:Work
         rdf:about="">
        <dc:format>image/svg+xml</dc:format>
        <dc:type
           rdf:resource="http://purl.org/dc/dcmitype/StillImage" />
        <dc:title />
      </cc:Work>
    </rdf:RDF>
  </metadata>
  <g
     inkscape:label="Capa 1"
     inkscape:groupmode="layer"
     id="layer1"
     transform="translate(0,-1004.3622)">
    <path
       style="fill:url(#linearGradient1270);fill-opacity:1;stroke:none"
       d="M 1.9375 0 C 0.86022285 0 0 0.86022285 0 1.9375 L 0 45.46875 L 0 46.0625 C 0 46.259083 0.040368121 46.44678 0.09375 46.625 C 0.096686003 46.634802 0.090664989 46.646516 0.09375 46.65625 C 0.34195314 47.439399 1.0676184 48 1.9375 48 L 46.0625 48 C 47.139777 48 48 47.139777 48 46.0625 L 48 19 L 48 17.75 L 48 1.9375 C 48 0.86022285 47.139777 0 46.0625 0 L 1.9375 0 z "
       transform="translate(0,1004.3622)"
       id="path948" />
    <path
       inkscape:connector-curvature="0"
       style="fill:#000000;fill-opacity:1;stroke:none"
       d="m -1.2280273e-7,1049.3622 0,1.0625 c 0,1.0773 0.86022290280273,1.9375 1.93749992280273,1.9375 l 44.1249992,0 c 1.077277,0 1.9375,-0.8602 1.9375,-1.9375 l 0,-1.0625 c 0,1.0773 -0.860223,1.9375 -1.9375,1.9375 l -44.1249992,0 C 0.86022278,1051.2997 -1.2280273e-7,1050.4395 -1.2280273e-7,1049.3622 Z"
       id="rect846" />
    <path
       inkscape:connector-curvature="0"
       style="fill:#ffffff;fill-opacity:0.5372549;stroke:none"
       d="m 2.5312498,1005.0185 c -0.9170884,0 -1.67114672,0.6395 -1.84374992,1.5 0.33561202,-0.2799 0.77451212,-0.4375 1.24999992,-0.4375 l 44.1249992,0 c 0.475488,0 0.914388,0.1576 1.25,0.4375 -0.172603,-0.8605 -0.926662,-1.5 -1.84375,-1.5 L 2.5312498,1005.0185 Z"
       id="path7515" />
    <path
       inkscape:connector-curvature="0"
       style="fill:#000000;fill-opacity:0.39215686;stroke:none"
       d="m 1.9374998,1004.3622 c -1.07727692,0 -1.93749992280273,0.8602 -1.93749992280273,1.9375 l 0,43.0625 c 0,0.7934 0.48002360280273,1.449 1.15624992280273,1.75 -0.30934162,-0.3333 -0.49999992,-0.7824 -0.49999992,-1.2812 l 0,-42.9375 c 0,-1.0482 0.82689892,-1.875 1.87499992,-1.875 l 42.9374992,0 c 1.048101,0 1.875,0.8268 1.875,1.875 l 0,42.9375 c 0,0.4988 -0.190658,0.9479 -0.5,1.2812 0.676226,-0.301 1.15625,-0.9566 1.15625,-1.75 l 0,-43.0625 c 0,-1.0773 -0.860223,-1.9375 -1.9375,-1.9375 L 1.9374998,1004.3622 Z"
       id="rect4280" />
    <g
       id="g1432"
       transform="translate(0.23941963,-0.48607838)">
      <path
         transform="matrix(0.98503668,0,0,0.98503668,-9.7306689,1005.953)"
         d="M 50,23 C 50,31.836556 42.836556,39 34,39 25.163444,39 18,31.836556 18,23 18,14.163444 25.163444,7 34,7 42.836556,7 50,14.163444 50,23 Z"
         sodipodi:ry="16"
         sodipodi:rx="16"
         sodipodi:cy="23"
         sodipodi:cx="34"
         id="path1272"
         style="fill:url(#linearGradient1298);fill-opacity:1;stroke:none"
         sodipodi:type="arc" />
      <path
         inkscape:connector-curvature="0"
         id="path1274"
         d="m 23.760578,1012.8483 c -8.704332,0 -15.7605867,7.0563 -15.7605867,15.7606 0,0.063 -7.271e-4,0.1223 0,0.1847 0.114804,-8.6055 7.1278767,-15.5451 15.7605867,-15.5451 8.63271,0 15.645783,6.9396 15.760587,15.5451 7.27e-4,-0.062 0,-0.1221 0,-0.1847 C 39.521165,1019.9046 32.46491,1012.8483 23.760578,1012.8483 Z"
         style="fill:#000000;fill-opacity:1;stroke:none" />
      <path
         inkscape:connector-curvature="0"
         id="path1279"
         d="m 7.9999913,1028.3626 c -0.00129,0.083 0,0.1629 0,0.2463 0,8.7043 7.0562547,15.7606 15.7605867,15.7606 8.704332,0 15.760587,-7.0563 15.760587,-15.7606 0,-0.083 0.0013,-0.1632 0,-0.2463 -0.13099,8.5913 -7.138109,15.5144 -15.760587,15.5144 C 15.1381,1043.877 8.1309812,1036.9539 7.9999913,1028.3626 Z"
         style="fill:#ffffff;fill-opacity:0.11764706;stroke:none" />
      <path
         inkscape:connector-curvature="0"
         style="fill:#000000;fill-opacity:0.23570694;stroke:none"
         d="m 23.760578,1013.2484 c -8.704332,0 -15.7605867,7.0563 -15.7605867,15.7606 0,0.063 -7.271e-4,0.1224 0,0.1847 0.114804,-8.6054 7.1278767,-15.5451 15.7605867,-15.5451 8.63271,0 15.645783,6.9397 15.760587,15.5451 7.27e-4,-0.062 0,-0.122 0,-0.1847 C 39.521165,1020.3047 32.46491,1013.2484 23.760578,1013.2484 Z"
         id="path1313" />
      <path
         id="path1315"
         d="m 23.760578,1013.637 c -8.704332,0 -15.7605867,7.0563 -15.7605867,15.7606 0,0.063 -7.271e-4,0.1223 0,0.1847 0.114804,-8.6054 7.1278767,-15.5451 15.7605867,-15.5451 8.63271,0 15.645783,6.9397 15.760587,15.5451 7.27e-4,-0.062 0,-0.122 0,-0.1847 C 39.521165,1020.6933 32.46491,1013.637 23.760578,1013.637 Z"
         style="fill:#000000;fill-opacity:0.23570694;stroke:none"
         inkscape:connector-curvature="0" />
      <path
         inkscape:connector-curvature="0"
         style="fill:#000000;fill-opacity:0.11906008;stroke:none"
         d="m 23.760578,1014.0295 c -8.704332,0 -15.7605867,7.0563 -15.7605867,15.7605 0,0.063 -7.271e-4,0.1224 0,0.1847 0.114804,-8.6053 7.1278767,-15.545 15.7605867,-15.545 8.63271,0 15.645783,6.9397 15.760587,15.545 7.27e-4,-0.062 0,-0.122 0,-0.1847 C 39.521165,1021.0858 32.46491,1014.0295 23.760578,1014.0295 Z"
         id="path1317" />
      <path
         id="path1319"
         d="m 23.760578,1014.4219 c -8.704332,0 -15.7605867,7.0563 -15.7605867,15.7606 0,0.063 -7.271e-4,0.1223 0,0.1847 0.114804,-8.6054 7.1278767,-15.5451 15.7605867,-15.5451 8.63271,0 15.645783,6.9397 15.760587,15.5451 7.27e-4,-0.062 0,-0.1221 0,-0.1847 C 39.521165,1021.4782 32.46491,1014.4219 23.760578,1014.4219 Z"
         style="fill:#000000;fill-opacity:0.05718821;stroke:none"
         inkscape:connector-curvature="0" />
      <path
         inkscape:connector-curvature="0"
         style="fill:#000000;fill-opacity:0.02745098;stroke:none"
         d="m 23.760578,1014.8183 c -8.704332,0 -15.7605867,7.0563 -15.7605867,15.7606 0,0.063 -7.271e-4,0.1223 0,0.1847 0.114804,-8.6054 7.1278767,-15.5451 15.7605867,-15.5451 8.63271,0 15.645783,6.9397 15.760587,15.5451 7.27e-4,-0.062 0,-0.1221 0,-0.1847 C 39.521165,1021.8746 32.46491,1014.8183 23.760578,1014.8183 Z"
         id="path1321" />
      <path
         inkscape:connector-curvature="0"
         style="fill:#ffffff;fill-opacity:0.05882353;stroke:none"
         d="m 7.9999913,1028.8415 c -0.00129,0.083 0,0.1629 0,0.2462 0,8.7044 7.0562547,15.7606 15.7605867,15.7606 8.704332,0 15.760587,-7.0562 15.760587,-15.7606 0,-0.084 0.0013,-0.1631 0,-0.2462 -0.13099,8.5912 -7.138109,15.5143 -15.760587,15.5143 C 15.1381,1044.3558 8.1309812,1037.4327 7.9999913,1028.8415 Z"
         id="path1323" />
      <path
         sodipodi:type="arc"
         style="fill:url(#linearGradient1327);fill-opacity:1;stroke:none"
         id="path1325"
         sodipodi:cx="34"
         sodipodi:cy="23"
         sodipodi:rx="16"
         sodipodi:ry="16"
         d="M 50,23 C 50,31.836556 42.836556,39 34,39 25.163444,39 18,31.836556 18,23 18,14.163444 25.163444,7 34,7 42.836556,7 50,14.163444 50,23 Z"
         transform="matrix(0.73877751,0,0,0.73877751,-1.3578572,1011.617)" />
      <path
         inkscape:connector-curvature="0"
         id="path1329"
         d="m 23.760578,1016.7884 c -6.528249,0 -11.82044,5.2922 -11.82044,11.8205 0,0.1466 0.02549,0.2856 0.03078,0.4309 0.230377,-6.3253 5.408027,-11.3894 11.789658,-11.3894 6.381631,0 11.559281,5.0641 11.789658,11.3894 0.0053,-0.1453 0.03078,-0.2843 0.03078,-0.4309 C 35.581018,1022.0806 30.288827,1016.7884 23.760578,1016.7884 Z"
         style="fill:#5d6f7d;fill-opacity:0.27290625;stroke:none" />
      <path
         inkscape:connector-curvature="0"
         style="fill:#5d6f7d;fill-opacity:0.13765181;stroke:none"
         d="m 23.760578,1017.6591 c -6.528249,0 -11.82044,5.2922 -11.82044,11.8205 0,0.1465 0.02549,0.2856 0.03078,0.4309 0.230377,-6.3254 5.408027,-11.3895 11.789658,-11.3895 6.381631,0 11.559281,5.0641 11.789658,11.3895 0.0053,-0.1453 0.03078,-0.2844 0.03078,-0.4309 C 35.581018,1022.9513 30.288827,1017.6591 23.760578,1017.6591 Z"
         id="path1334" />
      <path
         inkscape:connector-curvature="0"
         id="path1336"
         d="m 11.940138,1028.8377 c -9.7e-4,0.062 0,0.1222 0,0.1847 0,6.5283 5.292191,11.8204 11.82044,11.8204 6.528249,0 11.82044,-5.2921 11.82044,-11.8204 0,-0.062 9.71e-4,-0.1222 0,-0.1847 -0.11374,6.4299 -5.363416,11.605 -11.82044,11.605 C 17.303554,1040.4427 12.053878,1035.2676 11.940138,1028.8377 Z"
         style="fill:#000000;fill-opacity:0.27303329;stroke:none" />
      <path
         style="fill:#000000;fill-opacity:0.13879496;stroke:none"
         d="m 11.940138,1029.2404 c -9.7e-4,0.062 0,0.1221 0,0.1847 0,6.5283 5.292191,11.8204 11.82044,11.8204 6.528249,0 11.82044,-5.2921 11.82044,-11.8204 0,-0.062 9.71e-4,-0.1223 0,-0.1847 -0.11374,6.4299 -5.363416,11.605 -11.82044,11.605 C 17.303554,1040.8454 12.053878,1035.6703 11.940138,1029.2404 Z"
         id="path1341"
         inkscape:connector-curvature="0" />
      <path
         inkscape:connector-curvature="0"
         id="path1343"
         d="m 11.940138,1029.6377 c -9.7e-4,0.062 0,0.1221 0,0.1847 0,6.5283 5.292191,11.8204 11.82044,11.8204 6.528249,0 11.82044,-5.2921 11.82044,-11.8204 0,-0.062 9.71e-4,-0.1223 0,-0.1847 -0.11374,6.4299 -5.363416,11.605 -11.82044,11.605 C 17.303554,1041.2427 12.053878,1036.0676 11.940138,1029.6377 Z"
         style="fill:#000000;fill-opacity:0.06490437;stroke:none" />
      <path
         style="fill:#000000;fill-opacity:0.03213465;stroke:none"
         d="m 11.940138,1030.0349 c -9.7e-4,0.062 0,0.1222 0,0.1847 0,6.5283 5.292191,11.8205 11.82044,11.8205 6.528249,0 11.82044,-5.2922 11.82044,-11.8205 0,-0.062 9.71e-4,-0.1222 0,-0.1847 -0.11374,6.4299 -5.363416,11.605 -11.82044,11.605 C 17.303554,1041.6399 12.053878,1036.4648 11.940138,1030.0349 Z"
         id="path1345"
         inkscape:connector-curvature="0" />
      <path
         inkscape:connector-curvature="0"
         id="path1347"
         d="m 11.940138,1030.4267 c -9.7e-4,0.062 0,0.1221 0,0.1847 0,6.5283 5.292191,11.8204 11.82044,11.8204 6.528249,0 11.82044,-5.2921 11.82044,-11.8204 0,-0.062 9.71e-4,-0.1223 0,-0.1847 -0.11374,6.4299 -5.363416,11.605 -11.82044,11.605 C 17.303554,1042.0317 12.053878,1036.8566 11.940138,1030.4267 Z"
         style="fill:#000000;fill-opacity:0.01568627;stroke:none" />
      <path
         d="m 27.949242,1023.0081 c 0,-0.6029 -0.729843,-1.0471 -1.332757,-1.0471 -0.793307,0 -1.205827,0.2855 -1.205827,0.8885 0,0.6028 0.602914,1.1423 1.332757,1.1423 C 27.251131,1023.9918 27.949242,1023.5159 27.949242,1023.0081 z m -1.047166,8.4726 c 0.82504,-0.8568 1.364488,-1.5232 1.364488,-1.7453 0,-0.127 -0.03173,-0.1904 -0.126929,-0.1904 -0.09519,0 -0.444251,0.1904 -0.856772,0.7298 -0.634645,0.7933 -1.301023,1.428 -2.443386,2.3799 -0.444253,0.3808 -2.538583,1.9674 -3.585749,1.9674 -0.475985,0 -0.793307,-0.2855 -0.793307,-1.0154 0,-0.8568 0.793307,-2.3164 2.379921,-4.3791 1.618347,-2.0943 2.411655,-3.1415 2.411655,-3.1098 0,-0.3807 -0.729843,-0.7615 -1.11063,-0.7615 -0.793307,0.032 -1.745276,1.0155 -2.919371,2.9193 -1.078899,1.7453 -1.713544,3.2051 -1.903938,4.3157 -0.03174,0.1904 -0.06347,0.3807 -0.06347,0.5711 0,1.5549 0.69811,2.0944 1.618347,2.0944 C 23.379792,1035.2568 25.347193,1033.0355 26.902076,1031.4807 Z"
         style="font-size:32.21432877px;font-style:normal;font-variant:normal;font-weight:normal;font-stretch:normal;text-align:start;line-height:125%;letter-spacing:0px;word-spacing:0px;writing-mode:lr-tb;text-anchor:start;fill:#00d8ff;fill-opacity:1;stroke:none;font-family:Alex Brush;-inkscape-font-specification:Alex Brush"
         id="path1354"
         inkscape:connector-curvature="0" />
      <path
         inkscape:connector-curvature="0"
         id="path1357"
         d="m 26.623341,1021.9599 c -0.793307,0 -1.200513,0.2897 -1.200513,0.8927 0,0.043 -0.006,0.081 0,0.1231 0,-0.6029 0.407206,-0.8927 1.200513,-0.8927 0.52755,0 1.144921,0.3423 1.292861,0.8311 C 27.842784,1022.3618 27.193095,1021.9599 26.623341,1021.9599 z m -2.493374,3.3861 c -0.793307,0.032 -1.719451,1.0204 -2.893545,2.9243 -1.078899,1.7453 -1.718115,3.1989 -1.908509,4.3095 -0.0083,0.05 0.0077,0.1044 0,0.1539 0.190394,-1.1106 0.82961,-2.595 1.908509,-4.3403 1.174094,-1.9039 2.100238,-2.862 2.893545,-2.8935 0.344388,0 0.960108,0.3052 1.077384,0.6464 1.92e-4,10e-5 0.03078,-0.031 0.03078,-0.031 C 25.238133,1025.7348 24.510754,1025.346 24.129967,1025.346 z m 4.001711,4.1864 c -0.09519,0 -0.449386,0.1993 -0.861907,0.7387 -0.634645,0.7934 -1.289446,1.4183 -2.431809,2.3703 -0.444253,0.3808 -2.523592,1.9701 -3.570758,1.9701 -0.356988,0 -0.627219,-0.1351 -0.738777,-0.5233 0.09108,0.4659 0.350611,0.6772 0.738777,0.6772 1.047166,0 3.126505,-1.5893 3.570758,-1.9701 1.142363,-0.9519 1.797164,-1.6077 2.431809,-2.401 0.412521,-0.5394 0.766713,-0.708 0.861907,-0.708 0.06591,0 0.07675,0.031 0.09235,0.092 0.0015,-0.01 0.03078,-0.022 0.03078,-0.031 C 28.254808,1029.6209 28.226879,1029.5324 28.131678,1029.5324 z m -7.603251,4.5558 c -0.03261,-0.1135 -0.05732,-0.2769 -0.06157,-0.431 -0.0015,0.028 0,0.066 0,0.092 C 20.466862,1033.8842 20.50782,1033.9827 20.528427,1034.0882 Z"
         style="font-size:32.21432877px;font-style:normal;font-variant:normal;font-weight:normal;font-stretch:normal;text-align:start;line-height:125%;letter-spacing:0px;word-spacing:0px;writing-mode:lr-tb;text-anchor:start;fill:#000000;fill-opacity:0.23430978;stroke:none;font-family:Alex Brush;-inkscape-font-specification:Alex Brush" />
      <path
         inkscape:connector-curvature="0"
         id="path1362"
         d="m 26.623341,1022.1138 c -0.793307,0 -1.200513,0.2897 -1.200513,0.8927 0.0037,0.021 -0.0051,0.041 0,0.062 0.02942,-0.5577 0.437012,-0.8312 1.200513,-0.8312 0.52755,0 1.144921,0.3423 1.292861,0.8312 C 27.842784,1022.5156 27.193095,1022.1138 26.623341,1022.1138 z m -2.493374,3.3861 c -0.793307,0.032 -1.719451,1.0204 -2.893545,2.9243 -1.078899,1.7453 -1.718115,3.1989 -1.908509,4.3095 -0.0083,0.049 0.0077,0.1043 0,0.1539 0.190394,-1.1106 0.82961,-2.595 1.908509,-4.3403 1.174094,-1.9039 2.100238,-2.862 2.893545,-2.8935 0.320282,0 0.845363,0.2734 1.015819,0.5848 0.0018,0 0.06107,-0.092 0.06156,-0.092 C 25.085147,1025.806 24.472309,1025.4999 24.129967,1025.4999 z m 4.001711,4.1864 c -0.09519,0 -0.449386,0.1993 -0.861907,0.7387 -0.634645,0.7934 -1.289446,1.4184 -2.431809,2.3703 -0.444253,0.3808 -2.523592,1.9701 -3.570758,1.9701 -0.356988,0 -0.627219,-0.1351 -0.738777,-0.5233 0.09109,0.4659 0.350611,0.6772 0.738777,0.6772 1.047166,0 3.126505,-1.5893 3.570758,-1.9701 1.142363,-0.9519 1.797164,-1.6077 2.431809,-2.401 0.412521,-0.5394 0.766713,-0.708 0.861907,-0.708 0.03295,0 0.04867,0.015 0.06156,0.031 0.0089,-0.022 0.02629,-0.043 0.03078,-0.062 C 28.209548,1029.741 28.197586,1029.6863 28.131678,1029.6863 Z"
         style="font-size:32.21432877px;font-style:normal;font-variant:normal;font-weight:normal;font-stretch:normal;text-align:start;line-height:125%;letter-spacing:0px;word-spacing:0px;writing-mode:lr-tb;text-anchor:start;fill:#000000;fill-opacity:0.11764706;stroke:none;font-family:Alex Brush;-inkscape-font-specification:Alex Brush" />
      <path
         inkscape:connector-curvature="0"
         id="path1364"
         d="m 26.623341,1022.2677 c -0.748597,0 -1.157264,0.2646 -1.200513,0.8004 0.0022,0.01 -0.0024,0.022 0,0.031 0.0034,0.012 0.02685,0.019 0.03078,0.031 0.07104,-0.49 0.453232,-0.7388 1.169731,-0.7388 0.51831,0 1.131523,0.3252 1.292861,0.8004 C 27.825458,1022.6529 27.183689,1022.2677 26.623341,1022.2677 z m -2.493374,3.3861 c -0.793307,0.032 -1.719451,1.0204 -2.893545,2.9243 -1.078899,1.7453 -1.718115,3.1989 -1.908509,4.3095 -0.0083,0.049 0.0077,0.1043 0,0.154 0.190394,-1.1107 0.82961,-2.5951 1.908509,-4.3404 1.174094,-1.9038 2.100238,-2.862 2.893545,-2.8935 0.289286,0 0.738314,0.2213 0.954254,0.4925 0.0032,0 0.09087,-0.091 0.09235,-0.092 C 24.99038,1025.9037 24.442213,1025.6538 24.129967,1025.6538 z m 4.001711,4.1864 c -0.09519,0 -0.449386,0.1994 -0.861907,0.7388 -0.634645,0.7933 -1.289446,1.4183 -2.431809,2.3702 -0.444253,0.3808 -2.523592,1.9701 -3.570758,1.9701 -0.356988,0 -0.627219,-0.1351 -0.738777,-0.5233 0.09109,0.4659 0.350611,0.6772 0.738777,0.6772 1.047166,0 3.126505,-1.5893 3.570758,-1.9701 1.142363,-0.9519 1.797164,-1.6077 2.431809,-2.401 0.412521,-0.5394 0.766713,-0.708 0.861907,-0.708 0.01318,0 0.02153,0 0.03078,0 0.02347,-0.04 0.01565,-0.059 0.03078,-0.092 C 28.174292,1029.8784 28.168294,1029.8402 28.131678,1029.8402 Z"
         style="font-size:32.21432877px;font-style:normal;font-variant:normal;font-weight:normal;font-stretch:normal;text-align:start;line-height:125%;letter-spacing:0px;word-spacing:0px;writing-mode:lr-tb;text-anchor:start;fill:#000000;fill-opacity:0.05882353;stroke:none;font-family:Alex Brush;-inkscape-font-specification:Alex Brush" />
      <path
         inkscape:connector-curvature="0"
         id="path1366"
         d="m 26.623341,1022.4216 c -0.701595,0 -1.086713,0.2386 -1.169731,0.708 0.125096,-0.3919 0.527748,-0.5848 1.169731,-0.5848 0.489748,0 1.034168,0.3053 1.231296,0.7387 0.0059,-0.012 0.02558,-0.019 0.03078,-0.031 C 27.735911,1022.7692 27.146802,1022.4216 26.623341,1022.4216 z m -2.493374,3.3861 c -0.793307,0.031 -1.719451,1.0204 -2.893545,2.9243 -1.078899,1.7453 -1.718115,3.1989 -1.908509,4.3096 -0.0083,0.049 0.0077,0.1042 0,0.1539 0.190394,-1.1107 0.82961,-2.5951 1.908509,-4.3404 1.174094,-1.9038 2.100238,-2.862 2.893545,-2.8935 0.258291,0 0.6539,0.1704 0.892689,0.4002 0.0035,0 0.08995,-0.059 0.09235,-0.062 C 24.892579,1026.0301 24.415558,1025.8077 24.129967,1025.8077 z m 4.001711,4.1864 c -0.09519,0 -0.449386,0.1994 -0.861907,0.7388 -0.634645,0.7933 -1.289446,1.4183 -2.431809,2.3702 -0.444253,0.3808 -2.523592,1.9701 -3.570758,1.9701 -0.356988,0 -0.627219,-0.1351 -0.738777,-0.5233 0.09109,0.4659 0.350611,0.6772 0.738777,0.6772 0.130896,0 0.273012,-0.017 0.430954,-0.062 1.105591,-0.3094 2.751083,-1.5753 3.139804,-1.9085 1.142363,-0.9519 1.797164,-1.6076 2.431809,-2.401 0.330017,-0.4315 0.586164,-0.586 0.738778,-0.6464 0.0552,-0.076 0.117525,-0.1541 0.153912,-0.2155 C 28.153207,1029.9918 28.142664,1029.9941 28.131678,1029.9941 Z"
         style="font-size:32.21432877px;font-style:normal;font-variant:normal;font-weight:normal;font-stretch:normal;text-align:start;line-height:125%;letter-spacing:0px;word-spacing:0px;writing-mode:lr-tb;text-anchor:start;fill:#000000;fill-opacity:0.02745098;stroke:none;font-family:Alex Brush;-inkscape-font-specification:Alex Brush" />
      <path
         inkscape:connector-curvature="0"
         id="path1389"
         d="m 25.422828,1023.0681 c 0.07772,0.5491 0.645931,1.0158 1.323643,1.0158 0.475126,0 1.089287,-0.423 1.169731,-0.8927 -0.140564,0.4312 -0.72548,0.8003 -1.169731,0.8003 C 26.107857,1023.9915 25.548207,1023.5752 25.422828,1023.0681 z m -0.184695,3.0782 c -0.0098,-0.019 -0.792717,0.997 -2.401027,3.0782 -1.437527,1.8688 -2.204384,3.2459 -2.339462,4.1249 0.173536,-0.8816 0.951174,-2.2277 2.339462,-4.0325 1.618348,-2.0943 2.401027,-3.1408 2.401027,-3.109 C 25.238133,1026.1895 25.241387,1026.1645 25.238133,1026.1463 z m 3.016675,3.6323 c -0.02857,0.2396 -0.551989,0.8598 -1.354425,1.6931 -1.554883,1.5549 -3.526498,3.7862 -6.03335,3.7862 -0.690178,0 -1.238076,-0.3005 -1.477555,-1.1082 0.225391,0.8671 0.765256,1.2006 1.477555,1.2006 2.506852,0 4.478467,-2.2314 6.03335,-3.7863 0.82504,-0.8568 1.354425,-1.5017 1.354425,-1.7238 C 28.254808,1029.8158 28.257381,1029.7983 28.254808,1029.7786 Z"
         style="font-size:32.21432877px;font-style:normal;font-variant:normal;font-weight:normal;font-stretch:normal;text-align:start;line-height:125%;letter-spacing:0px;word-spacing:0px;writing-mode:lr-tb;text-anchor:start;fill:#ffffff;fill-opacity:0.23507182;stroke:none;font-family:Alex Brush;-inkscape-font-specification:Alex Brush" />
      <path
         style="font-size:32.21432877px;font-style:normal;font-variant:normal;font-weight:normal;font-stretch:normal;text-align:start;line-height:125%;letter-spacing:0px;word-spacing:0px;writing-mode:lr-tb;text-anchor:start;fill:#ffffff;fill-opacity:0.23507182;stroke:none;font-family:Alex Brush;-inkscape-font-specification:Alex Brush"
         d="m 25.422828,1023.0681 c 0.07772,0.5491 0.645931,1.0158 1.323643,1.0158 0.475126,0 1.089287,-0.423 1.169731,-0.8927 -0.140564,0.4312 -0.72548,0.8003 -1.169731,0.8003 C 26.107857,1023.9915 25.548207,1023.5752 25.422828,1023.0681 z m -0.184695,3.0782 c -0.0098,-0.019 -0.792717,0.997 -2.401027,3.0782 -1.437527,1.8688 -2.204384,3.2459 -2.339462,4.1249 0.173536,-0.8816 0.951174,-2.2277 2.339462,-4.0325 1.618348,-2.0943 2.401027,-3.1408 2.401027,-3.109 C 25.238133,1026.1895 25.241387,1026.1645 25.238133,1026.1463 z m 3.016675,3.6323 c -0.02857,0.2396 -0.551989,0.8598 -1.354425,1.6931 -1.554883,1.5549 -3.526498,3.7862 -6.03335,3.7862 -0.690178,0 -1.238076,-0.3005 -1.477555,-1.1082 0.225391,0.8671 0.765256,1.2006 1.477555,1.2006 2.506852,0 4.478467,-2.2314 6.03335,-3.7863 0.82504,-0.8568 1.354425,-1.5017 1.354425,-1.7238 C 28.254808,1029.8158 28.257381,1029.7983 28.254808,1029.7786 Z"
         id="path1394"
         inkscape:connector-curvature="0" />
      <path
         inkscape:connector-curvature="0"
         id="path1396"
         d="m 25.422828,1023.1605 c 0.07772,0.5491 0.645931,1.0158 1.323643,1.0158 0.475126,0 1.089287,-0.4231 1.169731,-0.8927 -0.140564,0.4312 -0.72548,0.8003 -1.169731,0.8003 C 26.107857,1024.0839 25.548207,1023.6675 25.422828,1023.1605 z m -0.184695,3.0782 c -0.0098,-0.019 -0.792717,0.9969 -2.401027,3.0782 -1.437527,1.8688 -2.204384,3.2459 -2.339462,4.1249 0.173536,-0.8816 0.951174,-2.2277 2.339462,-4.0325 1.618348,-2.0943 2.401027,-3.1408 2.401027,-3.109 C 25.238133,1026.2819 25.241387,1026.2569 25.238133,1026.2387 z m 3.016675,3.6323 c -0.02857,0.2396 -0.551989,0.8598 -1.354425,1.6931 -1.554883,1.5549 -3.526498,3.7862 -6.03335,3.7862 -0.690178,0 -1.238076,-0.3005 -1.477555,-1.1082 0.225391,0.8671 0.765256,1.2006 1.477555,1.2006 2.506852,0 4.478467,-2.2314 6.03335,-3.7863 0.82504,-0.8568 1.354425,-1.5017 1.354425,-1.7238 C 28.254808,1029.9081 28.257381,1029.8907 28.254808,1029.871 Z"
         style="font-size:32.21432877px;font-style:normal;font-variant:normal;font-weight:normal;font-stretch:normal;text-align:start;line-height:125%;letter-spacing:0px;word-spacing:0px;writing-mode:lr-tb;text-anchor:start;fill:#ffffff;fill-opacity:0.11728192;stroke:none;font-family:Alex Brush;-inkscape-font-specification:Alex Brush" />
      <path
         style="font-size:32.21432877px;font-style:normal;font-variant:normal;font-weight:normal;font-stretch:normal;text-align:start;line-height:125%;letter-spacing:0px;word-spacing:0px;writing-mode:lr-tb;text-anchor:start;fill:#ffffff;fill-opacity:0.05882353;stroke:none;font-family:Alex Brush;-inkscape-font-specification:Alex Brush"
         d="m 25.422828,1023.2528 c 0.07772,0.5492 0.645931,1.0158 1.323643,1.0158 0.475126,0 1.089287,-0.423 1.169731,-0.8926 -0.140564,0.4312 -0.72548,0.8003 -1.169731,0.8003 C 26.107857,1024.1763 25.548207,1023.7597 25.422828,1023.2528 z m -0.184695,3.0783 c -0.0098,-0.019 -0.792717,0.9969 -2.401027,3.0782 -1.437527,1.8688 -2.204384,3.2459 -2.339462,4.1249 0.173536,-0.8816 0.951174,-2.2277 2.339462,-4.0325 1.618348,-2.0943 2.401027,-3.1408 2.401027,-3.109 C 25.238133,1026.3743 25.241387,1026.3493 25.238133,1026.3311 z m 3.016675,3.6323 c -0.02857,0.2396 -0.551989,0.8598 -1.354425,1.6931 -1.554883,1.5549 -3.526498,3.7862 -6.03335,3.7862 -0.690178,0 -1.238076,-0.3005 -1.477555,-1.1082 0.225391,0.8671 0.765256,1.2006 1.477555,1.2006 2.506852,0 4.478467,-2.2314 6.03335,-3.7863 0.82504,-0.8568 1.354425,-1.5017 1.354425,-1.7238 C 28.254808,1030.0004 28.257381,1029.9831 28.254808,1029.9634 Z"
         id="path1398"
         inkscape:connector-curvature="0" />
    </g>
    <g
       id="g872"
       transform="translate(-1.4259412,-0.92803952)">
      <path
         sodipodi:nodetypes="csssssssssscsscccsssssssssccscccccccscscssscccccscs"
         style="fill:#000000;fill-opacity:0.37651822"
         id="path2400"
         d="m 42.601563,1050.3274 c 0.141025,0 0.148437,-0.02 0.148437,-0.4063 0,-0.3613 -0.0135,-0.4062 -0.122059,-0.4062 -0.231493,0 -0.428259,-0.1401 -0.537717,-0.3828 -0.06038,-0.1339 -0.09835,-0.2523 -0.08438,-0.263 0.01398,-0.011 0.158305,-0.096 0.320739,-0.1886 0.806441,-0.4617 1.167955,-1.4976 1.170255,-3.3531 0.0027,-2.2319 -0.55919,-3.2899 -1.891619,-3.5615 -0.418971,-0.085 -0.894193,-0.04 -1.267058,0.1222 -0.556967,0.2416 -0.981169,0.8884 -1.189926,1.8143 -0.148466,0.6585 -0.146664,2.4609 0.0031,3.1562 0.219777,1.02 0.73846,1.7758 1.361102,1.9834 0.230583,0.077 0.262728,0.1149 0.35965,0.4255 0.150741,0.4831 0.285423,0.7176 0.500073,0.8704 0.214695,0.1529 0.639734,0.2548 0.901221,0.2161 C 42.372268,1050.3394 42.519924,1050.3274 42.601565,1050.3274 z m -1.413066,-2.3316 c -0.19056,-0.095 -0.419336,-0.4273 -0.498997,-0.7247 -0.260475,-0.9727 -0.238657,-3.3809 0.03687,-4.0695 0.12507,-0.3126 0.413898,-0.5617 0.651253,-0.5617 0.262652,0 0.592969,0.3167 0.715694,0.6862 0.217024,0.6534 0.253592,2.8468 0.06283,3.7687 C 42.004467,1047.8278 41.602418,1048.2022 41.188497,1047.9958 z m 4.186503,0.4536 c 0.591402,-0.1314 0.625,-0.1604 0.625,-0.5401 0,-0.2948 -0.01462,-0.336 -0.109375,-0.3078 -0.374861,0.1113 -0.462186,0.1121 -0.580643,0.01 -0.115624,-0.1047 -0.122482,-0.2013 -0.122482,-1.7262 l 0,-1.6153 0.375,0 0.375,0 0,-0.3669 0,-0.367 -0.375,-0.043 -0.375,-0.042 0,-0.5869 c 0,-0.3229 -0.0211,-0.5998 -0.04687,-0.6155 -0.02578,-0.015 -0.185356,-0.038 -0.35461,-0.051 l -0.307737,-0.022 -0.107223,0.4375 c -0.05897,0.2406 -0.124935,0.5149 -0.14658,0.6094 -0.03367,0.147 -0.07079,0.1719 -0.256915,0.1719 l -0.21756,0 0,0.4062 0,0.4063 0.1875,0 0.1875,0 0,1.8149 c 0,2.2177 0.02492,2.3029 0.71875,2.4556 C 45.043278,1048.5168 45.078449,1048.5152 45.375,1048.4494 Z"
         inkscape:connector-curvature="0" />
      <path
         id="path1427"
         transform="translate(0,1004.3622)"
         d="m 40.96875,37.375 c -0.217785,0.0209 -0.438567,0.07515 -0.625,0.15625 -0.556967,0.2416 -0.978743,0.8866 -1.1875,1.8125 -0.04479,0.198645 -0.07625,0.498708 -0.09375,0.84375 0.01837,-0.272441 0.05663,-0.522875 0.09375,-0.6875 0.208757,-0.9259 0.630533,-1.5709 1.1875,-1.8125 0.372865,-0.1622 0.831029,-0.21 1.25,-0.125 1.165875,0.23765 1.751043,1.07983 1.875,2.78125 -0.101087,-1.800734 -0.675867,-2.693071 -1.875,-2.9375 C 41.384265,37.36375 41.186535,37.3541 40.96875,37.375 z m 3.5,0.4375 L 44.375,38.25 c -0.05897,0.2406 -0.134605,0.5305 -0.15625,0.625 -0.03367,0.147 -0.06388,0.15625 -0.25,0.15625 l -0.21875,0 0,0.1875 0.21875,0 c 0.186125,0 0.21633,-0.0405 0.25,-0.1875 0.02164,-0.0945 0.09728,-0.35315 0.15625,-0.59375 L 44.46875,38 l 0.3125,0 c 0.169254,0.013 0.34922,0.0475 0.375,0.0625 -0.0064,-0.04571 0.0077,-0.182802 0,-0.1875 -0.02578,-0.015 -0.205746,-0.01825 -0.375,-0.03125 L 44.46875,37.8125 z m 0.71875,1.28125 0,0.15625 0.375,0.0625 0.375,0.03125 0,-0.15625 L 45.5625,39.125 45.1875,39.09375 z m -2.9375,2.75 c -0.02001,0.345483 -0.04606,0.644525 -0.09375,0.875 -0.15168,0.733 -0.554829,1.11265 -0.96875,0.90625 -0.19056,-0.095 -0.420339,-0.42135 -0.5,-0.71875 -0.06512,-0.243175 -0.125971,-0.564186 -0.15625,-0.9375 0.02915,0.433463 0.08257,0.84985 0.15625,1.125 0.07966,0.2974 0.30944,0.62375 0.5,0.71875 0.413921,0.2064 0.81707,-0.17325 0.96875,-0.90625 C 42.211883,42.637392 42.231874,42.259156 42.25,41.84375 z m 2.96875,1.0625 c 0.01421,0.315451 0.02823,0.440673 0.09375,0.5 0.118457,0.1021 0.187639,0.1113 0.5625,0 0.04738,-0.0141 0.07825,-0.01237 0.09375,0.03125 -0.0077,-0.146938 -0.02037,-0.209338 -0.09375,-0.1875 -0.374861,0.1113 -0.444043,0.1021 -0.5625,0 C 45.254688,43.19765 45.234918,43.1341 45.21875,42.90625 z m -3.15625,1.75 c -0.01142,0.007 -0.05983,0.02915 -0.0625,0.03125 -0.01397,0.0107 0.03337,0.1161 0.09375,0.25 0.109458,0.2427 0.299757,0.375 0.53125,0.375 0.05428,0 0.07681,0.03736 0.09375,0.09375 -0.0081,-0.177497 -0.01011,-0.25 -0.09375,-0.25 -0.231493,0 -0.421792,-0.1323 -0.53125,-0.375 C 42.067585,44.723227 42.077846,44.70095 42.0625,44.65625 Z"
         style="fill:#000000;fill-opacity:0.37651822"
         inkscape:connector-curvature="0" />
    </g>
  </g>
</svg>
