<?xml version="1.0" encoding="UTF-8" standalone="no"?>
<!-- Created with Inkscape (http://www.inkscape.org/) -->

<svg
   xmlns:dc="http://purl.org/dc/elements/1.1/"
   xmlns:cc="http://creativecommons.org/ns#"
   xmlns:rdf="http://www.w3.org/1999/02/22-rdf-syntax-ns#"
   xmlns:svg="http://www.w3.org/2000/svg"
   xmlns="http://www.w3.org/2000/svg"
   xmlns:xlink="http://www.w3.org/1999/xlink"
   xmlns:sodipodi="http://sodipodi.sourceforge.net/DTD/sodipodi-0.dtd"
   xmlns:inkscape="http://www.inkscape.org/namespaces/inkscape"
   width="48"
   height="48"
   id="svg2"
   version="1.1"
   inkscape:version="0.48+devel r12149"
   sodipodi:docname="qupzilla.svg">
  <defs
     id="defs4">
    <linearGradient
       inkscape:collect="always"
       id="linearGradient1075">
      <stop
         style="stop-color:#ffffff;stop-opacity:1"
         offset="0"
         id="stop1077" />
      <stop
         style="stop-color:#ffffff;stop-opacity:0"
         offset="1"
         id="stop1079" />
    </linearGradient>
    <linearGradient
       inkscape:collect="always"
       id="linearGradient893">
      <stop
         style="stop-color:#287178;stop-opacity:1"
         offset="0"
         id="stop895" />
      <stop
         style="stop-color:#55dbb8;stop-opacity:1"
         offset="1"
         id="stop897" />
    </linearGradient>
    <linearGradient
       inkscape:collect="always"
       xlink:href="#linearGradient893"
       id="linearGradient899"
       x1="8.75"
       y1="22.750002"
       x2="39.296471"
       y2="40.386013"
       gradientUnits="userSpaceOnUse" />
    <linearGradient
       inkscape:collect="always"
       xlink:href="#linearGradient893"
       id="linearGradient907"
       x1="23.25"
       y1="9.75"
       x2="6.6875"
       y2="26.3125"
       gradientUnits="userSpaceOnUse" />
    <linearGradient
       inkscape:collect="always"
       xlink:href="#linearGradient893"
       id="linearGradient925"
       x1="39"
       y1="33.375"
       x2="23.620556"
       y2="6.7370214"
       gradientUnits="userSpaceOnUse" />
    <linearGradient
       inkscape:collect="always"
       xlink:href="#linearGradient893"
       id="linearGradient933"
       gradientUnits="userSpaceOnUse"
       x1="23.25"
       y1="9.75"
       x2="6.6875"
       y2="26.3125"
       gradientTransform="matrix(0.40626567,0.70367278,-0.70367278,0.40626567,31.137745,1001.7237)" />
    <linearGradient
       inkscape:collect="always"
       xlink:href="#linearGradient893"
       id="linearGradient935"
       gradientUnits="userSpaceOnUse"
       x1="39"
       y1="33.375"
       x2="23.620556"
       y2="6.7370214"
       gradientTransform="matrix(0.40626567,0.70367278,-0.70367278,0.40626567,31.637745,1001.7237)" />
    <linearGradient
       inkscape:collect="always"
       xlink:href="#linearGradient893"
       id="linearGradient937"
       gradientUnits="userSpaceOnUse"
       x1="8.75"
       y1="22.750002"
       x2="39.296471"
       y2="40.386013"
       gradientTransform="matrix(0.40626567,0.70367278,-0.70367278,0.40626567,30.950245,1001.7237)" />
    <radialGradient
       inkscape:collect="always"
       xlink:href="#linearGradient1075"
       id="radialGradient1081"
       cx="35.313709"
       cy="-1028.3622"
       fx="35.313709"
       fy="-1028.3622"
       r="24"
       gradientUnits="userSpaceOnUse"
       gradientTransform="matrix(0.86741748,1.9705407e-7,-2.0040065e-7,0.88214887,-6.6319338,-121.19366)" />
    <linearGradient
       inkscape:collect="always"
       xlink:href="#linearGradient893"
       id="linearGradient1087"
       x1="25.102291"
       y1="-1052.3843"
       x2="25.102291"
       y2="-1004.3784"
       gradientUnits="userSpaceOnUse" />
    <linearGradient
       inkscape:collect="always"
       xlink:href="#linearGradient893"
       id="linearGradient1091"
       gradientUnits="userSpaceOnUse"
       x1="25.102291"
       y1="-1052.3843"
       x2="25.102291"
       y2="-1004.3784" />
    <linearGradient
       inkscape:collect="always"
       xlink:href="#linearGradient1075"
       id="linearGradient1147"
       x1="9.9999981"
       y1="24.000002"
       x2="48.499996"
       y2="24.000002"
       gradientUnits="userSpaceOnUse" />
  </defs>
  <sodipodi:namedview
     id="base"
     pagecolor="#ffffff"
     bordercolor="#666666"
     borderopacity="1.0"
     inkscape:pageopacity="0.0"
     inkscape:pageshadow="2"
     inkscape:zoom="5.6568543"
     inkscape:cx="-1.1242252"
     inkscape:cy="16.560808"
     inkscape:document-units="px"
     inkscape:current-layer="layer1"
     showgrid="false"
     inkscape:window-width="1366"
     inkscape:window-height="716"
     inkscape:window-x="0"
     inkscape:window-y="28"
     inkscape:window-maximized="1"
     showguides="false" />
  <metadata
     id="metadata7">
    <rdf:RDF>
      <cc:Work
         rdf:about="">
        <dc:format>image/svg+xml</dc:format>
        <dc:type
           rdf:resource="http://purl.org/dc/dcmitype/StillImage" />
        <dc:title />
      </cc:Work>
    </rdf:RDF>
  </metadata>
  <g
     inkscape:label="Capa 1"
     inkscape:groupmode="layer"
     id="layer1"
     transform="translate(0,-1004.3622)">
    <rect
       style="fill:url(#linearGradient1087);fill-opacity:1;stroke:none;opacity:1"
       id="rect1089"
       width="48"
       height="48"
       x="0"
       y="-1052.3622"
       ry="1.9445436"
       transform="scale(1,-1)" />
    <path
       sodipodi:type="arc"
       style="fill:#000000;fill-opacity:1;stroke:none"
       id="path1145"
       sodipodi:cx="24.8125"
       sodipodi:cy="24.1875"
       sodipodi:rx="9.3125"
       sodipodi:ry="9.3125"
       d="m 34.125,24.1875 a 9.3125,9.3125 0 1 1 -18.625,0 A 9.3125,9.3125 0 1 1 34.125,24.1875 Z"
       transform="matrix(1.2147652,0,0,1.2147652,-6.141359,998.98008)" />
    <rect
       style="fill:url(#radialGradient1081);fill-opacity:1;stroke:none"
       id="rect2991-1"
       width="48"
       height="48"
       x="0"
       y="-1052.3622"
       ry="1.9445436"
       transform="scale(1,-1)" />
    <path
       inkscape:connector-curvature="0"
       style="fill:#000000;fill-opacity:1;stroke:none"
       d="m 0,1049.3622 0,1.0625 c 0,1.0773 0.8602229,1.9375 1.9374999,1.9375 l 44.1250001,0 c 1.077277,0 1.9375,-0.8602 1.9375,-1.9375 l 0,-1.0625 c 0,1.0773 -0.860223,1.9375 -1.9375,1.9375 l -44.1250001,0 C 0.8602229,1051.2997 0,1050.4395 0,1049.3622 Z"
       id="rect846" />
    <path
       inkscape:connector-curvature="0"
       style="fill:#ffffff;fill-opacity:0.5372549;stroke:none"
       d="m 2.5312499,1005.0185 c -0.9170884,0 -1.6711467,0.6395 -1.8437499,1.5 0.335612,-0.2799 0.7745121,-0.4375 1.2499999,-0.4375 l 44.1250001,0 c 0.475488,0 0.914388,0.1576 1.25,0.4375 -0.172603,-0.8605 -0.926662,-1.5 -1.84375,-1.5 L 2.5312499,1005.0185 Z"
       id="path7515" />
    <path
       inkscape:connector-curvature="0"
       style="fill:#000000;fill-opacity:0.39215686;stroke:none"
       d="M 1.9374999,1004.3622 C 0.860223,1004.3622 0,1005.2224 0,1006.2997 l 0,43.0625 c 0,0.7934 0.4800236,1.449 1.1562499,1.75 -0.3093416,-0.3333 -0.4999999,-0.7824 -0.4999999,-1.2812 l 0,-42.9375 c 0,-1.0482 0.8268989,-1.875 1.8749999,-1.875 l 42.9375001,0 c 1.048101,0 1.875,0.8268 1.875,1.875 l 0,42.9375 c 0,0.4988 -0.190658,0.9479 -0.5,1.2812 0.676226,-0.301 1.15625,-0.9566 1.15625,-1.75 l 0,-43.0625 c 0,-1.0773 -0.860223,-1.9375 -1.9375,-1.9375 L 1.9374999,1004.3622 Z"
       id="rect4280" />
    <rect
       transform="scale(1,-1)"
       ry="1.9445436"
       y="-1052.3622"
       x="0"
       height="48"
       width="48"
       id="rect1083"
       style="opacity:0.581;fill:url(#linearGradient1091);fill-opacity:1;stroke:none" />
    <path
       transform="matrix(0.67532468,0,0,0.67532468,4.2467544,1012.1544)"
       d="m 48.499998,24.000002 a 19.25,19.25 0 1 1 -38.4999999,0 A 19.25,19.25 0 1 1 48.499998,24.000002 Z"
       sodipodi:ry="19.25"
       sodipodi:rx="19.25"
       sodipodi:cy="24.000002"
       sodipodi:cx="29.249998"
       id="path867"
       style="fill:url(#linearGradient1147);fill-opacity:1.0;stroke:none"
       sodipodi:type="arc" />
    <path
       style="fill:url(#linearGradient907);fill-opacity:1;stroke:none"
       d="M 24 8 C 15.163444 8 8 15.163444 8 24 C 8 29.598443 10.895517 34.515915 15.25 37.375 C 12.993256 34.616915 11.625 31.091693 11.625 27.25 C 11.625 18.413444 18.788444 11.25 27.625 11.25 C 30.863113 11.25 33.856387 12.221319 36.375 13.875 C 33.440844 10.289014 28.994863 8 24 8 z "
       id="path869"
       transform="translate(0,1004.3622)" />
    <path
       style="fill:url(#linearGradient925);fill-opacity:1;stroke:none"
       d="M 24 8 C 21.909808 8 19.924056 8.3960612 18.09375 9.125 C 18.146557 9.1244872 18.197072 9.125 18.25 9.125 C 27.086556 9.125 34.25 16.288444 34.25 25.125 C 34.25 31.871364 30.063798 37.647256 24.15625 40 C 32.919759 39.914896 40 32.783628 40 24 C 40 15.163444 32.836556 8 24 8 z "
       id="path876"
       transform="translate(0,1004.3622)" />
    <path
       style="fill:url(#linearGradient899);fill-opacity:1;stroke:none"
       d="M 8.25 21.25 C 8.0937678 22.147518 8 23.057781 8 24 C 8 32.836556 15.163444 40 24 40 C 32.836556 40 40 32.836556 40 24 C 40 23.057781 39.906232 22.147518 39.75 21.25 C 38.441016 28.769817 31.894337 34.5 24 34.5 C 16.105663 34.5 9.5589843 28.769817 8.25 21.25 z "
       id="path880"
       transform="translate(0,1004.3622)" />
    <path
       id="path927"
       d="m 35.258807,1021.862 c -3.590038,-6.2181 -11.540948,-8.3485 -17.759002,-4.7585 -3.93951,2.2744 -6.223449,6.3097 -6.466305,10.5353 1.024033,-2.7084 2.947053,-5.1044 5.652038,-6.6642 6.218053,-3.59 14.169137,-1.4594 17.759003,4.7585 1.315471,2.2786 1.848155,4.7795 1.707605,7.2236 C 37.483566,1029.4352 37.288093,1025.3767 35.258807,1021.862 Z"
       style="fill:url(#linearGradient933);fill-opacity:1;stroke:none"
       inkscape:connector-curvature="0" />
    <path
       id="path931"
       d="m 19.348843,1016.1621 c -0.69506,0.2547 -1.373689,0.5585 -2.036538,0.9414 -6.218053,3.59 -8.3486495,11.5409 -4.758612,17.7589 3.590038,6.2181 11.540949,8.3485 17.759002,4.7585 0.663108,-0.3827 1.265431,-0.8186 1.833523,-1.2931 -5.823252,2.1339 -12.515119,-0.1448 -15.722205,-5.6998 C 13.216754,1027.073 14.589188,1020.1382 19.348843,1016.1621 Z"
       style="fill:url(#linearGradient937);fill-opacity:1;stroke:none"
       inkscape:connector-curvature="0" />
    <path
       id="path929"
       d="m 35.758807,1021.862 c -0.84925,-1.4709 -1.934755,-2.7073 -3.191124,-3.699 0.02149,0.037 0.04137,0.072 0.06343,0.1099 3.589951,6.218 1.459527,14.169 -4.758613,17.759 -4.747218,2.7408 -10.512211,2.1416 -14.567704,-1.0594 3.620012,6.1319 11.514756,8.217 17.695394,4.6484 C 37.218248,1036.0309 39.348845,1028.08 35.758807,1021.862 Z"
       style="fill:url(#linearGradient935);fill-opacity:1;stroke:none"
       inkscape:connector-curvature="0" />
  </g>
</svg>
