<?xml version="1.0" encoding="UTF-8" standalone="no"?>
<!-- Created with Inkscape (http://www.inkscape.org/) -->

<svg
   xmlns:dc="http://purl.org/dc/elements/1.1/"
   xmlns:cc="http://creativecommons.org/ns#"
   xmlns:rdf="http://www.w3.org/1999/02/22-rdf-syntax-ns#"
   xmlns:svg="http://www.w3.org/2000/svg"
   xmlns="http://www.w3.org/2000/svg"
   xmlns:xlink="http://www.w3.org/1999/xlink"
   xmlns:sodipodi="http://sodipodi.sourceforge.net/DTD/sodipodi-0.dtd"
   xmlns:inkscape="http://www.inkscape.org/namespaces/inkscape"
   width="48"
   height="48"
   id="svg2"
   version="1.1"
   inkscape:version="0.48+devel r12084"
   sodipodi:docname="skype.svg">
  <defs
     id="defs4">
    <linearGradient
       inkscape:collect="always"
       id="linearGradient897">
      <stop
         style="stop-color:#ececec;stop-opacity:1"
         offset="0"
         id="stop899" />
      <stop
         style="stop-color:#ffffff;stop-opacity:1"
         offset="1"
         id="stop901" />
    </linearGradient>
    <linearGradient
       id="linearGradient848">
      <stop
         id="stop850"
         offset="0"
         style="stop-color:#0080b2;stop-opacity:1" />
      <stop
         id="stop852"
         offset="1"
         style="stop-color:#32c7ff;stop-opacity:1" />
    </linearGradient>
    <linearGradient
       inkscape:collect="always"
       xlink:href="#linearGradient848"
       id="linearGradient846"
       x1="104.03048"
       y1="-1048.285"
       x2="104.03048"
       y2="-1000.785"
       gradientUnits="userSpaceOnUse"
       gradientTransform="translate(-78.530479,-3.5771829)" />
    <linearGradient
       inkscape:collect="always"
       xlink:href="#linearGradient897"
       id="linearGradient903"
       x1="287.71722"
       y1="520.68787"
       x2="287.71722"
       y2="-4.3720269"
       gradientUnits="userSpaceOnUse" />
  </defs>
  <sodipodi:namedview
     id="base"
     pagecolor="#ffffff"
     bordercolor="#666666"
     borderopacity="1.0"
     inkscape:pageopacity="0.0"
     inkscape:pageshadow="2"
     inkscape:zoom="2"
     inkscape:cx="-63.516173"
     inkscape:cy="48.103926"
     inkscape:document-units="px"
     inkscape:current-layer="layer1"
     showgrid="false"
     inkscape:window-width="1366"
     inkscape:window-height="718"
     inkscape:window-x="0"
     inkscape:window-y="28"
     inkscape:window-maximized="1">
    <inkscape:grid
       type="xygrid"
       id="grid3850" />
  </sodipodi:namedview>
  <metadata
     id="metadata7">
    <rdf:RDF>
      <cc:Work
         rdf:about="">
        <dc:format>image/svg+xml</dc:format>
        <dc:type
           rdf:resource="http://purl.org/dc/dcmitype/StillImage" />
        <dc:title />
      </cc:Work>
    </rdf:RDF>
  </metadata>
  <g
     inkscape:label="Capa 1"
     inkscape:groupmode="layer"
     id="layer1"
     transform="translate(0,-1004.3622)">
    <rect
       style="fill:url(#linearGradient846);fill-opacity:1;stroke:none"
       id="rect2991-1"
       width="48"
       height="48"
       x="4.3115233e-07"
       y="-1052.3622"
       ry="1.9445436"
       transform="scale(1,-1)" />
    <path
       inkscape:connector-curvature="0"
       style="fill:#000000;fill-opacity:1;stroke:none"
       d="m -1e-6,1049.3622 0,1.0625 c 0,1.0773 0.860223,1.9375 1.9375,1.9375 l 44.125002,0 c 1.07728,0 1.9375,-0.8602 1.9375,-1.9375 l 0,-1.0625 c 0,1.0773 -0.86022,1.9375 -1.9375,1.9375 l -44.125002,0 C 0.860222,1051.2997 -1e-6,1050.4395 -1e-6,1049.3622 Z"
       id="rect846" />
    <path
       inkscape:connector-curvature="0"
       style="fill:#ffffff;fill-opacity:0.5372549;stroke:none"
       d="m 2.531249,1005.0185 c -0.917088,0 -1.671147,0.6395 -1.84375,1.5 0.335612,-0.2799 0.774512,-0.4375 1.25,-0.4375 l 44.125002,0 c 0.47549,0 0.91439,0.1576 1.25,0.4375 -0.1726,-0.8605 -0.92666,-1.5 -1.84375,-1.5 L 2.531249,1005.0185 Z"
       id="path7515" />
    <path
       inkscape:connector-curvature="0"
       style="fill:#000000;fill-opacity:0.39215686;stroke:none"
       d="m 1.937499,1004.3622 c -1.077277,0 -1.9375,0.8602 -1.9375,1.9375 l 0,43.0625 c 0,0.7934 0.480024,1.449 1.15625,1.75 -0.309342,-0.3333 -0.5,-0.7824 -0.5,-1.2812 l 0,-42.9375 c 0,-1.0482 0.826899,-1.875 1.875,-1.875 l 42.937502,0 c 1.0481,0 1.875,0.8268 1.875,1.875 l 0,42.9375 c 0,0.4988 -0.19066,0.9479 -0.5,1.2812 0.67622,-0.301 1.15625,-0.9566 1.15625,-1.75 l 0,-43.0625 c 0,-1.0773 -0.86022,-1.9375 -1.9375,-1.9375 L 1.937499,1004.3622 Z"
       id="rect4280-9" />
    <g
       id="g905"
       transform="translate(0.80897,-0.9922)">
      <path
         inkscape:connector-curvature="0"
         id="path869"
         d="m 16.490564,1013.3544 c -4.572482,0 -8.271814,3.6993 -8.271814,8.2719 0,0.1506 0.021669,0.296 0.029648,0.4446 0.2664777,-4.3321 3.843038,-7.7678 8.242166,-7.7678 1.619517,0 3.141152,0.4715 4.417563,1.275 0.793866,-0.136 1.598837,-0.2076 2.431142,-0.2076 7.734739,0 14.022494,6.1391 14.260726,13.816 0.0059,-0.1673 0.02965,-0.3353 0.02965,-0.504 0,-7.8857 -6.404712,-14.2608 -14.290374,-14.2608 -0.832305,0 -1.637276,0.071 -2.431142,0.2076 C 19.631716,1013.8258 18.110081,1013.3544 16.490564,1013.3544 z m 6.492929,8.4201 c -1.023613,0 -1.872254,0.2179 -2.490439,0.6226 -0.595904,0.3907 -0.859794,0.8339 -0.859794,1.3638 0,0.1775 0.03264,0.3262 0.08894,0.4744 0.126329,-0.3286 0.36365,-0.6225 0.77085,-0.8895 0.618185,-0.4047 1.466826,-0.6226 2.490439,-0.6226 1.102155,0 1.892271,0.1979 2.371846,0.5634 0.494368,0.3757 0.948042,0.8946 1.304515,1.5713 0.307636,0.5292 0.562554,0.9206 0.830146,1.1563 0.286842,0.2542 0.716689,0.3854 1.24522,0.3854 0.581823,0 1.061348,-0.2157 1.452755,-0.6226 0.389031,-0.4032 0.592962,-0.8539 0.592962,-1.3638 0,-0.1709 -0.02834,-0.3599 -0.0593,-0.5337 -0.08128,0.3401 -0.258912,0.6639 -0.533666,0.9488 -0.391407,0.4069 -0.870932,0.6225 -1.452755,0.6225 -0.528531,0 -0.958378,-0.1311 -1.24522,-0.3854 -0.267592,-0.2356 -0.52251,-0.6271 -0.830146,-1.1563 -0.356473,-0.6766 -0.810147,-1.1955 -1.304515,-1.5713 C 24.875764,1021.9724 24.085648,1021.7745 22.983493,1021.7745 z m -7.619556,2.8462 c -0.01352,0.1509 -0.02965,0.2892 -0.02965,0.4447 0,1.1319 0.306134,2.1095 0.91909,2.8759 0.60339,0.756 1.437177,1.3437 2.46079,1.7788 1.001333,0.4262 2.254037,0.8094 3.735658,1.1267 1.088848,0.2282 1.960547,0.4507 2.609031,0.6522 0.623412,0.1942 1.15261,0.4669 1.5417,0.8302 0.254342,0.2386 0.395909,0.5232 0.474369,0.8598 0.03395,-0.1453 0.0593,-0.287 0.0593,-0.4448 0,-0.564 -0.163052,-1.0162 -0.533665,-1.3638 -0.38909,-0.3632 -0.918288,-0.6359 -1.5417,-0.8301 -0.648484,-0.2015 -1.520183,-0.424 -2.609031,-0.6523 -1.481621,-0.3172 -2.734325,-0.7004 -3.735658,-1.1266 -1.023613,-0.4351 -1.8574,-1.0228 -2.46079,-1.7789 C 15.733377,1026.3423 15.443683,1025.5369 15.363937,1024.6207 z m -6.1075043,1.9271 c -0.1067385,0.7029 -0.1778885,1.4021 -0.1778885,2.1347 0,0.1578 0.024565,0.3177 0.029648,0.4744 0.027124,-0.8164 0.1080793,-1.5962 0.2668327,-2.3719 C 9.3314958,1026.7109 9.2977116,1026.6233 9.2564327,1026.5478 z m 28.1656733,5.4849 c -0.03829,0.2269 -0.06982,0.4587 -0.118592,0.6819 0.479777,0.9655 0.761482,2.0389 0.830146,3.1723 0.0082,-0.151 0.02965,-0.2916 0.02965,-0.4446 C 38.163308,1034.2249 37.894496,1033.0737 37.422106,1032.0327 z m -5.781375,0.6522 c -0.06237,1.0346 -0.383685,2.0057 -0.978386,2.8463 -0.659713,0.9354 -1.611394,1.6684 -2.875864,2.1939 -1.251933,0.5204 -2.768344,0.7709 -4.47686,0.7709 -2.050909,0 -3.757941,-0.3558 -5.099469,-1.0674 -0.95915,-0.5187 -1.771427,-1.2088 -2.371846,-2.0753 -0.454727,-0.6565 -0.744868,-1.3185 -0.859794,-1.9568 -0.01806,0.1047 -0.0593,0.215 -0.0593,0.3262 0,0.8376 0.312789,1.704 0.919091,2.5793 0.600419,0.8665 1.412696,1.5566 2.371846,2.0754 1.341528,0.7115 3.04856,1.0673 5.099469,1.0673 1.708516,0 3.224927,-0.2505 4.47686,-0.7708 1.26447,-0.5255 2.216151,-1.2585 2.875864,-2.194 0.663396,-0.9376 1.007856,-2.0263 1.008034,-3.202 C 31.670379,1033.0731 31.657621,1032.8777 31.640731,1032.6849 Z"
         style="fill:#000000;fill-opacity:0.15686275;display:inline" />
      <path
         inkscape:connector-curvature="0"
         id="path880"
         d="m 23.250325,1019.353 c -1.594325,0 -2.995225,0.2142 -4.180379,0.6522 -1.20072,0.444 -2.148773,1.0941 -2.786919,1.9272 -0.643375,0.8383 -0.948738,1.7974 -0.948738,2.8758 0,0.1718 0.01539,0.3403 0.02965,0.5041 0.08029,-0.8964 0.368437,-1.7136 0.91909,-2.4311 0.638146,-0.8331 1.586199,-1.4833 2.786919,-1.9272 1.185154,-0.438 2.586054,-0.6523 4.180379,-0.6523 1.275521,0 2.414015,0.1237 3.350233,0.4151 0.940495,0.2928 1.718905,0.699 2.342198,1.1859 0.627869,0.4907 1.100022,1.0267 1.39346,1.5714 0.201018,0.3739 0.320231,0.7308 0.385425,1.097 0.0338,-0.1415 0.0593,-0.2653 0.0593,-0.4151 0,-0.5307 -0.148255,-1.0791 -0.444721,-1.6306 -0.293438,-0.5447 -0.765591,-1.0807 -1.39346,-1.5714 -0.623293,-0.4869 -1.401703,-0.8932 -2.342198,-1.1859 C 25.66434,1019.4767 24.525846,1019.353 23.250325,1019.353 z m -15.0019269,3.4096 c -0.010501,0.1706 -0.029648,0.3306 -0.029648,0.5039 0,1.4363 0.3936332,2.7956 1.0376827,3.9729 0.036567,-0.2407 0.070171,-0.4749 0.1185923,-0.7116 C 8.7235846,1025.4202 8.3213517,1024.1219 8.2483981,1022.7626 z m 11.4738059,2.1642 c -0.05855,0.1523 -0.08894,0.3067 -0.08894,0.4744 0,0.3253 0.07487,0.596 0.266832,0.8301 0.203071,0.2477 0.498093,0.4715 0.859795,0.6523 0.375068,0.189 0.769383,0.3379 1.156275,0.4448 0.39729,0.1104 1.04438,0.2631 1.956773,0.4743 1.155567,0.2477 2.233215,0.5301 3.172344,0.8302 0.950239,0.3046 1.761686,0.6908 2.431142,1.1266 0.684072,0.4454 1.217134,1.0064 1.600997,1.6899 0.2891,0.5137 0.490437,1.1238 0.563313,1.8086 0.0032,-0.081 0.02964,-0.1558 0.02965,-0.2372 0,-0.9829 -0.207495,-1.8353 -0.592961,-2.5201 -0.383863,-0.6835 -0.916925,-1.2445 -1.600997,-1.6899 -0.669456,-0.4359 -1.480903,-0.822 -2.431142,-1.1267 -0.939129,-0.3 -2.016777,-0.5825 -3.172344,-0.8301 -0.912393,-0.2113 -1.559483,-0.3639 -1.956773,-0.4744 -0.386892,-0.1068 -0.781207,-0.2557 -1.156275,-0.4447 -0.361702,-0.1809 -0.656724,-0.4047 -0.859795,-0.6523 C 19.812917,1025.1763 19.769048,1025.0502 19.722204,1024.9268 z m -10.6140117,4.9216 c -0.00529,0.1595 -0.029648,0.3137 -0.029648,0.4744 0,7.8857 6.3751227,14.2904 14.2607247,14.2904 0.893976,0 1.790749,-0.081 2.638679,-0.2372 1.165252,0.627 2.497873,0.9784 3.913547,0.9784 4.573254,0 8.271813,-3.6988 8.271813,-8.2719 0,-0.17 -0.0195,-0.3364 -0.02965,-0.5039 -0.236754,4.3608 -3.821982,7.8271 -8.242165,7.8271 -1.415674,0 -2.748295,-0.3515 -3.913547,-0.9785 -0.84793,0.1567 -1.744703,0.2372 -2.638679,0.2372 C 15.611521,1043.6644 9.3570595,1037.5158 9.1081923,1029.8484 z m 28.4918027,0.029 c -0.03062,0.8755 -0.115357,1.7504 -0.296481,2.5794 0.04319,0.087 0.07839,0.1782 0.118592,0.2668 0.131085,-0.7766 0.207537,-1.5875 0.207537,-2.4015 C 37.629643,1030.1719 37.604643,1030.0279 37.599995,1029.8781 z m -20.575766,1.6902 c -0.597389,0 -1.091056,0.1653 -1.482404,0.5337 -0.395032,0.3706 -0.62261,0.8405 -0.62261,1.3638 0,0.1896 0.02787,0.3709 0.0593,0.5633 0.07502,-0.3656 0.267039,-0.7003 0.563313,-0.9784 0.391348,-0.3684 0.885015,-0.5337 1.482404,-0.5337 0.490686,0 0.901282,0.1246 1.245219,0.4151 0.328371,0.2787 0.604083,0.713 0.830146,1.2452 0.253513,0.5796 0.538849,1.0674 0.830147,1.4528 0.280188,0.3706 0.70118,0.6752 1.215571,0.9191 0.518133,0.2454 1.18739,0.3558 2.045717,0.3558 1.180758,0 2.177653,-0.2439 2.905512,-0.7412 0.710748,-0.4847 1.037682,-1.0651 1.037682,-1.7789 0,-0.1769 -0.02343,-0.3502 -0.0593,-0.5041 -0.119657,0.5123 -0.424706,0.9567 -0.978386,1.3343 -0.727859,0.4973 -1.724754,0.7411 -2.905512,0.7411 -0.858327,0 -1.527584,-0.1103 -2.045717,-0.3558 -0.514391,-0.2438 -0.935383,-0.5484 -1.215571,-0.919 -0.291298,-0.3855 -0.576634,-0.8732 -0.830147,-1.4528 -0.226063,-0.5323 -0.501775,-0.9666 -0.830146,-1.2452 C 17.925511,1031.6926 17.514915,1031.568 17.024229,1031.568 Z"
         style="fill:#ffffff;fill-opacity:0.19540232;display:inline" />
      <g
         style="fill:#ffffff;fill-opacity:1"
         transform="matrix(0.05941219,0,0,0.05941219,7.9814774,1014.0237)"
         id="7935ec95c421cee6d86eb22ecd12cc09">
        <path
           inkscape:connector-curvature="0"
           style="fill:url(#linearGradient903);fill-opacity:1;display:inline"
           d="m 493.43,310.244 c 3.631,-16.618 5.563,-33.859 5.563,-51.562 0,-132.728 -107.588,-240.317 -240.316,-240.317 -14.009,0 -27.732,1.222 -41.094,3.518 C 196.099,8.359 170.686,0.5 143.427,0.5 66.465,0.5 4.075,62.903 4.075,139.865 c 0,25.725 6.999,49.803 19.163,70.487 -3.194,15.607 -4.878,31.775 -4.878,48.331 0,132.728 107.589,240.316 240.316,240.316 15.047,0 29.742,-1.396 44.014,-4.042 19.613,10.555 42.043,16.543 65.871,16.543 76.975,0 139.365,-62.391 139.365,-139.365 C 507.926,349.903 502.699,328.895 493.43,310.244 Z M 381.922,373.52 c -11.104,15.745 -27.533,28.208 -48.816,37.053 -21.072,8.758 -46.334,13.199 -75.091,13.199 -34.52,0 -63.463,-6.063 -86.043,-18.039 -16.144,-8.733 -29.467,-20.535 -39.573,-35.119 -10.205,-14.733 -15.382,-29.33 -15.382,-43.428 0,-8.808 3.381,-16.442 10.03,-22.681 6.587,-6.2 15.021,-9.331 25.076,-9.331 8.259,0 15.382,2.47 21.171,7.36 5.527,4.69 10.28,11.627 14.085,20.585 4.267,9.756 8.908,17.989 13.811,24.477 4.716,6.238 11.49,11.478 20.148,15.582 8.721,4.13 20.46,6.213 34.907,6.213 19.874,0 36.167,-4.242 48.418,-12.613 11.963,-8.158 17.775,-17.965 17.775,-29.979 0,-9.494 -3.043,-16.941 -9.281,-22.793 -6.549,-6.113 -15.156,-10.879 -25.649,-14.147 -10.915,-3.393 -25.749,-7.073 -44.076,-10.916 -24.938,-5.339 -46.135,-11.677 -62.989,-18.851 -17.229,-7.323 -31.126,-17.49 -41.282,-30.216 -10.317,-12.899 -15.544,-29.105 -15.544,-48.156 0,-18.152 5.489,-34.52 16.318,-48.63 10.741,-14.022 26.436,-24.914 46.646,-32.386 19.948,-7.373 43.665,-11.116 70.5,-11.116 21.469,0 40.332,2.482 56.09,7.385 15.83,4.928 29.193,11.59 39.684,19.786 10.568,8.259 18.428,17.092 23.367,26.261 4.99,9.282 7.512,18.489 7.512,27.421 0,8.583 -3.307,16.393 -9.855,23.18 -6.588,6.849 -14.885,10.33 -24.678,10.33 -8.896,0 -15.869,-2.183 -20.697,-6.462 -4.504,-3.967 -9.17,-10.18 -14.348,-19.087 -6,-11.39 -13.248,-20.36 -21.569,-26.685 -8.072,-6.151 -21.571,-9.27 -40.122,-9.27 -17.229,0 -31.226,3.468 -41.631,10.28 -10.03,6.575 -14.896,14.123 -14.896,23.042 0,5.477 1.56,10.043 4.791,13.985 3.418,4.167 8.234,7.834 14.322,10.878 6.313,3.181 12.825,5.701 19.337,7.498 6.687,1.859 17.902,4.603 33.259,8.159 19.45,4.167 37.327,8.846 53.134,13.898 15.994,5.127 29.828,11.439 41.096,18.775 11.514,7.498 20.635,17.116 27.096,28.619 6.488,11.527 9.768,25.774 9.768,42.317 C 398.738,339.687 393.088,357.738 381.922,373.52 Z"
           id="path857" />
      </g>
    </g>
  </g>
</svg>
