<?xml version="1.0" encoding="UTF-8" standalone="no"?>
<!-- Created with Inkscape (http://www.inkscape.org/) -->

<svg
   xmlns:dc="http://purl.org/dc/elements/1.1/"
   xmlns:cc="http://creativecommons.org/ns#"
   xmlns:rdf="http://www.w3.org/1999/02/22-rdf-syntax-ns#"
   xmlns:svg="http://www.w3.org/2000/svg"
   xmlns="http://www.w3.org/2000/svg"
   xmlns:xlink="http://www.w3.org/1999/xlink"
   xmlns:sodipodi="http://sodipodi.sourceforge.net/DTD/sodipodi-0.dtd"
   xmlns:inkscape="http://www.inkscape.org/namespaces/inkscape"
   width="48"
   height="48"
   id="svg2"
   version="1.1"
   inkscape:version="0.48+devel r12149"
   sodipodi:docname="spotify.svg">
  <defs
     id="defs4">
    <linearGradient
       inkscape:collect="always"
       id="linearGradient868">
      <stop
         style="stop-color:#5d970a;stop-opacity:1"
         offset="0"
         id="stop870" />
      <stop
         style="stop-color:#cde26a;stop-opacity:1"
         offset="1"
         id="stop872" />
    </linearGradient>
    <linearGradient
       inkscape:collect="always"
       xlink:href="#linearGradient868"
       id="linearGradient874"
       x1="-48.864655"
       y1="-1053.1545"
       x2="-48.864655"
       y2="-1005.6106"
       gradientUnits="userSpaceOnUse"
       gradientTransform="translate(71.808121,0.7562541)" />
  </defs>
  <sodipodi:namedview
     id="base"
     pagecolor="#ffffff"
     bordercolor="#666666"
     borderopacity="1.0"
     inkscape:pageopacity="0.0"
     inkscape:pageshadow="2"
     inkscape:zoom="8"
     inkscape:cx="36.088807"
     inkscape:cy="36.184252"
     inkscape:document-units="px"
     inkscape:current-layer="layer1"
     showgrid="false"
     inkscape:window-width="1366"
     inkscape:window-height="716"
     inkscape:window-x="0"
     inkscape:window-y="28"
     inkscape:window-maximized="1">
    <inkscape:grid
       type="xygrid"
       id="grid3850"
       empspacing="5"
       visible="true"
       enabled="true"
       snapvisiblegridlinesonly="true" />
  </sodipodi:namedview>
  <metadata
     id="metadata7">
    <rdf:RDF>
      <cc:Work
         rdf:about="">
        <dc:format>image/svg+xml</dc:format>
        <dc:type
           rdf:resource="http://purl.org/dc/dcmitype/StillImage" />
        <dc:title />
      </cc:Work>
    </rdf:RDF>
  </metadata>
  <g
     inkscape:label="Capa 1"
     inkscape:groupmode="layer"
     id="layer1"
     transform="translate(0,-1004.3622)">
    <rect
       style="fill:url(#linearGradient874);fill-opacity:1;stroke:none"
       id="rect2991-1"
       width="48"
       height="48"
       x="6.3623048e-07"
       y="-1052.3622"
       ry="1.9445436"
       transform="scale(1,-1)" />
    <path
       inkscape:connector-curvature="0"
       style="fill:#ffffff;fill-opacity:0.5372549;stroke:none"
       d="m 2.5312494,1005.0185 c -0.917089,0 -1.67114704,0.6395 -1.84375004,1.5 0.33561204,-0.2799 0.77451204,-0.4375 1.25000004,-0.4375 l 44.1249996,0 c 0.475488,0 0.914388,0.1576 1.25,0.4375 -0.172603,-0.8605 -0.926662,-1.5 -1.84375,-1.5 L 2.5312494,1005.0185 Z"
       id="path7515" />
    <path
       inkscape:connector-curvature="0"
       style="fill:#000000;fill-opacity:0.39215686;stroke:none"
       d="m 1.9374994,1004.3622 c -1.07727704,0 -1.93750003623047,0.8602 -1.93750003623047,1.9375 l 0,43.0625 c 0,0.7934 0.48002399623047,1.449 1.15625003623047,1.75 -0.30934204,-0.3333 -0.50000004,-0.7824 -0.50000004,-1.2812 l 0,-42.9375 c 0,-1.0482 0.82689904,-1.875 1.87500004,-1.875 l 42.9374996,0 c 1.048101,0 1.875,0.8268 1.875,1.875 l 0,42.9375 c 0,0.4988 -0.190658,0.9479 -0.5,1.2812 0.676226,-0.301 1.15625,-0.9566 1.15625,-1.75 l 0,-43.0625 c 0,-1.0773 -0.860223,-1.9375 -1.9375,-1.9375 L 1.9374994,1004.3622 Z"
       id="rect4280-9" />
    <path
       style="fill:#000000;fill-opacity:0.53738619"
       d="m 21.891843,1043.1309 c -6.827445,-0.099 -12.1263188,3.1625 -14.9589817,9.1756 0.1384128,0.036 0.2673042,0.055 0.4170719,0.055 l 7.8409528,0 c 0.303228,-0.3947 0.615877,-0.7549 0.973168,-1.1121 1.802144,-1.7795 2.637907,-2.1688 5.088278,-2.1688 l 0,-0.028 c 3.431377,0 5.816434,1.0483 7.396076,3.3087 l 7.952172,0 C 33.989833,1046.5511 28.68694,1043.2261 21.891843,1043.1309 Z"
       id="rect2974"
       inkscape:connector-curvature="0"
       sodipodi:nodetypes="ccsccccccc" />
    <path
       style="fill:#000000;fill-opacity:0.53725493"
       d="m 21.886783,1043.118 c -6.827444,-0.099 -12.1095539,3.1704 -14.9422168,9.1836 0.064006,0.017 0.1189128,0.021 0.1818525,0.03 2.8755543,-5.7651 8.0813753,-8.8868 14.7603643,-8.7895 6.638852,0.093 11.84684,3.255 14.517894,8.8198 l 0.181852,0 C 33.975782,1046.5517 28.68188,1043.2133 21.886783,1043.118 Z"
       id="path893"
       inkscape:connector-curvature="0" />
    <path
       style="fill:#ffffff;fill-opacity:0.35294119"
       d="m 21.250299,1049.0585 0,0.03 c -2.450371,0 -3.289727,0.3724 -5.091871,2.1519 -0.357291,0.3572 -0.666652,0.7267 -0.96988,1.1214 l 0.212161,0 c 0.2358,-0.2932 0.484568,-0.5756 0.757719,-0.8486 1.802144,-1.7795 2.6415,-2.152 5.091871,-2.152 l 0,-0.03 c 3.285075,0 5.60477,0.9659 7.183175,3.0309 l 0.212161,0 C 27.065993,1050.1021 24.681676,1049.0585 21.250299,1049.0585 z m -14.1844978,3.2734 c -0.00403,0.01 0.00405,0.022 0,0.03 l 0.2727788,0 C 7.2355606,1052.3622 7.1589586,1052.3493 7.0658012,1052.3319 Z"
       id="path898"
       inkscape:connector-curvature="0" />
    <path
       inkscape:connector-curvature="0"
       style="fill:#000000;fill-opacity:1;stroke:none"
       d="m -6.3623047e-7,1049.3622 0,1.0625 c 0,1.0773 0.86022299623047,1.9375 1.93750003623047,1.9375 l 44.1249996,0 c 1.077277,0 1.9375,-0.8602 1.9375,-1.9375 l 0,-1.0625 c 0,1.0773 -0.860223,1.9375 -1.9375,1.9375 l -44.1249996,0 C 0.86022236,1051.2997 -6.3623047e-7,1050.4395 -6.3623047e-7,1049.3622 Z"
       id="rect846" />
    <path
       style="fill:#000000;fill-opacity:0.45188284"
       d="M 22.4375 16 C 17.911948 16.01 12.92344 16.62285 11.125 17.53125 C 10.038177 18.08045 9.7137853 19.4103 10.40625 20.4375 C 11.09331 21.4571 11.773327 21.5804 13.71875 21.0625 C 16.577969 20.3024 21.075045 19.9694 24.65625 20.25 C 29.842743 20.6559 33.960984 21.7335 37.40625 23.5625 C 38.013672 23.8851 38.699033 24.125 38.9375 24.125 C 39.946422 24.125 41.0625 23.0468 41.0625 22.0625 C 41.0625 21.3372 40.557366 20.60955 39.71875 20.09375 C 36.837038 18.32055 31.674391 16.78375 26.6875 16.21875 C 25.419668 16.07475 23.946019 15.9975 22.4375 16 z M 21.34375 24.15625 C 19.61716 24.16625 17.904481 24.30465 16.1875 24.59375 C 13.324818 25.07625 12.201123 25.47405 11.8125 26.09375 C 11.180905 27.10035 11.72185 28.50795 12.84375 28.71875 C 13.138067 28.77275 13.905459 28.66615 14.65625 28.46875 C 20.91106 26.82955 28.604677 27.71735 34.375 30.71875 C 35.250738 31.17405 36.069285 31.53125 36.1875 31.53125 C 37.066391 31.53125 38.001618 30.59105 38 29.71875 C 37.9988 28.83275 37.447732 28.3359 35.21875 27.25 C 32.667875 26.0074 30.755999 25.37965 28.09375 24.84375 C 25.814728 24.38505 23.563645 24.14705 21.34375 24.15625 z M 21.625 31.25 C 19.553859 31.26 17.403787 31.4561 15.21875 31.875 C 13.415308 32.2208 12.723301 32.48715 12.5625 32.90625 C 12.342139 33.48075 12.463513 34.1508 12.875 34.5625 C 13.342592 35.0303 13.632282 35.01555 16.28125 34.53125 C 22.067227 33.47265 27.543399 34.12 31.875 36.375 C 32.708967 36.8091 33.6413 37.179 33.9375 37.1875 C 35.073332 37.2225 35.690033 35.7786 34.90625 34.9375 C 34.39954 34.3934 30.880684 32.7368 29.1875 32.25 C 26.818189 31.5693 24.287893 31.2462 21.625 31.25 z "
       transform="translate(0,1004.3622)"
       id="path937" />
    <path
       style="fill:#000000;fill-opacity:0.53725493"
       d="M 22.4375 16 C 17.911948 16.01 12.92344 16.62285 11.125 17.53125 C 10.320271 17.9379 9.9279341 18.770877 10.0625 19.59375 C 10.14195 18.977617 10.508558 18.405254 11.125 18.09375 C 12.92344 17.18535 17.911948 16.5725 22.4375 16.5625 C 23.946019 16.56 25.419668 16.63725 26.6875 16.78125 C 31.674391 17.34625 36.837038 18.88305 39.71875 20.65625 C 40.445504 21.103248 40.885863 21.717947 41 22.34375 C 41.018938 22.249952 41.0625 22.155609 41.0625 22.0625 C 41.0625 21.3372 40.557366 20.60955 39.71875 20.09375 C 36.837038 18.32055 31.674391 16.78375 26.6875 16.21875 C 25.419668 16.07475 23.946019 15.9975 22.4375 16 z M 21.34375 24.15625 C 19.61716 24.16625 17.904481 24.30465 16.1875 24.59375 C 13.324818 25.07625 12.201123 25.47405 11.8125 26.09375 C 11.56412 26.489604 11.484187 26.95229 11.5625 27.375 C 11.593669 27.129692 11.672399 26.879535 11.8125 26.65625 C 12.201123 26.03655 13.324818 25.63875 16.1875 25.15625 C 17.904481 24.86715 19.61716 24.72875 21.34375 24.71875 C 23.563645 24.70955 25.814728 24.94755 28.09375 25.40625 C 30.755999 25.94215 32.667875 26.5699 35.21875 27.8125 C 37.169109 28.762662 37.831994 29.265262 37.96875 29.96875 C 37.98343 29.888841 38.000148 29.798294 38 29.71875 C 37.9988 28.83275 37.447732 28.3359 35.21875 27.25 C 32.667875 26.0074 30.755999 25.37965 28.09375 24.84375 C 25.814728 24.38505 23.563645 24.14705 21.34375 24.15625 z M 21.625 31.25 C 19.553859 31.26 17.403787 31.4561 15.21875 31.875 C 13.415308 32.2208 12.723301 32.48715 12.5625 32.90625 C 12.447583 33.205848 12.436365 33.511123 12.5 33.8125 C 12.517359 33.695753 12.519503 33.580848 12.5625 33.46875 C 12.723301 33.04965 13.415308 32.7833 15.21875 32.4375 C 17.403787 32.0186 19.553859 31.8225 21.625 31.8125 C 24.287893 31.8087 26.818189 32.1315 29.1875 32.8125 C 30.880684 33.2993 34.39954 34.9559 34.90625 35.5 C 35.077703 35.683991 35.172103 35.90511 35.21875 36.125 C 35.304163 35.72342 35.225142 35.279712 34.90625 34.9375 C 34.39954 34.3934 30.880684 32.7368 29.1875 32.25 C 26.818189 31.5693 24.287893 31.2462 21.625 31.25 z "
       transform="translate(0,1004.3622)"
       id="path940" />
    <path
       style="fill:#ffffff;fill-opacity:0.35294119"
       d="m 10.0625,1023.9012 c -0.05209,0.4613 0.05055,0.9402 0.34375,1.375 0.68706,1.0197 1.367077,1.143 3.3125,0.625 2.859219,-0.76 7.356295,-1.0931 10.9375,-0.8125 5.186493,0.4059 9.304734,1.4836 12.75,3.3125 0.607422,0.3226 1.292783,0.5625 1.53125,0.5625 1.008922,0 2.125,-1.0781 2.125,-2.0625 0,-0.074 -0.02085,-0.1447 -0.03125,-0.2186 -0.161777,0.9097 -1.168337,1.8125 -2.09375,1.8125 -0.238467,0 -0.923828,-0.2399 -1.53125,-0.5625 -3.445266,-1.829 -7.563507,-2.9066 -12.75,-3.3125 -3.581205,-0.2806 -8.078281,0.052 -10.9375,0.8125 -1.945423,0.5179 -2.62544,0.3946 -3.3125,-0.625 C 10.213276,1024.5213 10.103041,1024.211 10.0625,1023.9012 z m 1.5,7.8439 c -0.06172,0.8304 0.439825,1.6543 1.28125,1.8125 0.294317,0.054 1.061709,-0.053 1.8125,-0.25 6.25481,-1.6392 13.948427,-0.7515 19.71875,2.25 0.875738,0.4553 1.694285,0.8125 1.8125,0.8125 0.878891,0 1.814118,-0.9402 1.8125,-1.8125 -1.05e-4,-0.078 -0.02189,-0.1464 -0.03125,-0.2189 -0.146303,0.7964 -0.982504,1.5625 -1.78125,1.5625 -0.118215,0 -0.936762,-0.3571 -1.8125,-0.8125 -5.770323,-3.0014 -13.46394,-3.8892 -19.71875,-2.25 -0.750791,0.197 -1.518183,0.3041 -1.8125,0.25 C 12.163047,1032.9609 11.683325,1032.3972 11.5625,1031.7451 z m 0.90625,6.4375 c -0.03954,0.4501 0.09764,0.9099 0.40625,1.2186 0.467592,0.4678 0.757282,0.4531 3.40625,-0.031 5.785977,-1.0587 11.262149,-0.4113 15.59375,1.8436 0.833967,0.4341 1.7663,0.8041 2.0625,0.8125 0.862522,0.027 1.434631,-0.795 1.3125,-1.5625 -0.11155,0.6011 -0.624876,1.115 -1.3125,1.0939 -0.2962,-0.01 -1.228533,-0.3785 -2.0625,-0.8125 -4.331601,-2.2551 -9.807773,-2.9024 -15.59375,-1.8439 -2.648968,0.484 -2.938658,0.4991 -3.40625,0.031 C 12.675772,1038.7332 12.526105,1038.4628 12.46875,1038.1826 Z"
       id="path945"
       inkscape:connector-curvature="0" />
  </g>
</svg>
