<?xml version="1.0" encoding="UTF-8" standalone="no"?>
<!-- Created with Inkscape (http://www.inkscape.org/) -->

<svg
   xmlns:dc="http://purl.org/dc/elements/1.1/"
   xmlns:cc="http://creativecommons.org/ns#"
   xmlns:rdf="http://www.w3.org/1999/02/22-rdf-syntax-ns#"
   xmlns:svg="http://www.w3.org/2000/svg"
   xmlns="http://www.w3.org/2000/svg"
   xmlns:xlink="http://www.w3.org/1999/xlink"
   xmlns:sodipodi="http://sodipodi.sourceforge.net/DTD/sodipodi-0.dtd"
   xmlns:inkscape="http://www.inkscape.org/namespaces/inkscape"
   width="48"
   height="48"
   id="svg2"
   version="1.1"
   inkscape:version="0.48+devel r12149"
   sodipodi:docname="steam.svg">
  <defs
     id="defs4">
    <linearGradient
       inkscape:collect="always"
       id="linearGradient829">
      <stop
         style="stop-color:#000000;stop-opacity:1"
         offset="0"
         id="stop831" />
      <stop
         style="stop-color:#333333;stop-opacity:1"
         offset="1"
         id="stop833" />
    </linearGradient>
    <linearGradient
       inkscape:collect="always"
       xlink:href="#linearGradient829"
       id="linearGradient835"
       x1="-31.112698"
       y1="-1050.9148"
       x2="-31.112698"
       y2="-1002.9058"
       gradientUnits="userSpaceOnUse"
       gradientTransform="translate(55.996581,-1.455814)" />
  </defs>
  <sodipodi:namedview
     id="base"
     pagecolor="#ffffff"
     bordercolor="#666666"
     borderopacity="1.0"
     inkscape:pageopacity="0.0"
     inkscape:pageshadow="2"
     inkscape:zoom="2.8284271"
     inkscape:cx="25.892266"
     inkscape:cy="23.577726"
     inkscape:document-units="px"
     inkscape:current-layer="layer1"
     showgrid="false"
     inkscape:window-width="1366"
     inkscape:window-height="716"
     inkscape:window-x="0"
     inkscape:window-y="28"
     inkscape:window-maximized="1">
    <inkscape:grid
       type="xygrid"
       id="grid3850" />
  </sodipodi:namedview>
  <metadata
     id="metadata7">
    <rdf:RDF>
      <cc:Work
         rdf:about="">
        <dc:format>image/svg+xml</dc:format>
        <dc:type
           rdf:resource="http://purl.org/dc/dcmitype/StillImage" />
        <dc:title />
      </cc:Work>
    </rdf:RDF>
  </metadata>
  <g
     inkscape:label="Capa 1"
     inkscape:groupmode="layer"
     id="layer1"
     transform="translate(0,-1004.3622)">
    <rect
       style="fill:url(#linearGradient835);fill-opacity:1;stroke:none"
       id="rect2991-1"
       width="48"
       height="48"
       x="-8.65625e-07"
       y="-1052.3622"
       ry="1.9445436"
       transform="scale(1,-1)" />
    <path
       inkscape:connector-curvature="0"
       style="fill:#000000;fill-opacity:1;stroke:none"
       d="m 1.165625e-6,1049.3622 0,1.0625 c 0,1.0773 0.860222004375,1.9375 1.937499034375,1.9375 l 44.1250008,0 c 1.077277,0 1.9375,-0.8602 1.9375,-1.9375 l 0,-1.0625 c 0,1.0773 -0.860223,1.9375 -1.9375,1.9375 l -44.1250008,0 C 0.86022317,1051.2997 1.165625e-6,1050.4395 1.165625e-6,1049.3622 Z"
       id="rect846" />
    <path
       inkscape:connector-curvature="0"
       style="fill:#ffffff;fill-opacity:0.5372549;stroke:none"
       d="m 2.5312502,1005.0185 c -0.917088,0 -1.67114603,0.6395 -1.84374903,1.5 0.33561203,-0.2799 0.77451203,-0.4375 1.24999903,-0.4375 l 44.1250008,0 c 0.475488,0 0.914388,0.1576 1.25,0.4375 -0.172603,-0.8605 -0.926662,-1.5 -1.84375,-1.5 L 2.5312502,1005.0185 Z"
       id="path7515" />
    <path
       style="color:#000000;fill:#ffffff;fill-opacity:1;fill-rule:nonzero;stroke:none;stroke-width:1.5;marker:none;visibility:visible;display:inline;overflow:visible;enable-background:accumulate"
       d="m 34.800405,1012.3661 c -0.58322,-0.017 -1.183802,0.02 -1.780631,0.125 -4.601473,0.806 -7.686844,5.0796 -7.153764,9.6841 l -4.810828,8.8407 c -0.09916,0.01 -0.182094,0.049 -0.281152,0.062 -1.184704,0.2122 -2.229121,0.7174 -3.092675,1.437 L 0,1027.111 l 0,7.9347 15.650811,4.8421 c 1.066447,3.0339 4.211088,4.9451 7.466155,4.3735 3.477695,-0.6106 5.813026,-3.8312 5.435611,-7.31 l 7.185003,-6.9975 c 0.129345,-0.013 0.248707,-0.018 0.374869,-0.062 4.77477,-0.8367 7.933792,-5.4165 7.091286,-10.2152 C 42.466409,1015.4745 38.882944,1012.4855 34.800405,1012.3661 z m -0.656022,2.7803 c 0.200404,-0.01 0.425218,-0.01 0.624783,0 2.793897,0.081 5.24322,2.0912 5.748002,4.967 0.576969,3.2867 -1.604438,6.4239 -4.873306,6.9976 -3.268798,0.5743 -6.38943,-1.6181 -6.966329,-4.9045 -0.577174,-3.2884 1.604375,-6.4239 4.873307,-6.9976 C 33.75514,1015.173 33.94398,1015.1559 34.144383,1015.1464 z m 0.562305,1.5932 c -0.29274,-0.01 -0.606295,0.014 -0.905935,0.062 -2.397891,0.4159 -3.984306,2.7445 -3.561263,5.1544 0.42322,2.4103 2.694875,4.0139 5.091981,3.5925 2.397617,-0.4181 4.015607,-2.7131 3.592501,-5.1232 C 38.553806,1018.3181 36.755865,1016.8012 34.706688,1016.7396 z m -12.651853,15.5883 c 2.458197,0.074 4.648345,1.9087 5.09198,4.436 0.50697,2.8883 -1.407019,5.6506 -4.279762,6.1541 -2.220116,0.3879 -4.348101,-0.6895 -5.435611,-2.5304 l 3.405066,0.9372 c 1.929313,0.5458 4.175388,-0.6937 4.717111,-2.6241 0.541723,-1.9304 -0.723743,-4.1794 -2.655327,-4.7171 l -3.498784,-0.9996 c 0.491605,-0.2722 1.0399,-0.4603 1.624435,-0.5624 C 21.383027,1032.3587 21.703657,1032.3174 22.054835,1032.3279 Z"
       id="path3907"
       inkscape:connector-curvature="0" />
    <path
       inkscape:connector-curvature="0"
       style="fill:#000000;fill-opacity:0.39215686;stroke:none"
       d="m 1.9375002,1004.3622 c -1.07727603,0 -1.937499034375,0.8602 -1.937499034375,1.9375 l 0,43.0625 c 0,0.7934 0.480023004375,1.449 1.156249034375,1.75 -0.30934103,-0.3333 -0.49999903,-0.7824 -0.49999903,-1.2812 l 0,-42.9375 c 0,-1.0482 0.82689803,-1.875 1.87499903,-1.875 l 42.9375008,0 c 1.048101,0 1.875,0.8268 1.875,1.875 l 0,42.9375 c 0,0.4988 -0.190658,0.9479 -0.5,1.2812 0.676226,-0.301 1.15625,-0.9566 1.15625,-1.75 l 0,-43.0625 c 0,-1.0773 -0.860223,-1.9375 -1.9375,-1.9375 L 1.9375002,1004.3622 Z"
       id="rect4280" />
  </g>
</svg>
