<?xml version="1.0" encoding="UTF-8" standalone="no"?>
<!-- Created with Inkscape (http://www.inkscape.org/) -->

<svg
   xmlns:dc="http://purl.org/dc/elements/1.1/"
   xmlns:cc="http://creativecommons.org/ns#"
   xmlns:rdf="http://www.w3.org/1999/02/22-rdf-syntax-ns#"
   xmlns:svg="http://www.w3.org/2000/svg"
   xmlns="http://www.w3.org/2000/svg"
   xmlns:xlink="http://www.w3.org/1999/xlink"
   xmlns:sodipodi="http://sodipodi.sourceforge.net/DTD/sodipodi-0.dtd"
   xmlns:inkscape="http://www.inkscape.org/namespaces/inkscape"
   width="48"
   height="48"
   id="svg2"
   version="1.1"
   inkscape:version="0.48+devel r12114"
   sodipodi:docname="config-users.svg">
  <defs
     id="defs4">
    <linearGradient
       inkscape:collect="always"
       id="linearGradient884">
      <stop
         style="stop-color:#dadada;stop-opacity:1"
         offset="0"
         id="stop886" />
      <stop
         style="stop-color:#ffffff;stop-opacity:1"
         offset="1"
         id="stop889" />
    </linearGradient>
    <linearGradient
       inkscape:collect="always"
       id="linearGradient864">
      <stop
         style="stop-color:#48413d;stop-opacity:1"
         offset="0"
         id="stop866" />
      <stop
         style="stop-color:#544e4a;stop-opacity:1"
         offset="1"
         id="stop868" />
    </linearGradient>
    <linearGradient
       inkscape:collect="always"
       xlink:href="#linearGradient864"
       id="linearGradient870"
       x1="20.249998"
       y1="-1053.3622"
       x2="20.249998"
       y2="-1004.1122"
       gradientUnits="userSpaceOnUse" />
    <linearGradient
       inkscape:collect="always"
       xlink:href="#linearGradient884"
       id="linearGradient891"
       x1="22.999998"
       y1="1044.6122"
       x2="22.999998"
       y2="1012.3622"
       gradientUnits="userSpaceOnUse"
       gradientTransform="matrix(0.94938868,0,0,0.94938868,1.2146717,51.236986)" />
  </defs>
  <sodipodi:namedview
     id="base"
     pagecolor="#ffffff"
     bordercolor="#666666"
     borderopacity="1.0"
     inkscape:pageopacity="0.0"
     inkscape:pageshadow="2"
     inkscape:zoom="5.6568546"
     inkscape:cx="20.728219"
     inkscape:cy="18.203881"
     inkscape:document-units="px"
     inkscape:current-layer="layer1"
     showgrid="false"
     inkscape:window-width="1366"
     inkscape:window-height="718"
     inkscape:window-x="0"
     inkscape:window-y="28"
     inkscape:window-maximized="1"
     showguides="false">
    <inkscape:grid
       type="xygrid"
       id="grid3850" />
  </sodipodi:namedview>
  <metadata
     id="metadata7">
    <rdf:RDF>
      <cc:Work
         rdf:about="">
        <dc:format>image/svg+xml</dc:format>
        <dc:type
           rdf:resource="http://purl.org/dc/dcmitype/StillImage" />
        <dc:title />
      </cc:Work>
    </rdf:RDF>
  </metadata>
  <g
     inkscape:label="Capa 1"
     inkscape:groupmode="layer"
     id="layer1"
     transform="translate(0,-1004.3622)">
    <rect
       style="fill:url(#linearGradient870);fill-opacity:1;stroke:none"
       id="rect2991-1"
       width="48"
       height="48"
       x="2.3162841e-08"
       y="-1052.3622"
       ry="1.9445436"
       transform="scale(1,-1)" />
    <path
       inkscape:connector-curvature="0"
       style="fill:#000000;fill-opacity:1;stroke:none"
       d="m -2.3162843e-8,1049.3622 0,1.0625 c 0,1.0773 0.860222903162843,1.9375 1.937499923162843,1.9375 l 44.1250001,0 c 1.077277,0 1.9375,-0.8602 1.9375,-1.9375 l 0,-1.0625 c 0,1.0773 -0.860223,1.9375 -1.9375,1.9375 l -44.1250001,0 C 0.86022288,1051.2997 -2.3162843e-8,1050.4395 -2.3162843e-8,1049.3622 Z"
       id="rect846" />
    <path
       inkscape:connector-curvature="0"
       style="fill:#ffffff;fill-opacity:0.5372549;stroke:none"
       d="m 2.5312499,1005.0185 c -0.9170884,0 -1.67114672,0.6395 -1.84374992,1.5 0.33561202,-0.2799 0.77451212,-0.4375 1.24999992,-0.4375 l 44.1250001,0 c 0.475488,0 0.914388,0.1576 1.25,0.4375 -0.172603,-0.8605 -0.926662,-1.5 -1.84375,-1.5 L 2.5312499,1005.0185 Z"
       id="path7515" />
    <path
       inkscape:connector-curvature="0"
       style="fill:#000000;fill-opacity:0.39215686;stroke:none"
       d="m 1.9374999,1004.3622 c -1.07727692,0 -1.937499923162843,0.8602 -1.937499923162843,1.9375 l 0,43.0625 c 0,0.7934 0.480023603162843,1.449 1.156249923162843,1.75 -0.30934162,-0.3333 -0.49999992,-0.7824 -0.49999992,-1.2812 l 0,-42.9375 c 0,-1.0482 0.82689892,-1.875 1.87499992,-1.875 l 42.9375001,0 c 1.048101,0 1.875,0.8268 1.875,1.875 l 0,42.9375 c 0,0.4988 -0.190658,0.9479 -0.5,1.2812 0.676226,-0.301 1.15625,-0.9566 1.15625,-1.75 l 0,-43.0625 c 0,-1.0773 -0.860223,-1.9375 -1.9375,-1.9375 L 1.9374999,1004.3622 Z"
       id="rect4280" />
    <g
       id="g825">
      <path
         inkscape:connector-curvature="0"
         id="rect3973"
         d="m 24.000005,1012.3622 c -3.352594,0 -6.046108,2.693 -6.046108,6.0459 0,3.353 2.693514,6.0956 6.046108,6.0956 3.352585,0 6.046098,-2.7426 6.046098,-6.0956 C 30.046103,1015.0552 27.35259,1012.3622 24.000005,1012.3622 z m -5.596397,14.9398 c -2.879386,0 -5.196654,2.3179 -5.196654,5.1973 l 0,2.3978 0,1.05 0,6.7955 21.586093,0 0,-6.7955 0,-1.05 0,-2.3978 c 0,-2.8794 -2.317268,-5.1973 -5.196645,-5.1973 L 18.403608,1027.302 Z"
         style="color:#000000;fill:url(#linearGradient891);fill-opacity:1;fill-rule:nonzero;stroke:none;stroke-width:1.39999998;marker:none;visibility:visible;display:inline;overflow:visible;enable-background:accumulate" />
      <g
         transform="matrix(0.94938868,0,0,0.94938868,1.2146717,51.236986)"
         id="g905">
        <path
           style="color:#000000;fill:#000000;fill-opacity:0.45116278;fill-rule:nonzero;stroke:none;stroke-width:1.39999998;marker:none;visibility:visible;display:inline;overflow:visible;enable-background:accumulate"
           d="m 17.65625,1019.1286 c -0.0079,0.063 -0.03125,0.1239 -0.03125,0.1875 0,3.5317 2.843681,6.4063 6.375,6.4063 3.531309,0 6.375,-2.8746 6.375,-6.4063 0,-0.064 -0.02339,-0.1247 -0.03125,-0.1875 -0.193526,3.3573 -2.938773,6.0313 -6.34375,6.0313 C 20.595014,1025.1599 17.849775,1022.4859 17.65625,1019.1286 z m -5.03125,25.25 0,0.5625 22.75,0 0,-0.5625 L 12.625,1044.3786 Z"
           id="path893"
           inkscape:connector-curvature="0" />
        <path
           inkscape:connector-curvature="0"
           id="path901"
           d="m 17.65625,1019.6866 c -0.0079,0.063 -0.03125,0.1239 -0.03125,0.1875 0,3.5317 2.843681,6.4063 6.375,6.4063 3.531309,0 6.375,-2.8746 6.375,-6.4063 0,-0.064 -0.02339,-0.1247 -0.03125,-0.1875 -0.193526,3.3573 -2.938773,6.0313 -6.34375,6.0313 C 20.595014,1025.7179 17.849775,1023.0439 17.65625,1019.6866 z m -5.03125,25.25 0,0.5625 22.75,0 0,-0.5625 L 12.625,1044.9366 Z"
           style="color:#000000;fill:#000000;fill-opacity:0.18139535;fill-rule:nonzero;stroke:none;stroke-width:1.39999998;marker:none;visibility:visible;display:inline;overflow:visible;enable-background:accumulate" />
        <path
           style="color:#000000;fill:#000000;fill-opacity:0.08837208;fill-rule:nonzero;stroke:none;stroke-width:1.39999998;marker:none;visibility:visible;display:inline;overflow:visible;enable-background:accumulate"
           d="m 17.65625,1020.2556 c -0.0079,0.063 -0.03125,0.1239 -0.03125,0.1875 0,3.5317 2.843681,6.4063 6.375,6.4063 3.531309,0 6.375,-2.8746 6.375,-6.4063 0,-0.064 -0.02339,-0.1247 -0.03125,-0.1875 -0.193526,3.3573 -2.938773,6.0313 -6.34375,6.0313 C 20.595014,1026.2869 17.849775,1023.6129 17.65625,1020.2556 z m -5.03125,25.25 0,0.5625 22.75,0 0,-0.5625 L 12.625,1045.5056 Z"
           id="path903"
           inkscape:connector-curvature="0" />
      </g>
    </g>
  </g>
</svg>
