<?xml version="1.0" encoding="UTF-8" standalone="no"?>
<!-- Created with Inkscape (http://www.inkscape.org/) -->

<svg
   xmlns:dc="http://purl.org/dc/elements/1.1/"
   xmlns:cc="http://creativecommons.org/ns#"
   xmlns:rdf="http://www.w3.org/1999/02/22-rdf-syntax-ns#"
   xmlns:svg="http://www.w3.org/2000/svg"
   xmlns="http://www.w3.org/2000/svg"
   xmlns:xlink="http://www.w3.org/1999/xlink"
   xmlns:sodipodi="http://sodipodi.sourceforge.net/DTD/sodipodi-0.dtd"
   xmlns:inkscape="http://www.inkscape.org/namespaces/inkscape"
   width="48"
   height="48"
   id="svg2"
   version="1.1"
   inkscape:version="0.48+devel r12130"
   sodipodi:docname="system-hibernate.svg">
  <defs
     id="defs4">
    <linearGradient
       gradientTransform="scale(1.0058652,0.994169)"
       gradientUnits="userSpaceOnUse"
       id="ButtonShadow-4"
       y2="7.0165396"
       x2="45.447727"
       y1="92.539597"
       x1="45.447727">
      <stop
         offset="0"
         style="stop-color:#000000;stop-opacity:1"
         id="stop3750-6" />
      <stop
         offset="1"
         style="stop-color:#000000;stop-opacity:0.58823532"
         id="stop3752-2" />
    </linearGradient>
    <linearGradient
       id="linearGradient3737-2">
      <stop
         offset="0"
         style="stop-color:#ffffff;stop-opacity:1"
         id="stop3739-4" />
      <stop
         offset="1"
         style="stop-color:#ffffff;stop-opacity:0"
         id="stop3741-4" />
    </linearGradient>
    <filter
       style="color-interpolation-filters:sRGB"
       id="filter3174-9">
      <feGaussianBlur
         stdDeviation="1.71"
         id="feGaussianBlur3176-8" />
    </filter>
    <filter
       style="color-interpolation-filters:sRGB"
       id="filter3794-9"
       height="1.3839999"
       width="1.3839999"
       y="-0.192"
       x="-0.192">
      <feGaussianBlur
         stdDeviation="5.28"
         id="feGaussianBlur3796-4" />
    </filter>
    <linearGradient
       gradientUnits="userSpaceOnUse"
       xlink:href="#linearGradient3737-2"
       id="linearGradient3613-6"
       y2="138.66119"
       x2="48"
       y1="20.220806"
       x1="48" />
    <clipPath
       id="clipPath3613-0">
      <rect
         style="fill:#ffffff;fill-opacity:1;fill-rule:nonzero;stroke:none"
         id="rect3615-1"
         y="6"
         x="6"
         ry="6"
         rx="6"
         height="84"
         width="84" />
    </clipPath>
    <linearGradient
       id="linearGradient3257-0">
      <stop
         offset="0"
         style="stop-color:#1f2732;stop-opacity:1"
         id="stop3259-2" />
      <stop
         offset="1"
         style="stop-color:#333b46;stop-opacity:1"
         id="stop3261-6" />
    </linearGradient>
    <linearGradient
       y2="-1004.6271"
       x2="23.102119"
       y1="-1051.6226"
       x1="23.102119"
       gradientTransform="translate(1.1644629e-5,-7.179375e-5)"
       gradientUnits="userSpaceOnUse"
       id="linearGradient836"
       xlink:href="#linearGradient3257-0"
       inkscape:collect="always" />
  </defs>
  <sodipodi:namedview
     id="base"
     pagecolor="#ffffff"
     bordercolor="#666666"
     borderopacity="1.0"
     inkscape:pageopacity="0.0"
     inkscape:pageshadow="2"
     inkscape:zoom="6.3197664"
     inkscape:cx="12.757811"
     inkscape:cy="23.239617"
     inkscape:document-units="px"
     inkscape:current-layer="layer1"
     showgrid="false"
     inkscape:window-width="1366"
     inkscape:window-height="717"
     inkscape:window-x="0"
     inkscape:window-y="28"
     inkscape:window-maximized="1"
     showguides="false" />
  <metadata
     id="metadata7">
    <rdf:RDF>
      <cc:Work
         rdf:about="">
        <dc:format>image/svg+xml</dc:format>
        <dc:type
           rdf:resource="http://purl.org/dc/dcmitype/StillImage" />
        <dc:title></dc:title>
      </cc:Work>
    </rdf:RDF>
  </metadata>
  <g
     inkscape:label="Capa 1"
     inkscape:groupmode="layer"
     id="layer1"
     transform="translate(0,-1004.3622)">
    <rect
       style="fill:url(#linearGradient836);fill-opacity:1;stroke:none"
       id="rect2991-1"
       width="48"
       height="48"
       x="0"
       y="-1052.3622"
       ry="1.9445436"
       transform="scale(1,-1)" />
    <g
       id="layer2"
       style="display:none"
       transform="translate(-121.93813,968.5619)">
      <rect
         width="86"
         height="85"
         rx="6"
         ry="6"
         x="5"
         y="7"
         id="rect3745"
         style="opacity:0.9;fill:url(#ButtonShadow-4);fill-opacity:1;fill-rule:nonzero;stroke:none;filter:url(#filter3174-9)" />
    </g>
    <g
       id="layer5"
       style="display:none"
       transform="translate(-121.93813,968.5619)">
      <rect
         width="66"
         height="66"
         rx="12"
         ry="12"
         x="15"
         y="15"
         clip-path="url(#clipPath3613-0)"
         id="rect3171"
         style="opacity:0.1;fill:url(#linearGradient3613-6);fill-opacity:1;fill-rule:nonzero;stroke:#ffffff;stroke-width:0.5;stroke-linecap:round;stroke-linejoin:miter;stroke-miterlimit:4;stroke-opacity:1;stroke-dasharray:none;stroke-dashoffset:0;filter:url(#filter3794-9)" />
    </g>
    <path
       inkscape:connector-curvature="0"
       style="fill:#000000;fill-opacity:1;stroke:none"
       d="m -1.642334e-6,1049.3622 0,1.0625 c 0,1.0773 0.860223002334,1.9375 1.937500042334,1.9375 l 44.1249996,0 c 1.077277,0 1.9375,-0.8602 1.9375,-1.9375 l 0,-1.0625 c 0,1.0773 -0.860223,1.9375 -1.9375,1.9375 l -44.1249996,0 C 0.86022136,1051.2997 -1.642334e-6,1050.4395 -1.642334e-6,1049.3622 Z"
       id="rect846" />
    <path
       inkscape:connector-curvature="0"
       style="fill:#ffffff;fill-opacity:0.5372549;stroke:none"
       d="m 2.5312484,1005.0185 c -0.917088,0 -1.67114704,0.6395 -1.84375004,1.5 0.33561204,-0.2799 0.77451204,-0.4375 1.25000004,-0.4375 l 44.1249996,0 c 0.475488,0 0.914388,0.1576 1.25,0.4375 -0.172603,-0.8605 -0.926662,-1.5 -1.84375,-1.5 L 2.5312484,1005.0185 Z"
       id="path7515" />
    <path
       inkscape:connector-curvature="0"
       style="fill:#000000;fill-opacity:0.39215686;stroke:none"
       d="m 1.9374984,1004.3622 c -1.07727704,0 -1.937500042334,0.8602 -1.937500042334,1.9375 l 0,43.0625 c 0,0.7934 0.480024002334,1.449 1.156250042334,1.75 -0.30934204,-0.3333 -0.50000004,-0.7824 -0.50000004,-1.2812 l 0,-42.9375 c 0,-1.0482 0.82689904,-1.875 1.87500004,-1.875 l 42.9374996,0 c 1.048101,0 1.875,0.8268 1.875,1.875 l 0,42.9375 c 0,0.4988 -0.190658,0.9479 -0.5,1.2812 0.676226,-0.301 1.15625,-0.9566 1.15625,-1.75 l 0,-43.0625 c 0,-1.0773 -0.860223,-1.9375 -1.9375,-1.9375 L 1.9374984,1004.3622 Z"
       id="rect4280-2" />
    <path
       style="font-size:9.33328247px;font-style:normal;font-variant:normal;font-weight:bold;font-stretch:normal;text-align:start;line-height:125%;letter-spacing:0px;word-spacing:0px;writing-mode:lr-tb;text-anchor:start;fill:#ffffff;fill-opacity:0.53725493;stroke:none;font-family:Helvetica;-inkscape-font-specification:Helvetica Bold"
       d="M 6.375 37.125 C 5.4105608 37.125 4.7230253 37.371067 4.28125 37.875 C 3.9701405 38.229667 3.8125 38.671033 3.8125 39.1875 C 3.8125 39.847033 4.0269746 40.320067 4.46875 40.625 C 4.7300819 40.8054 5.2219484 40.98825 5.9375 41.15625 L 6.65625 41.3125 C 7.0918032 41.4183 7.3819175 41.512883 7.53125 41.59375 C 7.7552488 41.718217 7.875 41.913583 7.875 42.15625 C 7.875 42.479783 7.704915 42.700617 7.40625 42.84375 C 7.1698068 42.95575 6.8669701 43.03125 6.46875 43.03125 C 5.9274197 43.03125 5.5239153 42.892533 5.28125 42.625 C 5.1194731 42.444533 5.03125 42.2113 5.03125 41.9375 L 3.6875 41.9375 C 3.6875 42.516167 3.8765296 42.9954 4.21875 43.375 C 4.6978585 43.910067 5.473617 44.1875 6.5625 44.1875 C 7.3838288 44.1875 8.0396971 43.973167 8.53125 43.5625 C 8.9792475 43.189167 9.21875 42.64695 9.21875 41.96875 C 9.21875 41.41495 9.0421647 41.01115 8.6875 40.71875 C 8.4261681 40.50095 8.0225247 40.324367 7.46875 40.1875 L 5.8125 39.78125 C 5.6009456 39.731517 5.4370829 39.662217 5.34375 39.59375 C 5.1757509 39.47555 5.09375 39.324017 5.09375 39.09375 C 5.09375 38.81375 5.2136403 38.580567 5.46875 38.4375 C 5.6740822 38.3255 5.9639184 38.28125 6.28125 38.28125 C 6.8163582 38.28125 7.1822512 38.394917 7.40625 38.65625 C 7.530694 38.799317 7.5938893 39.01365 7.625 39.28125 L 8.96875 39.28125 C 8.96875 38.746117 8.7921647 38.29825 8.4375 37.90625 C 7.9708359 37.38985 7.2896617 37.125 6.375 37.125 z M 10.28125 37.3125 L 10.28125 44 L 15 44 L 15 42.78125 L 11.6875 42.78125 L 11.6875 37.3125 L 10.28125 37.3125 z M 16 37.3125 L 16 44 L 21.0625 44 L 21.0625 42.8125 L 17.34375 42.8125 L 17.34375 41.09375 L 20.625 41.09375 L 20.625 39.90625 L 17.34375 39.90625 L 17.34375 38.46875 L 20.90625 38.46875 L 20.90625 37.3125 L 16 37.3125 z M 22.21875 37.3125 L 22.21875 44 L 27.3125 44 L 27.3125 42.8125 L 23.59375 42.8125 L 23.59375 41.09375 L 26.875 41.09375 L 26.875 39.90625 L 23.59375 39.90625 L 23.59375 38.46875 L 27.15625 38.46875 L 27.15625 37.3125 L 22.21875 37.3125 z M 28.46875 37.3125 L 28.46875 44 L 29.84375 44 L 29.84375 41.59375 L 31.46875 41.59375 C 32.258968 41.59375 32.845419 41.31 33.21875 40.75 C 33.480082 40.358 33.59375 39.910433 33.59375 39.4375 C 33.59375 38.771767 33.404581 38.2546 33.03125 37.875 C 32.664141 37.489267 32.178357 37.3125 31.53125 37.3125 L 28.46875 37.3125 z M 29.84375 38.46875 L 30.96875 38.46875 C 31.404303 38.46875 31.713362 38.513117 31.90625 38.65625 C 32.099137 38.799317 32.1875 39.0452 32.1875 39.375 C 32.1875 39.6488 32.149611 39.850667 32.0625 40 C 31.900723 40.273733 31.604247 40.4375 31.15625 40.4375 L 29.84375 40.4375 L 29.84375 38.46875 z "
       transform="translate(0,1004.3622)"
       id="path884" />
    <path
       style="font-size:9.33328247px;font-style:normal;font-variant:normal;font-weight:bold;font-stretch:normal;text-align:start;line-height:125%;letter-spacing:0px;word-spacing:0px;writing-mode:lr-tb;text-anchor:start;fill:#ffffff;fill-opacity:0.16078432;stroke:none;font-family:Helvetica;-inkscape-font-specification:Helvetica Bold"
       d="m 6.28125,1042.6472 c -0.3173316,0 -0.6071678,0.044 -0.8125,0.1563 -0.2551097,0.1431 -0.375,0.3762 -0.375,0.6562 0,0.039 0.026458,0.059 0.03125,0.094 0.034025,-0.2186 0.1317332,-0.4124 0.34375,-0.5313 0.2053322,-0.112 0.4951684,-0.1562 0.8125,-0.1562 0.5351082,0 0.9010012,0.1136 1.125,0.375 0.124444,0.143 0.1876393,0.3574 0.21875,0.625 l 1.34375,0 c 0,-0.079 -0.02366,-0.144 -0.03125,-0.2188 l -1.3125,0 c -0.031111,-0.2676 -0.094306,-0.4819 -0.21875,-0.625 C 7.1822512,1042.7609 6.8163582,1042.6472 6.28125,1042.6472 z m 11.0625,0.1875 0,0.2188 3.5625,0 0,-0.2188 L 17.34375,1042.8347 z m 6.25,0 0,0.2188 3.5625,0 0,-0.2188 L 23.59375,1042.8347 z m 6.25,0 0,0.2188 1.125,0 c 0.435553,0 0.744612,0.044 0.9375,0.1875 0.172634,0.128 0.264483,0.3458 0.28125,0.625 0.0025,-0.045 0,-0.076 0,-0.125 0,-0.3298 -0.08836,-0.5757 -0.28125,-0.7188 -0.192888,-0.1435 -0.501947,-0.1875 -0.9375,-0.1875 L 29.84375,1042.8347 z m 3.75,1.0313 c -0.01018,0.4485 -0.125863,0.8763 -0.375,1.25 -0.373331,0.56 -0.959782,0.8437 -1.75,0.8437 l -1.625,0 0,0.2188 1.625,0 c 0.790218,0 1.376669,-0.2838 1.75,-0.8438 0.261332,-0.392 0.375,-0.8396 0.375,-1.3125 C 33.59375,1043.967 33.596351,1043.9192 33.59375,1043.866 z m -29.75,0.125 c 0.044555,0.5438 0.2350257,0.9495 0.625,1.2187 0.2613319,0.1804 0.7531984,0.3633 1.46875,0.5313 l 0.71875,0.1562 c 0.4355532,0.1058 0.7256675,0.2004 0.875,0.2813 0.2003659,0.1113 0.2900517,0.2921 0.3125,0.5 0.010779,-0.052 0.03125,-0.098 0.03125,-0.1563 0,-0.2426 -0.1197512,-0.438 -0.34375,-0.5625 -0.1493325,-0.081 -0.4394468,-0.1754 -0.875,-0.2812 l -0.71875,-0.1563 c -0.7155516,-0.168 -1.2074181,-0.3508 -1.46875,-0.5312 C 4.1374184,1044.7623 3.9247792,1044.4165 3.84375,1043.991 z m 13.5,1.4687 0,0.2188 3.28125,0 0,-0.2188 L 17.34375,1045.4597 z m 6.25,0 0,0.2188 3.28125,0 0,-0.2188 L 23.59375,1045.4597 z m -19.90625,1.0625 c 0,0.067 0.026203,0.123 0.03125,0.1875 -0.010585,-0.061 0.00579,-0.1242 0,-0.1875 C 3.7186757,1046.5214 3.6875735,1046.523 3.6875,1046.5222 z m 0.03125,0.1875 c 0.038391,0.491 0.1975376,0.9145 0.5,1.25 0.4791085,0.5351 1.254867,0.8125 2.34375,0.8125 0.8213288,0 1.4771971,-0.2143 1.96875,-0.625 0.3880332,-0.3233 0.6011983,-0.7884 0.65625,-1.3437 -0.08836,0.4561 -0.3202519,0.845 -0.65625,1.125 -0.4915529,0.4107 -1.1474212,0.625 -1.96875,0.625 -1.088883,0 -1.8646415,-0.2774 -2.34375,-0.8125 C 3.9620847,1047.4563 3.7879562,1047.1064 3.71875,1046.7097 z m 6.5625,1.6563 0,0.2187 4.71875,0 0,-0.2187 L 10.28125,1048.366 z m 5.71875,0 0,0.2187 5.0625,0 0,-0.2187 L 16,1048.366 z m 6.21875,0 0,0.2187 5.09375,0 0,-0.2187 L 22.21875,1048.366 z m 6.25,0 0,0.2187 1.375,0 0,-0.2187 L 28.46875,1048.366 Z"
       id="path900"
       inkscape:connector-curvature="0" />
    <path
       style="font-size:9.33328247px;font-style:normal;font-variant:normal;font-weight:bold;font-stretch:normal;text-align:start;line-height:125%;letter-spacing:0px;word-spacing:0px;writing-mode:lr-tb;text-anchor:start;fill:#000000;fill-opacity:0.5372549;stroke:none;font-family:Helvetica;-inkscape-font-specification:Helvetica Bold"
       d="m 6.375,1041.235 c -0.9644392,0 -1.6519747,0.2461 -2.09375,0.75 -0.3111095,0.3547 -0.46875,0.796 -0.46875,1.3125 0,0.044 -0.00189,0.083 0,0.125 0.023907,-0.4623 0.1833875,-0.8622 0.46875,-1.1875 0.4417753,-0.504 1.1293108,-0.75 2.09375,-0.75 0.9146617,0 1.5958359,0.2649 2.0625,0.7813 0.2999003,0.3314 0.4538568,0.6946 0.5,1.125 l 0.03125,0 c 0,-0.5352 -0.1765853,-0.983 -0.53125,-1.375 C 7.9708359,1041.4999 7.2896617,1041.235 6.375,1041.235 z m 3.90625,0.1875 0,0.25 1.40625,0 0,-0.25 L 10.28125,1041.4225 z m 5.71875,0 0,0.25 4.90625,0 0,-0.25 L 16,1041.4225 z m 6.21875,0 0,0.25 4.9375,0 0,-0.25 L 22.21875,1041.4225 z m 6.25,0 0,0.25 3.0625,0 c 0.647107,0 1.132891,0.1767 1.5,0.5625 0.279998,0.2847 0.460546,0.6497 0.53125,1.0938 -0.0391,-0.5571 -0.201695,-1.0087 -0.53125,-1.3438 -0.367109,-0.3857 -0.852893,-0.5625 -1.5,-0.5625 L 28.46875,1041.4225 z m -23.34375,1.875 c -0.00786,0.047 -0.03125,0.1059 -0.03125,0.1563 0,0.2303 0.082001,0.3818 0.25,0.5 0.093333,0.069 0.2571956,0.1375 0.46875,0.1875 l 1.65625,0.4062 c 0.5537747,0.1368 0.9574181,0.3135 1.21875,0.5313 0.3275433,0.27 0.5063,0.6345 0.53125,1.125 0.0021,-0.044 0,-0.08 0,-0.125 0,-0.5538 -0.1765853,-0.9576 -0.53125,-1.25 -0.2613319,-0.2178 -0.6649753,-0.3944 -1.21875,-0.5313 l -1.65625,-0.4062 c -0.2115544,-0.05 -0.3754171,-0.1191 -0.46875,-0.1875 C 5.2044096,1043.6057 5.1483007,1043.4673 5.125,1043.2975 z m 27.0625,0.3438 c -0.01368,0.1877 -0.05752,0.353 -0.125,0.4687 -0.161777,0.2737 -0.458253,0.4375 -0.90625,0.4375 l -1.3125,0 0,0.25 1.3125,0 c 0.447997,0 0.744473,-0.1638 0.90625,-0.4375 0.08711,-0.1494 0.125,-0.3512 0.125,-0.625 C 32.1875,1043.7004 32.189467,1043.674 32.1875,1043.6413 z m -14.84375,0.375 0,0.25 3.28125,0 0,-0.25 L 17.34375,1044.0163 z m 6.25,0 0,0.25 3.28125,0 0,-0.25 L 23.59375,1044.0163 z m -19.90625,2.0312 c 0,0.089 0.022368,0.1654 0.03125,0.25 l 1.3125,0 c 0,0.2738 0.088223,0.507 0.25,0.6875 0.2426653,0.2675 0.6461697,0.4063 1.1875,0.4063 0.3982201,0 0.7010568,-0.075 0.9375,-0.1875 0.298665,-0.1431 0.46875,-0.364 0.46875,-0.6875 0,-0.034 -0.0267,-0.062 -0.03125,-0.094 -0.049106,0.2357 -0.1925947,0.4139 -0.4375,0.5313 -0.2364432,0.112 -0.5392799,0.1875 -0.9375,0.1875 -0.5413303,0 -0.9448347,-0.1388 -1.1875,-0.4063 -0.1617769,-0.1805 -0.25,-0.4137 -0.25,-0.6875 L 3.6875,1046.0475 z m 8,0.8438 0,0.25 3.3125,0 0,-0.25 L 11.6875,1046.8913 z m 5.65625,0.031 0,0.25 3.71875,0 0,-0.25 L 17.34375,1046.9225 z m 6.25,0 0,0.25 3.71875,0 0,-0.25 L 23.59375,1046.9225 Z"
       id="path905"
       inkscape:connector-curvature="0" />
  </g>
</svg>
