<?xml version="1.0" encoding="UTF-8" standalone="no"?>
<!-- Created with Inkscape (http://www.inkscape.org/) -->

<svg
   xmlns:dc="http://purl.org/dc/elements/1.1/"
   xmlns:cc="http://creativecommons.org/ns#"
   xmlns:rdf="http://www.w3.org/1999/02/22-rdf-syntax-ns#"
   xmlns:svg="http://www.w3.org/2000/svg"
   xmlns="http://www.w3.org/2000/svg"
   xmlns:xlink="http://www.w3.org/1999/xlink"
   xmlns:sodipodi="http://sodipodi.sourceforge.net/DTD/sodipodi-0.dtd"
   xmlns:inkscape="http://www.inkscape.org/namespaces/inkscape"
   width="48"
   height="48"
   id="svg2"
   version="1.1"
   inkscape:version="0.48+devel r12106"
   sodipodi:docname="update-manager.svg">
  <defs
     id="defs4">
    <linearGradient
       inkscape:collect="always"
       id="linearGradient1404">
      <stop
         style="stop-color:#d9d9d9;stop-opacity:1"
         offset="0"
         id="stop1406" />
      <stop
         style="stop-color:#ffffff;stop-opacity:1"
         offset="1"
         id="stop1408" />
    </linearGradient>
    <linearGradient
       inkscape:collect="always"
       xlink:href="#linearGradient1422"
       id="linearGradient1428"
       x1="22.490341"
       y1="1044.4824"
       x2="22.490341"
       y2="1039.6395"
       gradientUnits="userSpaceOnUse"
       gradientTransform="translate(0,2.6516504)" />
    <linearGradient
       inkscape:collect="always"
       id="linearGradient1422">
      <stop
         style="stop-color:#c8c8c8;stop-opacity:1"
         offset="0"
         id="stop1424" />
      <stop
         style="stop-color:#e5e5e5;stop-opacity:1"
         offset="1"
         id="stop1426" />
    </linearGradient>
    <linearGradient
       inkscape:collect="always"
       xlink:href="#linearGradient1473"
       id="linearGradient1471"
       gradientUnits="userSpaceOnUse"
       gradientTransform="matrix(0.52580846,0,0,1,2.6821874,2.6516504)"
       x1="22.490341"
       y1="1044.4824"
       x2="22.490341"
       y2="1039.6395" />
    <linearGradient
       inkscape:collect="always"
       id="linearGradient1473">
      <stop
         style="stop-color:#216b8b;stop-opacity:1"
         offset="0"
         id="stop1475" />
      <stop
         style="stop-color:#1aa9d7;stop-opacity:1"
         offset="1"
         id="stop1477" />
    </linearGradient>
    <linearGradient
       inkscape:collect="always"
       xlink:href="#linearGradient1463"
       id="linearGradient1461"
       gradientUnits="userSpaceOnUse"
       x1="22.490341"
       y1="1044.4824"
       x2="22.490341"
       y2="1039.6395"
       gradientTransform="matrix(0.52580846,0,0,1,2.5275078,2.6516504)" />
    <linearGradient
       id="linearGradient1463"
       inkscape:collect="always">
      <stop
         id="stop1465"
         offset="0"
         style="stop-color:#2a88b1;stop-opacity:1" />
      <stop
         id="stop1467"
         offset="1"
         style="stop-color:#7dd3ef;stop-opacity:1" />
    </linearGradient>
    <linearGradient
       inkscape:collect="always"
       xlink:href="#linearGradient1492"
       id="linearGradient1498"
       x1="16.125"
       y1="34.833946"
       x2="16.125"
       y2="36.925476"
       gradientUnits="userSpaceOnUse"
       gradientTransform="translate(0,1007.0139)" />
    <linearGradient
       inkscape:collect="always"
       id="linearGradient1492">
      <stop
         style="stop-color:#ffffff;stop-opacity:1;"
         offset="0"
         id="stop1494" />
      <stop
         style="stop-color:#ffffff;stop-opacity:0;"
         offset="1"
         id="stop1496" />
    </linearGradient>
    <linearGradient
       inkscape:collect="always"
       xlink:href="#linearGradient1451"
       id="linearGradient1457"
       x1="24.085825"
       y1="33.106564"
       x2="24.085825"
       y2="35.669827"
       gradientUnits="userSpaceOnUse"
       gradientTransform="translate(0,1007.0139)" />
    <linearGradient
       inkscape:collect="always"
       id="linearGradient1451">
      <stop
         style="stop-color:#000000;stop-opacity:1;"
         offset="0"
         id="stop1453" />
      <stop
         style="stop-color:#000000;stop-opacity:0;"
         offset="1"
         id="stop1455" />
    </linearGradient>
    <linearGradient
       inkscape:collect="always"
       xlink:href="#linearGradient1512"
       id="linearGradient1518"
       x1="17.0625"
       y1="40.875"
       x2="17.0625"
       y2="35"
       gradientUnits="userSpaceOnUse"
       gradientTransform="translate(0,1007.0139)" />
    <linearGradient
       inkscape:collect="always"
       id="linearGradient1512">
      <stop
         style="stop-color:#000000;stop-opacity:0.62130177"
         offset="0"
         id="stop1514" />
      <stop
         style="stop-color:#000000;stop-opacity:0.147929"
         offset="1"
         id="stop1516" />
    </linearGradient>
    <linearGradient
       inkscape:collect="always"
       xlink:href="#linearGradient1525"
       id="linearGradient1531"
       x1="23.9375"
       y1="41.375"
       x2="23.9375"
       y2="39.4375"
       gradientUnits="userSpaceOnUse"
       gradientTransform="translate(0,1007.0139)" />
    <linearGradient
       inkscape:collect="always"
       id="linearGradient1525">
      <stop
         style="stop-color:#000000;stop-opacity:1;"
         offset="0"
         id="stop1527" />
      <stop
         style="stop-color:#000000;stop-opacity:0;"
         offset="1"
         id="stop1529" />
    </linearGradient>
    <linearGradient
       y2="-1004.4266"
       x2="22.490341"
       y1="-1052.8547"
       x1="22.490341"
       gradientUnits="userSpaceOnUse"
       id="linearGradient1711"
       xlink:href="#linearGradient1404"
       inkscape:collect="always"
       gradientTransform="translate(-3.8085936e-8,-2.5343751e-6)" />
  </defs>
  <sodipodi:namedview
     id="base"
     pagecolor="#ffffff"
     bordercolor="#666666"
     borderopacity="1.0"
     inkscape:pageopacity="0.0"
     inkscape:pageshadow="2"
     inkscape:zoom="2.8284273"
     inkscape:cx="73.442059"
     inkscape:cy="36.497551"
     inkscape:document-units="px"
     inkscape:current-layer="layer1"
     showgrid="false"
     inkscape:window-width="1366"
     inkscape:window-height="718"
     inkscape:window-x="0"
     inkscape:window-y="28"
     inkscape:window-maximized="1">
    <inkscape:grid
       type="xygrid"
       id="grid3850" />
  </sodipodi:namedview>
  <metadata
     id="metadata7">
    <rdf:RDF>
      <cc:Work
         rdf:about="">
        <dc:format>image/svg+xml</dc:format>
        <dc:type
           rdf:resource="http://purl.org/dc/dcmitype/StillImage" />
        <dc:title />
      </cc:Work>
    </rdf:RDF>
  </metadata>
  <g
     inkscape:label="Capa 1"
     inkscape:groupmode="layer"
     id="layer1"
     transform="translate(0,-1004.3622)">
    <rect
       style="fill:url(#linearGradient1711);fill-opacity:1;stroke:none"
       id="rect2991-1"
       width="48"
       height="48"
       x="3.8085936e-08"
       y="-1052.3622"
       ry="1.9445436"
       transform="scale(1,-1)" />
    <path
       inkscape:connector-curvature="0"
       style="fill:#000000;fill-opacity:1;stroke:none"
       d="m -3.8085936e-8,1049.3622 0,1.0625 c 0,1.0773 0.860222898085936,1.9375 1.937499938085936,1.9375 l 44.1250001,0 c 1.077277,0 1.9375,-0.8602 1.9375,-1.9375 l 0,-1.0625 c 0,1.0773 -0.860223,1.9375 -1.9375,1.9375 l -44.1250001,0 C 0.86022286,1051.2997 -3.8085936e-8,1050.4395 -3.8085936e-8,1049.3622 Z"
       id="rect846" />
    <path
       inkscape:connector-curvature="0"
       style="fill:#ffffff;fill-opacity:0.5372549;stroke:none"
       d="m 2.5312499,1005.0185 c -0.9170884,0 -1.67114674,0.6395 -1.84374994,1.5 0.33561204,-0.2799 0.77451214,-0.4375 1.24999994,-0.4375 l 44.1250001,0 c 0.475488,0 0.914388,0.1576 1.25,0.4375 -0.172603,-0.8605 -0.926662,-1.5 -1.84375,-1.5 L 2.5312499,1005.0185 Z"
       id="path7515" />
    <path
       inkscape:connector-curvature="0"
       style="fill:#000000;fill-opacity:0.39215686;stroke:none"
       d="m 1.9374999,1004.3622 c -1.07727694,0 -1.937499938085938,0.8602 -1.937499938085938,1.9375 l 0,43.0625 c 0,0.7934 0.480023998085938,1.449 1.156249938085938,1.75 -0.30934164,-0.3333 -0.49999994,-0.7824 -0.49999994,-1.2812 l 0,-42.9375 c 0,-1.0482 0.82689894,-1.875 1.87499994,-1.875 l 42.9375001,0 c 1.048101,0 1.875,0.8268 1.875,1.875 l 0,42.9375 c 0,0.4988 -0.190658,0.9479 -0.5,1.2812 0.676226,-0.301 1.15625,-0.9566 1.15625,-1.75 l 0,-43.0625 c 0,-1.0773 -0.860223,-1.9375 -1.9375,-1.9375 L 1.9374999,1004.3622 Z"
       id="rect4280" />
    <g
       id="g1628"
       transform="matrix(0.82919384,0,0,0.82919384,4.2401938,175.56658)">
      <g
         id="g1609">
        <path
           style="color:#000000;fill:#ffffff;fill-opacity:0.72189349;fill-rule:nonzero;stroke:none;stroke-width:0.2;marker:none;visibility:visible;display:inline;overflow:visible;enable-background:accumulate"
           d="m 42.3125,1045.1344 c -0.06769,1.3236 -1.127697,2.375 -2.46875,2.375 l -32,0 c -1.211875,0 -2.2363965,-0.8588 -2.46875,-2 0.1280207,1.2632 1.1706493,2.25 2.46875,2.25 l 32,0 c 1.385,0 2.5,-1.115 2.5,-2.5 C 42.34375,1045.2154 42.314718,1045.1777 42.3125,1045.1344 Z"
           id="rect1439"
           inkscape:connector-curvature="0" />
        <rect
           ry="2.7499998"
           y="1042.0151"
           x="5.0201263"
           height="5.4999995"
           width="37.620029"
           id="rect1432"
           style="color:#000000;fill:#bbbbbb;fill-opacity:1;fill-rule:nonzero;stroke:none;stroke-width:0.2;marker:none;visibility:visible;display:inline;overflow:visible;enable-background:accumulate" />
        <rect
           style="color:#000000;fill:url(#linearGradient1428);fill-opacity:1;fill-rule:nonzero;stroke:none;stroke-width:0.2;marker:none;visibility:visible;display:inline;overflow:visible;enable-background:accumulate"
           id="rect1412"
           width="37"
           height="5"
           x="5.3301411"
           y="1042.2651"
           ry="2.5" />
        <path
           style="color:#000000;fill:url(#linearGradient1471);fill-opacity:1;fill-rule:nonzero;stroke:none;stroke-width:0.2;marker:none;visibility:visible;display:inline;overflow:visible;enable-background:accumulate"
           d="m 22.28125,1042.2639 c 0.173125,0 0.336963,0.029 0.5,0.062 1.14126,0.2323 2,1.2256 2,2.4375 0,1.2118 -0.85874,2.2051 -2,2.4375 -0.163037,0.033 -0.326875,0.062 -0.5,0.062 l 0.15625,0 c 0.08656,0 0.165753,-0.023 0.25,-0.031 0.08003,-0.01 0.172272,-0.018 0.25,-0.031 1.183937,-0.1984 2.0625,-1.1955 2.0625,-2.4375 0,-1.2421 -0.878563,-2.2392 -2.0625,-2.4375 -0.07773,-0.013 -0.169968,-0.026 -0.25,-0.031 -0.08425,-0.01 -0.163438,-0.031 -0.25,-0.031 L 22.28125,1042.2639 Z"
           id="rect1469"
           inkscape:connector-curvature="0" />
        <rect
           ry="2.5"
           y="1042.2651"
           x="5.3301411"
           height="5"
           width="19.454912"
           id="rect1459"
           style="color:#000000;fill:url(#linearGradient1461);fill-opacity:1;fill-rule:nonzero;stroke:none;stroke-width:0.2;marker:none;visibility:visible;display:inline;overflow:visible;enable-background:accumulate" />
        <path
           style="opacity:0.75;color:#000000;fill:url(#linearGradient1498);fill-opacity:1;fill-rule:nonzero;stroke:none;stroke-width:0.2;marker:none;visibility:visible;display:inline;overflow:visible;enable-background:accumulate"
           d="m 7.84375,1042.2639 c -1.1668625,0 -2.1592528,0.7974 -2.4375,1.875 l 19.3125,0 c -0.278247,-1.0776 -1.270637,-1.875 -2.4375,-1.875 L 7.84375,1042.2639 Z"
           id="rect1487"
           inkscape:connector-curvature="0" />
        <path
           style="color:#000000;fill:url(#linearGradient1457);fill-opacity:1;fill-rule:nonzero;stroke:none;stroke-width:0.2;marker:none;visibility:visible;display:inline;overflow:visible;enable-background:accumulate"
           d="m 7.78125,1042.0139 c -0.6744114,0 -1.3038682,0.2561 -1.78125,0.6562 l 35.65625,0 c -0.477382,-0.4001 -1.106839,-0.6562 -1.78125,-0.6562 L 7.78125,1042.0139 Z"
           id="rect1446"
           inkscape:connector-curvature="0" />
        <path
           style="opacity:0.4;color:#000000;fill:url(#linearGradient1518);fill-opacity:1;fill-rule:nonzero;stroke:none;stroke-width:0.2;marker:none;visibility:visible;display:inline;overflow:visible;enable-background:accumulate"
           d="m 7.84375,1042.2639 c -1.385,0 -2.5,1.115 -2.5,2.5 0,0.46 0.1287011,0.8805 0.34375,1.25 L 7.84375,1042.2639 z m 2.6875,0 -2.875,4.9687 c 0.060314,0 0.1260495,0.031 0.1875,0.031 l 3.0625,0 2.90625,-5 L 10.53125,1042.2639 z m 5.96875,0 -2.90625,5 3.28125,0 2.875,-5 L 16.5,1042.2639 z m 5.9375,0.031 -2.875,4.9688 2.71875,0 c 0.197549,0 0.378389,-0.051 0.5625,-0.094 l 1.84375,-3.125 C 24.39274,1043.066 23.497551,1042.3625 22.4375,1042.2951 Z"
           id="rect1500"
           inkscape:connector-curvature="0" />
        <path
           style="opacity:0.56099997;color:#000000;fill:url(#linearGradient1531);fill-opacity:1;fill-rule:nonzero;stroke:none;stroke-width:0.2;marker:none;visibility:visible;display:inline;overflow:visible;enable-background:accumulate"
           d="m 5.34375,1044.6076 c -0.00333,0.053 0,0.1024 0,0.1563 0,1.385 1.115,2.5 2.5,2.5 l 32,0 c 1.385,0 2.5,-1.115 2.5,-2.5 0,-0.055 -0.02784,-0.1026 -0.03125,-0.1563 -0.08319,1.3087 -1.138351,2.3438 -2.46875,2.3438 l -32,0 C 6.5126411,1046.9514 5.4259146,1045.9173 5.34375,1044.6076 Z"
           id="rect1520"
           inkscape:connector-curvature="0" />
      </g>
      <g
         id="g1620">
        <path
           style="color:#000000;fill:#000000;fill-opacity:0.52156863;fill-rule:nonzero;stroke:none;stroke-width:0.2;marker:none;visibility:visible;display:inline;overflow:visible;enable-background:accumulate"
           d="m 23.616252,1014.2158 c -0.35471,0 -0.709421,0.1574 -0.98122,0.4292 -0.06795,0.067 -0.133016,0.1378 -0.183978,0.2148 l -6.684557,6.6538 c -0.226223,0.2262 -0.330025,0.504 -0.367959,0.7973 -0.01015,0.079 -0.03397,0.1664 -0.03067,0.2454 -0.0019,0.031 0,0.061 0,0.091 0,0.9252 0.823204,1.6865 1.839788,1.6865 l 2.299732,0 0,6.4452 c 0,1.0196 0.820099,1.8398 1.839786,1.8398 l 4.568803,0 c 1.019687,0 1.839787,-0.8202 1.839787,-1.8398 l 0,-6.4452 2.299734,0 c 0.959296,0 1.72394,-0.6811 1.809123,-1.5332 0.001,-0.01 -8.18e-4,-0.02 0,-0.031 0.0076,-0.038 -0.0042,-0.083 0,-0.1226 0,-0.052 0.005,-0.1024 0,-0.1533 0,-0.3547 -0.126823,-0.7095 -0.398621,-0.9812 l -6.684557,-6.6539 c -0.05096,-0.078 -0.11603,-0.1467 -0.183979,-0.2147 C 24.325674,1014.3732 23.970963,1014.2158 23.616252,1014.2158 Z"
           id="rect1572"
           inkscape:connector-curvature="0"
           sodipodi:nodetypes="scccccsscsssscsccccccss" />
        <path
           style="color:#000000;fill:#ffffff;fill-opacity:0.52156863;fill-rule:nonzero;stroke:none;stroke-width:0.2;marker:none;visibility:visible;display:inline;overflow:visible;enable-background:accumulate"
           d="m 15.395192,1022.8313 c -0.0079,0.047 -0.02927,0.093 -0.02741,0.137 -0.0019,0.031 0,0.078 0,0.1096 0,0.9252 0.819474,1.6717 1.836058,1.6717 l 2.301924,0 0,-0.411 -2.301924,0 C 16.261754,1024.3386 15.503859,1023.6635 15.395192,1022.8313 z m 16.469712,0 c -0.09897,0.8391 -0.85991,1.5073 -1.808654,1.5073 l -2.301924,0 0,0.411 2.301924,0 c 0.959297,0 1.723473,-0.6825 1.808654,-1.5346 0.001,-0.01 -8.18e-4,-0.017 0,-0.027 0.0076,-0.038 -0.0042,-0.07 0,-0.1096 0,-0.052 0.005,-0.1134 0,-0.1643 C 31.864904,1022.8872 31.866309,1022.8577 31.864904,1022.8313 z m -12.359134,7.9472 0,0.411 c 0,1.0197 0.816369,1.8634 1.836056,1.8634 l 4.576444,0 c 1.019687,0 1.836056,-0.8437 1.836056,-1.8634 l 0,-0.411 c 0,1.0197 -0.816369,1.836 -1.836056,1.836 l -4.576444,0 C 20.322139,1032.6145 19.50577,1031.7982 19.50577,1030.7785 Z"
           id="path1584"
           inkscape:connector-curvature="0" />
        <path
           style="color:#000000;fill:#000000;fill-opacity:0.52156863;fill-rule:nonzero;stroke:none;stroke-width:0.2;marker:none;visibility:visible;display:inline;overflow:visible;enable-background:accumulate"
           d="m 23.616346,1014.2161 c -0.35471,0 -0.714741,0.1666 -0.986538,0.4386 -0.06795,0.067 -0.140866,0.1147 -0.191828,0.1917 l -6.659134,6.6592 c -0.226223,0.2262 -0.34572,0.5014 -0.383654,0.7947 -0.01015,0.078 -0.03071,0.1676 -0.02741,0.2466 -0.0019,0.031 0,0.078 0,0.1096 0,0.1244 -7.96e-4,0.2393 0.02741,0.3563 0.04347,-0.273 0.171511,-0.5278 0.383654,-0.74 l 6.659134,-6.6591 c 0.05096,-0.077 0.123874,-0.1242 0.191828,-0.1918 0.271797,-0.2718 0.631828,-0.4384 0.986538,-0.4384 0.354711,0 0.714745,0.1666 0.986538,0.4384 0.06795,0.068 0.14086,0.1147 0.191828,0.1918 l 6.659134,6.6591 c 0.203849,0.2039 0.335244,0.4504 0.383654,0.7125 0.01317,-0.06 0.02121,-0.1298 0.02741,-0.1918 0.001,-0.01 -8.18e-4,-0.017 0,-0.027 0.0076,-0.038 -0.0042,-0.07 0,-0.1096 0,-0.052 0.005,-0.1134 0,-0.1644 0,-0.3548 -0.13926,-0.7148 -0.411058,-0.9865 l -6.659134,-6.6592 c -0.05096,-0.077 -0.123878,-0.1238 -0.191828,-0.1918 C 24.331091,1014.3827 23.971057,1014.2161 23.616346,1014.2161 Z"
           id="path1589"
           inkscape:connector-curvature="0" />
        <path
           style="color:#000000;fill:#000000;fill-opacity:0.52156863;fill-rule:nonzero;stroke:none;stroke-width:0.2;marker:none;visibility:visible;display:inline;overflow:visible;enable-background:accumulate"
           d="m 24,1009.1677 c -7.870057,0 -14.25,6.38 -14.25,14.25 0,7.87 6.379943,14.25 14.25,14.25 7.870057,0 14.25,-6.38 14.25,-14.25 C 38.25,1015.5477 31.870057,1009.1677 24,1009.1677 z m 0,1.7538 c 6.901436,0 12.496154,5.5947 12.496154,12.4962 0,6.9015 -5.594718,12.4962 -12.496154,12.4962 -6.901436,0 -12.496154,-5.5947 -12.496154,-12.4962 C 11.503846,1016.5162 17.098564,1010.9215 24,1010.9215 Z"
           id="path1594"
           inkscape:connector-curvature="0" />
        <path
           style="color:#000000;fill:#000000;fill-opacity:0.52156863;fill-rule:nonzero;stroke:none;stroke-width:0.2;marker:none;visibility:visible;display:inline;overflow:visible;enable-background:accumulate"
           d="m 24,4.8125 c -7.870057,0 -14.25,6.38 -14.25,14.25 0,0.09605 -0.00189,0.185648 0,0.28125 C 9.8999248,11.603633 16.223962,5.375 24,5.375 c 7.776038,0 14.100075,6.228633 14.25,13.96875 0.0019,-0.0956 0,-0.185195 0,-0.28125 C 38.25,11.1925 31.870057,4.8125 24,4.8125 Z M 11.5,19.34375 c -0.0021,0.09396 0,0.18679 0,0.28125 0,6.9015 5.598564,12.5 12.5,12.5 6.901436,0 12.5,-5.5985 12.5,-12.5 0,-0.09446 0.0021,-0.18729 0,-0.28125 C 36.349739,26.114715 30.806976,31.5625 24,31.5625 17.193024,31.5625 11.650261,26.114715 11.5,19.34375 Z"
           transform="translate(0,1004.3622)"
           id="path1599"
           inkscape:connector-curvature="0" />
        <path
           style="color:#000000;fill:#ffffff;fill-opacity:0.52156863;fill-rule:nonzero;stroke:none;stroke-width:0.2;marker:none;visibility:visible;display:inline;overflow:visible;enable-background:accumulate"
           d="m 23.9375,1010.9165 c -6.901436,0 -12.5,5.5985 -12.5,12.5 0,0.951 0.111244,1.8598 0.3125,2.75 -0.16646,-0.8135 -0.25,-1.6373 -0.25,-2.5 0,-6.9015 5.598564,-12.5 12.5,-12.5 5.607417,0 10.355344,3.6944 11.9375,8.7812 C 34.434163,1014.7337 29.635431,1010.9165 23.9375,1010.9165 z m 13.96875,9.6875 c 0.181873,0.9089 0.28125,1.8501 0.28125,2.8125 0,7.87 -6.379943,14.25 -14.25,14.25 -6.394421,0 -11.789536,-4.2306 -13.59375,-10.0313 1.725398,5.9284 7.171005,10.2813 13.65625,10.2813 7.870057,0 14.25,-6.38 14.25,-14.25 C 38.25,1022.6146 38.12251,1021.5909 37.90625,1020.604 Z"
           id="path1604"
           inkscape:connector-curvature="0" />
      </g>
    </g>
  </g>
</svg>
