<?xml version="1.0" encoding="UTF-8" standalone="no"?>
<!-- Created with Inkscape (http://www.inkscape.org/) -->

<svg
   xmlns:dc="http://purl.org/dc/elements/1.1/"
   xmlns:cc="http://creativecommons.org/ns#"
   xmlns:rdf="http://www.w3.org/1999/02/22-rdf-syntax-ns#"
   xmlns:svg="http://www.w3.org/2000/svg"
   xmlns="http://www.w3.org/2000/svg"
   xmlns:xlink="http://www.w3.org/1999/xlink"
   xmlns:sodipodi="http://sodipodi.sourceforge.net/DTD/sodipodi-0.dtd"
   xmlns:inkscape="http://www.inkscape.org/namespaces/inkscape"
   width="48"
   height="48"
   id="svg2"
   version="1.1"
   inkscape:version="0.48+devel r12149"
   sodipodi:docname="thunderbird.svg">
  <defs
     id="defs4">
    <linearGradient
       id="linearGradient916"
       inkscape:collect="always">
      <stop
         id="stop918"
         offset="0"
         style="stop-color:#c6a653;stop-opacity:1" />
      <stop
         id="stop920"
         offset="1"
         style="stop-color:#efde7f;stop-opacity:1" />
    </linearGradient>
    <linearGradient
       gradientUnits="userSpaceOnUse"
       y2="-1005.5164"
       x2="15.909904"
       y1="-1051.8319"
       x1="15.909904"
       id="linearGradient1439"
       xlink:href="#linearGradient916"
       inkscape:collect="always"
       gradientTransform="translate(2.5e-7,-8.6914065e-6)" />
    <linearGradient
       gradientTransform="matrix(1.5941642,0,0,1.5941642,-14.259948,977.11154)"
       gradientUnits="userSpaceOnUse"
       y2="19.461807"
       x2="26.465649"
       y1="47.242237"
       x1="26.465649"
       id="linearGradient1452"
       xlink:href="#linearGradient916"
       inkscape:collect="always" />
    <linearGradient
       y2="46.121311"
       x2="23.392626"
       y1="25.681141"
       x1="23.392626"
       gradientTransform="matrix(1.5941642,0,0,-1.5941642,-14.259948,1079.6128)"
       gradientUnits="userSpaceOnUse"
       id="linearGradient1489"
       xlink:href="#linearGradient916"
       inkscape:collect="always" />
  </defs>
  <sodipodi:namedview
     id="base"
     pagecolor="#ffffff"
     bordercolor="#666666"
     borderopacity="1.0"
     inkscape:pageopacity="0.0"
     inkscape:pageshadow="2"
     inkscape:zoom="2.828427"
     inkscape:cx="-28.764234"
     inkscape:cy="34.416564"
     inkscape:document-units="px"
     inkscape:current-layer="layer1"
     showgrid="false"
     inkscape:window-width="1366"
     inkscape:window-height="716"
     inkscape:window-x="0"
     inkscape:window-y="28"
     inkscape:window-maximized="1">
    <inkscape:grid
       type="xygrid"
       id="grid3850" />
  </sodipodi:namedview>
  <metadata
     id="metadata7">
    <rdf:RDF>
      <cc:Work
         rdf:about="">
        <dc:format>image/svg+xml</dc:format>
        <dc:type
           rdf:resource="http://purl.org/dc/dcmitype/StillImage" />
        <dc:title />
      </cc:Work>
    </rdf:RDF>
  </metadata>
  <g
     inkscape:label="Capa 1"
     inkscape:groupmode="layer"
     id="layer1"
     transform="translate(0,-1004.3622)">
    <g
       id="g974">
      <rect
         transform="scale(1,-1)"
         ry="1.9445436"
         y="-1052.3622"
         x="2.5626983e-07"
         height="48"
         width="48"
         id="rect2991-1"
         style="fill:url(#linearGradient1439);fill-opacity:1.0;stroke:none" />
      <path
         id="path1466"
         d="M 24,1023.081 2.5e-7,1041.8622 l 0,8.5625 c 0,1.0773 0.86022285,1.9375 1.93749995,1.9375 l 44.1249998,0 c 1.077277,0 1.9375,-0.8602 1.9375,-1.9375 l 0,-8.5625 L 24,1023.081 Z"
         style="color:#000000;fill:#000000;fill-opacity:0.30337112;fill-rule:nonzero;stroke:none;stroke-width:0.2;marker:none;visibility:visible;display:inline;overflow:visible;enable-background:accumulate"
         inkscape:connector-curvature="0" />
      <path
         id="path1441"
         d="m 24,1023.7372 -23.99999975,18.75 0,7.9375 c 0,1.0773 0.86022285,1.9375 1.93749995,1.9375 l 44.1249998,0 c 1.077277,0 1.9375,-0.8602 1.9375,-1.9375 l 0,-7.9375 L 24,1023.7372 Z"
         style="color:#000000;fill:url(#linearGradient1452);fill-opacity:1;fill-rule:nonzero;stroke:none;stroke-width:0.2;marker:none;visibility:visible;display:inline;overflow:visible;enable-background:accumulate"
         inkscape:connector-curvature="0" />
      <path
         id="path1485"
         d="m 1.9375002,1004.3622 c -1.0772771,0 -1.93749995,0.8602 -1.93749995,1.9375 l 0,8.5625 L 24,1033.6435 l 24,-18.7813 0,-8.5625 c 0,-1.0773 -0.860223,-1.9375 -1.9375,-1.9375 L 1.9375002,1004.3622 Z"
         style="color:#000000;fill:#000000;fill-opacity:0.30337112;fill-rule:nonzero;stroke:none;stroke-width:0.2;marker:none;visibility:visible;display:inline;overflow:visible;enable-background:accumulate"
         inkscape:connector-curvature="0" />
      <path
         inkscape:connector-curvature="0"
         id="path955"
         d="M 24,1023.7372 4.5e-7,1042.5185 l 0,0.9062 L 24,1024.6435 l 24,18.7812 0,-0.9062 L 24,1023.7372 Z"
         style="color:#000000;fill:#ffffff;fill-opacity:0.05847952;fill-rule:nonzero;stroke:none;stroke-width:0.2;marker:none;visibility:visible;display:inline;overflow:visible;enable-background:accumulate" />
      <path
         id="path1487"
         d="m 1.9375002,1004.3622 c -1.0772771,0 -1.93749995,0.8602 -1.93749995,1.9375 l 0,7.9375 L 24,1032.9872 l 24,-18.75 0,-7.9375 c 0,-1.0773 -0.860223,-1.9375 -1.9375,-1.9375 L 1.9375002,1004.3622 Z"
         style="color:#000000;fill:url(#linearGradient1489);fill-opacity:1;fill-rule:nonzero;stroke:none;stroke-width:0.2;marker:none;visibility:visible;display:inline;overflow:visible;enable-background:accumulate"
         inkscape:connector-curvature="0" />
      <path
         id="rect846"
         d="m -2.25e-6,1049.3622 0,1.0625 c 0,1.0773 0.860223,1.9375 1.93750005,1.9375 l 44.1249992,0 c 1.077277,0 1.937505,-0.8602 1.937505,-1.9375 l 0,-1.0625 c 0,1.0773 -0.860228,1.9375 -1.937505,1.9375 l -44.1249993,0 C 0.86022075,1051.2997 -2.25e-6,1050.4395 -2.25e-6,1049.3622 Z"
         style="fill:#000000;fill-opacity:1;stroke:none"
         inkscape:connector-curvature="0" />
      <path
         id="path7515"
         d="m 2.5312478,1005.0185 c -0.9170881,0 -1.67114705,0.6395 -1.84375005,1.5 0.33561205,-0.2799 0.77451205,-0.4375 1.25000005,-0.4375 l 44.1249992,0 c 0.475488,0 0.914388,0.1576 1.250005,0.4375 -0.172608,-0.8605 -0.926667,-1.5 -1.843755,-1.5 L 2.5312478,1005.0185 Z"
         style="fill:#ffffff;fill-opacity:0.5372549;stroke:none"
         inkscape:connector-curvature="0" />
      <path
         id="rect4280-0"
         d="m 1.9374978,1004.3622 c -1.07727705,0 -1.93750005,0.8602 -1.93750005,1.9375 l 0,43.0625 c 0,0.7934 0.480024,1.449 1.15625005,1.75 -0.30934205,-0.3333 -0.50000005,-0.7824 -0.50000005,-1.2812 l 0,-42.9375 c 0,-1.0482 0.82689905,-1.875 1.87500005,-1.875 l 42.9374992,0 c 1.048101,0 1.875005,0.8268 1.875005,1.875 l 0,42.9375 c 0,0.4988 -0.190663,0.9479 -0.500005,1.2812 0.676225,-0.301 1.156255,-0.9566 1.156255,-1.75 l 0,-43.0625 c 0,-1.0773 -0.860228,-1.9375 -1.937505,-1.9375 L 1.9374978,1004.3622 Z"
         style="fill:#000000;fill-opacity:0.39215686;stroke:none"
         inkscape:connector-curvature="0" />
      <path
         style="color:#000000;fill:#ffffff;fill-opacity:0.05847952;fill-rule:nonzero;stroke:none;stroke-width:0.2;marker:none;visibility:visible;display:inline;overflow:visible;enable-background:accumulate"
         d="M 24,1032.9872 4.5e-7,1014.2059 l 0,-0.9062 L 24,1032.0809 l 24,-18.7812 0,0.9062 L 24,1032.9872 Z"
         id="path960"
         inkscape:connector-curvature="0" />
    </g>
  </g>
</svg>
