<?xml version="1.0" encoding="UTF-8" standalone="no"?>
<!-- Created with Inkscape (http://www.inkscape.org/) -->

<svg
   xmlns:dc="http://purl.org/dc/elements/1.1/"
   xmlns:cc="http://creativecommons.org/ns#"
   xmlns:rdf="http://www.w3.org/1999/02/22-rdf-syntax-ns#"
   xmlns:svg="http://www.w3.org/2000/svg"
   xmlns="http://www.w3.org/2000/svg"
   xmlns:xlink="http://www.w3.org/1999/xlink"
   xmlns:sodipodi="http://sodipodi.sourceforge.net/DTD/sodipodi-0.dtd"
   xmlns:inkscape="http://www.inkscape.org/namespaces/inkscape"
   width="48"
   height="48"
   id="svg2"
   version="1.1"
   inkscape:version="0.48+devel r12149"
   sodipodi:docname="transmission.svg">
  <defs
     id="defs4">
    <linearGradient
       id="linearGradient987"
       inkscape:collect="always">
      <stop
         id="stop989"
         offset="0"
         style="stop-color:#808080;stop-opacity:1" />
      <stop
         style="stop-color:#efefef;stop-opacity:1;"
         offset="0.30000001"
         id="stop993" />
      <stop
         id="stop995"
         offset="0.75"
         style="stop-color:#9e9e9e;stop-opacity:1" />
      <stop
         id="stop991"
         offset="1"
         style="stop-color:#535353;stop-opacity:1" />
    </linearGradient>
    <linearGradient
       inkscape:collect="always"
       id="linearGradient930">
      <stop
         style="stop-color:#ffffff;stop-opacity:1;"
         offset="0"
         id="stop932" />
      <stop
         style="stop-color:#ffffff;stop-opacity:0;"
         offset="1"
         id="stop934" />
    </linearGradient>
    <linearGradient
       inkscape:collect="always"
       id="linearGradient920">
      <stop
         style="stop-color:#ffffff;stop-opacity:1;"
         offset="0"
         id="stop922" />
      <stop
         style="stop-color:#ffffff;stop-opacity:0;"
         offset="1"
         id="stop924" />
    </linearGradient>
    <linearGradient
       inkscape:collect="always"
       id="linearGradient885">
      <stop
         style="stop-color:#e6e6e6;stop-opacity:1;"
         offset="0"
         id="stop887" />
      <stop
         style="stop-color:#f9f9f9;stop-opacity:1"
         offset="1"
         id="stop889" />
    </linearGradient>
    <linearGradient
       id="linearGradient898">
      <stop
         id="stop900"
         offset="0"
         style="stop-color:#000000;stop-opacity:1" />
      <stop
         id="stop902"
         offset="1"
         style="stop-color:#4d4d4d;stop-opacity:1" />
    </linearGradient>
    <linearGradient
       inkscape:collect="always"
       xlink:href="#linearGradient885"
       id="linearGradient891"
       x1="23.249998"
       y1="-1049.9872"
       x2="23.249998"
       y2="-1007.3622"
       gradientUnits="userSpaceOnUse" />
    <linearGradient
       inkscape:collect="always"
       xlink:href="#linearGradient920"
       id="linearGradient926"
       x1="13.249999"
       y1="17.093752"
       x2="13.249999"
       y2="14.312502"
       gradientUnits="userSpaceOnUse"
       gradientTransform="translate(0.1875,1004.3622)" />
    <linearGradient
       inkscape:collect="always"
       xlink:href="#linearGradient930"
       id="linearGradient936"
       x1="12.702657"
       y1="7.6038308"
       x2="12.702657"
       y2="17.462015"
       gradientUnits="userSpaceOnUse" />
    <linearGradient
       inkscape:collect="always"
       xlink:href="#linearGradient987"
       id="linearGradient985"
       x1="12.033759"
       y1="1022.6195"
       x2="14.862186"
       y2="1022.6195"
       gradientUnits="userSpaceOnUse"
       gradientTransform="matrix(1,0,0,0.70449265,0,301.31658)" />
    <linearGradient
       inkscape:collect="always"
       xlink:href="#linearGradient898"
       id="linearGradient863"
       x1="80.256622"
       y1="-1056.017"
       x2="80.256622"
       y2="-1008.0245"
       gradientUnits="userSpaceOnUse"
       gradientTransform="translate(-52.721087,3.6706782)" />
  </defs>
  <sodipodi:namedview
     id="base"
     pagecolor="#ffffff"
     bordercolor="#666666"
     borderopacity="1.0"
     inkscape:pageopacity="0.0"
     inkscape:pageshadow="2"
     inkscape:zoom="5.6568542"
     inkscape:cx="38.81098"
     inkscape:cy="35.248076"
     inkscape:document-units="px"
     inkscape:current-layer="layer1"
     showgrid="false"
     inkscape:window-width="1366"
     inkscape:window-height="716"
     inkscape:window-x="0"
     inkscape:window-y="28"
     inkscape:window-maximized="1"
     showguides="false">
    <inkscape:grid
       type="xygrid"
       id="grid3850" />
  </sodipodi:namedview>
  <metadata
     id="metadata7">
    <rdf:RDF>
      <cc:Work
         rdf:about="">
        <dc:format>image/svg+xml</dc:format>
        <dc:type
           rdf:resource="http://purl.org/dc/dcmitype/StillImage" />
        <dc:title />
      </cc:Work>
    </rdf:RDF>
  </metadata>
  <g
     inkscape:label="Capa 1"
     inkscape:groupmode="layer"
     id="layer1"
     transform="translate(0,-1004.3622)">
    <rect
       style="fill:url(#linearGradient863);fill-opacity:1;stroke:none"
       id="rect2991-1"
       width="48"
       height="48"
       x="-2.7026367e-06"
       y="-1052.3622"
       ry="1.9445436"
       transform="scale(1,-1)" />
    <path
       inkscape:connector-curvature="0"
       style="fill:#000000;fill-opacity:1;stroke:none"
       d="m -1.2973633e-6,1049.3623 0,1.0625 c 0,1.0773 0.8602229973633,1.9375 1.9374999973633,1.9375 l 44.1250003,0 c 1.077277,0 1.937504,-0.8602 1.937504,-1.9375 l 0,-1.0625 c 0,1.0773 -0.860227,1.9375 -1.937504,1.9375 l -44.1250003,0 C 0.8602217,1051.2998 -1.2973633e-6,1050.4396 -1.2973633e-6,1049.3623 Z"
       id="rect846" />
    <path
       inkscape:connector-curvature="0"
       style="fill:#ffffff;fill-opacity:0.5372549;stroke:none"
       d="m 2.5312487,1005.0186 c -0.917088,0 -1.671146,0.6395 -1.84375,1.5 0.335612,-0.2799 0.774512,-0.4375 1.25,-0.4375 l 44.1250003,0 c 0.475488,0 0.914388,0.1576 1.250004,0.4375 -0.172607,-0.8605 -0.926666,-1.5 -1.843754,-1.5 L 2.5312487,1005.0186 Z"
       id="path7515" />
    <path
       inkscape:connector-curvature="0"
       style="fill:#000000;fill-opacity:0.39215686;stroke:none"
       d="m 1.9374987,1004.3623 c -1.077277,0 -1.9374999973633,0.8602 -1.9374999973633,1.9375 l 0,43.0625 c 0,0.7934 0.4800239973633,1.449 1.1562499973633,1.75 -0.309341,-0.3333 -0.5,-0.7824 -0.5,-1.2812 l 0,-42.9375 c 0,-1.0482 0.826899,-1.875 1.875,-1.875 l 42.9375003,0 c 1.048101,0 1.875004,0.8268 1.875004,1.875 l 0,42.9375 c 0,0.4988 -0.190662,0.9479 -0.500004,1.2812 0.676224,-0.301 1.156254,-0.9566 1.156254,-1.75 l 0,-43.0625 c 0,-1.0773 -0.860227,-1.9375 -1.937504,-1.9375 L 1.9374987,1004.3623 Z"
       id="rect4280-6" />
    <rect
       transform="scale(1,-1)"
       ry="1.7014757"
       y="-1049.3622"
       x="3"
       height="42"
       width="42"
       id="rect860"
       style="fill:url(#linearGradient891);fill-opacity:1;stroke:none" />
    <path
       style="color:#000000;fill:#333333;fill-opacity:1;fill-rule:nonzero;stroke:none;stroke-width:0.2;marker:none;visibility:visible;display:inline;overflow:visible;enable-background:accumulate"
       d="m 12.5,1016.1747 c -0.942618,0 -1.6875,0.7449 -1.6875,1.6875 l 0,21 c 0,0.9426 0.744882,1.6875 1.6875,1.6875 l 1.75,0 c 0.942618,0 1.6875,-0.7449 1.6875,-1.6875 l 0,-7.9375 5.375,0 0,7.9375 c 0,0.9426 0.744882,1.6875 1.6875,1.6875 l 1.75,0 c 0.942618,0 1.6875,-0.7449 1.6875,-1.6875 l 0,-7.9375 5.625,0 0,7.9375 c 0,0.9426 0.744882,1.6875 1.6875,1.6875 l 1.75,0 c 0.942618,0 1.6875,-0.7449 1.6875,-1.6875 l 0,-21 c 0,-0.9426 -0.744882,-1.6875 -1.6875,-1.6875 l -1.75,0 c -0.942618,0 -1.6875,0.7449 -1.6875,1.6875 l 0,7.9375 -5.625,0 0,-7.9375 c 0,-0.9426 -0.744882,-1.6875 -1.6875,-1.6875 l -1.75,0 c -0.942618,0 -1.6875,0.7449 -1.6875,1.6875 l 0,7.9375 -5.375,0 0,-7.9375 c 0,-0.9426 -0.744882,-1.6875 -1.6875,-1.6875 L 12.5,1016.1747 Z"
       id="rect893"
       inkscape:connector-curvature="0" />
    <path
       style="color:#000000;fill:#000000;fill-opacity:0.27450982;fill-rule:nonzero;stroke:none;stroke-width:0.2;marker:none;visibility:visible;display:inline;overflow:visible;enable-background:accumulate"
       d="M 12.5 11.8125 C 11.557382 11.8125 10.8125 12.5574 10.8125 13.5 L 10.8125 14.4375 L 10.8125 33.5625 L 10.8125 34.5 C 10.8125 35.4426 11.557382 36.1875 12.5 36.1875 L 13.375 36.1875 L 14.25 36.1875 C 15.074791 36.1875 15.750788 35.617797 15.90625 34.84375 C 15.928459 34.733172 15.9375 34.617825 15.9375 34.5 L 15.9375 26.5625 L 15.1875 26.5625 L 15.1875 34.5 C 15.1875 34.678359 15.143383 34.839505 15.09375 35 C 14.841813 35.148468 14.567911 35.25 14.25 35.25 L 12.5 35.25 C 12.238779 35.25 12.000455 35.196517 11.78125 35.09375 C 11.712869 34.908854 11.6875 34.710788 11.6875 34.5 L 11.6875 13.5 C 11.6875 13.289212 11.712869 13.091146 11.78125 12.90625 C 12.000455 12.803483 12.238779 12.75 12.5 12.75 L 14.25 12.75 C 14.567911 12.75 14.841813 12.851532 15.09375 13 C 15.143383 13.160495 15.1875 13.321641 15.1875 13.5 L 15.1875 21.4375 L 15.9375 21.4375 L 15.9375 14.4375 L 15.9375 13.5 C 15.9375 12.5574 15.192618 11.8125 14.25 11.8125 L 13.5 11.8125 L 13.375 11.8125 L 12.5 11.8125 z M 15.9375 21.4375 L 15.9375 22.375 L 21.3125 22.375 L 21.3125 21.4375 L 15.9375 21.4375 z M 21.3125 21.4375 L 22.1875 21.4375 L 22.1875 13.5 C 22.1875 13.289212 22.212869 13.091146 22.28125 12.90625 C 22.500455 12.803483 22.738779 12.75 23 12.75 L 24.75 12.75 C 25.067911 12.75 25.341813 12.851532 25.59375 13 C 25.643383 13.160495 25.6875 13.321641 25.6875 13.5 L 25.6875 21.4375 L 26.4375 21.4375 L 26.4375 14.4375 L 26.4375 13.5 C 26.4375 12.5574 25.692618 11.8125 24.75 11.8125 L 24 11.8125 L 23.875 11.8125 L 23 11.8125 C 22.882173 11.8125 22.766829 11.821541 22.65625 11.84375 C 21.882195 11.999216 21.3125 12.675225 21.3125 13.5 L 21.3125 14.4375 L 21.3125 21.4375 z M 26.4375 21.4375 L 26.4375 22.375 L 32.0625 22.375 L 32.0625 21.4375 L 26.4375 21.4375 z M 32.0625 21.4375 L 32.9375 21.4375 L 32.9375 13.5 C 32.9375 13.289212 32.962869 13.091146 33.03125 12.90625 C 33.250455 12.803483 33.488779 12.75 33.75 12.75 L 35.5 12.75 C 35.817911 12.75 36.091813 12.851532 36.34375 13 C 36.393383 13.160495 36.4375 13.321641 36.4375 13.5 L 36.4375 34.5 C 36.4375 34.678359 36.393383 34.839505 36.34375 35 C 36.091813 35.148468 35.817911 35.25 35.5 35.25 L 33.75 35.25 C 33.488779 35.25 33.250455 35.196517 33.03125 35.09375 C 32.962869 34.908854 32.9375 34.710788 32.9375 34.5 L 32.9375 26.5625 L 32.0625 26.5625 L 32.0625 33.5625 L 32.0625 34.5 C 32.0625 35.4426 32.807382 36.1875 33.75 36.1875 L 34.625 36.1875 L 35.5 36.1875 C 36.324791 36.1875 37.000788 35.617797 37.15625 34.84375 C 37.178459 34.733172 37.1875 34.617825 37.1875 34.5 L 37.1875 14.4375 L 37.1875 13.5 C 37.1875 12.5574 36.442618 11.8125 35.5 11.8125 L 34.75 11.8125 L 34.625 11.8125 L 33.75 11.8125 C 33.632173 11.8125 33.516829 11.821541 33.40625 11.84375 C 32.632195 11.999216 32.0625 12.675225 32.0625 13.5 L 32.0625 14.4375 L 32.0625 21.4375 z M 32.0625 26.5625 L 32.0625 25.625 L 26.4375 25.625 L 26.4375 26.5625 L 32.0625 26.5625 z M 26.4375 26.5625 L 25.6875 26.5625 L 25.6875 34.5 C 25.6875 34.678359 25.643383 34.839505 25.59375 35 C 25.341813 35.148468 25.067911 35.25 24.75 35.25 L 23 35.25 C 22.738779 35.25 22.500455 35.196517 22.28125 35.09375 C 22.212869 34.908854 22.1875 34.710788 22.1875 34.5 L 22.1875 26.5625 L 21.3125 26.5625 L 21.3125 33.5625 L 21.3125 34.5 C 21.3125 35.4426 22.057382 36.1875 23 36.1875 L 23.875 36.1875 L 24.75 36.1875 C 25.574791 36.1875 26.250788 35.617797 26.40625 34.84375 C 26.428459 34.733172 26.4375 34.617825 26.4375 34.5 L 26.4375 26.5625 z M 21.3125 26.5625 L 21.3125 25.625 L 15.9375 25.625 L 15.9375 26.5625 L 21.3125 26.5625 z "
       transform="translate(0,1004.3622)"
       id="path955" />
    <g
       id="g997"
       transform="translate(21.21875,0)">
      <rect
         ry="0"
         y="1019.6585"
         x="12.033759"
         height="4.1720185"
         width="2.8284271"
         id="rect940"
         style="color:#000000;fill:url(#linearGradient985);fill-opacity:1;fill-rule:nonzero;stroke:none;stroke-width:0.2;marker:none;visibility:visible;display:inline;overflow:visible;enable-background:accumulate" />
      <path
         transform="translate(0.67585676,1003.9866)"
         d="m 17.279921,12.600469 c 0,2.489592 -2.018213,4.507805 -4.507805,4.507805 -2.489592,0 -4.5078056,-2.018213 -4.5078056,-4.507805 0,-2.489593 2.0182136,-4.5078057 4.5078056,-4.5078057 C 15.261708,8.0926633 17.279921,10.110876 17.279921,12.600469 Z"
         sodipodi:ry="4.5078053"
         sodipodi:rx="4.5078053"
         sodipodi:cy="12.600469"
         sodipodi:cx="12.772116"
         id="path902"
         style="color:#000000;fill:#000000;fill-opacity:1;fill-rule:nonzero;stroke:none;stroke-width:0.2;marker:none;visibility:visible;display:inline;overflow:visible;enable-background:accumulate"
         sodipodi:type="arc" />
      <path
         sodipodi:type="arc"
         style="color:#000000;fill:#333333;fill-opacity:1;fill-rule:nonzero;stroke:none;stroke-width:0.2;marker:none;visibility:visible;display:inline;overflow:visible;enable-background:accumulate"
         id="path904"
         sodipodi:cx="12.772116"
         sodipodi:cy="12.600469"
         sodipodi:rx="4.5078053"
         sodipodi:ry="4.5078053"
         d="m 17.279921,12.600469 c 0,2.489592 -2.018213,4.507805 -4.507805,4.507805 -2.489592,0 -4.5078056,-2.018213 -4.5078056,-4.507805 0,-2.489593 2.0182136,-4.5078057 4.5078056,-4.5078057 C 15.261708,8.0926633 17.279921,10.110876 17.279921,12.600469 Z"
         transform="matrix(0.87803258,0,0,0.87803258,2.2336388,1005.5234)" />
      <path
         sodipodi:type="arc"
         style="color:#000000;fill:#000000;fill-opacity:1;fill-rule:nonzero;stroke:none;stroke-width:0.2;marker:none;visibility:visible;display:inline;overflow:visible;enable-background:accumulate"
         id="path913"
         sodipodi:cx="12.772116"
         sodipodi:cy="12.600469"
         sodipodi:rx="4.5078053"
         sodipodi:ry="4.5078053"
         d="m 17.279921,12.600469 c 0,2.489592 -2.018213,4.507805 -4.507805,4.507805 -2.489592,0 -4.5078056,-2.018213 -4.5078056,-4.507805 0,-2.489593 2.0182136,-4.5078057 4.5078056,-4.5078057 C 15.261708,8.0926633 17.279921,10.110876 17.279921,12.600469 Z"
         transform="matrix(0.82253004,0,0,0.82253004,2.9425237,1006.2228)" />
      <path
         inkscape:connector-curvature="0"
         id="path915"
         d="m 9.78125,1016.2997 c -0.0072,0.094 -0.03125,0.185 -0.03125,0.2813 0,2.0477 1.639736,3.7187 3.6875,3.7187 2.047764,0 3.71875,-1.671 3.71875,-3.7187 0,-0.096 -0.02405,-0.1869 -0.03125,-0.2813 -0.160848,1.8993 -1.746537,3.4063 -3.6875,3.4063 C 11.496537,1019.706 9.9420979,1018.199 9.78125,1016.2997 Z"
         style="color:#000000;fill:url(#linearGradient926);fill-opacity:1;fill-rule:nonzero;stroke:none;stroke-width:0.2;marker:none;visibility:visible;display:inline;overflow:visible;enable-background:accumulate" />
      <path
         transform="matrix(0.6006926,0,0,0.41843407,5.7758572,1009.493)"
         d="m 17.279921,12.600469 c 0,2.489592 -2.018213,4.507805 -4.507805,4.507805 -2.489592,0 -4.5078056,-2.018213 -4.5078056,-4.507805 0,-2.489593 2.0182136,-4.5078057 4.5078056,-4.5078057 C 15.261708,8.0926633 17.279921,10.110876 17.279921,12.600469 Z"
         sodipodi:ry="4.5078053"
         sodipodi:rx="4.5078053"
         sodipodi:cy="12.600469"
         sodipodi:cx="12.772116"
         id="path928"
         style="color:#000000;fill:url(#linearGradient936);fill-opacity:1;fill-rule:nonzero;stroke:none;stroke-width:0.2;marker:none;visibility:visible;display:inline;overflow:visible;enable-background:accumulate"
         sodipodi:type="arc" />
      <path
         style="color:#000000;fill:#ffffff;fill-opacity:1;fill-rule:nonzero;stroke:none;stroke-width:0.2;marker:none;visibility:visible;display:inline;overflow:visible;enable-background:accumulate"
         d="m 11.54039,1014.5656 c -0.156358,0 -0.279917,0.1234 -0.279917,0.2798 l 0,3.4834 c 0,0.1566 0.12355,0.2798 0.279917,0.2798 l 0.290285,0 c 0.156357,0 0.279917,-0.1234 0.279917,-0.2798 l 0,-1.3165 0.891588,0 0,1.3165 c 0,0.1566 0.12355,0.2798 0.279915,0.2798 l 0.290286,0 c 0.156358,0 0.279918,-0.1234 0.279918,-0.2798 l 0,-1.3165 0.933055,0 0,1.3165 c 0,0.1566 0.123569,0.2798 0.279917,0.2798 l 0.290285,0 c 0.156358,0 0.279917,-0.1234 0.279917,-0.2798 l 0,-3.4834 c 0,-0.1566 -0.12355,-0.2798 -0.279917,-0.2798 l -0.290285,0 c -0.156357,0 -0.279917,0.1234 -0.279917,0.2798 l 0,1.3165 -0.933055,0 0,-1.3165 c 0,-0.1566 -0.123569,-0.2798 -0.279918,-0.2798 l -0.290286,0 c -0.156358,0 -0.279915,0.1234 -0.279915,0.2798 l 0,1.3165 -0.891588,0 0,-1.3165 c 0,-0.1566 -0.12355,-0.2798 -0.279917,-0.2798 L 11.54039,1014.5656 Z"
         id="path938"
         inkscape:connector-curvature="0" />
    </g>
  </g>
</svg>
