<?xml version="1.0" encoding="UTF-8" standalone="no"?>
<!-- Created with Inkscape (http://www.inkscape.org/) -->

<svg
   xmlns:dc="http://purl.org/dc/elements/1.1/"
   xmlns:cc="http://creativecommons.org/ns#"
   xmlns:rdf="http://www.w3.org/1999/02/22-rdf-syntax-ns#"
   xmlns:svg="http://www.w3.org/2000/svg"
   xmlns="http://www.w3.org/2000/svg"
   xmlns:xlink="http://www.w3.org/1999/xlink"
   xmlns:sodipodi="http://sodipodi.sourceforge.net/DTD/sodipodi-0.dtd"
   xmlns:inkscape="http://www.inkscape.org/namespaces/inkscape"
   width="48"
   height="48"
   id="svg1593"
   version="1.1"
   inkscape:version="0.48+devel r12149"
   sodipodi:docname="typeicon.svg">
  <defs
     id="defs1595">
    <linearGradient
       inkscape:collect="always"
       id="linearGradient821">
      <stop
         style="stop-color:#000000;stop-opacity:1;"
         offset="0"
         id="stop823" />
      <stop
         style="stop-color:#000000;stop-opacity:0;"
         offset="1"
         id="stop825" />
    </linearGradient>
    <linearGradient
       inkscape:collect="always"
       id="linearGradient1947">
      <stop
         style="stop-color:#e6e6e6;stop-opacity:1"
         offset="0"
         id="stop1949" />
      <stop
         style="stop-color:#ffffff;stop-opacity:1"
         offset="1"
         id="stop1951" />
    </linearGradient>
    <linearGradient
       inkscape:collect="always"
       id="linearGradient1939">
      <stop
         style="stop-color:#000000;stop-opacity:1;"
         offset="0"
         id="stop1941" />
      <stop
         style="stop-color:#4d4d4d;stop-opacity:1"
         offset="1"
         id="stop1943" />
    </linearGradient>
    <linearGradient
       inkscape:collect="always"
       xlink:href="#linearGradient1939"
       id="linearGradient1945"
       x1="27.859398"
       y1="1036.5752"
       x2="27.859398"
       y2="1003.1439"
       gradientUnits="userSpaceOnUse"
       gradientTransform="matrix(0.69696535,0,0,0.69696535,6.6637083,317.60808)" />
    <radialGradient
       inkscape:collect="always"
       xlink:href="#linearGradient821"
       id="radialGradient827"
       cx="25.199032"
       cy="40.284337"
       fx="25.199032"
       fy="40.284337"
       r="15.759655"
       gradientTransform="matrix(0.69696535,0,0,0.00726006,6.437148,1039.3356)"
       gradientUnits="userSpaceOnUse" />
    <radialGradient
       inkscape:collect="always"
       xlink:href="#linearGradient821"
       id="radialGradient831"
       gradientUnits="userSpaceOnUse"
       gradientTransform="matrix(0.69696535,0,0,0.00726006,6.437148,1016.804)"
       cx="25.199032"
       cy="40.284337"
       fx="25.199032"
       fy="40.284337"
       r="15.759655" />
    <radialGradient
       inkscape:collect="always"
       xlink:href="#linearGradient821"
       id="radialGradient835"
       gradientUnits="userSpaceOnUse"
       gradientTransform="matrix(1.0152507,0,0,0.00726006,1002.779,-32.443229)"
       cx="25.199032"
       cy="40.284337"
       fx="25.199032"
       fy="40.284337"
       r="15.759655" />
    <radialGradient
       inkscape:collect="always"
       xlink:href="#linearGradient821"
       id="radialGradient839"
       gradientUnits="userSpaceOnUse"
       gradientTransform="matrix(1.0152507,0,0,0.00726006,1002.779,-16.141579)"
       cx="25.199032"
       cy="40.284337"
       fx="25.199032"
       fy="40.284337"
       r="15.759655" />
    <radialGradient
       inkscape:collect="always"
       xlink:href="#linearGradient821"
       id="radialGradient843"
       gradientUnits="userSpaceOnUse"
       gradientTransform="matrix(1.0152507,0,0,0.00726006,1002.779,-20.429507)"
       cx="25.199032"
       cy="40.284337"
       fx="25.199032"
       fy="40.284337"
       r="15.759655" />
    <radialGradient
       inkscape:collect="always"
       xlink:href="#linearGradient821"
       id="radialGradient847"
       gradientUnits="userSpaceOnUse"
       gradientTransform="matrix(1.0152507,0,0,0.00726006,1002.779,-28.115416)"
       cx="25.199032"
       cy="40.284337"
       fx="25.199032"
       fy="40.284337"
       r="15.759655" />
    <linearGradient
       inkscape:collect="always"
       xlink:href="#linearGradient1947"
       id="linearGradient1532"
       x1="81.589043"
       y1="-1054.4764"
       x2="81.589043"
       y2="-1006.7249"
       gradientUnits="userSpaceOnUse" />
  </defs>
  <sodipodi:namedview
     id="base"
     pagecolor="#ffffff"
     bordercolor="#666666"
     borderopacity="1.0"
     inkscape:pageopacity="0.0"
     inkscape:pageshadow="2"
     inkscape:zoom="6.091504"
     inkscape:cx="19.246218"
     inkscape:cy="29.404121"
     inkscape:document-units="px"
     inkscape:current-layer="layer1"
     showgrid="false"
     inkscape:window-width="1366"
     inkscape:window-height="716"
     inkscape:window-x="0"
     inkscape:window-y="28"
     inkscape:window-maximized="1" />
  <metadata
     id="metadata1598">
    <rdf:RDF>
      <cc:Work
         rdf:about="">
        <dc:format>image/svg+xml</dc:format>
        <dc:type
           rdf:resource="http://purl.org/dc/dcmitype/StillImage" />
        <dc:title />
      </cc:Work>
    </rdf:RDF>
  </metadata>
  <g
     inkscape:label="Capa 1"
     inkscape:groupmode="layer"
     id="layer1"
     transform="translate(0,-1004.3622)">
    <g
       id="g1540"
       transform="translate(-51.679176,-2.1662712)">
      <rect
         transform="scale(1,-1)"
         ry="1.9445436"
         y="-1054.5284"
         x="51.679176"
         height="48"
         width="48"
         id="rect2991-1-9"
         style="fill:url(#linearGradient1532);fill-opacity:1;stroke:none" />
      <path
         id="rect846"
         d="m 51.679175,1051.5285 0,1.0625 c 0,1.0773 0.860223,1.9375 1.9375,1.9375 l 44.125,0 c 1.077277,0 1.9375,-0.8602 1.9375,-1.9375 l 0,-1.0625 c 0,1.0773 -0.860223,1.9375 -1.9375,1.9375 l -44.125,0 C 52.539398,1053.466 51.679175,1052.6058 51.679175,1051.5285 Z"
         style="fill:#000000;fill-opacity:1;stroke:none"
         inkscape:connector-curvature="0" />
      <path
         id="path7515"
         d="m 54.210425,1007.1848 c -0.917088,0 -1.671146,0.6395 -1.84375,1.5 0.335612,-0.2799 0.774512,-0.4375 1.25,-0.4375 l 44.125,0 c 0.475488,0 0.914388,0.1576 1.25,0.4375 -0.172603,-0.8605 -0.926662,-1.5 -1.84375,-1.5 L 54.210425,1007.1848 Z"
         style="fill:#ffffff;fill-opacity:0.5372549;stroke:none"
         inkscape:connector-curvature="0" />
      <path
         id="rect4280-4"
         d="m 53.616675,1006.5285 c -1.077277,0 -1.9375,0.8602 -1.9375,1.9375 l 0,43.0625 c 0,0.7934 0.480024,1.449 1.15625,1.75 -0.309341,-0.3333 -0.5,-0.7824 -0.5,-1.2812 l 0,-42.9375 c 0,-1.0482 0.826899,-1.875 1.875,-1.875 l 42.9375,0 c 1.048101,0 1.875,0.8268 1.875,1.875 l 0,42.9375 c 0,0.4988 -0.190658,0.9479 -0.5,1.2812 0.676226,-0.301 1.15625,-0.9566 1.15625,-1.75 l 0,-43.0625 c 0,-1.0773 -0.860223,-1.9375 -1.9375,-1.9375 L 53.616675,1006.5285 Z"
         style="fill:#000000;fill-opacity:0.39215686;stroke:none"
         inkscape:connector-curvature="0" />
    </g>
    <g
       id="g1551">
      <path
         inkscape:connector-curvature="0"
         id="rect1917"
         d="m 20.22507,1017.2108 0,4.2616 7.549861,0 0,3.6127 -7.549861,0 0,3.5904 -4.261479,0 0,7.08 4.261479,0 0,3.7582 7.605786,0 4.205554,0 0,-18.7684 -4.205554,0 0,-3.5345 L 20.22507,1017.2108 z m 0,12.1358 7.549861,0 0,5.9056 -7.549861,0 L 20.22507,1029.3466 Z"
         style="color:#000000;fill:url(#linearGradient1945);fill-opacity:1;fill-rule:nonzero;stroke:none;stroke-width:0.40000001;marker:none;visibility:visible;display:inline;overflow:visible;enable-background:accumulate" />
      <rect
         ry="0"
         y="1039.5138"
         x="13.016067"
         height="0.22883193"
         width="21.967867"
         id="rect819"
         style="color:#000000;fill:url(#radialGradient827);fill-opacity:1;fill-rule:nonzero;stroke:none;stroke-width:0.40000001;marker:none;visibility:visible;display:inline;overflow:visible;enable-background:accumulate" />
      <rect
         style="color:#000000;fill:url(#radialGradient831);fill-opacity:1;fill-rule:nonzero;stroke:none;stroke-width:0.40000001;marker:none;visibility:visible;display:inline;overflow:visible;enable-background:accumulate"
         id="rect829"
         width="21.967867"
         height="0.22883193"
         x="13.016067"
         y="1016.982"
         ry="0" />
      <rect
         transform="matrix(0,1,-1,0,0,0)"
         ry="0"
         y="-32.26524"
         x="1012.3622"
         height="0.22883193"
         width="32"
         id="rect833"
         style="color:#000000;fill:url(#radialGradient835);fill-opacity:1;fill-rule:nonzero;stroke:none;stroke-width:0.40000001;marker:none;visibility:visible;display:inline;overflow:visible;enable-background:accumulate" />
      <rect
         style="color:#000000;fill:url(#radialGradient839);fill-opacity:1;fill-rule:nonzero;stroke:none;stroke-width:0.40000001;marker:none;visibility:visible;display:inline;overflow:visible;enable-background:accumulate"
         id="rect837"
         width="32"
         height="0.22883193"
         x="1012.3622"
         y="-15.963591"
         ry="0"
         transform="matrix(0,1,-1,0,0,0)" />
      <rect
         transform="matrix(0,1,-1,0,0,0)"
         ry="0"
         y="-20.251518"
         x="1012.3622"
         height="0.22883193"
         width="32"
         id="rect841"
         style="color:#000000;fill:url(#radialGradient843);fill-opacity:1;fill-rule:nonzero;stroke:none;stroke-width:0.40000001;marker:none;visibility:visible;display:inline;overflow:visible;enable-background:accumulate" />
      <rect
         style="color:#000000;fill:url(#radialGradient847);fill-opacity:1;fill-rule:nonzero;stroke:none;stroke-width:0.40000001;marker:none;visibility:visible;display:inline;overflow:visible;enable-background:accumulate"
         id="rect845"
         width="32"
         height="0.22883193"
         x="1012.3622"
         y="-27.937428"
         ry="0"
         transform="matrix(0,1,-1,0,0,0)" />
      <path
         inkscape:connector-curvature="0"
         id="path1546"
         d="m 20.21875,1016.6211 0,0.5938 7.625,0 0,-0.5938 L 20.21875,1016.6211 z m 7.625,3.5313 0,0.5937 4.1875,0 0,-0.5937 L 27.84375,1020.1524 z m -7.625,4.3437 0,0.5938 7.5625,0 0,-0.5938 L 20.21875,1024.4961 z m -4.25,3.5938 0,0.5937 4.25,0 0,-0.5937 L 15.96875,1028.0899 z m 4.25,6.5625 0,0.5312 0,0.062 7.5625,0 0,-0.5937 L 20.21875,1034.6524 Z"
         style="color:#000000;fill:#000000;fill-opacity:0.55870444;fill-rule:nonzero;stroke:none;stroke-width:0.40000001;marker:none;visibility:visible;display:inline;overflow:visible;enable-background:accumulate" />
    </g>
  </g>
</svg>
