<?xml version="1.0" encoding="UTF-8" standalone="no"?>
<!-- Created with Inkscape (http://www.inkscape.org/) -->

<svg
   xmlns:dc="http://purl.org/dc/elements/1.1/"
   xmlns:cc="http://creativecommons.org/ns#"
   xmlns:rdf="http://www.w3.org/1999/02/22-rdf-syntax-ns#"
   xmlns:svg="http://www.w3.org/2000/svg"
   xmlns="http://www.w3.org/2000/svg"
   xmlns:xlink="http://www.w3.org/1999/xlink"
   xmlns:sodipodi="http://sodipodi.sourceforge.net/DTD/sodipodi-0.dtd"
   xmlns:inkscape="http://www.inkscape.org/namespaces/inkscape"
   width="48"
   height="48"
   id="svg2"
   version="1.1"
   inkscape:version="0.48+devel r12068"
   sodipodi:docname="grsync.svg">
  <defs
     id="defs4">
    <linearGradient
       inkscape:collect="always"
       id="linearGradient4602">
      <stop
         style="stop-color:#cccccc;stop-opacity:1"
         offset="0"
         id="stop4604" />
      <stop
         style="stop-color:#ffffff;stop-opacity:1"
         offset="1"
         id="stop4606" />
    </linearGradient>
    <linearGradient
       id="linearGradient861-5">
      <stop
         style="stop-color:#d35fbc;stop-opacity:1"
         offset="0"
         id="stop863-8" />
      <stop
         style="stop-color:#a02c89;stop-opacity:1"
         offset="1"
         id="stop865-3" />
    </linearGradient>
    <linearGradient
       inkscape:collect="always"
       xlink:href="#linearGradient861-5"
       id="linearGradient1427"
       x1="23.511299"
       y1="-1004.4973"
       x2="23.511299"
       y2="-1052.7573"
       gradientUnits="userSpaceOnUse" />
    <linearGradient
       inkscape:collect="always"
       xlink:href="#linearGradient4602"
       id="linearGradient4608"
       x1="25.986172"
       y1="40.045048"
       x2="25.986172"
       y2="8.5787992"
       gradientUnits="userSpaceOnUse"
       gradientTransform="matrix(0.93006493,0,0,0.93006493,1.6784415,1005.8226)" />
  </defs>
  <sodipodi:namedview
     id="base"
     pagecolor="#ffffff"
     bordercolor="#666666"
     borderopacity="1.0"
     inkscape:pageopacity="0.0"
     inkscape:pageshadow="2"
     inkscape:zoom="5.6568546"
     inkscape:cx="2.4088077"
     inkscape:cy="31.028454"
     inkscape:document-units="px"
     inkscape:current-layer="layer1"
     showgrid="false"
     inkscape:window-width="1366"
     inkscape:window-height="718"
     inkscape:window-x="0"
     inkscape:window-y="28"
     inkscape:window-maximized="1">
    <inkscape:grid
       type="xygrid"
       id="grid3850" />
  </sodipodi:namedview>
  <metadata
     id="metadata7">
    <rdf:RDF>
      <cc:Work
         rdf:about="">
        <dc:format>image/svg+xml</dc:format>
        <dc:type
           rdf:resource="http://purl.org/dc/dcmitype/StillImage" />
        <dc:title />
      </cc:Work>
    </rdf:RDF>
  </metadata>
  <g
     inkscape:label="Capa 1"
     inkscape:groupmode="layer"
     id="layer1"
     transform="translate(0,-1004.3622)">
    <rect
       style="fill:url(#linearGradient1427);fill-opacity:1;stroke:none"
       id="rect2991-1"
       width="48"
       height="48"
       x="-8.5906983e-08"
       y="-1052.3622"
       ry="1.9445436"
       transform="scale(1,-1)" />
    <path
       inkscape:connector-curvature="0"
       style="fill:#000000;fill-opacity:1;stroke:none"
       d="m -1.4093018e-8,1049.3622 0,1.0625 c 0,1.0773 0.860222904093018,1.9375 1.937500114093018,1.9375 l 44.1249999,0 c 1.077277,0 1.9375,-0.8602 1.9375,-1.9375 l 0,-1.0625 c 0,1.0773 -0.860223,1.9375 -1.9375,1.9375 l -44.1249999,0 C 0.86022289,1051.2997 -1.4093018e-8,1050.4395 -1.4093018e-8,1049.3622 Z"
       id="rect846" />
    <path
       inkscape:connector-curvature="0"
       style="fill:#ffffff;fill-opacity:0.5372549;stroke:none"
       d="m 2.5312501,1005.0185 c -0.917089,0 -1.67114691,0.6395 -1.84375011,1.5 0.33561201,-0.2799 0.77451211,-0.4375 1.25000011,-0.4375 l 44.1249999,0 c 0.475488,0 0.914388,0.1576 1.25,0.4375 -0.172603,-0.8605 -0.926662,-1.5 -1.84375,-1.5 L 2.5312501,1005.0185 Z"
       id="path7515" />
    <path
       inkscape:connector-curvature="0"
       style="fill:#000000;fill-opacity:0.39215686;stroke:none"
       d="m 1.9375001,1004.3622 c -1.07727711,0 -1.937500114093017,0.8602 -1.937500114093017,1.9375 l 0,43.0625 c 0,0.7934 0.480023604093017,1.449 1.156249914093017,1.75 -0.30934161,-0.3333 -0.49999991,-0.7824 -0.49999991,-1.2812 l 0,-42.9375 c 0,-1.0482 0.82689911,-1.875 1.87500011,-1.875 l 42.9374999,0 c 1.048101,0 1.875,0.8268 1.875,1.875 l 0,42.9375 c 0,0.4988 -0.190658,0.9479 -0.5,1.2812 0.676226,-0.301 1.15625,-0.9566 1.15625,-1.75 l 0,-43.0625 c 0,-1.0773 -0.860223,-1.9375 -1.9375,-1.9375 L 1.9375001,1004.3622 Z"
       id="rect4280" />
    <path
       style="color:#000000;fill:url(#linearGradient4608);fill-opacity:1;fill-rule:nonzero;stroke:none;stroke-width:0.2;marker:none;visibility:visible;display:inline;overflow:visible;enable-background:accumulate"
       d="m 19.872836,1013.2632 -14.2416185,4.6793 4.3596794,2.4996 c -0.4361233,1.2274 -0.6684842,2.5179 -0.6684842,3.8946 0,6.4748 5.2380443,11.7421 11.7130043,11.7421 1.266722,0 2.490309,-0.2388 3.633068,-0.6103 -4.698554,-1.5281 -8.109005,-5.9237 -8.109005,-11.1318 0,-0.034 -3.01e-4,-0.053 0,-0.087 l 6.365133,3.6622 L 19.872836,1013.2632 z m 7.091745,6.9464 c -1.266716,0 -2.490311,0.2387 -3.633066,0.6103 4.698549,1.5284 8.109004,5.9237 8.109004,11.1317 0,0.034 2.99e-4,0.053 0,0.087 l -6.365131,-3.6621 3.051774,14.6485 14.241621,-4.6794 -4.35968,-2.4995 c 0.436121,-1.2274 0.668485,-2.5179 0.668485,-3.8947 C 38.677586,1025.4768 33.439539,1020.2096 26.964581,1020.2096 Z"
       id="path1429"
       inkscape:connector-curvature="0" />
    <path
       style="color:#000000;fill:#ffffff;fill-opacity:0.11764706;fill-rule:nonzero;stroke:none;stroke-width:0.2;marker:none;visibility:visible;display:inline;overflow:visible;enable-background:accumulate"
       d="m 7.084444,1018.8144 -1.4532265,0.4651 4.0399695,2.2961 c 0.092464,-0.3737 0.1910382,-0.7423 0.3197099,-1.1044 L 7.084444,1018.8144 z m 18.194395,2.8775 c -0.667225,0.1064 -1.322294,0.2617 -1.947324,0.465 4.316127,1.4039 7.553812,5.2318 8.050875,9.8819 l 0.05813,0.029 c 2.99e-4,-0.034 0,-0.053 0,-0.088 C 31.440519,1027.5291 28.936774,1023.6731 25.278839,1021.6919 z m -8.719359,2.5867 c -3.01e-4,0.034 0,0.053 0,0.087 0,0.4269 0.01347,0.8349 0.05813,1.2497 l 6.307003,3.6331 -0.31971,-1.4825 L 16.55948,1024.2786 z m -7.2080028,0.5813 c -0.018368,0.2687 -0.029064,0.5384 -0.029064,0.8138 0,6.4747 5.2380438,11.742 11.7130038,11.742 1.266721,0 2.490309,-0.2387 3.633067,-0.6103 -0.681065,-0.2215 -1.326852,-0.5071 -1.947324,-0.8429 -0.552483,0.088 -1.112065,0.1454 -1.685743,0.1454 C 14.728336,1036.1079 9.6134317,1031.1031 9.3514772,1024.8599 z m 15.7239098,4.8538 3.051775,14.6485 14.24162,-4.6794 -1.453227,-0.8429 -12.788393,4.2143 -2.732065,-13.1661 L 25.075387,1029.7137 z m 13.573135,3.2842 c -0.0858,1.0013 -0.312329,1.9569 -0.63942,2.8775 l 0.31971,0.2034 c 0.220936,-0.8929 0.348776,-1.8196 0.348776,-2.7902 C 38.677588,1033.1897 38.650954,1033.0963 38.648522,1032.9979 Z"
       id="path4610"
       inkscape:connector-curvature="0" />
    <path
       style="color:#000000;fill:#000000;fill-opacity:0.25882353;fill-rule:nonzero;stroke:none;stroke-width:0.2;marker:none;visibility:visible;display:inline;overflow:visible;enable-background:accumulate"
       d="m 19.872836,1012.3622 -14.2416185,4.6793 1.0172585,0.5813 13.22436,-4.3305 2.81926,13.6022 0.232516,0.1162 L 19.872836,1012.3622 z m 7.091745,6.9464 c -1.266716,0 -2.490311,0.2387 -3.633066,0.6104 0.48101,0.1564 0.943365,0.3378 1.395098,0.5522 0.725392,-0.151 1.472793,-0.2326 2.237968,-0.2326 6.356314,0 11.496818,5.0817 11.683941,11.3933 0.0094,-0.1933 0.02907,-0.3845 0.02907,-0.5813 C 38.677586,1024.5758 33.439539,1019.3086 26.964581,1019.3086 z m -17.2062004,1.0173 c -0.2759568,0.9913 -0.4359679,2.0221 -0.4359679,3.1098 0,0.1187 0.025572,0.231 0.029064,0.3488 0.056433,-1.1592 0.2656378,-2.2613 0.6394197,-3.3133 L 9.7583806,1020.3259 z m 6.8010994,3.9528 c -3.01e-4,0.034 0,0.053 0,0.087 0,4.6749 2.753066,8.7002 6.713906,10.5795 0.475464,-0.099 0.942638,-0.2308 1.395099,-0.3778 -4.431565,-1.4413 -7.720841,-5.4411 -8.079941,-10.2598 L 16.55948,1024.2787 z m 8.515907,3.1971 0.232516,1.0463 6.132616,3.5459 c 2.99e-4,-0.034 0,-0.053 0,-0.088 0,-0.2959 -0.0074,-0.5816 -0.02906,-0.8719 L 25.075387,1027.4758 z m 13.166232,7.6149 c -0.07334,0.2634 -0.140946,0.5269 -0.232517,0.7847 l 3.342421,1.9182 1.01726,-0.3488 L 38.241619,1035.0907 Z"
       id="path4617"
       inkscape:connector-curvature="0" />
  </g>
</svg>
