<?xml version="1.0" encoding="UTF-8" standalone="no"?>
<!-- Created with Inkscape (http://www.inkscape.org/) -->

<svg
   xmlns:dc="http://purl.org/dc/elements/1.1/"
   xmlns:cc="http://creativecommons.org/ns#"
   xmlns:rdf="http://www.w3.org/1999/02/22-rdf-syntax-ns#"
   xmlns:svg="http://www.w3.org/2000/svg"
   xmlns="http://www.w3.org/2000/svg"
   xmlns:xlink="http://www.w3.org/1999/xlink"
   xmlns:sodipodi="http://sodipodi.sourceforge.net/DTD/sodipodi-0.dtd"
   xmlns:inkscape="http://www.inkscape.org/namespaces/inkscape"
   width="48"
   height="48"
   id="svg2"
   version="1.1"
   inkscape:version="0.48+devel r12149"
   sodipodi:docname="vim.svg">
  <defs
     id="defs4">
    <linearGradient
       inkscape:collect="always"
       id="linearGradient1253">
      <stop
         style="stop-color:#000000;stop-opacity:1;"
         offset="0"
         id="stop1255" />
      <stop
         style="stop-color:#000000;stop-opacity:0;"
         offset="1"
         id="stop1257" />
    </linearGradient>
    <linearGradient
       id="linearGradient848">
      <stop
         id="stop850"
         offset="0"
         style="stop-color:#045b26;stop-opacity:1" />
      <stop
         id="stop852"
         offset="1"
         style="stop-color:#29b335;stop-opacity:1" />
    </linearGradient>
    <linearGradient
       inkscape:collect="always"
       id="linearGradient36">
      <stop
         style="stop-color:#f9f9f9;stop-opacity:1"
         offset="0"
         id="stop38" />
      <stop
         style="stop-color:#ffffff;stop-opacity:1"
         offset="1"
         id="stop40" />
    </linearGradient>
    <linearGradient
       inkscape:collect="always"
       xlink:href="#linearGradient36"
       id="linearGradient42"
       x1="-28.222109"
       y1="-1053.5743"
       x2="-28.222109"
       y2="-1005.7397"
       gradientUnits="userSpaceOnUse"
       gradientTransform="translate(54.93592,1.1957917)" />
    <linearGradient
       inkscape:collect="always"
       xlink:href="#linearGradient848"
       id="linearGradient46"
       gradientUnits="userSpaceOnUse"
       x1="-28.222109"
       y1="-1053.5743"
       x2="-28.222109"
       y2="-1005.7397"
       gradientTransform="matrix(0.87499999,0,0,0.87499999,51.06893,-127.49896)" />
    <linearGradient
       inkscape:collect="always"
       xlink:href="#linearGradient1253"
       id="linearGradient1259"
       x1="22.96875"
       y1="2.703125"
       x2="22.96875"
       y2="3.4375"
       gradientUnits="userSpaceOnUse" />
    <linearGradient
       inkscape:collect="always"
       xlink:href="#linearGradient1253"
       id="linearGradient1263"
       gradientUnits="userSpaceOnUse"
       x1="22.96875"
       y1="2.703125"
       x2="22.96875"
       y2="3.4375"
       gradientTransform="matrix(1,0,0,-1,0,1052.3622)" />
    <linearGradient
       inkscape:collect="always"
       xlink:href="#linearGradient1253"
       id="linearGradient1269"
       gradientUnits="userSpaceOnUse"
       x1="22.96875"
       y1="2.703125"
       x2="22.96875"
       y2="3.4375"
       gradientTransform="matrix(0,1,-1,0,48,1004.3622)" />
    <linearGradient
       inkscape:collect="always"
       xlink:href="#linearGradient1253"
       id="linearGradient1271"
       gradientUnits="userSpaceOnUse"
       gradientTransform="matrix(0,1,1,0,0,1004.3622)"
       x1="22.96875"
       y1="2.703125"
       x2="22.96875"
       y2="3.4375" />
  </defs>
  <sodipodi:namedview
     id="base"
     pagecolor="#ffffff"
     bordercolor="#666666"
     borderopacity="1.0"
     inkscape:pageopacity="0.0"
     inkscape:pageshadow="2"
     inkscape:zoom="2.8284271"
     inkscape:cx="-67.867013"
     inkscape:cy="14.346401"
     inkscape:document-units="px"
     inkscape:current-layer="layer1"
     showgrid="false"
     inkscape:window-width="1366"
     inkscape:window-height="716"
     inkscape:window-x="0"
     inkscape:window-y="28"
     inkscape:window-maximized="1">
    <inkscape:grid
       type="xygrid"
       id="grid3850" />
  </sodipodi:namedview>
  <metadata
     id="metadata7">
    <rdf:RDF>
      <cc:Work
         rdf:about="">
        <dc:format>image/svg+xml</dc:format>
        <dc:type
           rdf:resource="http://purl.org/dc/dcmitype/StillImage" />
        <dc:title />
      </cc:Work>
    </rdf:RDF>
  </metadata>
  <g
     inkscape:label="Capa 1"
     inkscape:groupmode="layer"
     id="layer1"
     transform="translate(0,-1004.3622)">
    <rect
       style="fill:url(#linearGradient42);fill-opacity:1;stroke:none"
       id="rect2991-1"
       width="48"
       height="48"
       x="-4.5766603e-07"
       y="-1052.3622"
       ry="1.9445436"
       transform="scale(1,-1)" />
    <path
       inkscape:connector-curvature="0"
       style="fill:#000000;fill-opacity:1;stroke:none"
       d="m 2.5766601e-7,1049.3622 0,1.0625 c 0,1.0773 0.86022300233399,1.9375 1.93750004233399,1.9375 l 44.1249997,0 c 1.077277,0 1.9375,-0.8602 1.9375,-1.9375 l 0,-1.0625 c 0,1.0773 -0.860223,1.9375 -1.9375,1.9375 l -44.1249997,0 C 0.86022326,1051.2997 2.5766601e-7,1050.4395 2.5766601e-7,1049.3622 Z"
       id="rect846" />
    <path
       inkscape:connector-curvature="0"
       style="fill:#ffffff;fill-opacity:0.5372549;stroke:none"
       d="m 2.5312503,1005.0185 c -0.917088,0 -1.67114704,0.6395 -1.84375004,1.5 0.33561204,-0.2799 0.77451204,-0.4375 1.25000004,-0.4375 l 44.1249997,0 c 0.475488,0 0.914388,0.1576 1.25,0.4375 -0.172603,-0.8605 -0.926662,-1.5 -1.84375,-1.5 L 2.5312503,1005.0185 Z"
       id="path7515" />
    <path
       inkscape:connector-curvature="0"
       style="fill:#000000;fill-opacity:0.39215686;stroke:none"
       d="m 1.9375003,1004.3622 c -1.07727704,0 -1.93750004233399,0.8602 -1.93750004233399,1.9375 l 0,43.0625 c 0,0.7934 0.48002400233399,1.449 1.15625004233399,1.75 -0.30934104,-0.3333 -0.50000004,-0.7824 -0.50000004,-1.2812 l 0,-42.9375 c 0,-1.0482 0.82689904,-1.875 1.87500004,-1.875 l 42.9374997,0 c 1.048101,0 1.875,0.8268 1.875,1.875 l 0,42.9375 c 0,0.4988 -0.190658,0.9479 -0.5,1.2812 0.676226,-0.301 1.15625,-0.9566 1.15625,-1.75 l 0,-43.0625 c 0,-1.0773 -0.860223,-1.9375 -1.9375,-1.9375 L 1.9375003,1004.3622 Z"
       id="rect4280" />
    <flowRoot
       xml:space="preserve"
       id="flowRoot61"
       style="fill:black;stroke:none;stroke-opacity:1;stroke-width:1px;stroke-linejoin:miter;stroke-linecap:butt;fill-opacity:1;font-family:sans-serif;font-style:normal;font-weight:normal;font-size:40px;line-height:125%;letter-spacing:0px;word-spacing:0px"><flowRegion
         id="flowRegion63"><rect
           id="rect65"
           width="57.6292"
           height="49.320694"
           x="-53.033005"
           y="6.6342559" /></flowRegion><flowPara
         id="flowPara67" /></flowRoot>    <rect
       transform="scale(1,-1)"
       ry="1.7014757"
       y="-1049.3622"
       x="2.9999995"
       height="42"
       width="42"
       id="rect44"
       style="fill:url(#linearGradient46);fill-opacity:1;stroke:none" />
    <g
       style="font-size:1.48814976px;font-style:normal;font-weight:normal;line-height:125%;letter-spacing:0px;word-spacing:0px;fill:#ffffff;fill-opacity:0.5372549;stroke:none;font-family:sans-serif"
       id="text93">
      <path
         d="m 5.708766,1016.9903 -0.211451,0 -0.061037,0.2427 0.2129043,0 L 5.708766,1016.9903 z m -0.1089953,-0.4134 -0.07557,0.3015 0.2121777,0 0.076297,-0.3015 0.1162617,0 -0.074844,0.3015 0.2267103,0 0,0.1119 -0.2550491,0 -0.059584,0.2427 0.2310701,0 0,0.1112 -0.2594089,0 -0.07557,0.3008 -0.1162617,0 0.074844,-0.3008 -0.2129043,0 -0.074843,0.3008 -0.1169884,0 0.07557,-0.3008 -0.2288902,0 0,-0.1112 0.2557758,0 0.061037,-0.2427 -0.2339767,0 0,-0.1119 0.2623154,0 0.074117,-0.3015 L 5.5997707,1016.5769 Z"
         style=""
         id="path875" />
      <path
         d="m 6.3351259,1016.8312 0.133701,0 0,0.8138 -0.133701,0 L 6.3351259,1016.8312 z m 0,-0.3168 0.133701,0 0,0.1693 -0.133701,0 L 6.3351259,1016.5144 Z"
         style=""
         id="path877" />
      <path
         d="m 7.4243527,1017.1538 0,0.4912 -0.1337009,0 0,-0.4868 q 0,-0.1156 -0.045051,-0.173 -0.045051,-0.057 -0.1351543,-0.057 -0.1082687,0 -0.1707593,0.069 -0.062491,0.069 -0.062491,0.1882 l 0,0.4599 -0.1344276,0 0,-0.8138 0.1344276,0 0,0.1264 q 0.047958,-0.073 0.1126285,-0.1097 0.065397,-0.036 0.1504136,-0.036 0.1402407,0 0.2121776,0.087 Q 7.4243527,1016.9852 7.4243527,1017.1538 Z"
         style=""
         id="path879" />
      <path
         d="m 8.2781496,1016.8624 0,0.125 q -0.056678,-0.031 -0.1140818,-0.046 -0.056678,-0.016 -0.1148084,-0.016 -0.1300678,0 -0.2020047,0.083 -0.071937,0.082 -0.071937,0.231 0,0.149 0.071937,0.2318 0.071937,0.082 0.2020047,0.082 0.058131,0 0.1148084,-0.015 0.057404,-0.016 0.1140818,-0.047 l 0,0.1236 q -0.055951,0.026 -0.1162617,0.039 -0.059584,0.013 -0.1271612,0.013 -0.1838388,0 -0.2921076,-0.1155 -0.1082687,-0.1156 -0.1082687,-0.3118 0,-0.1991 0.1089954,-0.3131 0.109722,-0.1141 0.3001005,-0.1141 0.061764,0 0.1206215,0.013 Q 8.2229253,1016.837 8.2781496,1016.8624 Z"
         style=""
         id="path881" />
      <path
         d="m 8.5121262,1016.5144 0.133701,0 0,1.1306 -0.133701,0 L 8.5121262,1016.5144 Z"
         style=""
         id="path883" />
      <path
         d="m 8.9110492,1017.3238 0,-0.4926 0.1337009,0 0,0.4876 q 0,0.1155 0.045051,0.1736 0.045051,0.057 0.1351543,0.057 0.1082687,0 0.1707593,-0.069 0.063217,-0.069 0.063217,-0.1882 l 0,-0.4614 0.133701,0 0,0.8138 -0.133701,0 0,-0.125 q -0.048685,0.074 -0.1133551,0.1105 -0.063944,0.036 -0.1489603,0.036 -0.1402407,0 -0.2129043,-0.087 Q 8.9110492,1017.4917 8.9110492,1017.3238 Z M 9.2474815,1016.8116 9.2474815,1016.8116 Z"
         style=""
         id="path885" />
      <path
         d="m 10.405012,1016.9547 0,-0.4403 0.133701,0 0,1.1306 -0.133701,0 0,-0.1221 q -0.04214,0.073 -0.106815,0.1083 -0.06394,0.035 -0.154047,0.035 -0.1475072,0 -0.2405166,-0.1177 -0.092283,-0.1177 -0.092283,-0.3096 0,-0.1918 0.092283,-0.3095 0.093009,-0.1177 0.2405166,-0.1177 0.0901,0 0.154047,0.036 Q 10.362867,1016.8821 10.405012,1016.9547 z m -0.4556005,0.2841 q 0,0.1475 0.06031,0.2318 0.06104,0.084 0.167126,0.084 0.106089,0 0.167127,-0.084 0.06104,-0.084 0.06104,-0.2318 0,-0.1475 -0.06104,-0.231 -0.06104,-0.084 -0.167127,-0.084 -0.106088,0 -0.167126,0.084 Q 9.9494115,1017.0913 9.9494115,1017.2388 Z"
         style=""
         id="path887" />
      <path
         d="m 11.510225,1017.2047 0,0.065 -0.614734,0 q 0.0087,0.138 0.08284,0.2107 0.07484,0.072 0.207817,0.072 0.07702,0 0.148961,-0.019 0.07266,-0.019 0.143873,-0.057 l 0,0.1264 q -0.07194,0.03 -0.147507,0.046 -0.07557,0.016 -0.15332,0.016 -0.194738,0 -0.30882,-0.1134 -0.113355,-0.1133 -0.113355,-0.3066 0,-0.1998 0.107542,-0.3168 0.108269,-0.1177 0.291381,-0.1177 0.16422,0 0.259409,0.1061 Q 11.510225,1017.023 11.510225,1017.2047 z m -0.133701,-0.039 q -0.0015,-0.1097 -0.06176,-0.1751 -0.05958,-0.065 -0.158407,-0.065 -0.111902,0 -0.179479,0.063 -0.06685,0.063 -0.07702,0.1781 L 11.376524,1017.1654 Z"
         style=""
         id="path889" />
      <path
         d="m 13.152422,1016.9126 -0.749888,0.2666 0.749888,0.2653 0,0.1322 -0.931547,-0.3379 0,-0.1206 0.931547,-0.3379 L 13.152422,1016.9126 Z"
         style=""
         id="path891" />
      <path
         d="m 13.96916,1016.8552 0,0.1264 q -0.05668,-0.029 -0.117715,-0.044 -0.06104,-0.014 -0.126435,-0.014 -0.09955,0 -0.149687,0.03 -0.04941,0.031 -0.04941,0.091 0,0.047 0.03561,0.073 0.03561,0.026 0.143147,0.05 l 0.04578,0.01 q 0.142421,0.031 0.202005,0.087 0.06031,0.055 0.06031,0.1548 0,0.1133 -0.0901,0.1795 -0.08938,0.066 -0.24633,0.066 -0.0654,0 -0.136607,-0.013 -0.07048,-0.012 -0.14896,-0.038 l 0,-0.138 q 0.07412,0.038 0.146053,0.058 0.07194,0.019 0.142421,0.019 0.09446,0 0.145327,-0.032 0.05086,-0.033 0.05086,-0.091 0,-0.054 -0.03706,-0.084 -0.03633,-0.029 -0.160586,-0.056 l -0.0465,-0.011 q -0.124255,-0.026 -0.179479,-0.08 -0.05522,-0.054 -0.05522,-0.1489 0,-0.1149 0.08138,-0.1773 0.08138,-0.062 0.23107,-0.062 0.07412,0 0.139514,0.011 Q 13.913935,1016.8334 13.96916,1016.8552 Z"
         style=""
         id="path893" />
      <path
         d="m 14.358636,1016.6001 0,0.2311 0.275395,0 0,0.1039 -0.275395,0 0,0.4418 q 0,0.1 0.02689,0.1279 0.02761,0.028 0.111175,0.028 l 0.137334,0 0,0.1119 -0.137334,0 q -0.154773,0 -0.213631,-0.057 -0.05886,-0.058 -0.05886,-0.2107 l 0,-0.4418 -0.0981,0 0,-0.1039 0.0981,0 0,-0.2311 L 14.358636,1016.6001 Z"
         style=""
         id="path895" />
      <path
         d="m 15.346134,1016.9547 0,-0.4403 0.133701,0 0,1.1306 -0.133701,0 0,-0.1221 q -0.04214,0.073 -0.106815,0.1083 -0.06394,0.035 -0.154047,0.035 -0.147507,0 -0.240517,-0.1177 -0.09228,-0.1177 -0.09228,-0.3096 0,-0.1918 0.09228,-0.3095 0.09301,-0.1177 0.240517,-0.1177 0.0901,0 0.154047,0.036 Q 15.303989,1016.8821 15.346134,1016.9547 z m -0.4556,0.2841 q 0,0.1475 0.06031,0.2318 0.06104,0.084 0.167126,0.084 0.106089,0 0.167127,-0.084 0.06104,-0.084 0.06104,-0.2318 0,-0.1475 -0.06104,-0.231 -0.06104,-0.084 -0.167127,-0.084 -0.106088,0 -0.167126,0.084 Q 14.890534,1017.0913 14.890534,1017.2388 Z"
         style=""
         id="path897" />
      <path
         d="m 15.75523,1016.8312 0.133701,0 0,0.8138 -0.133701,0 L 15.75523,1016.8312 z m 0,-0.3168 0.133701,0 0,0.1693 -0.133701,0 L 15.75523,1016.5144 Z"
         style=""
         id="path899" />
      <path
         d="m 16.48332,1016.9249 q -0.107543,0 -0.170033,0.084 -0.06249,0.084 -0.06249,0.2296 0,0.1461 0.06176,0.2304 0.06249,0.083 0.17076,0.083 0.106815,0 0.169306,-0.084 0.06249,-0.084 0.06249,-0.2296 0,-0.1446 -0.06249,-0.2289 Q 16.590135,1016.9249 16.48332,1016.9249 z m 0,-0.1133 q 0.174392,0 0.273941,0.1133 0.09955,0.1134 0.09955,0.3139 0,0.1999 -0.09955,0.3139 -0.09955,0.1134 -0.273941,0.1134 -0.17512,0 -0.274669,-0.1134 -0.09882,-0.114 -0.09882,-0.3139 0,-0.2005 0.09882,-0.3139 Q 16.3082,1016.8116 16.48332,1016.8116 Z"
         style=""
         id="path901" />
      <path
         d="m 17.070441,1017.4605 0.15332,0 0,0.1845 -0.15332,0 L 17.070441,1017.4605 Z"
         style=""
         id="path903" />
      <path
         d="m 18.201813,1017.1538 0,0.4912 -0.133701,0 0,-0.4868 q 0,-0.1156 -0.04505,-0.173 -0.04505,-0.057 -0.135154,-0.057 -0.108269,0 -0.170759,0.069 -0.06249,0.069 -0.06249,0.1882 l 0,0.4599 -0.134428,0 0,-1.1306 0.134428,0 0,0.4432 q 0.04796,-0.073 0.112628,-0.1097 0.0654,-0.036 0.150414,-0.036 0.140241,0 0.212178,0.087 Q 18.201813,1016.9852 18.201813,1017.1538 Z"
         style=""
         id="path905" />
      <path
         d="m 18.48738,1016.9126 0,-0.1323 0.931547,0.3379 0,0.1206 -0.931547,0.3379 0,-0.1322 0.748435,-0.2653 L 18.48738,1016.9126 Z"
         style=""
         id="path907" />
      <path
         d="m 5.0882192,1020.5516 0.1337009,0 0,0.8138 -0.1337009,0 L 5.0882192,1020.5516 z m 0,-0.3169 0.1337009,0 0,0.1694 -0.1337009,0 L 5.0882192,1020.2347 Z"
         style=""
         id="path909" />
      <path
         d="m 6.177446,1020.8742 0,0.4912 -0.133701,0 0,-0.4869 q 0,-0.1155 -0.045051,-0.1729 -0.045051,-0.057 -0.1351542,-0.057 -0.1082687,0 -0.1707594,0.069 -0.062491,0.069 -0.062491,0.1882 l 0,0.46 -0.1344276,0 0,-0.8138 0.1344276,0 0,0.1264 q 0.047958,-0.073 0.1126286,-0.1097 0.065397,-0.036 0.1504135,-0.036 0.1402407,0 0.2121776,0.087 Q 6.177446,1020.7056 6.177446,1020.8742 Z"
         style=""
         id="path911" />
      <path
         d="m 6.5778222,1020.3205 0,0.2311 0.2753949,0 0,0.1039 -0.2753949,0 0,0.4418 q 0,0.1 0.026885,0.1279 0.027612,0.028 0.1111753,0.028 l 0.1373341,0 0,0.1119 -0.1373341,0 q -0.1547734,0 -0.2136309,-0.057 -0.058857,-0.058 -0.058857,-0.2107 l 0,-0.4418 -0.098096,0 0,-0.1039 0.098096,0 0,-0.2311 L 6.5778222,1020.3205 Z"
         style=""
         id="path913" />
      <path
         d="m 8.1371823,1020.7078 q 0.050138,-0.09 0.1198949,-0.133 0.069757,-0.043 0.1642196,-0.043 0.1271612,0 0.1961916,0.089 0.06903,0.089 0.06903,0.2529 l 0,0.4912 -0.1344276,0 0,-0.4869 q 0,-0.1169 -0.041418,-0.1736 -0.041418,-0.057 -0.1264346,-0.057 -0.1039089,0 -0.1642197,0.069 -0.060311,0.069 -0.060311,0.1882 l 0,0.46 -0.1344276,0 0,-0.4869 q 0,-0.1177 -0.041418,-0.1736 -0.041418,-0.057 -0.1278879,-0.057 -0.1024556,0 -0.1627664,0.07 -0.060311,0.069 -0.060311,0.1874 l 0,0.46 -0.1344276,0 0,-0.8138 0.1344276,0 0,0.1264 q 0.045778,-0.075 0.1097219,-0.1105 0.063944,-0.036 0.1518669,-0.036 0.08865,0 0.1504136,0.045 Q 8.1073902,1020.622 8.1371823,1020.7078 Z"
         style=""
         id="path915" />
      <path
         d="m 9.3237781,1020.9563 q -0.1620397,0 -0.2245304,0.037 -0.062491,0.037 -0.062491,0.1264 0,0.071 0.046505,0.1133 0.047231,0.041 0.1278878,0.041 0.1111753,0 0.1780257,-0.078 0.067577,-0.079 0.067577,-0.21 l 0,-0.03 L 9.3237781,1020.9563 z m 0.2666753,-0.055 0,0.4643 -0.1337009,0 0,-0.1235 q -0.045778,0.074 -0.1140818,0.1097 -0.068304,0.035 -0.1671262,0.035 -0.1249814,0 -0.1990982,-0.07 -0.07339,-0.07 -0.07339,-0.1882 0,-0.1373 0.091556,-0.2071 0.092283,-0.07 0.2746683,-0.07 l 0.187472,0 0,-0.013 q 0,-0.092 -0.061037,-0.1424 -0.060311,-0.051 -0.1700328,-0.051 -0.069757,0 -0.1358808,0.017 -0.066124,0.017 -0.1271613,0.05 l 0,-0.1235 q 0.07339,-0.028 0.1424206,-0.042 0.06903,-0.015 0.1344276,-0.015 0.1765725,0 0.2637687,0.092 Q 9.5904534,1020.7151 9.5904534,1020.9011 Z"
         style=""
         id="path917" />
      <path
         d="m 9.8665752,1020.5516 0.1337008,0 0,0.8138 -0.1337008,0 L 9.8665752,1020.5516 z m 0,-0.3169 0.1337008,0 0,0.1694 -0.1337008,0 L 9.8665752,1020.2347 Z"
         style=""
         id="path919" />
      <path
         d="m 10.955802,1020.8742 0,0.4912 -0.133701,0 0,-0.4869 q 0,-0.1155 -0.04505,-0.1729 -0.04505,-0.057 -0.135154,-0.057 -0.108268,0 -0.170759,0.069 -0.06249,0.069 -0.06249,0.1882 l 0,0.46 -0.134427,0 0,-0.8138 0.134427,0 0,0.1264 q 0.04796,-0.073 0.112629,-0.1097 0.0654,-0.036 0.150413,-0.036 0.140241,0 0.212178,0.087 Q 10.955802,1020.7056 10.955802,1020.8742 Z"
         style=""
         id="path921" />
      <path
         d="m 11.545103,1020.2362 q -0.09737,0.1671 -0.1446,0.3306 -0.04723,0.1635 -0.04723,0.3314 0,0.1678 0.04723,0.3328 0.04796,0.1642 0.1446,0.3306 l -0.116261,0 q -0.108996,-0.1708 -0.163493,-0.3357 -0.05377,-0.165 -0.05377,-0.3277 0,-0.1621 0.05377,-0.3263 0.05377,-0.1642 0.163493,-0.3357 L 11.545103,1020.2362 Z"
         style=""
         id="path923" />
      <path
         d="m 11.784166,1020.2362 0.116262,0 q 0.108995,0.1715 0.162766,0.3357 0.0545,0.1642 0.0545,0.3263 0,0.1627 -0.0545,0.3277 -0.05377,0.1649 -0.162766,0.3357 l -0.116262,0 q 0.09664,-0.1664 0.143874,-0.3306 0.04796,-0.165 0.04796,-0.3328 0,-0.1679 -0.04796,-0.3314 Q 11.880809,1020.4033 11.784166,1020.2362 Z"
         style=""
         id="path925" />
      <path
         d="m 5.708766,1023.3636 0,0.1047 -0.045051,0 q -0.1809323,0 -0.2426963,-0.054 -0.061037,-0.054 -0.061037,-0.2144 l 0,-0.1736 q 0,-0.1097 -0.039238,-0.1519 -0.039238,-0.042 -0.1424206,-0.042 l -0.044325,0 0,-0.1039 0.044325,0 q 0.1039089,0 0.1424206,-0.042 0.039238,-0.042 0.039238,-0.1504 l 0,-0.1744 q 0,-0.1605 0.061037,-0.2136 0.061764,-0.054 0.2426963,-0.054 l 0.045051,0 0,0.1039 -0.049411,0 q -0.1024556,0 -0.133701,0.032 -0.031245,0.032 -0.031245,0.1344 l 0,0.1803 q 0,0.114 -0.033425,0.1656 -0.032699,0.052 -0.1126285,0.07 0.080657,0.02 0.1133552,0.071 0.032699,0.052 0.032699,0.1649 l 0,0.1802 q 0,0.1025 0.031245,0.1345 0.031245,0.032 0.133701,0.032 L 5.708766,1023.3636 Z"
         style=""
         id="path927" />
      <path
         d="m 6.035752,1024.2719 0.133701,0 0,0.8139 -0.133701,0 L 6.035752,1024.2719 z m 0,-0.3168 0.133701,0 0,0.1693 -0.133701,0 L 6.035752,1023.9551 Z"
         style=""
         id="path929" />
      <path
         d="m 7.1249789,1024.5946 0,0.4912 -0.133701,0 0,-0.4869 q 0,-0.1155 -0.045051,-0.1729 -0.045051,-0.057 -0.1351542,-0.057 -0.1082687,0 -0.1707594,0.069 -0.062491,0.069 -0.062491,0.1882 l 0,0.46 -0.1344276,0 0,-0.8139 0.1344276,0 0,0.1265 q 0.047958,-0.073 0.1126286,-0.1098 0.065397,-0.036 0.1504135,-0.036 0.1402407,0 0.2121776,0.087 Q 7.1249789,1024.426 7.1249789,1024.5946 Z"
         style=""
         id="path931" />
      <path
         d="m 7.5253551,1024.0409 0,0.231 0.2753949,0 0,0.1039 -0.2753949,0 0,0.4418 q 0,0.1 0.026886,0.1279 0.027612,0.028 0.1111753,0.028 l 0.1373341,0 0,0.1119 -0.1373341,0 q -0.1547734,0 -0.2136309,-0.057 -0.058858,-0.058 -0.058858,-0.2108 l 0,-0.4418 -0.098096,0 0,-0.1039 0.098096,0 0,-0.231 L 7.5253551,1024.0409 Z"
         style=""
         id="path933" />
      <path
         d="m 8.8209464,1024.6767 q -0.1620397,0 -0.2245304,0.037 -0.062491,0.037 -0.062491,0.1265 0,0.071 0.046505,0.1133 0.047231,0.041 0.1278878,0.041 0.1111753,0 0.1780258,-0.078 0.067577,-0.079 0.067577,-0.21 l 0,-0.03 L 8.8209464,1024.6767 z m 0.2666753,-0.055 0,0.4644 -0.1337009,0 0,-0.1236 q -0.045778,0.074 -0.1140818,0.1098 -0.068304,0.035 -0.1671262,0.035 -0.1249813,0 -0.1990982,-0.07 -0.07339,-0.071 -0.07339,-0.1882 0,-0.1373 0.091556,-0.2071 0.092283,-0.07 0.2746683,-0.07 l 0.187472,0 0,-0.013 q 0,-0.092 -0.061037,-0.1425 -0.060311,-0.051 -0.1700328,-0.051 -0.069757,0 -0.1358808,0.017 -0.066124,0.017 -0.1271613,0.05 l 0,-0.1235 q 0.07339,-0.028 0.1424206,-0.042 0.06903,-0.014 0.1344276,-0.014 0.1765725,0 0.2637687,0.092 Q 9.0876217,1024.4354 9.0876217,1024.6214 Z"
         style=""
         id="path935" />
      <path
         d="m 9.3978952,1024.3163 0.1533201,0 0,0.1845 -0.1533201,0 L 9.3978952,1024.3163 z m 0,0.5849 0.1533201,0 0,0.125 -0.1191682,0.2325 -0.093736,0 0.059584,-0.2325 L 9.3978952,1024.9012 Z"
         style=""
         id="path937" />
      <path
         d="m 6.1650931,1028.6841 0,0.4316 -0.1344275,0 0,-1.1234 0.1344275,0 0,0.1235 q 0.042145,-0.073 0.1060888,-0.1075 0.064671,-0.036 0.1540468,-0.036 0.1482337,0 0.2405164,0.1177 0.093009,0.1177 0.093009,0.3096 0,0.1918 -0.093009,0.3095 -0.092283,0.1177 -0.2405164,0.1177 -0.089376,0 -0.1540468,-0.035 Q 6.207238,1028.7567 6.1650931,1028.6841 Z M 6.619967,1028.4 q 0,-0.1476 -0.061037,-0.2311 -0.060311,-0.084 -0.1663996,-0.084 -0.1060888,0 -0.1671262,0.084 -0.060311,0.084 -0.060311,0.2311 0,0.1475 0.060311,0.2318 0.061037,0.083 0.1671262,0.083 0.1060888,0 0.1663996,-0.083 Q 6.619967,1028.5475 6.619967,1028.4 Z"
         style=""
         id="path939" />
      <path
         d="m 7.4519649,1028.1173 q -0.022526,-0.013 -0.049411,-0.019 -0.026159,-0.01 -0.058131,-0.01 -0.1133551,0 -0.1743925,0.074 -0.060311,0.073 -0.060311,0.2114 l 0,0.4287 -0.1344276,0 0,-0.8138 0.1344276,0 0,0.1264 q 0.042145,-0.074 0.109722,-0.1097 0.067577,-0.036 0.1642197,-0.036 0.013806,0 0.030519,0 0.016713,0 0.037058,0.01 L 7.4519649,1028.1173 Z"
         style=""
         id="path941" />
      <path
         d="m 7.5936589,1027.9923 0.133701,0 0,0.8138 -0.133701,0 L 7.5936589,1027.9923 z m 0,-0.3168 0.133701,0 0,0.1693 -0.133701,0 L 7.5936589,1027.6755 Z"
         style=""
         id="path943" />
      <path
         d="m 8.6828855,1028.3149 0,0.4912 -0.133701,0 0,-0.4868 q 0,-0.1155 -0.045051,-0.1729 -0.045051,-0.057 -0.1351542,-0.057 -0.1082687,0 -0.1707594,0.069 -0.062491,0.069 -0.062491,0.1882 l 0,0.4599 -0.1344276,0 0,-0.8138 0.1344276,0 0,0.1264 q 0.047958,-0.073 0.1126285,-0.1097 0.065397,-0.036 0.1504136,-0.036 0.1402406,0 0.2121776,0.087 Q 8.6828855,1028.1464 8.6828855,1028.3149 Z"
         style=""
         id="path945" />
      <path
         d="m 9.0832617,1027.7612 0,0.2311 0.2753949,0 0,0.1039 -0.2753949,0 0,0.4418 q 0,0.1 0.026886,0.1279 0.027612,0.028 0.1111752,0.028 l 0.1373341,0 0,0.1119 -0.1373341,0 q -0.1547734,0 -0.2136309,-0.057 -0.058858,-0.058 -0.058858,-0.2107 l 0,-0.4418 -0.098096,0 0,-0.1039 0.098096,0 0,-0.2311 L 9.0832617,1027.7612 Z"
         style=""
         id="path947" />
      <path
         d="m 9.9472316,1027.6755 0,0.1112 -0.1278879,0 q -0.071937,0 -0.1002757,0.029 -0.027612,0.029 -0.027612,0.1047 l 0,0.072 0.2201706,0 0,0.1039 -0.2201706,0 0,0.7099 -0.1344276,0 0,-0.7099 -0.1278879,0 0,-0.1039 0.1278879,0 0,-0.057 q 0,-0.1358 0.063217,-0.1976 0.063217,-0.062 0.2005514,-0.062 L 9.9472316,1027.6755 Z"
         style=""
         id="path949" />
      <path
         d="m 10.37958,1027.677 q -0.09737,0.1671 -0.144601,0.3306 -0.04723,0.1635 -0.04723,0.3313 0,0.1679 0.04723,0.3328 0.04796,0.1642 0.144601,0.3306 l -0.116262,0 q -0.108995,-0.1707 -0.163493,-0.3357 -0.05377,-0.1649 -0.05377,-0.3277 0,-0.162 0.05377,-0.3262 0.05377,-0.1643 0.163493,-0.3357 L 10.37958,1027.677 Z"
         style=""
         id="path951" />
      <path
         d="m 10.76615,1027.7213 0,0.4033 -0.123528,0 0,-0.4033 L 10.76615,1027.7213 z m 0.274668,0 0,0.4033 -0.123528,0 0,-0.4033 L 11.040818,1027.7213 Z"
         style=""
         id="path953" />
      <path
         d="m 11.331472,1027.7213 0.685944,0 0,0.1235 -0.539163,0 0,0.3212 0.516638,0 0,0.1235 -0.516638,0 0,0.3931 0.552243,0 0,0.1235 -0.699024,0 L 11.331472,1027.7213 Z"
         style=""
         id="path955" />
      <path
         d="m 12.943877,1028.3149 0,0.4912 -0.133701,0 0,-0.4868 q 0,-0.1155 -0.04505,-0.1729 -0.04505,-0.057 -0.135155,-0.057 -0.108268,0 -0.170759,0.069 -0.06249,0.069 -0.06249,0.1882 l 0,0.4599 -0.134427,0 0,-0.8138 0.134427,0 0,0.1264 q 0.04796,-0.073 0.112629,-0.1097 0.0654,-0.036 0.150414,-0.036 0.14024,0 0.212177,0.087 Q 12.943877,1028.1464 12.943877,1028.3149 Z"
         style=""
         id="path957" />
      <path
         d="m 13.344253,1027.7612 0,0.2311 0.275395,0 0,0.1039 -0.275395,0 0,0.4418 q 0,0.1 0.02689,0.1279 0.02761,0.028 0.111176,0.028 l 0.137334,0 0,0.1119 -0.137334,0 q -0.154774,0 -0.213631,-0.057 -0.05886,-0.058 -0.05886,-0.2107 l 0,-0.4418 -0.0981,0 0,-0.1039 0.0981,0 0,-0.2311 L 13.344253,1027.7612 Z"
         style=""
         id="path959" />
      <path
         d="m 14.492337,1028.3658 0,0.065 -0.614734,0 q 0.0087,0.1381 0.08284,0.2107 0.07484,0.072 0.207818,0.072 0.07702,0 0.14896,-0.019 0.07266,-0.019 0.143874,-0.057 l 0,0.1264 q -0.07194,0.031 -0.147507,0.047 -0.07557,0.016 -0.15332,0.016 -0.194739,0 -0.30882,-0.1133 -0.113356,-0.1134 -0.113356,-0.3067 0,-0.1998 0.107543,-0.3168 0.108268,-0.1177 0.29138,-0.1177 0.16422,0 0.259409,0.1061 Q 14.492337,1028.1841 14.492337,1028.3658 z m -0.133701,-0.039 q -0.0015,-0.1098 -0.06176,-0.1752 -0.05958,-0.065 -0.158406,-0.065 -0.111902,0 -0.179479,0.063 -0.06685,0.063 -0.07702,0.178 L 14.358636,1028.3266 Z"
         style=""
         id="path961" />
      <path
         d="m 15.183368,1028.1173 q -0.02253,-0.013 -0.04941,-0.019 -0.02616,-0.01 -0.05813,-0.01 -0.113355,0 -0.174392,0.074 -0.06031,0.073 -0.06031,0.2114 l 0,0.4287 -0.134427,0 0,-0.8138 0.134427,0 0,0.1264 q 0.04214,-0.074 0.109722,-0.1097 0.06758,-0.036 0.16422,-0.036 0.01381,0 0.03052,0 0.01671,0 0.03706,0.01 L 15.183368,1028.1173 Z"
         style=""
         id="path963" />
      <path
         d="m 16.168686,1028.397 q -0.16204,0 -0.22453,0.037 -0.06249,0.037 -0.06249,0.1264 0,0.071 0.0465,0.1134 0.04723,0.041 0.127888,0.041 0.111175,0 0.178025,-0.079 0.06758,-0.079 0.06758,-0.21 l 0,-0.03 L 16.168686,1028.397 z m 0.266675,-0.055 0,0.4643 -0.133701,0 0,-0.1235 q -0.04578,0.074 -0.114081,0.1097 -0.0683,0.035 -0.167127,0.035 -0.124981,0 -0.199098,-0.07 -0.07339,-0.071 -0.07339,-0.1882 0,-0.1374 0.09156,-0.2071 0.09228,-0.07 0.274668,-0.07 l 0.187472,0 0,-0.013 q 0,-0.092 -0.06104,-0.1424 -0.06031,-0.051 -0.170033,-0.051 -0.06976,0 -0.135881,0.017 -0.06612,0.017 -0.127161,0.05 l 0,-0.1235 q 0.07339,-0.028 0.142421,-0.042 0.06903,-0.014 0.134427,-0.014 0.176573,0 0.263769,0.091 Q 16.435361,1028.1558 16.435361,1028.3418 Z"
         style=""
         id="path965" />
      <path
         d="m 17.38798,1028.3149 0,0.4912 -0.133701,0 0,-0.4868 q 0,-0.1155 -0.04505,-0.1729 -0.04505,-0.057 -0.135154,-0.057 -0.108269,0 -0.17076,0.069 -0.06249,0.069 -0.06249,0.1882 l 0,0.4599 -0.134428,0 0,-0.8138 0.134428,0 0,0.1264 q 0.04796,-0.073 0.112628,-0.1097 0.0654,-0.036 0.150414,-0.036 0.14024,0 0.212177,0.087 Q 17.38798,1028.1464 17.38798,1028.3149 Z"
         style=""
         id="path967" />
      <path
         d="m 18.129876,1027.9923 0.133701,0 0,0.8138 -0.133701,0 L 18.129876,1027.9923 z m 0,-0.3168 0.133701,0 0,0.1693 -0.133701,0 L 18.129876,1027.6755 Z"
         style=""
         id="path969" />
      <path
         d="m 19.219102,1028.3149 0,0.4912 -0.133701,0 0,-0.4868 q 0,-0.1155 -0.04505,-0.1729 -0.04505,-0.057 -0.135154,-0.057 -0.108269,0 -0.170759,0.069 -0.06249,0.069 -0.06249,0.1882 l 0,0.4599 -0.134427,0 0,-0.8138 0.134427,0 0,0.1264 q 0.04796,-0.073 0.112629,-0.1097 0.0654,-0.036 0.150413,-0.036 0.140241,0 0.212178,0.087 Q 19.219102,1028.1464 19.219102,1028.3149 Z"
         style=""
         id="path971" />
      <path
         d="m 19.619478,1027.7612 0,0.2311 0.275395,0 0,0.1039 -0.275395,0 0,0.4418 q 0,0.1 0.02689,0.1279 0.02761,0.028 0.111175,0.028 l 0.137334,0 0,0.1119 -0.137334,0 q -0.154773,0 -0.213631,-0.057 -0.05886,-0.058 -0.05886,-0.2107 l 0,-0.4418 -0.0981,0 0,-0.1039 0.0981,0 0,-0.2311 L 19.619478,1027.7612 Z"
         style=""
         id="path973" />
      <path
         d="m 20.767563,1028.3658 0,0.065 -0.614734,0 q 0.0087,0.1381 0.08284,0.2107 0.07484,0.072 0.207817,0.072 0.07702,0 0.148961,-0.019 0.07266,-0.019 0.143874,-0.057 l 0,0.1264 q -0.07194,0.031 -0.147507,0.047 -0.07557,0.016 -0.153321,0.016 -0.194738,0 -0.30882,-0.1133 -0.113355,-0.1134 -0.113355,-0.3067 0,-0.1998 0.107542,-0.3168 0.108269,-0.1177 0.291381,-0.1177 0.16422,0 0.259409,0.1061 Q 20.767563,1028.1841 20.767563,1028.3658 z m -0.133701,-0.039 q -0.0015,-0.1098 -0.06176,-0.1752 -0.05958,-0.065 -0.158407,-0.065 -0.111902,0 -0.179479,0.063 -0.06685,0.063 -0.07702,0.178 L 20.633862,1028.3266 Z"
         style=""
         id="path975" />
      <path
         d="m 21.522537,1028.3898 q 0,-0.1453 -0.06031,-0.2253 -0.05958,-0.08 -0.167852,-0.08 -0.107543,0 -0.167853,0.08 -0.05958,0.08 -0.05958,0.2253 0,0.1446 0.05958,0.2245 0.06031,0.08 0.167853,0.08 0.108268,0 0.167852,-0.08 Q 21.522537,1028.5344 21.522537,1028.3898 z m 0.133701,0.3153 q 0,0.2079 -0.09228,0.3089 -0.09228,0.1017 -0.282661,0.1017 -0.07048,0 -0.132974,-0.011 -0.06249,-0.01 -0.121348,-0.032 l 0,-0.13 q 0.05886,0.032 0.116261,0.047 0.05741,0.015 0.116989,0.015 0.131521,0 0.196918,-0.069 0.0654,-0.068 0.0654,-0.2071 l 0,-0.066 q -0.04142,0.072 -0.106089,0.1075 -0.06467,0.036 -0.154773,0.036 -0.149687,0 -0.241243,-0.114 -0.09156,-0.1141 -0.09156,-0.3023 0,-0.1889 0.09156,-0.303 0.09156,-0.1141 0.241243,-0.1141 0.0901,0 0.154773,0.036 0.06467,0.036 0.106089,0.1075 l 0,-0.1235 0.133701,0 L 21.656238,1028.7051 Z"
         style=""
         id="path977" />
      <path
         d="m 22.62775,1028.3658 0,0.065 -0.614733,0 q 0.0087,0.1381 0.08284,0.2107 0.07484,0.072 0.207818,0.072 0.07702,0 0.14896,-0.019 0.07266,-0.019 0.143874,-0.057 l 0,0.1264 q -0.07194,0.031 -0.147507,0.047 -0.07557,0.016 -0.15332,0.016 -0.194738,0 -0.30882,-0.1133 -0.113355,-0.1134 -0.113355,-0.3067 0,-0.1998 0.107542,-0.3168 0.108268,-0.1177 0.291381,-0.1177 0.164219,0 0.259409,0.1061 Q 22.62775,1028.1841 22.62775,1028.3658 z m -0.133701,-0.039 q -0.0015,-0.1098 -0.06176,-0.1752 -0.05958,-0.065 -0.158406,-0.065 -0.111902,0 -0.179479,0.063 -0.06685,0.063 -0.07702,0.178 L 22.494049,1028.3266 Z"
         style=""
         id="path979" />
      <path
         d="m 23.31878,1028.1173 q -0.02253,-0.013 -0.04941,-0.019 -0.02616,-0.01 -0.05813,-0.01 -0.113355,0 -0.174393,0.074 -0.06031,0.073 -0.06031,0.2114 l 0,0.4287 -0.134427,0 0,-0.8138 0.134427,0 0,0.1264 q 0.04214,-0.074 0.109722,-0.1097 0.06758,-0.036 0.16422,-0.036 0.01381,0 0.03052,0 0.01671,0 0.03706,0.01 L 23.31878,1028.1173 Z"
         style=""
         id="path981" />
      <path
         d="m 23.443762,1027.7213 0.37785,1.2229 -0.123528,0 -0.37785,-1.2229 L 23.443762,1027.7213 Z"
         style=""
         id="path983" />
      <path
         d="m 24.639805,1028.3149 0,0.4912 -0.133701,0 0,-0.4868 q 0,-0.1155 -0.04505,-0.1729 -0.04505,-0.057 -0.135154,-0.057 -0.108269,0 -0.170759,0.069 -0.06249,0.069 -0.06249,0.1882 l 0,0.4599 -0.134428,0 0,-0.8138 0.134428,0 0,0.1264 q 0.04796,-0.073 0.112629,-0.1097 0.0654,-0.036 0.150413,-0.036 0.140241,0 0.212178,0.087 Q 24.639805,1028.1464 24.639805,1028.3149 Z"
         style=""
         id="path985" />
      <path
         d="m 25.034367,1027.7213 0,0.4033 -0.123528,0 0,-0.4033 L 25.034367,1027.7213 z m 0.274669,0 0,0.4033 -0.123528,0 0,-0.4033 L 25.309036,1027.7213 Z"
         style=""
         id="path987" />
      <path
         d="m 25.572804,1027.677 0.116262,0 q 0.108995,0.1714 0.162766,0.3357 0.0545,0.1642 0.0545,0.3262 0,0.1628 -0.0545,0.3277 -0.05377,0.165 -0.162766,0.3357 l -0.116262,0 q 0.09664,-0.1664 0.143874,-0.3306 0.04796,-0.1649 0.04796,-0.3328 0,-0.1678 -0.04796,-0.3313 Q 25.669446,1027.8441 25.572804,1027.677 Z"
         style=""
         id="path989" />
      <path
         d="m 26.209337,1028.0366 0.15332,0 0,0.1846 -0.15332,0 L 26.209337,1028.0366 z m 0,0.585 0.15332,0 0,0.125 -0.119169,0.2325 -0.09374,0 0.05959,-0.2325 L 26.209337,1028.6216 Z"
         style=""
         id="path991" />
      <path
         d="m 6.5545698,1029.8765 0,0.1264 q -0.056678,-0.029 -0.1177149,-0.044 -0.061037,-0.014 -0.1264346,-0.014 -0.099549,0 -0.149687,0.031 -0.049411,0.03 -0.049411,0.092 0,0.046 0.035605,0.073 0.035605,0.026 0.1431472,0.05 l 0.045778,0.01 q 0.1424206,0.031 0.2020047,0.086 0.060311,0.055 0.060311,0.1548 0,0.1134 -0.090103,0.1795 -0.089376,0.066 -0.2463295,0.066 -0.065397,0 -0.1366075,-0.013 -0.070484,-0.012 -0.1489603,-0.038 l 0,-0.138 q 0.074117,0.039 0.1460537,0.058 0.071937,0.019 0.1424206,0.019 0.094463,0 0.1453272,-0.032 0.050864,-0.033 0.050864,-0.091 0,-0.054 -0.037058,-0.084 -0.036332,-0.029 -0.1605864,-0.056 l -0.046505,-0.011 q -0.1242547,-0.026 -0.179479,-0.08 -0.055224,-0.055 -0.055224,-0.1489 0,-0.1148 0.081383,-0.1773 0.081383,-0.062 0.2310701,-0.062 0.074117,0 0.139514,0.011 Q 6.4993455,1029.8547 6.5545698,1029.8765 Z"
         style=""
         id="path993" />
      <path
         d="m 7.3974671,1029.8837 0,0.125 q -0.056678,-0.031 -0.1140818,-0.047 -0.056678,-0.016 -0.1148084,-0.016 -0.1300678,0 -0.2020047,0.083 -0.071937,0.082 -0.071937,0.231 0,0.149 0.071937,0.2318 0.071937,0.082 0.2020047,0.082 0.058131,0 0.1148084,-0.015 0.057404,-0.016 0.1140818,-0.047 l 0,0.1235 q -0.055951,0.026 -0.1162617,0.039 -0.059584,0.013 -0.1271612,0.013 -0.1838388,0 -0.2921075,-0.1155 -0.1082687,-0.1156 -0.1082687,-0.3118 0,-0.1991 0.1089953,-0.3131 0.109722,-0.1141 0.3001005,-0.1141 0.061764,0 0.1206215,0.013 Q 7.3422428,1029.8583 7.3974671,1029.8837 Z"
         style=""
         id="path995" />
      <path
         d="m 8.0013015,1030.2572 q -0.1620397,0 -0.2245304,0.037 -0.062491,0.037 -0.062491,0.1264 0,0.071 0.046505,0.1134 0.047231,0.041 0.1278879,0.041 0.1111752,0 0.1780257,-0.078 0.067577,-0.079 0.067577,-0.21 l 0,-0.03 L 8.0013015,1030.2572 z m 0.2666753,-0.055 0,0.4643 -0.133701,0 0,-0.1235 q -0.045778,0.074 -0.1140818,0.1097 -0.068304,0.035 -0.1671262,0.035 -0.1249813,0 -0.1990981,-0.07 -0.07339,-0.07 -0.07339,-0.1882 0,-0.1373 0.091556,-0.207 0.092283,-0.07 0.2746682,-0.07 l 0.187472,0 0,-0.013 q 0,-0.092 -0.061037,-0.1424 -0.060311,-0.051 -0.1700327,-0.051 -0.069757,0 -0.1358809,0.017 -0.066124,0.017 -0.1271612,0.05 l 0,-0.1235 q 0.07339,-0.028 0.1424206,-0.042 0.06903,-0.014 0.1344276,-0.014 0.1765724,0 0.2637687,0.091 Q 8.2679768,1030.016 8.2679768,1030.202 Z"
         style=""
         id="path997" />
      <path
         d="m 9.2205959,1030.1751 0,0.4912 -0.1337009,0 0,-0.4868 q 0,-0.1156 -0.045051,-0.173 -0.045051,-0.057 -0.1351542,-0.057 -0.1082687,0 -0.1707593,0.069 -0.062491,0.069 -0.062491,0.1882 l 0,0.4599 -0.1344276,0 0,-0.8138 0.1344276,0 0,0.1264 q 0.047958,-0.073 0.1126285,-0.1097 0.065397,-0.036 0.1504136,-0.036 0.1402407,0 0.2121776,0.087 Q 9.2205959,1030.0065 9.2205959,1030.1751 Z"
         style=""
         id="path999" />
      <path
         d="m 9.9007271,1029.5357 0,0.1112 -0.1278879,0 q -0.071937,0 -0.1002757,0.029 -0.027612,0.029 -0.027612,0.1047 l 0,0.072 0.2201706,0 0,0.1039 -0.2201706,0 0,0.7099 -0.1344276,0 0,-0.7099 -0.1278879,0 0,-0.1039 0.1278879,0 0,-0.057 q 0,-0.1359 0.063217,-0.1976 0.063217,-0.062 0.2005514,-0.062 L 9.9007271,1029.5357 Z"
         style=""
         id="path1001" />
      <path
         d="m 10.333075,1029.5371 q -0.09737,0.1672 -0.1446,0.3307 -0.04723,0.1635 -0.04723,0.3313 0,0.1679 0.04723,0.3328 0.04796,0.1642 0.1446,0.3306 l -0.116261,0 q -0.108996,-0.1707 -0.163493,-0.3357 -0.053771,-0.1649 -0.053771,-0.3277 0,-0.162 0.053771,-0.3263 0.05377,-0.1642 0.163493,-0.3357 L 10.333075,1029.5371 Z"
         style=""
         id="path1003" />
      <path
         d="m 10.719645,1029.5815 0,0.4032 -0.123528,0 0,-0.4032 L 10.719645,1029.5815 z m 0.274669,0 0,0.4032 -0.123528,0 0,-0.4032 L 10.994314,1029.5815 Z"
         style=""
         id="path1005" />
      <path
         d="m 12.220875,1030.1889 q -0.06322,0 -0.09955,0.054 -0.03561,0.054 -0.03561,0.1497 0,0.095 0.03561,0.1489 0.03633,0.054 0.09955,0.054 0.06176,0 0.09737,-0.054 0.03633,-0.054 0.03633,-0.1489 0,-0.095 -0.03633,-0.149 Q 12.282639,1030.1889 12.220875,1030.1889 z m 0,-0.092 q 0.114808,0 0.182385,0.08 0.06758,0.08 0.06758,0.2158 0,0.1359 -0.0683,0.2158 -0.06758,0.079 -0.181658,0.079 -0.116262,0 -0.183839,-0.079 -0.06758,-0.08 -0.06758,-0.2158 0,-0.1366 0.06758,-0.2158 Q 12.105339,1030.0966 12.220875,1030.0966 z m -0.749888,-0.4425 q -0.06249,0 -0.09882,0.054 -0.03561,0.054 -0.03561,0.1483 0,0.096 0.03561,0.1496 0.03561,0.054 0.09882,0.054 0.06322,0 0.09882,-0.054 0.03633,-0.054 0.03633,-0.1496 0,-0.094 -0.03633,-0.1483 Q 11.533477,1029.6541 11.470987,1029.6541 z m 0.656152,-0.092 0.116261,0 -0.678677,1.1256 -0.116262,0 L 12.127139,1029.5618 z m -0.656152,0 q 0.114808,0 0.183112,0.08 0.0683,0.079 0.0683,0.2151 0,0.1373 -0.0683,0.2165 -0.06758,0.079 -0.183112,0.079 -0.115535,0 -0.183113,-0.079 -0.06685,-0.08 -0.06685,-0.2165 0,-0.1352 0.06758,-0.2151 Q 11.356178,1029.5618 11.470987,1029.5618 Z"
         style=""
         id="path1007" />
      <path
         d="m 13.230171,1029.976 0,-0.4403 0.133701,0 0,1.1306 -0.133701,0 0,-0.122 q -0.04214,0.073 -0.106815,0.1082 -0.06394,0.035 -0.154047,0.035 -0.147507,0 -0.240516,-0.1177 -0.09228,-0.1177 -0.09228,-0.3096 0,-0.1918 0.09228,-0.3095 0.09301,-0.1177 0.240516,-0.1177 0.0901,0 0.154047,0.036 Q 13.188026,1029.9034 13.230171,1029.976 z m -0.4556,0.2841 q 0,0.1475 0.06031,0.2318 0.06104,0.084 0.167127,0.084 0.106088,0 0.167126,-0.084 0.06104,-0.084 0.06104,-0.2318 0,-0.1475 -0.06104,-0.231 -0.06104,-0.084 -0.167126,-0.084 -0.106089,0 -0.167127,0.084 Q 12.774571,1030.1126 12.774571,1030.2601 Z"
         style=""
         id="path1009" />
      <path
         d="m 13.765702,1029.5815 0,0.4032 -0.123528,0 0,-0.4032 L 13.765702,1029.5815 z m 0.274668,0 0,0.4032 -0.123528,0 0,-0.4032 L 14.04037,1029.5815 Z"
         style=""
         id="path1011" />
      <path
         d="m 14.359363,1030.4818 0.15332,0 0,0.1249 -0.119168,0.2326 -0.09374,0 0.05958,-0.2326 L 14.359363,1030.4818 Z"
         style=""
         id="path1013" />
      <path
         d="m 15.494368,1030.0828 q -0.06612,0.059 -0.09737,0.1178 -0.03052,0.058 -0.03052,0.122 0,0.1061 0.07702,0.1766 0.07702,0.071 0.193285,0.071 0.06903,0 0.129341,-0.023 0.06031,-0.023 0.113355,-0.07 L 15.494368,1030.0828 z m 0.102455,-0.081 0.369131,0.3778 q 0.04287,-0.065 0.06685,-0.1381 0.02398,-0.074 0.02834,-0.1569 l 0.135155,0 q -0.0087,0.096 -0.0465,0.1896 -0.03778,0.094 -0.105362,0.1853 l 0.202731,0.2071 -0.183112,0 -0.103909,-0.1068 q -0.07557,0.065 -0.158407,0.097 -0.08284,0.031 -0.178025,0.031 -0.175119,0 -0.286295,-0.1 -0.111175,-0.1003 -0.111175,-0.2565 0,-0.093 0.04869,-0.1744 0.04868,-0.082 0.146053,-0.1541 -0.03488,-0.046 -0.05304,-0.091 -0.01817,-0.046 -0.01817,-0.089 0,-0.1177 0.08066,-0.1889 0.08066,-0.072 0.214357,-0.072 0.06031,0 0.119895,0.013 0.06031,0.013 0.122075,0.039 l 0,0.1322 q -0.06322,-0.034 -0.120622,-0.052 -0.0574,-0.018 -0.106815,-0.018 -0.0763,0 -0.124255,0.041 -0.04723,0.04 -0.04723,0.104 0,0.037 0.02107,0.075 Q 15.530699,1029.9332 15.596823,1030.0015 Z"
         style=""
         id="path1015" />
      <path
         d="m 16.802312,1030.2572 q -0.16204,0 -0.22453,0.037 -0.06249,0.037 -0.06249,0.1264 0,0.071 0.0465,0.1134 0.04723,0.041 0.127888,0.041 0.111175,0 0.178025,-0.078 0.06758,-0.079 0.06758,-0.21 l 0,-0.03 L 16.802312,1030.2572 z m 0.266675,-0.055 0,0.4643 -0.133701,0 0,-0.1235 q -0.04578,0.074 -0.114081,0.1097 -0.0683,0.035 -0.167127,0.035 -0.124981,0 -0.199098,-0.07 -0.07339,-0.07 -0.07339,-0.1882 0,-0.1373 0.09156,-0.207 0.09228,-0.07 0.274668,-0.07 l 0.187472,0 0,-0.013 q 0,-0.092 -0.06104,-0.1424 -0.06031,-0.051 -0.170033,-0.051 -0.06976,0 -0.135881,0.017 -0.06612,0.017 -0.127161,0.05 l 0,-0.1235 q 0.07339,-0.028 0.142421,-0.042 0.06903,-0.014 0.134427,-0.014 0.176573,0 0.263769,0.091 Q 17.068987,1030.016 17.068987,1030.202 Z"
         style=""
         id="path1017" />
      <path
         d="m 17.324036,1029.5371 0.116262,0 q 0.108995,0.1715 0.162766,0.3357 0.0545,0.1643 0.0545,0.3263 0,0.1628 -0.0545,0.3277 -0.05377,0.165 -0.162766,0.3357 l -0.116262,0 q 0.09664,-0.1664 0.143874,-0.3306 0.04796,-0.1649 0.04796,-0.3328 0,-0.1678 -0.04796,-0.3313 Q 17.420679,1029.7043 17.324036,1029.5371 Z"
         style=""
         id="path1019" />
      <path
         d="m 17.960569,1029.8968 0.15332,0 0,0.1846 -0.15332,0 L 17.960569,1029.8968 z m 0,0.585 0.15332,0 0,0.1249 -0.119168,0.2326 -0.09374,0 0.05958,-0.2326 L 17.960569,1030.4818 Z"
         style=""
         id="path1021" />
      <path
         d="m 6.1650931,1034.2646 0,0.4317 -0.1344275,0 0,-1.1234 0.1344275,0 0,0.1235 q 0.042145,-0.073 0.1060888,-0.1075 0.064671,-0.036 0.1540468,-0.036 0.1482337,0 0.2405164,0.1177 0.093009,0.1177 0.093009,0.3095 0,0.1918 -0.093009,0.3096 -0.092283,0.1177 -0.2405164,0.1177 -0.089376,0 -0.1540468,-0.035 Q 6.207238,1034.3373 6.1650931,1034.2646 z m 0.4548739,-0.2841 q 0,-0.1475 -0.061037,-0.2311 -0.060311,-0.084 -0.1663996,-0.084 -0.1060888,0 -0.1671262,0.084 -0.060311,0.084 -0.060311,0.2311 0,0.1475 0.060311,0.2318 0.061037,0.084 0.1671262,0.084 0.1060888,0 0.1663996,-0.084 Q 6.619967,1034.128 6.619967,1033.9805 Z"
         style=""
         id="path1023" />
      <path
         d="m 7.4519649,1033.6979 q -0.022526,-0.013 -0.049411,-0.019 -0.026159,-0.01 -0.058131,-0.01 -0.1133551,0 -0.1743925,0.074 -0.060311,0.073 -0.060311,0.2115 l 0,0.4287 -0.1344276,0 0,-0.8138 0.1344276,0 0,0.1264 q 0.042145,-0.074 0.109722,-0.1097 0.067577,-0.036 0.1642197,-0.036 0.013806,0 0.030519,0 0.016713,0 0.037058,0.01 L 7.4519649,1033.6979 Z"
         style=""
         id="path1025" />
      <path
         d="m 7.5936589,1033.5729 0.133701,0 0,0.8138 -0.133701,0 L 7.5936589,1033.5729 z m 0,-0.3168 0.133701,0 0,0.1693 -0.133701,0 L 7.5936589,1033.2561 Z"
         style=""
         id="path1027" />
      <path
         d="m 8.6828855,1033.8955 0,0.4912 -0.133701,0 0,-0.4868 q 0,-0.1156 -0.045051,-0.173 -0.045051,-0.057 -0.1351542,-0.057 -0.1082687,0 -0.1707594,0.069 -0.062491,0.069 -0.062491,0.1882 l 0,0.46 -0.1344276,0 0,-0.8138 0.1344276,0 0,0.1264 q 0.047958,-0.073 0.1126285,-0.1097 0.065397,-0.036 0.1504136,-0.036 0.1402406,0 0.2121776,0.087 Q 8.6828855,1033.7269 8.6828855,1033.8955 Z"
         style=""
         id="path1029" />
      <path
         d="m 9.0832617,1033.3418 0,0.2311 0.2753949,0 0,0.1039 -0.2753949,0 0,0.4418 q 0,0.1 0.026886,0.1279 0.027612,0.028 0.1111752,0.028 l 0.1373341,0 0,0.1119 -0.1373341,0 q -0.1547734,0 -0.2136309,-0.057 -0.058858,-0.058 -0.058858,-0.2107 l 0,-0.4418 -0.098096,0 0,-0.1039 0.098096,0 0,-0.2311 L 9.0832617,1033.3418 Z"
         style=""
         id="path1031" />
      <path
         d="m 9.9472316,1033.2561 0,0.1111 -0.1278879,0 q -0.071937,0 -0.1002757,0.029 -0.027612,0.029 -0.027612,0.1046 l 0,0.072 0.2201706,0 0,0.1039 -0.2201706,0 0,0.7099 -0.1344276,0 0,-0.7099 -0.1278879,0 0,-0.1039 0.1278879,0 0,-0.057 q 0,-0.1359 0.063217,-0.1977 0.063217,-0.062 0.2005514,-0.062 L 9.9472316,1033.2561 Z"
         style=""
         id="path1033" />
      <path
         d="m 10.37958,1033.2575 q -0.09737,0.1671 -0.144601,0.3306 -0.04723,0.1635 -0.04723,0.3314 0,0.1678 0.04723,0.3328 0.04796,0.1642 0.144601,0.3306 l -0.116262,0 q -0.108995,-0.1708 -0.163493,-0.3357 -0.05377,-0.165 -0.05377,-0.3277 0,-0.1621 0.05377,-0.3263 0.05377,-0.1642 0.163493,-0.3357 L 10.37958,1033.2575 Z"
         style=""
         id="path1035" />
      <path
         d="m 10.76615,1033.3018 0,0.4033 -0.123528,0 0,-0.4033 L 10.76615,1033.3018 z m 0.274668,0 0,0.4033 -0.123528,0 0,-0.4033 L 11.040818,1033.3018 Z"
         style=""
         id="path1037" />
      <path
         d="m 11.331472,1033.3018 0.146781,0 0,1.0849 -0.146781,0 L 11.331472,1033.3018 Z"
         style=""
         id="path1039" />
      <path
         d="m 12.441045,1033.8955 0,0.4912 -0.133701,0 0,-0.4868 q 0,-0.1156 -0.04505,-0.173 -0.04505,-0.057 -0.135154,-0.057 -0.108269,0 -0.17076,0.069 -0.06249,0.069 -0.06249,0.1882 l 0,0.46 -0.134427,0 0,-0.8138 0.134427,0 0,0.1264 q 0.04796,-0.073 0.112629,-0.1097 0.0654,-0.036 0.150414,-0.036 0.14024,0 0.212177,0.087 Q 12.441045,1033.7269 12.441045,1033.8955 Z"
         style=""
         id="path1041" />
      <path
         d="m 12.841421,1033.3418 0,0.2311 0.275395,0 0,0.1039 -0.275395,0 0,0.4418 q 0,0.1 0.02689,0.1279 0.02761,0.028 0.111175,0.028 l 0.137334,0 0,0.1119 -0.137334,0 q -0.154773,0 -0.213631,-0.057 -0.05886,-0.058 -0.05886,-0.2107 l 0,-0.4418 -0.0981,0 0,-0.1039 0.0981,0 0,-0.2311 L 12.841421,1033.3418 Z"
         style=""
         id="path1043" />
      <path
         d="m 13.989506,1033.9464 0,0.065 -0.614734,0 q 0.0087,0.138 0.08284,0.2107 0.07484,0.072 0.207817,0.072 0.07702,0 0.148961,-0.019 0.07266,-0.019 0.143873,-0.057 l 0,0.1264 q -0.07194,0.031 -0.147507,0.047 -0.07557,0.016 -0.15332,0.016 -0.194738,0 -0.30882,-0.1134 -0.113355,-0.1133 -0.113355,-0.3066 0,-0.1998 0.107542,-0.3168 0.108269,-0.1177 0.291381,-0.1177 0.16422,0 0.259409,0.106 Q 13.989506,1033.7647 13.989506,1033.9464 z m -0.133701,-0.039 q -0.0015,-0.1097 -0.06176,-0.1751 -0.05958,-0.065 -0.158407,-0.065 -0.111902,0 -0.179479,0.063 -0.06685,0.063 -0.07702,0.1781 L 13.855805,1033.9071 Z"
         style=""
         id="path1045" />
      <path
         d="m 14.74448,1033.9703 q 0,-0.1453 -0.06031,-0.2252 -0.05958,-0.08 -0.167853,-0.08 -0.107542,0 -0.167852,0.08 -0.05959,0.08 -0.05959,0.2252 0,0.1446 0.05959,0.2246 0.06031,0.08 0.167852,0.08 0.108269,0 0.167853,-0.08 Q 14.74448,1034.1149 14.74448,1033.9703 z m 0.133701,0.3154 q 0,0.2078 -0.09228,0.3088 -0.09228,0.1018 -0.282661,0.1018 -0.07048,0 -0.132974,-0.011 -0.06249,-0.01 -0.121348,-0.032 l 0,-0.1301 q 0.05886,0.032 0.116261,0.047 0.0574,0.015 0.116989,0.015 0.131521,0 0.196918,-0.069 0.0654,-0.068 0.0654,-0.2071 l 0,-0.066 q -0.04142,0.072 -0.106089,0.1075 -0.06467,0.036 -0.154773,0.036 -0.149687,0 -0.241243,-0.1141 -0.09156,-0.1141 -0.09156,-0.3023 0,-0.1889 0.09156,-0.303 0.09156,-0.114 0.241243,-0.114 0.0901,0 0.154773,0.036 0.06467,0.036 0.106089,0.1075 l 0,-0.1235 0.133701,0 L 14.878181,1034.2857 Z"
         style=""
         id="path1047" />
      <path
         d="m 15.849692,1033.9464 0,0.065 -0.614733,0 q 0.0087,0.138 0.08284,0.2107 0.07484,0.072 0.207818,0.072 0.07702,0 0.14896,-0.019 0.07266,-0.019 0.143874,-0.057 l 0,0.1264 q -0.07194,0.031 -0.147507,0.047 -0.07557,0.016 -0.15332,0.016 -0.194738,0 -0.30882,-0.1134 -0.113355,-0.1133 -0.113355,-0.3066 0,-0.1998 0.107542,-0.3168 0.108268,-0.1177 0.291381,-0.1177 0.164219,0 0.259408,0.106 Q 15.849692,1033.7647 15.849692,1033.9464 z m -0.133701,-0.039 q -0.0015,-0.1097 -0.06176,-0.1751 -0.05958,-0.065 -0.158406,-0.065 -0.111902,0 -0.179479,0.063 -0.06685,0.063 -0.07702,0.1781 L 15.715991,1033.9071 Z"
         style=""
         id="path1049" />
      <path
         d="m 16.540724,1033.6979 q -0.02253,-0.013 -0.04941,-0.019 -0.02616,-0.01 -0.05813,-0.01 -0.113356,0 -0.174393,0.074 -0.06031,0.073 -0.06031,0.2115 l 0,0.4287 -0.134427,0 0,-0.8138 0.134427,0 0,0.1264 q 0.04214,-0.074 0.109722,-0.1097 0.06758,-0.036 0.16422,-0.036 0.01381,0 0.03052,0 0.01671,0 0.03706,0.01 L 16.540724,1033.6979 Z"
         style=""
         id="path1051" />
      <path
         d="m 17.288431,1033.3418 0,0.2311 0.275395,0 0,0.1039 -0.275395,0 0,0.4418 q 0,0.1 0.02689,0.1279 0.02761,0.028 0.111175,0.028 l 0.137334,0 0,0.1119 -0.137334,0 q -0.154773,0 -0.213631,-0.057 -0.05886,-0.058 -0.05886,-0.2107 l 0,-0.4418 -0.0981,0 0,-0.1039 0.0981,0 0,-0.2311 L 17.288431,1033.3418 Z"
         style=""
         id="path1053" />
      <path
         d="m 18.416897,1033.8955 0,0.4912 -0.133701,0 0,-0.4868 q 0,-0.1156 -0.04505,-0.173 -0.04505,-0.057 -0.135154,-0.057 -0.108269,0 -0.170759,0.069 -0.06249,0.069 -0.06249,0.1882 l 0,0.46 -0.134428,0 0,-1.1306 0.134428,0 0,0.4432 q 0.04796,-0.073 0.112629,-0.1097 0.0654,-0.036 0.150413,-0.036 0.140241,0 0.212178,0.087 Q 18.416897,1033.7269 18.416897,1033.8955 Z"
         style=""
         id="path1055" />
      <path
         d="m 19.054882,1033.9776 q -0.162039,0 -0.22453,0.037 -0.06249,0.037 -0.06249,0.1264 0,0.071 0.0465,0.1134 0.04723,0.041 0.127888,0.041 0.111175,0 0.178025,-0.079 0.06758,-0.079 0.06758,-0.21 l 0,-0.03 L 19.054882,1033.9776 z m 0.266676,-0.055 0,0.4643 -0.133701,0 0,-0.1235 q -0.04578,0.074 -0.114082,0.1097 -0.0683,0.035 -0.167126,0.035 -0.124982,0 -0.199099,-0.07 -0.07339,-0.071 -0.07339,-0.1882 0,-0.1373 0.09156,-0.2071 0.09228,-0.07 0.274669,-0.07 l 0.187472,0 0,-0.013 q 0,-0.092 -0.06104,-0.1424 -0.06031,-0.051 -0.170033,-0.051 -0.06976,0 -0.13588,0.017 -0.06612,0.017 -0.127162,0.05 l 0,-0.1236 q 0.07339,-0.028 0.142421,-0.042 0.06903,-0.014 0.134428,-0.014 0.176572,0 0.263768,0.091 Q 19.321558,1033.7364 19.321558,1033.9224 Z"
         style=""
         id="path1057" />
      <path
         d="m 19.729927,1033.3418 0,0.2311 0.275395,0 0,0.1039 -0.275395,0 0,0.4418 q 0,0.1 0.02689,0.1279 0.02761,0.028 0.111175,0.028 l 0.137334,0 0,0.1119 -0.137334,0 q -0.154773,0 -0.213631,-0.057 -0.05886,-0.058 -0.05886,-0.2107 l 0,-0.4418 -0.0981,0 0,-0.1039 0.0981,0 0,-0.2311 L 19.729927,1033.3418 Z"
         style=""
         id="path1059" />
      <path
         d="m 20.994273,1034.4623 q -0.05668,0.1453 -0.110448,0.1896 -0.05377,0.044 -0.143874,0.044 l -0.106816,0 0,-0.112 0.07848,0 q 0.05522,0 0.08574,-0.026 0.03052,-0.026 0.06758,-0.1235 l 0.02398,-0.061 -0.329166,-0.8007 0.141694,0 0.254323,0.6365 0.254322,-0.6365 0.141694,0 L 20.994273,1034.4623 Z"
         style=""
         id="path1061" />
      <path
         d="m 21.851703,1033.6666 q -0.107542,0 -0.170033,0.084 -0.06249,0.084 -0.06249,0.2296 0,0.1461 0.06176,0.2304 0.06249,0.083 0.170759,0.083 0.106815,0 0.169306,-0.084 0.06249,-0.084 0.06249,-0.2296 0,-0.1446 -0.06249,-0.2289 Q 21.958518,1033.6666 21.851703,1033.6666 z m 0,-0.1133 q 0.174393,0 0.273942,0.1133 0.09955,0.1134 0.09955,0.3139 0,0.1998 -0.09955,0.3139 -0.09955,0.1134 -0.273942,0.1134 -0.175119,0 -0.274668,-0.1134 -0.09882,-0.1141 -0.09882,-0.3139 0,-0.2005 0.09882,-0.3139 Q 21.676584,1033.5533 21.851703,1033.5533 Z"
         style=""
         id="path1063" />
      <path
         d="m 22.432285,1034.0655 0,-0.4926 0.133701,0 0,0.4875 q 0,0.1156 0.04505,0.1737 0.04505,0.057 0.135155,0.057 0.108268,0 0.170759,-0.069 0.06322,-0.069 0.06322,-0.1882 l 0,-0.4614 0.133701,0 0,0.8138 -0.133701,0 0,-0.125 q -0.04868,0.074 -0.113355,0.1105 -0.06394,0.036 -0.14896,0.036 -0.140241,0 -0.212904,-0.087 Q 22.432285,1034.2334 22.432285,1034.0655 z m 0.336432,-0.5122 L 22.768717,1033.5533 Z"
         style=""
         id="path1065" />
      <path
         d="m 24.540981,1033.8955 0,0.4912 -0.133701,0 0,-0.4868 q 0,-0.1156 -0.04505,-0.173 -0.04505,-0.057 -0.135154,-0.057 -0.108269,0 -0.17076,0.069 -0.06249,0.069 -0.06249,0.1882 l 0,0.46 -0.134428,0 0,-1.1306 0.134428,0 0,0.4432 q 0.04796,-0.073 0.112628,-0.1097 0.0654,-0.036 0.150414,-0.036 0.14024,0 0.212177,0.087 Q 24.540981,1033.7269 24.540981,1033.8955 Z"
         style=""
         id="path1067" />
      <path
         d="m 25.178967,1033.9776 q -0.16204,0 -0.224531,0.037 -0.06249,0.037 -0.06249,0.1264 0,0.071 0.0465,0.1134 0.04723,0.041 0.127888,0.041 0.111175,0 0.178026,-0.079 0.06758,-0.079 0.06758,-0.21 l 0,-0.03 L 25.178967,1033.9776 z m 0.266675,-0.055 0,0.4643 -0.133701,0 0,-0.1235 q -0.04578,0.074 -0.114082,0.1097 -0.0683,0.035 -0.167126,0.035 -0.124981,0 -0.199098,-0.07 -0.07339,-0.071 -0.07339,-0.1882 0,-0.1373 0.09156,-0.2071 0.09228,-0.07 0.274668,-0.07 l 0.187472,0 0,-0.013 q 0,-0.092 -0.06104,-0.1424 -0.06031,-0.051 -0.170033,-0.051 -0.06976,0 -0.135881,0.017 -0.06612,0.017 -0.127161,0.05 l 0,-0.1236 q 0.07339,-0.028 0.14242,-0.042 0.06903,-0.014 0.134428,-0.014 0.176572,0 0.263769,0.091 Q 25.445642,1033.7364 25.445642,1033.9224 Z"
         style=""
         id="path1069" />
      <path
         d="m 25.625848,1033.5729 0.141694,0 0.254323,0.683 0.254322,-0.683 0.141694,0 -0.305187,0.8138 -0.181659,0 L 25.625848,1033.5729 Z"
         style=""
         id="path1071" />
      <path
         d="m 27.298563,1033.9464 0,0.065 -0.614734,0 q 0.0087,0.138 0.08284,0.2107 0.07484,0.072 0.207818,0.072 0.07702,0 0.14896,-0.019 0.07266,-0.019 0.143874,-0.057 l 0,0.1264 q -0.07194,0.031 -0.147507,0.047 -0.07557,0.016 -0.15332,0.016 -0.194739,0 -0.308821,-0.1134 -0.113355,-0.1133 -0.113355,-0.3066 0,-0.1998 0.107542,-0.3168 0.108269,-0.1177 0.291381,-0.1177 0.16422,0 0.259409,0.106 Q 27.298563,1033.7647 27.298563,1033.9464 z m -0.133701,-0.039 q -0.0015,-0.1097 -0.06176,-0.1751 -0.05958,-0.065 -0.158407,-0.065 -0.111901,0 -0.179479,0.063 -0.06685,0.063 -0.07702,0.1781 L 27.164862,1033.9071 Z"
         style=""
         id="path1073" />
      <path
         d="m 28.687891,1033.9464 0,0.065 -0.614734,0 q 0.0087,0.138 0.08284,0.2107 0.07484,0.072 0.207818,0.072 0.07702,0 0.14896,-0.019 0.07266,-0.019 0.143874,-0.057 l 0,0.1264 q -0.07194,0.031 -0.147507,0.047 -0.07557,0.016 -0.15332,0.016 -0.194739,0 -0.308821,-0.1134 -0.113355,-0.1133 -0.113355,-0.3066 0,-0.1998 0.107542,-0.3168 0.108269,-0.1177 0.291381,-0.1177 0.16422,0 0.259409,0.106 Q 28.687891,1033.7647 28.687891,1033.9464 z m -0.133701,-0.039 q -0.0015,-0.1097 -0.06176,-0.1751 -0.05958,-0.065 -0.158407,-0.065 -0.111901,0 -0.179479,0.063 -0.06685,0.063 -0.07702,0.1781 L 28.55419,1033.9071 Z"
         style=""
         id="path1075" />
      <path
         d="m 29.583834,1033.8955 0,0.4912 -0.133701,0 0,-0.4868 q 0,-0.1156 -0.04505,-0.173 -0.04505,-0.057 -0.135154,-0.057 -0.108269,0 -0.170759,0.069 -0.06249,0.069 -0.06249,0.1882 l 0,0.46 -0.134428,0 0,-0.8138 0.134428,0 0,0.1264 q 0.04796,-0.073 0.112628,-0.1097 0.0654,-0.036 0.150414,-0.036 0.140241,0 0.212178,0.087 Q 29.583834,1033.7269 29.583834,1033.8955 Z"
         style=""
         id="path1077" />
      <path
         d="m 29.984209,1033.3418 0,0.2311 0.275395,0 0,0.1039 -0.275395,0 0,0.4418 q 0,0.1 0.02689,0.1279 0.02761,0.028 0.111175,0.028 l 0.137334,0 0,0.1119 -0.137334,0 q -0.154773,0 -0.213631,-0.057 -0.05886,-0.058 -0.05886,-0.2107 l 0,-0.4418 -0.0981,0 0,-0.1039 0.0981,0 0,-0.2311 L 29.984209,1033.3418 Z"
         style=""
         id="path1079" />
      <path
         d="m 31.132294,1033.9464 0,0.065 -0.614734,0 q 0.0087,0.138 0.08284,0.2107 0.07484,0.072 0.207818,0.072 0.07702,0 0.148961,-0.019 0.07266,-0.019 0.143873,-0.057 l 0,0.1264 q -0.07194,0.031 -0.147507,0.047 -0.07557,0.016 -0.15332,0.016 -0.194738,0 -0.30882,-0.1134 -0.113355,-0.1133 -0.113355,-0.3066 0,-0.1998 0.107542,-0.3168 0.108269,-0.1177 0.291381,-0.1177 0.16422,0 0.259409,0.106 Q 31.132294,1033.7647 31.132294,1033.9464 z m -0.133701,-0.039 q -0.0015,-0.1097 -0.06176,-0.1751 -0.05958,-0.065 -0.158407,-0.065 -0.111902,0 -0.179479,0.063 -0.06685,0.063 -0.07702,0.1781 L 30.998593,1033.9071 Z"
         style=""
         id="path1081" />
      <path
         d="m 31.823323,1033.6979 q -0.02253,-0.013 -0.04941,-0.019 -0.02616,-0.01 -0.05813,-0.01 -0.113355,0 -0.174393,0.074 -0.06031,0.073 -0.06031,0.2115 l 0,0.4287 -0.134428,0 0,-0.8138 0.134428,0 0,0.1264 q 0.04215,-0.074 0.109722,-0.1097 0.06758,-0.036 0.164219,-0.036 0.01381,0 0.03052,0 0.01671,0 0.03706,0.01 L 31.823323,1033.6979 Z"
         style=""
         id="path1083" />
      <path
         d="m 32.629162,1033.9464 0,0.065 -0.614734,0 q 0.0087,0.138 0.08284,0.2107 0.07484,0.072 0.207817,0.072 0.07702,0 0.148961,-0.019 0.07266,-0.019 0.143874,-0.057 l 0,0.1264 q -0.07194,0.031 -0.147508,0.047 -0.07557,0.016 -0.15332,0.016 -0.194738,0 -0.30882,-0.1134 -0.113355,-0.1133 -0.113355,-0.3066 0,-0.1998 0.107542,-0.3168 0.108269,-0.1177 0.291381,-0.1177 0.16422,0 0.259409,0.106 Q 32.629162,1033.7647 32.629162,1033.9464 z m -0.133701,-0.039 q -0.0015,-0.1097 -0.06176,-0.1751 -0.05958,-0.065 -0.158407,-0.065 -0.111902,0 -0.179479,0.063 -0.06685,0.063 -0.07702,0.1781 L 32.495461,1033.9071 Z"
         style=""
         id="path1085" />
      <path
         d="m 33.384137,1033.6964 0,-0.4403 0.133701,0 0,1.1306 -0.133701,0 0,-0.1221 q -0.04215,0.073 -0.106815,0.1083 -0.06394,0.035 -0.154047,0.035 -0.147507,0 -0.240517,-0.1177 -0.09228,-0.1178 -0.09228,-0.3096 0,-0.1918 0.09228,-0.3095 0.09301,-0.1177 0.240517,-0.1177 0.0901,0 0.154047,0.036 Q 33.341992,1033.6237 33.384137,1033.6964 z m -0.4556,0.2841 q 0,0.1475 0.06031,0.2318 0.06104,0.084 0.167126,0.084 0.106089,0 0.167127,-0.084 0.06104,-0.084 0.06104,-0.2318 0,-0.1475 -0.06104,-0.2311 -0.06104,-0.084 -0.167127,-0.084 -0.106088,0 -0.167126,0.084 Q 32.928537,1033.833 32.928537,1033.9805 Z"
         style=""
         id="path1087" />
      <path
         d="m 34.266999,1033.5729 0.133701,0 0,0.8138 -0.133701,0 L 34.266999,1033.5729 z m 0,-0.3168 0.133701,0 0,0.1693 -0.133701,0 L 34.266999,1033.2561 Z"
         style=""
         id="path1089" />
      <path
         d="m 35.198546,1033.5969 0,0.1264 q -0.05668,-0.029 -0.117715,-0.044 -0.06104,-0.014 -0.126435,-0.014 -0.09955,0 -0.149687,0.031 -0.04941,0.031 -0.04941,0.091 0,0.046 0.0356,0.073 0.0356,0.026 0.143148,0.05 l 0.04578,0.01 q 0.14242,0.03 0.202004,0.086 0.06031,0.055 0.06031,0.1548 0,0.1133 -0.0901,0.1795 -0.08938,0.066 -0.246329,0.066 -0.0654,0 -0.136608,-0.013 -0.07048,-0.012 -0.14896,-0.038 l 0,-0.138 q 0.07412,0.038 0.146054,0.058 0.07194,0.019 0.14242,0.019 0.09446,0 0.145327,-0.032 0.05087,-0.033 0.05087,-0.092 0,-0.054 -0.03706,-0.083 -0.03633,-0.029 -0.160586,-0.056 l -0.0465,-0.011 q -0.124254,-0.026 -0.179479,-0.08 -0.05522,-0.054 -0.05522,-0.149 0,-0.1148 0.08138,-0.1773 0.08138,-0.062 0.23107,-0.062 0.07412,0 0.139514,0.011 Q 35.143322,1033.5751 35.198546,1033.5969 Z"
         style=""
         id="path1091" />
      <path
         d="m 36.871261,1033.9093 q -0.06322,0 -0.09955,0.054 -0.03561,0.054 -0.03561,0.1497 0,0.094 0.03561,0.1489 0.03633,0.054 0.09955,0.054 0.06176,0 0.09737,-0.054 0.03633,-0.054 0.03633,-0.1489 0,-0.095 -0.03633,-0.149 Q 36.933025,1033.9093 36.871261,1033.9093 z m 0,-0.092 q 0.114808,0 0.182385,0.08 0.06758,0.08 0.06758,0.2158 0,0.1358 -0.0683,0.2158 -0.06758,0.079 -0.181659,0.079 -0.116262,0 -0.183839,-0.079 -0.06758,-0.08 -0.06758,-0.2158 0,-0.1366 0.06758,-0.2158 Q 36.755726,1033.817 36.871261,1033.817 z m -0.749888,-0.4425 q -0.06249,0 -0.09882,0.055 -0.03561,0.054 -0.03561,0.1482 0,0.096 0.03561,0.1497 0.03561,0.054 0.09882,0.054 0.06322,0 0.09882,-0.054 0.03633,-0.054 0.03633,-0.1497 0,-0.094 -0.03633,-0.1482 Q 36.183864,1033.3745 36.121373,1033.3745 z m 0.656152,-0.092 0.116262,0 -0.678678,1.1256 -0.116262,0 L 36.777525,1033.2822 z m -0.656152,0 q 0.114808,0 0.183112,0.08 0.0683,0.079 0.0683,0.2151 0,0.1374 -0.0683,0.2166 -0.06758,0.079 -0.183112,0.079 -0.115535,0 -0.183112,-0.079 -0.06685,-0.08 -0.06685,-0.2166 0,-0.1351 0.06758,-0.2151 Q 36.006564,1033.2822 36.121373,1033.2822 Z"
         style=""
         id="path1093" />
      <path
         d="m 37.880559,1033.6964 0,-0.4403 0.133701,0 0,1.1306 -0.133701,0 0,-0.1221 q -0.04214,0.073 -0.106816,0.1083 -0.06394,0.035 -0.154046,0.035 -0.147507,0 -0.240517,-0.1177 -0.09228,-0.1178 -0.09228,-0.3096 0,-0.1918 0.09228,-0.3095 0.09301,-0.1177 0.240517,-0.1177 0.0901,0 0.154046,0.036 Q 37.838414,1033.6237 37.880559,1033.6964 z m -0.455601,0.2841 q 0,0.1475 0.06031,0.2318 0.06104,0.084 0.167126,0.084 0.106089,0 0.167126,-0.084 0.06104,-0.084 0.06104,-0.2318 0,-0.1475 -0.06104,-0.2311 -0.06104,-0.084 -0.167126,-0.084 -0.106089,0 -0.167126,0.084 Q 37.424958,1033.833 37.424958,1033.9805 Z"
         style=""
         id="path1095" />
      <path
         d="m 38.272942,1033.3018 0.37785,1.223 -0.123528,0 -0.37785,-1.223 L 38.272942,1033.3018 Z"
         style=""
         id="path1097" />
      <path
         d="m 39.468983,1033.8955 0,0.4912 -0.133701,0 0,-0.4868 q 0,-0.1156 -0.04505,-0.173 -0.04505,-0.057 -0.135154,-0.057 -0.108269,0 -0.170759,0.069 -0.06249,0.069 -0.06249,0.1882 l 0,0.46 -0.134428,0 0,-0.8138 0.134428,0 0,0.1264 q 0.04796,-0.073 0.112628,-0.1097 0.0654,-0.036 0.150414,-0.036 0.140241,0 0.212178,0.087 Q 39.468983,1033.7269 39.468983,1033.8955 Z"
         style=""
         id="path1099" />
      <path
         d="m 39.863545,1033.3018 0,0.4033 -0.123528,0 0,-0.4033 L 39.863545,1033.3018 z m 0.274668,0 0,0.4033 -0.123528,0 0,-0.4033 L 40.138213,1033.3018 Z"
         style=""
         id="path1101" />
      <path
         d="m 40.45721,1034.2021 0.15332,0 0,0.125 -0.119168,0.2325 -0.09374,0 0.05958,-0.2325 L 40.45721,1034.2021 Z"
         style=""
         id="path1103" />
      <path
         d="m 41.740448,1033.9776 q -0.16204,0 -0.22453,0.037 -0.06249,0.037 -0.06249,0.1264 0,0.071 0.04651,0.1134 0.04723,0.041 0.127888,0.041 0.111175,0 0.178025,-0.079 0.06758,-0.079 0.06758,-0.21 l 0,-0.03 L 41.740448,1033.9776 z m 0.266676,-0.055 0,0.4643 -0.133701,0 0,-0.1235 q -0.04578,0.074 -0.114082,0.1097 -0.0683,0.035 -0.167126,0.035 -0.124982,0 -0.199099,-0.07 -0.07339,-0.071 -0.07339,-0.1882 0,-0.1373 0.09156,-0.2071 0.09228,-0.07 0.274669,-0.07 l 0.187472,0 0,-0.013 q 0,-0.092 -0.06104,-0.1424 -0.06031,-0.051 -0.170033,-0.051 -0.06976,0 -0.13588,0.017 -0.06612,0.017 -0.127162,0.05 l 0,-0.1236 q 0.07339,-0.028 0.142421,-0.042 0.06903,-0.014 0.134427,-0.014 0.176573,0 0.263769,0.091 Q 42.007124,1033.7364 42.007124,1033.9224 Z"
         style=""
         id="path1105" />
      <path
         d="m 42.262169,1033.2575 0.116262,0 q 0.108995,0.1715 0.162766,0.3357 0.0545,0.1642 0.0545,0.3263 0,0.1627 -0.0545,0.3277 -0.05377,0.1649 -0.162766,0.3357 l -0.116262,0 q 0.09664,-0.1664 0.143874,-0.3306 0.04796,-0.165 0.04796,-0.3328 0,-0.1679 -0.04796,-0.3314 Q 42.358812,1033.4246 42.262169,1033.2575 Z"
         style=""
         id="path1107" />
      <path
         d="m 42.898704,1033.6172 0.15332,0 0,0.1846 -0.15332,0 L 42.898704,1033.6172 z m 0,0.5849 0.15332,0 0,0.125 -0.119168,0.2325 -0.09374,0 0.05958,-0.2325 L 42.898704,1034.2021 Z"
         style=""
         id="path1109" />
      <path
         d="m 6.5073385,1037.4182 q -0.022526,-0.013 -0.049411,-0.019 -0.026159,-0.01 -0.058131,-0.01 -0.1133552,0 -0.1743926,0.074 -0.060311,0.073 -0.060311,0.2115 l 0,0.4287 -0.1344275,0 0,-0.8139 0.1344275,0 0,0.1265 q 0.042145,-0.074 0.109722,-0.1097 0.067577,-0.036 0.1642197,-0.036 0.013806,0 0.030519,0 0.016713,0 0.037058,0.01 L 6.5073385,1037.4182 Z"
         style=""
         id="path1111" />
      <path
         d="m 7.3131774,1037.6667 0,0.065 -0.6147338,0 q 0.00872,0.1381 0.082836,0.2108 0.074844,0.072 0.2078178,0.072 0.077023,0 0.1489603,-0.019 0.072663,-0.019 0.1438738,-0.057 l 0,0.1265 q -0.071937,0.03 -0.147507,0.046 -0.07557,0.016 -0.1533201,0.016 -0.1947384,0 -0.3088202,-0.1134 -0.1133551,-0.1134 -0.1133551,-0.3066 0,-0.1999 0.1075421,-0.3169 0.1082687,-0.1177 0.2913808,-0.1177 0.1642197,0 0.259409,0.1061 Q 7.3131774,1037.4851 7.3131774,1037.6667 z m -0.133701,-0.039 q -0.00145,-0.1097 -0.061764,-0.1751 -0.059584,-0.065 -0.1584066,-0.065 -0.1119019,0 -0.179479,0.063 -0.066851,0.063 -0.077023,0.178 L 7.1794764,1037.6275 Z"
         style=""
         id="path1113" />
      <path
         d="m 7.6648691,1037.0622 0,0.231 0.2753949,0 0,0.104 -0.2753949,0 0,0.4418 q 0,0.1 0.026886,0.1278 0.027612,0.028 0.1111752,0.028 l 0.1373342,0 0,0.1119 -0.1373342,0 q -0.1547733,0 -0.2136308,-0.057 -0.058857,-0.058 -0.058857,-0.2107 l 0,-0.4418 -0.098096,0 0,-0.104 0.098096,0 0,-0.231 L 7.6648691,1037.0622 Z"
         style=""
         id="path1115" />
      <path
         d="m 8.1030305,1037.7859 0,-0.4927 0.1337009,0 0,0.4876 q 0,0.1156 0.045051,0.1737 0.045051,0.057 0.1351543,0.057 0.1082687,0 0.1707593,-0.069 0.063217,-0.069 0.063217,-0.1882 l 0,-0.4615 0.133701,0 0,0.8139 -0.133701,0 0,-0.125 q -0.048685,0.074 -0.1133551,0.1104 -0.063944,0.036 -0.1489603,0.036 -0.1402407,0 -0.2129043,-0.087 Q 8.1030305,1037.9538 8.1030305,1037.7859 Z M 8.4394628,1037.2736 8.4394628,1037.2736 Z"
         style=""
         id="path1117" />
      <path
         d="m 9.5330494,1037.4182 q -0.022526,-0.013 -0.049411,-0.019 -0.026159,-0.01 -0.058131,-0.01 -0.1133551,0 -0.1743925,0.074 -0.060311,0.073 -0.060311,0.2115 l 0,0.4287 -0.1344276,0 0,-0.8139 0.1344276,0 0,0.1265 q 0.042145,-0.074 0.109722,-0.1097 0.067577,-0.036 0.1642197,-0.036 0.013806,0 0.030519,0 0.016713,0 0.037058,0.01 L 9.5330494,1037.4182 Z"
         style=""
         id="path1119" />
      <path
         d="m 10.325082,1037.6159 0,0.4912 -0.133701,0 0,-0.4869 q 0,-0.1155 -0.04505,-0.1729 -0.04505,-0.057 -0.135154,-0.057 -0.1082692,0 -0.1707598,0.069 -0.062491,0.069 -0.062491,0.1882 l 0,0.46 -0.1344276,0 0,-0.8139 0.1344276,0 0,0.1265 q 0.047958,-0.073 0.1126285,-0.1097 0.065397,-0.036 0.150414,-0.036 0.14024,0 0.212177,0.087 Q 10.325082,1037.4473 10.325082,1037.6159 Z"
         style=""
         id="path1121" />
      <path
         d="m 11.399776,1037.1189 q -0.113355,0 -0.170759,0.1119 -0.05668,0.1111 -0.05668,0.3349 0,0.2231 0.05668,0.335 0.0574,0.1112 0.170759,0.1112 0.114082,0 0.17076,-0.1112 0.0574,-0.1119 0.0574,-0.335 0,-0.2238 -0.0574,-0.3349 Q 11.513858,1037.1189 11.399776,1037.1189 z m 0,-0.1163 q 0.182386,0 0.278302,0.1446 0.09664,0.1439 0.09664,0.4185 0,0.274 -0.09664,0.4186 -0.09592,0.1439 -0.278302,0.1439 -0.182385,0 -0.279028,-0.1439 -0.09592,-0.1446 -0.09592,-0.4186 0,-0.2746 0.09592,-0.4185 Q 11.217391,1037.0026 11.399776,1037.0026 Z"
         style=""
         id="path1123" />
      <path
         d="m 12.048662,1037.3376 0.15332,0 0,0.1845 -0.15332,0 L 12.048662,1037.3376 z m 0,0.5849 0.15332,0 0,0.125 -0.119168,0.2325 -0.09374,0 0.05958,-0.2325 L 12.048662,1037.9225 Z"
         style=""
         id="path1125" />
      <path
         d="m 5.1339972,1040.1053 0.050865,0 q 0.101729,0 0.1322477,-0.031 0.031245,-0.031 0.031245,-0.1352 l 0,-0.1802 q 0,-0.1133 0.032699,-0.1649 0.032699,-0.052 0.1133552,-0.071 -0.080657,-0.018 -0.1133552,-0.07 -0.032699,-0.052 -0.032699,-0.1657 l 0,-0.1802 q 0,-0.1032 -0.031245,-0.1344 -0.030519,-0.032 -0.1322477,-0.032 l -0.050865,0 0,-0.1039 0.045778,0 q 0.1809322,0 0.241243,0.054 0.061037,0.053 0.061037,0.2136 l 0,0.1744 q 0,0.1083 0.039238,0.1504 0.039238,0.041 0.1424206,0.041 l 0.045051,0 0,0.104 -0.045051,0 q -0.1031823,0 -0.1424206,0.042 -0.039238,0.042 -0.039238,0.1519 l 0,0.1736 q 0,0.1606 -0.061037,0.2144 -0.060311,0.054 -0.241243,0.054 l -0.045778,0 L 5.1339972,1040.1053 Z"
         style=""
         id="path1127" />
    </g>
    <g
       id="g1241"
       transform="matrix(0.94658861,0,0,0.94658861,1.2817891,53.182262)">
      <path
         inkscape:connector-curvature="0"
         id="path22"
         d="m 29.286388,1013.3026 c -0.471358,-0.018 -0.880178,0.2669 -0.824721,0.7754 l 0,1.1544 c 0.01854,0.6947 0.544747,0.7939 0.923687,0.7754 l 1.336047,0 c 0.351212,0.1481 0.492841,0.35 0.511328,0.7754 -0.04342,0.8753 -0.05444,0.8699 -0.890699,1.7153 l -12.618227,12.9646 -0.04949,-15.1915 1.451508,0 c 0.268028,-0.03 0.613562,-0.3268 0.659776,-0.6595 l 0,-1.6993 c -0.0095,-0.3232 -0.212883,-0.5699 -0.610293,-0.5604 l -11.3811437,0 c -0.415901,-0.018 -0.70399,0.35 -0.676272,0.7749 l -0.01652,1.2703 c -0.0017,0.4271 0.304593,0.7711 0.692769,0.808 l 1.797887,0 -0.03297,28.5353 c -0.02769,0.2958 0.02555,0.4594 0.247416,0.5609 l 2.3916907,0 c 0.314249,-0.029 0.735429,-0.4089 1.105124,-0.8247 l 26.984865,-27.4467 c 0.295754,-0.3234 0.619539,-0.6994 0.610295,-1.0226 l -0.04949,-2.1937 c 0,-0.2867 -0.216847,-0.4969 -0.577304,-0.4783 L 29.286388,1013.3026 Z"
         style="fill:#74d900;fill-opacity:1;fill-rule:evenodd;stroke-width:0.25" />
      <path
         inkscape:connector-curvature="0"
         id="path865"
         d="m 28.46875,1015.2588 0,0.5938 c 0.01854,0.6947 0.52731,0.7997 0.90625,0.7812 l 1.34375,0 c 0.263409,0.1111 0.404655,0.2568 0.46875,0.5 0.0085,-0.1005 0.02445,-0.1754 0.03125,-0.3125 -0.01849,-0.4254 -0.148788,-0.6331 -0.5,-0.7812 l -1.34375,0 C 28.99606,1016.0586 28.48729,1015.9535 28.46875,1015.2588 z m -21.375,0.2188 0,0.5312 c -0.0017,0.4271 0.299324,0.7756 0.6875,0.8125 l 1.8125,0 0,-0.5937 -1.8125,0 C 7.4117363,1016.1925 7.1198252,1015.8761 7.09375,1015.4776 z m 12.6875,0.1562 c -0.04621,0.3327 -0.388222,0.6263 -0.65625,0.6563 l -1.4375,0 0,0.5937 1.4375,0 c 0.268028,-0.03 0.610036,-0.3235 0.65625,-0.6562 L 19.78125,1015.6338 z m 21.125,0.4688 c -0.027,0.3097 -0.346643,0.6331 -0.625,0.9375 l -26.96875,27.4687 c -0.369695,0.4158 -0.810751,0.7835 -1.125,0.8125 l -2.375,0 c -0.221866,-0.1015 -0.27769,-0.2667 -0.25,-0.5625 l 0,0.5938 c -0.02769,0.2958 0.028134,0.461 0.25,0.5625 l 2.375,0 c 0.314249,-0.029 0.755305,-0.3967 1.125,-0.8125 l 26.96875,-27.4688 c 0.295754,-0.3234 0.634244,-0.6768 0.625,-1 L 40.90625,1016.1026 Z"
         style="fill:#000000;fill-opacity:0.23707664;fill-rule:evenodd;stroke-width:0.25" />
      <path
         style="fill:#000000;fill-opacity:0.11622105;fill-rule:evenodd;stroke-width:0.25"
         d="m 28.46875,1015.8522 0,0.5938 c 0.01854,0.6947 0.52731,0.7997 0.90625,0.7812 l 1.34375,0 c 0.263409,0.1111 0.404655,0.2568 0.46875,0.5 0.0085,-0.1005 0.02445,-0.1754 0.03125,-0.3125 -0.01849,-0.4254 -0.148788,-0.6331 -0.5,-0.7812 l -1.34375,0 C 28.99606,1016.652 28.48729,1016.5469 28.46875,1015.8522 z m -21.375,0.2188 0,0.5312 c -0.0017,0.4271 0.299324,0.7756 0.6875,0.8125 l 1.8125,0 0,-0.5937 -1.8125,0 C 7.4117363,1016.7859 7.1198252,1016.4695 7.09375,1016.071 z m 12.6875,0.1562 c -0.04621,0.3327 -0.388222,0.6263 -0.65625,0.6563 l -1.4375,0 0,0.5937 1.4375,0 c 0.268028,-0.03 0.610036,-0.3235 0.65625,-0.6562 L 19.78125,1016.2272 z m 21.125,0.4688 c -0.027,0.3097 -0.346643,0.6331 -0.625,0.9375 l -26.96875,27.4687 c -0.369695,0.4158 -0.810751,0.7835 -1.125,0.8125 l -2.375,0 c -0.221866,-0.1015 -0.27769,-0.2667 -0.25,-0.5625 l 0,0.5938 c -0.02769,0.2958 0.028134,0.461 0.25,0.5625 l 2.375,0 c 0.314249,-0.029 0.755305,-0.3967 1.125,-0.8125 l 26.96875,-27.4688 c 0.295754,-0.3234 0.634244,-0.6768 0.625,-1 L 40.90625,1016.696 Z"
         id="path870"
         inkscape:connector-curvature="0" />
      <path
         inkscape:connector-curvature="0"
         id="path872"
         d="m 28.46875,1016.4511 0,0.5938 c 0.01854,0.6947 0.52731,0.7997 0.90625,0.7812 l 1.34375,0 c 0.263409,0.1111 0.404655,0.2568 0.46875,0.5 0.0085,-0.1005 0.02445,-0.1754 0.03125,-0.3125 -0.01849,-0.4254 -0.148788,-0.6331 -0.5,-0.7812 l -1.34375,0 C 28.99606,1017.2509 28.48729,1017.1458 28.46875,1016.4511 z m -21.375,0.2188 0,0.5312 c -0.0017,0.4271 0.299324,0.7756 0.6875,0.8125 l 1.8125,0 0,-0.5937 -1.8125,0 C 7.4117363,1017.3848 7.1198252,1017.0684 7.09375,1016.6699 z m 12.6875,0.1562 c -0.04621,0.3327 -0.388222,0.6263 -0.65625,0.6563 l -1.4375,0 0,0.5937 1.4375,0 c 0.268028,-0.03 0.610036,-0.3235 0.65625,-0.6562 L 19.78125,1016.8261 z m 21.125,0.4688 c -0.027,0.3097 -0.346643,0.6331 -0.625,0.9375 l -26.96875,27.4687 c -0.369695,0.4158 -0.810751,0.7835 -1.125,0.8125 l -2.375,0 c -0.221866,-0.1015 -0.27769,-0.2667 -0.25,-0.5625 l 0,0.5938 c -0.02769,0.2958 0.028134,0.461 0.25,0.5625 l 2.375,0 c 0.314249,-0.029 0.755305,-0.3967 1.125,-0.8125 l 26.96875,-27.4688 c 0.295754,-0.3234 0.634244,-0.6768 0.625,-1 L 40.90625,1017.2949 Z"
         style="fill:#000000;fill-opacity:0.05882353;fill-rule:evenodd;stroke-width:0.25" />
      <path
         style="fill:#74d900;fill-opacity:1;fill-rule:evenodd;stroke-width:0.25"
         d="m 29.286388,1013.3026 c -0.471358,-0.018 -0.880178,0.2669 -0.824721,0.7754 l 0,1.1544 c 0.01854,0.6947 0.544747,0.7939 0.923687,0.7754 l 1.336047,0 c 0.351212,0.1481 0.492841,0.35 0.511328,0.7754 -0.04342,0.8753 -0.05444,0.8699 -0.890699,1.7153 l -12.618227,12.9646 -0.04949,-15.1915 1.451508,0 c 0.268028,-0.03 0.613562,-0.3268 0.659776,-0.6595 l 0,-1.6993 c -0.0095,-0.3232 -0.212883,-0.5699 -0.610293,-0.5604 l -11.3811437,0 c -0.415901,-0.018 -0.70399,0.35 -0.676272,0.7749 l -0.01652,1.2703 c -0.0017,0.4271 0.304593,0.7711 0.692769,0.808 l 1.797887,0 -0.03297,28.5353 c -0.02769,0.2958 0.02555,0.4594 0.247416,0.5609 l 2.3916907,0 c 0.314249,-0.029 0.735429,-0.4089 1.105124,-0.8247 l 26.984865,-27.4467 c 0.295754,-0.3234 0.619539,-0.6994 0.610295,-1.0226 l -0.04949,-2.1937 c 0,-0.2867 -0.216847,-0.4969 -0.577304,-0.4783 L 29.286388,1013.3026 Z"
         id="path1238"
         inkscape:connector-curvature="0" />
    </g>
    <path
       style="fill:url(#linearGradient1259);fill-opacity:1;stroke:none"
       d="M 4.6875 3 C 3.7448824 3 3 3.7448824 3 4.6875 L 3 5.40625 C 3 4.4636324 3.7448824 3.71875 4.6875 3.71875 L 43.3125 3.71875 C 44.255118 3.71875 45 4.4636324 45 5.40625 L 45 4.6875 C 45 3.7448824 44.255118 3 43.3125 3 L 4.6875 3 z "
       transform="translate(0,1004.3622)"
       id="rect1248" />
    <path
       id="path1261"
       d="M 4.6875,1049.3622 C 3.7448824,1049.3622 3,1048.6173 3,1047.6747 l 0,-0.7188 c 0,0.9426 0.7448824,1.6875 1.6875,1.6875 l 38.625,0 c 0.942618,0 1.6875,-0.7449 1.6875,-1.6875 l 0,0.7188 c 0,0.9426 -0.744882,1.6875 -1.6875,1.6875 L 4.6875,1049.3622 Z"
       style="fill:url(#linearGradient1263);fill-opacity:1;stroke:none"
       inkscape:connector-curvature="0" />
    <path
       id="path1265"
       d="m 45,1009.0497 c 0,-0.9426 -0.744882,-1.6875 -1.6875,-1.6875 l -0.71875,0 c 0.942618,0 1.6875,0.7449 1.6875,1.6875 l 0,38.625 c 0,0.9426 -0.744882,1.6875 -1.6875,1.6875 l 0.71875,0 c 0.942618,0 1.6875,-0.7449 1.6875,-1.6875 L 45,1009.0497 Z"
       style="fill:url(#linearGradient1269);fill-opacity:1;stroke:none"
       inkscape:connector-curvature="0" />
    <path
       inkscape:connector-curvature="0"
       style="fill:url(#linearGradient1271);fill-opacity:1;stroke:none"
       d="m 3,1009.0497 c 0,-0.9426 0.7449,-1.6875 1.6875,-1.6875 l 0.7188,0 c -0.9426,0 -1.6875,0.7449 -1.6875,1.6875 l 0,38.625 c 0,0.9426 0.7449,1.6875 1.6875,1.6875 l -0.7188,0 C 3.7449,1049.3622 3,1048.6173 3,1047.6747 L 3,1009.0497 Z"
       id="path1267" />
  </g>
</svg>
