<?xml version="1.0" encoding="UTF-8" standalone="no"?>
<!-- Created with Inkscape (http://www.inkscape.org/) -->

<svg
   xmlns:dc="http://purl.org/dc/elements/1.1/"
   xmlns:cc="http://creativecommons.org/ns#"
   xmlns:rdf="http://www.w3.org/1999/02/22-rdf-syntax-ns#"
   xmlns:svg="http://www.w3.org/2000/svg"
   xmlns="http://www.w3.org/2000/svg"
   xmlns:xlink="http://www.w3.org/1999/xlink"
   xmlns:sodipodi="http://sodipodi.sourceforge.net/DTD/sodipodi-0.dtd"
   xmlns:inkscape="http://www.inkscape.org/namespaces/inkscape"
   width="48"
   height="48"
   id="svg2"
   version="1.1"
   inkscape:version="0.48+devel r12149"
   sodipodi:docname="vmware.svg">
  <defs
     id="defs4">
    <linearGradient
       id="linearGradient851">
      <stop
         id="stop853"
         offset="0"
         style="stop-color:#ffffff;stop-opacity:1" />
      <stop
         id="stop855"
         offset="1"
         style="stop-color:#cccccc;stop-opacity:1" />
    </linearGradient>
    <linearGradient
       id="linearGradient3795">
      <stop
         style="stop-color:#7fceed;stop-opacity:1;"
         offset="0"
         id="stop3797" />
      <stop
         style="stop-color:#3097bd;stop-opacity:1;"
         offset="1"
         id="stop3799" />
    </linearGradient>
    <linearGradient
       inkscape:collect="always"
       xlink:href="#linearGradient1415"
       id="linearGradient1421"
       x1="410.07144"
       y1="-547.79407"
       x2="410.07144"
       y2="-499.82144"
       gradientUnits="userSpaceOnUse"
       gradientTransform="translate(0,-0.00723055)" />
    <linearGradient
       inkscape:collect="always"
       id="linearGradient1415">
      <stop
         style="stop-color:#4d4e53;stop-opacity:1;"
         offset="0"
         id="stop1417" />
      <stop
         style="stop-color:#62636a;stop-opacity:1"
         offset="1"
         id="stop1419" />
    </linearGradient>
    <linearGradient
       y2="-499.82144"
       x2="410.07144"
       y1="-547.79407"
       x1="410.07144"
       gradientTransform="translate(-384.57144,-504.57147)"
       gradientUnits="userSpaceOnUse"
       id="linearGradient1441"
       xlink:href="#linearGradient1415"
       inkscape:collect="always" />
  </defs>
  <sodipodi:namedview
     id="base"
     pagecolor="#ffffff"
     bordercolor="#666666"
     borderopacity="1.0"
     inkscape:pageopacity="0.0"
     inkscape:pageshadow="2"
     inkscape:zoom="8"
     inkscape:cx="15.056496"
     inkscape:cy="30.153455"
     inkscape:document-units="px"
     inkscape:current-layer="layer1"
     showgrid="false"
     inkscape:window-width="1366"
     inkscape:window-height="716"
     inkscape:window-x="0"
     inkscape:window-y="28"
     inkscape:window-maximized="1">
    <inkscape:grid
       type="xygrid"
       id="grid3850" />
  </sodipodi:namedview>
  <metadata
     id="metadata7">
    <rdf:RDF>
      <cc:Work
         rdf:about="">
        <dc:format>image/svg+xml</dc:format>
        <dc:type
           rdf:resource="http://purl.org/dc/dcmitype/StillImage" />
        <dc:title />
      </cc:Work>
    </rdf:RDF>
  </metadata>
  <g
     inkscape:label="Capa 1"
     inkscape:groupmode="layer"
     id="layer1"
     transform="translate(0,-1004.3622)">
    <rect
       style="fill:url(#linearGradient1441);fill-opacity:1;stroke:none"
       id="rect2991-1-7-0"
       width="48"
       height="48"
       x="7.6806637e-06"
       y="-1052.3622"
       ry="1.9445436"
       transform="scale(1,-1)" />
    <path
       inkscape:connector-curvature="0"
       style="fill:#000000;fill-opacity:1;stroke:none"
       d="m -7.6806641e-6,1049.3622 0,1.0625 c 0,1.0773 0.8602200006641,1.9375 1.9374999806641,1.9375 l 44.1249997,0 c 1.07728,0 1.9375,-0.8602 1.9375,-1.9375 l 0,-1.0625 c 0,1.0773 -0.86022,1.9375 -1.9375,1.9375 l -44.1249997,0 C 0.86021232,1051.2997 -7.6806641e-6,1050.4395 -7.6806641e-6,1049.3622 Z"
       id="rect846-0" />
    <path
       inkscape:connector-curvature="0"
       style="fill:#ffffff;fill-opacity:0.5372549;stroke:none"
       d="m 2.5312423,1005.0185 c -0.91709,0 -1.67114998,0.6395 -1.84374998,1.5 0.33560998,-0.2799 0.77450998,-0.4375 1.24999998,-0.4375 l 44.1249997,0 c 0.47549,0 0.91439,0.1576 1.25,0.4375 -0.1726,-0.8605 -0.92666,-1.5 -1.84375,-1.5 L 2.5312423,1005.0185 Z"
       id="path7515-3" />
    <path
       inkscape:connector-curvature="0"
       style="fill:#000000;fill-opacity:0.39215686;stroke:none"
       d="m 1.9374923,1004.3622 c -1.07727998,0 -1.9374999806641,0.8602 -1.9374999806641,1.9375 l 0,43.0625 c 0,0.7934 0.4800200006641,1.449 1.1562499806641,1.75 -0.30933998,-0.3333 -0.49999998,-0.7824 -0.49999998,-1.2812 l 0,-42.9375 c 0,-1.0482 0.82689998,-1.875 1.87499998,-1.875 l 42.9374997,0 c 1.0481,0 1.875,0.8268 1.875,1.875 l 0,42.9375 c 0,0.4988 -0.19066,0.9479 -0.5,1.2812 0.67623,-0.301 1.15625,-0.9566 1.15625,-1.75 l 0,-43.0625 c 0,-1.0773 -0.86022,-1.9375 -1.9375,-1.9375 L 1.9374923,1004.3622 Z"
       id="rect4280-9" />
    <g
       id="g1533">
      <path
         sodipodi:nodetypes="sssssscsssscsssscssssssscssssssscsssscsssss"
         inkscape:connector-curvature="0"
         id="path1413"
         d="m 10.797261,1036.1497 c -0.629652,-0.1598 -1.3148304,-0.6832 -1.7601567,-1.3444 -0.227263,-0.3376 -1.6799348,-3.3619 -3.2281669,-6.721 -2.5447195,-5.5209 -2.8143692,-6.1668 -2.8088149,-6.7281 0.013887,-1.4019 1.4554784,-2.4605 2.8422432,-2.0871 0.8866316,0.2388 1.2816101,0.7781 2.2477935,3.0695 2.6258098,6.2275 3.3620928,7.9186 3.4554248,7.9362 0.05685,0.011 0.868165,-1.7712 1.80292,-3.9598 0.934761,-2.1887 1.856272,-4.2453 2.047812,-4.5704 0.813005,-1.3796 2.188097,-2.2741 3.85552,-2.5082 1.614882,-0.2266 3.346953,0.38 4.613645,1.6159 l 0.500095,0.488 0.645043,-0.4817 c 0.836476,-0.6247 1.804453,-1.1497 2.633968,-1.4287 0.949235,-0.3192 2.799407,-0.2865 3.857308,0.068 0.886149,0.2971 1.92568,0.9573 2.339212,1.4857 l 0.278083,0.3553 0.770685,-0.5677 c 1.354634,-0.998 2.424357,-1.4251 3.930839,-1.5693 2.61389,-0.2501 5.208745,1.398 5.94282,3.7746 0.22313,0.7225 0.238767,1.1258 0.236294,6.0949 -0.0025,4.9019 -0.02011,5.3596 -0.223927,5.8084 -0.882909,1.9437 -3.677683,1.7304 -4.288762,-0.3273 -0.152287,-0.5128 -0.186236,-1.4199 -0.188406,-5.0335 -0.0025,-4.0159 -0.02238,-4.4513 -0.223927,-4.8952 -0.805974,-1.7743 -3.507826,-1.845 -4.498233,-0.1175 -0.273821,0.4776 -0.278469,0.5496 -0.337911,5.2455 -0.05546,4.3812 -0.07875,4.7987 -0.291598,5.2274 -0.681889,1.3738 -2.636923,1.6745 -3.690754,0.5679 -0.689918,-0.7245 -0.718742,-0.9569 -0.718742,-5.7953 0,-4.854 -0.03004,-5.0927 -0.728727,-5.7914 -1.07036,-1.0703 -3.108422,-0.8685 -3.942098,0.3905 l -0.331622,0.5007 -0.06026,4.8308 c -0.055,4.4079 -0.07983,4.8667 -0.283744,5.2407 -0.950841,1.7445 -3.390135,1.7193 -4.190773,-0.043 -0.203757,-0.4485 -0.221491,-0.9053 -0.223931,-5.7663 l -0.0024,-5.2791 -0.295874,-0.2959 c -0.350625,-0.3506 -0.552526,-0.3697 -0.896482,-0.085 -0.140102,0.1161 -1.250288,2.3808 -2.467076,5.0327 -3.118171,6.7958 -3.179908,6.9053 -4.185528,7.4182 C 12.400672,1036.174 11.363138,1036.2933 10.797261,1036.1497 Z"
         style="fill:#ffffff" />
      <path
         inkscape:connector-curvature="0"
         id="path1513"
         d="m 5.3125404,1019.2023 c -1.2051435,-0.028 -2.3003489,0.9296 -2.3125,2.1562 -7.021e-4,0.071 0.050366,0.1667 0.0625,0.25 0.2443678,-1.2024 1.5251611,-2.0569 2.78125,-1.7187 0.8866316,0.2388 1.2838166,0.7711 2.25,3.0625 2.6258096,6.2275 3.3441676,7.9199 3.4374996,7.9375 0.05685,0.011 0.877745,-1.7802 1.8125,-3.9688 0.934761,-2.1887 1.87096,-4.2374 2.0625,-4.5625 0.813005,-1.3796 2.176327,-2.2659 3.84375,-2.5 1.614882,-0.2266 3.358308,0.3891 4.625,1.625 l 0.5,0.4688 0.625,-0.4688 c 0.836476,-0.6247 1.826735,-1.1585 2.65625,-1.4375 0.949235,-0.3192 2.785849,-0.292 3.84375,0.062 0.886149,0.2971 1.930218,0.9716 2.34375,1.5 l 0.28125,0.3438 0.75,-0.5625 c 1.354634,-0.998 2.431018,-1.4183 3.9375,-1.5625 2.61389,-0.2501 5.203425,1.4046 5.9375,3.7812 0.111565,0.3613 0.187259,0.6252 0.21875,1.4375 -0.02762,-1.0954 -0.09221,-1.6527 -0.21875,-2.0625 -0.734075,-2.3766 -3.32361,-4.0313 -5.9375,-3.7812 -1.506482,0.1442 -2.582866,0.5645 -3.9375,1.5625 l -0.75,0.5625 -0.28125,-0.3438 c -0.413532,-0.5284 -1.457601,-1.1716 -2.34375,-1.4687 -1.057901,-0.3545 -2.894515,-0.413 -3.84375,-0.094 -0.829515,0.279 -1.819774,0.8128 -2.65625,1.4375 l -0.625,0.4688 -0.5,-0.4688 c -1.266692,-1.2359 -3.010118,-1.8516 -4.625,-1.625 -1.667423,0.2341 -3.030745,1.1204 -3.84375,2.5 -0.19154,0.3251 -1.127739,2.4051 -2.0625,4.5938 -0.934755,2.1886 -1.75565,3.9485 -1.8125,3.9375 -0.09333,-0.018 -0.81169,-1.71 -3.4374996,-7.9375 -0.9661834,-2.2914 -1.3633684,-2.8237 -2.25,-3.0625 C 5.6704448,1019.2181 5.4847038,1019.2063 5.3125404,1019.2023 Z"
         style="fill:#000000;fill-opacity:0.23529412" />
      <path
         inkscape:connector-curvature="0"
         id="path1522"
         d="m 3.0312904,1021.5518 c -0.01166,0.085 -0.030382,0.1623 -0.03125,0.25 -0.00555,0.5613 0.2677805,1.1978 2.8125,6.7187 1.5482321,3.3591 2.991487,6.3812 3.21875,6.7188 0.4453263,0.6612 1.1515976,1.1839 1.7812496,1.3437 0.565877,0.1436 1.596619,0.051 2.125,-0.2187 1.00562,-0.5129 1.069329,-0.6417 4.1875,-7.4375 1.216788,-2.6519 2.328648,-4.9152 2.46875,-5.0313 0.343956,-0.2847 0.524375,-0.2568 0.875,0.094 l 0.3125,0.2812 0,-0.4375 -0.3125,-0.2812 c -0.350625,-0.3506 -0.531044,-0.3785 -0.875,-0.094 -0.140102,0.1161 -1.251962,2.3794 -2.46875,5.0313 -3.118171,6.7958 -3.18188,6.8933 -4.1875,7.4062 -0.528381,0.2693 -1.559123,0.3936 -2.125,0.25 -0.629652,-0.1598 -1.3359233,-0.6825 -1.7812496,-1.3437 -0.227263,-0.3376 -1.6705179,-3.3597 -3.21875,-6.7188 C 3.5054881,1023.0777 3.088675,1022.1128 3.0312904,1021.5518 z m 24.7187496,1.7187 c -0.74752,0.074 -1.458162,0.4643 -1.875,1.0938 l -0.34375,0.5 0,0.4375 0.34375,-0.5 c 0.833676,-1.259 2.86714,-1.4766 3.9375,-0.4063 0.524015,0.524 0.67755,0.7898 0.71875,2.9375 -0.03264,-2.463 -0.168154,-2.8244 -0.71875,-3.375 C 29.27736,1023.4229 28.49756,1023.1965 27.75004,1023.2705 z m 10.15625,0 c -0.900011,-0.024 -1.848546,0.3863 -2.34375,1.25 -0.151106,0.2636 -0.208393,0.607 -0.25,1.4688 0.04282,-0.6647 0.11309,-0.7925 0.25,-1.0313 0.990407,-1.7275 3.694026,-1.6493 4.5,0.125 0.100774,0.222 0.157024,0.4274 0.1875,1.0938 -0.02789,-0.8654 -0.07507,-1.3149 -0.1875,-1.5625 C 39.659553,1023.7271 38.806301,1023.294 37.90629,1023.2705 z m -7.34375,9.3438 c 0.03192,2.4582 0.143529,2.8037 0.6875,3.375 1.053831,1.1066 3.005611,0.8113 3.6875,-0.5625 0.117792,-0.2373 0.179486,-0.6585 0.21875,-1.5625 -0.03936,0.7056 -0.112326,0.9106 -0.21875,1.125 -0.681889,1.3738 -2.633669,1.6691 -3.6875,0.5625 C 30.732602,1035.0084 30.602987,1034.7548 30.56254,1032.6143 z m 9.78125,0.5937 c 0.02628,0.9381 0.07107,1.4944 0.15625,1.7813 0.611079,2.0577 3.398341,2.2874 4.28125,0.3437 0.11168,-0.2459 0.159486,-0.7066 0.1875,-1.6875 -0.03019,0.7833 -0.08559,1.0256 -0.1875,1.25 -0.882909,1.9437 -3.670171,1.714 -4.28125,-0.3437 C 40.423896,1034.2954 40.371584,1033.9506 40.34379,1033.208 z m -19.53125,0.4375 c 0.02801,0.9754 0.07578,1.4416 0.1875,1.6875 0.800638,1.7623 3.236659,1.7758 4.1875,0.031 0.112684,-0.2067 0.148879,-0.6207 0.1875,-1.5313 -0.03857,0.7125 -0.08554,0.9068 -0.1875,1.0938 -0.950841,1.7445 -3.386862,1.731 -4.1875,-0.031 C 20.898162,1034.6713 20.842748,1034.4234 20.81254,1033.6455 Z"
         style="fill:#ffffff;fill-opacity:0.23529412" />
      <path
         style="fill:#ffffff;fill-opacity:0.11764706"
         d="m 3.0312904,1021.9937 c -0.01166,0.085 -0.030382,0.1623 -0.03125,0.25 -0.00555,0.5613 0.2677805,1.1978 2.8125,6.7187 1.5482321,3.3591 2.991487,6.3812 3.21875,6.7188 0.4453263,0.6612 1.1515976,1.1839 1.7812496,1.3437 0.565877,0.1436 1.596619,0.051 2.125,-0.2187 1.00562,-0.5129 1.069329,-0.6417 4.1875,-7.4375 1.216788,-2.6519 2.328648,-4.9152 2.46875,-5.0313 0.343956,-0.2847 0.524375,-0.2568 0.875,0.094 l 0.3125,0.2812 0,-0.4375 -0.3125,-0.2812 c -0.350625,-0.3506 -0.531044,-0.3785 -0.875,-0.094 -0.140102,0.1161 -1.251962,2.3794 -2.46875,5.0313 -3.118171,6.7958 -3.18188,6.8933 -4.1875,7.4062 -0.528381,0.2693 -1.559123,0.3936 -2.125,0.25 -0.629652,-0.1598 -1.3359233,-0.6825 -1.7812496,-1.3437 -0.227263,-0.3376 -1.6705179,-3.3597 -3.21875,-6.7188 C 3.5054881,1023.5196 3.088675,1022.5547 3.0312904,1021.9937 z m 24.7187496,1.7187 c -0.74752,0.074 -1.458162,0.4643 -1.875,1.0938 l -0.34375,0.5 0,0.4375 0.34375,-0.5 c 0.833676,-1.259 2.86714,-1.4766 3.9375,-0.4063 0.524015,0.524 0.67755,0.7898 0.71875,2.9375 -0.03264,-2.463 -0.168154,-2.8244 -0.71875,-3.375 C 29.27736,1023.8648 28.49756,1023.6384 27.75004,1023.7124 z m 10.15625,0 c -0.900011,-0.024 -1.848546,0.3863 -2.34375,1.25 -0.151106,0.2636 -0.208393,0.607 -0.25,1.4688 0.04282,-0.6647 0.11309,-0.7925 0.25,-1.0313 0.990407,-1.7275 3.694026,-1.6493 4.5,0.125 0.100774,0.222 0.157024,0.4274 0.1875,1.0938 -0.02789,-0.8654 -0.07507,-1.3149 -0.1875,-1.5625 C 39.659553,1024.169 38.806301,1023.7359 37.90629,1023.7124 z m -7.34375,9.3438 c 0.03192,2.4582 0.143529,2.8037 0.6875,3.375 1.053831,1.1066 3.005611,0.8113 3.6875,-0.5625 0.117792,-0.2373 0.179486,-0.6585 0.21875,-1.5625 -0.03936,0.7056 -0.112326,0.9106 -0.21875,1.125 -0.681889,1.3738 -2.633669,1.6691 -3.6875,0.5625 C 30.732602,1035.4503 30.602987,1035.1967 30.56254,1033.0562 z m 9.78125,0.5937 c 0.02628,0.9381 0.07107,1.4944 0.15625,1.7813 0.611079,2.0577 3.398341,2.2874 4.28125,0.3437 0.11168,-0.2459 0.159486,-0.7066 0.1875,-1.6875 -0.03019,0.7833 -0.08559,1.0256 -0.1875,1.25 -0.882909,1.9437 -3.670171,1.714 -4.28125,-0.3437 C 40.423896,1034.7373 40.371584,1034.3925 40.34379,1033.6499 z m -19.53125,0.4375 c 0.02801,0.9754 0.07578,1.4416 0.1875,1.6875 0.800638,1.7623 3.236659,1.7758 4.1875,0.031 0.112684,-0.2067 0.148879,-0.6207 0.1875,-1.5313 -0.03857,0.7125 -0.08554,0.9068 -0.1875,1.0938 -0.950841,1.7445 -3.386862,1.731 -4.1875,-0.031 C 20.898162,1035.1132 20.842748,1034.8653 20.81254,1034.0874 Z"
         id="path1527"
         inkscape:connector-curvature="0" />
      <path
         inkscape:connector-curvature="0"
         id="path1529"
         d="m 3.0312904,1022.4301 c -0.01166,0.085 -0.030382,0.1623 -0.03125,0.25 -0.00555,0.5613 0.2677805,1.1978 2.8125,6.7187 1.5482321,3.3591 2.991487,6.3812 3.21875,6.7188 0.4453263,0.6612 1.1515976,1.1839 1.7812496,1.3437 0.565877,0.1436 1.596619,0.051 2.125,-0.2187 1.00562,-0.5129 1.069329,-0.6417 4.1875,-7.4375 1.216788,-2.6519 2.328648,-4.9152 2.46875,-5.0313 0.343956,-0.2847 0.524375,-0.2568 0.875,0.094 l 0.3125,0.2812 0,-0.4375 -0.3125,-0.2812 c -0.350625,-0.3506 -0.531044,-0.3785 -0.875,-0.094 -0.140102,0.1161 -1.251962,2.3794 -2.46875,5.0313 -3.118171,6.7958 -3.18188,6.8933 -4.1875,7.4062 -0.528381,0.2693 -1.559123,0.3936 -2.125,0.25 -0.629652,-0.1598 -1.3359233,-0.6825 -1.7812496,-1.3437 -0.227263,-0.3376 -1.6705179,-3.3597 -3.21875,-6.7188 C 3.5054881,1023.956 3.088675,1022.9911 3.0312904,1022.4301 z m 24.7187496,1.7187 c -0.74752,0.074 -1.458162,0.4643 -1.875,1.0938 l -0.34375,0.5 0,0.4375 0.34375,-0.5 c 0.833676,-1.259 2.86714,-1.4766 3.9375,-0.4063 0.524015,0.524 0.67755,0.7898 0.71875,2.9375 -0.03264,-2.463 -0.168154,-2.8244 -0.71875,-3.375 C 29.27736,1024.3012 28.49756,1024.0748 27.75004,1024.1488 z m 10.15625,0 c -0.900011,-0.024 -1.848546,0.3863 -2.34375,1.25 -0.151106,0.2636 -0.208393,0.607 -0.25,1.4688 0.04282,-0.6647 0.11309,-0.7925 0.25,-1.0313 0.990407,-1.7275 3.694026,-1.6493 4.5,0.125 0.100774,0.222 0.157024,0.4274 0.1875,1.0938 -0.02789,-0.8654 -0.07507,-1.3149 -0.1875,-1.5625 C 39.659553,1024.6054 38.806301,1024.1723 37.90629,1024.1488 z m -7.34375,9.3438 c 0.03192,2.4582 0.143529,2.8037 0.6875,3.375 1.053831,1.1066 3.005611,0.8113 3.6875,-0.5625 0.117792,-0.2373 0.179486,-0.6585 0.21875,-1.5625 -0.03936,0.7056 -0.112326,0.9106 -0.21875,1.125 -0.681889,1.3738 -2.633669,1.6691 -3.6875,0.5625 C 30.732602,1035.8867 30.602987,1035.6331 30.56254,1033.4926 z m 9.78125,0.5937 c 0.02628,0.9381 0.07107,1.4944 0.15625,1.7813 0.611079,2.0577 3.398341,2.2874 4.28125,0.3437 0.11168,-0.2459 0.159486,-0.7066 0.1875,-1.6875 -0.03019,0.7833 -0.08559,1.0256 -0.1875,1.25 -0.882909,1.9437 -3.670171,1.714 -4.28125,-0.3437 C 40.423896,1035.1737 40.371584,1034.8289 40.34379,1034.0863 z m -19.53125,0.4375 c 0.02801,0.9754 0.07578,1.4416 0.1875,1.6875 0.800638,1.7623 3.236659,1.7758 4.1875,0.031 0.112684,-0.2067 0.148879,-0.6207 0.1875,-1.5313 -0.03857,0.7125 -0.08554,0.9068 -0.1875,1.0938 -0.950841,1.7445 -3.386862,1.731 -4.1875,-0.031 C 20.898162,1035.5496 20.842748,1035.3017 20.81254,1034.5238 Z"
         style="fill:#ffffff;fill-opacity:0.05882353" />
      <path
         style="fill:#000000;fill-opacity:0.11764706"
         d="m 5.3125404,1019.8273 c -1.2051435,-0.028 -2.3003489,0.9296 -2.3125,2.1562 -7.021e-4,0.071 0.050366,0.1667 0.0625,0.25 0.2443678,-1.2024 1.5251611,-2.0569 2.78125,-1.7187 0.8866316,0.2388 1.2838166,0.7711 2.25,3.0625 2.6258096,6.2275 3.3441676,7.9199 3.4374996,7.9375 0.05685,0.011 0.877745,-1.7802 1.8125,-3.9688 0.934761,-2.1887 1.87096,-4.2374 2.0625,-4.5625 0.813005,-1.3796 2.176327,-2.2659 3.84375,-2.5 1.614882,-0.2266 3.358308,0.3891 4.625,1.625 l 0.5,0.4688 0.625,-0.4688 c 0.836476,-0.6247 1.826735,-1.1585 2.65625,-1.4375 0.949235,-0.3192 2.785849,-0.292 3.84375,0.062 0.886149,0.2971 1.930218,0.9716 2.34375,1.5 l 0.28125,0.3438 0.75,-0.5625 c 1.354634,-0.998 2.431018,-1.4183 3.9375,-1.5625 2.61389,-0.2501 5.203425,1.4046 5.9375,3.7812 0.111565,0.3613 0.187259,0.6252 0.21875,1.4375 -0.02762,-1.0954 -0.09221,-1.6527 -0.21875,-2.0625 -0.734075,-2.3766 -3.32361,-4.0313 -5.9375,-3.7812 -1.506482,0.1442 -2.582866,0.5645 -3.9375,1.5625 l -0.75,0.5625 -0.28125,-0.3438 c -0.413532,-0.5284 -1.457601,-1.1716 -2.34375,-1.4687 -1.057901,-0.3545 -2.894515,-0.413 -3.84375,-0.094 -0.829515,0.279 -1.819774,0.8128 -2.65625,1.4375 l -0.625,0.4688 -0.5,-0.4688 c -1.266692,-1.2359 -3.010118,-1.8516 -4.625,-1.625 -1.667423,0.2341 -3.030745,1.1204 -3.84375,2.5 -0.19154,0.3251 -1.127739,2.4051 -2.0625,4.5938 -0.934755,2.1886 -1.75565,3.9485 -1.8125,3.9375 -0.09333,-0.018 -0.81169,-1.71 -3.4374996,-7.9375 -0.9661834,-2.2914 -1.3633684,-2.8237 -2.25,-3.0625 C 5.6704448,1019.8431 5.4847038,1019.8313 5.3125404,1019.8273 Z"
         id="path1531"
         inkscape:connector-curvature="0" />
    </g>
  </g>
</svg>
