<?xml version="1.0" encoding="UTF-8" standalone="no"?>
<!-- Created with Inkscape (http://www.inkscape.org/) -->

<svg
   xmlns:dc="http://purl.org/dc/elements/1.1/"
   xmlns:cc="http://creativecommons.org/ns#"
   xmlns:rdf="http://www.w3.org/1999/02/22-rdf-syntax-ns#"
   xmlns:svg="http://www.w3.org/2000/svg"
   xmlns="http://www.w3.org/2000/svg"
   xmlns:xlink="http://www.w3.org/1999/xlink"
   xmlns:sodipodi="http://sodipodi.sourceforge.net/DTD/sodipodi-0.dtd"
   xmlns:inkscape="http://www.inkscape.org/namespaces/inkscape"
   width="48"
   height="48"
   id="svg2"
   version="1.1"
   inkscape:version="0.48+devel r12149"
   sodipodi:docname="wallch.svg"
   inkscape:export-filename="/home/uri/Iconos/NITRUX/apps/512/wallch.png"
   inkscape:export-xdpi="960"
   inkscape:export-ydpi="960">
  <defs
     id="defs4">
    <linearGradient
       inkscape:collect="always"
       id="linearGradient2730">
      <stop
         style="stop-color:#f9f9f9;stop-opacity:1"
         offset="0"
         id="stop2732" />
      <stop
         style="stop-color:#ffffff;stop-opacity:1"
         offset="1"
         id="stop2734" />
    </linearGradient>
    <linearGradient
       inkscape:collect="always"
       id="linearGradient2654">
      <stop
         style="stop-color:#ffffff;stop-opacity:1;"
         offset="0"
         id="stop2656" />
      <stop
         style="stop-color:#ffffff;stop-opacity:0;"
         offset="1"
         id="stop2658" />
    </linearGradient>
    <linearGradient
       x1="0"
       y1="0"
       x2="1"
       y2="0"
       gradientUnits="userSpaceOnUse"
       gradientTransform="matrix(23.781153,0,0,-23.781153,8.1981851,34.2351)"
       spreadMethod="pad"
       id="linearGradient2504">
      <stop
         style="stop-opacity:1;stop-color:#2f510e"
         offset="0"
         id="stop2506" />
      <stop
         style="stop-opacity:1;stop-color:#538005"
         offset="0.1346112"
         id="stop2508" />
      <stop
         style="stop-opacity:1;stop-color:#43a61c"
         offset="0.50206642"
         id="stop2512" />
      <stop
         style="stop-opacity:1;stop-color:#00d251"
         offset="1"
         id="stop2514" />
    </linearGradient>
    <linearGradient
       id="linearGradient2480"
       spreadMethod="pad"
       gradientTransform="matrix(23.781153,0,0,-23.781153,8.1981851,34.2351)"
       gradientUnits="userSpaceOnUse"
       y2="0"
       x2="1"
       y1="0"
       x1="0">
      <stop
         id="stop2482"
         offset="0"
         style="stop-opacity:1;stop-color:#5b57a5" />
      <stop
         id="stop2484"
         offset="0.1346112"
         style="stop-opacity:1;stop-color:#5b57a5" />
      <stop
         id="stop2486"
         offset="0.5"
         style="stop-opacity:1;stop-color:#2e3091" />
      <stop
         id="stop2488"
         offset="0.50206642"
         style="stop-opacity:1;stop-color:#2e3091" />
      <stop
         id="stop2490"
         offset="1"
         style="stop-opacity:1;stop-color:#474373" />
    </linearGradient>
    <linearGradient
       x1="0"
       y1="0"
       x2="1"
       y2="0"
       gradientUnits="userSpaceOnUse"
       gradientTransform="matrix(32.262479,0,0,-32.262479,6.4102983,1034.7033)"
       spreadMethod="pad"
       id="linearGradient30080">
      <stop
         style="stop-opacity:1;stop-color:#5b57a5"
         offset="0"
         id="stop30082" />
      <stop
         style="stop-opacity:1;stop-color:#5b57a5"
         offset="0.00249746"
         id="stop30084" />
      <stop
         style="stop-opacity:1;stop-color:#2e3091"
         offset="0.5"
         id="stop30086" />
      <stop
         style="stop-opacity:1;stop-color:#2e3091"
         offset="0.50206642"
         id="stop30088" />
      <stop
         style="stop-opacity:1;stop-color:#474373"
         offset="1"
         id="stop30090" />
    </linearGradient>
    <radialGradient
       fx="0"
       fy="0"
       cx="0"
       cy="0"
       r="1"
       gradientUnits="userSpaceOnUse"
       gradientTransform="matrix(45.28046,0,0,-45.28046,349.73145,-262.64697)"
       spreadMethod="pad"
       id="radialGradient22060">
      <stop
         style="stop-opacity:1;stop-color:#097aa2"
         offset="0"
         id="stop22062" />
      <stop
         style="stop-opacity:1;stop-color:#19b6ef"
         offset="0.30645844"
         id="stop22064" />
      <stop
         style="stop-opacity:1;stop-color:#71d6f1"
         offset="0.62794018"
         id="stop22068" />
      <stop
         style="stop-opacity:1;stop-color:#8ae7ff"
         offset="1"
         id="stop22070" />
    </radialGradient>
    <linearGradient
       y2="233.52104"
       x2="465.69891"
       y1="349.72058"
       x1="465.69891"
       gradientUnits="userSpaceOnUse"
       id="linearGradient36313"
       xlink:href="#radialGradient22060"
       inkscape:collect="always" />
    <linearGradient
       inkscape:collect="always"
       xlink:href="#linearGradient2504"
       id="linearGradient2457"
       x1="13.788582"
       y1="1077.111"
       x2="13.788582"
       y2="990.13678"
       gradientUnits="userSpaceOnUse"
       gradientTransform="translate(-69.473241,0)" />
    <linearGradient
       inkscape:collect="always"
       xlink:href="#linearGradient2480"
       id="linearGradient2465"
       x1="351.58008"
       y1="-250.9866"
       x2="379.28909"
       y2="-250.9866"
       gradientUnits="userSpaceOnUse" />
    <linearGradient
       inkscape:collect="always"
       xlink:href="#linearGradient2504"
       id="linearGradient2467"
       gradientUnits="userSpaceOnUse"
       x1="365.76224"
       y1="-217.03851"
       x2="365.76224"
       y2="-285.62405" />
    <linearGradient
       inkscape:collect="always"
       xlink:href="#linearGradient2654"
       id="linearGradient2660"
       x1="455.68594"
       y1="221.40927"
       x2="455.68594"
       y2="300.66013"
       gradientUnits="userSpaceOnUse" />
    <linearGradient
       inkscape:collect="always"
       xlink:href="#linearGradient2480"
       id="linearGradient2668"
       gradientUnits="userSpaceOnUse"
       x1="351.58008"
       y1="-250.9866"
       x2="379.28909"
       y2="-250.9866" />
    <linearGradient
       inkscape:collect="always"
       xlink:href="#linearGradient2480"
       id="linearGradient2670"
       gradientUnits="userSpaceOnUse"
       x1="351.58008"
       y1="-250.9866"
       x2="379.28909"
       y2="-250.9866" />
    <linearGradient
       inkscape:collect="always"
       xlink:href="#linearGradient2480"
       id="linearGradient2672"
       gradientUnits="userSpaceOnUse"
       x1="351.58008"
       y1="-250.9866"
       x2="379.28909"
       y2="-250.9866" />
    <linearGradient
       inkscape:collect="always"
       xlink:href="#linearGradient30080"
       id="linearGradient2700"
       gradientUnits="userSpaceOnUse"
       gradientTransform="matrix(31.285201,0,0,-31.285201,6.9431201,1034.5112)"
       spreadMethod="pad"
       x1="0"
       y1="0"
       x2="1"
       y2="0" />
    <linearGradient
       inkscape:collect="always"
       xlink:href="#radialGradient22060"
       id="linearGradient2728"
       x1="6.5501566"
       y1="1021.4084"
       x2="34.345276"
       y2="1021.4084"
       gradientUnits="userSpaceOnUse"
       gradientTransform="matrix(0.96970853,0,0,0.96970853,0.72699914,31.150607)" />
    <linearGradient
       inkscape:collect="always"
       xlink:href="#linearGradient2730"
       id="linearGradient2736"
       x1="25.986174"
       y1="-1052.1854"
       x2="25.986174"
       y2="-1004.3816"
       gradientUnits="userSpaceOnUse" />
    <linearGradient
       inkscape:collect="always"
       xlink:href="#linearGradient30080"
       id="linearGradient2757"
       gradientUnits="userSpaceOnUse"
       gradientTransform="matrix(25.391649,0,0,-25.391649,7.1280642,1040.8586)"
       spreadMethod="pad"
       x1="0"
       y1="0"
       x2="1"
       y2="0" />
    <linearGradient
       inkscape:collect="always"
       xlink:href="#radialGradient22060"
       id="linearGradient2759"
       gradientUnits="userSpaceOnUse"
       gradientTransform="matrix(-34.840021,28.728349,28.728356,34.840021,29.510379,1024.6992)"
       spreadMethod="pad"
       x1="0"
       y1="0"
       x2="1"
       y2="0" />
  </defs>
  <sodipodi:namedview
     id="base"
     pagecolor="#ffffff"
     bordercolor="#666666"
     borderopacity="1.0"
     inkscape:pageopacity="0.0"
     inkscape:pageshadow="2"
     inkscape:zoom="4"
     inkscape:cx="-29.040023"
     inkscape:cy="32.451907"
     inkscape:document-units="px"
     inkscape:current-layer="layer1"
     showgrid="false"
     inkscape:window-width="1366"
     inkscape:window-height="716"
     inkscape:window-x="0"
     inkscape:window-y="28"
     inkscape:window-maximized="1" />
  <metadata
     id="metadata7">
    <rdf:RDF>
      <cc:Work
         rdf:about="">
        <dc:format>image/svg+xml</dc:format>
        <dc:type
           rdf:resource="http://purl.org/dc/dcmitype/StillImage" />
        <dc:title />
      </cc:Work>
    </rdf:RDF>
  </metadata>
  <g
     inkscape:label="Capa 1"
     inkscape:groupmode="layer"
     id="layer1"
     transform="translate(0,-1004.3622)">
    <rect
       style="fill:url(#linearGradient2736);fill-opacity:1;stroke:none"
       id="rect2991-1-7"
       width="48"
       height="48"
       x="5.6866456e-06"
       y="-1052.3622"
       ry="1.9445436"
       transform="scale(1,-1)" />
    <path
       inkscape:connector-curvature="0"
       style="fill:#000000;fill-opacity:1;stroke:none"
       d="m -5.6866455e-6,1049.3622 0,1.0625 c 0,1.0773 0.8602199966455,1.9375 1.9374999866455,1.9375 l 44.1249997,0 c 1.07728,0 1.9375,-0.8602 1.9375,-1.9375 l 0,-1.0625 c 0,1.0773 -0.86022,1.9375 -1.9375,1.9375 l -44.1249997,0 C 0.86021431,1051.2997 -5.6866455e-6,1050.4395 -5.6866455e-6,1049.3622 Z"
       id="rect846" />
    <path
       inkscape:connector-curvature="0"
       style="fill:#ffffff;fill-opacity:0.5372549;stroke:none"
       d="m 2.5312443,1005.0185 c -0.91709,0 -1.67114999,0.6395 -1.84374999,1.5 0.33560999,-0.2799 0.77450999,-0.4375 1.24999999,-0.4375 l 44.1249997,0 c 0.47549,0 0.91439,0.1576 1.25,0.4375 -0.1726,-0.8605 -0.92666,-1.5 -1.84375,-1.5 L 2.5312443,1005.0185 Z"
       id="path7515" />
    <path
       inkscape:connector-curvature="0"
       style="fill:#000000;fill-opacity:0.39215686;stroke:none"
       d="m 1.9374943,1004.3622 c -1.07727999,0 -1.9374999866455,0.8602 -1.9374999866455,1.9375 l 0,43.0625 c 0,0.7934 0.4800199966455,1.449 1.1562499866455,1.75 -0.30933999,-0.3333 -0.49999999,-0.7824 -0.49999999,-1.2812 l 0,-42.9375 c 0,-1.0482 0.82689999,-1.875 1.87499999,-1.875 l 42.9374997,0 c 1.0481,0 1.875,0.8268 1.875,1.875 l 0,42.9375 c 0,0.4988 -0.19066,0.9479 -0.5,1.2812 0.67623,-0.301 1.15625,-0.9566 1.15625,-1.75 l 0,-43.0625 c 0,-1.0773 -0.86022,-1.9375 -1.9375,-1.9375 L 1.9374943,1004.3622 Z"
       id="rect4280" />
    <g
       id="g2778">
      <path
         id="path30066"
         d="m 7.2834869,1034.7018 0.2335641,1.2011 c 0.5276677,1.9624 0.5409039,2.0183 0.9676227,3.0698 l 0.3002966,0.6673 c 0.3535108,0.4138 1.1131937,0.6243 4.4710837,1.4682 2.289699,0.5748 6.440076,1.6546 9.409296,2.7693 l 3.903857,-2.2689 c -3.092959,-1.5067 -7.415213,-3.1902 -13.179688,-4.738 C 9.2452288,1035.7575 7.516976,1035.3251 7.2834869,1034.7018 Z"
         style="fill:url(#linearGradient2757);fill-opacity:1.0;stroke:none"
         inkscape:connector-curvature="0" />
      <path
         id="path30092"
         d="m 8.0842781,1025.2591 c -0.5814208,1.9315 -0.5847928,1.9484 -0.7674249,3.003 -0.083032,0.635 -0.1859778,1.4974 -0.2335641,2.1354 0.064346,0.2589 0.1320768,0.603 1.9686116,1.2346 3.9279403,1.3493 8.0106403,2.2053 11.9451353,3.5368 5.460859,1.8472 8.385091,3.6466 9.342562,4.2375 0.0078,0 0.0256,0 0.03337,0 l 4.604549,-2.6693 c -5.773334,-4.594 -15.384517,-7.4024 -19.01879,-8.475 C 9.5086047,1026.3579 7.9964282,1025.8494 8.0842781,1025.2591 Z"
         style="fill:url(#linearGradient2700);fill-opacity:1.0;stroke:none"
         inkscape:connector-curvature="0" />
      <g
         transform="matrix(0.31999997,0,0,0.31999997,37.632227,698.6774)"
         id="g2674">
        <path
           sodipodi:type="arc"
           style="fill:url(#linearGradient36313);fill-opacity:1"
           id="path35556"
           sodipodi:cx="449.20551"
           sodipodi:cy="291.26059"
           sodipodi:rx="57.997883"
           sodipodi:ry="57.997883"
           d="m 507.20339,291.26059 c 0,32.03135 -25.96654,57.99788 -57.99788,57.99788 -32.03135,0 -57.99789,-25.96653 -57.99789,-57.99788 0,-32.03135 25.96654,-57.99788 57.99789,-57.99788 C 481.23685,233.26271 507.20339,259.22924 507.20339,291.26059 Z"
           transform="matrix(0.86210044,0,0,0.86210044,-429.86345,779.16923)" />
        <path
           inkscape:connector-curvature="0"
           id="path22458"
           style="fill:url(#linearGradient2457);fill-opacity:1;stroke:none"
           d="m -32.803108,988.42301 c 0,0 0.01625,-0.08 0.01625,-0.08 -0.878788,0.7372 -0.951838,0.7987 -1.38195,0.5256 -0.216813,-0.2071 -0.4336,-0.4187 -0.649238,-0.6212 0.319975,-0.057 0.630688,-0.1184 0.9298,-0.1797 0,0 -1.043425,-0.5302 -1.043425,-0.5302 0,0 -0.06487,0.018 -0.06487,0.018 0,0 -0.289837,0.082 -0.289837,0.082 0,0 -0.08587,0.03 -0.08587,0.03 -0.238825,0.084 -0.366363,0.3277 -0.6075,0.4164 -0.204063,0.071 -0.422013,-0.1388 -0.623738,0.027 -0.223762,0.1797 -0.213325,0.4915 -0.168112,0.8988 -0.3652,-0.048 -0.610975,-0.396 -1.005163,-0.3641 -0.493887,0.041 -0.906612,0.01 -0.906612,0.01 -0.120625,-0.036 -0.48115,-0.1525 -1.235888,-0.5074 -0.03825,0.339 -0.0905,0.7895 -0.127525,1.1286 -0.169262,-0.027 -0.2794,-0.052 -0.714162,-0.4255 -0.584325,0.9602 -1.09675,1.6041 -2.096125,2.6372 0.417362,0.025 1.293837,0.3254 1.296162,0.3254 0.605188,0.4801 1.109513,1.3993 1.61615,1.9796 0.04988,0.3822 0.0185,0.6985 -0.124125,1.3015 0.230725,0.2753 0.535638,0.644 0.766338,0.9284 -0.30375,0.7236 -0.606338,1.3743 -0.897338,1.9318 0,0 -0.147237,0.2867 -0.147237,0.2867 -0.073,0.8351 0.534462,1.4881 0.636487,2.27089 0.737363,0.1797 1.123425,1.033 1.970913,0.9989 0.655037,-0.023 0.634175,-0.5302 0.5565,-1.0922 1.0237,-0.2025 4.640912,-2.22309 6.997887,-5.24479 -0.37795,0.014 -1.477025,-0.5439 -1.4979,-0.8237 0.19825,-0.2185 0.379125,-0.2594 1.679913,-0.2185 -0.381425,-0.537 -0.772125,-1.0558 -1.165163,-1.5609 0.226075,-0.02 0.462588,0.027 1.022563,0.2093 -0.09387,-0.273 -0.215638,-0.6394 -0.30375,-0.9101 -1.76455,-1.5451 -2.3535,-3.4314 -2.3535,-3.445 m -8.778663,0.5757 c 0.11475,-0.3368 -0.295637,-0.6394 -0.3826,-0.6281 -0.104375,0.027 -0.177375,0.075 -0.326937,0.2162 -0.32925,-0.1638 -0.990088,-0.014 -1.625425,0.1297 -0.591263,0.1365 -0.89965,0.1911 -1.129213,0.1911 0.0765,0.4119 0.194775,0.6781 0.718813,1.4153 -1.773825,1.3698 -2.341913,1.768 -3.538375,1.7385 0.208687,0.03 0.398825,0.1138 0.924012,0.405 1.5663,-0.4915 1.733238,-0.5461 2.139025,-1.008 0.234175,0.02 0.398813,0.1001 0.699088,0.3436 0.242312,-0.3163 0.566937,-0.7395 0.801112,-1.0581 0.882275,-0.05 1.29965,-0.4733 1.7205,-1.7452 m -8.444775,0.2047 c 0.187813,-0.1479 0.187813,-0.1479 0.3165,-0.8897 0,0 -0.10775,0.064 -0.10775,0.064 -1.73555,1.0103 -1.73555,1.0103 -2.097275,1.1423 0.8556,-0.132 0.8556,-0.132 1.264863,-0.2981 -0.02312,0.182 -0.02312,0.2844 0.0125,0.4164 0.058,-0.032 0.16695,-0.087 0.61215,-0.4346 m -0.459113,2.305 c 0,0 0.04863,-0.045 0.04863,-0.045 0.01,-0.2299 0.02437,-0.5416 0.03138,-0.7782 0,0 -0.05213,0.027 -0.05213,0.027 -0.4823,0.223 -0.788375,0.3823 -0.788375,0.3823 0,0 -0.03012,0.066 -0.03012,0.066 -0.153037,0.3026 -0.3339,0.6212 -0.534462,0.9306 0.13565,0.018 0.562287,0.066 1.32515,-0.5825 m -2.121638,0.2685 c 0,0 0.113625,-0.1411 0.113625,-0.1411 -0.303762,0.2048 -0.649237,0.3254 -0.969225,0.4915 0.01125,-0.2958 -0.11825,-0.5688 -0.06963,-0.8692 0.04175,-0.2662 0.11125,-0.4095 0.3107,-0.6508 0,0 -0.0905,-0.011 -0.0905,-0.011 -0.289837,-0.041 -0.591275,0 -0.883425,-0.05 -0.176225,-0.036 -0.20405,-0.1252 -0.2226,-0.1707 -0.832412,0.3163 -1.157037,0.4551 -1.432962,0.6212 0,0 0.058,0.2048 0.058,0.2048 1.458462,0.027 1.458462,0.027 1.528025,0.039 -0.300263,0.1661 -0.70025,0.3937 -0.999363,0.5598 0.466063,0.1274 0.639963,0.6599 1.1095,0.7782 0.260863,0.045 0.521713,0.084 0.78605,0.1297 0.256213,-0.3118 0.500838,-0.6235 0.7617,-0.9307 m 1.711213,2.8511 c 0,0 0.01738,0.1024 0.01738,0.1024 0.249275,-0.5871 0.249275,-1.2515 0.180862,-2.1343 0,0 -0.03475,0.066 -0.03475,0.066 -0.11825,0.2389 -0.33505,0.6803 -0.163475,1.9659 m -6.62805,-3.2129 c 0,0 0,0 0,0 0,0 -0.06837,-0.061 -0.06837,-0.061 0,0 0.06837,0.061 0.06837,0.061 m 3.064175,2.2504 c 0,0 0.277088,-0.2252 0.277088,-0.2252 -0.968063,-0.1684 -1.081675,-0.471 -1.161663,-0.6849 -0.182025,-0.011 -0.409262,0.052 -1.012125,0.2912 -0.230725,-0.2002 -0.536787,-0.4642 -0.766337,-0.6644 -0.0038,-0.6121 -0.0038,-0.6121 -0.401138,-0.9671 0,0 0.0087,0.034 0.0087,0.034 -0.05337,0.4551 -0.546062,0.6872 -0.579687,1.1469 -0.02212,0.298 0.133337,0.587 0.04175,0.8874 -0.04988,0.1775 -0.125213,0.3208 -0.206363,0.4869 -0.05562,0 -0.664312,0.1001 -1.066612,0.2731 0.60635,1.1149 2.523925,1.2901 4.866987,-0.578 m 10.554813,4.4098 c 0,0 0.02087,-0.2321 0.02087,-0.2321 -0.739675,0.2525 -0.67475,-0.8806 -0.639975,-1.4882 -0.646925,-0.4482 -0.84865,-0.7577 -0.82315,-1.2696 -0.197088,-0.025 -0.505475,-0.132 -1.055013,-0.3641 -0.636487,-0.2753 -0.873,-0.289 -1.087475,-0.2162 -0.119375,-0.2525 -0.282887,-0.5848 -0.404612,-0.8396 -0.304925,0.2048 -0.534475,0.3641 -1.060825,0.76 -0.120625,-0.059 -0.0835,-0.289 0.143775,-0.917 0,0 -0.05575,0.018 -0.05575,0.018 -0.957625,0.3209 -0.957625,0.3209 -1.507163,0.776 0.04175,0.023 0.04175,0.023 0.483463,0.9056 0.817337,-0.3914 2.368562,0.1433 2.490287,1.0398 -0.896175,1.0604 -1.3576,1.6907 -1.972062,2.71 -0.639963,-0.018 -1.241675,0.2026 -1.861938,0.2845 0.665475,0.059 1.36805,0.1115 2.072938,0.1524 0,0 0.82895,1.53589 0.82895,1.53589 1.533825,-3.01029 2.519287,-2.39369 3.558075,-1.34929 0.26665,-0.273 0.7559,-0.7691 0.869512,-1.5063 m 5.115088,57.26819 c 0.0185,-0.2662 0.029,-0.612 0.03937,-0.8692 -0.07662,0 -7.825675,-0.2867 -12.49325,-4.6714 -0.67475,0.052 -1.693825,0.1229 -3.363313,1.3971 -0.417362,-0.2867 -0.970375,-0.6576 -1.385425,-0.9375 0,0 1.131525,-1.1718 1.131525,-1.1718 -1.84685,-3.5906 -2.2735,-3.6475 -3.686762,-3.8318 -2.693189,-0.3595 -2.693189,-0.3595 -3.481551,-2.8898 0,0 -0.626638,-0.6303 -0.626638,-0.6303 -1.736137,-1.6565 -3.901237,-2.4847 -6.197937,-3.3579 0,0 -1.523388,0.1496 -1.523388,0.1496 -1.332687,-0.7839 -1.901925,-1.1246 -3.092587,-1.8681 -1.784838,1.698 -2.35525,1.3203 -6.061712,-1.1246 -0.02212,-0.3027 -1.06835,-2.0707 -3.071725,-3.2562 0,0 -0.347812,-0.8464 -0.347812,-0.8464 0.09162,-0.8101 0.195937,-1.6156 0.31825,-2.4188 0.7472,-0.8555 0.875312,-1.0945 1.161675,-2.1252 -0.920538,-0.075 -1.502525,0.273 -2.591738,1.5382 -0.460275,-0.1935 -0.902575,-0.396 -1.3269,-0.603 -0.158825,-0.628 -0.649812,-2.8602 -0.319975,-5.163 0.808063,-0.3822 0.808063,-0.3822 2.4161,-3.338 2.928538,0.098 2.928538,0.098 4.666424,1.2651 0.435338,-0.2321 1.011538,-0.5483 1.441088,-0.7873 0,0 0.445187,1.4131 0.445187,1.4131 0.568075,0.045 0.6846,0.055 1.559913,-0.2662 -0.368675,1.9363 0.16,3.8682 0.06375,5.7954 0.6875,-0.5643 1.603987,-1.3174 2.288587,-1.884 0,0 -0.71765,-1.5473 -0.71765,-1.5473 0.269563,-0.917 0.434188,-1.4244 1.260225,-2.8829 -0.1055,0.3891 -0.20695,0.7759 -0.306062,1.1695 0.98255,-0.6667 2.151187,-0.9716 3.144175,-1.6178 0.822562,-0.01 1.478762,0.116 2.14945,0.2389 2.131487,-2.5302 2.131487,-2.5302 2.76855,-3.1492 3.556925,-1.5427 3.556925,-1.5427 12.778451,-4.0138 -0.862563,-0.1797 -0.862563,-0.1797 -1.560488,-0.9739 0.34085,-0.3549 0.7814,-0.8237 1.12225,-1.1855 -0.08,-0.018 -0.08,-0.018 -4.125,0.7236 2.02425,-1.6337 3.920963,-1.7498 7.467438,-1.6269 0.840537,0.034 0.840537,0.034 4.187612,-2.7442 -0.92865,0.057 -1.202262,0.1343 -2.462475,0.6485 0.158825,-0.7417 0.158825,-0.7417 0.51475,-1.4881 -0.219125,-0.3982 -0.50665,-0.9238 -0.7246,-1.322 0.223763,-0.7008 0.223763,-0.7008 0.635338,-1.4449 -1.048075,-0.5165 -1.947738,-0.4687 -3.060725,-0.2253 -1.502525,-2.4984 -1.502525,-2.4984 -2.302475,-2.644 -0.02213,0.4346 -0.04863,1.0057 -0.07188,1.4313 -0.510125,-0.043 -1.017925,-0.086 -1.518763,-0.1388 -1.922225,2.1775 -4.223537,3.9865 -6.177063,6.1436 -1.012125,-1.165 -1.605713,-4.7033 -1.67875,-5.9116 0.604025,-0.3026 1.405137,-0.7076 2.00685,-1.0034 0,0 1.540788,-0.7828 1.540788,-0.7828 4.89945,-3.02629 4.89945,-3.02629 6.690663,-2.21389 0.40925,-0.3709 0.95415,-0.8533 1.366887,-1.2219 0,0 -0.3339,-0.9261 -0.3339,-0.9261 -0.980812,0.4573 -1.317037,0.5438 -1.881637,0.6849 -0.539113,-1.0672 -0.17275,-2.2095 -0.313038,-3.3108 0,0 -0.151875,-0.064 -0.151875,-0.064 -1.917575,3.5064 -1.917575,3.5064 -4.005587,3.3995 -0.044,-0.132 -0.100875,-0.3118 -0.144913,-0.4506 -0.912412,-0.071 -1.007487,-0.1137 -1.9373,-0.4687 -0.426637,0.1888 -0.986613,0.4414 -1.409776,0.6303 0.05687,-0.132 0.137975,-0.2981 0.193613,-0.421 -0.263175,-0.071 -0.6249,-0.1456 -0.896175,-0.1934 -0.04175,-0.3072 -0.09388,-0.7213 -0.133338,-1.0285 -4.1534,2.0729 -4.186437,2.032 -4.790462,1.3448 1.928587,-0.3868 2.125675,-0.4255 4.31745,-1.4745 -0.329263,-0.089 -0.64925,-0.1797 -0.962275,-0.2799 0,0 0.365212,-0.9101 0.365212,-0.9101 -0.4139,-0.1388 -0.812712,-0.2776 -1.19125,-0.4187 -1.06255,0.4209 -1.410362,0.4392 -2.321625,0.1184 0.2823,-0.4141 0.656775,-0.9625 0.93735,-1.3698 -0.577362,-0.1525 -0.89445,-0.239 -2.619575,0.1593 0.11425,-0.2481 0.29505,-0.5643 0.453888,-0.7805 -0.07938,-0.1115 -0.180863,-0.2594 -0.260263,-0.3709 0.08063,-0.1091 0.187813,-0.2571 0.267213,-0.3664 -0.315913,-0.023 -0.741988,-0.01 -1.050363,0.043 0.2278,-0.2435 0.525763,-0.5643 0.755313,-0.8078 -0.69735,0.3823 -0.69735,0.3823 -2.603338,1.2811 0.0615,-0.1342 0.140863,-0.314 0.204625,-0.4483 -0.761112,0.089 -0.761112,0.089 -2.505375,1.0513 -0.125212,-0.066 -0.286937,-0.1593 -0.410412,-0.2276 -0.426063,0.132 -0.426063,0.132 -3.293163,2.2391 0.05575,-0.1548 0.131013,-0.2981 0.215638,-0.4506 -0.468963,0.3982 -0.5188,0.4346 -1.111813,0.9784 0.158825,-0.089 0.377363,-0.2138 0.54025,-0.3071 0.1345,0.059 0.31535,0.1365 0.450413,0.1888 0.5762,-0.3618 1.266025,-0.2708 1.883962,-0.4778 -0.158837,0.2457 -0.372737,0.5802 -0.535625,0.8282 0.528663,-0.4073 0.528663,-0.4073 1.315875,-0.7326 0.34375,-0.032 0.391275,0.041 0.4423,0.1206 -0.144337,0.4596 -0.144337,0.4596 -1.514712,1.9796 0.357662,0.1206 0.827787,0.2912 1.1866,0.3936 -12.828299,11.47949 -12.828299,11.47949 -14.055474,13.24299 -0.437088,2.4392 -0.437088,2.4392 -1.196475,3.6793 -0.4562,0.9534 -0.752988,1.6884 -1.0353,2.4415 -0.1513,0.4028 -0.296225,0.8146 -0.441138,1.2288 -0.180862,0.8805 -0.195937,1.7953 -0.496212,2.6554 0.1513,0 0.350125,0 0.49795,0 -0.0038,-0.027 0.08638,-3.0559 1.702525,-4.7693 0.311862,-1.1536 0.311862,-1.1536 0.801687,-1.9182 -1.397025,5.6635 -1.397025,5.6635 -1.452675,6.4508 -0.375637,1.4881 -0.69155,2.6987 -0.95995,3.9206 0.147825,1.3675 0.34085,3.2106 0.5791,4.569 7.545688,4.6714 11.040574,13.5621 11.074199,13.6462 -5.170161,8.08 -0.836475,10.4397 2.032363,11.996 0.184912,0.7259 0.385475,1.4449 0.602287,2.1503 1.168638,1.1992 4.886113,4.4917 8.0303,5.3882 1.119938,5.6362 4.388175,9.964 9.718339,12.8447 0.296787,0.3277 0.598212,0.6326 0.911237,0.9147 1.893238,0.578 3.613738,1.6156 5.56145,2.0752 0.0835,-0.1615 0.19245,-0.3777 0.281725,-0.5393 -0.08925,-0.098 -0.177375,-0.2047 -0.265487,-0.3117 0,0 -0.99705,-0.4801 -0.99705,-0.4801 -0.81155,-1.1787 -0.81155,-1.1787 -0.62605,-2.0684 0,0 -1.311238,-0.2821 -1.311238,-0.2821 1.1582,-0.2958 1.450363,-0.3208 2.598113,-0.3004 -0.153025,-0.2457 -0.382575,-0.562 -0.579675,-0.7782 1.0527,-0.4619 2.237575,-0.612 3.174325,-1.3334 0.24,0.071 0.559975,0.1593 0.799962,0.223 0,0 0.834738,-0.6052 0.834738,-0.6052 0.02437,-2.1753 0.02437,-2.1753 -0.354763,-3.404 5.9452,-3.5497 5.9452,-3.5497 5.001488,-5.6749 3.398075,-3.643 3.398075,-3.643 3.529075,-5.8524 m -24.636919,-43.5611 c -1.6915,0.6576 -2.872887,2.4347 -4.977712,2.1889 0.289262,-0.7782 0.83765,-1.4563 0.868362,-2.3255 0,0 1.193563,-0.8055 1.193563,-0.8055 -0.417375,0.032 -1.028363,-0.091 -1.39935,0.1024 -0.01687,0.01 -0.875313,0.7441 -1.683375,1.5109 -0.275938,0.2594 -0.586075,0.5597 -1.439925,0.9602 0.237662,-1.206 0.593587,-2.239 2.82245,-3.5815 -0.559388,-0.3345 -0.994725,-0.8578 -1.646875,-1.049 1.385437,-1.4016 1.963962,-1.504 4.134275,-0.7304 0.496787,1.8636 0.895037,3.0514 2.181912,3.7067 0,0 -0.05325,0.023 -0.05325,0.023 m 37.533676,-14.47389 c 0,0 -0.0087,-0.1593 -0.0087,-0.1593 -0.679387,-0.1001 -1.2498,-0.087 -1.960475,0.043 -0.620262,0.1319 -1.046912,0.2889 -1.47355,0.5643 0.345488,0.232 0.802275,0.5529 1.150088,0.7918 2.2793,-0.3732 2.287412,-0.8351 2.29205,-1.2401 m -51.071564,-2.8033 c 0,0 0.223763,-0.1479 0.223763,-0.1479 0,0 0.125212,-0.132 0.125212,-0.132 0,0 0.106125,-0.1593 0.106125,-0.1593 0,0 -0.214475,0.1934 -0.214475,0.1934 0,0 0.03887,-0.052 0.03887,-0.052 0,0 0.147813,-0.1547 0.147813,-0.1547 0,0 -0.250413,0.2002 -0.250413,0.2002 0,0 0.06088,-0.08 0.06088,-0.08 0,0 -0.191875,0.1661 -0.191875,0.1661 0,0 -0.23245,0.2685 -0.23245,0.2685 0,0 0.18665,-0.1024 0.18665,-0.1024 m 28.925451,17.60029 c 0,0 1.075875,-1.19 1.075875,-1.19 0,0 -2.726812,-0.4779 -2.726812,-0.4779 0,0 0.03013,0.016 0.03013,0.016 0.01387,0.014 1.397037,1.0991 1.6208,1.652 m -41.40885,7.3678 c 0,0 0,0 0,0 0,0 -0.02775,0.01 -0.02775,0.01 0,0 0.02775,-0.01 0.02775,-0.01 m 16.118574,10.8424 c 0,0 0.506637,-0.4392 0.506637,-0.4392 -0.191862,-0.077 -0.40925,-0.3049 -0.8643,-0.8988 -0.857925,-1.1195 -0.874725,-1.14 -2.260737,-0.4027 0.758212,1.3106 0.758212,1.3106 2.6184,1.7407 m -2.911725,-1.8181 c 0,0 0.293325,0.077 0.293325,0.077 -0.04988,-0.3823 -0.20175,-1.5405 -1.312988,-1.5473 -0.670687,-0.014 -1.066025,-0.05 -1.699037,-0.1434 0.1994,0.2867 0.7304,1.049 2.7187,1.6133 m 7.203675,5.1561 c 0,0 1.163425,-1.0558 1.163425,-1.0558 0,0 -0.917063,-1.3948 -0.917063,-1.3948 0,0 -1.5234,-0.8237 -1.5234,-0.8237 0,0 -0.246362,0.059 -0.246362,0.059 -0.912413,0.2662 -1.053275,0.3482 -0.656775,1.8431 0.993562,-0.093 0.993562,-0.093 2.180175,1.3721" />
        <g
           id="g22460"
           transform="matrix(1.1871839,0,0,1.1650132,-442.88909,1316.8822)"
           style="fill:url(#linearGradient2465);fill-opacity:1">
          <g
             id="g22462"
             style="fill:url(#linearGradient2672);fill-opacity:1">
            <g
               id="g22468"
               style="fill:url(#linearGradient2670);fill-opacity:1">
              <g
                 id="g22470"
                 style="fill:url(#linearGradient2668);fill-opacity:1">
                <path
                   inkscape:connector-curvature="0"
                   id="path22484"
                   style="fill:url(#linearGradient2467);fill-opacity:1;stroke:none"
                   d="m 358.10156,-282.89697 c -2.04199,-1.15821 -4.22461,-2.0918 -6.52148,-2.77735 0,0 0.004,0.004 0.004,0.004 3.42969,1.375 3.42969,1.375 3.82813,1.63867 0,0 0.25684,-0.0703 0.25684,-0.0703 0.7207,0.3418 1.17773,0.57226 2.24902,1.21289 -0.94922,-0.34375 -1.88184,-0.73633 -2.84863,-1.03711 1.10546,0.47461 1.10546,0.47461 1.52148,0.77734 -0.11426,0.041 -0.26367,0.0899 -0.37891,0.12696 0.31641,0.13672 0.72754,0.32226 1.04297,0.45898 0.68164,0.67578 1.22754,1.46875 1.89942,2.15235 0.48242,0.50976 1.12793,1.19531 1.57324,1.74218 -0.63477,-0.23047 -1.48047,-0.54297 -2.11719,-0.76953 0,0 -0.3418,-0.29883 -0.3418,-0.29883 0.35157,0.0274 0.82325,0.0684 1.17481,0.0977 0,0 -0.79199,-0.69727 -0.79199,-0.69727 0,0 -0.95117,-0.38671 -0.95117,-0.38671 -0.59668,0.37304 -0.66993,0.3496 -2.51954,-0.31055 -0.23632,0.21289 -0.51367,0.41601 -0.84277,0.61523 1.65137,1.92188 1.82715,2.1211 2.67481,3.68946 -0.23536,1.08593 -0.23536,1.08593 1.80468,2.74414 0.10254,-0.0723 0.2334,-0.16993 0.33594,-0.24414 -0.16992,-0.58204 -0.16992,-0.58204 -0.79394,-1.40039 0,0 0.1123,0.0859 0.1123,0.0859 0,0 0.19336,0.19336 0.19336,0.19336 0,0 0.19043,0.18555 0.19043,0.18555 0,0 0.18652,0.19141 0.18652,0.19141 0,0 0.18457,0.18554 0.18457,0.18554 0,0 0.17676,0.1875 0.17676,0.1875 0,0 0.17481,0.1836 0.17481,0.1836 0,0 0.1748,0.18164 0.1748,0.18164 0.10937,0 0.25391,0 0.36328,0 0.35547,-0.99219 0.35547,-0.99219 -1.98633,-4.05469 0,0 0.66992,0.0469 0.66992,0.0469 0,0 1.14454,1.59375 1.14454,1.59375 0.2666,0.041 0.64062,0.0391 0.90039,-0.0234 0.32031,-0.23047 0.39453,-0.29883 0.46289,-0.36524 2.03027,3.92188 2.03027,3.92188 2.04785,4.84571 -0.47949,-0.14454 -0.47949,-0.14454 -1.08301,-0.44922 -0.0606,0.22851 -0.14844,0.5332 -0.22266,0.75586 -0.46386,-0.16407 -0.56933,-0.20118 -1.70312,-1.45899 -0.0586,0.375 -0.0586,0.375 1.01367,1.67188 -0.0791,0.21289 -0.27246,0.46484 -0.44922,0.60742 0.006,0.39453 0.01,0.91797 0.0156,1.30859 -1.41211,-0.51172 -1.41211,-0.51172 -2.19336,-0.95312 -0.19141,-0.16016 -0.23926,-0.22657 -0.28516,-0.29297 0,0 -0.13867,-0.19727 -0.13867,-0.19727 0,0 -0.14062,-0.20703 -0.14062,-0.20703 0,0 -0.14454,-0.19922 -0.14454,-0.19922 0,0 -0.1455,-0.18945 -0.1455,-0.18945 0,0 -0.14356,-0.20117 -0.14356,-0.20117 0,0 -0.14355,-0.19531 -0.14355,-0.19531 0,0 -0.14649,-0.19532 -0.14649,-0.19532 -0.2041,0.13086 -0.46289,0.33789 -0.62988,0.50977 0.0723,0.30469 0.19434,0.81836 1.99219,1.98437 0.0156,0.45703 0.0391,1.06446 0.0508,1.52149 0.17578,0.16992 0.40234,0.39453 0.57129,0.57422 0,0 -0.0762,0.27929 -0.0762,0.27929 0.62207,0.0742 0.62207,0.0742 2.45214,2.8711 -0.27734,0.15625 -0.55859,0.31445 -3.51269,0.49023 0.51855,1.10156 1.16113,2.14063 1.68848,3.2461 0,0 -0.2793,0.26367 -0.2793,0.26367 0,0 0.0566,0.15625 0.0566,0.15625 0,0 0.0576,0.15429 0.0576,0.15429 0,0 0.0537,0.15039 0.0537,0.15039 0,0 0.0527,0.14649 0.0527,0.14649 0,0 0.0479,0.14648 0.0479,0.14648 0,0 0.0498,0.14063 0.0498,0.14063 0,0 0.0537,0.13672 0.0537,0.13672 0,0 0.0439,0.13672 0.0439,0.13672 2.67579,-0.93555 2.7793,-0.97461 4.14063,-1.56836 -0.26758,-0.62696 -0.54883,-1.24805 -0.83887,-1.85743 0.92481,-0.8496 0.42285,-2.25585 1.22363,-3.15625 0.2959,-0.11718 0.58008,-0.23437 0.85254,-0.35742 2.05371,2.09766 2.13282,2.18164 3.25293,1.78516 0.34473,0.52734 0.34473,0.52734 0.78711,1.09766 -0.34179,-0.65821 -0.56738,-1.08985 -1.91015,-2.94336 -0.0469,0.0976 -0.11133,0.23437 -0.15821,0.33398 -0.39746,-0.11914 -0.39746,-0.11914 -1.02343,-0.62695 0.0801,-0.10157 0.19336,-0.22657 0.27343,-0.32422 0.79688,0.11523 0.79688,0.11523 4.82911,3.37109 0.1875,-1.33984 -1.11036,-2.00976 -1.40625,-3.13476 0.38671,-0.55469 0.35449,-0.6211 0.18457,-0.97657 -0.5879,-0.82226 -0.99805,-1.74609 -1.50684,-2.61523 0.22559,-0.0176 0.53027,-0.0176 0.75488,0.0137 0.008,-0.11523 0.0186,-0.26758 0.0293,-0.3789 -0.14063,-0.12305 -0.32129,-0.28907 -0.45801,-0.41211 0,0 0.0147,-0.0352 0.0147,-0.0352 0,0 0.0195,-0.0371 0.0195,-0.0371 0,0 0.0156,-0.0371 0.0156,-0.0371 0,0 0.0215,-0.0371 0.0215,-0.0371 0,0 0.0156,-0.043 0.0156,-0.043 0,0 0.0137,-0.0391 0.0137,-0.0391 0,0 0.0176,-0.041 0.0176,-0.041 0,0 0.0186,-0.043 0.0186,-0.043 1.62695,1.00781 1.62695,1.00781 2.53223,2.39648 -0.49805,-0.2168 -0.56348,-0.29687 -0.87403,-0.67383 -0.0547,0.0469 -0.0898,0.14844 -0.1289,0.25586 -0.18848,1.19141 -0.19336,1.23633 -0.11914,2.94531 0.1875,0.28516 0.37011,0.57422 0.55078,0.86133 0.39746,0.46094 0.39746,0.46094 1.36133,1.23047 -0.0586,-0.54687 -0.1377,-1.2793 -0.19336,-1.83008 0.0986,-0.0508 0.23339,-0.12109 0.33398,-0.17578 0.25098,0.4961 0.58887,1.16602 0.83887,1.66602 1.06054,1.75781 1.19531,1.98633 1.28613,3.04492 0,0 -0.16797,0.14062 -0.16797,0.14062 -0.0107,0.0215 -0.0107,0.0215 -2.44433,1.01563 0.0361,0.55273 0,0.76367 -0.28321,1.68945 -1.22363,-0.15625 -3.47851,-2.54492 -3.5,-2.56836 -0.96972,0.55664 -2.99414,1.71289 -5.91992,2.51758 0,0 0.24805,0.25781 0.24805,0.25781 -0.008,0.11328 -0.0156,0.26563 -0.0234,0.38672 0,0 -0.11426,0.0254 -0.11426,0.0254 0,0 -0.11816,0.0293 -0.11816,0.0293 0,0 -0.12012,0.0312 -0.12012,0.0312 0,0 -0.12402,0.0312 -0.12402,0.0312 0,0 -0.12793,0.0332 -0.12793,0.0332 0,0 -0.12891,0.0312 -0.12891,0.0312 0,0 -0.13379,0.0352 -0.13379,0.0352 0,0 -0.13476,0.0312 -0.13476,0.0312 -1.21485,3.13281 -2.26172,5.83008 -5.65137,10.66211 0,0 1.0752,0.9043 1.0752,0.9043 0.60937,4.37158 0.60937,4.37158 -0.0479,5.80957 5.4668,4.88427 5.4668,4.88427 6.667,5.23779 0.22754,-0.36133 0.53222,-0.8457 0.76269,-1.20899 1.7041,-0.39843 3.26953,-0.83007 4.69434,-1.29492 4.41601,-1.39551 4.58593,-1.45215 3.82519,7.94922 -0.26269,0.92969 -0.56152,1.83984 -0.88476,2.73047 -2.2334,3.57227 -3.50098,7.67773 -6.10254,11.04492 0.60937,-0.42773 1.53027,-1.08203 4.02832,-4.15625 2.4209,-3.26758 2.5664,-3.4668 3.81738,-5.66211 1.91797,-3.74414 1.99414,-3.89453 2.84473,-6.20703 1.29883,-4.08789 1.35156,-4.24805 1.80176,-6.67578 0.60449,-4.24854 0.65136,-4.59619 0.68261,-7.46729 -0.0713,-1.8125 -0.22168,-4.23242 -0.42285,-6.04296 0,0 -0.0244,-0.14454 -0.0244,-0.14454 -0.003,-0.0391 -1.21582,-4.68359 -1.99707,-6.34179 0.0312,-0.0977 0.0478,-0.19336 0.0693,-0.29297 0.90528,1.39844 1.28614,3.20508 1.53809,4.39453 -0.39063,-1.60742 -0.9502,-3.74023 -1.45117,-5.32227 -1.54102,-3.9414 -1.60254,-4.09765 -2.75977,-6.24609 -2.13281,-3.58984 -2.21484,-3.72851 -3.73535,-5.70508 -2.59082,-3.08789 -2.74805,-3.27539 -4.66504,-5.07422 -2.34961,-2.02148 -4.20703,-3.61328 -7.73926,-5.65429 m 2.89356,14.43164 c 0,0 -1.03809,0.61133 -1.03809,0.61133 0.19629,-0.58204 0.66797,-0.98438 1.00195,-1.47266 0,0 0.0361,0.86133 0.0361,0.86133 m 12.56738,0.79883 c 0,0 -0.0156,-0.0254 -0.0156,-0.0254 0,0 0.0508,0.11132 0.0508,0.11132 -0.52246,-0.87304 -1.07618,-1.7207 -1.65821,-2.55078 -0.17285,-0.20898 -0.58593,-0.69726 -0.69531,-0.6914 0,0 0.006,0.0488 0.006,0.0488 -0.65527,-0.85742 -0.65527,-0.85742 -1.64746,-2.45507 0.54297,0.64453 0.72559,0.90429 0.83691,1.08789 0,0 -0.0293,-0.0605 -0.0293,-0.0605 0.0605,0.0449 0.0635,0.0449 0.49316,0.60937 0,0 0.46289,0.57032 0.46289,0.57032 0.66992,1.00195 1.57617,2.32812 2.19629,3.35547 m -13.39844,-8.51954 c 0,0 -0.043,-0.0703 -0.043,-0.0703 0,0 0.0137,0.0586 0.0137,0.0586 0.0527,0.25586 0.0508,0.51757 0.10546,0.77148 0,0 0.082,0.082 0.082,0.082 0.59472,0.61524 0.68652,0.85547 0.7207,0.92969 -0.0312,-0.0801 -0.30957,-0.8418 -0.87891,-1.77149 m -2.37207,7.4375 c 0,0 -0.76758,-1.61328 -0.76758,-1.61328 0,0 -0.0332,0.0176 -0.0332,0.0176 -0.35742,0.15039 -0.62695,0.7207 -0.81738,1.14063 0,0 0.0586,0.11132 0.0586,0.11132 0,0 0.0576,0.10157 0.0576,0.10157 0,0 0.0606,0.10937 0.0606,0.10937 0,0 0.0576,0.10547 0.0576,0.10547 0,0 0.0557,0.10742 0.0557,0.10742 0,0 0.0586,0.10352 0.0586,0.10352 0,0 0.0605,0.10547 0.0605,0.10547 0,0 0.0547,0.10547 0.0547,0.10547 0,0 0.0576,0.10351 0.0576,0.10351 0,0 0.0586,0.10547 0.0586,0.10547 0,0 0.0537,0.11328 0.0537,0.11328 0,0 0.0576,0.10547 0.0576,0.10547 0,0 0.0566,0.10547 0.0566,0.10547 0,0 0.0586,0.10742 0.0586,0.10742 0,0 0.0537,0.10938 0.0537,0.10938 0,0 0.0576,0.10546 0.0576,0.10546 0.043,-0.75585 0.24121,-1.10351 0.70019,-1.25" />
              </g>
            </g>
          </g>
        </g>
        <path
           style="fill:#a05a2c;fill-opacity:0.24705882;stroke:none"
           d="m -35.004491,987.5497 -0.28125,0.0937 -0.09375,0.0312 c -0.238825,0.084 -0.352613,0.31755 -0.59375,0.40625 -0.204063,0.071 -0.423275,-0.13455 -0.625,0.0312 -0.223762,0.1797 -0.232713,0.49895 -0.1875,0.90625 -0.3652,-0.048 -0.605812,-0.4069 -1,-0.375 -0.493887,0.041 -0.90625,0 -0.90625,0 -0.120625,-0.036 -0.464012,-0.1451 -1.21875,-0.5 -0.03825,0.339 -0.08798,0.7859 -0.125,1.125 -0.169262,-0.027 -0.283988,-0.0328 -0.71875,-0.40625 -0.584325,0.9602 -1.094375,1.5919 -2.09375,2.625 0.417362,0.025 1.278925,0.3125 1.28125,0.3125 0.22199,0.17611 0.42506,0.43163 0.625,0.6875 0.05966,-0.0935 0.126919,-0.1817 0.1875,-0.28125 0.434762,0.3735 0.549488,0.4105 0.71875,0.4375 0.03702,-0.3391 0.08675,-0.786 0.125,-1.125 0.754738,0.3549 1.098125,0.464 1.21875,0.5 0,0 0.412363,0.041 0.90625,0 0.394188,-0.0319 0.6348,0.29575 1,0.34375 -0.04521,-0.4073 -0.03626,-0.72655 0.1875,-0.90625 0.201725,-0.1658 0.420937,0.071 0.625,0 0.241137,-0.0887 0.354925,-0.3535 0.59375,-0.4375 l 0.09375,-0.0312 0.28125,-0.0625 0.0625,-0.0312 1.0625,0.53125 c -0.299112,0.0613 -0.617525,0.1305 -0.9375,0.1875 0.215638,0.2025 0.439437,0.4179 0.65625,0.625 0.430112,0.2731 0.496212,0.20595 1.375,-0.53125 l -0.03125,0.0625 0,0.0312 c 0,0.0106 0.373523,1.16354 1.375,2.40625 0.204577,-0.0815 0.538426,-0.0908 1.4375,-0.0625 -0.381425,-0.537 -0.763212,-1.0574 -1.15625,-1.5625 0.226075,-0.02 0.440025,0.005 1,0.1875 -0.09387,-0.273 -0.193138,-0.63555 -0.28125,-0.90625 -1.76455,-1.5451 -2.375,-3.4239 -2.375,-3.4375 l 0.03125,-0.0937 c -0.878788,0.7372 -0.944888,0.80435 -1.375,0.53125 -0.216813,-0.2071 -0.440612,-0.4225 -0.65625,-0.625 0.319975,-0.057 0.638388,-0.095 0.9375,-0.15625 l -1.0625,-0.53125 L -35.004491,987.5497 z m -14.71875,0.78125 -0.09375,0.0625 c -1.73555,1.0103 -1.732025,0.993 -2.09375,1.125 0.8556,-0.132 0.840737,-0.11515 1.25,-0.28125 -0.02312,0.182 -0.0044,0.27425 0.03125,0.40625 0.058,-0.032 0.14855,-0.0899 0.59375,-0.4375 C -49.847928,989.05805 -49.851928,989.07275 -49.723241,988.33095 z m 7.75,0.0312 c -0.104375,0.027 -0.162938,0.0775 -0.3125,0.21875 -0.32925,-0.1638 -0.989663,-0.0187 -1.625,0.125 -0.591263,0.1365 -0.895437,0.21875 -1.125,0.21875 0.0765,0.4119 0.194712,0.66905 0.71875,1.40625 -1.773825,1.3698 -2.366038,1.74825 -3.5625,1.71875 0.208687,0.03 0.412313,0.11505 0.9375,0.40625 1.5663,-0.4915 1.719213,-0.5381 2.125,-1 0.234175,0.02 0.418475,0.10025 0.71875,0.34375 0.242312,-0.3163 0.547075,-0.7439 0.78125,-1.0625 0.882275,-0.05 1.32915,-0.4781 1.75,-1.75 C -41.452241,988.6504 -41.886278,988.3509 -41.973241,988.3622 z m -25.03125,1.46875 c -0.69735,0.3823 -0.719012,0.38245 -2.625,1.28125 0.0615,-0.1342 0.154988,-0.33445 0.21875,-0.46875 -0.761112,0.089 -0.755737,0.1002 -2.5,1.0625 -0.125212,-0.066 -0.282775,-0.15045 -0.40625,-0.21875 -0.426063,0.132 -0.4454,0.11165 -3.3125,2.21875 0.05575,-0.1548 0.134125,-0.285 0.21875,-0.4375 -0.468963,0.3982 -0.500737,0.42495 -1.09375,0.96875 0.158825,-0.089 0.368363,-0.2192 0.53125,-0.3125 0.1345,0.059 0.302437,0.1352 0.4375,0.1875 0.5762,-0.3618 1.288313,-0.26175 1.90625,-0.46875 -0.158837,0.2457 -0.399612,0.59575 -0.5625,0.84375 0.528663,-0.4073 0.556538,-0.4247 1.34375,-0.75 0.34375,-0.032 0.386475,0.0454 0.4375,0.125 -0.144337,0.4596 -0.160875,0.44875 -1.53125,1.96875 0.890856,-0.64145 1.33983,-0.91165 1.625,-1 0.123475,0.0683 0.281038,0.15275 0.40625,0.21875 1.744263,-0.9623 1.738888,-0.94225 2.5,-1.03125 -0.06376,0.1343 -0.15725,0.3033 -0.21875,0.4375 1.905988,-0.8988 1.92765,-0.89895 2.625,-1.28125 -0.22955,0.2435 -0.5222,0.569 -0.75,0.8125 0.308375,-0.053 0.715337,-0.0543 1.03125,-0.0312 -0.0794,0.1093 -0.16937,0.23465 -0.25,0.34375 0.0794,0.1115 0.17062,0.2635 0.25,0.375 -0.158838,0.2162 -0.3545,0.53315 -0.46875,0.78125 1.725125,-0.3983 2.047638,-0.30875 2.625,-0.15625 -0.173925,0.25248 -0.391984,0.54843 -0.59375,0.84375 1.396731,-0.28715 1.842225,-0.41572 3.78125,-1.34375 -0.329263,-0.089 -0.655725,-0.18105 -0.96875,-0.28125 l 0.375,-0.90625 c -0.4139,-0.1388 -0.808962,-0.26515 -1.1875,-0.40625 -1.06255,0.4209 -1.432487,0.41455 -2.34375,0.0937 0.2823,-0.4141 0.656925,-0.93645 0.9375,-1.34375 -0.577362,-0.1525 -0.899875,-0.24205 -2.625,0.15625 0.11425,-0.2481 0.309912,-0.56505 0.46875,-0.78125 -0.07938,-0.1115 -0.1706,-0.2635 -0.25,-0.375 0.08063,-0.1091 0.1706,-0.2657 0.25,-0.375 -0.315913,-0.023 -0.722875,0.01 -1.03125,0.0625 C -67.526691,990.39995 -67.234041,990.07445 -67.004491,989.83095 z m 12.59375,0.5625 c -0.832412,0.3163 -1.161575,0.42765 -1.4375,0.59375 l 0.0625,0.21875 c 1.458462,0.027 1.461687,0.0192 1.53125,0.0312 -0.300263,0.1661 -0.700887,0.3964 -1,0.5625 0.466063,0.1274 0.624213,0.66295 1.09375,0.78125 0.260863,0.045 0.516913,0.0793 0.78125,0.125 0.256213,-0.3118 0.520388,-0.6303 0.78125,-0.9375 l 0.09375,-0.125 c -0.303762,0.2048 -0.648762,0.3339 -0.96875,0.5 0.01125,-0.2958 -0.11112,-0.5746 -0.0625,-0.875 0.04175,-0.2662 0.11305,-0.41495 0.3125,-0.65625 l -0.09375,0 c -0.289837,-0.041 -0.58285,-0.0125 -0.875,-0.0625 C -54.368216,990.5137 -54.392191,990.43895 -54.410741,990.39345 z m 4,0.28125 -0.03125,0.0312 c -0.4823,0.223 -0.8125,0.40625 -0.8125,0.40625 l -0.03125,0.0625 c -0.153037,0.3026 -0.330688,0.59685 -0.53125,0.90625 0.13565,0.018 0.580887,0.086 1.34375,-0.5625 l 0.03125,-0.0625 C -50.431991,991.22605 -50.417751,990.9113 -50.410741,990.6747 z m -7.09375,0.78125 c -0.05337,0.4551 -0.560125,0.69655 -0.59375,1.15625 -0.02212,0.298 0.122837,0.5746 0.03125,0.875 -0.04988,0.1775 -0.10635,0.3339 -0.1875,0.5 -0.05562,0 -0.6602,0.077 -1.0625,0.25 0.291241,0.53551 0.889397,0.86412 1.6875,0.84375 0.04734,-0.0861 0.112808,-0.17728 0.125,-0.28125 0.09838,0.0881 0.198054,0.15801 0.25,0.21875 0.445277,-0.0659 0.935286,-0.22443 1.46875,-0.5 l -0.0625,-0.15625 c 0.225973,-0.13603 0.550281,-0.2881 1.09375,-0.5 0.09444,-0.0697 0.185324,-0.11102 0.28125,-0.1875 l 0.28125,-0.21875 c -0.968063,-0.1684 -1.076262,-0.4736 -1.15625,-0.6875 -0.182025,-0.011 -0.397137,0.0421 -1,0.28125 -0.230725,-0.2002 -0.5517,-0.45605 -0.78125,-0.65625 C -57.133165,991.80166 -57.145409,991.77742 -57.504491,991.45595 z m 6.8125,1.15625 -0.03125,0.0625 c -0.105729,0.21361 -0.303503,0.62893 -0.21875,1.625 0.05825,-0.0292 0.126835,-0.0491 0.21875,-0.0937 C -50.634376,993.74447 -50.642786,993.24714 -50.691991,992.6122 z m -1.875,0.84375 c -0.390354,0.71379 -0.672282,1.20439 -0.9375,1.65625 0.0218,0.12245 0.03608,0.24812 0.03125,0.375 0.319988,-0.1661 0.664988,-0.2952 0.96875,-0.5 l -0.09375,0.15625 c -0.260862,0.3072 -0.525037,0.6257 -0.78125,0.9375 -0.221449,-0.0383 -0.437637,-0.0574 -0.65625,-0.0937 -0.231708,0.31997 -0.463838,0.52027 -0.6875,0.65625 0.144402,0.0521 0.301716,0.11632 0.53125,0.15625 l -0.28125,0.21875 c -2.343062,1.8681 -4.2374,1.70865 -4.84375,0.59375 0.4023,-0.173 1.00688,-0.28125 1.0625,-0.28125 0.08115,-0.1661 0.13762,-0.3225 0.1875,-0.5 0.06869,-0.2253 0.0301,-0.43517 0,-0.65625 -0.176192,-0.06 -0.307588,-0.10949 -0.59375,-0.21875 -0.426637,0.1888 -0.983087,0.4361 -1.40625,0.625 0.05687,-0.132 0.131862,-0.3146 0.1875,-0.4375 -0.263175,-0.071 -0.634975,-0.1397 -0.90625,-0.1875 -0.04175,-0.3072 -0.08554,-0.72405 -0.125,-1.03125 -3.490454,1.74203 -4.076375,1.99771 -4.53125,1.625 -0.02466,0.0362 -0.03901,0.0905 -0.0625,0.125 0.911263,0.3208 1.2812,0.2959 2.34375,-0.125 0.378538,0.1411 0.7736,0.2987 1.1875,0.4375 l -0.375,0.90625 c 0.313025,0.1002 0.639487,0.19225 0.96875,0.28125 -2.191775,1.049 -2.383913,1.08195 -4.3125,1.46875 0.604025,0.68725 0.62785,0.72915 4.78125,-1.34375 0.03946,0.3072 0.08325,0.72405 0.125,1.03125 0.271275,0.0478 0.643075,0.1165 0.90625,0.1875 -0.05564,0.1229 -0.13063,0.27425 -0.1875,0.40625 0.423163,-0.1889 0.979613,-0.4362 1.40625,-0.625 0.929813,0.355 1.025088,0.39775 1.9375,0.46875 1.761919,-1.07842 2.849227,-1.68854 3.53125,-1.84375 0.198549,-0.35346 0.366621,-0.62128 0.625,-1.09375 l 0.125,0.0625 c 0.04287,0.33651 0.04271,0.65915 0.03125,1 0.338296,0.0635 0.694507,0.19683 1.15625,0.40625 0.104802,-0.095 0.225654,-0.20668 0.34375,-0.3125 -0.107655,-0.80665 -0.01536,-1.26205 0.0625,-1.5625 -0.485625,0.19869 -0.879216,0.30578 -1.28125,0.40625 -0.539113,-1.0672 -0.172212,-2.2112 -0.3125,-3.3125 L -52.566991,993.45595 z m 3.6875,0.0625 c -0.957625,0.3209 -0.950462,0.32615 -1.5,0.78125 0.04175,0.023 0.05829,0.0236 0.5,0.90625 0.817337,-0.3914 2.347025,0.13475 2.46875,1.03125 -0.346024,0.40943 -0.593519,0.73416 -0.84375,1.0625 0.106042,-0.074 0.266624,-0.20846 0.375,-0.28125 0.121725,0.2548 0.286875,0.59125 0.40625,0.84375 0.214475,-0.0728 0.426013,-0.0566 1.0625,0.21875 0.549538,0.2321 0.865412,0.35 1.0625,0.375 -0.01912,0.38392 0.07779,0.63737 0.40625,0.9375 0.0521,0.0476 0.123977,0.10656 0.1875,0.15625 0.271002,-0.27771 0.733468,-0.75316 0.84375,-1.46875 l 0.03125,-0.21875 c -0.739675,0.2525 -0.691025,-0.8924 -0.65625,-1.5 -0.580002,-0.40183 -0.791122,-0.70033 -0.8125,-1.125 -0.286825,0.15313 -0.698365,0.31278 -1.59375,0.59375 -0.525187,-0.2912 -0.728813,-0.37625 -0.9375,-0.40625 0.707535,0.0174 1.227662,-0.13708 1.875,-0.53125 -0.127847,-0.0492 -0.235948,-0.0843 -0.40625,-0.15625 -0.636487,-0.2753 -0.848025,-0.29155 -1.0625,-0.21875 -0.119375,-0.2525 -0.284525,-0.58895 -0.40625,-0.84375 -0.304925,0.2048 -0.53615,0.3541 -1.0625,0.75 -0.120625,-0.059 -0.102275,-0.27825 0.125,-0.90625 L -48.879491,993.51845 z m -27.625,0.5625 -0.21875,0.1875 0.03125,-0.0625 -0.09375,0.0625 0.0625,-0.0937 -0.1875,0.15625 -0.25,0.28125 0.1875,-0.0937 0.21875,-0.15625 0.125,-0.125 L -76.504491,994.08095 z m 45.875,0.96875 c 0.06438,0.0603 0.119677,0.12811 0.1875,0.1875 0.01558,0.0479 0.04516,0.10346 0.0625,0.15625 0.06044,-0.0743 0.128576,-0.14321 0.1875,-0.21875 C -30.298561,995.17865 -30.448592,995.11764 -30.629491,995.0497 z m -0.53125,0.875 c 0.05435,0.0698 0.102009,0.14837 0.15625,0.21875 0.05479,-0.0591 0.102252,-0.1274 0.15625,-0.1875 C -30.968941,995.93601 -31.066413,995.91636 -31.160741,995.9247 z m -19.0625,0.21875 c -0.208,0.097 -0.310403,0.11982 -0.46875,0.1875 0.03114,0.6015 0.02093,1.11719 -0.125,1.5625 0.315015,-0.28171 0.629337,-0.5652 0.90625,-0.8125 L -50.223241,996.14345 z m -23.40625,0.875 c -11.731498,10.4986 -11.996381,10.7571 -13.1875,12.4688 -0.437088,2.4392 -0.428113,2.4474 -1.1875,3.6875 -0.4562,0.9534 -0.748938,1.6844 -1.03125,2.4375 -0.1513,0.4027 -0.292587,0.8044 -0.4375,1.2188 -0.180862,0.8805 -0.199725,1.7961 -0.5,2.6562 l 0.5,0 c -0.0038,-0.027 0.07135,-3.0679 1.6875,-4.7812 0.311862,-1.1536 0.322675,-1.1417 0.8125,-1.9063 -0.457524,1.8547 -0.603626,2.446 -0.8125,3.3125 0.501976,-0.8461 0.589695,-1.1659 0.96875,-3.2812 1.227175,-1.7636 1.2342,-1.7705 14.0625,-13.2501 -0.358813,-0.1024 -0.829838,-0.2544 -1.1875,-0.375 1.370375,-1.52 1.386913,-1.50915 1.53125,-1.96875 -0.05102,-0.0796 -0.09375,-0.157 -0.4375,-0.125 -0.787212,0.3253 -0.815087,0.31145 -1.34375,0.71875 C -74.029103,997.58295 -73.788328,997.26415 -73.629491,997.01845 z m 46.75,0.0625 c -0.316361,0.007 -0.613413,0.06 -0.96875,0.125 -0.620262,0.1319 -1.073362,0.2871 -1.5,0.5625 0.345488,0.232 0.808437,0.54235 1.15625,0.78125 2.2793,-0.3732 2.307862,-0.845 2.3125,-1.25 l -0.03125,-0.15625 C -26.250434,997.0934 -26.56313,997.07394 -26.879491,997.08095 z m -13.0625,0.3125 c -0.08595,0.17655 -0.165743,0.40108 -0.25,0.5625 l -0.15625,0.28125 c -0.06795,0.77738 0.43901,1.41163 0.59375,2.12505 0.151978,-0.3266 0.283569,-0.60209 0.4375,-0.9688 -0.2307,-0.2844 -0.519275,-0.6622 -0.75,-0.9375 C -39.95606,997.98695 -39.932437,997.68148 -39.941991,997.39345 z m -9.125,1.0625 c -0.10626,0.16617 -0.199549,0.31263 -0.3125,0.5 -0.639963,-0.018 -1.223487,0.19935 -1.84375,0.28125 0.665475,0.059 1.357612,0.11535 2.0625,0.15625 l 0.78125,1.4376 c 0.106995,-0.1436 0.254899,-0.3174 0.375,-0.4688 0.198889,-0.3411 0.38088,-0.62101 0.5625,-0.8438 C -47.596485,998.92703 -48.345706,998.51355 -49.066991,998.45595 z m -3.03125,2.8751 c -0.01484,0.303 -0.0171,0.616 -0.03125,0.875 -0.510125,-0.043 -1.030412,-0.072 -1.53125,-0.125 -1.922225,2.1775 -4.202725,3.9679 -6.15625,6.125 -0.487989,-0.5617 -0.874283,-1.6747 -1.15625,-2.8125 -0.183106,0.092 -0.368919,0.1998 -0.53125,0.2812 0.07304,1.2083 0.675375,4.7413 1.6875,5.9063 1.953525,-2.1571 4.234025,-3.9788 6.15625,-6.1563 0.500838,0.053 1.021125,0.1133 1.53125,0.1563 0.02325,-0.4257 0.04037,-1.0029 0.0625,-1.4375 0.79995,0.1454 0.809975,0.1266 2.3125,2.625 1.057338,-0.2314 1.923819,-0.2505 2.90625,0.1875 0.05971,-0.1437 0.123358,-0.2658 0.25,-0.5313 -0.219125,-0.3982 -0.5008,-0.9456 -0.71875,-1.3437 0.223763,-0.7008 0.213425,-0.6934 0.625,-1.4375 -0.376442,-0.1857 -0.738839,-0.2868 -1.09375,-0.3438 -0.180605,0.2741 -0.333745,0.6124 -0.53125,1 l -0.5625,-1.0312 c -0.277291,0.03 -0.573606,0.09 -0.875,0.1562 -0.193774,-0.3222 -0.288768,-0.5052 -0.4375,-0.75 -0.346532,-0.026 -0.698892,-0.033 -1.03125,-0.062 0.299876,-0.04 0.577377,-0.1258 0.875,-0.1875 -0.262274,-0.4273 -0.495614,-0.7542 -0.65625,-0.9687 -0.08238,0.074 -0.175072,0.1508 -0.25,0.2187 C -51.575603,1001.5291 -51.853714,1001.4116 -52.098241,1001.331 z m 7.4375,5.9375 c -0.92865,0.057 -1.208537,0.1108 -2.46875,0.625 -0.05763,0.147 -0.09923,0.2859 -0.1875,0.5625 0.110068,0.201 0.247214,0.4229 0.375,0.6562 C -46.416568,1008.7019 -45.758532,1008.1797 -44.660741,1007.2685 z m -22.78125,3.6562 c -0.08792,0 -0.167558,0.026 -0.25,0.031 -0.01652,0.01 -0.0468,-0.01 -0.0625,0 -0.01536,0.01 -0.762451,0.687 -1.5,1.375 0.422155,0.2365 0.776385,0.5894 1.1875,0.8437 0.246233,-0.4876 0.511116,-0.9614 0.53125,-1.5312 l 0.84375,-0.5625 C -66.965378,1011.0142 -67.219806,1010.9344 -67.441991,1010.9247 z m 20.40625,0 c -0.0072,0.03 -0.02359,0.06 -0.03125,0.094 l 0.09375,-0.094 L -47.035741,1010.9247 z m -18.125,1.8438 c -0.958266,0.6702 -1.914351,1.3746 -3.25,1.2187 0.09321,-0.2508 0.222723,-0.5103 0.34375,-0.75 -2.192704,1.3306 -2.576285,2.3325 -2.8125,3.5313 0.85385,-0.4005 1.192812,-0.6781 1.46875,-0.9375 0.808062,-0.7668 1.63938,-1.5213 1.65625,-1.5313 0.370987,-0.1934 0.988875,-0.062 1.40625,-0.094 l -1.1875,0.8125 c -0.03071,0.8691 -0.585738,1.5344 -0.875,2.3125 2.104825,0.2459 3.3085,-1.5299 5,-2.1875 l 0.03125,-0.031 C -64.316356,1014.6351 -64.784931,1013.8653 -65.160741,1012.7685 z m -21.8125,3.375 c -0.489825,0.7645 -0.500638,0.7839 -0.8125,1.9375 -0.240437,0.2549 -0.416146,0.5448 -0.59375,0.8437 -0.01044,0.1024 -0.02305,0.1964 -0.03125,0.3125 -0.375637,1.4881 -0.70035,2.7156 -0.96875,3.9375 0.07391,0.6838 0.153484,1.4797 0.25,2.2813 0.215048,-0.9016 0.444983,-1.7594 0.71875,-2.8438 C -88.355091,1021.8249 -88.370266,1021.807 -86.973241,1016.1435 z m 11.75,8.1562 c 0.0035,0.043 0.02772,0.082 0.03125,0.125 0.0068,-0.04 -0.0076,-0.085 0,-0.125 C -75.206158,1024.3049 -75.209467,1024.2947 -75.223241,1024.2997 z m 2.40625,0.5313 c -0.01402,0.028 -0.04913,0.035 -0.0625,0.062 0.01593,-0.013 0.04681,-0.018 0.0625,-0.031 L -72.816991,1024.831 z m -12.90625,1.1875 c -0.22839,1.5945 -0.05093,3.1385 0.125,4.1562 0.557228,0.5003 1.097916,1.0054 1.59375,1.5313 0.438173,-0.502 0.823735,-0.833 1.15625,-1.0625 0.06785,-0.5456 0.136099,-1.0823 0.21875,-1.625 0.7472,-0.8555 0.869887,-1.0943 1.15625,-2.125 -0.920538,-0.075 -1.504537,0.266 -2.59375,1.5312 -0.460275,-0.1936 -0.888175,-0.3867 -1.3125,-0.5937 -0.07428,-0.2937 -0.21086,-0.974 -0.3125,-1.8125 C -85.701844,1026.0231 -85.71314,1026.0137 -85.723241,1026.0185 z m 6.75,0.875 c 0.1994,0.2867 0.73045,1.0294 2.71875,1.5937 l 0.3125,0.094 c -0.04988,-0.3823 -0.201262,-1.5557 -1.3125,-1.5625 C -77.925178,1027.0045 -78.340229,1026.9869 -78.973241,1026.8935 z m 3.03125,1.6875 c 0.344986,0.5963 0.534807,0.9073 0.8125,1.125 0.004,-0.4994 0.0077,-1.0001 -0.03125,-1.5 C -75.365506,1028.291 -75.611481,1028.4051 -75.941991,1028.581 z m 2.21875,0.375 c -0.391124,0.322 -0.763148,0.6403 -1.125,0.9375 0.317013,0.1484 0.778814,0.2635 1.53125,0.4375 l 0.5,-0.4375 c -0.191862,-0.077 -0.41995,-0.3124 -0.875,-0.9063 C -73.703377,1028.9723 -73.712147,1028.9704 -73.723241,1028.956 z m 3.40625,1.4375 -0.25,0.062 c -0.912413,0.2662 -1.05275,0.3488 -0.65625,1.8436 0.993562,-0.093 1.000887,-0.1213 2.1875,1.3439 l 1.15625,-1.0314 -0.90625,-1.4061 L -70.316991,1030.3935 z m -12.25,1.9375 c -0.02136,0.025 -0.04004,0.037 -0.0625,0.062 -0.03966,0.2603 -0.05769,0.5201 -0.09375,0.7811 1.970135,2.3911 3.328555,4.7346 4.125,6.3125 2.77945,1.8059 3.525614,2.0528 5.125,0.5314 1.190662,0.7435 1.761063,1.0911 3.09375,1.875 l 1.53125,-0.1564 c 2.2967,0.8732 4.451363,1.7185 6.1875,3.375 l 0.625,0.625 c 0.788362,2.5303 0.806811,2.5155 3.5,2.875 1.413262,0.1843 1.84065,0.2533 3.6875,3.8439 l -1.15625,1.1561 c 0.41505,0.2799 0.988888,0.6508 1.40625,0.9375 1.669488,-1.2742 2.669,-1.323 3.34375,-1.375 4.1404,3.8895 10.422603,4.5244 11.90625,4.625 0.471184,-0.7575 0.495471,-1.307 0.5625,-2.4375 0.0185,-0.2662 0.02088,-0.6178 0.03125,-0.875 -0.07662,0 -7.832425,-0.3028 -12.5,-4.6875 -0.67475,0.052 -1.674262,0.1321 -3.34375,1.4064 -0.417362,-0.2868 -0.9912,-0.6576 -1.40625,-0.9375 l 1.15625,-1.1875 c -1.84685,-3.5906 -2.274238,-3.6283 -3.6875,-3.8125 -2.693189,-0.3595 -2.711638,-0.376 -3.5,-2.9064 l -0.625,-0.625 c -1.736137,-1.6565 -3.8908,-2.4704 -6.1875,-3.3436 l -1.53125,0.1561 c -1.332687,-0.7838 -1.903088,-1.1315 -3.09375,-1.875 -1.784838,1.6981 -2.356038,1.3199 -6.0625,-1.125 C -79.557717,1035.249 -80.589093,1033.5162 -82.566991,1032.331 z m 3.96875,10.5312 c -1.584529,2.917 -1.774826,4.9718 -1.28125,6.5 0.326258,-1.2943 0.993854,-2.8084 2.15625,-4.625 C -77.73261,1044.7138 -78.038735,1043.9712 -78.598241,1042.8622 z m 31.625,27.1563 c -0.143812,0.086 -0.192305,0.1283 -0.34375,0.2187 0.03124,0.1012 0.03621,0.1635 0.0625,0.25 l 0.28125,-0.2187 C -46.972053,1070.1624 -46.974272,1070.1146 -46.973241,1070.0185 z m -4.71875,5.5 c 0.167459,0.2016 0.375221,0.4246 0.5,0.625 -0.63044,-0.011 -1.038025,0.01 -1.4375,0.062 0.574715,0.2238 1.143279,0.4193 1.75,0.5625 0.0835,-0.1615 0.191975,-0.401 0.28125,-0.5625 -0.08925,-0.098 -0.161888,-0.2055 -0.25,-0.3125 L -51.691991,1075.5185 Z"
           id="path2516"
           inkscape:connector-curvature="0" />
        <path
           style="fill:#000000;fill-opacity:0.10588235;stroke:none"
           d="m -49.723241,988.33095 -0.09375,0.0625 c -0.488322,0.28426 -0.614755,0.35026 -0.875,0.5 0.0073,0.12386 0.02854,0.22835 0.03125,0.34375 -0.02312,0.182 -0.0044,0.27425 0.03125,0.40625 0.058,-0.032 0.14855,-0.0899 0.59375,-0.4375 C -49.847928,989.05805 -49.851928,989.07275 -49.723241,988.33095 z m 7.75,0.0312 c -0.104375,0.027 -0.162938,0.0775 -0.3125,0.21875 -0.32925,-0.1638 -0.989663,-0.0187 -1.625,0.125 -0.591263,0.1365 -0.895437,0.21875 -1.125,0.21875 0.0765,0.4119 0.194712,0.66905 0.71875,1.40625 -0.395052,0.30507 -0.735548,0.53531 -1.03125,0.75 -0.01345,0.27 0.04254,0.48007 0.1875,0.6875 0.1189,-0.0866 0.224998,-0.17733 0.34375,-0.3125 0.234175,0.02 0.418475,0.10025 0.71875,0.34375 0.242312,-0.3163 0.547075,-0.7439 0.78125,-1.0625 0.882275,-0.05 1.32915,-0.4781 1.75,-1.75 C -41.452241,988.6504 -41.886278,988.3509 -41.973241,988.3622 z m 1.21875,0.5 c -0.584325,0.9602 -1.094375,1.5919 -2.09375,2.625 0.417362,0.025 1.278925,0.3125 1.28125,0.3125 0.558404,0.44299 1.032289,1.26425 1.5,1.84375 0.24784,-0.49371 0.494293,-1.01585 0.75,-1.625 -0.2307,-0.2844 -0.519275,-0.6622 -0.75,-0.9375 0.142625,-0.603 0.17488,-0.89905 0.125,-1.28125 -0.18356,-0.21025 -0.37464,-0.48778 -0.5625,-0.75 C -40.583869,988.99202 -40.632428,988.96706 -40.754491,988.8622 z m -10.09375,0.0937 c -0.552932,0.3162 -0.819404,0.47379 -1.0625,0.5625 0.624588,-0.0964 0.795257,-0.11586 1,-0.1875 C -50.8905,989.18372 -50.879529,989.05244 -50.848241,988.95595 z m -3.5625,1.4375 c -0.832412,0.3163 -1.161575,0.42765 -1.4375,0.59375 l 0.0625,0.21875 c 1.458462,0.027 1.461687,0.0192 1.53125,0.0312 -0.300263,0.1661 -0.700887,0.3964 -1,0.5625 0.363529,0.0994 0.525533,0.45275 0.8125,0.65625 0.283813,-0.26217 0.594097,-0.76403 0.96875,-1.40625 0.04757,-0.14313 0.114221,-0.27323 0.25,-0.4375 l -0.09375,0 c -0.289837,-0.041 -0.58285,-0.0125 -0.875,-0.0625 C -54.368216,990.5137 -54.392191,990.43895 -54.410741,990.39345 z m 4,0.28125 -0.03125,0.0312 c -0.4823,0.223 -0.8125,0.40625 -0.8125,0.40625 l -0.03125,0.0625 c -0.153037,0.3026 -0.330688,0.59685 -0.53125,0.90625 0.13565,0.018 0.580887,0.086 1.34375,-0.5625 l 0.03125,-0.0625 C -50.431991,991.22605 -50.417751,990.9113 -50.410741,990.6747 z m -7.09375,0.78125 c -0.03558,0.3034 -0.277601,0.51131 -0.4375,0.75 0.225787,0.0715 0.54331,0.12514 0.8125,0.15625 C -57.133101,991.8069 -57.153146,991.77049 -57.504491,991.45595 z m 26.875,0.21875 c -2.345956,2.73618 -5.597813,4.55917 -6.5625,4.75 0.07767,0.562 0.09254,1.07075 -0.5625,1.09375 -0.787458,0.0317 -1.16982,-0.68914 -1.8125,-0.9375 -0.214703,0.48289 -0.418257,0.97892 -0.625,1.375 l -0.15625,0.28125 c -0.073,0.8351 0.522975,1.49846 0.625,2.2813 0.737363,0.1797 1.121262,1.034 1.96875,1 0.655037,-0.023 0.640175,-0.5318 0.5625,-1.0938 1.0237,-0.2025 4.643025,-2.2283 7,-5.25 -0.37795,0.014 -1.479125,-0.5327 -1.5,-0.8125 0.19825,-0.2185 0.386712,-0.25965 1.6875,-0.21875 -0.381425,-0.537 -0.763212,-1.0574 -1.15625,-1.5625 0.226075,-0.02 0.440025,0.005 1,0.1875 -0.09387,-0.273 -0.193138,-0.63555 -0.28125,-0.90625 C -30.509814,991.80281 -30.565109,991.73497 -30.629491,991.6747 z m -42.6875,0.375 c -0.428958,0.29869 -1.02083,0.70697 -2.3125,1.65625 0.05575,-0.1548 0.134125,-0.285 0.21875,-0.4375 -0.468963,0.3982 -0.500737,0.42495 -1.09375,0.96875 0.158825,-0.089 0.368363,-0.2192 0.53125,-0.3125 0.1345,0.059 0.302437,0.1352 0.4375,0.1875 0.306971,-0.19275 0.65658,-0.232 1,-0.28125 0.679056,-0.6078 1.013253,-0.9065 1.78125,-1.59375 C -72.923999,992.18883 -73.121393,992.11605 -73.316991,992.0497 z m 8.6875,0 c -0.305014,0.0684 -0.620392,0.13008 -1.0625,0.21875 0.208744,0.23749 0.359012,0.38371 0.625,0.40625 C -64.914362,992.45145 -64.765736,992.24778 -64.629491,992.0497 z m 16.75,0 c 0.126534,0.0182 0.277033,0.0955 0.46875,0.1875 -0.0092,-0.0679 -0.03785,-0.12404 -0.0625,-0.1875 C -47.598053,992.05865 -47.740616,992.05312 -47.879491,992.0497 z m -7.46875,0.71875 c -0.125615,-0.008 -0.316481,0.0285 -0.59375,0.125 0.254388,0.006 0.46381,-0.002 0.65625,-0.0312 C -55.302717,992.82576 -55.33589,992.80148 -55.348241,992.76845 z m 6.46875,0.75 c -0.957625,0.3209 -0.950462,0.32615 -1.5,0.78125 0.0333,0.0183 0.180733,0.27011 0.40625,0.71875 0.197177,-0.0303 0.390685,-0.0682 0.59375,-0.0625 0.134538,-0.22318 0.248966,-0.39927 0.375,-0.59375 -0.02979,-0.11902 0.01704,-0.37275 0.1875,-0.84375 L -48.879491,993.51845 z m -1.78125,0.25 c -0.104968,0.0937 -0.212139,0.15996 -0.3125,0.25 0.0077,0.18959 0.02945,0.37733 0.0625,0.625 l 0.03125,0.0937 C -50.754854,994.44365 -50.683349,994.11829 -50.660741,993.76845 z m -2.125,0.0937 c -1.652349,3.01234 -1.827508,3.10163 -3.8125,3 -0.044,-0.132 -0.08096,-0.2987 -0.125,-0.4375 -0.41278,-0.0321 -0.643817,-0.0729 -0.875,-0.125 -0.14052,0.0867 -0.194303,0.12644 -0.34375,0.21875 l -1.5625,0.78125 c -0.601713,0.2958 -1.395975,0.6974 -2,1 0.04373,0.72346 0.292442,2.27185 0.6875,3.65635 0.454566,-0.2284 0.917625,-0.4623 1.3125,-0.6563 l 1.5625,-0.7812 c 2.260976,-1.39666 3.449515,-2.11243 4.28125,-2.4376 0.63467,-0.24813 1.053778,-0.2461 1.53125,-0.0937 0.01989,-0.38287 0.04406,-0.82355 0.0625,-1.1875 -0.02228,0.006 -0.03953,0.0255 -0.0625,0.0312 -0.479294,-0.94878 -0.272281,-1.95158 -0.3125,-2.9375 C -52.554915,993.8741 -52.668762,993.85938 -52.785741,993.8622 z m -23.71875,0.21875 -0.21875,0.1875 0.03125,-0.0625 -0.09375,0.0625 0.0625,-0.0937 -0.1875,0.15625 -0.25,0.28125 0.1875,-0.0937 0.21875,-0.15625 0.125,-0.125 L -76.504491,994.08095 z m 30.09375,0.65625 c -0.37667,0.0707 -0.765288,0.39684 -1.21875,1.03125 0.116599,0.14322 0.19499,0.29376 0.21875,0.46875 -0.896175,1.0604 -1.354288,1.69945 -1.96875,2.71875 -0.213321,-0.006 -0.418075,0.0294 -0.625,0.0625 0.07044,0.11681 0.108842,0.18173 0.1875,0.3125 0.11678,0.008 0.226385,0.0239 0.34375,0.0312 0.756723,-0.14492 1.422374,-0.17529 2.125,0.0312 1.005573,-1.14599 1.765711,-0.61359 2.5625,0.1875 0.26665,-0.273 0.761388,-0.7628 0.875,-1.5 l 0.03125,-0.21875 c -0.739675,0.2525 -0.691025,-0.8924 -0.65625,-1.5 -0.646925,-0.4482 -0.838,-0.76935 -0.8125,-1.28125 -0.19299,-0.0245 -0.502903,-0.12155 -1.03125,-0.34375 C -46.39071,994.73248 -46.399315,994.74203 -46.410741,994.7372 z m -3.8125,1.40625 c -0.888142,0.41409 -1.270766,0.53439 -1.75,0.65625 0.476646,0.0901 0.719382,0.21781 1.25,1.03125 0.289117,-0.2582 0.560939,-0.52534 0.8125,-0.75 L -50.223241,996.14345 z m 23.34375,0.9375 c -0.316361,0.007 -0.613413,0.06 -0.96875,0.125 -0.620262,0.1319 -1.073362,0.2871 -1.5,0.5625 0.345488,0.232 0.808437,0.54235 1.15625,0.78125 2.2793,-0.3732 2.307862,-0.845 2.3125,-1.25 l -0.03125,-0.15625 C -26.250434,997.0934 -26.56313,997.07394 -26.879491,997.08095 z m -20.15625,6.4376 c -0.02889,0.1187 -0.05243,0.182 -0.09375,0.375 0.170175,-0.07 0.236764,-0.071 0.375,-0.125 0.02853,-0.052 0.0288,-0.064 0.0625,-0.125 C -46.807413,1003.5866 -46.923436,1003.5621 -47.035741,1003.5185 z m -20.40625,0.062 c -0.821119,-0.036 -1.384102,0.3427 -2.25,1.2187 0.65215,0.1912 1.096862,0.6967 1.65625,1.0313 -2.228863,1.3424 -2.606088,2.3877 -2.84375,3.5937 0.85385,-0.4005 1.192812,-0.7093 1.46875,-0.9687 0.808062,-0.7668 1.63938,-1.49 1.65625,-1.5 0.370987,-0.1934 0.988875,-0.093 1.40625,-0.125 l -1.09375,0.75 c 0.492671,0.021 1.061132,0.1786 1.875,0.4687 0.08187,0.3071 0.169066,0.5727 0.25,0.8438 0.608043,-0.422 1.22648,-0.8295 1.90625,-1.0938 l 0.03125,-0.031 c -1.286875,-0.6553 -1.690713,-1.8552 -2.1875,-3.7188 C -66.380859,1003.7596 -66.94932,1003.6024 -67.441991,1003.581 z m 20.25,1.7187 c -0.85404,0.6421 -1.139592,0.7084 -1.65625,0.6875 -3.546475,-0.1229 -5.4445,-0.01 -7.46875,1.625 4.045,-0.7416 4.045,-0.7368 4.125,-0.7187 -0.34085,0.3618 -0.78415,0.8325 -1.125,1.1875 0.697925,0.7942 0.699937,0.789 1.5625,0.9687 -9.221526,2.4711 -9.224325,2.4886 -12.78125,4.0313 -0.637063,0.619 -0.618513,0.626 -2.75,3.1562 -0.670688,-0.1229 -1.333688,-0.26 -2.15625,-0.25 -0.992988,0.6462 -2.1737,0.9583 -3.15625,1.625 0.09911,-0.3936 0.207,-0.7984 0.3125,-1.1875 -0.826037,1.4585 -0.980437,1.9892 -1.25,2.9063 l 0.71875,1.5312 c -0.6846,0.5666 -1.625,1.3107 -2.3125,1.875 0.09625,-1.9272 -0.431175,-3.845 -0.0625,-5.7812 -0.875313,0.3211 -0.994425,0.2949 -1.5625,0.25 l -0.4375,-1.4063 c -0.42955,0.239 -1.002162,0.5492 -1.4375,0.7813 -1.737887,-1.1671 -1.727712,-1.1521 -4.65625,-1.25 -1.608037,2.9557 -1.629437,2.9615 -2.4375,3.3437 -0.215642,1.5055 -0.0701,2.9209 0.09375,3.9375 0.698754,-0.3355 0.814445,-0.4702 2.34375,-3.2812 2.928538,0.098 2.918363,0.083 4.65625,1.25 0.435338,-0.2321 1.00795,-0.5423 1.4375,-0.7813 l 0.4375,1.4063 c 0.568075,0.045 0.687187,0.071 1.5625,-0.25 -0.208374,1.0943 -0.121341,2.1897 -0.03125,3.2812 0.696367,-0.3034 0.861408,-0.1241 1.53125,0.75 0.123174,0.1608 0.188695,0.2324 0.28125,0.3438 0.19632,-0.1619 0.419809,-0.3248 0.59375,-0.4688 l -0.71875,-1.5312 c 0.269563,-0.9171 0.423963,-1.4478 1.25,-2.9063 -0.1055,0.3891 -0.213388,0.7939 -0.3125,1.1875 0.98255,-0.6667 2.163262,-0.9788 3.15625,-1.625 0.822562,-0.01 1.485562,0.1271 2.15625,0.25 2.131487,-2.5302 2.112937,-2.5372 2.75,-3.1562 3.556925,-1.5427 3.559724,-1.5602 12.78125,-4.0313 -0.862563,-0.1797 -0.864575,-0.1745 -1.5625,-0.9687 0.34085,-0.355 0.78415,-0.8257 1.125,-1.1875 -0.08,-0.018 -0.08,-0.023 -4.125,0.7187 2.02425,-1.6337 3.922275,-1.7479 7.46875,-1.625 0.840537,0.034 0.840425,0.059 4.1875,-2.7187 -0.92865,0.057 -1.208537,0.1108 -2.46875,0.625 0.158825,-0.7418 0.175325,-0.7224 0.53125,-1.4688 C -46.781152,1006.0923 -46.99401,1005.6614 -47.191991,1005.2997 z m -2.46875,1.1563 2.6875,0.4687 -1.0625,1.1875 C -48.259504,1007.5593 -49.646871,1006.47 -49.660741,1006.456 z m -18.625,3.2187 c -0.04488,0.099 -0.08723,0.2109 -0.125,0.3125 0.04385,0.01 0.08194,0 0.125,0 0.08495,-0.054 0.158916,-0.1014 0.25,-0.1562 C -68.121212,1009.7798 -68.204847,1009.7328 -68.285741,1009.6747 z m 18.625,0.7813 c 0.01387,0.014 1.401237,1.1033 1.625,1.6562 l 1.0625,-1.1875 L -49.660741,1010.456 z m -38.375,2.8125 c -0.429807,0.9058 -0.727504,1.6168 -1,2.3437 -0.1513,0.4028 -0.292587,0.8045 -0.4375,1.2188 -0.180862,0.8805 -0.199725,1.7961 -0.5,2.6562 l 0.5,0 c -0.003,-0.022 0.06448,-1.9441 0.90625,-3.5937 0.05924,-0.2336 0.09376,-0.4087 0.15625,-0.6563 C -88.379636,1014.7971 -88.285743,1014.343 -88.035741,1013.2685 z m -1.03125,8.625 c -0.09776,0.4049 -0.225207,0.8838 -0.3125,1.2812 0.147825,1.3675 0.32425,3.2041 0.5625,4.5625 5.249691,3.25 8.504429,8.4894 10.03125,11.4375 0.295618,-0.5704 0.653195,-1.1416 1.0625,-1.7812 -0.0053,-0.013 -0.256325,-0.5657 -0.4375,-0.9688 -0.435015,-0.2768 -0.809384,-0.5019 -1.375,-0.875 -0.02212,-0.3027 -1.059125,-2.0645 -3.0625,-3.25 l -0.34375,-0.875 c 0.08211,-0.726 0.174935,-1.436 0.28125,-2.1562 -0.334215,-0.4087 -0.661518,-0.8135 -1.03125,-1.2188 -0.119671,0.1283 -0.241683,0.2201 -0.375,0.375 -0.460275,-0.1935 -0.888175,-0.3867 -1.3125,-0.5937 -0.07227,-0.2858 -0.211308,-0.9444 -0.3125,-1.75 -0.948084,-0.8424 -1.998226,-1.6462 -3.125,-2.3438 C -88.913252,1023.1884 -88.985494,1022.5372 -89.066991,1021.8935 z m 13.9375,3.8125 c 0.01416,0.3459 0.01726,0.6856 0,1.0312 0.241185,-0.198 0.534849,-0.428 0.8125,-0.6562 C -74.680579,1025.9782 -74.93613,1025.8575 -75.129491,1025.706 z m -6.34375,1.1875 c -0.552323,-0.045 -0.977496,0.1024 -1.46875,0.4687 -0.0024,0.021 0.0023,0.042 0,0.062 l 0.34375,0.875 c 0.13563,0.08 0.248164,0.165 0.375,0.25 C -81.822181,1028.0396 -81.696927,1027.6986 -81.473241,1026.8935 z m 2.5,0 c 0.1994,0.2867 0.73045,1.0294 2.71875,1.5937 l 0.3125,0.094 c -0.04988,-0.3823 -0.201262,-1.5557 -1.3125,-1.5625 C -77.925178,1027.0045 -78.340229,1026.9869 -78.973241,1026.8935 z m 3.03125,1.6875 c 0.758212,1.3106 0.764812,1.3199 2.625,1.75 l 0.5,-0.4375 c -0.191862,-0.077 -0.41995,-0.3124 -0.875,-0.9063 C -74.549916,1027.8677 -74.555979,1027.8437 -75.941991,1028.581 z m 5.625,1.8125 -0.25,0.062 c -0.912413,0.2662 -1.05275,0.3488 -0.65625,1.8437 0.993562,-0.093 1.000887,-0.1213 2.1875,1.3438 l 1.15625,-1.0313 -0.90625,-1.4062 L -70.316991,1030.3935 z m -9.46875,15.25 c -1.399773,4.7443 1.808537,6.5103 4.09375,7.75 0.184912,0.7259 0.376938,1.4196 0.59375,2.125 1.168638,1.1992 4.887063,4.5097 8.03125,5.4062 1.119938,5.6362 4.388586,9.9631 9.71875,12.8438 0.296787,0.3277 0.593225,0.6241 0.90625,0.9062 1.893238,0.578 3.614788,1.6342 5.5625,2.0938 0.0835,-0.1615 0.191975,-0.4009 0.28125,-0.5625 -0.08925,-0.098 -0.161888,-0.2055 -0.25,-0.3125 l -1,-0.4688 c -0.81155,-1.1787 -0.8105,-1.1728 -0.625,-2.0625 l -1.3125,-0.2812 c 1.1582,-0.2958 1.446,-0.3329 2.59375,-0.3125 -0.02437,-0.039 -0.06594,-0.083 -0.09375,-0.125 -1.77869,-0.4989 -3.399613,-1.4325 -5.15625,-1.9688 -0.313025,-0.2821 -0.609463,-0.5785 -0.90625,-0.9062 -5.330164,-2.8807 -8.598812,-7.2076 -9.71875,-12.8438 -3.144187,-0.8965 -6.862612,-4.207 -8.03125,-5.4062 -0.216812,-0.7054 -0.408838,-1.3991 -0.59375,-2.125 C -77.172975,1048.59 -79.033003,1047.5515 -79.785741,1045.6435 z m 40,8.75 c -0.506354,0.6441 -1.287994,1.4796 -2.53125,2.8125 0.943712,2.1252 0.9452,2.1065 -5,5.6562 0.379133,1.2287 0.36812,1.231 0.34375,3.4063 l -0.8125,0.625 c -0.239987,-0.064 -0.5725,-0.1478 -0.8125,-0.2188 -0.93675,0.7214 -2.1348,0.8506 -3.1875,1.3125 0.1971,0.2162 0.440725,0.5356 0.59375,0.7813 -1.14775,-0.02 -1.43555,0.017 -2.59375,0.3125 l 1.3125,0.2812 c -0.1855,0.8897 -0.18655,0.8838 0.625,2.0625 l 0.71875,0.3438 c 0.871162,-0.2974 1.782902,-0.5175 2.53125,-1.0938 0.24,0.071 0.572513,0.1551 0.8125,0.2188 l 0.8125,-0.625 c 0.02437,-2.1753 0.03538,-2.1776 -0.34375,-3.4063 5.9452,-3.5497 5.943712,-3.531 5,-5.6562 3.398075,-3.643 3.40025,-3.6344 3.53125,-5.8438 0.0185,-0.2662 0.02088,-0.6178 0.03125,-0.875 C -38.769535,1054.4872 -39.260516,1054.4444 -39.785741,1054.3935 Z"
           id="path2521"
           inkscape:connector-curvature="0" />
        <path
           style="fill:#a05a2c;fill-opacity:0.24705882;stroke:none"
           d="m -25.504491,984.08095 c 4.071673,1.60189 4.089478,1.59907 4.5625,1.90625 l 0.3125,-0.0937 C -22.19818,985.18902 -23.825666,984.57267 -25.504491,984.08095 z m 4.875,1.8125 c 0.855603,0.3982 1.384432,0.65991 2.65625,1.40625 -1.126898,-0.40047 -2.227243,-0.83708 -3.375,-1.1875 1.312384,0.55293 1.318608,0.55356 1.8125,0.90625 -0.135648,0.0478 -0.331939,0.0818 -0.46875,0.125 0.375637,0.15928 0.875527,0.40322 1.25,0.5625 0.809232,0.7873 1.452355,1.7036 2.25,2.5 0.572722,0.59388 1.346336,1.39414 1.875,2.03125 -0.753588,-0.2685 -1.775347,-0.64231 -2.53125,-0.90625 l -0.40625,-0.34375 c 0.417378,0.0319 0.988883,0.0909 1.40625,0.125 l -0.9375,-0.8125 -1.125,-0.46875 c -0.708369,0.4346 -0.804173,0.42534 -3,-0.34375 -0.222565,0.19676 -0.491022,0.37665 -0.78125,0.5625 0.465005,0.18691 0.919709,0.3893 1.375,0.59375 0.979232,0.43973 1.94331,0.88767 2.875,1.40625 1.401004,0.79441 2.54068,1.53423 3.59375,2.25 0.05011,-0.0415 0.187308,-0.12627 0.21875,-0.15625 0.112609,0.21347 0.147665,0.30591 0.25,0.5 1.868408,1.30599 3.411788,2.55357 5.1249997,4 1.87616,1.72765 2.393074,2.28535 4.21875,4.40625 -0.224159,-0.412 -0.446919,-0.8467 -0.6875,-1.25 0.267816,-0.02 0.639597,0 0.90625,0.031 0.0095,-0.1342 0.01855,-0.3391 0.03125,-0.4688 -0.166954,-0.1434 -0.400188,-0.3255 -0.5625,-0.4687 l 0.03125,-0.031 0.03125,-0.062 0,-0.031 0.03125,-0.031 0.03125,-0.062 0,-0.031 0.03125,-0.062 0.03125,-0.062 c 1.931489,1.174 1.925266,1.1947 3,2.8125 -0.591277,-0.2527 -0.662571,-0.3421 -1.03125,-0.7813 -0.06494,0.055 -0.109832,0.1561 -0.15625,0.2813 -0.138941,0.8618 -0.186937,1.3529 -0.1875,1.9687 0.288075,0.3683 0.531976,0.712 0.75,1 l -0.46875,-0.5625 c -0.248185,-0.3202 -0.206683,-0.2534 -0.28125,-0.3437 5.65e-4,0.099 -0.00303,0.258 0,0.375 0.195877,0.2768 0.362784,0.4892 0.6875,0.9062 l 0,-0.062 c 0.129854,-0.01 0.638545,0.5691 0.84375,0.8125 -0.208406,-0.3047 -0.405498,-0.6304 -0.59375,-0.9062 0.417711,0.5597 0.781758,1.1273 1.21874996,1.8125 0.021182,0.031 0.041387,0.063 0.0625,0.094 -0.050802,-0.4664 -0.083258,-0.9384 -0.125,-1.3437 0.117056,-0.059 0.255582,-0.1551 0.375,-0.2188 0.29796,0.578 0.703204,1.3549 1,1.9375 1.25905604,2.0478 1.42343004,2.3293 1.53125004,3.5625 l -0.1875,0.1563 c -3.99e-4,7e-4 -0.093286,0.03 -0.09375,0.031 0.924914,1.7158 1.235528,2.4795 2.8125,6.4375 0.344835,1.0686 0.692293,2.3068 1.03125,3.5625 -0.27896,-0.853 -0.619161,-1.7332 -1.125,-2.5 -0.02552,0.116 -0.05671,0.23 -0.09375,0.3438 0.927487,1.9317 2.3714,7.3602 2.375,7.4062 l 0.03125,0.1563 c 0.178056,1.5725 0.309143,3.4756 0.40625,5.25 0.055464,-0.8371 0.079577,-1.6909 0.09375,-2.9688 -0.08465,-2.1116 -0.261174,-4.9219 -0.5,-7.0312 l -0.03125,-0.1563 c -0.0036,-0.046 -1.447513,-5.4745 -2.375,-7.4062 0.03704,-0.1138 0.06823,-0.2278 0.09375,-0.3438 0.505839,0.7668 0.84604,1.647 1.125,2.5 -0.338957,-1.2557 -0.686415,-2.4939 -1.03125,-3.5625 -1.829475,-4.5918 -1.907405,-4.7784 -3.28125,-7.2812 -0.51432004,-0.8496 -0.87061904,-1.4619 -1.21875004,-2.0313 -0.019866,-0.031 -0.042365,-0.063 -0.0625,-0.094 -0.077742,-0.1217 -0.139947,-0.2542 -0.21875,-0.375 -0.082012,-0.1333 -0.143752,-0.1919 -0.21875,-0.3125 -0.124882,-0.1883 -0.247583,-0.376 -0.375,-0.5625 -0.43699196,-0.6852 -0.80103896,-1.2528 -1.21874996,-1.8125 0.188252,0.2758 0.385344,0.6015 0.59375,0.9062 -0.205205,-0.2434 -0.713896,-0.8194 -0.84375,-0.8125 l 0,0.062 c -0.777926,-0.9989 -0.759588,-0.9825 -1.9375,-2.84375 -2.018275,-2.35074 -2.517169,-2.89041 -4.46875,-4.6875 C -11.35641,991.5384 -13.561084,989.6775 -17.754491,987.2997 -18.686181,986.78112 -19.650259,986.33318 -20.629491,985.89345 z m 0,4.75 -0.3125,0.0937 c -0.255162,-0.1657 -0.525511,-0.30716 -1.21875,-0.59375 -0.02562,0.0156 -0.03633,0.047 -0.0625,0.0625 1.96048,2.23901 2.181172,2.45409 3.1875,4.28125 -0.03493,0.15814 -0.04049,0.25015 -0.0625,0.375 0.340178,0.0281 0.542952,-0.0775 0.875,-0.28125 l 1.125,0.46875 0.9375,0.8125 c -0.417367,-0.0341 -0.988872,-0.0931 -1.40625,-0.125 l 0.25,0.21875 c -0.0605,-0.0783 -0.05045,-0.0916 -0.125,-0.1875 l 0.125,0.0937 0.21875,0.21875 0.03125,0.0312 c 0.574507,0.20132 1.251237,0.46383 1.875,0.6875 0.02423,-0.1407 0.03146,-0.28736 0,-0.4375 -0.441918,-0.48971 -0.912545,-0.99152 -1.3125,-1.40625 -0.797645,-0.7964 -1.440768,-1.7127 -2.25,-2.5 -0.374473,-0.15928 -0.874363,-0.40322 -1.25,-0.5625 0.136811,-0.0432 0.333102,-0.0772 0.46875,-0.125 -0.493892,-0.35269 -0.500116,-0.35332 -1.8125,-0.90625 1.147757,0.35042 2.248102,0.78703 3.375,1.1875 C -19.245059,991.30336 -19.773888,991.04165 -20.629491,990.64345 z m 3.46875,6.8125 c 0.101507,0.0811 0.138422,0.12975 0.25,0.21875 0.02143,-0.0148 0.03936,-0.0462 0.0625,-0.0625 l -0.09375,-0.125 L -17.160741,997.45595 z m 2.78125,1.75 c -0.05925,0.0434 -0.03938,0.0333 -0.125,0.0937 -0.07263,0.0171 -0.165767,0.0217 -0.25,0.0312 0.186013,0.24001 0.450673,0.55888 0.875,1.06255 -0.09391,0.248 -0.321404,0.5213 -0.53125,0.6875 0.0022,0.1406 -0.0019,0.3086 0,0.4687 0.05923,0.1413 0.145713,0.3485 0.15625,0.375 -0.01769,-0.038 -0.06878,-0.1186 -0.15625,-0.25 0.0036,0.3246 -0.0041,0.6589 0,0.9375 -0.654812,-0.2329 -0.920301,-0.3516 -1.21875,-0.4687 l -0.15625,0 -0.09375,-0.094 c -0.243683,-0.1014 -0.532781,-0.2407 -0.78125,-0.375 0.04966,0.1254 0.09573,0.2653 0.15625,0.4688 -0.121734,0.086 -0.284516,0.1972 -0.40625,0.2812 -1.756478,-1.4011 -2.223993,-1.7866 -2.25,-2.375 -0.03655,0.034 -0.09331,0.062 -0.125,0.094 0.08583,0.355 0.240621,0.9541 2.375,2.3125 0.01852,0.5325 0.04861,1.2487 0.0625,1.7812 0.208683,0.1979 0.455675,0.447 0.65625,0.6563 l -0.09375,0.3125 c 0.584541,0.069 0.772236,0.1627 1.875,1.7812 -0.0045,-0.3871 0.0054,-0.8092 0,-1.1562 0.209846,-0.1662 0.43734,-0.4395 0.53125,-0.6875 -0.306342,-0.3636 -0.543079,-0.6593 -0.71875,-0.875 l -0.96875,0.5625 c 0.131224,-0.3819 0.374002,-0.6957 0.625,-1 -0.188653,-0.2838 -0.19358,-0.4219 -0.15625,-0.6563 0.14336,0.1561 0.226098,0.2493 0.34375,0.375 0.123906,-0.1481 0.265671,-0.2806 0.375,-0.4375 l 0.0625,0.9063 c 0.648103,0.6617 0.831893,0.7298 1.25,0.875 0.08811,-0.2595 0.17806,-0.6401 0.25,-0.9063 0.716489,0.355 0.743257,0.3628 1.3125,0.5313 -0.01865,-0.9619 -0.123186,-1.228 -1.84375,-4.5 C -13.612184,999.90582 -13.85896,999.74183 -14.379491,999.20595 z m 10.9687497,0.1875 c 0.151296,0.19625 0.246421,0.33055 0.3125,0.4375 0.059951,0.0448 0.05944,0.0479 0.53125,0.65625 l 0.46875,0.5625 c -0.27253,-0.36 -0.547137,-0.752 -0.9375,-1.25 C -3.1854813,999.62456 -3.2741223,999.55318 -3.4107413,999.39345 z m -15.6249997,2.50005 -0.03125,0.031 c -0.424323,0.1752 -0.742674,0.8546 -0.96875,1.3438 l 0.0625,0.125 0.0625,0.125 0.0625,0.125 0.09375,0.125 0.0625,0.125 0.0625,0.094 0.0625,0.125 0.0625,0.125 0.09375,0.125 0.0625,0.125 0.0625,0.125 0.0625,0.125 0.03125,0.062 c 0.10885,-0.1013 0.245796,-0.1837 0.375,-0.2812 0.126005,-0.3857 0.328141,-0.6063 0.6875,-0.7188 L -19.035741,1001.8935 z m 14.5624997,3.375 -0.03125,0.062 -0.03125,0.062 0,0.031 -0.03125,0.062 -0.03125,0.031 0,0.031 -0.03125,0.062 -0.03125,0.031 c 0.162312,0.1432 0.395546,0.3253 0.5625,0.4687 -0.0127,0.1297 -0.02175,0.3346 -0.03125,0.4688 -0.266653,-0.036 -0.638434,-0.051 -0.90625,-0.031 0.186321,0.3124 0.357583,0.6496 0.53125,0.9688 0.421953,0.3288 1.09115,0.8407 1.6875,1.3125 0.027395,-0.3411 0.06574,-0.6886 0.15625,-1.25 0.020144,-0.054 0.041855,-0.078 0.0625,-0.125 -0.351388,-0.4648 -0.726132,-0.9133 -0.875,-1.4688 0.016748,-0.024 0.015809,-0.04 0.03125,-0.062 C -3.7177643,1005.7455 -4.0311153,1005.5372 -4.4732413,1005.2685 z m 1.84375,1.2812 c 0.157539,0.2398 0.314874,0.4788 0.46875,0.7188 0.197698,0.2249 0.317849,0.3581 0.46875,0.5 C -2.0640933,1007.213 -2.3299313,1006.8348 -2.6294913,1006.5497 z m -11.6874997,2.2813 c -0.22296,0.036 -0.542378,0.088 -0.90625,0.125 -0.134299,0.193 -0.265091,0.3961 -0.34375,0.625 l 1.25,-0.7188 L -14.316991,1008.831 z m -2.4375,0.25 c -0.274588,0.019 -0.453968,0.043 -0.78125,0.062 0.615614,1.2833 1.373939,2.4933 2,3.7812 l -0.3125,0.3125 0.0625,0.1563 0.0625,0.1875 0.0625,0.1875 c 1.743233,-0.1526 2.056916,-0.2963 2.3125,-0.4375 -2.17263,-3.2579 -2.198989,-3.288 -2.9375,-3.375 l 0.09375,-0.3125 C -16.363912,1009.4641 -16.563107,1009.2642 -16.754491,1009.081 z m 11.3124997,3.0937 c -0.058251,0.033 -0.154111,0.089 -0.21875,0.125 0.766861,1.0884 1.164424,1.7374 1.46875,2.3125 -0.525187,-0.6644 -0.528242,-0.6668 -0.9375,-1.2812 -0.853175,0.2963 -1.187517,0.3549 -1.96875,-0.2813 -0.999763,0.5022 -2.261455,1.0701 -3.8437497,1.5938 -0.111113,0.2527 -0.270098,0.4802 -0.5,0.6875 0.34433,0.71 0.682333,1.457 1,2.1875 -1.407266,0.6022 -1.980137,0.7927 -4.125,1.5312 -1.133062,2.6247 -2.592389,5.4201 -5.53125,9.5313 l 1.28125,1.0625 c 0.09149,0.644 0.150515,1.0051 0.21875,1.5 2.855295,-4.3091 3.975674,-7.1043 5.21875,-10.25 l 0.15625,-0.031 0.15625,-0.031 0.15625,-0.031 0.125,-0.062 0.15625,-0.031 0.15625,-0.031 0.125,-0.031 0.15625,-0.031 c 0.0093,-0.141 -0.0095,-0.3055 0,-0.4375 l -0.28125,-0.3125 c 3.4734387,-0.9374 5.8800137,-2.289 7.0312497,-2.9375 0.025512,0.027 2.703577,2.818 4.15625,3 0.33622296,-1.0785 0.38660996,-1.3248 0.34374996,-1.9687 2.88916904,-1.1582 2.89355004,-1.1626 2.90625004,-1.1875 l 0.1875,-0.1563 c -0.10782,-1.2332 -0.272194,-1.5147 -1.53125004,-3.5625 -0.062798,-0.1233 -0.148575,-0.2691 -0.21875,-0.4062 -0.278654,0.1131 -0.235982,0.1123 -0.96875,0.4062 0.014673,0.1342 0.017985,0.2848 0.03125,0.4063 -0.187275,-0.1468 -0.210689,-0.1763 -0.34375,-0.2813 -0.061307,0.025 0.001621,0.01 -0.0625,0.031 0.04286,0.6439 -0.007527,0.8902 -0.34374996,1.9687 C -2.7384143,1014.9927 -5.4164793,1012.202 -5.4419913,1012.1747 z m -5.0624997,0.4688 c -0.01394,0.052 -0.01923,0.1038 -0.03125,0.1562 0.03776,-0.016 0.05428,-0.014 0.09375,-0.031 C -10.460438,1012.726 -10.485936,1012.6858 -10.504491,1012.6435 z m 16.2812497,4.8125 c 0.228688,0.8519 0.442124,1.7302 0.625,2.4687 C 6.2522037,1019.2318 6.0615267,1018.359 5.7767587,1017.456 z m 0,4.75 c 0.284768,0.903 0.475445,1.7758 0.625,2.4687 C 6.2188827,1023.9362 6.0054467,1023.0579 5.7767587,1022.206 z m -24.4062497,13.5937 c -0.0801,0.1917 -0.137812,0.3529 -0.25,0.5938 0.164152,0.1439 0.219023,0.207 0.375,0.3437 C -18.538879,1036.4731 -18.585982,1036.1139 -18.629491,1035.7997 z m 18.96874966,9.3125 c -0.071517,1.0768 -0.163118,2.2861 -0.28125,3.7188 -0.311862,1.0831 -0.678755,2.1499 -1.06249996,3.1875 -2.651457,4.1617 -4.16147,8.9522 -7.25,12.875 0.723434,-0.4983 1.815606,-1.2623 4.78125,-4.8438 1.202273,-1.5925 1.918077,-2.508 2.46875,-3.2812 0.008017,-0.022 0.023258,-0.041 0.03125,-0.062 0.374536,-1.0169 0.725904,-2.0646 1.03125,-3.125 C 0.42242466,1049.1615 0.59318966,1046.5651 0.33925866,1045.1122 Z"
           id="path2534"
           inkscape:connector-curvature="0" />
        <path
           style="fill:#000000;fill-opacity:0.10588235;stroke:none"
           d="m -25.504491,984.08095 c 4.071673,1.60189 4.089478,1.59907 4.5625,1.90625 l 0.3125,-0.0937 C -22.19818,985.18902 -23.825666,984.57267 -25.504491,984.08095 z m 4.875,1.8125 c 0.855603,0.3982 1.384432,0.65991 2.65625,1.40625 -1.126898,-0.40047 -2.227243,-0.83708 -3.375,-1.1875 1.312384,0.55293 1.318608,0.55356 1.8125,0.90625 -0.135648,0.0478 -0.331939,0.0818 -0.46875,0.125 0.375637,0.15928 0.875527,0.40322 1.25,0.5625 0.136742,0.13304 0.245961,0.26669 0.375,0.40625 0.05327,-0.0303 0.09558,-0.0565 0.15625,-0.0937 l 1.125,0.46875 0.9375,0.8125 c -0.371356,-0.0304 -0.853745,-0.0938 -1.25,-0.125 0.105481,0.12421 0.205114,0.25243 0.3125,0.375 0.748548,0.26204 1.734607,0.61343 2.46875,0.875 -0.528664,-0.63711 -1.302278,-1.43737 -1.875,-2.03125 -0.241277,-0.2409 -0.464993,-0.49309 -0.6875,-0.75 -0.193156,-0.11228 -0.360395,-0.22915 -0.5625,-0.34375 C -18.686181,986.78112 -19.650259,986.33318 -20.629491,985.89345 z m -0.625,3.59375 c -0.276545,0.24216 -0.586517,0.49168 -0.96875,0.71875 1.96048,2.23901 2.181172,2.45409 3.1875,4.28125 -0.279415,1.26512 -0.296902,1.25567 2.125,3.1875 0.121734,-0.0842 0.284516,-0.1948 0.40625,-0.28125 -0.201726,-0.67809 -0.196673,-0.67162 -0.9375,-1.625 l 0.125,0.0937 0.21875,0.21875 0.25,0.21875 0.21875,0.25 0.21875,0.1875 0.1875,0.21875 0.21875,0.21875 0.21875,0.21875 0.40625,0 c 0.247007,-0.67657 0.358753,-0.98072 -0.15625,-1.8125 l -0.25,0 -0.21875,-0.21875 -0.21875,-0.21875 -0.1875,-0.21875 -0.21875,-0.1875 -0.21875,-0.25 -0.25,-0.21875 -0.21875,-0.21875 -0.125,-0.0937 c 0.740827,0.95338 0.735774,0.94691 0.9375,1.625 -0.121734,0.0865 -0.284516,0.19705 -0.40625,0.28125 -2.421902,-1.93183 -2.404415,-1.92238 -2.125,-3.1875 C -19.83709,991.21971 -20.177394,990.73811 -21.254491,989.4872 z m 3.53125,1.375 c 1.831593,2.35054 2.438707,3.14584 2.53125,3.75 0.11027,0.003 0.20298,-0.0236 0.3125,-0.0312 -0.09174,-0.10246 -0.122352,-0.15166 -0.25,-0.28125 l -0.09375,-0.0937 c -0.06489,-0.29581 -0.06244,-0.60817 -0.125,-0.90625 l 0,-0.0625 0.03125,0.0625 c 0.29482,0.47243 0.519806,0.90169 0.6875,1.25 0.03903,-0.007 0.08921,0.008 0.125,0 0.380266,-0.2685 0.481344,-0.32888 0.5625,-0.40625 0.999158,1.89403 1.499784,2.89912 1.84375,3.625 0.160716,0.0654 0.309128,0.1033 0.59375,0.1875 -0.02087,-1.07627 -0.0272,-1.05596 -2.4375,-5.625 -0.08116,0.0774 -0.182234,0.13775 -0.5625,0.40625 -0.308395,0.0728 -0.745997,0.079 -1.0625,0.0312 l -0.875,-1.1875 c -0.242391,-0.0863 -0.504806,-0.1753 -0.71875,-0.25 l -0.40625,-0.34375 c 0.21329,0.0163 0.469045,0.0418 0.71875,0.0625 l -0.09375,-0.125 L -17.723241,990.8622 z m 2.46875,4.375 c -0.01539,0.0495 -0.04375,0.10276 -0.0625,0.15625 0.02424,0.20777 0.04892,0.42066 0.09375,0.625 l 0.09375,0.0937 c 0.706042,0.71676 0.834422,0.97603 0.875,1.0625 C -14.290087,997.08504 -14.630726,996.26255 -15.254491,995.2372 z m 0.15625,3.1875 c -0.05709,0.35849 -0.01401,0.46617 0.6875,1.3125 -0.0019,-0.1601 0.0022,-0.32804 0,-0.46875 0.02098,-0.0166 0.04128,-0.0435 0.0625,-0.0625 C -14.547088,999.00163 -14.793082,998.75692 -15.098241,998.4247 z m 10.6249997,0.28125 -0.03125,0.0625 -0.03125,0.0625 0,0.0312 -0.03125,0.0625 -0.03125,0.0312 0,0.0312 -0.03125,0.0625 -0.03125,0.0312 c 0.162312,0.14334 0.395546,0.3254 0.5625,0.46875 -0.0127,0.12969 -0.02175,0.33451 -0.03125,0.4688 -0.266653,-0.0366 -0.638434,-0.0518 -0.90625,-0.0313 0.151007,0.2531 0.296004,0.523 0.4375,0.7813 l 0.03125,-0.031 0.03125,-0.062 0,-0.031 0.03125,-0.062 0.03125,-0.062 c 0.903277,0.549 1.35285,0.8664 1.71875,1.1875 0.028519,-0.1994 0.048247,-0.4053 0.09375,-0.6875 0.026274,-0.071 0.065437,-0.1002 0.09375,-0.1563 -0.287984,-0.3826 -0.661451,-0.92796 -1.125,-1.65625 C -3.9266923,999.05822 -4.1377443,998.90989 -4.4732413,998.70595 z m 1.0625,0.6875 c 0.151296,0.19625 0.246421,0.33055 0.3125,0.4375 0.059951,0.0448 0.05944,0.0479 0.53125,0.65625 l 0.46875,0.5625 c -0.27253,-0.36 -0.547137,-0.752 -0.9375,-1.25 C -3.1854813,999.62456 -3.2741223,999.55318 -3.4107413,999.39345 z m -15.1249997,0.15625 c -0.242304,0.15246 -0.551752,0.3935 -0.75,0.5938 0.0065,0.027 0.02324,0.064 0.03125,0.094 0.05814,-0.045 0.124848,-0.099 0.1875,-0.125 l 0.03125,-0.031 0.59375,1.25 c 0.342156,0.3097 0.791369,0.6541 1.53125,1.125 0.01852,0.5325 0.04861,1.2487 0.0625,1.7812 0.208683,0.1979 0.455675,0.447 0.65625,0.6563 l -0.09375,0.3125 c 0.590112,0.069 0.773969,0.1787 1.90625,1.8437 0.639013,-0.1 0.857826,-0.1854 1.03125,-0.2812 -0.765524,-1.148 -1.209094,-1.8272 -1.5625,-2.3125 l -0.65625,0.375 c 0.08833,-0.2571 0.250674,-0.4738 0.40625,-0.6875 -0.47038,-0.5962 -0.707915,-0.7009 -1.125,-0.75 l 0.09375,-0.3125 c -0.200575,-0.2093 -0.447567,-0.4584 -0.65625,-0.6563 -0.0068,-0.2616 -0.02044,-0.5704 -0.03125,-0.875 -0.0497,-0.028 -0.06913,-0.032 -0.125,-0.062 -0.227239,-0.1866 -0.289259,-0.2352 -0.34375,-0.3125 l -0.15625,-0.25 -0.1875,-0.25 -0.15625,-0.2187 -0.1875,-0.2188 -0.15625,-0.2187 -0.15625,-0.25005 L -18.535741,999.5497 z m 14.1249997,1.5625 c 0.090385,0.1664 0.189461,0.3345 0.28125,0.5 0.00628,-0.083 0.02445,-0.1806 0.03125,-0.25 C -4.1894733,1001.2838 -4.3073943,1001.2041 -4.4107413,1001.1122 z m -9.9687497,0.1875 c -0.0083,0.012 -0.02277,0.019 -0.03125,0.031 0.0043,0.337 -0.0041,0.6962 0,1.0312 l 0.09375,-0.062 L -14.379491,1001.2997 z m -0.78125,1.0313 c -0.155576,0.2137 -0.317917,0.4304 -0.40625,0.6875 l 0.875,-0.5 C -14.903355,1002.4431 -15.006337,1002.3875 -15.160741,1002.331 z m -4.375,0.031 c -0.201774,0.2745 -0.366187,0.6167 -0.5,0.9063 l 0.0625,0.125 0.0625,0.125 0.0625,0.125 0.09375,0.125 0.0625,0.125 0.0625,0.094 0.0625,0.125 0.0625,0.125 0.09375,0.125 0.0625,0.125 0.0625,0.125 0.0625,0.125 0.0625,0.125 0.0625,0.125 0.0625,0.125 0.09375,0.125 c 0.05105,-0.8805 0.267606,-1.2669 0.8125,-1.4375 l -0.625,-1.3125 c -0.114918,0.2277 -0.163881,0.5301 -0.1875,0.9375 l -0.09375,-0.125 -0.0625,-0.125 -0.0625,-0.125 -0.0625,-0.125 -0.0625,-0.125 -0.0625,-0.125 -0.0625,-0.125 -0.09375,-0.125 L -19.535741,1002.3622 z m 11.9999997,1.5313 c -0.095058,0.1137 -0.21741,0.2567 -0.3125,0.375 0.743142,0.5915 0.746892,0.6112 1.21875,0.75 0.055655,-0.116 0.13182,-0.2925 0.1875,-0.4063 1.220391,1.6532 1.614768,2.3019 1.9375,2.875 0.682631,0.5318 1.545149,1.2263 2.71875,2.1563 0.173155,-1.2143 -0.74152,-1.9572 -1.3125,-2.8438 C -6.3951113,1004.1949 -6.7012663,1004.0119 -7.5357413,1003.8935 z m 4.71875,0.1875 c -0.02395,0.2981 -0.012528,0.8098 0,1.25 0.517152,0.6999 1.097039,1.3868 1.03125,2.3437 0.223447,0.2236 0.492429,0.4377 1.24999996,1.0313 -0.064508,-0.5908 -0.153981,-1.3473 -0.21875,-1.9688 -0.84130396,-0.6606 -0.98107696,-0.7974 -1.40624996,-1.2812 -0.214489,-0.3346 -0.433653,-0.6679 -0.65625,-1 C -2.8255163,1004.2633 -2.8103373,1004.2402 -2.8169913,1004.081 z m 2.43749996,0.4687 c -0.119418,0.064 -0.257944,0.1598 -0.375,0.2188 0.053479,0.5193 0.125219,1.1489 0.1875,1.7187 0.072051,-0.037 0.125625,-0.092 0.1875,-0.125 0.29796,0.578 0.703204,1.3549 1,1.9375 0.59243704,0.9636 0.91017904,1.539 1.12500004,2 0.00208,0 0.217787,-0.092 0.21875,-0.094 l 0.1875,-0.1563 c -0.10782,-1.2332 -0.272194,-1.5147 -1.53125004,-3.5625 C 0.32371266,1005.9046 -0.08153134,1005.1277 -0.37949134,1004.5497 z m -8.59374996,0.125 c -0.32346,0.1433 -0.679962,0.301 -1.0312497,0.4375 -0.950673,1.049 -0.339581,2.6666 -1.4375,3.6563 0.172165,0.355 0.333776,0.7328 0.5,1.0937 0.405116,-0.9502 0.192401,-2.1153 0.9375,-2.9375 0.3512877,-0.1365 0.7077897,-0.2942 1.0312497,-0.4375 2.438132,2.4438 2.513974,2.5557 3.84375,2.0938 0.409258,0.6144 0.412313,0.6168 0.9375,1.2812 -0.355707,-0.6722 -0.744903,-1.3147 -1.875,-2.875 -0.186915,0 -0.359849,-0.045 -0.5625,-0.1562 -0.471858,-0.1388 -0.475608,-0.1585 -1.21875,-0.75 0.038971,-0.048 0.078225,-0.1027 0.125,-0.1563 C -8.0684803,1005.5968 -8.4432123,1005.206 -8.9732413,1004.6747 z m 3.84375,2.0938 c -0.095521,0.033 -0.165906,0.067 -0.25,0.094 0.218273,0.1631 0.397616,0.2753 0.6875,0.5 C -4.7991513,1007.2138 -4.9393713,1007.0539 -5.1294913,1006.7685 z m -11.4687497,2.3125 c -0.317356,0.022 -0.545151,0.039 -0.9375,0.062 0.615614,1.2833 1.373939,2.4933 2,3.7812 l -0.3125,0.3125 0.0625,0.1563 0.0625,0.1875 0.0625,0.1875 0.0625,0.1562 0.0625,0.1875 0.0625,0.1563 0.0625,0.1562 0.0625,0.1563 c 1.611148,-0.5528 2.429196,-0.8265 3.0625,-1.0625 l -0.1875,-0.2188 c 0.716555,-0.1934 1.376124,-0.4065 2,-0.625 -0.209568,-0.4795 -0.434519,-0.966 -0.65625,-1.4375 -0.996198,0.4172 -1.626307,0.6418 -4.21875,1.5313 l -0.0625,-0.1563 -0.0625,-0.1562 -0.0625,-0.1563 -0.0625,-0.1875 -0.0625,-0.1562 -0.0625,-0.1875 -0.0625,-0.1875 -0.0625,-0.1563 0.3125,-0.3125 C -15.869351,1010.4259 -16.22992,1009.746 -16.598241,1009.081 z m 21.0937497,4.2187 c -0.0029,0.01 0.00313,0.022 0,0.031 0.05447,0.1134 0.129891,0.2705 0.1875,0.4062 C 4.6087397,1013.5508 4.5641927,1013.472 4.4955087,1013.2997 z m -23.8124997,14.125 c -0.261578,0.38 -0.492048,0.7517 -0.78125,1.1563 l 1.28125,1.0625 c 0.236328,1.6637 0.38881,2.7498 0.46875,3.5625 0.173702,-0.8721 0.01132,-1.9954 -0.46875,-5.375 L -19.316991,1027.4247 z m 26.6874997,1.9063 c -0.05115,2.1372 -0.184122,3.194 -0.78125,7.3125 -0.53447,2.8283 -0.6143,2.9875 -2.15625,7.75 -1.009807,2.6941 -1.098017,2.8881 -3.375,7.25 -1.48514304,2.5576 -1.65719604,2.7869 -4.53125,6.5937 -0.826619,0.9983 -1.463027,1.7282 -2.03125,2.3438 -0.801419,1.4991 -1.683214,2.9575 -2.75,4.3125 0.723434,-0.4983 1.815606,-1.2623 4.78125,-4.8438 2.87405396,-3.8068 3.04610696,-4.0361 4.53125,-6.5937 2.276983,-4.3619 2.365193,-4.5559 3.375,-7.25 1.54195,-4.7625 1.62178,-4.9217 2.15625,-7.75 0.717641,-4.9496 0.775401,-5.3739 0.8125,-8.7188 C 7.3968397,1029.6145 7.3760547,1029.4582 7.3705087,1029.331 z m -25.7187497,5.7187 c -0.08981,0.4296 -0.274496,0.7925 -0.53125,1.3438 6.490096,5.6902 6.481391,5.6818 7.90625,6.0937 0.270131,-0.421 0.63264,-0.983 0.90625,-1.4062 2.0230797,-0.4642 3.8709877,-0.9585 5.5624997,-1.5 3.48271,-1.0801 4.75003296,-1.4447 4.93749996,1.625 0.149733,-4.9526 -0.89113,-4.6924 -4.93749996,-3.4375 -1.691512,0.5415 -3.53942,1.0358 -5.5624997,1.5 -0.27361,0.4232 -0.636119,0.9852 -0.90625,1.4062 C -12.347897,1040.2773 -12.518567,1040.1599 -18.348241,1035.0497 Z"
           id="path2575"
           inkscape:connector-curvature="0" />
        <path
           sodipodi:type="arc"
           style="fill:url(#linearGradient2660);fill-opacity:1"
           id="path2636"
           sodipodi:cx="449.20551"
           sodipodi:cy="291.26059"
           sodipodi:rx="57.997883"
           sodipodi:ry="57.997883"
           d="m 507.20339,291.26059 c 0,32.03135 -25.96654,57.99788 -57.99788,57.99788 -32.03135,0 -57.99789,-25.96653 -57.99789,-57.99788 0,-32.03135 25.96654,-57.99788 57.99789,-57.99788 C 481.23685,233.26271 507.20339,259.22924 507.20339,291.26059 Z"
           transform="matrix(0.67724944,0,0,0.5176781,-346.82736,859.51011)" />
      </g>
      <path
         d="m 38.130832,1018.4468 c 0.421655,0.3862 9.896873,9.5733 -26.491439,19.9767 -2.8196536,0.8064 -2.8215002,0.8133 -2.9218338,1.2085 0,0 -0.2777168,-0.6431 -0.2777168,-0.6431 -0.6529897,-1.7889 -0.6784912,-1.8591 -0.9253481,-2.9264 0,0 -0.226532,-1.1715 -0.226532,-1.1715 0.1056883,-0.568 0.9351415,-0.8049 4.4281127,-1.8001 26.386671,-7.5162 25.712244,-13.6737 22.962068,-16.6751 0.68514,0.099 2.524381,1.18 3.452689,2.031"
         style="fill:url(#linearGradient2759);stroke:none;fill-opacity:1.0"
         id="path30142"
         inkscape:connector-curvature="0" />
      <path
         d="m 28.68291,1012.8616 c 3.342865,0.1565 8.156806,3.2054 3.263491,7.4271 -5.321766,4.5913 -17.173985,7.6039 -21.067442,8.5938 -2.6061709,0.6623 -3.5811724,0.9096 -3.8002172,1.5088 0.064347,-0.6366 0.1462232,-1.4862 0.2456294,-2.1184 0.4299974,-2.0163 0.4299974,-2.0163 0.7752264,-3.0223 0.3053481,-0.4304 0.9842458,-0.6592 3.8271854,-1.2896 20.277001,-4.4988 21.522291,-10.6369 14.60885,-11.0596 0.375665,-0.024 1.256077,-0.082 2.147277,-0.04"
         style="fill:url(#linearGradient2728);fill-opacity:1.0;stroke:none"
         id="path30168"
         inkscape:connector-curvature="0" />
    </g>
  </g>
</svg>
