<?xml version="1.0" encoding="UTF-8" standalone="no"?>
<!-- Created with Inkscape (http://www.inkscape.org/) -->

<svg
   xmlns:dc="http://purl.org/dc/elements/1.1/"
   xmlns:cc="http://creativecommons.org/ns#"
   xmlns:rdf="http://www.w3.org/1999/02/22-rdf-syntax-ns#"
   xmlns:svg="http://www.w3.org/2000/svg"
   xmlns="http://www.w3.org/2000/svg"
   xmlns:xlink="http://www.w3.org/1999/xlink"
   xmlns:sodipodi="http://sodipodi.sourceforge.net/DTD/sodipodi-0.dtd"
   xmlns:inkscape="http://www.inkscape.org/namespaces/inkscape"
   width="48"
   height="48"
   id="svg2"
   version="1.1"
   inkscape:version="0.48+devel r12149"
   sodipodi:docname="wicd.svg">
  <defs
     id="defs4">
    <linearGradient
       inkscape:collect="always"
       xlink:href="#linearGradient851-3"
       id="linearGradient3801"
       x1="23.204165"
       y1="1053.158"
       x2="23.204165"
       y2="1004.8474"
       gradientUnits="userSpaceOnUse"
       gradientTransform="translate(0,-2056.7244)" />
    <linearGradient
       id="linearGradient851-3">
      <stop
         style="stop-color:#ff9955;stop-opacity:1"
         offset="0"
         id="stop853-6" />
      <stop
         style="stop-color:#ff6600;stop-opacity:1"
         offset="1"
         id="stop855-7" />
    </linearGradient>
  </defs>
  <sodipodi:namedview
     id="base"
     pagecolor="#ffffff"
     bordercolor="#666666"
     borderopacity="1.0"
     inkscape:pageopacity="0.0"
     inkscape:pageshadow="2"
     inkscape:zoom="8"
     inkscape:cx="32.022294"
     inkscape:cy="22.132903"
     inkscape:document-units="px"
     inkscape:current-layer="layer1"
     showgrid="false"
     inkscape:window-width="1366"
     inkscape:window-height="716"
     inkscape:window-x="0"
     inkscape:window-y="28"
     inkscape:window-maximized="1">
    <inkscape:grid
       type="xygrid"
       id="grid3850" />
  </sodipodi:namedview>
  <metadata
     id="metadata7">
    <rdf:RDF>
      <cc:Work
         rdf:about="">
        <dc:format>image/svg+xml</dc:format>
        <dc:type
           rdf:resource="http://purl.org/dc/dcmitype/StillImage" />
        <dc:title />
      </cc:Work>
    </rdf:RDF>
  </metadata>
  <g
     inkscape:label="Capa 1"
     inkscape:groupmode="layer"
     id="layer1"
     transform="translate(0,-1004.3622)">
    <rect
       style="fill:url(#linearGradient3801);fill-opacity:1.0;stroke:none"
       id="rect2991"
       width="48"
       height="48"
       x="0"
       y="-1052.3622"
       ry="1.9445436"
       transform="scale(1,-1)" />
    <path
       inkscape:connector-curvature="0"
       style="fill:#000000;fill-opacity:1;stroke:none"
       d="m 0,1049.3622 0,1.0625 c 0,1.0773 0.86022,1.9375 1.9375,1.9375 l 44.125,0 c 1.07728,0 1.9375,-0.8602 1.9375,-1.9375 l 0,-1.0625 c 0,1.0773 -0.86022,1.9375 -1.9375,1.9375 l -44.125,0 C 0.86022,1051.2997 0,1050.4395 0,1049.3622 Z"
       id="rect846" />
    <path
       inkscape:connector-curvature="0"
       style="fill:#ffffff;fill-opacity:0.5372549;stroke:none"
       d="m 2.53125,1005.0185 c -0.91709,0 -1.67115,0.6395 -1.84375,1.5 0.33561,-0.2799 0.77451,-0.4375 1.25,-0.4375 l 44.125,0 c 0.47549,0 0.91439,0.1576 1.25,0.4375 -0.1726,-0.8605 -0.92666,-1.5 -1.84375,-1.5 L 2.53125,1005.0185 Z"
       id="path7515" />
    <path
       inkscape:connector-curvature="0"
       style="fill:#000000;fill-opacity:0.39215686;stroke:none"
       d="m 1.9375,1004.3622 c -1.07728,0 -1.9375,0.8602 -1.9375,1.9375 l 0,43.0625 c 0,0.7934 0.48002,1.449 1.15625,1.75 -0.30934,-0.3333 -0.5,-0.7824 -0.5,-1.2812 l 0,-42.9375 c 0,-1.0482 0.8269,-1.875 1.875,-1.875 l 42.9375,0 c 1.0481,0 1.875,0.8268 1.875,1.875 l 0,42.9375 c 0,0.4988 -0.19066,0.9479 -0.5,1.2812 0.67623,-0.301 1.15625,-0.9566 1.15625,-1.75 l 0,-43.0625 c 0,-1.0773 -0.86022,-1.9375 -1.9375,-1.9375 L 1.9375,1004.3622 Z"
       id="rect4280" />
    <g
       id="g864"
       transform="matrix(0.98907055,0,0,0.98907055,0.26230704,11.4143)">
      <path
         sodipodi:nodetypes="ssssscssssssssscsssscssssssssssssssssssssscssssssssssscssscssc"
         inkscape:connector-curvature="0"
         id="path852"
         d="m 23.087628,1043.6927 c -0.757744,-0.1352 -1.429082,-0.4754 -1.984875,-1.0058 -1.933776,-1.8455 -1.446654,-5.0484 0.946327,-6.2224 0.446601,-0.2191 0.858874,-0.3356 1.367174,-0.3864 0.346144,-0.035 0.461161,-0.032 0.826426,0.02 0.233368,0.033 0.559717,0.1044 0.725196,0.1602 1.953108,0.6545 3.045339,2.7258 2.480091,4.7033 -0.359207,1.2567 -1.362085,2.2705 -2.60141,2.6296 C 24.28861,1043.7523 23.633843,1043.7903 23.087628,1043.6927 z m 6.511682,-9.4464 c -0.381088,-0.1055 -0.606111,-0.2468 -1.025454,-0.6452 -1.076441,-1.0226 -2.292916,-1.674 -3.647842,-1.9531 -0.354488,-0.073 -0.48181,-0.081 -1.237049,-0.081 -0.780198,0.011 -0.873763,0.011 -1.277205,0.094 -1.38699,0.2949 -2.66048,0.9541 -3.687856,1.9086 -0.170262,0.1581 -0.386884,0.3327 -0.481383,0.3878 -0.452672,0.2641 -1.07499,0.3289 -1.549818,0.1613 -1.07288,-0.3785 -1.563883,-1.5595 -1.078146,-2.593 0.207043,-0.4404 1.229538,-1.3526 2.201638,-1.9639 1.453308,-0.914 2.887657,-1.4393 4.584184,-1.6789 0.348265,-0.049 0.647389,-0.063 1.357312,-0.061 0.952483,0 1.383251,0.046 2.150486,0.2175 1.905571,0.4252 3.852597,1.4829 5.224567,2.838 0.544984,0.5384 0.722118,0.8687 0.75924,1.4161 0.05795,0.854 -0.425534,1.5999 -1.22691,1.8931 C 30.374692,1034.2947 29.873033,1034.3218 29.59931,1034.2463 z m 6.135321,-5.2432 c -0.533976,-0.08 -0.739843,-0.2065 -1.462697,-0.9074 -1.231463,-1.1941 -2.487402,-2.0778 -4.036418,-2.84 -2.800481,-1.3782 -5.813986,-1.8019 -8.863856,-1.2464 -2.932861,0.5342 -5.889418,2.0497 -8.084646,4.144 -0.308932,0.2948 -0.441753,0.3954 -0.670074,0.5075 -0.582039,0.2862 -1.157306,0.2854 -1.742226,0 -0.677177,-0.3329 -1.0681828,-0.9728 -1.0681828,-1.7483 0,-0.6462 0.1508548,-0.9458 0.8053018,-1.5992 1.124801,-1.123 2.743894,-2.2903 4.372367,-3.1525 2.503974,-1.3255 5.050634,-2.0643 7.794166,-2.2614 0.69896,-0.049 2.372572,-0.021 3.041072,0.053 2.956349,0.3272 5.705192,1.3252 8.264179,3.0002 1.535667,1.0053 3.202834,2.4485 3.612347,3.1273 0.459027,0.7608 0.322523,1.7632 -0.325284,2.3886 C 36.929642,1028.8921 36.325754,1029.0902 35.734631,1029.0031 z m 6.118377,-4.862 c -0.439224,-0.1067 -0.6102,-0.2248 -1.260602,-0.8735 -3.746565,-3.7367 -8.7078,-6.2075 -13.724907,-6.8354 -1.021263,-0.1279 -1.523132,-0.1559 -2.748997,-0.1539 -1.248627,0.011 -1.92587,0.045 -2.989534,0.1881 -4.124969,0.5558 -8.172813,2.2486 -11.6832363,4.8855 -0.8151657,0.6124 -1.3954682,1.1021 -2.0259451,1.7101 -0.5518557,0.5321 -0.7560182,0.6839 -1.066127,0.7929 -1.1289472,0.3968 -2.3364606,-0.2795 -2.5817921,-1.4459 -0.099294,-0.4719 0.0033,-1.0393 0.2578889,-1.4372 0.1207689,-0.1882 0.9200013,-0.9897 1.4299293,-1.4341 3.295871,-2.8714 7.4046203,-5.0852 11.5286003,-6.2115 2.435545,-0.6651 4.675329,-0.965 7.198941,-0.964 1.320376,0 2.023152,0.045 3.264434,0.2033 5.29326,0.6778 10.456437,3.064 14.72431,6.8047 0.635382,0.5568 1.604557,1.5344 1.768935,1.784 0.196565,0.2986 0.297024,0.5991 0.318445,0.9529 0.03574,0.5906 -0.159905,1.121 -0.559498,1.5167 -0.249609,0.2471 -0.654548,0.4702 -0.971177,0.5348 C 42.487762,1024.2086 42.10044,1024.201 41.853008,1024.1411 Z"
         style="fill:#ffffff" />
      <path
         inkscape:connector-curvature="0"
         id="path854"
         d="m 24.123576,1016.2929 c -1.248628,0.011 -1.93986,0.041 -3.003524,0.1839 -4.124969,0.5558 -8.166541,2.2361 -11.6769648,4.8731 -0.8151657,0.6123 -1.3923044,1.1082 -2.0227813,1.7163 -0.5518557,0.532 -0.7625783,0.6879 -1.0726871,0.7968 -1.1289472,0.3968 -2.3291175,-0.2741 -2.574449,-1.4405 -0.022581,0.2046 -0.040156,0.4222 0,0.613 0.2453315,1.1664 1.4455018,1.8373 2.574449,1.4405 0.3101088,-0.109 0.5208314,-0.2648 1.0726871,-0.7969 0.6304769,-0.608 1.2076156,-1.1039 2.0227813,-1.7163 3.5104238,-2.6369 7.5519958,-4.3172 11.6769648,-4.8731 1.063664,-0.1429 1.754896,-0.1731 3.003524,-0.1839 1.225865,0 1.737075,0.026 2.758338,0.1533 5.017106,0.6279 9.953181,3.0978 13.699746,6.8345 0.650402,0.6487 0.817352,0.7515 1.256576,0.8582 0.247432,0.06 0.643884,0.08 0.888798,0.03 0.316629,-0.065 0.731134,-0.3047 0.980743,-0.5517 0.399593,-0.3957 0.587406,-0.9112 0.551667,-1.5018 -0.0027,-0.045 -0.02538,-0.079 -0.03065,-0.1226 -0.06839,0.3897 -0.237524,0.7306 -0.521019,1.0114 -0.249609,0.2471 -0.664114,0.4871 -0.980743,0.5517 -0.244914,0.05 -0.641366,0.029 -0.888798,-0.03 -0.439224,-0.1067 -0.606174,-0.2095 -1.256576,-0.8581 -3.746565,-3.7368 -8.68264,-6.2067 -13.699746,-6.8345 C 25.860651,1016.3183 25.349441,1016.2908 24.123576,1016.2929 z m -0.459723,7.4781 c -0.755162,0.017 -1.536148,0.1063 -2.298616,0.2452 -2.932861,0.5341 -5.895897,2.0433 -8.091125,4.1376 -0.308932,0.2948 -0.415291,0.4088 -0.643612,0.5209 -0.58204,0.2862 -1.162027,0.2854 -1.746948,0 -0.601819,-0.2958 -0.9658531,-0.8412 -1.0420381,-1.5017 -0.017357,0.1136 -0.030648,0.2292 -0.030648,0.3678 0,0.7755 0.3955101,1.414 1.0726861,1.7469 0.584921,0.2854 1.164908,0.2862 1.746948,0 0.228321,-0.1121 0.33468,-0.2262 0.643612,-0.521 2.195228,-2.0942 5.158264,-3.6034 8.091125,-4.1375 3.04987,-0.5556 6.05685,-0.1215 8.857331,1.2566 1.549016,0.7622 2.8141,1.6255 4.045562,2.8196 0.722855,0.701 0.937138,0.84 1.471114,0.9195 0.591123,0.087 1.183317,-0.097 1.624355,-0.5211 0.463182,-0.4471 0.672703,-1.1098 0.582316,-1.7163 -0.06759,0.4018 -0.273985,0.8057 -0.582316,1.1033 -0.441038,0.4236 -1.033232,0.6082 -1.624355,0.5211 -0.533976,-0.079 -0.748259,-0.2185 -1.471114,-0.9194 -1.231462,-1.1942 -2.496546,-2.0574 -4.045562,-2.8197 C 28.122207,1024.2392 25.929337,1023.7204 23.663853,1023.771 z m -0.766206,7.8154 c -0.171346,0.012 -0.28865,0.05 -0.490371,0.092 -1.38699,0.2949 -2.650407,0.9456 -3.677784,1.9001 -0.170262,0.1581 -0.395872,0.3434 -0.490371,0.3985 -0.452672,0.2641 -1.057582,0.3208 -1.53241,0.1532 -0.67055,-0.2365 -1.13702,-0.7782 -1.256577,-1.4098 -0.115902,0.8627 0.379823,1.7134 1.256577,2.0228 0.474828,0.1676 1.079738,0.1109 1.53241,-0.1532 0.09449,-0.055 0.320109,-0.2404 0.490371,-0.3985 1.027377,-0.9546 2.290794,-1.6053 3.677784,-1.9002 0.403442,-0.083 0.507026,-0.081 1.287225,-0.092 0.755238,-10e-4 0.871439,-0.012 1.225928,0.061 1.354926,0.2792 2.570694,0.9389 3.647136,1.9615 0.419343,0.3984 0.660951,0.5381 1.042039,0.6436 0.273723,0.075 0.751656,0.046 1.042039,-0.061 0.801376,-0.2932 1.28388,-1.0462 1.225928,-1.9002 -0.0038,-0.057 0.0071,-0.1008 0,-0.1532 -0.106288,0.6593 -0.568702,1.2 -1.225928,1.4404 -0.290383,0.1072 -0.768316,0.1368 -1.042039,0.061 -0.381088,-0.1055 -0.622696,-0.2452 -1.042039,-0.6435 -1.076442,-1.0227 -2.29221,-1.6824 -3.647136,-1.9615 -0.354489,-0.073 -0.47069,-0.062 -1.225928,-0.061 C 23.304402,1031.5918 23.068994,1031.5746 22.897647,1031.5864 z m 4.689175,8.6428 c -0.02042,0.2471 -0.08259,0.4883 -0.153241,0.7355 -0.359206,1.2567 -1.335124,2.2766 -2.574449,2.6358 -0.557947,0.1614 -1.231381,0.1894 -1.777595,0.092 -0.757745,-0.1352 -1.436341,-0.4809 -1.992133,-1.0113 -0.708246,-0.6759 -1.080558,-1.5169 -1.164632,-2.3906 -0.06507,1.0735 0.292837,2.1715 1.164632,3.0036 0.555792,0.5304 1.234388,0.8761 1.992133,1.0113 0.546214,0.098 1.219648,0.07 1.777595,-0.092 1.239325,-0.3591 2.215243,-1.379 2.574449,-2.6357 C 27.563118,1041.1245 27.621792,1040.6739 27.586822,1040.2292 Z"
         style="fill:#ffffff;fill-opacity:0.31372549" />
      <path
         inkscape:connector-curvature="0"
         id="path859"
         d="m 24.184872,1012.0086 c -2.523612,-10e-4 -4.766782,0.285 -7.202328,0.9501 -4.123979,1.1263 -8.227852,3.3502 -11.5237231,6.2216 -0.5099279,0.4444 -1.3196965,1.2523 -1.4404655,1.4405 -0.2225498,0.3478 -0.3188983,0.8267 -0.2758338,1.2566 0.026255,-0.3217 0.1140921,-0.6361 0.2758338,-0.8888 0.120769,-0.1882 0.9305376,-0.9961 1.4404655,-1.4405 3.2958711,-2.8714 7.3997441,-5.0953 11.5237231,-6.2216 2.435546,-0.6651 4.678716,-0.9512 7.202328,-0.9501 1.320376,0 2.038075,0.056 3.279358,0.2146 5.293259,0.6777 10.443264,3.0631 14.711137,6.8039 0.635381,0.5567 1.613217,1.528 1.777595,1.7776 0.196565,0.2986 0.285062,0.5963 0.306482,0.95 0.01332,-0.1202 0.0077,-0.2412 0,-0.3677 -0.02142,-0.3538 -0.109917,-0.6515 -0.306482,-0.9501 -0.164378,-0.2496 -1.142214,-1.2209 -1.777595,-1.7776 -4.267873,-3.7408 -9.417878,-6.1261 -14.711137,-6.8039 C 26.222947,1012.065 25.505248,1012.0086 24.184872,1012.0086 z m 0.122593,7.5089 c -0.589335,-0.01 -1.18293,0.01 -1.53241,0.031 -2.743532,0.197 -5.28067,0.9424 -7.784644,2.268 -1.628473,0.8621 -3.257891,2.0337 -4.382693,3.1567 -0.6544462,0.6534 -0.7968523,0.9475 -0.7968523,1.5937 0,0.054 0.026839,0.1003 0.030648,0.1533 0.038011,-0.4986 0.1939793,-0.8079 0.7662043,-1.3792 1.124802,-1.123 2.75422,-2.2946 4.382693,-3.1568 2.503974,-1.3255 5.041112,-2.0709 7.784644,-2.2679 0.69896,-0.049 2.365671,-0.012 3.034172,0.061 2.956349,0.3271 5.716028,1.3285 8.275014,3.0035 1.535667,1.0053 3.206975,2.4473 3.616488,3.1261 0.15102,0.2503 0.220089,0.5163 0.245186,0.7969 0.04182,-0.4043 -0.02703,-0.8031 -0.245186,-1.1647 -0.409513,-0.6787 -2.080821,-2.1208 -3.616488,-3.1261 -2.558986,-1.675 -5.318665,-2.6763 -8.275014,-3.0035 C 25.474977,1019.5726 24.8968,1019.5276 24.307465,1019.5175 z m -0.551668,7.9378 c -0.709923,0 -1.000255,0.012 -1.348521,0.061 -1.696526,0.2396 -3.143923,0.7716 -4.59723,1.6857 -0.9721,0.6113 -1.999627,1.521 -2.206671,1.9615 -0.158936,0.3381 -0.189618,0.7055 -0.153241,1.042 0.01924,-0.2222 0.05076,-0.4562 0.153241,-0.6743 0.207044,-0.4404 1.234571,-1.3501 2.206671,-1.9614 1.453307,-0.9141 2.900704,-1.4461 4.59723,-1.6857 0.348266,-0.049 0.638598,-0.063 1.348521,-0.061 0.952483,0 1.378139,0.074 2.145374,0.2452 1.905571,0.4252 3.868873,1.4645 5.240843,2.8196 0.533708,0.5273 0.693434,0.8518 0.735557,1.3792 0.0092,-0.1027 0.0072,-0.2304 0,-0.3371 -0.03712,-0.5474 -0.190573,-0.8714 -0.735557,-1.4098 -1.37197,-1.3551 -3.335272,-2.3944 -5.240843,-2.8197 C 25.133936,1027.5291 24.70828,1027.4553 23.755797,1027.4553 z m 0.0613,8.2444 c -0.117681,0 -0.225355,0.013 -0.398427,0.031 -0.5083,0.051 -0.932568,0.1487 -1.379169,0.3678 -1.4657,0.7191 -2.197363,2.2145 -2.114726,3.6778 0.04833,-1.3416 0.768674,-2.6496 2.114726,-3.31 0.446601,-0.2191 0.870869,-0.317 1.379169,-0.3678 0.346143,-0.035 0.462237,-0.052 0.827501,0 0.233368,0.033 0.570078,0.1281 0.735557,0.1839 1.464831,0.4909 2.44482,1.7706 2.605097,3.2181 -0.02299,-1.5922 -1.018197,-3.0541 -2.605097,-3.5859 -0.165479,-0.056 -0.502189,-0.1505 -0.735557,-0.1839 C 24.063535,1035.7044 23.934774,1035.7025 23.817094,1035.6997 Z"
         style="fill:#000000;fill-opacity:0.62941176" />
    </g>
  </g>
</svg>
