<?xml version="1.0" encoding="UTF-8" standalone="no"?>
<!-- Created with Inkscape (http://www.inkscape.org/) -->

<svg
   xmlns:dc="http://purl.org/dc/elements/1.1/"
   xmlns:cc="http://creativecommons.org/ns#"
   xmlns:rdf="http://www.w3.org/1999/02/22-rdf-syntax-ns#"
   xmlns:svg="http://www.w3.org/2000/svg"
   xmlns="http://www.w3.org/2000/svg"
   xmlns:xlink="http://www.w3.org/1999/xlink"
   xmlns:sodipodi="http://sodipodi.sourceforge.net/DTD/sodipodi-0.dtd"
   xmlns:inkscape="http://www.inkscape.org/namespaces/inkscape"
   width="48"
   height="48"
   id="svg3066"
   version="1.1"
   inkscape:version="0.48+devel r12126"
   sodipodi:docname="gconf-editor.svg">
  <defs
     id="defs3068">
    <linearGradient
       inkscape:collect="always"
       id="linearGradient861">
      <stop
         style="stop-color:#f9f9f9;stop-opacity:1"
         offset="0"
         id="stop863" />
      <stop
         style="stop-color:#ffffff;stop-opacity:1"
         offset="1"
         id="stop865" />
    </linearGradient>
    <linearGradient
       inkscape:collect="always"
       xlink:href="#linearGradient848-2"
       id="linearGradient849"
       x1="23.726332"
       y1="1034.2006"
       x2="23.726332"
       y2="1021.2469"
       gradientUnits="userSpaceOnUse" />
    <linearGradient
       id="linearGradient848-2">
      <stop
         id="stop850-8"
         offset="0"
         style="stop-color:#00ccff;stop-opacity:1" />
      <stop
         id="stop852-2"
         offset="1"
         style="stop-color:#0095bb;stop-opacity:1" />
    </linearGradient>
    <linearGradient
       inkscape:collect="always"
       xlink:href="#linearGradient4049"
       id="linearGradient4055"
       x1="-27.285458"
       y1="20.134001"
       x2="-27.285458"
       y2="10.974344"
       gradientUnits="userSpaceOnUse" />
    <linearGradient
       inkscape:collect="always"
       id="linearGradient4049">
      <stop
         style="stop-color:#c0c0c0;stop-opacity:1"
         offset="0"
         id="stop4051" />
      <stop
         style="stop-color:#d1d1d1;stop-opacity:1"
         offset="1"
         id="stop4053" />
    </linearGradient>
    <linearGradient
       inkscape:collect="always"
       xlink:href="#linearGradient4041"
       id="linearGradient4047"
       x1="-27.075031"
       y1="10.773723"
       x2="-27.075031"
       y2="19.810371"
       gradientUnits="userSpaceOnUse" />
    <linearGradient
       inkscape:collect="always"
       id="linearGradient4041">
      <stop
         style="stop-color:#a1a1a1;stop-opacity:1"
         offset="0"
         id="stop4043" />
      <stop
         style="stop-color:#ffffff;stop-opacity:1"
         offset="1"
         id="stop4045" />
    </linearGradient>
    <linearGradient
       inkscape:collect="always"
       xlink:href="#linearGradient861"
       id="linearGradient867"
       x1="26.25"
       y1="-1052.5408"
       x2="26.25"
       y2="-1004.6837"
       gradientUnits="userSpaceOnUse" />
  </defs>
  <sodipodi:namedview
     id="base"
     pagecolor="#ffffff"
     bordercolor="#666666"
     borderopacity="1.0"
     inkscape:pageopacity="0.0"
     inkscape:pageshadow="2"
     inkscape:zoom="3.959798"
     inkscape:cx="29.99018"
     inkscape:cy="28.587003"
     inkscape:document-units="px"
     inkscape:current-layer="layer1"
     showgrid="false"
     inkscape:window-width="1366"
     inkscape:window-height="717"
     inkscape:window-x="0"
     inkscape:window-y="28"
     inkscape:window-maximized="1" />
  <metadata
     id="metadata3071">
    <rdf:RDF>
      <cc:Work
         rdf:about="">
        <dc:format>image/svg+xml</dc:format>
        <dc:type
           rdf:resource="http://purl.org/dc/dcmitype/StillImage" />
        <dc:title />
      </cc:Work>
    </rdf:RDF>
  </metadata>
  <g
     inkscape:label="Capa 1"
     inkscape:groupmode="layer"
     id="layer1"
     transform="translate(0,-1004.3622)">
    <rect
       style="fill:url(#linearGradient867);fill-opacity:1;stroke:none"
       id="rect2991-1"
       width="48"
       height="48"
       x="1.2041992e-06"
       y="-1052.3622"
       ry="1.9445436"
       transform="scale(1,-1)" />
    <g
       id="g4123"
       transform="matrix(1.1286938,0,0,1.1286938,-3.0886534,-132.34394)">
      <g
         transform="translate(-1.1032529,-1.1985552e-4)"
         id="g4085">
        <g
           id="g4079"
           transform="matrix(0.82795699,0,0,0.82795699,4.1290323,176.97699)">
          <path
             inkscape:connector-curvature="0"
             id="rect856"
             d="m 6.5625,1029.157 0,0.75 c 0,3.1443 2.5432532,5.6563 5.6875,5.6563 l 23.5,0 c 3.144247,0 5.6875,-2.512 5.6875,-5.6563 l 0,-0.75 c 0,3.1443 -2.543253,5.6875 -5.6875,5.6875 l -23.5,0 C 9.1057532,1034.8445 6.5625,1032.3013 6.5625,1029.157 Z"
             style="color:#000000;fill:#ffffff;fill-opacity:0.93248943;fill-rule:nonzero;stroke:none;stroke-width:0.40000001;marker:none;visibility:visible;display:inline;overflow:visible;enable-background:accumulate" />
          <rect
             ry="5.6755357"
             y="1021.7942"
             x="6.5763474"
             height="13.136158"
             width="34.847305"
             id="rect840"
             style="color:#000000;fill:url(#linearGradient849);fill-opacity:1;fill-rule:nonzero;stroke:none;stroke-width:0.40000001;marker:none;visibility:visible;display:inline;overflow:visible;enable-background:accumulate" />
          <path
             id="rect851"
             transform="translate(0,1004.3622)"
             d="m 12.25,17.4375 c -3.1442468,0 -5.6875,2.512003 -5.6875,5.65625 l 0,1.28125 c 0,-3.144247 2.5432532,-5.65625 5.6875,-5.65625 l 23.5,0 c 3.144247,0 5.6875,2.512003 5.6875,5.65625 l 0,-1.28125 c 0,-3.144247 -2.543253,-5.65625 -5.6875,-5.65625 L 12.25,17.4375 Z"
             style="color:#000000;fill:#000000;fill-opacity:0.17299577;fill-rule:nonzero;stroke:none;stroke-width:0.40000001;marker:none;visibility:visible;display:inline;overflow:visible;enable-background:accumulate"
             inkscape:connector-curvature="0" />
          <path
             style="color:#000000;fill:#ffffff;fill-opacity:0.27004221;fill-rule:nonzero;stroke:none;stroke-width:0.40000001;marker:none;visibility:visible;display:inline;overflow:visible;enable-background:accumulate"
             d="m 6.5625,1028.524 0,0.75 c 0,3.1443 2.5432532,5.6563 5.6875,5.6563 l 23.5,0 c 3.144247,0 5.6875,-2.512 5.6875,-5.6563 l 0,-0.75 c 0,3.1443 -2.543253,5.6875 -5.6875,5.6875 l -23.5,0 C 9.1057532,1034.2115 6.5625,1031.6683 6.5625,1028.524 Z"
             id="path4067"
             inkscape:connector-curvature="0" />
        </g>
        <g
           id="g4069"
           transform="matrix(1.4001094,0,0,1.4001094,72.504656,-399.68568)">
          <path
             sodipodi:type="arc"
             style="color:#000000;fill:#000000;fill-opacity:0.22362868;fill-rule:nonzero;stroke:none;stroke-width:0.40000001;marker:none;visibility:visible;display:inline;overflow:visible;enable-background:accumulate"
             id="path4032"
             sodipodi:cx="-27.640665"
             sodipodi:cy="15.433276"
             sodipodi:rx="4.834836"
             sodipodi:ry="4.834836"
             d="m -22.805829,15.433276 c 0,2.670206 -2.16463,4.834836 -4.834836,4.834836 -2.670206,0 -4.834836,-2.16463 -4.834836,-4.834836 0,-2.670206 2.16463,-4.834836 4.834836,-4.834836 C -24.970459,10.59844 -22.805829,12.76307 -22.805829,15.433276 Z"
             transform="matrix(1.0103416,0,0,1.0103416,0.28584867,1004.4755)" />
          <path
             sodipodi:type="arc"
             style="color:#000000;fill:#000000;fill-opacity:0.34599155;fill-rule:nonzero;stroke:none;stroke-width:0.40000001;marker:none;visibility:visible;display:inline;overflow:visible;enable-background:accumulate"
             id="path4057"
             sodipodi:cx="-27.640665"
             sodipodi:cy="15.433276"
             sodipodi:rx="4.834836"
             sodipodi:ry="4.834836"
             d="m -22.805829,15.433276 c 0,2.670206 -2.16463,4.834836 -4.834836,4.834836 -2.670206,0 -4.834836,-2.16463 -4.834836,-4.834836 0,-2.670206 2.16463,-4.834836 4.834836,-4.834836 C -24.970459,10.59844 -22.805829,12.76307 -22.805829,15.433276 Z"
             transform="matrix(0.98965839,0,0,0.98965839,-0.28584898,1004.5218)" />
          <path
             transform="matrix(0.93795034,0,0,0.93795034,-1.7150939,1005.3198)"
             d="m -22.805829,15.433276 c 0,2.670206 -2.16463,4.834836 -4.834836,4.834836 -2.670206,0 -4.834836,-2.16463 -4.834836,-4.834836 0,-2.670206 2.16463,-4.834836 4.834836,-4.834836 C -24.970459,10.59844 -22.805829,12.76307 -22.805829,15.433276 Z"
             sodipodi:ry="4.834836"
             sodipodi:rx="4.834836"
             sodipodi:cy="15.433276"
             sodipodi:cx="-27.640665"
             id="path861"
             style="color:#000000;fill:url(#linearGradient4055);fill-opacity:1;fill-rule:nonzero;stroke:none;stroke-width:0.40000001;marker:none;visibility:visible;display:inline;overflow:visible;enable-background:accumulate"
             sodipodi:type="arc" />
          <g
             transform="translate(-4.0085527e-5,0)"
             id="g4061">
            <path
               inkscape:connector-curvature="0"
               style="color:#000000;fill:#ffffff;fill-opacity:0.3628692;fill-rule:nonzero;stroke:none;stroke-width:0.40000001;marker:none;visibility:visible;display:inline;overflow:visible;enable-background:accumulate"
               d="m -27.65625,10.59375 c -2.670206,0 -4.8125,2.173544 -4.8125,4.84375 0,0.146108 0.01856,0.294691 0.03125,0.4375 l 9.59375,0 c 0.01269,-0.142809 0.03125,-0.291392 0.03125,-0.4375 C -22.8125,12.767294 -24.986044,10.59375 -27.65625,10.59375 Z"
               id="path4020"
               transform="translate(0,1004.3622)" />
            <path
               style="color:#000000;fill:#000000;fill-opacity:0.1814346;fill-rule:nonzero;stroke:none;stroke-width:0.40000001;marker:none;visibility:visible;display:inline;overflow:visible;enable-background:accumulate"
               d="m -31.957912,1019.7662 c -0.0037,0.074 0,0.1492 0,0.2235 0,2.3877 1.915611,4.3313 4.303275,4.3313 2.387663,0 4.331218,-1.9436 4.331218,-4.3313 0,-0.074 0.0037,-0.1501 0,-0.2235 -0.101498,2.2976 -2.008588,4.1356 -4.331218,4.1356 C -29.977268,1023.9018 -31.856414,1022.0638 -31.957912,1019.7662 Z"
               id="path4027"
               inkscape:connector-curvature="0" />
            <path
               transform="matrix(0.51394423,0,0,0.51394423,-13.434905,1011.8636)"
               d="m -22.805829,15.433276 c 0,2.670206 -2.16463,4.834836 -4.834836,4.834836 -2.670206,0 -4.834836,-2.16463 -4.834836,-4.834836 0,-2.670206 2.16463,-4.834836 4.834836,-4.834836 C -24.970459,10.59844 -22.805829,12.76307 -22.805829,15.433276 Z"
               sodipodi:ry="4.834836"
               sodipodi:rx="4.834836"
               sodipodi:cy="15.433276"
               sodipodi:cx="-27.640665"
               id="path4034"
               style="color:#000000;fill:url(#linearGradient4047);fill-opacity:1;fill-rule:nonzero;stroke:none;stroke-width:0.40000001;marker:none;visibility:visible;display:inline;overflow:visible;enable-background:accumulate"
               sodipodi:type="arc" />
            <path
               inkscape:connector-curvature="0"
               style="color:#000000;fill:#000000;fill-opacity:0.21097047;fill-rule:nonzero;stroke:none;stroke-width:0.40000001;marker:none;visibility:visible;display:inline;overflow:visible;enable-background:accumulate"
               d="m -27.65625,12.9375 c -1.372337,0 -2.46875,1.127663 -2.46875,2.5 0,0.06466 0.0264,0.124085 0.03125,0.1875 0.09809,-1.282544 1.129821,-2.28125 2.4375,-2.28125 1.307679,0 2.370661,0.998706 2.46875,2.28125 0.0049,-0.06342 0.03125,-0.122842 0.03125,-0.1875 C -25.15625,14.065163 -26.283913,12.9375 -27.65625,12.9375 Z"
               id="path4036"
               transform="translate(0,1004.3622)" />
          </g>
        </g>
      </g>
      <path
         inkscape:connector-curvature="0"
         id="path4113"
         transform="translate(0,1004.3622)"
         d="m 17.46875,22.65625 c -0.222633,0 -0.410173,0.07205 -0.5625,0.21875 -0.199199,0.1904 -0.3125,0.4766 -0.3125,0.875 0,0.05036 0.02761,0.07819 0.03125,0.125 0.02464,-0.323484 0.107233,-0.583669 0.28125,-0.75 0.152327,-0.146467 0.339867,-0.21875 0.5625,-0.21875 0.225563,0 0.413101,0.07228 0.5625,0.21875 0.169543,0.166966 0.262041,0.424635 0.28125,0.75 0.0026,-0.04566 0,-0.07597 0,-0.125 0,-0.3984 -0.08791,-0.6846 -0.28125,-0.875 C 17.881851,22.7282 17.694313,22.65625 17.46875,22.65625 z m 2.625,0.40625 0,0.25 1.28125,2.25 0.65625,0 0,-0.25 -0.65625,0 L 20.09375,23.0625 z m -4.125,0.8125 c -0.0023,0.04404 -0.03125,0.07923 -0.03125,0.125 0,0.4482 0.110373,0.815417 0.3125,1.09375 0.158187,0.216733 0.358426,0.372083 0.625,0.46875 0.184551,0.0674 0.391623,0.09375 0.59375,0.09375 0.202127,0 0.377949,-0.02635 0.5625,-0.09375 0.266574,-0.09667 0.500993,-0.252017 0.65625,-0.46875 0.199198,-0.2754 0.28125,-0.642617 0.28125,-1.09375 0,-0.04467 0.0016,-0.08198 0,-0.125 -0.01565,0.388409 -0.10279,0.722022 -0.28125,0.96875 -0.155257,0.2168 -0.389676,0.37175 -0.65625,0.46875 -0.184551,0.068 -0.360373,0.09375 -0.5625,0.09375 -0.202127,0 -0.409199,-0.02675 -0.59375,-0.09375 C 16.608426,25.2158 16.408187,25.06055 16.25,24.84375 16.069451,24.59516 15.989611,24.259823 15.96875,23.875 z m 3.5,1.4375 0,0.25 0.625,0 0,-0.25 L 19.46875,25.3125 Z"
         style="font-size:4.39407444px;font-style:normal;font-variant:normal;font-weight:bold;font-stretch:condensed;line-height:125%;letter-spacing:0px;word-spacing:0px;fill:#000000;fill-opacity:0.49789046;stroke:none;font-family:Helvetica;-inkscape-font-specification:Helvetica" />
      <path
         inkscape:connector-curvature="0"
         id="path4106"
         d="m 17.46875,1026.5786 c -0.202127,0 -0.409199,0.026 -0.59375,0.094 -0.272433,0.1 -0.469743,0.2548 -0.625,0.4687 -0.199198,0.2753 -0.3125,0.6426 -0.3125,1.0938 0,0.4482 0.110373,0.8154 0.3125,1.0937 0.158187,0.2167 0.358426,0.3721 0.625,0.4688 0.184551,0.067 0.391623,0.094 0.59375,0.094 0.202127,0 0.377949,-0.026 0.5625,-0.094 0.266574,-0.097 0.500993,-0.2521 0.65625,-0.4688 0.199198,-0.2754 0.28125,-0.6426 0.28125,-1.0937 0,-0.4512 -0.08205,-0.8185 -0.28125,-1.0938 -0.155257,-0.2139 -0.386747,-0.3691 -0.65625,-0.4687 C 17.846699,1026.605 17.667948,1026.5786 17.46875,1026.5786 z m 2,0.094 0,3.125 0.625,0 0,-2.25 1.28125,2.25 0.65625,0 0,-3.125 -0.59375,0 -0.03125,2.1875 -1.25,-2.1875 L 19.46875,1026.6724 z m -2,0.4687 c 0.225563,0 0.413101,0.072 0.5625,0.2188 0.193339,0.1904 0.28125,0.4766 0.28125,0.875 0,0.3984 -0.08498,0.6846 -0.28125,0.875 -0.149398,0.1464 -0.339867,0.2187 -0.5625,0.2187 -0.225563,0 -0.410172,-0.072 -0.5625,-0.2187 -0.196269,-0.1904 -0.3125,-0.4766 -0.3125,-0.875 0,-0.3984 0.113301,-0.6846 0.3125,-0.875 C 17.058577,1027.2134 17.246117,1027.1411 17.46875,1027.1411 Z"
         style="font-size:4.39407444px;font-style:normal;font-variant:normal;font-weight:bold;font-stretch:condensed;line-height:125%;letter-spacing:0px;word-spacing:0px;fill:#ffffff;fill-opacity:1;stroke:none;font-family:Helvetica;-inkscape-font-specification:Helvetica" />
      <path
         inkscape:connector-curvature="0"
         id="path4118"
         d="m 17.46875,1026.5003 c -0.202127,0 -0.409199,0.026 -0.59375,0.094 -0.272433,0.1 -0.469743,0.2548 -0.625,0.4687 -0.10934,0.1511 -0.165702,0.3261 -0.21875,0.5313 0.05323,-0.1827 0.119151,-0.3311 0.21875,-0.4688 0.155257,-0.2139 0.352567,-0.3687 0.625,-0.4687 0.184551,-0.068 0.391623,-0.094 0.59375,-0.094 0.199198,0 0.377949,0.026 0.5625,0.094 0.269503,0.1 0.500993,0.2548 0.65625,0.4687 0.0996,0.1377 0.173337,0.2861 0.21875,0.4688 -0.04454,-0.2055 -0.109289,-0.38 -0.21875,-0.5313 -0.155257,-0.2139 -0.386747,-0.3691 -0.65625,-0.4687 C 17.846699,1026.5265 17.667948,1026.5003 17.46875,1026.5003 z m 2,0.094 0,0.062 0.6875,0 1.25,2.1875 0,-0.062 -1.25,-2.1875 L 19.46875,1026.5941 z m 1.96875,0 0,0.062 0.59375,0 0,-0.062 L 21.4375,1026.5941 z m -4.75,2.0625 c 0.05335,0.1697 0.108765,0.3308 0.21875,0.4375 0.152328,0.1467 0.336937,0.2187 0.5625,0.2187 0.222633,0 0.413102,-0.072 0.5625,-0.2187 0.110213,-0.1069 0.174063,-0.2673 0.21875,-0.4375 -0.04578,0.1451 -0.120615,0.2798 -0.21875,0.375 -0.149398,0.1464 -0.339867,0.2187 -0.5625,0.2187 -0.225563,0 -0.410172,-0.072 -0.5625,-0.2187 C 16.808115,1028.9364 16.741091,1028.8017 16.6875,1028.6566 Z"
         style="font-size:4.39407444px;font-style:normal;font-variant:normal;font-weight:bold;font-stretch:condensed;line-height:125%;letter-spacing:0px;word-spacing:0px;fill:#000000;fill-opacity:0.42616033;stroke:none;font-family:Helvetica;-inkscape-font-specification:Helvetica" />
    </g>
    <path
       inkscape:connector-curvature="0"
       style="fill:#000000;fill-opacity:1;stroke:none"
       d="m -2.6e-6,1049.3622 0,1.0625 c 0,1.0773 0.860223,1.9375 1.9375,1.9375 l 44.1250006,0 c 1.077277,0 1.937505,-0.8602 1.937505,-1.9375 l 0,-1.0625 c 0,1.0773 -0.860228,1.9375 -1.937505,1.9375 l -44.1250006,0 C 0.8602204,1051.2997 -2.6e-6,1050.4395 -2.6e-6,1049.3622 Z"
       id="rect846" />
    <path
       inkscape:connector-curvature="0"
       style="fill:#ffffff;fill-opacity:0.5372549;stroke:none"
       d="m 2.5312474,1005.0185 c -0.917088,0 -1.671147,0.6395 -1.84375,1.5 0.335612,-0.2799 0.774512,-0.4375 1.25,-0.4375 l 44.1250006,0 c 0.475488,0 0.914388,0.1576 1.250005,0.4375 -0.172608,-0.8605 -0.926667,-1.5 -1.843755,-1.5 L 2.5312474,1005.0185 Z"
       id="path7515" />
    <path
       inkscape:connector-curvature="0"
       style="fill:#000000;fill-opacity:0.39215686;stroke:none"
       d="m 1.9374974,1004.3622 c -1.077277,0 -1.9375,0.8602 -1.9375,1.9375 l 0,43.0625 c 0,0.7934 0.480024,1.449 1.15625,1.75 -0.309342,-0.3333 -0.5,-0.7824 -0.5,-1.2812 l 0,-42.9375 c 0,-1.0482 0.826899,-1.875 1.875,-1.875 l 42.9375006,0 c 1.048101,0 1.875005,0.8268 1.875005,1.875 l 0,42.9375 c 0,0.4988 -0.190663,0.9479 -0.500005,1.2812 0.676225,-0.301 1.156255,-0.9566 1.156255,-1.75 l 0,-43.0625 c 0,-1.0773 -0.860228,-1.9375 -1.937505,-1.9375 L 1.9374974,1004.3622 Z"
       id="rect4280-0" />
  </g>
</svg>
