<?xml version="1.0" encoding="UTF-8" standalone="no"?>
<!-- Created with Inkscape (http://www.inkscape.org/) -->

<svg
   xmlns:dc="http://purl.org/dc/elements/1.1/"
   xmlns:cc="http://creativecommons.org/ns#"
   xmlns:rdf="http://www.w3.org/1999/02/22-rdf-syntax-ns#"
   xmlns:svg="http://www.w3.org/2000/svg"
   xmlns="http://www.w3.org/2000/svg"
   xmlns:xlink="http://www.w3.org/1999/xlink"
   xmlns:sodipodi="http://sodipodi.sourceforge.net/DTD/sodipodi-0.dtd"
   xmlns:inkscape="http://www.inkscape.org/namespaces/inkscape"
   width="48"
   height="48"
   id="svg2"
   version="1.1"
   inkscape:version="0.48+devel r12149"
   sodipodi:docname="xnoise.svg">
  <defs
     id="defs4">
    <linearGradient
       id="linearGradient855">
      <stop
         id="stop857"
         offset="0"
         style="stop-color:#c07af8;stop-opacity:1" />
      <stop
         id="stop859"
         offset="1"
         style="stop-color:#ec2954;stop-opacity:1" />
    </linearGradient>
    <linearGradient
       inkscape:collect="always"
       xlink:href="#linearGradient855"
       id="linearGradient3801"
       x1="23.204165"
       y1="1053.158"
       x2="23.204165"
       y2="1004.8474"
       gradientUnits="userSpaceOnUse"
       gradientTransform="translate(0,-2056.7244)" />
  </defs>
  <sodipodi:namedview
     id="base"
     pagecolor="#ffffff"
     bordercolor="#666666"
     borderopacity="1.0"
     inkscape:pageopacity="0.0"
     inkscape:pageshadow="2"
     inkscape:zoom="5.6568545"
     inkscape:cx="9.6371117"
     inkscape:cy="23.99528"
     inkscape:document-units="px"
     inkscape:current-layer="layer1"
     showgrid="false"
     inkscape:window-width="1366"
     inkscape:window-height="716"
     inkscape:window-x="0"
     inkscape:window-y="28"
     inkscape:window-maximized="1">
    <inkscape:grid
       type="xygrid"
       id="grid3850" />
  </sodipodi:namedview>
  <metadata
     id="metadata7">
    <rdf:RDF>
      <cc:Work
         rdf:about="">
        <dc:format>image/svg+xml</dc:format>
        <dc:type
           rdf:resource="http://purl.org/dc/dcmitype/StillImage" />
        <dc:title />
      </cc:Work>
    </rdf:RDF>
  </metadata>
  <g
     inkscape:label="Capa 1"
     inkscape:groupmode="layer"
     id="layer1"
     transform="translate(0,-1004.3622)">
    <rect
       style="fill:url(#linearGradient3801);fill-opacity:1;stroke:none"
       id="rect2991"
       width="48"
       height="48"
       x="0"
       y="-1052.3622"
       ry="1.9445436"
       transform="scale(1,-1)" />
    <path
       inkscape:connector-curvature="0"
       style="fill:#000000;fill-opacity:1;stroke:none"
       d="m 1.5e-6,1049.3622 0,1.0625 c 0,1.0773 0.86022,1.9375 1.9375,1.9375 l 44.1249975,0 c 1.07728,0 1.9375,-0.8602 1.9375,-1.9375 l 0,-1.0625 c 0,1.0773 -0.86022,1.9375 -1.9375,1.9375 l -44.1249975,0 C 0.8602215,1051.2997 1.5e-6,1050.4395 1.5e-6,1049.3622 Z"
       id="rect846" />
    <path
       inkscape:connector-curvature="0"
       style="fill:#ffffff;fill-opacity:0.5372549;stroke:none"
       d="m 2.5312515,1005.0185 c -0.91709,0 -1.67115,0.6395 -1.84375,1.5 0.33561,-0.2799 0.77451,-0.4375 1.25,-0.4375 l 44.1249975,0 c 0.475489,0 0.914389,0.1576 1.25,0.4375 -0.172601,-0.8605 -0.92666,-1.5 -1.84375,-1.5 L 2.5312515,1005.0185 Z"
       id="path7515" />
    <path
       inkscape:connector-curvature="0"
       style="fill:#000000;fill-opacity:0.39215686;stroke:none"
       d="m 1.9375015,1004.3622 c -1.07728,0 -1.9375,0.8602 -1.9375,1.9375 l 0,43.0625 c 0,0.7934 0.48002,1.449 1.15625,1.75 -0.30934,-0.3333 -0.5,-0.7824 -0.5,-1.2812 l 0,-42.9375 c 0,-1.0482 0.8269,-1.875 1.875,-1.875 l 42.9374975,0 c 1.0481,0 1.875,0.8268 1.875,1.875 l 0,42.9375 c 0,0.4988 -0.19066,0.9479 -0.5,1.2812 0.67623,-0.301 1.15625,-0.9566 1.15625,-1.75 l 0,-43.0625 c 0,-1.0773 -0.86022,-1.9375 -1.9375,-1.9375 L 1.9375015,1004.3622 Z"
       id="rect4280-5" />
    <g
       id="g14036">
      <path
         sodipodi:nodetypes="csscscscssscsssccssscscscc"
         inkscape:connector-curvature="0"
         id="path861"
         d="m 13.842164,1041.7241 c 1.92111,-1.1262 2.784429,-2.0407 6.604858,-7.0001 3.169347,-4.1143 4.310184,-3.9002 8.239712,1.5426 3.350761,4.6417 5.282902,6.049 9.211357,6.7097 3.827418,0.6439 6.091162,-0.1908 6.698131,-2.4701 0.765641,-2.8743 -1.240915,-4.947 -4.803575,-4.9611 -2.28154,-0.014 -2.509567,-0.1841 -5.36378,-4.1025 l -2.432207,-3.3391 1.654479,-2.3212 c 3.144039,-4.411 4.296376,-5.3407 6.619794,-5.3407 2.403008,0 4.150994,-1.2643 4.618704,-3.3407 0.231143,-1.0261 0.01983,-1.5486 -1.064046,-2.6327 -1.210005,-1.2105 -1.654387,-1.3526 -4.219312,-1.3526 -4.751963,0 -7.082575,1.5474 -11.719124,7.7791 -3.389894,4.5563 -4.854133,4.4056 -8.558549,-0.881 -3.544772,-5.0589 -5.795588,-6.5412 -10.3217229,-6.7979 -3.03982,-0.172 -3.617245,-0.072 -4.7224458,0.8011 -0.9201103,0.7281 -1.2591621,1.4056 -1.2591621,2.5152 0,2.3845 1.2481723,3.5257 4.3108719,3.9414 3.0130319,0.4088 3.6633629,0.8958 6.4921179,4.8599 l 2.044331,2.8648 -2.545917,3.4429 c -2.554183,3.4534 -2.799467,3.6114 -6.3606379,4.0918 -2.170216,0.2924 -3.9407659,1.847 -3.9407659,3.4597 0,1.4448 1.1193875,3.1409 2.4528479,3.7169 C 7.1470751,1043.6305 11.68644,1042.9872 13.842164,1041.7241 Z"
         style="fill:#ffffff" />
      <path
         inkscape:connector-curvature="0"
         id="path13226"
         d="m 7.1527151,1012.3621 c -1.496631,0 -2.025804,0.2297 -2.8547046,0.8846 -0.9201102,0.7281 -1.2866274,1.4234 -1.2866274,2.533 0,0.156 0.029354,0.2967 0.040207,0.4423 0.081083,-0.8723 0.4473108,-1.4987 1.2464203,-2.131 1.1052006,-0.8731 1.6644116,-0.9762 4.7042316,-0.8042 4.526135,0.2567 6.788455,1.7763 10.333227,6.8352 3.704416,5.2867 5.17422,5.4008 8.564114,0.8444 4.636548,-6.2316 6.948305,-7.76 11.700268,-7.76 2.564925,0 3.011741,0.1566 4.221746,1.3671 0.667,0.6671 0.979233,1.1182 1.085592,1.6082 0.168004,-0.9149 -0.0646,-1.4716 -1.085592,-2.4928 -1.210005,-1.2105 -1.656821,-1.3268 -4.221746,-1.3268 -4.751963,0 -7.06372,1.5283 -11.700268,7.7599 -3.389894,4.5564 -4.859698,4.4021 -8.564114,-0.8845 -3.544772,-5.0589 -5.807092,-6.5383 -10.333227,-6.795 C 8.2422871,1012.3994 7.6515921,1012.3633 7.1527151,1012.3621 z m 25.1696499,15.3993 -0.321657,0.4423 2.412426,3.3372 c 2.854213,3.9184 3.106212,4.0869 5.387753,4.1011 2.865835,0.013 4.686251,1.3562 4.905267,3.3774 0.268559,-2.4895 -1.651509,-4.2088 -4.905267,-4.2217 -2.281541,-0.014 -2.53354,-0.1827 -5.387753,-4.1011 L 32.322365,1027.7614 z m -16.766364,0.08 -2.211391,3.0156 c -2.554184,3.4534 -2.831759,3.6206 -6.3929299,4.1011 -2.1702163,0.2923 -3.940297,1.8451 -3.940297,3.4578 0,0.1425 0.059454,0.2959 0.080414,0.4422 0.2859384,-1.4449 1.8898665,-2.7904 3.8598828,-3.0557 3.5611711,-0.4805 3.8387461,-0.6075 6.3929301,-4.0609 l 2.533047,-3.4572 L 15.556001,1027.8418 Z"
         style="fill:#000000;fill-opacity:0.2" />
      <path
         inkscape:connector-curvature="0"
         id="path14031"
         d="m 44.907189,1017.0864 c -0.480666,2.0533 -2.235828,3.2969 -4.623817,3.2969 -2.323418,0 -3.490134,0.9367 -6.634173,5.3477 l -1.648491,2.332 0.442278,0.603 1.206213,-1.7288 c 3.144039,-4.411 4.310755,-5.3476 6.634173,-5.3476 2.403008,0 4.156108,-1.2608 4.623817,-3.3372 C 45.010907,1017.7919 45.020506,1017.4403 44.907189,1017.0864 z m -41.8153917,0.04 c -0.024721,0.1788 -0.080414,0.3577 -0.080414,0.5629 0,2.3846 1.2796681,3.5246 4.342368,3.9403 3.0130317,0.4088 3.6445887,0.9009 6.4733437,4.865 l 1.608284,2.2516 0.442278,-0.603 -2.050562,-2.8548 c -2.828755,-3.9641 -3.460312,-4.4562 -6.4733437,-4.865 C 4.5835562,1020.0475 3.3121148,1019.0728 3.0917973,1017.1266 z m 20.7468677,14.7158 c -1.013444,0.068 -1.990808,1.0146 -3.377397,2.8145 -3.820429,4.9595 -4.713063,5.8699 -6.634173,6.9961 -2.155724,1.2631 -6.6941269,1.9272 -8.3630779,1.2062 -1.1553951,-0.4991 -2.1271712,-1.8473 -2.3722198,-3.1362 -0.052653,0.1974 -0.080414,0.4015 -0.080414,0.6031 0,1.4449 1.1191731,3.1633 2.452634,3.7393 1.668951,0.721 6.2073537,0.057 8.3630777,-1.2062 1.92111,-1.1262 2.813744,-2.0366 6.634173,-6.996 3.169347,-4.1143 4.312929,-3.8748 8.242457,1.568 3.350761,4.6416 5.278973,6.0137 9.207428,6.6744 3.827418,0.6439 6.06741,-0.1734 6.674379,-2.4526 0.174892,-0.6566 0.180323,-1.2514 0.08042,-1.8094 -0.02684,0.1979 -0.02537,0.3965 -0.08042,0.6032 -0.606969,2.2792 -2.846961,3.0965 -6.674379,2.4525 -3.928455,-0.6606 -5.856667,-2.0327 -9.207428,-6.6743 C 26.493366,1033.1634 25.141665,1031.7555 23.838665,1031.8424 Z"
         style="fill:#ffffff;fill-opacity:0.23529412" />
    </g>
  </g>
</svg>
