<?xml version="1.0" encoding="UTF-8" standalone="no"?>
<!-- Created with Inkscape (http://www.inkscape.org/) -->

<svg
   xmlns:dc="http://purl.org/dc/elements/1.1/"
   xmlns:cc="http://creativecommons.org/ns#"
   xmlns:rdf="http://www.w3.org/1999/02/22-rdf-syntax-ns#"
   xmlns:svg="http://www.w3.org/2000/svg"
   xmlns="http://www.w3.org/2000/svg"
   xmlns:sodipodi="http://sodipodi.sourceforge.net/DTD/sodipodi-0.dtd"
   xmlns:inkscape="http://www.inkscape.org/namespaces/inkscape"
   width="48"
   height="48"
   id="svg3049"
   version="1.1"
   inkscape:version="0.48+devel r12012"
   sodipodi:docname="document-preview-archive.svg">
  <defs
     id="defs3051" />
  <sodipodi:namedview
     id="base"
     pagecolor="#ffffff"
     bordercolor="#666666"
     borderopacity="1.0"
     inkscape:pageopacity="0.0"
     inkscape:pageshadow="2"
     inkscape:zoom="4.62529"
     inkscape:cx="-61.916469"
     inkscape:cy="47.2206"
     inkscape:document-units="px"
     inkscape:current-layer="layer1"
     showgrid="false"
     fit-margin-top="0"
     fit-margin-left="0"
     fit-margin-right="0"
     fit-margin-bottom="0"
     inkscape:window-width="1366"
     inkscape:window-height="718"
     inkscape:window-x="0"
     inkscape:window-y="28"
     inkscape:window-maximized="1" />
  <metadata
     id="metadata3054">
    <rdf:RDF>
      <cc:Work
         rdf:about="">
        <dc:format>image/svg+xml</dc:format>
        <dc:type
           rdf:resource="http://purl.org/dc/dcmitype/StillImage" />
        <dc:title />
      </cc:Work>
    </rdf:RDF>
  </metadata>
  <g
     inkscape:label="Capa 1"
     inkscape:groupmode="layer"
     id="layer1"
     transform="translate(-421.71429,-499.79074)">
    <rect
       style="color:#000000;fill:#000000;fill-opacity:0.5372549;fill-rule:nonzero;stroke:none;stroke-width:0.86900002;marker:none;visibility:visible;display:inline;overflow:visible;enable-background:accumulate"
       id="rect834"
       width="35"
       height="35"
       x="428.21429"
       y="506.29074"
       ry="1.7647058" />
    <rect
       ry="1.6953324"
       y="506.9787"
       x="428.90225"
       height="33.624096"
       width="33.624096"
       id="rect836"
       style="color:#000000;fill:#ffffff;fill-opacity:1;fill-rule:nonzero;stroke:none;stroke-width:0.86900002;marker:none;visibility:visible;display:inline;overflow:visible;enable-background:accumulate" />
    <path
       sodipodi:type="star"
       style="color:#000000;fill:#1a1a1a;fill-opacity:1;fill-rule:nonzero;stroke:none;stroke-width:0.86900002;marker:none;visibility:visible;display:inline;overflow:visible;enable-background:accumulate"
       id="path838"
       sodipodi:sides="3"
       sodipodi:cx="13.404565"
       sodipodi:cy="13.08327"
       sodipodi:r1="1.7430816"
       sodipodi:r2="0.87154084"
       sodipodi:arg1="1.5707963"
       sodipodi:arg2="2.6179939"
       inkscape:flatsided="false"
       inkscape:rounded="0"
       inkscape:randomized="0"
       d="m 13.404565,14.826352 -0.754777,-1.307312 -0.754776,-1.307311 1.509553,0 1.509553,0 L 14.159341,13.519041 Z"
       transform="translate(418.47125,497.19631)"
       inkscape:transform-center-y="0.43577037" />
    <path
       inkscape:transform-center-y="-0.43577124"
       transform="matrix(1,0,0,-1,420.66636,524.23439)"
       d="m 13.404565,14.826352 -0.754777,-1.307312 -0.754776,-1.307311 1.509553,0 1.509553,0 L 14.159341,13.519041 Z"
       inkscape:randomized="0"
       inkscape:rounded="0"
       inkscape:flatsided="false"
       sodipodi:arg2="2.6179939"
       sodipodi:arg1="1.5707963"
       sodipodi:r2="0.87154084"
       sodipodi:r1="1.7430816"
       sodipodi:cy="13.08327"
       sodipodi:cx="13.404565"
       sodipodi:sides="3"
       id="path840"
       style="color:#000000;fill:#1a1a1a;fill-opacity:1;fill-rule:nonzero;stroke:none;stroke-width:0.86900002;marker:none;visibility:visible;display:inline;overflow:visible;enable-background:accumulate"
       sodipodi:type="star" />
    <path
       inkscape:transform-center-y="0.43577037"
       transform="translate(422.86147,497.19631)"
       d="m 13.404565,14.826352 -0.754777,-1.307312 -0.754776,-1.307311 1.509553,0 1.509553,0 L 14.159341,13.519041 Z"
       inkscape:randomized="0"
       inkscape:rounded="0"
       inkscape:flatsided="false"
       sodipodi:arg2="2.6179939"
       sodipodi:arg1="1.5707963"
       sodipodi:r2="0.87154084"
       sodipodi:r1="1.7430816"
       sodipodi:cy="13.08327"
       sodipodi:cx="13.404565"
       sodipodi:sides="3"
       id="path842"
       style="color:#000000;fill:#1a1a1a;fill-opacity:1;fill-rule:nonzero;stroke:none;stroke-width:0.86900002;marker:none;visibility:visible;display:inline;overflow:visible;enable-background:accumulate"
       sodipodi:type="star" />
    <path
       sodipodi:type="star"
       style="color:#000000;fill:#1a1a1a;fill-opacity:1;fill-rule:nonzero;stroke:none;stroke-width:0.86900002;marker:none;visibility:visible;display:inline;overflow:visible;enable-background:accumulate"
       id="path844"
       sodipodi:sides="3"
       sodipodi:cx="13.404565"
       sodipodi:cy="13.08327"
       sodipodi:r1="1.7430816"
       sodipodi:r2="0.87154084"
       sodipodi:arg1="1.5707963"
       sodipodi:arg2="2.6179939"
       inkscape:flatsided="false"
       inkscape:rounded="0"
       inkscape:randomized="0"
       d="m 13.404565,14.826352 -0.754777,-1.307312 -0.754776,-1.307311 1.509553,0 1.509553,0 L 14.159341,13.519041 Z"
       transform="matrix(1,0,0,-1,425.05658,524.23439)"
       inkscape:transform-center-y="-0.43577124" />
    <path
       inkscape:transform-center-y="0.43577037"
       transform="translate(427.25168,497.19631)"
       d="m 13.404565,14.826352 -0.754777,-1.307312 -0.754776,-1.307311 1.509553,0 1.509553,0 L 14.159341,13.519041 Z"
       inkscape:randomized="0"
       inkscape:rounded="0"
       inkscape:flatsided="false"
       sodipodi:arg2="2.6179939"
       sodipodi:arg1="1.5707963"
       sodipodi:r2="0.87154084"
       sodipodi:r1="1.7430816"
       sodipodi:cy="13.08327"
       sodipodi:cx="13.404565"
       sodipodi:sides="3"
       id="path846"
       style="color:#000000;fill:#1a1a1a;fill-opacity:1;fill-rule:nonzero;stroke:none;stroke-width:0.86900002;marker:none;visibility:visible;display:inline;overflow:visible;enable-background:accumulate"
       sodipodi:type="star" />
    <path
       sodipodi:type="star"
       style="color:#000000;fill:#1a1a1a;fill-opacity:1;fill-rule:nonzero;stroke:none;stroke-width:0.86900002;marker:none;visibility:visible;display:inline;overflow:visible;enable-background:accumulate"
       id="path848"
       sodipodi:sides="3"
       sodipodi:cx="13.404565"
       sodipodi:cy="13.08327"
       sodipodi:r1="1.7430816"
       sodipodi:r2="0.87154084"
       sodipodi:arg1="1.5707963"
       sodipodi:arg2="2.6179939"
       inkscape:flatsided="false"
       inkscape:rounded="0"
       inkscape:randomized="0"
       d="m 13.404565,14.826352 -0.754777,-1.307312 -0.754776,-1.307311 1.509553,0 1.509553,0 L 14.159341,13.519041 Z"
       transform="matrix(1,0,0,-1,429.44679,524.23439)"
       inkscape:transform-center-y="-0.43577124" />
    <path
       sodipodi:type="star"
       style="color:#000000;fill:#1a1a1a;fill-opacity:1;fill-rule:nonzero;stroke:none;stroke-width:0.86900002;marker:none;visibility:visible;display:inline;overflow:visible;enable-background:accumulate"
       id="path850"
       sodipodi:sides="3"
       sodipodi:cx="13.404565"
       sodipodi:cy="13.08327"
       sodipodi:r1="1.7430816"
       sodipodi:r2="0.87154084"
       sodipodi:arg1="1.5707963"
       sodipodi:arg2="2.6179939"
       inkscape:flatsided="false"
       inkscape:rounded="0"
       inkscape:randomized="0"
       d="m 13.404565,14.826352 -0.754777,-1.307312 -0.754776,-1.307311 1.509553,0 1.509553,0 L 14.159341,13.519041 Z"
       transform="translate(431.6419,497.19631)"
       inkscape:transform-center-y="0.43577037" />
    <path
       inkscape:transform-center-y="-0.43577124"
       transform="matrix(1,0,0,-1,433.83701,524.23439)"
       d="m 13.404565,14.826352 -0.754777,-1.307312 -0.754776,-1.307311 1.509553,0 1.509553,0 L 14.159341,13.519041 Z"
       inkscape:randomized="0"
       inkscape:rounded="0"
       inkscape:flatsided="false"
       sodipodi:arg2="2.6179939"
       sodipodi:arg1="1.5707963"
       sodipodi:r2="0.87154084"
       sodipodi:r1="1.7430816"
       sodipodi:cy="13.08327"
       sodipodi:cx="13.404565"
       sodipodi:sides="3"
       id="path852"
       style="color:#000000;fill:#1a1a1a;fill-opacity:1;fill-rule:nonzero;stroke:none;stroke-width:0.86900002;marker:none;visibility:visible;display:inline;overflow:visible;enable-background:accumulate"
       sodipodi:type="star" />
    <path
       style="color:#000000;fill:#1a1a1a;fill-opacity:1;fill-rule:nonzero;stroke:none;stroke-width:0.86900002;marker:none;visibility:visible;display:inline;overflow:visible;enable-background:accumulate"
       d="m 447.92713,508.88449 0,4.84375 1.1875,0 0,4 3.03125,0 0,-4 1.1875,0 0,-4.84375 L 447.92713,508.88449 z m 1.78125,6.21875 1.84375,0 0,1.9375 -1.84375,0 L 449.70838,515.10324 Z"
       id="rect854"
       inkscape:connector-curvature="0" />
    <path
       style="color:#000000;fill:#000000;fill-opacity:0.75294118;fill-rule:nonzero;stroke:none;stroke-width:0.86900002;marker:none;visibility:visible;display:inline;overflow:visible;enable-background:accumulate"
       d="m 428.90179,537.97824 0,0.9375 c 0,0.93921 0.74829,1.6875 1.6875,1.6875 l 30.25,0 c 0.93921,0 1.6875,-0.74829 1.6875,-1.6875 l 0,-0.9375 c 0,0.93921 -0.74829,1.71875 -1.6875,1.71875 l -30.25,0 C 429.65008,539.69699 428.90179,538.91745 428.90179,537.97824 Z"
       id="rect862"
       inkscape:connector-curvature="0" />
    <path
       style="fill:#1a1a1a;fill-opacity:0.5372549;stroke:none"
       d="m 443.28297,522.16054 c -0.69097,-0.3755 -1.48988,-0.59618 -2.33152,-0.59618 -2.69324,0 -4.87084,2.19714 -4.87084,4.89038 0,1.46263 0.64323,2.76067 1.66032,3.65456 l -0.95673,1.65725 c -0.33408,-0.13061 -0.73085,0 -0.91594,0.32237 l -2.33476,4.0441 c -0.20422,0.35365 -0.0839,0.80286 0.26987,1.00703 l 1.45946,0.84282 c 0.35374,0.20416 0.80293,0.0837 1.00717,-0.26993 l 2.33476,-4.04406 c 0.1872,-0.32412 0.10937,-0.73197 -0.17866,-0.95433 l 0.95673,-1.65724 c 0.49246,0.16778 1.01444,0.27487 1.56432,0.27487 2.69325,0 4.88605,-2.18854 4.88605,-4.88178 C 445.8332,524.59876 444.80311,522.98635 443.28297,522.16054 z m -0.81221,1.4769 c 0.99489,0.54062 1.67931,1.6023 1.67931,2.81429 0,1.76259 -1.43269,3.18218 -3.19535,3.18218 -1.76267,0 -3.19098,-1.41765 -3.19098,-3.18024 0,-1.76262 1.41748,-3.19108 3.18015,-3.19108 C 441.49472,523.26259 442.01853,523.39191 442.47076,523.63744 Z"
       id="rect3910-3"
       inkscape:connector-curvature="0" />
  </g>
</svg>
