<?xml version="1.0" encoding="UTF-8" standalone="no"?>
<!-- Created with Inkscape (http://www.inkscape.org/) -->

<svg
   xmlns:dc="http://purl.org/dc/elements/1.1/"
   xmlns:cc="http://creativecommons.org/ns#"
   xmlns:rdf="http://www.w3.org/1999/02/22-rdf-syntax-ns#"
   xmlns:svg="http://www.w3.org/2000/svg"
   xmlns="http://www.w3.org/2000/svg"
   xmlns:sodipodi="http://sodipodi.sourceforge.net/DTD/sodipodi-0.dtd"
   xmlns:inkscape="http://www.inkscape.org/namespaces/inkscape"
   width="48"
   height="48"
   id="svg1611"
   version="1.1"
   inkscape:version="0.48+devel r12012"
   sodipodi:docname="document-revert.svg">
  <defs
     id="defs1613" />
  <sodipodi:namedview
     id="base"
     pagecolor="#ffffff"
     bordercolor="#666666"
     borderopacity="1.0"
     inkscape:pageopacity="0.0"
     inkscape:pageshadow="2"
     inkscape:zoom="5.6"
     inkscape:cx="-57.410869"
     inkscape:cy="24.515686"
     inkscape:document-units="px"
     inkscape:current-layer="layer1"
     showgrid="false"
     inkscape:window-width="1366"
     inkscape:window-height="718"
     inkscape:window-x="0"
     inkscape:window-y="28"
     inkscape:window-maximized="1" />
  <metadata
     id="metadata1616">
    <rdf:RDF>
      <cc:Work
         rdf:about="">
        <dc:format>image/svg+xml</dc:format>
        <dc:type
           rdf:resource="http://purl.org/dc/dcmitype/StillImage" />
        <dc:title />
      </cc:Work>
    </rdf:RDF>
  </metadata>
  <g
     inkscape:label="Capa 1"
     inkscape:groupmode="layer"
     id="layer1"
     transform="translate(0,-1004.3622)">
    <path
       style="color:#000000;fill:#000000;fill-opacity:0.5372549;fill-rule:nonzero;stroke:none;stroke-width:0.86900002;marker:none;visibility:visible;display:inline;overflow:visible;enable-background:accumulate"
       d="m 9,1010.8622 0,11.2813 0,20.0312 0,1.6875 0,2 30,0 0,-2 0,-1.6875 0,-20.0312 0,-11.2813 -12.53125,0 -4.9375,0 L 9,1010.8622 Z"
       id="path838"
       inkscape:connector-curvature="0" />
    <path
       style="color:#000000;fill:#ffffff;fill-opacity:1;fill-rule:nonzero;stroke:none;stroke-width:0.86900002;marker:none;visibility:visible;display:inline;overflow:visible;enable-background:accumulate"
       d="m 9.96875,1012.041 0,11.1672 0,21.4752 28.0625,0 0,-21.4752 0,-11.1672 -11.71875,0 -4.625,0 L 9.96875,1012.041 Z"
       id="rect833"
       inkscape:connector-curvature="0" />
    <path
       style="color:#000000;fill:#000000;fill-opacity:0.5372549;fill-rule:nonzero;stroke:none;stroke-width:0.86900002;marker:none;visibility:visible;display:inline;overflow:visible;enable-background:accumulate"
       d="m 9,1044.7372 0,1.125 30,0 0,-1.125 L 9,1044.7372 Z"
       id="path874"
       inkscape:connector-curvature="0" />
    <path
       style="color:#000000;fill:#1a1a1a;fill-opacity:0.5372549;fill-rule:nonzero;stroke:none;stroke-width:0.86900002;marker:none;visibility:visible;display:inline;overflow:visible;enable-background:accumulate"
       d="m 28.815165,1025.7348 -5.275633,3.0471 -5.275634,3.032 5.275634,3.0471 5.275633,3.0471 0,-3.6535 c 2.936969,1.1693 5.017915,4.0144 5.017915,7.3678 0,0.3589 -0.02975,0.7146 -0.07581,1.061 1.400259,-1.3282 2.27398,-3.2084 2.27398,-5.2907 0,-4.0002 -3.225642,-7.2507 -7.216097,-7.2918 L 28.815165,1025.7348 Z"
       id="path877"
       inkscape:connector-curvature="0" />
  </g>
</svg>
