<?xml version="1.0" encoding="UTF-8" standalone="no"?>
<!-- Created with Inkscape (http://www.inkscape.org/) -->

<svg
   xmlns:dc="http://purl.org/dc/elements/1.1/"
   xmlns:cc="http://creativecommons.org/ns#"
   xmlns:rdf="http://www.w3.org/1999/02/22-rdf-syntax-ns#"
   xmlns:svg="http://www.w3.org/2000/svg"
   xmlns="http://www.w3.org/2000/svg"
   xmlns:sodipodi="http://sodipodi.sourceforge.net/DTD/sodipodi-0.dtd"
   xmlns:inkscape="http://www.inkscape.org/namespaces/inkscape"
   width="48"
   height="48"
   id="svg11925"
   version="1.1"
   inkscape:version="0.48+devel r12012"
   sodipodi:docname="document-save-as.svg">
  <defs
     id="defs11927" />
  <sodipodi:namedview
     id="base"
     pagecolor="#ffffff"
     bordercolor="#666666"
     borderopacity="1.0"
     inkscape:pageopacity="0.0"
     inkscape:pageshadow="2"
     inkscape:zoom="2.0267653"
     inkscape:cx="-205.16041"
     inkscape:cy="-42.064987"
     inkscape:document-units="px"
     inkscape:current-layer="layer1"
     showgrid="true"
     fit-margin-top="0"
     fit-margin-left="0"
     fit-margin-right="0"
     fit-margin-bottom="0"
     inkscape:window-width="1366"
     inkscape:window-height="718"
     inkscape:window-x="0"
     inkscape:window-y="28"
     inkscape:window-maximized="1" />
  <metadata
     id="metadata11930">
    <rdf:RDF>
      <cc:Work
         rdf:about="">
        <dc:format>image/svg+xml</dc:format>
        <dc:type
           rdf:resource="http://purl.org/dc/dcmitype/StillImage" />
        <dc:title />
      </cc:Work>
    </rdf:RDF>
  </metadata>
  <g
     inkscape:label="Capa 1"
     inkscape:groupmode="layer"
     id="layer1"
     transform="translate(-387.42856,-548.36218)">
    <g
       id="layer1-0"
       inkscape:label="Capa 1">
      <path
         sodipodi:nodetypes="ssssssccs"
         inkscape:connector-curvature="0"
         id="rect870"
         d="m 395.24026,554.86218 c -0.73898,0 -1.3117,0.57272 -1.3117,1.3117 l 0,32.3766 c 0,0.73898 0.57272,1.3117 1.3117,1.3117 l 32.3766,0 c 0.73898,0 1.3117,-0.57272 1.3117,-1.3117 l 0,-31.23882 L 426.45675,554.86218 Z"
         style="color:#000000;fill:#000000;fill-opacity:1;fill-rule:nonzero;stroke:none;stroke-width:0.79262596;marker:none;visibility:visible;display:inline;overflow:visible;enable-background:accumulate" />
      <path
         inkscape:connector-curvature="0"
         id="rect827"
         d="m 395.70474,555.63984 c -0.58219,0.1185 -1.00228,0.63465 -1.00228,1.25286 l 0,30.94644 c 0,0.70654 0.54637,1.25291 1.25291,1.25291 l 30.94644,0 c 0.70655,0 1.25285,-0.54637 1.25285,-1.25291 l 0,-29.94409 -2.2552,-2.25521 -29.94409,0 C 395.86704,555.63984 395.78796,555.6229 395.70474,555.63984 Z"
         style="color:#000000;fill:#49759b;fill-opacity:1;fill-rule:nonzero;stroke:none;stroke-width:0.79262596;marker:none;visibility:visible;display:inline;overflow:visible;enable-background:accumulate" />
      <rect
         ry="0.45323399"
         y="555.63232"
         x="400.9108"
         height="11.899203"
         width="21.035448"
         id="rect865"
         style="color:#000000;fill:#000000;fill-opacity:0.69620254;fill-rule:nonzero;stroke:none;stroke-width:0.79262596;marker:none;visibility:visible;display:inline;overflow:visible;enable-background:accumulate" />
      <rect
         style="color:#000000;fill:#333333;fill-opacity:1;fill-rule:nonzero;stroke:none;stroke-width:0.79262596;marker:none;visibility:visible;display:inline;overflow:visible;enable-background:accumulate"
         id="rect840"
         width="19.780537"
         height="11.32227"
         x="401.5383"
         y="555.63232"
         ry="0.43125895" />
      <path
         inkscape:connector-curvature="0"
         id="rect852"
         d="m 401.54282,566.02679 0,0.15997 0,0.35191 c 0,0.23893 0.21085,0.41591 0.4479,0.41591 l 18.87568,0 c 0.23706,0 0.4479,-0.17698 0.4479,-0.41591 l 0,-0.35191 0,-0.15997 c 0,0.23893 -0.21084,0.4479 -0.4479,0.4479 l -18.87568,0 C 401.75367,566.47469 401.54282,566.26572 401.54282,566.02679 Z"
         style="color:#000000;fill:#ffffff;fill-opacity:0.71729958;fill-rule:nonzero;stroke:none;stroke-width:0.79262596;marker:none;visibility:visible;display:inline;overflow:visible;enable-background:accumulate" />
      <path
         sodipodi:nodetypes="sscscscscscscssc"
         inkscape:connector-curvature="0"
         id="rect860"
         d="m 401.97644,555.64118 c -0.23706,0 -0.4422,0.1789 -0.4422,0.41783 l 0,4.28965 c 0,-0.23892 0.20514,-0.44568 0.4422,-0.44568 l 5.16826,0 0,-3.89969 C 407.1447,555.78734 407.33524,555.64118 407.55927,555.64118 z m 18.37912,0 c 0.22402,0 0.41456,0.14616 0.41456,0.36211 l 0,3.89969 0.11056,0 c 0.23705,0 0.44219,0.20676 0.44219,0.44568 l 0,-4.28965 C 421.32287,555.82008 421.11773,555.64118 420.88068,555.64118 Z"
         style="color:#000000;fill:#ffffff;fill-opacity:0.29113925;fill-rule:nonzero;stroke:none;stroke-width:0.79262596;marker:none;visibility:visible;display:inline;overflow:visible;enable-background:accumulate" />
      <path
         inkscape:connector-curvature="0"
         id="rect842"
         d="m 407.568,555.64118 c -0.22403,0 -0.41456,0.15701 -0.41456,0.37296 l 0,9.45726 c 0,0.21594 0.19053,0.3996 0.41456,0.3996 l 12.79628,0 c 0.22403,0 0.41456,-0.18366 0.41456,-0.3996 l 0,-9.45726 c 0,-0.21595 -0.19053,-0.37296 -0.41456,-0.37296 L 407.568,555.64118 z m 9.17574,1.62505 0.77384,0 c 0.4365,0 0.80151,0.35184 0.80151,0.77257 l 0,5.43459 c 0,0.42071 -0.36501,0.74592 -0.80151,0.74592 l -0.77384,0 c -0.43649,0 -0.77387,-0.32521 -0.77387,-0.74592 l 0,-5.43459 C 415.96987,557.61807 416.30725,557.26623 416.74374,557.26623 Z"
         style="color:#000000;fill:#e6e6e6;fill-opacity:1;fill-rule:nonzero;stroke:none;stroke-width:0.79262596;marker:none;visibility:visible;display:inline;overflow:visible;enable-background:accumulate" />
      <path
         sodipodi:nodetypes="sscsscsss"
         inkscape:connector-curvature="0"
         id="path847"
         d="m 407.568,555.64118 c -0.22403,0 -0.41456,0.14616 -0.41456,0.36211 l 0,0.77994 c 0,-0.21595 0.19053,-0.36212 0.41456,-0.36212 l 12.79628,0 c 0.22403,0 0.41456,0.14617 0.41456,0.36212 l 0,-0.77994 C 420.77884,555.78734 420.58831,555.64118 420.36428,555.64118 Z"
         style="color:#000000;fill:#ffffff;fill-opacity:0.51476793;fill-rule:nonzero;stroke:none;stroke-width:0.79262596;marker:none;visibility:visible;display:inline;overflow:visible;enable-background:accumulate" />
      <rect
         ry="0.56593788"
         y="574.23389"
         x="399.77036"
         height="14.858132"
         width="23.316399"
         id="rect906"
         style="color:#000000;fill:#f2f2f2;fill-opacity:1;fill-rule:nonzero;stroke:none;stroke-width:0.79262596;marker:none;visibility:visible;display:inline;overflow:visible;enable-background:accumulate" />
      <path
         inkscape:connector-curvature="0"
         id="rect910"
         d="m 399.78322,587.15767 0,1.48975 c 0,0.24334 0.23035,0.44694 0.54388,0.44694 l 22.20292,0 c 0.31353,0 0.54388,-0.2036 0.54388,-0.44694 l 0,-1.48975 L 399.78322,587.15767 Z"
         style="color:#000000;fill:#ff5555;fill-opacity:1;fill-rule:nonzero;stroke:none;stroke-width:0.79262596;marker:none;visibility:visible;display:inline;overflow:visible;enable-background:accumulate" />
      <g
         style="fill:#b3b3b3"
         transform="matrix(1.023766,0,0,1.023766,-9.517922,-13.141956)"
         id="g919">
        <rect
           style="color:#000000;fill:#b3b3b3;fill-opacity:1;fill-rule:nonzero;stroke:none;stroke-width:0.86900002;marker:none;visibility:visible;display:inline;overflow:visible;enable-background:accumulate"
           id="rect915"
           width="20.715012"
           height="1.7880325"
           x="13.388438"
           y="28.244421"
           transform="translate(387.42856,548.36218)" />
        <rect
           y="581.92706"
           x="400.81699"
           height="1.7880325"
           width="20.715012"
           id="rect917"
           style="color:#000000;fill:#b3b3b3;fill-opacity:1;fill-rule:nonzero;stroke:none;stroke-width:0.86900002;marker:none;visibility:visible;display:inline;overflow:visible;enable-background:accumulate" />
      </g>
      <path
         id="path934"
         transform="translate(387.42856,548.36218)"
         d="m 6.5,39.125 0,1.0625 C 6.5,40.92648 7.07352,41.5 7.8125,41.5 l 32.375,0 c 0.73898,0 1.3125,-0.57352 1.3125,-1.3125 l 0,-1.0625 c 0,0.73898 -0.57352,1.3125 -1.3125,1.3125 l -32.375,0 C 7.07352,40.4375 6.5,39.86398 6.5,39.125 Z"
         style="color:#000000;fill:#000000;fill-opacity:0.5372549;fill-rule:nonzero;stroke:none;stroke-width:0.79262596;marker:none;visibility:visible;display:inline;overflow:visible;enable-background:accumulate"
         inkscape:connector-curvature="0" />
    </g>
  </g>
</svg>
