<?xml version="1.0" encoding="UTF-8" standalone="no"?>
<!-- Created with Inkscape (http://www.inkscape.org/) -->

<svg
   xmlns:dc="http://purl.org/dc/elements/1.1/"
   xmlns:cc="http://creativecommons.org/ns#"
   xmlns:rdf="http://www.w3.org/1999/02/22-rdf-syntax-ns#"
   xmlns:svg="http://www.w3.org/2000/svg"
   xmlns="http://www.w3.org/2000/svg"
   xmlns:sodipodi="http://sodipodi.sourceforge.net/DTD/sodipodi-0.dtd"
   xmlns:inkscape="http://www.inkscape.org/namespaces/inkscape"
   width="48"
   height="48"
   id="svg1596"
   version="1.1"
   inkscape:version="0.48+devel r12012"
   sodipodi:docname="document-page-setup.svg">
  <defs
     id="defs1598" />
  <sodipodi:namedview
     id="base"
     pagecolor="#ffffff"
     bordercolor="#666666"
     borderopacity="1.0"
     inkscape:pageopacity="0.0"
     inkscape:pageshadow="2"
     inkscape:zoom="0.49497475"
     inkscape:cx="-184.64218"
     inkscape:cy="-160.87219"
     inkscape:document-units="px"
     inkscape:current-layer="layer1"
     showgrid="false"
     inkscape:window-width="1366"
     inkscape:window-height="718"
     inkscape:window-x="0"
     inkscape:window-y="28"
     inkscape:window-maximized="1" />
  <metadata
     id="metadata1601">
    <rdf:RDF>
      <cc:Work
         rdf:about="">
        <dc:format>image/svg+xml</dc:format>
        <dc:type
           rdf:resource="http://purl.org/dc/dcmitype/StillImage" />
        <dc:title />
      </cc:Work>
    </rdf:RDF>
  </metadata>
  <g
     inkscape:label="Capa 1"
     inkscape:groupmode="layer"
     id="layer1"
     transform="translate(0,-1004.3622)">
    <g
       id="layer1-3"
       inkscape:label="Capa 1">
      <g
         id="g879">
        <path
           style="color:#000000;fill:#000000;fill-opacity:0.5372549;fill-rule:nonzero;stroke:none;stroke-width:0.86900002;marker:none;visibility:visible;display:inline;overflow:visible;enable-background:accumulate"
           d="M 9,6.5 9,17.78125 9,37.8125 9,39.5 l 0,2 30,0 0,-2 0,-1.6875 L 39,17.78125 39,6.5 26.46875,6.5 21.53125,6.5 9,6.5 Z"
           transform="translate(0,1004.3622)"
           id="path838"
           inkscape:connector-curvature="0" />
        <path
           style="color:#000000;fill:#ffffff;fill-opacity:1;fill-rule:nonzero;stroke:none;stroke-width:0.86900002;marker:none;visibility:visible;display:inline;overflow:visible;enable-background:accumulate"
           d="m 9.96875,1012.041 0,11.1672 0,21.4752 28.0625,0 0,-21.4752 0,-11.1672 -11.71875,0 -4.625,0 L 9.96875,1012.041 Z"
           id="rect833"
           inkscape:connector-curvature="0" />
        <path
           style="color:#000000;fill:#000000;fill-opacity:0.5372549;fill-rule:nonzero;stroke:none;stroke-width:0.86900002;marker:none;visibility:visible;display:inline;overflow:visible;enable-background:accumulate"
           d="m 9,40.375 0,1.125 30,0 0,-1.125 L 9,40.375 Z"
           transform="translate(0,1004.3622)"
           id="path874"
           inkscape:connector-curvature="0" />
      </g>
    </g>
    <g
       id="g847"
       transform="matrix(-0.64575646,0,0,-0.64575646,3.971166,1684.5903)">
      <path
         inkscape:connector-curvature="0"
         id="path834"
         d="m -26.22858,1033.206 -6.3125,-1.6042 -4.7082,-1.2083 0,-2.375 -4.5,2.6042 -4.4793,2.5833 4.4793,2.5833 4.5,2.6042 0,-2.375 4.7082,-1.2083 L -26.22858,1033.206 Z"
         style="color:#000000;fill:#1a1a1a;fill-opacity:0.5372549;fill-rule:nonzero;stroke:none;stroke-width:0.86900002;marker:none;visibility:visible;display:inline;overflow:visible;enable-background:accumulate" />
      <path
         inkscape:connector-curvature="0"
         id="rect840"
         d="m -23.57233,1026.5185 c -0.373166,0 -0.65625,0.2831 -0.65625,0.6563 l 0,10.5312 c 0,0.3732 0.283084,0.6875 0.65625,0.6875 l 10.53125,0 c 0.373166,0 0.65625,-0.3143 0.65625,-0.6875 l 0,-10.5312 c 0,-0.3732 -0.283084,-0.6563 -0.65625,-0.6563 L -23.57233,1026.5185 z m 1.78125,2 6.96875,0 c 0.247407,0 0.4375,0.1901 0.4375,0.4375 l 0,6.9688 c 0,0.2474 -0.190093,0.4687 -0.4375,0.4687 l -6.96875,0 c -0.247407,0 -0.4375,-0.2213 -0.4375,-0.4687 l 0,-6.9688 C -22.22858,1028.7086 -22.038487,1028.5185 -21.79108,1028.5185 Z"
         style="color:#000000;fill:#1a1a1a;fill-opacity:0.5372549;fill-rule:nonzero;stroke:none;stroke-width:0.86900002;marker:none;visibility:visible;display:inline;overflow:visible;enable-background:accumulate" />
      <path
         style="color:#000000;fill:#1a1a1a;fill-opacity:0.5372549;fill-rule:nonzero;stroke:none;stroke-width:0.86900002;marker:none;visibility:visible;display:inline;overflow:visible;enable-background:accumulate"
         d="m -18.306705,1024.5185 1.6042,-6.3125 1.2083,-4.7082 2.375,0 -2.6042,-4.5 -2.5833,-4.4793 -2.5833,4.4793 -2.6042,4.5 2.375,0 1.2083,4.7082 L -18.306705,1024.5185 Z"
         id="path845"
         inkscape:connector-curvature="0" />
    </g>
  </g>
</svg>
