<?xml version="1.0" encoding="UTF-8" standalone="no"?>
<!-- Created with Inkscape (http://www.inkscape.org/) -->

<svg
   xmlns:dc="http://purl.org/dc/elements/1.1/"
   xmlns:cc="http://creativecommons.org/ns#"
   xmlns:rdf="http://www.w3.org/1999/02/22-rdf-syntax-ns#"
   xmlns:svg="http://www.w3.org/2000/svg"
   xmlns="http://www.w3.org/2000/svg"
   xmlns:sodipodi="http://sodipodi.sourceforge.net/DTD/sodipodi-0.dtd"
   xmlns:inkscape="http://www.inkscape.org/namespaces/inkscape"
   width="48"
   height="48"
   id="svg3801"
   version="1.1"
   inkscape:version="0.48+devel r12012"
   sodipodi:docname="editcopy.svg">
  <defs
     id="defs3803" />
  <sodipodi:namedview
     id="base"
     pagecolor="#ffffff"
     bordercolor="#666666"
     borderopacity="1.0"
     inkscape:pageopacity="0.0"
     inkscape:pageshadow="2"
     inkscape:zoom="11.2"
     inkscape:cx="7.5539776"
     inkscape:cy="13.339622"
     inkscape:document-units="px"
     inkscape:current-layer="layer1"
     showgrid="false"
     inkscape:window-width="1366"
     inkscape:window-height="718"
     inkscape:window-x="0"
     inkscape:window-y="28"
     inkscape:window-maximized="1" />
  <metadata
     id="metadata3806">
    <rdf:RDF>
      <cc:Work
         rdf:about="">
        <dc:format>image/svg+xml</dc:format>
        <dc:type
           rdf:resource="http://purl.org/dc/dcmitype/StillImage" />
        <dc:title />
      </cc:Work>
    </rdf:RDF>
  </metadata>
  <g
     inkscape:label="Capa 1"
     inkscape:groupmode="layer"
     id="layer1"
     transform="translate(0,-1004.3622)">
    <rect
       style="fill:none;stroke:none"
       id="rect6424"
       width="48"
       height="48"
       x="0"
       y="1004.3622" />
    <g
       id="layer1-6"
       inkscape:label="Capa 1">
      <g
         id="g879">
        <path
           style="color:#000000;fill:#000000;fill-opacity:0.5372549;fill-rule:nonzero;stroke:none;stroke-width:0.86900002;marker:none;visibility:visible;display:inline;overflow:visible;enable-background:accumulate"
           d="M 9,6.5 9,17.78125 9,37.8125 9,39.5 l 0,2 30,0 0,-2 0,-1.6875 L 39,17.78125 39,6.5 26.46875,6.5 21.53125,6.5 9,6.5 Z"
           transform="translate(0,1004.3622)"
           id="path838"
           inkscape:connector-curvature="0" />
        <path
           style="color:#000000;fill:#ffffff;fill-opacity:1;fill-rule:nonzero;stroke:none;stroke-width:0.86900002;marker:none;visibility:visible;display:inline;overflow:visible;enable-background:accumulate"
           d="m 9.96875,1012.041 0,11.1672 0,21.4752 28.0625,0 0,-21.4752 0,-11.1672 -11.71875,0 -4.625,0 L 9.96875,1012.041 Z"
           id="rect833"
           inkscape:connector-curvature="0" />
        <path
           style="color:#000000;fill:#000000;fill-opacity:0.5372549;fill-rule:nonzero;stroke:none;stroke-width:0.86900002;marker:none;visibility:visible;display:inline;overflow:visible;enable-background:accumulate"
           d="m 9,40.375 0,1.125 30,0 0,-1.125 L 9,40.375 Z"
           transform="translate(0,1004.3622)"
           id="path874"
           inkscape:connector-curvature="0" />
      </g>
    </g>
    <g
       inkscape:label="Capa 1"
       id="g834"
       transform="matrix(0.5,0,0,0.5,17.5,520.9311)">
      <g
         id="g836">
        <path
           inkscape:connector-curvature="0"
           id="path839"
           transform="translate(0,1004.3622)"
           d="M 9,6.5 9,17.78125 9,37.8125 9,39.5 l 0,2 30,0 0,-2 0,-1.6875 L 39,17.78125 39,6.5 26.46875,6.5 21.53125,6.5 9,6.5 Z"
           style="color:#000000;fill:#000000;fill-opacity:0.5372549;fill-rule:nonzero;stroke:none;stroke-width:0.86900002;marker:none;visibility:visible;display:inline;overflow:visible;enable-background:accumulate" />
        <path
           inkscape:connector-curvature="0"
           id="path841"
           d="m 9.96875,1012.041 0,11.1672 0,21.4752 28.0625,0 0,-21.4752 0,-11.1672 -11.71875,0 -4.625,0 L 9.96875,1012.041 Z"
           style="color:#000000;fill:#cccccc;fill-opacity:1;fill-rule:nonzero;stroke:none;stroke-width:0.86900002;marker:none;visibility:visible;display:inline;overflow:visible;enable-background:accumulate" />
      </g>
    </g>
  </g>
</svg>
