<?xml version="1.0" encoding="UTF-8" standalone="no"?>
<!-- Created with Inkscape (http://www.inkscape.org/) -->

<svg
   xmlns:dc="http://purl.org/dc/elements/1.1/"
   xmlns:cc="http://creativecommons.org/ns#"
   xmlns:rdf="http://www.w3.org/1999/02/22-rdf-syntax-ns#"
   xmlns:svg="http://www.w3.org/2000/svg"
   xmlns="http://www.w3.org/2000/svg"
   xmlns:xlink="http://www.w3.org/1999/xlink"
   xmlns:sodipodi="http://sodipodi.sourceforge.net/DTD/sodipodi-0.dtd"
   xmlns:inkscape="http://www.inkscape.org/namespaces/inkscape"
   width="48"
   height="48"
   id="svg2"
   version="1.1"
   inkscape:version="0.48+devel r12149"
   sodipodi:docname="applications-internet.svg">
  <defs
     id="defs4">
    <linearGradient
       id="linearGradient3795-17">
      <stop
         style="stop-color:#74bef2;stop-opacity:1;"
         offset="0"
         id="stop3797-46" />
      <stop
         style="stop-color:#1482cf;stop-opacity:1;"
         offset="1"
         id="stop3799-73" />
    </linearGradient>
    <linearGradient
       inkscape:collect="always"
       xlink:href="#linearGradient3795-17"
       id="linearGradient3202-8"
       gradientUnits="userSpaceOnUse"
       gradientTransform="matrix(0.96799712,0,0,1.0252613,0.7681194,-1030.3404)"
       x1="24.113745"
       y1="1007.2183"
       x2="24.113745"
       y2="1049.5842" />
    <linearGradient
       id="linearGradient5944-6-9-3">
      <stop
         offset="0"
         style="stop-color:#f0f0f0;stop-opacity:1"
         id="stop5946-9-5-0" />
      <stop
         offset="0.5"
         style="stop-color:#e6e6e6;stop-opacity:1"
         id="stop5952-4-9-7" />
      <stop
         offset="0.5"
         style="stop-color:#d2d2d2;stop-opacity:1"
         id="stop5954-4-7-2" />
      <stop
         offset="1"
         style="stop-color:#bebebe;stop-opacity:1"
         id="stop5948-6-2-1" />
    </linearGradient>
    <linearGradient
       gradientUnits="userSpaceOnUse"
       xlink:href="#linearGradient5944-6-9-3"
       id="linearGradient4580"
       y2="88"
       x2="69"
       y1="88"
       x1="59" />
    <linearGradient
       id="linearGradient5932-3-2-4">
      <stop
         offset="0"
         style="stop-color:#ff7c53;stop-opacity:1"
         id="stop5934-3-2-9" />
      <stop
         offset="0.5"
         style="stop-color:#f21919;stop-opacity:1"
         id="stop5940-1-4-5" />
      <stop
         offset="0.5"
         style="stop-color:#db1414;stop-opacity:1"
         id="stop5942-5-4-7" />
      <stop
         offset="1"
         style="stop-color:#9b1818;stop-opacity:1"
         id="stop5936-2-5-0" />
    </linearGradient>
    <linearGradient
       gradientUnits="userSpaceOnUse"
       xlink:href="#linearGradient5932-3-2-4"
       id="linearGradient4578"
       y2="40"
       x2="69"
       y1="40"
       x1="59" />
    <linearGradient
       gradientUnits="userSpaceOnUse"
       xlink:href="#linearGradient3737-6"
       id="linearGradient2885"
       y2="138.66119"
       x2="48"
       y1="20.220806"
       x1="48" />
    <filter
       id="filter3794"
       color-interpolation-filters="sRGB"
       height="1.3839999"
       width="1.3839999"
       y="-0.192"
       x="-0.192">
      <feGaussianBlur
         stdDeviation="5.28"
         id="feGaussianBlur3796" />
    </filter>
    <clipPath
       id="clipPath3613">
      <rect
         style="fill:#ffffff;fill-opacity:1;fill-rule:nonzero;stroke:none"
         id="rect3615"
         y="6"
         x="6"
         ry="6"
         rx="6"
         height="84"
         width="84" />
    </clipPath>
    <linearGradient
       id="linearGradient3737-6">
      <stop
         offset="0"
         style="stop-color:#ffffff;stop-opacity:1"
         id="stop3739-73" />
      <stop
         offset="1"
         style="stop-color:#ffffff;stop-opacity:0"
         id="stop3741-6" />
    </linearGradient>
    <linearGradient
       gradientUnits="userSpaceOnUse"
       xlink:href="#linearGradient3737"
       id="linearGradient3188"
       y2="63.893143"
       x2="36.357143"
       y1="6"
       x1="36.357143"
       gradientTransform="translate(-66.7333,1069.6644)" />
    <filter
       id="filter3174"
       color-interpolation-filters="sRGB">
      <feGaussianBlur
         stdDeviation="1.71"
         id="feGaussianBlur3176" />
    </filter>
    <linearGradient
       id="linearGradient3737">
      <stop
         offset="0"
         style="stop-color:#ffffff;stop-opacity:1"
         id="stop3739" />
      <stop
         offset="1"
         style="stop-color:#ffffff;stop-opacity:0"
         id="stop3741" />
    </linearGradient>
    <linearGradient
       gradientTransform="scale(1.0058652,0.994169)"
       gradientUnits="userSpaceOnUse"
       id="ButtonShadow"
       y2="7.0165396"
       x2="45.447727"
       y1="92.539597"
       x1="45.447727">
      <stop
         offset="0"
         style="stop-color:#000000;stop-opacity:1"
         id="stop3750" />
      <stop
         offset="1"
         style="stop-color:#000000;stop-opacity:0.58823532"
         id="stop3752-8" />
    </linearGradient>
  </defs>
  <sodipodi:namedview
     id="base"
     pagecolor="#ffffff"
     bordercolor="#666666"
     borderopacity="1.0"
     inkscape:pageopacity="0.0"
     inkscape:pageshadow="2"
     inkscape:zoom="6.492308"
     inkscape:cx="-7.2046838"
     inkscape:cy="24.021095"
     inkscape:document-units="px"
     inkscape:current-layer="layer1"
     showgrid="false"
     inkscape:window-width="1366"
     inkscape:window-height="716"
     inkscape:window-x="0"
     inkscape:window-y="28"
     inkscape:window-maximized="1">
    <inkscape:grid
       type="xygrid"
       id="grid3850" />
  </sodipodi:namedview>
  <metadata
     id="metadata7">
    <rdf:RDF>
      <cc:Work
         rdf:about="">
        <dc:format>image/svg+xml</dc:format>
        <dc:type
           rdf:resource="http://purl.org/dc/dcmitype/StillImage" />
        <dc:title />
      </cc:Work>
    </rdf:RDF>
  </metadata>
  <g
     inkscape:label="Capa 1"
     inkscape:groupmode="layer"
     id="layer1"
     transform="translate(0,-1004.3622)">
    <rect
       style="color:#000000;fill:#333333;fill-opacity:1;fill-rule:nonzero;stroke:none;stroke-width:0.2;marker:none;visibility:visible;display:inline;overflow:visible;enable-background:accumulate"
       id="rect6294"
       width="45.5"
       height="45.5"
       x="1.25"
       y="1005.6122"
       ry="6.3565426" />
    <path
       style="fill:url(#linearGradient3202-8);fill-opacity:1;stroke:none;stroke-width:0.39848712;stroke-miterlimit:4;stroke-opacity:1"
       d="M 7.59375 1.75 C 4.3492254 1.75 1.75 4.3492254 1.75 7.59375 L 1.75 40.40625 C 1.75 43.650775 4.3492254 46.25 7.59375 46.25 L 40.40625 46.25 C 43.650775 46.25 46.25 43.650775 46.25 40.40625 L 46.25 7.59375 C 46.25 4.3492254 43.650775 1.75 40.40625 1.75 L 7.59375 1.75 z "
       transform="translate(0,1004.3622)"
       id="rect2992" />
    <g
       id="layer2"
       style="display:none"
       transform="translate(-146.02309,979.04746)">
      <rect
         width="86"
         height="85"
         rx="6"
         ry="6"
         x="5"
         y="7"
         id="rect3745"
         style="opacity:0.9;fill:url(#ButtonShadow);fill-opacity:1;fill-rule:nonzero;stroke:none;filter:url(#filter3174)" />
    </g>
    <path
       style="opacity:0.2;fill:#000000;fill-opacity:1;stroke:none;display:inline"
       d="M 25.625 1.78125 C 25.356927 1.77125 25.099695 1.83 24.875 1.875 L 24.875 1.84375 L 17.6875 1.84375 A 0.39529149 0.39529149 0 0 0 17.375 2.46875 C 17.720233 2.93235 17.77011 3.67155 17.84375 4.34375 C 17.88057 4.67985 17.90774 4.97845 18.09375 5.28125 C 18.19173 5.44085 18.345793 5.56655 18.53125 5.65625 C 18.48243 5.67525 18.442978 5.68885 18.375 5.78125 C 18.35836 5.80325 18.38548 5.846 18.375 5.875 A 0.39529149 0.39529149 0 0 0 18.3125 5.90625 C 18.17589 6.02005 18.045371 6.1271 18 6.3125 C 17.95464 6.498 18.021255 6.72485 18.125 6.84375 C 18.332488 7.08135 18.589837 7.113 18.8125 7.125 C 18.72942 7.2362 18.631239 7.3491 18.625 7.5625 C 18.6207 7.7112 18.689694 7.84575 18.78125 7.96875 C 18.78455 7.97875 18.77795 7.996 18.78125 8 C 18.636256 8.2091 18.517435 8.4425 18.5 8.6875 C 18.47004 9.1086 18.588345 9.54105 18.75 9.96875 C 19.070056 10.81555 19.577692 11.62025 20.125 12.03125 C 20.1315 12.04125 20.14986 12.02625 20.15625 12.03125 C 20.357579 12.19805 20.54398 12.31975 20.78125 12.34375 C 21.026067 12.36875 21.275068 12.2243 21.40625 12.0625 C 21.668616 11.7387 21.723683 11.37385 21.8125 10.96875 C 21.90131 10.56385 21.98588 10.13625 22.125 9.84375 C 22.26412 9.55115 22.386997 9.4041 22.625 9.375 A 0.39529149 0.39529149 0 0 0 22.90625 9.25 C 23.66481 8.3837 25.168595 7.7411 26.3125 6.6875 A 0.39529149 0.39529149 0 0 0 26.375 6.1875 C 26.45765 6.1425 26.556124 6.135 26.59375 6.0625 C 26.66351 5.9273 26.63438 5.831 26.625 5.75 C 26.60623 5.5879 26.569894 5.4597 26.5 5.3125 C 26.360223 5.0177 26.137994 4.6897 25.875 4.375 C 25.81254 4.3 25.722367 4.258 25.65625 4.1875 C 25.841464 4.1595 26.042923 4.1049 26.21875 4.0625 C 26.424384 4.0135 26.638816 3.97695 26.8125 3.78125 C 26.91848 3.66175 26.885188 3.478 26.90625 3.3125 C 27.017076 3.2205 27.152621 3.1239 27.21875 3 C 27.30376 2.8409 27.29519 2.6092 27.21875 2.4375 C 27.065868 2.094 26.809289 2.0167 26.53125 1.9375 C 26.253213 1.8585 25.923312 1.79305 25.625 1.78125 z M 8.8125 2.71875 A 0.39529149 0.39529149 0 0 0 8.5625 2.90625 C 8.4512093 3.08085 8.4330481 3.23665 8.375 3.40625 C 8.2646511 3.23975 8.1497182 3.08035 7.90625 3.03125 A 0.39529149 0.39529149 0 0 0 7.6875 3.03125 C 7.0416184 3.24675 6.6866114 3.83225 6.75 4.40625 C 6.813389 4.97995 7.316765 5.50585 8.0625 5.59375 A 0.39529149 0.39529149 0 0 0 8.09375 5.59375 C 8.08903 5.69415 8.073513 5.81505 8.09375 5.90625 C 8.1186828 6.0186259 8.13966 6.0999768 8.1875 6.1875 A 0.39529149 0.39529149 0 0 0 7.78125 6.28125 C 7.6429038 6.42605 7.5499536 6.5783 7.5 6.75 C 7.450049 6.9216 7.469971 7.13305 7.5625 7.28125 C 7.585062 7.31725 7.630921 7.31375 7.65625 7.34375 C 7.640178 7.35375 7.609339 7.367 7.59375 7.375 C 7.4540057 7.451 7.3269666 7.4938 7.21875 7.5 C 7.1105334 7.51 6.9981405 7.52155 6.78125 7.34375 C 6.9936789 7.32475 7.2142945 7.22415 7.34375 7.03125 C 7.4732054 6.83805 7.4969003 6.6118 7.46875 6.4375 C 7.440599 6.2632 7.3848653 6.1069 7.3125 5.9375 C 7.1677688 5.5986 6.95522 5.25055 6.78125 4.90625 C 6.6072799 4.56175 6.4683139 4.199 6.4375 4 A 0.39529149 0.39529149 0 0 0 6.34375 3.8125 C 6.2093051 3.6682 6.079257 3.534 5.84375 3.5 C 5.7259961 3.483 5.5680464 3.52075 5.46875 3.59375 C 5.382204 3.65675 5.3445911 3.71525 5.3125 3.78125 A 0.39529149 0.39529149 0 0 0 4.90625 4 C 4.879312 4.059 4.856789 4.0595 4.84375 4.0625 C 4.830709 4.0725 4.8002067 4.06485 4.71875 4.03125 C 4.5558385 3.96425 4.3484735 3.73555 4.34375 3.71875 A 0.39529149 0.39529149 0 0 0 3.9375 3.4375 C 3.93473 3.2959 3.9400776 3.14765 3.84375 3.03125 C 3.8245494 3.008025 3.801736 2.9889973 3.78125 2.96875 C 2.9168806 3.6705948 2.3011104 4.6249891 1.96875 5.71875 C 2.1482665 5.7334832 2.3256503 5.6554676 2.46875 5.5625 C 2.6214811 5.4621 2.7566057 5.3101 2.90625 5.125 C 2.932911 5.189 2.934797 5.2552 2.96875 5.3125 C 2.929118 5.3505 2.9049981 5.39175 2.875 5.46875 C 2.841135 5.55675 2.813617 5.69145 2.84375 5.78125 C 2.904008 5.96125 3.0252052 5.99165 3.09375 6.03125 C 3.2009485 6.09325 3.3058685 6.12975 3.40625 6.15625 C 3.387122 6.17525 3.361527 6.19875 3.34375 6.21875 C 3.255521 6.32585 3.280609 6.4717 3.28125 6.625 C 2.9555204 6.4206 2.6760239 6.2673 2.28125 6.0625 A 0.39529149 0.39529149 0 0 0 2.15625 6.03125 C 2.0575402 6.018875 1.9697018 6.0231834 1.875 6.03125 C 1.7712964 6.4616373 1.6875 6.9118961 1.6875 7.375 L 1.6875 20.40625 C 1.9187032 20.999894 2.2877657 21.5691 2.9375 21.9375 C 3.1218183 22.2809 3.5386235 23.044 3.9375 23.6875 C 4.146662 24.0248 4.3307627 24.2966 4.53125 24.5 C 4.6314939 24.6015 4.6973147 24.73335 5 24.71875 C 5.1108459 24.70875 5.2013109 24.6394 5.28125 24.5625 C 6.3205732 25.8847 7.6902504 26.8045 9.4375 27.1875 C 9.9258979 27.3538 10.430326 27.7529 10.96875 28.125 C 11.377156 28.4072 11.869679 28.62895 12.375 28.65625 C 12.40855 28.86835 12.44428 29.09795 12.375 29.34375 C 12.28147 29.67565 12.085 30.0459 11.9375 30.4375 C 11.79 30.8289 11.658103 31.2186 11.71875 31.6875 C 11.77525 32.1242 12.023489 32.58275 12.46875 32.96875 C 12.975252 33.74885 13.630666 34.35575 14 34.96875 C 14.369334 35.58165 14.512554 36.1405 14.125 37.0625 A 0.39529149 0.39529149 0 0 0 14.125 37.09375 C 13.492279 39.19595 13.739892 41.3714 13.25 43.125 A 0.39529149 0.39529149 0 0 0 13.25 43.1875 C 13.19237 43.5921 13.25654 44.0105 13.40625 44.4375 C 13.555955 44.8644 13.77584 45.26845 14 45.59375 C 14.112079 45.75645 14.238565 45.91765 14.375 46.03125 C 14.511436 46.14485 14.700822 46.2565 14.96875 46.1875 C 15.236681 46.1175 15.357817 45.86175 15.40625 45.65625 C 15.44823 45.47795 15.44874 45.252 15.4375 45 C 15.942686 43.376 16.003039 41.8002 16.96875 40.8125 C 17.336986 40.7735 17.632771 40.6557 17.8125 40.4375 C 18.029074 40.1745 18.054398 39.8927 18.09375 39.6875 C 18.13311 39.4824 18.198176 39.36465 18.21875 39.34375 C 18.23933 39.32275 18.312286 39.2635 18.65625 39.3125 A 0.39529149 0.39529149 0 0 0 19 39.15625 C 19.530925 38.46005 19.873188 37.73115 20.25 37.15625 C 20.626813 36.58135 21.013278 36.1647 21.75 35.9375 A 0.39529149 0.39529149 0 0 0 22.03125 35.625 C 22.10769 35.0215 22.789126 33.98745 23.15625 33.03125 C 23.339811 32.55295 23.437119 32.0508 23.25 31.5625 C 23.071333 31.0962 22.587957 30.77075 21.90625 30.59375 C 21.87939 30.58375 21.87129 30.5675 21.84375 30.5625 C 21.383227 30.3554 20.795626 30.24855 20.28125 30.15625 C 20.031856 30.11125 19.799931 30.0949 19.65625 30.0625 C 19.64735 29.6821 19.569866 29.29835 19.34375 29.03125 C 19.055937 28.69115 18.665977 28.456 18.25 28.25 C 17.418045 27.8381 16.431917 27.55675 15.9375 27.28125 L 15.9375 27.3125 C 15.465319 27 14.913077 26.94655 14.4375 27.03125 C 13.94622 27.11825 13.487217 27.3086 13.09375 27.4375 C 12.700284 27.5661 12.376112 27.6111 12.21875 27.5625 C 12.061388 27.5145 11.929898 27.4176 11.8125 26.875 A 0.39529149 0.39529149 0 0 0 11.78125 26.78125 C 11.558836 26.23925 11.109572 26.006 10.90625 25.8125 C 10.804587 25.7165 10.766664 25.67255 10.75 25.59375 C 10.73334 25.51475 10.73218 25.3747 10.84375 25.125 A 0.39529149 0.39529149 0 0 0 10.1875 24.6875 C 9.8120322 25.061 9.2302151 25.185 8.875 25.0625 C 8.6973921 25.0015 8.6075439 24.88815 8.53125 24.71875 C 8.458008 24.55595 8.439739 24.3102 8.53125 23.9375 C 8.8348867 23.3609 9.5542052 22.9839 10.28125 23 C 11.02581 23.016 11.678649 23.3741 11.875 24.125 L 12.25 24.03125 L 12.625 23.90625 C 12.330681 23.01205 12.606416 22.26185 13.125 21.46875 C 13.643582 20.67555 14.388753 19.8949 14.96875 19.125 A 0.39529149 0.39529149 0 0 0 15.03125 19 C 15.06358 18.8996 15.232572 18.77795 15.375 18.65625 A 0.39529149 0.39529149 0 0 0 15.78125 18.90625 C 16.092323 18.89525 16.325158 18.7744 16.5625 18.625 C 16.799843 18.4756 17.007762 18.3084 17.15625 18.125 C 17.23049 18.033 17.301488 17.91835 17.34375 17.78125 C 17.36488 17.71225 17.40063 17.64505 17.375 17.53125 C 17.36218 17.47425 17.31977 17.39765 17.28125 17.34375 C 17.677682 17.79135 18.366668 17.92145 19 17.65625 A 0.39529149 0.39529149 0 0 0 19.21875 17.15625 C 19.083679 16.78675 18.848091 16.5235 18.6875 16.3125 C 18.52691 16.1013 18.47095 15.96865 18.46875 15.84375 A 0.39529149 0.39529149 0 0 0 18.28125 15.53125 C 18.31613 15.37825 18.387071 15.2178 18.34375 15.0625 C 18.27484 14.8158 18.121561 14.60355 17.90625 14.34375 A 0.39529149 0.39529149 0 0 0 17.75 14.21875 C 17.574949 14.14775 17.408109 13.9624 17.25 13.6875 C 17.091891 13.4127 16.961144 13.0581 16.8125 12.75 C 16.663855 12.4418 16.511544 12.1188 16.09375 12 C 15.884852 11.941 15.648374 11.98135 15.46875 12.09375 C 15.40224 11.97905 15.333676 11.8574 15.25 11.75 C 14.991182 11.4181 14.66692 11.12965 14.3125 10.90625 C 13.958079 10.68295 13.568248 10.4976 13.15625 10.5625 C 12.950251 10.5955 12.748733 10.7414 12.625 10.9375 C 12.501268 11.1337 12.459982 11.3698 12.46875 11.625 A 0.39529149 0.39529149 0 0 0 12.46875 11.6875 C 12.687131 12.7041 12.610122 13.85425 12.3125 14.71875 C 12.182303 14.52145 12.048109 14.3299 11.875 14.1875 C 11.463016 13.8485 10.963639 13.6525 10.53125 13.4375 C 10.098862 13.2224 9.743031 13.01625 9.53125 12.78125 C 9.3258791 12.55335 9.2289682 12.3219 9.3125 11.875 C 9.6449779 11.3382 9.9719322 10.7181 10.25 10.25 C 10.34117 10.0966 10.429182 10.01835 10.5 9.90625 C 10.5164 10.04255 10.48853 10.18315 10.5625 10.28125 C 10.819701 10.62215 11.218462 10.69685 11.5625 10.71875 C 11.734518 10.72875 11.895633 10.7475 12.0625 10.6875 C 12.229366 10.6345 12.428225 10.5063 12.5 10.25 C 12.57177 9.9937 12.462863 9.75925 12.3125 9.59375 C 12.162149 9.42815 11.951835 9.2947 11.65625 9.125 A 0.39529149 0.39529149 0 0 0 11.65625 9.09375 L 11.59375 9.09375 C 11.864327 8.85855 12.080473 8.5683 12.21875 8.25 C 12.360114 7.9247 12.403742 7.51905 12.28125 7.15625 C 12.21231 6.95205 12.100655 6.7995 11.9375 6.625 C 12.06613 6.6251 12.214275 6.615 12.3125 6.625 C 12.517581 6.639 12.61098 6.6696 12.71875 6.75 C 12.79336 6.804 12.913147 6.9634 13 7.125 A 0.39529149 0.39529149 0 0 0 12.84375 7.28125 C 12.74651 7.44045 12.65985 7.57485 12.625 7.71875 C 12.59015 7.86265 12.5991 8.0276 12.6875 8.1875 C 12.77589 8.3476 12.955719 8.45145 13.09375 8.46875 C 13.231783 8.48575 13.334942 8.44625 13.4375 8.40625 C 13.50587 8.37725 13.561217 8.33055 13.625 8.28125 C 13.60564 8.36225 13.64013 8.4077 13.59375 8.5 C 13.383003 8.9205 12.875753 9.41 12.65625 9.5625 L 12.875 9.875 L 13.125 10.1875 C 13.17982 10.1405 13.218074 10.124 13.28125 10.125 C 13.34442 10.125 13.441315 10.15975 13.5625 10.21875 C 13.804871 10.33855 14.112053 10.5759 14.375 10.8125 C 14.506473 10.9307 14.635969 11.0266 14.75 11.125 C 14.864031 11.223 14.954152 11.3071 15.125 11.375 C 15.21042 11.409 15.357125 11.479 15.53125 11.375 C 15.705375 11.2704 15.741921 11.06825 15.75 10.96875 C 15.7514 10.95175 15.749491 10.9535 15.75 10.9375 C 15.82792 10.9475 15.902242 10.9535 16 10.9375 C 16.13674 10.9175 16.357109 10.8378 16.4375 10.625 C 16.51789 10.4122 16.47835 10.214 16.40625 10.0625 C 16.37574 9.9995 16.293724 9.91145 16.25 9.84375 A 0.39529149 0.39529149 0 0 0 16.53125 9.75 C 16.74697 9.5566 16.909218 9.36865 17 9.15625 C 17.09078 8.94375 17.09703 8.698 17.03125 8.5 C 16.899699 8.1042 16.57614 7.91655 16.3125 7.71875 C 16.04886 7.52105 15.820445 7.30045 15.71875 7.15625 C 15.617056 7.01215 15.576699 6.9965 15.71875 6.75 A 0.39529149 0.39529149 0 0 0 15.625 6.25 C 15.36014 6.0354 14.948563 5.4353 14.4375 4.9375 C 14.181969 4.6886 13.898741 4.4652 13.5625 4.3125 C 13.22626 4.1596 12.81173 4.0777 12.40625 4.1875 C 12.38913 4.0955 12.39141 4.07355 12.375 3.96875 C 12.35407 3.83485 12.32762 3.7009 12.28125 3.5625 C 12.23488 3.4241 12.186511 3.2395 11.96875 3.125 C 11.859868 3.068 11.70866 3.06875 11.59375 3.09375 C 11.478839 3.11875 11.392751 3.15935 11.3125 3.21875 C 11.29004 3.23475 11.27166 3.26125 11.25 3.28125 C 11.23873 3.25825 11.23415 3.24175 11.21875 3.21875 C 11.13721 3.10275 11.019716 3.0302 10.90625 3 A 0.39529149 0.39529149 0 0 0 10.625 3.03125 C 10.433965 3.11925 10.292208 3.22045 10.15625 3.34375 C 10.09362 3.12765 9.927712 2.98025 9.78125 2.90625 C 9.464641 2.74635 9.1217713 2.73035 8.90625 2.71875 A 0.39529149 0.39529149 0 0 0 8.8125 2.71875 z M 44.53125 3.5625 A 0.39529149 0.39529149 0 0 0 44.4375 3.59375 C 43.89616 3.80565 43.644177 4.28365 43.65625 4.71875 C 43.66832 5.15385 43.875824 5.50825 44.125 5.78125 C 44.249588 5.91785 44.36909 6.0459 44.53125 6.125 C 44.69341 6.204 44.926941 6.2529 45.15625 6.125 C 45.385561 5.9979 45.459257 5.75345 45.46875 5.53125 C 45.47805 5.31355 45.433762 5.0542 45.34375 4.75 C 45.34575 4.7499 45.34065 4.68675 45.34375 4.59375 C 45.34715 4.49125 45.35584 4.36085 45.34375 4.21875 C 45.342904 4.208796 45.344838 4.1977843 45.34375 4.1875 C 45.203696 3.9798523 45.040631 3.7804744 44.875 3.59375 C 44.811539 3.576607 44.752627 3.5630654 44.6875 3.5625 C 44.6299 3.562 44.584492 3.5565 44.53125 3.5625 z M 9.71875 4.375 C 9.70699 4.557 9.65644 4.74115 9.6875 4.90625 C 9.74574 5.21555 9.84789 5.4706 9.9375 5.6875 C 10.00471 5.8502 10.073494 6.0264 10.09375 6.0625 A 0.39529149 0.39529149 0 0 0 10.34375 6.375 C 10.542575 6.444 10.695732 6.43625 10.875 6.46875 A 0.39529149 0.39529149 0 0 0 10.875 6.53125 C 10.8664 6.61925 10.773929 6.7309 10.71875 6.875 A 0.39529149 0.39529149 0 0 0 10.03125 6.75 C 9.99556 6.67 9.9641548 6.60975 9.90625 6.40625 C 9.82298 6.11345 9.757828 5.7669 9.625 5.4375 C 9.54159 5.2307 9.415125 5.0413 9.25 4.875 C 9.293826 4.861 9.3356345 4.86675 9.375 4.84375 C 9.5241243 4.75475 9.604932 4.5354 9.71875 4.375 z M 38.09375 5.3125 C 38.05348 5.3125 38.021916 5.359 37.96875 5.375 L 37.9375 5.34375 C 36.759982 5.63205 35.927728 6.3542 35.28125 7.1875 C 34.650391 8.0007 34.191757 8.9351 33.6875 9.75 C 32.815227 10.2282 32.396336 11.229 32.4375 12.0625 C 32.45921 12.502 32.599063 12.9276 32.96875 13.1875 C 33.082324 13.2675 33.236327 13.25575 33.375 13.28125 C 33.263211 13.43715 33.185128 13.62225 33.15625 13.78125 C 33.10556 14.06065 33.12862 14.3065 33.125 14.5 C 33.1214 14.6935 33.09597 14.80005 33.0625 14.84375 C 33.02903 14.88675 32.97552 14.95015 32.65625 14.96875 A 0.39529149 0.39529149 0 0 0 32.28125 15.28125 C 32.27765 15.29325 32.25466 15.2985 32.25 15.3125 C 32.243 15.1609 32.24171 15.0099 32.15625 14.875 C 32.0568 14.7179 31.897726 14.58525 31.71875 14.46875 C 31.608049 14.04735 31.426122 13.64705 31.25 13.34375 C 31.14637 13.16525 31.036936 13.0171 31 12.9375 C 31.0024 12.9655 30.99824 12.9932 30.96875 13.0625 C 30.93576 13.1385 30.85115 13.2221 30.78125 13.25 L 30.625 12.875 L 30.40625 12.53125 C 30.049422 12.76405 29.888649 13.1558 29.875 13.5 C 29.8694 13.6413 29.91176 13.7447 29.9375 13.875 C 29.92436 13.875 29.91924 13.873 29.90625 13.875 A 0.39529149 0.39529149 0 0 0 29.8125 13.875 C 29.343224 14.0078 29.012208 14.3474 28.875 14.6875 C 28.737791 15.0274 28.768651 15.37335 28.90625 15.65625 C 28.97505 15.79765 29.085573 15.913 29.25 16 C 29.414426 16.087 29.633647 16.0874 29.8125 16 C 30.043151 15.8883 30.19533 15.67565 30.3125 15.40625 C 30.3068 15.42325 30.3215 15.488 30.3125 15.5 A 0.39529149 0.39529149 0 0 0 30.28125 15.53125 C 30.172246 15.72125 30.097624 15.91935 30.15625 16.15625 C 30.19951 16.33105 30.325285 16.46075 30.46875 16.53125 C 30.37287 16.62225 30.259045 16.68775 30.21875 16.84375 C 30.16426 17.05465 30.229207 17.29205 30.34375 17.46875 C 30.43162 17.60435 30.569785 17.7479 30.71875 17.875 C 30.75695 18.0022 30.78536 18.0996 30.78125 18.125 C 30.77605 18.157 30.80948 18.13725 30.78125 18.15625 C 30.72479 18.19325 30.420425 18.2741 30.09375 18.3125 C 29.767075 18.3505 29.372592 18.3613 29.0625 18.6875 C 28.907455 18.8502 28.811046 19.09555 28.8125 19.34375 C 28.8139 19.58705 28.903509 19.8251 29.03125 20.125 C 29.03315 20.135 29.02935 20.15225 29.03125 20.15625 C 29.145465 20.45805 29.290553 20.6938 29.46875 20.875 C 29.60329 21.012 29.764519 21.04275 29.9375 21.09375 C 29.633105 21.27225 29.333424 21.4606 29.09375 21.75 A 0.39529149 0.39529149 0 0 0 29.09375 21.78125 C 28.544386 22.53535 27.846338 23.44135 27.4375 24.46875 C 27.03543 25.47905 26.923876 26.64795 27.5625 27.71875 C 27.5713 27.73875 27.58472 27.76225 27.59375 27.78125 C 27.925492 28.53325 28.441401 28.9814 29 29.1875 C 29.57382 29.3992 30.147634 29.3674 30.71875 29.3125 C 31.289865 29.2585 31.863471 29.19295 32.34375 29.21875 C 32.815633 29.24375 33.186403 29.3564 33.53125 29.6875 C 33.58401 29.7715 33.59407 29.84545 33.59375 29.96875 C 33.593392 30.10775 33.55036 30.2777 33.53125 30.5 C 33.51213 30.7222 33.51442 31.00315 33.625 31.28125 C 33.70863 31.49145 33.914751 31.6925 34.125 31.875 C 34.2964 32.5756 34.23011 33.30385 34.1875 34.09375 C 34.14528 34.87635 34.181661 35.7182 34.71875 36.5625 C 34.977387 37.2573 35.172419 38.2024 35.65625 38.875 C 35.898167 39.2114 36.264532 39.5057 36.71875 39.5625 C 37.169071 39.6185 37.641633 39.45095 38.1875 39.09375 C 38.1948 39.08375 38.21157 39.0665 38.21875 39.0625 C 39.37884 38.3547 39.807384 37.33285 40.15625 36.40625 C 40.507277 35.47385 40.786724 34.67175 41.5625 34.09375 A 0.39529149 0.39529149 0 0 0 41.6875 33.5625 C 41.370742 32.9491 41.317182 32.5016 41.40625 32.0625 C 41.49532 31.6235 41.73071 31.1822 42.0625 30.75 C 42.726079 29.8855 43.751968 29.0465 44.1875 27.8125 A 0.39529149 0.39529149 0 0 0 43.75 27.28125 C 43.59716 27.30425 43.462592 27.23275 43.3125 27.21875 C 43.455396 27.14775 43.601477 27.07945 43.75 26.96875 C 44.257117 26.75655 45.115156 26.3229 45.6875 25.75 C 45.973671 25.4635 46.245648 25.09975 46.1875 24.65625 C 46.16942 24.51845 46.050949 24.39925 45.96875 24.28125 C 46.088459 24.257665 46.201919 24.197857 46.3125 24.125 L 46.3125 7.375 C 46.3125 7.0368569 46.274917 6.6965794 46.21875 6.375 C 46.024634 6.559743 45.714536 6.82355 45.40625 6.96875 C 45.237458 7.04875 45.078975 7.08995 44.96875 7.09375 C 44.858525 7.10375 44.807628 7.057 44.75 7 A 0.39529149 0.39529149 0 0 0 44.40625 6.90625 C 44.052607 6.95525 43.768486 7.1333 43.5 7.3125 C 43.270052 7.4659 43.071002 7.60445 42.90625 7.71875 C 42.91265 7.65575 42.92351 7.6464 42.9375 7.5625 A 0.39529149 0.39529149 0 0 0 42.5625 7.125 C 42.394384 7.114 42.235459 7.12835 42.09375 7.21875 C 41.952042 7.30875 41.837836 7.4427 41.78125 7.5625 C 41.69398 7.7472 41.682261 7.9011 41.65625 8.0625 C 41.536742 7.658 41.224769 7.3858 40.875 7.125 C 40.486369 6.8353 40.030327 6.56035 39.65625 6.34375 C 39.46921 6.23525 39.308871 6.1384 39.1875 6.0625 C 39.1841 5.9985 39.20722 5.9181 39.1875 5.875 C 39.079894 5.64 38.953292 5.61265 38.8125 5.53125 C 38.67171 5.45025 38.501564 5.38195 38.34375 5.34375 C 38.26484 5.32475 38.195263 5.3065 38.09375 5.3125 z M 27.6875 8.34375 A 0.39529149 0.39529149 0 0 0 27.4375 8.5 C 27.298179 8.6604 27.189732 8.69885 27.0625 8.71875 C 26.935267 8.73775 26.760569 8.7205 26.59375 8.6875 C 26.426928 8.6525 26.257686 8.5878 26 8.625 C 25.871156 8.644 25.722195 8.7369 25.625 8.875 C 25.52781 9.0129 25.503078 9.13965 25.5 9.28125 A 0.39529149 0.39529149 0 0 0 25.5625 9.5 C 25.55052 9.481 25.64692 9.6858 25.75 9.875 C 25.853086 10.0643 25.979189 10.27525 26.1875 10.46875 C 26.395813 10.66235 26.705986 10.8322 27.0625 10.8125 C 27.419016 10.7935 27.772886 10.5989 28.125 10.25 C 28.489624 10.0255 28.693802 9.63345 28.625 9.28125 C 28.54766 8.88535 28.257526 8.56405 27.875 8.40625 A 0.39529149 0.39529149 0 0 0 27.71875 8.34375 A 0.39529149 0.39529149 0 0 0 27.6875 8.34375 z M 40.28125 9.1875 C 40.31571 9.2095 40.30638 9.19575 40.34375 9.21875 A 0.39529149 0.39529149 0 0 0 40.46875 9.3125 C 40.444847 9.3200412 40.406598 9.3330441 40.375 9.34375 C 40.33766 9.28775 40.31303 9.2426 40.28125 9.1875 z M 36.34375 11.59375 C 36.35529 11.76335 36.360676 11.93285 36.46875 12.09375 C 36.591147 12.27585 36.805616 12.3856 37.03125 12.4375 C 37.00027 12.4685 36.966282 12.464 36.9375 12.5 C 36.817931 12.6487 36.713978 12.8351 36.71875 13.0625 C 36.718899 13.0725 36.7497 13.08775 36.75 13.09375 C 36.6636 13.13275 36.556679 13.16025 36.5 13.21875 C 36.282341 13.44155 36.232055 13.6785 36.15625 13.875 C 36.08044 14.0714 36.011278 14.2148 35.96875 14.25 C 35.92622 14.286 35.89934 14.31475 35.65625 14.21875 A 0.39529149 0.39529149 0 0 0 35.5 14.1875 C 35.505033 14.183556 35.493996 14.16085 35.5 14.15625 A 0.39529149 0.39529149 0 0 0 35.5625 14.0625 C 36.147246 13.2883 36.228654 12.39915 36.34375 11.59375 z M 17.09375 16.4375 C 17.00915 16.7524 17.064182 17.0862 17.25 17.3125 C 17.21778 17.2755 17.194781 17.24015 17.15625 17.21875 C 16.950791 17.10075 16.797529 17.1525 16.65625 17.1875 C 16.63173 17.1975 16.58781 17.21175 16.5625 17.21875 C 16.51336 17.07645 16.527495 16.88775 16.4375 16.78125 C 16.37444 16.70625 16.294603 16.70695 16.21875 16.65625 C 16.509028 16.58325 16.799154 16.5158 17.09375 16.4375 z M 43.375 18.09375 C 43.34086 18.14875 43.33433 18.2445 43.3125 18.3125 C 43.3038 18.2485 43.27556 18.1666 43.3125 18.125 C 43.3169 18.115 43.36835 18.09975 43.375 18.09375 z M 39.0625 18.15625 C 39.0599 18.16625 39.058499 18.1533 39.15625 18.1875 C 39.288494 18.2335 39.463357 18.33245 39.625 18.40625 C 39.70582 18.44325 39.768236 18.4756 39.875 18.5 C 39.92838 18.512 39.998627 18.54725 40.09375 18.53125 C 40.18888 18.51725 40.3323 18.4271 40.40625 18.3125 C 40.41575 18.3295 40.4279 18.359 40.4375 18.375 C 40.578516 18.6248 40.714155 18.8318 40.8125 19 C 40.693827 18.99 40.586298 18.9815 40.375 18.9375 A 0.39529149 0.39529149 0 0 0 40.25 18.9375 C 39.699173 19.0025 38.9824 18.94 38.75 18.8125 C 38.6919 18.7815 38.66002 18.78625 38.65625 18.78125 C 38.65255 18.77125 38.65265 18.783 38.65625 18.75 C 38.66275 18.694 38.800942 18.43925 39.0625 18.15625 z M 33.15625 18.875 C 33.25419 18.855 33.35674 18.849 33.46875 18.875 C 33.54264 18.892 33.640232 18.99395 33.71875 19.03125 A 0.39529149 0.39529149 0 0 0 33.5 19.09375 C 33.221992 19.27285 33.013088 19.54085 33.03125 19.84375 C 33.04727 20.11085 33.213369 20.26045 33.40625 20.34375 C 32.775686 20.38675 32.116467 20.39985 31.4375 20.53125 C 31.722611 20.26685 32.016111 19.99285 32.25 19.71875 C 32.518059 19.40455 32.764066 19.12535 32.875 19.03125 C 32.97572 18.95325 33.058306 18.8957 33.15625 18.875 z M 43.5625 19.09375 C 43.62019 19.14375 43.679267 19.17535 43.75 19.21875 C 43.7529 19.21875 43.7471 19.248 43.75 19.25 C 43.99535 19.5505 44.097785 20.13025 44.03125 20.34375 C 44.02285 20.37075 44.03823 20.363 44.03125 20.375 C 44.02355 20.365 43.860716 20.285 43.6875 20.125 C 43.69 19.7333 43.671734 19.38845 43.5625 19.09375 z M 34.03125 19.21875 C 34.0758 19.25375 34.145275 19.2735 34.1875 19.3125 C 34.406292 19.5156 34.566337 19.76695 34.65625 19.96875 C 34.74616 20.17085 34.72136 20.26035 34.75 20.21875 A 0.39529149 0.39529149 0 0 0 35.21875 20.8125 C 35.689321 20.6216 35.902869 20.20915 35.9375 19.78125 C 35.98664 19.90345 36.058069 20.0874 36.0625 20.0625 A 0.39529149 0.39529149 0 0 0 36.09375 20.3125 C 36.212045 20.534 36.33051 20.6864 36.46875 20.8125 C 36.53787 20.8755 36.630939 20.93905 36.75 20.96875 C 36.86906 20.99875 37.023251 20.96625 37.125 20.90625 C 37.328496 20.79465 37.35572 20.6806 37.40625 20.5625 C 37.45678 20.4443 37.498378 20.32765 37.53125 20.21875 C 37.55601 20.36205 37.576996 20.5164 37.65625 20.625 C 37.796723 20.8171 37.998186 20.94565 38.1875 21.03125 C 38.566126 21.20215 38.959043 21.2458 39.28125 21.3125 C 39.442353 21.3465 39.574707 21.37285 39.65625 21.40625 C 39.68887 21.41925 39.70789 21.4295 39.71875 21.4375 C 39.71495 21.4475 39.69728 21.44575 39.6875 21.46875 C 39.65697 21.54075 39.563976 21.7184 39.4375 21.875 C 38.813953 21.973 38.14075 21.8875 37.46875 21.8125 C 36.791276 21.7375 36.108456 21.70255 35.40625 21.90625 L 35.40625 21.875 C 34.947835 21.865 34.84316 21.7358 34.6875 21.4375 C 34.60967 21.2884 34.550347 21.08825 34.46875 20.90625 C 34.38715 20.72425 34.275451 20.5315 34.0625 20.375 A 0.39529149 0.39529149 0 0 0 34 20.3125 C 34.084293 20.263515 34.146648 20.186439 34.1875 20.09375 C 34.316571 19.80075 34.211147 19.51505 34.03125 19.21875 z M 11.875 24.21875 A 0.39529149 0.39529149 0 0 0 11.625 24.5 C 11.55292 24.7407 11.69837 24.98365 11.8125 25.09375 C 11.926623 25.20385 12.05611 25.2505 12.1875 25.3125 C 12.450281 25.4363 12.742936 25.513 13 25.5625 C 13.128532 25.5875 13.226681 25.626 13.34375 25.625 C 13.40228 25.6244 13.459253 25.63775 13.5625 25.59375 C 13.59086 25.58375 13.650519 25.527 13.6875 25.5 C 13.6463 25.6981 13.78661 25.9681 13.9375 26.0625 C 14.239285 26.2512 14.458218 26.20955 14.6875 26.15625 C 14.802142 26.12925 14.918782 26.0703 15.03125 26 C 15.08748 25.964 15.130212 25.92555 15.1875 25.84375 C 15.24478 25.76175 15.308228 25.6368 15.28125 25.5 C 15.22729 25.2264 15.025395 25.1231 14.875 25.0625 C 14.724605 25.0025 14.524114 24.9738 14.28125 24.9375 A 0.39529149 0.39529149 0 0 0 13.96875 25.03125 C 13.88664 25.11425 13.83343 25.2198 13.78125 25.3125 C 13.80591 25.2345 13.85809 25.15795 13.84375 25.09375 C 13.79938 24.89585 13.713264 24.8572 13.65625 24.8125 C 13.59923 24.7675 13.536856 24.724 13.46875 24.6875 C 13.332536 24.6135 13.162997 24.5381 12.90625 24.4375 A 0.39529149 0.39529149 0 0 0 12.875 24.4375 L 12.59375 24.34375 A 0.39529149 0.39529149 0 0 0 12.5625 24.34375 L 12.09375 24.21875 A 0.39529149 0.39529149 0 0 0 12 24.21875 A 0.39529149 0.39529149 0 0 0 11.9375 24.21875 A 0.39529149 0.39529149 0 0 0 11.875 24.21875 z M 43.4375 33.03125 C 42.79313 33.04725 42.324296 33.53545 42.0625 34.03125 C 41.800705 34.52695 41.692015 35.09905 41.6875 35.59375 C 41.6852 35.84095 41.71626 36.0443 41.78125 36.25 C 41.84625 36.4558 41.956796 36.69605 42.25 36.78125 C 42.396602 36.82425 42.565939 36.81 42.6875 36.75 C 42.809059 36.692 42.880354 36.5974 42.96875 36.5 C 43.14554 36.3049 43.293703 36.03965 43.46875 35.65625 A 0.39529149 0.39529149 0 0 0 43.5 35.59375 C 43.54956 35.34535 43.731742 34.9565 43.84375 34.5625 C 43.955757 34.1684 44.040694 33.6901 43.8125 33.25 A 0.39529149 0.39529149 0 0 0 43.4375 33.03125 z "
       transform="translate(0,1004.3622)"
       id="path3798" />
    <path
       style="opacity:0.3;fill:url(#linearGradient3188);fill-opacity:1;fill-rule:nonzero;stroke:none;display:inline"
       id="rect3728"
       inkscape:connector-curvature="0"
       d="m -54.7333,1075.6644 c -3.324,0 -6,2.676 -6,6 l 0,2 0,68 0,2 c 0,0.3347 0.04135,0.6507 0.09375,0.9688 0.0487,0.2955 0.09704,0.5969 0.1875,0.875 0.0099,0.03 0.02089,0.064 0.03125,0.094 0.09887,0.2878 0.23488,0.5475 0.375,0.8125 0.144592,0.2735 0.315616,0.5356 0.5,0.7813 0.184384,0.2456 0.373776,0.4734 0.59375,0.6875 0.439947,0.428 0.94291,0.8145 1.5,1.0937 0.278545,0.1396 0.573473,0.2469 0.875,0.3438 -0.256202,-0.1003 -0.486711,-0.2363 -0.71875,-0.375 -0.0074,0 -0.02387,0 -0.03125,0 -0.03193,-0.019 -0.06229,-0.043 -0.09375,-0.062 -0.120395,-0.077 -0.231023,-0.1636 -0.34375,-0.25 -0.106173,-0.081 -0.213281,-0.1612 -0.3125,-0.25 -0.17793,-0.1615 -0.34746,-0.3454 -0.5,-0.5313 -0.107579,-0.1303 -0.218394,-0.2653 -0.3125,-0.4062 -0.02509,-0.038 -0.03845,-0.086 -0.0625,-0.125 -0.06476,-0.1031 -0.130227,-0.2046 -0.1875,-0.3125 -0.101008,-0.1948 -0.205675,-0.4158 -0.28125,-0.625 -0.008,-0.022 -0.02359,-0.041 -0.03125,-0.062 -0.03182,-0.092 -0.0358,-0.1869 -0.0625,-0.2813 -0.03033,-0.1066 -0.07039,-0.203 -0.09375,-0.3125 -0.07288,-0.3415 -0.125,-0.6982 -0.125,-1.0625 l 0,-2 0,-68 0,-2 c 0,-2.7818 2.218152,-5 5,-5 l 2,0 68,0 2,0 c 2.781848,0 5,2.2182 5,5 l 0,2 0,68 0,2 c 0,0.3643 -0.05212,0.721 -0.125,1.0625 -0.04415,0.2069 -0.08838,0.3977 -0.15625,0.5938 -0.0077,0.022 -0.0233,0.041 -0.03125,0.062 -0.06274,0.1737 -0.138383,0.3674 -0.21875,0.5312 -0.04158,0.083 -0.07904,0.17 -0.125,0.25 -0.0546,0.097 -0.126774,0.1884 -0.1875,0.2813 -0.09411,0.1409 -0.204921,0.2759 -0.3125,0.4062 -0.143174,0.1745 -0.303141,0.347 -0.46875,0.5 -0.01117,0.01 -0.01998,0.021 -0.03125,0.031 -0.138386,0.1255 -0.285091,0.2344 -0.4375,0.3437 -0.102571,0.073 -0.204318,0.1534 -0.3125,0.2188 -0.0074,0 -0.02384,0 -0.03125,0 -0.232039,0.1387 -0.462548,0.2747 -0.71875,0.375 0.301527,-0.097 0.596455,-0.2042 0.875,-0.3438 0.55709,-0.2792 1.060053,-0.6657 1.5,-1.0937 0.219973,-0.2141 0.409366,-0.4419 0.59375,-0.6875 0.184384,-0.2457 0.355408,-0.5078 0.5,-0.7813 0.14012,-0.265 0.276135,-0.5247 0.375,-0.8125 0.01041,-0.031 0.02133,-0.063 0.03125,-0.094 0.09046,-0.2781 0.1388,-0.5795 0.1875,-0.875 0.0524,-0.3181 0.09375,-0.6341 0.09375,-0.9688 l 0,-2 0,-68 0,-2 c 0,-3.324 -2.676,-6 -6,-6 l -72,0 z" />
    <g
       id="layer4"
       style="display:none"
       transform="translate(-146.02309,979.04746)">
      <rect
         width="66"
         height="66"
         rx="12"
         ry="12"
         x="15"
         y="15"
         clip-path="url(#clipPath3613)"
         id="rect3171"
         style="opacity:0.15;fill:url(#linearGradient2885);fill-opacity:1;fill-rule:nonzero;stroke:#ffffff;stroke-width:0.5;stroke-linecap:round;stroke-linejoin:miter;stroke-miterlimit:4;stroke-opacity:1;stroke-dasharray:none;stroke-dashoffset:0;filter:url(#filter3794)" />
    </g>
    <g
       transform="matrix(0.40918056,0,0,0.40918056,5.3356789,1008.3868)"
       id="layer7">
      <path
         d="m 48,16 -4.625,16.6875 c -1.750115,0.528895 -3.372187,1.350473 -4.8125,2.40625 l -7.53125,-4.0625 4.0625,7.53125 c -1.055777,1.440313 -1.877355,3.062385 -2.40625,4.8125 L 16,48 32.6875,52.625 c 0.528895,1.750115 1.350473,3.372187 2.40625,4.8125 l -4.0625,7.53125 7.53125,-4.0625 c 1.440313,1.055777 3.062385,1.877355 4.8125,2.40625 L 48,80 52.625,63.3125 c 1.750115,-0.528895 3.372187,-1.350473 4.8125,-2.40625 l 7.53125,4.0625 -4.0625,-7.53125 c 1.055777,-1.440313 1.877355,-3.062385 2.40625,-4.8125 L 80,48 63.3125,43.375 c -0.528895,-1.750115 -1.350473,-3.372187 -2.40625,-4.8125 l 4.0625,-7.53125 -7.53125,4.0625 C 55.997187,34.037973 54.375115,33.216395 52.625,32.6875 L 48,16 z m 0,20 c 6.627417,0 12,5.372583 12,12 0,6.627417 -5.372583,12 -12,12 C 41.372583,60 36,54.627417 36,48 36,41.372583 41.372583,36 48,36 Z"
         inkscape:connector-curvature="0"
         id="path4588"
         style="color:#000000;fill:#ffffff;fill-opacity:1;fill-rule:nonzero;stroke:none;stroke-width:0.80000001;marker:none;visibility:visible;display:inline;overflow:visible;enable-background:accumulate" />
      <g
         transform="matrix(0.70710678,0.70710678,-0.70710678,0.70710678,48.020021,-19.873366)"
         id="g4572">
        <g
           transform="matrix(0.98983765,0,0,0.77048859,-15.350324,-1.2826605)"
           id="g5928-7-4">
          <path
             d="M 69,64 59,64 64,16 69,64 Z"
             inkscape:connector-curvature="0"
             id="path5923-0-5"
             style="fill:url(#linearGradient4578);fill-opacity:1;fill-rule:evenodd;stroke:none" />
          <path
             d="m 69,63.999997 -10,0 L 64,112 69,63.999997 Z"
             inkscape:connector-curvature="0"
             id="path5926-8-6"
             style="fill:url(#linearGradient4580);fill-opacity:1;fill-rule:evenodd;stroke:none" />
        </g>
        <path
           inkscape:connector-curvature="0"
           d="m 65.503089,63.920891 a 1.7404205,1.7404205 0 1 1 -3.480841,0 A 1.7404205,1.7404205 0 1 1 65.503089,63.920891 Z"
           transform="matrix(0.88540527,0,0,0.88540527,-8.4565171,-8.5672842)"
           id="path5958-8-4"
           style="fill:#000000;fill-opacity:1;fill-rule:evenodd;stroke:none" />
      </g>
    </g>
    <g
       id="g1156"
       transform="matrix(0.9654398,0,0,0.9654398,0.46189921,35.205927)">
      <g
         id="g1150">
        <g
           style="font-size:5.86223602px;font-style:normal;font-weight:normal;line-height:125%;letter-spacing:0px;word-spacing:0px;fill:#ffffff;fill-opacity:1;stroke:none;font-family:Droid Sans;-inkscape-font-specification:Droid Sans"
           id="text1110">
          <path
             inkscape:connector-curvature="0"
             d="m 26.959175,1013.2133 -0.615421,0 -2.05808,-3.4635 -0.0229,0 q 0.01717,0.2204 0.02862,0.4379 0.01145,0.1861 0.01718,0.3893 0.0086,0.2033 0.0086,0.3664 l 0,2.2699 -0.492336,0 0,-4.1848 0.609695,0 2.049493,3.4463 0.02004,0 q -0.0086,-0.2175 -0.02004,-0.4293 -0.0029,-0.092 -0.0086,-0.1861 -0.0029,-0.097 -0.0086,-0.1918 -0.0029,-0.097 -0.0057,-0.186 0,-0.089 0,-0.1632 l 0,-2.2899 0.498061,0 L 26.959187,1013.2133 Z"
             id="path1169" />
        </g>
        <g
           style="font-size:5.86223602px;font-style:normal;font-weight:normal;line-height:125%;letter-spacing:0px;word-spacing:0px;fill:#ffffff;fill-opacity:1;stroke:none;font-family:Droid Sans;-inkscape-font-specification:Droid Sans"
           id="text1114">
          <path
             inkscape:connector-curvature="0"
             d="m 26.629997,1047.2126 q 0,0.2776 -0.100185,0.498 -0.09732,0.2176 -0.280517,0.3693 -0.183195,0.1517 -0.446538,0.2319 -0.263342,0.077 -0.592521,0.077 -0.317728,0 -0.595383,-0.051 -0.274792,-0.049 -0.46085,-0.146 l 0,-0.5095 q 0.09732,0.046 0.220407,0.092 0.125946,0.043 0.263342,0.077 0.137397,0.034 0.28338,0.057 0.145983,0.02 0.289104,0.02 0.457988,0 0.675532,-0.1718 0.220406,-0.1717 0.220406,-0.4923 0,-0.1546 -0.04294,-0.2691 -0.04007,-0.1145 -0.145984,-0.2089 -0.103047,-0.097 -0.277655,-0.1861 -0.174607,-0.092 -0.440812,-0.1975 -0.254756,-0.1002 -0.443675,-0.2175 -0.186058,-0.1202 -0.309142,-0.2691 -0.120221,-0.1488 -0.180332,-0.3378 -0.05725,-0.1889 -0.05725,-0.4293 0,-0.2519 0.0916,-0.4494 0.0916,-0.1975 0.257618,-0.3321 0.16602,-0.1374 0.395014,-0.2089 0.231856,-0.072 0.50951,-0.072 0.340628,0 0.612558,0.066 0.27193,0.063 0.483749,0.1631 l -0.191782,0.4465 q -0.186057,-0.083 -0.423638,-0.1431 -0.234719,-0.063 -0.486611,-0.063 -0.349216,0 -0.540998,0.1631 -0.191782,0.1603 -0.191782,0.4351 0,0.1632 0.04294,0.2834 0.04294,0.1173 0.143121,0.2147 0.100185,0.094 0.263343,0.1803 0.16602,0.083 0.406464,0.1775 0.26048,0.103 0.455124,0.2118 0.197507,0.1088 0.329179,0.2462 0.131671,0.1373 0.197507,0.3177 Q 26.63,1046.9661 26.63,1047.2123 Z"
             id="path1172" />
        </g>
      </g>
      <g
         id="g1144">
        <g
           style="font-size:5.86223602px;font-style:normal;font-weight:normal;line-height:125%;letter-spacing:0px;word-spacing:0px;fill:#ffffff;fill-opacity:1;stroke:none;font-family:Droid Sans;-inkscape-font-specification:Droid Sans"
           id="text1118">
          <path
             inkscape:connector-curvature="0"
             d="m 43.101963,1030.1219 -2.172576,0 0,-4.1848 2.172576,0 0,0.4694 -1.640166,0 0,1.2938 1.531394,0 0,0.4638 -1.531394,0 0,1.4884 1.640166,0 L 43.101963,1030.1219 Z"
             id="path1175" />
        </g>
        <g
           style="font-size:5.86223602px;font-style:normal;font-weight:normal;line-height:125%;letter-spacing:0px;word-spacing:0px;fill:#ffffff;fill-opacity:1;stroke:none;font-family:Droid Sans;-inkscape-font-specification:Droid Sans"
           id="text1122">
          <path
             inkscape:connector-curvature="0"
             d="m 7.9178925,1025.9371 0.5638967,0 0.6554942,2.4502 q 0.042936,0.1603 0.08301,0.3206 0.042936,0.1603 0.077285,0.312 0.037211,0.1489 0.062973,0.2834 0.028624,0.1345 0.045799,0.2433 0.01145,-0.1088 0.028624,-0.2376 0.017174,-0.1288 0.040074,-0.269 0.022899,-0.1432 0.048661,-0.2892 0.028624,-0.1488 0.060111,-0.2891 l 0.5724836,-2.5246 0.569621,0 -1.0505071,4.1848 -0.538135,0 -0.7270547,-2.6849 q -0.040074,-0.146 -0.077285,-0.3006 -0.037211,-0.1545 -0.068698,-0.2891 -0.034349,-0.1574 -0.065836,-0.3062 -0.031487,0.1459 -0.062973,0.3034 -0.028624,0.1345 -0.065836,0.2948 -0.034349,0.1603 -0.074423,0.3149 l -0.6927057,2.6677 -0.5381349,0 -1.1048941,-4.1848 0.5638967,0 0.6383197,2.5447 q 0.034349,0.1317 0.062973,0.2748 0.028624,0.1402 0.051524,0.2805 0.025762,0.1402 0.045799,0.2719 0.020037,0.1288 0.034349,0.2376 0.014312,-0.1059 0.034349,-0.2462 0.022899,-0.1402 0.051524,-0.2948 0.028624,-0.1546 0.060111,-0.312 0.034349,-0.1603 0.071561,-0.3006 L 7.9178934,1025.9371 Z"
             id="path1178" />
        </g>
      </g>
    </g>
    <path
       id="path6361"
       d="m 1.749987,1012.5497 0,-0.5625 c 0,-3.2445 2.59922,-5.875 5.84375,-5.875 l 32.8125,0 c 3.24452,0 5.84375,2.6305 5.84375,5.875 l 0,0.5625 c 0,-3.2445 -2.59923,-5.875 -5.84375,-5.875 l -32.8125,0 C 4.349207,1006.6747 1.749987,1009.3052 1.749987,1012.5497 Z"
       style="color:#000000;fill:#ffffff;fill-opacity:1;fill-rule:nonzero;stroke:none;stroke-width:0.2;marker:none;visibility:visible;display:inline;overflow:visible;enable-background:accumulate"
       inkscape:connector-curvature="0" />
    <path
       inkscape:connector-curvature="0"
       style="color:#000000;fill:#000000;fill-opacity:1;fill-rule:nonzero;stroke:none;stroke-width:0.2;marker:none;visibility:visible;display:inline;overflow:visible;enable-background:accumulate"
       d="m 1.749987,1044.1747 0,0.5625 c 0,3.2445 2.59922,5.875 5.84375,5.875 l 32.8125,0 c 3.24452,0 5.84375,-2.6305 5.84375,-5.875 l 0,-0.5625 c 0,3.2445 -2.59923,5.875 -5.84375,5.875 l -32.8125,0 C 4.349207,1050.0497 1.749987,1047.4192 1.749987,1044.1747 Z"
       id="path6388" />
  </g>
</svg>
