<?xml version="1.0" encoding="UTF-8" standalone="no"?>
<!-- Created with Inkscape (http://www.inkscape.org/) -->

<svg
   xmlns:dc="http://purl.org/dc/elements/1.1/"
   xmlns:cc="http://creativecommons.org/ns#"
   xmlns:rdf="http://www.w3.org/1999/02/22-rdf-syntax-ns#"
   xmlns:svg="http://www.w3.org/2000/svg"
   xmlns="http://www.w3.org/2000/svg"
   xmlns:xlink="http://www.w3.org/1999/xlink"
   xmlns:sodipodi="http://sodipodi.sourceforge.net/DTD/sodipodi-0.dtd"
   xmlns:inkscape="http://www.inkscape.org/namespaces/inkscape"
   width="48"
   height="48"
   id="svg1592"
   version="1.1"
   inkscape:version="0.48+devel r12149"
   sodipodi:docname="applications-education-miscellaneous.svg">
  <defs
     id="defs1594">
    <linearGradient
       y2="1012.6596"
       x2="25"
       y1="1050.3623"
       x1="25"
       gradientUnits="userSpaceOnUse"
       id="linearGradient1025"
       xlink:href="#linearGradient1041"
       inkscape:collect="always"
       gradientTransform="translate(0,-1004.3564)" />
    <linearGradient
       id="linearGradient1041"
       inkscape:collect="always">
      <stop
         id="stop1043"
         offset="0"
         style="stop-color:#e3e3d6;stop-opacity:1" />
      <stop
         id="stop1045"
         offset="1"
         style="stop-color:#ecece2;stop-opacity:1" />
    </linearGradient>
    <linearGradient
       gradientTransform="translate(0,-1004.3564)"
       y2="1010.7087"
       x2="25.544573"
       y1="1006.3608"
       x1="25.544573"
       gradientUnits="userSpaceOnUse"
       id="linearGradient1054"
       xlink:href="#linearGradient2120"
       inkscape:collect="always" />
    <linearGradient
       id="linearGradient2120">
      <stop
         id="stop2122"
         offset="0"
         style="stop-color:#0983b1;stop-opacity:1" />
      <stop
         id="stop2124"
         offset="1"
         style="stop-color:#6eb1d9;stop-opacity:1" />
    </linearGradient>
    <linearGradient
       id="linearGradient1068"
       inkscape:collect="always">
      <stop
         id="stop1070"
         offset="0"
         style="stop-color:#b9b9b9;stop-opacity:1" />
      <stop
         id="stop1072"
         offset="1"
         style="stop-color:#dadada;stop-opacity:1" />
    </linearGradient>
    <linearGradient
       y2="1008.7891"
       x2="24.863525"
       y1="1049.9988"
       x1="24.863525"
       gradientUnits="userSpaceOnUse"
       id="linearGradient1076"
       xlink:href="#linearGradient1068"
       inkscape:collect="always"
       gradientTransform="matrix(0.25850397,0,0,0.25850397,8.1537711,757.32419)" />
    <linearGradient
       y2="1008.7891"
       x2="24.863525"
       y1="1049.9988"
       x1="24.863525"
       gradientUnits="userSpaceOnUse"
       id="linearGradient1082"
       xlink:href="#linearGradient1068"
       inkscape:collect="always"
       gradientTransform="matrix(0.30406342,0,0,0.30406342,25.328602,709.45849)" />
    <linearGradient
       y2="1008.7891"
       x2="24.863525"
       y1="1049.9988"
       x1="24.863525"
       gradientUnits="userSpaceOnUse"
       id="linearGradient1098"
       xlink:href="#linearGradient1108"
       inkscape:collect="always"
       gradientTransform="matrix(0.25850397,0,0,0.25850397,8.1537711,773.7591)" />
    <linearGradient
       inkscape:collect="always"
       id="linearGradient1108">
      <stop
         style="stop-color:#ababab;stop-opacity:1"
         offset="0"
         id="stop1110" />
      <stop
         style="stop-color:#c9c9c9;stop-opacity:1"
         offset="1"
         id="stop1112" />
    </linearGradient>
    <linearGradient
       y2="1008.7891"
       x2="24.863525"
       y1="1049.9988"
       x1="24.863525"
       gradientUnits="userSpaceOnUse"
       id="linearGradient1118"
       xlink:href="#linearGradient1108"
       inkscape:collect="always"
       gradientTransform="matrix(0.25850397,0,0,0.25850397,26.422029,773.7591)" />
    <linearGradient
       gradientUnits="userSpaceOnUse"
       y2="1024.8539"
       x2="15.648608"
       y1="1019.6636"
       x1="15.648608"
       id="linearGradient1177"
       xlink:href="#linearGradient1179"
       inkscape:collect="always"
       gradientTransform="matrix(1.087988,0,0,1.087988,-2.6197173,-90.962763)" />
    <linearGradient
       inkscape:collect="always"
       id="linearGradient1179">
      <stop
         style="stop-color:#a1a1a1;stop-opacity:1"
         offset="0"
         id="stop1181" />
      <stop
         style="stop-color:#b9b9b9;stop-opacity:1"
         offset="1"
         id="stop1183" />
    </linearGradient>
    <linearGradient
       gradientTransform="matrix(1.2797381,0,0,1.2797381,12.650212,-288.33569)"
       y2="1024.8539"
       x2="15.648608"
       y1="1019.6636"
       x1="15.648608"
       gradientUnits="userSpaceOnUse"
       id="linearGradient1187"
       xlink:href="#linearGradient1179"
       inkscape:collect="always" />
    <linearGradient
       gradientTransform="matrix(1.087988,0,0,1.087988,-2.6249464,-74.530193)"
       y2="1024.8539"
       x2="15.648608"
       y1="1019.6636"
       x1="15.648608"
       gradientUnits="userSpaceOnUse"
       id="linearGradient1191"
       xlink:href="#linearGradient1179"
       inkscape:collect="always" />
    <linearGradient
       y2="1024.8539"
       x2="15.648608"
       y1="1019.6636"
       x1="15.648608"
       gradientTransform="matrix(1.087988,0,0,1.087988,15.643311,-74.530193)"
       gradientUnits="userSpaceOnUse"
       id="linearGradient1195"
       xlink:href="#linearGradient1179"
       inkscape:collect="always" />
    <linearGradient
       inkscape:collect="always"
       xlink:href="#linearGradient1041"
       id="linearGradient2126"
       gradientUnits="userSpaceOnUse"
       x1="1.6992435"
       y1="1028.3623"
       x2="46.300755"
       y2="1028.3623"
       gradientTransform="matrix(0.20277662,0,0,0.20277662,27.759485,813.61802)" />
  </defs>
  <sodipodi:namedview
     id="base"
     pagecolor="#ffffff"
     bordercolor="#666666"
     borderopacity="1.0"
     inkscape:pageopacity="0.0"
     inkscape:pageshadow="2"
     inkscape:zoom="7.4128954"
     inkscape:cx="14.361818"
     inkscape:cy="30.128163"
     inkscape:document-units="px"
     inkscape:current-layer="layer1"
     showgrid="false"
     inkscape:window-width="1366"
     inkscape:window-height="716"
     inkscape:window-x="0"
     inkscape:window-y="28"
     inkscape:window-maximized="1" />
  <metadata
     id="metadata1597">
    <rdf:RDF>
      <cc:Work
         rdf:about="">
        <dc:format>image/svg+xml</dc:format>
        <dc:type
           rdf:resource="http://purl.org/dc/dcmitype/StillImage" />
        <dc:title />
      </cc:Work>
    </rdf:RDF>
  </metadata>
  <g
     inkscape:label="Capa 1"
     inkscape:groupmode="layer"
     id="layer1"
     transform="translate(0,-1004.3622)">
    <rect
       style="color:#000000;fill:#333333;fill-opacity:1;fill-rule:nonzero;stroke:none;stroke-width:0.2;marker:none;visibility:visible;display:inline;overflow:visible;enable-background:accumulate"
       id="rect6294"
       width="45.5"
       height="45.5"
       x="1.25"
       y="1005.6122"
       ry="6.3565426" />
    <path
       style="fill:url(#linearGradient1025);fill-opacity:1;stroke:none"
       d="M 7.59375 1.75 C 4.3492254 1.75 1.75 4.3492254 1.75 7.59375 L 1.75 40.40625 C 1.75 43.650775 4.3492254 46.25 7.59375 46.25 L 40.40625 46.25 C 43.650775 46.25 46.25 43.650775 46.25 40.40625 L 46.25 7.59375 C 46.25 4.3492254 43.650775 1.75 40.40625 1.75 L 7.59375 1.75 z "
       transform="translate(0,1004.3622)"
       id="rect2992-3" />
    <rect
       style="fill:url(#linearGradient1076);fill-opacity:1;stroke:none"
       id="rect1062"
       width="11.529669"
       height="11.529669"
       x="8.5930319"
       y="1017.395"
       ry="1.4671484" />
    <rect
       ry="1.7257229"
       y="1015.365"
       x="25.84528"
       height="13.561688"
       width="13.561688"
       id="rect1080"
       style="fill:url(#linearGradient1082);fill-opacity:1;stroke:none" />
    <rect
       ry="1.4671484"
       y="1033.83"
       x="8.5930319"
       height="11.529669"
       width="11.529669"
       id="rect1096"
       style="fill:url(#linearGradient1098);fill-opacity:1;stroke:none" />
    <rect
       style="fill:url(#linearGradient1118);fill-opacity:1;stroke:none"
       id="rect1116"
       width="11.529669"
       height="11.529669"
       x="26.861288"
       y="1033.83"
       ry="1.4671484" />
    <path
       style="fill:url(#linearGradient1177);fill-opacity:1;stroke:none"
       d="m 9.7561467,1017.4037 c -0.669759,0.1365 -1.155988,0.7509 -1.155988,1.4621 l 0,8.6018 c 0,0.8129 0.649183,1.4621 1.4619843,1.4621 l 0.305997,0 c -0.7570683,0 -1.3939853,-0.6291 -1.3939853,-1.3941 l 0,-8.0919 c 0,-0.7651 0.636917,-1.36 1.3939853,-1.36 l 7.989912,0 c 0.757068,0 1.359985,0.5949 1.359985,1.36 l 0,8.0919 c 0,0.765 -0.602917,1.3941 -1.359985,1.3941 l 0.305996,0 c 0.8128,0 1.461984,-0.6492 1.461984,-1.4621 l 0,-8.6018 c 0,-0.8129 -0.649184,-1.4621 -1.461984,-1.4621 l -8.601905,0 C 9.9605467,1017.4037 9.8518257,1017.3842 9.7561467,1017.4037 Z"
       id="rect1154"
       inkscape:connector-curvature="0" />
    <path
       inkscape:connector-curvature="0"
       id="path1185"
       d="m 27.207233,1015.3724 c -0.787799,0.1604 -1.359722,0.8831 -1.359722,1.7197 l 0,10.1179 c 0,0.956 0.763597,1.7197 1.719648,1.7197 l 0.359926,0 c -0.890496,0 -1.639664,-0.74 -1.639664,-1.6397 l 0,-9.5181 c 0,-0.9 0.749168,-1.5997 1.639664,-1.5997 l 9.398076,0 c 0.890495,0 1.599673,0.6997 1.599673,1.5997 l 0,9.5181 c 0,0.8997 -0.709178,1.6397 -1.599673,1.6397 l 0.359926,0 c 0.95605,0 1.719649,-0.7637 1.719649,-1.7197 l 0,-10.1179 c 0,-0.9561 -0.763599,-1.7197 -1.719649,-1.7197 l -10.117928,0 C 27.447656,1015.3724 27.319775,1015.3495 27.207233,1015.3724 Z"
       style="fill:url(#linearGradient1187);fill-opacity:1;stroke:none" />
    <path
       inkscape:connector-curvature="0"
       id="path1189"
       d="m 9.7509177,1033.8363 c -0.669759,0.1364 -1.155987,0.7508 -1.155987,1.462 l 0,8.6019 c 0,0.8128 0.649182,1.462 1.4619833,1.462 l 0.305997,0 c -0.7570683,0 -1.3939853,-0.6291 -1.3939853,-1.394 l 0,-8.0919 c 0,-0.7651 0.636917,-1.36 1.3939853,-1.36 l 7.989912,0 c 0.757068,0 1.359985,0.5949 1.359985,1.36 l 0,8.0919 c 0,0.7649 -0.602917,1.394 -1.359985,1.394 l 0.305997,0 c 0.8128,0 1.461983,-0.6492 1.461983,-1.462 l 0,-8.6019 c 0,-0.8128 -0.649183,-1.462 -1.461983,-1.462 l -8.601906,0 C 9.9553177,1033.8363 9.8465977,1033.8167 9.7509177,1033.8363 Z"
       style="fill:url(#linearGradient1191);fill-opacity:1;stroke:none" />
    <path
       style="fill:url(#linearGradient1195);fill-opacity:1;stroke:none"
       d="m 28.019174,1033.8363 c -0.669759,0.1364 -1.155987,0.7508 -1.155987,1.462 l 0,8.6019 c 0,0.8128 0.649183,1.462 1.461984,1.462 l 0.305997,0 c -0.757068,0 -1.393985,-0.6291 -1.393985,-1.394 l 0,-8.0919 c 0,-0.7651 0.636917,-1.36 1.393985,-1.36 l 7.989911,0 c 0.757068,0 1.359985,0.5949 1.359985,1.36 l 0,8.0919 c 0,0.7649 -0.602917,1.394 -1.359985,1.394 l 0.305997,0 c 0.8128,0 1.461984,-0.6492 1.461984,-1.462 l 0,-8.6019 c 0,-0.8128 -0.649184,-1.462 -1.461984,-1.462 l -8.601905,0 C 28.223575,1033.8363 28.114854,1033.8167 28.019174,1033.8363 Z"
       id="path1193"
       inkscape:connector-curvature="0" />
    <rect
       style="fill:url(#linearGradient2126);fill-opacity:1;stroke:none"
       id="rect1199"
       width="9.0441437"
       height="9.0441437"
       x="28.104052"
       y="1017.6237"
       ry="1.1508659" />
    <path
       style="fill:url(#linearGradient1054);fill-opacity:1;stroke:none"
       d="M 7.59375 1.75 C 4.3492254 1.75 1.75 4.3492254 1.75 7.59375 L 1.75 8.125 L 46.25 8.125 L 46.25 7.59375 C 46.25 4.3492254 43.650775 1.75 40.40625 1.75 L 7.59375 1.75 z "
       transform="translate(0,1004.3622)"
       id="rect1049" />
    <path
       id="path6361"
       d="m 1.7499873,1012.5497 0,-0.5625 c 0,-3.2445 2.59922,-5.875 5.84375,-5.875 l 32.8124997,0 c 3.24452,0 5.84375,2.6305 5.84375,5.875 l 0,0.5625 c 0,-3.2445 -2.59923,-5.875 -5.84375,-5.875 l -32.8124997,0 C 4.3492073,1006.6747 1.7499873,1009.3052 1.7499873,1012.5497 Z"
       style="color:#000000;fill:#ffffff;fill-opacity:1;fill-rule:nonzero;stroke:none;stroke-width:0.2;marker:none;visibility:visible;display:inline;overflow:visible;enable-background:accumulate"
       inkscape:connector-curvature="0" />
    <path
       inkscape:connector-curvature="0"
       style="color:#000000;fill:#000000;fill-opacity:1;fill-rule:nonzero;stroke:none;stroke-width:0.2;marker:none;visibility:visible;display:inline;overflow:visible;enable-background:accumulate"
       d="m 1.7499873,1044.1747 0,0.5625 c 0,3.2445 2.59922,5.875 5.84375,5.875 l 32.8124997,0 c 3.24452,0 5.84375,-2.6305 5.84375,-5.875 l 0,-0.5625 c 0,3.2445 -2.59923,5.875 -5.84375,5.875 l -32.8124997,0 C 4.3492073,1050.0497 1.7499873,1047.4192 1.7499873,1044.1747 Z"
       id="path6388" />
  </g>
</svg>
