<?xml version="1.0" encoding="UTF-8" standalone="no"?>
<!-- Created with Inkscape (http://www.inkscape.org/) -->

<svg
   xmlns:dc="http://purl.org/dc/elements/1.1/"
   xmlns:cc="http://creativecommons.org/ns#"
   xmlns:rdf="http://www.w3.org/1999/02/22-rdf-syntax-ns#"
   xmlns:svg="http://www.w3.org/2000/svg"
   xmlns="http://www.w3.org/2000/svg"
   xmlns:xlink="http://www.w3.org/1999/xlink"
   xmlns:sodipodi="http://sodipodi.sourceforge.net/DTD/sodipodi-0.dtd"
   xmlns:inkscape="http://www.inkscape.org/namespaces/inkscape"
   width="48"
   height="48"
   id="svg2"
   version="1.1"
   inkscape:version="0.48.3.1 r9886"
   sodipodi:docname="applications-development.svg">
  <defs
     id="defs4">
    <linearGradient
       y2="1012.6596"
       x2="25"
       y1="1050.3623"
       x1="25"
       gradientUnits="userSpaceOnUse"
       id="linearGradient1025"
       xlink:href="#linearGradient3803-9"
       inkscape:collect="always"
       gradientTransform="translate(-2.3730774e-8,-2.0859253e-4)" />
    <linearGradient
       id="linearGradient3803-9">
      <stop
         style="stop-color:#d3d3d3;stop-opacity:1"
         offset="0"
         id="stop3805-8" />
      <stop
         id="stop3811-2"
         offset="0.5"
         style="stop-color:#ffffff;stop-opacity:1" />
      <stop
         style="stop-color:#ffffff;stop-opacity:1"
         offset="1"
         id="stop3807-3" />
    </linearGradient>
    <linearGradient
       inkscape:collect="always"
       xlink:href="#linearGradient3803-9"
       id="linearGradient931"
       gradientUnits="userSpaceOnUse"
       gradientTransform="translate(-2.3730774e-8,-1004.3623)"
       x1="25"
       y1="1050.3623"
       x2="25"
       y2="1012.6596" />
    <linearGradient
       inkscape:collect="always"
       xlink:href="#linearGradient3803-9"
       id="linearGradient13025"
       gradientUnits="userSpaceOnUse"
       gradientTransform="translate(-2.3730774e-8,-1004.3623)"
       x1="25"
       y1="1050.3623"
       x2="25"
       y2="1012.6596" />
  </defs>
  <sodipodi:namedview
     id="base"
     pagecolor="#ffffff"
     bordercolor="#666666"
     borderopacity="1.0"
     inkscape:pageopacity="0.0"
     inkscape:pageshadow="2"
     inkscape:zoom="8"
     inkscape:cx="26.447359"
     inkscape:cy="19.935929"
     inkscape:document-units="px"
     inkscape:current-layer="layer1"
     showgrid="false"
     inkscape:window-width="1366"
     inkscape:window-height="716"
     inkscape:window-x="0"
     inkscape:window-y="28"
     inkscape:window-maximized="1">
    <inkscape:grid
       type="xygrid"
       id="grid3850" />
  </sodipodi:namedview>
  <metadata
     id="metadata7">
    <rdf:RDF>
      <cc:Work
         rdf:about="">
        <dc:format>image/svg+xml</dc:format>
        <dc:type
           rdf:resource="http://purl.org/dc/dcmitype/StillImage" />
        <dc:title />
      </cc:Work>
    </rdf:RDF>
  </metadata>
  <g
     inkscape:label="Capa 1"
     inkscape:groupmode="layer"
     id="layer1"
     transform="translate(0,-1004.3622)">
    <rect
       style="color:#000000;fill:#333333;fill-opacity:1;fill-rule:nonzero;stroke:none;stroke-width:0.2;marker:none;visibility:visible;display:inline;overflow:visible;enable-background:accumulate"
       id="rect6294"
       width="45.5"
       height="45.5"
       x="1.25"
       y="1005.6122"
       ry="6.3565426" />
    <rect
       ry="5.8565426"
       y="1006.1122"
       x="1.75"
       height="44.5"
       width="44.5"
       id="rect6296"
       style="color:#000000;fill:#f9f9f9;fill-opacity:1;fill-rule:nonzero;stroke:none;stroke-width:0.2;marker:none;visibility:visible;display:inline;overflow:visible;enable-background:accumulate" />
    <g
       id="g1206"
       transform="matrix(0.14431097,-0.14431097,0.14431097,0.14431097,-90.142477,884.15209)">
      <path
         inkscape:connector-curvature="0"
         id="rect1160"
         d="m -120.92187,798.76845 c -11.76997,5.75777 -19.875,17.82669 -19.875,31.8125 0,11.72861 5.71362,22.14261 14.5,28.59375 l 0,22.78125 0,66.78125 0,26.53125 c 0,10.03443 8.05932,18.125 18.09375,18.125 l 5.625,0 c 10.03442,0 18.125,-8.09057 18.125,-18.125 l 0,-26.53125 0,-66.78125 0,-22.78125 c 8.78922,-6.44998 14.5,-16.85586 14.5,-28.59375 0,-13.98581 -8.10503,-26.05473 -19.875,-31.8125 l 0,25.90625 c 0,5.72881 -3.07661,10.70479 -7.65625,13.40625 -4.60857,0 -11.22232,-0.0312 -15.8125,-0.0312 -4.56839,-2.70645 -7.625,-7.66161 -7.625,-13.375 z m 15.53125,162.09375 c 6.55838,0 11.875,5.31662 11.875,11.875 0,6.55838 -5.31662,11.875 -11.875,11.875 -6.55838,0 -11.875,-5.31662 -11.875,-11.875 0,-6.55838 5.31662,-11.875 11.875,-11.875 z"
         style="fill:#6cbdec;fill-opacity:1;stroke:none"
         sodipodi:nodetypes="cscccsssscccscsccscsssss" />
      <g
         transform="translate(235,-41.40625)"
         id="g1202">
        <path
           style="fill:#69696b;fill-opacity:1;stroke:none"
           d="m -412,924.6122 -34.625,6.75 -0.125,0 0,11.5 0.21875,0 35.90625,7.5 6.9375,-6.9375 0.0625,-0.5625 35.625,0 0,-11.5 -34.625,0 z"
           id="rect1178"
           inkscape:connector-curvature="0"
           sodipodi:nodetypes="cccccccccccc" />
        <path
           style="fill:#2e74a5;fill-opacity:1;stroke:none"
           d="m -310.75,918.8622 0,7 c 0.14667,-0.0154 0.28661,-0.0625 0.4375,-0.0625 l 57.25,0 c 2.31987,0 4.1875,1.86762 4.1875,4.1875 0,2.31988 -1.86763,4.1875 -4.1875,4.1875 l -57.25,0 c -0.15089,0 -0.29083,-0.0471 -0.4375,-0.0625 l 0,6.75 c 0.14667,-0.0154 0.28661,-0.0625 0.4375,-0.0625 l 57.25,0 c 2.31987,0 4.1875,1.86762 4.1875,4.1875 0,2.31988 -1.86763,4.1875 -4.1875,4.1875 l -57.25,0 c -0.15089,0 -0.29083,-0.0471 -0.4375,-0.0625 l 0,7 16.0625,0 25.0625,0 20.3125,0 c 8.47548,0 15.3125,-6.80577 15.3125,-15.28125 l 0,-6.6875 c 0,-8.47548 -6.83702,-15.28125 -15.3125,-15.28125 l -20.3125,0 -25.0625,0 -16.0625,0 z"
           id="rect1183"
           inkscape:connector-curvature="0" />
      </g>
    </g>
    <path
       style="fill:url(#linearGradient13025);fill-opacity:1;stroke:none;stroke-width:0.39848711999999997;stroke-miterlimit:4;stroke-opacity:1;stroke-dasharray:none"
       d="M 7.59375 1.75 C 4.3492254 1.75 1.75 4.3492254 1.75 7.59375 L 1.75 40.40625 C 1.75 43.650775 4.3492254 46.25 7.59375 46.25 L 40.40625 46.25 C 43.650775 46.25 46.25 43.650775 46.25 40.40625 L 46.25 7.59375 C 46.25 4.3492254 43.650775 1.75 40.40625 1.75 L 7.59375 1.75 z M 10.34375 5.21875 L 37.65625 5.21875 C 40.303707 5.21875 42.4375 7.3525432 42.4375 10 L 42.4375 38 C 42.4375 40.647457 40.303707 42.78125 37.65625 42.78125 L 10.34375 42.78125 C 7.6962932 42.78125 5.5625 40.647457 5.5625 38 L 5.5625 10 C 5.5625 7.3525432 7.6962932 5.21875 10.34375 5.21875 z "
       transform="translate(0,1004.3622)"
       id="rect2992" />
    <path
       style="fill:#000000;fill-opacity:1;stroke:none"
       d="M 1.75 31.09375 L 1.75 40.40625 C 1.75 42.788948 3.1541347 44.802274 5.1875 45.71875 C 5.2307631 45.738249 5.2686789 45.762777 5.3125 45.78125 C 5.375645 45.804192 5.4347779 45.821999 5.5 45.84375 C 6.032941 46.02148 6.6317308 46.157025 7.3125 46.25 C 7.4071361 46.254503 7.4979603 46.25 7.59375 46.25 L 16.875 46.25 L 13.40625 42.78125 L 10.34375 42.78125 C 7.6962932 42.78125 5.5625 40.647457 5.5625 38 L 5.5625 34.90625 L 1.75 31.09375 z "
       transform="translate(0,1004.3622)"
       id="rect934" />
    <path
       style="fill:#ffcc00;fill-opacity:1;stroke:none"
       d="M 1.75 22.03125 L 1.75 31.09375 L 5.5625 34.90625 L 5.5625 25.84375 L 1.75 22.03125 z M 13.40625 42.78125 L 16.875 46.25 L 26 46.25 L 22.53125 42.78125 L 13.40625 42.78125 z "
       transform="translate(0,1004.3622)"
       id="rect938" />
    <path
       style="fill:#000000;fill-opacity:1;stroke:none"
       d="M 1.75 12.90625 L 1.75 22.03125 L 5.5625 25.84375 L 5.5625 16.71875 L 1.75 12.90625 z M 22.53125 42.78125 L 26 46.25 L 35.09375 46.25 L 31.625 42.78125 L 22.53125 42.78125 z "
       transform="translate(0,1004.3622)"
       id="rect940" />
    <path
       style="fill:#ffcc00;fill-opacity:1;stroke:none"
       d="M 2.71875 4.4375 C 2.636233 4.5653929 2.5464559 4.6855897 2.46875 4.8125 C 2.4620038 4.8249495 2.4441584 4.8312457 2.4375 4.84375 C 2.0002623 5.6648651 1.75 6.5950448 1.75 7.59375 L 1.75 12.90625 L 5.5625 16.71875 L 5.5625 10 C 5.5625 9.3032209 5.8901788 8.5648324 6.15625 7.96875 L 2.71875 4.4375 z M 40.1875 42.09375 C 39.481895 42.503526 38.533676 42.78125 37.65625 42.78125 L 31.625 42.78125 L 35.09375 46.25 L 40.40625 46.25 C 40.811816 46.25 41.180566 46.202759 41.5625 46.125 C 41.70067 46.096869 41.834362 46.068868 41.96875 46.03125 C 42.01912 46.017288 42.075149 46.014777 42.125 46 C 42.155027 45.9907 42.188935 45.978517 42.21875 45.96875 C 42.383985 45.91726 42.533039 45.849671 42.6875 45.78125 C 42.731321 45.762777 42.769237 45.738249 42.8125 45.71875 C 43.004495 45.623349 43.183038 45.51956 43.34375 45.375 L 40.1875 42.09375 z "
       transform="translate(0,1004.3622)"
       id="rect927" />
    <path
       style="fill:#000000;fill-opacity:1;stroke:none"
       d="M 7.59375 1.75 C 7.1881844 1.75 6.8194335 1.7972407 6.4375 1.875 C 5.9733302 2.0133956 5.5238288 2.1505874 5.09375 2.34375 C 4.9116793 2.430135 4.7335388 2.5209856 4.5625 2.625 C 4.5136072 2.6517167 4.4541338 2.6597179 4.40625 2.6875 C 4.355925 2.7200765 4.2992365 2.7471847 4.25 2.78125 C 3.6703639 3.182284 3.182284 3.6703639 2.78125 4.25 C 2.7681069 4.2689965 2.7629229 4.2933401 2.75 4.3125 C 2.7266381 4.3552769 2.7092213 4.3934236 2.6875 4.4375 L 6.03125 7.9375 C 6.7979451 6.3240287 8.4333002 5.21875 10.34375 5.21875 L 12.4375 5.21875 L 8.96875 1.75 L 7.59375 1.75 z M 42.4375 35.25 L 42.4375 38 C 42.4375 39.729803 41.526211 41.223184 40.15625 42.0625 L 43.375 45.40625 C 44.284056 44.867988 45.026783 44.118443 45.53125 43.1875 C 45.587469 43.083754 45.637483 42.982446 45.6875 42.875 C 45.917021 42.319339 46.087585 41.728544 46.1875 41.125 C 46.191656 41.09145 46.21516 41.064977 46.21875 41.03125 C 46.220364 41.02075 46.217175 41.010501 46.21875 41 C 46.238673 40.802642 46.25 40.609033 46.25 40.40625 L 46.25 39.125 L 42.4375 35.25 z "
       transform="translate(0,1004.3622)"
       id="rect930" />
    <path
       style="fill:#ffcc00;fill-opacity:1;stroke:none"
       d="M 8.96875 1.75 L 12.4375 5.21875 L 21.5 5.21875 L 18.03125 1.75 L 8.96875 1.75 z M 42.4375 26.15625 L 42.4375 35.25 L 46.25 39.125 L 46.25 29.96875 L 42.4375 26.15625 z "
       transform="translate(0,1004.3622)"
       id="rect932" />
    <path
       style="fill:#000000;fill-opacity:1;stroke:none"
       d="M 18.03125 1.75 L 21.5 5.21875 L 30.625 5.21875 L 27.15625 1.75 L 18.03125 1.75 z M 42.4375 17.0625 L 42.4375 26.15625 L 46.25 29.96875 L 46.25 20.875 L 42.4375 17.0625 z "
       transform="translate(0,1004.3622)"
       id="rect935" />
    <path
       style="fill:#ffcc00;fill-opacity:1;stroke:none"
       d="M 27.15625 1.75 L 30.625 5.21875 L 37.65625 5.21875 C 40.303707 5.21875 42.4375 7.3525432 42.4375 10 L 42.4375 17.0625 L 46.25 20.875 L 46.25 11.75 L 36.21875 1.75 L 27.15625 1.75 z "
       transform="translate(0,1004.3622)"
       id="rect937" />
    <path
       style="fill:#000000;fill-opacity:1;stroke:none"
       d="M 36.21875 1.75 L 46.25 11.75 L 46.25 7.59375 C 46.25 4.3492254 43.650775 1.75 40.40625 1.75 L 36.21875 1.75 z M 39.15625 5.46875 L 42.03125 8.0625 C 41.489624 6.8298012 40.44798 5.892654 39.15625 5.46875 z "
       transform="translate(0,1004.3622)"
       id="rect949" />
    <path
       transform="translate(0,1004.3622)"
       id="path980"
       d="M 7.375 1.6875 C 4.2307532 1.6875 1.6875 4.2307532 1.6875 7.375 L 1.6875 40.625 C 1.6875 43.769247 4.2307532 46.3125 7.375 46.3125 L 40.625 46.3125 C 43.769247 46.3125 46.3125 43.769247 46.3125 40.625 L 46.3125 7.375 C 46.3125 4.2307532 43.769247 1.6875 40.625 1.6875 L 7.375 1.6875 z M 10.34375 5.21875 L 37.65625 5.21875 C 40.303707 5.21875 42.4375 7.3525432 42.4375 10 L 42.4375 38 C 42.4375 40.647457 40.303707 42.78125 37.65625 42.78125 L 10.34375 42.78125 C 7.6962932 42.78125 5.5625 40.647457 5.5625 38 L 5.5625 10 C 5.5625 7.3525432 7.6962932 5.21875 10.34375 5.21875 z "
       style="fill:none;fill-opacity:1;stroke:none;stroke-width:0.39848711999999997;stroke-miterlimit:4;stroke-opacity:1;stroke-dasharray:none" />
    <path
       id="path6361"
       d="m 1.7499884,1012.5497 0,-0.5625 c 0,-3.2445 2.59922,-5.875 5.84375,-5.875 l 32.8124996,0 c 3.24452,0 5.84375,2.6305 5.84375,5.875 l 0,0.5625 c 0,-3.2445 -2.59923,-5.875 -5.84375,-5.875 l -32.8124996,0 c -3.24453,0 -5.84375,2.6305 -5.84375,5.875 z"
       style="color:#000000;fill:#ffffff;fill-opacity:1;fill-rule:nonzero;stroke:none;stroke-width:0.2;marker:none;visibility:visible;display:inline;overflow:visible;enable-background:accumulate"
       inkscape:connector-curvature="0" />
    <path
       inkscape:connector-curvature="0"
       style="color:#000000;fill:#000000;fill-opacity:1;fill-rule:nonzero;stroke:none;stroke-width:0.2;marker:none;visibility:visible;display:inline;overflow:visible;enable-background:accumulate"
       d="m 1.7499884,1044.1747 0,0.5625 c 0,3.2445 2.59922,5.875 5.84375,5.875 l 32.8124996,0 c 3.24452,0 5.84375,-2.6305 5.84375,-5.875 l 0,-0.5625 c 0,3.2445 -2.59923,5.875 -5.84375,5.875 l -32.8124996,0 c -3.24453,0 -5.84375,-2.6305 -5.84375,-5.875 z"
       id="path6388" />
  </g>
</svg>
