<?xml version="1.0" encoding="UTF-8" standalone="no"?>
<!-- Created with Inkscape (http://www.inkscape.org/) -->

<svg
   xmlns:dc="http://purl.org/dc/elements/1.1/"
   xmlns:cc="http://creativecommons.org/ns#"
   xmlns:rdf="http://www.w3.org/1999/02/22-rdf-syntax-ns#"
   xmlns:svg="http://www.w3.org/2000/svg"
   xmlns="http://www.w3.org/2000/svg"
   xmlns:xlink="http://www.w3.org/1999/xlink"
   xmlns:sodipodi="http://sodipodi.sourceforge.net/DTD/sodipodi-0.dtd"
   xmlns:inkscape="http://www.inkscape.org/namespaces/inkscape"
   width="48"
   height="48"
   id="svg2"
   version="1.1"
   inkscape:version="0.48+devel r12149"
   sodipodi:docname="applications-system.svg">
  <defs
     id="defs4">
    <linearGradient
       id="linearGradient834"
       y2="745.96997"
       gradientUnits="userSpaceOnUse"
       x2="190.87"
       y1="715.69"
       x1="177.02">
      <stop
         id="stop836"
         style="stop-color:#828282;stop-opacity:1"
         offset="0" />
      <stop
         id="stop838"
         style="stop-color:#111111;stop-opacity:1"
         offset="1" />
    </linearGradient>
    <linearGradient
       inkscape:collect="always"
       xlink:href="#linearGradient834"
       id="linearGradient8444"
       x1="23.07748"
       y1="1005.9116"
       x2="23.07748"
       y2="1050.636"
       gradientUnits="userSpaceOnUse"
       gradientTransform="translate(0,-1004.3622)" />
    <linearGradient
       inkscape:collect="always"
       xlink:href="#linearGradient4215"
       id="linearGradient1045"
       x1="23.73313"
       y1="1045.156"
       x2="23.73313"
       y2="1012.5406"
       gradientUnits="userSpaceOnUse" />
    <linearGradient
       id="linearGradient4215">
      <stop
         id="stop4217"
         offset="0"
         style="stop-color:#dcdcdc;stop-opacity:1;" />
      <stop
         id="stop4219"
         offset="1"
         style="stop-color:#f0f0f0;stop-opacity:1;" />
    </linearGradient>
    <linearGradient
       inkscape:collect="always"
       xlink:href="#linearGradient4223"
       id="linearGradient1063"
       x1="11.093596"
       y1="1044.8024"
       x2="11.093596"
       y2="1011.2148"
       gradientUnits="userSpaceOnUse" />
    <linearGradient
       id="linearGradient4223">
      <stop
         id="stop4225"
         offset="0"
         style="stop-color:#505050;stop-opacity:1;" />
      <stop
         id="stop4227"
         offset="1"
         style="stop-color:#6f6f6f;stop-opacity:1;" />
    </linearGradient>
    <linearGradient
       inkscape:collect="always"
       xlink:href="#linearGradient4215"
       id="linearGradient1138"
       gradientUnits="userSpaceOnUse"
       x1="23.73313"
       y1="1045.156"
       x2="23.73313"
       y2="1012.5406" />
    <linearGradient
       inkscape:collect="always"
       xlink:href="#linearGradient4223"
       id="linearGradient1140"
       gradientUnits="userSpaceOnUse"
       x1="11.093596"
       y1="1044.8024"
       x2="11.093596"
       y2="1011.2148" />
    <linearGradient
       y2="8.0928917"
       x2="38.976662"
       y1="59.967686"
       x1="38.976662"
       gradientTransform="matrix(0.07701819,-0.07674247,0.07674247,0.07701819,18.926195,1028.1994)"
       gradientUnits="userSpaceOnUse"
       id="linearGradient3162"
       xlink:href="#linearGradient4215"
       inkscape:collect="always" />
    <linearGradient
       y2="7.8025136"
       x2="21.346498"
       y1="59.968513"
       x1="21.346498"
       gradientTransform="matrix(0.07701819,-0.07674247,0.07674247,0.07701819,18.926195,1028.1994)"
       gradientUnits="userSpaceOnUse"
       id="linearGradient3164"
       xlink:href="#linearGradient4223"
       inkscape:collect="always" />
    <linearGradient
       y2="43.879253"
       x2="70.455208"
       y1="7.0169754"
       x1="78.276962"
       gradientTransform="matrix(0.77715859,-0.2878658,0.2878658,0.77715859,-39.046384,1029.2058)"
       gradientUnits="userSpaceOnUse"
       id="linearGradient3152"
       xlink:href="#linearGradient4011-9"
       inkscape:collect="always" />
    <linearGradient
       id="linearGradient4011-9">
      <stop
         offset="0"
         style="stop-color:#ffffff;stop-opacity:1;"
         id="stop4013-5" />
      <stop
         id="stop4015-1"
         style="stop-color:#666666;stop-opacity:1"
         offset="0.507761" />
      <stop
         offset="0.83456558"
         style="stop-color:#ffffff;stop-opacity:1"
         id="stop4017-7" />
      <stop
         offset="1"
         style="stop-color:#ffffff;stop-opacity:1"
         id="stop4019-1" />
    </linearGradient>
  </defs>
  <sodipodi:namedview
     id="base"
     pagecolor="#ffffff"
     bordercolor="#666666"
     borderopacity="1.0"
     inkscape:pageopacity="0.0"
     inkscape:pageshadow="2"
     inkscape:zoom="5.6568542"
     inkscape:cx="12.249778"
     inkscape:cy="32.02772"
     inkscape:document-units="px"
     inkscape:current-layer="layer1"
     showgrid="false"
     inkscape:window-width="1366"
     inkscape:window-height="716"
     inkscape:window-x="0"
     inkscape:window-y="28"
     inkscape:window-maximized="1" />
  <metadata
     id="metadata7">
    <rdf:RDF>
      <cc:Work
         rdf:about="">
        <dc:format>image/svg+xml</dc:format>
        <dc:type
           rdf:resource="http://purl.org/dc/dcmitype/StillImage" />
        <dc:title />
      </cc:Work>
    </rdf:RDF>
  </metadata>
  <g
     inkscape:label="Capa 1"
     inkscape:groupmode="layer"
     id="layer1"
     transform="translate(0,-1004.3622)">
    <rect
       style="color:#000000;fill:#333333;fill-opacity:1;fill-rule:nonzero;stroke:none;stroke-width:0.2;marker:none;visibility:visible;display:inline;overflow:visible;enable-background:accumulate"
       id="rect6294"
       width="45.5"
       height="45.5"
       x="1.25"
       y="1005.6122"
       ry="6.3565426" />
    <path
       style="fill:url(#linearGradient8444);fill-opacity:1;stroke:none"
       d="M 7.59375 1.75 C 4.3492254 1.75 1.75 4.3492254 1.75 7.59375 L 1.75 40.40625 C 1.75 43.650775 4.3492254 46.25 7.59375 46.25 L 40.40625 46.25 C 43.650775 46.25 46.25 43.650775 46.25 40.40625 L 46.25 7.59375 C 46.25 4.3492254 43.650775 1.75 40.40625 1.75 L 7.59375 1.75 z "
       transform="translate(0,1004.3622)"
       id="rect2991" />
    <path
       style="fill:#000000;fill-opacity:1;stroke:none"
       d="M 7.59375 1.75 C 7.1881844 1.75 6.8194335 1.7972407 6.4375 1.875 L 6.625 2.25 L 7.53125 2.25 L 7.8125 1.75 L 7.59375 1.75 z M 8.28125 1.75 L 7.875 2.40625 L 8.34375 3.15625 L 9.21875 3.15625 L 9.65625 2.40625 L 9.28125 1.75 L 8.28125 1.75 z M 9.84375 1.75 L 10.0625 2.125 L 10.9375 2.125 L 11.1875 1.75 L 9.84375 1.75 z M 11.65625 1.75 L 11.3125 2.375 L 11.75 3.15625 L 12.625 3.15625 L 13.09375 2.375 L 12.71875 1.75 L 11.65625 1.75 z M 13.09375 1.75 L 13.40625 2.25 L 14.28125 2.25 L 14.5625 1.75 L 13.09375 1.75 z M 15.03125 1.75 L 14.625 2.40625 L 15.09375 3.15625 L 15.96875 3.15625 L 16.40625 2.40625 L 16.03125 1.75 L 15.03125 1.75 z M 16.59375 1.75 L 16.8125 2.125 L 17.6875 2.125 L 17.9375 1.75 L 16.59375 1.75 z M 18.40625 1.75 L 18.0625 2.375 L 18.5 3.15625 L 19.40625 3.15625 L 19.84375 2.375 L 19.46875 1.75 L 18.40625 1.75 z M 19.90625 1.75 L 20.1875 2.25 L 21.0625 2.25 L 21.34375 1.75 L 19.90625 1.75 z M 21.8125 1.75 L 21.4375 2.40625 L 21.875 3.15625 L 22.75 3.15625 L 23.1875 2.40625 L 22.8125 1.75 L 21.8125 1.75 z M 23.375 1.75 L 23.59375 2.125 L 24.5 2.125 L 24.71875 1.75 L 23.375 1.75 z M 25.1875 1.75 L 24.84375 2.375 L 25.28125 3.15625 L 26.1875 3.15625 L 26.625 2.375 L 26.28125 1.75 L 25.1875 1.75 z M 26.65625 1.75 L 26.9375 2.25 L 27.8125 2.25 L 28.09375 1.75 L 26.65625 1.75 z M 28.5625 1.75 L 28.1875 2.40625 L 28.625 3.15625 L 29.5 3.15625 L 29.96875 2.40625 L 29.5625 1.75 L 28.5625 1.75 z M 30.125 1.75 L 30.34375 2.125 L 31.25 2.125 L 31.46875 1.75 L 30.125 1.75 z M 31.9375 1.75 L 31.59375 2.375 L 32.03125 3.15625 L 32.9375 3.15625 L 33.375 2.375 L 33.03125 1.75 L 31.9375 1.75 z M 33.4375 1.75 L 33.71875 2.25 L 34.59375 2.25 L 34.90625 1.75 L 33.4375 1.75 z M 35.34375 1.75 L 34.96875 2.40625 L 35.40625 3.15625 L 36.28125 3.15625 L 36.75 2.40625 L 36.375 1.75 L 35.34375 1.75 z M 36.90625 1.75 L 37.15625 2.125 L 38.03125 2.125 L 38.25 1.75 L 36.90625 1.75 z M 38.71875 1.75 L 38.375 2.375 L 38.84375 3.15625 L 39.71875 3.15625 L 40.15625 2.375 L 39.8125 1.75 L 38.71875 1.75 z M 40.1875 1.75 L 40.46875 2.25 L 41.34375 2.25 L 41.5625 1.875 C 41.180566 1.7972407 40.811816 1.75 40.40625 1.75 L 40.1875 1.75 z M 6.0625 1.96875 C 5.5609665 2.1062998 5.0624668 2.3049972 4.625 2.5625 L 4.96875 3.15625 L 5.84375 3.15625 L 6.28125 2.375 L 6.0625 1.96875 z M 41.96875 1.96875 L 41.71875 2.40625 L 42.15625 3.15625 L 43.03125 3.15625 L 43.375 2.59375 C 42.942515 2.3376708 42.464334 2.1074748 41.96875 1.96875 z M 10.0625 2.53125 L 9.625 3.28125 L 10.0625 4.0625 L 10.9375 4.0625 L 11.40625 3.28125 L 10.9375 2.53125 L 10.0625 2.53125 z M 16.8125 2.53125 L 16.375 3.28125 L 16.8125 4.0625 L 17.6875 4.0625 L 18.15625 3.28125 L 17.6875 2.53125 L 16.8125 2.53125 z M 23.59375 2.53125 L 23.15625 3.28125 L 23.59375 4.0625 L 24.5 4.0625 L 24.9375 3.28125 L 24.46875 2.53125 L 23.59375 2.53125 z M 30.34375 2.53125 L 29.90625 3.28125 L 30.34375 4.0625 L 31.25 4.0625 L 31.6875 3.28125 L 31.25 2.53125 L 30.34375 2.53125 z M 37.125 2.53125 L 36.6875 3.28125 L 37.15625 4.0625 L 38.03125 4.0625 L 38.46875 3.28125 L 38.03125 2.53125 L 37.125 2.53125 z M 6.65625 2.625 L 6.1875 3.40625 L 6.625 4.15625 L 7.53125 4.15625 L 7.96875 3.40625 L 7.53125 2.625 L 6.65625 2.625 z M 13.40625 2.625 L 12.9375 3.40625 L 13.40625 4.15625 L 14.28125 4.15625 L 14.71875 3.40625 L 14.28125 2.625 L 13.40625 2.625 z M 20.1875 2.625 L 19.75 3.40625 L 20.1875 4.15625 L 21.0625 4.15625 L 21.5 3.40625 L 21.0625 2.625 L 20.1875 2.625 z M 26.9375 2.625 L 26.5 3.40625 L 26.9375 4.15625 L 27.8125 4.15625 L 28.25 3.40625 L 27.8125 2.625 L 26.9375 2.625 z M 33.71875 2.625 L 33.28125 3.40625 L 33.71875 4.15625 L 34.59375 4.15625 L 35.0625 3.40625 L 34.59375 2.625 L 33.71875 2.625 z M 40.46875 2.625 L 40.03125 3.40625 L 40.46875 4.15625 L 41.34375 4.15625 L 41.8125 3.40625 L 41.375 2.625 L 40.46875 2.625 z M 4.3125 2.75 C 3.87017 3.0483413 3.5008602 3.4073961 3.15625 3.8125 L 3.28125 4.0625 L 4.15625 4.0625 L 4.59375 3.28125 L 4.3125 2.75 z M 43.71875 2.78125 L 43.4375 3.28125 L 43.90625 4.0625 L 44.78125 4.0625 L 44.90625 3.875 C 44.558156 3.4528611 44.171193 3.0914432 43.71875 2.78125 z M 4.96875 3.53125 L 4.53125 4.3125 L 4.96875 5.0625 L 5.84375 5.0625 L 6.28125 4.28125 L 5.84375 3.53125 L 4.96875 3.53125 z M 11.75 3.53125 L 11.3125 4.3125 L 11.75 5.0625 L 12.625 5.0625 L 13.09375 4.28125 L 12.625 3.53125 L 11.75 3.53125 z M 18.5 3.53125 L 18.0625 4.3125 L 18.5 5.0625 L 19.40625 5.0625 L 19.84375 4.28125 L 19.375 3.53125 L 18.5 3.53125 z M 25.28125 3.53125 L 24.84375 4.3125 L 25.28125 5.0625 L 26.1875 5.0625 L 26.625 4.28125 L 26.1875 3.53125 L 25.28125 3.53125 z M 32.03125 3.53125 L 31.59375 4.3125 L 32.03125 5.0625 L 32.9375 5.0625 L 33.375 4.28125 L 32.9375 3.53125 L 32.03125 3.53125 z M 38.8125 3.53125 L 38.375 4.3125 L 38.84375 5.0625 L 39.71875 5.0625 L 40.15625 4.28125 L 39.71875 3.53125 L 38.8125 3.53125 z M 8.34375 3.5625 L 7.875 4.3125 L 8.34375 5.09375 L 9.21875 5.09375 L 9.65625 4.3125 L 9.21875 3.5625 L 8.34375 3.5625 z M 15.09375 3.5625 L 14.625 4.3125 L 15.09375 5.09375 L 15.96875 5.09375 L 16.40625 4.3125 L 15.96875 3.5625 L 15.09375 3.5625 z M 21.875 3.5625 L 21.4375 4.3125 L 21.875 5.09375 L 22.75 5.09375 L 23.1875 4.3125 L 22.75 3.5625 L 21.875 3.5625 z M 28.625 3.5625 L 28.1875 4.3125 L 28.625 5.09375 L 29.5 5.09375 L 29.96875 4.3125 L 29.5 3.5625 L 28.625 3.5625 z M 35.40625 3.5625 L 34.96875 4.3125 L 35.40625 5.09375 L 36.28125 5.09375 L 36.75 4.3125 L 36.3125 3.5625 L 35.40625 3.5625 z M 42.15625 3.5625 L 41.71875 4.3125 L 42.15625 5.09375 L 43.03125 5.09375 L 43.5 4.3125 L 43.0625 3.5625 L 42.15625 3.5625 z M 2.8125 4.21875 C 2.6206495 4.491588 2.4561358 4.7890948 2.3125 5.09375 L 2.4375 5.09375 L 2.875 4.3125 L 2.8125 4.21875 z M 45.1875 4.21875 L 45.125 4.3125 L 45.59375 5.0625 L 45.65625 5.0625 C 45.516623 4.7718851 45.371253 4.4800719 45.1875 4.21875 z M 3.28125 4.4375 L 2.84375 5.21875 L 3.28125 6 L 4.15625 5.96875 L 4.59375 5.21875 L 4.15625 4.4375 L 3.28125 4.4375 z M 10.0625 4.4375 L 9.625 5.21875 L 10.0625 6 L 10.9375 5.96875 L 11.40625 5.21875 L 10.9375 4.4375 L 10.0625 4.4375 z M 16.8125 4.4375 L 16.375 5.21875 L 16.8125 6 L 17.6875 5.96875 L 18.15625 5.21875 L 17.6875 4.4375 L 16.8125 4.4375 z M 23.59375 4.4375 L 23.15625 5.21875 L 23.59375 6 L 24.5 5.96875 L 24.9375 5.21875 L 24.46875 4.4375 L 23.59375 4.4375 z M 30.34375 4.4375 L 29.90625 5.21875 L 30.34375 6 L 31.25 5.96875 L 31.6875 5.21875 L 31.25 4.4375 L 30.34375 4.4375 z M 37.125 4.4375 L 36.6875 5.21875 L 37.15625 6 L 38.03125 5.96875 L 38.46875 5.21875 L 38.03125 4.4375 L 37.125 4.4375 z M 43.875 4.4375 L 43.4375 5.21875 L 43.90625 6 L 44.78125 5.96875 L 45.21875 5.21875 L 44.78125 4.4375 L 43.875 4.4375 z M 6.65625 4.5625 L 6.1875 5.3125 L 6.625 6.09375 L 7.53125 6.09375 L 7.96875 5.3125 L 7.53125 4.5625 L 6.65625 4.5625 z M 13.40625 4.5625 L 12.9375 5.3125 L 13.40625 6.09375 L 14.28125 6.09375 L 14.71875 5.3125 L 14.28125 4.5625 L 13.40625 4.5625 z M 20.1875 4.5625 L 19.75 5.3125 L 20.1875 6.09375 L 21.0625 6.09375 L 21.5 5.3125 L 21.0625 4.5625 L 20.1875 4.5625 z M 26.9375 4.5625 L 26.5 5.3125 L 26.9375 6.09375 L 27.8125 6.09375 L 28.25 5.3125 L 27.8125 4.5625 L 26.9375 4.5625 z M 33.71875 4.5625 L 33.28125 5.3125 L 33.71875 6.09375 L 34.59375 6.09375 L 35.0625 5.3125 L 34.59375 4.5625 L 33.71875 4.5625 z M 40.46875 4.5625 L 40.03125 5.3125 L 40.46875 6.09375 L 41.34375 6.09375 L 41.8125 5.3125 L 41.375 4.5625 L 40.46875 4.5625 z M 5.84375 5.4375 L 4.96875 5.46875 L 4.53125 6.21875 L 4.96875 7 L 5.84375 7 L 6.28125 6.21875 L 5.84375 5.4375 z M 12.625 5.4375 L 11.75 5.46875 L 11.3125 6.21875 L 11.75 7 L 12.625 7 L 13.09375 6.21875 L 12.625 5.4375 z M 19.375 5.4375 L 18.5 5.46875 L 18.0625 6.21875 L 18.5 7 L 19.40625 7 L 19.84375 6.21875 L 19.375 5.4375 z M 26.1875 5.4375 L 25.28125 5.46875 L 24.84375 6.21875 L 25.28125 7 L 26.1875 7 L 26.625 6.21875 L 26.1875 5.4375 z M 32.9375 5.4375 L 32.03125 5.46875 L 31.59375 6.21875 L 32.03125 7 L 32.9375 7 L 33.375 6.21875 L 32.9375 5.4375 z M 39.71875 5.4375 L 38.8125 5.46875 L 38.375 6.21875 L 38.84375 7 L 39.71875 7 L 40.15625 6.21875 L 39.71875 5.4375 z M 2.15625 5.46875 C 1.9678252 5.9523109 1.8354644 6.4629533 1.78125 7 L 2.4375 7 L 2.875 6.25 L 2.4375 5.46875 L 2.15625 5.46875 z M 8.34375 5.46875 L 7.875 6.25 L 8.34375 7 L 9.21875 7 L 9.65625 6.25 L 9.21875 5.46875 L 8.34375 5.46875 z M 15.09375 5.46875 L 14.625 6.25 L 15.09375 7 L 15.96875 7 L 16.40625 6.25 L 15.96875 5.46875 L 15.09375 5.46875 z M 21.875 5.46875 L 21.4375 6.25 L 21.875 7 L 22.75 7 L 23.1875 6.25 L 22.75 5.46875 L 21.875 5.46875 z M 28.625 5.46875 L 28.1875 6.25 L 28.625 7 L 29.5 7 L 29.96875 6.25 L 29.5 5.46875 L 28.625 5.46875 z M 35.40625 5.46875 L 34.96875 6.25 L 35.40625 7 L 36.28125 7 L 36.75 6.25 L 36.3125 5.46875 L 35.40625 5.46875 z M 42.15625 5.46875 L 41.71875 6.25 L 42.15625 7 L 43.03125 7 L 43.5 6.25 L 43.0625 5.46875 L 42.15625 5.46875 z M 45.59375 5.46875 L 45.125 6.21875 L 45.59375 7 L 46.21875 7 C 46.164536 6.4629533 46.032175 5.9523109 45.84375 5.46875 L 45.59375 5.46875 z M 3.28125 6.375 L 2.84375 7.15625 L 3.28125 7.90625 L 4.15625 7.90625 L 4.59375 7.125 L 4.15625 6.375 L 3.28125 6.375 z M 10.0625 6.375 L 9.625 7.15625 L 10.0625 7.90625 L 10.9375 7.90625 L 11.40625 7.125 L 10.9375 6.375 L 10.0625 6.375 z M 16.8125 6.375 L 16.375 7.15625 L 16.8125 7.90625 L 17.6875 7.90625 L 18.15625 7.125 L 17.6875 6.375 L 16.8125 6.375 z M 23.59375 6.375 L 23.15625 7.15625 L 23.59375 7.90625 L 24.5 7.90625 L 24.9375 7.125 L 24.46875 6.375 L 23.59375 6.375 z M 30.34375 6.375 L 29.90625 7.15625 L 30.34375 7.90625 L 31.25 7.90625 L 31.6875 7.125 L 31.25 6.375 L 30.34375 6.375 z M 37.125 6.375 L 36.6875 7.15625 L 37.15625 7.90625 L 38.03125 7.90625 L 38.46875 7.125 L 38.03125 6.375 L 37.125 6.375 z M 43.875 6.375 L 43.4375 7.15625 L 43.90625 7.90625 L 44.78125 7.90625 L 45.21875 7.125 L 44.78125 6.375 L 43.875 6.375 z M 6.65625 6.46875 L 6.1875 7.25 L 6.625 8 L 7.53125 8 L 7.96875 7.25 L 7.53125 6.46875 L 6.65625 6.46875 z M 13.40625 6.46875 L 12.9375 7.25 L 13.40625 8 L 14.28125 8 L 14.71875 7.25 L 14.28125 6.46875 L 13.40625 6.46875 z M 20.1875 6.46875 L 19.75 7.25 L 20.1875 8 L 21.0625 8 L 21.5 7.25 L 21.0625 6.46875 L 20.1875 6.46875 z M 26.9375 6.46875 L 26.5 7.25 L 26.9375 8 L 27.8125 8 L 28.25 7.25 L 27.8125 6.46875 L 26.9375 6.46875 z M 33.71875 6.46875 L 33.28125 7.25 L 33.71875 8 L 34.59375 8 L 35.0625 7.25 L 34.59375 6.46875 L 33.71875 6.46875 z M 40.46875 6.46875 L 40.03125 7.25 L 40.46875 8 L 41.34375 8 L 41.8125 7.25 L 41.375 6.46875 L 40.46875 6.46875 z M 4.96875 7.375 L 4.53125 8.15625 L 4.96875 8.90625 L 5.84375 8.90625 L 6.28125 8.125 L 5.84375 7.375 L 4.96875 7.375 z M 11.75 7.375 L 11.3125 8.15625 L 11.75 8.90625 L 12.625 8.90625 L 13.09375 8.125 L 12.625 7.375 L 11.75 7.375 z M 18.5 7.375 L 18.0625 8.15625 L 18.5 8.90625 L 19.40625 8.90625 L 19.84375 8.125 L 19.375 7.375 L 18.5 7.375 z M 25.28125 7.375 L 24.84375 8.15625 L 25.28125 8.90625 L 26.1875 8.90625 L 26.625 8.125 L 26.1875 7.375 L 25.28125 7.375 z M 32.03125 7.375 L 31.59375 8.15625 L 32.03125 8.90625 L 32.9375 8.90625 L 33.375 8.125 L 32.9375 7.375 L 32.03125 7.375 z M 38.8125 7.375 L 38.375 8.15625 L 38.84375 8.90625 L 39.71875 8.90625 L 40.15625 8.125 L 39.71875 7.375 L 38.8125 7.375 z M 45.59375 7.375 L 45.125 8.15625 L 45.59375 8.90625 L 46.25 8.90625 L 46.25 7.59375 C 46.25 7.5192469 46.252731 7.4488121 46.25 7.375 L 45.59375 7.375 z M 1.75 7.40625 C 1.7479913 7.4696046 1.75 7.5298902 1.75 7.59375 L 1.75 8.9375 L 2.4375 8.9375 L 2.875 8.15625 L 2.4375 7.40625 L 1.75 7.40625 z M 8.34375 7.40625 L 7.875 8.15625 L 8.34375 8.9375 L 9.21875 8.9375 L 9.65625 8.15625 L 9.21875 7.40625 L 8.34375 7.40625 z M 15.09375 7.40625 L 14.625 8.15625 L 15.09375 8.9375 L 15.96875 8.9375 L 16.40625 8.15625 L 15.96875 7.40625 L 15.09375 7.40625 z M 21.875 7.40625 L 21.4375 8.15625 L 21.875 8.9375 L 22.75 8.9375 L 23.1875 8.15625 L 22.75 7.40625 L 21.875 7.40625 z M 28.625 7.40625 L 28.1875 8.15625 L 28.625 8.9375 L 29.5 8.9375 L 29.96875 8.15625 L 29.5 7.40625 L 28.625 7.40625 z M 35.40625 7.40625 L 34.96875 8.15625 L 35.40625 8.9375 L 36.28125 8.9375 L 36.75 8.15625 L 36.3125 7.40625 L 35.40625 7.40625 z M 42.15625 7.40625 L 41.71875 8.15625 L 42.15625 8.9375 L 43.03125 8.9375 L 43.5 8.15625 L 43.0625 7.40625 L 42.15625 7.40625 z M 3.28125 8.28125 L 2.84375 9.0625 L 3.28125 9.84375 L 4.15625 9.84375 L 4.59375 9.0625 L 4.15625 8.28125 L 3.28125 8.28125 z M 10.0625 8.28125 L 9.625 9.0625 L 10.0625 9.84375 L 10.9375 9.84375 L 11.40625 9.0625 L 10.9375 8.28125 L 10.0625 8.28125 z M 16.8125 8.28125 L 16.375 9.0625 L 16.8125 9.84375 L 17.6875 9.84375 L 18.15625 9.0625 L 17.6875 8.28125 L 16.8125 8.28125 z M 23.59375 8.28125 L 23.15625 9.0625 L 23.59375 9.84375 L 24.5 9.84375 L 24.9375 9.0625 L 24.46875 8.28125 L 23.59375 8.28125 z M 30.34375 8.28125 L 29.90625 9.0625 L 30.34375 9.84375 L 31.25 9.84375 L 31.6875 9.0625 L 31.25 8.28125 L 30.34375 8.28125 z M 37.125 8.28125 L 36.6875 9.0625 L 37.15625 9.84375 L 38.03125 9.84375 L 38.46875 9.0625 L 38.03125 8.28125 L 37.125 8.28125 z M 43.875 8.28125 L 43.4375 9.0625 L 43.90625 9.84375 L 44.78125 9.84375 L 45.21875 9.0625 L 44.78125 8.28125 L 43.875 8.28125 z M 6.65625 8.40625 L 6.1875 9.15625 L 6.625 9.9375 L 7.53125 9.9375 L 7.96875 9.15625 L 7.53125 8.40625 L 6.65625 8.40625 z M 13.40625 8.40625 L 12.9375 9.15625 L 13.40625 9.9375 L 14.28125 9.9375 L 14.71875 9.15625 L 14.28125 8.40625 L 13.40625 8.40625 z M 20.1875 8.40625 L 19.75 9.15625 L 20.1875 9.9375 L 21.0625 9.9375 L 21.5 9.15625 L 21.0625 8.40625 L 20.1875 8.40625 z M 26.9375 8.40625 L 26.5 9.15625 L 26.9375 9.9375 L 27.8125 9.9375 L 28.25 9.15625 L 27.8125 8.40625 L 26.9375 8.40625 z M 33.71875 8.40625 L 33.28125 9.15625 L 33.71875 9.9375 L 34.59375 9.9375 L 35.0625 9.15625 L 34.59375 8.40625 L 33.71875 8.40625 z M 40.46875 8.40625 L 40.03125 9.15625 L 40.46875 9.9375 L 41.34375 9.9375 L 41.8125 9.15625 L 41.375 8.40625 L 40.46875 8.40625 z M 5.84375 9.28125 L 4.96875 9.3125 L 4.53125 10.0625 L 4.96875 10.84375 L 5.84375 10.84375 L 6.28125 10.0625 L 5.84375 9.28125 z M 12.625 9.28125 L 11.75 9.3125 L 11.3125 10.0625 L 11.75 10.84375 L 12.625 10.84375 L 13.09375 10.0625 L 12.625 9.28125 z M 19.375 9.28125 L 18.5 9.3125 L 18.0625 10.0625 L 18.5 10.84375 L 19.40625 10.84375 L 19.84375 10.0625 L 19.375 9.28125 z M 26.1875 9.28125 L 25.28125 9.3125 L 24.84375 10.0625 L 25.28125 10.84375 L 26.1875 10.84375 L 26.625 10.0625 L 26.1875 9.28125 z M 32.9375 9.28125 L 32.03125 9.3125 L 31.59375 10.0625 L 32.03125 10.84375 L 32.9375 10.84375 L 33.375 10.0625 L 32.9375 9.28125 z M 39.71875 9.28125 L 38.8125 9.3125 L 38.375 10.0625 L 38.84375 10.84375 L 39.71875 10.84375 L 40.15625 10.0625 L 39.71875 9.28125 z M 46.25 9.28125 L 45.59375 9.3125 L 45.125 10.0625 L 45.59375 10.84375 L 46.25 10.84375 L 46.25 9.28125 z M 1.75 9.3125 L 1.75 10.84375 L 2.4375 10.84375 L 2.875 10.09375 L 2.4375 9.3125 L 1.75 9.3125 z M 8.34375 9.3125 L 7.875 10.09375 L 8.34375 10.84375 L 9.21875 10.84375 L 9.65625 10.09375 L 9.21875 9.3125 L 8.34375 9.3125 z M 15.09375 9.3125 L 14.625 10.09375 L 15.09375 10.84375 L 15.96875 10.84375 L 16.40625 10.09375 L 15.96875 9.3125 L 15.09375 9.3125 z M 21.875 9.3125 L 21.4375 10.09375 L 21.875 10.84375 L 22.75 10.84375 L 23.1875 10.09375 L 22.75 9.3125 L 21.875 9.3125 z M 28.625 9.3125 L 28.1875 10.09375 L 28.625 10.84375 L 29.5 10.84375 L 29.96875 10.09375 L 29.5 9.3125 L 28.625 9.3125 z M 35.40625 9.3125 L 34.96875 10.09375 L 35.40625 10.84375 L 36.28125 10.84375 L 36.75 10.09375 L 36.3125 9.3125 L 35.40625 9.3125 z M 42.15625 9.3125 L 41.71875 10.09375 L 42.15625 10.84375 L 43.03125 10.84375 L 43.5 10.09375 L 43.0625 9.3125 L 42.15625 9.3125 z M 3.28125 10.21875 L 2.84375 11 L 3.28125 11.75 L 4.15625 11.75 L 4.59375 10.96875 L 4.15625 10.21875 L 3.28125 10.21875 z M 10.0625 10.21875 L 9.625 11 L 10.0625 11.75 L 10.9375 11.75 L 11.40625 10.96875 L 10.9375 10.21875 L 10.0625 10.21875 z M 16.8125 10.21875 L 16.375 11 L 16.8125 11.75 L 17.6875 11.75 L 18.15625 10.96875 L 17.6875 10.21875 L 16.8125 10.21875 z M 23.59375 10.21875 L 23.15625 11 L 23.59375 11.75 L 24.5 11.75 L 24.9375 10.96875 L 24.46875 10.21875 L 23.59375 10.21875 z M 30.34375 10.21875 L 29.90625 11 L 30.34375 11.75 L 31.25 11.75 L 31.6875 10.96875 L 31.25 10.21875 L 30.34375 10.21875 z M 37.125 10.21875 L 36.6875 11 L 37.15625 11.75 L 38.03125 11.75 L 38.46875 10.96875 L 38.03125 10.21875 L 37.125 10.21875 z M 43.875 10.21875 L 43.4375 11 L 43.90625 11.75 L 44.78125 11.75 L 45.21875 10.96875 L 44.78125 10.21875 L 43.875 10.21875 z M 6.65625 10.3125 L 6.1875 11.09375 L 6.625 11.84375 L 7.53125 11.84375 L 7.96875 11.09375 L 7.53125 10.3125 L 6.65625 10.3125 z M 13.40625 10.3125 L 12.9375 11.09375 L 13.40625 11.84375 L 14.28125 11.84375 L 14.71875 11.09375 L 14.28125 10.3125 L 13.40625 10.3125 z M 20.1875 10.3125 L 19.75 11.09375 L 20.1875 11.84375 L 21.0625 11.84375 L 21.5 11.09375 L 21.0625 10.3125 L 20.1875 10.3125 z M 26.9375 10.3125 L 26.5 11.09375 L 26.9375 11.84375 L 27.8125 11.84375 L 28.25 11.09375 L 27.8125 10.3125 L 26.9375 10.3125 z M 33.71875 10.3125 L 33.28125 11.09375 L 33.71875 11.84375 L 34.59375 11.84375 L 35.0625 11.09375 L 34.59375 10.3125 L 33.71875 10.3125 z M 40.46875 10.3125 L 40.03125 11.09375 L 40.46875 11.84375 L 41.34375 11.84375 L 41.8125 11.09375 L 41.375 10.3125 L 40.46875 10.3125 z M 4.96875 11.21875 L 4.53125 12 L 4.96875 12.75 L 5.84375 12.75 L 6.28125 11.96875 L 5.84375 11.21875 L 4.96875 11.21875 z M 11.75 11.21875 L 11.3125 12 L 11.75 12.75 L 12.625 12.75 L 13.09375 11.96875 L 12.625 11.21875 L 11.75 11.21875 z M 18.5 11.21875 L 18.0625 12 L 18.5 12.75 L 19.40625 12.75 L 19.84375 11.96875 L 19.375 11.21875 L 18.5 11.21875 z M 25.28125 11.21875 L 24.84375 12 L 25.28125 12.75 L 26.1875 12.75 L 26.625 11.96875 L 26.1875 11.21875 L 25.28125 11.21875 z M 32.03125 11.21875 L 31.59375 12 L 32.03125 12.75 L 32.9375 12.75 L 33.375 11.96875 L 32.9375 11.21875 L 32.03125 11.21875 z M 38.8125 11.21875 L 38.375 12 L 38.84375 12.75 L 39.71875 12.75 L 40.15625 11.96875 L 39.71875 11.21875 L 38.8125 11.21875 z M 45.59375 11.21875 L 45.125 12 L 45.59375 12.75 L 46.25 12.75 L 46.25 11.21875 L 45.59375 11.21875 z M 1.75 11.25 L 1.75 12.78125 L 2.4375 12.78125 L 2.875 12 L 2.4375 11.25 L 1.75 11.25 z M 8.34375 11.25 L 7.875 12 L 8.34375 12.78125 L 9.21875 12.78125 L 9.65625 12 L 9.21875 11.25 L 8.34375 11.25 z M 15.09375 11.25 L 14.625 12 L 15.09375 12.78125 L 15.96875 12.78125 L 16.40625 12 L 15.96875 11.25 L 15.09375 11.25 z M 21.875 11.25 L 21.4375 12 L 21.875 12.78125 L 22.75 12.78125 L 23.1875 12 L 22.75 11.25 L 21.875 11.25 z M 28.625 11.25 L 28.1875 12 L 28.625 12.78125 L 29.5 12.78125 L 29.96875 12 L 29.5 11.25 L 28.625 11.25 z M 35.40625 11.25 L 34.96875 12 L 35.40625 12.78125 L 36.28125 12.78125 L 36.75 12 L 36.3125 11.25 L 35.40625 11.25 z M 42.15625 11.25 L 41.71875 12 L 42.15625 12.78125 L 43.03125 12.78125 L 43.5 12 L 43.0625 11.25 L 42.15625 11.25 z M 3.28125 12.15625 L 2.84375 12.90625 L 3.28125 13.6875 L 4.15625 13.6875 L 4.59375 12.90625 L 4.15625 12.15625 L 3.28125 12.15625 z M 10.0625 12.15625 L 9.625 12.90625 L 10.0625 13.6875 L 10.9375 13.6875 L 11.40625 12.90625 L 10.9375 12.15625 L 10.0625 12.15625 z M 16.8125 12.15625 L 16.375 12.90625 L 16.8125 13.6875 L 17.6875 13.6875 L 18.15625 12.90625 L 17.6875 12.15625 L 16.8125 12.15625 z M 23.59375 12.15625 L 23.15625 12.90625 L 23.59375 13.6875 L 24.5 13.6875 L 24.9375 12.90625 L 24.46875 12.15625 L 23.59375 12.15625 z M 30.34375 12.15625 L 29.90625 12.90625 L 30.34375 13.6875 L 31.25 13.6875 L 31.6875 12.90625 L 31.25 12.15625 L 30.34375 12.15625 z M 37.125 12.15625 L 36.6875 12.90625 L 37.15625 13.6875 L 38.03125 13.6875 L 38.46875 12.90625 L 38.03125 12.15625 L 37.125 12.15625 z M 43.875 12.15625 L 43.4375 12.90625 L 43.90625 13.6875 L 44.78125 13.6875 L 45.21875 12.90625 L 44.78125 12.15625 L 43.875 12.15625 z M 6.65625 12.25 L 6.1875 13 L 6.625 13.78125 L 7.53125 13.78125 L 7.96875 13 L 7.53125 12.25 L 6.65625 12.25 z M 13.40625 12.25 L 12.9375 13 L 13.40625 13.78125 L 14.28125 13.78125 L 14.71875 13 L 14.28125 12.25 L 13.40625 12.25 z M 20.1875 12.25 L 19.75 13 L 20.1875 13.78125 L 21.0625 13.78125 L 21.5 13 L 21.0625 12.25 L 20.1875 12.25 z M 26.9375 12.25 L 26.5 13 L 26.9375 13.78125 L 27.8125 13.78125 L 28.25 13 L 27.8125 12.25 L 26.9375 12.25 z M 33.71875 12.25 L 33.28125 13 L 33.71875 13.78125 L 34.59375 13.78125 L 35.0625 13 L 34.59375 12.25 L 33.71875 12.25 z M 40.46875 12.25 L 40.03125 13 L 40.46875 13.78125 L 41.34375 13.78125 L 41.8125 13 L 41.375 12.25 L 40.46875 12.25 z M 5.84375 13.125 L 4.96875 13.15625 L 4.53125 13.90625 L 4.96875 14.6875 L 5.84375 14.6875 L 6.28125 13.90625 L 5.84375 13.125 z M 12.625 13.125 L 11.75 13.15625 L 11.3125 13.90625 L 11.75 14.6875 L 12.625 14.6875 L 13.09375 13.90625 L 12.625 13.125 z M 19.375 13.125 L 18.5 13.15625 L 18.0625 13.90625 L 18.5 14.6875 L 19.40625 14.6875 L 19.84375 13.90625 L 19.375 13.125 z M 26.1875 13.125 L 25.28125 13.15625 L 24.84375 13.90625 L 25.28125 14.6875 L 26.1875 14.6875 L 26.625 13.90625 L 26.1875 13.125 z M 32.9375 13.125 L 32.03125 13.15625 L 31.59375 13.90625 L 32.03125 14.6875 L 32.9375 14.6875 L 33.375 13.90625 L 32.9375 13.125 z M 39.71875 13.125 L 38.8125 13.15625 L 38.375 13.90625 L 38.84375 14.6875 L 39.71875 14.6875 L 40.15625 13.90625 L 39.71875 13.125 z M 46.25 13.125 L 45.59375 13.15625 L 45.125 13.90625 L 45.59375 14.6875 L 46.25 14.6875 L 46.25 13.125 z M 1.75 13.15625 L 1.75 14.6875 L 2.4375 14.71875 L 2.875 13.9375 L 2.4375 13.15625 L 1.75 13.15625 z M 8.34375 13.15625 L 7.875 13.9375 L 8.34375 14.6875 L 9.21875 14.71875 L 9.65625 13.9375 L 9.21875 13.15625 L 8.34375 13.15625 z M 15.09375 13.15625 L 14.625 13.9375 L 15.09375 14.6875 L 15.96875 14.71875 L 16.40625 13.9375 L 15.96875 13.15625 L 15.09375 13.15625 z M 21.875 13.15625 L 21.4375 13.9375 L 21.875 14.6875 L 22.75 14.71875 L 23.1875 13.9375 L 22.75 13.15625 L 21.875 13.15625 z M 28.625 13.15625 L 28.1875 13.9375 L 28.625 14.6875 L 29.5 14.71875 L 29.96875 13.9375 L 29.5 13.15625 L 28.625 13.15625 z M 35.40625 13.15625 L 34.96875 13.9375 L 35.40625 14.6875 L 36.28125 14.71875 L 36.75 13.9375 L 36.3125 13.15625 L 35.40625 13.15625 z M 42.15625 13.15625 L 41.71875 13.9375 L 42.15625 14.6875 L 43.03125 14.71875 L 43.5 13.9375 L 43.0625 13.15625 L 42.15625 13.15625 z M 3.28125 14.0625 L 2.84375 14.84375 L 3.28125 15.59375 L 4.15625 15.59375 L 4.59375 14.84375 L 4.15625 14.0625 L 3.28125 14.0625 z M 10.0625 14.0625 L 9.625 14.84375 L 10.0625 15.59375 L 10.9375 15.59375 L 11.40625 14.84375 L 10.9375 14.0625 L 10.0625 14.0625 z M 16.8125 14.0625 L 16.375 14.84375 L 16.8125 15.59375 L 17.6875 15.59375 L 18.15625 14.84375 L 17.6875 14.0625 L 16.8125 14.0625 z M 23.59375 14.0625 L 23.15625 14.84375 L 23.59375 15.59375 L 24.5 15.59375 L 24.9375 14.84375 L 24.46875 14.0625 L 23.59375 14.0625 z M 30.34375 14.0625 L 29.90625 14.84375 L 30.34375 15.59375 L 31.25 15.59375 L 31.6875 14.84375 L 31.25 14.0625 L 30.34375 14.0625 z M 37.125 14.0625 L 36.6875 14.84375 L 37.15625 15.59375 L 38.03125 15.59375 L 38.46875 14.84375 L 38.03125 14.0625 L 37.125 14.0625 z M 43.875 14.0625 L 43.4375 14.84375 L 43.90625 15.59375 L 44.78125 15.59375 L 45.21875 14.84375 L 44.78125 14.0625 L 43.875 14.0625 z M 6.65625 14.15625 L 6.1875 14.9375 L 6.625 15.6875 L 7.53125 15.6875 L 7.96875 14.9375 L 7.53125 14.15625 L 6.65625 14.15625 z M 13.40625 14.15625 L 12.9375 14.9375 L 13.40625 15.6875 L 14.28125 15.6875 L 14.71875 14.9375 L 14.28125 14.15625 L 13.40625 14.15625 z M 20.1875 14.15625 L 19.75 14.9375 L 20.1875 15.6875 L 21.0625 15.6875 L 21.5 14.9375 L 21.0625 14.15625 L 20.1875 14.15625 z M 26.9375 14.15625 L 26.5 14.9375 L 26.9375 15.6875 L 27.8125 15.6875 L 28.25 14.9375 L 27.8125 14.15625 L 26.9375 14.15625 z M 33.71875 14.15625 L 33.28125 14.9375 L 33.71875 15.6875 L 34.59375 15.6875 L 35.0625 14.9375 L 34.59375 14.15625 L 33.71875 14.15625 z M 40.46875 14.15625 L 40.03125 14.9375 L 40.46875 15.6875 L 41.34375 15.6875 L 41.8125 14.9375 L 41.375 14.15625 L 40.46875 14.15625 z M 4.96875 15.0625 L 4.53125 15.84375 L 4.96875 16.59375 L 5.84375 16.59375 L 6.28125 15.8125 L 5.84375 15.0625 L 4.96875 15.0625 z M 11.75 15.0625 L 11.3125 15.84375 L 11.75 16.59375 L 12.625 16.59375 L 13.09375 15.8125 L 12.625 15.0625 L 11.75 15.0625 z M 18.5 15.0625 L 18.0625 15.84375 L 18.5 16.59375 L 19.40625 16.59375 L 19.84375 15.8125 L 19.375 15.0625 L 18.5 15.0625 z M 25.28125 15.0625 L 24.84375 15.84375 L 25.28125 16.59375 L 26.1875 16.59375 L 26.625 15.8125 L 26.1875 15.0625 L 25.28125 15.0625 z M 32.03125 15.0625 L 31.59375 15.84375 L 32.03125 16.59375 L 32.9375 16.59375 L 33.375 15.8125 L 32.9375 15.0625 L 32.03125 15.0625 z M 38.8125 15.0625 L 38.375 15.84375 L 38.84375 16.59375 L 39.71875 16.59375 L 40.15625 15.8125 L 39.71875 15.0625 L 38.8125 15.0625 z M 45.59375 15.0625 L 45.125 15.84375 L 45.59375 16.59375 L 46.25 16.59375 L 46.25 15.0625 L 45.59375 15.0625 z M 1.75 15.09375 L 1.75 16.625 L 2.4375 16.625 L 2.875 15.875 L 2.4375 15.09375 L 1.75 15.09375 z M 8.34375 15.09375 L 7.875 15.84375 L 8.34375 16.625 L 9.21875 16.625 L 9.65625 15.875 L 9.21875 15.09375 L 8.34375 15.09375 z M 15.09375 15.09375 L 14.625 15.84375 L 15.09375 16.625 L 15.96875 16.625 L 16.40625 15.875 L 15.96875 15.09375 L 15.09375 15.09375 z M 21.875 15.09375 L 21.4375 15.84375 L 21.875 16.625 L 22.75 16.625 L 23.1875 15.875 L 22.75 15.09375 L 21.875 15.09375 z M 28.625 15.09375 L 28.1875 15.84375 L 28.625 16.625 L 29.5 16.625 L 29.96875 15.875 L 29.5 15.09375 L 28.625 15.09375 z M 35.40625 15.09375 L 34.96875 15.84375 L 35.40625 16.625 L 36.28125 16.625 L 36.75 15.875 L 36.3125 15.09375 L 35.40625 15.09375 z M 42.15625 15.09375 L 41.71875 15.84375 L 42.15625 16.625 L 43.03125 16.625 L 43.5 15.875 L 43.0625 15.09375 L 42.15625 15.09375 z M 3.28125 16 L 2.84375 16.75 L 3.28125 17.53125 L 4.15625 17.53125 L 4.59375 16.75 L 4.15625 16 L 3.28125 16 z M 10.0625 16 L 9.625 16.75 L 10.0625 17.53125 L 10.9375 17.53125 L 11.40625 16.75 L 10.9375 16 L 10.0625 16 z M 16.8125 16 L 16.375 16.75 L 16.8125 17.53125 L 17.6875 17.53125 L 18.15625 16.75 L 17.6875 16 L 16.8125 16 z M 23.59375 16 L 23.15625 16.75 L 23.59375 17.53125 L 24.5 17.53125 L 24.9375 16.75 L 24.46875 16 L 23.59375 16 z M 30.34375 16 L 29.90625 16.75 L 30.34375 17.53125 L 31.25 17.53125 L 31.6875 16.75 L 31.25 16 L 30.34375 16 z M 37.125 16 L 36.6875 16.75 L 37.15625 17.53125 L 38.03125 17.53125 L 38.46875 16.75 L 38.03125 16 L 37.125 16 z M 43.875 16 L 43.4375 16.75 L 43.90625 17.53125 L 44.78125 17.53125 L 45.21875 16.75 L 44.78125 16 L 43.875 16 z M 6.65625 16.09375 L 6.1875 16.84375 L 6.625 17.625 L 7.53125 17.625 L 7.96875 16.84375 L 7.53125 16.09375 L 6.65625 16.09375 z M 13.40625 16.09375 L 12.9375 16.84375 L 13.40625 17.625 L 14.28125 17.625 L 14.71875 16.84375 L 14.28125 16.09375 L 13.40625 16.09375 z M 20.1875 16.09375 L 19.75 16.84375 L 20.1875 17.625 L 21.0625 17.625 L 21.5 16.84375 L 21.0625 16.09375 L 20.1875 16.09375 z M 26.9375 16.09375 L 26.5 16.84375 L 26.9375 17.625 L 27.8125 17.625 L 28.25 16.84375 L 27.8125 16.09375 L 26.9375 16.09375 z M 33.71875 16.09375 L 33.28125 16.84375 L 33.71875 17.625 L 34.59375 17.625 L 35.0625 16.84375 L 34.59375 16.09375 L 33.71875 16.09375 z M 40.46875 16.09375 L 40.03125 16.84375 L 40.46875 17.625 L 41.34375 17.625 L 41.8125 16.84375 L 41.375 16.09375 L 40.46875 16.09375 z M 5.84375 16.96875 L 4.96875 17 L 4.53125 17.75 L 4.96875 18.53125 L 5.84375 18.53125 L 6.28125 17.75 L 5.84375 16.96875 z M 12.625 16.96875 L 11.75 17 L 11.3125 17.75 L 11.75 18.53125 L 12.625 18.53125 L 13.09375 17.75 L 12.625 16.96875 z M 19.375 16.96875 L 18.5 17 L 18.0625 17.75 L 18.5 18.53125 L 19.40625 18.53125 L 19.84375 17.75 L 19.375 16.96875 z M 26.1875 16.96875 L 25.28125 17 L 24.84375 17.75 L 25.28125 18.53125 L 26.1875 18.53125 L 26.625 17.75 L 26.1875 16.96875 z M 32.9375 16.96875 L 32.03125 17 L 31.59375 17.75 L 32.03125 18.53125 L 32.9375 18.53125 L 33.375 17.75 L 32.9375 16.96875 z M 39.71875 16.96875 L 38.8125 17 L 38.375 17.75 L 38.84375 18.53125 L 39.71875 18.53125 L 40.15625 17.75 L 39.71875 16.96875 z M 46.25 16.96875 L 45.59375 17 L 45.125 17.75 L 45.59375 18.53125 L 46.25 18.53125 L 46.25 16.96875 z M 1.75 17 L 1.75 18.5625 L 2.4375 18.5625 L 2.875 17.78125 L 2.4375 17 L 1.75 17 z M 8.34375 17 L 7.875 17.78125 L 8.34375 18.5625 L 9.21875 18.5625 L 9.65625 17.78125 L 9.21875 17 L 8.34375 17 z M 15.09375 17 L 14.625 17.78125 L 15.09375 18.5625 L 15.96875 18.5625 L 16.40625 17.78125 L 15.96875 17 L 15.09375 17 z M 21.875 17 L 21.4375 17.78125 L 21.875 18.5625 L 22.75 18.5625 L 23.1875 17.78125 L 22.75 17 L 21.875 17 z M 28.625 17 L 28.1875 17.78125 L 28.625 18.5625 L 29.5 18.5625 L 29.96875 17.78125 L 29.5 17 L 28.625 17 z M 35.40625 17 L 34.96875 17.78125 L 35.40625 18.5625 L 36.28125 18.5625 L 36.75 17.78125 L 36.3125 17 L 35.40625 17 z M 42.15625 17 L 41.71875 17.78125 L 42.15625 18.5625 L 43.03125 18.5625 L 43.5 17.78125 L 43.0625 17 L 42.15625 17 z M 3.28125 17.90625 L 2.84375 18.6875 L 3.28125 19.4375 L 4.15625 19.4375 L 4.59375 18.6875 L 4.15625 17.90625 L 3.28125 17.90625 z M 10.0625 17.90625 L 9.625 18.6875 L 10.0625 19.4375 L 10.9375 19.4375 L 11.40625 18.6875 L 10.9375 17.90625 L 10.0625 17.90625 z M 16.8125 17.90625 L 16.375 18.6875 L 16.8125 19.4375 L 17.6875 19.4375 L 18.15625 18.6875 L 17.6875 17.90625 L 16.8125 17.90625 z M 23.59375 17.90625 L 23.15625 18.6875 L 23.59375 19.4375 L 24.5 19.4375 L 24.9375 18.6875 L 24.46875 17.90625 L 23.59375 17.90625 z M 30.34375 17.90625 L 29.90625 18.6875 L 30.34375 19.4375 L 31.25 19.4375 L 31.6875 18.6875 L 31.25 17.90625 L 30.34375 17.90625 z M 37.125 17.90625 L 36.6875 18.6875 L 37.15625 19.4375 L 38.03125 19.4375 L 38.46875 18.6875 L 38.03125 17.90625 L 37.125 17.90625 z M 43.875 17.90625 L 43.4375 18.6875 L 43.90625 19.4375 L 44.78125 19.4375 L 45.21875 18.6875 L 44.78125 17.90625 L 43.875 17.90625 z M 6.65625 18 L 6.1875 18.78125 L 6.625 19.53125 L 7.53125 19.53125 L 7.96875 18.78125 L 7.53125 18 L 6.65625 18 z M 13.40625 18 L 12.9375 18.78125 L 13.40625 19.53125 L 14.28125 19.53125 L 14.71875 18.78125 L 14.28125 18 L 13.40625 18 z M 20.1875 18 L 19.75 18.78125 L 20.1875 19.53125 L 21.0625 19.53125 L 21.5 18.78125 L 21.0625 18 L 20.1875 18 z M 26.9375 18 L 26.5 18.78125 L 26.9375 19.53125 L 27.8125 19.53125 L 28.25 18.78125 L 27.8125 18 L 26.9375 18 z M 33.71875 18 L 33.28125 18.78125 L 33.71875 19.53125 L 34.59375 19.53125 L 35.0625 18.78125 L 34.59375 18 L 33.71875 18 z M 40.46875 18 L 40.03125 18.78125 L 40.46875 19.53125 L 41.34375 19.53125 L 41.8125 18.78125 L 41.375 18 L 40.46875 18 z M 4.96875 18.90625 L 4.53125 19.6875 L 4.96875 20.4375 L 5.84375 20.4375 L 6.28125 19.65625 L 5.84375 18.90625 L 4.96875 18.90625 z M 11.75 18.90625 L 11.3125 19.6875 L 11.75 20.4375 L 12.625 20.4375 L 13.09375 19.65625 L 12.625 18.90625 L 11.75 18.90625 z M 18.5 18.90625 L 18.0625 19.6875 L 18.5 20.4375 L 19.40625 20.4375 L 19.84375 19.65625 L 19.375 18.90625 L 18.5 18.90625 z M 25.28125 18.90625 L 24.84375 19.6875 L 25.28125 20.4375 L 26.1875 20.4375 L 26.625 19.65625 L 26.1875 18.90625 L 25.28125 18.90625 z M 32.03125 18.90625 L 31.59375 19.6875 L 32.03125 20.4375 L 32.9375 20.4375 L 33.375 19.65625 L 32.9375 18.90625 L 32.03125 18.90625 z M 38.8125 18.90625 L 38.375 19.6875 L 38.84375 20.4375 L 39.71875 20.4375 L 40.15625 19.65625 L 39.71875 18.90625 L 38.8125 18.90625 z M 45.59375 18.90625 L 45.125 19.6875 L 45.59375 20.4375 L 46.25 20.4375 L 46.25 18.90625 L 45.59375 18.90625 z M 1.75 18.9375 L 1.75 20.46875 L 2.4375 20.46875 L 2.875 19.71875 L 2.4375 18.9375 L 1.75 18.9375 z M 8.34375 18.9375 L 7.875 19.6875 L 8.34375 20.46875 L 9.21875 20.46875 L 9.65625 19.71875 L 9.21875 18.9375 L 8.34375 18.9375 z M 15.09375 18.9375 L 14.625 19.6875 L 15.09375 20.46875 L 15.96875 20.46875 L 16.40625 19.71875 L 15.96875 18.9375 L 15.09375 18.9375 z M 21.875 18.9375 L 21.4375 19.6875 L 21.875 20.46875 L 22.75 20.46875 L 23.1875 19.71875 L 22.75 18.9375 L 21.875 18.9375 z M 28.625 18.9375 L 28.1875 19.6875 L 28.625 20.46875 L 29.5 20.46875 L 29.96875 19.71875 L 29.5 18.9375 L 28.625 18.9375 z M 35.40625 18.9375 L 34.96875 19.6875 L 35.40625 20.46875 L 36.28125 20.46875 L 36.75 19.71875 L 36.3125 18.9375 L 35.40625 18.9375 z M 42.15625 18.9375 L 41.71875 19.6875 L 42.15625 20.46875 L 43.03125 20.46875 L 43.5 19.71875 L 43.0625 18.9375 L 42.15625 18.9375 z M 3.28125 19.84375 L 2.84375 20.59375 L 3.28125 21.375 L 4.15625 21.375 L 4.59375 20.59375 L 4.15625 19.84375 L 3.28125 19.84375 z M 10.0625 19.84375 L 9.625 20.59375 L 10.0625 21.375 L 10.9375 21.375 L 11.40625 20.59375 L 10.9375 19.84375 L 10.0625 19.84375 z M 16.8125 19.84375 L 16.375 20.59375 L 16.8125 21.375 L 17.6875 21.375 L 18.15625 20.59375 L 17.6875 19.84375 L 16.8125 19.84375 z M 23.59375 19.84375 L 23.15625 20.59375 L 23.59375 21.375 L 24.5 21.375 L 24.9375 20.59375 L 24.46875 19.84375 L 23.59375 19.84375 z M 30.34375 19.84375 L 29.90625 20.59375 L 30.34375 21.375 L 31.25 21.375 L 31.6875 20.59375 L 31.25 19.84375 L 30.34375 19.84375 z M 37.125 19.84375 L 36.6875 20.59375 L 37.15625 21.375 L 38.03125 21.375 L 38.46875 20.59375 L 38.03125 19.84375 L 37.125 19.84375 z M 43.875 19.84375 L 43.4375 20.59375 L 43.90625 21.375 L 44.78125 21.375 L 45.21875 20.59375 L 44.78125 19.84375 L 43.875 19.84375 z M 6.65625 19.9375 L 6.1875 20.6875 L 6.625 21.46875 L 7.53125 21.46875 L 7.96875 20.6875 L 7.53125 19.9375 L 6.65625 19.9375 z M 13.40625 19.9375 L 12.9375 20.6875 L 13.40625 21.46875 L 14.28125 21.46875 L 14.71875 20.6875 L 14.28125 19.9375 L 13.40625 19.9375 z M 20.1875 19.9375 L 19.75 20.6875 L 20.1875 21.46875 L 21.0625 21.46875 L 21.5 20.6875 L 21.0625 19.9375 L 20.1875 19.9375 z M 26.9375 19.9375 L 26.5 20.6875 L 26.9375 21.46875 L 27.8125 21.46875 L 28.25 20.6875 L 27.8125 19.9375 L 26.9375 19.9375 z M 33.71875 19.9375 L 33.28125 20.6875 L 33.71875 21.46875 L 34.59375 21.46875 L 35.0625 20.6875 L 34.59375 19.9375 L 33.71875 19.9375 z M 40.46875 19.9375 L 40.03125 20.6875 L 40.46875 21.46875 L 41.34375 21.46875 L 41.8125 20.6875 L 41.375 19.9375 L 40.46875 19.9375 z M 5.84375 20.8125 L 4.96875 20.84375 L 4.53125 21.59375 L 4.96875 22.375 L 5.84375 22.375 L 6.28125 21.59375 L 5.84375 20.8125 z M 12.625 20.8125 L 11.75 20.84375 L 11.3125 21.59375 L 11.75 22.375 L 12.625 22.375 L 13.09375 21.59375 L 12.625 20.8125 z M 19.375 20.8125 L 18.5 20.84375 L 18.0625 21.59375 L 18.5 22.375 L 19.40625 22.375 L 19.84375 21.59375 L 19.375 20.8125 z M 26.1875 20.8125 L 25.28125 20.84375 L 24.84375 21.59375 L 25.28125 22.375 L 26.1875 22.375 L 26.625 21.59375 L 26.1875 20.8125 z M 32.9375 20.8125 L 32.03125 20.84375 L 31.59375 21.59375 L 32.03125 22.375 L 32.9375 22.375 L 33.375 21.59375 L 32.9375 20.8125 z M 39.71875 20.8125 L 38.8125 20.84375 L 38.375 21.59375 L 38.84375 22.375 L 39.71875 22.375 L 40.15625 21.59375 L 39.71875 20.8125 z M 46.25 20.8125 L 45.59375 20.84375 L 45.125 21.59375 L 45.59375 22.375 L 46.25 22.375 L 46.25 20.8125 z M 1.75 20.875 L 1.75 22.40625 L 2.4375 22.40625 L 2.875 21.625 L 2.4375 20.875 L 1.75 20.875 z M 8.34375 20.875 L 7.875 21.625 L 8.34375 22.40625 L 9.21875 22.40625 L 9.65625 21.625 L 9.21875 20.875 L 8.34375 20.875 z M 15.09375 20.875 L 14.625 21.625 L 15.09375 22.40625 L 15.96875 22.40625 L 16.40625 21.625 L 15.96875 20.875 L 15.09375 20.875 z M 21.875 20.875 L 21.4375 21.625 L 21.875 22.40625 L 22.75 22.40625 L 23.1875 21.625 L 22.75 20.875 L 21.875 20.875 z M 28.625 20.875 L 28.1875 21.625 L 28.625 22.40625 L 29.5 22.40625 L 29.96875 21.625 L 29.5 20.875 L 28.625 20.875 z M 35.40625 20.875 L 34.96875 21.625 L 35.40625 22.40625 L 36.28125 22.40625 L 36.75 21.625 L 36.3125 20.875 L 35.40625 20.875 z M 42.15625 20.875 L 41.71875 21.625 L 42.15625 22.40625 L 43.03125 22.40625 L 43.5 21.625 L 43.0625 20.875 L 42.15625 20.875 z M 3.28125 21.75 L 2.84375 22.53125 L 3.28125 23.28125 L 4.15625 23.28125 L 4.59375 22.53125 L 4.15625 21.75 L 3.28125 21.75 z M 10.0625 21.75 L 9.625 22.53125 L 10.0625 23.28125 L 10.9375 23.28125 L 11.40625 22.53125 L 10.9375 21.75 L 10.0625 21.75 z M 16.8125 21.75 L 16.375 22.53125 L 16.8125 23.28125 L 17.6875 23.28125 L 18.15625 22.53125 L 17.6875 21.75 L 16.8125 21.75 z M 23.59375 21.75 L 23.15625 22.53125 L 23.59375 23.28125 L 24.5 23.28125 L 24.9375 22.53125 L 24.46875 21.75 L 23.59375 21.75 z M 30.34375 21.75 L 29.90625 22.53125 L 30.34375 23.28125 L 31.25 23.28125 L 31.6875 22.53125 L 31.25 21.75 L 30.34375 21.75 z M 37.125 21.75 L 36.6875 22.53125 L 37.15625 23.28125 L 38.03125 23.28125 L 38.46875 22.53125 L 38.03125 21.75 L 37.125 21.75 z M 43.875 21.75 L 43.4375 22.53125 L 43.90625 23.28125 L 44.78125 23.28125 L 45.21875 22.53125 L 44.78125 21.75 L 43.875 21.75 z M 6.65625 21.84375 L 6.1875 22.625 L 6.625 23.375 L 7.53125 23.375 L 7.96875 22.625 L 7.53125 21.84375 L 6.65625 21.84375 z M 13.40625 21.84375 L 12.9375 22.625 L 13.40625 23.375 L 14.28125 23.375 L 14.71875 22.625 L 14.28125 21.84375 L 13.40625 21.84375 z M 20.1875 21.84375 L 19.75 22.625 L 20.1875 23.375 L 21.0625 23.375 L 21.5 22.625 L 21.0625 21.84375 L 20.1875 21.84375 z M 26.9375 21.84375 L 26.5 22.625 L 26.9375 23.375 L 27.8125 23.375 L 28.25 22.625 L 27.8125 21.84375 L 26.9375 21.84375 z M 33.71875 21.84375 L 33.28125 22.625 L 33.71875 23.375 L 34.59375 23.375 L 35.0625 22.625 L 34.59375 21.84375 L 33.71875 21.84375 z M 40.46875 21.84375 L 40.03125 22.625 L 40.46875 23.375 L 41.34375 23.375 L 41.8125 22.625 L 41.375 21.84375 L 40.46875 21.84375 z M 4.96875 22.75 L 4.53125 23.53125 L 4.96875 24.28125 L 5.84375 24.28125 L 6.28125 23.5 L 5.84375 22.75 L 4.96875 22.75 z M 11.75 22.75 L 11.3125 23.53125 L 11.75 24.28125 L 12.625 24.28125 L 13.09375 23.5 L 12.625 22.75 L 11.75 22.75 z M 18.5 22.75 L 18.0625 23.53125 L 18.5 24.28125 L 19.40625 24.28125 L 19.84375 23.5 L 19.375 22.75 L 18.5 22.75 z M 25.28125 22.75 L 24.84375 23.53125 L 25.28125 24.28125 L 26.1875 24.28125 L 26.625 23.5 L 26.1875 22.75 L 25.28125 22.75 z M 32.03125 22.75 L 31.59375 23.53125 L 32.03125 24.28125 L 32.9375 24.28125 L 33.375 23.5 L 32.9375 22.75 L 32.03125 22.75 z M 38.8125 22.75 L 38.375 23.53125 L 38.84375 24.28125 L 39.71875 24.28125 L 40.15625 23.5 L 39.71875 22.75 L 38.8125 22.75 z M 45.59375 22.75 L 45.125 23.53125 L 45.59375 24.28125 L 46.25 24.28125 L 46.25 22.75 L 45.59375 22.75 z M 1.75 22.78125 L 1.75 24.3125 L 2.4375 24.3125 L 2.875 23.5625 L 2.4375 22.78125 L 1.75 22.78125 z M 8.34375 22.78125 L 7.875 23.5625 L 8.34375 24.3125 L 9.21875 24.3125 L 9.65625 23.5625 L 9.21875 22.78125 L 8.34375 22.78125 z M 15.09375 22.78125 L 14.625 23.5625 L 15.09375 24.3125 L 15.96875 24.3125 L 16.40625 23.5625 L 15.96875 22.78125 L 15.09375 22.78125 z M 21.875 22.78125 L 21.4375 23.5625 L 21.875 24.3125 L 22.75 24.3125 L 23.1875 23.5625 L 22.75 22.78125 L 21.875 22.78125 z M 28.625 22.78125 L 28.1875 23.5625 L 28.625 24.3125 L 29.5 24.3125 L 29.96875 23.5625 L 29.5 22.78125 L 28.625 22.78125 z M 35.40625 22.78125 L 34.96875 23.5625 L 35.40625 24.3125 L 36.28125 24.3125 L 36.75 23.5625 L 36.3125 22.78125 L 35.40625 22.78125 z M 42.15625 22.78125 L 41.71875 23.5625 L 42.15625 24.3125 L 43.03125 24.3125 L 43.5 23.5625 L 43.0625 22.78125 L 42.15625 22.78125 z M 3.28125 23.6875 L 2.84375 24.4375 L 3.28125 25.21875 L 4.15625 25.21875 L 4.59375 24.4375 L 4.15625 23.6875 L 3.28125 23.6875 z M 10.0625 23.6875 L 9.625 24.4375 L 10.0625 25.21875 L 10.9375 25.21875 L 11.40625 24.4375 L 10.9375 23.6875 L 10.0625 23.6875 z M 16.8125 23.6875 L 16.375 24.4375 L 16.8125 25.21875 L 17.6875 25.21875 L 18.15625 24.4375 L 17.6875 23.6875 L 16.8125 23.6875 z M 23.59375 23.6875 L 23.15625 24.4375 L 23.59375 25.21875 L 24.5 25.21875 L 24.9375 24.4375 L 24.46875 23.6875 L 23.59375 23.6875 z M 30.34375 23.6875 L 29.90625 24.4375 L 30.34375 25.21875 L 31.25 25.21875 L 31.6875 24.4375 L 31.25 23.6875 L 30.34375 23.6875 z M 37.125 23.6875 L 36.6875 24.4375 L 37.15625 25.21875 L 38.03125 25.21875 L 38.46875 24.4375 L 38.03125 23.6875 L 37.125 23.6875 z M 43.875 23.6875 L 43.4375 24.4375 L 43.90625 25.21875 L 44.78125 25.21875 L 45.21875 24.4375 L 44.78125 23.6875 L 43.875 23.6875 z M 6.65625 23.78125 L 6.1875 24.53125 L 6.625 25.3125 L 7.53125 25.3125 L 7.96875 24.53125 L 7.53125 23.78125 L 6.65625 23.78125 z M 13.40625 23.78125 L 12.9375 24.53125 L 13.40625 25.3125 L 14.28125 25.3125 L 14.71875 24.53125 L 14.28125 23.78125 L 13.40625 23.78125 z M 20.1875 23.78125 L 19.75 24.53125 L 20.1875 25.3125 L 21.0625 25.3125 L 21.5 24.53125 L 21.0625 23.78125 L 20.1875 23.78125 z M 26.9375 23.78125 L 26.5 24.53125 L 26.9375 25.3125 L 27.8125 25.3125 L 28.25 24.53125 L 27.8125 23.78125 L 26.9375 23.78125 z M 33.71875 23.78125 L 33.28125 24.53125 L 33.71875 25.3125 L 34.59375 25.3125 L 35.0625 24.53125 L 34.59375 23.78125 L 33.71875 23.78125 z M 40.46875 23.78125 L 40.03125 24.53125 L 40.46875 25.3125 L 41.34375 25.3125 L 41.8125 24.53125 L 41.375 23.78125 L 40.46875 23.78125 z M 5.84375 24.65625 L 4.96875 24.6875 L 4.53125 25.4375 L 4.96875 26.21875 L 5.84375 26.21875 L 6.28125 25.4375 L 5.84375 24.65625 z M 12.625 24.65625 L 11.75 24.6875 L 11.3125 25.4375 L 11.75 26.21875 L 12.625 26.21875 L 13.09375 25.4375 L 12.625 24.65625 z M 19.375 24.65625 L 18.5 24.6875 L 18.0625 25.4375 L 18.5 26.21875 L 19.40625 26.21875 L 19.84375 25.4375 L 19.375 24.65625 z M 26.1875 24.65625 L 25.28125 24.6875 L 24.84375 25.4375 L 25.28125 26.21875 L 26.1875 26.21875 L 26.625 25.4375 L 26.1875 24.65625 z M 32.9375 24.65625 L 32.03125 24.6875 L 31.59375 25.4375 L 32.03125 26.21875 L 32.9375 26.21875 L 33.375 25.4375 L 32.9375 24.65625 z M 39.71875 24.65625 L 38.8125 24.6875 L 38.375 25.4375 L 38.84375 26.21875 L 39.71875 26.21875 L 40.15625 25.4375 L 39.71875 24.65625 z M 46.25 24.65625 L 45.59375 24.6875 L 45.125 25.4375 L 45.59375 26.21875 L 46.25 26.21875 L 46.25 24.65625 z M 1.75 24.71875 L 1.75 26.25 L 2.4375 26.25 L 2.875 25.46875 L 2.4375 24.71875 L 1.75 24.71875 z M 8.34375 24.71875 L 7.875 25.46875 L 8.34375 26.25 L 9.21875 26.25 L 9.65625 25.46875 L 9.21875 24.71875 L 8.34375 24.71875 z M 15.09375 24.71875 L 14.625 25.46875 L 15.09375 26.25 L 15.96875 26.25 L 16.40625 25.46875 L 15.96875 24.71875 L 15.09375 24.71875 z M 21.875 24.71875 L 21.4375 25.46875 L 21.875 26.25 L 22.75 26.25 L 23.1875 25.46875 L 22.75 24.71875 L 21.875 24.71875 z M 28.625 24.71875 L 28.1875 25.46875 L 28.625 26.25 L 29.5 26.25 L 29.96875 25.46875 L 29.5 24.71875 L 28.625 24.71875 z M 35.40625 24.71875 L 34.96875 25.46875 L 35.40625 26.25 L 36.28125 26.25 L 36.75 25.46875 L 36.3125 24.71875 L 35.40625 24.71875 z M 42.15625 24.71875 L 41.71875 25.46875 L 42.15625 26.25 L 43.03125 26.25 L 43.5 25.46875 L 43.0625 24.71875 L 42.15625 24.71875 z M 3.28125 25.59375 L 2.84375 26.375 L 3.28125 27.125 L 4.15625 27.125 L 4.59375 26.375 L 4.15625 25.59375 L 3.28125 25.59375 z M 10.0625 25.59375 L 9.625 26.375 L 10.0625 27.125 L 10.9375 27.125 L 11.40625 26.375 L 10.9375 25.59375 L 10.0625 25.59375 z M 16.8125 25.59375 L 16.375 26.375 L 16.8125 27.125 L 17.6875 27.125 L 18.15625 26.375 L 17.6875 25.59375 L 16.8125 25.59375 z M 23.59375 25.59375 L 23.15625 26.375 L 23.59375 27.125 L 24.5 27.125 L 24.9375 26.375 L 24.46875 25.59375 L 23.59375 25.59375 z M 30.34375 25.59375 L 29.90625 26.375 L 30.34375 27.125 L 31.25 27.125 L 31.6875 26.375 L 31.25 25.59375 L 30.34375 25.59375 z M 37.125 25.59375 L 36.6875 26.375 L 37.15625 27.125 L 38.03125 27.125 L 38.46875 26.375 L 38.03125 25.59375 L 37.125 25.59375 z M 43.875 25.59375 L 43.4375 26.375 L 43.90625 27.125 L 44.78125 27.125 L 45.21875 26.375 L 44.78125 25.59375 L 43.875 25.59375 z M 6.65625 25.6875 L 6.1875 26.46875 L 6.625 27.21875 L 7.53125 27.21875 L 7.96875 26.46875 L 7.53125 25.6875 L 6.65625 25.6875 z M 13.40625 25.6875 L 12.9375 26.46875 L 13.40625 27.21875 L 14.28125 27.21875 L 14.71875 26.46875 L 14.28125 25.6875 L 13.40625 25.6875 z M 20.1875 25.6875 L 19.75 26.46875 L 20.1875 27.21875 L 21.0625 27.21875 L 21.5 26.46875 L 21.0625 25.6875 L 20.1875 25.6875 z M 26.9375 25.6875 L 26.5 26.46875 L 26.9375 27.21875 L 27.8125 27.21875 L 28.25 26.46875 L 27.8125 25.6875 L 26.9375 25.6875 z M 33.71875 25.6875 L 33.28125 26.46875 L 33.71875 27.21875 L 34.59375 27.21875 L 35.0625 26.46875 L 34.59375 25.6875 L 33.71875 25.6875 z M 40.46875 25.6875 L 40.03125 26.46875 L 40.46875 27.21875 L 41.34375 27.21875 L 41.8125 26.46875 L 41.375 25.6875 L 40.46875 25.6875 z M 4.96875 26.59375 L 4.53125 27.375 L 4.96875 28.125 L 5.84375 28.125 L 6.28125 27.34375 L 5.84375 26.59375 L 4.96875 26.59375 z M 11.75 26.59375 L 11.3125 27.375 L 11.75 28.125 L 12.625 28.125 L 13.09375 27.34375 L 12.625 26.59375 L 11.75 26.59375 z M 18.5 26.59375 L 18.0625 27.375 L 18.5 28.125 L 19.40625 28.125 L 19.84375 27.34375 L 19.375 26.59375 L 18.5 26.59375 z M 25.28125 26.59375 L 24.84375 27.375 L 25.28125 28.125 L 26.1875 28.125 L 26.625 27.34375 L 26.1875 26.59375 L 25.28125 26.59375 z M 32.03125 26.59375 L 31.59375 27.375 L 32.03125 28.125 L 32.9375 28.125 L 33.375 27.34375 L 32.9375 26.59375 L 32.03125 26.59375 z M 38.8125 26.59375 L 38.375 27.375 L 38.84375 28.125 L 39.71875 28.125 L 40.15625 27.34375 L 39.71875 26.59375 L 38.8125 26.59375 z M 45.59375 26.59375 L 45.125 27.375 L 45.59375 28.125 L 46.25 28.125 L 46.25 26.59375 L 45.59375 26.59375 z M 1.75 26.625 L 1.75 28.15625 L 2.4375 28.15625 L 2.875 27.40625 L 2.4375 26.625 L 1.75 26.625 z M 8.34375 26.625 L 7.875 27.40625 L 8.34375 28.15625 L 9.21875 28.15625 L 9.65625 27.40625 L 9.21875 26.625 L 8.34375 26.625 z M 15.09375 26.625 L 14.625 27.40625 L 15.09375 28.15625 L 15.96875 28.15625 L 16.40625 27.40625 L 15.96875 26.625 L 15.09375 26.625 z M 21.875 26.625 L 21.4375 27.40625 L 21.875 28.15625 L 22.75 28.15625 L 23.1875 27.40625 L 22.75 26.625 L 21.875 26.625 z M 28.625 26.625 L 28.1875 27.40625 L 28.625 28.15625 L 29.5 28.15625 L 29.96875 27.40625 L 29.5 26.625 L 28.625 26.625 z M 35.40625 26.625 L 34.96875 27.40625 L 35.40625 28.15625 L 36.28125 28.15625 L 36.75 27.40625 L 36.3125 26.625 L 35.40625 26.625 z M 42.15625 26.625 L 41.71875 27.40625 L 42.15625 28.15625 L 43.03125 28.15625 L 43.5 27.40625 L 43.0625 26.625 L 42.15625 26.625 z M 3.28125 27.53125 L 2.84375 28.3125 L 3.28125 29.0625 L 4.15625 29.0625 L 4.59375 28.28125 L 4.15625 27.53125 L 3.28125 27.53125 z M 10.0625 27.53125 L 9.625 28.3125 L 10.0625 29.0625 L 10.9375 29.0625 L 11.40625 28.28125 L 10.9375 27.53125 L 10.0625 27.53125 z M 16.8125 27.53125 L 16.375 28.3125 L 16.8125 29.0625 L 17.6875 29.0625 L 18.15625 28.28125 L 17.6875 27.53125 L 16.8125 27.53125 z M 23.59375 27.53125 L 23.15625 28.3125 L 23.59375 29.0625 L 24.5 29.0625 L 24.9375 28.28125 L 24.46875 27.53125 L 23.59375 27.53125 z M 30.34375 27.53125 L 29.90625 28.3125 L 30.34375 29.0625 L 31.25 29.0625 L 31.6875 28.28125 L 31.25 27.53125 L 30.34375 27.53125 z M 37.125 27.53125 L 36.6875 28.3125 L 37.15625 29.0625 L 38.03125 29.0625 L 38.46875 28.28125 L 38.03125 27.53125 L 37.125 27.53125 z M 43.875 27.53125 L 43.4375 28.3125 L 43.90625 29.0625 L 44.78125 29.0625 L 45.21875 28.28125 L 44.78125 27.53125 L 43.875 27.53125 z M 6.65625 27.625 L 6.1875 28.375 L 6.625 29.15625 L 7.53125 29.15625 L 7.96875 28.375 L 7.53125 27.625 L 6.65625 27.625 z M 13.40625 27.625 L 12.9375 28.375 L 13.40625 29.15625 L 14.28125 29.15625 L 14.71875 28.375 L 14.28125 27.625 L 13.40625 27.625 z M 20.1875 27.625 L 19.75 28.375 L 20.1875 29.15625 L 21.0625 29.15625 L 21.5 28.375 L 21.0625 27.625 L 20.1875 27.625 z M 26.9375 27.625 L 26.5 28.375 L 26.9375 29.15625 L 27.8125 29.15625 L 28.25 28.375 L 27.8125 27.625 L 26.9375 27.625 z M 33.71875 27.625 L 33.28125 28.375 L 33.71875 29.15625 L 34.59375 29.15625 L 35.0625 28.375 L 34.59375 27.625 L 33.71875 27.625 z M 40.46875 27.625 L 40.03125 28.375 L 40.46875 29.15625 L 41.34375 29.15625 L 41.8125 28.375 L 41.375 27.625 L 40.46875 27.625 z M 5.84375 28.5 L 4.96875 28.53125 L 4.53125 29.28125 L 4.96875 30.0625 L 5.84375 30.0625 L 6.28125 29.28125 L 5.84375 28.5 z M 12.625 28.5 L 11.75 28.53125 L 11.3125 29.28125 L 11.75 30.0625 L 12.625 30.0625 L 13.09375 29.28125 L 12.625 28.5 z M 19.375 28.5 L 18.5 28.53125 L 18.0625 29.28125 L 18.5 30.0625 L 19.40625 30.0625 L 19.84375 29.28125 L 19.375 28.5 z M 26.1875 28.5 L 25.28125 28.53125 L 24.84375 29.28125 L 25.28125 30.0625 L 26.1875 30.0625 L 26.625 29.28125 L 26.1875 28.5 z M 32.9375 28.5 L 32.03125 28.53125 L 31.59375 29.28125 L 32.03125 30.0625 L 32.9375 30.0625 L 33.375 29.28125 L 32.9375 28.5 z M 39.71875 28.5 L 38.8125 28.53125 L 38.375 29.28125 L 38.84375 30.0625 L 39.71875 30.0625 L 40.15625 29.28125 L 39.71875 28.5 z M 46.25 28.5 L 45.59375 28.53125 L 45.125 29.28125 L 45.59375 30.0625 L 46.25 30.0625 L 46.25 28.5 z M 1.75 28.5625 L 1.75 30.09375 L 2.4375 30.09375 L 2.875 29.3125 L 2.4375 28.5625 L 1.75 28.5625 z M 8.34375 28.5625 L 7.875 29.3125 L 8.34375 30.09375 L 9.21875 30.09375 L 9.65625 29.3125 L 9.21875 28.5625 L 8.34375 28.5625 z M 15.09375 28.5625 L 14.625 29.3125 L 15.09375 30.09375 L 15.96875 30.09375 L 16.40625 29.3125 L 15.96875 28.5625 L 15.09375 28.5625 z M 21.875 28.5625 L 21.4375 29.3125 L 21.875 30.09375 L 22.75 30.09375 L 23.1875 29.3125 L 22.75 28.5625 L 21.875 28.5625 z M 28.625 28.5625 L 28.1875 29.3125 L 28.625 30.09375 L 29.5 30.09375 L 29.96875 29.3125 L 29.5 28.5625 L 28.625 28.5625 z M 35.40625 28.5625 L 34.96875 29.3125 L 35.40625 30.09375 L 36.28125 30.09375 L 36.75 29.3125 L 36.3125 28.5625 L 35.40625 28.5625 z M 42.15625 28.5625 L 41.71875 29.3125 L 42.15625 30.09375 L 43.03125 30.09375 L 43.5 29.3125 L 43.0625 28.5625 L 42.15625 28.5625 z M 3.28125 29.4375 L 2.84375 30.21875 L 3.28125 31 L 4.15625 30.96875 L 4.59375 30.21875 L 4.15625 29.4375 L 3.28125 29.4375 z M 10.0625 29.4375 L 9.625 30.21875 L 10.0625 31 L 10.9375 30.96875 L 11.40625 30.21875 L 10.9375 29.4375 L 10.0625 29.4375 z M 16.8125 29.4375 L 16.375 30.21875 L 16.8125 31 L 17.6875 30.96875 L 18.15625 30.21875 L 17.6875 29.4375 L 16.8125 29.4375 z M 23.59375 29.4375 L 23.15625 30.21875 L 23.59375 31 L 24.5 30.96875 L 24.9375 30.21875 L 24.46875 29.4375 L 23.59375 29.4375 z M 30.34375 29.4375 L 29.90625 30.21875 L 30.34375 31 L 31.25 30.96875 L 31.6875 30.21875 L 31.25 29.4375 L 30.34375 29.4375 z M 37.125 29.4375 L 36.6875 30.21875 L 37.15625 31 L 38.03125 30.96875 L 38.46875 30.21875 L 38.03125 29.4375 L 37.125 29.4375 z M 43.875 29.4375 L 43.4375 30.21875 L 43.90625 31 L 44.78125 30.96875 L 45.21875 30.21875 L 44.78125 29.4375 L 43.875 29.4375 z M 6.65625 29.53125 L 6.1875 30.3125 L 6.625 31.0625 L 7.53125 31.0625 L 7.96875 30.3125 L 7.53125 29.53125 L 6.65625 29.53125 z M 13.40625 29.53125 L 12.9375 30.3125 L 13.40625 31.0625 L 14.28125 31.0625 L 14.71875 30.3125 L 14.28125 29.53125 L 13.40625 29.53125 z M 20.1875 29.53125 L 19.75 30.3125 L 20.1875 31.0625 L 21.0625 31.0625 L 21.5 30.3125 L 21.0625 29.53125 L 20.1875 29.53125 z M 26.9375 29.53125 L 26.5 30.3125 L 26.9375 31.0625 L 27.8125 31.0625 L 28.25 30.3125 L 27.8125 29.53125 L 26.9375 29.53125 z M 33.71875 29.53125 L 33.28125 30.3125 L 33.71875 31.0625 L 34.59375 31.0625 L 35.0625 30.3125 L 34.59375 29.53125 L 33.71875 29.53125 z M 40.46875 29.53125 L 40.03125 30.3125 L 40.46875 31.0625 L 41.34375 31.0625 L 41.8125 30.3125 L 41.375 29.53125 L 40.46875 29.53125 z M 4.96875 30.4375 L 4.53125 31.21875 L 4.96875 31.96875 L 5.84375 31.96875 L 6.28125 31.1875 L 5.84375 30.4375 L 4.96875 30.4375 z M 11.75 30.4375 L 11.3125 31.21875 L 11.75 31.96875 L 12.625 31.96875 L 13.09375 31.1875 L 12.625 30.4375 L 11.75 30.4375 z M 18.5 30.4375 L 18.0625 31.21875 L 18.5 31.96875 L 19.40625 31.96875 L 19.84375 31.1875 L 19.375 30.4375 L 18.5 30.4375 z M 25.28125 30.4375 L 24.84375 31.21875 L 25.28125 31.96875 L 26.1875 31.96875 L 26.625 31.1875 L 26.1875 30.4375 L 25.28125 30.4375 z M 32.03125 30.4375 L 31.59375 31.21875 L 32.03125 31.96875 L 32.9375 31.96875 L 33.375 31.1875 L 32.9375 30.4375 L 32.03125 30.4375 z M 38.8125 30.4375 L 38.375 31.21875 L 38.84375 31.96875 L 39.71875 31.96875 L 40.15625 31.1875 L 39.71875 30.4375 L 38.8125 30.4375 z M 45.59375 30.4375 L 45.125 31.21875 L 45.59375 31.96875 L 46.25 31.96875 L 46.25 30.4375 L 45.59375 30.4375 z M 1.75 30.46875 L 1.75 32 L 2.4375 32 L 2.875 31.25 L 2.4375 30.46875 L 1.75 30.46875 z M 8.34375 30.46875 L 7.875 31.25 L 8.34375 32 L 9.21875 32 L 9.65625 31.25 L 9.21875 30.46875 L 8.34375 30.46875 z M 15.09375 30.46875 L 14.625 31.25 L 15.09375 32 L 15.96875 32 L 16.40625 31.25 L 15.96875 30.46875 L 15.09375 30.46875 z M 21.875 30.46875 L 21.4375 31.25 L 21.875 32 L 22.75 32 L 23.1875 31.25 L 22.75 30.46875 L 21.875 30.46875 z M 28.625 30.46875 L 28.1875 31.25 L 28.625 32 L 29.5 32 L 29.96875 31.25 L 29.5 30.46875 L 28.625 30.46875 z M 35.40625 30.46875 L 34.96875 31.25 L 35.40625 32 L 36.28125 32 L 36.75 31.25 L 36.3125 30.46875 L 35.40625 30.46875 z M 42.15625 30.46875 L 41.71875 31.25 L 42.15625 32 L 43.03125 32 L 43.5 31.25 L 43.0625 30.46875 L 42.15625 30.46875 z M 3.28125 31.375 L 2.84375 32.15625 L 3.28125 32.90625 L 4.15625 32.90625 L 4.59375 32.125 L 4.15625 31.375 L 3.28125 31.375 z M 10.0625 31.375 L 9.625 32.15625 L 10.0625 32.90625 L 10.9375 32.90625 L 11.40625 32.125 L 10.9375 31.375 L 10.0625 31.375 z M 16.8125 31.375 L 16.375 32.15625 L 16.8125 32.90625 L 17.6875 32.90625 L 18.15625 32.125 L 17.6875 31.375 L 16.8125 31.375 z M 23.59375 31.375 L 23.15625 32.15625 L 23.59375 32.90625 L 24.5 32.90625 L 24.9375 32.125 L 24.46875 31.375 L 23.59375 31.375 z M 30.34375 31.375 L 29.90625 32.15625 L 30.34375 32.90625 L 31.25 32.90625 L 31.6875 32.125 L 31.25 31.375 L 30.34375 31.375 z M 37.125 31.375 L 36.6875 32.15625 L 37.15625 32.90625 L 38.03125 32.90625 L 38.46875 32.125 L 38.03125 31.375 L 37.125 31.375 z M 43.875 31.375 L 43.4375 32.15625 L 43.90625 32.90625 L 44.78125 32.90625 L 45.21875 32.125 L 44.78125 31.375 L 43.875 31.375 z M 6.65625 31.46875 L 6.1875 32.21875 L 6.625 33 L 7.53125 33 L 7.96875 32.21875 L 7.53125 31.46875 L 6.65625 31.46875 z M 13.40625 31.46875 L 12.9375 32.21875 L 13.40625 33 L 14.28125 33 L 14.71875 32.21875 L 14.28125 31.46875 L 13.40625 31.46875 z M 20.1875 31.46875 L 19.75 32.21875 L 20.1875 33 L 21.0625 33 L 21.5 32.21875 L 21.0625 31.46875 L 20.1875 31.46875 z M 26.9375 31.46875 L 26.5 32.21875 L 26.9375 33 L 27.8125 33 L 28.25 32.21875 L 27.8125 31.46875 L 26.9375 31.46875 z M 33.71875 31.46875 L 33.28125 32.21875 L 33.71875 33 L 34.59375 33 L 35.0625 32.21875 L 34.59375 31.46875 L 33.71875 31.46875 z M 40.46875 31.46875 L 40.03125 32.21875 L 40.46875 33 L 41.34375 33 L 41.8125 32.21875 L 41.375 31.46875 L 40.46875 31.46875 z M 5.84375 32.34375 L 4.96875 32.375 L 4.53125 33.125 L 4.96875 33.90625 L 5.84375 33.90625 L 6.28125 33.125 L 5.84375 32.34375 z M 12.625 32.34375 L 11.75 32.375 L 11.3125 33.125 L 11.75 33.90625 L 12.625 33.90625 L 13.09375 33.125 L 12.625 32.34375 z M 19.375 32.34375 L 18.5 32.375 L 18.0625 33.125 L 18.5 33.90625 L 19.40625 33.90625 L 19.84375 33.125 L 19.375 32.34375 z M 26.1875 32.34375 L 25.28125 32.375 L 24.84375 33.125 L 25.28125 33.90625 L 26.1875 33.90625 L 26.625 33.125 L 26.1875 32.34375 z M 32.9375 32.34375 L 32.03125 32.375 L 31.59375 33.125 L 32.03125 33.90625 L 32.9375 33.90625 L 33.375 33.125 L 32.9375 32.34375 z M 39.71875 32.34375 L 38.8125 32.375 L 38.375 33.125 L 38.84375 33.90625 L 39.71875 33.90625 L 40.15625 33.125 L 39.71875 32.34375 z M 46.25 32.34375 L 45.59375 32.375 L 45.125 33.125 L 45.59375 33.90625 L 46.25 33.90625 L 46.25 32.34375 z M 1.75 32.40625 L 1.75 33.9375 L 2.4375 33.9375 L 2.875 33.15625 L 2.4375 32.40625 L 1.75 32.40625 z M 8.34375 32.40625 L 7.875 33.15625 L 8.34375 33.9375 L 9.21875 33.9375 L 9.65625 33.15625 L 9.21875 32.40625 L 8.34375 32.40625 z M 15.09375 32.40625 L 14.625 33.15625 L 15.09375 33.9375 L 15.96875 33.9375 L 16.40625 33.15625 L 15.96875 32.40625 L 15.09375 32.40625 z M 21.875 32.40625 L 21.4375 33.15625 L 21.875 33.9375 L 22.75 33.9375 L 23.1875 33.15625 L 22.75 32.40625 L 21.875 32.40625 z M 28.625 32.40625 L 28.1875 33.15625 L 28.625 33.9375 L 29.5 33.9375 L 29.96875 33.15625 L 29.5 32.40625 L 28.625 32.40625 z M 35.40625 32.40625 L 34.96875 33.15625 L 35.40625 33.9375 L 36.28125 33.9375 L 36.75 33.15625 L 36.3125 32.40625 L 35.40625 32.40625 z M 42.15625 32.40625 L 41.71875 33.15625 L 42.15625 33.9375 L 43.03125 33.9375 L 43.5 33.15625 L 43.0625 32.40625 L 42.15625 32.40625 z M 4.15625 33.28125 L 3.28125 33.3125 L 2.84375 34.0625 L 3.28125 34.84375 L 4.15625 34.84375 L 4.59375 34.0625 L 4.15625 33.28125 z M 10.9375 33.28125 L 10.0625 33.3125 L 9.625 34.0625 L 10.0625 34.84375 L 10.9375 34.84375 L 11.40625 34.0625 L 10.9375 33.28125 z M 17.6875 33.28125 L 16.8125 33.3125 L 16.375 34.0625 L 16.8125 34.84375 L 17.6875 34.84375 L 18.15625 34.0625 L 17.6875 33.28125 z M 24.46875 33.28125 L 23.59375 33.3125 L 23.15625 34.0625 L 23.59375 34.84375 L 24.5 34.84375 L 24.9375 34.0625 L 24.46875 33.28125 z M 31.25 33.28125 L 30.34375 33.3125 L 29.90625 34.0625 L 30.34375 34.84375 L 31.25 34.84375 L 31.6875 34.0625 L 31.25 33.28125 z M 38.03125 33.28125 L 37.125 33.3125 L 36.6875 34.0625 L 37.15625 34.84375 L 38.03125 34.84375 L 38.46875 34.0625 L 38.03125 33.28125 z M 44.78125 33.28125 L 43.875 33.3125 L 43.4375 34.0625 L 43.90625 34.84375 L 44.78125 34.84375 L 45.21875 34.0625 L 44.78125 33.28125 z M 6.65625 33.375 L 6.1875 34.15625 L 6.625 34.90625 L 7.53125 34.90625 L 7.96875 34.15625 L 7.53125 33.375 L 6.65625 33.375 z M 13.40625 33.375 L 12.9375 34.15625 L 13.40625 34.90625 L 14.28125 34.90625 L 14.71875 34.15625 L 14.28125 33.375 L 13.40625 33.375 z M 20.1875 33.375 L 19.75 34.15625 L 20.1875 34.90625 L 21.0625 34.90625 L 21.5 34.15625 L 21.0625 33.375 L 20.1875 33.375 z M 26.9375 33.375 L 26.5 34.15625 L 26.9375 34.90625 L 27.8125 34.90625 L 28.25 34.15625 L 27.8125 33.375 L 26.9375 33.375 z M 33.71875 33.375 L 33.28125 34.15625 L 33.71875 34.90625 L 34.59375 34.90625 L 35.0625 34.15625 L 34.59375 33.375 L 33.71875 33.375 z M 40.46875 33.375 L 40.03125 34.15625 L 40.46875 34.90625 L 41.34375 34.90625 L 41.8125 34.15625 L 41.375 33.375 L 40.46875 33.375 z M 4.96875 34.28125 L 4.53125 35.0625 L 4.96875 35.8125 L 5.84375 35.8125 L 6.28125 35.03125 L 5.84375 34.28125 L 4.96875 34.28125 z M 11.75 34.28125 L 11.3125 35.0625 L 11.75 35.8125 L 12.625 35.8125 L 13.09375 35.03125 L 12.625 34.28125 L 11.75 34.28125 z M 18.5 34.28125 L 18.0625 35.0625 L 18.5 35.8125 L 19.40625 35.8125 L 19.84375 35.03125 L 19.375 34.28125 L 18.5 34.28125 z M 25.28125 34.28125 L 24.84375 35.0625 L 25.28125 35.8125 L 26.1875 35.8125 L 26.625 35.03125 L 26.1875 34.28125 L 25.28125 34.28125 z M 32.03125 34.28125 L 31.59375 35.0625 L 32.03125 35.8125 L 32.9375 35.8125 L 33.375 35.03125 L 32.9375 34.28125 L 32.03125 34.28125 z M 38.8125 34.28125 L 38.375 35.0625 L 38.84375 35.8125 L 39.71875 35.8125 L 40.15625 35.03125 L 39.71875 34.28125 L 38.8125 34.28125 z M 45.59375 34.28125 L 45.125 35.0625 L 45.59375 35.8125 L 46.25 35.8125 L 46.25 34.28125 L 45.59375 34.28125 z M 1.75 34.3125 L 1.75 35.84375 L 2.4375 35.84375 L 2.875 35.09375 L 2.4375 34.3125 L 1.75 34.3125 z M 8.34375 34.3125 L 7.875 35.09375 L 8.34375 35.84375 L 9.21875 35.84375 L 9.65625 35.09375 L 9.21875 34.3125 L 8.34375 34.3125 z M 15.09375 34.3125 L 14.625 35.09375 L 15.09375 35.84375 L 15.96875 35.84375 L 16.40625 35.09375 L 15.96875 34.3125 L 15.09375 34.3125 z M 21.875 34.3125 L 21.4375 35.09375 L 21.875 35.84375 L 22.75 35.84375 L 23.1875 35.09375 L 22.75 34.3125 L 21.875 34.3125 z M 28.625 34.3125 L 28.1875 35.09375 L 28.625 35.84375 L 29.5 35.84375 L 29.96875 35.09375 L 29.5 34.3125 L 28.625 34.3125 z M 35.40625 34.3125 L 34.96875 35.09375 L 35.40625 35.84375 L 36.28125 35.84375 L 36.75 35.09375 L 36.3125 34.3125 L 35.40625 34.3125 z M 42.15625 34.3125 L 41.71875 35.09375 L 42.15625 35.84375 L 43.03125 35.84375 L 43.5 35.09375 L 43.0625 34.3125 L 42.15625 34.3125 z M 3.28125 35.21875 L 2.84375 36 L 3.28125 36.75 L 4.15625 36.75 L 4.59375 36 L 4.15625 35.21875 L 3.28125 35.21875 z M 10.0625 35.21875 L 9.625 36 L 10.0625 36.75 L 10.9375 36.75 L 11.40625 36 L 10.9375 35.21875 L 10.0625 35.21875 z M 16.8125 35.21875 L 16.375 36 L 16.8125 36.75 L 17.6875 36.75 L 18.15625 36 L 17.6875 35.21875 L 16.8125 35.21875 z M 23.59375 35.21875 L 23.15625 36 L 23.59375 36.75 L 24.5 36.75 L 24.9375 36 L 24.46875 35.21875 L 23.59375 35.21875 z M 30.34375 35.21875 L 29.90625 36 L 30.34375 36.75 L 31.25 36.75 L 31.6875 36 L 31.25 35.21875 L 30.34375 35.21875 z M 37.125 35.21875 L 36.6875 36 L 37.15625 36.75 L 38.03125 36.75 L 38.46875 36 L 38.03125 35.21875 L 37.125 35.21875 z M 43.875 35.21875 L 43.4375 36 L 43.90625 36.75 L 44.78125 36.75 L 45.21875 36 L 44.78125 35.21875 L 43.875 35.21875 z M 6.65625 35.3125 L 6.1875 36.0625 L 6.625 36.84375 L 7.53125 36.84375 L 7.96875 36.0625 L 7.53125 35.3125 L 6.65625 35.3125 z M 13.40625 35.3125 L 12.9375 36.0625 L 13.40625 36.84375 L 14.28125 36.84375 L 14.71875 36.0625 L 14.28125 35.3125 L 13.40625 35.3125 z M 20.1875 35.3125 L 19.75 36.0625 L 20.1875 36.84375 L 21.0625 36.84375 L 21.5 36.0625 L 21.0625 35.3125 L 20.1875 35.3125 z M 26.9375 35.3125 L 26.5 36.0625 L 26.9375 36.84375 L 27.8125 36.84375 L 28.25 36.0625 L 27.8125 35.3125 L 26.9375 35.3125 z M 33.71875 35.3125 L 33.28125 36.0625 L 33.71875 36.84375 L 34.59375 36.84375 L 35.0625 36.0625 L 34.59375 35.3125 L 33.71875 35.3125 z M 40.46875 35.3125 L 40.03125 36.0625 L 40.46875 36.84375 L 41.34375 36.84375 L 41.8125 36.0625 L 41.375 35.3125 L 40.46875 35.3125 z M 5.84375 36.1875 L 4.96875 36.21875 L 4.53125 36.96875 L 4.96875 37.75 L 5.84375 37.75 L 6.28125 36.96875 L 5.84375 36.1875 z M 12.625 36.1875 L 11.75 36.21875 L 11.3125 36.96875 L 11.75 37.75 L 12.625 37.75 L 13.09375 36.96875 L 12.625 36.1875 z M 19.375 36.1875 L 18.5 36.21875 L 18.0625 36.96875 L 18.5 37.75 L 19.40625 37.75 L 19.84375 36.96875 L 19.375 36.1875 z M 26.1875 36.1875 L 25.28125 36.21875 L 24.84375 36.96875 L 25.28125 37.75 L 26.1875 37.75 L 26.625 36.96875 L 26.1875 36.1875 z M 32.9375 36.1875 L 32.03125 36.21875 L 31.59375 36.96875 L 32.03125 37.75 L 32.9375 37.75 L 33.375 36.96875 L 32.9375 36.1875 z M 39.71875 36.1875 L 38.8125 36.21875 L 38.375 36.96875 L 38.84375 37.75 L 39.71875 37.75 L 40.15625 36.96875 L 39.71875 36.1875 z M 46.25 36.1875 L 45.59375 36.21875 L 45.125 36.96875 L 45.59375 37.75 L 46.25 37.75 L 46.25 36.1875 z M 1.75 36.25 L 1.75 37.78125 L 2.4375 37.78125 L 2.875 37 L 2.4375 36.25 L 1.75 36.25 z M 8.34375 36.25 L 7.875 37 L 8.34375 37.78125 L 9.21875 37.78125 L 9.65625 37 L 9.21875 36.25 L 8.34375 36.25 z M 15.09375 36.25 L 14.625 37 L 15.09375 37.78125 L 15.96875 37.78125 L 16.40625 37 L 15.96875 36.25 L 15.09375 36.25 z M 21.875 36.25 L 21.4375 37 L 21.875 37.78125 L 22.75 37.78125 L 23.1875 37 L 22.75 36.25 L 21.875 36.25 z M 28.625 36.25 L 28.1875 37 L 28.625 37.78125 L 29.5 37.78125 L 29.96875 37 L 29.5 36.25 L 28.625 36.25 z M 35.40625 36.25 L 34.96875 37 L 35.40625 37.78125 L 36.28125 37.78125 L 36.75 37 L 36.3125 36.25 L 35.40625 36.25 z M 42.15625 36.25 L 41.71875 37 L 42.15625 37.78125 L 43.03125 37.78125 L 43.5 37 L 43.0625 36.25 L 42.15625 36.25 z M 3.28125 37.15625 L 2.84375 37.90625 L 3.28125 38.6875 L 4.15625 38.6875 L 4.59375 37.90625 L 4.15625 37.15625 L 3.28125 37.15625 z M 10.0625 37.15625 L 9.625 37.90625 L 10.0625 38.6875 L 10.9375 38.6875 L 11.40625 37.90625 L 10.9375 37.15625 L 10.0625 37.15625 z M 16.8125 37.15625 L 16.375 37.90625 L 16.8125 38.6875 L 17.6875 38.6875 L 18.15625 37.90625 L 17.6875 37.15625 L 16.8125 37.15625 z M 23.59375 37.15625 L 23.15625 37.90625 L 23.59375 38.6875 L 24.5 38.6875 L 24.9375 37.90625 L 24.46875 37.15625 L 23.59375 37.15625 z M 30.34375 37.15625 L 29.90625 37.90625 L 30.34375 38.6875 L 31.25 38.6875 L 31.6875 37.90625 L 31.25 37.15625 L 30.34375 37.15625 z M 37.125 37.15625 L 36.6875 37.90625 L 37.15625 38.6875 L 38.03125 38.6875 L 38.46875 37.90625 L 38.03125 37.15625 L 37.125 37.15625 z M 43.875 37.15625 L 43.4375 37.90625 L 43.90625 38.6875 L 44.78125 38.6875 L 45.21875 37.90625 L 44.78125 37.15625 L 43.875 37.15625 z M 6.65625 37.21875 L 6.1875 38 L 6.625 38.75 L 7.53125 38.75 L 7.96875 38 L 7.53125 37.21875 L 6.65625 37.21875 z M 13.40625 37.21875 L 12.9375 38 L 13.40625 38.75 L 14.28125 38.75 L 14.71875 38 L 14.28125 37.21875 L 13.40625 37.21875 z M 20.1875 37.21875 L 19.75 38 L 20.1875 38.75 L 21.0625 38.75 L 21.5 38 L 21.0625 37.21875 L 20.1875 37.21875 z M 26.9375 37.21875 L 26.5 38 L 26.9375 38.75 L 27.8125 38.75 L 28.25 38 L 27.8125 37.21875 L 26.9375 37.21875 z M 33.71875 37.21875 L 33.28125 38 L 33.71875 38.75 L 34.59375 38.75 L 35.0625 38 L 34.59375 37.21875 L 33.71875 37.21875 z M 40.46875 37.21875 L 40.03125 38 L 40.46875 38.75 L 41.34375 38.75 L 41.8125 38 L 41.375 37.21875 L 40.46875 37.21875 z M 4.96875 38.125 L 4.53125 38.90625 L 4.96875 39.65625 L 5.84375 39.65625 L 6.28125 38.875 L 5.84375 38.125 L 4.96875 38.125 z M 11.75 38.125 L 11.3125 38.90625 L 11.75 39.65625 L 12.625 39.65625 L 13.09375 38.875 L 12.625 38.125 L 11.75 38.125 z M 18.5 38.125 L 18.0625 38.90625 L 18.5 39.65625 L 19.40625 39.65625 L 19.84375 38.875 L 19.375 38.125 L 18.5 38.125 z M 25.28125 38.125 L 24.84375 38.90625 L 25.28125 39.65625 L 26.1875 39.65625 L 26.625 38.875 L 26.1875 38.125 L 25.28125 38.125 z M 32.03125 38.125 L 31.59375 38.90625 L 32.03125 39.65625 L 32.9375 39.65625 L 33.375 38.875 L 32.9375 38.125 L 32.03125 38.125 z M 38.8125 38.125 L 38.375 38.90625 L 38.84375 39.65625 L 39.71875 39.65625 L 40.15625 38.875 L 39.71875 38.125 L 38.8125 38.125 z M 45.59375 38.125 L 45.125 38.90625 L 45.59375 39.65625 L 46.25 39.65625 L 46.25 38.125 L 45.59375 38.125 z M 1.75 38.15625 L 1.75 39.6875 L 2.4375 39.71875 L 2.875 38.9375 L 2.4375 38.15625 L 1.75 38.15625 z M 8.34375 38.15625 L 7.875 38.9375 L 8.34375 39.6875 L 9.21875 39.71875 L 9.65625 38.9375 L 9.21875 38.15625 L 8.34375 38.15625 z M 15.09375 38.15625 L 14.625 38.9375 L 15.09375 39.6875 L 15.96875 39.71875 L 16.40625 38.9375 L 15.96875 38.15625 L 15.09375 38.15625 z M 21.875 38.15625 L 21.4375 38.9375 L 21.875 39.6875 L 22.75 39.71875 L 23.1875 38.9375 L 22.75 38.15625 L 21.875 38.15625 z M 28.625 38.15625 L 28.1875 38.9375 L 28.625 39.6875 L 29.5 39.71875 L 29.96875 38.9375 L 29.5 38.15625 L 28.625 38.15625 z M 35.40625 38.15625 L 34.96875 38.9375 L 35.40625 39.6875 L 36.28125 39.71875 L 36.75 38.9375 L 36.3125 38.15625 L 35.40625 38.15625 z M 42.15625 38.15625 L 41.71875 38.9375 L 42.15625 39.6875 L 43.03125 39.71875 L 43.5 38.9375 L 43.0625 38.15625 L 42.15625 38.15625 z M 3.28125 39.0625 L 2.84375 39.84375 L 3.28125 40.59375 L 4.15625 40.59375 L 4.59375 39.84375 L 4.15625 39.0625 L 3.28125 39.0625 z M 10.0625 39.0625 L 9.625 39.84375 L 10.0625 40.59375 L 10.9375 40.59375 L 11.40625 39.84375 L 10.9375 39.0625 L 10.0625 39.0625 z M 16.8125 39.0625 L 16.375 39.84375 L 16.8125 40.59375 L 17.6875 40.59375 L 18.15625 39.84375 L 17.6875 39.0625 L 16.8125 39.0625 z M 23.59375 39.0625 L 23.15625 39.84375 L 23.59375 40.59375 L 24.5 40.59375 L 24.9375 39.84375 L 24.46875 39.0625 L 23.59375 39.0625 z M 30.34375 39.0625 L 29.90625 39.84375 L 30.34375 40.59375 L 31.25 40.59375 L 31.6875 39.84375 L 31.25 39.0625 L 30.34375 39.0625 z M 37.125 39.0625 L 36.6875 39.84375 L 37.15625 40.59375 L 38.03125 40.59375 L 38.46875 39.84375 L 38.03125 39.0625 L 37.125 39.0625 z M 43.875 39.0625 L 43.4375 39.84375 L 43.90625 40.59375 L 44.78125 40.59375 L 45.21875 39.84375 L 44.78125 39.0625 L 43.875 39.0625 z M 6.65625 39.15625 L 6.1875 39.90625 L 6.625 40.6875 L 7.53125 40.6875 L 7.96875 39.90625 L 7.53125 39.15625 L 6.65625 39.15625 z M 13.40625 39.15625 L 12.9375 39.90625 L 13.40625 40.6875 L 14.28125 40.6875 L 14.71875 39.90625 L 14.28125 39.15625 L 13.40625 39.15625 z M 20.1875 39.15625 L 19.75 39.90625 L 20.1875 40.6875 L 21.0625 40.6875 L 21.5 39.90625 L 21.0625 39.15625 L 20.1875 39.15625 z M 26.9375 39.15625 L 26.5 39.90625 L 26.9375 40.6875 L 27.8125 40.6875 L 28.25 39.90625 L 27.8125 39.15625 L 26.9375 39.15625 z M 33.71875 39.15625 L 33.28125 39.90625 L 33.71875 40.6875 L 34.59375 40.6875 L 35.0625 39.90625 L 34.59375 39.15625 L 33.71875 39.15625 z M 40.46875 39.15625 L 40.03125 39.90625 L 40.46875 40.6875 L 41.34375 40.6875 L 41.8125 39.90625 L 41.375 39.15625 L 40.46875 39.15625 z M 5.84375 40.03125 L 4.96875 40.0625 L 4.53125 40.8125 L 4.96875 41.59375 L 5.84375 41.59375 L 6.28125 40.8125 L 5.84375 40.03125 z M 12.625 40.03125 L 11.75 40.0625 L 11.3125 40.8125 L 11.75 41.59375 L 12.625 41.59375 L 13.09375 40.8125 L 12.625 40.03125 z M 19.375 40.03125 L 18.5 40.0625 L 18.0625 40.8125 L 18.5 41.59375 L 19.40625 41.59375 L 19.84375 40.8125 L 19.375 40.03125 z M 26.1875 40.03125 L 25.28125 40.0625 L 24.84375 40.8125 L 25.28125 41.59375 L 26.1875 41.59375 L 26.625 40.8125 L 26.1875 40.03125 z M 32.9375 40.03125 L 32.03125 40.0625 L 31.59375 40.8125 L 32.03125 41.59375 L 32.9375 41.59375 L 33.375 40.8125 L 32.9375 40.03125 z M 39.71875 40.03125 L 38.8125 40.0625 L 38.375 40.8125 L 38.84375 41.59375 L 39.71875 41.59375 L 40.15625 40.8125 L 39.71875 40.03125 z M 46.25 40.03125 L 45.59375 40.0625 L 45.125 40.8125 L 45.59375 41.59375 L 46.125 41.59375 C 46.206823 41.202456 46.25 40.822551 46.25 40.40625 L 46.25 40.03125 z M 1.75 40.09375 L 1.75 40.40625 C 1.75 40.833287 1.7890163 41.224391 1.875 41.625 L 2.4375 41.625 L 2.875 40.875 L 2.4375 40.09375 L 1.75 40.09375 z M 8.34375 40.09375 L 7.875 40.84375 L 8.34375 41.625 L 9.21875 41.625 L 9.65625 40.875 L 9.21875 40.09375 L 8.34375 40.09375 z M 15.09375 40.09375 L 14.625 40.84375 L 15.09375 41.625 L 15.96875 41.625 L 16.40625 40.875 L 15.96875 40.09375 L 15.09375 40.09375 z M 21.875 40.09375 L 21.4375 40.84375 L 21.875 41.625 L 22.75 41.625 L 23.1875 40.875 L 22.75 40.09375 L 21.875 40.09375 z M 28.625 40.09375 L 28.1875 40.84375 L 28.625 41.625 L 29.5 41.625 L 29.96875 40.875 L 29.5 40.09375 L 28.625 40.09375 z M 35.40625 40.09375 L 34.96875 40.84375 L 35.40625 41.625 L 36.28125 41.625 L 36.75 40.875 L 36.3125 40.09375 L 35.40625 40.09375 z M 42.15625 40.09375 L 41.71875 40.84375 L 42.15625 41.625 L 43.03125 41.625 L 43.5 40.875 L 43.0625 40.09375 L 42.15625 40.09375 z M 3.28125 41 L 2.84375 41.75 L 3.28125 42.53125 L 4.15625 42.53125 L 4.59375 41.75 L 4.15625 41 L 3.28125 41 z M 10.0625 41 L 9.625 41.75 L 10.0625 42.53125 L 10.9375 42.53125 L 11.40625 41.75 L 10.9375 41 L 10.0625 41 z M 16.8125 41 L 16.375 41.75 L 16.8125 42.53125 L 17.6875 42.53125 L 18.15625 41.75 L 17.6875 41 L 16.8125 41 z M 23.59375 41 L 23.15625 41.75 L 23.59375 42.53125 L 24.5 42.53125 L 24.9375 41.75 L 24.46875 41 L 23.59375 41 z M 30.34375 41 L 29.90625 41.75 L 30.34375 42.53125 L 31.25 42.53125 L 31.6875 41.75 L 31.25 41 L 30.34375 41 z M 37.125 41 L 36.6875 41.75 L 37.15625 42.53125 L 38.03125 42.53125 L 38.46875 41.75 L 38.03125 41 L 37.125 41 z M 43.875 41 L 43.4375 41.75 L 43.90625 42.53125 L 44.78125 42.53125 L 45.21875 41.75 L 44.78125 41 L 43.875 41 z M 6.65625 41.0625 L 6.1875 41.84375 L 6.625 42.59375 L 7.53125 42.59375 L 7.96875 41.84375 L 7.53125 41.0625 L 6.65625 41.0625 z M 13.40625 41.0625 L 12.9375 41.84375 L 13.40625 42.59375 L 14.28125 42.59375 L 14.71875 41.84375 L 14.28125 41.0625 L 13.40625 41.0625 z M 20.1875 41.0625 L 19.75 41.84375 L 20.1875 42.59375 L 21.0625 42.59375 L 21.5 41.84375 L 21.0625 41.0625 L 20.1875 41.0625 z M 26.9375 41.0625 L 26.5 41.84375 L 26.9375 42.59375 L 27.8125 42.59375 L 28.25 41.84375 L 27.8125 41.0625 L 26.9375 41.0625 z M 33.71875 41.0625 L 33.28125 41.84375 L 33.71875 42.59375 L 34.59375 42.59375 L 35.0625 41.84375 L 34.59375 41.0625 L 33.71875 41.0625 z M 40.46875 41.0625 L 40.03125 41.84375 L 40.46875 42.59375 L 41.34375 42.59375 L 41.8125 41.84375 L 41.375 41.0625 L 40.46875 41.0625 z M 4.96875 41.96875 L 4.53125 42.75 L 4.96875 43.5 L 5.84375 43.5 L 6.28125 42.71875 L 5.84375 41.96875 L 4.96875 41.96875 z M 11.75 41.96875 L 11.3125 42.75 L 11.75 43.5 L 12.625 43.5 L 13.09375 42.71875 L 12.625 41.96875 L 11.75 41.96875 z M 18.5 41.96875 L 18.0625 42.75 L 18.5 43.5 L 19.40625 43.5 L 19.84375 42.71875 L 19.375 41.96875 L 18.5 41.96875 z M 25.28125 41.96875 L 24.84375 42.75 L 25.28125 43.5 L 26.1875 43.5 L 26.625 42.71875 L 26.1875 41.96875 L 25.28125 41.96875 z M 32.03125 41.96875 L 31.59375 42.75 L 32.03125 43.5 L 32.9375 43.5 L 33.375 42.71875 L 32.9375 41.96875 L 32.03125 41.96875 z M 38.8125 41.96875 L 38.375 42.75 L 38.84375 43.5 L 39.71875 43.5 L 40.15625 42.71875 L 39.71875 41.96875 L 38.8125 41.96875 z M 45.59375 41.96875 L 45.125 42.75 L 45.46875 43.28125 C 45.69863 42.87564 45.902708 42.427958 46.03125 41.96875 L 45.59375 41.96875 z M 1.96875 42 C 2.1032528 42.470949 2.3214929 42.929964 2.5625 43.34375 L 2.875 42.78125 L 2.4375 42.03125 L 1.96875 42 z M 8.34375 42 L 7.875 42.78125 L 8.34375 43.5625 L 9.21875 43.5625 L 9.65625 42.78125 L 9.21875 42.03125 L 8.34375 42 z M 15.09375 42 L 14.625 42.78125 L 15.09375 43.5625 L 15.96875 43.5625 L 16.40625 42.78125 L 15.96875 42.03125 L 15.09375 42 z M 21.875 42 L 21.4375 42.78125 L 21.875 43.5625 L 22.75 43.5625 L 23.1875 42.78125 L 22.75 42.03125 L 21.875 42 z M 28.625 42 L 28.1875 42.78125 L 28.625 43.5625 L 29.5 43.5625 L 29.96875 42.78125 L 29.5 42.03125 L 28.625 42 z M 35.40625 42 L 34.96875 42.78125 L 35.40625 43.5625 L 36.28125 43.5625 L 36.75 42.78125 L 36.3125 42.03125 L 35.40625 42 z M 42.15625 42 L 41.71875 42.78125 L 42.15625 43.5625 L 43.03125 43.5625 L 43.5 42.78125 L 43.0625 42.03125 L 42.15625 42 z M 3.28125 42.90625 L 2.84375 43.6875 L 3.09375 44.125 C 3.1843604 44.234884 3.2767154 44.334597 3.375 44.4375 L 4.15625 44.4375 L 4.59375 43.6875 L 4.15625 42.90625 L 3.28125 42.90625 z M 10.0625 42.90625 L 9.625 43.6875 L 10.0625 44.4375 L 10.9375 44.4375 L 11.40625 43.6875 L 10.9375 42.90625 L 10.0625 42.90625 z M 16.8125 42.90625 L 16.375 43.6875 L 16.8125 44.4375 L 17.6875 44.4375 L 18.15625 43.6875 L 17.6875 42.90625 L 16.8125 42.90625 z M 23.59375 42.90625 L 23.15625 43.6875 L 23.59375 44.4375 L 24.5 44.4375 L 24.9375 43.6875 L 24.46875 42.90625 L 23.59375 42.90625 z M 30.34375 42.90625 L 29.90625 43.6875 L 30.34375 44.4375 L 31.25 44.4375 L 31.6875 43.6875 L 31.25 42.90625 L 30.34375 42.90625 z M 37.125 42.90625 L 36.6875 43.6875 L 37.15625 44.4375 L 38.03125 44.4375 L 38.46875 43.6875 L 38.03125 42.90625 L 37.125 42.90625 z M 43.875 42.90625 L 43.4375 43.6875 L 43.90625 44.4375 L 44.625 44.4375 C 44.806058 44.247934 44.970593 44.056401 45.125 43.84375 L 45.21875 43.6875 L 44.78125 42.90625 L 43.875 42.90625 z M 6.65625 43 L 6.1875 43.75 L 6.625 44.53125 L 7.53125 44.53125 L 7.96875 43.75 L 7.53125 43 L 6.65625 43 z M 13.40625 43 L 12.9375 43.75 L 13.40625 44.53125 L 14.28125 44.53125 L 14.71875 43.75 L 14.28125 43 L 13.40625 43 z M 20.1875 43 L 19.75 43.75 L 20.1875 44.53125 L 21.0625 44.53125 L 21.5 43.75 L 21.0625 43 L 20.1875 43 z M 26.9375 43 L 26.5 43.75 L 26.9375 44.53125 L 27.8125 44.53125 L 28.25 43.75 L 27.8125 43 L 26.9375 43 z M 33.71875 43 L 33.28125 43.75 L 33.71875 44.53125 L 34.59375 44.53125 L 35.0625 43.75 L 34.59375 43 L 33.71875 43 z M 40.46875 43 L 40.03125 43.75 L 40.46875 44.53125 L 41.34375 44.53125 L 41.8125 43.75 L 41.375 43 L 40.46875 43 z M 5.84375 43.875 L 4.96875 43.90625 L 4.53125 44.65625 L 4.96875 45.4375 L 5.84375 45.4375 L 6.28125 44.65625 L 5.84375 43.875 z M 12.625 43.875 L 11.75 43.90625 L 11.3125 44.65625 L 11.75 45.4375 L 12.625 45.4375 L 13.09375 44.65625 L 12.625 43.875 z M 19.375 43.875 L 18.5 43.90625 L 18.0625 44.65625 L 18.5 45.4375 L 19.40625 45.4375 L 19.84375 44.65625 L 19.375 43.875 z M 26.1875 43.875 L 25.28125 43.90625 L 24.84375 44.65625 L 25.28125 45.4375 L 26.1875 45.4375 L 26.625 44.65625 L 26.1875 43.875 z M 32.9375 43.875 L 32.03125 43.90625 L 31.59375 44.65625 L 32.03125 45.4375 L 32.9375 45.4375 L 33.375 44.65625 L 32.9375 43.875 z M 39.71875 43.875 L 38.8125 43.90625 L 38.375 44.65625 L 38.84375 45.4375 L 39.71875 45.4375 L 40.15625 44.65625 L 39.71875 43.875 z M 8.34375 43.9375 L 7.875 44.71875 L 8.34375 45.46875 L 9.21875 45.46875 L 9.65625 44.71875 L 9.21875 43.9375 L 8.34375 43.9375 z M 15.09375 43.9375 L 14.625 44.71875 L 15.09375 45.46875 L 15.96875 45.46875 L 16.40625 44.71875 L 15.96875 43.9375 L 15.09375 43.9375 z M 21.875 43.9375 L 21.4375 44.71875 L 21.875 45.46875 L 22.75 45.46875 L 23.1875 44.71875 L 22.75 43.9375 L 21.875 43.9375 z M 28.625 43.9375 L 28.1875 44.71875 L 28.625 45.46875 L 29.5 45.46875 L 29.96875 44.71875 L 29.5 43.9375 L 28.625 43.9375 z M 35.40625 43.9375 L 34.96875 44.71875 L 35.40625 45.46875 L 36.28125 45.46875 L 36.75 44.71875 L 36.3125 43.9375 L 35.40625 43.9375 z M 42.15625 43.9375 L 41.71875 44.71875 L 42.15625 45.46875 L 43.03125 45.46875 L 43.5 44.71875 L 43.0625 43.9375 L 42.15625 43.9375 z M 3.8125 44.84375 C 4.0126187 45.013985 4.2153651 45.170148 4.4375 45.3125 L 4.15625 44.84375 L 3.8125 44.84375 z M 10.0625 44.84375 L 9.625 45.59375 L 10 46.25 L 11 46.25 L 11.40625 45.59375 L 10.9375 44.84375 L 10.0625 44.84375 z M 16.8125 44.84375 L 16.375 45.59375 L 16.75 46.25 L 17.75 46.25 L 18.15625 45.59375 L 17.6875 44.84375 L 16.8125 44.84375 z M 23.59375 44.84375 L 23.15625 45.59375 L 23.53125 46.25 L 24.5625 46.25 L 24.9375 45.59375 L 24.46875 44.84375 L 23.59375 44.84375 z M 30.34375 44.84375 L 29.90625 45.59375 L 30.28125 46.25 L 31.3125 46.25 L 31.6875 45.59375 L 31.25 44.84375 L 30.34375 44.84375 z M 37.125 44.84375 L 36.6875 45.59375 L 37.09375 46.25 L 38.09375 46.25 L 38.46875 45.59375 L 38.03125 44.84375 L 37.125 44.84375 z M 43.875 44.84375 L 43.625 45.28125 C 43.826226 45.148937 44.004734 44.999224 44.1875 44.84375 L 43.875 44.84375 z M 6.65625 44.90625 L 6.1875 45.6875 L 6.4375 46.125 C 6.8194335 46.202759 7.1881844 46.25 7.59375 46.25 L 7.625 46.25 L 7.96875 45.6875 L 7.53125 44.90625 L 6.65625 44.90625 z M 13.40625 44.90625 L 12.9375 45.6875 L 13.28125 46.25 L 14.375 46.25 L 14.71875 45.6875 L 14.28125 44.90625 L 13.40625 44.90625 z M 20.1875 44.90625 L 19.75 45.6875 L 20.09375 46.25 L 21.15625 46.25 L 21.5 45.6875 L 21.0625 44.90625 L 20.1875 44.90625 z M 26.9375 44.90625 L 26.5 45.6875 L 26.84375 46.25 L 27.90625 46.25 L 28.25 45.6875 L 27.8125 44.90625 L 26.9375 44.90625 z M 33.71875 44.90625 L 33.28125 45.6875 L 33.625 46.25 L 34.71875 46.25 L 35.0625 45.6875 L 34.59375 44.90625 L 33.71875 44.90625 z M 40.46875 44.90625 L 40.03125 45.6875 L 40.375 46.25 L 40.40625 46.25 C 40.800854 46.25 41.158919 46.198712 41.53125 46.125 L 41.5625 46.125 L 41.8125 45.6875 L 41.375 44.90625 L 40.46875 44.90625 z M 5.40625 45.8125 C 5.5842077 45.884177 5.7825139 45.977001 5.96875 46.03125 L 5.84375 45.8125 L 5.40625 45.8125 z M 11.75 45.8125 L 11.5 46.25 L 12.90625 46.25 L 12.625 45.8125 L 11.75 45.8125 z M 18.5 45.8125 L 18.25 46.25 L 19.65625 46.25 L 19.375 45.8125 L 18.5 45.8125 z M 25.28125 45.8125 L 25.03125 46.25 L 26.4375 46.25 L 26.1875 45.8125 L 25.28125 45.8125 z M 32.03125 45.8125 L 31.78125 46.25 L 33.1875 46.25 L 32.9375 45.8125 L 32.03125 45.8125 z M 38.8125 45.8125 L 38.5625 46.25 L 39.96875 46.25 L 39.71875 45.8125 L 38.8125 45.8125 z M 8.34375 45.875 L 8.09375 46.25 L 9.4375 46.25 L 9.21875 45.875 L 8.34375 45.875 z M 15.09375 45.875 L 14.84375 46.25 L 16.1875 46.25 L 15.96875 45.875 L 15.09375 45.875 z M 21.875 45.875 L 21.65625 46.25 L 22.96875 46.25 L 22.75 45.875 L 21.875 45.875 z M 28.625 45.875 L 28.40625 46.25 L 29.75 46.25 L 29.5 45.875 L 28.625 45.875 z M 35.40625 45.875 L 35.1875 46.25 L 36.53125 46.25 L 36.3125 45.875 L 35.40625 45.875 z M 42.15625 45.875 L 42.0625 46 C 42.184876 45.963499 42.318672 45.919112 42.4375 45.875 L 42.15625 45.875 z "
       transform="translate(0,1004.3622)"
       id="path867" />
    <g
       id="g9784"
       transform="matrix(0.8850565,0,0,0.8850565,2.7586438,118.20357)">
      <g
         style="fill:url(#linearGradient1045);fill-opacity:1;stroke:url(#linearGradient1063);stroke-width:0.30000001;stroke-miterlimit:4;stroke-dasharray:none"
         transform="matrix(0.49753489,-0.49575382,0.49575382,0.49753489,-497.7551,528.55893)"
         inkscape:label="Capa 1"
         id="layer1-0">
        <path
           style="fill:url(#linearGradient1138);fill-opacity:1;stroke:url(#linearGradient1140);stroke-width:0.30000001;stroke-miterlimit:4;stroke-dasharray:none"
           d="m 19.762311,1044.2323 c 0,-0.3083 2.061172,-2.6491 2.819538,-3.202 0.412628,-0.3008 1.005941,-0.5471 1.318469,-0.5471 0.7781,0 2.096812,1.0169 3.361805,2.5922 1.202998,1.4981 1.167145,1.4941 3.577888,0.417 1.209464,-0.5404 1.369727,-0.6803 1.266623,-1.1068 -0.308394,-1.2755 -0.392163,-3.6014 -0.160642,-4.4601 0.400604,-1.4859 0.868506,-1.6651 3.944839,-1.5107 2.970286,0.1492 2.664197,0.3304 3.589186,-2.1242 l 0.51998,-1.38 -1.606549,-1.3273 c -1.920418,-1.5866 -2.606699,-2.5772 -2.40889,-3.4767 0.132536,-0.6027 2.414925,-2.9958 3.555819,-3.7282 0.48004,-0.3081 0.488002,-0.3577 0.191204,-1.1918 -0.170332,-0.4787 -0.517811,-1.3117 -0.772177,-1.8507 l -0.462481,-0.9803 -2.8236,0 c -3.734658,0 -3.602681,0.135 -3.608641,-3.6436 l -0.0045,-2.8659 -1.834017,-0.7419 -1.834016,-0.742 -0.653686,0.8425 c -0.359517,0.4637 -1.171919,1.3566 -1.80533,1.9851 -0.960709,0.9527 -1.281502,1.1422 -1.934823,1.1422 -0.653279,0 -0.994686,-0.2016 -2.058461,-1.2152 -0.70141,-0.6681 -1.502792,-1.552 -1.780852,-1.9638 -0.587457,-0.8703 -0.713123,-0.8631 -3.037636,0.175 -1.042433,0.4656 -1.48213,0.7724 -1.402898,0.9786 0.06347,0.1653 0.178338,1.2024 0.255263,2.305 0.109396,1.568 0.06591,2.1808 -0.199619,2.8129 -0.432407,1.0294 -0.833841,1.1294 -3.976964,0.9909 l -2.4738006,-0.109 -0.6616679,1.5876 c -0.3639208,0.8731 -0.6616714,1.7259 -0.6616714,1.8949 0,0.1694 0.6031316,0.788 1.3402923,1.375 1.6244906,1.2937 2.5804876,2.5497 2.5804876,3.3897 0,0.7168 -1.147271,2.0728 -2.852361,3.3715 -0.5876308,0.4477 -1.0684189,0.9474 -1.0684189,1.1107 0,0.1632 0.3015418,1.0202 0.6700943,1.9045 l 0.6700921,1.6079 2.4735745,-0.1323 c 4.01878,-0.2154 4.419836,0.1905 4.159924,4.2057 l -0.144881,2.2384 0.920207,0.4689 C 18.438689,1044.1911 19.762311,1044.5874 19.762311,1044.2323 z m 1.345948,-10.0733 c -2.382328,-1.1892 -3.526133,-3.0871 -3.52203,-5.8441 0.0026,-1.8272 0.65031,-3.2656 2.047319,-4.5466 1.397171,-1.2814 2.307538,-1.634 4.267364,-1.6532 1.367142,-0.013 1.835557,0.083 2.871231,0.5907 2.290182,1.1233 3.522274,3.1117 3.533783,5.7024 C 30.32732,1033.2245 25.403803,1036.303 21.108259,1034.159 Z"
           id="path866"
           inkscape:connector-curvature="0"
           sodipodi:nodetypes="ssssssssscsssscccsccccssccsssssccssscsscssccsssscsss" />
      </g>
      <path
         id="path4004"
         d="m 18.148947,1012.4628 c -2.451814,0.9082 -4.573338,2.3319 -6.275094,4.0986 l 10.577291,10.366 -13.8306099,-5.5674 c -1.7457571,3.8898 -2.0145827,8.4462 -0.4187252,12.7546 0.4219486,1.1391 0.957951,2.2 1.5844284,3.1861 l 14.1096067,-9.8078 -0.337201,-0.1222 5.880411,-15.0473 C 25.896762,1011.1133 21.928137,1011.063 18.148947,1012.4628 z m 19.513402,5.9331 -14.147623,9.4625 0.07404,0.018 -10.416292,13.2908 c 4.487422,3.7568 10.806596,5.0706 15.101095,3.4798 2.025167,-0.7501 2.458793,-0.9364 2.880966,-1.1352 -2.977891,-6.2959 -7.291096,-15.378 -7.39121,-15.5886 l 16.278883,5.4466 c 1.105433,-3.4596 1.11588,-7.2949 -0.241712,-10.9601 C 39.25892,1020.9478 38.533292,1019.6024 37.662359,1018.3959 Z"
         style="fill:#000000;fill-opacity:0.04255317;stroke:none"
         inkscape:connector-curvature="0" />
      <path
         id="path4004-0"
         d="m 18.148947,1012.4628 c -1.90041,0.704 -3.592696,1.7301 -5.0528,2.9721 l 9.354997,11.4925 -14.4983869,-3.7928 c -1.1104779,3.4636 -1.1106543,7.3092 0.2490518,10.98 0.2800509,0.7561 0.6119639,1.4832 0.9846014,2.1731 l 14.7094347,-8.7949 -0.337199,-0.1221 4.252904,-15.4998 C 24.70493,1011.145 21.36076,1011.2732 18.14895,1012.4628 z m 20.236131,7.0353 -14.870352,8.3603 0.07404,0.018 -8.749972,14.5155 c 4.31001,2.7854 9.838662,3.5871 15.014712,1.67 0.126164,-0.046 0.249766,-0.093 0.375235,-0.139 -2.618309,-6.4909 -6.365432,-15.7893 -6.465172,-15.999 l 16.559046,4.4446 c 0.806795,-3.1902 0.705942,-6.6433 -0.521871,-9.958 C 39.41747,1021.3757 38.938153,1020.4071 38.38509,1019.4981 Z"
         style="fill:#000000;fill-opacity:0.04787233;stroke:none"
         inkscape:connector-curvature="0" />
      <path
         id="path3893-7"
         d="m 18.148947,1012.4628 c -1.43401,0.5313 -2.754208,1.2409 -3.942523,2.0893 l 9.358747,13.0181 2.536931,-16.0096 C 23.497953,1011.2301 20.778203,1011.489 18.148947,1012.4628 z m -10.6694113,12.4866 c -0.5969776,2.962 -0.4031043,6.1269 0.7222732,9.1652 0.1353447,0.3653 0.2843048,0.7213 0.441845,1.0716 L 23.680781,1027.6398 7.4795424,1024.9494 z m 31.5565643,-4.3 -15.408694,6.7857 16.935616,3.9455 c 0.550063,-2.9052 0.338207,-5.999 -0.76244,-8.9705 C 39.576108,1021.804 39.320699,1021.2131 39.036106,1020.6494 z m -15.285846,6.8746 -6.759673,16.0691 c 3.770183,1.7243 8.176249,2.0418 12.38154,0.6245 L 23.750254,1027.524 Z"
         style="fill:#000000;fill-opacity:0.05851063;stroke:none"
         inkscape:connector-curvature="0" />
      <path
         id="path3893-7-5"
         d="m 18.148947,1012.4628 c -0.865854,0.3208 -1.695755,0.7009 -2.474486,1.1413 l 7.89071,13.9661 0.713443,-16.1424 C 22.244525,1011.3927 20.169846,1011.7143 18.148947,1012.4628 Z M 7.2389035,1026.543 c -0.24831,2.4 0.016032,4.8965 0.8677649,7.3145 L 23.680777,1027.6398 7.2389035,1026.543 z m 16.3885055,0.8921 17.11045,2.7804 c 0.301278,-2.5581 0.01778,-5.2268 -0.937277,-7.8054 -0.08129,-0.2195 -0.171872,-0.4305 -0.261107,-0.6445 L 23.627472,1027.4351 z m 0.123328,0.091 -4.103716,16.994 c 2.807653,0.7563 5.823474,0.813 8.782687,0 L 23.750248,1027.524 Z"
         style="fill:#000000;fill-opacity:0.06382979;stroke:none"
         inkscape:connector-curvature="0" />
      <path
         id="path3893"
         d="m 18.148947,1012.4628 c -0.39848,0.1476 -0.788409,0.3087 -1.170668,0.4775 l 6.58655,14.629 -1.409326,-16.0528 C 20.815769,1011.666 19.46974,1011.9737 18.148947,1012.4628 z m -10.9882321,15.7488 c -0.00496,1.4178 0.1575531,2.8522 0.5275181,4.2739 L 23.680774,1027.6398 7.1607149,1028.2116 z m 16.4666941,-0.7765 17.209135,1.5311 c 0.0827,-1.9246 -0.169502,-3.8895 -0.785069,-5.8182 L 23.627406,1027.4351 z m 0.123328,0.091 -1.354825,17.5031 c 1.608923,0.1555 3.258121,0.087 4.896395,-0.2415 L 23.750244,1027.524 Z"
         style="fill:#000000;fill-opacity:0.10106381;stroke:none"
         inkscape:connector-curvature="0" />
      <path
         sodipodi:nodetypes="cccccccccccccccccc"
         inkscape:connector-curvature="0"
         id="path3893-9"
         d="m 18.247693,1012.4263 5.317478,15.1439 -3.126026,-15.7759 C 19.706733,1011.9537 18.971205,1012.1635 18.247693,1012.4263 z m -11.0525826,17.0301 c 0.048303,0.6776 0.127423,1.3595 0.2605213,2.0373 L 23.680777,1027.6398 z m 16.4322986,-2.0213 17.199603,0.232 C 40.792694,1026.6945 40.693303,1025.7143 40.483827,1024.7397 z m 0.123328,0.091 -0.139857,17.5698 c 0.406695,0.011 0.823414,0.012 1.232539,-0.011 0.361293,-0.019 0.727314,-0.047 1.089895,-0.09 C 26.026295,1044.9866 26.117909,1044.9739 26.21149,1044.9616 Z"
         style="fill:#000000;fill-opacity:0.0851064;stroke:none" />
      <path
         d="m 22.043057,1026.3983 c -1.083635,1.0798 -1.086706,2.8374 -0.007,3.9208 1.079698,1.0837 2.83722,1.0868 3.920891,0.011 1.083633,-1.0797 1.086706,-2.8373 0.007,-3.921 C 24.884247,1025.3217 23.12669,1025.3184 22.043057,1026.3983 Z"
         id="path2555-7"
         style="color:#000000;fill:url(#linearGradient3162);fill-opacity:1;fill-rule:nonzero;stroke:url(#linearGradient3164);stroke-width:0.36966634;stroke-linecap:round;stroke-linejoin:round;stroke-miterlimit:4;stroke-opacity:1;stroke-dasharray:none;stroke-dashoffset:0;marker:none;visibility:visible;display:inline;overflow:visible;enable-background:accumulate"
         inkscape:connector-curvature="0" />
      <path
         d="m 38.378687,1022.9369 c 2.941274,7.9407 -1.111795,16.7625 -9.051571,19.7034 -7.94052,2.9413 -16.762088,-1.1119 -19.7033139,-9.0523 -2.9411766,-7.9403 1.1117409,-16.7614 9.0522579,-19.7026 7.939778,-2.941 16.761452,1.1111 19.702627,9.0515 L 38.378687,1022.9369 Z"
         id="path8655-6"
         style="color:#000000;fill:none;stroke:url(#linearGradient3152);stroke-width:2.35877848;stroke-linecap:round;stroke-linejoin:round;stroke-miterlimit:4;stroke-opacity:1;stroke-dasharray:none;stroke-dashoffset:0;marker:none;visibility:visible;display:inline;overflow:visible;enable-background:accumulate"
         inkscape:connector-curvature="0" />
    </g>
    <path
       id="path6361"
       d="m 1.7499887,1012.5498 0,-0.5625 c 0,-3.2445 2.59922,-5.875 5.84375,-5.875 l 32.8124963,0 c 3.24452,0 5.84375,2.6305 5.84375,5.875 l 0,0.5625 c 0,-3.2445 -2.59923,-5.875 -5.84375,-5.875 l -32.8124963,0 C 4.3492087,1006.6748 1.7499887,1009.3053 1.7499887,1012.5498 Z"
       style="color:#000000;fill:#ffffff;fill-opacity:1;fill-rule:nonzero;stroke:none;stroke-width:0.2;marker:none;visibility:visible;display:inline;overflow:visible;enable-background:accumulate"
       inkscape:connector-curvature="0" />
    <path
       inkscape:connector-curvature="0"
       style="color:#000000;fill:#000000;fill-opacity:1;fill-rule:nonzero;stroke:none;stroke-width:0.2;marker:none;visibility:visible;display:inline;overflow:visible;enable-background:accumulate"
       d="m 1.7499887,1044.1748 0,0.5625 c 0,3.2445 2.59922,5.875 5.84375,5.875 l 32.8124963,0 c 3.24452,0 5.84375,-2.6305 5.84375,-5.875 l 0,-0.5625 c 0,3.2445 -2.59923,5.875 -5.84375,5.875 l -32.8124963,0 C 4.3492087,1050.0498 1.7499887,1047.4193 1.7499887,1044.1748 Z"
       id="path6388" />
  </g>
</svg>
