<?xml version="1.0" encoding="UTF-8" standalone="no"?>
<!-- Created with Inkscape (http://www.inkscape.org/) -->

<svg
   xmlns:dc="http://purl.org/dc/elements/1.1/"
   xmlns:cc="http://creativecommons.org/ns#"
   xmlns:rdf="http://www.w3.org/1999/02/22-rdf-syntax-ns#"
   xmlns:svg="http://www.w3.org/2000/svg"
   xmlns="http://www.w3.org/2000/svg"
   xmlns:xlink="http://www.w3.org/1999/xlink"
   xmlns:sodipodi="http://sodipodi.sourceforge.net/DTD/sodipodi-0.dtd"
   xmlns:inkscape="http://www.inkscape.org/namespaces/inkscape"
   width="48"
   height="48"
   id="svg2"
   version="1.1"
   inkscape:version="0.48+devel r12103"
   sodipodi:docname="7z.svg">
  <defs
     id="defs4">
    <linearGradient
       id="linearGradient4917">
      <stop
         id="stop4919"
         offset="0"
         style="stop-color:#f2f2f2;stop-opacity:1" />
      <stop
         id="stop4921"
         offset="1"
         style="stop-color:#ffffff;stop-opacity:1;" />
    </linearGradient>
    <linearGradient
       inkscape:collect="always"
       xlink:href="#linearGradient4030"
       id="linearGradient4036"
       x1="20.594484"
       y1="17.506021"
       x2="27.400387"
       y2="17.506021"
       gradientUnits="userSpaceOnUse"
       gradientTransform="translate(2.1e-7,1005.0539)" />
    <linearGradient
       inkscape:collect="always"
       id="linearGradient4030">
      <stop
         style="stop-color:#000000;stop-opacity:1;"
         offset="0"
         id="stop4032" />
      <stop
         id="stop4038"
         offset="0.24818182"
         style="stop-color:#363636;stop-opacity:1" />
      <stop
         style="stop-color:#363636;stop-opacity:1"
         offset="0.77445453"
         id="stop4040" />
      <stop
         style="stop-color:#000000;stop-opacity:1"
         offset="1"
         id="stop4034" />
    </linearGradient>
    <linearGradient
       inkscape:collect="always"
       xlink:href="#linearGradient3658"
       id="linearGradient4487"
       x1="62.795238"
       y1="3.8190947"
       x2="58.360371"
       y2="3.8190947"
       gradientUnits="userSpaceOnUse"
       gradientTransform="matrix(0.77149154,0,0,0.77149154,-20.431843,1003.0222)" />
    <linearGradient
       id="linearGradient3658">
      <stop
         style="stop-color:#999999;stop-opacity:1;"
         offset="0"
         id="stop3660" />
      <stop
         style="stop-color:#ffffff;stop-opacity:1;"
         offset="1"
         id="stop3662" />
    </linearGradient>
    <linearGradient
       inkscape:collect="always"
       xlink:href="#linearGradient3658"
       id="linearGradient4491"
       gradientUnits="userSpaceOnUse"
       gradientTransform="matrix(-0.77149154,0,0,0.77149154,68.688461,1004.1158)"
       x1="62.795238"
       y1="3.8190947"
       x2="58.360371"
       y2="3.8190947" />
    <linearGradient
       inkscape:collect="always"
       xlink:href="#linearGradient3658"
       id="linearGradient4497"
       gradientUnits="userSpaceOnUse"
       gradientTransform="matrix(-0.77149154,0,0,-0.77149154,68.688461,1011.3124)"
       x1="62.795238"
       y1="3.8190947"
       x2="58.360371"
       y2="3.8190947" />
    <linearGradient
       inkscape:collect="always"
       xlink:href="#linearGradient3658"
       id="linearGradient4499"
       gradientUnits="userSpaceOnUse"
       gradientTransform="matrix(0.77149154,0,0,-0.77149154,-20.431843,1010.2372)"
       x1="62.795238"
       y1="3.8190947"
       x2="58.360371"
       y2="3.8190947" />
    <linearGradient
       inkscape:collect="always"
       xlink:href="#linearGradient3658"
       id="linearGradient4509"
       gradientUnits="userSpaceOnUse"
       gradientTransform="matrix(0.77149154,0,0,0.77149154,-20.431843,1006.5066)"
       x1="62.795238"
       y1="3.8190947"
       x2="58.360371"
       y2="3.8190947" />
    <linearGradient
       inkscape:collect="always"
       xlink:href="#linearGradient3658"
       id="linearGradient4511"
       gradientUnits="userSpaceOnUse"
       gradientTransform="matrix(-0.77149154,0,0,0.77149154,68.688461,1007.5633)"
       x1="62.795238"
       y1="3.8190947"
       x2="58.360371"
       y2="3.8190947" />
    <linearGradient
       inkscape:collect="always"
       xlink:href="#linearGradient3658"
       id="linearGradient4513"
       gradientUnits="userSpaceOnUse"
       gradientTransform="matrix(-0.77149154,0,0,-0.77149154,68.688461,1014.7599)"
       x1="62.795238"
       y1="3.8190947"
       x2="58.360371"
       y2="3.8190947" />
    <linearGradient
       inkscape:collect="always"
       xlink:href="#linearGradient3658"
       id="linearGradient4515"
       gradientUnits="userSpaceOnUse"
       gradientTransform="matrix(0.77149154,0,0,-0.77149154,-20.431843,1013.7215)"
       x1="62.795238"
       y1="3.8190947"
       x2="58.360371"
       y2="3.8190947" />
    <linearGradient
       inkscape:collect="always"
       xlink:href="#linearGradient3658"
       id="linearGradient4525"
       gradientUnits="userSpaceOnUse"
       gradientTransform="matrix(0.77149154,0,0,0.77149154,-20.431843,1009.9909)"
       x1="62.795238"
       y1="3.8190947"
       x2="58.360371"
       y2="3.8190947" />
    <linearGradient
       inkscape:collect="always"
       xlink:href="#linearGradient3658"
       id="linearGradient4527"
       gradientUnits="userSpaceOnUse"
       gradientTransform="matrix(-0.77149154,0,0,0.77149154,68.688461,1011.0108)"
       x1="62.795238"
       y1="3.8190947"
       x2="58.360371"
       y2="3.8190947" />
    <linearGradient
       inkscape:collect="always"
       xlink:href="#linearGradient3658"
       id="linearGradient4529"
       gradientUnits="userSpaceOnUse"
       gradientTransform="matrix(-0.77149154,0,0,-0.77149154,68.688461,1018.2074)"
       x1="62.795238"
       y1="3.8190947"
       x2="58.360371"
       y2="3.8190947" />
    <linearGradient
       inkscape:collect="always"
       xlink:href="#linearGradient3658"
       id="linearGradient4531"
       gradientUnits="userSpaceOnUse"
       gradientTransform="matrix(0.77149154,0,0,-0.77149154,-20.431843,1017.2059)"
       x1="62.795238"
       y1="3.8190947"
       x2="58.360371"
       y2="3.8190947" />
    <linearGradient
       inkscape:collect="always"
       xlink:href="#linearGradient3658"
       id="linearGradient4541"
       gradientUnits="userSpaceOnUse"
       gradientTransform="matrix(0.77149154,0,0,0.77149154,-20.431843,1013.4752)"
       x1="62.795238"
       y1="3.8190947"
       x2="58.360371"
       y2="3.8190947" />
    <linearGradient
       inkscape:collect="always"
       xlink:href="#linearGradient3658"
       id="linearGradient4543"
       gradientUnits="userSpaceOnUse"
       gradientTransform="matrix(-0.77149154,0,0,0.77149154,68.688461,1014.4583)"
       x1="62.795238"
       y1="3.8190947"
       x2="58.360371"
       y2="3.8190947" />
    <linearGradient
       inkscape:collect="always"
       xlink:href="#linearGradient3658"
       id="linearGradient4545"
       gradientUnits="userSpaceOnUse"
       gradientTransform="matrix(-0.77149154,0,0,-0.77149154,68.688461,1021.6549)"
       x1="62.795238"
       y1="3.8190947"
       x2="58.360371"
       y2="3.8190947" />
    <linearGradient
       inkscape:collect="always"
       xlink:href="#linearGradient3658"
       id="linearGradient4547"
       gradientUnits="userSpaceOnUse"
       gradientTransform="matrix(0.77149154,0,0,-0.77149154,-20.431843,1020.6902)"
       x1="62.795238"
       y1="3.8190947"
       x2="58.360371"
       y2="3.8190947" />
    <linearGradient
       inkscape:collect="always"
       xlink:href="#linearGradient3658"
       id="linearGradient4557"
       gradientUnits="userSpaceOnUse"
       gradientTransform="matrix(0.77149154,0,0,0.77149154,-20.431843,1016.9596)"
       x1="62.795238"
       y1="3.8190947"
       x2="58.360371"
       y2="3.8190947" />
    <linearGradient
       inkscape:collect="always"
       xlink:href="#linearGradient3658"
       id="linearGradient4559"
       gradientUnits="userSpaceOnUse"
       gradientTransform="matrix(-0.77149154,0,0,0.77149154,68.688461,1017.9059)"
       x1="62.795238"
       y1="3.8190947"
       x2="58.360371"
       y2="3.8190947" />
    <linearGradient
       inkscape:collect="always"
       xlink:href="#linearGradient3658"
       id="linearGradient4585"
       gradientUnits="userSpaceOnUse"
       gradientTransform="matrix(-0.77149154,0,0,-0.77149154,68.688461,1026.8262)"
       x1="62.795238"
       y1="3.8190947"
       x2="58.360371"
       y2="3.8190947" />
    <linearGradient
       inkscape:collect="always"
       xlink:href="#linearGradient3658"
       id="linearGradient4581"
       gradientUnits="userSpaceOnUse"
       gradientTransform="matrix(0.77149154,0,0,-0.77149154,-20.431843,1025.9167)"
       x1="62.795238"
       y1="3.8190947"
       x2="58.360371"
       y2="3.8190947" />
    <linearGradient
       inkscape:collect="always"
       xlink:href="#linearGradient3658"
       id="linearGradient4583"
       gradientUnits="userSpaceOnUse"
       gradientTransform="matrix(0.77149154,0,0,0.77149154,-20.431843,1018.7018)"
       x1="62.795238"
       y1="3.8190947"
       x2="58.360371"
       y2="3.8190947" />
    <linearGradient
       inkscape:collect="always"
       xlink:href="#linearGradient3658"
       id="linearGradient4587"
       gradientUnits="userSpaceOnUse"
       gradientTransform="matrix(-0.77149154,0,0,0.77149154,68.688461,1019.6296)"
       x1="62.795238"
       y1="3.8190947"
       x2="58.360371"
       y2="3.8190947" />
    <linearGradient
       inkscape:collect="always"
       xlink:href="#linearGradient3658"
       id="linearGradient4561"
       gradientUnits="userSpaceOnUse"
       gradientTransform="matrix(-0.77149154,0,0,-0.77149154,68.688461,1028.5499)"
       x1="62.795238"
       y1="3.8190947"
       x2="58.360371"
       y2="3.8190947" />
    <linearGradient
       inkscape:collect="always"
       xlink:href="#linearGradient3658"
       id="linearGradient4563"
       gradientUnits="userSpaceOnUse"
       gradientTransform="matrix(0.77149154,0,0,-0.77149154,-20.431843,1027.6589)"
       x1="62.795238"
       y1="3.8190947"
       x2="58.360371"
       y2="3.8190947" />
    <linearGradient
       inkscape:collect="always"
       xlink:href="#linearGradient3658"
       id="linearGradient4593"
       gradientUnits="userSpaceOnUse"
       gradientTransform="matrix(-0.77149154,0,0,-0.77149154,68.688461,1030.2737)"
       x1="62.795238"
       y1="3.8190947"
       x2="58.360371"
       y2="3.8190947" />
    <linearGradient
       inkscape:collect="always"
       xlink:href="#linearGradient3658"
       id="linearGradient4595"
       gradientUnits="userSpaceOnUse"
       gradientTransform="matrix(0.77149154,0,0,-0.77149154,-20.431843,1029.4011)"
       x1="62.795238"
       y1="3.8190947"
       x2="58.360371"
       y2="3.8190947" />
    <linearGradient
       inkscape:collect="always"
       xlink:href="#linearGradient3658"
       id="linearGradient4601"
       gradientUnits="userSpaceOnUse"
       gradientTransform="matrix(-0.77149154,0,0,-0.77149154,68.688461,1031.9974)"
       x1="62.795238"
       y1="3.8190947"
       x2="58.360371"
       y2="3.8190947" />
    <linearGradient
       inkscape:collect="always"
       xlink:href="#linearGradient3658"
       id="linearGradient4603"
       gradientUnits="userSpaceOnUse"
       gradientTransform="matrix(0.77149154,0,0,-0.77149154,-20.431843,1031.1433)"
       x1="62.795238"
       y1="3.8190947"
       x2="58.360371"
       y2="3.8190947" />
    <linearGradient
       inkscape:collect="always"
       xlink:href="#linearGradient3658"
       id="linearGradient4609"
       gradientUnits="userSpaceOnUse"
       gradientTransform="matrix(-0.77149154,0,0,-0.77149154,68.688461,1033.7212)"
       x1="62.795238"
       y1="3.8190947"
       x2="58.360371"
       y2="3.8190947" />
    <linearGradient
       inkscape:collect="always"
       xlink:href="#linearGradient3658"
       id="linearGradient4611"
       gradientUnits="userSpaceOnUse"
       gradientTransform="matrix(0.77149154,0,0,-0.77149154,-20.431843,1032.8854)"
       x1="62.795238"
       y1="3.8190947"
       x2="58.360371"
       y2="3.8190947" />
    <linearGradient
       inkscape:collect="always"
       xlink:href="#linearGradient3658"
       id="linearGradient4615"
       gradientUnits="userSpaceOnUse"
       gradientTransform="matrix(0.77149154,0,0,-0.77149154,-20.431843,1034.6276)"
       x1="62.795238"
       y1="3.8190947"
       x2="58.360371"
       y2="3.8190947" />
    <linearGradient
       inkscape:collect="always"
       xlink:href="#linearGradient3658"
       id="linearGradient3924"
       gradientUnits="userSpaceOnUse"
       x1="108.03919"
       y1="145.47032"
       x2="108.03919"
       y2="98.11113" />
    <linearGradient
       inkscape:collect="always"
       xlink:href="#linearGradient3658"
       id="linearGradient3926"
       gradientUnits="userSpaceOnUse"
       x1="101.54337"
       y1="118.94348"
       x2="101.54337"
       y2="147.58119"
       gradientTransform="matrix(0.09567936,0,0,0.09567936,14.391121,1020.9129)" />
    <linearGradient
       inkscape:collect="always"
       xlink:href="#linearGradient3658"
       id="linearGradient3928"
       gradientUnits="userSpaceOnUse"
       x1="102.81358"
       y1="206.01138"
       x2="102.81358"
       y2="154.15471"
       gradientTransform="matrix(0.09567936,0,0,0.09567936,14.387214,1020.9129)" />
    <linearGradient
       inkscape:collect="always"
       xlink:href="#linearGradient3658"
       id="linearGradient3930"
       gradientUnits="userSpaceOnUse"
       x1="100.96599"
       y1="176.44987"
       x2="100.96599"
       y2="89.612915"
       gradientTransform="matrix(0.09567936,0,0,0.09567936,14.395499,1020.9129)" />
    <linearGradient
       inkscape:collect="always"
       xlink:href="#linearGradient4917"
       id="linearGradient1250"
       x1="24.176777"
       y1="1050.4354"
       x2="24.176777"
       y2="1005.9116"
       gradientUnits="userSpaceOnUse" />
  </defs>
  <sodipodi:namedview
     id="base"
     pagecolor="#ffffff"
     bordercolor="#666666"
     borderopacity="1.0"
     inkscape:pageopacity="0.0"
     inkscape:pageshadow="2"
     inkscape:zoom="5.6568542"
     inkscape:cx="-21.400326"
     inkscape:cy="46.978422"
     inkscape:document-units="px"
     inkscape:current-layer="layer1"
     showgrid="false"
     inkscape:window-width="1366"
     inkscape:window-height="718"
     inkscape:window-x="0"
     inkscape:window-y="28"
     inkscape:window-maximized="1" />
  <metadata
     id="metadata7">
    <rdf:RDF>
      <cc:Work
         rdf:about="">
        <dc:format>image/svg+xml</dc:format>
        <dc:type
           rdf:resource="http://purl.org/dc/dcmitype/StillImage" />
        <dc:title />
      </cc:Work>
    </rdf:RDF>
  </metadata>
  <g
     inkscape:label="Capa 1"
     inkscape:groupmode="layer"
     id="layer1"
     transform="translate(0,-1004.3622)">
    <rect
       style="color:#000000;fill:#333333;fill-opacity:1;fill-rule:nonzero;stroke:none;stroke-width:0.2;marker:none;visibility:visible;display:inline;overflow:visible;enable-background:accumulate"
       id="rect6294"
       width="45.5"
       height="45.5"
       x="1.25"
       y="1005.6122"
       ry="6.3565426" />
    <rect
       ry="5.8565426"
       y="1006.1122"
       x="1.75"
       height="44.5"
       width="44.5"
       id="rect6296"
       style="color:#000000;fill:url(#linearGradient1250);fill-opacity:1;fill-rule:nonzero;stroke:none;stroke-width:0.2;marker:none;visibility:visible;display:inline;overflow:visible;enable-background:accumulate" />
    <path
       id="path6361"
       d="m 1.75,1012.5498 0,-0.5625 c 0,-3.2445 2.599225,-5.875 5.84375,-5.875 l 32.8125,0 c 3.244525,0 5.84375,2.6305 5.84375,5.875 l 0,0.5625 c 0,-3.2445 -2.599225,-5.875 -5.84375,-5.875 l -32.8125,0 C 4.349225,1006.6748 1.75,1009.3053 1.75,1012.5498 Z"
       style="color:#000000;fill:#ffffff;fill-opacity:1;fill-rule:nonzero;stroke:none;stroke-width:0.2;marker:none;visibility:visible;display:inline;overflow:visible;enable-background:accumulate"
       inkscape:connector-curvature="0" />
    <path
       inkscape:connector-curvature="0"
       style="color:#000000;fill:#000000;fill-opacity:1;fill-rule:nonzero;stroke:none;stroke-width:0.2;marker:none;visibility:visible;display:inline;overflow:visible;enable-background:accumulate"
       d="m 1.75,1044.1748 0,0.5625 c 0,3.2445 2.599225,5.875 5.84375,5.875 l 32.8125,0 c 3.244525,0 5.84375,-2.6305 5.84375,-5.875 l 0,-0.5625 c 0,3.2445 -2.599225,5.875 -5.84375,5.875 l -32.8125,0 C 4.349225,1050.0498 1.75,1047.4193 1.75,1044.1748 Z"
       id="path6388" />
    <g
       id="g5007"
       transform="matrix(0.84958426,0,0,0.84958426,3.6099778,152.26433)">
      <path
         id="rect3225"
         d="m 20.8125,1005.0187 0,27.1602 c 0,1.7628 1.424683,3.1875 3.1875,3.1875 1.762817,0 3.1875,-1.4247 3.1875,-3.1875 L 27.1875,1005.0187 Z"
         style="color:#000000;fill:url(#linearGradient4036);fill-opacity:1;fill-rule:nonzero;stroke:none;stroke-width:0.2;marker:none;visibility:visible;display:inline;overflow:visible;enable-background:accumulate"
         inkscape:connector-curvature="0"
         sodipodi:nodetypes="cssscc" />
      <path
         id="path4042"
         d="m 20.8125,1031.6164 0,0.5625 c 0,1.7628 1.424683,3.1875 3.1875,3.1875 1.762817,0 3.1875,-1.4247 3.1875,-3.1875 l 0,-0.5625 c 0,1.7628 -1.424683,3.1875 -3.1875,3.1875 C 22.237183,1034.8039 20.8125,1033.3792 20.8125,1031.6164 Z"
         style="color:#000000;fill:#000000;fill-opacity:0.66459626;fill-rule:nonzero;stroke:none;stroke-width:0.2;marker:none;visibility:visible;display:inline;overflow:visible;enable-background:accumulate"
         inkscape:connector-curvature="0" />
      <g
         transform="translate(-0.128309,0)"
         id="g4966">
        <path
           style="color:#000000;fill:url(#linearGradient4487);fill-opacity:1;fill-rule:nonzero;stroke:#000000;stroke-width:0.15429826;stroke-linecap:butt;stroke-linejoin:miter;stroke-miterlimit:4;stroke-opacity:1;stroke-dasharray:none;stroke-dashoffset:0;marker:none;visibility:visible;display:inline;overflow:visible;enable-background:accumulate"
           d="m 24.820944,1005.0956 0,0.2651 -1.157237,0 0,0.7958 1.157237,0 0,0.2651 1.37422,0 0,-1.326 L 24.820944,1005.0956 Z"
           id="rect4476"
           inkscape:connector-curvature="0" />
        <path
           inkscape:connector-curvature="0"
           id="path4489"
           d="m 23.435674,1006.1892 0,0.2651 1.157237,0 0,0.7958 -1.157237,0 0,0.2651 -1.37422,0 0,-1.326 L 23.435674,1006.1892 Z"
           style="color:#000000;fill:url(#linearGradient4491);fill-opacity:1;fill-rule:nonzero;stroke:#000000;stroke-width:0.15429826;stroke-linecap:butt;stroke-linejoin:miter;stroke-miterlimit:4;stroke-opacity:1;stroke-dasharray:none;stroke-dashoffset:0;marker:none;visibility:visible;display:inline;overflow:visible;enable-background:accumulate" />
        <path
           inkscape:connector-curvature="0"
           id="path4493"
           d="m 23.435674,1009.239 0,-0.2651 1.157237,0 0,-0.7958 -1.157237,0 0,-0.2651 -1.37422,0 0,1.326 L 23.435674,1009.239 Z"
           style="color:#000000;fill:url(#linearGradient4497);fill-opacity:1;fill-rule:nonzero;stroke:#000000;stroke-width:0.15429826;stroke-linecap:butt;stroke-linejoin:miter;stroke-miterlimit:4;stroke-opacity:1;stroke-dasharray:none;stroke-dashoffset:0;marker:none;visibility:visible;display:inline;overflow:visible;enable-background:accumulate" />
        <path
           style="color:#000000;fill:url(#linearGradient4499);fill-opacity:1;fill-rule:nonzero;stroke:#000000;stroke-width:0.15429826;stroke-linecap:butt;stroke-linejoin:miter;stroke-miterlimit:4;stroke-opacity:1;stroke-dasharray:none;stroke-dashoffset:0;marker:none;visibility:visible;display:inline;overflow:visible;enable-background:accumulate"
           d="m 24.820944,1008.1638 0,-0.2651 -1.157237,0 0,-0.7958 1.157237,0 0,-0.2651 1.37422,0 0,1.326 L 24.820944,1008.1638 Z"
           id="path4495"
           inkscape:connector-curvature="0" />
        <path
           inkscape:connector-curvature="0"
           id="path4501"
           d="m 24.820944,1008.58 0,0.2651 -1.157237,0 0,0.7958 1.157237,0 0,0.2651 1.37422,0 0,-1.326 L 24.820944,1008.58 Z"
           style="color:#000000;fill:url(#linearGradient4509);fill-opacity:1;fill-rule:nonzero;stroke:#000000;stroke-width:0.15429826;stroke-linecap:butt;stroke-linejoin:miter;stroke-miterlimit:4;stroke-opacity:1;stroke-dasharray:none;stroke-dashoffset:0;marker:none;visibility:visible;display:inline;overflow:visible;enable-background:accumulate" />
        <path
           style="color:#000000;fill:url(#linearGradient4511);fill-opacity:1;fill-rule:nonzero;stroke:#000000;stroke-width:0.15429826;stroke-linecap:butt;stroke-linejoin:miter;stroke-miterlimit:4;stroke-opacity:1;stroke-dasharray:none;stroke-dashoffset:0;marker:none;visibility:visible;display:inline;overflow:visible;enable-background:accumulate"
           d="m 23.435674,1009.6367 0,0.2651 1.157237,0 0,0.7958 -1.157237,0 0,0.2651 -1.37422,0 0,-1.326 L 23.435674,1009.6367 Z"
           id="path4503"
           inkscape:connector-curvature="0" />
        <path
           style="color:#000000;fill:url(#linearGradient4513);fill-opacity:1;fill-rule:nonzero;stroke:#000000;stroke-width:0.15429826;stroke-linecap:butt;stroke-linejoin:miter;stroke-miterlimit:4;stroke-opacity:1;stroke-dasharray:none;stroke-dashoffset:0;marker:none;visibility:visible;display:inline;overflow:visible;enable-background:accumulate"
           d="m 23.435674,1012.6865 0,-0.2651 1.157237,0 0,-0.7958 -1.157237,0 0,-0.2651 -1.37422,0 0,1.326 L 23.435674,1012.6865 Z"
           id="path4505"
           inkscape:connector-curvature="0" />
        <path
           inkscape:connector-curvature="0"
           id="path4507"
           d="m 24.820944,1011.6481 0,-0.2651 -1.157237,0 0,-0.7958 1.157237,0 0,-0.2651 1.37422,0 0,1.326 L 24.820944,1011.6481 Z"
           style="color:#000000;fill:url(#linearGradient4515);fill-opacity:1;fill-rule:nonzero;stroke:#000000;stroke-width:0.15429826;stroke-linecap:butt;stroke-linejoin:miter;stroke-miterlimit:4;stroke-opacity:1;stroke-dasharray:none;stroke-dashoffset:0;marker:none;visibility:visible;display:inline;overflow:visible;enable-background:accumulate" />
        <path
           style="color:#000000;fill:url(#linearGradient4525);fill-opacity:1;fill-rule:nonzero;stroke:#000000;stroke-width:0.15429826;stroke-linecap:butt;stroke-linejoin:miter;stroke-miterlimit:4;stroke-opacity:1;stroke-dasharray:none;stroke-dashoffset:0;marker:none;visibility:visible;display:inline;overflow:visible;enable-background:accumulate"
           d="m 24.820944,1012.0643 0,0.2651 -1.157237,0 0,0.7958 1.157237,0 0,0.2651 1.37422,0 0,-1.326 L 24.820944,1012.0643 Z"
           id="path4517"
           inkscape:connector-curvature="0" />
        <path
           inkscape:connector-curvature="0"
           id="path4519"
           d="m 23.435674,1013.0842 0,0.2651 1.157237,0 0,0.7958 -1.157237,0 0,0.2651 -1.37422,0 0,-1.326 L 23.435674,1013.0842 Z"
           style="color:#000000;fill:url(#linearGradient4527);fill-opacity:1;fill-rule:nonzero;stroke:#000000;stroke-width:0.15429826;stroke-linecap:butt;stroke-linejoin:miter;stroke-miterlimit:4;stroke-opacity:1;stroke-dasharray:none;stroke-dashoffset:0;marker:none;visibility:visible;display:inline;overflow:visible;enable-background:accumulate" />
        <path
           inkscape:connector-curvature="0"
           id="path4521"
           d="m 23.435674,1016.134 0,-0.2651 1.157237,0 0,-0.7958 -1.157237,0 0,-0.2651 -1.37422,0 0,1.326 L 23.435674,1016.134 Z"
           style="color:#000000;fill:url(#linearGradient4529);fill-opacity:1;fill-rule:nonzero;stroke:#000000;stroke-width:0.15429826;stroke-linecap:butt;stroke-linejoin:miter;stroke-miterlimit:4;stroke-opacity:1;stroke-dasharray:none;stroke-dashoffset:0;marker:none;visibility:visible;display:inline;overflow:visible;enable-background:accumulate" />
        <path
           style="color:#000000;fill:url(#linearGradient4531);fill-opacity:1;fill-rule:nonzero;stroke:#000000;stroke-width:0.15429826;stroke-linecap:butt;stroke-linejoin:miter;stroke-miterlimit:4;stroke-opacity:1;stroke-dasharray:none;stroke-dashoffset:0;marker:none;visibility:visible;display:inline;overflow:visible;enable-background:accumulate"
           d="m 24.820944,1015.1325 0,-0.2651 -1.157237,0 0,-0.7958 1.157237,0 0,-0.2651 1.37422,0 0,1.326 L 24.820944,1015.1325 Z"
           id="path4523"
           inkscape:connector-curvature="0" />
        <path
           inkscape:connector-curvature="0"
           id="path4533"
           d="m 24.820944,1015.5486 0,0.2651 -1.157237,0 0,0.7958 1.157237,0 0,0.2651 1.37422,0 0,-1.326 L 24.820944,1015.5486 Z"
           style="color:#000000;fill:url(#linearGradient4541);fill-opacity:1;fill-rule:nonzero;stroke:#000000;stroke-width:0.15429826;stroke-linecap:butt;stroke-linejoin:miter;stroke-miterlimit:4;stroke-opacity:1;stroke-dasharray:none;stroke-dashoffset:0;marker:none;visibility:visible;display:inline;overflow:visible;enable-background:accumulate" />
        <path
           style="color:#000000;fill:url(#linearGradient4543);fill-opacity:1;fill-rule:nonzero;stroke:#000000;stroke-width:0.15429826;stroke-linecap:butt;stroke-linejoin:miter;stroke-miterlimit:4;stroke-opacity:1;stroke-dasharray:none;stroke-dashoffset:0;marker:none;visibility:visible;display:inline;overflow:visible;enable-background:accumulate"
           d="m 23.435674,1016.5317 0,0.2651 1.157237,0 0,0.7958 -1.157237,0 0,0.2651 -1.37422,0 0,-1.326 L 23.435674,1016.5317 Z"
           id="path4535"
           inkscape:connector-curvature="0" />
        <path
           style="color:#000000;fill:url(#linearGradient4545);fill-opacity:1;fill-rule:nonzero;stroke:#000000;stroke-width:0.15429826;stroke-linecap:butt;stroke-linejoin:miter;stroke-miterlimit:4;stroke-opacity:1;stroke-dasharray:none;stroke-dashoffset:0;marker:none;visibility:visible;display:inline;overflow:visible;enable-background:accumulate"
           d="m 23.435674,1019.5815 0,-0.2651 1.157237,0 0,-0.7958 -1.157237,0 0,-0.2651 -1.37422,0 0,1.326 L 23.435674,1019.5815 Z"
           id="path4537"
           inkscape:connector-curvature="0" />
        <path
           inkscape:connector-curvature="0"
           id="path4539"
           d="m 24.820944,1018.6168 0,-0.2651 -1.157237,0 0,-0.7958 1.157237,0 0,-0.2651 1.37422,0 0,1.326 L 24.820944,1018.6168 Z"
           style="color:#000000;fill:url(#linearGradient4547);fill-opacity:1;fill-rule:nonzero;stroke:#000000;stroke-width:0.15429826;stroke-linecap:butt;stroke-linejoin:miter;stroke-miterlimit:4;stroke-opacity:1;stroke-dasharray:none;stroke-dashoffset:0;marker:none;visibility:visible;display:inline;overflow:visible;enable-background:accumulate" />
        <path
           style="color:#000000;fill:url(#linearGradient4557);fill-opacity:1;fill-rule:nonzero;stroke:#000000;stroke-width:0.15429826;stroke-linecap:butt;stroke-linejoin:miter;stroke-miterlimit:4;stroke-opacity:1;stroke-dasharray:none;stroke-dashoffset:0;marker:none;visibility:visible;display:inline;overflow:visible;enable-background:accumulate"
           d="m 24.820944,1019.033 0,0.2651 -1.157237,0 0,0.7958 1.157237,0 0,0.2651 1.37422,0 0,-1.326 L 24.820944,1019.033 Z"
           id="path4549"
           inkscape:connector-curvature="0" />
        <path
           inkscape:connector-curvature="0"
           id="path4551"
           d="m 23.435674,1019.9793 0,0.2651 1.157237,0 0,0.7958 -1.157237,0 0,0.2651 -1.37422,0 0,-1.326 L 23.435674,1019.9793 Z"
           style="color:#000000;fill:url(#linearGradient4559);fill-opacity:1;fill-rule:nonzero;stroke:#000000;stroke-width:0.15429826;stroke-linecap:butt;stroke-linejoin:miter;stroke-miterlimit:4;stroke-opacity:1;stroke-dasharray:none;stroke-dashoffset:0;marker:none;visibility:visible;display:inline;overflow:visible;enable-background:accumulate" />
        <path
           inkscape:connector-curvature="0"
           id="path4553"
           d="m 23.435674,1024.7528 0,-0.2651 1.157237,0 0,-0.7958 -1.157237,0 0,-0.2651 -1.37422,0 0,1.326 L 23.435674,1024.7528 Z"
           style="color:#000000;fill:url(#linearGradient4585);fill-opacity:1;fill-rule:nonzero;stroke:#000000;stroke-width:0.15429826;stroke-linecap:butt;stroke-linejoin:miter;stroke-miterlimit:4;stroke-opacity:1;stroke-dasharray:none;stroke-dashoffset:0;marker:none;visibility:visible;display:inline;overflow:visible;enable-background:accumulate" />
        <path
           style="color:#000000;fill:url(#linearGradient4581);fill-opacity:1;fill-rule:nonzero;stroke:#000000;stroke-width:0.15429826;stroke-linecap:butt;stroke-linejoin:miter;stroke-miterlimit:4;stroke-opacity:1;stroke-dasharray:none;stroke-dashoffset:0;marker:none;visibility:visible;display:inline;overflow:visible;enable-background:accumulate"
           d="m 24.820944,1023.8433 0,-0.2651 -1.157237,0 0,-0.7958 1.157237,0 0,-0.2651 1.37422,0 0,1.326 L 24.820944,1023.8433 Z"
           id="path4555"
           inkscape:connector-curvature="0" />
        <path
           inkscape:connector-curvature="0"
           id="path4565"
           d="m 24.820944,1020.7752 0,0.2651 -1.157237,0 0,0.7958 1.157237,0 0,0.2651 1.37422,0 0,-1.326 L 24.820944,1020.7752 Z"
           style="color:#000000;fill:url(#linearGradient4583);fill-opacity:1;fill-rule:nonzero;stroke:#000000;stroke-width:0.15429826;stroke-linecap:butt;stroke-linejoin:miter;stroke-miterlimit:4;stroke-opacity:1;stroke-dasharray:none;stroke-dashoffset:0;marker:none;visibility:visible;display:inline;overflow:visible;enable-background:accumulate" />
        <path
           style="color:#000000;fill:url(#linearGradient4587);fill-opacity:1;fill-rule:nonzero;stroke:#000000;stroke-width:0.15429826;stroke-linecap:butt;stroke-linejoin:miter;stroke-miterlimit:4;stroke-opacity:1;stroke-dasharray:none;stroke-dashoffset:0;marker:none;visibility:visible;display:inline;overflow:visible;enable-background:accumulate"
           d="m 23.435674,1021.703 0,0.2651 1.157237,0 0,0.7958 -1.157237,0 0,0.2651 -1.37422,0 0,-1.326 L 23.435674,1021.703 Z"
           id="path4567"
           inkscape:connector-curvature="0" />
        <path
           style="color:#000000;fill:url(#linearGradient4561);fill-opacity:1;fill-rule:nonzero;stroke:#000000;stroke-width:0.15429826;stroke-linecap:butt;stroke-linejoin:miter;stroke-miterlimit:4;stroke-opacity:1;stroke-dasharray:none;stroke-dashoffset:0;marker:none;visibility:visible;display:inline;overflow:visible;enable-background:accumulate"
           d="m 23.435674,1026.4765 0,-0.2651 1.157237,0 0,-0.7958 -1.157237,0 0,-0.2651 -1.37422,0 0,1.326 L 23.435674,1026.4765 Z"
           id="path4569"
           inkscape:connector-curvature="0" />
        <path
           inkscape:connector-curvature="0"
           id="path4571"
           d="m 24.820944,1025.5855 0,-0.2651 -1.157237,0 0,-0.7958 1.157237,0 0,-0.2651 1.37422,0 0,1.326 L 24.820944,1025.5855 Z"
           style="color:#000000;fill:url(#linearGradient4563);fill-opacity:1;fill-rule:nonzero;stroke:#000000;stroke-width:0.15429826;stroke-linecap:butt;stroke-linejoin:miter;stroke-miterlimit:4;stroke-opacity:1;stroke-dasharray:none;stroke-dashoffset:0;marker:none;visibility:visible;display:inline;overflow:visible;enable-background:accumulate" />
        <path
           inkscape:connector-curvature="0"
           id="path4589"
           d="m 23.435674,1028.2003 0,-0.2651 1.157237,0 0,-0.7958 -1.157237,0 0,-0.2651 -1.37422,0 0,1.326 L 23.435674,1028.2003 Z"
           style="color:#000000;fill:url(#linearGradient4593);fill-opacity:1;fill-rule:nonzero;stroke:#000000;stroke-width:0.15429826;stroke-linecap:butt;stroke-linejoin:miter;stroke-miterlimit:4;stroke-opacity:1;stroke-dasharray:none;stroke-dashoffset:0;marker:none;visibility:visible;display:inline;overflow:visible;enable-background:accumulate" />
        <path
           style="color:#000000;fill:url(#linearGradient4595);fill-opacity:1;fill-rule:nonzero;stroke:#000000;stroke-width:0.15429826;stroke-linecap:butt;stroke-linejoin:miter;stroke-miterlimit:4;stroke-opacity:1;stroke-dasharray:none;stroke-dashoffset:0;marker:none;visibility:visible;display:inline;overflow:visible;enable-background:accumulate"
           d="m 24.820944,1027.3277 0,-0.2651 -1.157237,0 0,-0.7958 1.157237,0 0,-0.2651 1.37422,0 0,1.326 L 24.820944,1027.3277 Z"
           id="path4591"
           inkscape:connector-curvature="0" />
        <path
           style="color:#000000;fill:url(#linearGradient4601);fill-opacity:1;fill-rule:nonzero;stroke:#000000;stroke-width:0.15429826;stroke-linecap:butt;stroke-linejoin:miter;stroke-miterlimit:4;stroke-opacity:1;stroke-dasharray:none;stroke-dashoffset:0;marker:none;visibility:visible;display:inline;overflow:visible;enable-background:accumulate"
           d="m 23.435674,1029.924 0,-0.2651 1.157237,0 0,-0.7958 -1.157237,0 0,-0.2651 -1.37422,0 0,1.326 L 23.435674,1029.924 Z"
           id="path4597"
           inkscape:connector-curvature="0" />
        <path
           inkscape:connector-curvature="0"
           id="path4599"
           d="m 24.820944,1029.0699 0,-0.2651 -1.157237,0 0,-0.7958 1.157237,0 0,-0.2651 1.37422,0 0,1.326 L 24.820944,1029.0699 Z"
           style="color:#000000;fill:url(#linearGradient4603);fill-opacity:1;fill-rule:nonzero;stroke:#000000;stroke-width:0.15429826;stroke-linecap:butt;stroke-linejoin:miter;stroke-miterlimit:4;stroke-opacity:1;stroke-dasharray:none;stroke-dashoffset:0;marker:none;visibility:visible;display:inline;overflow:visible;enable-background:accumulate" />
        <path
           inkscape:connector-curvature="0"
           id="path4605"
           d="m 23.435674,1031.6478 0,-0.2651 1.157237,0 0,-0.7958 -1.157237,0 0,-0.2651 -1.37422,0 0,1.326 L 23.435674,1031.6478 Z"
           style="color:#000000;fill:url(#linearGradient4609);fill-opacity:1;fill-rule:nonzero;stroke:#000000;stroke-width:0.15429826;stroke-linecap:butt;stroke-linejoin:miter;stroke-miterlimit:4;stroke-opacity:1;stroke-dasharray:none;stroke-dashoffset:0;marker:none;visibility:visible;display:inline;overflow:visible;enable-background:accumulate" />
        <path
           style="color:#000000;fill:url(#linearGradient4611);fill-opacity:1;fill-rule:nonzero;stroke:#000000;stroke-width:0.15429826;stroke-linecap:butt;stroke-linejoin:miter;stroke-miterlimit:4;stroke-opacity:1;stroke-dasharray:none;stroke-dashoffset:0;marker:none;visibility:visible;display:inline;overflow:visible;enable-background:accumulate"
           d="m 24.820944,1030.812 0,-0.2651 -1.157237,0 0,-0.7958 1.157237,0 0,-0.2651 1.37422,0 0,1.326 L 24.820944,1030.812 Z"
           id="path4607"
           inkscape:connector-curvature="0" />
        <path
           inkscape:connector-curvature="0"
           id="path4613"
           d="m 24.820944,1032.5542 0,-0.2651 -1.157237,0 0,-0.7958 1.157237,0 0,-0.2651 1.37422,0 0,1.326 L 24.820944,1032.5542 Z"
           style="color:#000000;fill:url(#linearGradient4615);fill-opacity:1;fill-rule:nonzero;stroke:#000000;stroke-width:0.15429826;stroke-linecap:butt;stroke-linejoin:miter;stroke-miterlimit:4;stroke-opacity:1;stroke-dasharray:none;stroke-dashoffset:0;marker:none;visibility:visible;display:inline;overflow:visible;enable-background:accumulate" />
      </g>
      <path
         transform="matrix(0.09567936,0,0,0.09567936,14.254913,1020.8386)"
         sodipodi:open="true"
         sodipodi:end="12.540534"
         sodipodi:start="6.2595228"
         d="m 124.75198,111.00747 c 0.29933,8.71754 -9.71091,15.95176 -22.35849,16.15808 -12.647578,0.20632 -23.143122,-6.6934 -23.442451,-15.41094 -0.29933,-8.71754 9.710906,-15.951755 22.358491,-16.158073 12.62814,-0.206 23.11489,6.672943 23.44122,15.376623"
         sodipodi:ry="15.788925"
         sodipodi:rx="22.906883"
         sodipodi:cy="111.38104"
         sodipodi:cx="101.85151"
         id="path2796"
         style="fill:url(#linearGradient3924);fill-opacity:1;fill-rule:evenodd;stroke:#000000;stroke-width:1px;stroke-linecap:butt;stroke-linejoin:miter;stroke-opacity:1"
         sodipodi:type="arc" />
      <rect
         ry="0.4783968"
         y="1032.4119"
         x="22.613152"
         height="2.1545682"
         width="2.7736969"
         id="rect2794"
         style="fill:url(#linearGradient3926);fill-opacity:1;fill-rule:evenodd;stroke:#000000;stroke-width:0.09567936px;stroke-linecap:butt;stroke-linejoin:miter;stroke-opacity:1" />
      <path
         inkscape:connector-curvature="0"
         sodipodi:nodetypes="cccccccccccccccccccccccccccc"
         id="rect1876"
         d="m 22.780088,1032.224 c -0.265032,0 -0.478397,0.2134 -0.478397,0.4784 l 0,7.1012 c 0,0.265 0.213365,0.4784 0.478397,0.4784 l 2.439824,0 c 0.265031,0 0.478396,-0.2134 0.478396,-0.4784 l 0,-7.1012 c 0,-0.265 -0.213365,-0.4784 -0.478396,-0.4784 L 22.780088,1032.224 z m 0.573116,0.2811 1.285691,0 c 0.265032,0 0.478397,0.2133 0.478397,0.4783 l 0,2.2306 c 0,0.265 -0.213365,0.4784 -0.478397,0.4784 l -1.285691,0 c -0.265031,0 -0.478396,-0.2134 -0.478396,-0.4784 l 0,-2.2306 C 22.874808,1032.7184 23.088173,1032.5051 23.353204,1032.5051 z m -0.04346,6.0517 c 0.01612,0 0.03128,0 0.04784,0 l 1.285692,0 c 0.265032,0 0.478397,0.2133 0.478397,0.4784 l 0,0.1973 c 0,0.265 -0.213365,0.4784 -0.478397,0.4784 l -1.285692,0 c -0.265032,0 -0.478397,-0.2134 -0.478397,-0.4784 l 0,-0.1973 C 22.879185,1038.7867 23.067922,1038.5812 23.309743,1038.5568 Z"
         style="fill:url(#linearGradient3928);fill-opacity:1;fill-rule:evenodd;stroke:#000000;stroke-width:0.09567936px;stroke-linecap:butt;stroke-linejoin:miter;stroke-opacity:1" />
      <rect
         ry="0.4783968"
         y="1029.5638"
         x="23.157986"
         height="5.3245077"
         width="1.6840303"
         id="rect2770"
         style="fill:url(#linearGradient3930);fill-opacity:1;fill-rule:evenodd;stroke:#000000;stroke-width:0.09567936px;stroke-linecap:butt;stroke-linejoin:miter;stroke-opacity:1" />
    </g>
  </g>
</svg>
