<?xml version="1.0" encoding="UTF-8" standalone="no"?>
<!-- Created with Inkscape (http://www.inkscape.org/) -->

<svg
   xmlns:dc="http://purl.org/dc/elements/1.1/"
   xmlns:cc="http://creativecommons.org/ns#"
   xmlns:rdf="http://www.w3.org/1999/02/22-rdf-syntax-ns#"
   xmlns:svg="http://www.w3.org/2000/svg"
   xmlns="http://www.w3.org/2000/svg"
   xmlns:xlink="http://www.w3.org/1999/xlink"
   xmlns:sodipodi="http://sodipodi.sourceforge.net/DTD/sodipodi-0.dtd"
   xmlns:inkscape="http://www.inkscape.org/namespaces/inkscape"
   width="48"
   height="48"
   id="svg2"
   version="1.1"
   inkscape:version="0.48+devel r12103"
   sodipodi:docname="activity-log-manager.svg">
  <defs
     id="defs4">
    <linearGradient
       id="linearGradient1040">
      <stop
         id="stop1042"
         offset="0"
         style="stop-color:#000000;stop-opacity:1" />
      <stop
         id="stop1044"
         offset="1"
         style="stop-color:#333333;stop-opacity:1" />
    </linearGradient>
    <linearGradient
       inkscape:collect="always"
       xlink:href="#linearGradient1040"
       id="linearGradient846"
       x1="-25.544233"
       y1="1046.2395"
       x2="-25.544233"
       y2="1001.097"
       gradientUnits="userSpaceOnUse"
       gradientTransform="translate(49.102291,4.8145926)" />
  </defs>
  <sodipodi:namedview
     id="base"
     pagecolor="#ffffff"
     bordercolor="#666666"
     borderopacity="1.0"
     inkscape:pageopacity="0.0"
     inkscape:pageshadow="2"
     inkscape:zoom="5.6568545"
     inkscape:cx="35.580865"
     inkscape:cy="40.928781"
     inkscape:document-units="px"
     inkscape:current-layer="layer1"
     showgrid="false"
     inkscape:window-width="1366"
     inkscape:window-height="718"
     inkscape:window-x="0"
     inkscape:window-y="28"
     inkscape:window-maximized="1">
    <inkscape:grid
       type="xygrid"
       id="grid3850" />
  </sodipodi:namedview>
  <metadata
     id="metadata7">
    <rdf:RDF>
      <cc:Work
         rdf:about="">
        <dc:format>image/svg+xml</dc:format>
        <dc:type
           rdf:resource="http://purl.org/dc/dcmitype/StillImage" />
        <dc:title />
      </cc:Work>
    </rdf:RDF>
  </metadata>
  <g
     inkscape:label="Capa 1"
     inkscape:groupmode="layer"
     id="layer1"
     transform="translate(0,-1004.3622)">
    <rect
       style="color:#000000;fill:#333333;fill-opacity:1;fill-rule:nonzero;stroke:none;stroke-width:0.2;marker:none;visibility:visible;display:inline;overflow:visible;enable-background:accumulate"
       id="rect6294"
       width="45.5"
       height="45.5"
       x="1.25"
       y="1005.6122"
       ry="6.3565426" />
    <rect
       ry="5.8565426"
       y="1006.1122"
       x="1.75"
       height="44.5"
       width="44.5"
       id="rect6296"
       style="color:#000000;fill:url(#linearGradient846);fill-opacity:1;fill-rule:nonzero;stroke:none;stroke-width:0.2;marker:none;visibility:visible;display:inline;overflow:visible;enable-background:accumulate" />
    <path
       id="path6361"
       d="m 1.7500011,1012.5497 0,-0.5625 c 0,-3.2445 2.599225,-5.875 5.84375,-5.875 l 32.8125009,0 c 3.244525,0 5.84375,2.6305 5.84375,5.875 l 0,0.5625 c 0,-3.2445 -2.599225,-5.875 -5.84375,-5.875 l -32.8125009,0 C 4.3492261,1006.6747 1.7500011,1009.3052 1.7500011,1012.5497 Z"
       style="color:#000000;fill:#ffffff;fill-opacity:1;fill-rule:nonzero;stroke:none;stroke-width:0.2;marker:none;visibility:visible;display:inline;overflow:visible;enable-background:accumulate"
       inkscape:connector-curvature="0" />
    <path
       inkscape:connector-curvature="0"
       style="color:#000000;fill:#000000;fill-opacity:1;fill-rule:nonzero;stroke:none;stroke-width:0.2;marker:none;visibility:visible;display:inline;overflow:visible;enable-background:accumulate"
       d="m 1.7500011,1044.1747 0,0.5625 c 0,3.2445 2.599225,5.875 5.84375,5.875 l 32.8125009,0 c 3.244525,0 5.84375,-2.6305 5.84375,-5.875 l 0,-0.5625 c 0,3.2445 -2.599225,5.875 -5.84375,5.875 l -32.8125009,0 C 4.3492261,1050.0497 1.7500011,1047.4192 1.7500011,1044.1747 Z"
       id="path6388" />
    <path
       style="color:#000000;fill:#ffffff;fill-opacity:0.07970916;fill-rule:nonzero;stroke:none;stroke-width:0.2;marker:none;visibility:visible;display:inline;overflow:visible;enable-background:accumulate"
       d="M 7.59375 1.75 C 4.3492254 1.75 1.75 4.3492254 1.75 7.59375 L 1.75 11.90625 L 7.625 1.75 L 7.59375 1.75 z M 12.5 1.75 L 1.75 20.375 L 1.75 35.125 L 21.03125 1.75 L 12.5 1.75 z M 25.9375 1.75 L 2.25 42.71875 C 3.1459359 44.801108 5.1755653 46.25 7.59375 46.25 L 8.71875 46.25 L 34.4375 1.75 L 25.9375 1.75 z M 39.34375 1.75 L 13.625 46.25 L 22.15625 46.25 L 45.8125 5.34375 C 44.934234 3.2214905 42.853235 1.75 40.40625 1.75 L 39.34375 1.75 z M 46.25 13.03125 L 27.0625 46.25 L 35.5625 46.25 L 46.25 27.75 L 46.25 13.03125 z M 46.25 36.25 L 40.46875 46.25 C 43.683658 46.216036 46.25 43.629488 46.25 40.40625 L 46.25 36.25 z "
       transform="translate(0,1004.3622)"
       id="rect816" />
    <path
       style="color:#000000;fill:#ffffff;fill-opacity:1;fill-rule:nonzero;stroke:none;stroke-width:0.2;marker:none;visibility:visible;display:inline;overflow:visible;enable-background:accumulate"
       d="m 24,1013.3622 c -8.281319,0 -15,6.7187 -15,15 0,8.2813 6.718681,15 15,15 8.28132,0 15,-6.7187 15,-15 C 39,1020.0809 32.28132,1013.3622 24,1013.3622 z m 0,1.9047 c 7.229348,0 13.095238,5.866 13.095238,13.0953 0,7.2293 -5.86589,13.0953 -13.095238,13.0953 -7.229348,0 -13.095238,-5.866 -13.095238,-13.0953 C 10.904762,1021.1329 16.770652,1015.2669 24,1015.2669 z m 0,5.893 c -2.10969,0 -3.809524,1.369 -3.809524,3.0654 l 0,3.1845 1.845238,0 0,-0.045 0,-0.3572 0,-2.381 c 0,-1.0631 0.877196,-1.9195 1.964286,-1.9195 1.08709,0 1.964286,0.8564 1.964286,1.9195 l 0,2.381 0,0.3572 0,0.045 1.845238,0 0,-3.1845 C 27.809524,1022.5289 26.109691,1021.1599 24,1021.1599 z m -5.252977,7.2618 0,7.1428 10.505954,0 0,-7.1428 L 18.747023,1028.4217 Z"
       id="path849"
       inkscape:connector-curvature="0" />
  </g>
</svg>
