<?xml version="1.0" encoding="UTF-8" standalone="no"?>
<!-- Created with Inkscape (http://www.inkscape.org/) -->

<svg
   xmlns:dc="http://purl.org/dc/elements/1.1/"
   xmlns:cc="http://creativecommons.org/ns#"
   xmlns:rdf="http://www.w3.org/1999/02/22-rdf-syntax-ns#"
   xmlns:svg="http://www.w3.org/2000/svg"
   xmlns="http://www.w3.org/2000/svg"
   xmlns:xlink="http://www.w3.org/1999/xlink"
   xmlns:sodipodi="http://sodipodi.sourceforge.net/DTD/sodipodi-0.dtd"
   xmlns:inkscape="http://www.inkscape.org/namespaces/inkscape"
   width="48"
   height="48"
   id="svg2"
   version="1.1"
   inkscape:version="0.48+devel r12064"
   sodipodi:docname="flash.svg">
  <defs
     id="defs4">
    <linearGradient
       id="linearGradient868">
      <stop
         id="stop870"
         offset="0"
         style="stop-color:#aa0000;stop-opacity:1" />
      <stop
         id="stop872"
         offset="1"
         style="stop-color:#ff5555;stop-opacity:1" />
    </linearGradient>
    <linearGradient
       inkscape:collect="always"
       xlink:href="#linearGradient868"
       id="linearGradient832"
       x1="-30.028175"
       y1="1053.9532"
       x2="-30.028175"
       y2="1009.0519"
       gradientUnits="userSpaceOnUse" />
  </defs>
  <sodipodi:namedview
     id="base"
     pagecolor="#ffffff"
     bordercolor="#666666"
     borderopacity="1.0"
     inkscape:pageopacity="0.0"
     inkscape:pageshadow="2"
     inkscape:zoom="2.8284273"
     inkscape:cx="35.269563"
     inkscape:cy="17.309364"
     inkscape:document-units="px"
     inkscape:current-layer="layer1"
     showgrid="false"
     inkscape:window-width="1366"
     inkscape:window-height="718"
     inkscape:window-x="0"
     inkscape:window-y="28"
     inkscape:window-maximized="1"
     showguides="true"
     inkscape:guide-bbox="true" />
  <metadata
     id="metadata7">
    <rdf:RDF>
      <cc:Work
         rdf:about="">
        <dc:format>image/svg+xml</dc:format>
        <dc:type
           rdf:resource="http://purl.org/dc/dcmitype/StillImage" />
        <dc:title />
      </cc:Work>
    </rdf:RDF>
  </metadata>
  <g
     inkscape:label="Capa 1"
     inkscape:groupmode="layer"
     id="layer1"
     transform="translate(0,-1004.3622)">
    <g
       id="g834"
       transform="translate(52.814602,-3.1404245)">
      <rect
         ry="6.3565426"
         y="1008.7526"
         x="-51.564602"
         height="45.5"
         width="45.5"
         id="rect6294"
         style="color:#000000;fill:#333333;fill-opacity:1;fill-rule:nonzero;stroke:none;stroke-width:0.2;marker:none;visibility:visible;display:inline;overflow:visible;enable-background:accumulate" />
      <rect
         style="color:#000000;fill:url(#linearGradient832);fill-opacity:1;fill-rule:nonzero;stroke:none;stroke-width:0.2;marker:none;visibility:visible;display:inline;overflow:visible;enable-background:accumulate"
         id="rect6296"
         width="44.5"
         height="44.5"
         x="-51.064602"
         y="1009.2526"
         ry="5.8565426" />
      <path
         inkscape:connector-curvature="0"
         style="color:#000000;fill:#ffffff;fill-opacity:1;fill-rule:nonzero;stroke:none;stroke-width:0.2;marker:none;visibility:visible;display:inline;overflow:visible;enable-background:accumulate"
         d="m -51.0646,1015.6901 0,-0.5625 c 0,-3.2445 2.599225,-5.875 5.84375,-5.875 l 32.8125,0 c 3.2445249,0 5.8437499,2.6305 5.8437499,5.875 l 0,0.5625 c 0,-3.2445 -2.599225,-5.875 -5.8437499,-5.875 l -32.8125,0 C -48.465375,1009.8151 -51.0646,1012.4456 -51.0646,1015.6901 Z"
         id="path6361" />
      <path
         id="path6388"
         d="m -51.0646,1047.3151 0,0.5625 c 0,3.2445 2.599225,5.875 5.84375,5.875 l 32.8125,0 c 3.2445249,0 5.8437499,-2.6305 5.8437499,-5.875 l 0,-0.5625 c 0,3.2445 -2.599225,5.875 -5.8437499,5.875 l -32.8125,0 C -48.465375,1053.1901 -51.0646,1050.5596 -51.0646,1047.3151 Z"
         style="color:#000000;fill:#000000;fill-opacity:1;fill-rule:nonzero;stroke:none;stroke-width:0.2;marker:none;visibility:visible;display:inline;overflow:visible;enable-background:accumulate"
         inkscape:connector-curvature="0" />
    </g>
    <path
       style="fill:#ffffff;fill-opacity:1;stroke:none"
       id="path3727"
       inkscape:connector-curvature="0"
       d="m 35.999885,1013.3721 0,6.0352 c -6.025475,0.1057 -7.506312,5.982 -7.506312,5.982 l 4.544637,0 0,6.0351 -7.04674,0 c -4.238256,13.0755 -13.991355,11.9112 -13.991355,11.9112 l 0,-6.0352 c 0,0 6.188944,1.1483 9.344592,-10.3759 C 25.292132,1012.5091 35.999885,1013.3721 35.999885,1013.3721 Z" />
  </g>
</svg>
