<?xml version="1.0" encoding="UTF-8" standalone="no"?>
<!-- Created with Inkscape (http://www.inkscape.org/) -->

<svg
   xmlns:dc="http://purl.org/dc/elements/1.1/"
   xmlns:cc="http://creativecommons.org/ns#"
   xmlns:rdf="http://www.w3.org/1999/02/22-rdf-syntax-ns#"
   xmlns:svg="http://www.w3.org/2000/svg"
   xmlns="http://www.w3.org/2000/svg"
   xmlns:xlink="http://www.w3.org/1999/xlink"
   xmlns:sodipodi="http://sodipodi.sourceforge.net/DTD/sodipodi-0.dtd"
   xmlns:inkscape="http://www.inkscape.org/namespaces/inkscape"
   width="48"
   height="48"
   id="svg2"
   version="1.1"
   inkscape:version="0.48+devel r12106"
   sodipodi:docname="amazon-mp3-store-source.svg">
  <defs
     id="defs4">
    <linearGradient
       inkscape:collect="always"
       xlink:href="#linearGradient3698-0"
       id="linearGradient4018"
       x1="-37.381088"
       y1="1041.6724"
       x2="-37.381088"
       y2="996.47565"
       gradientUnits="userSpaceOnUse"
       gradientTransform="translate(61.381088,-995.42242)" />
    <linearGradient
       id="linearGradient3698-0">
      <stop
         id="stop3700-9"
         offset="0"
         style="stop-color:#d9b386;stop-opacity:1" />
      <stop
         id="stop3702-1"
         offset="1"
         style="stop-color:#e5c29a;stop-opacity:1" />
    </linearGradient>
    <radialGradient
       inkscape:collect="always"
       xlink:href="#linearGradient4267"
       id="radialGradient4359"
       cx="9.7228289"
       cy="48.386101"
       fx="9.7228289"
       fy="48.386101"
       r="10.405914"
       gradientTransform="matrix(-2.5215877,-0.67565739,0.39374027,-1.4694587,31.161315,1109.0944)"
       gradientUnits="userSpaceOnUse" />
    <linearGradient
       inkscape:collect="always"
       id="linearGradient4267">
      <stop
         style="stop-color:#000000;stop-opacity:1;"
         offset="0"
         id="stop4269" />
      <stop
         style="stop-color:#000000;stop-opacity:0;"
         offset="1"
         id="stop4271" />
    </linearGradient>
    <radialGradient
       inkscape:collect="always"
       xlink:href="#linearGradient4267"
       id="radialGradient4273"
       cx="3.2907388"
       cy="1037.0664"
       fx="3.2907388"
       fy="1037.0664"
       r="6.5407381"
       gradientTransform="matrix(-1.5982678,8.0634637e-6,-5.8102492e-6,-1.1516557,17.127298,1214.5821)"
       gradientUnits="userSpaceOnUse" />
    <radialGradient
       inkscape:collect="always"
       xlink:href="#linearGradient4279"
       id="radialGradient4305"
       cx="33.385059"
       cy="1022.8267"
       fx="33.385059"
       fy="1022.8267"
       r="7.7781749"
       gradientTransform="matrix(1.1616619,1.1616429,-1.4545442,1.454568,1480.6528,-1509.9818)"
       gradientUnits="userSpaceOnUse" />
    <linearGradient
       inkscape:collect="always"
       id="linearGradient4279">
      <stop
         style="stop-color:#ffffff;stop-opacity:1;"
         offset="0"
         id="stop4281" />
      <stop
         style="stop-color:#ffffff;stop-opacity:0;"
         offset="1"
         id="stop4283" />
    </linearGradient>
    <radialGradient
       inkscape:collect="always"
       xlink:href="#linearGradient4279"
       id="radialGradient4366"
       gradientUnits="userSpaceOnUse"
       gradientTransform="matrix(-3.4708912,0.93002253,0.54197189,2.0226668,65.245574,-59.18489)"
       cx="12.108991"
       cy="45.800991"
       fx="12.108991"
       fy="45.800991"
       r="10.405914" />
    <radialGradient
       inkscape:collect="always"
       xlink:href="#linearGradient4279"
       id="radialGradient4285"
       cx="2.5407391"
       cy="1017.0834"
       fx="2.5407391"
       fy="1017.0834"
       r="6.5407381"
       gradientTransform="matrix(0,-1.8886596,2.2378075,0,-2265.5899,19.5758)"
       gradientUnits="userSpaceOnUse" />
    <linearGradient
       inkscape:collect="always"
       xlink:href="#linearGradient4218"
       id="linearGradient4224"
       x1="23.5"
       y1="36.5"
       x2="23.5"
       y2="14.125"
       gradientUnits="userSpaceOnUse" />
    <linearGradient
       inkscape:collect="always"
       id="linearGradient4218">
      <stop
         style="stop-color:#a9987f;stop-opacity:1"
         offset="0"
         id="stop4220" />
      <stop
         style="stop-color:#d5ccbc;stop-opacity:1"
         offset="1"
         id="stop4222" />
    </linearGradient>
    <linearGradient
       inkscape:collect="always"
       xlink:href="#linearGradient4208-6"
       id="linearGradient4216"
       gradientUnits="userSpaceOnUse"
       x1="25"
       y1="36"
       x2="25"
       y2="14.375" />
    <linearGradient
       id="linearGradient4208-6">
      <stop
         style="stop-color:#f0d2ae;stop-opacity:1"
         offset="0"
         id="stop4210-7" />
      <stop
         style="stop-color:#ffffff;stop-opacity:1"
         offset="1"
         id="stop4212-1" />
    </linearGradient>
  </defs>
  <sodipodi:namedview
     id="base"
     pagecolor="#ffffff"
     bordercolor="#666666"
     borderopacity="1.0"
     inkscape:pageopacity="0.0"
     inkscape:pageshadow="2"
     inkscape:zoom="7.6421301"
     inkscape:cx="14.574419"
     inkscape:cy="28.487931"
     inkscape:document-units="px"
     inkscape:current-layer="layer1"
     showgrid="false"
     inkscape:window-width="1366"
     inkscape:window-height="718"
     inkscape:window-x="0"
     inkscape:window-y="28"
     inkscape:window-maximized="1">
    <inkscape:grid
       type="xygrid"
       id="grid3850" />
  </sodipodi:namedview>
  <metadata
     id="metadata7">
    <rdf:RDF>
      <cc:Work
         rdf:about="">
        <dc:format>image/svg+xml</dc:format>
        <dc:type
           rdf:resource="http://purl.org/dc/dcmitype/StillImage" />
        <dc:title />
      </cc:Work>
    </rdf:RDF>
  </metadata>
  <g
     inkscape:label="Capa 1"
     inkscape:groupmode="layer"
     id="layer1"
     transform="translate(0,-1004.3622)">
    <path
       style="color:#000000;fill:#333333;fill-opacity:1;fill-rule:nonzero;stroke:none;stroke-width:0.2;marker:none;visibility:visible;display:inline;overflow:visible;enable-background:accumulate"
       d="M 7.59375 1.25 C 4.0722254 1.25 1.25 4.0722254 1.25 7.59375 L 1.25 40.40625 C 1.25 43.927775 4.0722254 46.75 7.59375 46.75 L 40.40625 46.75 C 43.927775 46.75 46.75 43.927775 46.75 40.40625 L 46.75 7.59375 C 46.75 4.0722254 43.927775 1.25 40.40625 1.25 L 7.59375 1.25 z M 5.375 3.90625 L 42.625 3.90625 C 45.077251 4.14545 44.489558 7.22545 42.625 7.28125 L 5.375 7.28125 C 2.9227495 7.04205 3.5104416 3.96205 5.375 3.90625 z "
       transform="translate(0,1004.3622)"
       id="rect6294" />
    <path
       style="color:#000000;fill:url(#linearGradient4018);fill-opacity:1;fill-rule:nonzero;stroke:none;stroke-width:0.2;marker:none;visibility:visible;display:inline;overflow:visible;enable-background:accumulate"
       d="M 7.59375 1.75 C 4.3492254 1.75 1.75 4.3492254 1.75 7.59375 L 1.75 40.40625 C 1.75 43.650775 4.3492254 46.25 7.59375 46.25 L 40.40625 46.25 C 43.650775 46.25 46.25 43.650775 46.25 40.40625 L 46.25 7.59375 C 46.25 4.3492254 43.650775 1.75 40.40625 1.75 L 7.59375 1.75 z M 5.375 3.90625 L 42.625 3.90625 C 45.077251 4.14545 44.489558 7.22545 42.625 7.28125 L 5.375 7.28125 C 2.9227495 7.04205 3.5104416 3.96205 5.375 3.90625 z "
       transform="translate(0,1004.3622)"
       id="rect6296" />
    <path
       id="path6361"
       d="m 1.7500003,1012.5497 0,-0.5625 c 0,-3.2445 2.599225,-5.875 5.84375,-5.875 l 32.8124997,0 c 3.244525,0 5.84375,2.6305 5.84375,5.875 l 0,0.5625 c 0,-3.2445 -2.599225,-5.875 -5.84375,-5.875 l -32.8124997,0 C 4.3492253,1006.6747 1.7500003,1009.3052 1.7500003,1012.5497 Z"
       style="color:#000000;fill:#ffffff;fill-opacity:1;fill-rule:nonzero;stroke:none;stroke-width:0.2;marker:none;visibility:visible;display:inline;overflow:visible;enable-background:accumulate"
       inkscape:connector-curvature="0" />
    <path
       style="opacity:0.46200005;fill:url(#radialGradient4359);fill-opacity:1;stroke:none"
       d="m 17.65625,1048.1016 0,-12.3437 c 0,-0.5811 -0.254703,-1.0818 -0.65625,-1.4375 l -2.3125,-0.5 -12.96875,0 L 17.65625,1048.1016 Z"
       id="path4351"
       inkscape:connector-curvature="0" />
    <path
       style="opacity:0.43000004;fill:url(#radialGradient4273);fill-opacity:1;stroke:none"
       d="M 1.75 19.75 L 1.75 33.78125 L 15.78125 19.75 L 1.75 19.75 z "
       transform="translate(0,1004.3622)"
       id="path4265" />
    <path
       style="opacity:0.43000004;fill:url(#radialGradient4305);fill-opacity:1;stroke:none"
       d="M 44 4.28125 L 43.84375 4.46875 C 43.864033 4.4909299 43.887634 4.50816 43.90625 4.53125 C 44.087931 4.7565991 44.185627 5.0346979 44.21875 5.3125 C 44.238127 5.475012 44.24515 5.6176273 44.21875 5.78125 C 44.197544 5.9349737 44.152436 6.074112 44.09375 6.21875 C 44.050151 6.3223549 43.998899 6.4369779 43.9375 6.53125 C 43.916815 6.5630785 43.897659 6.5945473 43.875 6.625 C 43.837453 6.6751609 43.792668 6.7040665 43.75 6.75 C 43.68317 6.8236012 43.610639 6.9079233 43.53125 6.96875 C 43.448516 7.0302302 43.344862 7.0799869 43.25 7.125 C 43.206101 7.1458306 43.171424 7.1706617 43.125 7.1875 C 43.115714 7.1908958 43.103133 7.1842706 43.09375 7.1875 C 42.946754 7.2380939 42.794396 7.2761805 42.625 7.28125 L 41.6875 7.28125 L 32.21875 19.59375 L 46.25 19.59375 L 46.25 7.59375 C 46.25 6.3610609 45.86197 5.2204905 45.21875 4.28125 L 44 4.28125 z "
       transform="translate(0,1004.3622)"
       id="path4295" />
    <path
       style="opacity:0.30199998;fill:url(#radialGradient4366);fill-opacity:1;stroke:none"
       d="M 46.25 25.15625 L 24.71875 44.4375 L 42.5625 44.4375 L 45.09375 43.90625 C 45.817164 42.933503 46.25 41.72082 46.25 40.40625 L 46.25 25.15625 z "
       transform="translate(0,1004.3622)"
       id="path4364" />
    <path
       style="opacity:0.4;fill:url(#radialGradient4285);fill-opacity:1;stroke:none"
       d="M 2.78125 4.28125 C 2.1380299 5.2204905 1.75 6.3610609 1.75 7.59375 L 1.75 19.59375 L 24.9375 19.59375 L 15.46875 7.28125 L 5.375 7.28125 C 5.1367034 7.2580058 4.9325026 7.1965132 4.75 7.125 C 4.7411563 7.1215346 4.7274667 7.1285655 4.71875 7.125 C 4.7042216 7.1192095 4.7016811 7.0998106 4.6875 7.09375 C 4.5825233 7.0481193 4.4924503 6.9967788 4.40625 6.9375 C 4.3757229 6.9167348 4.3407412 6.8972725 4.3125 6.875 C 4.2940948 6.8602905 4.2674375 6.85907 4.25 6.84375 C 4.1848137 6.7875149 4.1458727 6.720003 4.09375 6.65625 C 4.0429295 6.5932144 3.9761706 6.5376395 3.9375 6.46875 C 3.9324962 6.4599012 3.942305 6.4464336 3.9375 6.4375 C 3.882769 6.3360502 3.8424411 6.2350837 3.8125 6.125 C 3.795625 6.0619675 3.7902931 6.0022538 3.78125 5.9375 C 3.761422 5.8094634 3.7405582 5.6929645 3.75 5.5625 C 3.7508055 5.5528497 3.7490393 5.5408941 3.75 5.53125 C 3.7520459 5.5087787 3.7783718 5.4911699 3.78125 5.46875 C 3.8036774 5.3024415 3.840043 5.1246957 3.90625 4.96875 C 3.9101574 4.9594647 3.9021954 4.9467243 3.90625 4.9375 C 3.988622 4.750102 4.1105084 4.5876672 4.25 4.4375 C 4.2998184 4.3838689 4.349742 4.3281494 4.40625 4.28125 L 2.84375 4.28125 C 2.8241707 4.28125 2.8006598 4.2831211 2.78125 4.28125 z "
       transform="translate(0,1004.3622)"
       id="path4275" />
    <g
       id="g4382"
       transform="matrix(1.0312813,0,0,1.0312813,-0.75075123,-29.86255)">
      <path
         sodipodi:type="arc"
         style="color:#000000;fill:#000000;fill-opacity:0.29411765;fill-rule:nonzero;stroke:none;stroke-width:0.2;marker:none;visibility:visible;display:inline;overflow:visible;enable-background:accumulate"
         id="path4233"
         sodipodi:cx="23.25"
         sodipodi:cy="25.25"
         sodipodi:rx="13.375"
         sodipodi:ry="11.125"
         d="m 36.625,25.25 c 0,6.144168 -5.988191,11.125 -13.375,11.125 -7.386809,0 -13.375,-4.980832 -13.375,-11.125 0,-6.144168 5.988191,-11.125 13.375,-11.125 C 30.636809,14.125 36.625,19.105832 36.625,25.25 Z"
         transform="matrix(1.3945781,0,0,1.3945781,-8.4239408,993.1491)" />
      <path
         transform="matrix(1.3689896,0,0,1.3689896,-7.8290081,993.79521)"
         d="m 36.625,25.25 c 0,6.144168 -5.988191,11.125 -13.375,11.125 -7.386809,0 -13.375,-4.980832 -13.375,-11.125 0,-6.144168 5.988191,-11.125 13.375,-11.125 C 30.636809,14.125 36.625,19.105832 36.625,25.25 Z"
         sodipodi:ry="11.125"
         sodipodi:rx="13.375"
         sodipodi:cy="25.25"
         sodipodi:cx="23.25"
         id="path4198"
         style="color:#000000;fill:url(#linearGradient4224);fill-opacity:1;fill-rule:nonzero;stroke:none;stroke-width:0.2;marker:none;visibility:visible;display:inline;overflow:visible;enable-background:accumulate"
         sodipodi:type="arc" />
      <path
         sodipodi:type="arc"
         style="color:#000000;fill:url(#linearGradient4216);fill-opacity:1;fill-rule:nonzero;stroke:none;stroke-width:0.2;marker:none;visibility:visible;display:inline;overflow:visible;enable-background:accumulate"
         id="path4214"
         sodipodi:cx="23.25"
         sodipodi:cy="25.25"
         sodipodi:rx="13.375"
         sodipodi:ry="11.125"
         d="m 36.625,25.25 c 0,6.144168 -5.988191,11.125 -13.375,11.125 -7.386809,0 -13.375,-4.980832 -13.375,-11.125 0,-6.144168 5.988191,-11.125 13.375,-11.125 C 30.636809,14.125 36.625,19.105832 36.625,25.25 Z"
         transform="matrix(1.2666352,0,0,1.2666352,-5.4492691,996.37966)" />
      <g
         transform="matrix(1.3689896,0,0,1.3689896,-7.8290081,-381.16619)"
         id="g4237">
        <path
           style="color:#000000;fill:#b9a37d;fill-opacity:1;fill-rule:nonzero;stroke:none;stroke-width:0.2;marker:none;visibility:visible;display:inline;overflow:visible;enable-background:accumulate"
           d="m 23.25,15.78125 c -6.282239,0 -11.375,4.243336 -11.375,9.46875 0,5.225414 5.092761,9.46875 11.375,9.46875 6.282239,0 11.375,-4.243336 11.375,-9.46875 C 34.625,20.024586 29.532239,15.78125 23.25,15.78125 z m 0,0.3125 c 6.088939,0 11.03125,4.091618 11.03125,9.15625 0,5.064632 -4.942311,9.15625 -11.03125,9.15625 -6.088939,0 -11.03125,-4.091618 -11.03125,-9.15625 C 12.21875,20.185368 17.161061,16.09375 23.25,16.09375 Z"
           transform="translate(0,1004.3622)"
           id="path4226"
           inkscape:connector-curvature="0" />
        <g
           id="g4188"
           transform="matrix(0.4656682,0,0,0.4656682,12.073963,550.63481)">
          <path
             d="m 26.399431,1025.9712 c 0,1.6611 0.0404,3.0449 -0.805558,4.5234 -0.684919,1.2022 -1.773781,1.9384 -2.983283,1.9384 -1.650807,0 -2.61981,-1.2476 -2.61981,-3.092 0,-3.63 3.293832,-4.2899 6.407873,-4.2899 L 26.398653,1025.9712 z m 4.342218,10.393 c -0.284112,0.2557 -0.697369,0.2711 -1.017257,0.1013 -1.430545,-1.1765 -1.686611,-1.718 -2.470374,-2.8414 -2.362184,2.3825 -4.037899,3.0978 -7.100568,3.0978 -3.629286,0 -6.447561,-2.2147 -6.447561,-6.6449 0,-3.4576 1.893637,-5.8094 4.591279,-6.9653 2.338834,-1.0141 5.605425,-1.1983 8.102263,-1.474 l 0,-0.5567 c 0,-1.0111 0.08094,-2.214 -0.522253,-3.0895 -0.524583,-0.7862 -1.531724,-1.1066 -2.417446,-1.1066 -1.643026,0 -3.10548,0.8301 -3.4635,2.5574 -0.07549,0.3836 -0.358046,0.7632 -0.748739,0.7832 l -4.174883,-0.4473 c -0.354931,-0.079 -0.745625,-0.3566 -0.644446,-0.8896 0.959664,-5.0139 5.533043,-6.5264 9.633981,-6.5264 2.096008,0 4.837233,0.5538 6.487262,2.1232 2.096,1.9367 1.892859,4.5196 1.892859,7.3341 l 0,6.6405 c 0,1.9991 0.84136,2.8739 1.627458,3.9489 0.275545,0.3873 0.337799,0.8494 -0.0141,1.1343 -0.880268,0.7307 -2.443123,2.0738 -3.303158,2.8307 L 30.741929,1036.364 Z"
             inkscape:connector-curvature="0"
             id="path3673-7"
             style="fill:#352b1d;fill-opacity:0.68639054;fill-rule:evenodd;display:inline" />
          <path
             style="fill:#352b1d;fill-opacity:0.68639054;fill-rule:evenodd"
             id="path3719-7"
             inkscape:connector-curvature="0"
             d="m 37.605774,1039.6993 c -3.68698,2.7204 -9.033434,4.1677 -13.637811,4.1677 -6.450881,0 -12.261536,-2.384 -16.6582985,-6.3536 -0.3449559,-0.3124 -0.036905,-0.739 0.3772505,-0.4964 4.744557,2.761 10.610576,4.4224 16.669301,4.4224 4.087653,0 8.579884,-0.8477 12.714025,-2.6016 C 37.693786,1038.5741 38.216189,1039.2492 37.605774,1039.6993 Z" />
          <path
             style="fill:#352b1d;fill-opacity:0.68639054;fill-rule:evenodd"
             id="path3721-2"
             inkscape:connector-curvature="0"
             d="m 39.139972,1037.9474 c -0.470941,-0.6033 -3.118083,-0.2859 -4.305555,-0.1427 -0.360924,0.043 -0.416288,-0.2715 -0.09191,-0.5011 2.110901,-1.4826 5.569683,-1.0536 5.972131,-0.5579 0.404935,0.5021 -0.10612,3.9696 -2.084639,5.623 -0.304141,0.2555 -0.593733,0.1207 -0.45923,-0.2159 C 38.615444,1041.04 39.61269,1038.5511 39.139972,1037.9474 Z" />
          <path
             inkscape:connector-curvature="0"
             id="path909-3"
             d="m 24.0625,1012.3908 c -0.994266,0 -2.008791,0.075 -3,0.2813 -0.03087,0.01 -0.06294,0.024 -0.09375,0.031 -0.216453,0.047 -0.443576,0.066 -0.65625,0.125 -0.03193,0.01 -0.06192,0.022 -0.09375,0.031 -0.499427,0.1422 -1.002476,0.3497 -1.46875,0.5625 -0.172795,0.08 -0.364608,0.1593 -0.53125,0.25 -0.05311,0.029 -0.10381,0.065 -0.15625,0.094 -0.221861,0.1255 -0.447654,0.2607 -0.65625,0.4063 -0.208596,0.1455 -0.369162,0.3021 -0.5625,0.4687 -0.134135,0.1166 -0.28033,0.2167 -0.40625,0.3438 -0.05548,0.056 -0.102445,0.1299 -0.15625,0.1875 -0.166338,0.1782 -0.350781,0.3639 -0.5,0.5625 -0.08773,0.1169 -0.168646,0.2509 -0.25,0.375 -0.03268,0.05 -0.06215,0.1047 -0.09375,0.1562 -0.05806,0.094 -0.133145,0.1834 -0.1875,0.2813 -0.108321,0.195 -0.157222,0.3819 -0.25,0.5937 -0.05186,0.1184 -0.109509,0.2513 -0.15625,0.375 -0.02256,0.06 -0.04118,0.1261 -0.0625,0.1875 -0.08008,0.2305 -0.15682,0.47 -0.21875,0.7188 -0.0081,0.033 -0.02343,0.061 -0.03125,0.094 -0.02765,0.1151 -0.07014,0.1935 -0.09375,0.3125 0.0022,0.01 -0.0026,0.021 0,0.031 0.01894,0.069 0.05866,0.1285 0.09375,0.1875 1.114353,-4.7084 5.53658,-6.1563 9.53125,-6.1563 2.096007,0 4.849971,0.5559 6.5,2.125 1.572,1.4525 1.838414,3.28 1.875,5.2813 6.57e-4,-0.1774 0.0012,-0.357 0,-0.5313 -1.9e-4,-0.01 2.03e-4,-0.02 0,-0.031 -0.0013,-0.073 0.002,-0.1466 0,-0.2188 -0.002,-0.074 0.0029,-0.1451 0,-0.2187 -0.01112,-0.2852 -0.03498,-0.5363 -0.0625,-0.8125 -0.02162,-0.2158 -0.0586,-0.4465 -0.09375,-0.6563 -0.0518,-0.3092 -0.129253,-0.6115 -0.21875,-0.9062 -0.01216,-0.04 -0.01828,-0.085 -0.03125,-0.125 -0.08242,-0.2529 -0.194035,-0.478 -0.3125,-0.7188 -0.137098,-0.2787 -0.3054,-0.5513 -0.5,-0.8125 -0.194599,-0.2611 -0.39425,-0.5079 -0.65625,-0.75 C 28.912476,1012.9467 26.158507,1012.3908 24.0625,1012.3908 z m 2.34375,9.25 c -2.496838,0.2757 -5.754915,0.4546 -8.09375,1.4688 -1.299403,0.5567 -2.408512,1.3939 -3.21875,2.5 -0.01313,0.018 -0.01828,0.043 -0.03125,0.062 -0.102648,0.143 -0.189085,0.3168 -0.28125,0.4687 -0.09145,0.1536 -0.200961,0.3064 -0.28125,0.4688 -0.01651,0.032 -0.04646,0.061 -0.0625,0.094 -0.122448,0.2577 -0.219474,0.5021 -0.3125,0.7813 -0.108385,0.3253 -0.18452,0.6771 -0.25,1.0312 -0.006,0.032 -0.02563,0.062 -0.03125,0.094 -0.06038,0.3507 -0.109454,0.7155 -0.125,1.0937 -0.0039,0.084 -0.02976,0.1641 -0.03125,0.25 0.0068,0.1235 0.02427,0.2525 0.03125,0.375 0.112531,-3.2875 1.978514,-5.567 4.59375,-6.6875 2.338835,-1.0142 5.596912,-1.193 8.09375,-1.4687 L 26.40625,1021.6408 z m 0,5.7188 c -0.01215,0.3205 -0.05041,0.6565 -0.09375,0.9687 -0.02356,0.1845 -0.05514,0.3489 -0.09375,0.5313 -0.0045,0.02 0.0047,0.042 0,0.062 -0.01461,0.066 -0.04556,0.1219 -0.0625,0.1875 -0.05101,0.1975 -0.112219,0.3961 -0.1875,0.5937 -0.09695,0.2544 -0.228903,0.5232 -0.375,0.7813 -0.0046,0.01 0.0047,0.023 0,0.031 -0.08189,0.142 -0.188475,0.2466 -0.28125,0.375 -0.0049,0.01 0.0049,0.024 0,0.031 -0.09345,0.1278 -0.177899,0.2305 -0.28125,0.3437 -0.0053,0.01 0.0053,0.025 0,0.031 -0.104208,0.1129 -0.230573,0.2153 -0.34375,0.3125 -0.596081,0.5178 -1.299689,0.8437 -2.0625,0.8437 -0.390358,0 -0.752585,-0.089 -1.0625,-0.2187 -0.159683,-0.067 -0.269401,-0.1521 -0.40625,-0.25 -0.01905,-0.014 -0.04391,-0.017 -0.0625,-0.031 -0.09856,-0.075 -0.195658,-0.1903 -0.28125,-0.2812 -0.116866,-0.1241 -0.220702,-0.2549 -0.3125,-0.4063 -0.253262,-0.4177 -0.420976,-0.9075 -0.46875,-1.5 -0.0081,0.041 -0.03125,0.081 -0.03125,0.125 0,1.8444 0.974192,3.0625 2.625,3.0625 1.209501,0 2.283831,-0.7353 2.96875,-1.9375 C 26.284582,1029.8074 26.394345,1028.6448 26.40625,1027.3596 z m 6.03125,1.125 0,0.5 c 0,1.999 0.838903,2.8937 1.625,3.9687 0.03307,0.046 0.03557,0.1088 0.0625,0.1563 0.06831,-0.077 0.101914,-0.1581 0.125,-0.25 -0.02671,-0.1024 -0.0647,-0.1793 -0.125,-0.2813 -0.02229,-0.039 -0.04273,-0.084 -0.0625,-0.125 -0.0049,-0.01 0.0049,-0.024 0,-0.031 -0.191353,-0.2617 -0.410436,-0.5199 -0.59375,-0.7813 -0.173319,-0.2433 -0.292393,-0.5079 -0.4375,-0.7812 -0.14854,-0.2797 -0.278832,-0.5627 -0.375,-0.9063 -0.04621,-0.1651 -0.09483,-0.3457 -0.125,-0.5312 -0.03104,-0.1908 -0.05118,-0.4088 -0.0625,-0.625 C 32.456404,1028.6881 32.444005,1028.6013 32.4375,1028.4846 Z"
             style="fill:#35281a;fill-opacity:1;fill-rule:evenodd;display:inline" />
          <path
             id="path901-4"
             d="m 38.370009,1036.2677 c -0.589433,0.01 -1.24843,0.079 -1.87675,0.2461 -0.628319,0.1669 -1.225959,0.4293 -1.753684,0.7999 -0.05406,0.038 -0.08977,0.083 -0.123066,0.1231 0.05091,0.026 0.125134,0.042 0.215365,0.031 0.181017,-0.022 0.440816,-0.036 0.676861,-0.062 0.916063,-0.4254 1.946023,-0.6031 2.861274,-0.6153 1.178865,-0.016 2.137022,0.2445 2.338246,0.4923 0.04598,0.057 0.07091,0.151 0.0923,0.2769 0.0081,-0.076 -0.0039,-0.1437 0,-0.2154 -0.0034,-0.1226 0.01797,-0.2486 0,-0.3384 -0.01925,-0.1133 -0.05455,-0.1882 -0.0923,-0.2462 C 40.507031,1036.5121 39.548874,1036.2516 38.370009,1036.2677 Z"
             style="fill:#000000;fill-opacity:0.1952663;fill-rule:evenodd;display:inline"
             inkscape:connector-curvature="0" />
          <path
             id="path899-2"
             d="m 7.4190199,1036.9445 c -0.084735,0.011 -0.1376372,0.064 -0.1845983,0.1231 0.019874,0.029 0.030567,0.064 0.061533,0.092 0.134556,0.1215 0.2627497,0.2507 0.399963,0.3692 0.01198,0.01 0.018772,0.024 0.030766,0.031 4.7382524,2.7485 10.6011904,4.3996 16.6446174,4.3996 4.087654,0 8.572378,-0.8305 12.70652,-2.5844 0.194858,-0.083 0.381089,-0.065 0.523028,0 0.128595,-0.095 0.205789,-0.2028 0.246132,-0.3077 -0.08181,-0.1783 -0.30655,-0.297 -0.553796,-0.2769 -0.07242,0.01 -0.137421,0.029 -0.215364,0.062 -4.134142,1.7539 -8.618866,2.5843 -12.70652,2.5843 -0.747123,0 -1.506263,-0.043 -2.245946,-0.092 -0.01012,-6e-4 -0.02064,7e-4 -0.03077,0 -2.988618,-0.2034 -5.893505,-0.7977 -8.614589,-1.7229 -0.0091,0 -0.02164,0 -0.03077,0 -0.673094,-0.2295 -1.321285,-0.5009 -1.969049,-0.7691 -0.0087,0 -0.02209,0 -0.03077,0 -0.647492,-0.2688 -1.28894,-0.5562 -1.9075163,-0.8615 -0.00819,0 -0.022579,0 -0.030766,0 -0.6182631,-0.3058 -1.1986931,-0.6444 -1.7844507,-0.9845 -0.006,0 -0.026072,0.01 -0.030766,0 C 7.5923785,1036.9454 7.5007504,1036.9338 7.4190199,1036.9445 Z"
             style="fill:#000000;fill-opacity:0.1952663;fill-rule:evenodd;display:inline"
             inkscape:connector-curvature="0" />
          <path
             id="path837-3"
             d="m 39.231468,1038.8828 c -0.01719,0.1181 -0.03336,0.2401 -0.06153,0.3692 -0.018,0.085 -0.03937,0.1575 -0.06153,0.2462 -0.03029,0.1205 -0.05601,0.2444 -0.0923,0.3692 -0.03363,0.1155 -0.0855,0.2216 -0.123065,0.3384 -0.09731,0.3045 -0.201124,0.6047 -0.307664,0.8922 -0.04496,0.12 -0.07951,0.2568 -0.123066,0.3692 -0.01733,0.045 -0.04466,0.08 -0.06153,0.1231 -0.0648,0.1661 -0.130541,0.3569 -0.184599,0.4922 0.04452,0.045 0.09815,0.086 0.184599,0.062 C 38.798699,1041.1259 39.300225,1039.6606 39.231468,1038.8828 Z"
             style="fill:#000000;fill-opacity:0.1952663;fill-rule:evenodd;display:inline"
             inkscape:connector-curvature="0" />
          <path
             inkscape:connector-curvature="0"
             id="path822-2"
             d="m 23.44831,1016.9253 c -1.643027,0 -3.087816,0.8263 -3.445836,2.5536 -0.07549,0.3836 -0.378467,0.7802 -0.76916,0.7999 l -4.153463,-0.4614 c -0.215972,-0.048 -0.429738,-0.1913 -0.553795,-0.4 -0.03118,0.1306 -0.06633,0.2642 -0.0923,0.4 -0.101178,0.5329 0.291163,0.8134 0.646094,0.8922 l 4.153463,0.4615 c 0.390693,-0.02 0.693667,-0.4163 0.76916,-0.7999 0.35802,-1.7274 1.802809,-2.5537 3.445836,-2.5537 0.885722,0 1.90596,0.3214 2.430544,1.1076 0.43502,0.6315 0.512463,1.4109 0.523029,2.1845 0,-1.011 0.08016,-2.2011 -0.523029,-3.0767 C 25.35427,1017.2467 24.334032,1016.9253 23.44831,1016.9253 z m 2.953573,8.1531 c -3.11404,0 -6.399409,0.6772 -6.399409,4.3073 0,0.1648 0.01556,0.3069 0.03077,0.4615 0.256893,-3.2463 3.384501,-3.8765 6.368643,-3.8765 L 26.401883,1025.0784 z m -12.675753,5.6303 c -0.0035,0.1036 -0.03077,0.202 -0.03077,0.3077 0,4.4301 2.831657,6.6455 6.460942,6.6455 3.062669,0 4.744853,-0.725 7.107036,-3.1075 0.783763,1.1234 1.030767,1.654 2.461311,2.8306 0.319889,0.1697 0.731178,0.1638 1.015291,-0.093 0.860035,-0.7569 2.442503,-2.0997 3.32277,-2.8305 0.313719,-0.254 0.266248,-0.6321 0.06153,-0.9845 -0.0249,0.028 -0.02986,0.067 -0.06153,0.092 -0.880267,0.7308 -2.462735,2.0736 -3.32277,2.8305 -0.284113,0.2561 -0.695402,0.2621 -1.015291,0.093 -1.430544,-1.1765 -1.677548,-1.7072 -2.461311,-2.8305 -2.362183,2.3824 -4.044367,3.1073 -7.107036,3.1073 C 16.692872,1036.7696 13.969052,1034.7432 13.72613,1030.7087 z m 23.536289,6.9224 c -0.56731,0.013 -1.144166,0.069 -1.661385,0.123 -0.01088,0 -0.01997,0 -0.03077,0 -0.288903,0.1294 -0.574053,0.312 -0.830693,0.4923 -0.324382,0.2296 -0.268625,0.5356 0.0923,0.4923 1.187472,-0.1432 3.836355,-0.4496 4.307295,0.1539 0.03464,0.044 0.04173,0.1215 0.06153,0.1846 0.08651,-0.4828 0.09284,-0.8797 -0.06153,-1.0769 C 38.903698,1037.6986 38.131941,1037.6121 37.262419,1037.6311 z m -29.8433991,0.2461 c -0.2451914,0.033 -0.3817824,0.3195 -0.1230655,0.5538 4.3967626,3.9695 10.2245026,6.3687 16.6753836,6.3687 4.604377,0 9.942531,-1.4331 13.629511,-4.1535 0.422204,-0.3113 0.316618,-0.7507 0,-0.8922 -3.68698,2.7205 -9.025134,4.1534 -13.629511,4.1534 -6.19785,0 -11.821391,-2.2129 -16.152355,-5.9071 -0.03965,-0.023 -0.083571,-0.038 -0.1230656,-0.061 C 7.5923785,1037.8781 7.5007504,1037.8665 7.4190199,1037.8772 z m 33.3815341,0.1231 c -0.15056,1.2911 -0.818206,3.2578 -2.184414,4.3996 -0.07603,0.064 -0.150218,0.105 -0.215364,0.1231 -0.07323,0.1877 -0.156383,0.4061 -0.215365,0.5538 -0.134504,0.3366 0.126588,0.4707 0.430729,0.2153 C 40.347345,1041.8453 40.945529,1039.0185 40.800554,1038.0003 Z"
             style="fill:#ffffff;fill-opacity:0.20118342;fill-rule:evenodd;display:inline" />
        </g>
      </g>
    </g>
    <path
       style="fill:#000000;fill-opacity:1;stroke:none"
       d="M 5.375 3.90625 C 4.2740879 3.9391966 3.6289661 5.0345716 3.78125 5.96875 C 3.903929 5.2084901 4.4916292 4.4951863 5.375 4.46875 L 42.625 4.46875 C 43.621227 4.565925 44.107733 5.1396988 44.21875 5.78125 C 44.355013 4.9368054 43.915449 4.0321244 42.625 3.90625 L 5.375 3.90625 z "
       transform="translate(0,1004.3622)"
       id="path1195" />
    <path
       style="fill:#ffffff;fill-opacity:0.29411766;stroke:none"
       d="m 44.25,1010.0479 c -0.08564,0.7962 -0.704193,1.5662 -1.625,1.5938 l -37.25,0 c -1.0581225,-0.1032 -1.557215,-0.7477 -1.625,-1.4375 -0.073462,0.8068 0.3988747,1.6304 1.625,1.75 l 37.25,0 C 43.673814,1011.9228 44.322992,1010.9491 44.25,1010.0479 Z"
       id="path1207"
       inkscape:connector-curvature="0" />
    <path
       style="color:#000000;fill:#e0c19c;fill-opacity:1;fill-rule:nonzero;stroke:none;stroke-width:0.2;marker:none;visibility:visible;display:inline;overflow:visible;enable-background:accumulate"
       d="m 1.7553301,1043.2252 0,0.9848 c 0,3.0987 2.5986028,5.5812 5.8423502,5.5812 l 32.8046387,0 c 3.243749,0 5.842351,-2.4825 5.842351,-5.5812 l 0,-0.9848 c 0,3.0987 -2.598602,5.581 -5.842351,5.581 l -32.8046387,0 C 4.3539329,1048.8062 1.7553301,1046.3239 1.7553301,1043.2252 Z"
       id="path1235"
       inkscape:connector-curvature="0"
       sodipodi:nodetypes="csssscssc" />
    <path
       inkscape:connector-curvature="0"
       style="color:#000000;fill:#000000;fill-opacity:1;fill-rule:nonzero;stroke:none;stroke-width:0.2;marker:none;visibility:visible;display:inline;overflow:visible;enable-background:accumulate"
       d="m 1.7500003,1044.1747 0,0.5625 c 0,3.2445 2.599225,5.875 5.84375,5.875 l 32.8124997,0 c 3.244525,0 5.84375,-2.6305 5.84375,-5.875 l 0,-0.5625 c 0,3.2445 -2.599225,5.875 -5.84375,5.875 l -32.8124997,0 C 4.3492253,1050.0497 1.7500003,1047.4192 1.7500003,1044.1747 Z"
       id="path6388" />
  </g>
</svg>
