<?xml version="1.0" encoding="UTF-8" standalone="no"?>
<!-- Created with Inkscape (http://www.inkscape.org/) -->

<svg
   xmlns:dc="http://purl.org/dc/elements/1.1/"
   xmlns:cc="http://creativecommons.org/ns#"
   xmlns:rdf="http://www.w3.org/1999/02/22-rdf-syntax-ns#"
   xmlns:svg="http://www.w3.org/2000/svg"
   xmlns="http://www.w3.org/2000/svg"
   xmlns:xlink="http://www.w3.org/1999/xlink"
   xmlns:sodipodi="http://sodipodi.sourceforge.net/DTD/sodipodi-0.dtd"
   xmlns:inkscape="http://www.inkscape.org/namespaces/inkscape"
   width="48"
   height="48"
   id="svg2"
   version="1.1"
   inkscape:version="0.48+devel r12106"
   sodipodi:docname="arista.svg">
  <defs
     id="defs4">
    <linearGradient
       inkscape:collect="always"
       id="linearGradient851">
      <stop
         style="stop-color:#212835;stop-opacity:1"
         offset="0"
         id="stop853" />
      <stop
         style="stop-color:#52596b;stop-opacity:1"
         offset="1"
         id="stop855" />
    </linearGradient>
    <linearGradient
       inkscape:collect="always"
       xlink:href="#linearGradient907"
       id="linearGradient913"
       x1="25.106039"
       y1="1025.9769"
       x2="25.106039"
       y2="1009.1862"
       gradientUnits="userSpaceOnUse"
       gradientTransform="matrix(0.84403018,0,0,0.95786355,3.7432744,43.646268)" />
    <linearGradient
       inkscape:collect="always"
       id="linearGradient907">
      <stop
         style="stop-color:#235fa3;stop-opacity:1"
         offset="0"
         id="stop909" />
      <stop
         style="stop-color:#3293d7;stop-opacity:1"
         offset="1"
         id="stop911" />
    </linearGradient>
    <linearGradient
       inkscape:collect="always"
       xlink:href="#linearGradient915"
       id="linearGradient905"
       gradientUnits="userSpaceOnUse"
       gradientTransform="matrix(0.548701,0,0,0.32865175,10.831176,-700.61085)"
       x1="19.930721"
       y1="-1004.0776"
       x2="19.930721"
       y2="-1052.2644" />
    <linearGradient
       id="linearGradient915"
       inkscape:collect="always">
      <stop
         id="stop917"
         offset="0"
         style="stop-color:#235fa3;stop-opacity:1" />
      <stop
         id="stop919"
         offset="1"
         style="stop-color:#2d7ec2;stop-opacity:1" />
    </linearGradient>
    <linearGradient
       inkscape:collect="always"
       xlink:href="#linearGradient923"
       id="linearGradient929"
       x1="19.6759"
       y1="30.263226"
       x2="19.6759"
       y2="7.6220903"
       gradientUnits="userSpaceOnUse" />
    <linearGradient
       inkscape:collect="always"
       id="linearGradient923">
      <stop
         style="stop-color:#87b5e0;stop-opacity:1"
         offset="0"
         id="stop925" />
      <stop
         style="stop-color:#f3f8fc;stop-opacity:1"
         offset="1"
         id="stop927" />
    </linearGradient>
    <linearGradient
       inkscape:collect="always"
       xlink:href="#linearGradient851"
       id="linearGradient909"
       x1="23.476585"
       y1="1050.3505"
       x2="23.476585"
       y2="1006.3788"
       gradientUnits="userSpaceOnUse" />
  </defs>
  <sodipodi:namedview
     id="base"
     pagecolor="#ffffff"
     bordercolor="#666666"
     borderopacity="1.0"
     inkscape:pageopacity="0.0"
     inkscape:pageshadow="2"
     inkscape:zoom="5.6568543"
     inkscape:cx="-16.159963"
     inkscape:cy="3.6138099"
     inkscape:document-units="px"
     inkscape:current-layer="layer1"
     showgrid="false"
     inkscape:window-width="1366"
     inkscape:window-height="718"
     inkscape:window-x="0"
     inkscape:window-y="28"
     inkscape:window-maximized="1"
     showguides="true"
     inkscape:guide-bbox="true">
    <inkscape:grid
       type="xygrid"
       id="grid3850" />
  </sodipodi:namedview>
  <metadata
     id="metadata7">
    <rdf:RDF>
      <cc:Work
         rdf:about="">
        <dc:format>image/svg+xml</dc:format>
        <dc:type
           rdf:resource="http://purl.org/dc/dcmitype/StillImage" />
        <dc:title />
      </cc:Work>
    </rdf:RDF>
  </metadata>
  <g
     inkscape:label="Capa 1"
     inkscape:groupmode="layer"
     id="layer1"
     transform="translate(0,-1004.3622)">
    <rect
       style="color:#000000;fill:#333333;fill-opacity:1;fill-rule:nonzero;stroke:none;stroke-width:0.2;marker:none;visibility:visible;display:inline;overflow:visible;enable-background:accumulate"
       id="rect6294"
       width="45.5"
       height="45.5"
       x="1.25"
       y="1005.6122"
       ry="6.3565426" />
    <rect
       ry="5.8565426"
       y="1006.1122"
       x="1.75"
       height="44.5"
       width="44.5"
       id="rect6296"
       style="color:#000000;fill:url(#linearGradient909);fill-opacity:1;fill-rule:nonzero;stroke:none;stroke-width:0.2;marker:none;visibility:visible;display:inline;overflow:visible;enable-background:accumulate" />
    <path
       id="path6361"
       d="m 1.75,1012.5497 0,-0.5625 c 0,-3.2445 2.599225,-5.875 5.84375,-5.875 l 32.8125,0 c 3.244525,0 5.84375,2.6305 5.84375,5.875 l 0,0.5625 c 0,-3.2445 -2.599225,-5.875 -5.84375,-5.875 l -32.8125,0 C 4.349225,1006.6747 1.75,1009.3052 1.75,1012.5497 Z"
       style="color:#000000;fill:#ffffff;fill-opacity:1;fill-rule:nonzero;stroke:none;stroke-width:0.2;marker:none;visibility:visible;display:inline;overflow:visible;enable-background:accumulate"
       inkscape:connector-curvature="0" />
    <path
       inkscape:connector-curvature="0"
       style="color:#000000;fill:#000000;fill-opacity:1;fill-rule:nonzero;stroke:none;stroke-width:0.2;marker:none;visibility:visible;display:inline;overflow:visible;enable-background:accumulate"
       d="m 1.75,1044.1747 0,0.5625 c 0,3.2445 2.599225,5.875 5.84375,5.875 l 32.8125,0 c 3.244525,0 5.84375,-2.6305 5.84375,-5.875 l 0,-0.5625 c 0,3.2445 -2.599225,5.875 -5.84375,5.875 l -32.8125,0 C 4.349225,1050.0497 1.75,1047.4192 1.75,1044.1747 Z"
       id="path6388" />
    <rect
       ry="0.63906616"
       y="1010.2531"
       x="10.831176"
       height="15.775"
       width="26.337648"
       id="rect859"
       style="fill:url(#linearGradient913);fill-opacity:1;stroke:none" />
    <path
       id="path974"
       d="m 11.392298,1010.2531 c -0.311968,0 -0.553895,0.2684 -0.553895,0.5804 l 0,0.4746 c 0,-0.312 0.241927,-0.5801 0.553895,-0.5801 l 25.2154,0 c 0.311969,0 0.553896,0.2681 0.553896,0.5801 l 0,-0.4746 c 0,-0.312 -0.241927,-0.5804 -0.553896,-0.5804 L 11.392298,1010.2531 Z"
       style="fill:#000000;fill-opacity:0.50295859;stroke:none"
       inkscape:connector-curvature="0" />
    <path
       inkscape:connector-curvature="0"
       id="path976"
       d="m 10.838403,1024.9731 0,0.4746 c 0,0.312 0.241927,0.5804 0.553895,0.5804 l 25.2154,0 c 0.311969,0 0.553896,-0.2684 0.553896,-0.5804 l 0,-0.4746 c 0,0.3118 -0.241927,0.5537 -0.553896,0.5537 l -25.2154,0 C 11.08033,1025.5268 10.838403,1025.2849 10.838403,1024.9731 Z"
       style="fill:#ffffff;fill-opacity:0.17159765;stroke:none" />
    <rect
       style="fill:url(#linearGradient905);fill-opacity:1;stroke:none"
       id="rect903"
       width="26.337648"
       height="15.775285"
       x="10.831176"
       y="-1046.4717"
       ry="0.63907766"
       transform="scale(1,-1)" />
    <path
       inkscape:connector-curvature="0"
       style="fill:#000000;fill-opacity:0.50295859;stroke:none"
       d="m 11.392298,1030.6831 c -0.311968,0 -0.553895,0.2684 -0.553895,0.5804 l 0,0.4747 c 0,-0.3118 0.241927,-0.5802 0.553895,-0.5802 l 25.2154,0 c 0.311969,0 0.553896,0.2684 0.553896,0.5802 l 0,-0.4747 c 0,-0.312 -0.241927,-0.5804 -0.553896,-0.5804 L 11.392298,1030.6831 Z"
       id="rect969" />
    <path
       inkscape:transform-center-x="-2.4926167"
       transform="matrix(0.77449017,0,0,0.84403018,5.4069406,1012.8904)"
       d="M 33.662026,18.896185 14.351648,30.045037 14.351648,7.7473327 Z"
       inkscape:randomized="0"
       inkscape:rounded="0"
       inkscape:flatsided="true"
       sodipodi:arg2="1.0471976"
       sodipodi:arg1="0"
       sodipodi:r2="6.4367933"
       sodipodi:r1="12.873586"
       sodipodi:cy="18.896185"
       sodipodi:cx="20.788441"
       sodipodi:sides="3"
       id="path944"
       style="color:#000000;fill:#000000;fill-opacity:0.29411765;fill-rule:nonzero;stroke:none;stroke-width:0.2;marker:none;visibility:visible;display:inline;overflow:visible;enable-background:accumulate"
       sodipodi:type="star"
       inkscape:transform-center-y="-9.5845347e-05" />
    <path
       sodipodi:type="star"
       style="color:#000000;fill:url(#linearGradient929);fill-opacity:1;fill-rule:nonzero;stroke:none;stroke-width:0.2;marker:none;visibility:visible;display:inline;overflow:visible;enable-background:accumulate"
       id="path921"
       sodipodi:sides="3"
       sodipodi:cx="20.788441"
       sodipodi:cy="18.896185"
       sodipodi:r1="12.873586"
       sodipodi:r2="6.4367933"
       sodipodi:arg1="0"
       sodipodi:arg2="1.0471976"
       inkscape:flatsided="true"
       inkscape:rounded="0"
       inkscape:randomized="0"
       d="M 33.662026,18.896185 14.351648,30.045037 14.351648,7.7473327 Z"
       transform="matrix(0.77449017,0,0,0.84403018,5.4069406,1011.9361)"
       inkscape:transform-center-x="-2.4926166"
       inkscape:transform-center-y="-5.0925597e-05" />
    <path
       style="fill:#ffffff;fill-opacity:0.17159765;stroke:none"
       d="m 10.838403,1045.4167 0,0.4747 c 0,0.3119 0.241927,0.5803 0.553895,0.5803 l 25.2154,0 c 0.311969,0 0.553896,-0.2684 0.553896,-0.5803 l 0,-0.4747 c 0,0.312 -0.241927,0.554 -0.553896,0.554 l -25.2154,0 C 11.08033,1045.9707 10.838403,1045.7287 10.838403,1045.4167 Z"
       id="rect964"
       inkscape:connector-curvature="0" />
    <path
       id="path911"
       d="m 5.0234373,1009.1397 2.953125,0 c 0.3058284,0 0.5468752,0.2409 0.5468752,0.5467 l 0,2.9532 c 0,0.3057 -0.2410468,0.5469 -0.5468752,0.5469 l -2.953125,0 c -0.3058274,0 -0.5468749,-0.2412 -0.5468749,-0.5469 l 0,-2.9532 C 4.4765624,1009.3806 4.7176099,1009.1397 5.0234373,1009.1397 z m 35.0000007,0 2.953125,0 c 0.305829,0 0.546875,0.2409 0.546875,0.5467 l 0,2.9532 c 0,0.3057 -0.241046,0.5469 -0.546875,0.5469 l -2.953125,0 c -0.305829,0 -0.546874,-0.2412 -0.546874,-0.5469 l 0,-2.9532 C 39.476564,1009.3806 39.717609,1009.1397 40.023438,1009.1397 z m -35.0000007,6.8904 2.953125,0 c 0.3058284,0 0.5468752,0.2412 0.5468752,0.547 l 0,2.9258 c 0,0.3057 -0.2410468,0.5467 -0.5468752,0.5467 l -2.953125,0 c -0.3058274,0 -0.5468749,-0.241 -0.5468749,-0.5467 l 0,-2.9258 C 4.4765624,1016.2713 4.7176099,1016.0301 5.0234373,1016.0301 z m 35.0000007,0 2.953125,0 c 0.305829,0 0.546875,0.2412 0.546875,0.547 l 0,2.9258 c 0,0.3057 -0.241046,0.5467 -0.546875,0.5467 l -2.953125,0 c -0.305829,0 -0.546874,-0.241 -0.546874,-0.5467 l 0,-2.9258 C 39.476564,1016.2713 39.717609,1016.0301 40.023438,1016.0301 z m -35.0000007,6.8633 2.953125,0 c 0.3058284,0 0.5468752,0.2682 0.5468752,0.5744 l 0,2.9256 c 0,0.3059 -0.2410468,0.5469 -0.5468752,0.5469 l -2.953125,0 c -0.3058274,0 -0.5468749,-0.241 -0.5468749,-0.5469 l 0,-2.9256 C 4.4765624,1023.1617 4.7176099,1022.8934 5.0234373,1022.8934 z m 35.0000007,0 2.953125,0 c 0.305829,0 0.546875,0.2682 0.546875,0.5744 l 0,2.9256 c 0,0.3059 -0.241046,0.5469 -0.546875,0.5469 l -2.953125,0 c -0.305829,0 -0.546874,-0.241 -0.546874,-0.5469 l 0,-2.9256 C 39.476564,1023.1617 39.717609,1022.8934 40.023438,1022.8934 z m -35.0000007,6.8907 2.953125,0 c 0.3058284,0 0.5468752,0.241 0.5468752,0.5469 l 0,2.9257 c 0,0.306 -0.2410468,0.5743 -0.5468752,0.5743 l -2.953125,0 c -0.3058274,0 -0.5468749,-0.2683 -0.5468749,-0.5743 l 0,-2.9257 C 4.4765624,1030.0251 4.7176099,1029.7841 5.0234373,1029.7841 z m 35.0000007,0 2.953125,0 c 0.305829,0 0.546875,0.241 0.546875,0.5469 l 0,2.9257 c 0,0.306 -0.241046,0.5743 -0.546875,0.5743 l -2.953125,0 c -0.305829,0 -0.546874,-0.2683 -0.546874,-0.5743 l 0,-2.9257 C 39.476564,1030.0251 39.717609,1029.7841 40.023438,1029.7841 z m -35.0000007,6.8907 2.953125,0 c 0.3058284,0 0.5468752,0.2409 0.5468752,0.5467 l 0,2.9259 c 0,0.3056 -0.2410468,0.547 -0.5468752,0.547 l -2.953125,0 c -0.3058274,0 -0.5468749,-0.2413 -0.5468749,-0.547 l 0,-2.9259 C 4.4765624,1036.9158 4.7176099,1036.6748 5.0234373,1036.6748 z m 35.0000007,0 2.953125,0 c 0.305829,0 0.546875,0.2409 0.546875,0.5467 l 0,2.9259 c 0,0.3056 -0.241046,0.547 -0.546875,0.547 l -2.953125,0 c -0.305829,0 -0.546874,-0.2413 -0.546874,-0.547 l 0,-2.9259 C 39.476564,1036.9158 39.717609,1036.6748 40.023438,1036.6748 z m -35.0000007,6.8631 2.953125,0 c 0.3058284,0 0.5468752,0.2411 0.5468752,0.547 l 0,2.9531 c 0,0.3057 -0.2410468,0.5468 -0.5468752,0.5468 l -2.953125,0 c -0.3058274,0 -0.5468749,-0.241 -0.5468749,-0.5468 l 0,-2.9531 C 4.4765624,1043.7791 4.7176099,1043.5379 5.0234373,1043.5379 z m 35.0000007,0 2.953125,0 c 0.305829,0 0.546875,0.2411 0.546875,0.547 l 0,2.9531 c 0,0.3057 -0.241046,0.5468 -0.546875,0.5468 l -2.953125,0 c -0.305829,0 -0.546874,-0.241 -0.546874,-0.5468 l 0,-2.9531 C 39.476564,1043.7791 39.717609,1043.5379 40.023438,1043.5379 Z"
       style="fill:#ffffff;fill-opacity:1;stroke:none"
       inkscape:connector-curvature="0"
       sodipodi:nodetypes="ssssssssssssssssssssssssssssssssssssssssssssssssssssssssssssssssssssssssssssssssssssssssssssssssssssssssssss" />
    <path
       id="path916"
       d="m 4.4762676,1012.6292 0,0.1368 0,0.082 0,0.1368 c 0,0.3056 0.241051,0.5469 0.5468834,0.5469 l 2.9531694,0 c 0.3058329,0 0.5468832,-0.2413 0.5468832,-0.5469 l 0,-0.1368 0,-0.082 0,-0.1368 c 0,0.3059 -0.2410503,0.5469 -0.5468832,0.5469 l -2.9531694,0 C 4.7173187,1013.1761 4.4762676,1012.9351 4.4762676,1012.6292 z m 35.0005274,0 0,0.1368 0,0.082 0,0.1368 c 0,0.3056 0.241051,0.5469 0.546884,0.5469 l 2.953169,0 c 0.305836,0 0.546885,-0.2413 0.546885,-0.5469 l 0,-0.1368 0,-0.082 0,-0.1368 c 0,0.3059 -0.241049,0.5469 -0.546885,0.5469 l -2.953169,0 C 39.717846,1013.1761 39.476795,1012.9351 39.476795,1012.6292 z m -35.0005276,6.8635 0,0.1366 0,0.082 0,0.1367 c 0,0.306 0.2410511,0.5471 0.5468834,0.5471 l 2.9531694,0 c 0.305833,0 0.5468833,-0.2411 0.5468833,-0.5471 l 0,-0.1367 0,-0.082 0,-0.1366 c 0,0.3059 -0.2410503,0.5469 -0.5468832,0.5469 l -2.9531694,0 C 4.7173187,1020.0396 4.4762676,1019.7986 4.4762676,1019.4927 z m 35.0005276,0 0,0.1366 0,0.082 0,0.1367 c 0,0.306 0.241051,0.5471 0.546884,0.5471 l 2.953169,0 c 0.305836,0 0.546885,-0.2411 0.546885,-0.5471 l 0,-0.1367 0,-0.082 0,-0.1366 c 0,0.3059 -0.241049,0.5469 -0.546885,0.5469 l -2.953169,0 C 39.717846,1020.0396 39.476795,1019.7986 39.476795,1019.4927 z m -35.0005276,6.8909 0,0.1366 0,0.082 0,0.1366 c 0,0.3061 0.2410511,0.5471 0.5468834,0.5471 l 2.9531694,0 c 0.305833,0 0.5468833,-0.241 0.5468833,-0.5471 l 0,-0.1366 0,-0.082 0,-0.1366 c 0,0.3057 -0.2410503,0.5466 -0.5468832,0.5466 l -2.9531694,0 C 4.7173187,1026.9302 4.4762676,1026.6893 4.4762676,1026.3836 z m 35.0005276,0 0,0.1366 0,0.082 0,0.1366 c 0,0.3061 0.241051,0.5471 0.546884,0.5471 l 2.953169,0 c 0.305836,0 0.546885,-0.241 0.546885,-0.5471 l 0,-0.1366 0,-0.082 0,-0.1366 c 0,0.3057 -0.241049,0.5466 -0.546885,0.5466 l -2.953169,0 C 39.717846,1026.9302 39.476795,1026.6893 39.476795,1026.3836 z m -35.0005276,6.8632 0,0.1366 0,0.082 0,0.1367 c 0,0.3057 0.2410511,0.5741 0.5468834,0.5741 l 2.9531694,0 c 0.305833,0 0.5468833,-0.2684 0.5468833,-0.5741 l 0,-0.1367 0,-0.082 0,-0.1366 c 0,0.306 -0.2410503,0.5743 -0.5468832,0.5743 l -2.9531694,0 C 4.7173187,1033.8211 4.4762676,1033.5528 4.4762676,1033.2468 z m 35.0005276,0 0,0.1366 0,0.082 0,0.1367 c 0,0.3057 0.241051,0.5741 0.546884,0.5741 l 2.953169,0 c 0.305836,0 0.546885,-0.2684 0.546885,-0.5741 l 0,-0.1367 0,-0.082 0,-0.1366 c 0,0.306 -0.241049,0.5743 -0.546885,0.5743 l -2.953169,0 C 39.717846,1033.8211 39.476795,1033.5528 39.476795,1033.2468 z m -35.0005276,6.8908 0,0.1366 0,0.082 0,0.1368 c 0,0.3058 0.2410511,0.5468 0.5468834,0.5468 l 2.9531694,0 c 0.305833,0 0.5468833,-0.241 0.5468833,-0.5468 l 0,-0.1368 0,-0.082 0,-0.1366 c 0,0.3059 -0.2410503,0.5469 -0.5468832,0.5469 l -2.9531694,0 C 4.7173187,1040.6845 4.4762676,1040.4435 4.4762676,1040.1376 z m 35.0005276,0 0,0.1366 0,0.082 0,0.1368 c 0,0.3058 0.241051,0.5468 0.546884,0.5468 l 2.953169,0 c 0.305836,0 0.546885,-0.241 0.546885,-0.5468 l 0,-0.1368 0,-0.082 0,-0.1366 c 0,0.3059 -0.241049,0.5469 -0.546885,0.5469 l -2.953169,0 C 39.717846,1040.6845 39.476795,1040.4435 39.476795,1040.1376 z m -35.0005276,6.8905 0,0.1368 0,0.083 0,0.1366 c 0,0.3058 0.2410511,0.5469 0.5468834,0.5469 l 2.9531694,0 c 0.305833,0 0.5468833,-0.2411 0.5468833,-0.5469 l 0,-0.1366 0,-0.083 0,-0.1368 c 0,0.306 -0.2410503,0.5471 -0.5468832,0.5471 l -2.9531694,0 C 4.7173187,1047.5752 4.4762676,1047.3341 4.4762676,1047.0281 z m 35.0005276,0 0,0.1368 0,0.083 0,0.1366 c 0,0.3058 0.241051,0.5469 0.546884,0.5469 l 2.953169,0 c 0.305836,0 0.546885,-0.2411 0.546885,-0.5469 l 0,-0.1366 0,-0.083 0,-0.1368 c 0,0.306 -0.241049,0.5471 -0.546885,0.5471 l -2.953169,0 C 39.717846,1047.5752 39.476795,1047.3341 39.476795,1047.0281 Z"
       style="color:#000000;fill:#ffffff;fill-opacity:0.52662725;fill-rule:nonzero;stroke:none;stroke-width:0.2;marker:none;visibility:visible;display:inline;overflow:visible;enable-background:accumulate"
       inkscape:connector-curvature="0" />
    <path
       id="path918"
       d="m 5.0231509,1008.7465 c -0.3058322,0 -0.5468834,0.2411 -0.5468834,0.5467 l 0,0.1641 0,0.053 0,0.1642 c 0,-0.3059 0.2410511,-0.547 0.5468834,-0.547 l 2.9531694,0 c 0.305833,0 0.5468833,0.2411 0.5468833,0.547 l 0,-0.1642 0,-0.053 0,-0.1641 c 0,-0.3056 -0.2410503,-0.5467 -0.5468833,-0.5467 L 5.0231509,1008.7465 z m 35.0005281,0 c -0.305833,0 -0.546884,0.2411 -0.546884,0.5467 l 0,0.1641 0,0.053 0,0.1642 c 0,-0.3059 0.241051,-0.547 0.546884,-0.547 l 2.953169,0 c 0.305836,0 0.546885,0.2411 0.546885,0.547 l 0,-0.1642 0,-0.053 0,-0.1641 c 0,-0.3056 -0.241049,-0.5467 -0.546885,-0.5467 L 40.023679,1008.7465 z m -35.0005282,6.8907 c -0.3058323,0 -0.5468834,0.2409 -0.5468834,0.5468 l 0,0.1642 0,0.053 0,0.1642 c 0,-0.306 0.2410511,-0.5468 0.5468834,-0.5468 l 2.9531694,0 c 0.3058329,0 0.5468832,0.2408 0.5468832,0.5468 l 0,-0.1642 0,-0.053 0,-0.1642 c 0,-0.3059 -0.2410503,-0.5468 -0.5468832,-0.5468 L 5.0231509,1015.6372 z m 35.0005282,0 c -0.305833,0 -0.546884,0.2409 -0.546884,0.5468 l 0,0.1642 0,0.053 0,0.1642 c 0,-0.306 0.241051,-0.5468 0.546884,-0.5468 l 2.953169,0 c 0.305836,0 0.546885,0.2408 0.546885,0.5468 l 0,-0.1642 0,-0.053 0,-0.1642 c 0,-0.3059 -0.241049,-0.5468 -0.546885,-0.5468 L 40.023679,1015.6372 z m -35.0005282,6.8634 c -0.3058323,0 -0.5468834,0.2684 -0.5468834,0.5742 l 0,0.164 0,0.053 0,0.1644 c 0,-0.306 0.2410511,-0.5744 0.5468834,-0.5744 l 2.9531694,0 c 0.3058329,0 0.5468832,0.2684 0.5468832,0.5744 l 0,-0.1644 0,-0.053 0,-0.164 c 0,-0.3058 -0.2410503,-0.5742 -0.5468832,-0.5742 L 5.0231509,1022.5006 z m 35.0005282,0 c -0.305833,0 -0.546884,0.2684 -0.546884,0.5742 l 0,0.164 0,0.053 0,0.1644 c 0,-0.306 0.241051,-0.5744 0.546884,-0.5744 l 2.953169,0 c 0.305836,0 0.546885,0.2684 0.546885,0.5744 l 0,-0.1644 0,-0.053 0,-0.164 c 0,-0.3058 -0.241049,-0.5742 -0.546885,-0.5742 L 40.023679,1022.5006 z m -35.0005282,6.8908 c -0.3058323,0 -0.5468834,0.2409 -0.5468834,0.5467 l 0,0.1641 0,0.054 0,0.1641 c 0,-0.3059 0.2410511,-0.5467 0.5468834,-0.5467 l 2.9531694,0 c 0.3058329,0 0.5468832,0.2408 0.5468832,0.5467 l 0,-0.1641 0,-0.054 0,-0.1641 c 0,-0.3058 -0.2410503,-0.5467 -0.5468832,-0.5467 L 5.0231509,1029.3914 z m 35.0005282,0 c -0.305833,0 -0.546884,0.2409 -0.546884,0.5467 l 0,0.1641 0,0.054 0,0.1641 c 0,-0.3059 0.241051,-0.5467 0.546884,-0.5467 l 2.953169,0 c 0.305836,0 0.546885,0.2408 0.546885,0.5467 l 0,-0.1641 0,-0.054 0,-0.1641 c 0,-0.3058 -0.241049,-0.5467 -0.546885,-0.5467 L 40.023679,1029.3914 z m -35.0005282,6.8905 c -0.3058323,0 -0.5468834,0.2412 -0.5468834,0.5472 l 0,0.1638 0,0.053 0,0.1642 c 0,-0.306 0.2410511,-0.5469 0.5468834,-0.5469 l 2.9531694,0 c 0.3058329,0 0.5468832,0.2409 0.5468832,0.5469 l 0,-0.1642 0,-0.053 0,-0.1638 c 0,-0.306 -0.2410503,-0.5472 -0.5468832,-0.5472 L 5.0231509,1036.2819 z m 35.0005282,0 c -0.305833,0 -0.546884,0.2412 -0.546884,0.5472 l 0,0.1638 0,0.053 0,0.1642 c 0,-0.306 0.241051,-0.5469 0.546884,-0.5469 l 2.953169,0 c 0.305836,0 0.546885,0.2409 0.546885,0.5469 l 0,-0.1642 0,-0.053 0,-0.1638 c 0,-0.306 -0.241049,-0.5472 -0.546885,-0.5472 L 40.023679,1036.2819 z m -35.0005282,6.8634 c -0.3058323,0 -0.5468834,0.241 -0.5468834,0.5469 l 0,0.1642 0,0.053 0,0.1641 c 0,-0.3058 0.2410511,-0.5468 0.5468834,-0.5468 l 2.9531694,0 c 0.3058329,0 0.5468832,0.241 0.5468832,0.5468 l 0,-0.1641 0,-0.053 0,-0.1642 c 0,-0.3059 -0.2410503,-0.5469 -0.5468832,-0.5469 L 5.0231509,1043.1453 z m 35.0005282,0 c -0.305833,0 -0.546884,0.241 -0.546884,0.5469 l 0,0.1642 0,0.053 0,0.1641 c 0,-0.3058 0.241051,-0.5468 0.546884,-0.5468 l 2.953169,0 c 0.305836,0 0.546885,0.241 0.546885,0.5468 l 0,-0.1641 0,-0.053 0,-0.1642 c 0,-0.3059 -0.241049,-0.5469 -0.546885,-0.5469 L 40.023679,1043.1453 Z"
       style="color:#000000;fill:#000000;fill-opacity:0.6449704;fill-rule:nonzero;stroke:none;stroke-width:0.2;marker:none;visibility:visible;display:inline;overflow:visible;enable-background:accumulate"
       inkscape:connector-curvature="0" />
  </g>
</svg>
