<?xml version="1.0" encoding="UTF-8" standalone="no"?>
<!-- Created with Inkscape (http://www.inkscape.org/) -->

<svg
   xmlns:dc="http://purl.org/dc/elements/1.1/"
   xmlns:cc="http://creativecommons.org/ns#"
   xmlns:rdf="http://www.w3.org/1999/02/22-rdf-syntax-ns#"
   xmlns:svg="http://www.w3.org/2000/svg"
   xmlns="http://www.w3.org/2000/svg"
   xmlns:xlink="http://www.w3.org/1999/xlink"
   xmlns:sodipodi="http://sodipodi.sourceforge.net/DTD/sodipodi-0.dtd"
   xmlns:inkscape="http://www.inkscape.org/namespaces/inkscape"
   width="48"
   height="48"
   id="svg2"
   version="1.1"
   inkscape:version="0.48+devel r12149"
   sodipodi:docname="qtassistant.svg">
  <defs
     id="defs4">
    <linearGradient
       inkscape:collect="always"
       id="linearGradient1264">
      <stop
         style="stop-color:#222b32;stop-opacity:1"
         offset="0"
         id="stop1266" />
      <stop
         style="stop-color:#313a41;stop-opacity:1"
         offset="1"
         id="stop1268" />
    </linearGradient>
    <linearGradient
       inkscape:collect="always"
       xlink:href="#linearGradient1292"
       id="linearGradient1298"
       x1="34.5"
       y1="-0.37499988"
       x2="34.5"
       y2="28.75"
       gradientUnits="userSpaceOnUse" />
    <linearGradient
       inkscape:collect="always"
       id="linearGradient1292">
      <stop
         style="stop-color:#000000;stop-opacity:1;"
         offset="0"
         id="stop1294" />
      <stop
         style="stop-color:#000000;stop-opacity:0;"
         offset="1"
         id="stop1296" />
    </linearGradient>
    <linearGradient
       inkscape:collect="always"
       xlink:href="#linearGradient1264"
       id="linearGradient1327"
       gradientUnits="userSpaceOnUse"
       x1="35.5"
       y1="39.166668"
       x2="35.5"
       y2="7.5" />
    <linearGradient
       inkscape:collect="always"
       xlink:href="#linearGradient1264"
       id="linearGradient935"
       x1="19.106236"
       y1="1063.6313"
       x2="19.106236"
       y2="1016.8488"
       gradientUnits="userSpaceOnUse" />
  </defs>
  <sodipodi:namedview
     id="base"
     pagecolor="#ffffff"
     bordercolor="#666666"
     borderopacity="1.0"
     inkscape:pageopacity="0.0"
     inkscape:pageshadow="2"
     inkscape:zoom="4.3538464"
     inkscape:cx="-1.5169052"
     inkscape:cy="32.123812"
     inkscape:document-units="px"
     inkscape:current-layer="text1406"
     showgrid="false"
     inkscape:window-width="1366"
     inkscape:window-height="716"
     inkscape:window-x="0"
     inkscape:window-y="28"
     inkscape:window-maximized="1"
     showguides="true"
     inkscape:guide-bbox="true">
    <inkscape:grid
       type="xygrid"
       id="grid3850" />
  </sodipodi:namedview>
  <metadata
     id="metadata7">
    <rdf:RDF>
      <cc:Work
         rdf:about="">
        <dc:format>image/svg+xml</dc:format>
        <dc:type
           rdf:resource="http://purl.org/dc/dcmitype/StillImage" />
        <dc:title />
      </cc:Work>
    </rdf:RDF>
  </metadata>
  <g
     inkscape:label="Capa 1"
     inkscape:groupmode="layer"
     id="layer1"
     transform="translate(0,-1004.3622)">
    <g
       id="text1406"
       style="font-size:25px;font-style:normal;font-variant:normal;font-weight:bold;font-stretch:normal;line-height:125%;letter-spacing:0px;word-spacing:0px;fill:#ffffff;fill-opacity:1;stroke:none;font-family:Impact;-inkscape-font-specification:Impact Bold"
       transform="matrix(0.95,0,0,0.95,8.2625021,40.189807)">
      <rect
         style="color:#000000;fill:#333333;fill-opacity:1;fill-rule:nonzero;stroke:none;stroke-width:0.2;marker:none;visibility:visible;display:inline;overflow:visible;enable-background:accumulate"
         id="rect6294"
         width="47.894737"
         height="47.894737"
         x="-7.3815813"
         y="1016.2341"
         ry="6.6910973" />
      <rect
         ry="6.1647816"
         y="1016.7603"
         x="-6.8552656"
         height="46.842106"
         width="46.842106"
         id="rect6296"
         style="color:#000000;fill:url(#linearGradient935);fill-opacity:1;fill-rule:nonzero;stroke:none;stroke-width:0.2;marker:none;visibility:visible;display:inline;overflow:visible;enable-background:accumulate" />
      <path
         id="path6361"
         d="m -6.8552657,1023.5369 0,-0.5921 c 0,-3.4153 2.7360262,-6.1843 6.15131565,-6.1843 l 34.53947505,0 c 3.415289,0 6.151315,2.769 6.151315,6.1843 l 0,0.5921 c 0,-3.4153 -2.736026,-6.1843 -6.151315,-6.1843 l -34.53947505,0 C -4.1192395,1017.3526 -6.8552657,1020.1216 -6.8552657,1023.5369 Z"
         style="color:#000000;fill:#ffffff;fill-opacity:1;fill-rule:nonzero;stroke:none;stroke-width:0.2;marker:none;visibility:visible;display:inline;overflow:visible;enable-background:accumulate"
         inkscape:connector-curvature="0" />
      <path
         inkscape:connector-curvature="0"
         style="color:#000000;fill:#000000;fill-opacity:1;fill-rule:nonzero;stroke:none;stroke-width:0.2;marker:none;visibility:visible;display:inline;overflow:visible;enable-background:accumulate"
         d="m -6.8552657,1056.8263 0,0.5921 c 0,3.4153 2.7360262,6.1842 6.15131565,6.1842 l 34.53947505,0 c 3.415289,0 6.151315,-2.7689 6.151315,-6.1842 l 0,-0.5921 c 0,3.4153 -2.736026,6.1842 -6.151315,6.1842 l -34.53947505,0 C -4.1192395,1063.0105 -6.8552657,1060.2416 -6.8552657,1056.8263 Z"
         id="path6388" />
      <g
         id="g1432"
         transform="matrix(0.98684222,0,0,0.98684222,-6.8821566,24.870547)">
        <path
           transform="matrix(0.98503668,0,0,0.98503668,-9.7306689,1005.953)"
           d="M 50,23 C 50,31.836556 42.836556,39 34,39 25.163444,39 18,31.836556 18,23 18,14.163444 25.163444,7 34,7 42.836556,7 50,14.163444 50,23 Z"
           sodipodi:ry="16"
           sodipodi:rx="16"
           sodipodi:cy="23"
           sodipodi:cx="34"
           id="path1272"
           style="fill:url(#linearGradient1298);fill-opacity:1;stroke:none"
           sodipodi:type="arc" />
        <path
           inkscape:connector-curvature="0"
           id="path1274"
           d="m 23.760578,1012.8483 c -8.704332,0 -15.7605867,7.0563 -15.7605867,15.7606 0,0.063 -7.271e-4,0.1223 0,0.1847 0.114804,-8.6055 7.1278767,-15.5451 15.7605867,-15.5451 8.63271,0 15.645783,6.9396 15.760587,15.5451 7.27e-4,-0.062 0,-0.1221 0,-0.1847 C 39.521165,1019.9046 32.46491,1012.8483 23.760578,1012.8483 Z"
           style="fill:#000000;fill-opacity:1;stroke:none" />
        <path
           inkscape:connector-curvature="0"
           id="path1279"
           d="m 7.9999913,1028.3626 c -0.00129,0.083 0,0.1629 0,0.2463 0,8.7043 7.0562547,15.7606 15.7605867,15.7606 8.704332,0 15.760587,-7.0563 15.760587,-15.7606 0,-0.083 0.0013,-0.1632 0,-0.2463 -0.13099,8.5913 -7.138109,15.5144 -15.760587,15.5144 C 15.1381,1043.877 8.1309812,1036.9539 7.9999913,1028.3626 Z"
           style="fill:#ffffff;fill-opacity:0.11764706;stroke:none" />
        <path
           inkscape:connector-curvature="0"
           style="fill:#000000;fill-opacity:0.23570694;stroke:none"
           d="m 23.760578,1013.2484 c -8.704332,0 -15.7605867,7.0563 -15.7605867,15.7606 0,0.063 -7.271e-4,0.1224 0,0.1847 0.114804,-8.6054 7.1278767,-15.5451 15.7605867,-15.5451 8.63271,0 15.645783,6.9397 15.760587,15.5451 7.27e-4,-0.062 0,-0.122 0,-0.1847 C 39.521165,1020.3047 32.46491,1013.2484 23.760578,1013.2484 Z"
           id="path1313" />
        <path
           id="path1315"
           d="m 23.760578,1013.637 c -8.704332,0 -15.7605867,7.0563 -15.7605867,15.7606 0,0.063 -7.271e-4,0.1223 0,0.1847 0.114804,-8.6054 7.1278767,-15.5451 15.7605867,-15.5451 8.63271,0 15.645783,6.9397 15.760587,15.5451 7.27e-4,-0.062 0,-0.122 0,-0.1847 C 39.521165,1020.6933 32.46491,1013.637 23.760578,1013.637 Z"
           style="fill:#000000;fill-opacity:0.23570694;stroke:none"
           inkscape:connector-curvature="0" />
        <path
           inkscape:connector-curvature="0"
           style="fill:#000000;fill-opacity:0.11906008;stroke:none"
           d="m 23.760578,1014.0295 c -8.704332,0 -15.7605867,7.0563 -15.7605867,15.7605 0,0.063 -7.271e-4,0.1224 0,0.1847 0.114804,-8.6053 7.1278767,-15.545 15.7605867,-15.545 8.63271,0 15.645783,6.9397 15.760587,15.545 7.27e-4,-0.062 0,-0.122 0,-0.1847 C 39.521165,1021.0858 32.46491,1014.0295 23.760578,1014.0295 Z"
           id="path1317" />
        <path
           id="path1319"
           d="m 23.760578,1014.4219 c -8.704332,0 -15.7605867,7.0563 -15.7605867,15.7606 0,0.063 -7.271e-4,0.1223 0,0.1847 0.114804,-8.6054 7.1278767,-15.5451 15.7605867,-15.5451 8.63271,0 15.645783,6.9397 15.760587,15.5451 7.27e-4,-0.062 0,-0.1221 0,-0.1847 C 39.521165,1021.4782 32.46491,1014.4219 23.760578,1014.4219 Z"
           style="fill:#000000;fill-opacity:0.05718821;stroke:none"
           inkscape:connector-curvature="0" />
        <path
           inkscape:connector-curvature="0"
           style="fill:#000000;fill-opacity:0.02745098;stroke:none"
           d="m 23.760578,1014.8183 c -8.704332,0 -15.7605867,7.0563 -15.7605867,15.7606 0,0.063 -7.271e-4,0.1223 0,0.1847 0.114804,-8.6054 7.1278767,-15.5451 15.7605867,-15.5451 8.63271,0 15.645783,6.9397 15.760587,15.5451 7.27e-4,-0.062 0,-0.1221 0,-0.1847 C 39.521165,1021.8746 32.46491,1014.8183 23.760578,1014.8183 Z"
           id="path1321" />
        <path
           inkscape:connector-curvature="0"
           style="fill:#ffffff;fill-opacity:0.05882353;stroke:none"
           d="m 7.9999913,1028.8415 c -0.00129,0.083 0,0.1629 0,0.2462 0,8.7044 7.0562547,15.7606 15.7605867,15.7606 8.704332,0 15.760587,-7.0562 15.760587,-15.7606 0,-0.084 0.0013,-0.1631 0,-0.2462 -0.13099,8.5912 -7.138109,15.5143 -15.760587,15.5143 C 15.1381,1044.3558 8.1309812,1037.4327 7.9999913,1028.8415 Z"
           id="path1323" />
        <path
           sodipodi:type="arc"
           style="fill:url(#linearGradient1327);fill-opacity:1;stroke:none"
           id="path1325"
           sodipodi:cx="34"
           sodipodi:cy="23"
           sodipodi:rx="16"
           sodipodi:ry="16"
           d="M 50,23 C 50,31.836556 42.836556,39 34,39 25.163444,39 18,31.836556 18,23 18,14.163444 25.163444,7 34,7 42.836556,7 50,14.163444 50,23 Z"
           transform="matrix(0.73877751,0,0,0.73877751,-1.3578572,1011.617)" />
        <path
           inkscape:connector-curvature="0"
           id="path1329"
           d="m 23.760578,1016.7884 c -6.528249,0 -11.82044,5.2922 -11.82044,11.8205 0,0.1466 0.02549,0.2856 0.03078,0.4309 0.230377,-6.3253 5.408027,-11.3894 11.789658,-11.3894 6.381631,0 11.559281,5.0641 11.789658,11.3894 0.0053,-0.1453 0.03078,-0.2843 0.03078,-0.4309 C 35.581018,1022.0806 30.288827,1016.7884 23.760578,1016.7884 Z"
           style="fill:#5d6f7d;fill-opacity:0.27290625;stroke:none" />
        <path
           inkscape:connector-curvature="0"
           style="fill:#5d6f7d;fill-opacity:0.13765181;stroke:none"
           d="m 23.760578,1017.6591 c -6.528249,0 -11.82044,5.2922 -11.82044,11.8205 0,0.1465 0.02549,0.2856 0.03078,0.4309 0.230377,-6.3254 5.408027,-11.3895 11.789658,-11.3895 6.381631,0 11.559281,5.0641 11.789658,11.3895 0.0053,-0.1453 0.03078,-0.2844 0.03078,-0.4309 C 35.581018,1022.9513 30.288827,1017.6591 23.760578,1017.6591 Z"
           id="path1334" />
        <path
           inkscape:connector-curvature="0"
           id="path1336"
           d="m 11.940138,1028.8377 c -9.7e-4,0.062 0,0.1222 0,0.1847 0,6.5283 5.292191,11.8204 11.82044,11.8204 6.528249,0 11.82044,-5.2921 11.82044,-11.8204 0,-0.062 9.71e-4,-0.1222 0,-0.1847 -0.11374,6.4299 -5.363416,11.605 -11.82044,11.605 C 17.303554,1040.4427 12.053878,1035.2676 11.940138,1028.8377 Z"
           style="fill:#000000;fill-opacity:0.27303329;stroke:none" />
        <path
           style="fill:#000000;fill-opacity:0.13879496;stroke:none"
           d="m 11.940138,1029.2404 c -9.7e-4,0.062 0,0.1221 0,0.1847 0,6.5283 5.292191,11.8204 11.82044,11.8204 6.528249,0 11.82044,-5.2921 11.82044,-11.8204 0,-0.062 9.71e-4,-0.1223 0,-0.1847 -0.11374,6.4299 -5.363416,11.605 -11.82044,11.605 C 17.303554,1040.8454 12.053878,1035.6703 11.940138,1029.2404 Z"
           id="path1341"
           inkscape:connector-curvature="0" />
        <path
           inkscape:connector-curvature="0"
           id="path1343"
           d="m 11.940138,1029.6377 c -9.7e-4,0.062 0,0.1221 0,0.1847 0,6.5283 5.292191,11.8204 11.82044,11.8204 6.528249,0 11.82044,-5.2921 11.82044,-11.8204 0,-0.062 9.71e-4,-0.1223 0,-0.1847 -0.11374,6.4299 -5.363416,11.605 -11.82044,11.605 C 17.303554,1041.2427 12.053878,1036.0676 11.940138,1029.6377 Z"
           style="fill:#000000;fill-opacity:0.06490437;stroke:none" />
        <path
           style="fill:#000000;fill-opacity:0.03213465;stroke:none"
           d="m 11.940138,1030.0349 c -9.7e-4,0.062 0,0.1222 0,0.1847 0,6.5283 5.292191,11.8205 11.82044,11.8205 6.528249,0 11.82044,-5.2922 11.82044,-11.8205 0,-0.062 9.71e-4,-0.1222 0,-0.1847 -0.11374,6.4299 -5.363416,11.605 -11.82044,11.605 C 17.303554,1041.6399 12.053878,1036.4648 11.940138,1030.0349 Z"
           id="path1345"
           inkscape:connector-curvature="0" />
        <path
           inkscape:connector-curvature="0"
           id="path1347"
           d="m 11.940138,1030.4267 c -9.7e-4,0.062 0,0.1221 0,0.1847 0,6.5283 5.292191,11.8204 11.82044,11.8204 6.528249,0 11.82044,-5.2921 11.82044,-11.8204 0,-0.062 9.71e-4,-0.1223 0,-0.1847 -0.11374,6.4299 -5.363416,11.605 -11.82044,11.605 C 17.303554,1042.0317 12.053878,1036.8566 11.940138,1030.4267 Z"
           style="fill:#000000;fill-opacity:0.01568627;stroke:none" />
        <path
           d="m 27.949242,1023.0081 c 0,-0.6029 -0.729843,-1.0471 -1.332757,-1.0471 -0.793307,0 -1.205827,0.2855 -1.205827,0.8885 0,0.6028 0.602914,1.1423 1.332757,1.1423 C 27.251131,1023.9918 27.949242,1023.5159 27.949242,1023.0081 z m -1.047166,8.4726 c 0.82504,-0.8568 1.364488,-1.5232 1.364488,-1.7453 0,-0.127 -0.03173,-0.1904 -0.126929,-0.1904 -0.09519,0 -0.444251,0.1904 -0.856772,0.7298 -0.634645,0.7933 -1.301023,1.428 -2.443386,2.3799 -0.444253,0.3808 -2.538583,1.9674 -3.585749,1.9674 -0.475985,0 -0.793307,-0.2855 -0.793307,-1.0154 0,-0.8568 0.793307,-2.3164 2.379921,-4.3791 1.618347,-2.0943 2.411655,-3.1415 2.411655,-3.1098 0,-0.3807 -0.729843,-0.7615 -1.11063,-0.7615 -0.793307,0.032 -1.745276,1.0155 -2.919371,2.9193 -1.078899,1.7453 -1.713544,3.2051 -1.903938,4.3157 -0.03174,0.1904 -0.06347,0.3807 -0.06347,0.5711 0,1.5549 0.69811,2.0944 1.618347,2.0944 C 23.379792,1035.2568 25.347193,1033.0355 26.902076,1031.4807 Z"
           style="font-size:32.21432877px;font-style:normal;font-variant:normal;font-weight:normal;font-stretch:normal;text-align:start;line-height:125%;letter-spacing:0px;word-spacing:0px;writing-mode:lr-tb;text-anchor:start;fill:#00d8ff;fill-opacity:1;stroke:none;font-family:Alex Brush;-inkscape-font-specification:Alex Brush"
           id="path1354"
           inkscape:connector-curvature="0" />
        <path
           inkscape:connector-curvature="0"
           id="path1357"
           d="m 26.623341,1021.9599 c -0.793307,0 -1.200513,0.2897 -1.200513,0.8927 0,0.043 -0.006,0.081 0,0.1231 0,-0.6029 0.407206,-0.8927 1.200513,-0.8927 0.52755,0 1.144921,0.3423 1.292861,0.8311 C 27.842784,1022.3618 27.193095,1021.9599 26.623341,1021.9599 z m -2.493374,3.3861 c -0.793307,0.032 -1.719451,1.0204 -2.893545,2.9243 -1.078899,1.7453 -1.718115,3.1989 -1.908509,4.3095 -0.0083,0.05 0.0077,0.1044 0,0.1539 0.190394,-1.1106 0.82961,-2.595 1.908509,-4.3403 1.174094,-1.9039 2.100238,-2.862 2.893545,-2.8935 0.344388,0 0.960108,0.3052 1.077384,0.6464 1.92e-4,10e-5 0.03078,-0.031 0.03078,-0.031 C 25.238133,1025.7348 24.510754,1025.346 24.129967,1025.346 z m 4.001711,4.1864 c -0.09519,0 -0.449386,0.1993 -0.861907,0.7387 -0.634645,0.7934 -1.289446,1.4183 -2.431809,2.3703 -0.444253,0.3808 -2.523592,1.9701 -3.570758,1.9701 -0.356988,0 -0.627219,-0.1351 -0.738777,-0.5233 0.09108,0.4659 0.350611,0.6772 0.738777,0.6772 1.047166,0 3.126505,-1.5893 3.570758,-1.9701 1.142363,-0.9519 1.797164,-1.6077 2.431809,-2.401 0.412521,-0.5394 0.766713,-0.708 0.861907,-0.708 0.06591,0 0.07675,0.031 0.09235,0.092 0.0015,-0.01 0.03078,-0.022 0.03078,-0.031 C 28.254808,1029.6209 28.226879,1029.5324 28.131678,1029.5324 z m -7.603251,4.5558 c -0.03261,-0.1135 -0.05732,-0.2769 -0.06157,-0.431 -0.0015,0.028 0,0.066 0,0.092 C 20.466862,1033.8842 20.50782,1033.9827 20.528427,1034.0882 Z"
           style="font-size:32.21432877px;font-style:normal;font-variant:normal;font-weight:normal;font-stretch:normal;text-align:start;line-height:125%;letter-spacing:0px;word-spacing:0px;writing-mode:lr-tb;text-anchor:start;fill:#000000;fill-opacity:0.23430978;stroke:none;font-family:Alex Brush;-inkscape-font-specification:Alex Brush" />
        <path
           inkscape:connector-curvature="0"
           id="path1362"
           d="m 26.623341,1022.1138 c -0.793307,0 -1.200513,0.2897 -1.200513,0.8927 0.0037,0.021 -0.0051,0.041 0,0.062 0.02942,-0.5577 0.437012,-0.8312 1.200513,-0.8312 0.52755,0 1.144921,0.3423 1.292861,0.8312 C 27.842784,1022.5156 27.193095,1022.1138 26.623341,1022.1138 z m -2.493374,3.3861 c -0.793307,0.032 -1.719451,1.0204 -2.893545,2.9243 -1.078899,1.7453 -1.718115,3.1989 -1.908509,4.3095 -0.0083,0.049 0.0077,0.1043 0,0.1539 0.190394,-1.1106 0.82961,-2.595 1.908509,-4.3403 1.174094,-1.9039 2.100238,-2.862 2.893545,-2.8935 0.320282,0 0.845363,0.2734 1.015819,0.5848 0.0018,0 0.06107,-0.092 0.06156,-0.092 C 25.085147,1025.806 24.472309,1025.4999 24.129967,1025.4999 z m 4.001711,4.1864 c -0.09519,0 -0.449386,0.1993 -0.861907,0.7387 -0.634645,0.7934 -1.289446,1.4184 -2.431809,2.3703 -0.444253,0.3808 -2.523592,1.9701 -3.570758,1.9701 -0.356988,0 -0.627219,-0.1351 -0.738777,-0.5233 0.09109,0.4659 0.350611,0.6772 0.738777,0.6772 1.047166,0 3.126505,-1.5893 3.570758,-1.9701 1.142363,-0.9519 1.797164,-1.6077 2.431809,-2.401 0.412521,-0.5394 0.766713,-0.708 0.861907,-0.708 0.03295,0 0.04867,0.015 0.06156,0.031 0.0089,-0.022 0.02629,-0.043 0.03078,-0.062 C 28.209548,1029.741 28.197586,1029.6863 28.131678,1029.6863 Z"
           style="font-size:32.21432877px;font-style:normal;font-variant:normal;font-weight:normal;font-stretch:normal;text-align:start;line-height:125%;letter-spacing:0px;word-spacing:0px;writing-mode:lr-tb;text-anchor:start;fill:#000000;fill-opacity:0.11764706;stroke:none;font-family:Alex Brush;-inkscape-font-specification:Alex Brush" />
        <path
           inkscape:connector-curvature="0"
           id="path1364"
           d="m 26.623341,1022.2677 c -0.748597,0 -1.157264,0.2646 -1.200513,0.8004 0.0022,0.01 -0.0024,0.022 0,0.031 0.0034,0.012 0.02685,0.019 0.03078,0.031 0.07104,-0.49 0.453232,-0.7388 1.169731,-0.7388 0.51831,0 1.131523,0.3252 1.292861,0.8004 C 27.825458,1022.6529 27.183689,1022.2677 26.623341,1022.2677 z m -2.493374,3.3861 c -0.793307,0.032 -1.719451,1.0204 -2.893545,2.9243 -1.078899,1.7453 -1.718115,3.1989 -1.908509,4.3095 -0.0083,0.049 0.0077,0.1043 0,0.154 0.190394,-1.1107 0.82961,-2.5951 1.908509,-4.3404 1.174094,-1.9038 2.100238,-2.862 2.893545,-2.8935 0.289286,0 0.738314,0.2213 0.954254,0.4925 0.0032,0 0.09087,-0.091 0.09235,-0.092 C 24.99038,1025.9037 24.442213,1025.6538 24.129967,1025.6538 z m 4.001711,4.1864 c -0.09519,0 -0.449386,0.1994 -0.861907,0.7388 -0.634645,0.7933 -1.289446,1.4183 -2.431809,2.3702 -0.444253,0.3808 -2.523592,1.9701 -3.570758,1.9701 -0.356988,0 -0.627219,-0.1351 -0.738777,-0.5233 0.09109,0.4659 0.350611,0.6772 0.738777,0.6772 1.047166,0 3.126505,-1.5893 3.570758,-1.9701 1.142363,-0.9519 1.797164,-1.6077 2.431809,-2.401 0.412521,-0.5394 0.766713,-0.708 0.861907,-0.708 0.01318,0 0.02153,0 0.03078,0 0.02347,-0.04 0.01565,-0.059 0.03078,-0.092 C 28.174292,1029.8784 28.168294,1029.8402 28.131678,1029.8402 Z"
           style="font-size:32.21432877px;font-style:normal;font-variant:normal;font-weight:normal;font-stretch:normal;text-align:start;line-height:125%;letter-spacing:0px;word-spacing:0px;writing-mode:lr-tb;text-anchor:start;fill:#000000;fill-opacity:0.05882353;stroke:none;font-family:Alex Brush;-inkscape-font-specification:Alex Brush" />
        <path
           inkscape:connector-curvature="0"
           id="path1366"
           d="m 26.623341,1022.4216 c -0.701595,0 -1.086713,0.2386 -1.169731,0.708 0.125096,-0.3919 0.527748,-0.5848 1.169731,-0.5848 0.489748,0 1.034168,0.3053 1.231296,0.7387 0.0059,-0.012 0.02558,-0.019 0.03078,-0.031 C 27.735911,1022.7692 27.146802,1022.4216 26.623341,1022.4216 z m -2.493374,3.3861 c -0.793307,0.031 -1.719451,1.0204 -2.893545,2.9243 -1.078899,1.7453 -1.718115,3.1989 -1.908509,4.3096 -0.0083,0.049 0.0077,0.1042 0,0.1539 0.190394,-1.1107 0.82961,-2.5951 1.908509,-4.3404 1.174094,-1.9038 2.100238,-2.862 2.893545,-2.8935 0.258291,0 0.6539,0.1704 0.892689,0.4002 0.0035,0 0.08995,-0.059 0.09235,-0.062 C 24.892579,1026.0301 24.415558,1025.8077 24.129967,1025.8077 z m 4.001711,4.1864 c -0.09519,0 -0.449386,0.1994 -0.861907,0.7388 -0.634645,0.7933 -1.289446,1.4183 -2.431809,2.3702 -0.444253,0.3808 -2.523592,1.9701 -3.570758,1.9701 -0.356988,0 -0.627219,-0.1351 -0.738777,-0.5233 0.09109,0.4659 0.350611,0.6772 0.738777,0.6772 0.130896,0 0.273012,-0.017 0.430954,-0.062 1.105591,-0.3094 2.751083,-1.5753 3.139804,-1.9085 1.142363,-0.9519 1.797164,-1.6076 2.431809,-2.401 0.330017,-0.4315 0.586164,-0.586 0.738778,-0.6464 0.0552,-0.076 0.117525,-0.1541 0.153912,-0.2155 C 28.153207,1029.9918 28.142664,1029.9941 28.131678,1029.9941 Z"
           style="font-size:32.21432877px;font-style:normal;font-variant:normal;font-weight:normal;font-stretch:normal;text-align:start;line-height:125%;letter-spacing:0px;word-spacing:0px;writing-mode:lr-tb;text-anchor:start;fill:#000000;fill-opacity:0.02745098;stroke:none;font-family:Alex Brush;-inkscape-font-specification:Alex Brush" />
        <path
           inkscape:connector-curvature="0"
           id="path1389"
           d="m 25.422828,1023.0681 c 0.07772,0.5491 0.645931,1.0158 1.323643,1.0158 0.475126,0 1.089287,-0.423 1.169731,-0.8927 -0.140564,0.4312 -0.72548,0.8003 -1.169731,0.8003 C 26.107857,1023.9915 25.548207,1023.5752 25.422828,1023.0681 z m -0.184695,3.0782 c -0.0098,-0.019 -0.792717,0.997 -2.401027,3.0782 -1.437527,1.8688 -2.204384,3.2459 -2.339462,4.1249 0.173536,-0.8816 0.951174,-2.2277 2.339462,-4.0325 1.618348,-2.0943 2.401027,-3.1408 2.401027,-3.109 C 25.238133,1026.1895 25.241387,1026.1645 25.238133,1026.1463 z m 3.016675,3.6323 c -0.02857,0.2396 -0.551989,0.8598 -1.354425,1.6931 -1.554883,1.5549 -3.526498,3.7862 -6.03335,3.7862 -0.690178,0 -1.238076,-0.3005 -1.477555,-1.1082 0.225391,0.8671 0.765256,1.2006 1.477555,1.2006 2.506852,0 4.478467,-2.2314 6.03335,-3.7863 0.82504,-0.8568 1.354425,-1.5017 1.354425,-1.7238 C 28.254808,1029.8158 28.257381,1029.7983 28.254808,1029.7786 Z"
           style="font-size:32.21432877px;font-style:normal;font-variant:normal;font-weight:normal;font-stretch:normal;text-align:start;line-height:125%;letter-spacing:0px;word-spacing:0px;writing-mode:lr-tb;text-anchor:start;fill:#ffffff;fill-opacity:0.23507182;stroke:none;font-family:Alex Brush;-inkscape-font-specification:Alex Brush" />
        <path
           style="font-size:32.21432877px;font-style:normal;font-variant:normal;font-weight:normal;font-stretch:normal;text-align:start;line-height:125%;letter-spacing:0px;word-spacing:0px;writing-mode:lr-tb;text-anchor:start;fill:#ffffff;fill-opacity:0.23507182;stroke:none;font-family:Alex Brush;-inkscape-font-specification:Alex Brush"
           d="m 25.422828,1023.0681 c 0.07772,0.5491 0.645931,1.0158 1.323643,1.0158 0.475126,0 1.089287,-0.423 1.169731,-0.8927 -0.140564,0.4312 -0.72548,0.8003 -1.169731,0.8003 C 26.107857,1023.9915 25.548207,1023.5752 25.422828,1023.0681 z m -0.184695,3.0782 c -0.0098,-0.019 -0.792717,0.997 -2.401027,3.0782 -1.437527,1.8688 -2.204384,3.2459 -2.339462,4.1249 0.173536,-0.8816 0.951174,-2.2277 2.339462,-4.0325 1.618348,-2.0943 2.401027,-3.1408 2.401027,-3.109 C 25.238133,1026.1895 25.241387,1026.1645 25.238133,1026.1463 z m 3.016675,3.6323 c -0.02857,0.2396 -0.551989,0.8598 -1.354425,1.6931 -1.554883,1.5549 -3.526498,3.7862 -6.03335,3.7862 -0.690178,0 -1.238076,-0.3005 -1.477555,-1.1082 0.225391,0.8671 0.765256,1.2006 1.477555,1.2006 2.506852,0 4.478467,-2.2314 6.03335,-3.7863 0.82504,-0.8568 1.354425,-1.5017 1.354425,-1.7238 C 28.254808,1029.8158 28.257381,1029.7983 28.254808,1029.7786 Z"
           id="path1394"
           inkscape:connector-curvature="0" />
        <path
           inkscape:connector-curvature="0"
           id="path1396"
           d="m 25.422828,1023.1605 c 0.07772,0.5491 0.645931,1.0158 1.323643,1.0158 0.475126,0 1.089287,-0.4231 1.169731,-0.8927 -0.140564,0.4312 -0.72548,0.8003 -1.169731,0.8003 C 26.107857,1024.0839 25.548207,1023.6675 25.422828,1023.1605 z m -0.184695,3.0782 c -0.0098,-0.019 -0.792717,0.9969 -2.401027,3.0782 -1.437527,1.8688 -2.204384,3.2459 -2.339462,4.1249 0.173536,-0.8816 0.951174,-2.2277 2.339462,-4.0325 1.618348,-2.0943 2.401027,-3.1408 2.401027,-3.109 C 25.238133,1026.2819 25.241387,1026.2569 25.238133,1026.2387 z m 3.016675,3.6323 c -0.02857,0.2396 -0.551989,0.8598 -1.354425,1.6931 -1.554883,1.5549 -3.526498,3.7862 -6.03335,3.7862 -0.690178,0 -1.238076,-0.3005 -1.477555,-1.1082 0.225391,0.8671 0.765256,1.2006 1.477555,1.2006 2.506852,0 4.478467,-2.2314 6.03335,-3.7863 0.82504,-0.8568 1.354425,-1.5017 1.354425,-1.7238 C 28.254808,1029.9081 28.257381,1029.8907 28.254808,1029.871 Z"
           style="font-size:32.21432877px;font-style:normal;font-variant:normal;font-weight:normal;font-stretch:normal;text-align:start;line-height:125%;letter-spacing:0px;word-spacing:0px;writing-mode:lr-tb;text-anchor:start;fill:#ffffff;fill-opacity:0.11728192;stroke:none;font-family:Alex Brush;-inkscape-font-specification:Alex Brush" />
        <path
           style="font-size:32.21432877px;font-style:normal;font-variant:normal;font-weight:normal;font-stretch:normal;text-align:start;line-height:125%;letter-spacing:0px;word-spacing:0px;writing-mode:lr-tb;text-anchor:start;fill:#ffffff;fill-opacity:0.05882353;stroke:none;font-family:Alex Brush;-inkscape-font-specification:Alex Brush"
           d="m 25.422828,1023.2528 c 0.07772,0.5492 0.645931,1.0158 1.323643,1.0158 0.475126,0 1.089287,-0.423 1.169731,-0.8926 -0.140564,0.4312 -0.72548,0.8003 -1.169731,0.8003 C 26.107857,1024.1763 25.548207,1023.7597 25.422828,1023.2528 z m -0.184695,3.0783 c -0.0098,-0.019 -0.792717,0.9969 -2.401027,3.0782 -1.437527,1.8688 -2.204384,3.2459 -2.339462,4.1249 0.173536,-0.8816 0.951174,-2.2277 2.339462,-4.0325 1.618348,-2.0943 2.401027,-3.1408 2.401027,-3.109 C 25.238133,1026.3743 25.241387,1026.3493 25.238133,1026.3311 z m 3.016675,3.6323 c -0.02857,0.2396 -0.551989,0.8598 -1.354425,1.6931 -1.554883,1.5549 -3.526498,3.7862 -6.03335,3.7862 -0.690178,0 -1.238076,-0.3005 -1.477555,-1.1082 0.225391,0.8671 0.765256,1.2006 1.477555,1.2006 2.506852,0 4.478467,-2.2314 6.03335,-3.7863 0.82504,-0.8568 1.354425,-1.5017 1.354425,-1.7238 C 28.254808,1030.0004 28.257381,1029.9831 28.254808,1029.9634 Z"
           id="path1398"
           inkscape:connector-curvature="0" />
      </g>
      <g
         id="g937"
         transform="matrix(1.3012832,0,0,1.3012832,-10.951548,-319.70743)">
        <g
           transform="matrix(0.7684722,0,0,0.7684722,50.653055,242.47209)"
           id="g925">
          <path
             inkscape:connector-curvature="0"
             d="m -21.769671,1064.9737 c 0.148447,0 0.156249,-0.021 0.156249,-0.4277 0,-0.3803 -0.01421,-0.4275 -0.128483,-0.4275 -0.243677,0 -0.450799,-0.1475 -0.566018,-0.403 -0.06356,-0.1409 -0.103526,-0.2656 -0.08882,-0.2768 0.01472,-0.012 0.166637,-0.1011 0.33762,-0.1985 0.848886,-0.486 1.229427,-1.5765 1.231848,-3.5296 0.0028,-2.3494 -0.588621,-3.4631 -1.991178,-3.749 -0.441022,-0.089 -0.941256,-0.042 -1.333746,0.1287 -0.586281,0.2543 -1.032809,0.9351 -1.252553,1.9097 -0.15628,0.6932 -0.154383,2.5905 0.0033,3.3224 0.231344,1.0736 0.777326,1.8692 1.432739,2.0878 0.242719,0.081 0.276556,0.1209 0.378579,0.4478 0.158675,0.5086 0.300445,0.7554 0.526392,0.9163 0.225995,0.1609 0.673405,0.2682 0.948654,0.2274 C -22.011034,1064.9864 -21.855607,1064.9737 -21.769669,1064.9737 z m -1.487438,-2.4543 c -0.200589,-0.1 -0.441406,-0.4498 -0.52526,-0.7628 -0.274184,-1.0239 -0.251218,-3.5589 0.03881,-4.2837 0.131652,-0.3291 0.435682,-0.5913 0.685529,-0.5913 0.276476,0 0.624178,0.3334 0.753362,0.7223 0.228446,0.6878 0.266939,2.9967 0.06614,3.9671 C -22.398193,1062.3426 -22.821403,1062.7367 -23.257109,1062.5194 z m 4.406845,0.4775 c 0.622529,-0.1383 0.657895,-0.1689 0.657895,-0.5685 0,-0.3104 -0.01539,-0.3537 -0.115132,-0.324 -0.39459,0.1171 -0.486511,0.118 -0.611203,0.011 -0.121709,-0.1102 -0.128928,-0.2119 -0.128928,-1.8171 l 0,-1.7003 0.394737,0 0.394737,0 0,-0.3862 0,-0.3863 -0.394737,-0.045 -0.394737,-0.044 0,-0.6178 c 0,-0.3399 -0.02221,-0.6313 -0.04934,-0.6479 -0.02714,-0.016 -0.195112,-0.04 -0.373274,-0.054 l -0.323933,-0.023 -0.112867,0.4605 c -0.06207,0.2533 -0.13151,0.542 -0.154294,0.6415 -0.03544,0.1547 -0.07452,0.1809 -0.270437,0.1809 l -0.229011,0 0,0.4276 0,0.4277 0.197369,0 0.197368,0 0,1.9104 c 0,2.3344 0.02623,2.4241 0.756579,2.5849 C -19.199445,1063.0678 -19.162423,1063.0662 -18.850264,1062.9969 Z"
             id="path2400"
             style="fill:#000000;fill-opacity:0.37651822"
             sodipodi:nodetypes="csssssssssscsscccsssssssssccscccccccscscssscccccscs" />
          <path
             inkscape:connector-curvature="0"
             style="fill:#000000;fill-opacity:0.37651822"
             d="m -23.488422,1055.9314 c -0.229247,0.022 -0.461649,0.079 -0.657894,0.1645 -0.586281,0.2543 -1.030256,0.9333 -1.25,1.9079 -0.04715,0.2091 -0.08026,0.5249 -0.09868,0.8881 0.01934,-0.2867 0.05961,-0.5504 0.09868,-0.7236 0.219744,-0.9747 0.663719,-1.6536 1.25,-1.9079 0.392489,-0.1708 0.874767,-0.2211 1.315789,-0.1316 1.227237,0.2501 1.843203,1.1366 1.973684,2.9276 -0.106407,-1.8955 -0.711439,-2.8348 -1.973684,-3.0921 C -23.051037,1055.9196 -23.259174,1055.9094 -23.488422,1055.9314 z m 3.684211,0.4605 -0.09868,0.4606 c -0.06207,0.2532 -0.14169,0.5584 -0.164474,0.6579 -0.03544,0.1547 -0.06724,0.1644 -0.263158,0.1644 l -0.230263,0 0,0.1974 0.230263,0 c 0.195921,0 0.227716,-0.043 0.263158,-0.1974 0.02278,-0.099 0.1024,-0.3717 0.164474,-0.625 l 0.09868,-0.4605 0.328947,0 c 0.178162,0.014 0.3676,0.05 0.394737,0.066 -0.0067,-0.048 0.0081,-0.1924 0,-0.1974 -0.02714,-0.016 -0.216575,-0.019 -0.394737,-0.033 L -19.804211,1056.3919 z m 0.756579,1.3487 0,0.1645 0.394737,0.066 0.394737,0.033 0,-0.1645 -0.394737,-0.066 L -19.047632,1057.7406 z m -3.092105,2.8948 c -0.02106,0.3636 -0.04848,0.6784 -0.09868,0.921 -0.159663,0.7716 -0.58403,1.1712 -1.019736,0.954 -0.20059,-0.1 -0.442463,-0.4436 -0.526316,-0.7566 -0.06855,-0.256 -0.132601,-0.5939 -0.164474,-0.9869 0.03068,0.4563 0.08692,0.8946 0.164474,1.1843 0.08385,0.313 0.325726,0.6565 0.526316,0.7565 0.435706,0.2173 0.860073,-0.1823 1.019736,-0.9539 C -22.179861,1061.4708 -22.158817,1061.0726 -22.139737,1060.6354 z m 3.125,1.1184 c 0.01496,0.332 0.02972,0.4638 0.09868,0.5263 0.124691,0.1075 0.197515,0.1172 0.592105,0 0.04987,-0.015 0.08237,-0.013 0.09868,0.033 -0.0081,-0.1547 -0.02144,-0.2204 -0.09868,-0.1974 -0.39459,0.1172 -0.467414,0.1075 -0.592105,0 C -18.976908,1062.0605 -18.997718,1061.9936 -19.014737,1061.7538 z m -3.322369,1.8421 c -0.01202,0.01 -0.06298,0.031 -0.06579,0.033 -0.01471,0.011 0.03513,0.1222 0.09868,0.2631 0.115219,0.2555 0.315534,0.3948 0.55921,0.3948 0.05714,0 0.08085,0.039 0.09868,0.099 -0.0085,-0.1869 -0.01064,-0.2632 -0.09868,-0.2632 -0.243676,0 -0.443991,-0.1393 -0.55921,-0.3947 C -22.331753,1063.6664 -22.320952,1063.6429 -22.337106,1063.5959 Z"
             id="path1427" />
        </g>
      </g>
    </g>
  </g>
</svg>
