<?xml version="1.0" encoding="UTF-8" standalone="no"?>
<!-- Created with Inkscape (http://www.inkscape.org/) -->

<svg
   xmlns:dc="http://purl.org/dc/elements/1.1/"
   xmlns:cc="http://creativecommons.org/ns#"
   xmlns:rdf="http://www.w3.org/1999/02/22-rdf-syntax-ns#"
   xmlns:svg="http://www.w3.org/2000/svg"
   xmlns="http://www.w3.org/2000/svg"
   xmlns:xlink="http://www.w3.org/1999/xlink"
   xmlns:sodipodi="http://sodipodi.sourceforge.net/DTD/sodipodi-0.dtd"
   xmlns:inkscape="http://www.inkscape.org/namespaces/inkscape"
   width="48"
   height="48"
   id="svg2"
   version="1.1"
   inkscape:version="0.48+devel r12137"
   sodipodi:docname="audacious.svg"
   inkscape:export-filename="/home/uri/Iconos/NITRUX-Buttons/apps/16/audacious.png"
   inkscape:export-xdpi="30"
   inkscape:export-ydpi="30">
  <defs
     id="defs4">
    <linearGradient
       id="linearGradient1215-6">
      <stop
         id="stop1217-9"
         offset="0"
         style="stop-color:#f9f9f9;stop-opacity:1" />
      <stop
         id="stop1219-8"
         offset="1"
         style="stop-color:#ffffff;stop-opacity:1" />
    </linearGradient>
    <linearGradient
       inkscape:collect="always"
       xlink:href="#linearGradient1215-6"
       id="linearGradient893"
       x1="24.113073"
       y1="1050.4991"
       x2="24.113073"
       y2="1006.1996"
       gradientUnits="userSpaceOnUse" />
    <linearGradient
       inkscape:collect="always"
       id="linearGradient983-7">
      <stop
         style="stop-color:#ffffff;stop-opacity:1;"
         offset="0"
         id="stop985-9" />
      <stop
         style="stop-color:#ffffff;stop-opacity:0;"
         offset="1"
         id="stop987-4" />
    </linearGradient>
    <linearGradient
       id="linearGradient1215-1">
      <stop
         id="stop1217-7"
         offset="0"
         style="stop-color:#050505;stop-opacity:1" />
      <stop
         id="stop1219-4"
         offset="1"
         style="stop-color:#2e3b44;stop-opacity:1" />
    </linearGradient>
    <linearGradient
       x1="0"
       y1="0"
       x2="1"
       y2="0"
       gradientUnits="userSpaceOnUse"
       gradientTransform="matrix(-7.7191853e-7,-17.606358,17.606358,-7.7191853e-7,10.536482,1036.285)"
       spreadMethod="pad"
       id="linearGradient5364-8">
      <stop
         style="stop-opacity:1;stop-color:#11181d"
         offset="0"
         id="stop5366-3" />
      <stop
         style="stop-opacity:1;stop-color:#a4b0c0"
         offset="1"
         id="stop5368-6" />
    </linearGradient>
    <linearGradient
       gradientTransform="matrix(0.98701299,0,0,0.98701299,0.31168821,1007.3882)"
       inkscape:collect="always"
       xlink:href="#linearGradient964"
       id="linearGradient970"
       x1="28.195883"
       y1="1.7728938"
       x2="28.195883"
       y2="5.1316509"
       gradientUnits="userSpaceOnUse" />
    <linearGradient
       inkscape:collect="always"
       id="linearGradient964">
      <stop
         style="stop-color:#000000;stop-opacity:1;"
         offset="0"
         id="stop966" />
      <stop
         style="stop-color:#000000;stop-opacity:0;"
         offset="1"
         id="stop968" />
    </linearGradient>
    <linearGradient
       gradientTransform="matrix(0.98701299,0,0,0.98701299,1.5114488,1007.7152)"
       inkscape:collect="always"
       xlink:href="#linearGradient983-7"
       id="linearGradient989"
       x1="28.875"
       y1="19"
       x2="28.875"
       y2="2.6249995"
       gradientUnits="userSpaceOnUse" />
    <linearGradient
       inkscape:collect="always"
       xlink:href="#linearGradient12826-3"
       id="linearGradient963"
       x1="-0.74285024"
       y1="1048.3107"
       x2="49.270245"
       y2="1019.2572"
       gradientUnits="userSpaceOnUse"
       gradientTransform="matrix(1.0250364,0,0,1.0250364,-0.60087465,-25.746223)" />
    <linearGradient
       x1="0"
       y1="0"
       x2="1"
       y2="0"
       gradientUnits="userSpaceOnUse"
       gradientTransform="matrix(102.54324,263.67313,263.67313,-102.54324,983.50684,1838.207)"
       spreadMethod="pad"
       id="linearGradient12826-3">
      <stop
         style="stop-opacity:1;stop-color:#ffffff"
         offset="0"
         id="stop12828-6" />
      <stop
         style="stop-opacity:1;stop-color:#6b6b6b"
         offset="0.199997"
         id="stop12830-7" />
      <stop
         style="stop-opacity:1;stop-color:#ffffff"
         offset="0.330002"
         id="stop12832-3" />
      <stop
         style="stop-opacity:1;stop-color:#ffffff"
         offset="0.62774891"
         id="stop12834-8" />
      <stop
         style="stop-opacity:1;stop-color:#6e6e6e"
         offset="0.78614467"
         id="stop12836-2" />
      <stop
         style="stop-opacity:1;stop-color:#404040"
         offset="1"
         id="stop12838-6" />
    </linearGradient>
    <linearGradient
       inkscape:collect="always"
       xlink:href="#linearGradient1215-1"
       id="linearGradient1093"
       x1="24.633392"
       y1="1047.2456"
       x2="24.633392"
       y2="1010.0442"
       gradientUnits="userSpaceOnUse"
       gradientTransform="matrix(0.98701299,0,0,0.98701299,0.31168831,13.35537)" />
  </defs>
  <sodipodi:namedview
     id="base"
     pagecolor="#ffffff"
     bordercolor="#666666"
     borderopacity="1.0"
     inkscape:pageopacity="0.0"
     inkscape:pageshadow="2"
     inkscape:zoom="8.8437502"
     inkscape:cx="19.075462"
     inkscape:cy="19.279357"
     inkscape:document-units="px"
     inkscape:current-layer="layer1"
     showgrid="false"
     inkscape:window-width="1366"
     inkscape:window-height="714"
     inkscape:window-x="0"
     inkscape:window-y="30"
     inkscape:window-maximized="1"
     showguides="false" />
  <metadata
     id="metadata7">
    <rdf:RDF>
      <cc:Work
         rdf:about="">
        <dc:format>image/svg+xml</dc:format>
        <dc:type
           rdf:resource="http://purl.org/dc/dcmitype/StillImage" />
        <dc:title />
      </cc:Work>
    </rdf:RDF>
  </metadata>
  <g
     inkscape:label="Capa 1"
     inkscape:groupmode="layer"
     id="layer1"
     transform="translate(0,-1004.3622)">
    <rect
       style="color:#000000;fill:#333333;fill-opacity:1;fill-rule:nonzero;stroke:none;stroke-width:0.2;marker:none;visibility:visible;display:inline;overflow:visible;enable-background:accumulate"
       id="rect6294"
       width="45.5"
       height="45.5"
       x="1.25"
       y="1005.6122"
       ry="6.3565426" />
    <rect
       ry="5.8565426"
       y="1006.1122"
       x="1.75"
       height="44.5"
       width="44.5"
       id="rect6296"
       style="color:#000000;fill:url(#linearGradient893);fill-opacity:1;fill-rule:nonzero;stroke:none;stroke-width:0.2;marker:none;visibility:visible;display:inline;overflow:visible;enable-background:accumulate" />
    <path
       id="path6361"
       d="m 1.75,1012.5498 0,-0.5625 c 0,-3.2445 2.599225,-5.875 5.84375,-5.875 l 32.8125,0 c 3.244525,0 5.84375,2.6305 5.84375,5.875 l 0,0.5625 c 0,-3.2445 -2.599225,-5.875 -5.84375,-5.875 l -32.8125,0 C 4.349225,1006.6748 1.75,1009.3053 1.75,1012.5498 Z"
       style="color:#000000;fill:#ffffff;fill-opacity:1;fill-rule:nonzero;stroke:none;stroke-width:0.2;marker:none;visibility:visible;display:inline;overflow:visible;enable-background:accumulate"
       inkscape:connector-curvature="0" />
    <rect
       style="color:#000000;fill:#000000;fill-opacity:1;fill-rule:nonzero;stroke:none;stroke-width:0.2;marker:none;visibility:visible;display:inline;overflow:visible;enable-background:accumulate"
       id="rect1081"
       width="38"
       height="38"
       x="5"
       y="1009.3622"
       ry="5.001092" />
    <rect
       ry="4.7412949"
       y="1010.3492"
       x="5.9870129"
       height="36.025974"
       width="36.025974"
       id="rect1085"
       style="color:#000000;fill:url(#linearGradient1093);fill-opacity:1;fill-rule:nonzero;stroke:none;stroke-width:0.2;marker:none;visibility:visible;display:inline;overflow:visible;enable-background:accumulate" />
    <path
       style="fill:url(#linearGradient970);fill-opacity:1;stroke:none"
       d="m 10.737013,1010.3492 c -1.7561387,0 -3.2828397,0.9635 -4.1022727,2.375 l 34.7305197,0 c -0.819433,-1.4115 -2.346134,-2.375 -4.102273,-2.375 L 10.737013,1010.3492 Z"
       id="rect956"
       inkscape:connector-curvature="0" />
    <path
       style="fill:url(#linearGradient5364-8);fill-opacity:1;fill-rule:nonzero;stroke:none"
       d="m 7.9918831,1017.9585 0,1.2314 5.0726069,0 0,-1.2314 L 7.9918831,1017.9585 z m 26.9252459,0.04 0,1.2497 5.090988,0 0,-1.2497 L 34.917129,1017.9953 z m -20.180151,1.7276 0,1.2497 5.072607,0 0,-1.2497 L 14.736978,1019.7229 z m 13.453437,1.066 0,1.2498 5.072608,0 0,-1.2498 L 28.190415,1020.7888 z m -20.1985319,0.9741 0,1.6173 5.0726069,0 0,-1.6173 L 7.9918831,1021.763 z m 13.4718149,1.213 0,1.2498 5.072604,0 0,-1.2498 L 21.463698,1022.976 z m -13.4718149,1.3785 0,1.6172 5.0726069,0 0,-1.6172 L 7.9918831,1024.3544 z m 6.7450949,0 0,1.6172 5.072607,0 0,-1.6172 L 14.736978,1024.3544 z m 20.180151,0 0,1.6172 5.090988,0 0,-1.6172 L 34.917129,1024.3544 z m -26.9252459,2.6098 0,1.6173 5.0726069,0 0,-1.6173 L 7.9918831,1026.9643 z m 6.7450949,0 0,1.6173 5.072607,0 0,-1.6173 L 14.736978,1026.9643 z m 6.72672,0 0,1.6173 5.072604,0 0,-1.6173 L 21.463698,1026.9643 z m 6.726717,0 0,1.6173 5.072608,0 0,-1.6173 L 28.190415,1026.9643 z m 6.726714,0 0,1.6173 5.090988,0 0,-1.6173 L 34.917129,1026.9643 z m -26.9252459,2.5915 0,1.6172 5.0726069,0 0,-1.6172 L 7.9918831,1029.5557 z m 6.7450949,0 0,1.6172 5.072607,0 0,-1.6172 L 14.736978,1029.5557 z m 6.72672,0 0,1.6172 5.072604,0 0,-1.6172 L 21.463698,1029.5557 z m 6.726717,0 0,1.6172 5.072608,0 0,-1.6172 L 28.190415,1029.5557 z m 6.726714,0 0,1.6172 5.090988,0 0,-1.6172 L 34.917129,1029.5557 z m -26.9252459,2.6096 0,1.6175 5.0726069,0 0,-1.6175 L 7.9918831,1032.1656 z m 6.7450949,0 0,1.6175 5.072607,0 0,-1.6175 L 14.736978,1032.1656 z m 6.72672,0 0,1.6175 5.072604,0 0,-1.6175 L 21.463698,1032.1656 z m 6.726717,0 0,1.6175 5.072608,0 0,-1.6175 L 28.190415,1032.1656 z m 6.726714,0 0,1.6175 5.090988,0 0,-1.6175 L 34.917129,1032.1656 z m -26.9252459,2.5915 0,1.6174 5.0726069,0 0,-1.6174 L 7.9918831,1034.7571 z m 6.7450949,0 0,1.6174 5.072607,0 0,-1.6174 L 14.736978,1034.7571 z m 6.72672,0 0,1.6174 5.072604,0 0,-1.6174 L 21.463698,1034.7571 z m 6.726717,0 0,1.6174 5.072608,0 0,-1.6174 L 28.190415,1034.7571 z m 6.726714,0 0,1.6174 5.090988,0 0,-1.6174 L 34.917129,1034.7571 z m -26.9252459,2.6099 0,1.3968 5.0726069,0 0,-1.3968 L 7.9918831,1037.3667 z m 6.7450949,0 0,1.3968 5.072607,0 0,-1.3968 L 14.736978,1037.3667 z m 6.72672,0 0,1.3968 5.072604,0 0,-1.3968 L 21.463698,1037.3667 z m 6.726717,0 0,1.3968 5.072608,0 0,-1.3968 L 28.190415,1037.3667 z m 6.726714,0 0,1.3968 5.090988,0 0,-1.3968 L 34.917129,1037.3667 Z"
       id="path5370"
       inkscape:connector-curvature="0" />
    <path
       style="opacity:0.19100001;fill:url(#linearGradient989);fill-opacity:1;stroke:none"
       d="m 8.9788961,1010.6885 c -1.750337,0.6961 -2.9918831,2.4065 -2.9918831,4.4107 l 0,11.1348 36.025974,0 0,-11.1348 c 0,-2.0042 -1.241546,-3.7146 -2.991883,-4.4107 L 8.9788961,1010.6885 Z"
       id="rect978"
       inkscape:connector-curvature="0" />
    <rect
       style="color:#000000;fill:#ffffff;fill-opacity:0.10196078;fill-rule:nonzero;stroke:none;stroke-width:0.2;marker:none;visibility:visible;display:inline;overflow:visible;enable-background:accumulate"
       id="rect1095"
       width="36.025974"
       height="36.025974"
       x="5.9870129"
       y="1010.3492"
       ry="4.7412949" />
    <path
       inkscape:connector-curvature="0"
       style="color:#000000;fill:#000000;fill-opacity:1;fill-rule:nonzero;stroke:none;stroke-width:0.2;marker:none;visibility:visible;display:inline;overflow:visible;enable-background:accumulate"
       d="m 1.75,1044.1748 0,0.5625 c 0,3.2445 2.599225,5.875 5.84375,5.875 l 32.8125,0 c 3.244525,0 5.84375,-2.6305 5.84375,-5.875 l 0,-0.5625 c 0,3.2445 -2.599225,5.875 -5.84375,5.875 l -32.8125,0 C 4.349225,1050.0498 1.75,1047.4193 1.75,1044.1748 Z"
       id="path6388" />
    <g
       id="g1113"
       transform="matrix(0.94363112,0,0,0.94363112,1.3528531,57.651808)">
      <path
         style="opacity:0.82599996;fill:#2d81ff;fill-opacity:0.14792899;stroke:none"
         d="m 24.154488,1013.9943 c -6.317612,0 -11.411637,5.0947 -11.411637,11.4124 l 0,17.3235 2.286447,0 c -0.02649,-0.3113 -0.04121,-0.6292 -0.04121,-0.9477 l 0,-15.3047 c 0,-5.5441 4.090366,-10.0109 9.166392,-10.0109 5.076025,0 9.16639,4.4669 9.16639,10.0109 l 0,15.3047 c 0,0.3185 -0.0147,0.6364 -0.04121,0.9477 l 2.28645,0 0,-17.3235 C 35.566129,1019.089 30.4721,1013.9943 24.154488,1013.9943 z m -12.503365,12.8542 c -3.4405374,0.4878 -6.1177945,3.3208 -6.1177945,6.9003 l 0,2.0806 c 0,3.5791 2.6772571,6.4129 6.1177945,6.9008 L 11.651123,1026.8485 z m 24.718356,0 0,15.8817 c 3.440531,-0.4879 6.097193,-3.3217 6.097193,-6.9008 l 0,-2.0806 C 42.466672,1030.1692 39.81001,1027.3363 36.369479,1026.8485 Z"
         id="path965"
         inkscape:connector-curvature="0" />
      <path
         inkscape:connector-curvature="0"
         id="path946"
         d="m 24.154488,1013.9943 c -6.317612,0 -11.411637,5.0947 -11.411637,11.4123 l 0,17.3236 2.286447,0 c -0.02649,-0.3114 -0.04121,-0.6293 -0.04121,-0.9477 l 0,-15.3047 c 0,-5.5442 4.090366,-10.0109 9.166392,-10.0109 5.076025,0 9.16639,4.4669 9.16639,10.0109 l 0,15.3047 c 0,0.3184 -0.0147,0.6363 -0.04121,0.9477 l 2.28645,0 0,-17.3236 C 35.566129,1019.089 30.4721,1013.9943 24.154488,1013.9943 z m -12.503365,12.8541 c -3.4405377,0.4876 -6.1177948,3.3208 -6.1177948,6.9003 l 0,2.0805 c 0,3.5792 2.6772571,6.413 6.1177948,6.9008 L 11.651123,1026.8484 z m 24.718356,0 0,15.8816 c 3.440531,-0.4882 6.097193,-3.3216 6.097193,-6.9008 l 0,-2.0805 C 42.466672,1030.1692 39.81001,1027.3361 36.369479,1026.8484 Z"
         style="fill:url(#linearGradient963);fill-opacity:1;stroke:none" />
      <path
         transform="translate(0,1004.3622)"
         id="path1031"
         d="M 24.15625,9.625 C 17.838638,9.625 12.75,14.71365 12.75,21.03125 l 0,1.0625 c 0,-6.3176 5.088638,-11.40625 11.40625,-11.40625 6.317612,0 11.406269,5.08865 11.40625,11.40625 l 0,-1.0625 C 35.562519,14.71365 30.473862,9.625 24.15625,9.625 z m -12.5,12.875 c -3.4405377,0.4876 -6.125,3.2955 -6.125,6.875 l 0,1.0625 c 0,-3.5795 2.6844623,-6.3874 6.125,-6.875 L 11.65625,22.5 z m 24.71875,0 0,1.0625 c 3.440531,0.4877 6.09375,3.2955 6.09375,6.875 l 0,-1.0625 C 42.46875,25.7955 39.815531,22.9877 36.375,22.5 Z M 15,37.40625 l 0,0.96875 0.03125,0 C 15.00476,38.0636 15,37.72465 15,37.40625 z m 18.3125,0 c 0,0.3184 -0.0047,0.65735 -0.03125,0.96875 l 0.03125,0 L 33.3125,37.40625 Z"
         style="fill:#ffffff;fill-opacity:0.17159765;stroke:none"
         inkscape:connector-curvature="0" />
      <path
         inkscape:connector-curvature="0"
         id="path1026"
         d="m 24.15625,1015.3552 c -5.076026,0 -9.15625,4.4558 -9.15625,10 l 0,1.125 c 0,-5.5442 4.080224,-10 9.15625,-10 5.076025,0 9.15625,4.456 9.15625,10 l 0,-1.125 C 33.3125,1019.8112 29.232275,1015.3552 24.15625,1015.3552 z m -18.625,19.3438 0,1.125 c 0,3.5792 2.6844623,6.4184 6.125,6.9062 l 0,-1.125 C 8.2157123,1041.1174 5.53125,1038.2782 5.53125,1034.699 z m 36.9375,0 c 0,3.5792 -2.653219,6.418 -6.09375,6.9062 l 0,1.125 c 3.440531,-0.4882 6.09375,-3.327 6.09375,-6.9062 L 42.46875,1034.699 z m -29.71875,6.9062 0,1.125 2.28125,0 C 15.00476,1042.4188 15,1042.1111 15,1041.7927 l 0,-0.1875 L 12.75,1041.6052 z m 20.5625,0 0,0.1875 c 0,0.3184 -0.0047,0.6261 -0.03125,0.9375 l 2.28125,0 0,-1.125 L 33.3125,1041.6052 Z"
         style="fill:#000000;fill-opacity:0.36686389;stroke:none" />
      <path
         style="fill:#000000;fill-opacity:0.11834322;stroke:none"
         d="m 24.15625,1015.8864 c -5.076026,0 -9.15625,4.4558 -9.15625,10 l 0,1.125 c 0,-5.5442 4.080224,-10 9.15625,-10 5.076025,0 9.15625,4.456 9.15625,10 l 0,-1.125 C 33.3125,1020.3424 29.232275,1015.8864 24.15625,1015.8864 z m -18.625,19.3438 0,1.125 c 0,3.5792 2.6844623,6.4184 6.125,6.9062 l 0,-1.125 C 8.2157123,1041.6486 5.53125,1038.8094 5.53125,1035.2302 z m 36.9375,0 c 0,3.5792 -2.653219,6.418 -6.09375,6.9062 l 0,1.125 c 3.440531,-0.4882 6.09375,-3.327 6.09375,-6.9062 L 42.46875,1035.2302 z m -29.71875,6.9062 0,1.125 2.28125,0 C 15.00476,1042.95 15,1042.6423 15,1042.3239 l 0,-0.1875 L 12.75,1042.1364 z m 20.5625,0 0,0.1875 c 0,0.3184 -0.0047,0.6261 -0.03125,0.9375 l 2.28125,0 0,-1.125 L 33.3125,1042.1364 Z"
         id="path1036"
         inkscape:connector-curvature="0" />
      <path
         inkscape:connector-curvature="0"
         style="fill:#ffffff;fill-opacity:0.04142013;stroke:none"
         d="m 24.15625,1013.4136 c -6.317612,0 -11.40625,5.0887 -11.40625,11.4063 l 0,1.0625 c 0,-6.3176 5.088638,-11.4063 11.40625,-11.4063 6.317612,0 11.406269,5.0887 11.40625,11.4063 l 0,-1.0625 C 35.562519,1018.5023 30.473862,1013.4136 24.15625,1013.4136 z m -12.5,12.875 c -3.4405377,0.4876 -6.125,3.2955 -6.125,6.875 l 0,1.0625 c 0,-3.5795 2.6844623,-6.3874 6.125,-6.875 L 11.65625,1026.2886 z m 24.71875,0 0,1.0625 c 3.440531,0.4877 6.09375,3.2955 6.09375,6.875 l 0,-1.0625 C 42.46875,1029.5841 39.815531,1026.7763 36.375,1026.2886 Z M 15,1041.1949 l 0,0.9687 0.03125,0 C 15.00476,1041.8522 15,1041.5133 15,1041.1949 z m 18.3125,0 c 0,0.3184 -0.0047,0.6573 -0.03125,0.9687 l 0.03125,0 L 33.3125,1041.1949 Z"
         id="path1038" />
      <path
         style="fill:#000000;fill-opacity:0.08284021;stroke:none"
         d="m 24.15625,1017.0115 c -5.076026,0 -9.15625,4.4558 -9.15625,10 l 0,1.125 c 0,-5.5442 4.080224,-10 9.15625,-10 5.076025,0 9.15625,4.456 9.15625,10 l 0,-1.125 C 33.3125,1021.4675 29.232275,1017.0115 24.15625,1017.0115 z m -18.625,19.3438 0,1.125 c 0,3.5792 2.6844623,6.4184 6.125,6.9062 l 0,-1.125 C 8.2157123,1042.7737 5.53125,1039.9345 5.53125,1036.3553 z m 36.9375,0 c 0,3.5792 -2.653219,6.418 -6.09375,6.9062 l 0,1.125 c 3.440531,-0.4882 6.09375,-3.327 6.09375,-6.9062 L 42.46875,1036.3553 z m -29.71875,6.9062 0,1.125 2.28125,0 C 15.00476,1044.0751 15,1043.7674 15,1043.449 l 0,-0.1875 L 12.75,1043.2615 z m 20.5625,0 0,0.1875 c 0,0.3184 -0.0047,0.6261 -0.03125,0.9375 l 2.28125,0 0,-1.125 L 33.3125,1043.2615 Z"
         id="path1042"
         inkscape:connector-curvature="0" />
      <path
         inkscape:connector-curvature="0"
         id="path1040"
         d="m 24.15625,1016.3552 c -5.076026,0 -9.15625,4.4558 -9.15625,10 l 0,1.125 c 0,-5.5442 4.080224,-10 9.15625,-10 5.076025,0 9.15625,4.456 9.15625,10 l 0,-1.125 C 33.3125,1020.8112 29.232275,1016.3552 24.15625,1016.3552 z m -18.625,19.3438 0,1.125 c 0,3.5792 2.6844623,6.4184 6.125,6.9062 l 0,-1.125 C 8.2157123,1042.1174 5.53125,1039.2782 5.53125,1035.699 z m 36.9375,0 c 0,3.5792 -2.653219,6.418 -6.09375,6.9062 l 0,1.125 c 3.440531,-0.4882 6.09375,-3.327 6.09375,-6.9062 L 42.46875,1035.699 z m -29.71875,6.9062 0,1.125 2.28125,0 C 15.00476,1043.4188 15,1043.1111 15,1042.7927 l 0,-0.1875 L 12.75,1042.6052 z m 20.5625,0 0,0.1875 c 0,0.3184 -0.0047,0.6261 -0.03125,0.9375 l 2.28125,0 0,-1.125 L 33.3125,1042.6052 Z"
         style="fill:#000000;fill-opacity:0.07692309;stroke:none" />
      <path
         id="path1044"
         d="m 24.15625,1013.0073 c -6.317612,0 -11.40625,5.0887 -11.40625,11.4063 l 0,1.0625 c 0,-6.3176 5.088638,-11.4063 11.40625,-11.4063 6.317612,0 11.406269,5.0887 11.40625,11.4063 l 0,-1.0625 C 35.562519,1018.096 30.473862,1013.0073 24.15625,1013.0073 z m -12.5,12.875 c -3.4405377,0.4876 -6.125,3.2955 -6.125,6.875 l 0,1.0625 c 0,-3.5795 2.6844623,-6.3874 6.125,-6.875 L 11.65625,1025.8823 z m 24.71875,0 0,1.0625 c 3.440531,0.4877 6.09375,3.2955 6.09375,6.875 l 0,-1.0625 C 42.46875,1029.1778 39.815531,1026.37 36.375,1025.8823 Z M 15,1040.7886 l 0,0.9687 0.03125,0 C 15.00476,1041.4459 15,1041.107 15,1040.7886 z m 18.3125,0 c 0,0.3184 -0.0047,0.6573 -0.03125,0.9687 l 0.03125,0 L 33.3125,1040.7886 Z"
         style="fill:#ffffff;fill-opacity:0.02352941;stroke:none"
         inkscape:connector-curvature="0" />
      <path
         id="path1046"
         transform="translate(0,1004.3622)"
         d="m 24.15625,9.625 c -3.190344,0 -6.057168,1.306397 -8.125,3.40625 C 15.365155,14.420138 15,16.00572 15,17.6875 l 0,4.4375 c 0,-5.5442 4.080224,-10.03125 9.15625,-10.03125 5.076025,0 9.15625,4.48725 9.15625,10.03125 l 0,-4.4375 c 0,-1.68172 -0.365155,-3.267366 -1.03125,-4.65625 C 30.21342,10.931397 27.346594,9.625 24.15625,9.625 Z M 5.625,28.21875 C 5.5601645,28.599692 5.53125,28.972963 5.53125,29.375 l 0,2.09375 c 0,3.5792 2.6844623,6.41845 6.125,6.90625 l 0,-4.4375 C 8.6021419,33.504488 6.1374206,31.229387 5.625,28.21875 z m 36.75,0 c -0.508775,3.010571 -2.945898,5.285383 -6,5.71875 l 0,4.4375 c 3.440531,-0.4882 6.09375,-3.32705 6.09375,-6.90625 l 0,-2.09375 C 42.46875,28.972963 42.439374,28.59969 42.375,28.21875 z m -29.625,5.71875 0,4.4375 2.28125,0 C 15.00476,38.0636 15,37.72465 15,37.40625 L 15,33.9375 12.75,33.9375 z m 20.5625,0 0,3.46875 c 0,0.3184 -0.0047,0.65735 -0.03125,0.96875 l 2.28125,0 0,-4.4375 L 33.3125,33.9375 Z"
         style="fill:#000000;fill-opacity:0.15976329;stroke:none"
         inkscape:connector-curvature="0" />
    </g>
  </g>
</svg>
