<?xml version="1.0" encoding="UTF-8" standalone="no"?>
<!-- Created with Inkscape (http://www.inkscape.org/) -->

<svg
   xmlns:dc="http://purl.org/dc/elements/1.1/"
   xmlns:cc="http://creativecommons.org/ns#"
   xmlns:rdf="http://www.w3.org/1999/02/22-rdf-syntax-ns#"
   xmlns:svg="http://www.w3.org/2000/svg"
   xmlns="http://www.w3.org/2000/svg"
   xmlns:xlink="http://www.w3.org/1999/xlink"
   xmlns:sodipodi="http://sodipodi.sourceforge.net/DTD/sodipodi-0.dtd"
   xmlns:inkscape="http://www.inkscape.org/namespaces/inkscape"
   width="48"
   height="48"
   id="svg2"
   version="1.1"
   inkscape:version="0.48+devel r12106"
   sodipodi:docname="audience.svg">
  <defs
     id="defs4">
    <linearGradient
       id="linearGradient993"
       inkscape:collect="always">
      <stop
         id="stop995"
         offset="0"
         style="stop-color:#000000;stop-opacity:1" />
      <stop
         id="stop997"
         offset="1"
         style="stop-color:#1a1a1a;stop-opacity:1" />
    </linearGradient>
    <linearGradient
       id="linearGradient973">
      <stop
         id="stop975"
         style="stop-color:#ffffff;stop-opacity:1"
         offset="0" />
      <stop
         id="stop977"
         style="stop-color:#ffffff;stop-opacity:1"
         offset="0.5" />
      <stop
         id="stop979"
         style="stop-color:#f4f4f4;stop-opacity:1"
         offset="0.5" />
      <stop
         id="stop981"
         style="stop-color:#ebebeb;stop-opacity:1"
         offset="1" />
    </linearGradient>
    <linearGradient
       inkscape:collect="always"
       xlink:href="#linearGradient993"
       id="linearGradient994"
       x1="23.375"
       y1="1051.2372"
       x2="23.375"
       y2="1006.1122"
       gradientUnits="userSpaceOnUse"
       gradientTransform="translate(0,-1004.3622)" />
    <linearGradient
       inkscape:collect="always"
       xlink:href="#linearGradient993-5"
       id="linearGradient934"
       x1="24.748737"
       y1="-1052.7157"
       x2="24.748737"
       y2="-1004.6325"
       gradientUnits="userSpaceOnUse"
       gradientTransform="matrix(1,0,0,-1,0,-1004.3622)" />
    <linearGradient
       id="linearGradient993-5"
       inkscape:collect="always">
      <stop
         id="stop995-3"
         offset="0"
         style="stop-color:#000000;stop-opacity:1" />
      <stop
         id="stop997-7"
         offset="1"
         style="stop-color:#1a1a1a;stop-opacity:1" />
    </linearGradient>
    <linearGradient
       inkscape:collect="always"
       xlink:href="#linearGradient928"
       id="linearGradient991"
       gradientUnits="userSpaceOnUse"
       x1="24.748737"
       y1="-1052.7157"
       x2="24.748737"
       y2="-1004.6325"
       gradientTransform="matrix(0.62634623,0,0,0.75000021,8.9676805,-257.09032)" />
    <linearGradient
       inkscape:collect="always"
       id="linearGradient928">
      <stop
         style="stop-color:#b20000;stop-opacity:1"
         offset="0"
         id="stop930" />
      <stop
         style="stop-color:#fc0000;stop-opacity:1"
         offset="1"
         id="stop932" />
    </linearGradient>
    <linearGradient
       inkscape:collect="always"
       xlink:href="#linearGradient1104"
       id="linearGradient1110"
       x1="26.78167"
       y1="22.102215"
       x2="26.78167"
       y2="2.5683894"
       gradientUnits="userSpaceOnUse"
       gradientTransform="matrix(1.2236431,0,0,1,-5.383057,0)" />
    <linearGradient
       inkscape:collect="always"
       id="linearGradient1104">
      <stop
         style="stop-color:#ffffff;stop-opacity:1;"
         offset="0"
         id="stop1106" />
      <stop
         style="stop-color:#ffffff;stop-opacity:0;"
         offset="1"
         id="stop1108" />
    </linearGradient>
    <linearGradient
       inkscape:collect="always"
       xlink:href="#linearGradient1061"
       id="linearGradient1067"
       x1="24"
       y1="1.7045048"
       x2="24"
       y2="4.4456215"
       gradientUnits="userSpaceOnUse"
       gradientTransform="matrix(0.74555082,0,0,0.85714311,6.1067768,1007.7908)" />
    <linearGradient
       inkscape:collect="always"
       id="linearGradient1061">
      <stop
         style="stop-color:#000000;stop-opacity:1;"
         offset="0"
         id="stop1063" />
      <stop
         style="stop-color:#000000;stop-opacity:0;"
         offset="1"
         id="stop1065" />
    </linearGradient>
    <linearGradient
       inkscape:collect="always"
       xlink:href="#linearGradient1089"
       id="linearGradient1095"
       x1="25.588427"
       y1="46.674175"
       x2="25.588427"
       y2="44.199303"
       gradientUnits="userSpaceOnUse"
       gradientTransform="matrix(0.74555082,0,0,0.85714311,6.1067768,1007.7908)" />
    <linearGradient
       inkscape:collect="always"
       id="linearGradient1089">
      <stop
         style="stop-color:#f9f9f9;stop-opacity:1;"
         offset="0"
         id="stop1091" />
      <stop
         style="stop-color:#f9f9f9;stop-opacity:0;"
         offset="1"
         id="stop1093" />
    </linearGradient>
    <linearGradient
       inkscape:collect="always"
       xlink:href="#linearGradient973-1"
       id="linearGradient1142"
       x1="31.326933"
       y1="35.145226"
       x2="31.326933"
       y2="11.228292"
       gradientUnits="userSpaceOnUse" />
    <linearGradient
       id="linearGradient973-1">
      <stop
         id="stop975-2"
         style="stop-color:#ffffff;stop-opacity:1"
         offset="0" />
      <stop
         id="stop977-3"
         style="stop-color:#ffffff;stop-opacity:1"
         offset="0.5" />
      <stop
         id="stop979-1"
         style="stop-color:#f4f4f4;stop-opacity:1"
         offset="0.5" />
      <stop
         id="stop981-8"
         style="stop-color:#ebebeb;stop-opacity:1"
         offset="1" />
    </linearGradient>
  </defs>
  <sodipodi:namedview
     id="base"
     pagecolor="#ffffff"
     bordercolor="#666666"
     borderopacity="1.0"
     inkscape:pageopacity="0.0"
     inkscape:pageshadow="2"
     inkscape:zoom="2.8284273"
     inkscape:cx="51.404193"
     inkscape:cy="66.069767"
     inkscape:document-units="px"
     inkscape:current-layer="layer1"
     showgrid="false"
     inkscape:window-width="1366"
     inkscape:window-height="718"
     inkscape:window-x="0"
     inkscape:window-y="28"
     inkscape:window-maximized="1">
    <inkscape:grid
       type="xygrid"
       id="grid3850" />
  </sodipodi:namedview>
  <metadata
     id="metadata7">
    <rdf:RDF>
      <cc:Work
         rdf:about="">
        <dc:format>image/svg+xml</dc:format>
        <dc:type
           rdf:resource="http://purl.org/dc/dcmitype/StillImage" />
        <dc:title />
      </cc:Work>
    </rdf:RDF>
  </metadata>
  <g
     inkscape:label="Capa 1"
     inkscape:groupmode="layer"
     id="layer1"
     transform="translate(0,-1004.3622)">
    <path
       style="color:#000000;fill:#333333;fill-opacity:1;fill-rule:nonzero;stroke:none;stroke-width:0.2;marker:none;visibility:visible;display:inline;overflow:visible;enable-background:accumulate"
       d="M 7.59375 1.25 C 4.0722254 1.25 1.25 4.0722254 1.25 7.59375 L 1.25 40.40625 C 1.25 43.927775 4.0722254 46.75 7.59375 46.75 L 40.40625 46.75 C 43.927775 46.75 46.75 43.927775 46.75 40.40625 L 46.75 7.59375 C 46.75 4.0722254 43.927775 1.25 40.40625 1.25 L 7.59375 1.25 z M 3.59375 7.40625 C 3.6350067 7.3895656 3.6696397 7.40625 3.71875 7.40625 L 6.4375 7.40625 C 6.6339504 7.40625 6.78125 7.52215 6.78125 7.71875 L 6.78125 11.09375 C 6.78125 11.29015 6.6339504 11.4375 6.4375 11.4375 L 3.71875 11.4375 C 3.5223088 11.4375 3.375 11.29015 3.375 11.09375 L 3.375 7.71875 C 3.375 7.5713 3.4699799 7.4563031 3.59375 7.40625 z M 41.59375 7.40625 L 44.28125 7.40625 C 44.477692 7.40625 44.625 7.52215 44.625 7.71875 L 44.625 11.09375 C 44.625 11.29015 44.477692 11.4375 44.28125 11.4375 L 41.59375 11.4375 C 41.397306 11.4375 41.21875 11.29015 41.21875 11.09375 L 41.21875 7.71875 C 41.21875 7.52215 41.397306 7.40625 41.59375 7.40625 z M 3.71875 17.09375 L 6.4375 17.09375 C 6.6339504 17.09375 6.78125 17.27215 6.78125 17.46875 L 6.78125 20.8125 C 6.78125 21.009 6.6339504 21.15625 6.4375 21.15625 L 3.71875 21.15625 C 3.5223088 21.15625 3.375 21.009 3.375 20.8125 L 3.375 17.46875 C 3.375 17.27215 3.5223088 17.09375 3.71875 17.09375 z M 41.59375 17.09375 L 44.28125 17.09375 C 44.477692 17.09375 44.625 17.27215 44.625 17.46875 L 44.625 20.8125 C 44.625 21.009 44.477692 21.15625 44.28125 21.15625 L 41.59375 21.15625 C 41.397306 21.15625 41.21875 21.009 41.21875 20.8125 L 41.21875 17.46875 C 41.21875 17.27215 41.397306 17.09375 41.59375 17.09375 z M 3.71875 26.84375 L 6.4375 26.84375 C 6.6339504 26.84375 6.78125 26.991 6.78125 27.1875 L 6.78125 30.53125 C 6.78125 30.72765 6.6339504 30.90625 6.4375 30.90625 L 3.71875 30.90625 C 3.5223088 30.90625 3.375 30.72755 3.375 30.53125 L 3.375 27.1875 C 3.375 26.991 3.5223088 26.84375 3.71875 26.84375 z M 41.59375 26.84375 L 44.28125 26.84375 C 44.477692 26.84375 44.625 26.991 44.625 27.1875 L 44.625 30.53125 C 44.625 30.72765 44.477692 30.90625 44.28125 30.90625 L 41.59375 30.90625 C 41.397306 30.90625 41.21875 30.72755 41.21875 30.53125 L 41.21875 27.1875 C 41.21875 26.991 41.397306 26.84375 41.59375 26.84375 z M 3.71875 36.5625 L 6.4375 36.5625 C 6.6339504 36.5625 6.78125 36.70975 6.78125 36.90625 L 6.78125 40.28125 C 6.78125 40.47765 6.6339504 40.59375 6.4375 40.59375 L 3.71875 40.59375 C 3.5223088 40.59375 3.375 40.47765 3.375 40.28125 L 3.375 36.90625 C 3.375 36.70965 3.5223088 36.5625 3.71875 36.5625 z M 41.59375 36.5625 L 44.28125 36.5625 C 44.477692 36.5625 44.625 36.70975 44.625 36.90625 L 44.625 40.28125 C 44.625 40.47765 44.477692 40.59375 44.28125 40.59375 L 41.59375 40.59375 C 41.397306 40.59375 41.21875 40.47765 41.21875 40.28125 L 41.21875 36.90625 C 41.21875 36.70965 41.397306 36.5625 41.59375 36.5625 z "
       transform="translate(0,1004.3622)"
       id="rect6294" />
    <path
       style="color:#000000;fill:url(#linearGradient994);fill-opacity:1;fill-rule:nonzero;stroke:none;stroke-width:0.2;marker:none;visibility:visible;display:inline;overflow:visible;enable-background:accumulate"
       d="M 7.59375 1.75 C 4.3492254 1.75 1.75 4.3492254 1.75 7.59375 L 1.75 40.40625 C 1.75 43.650775 4.3492254 46.25 7.59375 46.25 L 40.40625 46.25 C 43.650775 46.25 46.25 43.650775 46.25 40.40625 L 46.25 7.59375 C 46.25 4.3492254 43.650775 1.75 40.40625 1.75 L 7.59375 1.75 z M 3.59375 7.40625 C 3.6350067 7.3895656 3.6696397 7.40625 3.71875 7.40625 L 6.4375 7.40625 C 6.6339504 7.40625 6.78125 7.52215 6.78125 7.71875 L 6.78125 11.09375 C 6.78125 11.29015 6.6339504 11.4375 6.4375 11.4375 L 3.71875 11.4375 C 3.5223088 11.4375 3.375 11.29015 3.375 11.09375 L 3.375 7.71875 C 3.375 7.5713 3.4699799 7.4563031 3.59375 7.40625 z M 41.59375 7.40625 L 44.28125 7.40625 C 44.477692 7.40625 44.625 7.52215 44.625 7.71875 L 44.625 11.09375 C 44.625 11.29015 44.477692 11.4375 44.28125 11.4375 L 41.59375 11.4375 C 41.397306 11.4375 41.21875 11.29015 41.21875 11.09375 L 41.21875 7.71875 C 41.21875 7.52215 41.397306 7.40625 41.59375 7.40625 z M 3.71875 17.09375 L 6.4375 17.09375 C 6.6339504 17.09375 6.78125 17.27215 6.78125 17.46875 L 6.78125 20.8125 C 6.78125 21.009 6.6339504 21.15625 6.4375 21.15625 L 3.71875 21.15625 C 3.5223088 21.15625 3.375 21.009 3.375 20.8125 L 3.375 17.46875 C 3.375 17.27215 3.5223088 17.09375 3.71875 17.09375 z M 41.59375 17.09375 L 44.28125 17.09375 C 44.477692 17.09375 44.625 17.27215 44.625 17.46875 L 44.625 20.8125 C 44.625 21.009 44.477692 21.15625 44.28125 21.15625 L 41.59375 21.15625 C 41.397306 21.15625 41.21875 21.009 41.21875 20.8125 L 41.21875 17.46875 C 41.21875 17.27215 41.397306 17.09375 41.59375 17.09375 z M 3.71875 26.84375 L 6.4375 26.84375 C 6.6339504 26.84375 6.78125 26.991 6.78125 27.1875 L 6.78125 30.53125 C 6.78125 30.72765 6.6339504 30.90625 6.4375 30.90625 L 3.71875 30.90625 C 3.5223088 30.90625 3.375 30.72755 3.375 30.53125 L 3.375 27.1875 C 3.375 26.991 3.5223088 26.84375 3.71875 26.84375 z M 41.59375 26.84375 L 44.28125 26.84375 C 44.477692 26.84375 44.625 26.991 44.625 27.1875 L 44.625 30.53125 C 44.625 30.72765 44.477692 30.90625 44.28125 30.90625 L 41.59375 30.90625 C 41.397306 30.90625 41.21875 30.72755 41.21875 30.53125 L 41.21875 27.1875 C 41.21875 26.991 41.397306 26.84375 41.59375 26.84375 z M 3.71875 36.5625 L 6.4375 36.5625 C 6.6339504 36.5625 6.78125 36.70975 6.78125 36.90625 L 6.78125 40.28125 C 6.78125 40.47765 6.6339504 40.59375 6.4375 40.59375 L 3.71875 40.59375 C 3.5223088 40.59375 3.375 40.47765 3.375 40.28125 L 3.375 36.90625 C 3.375 36.70965 3.5223088 36.5625 3.71875 36.5625 z M 41.59375 36.5625 L 44.28125 36.5625 C 44.477692 36.5625 44.625 36.70975 44.625 36.90625 L 44.625 40.28125 C 44.625 40.47765 44.477692 40.59375 44.28125 40.59375 L 41.59375 40.59375 C 41.397306 40.59375 41.21875 40.47765 41.21875 40.28125 L 41.21875 36.90625 C 41.21875 36.70965 41.397306 36.5625 41.59375 36.5625 z "
       id="rect6296"
       transform="translate(0,1004.3622)" />
    <path
       id="path6361"
       d="m 1.7499999,1012.5497 0,-0.5625 c 0,-3.2445 2.599225,-5.875 5.84375,-5.875 l 32.8125001,0 c 3.244525,0 5.84375,2.6305 5.84375,5.875 l 0,0.5625 c 0,-3.2445 -2.599225,-5.875 -5.84375,-5.875 l -32.8125001,0 C 4.3492249,1006.6747 1.7499999,1009.3052 1.7499999,1012.5497 Z"
       style="color:#000000;fill:#ffffff;fill-opacity:1;fill-rule:nonzero;stroke:none;stroke-width:0.2;marker:none;visibility:visible;display:inline;overflow:visible;enable-background:accumulate"
       inkscape:connector-curvature="0" />
    <path
       inkscape:connector-curvature="0"
       style="color:#000000;fill:#000000;fill-opacity:1;fill-rule:nonzero;stroke:none;stroke-width:0.2;marker:none;visibility:visible;display:inline;overflow:visible;enable-background:accumulate"
       d="m 1.7499999,1044.1747 0,0.5625 c 0,3.2445 2.599225,5.875 5.84375,5.875 l 32.8125001,0 c 3.244525,0 5.84375,-2.6305 5.84375,-5.875 l 0,-0.5625 c 0,3.2445 -2.599225,5.875 -5.84375,5.875 l -32.8125001,0 C 4.3492249,1050.0497 1.7499999,1047.4192 1.7499999,1044.1747 Z"
       id="path6388" />
    <rect
       transform="scale(1,-1)"
       ry="1.4584082"
       y="-1046.3622"
       x="8.9676914"
       height="36.000011"
       width="30.064617"
       id="rect989"
       style="fill:url(#linearGradient991);fill-opacity:1;stroke:none" />
    <path
       style="opacity:0.24800002;fill:url(#linearGradient1110);fill-opacity:1;stroke:none"
       d="M 7.59375 1.75 C 4.3492254 1.75 1.75 4.3492254 1.75 7.59375 L 1.75 24 L 46.25 24 L 46.25 7.59375 C 46.25 4.3492254 43.650775 1.75 40.40625 1.75 L 7.59375 1.75 z M 3.59375 7.40625 C 3.6350067 7.3895656 3.6696397 7.40625 3.71875 7.40625 L 6.4375 7.40625 C 6.6339504 7.40625 6.78125 7.52215 6.78125 7.71875 L 6.78125 11.09375 C 6.78125 11.29015 6.6339504 11.4375 6.4375 11.4375 L 3.71875 11.4375 C 3.5223088 11.4375 3.375 11.29015 3.375 11.09375 L 3.375 7.71875 C 3.375 7.5713 3.4699799 7.4563031 3.59375 7.40625 z M 41.59375 7.40625 L 44.28125 7.40625 C 44.477692 7.40625 44.625 7.52215 44.625 7.71875 L 44.625 11.09375 C 44.625 11.29015 44.477692 11.4375 44.28125 11.4375 L 41.59375 11.4375 C 41.397306 11.4375 41.21875 11.29015 41.21875 11.09375 L 41.21875 7.71875 C 41.21875 7.52215 41.397306 7.40625 41.59375 7.40625 z M 3.71875 17.09375 L 6.4375 17.09375 C 6.6339504 17.09375 6.78125 17.27215 6.78125 17.46875 L 6.78125 20.8125 C 6.78125 21.009 6.6339504 21.15625 6.4375 21.15625 L 3.71875 21.15625 C 3.5223088 21.15625 3.375 21.009 3.375 20.8125 L 3.375 17.46875 C 3.375 17.27215 3.5223088 17.09375 3.71875 17.09375 z M 41.59375 17.09375 L 44.28125 17.09375 C 44.477692 17.09375 44.625 17.27215 44.625 17.46875 L 44.625 20.8125 C 44.625 21.009 44.477692 21.15625 44.28125 21.15625 L 41.59375 21.15625 C 41.397306 21.15625 41.21875 21.009 41.21875 20.8125 L 41.21875 17.46875 C 41.21875 17.27215 41.397306 17.09375 41.59375 17.09375 z "
       transform="translate(0,1004.3622)"
       id="rect1097" />
    <path
       style="opacity:0.53800001;fill:url(#linearGradient1067);fill-opacity:1;stroke:none"
       d="m 10.230604,1010.3622 c -0.7027719,0 -1.2581149,0.6384 -1.2581149,1.4463 l 0,2.1965 30.0550129,0 0,-2.1965 c 0,-0.8079 -0.555347,-1.4463 -1.258115,-1.4463 L 10.230604,1010.3622 Z"
       id="rect1054"
       inkscape:connector-curvature="0" />
    <path
       style="fill:url(#linearGradient1095);fill-opacity:1;stroke:none"
       d="m 8.9724891,1044.5141 0,0.4018 c 0,0.8079 0.555343,1.4463 1.2581149,1.4463 l 27.538783,0 c 0.702768,0 1.258115,-0.6384 1.258115,-1.4463 l 0,-0.4018 c 0,0.8079 -0.555347,1.473 -1.258115,1.473 l -27.538783,0 C 9.5278321,1045.9871 8.9724891,1045.322 8.9724891,1044.5141 Z"
       id="rect1082"
       inkscape:connector-curvature="0" />
    <path
       sodipodi:type="star"
       style="color:#000000;fill:#000000;fill-opacity:0.03137255;fill-rule:nonzero;stroke:none;stroke-width:0.5;marker:none;visibility:visible;display:inline;overflow:visible;enable-background:accumulate"
       id="path1152"
       sodipodi:sides="3"
       sodipodi:cx="26.472309"
       sodipodi:cy="23.162874"
       sodipodi:r1="13.904881"
       sodipodi:r2="6.9524403"
       sodipodi:arg1="0"
       sodipodi:arg2="1.0471976"
       inkscape:flatsided="true"
       inkscape:rounded="0"
       inkscape:randomized="0"
       d="M 40.37719,23.162874 19.519869,35.204854 19.519869,11.120894 Z"
       transform="matrix(1.0932053,0,0,1.0932053,-8.5768426,1005.2664)"
       inkscape:transform-center-x="-3.8002231"
       inkscape:transform-center-y="-1.6228683e-05" />
    <g
       id="g1201"
       transform="matrix(1.0042258,0,0,1.0042258,0.87306327,-4.3618318)">
      <path
         inkscape:transform-center-x="-4.053569"
         transform="matrix(1.1660856,0,0,1.1660856,-10.92255,1002.5676)"
         d="M 40.37719,23.162874 19.519869,35.204854 19.519869,11.120894 Z"
         inkscape:randomized="0"
         inkscape:rounded="0"
         inkscape:flatsided="true"
         sodipodi:arg2="1.0471976"
         sodipodi:arg1="0"
         sodipodi:r2="6.9524403"
         sodipodi:r1="13.904881"
         sodipodi:cy="23.162874"
         sodipodi:cx="26.472309"
         sodipodi:sides="3"
         id="path1148"
         style="color:#000000;fill:#000000;fill-opacity:0.07692309;fill-rule:nonzero;stroke:none;stroke-width:0.5;marker:none;visibility:visible;display:inline;overflow:visible;enable-background:accumulate"
         sodipodi:type="star" />
      <path
         sodipodi:type="star"
         style="color:#000000;fill:#000000;fill-opacity:0.04733725;fill-rule:nonzero;stroke:none;stroke-width:0.5;marker:none;visibility:visible;display:inline;overflow:visible;enable-background:accumulate"
         id="path1150"
         sodipodi:sides="3"
         sodipodi:cx="26.472309"
         sodipodi:cy="23.162874"
         sodipodi:r1="13.904881"
         sodipodi:r2="6.9524403"
         sodipodi:arg1="0"
         sodipodi:arg2="1.0471976"
         inkscape:flatsided="true"
         inkscape:rounded="0"
         inkscape:randomized="0"
         d="M 40.37719,23.162874 19.519869,35.204854 19.519869,11.120894 Z"
         transform="matrix(1.1660856,0,0,1.1660856,-10.92255,1003.1421)"
         inkscape:transform-center-x="-4.053569" />
      <path
         sodipodi:type="star"
         style="color:#000000;fill:#000000;fill-opacity:0.17159765;fill-rule:nonzero;stroke:none;stroke-width:0.5;marker:none;visibility:visible;display:inline;overflow:visible;enable-background:accumulate"
         id="path1144"
         sodipodi:sides="3"
         sodipodi:cx="26.472309"
         sodipodi:cy="23.162874"
         sodipodi:r1="13.904881"
         sodipodi:r2="6.9524403"
         sodipodi:arg1="0"
         sodipodi:arg2="1.0471976"
         inkscape:flatsided="true"
         inkscape:rounded="0"
         inkscape:randomized="0"
         d="M 40.37719,23.162874 19.519869,35.204854 19.519869,11.120894 Z"
         transform="matrix(1.1660856,0,0,1.1660856,-10.92255,1001.9931)"
         inkscape:transform-center-x="-4.053569" />
      <path
         inkscape:transform-center-x="-4.053569"
         transform="matrix(1.1660856,0,0,1.1660856,-10.92255,1001.3523)"
         d="M 40.37719,23.162874 19.519869,35.204854 19.519869,11.120894 Z"
         inkscape:randomized="0"
         inkscape:rounded="0"
         inkscape:flatsided="true"
         sodipodi:arg2="1.0471976"
         sodipodi:arg1="0"
         sodipodi:r2="6.9524403"
         sodipodi:r1="13.904881"
         sodipodi:cy="23.162874"
         sodipodi:cx="26.472309"
         sodipodi:sides="3"
         id="path1134"
         style="color:#000000;fill:url(#linearGradient1142);fill-opacity:1;fill-rule:nonzero;stroke:none;stroke-width:0.5;marker:none;visibility:visible;display:inline;overflow:visible;enable-background:accumulate"
         sodipodi:type="star" />
      <g
         transform="translate(2.1249985,1.27625)"
         id="g1112">
        <g
           id="layer1-2"
           transform="matrix(0.10416666,0,0,0.10416666,10.833334,924.08878)"
           style="fill:#000000;fill-opacity:0.45562134">
          <path
             style="fill:#000000;fill-opacity:0.45562134;stroke:none"
             id="path2993"
             inkscape:connector-curvature="0"
             d="m 64,940.36218 c -26.509667,0 -48,21.49034 -48,48 0,26.50972 21.490333,48.00002 48,48.00002 26.509664,0 48,-21.4903 48,-48.00002 C 112,961.85252 90.509664,940.36218 64,940.36218 z m 0,4 c 20.15479,0 37.14462,13.55176 42.355,32.04 -4.4877,9.25637 -10.873381,17.59038 -18.650002,24.32502 -3.735795,3.2352 -7.814534,6.1193 -12.32,8.15 -4.505465,2.0307 -9.461145,3.1829 -14.394998,2.9 -3.706902,-0.2126 -7.368725,-1.2452 -10.615,-3.045 8.603218,-4.6618 16.365742,-10.87737 22.720002,-18.32002 4.170803,-4.88521 7.819942,-10.43709 9.224998,-16.705 0.702528,-3.13395 0.821581,-6.4161 0.164998,-9.56 -0.656582,-3.1439 -2.110188,-6.1399 -4.309996,-8.48 -2.149082,-2.28613 -4.97033,-3.90553 -7.995002,-4.74 -3.024672,-0.83446 -6.24345,-0.89907 -9.33,-0.335 -6.173101,1.12814 -11.684554,4.71584 -16.105,9.17 -7.79168,7.8511 -12.608581,18.92915 -11.725,29.955 0.441789,5.51292 2.289248,10.93012 5.455,15.46502 0.706642,1.0122 1.483501,1.9764 2.315,2.89 -4.611828,1.614 -9.386995,2.7629 -14.23,3.41 C 22.40195,1004.7634 20,996.8442 20,988.36218 20,964.06165 39.69947,944.36218 64,944.36218 z m 0.28,8.89 c 3.093024,0.004 6.207066,0.94057 8.675002,2.805 2.223488,1.67977 3.871027,4.06951 4.804998,6.695 0.933971,2.62549 1.173658,5.47662 0.855002,8.245 -0.637319,5.53677 -3.430458,10.61442 -6.804999,15.05 -5.975053,7.85375 -13.917093,14.13972 -22.750003,18.54002 -0.904118,0.4504 -1.822565,0.8785 -2.745,1.29 -1.921973,-1.6819 -3.569314,-3.6768 -4.825,-5.90002 -2.623798,-4.64556 -3.489056,-10.16402 -2.98,-15.475 0.509056,-5.31097 2.331648,-10.42962 4.78,-15.17 2.838755,-5.49625 6.70822,-10.70239 12.125,-13.69 C 58.12339,954.14838 61.186973,953.24799 64.28,953.25218 z m 43.325,29.22 c 0.25778,1.9268 0.395,3.89265 0.395,5.89 0,24.30052 -19.699469,44.00002 -44,44.00002 -13.647425,0 -25.844438,-6.2128 -33.915,-15.965 4.98138,-1.1314 9.850072,-2.7565 14.52,-4.825 2.042194,1.5553 4.297558,2.8309 6.695,3.75 6.904163,2.6469 14.742694,2.2639 21.730003,-0.155 6.987303,-2.4189 13.183469,-6.7606 18.584999,-11.81 C 98.049619,997.34198 103.47485,990.25205 107.605,982.47218 Z" />
        </g>
        <path
           style="fill:#ffffff;fill-opacity:0.70414201;stroke:none"
           d="m 17.5,1022.4716 c -2.267105,0 -4.131702,1.6504 -4.5,3.8125 0.427377,-2.0885 2.285108,-3.6563 4.5,-3.6563 2.064019,0 3.800941,1.374 4.375,3.25 0.01062,-0.021 0.02083,-0.041 0.03125,-0.062 C 21.363502,1023.8894 19.599457,1022.4716 17.5,1022.4716 z m 0.03125,0.9375 c -0.32219,-4e-4 -0.655376,0.094 -0.9375,0.25 -0.564247,0.3112 -0.954297,0.8337 -1.25,1.4062 -0.255037,0.4938 -0.44697,1.0406 -0.5,1.5938 -0.0051,0.053 0.0024,0.1027 0,0.1562 0.05303,-0.5532 0.244963,-1.0999 0.5,-1.5937 0.295703,-0.5726 0.685753,-1.0951 1.25,-1.4063 0.282124,-0.1556 0.61531,-0.2505 0.9375,-0.25 0.32219,4e-4 0.649173,0.087 0.90625,0.2813 0.231613,0.1749 0.402712,0.414 0.5,0.6875 0.04865,0.1367 0.0795,0.293 0.09375,0.4375 -0.0038,-0.1972 -0.02773,-0.4082 -0.09375,-0.5938 -0.09729,-0.2735 -0.268387,-0.5125 -0.5,-0.6875 C 18.180423,1023.4961 17.85344,1023.4095 17.53125,1023.4091 z m 1.9375,1.6875 c -0.007,0.1465 -0.03041,0.2943 -0.0625,0.4375 -0.14636,0.6529 -0.534291,1.2411 -0.96875,1.75 -0.661902,0.7752 -1.447581,1.4206 -2.34375,1.9062 0.04952,0.027 0.104992,0.039 0.15625,0.062 0.83336,-0.4748 1.564661,-1.0829 2.1875,-1.8125 0.434459,-0.5089 0.82239,-1.0971 0.96875,-1.75 C 19.449674,1025.4966 19.472309,1025.2949 19.46875,1025.0966 z m 2.5625,1.3437 c -0.430223,0.8104 -0.985985,1.5607 -1.65625,2.1875 -0.56266,0.526 -1.209655,0.9668 -1.9375,1.2188 -0.727844,0.2518 -1.530817,0.3069 -2.25,0.031 -0.249734,-0.096 -0.506022,-0.2442 -0.71875,-0.4062 -0.486451,0.2155 -0.981106,0.3822 -1.5,0.5 0.03648,0.044 0.08692,0.082 0.125,0.125 0.475938,-0.116 0.927162,-0.2705 1.375,-0.4688 0.212728,0.162 0.469016,0.3106 0.71875,0.4063 0.719183,0.2757 1.522156,0.2205 2.25,-0.031 0.727845,-0.252 1.37484,-0.6927 1.9375,-1.2187 0.670265,-0.6266 1.226027,-1.3771 1.65625,-2.1875 C 22.026168,1026.5464 22.037896,1026.49 22.03125,1026.4403 z m -7.75,0.75 c 0.0017,0.055 -0.0044,0.1011 0,0.1563 0.04602,0.5743 0.232734,1.1526 0.5625,1.625 0.03909,0.056 0.08203,0.1031 0.125,0.1562 0.03981,-0.013 0.08542,-0.017 0.125,-0.031 -0.08661,-0.095 -0.17639,-0.1759 -0.25,-0.2813 C 14.513984,1028.3429 14.32727,1027.7645 14.28125,1027.1903 z m -1.75,0.375 c 0.18138,2.5964 2.326192,4.6563 4.96875,4.6563 2.642558,0 4.78737,-2.0599 4.96875,-4.6563 -0.25605,2.5213 -2.379916,4.5 -4.96875,4.5 C 14.911166,1032.0653 12.7873,1030.0866 12.53125,1027.5653 Z"
           id="path1016"
           inkscape:connector-curvature="0" />
        <path
           style="fill:#000000;fill-opacity:0.27218939;stroke:none"
           d="m 17.5,1021.9503 c -2.091778,0 -3.847754,1.3017 -4.59375,3.125 0.759041,-1.7946 2.522683,-3.0313 4.59375,-3.0313 2.071067,0 3.834709,1.2367 4.59375,3.0313 C 21.347753,1023.252 19.591778,1021.9503 17.5,1021.9503 z m 0.15625,1.0312 c -0.163396,-0.01 -0.307992,0 -0.46875,0.031 -0.643031,0.1175 -1.227037,0.4735 -1.6875,0.9375 -0.630355,0.6351 -1.063976,1.4943 -1.1875,2.375 0.140336,-0.8475 0.578775,-1.6679 1.1875,-2.2813 0.460463,-0.464 1.044469,-0.82 1.6875,-0.9375 0.321516,-0.059 0.65368,-0.056 0.96875,0.031 0.31507,0.087 0.588637,0.2619 0.8125,0.5 0.229147,0.2438 0.40036,0.5475 0.46875,0.875 -0.005,-0.031 0.0064,-0.063 0,-0.094 -0.06839,-0.3275 -0.239603,-0.6312 -0.46875,-0.875 -0.223863,-0.2381 -0.49743,-0.4131 -0.8125,-0.5 C 17.998715,1023.0005 17.819646,1022.9868 17.65625,1022.9815 z m 1.375,2.1563 c -0.06639,0.5768 -0.367235,1.1005 -0.71875,1.5625 -0.622401,0.8181 -1.454905,1.4791 -2.375,1.9375 -0.09418,0.047 -0.185163,0.082 -0.28125,0.125 -0.200206,-0.1751 -0.3692,-0.3623 -0.5,-0.5938 -0.125938,-0.223 -0.229183,-0.4681 -0.28125,-0.7187 0.05007,0.2733 0.144593,0.5392 0.28125,0.7812 0.1308,0.2315 0.299794,0.4498 0.5,0.625 0.09609,-0.043 0.18707,-0.078 0.28125,-0.125 0.920095,-0.4584 1.752599,-1.1194 2.375,-1.9375 0.351515,-0.462 0.65236,-0.9858 0.71875,-1.5625 C 19.034807,1025.2006 19.029046,1025.1688 19.03125,1025.1378 z m 2.84375,0.5937 c -0.466412,0.9486 -1.10715,1.808 -1.90625,2.5 -0.389146,0.337 -0.81193,0.6323 -1.28125,0.8438 -0.469319,0.2116 -0.986057,0.342 -1.5,0.3125 -0.353006,-0.02 -0.684328,-0.1224 -1,-0.2813 -0.03245,0.018 -0.06106,0.045 -0.09375,0.062 0.338154,0.1875 0.707614,0.2905 1.09375,0.3125 0.513943,0.029 1.030681,-0.1009 1.5,-0.3125 0.46932,-0.2115 0.892104,-0.5067 1.28125,-0.8437 0.810064,-0.7015 1.470031,-1.5671 1.9375,-2.5313 C 21.900072,1025.7721 21.881495,1025.7533 21.875,1025.7315 z m 0.125,2.125 c -0.427379,2.0886 -2.285108,3.6563 -4.5,3.6563 -1.39076,0 -2.628188,-0.6158 -3.46875,-1.5938 -0.0219,0.01 -0.04056,0.026 -0.0625,0.031 0.840683,1.0158 2.109644,1.6562 3.53125,1.6562 C 19.747278,1031.6065 21.608751,1029.9907 22,1027.8565 z m -8.90625,0.375 c 0.116826,0.4259 0.273023,0.852 0.5,1.2188 0.50448,-0.067 1.019601,-0.2069 1.5,-0.375 -0.02031,-0.022 -0.04284,-0.04 -0.0625,-0.062 -0.460674,0.1566 -0.955217,0.2793 -1.4375,0.3437 C 13.377185,1029.0066 13.210442,1028.6357 13.09375,1028.2315 Z"
           id="path1027"
           inkscape:connector-curvature="0" />
      </g>
    </g>
    <path
       style="color:#000000;fill:#ffffff;fill-opacity:0.36686389;fill-rule:nonzero;stroke:none;stroke-width:0.5;marker:none;visibility:visible;display:inline;overflow:visible;enable-background:accumulate"
       d="m 6.7935064,1015.4629 c 0,0.1964 -0.1454006,0.3418 -0.341851,0.3418 l -2.7348066,0 c -0.1473332,0 -0.29174,-0.075 -0.3418508,-0.1993 l 0,0.056 c 0,0.1963 0.1454096,0.3418 0.3418508,0.3418 l 2.7348066,0 c 0.1964504,0 0.341851,-0.1455 0.341851,-0.3418 L 6.7935064,1015.4629 z m 34.4129876,0 0,0.1994 c 0,0.1964 0.202382,0.342 0.398826,0.342 l 2.677832,0 c 0.196442,0 0.34185,-0.1456 0.34185,-0.342 l 0,-0.056 c -0.0501,0.1237 -0.194519,0.1993 -0.34185,0.1993 l -2.677832,0 C 41.408876,1015.8047 41.206494,1015.6593 41.206494,1015.4629 z m -34.4129876,9.7143 c 0,0.1965 -0.1454006,0.3418 -0.341851,0.3418 l -2.7348066,0 c -0.1473332,0 -0.29174,-0.075 -0.3418508,-0.1994 l 0,0.056 c 0,0.1964 0.1454096,0.3418 0.3418508,0.3418 l 2.7348066,0 c 0.1964504,0 0.341851,-0.1454 0.341851,-0.3418 L 6.7935064,1025.1772 z m 34.4129876,0 0,0.1993 c 0,0.1965 0.202382,0.342 0.398826,0.342 l 2.677832,0 c 0.196442,0 0.34185,-0.1455 0.34185,-0.342 l 0,-0.056 c -0.0501,0.1238 -0.194519,0.1994 -0.34185,0.1994 l -2.677832,0 C 41.408876,1025.519 41.206494,1025.3737 41.206494,1025.1772 z m -34.4129876,9.7142 c 0,0.1964 -0.1454006,0.3705 -0.341851,0.3705 l -2.7348066,0 c -0.1473332,0 -0.29174,-0.096 -0.3418508,-0.228 l 0,0.056 c 0,0.1963 0.1454096,0.3702 0.3418508,0.3702 l 2.7348066,0 c 0.1964504,0 0.341851,-0.1739 0.341851,-0.3702 L 6.7935064,1034.8914 z m 34.4129876,0 0,0.1994 c 0,0.1964 0.202382,0.3704 0.398826,0.3704 l 2.677832,0 c 0.196442,0 0.34185,-0.174 0.34185,-0.3704 l 0,-0.056 c -0.0501,0.1317 -0.194519,0.2278 -0.34185,0.2278 l -2.677832,0 C 41.408876,1035.2619 41.206494,1035.0878 41.206494,1034.8914 z m -34.4129876,9.7427 c 0,0.1964 -0.1454006,0.342 -0.341851,0.342 l -2.7348066,0 c -0.1473332,0 -0.29174,-0.075 -0.3418508,-0.1995 l 0,0.056 c 0,0.1964 0.1454096,0.3418 0.3418508,0.3418 l 2.7348066,0 c 0.1964504,0 0.341851,-0.1454 0.341851,-0.3418 L 6.7935064,1044.6341 z m 34.4129876,0 0,0.1996 c 0,0.1963 0.202382,0.3418 0.398826,0.3418 l 2.677832,0 c 0.196442,0 0.34185,-0.1455 0.34185,-0.3418 l 0,-0.056 c -0.0501,0.1237 -0.194519,0.1993 -0.34185,0.1993 l -2.677832,0 C 41.408876,1044.9761 41.206494,1044.8305 41.206494,1044.6341 Z"
       id="rect1170"
       inkscape:connector-curvature="0" />
  </g>
</svg>
