<?xml version="1.0" encoding="UTF-8" standalone="no"?>
<!-- Created with Inkscape (http://www.inkscape.org/) -->

<svg
   xmlns:dc="http://purl.org/dc/elements/1.1/"
   xmlns:cc="http://creativecommons.org/ns#"
   xmlns:rdf="http://www.w3.org/1999/02/22-rdf-syntax-ns#"
   xmlns:svg="http://www.w3.org/2000/svg"
   xmlns="http://www.w3.org/2000/svg"
   xmlns:xlink="http://www.w3.org/1999/xlink"
   xmlns:sodipodi="http://sodipodi.sourceforge.net/DTD/sodipodi-0.dtd"
   xmlns:inkscape="http://www.inkscape.org/namespaces/inkscape"
   width="48"
   height="48"
   id="svg2"
   version="1.1"
   inkscape:version="0.48+devel r12106"
   sodipodi:docname="avastgui.svg">
  <defs
     id="defs4">
    <linearGradient
       inkscape:collect="always"
       id="linearGradient43">
      <stop
         style="stop-color:#f9f9f9;stop-opacity:1"
         offset="0"
         id="stop45" />
      <stop
         style="stop-color:#ffffff;stop-opacity:1"
         offset="1"
         id="stop47" />
    </linearGradient>
    <linearGradient
       inkscape:collect="always"
       xlink:href="#linearGradient884"
       id="linearGradient890"
       x1="40.835415"
       y1="1045.8214"
       x2="14.058878"
       y2="1030.3619"
       gradientUnits="userSpaceOnUse"
       gradientTransform="matrix(0.96630974,0,0,0.96630974,0.81224667,34.10679)" />
    <linearGradient
       inkscape:collect="always"
       id="linearGradient884">
      <stop
         style="stop-color:#f46300;stop-opacity:1"
         offset="0"
         id="stop886" />
      <stop
         style="stop-color:#ffaf35;stop-opacity:1"
         offset="1"
         id="stop888" />
    </linearGradient>
    <linearGradient
       inkscape:collect="always"
       xlink:href="#linearGradient921"
       id="linearGradient927"
       x1="26"
       y1="1029.8622"
       x2="19.515635"
       y2="1023.3778"
       gradientUnits="userSpaceOnUse" />
    <linearGradient
       inkscape:collect="always"
       id="linearGradient921">
      <stop
         style="stop-color:#29333d;stop-opacity:1"
         offset="0"
         id="stop923" />
      <stop
         style="stop-color:#617b93;stop-opacity:1"
         offset="1"
         id="stop925" />
    </linearGradient>
    <radialGradient
       inkscape:collect="always"
       xlink:href="#linearGradient910"
       id="radialGradient908"
       cx="17.812817"
       cy="1022.6131"
       fx="17.812817"
       fy="1022.6131"
       r="16.010185"
       gradientTransform="matrix(0.74374722,0,0,0.96568552,4.776712,34.74871)"
       gradientUnits="userSpaceOnUse" />
    <linearGradient
       id="linearGradient910"
       inkscape:collect="always">
      <stop
         id="stop912"
         offset="0"
         style="stop-color:#fbede4;stop-opacity:1" />
      <stop
         id="stop914"
         offset="1"
         style="stop-color:#ffaf35;stop-opacity:0" />
    </linearGradient>
    <linearGradient
       inkscape:collect="always"
       xlink:href="#linearGradient43"
       id="linearGradient893"
       x1="24.25"
       y1="1050.3622"
       x2="24.25"
       y2="1005.8622"
       gradientUnits="userSpaceOnUse" />
  </defs>
  <sodipodi:namedview
     id="base"
     pagecolor="#ffffff"
     bordercolor="#666666"
     borderopacity="1.0"
     inkscape:pageopacity="0.0"
     inkscape:pageshadow="2"
     inkscape:zoom="4"
     inkscape:cx="79.682743"
     inkscape:cy="33.791303"
     inkscape:document-units="px"
     inkscape:current-layer="layer1"
     showgrid="false"
     inkscape:window-width="1366"
     inkscape:window-height="718"
     inkscape:window-x="0"
     inkscape:window-y="28"
     inkscape:window-maximized="1" />
  <metadata
     id="metadata7">
    <rdf:RDF>
      <cc:Work
         rdf:about="">
        <dc:format>image/svg+xml</dc:format>
        <dc:type
           rdf:resource="http://purl.org/dc/dcmitype/StillImage" />
        <dc:title />
      </cc:Work>
    </rdf:RDF>
  </metadata>
  <g
     inkscape:label="Capa 1"
     inkscape:groupmode="layer"
     id="layer1"
     transform="translate(0,-1004.3622)">
    <rect
       style="color:#000000;fill:#333333;fill-opacity:1;fill-rule:nonzero;stroke:none;stroke-width:0.2;marker:none;visibility:visible;display:inline;overflow:visible;enable-background:accumulate"
       id="rect6294"
       width="45.5"
       height="45.5"
       x="1.25"
       y="1005.6122"
       ry="6.3565426" />
    <rect
       ry="5.8565426"
       y="1006.1122"
       x="1.75"
       height="44.5"
       width="44.5"
       id="rect6296"
       style="color:#000000;fill:url(#linearGradient893);fill-opacity:1;fill-rule:nonzero;stroke:none;stroke-width:0.2;marker:none;visibility:visible;display:inline;overflow:visible;enable-background:accumulate" />
    <path
       id="path6361"
       d="m 1.75,1012.5497 0,-0.5625 c 0,-3.2445 2.599225,-5.875 5.84375,-5.875 l 32.8125,0 c 3.244525,0 5.84375,2.6305 5.84375,5.875 l 0,0.5625 c 0,-3.2445 -2.599225,-5.875 -5.84375,-5.875 l -32.8125,0 C 4.349225,1006.6747 1.75,1009.3052 1.75,1012.5497 Z"
       style="color:#000000;fill:#ffffff;fill-opacity:1;fill-rule:nonzero;stroke:none;stroke-width:0.2;marker:none;visibility:visible;display:inline;overflow:visible;enable-background:accumulate"
       inkscape:connector-curvature="0" />
    <path
       inkscape:connector-curvature="0"
       style="color:#000000;fill:#000000;fill-opacity:1;fill-rule:nonzero;stroke:none;stroke-width:0.2;marker:none;visibility:visible;display:inline;overflow:visible;enable-background:accumulate"
       d="m 1.75,1044.1747 0,0.5625 c 0,3.2445 2.599225,5.875 5.84375,5.875 l 32.8125,0 c 3.244525,0 5.84375,-2.6305 5.84375,-5.875 l 0,-0.5625 c 0,3.2445 -2.599225,5.875 -5.84375,5.875 l -32.8125,0 C 4.349225,1050.0497 1.75,1047.4192 1.75,1044.1747 Z"
       id="path6388" />
    <g
       id="g929"
       transform="matrix(0.93749998,0,0,0.93749998,1.5000003,64.272629)">
      <path
         inkscape:connector-curvature="0"
         id="path902"
         d="m 37.236648,1017.0528 c -0.06329,0.6747 -0.183586,0.9731 -0.543549,1.6307 -0.590052,1.0778 -1.656464,1.7924 -2.989521,2.0231 -1.39,0.2408 -2.471272,1.1612 -2.959323,2.5065 -0.06499,0.179 -0.08487,0.6225 -0.09059,1.2984 0.01086,-0.4221 0.03845,-0.6113 0.09059,-0.7549 0.488051,-1.3453 1.569323,-2.2657 2.959323,-2.5064 1.333057,-0.2308 2.399469,-0.9453 2.989521,-2.0232 0.382135,-0.698 0.481515,-0.9817 0.543549,-1.7514 C 37.248409,1017.3297 37.241477,1017.1957 37.236648,1017.0528 z m -21.802363,0.6341 c -0.107397,0.8322 0.353798,1.3352 1.056901,1.6911 0.62113,0.327 0.981163,0.6831 1.117296,1.2079 0.04276,-0.1464 0.06983,-0.2744 0,-0.5436 -0.136133,-0.5248 -0.496166,-0.8809 -1.117296,-1.2079 C 15.957251,1018.5641 15.54734,1018.2062 15.434285,1017.6869 z m 7.186928,3.7747 c -2.044658,0.017 -3.831487,1.1354 -4.771154,2.9895 -0.434297,0.857 -0.603237,1.8177 -0.543549,2.748 0.0252,-0.7555 0.191437,-1.5096 0.543549,-2.2045 0.939667,-1.8538 2.726496,-2.9724 4.771154,-2.9894 1.507977,-0.013 2.692164,0.4769 3.804845,1.54 0.567205,0.5419 0.737511,0.7628 1.056901,1.4193 0.209473,0.4306 0.399187,0.904 0.422761,1.0569 0.02357,0.1528 0.08477,0.4386 0.120788,0.6341 0.01902,0.1033 0.02287,0.2355 0.0302,0.3624 0.01508,-0.3341 0.01349,-0.6687 -0.0302,-0.9059 -0.03601,-0.1956 -0.09722,-0.4813 -0.120788,-0.6342 -0.02358,-0.1529 -0.213288,-0.6263 -0.422761,-1.0569 -0.31939,-0.6565 -0.489696,-0.8774 -1.056901,-1.4193 C 25.313377,1021.9386 24.12919,1021.449 22.621213,1021.4616 z m -0.120788,3.7746 c -0.79709,0.097 -1.484735,0.7565 -1.479662,1.6307 4.41e-4,0.076 0.01619,0.1637 0.0302,0.2416 0.18454,-1.0003 1.292534,-1.6481 2.264788,-1.2381 0.344757,0.1453 0.783082,0.5802 0.905916,0.9059 0.02588,0.069 0.04422,0.3063 0.06039,0.6341 -0.01407,-0.5851 -0.02288,-1.0781 -0.06039,-1.1776 -0.122834,-0.3258 -0.561159,-0.7606 -0.905916,-0.9059 C 23.049012,1025.2144 22.766121,1025.204 22.500425,1025.2362 z m -3.11031,1.9025 c -0.0052,0.092 -0.02977,0.1724 -0.0302,0.2717 -0.0026,0.6001 0.05908,0.855 0.21138,1.2382 0.23551,0.5924 0.890974,1.323 1.479662,1.6608 0.721303,0.4136 1.60804,0.3028 2.144,-0.2718 0.224377,-0.2405 0.462108,-0.7933 0.392563,-0.9059 -0.0096,-0.015 -0.08574,-0.016 -0.150986,-0.03 -0.07462,0.1527 -0.148969,0.2932 -0.241577,0.3926 -0.53596,0.5745 -1.422697,0.6854 -2.144,0.2717 -0.588688,-0.3377 -1.244152,-1.0684 -1.479662,-1.6608 C 19.44762,1027.7939 19.408376,1027.5341 19.390115,1027.1387 z m 6.582985,0.7851 c -0.01116,0.6085 -0.09124,0.8555 -0.362366,1.1777 -0.239247,0.2843 -0.80995,0.5738 -1.117296,0.5738 l -0.181183,0 0,0.5435 0.181183,0 c 0.307346,0 0.878049,-0.2895 1.117296,-0.5738 C 25.945879,1029.2467 25.999995,1028.9054 25.9731,1027.9238 z m -9.783886,4.6805 c -1.003994,0.084 -1.609882,0.4509 -2.234591,1.3891 -0.499233,0.7497 -0.54393,0.7817 -0.936113,1.0267 -0.722027,0.4518 -1.57723,0.628 -2.234591,0.4228 -0.9273015,-0.2895 -1.4915297,-0.7043 -1.8722258,-1.3891 -0.2080359,-0.3742 -0.3247516,-0.7596 -0.3623662,-1.1475 -0.057135,0.5588 0.058039,1.1436 0.3623662,1.6911 0.3806961,0.6848 0.9449243,1.0995 1.8722258,1.389 0.657361,0.2053 1.512564,0.029 2.234591,-0.4227 0.392183,-0.2451 0.43688,-0.2771 0.936113,-1.0267 0.624709,-0.9382 1.230597,-1.3049 2.234591,-1.3891 0.719193,-0.06 1.206556,0.073 1.781634,0.5435 0.481536,0.3936 1.533484,0.9855 2.174197,1.2079 0.894399,0.3104 1.622109,0.4151 3.140506,0.453 1.232656,0.031 1.575658,0.066 1.993014,0.2114 0.772829,0.2694 1.599936,0.789 2.083605,1.3286 0.532712,0.5944 1.048741,1.6462 1.17769,2.3857 0.302143,1.7326 0.929946,2.8294 2.204395,3.835 0.506929,0.3999 0.956991,0.6194 1.570253,0.8153 0.427497,0.1367 0.707472,0.1712 1.811831,0.151 1.480013,-0.027 1.84645,-0.1251 2.687549,-0.6341 0.556852,-0.3371 1.532167,-1.2268 1.721239,-1.5703 0.780881,-1.4189 0.936112,-1.9628 0.936112,-3.1103 0,-0.097 0.0021,-0.1798 0,-0.2718 -0.02772,0.9631 -0.222707,1.5422 -0.936112,2.8386 -0.189072,0.3435 -1.164387,1.2332 -1.721239,1.5702 -0.841099,0.5091 -1.207536,0.6071 -2.687549,0.6341 -1.104359,0.02 -1.384334,-0.014 -1.811831,-0.1509 -0.613262,-0.196 -1.063324,-0.4154 -1.570253,-0.8154 -1.274449,-1.0055 -1.902252,-2.1024 -2.204395,-3.835 -0.128949,-0.7394 -0.644978,-1.7912 -1.17769,-2.3856 -0.483669,-0.5397 -1.310776,-1.0593 -2.083605,-1.3287 -0.417356,-0.1457 -0.760358,-0.1804 -1.993014,-0.2113 -1.518397,-0.038 -2.246107,-0.1426 -3.140506,-0.453 -0.640713,-0.2225 -1.692661,-0.8143 -2.174197,-1.2079 C 17.39577,1032.6778 16.908407,1032.5444 16.189214,1032.6043 Z"
         style="fill:#000000;fill-opacity:0.05116278" />
      <path
         style="fill:#000000;fill-opacity:0.23720931"
         d="m 37.236648,1016.7753 c -0.06329,0.6747 -0.183586,0.9731 -0.543549,1.6307 -0.590052,1.0778 -1.656464,1.7924 -2.989521,2.0231 -1.39,0.2407 -2.471272,1.1611 -2.959323,2.5064 -0.06499,0.1791 -0.08487,0.6225 -0.09059,1.2985 0.01086,-0.4221 0.03845,-0.6113 0.09059,-0.7549 0.488051,-1.3453 1.569323,-2.2657 2.959323,-2.5064 1.333057,-0.2308 2.399469,-0.9454 2.989521,-2.0232 0.382135,-0.6981 0.481515,-0.9818 0.543549,-1.7514 C 37.248409,1017.0522 37.241477,1016.9181 37.236648,1016.7753 z m -21.802363,0.6341 c -0.107397,0.8322 0.353798,1.3352 1.056901,1.691 0.62113,0.327 0.981163,0.6831 1.117296,1.2079 0.04276,-0.1464 0.06983,-0.2743 0,-0.5435 -0.136133,-0.5248 -0.496166,-0.8809 -1.117296,-1.2079 C 15.957251,1018.2866 15.54734,1017.9287 15.434285,1017.4094 z m 7.186928,3.7747 c -2.044658,0.017 -3.831487,1.1354 -4.771154,2.9895 -0.434297,0.857 -0.603237,1.8177 -0.543549,2.748 0.0252,-0.7555 0.191437,-1.5096 0.543549,-2.2045 0.939667,-1.8538 2.726496,-2.9724 4.771154,-2.9894 1.507977,-0.013 2.692164,0.4769 3.804845,1.54 0.567205,0.5419 0.737511,0.7628 1.056901,1.4193 0.209473,0.4306 0.399187,0.904 0.422761,1.0568 0.02357,0.1529 0.08477,0.4386 0.120788,0.6342 0.01902,0.1033 0.02287,0.2355 0.0302,0.3624 0.01508,-0.3342 0.01349,-0.6687 -0.0302,-0.9059 -0.03601,-0.1956 -0.09722,-0.4814 -0.120788,-0.6342 -0.02358,-0.1529 -0.213288,-0.6263 -0.422761,-1.0569 -0.31939,-0.6565 -0.489696,-0.8774 -1.056901,-1.4193 C 25.313377,1021.6611 24.12919,1021.1714 22.621213,1021.1841 z m -0.120788,3.7746 c -0.79709,0.097 -1.484735,0.7565 -1.479662,1.6306 4.41e-4,0.076 0.01619,0.1637 0.0302,0.2416 0.18454,-1.0002 1.292534,-1.648 2.264788,-1.238 0.344757,0.1453 0.783082,0.5802 0.905916,0.9059 0.02588,0.069 0.04422,0.3062 0.06039,0.6341 -0.01407,-0.5851 -0.02288,-1.0781 -0.06039,-1.1776 -0.122834,-0.3258 -0.561159,-0.7606 -0.905916,-0.906 C 23.049012,1024.9369 22.766121,1024.9264 22.500425,1024.9587 z m -3.11031,1.9025 c -0.0052,0.092 -0.02977,0.1724 -0.0302,0.2717 -0.0026,0.6001 0.05908,0.855 0.21138,1.2381 0.23551,0.5925 0.890974,1.3231 1.479662,1.6608 0.721303,0.4137 1.60804,0.3029 2.144,-0.2717 0.224377,-0.2405 0.462108,-0.7933 0.392563,-0.9059 -0.0096,-0.015 -0.08574,-0.016 -0.150986,-0.03 -0.07462,0.1528 -0.148969,0.2933 -0.241577,0.3926 -0.53596,0.5746 -1.422697,0.6854 -2.144,0.2718 -0.588688,-0.3378 -1.244152,-1.0684 -1.479662,-1.6608 C 19.44762,1027.5163 19.408376,1027.2566 19.390115,1026.8612 z m 6.582985,0.7851 c -0.01116,0.6085 -0.09124,0.8555 -0.362366,1.1776 -0.239247,0.2843 -0.80995,0.5738 -1.117296,0.5738 l -0.181183,0 0,0.5436 0.181183,0 c 0.307346,0 0.878049,-0.2895 1.117296,-0.5738 C 25.945879,1028.9692 25.999995,1028.6279 25.9731,1027.6463 z m -9.783886,4.6805 c -1.003994,0.084 -1.609882,0.4509 -2.234591,1.3891 -0.499233,0.7496 -0.54393,0.7816 -0.936113,1.0267 -0.722027,0.4517 -1.57723,0.628 -2.234591,0.4227 -0.9273015,-0.2895 -1.4915297,-0.7042 -1.8722258,-1.389 -0.2080359,-0.3742 -0.3247516,-0.7596 -0.3623662,-1.1475 -0.057135,0.5588 0.058039,1.1436 0.3623662,1.691 0.3806961,0.6849 0.9449243,1.0996 1.8722258,1.3891 0.657361,0.2052 1.512564,0.029 2.234591,-0.4228 0.392183,-0.245 0.43688,-0.277 0.936113,-1.0267 0.624709,-0.9382 1.230597,-1.3049 2.234591,-1.389 0.719193,-0.06 1.206556,0.073 1.781634,0.5435 0.481536,0.3936 1.533484,0.9855 2.174197,1.2079 0.894399,0.3104 1.622109,0.4151 3.140506,0.453 1.232656,0.031 1.575658,0.066 1.993014,0.2113 0.772829,0.2694 1.599936,0.789 2.083605,1.3287 0.532712,0.5944 1.048741,1.6462 1.17769,2.3856 0.302143,1.7326 0.929946,2.8295 2.204395,3.835 0.506929,0.4 0.956991,0.6194 1.570253,0.8154 0.427497,0.1366 0.707472,0.1711 1.811831,0.1509 1.480013,-0.027 1.84645,-0.125 2.687549,-0.6341 0.556852,-0.337 1.532167,-1.2267 1.721239,-1.5702 0.780881,-1.4189 0.936112,-1.9629 0.936112,-3.1104 0,-0.097 0.0021,-0.1797 0,-0.2717 -0.02772,0.963 -0.222707,1.5421 -0.936112,2.8385 -0.189072,0.3436 -1.164387,1.2333 -1.721239,1.5703 -0.841099,0.5091 -1.207536,0.607 -2.687549,0.6341 -1.104359,0.02 -1.384334,-0.014 -1.811831,-0.1509 -0.613262,-0.196 -1.063324,-0.4155 -1.570253,-0.8154 -1.274449,-1.0056 -1.902252,-2.1024 -2.204395,-3.835 -0.128949,-0.7394 -0.644978,-1.7913 -1.17769,-2.3856 -0.483669,-0.5397 -1.310776,-1.0593 -2.083605,-1.3287 -0.417356,-0.1457 -0.760358,-0.1804 -1.993014,-0.2113 -1.518397,-0.038 -2.246107,-0.1427 -3.140506,-0.4531 -0.640713,-0.2224 -1.692661,-0.8143 -2.174197,-1.2078 C 17.39577,1032.4003 16.908407,1032.2669 16.189214,1032.3268 Z"
         id="path900"
         inkscape:connector-curvature="0" />
      <path
         id="path933-7"
         d="m 33.143867,1012.3624 c -0.234797,0 -0.47237,0.025 -0.711033,0.072 -1.656676,0.3222 -2.92676,1.5636 -3.267068,3.1957 -0.132898,0.6374 -0.295182,1.1352 -0.499571,1.5304 -0.173746,0.336 -0.923077,1.0659 -1.358644,1.3216 -0.673038,0.3952 -1.633822,0.6165 -2.024728,0.4679 -1.508054,-0.3367 -2.910318,-0.1345 -4.45654,-0.061 -0.755891,0.01 -1.040088,-0.1462 -1.385068,-0.7347 -0.175281,-0.2992 -0.211461,-0.4718 -0.211461,-0.9992 0,-0.7637 -0.209623,-1.3098 -0.658171,-1.7208 -1.194251,-1.0941 -3.138771,-0.2178 -3.145479,1.4168 -0.123334,0.851 0.358607,1.3605 1.07052,1.7208 0.621131,0.327 0.958177,0.7042 1.094309,1.229 0.103446,0.3988 0.09706,0.4768 -0.04493,0.7904 -0.08642,0.1908 -0.228663,0.4224 -0.317191,0.5154 -0.812245,0.8537 -1.644474,2.2243 -1.926936,3.1719 -0.247838,0.8315 -0.386011,2.0207 -0.343623,2.9578 0.03972,0.8785 0.03782,0.8904 -0.229965,1.3323 -0.596249,0.8468 -1.896642,1.2265 -2.476734,1.0731 -0.502568,-0.1337 -1.278895,-0.086 -1.437932,-0.035 -0.56027,0.1593 -1.0541168,0.507 -1.4590802,0.8273 -0.9107539,0.928 -1.0766786,2.2074 -0.4361378,3.3596 0.3806953,0.6848 0.9309103,1.0956 1.858212,1.3851 0.657361,0.2052 1.514169,0.052 2.236197,-0.3992 0.392183,-0.2451 0.433838,-0.2917 0.933071,-1.0414 0.624709,-0.9382 1.226916,-1.3142 2.23091,-1.3983 0.719193,-0.06 1.209122,0.093 1.7842,0.563 0.481537,0.3936 1.532048,0.9697 2.17276,1.1922 0.8944,0.3103 1.621799,0.4166 3.140196,0.4545 1.232655,0.031 1.586226,0.069 2.003582,0.2142 0.772831,0.2694 1.588646,0.7951 2.072316,1.3348 0.532711,0.5944 1.055231,1.6501 1.18418,2.3895 0.302144,1.7326 0.924743,2.814 2.199191,3.8195 0.506931,0.4 0.951549,0.634 1.56481,0.83 0.427498,0.1366 0.714205,0.1603 1.818563,0.1401 1.480013,-0.027 1.847101,-0.1121 2.688199,-0.6211 0.556852,-0.3371 1.536981,-1.2319 1.726052,-1.5754 0.780883,-1.4189 0.943639,-1.9531 0.943639,-3.1006 0,-0.5633 -0.0524,-1.0688 -0.140088,-1.3824 -0.615139,-2.1994 -2.184127,-3.6319 -4.461822,-4.0733 -0.791997,-0.1534 -1.057938,-0.2341 -1.564809,-0.4784 -1.182032,-0.5697 -2.262453,-1.9364 -2.56397,-3.2433 -0.0604,-0.2618 -0.100757,-1.3893 -0.10837,-2.9604 -0.01,-2.0734 0.0094,-2.6017 0.113665,-2.8891 0.488051,-1.3452 1.554583,-2.2467 2.944583,-2.4874 1.333056,-0.2307 2.407412,-0.9627 2.997463,-2.0405 0.382135,-0.6981 0.463971,-0.9643 0.526005,-1.734 C 37.405317,1014.3572 35.413594,1012.3494 33.143867,1012.3624 z m -10.530745,8.8416 c 1.507977,-0.013 2.706833,0.4701 3.819514,1.5332 0.567205,0.5419 0.737913,0.7708 1.057304,1.4273 0.209473,0.4306 0.399348,0.9097 0.422922,1.0625 0.02358,0.1529 0.07236,0.4362 0.108377,0.6318 0.127021,0.6899 -0.01847,1.9996 -0.303979,2.7226 -0.61256,1.551 -1.957924,2.7757 -3.581621,3.2591 -0.861465,0.2564 -2.23448,0.2412 -3.095252,-0.035 -0.606824,-0.1942 -1.48862,-0.7044 -1.958655,-1.134 -1.815529,-1.6593 -2.333582,-4.3328 -1.252905,-6.4654 C 18.768494,1022.3525 20.568464,1021.221 22.613122,1021.204 Z"
         style="fill:url(#linearGradient890);fill-opacity:1"
         inkscape:connector-curvature="0"
         sodipodi:nodetypes="csscsccsssccsssssccccsssssssssssscsssssssccsssscssssssscsss" />
      <path
         id="path929-3"
         d="m 22.57083,1023.2737 c -0.898822,0.01 -1.725743,0.3958 -2.402719,1.1366 -0.585127,0.6402 -0.796737,1.2244 -0.800907,2.1939 -0.0026,0.6001 0.03537,0.8645 0.187671,1.2476 0.23551,0.5925 0.896824,1.3382 1.485512,1.6759 0.721302,0.4137 1.602441,0.3023 2.138401,-0.2723 0.224377,-0.2405 0.47396,-0.81 0.404415,-0.9225 -0.02749,-0.044 -0.330902,-0.079 -0.674036,-0.079 -0.343133,0 -0.730732,-0.041 -0.861698,-0.09 -0.551767,-0.2086 -1.035232,-0.9265 -1.038802,-1.5411 -0.0068,-1.1655 1.224757,-1.9988 2.291703,-1.5489 0.344757,0.1453 0.791743,0.5967 0.914576,0.9224 0.05175,0.1373 0.08987,0.9163 0.08987,1.8398 l 0,1.6017 0.190315,0 c 0.307345,0 0.85771,-0.2919 1.096956,-0.5762 0.361505,-0.4296 0.428784,-0.7699 0.385916,-1.9481 -0.04774,-1.312 -0.220181,-1.8274 -0.83527,-2.5005 -0.500198,-0.5473 -0.987064,-0.847 -1.652041,-1.0203 C 23.177942,1023.3085 22.870444,1023.2705 22.57083,1023.2737 Z"
         style="fill:url(#linearGradient927);fill-opacity:1"
         inkscape:connector-curvature="0" />
      <path
         inkscape:connector-curvature="0"
         id="path876"
         d="m 33.153426,1012.3623 c -0.234798,0 -0.486069,0.014 -0.724732,0.06 -1.656676,0.3222 -2.920987,1.5688 -3.261296,3.2009 -0.132898,0.6374 -0.308963,1.1448 -0.513352,1.54 -0.173745,0.336 -0.923306,1.073 -1.358873,1.3287 -0.673037,0.3952 -1.632305,0.6016 -2.023211,0.453 -1.508054,-0.3367 -2.892763,-0.1341 -4.438985,-0.06 -0.755891,0.01 -1.04409,-0.1362 -1.38907,-0.7248 -0.08764,-0.1496 -0.150248,-0.2769 -0.181183,-0.4227 0.02102,0.2562 0.05674,0.4519 0.181183,0.6643 0.34498,0.5886 0.633179,0.7344 1.38907,0.7247 1.546222,-0.074 2.930931,-0.2762 4.438985,0.06 0.390906,0.1487 1.350174,-0.058 2.023211,-0.4529 0.435567,-0.2557 1.185128,-0.9927 1.358873,-1.3287 0.204389,-0.3952 0.380454,-0.9026 0.513352,-1.5401 0.340309,-1.6321 1.60462,-2.8786 3.261296,-3.2009 0.238663,-0.046 0.489934,-0.06 0.724732,-0.06 2.127868,-0.012 4.004178,1.7523 4.076619,3.8954 C 37.300691,1014.2461 35.362356,1012.3497 33.153426,1012.3623 z m -15.581744,2.5969 c -1.049637,-0.1378 -2.13897,0.6765 -2.144,1.9025 -0.02219,0.153 -0.04427,0.2906 -0.0302,0.4227 0.0027,-0.06 0.02088,-0.1169 0.0302,-0.1812 0.0067,-1.6346 1.946256,-2.5133 3.140506,-1.4192 0.336412,0.3082 0.552424,0.6825 0.634141,1.1777 -0.05201,-0.6067 -0.248045,-1.0656 -0.634141,-1.4193 C 18.269626,1015.1689 17.92156,1015.0052 17.571682,1014.9592 z m 0.06039,5.3147 c -0.01732,0.087 -0.03202,0.1727 -0.09059,0.302 -0.08642,0.1909 -0.213443,0.4505 -0.301971,0.5436 -0.812246,0.8536 -1.650158,2.223 -1.93262,3.1707 -0.208184,0.6984 -0.346729,1.634 -0.362366,2.4761 0.03787,-0.7692 0.176488,-1.6109 0.362366,-2.2346 0.282462,-0.9476 1.120374,-2.317 1.93262,-3.1707 0.08853,-0.093 0.215554,-0.3527 0.301971,-0.5435 C 17.643007,1020.5933 17.655275,1020.4591 17.632076,1020.2739 z m 4.952337,2.9896 c -0.898821,0.01 -1.738799,0.4067 -2.415774,1.1474 -0.585128,0.6402 -0.811154,1.2349 -0.815324,2.2044 -2.25e-4,0.052 -7.5e-4,0.074 0,0.1208 0.02335,-0.8943 0.256575,-1.4723 0.815324,-2.0836 0.676975,-0.7407 1.516953,-1.1378 2.415774,-1.1475 0.299614,0 0.593169,0.037 0.905916,0.1208 0.664976,0.1733 1.160647,0.4794 1.660845,1.0267 0.615089,0.6731 0.767578,1.1943 0.815323,2.5064 -0.0022,-0.087 0.0036,-0.1434 0,-0.2416 -0.04775,-1.312 -0.200234,-1.8333 -0.815323,-2.5064 -0.500198,-0.5473 -0.995869,-0.8534 -1.660845,-1.0267 C 23.177582,1023.3002 22.884027,1023.2602 22.584413,1023.2635 z m 5.495887,3.3216 c -0.01346,0.6718 -0.159579,1.4796 -0.362366,1.9931 -0.61256,1.551 -1.969768,2.7779 -3.593465,3.2613 -0.861465,0.2564 -2.21934,0.2457 -3.080112,-0.03 -0.606823,-0.1943 -1.492781,-0.7179 -1.962816,-1.1475 -1.111667,-1.0161 -1.746541,-2.4165 -1.811831,-3.8351 0.002,1.501 0.636806,3.0027 1.811831,4.0766 0.470035,0.4297 1.355993,0.9533 1.962816,1.1475 0.860772,0.2757 2.218647,0.2867 3.080112,0.03 1.623697,-0.4833 2.980905,-1.7102 3.593465,-3.2613 C 27.946205,1028.2417 28.099262,1027.2954 28.0803,1026.5851 z m -7.035943,0.1208 c -0.0046,0.051 -0.0305,0.099 -0.0302,0.151 0.0036,0.6146 0.474937,1.3315 1.026704,1.5401 0.130966,0.049 0.532586,0.091 0.875718,0.091 0.320474,0 0.576508,0.049 0.634141,0.091 0.03538,-0.1116 0.05401,-0.2031 0.0302,-0.2416 -0.02749,-0.044 -0.321204,-0.091 -0.664338,-0.091 -0.343132,0 -0.744752,-0.041 -0.875718,-0.091 C 21.515645,1027.9569 21.089751,1027.299 21.044357,1026.7059 z m -6.09983,1.3589 c -0.02434,0.1671 -0.07749,0.2924 -0.21138,0.5134 -0.596249,0.8468 -1.896077,1.2102 -2.476169,1.0569 -0.502568,-0.1338 -1.290427,-0.082 -1.449465,-0.03 -0.560269,0.1593 -1.0445012,0.495 -1.4494646,0.8153 -0.5158252,0.5256 -0.7838655,1.1717 -0.8153239,1.842 0.079463,-0.5855 0.3599469,-1.1364 0.8153239,-1.6004 0.4049634,-0.3204 0.8891956,-0.656 1.4494646,-0.8154 0.159038,-0.051 0.946897,-0.1035 1.449465,0.03 0.580092,0.1534 1.87992,-0.21 2.476169,-1.0569 C 14.910075,1028.5278 14.940558,1028.3543 14.944527,1028.0648 z m 15.793125,0.7247 c 0.0062,0.056 -0.0073,0.21 0,0.2416 0.301517,1.307 1.384727,2.6917 2.56676,3.2613 0.506871,0.2443 0.778256,0.3297 1.570253,0.4832 2.277695,0.4414 3.854044,1.8772 4.469183,4.0766 0.04384,0.1568 0.07135,0.3436 0.09059,0.5737 -0.01667,-0.3245 -0.03328,-0.6103 -0.09059,-0.8153 -0.615139,-2.1994 -2.191488,-3.6352 -4.469183,-4.0766 -0.791997,-0.1535 -1.063382,-0.2389 -1.570253,-0.4832 C 32.122379,1031.4812 31.039169,1030.0965 30.737652,1028.7895 Z"
         style="fill:#000000;fill-opacity:0.5372549" />
      <path
         inkscape:connector-curvature="0"
         id="path906"
         d="m 31.794553,1012.634 c -1.337971,0.4836 -2.332236,1.5752 -2.627155,2.9896 -0.132898,0.6374 -0.308963,1.1448 -0.513352,1.54 -0.173745,0.336 -0.923306,1.073 -1.358873,1.3287 -0.673037,0.3952 -1.632305,0.6016 -2.023211,0.453 -1.508054,-0.3367 -2.892763,-0.1341 -4.438985,-0.06 -0.755891,0.01 -1.04409,-0.1362 -1.38907,-0.7248 -0.175281,-0.2991 -0.211381,-0.4691 -0.211381,-0.9965 0,-0.7636 -0.21579,-1.3102 -0.664338,-1.7212 -1.19425,-1.0941 -3.133798,-0.2154 -3.140506,1.4193 -0.123334,0.851 0.344988,1.3609 1.056901,1.7212 0.62113,0.327 0.981163,0.6831 1.117296,1.2079 0.103445,0.3988 0.0816,0.4715 -0.06039,0.7851 -0.08642,0.1909 -0.213443,0.4505 -0.301971,0.5436 -0.812246,0.8536 -1.650158,2.223 -1.93262,3.1707 -0.247838,0.8315 -0.404753,2.0222 -0.362366,2.9593 0.03973,0.8785 0.0564,0.8868 -0.21138,1.3287 -0.596249,0.8468 -1.896077,1.2102 -2.476169,1.0569 -0.502568,-0.1338 -1.290427,-0.082 -1.449465,-0.03 -0.560269,0.1593 -1.0445012,0.495 -1.4494646,0.8153 -0.9107539,0.928 -1.0934985,2.2299 -0.4529577,3.3821 0.3806953,0.6848 0.944924,1.0995 1.8722253,1.389 0.657361,0.2053 1.512564,0.029 2.234591,-0.4227 0.392183,-0.2451 0.436881,-0.2771 0.936113,-1.0267 0.62471,-0.9382 1.230597,-1.3049 2.234591,-1.3891 0.719193,-0.06 1.206556,0.073 1.781634,0.5436 0.481536,0.3935 1.533484,0.9854 2.174197,1.2078 0.8944,0.3104 1.622109,0.4151 3.140506,0.453 1.232656,0.031 1.575658,0.066 1.993014,0.2114 0.636792,0.222 1.296331,0.6224 1.781634,1.0569 1.713452,-2.4668 2.870156,-5.2665 3.623661,-8.1533 -0.01625,-0.4949 -0.02668,-1.1159 -0.0302,-1.842 -0.01,-2.0734 -0.0137,-2.5813 0.09059,-2.8687 0.222845,-0.6142 0.586923,-1.1315 1.026704,-1.5401 C 32.052724,1018.2465 31.984967,1015.2362 31.794553,1012.634 z m -9.179943,8.576 c 1.507977,-0.013 2.692165,0.4771 3.804845,1.5401 0.567206,0.5419 0.737511,0.7628 1.056901,1.4193 0.209473,0.4306 0.399187,0.904 0.422761,1.0569 0.02358,0.1528 0.08477,0.4385 0.120789,0.6341 0.12702,0.6899 -0.01646,1.9948 -0.301972,2.7178 -0.61256,1.551 -1.969768,2.7779 -3.593465,3.2613 -0.861465,0.2564 -2.21934,0.2457 -3.080112,-0.03 -0.606823,-0.1943 -1.492781,-0.7179 -1.962816,-1.1475 -1.815529,-1.6594 -2.318762,-4.3297 -1.238085,-6.4622 C 18.783123,1022.3457 20.569952,1021.2271 22.61461,1021.21 Z"
         style="opacity:0.62999998;fill:url(#radialGradient908);fill-opacity:1" />
      <path
         style="fill:#000000;fill-opacity:0.01568627"
         d="m 37.236648,1017.3305 c -0.06329,0.6746 -0.183586,0.973 -0.543549,1.6306 -0.590052,1.0778 -1.656464,1.7924 -2.989521,2.0232 -1.39,0.2407 -2.471272,1.1611 -2.959323,2.5064 -0.06499,0.179 -0.08487,0.6225 -0.09059,1.2984 0.01086,-0.4221 0.03845,-0.6113 0.09059,-0.7549 0.488051,-1.3453 1.569323,-2.2657 2.959323,-2.5064 1.333057,-0.2307 2.399469,-0.9453 2.989521,-2.0231 0.382135,-0.6981 0.481515,-0.9818 0.543549,-1.7515 C 37.248409,1017.6073 37.241477,1017.4733 37.236648,1017.3305 z m -21.802363,0.6341 c -0.107397,0.8321 0.353798,1.3351 1.056901,1.691 0.62113,0.327 0.981163,0.6831 1.117296,1.2079 0.04276,-0.1464 0.06983,-0.2744 0,-0.5436 -0.136133,-0.5248 -0.496166,-0.8809 -1.117296,-1.2079 C 15.957251,1018.8418 15.54734,1018.4838 15.434285,1017.9646 z m 7.186928,3.7746 c -2.044658,0.017 -3.831487,1.1355 -4.771154,2.9895 -0.434297,0.857 -0.603237,1.8177 -0.543549,2.748 0.0252,-0.7555 0.191437,-1.5096 0.543549,-2.2044 0.939667,-1.8539 2.726496,-2.9725 4.771154,-2.9895 1.507977,-0.013 2.692164,0.477 3.804845,1.54 0.567205,0.5419 0.737511,0.7628 1.056901,1.4193 0.209473,0.4306 0.399187,0.904 0.422761,1.0569 0.02357,0.1528 0.08477,0.4386 0.120788,0.6342 0.01902,0.1033 0.02287,0.2355 0.0302,0.3623 0.01508,-0.3341 0.01349,-0.6687 -0.0302,-0.9059 -0.03601,-0.1956 -0.09722,-0.4813 -0.120788,-0.6342 -0.02358,-0.1528 -0.213288,-0.6262 -0.422761,-1.0568 -0.31939,-0.6565 -0.489696,-0.8774 -1.056901,-1.4193 C 25.313377,1022.2162 24.12919,1021.7266 22.621213,1021.7392 z m -0.120788,3.7746 c -0.79709,0.097 -1.484735,0.7566 -1.479662,1.6307 4.41e-4,0.076 0.01619,0.1637 0.0302,0.2416 0.18454,-1.0003 1.292534,-1.6481 2.264788,-1.2381 0.344757,0.1454 0.783082,0.5802 0.905916,0.906 0.02588,0.069 0.04422,0.3062 0.06039,0.634 -0.01407,-0.5851 -0.02288,-1.0781 -0.06039,-1.1776 -0.122834,-0.3257 -0.561159,-0.7606 -0.905916,-0.9059 C 23.049012,1025.492 22.766121,1025.4816 22.500425,1025.5138 z m -3.11031,1.9025 c -0.0052,0.092 -0.02977,0.1724 -0.0302,0.2717 -0.0026,0.6001 0.05908,0.855 0.21138,1.2382 0.23551,0.5924 0.890974,1.323 1.479662,1.6608 0.721303,0.4136 1.60804,0.3028 2.144,-0.2718 0.224377,-0.2405 0.462108,-0.7933 0.392563,-0.9059 -0.0096,-0.015 -0.08574,-0.016 -0.150986,-0.03 -0.07462,0.1527 -0.148969,0.2932 -0.241577,0.3926 -0.53596,0.5746 -1.422697,0.6854 -2.144,0.2717 -0.588688,-0.3377 -1.244152,-1.0683 -1.479662,-1.6608 C 19.44762,1028.0715 19.408376,1027.8117 19.390115,1027.4163 z m 6.582985,0.7851 c -0.01116,0.6085 -0.09124,0.8555 -0.362366,1.1777 -0.239247,0.2843 -0.80995,0.5738 -1.117296,0.5738 l -0.181183,0 0,0.5435 0.181183,0 c 0.307346,0 0.878049,-0.2895 1.117296,-0.5738 C 25.945879,1029.5243 25.999995,1029.183 25.9731,1028.2014 z m -9.783886,4.6806 c -1.003994,0.084 -1.609882,0.4508 -2.234591,1.389 -0.499233,0.7497 -0.54393,0.7817 -0.936113,1.0267 -0.722027,0.4518 -1.57723,0.628 -2.234591,0.4228 -0.9273015,-0.2895 -1.4915297,-0.7043 -1.8722258,-1.3891 -0.2080359,-0.3741 -0.3247516,-0.7596 -0.3623662,-1.1475 -0.057135,0.5588 0.058039,1.1437 0.3623662,1.6911 0.3806961,0.6848 0.9449243,1.0995 1.8722258,1.389 0.657361,0.2053 1.512564,0.029 2.234591,-0.4227 0.392183,-0.2451 0.43688,-0.2771 0.936113,-1.0267 0.624709,-0.9382 1.230597,-1.3049 2.234591,-1.3891 0.719193,-0.06 1.206556,0.073 1.781634,0.5436 0.481536,0.3935 1.533484,0.9854 2.174197,1.2078 0.894399,0.3104 1.622109,0.4152 3.140506,0.453 1.232656,0.031 1.575658,0.066 1.993014,0.2114 0.772829,0.2694 1.599936,0.789 2.083605,1.3287 0.532712,0.5943 1.048741,1.6462 1.17769,2.3856 0.302143,1.7326 0.929946,2.8294 2.204395,3.835 0.506929,0.3999 0.956991,0.6194 1.570253,0.8153 0.427497,0.1367 0.707472,0.1712 1.811831,0.151 1.480013,-0.027 1.84645,-0.1251 2.687549,-0.6341 0.556852,-0.3371 1.532167,-1.2267 1.721239,-1.5703 0.780881,-1.4189 0.936112,-1.9628 0.936112,-3.1103 0,-0.097 0.0021,-0.1798 0,-0.2717 -0.02772,0.963 -0.222707,1.5421 -0.936112,2.8385 -0.189072,0.3435 -1.164387,1.2332 -1.721239,1.5702 -0.841099,0.5091 -1.207536,0.6071 -2.687549,0.6341 -1.104359,0.02 -1.384334,-0.015 -1.811831,-0.1509 -0.613262,-0.196 -1.063324,-0.4154 -1.570253,-0.8154 -1.274449,-1.0055 -1.902252,-2.1024 -2.204395,-3.835 -0.128949,-0.7394 -0.644978,-1.7912 -1.17769,-2.3856 -0.483669,-0.5397 -1.310776,-1.0593 -2.083605,-1.3287 -0.417356,-0.1457 -0.760358,-0.1804 -1.993014,-0.2113 -1.518397,-0.038 -2.246107,-0.1426 -3.140506,-0.453 -0.640713,-0.2225 -1.692661,-0.8143 -2.174197,-1.2079 C 17.39577,1032.9554 16.908407,1032.822 16.189214,1032.882 Z"
         id="path919"
         inkscape:connector-curvature="0" />
    </g>
  </g>
</svg>
