<?xml version="1.0" encoding="UTF-8" standalone="no"?>
<!-- Created with Inkscape (http://www.inkscape.org/) -->

<svg
   xmlns:dc="http://purl.org/dc/elements/1.1/"
   xmlns:cc="http://creativecommons.org/ns#"
   xmlns:rdf="http://www.w3.org/1999/02/22-rdf-syntax-ns#"
   xmlns:svg="http://www.w3.org/2000/svg"
   xmlns="http://www.w3.org/2000/svg"
   xmlns:xlink="http://www.w3.org/1999/xlink"
   xmlns:sodipodi="http://sodipodi.sourceforge.net/DTD/sodipodi-0.dtd"
   xmlns:inkscape="http://www.inkscape.org/namespaces/inkscape"
   width="48"
   height="48"
   id="svg2"
   version="1.1"
   inkscape:version="0.48+devel r12112"
   sodipodi:docname="blender.svg">
  <defs
     id="defs4">
    <linearGradient
       id="linearGradient5632"
       inkscape:collect="always">
      <stop
         id="stop5634"
         offset="0"
         style="stop-color:#f9f9f9;stop-opacity:1" />
      <stop
         id="stop5636"
         offset="1"
         style="stop-color:#ffffff;stop-opacity:1" />
    </linearGradient>
    <linearGradient
       gradientTransform="matrix(0.92708333,0,0,1,1.75,1004.3621)"
       inkscape:collect="always"
       xlink:href="#linearGradient895"
       id="linearGradient901"
       x1="12.904698"
       y1="48.176777"
       x2="12.904698"
       y2="-0.26003784"
       gradientUnits="userSpaceOnUse" />
    <linearGradient
       inkscape:collect="always"
       id="linearGradient895">
      <stop
         style="stop-color:#f5f6f1;stop-opacity:1"
         offset="0"
         id="stop897" />
      <stop
         style="stop-color:#e9e8e6;stop-opacity:1"
         offset="1"
         id="stop899" />
    </linearGradient>
    <linearGradient
       inkscape:collect="always"
       xlink:href="#linearGradient2081"
       id="linearGradient2087"
       x1="32.875"
       y1="1044.2675"
       x2="32.875"
       y2="1012.3925"
       gradientUnits="userSpaceOnUse" />
    <linearGradient
       inkscape:collect="always"
       id="linearGradient2081">
      <stop
         style="stop-color:#de5d0a;stop-opacity:1"
         offset="0"
         id="stop2083" />
      <stop
         style="stop-color:#f8a672;stop-opacity:1"
         offset="1"
         id="stop2085" />
    </linearGradient>
    <linearGradient
       inkscape:collect="always"
       xlink:href="#linearGradient2109"
       id="linearGradient2115"
       x1="30.9375"
       y1="1035.6122"
       x2="30.9375"
       y2="1026.0497"
       gradientUnits="userSpaceOnUse" />
    <linearGradient
       inkscape:collect="always"
       id="linearGradient2109">
      <stop
         style="stop-color:#0d528b;stop-opacity:1;"
         offset="0"
         id="stop2111" />
      <stop
         style="stop-color:#198be9;stop-opacity:1"
         offset="1"
         id="stop2113" />
    </linearGradient>
    <radialGradient
       inkscape:collect="always"
       xlink:href="#linearGradient2099"
       id="radialGradient2105"
       cx="30.224382"
       cy="1024.4679"
       fx="30.224382"
       fy="1024.4679"
       r="9.8483028"
       gradientTransform="matrix(1.520549,-1.952853e-6,1.5523931e-6,1.2087391,-15.734862,-216.28578)"
       gradientUnits="userSpaceOnUse" />
    <linearGradient
       inkscape:collect="always"
       id="linearGradient2099">
      <stop
         style="stop-color:#ffffff;stop-opacity:1;"
         offset="0"
         id="stop2101" />
      <stop
         style="stop-color:#ffffff;stop-opacity:0;"
         offset="1"
         id="stop2103" />
    </linearGradient>
    <linearGradient
       inkscape:collect="always"
       xlink:href="#linearGradient5632"
       id="linearGradient941"
       x1="32.319832"
       y1="1050.351"
       x2="32.319832"
       y2="1005.837"
       gradientUnits="userSpaceOnUse" />
  </defs>
  <sodipodi:namedview
     id="base"
     pagecolor="#ffffff"
     bordercolor="#666666"
     borderopacity="1.0"
     inkscape:pageopacity="0.0"
     inkscape:pageshadow="2"
     inkscape:zoom="7.9107571"
     inkscape:cx="11.949498"
     inkscape:cy="35.270441"
     inkscape:document-units="px"
     inkscape:current-layer="layer1"
     showgrid="false"
     inkscape:window-width="1366"
     inkscape:window-height="718"
     inkscape:window-x="0"
     inkscape:window-y="28"
     inkscape:window-maximized="1" />
  <metadata
     id="metadata7">
    <rdf:RDF>
      <cc:Work
         rdf:about="">
        <dc:format>image/svg+xml</dc:format>
        <dc:type
           rdf:resource="http://purl.org/dc/dcmitype/StillImage" />
        <dc:title />
      </cc:Work>
    </rdf:RDF>
  </metadata>
  <g
     inkscape:label="Capa 1"
     inkscape:groupmode="layer"
     id="layer1"
     transform="translate(0,-1004.3622)">
    <rect
       style="color:#000000;fill:#333333;fill-opacity:1;fill-rule:nonzero;stroke:none;stroke-width:0.2;marker:none;visibility:visible;display:inline;overflow:visible;enable-background:accumulate"
       id="rect6294"
       width="45.5"
       height="45.5"
       x="1.25"
       y="1005.6122"
       ry="6.3565426" />
    <rect
       ry="5.8565426"
       y="1006.1122"
       x="1.75"
       height="44.5"
       width="44.5"
       id="rect6296"
       style="color:#000000;fill:url(#linearGradient941);fill-opacity:1;fill-rule:nonzero;stroke:none;stroke-width:0.2;marker:none;visibility:visible;display:inline;overflow:visible;enable-background:accumulate" />
    <path
       style="color:#000000;fill:url(#linearGradient901);fill-opacity:1;fill-rule:nonzero;stroke:none;stroke-width:0.2;marker:none;visibility:visible;display:inline;overflow:visible;enable-background:accumulate"
       d="m 7.1676432,1006.1122 c -3.0079447,0 -5.4176432,2.5992 -5.4176432,5.8438 l 0,32.8125 c 0,3.2445 2.4096985,5.8437 5.4176432,5.8437 l 16.8323568,0 0,-44.5 L 7.1676432,1006.1122 Z"
       id="rect839"
       inkscape:connector-curvature="0" />
    <path
       style="color:#000000;fill:#000000;fill-opacity:0.0921659;fill-rule:nonzero;stroke:none;stroke-width:0.2;marker:none;visibility:visible;display:inline;overflow:visible;enable-background:accumulate"
       d="m 7.2255859,1006.1122 0.7532552,0.6563 -1.4485677,1.2187 -1.4485677,-1.2187 0.4635417,-0.375 c -0.4978184,0.1702 -0.9961326,0.4106 -1.4195964,0.7187 -0.1443802,0.105 -0.2716243,0.2246 -0.4055989,0.3438 -0.4933604,0.4388 -0.8929949,0.9628 -1.2167969,1.5625 l 0.5794271,-0.5 1.4485677,1.2187 -1.4485677,1.2813 -1.0429688,-0.9375 c -0.038501,0.122 -0.084757,0.2494 -0.1158854,0.375 l 0.898112,0.7812 -1.0719401,0.9375 0,0.5 1.3326823,-1.1875 1.4485677,1.25 -1.4485677,1.2188 -1.3326823,-1.0938 0,0.4375 1.0719401,0.9063 -1.0719401,0.9375 0,0.5 1.3326823,-1.1563 1.4485677,1.2188 -1.4485677,1.2812 -1.3326823,-1.2187 0,0.4375 1.0719401,1 -1.0719401,0.9062 0,0.5313 1.390625,-1.125 0,-0.031 1.390625,1.2188 -1.4485677,1.2187 -1.3326823,-1.1562 0,0.4687 1.0719401,0.9375 -1.0719401,0.9375 0,0.4688 1.3326823,-1.1563 0,-0.031 1.4485677,1.2812 -1.4485677,1.2813 -1.3326823,-1.1875 0,0.4687 1.0719401,0.9375 -1.0719401,0.9063 0,0.5 1.3326823,-1.1563 0,-0.031 1.4485677,1.2187 -1.4485677,1.2813 L 1.75,1024.706 l 0,0.5312 1.0719401,0.9063 -1.0719401,0.9375 0,0.5 1.390625,-1.1875 0,-0.031 1.390625,1.2813 -1.4485677,1.2187 L 1.75,1027.706 l 0,0.4375 1.0719401,0.9375 -1.0719401,0.9375 0,0.5 1.3326823,-1.125 0,-0.031 1.5065104,1.2813 -1.4485677,1.2187 -1.390625,-1.2187 0,0.5625 1.0719401,0.9375 -1.0719401,0.9062 0,0.4688 1.3326823,-1.0938 0,-0.031 1.4485677,1.1875 -1.390625,1.2187 -1.390625,-1.1562 0,0.4687 1.0719401,0.9375 -1.0719401,0.9375 0,0.5313 1.390625,-1.125 0,-0.062 1.390625,1.2187 -1.4485677,1.2813 -1.3326823,-1.125 0,0.4375 1.0719401,0.9062 -1.0719401,0.9375 0,0.5313 1.3326823,-1.1875 0,-0.031 1.4485677,1.2813 -1.4485677,1.2812 L 1.75,1039.706 l 0,0.4375 1.0719401,0.9375 -1.0719401,0.9375 0,0.4375 1.3326823,-1.0938 0,-0.062 1.4485677,1.2188 -1.4485677,1.2187 L 1.75,1042.581 l 0,0.5312 1.0719401,0.9375 L 1.75,1044.9872 c 0.00473,0.138 0.015621,0.271 0.028971,0.4063 l 1.3037109,-1.0625 0,-0.062 1.4485677,1.2812 -1.390625,1.2188 -1.3326823,-1.1563 c 0.029276,0.2164 0.065448,0.4171 0.1158854,0.625 l 0.898112,0.75 -0.4635417,0.4375 c 0.054964,0.1161 0.1120473,0.2324 0.1738282,0.3438 l 0.5504557,-0.5 0,-0.031 1.4485677,1.25 -0.8401693,0.75 c 0.095869,0.087 0.1883445,0.1706 0.2897136,0.25 l 0.8401692,-0.7187 0,-0.031 1.4485677,1.2813 -0.4635416,0.4062 c 0.1724071,0.049 0.342726,0.063 0.5214844,0.094 l 0.2607421,-0.2188 0.3476563,0.3125 c 0.078097,0 0.152833,0 0.2317708,0 l 0.3476563,0 -0.6663412,-0.5937 1.4485677,-1.25 0,-0.031 1.390625,1.2813 -0.6953125,0.5937 0.6083985,0 0.3766276,-0.3125 0.3766274,0.3125 0.666341,0 -0.782226,-0.6562 1.448567,-1.1875 0,-0.031 1.448568,1.2813 -0.666341,0.5937 0.579427,0 0.376628,-0.3125 0.376627,0.3125 0.579427,0 -0.695312,-0.5937 1.448568,-1.25 0,-0.031 1.448567,1.2813 -0.695312,0.5937 0.608398,0 0.347657,-0.3125 0.376627,0.3125 0.608399,0 -0.695313,-0.5937 1.448568,-1.25 0,-0.031 1.448567,1.2813 -0.695312,0.5937 0.608398,0 0.347657,-0.3125 0.376627,0.3125 0.695313,0 -0.753255,-0.6562 1.419596,-1.1875 0,-0.031 1.448568,1.2813 -0.695313,0.5937 0.608399,0 0.347656,-0.3125 0.260742,0.2188 0,-1 -0.202799,0.1875 -1.448568,-1.25 1.390625,-1.1875 0,-0.031 0.260742,0.2188 0,-0.4375 0,-0.4688 -0.260742,0.2188 -1.390625,-1.2813 1.390625,-1.1562 0,-0.062 0.260742,0.2187 0,-0.4375 0,-0.5312 -0.260742,0.2187 -1.448568,-1.2187 1.448568,-1.2188 0,-0.031 0.260742,0.2187 0,-0.875 -0.202799,0.1875 -1.448568,-1.2187 1.448568,-1.25 0,-0.031 0.202799,0.1875 0,-0.8125 -0.202799,0.1563 -1.506511,-1.2813 1.448568,-1.2187 0,-0.062 0.260742,0.2187 0,-0.4375 0,-0.4375 -0.260742,0.2188 -1.448568,-1.2188 1.448568,-1.25 0,-0.031 0.260742,0.2187 0,-0.4375 0,-0.4687 -0.260742,0.2187 -1.390625,-1.2187 1.448568,-1.25 0,-0.031 0.202799,0.1875 0,-0.9062 -0.260742,0.2187 -1.448568,-1.2187 1.448568,-1.25 0,-0.031 0.260742,0.2188 0,-0.4375 0,-0.4688 -0.260742,0.2188 -1.448568,-1.2813 1.448568,-1.1875 0,-0.031 0.260742,0.2187 0,-0.4375 0,-0.4375 -0.260742,0.2188 -1.448568,-1.2813 1.448568,-1.1875 0,-0.031 0.260742,0.2187 0,-0.4375 0,-0.4687 -0.260742,0.2187 -1.448568,-1.2812 1.448568,-1.25 0,-0.031 0.260742,0.2188 0,-0.8438 -0.202799,0.1875 -1.448568,-1.2812 1.390625,-1.2188 0.260742,0.2188 0,-0.5 0,-0.4688 -0.260742,0.2188 -1.448568,-1.2188 1.448568,-1.25 0.260742,0.2188 0,-0.4688 0,-0.4375 -0.260742,0.2188 -1.448568,-1.2813 1.448568,-1.2187 0.260742,0.2187 0,-0.4375 0,-0.5312 -0.260742,0.2187 -1.390625,-1.2187 0.753255,-0.6563 -0.579427,0 -0.492513,0.4375 -0.492513,-0.4375 -0.521484,0 0.724283,0.6563 -1.448567,1.2187 -1.390625,-1.2187 0.753255,-0.6563 -0.579427,0 -0.492513,0.4375 -0.463542,-0.4375 -0.550456,0 0.753256,0.6563 -1.477539,1.2187 -1.390625,-1.2187 0.753255,-0.6563 -0.579427,0 -0.492513,0.4375 -0.463542,-0.4375 -0.550456,0 0.753255,0.6563 -1.448567,1.2187 -1.419597,-1.2187 0.753256,-0.6563 -0.579427,0 -0.492514,0.4375 -0.463541,-0.4375 -0.521485,0 0.724284,0.6563 -1.4485674,1.2187 -1.4195964,-1.2187 0.7822266,-0.6563 -0.6083984,0 -0.4925131,0.4375 -0.4635416,-0.4375 L 7.2255859,1006.1122 z m -2.4046224,0.9063 1.4485677,1.2812 -1.4485677,1.2188 -1.477539,-1.2188 L 4.8209635,1007.0185 z m 3.4186198,0 1.4485677,1.2812 -1.4485677,1.2188 -1.4485677,-1.2188 L 8.2395833,1007.0185 z m 3.4475907,0 1.448568,1.2812 -1.448568,1.2188 -1.448567,-1.2188 L 11.687174,1007.0185 z m 3.505534,0 1.390625,1.2812 -1.448567,1.2188 -1.390625,-1.2188 L 15.192708,1007.0185 z m 3.389649,0 1.448567,1.2812 -1.448567,1.2188 -1.448568,-1.2813 L 18.582357,1007.0185 z m 3.447591,0 1.448568,1.2812 -1.448568,1.2188 -1.477539,-1.2188 L 22.029948,1007.0185 z m -15.4996746,1.5 1.4485677,1.2187 -1.4485677,1.2813 -1.4485677,-1.2813 L 6.5302734,1008.5185 z m 3.4475912,0 1.4485674,1.2187 -1.4485674,1.2813 -1.4485677,-1.2813 L 9.9778646,1008.5185 z m 3.4765624,0 1.419596,1.2187 -1.448567,1.2813 -1.419597,-1.2188 L 13.454427,1008.5185 z m 3.389649,0 1.477539,1.2187 -1.477539,1.2813 -1.448568,-1.2813 L 16.844076,1008.5185 z m 3.447591,0 1.448567,1.2187 -1.448567,1.2813 -1.448568,-1.2813 L 20.291667,1008.5185 z m -15.4707035,1.4687 1.4485677,1.25 -1.4485677,1.2813 -1.477539,-1.2813 L 4.8209635,1009.9872 z m 3.4186198,0 1.4485677,1.25 -1.4485677,1.2813 -1.4485677,-1.2813 L 8.2395833,1009.9872 z m 6.8951827,0 1.448567,1.25 -1.448567,1.2813 -1.448568,-1.2813 L 15.134766,1009.9872 z m 3.447591,0 1.448567,1.25 -1.448567,1.2813 -1.448568,-1.2813 L 18.582357,1009.9872 z m 3.447591,0 1.448568,1.25 -1.448568,1.2813 -1.477539,-1.2813 L 22.029948,1009.9872 z m -10.284831,0.031 1.390625,1.2187 -1.448568,1.2813 -1.390625,-1.2188 L 11.745117,1010.0185 z m -5.2148436,1.4687 1.4485677,1.25 -1.4485677,1.2188 -1.4485677,-1.1875 L 6.5302734,1011.4872 z m 6.8951826,0 1.448567,1.25 -1.448567,1.2188 -1.477539,-1.2188 L 13.425456,1011.4872 z m 3.41862,0 1.477539,1.25 -1.477539,1.2188 -1.448568,-1.1875 L 16.844076,1011.4872 z m 3.447591,0 1.448567,1.25 -1.448567,1.2188 -1.448568,-1.2188 L 20.291667,1011.4872 z m -10.25586,0.031 1.390625,1.2187 -1.4485674,1.2188 -1.4195964,-1.2188 1.4775388,-1.1875 L 10.035807,1011.5185 z m -5.2148435,1.4687 1.4485677,1.2188 -1.4485677,1.2812 -1.477539,-1.2812 L 4.8209635,1012.9872 z m 6.8662105,0 1.448568,1.2188 -1.448568,1.2812 -1.448567,-1.2812 L 11.687174,1012.9872 z m 3.447592,0 1.448567,1.2813 -1.390625,1.2187 -1.50651,-1.2812 L 15.134766,1012.9872 z m 3.447591,0 1.448567,1.2188 -1.448567,1.2812 -1.448568,-1.2812 L 18.582357,1012.9872 z m 3.447591,0 1.448568,1.2813 -1.419597,1.2187 -1.50651,-1.2812 L 22.029948,1012.9872 z m -13.732422,0.062 1.390625,1.1563 -1.4485677,1.25 -1.390625,-1.2188 L 8.297526,1013.0497 z m -1.7093099,1.4375 1.390625,1.2188 -1.4485677,1.2812 -1.390625,-1.2187 L 6.5882161,1014.4872 z m 3.3896485,0 1.4485674,1.2188 -1.4485674,1.2812 L 8.5582682,1015.706 9.9778646,1014.4872 z m 3.4475914,0 1.448567,1.2188 -1.448567,1.2812 -1.419597,-1.2812 L 13.425456,1014.4872 z m 3.41862,0 1.477539,1.2188 -1.477539,1.2812 -1.390625,-1.2812 L 16.844076,1014.4872 z m 3.447591,0 1.448567,1.2188 -1.448567,1.2812 -1.390625,-1.2812 L 20.291667,1014.4872 z m -12.0520837,1.4375 1.4485677,1.2813 -1.4485677,1.2187 -1.4485677,-1.2187 1.4485677,-1.25 L 8.2395833,1015.9247 z m 3.4475907,0 1.448568,1.2813 -1.448568,1.2187 -1.448567,-1.2187 1.448567,-1.25 L 11.687174,1015.9247 z m 3.447592,0 1.448567,1.2813 -1.448567,1.2187 -1.448568,-1.2187 1.448568,-1.25 L 15.134766,1015.9247 z m 3.447591,0 1.448567,1.2813 -1.448567,1.2187 -1.448568,-1.2187 1.448568,-1.25 L 18.582357,1015.9247 z m 3.447591,0 1.448568,1.2813 -1.448568,1.2812 -1.477539,-1.2812 1.477539,-1.25 L 22.029948,1015.9247 z m -17.1800131,0.062 1.4195963,1.2188 -1.4485677,1.2187 -1.4195963,-1.2187 1.4485677,-1.1875 L 4.8499349,1015.9872 z m 1.6803385,1.4375 1.4485677,1.2813 -1.4485677,1.2187 -1.4485677,-1.25 1.4485677,-1.2187 L 6.5302734,1017.4247 z m 3.4475912,0 1.4485674,1.2813 -1.4485674,1.2187 -1.4485677,-1.2187 1.4485677,-1.25 L 9.9778646,1017.4247 z m 3.4475914,0 1.448567,1.2813 -1.448567,1.2187 -1.477539,-1.2187 1.477539,-1.25 L 13.425456,1017.4247 z m 3.41862,0 1.477539,1.2813 -1.419597,1.2187 -1.50651,-1.25 1.448568,-1.2187 L 16.844076,1017.4247 z m 3.447591,0 1.448567,1.2813 -1.448567,1.2187 -1.448568,-1.2812 1.448568,-1.1875 L 20.291667,1017.4247 z m -15.4707035,1.5313 1.4485677,1.2187 -1.4485677,1.25 -1.4195963,-1.25 L 4.8209635,1018.956 z m 3.4186198,0 1.4485677,1.2187 -1.4485677,1.25 -1.390625,-1.25 L 8.2395833,1018.956 z m 3.4475907,0 1.448568,1.2187 -1.448568,1.25 -1.390625,-1.25 L 11.687174,1018.956 z m 3.447592,0 1.448567,1.2187 -1.448567,1.25 -1.448568,-1.25 L 15.134766,1018.956 z m 3.447591,0 1.448567,1.25 -1.390625,1.2187 -1.448567,-1.25 L 18.582357,1018.956 z m 3.447591,0 1.448568,1.25 -1.448568,1.2187 -1.419596,-1.25 L 22.029948,1018.956 z m -15.4996746,1.4375 1.4485677,1.2812 -1.4485677,1.2813 -1.4485677,-1.2813 1.4485677,-1.25 L 6.5302734,1020.3935 z m 3.4475912,0 1.4485674,1.2812 -1.4485674,1.2188 -1.4485677,-1.2188 1.4485677,-1.25 L 9.9778646,1020.3935 z m 3.4475914,0 1.448567,1.2812 -1.448567,1.2813 -1.477539,-1.2813 1.477539,-1.25 L 13.425456,1020.3935 z m 3.41862,0 1.50651,1.2812 -1.50651,1.2813 -1.448568,-1.2813 1.448568,-1.25 L 16.844076,1020.3935 z m 3.447591,0.062 1.448567,1.2187 -1.390625,1.2813 -1.448567,-1.2813 1.390625,-1.1875 L 20.291667,1020.456 z m -15.4707035,1.4375 1.4485677,1.2812 -1.4485677,1.2188 -1.477539,-1.2188 1.477539,-1.25 L 4.8209635,1021.8935 z m 3.4186198,0 1.4485677,1.2812 -1.4485677,1.2188 -1.4485677,-1.2188 1.4485677,-1.25 L 8.2395833,1021.8935 z m 3.4475907,0 1.448568,1.2812 -1.448568,1.2188 -1.448567,-1.2188 1.448567,-1.25 L 11.687174,1021.8935 z m 3.447592,0 1.448567,1.2812 -1.448567,1.2813 -1.448568,-1.2813 1.448568,-1.25 L 15.134766,1021.8935 z m 3.505533,0 1.448568,1.2812 -1.50651,1.2813 -1.448568,-1.2813 1.50651,-1.25 L 18.640299,1021.8935 z m 3.389649,0 1.448568,1.2812 -1.448568,1.2188 -1.419596,-1.2188 1.419596,-1.25 L 22.029948,1021.8935 z m -15.4996746,1.5 1.4485677,1.2187 -1.4485677,1.2813 -1.390625,-1.25 1.390625,-1.2188 L 6.5302734,1023.3935 z m 3.4475912,0 1.4485674,1.2812 -1.390625,1.2188 -1.5065101,-1.25 1.4485677,-1.2188 L 9.9778646,1023.3935 z m 3.4475914,0 1.448567,1.2812 -1.448567,1.2188 -1.477539,-1.2813 1.477539,-1.1875 L 13.425456,1023.3935 z m 3.41862,0 1.477539,1.2812 -1.477539,1.2188 -1.448568,-1.2188 1.448568,-1.25 L 16.844076,1023.3935 z m 3.505533,0 1.390625,1.2187 -1.448567,1.2813 -1.448568,-1.2188 1.50651,-1.25 L 20.349609,1023.3935 z m 1.680339,1.4687 1.448568,1.2813 -1.448568,1.25 -1.477539,-1.25 1.477539,-1.25 L 22.029948,1024.8622 z m -17.2089845,0.062 1.4485677,1.2188 -1.4485677,1.25 -1.4195963,-1.25 L 4.8209635,1024.9247 z m 3.4186198,0 1.5065105,1.2188 -1.4485678,1.25 -1.4485677,-1.25 L 8.2395833,1024.9247 z m 3.4475907,0 1.448568,1.25 -1.390625,1.2188 -1.448568,-1.25 L 11.687174,1024.9247 z m 3.447592,0 1.448567,1.2188 -1.448567,1.25 -1.448568,-1.25 L 15.134766,1024.9247 z m 3.447591,0 1.448567,1.2188 -1.448567,1.25 -1.448568,-1.2188 L 18.582357,1024.9247 z m -12.0520836,1.4375 1.5065105,1.2813 -1.4485678,1.2812 -1.5065104,-1.2812 1.4485677,-1.25 L 6.5302734,1026.3622 z m 3.5055336,0 1.390625,1.2813 -1.390625,1.2187 -1.4775388,-1.2187 1.4775388,-1.25 L 10.035807,1026.3622 z m 10.25586,0 1.448567,1.2813 -1.448567,1.2187 -1.448568,-1.2187 1.448568,-1.25 L 20.291667,1026.3622 z m -6.866211,0.062 1.448567,1.2188 -1.448567,1.2187 -1.419597,-1.2187 1.419597,-1.1875 L 13.425456,1026.4247 z m 3.41862,0 1.477539,1.2188 -1.477539,1.2187 -1.390625,-1.2187 1.390625,-1.1875 L 16.844076,1026.4247 z m -12.0231125,1.4375 1.5065105,1.2813 -1.4775391,1.2812 -1.5065104,-1.2812 1.477539,-1.25 L 4.8209635,1027.8622 z m 3.4765625,0 1.4485678,1.2813 -1.5065105,1.2187 -1.390625,-1.2187 1.4485677,-1.25 L 8.297526,1027.8622 z m 3.389648,0 1.448568,1.2813 -1.390625,1.2187 -1.448568,-1.2812 1.390625,-1.1875 L 11.687174,1027.8622 z m 3.505534,0 1.390625,1.2813 -1.390625,1.2187 -1.448567,-1.2187 1.448567,-1.25 L 15.192708,1027.8622 z m 3.389649,0 1.448567,1.2813 -1.448567,1.2187 -1.448568,-1.2812 1.448568,-1.1875 L 18.582357,1027.8622 z m 3.447591,0 1.448568,1.2813 -1.419597,1.2187 -1.50651,-1.2812 1.477539,-1.1875 L 22.029948,1027.8622 z m -15.4417319,1.5 1.390625,1.2188 -1.4485677,1.2812 -1.390625,-1.1875 1.4485677,-1.2812 L 6.5882161,1029.3622 z m 3.4475909,0 1.390625,1.2188 -1.4485674,1.2812 -1.4485677,-1.25 1.5065101,-1.2187 L 10.035807,1029.3622 z m 3.41862,0 1.419596,1.2188 -1.448567,1.2812 -1.419597,-1.2187 1.448568,-1.25 L 13.454427,1029.3622 z m 3.389649,0 1.477539,1.2188 -1.477539,1.2812 -1.390625,-1.2812 1.390625,-1.1875 L 16.844076,1029.3622 z m 3.447591,0 1.448567,1.2188 -1.448567,1.2812 -1.448568,-1.2812 1.448568,-1.1875 L 20.291667,1029.3622 z m -12.0520837,1.4688 1.4485677,1.25 -1.4485677,1.2812 -1.4485677,-1.25 1.4485677,-1.25 L 8.2395833,1030.831 z m 6.8951827,0 1.448567,1.25 -1.448567,1.2187 -1.448568,-1.1875 1.448568,-1.25 L 15.134766,1030.831 z m 3.447591,0 1.448567,1.25 -1.448567,1.2812 -1.448568,-1.25 1.448568,-1.25 L 18.582357,1030.831 z m -13.7324221,0.031 1.4195963,1.2188 -1.4195963,1.2187 -1.4485677,-1.2187 1.4485677,-1.1563 L 4.8499349,1030.8622 z m 6.8951821,0 1.390625,1.2188 -1.448568,1.2812 -1.390625,-1.2812 1.448568,-1.1563 L 11.745117,1030.8622 z m 10.313802,0 1.419597,1.2188 -1.448568,1.2812 -1.419596,-1.2812 1.448567,-1.1563 L 22.058919,1030.8622 z m -15.5286456,1.4688 1.4485677,1.2812 -1.390625,1.2188 -1.4485677,-1.25 1.390625,-1.2188 L 6.5302734,1032.331 z m 3.5055336,0 1.390625,1.2812 -1.390625,1.2188 -1.4775388,-1.2188 1.4775388,-1.25 L 10.035807,1032.331 z m 3.389649,0 1.448567,1.2812 -1.448567,1.2188 -1.477539,-1.2188 1.477539,-1.25 L 13.425456,1032.331 z m 3.41862,0 1.477539,1.2812 -1.477539,1.2188 -1.448568,-1.2813 1.448568,-1.1875 L 16.844076,1032.331 z m 3.505533,0.062 1.390625,1.1875 -1.448567,1.2187 -1.390625,-1.2187 1.448567,-1.1563 L 20.349609,1032.3935 z m -15.5286455,1.4375 1.4485677,1.2812 -1.4195963,1.2188 -1.4485677,-1.2813 1.4195963,-1.1875 L 4.8209635,1033.831 z m 3.4765625,0 1.390625,1.2812 -1.390625,1.2188 -1.4485677,-1.2813 1.4485677,-1.1875 L 8.297526,1033.831 z m 3.389648,0 1.448568,1.2187 -1.448568,1.2813 -1.390625,-1.2813 1.390625,-1.1875 L 11.687174,1033.831 z m 3.447592,0 1.448567,1.2187 -1.448567,1.2813 -1.448568,-1.2813 1.448568,-1.1875 L 15.134766,1033.831 z m 3.505533,0 1.390625,1.2187 -1.448567,1.2813 -1.390625,-1.2188 1.448567,-1.25 L 18.640299,1033.831 z m 3.389649,0 1.448568,1.2187 -1.448568,1.2813 -1.477539,-1.2813 1.477539,-1.1875 L 22.029948,1033.831 z m -8.604492,1.4375 1.448567,1.2812 -1.448567,1.2813 -1.477539,-1.2813 1.477539,-1.2187 L 13.425456,1035.2685 z m 6.866211,0 1.448567,1.2812 -1.448567,1.2813 -1.448568,-1.2813 1.448568,-1.2187 L 20.291667,1035.2685 z m -13.7613936,0.062 1.4485677,1.2812 -1.390625,1.1563 -1.4485677,-1.1875 1.390625,-1.1875 L 6.5302734,1035.331 z m 3.4475912,0 1.4485674,1.2187 -1.390625,1.2188 -1.4775388,-1.1875 1.4195964,-1.1875 L 9.9778646,1035.331 z m 6.9241534,0 1.419597,1.2187 -1.477539,1.2813 -1.390625,-1.2813 1.448567,-1.1562 L 16.902018,1035.331 z m -12.0810545,1.4687 1.4485677,1.2813 -1.4485677,1.25 -1.477539,-1.25 1.477539,-1.25 L 4.8209635,1036.7997 z m 6.8662105,0 1.448568,1.2813 -1.390625,1.2187 -1.448568,-1.2812 1.390625,-1.1875 L 11.687174,1036.7997 z m 6.895183,0 1.448567,1.2813 -1.448567,1.2187 -1.448568,-1.2187 1.448568,-1.25 L 18.582357,1036.7997 z m 3.447591,0 1.50651,1.2813 -1.477539,1.25 -1.50651,-1.25 1.477539,-1.25 L 22.029948,1036.7997 z m -13.7903647,0.031 1.4485677,1.2187 -1.390625,1.2188 -1.4485677,-1.1875 1.390625,-1.1875 L 8.2395833,1036.831 z m 6.9531247,0 1.390625,1.2187 -1.448567,1.2188 -1.390625,-1.2188 1.448567,-1.1562 L 15.192708,1036.831 z m -8.6624346,1.4687 1.4485677,1.2813 -1.4485677,1.2812 -1.4485677,-1.25 1.4485677,-1.2812 L 6.5302734,1038.2997 z m 3.4475912,0 1.4485674,1.2813 -1.390625,1.2187 -1.4775388,-1.2812 1.4195964,-1.1875 L 9.9778646,1038.2997 z m 3.4765624,0 1.419596,1.2813 -1.419596,1.2187 -1.448568,-1.2812 1.448568,-1.1875 L 13.454427,1038.2997 z m 3.389649,0 1.477539,1.2188 -1.477539,1.2812 -1.448568,-1.2812 1.448568,-1.1875 L 16.844076,1038.2997 z m 3.447591,0 1.50651,1.2813 -1.448568,1.2187 -1.50651,-1.2187 1.448568,-1.25 L 20.291667,1038.2997 z m -15.4707035,1.5 1.4485677,1.2813 -1.4485677,1.2187 -1.477539,-1.2187 1.477539,-1.2188 L 4.8209635,1039.7997 z m 3.4765625,0 1.390625,1.2188 -1.4485677,1.2812 -1.4485677,-1.1875 1.5065104,-1.25 L 8.297526,1039.7997 z m 3.389648,0 1.448568,1.2813 -1.390625,1.1562 -1.448568,-1.2187 1.390625,-1.1563 L 11.687174,1039.7997 z m 3.447592,0 1.448567,1.2188 -1.390625,1.2187 -1.448567,-1.2187 1.390625,-1.1563 L 15.134766,1039.7997 z m 3.447591,0 1.50651,1.2813 -1.448568,1.2187 -1.448567,-1.2812 1.390625,-1.1563 L 18.582357,1039.7997 z m 3.476562,0 1.419597,1.2188 -1.448568,1.2812 -1.419596,-1.2812 1.448567,-1.1563 L 22.058919,1039.7997 z m -5.156901,1.4688 1.448568,1.25 -1.448568,1.2187 -1.448567,-1.2187 1.448567,-1.2188 L 16.902018,1041.2685 z m -10.3717446,0.031 1.4485677,1.2188 -1.4485677,1.2812 -1.4485677,-1.2812 1.4485677,-1.1563 L 6.5302734,1041.2997 z m 3.4475912,0 1.4485674,1.2188 -1.4485674,1.2812 -1.4485677,-1.2812 1.4485677,-1.1563 L 9.9778646,1041.2997 z m 3.4475914,0 1.448567,1.2188 -1.419596,1.2187 -1.448568,-1.2187 1.419597,-1.1563 L 13.425456,1041.2997 z m 6.924153,0 1.390625,1.2188 -1.448567,1.2812 -1.390625,-1.2812 1.448567,-1.1563 L 20.349609,1041.2997 z m -15.5286455,1.4688 1.4485677,1.2812 -1.4485677,1.2188 -1.477539,-1.2813 1.477539,-1.1875 L 4.8209635,1042.7685 z m 3.4186198,0 1.4485677,1.2812 -1.4485677,1.25 -1.4485677,-1.25 1.4485677,-1.25 L 8.2395833,1042.7685 z m 3.4475907,0 1.448568,1.2812 -1.448568,1.25 -1.448567,-1.25 1.448567,-1.25 L 11.687174,1042.7685 z m 3.447592,0 1.448567,1.2812 -1.390625,1.2188 -1.448567,-1.2813 1.390625,-1.1875 L 15.134766,1042.7685 z m 3.505533,0 1.390625,1.2812 -1.390625,1.2188 -1.448567,-1.2813 1.448567,-1.1875 L 18.640299,1042.7685 z m 3.389649,0 1.448568,1.2812 -1.448568,1.2188 -1.477539,-1.2188 1.477539,-1.25 L 22.029948,1042.7685 z m -15.4996746,1.5 1.4485677,1.2812 -1.390625,1.2188 -1.4485677,-1.25 1.390625,-1.1875 L 6.5302734,1044.2685 z m 3.4475912,0 1.4485674,1.2812 -1.4485674,1.2188 -1.4485677,-1.2188 1.4485677,-1.2187 L 9.9778646,1044.2685 z m 3.4765624,0 1.419596,1.2187 -1.448567,1.2813 -1.477539,-1.2188 1.50651,-1.2187 L 13.454427,1044.2685 z m 3.389649,0 1.477539,1.2812 -1.419597,1.2188 -1.448567,-1.2813 1.390625,-1.1562 L 16.844076,1044.2685 z m 3.447591,0 1.448567,1.2187 -1.390625,1.2188 -1.448567,-1.2188 1.390625,-1.1562 L 20.291667,1044.2685 z m -15.4707035,1.5 1.4485677,1.2187 -1.4195963,1.2813 -1.4485677,-1.2813 1.4195963,-1.1562 L 4.8209635,1045.7685 z m 3.4186198,0 1.4485677,1.2187 -1.4485677,1.2813 -1.390625,-1.2813 1.390625,-1.1562 L 8.2395833,1045.7685 z m 3.4475907,0 1.448568,1.2187 -1.448568,1.2813 -1.448567,-1.2188 1.448567,-1.2187 L 11.687174,1045.7685 z m 3.447592,0 1.448567,1.2187 -1.448567,1.2813 -1.448568,-1.2813 1.448568,-1.1562 L 15.134766,1045.7685 z m 3.447591,0 1.448567,1.2187 -1.390625,1.2188 -1.448567,-1.2188 1.390625,-1.1562 L 18.582357,1045.7685 z m 3.447591,0 1.448568,1.2187 -1.419597,1.2188 -1.448567,-1.2188 1.419596,-1.1562 L 22.029948,1045.7685 z m -15.4996746,1.4687 1.4485677,1.25 -1.4485677,1.2188 -1.390625,-1.1875 1.390625,-1.25 L 6.5302734,1047.2372 z m 6.8951826,0 1.448567,1.25 -1.448567,1.2813 -1.477539,-1.2813 1.477539,-1.2187 L 13.425456,1047.2372 z m 3.41862,0 1.477539,1.25 -1.477539,1.2813 -1.448568,-1.2813 1.448568,-1.2187 L 16.844076,1047.2372 z m -6.8662114,0.031 1.4485674,1.2187 -1.4485674,1.2188 -1.4195964,-1.1875 1.4195964,-1.1875 L 9.9778646,1047.2685 z m 10.3138024,0 1.448567,1.2187 -1.390625,1.2188 -1.448567,-1.2813 1.390625,-1.0937 L 20.291667,1047.2685 Z"
       id="rect933"
       inkscape:connector-curvature="0" />
    <g
       id="g2155"
       transform="matrix(0.91861657,0,0,0.91861657,1.9649308,83.334103)">
      <path
         inkscape:connector-curvature="0"
         id="path2091"
         d="m 24,1014.9866 0,1.5 2.5625,2.0625 1.84375,0 L 24,1014.9866 z m 5.96875,7.4687 c -2.059758,0 -4.016501,0.7083 -5.5625,1.9688 -0.166123,0.1356 -0.253698,0.323 -0.40625,0.4687 l 0,1.5 c 0.152552,-0.1457 0.240127,-0.3331 0.40625,-0.4687 1.545999,-1.2605 3.502742,-1.9656 5.5625,-1.9688 2.061425,0 4.045805,0.6817 5.59375,1.9375 0.787939,0.6419 1.410853,1.4075 1.875,2.25 0.449756,0.8122 0.738434,1.7153 0.84375,2.6563 0.05206,-0.4465 0.07031,-0.8884 0.03125,-1.3438 -0.08769,-0.9975 -0.400291,-1.9553 -0.875,-2.8125 -0.464147,-0.8425 -1.087061,-1.6081 -1.875,-2.25 C 34.014555,1023.137 32.030175,1022.4553 29.96875,1022.4553 z m 13.6875,9.5 c -0.06594,0.85 -0.23916,1.6967 -0.5,2.5313 -0.517858,1.6516 -1.374808,3.1795 -2.59375,4.5312 -1.250696,1.3851 -2.781716,2.4847 -4.5625,3.2813 -1.871666,0.8351 -3.927996,1.2812 -6.03125,1.2812 -2.096558,0 -4.104344,-0.4287 -5.96875,-1.25 l 0,1.5 c 1.864406,0.8213 3.872192,1.2532 5.96875,1.25 2.103254,0 4.159584,-0.4461 6.03125,-1.2812 1.780784,-0.7966 3.311804,-1.8962 4.5625,-3.2813 1.218942,-1.3517 2.075892,-2.8796 2.59375,-4.5312 0.26084,-0.8346 0.43406,-1.6813 0.5,-2.5313 C 43.695056,1032.9546 43.677819,1032.4615 43.65625,1031.9553 Z"
         style="fill:#000000;fill-opacity:0.43317973;fill-rule:nonzero;stroke:none" />
      <path
         inkscape:connector-curvature="0"
         id="path2079"
         d="m 25.34375,1012.4247 c -0.442319,-0.018 -0.91959,0.076 -1.34375,0.25 l 0,3.0938 4.40625,3.5625 -4.40625,0 0,6.3437 c 0.152552,-0.1457 0.240127,-0.3331 0.40625,-0.4687 1.545999,-1.2605 3.502742,-1.9656 5.5625,-1.9688 2.061425,0 4.045805,0.6817 5.59375,1.9375 0.787939,0.6419 1.410853,1.4075 1.875,2.25 0.474709,0.8572 0.787313,1.815 0.875,2.8125 0.08713,1.0159 -0.06099,2.0179 -0.40625,2.9688 -0.352835,0.9687 -0.909845,1.8636 -1.6875,2.6562 -1.591302,1.6209 -3.839282,2.5578 -6.25,2.5625 -2.308758,0.01 -4.394601,-0.8859 -5.96875,-2.375 l 0,7.0625 c 1.864406,0.8213 3.872192,1.2532 5.96875,1.25 2.103254,0 4.159584,-0.4461 6.03125,-1.2812 1.780784,-0.7966 3.311804,-1.8962 4.5625,-3.2813 1.218942,-1.3517 2.075892,-2.8796 2.59375,-4.5312 0.26084,-0.8346 0.43406,-1.6813 0.5,-2.5313 0.0649,-0.8374 0.05666,-1.6934 -0.0625,-2.5312 -0.232074,-1.6335 -0.81785,-3.1656 -1.6875,-4.5625 -0.795513,-1.2831 -1.811752,-2.3981 -3.03125,-3.3438 l -12.3125,-9.4375 c -0.01056,-0.011 -0.0193,-0.023 -0.03125,-0.031 C 26.193435,1012.5717 25.786069,1012.4425 25.34375,1012.4247 Z"
         style="fill:url(#linearGradient2087);fill-opacity:1;fill-rule:nonzero;stroke:none" />
      <path
         inkscape:connector-curvature="0"
         id="path877"
         d="m 30.15625,1025.7685 c -1.39807,0 -2.672594,0.4752 -3.625,1.2812 -0.970331,0.8205 -1.61391,1.9988 -1.6875,3.3125 -0.07407,1.3489 0.453844,2.6017 1.40625,3.5313 0.970262,0.9459 2.36025,1.5312 3.90625,1.5312 1.545999,0 2.935641,-0.5853 3.90625,-1.5312 0.952128,-0.9296 1.48005,-2.1811 1.40625,-3.5313 -0.07407,-1.3124 -0.717168,-2.492 -1.6875,-3.3125 C 32.828845,1026.2437 31.55293,1025.7685 30.15625,1025.7685 Z"
         style="fill:url(#linearGradient2115);fill-opacity:1;fill-rule:nonzero;stroke:none" />
      <path
         inkscape:connector-curvature="0"
         style="fill:none;stroke:none"
         d="m 25.34375,1012.4247 c -0.442319,-0.018 -0.91959,0.076 -1.34375,0.25 l 0,3.0938 4.40625,3.5625 -4.40625,0 0,6.3437 c 0.152552,-0.1457 0.240127,-0.3331 0.40625,-0.4687 1.545999,-1.2605 3.502742,-1.9656 5.5625,-1.9688 2.061425,0 4.045805,0.6817 5.59375,1.9375 0.787939,0.6419 1.410853,1.4075 1.875,2.25 0.474709,0.8572 0.787313,1.815 0.875,2.8125 0.08713,1.0159 -0.06099,2.0179 -0.40625,2.9688 -0.352835,0.9687 -0.909845,1.8636 -1.6875,2.6562 -1.591302,1.6209 -3.839282,2.5578 -6.25,2.5625 -2.308758,0.01 -4.394601,-0.8859 -5.96875,-2.375 l 0,7.0625 c 1.864406,0.8213 3.872192,1.2532 5.96875,1.25 2.103254,0 4.159584,-0.4461 6.03125,-1.2812 1.780784,-0.7966 3.311804,-1.8962 4.5625,-3.2813 1.218942,-1.3517 2.075892,-2.8796 2.59375,-4.5312 0.26084,-0.8346 0.43406,-1.6813 0.5,-2.5313 0.0649,-0.8374 0.05666,-1.6934 -0.0625,-2.5312 -0.232074,-1.6335 -0.81785,-3.1656 -1.6875,-4.5625 -0.795513,-1.2831 -1.811752,-2.3981 -3.03125,-3.3438 l -12.3125,-9.4375 c -0.01056,-0.011 -0.0193,-0.023 -0.03125,-0.031 C 26.193435,1012.5717 25.786069,1012.4425 25.34375,1012.4247 Z"
         id="path2089" />
      <path
         inkscape:connector-curvature="0"
         style="opacity:0.35800003;fill:url(#radialGradient2105);fill-opacity:1;fill-rule:nonzero;stroke:none"
         d="m 25.34375,1012.4247 c -0.442319,-0.018 -0.91959,0.076 -1.34375,0.25 l 0,3.0938 4.40625,3.5625 -4.40625,0 0,6.3437 c 0.152552,-0.1457 0.240127,-0.3331 0.40625,-0.4687 1.545999,-1.2605 3.502742,-1.9656 5.5625,-1.9688 2.061425,0 4.045805,0.6817 5.59375,1.9375 0.787939,0.6419 1.410853,1.4075 1.875,2.25 0.474709,0.8572 0.787313,1.815 0.875,2.8125 0.08713,1.0159 -0.06099,2.0179 -0.40625,2.9688 -0.352835,0.9687 -0.909845,1.8636 -1.6875,2.6562 -1.591302,1.6209 -3.839282,2.5578 -6.25,2.5625 -2.308758,0.01 -4.394601,-0.8859 -5.96875,-2.375 l 0,7.0625 c 1.864406,0.8213 3.872192,1.2532 5.96875,1.25 2.103254,0 4.159584,-0.4461 6.03125,-1.2812 1.780784,-0.7966 3.311804,-1.8962 4.5625,-3.2813 1.218942,-1.3517 2.075892,-2.8796 2.59375,-4.5312 0.26084,-0.8346 0.43406,-1.6813 0.5,-2.5313 0.0649,-0.8374 0.05666,-1.6934 -0.0625,-2.5312 -0.232074,-1.6335 -0.81785,-3.1656 -1.6875,-4.5625 -0.795513,-1.2831 -1.811752,-2.3981 -3.03125,-3.3438 l -12.3125,-9.4375 c -0.01056,-0.011 -0.0193,-0.023 -0.03125,-0.031 C 26.193435,1012.5717 25.786069,1012.4425 25.34375,1012.4247 Z"
         id="path2097" />
      <path
         inkscape:connector-curvature="0"
         id="path2117"
         transform="translate(0,1004.3622)"
         d="m 24.875,26.65625 c -0.0038,0.04414 -0.02876,0.08054 -0.03125,0.125 -0.07407,1.3489 0.453844,2.60165 1.40625,3.53125 0.970262,0.9459 2.36025,1.53125 3.90625,1.53125 1.545999,0 2.935641,-0.58535 3.90625,-1.53125 0.952128,-0.9296 1.48005,-2.18105 1.40625,-3.53125 -0.0025,-0.04442 -0.02745,-0.0809 -0.03125,-0.125 -0.09966,1.096034 -0.579424,2.098248 -1.375,2.875 -0.970609,0.9459 -2.360251,1.53125 -3.90625,1.53125 -1.546,0 -2.935988,-0.58535 -3.90625,-1.53125 C 25.454192,28.754498 24.97451,27.751824 24.875,26.65625 Z"
         style="fill:#000000;fill-opacity:0.43529412;fill-rule:nonzero;stroke:none" />
    </g>
    <path
       style="fill:#a3a3a3;fill-opacity:1;fill-rule:nonzero;stroke:none"
       d="m 22.920872,1015.2302 c -0.129469,0.4505 -0.0048,0.9346 0.430601,1.2918 l 0,0.028 0.660256,0.5453 0,-0.6602 -0.660256,-0.5454 0,-0.028 C 23.128285,1015.6786 22.991574,1015.457 22.920872,1015.2302 z m -11.798482,6.9758 c -0.18594,0.9755 0.599126,1.7758 1.808527,1.7798 l 6.430316,0 0.861203,-0.6602 -7.291519,0 C 12.004703,1023.3225 11.308889,1022.8629 11.12239,1022.206 z m 12.889339,3.33 c -0.526131,0.5026 -1.041281,1.0246 -1.377925,1.6363 -0.434353,0.7889 -0.697533,1.6411 -0.775083,2.5549 -0.0049,0.22 -0.0178,0.4397 0,0.6603 0.07755,-0.9138 0.34073,-1.7661 0.775083,-2.555 0.336644,-0.6116 0.851794,-1.1338 1.377925,-1.6362 L 24.011729,1025.536 z m -6.947037,5.5117 -7.061866,5.7701 c -1.2389079,0.9965 -2.9195032,1.0049 -3.7031727,0 -0.1795293,-0.2298 -0.2879071,-0.4996 -0.3444815,-0.7751 -0.062981,0.519 0.023456,1.0245 0.3444815,1.4353 0.7836695,1.0049 2.4642648,0.9964 3.7031727,0 l 7.004452,-5.7414 c 0.0023,-0.1119 0.02078,-0.1394 0.02871,-0.2582 C 17.049169,1031.2807 17.050221,1031.1868 17.064692,1031.0477 z m -0.02871,1.3779 c -0.0087,0.1797 -0.03135,0.3655 -0.02871,0.5168 0.0082,0.4724 0.147555,1.3788 0.373188,2.0956 0.474947,1.5172 1.290094,2.925 2.411369,4.1624 1.150122,1.2709 2.55533,2.2896 4.191188,3.0143 l 0.02871,0 0,-0.6604 -0.02871,0 c -1.635858,-0.7247 -3.041066,-1.7432 -4.191188,-3.0142 -1.121275,-1.2372 -1.936422,-2.6453 -2.411369,-4.1624 C 17.172087,1033.7157 17.061885,1032.92 17.035985,1032.4256 Z"
       id="path905"
       inkscape:connector-curvature="0" />
    <path
       inkscape:connector-curvature="0"
       style="fill:#bababa;fill-opacity:0.7741935;fill-rule:nonzero;stroke:none"
       d="m 24.011729,1013.594 c -0.152379,0.063 -0.325922,0.05 -0.459308,0.1436 -0.824805,0.5766 -0.934718,1.5221 -0.200948,2.1242 l 0,0.028 0.660256,0.5456 L 24.011729,1013.594 z m 0,6.1146 -10.30573,0.028 -0.02871,0 c -1.187525,0 -2.329524,0.7659 -2.554903,1.7512 -0.232589,1.0035 0.573576,1.8331 1.808527,1.8372 l 7.291519,0 -13.0041655,9.9612 c -0.016453,0.012 -0.042206,0.046 -0.057412,0.057 -1.2264497,0.9387 -1.6333735,2.4854 -0.8612035,3.4736 0.7836694,1.0048 2.4642648,0.9964 3.703173,0 l 7.090572,-5.7987 c 3e-6,-0.01 -0.09436,0.7926 -0.08612,1.2631 0.0082,0.4724 0.147555,1.3787 0.373188,2.0954 0.474947,1.5173 1.290094,2.9252 2.411369,4.1625 1.150123,1.2709 2.55533,2.2894 4.191188,3.0143 0.0082,0 0.0204,0 0.0287,0 l 0,-6.4878 c -0.06591,-0.063 -0.165936,-0.079 -0.229654,-0.1434 -0.714368,-0.7244 -1.226237,-1.5518 -1.550166,-2.4402 -0.316844,-0.8719 -0.454953,-1.8213 -0.373187,-2.7559 0.07755,-0.9137 0.340729,-1.766 0.775082,-2.5548 0.336644,-0.6117 0.851794,-1.1338 1.377925,-1.6363 L 24.011729,1019.7086 Z"
       id="path915" />
    <path
       style="color:#000000;fill:#000000;fill-opacity:0.12903227;fill-rule:nonzero;stroke:none;stroke-width:0.1;marker:none;visibility:visible;display:inline;overflow:visible;enable-background:accumulate"
       d="m 23.954316,1013.6227 c -0.13614,0.04 -0.286164,0.034 -0.401895,0.1148 -0.247442,0.1729 -0.430145,0.3826 -0.545429,0.6029 l 0.488015,-0.3732 0.516722,0.3732 0,-0.2584 -0.344481,-0.2584 L 23.954316,1013.6227 z m -1.062152,1.0334 c -0.01528,0.066 -0.02532,0.1339 -0.02871,0.201 l 0.488014,0.3731 -0.315774,0.2584 c 0.03296,0.055 0.0718,0.12 0.114827,0.1723 l 0.344482,-0.2871 0.516721,0.3732 0,-0.2297 -0.344481,-0.2871 0.344481,-0.2583 0,-0.2297 -0.516721,0.3732 L 22.892164,1014.6561 z m 1.119565,1.4928 -0.200947,0.1436 0.17224,0.1147 0.02871,0 L 24.011729,1016.1489 z m -4.650496,3.5597 -0.459309,0.3443 -0.430602,-0.3157 -0.315773,0 0.602842,0.4594 -0.775083,0.5741 -0.746376,-0.5741 0.574134,-0.4594 -0.315773,0 -0.430601,0.3157 -0.430602,-0.3157 -0.315774,0 0.602841,0.4594 -0.775083,0.5741 -0.746375,-0.5741 0.574135,-0.4594 -0.315774,0 -0.430602,0.3157 -0.401894,-0.3157 -0.344483,0 0.602843,0.4594 -0.775083,0.5741 -0.746376,-0.5741 0.574136,-0.4594 -0.315774,0 -0.430603,0.3157 -0.315774,-0.2296 c -0.07598,0.017 -0.155671,0.035 -0.229654,0.057 l 0.401896,0.3159 -0.775084,0.5741 -0.545429,-0.4305 c -0.04957,0.037 -0.09741,0.074 -0.143533,0.1146 l 0.545429,0.4307 -0.775083,0.5742 -0.344482,-0.2584 c -0.02912,0.067 -0.03715,0.1312 -0.05741,0.2009 l 0.258361,0.2011 -0.315775,0.2295 c -8e-6,0.01 -1.67e-4,0.02 0,0.029 0.0013,0.069 0.01733,0.1344 0.02871,0.201 l 0.430601,-0.3445 0.775083,0.5742 -0.775083,0.5741 c 0.05978,0.052 0.131562,0.099 0.200948,0.1436 l 0.717669,-0.5742 0.775083,0.5742 -0.430602,0.3157 c 0.04001,0 0.07385,-2e-4 0.114828,0 l 0.200946,0 0.258361,-0.2011 0.258362,0.2011 0.315773,0 -0.401894,-0.3157 0.746376,-0.5742 0.775083,0.5742 -0.430601,0.3157 0.315774,0 0.258361,-0.2011 0.258361,0.2011 0.315774,0 -0.401894,-0.3157 0.746375,-0.5742 0.775083,0.5742 -0.430601,0.3157 0.315774,0 0.258361,-0.2011 0.258361,0.2011 0.315774,0 -0.401895,-0.3157 0.746377,-0.5742 0.775082,0.5742 -0.430602,0.3157 0.315774,0 0.258362,-0.2011 0.258361,0.2011 0.315774,0 -0.401894,-0.3157 0.746376,-0.5742 0.775082,0.5742 -0.430601,0.3157 0.05741,0 -2.382661,1.8085 -1.837233,1.4066 -1.837234,1.4066 -1.837232,1.4067 -0.918617,0.7176 -0.775083,0.5742 -0.143534,0.1148 -0.9186157,0.7177 -0.7750828,0.5741 -0.143534,0.1149 -0.9186169,0.7176 -0.5167219,0.4019 c -0.016453,0.012 -0.042207,0.046 -0.057412,0.057 -0.2950922,0.2259 -0.5224725,0.495 -0.7176694,0.775 l 0.5167219,-0.4018 0.7750828,0.5741 -0.7750828,0.5742 -0.660255,-0.5167 c -0.038063,0.065 -0.082425,0.1336 -0.1148278,0.2008 l 0.6315497,0.4594 -0.7750829,0.5742 -0.143534,-0.1149 c -0.00572,0.077 -0.00225,0.1536 0,0.2296 0.00235,0.077 0.017963,0.1542 0.028707,0.2296 l 0.1148268,-0.086 0.7750829,0.5741 -0.516722,0.4019 c 0.038447,0.05 0.1009313,0.07 0.1435341,0.1148 l 0.5167219,-0.402 0.7750828,0.5742 -0.4880156,0.3445 c 0.081591,0.026 0.1440563,0.069 0.2296547,0.086 l 0.028707,0 0.3731879,-0.2871 0.3731877,0.2871 c 0.1008188,-0.01 0.1852763,-0.036 0.2870681,-0.057 l -0.4880156,-0.3732 0.7463766,-0.5742 0.7750828,0.5742 c 0.051937,-0.031 0.092579,-0.081 0.1435332,-0.1147 l -0.7463757,-0.5742 0.7463757,-0.5742 0.7750825,0.5742 0.516722,-0.4306 -0.373188,0.2871 -0.7463753,-0.5742 0.7463753,-0.5742 0.746376,0.5455 0.143533,-0.1149 -0.717668,-0.5453 0.746375,-0.5743 0.717669,0.5168 0.172242,-0.1148 -0.71767,-0.5454 0.746376,-0.5742 0.688963,0.5168 0.17224,-0.1436 -0.688963,-0.5167 0.746376,-0.5741 0.660256,0.488 0.143535,-0.1148 -0.63155,-0.4881 0.746376,-0.5741 0.631549,0.4594 0.172241,-0.1149 -0.63155,-0.488 0.746377,-0.5742 0.602842,0.4593 0.143533,-0.1148 -0.574134,-0.4593 0.746375,-0.5741 0.574135,0.4305 0.172241,-0.1435 -0.574134,-0.4306 0.746375,-0.5741 0.775083,0.5741 -0.775083,0.5741 c -0.01025,0.1018 -0.01813,0.1513 -0.02871,0.2871 l 0.02871,-0.029 0.775083,0.5741 -0.775083,0.5741 c 0.01046,0.098 0.01292,0.1787 0.0287,0.2871 l 0.746376,0.5454 -0.545429,0.4019 c 0.01951,0.077 0.03604,0.1551 0.05741,0.2297 l 0.63155,-0.4881 0.775082,0.5742 -0.775082,0.5742 -0.602843,-0.4595 c 0.0399,0.1265 0.09894,0.2485 0.143534,0.3733 l 0.315774,0.2297 -0.17224,0.1147 c 0.02675,0.067 0.05799,0.1342 0.08612,0.201 l 0.229656,-0.201 0.775082,0.5742 -0.602842,0.4594 c 0.03404,0.064 0.05072,0.1366 0.08612,0.2009 l 0.660255,-0.5167 0.775083,0.5741 -0.775083,0.5742 -0.545428,-0.402 c 0.08541,0.1467 0.194501,0.2871 0.287067,0.4307 l 0.114828,0.086 -0.02871,0.029 c 0.03781,0.057 0.07588,0.1157 0.114827,0.1723 l 0.05741,-0.057 0.775082,0.5741 -0.287067,0.2296 c 0.0391,0.048 0.07485,0.096 0.114827,0.1436 l 0.315775,-0.2584 0.775082,0.5741 -0.459309,0.3732 c 0.04679,0.048 0.09598,0.097 0.143535,0.1436 l 0.459308,-0.3732 0.775083,0.5741 -0.574135,0.4307 c 0.05231,0.044 0.119134,0.071 0.17224,0.1147 l 0.545428,-0.4018 0.775083,0.5741 -0.574135,0.4019 c 0.05673,0.039 0.114731,0.076 0.172241,0.1148 l 0.545428,-0.4019 0.775082,0.5741 -0.488014,0.3445 c 0.07401,0.042 0.154532,0.074 0.229654,0.1148 l 0.401895,-0.3157 0.516721,0.4019 0,-0.287 -0.344481,-0.2585 0.344481,-0.2583 0,-0.2297 -0.516721,0.3732 -0.746377,-0.5741 0.746377,-0.5741 0.516721,0.373 0,-0.2582 -0.344481,-0.2584 0.344481,-0.2583 0,-0.2584 -0.516721,0.4018 -0.746377,-0.6028 0.746377,-0.5741 0.516721,0.3732 0,-0.2296 -0.344481,-0.2584 0.344481,-0.2583 0,-0.2585 -0.516721,0.3733 -0.746377,-0.5742 0.746377,-0.5742 0.516721,0.3733 0,-0.2297 -0.344481,-0.2584 0.344481,-0.2583 0,-0.2584 -0.516721,0.3733 -0.746377,-0.5742 0.746377,-0.5742 0.516721,0.3732 0,-0.2297 -0.344481,-0.2582 0.114827,-0.086 c -0.05314,-0.054 -0.09263,-0.1173 -0.143533,-0.1722 l -0.143534,0.1148 -0.746377,-0.5742 0.315775,-0.2583 c -0.03585,-0.051 -0.08058,-0.092 -0.114827,-0.1435 l -0.373188,0.2583 -0.746376,-0.5741 0.660256,-0.5167 c -0.02345,-0.049 -0.06394,-0.094 -0.08612,-0.1435 l -0.746377,0.5453 -0.746375,-0.5741 0.746375,-0.5741 0.746377,0.5454 c -0.05392,-0.1241 -0.12602,-0.2464 -0.172241,-0.3733 l -0.401894,-0.3157 0.25836,-0.2009 c -0.01617,-0.059 -0.04287,-0.1127 -0.05741,-0.1723 l -0.373189,0.2584 -0.746375,-0.5741 0.746375,-0.5742 0.229655,0.1722 c -0.01201,-0.093 -0.02076,-0.1936 -0.02871,-0.287 l -0.02871,-0.029 0.02871,-0.029 c -0.0057,-0.075 -0.02565,-0.1544 -0.02871,-0.2297 l -0.172241,0.1436 -0.746376,-0.5741 0.746376,-0.5742 0.200948,0.1436 c 0.0078,-0.078 0.01815,-0.1515 0.02871,-0.2297 l -0.05741,-0.057 0.08612,-0.057 c 0.01653,-0.1073 0.03562,-0.2103 0.05741,-0.3158 l -0.315774,0.2296 -0.746375,-0.5741 0.746375,-0.5741 0.459309,0.3444 c 0.01752,-0.057 0.03827,-0.1153 0.05741,-0.1722 l -0.34448,-0.2871 0.688961,-0.5167 c 0.04211,-0.084 0.06886,-0.1749 0.114828,-0.2584 0.04013,-0.073 0.0986,-0.1304 0.143534,-0.2009 l -0.200948,0.1435 -0.746375,-0.5741 0.746375,-0.5741 0.602842,0.4592 c 0.0473,-0.056 0.09419,-0.1171 0.143534,-0.1721 l -0.574135,-0.4307 0.746376,-0.5741 0.459309,0.3445 c 0.01981,-0.019 0.03757,-0.038 0.05741,-0.057 l 0,-0.1436 -0.344481,-0.2584 0.344481,-0.2583 0,-0.2584 -0.516722,0.3733 -0.746376,-0.5743 0.746376,-0.5741 0.516722,0.3732 0,-0.2584 -0.344481,-0.2582 0.344481,-0.2584 0,-0.2298 -0.516722,0.3733 -0.746376,-0.5741 0.746376,-0.5742 0.516722,0.3732 0,-0.2584 -0.344481,-0.2583 0.344481,-0.2584 0,-0.2297 -0.516722,0.3733 -0.746376,-0.5741 0.746376,-0.5742 0.516722,0.3731 0,-0.2584 -0.344481,-0.2583 0.344481,-0.2583 0,-0.2296 -0.516722,0.3731 -0.746376,-0.5741 0.602842,-0.488 -0.315774,0 -0.459308,0.3444 -0.430601,-0.3444 -0.344483,0 0.631549,0.488 -0.775082,0.5741 -0.746376,-0.5741 0.602842,-0.488 -0.315774,0 -0.459308,0.3444 -0.430603,-0.3444 -0.315774,0 0.602842,0.488 -0.775082,0.5741 -0.746376,-0.5741 0.602841,-0.488 L 19.361233,1019.7086 z m -8.870391,16.7072 -0.775083,0.5743 c 0.093216,-0.062 0.1979268,-0.1007 0.287067,-0.1723 L 10.490842,1036.4158 z m 13.147699,-16.7072 0.373188,0.287 0,-0.2584 -0.05741,-0.029 L 23.638541,1019.7086 z m -10.248317,0.6028 0.775083,0.5741 -0.775083,0.5742 -0.746375,-0.5742 L 13.390224,1020.3114 z m 1.837234,0 0.775083,0.5741 -0.775083,0.5742 -0.746377,-0.5742 L 15.227458,1020.3114 z m 1.837234,0 0.775082,0.5741 -0.775082,0.5742 -0.746376,-0.5742 L 17.064692,1020.3114 z m 1.837232,0 0.775083,0.5741 -0.775083,0.5742 -0.746375,-0.5742 L 18.901924,1020.3114 z m 1.837234,0 0.775082,0.5741 -0.775082,0.5742 -0.746377,-0.5742 L 20.739158,1020.3114 z m 1.837233,0 0.775082,0.5741 -0.775082,0.5742 -0.746376,-0.5742 L 22.576391,1020.3114 z m -10.104783,0.7176 0.775084,0.5742 -0.775084,0.5741 -0.746376,-0.5741 L 12.471608,1021.029 z m 1.837233,0 0.775083,0.5742 -0.775083,0.5741 -0.746376,-0.5741 L 14.308841,1021.029 z m 1.837233,0 0.775083,0.5742 -0.775083,0.5741 -0.746375,-0.5741 L 16.146074,1021.029 z m 1.837234,0 0.775083,0.5742 -0.775083,0.5741 -0.746376,-0.5741 L 17.983308,1021.029 z m 1.837233,0 0.775082,0.5742 -0.775082,0.5741 -0.746376,-0.5741 L 19.820541,1021.029 z m 1.837233,0 0.775082,0.5742 -0.775082,0.5741 -0.746376,-0.5741 L 21.657774,1021.029 z m -8.26755,0.689 0.775083,0.5742 -0.775083,0.5741 -0.746375,-0.5741 L 13.390224,1021.718 z m 1.837234,0 0.775083,0.5742 -0.775083,0.5741 -0.746377,-0.5741 L 15.227458,1021.718 z m 1.837234,0 0.775082,0.5742 -0.775082,0.5741 -0.746376,-0.5741 L 17.064692,1021.718 z m 1.837232,0 0.775083,0.5742 -0.775083,0.5741 -0.746375,-0.5741 L 18.901924,1021.718 z m 1.837234,0 0.775082,0.5742 -0.775082,0.5741 -0.746377,-0.5741 L 20.739158,1021.718 z m 1.837233,0 0.775082,0.5742 -0.775082,0.5741 -0.746376,-0.5741 L 22.576391,1021.718 z m -0.918617,0.7177 0.775082,0.5742 -0.775082,0.5741 -0.746376,-0.5741 L 21.657774,1022.4357 z m -0.918616,0.6888 0.775082,0.5743 -0.775082,0.5741 -0.746377,-0.5741 L 20.739158,1023.1245 z m 1.837233,0 0.775082,0.5743 -0.775082,0.5741 -0.746376,-0.5741 L 22.576391,1023.1245 z m -2.75585,0.7178 0.775082,0.5741 -0.775082,0.5742 -0.746376,-0.5742 L 19.820541,1023.8423 z m 1.837233,0 0.775082,0.5741 -0.775082,0.5742 -0.746376,-0.5742 L 21.657774,1023.8423 z m -2.75585,0.7177 0.775083,0.5741 -0.775083,0.5742 -0.746375,-0.5742 L 18.901924,1024.56 z m 1.837234,0 0.775082,0.5741 -0.775082,0.5742 -0.746377,-0.5742 L 20.739158,1024.56 z m 1.837233,0 0.775082,0.5741 -0.775082,0.5742 -0.746376,-0.5742 L 22.576391,1024.56 z m -4.593083,0.6889 0.775083,0.5741 -0.775083,0.5742 -0.746376,-0.5742 L 17.983308,1025.2489 z m 1.837233,0 0.775082,0.5741 -0.775082,0.5742 -0.746376,-0.5742 L 19.820541,1025.2489 z m 1.837233,0 0.775082,0.5741 -0.775082,0.5742 -0.746376,-0.5742 L 21.657774,1025.2489 z m -4.593082,0.7177 0.775082,0.5741 -0.775082,0.5741 -0.746376,-0.5741 L 17.064692,1025.9666 z m 1.837232,0 0.775083,0.5741 -0.775083,0.5741 -0.746375,-0.5741 L 18.901924,1025.9666 z m 1.837234,0 0.775082,0.5741 -0.775082,0.5741 -0.746377,-0.5741 L 20.739158,1025.9666 z m -4.593084,0.689 0.775083,0.5741 -0.775083,0.5741 -0.746375,-0.5741 L 16.146074,1026.6556 z m 1.837234,0 0.775083,0.5741 -0.775083,0.5741 -0.746376,-0.5741 L 17.983308,1026.6556 z m 1.837233,0 0.775082,0.5741 -0.775082,0.5741 -0.746376,-0.5741 L 19.820541,1026.6556 z m 1.837233,0 0.775082,0.5741 -0.775082,0.5741 -0.746376,-0.5741 L 21.657774,1026.6556 z m -6.430316,0.7176 0.775083,0.5741 -0.775083,0.5742 -0.746377,-0.5742 L 15.227458,1027.3732 z m 1.837234,0 0.775082,0.5741 -0.775082,0.5742 -0.746376,-0.5742 L 17.064692,1027.3732 z m 1.837232,0 0.775083,0.5741 -0.775083,0.5742 -0.746375,-0.5742 L 18.901924,1027.3732 z m 1.837234,0 0.775082,0.5741 -0.775082,0.5742 -0.746377,-0.5742 L 20.739158,1027.3732 z m -6.430317,0.689 0.775083,0.5741 -0.775083,0.5741 -0.746376,-0.5741 L 14.308841,1028.0622 z m 1.837233,0 0.775083,0.5741 -0.775083,0.5741 -0.746375,-0.5741 L 16.146074,1028.0622 z m 1.837234,0 0.775083,0.5741 -0.775083,0.5741 -0.746376,-0.5741 L 17.983308,1028.0622 z m 1.837233,0 0.775082,0.5741 -0.775082,0.5741 -0.746376,-0.5741 L 19.820541,1028.0622 z m -6.430317,0.7177 0.775083,0.5741 -0.775083,0.5741 -0.746375,-0.5741 L 13.390224,1028.7799 z m 1.837234,0 0.775083,0.5741 -0.775083,0.5741 -0.746377,-0.5741 L 15.227458,1028.7799 z m 1.837234,0 0.775082,0.5741 -0.775082,0.5741 -0.746376,-0.5741 L 17.064692,1028.7799 z m 1.837232,0 0.775083,0.5741 -0.775083,0.5741 -0.746375,-0.5741 L 18.901924,1028.7799 z m 1.837234,0 0.775082,0.5741 -0.775082,0.5741 -0.746377,-0.5741 L 20.739158,1028.7799 z m -8.26755,0.7176 0.775084,0.5741 -0.775084,0.5742 -0.746376,-0.5742 L 12.471608,1029.4975 z m 1.837233,0 0.775083,0.5741 -0.775083,0.5742 -0.746376,-0.5742 L 14.308841,1029.4975 z m 1.837233,0 0.775083,0.5741 -0.775083,0.5742 -0.746375,-0.5742 L 16.146074,1029.4975 z m 1.837234,0 0.775083,0.5741 -0.775083,0.5742 -0.746376,-0.5742 L 17.983308,1029.4975 z m 1.837233,0 0.775082,0.5741 -0.775082,0.5742 -0.746376,-0.5742 L 19.820541,1029.4975 z m -8.267549,0.689 0.775083,0.5741 -0.775083,0.5741 -0.746376,-0.5741 L 11.552992,1030.1865 z m 1.837232,0 0.775083,0.5741 -0.775083,0.5741 -0.746375,-0.5741 L 13.390224,1030.1865 z m 1.837234,0 0.775083,0.5741 -0.775083,0.5741 -0.746377,-0.5741 L 15.227458,1030.1865 z m 3.674466,0 0.775083,0.5741 -0.775083,0.5741 -0.746375,-0.5741 L 18.901924,1030.1865 z m 1.837234,0 0.775082,0.5741 -0.775082,0.5741 -0.746377,-0.5741 L 20.739158,1030.1865 z m -10.104783,0.7177 0.775083,0.5741 -0.775083,0.5741 -0.7463757,-0.5741 L 10.634375,1030.9042 z m 1.837233,0 0.775084,0.5741 -0.775084,0.5741 -0.746376,-0.5741 L 12.471608,1030.9042 z m 1.837233,0 0.775083,0.5741 -0.775083,0.5741 -0.746376,-0.5741 L 14.308841,1030.9042 z m 3.674467,0 0.775083,0.5741 -0.775083,0.5741 -0.746376,-0.5741 L 17.983308,1030.9042 z m 1.837233,0 0.775082,0.5741 -0.775082,0.5741 -0.746376,-0.5741 L 19.820541,1030.9042 z m -10.104782,0.6889 0.775083,0.5741 -0.775083,0.5742 -0.7463766,-0.5742 L 9.715759,1031.5931 z m 1.837233,0 0.775083,0.5741 -0.775083,0.5742 -0.746376,-0.5742 L 11.552992,1031.5931 z m 1.837232,0 0.775083,0.5741 -0.775083,0.5742 -0.746375,-0.5742 L 13.390224,1031.5931 z m 5.5117,0 0.775083,0.5741 -0.775083,0.5742 -0.746375,-0.5742 L 18.901924,1031.5931 z m 1.837234,0 0.775082,0.5741 -0.775082,0.5742 -0.746377,-0.5742 L 20.739158,1031.5931 z m -11.9420159,0.7177 0.7750828,0.5741 -0.7750828,0.5741 -0.7463756,-0.5741 L 8.7971421,1032.3108 z m 1.8372329,0 0.775083,0.5741 -0.775083,0.5741 -0.7463757,-0.5741 L 10.634375,1032.3108 z m 1.837233,0 0.775084,0.5741 -0.775084,0.5741 -0.746376,-0.5741 L 12.471608,1032.3108 z m 5.5117,0 0.775083,0.5741 -0.775083,0.5741 -0.746376,-0.5741 L 17.983308,1032.3108 z m 1.837233,0 0.775082,0.5741 -0.775082,0.5741 -0.746376,-0.5741 L 19.820541,1032.3108 z m -11.9420157,0.689 0.7750828,0.5741 -0.7750828,0.5741 -0.7463757,-0.5741 L 7.8785253,1032.9998 z m 1.8372337,0 0.775083,0.5741 -0.775083,0.5741 -0.7463766,-0.5741 L 9.715759,1032.9998 z m 1.837233,0 0.775083,0.5741 -0.775083,0.5741 -0.746376,-0.5741 L 11.552992,1032.9998 z m 7.348932,0 0.775083,0.5741 -0.775083,0.5741 -0.746375,-0.5741 L 18.901924,1032.9998 z m 1.837234,0 0.775082,0.5741 -0.775082,0.5741 -0.746377,-0.5741 L 20.739158,1032.9998 z m -11.9420159,0.7176 0.7750828,0.5741 -0.7750828,0.5743 -0.7463756,-0.5743 L 8.7971421,1033.7174 z m 1.8372329,0 0.775083,0.5741 -0.775083,0.5743 -0.7463757,-0.5743 L 10.634375,1033.7174 z m 9.186166,0 0.775082,0.5741 -0.775082,0.5743 -0.746376,-0.5743 L 19.820541,1033.7174 z m 1.837233,0 0.775082,0.5741 -0.775082,0.5743 -0.746376,-0.5743 L 21.657774,1033.7174 z m -13.7792487,0.7176 0.7750828,0.5743 -0.7750828,0.5741 -0.7463757,-0.5741 L 7.8785253,1034.435 z m 1.8372337,0 0.775083,0.5743 -0.775083,0.5741 -0.7463766,-0.5741 L 9.715759,1034.435 z m 9.186165,0 0.775083,0.5743 -0.775083,0.5741 -0.746375,-0.5741 L 18.901924,1034.435 z m 1.837234,0 0.775082,0.5743 -0.775082,0.5741 -0.746377,-0.5741 L 20.739158,1034.435 z m 1.837233,0 0.775082,0.5743 -0.775082,0.5741 -0.746376,-0.5741 L 22.576391,1034.435 z m -15.6164817,0.689 0.7750828,0.5742 -0.7750828,0.5742 -0.7463765,-0.5742 L 6.9599093,1035.124 z m 1.8372328,0 0.7750828,0.5742 -0.7750828,0.5742 -0.7463756,-0.5742 L 8.7971421,1035.124 z m 11.0233989,0 0.775082,0.5742 -0.775082,0.5742 -0.746376,-0.5742 L 19.820541,1035.124 z m 1.837233,0 0.775082,0.5742 -0.775082,0.5742 -0.746376,-0.5742 L 21.657774,1035.124 z m -13.7792487,0.7177 0.7750828,0.5741 -0.7750828,0.5743 -0.7463757,-0.5743 L 7.8785253,1035.8417 z m 12.8606327,0 0.775082,0.5741 -0.775082,0.5743 -0.746377,-0.5743 L 20.739158,1035.8417 z m 1.837233,0 0.775082,0.5741 -0.775082,0.5743 -0.746376,-0.5743 L 22.576391,1035.8417 z m -2.75585,0.6889 0.775082,0.5742 -0.775082,0.5742 -0.746376,-0.5742 L 19.820541,1036.5306 z m 1.837233,0 0.775082,0.5742 -0.775082,0.5742 -0.746376,-0.5742 L 21.657774,1036.5306 z m -0.918616,0.7178 0.775082,0.5741 -0.775082,0.5741 -0.746377,-0.5741 L 20.739158,1037.2484 z m 1.837233,0 0.775082,0.5741 -0.775082,0.5741 -0.746376,-0.5741 L 22.576391,1037.2484 z m -0.918617,0.6889 0.775082,0.5742 -0.775082,0.6028 -0.746376,-0.6028 L 21.657774,1037.9373 z m 0.918617,0.7177 0.775082,0.5741 -0.775082,0.5741 -0.746376,-0.5741 L 22.576391,1038.655 Z"
       id="rect2163"
       inkscape:connector-curvature="0" />
    <path
       style="color:#000000;fill:#000000;fill-opacity:0.12903227;fill-rule:nonzero;stroke:none;stroke-width:0.1;marker:none;visibility:visible;display:inline;overflow:visible;enable-background:accumulate"
       d="m 23.724661,1016.2063 0.200947,0.8038 0.08612,0.086 0,-0.5741 -0.02871,-0.1148 L 23.724661,1016.2063 z m -12.602271,5.9997 c -0.0096,0.05 0.0045,0.094 0,0.1436 l 0.05741,0 C 11.15893,1022.3003 11.137081,1022.2578 11.12239,1022.206 z m 0.258361,0.488 0.143533,0.6029 -0.17224,0 c 0.04492,0.062 0.08805,0.117 0.143535,0.1722 l 0.05741,0 0,0.057 c 0.07566,0.067 0.166918,0.1175 0.25836,0.1724 l -0.02871,-0.2011 0.918617,0.029 0.114827,0.4594 c 0.03918,0 0.07469,-2e-4 0.114827,0 l 0.114827,0 -0.114827,-0.4594 0.947324,0.057 0.08612,0.4019 0.229655,0 -0.08612,-0.4019 0.918617,0.029 0.08612,0.3732 0.229654,0 -0.08612,-0.3445 0.918617,0.057 0.08612,0.287 0.200947,0 -0.05741,-0.287 0.947323,0.029 0.05741,0.2583 0.200948,0 -0.05741,-0.2297 0.947324,0.029 0.05741,0.2011 0.229654,0 -0.05741,-0.2011 0.832496,0.057 0.258361,-0.2009 -0.05741,-0.3158 -0.229653,0 0.08612,0.3445 -0.947323,-0.086 -0.05741,-0.2584 -0.200948,0 0.05741,0.2584 -0.947322,-0.057 -0.05741,-0.2009 -0.200947,0 0.05741,0.2297 -0.976031,-0.057 -0.0287,-0.1723 -0.172242,0 0.02871,0.1723 -0.976029,-0.086 -0.02871,-0.086 -0.200947,0 0.02871,0.1149 -0.947323,-0.057 0,-0.057 -0.200948,0 0,0.057 -0.918616,-0.057 c -0.0099,0 -0.01886,1e-4 -0.02871,0 -0.07021,0 -0.133575,-0.023 -0.200948,-0.029 l 0,0.029 -0.976031,-0.057 -0.08612,-0.3445 C 11.54529,1022.8522 11.452645,1022.7809 11.380751,1022.694 z m 12.372617,3.1003 c -0.05857,0.058 -0.11492,0.1135 -0.172241,0.1723 l 0.02871,0.1149 -0.114827,0 c -0.05636,0.059 -0.1179,0.1115 -0.172241,0.1722 l 0.287068,0.029 0.05741,0.2583 c 0.06275,-0.063 0.137039,-0.1101 0.200947,-0.1722 l -0.02871,-0.086 0.08612,0 c 0.02967,-0.028 0.05636,-0.058 0.08612,-0.086 l 0,-0.1436 -0.200947,0 L 23.753368,1025.7943 z m -0.947323,1.0909 c -0.04799,0.072 -0.07174,0.1552 -0.114827,0.2296 -0.004,0.01 0.004,0.021 0,0.029 l -0.02871,0 c -0.0065,0.012 -0.02223,0.017 -0.02871,0.029 -0.03131,0.057 -0.0566,0.1147 -0.08612,0.1723 l 0.17224,0 0.05741,0.2584 c 0.04537,-0.07 0.094,-0.1329 0.143534,-0.201 l 0,-0.057 0.05741,0 c 0.04321,-0.057 0.0978,-0.1161 0.143534,-0.1724 l -0.258361,-0.029 L 22.806045,1026.8852 z m -0.63155,1.3492 c -0.02203,0.065 -0.03752,0.1347 -0.05741,0.201 l 0.229654,0 c 0.02508,-0.059 0.05923,-0.1138 0.08612,-0.1723 L 22.174495,1028.2344 z m -0.114827,0.3732 c -0.03791,0.1407 -0.08655,0.2867 -0.114826,0.4307 -0.0018,0.01 0.0017,0.02 0,0.029 l 0.08612,0.2871 c 0.03161,-0.1242 0.07585,-0.2515 0.114827,-0.3732 L 22.059668,1028.6076 z m -0.02871,0.7464 -0.114828,0 c -0.0099,0.068 -0.02094,0.1318 -0.02871,0.201 l 0.114827,0 C 22.016558,1029.4903 22.014688,1029.4179 22.030963,1029.354 z m -5.109806,1.8085 -0.17224,0.1435 0,0.057 -0.05741,0 -0.200948,0.1724 0.287068,0 0.08612,0.3157 0.143534,-0.1149 c 2.61e-4,-0.012 -6.13e-4,-0.018 0,-0.029 l -0.02871,-0.1435 0.05741,0 c 0.0039,-0.025 -0.0026,-0.047 0,-0.086 0.0044,-0.065 -0.0026,-0.095 0,-0.1435 l -0.08612,0 L 16.921157,1031.1625 z m -0.976029,0.8038 -0.200947,0.1436 0.08612,0.3157 -0.430601,-0.029 -0.229654,0.2009 0.688963,0.029 0,0.057 0.287066,-0.2584 -0.114826,0 L 15.945128,1031.9663 z m 1.090857,0.4593 c -0.0044,0.09 -0.02228,0.1703 -0.02871,0.2584 l 0,0.057 0.114827,0.4593 C 17.080255,1032.9181 17.046892,1032.6338 17.035985,1032.4256 z m -2.095594,0.3445 -0.143535,0.1436 0.114828,0.5453 0.172241,-0.1435 L 14.940391,1032.7701 z m -0.832496,0.6889 -0.315775,0.2584 0.143534,0.5455 0.172241,-0.1436 -0.114827,-0.4592 0.631548,0.029 0.229654,-0.1722 L 14.107894,1033.459 z m 2.985503,0.1724 c 0.01039,0.075 0.01578,0.1219 0.02871,0.2008 l 0.143533,0 c -0.01553,-0.069 -0.04371,-0.1318 -0.05741,-0.2008 L 17.093398,1033.6314 z m -4.076361,0.7176 -0.17224,0.1435 0,0.057 -0.05741,0 -0.200947,0.1723 0.315774,0 0.05741,0.3158 0.17224,-0.1435 -0.02871,-0.1436 0.229654,0 0.229654,-0.201 -0.516721,-0.029 L 13.017036,1034.349 z m 4.363429,0.057 0.08612,0.3446 -0.143533,0 c 0.0175,0.064 0.0099,0.1381 0.02871,0.2009 l 0.172241,0 0.200947,0.9186 -0.02871,0 c 0.132222,0.325 0.295027,0.6348 0.459309,0.9474 l -0.17224,-0.7464 0.114826,0 c -0.0334,-0.064 -0.05408,-0.1354 -0.08612,-0.201 l -0.08612,0 -0.05741,-0.2583 C 17.68923,1035.2182 17.510347,1034.8176 17.380465,1034.4063 z m -5.339459,0.7465 -0.17224,0.1435 0.08612,0.3158 -0.430603,-0.029 -0.25836,0.2008 0.688963,0.029 0,0.057 0.315774,-0.2583 -0.143534,0 L 12.041007,1035.1528 z m -0.976031,0.8037 -0.17224,0.1436 0.114827,0.5454 0.172241,-0.1149 L 11.064976,1035.9565 z m -5.1385101,0.5167 c 0.00347,0.058 0.020456,0.1151 0.028707,0.1723 l 0.258361,0.029 c -0.040397,-0.064 -0.083475,-0.1325 -0.1148269,-0.201 L 5.9264656,1036.4732 z m 4.2773081,0.1723 -0.200948,0.1723 c -0.027572,0.022 -0.058125,0.036 -0.086119,0.057 l 0.1435345,0.5455 0.143534,-0.1149 -0.08612,-0.4593 0.602841,0.029 0.229656,-0.1722 L 10.203774,1036.6455 z m 8.037895,0.3446 c 0.04149,0.076 0.07147,0.1547 0.114828,0.2295 l 0.430601,0.029 c -0.04301,-0.064 -0.07323,-0.1369 -0.114828,-0.201 L 18.241669,1036.9901 z m -11.7123615,0.029 0.1148277,0.6028 -0.2009474,0 c 0.071156,0.073 0.1483593,0.1416 0.2296537,0.201 0.081384,0.059 0.1682456,0.1262 0.2583609,0.1722 l -0.028707,-0.1722 0.9473232,0.029 0.086119,0.3732 c 0.06826,0 0.1315885,-0.024 0.2009475,-0.029 l -0.086119,-0.3158 0.9473241,0.029 0.028707,0.1436 c 0.061106,-0.022 0.111705,-0.088 0.1722404,-0.1148 0.0076,0 0.021149,0 0.028706,0 0.1247184,-0.056 0.2525522,-0.1282 0.3731878,-0.201 l -0.4306012,-0.029 -0.086119,-0.3733 c -0.068756,0.027 -0.131671,0.064 -0.2009475,0.086 l 0.086119,0.3157 -0.9760303,-0.057 -0.028707,-0.1148 c -0.065072,-6e-4 -0.1371413,0.01 -0.2009475,0 l 0.028707,0.1148 -0.9473232,-0.057 -0.086119,-0.4306 C 6.6795443,1037.1385 6.6000415,1037.0832 6.5293072,1037.0187 z m 12.8032185,0.976 0.05741,0.201 -0.430601,-0.029 c 0.05154,0.071 0.118854,0.1302 0.17224,0.201 l 0.287067,0.029 0.114828,0.488 c 0.08917,0.1054 0.164921,0.2127 0.258361,0.3158 l -0.172241,-0.8038 0.05741,0 C 19.558303,1038.2615 19.444005,1038.1337 19.332526,1037.9947 z m 0.574136,1.3205 c 0.07288,0.079 0.154796,0.1533 0.229653,0.2297 l 0.688963,0.029 c -0.06069,-0.052 -0.112649,-0.1182 -0.17224,-0.1723 L 19.906662,1039.3152 z m 0.918616,0.2584 0.172241,0.7751 c 0.07311,0.062 0.155002,0.1123 0.229653,0.1722 l -0.17224,-0.7751 C 20.98138,1039.6847 20.897291,1039.6364 20.825278,1039.5736 z m 0.401894,0.9473 c 0.07933,0.063 0.148617,0.1392 0.229655,0.2009 l 0.775083,0.029 0.114827,0.5741 c 0.07709,0.049 0.151251,0.096 0.229654,0.1436 l -0.143535,-0.689 0.114828,0 c -0.12654,-0.077 -0.250098,-0.149 -0.373188,-0.2297 l 0,0.029 L 21.227172,1040.5209 z m 2.267836,0.7751 0.143533,0.7464 c 0.07777,0.037 0.150796,0.078 0.229655,0.1148 l -0.143535,-0.7464 C 23.646513,1041.3741 23.57206,1041.3341 23.495007,1041.296 Z"
       id="path5623"
       inkscape:connector-curvature="0" />
    <path
       inkscape:connector-curvature="0"
       style="color:#000000;fill:#ffffff;fill-opacity:0.12903227;fill-rule:nonzero;stroke:none;stroke-width:0.1;marker:none;visibility:visible;display:inline;overflow:visible;enable-background:accumulate"
       d="m 23.941395,1013.626 c -0.05854,0.018 -0.115937,0.019 -0.175781,0.029 l -0.0293,0 -0.0586,0.058 0.08789,0.058 L 23.941395,1013.626 z m -0.439453,0.2344 -0.351563,0.2636 c -0.04986,0.066 -0.110029,0.1355 -0.146484,0.2051 l 0.498047,-0.3515 0.498047,0.3515 0,-0.088 L 23.501942,1013.8604 z m -0.644531,0.8789 c -0.0058,0.037 0.0019,0.079 0,0.1172 l 0.410156,0.3222 0.08789,-0.058 -0.46875,-0.3808 C 22.886495,1014.7406 22.857619,1014.7379 22.857411,1014.7393 z m 1.142578,0.1172 -0.322266,0.2636 0.0586,0.058 0.263672,-0.2051 L 23.999989,1014.8565 z m -0.498047,0.4101 -0.351563,0.293 c -0.02151,-0.026 -0.03938,-0.058 -0.05859,-0.088 l -0.0586,0.029 c 0.03296,0.055 0.07417,0.094 0.117186,0.1465 l 0.351563,-0.2637 0.498047,0.3516 0,-0.088 L 23.501942,1015.2666 z m 0.38086,0.9668 -0.0586,0.058 0.146485,0.1172 0.0293,0 0,-0.1172 -0.0293,0 L 23.882802,1016.2334 z m -4.365235,3.4864 -0.439453,0.3516 0.05859,0.058 0.527344,-0.4102 L 19.517567,1019.7198 z m 0.46875,0 0.527344,0.4102 0.08789,-0.058 -0.46875,-0.3516 L 19.986317,1019.7198 z m 1.376953,0 -0.439453,0.3516 0.08789,0.058 0.498046,-0.4102 L 21.36327,1019.7198 z m 0.439453,0 0.556641,0.4102 0.08789,-0.058 -0.498046,-0.3516 L 21.802723,1019.7198 z m 1.40625,0 -0.46875,0.3516 0.08789,0.058 0.527344,-0.4102 L 23.208973,1019.7198 z m 0.439453,0 0.351563,0.2636 0,-0.088 -0.205078,-0.1758 L 23.648426,1019.7198 z m -9.667968,0.029 -0.410156,0.3224 0.08789,0.058 0.468749,-0.3809 L 13.980458,1019.749 z m 0.498047,0 0.527344,0.381 0.08789,-0.058 -0.439453,-0.3223 L 14.478505,1019.749 z m 1.347656,0 -0.439454,0.3224 0.08789,0.058 0.498047,-0.3809 L 15.826161,1019.749 z m 0.498046,0 0.498047,0.381 0.08789,-0.058 -0.439452,-0.3223 L 16.324207,1019.749 z m 1.347657,0 -0.439453,0.3224 0.08789,0.058 0.498047,-0.3809 L 17.671864,1019.749 z m 0.498047,0 0.498047,0.381 0.08789,-0.058 -0.439453,-0.3223 L 18.169911,1019.749 z m -5.332032,0.1172 0.322266,0.2638 0.08789,-0.058 -0.292969,-0.2051 C 12.917003,1019.8755 12.874302,1019.8551 12.837879,1019.8662 z m 0.556642,0.3224 -0.761719,0.5859 0.08789,0.058 0.673828,-0.5274 0.673828,0.5274 0.08789,-0.058 L 13.394521,1020.1886 z m 1.845702,0 -0.761718,0.5859 0.08789,0.058 0.673828,-0.5274 0.673828,0.5274 0.08789,-0.058 L 15.240223,1020.1886 z m 1.816407,0 -0.732423,0.5859 0.0586,0.058 0.673828,-0.5274 0.703124,0.5274 0.08789,-0.058 L 17.05663,1020.1886 z m 1.845703,0 -0.732422,0.5859 0.08789,0.058 0.644531,-0.5274 0.673828,0.5274 0.08789,-0.058 L 18.902333,1020.1886 z m 1.845703,0 -0.761719,0.5859 0.08789,0.058 0.673828,-0.5274 0.673828,0.5274 0.08789,-0.058 L 20.748036,1020.1886 z m 1.816406,0 -0.732421,0.5859 0.0586,0.058 0.673828,-0.5274 0.703125,0.5274 0.08789,-0.058 L 22.564442,1020.1886 z m -10.69336,0.2049 c -0.02696,0.021 -0.06202,0.036 -0.08789,0.058 l 0.46875,0.3809 0.08789,-0.058 L 11.871082,1020.3935 z m 12.128907,0.1172 -0.322266,0.2638 0.0586,0.058 0.263672,-0.2051 L 23.999989,1020.5107 z m -11.542968,0.4102 -0.732423,0.5567 0.08789,0.058 0.644532,-0.4981 0.703124,0.4981 0.08789,-0.058 L 12.457021,1020.9209 z m 1.845702,0 -0.732421,0.5567 0.08789,0.058 0.644531,-0.4981 0.703125,0.4981 0.08789,-0.058 L 14.302723,1020.9209 z m 1.845703,0 -0.761719,0.5567 0.08789,0.058 0.673828,-0.4981 0.673828,0.4981 0.08789,-0.058 L 16.148426,1020.9209 z m 1.845704,0 -0.761719,0.5567 0.08789,0.058 0.673828,-0.4981 0.673828,0.4981 0.08789,-0.058 L 17.99413,1020.9209 z m 1.816406,0 -0.732422,0.5567 0.08789,0.058 0.644531,-0.4981 0.703125,0.4981 0.08789,-0.058 L 19.810536,1020.9209 z m 1.845703,0 -0.732422,0.5567 0.08789,0.058 0.644531,-0.4981 0.703125,0.4981 0.08789,-0.058 L 21.656239,1020.9209 z m 1.845703,0 -0.761719,0.5567 0.08789,0.058 0.673828,-0.4981 0.498047,0.3516 0,-0.088 L 23.501942,1020.9209 z m -12.333984,0.4102 c -0.0055,0.023 -0.02221,0.034 -0.0293,0.058 l 0.175781,0.1465 0.08789,-0.058 L 11.167958,1021.3311 z m 0.380859,0.2636 -0.439453,0.3516 c 0.0059,0.037 -0.0064,0.079 0,0.1172 l 0.439453,-0.3516 0.703125,0.5274 0.08789,-0.058 L 11.548817,1021.5947 z m 1.845704,0 -0.761719,0.586 0.08789,0.058 0.673828,-0.5274 0.673828,0.5274 0.08789,-0.058 L 13.394521,1021.5947 z m 1.845702,0 -0.761718,0.586 0.08789,0.058 0.673828,-0.5274 0.673828,0.5274 0.08789,-0.058 L 15.240223,1021.5947 z m 1.816407,0 -0.732423,0.586 0.0586,0.058 0.673828,-0.5274 0.703124,0.5274 0.08789,-0.058 L 17.05663,1021.5947 z m 1.845703,0 -0.732422,0.586 0.08789,0.058 0.644531,-0.5274 0.673828,0.5274 0.08789,-0.058 L 18.902333,1021.5947 z m 1.845703,0 -0.761719,0.586 0.08789,0.058 0.673828,-0.5274 0.673828,0.5274 0.08789,-0.058 L 20.748036,1021.5947 z m 1.816406,0 -0.732421,0.586 0.0586,0.058 0.673828,-0.5274 0.703125,0.5274 0.08789,-0.058 L 22.564442,1021.5947 z m 1.435547,0.3223 -0.322266,0.2637 0.0586,0.058 0.263672,-0.2052 L 23.999989,1021.917 z m -11.542968,0.4102 -0.703126,0.5566 c -0.05018,-0.032 -0.09925,-0.052 -0.146484,-0.088 l -0.0586,0.058 c 0.05978,0.052 0.135693,0.102 0.205079,0.1465 l 0.703125,-0.5566 0.703124,0.498 0.08789,-0.058 L 12.457021,1022.3272 z m 1.845702,0 -0.732421,0.5566 0.0586,0.058 0.673828,-0.4981 0.703125,0.4981 0.08789,-0.058 L 14.302723,1022.3272 z m 1.845703,0 -0.761719,0.5566 0.08789,0.058 0.673828,-0.4981 0.673828,0.4981 0.08789,-0.058 L 16.148426,1022.3272 z m 1.845704,0 -0.761719,0.5566 0.08789,0.058 0.673828,-0.4981 0.673828,0.4981 0.08789,-0.058 L 17.99413,1022.3272 z m 1.816406,0 -0.732422,0.5566 0.08789,0.058 0.644531,-0.4981 0.703125,0.4981 0.08789,-0.058 L 19.810536,1022.3272 z m 1.845703,0 -0.732422,0.5566 0.08789,0.058 0.644531,-0.4981 0.703125,0.4981 0.08789,-0.058 L 21.656239,1022.3272 z m 1.845703,0 -0.761719,0.5566 0.08789,0.058 0.673828,-0.4981 0.498047,0.3515 0,-0.088 L 23.501942,1022.3272 z m -10.107421,0.6738 -0.263672,0.2051 -0.175782,0 -0.146485,0.1171 c 0.04001,0 0.07622,-10e-5 0.117188,0 l 0.205079,0 0.263672,-0.205 0.263672,0.205 0.292968,0 -0.146484,-0.1171 -0.146484,0 L 13.394521,1023.001 z m 1.845702,0 -0.263672,0.2051 -0.175781,0 -0.146484,0.1171 0.322265,0 0.263672,-0.205 0.234375,0.205 0.322266,0 -0.146485,-0.1171 -0.175781,0 L 15.240223,1023.001 z m 1.816407,0 -0.263672,0.2051 -0.146485,0 -0.146484,0.1171 0.292969,0 0.263672,-0.205 0.263672,0.205 0.322265,0 -0.146484,-0.1171 -0.175781,0 L 17.05663,1023.001 z m 1.845703,0 -0.263672,0.2051 -0.175782,0 -0.146484,0.1171 0.322266,0 0.263672,-0.205 0.263672,0.205 0.322265,0 -0.146484,-0.1171 -0.175781,0 L 18.902333,1023.001 z m 1.845703,0 -0.761719,0.586 0.08789,0.058 0.673828,-0.5274 0.673828,0.5274 0.08789,-0.058 L 20.748036,1023.001 z m 1.816406,0 -0.732421,0.586 0.0586,0.058 0.673828,-0.5274 0.703125,0.5274 0.08789,-0.058 L 22.564442,1023.001 z m 1.435547,0.3222 -0.322266,0.2638 0.0586,0.058 0.263672,-0.2051 L 23.999989,1023.3232 z m -4.189453,0.4102 -0.732422,0.5567 0.08789,0.058 0.644531,-0.498 0.703125,0.498 0.08789,-0.058 L 19.810536,1023.7334 z m 1.845703,0 -0.732422,0.5567 0.08789,0.058 0.644531,-0.498 0.703125,0.498 0.08789,-0.058 L 21.656239,1023.7334 z m 1.845703,0 -0.761719,0.5567 0.08789,0.058 0.673828,-0.498 0.498047,0.3515 0,-0.088 L 23.501942,1023.7334 z m -4.599609,0.7031 -0.732422,0.586 0.08789,0.058 0.644531,-0.5273 0.673828,0.5273 0.08789,-0.058 L 18.902333,1024.4365 z m 1.845703,0 -0.761719,0.586 0.08789,0.058 0.673828,-0.5273 0.673828,0.5273 0.08789,-0.058 L 20.748036,1024.4365 z m 1.816406,0 -0.732421,0.586 0.0586,0.058 0.673828,-0.5273 0.703125,0.5273 0.08789,-0.058 L 22.564442,1024.4365 z m 1.435547,0.3224 -0.322266,0.2636 0.0586,0.058 0.263672,-0.205 L 23.999989,1024.7588 z m -6.005859,0.3808 -0.761719,0.5566 0.08789,0.058 0.673828,-0.4982 0.673828,0.4982 0.08789,-0.058 L 17.99413,1025.1397 z m 1.816406,0 -0.732422,0.5566 0.08789,0.058 0.644531,-0.4982 0.703125,0.4982 0.08789,-0.058 L 19.810536,1025.1397 z m 1.845703,0 -0.732422,0.5566 0.08789,0.058 0.644531,-0.4982 0.703125,0.4982 0.08789,-0.058 L 21.656239,1025.1397 z m 1.845703,0 -0.761719,0.5566 0.08789,0.058 0.673828,-0.4982 0.439454,0.3224 c 0.01981,-0.019 0.03875,-0.01 0.0586,-0.029 l 0,-0.1172 c -0.01985,0.019 -0.03879,0.04 -0.0586,0.058 L 23.501942,1025.1397 z m -6.445312,0.7031 -0.732423,0.586 0.0586,0.058 0.673828,-0.5273 0.703124,0.5273 0.08789,-0.058 L 17.05663,1025.8428 z m 1.845703,0 -0.732422,0.586 0.08789,0.058 0.644531,-0.5273 0.673828,0.5273 0.08789,-0.058 L 18.902333,1025.8428 z m 1.845703,0 -0.761719,0.586 0.08789,0.058 0.673828,-0.5273 0.673828,0.5273 0.08789,-0.058 L 20.748036,1025.8428 z m 1.816406,0 -0.732421,0.586 0.0586,0.058 0.673828,-0.5273 0.615234,0.4688 c 0.0473,-0.056 0.09714,-0.1207 0.146484,-0.1758 l -0.0586,-0.058 c -0.03065,0.036 -0.05765,0.081 -0.08789,0.1172 L 22.564442,1025.8428 z m -6.416016,0.7031 -0.761719,0.5567 0.08789,0.058 0.673828,-0.4981 0.673828,0.4981 0.08789,-0.058 L 16.148426,1026.5458 z m 1.845704,0 -0.761719,0.5567 0.08789,0.058 0.673828,-0.4981 0.673828,0.4981 0.08789,-0.058 L 17.99413,1026.5458 z m 1.816406,0 -0.732422,0.5567 0.08789,0.058 0.644531,-0.4981 0.703125,0.4981 0.08789,-0.058 L 19.810536,1026.5458 z m 1.845703,0 -0.732422,0.5567 0.08789,0.058 0.644531,-0.4981 0.703125,0.4981 0.08789,-0.058 L 21.656239,1026.5458 z m 1.113282,0.4395 -0.146485,0.088 c -0.04596,0.083 -0.07508,0.15 -0.117187,0.2344 l -0.673828,0.5273 0.0586,0.058 0.615234,-0.4687 c 0.04211,-0.084 0.07123,-0.1801 0.117187,-0.2637 C 22.66317,1027.0881 22.724591,1027.0558 22.769521,1026.9854 z m -7.529298,0.2636 -0.761718,0.5859 0.08789,0.058 0.673828,-0.5273 0.673828,0.5273 0.08789,-0.058 L 15.240223,1027.249 z m 1.816407,0 -0.732423,0.5859 0.0586,0.058 0.673828,-0.5273 0.703124,0.5273 0.08789,-0.058 L 17.05663,1027.249 z m 1.845703,0 -0.732422,0.5859 0.08789,0.058 0.644531,-0.5273 0.673828,0.5273 0.08789,-0.058 L 18.902333,1027.249 z m 1.845703,0 -0.761719,0.5859 0.08789,0.058 0.673828,-0.5273 0.673828,0.5273 0.08789,-0.058 L 20.748036,1027.249 z m -6.445313,0.7031 -0.732421,0.5568 0.08789,0.058 0.644531,-0.4981 0.703125,0.4981 0.08789,-0.058 L 14.302723,1027.9521 z m 1.845703,0 -0.761719,0.5568 0.08789,0.058 0.673828,-0.4981 0.673828,0.4981 0.08789,-0.058 L 16.148426,1027.9521 z m 1.845704,0 -0.761719,0.5568 0.08789,0.058 0.673828,-0.4981 0.673828,0.4981 0.08789,-0.058 L 17.99413,1027.9521 z m 1.816406,0 -0.732422,0.5568 0.08789,0.058 0.644531,-0.4981 0.703125,0.4981 0.08789,-0.058 L 19.810536,1027.9521 z m 1.845703,0 -0.732422,0.5568 0.08789,0.058 0.644531,-0.4981 0.46875,0.3516 c 0.01752,-0.057 0.03945,-0.1189 0.0586,-0.1758 l -0.0293,-0.029 c -0.0098,0.029 -0.02054,0.059 -0.0293,0.088 L 21.656239,1027.9521 z m -8.261718,0.7032 -0.761719,0.5859 0.08789,0.058 0.673828,-0.5273 0.673828,0.5273 0.08789,-0.058 L 13.394521,1028.6553 z m 1.845702,0 -0.761718,0.5859 0.08789,0.058 0.673828,-0.5273 0.673828,0.5273 0.08789,-0.058 L 15.240223,1028.6553 z m 1.816407,0 -0.732423,0.5859 0.0586,0.058 0.673828,-0.5273 0.703124,0.5273 0.08789,-0.058 L 17.05663,1028.6553 z m 1.845703,0 -0.732422,0.5859 0.08789,0.058 0.644531,-0.5273 0.673828,0.5273 0.08789,-0.058 L 18.902333,1028.6553 z m 1.845703,0 -0.761719,0.5859 0.08789,0.058 0.673828,-0.5273 0.673828,0.5273 0.08789,-0.058 L 20.748036,1028.6553 z m 1.230469,0.3223 -0.0293,0.029 c -0.01053,0.057 -0.0203,0.1174 -0.0293,0.1758 l -0.08789,0.058 0.0586,0.058 0.0293,0 C 21.936449,1029.1925 21.956707,1029.0831 21.978505,1028.9776 z m -9.521484,0.4101 -0.732423,0.5567 0.08789,0.058 0.644532,-0.498 0.703124,0.498 0.08789,-0.058 L 12.457021,1029.3877 z m 1.845702,0 -0.732421,0.5567 0.08789,0.058 0.644531,-0.498 0.703125,0.498 0.08789,-0.058 L 14.302723,1029.3877 z m 1.845703,0 -0.761719,0.5567 0.08789,0.058 0.673828,-0.498 0.673828,0.498 0.08789,-0.058 L 16.148426,1029.3877 z m 1.845704,0 -0.761719,0.5567 0.08789,0.058 0.673828,-0.498 0.673828,0.498 0.08789,-0.058 L 17.99413,1029.3877 z m 1.816406,0 -0.732422,0.5567 0.08789,0.058 0.644531,-0.498 0.703125,0.498 0.08789,-0.058 L 19.810536,1029.3877 z m 1.845703,0 -0.732422,0.5567 0.08789,0.058 0.644531,-0.498 0.205078,0.1464 c 0.0038,-0.038 -0.0048,-0.079 0,-0.1172 L 21.656239,1029.3877 z m -10.107422,0.6739 -0.732422,0.5859 0.05859,0.058 0.673828,-0.5273 0.703126,0.5273 0.08789,-0.058 L 11.548817,1030.0615 z m 1.845704,0 -0.761719,0.5859 0.08789,0.058 0.673828,-0.5273 0.673828,0.5273 0.08789,-0.058 L 13.394521,1030.0615 z m 1.845702,0 -0.761718,0.5859 0.08789,0.058 0.673828,-0.5273 0.673828,0.5273 0.08789,-0.058 L 15.240223,1030.0615 z m 1.816407,0 -0.732423,0.5859 0.08789,0.058 0.644532,-0.5273 0.703124,0.5273 0.08789,-0.058 L 17.05663,1030.0615 z m 1.845703,0 -0.732422,0.5859 0.08789,0.058 0.644531,-0.5273 0.673828,0.5273 0.08789,-0.058 L 18.902333,1030.0615 z m 1.845703,0 -0.761719,0.5859 0.08789,0.058 0.673828,-0.5273 0.673828,0.5273 0.08789,-0.058 L 20.748036,1030.0615 z m 1.113281,0.5566 -0.0293,0.029 0.0293,0.029 C 21.85865,1030.6579 21.864315,1030.6372 21.861317,1030.6182 z m -11.220703,0.1758 -0.7617187,0.5566 0.087891,0.058 0.6738277,-0.4981 0.673828,0.4981 0.08789,-0.058 L 10.640614,1030.794 z m 1.816407,0 -0.732423,0.5566 0.08789,0.058 0.644532,-0.4981 0.703124,0.4981 0.08789,-0.058 L 12.457021,1030.794 z m 1.845702,0 -0.732421,0.5566 0.08789,0.058 0.644531,-0.4981 0.703125,0.4981 0.08789,-0.058 L 14.302723,1030.794 z m 1.845703,0 -0.761719,0.5566 0.08789,0.058 0.673828,-0.4981 0.585938,0.4102 0.146485,-0.1172 -0.0586,-0.058 -0.08789,0.088 L 16.148426,1030.794 z m 1.845704,0 -0.761719,0.5566 0.08789,0.058 0.673828,-0.4981 0.673828,0.4981 0.08789,-0.058 L 17.99413,1030.794 z m 1.816406,0 -0.732422,0.5566 0.08789,0.058 0.644531,-0.4981 0.703125,0.4981 0.08789,-0.058 L 19.810536,1030.794 z m 1.845703,0 -0.732422,0.5566 0.08789,0.058 0.644531,-0.4981 0.234375,0.1758 c -0.0048,-0.036 0.0038,-0.079 0,-0.1172 L 21.656239,1030.794 z m -11.953125,0.6738 -0.7324219,0.5859 0.087891,0.058 0.6445312,-0.5274 0.7031247,0.5274 0.08789,-0.058 L 9.703114,1031.4678 z m 1.845703,0 -0.732422,0.5859 0.05859,0.058 0.673828,-0.5274 0.703126,0.5274 0.08789,-0.058 L 11.548817,1031.4678 z m 1.845704,0 -0.761719,0.5859 0.08789,0.058 0.673828,-0.5274 0.673828,0.5274 0.08789,-0.058 L 13.394521,1031.4678 z m 1.845702,0 -0.761718,0.5859 0.08789,0.058 0.673828,-0.5274 0.585937,0.4688 0.146484,-0.1172 -0.05859,-0.058 -0.08789,0.058 L 15.240223,1031.4678 z m 1.816407,0 c -10e-4,0.01 -0.02829,0.02 -0.0293,0.029 -0.0036,0.035 0.0042,0.064 0,0.1172 l 0.0293,-0.029 0.703124,0.5274 0.08789,-0.058 L 17.05663,1031.4678 z m 1.845703,0 -0.732422,0.5859 0.08789,0.058 0.644531,-0.5274 0.673828,0.5274 0.08789,-0.058 L 18.902333,1031.4678 z m 1.845703,0 -0.761719,0.5859 0.08789,0.058 0.673828,-0.5274 0.673828,0.5274 0.08789,-0.058 L 20.748036,1031.4678 z m 1.318359,0.4101 -0.234374,0.1758 0.08789,0.058 0.175782,-0.1465 C 22.087607,1031.9363 22.076909,1031.9061 22.066395,1031.8779 z m -13.2714841,0.3224 -0.7324219,0.5565 0.087891,0.058 0.6445313,-0.4979 0.7031249,0.4979 0.087891,-0.058 L 8.7949109,1032.2002 z m 1.8457031,0 -0.7617187,0.5565 0.087891,0.058 0.6738277,-0.4979 0.673828,0.4979 0.08789,-0.058 L 10.640614,1032.2002 z m 1.816407,0 -0.732423,0.5565 0.08789,0.058 0.644532,-0.4979 0.703124,0.4979 0.08789,-0.058 L 12.457021,1032.2002 z m 1.845702,0 -0.732421,0.5565 0.08789,0.058 0.644531,-0.4979 0.64453,0.4393 0.175782,-0.088 -0.08789,-0.058 -0.08789,0.058 L 14.302723,1032.2002 z m 3.691407,0 -0.761719,0.5565 0.08789,0.058 0.673828,-0.4979 0.673828,0.4979 0.08789,-0.058 L 17.99413,1032.2002 z m 1.816406,0 -0.732422,0.5565 0.08789,0.058 0.644531,-0.4979 0.703125,0.4979 0.08789,-0.058 L 19.810536,1032.2002 z m 1.845703,0 -0.732422,0.5858 0.0586,0.029 0.673828,-0.4979 0.732421,0.4979 c -0.01714,-0.037 -0.01088,-0.079 -0.0293,-0.1171 L 21.656239,1032.2002 z m -13.7695313,0.6737 -0.7617187,0.586 0.087891,0.058 0.6738281,-0.5274 0.6738281,0.5274 0.087891,-0.058 L 7.8867077,1032.874 z m 1.8164063,0 -0.7324219,0.586 0.087891,0.058 0.6445312,-0.5274 0.7031247,0.5274 0.08789,-0.058 L 9.703114,1032.874 z m 1.845703,0 -0.732422,0.586 0.05859,0.058 0.673828,-0.5274 0.703126,0.5274 0.08789,-0.058 L 11.548817,1032.874 z m 1.845704,0 -0.761719,0.586 0.08789,0.058 0.673828,-0.5274 0.644531,0.4982 0.146484,-0.1172 -0.05859,-0.058 -0.08789,0.058 L 13.394521,1032.874 z m 5.507812,0 -0.732422,0.586 0.08789,0.058 0.644531,-0.5274 0.673828,0.5274 0.08789,-0.058 L 18.902333,1032.874 z m 1.845703,0 -0.761719,0.586 0.08789,0.058 0.673828,-0.5274 0.673828,0.5274 0.08789,-0.058 L 20.748036,1032.874 z m -3.66211,0.029 c 0.0034,0.037 -0.0063,0.074 0,0.1172 l 0.673828,0.498 0.08789,-0.058 L 17.085926,1032.9033 z m 5.361328,0.058 -0.615233,0.498 0.0586,0.058 0.585937,-0.4688 C 22.462807,1033.0206 22.465593,1032.9895 22.447254,1032.9619 z m -15.4980463,0.6446 -0.2343749,0.205 c -0.090403,0.1062 -0.1857779,0.2106 -0.2636719,0.3223 l 0.4980468,-0.4101 0.7324219,0.4979 0.058593,-0.029 L 6.9492077,1033.6065 z m 1.8457032,0 -0.7324219,0.5859 0.058594,0.029 0.6738281,-0.498 0.7324219,0.498 0.058593,-0.029 L 8.7949109,1033.6065 z m 1.8457031,0 -0.7617187,0.5859 0.058593,0.029 0.7031247,-0.498 0.703126,0.498 0.0586,-0.029 L 10.640614,1033.6065 z m 1.816407,0 -0.732423,0.5859 0.0586,0.029 0.673828,-0.498 0.703125,0.498 0.175781,-0.1172 -0.08789,-0.058 -0.08789,0.088 L 12.457021,1033.6065 z m 5.537109,0 -0.644532,0.4979 c -0.0132,-0.046 -0.01795,-0.099 -0.0293,-0.1464 l -0.0293,0.029 c 0.01951,0.077 0.03722,0.1306 0.0586,0.2051 l 0.644532,-0.4687 0.673828,0.498 0.08789,-0.058 L 17.99413,1033.6065 z m 1.816406,0 -0.732422,0.5859 0.05859,0.029 0.673828,-0.498 0.732422,0.498 0.05859,-0.029 L 19.810536,1033.6065 z m 1.845703,0 -0.732422,0.5859 0.0586,0.029 0.673828,-0.498 0.732421,0.498 0.05859,-0.029 L 21.656239,1033.6065 z m 1.347656,0.3807 -0.263672,0.2052 0.05859,0.058 0.263672,-0.2051 C 23.04675,1034.0237 23.021419,1034.0076 23.003895,1033.9873 z m -15.1171873,0.3224 -0.7617187,0.586 0.087891,0.058 0.6738281,-0.5274 0.6738281,0.5274 0.087891,-0.058 L 7.8867077,1034.3096 z m 1.8164063,0 -0.7324219,0.586 0.087891,0.058 0.6445312,-0.5274 0.7031247,0.5274 0.08789,-0.058 L 9.703114,1034.3096 z m 1.845703,0 -0.732422,0.586 0.08789,0.058 0.644531,-0.5274 0.732422,0.5274 0.175781,-0.1172 -0.08789,-0.058 -0.08789,0.058 L 11.548817,1034.3096 z m 7.353516,0 -0.732422,0.586 0.08789,0.058 0.644531,-0.5274 0.673828,0.5274 0.08789,-0.058 L 18.902333,1034.3096 z m 1.845703,0 -0.761719,0.586 0.08789,0.058 0.673828,-0.5274 0.673828,0.5274 0.08789,-0.058 L 20.748036,1034.3096 z m 1.816406,0 -0.732421,0.586 0.0586,0.058 0.673828,-0.5274 0.703125,0.5274 0.08789,-0.058 L 22.564442,1034.3096 z m -5.185547,0.088 c 0.0399,0.1264 0.101887,0.2562 0.146484,0.381 l 0.234375,0.1758 0.08789,-0.058 -0.322265,-0.2344 c -0.02436,-0.068 -0.06037,-0.1375 -0.08789,-0.2051 L 17.378895,1034.3974 z m -11.1328122,0.058 c -0.017597,0.03 -0.044137,0.058 -0.058594,0.088 l 0.5273437,0.4102 0.087891,-0.058 L 6.2460828,1034.456 z m 17.4902342,0.4102 -0.0586,0.029 0.08789,0.058 0.0293,-0.029 C 23.775747,1034.9052 23.753107,1034.8873 23.736317,1034.8662 z m -16.7871093,0.1465 -0.7324219,0.5859 0.058594,0.029 0.6738281,-0.498 0.7324219,0.498 0.058593,-0.029 L 6.9492077,1035.0128 z m 1.8457032,0 -0.7324219,0.5859 0.058594,0.029 0.6738281,-0.498 0.7324219,0.498 0.058593,-0.029 L 8.7949109,1035.0128 z m 1.8457031,0 -0.7617187,0.5859 0.058593,0.029 0.7031247,-0.498 0.732422,0.5273 0.146485,-0.088 -0.08789,-0.058 -0.0586,0.058 L 10.640614,1035.0128 z m 7.353516,0 -0.234376,0.205 c -0.01649,-0.039 -0.04149,-0.078 -0.05859,-0.1172 l -0.0293,0.029 c 0.02675,0.067 0.05977,0.1382 0.08789,0.205 l 0.234376,-0.205 0.703124,0.5273 0.0586,-0.058 L 17.99413,1035.0128 z m 1.816406,0 -0.732422,0.5859 0.05859,0.029 0.673828,-0.498 0.732422,0.498 0.05859,-0.029 L 19.810536,1035.0128 z m 1.845703,0 -0.732422,0.5859 0.0586,0.029 0.673828,-0.498 0.732421,0.498 0.05859,-0.029 L 21.656239,1035.0128 z m 1.845703,0 -0.761719,0.5859 0.05859,0.029 0.703125,-0.498 0.498047,0.3808 0,-0.1172 L 23.501942,1035.0128 z m -17.4609374,0.7031 -0.1171874,0.088 c 0.00553,0.037 -0.00525,0.08 0,0.1172 l 0.1171874,-0.088 0.6738282,0.5274 0.087891,-0.058 L 6.0410046,1035.7158 z m 1.8457031,0 -0.7617187,0.586 0.087891,0.058 0.6738281,-0.5274 0.6738281,0.5274 0.087891,-0.058 L 7.8867077,1035.7158 z m 1.8164063,0 -0.7324219,0.586 0.087891,0.058 0.6445312,-0.5274 0.7031247,0.5274 0.08789,0.058 0.146485,-0.1465 -0.05859,-0.058 -0.08789,0.088 L 9.703114,1035.7158 z m 0.791016,0.7032 -0.791016,0.5565 c 0.093216,-0.062 0.2038284,-0.075 0.2929688,-0.1464 L 10.49413,1036.419 z m -0.791016,0.5565 -0.058594,-0.029 c -0.023025,0.021 -0.032625,0.043 -0.058593,0.058 l -0.7910157,-0.5859 -0.7324218,0.5859 0.058593,0.029 0.6738282,-0.498 0.7910156,0.5566 C 9.6378658,1037.0618 9.6521618,1037.0088 9.703114,1036.9756 z m 9.199219,-1.2597 -0.673828,0.5274 c -0.02004,-0.036 -0.01471,-0.078 -0.0293,-0.1172 l -0.0293,0.029 c 0.03404,0.064 0.0232,0.1409 0.05859,0.2052 l 0.673828,-0.5274 0.673828,0.5274 0.08789,-0.058 L 18.902333,1035.7158 z m 1.845703,0 -0.761719,0.586 0.08789,0.058 0.673828,-0.5274 0.673828,0.5274 0.08789,-0.058 L 20.748036,1035.7158 z m 1.816406,0 -0.732421,0.586 0.0586,0.058 0.673828,-0.5274 0.703125,0.5274 0.08789,-0.058 L 22.564442,1035.7158 z m 1.435547,0.3222 -0.322266,0.2638 0.0586,0.058 0.263672,-0.2051 L 23.999989,1036.0381 z m -17.0507813,0.381 -0.4980468,0.4101 c -0.023897,-0.025 -0.059232,-0.039 -0.087891,-0.058 l -0.058593,0.058 c 0.038447,0.05 0.1038816,0.073 0.1464844,0.1171 l 0.4980468,-0.4101 0.7324219,0.498 0.058593,-0.029 L 6.9492077,1036.419 z m 12.8613283,0 -0.732422,0.5858 0.05859,0.029 0.673828,-0.498 0.732422,0.498 0.05859,-0.029 L 19.810536,1036.419 z m 1.845703,0 -0.732422,0.5858 0.0586,0.029 0.673828,-0.498 0.732421,0.498 0.05859,-0.029 L 21.656239,1036.419 z m 1.845703,0 -0.761719,0.5858 0.05859,0.029 0.703125,-0.498 0.498047,0.3808 0,-0.1172 L 23.501942,1036.419 z m -5.156249,0.1757 c 0.08541,0.1467 0.200402,0.2666 0.292968,0.4101 l 0.117188,0.088 c -0.01299,-0.02 -0.01638,-0.039 -0.0293,-0.058 l 0.0293,-0.029 -0.117188,-0.088 c -0.04842,-0.075 -0.09478,-0.1596 -0.146484,-0.2344 L 18.345693,1036.5947 z m 0.410156,0.498 -0.0293,0.029 c 0.03781,0.057 0.07824,0.1192 0.117187,0.1758 l 0.05859,-0.058 0.703125,0.5273 0.0586,-0.058 -0.761719,-0.586 -0.05859,0.058 C 18.818092,1037.1435 18.780912,1037.1307 18.755849,1037.0928 z m -10.8691413,0.029 -0.3808593,0.293 -0.029297,0 c -0.044559,-0.01 -0.079209,-0.041 -0.1171875,-0.058 l -0.1171875,0.088 c 0.081591,0.026 0.1487775,0.071 0.234375,0.088 l 0.029297,0 0.3808593,-0.293 0.3515625,0.293 c 0.1008188,-0.01 0.1911779,-0.037 0.2929688,-0.058 l -0.1171875,-0.088 c -0.055612,0.013 -0.1156782,0.023 -0.1757813,0.029 L 7.8867077,1037.1221 z m 12.8613283,0 -0.761719,0.5859 0.08789,0.058 0.673828,-0.5273 0.673828,0.5273 0.08789,-0.058 L 20.748036,1037.1221 z m 1.816406,0 -0.732421,0.5859 0.0586,0.058 0.673828,-0.5273 0.703125,0.5273 0.08789,-0.058 L 22.564442,1037.1221 z m 1.435547,0.3222 -0.322266,0.2637 0.0586,0.058 0.263672,-0.205 L 23.999989,1037.4443 z m -4.189453,0.3809 -0.292969,0.2636 c -0.02242,-0.026 -0.03749,-0.061 -0.0586,-0.088 l -0.05859,0.058 c 0.0391,0.048 0.07721,0.099 0.117188,0.1464 l 0.292968,-0.2636 0.732423,0.5274 0.05859,-0.058 L 19.810536,1037.8252 z m 1.845703,0 -0.732422,0.5859 0.0586,0.058 0.673828,-0.5274 0.732421,0.5274 0.05859,-0.058 L 21.656239,1037.8252 z m 1.845703,0 -0.761719,0.5859 0.05859,0.058 0.703125,-0.5274 0.498047,0.3808 0,-0.1172 L 23.501942,1037.8252 z m -2.753906,0.7031 -0.46875,0.3809 c -0.02854,-0.028 -0.05906,-0.059 -0.08789,-0.088 l -0.0586,0.058 c 0.04679,0.048 0.09893,0.099 0.146484,0.1463 l 0.46875,-0.3807 0.673828,0.5273 0.08789,-0.058 L 20.748036,1038.5284 z m 1.816406,0 -0.732421,0.5859 0.0586,0.058 0.673828,-0.5273 0.703125,0.5273 0.08789,-0.058 L 22.564442,1038.5284 z m 1.435547,0.3223 -0.322266,0.2636 0.0586,0.058 0.263672,-0.2052 L 23.999989,1038.8506 z m -2.34375,0.4101 -0.556641,0.4102 c -0.02332,-0.019 -0.03238,-0.043 -0.0586,-0.058 l -0.08789,0.058 c 0.05231,0.044 0.09337,0.074 0.146484,0.1172 l 0.556641,-0.4102 0.732422,0.4981 0.05859,-0.029 L 21.656239,1039.2607 z m 1.845703,0 -0.761719,0.5859 0.05859,0.058 0.703125,-0.5274 0.498047,0.3809 0,-0.1172 L 23.501942,1039.2607 z m -0.9375,0.6739 -0.527344,0.4101 c -0.02876,-0.02 -0.05911,-0.039 -0.08789,-0.058 l -0.08789,0.058 c 0.05673,0.039 0.118272,0.079 0.175782,0.1172 l 0.527344,-0.4101 0.703125,0.5273 0.08789,-0.058 L 22.564442,1039.9346 z m 1.435547,0.3221 -0.322266,0.2638 0.0586,0.058 0.263672,-0.2051 L 23.999989,1040.2568 z m -0.498047,0.4102 -0.410156,0.3224 c -0.04508,-0.024 -0.100096,-0.037 -0.146484,-0.058 l -0.08789,0.058 c 0.07401,0.042 0.159252,0.077 0.234375,0.1172 l 0.410156,-0.3224 0.498047,0.4102 0,-0.1172 L 23.501942,1040.667 Z"
       id="path5638" />
    <path
       inkscape:connector-curvature="0"
       style="color:#000000;fill:#000000;fill-opacity:1;fill-rule:nonzero;stroke:none;stroke-width:0.2;marker:none;visibility:visible;display:inline;overflow:visible;enable-background:accumulate"
       d="m 1.75,1044.1747 0,0.5625 c 0,3.2445 2.599225,5.875 5.8437503,5.875 l 32.8124997,0 c 3.244525,0 5.84375,-2.6305 5.84375,-5.875 l 0,-0.5625 c 0,3.2445 -2.599225,5.875 -5.84375,5.875 l -32.8124997,0 C 4.349225,1050.0497 1.75,1047.4192 1.75,1044.1747 Z"
       id="path6388" />
    <path
       id="path6361"
       d="m 1.75,1012.5497 0,-0.5625 c 0,-3.2445 2.599225,-5.875 5.8437503,-5.875 l 32.8124997,0 c 3.244525,0 5.84375,2.6305 5.84375,5.875 l 0,0.5625 c 0,-3.2445 -2.599225,-5.875 -5.84375,-5.875 l -32.8124997,0 C 4.349225,1006.6747 1.75,1009.3052 1.75,1012.5497 Z"
       style="color:#000000;fill:#ffffff;fill-opacity:1;fill-rule:nonzero;stroke:none;stroke-width:0.2;marker:none;visibility:visible;display:inline;overflow:visible;enable-background:accumulate"
       inkscape:connector-curvature="0" />
  </g>
</svg>
