<?xml version="1.0" encoding="UTF-8" standalone="no"?>
<!-- Created with Inkscape (http://www.inkscape.org/) -->

<svg
   xmlns:dc="http://purl.org/dc/elements/1.1/"
   xmlns:cc="http://creativecommons.org/ns#"
   xmlns:rdf="http://www.w3.org/1999/02/22-rdf-syntax-ns#"
   xmlns:svg="http://www.w3.org/2000/svg"
   xmlns="http://www.w3.org/2000/svg"
   xmlns:xlink="http://www.w3.org/1999/xlink"
   xmlns:sodipodi="http://sodipodi.sourceforge.net/DTD/sodipodi-0.dtd"
   xmlns:inkscape="http://www.inkscape.org/namespaces/inkscape"
   width="48"
   height="48"
   id="svg2"
   version="1.1"
   inkscape:version="0.48+devel r12112"
   sodipodi:docname="boinc-manager.svg">
  <defs
     id="defs4">
    <linearGradient
       inkscape:collect="always"
       id="linearGradient850">
      <stop
         style="stop-color:#2b2f37;stop-opacity:1"
         offset="0"
         id="stop852" />
      <stop
         style="stop-color:#373d44;stop-opacity:1"
         offset="1"
         id="stop854" />
    </linearGradient>
    <linearGradient
       inkscape:collect="always"
       id="linearGradient863">
      <stop
         style="stop-color:#000000;stop-opacity:1;"
         offset="0"
         id="stop865" />
      <stop
         style="stop-color:#000000;stop-opacity:0;"
         offset="1"
         id="stop867" />
    </linearGradient>
    <linearGradient
       inkscape:collect="always"
       xlink:href="#linearGradient850"
       id="linearGradient856"
       x1="-37.25"
       y1="53.454506"
       x2="-37.25"
       y2="5.3812814"
       gradientUnits="userSpaceOnUse"
       gradientTransform="translate(56.374999,-5.74996)" />
    <linearGradient
       inkscape:collect="always"
       xlink:href="#linearGradient850"
       id="linearGradient892"
       x1="-50.623474"
       y1="36.873463"
       x2="-50.623474"
       y2="29.139482"
       gradientUnits="userSpaceOnUse"
       gradientTransform="matrix(0.97721169,0,0,0.97721169,55.104551,995.60854)" />
    <linearGradient
       inkscape:collect="always"
       xlink:href="#linearGradient1017"
       id="linearGradient984"
       x1="2.9663653"
       y1="1030.2991"
       x2="10.858783"
       y2="1027.739"
       gradientUnits="userSpaceOnUse"
       gradientTransform="translate(0.62499856,-0.24998971)" />
    <linearGradient
       id="linearGradient1017"
       spreadMethod="pad"
       gradientTransform="matrix(13.526835,20.525875,20.525875,-13.526835,19.18986,1021.0543)"
       gradientUnits="userSpaceOnUse"
       y2="0"
       x2="1"
       y1="0"
       x1="0">
      <stop
         id="stop1019"
         offset="0"
         style="stop-opacity:1;stop-color:#ffffff" />
      <stop
         id="stop1021"
         offset="0.16849799"
         style="stop-opacity:1;stop-color:#29282b" />
      <stop
         id="stop1023"
         offset="0.263736"
         style="stop-opacity:1;stop-color:#868c95" />
      <stop
         id="stop1025"
         offset="0.395604"
         style="stop-opacity:1;stop-color:#92979f" />
      <stop
         id="stop1027"
         offset="0.542125"
         style="stop-opacity:1;stop-color:#737881" />
      <stop
         id="stop1029"
         offset="0.626374"
         style="stop-opacity:1;stop-color:#70757e" />
      <stop
         id="stop1031"
         offset="0.717949"
         style="stop-opacity:1;stop-color:#e4e6e8" />
      <stop
         id="stop1033"
         offset="0.791209"
         style="stop-opacity:1;stop-color:#ffffff" />
      <stop
         id="stop1035"
         offset="1"
         style="stop-opacity:1;stop-color:#1d191a" />
    </linearGradient>
    <linearGradient
       inkscape:collect="always"
       xlink:href="#linearGradient850"
       id="linearGradient937"
       x1="24.124998"
       y1="1050.6122"
       x2="24.124998"
       y2="1005.8622"
       gradientUnits="userSpaceOnUse" />
    <linearGradient
       inkscape:collect="always"
       xlink:href="#linearGradient863"
       id="linearGradient941"
       gradientUnits="userSpaceOnUse"
       gradientTransform="translate(55.999999,-5.74996)"
       x1="-30.228815"
       y1="43.580582"
       x2="-23.688078"
       y2="43.580582" />
  </defs>
  <sodipodi:namedview
     id="base"
     pagecolor="#ffffff"
     bordercolor="#666666"
     borderopacity="1.0"
     inkscape:pageopacity="0.0"
     inkscape:pageshadow="2"
     inkscape:zoom="4.0000002"
     inkscape:cx="65.773573"
     inkscape:cy="28.698878"
     inkscape:document-units="px"
     inkscape:current-layer="layer1"
     showgrid="false"
     inkscape:window-width="1366"
     inkscape:window-height="718"
     inkscape:window-x="0"
     inkscape:window-y="28"
     inkscape:window-maximized="1">
    <inkscape:grid
       type="xygrid"
       id="grid3850" />
  </sodipodi:namedview>
  <metadata
     id="metadata7">
    <rdf:RDF>
      <cc:Work
         rdf:about="">
        <dc:format>image/svg+xml</dc:format>
        <dc:type
           rdf:resource="http://purl.org/dc/dcmitype/StillImage" />
        <dc:title />
      </cc:Work>
    </rdf:RDF>
  </metadata>
  <g
     inkscape:label="Capa 1"
     inkscape:groupmode="layer"
     id="layer1"
     transform="translate(0,-1004.3622)">
    <rect
       style="color:#000000;fill:#333333;fill-opacity:1;fill-rule:nonzero;stroke:none;stroke-width:0.2;marker:none;visibility:visible;display:inline;overflow:visible;enable-background:accumulate"
       id="rect6294"
       width="45.5"
       height="45.5"
       x="1.25"
       y="1005.6122"
       ry="6.3565426" />
    <rect
       ry="5.8565426"
       y="1006.1122"
       x="1.75"
       height="44.5"
       width="44.5"
       id="rect6296"
       style="color:#000000;fill:url(#linearGradient937);fill-opacity:1;fill-rule:nonzero;stroke:none;stroke-width:0.2;marker:none;visibility:visible;display:inline;overflow:visible;enable-background:accumulate" />
    <g
       id="g1096"
       transform="matrix(0.85815703,0,0,0.85815703,5.7734541,145.8422)">
      <path
         inkscape:connector-curvature="0"
         id="path1086"
         d="m 44.34375,1022.4711 -1.65625,2.9688 c 0.02967,0.041 0.06537,0.083 0.09375,0.125 l 1.6875,-3.0313 L 44.34375,1022.4711 z m -12.53125,1.125 -0.125,0.2188 2.75,1.5625 1.28125,0.75 c 0.689152,-0.7243 1.640085,-1.1875 2.71875,-1.1875 0.347921,0 0.680015,0.069 1,0.1562 l 0.75,-1.2812 c -0.04978,-0.018 -0.105715,-0.015 -0.15625,-0.031 l -0.59375,1.0313 c -0.319985,-0.088 -0.652079,-0.1563 -1,-0.1563 -1.078665,0 -2.029598,0.4632 -2.71875,1.1875 l -1.28125,-0.75 L 31.8125,1023.5961 z m 9.125,2.0625 -0.09375,0.1875 c 0.789352,0.6567 1.350295,1.6251 1.40625,2.7188 9.98e-4,-0.032 0,-0.061 0,-0.094 C 42.25,1027.3502 41.714379,1026.3507 40.9375,1025.6586 z m -6.125,1.8125 c -0.08965,0.3131 -0.15625,0.6571 -0.15625,1 0,0.054 -0.0022,0.1024 0,0.1563 0.01483,-0.3884 0.0969,-0.7734 0.21875,-1.125 L 34.8125,1027.4711 z m -1.5625,1.125 c -0.0015,0.05 0,0.1055 0,0.1563 0,0.9421 0.249183,1.8006 0.6875,2.5625 l 0.09375,-0.125 C 33.557489,1030.4275 33.273531,1029.5529 33.25,1028.5961 z m 2.1875,0 c -0.0025,0.051 0,0.1044 0,0.1563 0,1.6768 1.323062,3.0625 3,3.0625 1.676938,0 3.03125,-1.3857 3.03125,-3.0625 0,-0.052 0.0025,-0.1051 0,-0.1563 -0.0672,1.6181 -1.397958,2.9375 -3.03125,2.9375 C 36.804208,1031.5336 35.504699,1030.2142 35.4375,1028.5961 z m 8.1875,0 c -0.01627,0.583 -0.121276,1.1357 -0.3125,1.6563 l -1.1875,-0.6875 c -0.01953,0.081 -0.03886,0.1697 -0.0625,0.25 l 1.25,0.7187 c 0.205228,-0.5587 0.3125,-1.1512 0.3125,-1.7812 C 43.625,1028.7005 43.626431,1028.6476 43.625,1028.5961 z m -7.96875,2.6875 -0.625,1.125 -1.5625,2.75 -1.21875,-0.6562 -0.125,0.2187 1.34375,0.7188 1.5625,-2.75 0.71875,-1.2813 C 35.712993,1031.3721 35.691688,1031.3216 35.65625,1031.2836 z m 5.75,1.4688 c -0.841567,0.5841 -1.867559,0.9062 -2.96875,0.9062 -0.668317,0 -1.289687,-0.1161 -1.875,-0.3437 l -0.125,0.2187 c 0.621994,0.2631 1.282178,0.4063 2,0.4063 1.101191,0 2.127183,-0.3222 2.96875,-0.9063 l 3.1875,1.8438 0.71875,-1.3438 -0.125,-0.062 -0.59375,1.125 L 41.40625,1032.7524 Z"
         style="fill:#ffffff;fill-opacity:0.05069125;fill-rule:nonzero;stroke:none" />
      <path
         inkscape:connector-curvature="0"
         id="path859"
         d="m 43.190575,1021.5497 -1.619365,2.7919 -0.725924,1.2287 c 0.833793,0.6937 1.396004,1.734 1.396004,2.9036 0,0.3721 -0.06737,0.721 -0.16752,1.0609 l 1.228484,0.726 c 0.205228,-0.5587 0.33504,-1.1569 0.33504,-1.7869 0,-1.1274 -0.338983,-2.1638 -0.949282,-3.0153 l 1.786885,-3.1829 L 43.190575,1021.5497 z m -10.777154,0.6702 -0.725921,1.3401 2.736167,1.5635 1.284325,0.7258 c 0.689152,-0.7243 1.657502,-1.1726 2.736167,-1.1726 0.347921,0 0.685138,0.08 1.005123,0.1676 l 0.725924,-1.2843 c -0.540197,-0.1901 -1.125839,-0.2793 -1.731047,-0.2793 -1.03076,0 -1.983493,0.3197 -2.792008,0.8375 L 32.413421,1022.2199 z m 6.030738,3.2387 c -1.676938,0 -3.015369,1.3383 -3.015369,3.0153 0,1.6768 1.338431,3.0712 3.015369,3.0712 1.676938,0 3.015369,-1.3944 3.015369,-3.0712 C 41.459528,1026.7969 40.121097,1025.4586 38.444159,1025.4586 z m -4.802254,1.0609 c -0.246164,0.6047 -0.390881,1.2611 -0.390881,1.9544 0,1.0064 0.286635,1.9394 0.781762,2.7361 l -1.898564,3.2387 1.340163,0.726 1.563524,-2.7361 0.725924,-1.2845 c -0.694588,-0.686 -1.116805,-1.627 -1.116805,-2.6802 0,-0.434 0.08881,-0.8401 0.223361,-1.2284 L 33.641905,1026.5195 z m 7.650103,4.4112 c -0.693622,0.7995 -1.7066,1.3404 -2.847849,1.3404 -0.458871,0 -0.877364,-0.074 -1.284322,-0.2234 l -0.725924,1.2284 c 0.621994,0.2631 1.292424,0.3909 2.010246,0.3909 1.101191,0 2.117964,-0.3094 2.959531,-0.8935 l 3.182889,1.8427 0.725921,-1.3401 -2.736167,-1.6193 L 41.292008,1030.9307 Z"
         style="fill:#000000;fill-opacity:0.2857143;fill-rule:nonzero;stroke:none" />
      <path
         inkscape:connector-curvature="0"
         id="path1091"
         d="m 43.1875,1021.3398 -1.625,2.7812 -0.71875,1.25 c 0.03474,0.029 0.05997,0.064 0.09375,0.094 l 0.625,-1.125 1.625,-2.7813 1.1875,0.6563 0.09375,-0.1563 L 43.1875,1021.3398 z m -10.78125,0.6562 -0.71875,1.3438 0.09375,0.062 0.625,-1.1875 3.25,1.9062 c 0.808515,-0.5178 1.75049,-0.8437 2.78125,-0.8437 0.560114,0 1.118918,0.088 1.625,0.25 l 0.125,-0.1875 c -0.540197,-0.1901 -1.144792,-0.2813 -1.75,-0.2813 -1.03076,0 -1.972735,0.326 -2.78125,0.8438 L 32.40625,1021.996 z m 6.03125,3.25 c -1.676938,0 -3,1.3543 -3,3.0313 0,0.033 -10e-4,0.061 0,0.094 0.06402,-1.6185 1.36457,-2.9062 3,-2.9062 1.63543,0 2.967229,1.2877 3.03125,2.9062 10e-4,-0.033 0,-0.061 0,-0.094 C 41.46875,1026.6003 40.114438,1025.246 38.4375,1025.246 z m 4.3125,0.094 -0.0625,0.125 c 0.457724,0.6386 0.751053,1.3805 0.875,2.1875 C 43.466295,1026.8026 43.21061,1026.0134 42.75,1025.3398 z m -9.09375,0.9687 c -0.209876,0.5156 -0.339425,1.0747 -0.375,1.6563 0.05224,-0.5055 0.190377,-0.984 0.375,-1.4375 l 1.15625,0.6875 c 0.01907,-0.063 0.04089,-0.1252 0.0625,-0.1875 L 33.65625,1026.3085 z m 8.59375,2.0625 c -0.01047,0.3362 -0.09607,0.6585 -0.1875,0.9688 l 0.03125,0.031 c 0.07247,-0.2837 0.15625,-0.5675 0.15625,-0.875 C 42.25,1028.4545 42.251407,1028.4123 42.25,1028.371 z m -7.59375,0.031 c -8.75e-4,0.03 0,0.063 0,0.094 0,1.0129 0.383482,1.8842 1.03125,2.5625 l 0.0625,-0.125 C 35.084154,1030.2759 34.6895,1029.4028 34.65625,1028.4023 z m 6.625,2.3125 c -0.693622,0.7995 -1.702501,1.3437 -2.84375,1.3437 -0.458871,0 -0.874292,-0.069 -1.28125,-0.2187 l -0.71875,1.2187 c 0.03039,0.013 0.06313,0.019 0.09375,0.031 l 0.625,-1.0313 c 0.406958,0.1494 0.822379,0.2188 1.28125,0.2188 1.141249,0 2.150128,-0.5443 2.84375,-1.3438 l 1.28125,0.7188 2.65625,1.5625 0.09375,-0.1563 -2.75,-1.625 L 41.28125,1030.7148 z m -7.3125,0.375 -1.84375,3.1562 0.09375,0.062 1.8125,-3.0937 C 34.007016,1031.1758 33.991976,1031.1294 33.96875,1031.0898 Z"
         style="fill:#000000;fill-opacity:0.46082949;fill-rule:nonzero;stroke:none" />
    </g>
    <path
       style="color:#000000;fill:url(#linearGradient941);fill-opacity:1;fill-rule:nonzero;stroke:none;stroke-width:0.1;marker:none;visibility:visible;display:inline;overflow:visible;enable-background:accumulate"
       d="M 25.40625 1.75 L 25.40625 46.25 L 31.96875 46.25 L 31.96875 1.75 L 25.40625 1.75 z "
       transform="translate(0,1004.3622)"
       id="path939" />
    <path
       style="color:#000000;fill:url(#linearGradient856);fill-opacity:1;fill-rule:nonzero;stroke:none;stroke-width:0.1;marker:none;visibility:visible;display:inline;overflow:visible;enable-background:accumulate"
       d="M 7.59375 1.75 C 4.3492254 1.75 1.75 4.3492254 1.75 7.59375 L 1.75 40.40625 C 1.75 43.650775 4.3492254 46.25 7.59375 46.25 L 29.625 46.25 L 29.625 1.75 L 7.59375 1.75 z "
       transform="translate(0,1004.3622)"
       id="rect845" />
    <g
       id="g949"
       transform="matrix(0.95061728,0,0,0.95061728,1.1905881,50.783323)">
      <path
         id="rect908"
         d="m 3.3749986,1008.1122 c -0.1385,0 -0.25,0.1115 -0.25,0.25 0,0.1385 0.1115,0.25 0.25,0.25 l 23.7499994,0 c 0.1385,0 0.25,-0.1115 0.25,-0.25 0,-0.1385 -0.1115,-0.25 -0.25,-0.25 L 3.3749986,1008.1122 z m 0,2 c -0.1385,0 -0.25,0.1115 -0.25,0.25 0,0.1385 0.1115,0.25 0.25,0.25 l 23.7499994,0 c 0.1385,0 0.25,-0.1115 0.25,-0.25 0,-0.1385 -0.1115,-0.25 -0.25,-0.25 L 3.3749986,1010.1122 z m 0,2 c -0.1385,0 -0.25,0.1115 -0.25,0.25 0,0.1385 0.1115,0.25 0.25,0.25 l 23.7499994,0 c 0.1385,0 0.25,-0.1115 0.25,-0.25 0,-0.1385 -0.1115,-0.25 -0.25,-0.25 L 3.3749986,1012.1122 z m 0,2 c -0.1385,0 -0.25,0.1115 -0.25,0.25 0,0.1385 0.1115,0.25 0.25,0.25 l 23.7499994,0 c 0.1385,0 0.25,-0.1115 0.25,-0.25 0,-0.1385 -0.1115,-0.25 -0.25,-0.25 L 3.3749986,1014.1122 z m 0,2 c -0.1385,0 -0.25,0.1115 -0.25,0.25 0,0.1385 0.1115,0.25 0.25,0.25 l 23.7499994,0 c 0.1385,0 0.25,-0.1115 0.25,-0.25 0,-0.1385 -0.1115,-0.25 -0.25,-0.25 L 3.3749986,1016.1122 z m 0,2 c -0.1385,0 -0.25,0.1115 -0.25,0.25 0,0.1385 0.1115,0.25 0.25,0.25 l 23.7499994,0 c 0.1385,0 0.25,-0.1115 0.25,-0.25 0,-0.1385 -0.1115,-0.25 -0.25,-0.25 L 3.3749986,1018.1122 z m 0,2 c -0.1385,0 -0.25,0.1115 -0.25,0.25 0,0.1385 0.1115,0.25 0.25,0.25 l 23.7499994,0 c 0.1385,0 0.25,-0.1115 0.25,-0.25 0,-0.1385 -0.1115,-0.25 -0.25,-0.25 L 3.3749986,1020.1122 z m 0,2 c -0.1385,0 -0.25,0.1115 -0.25,0.25 0,0.1385 0.1115,0.25 0.25,0.25 l 23.7499994,0 c 0.1385,0 0.25,-0.1115 0.25,-0.25 0,-0.1385 -0.1115,-0.25 -0.25,-0.25 L 3.3749986,1022.1122 z m 0,2 c -0.1385,0 -0.25,0.1115 -0.25,0.25 0,0.1385 0.1115,0.25 0.25,0.25 l 23.7499994,0 c 0.1385,0 0.25,-0.1115 0.25,-0.25 0,-0.1385 -0.1115,-0.25 -0.25,-0.25 L 3.3749986,1024.1122 z m 0,2 c -0.1385,0 -0.25,0.1115 -0.25,0.25 0,0.1385 0.1115,0.25 0.25,0.25 l 23.7499994,0 c 0.1385,0 0.25,-0.1115 0.25,-0.25 0,-0.1385 -0.1115,-0.25 -0.25,-0.25 L 3.3749986,1026.1122 z m 0,2 c -0.1385,0 -0.25,0.1115 -0.25,0.25 0,0.1385 0.1115,0.25 0.25,0.25 l 23.7499994,0 c 0.1385,0 0.25,-0.1115 0.25,-0.25 0,-0.1385 -0.1115,-0.25 -0.25,-0.25 L 3.3749986,1028.1122 z m 0,2 c -0.1385,0 -0.25,0.1115 -0.25,0.25 0,0.1385 0.1115,0.25 0.25,0.25 l 23.7499994,0 c 0.1385,0 0.25,-0.1115 0.25,-0.25 0,-0.1385 -0.1115,-0.25 -0.25,-0.25 L 3.3749986,1030.1122 z m 0,2 c -0.1385,0 -0.25,0.1115 -0.25,0.25 0,0.1385 0.1115,0.25 0.25,0.25 l 23.7499994,0 c 0.1385,0 0.25,-0.1115 0.25,-0.25 0,-0.1385 -0.1115,-0.25 -0.25,-0.25 L 3.3749986,1032.1122 z m 0,2 c -0.1385,0 -0.25,0.1115 -0.25,0.25 0,0.1385 0.1115,0.25 0.25,0.25 l 23.7499994,0 c 0.1385,0 0.25,-0.1115 0.25,-0.25 0,-0.1385 -0.1115,-0.25 -0.25,-0.25 L 3.3749986,1034.1122 z m 0,2 c -0.1385,0 -0.25,0.1115 -0.25,0.25 0,0.1385 0.1115,0.25 0.25,0.25 l 23.7499994,0 c 0.1385,0 0.25,-0.1115 0.25,-0.25 0,-0.1385 -0.1115,-0.25 -0.25,-0.25 L 3.3749986,1036.1122 z m 0,2 c -0.1385,0 -0.25,0.1115 -0.25,0.25 0,0.1385 0.1115,0.25 0.25,0.25 l 23.7499994,0 c 0.1385,0 0.25,-0.1115 0.25,-0.25 0,-0.1385 -0.1115,-0.25 -0.25,-0.25 L 3.3749986,1038.1122 z m 0,2 c -0.1385,0 -0.25,0.1115 -0.25,0.25 0,0.1385 0.1115,0.25 0.25,0.25 l 23.7499994,0 c 0.1385,0 0.25,-0.1115 0.25,-0.25 0,-0.1385 -0.1115,-0.25 -0.25,-0.25 L 3.3749986,1040.1122 z m 0,2 c -0.1385,0 -0.25,0.1115 -0.25,0.25 0,0.1385 0.1115,0.25 0.25,0.25 l 23.7499994,0 c 0.1385,0 0.25,-0.1115 0.25,-0.25 0,-0.1385 -0.1115,-0.25 -0.25,-0.25 L 3.3749986,1042.1122 z m 0,2 c -0.1385,0 -0.25,0.1115 -0.25,0.25 0,0.1385 0.1115,0.25 0.25,0.25 l 23.7499994,0 c 0.1385,0 0.25,-0.1115 0.25,-0.25 0,-0.1385 -0.1115,-0.25 -0.25,-0.25 L 3.3749986,1044.1122 z m 0,2 c -0.1385,0 -0.25,0.1115 -0.25,0.25 0,0.1385 0.1115,0.25 0.25,0.25 l 23.7499994,0 c 0.1385,0 0.25,-0.1115 0.25,-0.25 0,-0.1385 -0.1115,-0.25 -0.25,-0.25 L 3.3749986,1046.1122 z m 0,2 c -0.1385,0 -0.25,0.1115 -0.25,0.25 0,0.1385 0.1115,0.25 0.25,0.25 l 23.7499994,0 c 0.1385,0 0.25,-0.1115 0.25,-0.25 0,-0.1385 -0.1115,-0.25 -0.25,-0.25 L 3.3749986,1048.1122 Z"
         style="color:#000000;fill:#000000;fill-opacity:0.15668203;fill-rule:nonzero;stroke:none;stroke-width:0.1;marker:none;visibility:visible;display:inline;overflow:visible;enable-background:accumulate"
         inkscape:connector-curvature="0" />
      <path
         inkscape:connector-curvature="0"
         style="color:#000000;fill:#ffffff;fill-opacity:0.15668203;fill-rule:nonzero;stroke:none;stroke-width:0.1;marker:none;visibility:visible;display:inline;overflow:visible;enable-background:accumulate"
         d="m 3.2564416,1008.1122 c -0.07282,0 -0.131443,0.1115 -0.131443,0.25 0,0.1385 0.05862,0.25 0.131443,0.25 l 12.4871134,0 c 0.07282,0 0.131443,-0.1115 0.131443,-0.25 0,-0.1385 -0.05862,-0.25 -0.131443,-0.25 L 3.2564416,1008.1122 z m 0,2 c -0.07282,0 -0.131443,0.1115 -0.131443,0.25 0,0.1385 0.05862,0.25 0.131443,0.25 l 12.4871134,0 c 0.07282,0 0.131443,-0.1115 0.131443,-0.25 0,-0.1385 -0.05862,-0.25 -0.131443,-0.25 L 3.2564416,1010.1122 z m 0,2 c -0.07282,0 -0.131443,0.1115 -0.131443,0.25 0,0.1385 0.05862,0.25 0.131443,0.25 l 12.4871134,0 c 0.07282,0 0.131443,-0.1115 0.131443,-0.25 0,-0.1385 -0.05862,-0.25 -0.131443,-0.25 L 3.2564416,1012.1122 z m 0,2 c -0.07282,0 -0.131443,0.1115 -0.131443,0.25 0,0.1385 0.05862,0.25 0.131443,0.25 l 12.4871134,0 c 0.07282,0 0.131443,-0.1115 0.131443,-0.25 0,-0.1385 -0.05862,-0.25 -0.131443,-0.25 L 3.2564416,1014.1122 z m 0,2 c -0.07282,0 -0.131443,0.1115 -0.131443,0.25 0,0.1385 0.05862,0.25 0.131443,0.25 l 12.4871134,0 c 0.07282,0 0.131443,-0.1115 0.131443,-0.25 0,-0.1385 -0.05862,-0.25 -0.131443,-0.25 L 3.2564416,1016.1122 z m 0,2 c -0.07282,0 -0.131443,0.1115 -0.131443,0.25 0,0.1385 0.05862,0.25 0.131443,0.25 l 12.4871134,0 c 0.07282,0 0.131443,-0.1115 0.131443,-0.25 0,-0.1385 -0.05862,-0.25 -0.131443,-0.25 L 3.2564416,1018.1122 z m 0,2 c -0.07282,0 -0.131443,0.1115 -0.131443,0.25 0,0.1385 0.05862,0.25 0.131443,0.25 l 12.4871134,0 c 0.07282,0 0.131443,-0.1115 0.131443,-0.25 0,-0.1385 -0.05862,-0.25 -0.131443,-0.25 L 3.2564416,1020.1122 z m 0,2 c -0.07282,0 -0.131443,0.1115 -0.131443,0.25 0,0.1385 0.05862,0.25 0.131443,0.25 l 12.4871134,0 c 0.07282,0 0.131443,-0.1115 0.131443,-0.25 0,-0.1385 -0.05862,-0.25 -0.131443,-0.25 L 3.2564416,1022.1122 z m 0,2 c -0.07282,0 -0.131443,0.1115 -0.131443,0.25 0,0.1385 0.05862,0.25 0.131443,0.25 l 12.4871134,0 c 0.07282,0 0.131443,-0.1115 0.131443,-0.25 0,-0.1385 -0.05862,-0.25 -0.131443,-0.25 L 3.2564416,1024.1122 z m 0,2 c -0.07282,0 -0.131443,0.1115 -0.131443,0.25 0,0.1385 0.05862,0.25 0.131443,0.25 l 12.4871134,0 c 0.07282,0 0.131443,-0.1115 0.131443,-0.25 0,-0.1385 -0.05862,-0.25 -0.131443,-0.25 L 3.2564416,1026.1122 z m 0,2 c -0.07282,0 -0.131443,0.1115 -0.131443,0.25 0,0.1385 0.05862,0.25 0.131443,0.25 l 12.4871134,0 c 0.07282,0 0.131443,-0.1115 0.131443,-0.25 0,-0.1385 -0.05862,-0.25 -0.131443,-0.25 L 3.2564416,1028.1122 z m 0,2 c -0.07282,0 -0.131443,0.1115 -0.131443,0.25 0,0.1385 0.05862,0.25 0.131443,0.25 l 12.4871134,0 c 0.07282,0 0.131443,-0.1115 0.131443,-0.25 0,-0.1385 -0.05862,-0.25 -0.131443,-0.25 L 3.2564416,1030.1122 z m 0,2 c -0.07282,0 -0.131443,0.1115 -0.131443,0.25 0,0.1385 0.05862,0.25 0.131443,0.25 l 12.4871134,0 c 0.07282,0 0.131443,-0.1115 0.131443,-0.25 0,-0.1385 -0.05862,-0.25 -0.131443,-0.25 L 3.2564416,1032.1122 z m 0,2 c -0.07282,0 -0.131443,0.1115 -0.131443,0.25 0,0.1385 0.05862,0.25 0.131443,0.25 l 12.4871134,0 c 0.07282,0 0.131443,-0.1115 0.131443,-0.25 0,-0.1385 -0.05862,-0.25 -0.131443,-0.25 L 3.2564416,1034.1122 z m 0,2 c -0.07282,0 -0.131443,0.1115 -0.131443,0.25 0,0.1385 0.05862,0.25 0.131443,0.25 l 12.4871134,0 c 0.07282,0 0.131443,-0.1115 0.131443,-0.25 0,-0.1385 -0.05862,-0.25 -0.131443,-0.25 L 3.2564416,1036.1122 z m 0,2 c -0.07282,0 -0.131443,0.1115 -0.131443,0.25 0,0.1385 0.05862,0.25 0.131443,0.25 l 12.4871134,0 c 0.07282,0 0.131443,-0.1115 0.131443,-0.25 0,-0.1385 -0.05862,-0.25 -0.131443,-0.25 L 3.2564416,1038.1122 z m 0,2 c -0.07282,0 -0.131443,0.1115 -0.131443,0.25 0,0.1385 0.05862,0.25 0.131443,0.25 l 12.4871134,0 c 0.07282,0 0.131443,-0.1115 0.131443,-0.25 0,-0.1385 -0.05862,-0.25 -0.131443,-0.25 L 3.2564416,1040.1122 z m 0,2 c -0.07282,0 -0.131443,0.1115 -0.131443,0.25 0,0.1385 0.05862,0.25 0.131443,0.25 l 12.4871134,0 c 0.07282,0 0.131443,-0.1115 0.131443,-0.25 0,-0.1385 -0.05862,-0.25 -0.131443,-0.25 L 3.2564416,1042.1122 z m 0,2 c -0.07282,0 -0.131443,0.1115 -0.131443,0.25 0,0.1385 0.05862,0.25 0.131443,0.25 l 12.4871134,0 c 0.07282,0 0.131443,-0.1115 0.131443,-0.25 0,-0.1385 -0.05862,-0.25 -0.131443,-0.25 L 3.2564416,1044.1122 z m 0,2 c -0.07282,0 -0.131443,0.1115 -0.131443,0.25 0,0.1385 0.05862,0.25 0.131443,0.25 l 12.4871134,0 c 0.07282,0 0.131443,-0.1115 0.131443,-0.25 0,-0.1385 -0.05862,-0.25 -0.131443,-0.25 L 3.2564416,1046.1122 z m 0,2 c -0.07282,0 -0.131443,0.1115 -0.131443,0.25 0,0.1385 0.05862,0.25 0.131443,0.25 l 12.4871134,0 c 0.07282,0 0.131443,-0.1115 0.131443,-0.25 0,-0.1385 -0.05862,-0.25 -0.131443,-0.25 L 3.2564416,1048.1122 Z"
         id="path955" />
    </g>
    <g
       id="g953"
       transform="translate(1.1250014,0.25)">
      <path
         inkscape:connector-curvature="0"
         id="rect879"
         d="m 9.3437481,1024.1018 c 1.7168289,0.3621 2.9687499,1.8873 2.9687499,3.7187 0,2.1054 -1.675794,3.8125 -3.7812494,3.8125 l -7.90625004,0 0,0.1875 8.09375004,0 c 2.1545534,0 3.8749994,-1.7517 3.8749994,-3.9062 C 12.593748,1025.9747 11.193856,1024.3993 9.3437481,1024.1018 Z"
         style="color:#000000;fill:#000000;fill-opacity:0.20737329;fill-rule:nonzero;stroke:none;stroke-width:0.1;marker:none;visibility:visible;display:inline;overflow:visible;enable-background:accumulate" />
      <path
         style="color:#000000;fill:url(#linearGradient892);fill-opacity:1;fill-rule:nonzero;stroke:none;stroke-width:0.1;marker:none;visibility:visible;display:inline;overflow:visible;enable-background:accumulate"
         d="m 0.62499856,1024.0393 0,7.604 7.90930704,0 c 2.1054554,0 3.7866944,-1.7118 3.7866944,-3.8172 C 12.321,1025.7206 10.639761,1024.0393 8.5343056,1024.0393 Z"
         id="path884"
         inkscape:connector-curvature="0"
         sodipodi:nodetypes="ccsssc" />
      <path
         inkscape:connector-curvature="0"
         style="color:#000000;fill:#000000;fill-opacity:0.08755762;fill-rule:nonzero;stroke:none;stroke-width:0.1;marker:none;visibility:visible;display:inline;overflow:visible;enable-background:accumulate"
         d="m 9.3437481,1024.3006 c 1.7168289,0.3622 2.9687499,1.8873 2.9687499,3.7188 0,2.1054 -1.675794,3.8125 -3.7812494,3.8125 l -7.90625004,0 0,0.1875 8.09375004,0 c 2.1545534,0 3.8749994,-1.7517 3.8749994,-3.9063 C 12.593748,1026.1735 11.193856,1024.5981 9.3437481,1024.3006 Z"
         id="path899" />
      <path
         id="path901"
         d="m 9.3437481,1024.4663 c 1.7168289,0.3622 2.9687499,1.8873 2.9687499,3.7188 0,2.1054 -1.675794,3.8125 -3.7812494,3.8125 l -7.90625004,0 0,0.1875 8.09375004,0 c 2.1545534,0 3.8749994,-1.7517 3.8749994,-3.9063 C 12.593748,1026.3392 11.193856,1024.7638 9.3437481,1024.4663 Z"
         style="color:#000000;fill:#000000;fill-opacity:0.05990786;fill-rule:nonzero;stroke:none;stroke-width:0.1;marker:none;visibility:visible;display:inline;overflow:visible;enable-background:accumulate"
         inkscape:connector-curvature="0" />
      <path
         inkscape:connector-curvature="0"
         id="path903"
         d="m 0.62499856,1024.0393 0,0.25 7.90625004,0 c 2.0531534,0 3.7005534,1.6243 3.7812494,3.6562 0.0013,-0.042 0,-0.083 0,-0.125 0,-2.1055 -1.675794,-3.7812 -3.7812494,-3.7812 L 0.62499856,1024.0393 Z"
         style="color:#000000;fill:#ffffff;fill-opacity:0.15668203;fill-rule:nonzero;stroke:none;stroke-width:0.1;marker:none;visibility:visible;display:inline;overflow:visible;enable-background:accumulate" />
      <path
         inkscape:connector-curvature="0"
         id="path1037"
         d="m 6.1874986,1026.6095 c -0.318632,0.3294 -0.53125,0.7861 -0.53125,1.2813 0,0.034 -0.0019,0.06 0,0.094 0.01824,-0.5159 0.265809,-0.9586 0.625,-1.2812 L 6.1874986,1026.6095 z m 2.6249995,0 -0.093749,0.062 0,0.031 c 0.3591905,0.3225 0.6067615,0.7652 0.6249995,1.2812 0.0019,-0.034 0,-0.059 0,-0.094 C 9.3437481,1027.3955 9.1311301,1026.9388 8.8124981,1026.6095 z m -1.7812495,1.4375 0,0.1875 0.9375,0 0,-0.1875 L 7.0312486,1028.047 z m -2.15625,0.375 c 0.185964,1.2921 1.281448,2.3125 2.625,2.3125 1.3435515,0 2.4390355,-1.0204 2.6249994,-2.3125 -0.2488289,1.216 -1.3354439,2.125 -2.6249994,2.125 C 6.2104426,1030.547 5.1238276,1029.638 4.8749986,1028.422 Z"
         style="fill:#ffffff;fill-opacity:0.20737329;stroke:none" />
      <path
         sodipodi:nodetypes="ccccccccsssccsssc"
         inkscape:connector-curvature="0"
         id="path901-1"
         d="m 7.0321426,1025.1158 0,2.9645 0.93138,0 L 7.9635226,1025.1158 z m 2.3176205,0.8579 -0.6238085,0.5544 0,0.01 c 0.3743675,0.3362 0.6108115,0.8173 0.6108115,1.3603 0,1.0144 -0.8223475,1.8368 -1.8367675,1.8368 -1.014419,0 -1.836768,-0.8224 -1.836768,-1.8368 0,-0.5429 0.236444,-1.024 0.610812,-1.3603 l -0.62814,-0.5545 c -0.501717,0.4836 -0.814415,1.1618 -0.814415,1.9148 0,1.4738 1.194733,2.6685 2.668511,2.6685 1.4737775,0 2.6685104,-1.1947 2.6685104,-2.6685 C 10.168509,1027.1367 9.8549831,1026.4588 9.3497631,1025.9737 Z"
         style="fill:url(#linearGradient984);fill-opacity:1;stroke:none" />
      <path
         inkscape:connector-curvature="0"
         id="path1042"
         d="m 7.0312486,1024.9481 0,0.1563 0.9375,0 0,-0.1563 L 7.0312486,1024.9481 z m -1.375,0.875 c -0.413052,0.3982 -0.693439,0.9362 -0.78125,1.5313 0.111464,-0.5311 0.404962,-1.0123 0.78125,-1.375 l 0.5625,0.5 c 0.0262,-0.026 0.03475,-0.069 0.0625,-0.094 L 5.6562486,1025.8231 z m 3.6874995,0 -0.6249995,0.5313 0,0.031 c 0.02775,0.025 0.0363,0.067 0.062499,0.094 l 0.5625,-0.5 c 0.378915,0.3638 0.6693894,0.8402 0.7812504,1.375 C 10.040628,1026.7457 9.7646351,1026.2273 9.3437481,1025.8231 z m -3.6562495,2.2813 c 0.10855,0.9108 0.872413,1.625 1.8125,1.625 0.940087,0 1.7039505,-0.7142 1.8124995,-1.625 -0.171272,0.837 -0.9248825,1.4687 -1.8124995,1.4687 C 6.6123816,1029.5731 5.8587706,1028.9414 5.6874986,1028.1044 Z"
         style="fill:#000000;fill-opacity:0.30414746;stroke:none" />
    </g>
    <path
       id="path6361"
       d="m 1.75,1012.5497 0,-0.5625 c 0,-3.2445 2.599225,-5.875 5.8437504,-5.875 l 32.8124996,0 c 3.244525,0 5.84375,2.6305 5.84375,5.875 l 0,0.5625 c 0,-3.2445 -2.599225,-5.875 -5.84375,-5.875 l -32.8124996,0 C 4.349225,1006.6747 1.75,1009.3052 1.75,1012.5497 Z"
       style="color:#000000;fill:#ffffff;fill-opacity:1;fill-rule:nonzero;stroke:none;stroke-width:0.2;marker:none;visibility:visible;display:inline;overflow:visible;enable-background:accumulate"
       inkscape:connector-curvature="0" />
    <path
       inkscape:connector-curvature="0"
       style="color:#000000;fill:#000000;fill-opacity:1;fill-rule:nonzero;stroke:none;stroke-width:0.2;marker:none;visibility:visible;display:inline;overflow:visible;enable-background:accumulate"
       d="m 1.75,1044.1747 0,0.5625 c 0,3.2445 2.599225,5.875 5.8437504,5.875 l 32.8124996,0 c 3.244525,0 5.84375,-2.6305 5.84375,-5.875 l 0,-0.5625 c 0,3.2445 -2.599225,5.875 -5.84375,5.875 l -32.8124996,0 C 4.349225,1050.0497 1.75,1047.4192 1.75,1044.1747 Z"
       id="path6388" />
  </g>
</svg>
