<?xml version="1.0" encoding="UTF-8" standalone="no"?>
<!-- Created with Inkscape (http://www.inkscape.org/) -->

<svg
   xmlns:dc="http://purl.org/dc/elements/1.1/"
   xmlns:cc="http://creativecommons.org/ns#"
   xmlns:rdf="http://www.w3.org/1999/02/22-rdf-syntax-ns#"
   xmlns:svg="http://www.w3.org/2000/svg"
   xmlns="http://www.w3.org/2000/svg"
   xmlns:xlink="http://www.w3.org/1999/xlink"
   xmlns:sodipodi="http://sodipodi.sourceforge.net/DTD/sodipodi-0.dtd"
   xmlns:inkscape="http://www.inkscape.org/namespaces/inkscape"
   width="48"
   height="48"
   id="svg2"
   version="1.1"
   inkscape:version="0.48+devel r12112"
   sodipodi:docname="caffeine.svg">
  <defs
     id="defs4">
    <linearGradient
       inkscape:collect="always"
       id="linearGradient1475">
      <stop
         style="stop-color:#5a2e1a;stop-opacity:1"
         offset="0"
         id="stop1477" />
      <stop
         id="stop1479"
         offset="0.20973869"
         style="stop-color:#713722;stop-opacity:1" />
      <stop
         style="stop-color:#6f3c25;stop-opacity:1"
         offset="0.54495704"
         id="stop1481" />
      <stop
         style="stop-color:#64301b;stop-opacity:1"
         offset="1"
         id="stop1483" />
    </linearGradient>
    <linearGradient
       inkscape:collect="always"
       xlink:href="#linearGradient3083"
       id="linearGradient3089"
       x1="36.415997"
       y1="-1048.1195"
       x2="36.415997"
       y2="-1009.759"
       gradientUnits="userSpaceOnUse"
       gradientTransform="matrix(0.75588602,0,0,0.75588602,5.8587344,-250.39938)" />
    <linearGradient
       inkscape:collect="always"
       id="linearGradient3083">
      <stop
         style="stop-color:#f2f2f2;stop-opacity:1"
         offset="0"
         id="stop3085" />
      <stop
         style="stop-color:#ffffff;stop-opacity:1"
         offset="1"
         id="stop3087" />
    </linearGradient>
    <linearGradient
       inkscape:collect="always"
       xlink:href="#linearGradient3107"
       id="linearGradient3105"
       gradientUnits="userSpaceOnUse"
       x1="36.415997"
       y1="-1048.1195"
       x2="36.415997"
       y2="-1009.759"
       gradientTransform="matrix(0.67631908,0,0,0.67631908,7.768341,-332.22302)" />
    <linearGradient
       id="linearGradient3107"
       inkscape:collect="always">
      <stop
         id="stop3109"
         offset="0"
         style="stop-color:#cdcdcd;stop-opacity:1" />
      <stop
         style="stop-color:#f8f8f8;stop-opacity:1;"
         offset="0.5"
         id="stop3113" />
      <stop
         id="stop3111"
         offset="1"
         style="stop-color:#b9b9b9;stop-opacity:1" />
    </linearGradient>
    <linearGradient
       inkscape:collect="always"
       xlink:href="#linearGradient3134"
       id="linearGradient3132"
       gradientUnits="userSpaceOnUse"
       gradientTransform="matrix(0.59675212,0,0,0.59675212,9.6779486,-414.04668)"
       x1="36.415997"
       y1="-1048.1195"
       x2="36.415997"
       y2="-1009.759" />
    <linearGradient
       id="linearGradient3134"
       inkscape:collect="always">
      <stop
         id="stop3136"
         offset="0"
         style="stop-color:#261f19;stop-opacity:1" />
      <stop
         id="stop3138"
         offset="1"
         style="stop-color:#4b443e;stop-opacity:1" />
    </linearGradient>
    <linearGradient
       inkscape:collect="always"
       xlink:href="#linearGradient4399"
       id="linearGradient4405"
       x1="39.597977"
       y1="8.7555752"
       x2="30.493979"
       y2="17.859573"
       gradientUnits="userSpaceOnUse"
       gradientTransform="matrix(0.75588602,0,0,0.75588602,5.8587344,1009.5828)" />
    <linearGradient
       inkscape:collect="always"
       id="linearGradient4399">
      <stop
         style="stop-color:#ffffff;stop-opacity:1;"
         offset="0"
         id="stop4401" />
      <stop
         style="stop-color:#ffffff;stop-opacity:0;"
         offset="1"
         id="stop4403" />
    </linearGradient>
    <linearGradient
       inkscape:collect="always"
       xlink:href="#linearGradient3083"
       id="linearGradient12721"
       gradientUnits="userSpaceOnUse"
       gradientTransform="matrix(0.11249599,0,0,0.04969962,36.856964,1078.7908)"
       x1="31.960682"
       y1="-732.32062"
       x2="31.960682"
       y2="-1332.5479" />
    <linearGradient
       gradientTransform="matrix(0.93749986,0,0,0.93749986,1.5000023,1005.8621)"
       inkscape:collect="always"
       xlink:href="#linearGradient12785"
       id="linearGradient12775"
       x1="11.624999"
       y1="27.812502"
       x2="13.624999"
       y2="27.812502"
       gradientUnits="userSpaceOnUse" />
    <linearGradient
       id="linearGradient12785"
       inkscape:collect="always">
      <stop
         id="stop12787"
         offset="0"
         style="stop-color:#a05a2c;stop-opacity:1" />
      <stop
         id="stop12789"
         offset="1"
         style="stop-color:#000000;stop-opacity:0.31627908" />
    </linearGradient>
    <linearGradient
       inkscape:collect="always"
       xlink:href="#linearGradient12785"
       id="linearGradient12783"
       gradientUnits="userSpaceOnUse"
       gradientTransform="matrix(0.93749986,0,0,0.93749986,1.9158397,1005.8518)"
       x1="11.475843"
       y1="27.812502"
       x2="12.580912"
       y2="27.812502" />
    <linearGradient
       inkscape:collect="always"
       xlink:href="#linearGradient12785"
       id="linearGradient12793"
       gradientUnits="userSpaceOnUse"
       x1="11.624999"
       y1="27.812502"
       x2="13.624999"
       y2="27.812502"
       gradientTransform="matrix(0.93749986,0,0,0.93749986,1.7019838,1005.8621)" />
    <linearGradient
       inkscape:collect="always"
       xlink:href="#linearGradient12811"
       id="linearGradient12817"
       x1="11.578874"
       y1="1028.0554"
       x2="18.208"
       y2="1028.0554"
       gradientUnits="userSpaceOnUse"
       gradientTransform="matrix(0.70569932,-0.61716647,0.61716647,0.70569932,-626.32485,315.18021)" />
    <linearGradient
       inkscape:collect="always"
       id="linearGradient12811">
      <stop
         style="stop-color:#a05a2c;stop-opacity:1;"
         offset="0"
         id="stop12813" />
      <stop
         style="stop-color:#a05a2c;stop-opacity:0;"
         offset="1"
         id="stop12815" />
    </linearGradient>
    <linearGradient
       inkscape:collect="always"
       xlink:href="#linearGradient1475"
       id="linearGradient1359"
       x1="23.749998"
       y1="1054.7372"
       x2="23.749998"
       y2="1006.1122"
       gradientUnits="userSpaceOnUse" />
  </defs>
  <sodipodi:namedview
     id="base"
     pagecolor="#ffffff"
     bordercolor="#666666"
     borderopacity="1.0"
     inkscape:pageopacity="0.0"
     inkscape:pageshadow="2"
     inkscape:zoom="2.0000001"
     inkscape:cx="14.981198"
     inkscape:cy="-18.610118"
     inkscape:document-units="px"
     inkscape:current-layer="layer1"
     showgrid="false"
     inkscape:window-width="1366"
     inkscape:window-height="718"
     inkscape:window-x="0"
     inkscape:window-y="28"
     inkscape:window-maximized="1" />
  <metadata
     id="metadata7">
    <rdf:RDF>
      <cc:Work
         rdf:about="">
        <dc:format>image/svg+xml</dc:format>
        <dc:type
           rdf:resource="http://purl.org/dc/dcmitype/StillImage" />
        <dc:title />
      </cc:Work>
    </rdf:RDF>
  </metadata>
  <g
     inkscape:label="Capa 1"
     inkscape:groupmode="layer"
     id="layer1"
     transform="translate(0,-1004.3622)">
    <rect
       style="color:#000000;fill:#333333;fill-opacity:1;fill-rule:nonzero;stroke:none;stroke-width:0.2;marker:none;visibility:visible;display:inline;overflow:visible;enable-background:accumulate"
       id="rect6294"
       width="45.5"
       height="45.5"
       x="1.25"
       y="1005.6122"
       ry="6.3565426" />
    <rect
       ry="5.8565426"
       y="1006.1122"
       x="1.75"
       height="44.5"
       width="44.5"
       id="rect6296"
       style="color:#000000;fill:url(#linearGradient1359);fill-opacity:1;fill-rule:nonzero;stroke:none;stroke-width:0.2;marker:none;visibility:visible;display:inline;overflow:visible;enable-background:accumulate" />
    <g
       transform="matrix(0,1,-1,0,640.44379,641.00675)"
       id="g1220"
       style="opacity:0.55">
      <path
         inkscape:connector-curvature="0"
         id="path19916-7"
         transform="translate(363.21429,592.57647)"
         d="m 39.53125,8 c 0.17854,0.53136 -0.0965,0.97393 -0.59375,1.34375 l -0.59375,0 0,5.4375 0,3.40625 C 37.34054,19.17371 37.87752,16.31939 37.75,15.65625 36.17717,15.9028 38.05031,18.4514 36.5625,17.75 c -1.73436,1.83638 0.72252,4.69866 -1.78125,6.34375 -0.75666,-3.45171 -0.0525,-7.27106 -1.1875,-10.625 l 0,2.1875 c -0.36983,0.4506 0.76653,1.30021 -0.59375,1.5 -0.20812,3.54098 1.39017,6.6348 1.78125,10.03125 2.35924,-3.77053 0.14024,2.03103 1.78125,3.09375 0.31865,-2.33373 -0.42509,-6.334 0,-8.71875 0.007,-0.0595 0.84317,-2.99654 1.1875,-1.59375 -0.068,4.38266 -0.50448,9.41858 -0.59375,12.6875 -0.0935,-0.17411 0.0991,-0.41625 -0.59375,-0.4375 0.48885,2.83109 0.28631,5.79794 1.1875,8.53125 -0.74391,-0.82892 -2.21059,-1.1486 -1.78125,0.15625 -1.78112,-2.75457 0.59787,-6.52668 -1.1875,-9.28125 -0.25505,1.27526 0.7594,6.05558 -1.1875,3.25 l 0,0.28125 c 0.17411,1.4283 0.93382,2.71693 0.59375,4.28125 l 0,1.46875 c 1.35603,0.20846 0.22392,1.02666 0.59375,1.46875 l 0,1.78125 c 1.036155,0.48141 0.633037,1.327642 0.53125,2.09375 l 0.625,0 c -0.131248,-0.612027 0.297861,-1.360326 0.03125,-1.9375 1.018665,0.43702 0.639061,1.218217 0.53125,1.9375 l 1.875,0 c -0.0084,-0.0124 -0.02037,-0.0195 -0.03125,-0.03125 -0.52711,-5.35611 1.26827,-10.36701 1.1875,-15.1875 -0.99045,-0.25948 -0.99045,-1.52195 0,-1.78125 -0.0384,-2.60154 1.00471,0.66533 1.1875,1.46875 0.31865,1.37303 0.21951,2.45083 0.59375,3.25 0.6929,-0.0238 0.50023,-0.26764 0.59375,-0.4375 l 0,-2.21875 C 41.51942,30.37305 42.68554,29.06789 41.3125,28.375 39.09354,24.4982 38.53655,18.14046 39.53125,13.46875 39.91383,12.81836 38.75196,11.80583 40.125,11.40625 39.73387,10.32653 40.90854,8.83742 39.53125,8 Z M 40.125,34.5625 c -1.50481,2.58453 0.0667,5.83377 -1.1875,8.125 l 0,1.125 0.21875,-0.34375 0.03125,-0.03125 0.125,-0.09375 c -0.431638,0.664923 0.320197,1.750288 0.84375,2.90625 l 0.25,0 c 0.608348,0 1.167923,-0.07939 1.71875,-0.25 -0.674263,-3.085632 -1.323028,-6.147873 -1.40625,-9.0625 l 0,-0.59375 C 39.35427,36.03758 40.50333,35.10661 40.125,34.5625 z m -1.1875,11 0,0.375 0,0.3125 0.28125,0 C 39.115632,46.021971 39.011788,45.790669 38.9375,45.5625 Z"
         style="opacity:0.26259604;fill:#d79f5d;fill-opacity:1;fill-rule:nonzero;stroke:none" />
      <g
         id="g2357"
         style="">
        <path
           inkscape:connector-curvature="0"
           style="opacity:0.26259604;fill:#bf652b;fill-opacity:1;fill-rule:nonzero;stroke:none"
           d="m 46.09375,32.5 0,2.8125 c 0.06615,0.01685 0.101439,0.04283 0.15625,0.0625 L 46.25,32.5 46.09375,32.5 Z"
           transform="translate(363.21429,592.57647)"
           id="path19432-4" />
        <path
           inkscape:connector-curvature="0"
           id="path19436-4"
           style="opacity:0.26259604;fill:#c9813f;fill-opacity:1;fill-rule:nonzero;stroke:none"
           d="m 408.71083,622.56718 0,1.9214 c 0.87568,0.0238 0.54837,0.36132 0.59513,0.59087 l 0.59512,0 c -0.39533,-1.03721 0.78216,-2.46126 -0.59512,-3.24767 -0.32715,0.21697 0.70139,0.76091 -0.59513,0.7354" />
        <path
           inkscape:connector-curvature="0"
           id="path19438-0"
           style="opacity:0.26259604;fill:#c9813f;fill-opacity:1;fill-rule:nonzero;stroke:none"
           d="m 409.30596,629.80218 0.59512,0 c -0.38258,-0.59512 0.77366,-1.57283 -0.59512,-1.9214 0,0.44209 0,0.88418 0,1.33053 l 0,0.59087" />
        <path
           inkscape:connector-curvature="0"
           id="path19444-4"
           style="opacity:0.26259604;fill:#bf652b;fill-opacity:1;fill-rule:nonzero;stroke:none"
           d="m 409.30596,621.83178 c 0,-0.48885 0,-0.98195 0,-1.47931 l -0.59513,0 c 0,0.74391 0,1.47931 0,2.21471 1.29652,0.0238 0.26798,-0.5186 0.59513,-0.7354" />
        <path
           inkscape:connector-curvature="0"
           id="path19446-0"
           style="opacity:0.26259604;fill:#d79f5d;fill-opacity:1;fill-rule:nonzero;stroke:none"
           d="m 408.71083,624.48858 c 0.39533,1.52607 -0.78641,3.44321 0.59513,4.72273 0,-0.44635 0,-0.88844 0,-1.33053 0,-0.93519 0,-1.87039 0,-2.80133 -0.0469,-0.22955 0.28055,-0.56536 -0.59513,-0.59087" />
        <path
           inkscape:connector-curvature="0"
           id="path19450-0"
           style="opacity:0.26259604;fill:#d79f5d;fill-opacity:1;fill-rule:nonzero;stroke:none"
           d="m 408.71083,623.6044 0,-1.03722 c 0,-0.7354 0,-1.4708 0,-2.21471 -0.38258,-0.53986 0.76941,-1.46655 -0.59087,-1.76836 0.39108,1.62809 -0.79491,3.63875 0.59087,5.02029" />
        <path
           inkscape:connector-curvature="0"
           id="path19458-1"
           style="opacity:0.26259604;fill:#c9813f;fill-opacity:1;fill-rule:nonzero;stroke:none"
           d="m 408.11996,611.64668 c 0,-0.64189 0,-1.27952 0,-1.91715 -0.99045,0.29756 -0.99045,1.61958 0,1.91715" />
        <path
           inkscape:connector-curvature="0"
           id="path19460-4"
           style="opacity:0.26259604;fill:#c9813f;fill-opacity:1;fill-rule:nonzero;stroke:none"
           d="m 406.92546,604.56471 c 0,1.18175 0,2.35924 0,3.54098 0.99046,-0.83742 0.99046,-2.6993 0,-3.54098" />
        <path
           inkscape:connector-curvature="0"
           id="path19462-8"
           style="opacity:0.26259604;fill:#d79f5d;fill-opacity:1;fill-rule:nonzero;stroke:none"
           d="m 405.74372,622.12934 c 0.37408,0.4931 -0.76941,1.36879 0.59512,1.61959 -0.37833,-0.49736 0.76091,-1.37304 -0.59512,-1.61959" />
        <path
           inkscape:connector-curvature="0"
           id="path19464-7"
           style="opacity:0.26259604;fill:#c9813f;fill-opacity:1;fill-rule:nonzero;stroke:none"
           d="m 406.33884,624.93067 c 0,-0.39108 0,-0.78641 0,-1.18174 -1.36453,-0.25097 -0.22104,-1.12649 -0.59512,-1.61959 0,-0.4931 0,-0.99045 0,-1.47505 -1.37729,-0.54837 -0.20812,-1.72161 -0.59937,-2.51227 0,-0.98621 0,-1.96391 0,-2.95011 -1.37729,0.84167 -0.19997,2.30823 -0.59088,3.3922 0,0.78216 0,1.57282 0,2.35924 1.37304,0.69289 0.20405,2.01491 0.59088,2.95436 1.70035,0.0238 -0.51436,1.01171 1.19449,1.03296" />
        <path
           inkscape:connector-curvature="0"
           id="path19466-2"
           style="opacity:0.26259604;fill:#bf652b;fill-opacity:1;fill-rule:nonzero;stroke:none"
           d="m 406.33884,624.93067 c -1.70885,-0.0204 0.50586,-1.00746 -1.19449,-1.03296 0,0.7439 0,1.4708 0,2.21471 1.50481,0.17411 -0.24656,4.42516 1.19449,3.09889 0,-1.18175 0,-2.36349 0,-3.54524 l 0,-0.7354" />
        <path
           inkscape:connector-curvature="0"
           id="path19468-3"
           style="opacity:0.26259604;fill:#d79f5d;fill-opacity:1;fill-rule:nonzero;stroke:none"
           d="m 405.14435,618.14202 c 0.39108,0.79066 -0.77792,1.9639 0.59937,2.51227 -0.39108,-0.79492 0.77791,-1.96391 -0.59937,-2.51227" />
        <path
           inkscape:connector-curvature="0"
           id="path19470-4"
           style="opacity:0.26259604;fill:#bf652b;fill-opacity:1;fill-rule:nonzero;stroke:none"
           d="m 405.74372,631.1327 c -0.20812,-0.9862 -0.4846,-1.94265 -1.19025,-2.80983 0.14011,-1.74711 -1.04996,-0.42509 -0.59937,0.59513 l 0,0.58662 c 1.78112,0.24655 -0.82042,1.58132 1.78962,1.62808" />
        <path
           inkscape:connector-curvature="0"
           style="opacity:0.26259604;fill:#d79f5d;fill-opacity:1;fill-rule:nonzero;stroke:none"
           d="m 46.09375,26.3125 0,1.46875 0,1.46875 c 0.0672,0.03837 0.100735,0.08371 0.15625,0.125 l 0,-2.96875 C 46.197055,26.371636 46.157105,26.344568 46.09375,26.3125 Z"
           transform="translate(363.21429,592.57647)"
           id="path19820-2" />
        <path
           inkscape:connector-curvature="0"
           style="opacity:0.26259604;fill:#d79f5d;fill-opacity:1;fill-rule:nonzero;stroke:none"
           d="m 43.625,2.71875 c 0.0306,3.099507 0.290618,6.2470624 0.0625,9.28125 0.99046,0.84168 0.99046,2.69383 0,3.53125 0.36983,3.3582 0.24972,6.82609 1.21875,10.03125 0.38683,-0.83742 -0.81053,-2.06113 0.5625,-2.65625 0.38683,0.59512 -0.77929,1.55342 0.59375,1.90625 -0.51436,-1.8959 -0.14029,-3.98589 -1.15625,-5.75 -0.99045,-0.29757 -0.99045,-1.60869 0,-1.90625 C 44.680074,12.539463 44.197778,8.0471236 44.5625,3.5 44.273426,3.2064684 43.970719,2.9460716 43.625,2.71875 Z"
           transform="translate(363.21429,592.57647)"
           id="path19822-0" />
        <path
           inkscape:connector-curvature="0"
           style="opacity:0.26259604;fill:#d79f5d;fill-opacity:1;fill-rule:nonzero;stroke:none"
           d="m 43.125,33.09375 0,3.53125 c 2.50802,1.90439 -2.07443,3.94338 0,5.75 l 0,1.9375 c -0.0809,0.19112 -0.11762,1.0741 0.5625,0.59375 0.39534,-1.62383 -0.76504,-3.65822 0.625,-5.03125 -0.0035,1.314855 0.516722,2.496238 1,3.6875 0.584058,-0.911402 0.9375,-1.988895 0.9375,-3.15625 l 0,-3.1875 -0.15625,0 c -0.39109,1.18174 0.76079,2.75231 -0.625,3.6875 C 43.56846,38.57252 44.66807,35.51675 43.125,33.09375 Z"
           transform="translate(363.21429,592.57647)"
           id="path19828-6" />
        <path
           inkscape:connector-curvature="0"
           style="opacity:0.26259604;fill:#c9813f;fill-opacity:1;fill-rule:nonzero;stroke:none"
           d="m 39.6875,28.28125 c -0.0951,0.0464 -0.16581,0.31837 -0.15625,0.96875 l 0,1.78125 c 0.0806,4.82049 -1.71461,9.83139 -1.1875,15.1875 0.01088,0.01175 0.02286,0.01885 0.03125,0.03125 l 0.5625,0 0,-0.3125 0,-0.375 -0.09375,-0.4375 -0.03125,-0.03125 -0.03125,-0.375 0,-0.09375 0.03125,-0.34375 0,-0.0625 0.125,-0.40625 0,-1.125 c 1.25401,-2.29123 -0.31731,-5.54047 1.1875,-8.125 0.37832,0.54411 -0.77078,1.47518 0.59375,1.78125 -0.45059,-1.02022 0.73403,-2.34086 0.59375,-0.59375 0.70565,0.86718 0.97921,1.8263 1.1875,2.8125 -2.61004,-0.0469 10e-4,-1.37845 -1.78125,-1.625 0.0833,2.914627 0.732013,5.976868 1.40625,9.0625 1.321221,-0.409225 2.452365,-1.270594 3.1875,-2.40625 -0.487612,-1.203782 -1.035576,-2.390329 -1.03125,-3.71875 -1.39004,1.37303 -0.19841,3.40742 -0.59375,5.03125 -0.68014,0.48035 -0.64326,-0.40246 -0.5625,-0.59375 l 0,-1.9375 c -2.07443,-1.80662 2.50802,-3.84561 0,-5.75 -1.44105,1.32627 0.28623,-2.91947 -1.21875,-3.09375 -0.0935,0.17003 0.0992,0.41199 -0.59375,0.4375 -0.37407,-0.79917 -0.27493,-1.87697 -0.59375,-3.25 C 40.58143,30.11609 39.9728,28.14197 39.6875,28.28125 Z"
           transform="translate(363.21429,592.57647)"
           id="path19850-4" />
        <path
           inkscape:connector-curvature="0"
           style="opacity:0.26259604;fill:#e7c494;fill-opacity:1;fill-rule:nonzero;stroke:none"
           d="m 44.5625,3.5 c -0.364722,4.5471236 0.117574,9.039463 0.34375,13.65625 l 0,1.90625 c 1.01596,1.76411 0.64189,3.8541 1.15625,5.75 l 0,1.5 c 0.0785,0.03974 0.124649,0.08149 0.1875,0.125 l 0,-18.84375 C 46.25,5.9876844 45.602459,4.5559944 44.5625,3.5 Z"
           transform="translate(363.21429,592.57647)"
           id="path19906-6" />
        <path
           inkscape:connector-curvature="0"
           id="path19910-9"
           style="opacity:0.26259604;fill:#c9813f;fill-opacity:1;fill-rule:nonzero;stroke:none"
           d="m 408.71083,615.48097 c -1.37303,0.59512 -0.20404,1.82363 -0.59087,2.66105 -0.23805,0.21254 -0.71415,0.24655 0,0.44209 1.36028,0.30198 0.20846,1.2285 0.59087,1.76836 l 0.59513,0 c 0,-0.48885 0,-0.9862 0,-1.47505 0,-0.48885 0,-0.98195 0,-1.4708 -1.37304,-0.35283 -0.20847,-1.33053 -0.59513,-1.92565" />
        <path
           inkscape:connector-curvature="0"
           style="opacity:0.26259604;fill:#e7c494;fill-opacity:1;fill-rule:nonzero;stroke:none"
           d="m 38.78125,1.75 c 0.05297,0.1152499 0.09649,0.2305921 0.15625,0.34375 L 38.9375,1.75 38.78125,1.75 z m 1.9375,0.03125 0,4.4375 C 39.10342,6.4653 41.19335,4.54629 39.53125,4.3125 l 0,3.6875 c 1.37729,0.83742 0.20267,2.32653 0.59375,3.40625 l 0,3.53125 c 1.38578,1.186 0.19842,3.0092 0.59375,4.4375 -1.77262,-0.73966 -1.03871,-2.11502 -1.1875,-3.25 l 0,-2.65625 C 38.53655,18.14046 39.09354,24.4982 41.3125,28.375 l 0,-2.375 c -1.38578,-1.81938 -0.19842,-4.27783 -0.59375,-6.34375 1.44955,0.7269 1.18324,1.88477 1.1875,2.96875 l 0,2.9375 c 1.37728,0.54836 0.2025,1.70508 0.59375,2.5 l 0,1.5 c 1.35603,0.24655 0.2465,1.09639 0.625,1.59375 l 0,1.1875 0,0.75 c 1.54307,2.423 0.44361,5.47877 2.34375,7.8125 1.38579,-0.93519 0.20266,-2.50576 0.59375,-3.6875 l 0,-0.59375 c -1.38154,-1.27952 -0.19859,-3.19268 -0.59375,-4.71875 l 0,-0.875 C 44.08297,29.64971 45.29716,27.62809 44.90625,26 c -0.71415,-0.19554 -0.23805,-0.22496 0,-0.4375 -0.9692,-3.20516 -0.84892,-6.67305 -1.21875,-10.03125 L 43.6875,12 C 43.915672,8.9658124 43.655617,5.818257 43.625,2.71875 42.784748,2.1662566 41.789112,1.8381408 40.71875,1.78125 Z"
           transform="translate(363.21429,592.57647)"
           id="path19992-0" />
        <path
           inkscape:connector-curvature="0"
           id="path19472-4"
           style="opacity:0.26259604;fill:#d79f5d;fill-opacity:1;fill-rule:nonzero;stroke:none"
           d="m 403.9541,612.23755 c 0.39533,2.06592 -0.78641,4.52718 0.59937,6.34656 0.39108,-1.08397 -0.78641,-2.55053 0.59088,-3.3922 -0.003,-1.08398 0.25913,-2.22746 -1.19025,-2.95436" />
        <path
           inkscape:connector-curvature="0"
           style="opacity:0.26259604;fill:#d79f5d;fill-opacity:1;fill-rule:nonzero;stroke:none"
           d="m 39.5625,1.75 c -0.07977,0.8707252 -0.201908,1.7548624 -0.03125,2.5625 1.6621,0.23362 -0.42783,2.1528 1.1875,1.90625 l 0,-4.4375 C 40.613203,1.7756401 40.513243,1.75 40.40625,1.75 L 39.5625,1.75 Z"
           transform="translate(363.21429,592.57647)"
           id="path19478-3" />
        <path
           inkscape:connector-curvature="0"
           id="path19480-0"
           style="opacity:0.26259604;fill:#d79f5d;fill-opacity:1;fill-rule:nonzero;stroke:none"
           d="m 402.7681,608.70082 c 0.14862,1.13498 -0.58662,2.50376 1.186,3.24342 -0.39533,-1.4283 0.79491,-3.24342 -0.59087,-4.42942 -0.36133,0.34857 0.7439,1.06697 -0.59513,1.186" />
        <path
           inkscape:connector-curvature="0"
           id="path19482-1"
           style="opacity:0.26259604;fill:#c9813f;fill-opacity:1;fill-rule:nonzero;stroke:none"
           d="m 403.36323,607.51482 c 0,-1.18174 0,-2.35924 0,-3.54098 -1.37304,0.39958 -0.21255,1.41979 -0.59513,2.07018 0,0.87993 0,1.76836 0,2.6568 1.33903,-0.11903 0.23397,-0.83743 0.59513,-1.186" />
        <path
           inkscape:connector-curvature="0"
           style="opacity:0.26259604;fill:#e7c494;fill-opacity:1;fill-rule:nonzero;stroke:none"
           d="m 39.3125,43.34375 -0.125,0.09375 -0.03125,0.03125 -0.21875,0.34375 0,1.75 c 0.07429,0.228169 0.178132,0.459471 0.28125,0.6875 l 0.9375,0 C 39.632697,45.094092 38.880862,44.008747 39.3125,43.34375 Z"
           transform="translate(363.21429,592.57647)"
           id="path19484-9" />
        <path
           inkscape:connector-curvature="0"
           style="opacity:0.26259604;fill:#c9813f;fill-opacity:1;fill-rule:nonzero;stroke:none"
           d="m 38.9375,1.75 0,0.34375 c -0.39533,1.03296 0.78778,2.45934 -0.59375,3.25 l 0,4 0.59375,0 C 39.43485,8.97393 39.70979,8.53136 39.53125,8 l 0,-3.6875 C 39.360545,3.5048624 39.482712,2.6207252 39.5625,1.75 L 38.9375,1.75 Z"
           transform="translate(363.21429,592.57647)"
           id="path19486-1" />
        <path
           inkscape:connector-curvature="0"
           id="path19488-9"
           style="opacity:0.26259604;fill:#e7c494;fill-opacity:1;fill-rule:nonzero;stroke:none"
           d="m 402.7681,623.6044 c 0,-0.59513 0,-1.18175 0,-1.77262 -0.99045,0.25947 -0.99045,1.51331 0,1.77262" />
        <path
           inkscape:connector-curvature="0"
           id="path19852-0"
           style="opacity:0.26259604;fill:#c9813f;fill-opacity:1;fill-rule:nonzero;stroke:none"
           d="m 402.17298,636.39104 -0.14011,0.39533 0.14011,-0.39533" />
        <path
           inkscape:connector-curvature="0"
           id="path19854-5"
           style="opacity:0.26259604;fill:#c9813f;fill-opacity:1;fill-rule:nonzero;stroke:none"
           d="m 402.04971,637.66205 -0.0425,-0.36557 0.0425,0.36557" />
        <path
           inkscape:connector-curvature="0"
           id="path19856-4"
           style="opacity:0.26259604;fill:#c9813f;fill-opacity:1;fill-rule:nonzero;stroke:none"
           d="m 402.17298,638.13815 -0.11052,-0.42509 0.11052,0.42509" />
        <path
           inkscape:connector-curvature="0"
           id="path19858-7"
           style="opacity:0.26259604;fill:#c9813f;fill-opacity:1;fill-rule:nonzero;stroke:none"
           d="m 401.9987,637.21146 0.0306,-0.34007 -0.0306,0.34007" />
        <path
           inkscape:connector-curvature="0"
           id="path19918-1"
           style="opacity:0.26259604;fill:#d79f5d;fill-opacity:1;fill-rule:nonzero;stroke:none"
           d="m 402.41103,636.02972 0.35707,-0.32307 -0.35707,0.32307" />
        <path
           inkscape:connector-curvature="0"
           id="path19924-8"
           style="opacity:0.26259604;fill:#d79f5d;fill-opacity:1;fill-rule:nonzero;stroke:none"
           d="m 402.39403,636.05097 -0.22105,0.34007 0.22105,-0.34007" />
        <path
           inkscape:connector-curvature="0"
           id="path19930-9"
           style="opacity:0.26259604;fill:#d79f5d;fill-opacity:1;fill-rule:nonzero;stroke:none"
           d="m 402.0072,637.29648 -0.0102,-0.085 0.0102,0.085" />
        <path
           inkscape:connector-curvature="0"
           id="path19932-5"
           style="opacity:0.26259604;fill:#d79f5d;fill-opacity:1;fill-rule:nonzero;stroke:none"
           d="m 402.02845,636.87139 0.003,-0.085 -0.003,0.085" />
        <path
           inkscape:connector-curvature="0"
           id="path19934-0"
           style="opacity:0.26259604;fill:#d79f5d;fill-opacity:1;fill-rule:nonzero;stroke:none"
           d="m 402.17298,638.13815 0,0" />
        <path
           inkscape:connector-curvature="0"
           id="path19936-0"
           style="opacity:0.26259604;fill:#d79f5d;fill-opacity:1;fill-rule:nonzero;stroke:none"
           d="m 402.06246,637.71306 -0.0136,-0.051 0.0136,0.051" />
        <path
           inkscape:connector-curvature="0"
           id="path19938-8"
           style="opacity:0.26259604;fill:#d79f5d;fill-opacity:1;fill-rule:nonzero;stroke:none"
           d="m 402.17298,636.39104 -0.14011,0.39533 -0.003,0.085 -0.0306,0.34007 0.0102,0.085 0.0425,0.36557 0.0136,0.051 0.11052,0.42509 c 0,-0.58237 0,-1.16899 0,-1.74711" />
        <path
           inkscape:connector-curvature="0"
           style="opacity:0.26259604;fill:#d79f5d;fill-opacity:1;fill-rule:nonzero;stroke:none"
           d="m 36.71875,1.75 c -0.04768,0.06499 -0.102252,0.1279158 -0.15625,0.1875 -0.35707,2.30397 0.44072,4.32355 0.59375,6.5 1.38579,-0.9862 0.19433,-2.611 0.59375,-3.84375 l 0,-1.625 c 1.36028,0.25505 0.21542,1.13189 0.59375,1.625 l 0,0.75 C 39.72528,4.55309 38.54234,3.12671 38.9375,2.09375 38.877738,1.9805921 38.834214,1.8652499 38.78125,1.75 L 36.71875,1.75 Z"
           transform="translate(363.21429,592.57647)"
           id="path19942-4" />
        <g
           id="g2230"
           style="">
          <path
             d="m 400.98699,595.5571 c 0,0.54411 0,1.08397 0,1.62384 l 0.59087,0 c -0.37833,-0.49311 0.76941,-1.36879 -0.59087,-1.62384"
             style="opacity:0.26259604;fill:#c9813f;fill-opacity:1;fill-rule:nonzero;stroke:none"
             id="path19490-0"
             inkscape:connector-curvature="0" />
          <path
             d="m 400.98699,602.7921 c -1.75987,0.30198 0.56536,1.61533 -1.19025,1.92139 0,1.86614 0,3.73653 0,5.60691 1.48781,0.7014 -0.38258,-1.82363 1.19025,-2.07018 0.12752,0.66314 -0.41234,3.49848 0.59087,2.51227 0,-1.13073 0,-2.26572 0,-3.39645 -1.38154,-1.2285 -0.20404,-3.09889 -0.59087,-4.57394"
             style="opacity:0.26259604;fill:#c9813f;fill-opacity:1;fill-rule:nonzero;stroke:none"
             id="path19492-6"
             inkscape:connector-curvature="0" />
          <path
             d="m 399.79674,604.71349 c 1.75561,-0.30606 -0.56962,-1.61958 1.19025,-1.92139 -0.35708,-0.30607 0.7354,-0.97346 -0.59938,-1.03297 -1.11798,0.75666 -0.38683,1.97241 -0.59087,2.95436"
             style="opacity:0.26259604;fill:#d79f5d;fill-opacity:1;fill-rule:nonzero;stroke:none"
             id="path19494-7"
             inkscape:connector-curvature="0" />
          <path
             d="m 400.38761,625.22398 c 0.0894,-3.26892 0.53136,-8.30621 0.59938,-12.68887 -0.34432,-1.40279 -1.18175,1.56007 -1.19025,1.61958 -0.42509,2.38475 0.31865,6.37632 0,8.71005 0,0.63764 0,1.27952 0,1.91715 0.69289,0.0204 0.49735,0.26798 0.59087,0.44209"
             style="opacity:0.26259604;fill:#e7c494;fill-opacity:1;fill-rule:nonzero;stroke:none"
             id="path19496-4"
             inkscape:connector-curvature="0" />
          <path
             inkscape:connector-curvature="0"
             id="path19506-2"
             transform="translate(363.21429,592.57647)"
             d="m 36,44.3125 c 0.266611,0.577174 -0.194153,1.32531 -0.0625,1.9375 l 0.59375,0 C 36.638551,45.530364 37.019001,44.749664 36,44.3125 Z"
             style="opacity:0.26259604;fill:#e7c494;fill-opacity:1;fill-rule:nonzero;stroke:none" />
          <path
             d="m 398.60649,600.13105 c 0.39109,0.99045 -0.78216,2.36348 0.59513,3.10739 -0.39108,-0.99046 0.78216,-2.36349 -0.59513,-3.10739"
             style="opacity:0.26259604;fill:#d79f5d;fill-opacity:1;fill-rule:nonzero;stroke:none"
             id="path19508-9"
             inkscape:connector-curvature="0" />
          <path
             inkscape:connector-curvature="0"
             id="path19510-6"
             transform="translate(363.21429,592.57647)"
             d="m 34.78125,44.15625 0,0.28125 0,1.8125 0.53125,0 C 35.41273,45.484643 35.817405,44.63766 34.78125,44.15625 Z"
             style="opacity:0.26259604;fill:#c9813f;fill-opacity:1;fill-rule:nonzero;stroke:none" />
          <path
             inkscape:connector-curvature="0"
             id="path19512-8"
             transform="translate(363.21429,592.57647)"
             d="m 30.09375,1.75 c 0.197427,2.7333041 -0.01509,5.5964856 -0.65625,8.03125 l 0,0.875 c 1.38153,1.27101 0.19417,3.19694 0.59375,4.71875 l 0,1.625 C 30.74965,21.79074 32.2646,26.36976 33,31.15625 L 33,31.75 c 1.36879,0.34857 0.21559,1.34237 0.59375,1.9375 l 0,1.1875 c 1.9469,2.80558 0.93245,-1.97474 1.1875,-3.25 l 0,-4.4375 C 34.39017,23.79105 32.79171,20.69723 33,17.15625 L 33,16.25 c -1.37303,-0.68865 -0.211,-2.00656 -0.59375,-2.9375 l 0,-2.96875 0,-0.875 C 31.901675,7.0107827 31.773853,4.4004123 31.75,1.75 L 30.09375,1.75 Z"
             style="opacity:0.26259604;fill:#e7c494;fill-opacity:1;fill-rule:nonzero;stroke:none" />
          <path
             d="m 398.00712,634.96274 c -0.36983,-0.44209 0.76516,-1.26251 -0.59087,-1.4708 0,0.48885 0,0.9862 0,1.4708 l 0.59087,0"
             style="opacity:0.26259604;fill:#c9813f;fill-opacity:1;fill-rule:nonzero;stroke:none"
             id="path19514-5"
             inkscape:connector-curvature="0" />
          <path
             d="m 398.00712,637.02867 0,-0.29348 c 0,-0.59087 0,-1.17749 0,-1.77262 l -0.59087,0 c 0.38258,0.65039 -0.77791,1.67485 0.59087,2.06593"
             style="opacity:0.26259604;fill:#bf652b;fill-opacity:1;fill-rule:nonzero;stroke:none"
             id="path19516-2"
             inkscape:connector-curvature="0" />
          <path
             inkscape:connector-curvature="0"
             id="path19518-9"
             transform="translate(363.21429,592.57647)"
             d="m 33,36.625 0,5.625 c 1.37729,0.4931 0.21117,1.60835 0.59375,2.34375 l 0,0.15625 c 1.009741,0.29791 0.638163,0.932526 0.53125,1.5 l 0.65625,0 0,-1.8125 C 33.41247,44.04642 34.56991,43.02539 34.1875,42.375 l 0,-1.46875 0,-1.46875 C 32.41913,38.84238 34.77262,37.22012 33,36.625 Z"
             style="opacity:0.26259604;fill:#aa4a1e;fill-opacity:1;fill-rule:nonzero;stroke:none" />
          <path
             inkscape:connector-curvature="0"
             id="path19520-7"
             transform="translate(363.21429,592.57647)"
             d="m 33.59375,44.75 c 0.259653,0.430858 -0.16072,1.029138 -0.0625,1.5 l 0.59375,0 C 34.231541,45.681547 34.603491,45.04791 33.59375,44.75 Z"
             style="opacity:0.26259604;fill:#bf652b;fill-opacity:1;fill-rule:nonzero;stroke:none" />
          <path
             d="m 396.82113,601.31704 c -0.37408,-0.49735 0.76515,-1.37303 -0.59513,-1.62383 0.37408,0.5016 -0.76091,1.37303 0.59513,1.62383"
             style="opacity:0.26259604;fill:#d79f5d;fill-opacity:1;fill-rule:nonzero;stroke:none"
             id="path19526-7"
             inkscape:connector-curvature="0" />
          <path
             d="m 395.63513,601.46582 c 1.70035,0.0136 -0.51861,1.00746 1.186,1.03297 0,-0.39959 0,-0.79067 0,-1.18175 -1.35604,-0.25097 -0.22105,-1.12223 -0.59513,-1.62383 0,-0.98621 0,-1.97241 0,-2.95011 -1.38153,1.27951 -0.19962,3.19666 -0.59087,4.72272"
             style="opacity:0.26259604;fill:#c9813f;fill-opacity:1;fill-rule:nonzero;stroke:none"
             id="path19528-3"
             inkscape:connector-curvature="0" />
          <path
             d="m 395.63513,601.46582 0,1.47081 c 1.34328,0.15711 0.22105,0.93519 0.59087,1.33052 l 0.59513,0 c 0,-0.59087 0,-1.17749 0,-1.76836 -1.70461,-0.0238 0.51435,-1.02022 -1.186,-1.03297"
             style="opacity:0.26259604;fill:#bf652b;fill-opacity:1;fill-rule:nonzero;stroke:none"
             id="path19530-8"
             inkscape:connector-curvature="0" />
          <path
             d="m 396.226,605.74646 0.59513,0 c 0,-0.48885 0,-0.99046 0,-1.47931 l -0.59513,0 c 0,0.48885 0,0.99046 0,1.47931"
             style="opacity:0.26259604;fill:#aa4a1e;fill-opacity:1;fill-rule:nonzero;stroke:none"
             id="path19532-0"
             inkscape:connector-curvature="0" />
          <path
             d="m 396.226,605.74646 0,0.14895 c 0,0.78216 0,1.56857 0,2.35498 l 0.59513,0 c 0,-0.7354 0,-1.4708 0,-2.2062 l 0,-0.29756 -0.59513,0"
             style="opacity:0.26259604;fill:#bf652b;fill-opacity:1;fill-rule:nonzero;stroke:none"
             id="path19534-2"
             inkscape:connector-curvature="0" />
          <path
             d="m 396.226,608.8411 0,0.88843 c 1.36028,-0.19996 0.22547,-1.02871 0.59513,-1.47931 l -0.59513,0 0,0.59088"
             style="opacity:0.26259604;fill:#c9813f;fill-opacity:1;fill-rule:nonzero;stroke:none"
             id="path19536-9"
             inkscape:connector-curvature="0" />
          <path
             d="m 396.226,626.25695 0.59513,0 c -0.37833,-0.59513 0.77366,-1.56858 -0.59513,-1.91715 0,0.44209 0,0.88418 0,1.32627 l 0,0.59088"
             style="opacity:0.26259604;fill:#d79f5d;fill-opacity:1;fill-rule:nonzero;stroke:none"
             id="path19538-1"
             inkscape:connector-curvature="0" />
          <path
             d="m 396.226,626.25695 c 0.37408,0.44634 -0.75665,1.27526 0.59513,1.4793 l 0,-0.29348 c 0,-0.39108 0,-0.78641 0,-1.18599 l -0.59513,0"
             style="opacity:0.26259604;fill:#c9813f;fill-opacity:1;fill-rule:nonzero;stroke:none"
             id="path19540-4"
             inkscape:connector-curvature="0" />
          <path
             d="m 396.226,634.82247 c 0.38683,0.73965 -0.77791,1.86613 0.59513,2.35923 -0.38258,-0.7354 0.78216,-1.86613 -0.59513,-2.35923"
             style="opacity:0.26259604;fill:#bf652b;fill-opacity:1;fill-rule:nonzero;stroke:none"
             id="path19542-6"
             inkscape:connector-curvature="0" />
          <path
             d="m 395.63513,602.93663 c 0,0.9862 0,1.9724 0,2.95861 l 0.59087,0 0,-0.14895 c 0,-0.48885 0,-0.99046 0,-1.47931 -0.36982,-0.39533 0.75241,-1.17324 -0.59087,-1.33052"
             style="opacity:0.26259604;fill:#c9813f;fill-opacity:1;fill-rule:nonzero;stroke:none"
             id="path19546-5"
             inkscape:connector-curvature="0" />
          <path
             d="m 396.226,608.8411 0,-0.59088 c 0,-0.78641 0,-1.57282 0,-2.35498 l -0.59087,0 c 0.38258,0.93094 -0.78216,2.25721 0.59087,2.94586"
             style="opacity:0.26259604;fill:#d79f5d;fill-opacity:1;fill-rule:nonzero;stroke:none"
             id="path19548-1"
             inkscape:connector-curvature="0" />
          <path
             d="m 396.226,625.66607 c 0,-0.44209 0,-0.88418 0,-1.32627 l 0,-0.59087 c -2.16369,-0.83743 -0.42509,-2.6483 -1.78537,-3.69402 0,-0.68864 0,-1.36878 0,-2.06167 -1.36453,0.35282 -0.20812,1.32627 -0.59087,1.91714 0.0425,3.20092 0.38683,5.58991 0,8.71005 1.66635,0.31049 -0.70139,-3.1584 1.78537,-1.77261 0.36132,-0.35283 -0.7439,-1.06697 0.59087,-1.18175"
             style="opacity:0.26259604;fill:#c9813f;fill-opacity:1;fill-rule:nonzero;stroke:none"
             id="path19550-9"
             inkscape:connector-curvature="0" />
          <path
             inkscape:connector-curvature="0"
             id="path19556-3"
             transform="translate(363.21429,592.57647)"
             d="m 29.4375,1.75 0,5.65625 0,2.375 C 30.078662,7.3464856 30.291177,4.4833041 30.09375,1.75 L 29.4375,1.75 Z"
             style="opacity:0.26259604;fill:#d79f5d;fill-opacity:1;fill-rule:nonzero;stroke:none" />
          <path
             d="m 392.66377,611.06005 c 0.50585,1.51332 0.7354,-0.42083 0.59512,-1.4793 0,-0.53986 0,-1.08398 0,-1.62809 -0.90969,0.87143 -0.82467,2.42725 -0.59512,3.10739"
             style="opacity:0.26259604;fill:#c9813f;fill-opacity:1;fill-rule:nonzero;stroke:none"
             id="path19558-3"
             inkscape:connector-curvature="0" />
          <path
             inkscape:connector-curvature="0"
             id="path19568-6"
             transform="translate(363.21429,592.57647)"
             d="m 28.25,1.75 0,2.5625 c 1.76837,0.69289 -0.58937,2.3966 1.1875,3.09375 L 29.4375,1.75 28.25,1.75 Z"
             style="opacity:0.26259604;fill:#bf652b;fill-opacity:1;fill-rule:nonzero;stroke:none" />
          <path
             inkscape:connector-curvature="0"
             id="path19570-5"
             transform="translate(363.21429,592.57647)"
             d="m 24.75,1.75 c 0.269125,7.3696829 1.981274,15.283739 2.3125,22.9375 l 0,0.59375 0.59375,-0.15625 c 1.02871,-1.22426 0.18021,2.41889 1.1875,2.9375 C 29.11581,28.58536 28.21749,30.19554 29.4375,30 28.85513,27.74704 29.79444,24.45254 27.65625,23.0625 27.43112,17.76165 27.87592,13.08693 28.25,8.59375 l 0,-1.46875 C 26.80895,5.65419 28.14085,3.40268 27.65625,2.53125 27.03987,1.43027 27.38269,5.10467 26.46875,5.5 26.471462,4.2390233 26.564463,2.9866331 26.6875,1.75 L 24.75,1.75 Z"
             style="opacity:0.26259604;fill:#e7c494;fill-opacity:1;fill-rule:nonzero;stroke:none" />
          <path
             d="m 391.47352,629.35584 c 0.39108,1.03721 -0.78641,2.457 0.59512,3.25192 -0.39533,-1.03722 0.78216,-2.46126 -0.59512,-3.25192"
             style="opacity:0.26259604;fill:#d79f5d;fill-opacity:1;fill-rule:nonzero;stroke:none"
             id="path19572-5"
             inkscape:connector-curvature="0" />
          <path
             inkscape:connector-curvature="0"
             id="path19824-5"
             transform="translate(363.21429,592.57647)"
             d="m 31.75,1.75 c 0.02386,2.6504123 0.151724,5.2607827 0.65625,7.71875 l 0,-0.59375 C 32.79733,7.34894 31.61847,5.43576 33,4.15625 l 0,-1.75 C 32.816562,2.2220205 32.70936,1.9927457 32.59375,1.75 L 31.75,1.75 Z"
             style="opacity:0.26259604;fill:#d79f5d;fill-opacity:1;fill-rule:nonzero;stroke:none" />
          <path
             d="m 399.20162,633.49194 c -0.42934,-1.30502 1.04146,-0.9777 1.78537,-0.14861 -0.90119,-2.73332 -0.7014,-5.73018 -1.19025,-8.56127 0,-0.63763 0,-1.27951 0,-1.91715 -1.64084,-1.06272 0.56962,-6.86942 -1.78962,-3.09889 0,1.47506 0,2.94586 0,4.42517 1.78537,2.75457 -0.58662,6.54635 1.1945,9.30092"
             style="opacity:0.26259604;fill:#c9813f;fill-opacity:1;fill-rule:nonzero;stroke:none"
             id="path19860-9"
             inkscape:connector-curvature="0" />
          <path
             inkscape:connector-curvature="0"
             id="path19862-5"
             transform="translate(363.21429,592.57647)"
             d="m 20.375,1.75 c -0.06189,4.6073179 0.09532,9.225866 0.71875,13.90625 1.75987,7.14573 4.87039,14.76294 3,22.3125 -0.0894,-0.17854 0.10764,-0.412 -0.59375,-0.4375 l 0,0.5625 0,2.375 c 2.37199,0.59087 0.12782,2.32859 1.78125,3.09375 0.42508,-1.87464 -0.98483,-3.29011 -0.59375,-5.15625 1.285973,2.232539 2.198207,5.23084 2.75,7.84375 l 0.6875,0 c -0.444476,-1.824421 -1.23669,-3.521976 -1.0625,-5.78125 l 0,-1.1875 c -1.01171,-2.75032 -1.99791,-5.64674 0,-8.125 1.27952,1.36028 0.27493,3.28518 0.59375,4.875 1.00746,0.7099 0.46622,-1.27816 0.59375,-1.75 0.39108,-0.78642 -0.77928,-1.98289 0.59375,-2.53125 0.4846,3.45596 0.75528,8.12459 0.59375,12.5625 -0.017,0.34432 1.02309,0.4244 0.59375,0.875 0.0976,0.22104 -0.21409,0.54274 0.59375,0.59375 l 0,-0.875 c 1.08398,-0.31864 -0.11735,-1.22795 1.1875,-1.5 0.0979,0.22955 -0.21834,0.55124 0.59375,0.59375 l 0,-8.40625 0,-1.3125 c -2.48676,-1.38579 -0.1149,2.06032 -1.78125,1.75 0.38683,-3.12014 0.0425,-5.48658 0,-8.6875 0.38258,-0.59087 -0.77078,-1.58468 0.59375,-1.9375 l 0,2.0625 C 32.57903,28.51447 30.83631,30.31882 33,31.15625 32.2646,26.36976 30.74965,21.79074 30.03125,17 c 0.14011,1.05847 -0.088,2.98207 -0.59375,1.46875 -0.22955,-0.68014 -0.31594,-2.22232 0.59375,-3.09375 -0.39958,-1.52181 0.78778,-3.44774 -0.59375,-4.71875 -0.39108,1.2285 0.78354,2.8533 -0.59375,3.84375 -0.39533,-1.91715 0.79204,-4.22715 -0.59375,-5.90625 -0.37408,4.49318 -0.81905,9.1679 -0.59375,14.46875 2.13819,1.39004 1.19888,4.68454 1.78125,6.9375 -1.22001,0.19554 -0.32169,-1.41464 -0.59375,-1.9375 -1.00746,-0.51861 -0.15879,-4.16176 -1.1875,-2.9375 l -0.59375,0.15625 0,-0.59375 C 26.731274,17.033739 25.020277,9.1196829 24.75,1.75 L 20.375,1.75 z m 1.34375,3.75 c 2.23171,0.18296 1.0741,1.47691 0.59375,1.90625 C 20.94372,7.05767 22.09283,6.09087 21.71875,5.5 z m 2.5,2.15625 c 0.03098,-0.00368 0.0348,-0.00844 0.0625,0 0.38782,0.11815 0.39881,1.67634 0.40625,1.6875 0.39533,1.57708 1.36315,3.98795 0.59375,5.4375 C 24.78814,15.70794 24.50897,14.08857 24.6875,12.5625 25.80973,10.87491 21.15214,9.77468 24.09375,7.6875 24.129615,7.662525 24.187766,7.6599287 24.21875,7.65625 Z M 24.6875,19.8125 c 1.37729,0.78216 0.19858,2.21704 0.59375,3.25 l 0,3.25 C 23.88696,24.44636 25.08283,21.92519 24.6875,19.8125 z m 0.59375,24.5 0,1.9375 0.8125,0 C 25.892808,45.615577 25.614055,44.976767 25.28125,44.3125 Z"
             style="opacity:0.26259604;fill:#d79f5d;fill-opacity:1;fill-rule:nonzero;stroke:none" />
          <path
             d="m 401.57786,597.18094 -0.59087,0 c -0.39959,1.23275 0.78641,2.85234 -0.59938,3.83854 l 0,0.73965 c 1.33478,0.0595 0.24247,0.7269 0.59938,1.03297 0.38683,1.47505 -0.79067,3.34544 0.59087,4.57394 0,-1.81938 0,-3.63875 0,-5.45813 0,-1.32627 0,-2.6568 0,-3.98307 l 0,-0.7439"
             style="opacity:0.26259604;fill:#bf652b;fill-opacity:1;fill-rule:nonzero;stroke:none"
             id="path19940-3"
             inkscape:connector-curvature="0" />
          <path
             inkscape:connector-curvature="0"
             id="path19944-6"
             transform="translate(363.21429,592.57647)"
             d="m 27.0625,31.15625 c -1.99791,2.47826 -1.01171,5.37468 0,8.125 -0.17853,-0.9437 0.0498,-3.01676 0.59375,-1.75 0.28498,0.67164 0.30761,1.93429 -0.59375,2.9375 -0.174297,2.259274 0.617986,3.956829 1.0625,5.78125 l 5.40625,0 c -0.09778,-0.469846 0.322267,-1.069142 0.0625,-1.5 l 0,-0.15625 C 32.22071,44.10065 33.38666,42.98965 33,42.25 l 0,-5.625 c -0.35282,-0.31049 0.73678,-0.96323 -0.59375,-1.03125 l 0,8.40625 c -0.81192,-0.0425 -0.49598,-0.3642 -0.59375,-0.59375 -1.30502,0.27205 -0.10335,1.18119 -1.1875,1.5 l 0,0.875 c -0.80767,-0.051 -0.49598,-0.37271 -0.59375,-0.59375 0.42934,-0.4506 -0.61076,-0.53068 -0.59375,-0.875 0.16153,-4.43791 -0.10915,-9.10654 -0.59375,-12.5625 -1.37303,0.54836 -0.20267,1.74483 -0.59375,2.53125 -0.12753,0.47184 0.41371,2.4599 -0.59375,1.75 C 27.3376,34.44143 28.34202,32.51653 27.0625,31.15625 z m 1.1875,5.625 c 1.37728,0.79066 0.19825,2.21278 0.59375,3.25 C 27.46222,39.23633 28.64108,37.81846 28.25,36.78125 Z"
             style="opacity:0.26259604;fill:#c9813f;fill-opacity:1;fill-rule:nonzero;stroke:none" />
          <path
             d="m 392.66377,599.99077 c -1.77687,-0.69715 0.57812,-2.41025 -1.19025,-3.10314 0,0.93944 0,1.87038 0,2.80558 0,0.4931 0,0.98195 0,1.4708 1.38579,1.6791 0.19962,3.99157 0.59512,5.90872 1.37729,-0.99045 0.20405,-2.60579 0.59513,-3.83429 l 0,-0.88418 c 0,-0.79067 0,-1.58133 0,-2.36349"
             style="opacity:0.26259604;fill:#c9813f;fill-opacity:1;fill-rule:nonzero;stroke:none"
             id="path19946-9"
             inkscape:connector-curvature="0" />
          <path
             d="m 396.226,626.25695 0,-0.59088 c -1.33477,0.11461 -0.22955,0.82892 -0.59087,1.18175 0,0.44634 0,0.88843 0,1.32627 1.33053,0.068 0.23805,0.7269 0.59087,1.03722 1.77262,0.59512 -0.57812,2.2062 1.19025,2.80132 0.34007,-1.56432 -0.42084,-2.84808 -0.59512,-4.27638 -1.35178,-0.20404 -0.22105,-1.03296 -0.59513,-1.4793"
             style="opacity:0.26259604;fill:#bf652b;fill-opacity:1;fill-rule:nonzero;stroke:none"
             id="path19982-5"
             inkscape:connector-curvature="0" />
          <path
             inkscape:connector-curvature="0"
             id="path19994-7"
             transform="translate(363.21429,592.57647)"
             d="m 33,1.75 0,0.65625 0,1.75 0,2.96875 c 1.36028,0.25097 0.21967,1.12765 0.59375,1.625 l 0,1.15625 0,1.78125 0,1.46875 0,0.3125 c 1.13498,3.35394 0.43084,7.17329 1.1875,10.625 2.50377,-1.64509 0.047,-4.50737 1.78125,-6.34375 l 0,-5.625 c 0.20404,-0.98195 -0.52423,-2.18084 0.59375,-2.9375 l 0,-0.75 C 37.00322,6.26105 36.20543,4.24147 36.5625,1.9375 l 0,-0.1875 L 33,1.75 z m 2.375,5.8125 c 1.37729,0.7439 0.20267,2.10329 0.59375,3.09375 C 34.59146,9.91234 35.76609,8.55295 35.375,7.5625 Z"
             style="opacity:0.26259604;fill:#e7c494;fill-opacity:1;fill-rule:nonzero;stroke:none" />
          <g
             id="g2141"
             style="">
            <path
               inkscape:connector-curvature="0"
               style="opacity:0.26259604;fill:#d79f5d;fill-opacity:1;fill-rule:nonzero;stroke:none"
               d="M 26.6875,1.75 C 26.564284,2.9866331 26.470927,4.2390233 26.46875,5.5 27.38269,5.10467 27.03987,1.43027 27.65625,2.53125 28.14085,3.40268 26.80895,5.65419 28.25,7.125 l 0,-2.8125 0,-2.5625 L 26.6875,1.75 Z"
               transform="translate(363.21429,592.57647)"
               id="path19574-8" />
            <path
               inkscape:connector-curvature="0"
               id="path19576-5"
               style="opacity:0.26259604;fill:#bf652b;fill-opacity:1;fill-rule:nonzero;stroke:none"
               d="m 390.8784,630.09549 c -0.54412,-1.26676 -0.77791,0.83317 -0.59938,1.77687 0,0.38257 0,0.78216 0,1.17324 0.90119,-1.00321 0.88419,-2.27847 0.59938,-2.95011" />
            <path
               inkscape:connector-curvature="0"
               style="opacity:0.26259604;fill:#e7c494;fill-opacity:1;fill-rule:nonzero;stroke:none"
               d="m 24.6875,38.40625 c -0.39108,1.86614 1.01883,3.28161 0.59375,5.15625 l 0,0.75 c 0.332805,0.664267 0.611558,1.303077 0.8125,1.9375 l 1.34375,0 C 26.885707,43.63709 25.973473,40.638789 24.6875,38.40625 Z"
               transform="translate(363.21429,592.57647)"
               id="path19578-5" />
            <path
               inkscape:connector-curvature="0"
               id="path19588-0"
               style="opacity:0.26259604;fill:#e7c494;fill-opacity:1;fill-rule:nonzero;stroke:none"
               d="m 387.90703,601.90791 c -0.0102,-0.0136 -0.0272,-2.02767 -0.59937,-1.62808 -2.94161,2.08718 1.7216,3.18816 0.59937,4.87575 -0.17853,1.52607 0.10202,3.13715 0.59513,2.21046 0.7694,-1.44955 -0.19963,-3.88105 -0.59513,-5.45813" />
            <path
               inkscape:connector-curvature="0"
               id="path19590-5"
               style="opacity:0.26259604;fill:#c9813f;fill-opacity:1;fill-rule:nonzero;stroke:none"
               d="m 387.90703,612.38633 c 0.39533,2.11269 -0.79916,4.62495 0.59513,6.49109 0,-1.08397 0,-2.1637 0,-3.24767 -0.39534,-1.03296 0.78216,-2.46126 -0.59513,-3.24342" />
            <path
               inkscape:connector-curvature="0"
               id="path19592-2"
               style="opacity:0.26259604;fill:#c9813f;fill-opacity:1;fill-rule:nonzero;stroke:none"
               d="m 388.50216,638.95007 c 0,-0.68439 0,-1.37729 0,-2.06168 l 0,-0.7439 c -1.6536,-0.76516 0.58662,-2.50802 -1.78537,-3.09889 0,0.4931 0,0.9947 0,1.48355 0.90968,1.39429 0.28906,3.16691 1.78537,4.42092" />
            <path
               inkscape:connector-curvature="0"
               style="opacity:0.26259604;fill:#bf652b;fill-opacity:1;fill-rule:nonzero;stroke:none"
               d="m 22.90625,41.9375 0,1.34375 0,0.71875 c 0.986078,0.598578 1.198553,1.411112 1.21875,2.25 l 1.03125,0 C 23.836779,45.003954 24.380366,43.28686 23.5,41.9375 L 22.90625,41.9375 Z"
               transform="translate(363.21429,592.57647)"
               id="path19594-9" />
            <path
               inkscape:connector-curvature="0"
               style="opacity:0.26259604;fill:#c9813f;fill-opacity:1;fill-rule:nonzero;stroke:none"
               d="m 22.90625,44 c -0.0469,0.791673 0.0019,1.570066 0.40625,2.25 l 0.8125,0 C 24.109257,45.407531 23.904147,44.605753 22.90625,44 Z"
               transform="translate(363.21429,592.57647)"
               id="path19596-0" />
            <path
               inkscape:connector-curvature="0"
               id="path19600-0"
               style="opacity:0.26259604;fill:#d79f5d;fill-opacity:1;fill-rule:nonzero;stroke:none"
               d="m 386.71679,629.06253 c 0.0425,-1.28802 -0.18704,-2.50802 -1.19025,-3.53674 -0.0724,1.29227 0.0979,2.52503 1.19025,3.53674" />
            <path
               inkscape:connector-curvature="0"
               id="path19602-1"
               style="opacity:0.26259604;fill:#c9813f;fill-opacity:1;fill-rule:nonzero;stroke:none"
               d="m 385.52654,625.52579 c 0,-0.69289 0,-1.38153 0,-2.07017 l -0.59087,0 c -0.37408,0.39958 0.74815,1.16899 -0.59938,1.32627 0.16562,2.07868 -0.60787,4.38266 1.19025,6.05325 0.36558,-0.40383 -0.75666,-1.17324 0.59512,-1.33052 0.35708,0.35282 -0.7439,1.06697 0.59513,1.17749 l 0,-1.61958 c -1.09248,-1.01171 -1.26251,-2.24447 -1.19025,-3.53674" />
            <path
               inkscape:connector-curvature="0"
               id="path19604-4"
               style="opacity:0.26259604;fill:#bf652b;fill-opacity:1;fill-rule:nonzero;stroke:none"
               d="m 386.12166,629.50462 c -1.35178,0.15711 -0.22954,0.92669 -0.59512,1.33052 0,0.44209 0,0.88418 0,1.32628 1.31352,0.017 0.25097,0.62913 0.59512,0.88418 l 0.59513,0 c 0,-0.79067 0,-1.57708 0,-2.36349 -1.33903,-0.11052 -0.23805,-0.82467 -0.59513,-1.17749" />
            <path
               inkscape:connector-curvature="0"
               id="path19606-2"
               style="opacity:0.26259604;fill:#aa4a1e;fill-opacity:1;fill-rule:nonzero;stroke:none"
               d="m 386.12166,634.52915 0.59513,0 c 0,-0.48885 0,-0.99045 0,-1.48355 l -0.59513,0 c 0,0.4931 0,0.9947 0,1.48355" />
            <path
               inkscape:connector-curvature="0"
               style="opacity:0.26259604;fill:#d79f5d;fill-opacity:1;fill-rule:nonzero;stroke:none"
               d="m 19.3125,18.1875 c -1.32628,0.068 -0.23225,0.72093 -0.59375,1.03125 1.37729,0.4931 0.21117,1.6041 0.59375,2.34375 l -1.1875,0 c 1.79812,7.85563 0.41659,15.16322 0,22.59375 -0.53986,-3.33694 -0.89858,-5.85366 -2.96875,-8.71875 l 0,2.09375 0,0.125 c -0.23805,1.68335 1.93566,2.77862 1.1875,4.59375 l 0,0.125 c 1.37304,0.50161 0.21101,1.6396 0.59375,2.375 l 0,0.28125 c 1.117381,0.171243 0.561819,0.760898 0.53125,1.21875 l 5.84375,0 C 22.907699,45.562359 22.859339,44.791673 22.90625,44 l 0,-0.71875 C 21.52472,42.3418 22.70358,40.77549 22.3125,39.59375 l 0,-1.34375 c -1.79812,-1.67059 -1.05296,-3.98382 -1.21875,-6.0625 l 0,-1.90625 C 19.69096,27.97303 19.2885,24.62601 20.5,22.15625 20.61052,20.7067 20.38372,19.34799 19.3125,18.1875 Z"
               transform="translate(363.21429,592.57647)"
               id="path19952-4" />
            <path
               inkscape:connector-curvature="0"
               style="opacity:0.26259604;fill:#e7c494;fill-opacity:1;fill-rule:nonzero;stroke:none"
               d="m 17.1875,1.75 c 0.04787,1.3095174 0.121033,2.6077071 0.34375,3.875 l 0,2.53125 c 0.9692,1.33052 0.80917,2.92695 1.1875,4.40625 l 0,1.1875 c 1.38154,0.7439 0.20675,2.1118 0.59375,3.09375 l 0,1.34375 c 1.07122,1.16049 1.29802,2.5192 1.1875,3.96875 l 0,0.75 c 1.02871,1.37303 1.26551,2.93442 1.21875,4.5625 l 0,1.0625 c 1.36878,0.49735 0.2025,1.59984 0.59375,2.34375 l 0,2.0625 c 1.00321,1.02872 1.23001,2.24323 1.1875,3.53125 l 0,1.0625 c 0.70139,0.0238 0.50448,0.25913 0.59375,0.4375 1.87039,-7.54956 -1.24013,-15.16677 -3,-22.3125 C 20.470342,10.975866 20.31311,6.3573179 20.375,1.75 L 17.1875,1.75 Z"
               transform="translate(363.21429,592.57647)"
               id="path19996-8" />
            <path
               inkscape:connector-curvature="0"
               id="path19608-8"
               style="opacity:0.26259604;fill:#c9813f;fill-opacity:1;fill-rule:nonzero;stroke:none"
               d="m 384.93567,598.06937 c 0.37408,0.59087 -0.77791,1.57282 0.59087,1.9214 0.48035,-0.42934 1.64084,-1.73861 -0.59087,-1.9214" />
            <path
               inkscape:connector-curvature="0"
               id="path19610-1"
               style="opacity:0.26259604;fill:#c9813f;fill-opacity:1;fill-rule:nonzero;stroke:none"
               d="m 386.12166,633.0456 c -0.34432,-0.25505 0.7184,-0.86718 -0.59512,-0.88418 0.39108,1.18174 -0.78641,2.75456 0.59512,3.69401 0,-0.44634 0,-0.89269 0,-1.32628 0,-0.48885 0,-0.99045 0,-1.48355" />
            <path
               inkscape:connector-curvature="0"
               id="path19612-1"
               style="opacity:0.26259604;fill:#d79f5d;fill-opacity:1;fill-rule:nonzero;stroke:none"
               d="m 384.93567,623.45562 0.59087,0 c -0.39108,-0.74391 0.77791,-1.86189 -0.59087,-2.35924 0,0.43784 0,0.88418 0,1.32627 l 0,1.03297" />
            <path
               inkscape:connector-curvature="0"
               id="path19616-8"
               style="opacity:0.26259604;fill:#d79f5d;fill-opacity:1;fill-rule:nonzero;stroke:none"
               d="m 384.93567,620.05491 c 0.0466,-1.62808 -0.16596,-3.20091 -1.1945,-4.57394 -0.0466,1.64084 0.16154,3.21366 1.1945,4.57394" />
            <path
               inkscape:connector-curvature="0"
               id="path19618-4"
               style="opacity:0.26259604;fill:#c9813f;fill-opacity:1;fill-rule:nonzero;stroke:none"
               d="m 384.93567,622.42265 c 0,-0.44209 0,-0.88843 0,-1.32627 l 0,-1.04147 c -1.03296,-1.36028 -1.24126,-2.9331 -1.1945,-4.57394 l 0,-0.7354 c -1.2115,2.46976 -0.80767,5.81095 0.59512,8.11917 0.0935,-0.17411 -0.1061,-0.42083 0.59938,-0.44209" />
            <path
               inkscape:connector-curvature="0"
               id="path19620-4"
               style="opacity:0.26259604;fill:#bf652b;fill-opacity:1;fill-rule:nonzero;stroke:none"
               d="m 384.93567,623.45562 0,-1.03297 c -0.70565,0.0204 -0.50586,0.26798 -0.59938,0.44209 0,0.63764 0,1.27952 0,1.91715 1.34753,-0.15711 0.22513,-0.92669 0.59938,-1.32627" />
            <path
               inkscape:connector-curvature="0"
               id="path19626-6"
               style="opacity:0.26259604;fill:#d79f5d;fill-opacity:1;fill-rule:nonzero;stroke:none"
               d="m 382.55093,609.43197 c -0.38683,-0.98195 0.78641,-2.35499 -0.59513,-3.09889 l 0,0.44634 c 0.39533,0.83742 -0.77791,2.05742 0.59513,2.65255" />
            <path
               inkscape:connector-curvature="0"
               id="path19628-9"
               style="opacity:0.26259604;fill:#c9813f;fill-opacity:1;fill-rule:nonzero;stroke:none"
               d="m 381.36493,612.38633 0,0.44209 c 0,0.44209 0,0.88418 0,1.32627 0.39533,0 0.79492,0 1.186,0 -0.38258,-0.73965 0.78216,-1.86613 -0.59513,-2.35923 -0.0425,0.23396 0.28498,0.56111 -0.59087,0.59087" />
            <path
               inkscape:connector-curvature="0"
               id="path19634-9"
               style="opacity:0.26259604;fill:#c9813f;fill-opacity:1;fill-rule:nonzero;stroke:none"
               d="m 380.77406,603.67628 c 0.39108,2.01491 -0.79492,4.42941 0.59087,6.20203 0.39108,-0.98195 -0.78216,-2.36349 0.59087,-3.09889 l 0,-0.44634 c 0,-0.39108 0,-0.78642 0,-1.1775 -1.60258,-0.10202 0.36983,-1.85338 -1.18174,-1.4793" />
            <path
               inkscape:connector-curvature="0"
               id="path19638-1"
               style="opacity:0.26259604;fill:#c9813f;fill-opacity:1;fill-rule:nonzero;stroke:none"
               d="m 380.17468,601.90791 c 0.36558,1.9044 0.69715,0.4846 0.59938,-1.17749 0,-0.84167 0,-1.6791 0,-2.52077 -0.91394,0.79916 -0.78216,2.72906 -0.59938,3.69826" />
            <path
               inkscape:connector-curvature="0"
               id="path19640-1"
               style="opacity:0.26259604;fill:#d79f5d;fill-opacity:1;fill-rule:nonzero;stroke:none"
               d="m 380.77406,626.11242 c -0.39958,-1.37729 0.78641,-3.15416 -0.59938,-4.28064 0.39534,1.38154 -0.78641,3.1499 0.59938,4.28064" />
            <path
               inkscape:connector-curvature="0"
               id="path19642-5"
               style="opacity:0.26259604;fill:#d79f5d;fill-opacity:1;fill-rule:nonzero;stroke:none"
               d="m 380.77406,630.09549 c 0.68864,-2.15095 -1.82788,-1.83638 0,0" />
            <path
               inkscape:connector-curvature="0"
               id="path19644-4"
               style="opacity:0.26259604;fill:#c9813f;fill-opacity:1;fill-rule:nonzero;stroke:none"
               d="m 380.77406,639.09885 c -0.37833,-0.45059 0.76091,-1.27101 -0.59938,-1.47931 0.37408,0.44635 -0.75665,1.27102 0.59938,1.47931" />
            <path
               inkscape:connector-curvature="0"
               style="opacity:0.26259604;fill:#bf652b;fill-opacity:1;fill-rule:nonzero;stroke:none"
               d="m 16.34375,44.75 c -0.122779,0.524721 -0.10009,1.025084 -0.03125,1.5 l 0.625,0 c -0.223423,-0.347972 0.273422,-0.892357 0,-1.21875 l 0,-0.28125 L 16.34375,44.75 Z"
               transform="translate(363.21429,592.57647)"
               id="path19646-9" />
            <path
               inkscape:connector-curvature="0"
               id="path19648-6"
               style="opacity:0.26259604;fill:#d79f5d;fill-opacity:1;fill-rule:nonzero;stroke:none"
               d="m 378.38932,614.01016 c 0.26797,1.70461 0.13194,3.51123 1.78536,4.86726 -0.36982,-1.81938 0.0425,-3.23067 -1.78536,-4.86726" />
            <path
               inkscape:connector-curvature="0"
               id="path19650-1"
               style="opacity:0.26259604;fill:#c9813f;fill-opacity:1;fill-rule:nonzero;stroke:none"
               d="m 379.58381,637.32623 0.59087,0 c -0.38257,-0.7354 0.78217,-1.86188 -0.59087,-2.36349 0,0.44635 0,0.89269 0,1.33478 l 0,1.02871" />
            <path
               inkscape:connector-curvature="0"
               style="opacity:0.26259604;fill:#d79f5d;fill-opacity:1;fill-rule:nonzero;stroke:none"
               d="m 16.1875,1.75 c 0.325693,6.3448307 -1.37879,12.475295 1.9375,18.5 l 0,-0.4375 0,-2.5 c -1.38579,-1.77262 -0.2025,-4.20384 -0.59375,-6.21875 1.55157,-0.37408 -0.41508,1.36673 1.1875,1.46875 -0.37833,-1.4793 -0.2183,-3.07573 -1.1875,-4.40625 0.0976,1.66209 -0.22834,3.0919 -0.59375,1.1875 C 16.75489,8.37455 16.61731,6.42416 17.53125,5.625 17.308499,4.3577071 17.235358,3.0595174 17.1875,1.75 L 16.1875,1.75 Z"
               transform="translate(363.21429,592.57647)"
               id="path19874-7" />
            <path
               inkscape:connector-curvature="0"
               id="path19984-4"
               style="opacity:0.26259604;fill:#bf652b;fill-opacity:1;fill-rule:nonzero;stroke:none"
               d="m 381.9558,606.77942 c -1.37303,0.7354 -0.19996,2.11694 -0.59087,3.09889 0,0.83742 0,1.6706 0,2.50802 0.87568,-0.0306 0.54836,-0.35708 0.59087,-0.59087 0.36133,-0.31049 -0.73115,-0.96495 0.59513,-1.03297 0,-0.44209 0,-0.88418 0,-1.33052 -1.37304,-0.59513 -0.19963,-1.81513 -0.59513,-2.65255" />
            <path
               inkscape:connector-curvature="0"
               style="opacity:0.26259604;fill:#e7c494;fill-opacity:1;fill-rule:nonzero;stroke:none"
               d="M 8.15625,1.75 C 8.5393853,4.7146947 8.7658074,7.7167998 8.625,10.8125 9.96828,10.69347 8.85759,9.97783 9.21875,9.625 10.60028,10.46243 9.41717,11.91603 9.8125,13 11.14303,12.9405 10.05343,12.30607 10.40625,12 11.79204,12.7354 10.613,14.1033 11,15.09375 l 0,2.34375 c 2.10843,-1.30077 0.0709,-2.74139 0.59375,-4.4375 -0.003,-0.63763 1.01884,-0.0133 0.59375,0.3125 l 0,1.03125 c 0.7184,0.65889 0.6405,1.52482 0.59375,2.375 1.07972,-1.10948 0.85867,-3.16327 0,-4.28125 l 0,-1.03125 C 13.00229,9.9567 13.58329,11.29136 13.375,12.5625 l 0.59375,-0.125 c 1.186,2.1637 1.25551,4.58424 1.1875,7.0625 -1.13074,0.31456 -0.17987,-1.11271 -1.1875,-1.3125 -1.42404,0.26356 -0.34007,1.15418 0,1.46875 0.0636,2.13819 -0.85169,0.1641 -1.1875,-0.75 -0.84593,0.79916 -0.44072,1.95773 -0.59375,3.25 l 0,0.90625 c 3.42621,1.00746 0.63913,3.03218 1.1875,4.5625 l 0,0.15625 c 1.37303,0.5016 0.2025,1.60835 0.59375,2.34375 0.68439,-0.017 0.64476,-0.23363 0.59375,-0.4375 1.38579,1.52182 0.20249,3.70039 0.59375,5.46875 l 0,0.28125 c 2.07017,2.86509 2.42889,5.38181 2.96875,8.71875 0.41659,-7.43053 1.79812,-14.73812 0,-22.59375 l 0,-1.3125 C 14.80871,14.225295 16.513193,8.0948307 16.1875,1.75 l -3.75,0 C 13.168356,3.5531631 12.73821,6.5251621 13.375,8.59375 11.550128,7.223119 12.306428,4.1056626 12.21875,1.75 L 8.15625,1.75 z m 7,19.6875 c 1.82787,1.63659 1.41143,3.05562 1.78125,4.875 C 15.28391,24.95647 15.42405,23.14211 15.15625,21.4375 Z M 16.9375,29.25 c 1.38579,1.12648 0.19417,2.90396 0.59375,4.28125 C 16.14546,32.40051 17.33284,30.63154 16.9375,29.25 z m 0.1875,6.78125 c 0.31456,-0.0393 0.75057,0.42453 0.40625,1.5 C 16.61731,36.61306 16.81043,36.07057 17.125,36.03125 Z"
               transform="translate(363.21429,592.57647)"
               id="path19998-7" />
            <g
               id="g2086"
               style="">
              <path
                 d="m 379.58381,636.29752 c 0,-0.44209 0,-0.88843 0,-1.33478 l 0,-0.1401 c -1.62808,-0.77792 -0.46759,-2.24872 -1.78537,-3.10315 -0.31456,1.75137 0.61638,3.19241 1.78537,4.5782"
                 style="opacity:0.26259604;fill:#bf652b;fill-opacity:1;fill-rule:nonzero;stroke:none"
                 id="path19656-4"
                 inkscape:connector-curvature="0" />
              <path
                 d="m 376.6082,624.04224 c 1.39429,1.03721 0.44209,2.65255 1.78112,3.69401 -0.39109,-1.76836 0.79491,-3.94056 -0.59088,-5.46238 0.051,0.20404 0.0935,0.42084 -0.59087,0.43784 -0.39108,-0.7354 0.77366,-1.85763 -0.59937,-2.35924 0,0.54412 0,1.07973 0,1.62809 0,0.68864 0,1.37729 0,2.06168"
                 style="opacity:0.26259604;fill:#d79f5d;fill-opacity:1;fill-rule:nonzero;stroke:none"
                 id="path19658-7"
                 inkscape:connector-curvature="0" />
              <path
                 d="m 376.6082,624.04224 0,0.73965 c 0,0.4931 0,0.9862 0,1.47506 1.43254,1.07547 0.45059,2.73756 1.78112,3.83854 0,-0.68439 0,-1.37304 0,-2.06593 l 0,-0.29348 c -1.33903,-1.04146 -0.38683,-2.6568 -1.78112,-3.69401"
                 style="opacity:0.26259604;fill:#c9813f;fill-opacity:1;fill-rule:nonzero;stroke:none"
                 id="path19660-4"
                 inkscape:connector-curvature="0" />
              <path
                 d="m 377.79844,630.24427 0.59088,0 0,-0.14861 c -1.33053,-1.10098 -0.34858,-2.76307 -1.78112,-3.83854 -0.051,1.44104 0.15711,2.81833 1.19024,3.98732"
                 style="opacity:0.26259604;fill:#bf652b;fill-opacity:1;fill-rule:nonzero;stroke:none"
                 id="path19662-8"
                 inkscape:connector-curvature="0" />
              <path
                 inkscape:connector-curvature="0"
                 id="path19664-8"
                 transform="translate(363.21429,592.57647)"
                 d="m 14.5625,43.71875 c 0.08418,0.826423 0.08361,1.677571 0.0625,2.53125 l 0.46875,0 C 15.076713,45.364992 15.738935,44.306963 14.5625,43.71875 Z"
                 style="opacity:0.26259604;fill:#8a2d1c;fill-opacity:1;fill-rule:nonzero;stroke:none" />
              <path
                 d="m 375.4222,615.62975 c 0,0.73965 0,1.4793 0,2.21896 1.01171,0.58662 0.4676,1.55582 0.59513,2.36349 l 0.59087,0 c -0.54837,-1.53032 2.24021,-3.57499 -1.186,-4.58245"
                 style="opacity:0.26259604;fill:#d79f5d;fill-opacity:1;fill-rule:nonzero;stroke:none"
                 id="path19666-4"
                 inkscape:connector-curvature="0" />
              <path
                 d="m 376.6082,601.16401 c -0.7014,-2.27847 -0.0935,-5.67917 -1.186,-7.37528 0.25506,2.39325 -0.77791,5.90022 1.186,7.37528"
                 style="opacity:0.26259604;fill:#d79f5d;fill-opacity:1;fill-rule:nonzero;stroke:none"
                 id="path19668-1"
                 inkscape:connector-curvature="0" />
              <path
                 d="m 376.6082,620.35247 0,-0.1401 -0.59087,0 c 0,0.53986 0,1.07547 0,1.61958 l 0,0.14861 0.59087,0 c 0,-0.54836 0,-1.08397 0,-1.62809"
                 style="opacity:0.26259604;fill:#c9813f;fill-opacity:1;fill-rule:nonzero;stroke:none"
                 id="path19670-2"
                 inkscape:connector-curvature="0" />
              <path
                 d="m 376.6082,621.98056 -0.59087,0 c 0.38683,0.88844 -0.78642,2.15945 0.59087,2.80133 l 0,-0.73965 c 0,-0.68439 0,-1.37304 0,-2.06168"
                 style="opacity:0.26259604;fill:#bf652b;fill-opacity:1;fill-rule:nonzero;stroke:none"
                 id="path19672-0"
                 inkscape:connector-curvature="0" />
              <path
                 d="m 376.01733,632.75229 c 0.38683,1.38153 -0.79067,3.14565 0.59087,4.27638 -0.39533,-1.37728 0.79066,-3.14565 -0.59087,-4.27638"
                 style="opacity:0.26259604;fill:#bf652b;fill-opacity:1;fill-rule:nonzero;stroke:none"
                 id="path19674-3"
                 inkscape:connector-curvature="0" />
              <path
                 d="m 375.4222,614.74557 c -0.85867,-0.034 -0.21254,-0.4421 -1.19024,-0.4421 0.0306,0.56112 -0.91819,4.78224 1.19024,3.54524 0,-0.73966 0,-1.47931 0,-2.21896 l 0,-0.88418"
                 style="opacity:0.26259604;fill:#c9813f;fill-opacity:1;fill-rule:nonzero;stroke:none"
                 id="path19680-6"
                 inkscape:connector-curvature="0" />
              <path
                 d="m 377.79844,631.71932 c 1.31778,0.85443 0.15712,2.32523 1.78537,3.10315 0.74816,-1.81513 -1.43254,-2.89485 -1.19449,-4.5782 l -0.59088,0 c 0,0.4931 0,0.98195 0,1.47505"
                 style="opacity:0.26259604;fill:#c9813f;fill-opacity:1;fill-rule:nonzero;stroke:none"
                 id="path19872-8"
                 inkscape:connector-curvature="0" />
              <path
                 d="m 375.4222,614.74557 c 0.15303,-1.29227 -0.25097,-2.44851 0.59513,-3.24768 0.33564,0.91394 1.254,2.87785 1.19024,0.73966 -0.34007,-0.31457 -1.42404,-1.2115 0,-1.47506 1.00746,0.19962 0.051,1.64509 1.18175,1.33053 0.068,-2.47826 0.003,-4.92252 -1.18175,-7.08622 l -0.59937,0.14861 c 0.20812,-1.27101 -0.36983,-2.63129 -0.59087,-1.18174 l 0,1.03296 c 0.85867,1.11798 1.07972,3.17116 0,4.28064 0.0469,-0.85018 0.1231,-1.7046 -0.59513,-2.36349 l 0,-1.02871 c 0.42509,-0.32715 -0.60362,-0.93945 -0.59937,-0.30199 -0.52286,1.69611 1.51756,3.12865 -0.59087,4.42942 0,0.69289 0,1.37728 0,2.07018 0,0.7354 0,1.4708 0,2.21045 0.9777,0 0.33157,0.40809 1.19024,0.4421"
                 style="opacity:0.26259604;fill:#d79f5d;fill-opacity:1;fill-rule:nonzero;stroke:none"
                 id="path19876-3"
                 inkscape:connector-curvature="0" />
              <path
                 inkscape:connector-curvature="0"
                 id="path19954-8"
                 transform="translate(363.21429,592.57647)"
                 d="m 6.84375,10.5 c -0.98196,1.03296 -0.64064,2.39982 -2.375,3.25 -0.38257,0.83742 0.77929,2.06537 -0.59375,2.65625 l 0,-2.8125 C 2.56148,16.30581 2.78979,21.24978 6.25,22.3125 l 0,4.28125 0.125,0.5 0,0.0625 0,0.46875 0,0.09375 -0.0625,0.46875 -0.03125,0.15625 -0.0625,0.21875 c -0.21696,0.79067 -0.51482,1.52287 -0.1875,2.15625 L 6.25,31.03125 c 0.38683,3.30293 1.36179,6.43604 1.1875,9.875 l 0,1.03125 C 6.09847,43.07249 7.72081,40.13005 6.25,39.875 6.25593,42.038322 6.9665326,44.043501 6.9375,46.21875 7.15548,46.24315 7.3690447,46.25 7.59375,46.25 l 1.25,0 c 0.038436,-0.0496 0.087438,-0.05414 0.125,0 l 0.8125,0 C 9.5850304,40.908524 8.7213615,35.310635 11,30.28125 c -0.91819,2.90761 -0.73541,7.06414 0,10.03125 0.0935,0.39108 0.68165,2.16417 1.1875,1.34375 0.034,-4.19561 -1.15762,-8.5507 0.59375,-12.40625 l 0,-1.625 C 12.65372,26.81733 13.19921,25.86787 12.1875,25.28125 10.07907,26.51825 11.02975,22.27987 11,21.71875 L 11,19.5 C 9.72468,16.3544 7.40911,14.01122 6.84375,10.5 z m 0,3.40625 c 1.89589,2.18495 1.72311,5.50003 1.1875,7.8125 C 6.11836,19.49129 7.06479,16.5588 6.84375,13.90625 z m -1.78125,2.9375 c 1.19875,0.11052 0.42372,0.62742 0.59375,1.03125 0.4591,1.10948 0.90119,2.55307 0,1.03125 C 5.32876,18.35789 4.72243,17.90647 5.0625,16.84375 Z M 9.21875,22.75 c 1.87463,1.26676 1.44393,3.70819 0.59375,5.1875 C 8.42672,26.51345 9.61408,24.42059 9.21875,22.75 Z M 7.4375,24.375 c 1.37728,0.6929 0.20267,2.03356 0.59375,2.96875 C 5.47222,26.8379 7.28872,25.15717 7.4375,24.375 z m 1.1875,5.1875 c 1.38579,2.55478 0.20267,5.72992 0.59375,8.53125 C 8.05401,38.37873 8.8673,36.91084 8.625,36.46875 8.05114,36.47175 8.16303,36.66664 8.03125,36.78125 6.8325,34.47727 7.66856,31.99826 8.625,29.5625 z m -3.5625,11.65625 0,4.4375 C 5.2151767,45.729604 5.3714914,45.814827 5.53125,45.875 5.2634672,44.352171 6.6115428,42.419494 5.0625,41.21875 z m -1.78125,1.625 c 8.965e-4,0.5 0.044443,1.019481 0.0625,1.53125 0.173779,0.186234 0.3345661,0.369065 0.53125,0.53125 C 3.9976864,44.026397 4.1634233,43.159211 3.28125,42.84375 Z"
                 style="opacity:0.26259604;fill:#bf652b;fill-opacity:1;fill-rule:nonzero;stroke:none" />
              <path
                 inkscape:connector-curvature="0"
                 id="path19990-9"
                 transform="translate(363.21429,592.57647)"
                 d="M 12.78125,29.25 C 11.02988,33.10555 12.22151,37.46064 12.1875,41.65625 11.68165,42.47667 11.09352,40.70358 11,40.3125 10.26459,37.34539 10.08181,33.18886 11,30.28125 8.7213615,35.310635 9.585024,40.908524 9.78125,46.25 l 4.84375,0 c 0.02111,-0.853679 0.02168,-1.704827 -0.0625,-2.53125 1.176435,0.588213 0.514213,1.646242 0.53125,2.53125 l 1.21875,0 c -0.06884,-0.474916 -0.09153,-0.975279 0.03125,-1.5 l 0,-1.03125 C 15.17476,42.33296 14.24794,40.87637 14.5625,39.125 l 0,-1.46875 C 13.52954,36.48726 13.32399,35.12854 13.375,33.6875 l 0,-1.5 C 11.99771,31.54562 13.16808,30.29469 12.78125,29.40625 L 12.78125,29.25 z m 0,10.9375 c 1.38153,1.13073 0.19842,2.87272 0.59375,4.25 C 11.99346,43.30677 13.16808,41.56903 12.78125,40.1875 Z"
                 style="opacity:0.26259604;fill:#aa4a1e;fill-opacity:1;fill-rule:nonzero;stroke:none" />
              <path
                 d="m 372.44659,615.34069 c 0.39533,1.67059 -0.78641,3.74077 0.59937,5.16482 0.85018,-1.47931 1.27526,-3.89806 -0.59937,-5.16482"
                 style="opacity:0.26259604;fill:#c9813f;fill-opacity:1;fill-rule:nonzero;stroke:none"
                 id="path19686-3"
                 inkscape:connector-curvature="0" />
              <path
                 d="m 371.85146,622.12934 c -0.95644,2.43576 -1.78962,4.92252 -0.59087,7.2265 0.13161,-0.11461 0.017,-0.28906 0.59087,-0.29314 0.24247,0.44209 -0.56961,1.90439 0.59513,1.61958 -0.39108,-2.80133 0.79066,-5.99799 -0.59513,-8.55277"
                 style="opacity:0.26259604;fill:#aa4a1e;fill-opacity:1;fill-rule:nonzero;stroke:none"
                 id="path19690-4"
                 inkscape:connector-curvature="0" />
              <path
                 d="m 370.07035,606.47761 c 0.22104,2.65255 -0.72265,5.5984 1.19024,7.82586 0.53561,-2.31247 0.70565,-5.64091 -1.19024,-7.82586"
                 style="opacity:0.26259604;fill:#aa4a1e;fill-opacity:1;fill-rule:nonzero;stroke:none"
                 id="path19694-6"
                 inkscape:connector-curvature="0" />
              <path
                 d="m 370.66547,616.96027 c -0.14861,0.78217 -1.96391,2.44426 0.59512,2.95011 -0.39108,-0.93519 0.78216,-2.25721 -0.59512,-2.95011"
                 style="opacity:0.26259604;fill:#c9813f;fill-opacity:1;fill-rule:nonzero;stroke:none"
                 id="path19696-0"
                 inkscape:connector-curvature="0" />
              <path
                 inkscape:connector-curvature="0"
                 id="path19698-6"
                 transform="translate(363.21429,592.57647)"
                 d="M 7,1.78125 C 6.7376299,1.807736 6.5007932,1.846543 6.25,1.90625 l 0,1.375 c 0.57387,0 0.45772,0.16631 0.59375,0.28125 C 7.17089,4.37442 6.14523,6.29849 7.4375,6.375 7.38932,4.8259448 7.2419927,3.2979409 7.0625,1.78125 7.0417183,1.7831266 7.0207171,1.7791586 7,1.78125 Z"
                 style="opacity:0.26259604;fill:#e7c494;fill-opacity:1;fill-rule:nonzero;stroke:none" />
              <path
                 inkscape:connector-curvature="0"
                 id="path19700-5"
                 transform="translate(363.21429,592.57647)"
                 d="M 4.09375,32.5625 C 3.8487712,32.62146 3.6327,32.84091 3.875,33.09375 3.19911,36.11188 6.31651,38.26117 5.0625,41.0625 l 0,0.15625 c 1.5371576,1.191531 0.1966727,3.107152 0.4375,4.625 0.4568282,0.175514 0.9329659,0.318525 1.4375,0.375 C 6.9665311,44.045083 6.257206,42.038322 6.25,39.875 l 0,-2.5 C 4.72819,36.57158 5.45496,35.21644 4.46875,34.28125 l 0,-1.34375 C 4.615495,32.58893 4.3387288,32.50354 4.09375,32.5625 Z"
                 style="opacity:0.26259604;fill:#aa4a1e;fill-opacity:1;fill-rule:nonzero;stroke:none" />
              <path
                 d="m 368.88435,598.66024 c 0.32307,-0.21254 -0.69714,-0.76516 0.59087,-0.7354 l 0,-0.88843 c -2.15519,-0.034 -1.33477,1.42829 -0.59087,1.62383"
                 style="opacity:0.26259604;fill:#bf652b;fill-opacity:1;fill-rule:nonzero;stroke:none"
                 id="path19704-1"
                 inkscape:connector-curvature="0" />
              <path
                 d="m 368.88435,610.46918 c -0.17003,-0.40383 0.60363,-0.92669 -0.59512,-1.03721 -0.34007,1.06272 0.26763,1.51756 0.59512,2.06592 0.90119,1.52182 0.4591,0.0809 0,-1.02871"
                 style="opacity:0.26259604;fill:#aa4a1e;fill-opacity:1;fill-rule:nonzero;stroke:none"
                 id="path19706-7"
                 inkscape:connector-curvature="0" />
              <path
                 inkscape:connector-curvature="0"
                 id="path19710-2"
                 transform="translate(363.21429,592.57647)"
                 d="M 3.875,39.59375 C 3.51793,39.89981 4.61177,40.56124 3.28125,40.625 l 0,2.21875 c 0.8808817,0.314999 0.714755,1.177607 0.59375,2.0625 0.3612798,0.29791 0.7606004,0.544894 1.1875,0.75 l 0,-4.4375 0,-0.15625 C 4.38661,40.63741 4.9418,39.91681 3.875,39.59375 Z"
                 style="opacity:0.26259604;fill:#c9813f;fill-opacity:1;fill-rule:nonzero;stroke:none" />
              <path
                 inkscape:connector-curvature="0"
                 id="path19712-8"
                 transform="translate(363.21429,592.57647)"
                 d="M 4.25,2.8125 C 3.8678136,3.078818 3.5264884,3.3708236 3.21875,3.71875 3.1755073,3.9313331 3.1749754,4.1373968 3.28125,4.3125 l 0,0.15625 C 4.65853,4.9661 3.48375,6.0686 3.875,6.8125 l 0,1.46875 C 4.9662139,6.5453553 4.6137524,4.6787199 4.25,2.8125 Z"
                 style="opacity:0.26259604;fill:#bf652b;fill-opacity:1;fill-rule:nonzero;stroke:none" />
              <path
                 d="m 367.09898,599.39989 c -0.39108,-0.7439 0.77791,-1.86613 -0.59937,-2.36348 0.39533,0.73965 -0.76941,1.87038 0.59937,2.36348"
                 style="opacity:0.26259604;fill:#c9813f;fill-opacity:1;fill-rule:nonzero;stroke:none"
                 id="path19716-6"
                 inkscape:connector-curvature="0" />
              <path
                 d="m 366.49961,597.03641 0,-0.14861 c -2.26147,0.59937 0.7269,6.5336 0,7.08621 0.88843,-0.67589 0.0765,-1.88314 0.59937,-3.09889 0,-0.48885 0,-0.9862 0,-1.47506 -1.36878,-0.4931 -0.20404,-1.62383 -0.59937,-2.36348"
                 style="opacity:0.26259604;fill:#d79f5d;fill-opacity:1;fill-rule:nonzero;stroke:none"
                 id="path19718-9"
                 inkscape:connector-curvature="0" />
              <path
                 d="m 366.49961,616.07609 c -0.37833,-0.53986 0.76941,-1.4708 -0.59512,-1.77262 0.38257,0.54412 -0.76516,1.47506 0.59512,1.77262"
                 style="opacity:0.26259604;fill:#d79f5d;fill-opacity:1;fill-rule:nonzero;stroke:none"
                 id="path19722-1"
                 inkscape:connector-curvature="0" />
              <path
                 inkscape:connector-curvature="0"
                 id="path19726-5"
                 transform="translate(363.21429,592.57647)"
                 d="m 1.75,13.375 0,8.375 c 0.1104465,0.04077 0.2050216,0.09122 0.34375,0.125 C 1.2643683,19.052596 4.410502,15.8428 1.75,13.375 Z"
                 style="opacity:0.26259604;fill:#bf652b;fill-opacity:1;fill-rule:nonzero;stroke:none" />
              <path
                 d="m 369.27118,623.30684 0,0.003 0,-0.003"
                 style="opacity:0.26259604;fill:#c9813f;fill-opacity:1;fill-rule:nonzero;stroke:none"
                 id="path19868-5"
                 inkscape:connector-curvature="0" />
              <path
                 inkscape:connector-curvature="0"
                 id="path19870-8"
                 transform="translate(363.21429,592.57647)"
                 d="M 6.25,1.90625 C 5.527789,2.0781894 4.839675,2.4015982 4.25,2.8125 4.6137524,4.6787199 4.9662139,6.5453553 3.875,8.28125 3.35214,9.497 4.16968,10.73036 3.28125,11.40625 4.00815,10.85364 1.01978,4.91187 3.28125,4.3125 3.1750221,4.1373968 3.1755013,3.9313331 3.21875,3.71875 2.3057949,4.7509294 1.75,6.1010614 1.75,7.59375 l 0,5.78125 c 2.660502,2.4678 -0.4856317,5.677596 0.34375,8.5 C 1.9550216,21.84122 1.8604465,21.790772 1.75,21.75 l 0,3.78125 C 1.8615138,25.56289 1.9714268,25.57498 2.09375,25.5625 1.7711552,26.534227 2.6594517,28.471493 1.75,29 l 0,3.84375 c 0.1009904,0.102305 0.2005488,0.183979 0.34375,0.25 1.71736,-1.82787 -0.54261,-4.66787 1.1875,-6.5 C 3.84662,30.28777 5.88018,33.62572 6.25,37.375 l 0,2.5 c 1.47081,0.25505 -0.1517,3.19749 1.1875,2.0625 l 0,-1.03125 C 7.61196,37.46729 6.63683,34.33418 6.25,31.03125 L 6.03125,30.71875 C 5.59341,30.08962 5.0741,29.39315 4.59375,28.6875 L 4.53125,28.625 4.34375,28.3125 4.25,28.1875 4.09375,27.90625 4,27.75 3.84375,27.5 3.75,27.34375 3.625,27.09375 3.5625,26.9375 3.4375,26.6875 3.375,26.53125 3.3125,26.3125 3.25,26.15625 3.21875,25.9375 3.1875,25.78125 3.15625,25.5625 l 0,-0.15625 0,-0.21875 0,-0.125 L 3.25,24.71875 c -0.0554,0.31864 1.45967,-0.84617 1.8125,-1.25 -0.0639,1.15198 0.12478,2.24507 1.1875,3.125 l 0,-4.28125 C 2.78979,21.24978 2.56148,16.33706 3.875,13.625 l 0,2.78125 C 5.24804,15.81537 4.086,14.58742 4.46875,13.75 6.20311,12.89982 5.86179,11.53296 6.84375,10.5 7.40911,14.01122 9.72473,16.35435 11,19.5 l 0,-2.0625 0,-2.34375 c -1.61534,-0.1061 0.41933,0.67303 -1.1875,0.5625 C 9.56595,14.82308 10.59741,13.00115 8.625,13.46875 7.81309,10.76519 6.35628,8.21734 6.25,5.34375 4.96199,5.31315 5.97915,5.88121 5.65625,6.09375 4.91235,5.89821 4.09481,4.43474 6.25,4.46875 l 0,-1.1875 L 6.25,1.90625 Z M 2.6875,21.71875 C 4.05203,22.02057 2.90292,22.96014 3.28125,23.5 1.92097,23.20244 3.07007,22.26287 2.6875,21.71875 Z"
                 style="opacity:0.26259604;fill:#c9813f;fill-opacity:1;fill-rule:nonzero;stroke:none" />
              <path
                 d="m 368.28923,615.92731 -0.003,0.11903 0.003,-0.11903"
                 style="opacity:0.26259604;fill:#d79f5d;fill-opacity:1;fill-rule:nonzero;stroke:none"
                 id="path19878-1"
                 inkscape:connector-curvature="0" />
              <path
                 d="m 368.28498,616.04634 c -0.35283,0.40383 -1.84913,1.57707 -1.79387,1.25826 l -0.0935,0.34007 -0.003,0.11052 -0.0204,0.22955 0.0136,0.14453 0.017,0.22954 0.034,0.14453 0.051,0.22955 0.0469,0.15711 0.0765,0.22955 0.0639,0.15745 0.1061,0.24213 0.0765,0.15303 0.13161,0.25506 0.0809,0.14861 0.15711,0.26797 0.0806,0.13161 0.17853,0.29756 0.0724,0.11052 0.20812,0.31049 0.0554,0.0765 c 0.48035,0.70565 1.01171,1.40279 1.44955,2.03618 l 0,-0.003 c -0.32715,-0.63338 -0.0554,-1.38578 0.16154,-2.17644 l 0.0636,-0.20847 0.034,-0.16561 0.0809,-0.44634 0.007,-0.0894 0,-0.4846 -0.007,-0.0469 -0.13603,-0.50586 c -1.06272,-0.87993 -1.25401,-1.98091 -1.19024,-3.13289"
                 style="opacity:0.26259604;fill:#d79f5d;fill-opacity:1;fill-rule:nonzero;stroke:none"
                 id="path19880-2"
                 inkscape:connector-curvature="0" />
              <path
                 d="m 366.40184,618.35881 -0.017,-0.22954 0.017,0.22954"
                 style="opacity:0.26259604;fill:#d79f5d;fill-opacity:1;fill-rule:nonzero;stroke:none"
                 id="path19882-4"
                 inkscape:connector-curvature="0" />
              <path
                 d="m 366.37208,617.98474 0.0204,-0.22955 -0.0204,0.22955"
                 style="opacity:0.26259604;fill:#d79f5d;fill-opacity:1;fill-rule:nonzero;stroke:none"
                 id="path19884-0"
                 inkscape:connector-curvature="0" />
              <path
                 d="m 367.48581,620.77331 -0.17853,-0.29756 0.17853,0.29756"
                 style="opacity:0.26259604;fill:#d79f5d;fill-opacity:1;fill-rule:nonzero;stroke:none"
                 id="path19886-1"
                 inkscape:connector-curvature="0" />
              <path
                 d="m 366.39759,617.64467 0.0935,-0.34007 -0.0935,0.34007"
                 style="opacity:0.26259604;fill:#d79f5d;fill-opacity:1;fill-rule:nonzero;stroke:none"
                 id="path19888-8"
                 inkscape:connector-curvature="0" />
              <path
                 d="m 367.82163,621.27066 c 0.48035,0.70565 1.01171,1.40705 1.44955,2.03618 -0.43784,-0.63339 -0.9692,-1.33053 -1.44955,-2.03618"
                 style="opacity:0.26259604;fill:#d79f5d;fill-opacity:1;fill-rule:nonzero;stroke:none"
                 id="path19890-1"
                 inkscape:connector-curvature="0" />
              <path
                 d="m 366.98846,619.92739 -0.13195,-0.25506 0.13195,0.25506"
                 style="opacity:0.26259604;fill:#d79f5d;fill-opacity:1;fill-rule:nonzero;stroke:none"
                 id="path19892-3"
                 inkscape:connector-curvature="0" />
              <path
                 d="m 367.22651,620.34397 -0.15745,-0.26797 0.15745,0.26797"
                 style="opacity:0.26259604;fill:#d79f5d;fill-opacity:1;fill-rule:nonzero;stroke:none"
                 id="path19894-8"
                 inkscape:connector-curvature="0" />
              <path
                 d="m 366.78017,619.5193 -0.10611,-0.24213 0.10611,0.24213"
                 style="opacity:0.26259604;fill:#d79f5d;fill-opacity:1;fill-rule:nonzero;stroke:none"
                 id="path19896-4"
                 inkscape:connector-curvature="0" />
              <path
                 d="m 367.76637,621.19415 -0.20812,-0.31049 0.20812,0.31049"
                 style="opacity:0.26259604;fill:#d79f5d;fill-opacity:1;fill-rule:nonzero;stroke:none"
                 id="path19898-1"
                 inkscape:connector-curvature="0" />
              <path
                 d="m 366.61013,619.11972 -0.0765,-0.22955 0.0765,0.22955"
                 style="opacity:0.26259604;fill:#d79f5d;fill-opacity:1;fill-rule:nonzero;stroke:none"
                 id="path19900-8"
                 inkscape:connector-curvature="0" />
              <path
                 d="m 366.48686,618.73289 -0.051,-0.22955 0.051,0.22955"
                 style="opacity:0.26259604;fill:#d79f5d;fill-opacity:1;fill-rule:nonzero;stroke:none"
                 id="path19902-7"
                 inkscape:connector-curvature="0" />
              <path
                 d="m 369.47522,623.6044 -0.20404,-0.29756 0,0.003 0.20404,0.29348"
                 style="opacity:0.26259604;fill:#bf652b;fill-opacity:1;fill-rule:nonzero;stroke:none"
                 id="path19956-9"
                 inkscape:connector-curvature="0" />
              <path
                 d="m 369.47522,623.6044 -0.20404,-0.29348 0.20404,0.29348"
                 style="opacity:0.26259604;fill:#bf652b;fill-opacity:1;fill-rule:nonzero;stroke:none"
                 id="path19958-8"
                 inkscape:connector-curvature="0" />
              <path
                 d="m 369.53048,620.75206 -0.034,0.16561 0.034,-0.16561"
                 style="opacity:0.26259604;fill:#bf652b;fill-opacity:1;fill-rule:nonzero;stroke:none"
                 id="path19960-3"
                 inkscape:connector-curvature="0" />
              <path
                 d="m 369.61975,620.21645 -0.007,0.0894 0.007,-0.0894"
                 style="opacity:0.26259604;fill:#bf652b;fill-opacity:1;fill-rule:nonzero;stroke:none"
                 id="path19962-4"
                 inkscape:connector-curvature="0" />
              <path
                 d="m 369.61125,619.68509 0.007,0.0469 -0.007,-0.0469"
                 style="opacity:0.26259604;fill:#bf652b;fill-opacity:1;fill-rule:nonzero;stroke:none"
                 id="path19964-4"
                 inkscape:connector-curvature="0" />
              <path
                 d="m 369.27118,623.30258 c -0.32715,-0.63338 -0.0554,-1.38578 0.16153,-2.17645 -0.21696,0.79067 -0.48885,1.54307 -0.16153,2.17645"
                 style="opacity:0.26259604;fill:#bf652b;fill-opacity:1;fill-rule:nonzero;stroke:none"
                 id="path19966-3"
                 inkscape:connector-curvature="0" />
              <path
                 inkscape:connector-curvature="0"
                 id="path19968-2"
                 transform="translate(363.21429,592.57647)"
                 d="M 7.59375,1.75 C 7.4122538,1.75 7.2396912,1.7652495 7.0625,1.78125 7.2419951,3.2979409 7.3893272,4.8259448 7.4375,6.375 6.14523,6.2985 7.17089,4.37442 6.84375,3.5625 6.70772,3.4479 6.82475,3.28125 6.25,3.28125 l 0,1.1875 0,0.875 c 0.10611,2.87359 1.56309,5.42144 2.375,8.125 1.97241,-0.4676 0.94095,1.35433 1.1875,2.1875 C 11.41933,15.76678 9.38466,14.98748 11,15.09375 10.61317,14.1033 11.79204,12.7354 10.40625,12 10.05343,12.30607 11.14303,12.94049 9.8125,13 9.41717,11.91603 10.60028,10.46243 9.21875,9.625 8.85742,9.97783 9.96828,10.69347 8.625,10.8125 8.7658826,7.7167998 8.539411,4.7146947 8.15625,1.75 L 7.59375,1.75 Z"
                 style="opacity:0.26259604;fill:#d79f5d;fill-opacity:1;fill-rule:nonzero;stroke:none" />
              <path
                 inkscape:connector-curvature="0"
                 id="path19970-1"
                 transform="translate(363.21429,592.57647)"
                 d="m 2.09375,37.21875 c -0.3022892,0.200271 0.5371623,0.692875 -0.34375,0.75 l 0,2.4375 c 0,0.777968 0.1644391,1.509551 0.4375,2.1875 0.021705,-0.469803 -0.00678,-0.932653 -0.09375,-1.375 1.0083078,0.538383 0.6431979,1.429904 0.53125,2.25 0.2047642,0.333251 0.4534066,0.621889 0.71875,0.90625 -0.01814,-0.511912 -0.061487,-1.03183 -0.0625,-1.53125 l 0,-2.21875 C 2.04424,39.70256 3.50487,38.09443 2.09375,37.21875 Z"
                 style="opacity:0.26259604;fill:#aa4a1e;fill-opacity:1;fill-rule:nonzero;stroke:none" />
              <path
                 inkscape:connector-curvature="0"
                 id="path19986-6"
                 transform="translate(363.21429,592.57647)"
                 d="m 3.28125,26.59375 c -1.73011,1.83213 0.52986,4.67213 -1.1875,6.5 C 1.9505488,33.02773 1.8509904,32.946056 1.75,32.84375 l 0,3.59375 0,1.53125 c 0.8809337,-0.05771 0.041618,-0.549886 0.34375,-0.75 1.4113,0.87568 -0.0495,2.48381 1.1875,3.40625 C 4.61177,40.5611 3.51776,39.89981 3.875,39.59375 4.94197,39.91681 4.38661,40.63741 5.0625,41.0625 6.31651,38.26117 3.19911,36.11188 3.875,33.09375 3.3904,32.5879 4.76207,32.24019 4.46875,32.9375 l 0,1.34375 C 5.45496,35.21644 4.72819,36.57158 6.25,37.375 5.88018,33.62572 3.84662,30.28777 3.28125,26.59375 Z"
                 style="opacity:0.26259604;fill:#bf652b;fill-opacity:1;fill-rule:nonzero;stroke:none" />
            </g>
          </g>
        </g>
      </g>
    </g>
    <path
       id="path6361"
       d="m 1.75,1012.5497 0,-0.5625 c 0,-3.2445 2.5992254,-5.875 5.8437504,-5.875 l 32.8124996,0 c 3.244525,0 5.84375,2.6305 5.84375,5.875 l 0,0.5625 c 0,-3.2445 -2.599225,-5.875 -5.84375,-5.875 l -32.8124996,0 C 4.3492254,1006.6747 1.75,1009.3052 1.75,1012.5497 Z"
       style="color:#000000;fill:#ffffff;fill-opacity:1;fill-rule:nonzero;stroke:none;stroke-width:0.2;marker:none;visibility:visible;display:inline;overflow:visible;enable-background:accumulate"
       inkscape:connector-curvature="0" />
    <path
       inkscape:connector-curvature="0"
       style="color:#000000;fill:#000000;fill-opacity:1;fill-rule:nonzero;stroke:none;stroke-width:0.2;marker:none;visibility:visible;display:inline;overflow:visible;enable-background:accumulate"
       d="m 1.75,1044.1747 0,0.5625 c 0,3.2445 2.5992254,5.875 5.8437504,5.875 l 32.8124996,0 c 3.244525,0 5.84375,-2.6305 5.84375,-5.875 l 0,-0.5625 c 0,3.2445 -2.599225,5.875 -5.84375,5.875 l -32.8124996,0 C 4.3492254,1050.0497 1.75,1047.4192 1.75,1044.1747 Z"
       id="path6388" />
    <path
       style="fill:#000000;fill-opacity:0.19215686;stroke:none"
       d="m 35.4375,1028.3818 0,0.2812 c 0,0.2505 0.186988,0.4688 0.4375,0.4688 l 5.375,0 c 0.250512,0 0.4375,-0.2183 0.4375,-0.4688 l 0,-0.2812 c -0.0042,0.058 -0.0081,0.1075 -0.03125,0.1562 -0.01829,0.047 -0.06246,0.086 -0.09375,0.125 -0.07877,0.097 -0.178034,0.1875 -0.3125,0.1875 l -5.375,0 c -0.134466,0 -0.233732,-0.091 -0.3125,-0.1875 -0.03835,-0.047 -0.07533,-0.096 -0.09375,-0.1562 C 35.45143,1028.4641 35.441073,1028.431 35.4375,1028.3818 Z"
       id="path12728"
       inkscape:connector-curvature="0" />
    <path
       id="path12735"
       d="m 35.4375,1028.6591 0,0.2812 c 0,0.2505 0.186988,0.4688 0.4375,0.4688 l 5.375,0 c 0.250512,0 0.4375,-0.2183 0.4375,-0.4688 l 0,-0.2812 c -0.0042,0.058 -0.0081,0.1076 -0.03125,0.1562 -0.01829,0.048 -0.06246,0.087 -0.09375,0.125 -0.07877,0.097 -0.178034,0.1875 -0.3125,0.1875 l -5.375,0 c -0.134466,0 -0.233732,-0.091 -0.3125,-0.1875 -0.03835,-0.047 -0.07533,-0.096 -0.09375,-0.1562 C 35.45143,1028.7415 35.441073,1028.7084 35.4375,1028.6591 Z"
       style="fill:#000000;fill-opacity:0.08235294;stroke:none"
       inkscape:connector-curvature="0" />
    <path
       style="fill:#000000;fill-opacity:0.30196078;stroke:none"
       d="m 35.4375,1028.0732 0,0.3125 c 0,0.2505 0.186988,0.4687 0.4375,0.4687 l 5.375,0 c 0.250512,0 0.4375,-0.2182 0.4375,-0.4687 l 0,-0.3125 c 0,0.2505 -0.186988,0.4375 -0.4375,0.4375 l -5.375,0 C 35.624488,1028.5107 35.4375,1028.3237 35.4375,1028.0732 Z"
       id="rect12723"
       inkscape:connector-curvature="0" />
    <rect
       transform="scale(1,-1)"
       ry="1.1636339"
       y="-1042.0859"
       x="9.6381664"
       height="28.723669"
       width="28.723669"
       id="rect3079"
       style="fill:url(#linearGradient3089);fill-opacity:1;stroke:none" />
    <path
       style="fill:#000000;fill-opacity:0.30232562;stroke:none"
       d="m 9.6381648,1040.9285 0,0.4251 c 0,0.6447 0.5127972,1.1574 1.1574502,1.1574 l 26.408768,0 c 0.644652,0 1.157451,-0.5127 1.157451,-1.1574 l 0,-0.4251 c 0,0.6447 -0.512799,1.1574 -1.157451,1.1574 l -26.408768,0 C 10.150962,1042.0859 9.6381648,1041.5732 9.6381648,1040.9285 Z"
       id="rect3091"
       inkscape:connector-curvature="0" />
    <path
       id="path3099"
       d="m 9.6381648,1041.3536 0,0.4252 c 0,0.6447 0.5127972,1.1575 1.1574502,1.1575 l 26.408768,0 c 0.644652,0 1.157451,-0.5128 1.157451,-1.1575 l 0,-0.4252 c 0,0.6447 -0.512799,1.1574 -1.157451,1.1574 l -26.408768,0 C 10.150962,1042.511 9.6381648,1041.9983 9.6381648,1041.3536 Z"
       style="fill:#000000;fill-opacity:0.1906977;stroke:none"
       inkscape:connector-curvature="0" />
    <path
       inkscape:connector-curvature="0"
       style="fill:#000000;fill-opacity:0.08372091;stroke:none"
       d="m 9.6381648,1041.7795 0,0.4252 c 0,0.6447 0.5127972,1.1575 1.1574502,1.1575 l 26.408768,0 c 0.644652,0 1.157451,-0.5128 1.157451,-1.1575 l 0,-0.4252 c 0,0.6447 -0.512799,1.1575 -1.157451,1.1575 l -26.408768,0 C 10.150962,1042.937 9.6381648,1042.4242 9.6381648,1041.7795 Z"
       id="path3101" />
    <rect
       style="fill:url(#linearGradient3105);fill-opacity:1;stroke:none"
       id="rect3103"
       width="25.700125"
       height="25.700125"
       x="11.149939"
       y="-1040.5742"
       ry="1.0411462"
       transform="scale(1,-1)" />
    <path
       style="fill:#000000;fill-opacity:0.14883722;stroke:none"
       d="m 12.18928,1014.874 c -0.576795,0 -1.039343,0.4626 -1.039343,1.0393 l 0,23.6215 c 0,0.5768 0.462547,1.0393 1.039343,1.0393 l 23.621438,0 c 0.576794,0 1.039343,-0.4625 1.039343,-1.0393 l 0,-23.6215 c 0,-0.5767 -0.462549,-1.0393 -1.039343,-1.0393 L 12.18928,1014.874 z m 0.519671,0.4724 22.747445,0 c 0.555098,0 0.9921,0.4606 0.9921,1.0157 l 0,22.7239 c 0,0.5551 -0.437003,1.0157 -0.9921,1.0157 l -22.747445,0 c -0.555096,0 -0.9921,-0.4606 -0.9921,-1.0157 l 0,-22.7239 C 11.716851,1015.807 12.153855,1015.3464 12.708951,1015.3464 Z"
       id="rect3115"
       inkscape:connector-curvature="0" />
    <path
       style="fill:#000000;fill-opacity:0.07906979;stroke:none"
       d="m 12.708951,1015.3464 c -0.555096,0 -0.9921,0.4606 -0.9921,1.0157 l 0,22.7239 c 0,0.5551 0.437004,1.0157 0.9921,1.0157 l 22.747445,0 c 0.208161,0 0.408785,-0.055 0.566914,-0.1654 0.15813,-0.1102 0.279859,-0.2669 0.354322,-0.4488 0.02482,-0.061 0.03421,-0.1233 0.04724,-0.189 0.0087,-0.044 0.02065,-0.096 0.02363,-0.1416 l 0,-0.071 0,-22.7239 c 0,-0.023 0.0015,-0.049 0,-0.071 0,-0.047 -0.01752,-0.097 -0.02363,-0.1417 -0.01303,-0.066 -0.02242,-0.1283 -0.04724,-0.189 -0.07447,-0.1818 -0.196192,-0.3385 -0.354322,-0.4488 -0.158129,-0.1102 -0.358752,-0.1653 -0.566914,-0.1653 L 12.708951,1015.3464 z m 0.354322,0.4016 22.038801,0 c 0.537421,0 0.944859,0.4312 0.944859,0.9685 l 0,22.0151 c 0,0.5375 -0.407438,0.9685 -0.944859,0.9685 l -22.038801,0 c -0.537419,0 -0.944858,-0.431 -0.944858,-0.9685 l 0,-22.0151 C 12.118415,1016.1792 12.525854,1015.748 13.063273,1015.748 Z"
       id="path3120"
       inkscape:connector-curvature="0" />
    <path
       style="fill:#000000;fill-opacity:0.04186048;stroke:none"
       d="m 13.063273,1015.748 c -0.537419,0 -0.944858,0.4312 -0.944858,0.9685 l 0,22.0151 c 0,0.5375 0.407439,0.9685 0.944858,0.9685 l 22.038801,0 c 0.513083,0 0.910172,-0.3944 0.944859,-0.8976 l 0,-0.071 0,-22.0151 c 0,-0.024 0.0017,-0.047 0,-0.071 -0.03469,-0.5032 -0.431775,-0.8977 -0.944859,-0.8977 L 13.063273,1015.748 z m 0.188972,0.3071 21.495507,0 c 0.523811,0 0.921237,0.4213 0.921237,0.9448 l 0,21.4483 c 0,0.5239 -0.397428,0.9448 -0.921237,0.9448 l -21.495507,0 c -0.52381,0 -0.921236,-0.4209 -0.921236,-0.9448 l 0,-21.4483 C 12.331009,1016.4764 12.728435,1016.0551 13.252245,1016.0551 Z"
       id="path3125"
       inkscape:connector-curvature="0" />
    <rect
       transform="scale(1,-1)"
       ry="0.91865849"
       y="-1039.0623"
       x="12.661707"
       height="22.67658"
       width="22.67658"
       id="rect3130"
       style="fill:url(#linearGradient3132);fill-opacity:1;stroke:none" />
    <path
       style="opacity:0.47400004;fill:url(#linearGradient4405);fill-opacity:1;stroke:none"
       d="m 13.582945,1016.3857 c -0.03426,0 -0.06123,0.02 -0.09449,0.024 14.06628,-0.4621 23.760674,4.113 21.519131,22.4403 0.201829,-0.1682 0.330698,-0.4241 0.330698,-0.7086 l 0,-20.8341 C 35.338288,1016.798 34.92599,1016.3857 34.417053,1016.3857 Z"
       id="rect4390"
       inkscape:connector-curvature="0"
       sodipodi:nodetypes="sccssss" />
    <rect
       style="fill:url(#linearGradient12721);fill-opacity:1;stroke:none"
       id="rect12719"
       width="4.2748475"
       height="1.8885856"
       x="37.419445"
       y="1026.7373"
       ry="0.45218855" />
    <path
       inkscape:connector-curvature="0"
       style="fill:url(#linearGradient12775);fill-opacity:1;stroke:none"
       d="m 13.570313,1016.3798 c -0.508937,0 -0.908203,0.4286 -0.908203,0.9375 l 0,20.8301 c 0,0.5089 0.399266,0.9082 0.908203,0.9082 l 0.205078,0 c -0.508937,0 -0.908203,-0.3993 -0.908203,-0.9082 l 0,-20.8301 c 0,-0.5089 0.399266,-0.9375 0.908203,-0.9375 L 13.570313,1016.3798 Z"
       id="rect12761" />
    <path
       inkscape:connector-curvature="0"
       style="opacity:0.46799999;fill:url(#linearGradient12783);fill-opacity:1;stroke:none"
       d="m 13.986151,1016.3695 c -0.508937,0 -0.908203,0.4285 -0.908203,0.9375 l 0,20.83 c 0,0.509 0.399266,0.9083 0.908203,0.9083 l 0.205078,0 c -0.508937,0 -0.908203,-0.3993 -0.908203,-0.9083 l 0,-20.83 c 0,-0.509 0.399266,-0.9375 0.908203,-0.9375 L 13.986151,1016.3695 Z"
       id="path12781" />
    <path
       id="path12791"
       d="m 13.772295,1016.3798 c -0.508937,0 -0.908203,0.4286 -0.908203,0.9375 l 0,20.8301 c 0,0.5089 0.399266,0.9082 0.908203,0.9082 l 0.205078,0 c -0.508937,0 -0.908203,-0.3993 -0.908203,-0.9082 l 0,-20.8301 c 0,-0.5089 0.399266,-0.9375 0.908203,-0.9375 L 13.772295,1016.3798 Z"
       style="opacity:0.58800001;fill:url(#linearGradient12793);fill-opacity:1;stroke:none"
       inkscape:connector-curvature="0" />
    <path
       style="opacity:0.58800001;color:#000000;fill:url(#linearGradient12817);fill-opacity:1;fill-rule:nonzero;stroke:none;stroke-width:0.2;marker:none;visibility:visible;display:inline;overflow:visible;enable-background:accumulate"
       d="m 15.575885,1020.7551 c -1.914668,3.3712 -1.173081,8.3159 2.13825,12.1023 2.485531,2.8421 5.817832,4.366 8.845741,4.3292 -2.512561,-0.7536 -5.080945,-2.4276 -7.211211,-4.8635 C 16.12873,1028.6414 14.799664,1024.1676 15.575885,1020.7551 Z"
       id="path12806"
       inkscape:connector-curvature="0" />
  </g>
</svg>
