<?xml version="1.0" encoding="UTF-8" standalone="no"?>
<!-- Created with Inkscape (http://www.inkscape.org/) -->

<svg
   xmlns:dc="http://purl.org/dc/elements/1.1/"
   xmlns:cc="http://creativecommons.org/ns#"
   xmlns:rdf="http://www.w3.org/1999/02/22-rdf-syntax-ns#"
   xmlns:svg="http://www.w3.org/2000/svg"
   xmlns="http://www.w3.org/2000/svg"
   xmlns:xlink="http://www.w3.org/1999/xlink"
   xmlns:sodipodi="http://sodipodi.sourceforge.net/DTD/sodipodi-0.dtd"
   xmlns:inkscape="http://www.inkscape.org/namespaces/inkscape"
   width="48"
   height="48"
   id="svg944"
   version="1.1"
   inkscape:version="0.48+devel r12064"
   sodipodi:docname="checkbox.svg">
  <defs
     id="defs946">
    <linearGradient
       id="linearGradient980-8">
      <stop
         style="stop-color:#3e9b2e;stop-opacity:1"
         offset="0"
         id="stop982-1" />
      <stop
         style="stop-color:#76d347;stop-opacity:1"
         offset="1"
         id="stop984-7" />
    </linearGradient>
    <linearGradient
       inkscape:collect="always"
       xlink:href="#linearGradient980-8"
       id="linearGradient870"
       x1="1663.9136"
       y1="410.13284"
       x2="1663.9136"
       y2="364.7757"
       gradientUnits="userSpaceOnUse" />
  </defs>
  <sodipodi:namedview
     id="base"
     pagecolor="#ffffff"
     bordercolor="#666666"
     borderopacity="1.0"
     inkscape:pageopacity="0.0"
     inkscape:pageshadow="2"
     inkscape:zoom="7.9195959"
     inkscape:cx="0.95280557"
     inkscape:cy="20.913624"
     inkscape:document-units="px"
     inkscape:current-layer="layer1"
     showgrid="false"
     width="0px"
     height="0px"
     fit-margin-top="0"
     fit-margin-left="0"
     fit-margin-right="0"
     fit-margin-bottom="0"
     inkscape:window-width="1366"
     inkscape:window-height="718"
     inkscape:window-x="0"
     inkscape:window-y="28"
     inkscape:window-maximized="1" />
  <metadata
     id="metadata949">
    <rdf:RDF>
      <cc:Work
         rdf:about="">
        <dc:format>image/svg+xml</dc:format>
        <dc:type
           rdf:resource="http://purl.org/dc/dcmitype/StillImage" />
        <dc:title />
      </cc:Work>
    </rdf:RDF>
  </metadata>
  <g
     inkscape:label="Capa 1"
     inkscape:groupmode="layer"
     id="layer1"
     transform="translate(-1640.5564,-364.34714)">
    <rect
       style="color:#000000;fill:#333333;fill-opacity:1;fill-rule:nonzero;stroke:none;stroke-width:0.2;marker:none;visibility:visible;display:inline;overflow:visible;enable-background:accumulate"
       id="rect6294"
       width="45.5"
       height="45.5"
       x="1641.8064"
       y="365.59714"
       ry="6.3565426" />
    <rect
       ry="5.8565426"
       y="366.09714"
       x="1642.3064"
       height="44.5"
       width="44.5"
       id="rect6296"
       style="color:#000000;fill:url(#linearGradient870);fill-opacity:1;fill-rule:nonzero;stroke:none;stroke-width:0.2;marker:none;visibility:visible;display:inline;overflow:visible;enable-background:accumulate" />
    <path
       id="path6361"
       d="m 1642.3065,372.53468 0,-0.5625 c 0,-3.2445 2.5992,-5.875 5.8438,-5.875 l 32.8125,0 c 3.2445,0 5.8437,2.6305 5.8437,5.875 l 0,0.5625 c 0,-3.2445 -2.5992,-5.875 -5.8437,-5.875 l -32.8125,0 C 1644.9057,366.65968 1642.3065,369.29018 1642.3065,372.53468 Z"
       style="color:#000000;fill:#ffffff;fill-opacity:1;fill-rule:nonzero;stroke:none;stroke-width:0.2;marker:none;visibility:visible;display:inline;overflow:visible;enable-background:accumulate"
       inkscape:connector-curvature="0" />
    <path
       inkscape:connector-curvature="0"
       style="color:#000000;fill:#000000;fill-opacity:1;fill-rule:nonzero;stroke:none;stroke-width:0.2;marker:none;visibility:visible;display:inline;overflow:visible;enable-background:accumulate"
       d="m 1642.3065,404.15968 0,0.5625 c 0,3.2445 2.5992,5.875 5.8438,5.875 l 32.8125,0 c 3.2445,0 5.8437,-2.6305 5.8437,-5.875 l 0,-0.5625 c 0,3.2445 -2.5992,5.875 -5.8437,5.875 l -32.8125,0 C 1644.9057,410.03468 1642.3065,407.40418 1642.3065,404.15968 Z"
       id="path6388" />
    <g
       id="g872"
       transform="matrix(0.88011383,0,0,0.88011383,141.46973,45.772847)">
      <path
         sodipodi:nodetypes="ccccccccccc"
         inkscape:connector-curvature="0"
         id="rect818"
         d="m 1740.6935,373.13287 -13.0559,22.6134 -2.7056,-1.562 -3.4495,-1.9916 -3.5705,-2.0615 -3.4436,5.9217 6.163,3.5828 5.1326,2.9633 4.3888,2.5339 L 1746.6444,376.56857 Z"
         style="color:#000000;fill:#ffffff;fill-opacity:1;fill-rule:nonzero;stroke:none;stroke-width:0.2;marker:none;visibility:visible;display:inline;overflow:visible;enable-background:accumulate" />
      <path
         inkscape:connector-curvature="0"
         id="path847"
         d="m 1740.6814,372.19537 -13.0312,22.625 -2.7188,-1.5625 -3.4375,-2 -3.5937,-2.0625 -3.4375,5.9062 0.4375,0.25 3,-5.1875 3.5937,2.0625 3.4375,2 2.7188,1.5625 13.0312,-22.625 5.5625,3.1875 0.4063,-0.7187 L 1740.6814,372.19537 Z"
         style="color:#000000;fill:#000000;fill-opacity:0.31176471;fill-rule:nonzero;stroke:none;stroke-width:0.2;marker:none;visibility:visible;display:inline;overflow:visible;enable-background:accumulate" />
      <path
         inkscape:connector-curvature="0"
         id="path852"
         d="m 1746.1189,377.40687 -15.9687,27.625 -4.375,-2.5312 -5.1563,-2.9688 -5.625,-3.25 -0.5312,0.9063 6.1562,3.5937 5.1563,2.9688 4.375,2.5312 16.5,-28.5625 L 1746.1189,377.40687 Z"
         style="color:#000000;fill:#ffffff;fill-opacity:0.20588235;fill-rule:nonzero;stroke:none;stroke-width:0.2;marker:none;visibility:visible;display:inline;overflow:visible;enable-background:accumulate" />
    </g>
  </g>
</svg>
