<?xml version="1.0" encoding="UTF-8" standalone="no"?>
<!-- Created with Inkscape (http://www.inkscape.org/) -->

<svg
   xmlns:dc="http://purl.org/dc/elements/1.1/"
   xmlns:cc="http://creativecommons.org/ns#"
   xmlns:rdf="http://www.w3.org/1999/02/22-rdf-syntax-ns#"
   xmlns:svg="http://www.w3.org/2000/svg"
   xmlns="http://www.w3.org/2000/svg"
   xmlns:xlink="http://www.w3.org/1999/xlink"
   xmlns:sodipodi="http://sodipodi.sourceforge.net/DTD/sodipodi-0.dtd"
   xmlns:inkscape="http://www.inkscape.org/namespaces/inkscape"
   width="48"
   height="48"
   id="svg2"
   version="1.1"
   inkscape:version="0.48+devel r12114"
   sodipodi:docname="covergloobus.svg">
  <defs
     id="defs4">
    <linearGradient
       id="linearGradient867">
      <stop
         offset="0"
         style="stop-color:#00060b;stop-opacity:1"
         id="stop869" />
      <stop
         offset="1"
         style="stop-color:#001624;stop-opacity:1"
         id="stop871" />
    </linearGradient>
    <linearGradient
       inkscape:collect="always"
       xlink:href="#linearGradient3223-9"
       id="linearGradient856"
       gradientUnits="userSpaceOnUse"
       x1="23.204165"
       y1="1053.158"
       x2="23.204165"
       y2="1004.8474"
       gradientTransform="translate(1.7134552e-7,-1004.3621)" />
    <linearGradient
       id="linearGradient3223-9">
      <stop
         id="stop3225-0"
         style="stop-color:#003e69;stop-opacity:1"
         offset="0" />
      <stop
         id="stop3227-5"
         style="stop-color:#17a3ff;stop-opacity:1"
         offset="1" />
    </linearGradient>
    <linearGradient
       inkscape:collect="always"
       xlink:href="#linearGradient930"
       id="linearGradient928"
       gradientUnits="userSpaceOnUse"
       x1="23.204165"
       y1="1053.158"
       x2="23.204165"
       y2="1004.8474"
       gradientTransform="matrix(1,0,0,0.2135417,1.7134552e-7,-176.72316)" />
    <linearGradient
       id="linearGradient930">
      <stop
         id="stop932"
         style="stop-color:#00060b;stop-opacity:1"
         offset="0" />
      <stop
         id="stop934"
         style="stop-color:#004876;stop-opacity:1"
         offset="1" />
    </linearGradient>
    <linearGradient
       inkscape:collect="always"
       xlink:href="#linearGradient867"
       id="linearGradient905"
       x1="77.279617"
       y1="1050.8951"
       x2="77.279617"
       y2="1005.9551"
       gradientUnits="userSpaceOnUse"
       gradientTransform="translate(-51.360142,3.4765626e-5)" />
  </defs>
  <sodipodi:namedview
     id="base"
     pagecolor="#ffffff"
     bordercolor="#666666"
     borderopacity="1.0"
     inkscape:pageopacity="0.0"
     inkscape:pageshadow="2"
     inkscape:zoom="2.8085939"
     inkscape:cx="19.656608"
     inkscape:cy="-3.3189824"
     inkscape:document-units="px"
     inkscape:current-layer="layer1"
     showgrid="false"
     inkscape:window-width="1366"
     inkscape:window-height="718"
     inkscape:window-x="0"
     inkscape:window-y="28"
     inkscape:window-maximized="1" />
  <metadata
     id="metadata7">
    <rdf:RDF>
      <cc:Work
         rdf:about="">
        <dc:format>image/svg+xml</dc:format>
        <dc:type
           rdf:resource="http://purl.org/dc/dcmitype/StillImage" />
        <dc:title />
      </cc:Work>
    </rdf:RDF>
  </metadata>
  <g
     inkscape:label="Capa 1"
     inkscape:groupmode="layer"
     id="layer1"
     transform="translate(0,-1004.3622)">
    <rect
       style="color:#000000;fill:#333333;fill-opacity:1;fill-rule:nonzero;stroke:none;stroke-width:0.2;marker:none;visibility:visible;display:inline;overflow:visible;enable-background:accumulate"
       id="rect6294"
       width="45.5"
       height="45.5"
       x="1.25"
       y="1005.6122"
       ry="6.3565426" />
    <rect
       ry="5.8565426"
       y="1006.1122"
       x="1.75"
       height="44.5"
       width="44.5"
       id="rect6296"
       style="color:#000000;fill:url(#linearGradient905);fill-opacity:1;fill-rule:nonzero;stroke:none;stroke-width:0.2;marker:none;visibility:visible;display:inline;overflow:visible;enable-background:accumulate" />
    <path
       style="fill:#ffffff;fill-opacity:1;fill-rule:evenodd;stroke:none"
       id="path3239-3"
       inkscape:connector-curvature="0"
       d="m 24.399516,1024.8374 c -0.226859,-0.9878 0.961517,-1.5602 1.770681,-1.4544 1.581699,0.2065 2.331659,1.9777 1.967441,3.3971 -0.553843,2.1581 -3.00741,3.1294 -5.018988,2.483 -2.733392,-0.8785 -3.931528,-4.0461 -2.995147,-6.6476 1.19277,-3.3141 5.08124,-4.7432 8.267274,-3.5114 3.891181,1.5043 5.550638,6.1245 4.02286,9.8981 -1.811466,4.4744 -7.160145,6.3671 -11.515568,4.5398 -5.051999,-2.1196 -7.175871,-8.206 -5.050566,-13.1488 2.423768,-5.6368 9.240979,-7.995 14.76387,-5.5682 6.214248,2.7308 8.803819,10.2889 6.078282,16.3992 -3.033285,6.8005 -11.322751,9.6252 -18.01216,6.5968 -7.377256,-3.3397 -10.4332409,-12.3724 -7.106012,-19.6499 2.608909,-5.7062 8.572931,-9.2969 14.814111,-9.1349" />
    <path
       style="opacity:0.57999998;fill:url(#linearGradient856);fill-opacity:1;stroke:none"
       d="M 7.59375 1.75 C 6.7826189 1.75 6.0124387 1.9243769 5.3125 2.21875 C 4.961931 2.3665362 4.623972 2.5399194 4.3125 2.75 C 3.6910552 3.168662 3.168662 3.6910552 2.75 4.3125 C 2.5399194 4.623972 2.3665362 4.961931 2.21875 5.3125 C 2.1451567 5.4874847 2.0566261 5.6603847 2 5.84375 C 1.9972149 5.8525922 2.0027444 5.8661395 2 5.875 C 1.9472477 6.0490527 1.9116557 6.2255589 1.875 6.40625 C 1.87289 6.4163407 1.8770583 6.42739 1.875 6.4375 C 1.8014215 6.8099793 1.75 7.1985976 1.75 7.59375 L 1.75 40.40625 C 1.75 40.609033 1.7614206 40.802736 1.78125 41 C 1.8011731 41.197358 1.8361203 41.371533 1.875 41.5625 C 1.876939 41.572316 1.8730125 41.583953 1.875 41.59375 C 1.9127463 41.774261 1.9461411 41.951112 2 42.125 C 2.0586501 42.318512 2.1412606 42.503251 2.21875 42.6875 C 2.3665362 43.038069 2.5399194 43.376028 2.75 43.6875 C 3.168662 44.308945 3.6910552 44.831338 4.3125 45.25 C 4.623972 45.460081 4.961931 45.633464 5.3125 45.78125 C 5.4874847 45.854843 5.6603847 45.943374 5.84375 46 C 5.8525922 46.002785 5.8661395 45.997256 5.875 46 C 6.0490527 46.052752 6.2255589 46.088344 6.40625 46.125 C 6.4163407 46.12711 6.42739 46.122942 6.4375 46.125 C 6.8099793 46.198578 7.1985976 46.25 7.59375 46.25 L 40.40625 46.25 C 40.811816 46.25 41.206493 46.206481 41.5625 46.125 C 44.054547 45.554636 45.368578 43.104914 46.25 40.40625 L 46.25 31.71875 C 43.185553 30.494624 41.03125 27.505338 41.03125 24 C 41.03125 20.494737 43.185553 17.505399 46.25 16.28125 L 46.25 7.59375 C 45.368578 4.8950869 44.054547 2.4453643 41.5625 1.875 C 41.206493 1.7935194 40.811816 1.75 40.40625 1.75 L 7.59375 1.75 z "
       transform="translate(0,1004.3622)"
       id="rect854" />
    <path
       style="fill:url(#linearGradient928);fill-opacity:1;stroke:none"
       d="M 1.6875 37.75 L 1.6875 40.625 C 1.6875 43.769247 4.2307532 46.3125 7.375 46.3125 L 40.625 46.3125 C 43.769247 46.3125 46.3125 43.769247 46.3125 40.625 L 46.3125 37.75 L 1.6875 37.75 z "
       id="rect926"
       transform="translate(0,1004.3622)" />
    <g
       id="g915"
       transform="matrix(0.8663262,0,0,0.8663262,3.2081715,138.81957)">
      <g
         transform="matrix(0.7495215,0,0,0.7495215,6.2989664,262.30684)"
         id="g887">
        <path
           inkscape:transform-center-x="-0.75404924"
           transform="matrix(-0.63042129,0,0,0.63042129,44.659781,1020.4301)"
           d="M 8.8922067,46.643425 1.7155848,42.5 8.8922071,38.356575 Z"
           inkscape:randomized="0"
           inkscape:rounded="0"
           inkscape:flatsided="true"
           sodipodi:arg2="2.0943951"
           sodipodi:arg1="1.0471976"
           sodipodi:r2="2.3922074"
           sodipodi:r1="4.7844148"
           sodipodi:cy="42.5"
           sodipodi:cx="6.4999995"
           sodipodi:sides="3"
           id="path877"
           style="opacity:0.57999998;fill:#ffffff;fill-opacity:1;stroke:none"
           sodipodi:type="star"
           inkscape:transform-center-y="-3.7761139e-05" />
        <path
           sodipodi:type="star"
           style="opacity:0.57999998;fill:#ffffff;fill-opacity:1;stroke:none"
           id="path879"
           sodipodi:sides="3"
           sodipodi:cx="6.4999995"
           sodipodi:cy="42.5"
           sodipodi:r1="4.7844148"
           sodipodi:r2="2.3922074"
           sodipodi:arg1="1.0471976"
           sodipodi:arg2="2.0943951"
           inkscape:flatsided="true"
           inkscape:rounded="0"
           inkscape:randomized="0"
           d="M 8.8922067,46.643425 1.7155848,42.5 8.8922071,38.356575 Z"
           transform="matrix(-0.63042129,0,0,0.63042129,40.135485,1020.4301)"
           inkscape:transform-center-x="-0.75404835"
           inkscape:transform-center-y="-3.7761139e-05" />
      </g>
      <g
         transform="matrix(0.7495215,0,0,0.7495215,6.2989664,262.30684)"
         id="g883">
        <path
           sodipodi:type="star"
           style="opacity:0.57999998;fill:#ffffff;fill-opacity:1;stroke:none"
           id="path873"
           sodipodi:sides="3"
           sodipodi:cx="6.4999995"
           sodipodi:cy="42.5"
           sodipodi:r1="4.7844148"
           sodipodi:r2="2.3922074"
           sodipodi:arg1="1.0471976"
           sodipodi:arg2="2.0943951"
           inkscape:flatsided="true"
           inkscape:rounded="0"
           inkscape:randomized="0"
           d="M 8.8922067,46.643425 1.7155848,42.5 8.8922071,38.356575 Z"
           transform="matrix(0.63042128,0,0,0.63042128,2.5731092,1020.4301)"
           inkscape:transform-center-x="0.75404919"
           inkscape:transform-center-y="-3.8186139e-05" />
        <path
           inkscape:transform-center-x="0.75404916"
           transform="matrix(0.63042128,0,0,0.63042128,7.0974047,1020.4301)"
           d="M 8.8922067,46.643425 1.7155848,42.5 8.8922071,38.356575 Z"
           inkscape:randomized="0"
           inkscape:rounded="0"
           inkscape:flatsided="true"
           sodipodi:arg2="2.0943951"
           sodipodi:arg1="1.0471976"
           sodipodi:r2="2.3922074"
           sodipodi:r1="4.7844148"
           sodipodi:cy="42.5"
           sodipodi:cx="6.4999995"
           sodipodi:sides="3"
           id="path875"
           style="opacity:0.57999998;fill:#ffffff;fill-opacity:1;stroke:none"
           sodipodi:type="star"
           inkscape:transform-center-y="-3.8186139e-05" />
      </g>
      <g
         transform="translate(2.8125001,0)"
         id="g911">
        <rect
           style="opacity:0.57999998;fill:#ffffff;fill-opacity:1;stroke:none"
           id="rect907"
           width="2.4999998"
           height="6.25"
           x="18.5"
           y="1044.4872"
           ry="0" />
        <rect
           ry="0"
           y="1044.4872"
           x="21.375"
           height="6.25"
           width="2.4999998"
           id="rect909"
           style="opacity:0.57999998;fill:#ffffff;fill-opacity:1;stroke:none" />
      </g>
    </g>
    <path
       id="path6361"
       d="m 1.7500006,1012.5497 0,-0.5625 c 0,-3.2445 2.599225,-5.875 5.84375,-5.875 l 32.8124994,0 c 3.244525,0 5.843749,2.6305 5.843749,5.875 l 0,0.5625 c 0,-3.2445 -2.599224,-5.875 -5.843749,-5.875 l -32.8124994,0 C 4.3492256,1006.6747 1.7500006,1009.3052 1.7500006,1012.5497 Z"
       style="color:#000000;fill:#ffffff;fill-opacity:1;fill-rule:nonzero;stroke:none;stroke-width:0.2;marker:none;visibility:visible;display:inline;overflow:visible;enable-background:accumulate"
       inkscape:connector-curvature="0" />
    <path
       inkscape:connector-curvature="0"
       style="color:#000000;fill:#000000;fill-opacity:1;fill-rule:nonzero;stroke:none;stroke-width:0.2;marker:none;visibility:visible;display:inline;overflow:visible;enable-background:accumulate"
       d="m 1.7500012,1044.1747 0,0.5625 c 0,3.2445 2.599225,5.875 5.84375,5.875 l 32.8124998,0 c 3.244525,0 5.843749,-2.6305 5.843749,-5.875 l 0,-0.5625 c 0,3.2445 -2.599224,5.875 -5.843749,5.875 l -32.8124998,0 C 4.3492262,1050.0497 1.7500012,1047.4192 1.7500012,1044.1747 Z"
       id="path6388" />
  </g>
</svg>
