<?xml version="1.0" encoding="UTF-8" standalone="no"?>
<!-- Created with Inkscape (http://www.inkscape.org/) -->

<svg
   xmlns:dc="http://purl.org/dc/elements/1.1/"
   xmlns:cc="http://creativecommons.org/ns#"
   xmlns:rdf="http://www.w3.org/1999/02/22-rdf-syntax-ns#"
   xmlns:svg="http://www.w3.org/2000/svg"
   xmlns="http://www.w3.org/2000/svg"
   xmlns:xlink="http://www.w3.org/1999/xlink"
   xmlns:sodipodi="http://sodipodi.sourceforge.net/DTD/sodipodi-0.dtd"
   xmlns:inkscape="http://www.inkscape.org/namespaces/inkscape"
   width="48"
   height="48"
   id="svg3066"
   version="1.1"
   inkscape:version="0.48+devel r12126"
   sodipodi:docname="gconf-editor.svg">
  <defs
     id="defs3068">
    <linearGradient
       inkscape:collect="always"
       id="linearGradient859">
      <stop
         style="stop-color:#f9f9f9;stop-opacity:1"
         offset="0"
         id="stop861" />
      <stop
         style="stop-color:#ffffff;stop-opacity:1"
         offset="1"
         id="stop863" />
    </linearGradient>
    <linearGradient
       inkscape:collect="always"
       id="linearGradient4049">
      <stop
         style="stop-color:#c0c0c0;stop-opacity:1"
         offset="0"
         id="stop4051" />
      <stop
         style="stop-color:#d1d1d1;stop-opacity:1"
         offset="1"
         id="stop4053" />
    </linearGradient>
    <linearGradient
       inkscape:collect="always"
       id="linearGradient4041">
      <stop
         style="stop-color:#a1a1a1;stop-opacity:1"
         offset="0"
         id="stop4043" />
      <stop
         style="stop-color:#ffffff;stop-opacity:1"
         offset="1"
         id="stop4045" />
    </linearGradient>
    <linearGradient
       id="linearGradient848">
      <stop
         id="stop850"
         offset="0"
         style="stop-color:#00ccff;stop-opacity:1" />
      <stop
         id="stop852"
         offset="1"
         style="stop-color:#0095bb;stop-opacity:1" />
    </linearGradient>
    <linearGradient
       inkscape:collect="always"
       xlink:href="#linearGradient848"
       id="linearGradient849"
       x1="23.726332"
       y1="1034.2006"
       x2="23.726332"
       y2="1021.2469"
       gradientUnits="userSpaceOnUse" />
    <linearGradient
       inkscape:collect="always"
       xlink:href="#linearGradient4041"
       id="linearGradient4047"
       x1="-27.075031"
       y1="10.773723"
       x2="-27.075031"
       y2="19.810371"
       gradientUnits="userSpaceOnUse" />
    <linearGradient
       inkscape:collect="always"
       xlink:href="#linearGradient4049"
       id="linearGradient4055"
       x1="-27.285458"
       y1="20.134001"
       x2="-27.285458"
       y2="10.974344"
       gradientUnits="userSpaceOnUse" />
    <linearGradient
       inkscape:collect="always"
       xlink:href="#linearGradient859"
       id="linearGradient865"
       x1="24.630295"
       y1="1050.9026"
       x2="24.630295"
       y2="1006.2032"
       gradientUnits="userSpaceOnUse" />
  </defs>
  <sodipodi:namedview
     id="base"
     pagecolor="#ffffff"
     bordercolor="#666666"
     borderopacity="1.0"
     inkscape:pageopacity="0.0"
     inkscape:pageshadow="2"
     inkscape:zoom="5.4810548"
     inkscape:cx="18.426838"
     inkscape:cy="33.970886"
     inkscape:document-units="px"
     inkscape:current-layer="layer1"
     showgrid="false"
     inkscape:window-width="1366"
     inkscape:window-height="717"
     inkscape:window-x="0"
     inkscape:window-y="28"
     inkscape:window-maximized="1" />
  <metadata
     id="metadata3071">
    <rdf:RDF>
      <cc:Work
         rdf:about="">
        <dc:format>image/svg+xml</dc:format>
        <dc:type
           rdf:resource="http://purl.org/dc/dcmitype/StillImage" />
        <dc:title />
      </cc:Work>
    </rdf:RDF>
  </metadata>
  <g
     inkscape:label="Capa 1"
     inkscape:groupmode="layer"
     id="layer1"
     transform="translate(0,-1004.3622)">
    <rect
       style="color:#000000;fill:#333333;fill-opacity:1;fill-rule:nonzero;stroke:none;stroke-width:0.2;marker:none;visibility:visible;display:inline;overflow:visible;enable-background:accumulate"
       id="rect6294"
       width="45.5"
       height="45.5"
       x="1.25"
       y="1005.6122"
       ry="6.3565426" />
    <rect
       ry="5.8565426"
       y="1006.1122"
       x="1.75"
       height="44.5"
       width="44.5"
       id="rect6296"
       style="color:#000000;fill:url(#linearGradient865);fill-opacity:1;fill-rule:nonzero;stroke:none;stroke-width:0.2;marker:none;visibility:visible;display:inline;overflow:visible;enable-background:accumulate" />
    <path
       id="path6361"
       d="m 1.7500024,1012.5497 0,-0.5625 c 0,-3.2445 2.5992,-5.875 5.8438,-5.875 l 32.8125006,0 c 3.2445,0 5.8437,2.6305 5.8437,5.875 l 0,0.5625 c 0,-3.2445 -2.5992,-5.875 -5.8437,-5.875 l -32.8125006,0 C 4.3492024,1006.6747 1.7500024,1009.3052 1.7500024,1012.5497 Z"
       style="color:#000000;fill:#ffffff;fill-opacity:1;fill-rule:nonzero;stroke:none;stroke-width:0.2;marker:none;visibility:visible;display:inline;overflow:visible;enable-background:accumulate"
       inkscape:connector-curvature="0" />
    <path
       inkscape:connector-curvature="0"
       style="color:#000000;fill:#000000;fill-opacity:1;fill-rule:nonzero;stroke:none;stroke-width:0.2;marker:none;visibility:visible;display:inline;overflow:visible;enable-background:accumulate"
       d="m 1.7500024,1044.1747 0,0.5625 c 0,3.2445 2.5992,5.875 5.8438,5.875 l 32.8125006,0 c 3.2445,0 5.8437,-2.6305 5.8437,-5.875 l 0,-0.5625 c 0,3.2445 -2.5992,5.875 -5.8437,5.875 l -32.8125006,0 C 4.3492024,1050.0497 1.7500024,1047.4192 1.7500024,1044.1747 Z"
       id="path6388" />
    <g
       id="g4123">
      <g
         transform="translate(-1.1032529,-1.1985552e-4)"
         id="g4085">
        <g
           id="g4079"
           transform="matrix(0.82795699,0,0,0.82795699,4.1290323,176.97699)">
          <path
             inkscape:connector-curvature="0"
             id="rect856"
             d="m 6.5625,1029.157 0,0.75 c 0,3.1443 2.5432532,5.6563 5.6875,5.6563 l 23.5,0 c 3.144247,0 5.6875,-2.512 5.6875,-5.6563 l 0,-0.75 c 0,3.1443 -2.543253,5.6875 -5.6875,5.6875 l -23.5,0 C 9.1057532,1034.8445 6.5625,1032.3013 6.5625,1029.157 Z"
             style="color:#000000;fill:#ffffff;fill-opacity:0.93248943;fill-rule:nonzero;stroke:none;stroke-width:0.40000001;marker:none;visibility:visible;display:inline;overflow:visible;enable-background:accumulate" />
          <rect
             ry="5.6755357"
             y="1021.7942"
             x="6.5763474"
             height="13.136158"
             width="34.847305"
             id="rect840"
             style="color:#000000;fill:url(#linearGradient849);fill-opacity:1;fill-rule:nonzero;stroke:none;stroke-width:0.40000001;marker:none;visibility:visible;display:inline;overflow:visible;enable-background:accumulate" />
          <path
             id="rect851"
             transform="translate(0,1004.3622)"
             d="m 12.25,17.4375 c -3.1442468,0 -5.6875,2.512003 -5.6875,5.65625 l 0,1.28125 c 0,-3.144247 2.5432532,-5.65625 5.6875,-5.65625 l 23.5,0 c 3.144247,0 5.6875,2.512003 5.6875,5.65625 l 0,-1.28125 c 0,-3.144247 -2.543253,-5.65625 -5.6875,-5.65625 L 12.25,17.4375 Z"
             style="color:#000000;fill:#000000;fill-opacity:0.17299577;fill-rule:nonzero;stroke:none;stroke-width:0.40000001;marker:none;visibility:visible;display:inline;overflow:visible;enable-background:accumulate"
             inkscape:connector-curvature="0" />
          <path
             style="color:#000000;fill:#ffffff;fill-opacity:0.27004221;fill-rule:nonzero;stroke:none;stroke-width:0.40000001;marker:none;visibility:visible;display:inline;overflow:visible;enable-background:accumulate"
             d="m 6.5625,1028.524 0,0.75 c 0,3.1443 2.5432532,5.6563 5.6875,5.6563 l 23.5,0 c 3.144247,0 5.6875,-2.512 5.6875,-5.6563 l 0,-0.75 c 0,3.1443 -2.543253,5.6875 -5.6875,5.6875 l -23.5,0 C 9.1057532,1034.2115 6.5625,1031.6683 6.5625,1028.524 Z"
             id="path4067"
             inkscape:connector-curvature="0" />
        </g>
        <g
           id="g4069"
           transform="matrix(1.4001094,0,0,1.4001094,72.504656,-399.68568)">
          <path
             sodipodi:type="arc"
             style="color:#000000;fill:#000000;fill-opacity:0.22362868;fill-rule:nonzero;stroke:none;stroke-width:0.40000001;marker:none;visibility:visible;display:inline;overflow:visible;enable-background:accumulate"
             id="path4032"
             sodipodi:cx="-27.640665"
             sodipodi:cy="15.433276"
             sodipodi:rx="4.834836"
             sodipodi:ry="4.834836"
             d="m -22.805829,15.433276 c 0,2.670206 -2.16463,4.834836 -4.834836,4.834836 -2.670206,0 -4.834836,-2.16463 -4.834836,-4.834836 0,-2.670206 2.16463,-4.834836 4.834836,-4.834836 C -24.970459,10.59844 -22.805829,12.76307 -22.805829,15.433276 Z"
             transform="matrix(1.0103416,0,0,1.0103416,0.28584867,1004.4755)" />
          <path
             sodipodi:type="arc"
             style="color:#000000;fill:#000000;fill-opacity:0.34599155;fill-rule:nonzero;stroke:none;stroke-width:0.40000001;marker:none;visibility:visible;display:inline;overflow:visible;enable-background:accumulate"
             id="path4057"
             sodipodi:cx="-27.640665"
             sodipodi:cy="15.433276"
             sodipodi:rx="4.834836"
             sodipodi:ry="4.834836"
             d="m -22.805829,15.433276 c 0,2.670206 -2.16463,4.834836 -4.834836,4.834836 -2.670206,0 -4.834836,-2.16463 -4.834836,-4.834836 0,-2.670206 2.16463,-4.834836 4.834836,-4.834836 C -24.970459,10.59844 -22.805829,12.76307 -22.805829,15.433276 Z"
             transform="matrix(0.98965839,0,0,0.98965839,-0.28584898,1004.5218)" />
          <path
             transform="matrix(0.93795034,0,0,0.93795034,-1.7150939,1005.3198)"
             d="m -22.805829,15.433276 c 0,2.670206 -2.16463,4.834836 -4.834836,4.834836 -2.670206,0 -4.834836,-2.16463 -4.834836,-4.834836 0,-2.670206 2.16463,-4.834836 4.834836,-4.834836 C -24.970459,10.59844 -22.805829,12.76307 -22.805829,15.433276 Z"
             sodipodi:ry="4.834836"
             sodipodi:rx="4.834836"
             sodipodi:cy="15.433276"
             sodipodi:cx="-27.640665"
             id="path861"
             style="color:#000000;fill:url(#linearGradient4055);fill-opacity:1;fill-rule:nonzero;stroke:none;stroke-width:0.40000001;marker:none;visibility:visible;display:inline;overflow:visible;enable-background:accumulate"
             sodipodi:type="arc" />
          <g
             transform="translate(-4.0085527e-5,0)"
             id="g4061">
            <path
               inkscape:connector-curvature="0"
               style="color:#000000;fill:#ffffff;fill-opacity:0.3628692;fill-rule:nonzero;stroke:none;stroke-width:0.40000001;marker:none;visibility:visible;display:inline;overflow:visible;enable-background:accumulate"
               d="m -27.65625,10.59375 c -2.670206,0 -4.8125,2.173544 -4.8125,4.84375 0,0.146108 0.01856,0.294691 0.03125,0.4375 l 9.59375,0 c 0.01269,-0.142809 0.03125,-0.291392 0.03125,-0.4375 C -22.8125,12.767294 -24.986044,10.59375 -27.65625,10.59375 Z"
               id="path4020"
               transform="translate(0,1004.3622)" />
            <path
               style="color:#000000;fill:#000000;fill-opacity:0.1814346;fill-rule:nonzero;stroke:none;stroke-width:0.40000001;marker:none;visibility:visible;display:inline;overflow:visible;enable-background:accumulate"
               d="m -31.957912,1019.7662 c -0.0037,0.074 0,0.1492 0,0.2235 0,2.3877 1.915611,4.3313 4.303275,4.3313 2.387663,0 4.331218,-1.9436 4.331218,-4.3313 0,-0.074 0.0037,-0.1501 0,-0.2235 -0.101498,2.2976 -2.008588,4.1356 -4.331218,4.1356 C -29.977268,1023.9018 -31.856414,1022.0638 -31.957912,1019.7662 Z"
               id="path4027"
               inkscape:connector-curvature="0" />
            <path
               transform="matrix(0.51394423,0,0,0.51394423,-13.434905,1011.8636)"
               d="m -22.805829,15.433276 c 0,2.670206 -2.16463,4.834836 -4.834836,4.834836 -2.670206,0 -4.834836,-2.16463 -4.834836,-4.834836 0,-2.670206 2.16463,-4.834836 4.834836,-4.834836 C -24.970459,10.59844 -22.805829,12.76307 -22.805829,15.433276 Z"
               sodipodi:ry="4.834836"
               sodipodi:rx="4.834836"
               sodipodi:cy="15.433276"
               sodipodi:cx="-27.640665"
               id="path4034"
               style="color:#000000;fill:url(#linearGradient4047);fill-opacity:1;fill-rule:nonzero;stroke:none;stroke-width:0.40000001;marker:none;visibility:visible;display:inline;overflow:visible;enable-background:accumulate"
               sodipodi:type="arc" />
            <path
               inkscape:connector-curvature="0"
               style="color:#000000;fill:#000000;fill-opacity:0.21097047;fill-rule:nonzero;stroke:none;stroke-width:0.40000001;marker:none;visibility:visible;display:inline;overflow:visible;enable-background:accumulate"
               d="m -27.65625,12.9375 c -1.372337,0 -2.46875,1.127663 -2.46875,2.5 0,0.06466 0.0264,0.124085 0.03125,0.1875 0.09809,-1.282544 1.129821,-2.28125 2.4375,-2.28125 1.307679,0 2.370661,0.998706 2.46875,2.28125 0.0049,-0.06342 0.03125,-0.122842 0.03125,-0.1875 C -25.15625,14.065163 -26.283913,12.9375 -27.65625,12.9375 Z"
               id="path4036"
               transform="translate(0,1004.3622)" />
          </g>
        </g>
      </g>
      <path
         id="path4113"
         transform="translate(0,1004.3622)"
         d="M 17.46875 22.65625 C 17.246117 22.65625 17.058577 22.7283 16.90625 22.875 C 16.707051 23.0654 16.59375 23.3516 16.59375 23.75 C 16.59375 23.800364 16.621358 23.828189 16.625 23.875 C 16.649642 23.551516 16.732233 23.291331 16.90625 23.125 C 17.058577 22.978533 17.246117 22.90625 17.46875 22.90625 C 17.694313 22.90625 17.881851 22.978533 18.03125 23.125 C 18.200793 23.291966 18.293291 23.549635 18.3125 23.875 C 18.315124 23.829335 18.3125 23.799034 18.3125 23.75 C 18.3125 23.3516 18.224589 23.0654 18.03125 22.875 C 17.881851 22.7282 17.694313 22.65625 17.46875 22.65625 z M 20.09375 23.0625 L 20.09375 23.3125 L 21.375 25.5625 L 22.03125 25.5625 L 22.03125 25.3125 L 21.375 25.3125 L 20.09375 23.0625 z M 15.96875 23.875 C 15.966446 23.91904 15.9375 23.954225 15.9375 24 C 15.9375 24.4482 16.047873 24.815417 16.25 25.09375 C 16.408187 25.310483 16.608426 25.465833 16.875 25.5625 C 17.059551 25.6299 17.266623 25.65625 17.46875 25.65625 C 17.670877 25.65625 17.846699 25.6299 18.03125 25.5625 C 18.297824 25.465833 18.532243 25.310483 18.6875 25.09375 C 18.886698 24.81835 18.96875 24.451133 18.96875 24 C 18.96875 23.955333 18.970393 23.918015 18.96875 23.875 C 18.953103 24.263409 18.86596 24.597022 18.6875 24.84375 C 18.532243 25.06055 18.297824 25.2155 18.03125 25.3125 C 17.846699 25.3805 17.670877 25.40625 17.46875 25.40625 C 17.266623 25.40625 17.059551 25.3795 16.875 25.3125 C 16.608426 25.2158 16.408187 25.06055 16.25 24.84375 C 16.069451 24.59516 15.989611 24.259823 15.96875 23.875 z M 19.46875 25.3125 L 19.46875 25.5625 L 20.09375 25.5625 L 20.09375 25.3125 L 19.46875 25.3125 z "
         style="font-size:4.39407444px;font-style:normal;font-variant:normal;font-weight:bold;font-stretch:condensed;line-height:125%;letter-spacing:0px;word-spacing:0px;fill:#000000;fill-opacity:0.49789029;stroke:none;font-family:Helvetica;-inkscape-font-specification:Helvetica" />
      <path
         inkscape:connector-curvature="0"
         id="path4106"
         d="m 17.46875,1026.5786 c -0.202127,0 -0.409199,0.026 -0.59375,0.094 -0.272433,0.1 -0.469743,0.2548 -0.625,0.4687 -0.199198,0.2753 -0.3125,0.6426 -0.3125,1.0938 0,0.4482 0.110373,0.8154 0.3125,1.0937 0.158187,0.2167 0.358426,0.3721 0.625,0.4688 0.184551,0.067 0.391623,0.094 0.59375,0.094 0.202127,0 0.377949,-0.026 0.5625,-0.094 0.266574,-0.097 0.500993,-0.2521 0.65625,-0.4688 0.199198,-0.2754 0.28125,-0.6426 0.28125,-1.0937 0,-0.4512 -0.08205,-0.8185 -0.28125,-1.0938 -0.155257,-0.2139 -0.386747,-0.3691 -0.65625,-0.4687 C 17.846699,1026.605 17.667948,1026.5786 17.46875,1026.5786 z m 2,0.094 0,3.125 0.625,0 0,-2.25 1.28125,2.25 0.65625,0 0,-3.125 -0.59375,0 -0.03125,2.1875 -1.25,-2.1875 L 19.46875,1026.6724 z m -2,0.4687 c 0.225563,0 0.413101,0.072 0.5625,0.2188 0.193339,0.1904 0.28125,0.4766 0.28125,0.875 0,0.3984 -0.08498,0.6846 -0.28125,0.875 -0.149398,0.1464 -0.339867,0.2187 -0.5625,0.2187 -0.225563,0 -0.410172,-0.072 -0.5625,-0.2187 -0.196269,-0.1904 -0.3125,-0.4766 -0.3125,-0.875 0,-0.3984 0.113301,-0.6846 0.3125,-0.875 C 17.058577,1027.2134 17.246117,1027.1411 17.46875,1027.1411 Z"
         style="font-size:4.39407444px;font-style:normal;font-variant:normal;font-weight:bold;font-stretch:condensed;line-height:125%;letter-spacing:0px;word-spacing:0px;fill:#ffffff;fill-opacity:1;stroke:none;font-family:Helvetica;-inkscape-font-specification:Helvetica" />
      <path
         inkscape:connector-curvature="0"
         id="path4118"
         d="m 17.46875,1026.5003 c -0.202127,0 -0.409199,0.026 -0.59375,0.094 -0.272433,0.1 -0.469743,0.2548 -0.625,0.4687 -0.10934,0.1511 -0.165702,0.3261 -0.21875,0.5313 0.05323,-0.1827 0.119151,-0.3311 0.21875,-0.4688 0.155257,-0.2139 0.352567,-0.3687 0.625,-0.4687 0.184551,-0.068 0.391623,-0.094 0.59375,-0.094 0.199198,0 0.377949,0.026 0.5625,0.094 0.269503,0.1 0.500993,0.2548 0.65625,0.4687 0.0996,0.1377 0.173337,0.2861 0.21875,0.4688 -0.04454,-0.2055 -0.109289,-0.38 -0.21875,-0.5313 -0.155257,-0.2139 -0.386747,-0.3691 -0.65625,-0.4687 C 17.846699,1026.5265 17.667948,1026.5003 17.46875,1026.5003 z m 2,0.094 0,0.062 0.6875,0 1.25,2.1875 0,-0.062 -1.25,-2.1875 L 19.46875,1026.5941 z m 1.96875,0 0,0.062 0.59375,0 0,-0.062 L 21.4375,1026.5941 z m -4.75,2.0625 c 0.05335,0.1697 0.108765,0.3308 0.21875,0.4375 0.152328,0.1467 0.336937,0.2187 0.5625,0.2187 0.222633,0 0.413102,-0.072 0.5625,-0.2187 0.110213,-0.1069 0.174063,-0.2673 0.21875,-0.4375 -0.04578,0.1451 -0.120615,0.2798 -0.21875,0.375 -0.149398,0.1464 -0.339867,0.2187 -0.5625,0.2187 -0.225563,0 -0.410172,-0.072 -0.5625,-0.2187 C 16.808115,1028.9364 16.741091,1028.8017 16.6875,1028.6566 Z"
         style="font-size:4.39407444px;font-style:normal;font-variant:normal;font-weight:bold;font-stretch:condensed;line-height:125%;letter-spacing:0px;word-spacing:0px;fill:#000000;fill-opacity:0.42616034;stroke:none;font-family:Helvetica;-inkscape-font-specification:Helvetica" />
    </g>
  </g>
</svg>
