<?xml version="1.0" encoding="UTF-8" standalone="no"?>
<!-- Created with Inkscape (http://www.inkscape.org/) -->

<svg
   xmlns:dc="http://purl.org/dc/elements/1.1/"
   xmlns:cc="http://creativecommons.org/ns#"
   xmlns:rdf="http://www.w3.org/1999/02/22-rdf-syntax-ns#"
   xmlns:svg="http://www.w3.org/2000/svg"
   xmlns="http://www.w3.org/2000/svg"
   xmlns:xlink="http://www.w3.org/1999/xlink"
   xmlns:sodipodi="http://sodipodi.sourceforge.net/DTD/sodipodi-0.dtd"
   xmlns:inkscape="http://www.inkscape.org/namespaces/inkscape"
   width="48"
   height="48"
   id="svg944"
   version="1.1"
   inkscape:version="0.48+devel r12114"
   sodipodi:docname="defcon.svg">
  <defs
     id="defs946">
    <linearGradient
       id="linearGradient850"
       inkscape:collect="always">
      <stop
         id="stop852"
         offset="0"
         style="stop-color:#aa0000;stop-opacity:1" />
      <stop
         id="stop854"
         offset="1"
         style="stop-color:#ff0000;stop-opacity:1" />
    </linearGradient>
    <linearGradient
       inkscape:collect="always"
       xlink:href="#linearGradient850"
       id="linearGradient1821-4"
       x1="23.157747"
       y1="6.5458651"
       x2="23.157747"
       y2="37.305012"
       gradientUnits="userSpaceOnUse" />
    <linearGradient
       inkscape:collect="always"
       xlink:href="#linearGradient1827-3"
       id="linearGradient1833-9"
       x1="25.957132"
       y1="14.554969"
       x2="25.328697"
       y2="26.978655"
       gradientUnits="userSpaceOnUse"
       gradientTransform="matrix(0.82311685,0,0,-0.82311685,1644.0306,413.79479)" />
    <linearGradient
       inkscape:collect="always"
       id="linearGradient1827-3">
      <stop
         style="stop-color:#ffba00;stop-opacity:1;"
         offset="0"
         id="stop1829-8" />
      <stop
         style="stop-color:#ff6500;stop-opacity:1"
         offset="1"
         id="stop1831-1" />
    </linearGradient>
    <radialGradient
       inkscape:collect="always"
       xlink:href="#linearGradient1827-3"
       id="radialGradient1847-9"
       cx="23.246136"
       cy="17.071569"
       fx="23.246136"
       fy="17.071569"
       r="16.528622"
       gradientUnits="userSpaceOnUse" />
    <linearGradient
       inkscape:collect="always"
       xlink:href="#linearGradient1827-3"
       id="linearGradient1871-2"
       gradientUnits="userSpaceOnUse"
       gradientTransform="matrix(-0.5820315,-0.5820315,-0.5820315,0.5820315,1697.6,385.11321)"
       x1="25.957132"
       y1="14.554969"
       x2="25.328697"
       y2="26.978655" />
    <linearGradient
       inkscape:collect="always"
       xlink:href="#linearGradient1827-3"
       id="linearGradient1875-1"
       gradientUnits="userSpaceOnUse"
       gradientTransform="matrix(-0.5820315,0.5820315,0.5820315,0.5820315,1660.7793,356.0853)"
       x1="25.957132"
       y1="14.554969"
       x2="25.328697"
       y2="26.978655" />
    <linearGradient
       inkscape:collect="always"
       xlink:href="#linearGradient850"
       id="linearGradient928"
       x1="1664.5564"
       y1="410.59714"
       x2="1664.5564"
       y2="366.09714"
       gradientUnits="userSpaceOnUse" />
  </defs>
  <sodipodi:namedview
     id="base"
     pagecolor="#ffffff"
     bordercolor="#666666"
     borderopacity="1.0"
     inkscape:pageopacity="0.0"
     inkscape:pageshadow="2"
     inkscape:zoom="2"
     inkscape:cx="8.0256301"
     inkscape:cy="11.739026"
     inkscape:document-units="px"
     inkscape:current-layer="layer1"
     showgrid="false"
     width="0px"
     height="0px"
     fit-margin-top="0"
     fit-margin-left="0"
     fit-margin-right="0"
     fit-margin-bottom="0"
     inkscape:window-width="1366"
     inkscape:window-height="718"
     inkscape:window-x="0"
     inkscape:window-y="28"
     inkscape:window-maximized="1">
    <inkscape:grid
       type="xygrid"
       id="grid1823"
       empspacing="5"
       visible="true"
       enabled="true"
       snapvisiblegridlinesonly="true" />
  </sodipodi:namedview>
  <metadata
     id="metadata949">
    <rdf:RDF>
      <cc:Work
         rdf:about="">
        <dc:format>image/svg+xml</dc:format>
        <dc:type
           rdf:resource="http://purl.org/dc/dcmitype/StillImage" />
        <dc:title />
      </cc:Work>
    </rdf:RDF>
  </metadata>
  <g
     inkscape:label="Capa 1"
     inkscape:groupmode="layer"
     id="layer1"
     transform="translate(-1640.5564,-364.34714)">
    <rect
       style="color:#000000;fill:#333333;fill-opacity:1;fill-rule:nonzero;stroke:none;stroke-width:0.2;marker:none;visibility:visible;display:inline;overflow:visible;enable-background:accumulate"
       id="rect6294"
       width="45.5"
       height="45.5"
       x="1641.8064"
       y="365.59714"
       ry="6.3565426" />
    <rect
       ry="5.8565426"
       y="366.09714"
       x="1642.3064"
       height="44.5"
       width="44.5"
       id="rect6296"
       style="color:#000000;fill:url(#linearGradient928);fill-opacity:1;fill-rule:nonzero;stroke:none;stroke-width:0.2;marker:none;visibility:visible;display:inline;overflow:visible;enable-background:accumulate" />
    <path
       id="path6361"
       d="m 1642.3064,372.53466 0,-0.5625 c 0,-3.2445 2.5992,-5.875 5.8438,-5.875 l 32.8125,0 c 3.2445,0 5.8437,2.6305 5.8437,5.875 l 0,0.5625 c 0,-3.2445 -2.5992,-5.875 -5.8437,-5.875 l -32.8125,0 C 1644.9056,366.65966 1642.3064,369.29016 1642.3064,372.53466 Z"
       style="color:#000000;fill:#ffffff;fill-opacity:1;fill-rule:nonzero;stroke:none;stroke-width:0.2;marker:none;visibility:visible;display:inline;overflow:visible;enable-background:accumulate"
       inkscape:connector-curvature="0" />
    <path
       inkscape:connector-curvature="0"
       style="color:#000000;fill:#000000;fill-opacity:1;fill-rule:nonzero;stroke:none;stroke-width:0.2;marker:none;visibility:visible;display:inline;overflow:visible;enable-background:accumulate"
       d="m 1642.3064,404.15966 0,0.5625 c 0,3.2445 2.5992,5.875 5.8438,5.875 l 32.8125,0 c 3.2445,0 5.8437,-2.6305 5.8437,-5.875 l 0,-0.5625 c 0,3.2445 -2.5992,5.875 -5.8437,5.875 l -32.8125,0 C 1644.9056,410.03466 1642.3064,407.40416 1642.3064,404.15966 Z"
       id="path6388" />
    <path
       sodipodi:type="arc"
       style="fill:url(#linearGradient1821-4);fill-opacity:1;stroke:none"
       id="path1813-2"
       sodipodi:cx="23.246136"
       sodipodi:cy="21.748661"
       sodipodi:rx="16.528622"
       sodipodi:ry="16.528622"
       d="m 39.774757,21.748661 a 16.528622,16.528622 0 1 1 -33.057243,0 A 16.528622,16.528622 0 1 1 39.774757,21.748661 Z"
       transform="matrix(0.90751669,0,0,0.90751669,1643.4601,368.60987)" />
    <path
       style="fill:url(#linearGradient1833-9);fill-opacity:1;stroke:none"
       d="m 1666.6084,390.74752 c -0.9461,1.02208 -2.9383,0.82313 -4.0529,0 l -6.1781,8.23117 C 1660.4929,403.09428 1668.7241,403.09428 1672.7355,398.97869 Z"
       id="path1825-0"
       inkscape:connector-curvature="0"
       sodipodi:nodetypes="ccccc" />
    <path
       transform="matrix(0.137806,0,0,0.137806,1661.353,385.35005)"
       d="m 39.774757,21.748661 a 16.528622,16.528622 0 1 1 -33.057243,0 A 16.528622,16.528622 0 1 1 39.774757,21.748661 Z"
       sodipodi:ry="16.528622"
       sodipodi:rx="16.528622"
       sodipodi:cy="21.748661"
       sodipodi:cx="23.246136"
       id="path1843-5"
       style="fill:url(#radialGradient1847-9);fill-opacity:1;stroke:none"
       sodipodi:type="arc" />
    <path
       sodipodi:nodetypes="ccccc"
       inkscape:connector-curvature="0"
       id="path1849-7"
       d="m 1665.3383,385.44517 c 1.3916,-0.0537 2.6597,1.49567 2.8657,2.86584 l 10.189,-1.45171 C 1678.393,381.03902 1672.5727,375.21866 1666.826,375.29236 Z"
       style="fill:url(#linearGradient1871-2);fill-opacity:1;stroke:none"
       inkscape:transform-center-y="-6.4924263"
       inkscape:transform-center-x="-6.474095" />
    <path
       inkscape:transform-center-x="6.4925004"
       inkscape:transform-center-y="-6.474065"
       style="fill:url(#linearGradient1875-1);fill-opacity:1;stroke:none"
       d="m 1661.1114,388.34707 c -0.053,-1.39166 1.4956,-2.65972 2.8657,-2.86578 l -1.4517,-10.18896 C 1656.7052,375.29233 1650.8847,381.11266 1650.9584,386.8593 Z"
       id="path1873-8"
       inkscape:connector-curvature="0"
       sodipodi:nodetypes="ccccc" />
    <path
       inkscape:connector-curvature="0"
       style="fill:#000000;fill-opacity:0.49302326;stroke:none"
       d="m 1662.535,375.28073 c -5.8202,0 -11.646,5.82563 -11.5724,11.57227 l 0.029,0 c 0.3073,-5.55118 5.9193,-10.98633 11.543,-10.98633 l 1.3476,9.63867 c 0.029,-0.006 0.058,-0.0249 0.088,-0.0292 L 1662.535,375.28073 z m 4.2773,0 -1.4648,10.16602 c 0.028,-9.4e-4 0.059,-2.3e-4 0.088,0 l 1.377,-9.58008 c 5.5524,-0.0713 11.1692,5.36879 11.543,10.98633 l 0.029,0 C 1678.3845,381.03272 1672.559,375.20704 1666.8123,375.28073 z m -4.2481,15.46875 -6.1816,8.23243 c 0.082,0.0825 0.1779,0.15516 0.2636,0.23437 l 5.918,-7.88086 c 1.1146,0.82313 3.0969,1.02207 4.043,0 l 5.8594,7.88086 c 0.085,-0.0807 0.1816,-0.15021 0.2637,-0.23437 l -6.1231,-8.23243 C 1665.6611,391.77156 1663.6788,391.57261 1662.5642,390.74948 Z"
       id="path856" />
  </g>
</svg>
