<?xml version="1.0" encoding="UTF-8" standalone="no"?>
<!-- Created with Inkscape (http://www.inkscape.org/) -->

<svg
   xmlns:dc="http://purl.org/dc/elements/1.1/"
   xmlns:cc="http://creativecommons.org/ns#"
   xmlns:rdf="http://www.w3.org/1999/02/22-rdf-syntax-ns#"
   xmlns:svg="http://www.w3.org/2000/svg"
   xmlns="http://www.w3.org/2000/svg"
   xmlns:xlink="http://www.w3.org/1999/xlink"
   xmlns:sodipodi="http://sodipodi.sourceforge.net/DTD/sodipodi-0.dtd"
   xmlns:inkscape="http://www.inkscape.org/namespaces/inkscape"
   width="48"
   height="48"
   id="svg2"
   version="1.1"
   inkscape:version="0.48+devel r12114"
   sodipodi:docname="deluge.svg">
  <defs
     id="defs4">
    <linearGradient
       inkscape:collect="always"
       id="linearGradient880">
      <stop
         style="stop-color:#727272;stop-opacity:1"
         offset="0"
         id="stop882" />
      <stop
         style="stop-color:#f9f9f9;stop-opacity:1"
         offset="1"
         id="stop884" />
    </linearGradient>
    <radialGradient
       inkscape:collect="always"
       xlink:href="#linearGradient929"
       id="radialGradient937"
       cx="23.999987"
       cy="1035.0634"
       fx="23.999987"
       fy="1035.0634"
       r="11.394915"
       gradientTransform="matrix(1.6362487,0,0,1.3825182,-64.195474,-394.63052)"
       gradientUnits="userSpaceOnUse" />
    <linearGradient
       inkscape:collect="always"
       id="linearGradient929">
      <stop
         style="stop-color:#87e6f7;stop-opacity:1"
         offset="0"
         id="stop931" />
      <stop
         style="stop-color:#2866b5;stop-opacity:1"
         offset="1"
         id="stop933" />
    </linearGradient>
    <linearGradient
       inkscape:collect="always"
       xlink:href="#linearGradient943"
       id="linearGradient949"
       x1="26.375"
       y1="1044.3622"
       x2="26.375"
       y2="1016.2372"
       gradientUnits="userSpaceOnUse"
       gradientTransform="matrix(0.9927344,0,0,0.86896632,-48.751137,136.81386)" />
    <linearGradient
       inkscape:collect="always"
       id="linearGradient943">
      <stop
         style="stop-color:#ffffff;stop-opacity:1;"
         offset="0"
         id="stop945" />
      <stop
         style="stop-color:#ffffff;stop-opacity:0;"
         offset="1"
         id="stop947" />
    </linearGradient>
    <linearGradient
       inkscape:collect="always"
       xlink:href="#linearGradient943"
       id="linearGradient962"
       gradientUnits="userSpaceOnUse"
       gradientTransform="matrix(1.0877845,0,0,1.0727804,-51.03234,-75.406027)"
       x1="26.375"
       y1="1044.3622"
       x2="26.375"
       y2="1016.2372" />
    <linearGradient
       inkscape:collect="always"
       xlink:href="#linearGradient943"
       id="linearGradient953"
       gradientUnits="userSpaceOnUse"
       gradientTransform="matrix(0.9927344,0,0,0.86896632,-48.751137,132.43886)"
       x1="26.375"
       y1="1044.3622"
       x2="26.375"
       y2="1016.2372" />
    <linearGradient
       inkscape:collect="always"
       xlink:href="#linearGradient943"
       id="linearGradient1062"
       gradientUnits="userSpaceOnUse"
       gradientTransform="translate(-48.848283,-1.4629274)"
       x1="24.75"
       y1="1037.9247"
       x2="24.75"
       y2="1016.1122" />
    <linearGradient
       inkscape:collect="always"
       xlink:href="#linearGradient880"
       id="linearGradient967"
       x1="24.176777"
       y1="1050.4354"
       x2="24.176777"
       y2="1005.9116"
       gradientUnits="userSpaceOnUse" />
  </defs>
  <sodipodi:namedview
     id="base"
     pagecolor="#ffffff"
     bordercolor="#666666"
     borderopacity="1.0"
     inkscape:pageopacity="0.0"
     inkscape:pageshadow="2"
     inkscape:zoom="2.8284273"
     inkscape:cx="29.149105"
     inkscape:cy="23.033606"
     inkscape:document-units="px"
     inkscape:current-layer="layer1"
     showgrid="false"
     inkscape:window-width="1366"
     inkscape:window-height="718"
     inkscape:window-x="0"
     inkscape:window-y="28"
     inkscape:window-maximized="1"
     showguides="false"
     inkscape:guide-bbox="true">
    <inkscape:grid
       type="xygrid"
       id="grid3850" />
  </sodipodi:namedview>
  <metadata
     id="metadata7">
    <rdf:RDF>
      <cc:Work
         rdf:about="">
        <dc:format>image/svg+xml</dc:format>
        <dc:type
           rdf:resource="http://purl.org/dc/dcmitype/StillImage" />
        <dc:title />
      </cc:Work>
    </rdf:RDF>
  </metadata>
  <g
     inkscape:label="Capa 1"
     inkscape:groupmode="layer"
     id="layer1"
     transform="translate(0,-1004.3622)">
    <rect
       style="color:#000000;fill:#333333;fill-opacity:1;fill-rule:nonzero;stroke:none;stroke-width:0.2;marker:none;visibility:visible;display:inline;overflow:visible;enable-background:accumulate"
       id="rect6294"
       width="45.5"
       height="45.5"
       x="1.25"
       y="1005.6122"
       ry="6.3565426" />
    <rect
       ry="5.8565426"
       y="1006.1122"
       x="1.75"
       height="44.5"
       width="44.5"
       id="rect6296"
       style="color:#000000;fill:url(#linearGradient967);fill-opacity:1;fill-rule:nonzero;stroke:none;stroke-width:0.2;marker:none;visibility:visible;display:inline;overflow:visible;enable-background:accumulate" />
    <path
       id="path6361"
       d="m 1.75,1012.5497 0,-0.5625 c 0,-3.2445 2.599225,-5.875 5.84375,-5.875 l 32.8125,0 c 3.244525,0 5.84375,2.6305 5.84375,5.875 l 0,0.5625 c 0,-3.2445 -2.599225,-5.875 -5.84375,-5.875 l -32.8125,0 C 4.349225,1006.6747 1.75,1009.3052 1.75,1012.5497 Z"
       style="color:#000000;fill:#ffffff;fill-opacity:1;fill-rule:nonzero;stroke:none;stroke-width:0.2;marker:none;visibility:visible;display:inline;overflow:visible;enable-background:accumulate"
       inkscape:connector-curvature="0" />
    <path
       inkscape:connector-curvature="0"
       style="color:#000000;fill:#000000;fill-opacity:1;fill-rule:nonzero;stroke:none;stroke-width:0.2;marker:none;visibility:visible;display:inline;overflow:visible;enable-background:accumulate"
       d="m 1.75,1044.1747 0,0.5625 c 0,3.2445 2.599225,5.875 5.84375,5.875 l 32.8125,0 c 3.244525,0 5.84375,-2.6305 5.84375,-5.875 l 0,-0.5625 c 0,3.2445 -2.599225,5.875 -5.84375,5.875 l -32.8125,0 C 4.349225,1050.0497 1.75,1047.4192 1.75,1044.1747 Z"
       id="path6388" />
    <g
       id="g969"
       transform="matrix(0.78361718,0,0,0.78361718,43.53206,222.90028)">
      <path
         inkscape:connector-curvature="0"
         style="fill:#000000;fill-opacity:0.77674417;fill-rule:nonzero;stroke:none"
         d="m -24.925515,1008.7348 c -0.241705,0.6285 -0.513787,1.2649 -0.791665,1.8729 -0.02336,0.053 -0.05969,0.097 -0.08334,0.1496 -0.256368,0.5541 -0.510395,1.0736 -0.791664,1.6112 -0.05835,0.1119 -0.107366,0.2264 -0.16667,0.3367 -0.254113,0.4751 -0.522064,0.961 -0.791664,1.4234 -0.09364,0.1606 -0.196437,0.328 -0.291668,0.4871 -2.411433,3.9495 -5.580354,8.0747 -8.083336,11.5369 -1.983261,2.6049 -3.123751,5.4163 -3.45833,8.1285 0,6.7357 6.466698,12.2111 14.458334,12.2111 7.991636,0 14.458332,-5.4754 14.458332,-12.2111 0,-4.2438 -3.46147,-8.6046 -7.458335,-14.1965 -1.265125,-1.7369 -2.486003,-3.5638 -3.583334,-5.2818 -0.595603,-0.9407 -1.177938,-1.9093 -1.749998,-2.9214 -0.178705,-0.3165 -0.366437,-0.6505 -0.541669,-0.9739 C -24.179305,1010.2068 -24.567254,1009.4716 -24.925515,1008.7348 Z"
         id="path895"
         sodipodi:nodetypes="ccccsccccssccccc" />
      <path
         inkscape:connector-curvature="0"
         id="path905"
         d="m -10.488013,1034.5188 c -0.178826,6.6049 -6.558549,11.9375 -14.4375,11.9375 -7.829283,0 -14.182089,-5.2655 -14.4375,-11.8125 -0.0072,0.053 -0.0247,0.1032 -0.03125,0.1563 0,6.7357 6.477114,12.2187 14.46875,12.2187 7.991636,0 14.46875,-5.483 14.46875,-12.2187 C -10.456763,1034.7044 -10.484524,1034.6147 -10.488013,1034.5188 Z"
         style="fill:#ffffff;fill-opacity:0.25116284;fill-rule:nonzero;stroke:none" />
      <path
         id="path910"
         d="m -24.925513,1008.7385 c -0.241705,0.6285 -0.503372,1.267 -0.78125,1.875 -0.02336,0.053 -0.0701,0.1037 -0.09375,0.1563 -0.256368,0.5541 -0.499981,1.0561 -0.78125,1.5937 -0.05835,0.1119 -0.128196,0.2335 -0.1875,0.3438 -0.254113,0.4751 -0.51165,0.9438 -0.78125,1.4062 -0.09364,0.1606 -0.186019,0.3409 -0.28125,0.5 -2.411433,3.9495 -5.590768,8.0691 -8.09375,11.5313 -1.983261,2.6049 -3.134171,5.4128 -3.46875,8.125 0,0.1682 0.02326,0.3334 0.03125,0.5 0.363543,-2.6533 1.500546,-5.3935 3.4375,-7.9375 2.502982,-3.4622 5.682317,-7.5818 8.09375,-11.5313 0.09523,-0.1591 0.18761,-0.3394 0.28125,-0.5 0.2696,-0.4624 0.527137,-0.9311 0.78125,-1.4062 0.0593,-0.1103 0.12915,-0.2319 0.1875,-0.3438 0.281269,-0.5376 0.524882,-1.0396 0.78125,-1.5937 0.02365,-0.053 0.07039,-0.1033 0.09375,-0.1563 0.277878,-0.608 0.539545,-1.2465 0.78125,-1.875 0.358261,0.7368 0.746217,1.4556 1.125,2.1563 0.175232,0.3234 0.352545,0.6835 0.53125,1 0.57206,1.0121 1.154397,1.9655 1.75,2.9062 1.097331,1.718 2.328625,3.5444 3.59375,5.2813 3.886856,5.438 7.254354,9.7096 7.4375,13.8437 0.0038,-0.1151 0.03125,-0.2278 0.03125,-0.3437 0,-4.2438 -3.471885,-8.5956 -7.46875,-14.1875 -1.265125,-1.7369 -2.496419,-3.5633 -3.59375,-5.2813 -0.595603,-0.9407 -1.17794,-1.8941 -1.75,-2.9062 -0.178705,-0.3165 -0.356018,-0.6766 -0.53125,-1 C -24.179296,1010.1941 -24.567252,1009.4753 -24.925513,1008.7385 Z"
         style="fill:#000000;fill-opacity:0.42325583;fill-rule:nonzero;stroke:none"
         inkscape:connector-curvature="0" />
      <path
         sodipodi:nodetypes="ccccsccccssccccc"
         id="path915"
         d="m -24.925515,1012.7348 c -0.190493,0.4953 -0.404927,0.9969 -0.623929,1.4761 -0.0184,0.041 -0.04705,0.077 -0.06569,0.118 -0.202048,0.4365 -0.402253,0.846 -0.623927,1.2696 -0.04599,0.088 -0.08461,0.1784 -0.131356,0.2655 -0.200272,0.3743 -0.41145,0.7574 -0.623927,1.1218 -0.0738,0.1266 -0.154816,0.2584 -0.22987,0.3839 -1.900501,3.1127 -4.397994,6.3639 -6.370646,9.0925 -1.56305,2.0529 -2.461895,4.2687 -2.725583,6.4061 0,5.3085 5.09654,9.6239 11.394916,9.6239 6.298376,0 11.394915,-4.3154 11.394915,-9.6239 0,-3.3446 -2.728057,-6.7814 -5.87807,-11.1885 -0.997071,-1.3689 -1.959271,-2.8086 -2.824101,-4.1626 -0.469407,-0.7415 -0.928357,-1.5049 -1.37921,-2.3026 -0.140841,-0.2493 -0.288796,-0.5125 -0.4269,-0.7675 C -24.337412,1013.8948 -24.643162,1013.3156 -24.925515,1012.7348 Z"
         style="fill:url(#radialGradient937);fill-opacity:1;fill-rule:nonzero;stroke:none"
         inkscape:connector-curvature="0" />
      <path
         inkscape:connector-curvature="0"
         style="fill:#ffffff;fill-opacity:0.13023257;fill-rule:nonzero;stroke:none"
         d="m -13.547017,1032.6377 c -0.140937,5.2056 -5.16893,9.4083 -11.378497,9.4083 -6.170422,0 -11.177202,-4.1499 -11.378497,-9.3097 -0.0056,0.041 -0.01946,0.081 -0.02463,0.1231 0,5.3085 5.10475,9.6299 11.403126,9.6299 6.298376,0 11.403126,-4.3214 11.403126,-9.6299 C -13.522388,1032.784 -13.544268,1032.7132 -13.547017,1032.6377 Z"
         id="path917" />
      <path
         inkscape:connector-curvature="0"
         style="opacity:0.18200001;fill:url(#linearGradient949);fill-opacity:1;fill-rule:nonzero;stroke:none"
         d="m -24.925515,1019.2348 c -0.16369,0.3726 -0.34795,0.7498 -0.536136,1.1103 -0.01581,0.031 -0.04044,0.059 -0.05643,0.09 -0.173621,0.3281 -0.345655,0.6362 -0.536137,0.9546 -0.03952,0.066 -0.0727,0.1343 -0.11288,0.1999 -0.172089,0.2814 -0.353552,0.5698 -0.536133,0.8438 -0.06342,0.095 -0.133031,0.1944 -0.197526,0.2888 -1.633084,2.3412 -3.779159,4.7867 -5.474243,6.839 -1.343115,1.5441 -2.115482,3.2109 -2.342069,4.8184 0,3.9926 4.379415,7.2387 9.791555,7.2387 5.412141,0 9.791554,-3.2461 9.791554,-7.2387 0,-2.5158 -2.344196,-5.1007 -5.050975,-8.4155 -0.856777,-1.0297 -1.683586,-2.1125 -2.426728,-3.1309 -0.403357,-0.5578 -0.797729,-1.132 -1.185142,-1.7322 -0.121024,-0.1873 -0.248161,-0.3851 -0.366832,-0.5772 C -24.420163,1020.1072 -24.682891,1019.6717 -24.925515,1019.2348 Z"
         id="path939"
         sodipodi:nodetypes="ccccsccccssccccc" />
      <path
         sodipodi:nodetypes="ccccsccccssccccc"
         id="path960"
         d="m -24.925515,1013.9848 c -0.179363,0.46 -0.381265,0.9257 -0.587469,1.3707 -0.01732,0.038 -0.04431,0.073 -0.06183,0.1111 -0.190244,0.4051 -0.37875,0.7854 -0.58747,1.1785 -0.0433,0.081 -0.07966,0.1658 -0.123687,0.2468 -0.188566,0.3474 -0.387403,0.7035 -0.587466,1.0417 -0.06949,0.1173 -0.145768,0.24 -0.216438,0.3566 -1.789445,2.8903 -4.140998,5.9094 -5.998379,8.443 -1.471712,1.9063 -2.31803,3.964 -2.566312,5.9486 0,4.929 4.798725,8.9365 10.729055,8.9365 5.930331,0 10.729054,-4.0075 10.729054,-8.9365 0,-3.1059 -2.568643,-6.2971 -5.534585,-10.3894 -0.938809,-1.2712 -1.844782,-2.6079 -2.659076,-3.8652 -0.441977,-0.6886 -0.874109,-1.3975 -1.298615,-2.1385 -0.132611,-0.2312 -0.271921,-0.4754 -0.401954,-0.7126 C -24.371778,1015.0618 -24.659661,1014.5242 -24.925515,1013.9848 Z"
         style="opacity:0.18200001;fill:url(#linearGradient962);fill-opacity:1;fill-rule:nonzero;stroke:none"
         inkscape:connector-curvature="0" />
      <path
         inkscape:connector-curvature="0"
         style="fill:#000000;fill-opacity:0.23255813;fill-rule:nonzero;stroke:none"
         d="m -24.925514,1012.7377 c -0.190493,0.4953 -0.396719,0.9986 -0.61572,1.4778 -0.0184,0.041 -0.05526,0.082 -0.07388,0.1231 -0.202049,0.4368 -0.394046,0.8325 -0.615719,1.2561 -0.04599,0.088 -0.101034,0.1839 -0.147773,0.2709 -0.200272,0.3744 -0.403242,0.7439 -0.615719,1.1083 -0.0738,0.1266 -0.146606,0.2685 -0.22166,0.394 -1.900501,3.1127 -4.406201,6.3594 -6.378854,9.088 -1.563049,2.053 -2.470106,4.266 -2.733794,6.4035 0,0.1326 0.01834,0.2629 0.02463,0.394 0.286515,-2.0909 1.182611,-4.2506 2.709165,-6.2556 1.972653,-2.7286 4.478353,-5.9753 6.378854,-9.088 0.07506,-0.1255 0.14786,-0.2674 0.22166,-0.394 0.212477,-0.3644 0.415447,-0.734 0.615719,-1.1083 0.04674,-0.087 0.101786,-0.1829 0.147773,-0.2709 0.221673,-0.4238 0.41367,-0.8196 0.615719,-1.2562 0.01865,-0.041 0.05547,-0.082 0.07389,-0.123 0.219,-0.4792 0.425226,-0.9825 0.615719,-1.4778 0.282353,0.5808 0.588109,1.1471 0.886636,1.6994 0.138104,0.2547 0.277848,0.5387 0.418689,0.7881 0.450853,0.7976 0.909805,1.5491 1.379212,2.2906 0.864829,1.3539 1.835239,2.7932 2.83231,4.1621 3.063313,4.2859 5.717308,7.6524 5.86165,10.9105 0.003,-0.091 0.02462,-0.1795 0.02462,-0.2709 0,-3.3446 -2.736265,-6.7744 -5.886278,-11.1815 -0.997073,-1.3689 -1.967483,-2.8081 -2.83231,-4.1621 -0.469407,-0.7415 -0.92836,-1.4929 -1.379212,-2.2906 -0.140841,-0.2494 -0.280586,-0.5331 -0.41869,-0.7881 C -24.337404,1013.8849 -24.643161,1013.3185 -24.925514,1012.7377 Z"
         id="path919" />
      <path
         sodipodi:nodetypes="ccccsccccssccccc"
         id="path951"
         d="m -24.925515,1014.8598 c -0.16369,0.3726 -0.34795,0.7498 -0.536136,1.1103 -0.01581,0.031 -0.04044,0.059 -0.05643,0.09 -0.173621,0.3281 -0.345655,0.6362 -0.536137,0.9546 -0.03952,0.066 -0.0727,0.1343 -0.11288,0.1999 -0.172089,0.2814 -0.353552,0.5698 -0.536133,0.8438 -0.06342,0.095 -0.133031,0.1944 -0.197526,0.2888 -1.633084,2.3412 -3.779159,4.7867 -5.474243,6.839 -1.343115,1.5441 -2.115482,3.2109 -2.342069,4.8184 0,3.9926 4.379415,7.2387 9.791555,7.2387 5.412141,0 9.791554,-3.2461 9.791554,-7.2387 0,-2.5158 -2.344196,-5.1007 -5.050975,-8.4155 -0.856777,-1.0297 -1.683586,-2.1125 -2.426728,-3.1309 -0.403357,-0.5578 -0.797729,-1.132 -1.185142,-1.7322 -0.121024,-0.1873 -0.248161,-0.3851 -0.366832,-0.5772 C -24.420163,1015.7322 -24.682891,1015.2967 -24.925515,1014.8598 Z"
         style="opacity:0.18200001;fill:url(#linearGradient953);fill-opacity:1;fill-rule:nonzero;stroke:none"
         inkscape:connector-curvature="0" />
      <path
         id="path955"
         d="m -15.144263,1029.8635 c -0.184385,3.8731 -4.486542,6.9688 -9.78125,6.9688 -5.250669,0 -9.530618,-3.0469 -9.78125,-6.875 -0.003,0.02 0.0028,0.043 0,0.062 0,3.9926 4.36911,7.2187 9.78125,7.2187 5.412141,0 9.78125,-3.2261 9.78125,-7.2187 C -15.144263,1029.9708 -15.142503,1029.9125 -15.144263,1029.8635 Z"
         style="fill:#000000;fill-opacity:0.18139535;fill-rule:nonzero;stroke:none"
         inkscape:connector-curvature="0" />
      <path
         inkscape:connector-curvature="0"
         style="fill:#000000;fill-opacity:0.08372091;fill-rule:nonzero;stroke:none"
         d="m -15.144263,1030.2619 c -0.184385,3.8732 -4.486542,6.9688 -9.78125,6.9688 -5.250669,0 -9.530618,-3.0469 -9.78125,-6.875 -0.003,0.02 0.0028,0.043 0,0.062 0,3.9926 4.36911,7.2187 9.78125,7.2187 5.412141,0 9.78125,-3.2261 9.78125,-7.2187 C -15.144263,1030.3692 -15.142503,1030.3109 -15.144263,1030.2619 Z"
         id="path966" />
      <path
         id="path968"
         d="m -15.144263,1030.6603 c -0.184385,3.8732 -4.486542,6.9688 -9.78125,6.9688 -5.250669,0 -9.530618,-3.0469 -9.78125,-6.875 -0.003,0.02 0.0028,0.043 0,0.062 0,3.9926 4.36911,7.2187 9.78125,7.2187 5.412141,0 9.78125,-3.2261 9.78125,-7.2187 C -15.144263,1030.7676 -15.142503,1030.7093 -15.144263,1030.6603 Z"
         style="fill:#000000;fill-opacity:0.03520292;fill-rule:nonzero;stroke:none"
         inkscape:connector-curvature="0" />
      <path
         inkscape:connector-curvature="0"
         id="path970"
         d="m -13.519263,1032.2543 c -0.07847,5.2516 -5.156889,9.5 -11.40625,9.5 -6.224854,0 -11.289178,-4.2144 -11.40625,-9.4375 -0.004,0.03 0.0037,0.064 0,0.094 0,5.3085 5.107874,9.625 11.40625,9.625 6.298376,0 11.40625,-4.3165 11.40625,-9.625 C -13.519263,1032.3584 -13.517946,1032.3064 -13.519263,1032.2543 Z"
         style="fill:#000000;fill-opacity:0.19534882;fill-rule:nonzero;stroke:none" />
      <path
         style="fill:#000000;fill-opacity:0.10232556;fill-rule:nonzero;stroke:none"
         d="m -13.519263,1031.9781 c -0.07847,5.2516 -5.156889,9.5 -11.40625,9.5 -6.224854,0 -11.289178,-4.2144 -11.40625,-9.4375 -0.004,0.03 0.0037,0.064 0,0.094 0,5.3085 5.107874,9.625 11.40625,9.625 6.298376,0 11.40625,-4.3165 11.40625,-9.625 C -13.519263,1032.0822 -13.517946,1032.0302 -13.519263,1031.9781 Z"
         id="path975"
         inkscape:connector-curvature="0" />
      <path
         inkscape:connector-curvature="0"
         id="path977"
         d="m -13.519263,1031.7019 c -0.07847,5.2516 -5.156889,9.5 -11.40625,9.5 -6.224854,0 -11.289178,-4.2144 -11.40625,-9.4375 -0.004,0.03 0.0037,0.064 0,0.094 0,5.3085 5.107874,9.625 11.40625,9.625 6.298376,0 11.40625,-4.3165 11.40625,-9.625 C -13.519263,1031.806 -13.517946,1031.754 -13.519263,1031.7019 Z"
         style="fill:#000000;fill-opacity:0.04651166;fill-rule:nonzero;stroke:none" />
      <path
         style="fill:#000000;fill-opacity:0.02352941;fill-rule:nonzero;stroke:none"
         d="m -13.519263,1031.4091 c -0.07847,5.2516 -5.156889,9.5 -11.40625,9.5 -6.224854,0 -11.289178,-4.2144 -11.40625,-9.4375 -0.004,0.03 0.0037,0.064 0,0.094 0,5.3085 5.107874,9.625 11.40625,9.625 6.298376,0 11.40625,-4.3165 11.40625,-9.625 C -13.519263,1031.5132 -13.517946,1031.4612 -13.519263,1031.4091 Z"
         id="path979"
         inkscape:connector-curvature="0" />
      <path
         id="path1087"
         d="m -32.488013,1032.6839 0.125,0.1562 0.125,0 3.53125,4.25 3.78125,4.5625 3.78125,-4.5625 3.53125,-4.25 0.125,0 0.125,-0.1562 -0.25,0 -3.53125,4.25 -3.78125,4.5625 -3.78125,-4.5625 -3.53125,-4.25 L -32.488013,1032.6839 Z"
         style="color:#000000;fill:#000000;fill-opacity:0.03921569;fill-rule:nonzero;stroke:none;stroke-width:0.2;marker:none;visibility:visible;display:inline;overflow:visible;enable-background:accumulate"
         inkscape:connector-curvature="0" />
      <path
         inkscape:connector-curvature="0"
         style="color:#000000;fill:#000000;fill-opacity:0.11764706;fill-rule:nonzero;stroke:none;stroke-width:0.2;marker:none;visibility:visible;display:inline;overflow:visible;enable-background:accumulate"
         d="m -32.428725,1032.6448 0.12402,0.155 0.12402,0 3.503566,4.2167 3.751606,4.5267 3.751606,-4.5267 3.503566,-4.2167 0.12402,0 0.12402,-0.155 -0.24804,0 -3.503566,4.2167 -3.751606,4.5267 -3.751606,-4.5267 -3.503566,-4.2167 L -32.428725,1032.6448 Z"
         id="path1073" />
      <path
         inkscape:connector-curvature="0"
         id="path1065"
         d="m -32.488013,1032.4924 0.125,0.1563 0.125,0 3.53125,4.25 3.78125,4.5625 3.78125,-4.5625 3.53125,-4.25 0.125,0 0.125,-0.1563 -0.25,0 -3.53125,4.25 -3.78125,4.5625 -3.78125,-4.5625 -3.53125,-4.25 L -32.488013,1032.4924 Z"
         style="color:#000000;fill:#000000;fill-opacity:0.23529412;fill-rule:nonzero;stroke:none;stroke-width:0.2;marker:none;visibility:visible;display:inline;overflow:visible;enable-background:accumulate" />
      <path
         inkscape:connector-curvature="0"
         id="path1089"
         d="m -24.894263,1015.0562 c 0.313961,5.9546 2.843041,10.8333 3.375,17.25 l 4,0 0.15625,-0.1875 -4.15625,0 C -22.045509,1025.7709 -24.5371,1020.9245 -24.894263,1015.0562 z m -0.15625,0.9687 c -0.508976,5.4284 -2.566424,10.1023 -3.09375,16.0938 l -4.34375,0 0.15625,0.1875 4.1875,0 C -27.610869,1026.2458 -25.528617,1021.5337 -25.050513,1016.0249 Z"
         style="color:#000000;fill:#000000;fill-opacity:0.23529412;fill-rule:nonzero;stroke:none;stroke-width:0.2;marker:none;visibility:visible;display:inline;overflow:visible;enable-background:accumulate" />
      <path
         style="color:#000000;fill:#000000;fill-opacity:0.11919747;fill-rule:nonzero;stroke:none;stroke-width:0.2;marker:none;visibility:visible;display:inline;overflow:visible;enable-background:accumulate"
         d="m -24.894263,1014.8684 c 0.313961,5.9546 2.843041,10.8333 3.375,17.25 l 4,0 0.15625,-0.1875 -4.15625,0 C -22.045509,1025.5831 -24.5371,1020.7367 -24.894263,1014.8684 z m -0.15625,0.9687 c -0.508976,5.4284 -2.566424,10.1023 -3.09375,16.0938 l -4.34375,0 0.15625,0.1875 4.1875,0 C -27.610869,1026.058 -25.528617,1021.3459 -25.050513,1015.8371 Z"
         id="path1094"
         inkscape:connector-curvature="0" />
      <path
         inkscape:connector-curvature="0"
         id="path1096"
         d="m -24.894263,1014.6751 c 0.313961,5.9546 2.843041,10.8333 3.375,17.25 l 4,0 0.15625,-0.1875 -4.15625,0 C -22.045509,1025.3898 -24.5371,1020.5434 -24.894263,1014.6751 z m -0.15625,0.9687 c -0.508976,5.4284 -2.566424,10.1023 -3.09375,16.0938 l -4.34375,0 0.15625,0.1875 4.1875,0 C -27.610869,1025.8647 -25.528617,1021.1526 -25.050513,1015.6438 Z"
         style="color:#000000;fill:#000000;fill-opacity:0.03921569;fill-rule:nonzero;stroke:none;stroke-width:0.2;marker:none;visibility:visible;display:inline;overflow:visible;enable-background:accumulate" />
      <path
         id="rect993"
         d="m -24.925513,1013.8323 c 0,6.5 -2.616092,11.6213 -3.21875,18.4687 l -4.34375,0 3.78125,4.5313 3.78125,4.5625 3.78125,-4.5625 3.78125,-4.5313 -4.15625,0 C -22.086686,1025.4565 -24.925513,1020.3473 -24.925513,1013.8323 Z"
         style="color:#000000;fill:url(#linearGradient1062);fill-opacity:1;fill-rule:nonzero;stroke:none;stroke-width:0.2;marker:none;visibility:visible;display:inline;overflow:visible;enable-background:accumulate"
         inkscape:connector-curvature="0" />
    </g>
  </g>
</svg>
