<?xml version="1.0" encoding="UTF-8" standalone="no"?>
<!-- Created with Inkscape (http://www.inkscape.org/) -->

<svg
   xmlns:dc="http://purl.org/dc/elements/1.1/"
   xmlns:cc="http://creativecommons.org/ns#"
   xmlns:rdf="http://www.w3.org/1999/02/22-rdf-syntax-ns#"
   xmlns:svg="http://www.w3.org/2000/svg"
   xmlns="http://www.w3.org/2000/svg"
   xmlns:xlink="http://www.w3.org/1999/xlink"
   xmlns:sodipodi="http://sodipodi.sourceforge.net/DTD/sodipodi-0.dtd"
   xmlns:inkscape="http://www.inkscape.org/namespaces/inkscape"
   width="48"
   height="48"
   id="svg2"
   version="1.1"
   inkscape:version="0.48+devel r12118"
   sodipodi:docname="dia.svg">
  <defs
     id="defs4">
    <linearGradient
       inkscape:collect="always"
       id="linearGradient861">
      <stop
         style="stop-color:#eeeeee;stop-opacity:1"
         offset="0"
         id="stop863" />
      <stop
         style="stop-color:#f6f6f6;stop-opacity:1"
         offset="1"
         id="stop865" />
    </linearGradient>
    <linearGradient
       inkscape:collect="always"
       xlink:href="#linearGradient861"
       id="linearGradient4071"
       x1="24.25"
       y1="1050.3622"
       x2="24.25"
       y2="1006.1122"
       gradientUnits="userSpaceOnUse" />
  </defs>
  <sodipodi:namedview
     id="base"
     pagecolor="#ffffff"
     bordercolor="#666666"
     borderopacity="1.0"
     inkscape:pageopacity="0.0"
     inkscape:pageshadow="2"
     inkscape:zoom="4.0000002"
     inkscape:cx="28.752093"
     inkscape:cy="19.660013"
     inkscape:document-units="px"
     inkscape:current-layer="layer1"
     showgrid="false"
     inkscape:window-width="1366"
     inkscape:window-height="718"
     inkscape:window-x="0"
     inkscape:window-y="28"
     inkscape:window-maximized="1">
    <inkscape:grid
       type="xygrid"
       id="grid3850" />
  </sodipodi:namedview>
  <metadata
     id="metadata7">
    <rdf:RDF>
      <cc:Work
         rdf:about="">
        <dc:format>image/svg+xml</dc:format>
        <dc:type
           rdf:resource="http://purl.org/dc/dcmitype/StillImage" />
        <dc:title />
      </cc:Work>
    </rdf:RDF>
  </metadata>
  <g
     inkscape:label="Capa 1"
     inkscape:groupmode="layer"
     id="layer1"
     transform="translate(0,-1004.3622)">
    <rect
       style="color:#000000;fill:#333333;fill-opacity:1;fill-rule:nonzero;stroke:none;stroke-width:0.2;marker:none;visibility:visible;display:inline;overflow:visible;enable-background:accumulate"
       id="rect6294"
       width="45.5"
       height="45.5"
       x="1.25"
       y="1005.6122"
       ry="6.3565426" />
    <rect
       ry="5.8565426"
       y="1006.1122"
       x="1.7499999"
       height="44.5"
       width="44.5"
       id="rect6296"
       style="color:#000000;fill:url(#linearGradient4071);fill-opacity:1;fill-rule:nonzero;stroke:none;stroke-width:0.2;marker:none;visibility:visible;display:inline;overflow:visible;enable-background:accumulate" />
    <path
       id="path6361"
       d="m 1.7500035,1012.5497 0,-0.5625 c 0,-3.2445 2.5992,-5.875 5.8438,-5.875 l 32.8125005,0 c 3.2445,0 5.8437,2.6305 5.8437,5.875 l 0,0.5625 c 0,-3.2445 -2.5992,-5.875 -5.8437,-5.875 l -32.8125005,0 C 4.3492035,1006.6747 1.7500035,1009.3052 1.7500035,1012.5497 Z"
       style="color:#000000;fill:#ffffff;fill-opacity:1;fill-rule:nonzero;stroke:none;stroke-width:0.2;marker:none;visibility:visible;display:inline;overflow:visible;enable-background:accumulate"
       inkscape:connector-curvature="0" />
    <path
       inkscape:connector-curvature="0"
       style="color:#000000;fill:#000000;fill-opacity:1;fill-rule:nonzero;stroke:none;stroke-width:0.2;marker:none;visibility:visible;display:inline;overflow:visible;enable-background:accumulate"
       d="m 1.7500035,1044.1747 0,0.5625 c 0,3.2445 2.5992,5.875 5.8438,5.875 l 32.8125005,0 c 3.2445,0 5.8437,-2.6305 5.8437,-5.875 l 0,-0.5625 c 0,3.2445 -2.5992,5.875 -5.8437,5.875 l -32.8125005,0 C 4.3492035,1050.0497 1.7500035,1047.4192 1.7500035,1044.1747 Z"
       id="path6388" />
    <g
       id="g881"
       transform="matrix(0.79320128,0,0,0.79320128,5.4209163,212.6675)">
      <rect
         ry="0"
         y="1009.4471"
         x="8.8388338"
         height="11.136931"
         width="29.168154"
         id="rect869"
         style="fill:#b3b3b3;fill-opacity:1;stroke:none" />
      <rect
         style="fill:#ffffff;fill-opacity:1;stroke:none"
         id="rect871"
         width="28.726212"
         height="10.606602"
         x="9.0598049"
         y="1009.7123"
         ry="0" />
    </g>
    <rect
       ry="0"
       y="1023.9487"
       x="12.431892"
       height="8.833828"
       width="23.136217"
       id="rect873"
       style="fill:#9bce41;fill-opacity:1;stroke:none" />
    <rect
       style="fill:#eeffd2;fill-opacity:1;stroke:none"
       id="rect875"
       width="22.785667"
       height="8.4131699"
       x="12.607165"
       y="1024.1591"
       ry="0" />
    <path
       style="fill:#9bce41;fill-opacity:1;stroke:none"
       d="m 12.436611,1034.5378 0,8.8244 23.126778,0 0,-8.8244 -10.162893,0 -0.322239,0.5453 -1.065864,1.8839 -1.090652,-1.8839 -0.322237,-0.5453 L 12.436611,1034.5378 Z"
       id="rect877"
       inkscape:connector-curvature="0" />
    <path
       style="fill:#eeffd2;fill-opacity:1;stroke:none"
       d="m 12.597731,1034.7361 0,8.4277 22.804539,0 0,-8.4277 -9.865443,0 -0.223088,0.3966 -1.31374,2.2804 -1.313739,-2.2804 -0.223088,-0.3966 L 12.597731,1034.7361 Z"
       id="rect879"
       inkscape:connector-curvature="0" />
    <path
       inkscape:transform-center-y="0.39337367"
       transform="matrix(0.50142017,0,0,0.50142017,12.499037,1018.2067)"
       d="m 22.936775,36.024624 -1.35924,-2.354273 -1.35924,-2.354273 2.71848,0 2.718481,0 L 24.296015,33.670351 Z"
       inkscape:randomized="0"
       inkscape:rounded="0"
       inkscape:flatsided="false"
       sodipodi:arg2="2.6179939"
       sodipodi:arg1="1.5707963"
       sodipodi:r2="1.5695153"
       sodipodi:r1="3.1390309"
       sodipodi:cy="32.885593"
       sodipodi:cx="22.936775"
       sodipodi:sides="3"
       id="path899"
       style="fill:#9bce41;fill-opacity:1;stroke:none"
       sodipodi:type="star" />
    <rect
       style="fill:#9bce41;fill-opacity:1;stroke:none"
       id="rect901"
       width="1.1743382"
       height="1.7439798"
       x="23.412827"
       y="1032.7233"
       ry="0" />
    <path
       inkscape:connector-curvature="0"
       id="path950"
       style="font-size:2.87973762px;font-style:normal;font-variant:normal;font-weight:bold;font-stretch:normal;text-align:start;line-height:125%;letter-spacing:0px;word-spacing:0px;writing-mode:lr-tb;text-anchor:start;fill:#000000;fill-opacity:1;stroke:none;font-family:Helvetica;-inkscape-font-specification:Helvetica Bold"
       d="m 17.562456,1017.933 0.0027,0.8153 -0.404964,0 0,-1.9383 1.379575,0 0,0.3428 -0.974611,0 -0.0027,0.4373 0.853122,0 0,0.3429 L 17.562456,1017.933 Z" />
    <path
       inkscape:connector-curvature="0"
       id="path952"
       style="font-size:2.87973762px;font-style:normal;font-variant:normal;font-weight:bold;font-stretch:normal;text-align:start;line-height:125%;letter-spacing:0px;word-spacing:0px;writing-mode:lr-tb;text-anchor:start;fill:#000000;fill-opacity:1;stroke:none;font-family:Helvetica;-inkscape-font-specification:Helvetica Bold"
       d="m 19.169696,1016.81 0,1.9383 -0.377967,0 0,-1.9383 L 19.169696,1016.81 Z" />
    <path
       inkscape:connector-curvature="0"
       id="path954"
       style="font-size:2.87973762px;font-style:normal;font-variant:normal;font-weight:bold;font-stretch:normal;text-align:start;line-height:125%;letter-spacing:0px;word-spacing:0px;writing-mode:lr-tb;text-anchor:start;fill:#000000;fill-opacity:1;stroke:none;font-family:Helvetica;-inkscape-font-specification:Helvetica Bold"
       d="m 20.914664,1018.0302 q 0,0.3698 -0.22138,0.5723 -0.199781,0.1836 -0.512953,0.1836 -0.313171,0 -0.512953,-0.1836 -0.22138,-0.2025 -0.22138,-0.5723 0,-0.3671 0.22138,-0.5723 0.199782,-0.1836 0.510253,-0.1836 0.310472,0 0.512954,0.1836 Q 20.914664,1017.6631 20.914664,1018.0302 z m -0.388764,0 q 0,-0.1782 -0.06209,-0.2861 -0.08639,-0.1512 -0.283474,-0.1512 -0.194383,0 -0.280775,0.1485 -0.06479,0.1133 -0.06479,0.2888 0,0.1782 0.06209,0.2862 0.08639,0.1511 0.283474,0.1511 0.194382,0 0.280774,-0.1485 Q 20.5259,1018.2057 20.5259,1018.0302 Z" />
    <path
       inkscape:connector-curvature="0"
       id="path956"
       style="font-size:2.87973762px;font-style:normal;font-variant:normal;font-weight:bold;font-stretch:normal;text-align:start;line-height:125%;letter-spacing:0px;word-spacing:0px;writing-mode:lr-tb;text-anchor:start;fill:#000000;fill-opacity:1;stroke:none;font-family:Helvetica;-inkscape-font-specification:Helvetica Bold"
       d="m 23.078053,1017.3121 -0.410362,1.4362 -0.388766,0 -0.226779,-1.0474 -0.226779,1.0474 -0.388765,0 -0.407662,-1.4362 0.402263,0 0.22678,1.0313 0.205181,-1.0313 0.380665,0 0.21868,1.0313 0.226779,-1.0313 L 23.078053,1017.3121 Z" />
    <path
       inkscape:connector-curvature="0"
       id="path958"
       style="font-size:2.87973762px;font-style:normal;font-variant:normal;font-weight:bold;font-stretch:normal;text-align:start;line-height:125%;letter-spacing:0px;word-spacing:0px;writing-mode:lr-tb;text-anchor:start;fill:#000000;fill-opacity:1;stroke:none;font-family:Helvetica;-inkscape-font-specification:Helvetica Bold"
       d="m 25.69867,1017.4444 -0.404963,0 q -0.0378,-0.1404 -0.102591,-0.2106 -0.110689,-0.1242 -0.32937,-0.1242 -0.186283,0 -0.310471,0.1323 -0.167385,0.1782 -0.167385,0.5453 0,0.2862 0.11069,0.4617 0.126889,0.1998 0.369866,0.1998 0.170085,0 0.280775,-0.092 0.11069,-0.095 0.145787,-0.2727 l 0.404962,0 q -0.06209,0.3321 -0.264575,0.5156 -0.218681,0.1998 -0.575048,0.1998 -0.399563,0 -0.637142,-0.2564 -0.251077,-0.27 -0.251077,-0.7613 0,-0.4914 0.259176,-0.7668 0.240279,-0.2564 0.634442,-0.2564 0.394165,0 0.626343,0.2348 Q 25.677072,1017.1852 25.69867,1017.4444 Z" />
    <path
       inkscape:connector-curvature="0"
       id="path960"
       style="font-size:2.87973762px;font-style:normal;font-variant:normal;font-weight:bold;font-stretch:normal;text-align:start;line-height:125%;letter-spacing:0px;word-spacing:0px;writing-mode:lr-tb;text-anchor:start;fill:#000000;fill-opacity:1;stroke:none;font-family:Helvetica;-inkscape-font-specification:Helvetica Bold"
       d="m 27.274399,1017.7549 0.0027,0.9934 -0.377966,0 0,-0.8719 q 0,-0.1215 -0.0324,-0.181 -0.054,-0.1025 -0.213281,-0.1025 -0.129588,0 -0.21328,0.086 -0.08369,0.086 -0.08369,0.2457 l 0,0.8234 -0.377965,0 0,-1.9383 0.375265,0 0,0.6884 q 0.0459,-0.094 0.159286,-0.1593 0.11339,-0.065 0.261876,-0.065 0.21868,0 0.359068,0.1268 Q 27.274399,1017.5254 27.274399,1017.7549 Z" />
    <path
       inkscape:connector-curvature="0"
       id="path962"
       style="font-size:2.87973762px;font-style:normal;font-variant:normal;font-weight:bold;font-stretch:normal;text-align:start;line-height:125%;letter-spacing:0px;word-spacing:0px;writing-mode:lr-tb;text-anchor:start;fill:#000000;fill-opacity:1;stroke:none;font-family:Helvetica;-inkscape-font-specification:Helvetica Bold"
       d="m 28.789847,1017.6901 0.0027,0.7774 q 0,0.1188 0.0216,0.1648 0.0216,0.046 0.06209,0.059 l 0,0.056 -0.407662,0 q -0.027,-0.081 -0.0351,-0.1701 -0.09179,0.097 -0.167384,0.1377 -0.124189,0.07 -0.296974,0.07 -0.180883,0 -0.299672,-0.097 -0.137688,-0.1134 -0.137688,-0.3213 0,-0.2025 0.11069,-0.3159 0.113389,-0.1161 0.307772,-0.1431 l 0.337469,-0.052 q 0.07829,-0.011 0.10529,-0.037 0.0297,-0.03 0.0297,-0.076 0,-0.1053 -0.08909,-0.1431 -0.05669,-0.024 -0.161985,-0.024 -0.124189,0 -0.180884,0.067 -0.0405,0.049 -0.0486,0.1323 l -0.364468,0 q 0.027,-0.297 0.224081,-0.4158 0.143087,-0.086 0.415761,-0.086 0.215981,0 0.361767,0.073 Q 28.789847,1017.4524 28.789847,1017.6901 z m -0.367168,0.5426 0,-0.1836 q -0.027,0.022 -0.08639,0.043 -0.05939,0.019 -0.180884,0.038 -0.118789,0.019 -0.170084,0.054 -0.07559,0.052 -0.07559,0.1593 0,0.089 0.05939,0.1349 0.0486,0.038 0.116089,0.038 0.134988,0 0.234879,-0.078 Q 28.422679,1018.3595 28.422679,1018.2327 Z" />
    <path
       inkscape:connector-curvature="0"
       id="path964"
       style="font-size:2.87973762px;font-style:normal;font-variant:normal;font-weight:bold;font-stretch:normal;text-align:start;line-height:125%;letter-spacing:0px;word-spacing:0px;writing-mode:lr-tb;text-anchor:start;fill:#000000;fill-opacity:1;stroke:none;font-family:Helvetica;-inkscape-font-specification:Helvetica Bold"
       d="m 29.129044,1018.7483 -0.0027,-1.4362 0.361767,0 0.0027,0.2483 q 0.07829,-0.143 0.140387,-0.197 0.09989,-0.089 0.256477,-0.089 l 0.07559,0.01 -0.0027,0.3834 q -0.0243,0 -0.0486,0 -0.0216,0 -0.05669,0 -0.199782,0 -0.283474,0.1107 -0.06479,0.084 -0.06479,0.2322 l 0,0.7478 L 29.129044,1018.7483 Z" />
    <path
       inkscape:connector-curvature="0"
       id="path966"
       style="font-size:2.87973762px;font-style:normal;font-variant:normal;font-weight:bold;font-stretch:normal;text-align:start;line-height:125%;letter-spacing:0px;word-spacing:0px;writing-mode:lr-tb;text-anchor:start;fill:#000000;fill-opacity:1;stroke:none;font-family:Helvetica;-inkscape-font-specification:Helvetica Bold"
       d="m 30.604923,1016.9233 -0.0028,0.3888 0.237581,0 0,0.27 -0.234881,0 -0.0028,0.7802 q 0,0.07 0.02428,0.095 0.027,0.021 0.13499,0.021 l 0.07828,-0.01 0,0.2861 -0.178182,0.01 -0.04856,0 q -0.229481,0 -0.315875,-0.083 -0.07019,-0.067 -0.07019,-0.2268 l 0,-0.8719 -0.194383,0 -0.0027,-0.27 0.194382,0 0.0027,-0.3888 L 30.604923,1016.9233 Z" />
    <path
       inkscape:connector-curvature="0"
       id="path936"
       style="font-size:3.40361762px;font-style:normal;font-variant:normal;font-weight:bold;font-stretch:normal;text-align:start;line-height:125%;letter-spacing:0px;word-spacing:0px;writing-mode:lr-tb;text-anchor:start;fill:#9bce41;fill-opacity:1;stroke:none;font-family:Helvetica;-inkscape-font-specification:Helvetica Bold"
       d="m 22.814912,1028.5897 0,0.7263 -0.404963,0 0,-0.7316 -0.669539,-1.2068 0.477857,0 0.399564,0.8423 0.386065,-0.8423 0.458958,0 L 22.814912,1028.5897 Z" />
    <path
       inkscape:connector-curvature="0"
       id="path938"
       style="font-size:3.40361762px;font-style:normal;font-variant:normal;font-weight:bold;font-stretch:normal;text-align:start;line-height:125%;letter-spacing:0px;word-spacing:0px;writing-mode:lr-tb;text-anchor:start;fill:#9bce41;fill-opacity:1;stroke:none;font-family:Helvetica;-inkscape-font-specification:Helvetica Bold"
       d="m 24.37613,1028.8949 0.388764,0 q -0.07019,0.2403 -0.259177,0.3591 -0.159285,0.1 -0.372566,0.1 -0.332069,0 -0.510253,-0.1702 -0.205181,-0.197 -0.205181,-0.6155 0,-0.2457 0.10529,-0.4266 0.172785,-0.2996 0.580447,-0.2996 0.272676,0 0.44546,0.1485 0.232178,0.1998 0.232178,0.6425 l -0.0027,0.067 -0.98541,0 q 0.02429,0.1917 0.10259,0.2727 0.08099,0.079 0.237579,0.079 0.08369,0 0.151186,-0.04 Q 24.354532,1028.9705 24.37613,1028.8949 z m -0.569649,-0.4402 0.585847,0 q -0.0162,-0.1592 -0.10799,-0.2375 -0.07559,-0.065 -0.183583,-0.065 -0.132289,0 -0.205181,0.079 Q 23.82268,1028.309 23.806481,1028.4547 Z" />
    <path
       inkscape:connector-curvature="0"
       id="path940"
       style="font-size:3.40361762px;font-style:normal;font-variant:normal;font-weight:bold;font-stretch:normal;text-align:start;line-height:125%;letter-spacing:0px;word-spacing:0px;writing-mode:lr-tb;text-anchor:start;fill:#9bce41;fill-opacity:1;stroke:none;font-family:Helvetica;-inkscape-font-specification:Helvetica Bold"
       d="m 26.216391,1028.3172 -0.369866,0 q -0.0162,-0.092 -0.05399,-0.1297 -0.05939,-0.059 -0.199783,-0.059 -0.137687,0 -0.194381,0.046 -0.0405,0.033 -0.0405,0.094 0,0.083 0.232179,0.135 0.33477,0.073 0.43466,0.1187 0.23488,0.1108 0.23488,0.3376 0,0.2753 -0.229481,0.4022 -0.167384,0.092 -0.399562,0.092 -0.288874,0 -0.467058,-0.1027 -0.224079,-0.1296 -0.224079,-0.3941 l 0.388763,0 q 0,0.1 0.0702,0.1565 0.07289,0.054 0.242977,0.054 0.126888,0 0.191683,-0.054 0.0486,-0.04 0.0486,-0.094 0,-0.089 -0.229479,-0.1403 -0.342869,-0.075 -0.43196,-0.1162 -0.232179,-0.1079 -0.232179,-0.3401 0,-0.189 0.121488,-0.3186 0.153887,-0.1619 0.458958,-0.1619 0.272675,0 0.429261,0.083 Q 26.216391,1028.0418 26.216391,1028.3172 Z" />
    <path
       inkscape:connector-curvature="0"
       id="path927"
       style="font-size:3.40361762px;font-style:normal;font-variant:normal;font-weight:bold;font-stretch:normal;text-align:start;line-height:125%;letter-spacing:0px;word-spacing:0px;writing-mode:lr-tb;text-anchor:start;fill:#9bce41;fill-opacity:1;stroke:none;font-family:Helvetica;-inkscape-font-specification:Helvetica Bold"
       d="m 21.609368,1039.2011 0,-0.3267 0.809926,0 0,1.0448 -0.267275,0 -0.04049,-0.243 q -0.116089,0.135 -0.207881,0.1918 -0.164685,0.1025 -0.396863,0.1025 -0.375267,0 -0.620944,-0.251 -0.269976,-0.2755 -0.269976,-0.7641 0,-0.432 0.22678,-0.7101 0.256476,-0.3158 0.720834,-0.3158 0.404963,0 0.645242,0.2268 0.202481,0.1917 0.202481,0.4265 l -0.404963,0 q 0,-0.083 -0.102591,-0.1863 -0.132288,-0.1322 -0.321271,-0.1322 -0.237578,0 -0.386064,0.162 -0.170085,0.1862 -0.170085,0.5345 0,0.3645 0.178184,0.5319 0.143087,0.135 0.388764,0.135 0.126889,0 0.234879,-0.065 0.180884,-0.108 0.234878,-0.3618 L 21.609368,1039.2011 Z" />
    <path
       inkscape:connector-curvature="0"
       id="path929"
       style="font-size:3.40361762px;font-style:normal;font-variant:normal;font-weight:bold;font-stretch:normal;text-align:start;line-height:125%;letter-spacing:0px;word-spacing:0px;writing-mode:lr-tb;text-anchor:start;fill:#9bce41;fill-opacity:1;stroke:none;font-family:Helvetica;-inkscape-font-specification:Helvetica Bold"
       d="m 24.156164,1039.2011 q 0,0.3699 -0.22138,0.5724 -0.199782,0.1835 -0.512953,0.1835 -0.313172,0 -0.512953,-0.1835 -0.22138,-0.2025 -0.22138,-0.5724 0,-0.3672 0.22138,-0.5724 0.199781,-0.1836 0.510253,-0.1836 0.310472,0 0.512954,0.1836 Q 24.156164,1038.8339 24.156164,1039.2011 z m -0.388764,0 q 0,-0.1782 -0.06209,-0.2862 -0.08639,-0.1512 -0.283474,-0.1512 -0.194383,0 -0.280774,0.1485 -0.0648,0.1134 -0.0648,0.2889 0,0.1781 0.06209,0.2861 0.08639,0.1513 0.283475,0.1513 0.194381,0 0.280774,-0.1485 Q 23.7674,1039.3765 23.7674,1039.2011 Z" />
    <path
       inkscape:connector-curvature="0"
       id="path931"
       style="font-size:3.40361762px;font-style:normal;font-variant:normal;font-weight:bold;font-stretch:normal;text-align:start;line-height:125%;letter-spacing:0px;word-spacing:0px;writing-mode:lr-tb;text-anchor:start;fill:#9bce41;fill-opacity:1;stroke:none;font-family:Helvetica;-inkscape-font-specification:Helvetica Bold"
       d="m 25.806599,1039.2011 q 0,0.3699 -0.221379,0.5724 -0.199782,0.1835 -0.512953,0.1835 -0.313172,0 -0.512954,-0.1835 -0.22138,-0.2025 -0.22138,-0.5724 0,-0.3672 0.22138,-0.5724 0.199782,-0.1836 0.510254,-0.1836 0.310471,0 0.512953,0.1836 Q 25.806599,1038.8339 25.806599,1039.2011 z m -0.388764,0 q 0,-0.1782 -0.06209,-0.2862 -0.08639,-0.1512 -0.283475,-0.1512 -0.194381,0 -0.280773,0.1485 -0.0648,0.1134 -0.0648,0.2889 0,0.1781 0.06209,0.2861 0.08639,0.1513 0.283474,0.1513 0.194383,0 0.280775,-0.1485 Q 25.417835,1039.3765 25.417835,1039.2011 Z" />
    <path
       inkscape:connector-curvature="0"
       id="path933"
       style="font-size:3.40361762px;font-style:normal;font-variant:normal;font-weight:bold;font-stretch:normal;text-align:start;line-height:125%;letter-spacing:0px;word-spacing:0px;writing-mode:lr-tb;text-anchor:start;fill:#9bce41;fill-opacity:1;stroke:none;font-family:Helvetica;-inkscape-font-specification:Helvetica Bold"
       d="m 27.384141,1037.9808 0,1.9384 -0.369867,0 0,-0.1809 q -0.06749,0.1134 -0.186282,0.1701 -0.102591,0.049 -0.234879,0.049 -0.299672,0 -0.461658,-0.2376 -0.143086,-0.2105 -0.143086,-0.5345 0,-0.3564 0.178183,-0.5561 0.161986,-0.1836 0.415763,-0.1836 0.164684,0 0.278073,0.075 0.07829,0.052 0.137688,0.1485 l 0.0054,-0.6885 L 27.384141,1037.9808 z m -1.007008,1.2311 q 0,0.1646 0.06209,0.2808 0.08099,0.1538 0.245677,0.1538 0.170085,0 0.259177,-0.1269 0.07829,-0.1106 0.07829,-0.2861 0,-0.1998 -0.0648,-0.3159 -0.08099,-0.1458 -0.261875,-0.1458 -0.167386,0 -0.248378,0.135 Q 26.377133,1039.0229 26.377133,1039.2119 Z" />
  </g>
</svg>
