<?xml version="1.0" encoding="UTF-8" standalone="no"?>
<!-- Created with Inkscape (http://www.inkscape.org/) -->

<svg
   xmlns:dc="http://purl.org/dc/elements/1.1/"
   xmlns:cc="http://creativecommons.org/ns#"
   xmlns:rdf="http://www.w3.org/1999/02/22-rdf-syntax-ns#"
   xmlns:svg="http://www.w3.org/2000/svg"
   xmlns="http://www.w3.org/2000/svg"
   xmlns:xlink="http://www.w3.org/1999/xlink"
   xmlns:sodipodi="http://sodipodi.sourceforge.net/DTD/sodipodi-0.dtd"
   xmlns:inkscape="http://www.inkscape.org/namespaces/inkscape"
   width="48"
   height="48"
   id="svg2"
   version="1.1"
   inkscape:version="0.48+devel r12149"
   sodipodi:docname="qupzilla.svg">
  <defs
     id="defs4">
    <linearGradient
       inkscape:collect="always"
       id="linearGradient893">
      <stop
         style="stop-color:#287178;stop-opacity:1"
         offset="0"
         id="stop895" />
      <stop
         style="stop-color:#55dbb8;stop-opacity:1"
         offset="1"
         id="stop897" />
    </linearGradient>
    <radialGradient
       inkscape:collect="always"
       xlink:href="#linearGradient1075"
       id="radialGradient1081"
       cx="35.313709"
       cy="-1028.3622"
       fx="35.313709"
       fy="-1028.3622"
       r="24"
       gradientUnits="userSpaceOnUse"
       gradientTransform="matrix(0.86741748,-1.9705407e-7,-2.0040065e-7,-0.88214887,-6.631934,121.19365)" />
    <linearGradient
       inkscape:collect="always"
       id="linearGradient1075">
      <stop
         style="stop-color:#ffffff;stop-opacity:1"
         offset="0"
         id="stop1077" />
      <stop
         style="stop-color:#ffffff;stop-opacity:0"
         offset="1"
         id="stop1079" />
    </linearGradient>
    <linearGradient
       inkscape:collect="always"
       xlink:href="#linearGradient893"
       id="linearGradient1091"
       gradientUnits="userSpaceOnUse"
       x1="25.102291"
       y1="-1052.3843"
       x2="25.102291"
       y2="-1004.3784"
       gradientTransform="matrix(1,0,0,-1,1e-6,0)" />
    <linearGradient
       inkscape:collect="always"
       xlink:href="#linearGradient1075"
       id="linearGradient1147"
       x1="9.9999981"
       y1="24.000002"
       x2="48.499996"
       y2="24.000002"
       gradientUnits="userSpaceOnUse" />
    <linearGradient
       gradientTransform="translate(-66.654252,982.21372)"
       inkscape:collect="always"
       xlink:href="#linearGradient893"
       id="linearGradient907"
       x1="23.25"
       y1="9.75"
       x2="6.6875"
       y2="26.3125"
       gradientUnits="userSpaceOnUse" />
    <linearGradient
       gradientTransform="translate(-66.654252,982.21372)"
       inkscape:collect="always"
       xlink:href="#linearGradient893"
       id="linearGradient925"
       x1="39"
       y1="33.375"
       x2="23.620556"
       y2="6.7370214"
       gradientUnits="userSpaceOnUse" />
    <linearGradient
       gradientTransform="translate(-66.654252,982.21372)"
       inkscape:collect="always"
       xlink:href="#linearGradient893"
       id="linearGradient899"
       x1="8.75"
       y1="22.750002"
       x2="39.296471"
       y2="40.386013"
       gradientUnits="userSpaceOnUse" />
    <linearGradient
       inkscape:collect="always"
       xlink:href="#linearGradient893"
       id="linearGradient933"
       gradientUnits="userSpaceOnUse"
       x1="23.25"
       y1="9.75"
       x2="6.6875"
       y2="26.3125"
       gradientTransform="matrix(0.40626567,0.70367278,-0.70367278,0.40626567,-35.516507,979.57522)" />
    <linearGradient
       inkscape:collect="always"
       xlink:href="#linearGradient893"
       id="linearGradient937"
       gradientUnits="userSpaceOnUse"
       x1="8.75"
       y1="22.750002"
       x2="39.296471"
       y2="40.386013"
       gradientTransform="matrix(0.40626567,0.70367278,-0.70367278,0.40626567,-35.704007,979.57522)" />
    <linearGradient
       inkscape:collect="always"
       xlink:href="#linearGradient893"
       id="linearGradient935"
       gradientUnits="userSpaceOnUse"
       x1="39"
       y1="33.375"
       x2="23.620556"
       y2="6.7370214"
       gradientTransform="matrix(0.40626567,0.70367278,-0.70367278,0.40626567,-35.016507,979.57522)" />
    <linearGradient
       y2="-1004.3784"
       x2="25.102291"
       y1="-1052.3843"
       x1="25.102291"
       gradientUnits="userSpaceOnUse"
       id="linearGradient1241"
       xlink:href="#linearGradient893"
       inkscape:collect="always"
       gradientTransform="matrix(1,0,0,-1,2.605957e-6,-1004.3622)" />
  </defs>
  <sodipodi:namedview
     id="base"
     pagecolor="#ffffff"
     bordercolor="#666666"
     borderopacity="1.0"
     inkscape:pageopacity="0.0"
     inkscape:pageshadow="2"
     inkscape:zoom="4.6886621"
     inkscape:cx="8.1284378"
     inkscape:cy="31.763027"
     inkscape:document-units="px"
     inkscape:current-layer="layer1"
     showgrid="false"
     inkscape:window-width="1366"
     inkscape:window-height="716"
     inkscape:window-x="0"
     inkscape:window-y="28"
     inkscape:window-maximized="1" />
  <metadata
     id="metadata7">
    <rdf:RDF>
      <cc:Work
         rdf:about="">
        <dc:format>image/svg+xml</dc:format>
        <dc:type
           rdf:resource="http://purl.org/dc/dcmitype/StillImage" />
        <dc:title />
      </cc:Work>
    </rdf:RDF>
  </metadata>
  <g
     inkscape:label="Capa 1"
     inkscape:groupmode="layer"
     id="layer1"
     transform="translate(0,-1004.3622)">
    <rect
       style="color:#000000;fill:#333333;fill-opacity:1;fill-rule:nonzero;stroke:none;stroke-width:0.2;marker:none;visibility:visible;display:inline;overflow:visible;enable-background:accumulate"
       id="rect6294-0"
       width="45.5"
       height="45.5"
       x="1.25"
       y="1005.6122"
       ry="6.3565426" />
    <path
       style="fill:url(#linearGradient1241);fill-opacity:1;stroke:none"
       d="M 7.59375 1.75 C 4.3492254 1.75 1.75 4.3492254 1.75 7.59375 L 1.75 40.40625 C 1.75 43.650775 4.3492254 46.25 7.59375 46.25 L 40.40625 46.25 C 43.650775 46.25 46.25 43.650775 46.25 40.40625 L 46.25 7.59375 C 46.25 4.3492254 43.650775 1.75 40.40625 1.75 L 7.59375 1.75 z "
       transform="translate(0,1004.3622)"
       id="rect1089" />
    <path
       sodipodi:type="arc"
       style="fill:#000000;fill-opacity:1;stroke:none"
       id="path1145"
       sodipodi:cx="24.8125"
       sodipodi:cy="24.1875"
       sodipodi:rx="9.3125"
       sodipodi:ry="9.3125"
       d="m 34.125,24.1875 a 9.3125,9.3125 0 1 1 -18.625,0 A 9.3125,9.3125 0 1 1 34.125,24.1875 Z"
       transform="matrix(1.2147652,0,0,1.2147652,-6.1413615,998.98007)" />
    <path
       id="path6361-1"
       d="m 1.7500005,1012.5497 0,-0.5625 c 0,-3.2445 2.599225,-5.875 5.8437497,-5.875 l 32.8124998,0 c 3.244525,0 5.84375,2.6305 5.84375,5.875 l 0,0.5625 c 0,-3.2445 -2.599225,-5.875 -5.84375,-5.875 l -32.8124998,0 C 4.3492255,1006.6747 1.7500005,1009.3052 1.7500005,1012.5497 Z"
       style="color:#000000;fill:#ffffff;fill-opacity:1;fill-rule:nonzero;stroke:none;stroke-width:0.2;marker:none;visibility:visible;display:inline;overflow:visible;enable-background:accumulate"
       inkscape:connector-curvature="0" />
    <path
       inkscape:connector-curvature="0"
       style="color:#000000;fill:#000000;fill-opacity:1;fill-rule:nonzero;stroke:none;stroke-width:0.2;marker:none;visibility:visible;display:inline;overflow:visible;enable-background:accumulate"
       d="m 1.7500005,1044.1747 0,0.5625 c 0,3.2445 2.599225,5.875 5.8437497,5.875 l 32.8124998,0 c 3.244525,0 5.84375,-2.6305 5.84375,-5.875 l 0,-0.5625 c 0,3.2445 -2.599225,5.875 -5.84375,5.875 l -32.8124998,0 C 4.3492255,1050.0497 1.7500005,1047.4192 1.7500005,1044.1747 Z"
       id="path6388-2" />
    <path
       style="fill:url(#radialGradient1081);fill-opacity:1;stroke:none"
       d="m 7.59375,1006.1122 c -3.244525,0 -5.84375,2.5992 -5.84375,5.8438 l 0,32.8125 c 0,3.2445 2.599225,5.8437 5.84375,5.8437 l 32.8125,0 c 3.244525,0 5.84375,-2.5992 5.84375,-5.8437 l 0,-32.8125 c 0,-3.2446 -2.599225,-5.8438 -5.84375,-5.8438 L 7.59375,1006.1122 Z"
       id="rect2991-1"
       inkscape:connector-curvature="0" />
    <path
       style="opacity:0.581;fill:url(#linearGradient1091);fill-opacity:1;stroke:none"
       d="m 7.59375,1006.1122 c -3.244525,0 -5.84375,2.5992 -5.84375,5.8438 l 0,32.8125 c 0,3.2445 2.599225,5.8437 5.84375,5.8437 l 32.8125,0 c 3.244525,0 5.84375,-2.5992 5.84375,-5.8437 l 0,-32.8125 c 0,-3.2446 -2.599225,-5.8438 -5.84375,-5.8438 L 7.59375,1006.1122 Z"
       id="rect1083"
       inkscape:connector-curvature="0" />
    <path
       transform="matrix(0.67532468,0,0,0.67532468,4.2467544,1012.1544)"
       d="m 48.499998,24.000002 a 19.25,19.25 0 1 1 -38.4999999,0 A 19.25,19.25 0 1 1 48.499998,24.000002 Z"
       sodipodi:ry="19.25"
       sodipodi:rx="19.25"
       sodipodi:cy="24.000002"
       sodipodi:cx="29.249998"
       id="path867"
       style="fill:url(#linearGradient1147);fill-opacity:1;stroke:none"
       sodipodi:type="arc" />
    <g
       id="g1049"
       transform="matrix(0.9375,0,0,0.9375,63.988361,85.036847)">
      <path
         id="path869"
         d="m -42.654252,990.21372 c -8.836556,0 -16,7.1635 -16,15.99998 0,5.5985 2.895517,10.5159 7.25,13.375 -2.256744,-2.7581 -3.625,-6.2833 -3.625,-10.125 0,-8.8365 7.163444,-15.99998 16,-15.99998 3.238113,0 6.231387,0.9713 8.75,2.625 C -33.213408,992.50272 -37.659389,990.21372 -42.654252,990.21372 Z"
         style="fill:url(#linearGradient907);fill-opacity:1;stroke:none"
         inkscape:connector-curvature="0" />
      <path
         id="path876"
         d="m -42.654252,990.21372 c -2.090192,0 -4.075944,0.3961 -5.90625,1.125 0.05281,-5e-4 0.103322,0 0.15625,0 8.836556,0 16,7.1635 16,15.99998 0,6.7464 -4.186202,12.5223 -10.09375,14.875 8.763509,-0.085 15.84375,-7.2164 15.84375,-16 C -26.654252,997.37722 -33.817696,990.21372 -42.654252,990.21372 Z"
         style="fill:url(#linearGradient925);fill-opacity:1;stroke:none"
         inkscape:connector-curvature="0" />
      <path
         id="path880"
         d="m -58.404252,1003.4637 c -0.156233,0.8975 -0.25,1.8078 -0.25,2.75 0,8.8366 7.163444,16 16,16 8.836556,0 16,-7.1634 16,-16 0,-0.9422 -0.09377,-1.8525 -0.25,-2.75 -1.308984,7.5198 -7.855663,13.25 -15.75,13.25 C -50.548589,1016.7137 -57.095268,1010.9835 -58.404252,1003.4637 Z"
         style="fill:url(#linearGradient899);fill-opacity:1;stroke:none"
         inkscape:connector-curvature="0" />
      <path
         inkscape:connector-curvature="0"
         style="fill:url(#linearGradient933);fill-opacity:1;stroke:none"
         d="m -31.395445,999.71352 c -3.590038,-6.2181 -11.540948,-8.3485 -17.759002,-4.7585 -3.93951,2.2744 -6.223449,6.30968 -6.466305,10.53528 1.024033,-2.7084 2.947053,-5.1044 5.652038,-6.66418 6.218053,-3.59 14.169137,-1.4594 17.759003,4.75848 1.315471,2.2786 1.848155,4.7795 1.707605,7.2236 C -29.170686,1007.2867 -29.366159,1003.2282 -31.395445,999.71352 Z"
         id="path927" />
      <path
         inkscape:connector-curvature="0"
         style="fill:url(#linearGradient937);fill-opacity:1;stroke:none"
         d="m -47.305409,994.01362 c -0.69506,0.2547 -1.373689,0.5585 -2.036538,0.9414 -6.218053,3.59 -8.34865,11.54088 -4.758612,17.75888 3.590038,6.2181 11.540949,8.3485 17.759002,4.7585 0.663108,-0.3827 1.265431,-0.8186 1.833523,-1.2931 -5.823252,2.1339 -12.515119,-0.1448 -15.722205,-5.6998 C -53.437498,1004.9245 -52.065064,997.98972 -47.305409,994.01362 Z"
         id="path931" />
      <path
         inkscape:connector-curvature="0"
         style="fill:url(#linearGradient935);fill-opacity:1;stroke:none"
         d="m -30.895445,999.71352 c -0.84925,-1.4709 -1.934755,-2.7073 -3.191124,-3.699 0.02149,0.037 0.04137,0.072 0.06343,0.1099 3.589951,6.21798 1.459527,14.16898 -4.758613,17.75898 -4.747218,2.7408 -10.512211,2.1416 -14.567704,-1.0594 3.620012,6.1319 11.514756,8.217 17.695394,4.6484 C -29.436004,1013.8824 -27.305407,1005.9315 -30.895445,999.71352 Z"
         id="path929" />
    </g>
  </g>
</svg>
