<?xml version="1.0" encoding="UTF-8" standalone="no"?>
<!-- Created with Inkscape (http://www.inkscape.org/) -->

<svg
   xmlns:dc="http://purl.org/dc/elements/1.1/"
   xmlns:cc="http://creativecommons.org/ns#"
   xmlns:rdf="http://www.w3.org/1999/02/22-rdf-syntax-ns#"
   xmlns:svg="http://www.w3.org/2000/svg"
   xmlns="http://www.w3.org/2000/svg"
   xmlns:xlink="http://www.w3.org/1999/xlink"
   xmlns:sodipodi="http://sodipodi.sourceforge.net/DTD/sodipodi-0.dtd"
   xmlns:inkscape="http://www.inkscape.org/namespaces/inkscape"
   width="48"
   height="48"
   id="svg2"
   version="1.1"
   inkscape:version="0.48+devel r12118"
   sodipodi:docname="display.im6.svg"
   inkscape:export-filename="/home/uri/Iconos/NITRUX-Buttons/apps/512/display.im6.png"
   inkscape:export-xdpi="960"
   inkscape:export-ydpi="960">
  <defs
     id="defs4">
    <linearGradient
       gradientTransform="translate(-1640.5564,640.01505)"
       inkscape:collect="always"
       xlink:href="#linearGradient1463"
       id="linearGradient1511"
       x1="1664.6448"
       y1="410.50876"
       x2="1664.6448"
       y2="366.07327"
       gradientUnits="userSpaceOnUse" />
    <linearGradient
       inkscape:collect="always"
       id="linearGradient1463">
      <stop
         style="stop-color:#f9f9f9;stop-opacity:1"
         offset="0"
         id="stop1465" />
      <stop
         style="stop-color:#ffffff;stop-opacity:1"
         offset="1"
         id="stop1467" />
    </linearGradient>
  </defs>
  <sodipodi:namedview
     id="base"
     pagecolor="#ffffff"
     bordercolor="#666666"
     borderopacity="1.0"
     inkscape:pageopacity="0.0"
     inkscape:pageshadow="2"
     inkscape:zoom="5.6568543"
     inkscape:cx="28.842621"
     inkscape:cy="22.317392"
     inkscape:document-units="px"
     inkscape:current-layer="layer1"
     showgrid="false"
     inkscape:window-width="1366"
     inkscape:window-height="718"
     inkscape:window-x="0"
     inkscape:window-y="28"
     inkscape:window-maximized="1">
    <inkscape:grid
       type="xygrid"
       id="grid3850" />
  </sodipodi:namedview>
  <metadata
     id="metadata7">
    <rdf:RDF>
      <cc:Work
         rdf:about="">
        <dc:format>image/svg+xml</dc:format>
        <dc:type
           rdf:resource="http://purl.org/dc/dcmitype/StillImage" />
        <dc:title />
      </cc:Work>
    </rdf:RDF>
  </metadata>
  <g
     inkscape:label="Capa 1"
     inkscape:groupmode="layer"
     id="layer1"
     transform="translate(0,-1004.3622)">
    <rect
       style="color:#000000;fill:#333333;fill-opacity:1;fill-rule:nonzero;stroke:none;stroke-width:0.2;marker:none;visibility:visible;display:inline;overflow:visible;enable-background:accumulate"
       id="rect6294"
       width="45.5"
       height="45.5"
       x="1.25"
       y="1005.6122"
       ry="6.3565426" />
    <rect
       ry="5.8565426"
       y="1006.1122"
       x="1.75"
       height="44.5"
       width="44.5"
       id="rect6296"
       style="color:#000000;fill:url(#linearGradient1511);fill-opacity:1;fill-rule:nonzero;stroke:none;stroke-width:0.2;marker:none;visibility:visible;display:inline;overflow:visible;enable-background:accumulate" />
    <path
       id="path6361"
       d="m 1.7500032,1012.5497 0,-0.5625 c 0,-3.2445 2.5992,-5.875 5.8438,-5.875 l 32.8125008,0 c 3.2445,0 5.8437,2.6305 5.8437,5.875 l 0,0.5625 c 0,-3.2445 -2.5992,-5.875 -5.8437,-5.875 l -32.8125008,0 C 4.3492032,1006.6747 1.7500032,1009.3052 1.7500032,1012.5497 Z"
       style="color:#000000;fill:#ffffff;fill-opacity:1;fill-rule:nonzero;stroke:none;stroke-width:0.2;marker:none;visibility:visible;display:inline;overflow:visible;enable-background:accumulate"
       inkscape:connector-curvature="0" />
    <path
       inkscape:connector-curvature="0"
       style="color:#000000;fill:#000000;fill-opacity:1;fill-rule:nonzero;stroke:none;stroke-width:0.2;marker:none;visibility:visible;display:inline;overflow:visible;enable-background:accumulate"
       d="m 1.7500032,1044.1747 0,0.5625 c 0,3.2445 2.5992,5.875 5.8438,5.875 l 32.8125008,0 c 3.2445,0 5.8437,-2.6305 5.8437,-5.875 l 0,-0.5625 c 0,3.2445 -2.5992,5.875 -5.8437,5.875 l -32.8125008,0 C 4.3492032,1050.0497 1.7500032,1047.4192 1.7500032,1044.1747 Z"
       id="path6388" />
    <rect
       style="fill:#004a79;fill-opacity:1;stroke:none"
       id="rect1471"
       width="8.9312992"
       height="8.9312992"
       x="8.7137451"
       y="1013.3622"
       ry="0" />
    <rect
       ry="0"
       y="1013.3622"
       x="19.534302"
       height="8.9312992"
       width="8.9312992"
       id="rect1481"
       style="fill:#53346f;fill-opacity:1;stroke:none" />
    <rect
       style="fill:#7a0402;fill-opacity:1;stroke:none"
       id="rect1483"
       width="8.9312992"
       height="8.9312992"
       x="30.35498"
       y="1013.3622"
       ry="0" />
    <rect
       ry="0"
       y="1023.8965"
       x="8.7137451"
       height="8.9312992"
       width="8.9312992"
       id="rect1485"
       style="fill:#1681c5;fill-opacity:1;stroke:none" />
    <rect
       style="fill:#8152a2;fill-opacity:1;stroke:none"
       id="rect1487"
       width="8.9312992"
       height="8.9312992"
       x="19.534302"
       y="1023.8965"
       ry="0" />
    <rect
       ry="0"
       y="1023.8965"
       x="30.35498"
       height="8.9312992"
       width="8.9312992"
       id="rect1489"
       style="fill:#c31c16;fill-opacity:1;stroke:none" />
    <rect
       style="fill:#52abe3;fill-opacity:1;stroke:none"
       id="rect1491"
       width="8.9312992"
       height="8.9312992"
       x="8.7137451"
       y="1034.4309"
       ry="0" />
    <rect
       ry="0"
       y="1034.4309"
       x="19.534302"
       height="8.9312992"
       width="8.9312992"
       id="rect1493"
       style="fill:#a982c6;fill-opacity:1;stroke:none" />
    <rect
       style="fill:#e25951;fill-opacity:1;stroke:none"
       id="rect1495"
       width="8.9312992"
       height="8.9312992"
       x="30.35498"
       y="1034.4309"
       ry="0" />
    <path
       style="fill:#333333;fill-opacity:1;stroke:none"
       d="m 17.671804,1022.0341 0,12.6563 12.6562,0 0,-12.6563 L 17.671804,1022.0341 z m 0.9374,0.9376 10.7814,0 0,10.7811 -10.7814,0 L 18.609204,1022.9717 Z"
       id="rect1497"
       inkscape:connector-curvature="0" />
    <path
       style="fill:#000000;fill-opacity:0.23580789;stroke:none"
       d="m 21.919904,1035.3422 0,0.293 0.3222,0 0,0.058 0.1172,0 0,-0.293 -0.1172,0 0,-0.058 L 21.919904,1035.3422 z m 0.4394,0.7911 0,0.2929 0.2637,0 0.3809,0 0,-0.2929 -0.3809,0 L 22.359304,1036.1333 z m 0.6446,1.4648 0,0.293 0.6152,0 0,-0.293 L 23.003904,1037.5981 z m 9.2871,0.791 0,0.2929 0.5859,0 0,-0.2929 L 32.291004,1038.3891 z m -8.6719,0.4981 0,0.2929 0.6446,0 0,-0.2929 L 23.619104,1038.8872 z m 0.6446,1.1718 0,0.293 0.6151,0 0,-0.293 L 24.263704,1040.059 z m 7.3828,0.2051 0,0.2929 0.6445,0 0,-0.2929 L 31.646504,1040.2641 z m -6.7677,1.6406 0,0.293 0.6739,0 5.4199,0 0.6739,0 0,-0.293 -0.6739,0 -5.4199,0 L 24.878804,1041.9047 Z"
       id="path1520"
       inkscape:connector-curvature="0" />
    <g
       id="g4731"
       transform="matrix(0.03957721,0,0,0.03957721,-30.062996,1018.9404)">
      <path
         inkscape:connector-curvature="0"
         style="fill:#000000;fill-opacity:1;stroke:none"
         d="m 1403.1624,215.57275 0,15.63321 -14.8343,0 0,145.84476 -14.9004,0 0,-15.63321 -43.5071,0 -16.1616,0 0,53.15288 10.885,0 0,19.96491 15.8299,0.0326 0,36.34722 15.9624,0 0,32.56915 15.9626,0 0,29.99623 15.896,0 0,46.80189 16.9914,0 136.9591,0 0,0.0651 17.0245,0 0,-41.75369 15.9293,0 0,-46.89963 14.8008,0 0,-126.10782 -14.8008,0 0,-17.13138 -15.9293,0 0,-13.09279 -16.9914,0 -14.8674,0 0,-15.6332 -32.9206,0 -15.9627,0 0,-15.63322 -26.4824,0 0,-73.5086 -14.9006,0 0,-15.01441 L 1403.1624,215.57275 Z"
         id="path4403"
         sodipodi:nodetypes="ccccccccccccccccccccccccccccccccccccccccccc" />
      <path
         inkscape:connector-curvature="0"
         sodipodi:nodetypes="ccccccccccccccccccccccccccccccccccccccccccc"
         id="path4323"
         d="m 1403.6189,219.77305 0,15.28424 -14.4328,0 0,142.58912 -14.4971,0 0,-15.28423 -42.3297,0 -15.7243,0 0,51.96637 10.5905,0 0,19.51924 15.4014,0.0318 0,35.53585 15.5305,0 0,31.84213 15.5306,0 0,29.32663 15.4659,0 0,45.75715 16.5314,0 133.2528,0 0,0.0637 16.5638,0 0,-40.82164 15.4981,0 0,-45.85271 14.4004,0 0,-123.29276 -14.4004,0 0,-16.74897 -15.4981,0 0,-12.80052 -16.5317,0 -14.4649,0 0,-15.28423 -32.0298,0 -15.5306,0 0,-15.28424 -25.7659,0 0,-71.8677 -14.4973,0 0,-14.67925 L 1403.6189,219.77305 Z"
         style="fill:#ffffff;fill-opacity:1;stroke:none" />
      <path
         inkscape:connector-curvature="0"
         id="rect4229"
         d="m 1405.4564,224.42468 0,15 -13.9724,0 0,139.9375 -14.0348,0 0,-15 -40.9792,0 -15.2226,0 0,51 10.2526,0 0,19.15625 14.9101,0.0312 0,34.875 15.0351,0 0,31.25 15.035,0 0,28.78125 14.9726,0 0,44.90625 16.0041,0 129.0017,0 0,0.0625 16.0353,0 0,-40.0625 15.0038,0 0,-45 13.9411,0 0,-121 -13.9411,0 0,-16.4375 -15.0038,0 0,-12.5625 -16.0041,0 -14.0036,0 0,-15 -31.0079,0 -15.035,0 0,-15 -24.944,0 0,-70.53125 -14.0348,0 0,-14.40625 L 1405.4564,224.42468 z m 0.7502,15.34375 30.2577,0 0,144.65625 15.035,0 0,-60 24.944,0 0,60.8125 15.035,0 0,-44.875 30.0077,0 0,59.15625 15.0038,0 0,-45.15625 15.0038,0 0,15 14.7538,0 0,115 -14.7538,0 0,45 -15.035,0 0,30.0625 -129.0017,0 0,-35 -15.0038,0 0,-30.03125 -15.0039,0 0,-30.03125 -15.0038,0 0,-34.90625 -15.0038,0 0,-15 -10.9716,-0.0312 0,-34.0625 40.0102,0 0,16.90625 15.0038,0 0,42.15625 14.7226,0 L 1406.2066,239.76843 Z"
         style="fill:#000000;fill-opacity:1;stroke:none" />
    </g>
    <path
       inkscape:connector-curvature="0"
       id="path1533"
       d="m 21.919904,1035.6352 0,0.2929 0.3222,0 0,0.058 0.1172,0 0,-0.2929 -0.1172,0 0,-0.058 L 21.919904,1035.6352 z m 0.4394,0.791 0,0.293 0.2637,0 0.3809,0 0,-0.293 -0.3809,0 L 22.359304,1036.4262 z m 0.6446,1.4649 0,0.2929 0.6152,0 0,-0.2929 L 23.003904,1037.8911 z m 9.2871,0.7909 0,0.293 0.5859,0 0,-0.293 L 32.291004,1038.682 z m -8.6719,0.4981 0,0.293 0.6446,0 0,-0.293 L 23.619104,1039.1801 z m 0.6446,1.1719 0,0.293 0.6151,0 0,-0.293 L 24.263704,1040.352 z m 7.3828,0.205 0,0.293 0.6445,0 0,-0.293 L 31.646504,1040.557 z m -6.7677,1.6407 0,0.2929 0.6739,0 5.4199,0 0.6739,0 0,-0.2929 -0.6739,0 -5.4199,0 L 24.878804,1042.1977 Z"
       style="fill:#000000;fill-opacity:0.1187944;stroke:none" />
    <path
       style="fill:#000000;fill-opacity:0.05882353;stroke:none"
       d="m 21.919904,1035.9281 0,0.293 0.3222,0 0,0.058 0.1172,0 0,-0.293 -0.1172,0 0,-0.058 L 21.919904,1035.9281 z m 0.4394,0.7911 0,0.293 0.2637,0 0.3809,0 0,-0.293 -0.3809,0 L 22.359304,1036.7192 z m 0.6446,1.4648 0,0.293 0.6152,0 0,-0.293 L 23.003904,1038.184 z m 9.2871,0.791 0,0.293 0.5859,0 0,-0.293 L 32.291004,1038.975 z m -8.6719,0.4981 0,0.293 0.6446,0 0,-0.293 L 23.619104,1039.4731 z m 0.6446,1.1719 0,0.293 0.6151,0 0,-0.293 L 24.263704,1040.645 z m 7.3828,0.205 0,0.293 0.6445,0 0,-0.293 L 31.646504,1040.85 z m -6.7677,1.6406 0,0.293 0.6739,0 5.4199,0 0.6739,0 0,-0.293 -0.6739,0 -5.4199,0 L 24.878804,1042.4906 Z"
       id="path1535"
       inkscape:connector-curvature="0" />
  </g>
</svg>
