<?xml version="1.0" encoding="UTF-8" standalone="no"?>
<!-- Created with Inkscape (http://www.inkscape.org/) -->

<svg
   xmlns:dc="http://purl.org/dc/elements/1.1/"
   xmlns:cc="http://creativecommons.org/ns#"
   xmlns:rdf="http://www.w3.org/1999/02/22-rdf-syntax-ns#"
   xmlns:svg="http://www.w3.org/2000/svg"
   xmlns="http://www.w3.org/2000/svg"
   xmlns:xlink="http://www.w3.org/1999/xlink"
   xmlns:sodipodi="http://sodipodi.sourceforge.net/DTD/sodipodi-0.dtd"
   xmlns:inkscape="http://www.inkscape.org/namespaces/inkscape"
   width="48"
   height="48"
   id="svg2"
   version="1.1"
   inkscape:version="0.48+devel r12123"
   sodipodi:docname="dosbox.svg">
  <defs
     id="defs4">
    <linearGradient
       inkscape:collect="always"
       id="linearGradient850">
      <stop
         style="stop-color:#ed098f;stop-opacity:1"
         offset="0"
         id="stop852" />
      <stop
         style="stop-color:#fd70c4;stop-opacity:1"
         offset="1"
         id="stop854" />
    </linearGradient>
    <linearGradient
       inkscape:collect="always"
       xlink:href="#linearGradient1114"
       id="linearGradient1111"
       gradientUnits="userSpaceOnUse"
       x1="-19.394972"
       y1="-92.562088"
       x2="17.415754"
       y2="-55.751362"
       gradientTransform="matrix(0.34943797,0,0,-0.34943797,10.503475,12.5643)" />
    <linearGradient
       id="linearGradient1114"
       inkscape:collect="always">
      <stop
         id="stop1116"
         offset="0"
         style="stop-color:#ae0556;stop-opacity:1" />
      <stop
         id="stop1118"
         offset="1"
         style="stop-color:#fd70c4;stop-opacity:0" />
    </linearGradient>
    <linearGradient
       inkscape:collect="always"
       xlink:href="#linearGradient1124"
       id="linearGradient1122"
       gradientUnits="userSpaceOnUse"
       gradientTransform="matrix(-0.34943797,0,0,0.34943797,37.496525,35.4357)"
       x1="-19.394972"
       y1="-92.562088"
       x2="17.415754"
       y2="-55.751362" />
    <linearGradient
       inkscape:collect="always"
       id="linearGradient1124">
      <stop
         style="stop-color:#ffadde;stop-opacity:1"
         offset="0"
         id="stop1126" />
      <stop
         style="stop-color:#fd70c4;stop-opacity:0"
         offset="1"
         id="stop1128" />
    </linearGradient>
    <linearGradient
       inkscape:collect="always"
       xlink:href="#linearGradient850"
       id="linearGradient938"
       x1="24.441942"
       y1="1050.1703"
       x2="24.441942"
       y2="1005.558"
       gradientUnits="userSpaceOnUse" />
  </defs>
  <sodipodi:namedview
     id="base"
     pagecolor="#ffffff"
     bordercolor="#666666"
     borderopacity="1.0"
     inkscape:pageopacity="0.0"
     inkscape:pageshadow="2"
     inkscape:zoom="2.0000001"
     inkscape:cx="61.843673"
     inkscape:cy="30.736127"
     inkscape:document-units="px"
     inkscape:current-layer="layer1"
     showgrid="false"
     inkscape:window-width="1366"
     inkscape:window-height="718"
     inkscape:window-x="0"
     inkscape:window-y="28"
     inkscape:window-maximized="1"
     width="0px"
     height="0px"
     fit-margin-top="0"
     fit-margin-left="0"
     fit-margin-right="0"
     fit-margin-bottom="0">
    <inkscape:grid
       type="xygrid"
       id="grid3850"
       empspacing="5"
       visible="true"
       enabled="true"
       snapvisiblegridlinesonly="true" />
  </sodipodi:namedview>
  <metadata
     id="metadata7">
    <rdf:RDF>
      <cc:Work
         rdf:about="">
        <dc:format>image/svg+xml</dc:format>
        <dc:type
           rdf:resource="http://purl.org/dc/dcmitype/StillImage" />
        <dc:title />
      </cc:Work>
    </rdf:RDF>
  </metadata>
  <g
     inkscape:label="Capa 1"
     inkscape:groupmode="layer"
     id="layer1"
     transform="translate(0,-1004.3622)">
    <rect
       style="color:#000000;fill:#333333;fill-opacity:1;fill-rule:nonzero;stroke:none;stroke-width:0.2;marker:none;visibility:visible;display:inline;overflow:visible;enable-background:accumulate"
       id="rect6294"
       width="45.5"
       height="45.5"
       x="1.25"
       y="1005.6122"
       ry="6.3565426" />
    <rect
       ry="5.8565426"
       y="1006.1122"
       x="1.75"
       height="44.5"
       width="44.5"
       id="rect6296"
       style="color:#000000;fill:url(#linearGradient938);fill-opacity:1;fill-rule:nonzero;stroke:none;stroke-width:0.2;marker:none;visibility:visible;display:inline;overflow:visible;enable-background:accumulate" />
    <path
       style="font-size:40px;font-style:normal;font-variant:normal;font-weight:bold;font-stretch:normal;line-height:125%;letter-spacing:0px;word-spacing:0px;fill:url(#linearGradient1122);fill-opacity:1;stroke:none;font-family:Impact;-inkscape-font-specification:Impact Bold"
       d="M 7.59375 1.75 C 6.0362745 1.75 4.6407658 2.3589337 3.59375 3.34375 C 31.499207 12.097592 42.35171 24.315951 46.25 34.28125 L 46.25 7.59375 C 46.25 4.3492254 43.650775 1.75 40.40625 1.75 L 7.59375 1.75 z "
       transform="translate(0,1004.3622)"
       id="path1120" />
    <path
       style="font-size:40px;font-style:normal;font-variant:normal;font-weight:bold;font-stretch:normal;line-height:125%;letter-spacing:0px;word-spacing:0px;fill:url(#linearGradient1111);fill-opacity:1;stroke:none;font-family:Impact;-inkscape-font-specification:Impact Bold"
       d="M 1.75 13.71875 L 1.75 40.40625 C 1.75 43.650775 4.3492254 46.25 7.59375 46.25 L 40.40625 46.25 C 41.963725 46.25 43.359234 45.641066 44.40625 44.65625 C 16.500794 35.9024 5.6482904 23.683954 1.75 13.71875 z "
       id="rect1107"
       transform="translate(0,1004.3622)" />
    <path
       inkscape:connector-curvature="0"
       style="color:#000000;fill:#000000;fill-opacity:1;fill-rule:nonzero;stroke:none;stroke-width:0.2;marker:none;visibility:visible;display:inline;overflow:visible;enable-background:accumulate"
       d="m 1.7500034,1044.1747 0,0.5625 c 0,3.2445 2.5992,5.875 5.8438,5.875 l 32.8124996,0 c 3.2445,0 5.8437,-2.6305 5.8437,-5.875 l 0,-0.5625 c 0,3.2445 -2.5992,5.875 -5.8437,5.875 l -32.8124996,0 C 4.3492034,1050.0497 1.7500034,1047.4192 1.7500034,1044.1747 Z"
       id="path6388" />
    <path
       style="font-size:40px;font-style:normal;font-variant:normal;font-weight:bold;font-stretch:normal;line-height:125%;letter-spacing:0px;word-spacing:0px;fill:#ffffff;fill-opacity:1;stroke:none;font-family:Impact;-inkscape-font-specification:Impact Bold"
       d="m 7.6503751,1013.9564 0,1.2665 1.266472,0 0,-1.2665 L 7.6503751,1013.9564 z m 1.9700664,0 0,1.2665 1.2664705,0 0,-1.2665 L 9.6204415,1013.9564 z m 1.9419225,0 0,1.2665 1.294614,0 0,-1.2665 L 11.562364,1013.9564 z m 1.970065,0 0,1.2665 1.294617,0 0,-1.2665 L 13.532429,1013.9564 z m 5.9102,0 0,1.2665 1.266471,0 0,-1.2665 L 19.442629,1013.9564 z m 1.941923,0 0,1.2665 1.294614,0 0,-1.2665 L 21.384552,1013.9564 z m 1.970066,0 0,1.2665 1.294615,0 0,-1.2665 L 23.354618,1013.9564 z m 1.970067,0 0,1.2665 1.294615,0 0,-1.2665 L 25.324685,1013.9564 z m 1.970066,0 0,1.2665 1.266472,0 0,-1.2665 L 27.294751,1013.9564 z m 5.882055,0 0,1.2665 1.294616,0 0,-1.2665 L 33.176806,1013.9564 z m 1.970067,0 0,1.2665 1.294615,0 0,-1.2665 L 35.146873,1013.9564 z m 1.970067,0 0,1.2665 1.266471,0 0,-1.2665 L 37.11694,1013.9564 z m -29.4665649,1.9702 0,1.2663 1.266472,0 0,-1.2663 L 7.6503751,1015.9266 z m 7.8521209,0 0,1.2663 1.266472,0 0,-1.2663 L 15.502496,1015.9266 z m 3.940133,0 0,1.2663 1.266471,0 0,-1.2663 L 19.442629,1015.9266 z m 7.852122,0 0,1.2663 1.266472,0 0,-1.2663 L 27.294751,1015.9266 z m 3.940133,0 0,1.2663 1.266471,0 0,-1.2663 L 31.234884,1015.9266 z m 7.852123,0 0,1.2663 1.266472,0 0,-1.2663 L 39.087007,1015.9266 z m -31.4366319,1.9699 0,1.2666 1.266472,0 0,-1.2666 L 7.6503751,1017.8965 z m 7.8521209,0 0,1.2666 1.266472,0 0,-1.2666 L 15.502496,1017.8965 z m 3.940133,0 0,1.2666 1.266471,0 0,-1.2666 L 19.442629,1017.8965 z m 7.852122,0 0,1.2666 1.266472,0 0,-1.2666 L 27.294751,1017.8965 z m 3.940133,0 0,1.2666 1.266471,0 0,-1.2666 L 31.234884,1017.8965 z m 1.941922,0 0,1.2666 1.294616,0 0,-1.2666 L 33.176806,1017.8965 z m 1.970067,0 0,1.2666 1.294615,0 0,-1.2666 L 35.146873,1017.8965 z m 1.970067,0 0,1.2666 1.266471,0 0,-1.2666 L 37.11694,1017.8965 z m -21.614444,1.942 0,1.2946 1.266472,0 0,-1.2946 L 15.502496,1019.8385 z m 11.792255,0 0,1.2946 1.266472,0 0,-1.2946 L 27.294751,1019.8385 z m 11.792256,0 0,1.2946 1.266472,0 0,-1.2946 L 39.087007,1019.8385 z m -31.4366319,0.028 0,1.2946 1.266472,0 0,-1.2946 L 7.6503751,1019.8666 z m 11.7922539,0 0,1.2946 1.266471,0 0,-1.2946 L 19.442629,1019.8666 z m -3.940133,1.9419 0,1.2947 1.266472,0 0,-1.2947 L 15.502496,1021.8085 z m 11.792255,0 0,1.2947 1.266472,0 0,-1.2947 L 27.294751,1021.8085 z m 11.792256,0 0,1.2947 1.266472,0 0,-1.2947 L 39.087007,1021.8085 z m -31.4366319,0.028 0,1.2946 1.266472,0 0,-1.2946 L 7.6503751,1021.8367 z m 11.7922539,0 0,1.2946 1.266471,0 0,-1.2946 L 19.442629,1021.8367 z m 11.792255,0 0,1.2946 1.266471,0 0,-1.2946 L 31.234884,1021.8367 z m -21.6144425,1.942 0,1.2663 1.2664705,0 0,-1.2663 L 9.6204415,1023.7787 z m 1.9419225,0 0,1.2663 1.294614,0 0,-1.2663 L 11.562364,1023.7787 z m 1.970065,0 0,1.2663 1.294617,0 0,-1.2663 L 13.532429,1023.7787 z m 7.852123,0 0,1.2663 1.294614,0 0,-1.2663 L 21.384552,1023.7787 z m 1.970066,0 0,1.2663 1.294615,0 0,-1.2663 L 23.354618,1023.7787 z m 1.970067,0 0,1.2663 1.294615,0 0,-1.2663 L 25.324685,1023.7787 z m 1.970066,0 0,1.2663 1.266472,0 0,-1.2663 L 27.294751,1023.7787 z m 5.882055,0 0,1.2663 1.294616,0 0,-1.2663 L 33.176806,1023.7787 z m 1.970067,0 0,1.2663 1.294615,0 0,-1.2663 L 35.146873,1023.7787 z m 1.970067,0 0,1.2663 1.266471,0 0,-1.2663 L 37.11694,1023.7787 z m -29.4665649,0.028 0,1.2946 1.266472,0 0,-1.2946 L 7.6503751,1023.8068 z m 11.7922539,0 0,1.2946 1.266471,0 0,-1.2946 L 19.442629,1023.8068 Z"
       id="rect858"
       inkscape:connector-curvature="0" />
    <path
       style="font-size:40px;font-style:normal;font-variant:normal;font-weight:bold;font-stretch:normal;line-height:125%;letter-spacing:0px;word-spacing:0px;fill:#ffffff;fill-opacity:1;stroke:none;font-family:Impact;-inkscape-font-specification:Impact Bold"
       d="m 7.6503751,1031.6308 0,1.2946 1.266472,0 0,-1.2946 L 7.6503751,1031.6308 z m 1.9700664,0 0,1.2946 1.2664705,0 0,-1.2946 L 9.6204415,1031.6308 z m 1.9419225,0 0,1.2946 1.294614,0 0,-1.2946 L 11.562364,1031.6308 z m 1.970065,0 0,1.2946 1.294617,0 0,-1.2946 L 13.532429,1031.6308 z m 5.9102,0 0,1.2946 1.266471,0 0,-1.2946 L 19.442629,1031.6308 z m 1.941923,0 0,1.2946 1.294614,0 0,-1.2946 L 21.384552,1031.6308 z m 1.970066,0 0,1.2946 1.294615,0 0,-1.2946 L 23.354618,1031.6308 z m 1.970067,0 0,1.2946 1.294615,0 0,-1.2946 L 25.324685,1031.6308 z m 1.970066,0 0,1.2946 1.266472,0 0,-1.2946 L 27.294751,1031.6308 z m 3.940133,0 0,1.2946 1.266471,0 0,-1.2946 L 31.234884,1031.6308 z m 7.852123,0 0,1.2946 1.266472,0 0,-1.2946 L 39.087007,1031.6308 z m -31.4366319,1.9699 0,1.2947 1.266472,0 0,-1.2947 L 7.6503751,1033.6007 z m 7.8521209,0 0,1.2947 1.266472,0 0,-1.2947 L 15.502496,1033.6007 z m 3.940133,0 0,1.2947 1.266471,0 0,-1.2947 L 19.442629,1033.6007 z m 7.852122,0 0,1.2947 1.266472,0 0,-1.2947 L 27.294751,1033.6007 z m 9.822189,0 0,1.2947 1.266471,0 0,-1.2947 L 37.11694,1033.6007 z m -3.940134,0.028 0,1.2664 1.294616,0 0,-1.2664 L 33.176806,1033.629 z m -25.5264309,1.9419 0,1.2946 1.266472,0 0,-1.2946 L 7.6503751,1035.5709 z m 5.8820539,0 0,1.2664 1.294617,0 0,-1.2664 L 13.532429,1035.5709 z m 5.9102,0 0,1.2946 1.266471,0 0,-1.2946 L 19.442629,1035.5709 z m 7.852122,0 0,1.2664 1.266472,0 0,-1.2664 L 27.294751,1035.5709 z m 7.852122,0 0,1.2946 1.294615,0 0,-1.2946 L 35.146873,1035.5709 z m -21.614444,1.97 0,1.2666 1.294617,0 0,-1.2666 L 13.532429,1037.5409 z m 13.762322,0 0,1.2666 1.266472,0 0,-1.2666 L 27.294751,1037.5409 z m 7.852122,0 0,1.2666 1.294615,0 0,-1.2666 L 35.146873,1037.5409 z m -27.4964979,0.028 0,1.2666 1.266472,0 0,-1.2666 L 7.6503751,1037.569 z m 11.7922539,0 0,1.2666 1.266471,0 0,-1.2666 L 19.442629,1037.569 z m -3.940133,1.942 0,1.2665 1.266472,0 0,-1.2665 L 15.502496,1039.511 z m 11.792255,0 0,1.2665 1.266472,0 0,-1.2665 L 27.294751,1039.511 z m 9.822189,0 0,1.2665 1.266471,0 0,-1.2665 L 37.11694,1039.511 z m -29.4665649,0.028 0,1.2664 1.266472,0 0,-1.2664 L 7.6503751,1039.5392 z m 11.7922539,0 0,1.2664 1.266471,0 0,-1.2664 L 19.442629,1039.5392 z m 13.734177,0 0,1.2664 1.294616,0 0,-1.2664 L 33.176806,1039.5392 z m -23.5563645,1.9419 0,1.2664 1.2664705,0 0,-1.2664 L 9.6204415,1041.481 z m 1.9419225,0 0,1.2664 1.294614,0 0,-1.2664 L 11.562364,1041.481 z m 1.970065,0 0,1.2664 1.294617,0 0,-1.2664 L 13.532429,1041.481 z m 7.852123,0 0,1.2664 1.294614,0 0,-1.2664 L 21.384552,1041.481 z m 1.970066,0 0,1.2664 1.294615,0 0,-1.2664 L 23.354618,1041.481 z m 1.970067,0 0,1.2664 1.294615,0 0,-1.2664 L 25.324685,1041.481 z m 1.970066,0 0,1.2664 1.266472,0 0,-1.2664 L 27.294751,1041.481 z m 3.940133,0 0,1.2664 1.266471,0 0,-1.2664 L 31.234884,1041.481 z m 7.852123,0 0,1.2664 1.266472,0 0,-1.2664 L 39.087007,1041.481 z m -31.4366319,0.028 0,1.2665 1.266472,0 0,-1.2665 L 7.6503751,1041.5093 z m 11.7922539,0 0,1.2665 1.266471,0 0,-1.2665 L 19.442629,1041.5093 Z"
       id="rect974"
       inkscape:connector-curvature="0" />
    <path
       style="font-size:40px;font-style:normal;font-variant:normal;font-weight:bold;font-stretch:normal;line-height:125%;letter-spacing:0px;word-spacing:0px;fill:#ffffff;fill-opacity:0.39301309;stroke:none;font-family:Impact;-inkscape-font-specification:Impact Bold"
       d="m 7.6503751,1015.2229 0,0.2252 1.266472,0 0,-0.2252 L 7.6503751,1015.2229 z m 1.9700664,0 0,0.2252 1.2664705,0 0,-0.2252 L 9.6204415,1015.2229 z m 1.9419225,0 0,0.2252 1.294614,0 0,-0.2252 L 11.562364,1015.2229 z m 1.970065,0 0,0.2252 1.294617,0 0,-0.2252 L 13.532429,1015.2229 z m 5.9102,0 0,0.2252 1.266472,0 0,-0.2252 L 19.442629,1015.2229 z m 1.941923,0 0,0.2252 1.294614,0 0,-0.2252 L 21.384552,1015.2229 z m 1.970066,0 0,0.2252 1.294615,0 0,-0.2252 L 23.354618,1015.2229 z m 1.970067,0 0,0.2252 1.294614,0 0,-0.2252 L 25.324685,1015.2229 z m 1.970066,0 0,0.2252 1.266471,0 0,-0.2252 L 27.294751,1015.2229 z m 5.882055,0 0,0.2252 1.294616,0 0,-0.2252 L 33.176806,1015.2229 z m 1.970067,0 0,0.2252 1.294615,0 0,-0.2252 L 35.146873,1015.2229 z m 1.970067,0 0,0.2252 1.266471,0 0,-0.2252 L 37.11694,1015.2229 z m -29.4665649,1.97 0,0.2252 1.266472,0 0,-0.2252 L 7.6503751,1017.1929 z m 7.8521209,0 0,0.2252 1.266472,0 0,-0.2252 L 15.502496,1017.1929 z m 3.940133,0 0,0.2252 1.266472,0 0,-0.2252 L 19.442629,1017.1929 z m 7.852122,0 0,0.2252 1.266471,0 0,-0.2252 L 27.294751,1017.1929 z m 3.940133,0 0,0.2252 1.266471,0 0,-0.2252 L 31.234884,1017.1929 z m 7.852123,0 0,0.2252 1.266472,0 0,-0.2252 L 39.087007,1017.1929 z m -31.4366319,1.9702 0,0.2251 1.266472,0 0,-0.2251 L 7.6503751,1019.1631 z m 7.8521209,0 0,0.2251 1.266472,0 0,-0.2251 L 15.502496,1019.1631 z m 3.940133,0 0,0.2251 1.266472,0 0,-0.2251 L 19.442629,1019.1631 z m 7.852122,0 0,0.2251 1.266471,0 0,-0.2251 L 27.294751,1019.1631 z m 3.940133,0 0,0.2251 1.266471,0 0,-0.2251 L 31.234884,1019.1631 z m 1.941922,0 0,0.2251 1.294616,0 0,-0.2251 L 33.176806,1019.1631 z m 1.970067,0 0,0.2251 1.294615,0 0,-0.2251 L 35.146873,1019.1631 z m 1.970067,0 0,0.2251 1.266471,0 0,-0.2251 L 37.11694,1019.1631 z m -21.614444,1.97 0,0.2251 1.266472,0 0,-0.2251 L 15.502496,1021.1331 z m 11.792255,0 0,0.2251 1.266471,0 0,-0.2251 L 27.294751,1021.1331 z m 11.792256,0 0,0.2251 1.266472,0 0,-0.2251 L 39.087007,1021.1331 z m -31.4366319,0.028 0,0.2252 1.266472,0 0,-0.2252 L 7.6503751,1021.1612 z m 11.7922539,0 0,0.2252 1.266472,0 0,-0.2252 L 19.442629,1021.1612 z m -3.940133,1.942 0,0.2252 1.266472,0 0,-0.2252 L 15.502496,1023.1032 z m 11.792255,0 0,0.2252 1.266471,0 0,-0.2252 L 27.294751,1023.1032 z m 11.792256,0 0,0.2252 1.266472,0 0,-0.2252 L 39.087007,1023.1032 z m -31.4366319,0.028 0,0.2252 1.266472,0 0,-0.2252 L 7.6503751,1023.1313 z m 11.7922539,0 0,0.2252 1.266472,0 0,-0.2252 L 19.442629,1023.1313 z m 11.792255,0 0,0.2252 1.266471,0 0,-0.2252 L 31.234884,1023.1313 z m -21.6144425,1.9137 0,0.2252 1.2664705,0 0,-0.2252 L 9.6204415,1025.045 z m 1.9419225,0 0,0.2252 1.294614,0 0,-0.2252 L 11.562364,1025.045 z m 1.970065,0 0,0.2252 1.294617,0 0,-0.2252 L 13.532429,1025.045 z m 7.852123,0 0,0.2252 1.294614,0 0,-0.2252 L 21.384552,1025.045 z m 1.970066,0 0,0.2252 1.294615,0 0,-0.2252 L 23.354618,1025.045 z m 1.970067,0 0,0.2252 1.294614,0 0,-0.2252 L 25.324685,1025.045 z m 1.970066,0 0,0.2252 1.266471,0 0,-0.2252 L 27.294751,1025.045 z m 5.882055,0 0,0.2252 1.294616,0 0,-0.2252 L 33.176806,1025.045 z m 1.970067,0 0,0.2252 1.294615,0 0,-0.2252 L 35.146873,1025.045 z m 1.970067,0 0,0.2252 1.266471,0 0,-0.2252 L 37.11694,1025.045 z m -29.4665649,0.056 0,0.2251 1.266472,0 0,-0.2251 L 7.6503751,1025.1014 z m 11.7922539,0 0,0.2251 1.266472,0 0,-0.2251 L 19.442629,1025.1014 Z"
       id="path1074"
       inkscape:connector-curvature="0" />
    <path
       inkscape:connector-curvature="0"
       id="path1079"
       d="m 7.6503751,1015.4481 0,0.2252 1.266472,0 0,-0.2252 L 7.6503751,1015.4481 z m 1.9700664,0 0,0.2252 1.2664705,0 0,-0.2252 L 9.6204415,1015.4481 z m 1.9419225,0 0,0.2252 1.294614,0 0,-0.2252 L 11.562364,1015.4481 z m 1.970065,0 0,0.2252 1.294617,0 0,-0.2252 L 13.532429,1015.4481 z m 5.9102,0 0,0.2252 1.266472,0 0,-0.2252 L 19.442629,1015.4481 z m 1.941923,0 0,0.2252 1.294614,0 0,-0.2252 L 21.384552,1015.4481 z m 1.970066,0 0,0.2252 1.294615,0 0,-0.2252 L 23.354618,1015.4481 z m 1.970067,0 0,0.2252 1.294614,0 0,-0.2252 L 25.324685,1015.4481 z m 1.970066,0 0,0.2252 1.266471,0 0,-0.2252 L 27.294751,1015.4481 z m 5.882055,0 0,0.2252 1.294616,0 0,-0.2252 L 33.176806,1015.4481 z m 1.970067,0 0,0.2252 1.294615,0 0,-0.2252 L 35.146873,1015.4481 z m 1.970067,0 0,0.2252 1.266471,0 0,-0.2252 L 37.11694,1015.4481 z m -29.4665649,1.97 0,0.2251 1.266472,0 0,-0.2251 L 7.6503751,1017.4181 z m 7.8521209,0 0,0.2251 1.266472,0 0,-0.2251 L 15.502496,1017.4181 z m 3.940133,0 0,0.2251 1.266472,0 0,-0.2251 L 19.442629,1017.4181 z m 7.852122,0 0,0.2251 1.266471,0 0,-0.2251 L 27.294751,1017.4181 z m 3.940133,0 0,0.2251 1.266471,0 0,-0.2251 L 31.234884,1017.4181 z m 7.852123,0 0,0.2251 1.266472,0 0,-0.2251 L 39.087007,1017.4181 z m -31.4366319,1.9701 0,0.2252 1.266472,0 0,-0.2252 L 7.6503751,1019.3882 z m 7.8521209,0 0,0.2252 1.266472,0 0,-0.2252 L 15.502496,1019.3882 z m 3.940133,0 0,0.2252 1.266472,0 0,-0.2252 L 19.442629,1019.3882 z m 7.852122,0 0,0.2252 1.266471,0 0,-0.2252 L 27.294751,1019.3882 z m 3.940133,0 0,0.2252 1.266471,0 0,-0.2252 L 31.234884,1019.3882 z m 1.941922,0 0,0.2252 1.294616,0 0,-0.2252 L 33.176806,1019.3882 z m 1.970067,0 0,0.2252 1.294615,0 0,-0.2252 L 35.146873,1019.3882 z m 1.970067,0 0,0.2252 1.266471,0 0,-0.2252 L 37.11694,1019.3882 z m -21.614444,1.97 0,0.2252 1.266472,0 0,-0.2252 L 15.502496,1021.3582 z m 11.792255,0 0,0.2252 1.266471,0 0,-0.2252 L 27.294751,1021.3582 z m 11.792256,0 0,0.2252 1.266472,0 0,-0.2252 L 39.087007,1021.3582 z m -31.4366319,0.028 0,0.2251 1.266472,0 0,-0.2251 L 7.6503751,1021.3864 z m 11.7922539,0 0,0.2251 1.266472,0 0,-0.2251 L 19.442629,1021.3864 z m -3.940133,1.942 0,0.2251 1.266472,0 0,-0.2251 L 15.502496,1023.3284 z m 11.792255,0 0,0.2251 1.266471,0 0,-0.2251 L 27.294751,1023.3284 z m 11.792256,0 0,0.2251 1.266472,0 0,-0.2251 L 39.087007,1023.3284 z m -31.4366319,0.028 0,0.2252 1.266472,0 0,-0.2252 L 7.6503751,1023.3565 z m 11.7922539,0 0,0.2252 1.266472,0 0,-0.2252 L 19.442629,1023.3565 z m 11.792255,0 0,0.2252 1.266471,0 0,-0.2252 L 31.234884,1023.3565 z m -21.6144425,1.9137 0,0.2251 1.2664705,0 0,-0.2251 L 9.6204415,1025.2702 z m 1.9419225,0 0,0.2251 1.294614,0 0,-0.2251 L 11.562364,1025.2702 z m 1.970065,0 0,0.2251 1.294617,0 0,-0.2251 L 13.532429,1025.2702 z m 7.852123,0 0,0.2251 1.294614,0 0,-0.2251 L 21.384552,1025.2702 z m 1.970066,0 0,0.2251 1.294615,0 0,-0.2251 L 23.354618,1025.2702 z m 1.970067,0 0,0.2251 1.294614,0 0,-0.2251 L 25.324685,1025.2702 z m 1.970066,0 0,0.2251 1.266471,0 0,-0.2251 L 27.294751,1025.2702 z m 5.882055,0 0,0.2251 1.294616,0 0,-0.2251 L 33.176806,1025.2702 z m 1.970067,0 0,0.2251 1.294615,0 0,-0.2251 L 35.146873,1025.2702 z m 1.970067,0 0,0.2251 1.266471,0 0,-0.2251 L 37.11694,1025.2702 z m -29.4665649,0.056 0,0.2252 1.266472,0 0,-0.2252 L 7.6503751,1025.3265 z m 11.7922539,0 0,0.2252 1.266472,0 0,-0.2252 L 19.442629,1025.3265 Z"
       style="font-size:40px;font-style:normal;font-variant:normal;font-weight:bold;font-stretch:normal;line-height:125%;letter-spacing:0px;word-spacing:0px;fill:#ffffff;fill-opacity:0.22270741;stroke:none;font-family:Impact;-inkscape-font-specification:Impact Bold" />
    <path
       style="font-size:40px;font-style:normal;font-variant:normal;font-weight:bold;font-stretch:normal;line-height:125%;letter-spacing:0px;word-spacing:0px;fill:#ffffff;fill-opacity:0.12663754;stroke:none;font-family:Impact;-inkscape-font-specification:Impact Bold"
       d="m 7.6503751,1015.6767 0,0.2252 1.266472,0 0,-0.2252 L 7.6503751,1015.6767 z m 1.9700664,0 0,0.2252 1.2664705,0 0,-0.2252 L 9.6204415,1015.6767 z m 1.9419225,0 0,0.2252 1.294614,0 0,-0.2252 L 11.562364,1015.6767 z m 1.970065,0 0,0.2252 1.294617,0 0,-0.2252 L 13.532429,1015.6767 z m 5.9102,0 0,0.2252 1.266472,0 0,-0.2252 L 19.442629,1015.6767 z m 1.941923,0 0,0.2252 1.294614,0 0,-0.2252 L 21.384552,1015.6767 z m 1.970066,0 0,0.2252 1.294615,0 0,-0.2252 L 23.354618,1015.6767 z m 1.970067,0 0,0.2252 1.294614,0 0,-0.2252 L 25.324685,1015.6767 z m 1.970066,0 0,0.2252 1.266471,0 0,-0.2252 L 27.294751,1015.6767 z m 5.882055,0 0,0.2252 1.294616,0 0,-0.2252 L 33.176806,1015.6767 z m 1.970067,0 0,0.2252 1.294615,0 0,-0.2252 L 35.146873,1015.6767 z m 1.970067,0 0,0.2252 1.266471,0 0,-0.2252 L 37.11694,1015.6767 z m -29.4665649,1.9701 0,0.2251 1.266472,0 0,-0.2251 L 7.6503751,1017.6468 z m 7.8521209,0 0,0.2251 1.266472,0 0,-0.2251 L 15.502496,1017.6468 z m 3.940133,0 0,0.2251 1.266472,0 0,-0.2251 L 19.442629,1017.6468 z m 7.852122,0 0,0.2251 1.266471,0 0,-0.2251 L 27.294751,1017.6468 z m 3.940133,0 0,0.2251 1.266471,0 0,-0.2251 L 31.234884,1017.6468 z m 7.852123,0 0,0.2251 1.266472,0 0,-0.2251 L 39.087007,1017.6468 z m -31.4366319,1.9701 0,0.2252 1.266472,0 0,-0.2252 L 7.6503751,1019.6169 z m 7.8521209,0 0,0.2252 1.266472,0 0,-0.2252 L 15.502496,1019.6169 z m 3.940133,0 0,0.2252 1.266472,0 0,-0.2252 L 19.442629,1019.6169 z m 7.852122,0 0,0.2252 1.266471,0 0,-0.2252 L 27.294751,1019.6169 z m 3.940133,0 0,0.2252 1.266471,0 0,-0.2252 L 31.234884,1019.6169 z m 1.941922,0 0,0.2252 1.294616,0 0,-0.2252 L 33.176806,1019.6169 z m 1.970067,0 0,0.2252 1.294615,0 0,-0.2252 L 35.146873,1019.6169 z m 1.970067,0 0,0.2252 1.266471,0 0,-0.2252 L 37.11694,1019.6169 z m -21.614444,1.97 0,0.2251 1.266472,0 0,-0.2251 L 15.502496,1021.5869 z m 11.792255,0 0,0.2251 1.266471,0 0,-0.2251 L 27.294751,1021.5869 z m 11.792256,0 0,0.2251 1.266472,0 0,-0.2251 L 39.087007,1021.5869 z m -31.4366319,0.028 0,0.2251 1.266472,0 0,-0.2251 L 7.6503751,1021.6151 z m 11.7922539,0 0,0.2251 1.266472,0 0,-0.2251 L 19.442629,1021.6151 z m -3.940133,1.9419 0,0.2251 1.266472,0 0,-0.2251 L 15.502496,1023.557 z m 11.792255,0 0,0.2251 1.266471,0 0,-0.2251 L 27.294751,1023.557 z m 11.792256,0 0,0.2251 1.266472,0 0,-0.2251 L 39.087007,1023.557 z m -31.4366319,0.028 0,0.2252 1.266472,0 0,-0.2252 L 7.6503751,1023.5852 z m 11.7922539,0 0,0.2252 1.266472,0 0,-0.2252 L 19.442629,1023.5852 z m 11.792255,0 0,0.2252 1.266471,0 0,-0.2252 L 31.234884,1023.5852 z m -21.6144425,1.9137 0,0.2252 1.2664705,0 0,-0.2252 L 9.6204415,1025.4989 z m 1.9419225,0 0,0.2252 1.294614,0 0,-0.2252 L 11.562364,1025.4989 z m 1.970065,0 0,0.2252 1.294617,0 0,-0.2252 L 13.532429,1025.4989 z m 7.852123,0 0,0.2252 1.294614,0 0,-0.2252 L 21.384552,1025.4989 z m 1.970066,0 0,0.2252 1.294615,0 0,-0.2252 L 23.354618,1025.4989 z m 1.970067,0 0,0.2252 1.294614,0 0,-0.2252 L 25.324685,1025.4989 z m 1.970066,0 0,0.2252 1.266471,0 0,-0.2252 L 27.294751,1025.4989 z m 5.882055,0 0,0.2252 1.294616,0 0,-0.2252 L 33.176806,1025.4989 z m 1.970067,0 0,0.2252 1.294615,0 0,-0.2252 L 35.146873,1025.4989 z m 1.970067,0 0,0.2252 1.266471,0 0,-0.2252 L 37.11694,1025.4989 z m -29.4665649,0.056 0,0.2252 1.266472,0 0,-0.2252 L 7.6503751,1025.5551 z m 11.7922539,0 0,0.2252 1.266472,0 0,-0.2252 L 19.442629,1025.5551 Z"
       id="path1081"
       inkscape:connector-curvature="0" />
    <path
       style="font-size:40px;font-style:normal;font-variant:normal;font-weight:bold;font-stretch:normal;line-height:125%;letter-spacing:0px;word-spacing:0px;fill:#ffffff;fill-opacity:0.39215686;stroke:none;font-family:Impact;-inkscape-font-specification:Impact Bold"
       d="m 7.4782444,1013.9564 0,1.2665 0.1688634,0 0,-1.2665 L 7.4782444,1013.9564 z m 1.9700665,0 0,1.2665 0.1688634,0 0,-1.2665 L 9.4483109,1013.9564 z m 1.9419221,0 0,1.2665 0.168862,0 0,-1.2665 L 11.390233,1013.9564 z m 1.970066,0 0,1.2665 0.168862,0 0,-1.2665 L 13.360299,1013.9564 z m 5.910199,0 0,1.2665 0.168863,0 0,-1.2665 L 19.270498,1013.9564 z m 1.941923,0 0,1.2665 0.168864,0 0,-1.2665 L 21.212421,1013.9564 z m 1.970067,0 0,1.2665 0.168862,0 0,-1.2665 L 23.182488,1013.9564 z m 1.970066,0 0,1.2665 0.168863,0 0,-1.2665 L 25.152554,1013.9564 z m 1.970067,0 0,1.2665 0.168862,0 0,-1.2665 L 27.122621,1013.9564 z m 5.882055,0 0,1.2665 0.168862,0 0,-1.2665 L 33.004676,1013.9564 z m 1.970066,0 0,1.2665 0.168864,0 0,-1.2665 L 34.974742,1013.9564 z m 1.970068,0 0,1.2665 0.168863,0 0,-1.2665 L 36.94481,1013.9564 z m -29.4665656,1.9702 0,1.2663 0.1688634,0 0,-1.2663 L 7.4782444,1015.9266 z m 7.8521206,0 0,1.2663 0.168863,0 0,-1.2663 L 15.330365,1015.9266 z m 3.940133,0 0,1.2663 0.168863,0 0,-1.2663 L 19.270498,1015.9266 z m 7.852123,0 0,1.2663 0.168862,0 0,-1.2663 L 27.122621,1015.9266 z m 3.940132,0 0,1.2663 0.168862,0 0,-1.2663 L 31.062753,1015.9266 z m 7.852123,0 0,1.2663 0.168864,0 0,-1.2663 L 38.914876,1015.9266 z m -31.4366316,1.9699 0,1.2666 0.1688634,0 0,-1.2666 L 7.4782444,1017.8965 z m 7.8521206,0 0,1.2666 0.168863,0 0,-1.2666 L 15.330365,1017.8965 z m 3.940133,0 0,1.2666 0.168863,0 0,-1.2666 L 19.270498,1017.8965 z m 7.852123,0 0,1.2666 0.168862,0 0,-1.2666 L 27.122621,1017.8965 z m 3.940132,0 0,1.2666 0.168862,0 0,-1.2666 L 31.062753,1017.8965 z m 1.941923,0 0,1.2666 0.168862,0 0,-1.2666 L 33.004676,1017.8965 z m 1.970066,0 0,1.2666 0.168864,0 0,-1.2666 L 34.974742,1017.8965 z m 1.970068,0 0,1.2666 0.168863,0 0,-1.2666 L 36.94481,1017.8965 z m -21.614445,1.942 0,1.2946 0.168863,0 0,-1.2946 L 15.330365,1019.8385 z m 11.792256,0 0,1.2946 0.168862,0 0,-1.2946 L 27.122621,1019.8385 z m 11.792255,0 0,1.2946 0.168864,0 0,-1.2946 L 38.914876,1019.8385 z m -31.4366316,0.028 0,1.2946 0.1688634,0 0,-1.2946 L 7.4782444,1019.8666 z m 11.7922536,0 0,1.2946 0.168863,0 0,-1.2946 L 19.270498,1019.8666 z m -3.940133,1.9419 0,1.2947 0.168863,0 0,-1.2947 L 15.330365,1021.8085 z m 11.792256,0 0,1.2947 0.168862,0 0,-1.2947 L 27.122621,1021.8085 z m 11.792255,0 0,1.2947 0.168864,0 0,-1.2947 L 38.914876,1021.8085 z m -31.4366316,0.028 0,1.2946 0.1688634,0 0,-1.2946 L 7.4782444,1021.8367 z m 11.7922536,0 0,1.2946 0.168863,0 0,-1.2946 L 19.270498,1021.8367 z m 11.792255,0 0,1.2946 0.168862,0 0,-1.2946 L 31.062753,1021.8367 z m -21.6144421,1.942 0,1.2663 0.1688634,0 0,-1.2663 L 9.4483109,1023.7787 z m 1.9419221,0 0,1.2663 0.168862,0 0,-1.2663 L 11.390233,1023.7787 z m 1.970066,0 0,1.2663 0.168862,0 0,-1.2663 L 13.360299,1023.7787 z m 7.852122,0 0,1.2663 0.168864,0 0,-1.2663 L 21.212421,1023.7787 z m 1.970067,0 0,1.2663 0.168862,0 0,-1.2663 L 23.182488,1023.7787 z m 1.970066,0 0,1.2663 0.168863,0 0,-1.2663 L 25.152554,1023.7787 z m 1.970067,0 0,1.2663 0.168862,0 0,-1.2663 L 27.122621,1023.7787 z m 5.882055,0 0,1.2663 0.168862,0 0,-1.2663 L 33.004676,1023.7787 z m 1.970066,0 0,1.2663 0.168864,0 0,-1.2663 L 34.974742,1023.7787 z m 1.970068,0 0,1.2663 0.168863,0 0,-1.2663 L 36.94481,1023.7787 z m -29.4665656,0.028 0,1.2946 0.1688634,0 0,-1.2946 L 7.4782444,1023.8068 z m 11.7922536,0 0,1.2946 0.168863,0 0,-1.2946 L 19.270498,1023.8068 Z"
       id="path1083"
       inkscape:connector-curvature="0" />
    <path
       inkscape:connector-curvature="0"
       id="path1088"
       d="m 7.3090886,1013.9564 0,1.2665 0.1688633,0 0,-1.2665 L 7.3090886,1013.9564 z m 1.9700663,0 0,1.2665 0.1688634,0 0,-1.2665 L 9.2791549,1013.9564 z m 1.9419221,0 0,1.2665 0.168862,0 0,-1.2665 L 11.221077,1013.9564 z m 1.970066,0 0,1.2665 0.168864,0 0,-1.2665 L 13.191143,1013.9564 z m 5.9102,0 0,1.2665 0.168863,0 0,-1.2665 L 19.101343,1013.9564 z m 1.941923,0 0,1.2665 0.168862,0 0,-1.2665 L 21.043266,1013.9564 z m 1.970065,0 0,1.2665 0.168863,0 0,-1.2665 L 23.013331,1013.9564 z m 1.970067,0 0,1.2665 0.168862,0 0,-1.2665 L 24.983398,1013.9564 z m 1.970066,0 0,1.2665 0.168863,0 0,-1.2665 L 26.953464,1013.9564 z m 5.882056,0 0,1.2665 0.168863,0 0,-1.2665 L 32.83552,1013.9564 z m 1.970067,0 0,1.2665 0.168863,0 0,-1.2665 L 34.805587,1013.9564 z m 1.970066,0 0,1.2665 0.168863,0 0,-1.2665 L 36.775653,1013.9564 z m -29.4665644,1.9702 0,1.2663 0.1688633,0 0,-1.2663 L 7.3090886,1015.9266 z m 7.8521214,0 0,1.2663 0.168862,0 0,-1.2663 L 15.16121,1015.9266 z m 3.940133,0 0,1.2663 0.168863,0 0,-1.2663 L 19.101343,1015.9266 z m 7.852121,0 0,1.2663 0.168863,0 0,-1.2663 L 26.953464,1015.9266 z m 3.940133,0 0,1.2663 0.168863,0 0,-1.2663 L 30.893597,1015.9266 z m 7.852123,0 0,1.2663 0.168863,0 0,-1.2663 L 38.74572,1015.9266 z m -31.4366314,1.9699 0,1.2666 0.1688633,0 0,-1.2666 L 7.3090886,1017.8965 z m 7.8521214,0 0,1.2666 0.168862,0 0,-1.2666 L 15.16121,1017.8965 z m 3.940133,0 0,1.2666 0.168863,0 0,-1.2666 L 19.101343,1017.8965 z m 7.852121,0 0,1.2666 0.168863,0 0,-1.2666 L 26.953464,1017.8965 z m 3.940133,0 0,1.2666 0.168863,0 0,-1.2666 L 30.893597,1017.8965 z m 1.941923,0 0,1.2666 0.168863,0 0,-1.2666 L 32.83552,1017.8965 z m 1.970067,0 0,1.2666 0.168863,0 0,-1.2666 L 34.805587,1017.8965 z m 1.970066,0 0,1.2666 0.168863,0 0,-1.2666 L 36.775653,1017.8965 z m -21.614443,1.942 0,1.2946 0.168862,0 0,-1.2946 L 15.16121,1019.8385 z m 11.792254,0 0,1.2946 0.168863,0 0,-1.2946 L 26.953464,1019.8385 z m 11.792256,0 0,1.2946 0.168863,0 0,-1.2946 L 38.74572,1019.8385 z m -31.4366314,0.028 0,1.2946 0.1688633,0 0,-1.2946 L 7.3090886,1019.8666 z m 11.7922544,0 0,1.2946 0.168863,0 0,-1.2946 L 19.101343,1019.8666 z m -3.940133,1.9419 0,1.2947 0.168862,0 0,-1.2947 L 15.16121,1021.8085 z m 11.792254,0 0,1.2947 0.168863,0 0,-1.2947 L 26.953464,1021.8085 z m 11.792256,0 0,1.2947 0.168863,0 0,-1.2947 L 38.74572,1021.8085 z m -31.4366314,0.028 0,1.2946 0.1688633,0 0,-1.2946 L 7.3090886,1021.8367 z m 11.7922544,0 0,1.2946 0.168863,0 0,-1.2946 L 19.101343,1021.8367 z m 11.792254,0 0,1.2946 0.168863,0 0,-1.2946 L 30.893597,1021.8367 z m -21.6144421,1.942 0,1.2663 0.1688634,0 0,-1.2663 L 9.2791549,1023.7787 z m 1.9419221,0 0,1.2663 0.168862,0 0,-1.2663 L 11.221077,1023.7787 z m 1.970066,0 0,1.2663 0.168864,0 0,-1.2663 L 13.191143,1023.7787 z m 7.852123,0 0,1.2663 0.168862,0 0,-1.2663 L 21.043266,1023.7787 z m 1.970065,0 0,1.2663 0.168863,0 0,-1.2663 L 23.013331,1023.7787 z m 1.970067,0 0,1.2663 0.168862,0 0,-1.2663 L 24.983398,1023.7787 z m 1.970066,0 0,1.2663 0.168863,0 0,-1.2663 L 26.953464,1023.7787 z m 5.882056,0 0,1.2663 0.168863,0 0,-1.2663 L 32.83552,1023.7787 z m 1.970067,0 0,1.2663 0.168863,0 0,-1.2663 L 34.805587,1023.7787 z m 1.970066,0 0,1.2663 0.168863,0 0,-1.2663 L 36.775653,1023.7787 z m -29.4665644,0.028 0,1.2946 0.1688633,0 0,-1.2946 L 7.3090886,1023.8068 z m 11.7922544,0 0,1.2946 0.168863,0 0,-1.2946 L 19.101343,1023.8068 Z"
       style="font-size:40px;font-style:normal;font-variant:normal;font-weight:bold;font-stretch:normal;line-height:125%;letter-spacing:0px;word-spacing:0px;fill:#ffffff;fill-opacity:0.22352941;stroke:none;font-family:Impact;-inkscape-font-specification:Impact Bold" />
    <path
       style="font-size:40px;font-style:normal;font-variant:normal;font-weight:bold;font-stretch:normal;line-height:125%;letter-spacing:0px;word-spacing:0px;fill:#ffffff;fill-opacity:0.1254902;stroke:none;font-family:Impact;-inkscape-font-specification:Impact Bold"
       d="m 7.1399327,1013.9564 0,1.2665 0.1688634,0 0,-1.2665 L 7.1399327,1013.9564 z m 1.9700663,0 0,1.2665 0.1688634,0 0,-1.2665 L 9.1099991,1013.9564 z m 1.941922,0 0,1.2665 0.168864,0 0,-1.2665 L 11.051921,1013.9564 z m 1.970067,0 0,1.2665 0.168863,0 0,-1.2665 L 13.021988,1013.9564 z m 5.910198,0 0,1.2665 0.168864,0 0,-1.2665 L 18.932186,1013.9564 z m 1.941923,0 0,1.2665 0.168863,0 0,-1.2665 L 20.874109,1013.9564 z m 1.970067,0 0,1.2665 0.168863,0 0,-1.2665 L 22.844176,1013.9564 z m 1.970066,0 0,1.2665 0.168863,0 0,-1.2665 L 24.814242,1013.9564 z m 1.970067,0 0,1.2665 0.168862,0 0,-1.2665 L 26.784309,1013.9564 z m 5.882055,0 0,1.2665 0.168863,0 0,-1.2665 L 32.666364,1013.9564 z m 1.970066,0 0,1.2665 0.168864,0 0,-1.2665 L 34.63643,1013.9564 z m 1.970067,0 0,1.2665 0.168863,0 0,-1.2665 L 36.606497,1013.9564 z m -29.4665643,1.9702 0,1.2663 0.1688634,0 0,-1.2663 L 7.1399327,1015.9266 z m 7.8521213,0 0,1.2663 0.168862,0 0,-1.2663 L 14.992054,1015.9266 z m 3.940132,0 0,1.2663 0.168864,0 0,-1.2663 L 18.932186,1015.9266 z m 7.852123,0 0,1.2663 0.168862,0 0,-1.2663 L 26.784309,1015.9266 z m 3.940133,0 0,1.2663 0.168861,0 0,-1.2663 L 30.724442,1015.9266 z m 7.852122,0 0,1.2663 0.168863,0 0,-1.2663 L 38.576564,1015.9266 z m -31.4366313,1.9699 0,1.2666 0.1688634,0 0,-1.2666 L 7.1399327,1017.8965 z m 7.8521213,0 0,1.2666 0.168862,0 0,-1.2666 L 14.992054,1017.8965 z m 3.940132,0 0,1.2666 0.168864,0 0,-1.2666 L 18.932186,1017.8965 z m 7.852123,0 0,1.2666 0.168862,0 0,-1.2666 L 26.784309,1017.8965 z m 3.940133,0 0,1.2666 0.168861,0 0,-1.2666 L 30.724442,1017.8965 z m 1.941922,0 0,1.2666 0.168863,0 0,-1.2666 L 32.666364,1017.8965 z m 1.970066,0 0,1.2666 0.168864,0 0,-1.2666 L 34.63643,1017.8965 z m 1.970067,0 0,1.2666 0.168863,0 0,-1.2666 L 36.606497,1017.8965 z m -21.614443,1.942 0,1.2946 0.168862,0 0,-1.2946 L 14.992054,1019.8385 z m 11.792255,0 0,1.2946 0.168862,0 0,-1.2946 L 26.784309,1019.8385 z m 11.792255,0 0,1.2946 0.168863,0 0,-1.2946 L 38.576564,1019.8385 z m -31.4366313,0.028 0,1.2946 0.1688634,0 0,-1.2946 L 7.1399327,1019.8666 z m 11.7922533,0 0,1.2946 0.168864,0 0,-1.2946 L 18.932186,1019.8666 z m -3.940132,1.9419 0,1.2947 0.168862,0 0,-1.2947 L 14.992054,1021.8085 z m 11.792255,0 0,1.2947 0.168862,0 0,-1.2947 L 26.784309,1021.8085 z m 11.792255,0 0,1.2947 0.168863,0 0,-1.2947 L 38.576564,1021.8085 z m -31.4366313,0.028 0,1.2946 0.1688634,0 0,-1.2946 L 7.1399327,1021.8367 z m 11.7922533,0 0,1.2946 0.168864,0 0,-1.2946 L 18.932186,1021.8367 z m 11.792256,0 0,1.2946 0.168861,0 0,-1.2946 L 30.724442,1021.8367 z m -21.6144429,1.942 0,1.2663 0.1688633,0 0,-1.2663 L 9.1099991,1023.7787 z m 1.9419219,0 0,1.2663 0.168864,0 0,-1.2663 L 11.051921,1023.7787 z m 1.970067,0 0,1.2663 0.168863,0 0,-1.2663 L 13.021988,1023.7787 z m 7.852121,0 0,1.2663 0.168863,0 0,-1.2663 L 20.874109,1023.7787 z m 1.970067,0 0,1.2663 0.168863,0 0,-1.2663 L 22.844176,1023.7787 z m 1.970066,0 0,1.2663 0.168863,0 0,-1.2663 L 24.814242,1023.7787 z m 1.970067,0 0,1.2663 0.168862,0 0,-1.2663 L 26.784309,1023.7787 z m 5.882055,0 0,1.2663 0.168863,0 0,-1.2663 L 32.666364,1023.7787 z m 1.970066,0 0,1.2663 0.168864,0 0,-1.2663 L 34.63643,1023.7787 z m 1.970067,0 0,1.2663 0.168863,0 0,-1.2663 L 36.606497,1023.7787 z m -29.4665643,0.028 0,1.2946 0.1688634,0 0,-1.2946 L 7.1399327,1023.8068 z m 11.7922533,0 0,1.2946 0.168864,0 0,-1.2946 L 18.932186,1023.8068 Z"
       id="path1090"
       inkscape:connector-curvature="0" />
    <path
       style="font-size:40px;font-style:normal;font-variant:normal;font-weight:bold;font-stretch:normal;line-height:125%;letter-spacing:0px;word-spacing:0px;fill:#ffffff;fill-opacity:0.39301309;stroke:none;font-family:Impact;-inkscape-font-specification:Impact Bold"
       d="m 8.9133286,1013.9564 0,1.2665 0.1688634,0 0,-1.2665 L 8.9133286,1013.9564 z m 1.9700664,0 0,1.2665 0.168862,0 0,-1.2665 L 10.883395,1013.9564 z m 1.970065,0 0,1.2665 0.168863,0 0,-1.2665 L 12.85346,1013.9564 z m 1.970067,0 0,1.2665 0.168863,0 0,-1.2665 L 14.823527,1013.9564 z m 5.882056,0 0,1.2665 0.168863,0 0,-1.2665 L 20.705583,1013.9564 z m 1.970066,0 0,1.2665 0.168863,0 0,-1.2665 L 22.675649,1013.9564 z m 1.970067,0 0,1.2665 0.168862,0 0,-1.2665 L 24.645716,1013.9564 z m 1.970065,0 0,1.2665 0.168864,0 0,-1.2665 L 26.615781,1013.9564 z m 1.941923,0 0,1.2665 0.168864,0 0,-1.2665 L 28.557704,1013.9564 z m 5.9102,0 0,1.2665 0.168863,0 0,-1.2665 L 34.467904,1013.9564 z m 1.970066,0 0,1.2665 0.168864,0 0,-1.2665 L 36.43797,1013.9564 z m 1.941924,0 0,1.2665 0.168864,0 0,-1.2665 L 38.379894,1013.9564 z m -29.4665655,1.9702 0,1.2663 0.1688635,0 0,-1.2663 L 8.9133286,1015.9266 z m 7.8521215,0 0,1.2663 0.168862,0 0,-1.2663 L 16.76545,1015.9266 z m 3.940133,0 0,1.2663 0.168863,0 0,-1.2663 L 20.705583,1015.9266 z m 7.852121,0 0,1.2663 0.168864,0 0,-1.2663 L 28.557704,1015.9266 z m 3.940133,0 0,1.2663 0.168863,0 0,-1.2663 L 32.497837,1015.9266 z m 7.852124,0 0,1.2663 0.168862,0 0,-1.2663 L 40.349961,1015.9266 z m -31.4366324,1.9699 0,1.2666 0.1688634,0 0,-1.2666 L 8.9133286,1017.8965 z m 7.8521214,0 0,1.2666 0.168862,0 0,-1.2666 L 16.76545,1017.8965 z m 3.940133,0 0,1.2666 0.168863,0 0,-1.2666 L 20.705583,1017.8965 z m 7.852121,0 0,1.2666 0.168864,0 0,-1.2666 L 28.557704,1017.8965 z m 3.940133,0 0,1.2666 0.168863,0 0,-1.2666 L 32.497837,1017.8965 z m 1.970067,0 0,1.2666 0.168863,0 0,-1.2666 L 34.467904,1017.8965 z m 1.970066,0 0,1.2666 0.168864,0 0,-1.2666 L 36.43797,1017.8965 z m 1.941924,0 0,1.2666 0.168864,0 0,-1.2666 L 38.379894,1017.8965 z m -21.614444,1.942 0,1.2946 0.168862,0 0,-1.2946 L 16.76545,1019.8385 z m 11.792254,0 0,1.2946 0.168864,0 0,-1.2946 L 28.557704,1019.8385 z m 11.792257,0 0,1.2946 0.168862,0 0,-1.2946 L 40.349961,1019.8385 z m -31.4366324,0.028 0,1.2946 0.1688634,0 0,-1.2946 L 8.9133286,1019.8666 z m 11.7922544,0 0,1.2946 0.168863,0 0,-1.2946 L 20.705583,1019.8666 z m -3.940133,1.9419 0,1.2947 0.168862,0 0,-1.2947 L 16.76545,1021.8085 z m 11.792254,0 0,1.2947 0.168864,0 0,-1.2947 L 28.557704,1021.8085 z m 11.792257,0 0,1.2947 0.168862,0 0,-1.2947 L 40.349961,1021.8085 z m -31.4366324,0.028 0,1.2946 0.1688634,0 0,-1.2946 L 8.9133286,1021.8367 z m 11.7922544,0 0,1.2946 0.168863,0 0,-1.2946 L 20.705583,1021.8367 z m 11.792254,0 0,1.2946 0.168863,0 0,-1.2946 L 32.497837,1021.8367 z m -21.614442,1.942 0,1.2663 0.168862,0 0,-1.2663 L 10.883395,1023.7787 z m 1.970065,0 0,1.2663 0.168863,0 0,-1.2663 L 12.85346,1023.7787 z m 1.970067,0 0,1.2663 0.168863,0 0,-1.2663 L 14.823527,1023.7787 z m 7.852122,0 0,1.2663 0.168863,0 0,-1.2663 L 22.675649,1023.7787 z m 1.970067,0 0,1.2663 0.168862,0 0,-1.2663 L 24.645716,1023.7787 z m 1.970065,0 0,1.2663 0.168864,0 0,-1.2663 L 26.615781,1023.7787 z m 1.941923,0 0,1.2663 0.168864,0 0,-1.2663 L 28.557704,1023.7787 z m 5.9102,0 0,1.2663 0.168863,0 0,-1.2663 L 34.467904,1023.7787 z m 1.970066,0 0,1.2663 0.168864,0 0,-1.2663 L 36.43797,1023.7787 z m 1.941924,0 0,1.2663 0.168864,0 0,-1.2663 L 38.379894,1023.7787 z m -29.4665654,0.028 0,1.2946 0.1688634,0 0,-1.2946 L 8.9133286,1023.8068 z m 11.7922544,0 0,1.2946 0.168863,0 0,-1.2946 L 20.705583,1023.8068 Z"
       id="path1098"
       inkscape:connector-curvature="0" />
    <path
       inkscape:connector-curvature="0"
       id="path1103"
       d="m 9.082192,1013.9564 0,1.2665 0.1688624,0 0,-1.2665 L 9.082192,1013.9564 z m 1.970065,0 0,1.2665 0.168863,0 0,-1.2665 L 11.052257,1013.9564 z m 1.970066,0 0,1.2665 0.168863,0 0,-1.2665 L 13.022323,1013.9564 z m 1.970067,0 0,1.2665 0.168863,0 0,-1.2665 L 14.99239,1013.9564 z m 5.882056,0 0,1.2665 0.168863,0 0,-1.2665 L 20.874446,1013.9564 z m 1.970066,0 0,1.2665 0.168863,0 0,-1.2665 L 22.844512,1013.9564 z m 1.970066,0 0,1.2665 0.168863,0 0,-1.2665 L 24.814578,1013.9564 z m 1.970067,0 0,1.2665 0.168862,0 0,-1.2665 L 26.784645,1013.9564 z m 1.941923,0 0,1.2665 0.168862,0 0,-1.2665 L 28.726568,1013.9564 z m 5.910199,0 0,1.2665 0.168863,0 0,-1.2665 L 34.636767,1013.9564 z m 1.970067,0 0,1.2665 0.168862,0 0,-1.2665 L 36.606834,1013.9564 z m 1.941924,0 0,1.2665 0.168862,0 0,-1.2665 L 38.548758,1013.9564 z m -29.466566,1.9702 0,1.2663 0.1688624,0 0,-1.2663 L 9.082192,1015.9266 z m 7.85212,0 0,1.2663 0.168864,0 0,-1.2663 L 16.934312,1015.9266 z m 3.940134,0 0,1.2663 0.168863,0 0,-1.2663 L 20.874446,1015.9266 z m 7.852122,0 0,1.2663 0.168862,0 0,-1.2663 L 28.726568,1015.9266 z m 3.940132,0 0,1.2663 0.168863,0 0,-1.2663 L 32.6667,1015.9266 z m 7.852123,0 0,1.2663 0.168863,0 0,-1.2663 L 40.518823,1015.9266 z m -31.436631,1.9699 0,1.2666 0.1688624,0 0,-1.2666 L 9.082192,1017.8965 z m 7.85212,0 0,1.2666 0.168864,0 0,-1.2666 L 16.934312,1017.8965 z m 3.940134,0 0,1.2666 0.168863,0 0,-1.2666 L 20.874446,1017.8965 z m 7.852122,0 0,1.2666 0.168862,0 0,-1.2666 L 28.726568,1017.8965 z m 3.940132,0 0,1.2666 0.168863,0 0,-1.2666 L 32.6667,1017.8965 z m 1.970067,0 0,1.2666 0.168863,0 0,-1.2666 L 34.636767,1017.8965 z m 1.970067,0 0,1.2666 0.168862,0 0,-1.2666 L 36.606834,1017.8965 z m 1.941924,0 0,1.2666 0.168862,0 0,-1.2666 L 38.548758,1017.8965 z m -21.614446,1.942 0,1.2946 0.168864,0 0,-1.2946 L 16.934312,1019.8385 z m 11.792256,0 0,1.2946 0.168862,0 0,-1.2946 L 28.726568,1019.8385 z m 11.792255,0 0,1.2946 0.168863,0 0,-1.2946 L 40.518823,1019.8385 z m -31.436631,0.028 0,1.2946 0.1688624,0 0,-1.2946 L 9.082192,1019.8666 z m 11.792254,0 0,1.2946 0.168863,0 0,-1.2946 L 20.874446,1019.8666 z m -3.940134,1.9419 0,1.2947 0.168864,0 0,-1.2947 L 16.934312,1021.8085 z m 11.792256,0 0,1.2947 0.168862,0 0,-1.2947 L 28.726568,1021.8085 z m 11.792255,0 0,1.2947 0.168863,0 0,-1.2947 L 40.518823,1021.8085 z m -31.436631,0.028 0,1.2946 0.1688624,0 0,-1.2946 L 9.082192,1021.8367 z m 11.792254,0 0,1.2946 0.168863,0 0,-1.2946 L 20.874446,1021.8367 z m 11.792254,0 0,1.2946 0.168863,0 0,-1.2946 L 32.6667,1021.8367 z m -21.614443,1.942 0,1.2663 0.168863,0 0,-1.2663 L 11.052257,1023.7787 z m 1.970066,0 0,1.2663 0.168863,0 0,-1.2663 L 13.022323,1023.7787 z m 1.970067,0 0,1.2663 0.168863,0 0,-1.2663 L 14.99239,1023.7787 z m 7.852122,0 0,1.2663 0.168863,0 0,-1.2663 L 22.844512,1023.7787 z m 1.970066,0 0,1.2663 0.168863,0 0,-1.2663 L 24.814578,1023.7787 z m 1.970067,0 0,1.2663 0.168862,0 0,-1.2663 L 26.784645,1023.7787 z m 1.941923,0 0,1.2663 0.168862,0 0,-1.2663 L 28.726568,1023.7787 z m 5.910199,0 0,1.2663 0.168863,0 0,-1.2663 L 34.636767,1023.7787 z m 1.970067,0 0,1.2663 0.168862,0 0,-1.2663 L 36.606834,1023.7787 z m 1.941924,0 0,1.2663 0.168862,0 0,-1.2663 L 38.548758,1023.7787 z m -29.466566,0.028 0,1.2946 0.1688624,0 0,-1.2946 L 9.082192,1023.8068 z m 11.792254,0 0,1.2946 0.168863,0 0,-1.2946 L 20.874446,1023.8068 Z"
       style="font-size:40px;font-style:normal;font-variant:normal;font-weight:bold;font-stretch:normal;line-height:125%;letter-spacing:0px;word-spacing:0px;fill:#ffffff;fill-opacity:0.22404318;stroke:none;font-family:Impact;-inkscape-font-specification:Impact Bold" />
    <path
       style="font-size:40px;font-style:normal;font-variant:normal;font-weight:bold;font-stretch:normal;line-height:125%;letter-spacing:0px;word-spacing:0px;fill:#ffffff;fill-opacity:0.1254902;stroke:none;font-family:Impact;-inkscape-font-specification:Impact Bold"
       d="m 9.2510544,1013.9564 0,1.2665 0.1688624,0 0,-1.2665 L 9.2510544,1013.9564 z m 1.9700656,0 0,1.2665 0.168862,0 0,-1.2665 L 11.22112,1013.9564 z m 1.970066,0 0,1.2665 0.168863,0 0,-1.2665 L 13.191186,1013.9564 z m 1.970067,0 0,1.2665 0.168862,0 0,-1.2665 L 15.161253,1013.9564 z m 5.882056,0 0,1.2665 0.168862,0 0,-1.2665 L 21.043309,1013.9564 z m 1.970066,0 0,1.2665 0.168862,0 0,-1.2665 L 23.013375,1013.9564 z m 1.970066,0 0,1.2665 0.168862,0 0,-1.2665 L 24.983441,1013.9564 z m 1.970066,0 0,1.2665 0.168864,0 0,-1.2665 L 26.953507,1013.9564 z m 1.941923,0 0,1.2665 0.168864,0 0,-1.2665 L 28.89543,1013.9564 z m 5.9102,0 0,1.2665 0.168862,0 0,-1.2665 L 34.80563,1013.9564 z m 1.970066,0 0,1.2665 0.168864,0 0,-1.2665 L 36.775696,1013.9564 z m 1.941924,0 0,1.2665 0.168863,0 0,-1.2665 L 38.71762,1013.9564 z m -29.4665657,1.9702 0,1.2663 0.1688624,0 0,-1.2663 L 9.2510544,1015.9266 z m 7.8521217,0 0,1.2663 0.168862,0 0,-1.2663 L 17.103176,1015.9266 z m 3.940133,0 0,1.2663 0.168862,0 0,-1.2663 L 21.043309,1015.9266 z m 7.852121,0 0,1.2663 0.168864,0 0,-1.2663 L 28.89543,1015.9266 z m 3.940133,0 0,1.2663 0.168863,0 0,-1.2663 L 32.835563,1015.9266 z m 7.852123,0 0,1.2663 0.168862,0 0,-1.2663 L 40.687686,1015.9266 z m -31.4366317,1.9699 0,1.2666 0.1688624,0 0,-1.2666 L 9.2510544,1017.8965 z m 7.8521217,0 0,1.2666 0.168862,0 0,-1.2666 L 17.103176,1017.8965 z m 3.940133,0 0,1.2666 0.168862,0 0,-1.2666 L 21.043309,1017.8965 z m 7.852121,0 0,1.2666 0.168864,0 0,-1.2666 L 28.89543,1017.8965 z m 3.940133,0 0,1.2666 0.168863,0 0,-1.2666 L 32.835563,1017.8965 z m 1.970067,0 0,1.2666 0.168862,0 0,-1.2666 L 34.80563,1017.8965 z m 1.970066,0 0,1.2666 0.168864,0 0,-1.2666 L 36.775696,1017.8965 z m 1.941924,0 0,1.2666 0.168863,0 0,-1.2666 L 38.71762,1017.8965 z m -21.614444,1.942 0,1.2946 0.168862,0 0,-1.2946 L 17.103176,1019.8385 z m 11.792254,0 0,1.2946 0.168864,0 0,-1.2946 L 28.89543,1019.8385 z m 11.792256,0 0,1.2946 0.168862,0 0,-1.2946 L 40.687686,1019.8385 z m -31.4366316,0.028 0,1.2946 0.1688624,0 0,-1.2946 L 9.2510544,1019.8666 z m 11.7922546,0 0,1.2946 0.168862,0 0,-1.2946 L 21.043309,1019.8666 z m -3.940133,1.9419 0,1.2947 0.168862,0 0,-1.2947 L 17.103176,1021.8085 z m 11.792254,0 0,1.2947 0.168864,0 0,-1.2947 L 28.89543,1021.8085 z m 11.792256,0 0,1.2947 0.168862,0 0,-1.2947 L 40.687686,1021.8085 z m -31.4366316,0.028 0,1.2946 0.1688624,0 0,-1.2946 L 9.2510544,1021.8367 z m 11.7922546,0 0,1.2946 0.168862,0 0,-1.2946 L 21.043309,1021.8367 z m 11.792254,0 0,1.2946 0.168863,0 0,-1.2946 L 32.835563,1021.8367 z m -21.614443,1.942 0,1.2663 0.168862,0 0,-1.2663 L 11.22112,1023.7787 z m 1.970066,0 0,1.2663 0.168863,0 0,-1.2663 L 13.191186,1023.7787 z m 1.970067,0 0,1.2663 0.168862,0 0,-1.2663 L 15.161253,1023.7787 z m 7.852122,0 0,1.2663 0.168862,0 0,-1.2663 L 23.013375,1023.7787 z m 1.970066,0 0,1.2663 0.168862,0 0,-1.2663 L 24.983441,1023.7787 z m 1.970066,0 0,1.2663 0.168864,0 0,-1.2663 L 26.953507,1023.7787 z m 1.941923,0 0,1.2663 0.168864,0 0,-1.2663 L 28.89543,1023.7787 z m 5.9102,0 0,1.2663 0.168862,0 0,-1.2663 L 34.80563,1023.7787 z m 1.970066,0 0,1.2663 0.168864,0 0,-1.2663 L 36.775696,1023.7787 z m 1.941924,0 0,1.2663 0.168863,0 0,-1.2663 L 38.71762,1023.7787 z m -29.4665656,0.028 0,1.2946 0.1688624,0 0,-1.2946 L 9.2510544,1023.8068 z m 11.7922546,0 0,1.2946 0.168862,0 0,-1.2946 L 21.043309,1023.8068 Z"
       id="path1105"
       inkscape:connector-curvature="0" />
    <path
       style="font-size:40px;font-style:normal;font-variant:normal;font-weight:bold;font-stretch:normal;line-height:125%;letter-spacing:0px;word-spacing:0px;fill:#ffffff;fill-opacity:0.39123212;stroke:none;font-family:Impact;-inkscape-font-specification:Impact Bold"
       d="m 7.6503751,1013.7562 0,0.197 1.266472,0 0,-0.197 L 7.6503751,1013.7562 z m 1.9700664,0 0,0.197 1.2664705,0 0,-0.197 L 9.6204415,1013.7562 z m 1.9419225,0 0,0.197 1.294614,0 0,-0.197 L 11.562364,1013.7562 z m 1.970065,0 0,0.197 1.294617,0 0,-0.197 L 13.532429,1013.7562 z m 5.9102,0 0,0.197 1.266472,0 0,-0.197 L 19.442629,1013.7562 z m 1.941923,0 0,0.197 1.294614,0 0,-0.197 L 21.384552,1013.7562 z m 1.970066,0 0,0.197 1.294615,0 0,-0.197 L 23.354618,1013.7562 z m 1.970067,0 0,0.197 1.294614,0 0,-0.197 L 25.324685,1013.7562 z m 1.970066,0 0,0.197 1.266471,0 0,-0.197 L 27.294751,1013.7562 z m 5.882055,0 0,0.197 1.294616,0 0,-0.197 L 33.176806,1013.7562 z m 1.970067,0 0,0.197 1.294615,0 0,-0.197 L 35.146873,1013.7562 z m 1.970067,0 0,0.197 1.266471,0 0,-0.197 L 37.11694,1013.7562 z m -29.4665649,1.9701 0,0.197 1.266472,0 0,-0.197 L 7.6503751,1015.7263 z m 7.8521209,0 0,0.197 1.266472,0 0,-0.197 L 15.502496,1015.7263 z m 3.940133,0 0,0.197 1.266472,0 0,-0.197 L 19.442629,1015.7263 z m 7.852122,0 0,0.197 1.266471,0 0,-0.197 L 27.294751,1015.7263 z m 3.940133,0 0,0.197 1.266471,0 0,-0.197 L 31.234884,1015.7263 z m 7.852123,0 0,0.197 1.266472,0 0,-0.197 L 39.087007,1015.7263 z m -31.4366319,1.97 0,0.1971 1.266472,0 0,-0.1971 L 7.6503751,1017.6963 z m 7.8521209,0 0,0.1971 1.266472,0 0,-0.1971 L 15.502496,1017.6963 z m 3.940133,0 0,0.1971 1.266472,0 0,-0.1971 L 19.442629,1017.6963 z m 7.852122,0 0,0.1971 1.266471,0 0,-0.1971 L 27.294751,1017.6963 z m 3.940133,0 0,0.1971 1.266471,0 0,-0.1971 L 31.234884,1017.6963 z m 1.941922,0 0,0.1971 1.294616,0 0,-0.1971 L 33.176806,1017.6963 z m 1.970067,0 0,0.1971 1.294615,0 0,-0.1971 L 35.146873,1017.6963 z m 1.970067,0 0,0.1971 1.266471,0 0,-0.1971 L 37.11694,1017.6963 z m -21.614444,1.942 0,0.197 1.266472,0 0,-0.197 L 15.502496,1019.6383 z m 11.792255,0 0,0.197 1.266471,0 0,-0.197 L 27.294751,1019.6383 z m 11.792256,0 0,0.197 1.266472,0 0,-0.197 L 39.087007,1019.6383 z m -31.4366319,0.028 0,0.1969 1.266472,0 0,-0.1969 L 7.6503751,1019.6665 z m 11.7922539,0 0,0.1969 1.266472,0 0,-0.1969 L 19.442629,1019.6665 z m -3.940133,1.9418 0,0.197 1.266472,0 0,-0.197 L 15.502496,1021.6083 z m 11.792255,0 0,0.197 1.266471,0 0,-0.197 L 27.294751,1021.6083 z m 11.792256,0 0,0.197 1.266472,0 0,-0.197 L 39.087007,1021.6083 z m -31.4366319,0.028 0,0.1969 1.266472,0 0,-0.1969 L 7.6503751,1021.6365 z m 11.7922539,0 0,0.1969 1.266472,0 0,-0.1969 L 19.442629,1021.6365 z m 11.792255,0 0,0.1969 1.266471,0 0,-0.1969 L 31.234884,1021.6365 z m -21.6144425,1.9419 0,0.1971 1.2664705,0 0,-0.1971 L 9.6204415,1023.5784 z m 1.9419225,0 0,0.1971 1.294614,0 0,-0.1971 L 11.562364,1023.5784 z m 1.970065,0 0,0.1971 1.294617,0 0,-0.1971 L 13.532429,1023.5784 z m 7.852123,0 0,0.1971 1.294614,0 0,-0.1971 L 21.384552,1023.5784 z m 1.970066,0 0,0.1971 1.294615,0 0,-0.1971 L 23.354618,1023.5784 z m 1.970067,0 0,0.1971 1.294614,0 0,-0.1971 L 25.324685,1023.5784 z m 1.970066,0 0,0.1971 1.266471,0 0,-0.1971 L 27.294751,1023.5784 z m 5.882055,0 0,0.1971 1.294616,0 0,-0.1971 L 33.176806,1023.5784 z m 1.970067,0 0,0.1971 1.294615,0 0,-0.1971 L 35.146873,1023.5784 z m 1.970067,0 0,0.1971 1.266471,0 0,-0.1971 L 37.11694,1023.5784 z m -29.4665649,0.028 0,0.1971 1.266472,0 0,-0.1971 L 7.6503751,1023.6065 z m 11.7922539,0 0,0.1971 1.266472,0 0,-0.1971 L 19.442629,1023.6065 Z"
       id="path1130"
       inkscape:connector-curvature="0" />
    <path
       inkscape:connector-curvature="0"
       id="path1135"
       d="m 7.6503751,1013.5592 0,0.197 1.266472,0 0,-0.197 L 7.6503751,1013.5592 z m 1.9700664,0 0,0.197 1.2664705,0 0,-0.197 L 9.6204415,1013.5592 z m 1.9419225,0 0,0.197 1.294614,0 0,-0.197 L 11.562364,1013.5592 z m 1.970065,0 0,0.197 1.294617,0 0,-0.197 L 13.532429,1013.5592 z m 5.9102,0 0,0.197 1.266472,0 0,-0.197 L 19.442629,1013.5592 z m 1.941923,0 0,0.197 1.294614,0 0,-0.197 L 21.384552,1013.5592 z m 1.970066,0 0,0.197 1.294615,0 0,-0.197 L 23.354618,1013.5592 z m 1.970067,0 0,0.197 1.294614,0 0,-0.197 L 25.324685,1013.5592 z m 1.970066,0 0,0.197 1.266471,0 0,-0.197 L 27.294751,1013.5592 z m 5.882055,0 0,0.197 1.294616,0 0,-0.197 L 33.176806,1013.5592 z m 1.970067,0 0,0.197 1.294615,0 0,-0.197 L 35.146873,1013.5592 z m 1.970067,0 0,0.197 1.266471,0 0,-0.197 L 37.11694,1013.5592 z m -29.4665649,1.9701 0,0.197 1.266472,0 0,-0.197 L 7.6503751,1015.5293 z m 7.8521209,0 0,0.197 1.266472,0 0,-0.197 L 15.502496,1015.5293 z m 3.940133,0 0,0.197 1.266472,0 0,-0.197 L 19.442629,1015.5293 z m 7.852122,0 0,0.197 1.266471,0 0,-0.197 L 27.294751,1015.5293 z m 3.940133,0 0,0.197 1.266471,0 0,-0.197 L 31.234884,1015.5293 z m 7.852123,0 0,0.197 1.266472,0 0,-0.197 L 39.087007,1015.5293 z m -31.4366319,1.97 0,0.197 1.266472,0 0,-0.197 L 7.6503751,1017.4993 z m 7.8521209,0 0,0.197 1.266472,0 0,-0.197 L 15.502496,1017.4993 z m 3.940133,0 0,0.197 1.266472,0 0,-0.197 L 19.442629,1017.4993 z m 7.852122,0 0,0.197 1.266471,0 0,-0.197 L 27.294751,1017.4993 z m 3.940133,0 0,0.197 1.266471,0 0,-0.197 L 31.234884,1017.4993 z m 1.941922,0 0,0.197 1.294616,0 0,-0.197 L 33.176806,1017.4993 z m 1.970067,0 0,0.197 1.294615,0 0,-0.197 L 35.146873,1017.4993 z m 1.970067,0 0,0.197 1.266471,0 0,-0.197 L 37.11694,1017.4993 z m -21.614444,1.942 0,0.197 1.266472,0 0,-0.197 L 15.502496,1019.4413 z m 11.792255,0 0,0.197 1.266471,0 0,-0.197 L 27.294751,1019.4413 z m 11.792256,0 0,0.197 1.266472,0 0,-0.197 L 39.087007,1019.4413 z m -31.4366319,0.028 0,0.1971 1.266472,0 0,-0.1971 L 7.6503751,1019.4694 z m 11.7922539,0 0,0.1971 1.266472,0 0,-0.1971 L 19.442629,1019.4694 z m -3.940133,1.942 0,0.1969 1.266472,0 0,-0.1969 L 15.502496,1021.4114 z m 11.792255,0 0,0.1969 1.266471,0 0,-0.1969 L 27.294751,1021.4114 z m 11.792256,0 0,0.1969 1.266472,0 0,-0.1969 L 39.087007,1021.4114 z m -31.4366319,0.028 0,0.197 1.266472,0 0,-0.197 L 7.6503751,1021.4395 z m 11.7922539,0 0,0.197 1.266472,0 0,-0.197 L 19.442629,1021.4395 z m 11.792255,0 0,0.197 1.266471,0 0,-0.197 L 31.234884,1021.4395 z m -21.6144425,1.9419 0,0.197 1.2664705,0 0,-0.197 L 9.6204415,1023.3814 z m 1.9419225,0 0,0.197 1.294614,0 0,-0.197 L 11.562364,1023.3814 z m 1.970065,0 0,0.197 1.294617,0 0,-0.197 L 13.532429,1023.3814 z m 7.852123,0 0,0.197 1.294614,0 0,-0.197 L 21.384552,1023.3814 z m 1.970066,0 0,0.197 1.294615,0 0,-0.197 L 23.354618,1023.3814 z m 1.970067,0 0,0.197 1.294614,0 0,-0.197 L 25.324685,1023.3814 z m 1.970066,0 0,0.197 1.266471,0 0,-0.197 L 27.294751,1023.3814 z m 5.882055,0 0,0.197 1.294616,0 0,-0.197 L 33.176806,1023.3814 z m 1.970067,0 0,0.197 1.294615,0 0,-0.197 L 35.146873,1023.3814 z m 1.970067,0 0,0.197 1.266471,0 0,-0.197 L 37.11694,1023.3814 z m -29.4665649,0.028 0,0.1969 1.266472,0 0,-0.1969 L 7.6503751,1023.4096 z m 11.7922539,0 0,0.1969 1.266472,0 0,-0.1969 L 19.442629,1023.4096 Z"
       style="font-size:40px;font-style:normal;font-variant:normal;font-weight:bold;font-stretch:normal;line-height:125%;letter-spacing:0px;word-spacing:0px;fill:#ffffff;fill-opacity:0.22181696;stroke:none;font-family:Impact;-inkscape-font-specification:Impact Bold" />
    <path
       style="font-size:40px;font-style:normal;font-variant:normal;font-weight:bold;font-stretch:normal;line-height:125%;letter-spacing:0px;word-spacing:0px;fill:#ffffff;fill-opacity:0.1254902;stroke:none;font-family:Impact;-inkscape-font-specification:Impact Bold"
       d="m 7.6503751,1013.3622 0,0.197 1.266472,0 0,-0.197 L 7.6503751,1013.3622 z m 1.9700664,0 0,0.197 1.2664705,0 0,-0.197 L 9.6204415,1013.3622 z m 1.9419225,0 0,0.197 1.294614,0 0,-0.197 L 11.562364,1013.3622 z m 1.970065,0 0,0.197 1.294617,0 0,-0.197 L 13.532429,1013.3622 z m 5.9102,0 0,0.197 1.266472,0 0,-0.197 L 19.442629,1013.3622 z m 1.941923,0 0,0.197 1.294614,0 0,-0.197 L 21.384552,1013.3622 z m 1.970066,0 0,0.197 1.294615,0 0,-0.197 L 23.354618,1013.3622 z m 1.970067,0 0,0.197 1.294614,0 0,-0.197 L 25.324685,1013.3622 z m 1.970066,0 0,0.197 1.266471,0 0,-0.197 L 27.294751,1013.3622 z m 5.882055,0 0,0.197 1.294616,0 0,-0.197 L 33.176806,1013.3622 z m 1.970067,0 0,0.197 1.294615,0 0,-0.197 L 35.146873,1013.3622 z m 1.970067,0 0,0.197 1.266471,0 0,-0.197 L 37.11694,1013.3622 z m -29.4665649,1.9701 0,0.197 1.266472,0 0,-0.197 L 7.6503751,1015.3323 z m 7.8521209,0 0,0.197 1.266472,0 0,-0.197 L 15.502496,1015.3323 z m 3.940133,0 0,0.197 1.266472,0 0,-0.197 L 19.442629,1015.3323 z m 7.852122,0 0,0.197 1.266471,0 0,-0.197 L 27.294751,1015.3323 z m 3.940133,0 0,0.197 1.266471,0 0,-0.197 L 31.234884,1015.3323 z m 7.852123,0 0,0.197 1.266472,0 0,-0.197 L 39.087007,1015.3323 z m -31.4366319,1.9701 0,0.1969 1.266472,0 0,-0.1969 L 7.6503751,1017.3024 z m 7.8521209,0 0,0.1969 1.266472,0 0,-0.1969 L 15.502496,1017.3024 z m 3.940133,0 0,0.1969 1.266472,0 0,-0.1969 L 19.442629,1017.3024 z m 7.852122,0 0,0.1969 1.266471,0 0,-0.1969 L 27.294751,1017.3024 z m 3.940133,0 0,0.1969 1.266471,0 0,-0.1969 L 31.234884,1017.3024 z m 1.941922,0 0,0.1969 1.294616,0 0,-0.1969 L 33.176806,1017.3024 z m 1.970067,0 0,0.1969 1.294615,0 0,-0.1969 L 35.146873,1017.3024 z m 1.970067,0 0,0.1969 1.266471,0 0,-0.1969 L 37.11694,1017.3024 z m -21.614444,1.9419 0,0.197 1.266472,0 0,-0.197 L 15.502496,1019.2443 z m 11.792255,0 0,0.197 1.266471,0 0,-0.197 L 27.294751,1019.2443 z m 11.792256,0 0,0.197 1.266472,0 0,-0.197 L 39.087007,1019.2443 z m -31.4366319,0.028 0,0.197 1.266472,0 0,-0.197 L 7.6503751,1019.2724 z m 11.7922539,0 0,0.197 1.266472,0 0,-0.197 L 19.442629,1019.2724 z m -3.940133,1.9419 0,0.1971 1.266472,0 0,-0.1971 L 15.502496,1021.2143 z m 11.792255,0 0,0.1971 1.266471,0 0,-0.1971 L 27.294751,1021.2143 z m 11.792256,0 0,0.1971 1.266472,0 0,-0.1971 L 39.087007,1021.2143 z m -31.4366319,0.028 0,0.1971 1.266472,0 0,-0.1971 L 7.6503751,1021.2424 z m 11.7922539,0 0,0.1971 1.266472,0 0,-0.1971 L 19.442629,1021.2424 z m 11.792255,0 0,0.1971 1.266471,0 0,-0.1971 L 31.234884,1021.2424 z m -21.6144425,1.9421 0,0.1969 1.2664705,0 0,-0.1969 L 9.6204415,1023.1845 z m 1.9419225,0 0,0.1969 1.294614,0 0,-0.1969 L 11.562364,1023.1845 z m 1.970065,0 0,0.1969 1.294617,0 0,-0.1969 L 13.532429,1023.1845 z m 7.852123,0 0,0.1969 1.294614,0 0,-0.1969 L 21.384552,1023.1845 z m 1.970066,0 0,0.1969 1.294615,0 0,-0.1969 L 23.354618,1023.1845 z m 1.970067,0 0,0.1969 1.294614,0 0,-0.1969 L 25.324685,1023.1845 z m 1.970066,0 0,0.1969 1.266471,0 0,-0.1969 L 27.294751,1023.1845 z m 5.882055,0 0,0.1969 1.294616,0 0,-0.1969 L 33.176806,1023.1845 z m 1.970067,0 0,0.1969 1.294615,0 0,-0.1969 L 35.146873,1023.1845 z m 1.970067,0 0,0.1969 1.266471,0 0,-0.1969 L 37.11694,1023.1845 z m -29.4665649,0.028 0,0.197 1.266472,0 0,-0.197 L 7.6503751,1023.2126 z m 11.7922539,0 0,0.197 1.266472,0 0,-0.197 L 19.442629,1023.2126 Z"
       id="path1137"
       inkscape:connector-curvature="0" />
    <path
       style="font-size:40px;font-style:normal;font-variant:normal;font-weight:bold;font-stretch:normal;line-height:125%;letter-spacing:0px;word-spacing:0px;fill:#f9f9f9;fill-opacity:0.39215686;stroke:none;font-family:Impact;-inkscape-font-specification:Impact Bold"
       d="m 7.6503751,1031.4619 0,0.1689 1.266472,0 0,-0.1689 L 7.6503751,1031.4619 z m 1.9700664,0 0,0.1689 1.2664705,0 0,-0.1689 L 9.6204415,1031.4619 z m 1.9419225,0 0,0.1689 1.294614,0 0,-0.1689 L 11.562364,1031.4619 z m 1.970065,0 0,0.1689 1.294617,0 0,-0.1689 L 13.532429,1031.4619 z m 5.9102,0 0,0.1689 1.266472,0 0,-0.1689 L 19.442629,1031.4619 z m 1.941923,0 0,0.1689 1.294614,0 0,-0.1689 L 21.384552,1031.4619 z m 1.970066,0 0,0.1689 1.294615,0 0,-0.1689 L 23.354618,1031.4619 z m 1.970067,0 0,0.1689 1.294614,0 0,-0.1689 L 25.324685,1031.4619 z m 1.970066,0 0,0.1689 1.266471,0 0,-0.1689 L 27.294751,1031.4619 z m 3.940133,0 0,0.1689 1.266471,0 0,-0.1689 L 31.234884,1031.4619 z m 7.852123,0 0,0.1689 1.266472,0 0,-0.1689 L 39.087007,1031.4619 z m -31.4366319,1.97 0,0.1688 1.266472,0 0,-0.1688 L 7.6503751,1033.4319 z m 7.8521209,0 0,0.1688 1.266472,0 0,-0.1688 L 15.502496,1033.4319 z m 3.940133,0 0,0.1688 1.266472,0 0,-0.1688 L 19.442629,1033.4319 z m 7.852122,0 0,0.1688 1.266471,0 0,-0.1688 L 27.294751,1033.4319 z m 9.822189,0 0,0.1688 1.266471,0 0,-0.1688 L 37.11694,1033.4319 z m -3.940134,0.028 0,0.169 1.294616,0 0,-0.169 L 33.176806,1033.46 z m -25.5264309,1.9421 0,0.1688 1.266472,0 0,-0.1688 L 7.6503751,1035.4021 z m 5.8820539,0 0,0.1688 1.294617,0 0,-0.1688 L 13.532429,1035.4021 z m 5.9102,0 0,0.1688 1.266472,0 0,-0.1688 L 19.442629,1035.4021 z m 7.852122,0 0,0.1688 1.266471,0 0,-0.1688 L 27.294751,1035.4021 z m 7.852122,0 0,0.1688 1.294615,0 0,-0.1688 L 35.146873,1035.4021 z m -21.614444,1.9699 0,0.1689 1.294617,0 0,-0.1689 L 13.532429,1037.372 z m 13.762322,0 0,0.1689 1.266471,0 0,-0.1689 L 27.294751,1037.372 z m 7.852122,0 0,0.1689 1.294615,0 0,-0.1689 L 35.146873,1037.372 z m -27.4964979,0.028 0,0.1688 1.266472,0 0,-0.1688 L 7.6503751,1037.4002 z m 11.7922539,0 0,0.1688 1.266472,0 0,-0.1688 L 19.442629,1037.4002 z m -3.940133,1.9419 0,0.1689 1.266472,0 0,-0.1689 L 15.502496,1039.3421 z m 11.792255,0 0,0.1689 1.266471,0 0,-0.1689 L 27.294751,1039.3421 z m 9.822189,0 0,0.1689 1.266471,0 0,-0.1689 L 37.11694,1039.3421 z m -29.4665649,0.028 0,0.1688 1.266472,0 0,-0.1688 L 7.6503751,1039.3703 z m 11.7922539,0 0,0.1688 1.266472,0 0,-0.1688 L 19.442629,1039.3703 z m 13.734177,0 0,0.1688 1.294616,0 0,-0.1688 L 33.176806,1039.3703 z m -23.5563645,1.9418 0,0.1689 1.2664705,0 0,-0.1689 L 9.6204415,1041.3122 z m 1.9419225,0 0,0.1689 1.294614,0 0,-0.1689 L 11.562364,1041.3122 z m 1.970065,0 0,0.1689 1.294617,0 0,-0.1689 L 13.532429,1041.3122 z m 7.852123,0 0,0.1689 1.294614,0 0,-0.1689 L 21.384552,1041.3122 z m 1.970066,0 0,0.1689 1.294615,0 0,-0.1689 L 23.354618,1041.3122 z m 1.970067,0 0,0.1689 1.294614,0 0,-0.1689 L 25.324685,1041.3122 z m 1.970066,0 0,0.1689 1.266471,0 0,-0.1689 L 27.294751,1041.3122 z m 3.940133,0 0,0.1689 1.266471,0 0,-0.1689 L 31.234884,1041.3122 z m 7.852123,0 0,0.1689 1.266472,0 0,-0.1689 L 39.087007,1041.3122 z m -31.4366319,0.028 0,0.169 1.266472,0 0,-0.169 L 7.6503751,1041.3403 z m 11.7922539,0 0,0.169 1.266472,0 0,-0.169 L 19.442629,1041.3403 Z"
       id="path1139"
       inkscape:connector-curvature="0" />
    <path
       style="font-size:40px;font-style:normal;font-variant:normal;font-weight:bold;font-stretch:normal;line-height:125%;letter-spacing:0px;word-spacing:0px;fill:#ffffff;fill-opacity:0.39390361;stroke:none;font-family:Impact;-inkscape-font-specification:Impact Bold"
       d="m 7.4815127,1031.6308 0,1.2946 0.1688624,0 0,-1.2946 L 7.4815127,1031.6308 z m 1.9700664,0 0,1.2946 0.1688624,0 0,-1.2946 L 9.4515791,1031.6308 z m 1.9419219,0 0,1.2946 0.168863,0 0,-1.2946 L 11.393501,1031.6308 z m 1.970067,0 0,1.2946 0.168861,0 0,-1.2946 L 13.363568,1031.6308 z m 5.910199,0 0,1.2946 0.168862,0 0,-1.2946 L 19.273767,1031.6308 z m 1.941922,0 0,1.2946 0.168863,0 0,-1.2946 L 21.215689,1031.6308 z m 1.970067,0 0,1.2946 0.168862,0 0,-1.2946 L 23.185756,1031.6308 z m 1.970066,0 0,1.2946 0.168863,0 0,-1.2946 L 25.155822,1031.6308 z m 1.970067,0 0,1.2946 0.168862,0 0,-1.2946 L 27.125889,1031.6308 z m 3.940132,0 0,1.2946 0.168863,0 0,-1.2946 L 31.066021,1031.6308 z m 7.852123,0 0,1.2946 0.168863,0 0,-1.2946 L 38.918144,1031.6308 z m -31.4366313,1.9699 0,1.2947 0.1688624,0 0,-1.2947 L 7.4815127,1033.6007 z m 7.8521193,0 0,1.2947 0.168864,0 0,-1.2947 L 15.333632,1033.6007 z m 3.940135,0 0,1.2947 0.168862,0 0,-1.2947 L 19.273767,1033.6007 z m 7.852122,0 0,1.2947 0.168862,0 0,-1.2947 L 27.125889,1033.6007 z m 9.822189,0 0,1.2947 0.168862,0 0,-1.2947 L 36.948078,1033.6007 z m -3.940134,0.028 0,1.2664 0.168862,0 0,-1.2664 L 33.007944,1033.629 z m -25.5264313,1.9419 0,1.2946 0.1688624,0 0,-1.2946 L 7.4815127,1035.5709 z m 5.8820553,0 0,1.2664 0.168861,0 0,-1.2664 L 13.363568,1035.5709 z m 5.910199,0 0,1.2946 0.168862,0 0,-1.2946 L 19.273767,1035.5709 z m 7.852122,0 0,1.2664 0.168862,0 0,-1.2664 L 27.125889,1035.5709 z m 7.852121,0 0,1.2946 0.168863,0 0,-1.2946 L 34.97801,1035.5709 z m -21.614442,1.97 0,1.2666 0.168861,0 0,-1.2666 L 13.363568,1037.5409 z m 13.762321,0 0,1.2666 0.168862,0 0,-1.2666 L 27.125889,1037.5409 z m 7.852121,0 0,1.2666 0.168863,0 0,-1.2666 L 34.97801,1037.5409 z m -27.4964973,0.028 0,1.2666 0.1688624,0 0,-1.2666 L 7.4815127,1037.569 z m 11.7922543,0 0,1.2666 0.168862,0 0,-1.2666 L 19.273767,1037.569 z m -3.940135,1.942 0,1.2665 0.168864,0 0,-1.2665 L 15.333632,1039.511 z m 11.792257,0 0,1.2665 0.168862,0 0,-1.2665 L 27.125889,1039.511 z m 9.822189,0 0,1.2665 0.168862,0 0,-1.2665 L 36.948078,1039.511 z m -29.4665653,0.028 0,1.2664 0.1688624,0 0,-1.2664 L 7.4815127,1039.5392 z m 11.7922543,0 0,1.2664 0.168862,0 0,-1.2664 L 19.273767,1039.5392 z m 13.734177,0 0,1.2664 0.168862,0 0,-1.2664 L 33.007944,1039.5392 z m -23.5563649,1.9419 0,1.2664 0.1688624,0 0,-1.2664 L 9.4515791,1041.481 z m 1.9419219,0 0,1.2664 0.168863,0 0,-1.2664 L 11.393501,1041.481 z m 1.970067,0 0,1.2664 0.168861,0 0,-1.2664 L 13.363568,1041.481 z m 7.852121,0 0,1.2664 0.168863,0 0,-1.2664 L 21.215689,1041.481 z m 1.970067,0 0,1.2664 0.168862,0 0,-1.2664 L 23.185756,1041.481 z m 1.970066,0 0,1.2664 0.168863,0 0,-1.2664 L 25.155822,1041.481 z m 1.970067,0 0,1.2664 0.168862,0 0,-1.2664 L 27.125889,1041.481 z m 3.940132,0 0,1.2664 0.168863,0 0,-1.2664 L 31.066021,1041.481 z m 7.852123,0 0,1.2664 0.168863,0 0,-1.2664 L 38.918144,1041.481 z m -31.4366313,0.028 0,1.2665 0.1688624,0 0,-1.2665 L 7.4815127,1041.5093 z m 11.7922543,0 0,1.2665 0.168862,0 0,-1.2665 L 19.273767,1041.5093 Z"
       id="path1144"
       inkscape:connector-curvature="0" />
    <path
       style="font-size:40px;font-style:normal;font-variant:normal;font-weight:bold;font-stretch:normal;line-height:125%;letter-spacing:0px;word-spacing:0px;fill:#ffffff;fill-opacity:0.39215686;stroke:none;font-family:Impact;-inkscape-font-specification:Impact Bold"
       d="m 8.9168471,1031.6308 0,1.2946 0.1688625,0 0,-1.2946 L 8.9168471,1031.6308 z m 1.9700649,0 0,1.2946 0.168864,0 0,-1.2946 L 10.886912,1031.6308 z m 1.970066,0 0,1.2946 0.168864,0 0,-1.2946 L 12.856978,1031.6308 z m 1.970068,0 0,1.2946 0.168861,0 0,-1.2946 L 14.827046,1031.6308 z m 5.882054,0 0,1.2946 0.168863,0 0,-1.2946 L 20.7091,1031.6308 z m 1.970066,0 0,1.2946 0.168864,0 0,-1.2946 L 22.679166,1031.6308 z m 1.970067,0 0,1.2946 0.168863,0 0,-1.2946 L 24.649233,1031.6308 z m 1.970066,0 0,1.2946 0.168864,0 0,-1.2946 L 26.619299,1031.6308 z m 1.941923,0 0,1.2946 0.168864,0 0,-1.2946 L 28.561222,1031.6308 z m 3.940133,0 0,1.2946 0.168864,0 0,-1.2946 L 32.501355,1031.6308 z m 7.852124,0 0,1.2946 0.168862,0 0,-1.2946 L 40.353479,1031.6308 z m -31.436632,1.9699 0,1.2947 0.1688625,0 0,-1.2947 L 8.9168471,1033.6007 z m 7.852121,0 0,1.2947 0.168862,0 0,-1.2947 L 16.768968,1033.6007 z m 3.940132,0 0,1.2947 0.168863,0 0,-1.2947 L 20.7091,1033.6007 z m 7.852122,0 0,1.2947 0.168864,0 0,-1.2947 L 28.561222,1033.6007 z m 9.822189,0 0,1.2947 0.168864,0 0,-1.2947 L 38.383411,1033.6007 z m -3.911989,0.028 0,1.2664 0.168862,0 0,-1.2664 L 34.471422,1033.629 z m -25.554575,1.9419 0,1.2946 0.1688625,0 0,-1.2946 L 8.9168471,1035.5709 z m 5.910199,0 0,1.2664 0.168861,0 0,-1.2664 L 14.827046,1035.5709 z m 5.882054,0 0,1.2946 0.168863,0 0,-1.2946 L 20.7091,1035.5709 z m 7.852122,0 0,1.2664 0.168864,0 0,-1.2664 L 28.561222,1035.5709 z m 7.880265,0 0,1.2946 0.168864,0 0,-1.2946 L 36.441487,1035.5709 z m -21.614441,1.97 0,1.2666 0.168861,0 0,-1.2666 L 14.827046,1037.5409 z m 13.734176,0 0,1.2666 0.168864,0 0,-1.2666 L 28.561222,1037.5409 z m 7.880265,0 0,1.2666 0.168864,0 0,-1.2666 L 36.441487,1037.5409 z m -27.5246399,0.028 0,1.2666 0.1688625,0 0,-1.2666 L 8.9168471,1037.569 z m 11.7922529,0 0,1.2666 0.168863,0 0,-1.2666 L 20.7091,1037.569 z m -3.940132,1.942 0,1.2665 0.168862,0 0,-1.2665 L 16.768968,1039.511 z m 11.792254,0 0,1.2665 0.168864,0 0,-1.2665 L 28.561222,1039.511 z m 9.822189,0 0,1.2665 0.168864,0 0,-1.2665 L 38.383411,1039.511 z m -29.4665639,0.028 0,1.2664 0.1688625,0 0,-1.2664 L 8.9168471,1039.5392 z m 11.7922529,0 0,1.2664 0.168863,0 0,-1.2664 L 20.7091,1039.5392 z m 13.762322,0 0,1.2664 0.168862,0 0,-1.2664 L 34.471422,1039.5392 z m -23.58451,1.9419 0,1.2664 0.168864,0 0,-1.2664 L 10.886912,1041.481 z m 1.970066,0 0,1.2664 0.168864,0 0,-1.2664 L 12.856978,1041.481 z m 1.970068,0 0,1.2664 0.168861,0 0,-1.2664 L 14.827046,1041.481 z m 7.85212,0 0,1.2664 0.168864,0 0,-1.2664 L 22.679166,1041.481 z m 1.970067,0 0,1.2664 0.168863,0 0,-1.2664 L 24.649233,1041.481 z m 1.970066,0 0,1.2664 0.168864,0 0,-1.2664 L 26.619299,1041.481 z m 1.941923,0 0,1.2664 0.168864,0 0,-1.2664 L 28.561222,1041.481 z m 3.940133,0 0,1.2664 0.168864,0 0,-1.2664 L 32.501355,1041.481 z m 7.852124,0 0,1.2664 0.168862,0 0,-1.2664 L 40.353479,1041.481 z m -31.4366319,0.028 0,1.2665 0.1688625,0 0,-1.2665 L 8.9168471,1041.5093 z m 11.7922529,0 0,1.2665 0.168863,0 0,-1.2665 L 20.7091,1041.5093 Z"
       id="path1149"
       inkscape:connector-curvature="0" />
    <path
       style="font-size:40px;font-style:normal;font-variant:normal;font-weight:bold;font-stretch:normal;line-height:125%;letter-spacing:0px;word-spacing:0px;fill:#ffffff;fill-opacity:0.39167738;stroke:none;font-family:Impact;-inkscape-font-specification:Impact Bold"
       d="m 7.6503751,1032.9254 0,0.1969 1.266472,0 0,-0.1969 L 7.6503751,1032.9254 z m 1.9700664,0 0,0.1969 1.2664705,0 0,-0.1969 L 9.6204415,1032.9254 z m 1.9419225,0 0,0.1969 1.294614,0 0,-0.1969 L 11.562364,1032.9254 z m 1.970065,0 0,0.1969 1.294617,0 0,-0.1969 L 13.532429,1032.9254 z m 5.9102,0 0,0.1969 1.266472,0 0,-0.1969 L 19.442629,1032.9254 z m 1.941923,0 0,0.1969 1.294614,0 0,-0.1969 L 21.384552,1032.9254 z m 1.970066,0 0,0.1969 1.294615,0 0,-0.1969 L 23.354618,1032.9254 z m 1.970067,0 0,0.1969 1.294614,0 0,-0.1969 L 25.324685,1032.9254 z m 1.970066,0 0,0.1969 1.266471,0 0,-0.1969 L 27.294751,1032.9254 z m 3.940133,0 0,0.1969 1.266471,0 0,-0.1969 L 31.234884,1032.9254 z m 7.852123,0 0,0.1969 1.266472,0 0,-0.1969 L 39.087007,1032.9254 z m -31.4366319,1.97 0,0.197 1.266472,0 0,-0.197 L 7.6503751,1034.8954 z m 7.8521209,0 0,0.197 1.266472,0 0,-0.197 L 15.502496,1034.8954 z m 3.940133,0 0,0.197 1.266472,0 0,-0.197 L 19.442629,1034.8954 z m 7.852122,0 0,0.197 1.266471,0 0,-0.197 L 27.294751,1034.8954 z m 5.882055,0 0,0.197 1.294616,0 0,-0.197 L 33.176806,1034.8954 z m 3.940134,0 0,0.197 1.266471,0 0,-0.197 L 37.11694,1034.8954 z m -23.584511,1.9419 0,0.1971 1.294617,0 0,-0.1971 L 13.532429,1036.8373 z m 13.762322,0 0,0.1971 1.266471,0 0,-0.1971 L 27.294751,1036.8373 z m -19.6443759,0.028 0,0.197 1.266472,0 0,-0.197 L 7.6503751,1036.8655 z m 11.7922539,0 0,0.197 1.266472,0 0,-0.197 L 19.442629,1036.8655 z m 15.704244,0 0,0.197 1.294615,0 0,-0.197 L 35.146873,1036.8655 z m -21.614444,1.942 0,0.1969 1.294617,0 0,-0.1969 L 13.532429,1038.8075 z m 13.762322,0 0,0.1969 1.266471,0 0,-0.1969 L 27.294751,1038.8075 z m 7.852122,0 0,0.1969 1.294615,0 0,-0.1969 L 35.146873,1038.8075 z m -27.4964979,0.056 0,0.1689 1.266472,0 0,-0.1689 L 7.6503751,1038.8637 z m 11.7922539,0 0,0.1689 1.266472,0 0,-0.1689 L 19.442629,1038.8637 z m -3.940133,1.9419 0,0.1688 1.266472,0 0,-0.1688 L 15.502496,1040.8056 z m 11.792255,0 0,0.1688 1.266471,0 0,-0.1688 L 27.294751,1040.8056 z m 9.822189,0 0,0.1688 1.266471,0 0,-0.1688 L 37.11694,1040.8056 z m -29.4665649,0.028 0,0.1689 1.266472,0 0,-0.1689 L 7.6503751,1040.8337 z m 11.7922539,0 0,0.1689 1.266472,0 0,-0.1689 L 19.442629,1040.8337 z m 13.734177,0 0,0.1689 1.294616,0 0,-0.1689 L 33.176806,1040.8337 z m -23.5563645,1.9421 0,0.1688 1.2664705,0 0,-0.1688 L 9.6204415,1042.7757 z m 1.9419225,0 0,0.1688 1.294614,0 0,-0.1688 L 11.562364,1042.7757 z m 1.970065,0 0,0.1688 1.294617,0 0,-0.1688 L 13.532429,1042.7757 z m 7.852123,0 0,0.1688 1.294614,0 0,-0.1688 L 21.384552,1042.7757 z m 1.970066,0 0,0.1688 1.294615,0 0,-0.1688 L 23.354618,1042.7757 z m 1.970067,0 0,0.1688 1.294614,0 0,-0.1688 L 25.324685,1042.7757 z m 1.970066,0 0,0.1688 1.266471,0 0,-0.1688 L 27.294751,1042.7757 z m 3.940133,0 0,0.1688 1.266471,0 0,-0.1688 L 31.234884,1042.7757 z m 7.852123,0 0,0.1688 1.266472,0 0,-0.1688 L 39.087007,1042.7757 z m -31.4366319,0.028 0,0.1688 1.266472,0 0,-0.1688 L 7.6503751,1042.8039 z m 11.7922539,0 0,0.1688 1.266472,0 0,-0.1688 L 19.442629,1042.8039 Z"
       id="path1154"
       inkscape:connector-curvature="0" />
    <path
       inkscape:connector-curvature="0"
       id="path1159"
       d="m 7.6503751,1033.1223 0,0.197 1.266472,0 0,-0.197 L 7.6503751,1033.1223 z m 1.9700664,0 0,0.197 1.2664705,0 0,-0.197 L 9.6204415,1033.1223 z m 1.9419225,0 0,0.197 1.294614,0 0,-0.197 L 11.562364,1033.1223 z m 1.970065,0 0,0.197 1.294617,0 0,-0.197 L 13.532429,1033.1223 z m 5.9102,0 0,0.197 1.266472,0 0,-0.197 L 19.442629,1033.1223 z m 1.941923,0 0,0.197 1.294614,0 0,-0.197 L 21.384552,1033.1223 z m 1.970066,0 0,0.197 1.294615,0 0,-0.197 L 23.354618,1033.1223 z m 1.970067,0 0,0.197 1.294614,0 0,-0.197 L 25.324685,1033.1223 z m 1.970066,0 0,0.197 1.266471,0 0,-0.197 L 27.294751,1033.1223 z m 3.940133,0 0,0.197 1.266471,0 0,-0.197 L 31.234884,1033.1223 z m 7.852123,0 0,0.197 1.266472,0 0,-0.197 L 39.087007,1033.1223 z m -31.4366319,1.9701 0,0.1971 1.266472,0 0,-0.1971 L 7.6503751,1035.0924 z m 7.8521209,0 0,0.1971 1.266472,0 0,-0.1971 L 15.502496,1035.0924 z m 3.940133,0 0,0.1971 1.266472,0 0,-0.1971 L 19.442629,1035.0924 z m 7.852122,0 0,0.1971 1.266471,0 0,-0.1971 L 27.294751,1035.0924 z m 5.882055,0 0,0.1971 1.294616,0 0,-0.1971 L 33.176806,1035.0924 z m 3.940134,0 0,0.1971 1.266471,0 0,-0.1971 L 37.11694,1035.0924 z m -23.584511,1.942 0,0.1969 1.294617,0 0,-0.1969 L 13.532429,1037.0344 z m 13.762322,0 0,0.1969 1.266471,0 0,-0.1969 L 27.294751,1037.0344 z m -19.6443759,0.028 0,0.1969 1.266472,0 0,-0.1969 L 7.6503751,1037.0625 z m 11.7922539,0 0,0.1969 1.266472,0 0,-0.1969 L 19.442629,1037.0625 z m 15.704244,0 0,0.1969 1.294615,0 0,-0.1969 L 35.146873,1037.0625 z m -21.614444,1.9419 0,0.197 1.294617,0 0,-0.197 L 13.532429,1039.0044 z m 13.762322,0 0,0.197 1.266471,0 0,-0.197 L 27.294751,1039.0044 z m 7.852122,0 0,0.197 1.294615,0 0,-0.197 L 35.146873,1039.0044 z m -27.4964979,0.056 0,0.1689 1.266472,0 0,-0.1689 L 7.6503751,1039.0607 z m 11.7922539,0 0,0.1689 1.266472,0 0,-0.1689 L 19.442629,1039.0607 z m -3.940133,1.9419 0,0.1689 1.266472,0 0,-0.1689 L 15.502496,1041.0026 z m 11.792255,0 0,0.1689 1.266471,0 0,-0.1689 L 27.294751,1041.0026 z m 9.822189,0 0,0.1689 1.266471,0 0,-0.1689 L 37.11694,1041.0026 z m -29.4665649,0.028 0,0.1688 1.266472,0 0,-0.1688 L 7.6503751,1041.0308 z m 11.7922539,0 0,0.1688 1.266472,0 0,-0.1688 L 19.442629,1041.0308 z m 13.734177,0 0,0.1688 1.294616,0 0,-0.1688 L 33.176806,1041.0308 z m -23.5563645,1.9419 0,0.1689 1.2664705,0 0,-0.1689 L 9.6204415,1042.9727 z m 1.9419225,0 0,0.1689 1.294614,0 0,-0.1689 L 11.562364,1042.9727 z m 1.970065,0 0,0.1689 1.294617,0 0,-0.1689 L 13.532429,1042.9727 z m 7.852123,0 0,0.1689 1.294614,0 0,-0.1689 L 21.384552,1042.9727 z m 1.970066,0 0,0.1689 1.294615,0 0,-0.1689 L 23.354618,1042.9727 z m 1.970067,0 0,0.1689 1.294614,0 0,-0.1689 L 25.324685,1042.9727 z m 1.970066,0 0,0.1689 1.266471,0 0,-0.1689 L 27.294751,1042.9727 z m 3.940133,0 0,0.1689 1.266471,0 0,-0.1689 L 31.234884,1042.9727 z m 7.852123,0 0,0.1689 1.266472,0 0,-0.1689 L 39.087007,1042.9727 z m -31.4366319,0.028 0,0.1689 1.266472,0 0,-0.1689 L 7.6503751,1043.0008 z m 11.7922539,0 0,0.1689 1.266472,0 0,-0.1689 L 19.442629,1043.0008 Z"
       style="font-size:40px;font-style:normal;font-variant:normal;font-weight:bold;font-stretch:normal;line-height:125%;letter-spacing:0px;word-spacing:0px;fill:#ffffff;fill-opacity:0.22226215;stroke:none;font-family:Impact;-inkscape-font-specification:Impact Bold" />
    <path
       style="font-size:40px;font-style:normal;font-variant:normal;font-weight:bold;font-stretch:normal;line-height:125%;letter-spacing:0px;word-spacing:0px;fill:#ffffff;fill-opacity:0.1254902;stroke:none;font-family:Impact;-inkscape-font-specification:Impact Bold"
       d="m 7.6503751,1033.3158 0,0.197 1.266472,0 0,-0.197 L 7.6503751,1033.3158 z m 1.9700664,0 0,0.197 1.2664705,0 0,-0.197 L 9.6204415,1033.3158 z m 1.9419225,0 0,0.197 1.294614,0 0,-0.197 L 11.562364,1033.3158 z m 1.970065,0 0,0.197 1.294617,0 0,-0.197 L 13.532429,1033.3158 z m 5.9102,0 0,0.197 1.266472,0 0,-0.197 L 19.442629,1033.3158 z m 1.941923,0 0,0.197 1.294614,0 0,-0.197 L 21.384552,1033.3158 z m 1.970066,0 0,0.197 1.294615,0 0,-0.197 L 23.354618,1033.3158 z m 1.970067,0 0,0.197 1.294614,0 0,-0.197 L 25.324685,1033.3158 z m 1.970066,0 0,0.197 1.266471,0 0,-0.197 L 27.294751,1033.3158 z m 3.940133,0 0,0.197 1.266471,0 0,-0.197 L 31.234884,1033.3158 z m 7.852123,0 0,0.197 1.266472,0 0,-0.197 L 39.087007,1033.3158 z m -31.4366319,1.9701 0,0.1971 1.266472,0 0,-0.1971 L 7.6503751,1035.2859 z m 7.8521209,0 0,0.1971 1.266472,0 0,-0.1971 L 15.502496,1035.2859 z m 3.940133,0 0,0.1971 1.266472,0 0,-0.1971 L 19.442629,1035.2859 z m 7.852122,0 0,0.1971 1.266471,0 0,-0.1971 L 27.294751,1035.2859 z m 5.882055,0 0,0.1971 1.294616,0 0,-0.1971 L 33.176806,1035.2859 z m 3.940134,0 0,0.1971 1.266471,0 0,-0.1971 L 37.11694,1035.2859 z m -23.584511,1.9419 0,0.197 1.294617,0 0,-0.197 L 13.532429,1037.2278 z m 13.762322,0 0,0.197 1.266471,0 0,-0.197 L 27.294751,1037.2278 z m -19.6443759,0.028 0,0.197 1.266472,0 0,-0.197 L 7.6503751,1037.256 z m 11.7922539,0 0,0.197 1.266472,0 0,-0.197 L 19.442629,1037.256 z m 15.704244,0 0,0.197 1.294615,0 0,-0.197 L 35.146873,1037.256 z m -21.614444,1.9419 0,0.197 1.294617,0 0,-0.197 L 13.532429,1039.1979 z m 13.762322,0 0,0.197 1.266471,0 0,-0.197 L 27.294751,1039.1979 z m 7.852122,0 0,0.197 1.294615,0 0,-0.197 L 35.146873,1039.1979 z m -27.4964979,0.056 0,0.1688 1.266472,0 0,-0.1688 L 7.6503751,1039.2542 z m 11.7922539,0 0,0.1688 1.266472,0 0,-0.1688 L 19.442629,1039.2542 z m -3.940133,1.9418 0,0.169 1.266472,0 0,-0.169 L 15.502496,1041.196 z m 11.792255,0 0,0.169 1.266471,0 0,-0.169 L 27.294751,1041.196 z m 9.822189,0 0,0.169 1.266471,0 0,-0.169 L 37.11694,1041.196 z m -29.4665649,0.028 0,0.1688 1.266472,0 0,-0.1688 L 7.6503751,1041.2243 z m 11.7922539,0 0,0.1688 1.266472,0 0,-0.1688 L 19.442629,1041.2243 z m 13.734177,0 0,0.1688 1.294616,0 0,-0.1688 L 33.176806,1041.2243 z m -23.5563645,1.9419 0,0.1689 1.2664705,0 0,-0.1689 L 9.6204415,1043.1662 z m 1.9419225,0 0,0.1689 1.294614,0 0,-0.1689 L 11.562364,1043.1662 z m 1.970065,0 0,0.1689 1.294617,0 0,-0.1689 L 13.532429,1043.1662 z m 7.852123,0 0,0.1689 1.294614,0 0,-0.1689 L 21.384552,1043.1662 z m 1.970066,0 0,0.1689 1.294615,0 0,-0.1689 L 23.354618,1043.1662 z m 1.970067,0 0,0.1689 1.294614,0 0,-0.1689 L 25.324685,1043.1662 z m 1.970066,0 0,0.1689 1.266471,0 0,-0.1689 L 27.294751,1043.1662 z m 3.940133,0 0,0.1689 1.266471,0 0,-0.1689 L 31.234884,1043.1662 z m 7.852123,0 0,0.1689 1.266472,0 0,-0.1689 L 39.087007,1043.1662 z m -31.4366319,0.028 0,0.1688 1.266472,0 0,-0.1688 L 7.6503751,1043.1943 z m 11.7922539,0 0,0.1688 1.266472,0 0,-0.1688 L 19.442629,1043.1943 Z"
       id="path1161"
       inkscape:connector-curvature="0" />
    <path
       inkscape:connector-curvature="0"
       id="path1163"
       d="m 7.3126493,1031.6308 0,1.2946 0.1688634,0 0,-1.2946 L 7.3126493,1031.6308 z m 1.9700664,0 0,1.2946 0.1688634,0 0,-1.2946 L 9.2827157,1031.6308 z m 1.9419223,0 0,1.2946 0.168863,0 0,-1.2946 L 11.224638,1031.6308 z m 1.970066,0 0,1.2946 0.168864,0 0,-1.2946 L 13.194704,1031.6308 z m 5.910199,0 0,1.2946 0.168864,0 0,-1.2946 L 19.104903,1031.6308 z m 1.941923,0 0,1.2946 0.168863,0 0,-1.2946 L 21.046826,1031.6308 z m 1.970066,0 0,1.2946 0.168864,0 0,-1.2946 L 23.016892,1031.6308 z m 1.970067,0 0,1.2946 0.168862,0 0,-1.2946 L 24.986959,1031.6308 z m 1.970066,0 0,1.2946 0.168864,0 0,-1.2946 L 26.957025,1031.6308 z m 3.940134,0 0,1.2946 0.168862,0 0,-1.2946 L 30.897159,1031.6308 z m 7.852122,0 0,1.2946 0.168863,0 0,-1.2946 L 38.749281,1031.6308 z m -31.4366317,1.9699 0,1.2947 0.1688634,0 0,-1.2947 L 7.3126493,1033.6007 z m 7.8521217,0 0,1.2947 0.168861,0 0,-1.2947 L 15.164771,1033.6007 z m 3.940132,0 0,1.2947 0.168864,0 0,-1.2947 L 19.104903,1033.6007 z m 7.852122,0 0,1.2947 0.168864,0 0,-1.2947 L 26.957025,1033.6007 z m 9.822188,0 0,1.2947 0.168865,0 0,-1.2947 L 36.779213,1033.6007 z m -3.940133,0.028 0,1.2664 0.168864,0 0,-1.2664 L 32.83908,1033.629 z m -25.5264307,1.9419 0,1.2946 0.1688634,0 0,-1.2946 L 7.3126493,1035.5709 z m 5.8820547,0 0,1.2664 0.168864,0 0,-1.2664 L 13.194704,1035.5709 z m 5.910199,0 0,1.2946 0.168864,0 0,-1.2946 L 19.104903,1035.5709 z m 7.852122,0 0,1.2664 0.168864,0 0,-1.2664 L 26.957025,1035.5709 z m 7.852122,0 0,1.2946 0.168863,0 0,-1.2946 L 34.809147,1035.5709 z m -21.614443,1.97 0,1.2666 0.168864,0 0,-1.2666 L 13.194704,1037.5409 z m 13.762321,0 0,1.2666 0.168864,0 0,-1.2666 L 26.957025,1037.5409 z m 7.852122,0 0,1.2666 0.168863,0 0,-1.2666 L 34.809147,1037.5409 z m -27.4964977,0.028 0,1.2666 0.1688634,0 0,-1.2666 L 7.3126493,1037.569 z m 11.7922537,0 0,1.2666 0.168864,0 0,-1.2666 L 19.104903,1037.569 z m -3.940132,1.942 0,1.2665 0.168861,0 0,-1.2665 L 15.164771,1039.511 z m 11.792254,0 0,1.2665 0.168864,0 0,-1.2665 L 26.957025,1039.511 z m 9.822188,0 0,1.2665 0.168865,0 0,-1.2665 L 36.779213,1039.511 z m -29.4665637,0.028 0,1.2664 0.1688634,0 0,-1.2664 L 7.3126493,1039.5392 z m 11.7922537,0 0,1.2664 0.168864,0 0,-1.2664 L 19.104903,1039.5392 z m 13.734177,0 0,1.2664 0.168864,0 0,-1.2664 L 32.83908,1039.5392 z m -23.5563643,1.9419 0,1.2664 0.1688634,0 0,-1.2664 L 9.2827157,1041.481 z m 1.9419223,0 0,1.2664 0.168863,0 0,-1.2664 L 11.224638,1041.481 z m 1.970066,0 0,1.2664 0.168864,0 0,-1.2664 L 13.194704,1041.481 z m 7.852122,0 0,1.2664 0.168863,0 0,-1.2664 L 21.046826,1041.481 z m 1.970066,0 0,1.2664 0.168864,0 0,-1.2664 L 23.016892,1041.481 z m 1.970067,0 0,1.2664 0.168862,0 0,-1.2664 L 24.986959,1041.481 z m 1.970066,0 0,1.2664 0.168864,0 0,-1.2664 L 26.957025,1041.481 z m 3.940134,0 0,1.2664 0.168862,0 0,-1.2664 L 30.897159,1041.481 z m 7.852122,0 0,1.2664 0.168863,0 0,-1.2664 L 38.749281,1041.481 z m -31.4366317,0.028 0,1.2665 0.1688634,0 0,-1.2665 L 7.3126493,1041.5093 z m 11.7922537,0 0,1.2665 0.168864,0 0,-1.2665 L 19.104903,1041.5093 Z"
       style="font-size:40px;font-style:normal;font-variant:normal;font-weight:bold;font-stretch:normal;line-height:125%;letter-spacing:0px;word-spacing:0px;fill:#ffffff;fill-opacity:0.22226215;stroke:none;font-family:Impact;-inkscape-font-specification:Impact Bold" />
    <path
       style="font-size:40px;font-style:normal;font-variant:normal;font-weight:bold;font-stretch:normal;line-height:125%;letter-spacing:0px;word-spacing:0px;fill:#ffffff;fill-opacity:0.1254902;stroke:none;font-family:Impact;-inkscape-font-specification:Impact Bold"
       d="m 7.1437869,1031.6308 0,1.2946 0.1688624,0 0,-1.2946 L 7.1437869,1031.6308 z m 1.9700664,0 0,1.2946 0.1688624,0 0,-1.2946 L 9.1138533,1031.6308 z m 1.9419227,0 0,1.2946 0.168862,0 0,-1.2946 L 11.055776,1031.6308 z m 1.970066,0 0,1.2946 0.168862,0 0,-1.2946 L 13.025842,1031.6308 z m 5.910199,0 0,1.2946 0.168862,0 0,-1.2946 L 18.936041,1031.6308 z m 1.941922,0 0,1.2946 0.168863,0 0,-1.2946 L 20.877963,1031.6308 z m 1.970067,0 0,1.2946 0.168862,0 0,-1.2946 L 22.84803,1031.6308 z m 1.970066,0 0,1.2946 0.168863,0 0,-1.2946 L 24.818096,1031.6308 z m 1.970067,0 0,1.2946 0.168862,0 0,-1.2946 L 26.788163,1031.6308 z m 3.940133,0 0,1.2946 0.168863,0 0,-1.2946 L 30.728296,1031.6308 z m 7.852122,0 0,1.2946 0.168863,0 0,-1.2946 L 38.580418,1031.6308 z m -31.4366311,1.9699 0,1.2947 0.1688624,0 0,-1.2947 L 7.1437869,1033.6007 z m 7.8521201,0 0,1.2947 0.168864,0 0,-1.2947 L 14.995907,1033.6007 z m 3.940134,0 0,1.2947 0.168862,0 0,-1.2947 L 18.936041,1033.6007 z m 7.852122,0 0,1.2947 0.168862,0 0,-1.2947 L 26.788163,1033.6007 z m 9.822188,0 0,1.2947 0.168862,0 0,-1.2947 L 36.610351,1033.6007 z m -3.940132,0.028 0,1.2664 0.168861,0 0,-1.2664 L 32.670219,1033.629 z m -25.5264321,1.9419 0,1.2946 0.1688624,0 0,-1.2946 L 7.1437869,1035.5709 z m 5.8820551,0 0,1.2664 0.168862,0 0,-1.2664 L 13.025842,1035.5709 z m 5.910199,0 0,1.2946 0.168862,0 0,-1.2946 L 18.936041,1035.5709 z m 7.852122,0 0,1.2664 0.168862,0 0,-1.2664 L 26.788163,1035.5709 z m 7.852121,0 0,1.2946 0.168863,0 0,-1.2946 L 34.640284,1035.5709 z m -21.614442,1.97 0,1.2666 0.168862,0 0,-1.2666 L 13.025842,1037.5409 z m 13.762321,0 0,1.2666 0.168862,0 0,-1.2666 L 26.788163,1037.5409 z m 7.852121,0 0,1.2666 0.168863,0 0,-1.2666 L 34.640284,1037.5409 z m -27.4964971,0.028 0,1.2666 0.1688624,0 0,-1.2666 L 7.1437869,1037.569 z m 11.7922541,0 0,1.2666 0.168862,0 0,-1.2666 L 18.936041,1037.569 z m -3.940134,1.942 0,1.2665 0.168864,0 0,-1.2665 L 14.995907,1039.511 z m 11.792256,0 0,1.2665 0.168862,0 0,-1.2665 L 26.788163,1039.511 z m 9.822188,0 0,1.2665 0.168862,0 0,-1.2665 L 36.610351,1039.511 z m -29.4665641,0.028 0,1.2664 0.1688624,0 0,-1.2664 L 7.1437869,1039.5392 z m 11.7922541,0 0,1.2664 0.168862,0 0,-1.2664 L 18.936041,1039.5392 z m 13.734178,0 0,1.2664 0.168861,0 0,-1.2664 L 32.670219,1039.5392 z m -23.5563657,1.9419 0,1.2664 0.1688624,0 0,-1.2664 L 9.1138533,1041.481 z m 1.9419227,0 0,1.2664 0.168862,0 0,-1.2664 L 11.055776,1041.481 z m 1.970066,0 0,1.2664 0.168862,0 0,-1.2664 L 13.025842,1041.481 z m 7.852121,0 0,1.2664 0.168863,0 0,-1.2664 L 20.877963,1041.481 z m 1.970067,0 0,1.2664 0.168862,0 0,-1.2664 L 22.84803,1041.481 z m 1.970066,0 0,1.2664 0.168863,0 0,-1.2664 L 24.818096,1041.481 z m 1.970067,0 0,1.2664 0.168862,0 0,-1.2664 L 26.788163,1041.481 z m 3.940133,0 0,1.2664 0.168863,0 0,-1.2664 L 30.728296,1041.481 z m 7.852122,0 0,1.2664 0.168863,0 0,-1.2664 L 38.580418,1041.481 z m -31.4366311,0.028 0,1.2665 0.1688624,0 0,-1.2665 L 7.1437869,1041.5093 z m 11.7922541,0 0,1.2665 0.168862,0 0,-1.2665 L 18.936041,1041.5093 Z"
       id="path1165"
       inkscape:connector-curvature="0" />
    <path
       inkscape:connector-curvature="0"
       id="path1167"
       d="m 9.0857096,1031.6308 0,1.2946 0.1688624,0 0,-1.2946 L 9.0857096,1031.6308 z m 1.9700664,0 0,1.2946 0.168862,0 0,-1.2946 L 11.055776,1031.6308 z m 1.970066,0 0,1.2946 0.168862,0 0,-1.2946 L 13.025842,1031.6308 z m 1.970066,0 0,1.2946 0.168863,0 0,-1.2946 L 14.995908,1031.6308 z m 5.882055,0 0,1.2946 0.168863,0 0,-1.2946 L 20.877963,1031.6308 z m 1.970067,0 0,1.2946 0.168862,0 0,-1.2946 L 22.84803,1031.6308 z m 1.970066,0 0,1.2946 0.168863,0 0,-1.2946 L 24.818096,1031.6308 z m 1.970067,0 0,1.2946 0.168862,0 0,-1.2946 L 26.788163,1031.6308 z m 1.941923,0 0,1.2946 0.168862,0 0,-1.2946 L 28.730086,1031.6308 z m 3.940133,0 0,1.2946 0.168861,0 0,-1.2946 L 32.670219,1031.6308 z m 7.852122,0 0,1.2946 0.168864,0 0,-1.2946 L 40.522341,1031.6308 z m -31.4366315,1.9699 0,1.2947 0.1688625,0 0,-1.2947 L 9.0857096,1033.6007 z m 7.8521215,0 0,1.2947 0.168862,0 0,-1.2947 L 16.937831,1033.6007 z m 3.940132,0 0,1.2947 0.168863,0 0,-1.2947 L 20.877963,1033.6007 z m 7.852123,0 0,1.2947 0.168862,0 0,-1.2947 L 28.730086,1033.6007 z m 9.822189,0 0,1.2947 0.168862,0 0,-1.2947 L 38.552275,1033.6007 z m -3.911991,0.028 0,1.2664 0.168863,0 0,-1.2664 L 34.640284,1033.629 z m -25.5545745,1.9419 0,1.2946 0.1688625,0 0,-1.2946 L 9.0857096,1035.5709 z m 5.9101985,0 0,1.2664 0.168863,0 0,-1.2664 L 14.995908,1035.5709 z m 5.882055,0 0,1.2946 0.168863,0 0,-1.2946 L 20.877963,1035.5709 z m 7.852123,0 0,1.2664 0.168862,0 0,-1.2664 L 28.730086,1035.5709 z m 7.880265,0 0,1.2946 0.168862,0 0,-1.2946 L 36.610351,1035.5709 z m -21.614443,1.97 0,1.2666 0.168863,0 0,-1.2666 L 14.995908,1037.5409 z m 13.734178,0 0,1.2666 0.168862,0 0,-1.2666 L 28.730086,1037.5409 z m 7.880265,0 0,1.2666 0.168862,0 0,-1.2666 L 36.610351,1037.5409 z m -27.5246414,0.028 0,1.2666 0.1688624,0 0,-1.2666 L 9.0857096,1037.569 z m 11.7922534,0 0,1.2666 0.168863,0 0,-1.2666 L 20.877963,1037.569 z m -3.940132,1.942 0,1.2665 0.168862,0 0,-1.2665 L 16.937831,1039.511 z m 11.792255,0 0,1.2665 0.168862,0 0,-1.2665 L 28.730086,1039.511 z m 9.822189,0 0,1.2665 0.168862,0 0,-1.2665 L 38.552275,1039.511 z m -29.4665654,0.028 0,1.2664 0.1688624,0 0,-1.2664 L 9.0857096,1039.5392 z m 11.7922534,0 0,1.2664 0.168863,0 0,-1.2664 L 20.877963,1039.5392 z m 13.762321,0 0,1.2664 0.168863,0 0,-1.2664 L 34.640284,1039.5392 z m -23.584508,1.9419 0,1.2664 0.168862,0 0,-1.2664 L 11.055776,1041.481 z m 1.970066,0 0,1.2664 0.168862,0 0,-1.2664 L 13.025842,1041.481 z m 1.970066,0 0,1.2664 0.168863,0 0,-1.2664 L 14.995908,1041.481 z m 7.852122,0 0,1.2664 0.168862,0 0,-1.2664 L 22.84803,1041.481 z m 1.970066,0 0,1.2664 0.168863,0 0,-1.2664 L 24.818096,1041.481 z m 1.970067,0 0,1.2664 0.168862,0 0,-1.2664 L 26.788163,1041.481 z m 1.941923,0 0,1.2664 0.168862,0 0,-1.2664 L 28.730086,1041.481 z m 3.940133,0 0,1.2664 0.168861,0 0,-1.2664 L 32.670219,1041.481 z m 7.852122,0 0,1.2664 0.168864,0 0,-1.2664 L 40.522341,1041.481 z m -31.4366315,0.028 0,1.2665 0.1688625,0 0,-1.2665 L 9.0857096,1041.5093 z m 11.7922535,0 0,1.2665 0.168863,0 0,-1.2665 L 20.877963,1041.5093 Z"
       style="font-size:40px;font-style:normal;font-variant:normal;font-weight:bold;font-stretch:normal;line-height:125%;letter-spacing:0px;word-spacing:0px;fill:#ffffff;fill-opacity:0.22226215;stroke:none;font-family:Impact;-inkscape-font-specification:Impact Bold" />
    <path
       style="font-size:40px;font-style:normal;font-variant:normal;font-weight:bold;font-stretch:normal;line-height:125%;letter-spacing:0px;word-spacing:0px;fill:#ffffff;fill-opacity:0.1254902;stroke:none;font-family:Impact;-inkscape-font-specification:Impact Bold"
       d="m 9.254572,1031.6308 0,1.2946 0.1688634,0 0,-1.2946 L 9.254572,1031.6308 z m 1.970066,0 0,1.2946 0.168863,0 0,-1.2946 L 11.224638,1031.6308 z m 1.970066,0 0,1.2946 0.168864,0 0,-1.2946 L 13.194704,1031.6308 z m 1.970067,0 0,1.2946 0.168861,0 0,-1.2946 L 15.164771,1031.6308 z m 5.882055,0 0,1.2946 0.168863,0 0,-1.2946 L 21.046826,1031.6308 z m 1.970066,0 0,1.2946 0.168864,0 0,-1.2946 L 23.016892,1031.6308 z m 1.970067,0 0,1.2946 0.168863,0 0,-1.2946 L 24.986959,1031.6308 z m 1.970066,0 0,1.2946 0.168864,0 0,-1.2946 L 26.957025,1031.6308 z m 1.941923,0 0,1.2946 0.168864,0 0,-1.2946 L 28.898948,1031.6308 z m 3.940132,0 0,1.2946 0.168864,0 0,-1.2946 L 32.83908,1031.6308 z m 7.852125,0 0,1.2946 0.168862,0 0,-1.2946 L 40.691205,1031.6308 z m -31.4366331,1.9699 0,1.2947 0.1688634,0 0,-1.2947 L 9.254572,1033.6007 z m 7.8521211,0 0,1.2947 0.168862,0 0,-1.2947 L 17.106693,1033.6007 z m 3.940133,0 0,1.2947 0.168863,0 0,-1.2947 L 21.046826,1033.6007 z m 7.852122,0 0,1.2947 0.168864,0 0,-1.2947 L 28.898948,1033.6007 z m 9.822189,0 0,1.2947 0.168864,0 0,-1.2947 L 38.721137,1033.6007 z m -3.91199,0.028 0,1.2664 0.168863,0 0,-1.2664 L 34.809147,1033.629 z m -25.5545751,1.9419 0,1.2946 0.1688634,0 0,-1.2946 L 9.254572,1035.5709 z m 5.9101991,0 0,1.2664 0.168861,0 0,-1.2664 L 15.164771,1035.5709 z m 5.882055,0 0,1.2946 0.168863,0 0,-1.2946 L 21.046826,1035.5709 z m 7.852122,0 0,1.2664 0.168864,0 0,-1.2664 L 28.898948,1035.5709 z m 7.880265,0 0,1.2946 0.168865,0 0,-1.2946 L 36.779213,1035.5709 z m -21.614442,1.97 0,1.2666 0.168861,0 0,-1.2666 L 15.164771,1037.5409 z m 13.734177,0 0,1.2666 0.168864,0 0,-1.2666 L 28.898948,1037.5409 z m 7.880265,0 0,1.2666 0.168865,0 0,-1.2666 L 36.779213,1037.5409 z m -27.5246411,0.028 0,1.2666 0.1688634,0 0,-1.2666 L 9.254572,1037.569 z m 11.7922541,0 0,1.2666 0.168863,0 0,-1.2666 L 21.046826,1037.569 z m -3.940133,1.942 0,1.2665 0.168862,0 0,-1.2665 L 17.106693,1039.511 z m 11.792255,0 0,1.2665 0.168864,0 0,-1.2665 L 28.898948,1039.511 z m 9.822189,0 0,1.2665 0.168864,0 0,-1.2665 L 38.721137,1039.511 z m -29.4665651,0.028 0,1.2664 0.1688634,0 0,-1.2664 L 9.254572,1039.5392 z m 11.7922541,0 0,1.2664 0.168863,0 0,-1.2664 L 21.046826,1039.5392 z m 13.762321,0 0,1.2664 0.168863,0 0,-1.2664 L 34.809147,1039.5392 z m -23.584509,1.9419 0,1.2664 0.168863,0 0,-1.2664 L 11.224638,1041.481 z m 1.970066,0 0,1.2664 0.168864,0 0,-1.2664 L 13.194704,1041.481 z m 1.970067,0 0,1.2664 0.168861,0 0,-1.2664 L 15.164771,1041.481 z m 7.852121,0 0,1.2664 0.168864,0 0,-1.2664 L 23.016892,1041.481 z m 1.970067,0 0,1.2664 0.168863,0 0,-1.2664 L 24.986959,1041.481 z m 1.970066,0 0,1.2664 0.168864,0 0,-1.2664 L 26.957025,1041.481 z m 1.941923,0 0,1.2664 0.168864,0 0,-1.2664 L 28.898948,1041.481 z m 3.940132,0 0,1.2664 0.168864,0 0,-1.2664 L 32.83908,1041.481 z m 7.852125,0 0,1.2664 0.168862,0 0,-1.2664 L 40.691205,1041.481 z m -31.4366331,0.028 0,1.2665 0.1688634,0 0,-1.2665 L 9.254572,1041.5093 z m 11.7922541,0 0,1.2665 0.168863,0 0,-1.2665 L 21.046826,1041.5093 Z"
       id="path1169"
       inkscape:connector-curvature="0" />
    <path
       inkscape:connector-curvature="0"
       id="path1171"
       d="m 7.6503751,1031.2931 0,0.1688 1.266472,0 0,-0.1688 L 7.6503751,1031.2931 z m 1.9700664,0 0,0.1688 1.2664705,0 0,-0.1688 L 9.6204415,1031.2931 z m 1.9419225,0 0,0.1688 1.294614,0 0,-0.1688 L 11.562364,1031.2931 z m 1.970065,0 0,0.1688 1.294617,0 0,-0.1688 L 13.532429,1031.2931 z m 5.9102,0 0,0.1688 1.266472,0 0,-0.1688 L 19.442629,1031.2931 z m 1.941923,0 0,0.1688 1.294614,0 0,-0.1688 L 21.384552,1031.2931 z m 1.970066,0 0,0.1688 1.294615,0 0,-0.1688 L 23.354618,1031.2931 z m 1.970067,0 0,0.1688 1.294614,0 0,-0.1688 L 25.324685,1031.2931 z m 1.970066,0 0,0.1688 1.266471,0 0,-0.1688 L 27.294751,1031.2931 z m 3.940133,0 0,0.1688 1.266471,0 0,-0.1688 L 31.234884,1031.2931 z m 7.852123,0 0,0.1688 1.266472,0 0,-0.1688 L 39.087007,1031.2931 z m -31.4366319,1.9699 0,0.1689 1.266472,0 0,-0.1689 L 7.6503751,1033.263 z m 7.8521209,0 0,0.1689 1.266472,0 0,-0.1689 L 15.502496,1033.263 z m 3.940133,0 0,0.1689 1.266472,0 0,-0.1689 L 19.442629,1033.263 z m 7.852122,0 0,0.1689 1.266471,0 0,-0.1689 L 27.294751,1033.263 z m 9.822189,0 0,0.1689 1.266471,0 0,-0.1689 L 37.11694,1033.263 z m -3.940134,0.028 0,0.1688 1.294616,0 0,-0.1688 L 33.176806,1033.2912 z m -25.5264309,1.9419 0,0.169 1.266472,0 0,-0.169 L 7.6503751,1035.2331 z m 5.8820539,0 0,0.169 1.294617,0 0,-0.169 L 13.532429,1035.2331 z m 5.9102,0 0,0.169 1.266472,0 0,-0.169 L 19.442629,1035.2331 z m 7.852122,0 0,0.169 1.266471,0 0,-0.169 L 27.294751,1035.2331 z m 7.852122,0 0,0.169 1.294615,0 0,-0.169 L 35.146873,1035.2331 z m -21.614444,1.9701 0,0.1688 1.294617,0 0,-0.1688 L 13.532429,1037.2032 z m 13.762322,0 0,0.1688 1.266471,0 0,-0.1688 L 27.294751,1037.2032 z m 7.852122,0 0,0.1688 1.294615,0 0,-0.1688 L 35.146873,1037.2032 z m -27.4964979,0.028 0,0.1689 1.266472,0 0,-0.1689 L 7.6503751,1037.2313 z m 11.7922539,0 0,0.1689 1.266472,0 0,-0.1689 L 19.442629,1037.2313 z m -3.940133,1.942 0,0.1688 1.266472,0 0,-0.1688 L 15.502496,1039.1733 z m 11.792255,0 0,0.1688 1.266471,0 0,-0.1688 L 27.294751,1039.1733 z m 9.822189,0 0,0.1688 1.266471,0 0,-0.1688 L 37.11694,1039.1733 z m -29.4665649,0.028 0,0.1689 1.266472,0 0,-0.1689 L 7.6503751,1039.2014 z m 11.7922539,0 0,0.1689 1.266472,0 0,-0.1689 L 19.442629,1039.2014 z m 13.734177,0 0,0.1689 1.294616,0 0,-0.1689 L 33.176806,1039.2014 z m -23.5563645,1.942 0,0.1688 1.2664705,0 0,-0.1688 L 9.6204415,1041.1433 z m 1.9419225,0 0,0.1688 1.294614,0 0,-0.1688 L 11.562364,1041.1433 z m 1.970065,0 0,0.1688 1.294617,0 0,-0.1688 L 13.532429,1041.1433 z m 7.852123,0 0,0.1688 1.294614,0 0,-0.1688 L 21.384552,1041.1433 z m 1.970066,0 0,0.1688 1.294615,0 0,-0.1688 L 23.354618,1041.1433 z m 1.970067,0 0,0.1688 1.294614,0 0,-0.1688 L 25.324685,1041.1433 z m 1.970066,0 0,0.1688 1.266471,0 0,-0.1688 L 27.294751,1041.1433 z m 3.940133,0 0,0.1688 1.266471,0 0,-0.1688 L 31.234884,1041.1433 z m 7.852123,0 0,0.1688 1.266472,0 0,-0.1688 L 39.087007,1041.1433 z m -31.4366319,0.028 0,0.1688 1.266472,0 0,-0.1688 L 7.6503751,1041.1715 z m 11.7922539,0 0,0.1688 1.266472,0 0,-0.1688 L 19.442629,1041.1715 Z"
       style="font-size:40px;font-style:normal;font-variant:normal;font-weight:bold;font-stretch:normal;line-height:125%;letter-spacing:0px;word-spacing:0px;fill:#f9f9f9;fill-opacity:0.22181696;stroke:none;font-family:Impact;-inkscape-font-specification:Impact Bold" />
    <path
       style="font-size:40px;font-style:normal;font-variant:normal;font-weight:bold;font-stretch:normal;line-height:125%;letter-spacing:0px;word-spacing:0px;fill:#f9f9f9;fill-opacity:0.1254902;stroke:none;font-family:Impact;-inkscape-font-specification:Impact Bold"
       d="m 7.6503751,1031.1242 0,0.1689 1.266472,0 0,-0.1689 L 7.6503751,1031.1242 z m 1.9700664,0 0,0.1689 1.2664705,0 0,-0.1689 L 9.6204415,1031.1242 z m 1.9419225,0 0,0.1689 1.294614,0 0,-0.1689 L 11.562364,1031.1242 z m 1.970065,0 0,0.1689 1.294617,0 0,-0.1689 L 13.532429,1031.1242 z m 5.9102,0 0,0.1689 1.266472,0 0,-0.1689 L 19.442629,1031.1242 z m 1.941923,0 0,0.1689 1.294614,0 0,-0.1689 L 21.384552,1031.1242 z m 1.970066,0 0,0.1689 1.294615,0 0,-0.1689 L 23.354618,1031.1242 z m 1.970067,0 0,0.1689 1.294614,0 0,-0.1689 L 25.324685,1031.1242 z m 1.970066,0 0,0.1689 1.266471,0 0,-0.1689 L 27.294751,1031.1242 z m 3.940133,0 0,0.1689 1.266471,0 0,-0.1689 L 31.234884,1031.1242 z m 7.852123,0 0,0.1689 1.266472,0 0,-0.1689 L 39.087007,1031.1242 z m -31.4366319,1.97 0,0.1688 1.266472,0 0,-0.1688 L 7.6503751,1033.0942 z m 7.8521209,0 0,0.1688 1.266472,0 0,-0.1688 L 15.502496,1033.0942 z m 3.940133,0 0,0.1688 1.266472,0 0,-0.1688 L 19.442629,1033.0942 z m 7.852122,0 0,0.1688 1.266471,0 0,-0.1688 L 27.294751,1033.0942 z m 9.822189,0 0,0.1688 1.266471,0 0,-0.1688 L 37.11694,1033.0942 z m -3.940134,0.028 0,0.1689 1.294616,0 0,-0.1689 L 33.176806,1033.1223 z m -25.5264309,1.942 0,0.1688 1.266472,0 0,-0.1688 L 7.6503751,1035.0643 z m 5.8820539,0 0,0.1688 1.294617,0 0,-0.1688 L 13.532429,1035.0643 z m 5.9102,0 0,0.1688 1.266472,0 0,-0.1688 L 19.442629,1035.0643 z m 7.852122,0 0,0.1688 1.266471,0 0,-0.1688 L 27.294751,1035.0643 z m 7.852122,0 0,0.1688 1.294615,0 0,-0.1688 L 35.146873,1035.0643 z m -21.614444,1.9701 0,0.1688 1.294617,0 0,-0.1688 L 13.532429,1037.0344 z m 13.762322,0 0,0.1688 1.266471,0 0,-0.1688 L 27.294751,1037.0344 z m 7.852122,0 0,0.1688 1.294615,0 0,-0.1688 L 35.146873,1037.0344 z m -27.4964979,0.028 0,0.1688 1.266472,0 0,-0.1688 L 7.6503751,1037.0625 z m 11.7922539,0 0,0.1688 1.266472,0 0,-0.1688 L 19.442629,1037.0625 z m -3.940133,1.9419 0,0.1689 1.266472,0 0,-0.1689 L 15.502496,1039.0044 z m 11.792255,0 0,0.1689 1.266471,0 0,-0.1689 L 27.294751,1039.0044 z m 9.822189,0 0,0.1689 1.266471,0 0,-0.1689 L 37.11694,1039.0044 z m -29.4665649,0.028 0,0.1688 1.266472,0 0,-0.1688 L 7.6503751,1039.0326 z m 11.7922539,0 0,0.1688 1.266472,0 0,-0.1688 L 19.442629,1039.0326 z m 13.734177,0 0,0.1688 1.294616,0 0,-0.1688 L 33.176806,1039.0326 z m -23.5563645,1.9418 0,0.169 1.2664705,0 0,-0.169 L 9.6204415,1040.9744 z m 1.9419225,0 0,0.169 1.294614,0 0,-0.169 L 11.562364,1040.9744 z m 1.970065,0 0,0.169 1.294617,0 0,-0.169 L 13.532429,1040.9744 z m 7.852123,0 0,0.169 1.294614,0 0,-0.169 L 21.384552,1040.9744 z m 1.970066,0 0,0.169 1.294615,0 0,-0.169 L 23.354618,1040.9744 z m 1.970067,0 0,0.169 1.294614,0 0,-0.169 L 25.324685,1040.9744 z m 1.970066,0 0,0.169 1.266471,0 0,-0.169 L 27.294751,1040.9744 z m 3.940133,0 0,0.169 1.266471,0 0,-0.169 L 31.234884,1040.9744 z m 7.852123,0 0,0.169 1.266472,0 0,-0.169 L 39.087007,1040.9744 z m -31.4366319,0.028 0,0.1689 1.266472,0 0,-0.1689 L 7.6503751,1041.0026 z m 11.7922539,0 0,0.1689 1.266472,0 0,-0.1689 L 19.442629,1041.0026 Z"
       id="path1173"
       inkscape:connector-curvature="0" />
    <path
       id="path6361"
       d="m 1.7500034,1012.5497 0,-0.5625 c 0,-3.2445 2.5992,-5.875 5.8438,-5.875 l 32.8124996,0 c 3.2445,0 5.8437,2.6305 5.8437,5.875 l 0,0.5625 c 0,-3.2445 -2.5992,-5.875 -5.8437,-5.875 l -32.8124996,0 C 4.3492034,1006.6747 1.7500034,1009.3052 1.7500034,1012.5497 Z"
       style="color:#000000;fill:#ffffff;fill-opacity:1;fill-rule:nonzero;stroke:none;stroke-width:0.2;marker:none;visibility:visible;display:inline;overflow:visible;enable-background:accumulate"
       inkscape:connector-curvature="0" />
  </g>
</svg>
