<?xml version="1.0" encoding="UTF-8" standalone="no"?>
<!-- Created with Inkscape (http://www.inkscape.org/) -->

<svg
   xmlns:dc="http://purl.org/dc/elements/1.1/"
   xmlns:cc="http://creativecommons.org/ns#"
   xmlns:rdf="http://www.w3.org/1999/02/22-rdf-syntax-ns#"
   xmlns:svg="http://www.w3.org/2000/svg"
   xmlns="http://www.w3.org/2000/svg"
   xmlns:xlink="http://www.w3.org/1999/xlink"
   xmlns:sodipodi="http://sodipodi.sourceforge.net/DTD/sodipodi-0.dtd"
   xmlns:inkscape="http://www.inkscape.org/namespaces/inkscape"
   width="48"
   height="48"
   id="svg2"
   version="1.1"
   inkscape:version="0.48+devel r12077"
   sodipodi:docname="dropbox.svg">
  <defs
     id="defs4">
    <linearGradient
       inkscape:collect="always"
       id="linearGradient855">
      <stop
         style="stop-color:#a4754d;stop-opacity:1"
         offset="0"
         id="stop857" />
      <stop
         style="stop-color:#d8bea5;stop-opacity:1"
         offset="1"
         id="stop859" />
    </linearGradient>
    <linearGradient
       inkscape:collect="always"
       xlink:href="#linearGradient1235"
       id="linearGradient1232"
       gradientUnits="userSpaceOnUse"
       x1="0.17677599"
       y1="-1033.8422"
       x2="2.9050136"
       y2="-1033.8422"
       gradientTransform="matrix(1,0,0,-1,1.75,-1004.3622)" />
    <linearGradient
       id="linearGradient1235"
       inkscape:collect="always">
      <stop
         id="stop1237"
         offset="0"
         style="stop-color:#e8dacf;stop-opacity:1" />
      <stop
         id="stop1239"
         offset="1"
         style="stop-color:#d8bea5;stop-opacity:0" />
    </linearGradient>
    <linearGradient
       inkscape:collect="always"
       xlink:href="#linearGradient1235"
       id="linearGradient1243"
       gradientUnits="userSpaceOnUse"
       gradientTransform="matrix(-1,0,0,-1,46.25,-1006.1122)"
       x1="0.17677599"
       y1="-1033.8422"
       x2="2.9523485"
       y2="-1033.8422" />
    <radialGradient
       inkscape:collect="always"
       xlink:href="#linearGradient1157"
       id="radialGradient1220"
       gradientUnits="userSpaceOnUse"
       gradientTransform="matrix(-0.93154453,0,0,0.4600088,-6.7603573,585.53295)"
       cx="28.526112"
       cy="1004.4934"
       fx="28.526112"
       fy="1004.4934"
       r="5.6404343" />
    <linearGradient
       inkscape:collect="always"
       id="linearGradient1157">
      <stop
         style="stop-color:#e9cead;stop-opacity:1;"
         offset="0"
         id="stop1159" />
      <stop
         style="stop-color:#e9cead;stop-opacity:0;"
         offset="1"
         id="stop1161" />
    </linearGradient>
    <radialGradient
       inkscape:collect="always"
       xlink:href="#linearGradient1157"
       id="radialGradient1163"
       cx="28.526112"
       cy="1004.4934"
       fx="28.526112"
       fy="1004.4934"
       r="5.6404343"
       gradientTransform="matrix(-0.93154453,0,0,-0.4600088,52.241427,465.4117)"
       gradientUnits="userSpaceOnUse" />
    <linearGradient
       inkscape:collect="always"
       xlink:href="#linearGradient855"
       id="linearGradient926"
       x1="25.261299"
       y1="1050.636"
       x2="25.261299"
       y2="1005.9116"
       gradientUnits="userSpaceOnUse" />
  </defs>
  <sodipodi:namedview
     id="base"
     pagecolor="#ffffff"
     bordercolor="#666666"
     borderopacity="1.0"
     inkscape:pageopacity="0.0"
     inkscape:pageshadow="2"
     inkscape:zoom="11.313709"
     inkscape:cx="25.74214"
     inkscape:cy="22.262418"
     inkscape:document-units="px"
     inkscape:current-layer="layer1"
     showgrid="false"
     inkscape:window-width="1366"
     inkscape:window-height="718"
     inkscape:window-x="0"
     inkscape:window-y="28"
     inkscape:window-maximized="1">
    <inkscape:grid
       type="xygrid"
       id="grid3850" />
  </sodipodi:namedview>
  <metadata
     id="metadata7">
    <rdf:RDF>
      <cc:Work
         rdf:about="">
        <dc:format>image/svg+xml</dc:format>
        <dc:type
           rdf:resource="http://purl.org/dc/dcmitype/StillImage" />
        <dc:title />
      </cc:Work>
    </rdf:RDF>
  </metadata>
  <g
     inkscape:label="Capa 1"
     inkscape:groupmode="layer"
     id="layer1"
     transform="translate(0,-1004.3622)">
    <rect
       style="color:#000000;fill:#333333;fill-opacity:1;fill-rule:nonzero;stroke:none;stroke-width:0.2;marker:none;visibility:visible;display:inline;overflow:visible;enable-background:accumulate"
       id="rect6294"
       width="45.5"
       height="45.5"
       x="1.25"
       y="1005.6122"
       ry="6.3565426" />
    <rect
       ry="5.8565426"
       y="1006.1122"
       x="1.75"
       height="44.5"
       width="44.5"
       id="rect6296"
       style="color:#000000;fill:url(#linearGradient926);fill-opacity:1;fill-rule:nonzero;stroke:none;stroke-width:0.2;marker:none;visibility:visible;display:inline;overflow:visible;enable-background:accumulate" />
    <path
       style="opacity:0.71499999;fill:url(#linearGradient1232);fill-opacity:1;stroke:none"
       d="M 7.59375 1.75 C 4.3492254 1.75 1.75 4.3492254 1.75 7.59375 L 1.75 40.40625 C 1.75 43.650775 4.3492254 46.25 7.59375 46.25 L 10.0625 46.25 L 10.0625 1.75 L 7.59375 1.75 z "
       transform="translate(0,1004.3622)"
       id="rect1228" />
    <path
       style="opacity:0.71499999;fill:url(#linearGradient1243);fill-opacity:1;stroke:none"
       d="M 37.9375 1.75 L 37.9375 46.25 L 40.40625 46.25 C 43.650775 46.25 46.25 43.650775 46.25 40.40625 L 46.25 7.59375 C 46.25 4.3492254 43.650775 1.75 40.40625 1.75 L 37.9375 1.75 z "
       transform="translate(0,1004.3622)"
       id="path1241" />
    <path
       style="opacity:0.07600002;color:#000000;fill:#503b2d;fill-opacity:1;fill-rule:nonzero;stroke:none;stroke-width:0.2;marker:none;visibility:visible;display:inline;overflow:visible;enable-background:accumulate"
       d="M 7.375 1.75 L 7.375 46.25 C 7.4488121 46.252731 7.5192469 46.25 7.59375 46.25 L 7.875 46.25 L 7.875 1.75 L 7.59375 1.75 C 7.5192469 1.75 7.4488121 1.7472694 7.375 1.75 z M 8.3125 1.75 L 8.3125 46.25 L 8.8125 46.25 L 8.8125 1.75 L 8.3125 1.75 z M 9.25 1.75 L 9.25 46.25 L 9.8125 46.25 L 9.8125 1.75 L 9.25 1.75 z M 10.1875 1.75 L 10.1875 46.25 L 10.75 46.25 L 10.75 1.75 L 10.1875 1.75 z M 11.125 1.75 L 11.125 46.25 L 11.6875 46.25 L 11.6875 1.75 L 11.125 1.75 z M 12.0625 1.75 L 12.0625 46.25 L 12.625 46.25 L 12.625 1.75 L 12.0625 1.75 z M 13.0625 1.75 L 13.0625 46.25 L 13.5625 46.25 L 13.5625 1.75 L 13.0625 1.75 z M 14 1.75 L 14 46.25 L 14.5 46.25 L 14.5 1.75 L 14 1.75 z M 14.9375 1.75 L 14.9375 46.25 L 15.4375 46.25 L 15.4375 1.75 L 14.9375 1.75 z M 15.875 1.75 L 15.875 46.25 L 16.375 46.25 L 16.375 1.75 L 15.875 1.75 z M 16.8125 1.75 L 16.8125 46.25 L 17.375 46.25 L 17.375 1.75 L 16.8125 1.75 z M 17.75 1.75 L 17.75 46.25 L 18.3125 46.25 L 18.3125 1.75 L 17.75 1.75 z M 18.6875 1.75 L 18.6875 46.25 L 19.1875 46.25 L 19.1875 1.75 L 18.6875 1.75 z M 19.625 1.75 L 19.625 46.25 L 20.125 46.25 L 20.125 1.75 L 19.625 1.75 z M 20.5625 1.75 L 20.5625 46.25 L 21.0625 46.25 L 21.0625 1.75 L 20.5625 1.75 z M 21.4375 1.75 L 21.4375 46.25 L 21.9375 46.25 L 21.9375 1.75 L 21.4375 1.75 z M 22.375 1.75 L 22.375 46.25 L 22.875 46.25 L 22.875 1.75 L 22.375 1.75 z M 23.3125 1.75 L 23.3125 46.25 L 23.8125 46.25 L 23.8125 1.75 L 23.3125 1.75 z M 24.1875 1.75 L 24.1875 46.25 L 24.6875 46.25 L 24.6875 1.75 L 24.1875 1.75 z M 25.125 1.75 L 25.125 46.25 L 25.625 46.25 L 25.625 1.75 L 25.125 1.75 z M 26.0625 1.75 L 26.0625 46.25 L 26.5625 46.25 L 26.5625 1.75 L 26.0625 1.75 z M 26.9375 1.75 L 26.9375 46.25 L 27.4375 46.25 L 27.4375 1.75 L 26.9375 1.75 z M 27.875 1.75 L 27.875 46.25 L 28.375 46.25 L 28.375 1.75 L 27.875 1.75 z M 28.75 1.75 L 28.75 46.25 L 29.25 46.25 L 29.25 1.75 L 28.75 1.75 z M 29.6875 1.75 L 29.6875 46.25 L 30.25 46.25 L 30.25 1.75 L 29.6875 1.75 z M 30.625 1.75 L 30.625 46.25 L 31.1875 46.25 L 31.1875 1.75 L 30.625 1.75 z M 31.5625 1.75 L 31.5625 46.25 L 32.125 46.25 L 32.125 1.75 L 31.5625 1.75 z M 32.5625 1.75 L 32.5625 46.25 L 33.0625 46.25 L 33.0625 1.75 L 32.5625 1.75 z M 33.5 1.75 L 33.5 46.25 L 34 46.25 L 34 1.75 L 33.5 1.75 z M 34.4375 1.75 L 34.4375 46.25 L 34.9375 46.25 L 34.9375 1.75 L 34.4375 1.75 z M 35.375 1.75 L 35.375 46.25 L 35.875 46.25 L 35.875 1.75 L 35.375 1.75 z M 36.3125 1.75 L 36.3125 46.25 L 36.875 46.25 L 36.875 1.75 L 36.3125 1.75 z M 37.25 1.75 L 37.25 46.25 L 37.8125 46.25 L 37.8125 1.75 L 37.25 1.75 z M 38.1875 1.75 L 38.1875 46.25 L 38.75 46.25 L 38.75 1.75 L 38.1875 1.75 z M 39.125 1.75 L 39.125 46.25 L 39.6875 46.25 L 39.6875 1.75 L 39.125 1.75 z M 40.125 1.75 L 40.125 46.25 L 40.40625 46.25 C 40.480753 46.25 40.551188 46.252731 40.625 46.25 L 40.625 1.75 C 40.551188 1.7472694 40.480753 1.75 40.40625 1.75 L 40.125 1.75 z M 6.9375 1.78125 C 6.7620526 1.8008886 6.6078217 1.8403235 6.4375 1.875 L 6.4375 46.125 C 6.6078217 46.159676 6.7620526 46.199111 6.9375 46.21875 L 6.9375 1.78125 z M 41.0625 1.78125 L 41.0625 46.21875 C 41.237947 46.199111 41.392178 46.159676 41.5625 46.125 L 41.5625 1.875 C 41.392178 1.8403235 41.237947 1.8008886 41.0625 1.78125 z M 6 1.96875 C 5.8159661 2.0213099 5.6135425 2.0866889 5.4375 2.15625 L 5.4375 45.84375 C 5.6135425 45.913311 5.8159661 45.97869 6 46.03125 L 6 1.96875 z M 42 1.96875 L 42 46.03125 C 42.166146 45.983799 42.34033 45.905096 42.5 45.84375 L 42.5 2.15625 C 42.34033 2.0949045 42.166146 2.0162012 42 1.96875 z M 5.0625 2.34375 C 4.8686851 2.4368693 4.6811391 2.5431519 4.5 2.65625 L 4.5 45.34375 C 4.6811391 45.456848 4.8686851 45.563131 5.0625 45.65625 L 5.0625 2.34375 z M 42.9375 2.34375 L 42.9375 45.65625 C 43.131315 45.563131 43.318861 45.456848 43.5 45.34375 L 43.5 2.65625 C 43.318861 2.5431519 43.131315 2.4368693 42.9375 2.34375 z M 4.125 2.90625 C 3.9254815 3.0534464 3.7413929 3.204136 3.5625 3.375 L 3.5625 44.625 C 3.7413929 44.795864 3.9254815 44.946554 4.125 45.09375 L 4.125 2.90625 z M 43.875 2.90625 L 43.875 45.09375 C 44.074518 44.946554 44.258607 44.795864 44.4375 44.625 L 44.4375 3.375 C 44.258607 3.204136 44.074518 3.0534464 43.875 2.90625 z M 3.1875 3.78125 C 2.9820086 4.0190985 2.7904143 4.2620402 2.625 4.53125 L 2.625 43.46875 C 2.7904143 43.73796 2.9820086 43.980902 3.1875 44.21875 L 3.1875 3.78125 z M 44.8125 3.78125 L 44.8125 44.21875 C 45.017991 43.980902 45.209586 43.73796 45.375 43.46875 L 45.375 4.53125 C 45.209586 4.2620402 45.017991 4.0190985 44.8125 3.78125 z M 45.75 5.25 L 45.75 42.75 C 46.063306 42.031524 46.25 41.242729 46.25 40.40625 L 46.25 7.59375 C 46.25 6.757271 46.063306 5.9684759 45.75 5.25 z M 2.1875 5.40625 C 1.9144391 6.0841986 1.75 6.8157817 1.75 7.59375 L 1.75 40.40625 C 1.75 41.184218 1.9144391 41.915801 2.1875 42.59375 L 2.1875 5.40625 z "
       transform="translate(0,1004.3622)"
       id="path1139" />
    <g
       id="g907"
       transform="matrix(0.92052494,0,0,0.92052494,1.9074014,81.457547)">
      <g
         style="fill:#503b2d;fill-opacity:1"
         transform="translate(0,1004.3622)"
         id="layer1-2"
         inkscape:label="Layer 1">
        <path
           style="fill:#503b2d;fill-opacity:1;stroke:none"
           d="m 17.066985,8 -10.16268,6.736842 6.96651,5.502392 L 23.918655,14 17.066985,8 z m -3.19617,12.239234 -6.96651,5.492823 10.16268,6.736843 6.85167,-6 L 13.870815,20.239234 Z M 30.933015,8 l -6.85168,6 10.04785,6.239234 6.96651,-5.502392 L 30.933015,8 z m 3.19617,12.239234 -10.04785,6.229666 6.85168,6 10.16268,-6.736843 L 34.129185,20.239234 z m -10.11483,7.129187 -6.92823,5.837321 -3.33015,-1.85646 0,2.526316 L 24.014355,40 l 10.25837,-6.124402 0,-2.526316 -3.33971,1.85646 L 24.014355,27.368421 Z"
           id="path899"
           inkscape:connector-curvature="0" />
      </g>
      <path
         inkscape:connector-curvature="0"
         id="path877"
         d="m 23.6875,1018.5145 -9.8125,6.0938 0.21875,0.125 -0.21875,0.125 0.28125,0.1562 9.75,-6.0625 -0.15625,-0.1562 0.15625,-0.094 L 23.6875,1018.5145 z m -9.8125,6.3438 -0.15625,-0.125 0.15625,-0.125 -6.71875,-5.3125 -0.25,0.1562 0.1875,0.125 -0.1875,0.125 6.75,5.3125 L 13.875,1024.8583 z m 10.4375,-6.3438 -0.21875,0.1875 0.15625,0.094 -0.15625,0.1562 9.75,6.0625 0.28125,-0.1562 -0.21875,-0.125 0.21875,-0.125 L 24.3125,1018.5145 z m 9.8125,6.0938 0.15625,0.125 -0.15625,0.125 0.21875,0.1562 6.75,-5.3125 -0.1875,-0.125 0.1875,-0.125 -0.25,-0.1562 L 34.125,1024.6083 z m -26.96875,5.625 -0.25,0.1875 0.1875,0.125 -0.1875,0.125 10.15625,6.75 6.84375,-6 -0.15625,-0.125 0.15625,-0.125 -0.21875,-0.1563 -6.625,5.8125 L 7.15625,1030.2333 z m 33.6875,0 -9.90625,6.5937 -6.625,-5.8125 -0.21875,0.1563 0.15625,0.125 -0.15625,0.125 6.84375,6 10.15625,-6.75 -0.1875,-0.125 0.1875,-0.125 L 40.84375,1030.2333 z m -27.09375,8 0,0.25 0,0.094 0,0.25 10.25,6.125 10.28125,-6.125 0,-0.25 0,-0.094 0,-0.25 L 24,1044.3583 13.75,1038.2333 Z"
         style="fill:#ffffff;fill-opacity:0.23628696;stroke:none" />
      <path
         id="path886"
         transform="translate(0,1004.3622)"
         d="M 17.0625,8 6.90625,14.75 7.375,15.125 17.0625,8.71875 23.4375,14.3125 23.90625,14 17.0625,8 z m 13.875,0 -6.84375,6 0.46875,0.3125 6.375,-5.59375 L 40.625,15.125 41.09375,14.75 30.9375,8 z m -17.5,12.59375 -6.53125,5.125 0.5,0.34375 L 13.875,20.9375 13.4375,20.59375 z m 0.4375,0.34375 9.5625,5.9375 0.46875,-0.40625 -9.46875,-5.875 L 13.875,20.9375 z m 19.6875,-0.34375 -9.46875,5.875 L 24.5625,26.875 34.125,20.9375 33.5625,20.59375 z m 0.5625,0.34375 6.46875,5.125 0.5,-0.34375 -6.53125,-5.125 L 34.125,20.9375 Z M 24,27.375 17.09375,33.21875 17.0625,33.1875 13.75,31.34375 l 0,0.71875 3.34375,1.84375 L 24,28.0625 l 6.9375,5.84375 3.34375,-1.84375 0,-0.71875 -3.34375,1.875 L 24,27.375 Z"
         style="fill:#000000;fill-opacity:0.29957808;stroke:none"
         inkscape:connector-curvature="0" />
    </g>
    <g
       id="g935"
       transform="translate(58.939284,0.58948262)">
      <path
         inkscape:connector-curvature="0"
         id="path1248"
         d="m -40.814284,1049.7133 0,-5.4087 0.71875,0.6724 0.75,-0.7017 0.5625,0.5263 0.84375,-0.7602 1,0.9356 0.75,-0.7017 0.5625,0.5263 0.84375,-0.7602 1,0.9356 0.75,-0.7017 0.5625,0.5263 0.84375,-0.7602 1,0.9356 0.75,-0.7017 0.5625,0.5263 0.25,-0.2338 0,5.1455 L -40.814284,1049.7133 Z"
         style="color:#000000;fill:#000000;fill-opacity:0.26160338;fill-rule:nonzero;stroke:none;stroke-width:0.2;marker:none;visibility:visible;display:inline;overflow:visible;enable-background:accumulate" />
      <path
         style="color:#000000;fill:#f9f0dc;fill-opacity:1;fill-rule:nonzero;stroke:none;stroke-width:0.2;marker:none;visibility:visible;display:inline;overflow:visible;enable-background:accumulate"
         d="m -40.814284,1050.0227 0,-5.4087 0.71875,0.6724 0.75,-0.7017 0.5625,0.5263 0.84375,-0.7602 1,0.9356 0.75,-0.7017 0.5625,0.5263 0.84375,-0.7602 1,0.9356 0.75,-0.7017 0.5625,0.5263 0.84375,-0.7602 1,0.9356 0.75,-0.7017 0.5625,0.5263 0.25,-0.2338 0,5.1455 L -40.814284,1050.0227 Z"
         id="path1214"
         inkscape:connector-curvature="0" />
      <path
         inkscape:connector-curvature="0"
         style="color:#000000;fill:#f3e0c5;fill-opacity:1;fill-rule:nonzero;stroke:none;stroke-width:0.2;marker:none;visibility:visible;display:inline;overflow:visible;enable-background:accumulate"
         d="m -40.314284,1050.0071 0,-4.4687 0.21875,0.2187 0.75,-0.75 0.5625,0.5625 0.84375,-0.8125 1,1 0.75,-0.75 0.5625,0.5625 0.84375,-0.8125 1,1 0.75,-0.75 0.5625,0.5625 0.84375,-0.8125 1,1 0.75,-0.75 0.3125,0.3125 0,4.6875 L -40.314284,1050.0071 Z"
         id="path1216" />
      <path
         inkscape:connector-curvature="0"
         style="color:#000000;fill:url(#radialGradient1220);fill-opacity:1;fill-rule:nonzero;stroke:none;stroke-width:0.2;marker:none;visibility:visible;display:inline;overflow:visible;enable-background:accumulate"
         d="m -40.189284,1050.0071 0,-4.3437 0.09375,0.094 0.75,-0.75 0.5625,0.5625 0.84375,-0.8125 1,1 0.75,-0.75 0.5625,0.5625 0.84375,-0.8125 1,1 0.75,-0.75 0.5625,0.5625 0.84375,-0.8125 1,1 0.75,-0.75 0.1875,0.1875 0,4.8125 L -40.189284,1050.0071 Z"
         id="path1218" />
    </g>
    <g
       id="g928"
       transform="translate(58.970534,3.4331591)">
      <path
         style="color:#000000;fill:#000000;fill-opacity:0.19607843;fill-rule:nonzero;stroke:none;stroke-width:0.2;marker:none;visibility:visible;display:inline;overflow:visible;enable-background:accumulate"
         d="m -40.876784,1003.2723 0,5.4087 0.71875,-0.6724 0.75,0.7017 0.5625,-0.5263 0.84375,0.7602 1,-0.9356 0.75,0.7017 0.5625,-0.5263 0.84375,0.7602 1,-0.9356 0.75,0.7017 0.5625,-0.5263 0.84375,0.7602 1,-0.9356 0.75,0.7017 0.5625,-0.5263 0.25,0.2338 0,-5.1455 L -40.876784,1003.2723 Z"
         id="path1250"
         inkscape:connector-curvature="0" />
      <g
         transform="translate(-59.001784,-2.6050765)"
         id="g1207">
        <path
           style="color:#000000;fill:#f9f0dc;fill-opacity:1;fill-rule:nonzero;stroke:none;stroke-width:0.2;marker:none;visibility:visible;display:inline;overflow:visible;enable-background:accumulate"
           d="m 18.1875,1005.2841 0,5.4087 0.71875,-0.6724 0.75,0.7017 0.5625,-0.5263 0.84375,0.7602 1,-0.9356 0.75,0.7017 0.5625,-0.5263 0.84375,0.7602 1,-0.9356 0.75,0.7017 0.5625,-0.5263 0.84375,0.7602 1,-0.9356 0.75,0.7017 0.5625,-0.5263 0.25,0.2338 0,-5.1455 L 18.1875,1005.2841 Z"
           id="rect1149"
           inkscape:connector-curvature="0" />
        <path
           inkscape:connector-curvature="0"
           style="color:#000000;fill:#f3e0c5;fill-opacity:1;fill-rule:nonzero;stroke:none;stroke-width:0.2;marker:none;visibility:visible;display:inline;overflow:visible;enable-background:accumulate"
           d="m 18.6875,0.9375 0,4.46875 0.21875,-0.21875 0.75,0.75 0.5625,-0.5625 0.84375,0.8125 1,-1 0.75,0.75 0.5625,-0.5625 0.84375,0.8125 1,-1 0.75,0.75 0.5625,-0.5625 0.84375,0.8125 1,-1 0.75,0.75 0.3125,-0.3125 0,-4.6875 L 18.6875,0.9375 Z"
           transform="translate(0,1004.3622)"
           id="rect1153" />
        <path
           inkscape:connector-curvature="0"
           style="color:#000000;fill:url(#radialGradient1163);fill-opacity:1;fill-rule:nonzero;stroke:none;stroke-width:0.2;marker:none;visibility:visible;display:inline;overflow:visible;enable-background:accumulate"
           d="m 18.8125,0.9375 0,4.34375 0.09375,-0.09375 0.75,0.75 0.5625,-0.5625 0.84375,0.8125 1,-1 0.75,0.75 0.5625,-0.5625 0.84375,0.8125 1,-1 0.75,0.75 0.5625,-0.5625 0.84375,0.8125 1,-1 0.75,0.75 0.1875,-0.1875 0,-4.8125 L 18.8125,0.9375 Z"
           transform="translate(0,1004.3622)"
           id="rect1155" />
      </g>
    </g>
    <path
       inkscape:connector-curvature="0"
       style="color:#000000;fill:#000000;fill-opacity:1;fill-rule:nonzero;stroke:none;stroke-width:0.2;marker:none;visibility:visible;display:inline;overflow:visible;enable-background:accumulate"
       d="m 1.7500001,1044.1746 0,0.5625 c 0,3.2445 2.599225,5.875 5.8437502,5.875 l 32.8124997,0 c 3.244525,0 5.84375,-2.6305 5.84375,-5.875 l 0,-0.5625 c 0,3.2445 -2.599225,5.875 -5.84375,5.875 l -32.8124997,0 C 4.3492251,1050.0496 1.7500001,1047.4191 1.7500001,1044.1746 Z"
       id="path6388" />
    <path
       id="path6361"
       d="m 1.7500001,1012.5496 0,-0.5625 c 0,-3.2444 2.599225,-5.8749 5.8437502,-5.8749 l 32.8124997,0 c 3.244525,0 5.84375,2.6305 5.84375,5.8749 l 0,0.5625 c 0,-3.2444 -2.599225,-5.8749 -5.84375,-5.8749 l -32.8124997,0 C 4.3492251,1006.6747 1.7500001,1009.3052 1.7500001,1012.5496 Z"
       style="color:#000000;fill:#ffffff;fill-opacity:1;fill-rule:nonzero;stroke:none;stroke-width:0.2;marker:none;visibility:visible;display:inline;overflow:visible;enable-background:accumulate"
       inkscape:connector-curvature="0" />
  </g>
</svg>
