<?xml version="1.0" encoding="UTF-8" standalone="no"?>
<!-- Created with Inkscape (http://www.inkscape.org/) -->

<svg
   xmlns:dc="http://purl.org/dc/elements/1.1/"
   xmlns:cc="http://creativecommons.org/ns#"
   xmlns:rdf="http://www.w3.org/1999/02/22-rdf-syntax-ns#"
   xmlns:svg="http://www.w3.org/2000/svg"
   xmlns="http://www.w3.org/2000/svg"
   xmlns:xlink="http://www.w3.org/1999/xlink"
   xmlns:sodipodi="http://sodipodi.sourceforge.net/DTD/sodipodi-0.dtd"
   xmlns:inkscape="http://www.inkscape.org/namespaces/inkscape"
   width="48"
   height="48"
   id="svg2"
   version="1.1"
   inkscape:version="0.48+devel r12123"
   sodipodi:docname="easy-tag.svg">
  <defs
     id="defs4">
    <linearGradient
       inkscape:collect="always"
       id="linearGradient861">
      <stop
         style="stop-color:#f9f9f9;stop-opacity:1"
         offset="0"
         id="stop863" />
      <stop
         style="stop-color:#ffffff;stop-opacity:1"
         offset="1"
         id="stop865" />
    </linearGradient>
    <radialGradient
       inkscape:collect="always"
       xlink:href="#linearGradient42363"
       id="radialGradient42515"
       gradientUnits="userSpaceOnUse"
       cx="35.565262"
       cy="14.594728"
       fx="35.565262"
       fy="14.594728"
       r="0.8175922" />
    <linearGradient
       id="linearGradient42363"
       inkscape:collect="always">
      <stop
         id="stop42365"
         offset="0"
         style="stop-color:#e6e6e6;stop-opacity:1" />
      <stop
         id="stop42367"
         offset="1"
         style="stop-color:#474644;stop-opacity:1" />
    </linearGradient>
    <radialGradient
       inkscape:collect="always"
       xlink:href="#linearGradient42363"
       id="radialGradient42523"
       gradientUnits="userSpaceOnUse"
       cx="35.565262"
       cy="14.594728"
       fx="35.565262"
       fy="14.594728"
       r="0.8175922" />
    <radialGradient
       inkscape:collect="always"
       xlink:href="#linearGradient42363"
       id="radialGradient42531"
       gradientUnits="userSpaceOnUse"
       cx="35.565262"
       cy="14.594728"
       fx="35.565262"
       fy="14.594728"
       r="0.8175922" />
    <radialGradient
       inkscape:collect="always"
       xlink:href="#linearGradient42363"
       id="radialGradient42539"
       gradientUnits="userSpaceOnUse"
       cx="35.565262"
       cy="14.594728"
       fx="35.565262"
       fy="14.594728"
       r="0.8175922" />
    <radialGradient
       inkscape:collect="always"
       xlink:href="#linearGradient42363"
       id="radialGradient42547"
       gradientUnits="userSpaceOnUse"
       cx="35.565262"
       cy="14.594728"
       fx="35.565262"
       fy="14.594728"
       r="0.8175922" />
    <radialGradient
       inkscape:collect="always"
       xlink:href="#linearGradient42363"
       id="radialGradient42555"
       gradientUnits="userSpaceOnUse"
       cx="35.565262"
       cy="14.594728"
       fx="35.565262"
       fy="14.594728"
       r="0.8175922" />
    <radialGradient
       inkscape:collect="always"
       xlink:href="#linearGradient42363"
       id="radialGradient42563"
       gradientUnits="userSpaceOnUse"
       cx="35.565262"
       cy="14.594728"
       fx="35.565262"
       fy="14.594728"
       r="0.8175922" />
    <radialGradient
       inkscape:collect="always"
       xlink:href="#linearGradient42363"
       id="radialGradient42571"
       gradientUnits="userSpaceOnUse"
       cx="35.565262"
       cy="14.594728"
       fx="35.565262"
       fy="14.594728"
       r="0.8175922" />
    <radialGradient
       inkscape:collect="always"
       xlink:href="#linearGradient42363"
       id="radialGradient42579"
       gradientUnits="userSpaceOnUse"
       cx="35.565262"
       cy="14.594728"
       fx="35.565262"
       fy="14.594728"
       r="0.8175922" />
    <linearGradient
       inkscape:collect="always"
       xlink:href="#linearGradient914"
       id="linearGradient1203"
       gradientUnits="userSpaceOnUse"
       gradientTransform="matrix(0.7243954,-0.7243954,0.7243954,0.7243954,-4.3641309,1031.6384)"
       x1="21.478369"
       y1="27.051962"
       x2="21.478369"
       y2="12.733049" />
    <linearGradient
       inkscape:collect="always"
       id="linearGradient914">
      <stop
         style="stop-color:#2f2f2f;stop-opacity:1"
         offset="0"
         id="stop916" />
      <stop
         style="stop-color:#474644;stop-opacity:1"
         offset="1"
         id="stop918" />
    </linearGradient>
    <linearGradient
       inkscape:collect="always"
       xlink:href="#linearGradient914"
       id="linearGradient920"
       x1="21.478369"
       y1="27.051962"
       x2="21.478369"
       y2="12.733049"
       gradientUnits="userSpaceOnUse"
       gradientTransform="matrix(0.7243954,-0.7243954,0.7243954,0.7243954,-4.3641309,1031.6384)" />
    <radialGradient
       inkscape:collect="always"
       xlink:href="#linearGradient42363"
       id="radialGradient42361"
       cx="35.565262"
       cy="14.594728"
       fx="35.565262"
       fy="14.594728"
       r="0.8175922"
       gradientUnits="userSpaceOnUse" />
    <radialGradient
       inkscape:collect="always"
       xlink:href="#linearGradient42363"
       id="radialGradient42419"
       gradientUnits="userSpaceOnUse"
       cx="35.565262"
       cy="14.594728"
       fx="35.565262"
       fy="14.594728"
       r="0.8175922" />
    <radialGradient
       inkscape:collect="always"
       xlink:href="#linearGradient42363"
       id="radialGradient42427"
       gradientUnits="userSpaceOnUse"
       cx="35.565262"
       cy="14.594728"
       fx="35.565262"
       fy="14.594728"
       r="0.8175922" />
    <radialGradient
       inkscape:collect="always"
       xlink:href="#linearGradient42363"
       id="radialGradient42435"
       gradientUnits="userSpaceOnUse"
       cx="35.565262"
       cy="14.594728"
       fx="35.565262"
       fy="14.594728"
       r="0.8175922" />
    <radialGradient
       inkscape:collect="always"
       xlink:href="#linearGradient42363"
       id="radialGradient42443"
       gradientUnits="userSpaceOnUse"
       cx="35.565262"
       cy="14.594728"
       fx="35.565262"
       fy="14.594728"
       r="0.8175922" />
    <radialGradient
       inkscape:collect="always"
       xlink:href="#linearGradient42363"
       id="radialGradient42451"
       gradientUnits="userSpaceOnUse"
       cx="35.565262"
       cy="14.594728"
       fx="35.565262"
       fy="14.594728"
       r="0.8175922" />
    <radialGradient
       inkscape:collect="always"
       xlink:href="#linearGradient42363"
       id="radialGradient42459"
       gradientUnits="userSpaceOnUse"
       cx="35.565262"
       cy="14.594728"
       fx="35.565262"
       fy="14.594728"
       r="0.8175922" />
    <radialGradient
       inkscape:collect="always"
       xlink:href="#linearGradient42363"
       id="radialGradient42467"
       gradientUnits="userSpaceOnUse"
       cx="35.565262"
       cy="14.594728"
       fx="35.565262"
       fy="14.594728"
       r="0.8175922" />
    <radialGradient
       inkscape:collect="always"
       xlink:href="#linearGradient42363"
       id="radialGradient42475"
       gradientUnits="userSpaceOnUse"
       cx="35.565262"
       cy="14.594728"
       fx="35.565262"
       fy="14.594728"
       r="0.8175922" />
    <radialGradient
       inkscape:collect="always"
       xlink:href="#linearGradient42363"
       id="radialGradient42483"
       gradientUnits="userSpaceOnUse"
       cx="35.565262"
       cy="14.594728"
       fx="35.565262"
       fy="14.594728"
       r="0.8175922" />
    <radialGradient
       inkscape:collect="always"
       xlink:href="#linearGradient42363"
       id="radialGradient42491"
       gradientUnits="userSpaceOnUse"
       cx="35.565262"
       cy="14.594728"
       fx="35.565262"
       fy="14.594728"
       r="0.8175922" />
    <radialGradient
       inkscape:collect="always"
       xlink:href="#linearGradient42363"
       id="radialGradient42507"
       gradientUnits="userSpaceOnUse"
       cx="35.565262"
       cy="14.594728"
       fx="35.565262"
       fy="14.594728"
       r="0.8175922" />
    <radialGradient
       inkscape:collect="always"
       xlink:href="#linearGradient42363"
       id="radialGradient42810"
       gradientUnits="userSpaceOnUse"
       cx="35.565262"
       cy="14.594728"
       fx="35.565262"
       fy="14.594728"
       r="0.8175922" />
    <radialGradient
       inkscape:collect="always"
       xlink:href="#linearGradient42363"
       id="radialGradient42818"
       gradientUnits="userSpaceOnUse"
       cx="35.565262"
       cy="14.594728"
       fx="35.565262"
       fy="14.594728"
       r="0.8175922" />
    <radialGradient
       inkscape:collect="always"
       xlink:href="#linearGradient42363"
       id="radialGradient42834"
       gradientUnits="userSpaceOnUse"
       cx="35.565262"
       cy="14.594728"
       fx="35.565262"
       fy="14.594728"
       r="0.8175922" />
    <radialGradient
       inkscape:collect="always"
       xlink:href="#linearGradient42363"
       id="radialGradient42832"
       gradientUnits="userSpaceOnUse"
       cx="35.565262"
       cy="14.594728"
       fx="35.565262"
       fy="14.594728"
       r="0.8175922" />
    <radialGradient
       inkscape:collect="always"
       xlink:href="#linearGradient42363"
       id="radialGradient42842"
       gradientUnits="userSpaceOnUse"
       cx="35.565262"
       cy="14.594728"
       fx="35.565262"
       fy="14.594728"
       r="0.8175922" />
    <radialGradient
       inkscape:collect="always"
       xlink:href="#linearGradient42363"
       id="radialGradient42850"
       gradientUnits="userSpaceOnUse"
       cx="35.565262"
       cy="14.594728"
       fx="35.565262"
       fy="14.594728"
       r="0.8175922" />
    <linearGradient
       inkscape:collect="always"
       xlink:href="#linearGradient861"
       id="linearGradient1326"
       x1="24.077015"
       y1="1050.5352"
       x2="24.077015"
       y2="1005.874"
       gradientUnits="userSpaceOnUse" />
  </defs>
  <sodipodi:namedview
     id="base"
     pagecolor="#ffffff"
     bordercolor="#666666"
     borderopacity="1.0"
     inkscape:pageopacity="0.0"
     inkscape:pageshadow="2"
     inkscape:zoom="6.492308"
     inkscape:cx="-3.5823007"
     inkscape:cy="36.281774"
     inkscape:document-units="px"
     inkscape:current-layer="layer1"
     showgrid="false"
     inkscape:window-width="1366"
     inkscape:window-height="718"
     inkscape:window-x="0"
     inkscape:window-y="28"
     inkscape:window-maximized="1" />
  <metadata
     id="metadata7">
    <rdf:RDF>
      <cc:Work
         rdf:about="">
        <dc:format>image/svg+xml</dc:format>
        <dc:type
           rdf:resource="http://purl.org/dc/dcmitype/StillImage" />
        <dc:title />
      </cc:Work>
    </rdf:RDF>
  </metadata>
  <g
     inkscape:label="Capa 1"
     inkscape:groupmode="layer"
     id="layer1"
     transform="translate(0,-1004.3622)">
    <rect
       style="color:#000000;fill:#333333;fill-opacity:1;fill-rule:nonzero;stroke:none;stroke-width:0.2;marker:none;visibility:visible;display:inline;overflow:visible;enable-background:accumulate"
       id="rect6294"
       width="45.5"
       height="45.5"
       x="1.25"
       y="1005.6122"
       ry="6.3565426" />
    <rect
       ry="5.8565426"
       y="1006.1122"
       x="1.75"
       height="44.5"
       width="44.5"
       id="rect6296"
       style="color:#000000;fill:url(#linearGradient1326);fill-opacity:1;fill-rule:nonzero;stroke:none;stroke-width:0.2;marker:none;visibility:visible;display:inline;overflow:visible;enable-background:accumulate" />
    <path
       id="path6361"
       d="m 1.7500035,1012.5497 0,-0.5625 c 0,-3.2445 2.5992,-5.875 5.8438,-5.875 l 32.8125005,0 c 3.2445,0 5.8437,2.6305 5.8437,5.875 l 0,0.5625 c 0,-3.2445 -2.5992,-5.875 -5.8437,-5.875 l -32.8125005,0 C 4.3492035,1006.6747 1.7500035,1009.3052 1.7500035,1012.5497 Z"
       style="color:#000000;fill:#ffffff;fill-opacity:1;fill-rule:nonzero;stroke:none;stroke-width:0.2;marker:none;visibility:visible;display:inline;overflow:visible;enable-background:accumulate"
       inkscape:connector-curvature="0" />
    <path
       inkscape:connector-curvature="0"
       style="color:#000000;fill:#000000;fill-opacity:1;fill-rule:nonzero;stroke:none;stroke-width:0.2;marker:none;visibility:visible;display:inline;overflow:visible;enable-background:accumulate"
       d="m 1.7500035,1044.1747 0,0.5625 c 0,3.2445 2.5992,5.875 5.8438,5.875 l 32.8125005,0 c 3.2445,0 5.8437,-2.6305 5.8437,-5.875 l 0,-0.5625 c 0,3.2445 -2.5992,5.875 -5.8437,5.875 l -32.8125005,0 C 4.3492035,1050.0497 1.7500035,1047.4192 1.7500035,1044.1747 Z"
       id="path6388" />
    <g
       transform="matrix(0.93750002,0,0,0.93750002,1.4999995,64.272616)"
       id="g43054">
      <g
         transform="matrix(0.93386322,0,0,0.93386322,1.395668,68.698003)"
         id="g42589">
        <g
           transform="matrix(0.67243687,0,0,0.67243687,10.282379,325.7706)"
           id="g42509">
          <path
             transform="matrix(1.0726218,0,0,1.0726218,-4.5924767,1003.146)"
             d="m 36.062446,14.920661 c 0,0.451544 -0.366048,0.817592 -0.817592,0.817592 -0.451544,0 -0.817592,-0.366048 -0.817592,-0.817592 0,-0.451544 0.366048,-0.817592 0.817592,-0.817592 C 35.696398,14.103069 36.062446,14.469117 36.062446,14.920661 Z"
             sodipodi:ry="0.8175922"
             sodipodi:rx="0.8175922"
             sodipodi:cy="14.920661"
             sodipodi:cx="35.244854"
             id="path42511"
             style="fill:#000000;fill-opacity:0.34497818;stroke:none"
             sodipodi:type="arc" />
          <path
             sodipodi:type="arc"
             style="fill:url(#radialGradient42515);fill-opacity:1;stroke:none"
             id="path42513"
             sodipodi:cx="35.244854"
             sodipodi:cy="14.920661"
             sodipodi:rx="0.8175922"
             sodipodi:ry="0.8175922"
             d="m 36.062446,14.920661 c 0,0.451544 -0.366048,0.817592 -0.817592,0.817592 -0.451544,0 -0.817592,-0.366048 -0.817592,-0.817592 0,-0.451544 0.366048,-0.817592 0.817592,-0.817592 C 35.696398,14.103069 36.062446,14.469117 36.062446,14.920661 Z"
             transform="translate(-2.032932,1004.2296)" />
        </g>
        <g
           id="g42517"
           transform="matrix(0.67243687,0,0,0.67243687,9.9730198,326.91965)">
          <path
             sodipodi:type="arc"
             style="fill:#000000;fill-opacity:0.34497818;stroke:none"
             id="path42519"
             sodipodi:cx="35.244854"
             sodipodi:cy="14.920661"
             sodipodi:rx="0.8175922"
             sodipodi:ry="0.8175922"
             d="m 36.062446,14.920661 c 0,0.451544 -0.366048,0.817592 -0.817592,0.817592 -0.451544,0 -0.817592,-0.366048 -0.817592,-0.817592 0,-0.451544 0.366048,-0.817592 0.817592,-0.817592 C 35.696398,14.103069 36.062446,14.469117 36.062446,14.920661 Z"
             transform="matrix(1.0726218,0,0,1.0726218,-4.5924767,1003.146)" />
          <path
             transform="translate(-2.032932,1004.2296)"
             d="m 36.062446,14.920661 c 0,0.451544 -0.366048,0.817592 -0.817592,0.817592 -0.451544,0 -0.817592,-0.366048 -0.817592,-0.817592 0,-0.451544 0.366048,-0.817592 0.817592,-0.817592 C 35.696398,14.103069 36.062446,14.469117 36.062446,14.920661 Z"
             sodipodi:ry="0.8175922"
             sodipodi:rx="0.8175922"
             sodipodi:cy="14.920661"
             sodipodi:cx="35.244854"
             id="path42521"
             style="fill:url(#radialGradient42523);fill-opacity:1;stroke:none"
             sodipodi:type="arc" />
        </g>
        <g
           transform="matrix(0.67243687,0,0,0.67243687,9.774146,328.11289)"
           id="g42525">
          <path
             transform="matrix(1.0726218,0,0,1.0726218,-4.5924767,1003.146)"
             d="m 36.062446,14.920661 c 0,0.451544 -0.366048,0.817592 -0.817592,0.817592 -0.451544,0 -0.817592,-0.366048 -0.817592,-0.817592 0,-0.451544 0.366048,-0.817592 0.817592,-0.817592 C 35.696398,14.103069 36.062446,14.469117 36.062446,14.920661 Z"
             sodipodi:ry="0.8175922"
             sodipodi:rx="0.8175922"
             sodipodi:cy="14.920661"
             sodipodi:cx="35.244854"
             id="path42527"
             style="fill:#000000;fill-opacity:0.34497818;stroke:none"
             sodipodi:type="arc" />
          <path
             sodipodi:type="arc"
             style="fill:url(#radialGradient42531);fill-opacity:1;stroke:none"
             id="path42529"
             sodipodi:cx="35.244854"
             sodipodi:cy="14.920661"
             sodipodi:rx="0.8175922"
             sodipodi:ry="0.8175922"
             d="m 36.062446,14.920661 c 0,0.451544 -0.366048,0.817592 -0.817592,0.817592 -0.451544,0 -0.817592,-0.366048 -0.817592,-0.817592 0,-0.451544 0.366048,-0.817592 0.817592,-0.817592 C 35.696398,14.103069 36.062446,14.469117 36.062446,14.920661 Z"
             transform="translate(-2.032932,1004.2296)" />
        </g>
        <g
           id="g42533"
           transform="matrix(0.67243687,0,0,0.67243687,9.6194664,329.41662)">
          <path
             sodipodi:type="arc"
             style="fill:#000000;fill-opacity:0.34497818;stroke:none"
             id="path42535"
             sodipodi:cx="35.244854"
             sodipodi:cy="14.920661"
             sodipodi:rx="0.8175922"
             sodipodi:ry="0.8175922"
             d="m 36.062446,14.920661 c 0,0.451544 -0.366048,0.817592 -0.817592,0.817592 -0.451544,0 -0.817592,-0.366048 -0.817592,-0.817592 0,-0.451544 0.366048,-0.817592 0.817592,-0.817592 C 35.696398,14.103069 36.062446,14.469117 36.062446,14.920661 Z"
             transform="matrix(1.0726218,0,0,1.0726218,-4.5924767,1003.146)" />
          <path
             transform="translate(-2.032932,1004.2296)"
             d="m 36.062446,14.920661 c 0,0.451544 -0.366048,0.817592 -0.817592,0.817592 -0.451544,0 -0.817592,-0.366048 -0.817592,-0.817592 0,-0.451544 0.366048,-0.817592 0.817592,-0.817592 C 35.696398,14.103069 36.062446,14.469117 36.062446,14.920661 Z"
             sodipodi:ry="0.8175922"
             sodipodi:rx="0.8175922"
             sodipodi:cy="14.920661"
             sodipodi:cx="35.244854"
             id="path42537"
             style="fill:url(#radialGradient42539);fill-opacity:1;stroke:none"
             sodipodi:type="arc" />
        </g>
        <g
           transform="matrix(0.67243687,0,0,0.67243687,9.2217188,331.14019)"
           id="g42541">
          <path
             transform="matrix(1.0726218,0,0,1.0726218,-4.5924767,1003.146)"
             d="m 36.062446,14.920661 c 0,0.451544 -0.366048,0.817592 -0.817592,0.817592 -0.451544,0 -0.817592,-0.366048 -0.817592,-0.817592 0,-0.451544 0.366048,-0.817592 0.817592,-0.817592 C 35.696398,14.103069 36.062446,14.469117 36.062446,14.920661 Z"
             sodipodi:ry="0.8175922"
             sodipodi:rx="0.8175922"
             sodipodi:cy="14.920661"
             sodipodi:cx="35.244854"
             id="path42543"
             style="fill:#000000;fill-opacity:0.34497818;stroke:none"
             sodipodi:type="arc" />
          <path
             sodipodi:type="arc"
             style="fill:url(#radialGradient42547);fill-opacity:1;stroke:none"
             id="path42545"
             sodipodi:cx="35.244854"
             sodipodi:cy="14.920661"
             sodipodi:rx="0.8175922"
             sodipodi:ry="0.8175922"
             d="m 36.062446,14.920661 c 0,0.451544 -0.366048,0.817592 -0.817592,0.817592 -0.451544,0 -0.817592,-0.366048 -0.817592,-0.817592 0,-0.451544 0.366048,-0.817592 0.817592,-0.817592 C 35.696398,14.103069 36.062446,14.469117 36.062446,14.920661 Z"
             transform="translate(-2.032932,1004.2296)" />
        </g>
        <g
           id="g42549"
           transform="matrix(0.67243687,0,0,0.67243687,9.4868838,330.23421)">
          <path
             sodipodi:type="arc"
             style="fill:#000000;fill-opacity:0.34497818;stroke:none"
             id="path42551"
             sodipodi:cx="35.244854"
             sodipodi:cy="14.920661"
             sodipodi:rx="0.8175922"
             sodipodi:ry="0.8175922"
             d="m 36.062446,14.920661 c 0,0.451544 -0.366048,0.817592 -0.817592,0.817592 -0.451544,0 -0.817592,-0.366048 -0.817592,-0.817592 0,-0.451544 0.366048,-0.817592 0.817592,-0.817592 C 35.696398,14.103069 36.062446,14.469117 36.062446,14.920661 Z"
             transform="matrix(1.0726218,0,0,1.0726218,-4.5924767,1003.146)" />
          <path
             transform="translate(-2.032932,1004.2296)"
             d="m 36.062446,14.920661 c 0,0.451544 -0.366048,0.817592 -0.817592,0.817592 -0.451544,0 -0.817592,-0.366048 -0.817592,-0.817592 0,-0.451544 0.366048,-0.817592 0.817592,-0.817592 C 35.696398,14.103069 36.062446,14.469117 36.062446,14.920661 Z"
             sodipodi:ry="0.8175922"
             sodipodi:rx="0.8175922"
             sodipodi:cy="14.920661"
             sodipodi:cx="35.244854"
             id="path42553"
             style="fill:url(#radialGradient42555);fill-opacity:1;stroke:none"
             sodipodi:type="arc" />
        </g>
        <g
           id="g42557"
           transform="matrix(0.67243687,0,0,0.67243687,8.9565538,332.37763)">
          <path
             sodipodi:type="arc"
             style="fill:#000000;fill-opacity:0.34497818;stroke:none"
             id="path42559"
             sodipodi:cx="35.244854"
             sodipodi:cy="14.920661"
             sodipodi:rx="0.8175922"
             sodipodi:ry="0.8175922"
             d="m 36.062446,14.920661 c 0,0.451544 -0.366048,0.817592 -0.817592,0.817592 -0.451544,0 -0.817592,-0.366048 -0.817592,-0.817592 0,-0.451544 0.366048,-0.817592 0.817592,-0.817592 C 35.696398,14.103069 36.062446,14.469117 36.062446,14.920661 Z"
             transform="matrix(1.0726218,0,0,1.0726218,-4.5924767,1003.146)" />
          <path
             transform="translate(-2.032932,1004.2296)"
             d="m 36.062446,14.920661 c 0,0.451544 -0.366048,0.817592 -0.817592,0.817592 -0.451544,0 -0.817592,-0.366048 -0.817592,-0.817592 0,-0.451544 0.366048,-0.817592 0.817592,-0.817592 C 35.696398,14.103069 36.062446,14.469117 36.062446,14.920661 Z"
             sodipodi:ry="0.8175922"
             sodipodi:rx="0.8175922"
             sodipodi:cy="14.920661"
             sodipodi:cx="35.244854"
             id="path42561"
             style="fill:url(#radialGradient42563);fill-opacity:1;stroke:none"
             sodipodi:type="arc" />
        </g>
        <g
           transform="matrix(0.67243687,0,0,0.67243687,9.3101072,333.21732)"
           id="g42565">
          <path
             transform="matrix(1.0726218,0,0,1.0726218,-4.5924767,1003.146)"
             d="m 36.062446,14.920661 c 0,0.451544 -0.366048,0.817592 -0.817592,0.817592 -0.451544,0 -0.817592,-0.366048 -0.817592,-0.817592 0,-0.451544 0.366048,-0.817592 0.817592,-0.817592 C 35.696398,14.103069 36.062446,14.469117 36.062446,14.920661 Z"
             sodipodi:ry="0.8175922"
             sodipodi:rx="0.8175922"
             sodipodi:cy="14.920661"
             sodipodi:cx="35.244854"
             id="path42567"
             style="fill:#000000;fill-opacity:0.34497818;stroke:none"
             sodipodi:type="arc" />
          <path
             sodipodi:type="arc"
             style="fill:url(#radialGradient42571);fill-opacity:1;stroke:none"
             id="path42569"
             sodipodi:cx="35.244854"
             sodipodi:cy="14.920661"
             sodipodi:rx="0.8175922"
             sodipodi:ry="0.8175922"
             d="m 36.062446,14.920661 c 0,0.451544 -0.366048,0.817592 -0.817592,0.817592 -0.451544,0 -0.817592,-0.366048 -0.817592,-0.817592 0,-0.451544 0.366048,-0.817592 0.817592,-0.817592 C 35.696398,14.103069 36.062446,14.469117 36.062446,14.920661 Z"
             transform="translate(-2.032932,1004.2296)" />
        </g>
        <g
           id="g42573"
           transform="matrix(0.67243687,0,0,0.67243687,9.774146,333.90233)">
          <path
             sodipodi:type="arc"
             style="fill:#000000;fill-opacity:0.34497818;stroke:none"
             id="path42575"
             sodipodi:cx="35.244854"
             sodipodi:cy="14.920661"
             sodipodi:rx="0.8175922"
             sodipodi:ry="0.8175922"
             d="m 36.062446,14.920661 c 0,0.451544 -0.366048,0.817592 -0.817592,0.817592 -0.451544,0 -0.817592,-0.366048 -0.817592,-0.817592 0,-0.451544 0.366048,-0.817592 0.817592,-0.817592 C 35.696398,14.103069 36.062446,14.469117 36.062446,14.920661 Z"
             transform="matrix(1.0726218,0,0,1.0726218,-4.5924767,1003.146)" />
          <path
             transform="translate(-2.032932,1004.2296)"
             d="m 36.062446,14.920661 c 0,0.451544 -0.366048,0.817592 -0.817592,0.817592 -0.451544,0 -0.817592,-0.366048 -0.817592,-0.817592 0,-0.451544 0.366048,-0.817592 0.817592,-0.817592 C 35.696398,14.103069 36.062446,14.469117 36.062446,14.920661 Z"
             sodipodi:ry="0.8175922"
             sodipodi:rx="0.8175922"
             sodipodi:cy="14.920661"
             sodipodi:cx="35.244854"
             id="path42577"
             style="fill:url(#radialGradient42579);fill-opacity:1;stroke:none"
             sodipodi:type="arc" />
        </g>
      </g>
      <g
         transform="matrix(0.80874927,-0.46693161,0.46693161,0.80874927,-473.3696,209.04168)"
         id="g1189">
        <path
           inkscape:connector-curvature="0"
           id="path1191"
           d="m 11.304043,1034.725 9.965786,9.9658 16.639106,-16.6391 0.06629,-0.1105 c 0.233539,-0.2334 0.349967,-0.5386 0.353553,-0.8397 l 0.08839,-7.2478 0.0221,-2.3202 -2.320194,0.022 -7.247844,0.088 c -0.301045,10e-5 -0.606121,0.1199 -0.839689,0.3535 -0.02447,0.024 0.0029,0 -0.08839,0.088 L 11.304043,1034.725 z m 20.550291,-13.2141 c 0.72747,-0.7274 1.902082,-0.7495 2.629553,-0.022 0.727471,0.7275 0.727471,1.9242 0,2.6517 -0.727471,0.7275 -1.902083,0.7054 -2.629553,-0.022 C 31.126863,1023.3909 31.126863,1022.2384 31.854334,1021.5109 Z"
           style="fill:url(#linearGradient1203);fill-opacity:1;stroke:none" />
        <path
           sodipodi:nodetypes="cccsccccccccccccccccsccc"
           inkscape:connector-curvature="0"
           id="path1193"
           d="m 10.848202,1034.7169 10.413151,10.4131 16.978076,-16.9779 0.09054,-0.091 c 0.238258,-0.2382 0.362174,-0.5492 0.362231,-0.8601 l -0.02263,-7.493 -4.4e-5,-2.3996 -2.399572,0 -7.492876,-0.023 c -0.310917,-5e-4 -0.621936,0.1239 -0.860288,0.3621 C 27.826278,1017.739 27.827336,1017.7379 27.826278,1017.739 z m 0.452732,1e-4 16.638482,-16.6385 c 0.09463,-0.095 0.06604,-0.066 0.09053,-0.091 0.233518,-0.2335 0.536528,-0.3358 0.837664,-0.3394 l 7.243997,-0.091 2.331504,-0.023 -0.02252,2.3317 -0.0906,7.2439 c -0.0036,0.3012 -0.106059,0.604 -0.339503,0.8375 l -0.09062,0.091 L 21.26138,1044.6773 Z"
           style="fill:#1a1a1a;fill-opacity:1;stroke:none" />
        <path
           inkscape:connector-curvature="0"
           id="path1195"
           d="m 12.806645,1033.2224 0,3.0052 1.126951,1.127 0,-5.2592 L 12.806645,1033.2224 z m 2.828427,-2.8284 0,8.662 1.149048,1.1491 -0.0221,-10.9381 L 15.635072,1030.394 z m 2.828427,-2.8285 0,14.319 1.149048,1.149 -0.0221,-16.5949 L 18.463499,1027.5655 z m 2.828427,-2.8284 0,19.9316 1.149049,-1.1491 -0.0221,-19.9094 L 21.291926,1024.7371 z m 2.828427,-2.8284 0,19.9316 1.149049,-1.1491 -0.0221,-19.9095 L 24.120353,1021.9087 z m 2.828427,-2.8284 0,19.9315 1.149049,-1.149 -0.0221,-19.9095 -0.04419,0.044 c -0.02454,0.023 0.0029,0 -0.08839,0.088 L 26.94878,1019.0803 z m 2.828427,-1.4584 0,18.5615 1.149049,-1.149 0,-17.4125 L 29.777207,1017.6219 z m 2.828428,-0.044 0,3.4471 c 0.364331,-0.1135 0.763095,-0.093 1.126951,0.022 l 0,-3.4471 L 32.605635,1017.5777 z m 2.828427,0 0,12.9489 1.126951,-1.127 0,-11.844 -0.441942,0 L 35.434062,1017.5777 z m -2.828427,6.9826 0,8.7947 1.126951,-1.127 0,-7.6456 C 33.368698,1024.6979 32.969993,1024.6739 32.605635,1024.5603 Z"
           style="fill:#ffffff;fill-opacity:0.05240173;stroke:none" />
        <path
           inkscape:connector-curvature="0"
           id="path1197"
           d="m 31.611266,1021.2679 c -0.854316,0.8543 -0.854316,2.2393 0,3.0936 0.854315,0.8543 2.239276,0.8543 3.093592,0 0.854316,-0.8543 0.854316,-2.2393 0,-3.0936 C 33.850542,1020.4136 32.465581,1020.4136 31.611266,1021.2679 z m 0.243068,0.243 c 0.72747,-0.7274 1.902082,-0.7495 2.629553,-0.022 0.727471,0.7275 0.727471,1.9242 0,2.6517 -0.727471,0.7275 -1.902083,0.7054 -2.629553,-0.022 C 31.126863,1023.3909 31.126863,1022.2384 31.854334,1021.5109 Z"
           style="fill:#ffffff;fill-opacity:0.63755457;stroke:none" />
        <path
           inkscape:connector-curvature="0"
           id="path1199"
           d="m 31.854334,1021.5109 c -0.727471,0.7275 -0.727471,1.88 0,2.6075 0.0301,0.03 0.0568,0.061 0.08839,0.088 -0.61848,-0.7319 -0.601455,-1.8292 0.08839,-2.5191 0.689843,-0.6898 1.809277,-0.7289 2.541165,-0.1105 -0.02761,-0.032 -0.05829,-0.058 -0.08839,-0.088 C 33.756416,1020.7614 32.581804,1020.7835 31.854334,1021.5109 Z"
           style="fill:#000000;fill-opacity:0.90829695;stroke:none" />
        <path
           inkscape:connector-curvature="0"
           id="path1201"
           d="m 32.131343,1024.3512 c 0.730102,0.5552 1.76404,0.5341 2.430679,-0.1326 0.666639,-0.6666 0.709814,-1.7226 0.15468,-2.4527 0.477368,0.723 0.393469,1.7278 -0.243068,2.3643 C 33.837097,1024.7668 32.854359,1024.8286 32.131343,1024.3512 Z"
           style="fill:#ffffff;fill-opacity:0.61135368;stroke:none" />
      </g>
      <g
         transform="matrix(0.93386322,0,0,0.93386322,-0.21821102,64.313198)"
         id="g1181">
        <path
           style="fill:url(#linearGradient920);fill-opacity:1;stroke:none"
           d="m 11.304043,1034.725 9.965786,9.9658 16.639106,-16.6391 0.06629,-0.1105 c 0.233539,-0.2334 0.349967,-0.5386 0.353553,-0.8397 l 0.08839,-7.2478 0.0221,-2.3202 -2.320194,0.022 -7.247844,0.088 c -0.301045,10e-5 -0.606121,0.1199 -0.839689,0.3535 -0.02447,0.024 0.0029,0 -0.08839,0.088 L 11.304043,1034.725 z m 20.550291,-13.2141 c 0.72747,-0.7274 1.902082,-0.7495 2.629553,-0.022 0.727471,0.7275 0.727471,1.9242 0,2.6517 -0.727471,0.7275 -1.902083,0.7054 -2.629553,-0.022 C 31.126863,1023.3909 31.126863,1022.2384 31.854334,1021.5109 Z"
           id="rect871"
           inkscape:connector-curvature="0" />
        <path
           style="fill:#1a1a1a;fill-opacity:1;stroke:none"
           d="m 10.848202,1034.7169 10.413151,10.4131 16.978076,-16.9779 0.09054,-0.091 c 0.238258,-0.2382 0.362174,-0.5492 0.362231,-0.8601 l -0.02263,-7.493 -4.4e-5,-2.3996 -2.399572,0 -7.492876,-0.023 c -0.310917,-5e-4 -0.621936,0.1239 -0.860288,0.3621 C 27.826278,1017.739 27.827336,1017.7379 27.826278,1017.739 z m 0.452732,1e-4 16.638482,-16.6385 c 0.09463,-0.095 0.06604,-0.066 0.09053,-0.091 0.233518,-0.2335 0.536528,-0.3358 0.837664,-0.3394 l 7.243997,-0.091 2.331504,-0.023 -0.02252,2.3317 -0.0906,7.2439 c -0.0036,0.3012 -0.106059,0.604 -0.339503,0.8375 l -0.09062,0.091 L 21.26138,1044.6773 Z"
           id="path938"
           inkscape:connector-curvature="0"
           sodipodi:nodetypes="cccsccccccccccccccccsccc" />
        <path
           style="fill:#ffffff;fill-opacity:0.05240173;stroke:none"
           d="m 12.806645,1033.2224 0,3.0052 1.126951,1.127 0,-5.2592 L 12.806645,1033.2224 z m 2.828427,-2.8284 0,8.662 1.149048,1.1491 -0.0221,-10.9381 L 15.635072,1030.394 z m 2.828427,-2.8285 0,14.319 1.149048,1.149 -0.0221,-16.5949 L 18.463499,1027.5655 z m 2.828427,-2.8284 0,19.9316 1.149049,-1.1491 -0.0221,-19.9094 L 21.291926,1024.7371 z m 2.828427,-2.8284 0,19.9316 1.149049,-1.1491 -0.0221,-19.9095 L 24.120353,1021.9087 z m 2.828427,-2.8284 0,19.9315 1.149049,-1.149 -0.0221,-19.9095 -0.04419,0.044 c -0.02454,0.023 0.0029,0 -0.08839,0.088 L 26.94878,1019.0803 z m 2.828427,-1.4584 0,18.5615 1.149049,-1.149 0,-17.4125 L 29.777207,1017.6219 z m 2.828428,-0.044 0,3.4471 c 0.364331,-0.1135 0.763095,-0.093 1.126951,0.022 l 0,-3.4471 L 32.605635,1017.5777 z m 2.828427,0 0,12.9489 1.126951,-1.127 0,-11.844 -0.441942,0 L 35.434062,1017.5777 z m -2.828427,6.9826 0,8.7947 1.126951,-1.127 0,-7.6456 C 33.368698,1024.6979 32.969993,1024.6739 32.605635,1024.5603 Z"
           id="rect1034"
           inkscape:connector-curvature="0" />
        <path
           style="fill:#ffffff;fill-opacity:0.63755457;stroke:none"
           d="m 31.611266,1021.2679 c -0.854316,0.8543 -0.854316,2.2393 0,3.0936 0.854315,0.8543 2.239276,0.8543 3.093592,0 0.854316,-0.8543 0.854316,-2.2393 0,-3.0936 C 33.850542,1020.4136 32.465581,1020.4136 31.611266,1021.2679 z m 0.243068,0.243 c 0.72747,-0.7274 1.902082,-0.7495 2.629553,-0.022 0.727471,0.7275 0.727471,1.9242 0,2.6517 -0.727471,0.7275 -1.902083,0.7054 -2.629553,-0.022 C 31.126863,1023.3909 31.126863,1022.2384 31.854334,1021.5109 Z"
           id="path1132"
           inkscape:connector-curvature="0" />
        <path
           style="fill:#000000;fill-opacity:0.90829695;stroke:none"
           d="m 31.854334,1021.5109 c -0.727471,0.7275 -0.727471,1.88 0,2.6075 0.0301,0.03 0.0568,0.061 0.08839,0.088 -0.61848,-0.7319 -0.601455,-1.8292 0.08839,-2.5191 0.689843,-0.6898 1.809277,-0.7289 2.541165,-0.1105 -0.02761,-0.032 -0.05829,-0.058 -0.08839,-0.088 C 33.756416,1020.7614 32.581804,1020.7835 31.854334,1021.5109 Z"
           id="path1151"
           inkscape:connector-curvature="0" />
        <path
           style="fill:#ffffff;fill-opacity:0.61135368;stroke:none"
           d="m 32.131343,1024.3512 c 0.730102,0.5552 1.76404,0.5341 2.430679,-0.1326 0.666639,-0.6666 0.709814,-1.7226 0.15468,-2.4527 0.477368,0.723 0.393469,1.7278 -0.243068,2.3643 C 33.837097,1024.7668 32.854359,1024.8286 32.131343,1024.3512 Z"
           id="path1156"
           inkscape:connector-curvature="0" />
      </g>
      <g
         transform="matrix(0.6603245,-0.6603245,0.6603245,0.6603245,-671.8313,363.78531)"
         id="g1001">
        <path
           style="font-size:4.94945097px;font-style:normal;font-variant:normal;font-weight:bold;font-stretch:normal;text-align:start;line-height:125%;letter-spacing:0px;word-spacing:0px;writing-mode:lr-tb;text-anchor:start;fill:#ffffff;fill-opacity:1;stroke:none;font-family:Helvetica;-inkscape-font-specification:Helvetica Bold"
           d="m 14.130618,1026.3929 -9e-6,3.1414 2.390803,0 10e-7,-0.556 -1.751348,0 -8.5e-5,-0.8062 1.529039,0 10e-7,-0.556 -1.529038,0 2e-6,-0.6672 1.668058,0 1e-6,-0.556 L 14.130618,1026.3929 z m 10.007914,0 -1e-6,0.556 0.972961,10e-5 8e-5,2.5853 0.639368,0 6e-6,-2.5854 0.972962,0 10e-7,-0.556 L 24.138532,1026.3929 z m -6.171539,0.7506 c -0.296426,0 -0.511617,0.045 -0.667189,0.139 -0.214243,0.1291 -0.332048,0.3443 -0.361417,0.6672 l 0.583811,0 c 0.0087,-0.091 0.03937,-0.1418 0.08338,-0.1946 0.06156,-0.073 0.170776,-0.1112 0.305774,-0.1112 0.114357,10e-5 0.188609,0 0.250304,0.028 0.09657,0.041 0.139425,0.1355 0.134429,0.2528 7.4e-5,0.05 0.0042,0.079 -0.02808,0.1114 -0.0294,0.029 -0.109495,0.044 -0.194576,0.056 l -0.528256,0.083 c -0.211252,0.029 -0.377123,0.124 -0.500349,0.2502 -0.120369,0.1233 -0.194639,0.2802 -0.194576,0.5004 -7.9e-5,0.226 0.07269,0.4049 0.222828,0.5279 0.129146,0.1057 0.303697,0.1668 0.500434,0.1668 0.187868,0 0.337501,-0.035 0.472614,-0.1112 0.08204,-0.044 0.178216,-0.1445 0.277952,-0.2502 0.0086,0.097 0.02645,0.1898 0.05547,0.2781 l 0.667189,0 2.58e-4,-0.084 c -0.04422,-0.015 -0.08757,-0.034 -0.110679,-0.084 -0.01883,-0.053 -0.02723,-0.1491 -0.02782,-0.278 l 9e-5,-1.2788 c -3.4e-5,-0.2583 -0.10471,-0.4414 -0.333679,-0.556 C 18.420078,1027.1755 18.201849,1027.1435 17.966993,1027.1435 z m 2.362981,0 c -0.331646,0 -0.583311,0.074 -0.750566,0.2502 -0.132072,0.1409 -0.194618,0.3227 -0.194663,0.5282 9e-5,0.2524 0.136801,0.4386 0.389148,0.5561 0.09699,0.044 0.322286,0.1124 0.69501,0.1946 0.249613,0.056 0.389215,0.1255 0.389235,0.2223 3.61e-4,0.059 -0.03063,0.123 -0.08338,0.1668 -0.07013,0.059 -0.167878,0.083 -0.305863,0.083 -0.184881,-10e-5 -0.337699,-0.025 -0.416971,-0.083 -0.07694,-0.061 -0.111548,-0.1692 -0.110938,-0.2781 l -0.639367,0 c 1.5e-5,0.2876 0.145547,0.5263 0.386204,0.6689 0.193733,0.1115 0.436485,0.1668 0.750565,0.1668 0.252509,0 0.457476,-0.067 0.639368,-0.1668 0.249417,-0.138 0.389256,-0.34 0.389238,-0.6394 -5.9e-5,-0.2465 -0.13383,-0.4356 -0.389149,-0.556 -0.108506,-0.05 -0.331028,-0.1154 -0.695009,-0.1946 -0.252426,-0.056 -0.38916,-0.1315 -0.389236,-0.2224 1.2e-4,-0.068 0.01163,-0.1318 0.05564,-0.1668 0.06139,-0.05 0.183929,-0.056 0.333595,-0.056 0.152649,0 0.241224,0.019 0.305772,0.083 0.04106,0.041 0.0938,0.1225 0.111112,0.2225 l 0.583812,0 c -1.7e-5,-0.2995 -0.123693,-0.5131 -0.358557,-0.6411 C 20.854692,1027.1916 20.626486,1027.1435 20.329974,1027.1435 z m 7.366981,0 c -0.296512,0 -0.539438,0.045 -0.694923,0.139 -0.21433,0.1291 -0.332136,0.3443 -0.361504,0.6672 l 0.611633,0 c 0.0087,-0.091 0.03937,-0.1418 0.08338,-0.1946 0.06156,-0.073 0.143042,-0.1112 0.27804,-0.1112 0.114357,10e-5 0.216344,0 0.277952,0.028 0.09657,0.041 0.139425,0.1355 0.134429,0.2529 7.5e-5,0.05 -0.02351,0.079 -0.05556,0.1111 -0.0294,0.029 -0.08199,0.044 -0.166754,0.056 l -0.556078,0.083 c -0.211338,0.029 -0.377127,0.124 -0.500348,0.2501 -0.120369,0.1233 -0.166818,0.2803 -0.166842,0.5004 7e-6,0.2261 0.07269,0.405 0.222828,0.528 0.129147,0.1057 0.275875,0.1668 0.472613,0.1668 0.187867,0 0.365322,-0.035 0.500349,-0.1112 0.08204,-0.044 0.178211,-0.1445 0.278038,-0.2502 0.0086,0.097 0.02645,0.1898 0.05547,0.2781 l 0.667102,0 2.58e-4,-0.084 c -0.04422,-0.015 -0.08843,-0.033 -0.110679,-0.084 -0.01883,-0.053 -0.02723,-0.1492 -0.02782,-0.278 l -0.02782,-1.2788 c -3.4e-5,-0.2583 -0.104636,-0.4414 -0.33368,-0.5559 C 28.12222,1027.1755 27.931812,1027.1435 27.696955,1027.1435 z m 2.33516,0 c -0.275874,0 -0.491101,0.1062 -0.667185,0.3058 -0.193759,0.2172 -0.277974,0.5022 -0.277954,0.8896 -9e-6,0.3934 0.08131,0.7002 0.278036,0.9174 0.179284,0.1965 0.426231,0.3058 0.722744,0.3058 0.167317,0 0.308396,-0.038 0.416971,-0.1112 0.08214,-0.056 0.13594,-0.1445 0.194575,-0.2502 l 0.02852,0.027 -8.7e-5,0.2781 c 6.4e-5,0.3581 -0.174502,0.5281 -0.50035,0.5281 -0.16143,0 -0.266046,-0.034 -0.333594,-0.083 -0.04156,-0.032 -0.06601,-0.09 -0.08268,-0.1672 l -0.69501,0 c 3.9e-5,0.2319 0.113504,0.4268 0.33368,0.556 0.187863,0.1086 0.422034,0.1668 0.695009,0.1668 0.504846,0 0.849468,-0.1309 1.028605,-0.3892 0.105634,-0.1527 0.166762,-0.3868 0.166756,-0.695 l 5e-6,-2.224 -0.611633,0 8.6e-5,0.3614 c -0.04997,-0.1086 -0.106503,-0.2105 -0.194141,-0.2783 C 30.406317,1027.1857 30.225867,1027.1435 30.032115,1027.1435 z m -8.367678,0.056 0.861671,2.4464 c -0.02621,0.1526 -0.07142,0.2589 -0.138933,0.3058 -0.05018,0.035 -0.124007,0.056 -0.250219,0.056 l -0.111715,-0.028 -8.8e-5,0.5005 0.278039,-10e-5 c 0.264191,0 0.428461,-0.055 0.528169,-0.1667 0.08817,-0.1 0.21178,-0.363 0.361505,-0.8063 l 0.806126,-2.3073 -0.639454,0 -0.500352,1.7236 -0.500344,-1.7237 L 21.664437,1027.1991 z m 8.534517,0.4726 c 0.167317,0 0.295227,0.063 0.38915,0.1946 0.09414,0.1291 0.139424,0.3035 0.139018,0.5004 3.41e-4,0.1906 -0.03787,0.3274 -0.1112,0.4448 -0.08808,0.1438 -0.226206,0.2224 -0.416973,0.2224 -0.170299,0 -0.304122,-0.079 -0.38915,-0.2224 -0.06647,-0.1152 -0.111335,-0.2409 -0.111284,-0.417 5.8e-5,-0.2525 0.0641,-0.4606 0.166842,-0.5838 C 29.947562,1027.7109 30.063873,1027.6717 30.198954,1027.6717 z m -11.89837,0.7228 8.6e-5,0.3058 c 2e-6,0.138 -0.05531,0.249 -0.166841,0.3336 -0.108686,0.085 -0.214653,0.139 -0.361415,0.139 -0.0729,-3e-4 -0.141739,-0.015 -0.194661,-0.056 -0.06459,-0.05 -0.11161,-0.1253 -0.111111,-0.2224 2.48e-4,-0.1176 0.05688,-0.2223 0.139106,-0.2781 0.05639,-0.038 0.148823,-0.063 0.277951,-0.083 0.13211,-0.02 0.213375,-0.035 0.278039,-0.056 C 18.226151,1028.4548 18.271216,1028.4183 18.300584,1028.3945 z m 9.729962,0 0,0.3058 c 2e-6,0.138 -0.05522,0.249 -0.166842,0.3336 -0.108512,0.085 -0.242386,0.139 -0.389149,0.139 -0.0729,-3e-4 -0.141739,-0.015 -0.194662,-0.056 -0.06459,-0.05 -0.08388,-0.1252 -0.08338,-0.2224 2.49e-4,-0.1175 0.02905,-0.2222 0.111199,-0.278 0.05639,-0.038 0.148914,-0.063 0.278037,-0.083 0.13211,-0.02 0.241202,-0.035 0.305773,-0.056 C 27.956112,1028.4548 28.001177,1028.4182 28.030546,1028.3945 Z"
           id="path969"
           inkscape:connector-curvature="0" />
        <path
           style="font-size:4.94945097px;font-style:normal;font-variant:normal;font-weight:bold;font-stretch:normal;text-align:start;line-height:125%;letter-spacing:0px;word-spacing:0px;writing-mode:lr-tb;text-anchor:start;fill:#ffffff;fill-opacity:0.20960699;stroke:none;font-family:Helvetica;-inkscape-font-specification:Helvetica Bold"
           d="m 14.770081,1026.9539 -1.63e-4,0.084 1.668058,0 1.64e-4,-0.084 L 14.770081,1026.9539 z m 9.368461,10e-5 -1.63e-4,0.084 0.972962,0 1.63e-4,-0.084 L 24.138542,1026.954 z m 1.612416,-10e-5 -1.64e-4,0.084 0.972962,0 1.63e-4,-0.084 L 25.750958,1026.9539 z m -4.086596,0.3337 0.861777,2.4186 c 0.0042,-0.019 -0.0033,-0.036 3.68e-4,-0.055 L 21.692183,1027.2875 21.664362,1027.2876 z m 2.307425,-1e-4 -0.778392,2.224 c -0.149712,0.4433 -0.273397,0.7065 -0.361399,0.8063 -0.09984,0.1116 -0.264061,0.1668 -0.528256,0.1668 l -0.277952,0 -1.63e-4,0.084 0.277952,0 c 0.264192,0 0.428414,-0.055 0.528256,-0.1668 0.088,-0.1 0.211639,-0.3629 0.36135,-0.8061 l 0.806368,-2.3076 L 23.971787,1027.2875 z m -3.780822,0.3337 c -0.05629,0.01 -0.108174,0.03 -0.13895,0.055 -0.04363,0.034 -0.05582,0.099 -0.05564,0.1668 0.008,-0.028 0.03358,-0.066 0.05563,-0.084 0.06139,-0.05 0.183864,-0.055 0.333614,-0.055 0.152648,0 0.241167,0.019 0.305782,0.084 0.04098,0.041 0.0938,0.1225 0.111112,0.2225 l 0.583724,0 c -4.89e-4,-0.031 0.0023,-0.054 1.63e-4,-0.084 l -0.583725,0 c -0.01731,-0.1 -0.07013,-0.1815 -0.111111,-0.2225 -0.06418,-0.065 -0.153307,-0.083 -0.305782,-0.084 C 20.310708,1027.6212 20.247921,1027.6136 20.190965,1027.6212 z m -2.279614,0.027 c -0.134994,0 -0.244133,0.037 -0.305775,0.1112 -0.04371,0.052 -0.07461,0.1036 -0.0834,0.1946 l -0.555991,0 c -0.0054,0.031 -0.02495,0.051 -0.0279,0.084 l 0.583725,0 c 0.0087,-0.091 0.03937,-0.1418 0.08344,-0.1947 0.06177,-0.073 0.17069,-0.1111 0.305775,-0.1112 0.114356,10e-5 0.188562,0 0.250208,0.028 0.06892,0.029 0.120935,0.095 0.139019,0.1668 -2.12e-4,-0.1144 -0.04228,-0.2092 -0.134449,-0.2529 C 18.099931,1027.6492 18.025823,1027.649 17.91138,1027.649 z m 9.702141,10e-5 c -0.134907,-10e-5 -0.216311,0.037 -0.277954,0.1111 -0.0437,0.052 -0.07453,0.1035 -0.0834,0.1946 l -0.583811,0 c -0.0054,0.031 -0.02495,0.051 -0.0279,0.084 l 0.611546,0 c 0.0087,-0.091 0.03937,-0.1418 0.08336,-0.1946 0.06176,-0.073 0.14296,-0.1112 0.27804,-0.1112 0.114356,0 0.216382,-10e-5 0.278029,0.027 0.06892,0.029 0.120935,0.095 0.139019,0.1668 -2.12e-4,-0.1144 -0.04142,-0.2097 -0.134448,-0.2529 C 27.829894,1027.6492 27.72805,1027.649 27.613608,1027.649 z m 2.585454,0.028 c -0.134993,0 -0.251374,0.04 -0.333573,0.139 -0.06425,0.077 -0.08339,0.2012 -0.111286,0.3337 0.02929,-0.099 0.05991,-0.1887 0.11118,-0.2503 0.08229,-0.1 0.198706,-0.139 0.3337,-0.139 0.167317,0 0.29529,0.062 0.38913,0.1946 0.04852,0.064 0.09049,0.1368 0.111111,0.2225 -0.02061,-0.1157 -0.04979,-0.2223 -0.110831,-0.306 C 30.49417,1027.739 30.366194,1027.6768 30.198965,1027.6767 z m -10.786369,0.417 c 0.03059,0.205 0.141971,0.37 0.361655,0.4725 0.0963,0.045 0.322144,0.1125 0.695028,0.1946 0.187083,0.042 0.310273,0.1038 0.361328,0.1668 0.0039,-0.013 0.02773,-0.016 0.02791,-0.028 -3.8e-4,-0.097 -0.139,-0.1668 -0.389149,-0.2225 -0.372768,-0.082 -0.598166,-0.15 -0.69499,-0.1945 C 19.584706,1028.3949 19.462889,1028.2581 19.412596,1028.0938 z m -4.642576,0.084 -1.63e-4,0.084 1.529038,0 1.63e-4,-0.084 L 14.770078,1028.1771 z m 3.530604,0.2224 c -0.02899,0.024 -0.07468,0.061 -0.139019,0.084 -0.06444,0.02 -0.145865,0.035 -0.27797,0.055 -0.12922,0.021 -0.222284,0.045 -0.278029,0.084 -0.06124,0.042 -0.09111,0.1139 -0.111179,0.1946 0.02429,-0.048 0.07008,-0.084 0.111199,-0.1112 0.05629,-0.039 0.148814,-0.062 0.278029,-0.084 0.132066,-0.02 0.213358,-0.035 0.277969,-0.055 0.06502,-0.023 0.109594,-0.06 0.13902,-0.084 L 18.300595,1028.3995 z m 9.729962,-10e-5 c -0.02899,0.024 -0.07468,0.061 -0.139019,0.084 -0.06444,0.02 -0.173772,0.036 -0.305792,0.055 -0.12922,0.021 -0.222284,0.045 -0.278029,0.084 -0.06124,0.042 -0.07115,0.1139 -0.08345,0.1946 0.01736,-0.048 0.04191,-0.083 0.08347,-0.1112 0.05629,-0.039 0.148814,-0.062 0.278028,-0.084 0.131981,-0.02 0.24118,-0.035 0.305793,-0.055 0.06502,-0.023 0.109594,-0.06 0.13902,-0.084 L 28.030558,1028.3995 z m 1.111999,0.4727 c 0.04321,0.1848 0.10903,0.3468 0.222116,0.4727 0.179297,0.1966 0.426337,0.3058 0.722763,0.3059 0.167317,0 0.30839,-0.038 0.417058,-0.1113 0.08199,-0.056 0.135838,-0.1445 0.194556,-0.2502 l 0.02842,0.027 1.63e-4,-0.084 -0.02842,-0.027 c -0.05872,0.1057 -0.112405,0.1941 -0.194595,0.2501 -0.108566,0.073 -0.249742,0.1113 -0.416971,0.1112 -0.296513,10e-5 -0.543726,-0.1091 -0.722811,-0.3057 C 29.266575,1029.1528 29.187479,1029.0252 29.142556,1028.8722 z m -9.81334,0.1112 c 0.03518,0.2329 0.153258,0.4354 0.361415,0.556 0.193733,0.1115 0.436485,0.1668 0.750565,0.1668 0.252423,0 0.457418,-0.067 0.639454,-0.1668 0.213301,-0.118 0.327262,-0.2958 0.361311,-0.5282 -0.05091,0.1896 -0.174278,0.3413 -0.36133,0.4447 -0.182073,0.1001 -0.387033,0.1669 -0.639454,0.1669 -0.31408,0 -0.556794,-0.055 -0.750565,-0.1669 C 19.507803,1029.3503 19.381576,1029.1785 19.329217,1028.9834 z m -2.418652,0.2504 c 0.03461,0.1199 0.0717,0.2281 0.165473,0.3066 0.129147,0.1057 0.303783,0.1667 0.500434,0.1667 0.187868,0 0.337578,-0.035 0.472528,-0.1111 0.08224,-0.044 0.178282,-0.1446 0.278023,-0.2503 -0.0034,-0.028 0.0027,-0.055 1.63e-4,-0.084 -0.09974,0.1057 -0.195795,0.2057 -0.277972,0.2502 -0.135007,0.077 -0.284743,0.1112 -0.472614,0.1112 -0.196562,-10e-5 -0.37123,-0.061 -0.500347,-0.1669 C 17.002561,1029.3943 16.947519,1029.3219 16.910574,1029.2336 z m 9.730049,-10e-5 c 0.03461,0.1199 0.0717,0.2282 0.165473,0.3066 0.129147,0.1057 0.275962,0.1668 0.472613,0.1668 0.187781,0 0.365399,-0.035 0.500349,-0.1112 0.08224,-0.043 0.178196,-0.1445 0.278018,-0.2502 -0.0043,-0.027 0.0027,-0.055 1.63e-4,-0.084 -0.09983,0.1057 -0.1958,0.2057 -0.277972,0.2502 -0.135007,0.077 -0.312569,0.1112 -0.500435,0.1112 -0.196562,-10e-5 -0.343409,-0.061 -0.472526,-0.1668 C 26.732524,1029.3943 26.677482,1029.3219 26.640623,1029.2335 z m -12.509983,0.3059 -1.63e-4,0.084 2.390715,0 1.63e-4,-0.084 L 14.13064,1029.5394 z m 4.253435,-10e-5 c 0.0042,0.027 -0.0083,0.058 -1.63e-4,0.084 l 0.667188,1e-4 1.63e-4,-0.084 L 18.384075,1029.5393 z m 6.727528,10e-5 -1.63e-4,0.084 0.639367,0 1.63e-4,-0.084 L 25.111603,1029.5394 z m 3.002348,0 c 0.0042,0.027 -0.0091,0.058 -1.63e-4,0.084 l 0.667188,0 1.63e-4,-0.084 L 28.113951,1029.5394 z m 3.169188,0.278 c -0.02873,0.1162 -0.0584,0.2294 -0.111218,0.3057 -0.179063,0.2583 -0.523671,0.3892 -1.028605,0.3892 -0.272975,0 -0.507065,-0.058 -0.69501,-0.1668 -0.164633,-0.097 -0.26356,-0.2305 -0.305598,-0.3893 0.02515,0.1936 0.114222,0.3599 0.305358,0.4729 0.187877,0.1086 0.422034,0.1668 0.695009,0.1668 0.504933,0 0.849542,-0.1309 1.028605,-0.3892 C 31.238604,1030.1102 31.256082,1029.9767 31.283139,1029.8174 z m -2.140604,0.1389 c -0.0042,-0.027 0.0035,-0.056 1.63e-4,-0.084 -2.23e-4,0 -0.02769,10e-5 -0.02773,0 C 29.114734,1029.9028 29.138803,1029.9279 29.142535,1029.9563 Z"
           id="path991"
           inkscape:connector-curvature="0" />
        <path
           style="font-size:4.94945097px;font-style:normal;font-variant:normal;font-weight:bold;font-stretch:normal;text-align:start;line-height:125%;letter-spacing:0px;word-spacing:0px;writing-mode:lr-tb;text-anchor:start;fill:#000000;fill-opacity:0.31877729;stroke:none;font-family:Helvetica;-inkscape-font-specification:Helvetica Bold"
           d="m 14.130618,1026.3929 -1.74e-4,0.056 2.307425,0 1.74e-4,-0.056 L 14.130618,1026.3929 z m 10.007914,0 -1.74e-4,0.056 2.585464,0 -6.92e-4,-0.055 L 24.138532,1026.3929 z m -6.171539,0.7506 c -0.296426,0 -0.511617,0.045 -0.667189,0.139 -0.120413,0.073 -0.189294,0.175 -0.250218,0.3058 0.05988,-0.1103 0.143042,-0.1856 0.250217,-0.2502 0.15557,-0.094 0.370678,-0.1389 0.667276,-0.139 0.23477,0 0.453015,0.033 0.611546,0.1112 0.05789,0.028 0.09703,0.046 0.138413,0.084 -0.04559,-0.043 -0.07528,-0.1063 -0.139106,-0.1389 C 18.420078,1027.1755 18.201849,1027.1435 17.966993,1027.1435 z m 0.750651,0.2502 c 0.04225,0.037 0.08365,0.093 0.111371,0.1389 C 18.801673,1027.4752 18.764745,1027.4389 18.717644,1027.3937 z m -1.668058,0.1946 c -0.04742,0.1019 -0.09836,0.2201 -0.111199,0.3614 -10e-4,0 0.02702,0 0.02774,1e-4 C 16.984212,1027.8175 16.99816,1027.6831 17.049586,1027.5883 z m 3.280388,-0.4448 c -0.331646,0 -0.583311,0.074 -0.750566,0.2502 -0.06569,0.07 -0.106893,0.1615 -0.13902,0.2502 0.03249,-0.08 0.07891,-0.1305 0.139019,-0.1946 0.167315,-0.1764 0.418847,-0.2501 0.750565,-0.2502 0.296513,0 0.524745,0.047 0.69501,0.139 0.118557,0.063 0.217406,0.1436 0.278038,0.2502 -0.06048,-0.1268 -0.145967,-0.2328 -0.278124,-0.3057 C 20.854692,1027.1916 20.626486,1027.1435 20.329974,1027.1435 z m 7.366981,0 c -0.296512,0 -0.539438,0.045 -0.694923,0.139 -0.1205,0.073 -0.189381,0.175 -0.250305,0.3058 0.05988,-0.1103 0.143038,-0.1856 0.250217,-0.2502 0.155571,-0.094 0.3985,-0.139 0.69501,-0.139 0.23477,0 0.425282,0.033 0.583725,0.1113 0.05789,0.028 0.09703,0.046 0.139279,0.083 -0.04559,-0.043 -0.07528,-0.1064 -0.139105,-0.1389 C 28.12222,1027.1755 27.931812,1027.1435 27.696955,1027.1435 z m 0.722831,0.2502 c 0.04225,0.037 0.08365,0.093 0.111371,0.1389 C 28.503727,1027.4753 28.466886,1027.4389 28.419786,1027.3937 z m -1.668059,0.1946 c -0.04741,0.1019 -0.09836,0.2201 -0.111199,0.3614 -0.001,0 0.02702,0 0.02774,1e-4 C 26.686353,1027.8175 26.700301,1027.6831 26.751727,1027.5883 z m 3.280388,-0.4448 c -0.275874,0 -0.491101,0.1062 -0.667185,0.3058 -0.09688,0.1086 -0.177137,0.2424 -0.222397,0.3892 0.04529,-0.1355 0.131409,-0.2316 0.222397,-0.3336 0.176175,-0.1996 0.391316,-0.3058 0.667185,-0.3058 0.193754,0 0.374161,0.043 0.500348,0.1391 0.08849,0.067 0.145025,0.1691 0.194141,0.2782 l 1.74e-4,-0.056 c -0.04997,-0.1085 -0.106504,-0.2104 -0.194142,-0.2782 C 30.406317,1027.1857 30.225867,1027.1435 30.032115,1027.1435 z m -8.367678,0.056 0.03102,0.054 0.667189,0 -6.92e-4,-0.055 L 21.664437,1027.1991 z m 1.695706,0 -1.73e-4,0.056 0.611633,0 0.02791,-0.056 L 23.360143,1027.1991 z m 7.366981,0 -1.73e-4,0.056 0.611632,0 1.74e-4,-0.056 L 30.727124,1027.1991 z m -15.957142,0.417 6.92e-4,0.055 1.528866,10e-5 1.73e-4,-0.056 L 14.769982,1027.6161 z m 5.226396,0.2224 c -0.0021,0.016 -5.66e-4,0.039 -1.74e-4,0.056 3.99e-4,0.091 0.1374,0.166 0.389149,0.2224 0.364042,0.079 0.586444,0.1448 0.69501,0.1946 0.06364,0.03 0.118302,0.045 0.16684,0.083 -0.05226,-0.044 -0.09439,-0.1055 -0.16684,-0.139 -0.108506,-0.05 -0.331028,-0.1153 -0.69501,-0.1946 C 20.133187,1028.0051 19.996454,1027.9295 19.996378,1027.8385 z m 1.251085,0.556 c 0.08972,0.071 0.15926,0.1518 0.195094,0.2499 C 21.411004,1028.5429 21.334617,1028.4686 21.247463,1028.3945 z m 6.783085,-0.4726 c 7.4e-5,0.05 -0.02351,0.079 -0.05556,0.1112 -0.0294,0.029 -0.08199,0.044 -0.166841,0.056 l -0.555991,0.083 c -0.211339,0.029 -0.377123,0.124 -0.500349,0.2502 -0.06023,0.062 -0.112338,0.1402 -0.139107,0.2224 0.02732,-0.073 0.08453,-0.111 0.139021,-0.1668 0.123338,-0.1261 0.289097,-0.2208 0.500436,-0.2502 l 0.55599,-0.083 c 0.08469,-0.011 0.137484,-0.026 0.166755,-0.056 0.03231,-0.032 0.05574,-0.061 0.05564,-0.1112 C 28.030568,1027.9589 28.032837,1027.9393 28.030548,1027.9219 z m -9.757784,0.1112 c -0.0294,0.029 -0.109495,0.044 -0.194576,0.056 l -0.52817,0.083 c -0.211338,0.029 -0.377122,0.124 -0.500348,0.2502 -0.06022,0.062 -0.105402,0.1402 -0.13902,0.2224 0.0332,-0.072 0.08444,-0.111 0.138934,-0.1668 0.123251,-0.1261 0.289011,-0.2208 0.500435,-0.2502 l 0.528256,-0.083 c 0.08469,-0.011 0.165223,-0.026 0.194576,-0.056 C 18.287959,1028.0737 18.269579,1028.0494 18.272764,1028.0331 z m 11.453574,0.5838 c 0.01929,0.089 0.04188,0.1786 0.08329,0.2503 0.08368,0.1449 0.218588,0.2226 0.389149,0.2224 0.190768,0 0.328986,-0.079 0.417061,-0.2224 0.04513,-0.072 0.06559,-0.1564 0.08338,-0.2502 -0.01908,0.073 -0.04671,0.1359 -0.08338,0.1946 -0.08808,0.1438 -0.226207,0.2224 -0.416974,0.2223 -0.170304,10e-5 -0.304121,-0.078 -0.389237,-0.2223 C 29.775962,1028.7543 29.745695,1028.6848 29.726338,1028.6169 z m -10.424885,0.1668 c 5.9e-5,0.02 -0.0021,0.036 -1.74e-4,0.056 l 0.639454,-10e-5 c 6.7e-4,-0.019 4e-6,-0.038 -6.93e-4,-0.055 L 19.301453,1028.7837 z m -1.028692,0.139 c -0.0273,0.049 -0.08875,0.073 -0.138934,0.1112 -0.108685,0.085 -0.214652,0.139 -0.361414,0.139 -0.0729,-3e-4 -0.141735,-0.015 -0.194662,-0.056 -0.02612,-0.021 -0.06478,-0.026 -0.08303,-0.056 0.02107,0.036 0.05014,0.087 0.08372,0.111 0.05258,0.041 0.121064,0.056 0.194662,0.056 0.146761,0 0.252772,-0.054 0.361328,-0.139 C 18.189557,1029.0472 18.24511,1028.9782 18.272761,1028.9227 z m 2.585464,0 c -0.007,0.052 -0.03757,0.1009 -0.08338,0.139 -0.07013,0.059 -0.167878,0.083 -0.305863,0.083 -0.184881,0 -0.3377,-0.025 -0.417058,-0.083 -0.03221,-0.026 -0.06599,-0.044 -0.08294,-0.084 0.01681,0.049 0.04522,0.1083 0.08104,0.1403 0.07902,0.059 0.232002,0.083 0.417058,0.083 0.137893,0 0.235211,-0.025 0.30569,-0.083 0.05307,-0.044 0.08342,-0.1081 0.08347,-0.1669 C 20.85811,1028.9433 20.859725,1028.9297 20.858225,1028.9227 z m 7.144585,0 c -0.0273,0.049 -0.08883,0.073 -0.139107,0.1112 -0.108512,0.085 -0.242387,0.139 -0.389149,0.139 -0.07291,-3e-4 -0.141739,-0.015 -0.194661,-0.056 -0.02491,-0.019 -0.04232,-0.029 -0.0553,-0.056 0.01067,0.039 0.02328,0.086 0.05339,0.1124 0.05258,0.041 0.121064,0.056 0.194576,0.056 0.146761,0 0.280593,-0.054 0.389236,-0.1391 C 27.91952,1029.0472 27.974986,1028.9783 28.00281,1028.9227 z m -13.232745,0.056 -1.74e-4,0.056 1.751435,0 1.74e-4,-0.056 L 14.770065,1028.9783 z m 4.169884,0.3892 c 0.0067,0.012 -0.0047,0.046 6.92e-4,0.055 0.01879,0.053 0.06714,0.068 0.110678,0.084 l 1.74e-4,-0.056 C 19.007184,1029.4362 18.963495,1029.4173 18.939949,1029.3675 z m 9.730049,0 c 0.0067,0.012 -0.0047,0.046 -1.74e-4,0.056 0.01879,0.053 0.06715,0.068 0.110678,0.084 l 1.74e-4,-0.056 C 28.737147,1029.4362 28.69337,1029.4174 28.669998,1029.3675 z m 2.029386,0.3614 c -0.06445,0.1989 -0.228272,0.3058 -0.472701,0.3058 -0.161344,0 -0.26596,-0.034 -0.333594,-0.083 -0.04069,-0.033 -0.06515,-0.091 -0.08268,-0.1672 l -0.69501,0 c -5.2e-4,0.019 -0.0015,0.037 -1.74e-4,0.056 l 0.694924,10e-5 c 0.01753,0.076 0.04209,0.1349 0.08268,0.1672 0.0679,0.05 0.172076,0.083 0.333594,0.083 C 30.491193,1030.0903 30.646548,1029.9626 30.699384,1029.7289 z m -8.228832,0.1112 c -0.02242,0.051 -0.04975,0.088 -0.08338,0.1112 -0.05018,0.035 -0.124007,0.056 -0.250219,0.056 l -0.111715,-0.028 -1.73e-4,0.056 0.111715,0.027 c 0.126298,0 0.200287,-0.021 0.250218,-0.056 C 22.429872,1029.9773 22.444819,1029.9139 22.470552,1029.8401 Z"
           id="path996"
           inkscape:connector-curvature="0" />
      </g>
      <g
         transform="matrix(0.62796406,0,0,0.62796406,11.286903,380.72347)"
         id="g42401">
        <path
           transform="matrix(1.0726218,0,0,1.0726218,-4.5924767,1003.146)"
           d="m 36.062446,14.920661 c 0,0.451544 -0.366048,0.817592 -0.817592,0.817592 -0.451544,0 -0.817592,-0.366048 -0.817592,-0.817592 0,-0.451544 0.366048,-0.817592 0.817592,-0.817592 C 35.696398,14.103069 36.062446,14.469117 36.062446,14.920661 Z"
           sodipodi:ry="0.8175922"
           sodipodi:rx="0.8175922"
           sodipodi:cy="14.920661"
           sodipodi:cx="35.244854"
           id="path42381"
           style="fill:#000000;fill-opacity:0.34497818;stroke:none"
           sodipodi:type="arc" />
        <path
           sodipodi:type="arc"
           style="fill:url(#radialGradient42361);fill-opacity:1;stroke:none"
           id="path42353"
           sodipodi:cx="35.244854"
           sodipodi:cy="14.920661"
           sodipodi:rx="0.8175922"
           sodipodi:ry="0.8175922"
           d="m 36.062446,14.920661 c 0,0.451544 -0.366048,0.817592 -0.817592,0.817592 -0.451544,0 -0.817592,-0.366048 -0.817592,-0.817592 0,-0.451544 0.366048,-0.817592 0.817592,-0.817592 C 35.696398,14.103069 36.062446,14.469117 36.062446,14.920661 Z"
           transform="translate(-2.032932,1004.2296)" />
      </g>
      <g
         id="g42413"
         transform="matrix(0.62796406,0,0,0.62796406,12.050422,380.02185)">
        <path
           sodipodi:type="arc"
           style="fill:#000000;fill-opacity:0.34497818;stroke:none"
           id="path42415"
           sodipodi:cx="35.244854"
           sodipodi:cy="14.920661"
           sodipodi:rx="0.8175922"
           sodipodi:ry="0.8175922"
           d="m 36.062446,14.920661 c 0,0.451544 -0.366048,0.817592 -0.817592,0.817592 -0.451544,0 -0.817592,-0.366048 -0.817592,-0.817592 0,-0.451544 0.366048,-0.817592 0.817592,-0.817592 C 35.696398,14.103069 36.062446,14.469117 36.062446,14.920661 Z"
           transform="matrix(1.0726218,0,0,1.0726218,-4.5924767,1003.146)" />
        <path
           transform="translate(-2.032932,1004.2296)"
           d="m 36.062446,14.920661 c 0,0.451544 -0.366048,0.817592 -0.817592,0.817592 -0.451544,0 -0.817592,-0.366048 -0.817592,-0.817592 0,-0.451544 0.366048,-0.817592 0.817592,-0.817592 C 35.696398,14.103069 36.062446,14.469117 36.062446,14.920661 Z"
           sodipodi:ry="0.8175922"
           sodipodi:rx="0.8175922"
           sodipodi:cy="14.920661"
           sodipodi:cx="35.244854"
           id="path42417"
           style="fill:url(#radialGradient42419);fill-opacity:1;stroke:none"
           sodipodi:type="arc" />
      </g>
      <g
         transform="matrix(0.62796406,0,0,0.62796406,12.504407,378.96944)"
         id="g42421">
        <path
           transform="matrix(1.0726218,0,0,1.0726218,-4.5924767,1003.146)"
           d="m 36.062446,14.920661 c 0,0.451544 -0.366048,0.817592 -0.817592,0.817592 -0.451544,0 -0.817592,-0.366048 -0.817592,-0.817592 0,-0.451544 0.366048,-0.817592 0.817592,-0.817592 C 35.696398,14.103069 36.062446,14.469117 36.062446,14.920661 Z"
           sodipodi:ry="0.8175922"
           sodipodi:rx="0.8175922"
           sodipodi:cy="14.920661"
           sodipodi:cx="35.244854"
           id="path42423"
           style="fill:#000000;fill-opacity:0.34497818;stroke:none"
           sodipodi:type="arc" />
        <path
           sodipodi:type="arc"
           style="fill:url(#radialGradient42427);fill-opacity:1;stroke:none"
           id="path42425"
           sodipodi:cx="35.244854"
           sodipodi:cy="14.920661"
           sodipodi:rx="0.8175922"
           sodipodi:ry="0.8175922"
           d="m 36.062446,14.920661 c 0,0.451544 -0.366048,0.817592 -0.817592,0.817592 -0.451544,0 -0.817592,-0.366048 -0.817592,-0.817592 0,-0.451544 0.366048,-0.817592 0.817592,-0.817592 C 35.696398,14.103069 36.062446,14.469117 36.062446,14.920661 Z"
           transform="translate(-2.032932,1004.2296)" />
      </g>
      <g
         id="g42429"
         transform="matrix(0.62796406,0,0,0.62796406,12.813941,378.04084)">
        <path
           sodipodi:type="arc"
           style="fill:#000000;fill-opacity:0.34497818;stroke:none"
           id="path42431"
           sodipodi:cx="35.244854"
           sodipodi:cy="14.920661"
           sodipodi:rx="0.8175922"
           sodipodi:ry="0.8175922"
           d="m 36.062446,14.920661 c 0,0.451544 -0.366048,0.817592 -0.817592,0.817592 -0.451544,0 -0.817592,-0.366048 -0.817592,-0.817592 0,-0.451544 0.366048,-0.817592 0.817592,-0.817592 C 35.696398,14.103069 36.062446,14.469117 36.062446,14.920661 Z"
           transform="matrix(1.0726218,0,0,1.0726218,-4.5924767,1003.146)" />
        <path
           transform="translate(-2.032932,1004.2296)"
           d="m 36.062446,14.920661 c 0,0.451544 -0.366048,0.817592 -0.817592,0.817592 -0.451544,0 -0.817592,-0.366048 -0.817592,-0.817592 0,-0.451544 0.366048,-0.817592 0.817592,-0.817592 C 35.696398,14.103069 36.062446,14.469117 36.062446,14.920661 Z"
           sodipodi:ry="0.8175922"
           sodipodi:rx="0.8175922"
           sodipodi:cy="14.920661"
           sodipodi:cx="35.244854"
           id="path42433"
           style="fill:url(#radialGradient42435);fill-opacity:1;stroke:none"
           sodipodi:type="arc" />
      </g>
      <g
         transform="matrix(0.62796406,0,0,0.62796406,12.813941,377.19477)"
         id="g42437">
        <path
           transform="matrix(1.0726218,0,0,1.0726218,-4.5924767,1003.146)"
           d="m 36.062446,14.920661 c 0,0.451544 -0.366048,0.817592 -0.817592,0.817592 -0.451544,0 -0.817592,-0.366048 -0.817592,-0.817592 0,-0.451544 0.366048,-0.817592 0.817592,-0.817592 C 35.696398,14.103069 36.062446,14.469117 36.062446,14.920661 Z"
           sodipodi:ry="0.8175922"
           sodipodi:rx="0.8175922"
           sodipodi:cy="14.920661"
           sodipodi:cx="35.244854"
           id="path42439"
           style="fill:#000000;fill-opacity:0.34497818;stroke:none"
           sodipodi:type="arc" />
        <path
           sodipodi:type="arc"
           style="fill:url(#radialGradient42443);fill-opacity:1;stroke:none"
           id="path42441"
           sodipodi:cx="35.244854"
           sodipodi:cy="14.920661"
           sodipodi:rx="0.8175922"
           sodipodi:ry="0.8175922"
           d="m 36.062446,14.920661 c 0,0.451544 -0.366048,0.817592 -0.817592,0.817592 -0.451544,0 -0.817592,-0.366048 -0.817592,-0.817592 0,-0.451544 0.366048,-0.817592 0.817592,-0.817592 C 35.696398,14.103069 36.062446,14.469117 36.062446,14.920661 Z"
           transform="translate(-2.032932,1004.2296)" />
      </g>
      <g
         id="g42445"
         transform="matrix(0.62796406,0,0,0.62796406,13.371105,376.26617)">
        <path
           sodipodi:type="arc"
           style="fill:#000000;fill-opacity:0.34497818;stroke:none"
           id="path42447"
           sodipodi:cx="35.244854"
           sodipodi:cy="14.920661"
           sodipodi:rx="0.8175922"
           sodipodi:ry="0.8175922"
           d="m 36.062446,14.920661 c 0,0.451544 -0.366048,0.817592 -0.817592,0.817592 -0.451544,0 -0.817592,-0.366048 -0.817592,-0.817592 0,-0.451544 0.366048,-0.817592 0.817592,-0.817592 C 35.696398,14.103069 36.062446,14.469117 36.062446,14.920661 Z"
           transform="matrix(1.0726218,0,0,1.0726218,-4.5924767,1003.146)" />
        <path
           transform="translate(-2.032932,1004.2296)"
           d="m 36.062446,14.920661 c 0,0.451544 -0.366048,0.817592 -0.817592,0.817592 -0.451544,0 -0.817592,-0.366048 -0.817592,-0.817592 0,-0.451544 0.366048,-0.817592 0.817592,-0.817592 C 35.696398,14.103069 36.062446,14.469117 36.062446,14.920661 Z"
           sodipodi:ry="0.8175922"
           sodipodi:rx="0.8175922"
           sodipodi:cy="14.920661"
           sodipodi:cx="35.244854"
           id="path42449"
           style="fill:url(#radialGradient42451);fill-opacity:1;stroke:none"
           sodipodi:type="arc" />
      </g>
      <g
         transform="matrix(0.62796406,0,0,0.62796406,13.267926,375.19311)"
         id="g42453">
        <path
           transform="matrix(1.0726218,0,0,1.0726218,-4.5924767,1003.146)"
           d="m 36.062446,14.920661 c 0,0.451544 -0.366048,0.817592 -0.817592,0.817592 -0.451544,0 -0.817592,-0.366048 -0.817592,-0.817592 0,-0.451544 0.366048,-0.817592 0.817592,-0.817592 C 35.696398,14.103069 36.062446,14.469117 36.062446,14.920661 Z"
           sodipodi:ry="0.8175922"
           sodipodi:rx="0.8175922"
           sodipodi:cy="14.920661"
           sodipodi:cx="35.244854"
           id="path42455"
           style="fill:#000000;fill-opacity:0.34497818;stroke:none"
           sodipodi:type="arc" />
        <path
           sodipodi:type="arc"
           style="fill:url(#radialGradient42459);fill-opacity:1;stroke:none"
           id="path42457"
           sodipodi:cx="35.244854"
           sodipodi:cy="14.920661"
           sodipodi:rx="0.8175922"
           sodipodi:ry="0.8175922"
           d="m 36.062446,14.920661 c 0,0.451544 -0.366048,0.817592 -0.817592,0.817592 -0.451544,0 -0.817592,-0.366048 -0.817592,-0.817592 0,-0.451544 0.366048,-0.817592 0.817592,-0.817592 C 35.696398,14.103069 36.062446,14.469117 36.062446,14.920661 Z"
           transform="translate(-2.032932,1004.2296)" />
      </g>
      <g
         id="g42461"
         transform="matrix(0.62796406,0,0,0.62796406,13.267926,374.1407)">
        <path
           sodipodi:type="arc"
           style="fill:#000000;fill-opacity:0.34497818;stroke:none"
           id="path42463"
           sodipodi:cx="35.244854"
           sodipodi:cy="14.920661"
           sodipodi:rx="0.8175922"
           sodipodi:ry="0.8175922"
           d="m 36.062446,14.920661 c 0,0.451544 -0.366048,0.817592 -0.817592,0.817592 -0.451544,0 -0.817592,-0.366048 -0.817592,-0.817592 0,-0.451544 0.366048,-0.817592 0.817592,-0.817592 C 35.696398,14.103069 36.062446,14.469117 36.062446,14.920661 Z"
           transform="matrix(1.0726218,0,0,1.0726218,-4.5924767,1003.146)" />
        <path
           transform="translate(-2.032932,1004.2296)"
           d="m 36.062446,14.920661 c 0,0.451544 -0.366048,0.817592 -0.817592,0.817592 -0.451544,0 -0.817592,-0.366048 -0.817592,-0.817592 0,-0.451544 0.366048,-0.817592 0.817592,-0.817592 C 35.696398,14.103069 36.062446,14.469117 36.062446,14.920661 Z"
           sodipodi:ry="0.8175922"
           sodipodi:rx="0.8175922"
           sodipodi:cy="14.920661"
           sodipodi:cx="35.244854"
           id="path42465"
           style="fill:url(#radialGradient42467);fill-opacity:1;stroke:none"
           sodipodi:type="arc" />
      </g>
      <g
         transform="matrix(0.62796406,0,0,0.62796406,11.996033,373.68373)"
         id="g42469">
        <path
           transform="matrix(1.0726218,0,0,1.0726218,-4.5924767,1003.146)"
           d="m 36.062446,14.920661 c 0,0.451544 -0.366048,0.817592 -0.817592,0.817592 -0.451544,0 -0.817592,-0.366048 -0.817592,-0.817592 0,-0.451544 0.366048,-0.817592 0.817592,-0.817592 C 35.696398,14.103069 36.062446,14.469117 36.062446,14.920661 Z"
           sodipodi:ry="0.8175922"
           sodipodi:rx="0.8175922"
           sodipodi:cy="14.920661"
           sodipodi:cx="35.244854"
           id="path42471"
           style="fill:#000000;fill-opacity:0.34497818;stroke:none"
           sodipodi:type="arc" />
        <path
           sodipodi:type="arc"
           style="fill:url(#radialGradient42475);fill-opacity:1;stroke:none"
           id="path42473"
           sodipodi:cx="35.244854"
           sodipodi:cy="14.920661"
           sodipodi:rx="0.8175922"
           sodipodi:ry="0.8175922"
           d="m 36.062446,14.920661 c 0,0.451544 -0.366048,0.817592 -0.817592,0.817592 -0.451544,0 -0.817592,-0.366048 -0.817592,-0.817592 0,-0.451544 0.366048,-0.817592 0.817592,-0.817592 C 35.696398,14.103069 36.062446,14.469117 36.062446,14.920661 Z"
           transform="translate(-2.032932,1004.2296)" />
      </g>
      <g
         id="g42477"
         transform="matrix(0.62796406,0,0,0.62796406,12.719157,374.22202)">
        <path
           sodipodi:type="arc"
           style="fill:#000000;fill-opacity:0.34497818;stroke:none"
           id="path42479"
           sodipodi:cx="35.244854"
           sodipodi:cy="14.920661"
           sodipodi:rx="0.8175922"
           sodipodi:ry="0.8175922"
           d="m 36.062446,14.920661 c 0,0.451544 -0.366048,0.817592 -0.817592,0.817592 -0.451544,0 -0.817592,-0.366048 -0.817592,-0.817592 0,-0.451544 0.366048,-0.817592 0.817592,-0.817592 C 35.696398,14.103069 36.062446,14.469117 36.062446,14.920661 Z"
           transform="matrix(1.0726218,0,0,1.0726218,-4.5924767,1003.146)" />
        <path
           transform="translate(-2.032932,1004.2296)"
           d="m 36.062446,14.920661 c 0,0.451544 -0.366048,0.817592 -0.817592,0.817592 -0.451544,0 -0.817592,-0.366048 -0.817592,-0.817592 0,-0.451544 0.366048,-0.817592 0.817592,-0.817592 C 35.696398,14.103069 36.062446,14.469117 36.062446,14.920661 Z"
           sodipodi:ry="0.8175922"
           sodipodi:rx="0.8175922"
           sodipodi:cy="14.920661"
           sodipodi:cx="35.244854"
           id="path42481"
           style="fill:url(#radialGradient42483);fill-opacity:1;stroke:none"
           sodipodi:type="arc" />
      </g>
      <g
         transform="matrix(0.62796406,0,0,0.62796406,11.486262,381.4716)"
         id="g42485">
        <path
           transform="matrix(1.0726218,0,0,1.0726218,-4.5924767,1003.146)"
           d="m 36.062446,14.920661 c 0,0.451544 -0.366048,0.817592 -0.817592,0.817592 -0.451544,0 -0.817592,-0.366048 -0.817592,-0.817592 0,-0.451544 0.366048,-0.817592 0.817592,-0.817592 C 35.696398,14.103069 36.062446,14.469117 36.062446,14.920661 Z"
           sodipodi:ry="0.8175922"
           sodipodi:rx="0.8175922"
           sodipodi:cy="14.920661"
           sodipodi:cx="35.244854"
           id="path42487"
           style="fill:#000000;fill-opacity:0.34497818;stroke:none"
           sodipodi:type="arc" />
        <path
           sodipodi:type="arc"
           style="fill:url(#radialGradient42491);fill-opacity:1;stroke:none"
           id="path42489"
           sodipodi:cx="35.244854"
           sodipodi:cy="14.920661"
           sodipodi:rx="0.8175922"
           sodipodi:ry="0.8175922"
           d="m 36.062446,14.920661 c 0,0.451544 -0.366048,0.817592 -0.817592,0.817592 -0.451544,0 -0.817592,-0.366048 -0.817592,-0.817592 0,-0.451544 0.366048,-0.817592 0.817592,-0.817592 C 35.696398,14.103069 36.062446,14.469117 36.062446,14.920661 Z"
           transform="translate(-2.032932,1004.2296)" />
      </g>
      <g
         transform="matrix(0.62796406,0,0,0.62796406,11.507774,373.00206)"
         id="g42501">
        <path
           transform="matrix(1.0726218,0,0,1.0726218,-4.5924767,1003.146)"
           d="m 36.062446,14.920661 c 0,0.451544 -0.366048,0.817592 -0.817592,0.817592 -0.451544,0 -0.817592,-0.366048 -0.817592,-0.817592 0,-0.451544 0.366048,-0.817592 0.817592,-0.817592 C 35.696398,14.103069 36.062446,14.469117 36.062446,14.920661 Z"
           sodipodi:ry="0.8175922"
           sodipodi:rx="0.8175922"
           sodipodi:cy="14.920661"
           sodipodi:cx="35.244854"
           id="path42503"
           style="fill:#000000;fill-opacity:0.34497818;stroke:none"
           sodipodi:type="arc" />
        <path
           sodipodi:type="arc"
           style="fill:url(#radialGradient42507);fill-opacity:1;stroke:none"
           id="path42505"
           sodipodi:cx="35.244854"
           sodipodi:cy="14.920661"
           sodipodi:rx="0.8175922"
           sodipodi:ry="0.8175922"
           d="m 36.062446,14.920661 c 0,0.451544 -0.366048,0.817592 -0.817592,0.817592 -0.451544,0 -0.817592,-0.366048 -0.817592,-0.817592 0,-0.451544 0.366048,-0.817592 0.817592,-0.817592 C 35.696398,14.103069 36.062446,14.469117 36.062446,14.920661 Z"
           transform="translate(-2.032932,1004.2296)" />
      </g>
      <g
         id="g42804"
         transform="matrix(0.62796406,0,0,0.62796406,12.115816,382.12389)">
        <path
           sodipodi:type="arc"
           style="fill:#000000;fill-opacity:0.34497818;stroke:none"
           id="path42806"
           sodipodi:cx="35.244854"
           sodipodi:cy="14.920661"
           sodipodi:rx="0.8175922"
           sodipodi:ry="0.8175922"
           d="m 36.062446,14.920661 c 0,0.451544 -0.366048,0.817592 -0.817592,0.817592 -0.451544,0 -0.817592,-0.366048 -0.817592,-0.817592 0,-0.451544 0.366048,-0.817592 0.817592,-0.817592 C 35.696398,14.103069 36.062446,14.469117 36.062446,14.920661 Z"
           transform="matrix(1.0726218,0,0,1.0726218,-4.5924767,1003.146)" />
        <path
           transform="translate(-2.032932,1004.2296)"
           d="m 36.062446,14.920661 c 0,0.451544 -0.366048,0.817592 -0.817592,0.817592 -0.451544,0 -0.817592,-0.366048 -0.817592,-0.817592 0,-0.451544 0.366048,-0.817592 0.817592,-0.817592 C 35.696398,14.103069 36.062446,14.469117 36.062446,14.920661 Z"
           sodipodi:ry="0.8175922"
           sodipodi:rx="0.8175922"
           sodipodi:cy="14.920661"
           sodipodi:cx="35.244854"
           id="path42808"
           style="fill:url(#radialGradient42810);fill-opacity:1;stroke:none"
           sodipodi:type="arc" />
      </g>
      <g
         transform="matrix(0.62796406,0,0,0.62796406,13.26644,381.851)"
         id="g42812">
        <path
           transform="matrix(1.0726218,0,0,1.0726218,-4.5924767,1003.146)"
           d="m 36.062446,14.920661 c 0,0.451544 -0.366048,0.817592 -0.817592,0.817592 -0.451544,0 -0.817592,-0.366048 -0.817592,-0.817592 0,-0.451544 0.366048,-0.817592 0.817592,-0.817592 C 35.696398,14.103069 36.062446,14.469117 36.062446,14.920661 Z"
           sodipodi:ry="0.8175922"
           sodipodi:rx="0.8175922"
           sodipodi:cy="14.920661"
           sodipodi:cx="35.244854"
           id="path42814"
           style="fill:#000000;fill-opacity:0.34497818;stroke:none"
           sodipodi:type="arc" />
        <path
           sodipodi:type="arc"
           style="fill:url(#radialGradient42818);fill-opacity:1;stroke:none"
           id="path42816"
           sodipodi:cx="35.244854"
           sodipodi:cy="14.920661"
           sodipodi:rx="0.8175922"
           sodipodi:ry="0.8175922"
           d="m 36.062446,14.920661 c 0,0.451544 -0.366048,0.817592 -0.817592,0.817592 -0.451544,0 -0.817592,-0.366048 -0.817592,-0.817592 0,-0.451544 0.366048,-0.817592 0.817592,-0.817592 C 35.696398,14.103069 36.062446,14.469117 36.062446,14.920661 Z"
           transform="translate(-2.032932,1004.2296)" />
      </g>
      <g
         id="g42820"
         transform="matrix(0.62796406,0,0,0.62796406,14.346219,382.28874)">
        <path
           sodipodi:type="arc"
           style="fill:#000000;fill-opacity:0.34497818;stroke:none"
           id="path42822"
           sodipodi:cx="35.244854"
           sodipodi:cy="14.920661"
           sodipodi:rx="0.8175922"
           sodipodi:ry="0.8175922"
           d="m 36.062446,14.920661 c 0,0.451544 -0.366048,0.817592 -0.817592,0.817592 -0.451544,0 -0.817592,-0.366048 -0.817592,-0.817592 0,-0.451544 0.366048,-0.817592 0.817592,-0.817592 C 35.696398,14.103069 36.062446,14.469117 36.062446,14.920661 Z"
           transform="matrix(1.0726218,0,0,1.0726218,-4.5924767,1003.146)" />
        <path
           transform="translate(-2.032932,1004.2296)"
           d="m 36.062446,14.920661 c 0,0.451544 -0.366048,0.817592 -0.817592,0.817592 -0.451544,0 -0.817592,-0.366048 -0.817592,-0.817592 0,-0.451544 0.366048,-0.817592 0.817592,-0.817592 C 35.696398,14.103069 36.062446,14.469117 36.062446,14.920661 Z"
           sodipodi:ry="0.8175922"
           sodipodi:rx="0.8175922"
           sodipodi:cy="14.920661"
           sodipodi:cx="35.244854"
           id="path42824"
           style="fill:url(#radialGradient42834);fill-opacity:1;stroke:none"
           sodipodi:type="arc" />
      </g>
      <g
         transform="matrix(0.62796406,0,0,0.62796406,14.959067,383.10588)"
         id="g42826">
        <path
           transform="matrix(1.0726218,0,0,1.0726218,-4.5924767,1003.146)"
           d="m 36.062446,14.920661 c 0,0.451544 -0.366048,0.817592 -0.817592,0.817592 -0.451544,0 -0.817592,-0.366048 -0.817592,-0.817592 0,-0.451544 0.366048,-0.817592 0.817592,-0.817592 C 35.696398,14.103069 36.062446,14.469117 36.062446,14.920661 Z"
           sodipodi:ry="0.8175922"
           sodipodi:rx="0.8175922"
           sodipodi:cy="14.920661"
           sodipodi:cx="35.244854"
           id="path42828"
           style="fill:#000000;fill-opacity:0.34497818;stroke:none"
           sodipodi:type="arc" />
        <path
           sodipodi:type="arc"
           style="fill:url(#radialGradient42832);fill-opacity:1;stroke:none"
           id="path42830"
           sodipodi:cx="35.244854"
           sodipodi:cy="14.920661"
           sodipodi:rx="0.8175922"
           sodipodi:ry="0.8175922"
           d="m 36.062446,14.920661 c 0,0.451544 -0.366048,0.817592 -0.817592,0.817592 -0.451544,0 -0.817592,-0.366048 -0.817592,-0.817592 0,-0.451544 0.366048,-0.817592 0.817592,-0.817592 C 35.696398,14.103069 36.062446,14.469117 36.062446,14.920661 Z"
           transform="translate(-2.032932,1004.2296)" />
      </g>
      <g
         id="g42836"
         transform="matrix(0.62796406,0,0,0.62796406,16.126396,383.3685)">
        <path
           sodipodi:type="arc"
           style="fill:#000000;fill-opacity:0.34497818;stroke:none"
           id="path42838"
           sodipodi:cx="35.244854"
           sodipodi:cy="14.920661"
           sodipodi:rx="0.8175922"
           sodipodi:ry="0.8175922"
           d="m 36.062446,14.920661 c 0,0.451544 -0.366048,0.817592 -0.817592,0.817592 -0.451544,0 -0.817592,-0.366048 -0.817592,-0.817592 0,-0.451544 0.366048,-0.817592 0.817592,-0.817592 C 35.696398,14.103069 36.062446,14.469117 36.062446,14.920661 Z"
           transform="matrix(1.0726218,0,0,1.0726218,-4.5924767,1003.146)" />
        <path
           transform="translate(-2.032932,1004.2296)"
           d="m 36.062446,14.920661 c 0,0.451544 -0.366048,0.817592 -0.817592,0.817592 -0.451544,0 -0.817592,-0.366048 -0.817592,-0.817592 0,-0.451544 0.366048,-0.817592 0.817592,-0.817592 C 35.696398,14.103069 36.062446,14.469117 36.062446,14.920661 Z"
           sodipodi:ry="0.8175922"
           sodipodi:rx="0.8175922"
           sodipodi:cy="14.920661"
           sodipodi:cx="35.244854"
           id="path42840"
           style="fill:url(#radialGradient42842);fill-opacity:1;stroke:none"
           sodipodi:type="arc" />
      </g>
      <g
         transform="matrix(0.62796406,0,0,0.62796406,16.680877,384.27326)"
         id="g42844">
        <path
           transform="matrix(1.0726218,0,0,1.0726218,-4.5924767,1003.146)"
           d="m 36.062446,14.920661 c 0,0.451544 -0.366048,0.817592 -0.817592,0.817592 -0.451544,0 -0.817592,-0.366048 -0.817592,-0.817592 0,-0.451544 0.366048,-0.817592 0.817592,-0.817592 C 35.696398,14.103069 36.062446,14.469117 36.062446,14.920661 Z"
           sodipodi:ry="0.8175922"
           sodipodi:rx="0.8175922"
           sodipodi:cy="14.920661"
           sodipodi:cx="35.244854"
           id="path42846"
           style="fill:#000000;fill-opacity:0.34497818;stroke:none"
           sodipodi:type="arc" />
        <path
           sodipodi:type="arc"
           style="fill:url(#radialGradient42850);fill-opacity:1;stroke:none"
           id="path42848"
           sodipodi:cx="35.244854"
           sodipodi:cy="14.920661"
           sodipodi:rx="0.8175922"
           sodipodi:ry="0.8175922"
           d="m 36.062446,14.920661 c 0,0.451544 -0.366048,0.817592 -0.817592,0.817592 -0.451544,0 -0.817592,-0.366048 -0.817592,-0.817592 0,-0.451544 0.366048,-0.817592 0.817592,-0.817592 C 35.696398,14.103069 36.062446,14.469117 36.062446,14.920661 Z"
           transform="translate(-2.032932,1004.2296)" />
      </g>
    </g>
  </g>
</svg>
