<?xml version="1.0" encoding="UTF-8" standalone="no"?>
<!-- Created with Inkscape (http://www.inkscape.org/) -->

<svg
   xmlns:dc="http://purl.org/dc/elements/1.1/"
   xmlns:cc="http://creativecommons.org/ns#"
   xmlns:rdf="http://www.w3.org/1999/02/22-rdf-syntax-ns#"
   xmlns:svg="http://www.w3.org/2000/svg"
   xmlns="http://www.w3.org/2000/svg"
   xmlns:xlink="http://www.w3.org/1999/xlink"
   xmlns:sodipodi="http://sodipodi.sourceforge.net/DTD/sodipodi-0.dtd"
   xmlns:inkscape="http://www.inkscape.org/namespaces/inkscape"
   width="48"
   height="48"
   id="svg2"
   version="1.1"
   inkscape:version="0.48+devel r12123"
   sodipodi:docname="easystroke.svg">
  <defs
     id="defs4">
    <linearGradient
       inkscape:collect="always"
       xlink:href="#linearGradient868"
       id="linearGradient975"
       x1="-84.610794"
       y1="900.88837"
       x2="-84.610794"
       y2="878.06256"
       gradientUnits="userSpaceOnUse"
       gradientTransform="matrix(0.67905656,0,0,0.67905656,84.272,415.1966)" />
    <linearGradient
       id="linearGradient868">
      <stop
         style="stop-color:#aa0000;stop-opacity:1"
         offset="0"
         id="stop870" />
      <stop
         style="stop-color:#ff5555;stop-opacity:1"
         offset="1"
         id="stop872" />
    </linearGradient>
    <linearGradient
       inkscape:collect="always"
       xlink:href="#linearGradient3795"
       id="linearGradient967"
       x1="-83.5"
       y1="-76.5"
       x2="-83.5"
       y2="-115.5"
       gradientUnits="userSpaceOnUse"
       gradientTransform="matrix(0.67905656,0,0,0.67905656,84.272,1097.2153)" />
    <linearGradient
       id="linearGradient3795">
      <stop
         style="stop-color:#9f1e25;stop-opacity:1;"
         offset="0"
         id="stop3797" />
      <stop
         style="stop-color:#e16459;stop-opacity:1;"
         offset="1"
         id="stop3799" />
    </linearGradient>
    <linearGradient
       inkscape:collect="always"
       xlink:href="#linearGradient842"
       id="linearGradient848"
       x1="24.04163"
       y1="-1053.0693"
       x2="24.04163"
       y2="-1004.6325"
       gradientUnits="userSpaceOnUse" />
    <linearGradient
       inkscape:collect="always"
       id="linearGradient842">
      <stop
         style="stop-color:#f9f9f9;stop-opacity:1"
         offset="0"
         id="stop844" />
      <stop
         style="stop-color:#ffffff;stop-opacity:1"
         offset="1"
         id="stop846" />
    </linearGradient>
    <linearGradient
       inkscape:collect="always"
       xlink:href="#linearGradient842"
       id="linearGradient993"
       x1="24.088388"
       y1="1050.5238"
       x2="24.088388"
       y2="1005.9116"
       gradientUnits="userSpaceOnUse" />
  </defs>
  <sodipodi:namedview
     id="base"
     pagecolor="#ffffff"
     bordercolor="#666666"
     borderopacity="1.0"
     inkscape:pageopacity="0.0"
     inkscape:pageshadow="2"
     inkscape:zoom="5.6568545"
     inkscape:cx="9.5011088"
     inkscape:cy="36.631908"
     inkscape:document-units="px"
     inkscape:current-layer="layer1"
     showgrid="false"
     inkscape:window-width="1366"
     inkscape:window-height="718"
     inkscape:window-x="0"
     inkscape:window-y="28"
     inkscape:window-maximized="1"
     showguides="false" />
  <metadata
     id="metadata7">
    <rdf:RDF>
      <cc:Work
         rdf:about="">
        <dc:format>image/svg+xml</dc:format>
        <dc:type
           rdf:resource="http://purl.org/dc/dcmitype/StillImage" />
        <dc:title />
      </cc:Work>
    </rdf:RDF>
  </metadata>
  <g
     inkscape:label="Capa 1"
     inkscape:groupmode="layer"
     id="layer1"
     transform="translate(0,-1004.3622)">
    <rect
       style="color:#000000;fill:#333333;fill-opacity:1;fill-rule:nonzero;stroke:none;stroke-width:0.2;marker:none;visibility:visible;display:inline;overflow:visible;enable-background:accumulate"
       id="rect6294"
       width="45.5"
       height="45.5"
       x="1.25"
       y="1005.6122"
       ry="6.3565426" />
    <rect
       ry="5.8565426"
       y="1006.1122"
       x="1.75"
       height="44.5"
       width="44.5"
       id="rect6296"
       style="color:#000000;fill:url(#linearGradient993);fill-opacity:1;fill-rule:nonzero;stroke:none;stroke-width:0.2;marker:none;visibility:visible;display:inline;overflow:visible;enable-background:accumulate" />
    <path
       id="path6361"
       d="m 1.7500032,1012.5498 0,-0.5625 c 0,-3.2445 2.5991999,-5.875 5.8437999,-5.875 l 32.8124999,0 c 3.2445,0 5.8437,2.6305 5.8437,5.875 l 0,0.5625 c 0,-3.2445 -2.5992,-5.875 -5.8437,-5.875 l -32.8124999,0 C 4.3492031,1006.6748 1.7500032,1009.3053 1.7500032,1012.5498 Z"
       style="color:#000000;fill:#ffffff;fill-opacity:1;fill-rule:nonzero;stroke:none;stroke-width:0.2;marker:none;visibility:visible;display:inline;overflow:visible;enable-background:accumulate"
       inkscape:connector-curvature="0" />
    <path
       inkscape:connector-curvature="0"
       style="color:#000000;fill:#000000;fill-opacity:1;fill-rule:nonzero;stroke:none;stroke-width:0.2;marker:none;visibility:visible;display:inline;overflow:visible;enable-background:accumulate"
       d="m 1.7500032,1044.1748 0,0.5625 c 0,3.2445 2.5991999,5.875 5.8437999,5.875 l 32.8124999,0 c 3.2445,0 5.8437,-2.6305 5.8437,-5.875 l 0,-0.5625 c 0,3.2445 -2.5992,5.875 -5.8437,5.875 l -32.8124999,0 C 4.3492031,1050.0498 1.7500032,1047.4193 1.7500032,1044.1748 Z"
       id="path6388" />
    <g
       id="g886"
       transform="matrix(0.87816101,0,0,0.87816101,2.9052688,125.16846)">
      <path
         id="path937"
         d="m 22.125,1011.4247 c -3.924402,0 -7.157225,2.9094 -7.6875,6.6875 l 1.40625,-1.6562 1.59375,1.875 c 0.420128,-2.2269 2.338623,-3.9375 4.6875,-3.9375 1.921299,0 3.58003,1.1191 4.34375,2.75 l -1.09375,0 1.53125,1.8437 1.5,1.7813 1.5,-1.7813 1.53125,-1.8437 -1.84375,0 C 28.694948,1013.8451 25.70875,1011.4247 22.125,1011.4247 z m -6.28125,5.7188 -3.03125,3.625 1.71875,0 c 0.71853,3.5534 3.828525,6.2187 7.59375,6.2187 4.127485,0 7.52269,-3.2191 7.78125,-7.2812 l -1.5,1.7812 -1.46875,-1.7812 c -0.246592,2.428 -2.319283,4.3125 -4.8125,4.3125 -2.113002,0 -3.914019,-1.3569 -4.5625,-3.25 l 1.34375,0 L 15.84375,1017.1435 Z"
         style="fill:url(#linearGradient975);fill-opacity:1;stroke:none"
         inkscape:connector-curvature="0" />
      <path
         id="path866"
         transform="translate(0,1004.3622)"
         d="m 22.125,7.0625 c -3.924402,0 -7.157225,2.9094 -7.6875,6.6875 l 0.09375,-0.125 c 0.772732,-3.47899 3.88177,-6.0625 7.59375,-6.0625 3.58375,0 6.569948,2.42035 7.46875,5.71875 l 1.4375,0 0.40625,-0.5 -1.84375,0 C 28.694948,9.48285 25.70875,7.0625 22.125,7.0625 z m -6.28125,5.71875 -3.03125,3.625 0.40625,0 2.625,-3.125 2.625,3.125 0.4375,0 L 15.84375,12.78125 z m 9.53125,0 0.40625,0.5 0.6875,0 c -0.07952,-0.169812 -0.151788,-0.341971 -0.25,-0.5 L 25.375,12.78125 z m 1.5625,2.5625 c -0.246592,2.428 -2.319283,4.3125 -4.8125,4.3125 -1.918998,0 -3.569037,-1.126418 -4.34375,-2.75 l -0.21875,0 c 0.648481,1.8931 2.449498,3.25 4.5625,3.25 2.493217,0 4.565908,-1.8845 4.8125,-4.3125 l 1.46875,1.78125 1.4375,-1.6875 c 0.02776,-0.196108 0.04974,-0.393249 0.0625,-0.59375 l -1.5,1.78125 L 26.9375,15.34375 Z"
         style="fill:#000000;fill-opacity:0.15720526;stroke:none"
         inkscape:connector-curvature="0" />
      <path
         id="path871"
         transform="translate(0,1004.3622)"
         d="m 22.125,7.5625 c -3.700711,0 -6.778083,2.599391 -7.5625,6.0625 l 0.125,-0.15625 c 0.003,-0.0094 -0.003,-0.02188 0,-0.03125 1.000543,-3.135809 3.96789,-5.375 7.4375,-5.375 3.58375,0 6.569948,2.42035 7.46875,5.71875 l 1,0 0.4375,-0.5 -1.4375,0 C 28.694948,9.98285 25.70875,7.5625 22.125,7.5625 z m -6.28125,5.71875 -2.625,3.125 0.40625,0 2.21875,-2.625 2.21875,2.625 0.40625,0 L 15.84375,13.28125 z m 9.9375,0 0.4375,0.5 0.25,0 c -0.07952,-0.1698 -0.151788,-0.342 -0.25,-0.5 L 25.78125,13.28125 z m 1.15625,2.5625 c -0.246592,2.428 -2.319283,4.3125 -4.8125,4.3125 -1.918998,0 -3.569037,-1.1264 -4.34375,-2.75 l -0.21875,0 c 0.648481,1.8931 2.449498,3.25 4.5625,3.25 2.493217,0 4.565908,-1.8845 4.8125,-4.3125 l 1.46875,1.78125 1.28125,-1.53125 c 0.05111,-0.219464 0.124245,-0.430127 0.15625,-0.65625 L 28.40625,17.625 26.9375,15.84375 Z"
         style="fill:#000000;fill-opacity:0.06113539;stroke:none"
         inkscape:connector-curvature="0" />
      <path
         id="path873"
         transform="translate(0,1004.3622)"
         d="m 22.125,8.0625 c -3.433852,0 -6.347321,2.224591 -7.375,5.3125 l 0.375,-0.4375 c 1.26129,-2.588385 3.923424,-4.375 7,-4.375 3.58375,0 6.569948,2.42035 7.46875,5.71875 l 0.59375,0 0.40625,-0.5 -1,0 C 28.694948,10.48285 25.70875,8.0625 22.125,8.0625 z m -6.28125,5.71875 -2.1875,2.625 0.40625,0 1.78125,-2.125 1.78125,2.125 0.4375,0 L 15.84375,13.78125 Z M 14.625,14.25 14.5,14.375 c -0.0242,0.126367 -0.04447,0.246545 -0.0625,0.375 l 0.09375,-0.125 C 14.558922,14.500417 14.591416,14.372209 14.625,14.25 z m 12.3125,2.09375 c -0.246592,2.428 -2.319283,4.3125 -4.8125,4.3125 -1.918998,0 -3.569037,-1.1264 -4.34375,-2.75 l -0.21875,0 c 0.648481,1.8931 2.449498,3.25 4.5625,3.25 2.493217,0 4.565908,-1.8845 4.8125,-4.3125 L 28.40625,18.625 29.5,17.34375 c 0.08244,-0.242087 0.160268,-0.497903 0.21875,-0.75 L 28.40625,18.125 26.9375,16.34375 Z"
         style="fill:#000000;fill-opacity:0.03493449;stroke:none"
         inkscape:connector-curvature="0" />
      <path
         inkscape:connector-curvature="0"
         id="path881"
         d="m 22.125,1014.4716 c -2.348877,0 -4.267372,1.7106 -4.6875,3.9375 l -1.59375,-1.875 -1.34375,1.5937 c -0.0172,0.096 -0.04885,0.184 -0.0625,0.2813 l 1.40625,-1.6563 1.59375,1.875 c 0.420128,-2.2269 2.338623,-3.9375 4.6875,-3.9375 1.831173,0 3.412153,1.0239 4.21875,2.5313 l 0.125,0 C 25.70503,1015.5907 24.046299,1014.4716 22.125,1014.4716 z m 3.25,2.9687 1.53125,1.8438 1.5,1.7812 1.5,-1.7812 1.53125,-1.8438 -0.1875,0 -1.34375,1.625 -1.5,1.7813 -1.5,-1.7813 -1.34375,-1.625 L 25.375,1017.4403 z m 4.53125,2.5625 -0.03125,0.031 c -0.380122,3.942 -3.708504,7.0312 -7.75,7.0312 -3.765225,0 -6.87522,-2.6653 -7.59375,-6.2187 l -1.53125,0 -0.1875,0.2187 1.71875,0 c 0.71853,3.5534 3.828525,6.2188 7.59375,6.2188 C 26.252485,1027.2841 29.64769,1024.0649 29.90625,1020.0028 z m -12.34375,0.8438 c 0.02597,0.076 0.06414,0.1447 0.09375,0.2187 l 1.25,0 -0.1875,-0.2187 L 17.5625,1020.8466 Z"
         style="fill:#ffffff;fill-opacity:1;stroke:none" />
      <path
         sodipodi:nodetypes="sscccssscccccccsccssccssccss"
         inkscape:connector-curvature="0"
         id="path920"
         d="m 22.392971,1018.5296 c -1.296808,0 -2.355477,1.0375 -2.355477,2.3343 l 0,7.2574 0,5.1778 c -0.248549,0.052 -0.487033,0.039 -0.721498,0 l -0.657836,-0.6578 c -0.964009,-0.964 -2.516156,-0.964 -3.480165,0 -0.964009,0.964 -0.964009,2.5161 0,3.4801 l 4.265324,4.2654 c 0.273076,0.3095 0.462458,0.6525 0.594175,1.0185 l 0.84882,1.5491 0.34375,0.7003 c 0.540658,0.9364 0.690543,1.2041 1.120466,1.634 l 0.04244,0 11.517333,0 c 0.343644,-0.071 0.695341,-0.1436 0.933703,-0.382 0.211361,-0.2113 0.339528,-0.8276 0.339528,-0.8276 l 0,-14.6209 c -0.08254,-0.2969 -0.128167,-0.6162 -0.339528,-0.8276 -0.319364,-0.3194 -0.762585,-0.5093 -1.252011,-0.5093 l -7.591537,0 -0.08488,0 -0.530513,0 c -0.364728,0 -0.657836,-0.2931 -0.657836,-0.6578 l 0,-1.3794 0,-0.4032 0,-4.817 C 24.727228,1019.5671 23.689779,1018.5296 22.392971,1018.5296 Z"
         style="fill:url(#linearGradient967);fill-opacity:1;fill-rule:evenodd;stroke:none" />
      <path
         id="path852"
         transform="translate(0,1004.3622)"
         d="m 22.40625,14.15625 c -1.296808,0 -2.375,1.04695 -2.375,2.34375 l 0,0.4375 c 0,-1.2968 1.078192,-2.34375 2.375,-2.34375 1.296808,0 2.312499,1.04695 2.3125,2.34375 l 0,-0.4375 C 24.718749,15.2032 23.703058,14.15625 22.40625,14.15625 z m 2.3125,8.9375 0,0.4375 c 0,0.3647 0.291522,0.65625 0.65625,0.65625 l 0.53125,0 0.09375,0 7.59375,0 c 0.489426,0 0.930636,0.21185 1.25,0.53125 0.211361,0.2114 0.26121,0.5156 0.34375,0.8125 l 0,-0.4375 c -0.08254,-0.2969 -0.132389,-0.6011 -0.34375,-0.8125 -0.319364,-0.3194 -0.760574,-0.53125 -1.25,-0.53125 l -7.59375,0 -0.09375,0 -0.53125,0 C 25.010272,23.75 24.71875,23.45845 24.71875,23.09375 z m -7.8125,4.46875 c -0.629039,0 -1.236745,0.23675 -1.71875,0.71875 -0.53799,0.537985 -0.781238,1.268877 -0.71875,1.96875 0.04948,-0.55421 0.292731,-1.105235 0.71875,-1.53125 0.964009,-0.964 2.504741,-0.964 3.46875,0 L 19.3125,29.375 c 0.234465,0.039 0.470201,0.052 0.71875,0 l 0,-0.4375 c -0.248549,0.052 -0.484285,0.039 -0.71875,0 L 18.65625,28.28125 C 18.174245,27.79925 17.535289,27.5625 16.90625,27.5625 Z"
         style="fill:#000000;fill-opacity:0.24017466;fill-rule:evenodd;stroke:none"
         inkscape:connector-curvature="0" />
      <path
         inkscape:connector-curvature="0"
         style="fill:#000000;fill-opacity:0.1004367;fill-rule:evenodd;stroke:none"
         d="m 22.40625,1018.956 c -1.296808,0 -2.375,1.0469 -2.375,2.3437 l 0,0.4375 c 0,-1.2968 1.078192,-2.3437 2.375,-2.3437 1.296808,0 2.312499,1.0469 2.3125,2.3437 l 0,-0.4375 C 24.718749,1020.0029 23.703058,1018.956 22.40625,1018.956 z m 2.3125,8.9375 0,0.4375 c 0,0.3647 0.291522,0.6562 0.65625,0.6562 l 0.53125,0 0.09375,0 7.59375,0 c 0.489426,0 0.930636,0.2119 1.25,0.5313 0.211361,0.2114 0.26121,0.5156 0.34375,0.8125 l 0,-0.4375 c -0.08254,-0.2969 -0.132389,-0.6011 -0.34375,-0.8125 -0.319364,-0.3194 -0.760574,-0.5313 -1.25,-0.5313 l -7.59375,0 -0.09375,0 -0.53125,0 C 25.010272,1028.5497 24.71875,1028.2582 24.71875,1027.8935 z m -7.8125,4.4687 c -0.629039,0 -1.236745,0.2368 -1.71875,0.7188 -0.53799,0.538 -0.781238,1.2689 -0.71875,1.9687 0.04948,-0.5542 0.292731,-1.1052 0.71875,-1.5312 0.964009,-0.964 2.504741,-0.964 3.46875,0 l 0.65625,0.6562 c 0.234465,0.039 0.470201,0.052 0.71875,0 l 0,-0.4375 c -0.248549,0.052 -0.484285,0.039 -0.71875,0 l -0.65625,-0.6562 C 18.174245,1032.599 17.535289,1032.3622 16.90625,1032.3622 Z"
         id="path857" />
      <path
         id="path859"
         d="m 22.40625,1019.3979 c -1.296808,0 -2.375,1.0469 -2.375,2.3437 l 0,0.4375 c 0,-1.2968 1.078192,-2.3437 2.375,-2.3437 1.296808,0 2.312499,1.0469 2.3125,2.3437 l 0,-0.4375 C 24.718749,1020.4448 23.703058,1019.3979 22.40625,1019.3979 z m 2.3125,8.9375 0,0.4375 c 0,0.3647 0.291522,0.6562 0.65625,0.6562 l 0.53125,0 0.09375,0 7.59375,0 c 0.489426,0 0.930636,0.2119 1.25,0.5313 0.211361,0.2114 0.26121,0.5156 0.34375,0.8125 l 0,-0.4375 c -0.08254,-0.2969 -0.132389,-0.6011 -0.34375,-0.8125 -0.319364,-0.3194 -0.760574,-0.5313 -1.25,-0.5313 l -7.59375,0 -0.09375,0 -0.53125,0 C 25.010272,1028.9916 24.71875,1028.7001 24.71875,1028.3354 z m -7.8125,4.4687 c -0.629039,0 -1.236745,0.2368 -1.71875,0.7188 -0.53799,0.538 -0.781238,1.2689 -0.71875,1.9687 0.04948,-0.5542 0.292731,-1.1052 0.71875,-1.5312 0.964009,-0.964 2.504741,-0.964 3.46875,0 l 0.65625,0.6562 c 0.234465,0.039 0.470201,0.052 0.71875,0 l 0,-0.4375 c -0.248549,0.052 -0.484285,0.039 -0.71875,0 l -0.65625,-0.6562 C 18.174245,1033.0409 17.535289,1032.8041 16.90625,1032.8041 Z"
         style="fill:#000000;fill-opacity:0.03930132;fill-rule:evenodd;stroke:none"
         inkscape:connector-curvature="0" />
      <path
         inkscape:connector-curvature="0"
         id="path861"
         d="m 14.511719,1034.5245 c -0.04331,0.6801 0.196756,1.353 0.71875,1.875 l 4.25,4.2812 c 0.273076,0.3095 0.462033,0.634 0.59375,1 l 0.84375,1.5625 0.34375,0.6875 c 0.540658,0.9364 0.695077,1.2264 1.125,1.6563 l 0.0625,0 11.5,0 c 0.343644,-0.071 0.699138,-0.1679 0.9375,-0.4063 0.211361,-0.2113 0.34375,-0.8125 0.34375,-0.8125 l 0,-0.3125 c 0,0 -0.132389,0.6325 -0.34375,0.8438 -0.238362,0.2384 -0.593856,0.304 -0.9375,0.375 l -11.5,0 -0.0625,0 c -0.429923,-0.4299 -0.584342,-0.7199 -1.125,-1.6563 l -0.34375,-0.6875 -0.84375,-1.5625 c -0.131717,-0.366 -0.320674,-0.6905 -0.59375,-1 l -4.25,-4.2812 C 14.788454,1035.645 14.548391,1035.1004 14.511719,1034.5245 Z"
         style="fill:#ffffff;fill-opacity:1;fill-rule:evenodd;stroke:none" />
    </g>
  </g>
</svg>
