<?xml version="1.0" encoding="UTF-8" standalone="no"?>
<!-- Created with Inkscape (http://www.inkscape.org/) -->

<svg
   xmlns:dc="http://purl.org/dc/elements/1.1/"
   xmlns:cc="http://creativecommons.org/ns#"
   xmlns:rdf="http://www.w3.org/1999/02/22-rdf-syntax-ns#"
   xmlns:svg="http://www.w3.org/2000/svg"
   xmlns="http://www.w3.org/2000/svg"
   xmlns:xlink="http://www.w3.org/1999/xlink"
   xmlns:sodipodi="http://sodipodi.sourceforge.net/DTD/sodipodi-0.dtd"
   xmlns:inkscape="http://www.inkscape.org/namespaces/inkscape"
   width="48"
   height="48"
   id="svg2"
   version="1.1"
   inkscape:version="0.48+devel r12131"
   sodipodi:docname="gnome-pdf.svg">
  <defs
     id="defs4">
    <linearGradient
       inkscape:collect="always"
       xlink:href="#linearGradient1514"
       id="linearGradient1520"
       x1="24.3125"
       y1="48.0625"
       x2="24.3125"
       y2="38.875"
       gradientUnits="userSpaceOnUse" />
    <linearGradient
       inkscape:collect="always"
       id="linearGradient1514">
      <stop
         style="stop-color:#e6e6e6;stop-opacity:1"
         offset="0"
         id="stop1516" />
      <stop
         style="stop-color:#ffffff;stop-opacity:1"
         offset="1"
         id="stop1518" />
    </linearGradient>
    <linearGradient
       inkscape:collect="always"
       xlink:href="#linearGradient1440"
       id="linearGradient1577"
       x1="13.765625"
       y1="1051.1434"
       x2="13.765625"
       y2="1042.9716"
       gradientUnits="userSpaceOnUse"
       gradientTransform="matrix(0.95833333,0,0,0.95833333,0.9999999,42.983167)" />
    <linearGradient
       id="linearGradient1440"
       inkscape:collect="always">
      <stop
         id="stop1442"
         offset="0"
         style="stop-color:#600303;stop-opacity:1" />
      <stop
         id="stop1444"
         offset="1"
         style="stop-color:#d71a1a;stop-opacity:1" />
    </linearGradient>
    <linearGradient
       inkscape:collect="always"
       xlink:href="#linearGradient1425"
       id="linearGradient1431"
       x1="24.124998"
       y1="-1052.8622"
       x2="24.124998"
       y2="-1004.6122"
       gradientUnits="userSpaceOnUse"
       gradientTransform="matrix(0.95833333,0,0,-0.95833333,0.9999999,-961.51378)" />
    <linearGradient
       inkscape:collect="always"
       id="linearGradient1425">
      <stop
         style="stop-color:#a40606;stop-opacity:1"
         offset="0"
         id="stop1427" />
      <stop
         style="stop-color:#ed2f2f;stop-opacity:1"
         offset="1"
         id="stop1429" />
    </linearGradient>
    <linearGradient
       inkscape:collect="always"
       xlink:href="#linearGradient1440"
       id="linearGradient1437"
       gradientUnits="userSpaceOnUse"
       x1="24.124998"
       y1="-1052.8622"
       x2="24.124998"
       y2="-1004.6122"
       gradientTransform="matrix(0.95833333,0,0,-0.95833333,0.9999999,-961.51378)" />
    <linearGradient
       gradientTransform="matrix(0.95833333,0,0,0.95833333,0.9999999,1)"
       y2="38.875"
       x2="24.3125"
       y1="48.0625"
       x1="24.3125"
       gradientUnits="userSpaceOnUse"
       id="linearGradient1632"
       xlink:href="#linearGradient1514"
       inkscape:collect="always" />
  </defs>
  <sodipodi:namedview
     id="base"
     pagecolor="#ffffff"
     bordercolor="#666666"
     borderopacity="1.0"
     inkscape:pageopacity="0.0"
     inkscape:pageshadow="2"
     inkscape:zoom="4.5973486"
     inkscape:cx="5.3495024"
     inkscape:cy="39.220605"
     inkscape:document-units="px"
     inkscape:current-layer="layer1"
     showgrid="false"
     inkscape:window-width="1366"
     inkscape:window-height="717"
     inkscape:window-x="0"
     inkscape:window-y="28"
     inkscape:window-maximized="1" />
  <metadata
     id="metadata7">
    <rdf:RDF>
      <cc:Work
         rdf:about="">
        <dc:format>image/svg+xml</dc:format>
        <dc:type
           rdf:resource="http://purl.org/dc/dcmitype/StillImage" />
        <dc:title />
      </cc:Work>
    </rdf:RDF>
  </metadata>
  <g
     inkscape:label="Capa 1"
     inkscape:groupmode="layer"
     id="layer1"
     transform="translate(0,-1004.3622)">
    <rect
       style="color:#000000;fill:#333333;fill-opacity:1;fill-rule:nonzero;stroke:none;stroke-width:0.2;marker:none;visibility:visible;display:inline;overflow:visible;enable-background:accumulate"
       id="rect6294"
       width="45.5"
       height="45.5"
       x="1.25"
       y="1005.6122"
       ry="6.3565426" />
    <path
       style="fill:url(#linearGradient1632);fill-opacity:1;stroke:none"
       d="M 6.4375 38.25 C 4.1125585 38.25 2.2419262 40.057542 2.09375 42.34375 C 2.8966704 44.618404 5.0374908 46.25 7.59375 46.25 L 40.40625 46.25 C 43.650775 46.25 46.25 43.650775 46.25 40.40625 L 46.25 38.25 L 6.4375 38.25 z "
       transform="translate(0,1004.3622)"
       id="rect1448" />
    <path
       style="fill:#000000;fill-opacity:0.32960893;stroke:none"
       d="M 1.75 39.71875 L 1.75 40.09375 C 2.0587943 40.32845 2.4231195 40.46875 2.84375 40.46875 L 45.15625 40.46875 C 45.576881 40.46875 45.941205 40.32845 46.25 40.09375 L 46.25 39.71875 C 45.940146 39.956074 45.579624 40.125 45.15625 40.125 L 2.84375 40.125 C 2.4203763 40.125 2.0598537 39.956074 1.75 39.71875 z M 1.78125 40.9375 C 1.793112 41.068861 1.8234256 41.183837 1.84375 41.3125 C 2.1383854 41.515446 2.4566481 41.65625 2.84375 41.65625 L 45.15625 41.65625 C 45.543353 41.65625 45.861614 41.515446 46.15625 41.3125 C 46.176574 41.183837 46.206888 41.068861 46.21875 40.9375 C 45.913596 41.163367 45.567737 41.3125 45.15625 41.3125 L 2.84375 41.3125 C 2.4322637 41.3125 2.0864035 41.163367 1.78125 40.9375 z M 2.0625 42.3125 C 2.1155325 42.465968 2.1849026 42.633942 2.25 42.78125 C 2.4382916 42.849099 2.6310858 42.875 2.84375 42.875 L 45.15625 42.875 C 45.368914 42.875 45.561708 42.849099 45.75 42.78125 C 45.815097 42.633942 45.884468 42.465968 45.9375 42.3125 C 45.696156 42.432693 45.445585 42.5 45.15625 42.5 L 2.84375 42.5 C 2.5544156 42.5 2.3038442 42.432693 2.0625 42.3125 z M 2.75 43.71875 C 2.8343475 43.842665 2.937871 43.9457 3.03125 44.0625 L 44.96875 44.0625 C 45.062129 43.9457 45.165652 43.842665 45.25 43.71875 C 45.219068 43.720376 45.187633 43.71875 45.15625 43.71875 L 2.84375 43.71875 C 2.8123673 43.71875 2.7809319 43.720376 2.75 43.71875 z M 3.875 44.90625 C 4.0195119 45.025414 4.156764 45.14496 4.3125 45.25 L 43.6875 45.25 C 43.843236 45.14496 43.980488 45.025414 44.125 44.90625 L 3.875 44.90625 z "
       transform="translate(0,1004.3622)"
       id="path1497" />
    <path
       style="fill:url(#linearGradient1577);fill-opacity:1;stroke:none"
       d="m 10.373698,1042.6024 0,7.6966 3.863281,-1.9466 3.833332,1.9166 0,-7.6666 L 10.373698,1042.6024 Z"
       id="rect1566"
       inkscape:connector-curvature="0" />
    <path
       style="fill:url(#linearGradient1431);fill-opacity:1;stroke:none"
       d="M 7.59375 1.75 C 4.3492254 1.75 1.75 4.3492254 1.75 7.59375 L 1.75 37.875 C 2.0592358 38.105266 2.4248377 38.25 2.84375 38.25 L 5.375 38.25 L 45.15625 38.25 C 45.575163 38.25 45.940764 38.105266 46.25 37.875 L 46.25 7.59375 C 46.25 4.3492254 43.650775 1.75 40.40625 1.75 L 7.59375 1.75 z M 1.75 38.90625 L 1.75 40.21875 C 1.9945627 39.854596 2.2847091 39.526533 2.625 39.25 C 2.3050732 39.210307 1.9961506 39.083195 1.75 38.90625 z "
       transform="translate(0,1004.3622)"
       id="rect2991-1" />
    <path
       style="fill:#000000;fill-opacity:0.21229051;stroke:none"
       d="m 14.236979,1048.3378 -3.863281,1.9466 0,0.1798 3.863281,-1.9467 3.833332,1.9168 0,-0.1798 L 14.236979,1048.3378 Z"
       id="path1579"
       inkscape:connector-curvature="0" />
    <path
       style="fill:url(#linearGradient1437);fill-opacity:1;stroke:none"
       d="M 7.59375 1.75 C 4.3492254 1.75 1.75 4.3492254 1.75 7.59375 L 1.75 40.40625 C 1.75 41.094515 1.877566 41.731306 2.09375 42.34375 C 2.2419262 40.057542 4.1125585 38.25 6.4375 38.25 L 10.8125 38.25 L 10.8125 1.75 L 7.59375 1.75 z "
       transform="translate(0,1004.3622)"
       id="rect1433" />
    <path
       inkscape:connector-curvature="0"
       style="fill:#000000;fill-opacity:0.12849163;stroke:none"
       d="m 10.34375,1005.3622 0,37.2552 0.479167,0 0,-37.2552 L 10.34375,1005.3622 Z"
       id="rect1469" />
    <path
       inkscape:connector-curvature="0"
       style="fill:#ffffff;fill-opacity:0.12941176;stroke:none"
       d="m 10.822917,1005.3622 0,37.2552 0.479166,0 0,-37.2552 L 10.822917,1005.3622 Z"
       id="rect1471" />
    <path
       inkscape:connector-curvature="0"
       style="fill:#000000;fill-opacity:0.39106146;stroke:none"
       d="m 47,1040.7606 c 0,1.0326 -0.82438,1.8568 -1.856771,1.8568 l -34.320312,0 -4.3723964,0 c -2.4223072,0 -4.3723958,1.9501 -4.3723958,4.3724 0,0.063 0.020432,0.1203 0.029948,0.1797 0.1284234,-2.3054 2.003853,-4.1328 4.3424479,-4.1328 l 4.3723962,0 34.320312,0 c 1.032392,0 1.856771,-0.8244 1.856771,-1.8568 L 47,1040.7606 Z"
       id="path1480" />
    <path
       id="path1493"
       d="m 47,1041.1811 c 0,1.0324 -0.82438,1.8567 -1.856771,1.8567 l -34.320312,0 -4.3723964,0 c -2.4223072,0 -4.3723958,1.9501 -4.3723958,4.3724 0,0.063 0.020432,0.1203 0.029948,0.1797 0.1284234,-2.3053 2.003853,-4.1328 4.3424479,-4.1328 l 4.3723962,0 34.320312,0 c 1.032392,0 1.856771,-0.8244 1.856771,-1.8568 L 47,1041.1811 Z"
       style="fill:#000000;fill-opacity:0.22905028;stroke:none"
       inkscape:connector-curvature="0" />
    <path
       inkscape:connector-curvature="0"
       style="fill:#000000;fill-opacity:0.12849163;stroke:none"
       d="m 47,1041.5996 c 0,1.0324 -0.82438,1.8567 -1.856771,1.8567 l -34.320312,0 -4.3723964,0 c -2.4223072,0 -4.3723958,1.9502 -4.3723958,4.3724 0,0.063 0.020432,0.1203 0.029948,0.1797 0.1284234,-2.3052 2.003853,-4.1328 4.3424479,-4.1328 l 4.3723962,0 34.320312,0 c 1.032392,0 1.856771,-0.8243 1.856771,-1.8568 L 47,1041.5996 Z"
       id="path1495" />
    <path
       style="fill:#000000;fill-opacity:0.15642461;stroke:none"
       d="m 47,1039.8622 c 0,1.0324 -0.82438,1.8568 -1.856771,1.8568 l -34.320312,0 -4.3723964,0 c -2.4223072,0 -4.3723958,1.9501 -4.3723958,4.3724 0,0.157 0.043892,0.2965 0.059896,0.4492 0.2307218,-2.2021 2.0472867,-3.9232 4.3125,-3.9232 l 4.372397,0 34.320311,0 C 46.17562,1042.6174 47,1041.7932 47,1040.7606 Z"
       id="path1522"
       inkscape:connector-curvature="0"
       sodipodi:nodetypes="cscsscscssc" />
    <g
       transform="matrix(0.90192627,0,0,0.81173362,8.74203,1005.2533)"
       style="font-size:40px;font-style:normal;font-variant:normal;font-weight:normal;font-stretch:normal;line-height:125%;letter-spacing:0px;word-spacing:0px;fill:#000000;fill-opacity:0.39215686;stroke:none;font-family:Segoe Script;-inkscape-font-specification:Segoe Script"
       id="text848-4">
      <path
         d="m 33.227802,21.037403 q 0,0.292969 -0.429687,1.035156 -1.015625,1.464844 -2.285156,2.929688 -1.25,1.464844 -2.675782,2.792969 -1.40625,1.308593 -2.949218,2.460937 -1.523438,1.132813 -3.085938,1.972656 -1.5625,0.820313 -3.125,1.269532 -1.542969,0.449218 -2.988281,0.429687 -3.125,0 -4.863281,-1.816406 -1.7187505,-1.816406 -1.7187505,-5.488281 0,-3.066407 0.9375005,-5.957032 0.957031,-2.890625 3.242187,-5.566406 0.429688,-0.46875 0.957031,-0.898437 0.546875,-0.429688 1.132813,-0.761719 0.605469,-0.332031 1.230469,-0.527344 0.644531,-0.195312 1.289062,-0.234375 0.15625,0 0.429688,0.03906 0.273437,0.03906 0.585937,0.136718 0.3125,0.09766 0.605469,0.253907 0.292969,0.136718 0.46875,0.351562 0.546875,0.625 0.859375,1.289063 0.332031,0.664062 0.371094,1.464843 0.03906,0.898438 -0.214844,1.777344 -0.234375,0.859375 -0.820313,1.777344 -0.566406,0.898437 -1.503906,1.875 -0.9375,0.957031 -2.265625,2.070312 -0.839844,0.703125 -1.875,1.5625 -1.015625,0.839844 -2.460937,1.777344 0,1.894531 1.132812,2.890625 1.152344,0.976563 3.144531,0.976563 1.113282,0 2.246094,-0.292969 1.132813,-0.292969 2.226563,-0.761719 1.09375,-0.488281 2.109375,-1.09375 1.035156,-0.625 1.933593,-1.269531 1.660157,-1.210938 3.007813,-2.402344 1.347656,-1.210937 2.675781,-2.539062 L 31.606709,21.50615 Q 32.56374,20.666306 32.993427,20.666306 33.227802,20.666306 33.227802,21.0374 Z M 18.305927,17.150684 q -0.01953,-0.292968 -0.09766,-0.566406 -0.05859,-0.292969 -0.195312,-0.507812 -0.136719,-0.214844 -0.3125,-0.332032 -0.175782,-0.136718 -0.410157,-0.136718 -1.035156,0.05859 -2.070312,1.269531 -1.035156,1.191406 -1.953125,3.164062 -0.214844,0.429688 -0.390625,0.976563 -0.15625,0.527344 -0.3125,1.09375 -0.136719,0.546875 -0.253906,1.09375 -0.09766,0.546875 -0.175782,0.976562 1.015625,-0.761718 1.875,-1.40625 0.859375,-0.644531 1.601563,-1.328125 0.46875,-0.429687 0.957031,-0.917968 0.488281,-0.507813 0.878906,-1.054688 0.410157,-0.546875 0.644532,-1.132812 Q 18.325455,17.756153 18.305923,17.150684 Z"
         id="path853-3"
         inkscape:connector-curvature="0"
         style="fill:#000000;fill-opacity:0.39215686" />
    </g>
    <path
       style="font-size:40px;font-style:normal;font-variant:normal;font-weight:normal;font-stretch:normal;line-height:125%;letter-spacing:0px;word-spacing:0px;fill:#ffffff;fill-opacity:0.21787708;stroke:none;font-family:Segoe Script;-inkscape-font-specification:Segoe Script"
       d="m 24.329427,1017.9254 c -0.622423,0.034 -1.234348,0.3631 -1.856771,1.0182 -0.622423,0.6447 -1.214967,1.5079 -1.766927,2.5755 -0.129182,0.2325 -0.253681,0.4827 -0.359375,0.7787 -0.09396,0.2854 -0.175581,0.5919 -0.269531,0.8984 -0.08221,0.2959 -0.169121,0.6024 -0.239583,0.8982 -0.05872,0.2962 -0.102768,0.5464 -0.14974,0.7789 0.02507,-0.017 0.03499,-0.043 0.05989,-0.058 0.02742,-0.1372 0.05924,-0.2651 0.08985,-0.4193 0.07046,-0.296 0.157376,-0.5726 0.239583,-0.8686 0.09395,-0.3063 0.17558,-0.6131 0.269531,-0.8985 0.10569,-0.2958 0.230193,-0.5459 0.359375,-0.7785 0.55196,-1.0675 1.144504,-1.9309 1.766927,-2.5756 0.622423,-0.6552 1.234348,-1.0163 1.856771,-1.0482 0.140926,0 0.283628,0.046 0.389323,0.1198 0.105702,0.063 0.187325,0.1533 0.269531,0.2696 0.08221,0.1162 0.144459,0.2608 0.179688,0.4193 0.04096,0.129 0.07567,0.2523 0.08984,0.3892 0.0065,-0.081 0.003,-0.158 0,-0.2395 -0.01174,-0.1586 -0.04287,-0.3312 -0.08984,-0.4791 -0.03523,-0.1584 -0.09748,-0.273 -0.179688,-0.3895 -0.08222,-0.1161 -0.163836,-0.2059 -0.269531,-0.2695 C 24.613055,1017.9711 24.470353,1017.9254 24.329427,1017.9254 z m 3.503906,1.1979 c -0.03232,0.2404 -0.07341,0.4809 -0.149739,0.7187 -0.140926,0.4651 -0.396383,0.9707 -0.748698,1.4674 -0.340572,0.4863 -0.783952,0.969 -1.347656,1.4974 -0.563704,0.5179 -1.237879,1.0747 -2.036459,1.6771 -0.504985,0.3806 -1.084608,0.8226 -1.707031,1.2878 -0.610679,0.4545 -1.347102,0.9302 -2.216146,1.4375 0,0.1072 0.02254,0.1978 0.02995,0.2995 0.852631,-0.4992 1.584439,-0.9898 2.186198,-1.4375 0.622423,-0.4651 1.202046,-0.8774 1.707031,-1.2578 0.79858,-0.6025 1.472754,-1.1592 2.036459,-1.6771 0.563706,-0.5285 1.007084,-1.0411 1.347656,-1.5274 0.352316,-0.4967 0.607772,-0.9723 0.7487,-1.4375 C 27.794853,1019.8249 27.815629,1019.4755 27.833333,1019.1233 z m 10.841146,3.3542 c -0.04478,0.1653 -0.158646,0.3767 -0.359375,0.6887 -0.610679,0.7925 -1.303057,1.5732 -2.066406,2.3657 -0.751606,0.7929 -1.538533,1.5575 -2.395833,2.2763 -0.845556,0.7081 -1.737601,1.3829 -2.665365,2.0066 -0.916019,0.6129 -1.845649,1.1326 -2.785156,1.5871 -0.939507,0.4439 -1.875597,0.8051 -2.815104,1.0482 -0.927764,0.2431 -1.82627,0.34 -2.695313,0.3294 -1.879013,0 -3.327194,-0.4845 -4.372396,-1.4674 -0.904275,-0.8602 -1.414309,-2.1147 -1.527345,-3.7435 0.06533,1.7888 0.563964,3.1566 1.527345,4.0729 1.045202,0.9829 2.493383,1.4674 4.372396,1.4674 0.869043,0.013 1.767549,-0.1162 2.695313,-0.3593 0.939507,-0.2431 1.875597,-0.5744 2.815104,-1.0183 0.939507,-0.4544 1.869137,-1.0041 2.785156,-1.6172 0.927764,-0.6236 1.819809,-1.2683 2.665365,-1.9765 0.8573,-0.7188 1.644227,-1.4833 2.395833,-2.2761 0.763349,-0.7927 1.455727,-1.5731 2.066406,-2.3658 0.258364,-0.4018 0.389323,-0.6801 0.389323,-0.8388 C 38.704427,1022.5833 38.693527,1022.5241 38.674479,1022.4775 Z"
       id="path1543"
       inkscape:connector-curvature="0" />
    <path
       inkscape:connector-curvature="0"
       style="font-size:40px;font-style:normal;font-variant:normal;font-weight:normal;font-stretch:normal;line-height:125%;letter-spacing:0px;word-spacing:0px;fill:#000000;fill-opacity:0.32960893;stroke:none;font-family:Segoe Script;-inkscape-font-specification:Segoe Script"
       d="m 24.86849,1015.5445 c -0.387547,0.021 -0.750475,0.074 -1.138021,0.1797 -0.375803,0.1052 -0.744014,0.2696 -1.108073,0.449 -0.352315,0.1799 -0.71935,0.3666 -1.048177,0.5992 -0.317083,0.2325 -0.580178,0.495 -0.838542,0.7486 -1.374031,1.4481 -2.359448,2.9578 -2.934896,4.5222 -0.443352,1.2301 -0.683989,2.4842 -0.778646,3.7735 0.1057,-1.2268 0.355869,-2.4206 0.778646,-3.5938 0.575448,-1.5643 1.560865,-3.0741 2.934896,-4.5222 0.258364,-0.2536 0.521459,-0.4861 0.838542,-0.7187 0.328827,-0.2325 0.695862,-0.4492 1.048177,-0.6289 0.364059,-0.1799 0.73227,-0.3135 1.108073,-0.4192 0.387546,-0.105 0.750474,-0.1885 1.138021,-0.2097 0.09394,0 0.224908,0.011 0.389324,0.03 0.164411,0.021 0.35116,0.067 0.539061,0.1197 0.187901,0.053 0.362907,0.1251 0.539064,0.2097 0.176157,0.074 0.313575,0.1831 0.419269,0.2993 0.328829,0.3382 0.590745,0.659 0.778646,1.0184 0.194988,0.3509 0.302473,0.7463 0.329427,1.168 -5.37e-4,-0.051 0.0024,-0.099 0,-0.1499 -0.02349,-0.4334 -0.129782,-0.8385 -0.329427,-1.1978 -0.187901,-0.3594 -0.449817,-0.71 -0.778646,-1.0482 -0.105692,-0.1164 -0.243112,-0.1956 -0.419269,-0.2696 -0.176157,-0.084 -0.351163,-0.1565 -0.539064,-0.2095 -0.187901,-0.053 -0.37465,-0.099 -0.539061,-0.1199 C 25.093398,1015.5533 24.96244,1015.5445 24.86849,1015.5445 z m 0.359375,4.1328 c -0.0323,0.1612 -0.109228,0.3207 -0.179688,0.4792 -0.140926,0.3171 -0.32239,0.6024 -0.56901,0.8984 -0.234877,0.2959 -0.514998,0.5937 -0.808594,0.8683 -0.293596,0.2645 -0.556689,0.5164 -0.838542,0.7489 -0.446266,0.37 -0.950719,0.7294 -1.467448,1.0781 -0.506123,0.3417 -1.050878,0.7056 -1.647135,1.1081 -0.01337,0.066 -0.01741,0.1476 -0.02995,0.2096 0.61068,-0.4123 1.160355,-0.7895 1.677082,-1.138 0.51673,-0.3487 1.021183,-0.7081 1.467448,-1.0781 0.281854,-0.2325 0.544947,-0.4847 0.838543,-0.7487 0.293596,-0.2748 0.573717,-0.5426 0.808594,-0.8385 0.24662,-0.296 0.428084,-0.6113 0.56901,-0.9284 C 25.14496,1020.1184 25.203088,1019.9 25.227865,1019.6773 z m 13.266927,2.3659 c -0.258364,0 -0.682365,0.2043 -1.257813,0.6589 l -0.928385,0.8684 c -0.79858,0.7188 -1.615458,1.4112 -2.42578,2.0665 -0.810326,0.6447 -1.727036,1.291 -2.725262,1.9465 -0.540215,0.3489 -1.114556,0.6801 -1.736979,1.0183 -0.61068,0.3276 -1.229063,0.6342 -1.886719,0.8984 -0.657655,0.2537 -1.325368,0.4704 -2.00651,0.629 -0.681142,0.1585 -1.36706,0.2096 -2.036459,0.2096 -1.197869,0 -2.152165,-0.2503 -2.845052,-0.7787 -0.510858,-0.4043 -0.830619,-0.9394 -0.958333,-1.6172 0.10395,0.7584 0.4052,1.3591 0.958333,1.7969 0.692887,0.5284 1.647183,0.8087 2.845052,0.8087 0.669399,0 1.355317,-0.082 2.036459,-0.2396 0.681142,-0.1586 1.348855,-0.3753 2.00651,-0.629 0.657656,-0.2642 1.276039,-0.5409 1.886719,-0.8684 0.622423,-0.3383 1.196764,-0.6994 1.736979,-1.0483 0.998226,-0.6553 1.914936,-1.3021 2.725262,-1.9465 0.810322,-0.6553 1.6272,-1.3477 2.42578,-2.0665 l 0.928385,-0.8385 c 0.575448,-0.4546 0.999449,-0.6888 1.257813,-0.6888 0.113984,0 0.157896,0.079 0.179687,0.2096 0.005,-0.027 0.02995,-0.068 0.02995,-0.09 C 38.704427,1022.1417 38.635718,1022.0432 38.494792,1022.0432 Z"
       id="path1554" />
    <path
       id="path6361"
       d="m 1.7500036,1012.5497 0,-0.5625 c 0,-3.2445 2.5991999,-5.875 5.8438,-5.875 l 32.8125004,0 c 3.2445,0 5.8437,2.6305 5.8437,5.875 l 0,0.5625 c 0,-3.2445 -2.5992,-5.875 -5.8437,-5.875 l -32.8125004,0 C 4.3492035,1006.6747 1.7500036,1009.3052 1.7500036,1012.5497 Z"
       style="color:#000000;fill:#ffffff;fill-opacity:1;fill-rule:nonzero;stroke:none;stroke-width:0.2;marker:none;visibility:visible;display:inline;overflow:visible;enable-background:accumulate"
       inkscape:connector-curvature="0" />
    <path
       inkscape:connector-curvature="0"
       style="color:#000000;fill:#000000;fill-opacity:1;fill-rule:nonzero;stroke:none;stroke-width:0.2;marker:none;visibility:visible;display:inline;overflow:visible;enable-background:accumulate"
       d="m 1.7500036,1044.1747 0,0.5625 c 0,3.2445 2.5991999,5.875 5.8438,5.875 l 32.8125004,0 c 3.2445,0 5.8437,-2.6305 5.8437,-5.875 l 0,-0.5625 c 0,3.2445 -2.5992,5.875 -5.8437,5.875 l -32.8125004,0 C 4.3492035,1050.0497 1.7500036,1047.4192 1.7500036,1044.1747 Z"
       id="path6388" />
  </g>
</svg>
