<?xml version="1.0" encoding="UTF-8" standalone="no"?>
<!-- Created with Inkscape (http://www.inkscape.org/) -->

<svg
   xmlns:dc="http://purl.org/dc/elements/1.1/"
   xmlns:cc="http://creativecommons.org/ns#"
   xmlns:rdf="http://www.w3.org/1999/02/22-rdf-syntax-ns#"
   xmlns:svg="http://www.w3.org/2000/svg"
   xmlns="http://www.w3.org/2000/svg"
   xmlns:xlink="http://www.w3.org/1999/xlink"
   xmlns:sodipodi="http://sodipodi.sourceforge.net/DTD/sodipodi-0.dtd"
   xmlns:inkscape="http://www.inkscape.org/namespaces/inkscape"
   width="48"
   height="48"
   id="svg2"
   version="1.1"
   inkscape:version="0.48+devel r12130"
   sodipodi:docname="gnome-contacts.svg">
  <defs
     id="defs4">
    <linearGradient
       id="linearGradient839-9">
      <stop
         style="stop-color:#96570c;stop-opacity:1"
         offset="0"
         id="stop841-9" />
      <stop
         style="stop-color:#e2cd8c;stop-opacity:1"
         offset="1"
         id="stop843-9" />
    </linearGradient>
    <linearGradient
       y2="-515.24841"
       x2="428.508"
       y1="-515.24841"
       x1="376.633"
       gradientTransform="matrix(0,-1,-1,0,-506.72014,428.758)"
       gradientUnits="userSpaceOnUse"
       id="linearGradient2927"
       xlink:href="#linearGradient2950"
       inkscape:collect="always" />
    <linearGradient
       id="linearGradient2950"
       inkscape:collect="always">
      <stop
         id="stop2952"
         offset="0"
         style="stop-color:#280a00;stop-opacity:1" />
      <stop
         style="stop-color:#422514;stop-opacity:1"
         offset="0.20973869"
         id="stop2954" />
      <stop
         id="stop2956"
         offset="0.54495704"
         style="stop-color:#442816;stop-opacity:1" />
      <stop
         id="stop2958"
         offset="1"
         style="stop-color:#764d33;stop-opacity:1" />
    </linearGradient>
    <linearGradient
       inkscape:collect="always"
       xlink:href="#linearGradient894"
       id="linearGradient900"
       x1="23.688076"
       y1="39.691494"
       x2="23.688076"
       y2="8.9323511"
       gradientUnits="userSpaceOnUse"
       gradientTransform="translate(156.32483,456.93362)" />
    <linearGradient
       inkscape:collect="always"
       id="linearGradient894">
      <stop
         style="stop-color:#291806;stop-opacity:1"
         offset="0"
         id="stop896" />
      <stop
         style="stop-color:#674b2d;stop-opacity:1"
         offset="1"
         id="stop898" />
    </linearGradient>
    <linearGradient
       inkscape:collect="always"
       xlink:href="#linearGradient2976"
       id="linearGradient2982"
       x1="0"
       y1="32.171875"
       x2="48"
       y2="32.171875"
       gradientUnits="userSpaceOnUse"
       gradientTransform="translate(0,1004.1888)" />
    <linearGradient
       inkscape:collect="always"
       id="linearGradient2976">
      <stop
         style="stop-color:#764d33;stop-opacity:1;"
         offset="0"
         id="stop2978" />
      <stop
         style="stop-color:#764d33;stop-opacity:0;"
         offset="1"
         id="stop2980" />
    </linearGradient>
    <linearGradient
       inkscape:collect="always"
       xlink:href="#linearGradient2984"
       id="linearGradient2974"
       x1="0"
       y1="32.171875"
       x2="48"
       y2="32.171875"
       gradientUnits="userSpaceOnUse"
       gradientTransform="translate(0,-0.1734)" />
    <linearGradient
       inkscape:collect="always"
       id="linearGradient2984">
      <stop
         style="stop-color:#570100;stop-opacity:1"
         offset="0"
         id="stop2986" />
      <stop
         id="stop2988"
         offset="0.10899141"
         style="stop-color:#c01412;stop-opacity:1" />
      <stop
         style="stop-color:#cb1613;stop-opacity:1"
         offset="0.55449569"
         id="stop2990" />
      <stop
         style="stop-color:#c81715;stop-opacity:1"
         offset="1"
         id="stop2992" />
    </linearGradient>
    <radialGradient
       gradientTransform="matrix(1,0,0,-1,-153.14284,-456.93356)"
       inkscape:collect="always"
       xlink:href="#linearGradient882"
       id="radialGradient888"
       cx="178.67857"
       cy="-457.70218"
       fx="178.67857"
       fy="-457.70218"
       r="24"
       gradientUnits="userSpaceOnUse" />
    <linearGradient
       inkscape:collect="always"
       id="linearGradient882">
      <stop
         style="stop-color:#ffffff;stop-opacity:1;"
         offset="0"
         id="stop884" />
      <stop
         style="stop-color:#ffffff;stop-opacity:0;"
         offset="1"
         id="stop886" />
    </linearGradient>
    <linearGradient
       y2="-515.24841"
       x2="428.508"
       y1="-515.24841"
       x1="376.633"
       gradientTransform="matrix(0,-1,-1,0,-506.72014,428.758)"
       gradientUnits="userSpaceOnUse"
       id="linearGradient3123"
       xlink:href="#linearGradient2950"
       inkscape:collect="always" />
    <linearGradient
       inkscape:collect="always"
       xlink:href="#linearGradient839-9"
       id="linearGradient1039"
       x1="24.5"
       y1="1050.1122"
       x2="24.5"
       y2="1006.1122"
       gradientUnits="userSpaceOnUse" />
  </defs>
  <sodipodi:namedview
     id="base"
     pagecolor="#ffffff"
     bordercolor="#666666"
     borderopacity="1.0"
     inkscape:pageopacity="0.0"
     inkscape:pageshadow="2"
     inkscape:zoom="2.8284273"
     inkscape:cx="-54.170502"
     inkscape:cy="17.947665"
     inkscape:document-units="px"
     inkscape:current-layer="layer1"
     showgrid="false"
     inkscape:window-width="1366"
     inkscape:window-height="717"
     inkscape:window-x="0"
     inkscape:window-y="28"
     inkscape:window-maximized="1">
    <inkscape:grid
       type="xygrid"
       id="grid3850" />
  </sodipodi:namedview>
  <metadata
     id="metadata7">
    <rdf:RDF>
      <cc:Work
         rdf:about="">
        <dc:format>image/svg+xml</dc:format>
        <dc:type
           rdf:resource="http://purl.org/dc/dcmitype/StillImage" />
        <dc:title />
      </cc:Work>
    </rdf:RDF>
  </metadata>
  <g
     inkscape:label="Capa 1"
     inkscape:groupmode="layer"
     id="layer1"
     transform="translate(0,-1004.3622)">
    <rect
       style="color:#000000;fill:#333333;fill-opacity:1;fill-rule:nonzero;stroke:none;stroke-width:0.2;marker:none;visibility:visible;display:inline;overflow:visible;enable-background:accumulate"
       id="rect6294"
       width="45.5"
       height="45.5"
       x="1.25"
       y="1005.6122"
       ry="6.3565426" />
    <rect
       ry="5.8565426"
       y="1006.1122"
       x="1.75"
       height="44.5"
       width="44.5"
       id="rect6296"
       style="color:#000000;fill:url(#linearGradient1039);fill-opacity:1;fill-rule:nonzero;stroke:none;stroke-width:0.2;marker:none;visibility:visible;display:inline;overflow:visible;enable-background:accumulate" />
    <path
       id="path6361"
       d="m 1.750004,1012.5497 0,-0.5625 c 0,-3.2445 2.5992,-5.875 5.8438,-5.875 l 32.812501,0 c 3.2445,0 5.8437,2.6305 5.8437,5.875 l 0,0.5625 c 0,-3.2445 -2.5992,-5.875 -5.8437,-5.875 l -32.812501,0 C 4.349204,1006.6747 1.750004,1009.3052 1.750004,1012.5497 Z"
       style="color:#000000;fill:#ffffff;fill-opacity:1;fill-rule:nonzero;stroke:none;stroke-width:0.2;marker:none;visibility:visible;display:inline;overflow:visible;enable-background:accumulate"
       inkscape:connector-curvature="0" />
    <path
       inkscape:connector-curvature="0"
       style="color:#000000;fill:#000000;fill-opacity:1;fill-rule:nonzero;stroke:none;stroke-width:0.2;marker:none;visibility:visible;display:inline;overflow:visible;enable-background:accumulate"
       d="m 1.750004,1044.1747 0,0.5625 c 0,3.2445 2.5992,5.875 5.8438,5.875 l 32.812501,0 c 3.2445,0 5.8437,-2.6305 5.8437,-5.875 l 0,-0.5625 c 0,3.2445 -2.5992,5.875 -5.8437,5.875 l -32.812501,0 C 4.349204,1050.0497 1.750004,1047.4192 1.750004,1044.1747 Z"
       id="path6388" />
    <path
       style="fill:url(#linearGradient3123);fill-opacity:1;stroke:none"
       d="M 7.59375 1.75 C 4.3492254 1.75 1.75 4.3492254 1.75 7.59375 L 1.75 40.40625 C 1.75 43.650775 4.3492254 46.25 7.59375 46.25 L 8.75 46.25 L 8.75 1.75 L 7.59375 1.75 z "
       transform="translate(0,1004.3622)"
       id="rect5459" />
    <g
       id="g1284">
      <path
         inkscape:connector-curvature="0"
         id="path5601-8"
         d="m 1.75,1022.7708 c 0.01,0.025 0.02225,0.036 0.03125,0.062 l 4.28125,0 c 0.58022,-1.481 1.87429,-0.08 2.6875,-0.625 l 0,-0.5625 -7,0 L 1.75,1022.7708 Z"
         style="opacity:0.26259604;fill:#bf652b;fill-opacity:1;fill-rule:nonzero;stroke:none" />
      <path
         inkscape:connector-curvature="0"
         id="path5667-3"
         d="m 6.0625,1022.8333 2.6875,0 0,-0.625 C 7.93511,1022.7674 6.644494,1021.348 6.0625,1022.8333 Z"
         style="opacity:0.26259604;fill:#c9813f;fill-opacity:1;fill-rule:nonzero;stroke:none" />
      <g
         id="g1249">
        <path
           style="opacity:0.26259604;fill:#d79f5d;fill-opacity:1;fill-rule:nonzero;stroke:none"
           d="m 5.3125,1006.581 c -0.5398538,0.2275 -1.0265613,0.5358 -1.46875,0.9062 1.6198961,0.01 3.2710705,-0.071 4.90625,-0.125 l 0,-0.6875 c -1.1359167,0 -2.2673594,-0.01 -3.40625,-0.094 C 5.3352708,1006.5845 5.3209588,1006.5774 5.3125,1006.581 Z"
           id="path5501-9"
           inkscape:connector-curvature="0" />
        <path
           style="opacity:0.26259604;fill:#e7c494;fill-opacity:1;fill-rule:nonzero;stroke:none"
           d="m 7.59375,1006.1122 c -0.8013454,0 -1.5556456,0.1799 -2.25,0.4688 1.1388906,0.086 2.2703333,0.097 3.40625,0.094 l 0,-0.5625 L 7.59375,1006.1122 Z"
           id="path5519-9"
           inkscape:connector-curvature="0" />
        <path
           style="opacity:0.26259604;fill:#e7c494;fill-opacity:1;fill-rule:nonzero;stroke:none"
           d="m 8.75,1007.3622 c -1.6351795,0.054 -3.2863539,0.1308 -4.90625,0.125 -0.8820678,0.7388 -1.5498024,1.7364 -1.875,2.875 l 6,0 c 0.2466,1.6153 -1.67255,-0.4746 -1.90625,1.1875 l 2.6875,0 L 8.75,1007.3622 z m -7,4.7813 0,0.7812 c 0.71,-0.2001 1.42215,-0.4265 2.09375,-0.7812 L 1.75,1012.1435 Z"
           id="path5525-3"
           inkscape:connector-curvature="0" />
        <path
           style="opacity:0.26259604;fill:#d79f5d;fill-opacity:1;fill-rule:nonzero;stroke:none"
           d="m 1.96875,1010.3622 c -0.1079236,0.3779 -0.1573483,0.7508 -0.1875,1.1563 1.3725139,-0.2029 2.9286316,0.3172 4.28125,0.031 0.2336,-1.6621 2.15285,0.4278 1.90625,-1.1875 L 1.96875,1010.3622 Z"
           id="path5531-9"
           inkscape:connector-curvature="0" />
        <path
           style="opacity:0.26259604;fill:#c9813f;fill-opacity:1;fill-rule:nonzero;stroke:none"
           d="m 1.75,1012.1458 2.09375,0 c 1.033,0.3953 2.4593,-0.7878 3.25,0.5938 l 1.65625,0 0,-1.1875 -2.6875,0 C 4.7,1011.84 3.1298,1011.3058 1.75,1011.5211 L 1.75,1012.1458 Z"
           id="path5539-2"
           inkscape:connector-curvature="0" />
        <path
           d="m 4.7306,1013.3183 c 0.5441,0 1.084,0 1.6239,0 l 0,-0.5908 c -0.4931,0.3783 -1.3688,-0.7695 -1.6239,0.5908"
           style="opacity:0.26259604;fill:#c9813f;fill-opacity:1;fill-rule:nonzero;stroke:none"
           id="path5543-4"
           inkscape:connector-curvature="0" />
        <path
           inkscape:connector-curvature="0"
           id="path5551-8"
           d="m 1.753,1014.5144 1.9375,0 c -0.5009,-0.454 -1.2028,-0.6827 -1.9375,-0.7188 L 1.753,1014.5144 Z"
           style="opacity:0.26259604;fill:#c9813f;fill-opacity:1;fill-rule:nonzero;stroke:none" />
        <path
           style="opacity:0.26259604;fill:#e7c494;fill-opacity:1;fill-rule:nonzero;stroke:none"
           d="m 1.75,1021.177 c 2.264935,-0.3186 4.719326,-0.3458 7,-0.062 l 0,-2.0313 c -2.267668,0.2675 -4.634948,0.3046 -7,0.2812 L 1.75,1021.177 Z"
           id="path5561-4"
           inkscape:connector-curvature="0" />
        <path
           style="opacity:0.26259604;fill:#c9813f;fill-opacity:1;fill-rule:nonzero;stroke:none"
           d="m 5.90625,1018.0833 c 0.783852,0.8464 1.817775,0.7205 2.84375,0.5938 l 0,-0.5938 L 5.90625,1018.0833 Z"
           id="path5573-6"
           inkscape:connector-curvature="0" />
        <path
           inkscape:connector-curvature="0"
           id="path5589-7"
           d="m 1.753,1018.7956 c 0.8746,0.1047 1.8219,-0.1369 2.4062,-0.7187 l -2.4062,0 L 1.753,1018.7956 Z"
           style="opacity:0.26259604;fill:#c9813f;fill-opacity:1;fill-rule:nonzero;stroke:none" />
        <path
           style="opacity:0.26259604;fill:#d79f5d;fill-opacity:1;fill-rule:nonzero;stroke:none"
           d="m 1.75,1021.6458 7,0 0,-0.5312 c -2.280674,-0.2834 -4.735065,-0.2562 -7,0.062 L 1.75,1021.6458 Z"
           id="path5597-2"
           inkscape:connector-curvature="0" />
        <path
           style="opacity:0.26259604;fill:#e7c494;fill-opacity:1;fill-rule:nonzero;stroke:none"
           d="m 1.75,1026.3958 c 0.013,9e-4 0.01725,0 0.03125,0 2.271524,-0.01 4.602754,-0.1879 6.96875,-0.4375 l 0,-3.0312 c -1.470624,1.257 -3.62123,0.029 -4.46875,0.4999 -1.101,0.6164 2.57335,0.2736 2.96875,1.1876 -1.8598,0 -3.6972,-0.172 -5.5,-0.4063 L 1.75,1026.3958 Z"
           id="path5603-4"
           inkscape:connector-curvature="0" />
        <path
           inkscape:connector-curvature="0"
           id="path5607-2"
           d="m 1.753,1024.2019 c 1.8028,0.2344 3.6402,0.403 5.5,0.4062 -0.3954,-0.9139 -4.0698,-0.5711 -2.9688,-1.1875 0.8714,-0.4846 3.1229,0.8473 4.5938,-0.5937 l -2.8125,0 -4.2813,0 -0.031,0 L 1.753,1024.2019 Z"
           style="opacity:0.26259604;fill:#d79f5d;fill-opacity:1;fill-rule:nonzero;stroke:none" />
        <path
           style="opacity:0.26259604;fill:#d79f5d;fill-opacity:1;fill-rule:nonzero;stroke:none"
           d="m 1.75,1019.3645 c 2.365052,0.023 4.732332,-0.014 7,-0.2812 l 0,-0.4062 c -1.024812,0.1258 -2.059898,0.2526 -2.84375,-0.5938 l -1.75,0 c -0.5843,0.5818 -1.53165,0.8234 -2.40625,0.7187 L 1.75,1019.3645 Z"
           id="path5631-1"
           inkscape:connector-curvature="0" />
        <path
           style="opacity:0.26259604;fill:#d79f5d;fill-opacity:1;fill-rule:nonzero;stroke:none"
           d="m 1.75,1030.7083 c 2.322159,0.062 4.665955,0.047 7,-0.031 l 0,-1.25 c -0.443723,0.1914 -1.076449,-0.3307 -1.5,-0.062 0.140441,-1.7137 0.943848,-1.4421 1.5,-1 l 0,-2.4063 c -2.365996,0.2496 -4.697226,0.4301 -6.96875,0.4375 -0.014,0 -0.01925,9e-4 -0.03125,0 l 0,2.9687 0.625,0 c -0.199,0.1807 -0.4069,0.3036 -0.625,0.4063 L 1.75,1030.7083 Z"
           id="path5643-0"
           inkscape:connector-curvature="0" />
        <path
           style="opacity:0.26259604;fill:#bf652b;fill-opacity:1;fill-rule:nonzero;stroke:none"
           d="m 6.34375,1013.3333 c 0.731916,0.2373 1.615109,-0.083 2.40625,-0.094 l 0,-0.5 -1.65625,0 -0.75,0 L 6.34375,1013.3333 Z"
           id="path5661-9"
           inkscape:connector-curvature="0" />
        <path
           style="opacity:0.26259604;fill:#d79f5d;fill-opacity:1;fill-rule:nonzero;stroke:none"
           d="m 1.75,1013.802 c 0.7347,0.036 1.4366,0.2649 1.9375,0.7188 1.784933,0.2766 3.413689,-0.1646 5.0625,-0.4375 l 0,-0.8437 c -0.79264,0.012 -1.674275,0.3309 -2.40625,0.094 l -1.625,0 c 0.2551,-1.3603 1.1319,-0.2154 1.625,-0.5937 l 0.75,0 c -0.7907,-1.3816 -2.217,-0.1986 -3.25,-0.5938 -0.6716,0.3547 -1.38375,0.5811 -2.09375,0.7812 L 1.75,1013.802 Z"
           id="path5663-7"
           inkscape:connector-curvature="0" />
        <path
           style="opacity:0.26259604;fill:#e7c494;fill-opacity:1;fill-rule:nonzero;stroke:none"
           d="m 1.75,1018.0833 2.40625,0 1.75,0 2.84375,0 0,-4 c -1.648811,0.2729 -3.277567,0.7141 -5.0625,0.4375 l -1.9375,0 L 1.75,1018.0833 Z"
           id="path5673-1"
           inkscape:connector-curvature="0" />
        <path
           style="opacity:0.26259604;fill:#e7c494;fill-opacity:1;fill-rule:nonzero;stroke:none"
           d="m 1.75,1033.9583 c 1.9009,-0.05 3.7947,-0.085 5.625,-0.4062 l 1.375,0 0,-2.875 c -2.334045,0.079 -4.677841,0.093 -7,0.031 L 1.75,1033.9583 Z"
           id="path5675-0"
           inkscape:connector-curvature="0" />
        <path
           inkscape:connector-curvature="0"
           id="path5687-7"
           d="m 1.753,1029.7644 c 0.2181,-0.1027 0.426,-0.2256 0.625,-0.4063 l -0.625,0 L 1.753,1029.7644 Z"
           style="opacity:0.26259604;fill:#c9813f;fill-opacity:1;fill-rule:nonzero;stroke:none" />
        <path
           style="opacity:0.26259604;fill:#d79f5d;fill-opacity:1;fill-rule:nonzero;stroke:none"
           d="m 2.96875,1038.8958 c 1.743393,-0.1858 4.071845,0.2877 5.78125,-0.1875 l 0,-0.7187 C 6.683006,1038.209 4.302237,1038.0369 2.96875,1038.8958 Z"
           id="path5727-0"
           inkscape:connector-curvature="0" />
        <path
           style="opacity:0.26259604;fill:#d79f5d;fill-opacity:1;fill-rule:nonzero;stroke:none"
           d="m 1.75,1035.052 c 2.3585,-0.2786 4.696775,-0.1875 7,-0.094 l 0,-0.7812 c -0.546329,-0.094 -1.057951,-0.2624 -1.375,-0.625 -1.8303,0.3217 -3.7241,0.3563 -5.625,0.4062 L 1.75,1035.052 Z"
           id="path5741-6"
           inkscape:connector-curvature="0" />
        <path
           style="opacity:0.26259604;fill:#e7c494;fill-opacity:1;fill-rule:nonzero;stroke:none"
           d="m 1.75,1043.177 c 2.305412,-0.3382 4.635998,-0.5842 7,-0.6875 l 0,-3.7812 c -1.709334,0.4757 -4.037784,0 -5.78125,0.1875 1.333487,-0.8589 3.714287,-0.6864 5.78125,-0.9062 l 0,-3.0313 c -2.303225,-0.094 -4.6415,-0.1849 -7,0.094 L 1.75,1043.177 Z"
           id="path5751-9"
           inkscape:connector-curvature="0" />
        <path
           id="path5765-4"
           d="m 1.753,1044.8581 c 0.4821,0.088 0.9449,0.146 1.2187,-0.031 l 2.0625,0 c 0,-0.5739 0.1663,-0.4578 0.2813,-0.5938 0.8119,-0.3271 2.7359,0.6985 2.8125,-0.5937 -2.1574,0.067 -4.2698,0.31 -6.375,0.5937 L 1.753,1044.8581 Z"
           style="opacity:0.26259604;fill:#e7c494;fill-opacity:1;fill-rule:nonzero;stroke:none"
           inkscape:connector-curvature="0" />
        <path
           id="path5769-6"
           d="m 1.753,1045.8581 c 0.4488,-0.1605 0.8737,-0.4569 1.2187,-1.0312 -0.2738,0.1772 -0.7366,0.1191 -1.2187,0.031 L 1.753,1045.8581 Z"
           style="opacity:0.26259604;fill:#d79f5d;fill-opacity:1;fill-rule:nonzero;stroke:none"
           inkscape:connector-curvature="0" />
        <path
           d="m 7.8338,1045.421 c -0.2126,-0.3231 -0.7652,0.6971 -0.7354,-0.5909 l -0.8885,0 c -0.034,2.1552 1.4283,1.3348 1.6239,0.5909"
           style="opacity:0.26259604;fill:#bf652b;fill-opacity:1;fill-rule:nonzero;stroke:none"
           id="path5771-6"
           inkscape:connector-curvature="0" />
        <path
           style="opacity:0.26259604;fill:#bf652b;fill-opacity:1;fill-rule:nonzero;stroke:none"
           d="m 7.03125,1046.4872 c -1.5685819,0.068 -3.181139,0.5842 -4.75,0.6875 0.1987471,0.4409 0.4534247,0.8445 0.75,1.2187 l 0.96875,0 c 0.3995,-1.373 1.4248,-0.2066 2.0625,-0.5937 l 0.15625,0 c 0.4974,-1.3772 1.59985,-0.2025 2.34375,-0.5938 l 0.1875,0 0,-0.5625 C 8.1836935,1046.4937 7.6130297,1046.4618 7.03125,1046.4872 Z"
           id="path5777-6"
           inkscape:connector-curvature="0" />
        <path
           d="m 8.5734,1047.2063 c -0.7439,0.3911 -1.8661,-0.7779 -2.3635,0.5994 0.7397,-0.3953 1.8704,0.7694 2.3635,-0.5994"
           style="opacity:0.26259604;fill:#c9813f;fill-opacity:1;fill-rule:nonzero;stroke:none"
           id="path5779-4"
           inkscape:connector-curvature="0" />
        <path
           style="opacity:0.26259604;fill:#d79f5d;fill-opacity:1;fill-rule:nonzero;stroke:none"
           d="m 6.0625,1047.802 c 0.245916,0.9279 1.385704,0.9705 2.6875,0.75 l 0,-1.3437 -0.1875,0 c -0.4931,1.3688 -1.60405,0.1984 -2.34375,0.5937 L 6.0625,1047.802 Z"
           id="path5781-6"
           inkscape:connector-curvature="0" />
        <path
           style="opacity:0.26259604;fill:#c9813f;fill-opacity:1;fill-rule:nonzero;stroke:none"
           d="m 8.75,1044.6122 c -0.54435,0.1105 -1.090305,0.1978 -1.65625,0.2187 -0.031,1.288 0.5375,0.271 0.75,0.5938 -0.1955,0.744 -1.659,1.5614 -1.625,-0.5938 l -1.1875,0 -2.0625,0 c -0.3195976,0.5321 -0.7127805,0.8009 -1.125,0.9688 0.085877,0.4764 0.2444376,0.9466 0.4375,1.375 2.1507443,-0.1409 4.3755802,-1.0846 6.46875,-0.5313 L 8.75,1044.6122 z m -4.09375,3.0937 c -0.2723777,0.017 -0.5064375,0.1726 -0.65625,0.6875 0.3995,0.3656 1.1552,-0.7579 1.3125,0.5938 -0.4030094,0.1679 -0.8078168,0.2976 -1.21875,0.4375 0.9779276,0.733 2.1783936,1.1875 3.5,1.1875 l 0.5,0 c 0.217154,-0.019 0.4397522,-0.047 0.65625,-0.062 l 0,-2.0313 c -1.294264,0.2162 -2.442993,0.204 -2.6875,-0.7187 C 5.6639375,1048.0415 5.1102129,1047.6783 4.65625,1047.7059 Z"
           id="path5795-7"
           inkscape:connector-curvature="0" />
        <path
           style="opacity:0.26259604;fill:#d79f5d;fill-opacity:1;fill-rule:nonzero;stroke:none"
           d="m 1.75,1044.2395 c 2.1052,-0.2836 4.2176,-0.5266 6.375,-0.5937 -0.076,1.2923 -2.0006,0.2666 -2.8125,0.5937 -0.1146,0.1361 -0.28125,0.019 -0.28125,0.5938 l 1.1875,0 0.875,0 c 0.565945,-0.021 1.1119,-0.1083 1.65625,-0.2188 l 0,-2.125 c -2.364002,0.1033 -4.694588,0.3493 -7,0.6875 L 1.75,1044.2395 Z"
           id="path5835-5"
           inkscape:connector-curvature="0" />
        <path
           style="opacity:0.26259604;fill:#d79f5d;fill-opacity:1;fill-rule:nonzero;stroke:none"
           d="m 4.9375,1048.2997 c -0.294917,-0.033 -0.6878125,0.3223 -0.9375,0.094 l -0.96875,0 c 0.3164939,0.3993 0.6534188,0.758 1.0625,1.0625 0.4122702,-0.1431 0.8138005,-0.3 1.21875,-0.4687 C 5.25355,1048.4802 5.1144502,1048.3194 4.9375,1048.2997 Z"
           id="path5839-1"
           inkscape:connector-curvature="0" />
        <path
           style="opacity:0.26259604;fill:#d79f5d;fill-opacity:1;fill-rule:nonzero;stroke:none"
           d="m 8.75,1050.5497 c -0.2164978,0.015 -0.439096,0.044 -0.65625,0.062 l 0.65625,0 L 8.75,1050.5497 Z"
           id="path5843-6"
           inkscape:connector-curvature="0" />
      </g>
    </g>
    <path
       style="opacity:0.72699998;fill:url(#linearGradient2927);fill-opacity:1;stroke:none"
       d="M 7.59375 1.75 C 4.3492254 1.75 1.75 4.3492254 1.75 7.59375 L 1.75 40.40625 C 1.75 43.650775 4.3492254 46.25 7.59375 46.25 L 8.75 46.25 L 8.75 1.75 L 7.59375 1.75 z "
       transform="translate(0,1004.3622)"
       id="path2960" />
    <g
       id="g927"
       transform="matrix(0.95135409,0,0,0.95135409,-144.01723,570.57002)">
      <path
         inkscape:connector-curvature="0"
         id="rect900-0"
         d="m 180.32483,465.43362 c -3.42096,0 -6.1875,2.76654 -6.1875,6.1875 0,3.42096 2.76654,6.1875 6.1875,6.1875 3.42096,0 6.1875,-2.76654 6.1875,-6.1875 C 186.51233,468.20016 183.74579,465.43362 180.32483,465.43362 z m -5.6875,15.21875 c -2.9381,0 -5.3125,2.37439 -5.3125,5.3125 l 0,3.53125 0,6.9375 22,0 0,-8 0,-2.46875 c 0,-2.93811 -2.37439,-5.3125 -5.3125,-5.3125 L 174.63733,480.65237 Z"
         style="color:#000000;fill:url(#linearGradient900);fill-opacity:1;fill-rule:nonzero;stroke:none;stroke-width:1.39999998;marker:none;visibility:visible;display:inline;overflow:visible;enable-background:accumulate" />
      <path
         inkscape:connector-curvature="0"
         id="path902"
         d="m 180.32483,465.43362 c -3.42096,0 -6.1875,2.76654 -6.1875,6.1875 0,0.14983 0.0208,0.29036 0.0312,0.4375 0.22784,-3.21245 2.88512,-5.75 6.15625,-5.75 3.27113,0 5.92841,2.53755 6.15625,5.75 0.0104,-0.14714 0.0312,-0.28767 0.0312,-0.4375 C 186.51233,468.20016 183.74579,465.43362 180.32483,465.43362 z m -5.6875,15.21875 c -2.9381,0 -5.3125,2.37439 -5.3125,5.3125 l 0,0.875 c 0,-2.9381 2.37439,-5.3125 5.3125,-5.3125 l 11.375,0 c 2.93811,0 5.3125,2.3744 5.3125,5.3125 l 0,-0.875 c 0,-2.93811 -2.37439,-5.3125 -5.3125,-5.3125 L 174.63733,480.65237 Z"
         style="color:#000000;fill:#000000;fill-opacity:0.23536263;fill-rule:nonzero;stroke:none;stroke-width:1.39999998;marker:none;visibility:visible;display:inline;overflow:visible;enable-background:accumulate" />
      <path
         inkscape:connector-curvature="0"
         id="path907"
         d="m 180.32483,466.30862 c -3.27113,0 -5.92841,2.53755 -6.15625,5.75 0.0111,0.15678 0.009,0.31543 0.0312,0.46875 0.4133,-3.01713 2.99334,-5.34375 6.125,-5.34375 3.13166,0 5.7117,2.32662 6.125,5.34375 0.0225,-0.15332 0.0201,-0.31197 0.0312,-0.46875 C 186.25332,468.84617 183.59596,466.30862 180.32483,466.30862 z m -5.6875,15.21875 c -2.93811,0 -5.3125,2.3744 -5.3125,5.3125 l 0,0.875 c 0,-2.9381 2.37439,-5.3125 5.3125,-5.3125 l 11.375,0 c 2.93811,0 5.3125,2.3744 5.3125,5.3125 l 0,-0.875 c 0,-2.9381 -2.37439,-5.3125 -5.3125,-5.3125 L 174.63733,481.52737 Z"
         style="color:#000000;fill:#000000;fill-opacity:0.11701343;fill-rule:nonzero;stroke:none;stroke-width:1.39999998;marker:none;visibility:visible;display:inline;overflow:visible;enable-background:accumulate" />
      <path
         inkscape:connector-curvature="0"
         id="path909"
         d="m 180.32483,467.18362 c -3.12194,0 -5.69836,2.30969 -6.125,5.3125 0.0223,0.15672 0.06,0.31606 0.0937,0.46875 0.5885,-2.80354 3.05133,-4.90625 6.03125,-4.90625 2.97992,0 5.44275,2.10271 6.03125,4.90625 0.0337,-0.15269 0.0715,-0.31203 0.0937,-0.46875 C 186.02327,469.49331 183.44677,467.18362 180.32483,467.18362 z m -5.6875,15.21875 c -2.93811,0 -5.3125,2.3744 -5.3125,5.3125 l 0,0.875 c 0,-2.9381 2.37439,-5.3125 5.3125,-5.3125 l 11.375,0 c 2.88726,0 5.23227,2.28871 5.3125,5.15625 l 0,-0.71875 c 0,-2.9381 -2.37439,-5.3125 -5.3125,-5.3125 L 174.63733,482.40237 Z"
         style="color:#000000;fill:#000000;fill-opacity:0.05882353;fill-rule:nonzero;stroke:none;stroke-width:1.39999998;marker:none;visibility:visible;display:inline;overflow:visible;enable-background:accumulate" />
      <path
         inkscape:connector-curvature="0"
         id="path917"
         d="m 174.13733,471.90512 c -0.003,0.0845 0,0.16469 0,0.25 0,3.42096 2.76654,6.1875 6.1875,6.1875 3.42096,0 6.1875,-2.76654 6.1875,-6.1875 0,-0.0853 0.003,-0.16553 0,-0.25 -0.14926,3.28768 -2.86252,5.90625 -6.1875,5.90625 C 176.99984,477.81137 174.28659,475.1928 174.13733,471.90512 z m -4.8125,24.53125 0,0.53125 22,0 0,-0.53125 L 169.32483,496.43637 Z"
         style="color:#000000;fill:#ffffff;fill-opacity:0.23536263;fill-rule:nonzero;stroke:none;stroke-width:1.39999998;marker:none;visibility:visible;display:inline;overflow:visible;enable-background:accumulate" />
      <path
         inkscape:connector-curvature="0"
         style="color:#000000;fill:#000000;fill-opacity:0.11745869;fill-rule:nonzero;stroke:none;stroke-width:1.39999998;marker:none;visibility:visible;display:inline;overflow:visible;enable-background:accumulate"
         d="m 174.13733,470.83455 c -0.003,0.0845 0,0.16469 0,0.25 0,3.42096 2.76654,6.1875 6.1875,6.1875 3.42096,0 6.1875,-2.76654 6.1875,-6.1875 0,-0.0853 0.003,-0.16554 0,-0.25 -0.14926,3.28768 -2.86252,5.90625 -6.1875,5.90625 C 176.99984,476.7408 174.28659,474.12223 174.13733,470.83455 z m -4.8125,24.53125 0,0.53125 22,0 0,-0.53125 L 169.32483,495.3658 Z"
         id="path923" />
      <path
         id="path925"
         d="m 174.13733,470.29939 c -0.003,0.0845 0,0.16469 0,0.25 0,3.42096 2.76654,6.1875 6.1875,6.1875 3.42096,0 6.1875,-2.76654 6.1875,-6.1875 0,-0.0853 0.003,-0.16554 0,-0.25 -0.14926,3.28768 -2.86252,5.90625 -6.1875,5.90625 C 176.99984,476.20564 174.28659,473.58707 174.13733,470.29939 z m -4.8125,24.53125 0,0.53125 22,0 0,-0.53125 L 169.32483,494.83064 Z"
         style="color:#000000;fill:#000000;fill-opacity:0.05882353;fill-rule:nonzero;stroke:none;stroke-width:1.39999998;marker:none;visibility:visible;display:inline;overflow:visible;enable-background:accumulate"
         inkscape:connector-curvature="0" />
    </g>
    <path
       style="fill:url(#linearGradient2982);fill-opacity:1;stroke:none"
       d="m 0,1034.5013 0,3.7188 48,0 0,-3.7188 L 0,1034.5013 Z"
       id="rect2962"
       inkscape:connector-curvature="0" />
    <path
       style="fill:url(#linearGradient2974);fill-opacity:1;stroke:none"
       d="M 1.75 30.125 L 1.75 33.84375 L 46.25 33.84375 L 46.25 30.125 L 1.75 30.125 z "
       transform="translate(0,1004.3622)"
       id="rect2964" />
    <path
       style="fill:#000000;fill-opacity:0.30131004;stroke:none"
       d="M 1.75 30.125 L 1.75 30.65625 L 46.25 30.65625 L 46.25 30.125 L 1.75 30.125 z "
       transform="translate(0,1004.3622)"
       id="rect2994" />
    <path
       style="fill:#000000;fill-opacity:0.30131004;stroke:none"
       d="M 1.75 33.3125 L 1.75 33.84375 L 46.25 33.84375 L 46.25 33.3125 L 1.75 33.3125 z "
       transform="translate(0,1004.3622)"
       id="path2999" />
    <path
       style="fill:#000000;fill-opacity:0.30131004;stroke:none"
       d="M 1.75 32.25 L 1.75 32.78125 L 46.25 32.78125 L 46.25 32.25 L 1.75 32.25 z "
       transform="translate(0,1004.3622)"
       id="path3001" />
    <path
       style="fill:#000000;fill-opacity:0.30131004;stroke:none"
       d="M 1.75 31.1875 L 1.75 31.71875 L 46.25 31.71875 L 46.25 31.1875 L 1.75 31.1875 z "
       transform="translate(0,1004.3622)"
       id="path3003" />
    <path
       style="opacity:0.478;fill:url(#radialGradient888);fill-opacity:1;stroke:none"
       d="M 7.59375 1.75 C 4.3492254 1.75 1.75 4.3492254 1.75 7.59375 L 1.75 40.40625 C 1.75 43.650775 4.3492254 46.25 7.59375 46.25 L 40.40625 46.25 C 43.650775 46.25 46.25 43.650775 46.25 40.40625 L 46.25 7.59375 C 46.25 4.3492254 43.650775 1.75 40.40625 1.75 L 7.59375 1.75 z "
       transform="translate(0,1004.3622)"
       id="rect872" />
  </g>
</svg>
