<?xml version="1.0" encoding="UTF-8" standalone="no"?>
<!-- Created with Inkscape (http://www.inkscape.org/) -->

<svg
   xmlns:dc="http://purl.org/dc/elements/1.1/"
   xmlns:cc="http://creativecommons.org/ns#"
   xmlns:rdf="http://www.w3.org/1999/02/22-rdf-syntax-ns#"
   xmlns:svg="http://www.w3.org/2000/svg"
   xmlns="http://www.w3.org/2000/svg"
   xmlns:xlink="http://www.w3.org/1999/xlink"
   xmlns:sodipodi="http://sodipodi.sourceforge.net/DTD/sodipodi-0.dtd"
   xmlns:inkscape="http://www.inkscape.org/namespaces/inkscape"
   width="48"
   height="48"
   id="svg2"
   version="1.1"
   inkscape:version="0.48+devel r12126"
   sodipodi:docname="firefox-trunk.svg"
   inkscape:export-filename="/home/uri/Iconos/NITRUX-Buttons/apps/16/firefox-trunk.png"
   inkscape:export-xdpi="30"
   inkscape:export-ydpi="30">
  <defs
     id="defs4">
    <linearGradient
       gradientTransform="translate(-459.56952,550.27757)"
       inkscape:collect="always"
       xlink:href="#linearGradient859-8"
       id="linearGradient966"
       x1="484.11481"
       y1="499.78934"
       x2="484.11481"
       y2="455.45566"
       gradientUnits="userSpaceOnUse" />
    <linearGradient
       inkscape:collect="always"
       id="linearGradient859-8">
      <stop
         style="stop-color:#1b1541;stop-opacity:1"
         offset="0"
         id="stop861-4" />
      <stop
         id="stop1190-2"
         offset="0.5"
         style="stop-color:#573c8b;stop-opacity:1" />
      <stop
         style="stop-color:#cb79e5;stop-opacity:1"
         offset="1"
         id="stop863-3" />
    </linearGradient>
    <radialGradient
       inkscape:collect="always"
       xlink:href="#linearGradient1194"
       id="radialGradient1200"
       cx="23.999998"
       cy="-1028.3622"
       fx="23.999998"
       fy="-1028.3622"
       r="24"
       gradientUnits="userSpaceOnUse"
       gradientTransform="matrix(0.74999998,0,0,0.74999998,6.0000007,-257.18527)" />
    <linearGradient
       inkscape:collect="always"
       id="linearGradient1194">
      <stop
         style="stop-color:#000000;stop-opacity:1;"
         offset="0"
         id="stop1196" />
      <stop
         style="stop-color:#000000;stop-opacity:0;"
         offset="1"
         id="stop1198" />
    </linearGradient>
    <radialGradient
       inkscape:collect="always"
       xlink:href="#XMLID_69_-4"
       id="radialGradient948"
       cx="63.755001"
       cy="31.609108"
       fx="63.755001"
       fy="31.609108"
       r="58.215"
       gradientTransform="matrix(1,0,0,1.00067,0,-0.03977861)"
       gradientUnits="userSpaceOnUse" />
    <linearGradient
       y2="18.029301"
       x2="93.231796"
       y1="16.591801"
       x1="76.371597"
       gradientUnits="userSpaceOnUse"
       id="XMLID_69_-4">
      <stop
         id="stop102-3"
         style="stop-color:#0F80BC"
         offset="0" />
      <stop
         id="stop104-3"
         style="stop-color:#0A5F9E"
         offset="0.3376" />
      <stop
         id="stop106-6"
         style="stop-color:#00145A"
         offset="1" />
    </linearGradient>
    <linearGradient
       y2="18.029301"
       x2="93.231796"
       y1="16.591801"
       x1="76.371597"
       gradientUnits="userSpaceOnUse"
       id="XMLID_69_">
      <stop
         id="stop102"
         style="stop-color:#0F80BC"
         offset="0" />
      <stop
         id="stop104"
         style="stop-color:#0A5F9E"
         offset="0.3376" />
      <stop
         id="stop106"
         style="stop-color:#00145A"
         offset="1" />
    </linearGradient>
    <clipPath
       id="XMLID_68_">
      <use
         height="127.219"
         width="132.72"
         y="0"
         x="0"
         id="use99"
         xlink:href="#XMLID_8_" />
    </clipPath>
    <linearGradient
       y2="32.832401"
       x2="29.173901"
       y1="19.146999"
       x1="38.491699"
       gradientUnits="userSpaceOnUse"
       id="XMLID_70_">
      <stop
         id="stop111"
         style="stop-color:#0F80BC"
         offset="0" />
      <stop
         id="stop113"
         style="stop-color:#0A5F9E"
         offset="0.3376" />
      <stop
         id="stop115"
         style="stop-color:#00145A"
         offset="1" />
    </linearGradient>
  </defs>
  <sodipodi:namedview
     id="base"
     pagecolor="#ffffff"
     bordercolor="#666666"
     borderopacity="1.0"
     inkscape:pageopacity="0.0"
     inkscape:pageshadow="2"
     inkscape:zoom="4.1682413"
     inkscape:cx="-85.288805"
     inkscape:cy="33.419005"
     inkscape:document-units="px"
     inkscape:current-layer="layer1"
     showgrid="false"
     inkscape:window-width="1366"
     inkscape:window-height="717"
     inkscape:window-x="0"
     inkscape:window-y="28"
     inkscape:window-maximized="1" />
  <metadata
     id="metadata7">
    <rdf:RDF>
      <cc:Work
         rdf:about="">
        <dc:format>image/svg+xml</dc:format>
        <dc:type
           rdf:resource="http://purl.org/dc/dcmitype/StillImage" />
        <dc:title />
      </cc:Work>
    </rdf:RDF>
  </metadata>
  <g
     inkscape:label="Capa 1"
     inkscape:groupmode="layer"
     id="layer1"
     transform="translate(0,-1004.3622)">
    <rect
       style="color:#000000;fill:#333333;fill-opacity:1;fill-rule:nonzero;stroke:none;stroke-width:0.2;marker:none;visibility:visible;display:inline;overflow:visible;enable-background:accumulate"
       id="rect6294"
       width="45.5"
       height="45.5"
       x="1.25"
       y="1005.6122"
       ry="6.3565426" />
    <rect
       ry="5.8565426"
       y="1006.1122"
       x="1.75"
       height="44.5"
       width="44.5"
       id="rect6296"
       style="color:#000000;fill:url(#linearGradient966);fill-opacity:1;fill-rule:nonzero;stroke:none;stroke-width:0.2;marker:none;visibility:visible;display:inline;overflow:visible;enable-background:accumulate" />
    <path
       id="path6361"
       d="m 1.7500007,1012.5497 0,-0.5625 c 0,-3.2445 2.5992,-5.875 5.8438,-5.875 l 32.8125003,0 c 3.2445,0 5.8437,2.6305 5.8437,5.875 l 0,0.5625 c 0,-3.2445 -2.5992,-5.875 -5.8437,-5.875 l -32.8125003,0 C 4.3492007,1006.6747 1.7500007,1009.3052 1.7500007,1012.5497 Z"
       style="color:#000000;fill:#ffffff;fill-opacity:1;fill-rule:nonzero;stroke:none;stroke-width:0.2;marker:none;visibility:visible;display:inline;overflow:visible;enable-background:accumulate"
       inkscape:connector-curvature="0" />
    <path
       inkscape:connector-curvature="0"
       style="color:#000000;fill:#000000;fill-opacity:1;fill-rule:nonzero;stroke:none;stroke-width:0.2;marker:none;visibility:visible;display:inline;overflow:visible;enable-background:accumulate"
       d="m 1.7500007,1044.1747 0,0.5625 c 0,3.2445 2.5992,5.875 5.8438,5.875 l 32.8125003,0 c 3.2445,0 5.8437,-2.6305 5.8437,-5.875 l 0,-0.5625 c 0,3.2445 -2.5992,5.875 -5.8437,5.875 l -32.8125003,0 C 4.3492007,1050.0497 1.7500007,1047.4192 1.7500007,1044.1747 Z"
       id="path6388" />
    <rect
       transform="scale(1,-1)"
       ry="1.4584079"
       y="-1046.4569"
       x="6"
       height="36"
       width="36"
       id="rect1192"
       style="opacity:0.5;fill:url(#radialGradient1200);fill-opacity:1;stroke:none" />
    <ellipse
       transform="matrix(0.23881413,0,0,0.23881413,8.2264707,1013.3622)"
       cx="63.755001"
       cy="59.375"
       rx="59.335999"
       ry="59.375"
       id="ellipse10"
       sodipodi:cx="63.755001"
       sodipodi:cy="59.375"
       sodipodi:rx="59.335999"
       sodipodi:ry="59.375"
       style="fill:#ffffff"
       d="m 123.091,59.375 c 0,32.791907 -26.565632,59.375 -59.335999,59.375 C 30.984634,118.75 4.4190025,92.166907 4.4190025,59.375 4.4190025,26.583093 30.984634,0 63.755001,0 96.525368,0 123.091,26.583093 123.091,59.375 Z" />
    <ellipse
       transform="matrix(0.22897238,0,0,0.22897238,8.8539407,1013.9465)"
       cx="63.755001"
       cy="59.375"
       rx="58.215"
       ry="58.254002"
       id="ellipse33"
       style="fill:url(#radialGradient948);fill-opacity:1"
       sodipodi:cx="63.755001"
       sodipodi:cy="59.375"
       sodipodi:rx="58.215"
       sodipodi:ry="58.254002"
       d="m 121.97,59.375 c 0,32.172797 -26.063742,58.254 -58.214999,58.254 C 31.603744,117.629 5.5400009,91.547797 5.5400009,59.375 5.5400009,27.202203 31.603744,1.1209984 63.755001,1.1209984 95.906258,1.1209984 121.97,27.202203 121.97,59.375 Z" />
    <path
       transform="matrix(0.25,0,0,0.25,194.10372,1016.45)"
       inkscape:connector-curvature="0"
       style="fill:url(#XMLID_69_)"
       id="path108"
       d="m 65.061,1.002 c -0.912,0.203 0.613,3.503 0.613,3.503 0,0 -0.055,2.216 0.321,2.329 0.374,0.113 2.852,0.733 4.147,2.345 1.301,1.614 0.625,2.463 -0.458,1.997 -1.084,-0.465 -0.797,0.959 -0.797,0.959 0,0 3.27,1.063 0.8,0.995 -2.475,-0.066 1.666,1.741 1.393,1.93 -0.273,0.191 -0.429,1.231 -0.429,1.231 0,0 -2.183,0.182 -0.333,0.959 6.26,2.637 -0.669,1.925 -0.669,1.925 l -0.884,1.087 1.749,2.194 1.345,0.962 c 0,0 2.833,-0.945 3.716,-1.093 0.884,-0.146 3.114,-1.815 3.114,-1.815 0,0 0.669,0.478 0.169,-0.497 -0.501,-0.976 1.841,-0.54 2.425,0.186 l 4.134,1.867 c 0.054,0.144 0.146,0.274 0.292,0.375 0.806,0.565 -0.729,1.535 -0.573,2.562 0.156,1.016 1.093,2.704 2.121,2.526 -0.18,-0.969 1.851,-1.086 1.144,-0.006 -0.706,1.077 0.077,1.056 0.077,1.056 0,0 0.653,1.521 2.034,0.676 -0.056,0.464 0.227,1.397 1.413,1.459 0,0 -0.126,0.506 0.848,0.865 -0.132,1.737 0.424,1.792 0.561,-0.846 0.245,1.157 0.992,-0.471 1.141,-1.25 0.15,-0.784 1.756,-2.505 1.322,-0.984 -0.431,1.508 4.735,2.06 5.308,0.259 0.578,-1.815 2.637,-2.763 2.699,-3.038 0.062,-0.281 -4.583,-0.712 -4.07,-0.493 0.514,0.219 1.47,-0.948 1.115,-1.986 0.576,0.116 0.83,-2.301 -0.083,-2.927 1.143,-2.405 0.651,-2.48 0.182,-2.001 -0.57,1.205 -2.922,3.023 -1.327,0.783 1.609,-2.263 -0.653,-0.284 -1.438,0.208 -0.689,1.341 -1.899,1.08 -1.899,1.08 0,0 -0.222,-0.911 -1.516,-0.607 0.151,-1.612 -0.653,-0.838 -1.12,-1.154 -0.285,-0.193 -0.558,-0.627 -0.726,-0.999 1.115,0.452 2.612,0.933 2.354,0.104 -0.167,-0.542 2.112,0.643 2.192,0.396 l 2.848,-0.396 2.769,-1.75 C 85.388,0.164 65.061,1.002 65.061,1.002 Z"
       clip-path="url(#XMLID_68_)" />
    <path
       transform="matrix(0.25,0,0,0.25,194.10372,1016.45)"
       inkscape:connector-curvature="0"
       style="fill:url(#XMLID_70_)"
       id="path117"
       d="m 38.752,6.095 c -10.573,4.747 -18.551,14.531 -18.551,14.531 0,0 0.938,2.145 1.265,1.987 0.33,-0.156 -2.361,5.628 -0.386,5.954 1.985,0.325 7.696,-3.578 6.637,-3.22 -1.056,0.356 0.595,-2.112 0.595,-2.112 0,0 2.972,-1.318 1.214,0.202 -1.743,1.511 2.318,0.187 2.255,0.496 -0.064,0.311 0.525,1.147 0.525,1.147 0,0 -1.393,1.494 0.406,0.892 6.172,-2.075 0.812,1.779 0.812,1.779 l 0.106,1.312 2.67,0.464 1.578,-0.15 c 0,0 1.381,-2.436 1.914,-3.098 0.535,-0.663 1.028,-3.284 1.028,-3.284 0,0 0.803,-0.084 -0.213,-0.468 -1.016,-0.385 0.972,-1.583 1.886,-1.434 l 4.303,-1.336 c 0.138,0.068 0.292,0.103 0.47,0.082 0.985,-0.114 0.489,1.603 1.294,2.25 0.796,0.644 2.627,1.264 3.283,0.469 -0.784,-0.594 0.674,-2.011 0.86,-0.751 0.187,1.249 0.767,0.723 0.767,0.723 0,0 1.543,-2.654 2.036,-4.177 0.27,0.377 2.788,-3.309 2.025,-5.067 -0.771,-1.78 0.479,-3.456 0.34,-3.715 -0.143,-0.256 -0.896,0.528 -0.34,0.34 0.561,-0.192 -1.589,0.772 -1.874,-2.061 -0.288,-2.89 -0.707,0.243 -0.985,1.169 0.377,1.508 4.29,-6.093 4.29,-6.093 L 64.006,0.869 C 64.006,0.873 52.525,-0.088 38.752,6.095 Z"
       clip-path="url(#XMLID_68_)" />
    <path
       style="fill:#ffffff"
       d="m 27.551861,1015.6971 c -0.48169,0.014 -0.72128,0.084 -0.71644,0.09 0.0322,0 0.0575,0.027 0.0895,0.03 0.27258,0.059 3.43441,0.6146 4.02998,1.4329 0,0 -1.47587,-0.01 -2.95533,0.4179 -0.0668,0.019 5.44092,0.7031 6.5674,6.2091 0,0 -0.59632,-1.2786 -1.34334,-1.4924 0.49125,1.4944 0.34844,4.3519 -0.1194,5.7613 -0.0366,-0.04 -0.12671,-0.3274 -0.32838,-0.6268 -0.0117,-0.018 -0.0172,-0.042 -0.0298,-0.059 -0.13669,-0.2737 -0.29752,-0.5298 -0.47763,-0.806 0,0 0.0339,0.169 0.0895,0.4179 -0.0813,-0.056 -0.16787,-0.1037 -0.26866,-0.1492 0.29516,2.1151 -0.0251,5.4938 -1.4926,6.418 -0.11439,0.071 0.92088,-3.3082 0.20897,-2 -4.25018,6.5167 -9.32402,2.6368 -11.37352,1.2538 1.64494,0.4032 3.40644,0.094 4.41805,-0.597 1.02093,-0.698 1.63684,-1.1952 2.17918,-1.0749 0.54211,0.1212 0.89866,-0.4426 0.47763,-0.9254 -0.4215,-0.4836 -1.45127,-1.1385 -2.83591,-0.7761 -0.97652,0.2557 -2.18276,1.3328 -4.02999,0.2388 -1.57594,-0.9338 -1.58215,-1.6961 -1.58215,-2.1791 0,-0.4834 0.44157,-1.1953 1.22392,-1.0748 0.70069,0.1083 0.32073,-0.3032 1.07467,0 0.20538,0.082 -0.006,-0.9869 -0.29852,-1.6716 0.56289,-1.1747 2.37119,-1.539 2.50755,-1.642 0.24694,-0.1867 0.12465,-0.2857 0.20897,-0.5671 0.0788,-0.262 0.13325,-0.9718 -1.91053,-0.7761 -0.94044,0.09 -1.53532,-1.1073 -1.73139,-1.4031 0.0635,-0.3766 0.16048,-0.7296 0.29852,-1.0448 0.14018,-0.2872 0.29493,-0.5471 0.44777,-0.7463 0.0478,-0.062 0.0816,-0.1282 0.11941,-0.1792 0.30474,-0.3553 0.6854,-0.6428 1.13437,-0.8954 0.23308,-0.1317 -2.58748,-0.01 -3.88073,1.6419 -1.14303,-0.2837 -2.15583,-0.2909 -3.01503,-0.09 -0.16679,0 -0.35092,-0.01 -0.59703,-0.059 -0.21471,-0.194 -0.48677,-0.4422 -0.71645,-0.7463 -0.0607,-0.08 -0.12203,-0.1817 -0.17911,-0.2687 -0.007,-0.01 0.007,-0.02 0,-0.03 -0.0138,-0.022 -0.0462,-0.039 -0.0597,-0.059 -0.0986,-0.1593 -0.1631,-0.33 -0.23881,-0.5074 -0.007,-0.015 -0.0237,-0.014 -0.0298,-0.03 -0.0197,-0.048 -0.0421,-0.1005 -0.0597,-0.1493 -0.022,-0.062 -0.0416,-0.1446 -0.0597,-0.2091 -0.0547,-0.1978 -0.0814,-0.4141 -0.0895,-0.6269 l -0.0299,0 c -0.0473,0.038 -1.55651,1.2483 -1.49258,4.4481 0.004,0.1725 0.0171,0.3231 0.0298,0.5073 -4.8e-4,0.062 -0.0279,0.1221 -0.0298,0.1792 -0.48445,0.6585 -0.7134003,1.2202 -0.7164503,1.3135 -0.41798,0.8493 -0.8496,2.1193 -1.19406,4.0599 0,0 0.26551,-0.751 0.74629,-1.6121 -0.35495,1.0925 -0.64164,2.7739 -0.47764,5.3136 0,0 0.0528,-0.5587 0.20897,-1.3731 0.10271,1.3546 0.48179,2.9833 1.4328903,4.8658 0.0661,0.1309 0.13743,0.2547 0.20896,0.3881 0.0136,0.026 0.046,0.064 0.0597,0.09 0.0443,0.081 0.0732,0.1562 0.11941,0.2388 0.0417,0.074 0.0757,0.134 0.1194,0.2088 0.005,0.01 0.0253,0.022 0.0299,0.03 0.0897,0.1531 0.17538,0.2997 0.26867,0.4478 0.0971,0.1557 0.19783,0.3275 0.29852,0.4776 0.0733,0.1091 0.16371,0.1925 0.23881,0.2985 0.46278,0.9221 1.07014,1.8677 1.85081,2.836 -0.15577,-0.2557 -0.38659,-0.7378 -0.62688,-1.3136 0.95816,1.0328 2.02432,1.8554 3.16428,2.5077 0.019,0.01 0.0407,0.02 0.0597,0.03 0.0117,0.01 0.0181,0.023 0.0298,0.03 0.32434,0.1822 0.64873,0.3554 0.98511,0.5076 1.1236,0.8147 2.45354,1.4408 4.00013,1.7313 1.15602,0.4295 2.52845,0.7102 4.17926,0.7165 0,0 -0.57471,-0.1826 -1.43289,-0.5971 1.51786,-0.1197 3.2017,-0.5205 5.04494,-1.3732 0,0 -1.28759,0.4732 -3.07472,0.4777 0.35913,-0.065 0.71571,-0.1521 1.07467,-0.2388 0.47116,-0.1139 0.91162,-0.2406 1.34331,-0.388 1.60472,0.1278 3.48509,-0.1396 5.64199,-1.1643 0,0 -1.01278,0.1127 -2.44785,0.03 2.44165,-1.0563 4.72532,-3.2158 6.20917,-7.2541 0,0 -0.83116,1.793 -2.74635,3.2837 0.22491,-0.3405 0.43501,-0.6936 0.62688,-1.0447 1.99987,-1.5914 4.00457,-4.5211 3.07473,-9.5825 0,0 -0.19692,1.6989 -1.13436,3.7912 0.93118,-3.7727 0.6232,-7.783 -0.7463,-10.7169 0,0 0.1675,1.3154 -0.0298,3.1644 -0.10823,-0.4539 -0.23849,-0.8608 -0.35823,-1.1642 -0.91465,-2.3174 -1.31084,-2.302 -1.31347,-2.2987 0.61256,1.5569 0.50748,2.3882 0.50748,2.3882 0,0 -1.10046,-2.9695 -3.97029,-3.9106 C 29.816011,1015.7722 28.354691,1015.6733 27.551861,1015.6971 Z"
       id="path159"
       inkscape:connector-curvature="0"
       sodipodi:nodetypes="cccccccccccccccccccccscccccccccccccccccccccccccccccccccccccccccccccccccccccccccccccccccccc" />
    <path
       style="fill:#000000;fill-opacity:0.07602342"
       d="m 27.478971,1015.9153 c 0.0542,0.011 0.0554,0.016 0.11605,0.029 0.0299,0 0.0573,0.025 0.087,0.029 0.0524,0.01 0.0934,0.023 0.14507,0.029 4.06864,0.4995 5.95904,2.6047 6.78922,3.9168 -0.67131,-0.5552 -2.54758,-2.0365 -5.36755,-2.147 2.1855,0.7008 3.75645,1.9646 4.64221,3.3656 6.11885,11.4946 -7.20101,21.6579 -16.88602,16.8572 -0.11926,-0.2019 -0.57637,-1.0154 -1.04449,-1.857 -0.0768,-0.1394 -0.18057,-0.3162 -0.26112,-0.4643 -0.1751,-0.3217 -0.36124,-0.7117 -0.55127,-1.0735 -0.14677,-0.2788 -0.28636,-0.5204 -0.4352,-0.8123 -0.3781,-0.7439 -0.77402,-1.5287 -1.13154,-2.3212 0.25801,0.1607 0.54475,0.3133 0.87041,0.4644 0,0 -0.16363,-0.2234 -0.37718,-0.5223 -0.12188,-0.1663 -0.18601,-0.2394 -0.34816,-0.4932 -0.0344,-0.053 -0.0521,-0.1172 -0.087,-0.1741 -0.12545,-0.2037 -0.25389,-0.4017 -0.37719,-0.6385 -0.12084,-0.2319 -0.24616,-0.4731 -0.34816,-0.7253 -0.0115,-0.028 -0.0178,-0.058 -0.029,-0.087 -0.008,-0.021 -0.0212,-0.037 -0.0291,-0.058 -0.011,-0.029 -0.0183,-0.058 -0.0291,-0.087 -0.0769,-0.2123 -0.15321,-0.422 -0.20309,-0.6383 0.10602,0.1018 0.22172,0.1909 0.34816,0.2901 0.24595,0.1928 0.56608,0.3967 0.89943,0.5802 0.17183,0.096 0.35261,0.1981 0.55127,0.2902 -0.23333,-0.2813 -0.4489,-0.5907 -0.63831,-0.8994 -0.18941,-0.3088 -0.35021,-0.6293 -0.49324,-0.9575 -0.0427,-0.098 -0.0776,-0.1909 -0.11605,-0.2902 -0.0887,-0.2305 -0.16701,-0.4605 -0.2321,-0.6962 -0.18836,-0.6797 -0.28302,-1.3808 -0.26113,-2.06 0.004,-3.3509 1.2773,-5.2538 5.57064,-4.0329 l 0.92844,1.1605 c -0.51247,-2.1691 -0.12994,-3.4681 1.13154,-4.178 0.0466,-0.026 -0.0764,-0.029 -0.31915,0 -0.67273,0.08 -2.00749,0.461 -2.65932,1.5495 -1.56719,-0.4309 -2.31634,-0.4075 -3.6947,-0.04 -0.1683,-0.1234 -0.32355,-0.2919 -0.46422,-0.4641 -0.48008,-0.5878 -0.8193,-1.4046 -1.0445,-2.118 0,0 -1.39013,1.2709 -1.30561,3.8007 0.0972,0.2756 0.24141,0.6138 0.058,0.8704 -0.65219,0.9126 -1.5465003,3.0762 -1.8859003,4.6713 0,0 0.28432,-0.7522 0.78337,-1.5958 -0.15827,0.4375 -0.29251,1.0061 -0.40619,1.6539 -0.0305,0.1737 -0.0616,0.3317 -0.087,0.5223 -0.0346,0.2554 -0.0761,0.4965 -0.087,0.7542 -0.003,0.077 9.4e-4,0.1538 0,0.2321 -0.044,0.6253 -0.0801,1.3053 -0.058,2.089 0.007,-0.044 0.0198,-0.097 0.0291,-0.1451 0.009,-0.057 0.0186,-0.1126 0.0291,-0.1741 0.0128,-0.08 0.0405,-0.2208 0.058,-0.3191 -7.2e-4,-0.01 6.8e-4,-0.02 0,-0.029 0.006,-0.034 0.0224,-0.081 0.029,-0.1161 0.0522,0.3922 0.12771,0.7993 0.23212,1.2186 0.008,0.031 0.0212,0.056 0.0291,0.087 0.11921,0.4653 0.25041,0.9386 0.43521,1.4507 0,0 -0.24246,-1.0623 -0.26113,-2.4372 0.0742,0.3532 0.18568,0.7377 0.3191603,1.1606 -0.0171,0.7968 0.0547,1.7081 0.31915,2.7563 0.10963,0.2484 0.18877,0.4963 0.31915,0.7544 0.0661,0.1309 0.13156,0.2437 0.2031,0.3771 0.0136,0.026 0.0443,0.09 0.058,0.1161 0.0443,0.081 0.0988,0.1495 0.14508,0.2321 0.0418,0.074 0.0724,0.1283 0.11604,0.2031 0.005,0.01 0.0246,0.021 0.0291,0.029 0.0897,0.1531 0.16783,0.2871 0.26112,0.4352 0.0971,0.1558 0.18947,0.3432 0.29014,0.4932 0.0733,0.1092 0.15701,0.1841 0.23211,0.2901 0.46278,0.9222 1.07621,1.875 1.85689,2.8434 -0.0779,-0.1279 -0.15391,-0.3268 -0.26112,-0.5513 -0.10722,-0.2244 -0.22802,-0.4665 -0.34818,-0.7544 0.95818,1.0328 2.02255,1.8429 3.16251,2.4953 0.019,0.01 0.039,0.019 0.058,0.029 0.0117,0.01 0.0173,0.022 0.0291,0.029 0.32435,0.1821 0.65008,0.37 0.98647,0.5222 0.25225,0.1829 0.5134,0.3347 0.78337,0.4932 0.0859,0.051 0.17319,0.096 0.26112,0.1451 0.15354,0.084 0.30269,0.1826 0.46422,0.2612 0.10552,0.051 0.21085,0.097 0.31916,0.145 0.67395,0.2948 1.39341,0.5203 2.17602,0.6673 0.289,0.1073 0.58254,0.2025 0.89943,0.2901 0.31703,0.087 0.6395,0.1698 0.98647,0.2322 0.70137,0.13 1.45548,0.1998 2.29209,0.203 0,0 -0.15524,-0.048 -0.40618,-0.145 -0.25541,-0.1005 -0.61542,-0.257 -1.0445,-0.4642 1.51786,-0.1198 3.20514,-0.511 5.0484,-1.3637 0,0 -1.28834,0.4887 -3.07548,0.4933 0.35914,-0.065 0.71456,-0.1745 1.07352,-0.2612 0.47116,-0.1139 0.93195,-0.2296 1.36365,-0.3772 0.32658,0.026 0.66605,0.038 1.01548,0.029 0.49279,-0.016 0.99691,-0.07 1.53772,-0.1741 0.30733,-0.059 0.6333,-0.1414 0.95746,-0.232 -0.69099,-0.048 -1.45142,-0.099 -2.20504,-0.1451 2.44757,-0.8876 5.10658,-2.7849 7.45654,-6.5571 -0.13707,0.094 -0.26927,0.1961 -0.4062,0.2901 -0.19324,0.2417 -0.41577,0.4951 -0.66732,0.7544 -0.0301,0.031 -0.056,0.056 -0.087,0.087 -0.0927,0.094 -0.1897,0.1677 -0.29012,0.2611 -0.2132,0.1978 -0.41819,0.3864 -0.66732,0.5803 0.2249,-0.3406 0.44643,-0.6934 0.6383,-1.0444 0.22919,-0.1825 0.44243,-0.3906 0.66731,-0.6094 0.015,-0.021 0.0431,-0.037 0.058,-0.058 1.12459,-1.555 2.13693,-3.844 2.20505,-6.9924 0,0 -0.31677,1.9297 -1.2766,3.3947 0.50849,-3.8209 0.76968,-8.0601 -0.2031,-11.2574 0,0 0.36942,2.26 -0.2031,4.0909 -0.31811,-1.7667 -0.712,-3.3865 -1.0445,-4.1779 -0.16928,-0.1122 -0.27038,-0.1933 -0.40618,-0.2902 0.009,0.034 0.0206,0.083 0.029,0.1161 0.0473,0.1872 0.0906,0.3723 0.11605,0.5223 0.0115,0.07 0.0214,0.171 0.0291,0.2321 0.009,0.078 0.0245,0.1695 0.0291,0.2321 0.005,0.076 1.3e-4,0.1811 0,0.232 -0.002,0.038 0,0.1452 0,0.1452 0,0 -0.11063,-0.2269 -0.23212,-0.4643 -0.0161,-0.032 -0.0402,-0.082 -0.058,-0.1161 -0.0637,-0.1165 -0.14614,-0.2665 -0.2321,-0.4062 -0.0367,-0.061 -0.0751,-0.1392 -0.11606,-0.203 -0.0836,-0.1276 -0.18951,-0.2698 -0.29014,-0.4062 -0.0694,-0.094 -0.1539,-0.1939 -0.23211,-0.2902 0.0526,0.1898 0.0937,0.4429 0.11606,0.7544 C 33.603201,1016.3335 29.124781,1015.943 27.478971,1015.9153 z m -8.15287,7.9208 c -2.55968,1.297 -2.78656,2.6547 -2.52421,2.5823 2.09868,-0.5781 2.6952,-0.6937 3.45265,-0.4061 -0.0228,-0.3108 -0.13499,-1.0735 -0.49324,-1.3636 C 19.487681,1024.4271 19.395561,1024.1582 19.326101,1023.8361 z m 5.10642,5.4548 c -0.8322,0.09 -1.76032,0.6249 -2.08899,0.7543 0,0 1.64854,-0.3053 2.26307,-0.2031 0.83293,0.1386 1.1122,1.0565 1.50872,0.6673 0.16252,-0.1593 0.064,-0.7608 -0.95745,-1.1316 -0.11587,-0.042 -0.24808,-0.079 -0.37718,-0.087 C 24.667701,1029.2835 24.551411,1029.278 24.432521,1029.2908 z m -5.07741,1.2185 c 0.1723,0.965 0.71342,1.4519 1.0445,1.6828 0.87261,0.2616 2.77998,0.026 3.59771,-0.5802 0.55093,-0.4097 0.9555,-0.7124 1.30562,-0.8414 -0.61887,-0.4206 -0.6136,0.163 -1.91492,0.4642 C 20.677171,1031.8637 19.355111,1030.5094 19.355111,1030.5094 z m -6.76021,2.4953 c 0.0236,0.039 0.0627,0.077 0.087,0.116 0.0427,0.068 0.0713,0.1334 0.11606,0.2031 0.16107,0.2513 0.33181,0.4896 0.52224,0.7542 0.26835,0.3754 0.56779,0.7591 0.89943,1.1607 0.31149,0.3772 0.67165,0.7617 1.0445,1.1605 0.0423,0.045 0.0728,0.1 0.11605,0.1452 0.34918,0.3685 0.72571,0.7458 1.13153,1.1314 0.0418,0.039 0.0738,0.076 0.11606,0.1161 -1.26552,-0.6862 -2.46451,-1.6261 -3.53968,-2.8723 0.17367,0.1861 0.3743,0.3747 0.58027,0.5512 C 13.668411,1035.4708 12.939461,1034.3803 12.594901,1033.0047 Z"
       id="path214"
       inkscape:connector-curvature="0"
       sodipodi:nodetypes="cccccccccccccccccscccccsccscccccccsccsccsccscccccccccccccccccccccccccscccccccccccccccccccccccccccccccccccccccccccccccccccccccccsccccssccccccccccsccccccc" />
    <path
       style="fill:#000000;fill-opacity:0.21052635"
       d="m 27.566001,1015.1601 c -0.48168,0.014 -0.73017,0.1105 -0.72535,0.116 0.0322,0 0.0551,0.026 0.087,0.029 0.13941,0.031 1.02297,0.1766 1.94394,0.4352 0.79729,0.091 1.80446,0.2763 3.07545,0.6963 2.86984,0.941 3.97489,3.9169 3.97489,3.9169 0,0 0.01,-0.1968 -0.0291,-0.5513 -0.0673,-0.1751 -1.16573,-2.9471 -3.94588,-3.8587 C 29.822961,1015.2415 28.368831,1015.1362 27.566001,1015.1601 z m -15.37729,0.4642 c -0.0473,0.038 -1.57265,1.2394 -1.50871,4.4391 0.002,0.076 -0.005,0.1594 0,0.2321 0.0255,-2.9921 1.46273,-4.1419 1.50871,-4.178 l 0.029,0 c 0.008,0.2127 0.0324,0.4406 0.087,0.6383 0.0181,0.064 0.036,0.1409 0.058,0.2031 0.0176,0.05 0.0384,0.097 0.058,0.1451 0.006,0.016 0.0223,0.014 0.029,0.029 0.0757,0.1775 0.13351,0.3339 0.2321,0.4934 0.0136,0.021 0.0443,0.038 0.058,0.057 0.007,0.01 -0.007,0.019 0,0.029 0.0571,0.087 0.11332,0.2102 0.17409,0.29 0.22968,0.3042 0.51064,0.5314 0.72534,0.7254 0.24613,0.05 0.4425,0.057 0.60929,0.057 0.8592,-0.2007 1.87442,-0.1676 3.01743,0.1161 0.82818,-1.0574 2.25567,-1.4866 3.13349,-1.6248 0.22246,-0.1891 0.44959,-0.3671 0.72535,-0.5222 0.23308,-0.1317 -2.5656,0 -3.85884,1.6537 -1.14301,-0.2836 -2.15823,-0.2877 -3.01743,-0.087 -0.16679,0 -0.36316,-0.038 -0.60929,-0.087 -0.2147,-0.194 -0.49566,-0.4211 -0.72534,-0.7253 -0.0607,-0.08 -0.11701,-0.203 -0.17409,-0.29 -0.007,-0.01 0.007,-0.019 0,-0.029 -0.0138,-0.022 -0.0444,-0.038 -0.058,-0.057 -0.0986,-0.1594 -0.15639,-0.3157 -0.2321,-0.4933 -0.007,-0.015 -0.0229,-0.013 -0.029,-0.029 -0.0197,-0.049 -0.0404,-0.096 -0.058,-0.1451 -0.0221,-0.062 -0.04,-0.1388 -0.058,-0.2031 -0.0547,-0.1978 -0.0789,-0.4255 -0.087,-0.6382 L 12.188711,1015.6244 z m 18.1046,1.1315 c -0.55762,0.033 -1.3437,0.1033 -2.2921,0.3772 -0.0186,0.01 0.41682,0.064 1.0445,0.2612 1.05176,-0.1824 1.91491,-0.1741 1.91491,-0.1741 C 30.837671,1017.0512 30.586941,1016.9003 30.293311,1016.7559 z m 5.10642,0.7254 c 0.10078,0.2561 0.16651,0.4509 0.23211,0.6673 0.20366,0.2219 0.53043,0.742 1.0735,2.118 0.11974,0.3034 0.26896,0.7067 0.37718,1.1605 0.0739,-0.6934 0.0875,-1.2678 0.087,-1.7698 -0.012,0.3833 -0.0377,0.8144 -0.087,1.2767 -0.10822,-0.4538 -0.25744,-0.8572 -0.37718,-1.1606 C 35.790691,1017.4559 35.402351,1017.4778 35.399731,1017.4812 z m 1.71181,0.29 c 0,0 0.012,0.3333 0.0291,0.5804 0.80334,1.7574 1.23455,3.8876 1.24759,6.122 C 38.440391,1022.0262 37.998861,1019.6722 37.111541,1017.7712 z m -17.9015,2.0021 c -0.0269,0.1133 -0.067,0.2296 -0.087,0.3482 0.19607,0.2957 0.80037,1.4827 1.74083,1.3926 1.27735,-0.1223 1.74145,0.1224 1.88589,0.3771 0.006,-0.033 0.0173,-0.048 0.0291,-0.087 0.0788,-0.262 0.12886,-0.979 -1.91491,-0.7833 C 20.018321,1021.1018 19.458231,1020.1829 19.210041,1019.7733 z m -8.53004,0.9865 c -0.48444,0.6585 -0.6933003,1.2123 -0.6963403,1.3055 -0.41799,0.8494 -0.87412,2.1215 -1.21858,4.0619 0,0 0.0766,-0.1978 0.2031,-0.4931 0.004,-0.01 0.025,-0.02 0.0291,-0.029 0.30272,-1.371 0.64818,-2.3591 0.98647,-3.0464 0.003,-0.094 0.2118903,-0.6471 0.6963303,-1.3057 0.002,-0.056 0.0285,-0.1119 0.029,-0.1741 C 10.701221,1020.9661 10.685901,1020.8601 10.680001,1020.7599 z m 22.54369,1.1025 c 0.0558,0.1699 0.10515,0.3501 0.14507,0.5512 0.67488,0.3247 1.18957,1.4217 1.18957,1.4217 -0.0704,-0.3441 -0.15893,-0.65 -0.26112,-0.9575 -0.007,-0.022 -0.0219,-0.038 -0.0291,-0.057 C 34.023121,1022.4374 33.654901,1021.9858 33.223691,1021.8623 z m -13.05619,2.4662 c -0.0374,0.059 -0.0856,0.1105 -0.11606,0.174 0.15158,0.3547 0.28683,0.813 0.34817,1.1607 C 20.512611,1025.5994 20.372131,1024.9247 20.167501,1024.3286 z m 18.82993,0.3771 c 0,0 -0.20493,1.3633 -0.89942,3.1335 -0.0683,0.3794 -0.16835,0.7558 -0.26113,1.1316 0.93744,-2.0924 1.16055,-3.7718 1.16055,-3.7718 0.15154,0.8248 0.22374,1.577 0.23211,2.2921 C 39.256221,1026.6384 39.184621,1025.7247 38.997431,1024.7056 z m -5.4836,0.057 c -0.0328,1.0774 -0.17228,2.1677 -0.40619,2.8725 -0.0366,-0.04 -0.1175,-0.339 -0.31915,-0.6384 -0.0117,-0.018 -0.0164,-0.04 -0.0291,-0.057 -0.13668,-0.2738 -0.31311,-0.5362 -0.49323,-0.8126 0,0 0.0313,0.1864 0.087,0.4354 -0.0813,-0.056 -0.16033,-0.1285 -0.26113,-0.1741 0.023,0.1641 0.0428,0.3445 0.058,0.5223 0.0744,0.037 0.13945,0.071 0.2031,0.1161 -0.0556,-0.2489 -0.087,-0.4063 -0.087,-0.4063 0.18012,0.2762 0.35655,0.5387 0.49323,0.8126 0.0127,0.018 0.0173,0.04 0.0291,0.057 0.20165,0.2994 0.28256,0.5984 0.31915,0.6383 C 33.378381,1027.3136 33.520681,1026.0044 33.513831,1024.7637 z m -23.9943903,0.2611 c -0.0961,0.1722 -0.15357,0.2769 -0.23211,0.4353 -0.004,0.017 0.004,0.041 0,0.057 -0.15608,0.7564 -0.28764,1.7003 -0.29014,2.8723 C 9.0392007,1026.8924 9.2638407,1025.8115 9.5194407,1025.0249 z m 8.5590603,2.1471 c -0.003,0.028 -0.0291,0.06 -0.0291,0.087 0,0.483 0.0198,1.2422 1.59576,2.1759 1.84722,1.0941 3.0564,0.024 4.03291,-0.2321 1.38465,-0.3623 2.42184,0.2707 2.84335,0.7544 0.0525,0.06 0.0865,0.1417 0.11606,0.2031 0.10427,-0.1863 0.0945,-0.4551 -0.11606,-0.6964 -0.42151,-0.4835 -1.4587,-1.1165 -2.84335,-0.7543 -0.97651,0.2558 -2.18569,1.3262 -4.03291,0.2322 C 18.463291,1028.2416 18.154121,1027.6339 18.078501,1027.1719 z m 14.10069,0.9864 c -0.0331,1.8169 -0.46446,3.8212 -1.4797,4.5841 -0.0809,0.3283 -0.14721,0.5998 -0.11605,0.5803 C 31.781491,1032.5684 32.221041,1030.1616 32.179191,1028.1584 z m -1.13153,2.3502 c -0.0297,-0.031 -0.0986,0.074 -0.23211,0.3191 -3.69307,5.6624 -8.00361,3.4639 -10.41594,1.8859 -0.32542,-0.027 -0.63448,-0.066 -0.95746,-0.1451 2.04951,1.3831 7.12322,5.269 11.3734,-1.2476 0.0824,-0.1514 0.134,-0.2226 0.17409,-0.2612 0.002,-0.011 -0.002,-0.019 0,-0.029 C 31.033961,1030.7993 31.080361,1030.5422 31.047661,1030.5085 z m 6.67316,2.321 c -0.3572,0.5253 -0.77863,0.9698 -1.18956,1.3637 -0.17363,0.1888 -0.37426,0.3595 -0.58027,0.5513 -0.0104,0.01 -0.0187,0.021 -0.0291,0.029 -0.19187,0.351 -0.41339,0.7039 -0.63831,1.0445 0.9037,-0.7035 1.55441,-1.4711 2.00194,-2.089 0.0217,-0.045 0.0656,-0.071 0.087,-0.1161 C 37.491831,1033.3645 37.608931,1033.0959 37.720821,1032.8296 z m -24.37156,4.7873 c 0.17395,0.2393 0.32707,0.4832 0.52224,0.7254 -0.053,-0.087 -0.10623,-0.2429 -0.17407,-0.3773 C 13.578641,1037.8485 13.465011,1037.7394 13.349261,1037.6169 z m 20.91893,1.654 c 0,0 -0.60214,0.066 -1.53774,0.057 -0.29901,0.168 -0.59421,0.3321 -0.89943,0.4642 0.42767,0.025 0.79452,0.031 1.13155,0.029 C 33.388901,1039.6707 33.817761,1039.4846 34.268191,1039.2707 z m -6.32501,1.8568 c -0.21758,0.062 -0.43768,0.1186 -0.66731,0.1741 -0.35896,0.086 -0.71437,0.1961 -1.07352,0.2611 0.15582,-4e-4 0.28751,-0.023 0.43521,-0.029 C 27.058121,1041.4228 27.502411,1041.2869 27.943181,1041.1275 z m -2.84334,1.1895 c -0.28913,0.041 -0.59238,0.094 -0.87042,0.1161 0.0344,0.017 0.0537,0.013 0.087,0.029 0.43296,0.044 0.88549,0.085 1.36365,0.087 C 25.680111,1042.5493 25.434941,1042.452 25.099841,1042.3171 Z"
       id="path1597"
       inkscape:connector-curvature="0" />
    <path
       style="fill:#000000;fill-opacity:0.0994152"
       d="m 21.066921,1023.517 c -0.22436,0.022 -0.43243,0.02 -0.69633,0.058 -0.27012,0.039 -0.51555,0.1889 -0.69632,0.3191 0.0605,0.1165 0.0963,0.2582 0.14506,0.3771 0.10493,0.1458 0.19011,0.2232 0.23211,0.2322 0.0337,-0.067 0.10365,-0.1115 0.14507,-0.1741 C 20.417401,1023.9964 20.729531,1023.7169 21.066921,1023.517 Z"
       id="path265"
       inkscape:connector-curvature="0"
       sodipodi:nodetypes="cccccsc" />
    <path
       style="fill:#000000;fill-opacity:0.0994152"
       d="m 21.734231,1021.5441 c 0.13327,0.072 0.36362,0.2011 0.6093,0.4352 0.25346,0.2412 0.32186,0.5002 0.34816,0.7544 0.051,-0.1094 0.0288,-0.2118 0.087,-0.4062 0.0482,-0.1607 0.1,-0.511 -0.34816,-0.6963 -0.0141,0 -0.0433,0 -0.058,0 C 22.206341,1021.6062 22.010021,1021.5692 21.734231,1021.5441 Z"
       id="path377"
       inkscape:connector-curvature="0" />
    <path
       style="fill:#ffffff;fill-opacity:0.50292394"
       d="m 27.478971,1016.2055 c 0.0542,0.011 0.0554,0.016 0.11605,0.029 0.0299,0 0.0573,0.026 0.087,0.029 0.0524,0.01 0.0934,0.023 0.14507,0.029 3.56005,0.437 5.43842,2.1057 6.41204,3.3945 0.12817,0.099 0.28952,0.2177 0.37718,0.2902 -0.71689,-1.1331 -2.23344,-2.8555 -5.25149,-3.6267 -0.0387,-0.01 -0.0779,-0.024 -0.11606,-0.029 -0.0263,-0.01 -0.0605,0.01 -0.087,0 C 28.490561,1016.2355 27.890421,1016.2125 27.478971,1016.2055 z m -7.51457,1.7988 c -0.61924,0.4738 -0.9433,1.1613 -0.98647,2.089 0.0978,-0.9725 0.54621,-1.6453 1.33464,-2.089 0.0466,-0.026 -0.0764,-0.029 -0.31915,0 C 19.985681,1018.0053 19.972301,1018.0034 19.964401,1018.0043 z m 9.28441,0.057 c 2.18549,0.7006 3.75644,1.9646 4.6422,3.3656 0.95607,1.796 1.44279,3.5726 1.53773,5.2517 -0.0615,-1.7497 -0.53667,-3.6032 -1.53773,-5.4837 -0.77144,-1.2203 -2.06557,-2.3448 -3.82982,-3.0755 -0.009,0 -0.0197,0 -0.0291,0 C 29.778271,1018.0864 29.520461,1018.0731 29.248811,1018.0624 z m 5.51262,0.7254 c 0.0283,0.102 0.0376,0.2684 0.058,0.4063 0.019,0.04 0.0404,0.075 0.058,0.1159 -0.0138,-0.1909 -0.032,-0.3183 -0.058,-0.4641 C 34.801911,1018.8243 34.778591,1018.809 34.761431,1018.7878 z m 0.95745,0.4063 c 0.009,0.035 0.0206,0.082 0.0291,0.1159 0.0474,0.1872 0.0906,0.3724 0.11605,0.5223 0.0115,0.069 0.0214,0.171 0.0291,0.2322 0.009,0.077 0.0245,0.1694 0.029,0.2322 1.4e-4,-0.051 0.005,-0.156 0,-0.2322 -0.005,-0.062 -0.0197,-0.155 -0.029,-0.2322 -0.008,-0.061 -0.0175,-0.1624 -0.0291,-0.2321 -0.0172,-0.1006 -0.0581,-0.226 -0.087,-0.3481 C 35.756271,1019.2369 35.740891,1019.2097 35.718881,1019.194 z m 1.65378,0.377 c 0,0 0.0324,0.1367 0.058,0.3773 -0.003,-0.034 0.003,-0.085 0,-0.1161 C 37.407091,1019.7479 37.397911,1019.6542 37.372661,1019.5711 z m -21.78934,0.8705 c -1.87847,0.1534 -2.66352,1.4482 -2.84336,3.4236 0.30484,-2.5924 1.75594,-3.9116 5.51262,-2.8434 l 0.92845,1.1606 c -0.0238,-0.1007 -0.0381,-0.1932 -0.058,-0.29 l -0.87041,-1.1026 C 17.179251,1020.4845 16.306551,1020.3825 15.583321,1020.4415 z m -4.75825,0.087 c 10e-5,0.069 -0.003,0.1317 0,0.203 0.0485,0.1377 0.11977,0.2841 0.14506,0.4352 C 11.001071,1020.9592 10.896811,1020.7297 10.825071,1020.5286 z m -1.0445003,3.9168 c -0.24954,0.4218 -0.44683,0.8381 -0.58028,1.1317 -0.008,0.03 -0.021,0.057 -0.0291,0.087 -0.0552,0.2041 -0.13345,0.4183 -0.17408,0.6093 0,0 0.2378,-0.5909 0.60928,-1.2766 C 9.6581607,1024.8041 9.7226007,1024.6058 9.7805707,1024.4456 z m 9.9227003,1.4798 c -0.58569,-0.061 -1.32737,0.1177 -2.90138,0.5512 -0.0328,0.01 -0.0442,0 -0.058,-0.029 -0.0455,0.1742 -0.0161,0.2815 0.058,0.2611 2.09868,-0.5781 2.6952,-0.6937 3.45265,-0.4062 -0.004,-0.051 -0.0197,-0.16 -0.0291,-0.2321 C 20.046361,1026.0043 19.888901,1025.9447 19.703271,1025.9252 z m 19.14909,1.5088 c -9.4e-4,0.03 -0.0278,0.057 -0.0291,0.087 -0.012,0.2797 -0.003,0.5756 -0.0291,0.8415 C 38.820311,1028.0573 38.845381,1027.7571 38.852361,1027.434 z m -0.058,0.9284 c -0.25478,2.5685 -1.163,4.4711 -2.14702,5.8316 -0.0149,0.021 -0.043,0.039 -0.058,0.058 -0.22488,0.2187 -0.43812,0.4271 -0.66731,0.6093 -0.19187,0.3511 -0.4134,0.704 -0.6383,1.0446 0.10994,-0.085 0.19288,-0.1765 0.29013,-0.2612 0.11504,-0.1859 0.24599,-0.3643 0.34817,-0.5512 0.22919,-0.1825 0.44243,-0.3906 0.66731,-0.6094 0.015,-0.021 0.0431,-0.038 0.058,-0.057 C 37.656501,1033.0308 38.567161,1031.0305 38.794341,1028.3624 z m -0.89942,-0.6674 c -0.0808,0.9847 -0.19203,1.9462 -0.31915,2.9014 0.0122,-0.019 0.0171,-0.039 0.0291,-0.057 C 37.724911,1029.6075 37.820751,1028.65 37.894911,1027.695 z m -25.271,0.8707 c 0.0247,0.1068 0.0526,0.2146 0.087,0.3192 0.0812,0.07 0.16889,0.1307 0.26112,0.2031 0.24595,0.1927 0.56607,0.3966 0.89943,0.5801 0.17183,0.096 0.35261,0.198 0.55126,0.2903 -0.097,-0.1171 -0.17083,-0.2526 -0.26112,-0.3772 -0.0956,-0.051 -0.20069,-0.095 -0.29014,-0.1451 -0.33336,-0.1836 -0.65348,-0.3875 -0.89943,-0.5802 C 12.845641,1028.7564 12.729931,1028.6673 12.623911,1028.5655 z m -3.3365803,0.3482 c -0.007,0.036 -0.023,0.082 -0.0291,0.1161 6.8e-4,0.01 -7.2e-4,0.02 0,0.029 -0.0175,0.098 -0.0453,0.2392 -0.058,0.319 -0.0105,0.061 -0.0199,0.1175 -0.0291,0.1741 -0.009,0.049 -0.0223,0.1015 -0.029,0.1451 9.3e-4,0.08 -0.002,0.1496 0,0.2321 0.007,-0.043 0.0198,-0.097 0.029,-0.1451 0.009,-0.056 0.0186,-0.1128 0.0291,-0.1741 0.0128,-0.08 0.0405,-0.2209 0.058,-0.3191 -7.2e-4,-0.01 6.8e-4,-0.021 0,-0.029 0.006,-0.034 0.0224,-0.081 0.0291,-0.1162 0.0521,0.3924 0.1277,0.7993 0.23211,1.2186 0.007,0.032 0.0212,0.055 0.0291,0.087 0.11921,0.4652 0.2504,0.9384 0.43521,1.4506 0,0 -0.0435,-0.2632 -0.087,-0.5223 -0.13202,-0.3983 -0.2528,-0.7883 -0.34817,-1.1606 -0.007,-0.032 -0.0215,-0.056 -0.0291,-0.087 C 9.4150307,1029.713 9.3395007,1029.3058 9.2873307,1028.9136 z m 0.4352,0.3191 c 9.4e-4,0.083 -0.003,0.1516 0,0.2321 0.004,0.019 0.0249,0.039 0.0291,0.057 0.0739,0.3378 0.16371,0.7021 0.2901303,1.1026 10e-6,-0.074 -0.002,-0.1599 0,-0.2321 C 9.9082207,1029.9705 9.7967607,1029.586 9.7225307,1029.2328 z m 14.2747803,0.6673 c -0.33432,0.02 -0.61863,0.042 -0.92844,0.087 -0.30828,0.1382 -0.58382,0.2925 -0.72535,0.3482 0,0 1.64855,-0.3053 2.26308,-0.2031 0.83292,0.1386 1.1122,1.0564 1.50871,0.6673 0.0566,-0.055 0.0638,-0.1846 0.0291,-0.3192 -0.0109,0.033 -0.008,0.066 -0.0291,0.087 -0.39651,0.3891 -0.67579,-0.5286 -1.50871,-0.6674 C 24.452981,1029.8746 24.238281,1029.8859 23.997321,1029.9001 z m -4.6422,0.8996 c 0.17229,0.9648 0.71342,1.4517 1.0445,1.6827 0.87261,0.2615 2.77998,0.026 3.5977,-0.5803 0.55094,-0.4096 0.95551,-0.7124 1.30562,-0.8415 -0.0773,-0.053 -0.14148,-0.093 -0.20309,-0.116 -0.30649,0.155 -0.64888,0.3881 -1.10253,0.7254 -0.81772,0.6063 -2.72509,0.8418 -3.5977,0.5802 -0.29024,-0.2024 -0.73437,-0.6182 -0.95746,-1.3637 C 19.419561,1030.8662 19.355111,1030.7996 19.355111,1030.7996 z m -5.77374,0.7252 c 0.0486,0.1075 0.0953,0.212 0.14506,0.3192 0.22223,0.131 0.45547,0.2521 0.72535,0.3772 0,0 -0.13627,-0.2041 -0.26113,-0.3772 C 13.979381,1031.7377 13.761261,1031.6369 13.581371,1031.5248 z m -3.48165,0.1451 c 0.0432,0.5282 0.10493,1.0923 0.26112,1.7118 0.10963,0.2484 0.18878,0.4963 0.31915,0.7544 0.0661,0.1309 0.13156,0.2437 0.2031,0.3771 0.0136,0.026 0.0443,0.09 0.058,0.1161 0.0443,0.081 0.0988,0.1496 0.14507,0.232 0.0417,0.074 0.0724,0.1283 0.11605,0.203 0.005,0.01 0.0246,0.021 0.0291,0.029 0.0897,0.1531 0.16784,0.2872 0.26113,0.4352 0.0971,0.1557 0.18946,0.3432 0.29014,0.4932 0.0733,0.1092 0.15701,0.1841 0.23211,0.2902 0.46277,0.9221 1.07621,1.8749 1.85688,2.8434 -0.0779,-0.1279 -0.15391,-0.3269 -0.26112,-0.5514 -0.0133,-0.028 -0.0444,-0.058 -0.058,-0.087 -0.62495,-0.8226 -1.14268,-1.65 -1.53774,-2.4372 -0.0751,-0.106 -0.15883,-0.1809 -0.2321,-0.29 -0.10068,-0.1501 -0.19301,-0.3375 -0.29015,-0.4933 -0.0933,-0.1481 -0.17142,-0.2821 -0.26111,-0.4352 -0.005,-0.01 -0.0243,-0.02 -0.0291,-0.029 -0.0437,-0.075 -0.0743,-0.1287 -0.11605,-0.2031 -0.0463,-0.082 -0.10085,-0.1513 -0.14507,-0.232 -0.0138,-0.026 -0.0445,-0.09 -0.058,-0.1162 -0.0715,-0.1334 -0.137,-0.2463 -0.2031,-0.3771 -0.13038,-0.2581 -0.20952,-0.506 -0.31915,-0.7542 C 10.228631,1032.6256 10.148591,1032.1283 10.099721,1031.67 z m 2.49518,1.3927 c 0.0404,0.1612 0.0959,0.3119 0.14506,0.4642 0.0162,0.03 0.0381,0.055 0.058,0.087 0.16108,0.2514 0.33182,0.4896 0.52226,0.7543 0.26835,0.3754 0.56779,0.759 0.89942,1.1606 0.31148,0.3771 0.67166,0.7617 1.0445,1.1606 0.0423,0.045 0.0728,0.1 0.11605,0.1451 0.20593,0.2173 0.44197,0.4439 0.66732,0.6672 0.19479,0.1202 0.382,0.2407 0.58027,0.3482 -0.0422,-0.04 -0.0743,-0.076 -0.11605,-0.1161 -0.40582,-0.3857 -0.78235,-0.7628 -1.13154,-1.1314 -0.0432,-0.045 -0.0737,-0.1 -0.11605,-0.1452 -0.37284,-0.3988 -0.73302,-0.7833 -1.0445,-1.1605 -0.33163,-0.4016 -0.63107,-0.7852 -0.89942,-1.1606 -0.19044,-0.2647 -0.36118,-0.503 -0.52226,-0.7543 -0.0448,-0.069 -0.0734,-0.1343 -0.11605,-0.2031 C 12.657641,1033.1397 12.618531,1033.1016 12.594901,1033.0626 z m 24.80677,1.1025 c -0.0972,0.066 -0.19437,0.134 -0.29014,0.2029 -2.27775,3.4741 -4.81827,5.2703 -7.1664,6.1219 0.16849,0.01 0.32491,0.019 0.49324,0.029 C 32.747201,1039.5616 35.208081,1037.6861 37.401671,1034.1652 z m -24.13946,3.4526 c 0.0694,0.1664 0.13596,0.294 0.2031,0.4352 0.90478,0.9317 1.89924,1.6855 2.9594,2.2921 0.019,0.01 0.039,0.019 0.058,0.029 0.0117,0.01 0.0173,0.022 0.0291,0.029 0.32435,0.1822 0.65008,0.37 0.98646,0.5222 0.25226,0.1827 0.51341,0.3346 0.78338,0.4933 0.0859,0.051 0.1732,0.096 0.26113,0.145 0.15354,0.084 0.30268,0.1827 0.46421,0.2612 0.10552,0.051 0.21085,0.097 0.31916,0.1451 0.67394,0.2948 1.39342,0.5203 2.17602,0.6673 0.289,0.1073 0.58253,0.2025 0.89943,0.2901 0.31702,0.087 0.63949,0.1698 0.98647,0.2321 0.70136,0.1301 1.45548,0.1999 2.2921,0.2031 0,0 -0.15525,-0.047 -0.4062,-0.145 -0.0638,-0.025 -0.18475,-0.083 -0.26112,-0.1161 -0.57041,-0.029 -1.12009,-0.081 -1.62478,-0.1741 -0.34698,-0.062 -0.66945,-0.1458 -0.98647,-0.2321 -0.3169,-0.087 -0.61043,-0.1827 -0.89943,-0.2901 -0.7826,-0.147 -1.50208,-0.3725 -2.17602,-0.6674 -0.10831,-0.049 -0.21364,-0.094 -0.31916,-0.145 -0.16153,-0.079 -0.31067,-0.1767 -0.46421,-0.2614 -0.0879,-0.05 -0.17529,-0.094 -0.26113,-0.145 -0.26997,-0.1584 -0.53112,-0.3102 -0.78338,-0.4932 -0.33638,-0.1523 -0.66211,-0.3401 -0.98646,-0.5223 -0.0117,-0.01 -0.0173,-0.02 -0.0291,-0.029 -0.019,-0.01 -0.039,-0.019 -0.058,-0.029 C 15.284771,1039.4607 14.220391,1038.6504 13.262211,1037.6177 z m 18.13361,3.1913 c -0.0673,0.015 -0.13726,0.046 -0.2031,0.058 -0.5408,0.1035 -1.04494,0.1582 -1.53773,0.174 -0.34942,0.01 -0.6889,0 -1.01548,-0.029 -0.43169,0.1476 -0.89248,0.2632 -1.36365,0.3771 -0.35895,0.086 -0.71437,0.1962 -1.07351,0.2614 0.44678,0 0.8755,-0.041 1.2476,-0.087 0.0278,-0.01 0.0593,0.01 0.087,0 0.37848,-0.094 0.75233,-0.1995 1.10252,-0.3191 0.10255,0.01 0.21415,-0.01 0.31915,0 0.0204,-0.01 0.0716,0.01 0.087,0 0.20196,0.01 0.39953,0.036 0.60929,0.029 0.49278,-0.016 0.99692,-0.07 1.53774,-0.1741 0.30731,-0.058 0.63327,-0.1415 0.95744,-0.2321 C 31.913621,1040.851 31.645611,1040.8262 31.395821,1040.8093 z m -2.11801,0.5803 c 0,0 -0.54146,0.1746 -1.36364,0.3192 -0.01,0 -0.0193,0 -0.029,0 -1.313,0.4688 -2.52517,0.7233 -3.65573,0.8124 0.16588,0.08 0.26301,0.1095 0.40619,0.1741 C 26.047381,1042.5411 27.596211,1042.1675 29.277821,1041.3895 Z"
       id="path2311"
       inkscape:connector-curvature="0" />
  </g>
</svg>
