<?xml version="1.0" encoding="UTF-8" standalone="no"?>
<!-- Created with Inkscape (http://www.inkscape.org/) -->

<svg
   xmlns:dc="http://purl.org/dc/elements/1.1/"
   xmlns:cc="http://creativecommons.org/ns#"
   xmlns:rdf="http://www.w3.org/1999/02/22-rdf-syntax-ns#"
   xmlns:svg="http://www.w3.org/2000/svg"
   xmlns="http://www.w3.org/2000/svg"
   xmlns:xlink="http://www.w3.org/1999/xlink"
   xmlns:sodipodi="http://sodipodi.sourceforge.net/DTD/sodipodi-0.dtd"
   xmlns:inkscape="http://www.inkscape.org/namespaces/inkscape"
   width="48"
   height="48"
   id="svg2"
   version="1.1"
   inkscape:version="0.48+devel r12137"
   sodipodi:docname="geary.svg"
   inkscape:export-filename="/home/uri/Iconos/NITRUX-Buttons/apps/16/geary.png"
   inkscape:export-xdpi="30"
   inkscape:export-ydpi="30">
  <defs
     id="defs4">
    <linearGradient
       inkscape:collect="always"
       xlink:href="#linearGradient897"
       id="linearGradient1474"
       x1="23.812502"
       y1="1051.1122"
       x2="23.812502"
       y2="1005.9872"
       gradientUnits="userSpaceOnUse"
       gradientTransform="translate(-7.2883606e-8,3.3482813e-5)" />
    <linearGradient
       inkscape:collect="always"
       xlink:href="#linearGradient897"
       id="linearGradient1486"
       gradientUnits="userSpaceOnUse"
       gradientTransform="matrix(1.5941642,0,0,1.5941642,-14.259948,975.42411)"
       x1="26.465649"
       y1="47.386829"
       x2="26.465649"
       y2="19.277683" />
    <linearGradient
       inkscape:collect="always"
       xlink:href="#linearGradient897"
       id="linearGradient1489"
       gradientUnits="userSpaceOnUse"
       gradientTransform="matrix(1.5941642,0,0,-1.5941642,-14.259948,1081.3003)"
       x1="26.465649"
       y1="19.08046"
       x2="26.465649"
       y2="47.270409" />
    <linearGradient
       inkscape:collect="always"
       id="linearGradient897">
      <stop
         style="stop-color:#000000;stop-opacity:1"
         offset="0"
         id="stop899" />
      <stop
         style="stop-color:#333333;stop-opacity:1"
         offset="1"
         id="stop901" />
    </linearGradient>
    <radialGradient
       inkscape:collect="always"
       xlink:href="#linearGradient866"
       id="radialGradient872"
       cx="24"
       cy="1028.3621"
       fx="24"
       fy="1028.3621"
       r="7.4575534"
       gradientTransform="translate(0,0.00610748)"
       gradientUnits="userSpaceOnUse" />
    <linearGradient
       inkscape:collect="always"
       id="linearGradient866">
      <stop
         style="stop-color:#aa0000;stop-opacity:1"
         offset="0"
         id="stop868" />
      <stop
         style="stop-color:#800000;stop-opacity:1"
         offset="1"
         id="stop870" />
    </linearGradient>
    <radialGradient
       inkscape:collect="always"
       xlink:href="#linearGradient874"
       id="radialGradient880"
       cx="24.002916"
       cy="1028.2343"
       fx="24.002916"
       fy="1028.2343"
       r="6.6728716"
       gradientTransform="matrix(1,0,0,1.0186109,0,-19.130693)"
       gradientUnits="userSpaceOnUse" />
    <linearGradient
       inkscape:collect="always"
       id="linearGradient874">
      <stop
         style="stop-color:#ff5555;stop-opacity:1"
         offset="0"
         id="stop876" />
      <stop
         style="stop-color:#aa0000;stop-opacity:1"
         offset="1"
         id="stop878" />
    </linearGradient>
    <radialGradient
       inkscape:collect="always"
       xlink:href="#linearGradient866"
       id="radialGradient888"
       cx="24.002916"
       cy="1028.2343"
       fx="24.002916"
       fy="1028.2343"
       r="5.8987465"
       gradientTransform="matrix(1,0,0,1.0186097,0,-19.129493)"
       gradientUnits="userSpaceOnUse" />
  </defs>
  <sodipodi:namedview
     id="base"
     pagecolor="#ffffff"
     bordercolor="#666666"
     borderopacity="1.0"
     inkscape:pageopacity="0.0"
     inkscape:pageshadow="2"
     inkscape:zoom="7.9999996"
     inkscape:cx="17.476692"
     inkscape:cy="19.850954"
     inkscape:document-units="px"
     inkscape:current-layer="layer1"
     showgrid="false"
     inkscape:window-width="1366"
     inkscape:window-height="714"
     inkscape:window-x="0"
     inkscape:window-y="30"
     inkscape:window-maximized="1">
    <inkscape:grid
       type="xygrid"
       id="grid3850" />
  </sodipodi:namedview>
  <metadata
     id="metadata7">
    <rdf:RDF>
      <cc:Work
         rdf:about="">
        <dc:format>image/svg+xml</dc:format>
        <dc:type
           rdf:resource="http://purl.org/dc/dcmitype/StillImage" />
        <dc:title />
      </cc:Work>
    </rdf:RDF>
  </metadata>
  <g
     inkscape:label="Capa 1"
     inkscape:groupmode="layer"
     id="layer1"
     transform="translate(0,-1004.3622)">
    <rect
       style="color:#000000;fill:#333333;fill-opacity:1;fill-rule:nonzero;stroke:none;stroke-width:0.2;marker:none;visibility:visible;display:inline;overflow:visible;enable-background:accumulate"
       id="rect6294"
       width="45.5"
       height="45.5"
       x="1.25"
       y="1005.6122"
       ry="6.3565426" />
    <path
       inkscape:connector-curvature="0"
       style="fill:url(#linearGradient1474);fill-opacity:1.0;stroke:none"
       d="m 7.5937499,1006.1122 c -3.2445246,0 -5.84375,2.5992 -5.84375,5.8438 l 0,32.8125 c 0,3.2445 2.5992254,5.8437 5.84375,5.8437 l 32.8125001,0 c 3.244525,0 5.84375,-2.5992 5.84375,-5.8437 l 0,-32.8125 c 0,-3.2446 -2.599225,-5.8438 -5.84375,-5.8438 L 7.5937499,1006.1122 Z"
       id="rect2991" />
    <path
       inkscape:connector-curvature="0"
       style="color:#000000;fill:#000000;fill-opacity:0.30337123;fill-rule:nonzero;stroke:none;stroke-width:0.2;marker:none;visibility:visible;display:inline;overflow:visible;enable-background:accumulate"
       d="m 24,1021.3935 -22.2500001,17.4062 0,5.9688 c 0,3.2445 2.5992254,5.8437 5.84375,5.8437 l 32.8125001,0 c 3.244525,0 5.84375,-2.5992 5.84375,-5.8437 l 0,-5.9688 L 24,1021.3935 Z"
       id="path1482" />
    <path
       inkscape:connector-curvature="0"
       style="color:#000000;fill:url(#linearGradient1486);fill-opacity:1;fill-rule:nonzero;stroke:none;stroke-width:0.2;marker:none;visibility:visible;display:inline;overflow:visible;enable-background:accumulate"
       d="m 24,1022.0497 -22.2500001,17.375 0,5.3438 c 0,3.2445 2.5992254,5.8437 5.84375,5.8437 l 32.8125001,0 c 3.244525,0 5.84375,-2.5992 5.84375,-5.8437 l 0,-5.3438 L 24,1022.0497 Z"
       id="path1484" />
    <path
       inkscape:connector-curvature="0"
       style="color:#000000;fill:#000000;fill-opacity:0.30337123;fill-rule:nonzero;stroke:none;stroke-width:0.2;marker:none;visibility:visible;display:inline;overflow:visible;enable-background:accumulate"
       d="m 7.5937499,1006.1122 c -3.2445246,0 -5.84375,2.5992 -5.84375,5.8438 l 0,5.9687 L 24,1035.331 l 22.25,-17.4063 0,-5.9687 c 0,-3.2446 -2.599225,-5.8438 -5.84375,-5.8438 L 7.5937499,1006.1122 Z"
       id="path1485" />
    <path
       inkscape:connector-curvature="0"
       style="color:#000000;fill:url(#linearGradient1489);fill-opacity:1;fill-rule:nonzero;stroke:none;stroke-width:0.2;marker:none;visibility:visible;display:inline;overflow:visible;enable-background:accumulate"
       d="m 7.5937499,1006.1122 c -3.2445246,0 -5.84375,2.5992 -5.84375,5.8438 l 0,5.3437 L 24,1034.6747 l 22.25,-17.375 0,-5.3437 c 0,-3.2446 -2.599225,-5.8438 -5.84375,-5.8438 L 7.5937499,1006.1122 Z"
       id="path1487" />
    <g
       id="g1110">
      <path
         inkscape:connector-curvature="0"
         id="path990"
         d="m 24,1022.0497 -22.25,17.4063 0,0.875 22.25,-17.4063 22.25,17.4063 0,-0.875 L 24,1022.0497 Z"
         style="color:#000000;fill:#ffffff;fill-opacity:0.05882353;fill-rule:nonzero;stroke:none;stroke-width:0.2;marker:none;visibility:visible;display:inline;overflow:visible;enable-background:accumulate" />
      <path
         style="color:#000000;fill:#ffffff;fill-opacity:0.05882353;fill-rule:nonzero;stroke:none;stroke-width:0.2;marker:none;visibility:visible;display:inline;overflow:visible;enable-background:accumulate"
         d="m 24,1034.6747 -22.25,-17.4063 0,-0.875 22.25,17.4063 22.25,-17.4063 0,0.875 L 24,1034.6747 Z"
         id="path1108"
         inkscape:connector-curvature="0" />
    </g>
    <path
       id="path6361"
       d="m 1.7500006,1012.5498 0,-0.5625 c 0,-3.2445 2.5992,-5.875 5.8438,-5.875 l 32.8125004,0 c 3.2445,0 5.8437,2.6305 5.8437,5.875 l 0,0.5625 c 0,-3.2445 -2.5992,-5.875 -5.8437,-5.875 l -32.8125004,0 C 4.3492006,1006.6748 1.7500006,1009.3053 1.7500006,1012.5498 Z"
       style="color:#000000;fill:#ffffff;fill-opacity:1;fill-rule:nonzero;stroke:none;stroke-width:0.2;marker:none;visibility:visible;display:inline;overflow:visible;enable-background:accumulate"
       inkscape:connector-curvature="0" />
    <path
       inkscape:connector-curvature="0"
       style="color:#000000;fill:#000000;fill-opacity:1;fill-rule:nonzero;stroke:none;stroke-width:0.2;marker:none;visibility:visible;display:inline;overflow:visible;enable-background:accumulate"
       d="m 1.7500006,1044.1748 0,0.5625 c 0,3.2445 2.5992,5.875 5.8438,5.875 l 32.8125004,0 c 3.2445,0 5.8437,-2.6305 5.8437,-5.875 l 0,-0.5625 c 0,3.2445 -2.5992,5.875 -5.8437,5.875 l -32.8125004,0 C 4.3492006,1050.0498 1.7500006,1047.4193 1.7500006,1044.1748 Z"
       id="path6388" />
    <path
       style="color:#000000;fill:url(#radialGradient872);fill-opacity:1;fill-rule:nonzero;stroke:none;stroke-width:0.2;marker:none;visibility:visible;display:inline;overflow:visible;enable-background:accumulate"
       d="m 31.457554,1028.3678 c 0,1.4413 -0.50746,2.7872 -1.215576,3.9278 -0.447339,0.7206 -0.741196,1.6208 -1.429809,2.1049 -1.33619,0.9392 -3.045351,1.4248 -4.812169,1.4248 -0.792942,0 -1.754111,-0.7644 -2.470983,-0.9936 -1.477904,-0.4727 -2.558215,-0.753 -3.47519,-1.9623 -0.266331,-0.3513 -0.107989,-1.1211 -0.309582,-1.5171 -0.516391,-1.0143 -1.201798,-1.7683 -1.201798,-2.9845 0,-1.5324 0.659333,-2.5626 1.451933,-3.7473 1.337684,-1.9995 3.41934,-3.7103 6.00562,-3.7103 1.929603,0 3.688039,0.7329 5.012161,1.9354 0.566201,0.5143 0.806573,1.6565 1.193374,2.3219 C 30.844957,1026.2675 31.457554,1027.0038 31.457554,1028.3678 Z"
       id="path1002"
       inkscape:connector-curvature="0"
       sodipodi:nodetypes="sssssssssssss" />
    <path
       inkscape:connector-curvature="0"
       style="color:#000000;fill:#ffffff;fill-opacity:0.14035088;fill-rule:nonzero;stroke:none;stroke-width:0.2;marker:none;visibility:visible;display:inline;overflow:visible;enable-background:accumulate"
       d="m 24,1020.8991 c -2.58628,0 -4.662316,1.7192 -6,3.7187 -0.7926,1.1847 -1.46875,2.2176 -1.46875,3.75 0,0.098 0.02279,0.1889 0.03125,0.2813 0.09036,-1.3477 0.705564,-2.3123 1.4375,-3.4063 1.337684,-1.9995 3.41372,-3.7187 6,-3.7187 1.929603,0 3.675878,0.735 5,1.9375 0.566201,0.5143 0.831949,1.6471 1.21875,2.3125 0.579398,0.9967 1.119213,1.7066 1.21875,2.8437 0.0035,-0.084 0.03125,-0.1649 0.03125,-0.25 0,-1.364 -0.610578,-2.0875 -1.25,-3.1875 C 29.831949,1024.5149 29.566201,1023.3509 29,1022.8366 27.675878,1021.6341 25.929603,1020.8991 24,1020.8991 Z"
       id="path962" />
    <path
       id="path895"
       d="m 24,1022.5866 c -3.187369,0 -5.78125,2.5939 -5.78125,5.7812 0,3.1873 2.593881,5.7813 5.78125,5.7813 3.187369,0 5.78125,-2.594 5.78125,-5.7813 C 29.78125,1025.1805 27.187369,1022.5866 24,1022.5866 z m 0,0.1889 c 3.087691,0 5.59232,2.5046 5.59232,5.5923 0,3.0877 -2.504629,5.5923 -5.59232,5.5923 -3.087691,0 -5.59232,-2.5046 -5.59232,-5.5923 C 18.40768,1025.2801 20.912309,1022.7755 24,1022.7755 Z"
       style="fill:#000000;fill-opacity:0.08187136;stroke:none"
       inkscape:connector-curvature="0" />
    <path
       style="color:#000000;fill:url(#radialGradient880);fill-opacity:1;fill-rule:nonzero;stroke:none;stroke-width:0.2;marker:none;visibility:visible;display:inline;overflow:visible;enable-background:accumulate"
       d="m 30.669026,1028.3678 c 0.08449,1.0991 -0.641842,1.694 -1.109289,2.6098 -0.492827,0.9655 -0.603666,2.1802 -1.408237,2.8989 -0.982288,0.8773 -2.732688,1.1604 -4.1515,1.1604 -0.73478,0 -1.242803,-0.7596 -1.901285,-0.9791 -0.61826,-0.2061 -1.452582,0.1256 -1.990972,-0.1893 -0.904754,-0.529 -1.358322,-1.9607 -1.829254,-2.9587 -0.446477,-0.9463 -0.933488,-1.4429 -0.947513,-2.542 -0.01887,-1.4785 0.248076,-2.4248 0.917695,-3.2071 0.508484,-0.5941 0.904182,-1.685 1.928227,-2.2513 0.918891,-0.5081 2.410922,-0.4785 3.823102,-1.2106 1.014442,-0.5259 2.351901,-0.1946 3.263563,0.566 0.516787,0.4312 0.662624,1.0672 1.116755,1.597 0.583533,0.6809 0.615791,1.4811 1.01704,2.1834 C 29.819071,1026.7832 30.59682,1027.4286 30.669026,1028.3678 Z"
       id="path1004"
       inkscape:connector-curvature="0"
       sodipodi:nodetypes="sssssssssssssss" />
    <path
       sodipodi:nodetypes="sssssssssssssss"
       inkscape:connector-curvature="0"
       id="path1007"
       d="m 29.895685,1028.353 c 0.07469,0.9715 -0.567381,1.4974 -0.980599,2.307 -0.435654,0.8535 -0.533634,1.9273 -1.244866,2.5625 -0.868331,0.7756 -2.415667,1.0258 -3.669881,1.0258 -0.649538,0 -1.098625,-0.6714 -1.680716,-0.8655 -0.546535,-0.1821 -1.284067,0.111 -1.759998,-0.1673 -0.799793,-0.4676 -1.200742,-1.7332 -1.617041,-2.6155 -0.394681,-0.8364 -0.825193,-1.2755 -0.837591,-2.247 -0.01668,-1.3071 0.219297,-2.1436 0.811232,-2.8352 0.449494,-0.5251 0.799287,-1.4895 1.704533,-1.99 0.812289,-0.4492 2.131228,-0.4231 3.379581,-1.0702 0.896756,-0.4649 2.079054,-0.1721 2.884955,0.5003 0.456834,0.3812 0.585752,0.9434 0.987198,1.4118 0.515837,0.6019 0.544353,1.3093 0.899052,1.93 C 29.144334,1026.9522 29.831856,1027.5226 29.895685,1028.353 Z"
       style="color:#000000;fill:url(#radialGradient888);fill-opacity:1;fill-rule:nonzero;stroke:none;stroke-width:0.2;marker:none;visibility:visible;display:inline;overflow:visible;enable-background:accumulate" />
    <g
       id="g971"
       transform="matrix(1.0958212,0,0,1.0958212,-2.299709,-98.533293)">
      <path
         id="path890"
         transform="translate(0,1004.3622)"
         d="m 24,19.21875 c -2.636039,0 -4.78125,2.145211 -4.78125,4.78125 0,2.636039 2.145211,4.78125 4.78125,4.78125 2.636039,0 4.78125,-2.145211 4.78125,-4.78125 C 28.78125,21.363961 26.636039,19.21875 24,19.21875 z m 0,0.15625 c 2.553604,0 4.625,2.071396 4.625,4.625 0,2.553604 -2.071396,4.625 -4.625,4.625 -2.553604,0 -4.625,-2.071396 -4.625,-4.625 C 19.375,21.446396 21.446396,19.375 24,19.375 Z"
         style="fill:#000000;fill-opacity:0.08187136;stroke:none"
         inkscape:connector-curvature="0" />
      <path
         inkscape:connector-curvature="0"
         style="fill:#000000;fill-opacity:0.08187136;stroke:none"
         d="m 24,1024.1997 c -2.294923,0 -4.162533,1.8676 -4.162533,4.1625 0,2.295 1.86761,4.1626 4.162533,4.1626 2.294922,0 4.162533,-1.8676 4.162533,-4.1626 C 28.162533,1026.0673 26.294922,1024.1997 24,1024.1997 z m 0,0.136 c 2.223155,0 4.026502,1.8035 4.026502,4.0265 0,2.2231 -1.803347,4.0264 -4.026502,4.0264 -2.223156,0 -4.026503,-1.8033 -4.026503,-4.0264 C 19.973497,1026.1391 21.776844,1024.3357 24,1024.3357 Z"
         id="path967" />
    </g>
    <g
       id="layer1-6"
       transform="matrix(0.07773278,0,0,0.07773274,18.922577,951.50284)"
       style="fill:#000000;fill-opacity:0.32748539">
      <path
         inkscape:connector-curvature="0"
         style="fill:#000000;fill-opacity:0.32748539;stroke:none"
         id="path2993"
         d="m 64,940.36218 c -26.509667,0 -48,21.49034 -48,48 0,26.50972 21.490333,48.00002 48,48.00002 26.509664,0 48,-21.4903 48,-48.00002 C 112,961.85252 90.509664,940.36218 64,940.36218 z m 0,4 c 20.15479,0 37.14462,13.55176 42.355,32.04 -4.4877,9.25637 -10.873381,17.59038 -18.650002,24.32502 -3.735795,3.2352 -7.814534,6.1193 -12.32,8.15 -4.505465,2.0307 -9.461145,3.1829 -14.394998,2.9 -3.706902,-0.2126 -7.368725,-1.2452 -10.615,-3.045 8.603218,-4.6618 16.365742,-10.87737 22.720002,-18.32002 4.170803,-4.88521 7.819942,-10.43709 9.224998,-16.705 0.702528,-3.13395 0.821581,-6.4161 0.164998,-9.56 -0.656582,-3.1439 -2.110188,-6.1399 -4.309996,-8.48 -2.149082,-2.28613 -4.97033,-3.90553 -7.995002,-4.74 -3.024672,-0.83446 -6.24345,-0.89907 -9.33,-0.335 -6.173101,1.12814 -11.684554,4.71584 -16.105,9.17 -7.79168,7.8511 -12.608581,18.92915 -11.725,29.955 0.441789,5.51292 2.289248,10.93012 5.455,15.46502 0.706642,1.0122 1.483501,1.9764 2.315,2.89 -4.611828,1.614 -9.386995,2.7629 -14.23,3.41 C 22.40195,1004.7634 20,996.8442 20,988.36218 20,964.06165 39.69947,944.36218 64,944.36218 z m 0.28,8.89 c 3.093024,0.004 6.207066,0.94057 8.675002,2.805 2.223488,1.67977 3.871027,4.06951 4.804998,6.695 0.933971,2.62549 1.173658,5.47662 0.855002,8.245 -0.637319,5.53677 -3.430458,10.61442 -6.804999,15.05 -5.975053,7.85375 -13.917093,14.13972 -22.750003,18.54002 -0.904118,0.4504 -1.822565,0.8785 -2.745,1.29 -1.921973,-1.6819 -3.569314,-3.6768 -4.825,-5.90002 -2.623798,-4.64556 -3.489056,-10.16402 -2.98,-15.475 0.509056,-5.31097 2.331648,-10.42962 4.78,-15.17 2.838755,-5.49625 6.70822,-10.70239 12.125,-13.69 C 58.12339,954.14838 61.186973,953.24799 64.28,953.25218 z m 43.325,29.22 c 0.25778,1.9268 0.395,3.89265 0.395,5.89 0,24.30052 -19.699469,44.00002 -44,44.00002 -13.647425,0 -25.844438,-6.2128 -33.915,-15.965 4.98138,-1.1314 9.850072,-2.7565 14.52,-4.825 2.042194,1.5553 4.297558,2.8309 6.695,3.75 6.904163,2.6469 14.742694,2.2639 21.730003,-0.155 6.987303,-2.4189 13.183469,-6.7606 18.584999,-11.81 C 98.049619,997.34198 103.47485,990.25205 107.605,982.47218 Z" />
    </g>
    <path
       inkscape:connector-curvature="0"
       style="color:#000000;fill:#000000;fill-opacity:0.24561403;fill-rule:nonzero;stroke:none;stroke-width:0.2;marker:none;visibility:visible;display:inline;overflow:visible;enable-background:accumulate"
       d="m 24.71875,1022.2428 c -0.249539,0.027 -0.494561,0.1025 -0.71875,0.2188 -1.248353,0.6471 -2.562711,0.6133 -3.375,1.0625 -0.905246,0.5005 -1.269256,1.4749 -1.71875,2 -0.591935,0.6916 -0.82918,1.5366 -0.8125,2.8437 6.29e-4,0.049 0.02853,0.078 0.03125,0.125 0.02535,-1.1221 0.240453,-1.8994 0.78125,-2.5312 0.449494,-0.5251 0.813504,-1.4995 1.71875,-2 0.812289,-0.4492 2.126647,-0.4154 3.375,-1.0625 0.896756,-0.4649 2.069099,-0.1724 2.875,0.5 0.456834,0.3812 0.598554,0.9378 1,1.4062 0.515837,0.6019 0.551551,1.3168 0.90625,1.9375 0.359348,0.629 1.021293,1.186 1.125,1.9688 0.01122,-0.109 0.0093,-0.2223 0,-0.3438 -0.06383,-0.8304 -0.75221,-1.41 -1.125,-2.0625 -0.354699,-0.6207 -0.390413,-1.3356 -0.90625,-1.9375 -0.401446,-0.4684 -0.543166,-1.025 -1,-1.4062 C 26.270574,1022.4573 25.467367,1022.1606 24.71875,1022.2428 Z"
       id="path931" />
    <path
       id="path936"
       d="m 24.71875,1022.6626 c -0.249539,0.027 -0.494561,0.1026 -0.71875,0.2188 -1.248353,0.6471 -2.562711,0.6133 -3.375,1.0625 -0.905246,0.5005 -1.269256,1.4749 -1.71875,2 -0.591935,0.6916 -0.82918,1.5366 -0.8125,2.8437 6.29e-4,0.049 0.02853,0.078 0.03125,0.125 0.02535,-1.1221 0.240453,-1.8994 0.78125,-2.5312 0.449494,-0.5251 0.813504,-1.4995 1.71875,-2 0.812289,-0.4492 2.126647,-0.4154 3.375,-1.0625 0.896756,-0.4649 2.069099,-0.1724 2.875,0.5 0.456834,0.3812 0.598554,0.9378 1,1.4062 0.515837,0.6019 0.551551,1.3168 0.90625,1.9375 0.359348,0.629 1.021293,1.186 1.125,1.9688 0.01122,-0.1089 0.0093,-0.2223 0,-0.3438 -0.06383,-0.8304 -0.75221,-1.41 -1.125,-2.0625 -0.354699,-0.6207 -0.390413,-1.3356 -0.90625,-1.9375 -0.401446,-0.4684 -0.543166,-1.025 -1,-1.4062 C 26.270574,1022.8771 25.467367,1022.5804 24.71875,1022.6626 Z"
       style="color:#000000;fill:#000000;fill-opacity:0.14035088;fill-rule:nonzero;stroke:none;stroke-width:0.2;marker:none;visibility:visible;display:inline;overflow:visible;enable-background:accumulate"
       inkscape:connector-curvature="0" />
    <path
       inkscape:connector-curvature="0"
       style="color:#000000;fill:#000000;fill-opacity:0.06432752;fill-rule:nonzero;stroke:none;stroke-width:0.2;marker:none;visibility:visible;display:inline;overflow:visible;enable-background:accumulate"
       d="m 24.71875,1023.1079 c -0.249539,0.027 -0.494561,0.1026 -0.71875,0.2188 -1.248353,0.6471 -2.562711,0.6133 -3.375,1.0625 -0.905246,0.5005 -1.269256,1.4749 -1.71875,2 -0.591935,0.6916 -0.82918,1.5366 -0.8125,2.8437 6.29e-4,0.049 0.02853,0.078 0.03125,0.125 0.02535,-1.1221 0.240453,-1.8994 0.78125,-2.5312 0.449494,-0.5251 0.813504,-1.4995 1.71875,-2 0.812289,-0.4492 2.126647,-0.4154 3.375,-1.0625 0.896756,-0.4649 2.069099,-0.1724 2.875,0.5 0.456834,0.3812 0.598554,0.9378 1,1.4062 0.515837,0.6019 0.551551,1.3168 0.90625,1.9375 0.359348,0.629 1.021293,1.186 1.125,1.9688 0.01122,-0.1089 0.0093,-0.2223 0,-0.3438 -0.06383,-0.8304 -0.75221,-1.41 -1.125,-2.0625 -0.354699,-0.6207 -0.390413,-1.3356 -0.90625,-1.9375 -0.401446,-0.4684 -0.543166,-1.025 -1,-1.4062 C 26.270574,1023.3224 25.467367,1023.0257 24.71875,1023.1079 Z"
       id="path942" />
    <path
       inkscape:connector-curvature="0"
       style="color:#000000;fill:#ffffff;fill-opacity:0.14035088;fill-rule:nonzero;stroke:none;stroke-width:0.2;marker:none;visibility:visible;display:inline;overflow:visible;enable-background:accumulate"
       d="m 17.34375,1028.1491 c -6.94e-4,0.078 -0.001,0.1379 0,0.2187 0.01403,1.0991 0.491023,1.585 0.9375,2.5313 0.470932,0.998 0.907746,2.4397 1.8125,2.9687 0.53839,0.3149 1.38174,-0.019 2,0.1875 0.658482,0.2195 1.17147,0.9688 1.90625,0.9688 1.418812,0 3.173962,-0.279 4.15625,-1.1563 0.804571,-0.7187 0.913423,-1.9095 1.40625,-2.875 0.452839,-0.8872 1.127519,-1.4962 1.09375,-2.5312 -0.08881,0.8627 -0.684734,1.4486 -1.09375,2.25 -0.492827,0.9655 -0.601679,2.1563 -1.40625,2.875 -0.982288,0.8773 -2.737438,1.1562 -4.15625,1.1562 -0.73478,0 -1.247768,-0.7492 -1.90625,-0.9687 -0.61826,-0.2061 -1.46161,0.1274 -2,-0.1875 -0.904754,-0.529 -1.341568,-1.9708 -1.8125,-2.9688 C 17.844317,1029.6917 17.377034,1029.1999 17.34375,1028.1491 Z"
       id="path944" />
    <path
       id="path949"
       d="m 17.34375,1028.4303 c -6.94e-4,0.078 -0.001,0.1379 0,0.2187 0.01403,1.0991 0.491023,1.585 0.9375,2.5313 0.470932,0.998 0.907746,2.4397 1.8125,2.9687 0.53839,0.3149 1.38174,-0.019 2,0.1875 0.658482,0.2195 1.17147,0.9688 1.90625,0.9688 1.418812,0 3.173962,-0.279 4.15625,-1.1563 0.804571,-0.7187 0.913423,-1.9095 1.40625,-2.875 0.452839,-0.8872 1.127519,-1.4962 1.09375,-2.5312 -0.08881,0.8626 -0.684734,1.4486 -1.09375,2.25 -0.492827,0.9655 -0.601679,2.1563 -1.40625,2.875 -0.982288,0.8773 -2.737438,1.1562 -4.15625,1.1562 -0.73478,0 -1.247768,-0.7492 -1.90625,-0.9687 -0.61826,-0.2061 -1.46161,0.1274 -2,-0.1875 -0.904754,-0.529 -1.341568,-1.9708 -1.8125,-2.9688 C 17.844317,1029.9729 17.377034,1029.4811 17.34375,1028.4303 Z"
       style="color:#000000;fill:#ffffff;fill-opacity:0.1169591;fill-rule:nonzero;stroke:none;stroke-width:0.2;marker:none;visibility:visible;display:inline;overflow:visible;enable-background:accumulate"
       inkscape:connector-curvature="0" />
    <path
       inkscape:connector-curvature="0"
       style="color:#000000;fill:#ffffff;fill-opacity:0.04678363;fill-rule:nonzero;stroke:none;stroke-width:0.2;marker:none;visibility:visible;display:inline;overflow:visible;enable-background:accumulate"
       d="m 17.34375,1028.7116 c -6.94e-4,0.078 -0.001,0.1379 0,0.2187 0.01403,1.0991 0.491023,1.585 0.9375,2.5313 0.470932,0.998 0.907746,2.4397 1.8125,2.9687 0.53839,0.3149 1.38174,-0.019 2,0.1875 0.658482,0.2195 1.17147,0.9688 1.90625,0.9688 1.418812,0 3.173962,-0.279 4.15625,-1.1563 0.804571,-0.7187 0.913423,-1.9095 1.40625,-2.875 0.452839,-0.8872 1.127519,-1.4962 1.09375,-2.5312 -0.08881,0.8626 -0.684734,1.4486 -1.09375,2.25 -0.492827,0.9655 -0.601679,2.1563 -1.40625,2.875 -0.982288,0.8773 -2.737438,1.1562 -4.15625,1.1562 -0.73478,0 -1.247768,-0.7492 -1.90625,-0.9687 -0.61826,-0.2061 -1.46161,0.1274 -2,-0.1875 -0.904754,-0.529 -1.341568,-1.9708 -1.8125,-2.9688 C 17.844317,1030.2542 17.377034,1029.7624 17.34375,1028.7116 Z"
       id="path951" />
    <path
       inkscape:connector-curvature="0"
       style="fill:#000000;fill-opacity:0.32748539;stroke:none"
       d="m 23.90625,1024.5866 c -1.566002,0 -2.884078,0.9761 -3.4375,2.3437 0.566423,-1.3392 1.891997,-2.25 3.4375,-2.25 1.545502,0 2.871077,0.9108 3.4375,2.25 C 26.790329,1025.5627 25.472252,1024.5866 23.90625,1024.5866 z m 0.125,0.7812 c -0.121931,0 -0.255037,0.01 -0.375,0.031 -0.479853,0.088 -0.906386,0.3724 -1.25,0.7187 -0.317086,0.3195 -0.558823,0.7046 -0.71875,1.125 0.160731,-0.3987 0.415916,-0.7573 0.71875,-1.0625 0.343614,-0.3462 0.770147,-0.6307 1.25,-0.7187 0.239926,-0.044 0.483633,-0.034 0.71875,0.031 0.235116,0.065 0.457946,0.1973 0.625,0.375 0.0855,0.091 0.162748,0.1698 0.21875,0.2813 -0.05922,-0.1308 -0.120427,-0.2704 -0.21875,-0.375 -0.167054,-0.1777 -0.389884,-0.2789 -0.625,-0.3438 C 24.257441,1025.3978 24.153181,1025.3717 24.03125,1025.3678 z m 0.9375,1.9375 c -0.09426,0.3088 -0.272015,0.5852 -0.46875,0.8438 -0.464457,0.6105 -1.063393,1.0955 -1.75,1.4375 -0.07028,0.035 -0.147047,0.061 -0.21875,0.094 -0.149401,-0.1307 -0.277392,-0.2647 -0.375,-0.4375 -0.05099,-0.09 -0.09063,-0.1838 -0.125,-0.2812 0.03719,0.1165 0.06466,0.2369 0.125,0.3437 0.09761,0.1728 0.225599,0.3381 0.375,0.4688 0.0717,-0.032 0.14847,-0.09 0.21875,-0.125 0.686607,-0.342 1.285543,-0.827 1.75,-1.4375 C 24.709346,1027.9365 24.879185,1027.6368 24.96875,1027.3053 z m 2.21875,0.125 c -0.34818,0.7096 -0.839945,1.3575 -1.4375,1.875 -0.290393,0.2515 -0.618527,0.4671 -0.96875,0.625 -0.350222,0.1579 -0.741478,0.2408 -1.125,0.2188 -0.256522,-0.015 -0.488101,-0.1061 -0.71875,-0.2188 -0.0331,0.019 -0.06031,0.044 -0.09375,0.062 0.252342,0.1397 0.524352,0.2028 0.8125,0.2188 0.383522,0.022 0.774778,-0.061 1.125,-0.2188 0.350223,-0.1579 0.678357,-0.3736 0.96875,-0.625 0.604499,-0.5235 1.088658,-1.1867 1.4375,-1.9062 C 27.184726,1027.4517 27.19036,1027.4401 27.1875,1027.4303 z m 0.0625,1.6563 c -0.342034,1.528 -1.712583,2.6562 -3.34375,2.6562 -1.028734,0 -1.966747,-0.4374 -2.59375,-1.1562 -0.01902,0 -0.04344,0 -0.0625,0 0.627347,0.7581 1.595398,1.2187 2.65625,1.2187 C 25.55908,1031.8053 26.931075,1030.6451 27.25,1029.0866 z m -6.625,0.1875 c 0.08713,0.3226 0.203333,0.6288 0.375,0.9062 0.37646,-0.05 0.73526,-0.1245 1.09375,-0.25 -0.01521,-0.017 -0.01653,-0.045 -0.03125,-0.062 -0.349449,0.1202 -0.696231,0.2011 -1.0625,0.25 C 20.838392,1029.8567 20.71208,1029.5757 20.625,1029.2741 Z"
       id="path993" />
    <path
       style="fill:#ffffff;fill-opacity:0.17543862;stroke:none"
       d="m 23.90625,1024.8992 c -1.684764,0 -3.09197,1.2402 -3.375,2.8438 0.318922,-1.5586 1.72217,-2.75 3.375,-2.75 1.542585,0 2.823629,1.0343 3.25,2.4375 0.0062,-0.013 0.02512,-0.019 0.03125,-0.031 C 26.782482,1025.962 25.472938,1024.8992 23.90625,1024.8992 z m 0,0.6875 c -0.240429,-4e-4 -0.476962,0.071 -0.6875,0.1875 -0.421061,0.2322 -0.716836,0.6353 -0.9375,1.0625 -0.190317,0.3685 -0.33543,0.7747 -0.375,1.1875 -0.002,0.021 0.0014,0.042 0,0.062 0.04356,-0.4017 0.189479,-0.7971 0.375,-1.1562 0.220664,-0.4273 0.516439,-0.8303 0.9375,-1.0625 0.210538,-0.1161 0.447071,-0.1878 0.6875,-0.1875 0.240429,3e-4 0.495661,0.074 0.6875,0.2187 0.172838,0.1305 0.3024,0.3272 0.375,0.5313 -0.0083,-0.03 0.01047,-0.064 0,-0.094 -0.0726,-0.2041 -0.202162,-0.4006 -0.375,-0.5312 C 24.401911,1025.6605 24.146679,1025.587 23.90625,1025.5867 z m 1.40625,1.5938 c -0.109218,0.4872 -0.394542,0.9328 -0.71875,1.3125 -0.493935,0.5786 -1.081248,1.0438 -1.75,1.4062 0.0277,0.015 0.06531,0.017 0.09375,0.031 0.627839,-0.3554 1.187738,-0.7951 1.65625,-1.3438 0.324208,-0.3798 0.609532,-0.8252 0.71875,-1.3125 C 25.319142,1027.2446 25.307227,1027.2104 25.3125,1027.1805 z m 1.96875,0.6875 c -0.321048,0.6048 -0.749811,1.1574 -1.25,1.625 -0.419876,0.3925 -0.894357,0.7182 -1.4375,0.9062 -0.543143,0.188 -1.150821,0.2371 -1.6875,0.031 -0.18636,-0.071 -0.372505,-0.1916 -0.53125,-0.3125 -0.363007,0.1608 -0.737784,0.287 -1.125,0.375 0.02768,0.033 0.06484,0.061 0.09375,0.094 0.355174,-0.087 0.697046,-0.1957 1.03125,-0.3437 0.158745,0.1209 0.34489,0.2097 0.53125,0.2812 0.536679,0.2057 1.144357,0.1568 1.6875,-0.031 0.543143,-0.188 1.017624,-0.5138 1.4375,-0.9063 0.500189,-0.4677 0.928952,-1.0203 1.25,-1.625 C 27.278014,1027.9317 27.28524,1027.8978 27.28125,1027.868 z m -5.65625,1.1875 c 0.07243,0.2351 0.140462,0.4858 0.28125,0.6875 0.03813,0.055 0.08202,0.1053 0.125,0.1562 0.02236,-0.01 0.04024,-0.023 0.0625,-0.031 -0.06463,-0.071 -0.13257,-0.171 -0.1875,-0.25 C 21.783209,1029.4417 21.695955,1029.2584 21.625,1029.0555 z m -1.375,0.031 c 0.312384,1.745 1.821461,3.0625 3.65625,3.0625 1.835062,0 3.344181,-1.3172 3.65625,-3.0625 -0.347918,1.7002 -1.853164,2.9688 -3.65625,2.9688 C 22.103164,1032.0555 20.597918,1030.7869 20.25,1029.0867 Z"
       id="path1005"
       inkscape:connector-curvature="0" />
  </g>
</svg>
