<?xml version="1.0" encoding="UTF-8" standalone="no"?>
<!-- Created with Inkscape (http://www.inkscape.org/) -->

<svg
   xmlns:dc="http://purl.org/dc/elements/1.1/"
   xmlns:cc="http://creativecommons.org/ns#"
   xmlns:rdf="http://www.w3.org/1999/02/22-rdf-syntax-ns#"
   xmlns:svg="http://www.w3.org/2000/svg"
   xmlns="http://www.w3.org/2000/svg"
   xmlns:xlink="http://www.w3.org/1999/xlink"
   xmlns:sodipodi="http://sodipodi.sourceforge.net/DTD/sodipodi-0.dtd"
   xmlns:inkscape="http://www.inkscape.org/namespaces/inkscape"
   width="48"
   height="48"
   id="svg2"
   version="1.1"
   inkscape:version="0.48+devel r12130"
   sodipodi:docname="gmail.svg">
  <defs
     id="defs4">
    <linearGradient
       x1="48"
       y1="88"
       x2="48"
       y2="8"
       id="linearGradient3691"
       xlink:href="#linearGradient3685"
       gradientUnits="userSpaceOnUse"
       gradientTransform="matrix(0.52976188,0,0,0.58533817,-1.4285695,-2.1995)" />
    <linearGradient
       id="linearGradient3685">
      <stop
         id="stop3687"
         style="stop-color:#ca0a0a;stop-opacity:1"
         offset="0" />
      <stop
         id="stop3689"
         style="stop-color:#f03131;stop-opacity:1"
         offset="1" />
    </linearGradient>
    <linearGradient
       inkscape:collect="always"
       xlink:href="#linearGradient1433"
       id="linearGradient1474"
       x1="23.812502"
       y1="1051.1122"
       x2="23.812502"
       y2="1005.9872"
       gradientUnits="userSpaceOnUse"
       gradientTransform="translate(-10e-7,3.3282813e-5)" />
    <linearGradient
       inkscape:collect="always"
       id="linearGradient1433">
      <stop
         style="stop-color:#ededed;stop-opacity:1"
         offset="0"
         id="stop1435" />
      <stop
         style="stop-color:#ffffff;stop-opacity:1"
         offset="1"
         id="stop1437" />
    </linearGradient>
    <linearGradient
       inkscape:collect="always"
       xlink:href="#linearGradient1433"
       id="linearGradient1486"
       gradientUnits="userSpaceOnUse"
       gradientTransform="matrix(1.5941642,0,0,1.5941642,-14.259949,975.42411)"
       x1="26.465649"
       y1="48.17094"
       x2="26.465649"
       y2="29.079058" />
    <linearGradient
       inkscape:collect="always"
       xlink:href="#linearGradient1433"
       id="linearGradient1489"
       gradientUnits="userSpaceOnUse"
       gradientTransform="matrix(1.5941642,0,0,-1.5941642,-14.259949,1081.3003)"
       x1="26.465649"
       y1="48.17094"
       x2="26.465649"
       y2="29.079058" />
  </defs>
  <sodipodi:namedview
     id="base"
     pagecolor="#ffffff"
     bordercolor="#666666"
     borderopacity="1.0"
     inkscape:pageopacity="0.0"
     inkscape:pageshadow="2"
     inkscape:zoom="2.828427"
     inkscape:cx="-42.632009"
     inkscape:cy="-2.9027314"
     inkscape:document-units="px"
     inkscape:current-layer="layer1"
     showgrid="false"
     inkscape:window-width="1366"
     inkscape:window-height="717"
     inkscape:window-x="0"
     inkscape:window-y="28"
     inkscape:window-maximized="1">
    <inkscape:grid
       type="xygrid"
       id="grid3850" />
  </sodipodi:namedview>
  <metadata
     id="metadata7">
    <rdf:RDF>
      <cc:Work
         rdf:about="">
        <dc:format>image/svg+xml</dc:format>
        <dc:type
           rdf:resource="http://purl.org/dc/dcmitype/StillImage" />
        <dc:title />
      </cc:Work>
    </rdf:RDF>
  </metadata>
  <g
     inkscape:label="Capa 1"
     inkscape:groupmode="layer"
     id="layer1"
     transform="translate(0,-1004.3622)">
    <rect
       style="color:#000000;fill:#333333;fill-opacity:1;fill-rule:nonzero;stroke:none;stroke-width:0.2;marker:none;visibility:visible;display:inline;overflow:visible;enable-background:accumulate"
       id="rect6294"
       width="45.5"
       height="45.5"
       x="1.25"
       y="1005.6122"
       ry="6.3565426" />
    <path
       inkscape:connector-curvature="0"
       style="fill:url(#linearGradient1474);fill-opacity:1;stroke:none"
       d="m 7.593749,1006.1122 c -3.244524,0 -5.84375,2.5992 -5.84375,5.8438 l 0,32.8125 c 0,3.2445 2.599226,5.8437 5.84375,5.8437 l 32.8125,0 c 3.244525,0 5.84375,-2.5992 5.84375,-5.8437 l 0,-32.8125 c 0,-3.2446 -2.599225,-5.8438 -5.84375,-5.8438 L 7.593749,1006.1122 Z"
       id="rect2991-0" />
    <path
       inkscape:connector-curvature="0"
       style="color:#000000;fill:#000000;fill-opacity:0.30337123;fill-rule:nonzero;stroke:none;stroke-width:0.2;marker:none;visibility:visible;display:inline;overflow:visible;enable-background:accumulate"
       d="m 23.999999,1021.3935 -22.25,17.4062 0,5.9688 c 0,3.2445 2.599226,5.8437 5.84375,5.8437 l 32.8125,0 c 3.244525,0 5.84375,-2.5992 5.84375,-5.8437 l 0,-5.9688 L 23.999999,1021.3935 Z"
       id="path1482" />
    <path
       inkscape:connector-curvature="0"
       style="color:#000000;fill:url(#linearGradient1486);fill-opacity:1;fill-rule:nonzero;stroke:none;stroke-width:0.2;marker:none;visibility:visible;display:inline;overflow:visible;enable-background:accumulate"
       d="m 23.999999,1022.0497 -22.25,17.375 0,5.3438 c 0,3.2445 2.599226,5.8437 5.84375,5.8437 l 32.8125,0 c 3.244525,0 5.84375,-2.5992 5.84375,-5.8437 l 0,-5.3438 L 23.999999,1022.0497 Z"
       id="path1484" />
    <path
       inkscape:connector-curvature="0"
       style="color:#000000;fill:#000000;fill-opacity:0.30337123;fill-rule:nonzero;stroke:none;stroke-width:0.2;marker:none;visibility:visible;display:inline;overflow:visible;enable-background:accumulate"
       d="m 7.593749,1006.1122 c -3.244524,0 -5.84375,2.5992 -5.84375,5.8438 l 0,5.9687 22.25,17.4063 22.25,-17.4063 0,-5.9687 c 0,-3.2446 -2.599225,-5.8438 -5.84375,-5.8438 L 7.593749,1006.1122 Z"
       id="path1485" />
    <path
       inkscape:connector-curvature="0"
       style="color:#000000;fill:url(#linearGradient1489);fill-opacity:1;fill-rule:nonzero;stroke:none;stroke-width:0.2;marker:none;visibility:visible;display:inline;overflow:visible;enable-background:accumulate"
       d="m 7.593749,1006.1122 c -3.244524,0 -5.84375,2.5992 -5.84375,5.8438 l 0,5.3437 22.25,17.375 22.25,-17.375 0,-5.3437 c 0,-3.2446 -2.599225,-5.8438 -5.84375,-5.8438 L 7.593749,1006.1122 Z"
       id="path1487" />
    <path
       style="color:#000000;fill:url(#linearGradient3691);fill-opacity:1;fill-rule:nonzero;stroke:none;stroke-width:2;marker:none;visibility:visible;display:inline;overflow:visible;enable-background:accumulate"
       d="M 4.125 2.875 C 2.6765823 3.935149 1.75 5.6477576 1.75 7.59375 L 1.75 40.40625 C 1.75 43.65075 4.349226 46.25 7.59375 46.25 L 8.09375 46.25 L 8.09375 17.875 L 23.9375 30.34375 L 39.90625 18 L 39.90625 46.25 L 40.40625 46.25 C 40.609033 46.25 40.802736 46.238579 41 46.21875 C 43.958966 45.921306 46.25 43.447969 46.25 40.40625 L 46.25 7.59375 C 46.25 5.6957358 45.356514 4.0339495 43.96875 2.96875 L 24 20.46875 L 4.125 2.875 z "
       transform="translate(0,1004.3622)"
       id="rect2903" />
    <path
       id="path6361"
       d="m 1.75,1012.5498 0,-0.5625 c 0,-3.2445 2.5992,-5.875 5.8438,-5.875 l 32.8125,0 c 3.2445,0 5.8437,2.6305 5.8437,5.875 l 0,0.5625 c 0,-3.2445 -2.5992,-5.875 -5.8437,-5.875 l -32.8125,0 C 4.3492,1006.6748 1.75,1009.3053 1.75,1012.5498 Z"
       style="color:#000000;fill:#ffffff;fill-opacity:1;fill-rule:nonzero;stroke:none;stroke-width:0.2;marker:none;visibility:visible;display:inline;overflow:visible;enable-background:accumulate"
       inkscape:connector-curvature="0" />
    <path
       inkscape:connector-curvature="0"
       style="color:#000000;fill:#000000;fill-opacity:1;fill-rule:nonzero;stroke:none;stroke-width:0.2;marker:none;visibility:visible;display:inline;overflow:visible;enable-background:accumulate"
       d="m 1.75,1044.1748 0,0.5625 c 0,3.2445 2.5992,5.875 5.8438,5.875 l 32.8125,0 c 3.2445,0 5.8437,-2.6305 5.8437,-5.875 l 0,-0.5625 c 0,3.2445 -2.5992,5.875 -5.8437,5.875 l -32.8125,0 C 4.3492,1050.0498 1.75,1047.4193 1.75,1044.1748 Z"
       id="path6388" />
  </g>
</svg>
