<?xml version="1.0" encoding="UTF-8" standalone="no"?>
<!-- Created with Inkscape (http://www.inkscape.org/) -->

<svg
   xmlns:dc="http://purl.org/dc/elements/1.1/"
   xmlns:cc="http://creativecommons.org/ns#"
   xmlns:rdf="http://www.w3.org/1999/02/22-rdf-syntax-ns#"
   xmlns:svg="http://www.w3.org/2000/svg"
   xmlns="http://www.w3.org/2000/svg"
   xmlns:xlink="http://www.w3.org/1999/xlink"
   xmlns:sodipodi="http://sodipodi.sourceforge.net/DTD/sodipodi-0.dtd"
   xmlns:inkscape="http://www.inkscape.org/namespaces/inkscape"
   width="48"
   height="48"
   id="svg2"
   version="1.1"
   inkscape:version="0.48+devel r12137"
   sodipodi:docname="gnome-sound-recorder.svg">
  <defs
     id="defs4">
    <linearGradient
       inkscape:collect="always"
       id="linearGradient543">
      <stop
         style="stop-color:#272727;stop-opacity:1"
         offset="0"
         id="stop545" />
      <stop
         style="stop-color:#767676;stop-opacity:1"
         offset="1"
         id="stop547" />
    </linearGradient>
    <linearGradient
       id="linearGradient1372"
       inkscape:collect="always">
      <stop
         id="stop1374"
         offset="0"
         style="stop-color:#131313;stop-opacity:1" />
      <stop
         id="stop1376"
         offset="1"
         style="stop-color:#464646;stop-opacity:1" />
    </linearGradient>
    <linearGradient
       inkscape:collect="always"
       id="linearGradient1385">
      <stop
         style="stop-color:#000000;stop-opacity:1;"
         offset="0"
         id="stop1387" />
      <stop
         style="stop-color:#000000;stop-opacity:0;"
         offset="1"
         id="stop1389" />
    </linearGradient>
    <linearGradient
       id="linearGradient1441"
       inkscape:collect="always">
      <stop
         id="stop1443"
         offset="0"
         style="stop-color:#bd0404;stop-opacity:1" />
      <stop
         id="stop1445"
         offset="1"
         style="stop-color:#eb7e7e;stop-opacity:1" />
    </linearGradient>
    <linearGradient
       inkscape:collect="always"
       id="linearGradient1402">
      <stop
         style="stop-color:#960303;stop-opacity:1"
         offset="0"
         id="stop1404" />
      <stop
         style="stop-color:#e13b3b;stop-opacity:1"
         offset="1"
         id="stop1406" />
    </linearGradient>
    <linearGradient
       inkscape:collect="always"
       xlink:href="#linearGradient543"
       id="linearGradient950"
       x1="23.89336"
       y1="1050.7189"
       x2="23.89336"
       y2="1005.9677"
       gradientUnits="userSpaceOnUse" />
    <linearGradient
       inkscape:collect="always"
       xlink:href="#linearGradient1372"
       id="linearGradient954"
       gradientUnits="userSpaceOnUse"
       x1="23.89336"
       y1="1050.7189"
       x2="23.89336"
       y2="1005.9677"
       gradientTransform="matrix(0.91011236,0,0,0.91011236,2.1573034,92.43705)" />
    <linearGradient
       inkscape:collect="always"
       xlink:href="#linearGradient1385"
       id="linearGradient960"
       gradientUnits="userSpaceOnUse"
       gradientTransform="matrix(0.91011236,0,0,0.91011236,2.1573034,-911.92515)"
       x1="25.340952"
       y1="1006.0181"
       x2="25.340952"
       y2="1007.4534" />
    <linearGradient
       inkscape:collect="always"
       xlink:href="#linearGradient1441"
       id="linearGradient970"
       gradientUnits="userSpaceOnUse"
       gradientTransform="matrix(0.82022472,0,0,0.82022472,4.3146068,184.8741)"
       x1="23.89336"
       y1="1050.7189"
       x2="23.89336"
       y2="1005.9677" />
    <linearGradient
       inkscape:collect="always"
       xlink:href="#linearGradient1402"
       id="linearGradient974"
       gradientUnits="userSpaceOnUse"
       gradientTransform="matrix(0.79550606,0,0,0.79550606,4.9078674,210.29407)"
       x1="23.89336"
       y1="1050.7189"
       x2="23.89336"
       y2="1005.9677" />
  </defs>
  <sodipodi:namedview
     id="base"
     pagecolor="#ffffff"
     bordercolor="#666666"
     borderopacity="1.0"
     inkscape:pageopacity="0.0"
     inkscape:pageshadow="2"
     inkscape:zoom="4"
     inkscape:cx="10.578875"
     inkscape:cy="24.755246"
     inkscape:document-units="px"
     inkscape:current-layer="layer1"
     showgrid="false"
     inkscape:window-width="1366"
     inkscape:window-height="714"
     inkscape:window-x="0"
     inkscape:window-y="30"
     inkscape:window-maximized="1" />
  <metadata
     id="metadata7">
    <rdf:RDF>
      <cc:Work
         rdf:about="">
        <dc:format>image/svg+xml</dc:format>
        <dc:type
           rdf:resource="http://purl.org/dc/dcmitype/StillImage" />
        <dc:title />
      </cc:Work>
    </rdf:RDF>
  </metadata>
  <g
     inkscape:label="Capa 1"
     inkscape:groupmode="layer"
     id="layer1"
     transform="translate(0,-1004.3622)">
    <rect
       style="color:#000000;fill:#333333;fill-opacity:1;fill-rule:nonzero;stroke:none;stroke-width:0.2;marker:none;visibility:visible;display:inline;overflow:visible;enable-background:accumulate"
       id="rect6294"
       width="45.5"
       height="45.5"
       x="1.25"
       y="1005.6122"
       ry="6.3565426" />
    <rect
       ry="5.8565426"
       y="1006.1122"
       x="1.75"
       height="44.5"
       width="44.5"
       id="rect6296"
       style="color:#000000;fill:url(#linearGradient950);fill-opacity:1;fill-rule:nonzero;stroke:none;stroke-width:0.2;marker:none;visibility:visible;display:inline;overflow:visible;enable-background:accumulate" />
    <path
       id="path6361"
       d="m 1.7499999,1012.5497 0,-0.5625 c 0,-3.2445 2.599225,-5.875 5.84375,-5.875 l 32.8125001,0 c 3.244525,0 5.84375,2.6305 5.84375,5.875 l 0,0.5625 c 0,-3.2445 -2.599225,-5.875 -5.84375,-5.875 l -32.8125001,0 C 4.3492249,1006.6747 1.7499999,1009.3052 1.7499999,1012.5497 Z"
       style="color:#000000;fill:#ffffff;fill-opacity:1;fill-rule:nonzero;stroke:none;stroke-width:0.2;marker:none;visibility:visible;display:inline;overflow:visible;enable-background:accumulate"
       inkscape:connector-curvature="0" />
    <path
       inkscape:connector-curvature="0"
       style="color:#000000;fill:#000000;fill-opacity:1;fill-rule:nonzero;stroke:none;stroke-width:0.2;marker:none;visibility:visible;display:inline;overflow:visible;enable-background:accumulate"
       d="m 1.7499999,1044.1747 0,0.5625 c 0,3.2445 2.599225,5.875 5.84375,5.875 l 32.8125001,0 c 3.244525,0 5.84375,-2.6305 5.84375,-5.875 l 0,-0.5625 c 0,3.2445 -2.599225,5.875 -5.84375,5.875 l -32.8125001,0 C 4.3492249,1050.0497 1.7499999,1047.4192 1.7499999,1044.1747 Z"
       id="path6388" />
    <rect
       style="color:#000000;fill:url(#linearGradient954);fill-opacity:1.0;fill-rule:nonzero;stroke:none;stroke-width:0.2;marker:none;visibility:visible;display:inline;overflow:visible;enable-background:accumulate"
       id="rect952"
       width="40.5"
       height="40.5"
       x="3.75"
       y="1008.1122"
       ry="5.3301115" />
    <path
       style="color:#000000;fill:url(#linearGradient960);fill-opacity:1;fill-rule:nonzero;stroke:none;stroke-width:0.2;marker:none;visibility:visible;display:inline;overflow:visible;enable-background:accumulate"
       d="M 9.09375 3.75 C 7.5608692 3.75 6.1893558 4.4082967 5.21875 5.4375 L 42.78125 5.4375 C 41.810644 4.4082967 40.439131 3.75 38.90625 3.75 L 9.09375 3.75 z "
       transform="translate(0,1004.3622)"
       id="rect956" />
    <path
       style="color:#000000;fill:#ffffff;fill-opacity:0.23137255;fill-rule:nonzero;stroke:none;stroke-width:0.2;marker:none;visibility:visible;display:inline;overflow:visible;enable-background:accumulate"
       d="m 3.7539063,1043.2881 0,0.625 c 0,2.9529 2.3908681,5.3437 5.34375,5.3437 l 29.8124997,0 c 2.952882,0 5.34375,-2.3908 5.34375,-5.3437 l 0,-0.625 c 0,2.9529 -2.390868,5.3437 -5.34375,5.3437 l -29.8124997,0 C 6.1447744,1048.6318 3.7539063,1046.241 3.7539063,1043.2881 Z"
       id="rect963"
       inkscape:connector-curvature="0" />
    <rect
       ry="4.8036804"
       y="1010.1122"
       x="5.75"
       height="36.5"
       width="36.5"
       id="rect968"
       style="color:#000000;fill:url(#linearGradient970);fill-opacity:1.0;fill-rule:nonzero;stroke:none;stroke-width:0.2;marker:none;visibility:visible;display:inline;overflow:visible;enable-background:accumulate" />
    <rect
       style="color:#000000;fill:url(#linearGradient974);fill-opacity:1;fill-rule:nonzero;stroke:none;stroke-width:0.2;marker:none;visibility:visible;display:inline;overflow:visible;enable-background:accumulate"
       id="rect972"
       width="35.399994"
       height="35.399994"
       x="6.3000031"
       y="1010.6622"
       ry="4.6589136" />
    <path
       style="fill:#000000;fill-opacity:0.53618541"
       d="m 23.537057,1013.3622 c -2.172738,0 -3.963938,1.7905 -3.963938,3.964 l 0,11.2554 c 0,2.172 1.7912,3.9639 3.963938,3.9639 l 0.925883,0 c 2.172739,0 3.963939,-1.7919 3.963939,-3.9639 l 0,-11.2554 c 0,-2.1735 -1.7912,-3.964 -3.963939,-3.964 L 23.537057,1013.3622 z m -8.18828,12.6731 c -0.40492,0 -0.75228,0.3172 -0.75228,0.7233 l 0,0.6655 c 0,4.844 3.331544,8.8581 7.927876,9.5771 l 0,3.0381 -2.835518,0 c -0.40558,0 -0.75228,0.3472 -0.75228,0.7524 l 0,1.4464 c 0,0.4051 0.3467,0.7525 0.75228,0.7525 l 8.622288,0 c 0.405578,0 0.723346,-0.3474 0.723346,-0.7525 l 0,-1.4464 c 0,-0.4052 -0.317768,-0.7524 -0.723346,-0.7524 l -2.835519,0 0,-3.0381 c 4.599622,-0.7178 7.927879,-4.7331 7.927879,-9.5771 l 0,-0.6655 c 0,-0.4061 -0.346706,-0.7233 -0.752278,-0.7233 l -0.723347,0 c -0.405582,0 -0.752288,0.3172 -0.752288,0.7233 l 0,0.6655 c 0,4.1369 -3.040144,7.4939 -7.175591,7.4939 -4.136105,0 -7.175595,-3.357 -7.175595,-7.4939 l 0,-0.6655 c 0,-0.4061 -0.346702,-0.7233 -0.752281,-0.7233 L 15.348777,1026.0353 Z"
       id="path1361"
       inkscape:connector-curvature="0" />
    <path
       style="fill:#ffffff;fill-opacity:0.15686275"
       d="m 14.625432,1028.3167 c 0.230571,4.6068 3.469536,8.3635 7.898941,9.0564 l 0,-0.3762 C 18.215311,1036.3228 15.008277,1032.7517 14.625432,1028.3167 z m 18.74913,0 c -0.38249,4.4351 -3.586791,8.0073 -7.898938,8.6802 l 0,0.3762 C 29.908202,1036.6814 33.144209,1032.9236 33.374562,1028.3167 z m -13.801443,0.2605 0,0.376 c 0,2.1722 1.7912,3.9639 3.963938,3.9639 l 0.925883,0 c 2.172739,0 3.963939,-1.7917 3.963939,-3.9639 l 0,-0.376 c 0,2.1721 -1.7912,3.9638 -3.963939,3.9638 l -0.925883,0 C 21.364319,1032.541 19.573119,1030.7493 19.573119,1028.5772 z m -0.636544,13.6568 0,0.376 c 0,0.405 0.3467,0.7523 0.75228,0.7523 l 8.622288,0 c 0.405578,0 0.723346,-0.3473 0.723346,-0.7523 l 0,-0.376 c 0,0.4049 -0.317768,0.7523 -0.723346,0.7523 l -8.622288,0 C 19.283275,1042.9863 18.936575,1042.6389 18.936575,1042.234 Z"
       id="path1427"
       inkscape:connector-curvature="0" />
    <path
       style="fill:#000000;fill-opacity:0.53618541"
       d="m 23.537057,1013.3622 c -2.172738,0 -3.963938,1.7905 -3.963938,3.964 l 0,0.2893 c 0,-2.1734 1.7912,-3.964 3.963938,-3.964 l 0.925883,0 c 2.172739,0 3.963939,1.7906 3.963939,3.964 l 0,-0.2893 c 0,-2.1735 -1.7912,-3.964 -3.963939,-3.964 L 23.537057,1013.3622 z m -8.18828,12.6731 c -0.40492,0 -0.75228,0.3172 -0.75228,0.7233 l 0,0.2894 c 0,-0.4062 0.34736,-0.7234 0.75228,-0.7234 l 0.723346,0 c 0.405579,0 0.752281,0.3172 0.752281,0.7234 l 0,-0.2894 c 0,-0.4061 -0.346702,-0.7233 -0.752281,-0.7233 L 15.348777,1026.0353 z m 16.579101,0 c -0.405582,0 -0.752288,0.3172 -0.752288,0.7233 l 0,0.2894 c 0,-0.4062 0.346706,-0.7234 0.752288,-0.7234 l 0.723347,0 c 0.405572,0 0.752278,0.3172 0.752278,0.7234 l 0,-0.2894 c 0,-0.4061 -0.346706,-0.7233 -0.752278,-0.7233 L 31.927878,1026.0353 z m -15.07454,2.1411 c 0.222244,3.9163 3.169783,7.031 7.146661,7.031 3.976245,0 6.924369,-3.1147 7.14666,-7.031 -0.349144,3.7776 -3.269678,6.7416 -7.14666,6.7416 C 20.122399,1034.918 17.202414,1031.954 16.853338,1028.1764 z m 2.835517,11.8629 c -0.40558,0 -0.75228,0.3472 -0.75228,0.7524 l 0,0.2892 c 0,-0.4049 0.3467,-0.7523 0.75228,-0.7523 l 2.835518,0 0,-0.2893 L 19.688855,1040.0393 z m 5.786769,0 0,0.2893 2.835519,0 c 0.405578,0 0.723346,0.3474 0.723346,0.7523 l 0,-0.2892 c 0,-0.4052 -0.317768,-0.7524 -0.723346,-0.7524 L 25.475624,1040.0393 Z"
       id="path1432"
       inkscape:connector-curvature="0" />
  </g>
</svg>
