<?xml version="1.0" encoding="UTF-8" standalone="no"?>
<!-- Created with Inkscape (http://www.inkscape.org/) -->

<svg
   xmlns:dc="http://purl.org/dc/elements/1.1/"
   xmlns:cc="http://creativecommons.org/ns#"
   xmlns:rdf="http://www.w3.org/1999/02/22-rdf-syntax-ns#"
   xmlns:svg="http://www.w3.org/2000/svg"
   xmlns="http://www.w3.org/2000/svg"
   xmlns:xlink="http://www.w3.org/1999/xlink"
   xmlns:sodipodi="http://sodipodi.sourceforge.net/DTD/sodipodi-0.dtd"
   xmlns:inkscape="http://www.inkscape.org/namespaces/inkscape"
   width="48"
   height="48"
   id="svg2"
   version="1.1"
   inkscape:version="0.48+devel r12137"
   sodipodi:docname="jupiter.svg">
  <defs
     id="defs4">
    <linearGradient
       id="linearGradient3795-8">
      <stop
         style="stop-color:#000000;stop-opacity:1"
         offset="0"
         id="stop3797-5" />
      <stop
         style="stop-color:#4d4d4d;stop-opacity:1"
         offset="1"
         id="stop3799-2" />
    </linearGradient>
    <linearGradient
       inkscape:collect="always"
       xlink:href="#linearGradient1975"
       id="linearGradient1981"
       x1="10.429825"
       y1="25.814526"
       x2="25.455845"
       y2="25.814526"
       gradientUnits="userSpaceOnUse"
       gradientTransform="matrix(1,0,0,0.85341842,-4.25,1008.2713)" />
    <linearGradient
       inkscape:collect="always"
       id="linearGradient1975">
      <stop
         style="stop-color:#4c5b19;stop-opacity:1"
         offset="0"
         id="stop1977" />
      <stop
         id="stop1983"
         offset="0.22547621"
         style="stop-color:#add858;stop-opacity:1" />
      <stop
         style="stop-color:#91ba60;stop-opacity:1"
         offset="1"
         id="stop1979" />
    </linearGradient>
    <linearGradient
       inkscape:collect="always"
       xlink:href="#linearGradient2005"
       id="linearGradient2003"
       gradientUnits="userSpaceOnUse"
       x1="10.429825"
       y1="25.814526"
       x2="25.455845"
       y2="25.814526"
       gradientTransform="matrix(1,0,0,0.04551025,-4.25,1014.6722)" />
    <linearGradient
       id="linearGradient2005"
       inkscape:collect="always">
      <stop
         id="stop2007"
         offset="0"
         style="stop-color:#1a1a1a;stop-opacity:1" />
      <stop
         style="stop-color:#4d4d4d;stop-opacity:1"
         offset="0.1127381"
         id="stop2013" />
      <stop
         id="stop2015"
         offset="0.16910715"
         style="stop-color:#ffffff;stop-opacity:1" />
      <stop
         style="stop-color:#808080;stop-opacity:1"
         offset="0.91594511"
         id="stop2009" />
      <stop
         id="stop2011"
         offset="1"
         style="stop-color:#4d4d4d;stop-opacity:1" />
    </linearGradient>
    <linearGradient
       inkscape:collect="always"
       xlink:href="#linearGradient1995"
       id="linearGradient1992"
       gradientUnits="userSpaceOnUse"
       x1="10.429825"
       y1="25.814526"
       x2="25.455845"
       y2="25.814526"
       gradientTransform="matrix(1,0,0,0.85341842,-4.25,1008.2713)" />
    <linearGradient
       id="linearGradient1995">
      <stop
         id="stop1997"
         offset="0"
         style="stop-color:#000000;stop-opacity:0.12184874" />
      <stop
         id="stop1999"
         offset="1"
         style="stop-color:#4d4d4d;stop-opacity:0" />
    </linearGradient>
    <linearGradient
       inkscape:collect="always"
       xlink:href="#linearGradient2005"
       id="linearGradient2021"
       gradientUnits="userSpaceOnUse"
       gradientTransform="matrix(1,0,0,0.04551025,-4.25,1043.6749)"
       x1="10.429825"
       y1="25.814526"
       x2="25.455845"
       y2="25.814526" />
    <linearGradient
       inkscape:collect="always"
       xlink:href="#linearGradient2005"
       id="linearGradient2025"
       gradientUnits="userSpaceOnUse"
       gradientTransform="matrix(0.35944445,0,0,0.04551025,7.243382,1013.1254)"
       x1="10.429825"
       y1="25.814526"
       x2="25.455845"
       y2="25.814526" />
    <linearGradient
       inkscape:collect="always"
       xlink:href="#linearGradient3795-8"
       id="linearGradient868"
       x1="85.913475"
       y1="1051.4783"
       x2="85.913475"
       y2="1006.577"
       gradientUnits="userSpaceOnUse"
       gradientTransform="translate(-60.145706,-0.31187227)" />
  </defs>
  <sodipodi:namedview
     id="base"
     pagecolor="#ffffff"
     bordercolor="#666666"
     borderopacity="1.0"
     inkscape:pageopacity="0.0"
     inkscape:pageshadow="2"
     inkscape:zoom="4"
     inkscape:cx="-35.457638"
     inkscape:cy="1.0537569"
     inkscape:document-units="px"
     inkscape:current-layer="layer1"
     showgrid="false"
     inkscape:window-width="1366"
     inkscape:window-height="714"
     inkscape:window-x="0"
     inkscape:window-y="30"
     inkscape:window-maximized="1">
    <inkscape:grid
       type="xygrid"
       id="grid3803" />
  </sodipodi:namedview>
  <metadata
     id="metadata7">
    <rdf:RDF>
      <cc:Work
         rdf:about="">
        <dc:format>image/svg+xml</dc:format>
        <dc:type
           rdf:resource="http://purl.org/dc/dcmitype/StillImage" />
        <dc:title />
      </cc:Work>
    </rdf:RDF>
  </metadata>
  <g
     inkscape:label="Capa 1"
     inkscape:groupmode="layer"
     id="layer1"
     transform="translate(0,-1004.3622)">
    <rect
       style="color:#000000;fill:#333333;fill-opacity:1;fill-rule:nonzero;stroke:none;stroke-width:0.2;marker:none;visibility:visible;display:inline;overflow:visible;enable-background:accumulate"
       id="rect6294"
       width="45.5"
       height="45.5"
       x="1.25"
       y="1005.6122"
       ry="6.3565426" />
    <rect
       ry="5.8565426"
       y="1006.1122"
       x="1.75"
       height="44.5"
       width="44.5"
       id="rect6296"
       style="color:#000000;fill:url(#linearGradient868);fill-opacity:1;fill-rule:nonzero;stroke:none;stroke-width:0.2;marker:none;visibility:visible;display:inline;overflow:visible;enable-background:accumulate" />
    <path
       id="path6361"
       d="m 1.7499998,1012.5497 0,-0.5625 c 0,-3.2445 2.599225,-5.875 5.84375,-5.875 l 32.8125042,0 c 3.24452,0 5.84375,2.6305 5.84375,5.875 l 0,0.5625 c 0,-3.2445 -2.59923,-5.875 -5.84375,-5.875 l -32.8125042,0 C 4.3492248,1006.6747 1.7499998,1009.3052 1.7499998,1012.5497 Z"
       style="color:#000000;fill:#ffffff;fill-opacity:1;fill-rule:nonzero;stroke:none;stroke-width:0.2;marker:none;visibility:visible;display:inline;overflow:visible;enable-background:accumulate"
       inkscape:connector-curvature="0" />
    <path
       inkscape:connector-curvature="0"
       style="color:#000000;fill:#000000;fill-opacity:1;fill-rule:nonzero;stroke:none;stroke-width:0.2;marker:none;visibility:visible;display:inline;overflow:visible;enable-background:accumulate"
       d="m 1.7499998,1044.1747 0,0.5625 c 0,3.2445 2.599225,5.875 5.84375,5.875 l 32.8125042,0 c 3.24452,0 5.84375,-2.6305 5.84375,-5.875 l 0,-0.5625 c 0,3.2445 -2.59923,5.875 -5.84375,5.875 l -32.8125042,0 C 4.3492248,1050.0497 1.7499998,1047.4192 1.7499998,1044.1747 Z"
       id="path6388" />
    <g
       id="g3022"
       transform="translate(-39.597979,0)">
      <g
         transform="translate(1.216506,-1.7381389)"
         id="g3795">
        <path
           sodipodi:nodetypes="ccccc"
           style="fill:none;stroke:#ffffff;stroke-width:0.5;stroke-linecap:butt;stroke-linejoin:miter;stroke-miterlimit:4;stroke-opacity:1;stroke-dasharray:none"
           d="m 15,16.875 -2.184816,14.218428 19.934816,0 L 30,16.867078 z"
           id="path3014"
           inkscape:connector-curvature="0"
           transform="translate(0,1004.3622)" />
        <path
           style="fill:none;stroke:#ffffff;stroke-width:0.5;stroke-linecap:butt;stroke-linejoin:miter;stroke-miterlimit:4;stroke-opacity:1;stroke-dasharray:none"
           d="m 12.741095,31.581214 0,3.027951 20.084798,0 0,-3.027951 z"
           id="path3018"
           inkscape:connector-curvature="0"
           sodipodi:nodetypes="ccccc"
           transform="translate(0,1004.3622)" />
      </g>
      <path
         sodipodi:nodetypes="ccccc"
         inkscape:connector-curvature="0"
         id="path3799"
         d="m 24.860389,1036.3494 -9.148194,0 0,-0.9281 c 2.96581,0 6.426744,0 9.148195,0 z"
         style="fill:none;stroke:#ffffff;stroke-width:0.40000001;stroke-linecap:butt;stroke-linejoin:miter;stroke-miterlimit:4;stroke-opacity:1;stroke-dasharray:none" />
      <path
         inkscape:connector-curvature="0"
         id="path3801"
         d="m 26.583962,1036.3494 4.507805,0 -2.61e-4,-0.6472 -4.507544,0 z"
         style="fill:none;stroke:#ffffff;stroke-width:0.40000001;stroke-linecap:butt;stroke-linejoin:miter;stroke-miterlimit:4;stroke-opacity:1;stroke-dasharray:none" />
    </g>
    <path
       style="opacity:0.11700003;fill:#ffffff;fill-opacity:0.5466667;stroke:none"
       d="M 7.59375 1.75 C 4.3492254 1.75 1.75 4.3492254 1.75 7.59375 L 1.75 12.78125 L 8.125 1.75 L 7.59375 1.75 z M 16.3125 1.75 L 1.75 26.96875 L 1.75 33.96875 L 20.34375 1.75 L 16.3125 1.75 z M 28.5 1.75 L 3.6875 44.71875 C 4.5479938 45.497402 5.6306027 46.030551 6.84375 46.1875 L 32.53125 1.75 L 28.5 1.75 z M 40.6875 1.75 L 15 46.25 L 19.03125 46.25 L 44 3 C 43.076958 2.2797593 41.939002 1.8095429 40.6875 1.75 z M 46.25 13.25 L 27.1875 46.25 L 31.21875 46.25 L 46.25 20.25 L 46.25 13.25 z M 46.25 34.4375 L 39.40625 46.25 L 40.40625 46.25 C 41.906713 46.25 43.24712 45.671475 44.28125 44.75 L 46.125 41.59375 C 46.12711 41.583659 46.122942 41.57261 46.125 41.5625 C 46.202759 41.180566 46.25 40.811816 46.25 40.40625 L 46.25 34.4375 z "
       transform="translate(0,1004.3622)"
       id="rect2124" />
    <g
       id="g2089"
       transform="matrix(0.93686108,0,0,0.93686108,11.165671,63.793455)">
      <rect
         style="fill:url(#linearGradient1981);fill-opacity:1;stroke:none"
         id="rect2001"
         width="15.026019"
         height="27.608202"
         x="6.1798248"
         y="1016.4978"
         ry="0" />
      <rect
         ry="0"
         y="1015.1109"
         x="6.1798248"
         height="1.4722629"
         width="15.026019"
         id="rect1971"
         style="fill:url(#linearGradient2003);fill-opacity:1;stroke:none" />
      <path
         sodipodi:nodetypes="cccccccc"
         inkscape:connector-curvature="0"
         id="rect1990"
         d="m 6.1875,1016.4854 0,27.6295 15.03125,0 0,-0.019 -12,0 c 0,-17.1287 -3.109723,-25.9032 12,-25.9032 L 21.21875,1016.4854 Z"
         style="opacity:0.64099995;fill:url(#linearGradient1992);fill-opacity:1;stroke:none" />
      <rect
         style="fill:url(#linearGradient2021);fill-opacity:1;stroke:none"
         id="rect2017"
         width="15.026019"
         height="1.4722629"
         x="6.1798248"
         y="1044.1136"
         ry="0" />
      <rect
         style="fill:url(#linearGradient2025);fill-opacity:1;stroke:none"
         id="rect2023"
         width="5.4010191"
         height="1.4722629"
         x="10.992325"
         y="1013.5641"
         ry="0" />
      <path
         id="rect2027"
         transform="translate(0,1004.3622)"
         d="m 13.78125,17.28125 -5.9375,6.40625 3.28125,0 0,4.25 5.3125,0 0,-4.25 3.28125,0 L 13.78125,17.28125 z m -2.65625,11.5 0,2.125 5.3125,0 0,-2.125 L 11.125,28.78125 z m 0,2.96875 0,2.09375 5.3125,0 0,-2.09375 L 11.125,31.75 Z"
         style="opacity:0.64099995;fill:#000000;fill-opacity:0.5466667;stroke:none"
         inkscape:connector-curvature="0" />
    </g>
  </g>
</svg>
