<?xml version="1.0" encoding="UTF-8" standalone="no"?>
<!-- Created with Inkscape (http://www.inkscape.org/) -->

<svg
   xmlns:dc="http://purl.org/dc/elements/1.1/"
   xmlns:cc="http://creativecommons.org/ns#"
   xmlns:rdf="http://www.w3.org/1999/02/22-rdf-syntax-ns#"
   xmlns:svg="http://www.w3.org/2000/svg"
   xmlns="http://www.w3.org/2000/svg"
   xmlns:xlink="http://www.w3.org/1999/xlink"
   xmlns:sodipodi="http://sodipodi.sourceforge.net/DTD/sodipodi-0.dtd"
   xmlns:inkscape="http://www.inkscape.org/namespaces/inkscape"
   width="48"
   height="48"
   id="svg2"
   version="1.1"
   inkscape:version="0.48+devel r12103"
   sodipodi:docname="accessories-character-map.svg">
  <defs
     id="defs4">
    <linearGradient
       id="linearGradient887">
      <stop
         style="stop-color:#00ccff;stop-opacity:1"
         offset="0"
         id="stop889" />
      <stop
         style="stop-color:#00a9d3;stop-opacity:1"
         offset="1"
         id="stop891" />
    </linearGradient>
    <radialGradient
       inkscape:collect="always"
       xlink:href="#linearGradient818"
       id="radialGradient824"
       cx="24"
       cy="1016.0184"
       fx="24"
       fy="1016.0184"
       r="17.875"
       gradientTransform="matrix(0.78838973,0,0,0.00964812,4.1727456,1007.9203)"
       gradientUnits="userSpaceOnUse" />
    <linearGradient
       inkscape:collect="always"
       id="linearGradient818">
      <stop
         style="stop-color:#ffffff;stop-opacity:1;"
         offset="0"
         id="stop820" />
      <stop
         style="stop-color:#ffffff;stop-opacity:0;"
         offset="1"
         id="stop822" />
    </linearGradient>
    <radialGradient
       inkscape:collect="always"
       xlink:href="#linearGradient818"
       id="radialGradient828"
       gradientUnits="userSpaceOnUse"
       gradientTransform="matrix(0.78838973,0,0,0.00964812,-1046.3761,20.346096)"
       cx="24"
       cy="1016.0184"
       fx="24"
       fy="1016.0184"
       r="17.875" />
    <radialGradient
       inkscape:collect="always"
       xlink:href="#linearGradient818"
       id="radialGradient832"
       gradientUnits="userSpaceOnUse"
       gradientTransform="matrix(0.78838973,0,0,0.00964812,-1046.3761,6.2366906)"
       cx="24"
       cy="1016.0184"
       fx="24"
       fy="1016.0184"
       r="17.875" />
    <radialGradient
       inkscape:collect="always"
       xlink:href="#linearGradient818"
       id="radialGradient836"
       gradientUnits="userSpaceOnUse"
       gradientTransform="matrix(0.78838973,0,0,0.00964812,4.1727317,1018.5618)"
       cx="24"
       cy="1016.0184"
       fx="24"
       fy="1016.0184"
       r="17.875" />
    <radialGradient
       inkscape:collect="always"
       xlink:href="#linearGradient818"
       id="radialGradient840"
       gradientUnits="userSpaceOnUse"
       gradientTransform="matrix(0.78838973,0,0,0.00964812,4.1727317,1027.4808)"
       cx="24"
       cy="1016.0184"
       fx="24"
       fy="1016.0184"
       r="17.875" />
    <radialGradient
       inkscape:collect="always"
       xlink:href="#linearGradient818"
       id="radialGradient844"
       gradientUnits="userSpaceOnUse"
       gradientTransform="matrix(0.78838973,0,0,0.00964812,-1048.1911,14.824476)"
       cx="24"
       cy="1016.0184"
       fx="24"
       fy="1016.0184"
       r="17.875" />
    <radialGradient
       inkscape:collect="always"
       xlink:href="#linearGradient818"
       id="radialGradient848"
       gradientUnits="userSpaceOnUse"
       gradientTransform="matrix(0.78838973,0,0,0.00964812,-1048.1911,18.32911)"
       cx="24"
       cy="1016.0184"
       fx="24"
       fy="1016.0184"
       r="17.875" />
    <radialGradient
       inkscape:collect="always"
       xlink:href="#linearGradient818"
       id="radialGradient854"
       gradientUnits="userSpaceOnUse"
       gradientTransform="matrix(0.78838973,0,0,0.00964812,4.1727465,1012.7774)"
       cx="24"
       cy="1016.0184"
       fx="24"
       fy="1016.0184"
       r="17.875" />
    <radialGradient
       inkscape:collect="always"
       xlink:href="#linearGradient818"
       id="radialGradient856"
       gradientUnits="userSpaceOnUse"
       gradientTransform="matrix(0.78838973,0,0,0.00964812,5.9845697,1017.0979)"
       cx="24"
       cy="1016.0184"
       fx="24"
       fy="1016.0184"
       r="17.875" />
    <linearGradient
       inkscape:collect="always"
       xlink:href="#linearGradient887"
       id="linearGradient885"
       x1="-33.856739"
       y1="1004.2338"
       x2="-33.856739"
       y2="1048.8844"
       gradientUnits="userSpaceOnUse"
       gradientTransform="translate(57.754452,1.7760968)" />
  </defs>
  <sodipodi:namedview
     id="base"
     pagecolor="#ffffff"
     bordercolor="#666666"
     borderopacity="1.0"
     inkscape:pageopacity="0.0"
     inkscape:pageshadow="2"
     inkscape:zoom="2.4441222"
     inkscape:cx="-6.9280423"
     inkscape:cy="63.142048"
     inkscape:document-units="px"
     inkscape:current-layer="layer1"
     showgrid="false"
     inkscape:window-width="1366"
     inkscape:window-height="718"
     inkscape:window-x="0"
     inkscape:window-y="28"
     inkscape:window-maximized="1" />
  <metadata
     id="metadata7">
    <rdf:RDF>
      <cc:Work
         rdf:about="">
        <dc:format>image/svg+xml</dc:format>
        <dc:type
           rdf:resource="http://purl.org/dc/dcmitype/StillImage" />
        <dc:title />
      </cc:Work>
    </rdf:RDF>
  </metadata>
  <g
     inkscape:label="Capa 1"
     inkscape:groupmode="layer"
     id="layer1"
     transform="translate(0,-1004.3622)">
    <rect
       style="color:#000000;fill:#333333;fill-opacity:1;fill-rule:nonzero;stroke:none;stroke-width:0.2;marker:none;visibility:visible;display:inline;overflow:visible;enable-background:accumulate"
       id="rect6294"
       width="45.5"
       height="45.5"
       x="1.25"
       y="1005.6122"
       ry="6.3565426" />
    <rect
       ry="5.8565426"
       y="1006.1122"
       x="1.75"
       height="44.5"
       width="44.5"
       id="rect6296"
       style="color:#000000;fill:url(#linearGradient885);fill-opacity:1;fill-rule:nonzero;stroke:none;stroke-width:0.2;marker:none;visibility:visible;display:inline;overflow:visible;enable-background:accumulate" />
    <path
       id="path6361"
       d="m 1.7500018,1012.5497 0,-0.5625 c 0,-3.2445 2.599225,-5.875 5.84375,-5.875 l 32.8125002,0 c 3.244525,0 5.84375,2.6305 5.84375,5.875 l 0,0.5625 c 0,-3.2445 -2.599225,-5.875 -5.84375,-5.875 l -32.8125002,0 C 4.3492268,1006.6747 1.7500018,1009.3052 1.7500018,1012.5497 Z"
       style="color:#000000;fill:#ffffff;fill-opacity:1;fill-rule:nonzero;stroke:none;stroke-width:0.2;marker:none;visibility:visible;display:inline;overflow:visible;enable-background:accumulate"
       inkscape:connector-curvature="0" />
    <path
       inkscape:connector-curvature="0"
       style="color:#000000;fill:#000000;fill-opacity:1;fill-rule:nonzero;stroke:none;stroke-width:0.2;marker:none;visibility:visible;display:inline;overflow:visible;enable-background:accumulate"
       d="m 1.7500018,1044.1747 0,0.5625 c 0,3.2445 2.599225,5.875 5.84375,5.875 l 32.8125002,0 c 3.244525,0 5.84375,-2.6305 5.84375,-5.875 l 0,-0.5625 c 0,3.2445 -2.599225,5.875 -5.84375,5.875 l -32.8125002,0 C 4.3492268,1050.0497 1.7500018,1047.4192 1.7500018,1044.1747 Z"
       id="path6388" />
    <rect
       style="opacity:0.35648151;fill:none;stroke:none"
       id="rect4543"
       width="48"
       height="48"
       x="-9.321289e-07"
       y="1004.3622" />
    <path
       style="opacity:0.95400002;color:#000000;fill:#ffffff;fill-opacity:0.17647059;fill-rule:nonzero;stroke:none;stroke-width:0.5;marker:none;visibility:visible;display:inline;overflow:visible;enable-background:accumulate"
       d="M 7.8125 1.75 L 7.8125 2.53125 L 6.40625 2.53125 L 6.40625 1.875 C 6.2885256 1.8996171 6.1774685 1.9372189 6.0625 1.96875 L 6.0625 2.53125 L 4.6875 2.53125 C 4.5048886 2.6358592 4.3257162 2.7519496 4.15625 2.875 L 4.28125 2.875 L 4.28125 4.28125 L 2.875 4.28125 L 2.875 4.15625 C 2.7519496 4.3257162 2.6358592 4.5048886 2.53125 4.6875 L 2.53125 6.0625 L 1.96875 6.0625 C 1.9372189 6.1774685 1.8996171 6.2885256 1.875 6.40625 L 2.53125 6.40625 L 2.53125 7.8125 L 1.75 7.8125 L 1.75 8.1875 L 2.53125 8.1875 L 2.53125 9.625 L 1.75 9.625 L 1.75 9.96875 L 2.53125 9.96875 L 2.53125 11.375 L 1.75 11.375 L 1.75 11.75 L 2.53125 11.75 L 2.53125 13.1875 L 1.75 13.1875 L 1.75 13.53125 L 2.53125 13.53125 L 2.53125 14.96875 L 1.75 14.96875 L 1.75 15.3125 L 2.53125 15.3125 L 2.53125 16.71875 L 1.75 16.71875 L 1.75 17.0625 L 2.53125 17.0625 L 2.53125 18.5 L 1.75 18.5 L 1.75 18.84375 L 2.53125 18.84375 L 2.53125 20.25 L 1.75 20.25 L 1.75 20.59375 L 2.53125 20.59375 L 2.53125 22.03125 L 1.75 22.03125 L 1.75 22.40625 L 2.53125 22.40625 L 2.53125 23.84375 L 1.75 23.84375 L 1.75 24.1875 L 2.53125 24.1875 L 2.53125 25.59375 L 1.75 25.59375 L 1.75 25.96875 L 2.53125 25.96875 L 2.53125 27.40625 L 1.75 27.40625 L 1.75 27.75 L 2.53125 27.75 L 2.53125 29.15625 L 1.75 29.15625 L 1.75 29.5 L 2.53125 29.5 L 2.53125 30.9375 L 1.75 30.9375 L 1.75 31.28125 L 2.53125 31.28125 L 2.53125 32.6875 L 1.75 32.6875 L 1.75 33.03125 L 2.53125 33.03125 L 2.53125 34.46875 L 1.75 34.46875 L 1.75 34.8125 L 2.53125 34.8125 L 2.53125 36.25 L 1.75 36.25 L 1.75 36.625 L 2.53125 36.625 L 2.53125 38.03125 L 1.75 38.03125 L 1.75 38.375 L 2.53125 38.375 L 2.53125 39.8125 L 1.75 39.8125 L 1.75 40.1875 L 2.53125 40.1875 L 2.53125 41.59375 L 1.875 41.59375 C 1.8996171 41.711474 1.9372189 41.822532 1.96875 41.9375 L 2.53125 41.9375 L 2.53125 43.3125 C 2.6358592 43.495111 2.7519496 43.674284 2.875 43.84375 L 2.875 43.71875 L 4.28125 43.71875 L 4.28125 45.125 L 4.15625 45.125 C 4.3257162 45.24805 4.5048886 45.364141 4.6875 45.46875 L 6.0625 45.46875 L 6.0625 46.03125 C 6.1774685 46.062781 6.2885256 46.100383 6.40625 46.125 L 6.40625 45.46875 L 7.8125 45.46875 L 7.8125 46.25 L 8.1875 46.25 L 8.1875 45.46875 L 9.625 45.46875 L 9.625 46.25 L 9.96875 46.25 L 9.96875 45.46875 L 11.375 45.46875 L 11.375 46.25 L 11.75 46.25 L 11.75 45.46875 L 13.1875 45.46875 L 13.1875 46.25 L 13.53125 46.25 L 13.53125 45.46875 L 14.96875 45.46875 L 14.96875 46.25 L 15.3125 46.25 L 15.3125 45.46875 L 16.71875 45.46875 L 16.71875 46.25 L 17.0625 46.25 L 17.0625 45.46875 L 18.5 45.46875 L 18.5 46.25 L 18.84375 46.25 L 18.84375 45.46875 L 20.25 45.46875 L 20.25 46.25 L 20.59375 46.25 L 20.59375 45.46875 L 22.03125 45.46875 L 22.03125 46.25 L 22.40625 46.25 L 22.40625 45.46875 L 23.84375 45.46875 L 23.84375 46.25 L 24.1875 46.25 L 24.1875 45.46875 L 25.59375 45.46875 L 25.59375 46.25 L 25.96875 46.25 L 25.96875 45.46875 L 27.40625 45.46875 L 27.40625 46.25 L 27.75 46.25 L 27.75 45.46875 L 29.15625 45.46875 L 29.15625 46.25 L 29.5 46.25 L 29.5 45.46875 L 30.9375 45.46875 L 30.9375 46.25 L 31.28125 46.25 L 31.28125 45.46875 L 32.6875 45.46875 L 32.6875 46.25 L 33.03125 46.25 L 33.03125 45.46875 L 34.46875 45.46875 L 34.46875 46.25 L 34.8125 46.25 L 34.8125 45.46875 L 36.25 45.46875 L 36.25 46.25 L 36.625 46.25 L 36.625 45.46875 L 38.03125 45.46875 L 38.03125 46.25 L 38.375 46.25 L 38.375 45.46875 L 39.8125 45.46875 L 39.8125 46.25 L 40.1875 46.25 L 40.1875 45.46875 L 41.59375 45.46875 L 41.59375 46.125 C 41.711474 46.100383 41.822532 46.062781 41.9375 46.03125 L 41.9375 45.46875 L 43.3125 45.46875 C 43.495111 45.364141 43.674284 45.24805 43.84375 45.125 L 43.71875 45.125 L 43.71875 43.71875 L 45.125 43.71875 L 45.125 43.84375 C 45.24805 43.674284 45.364141 43.495111 45.46875 43.3125 L 45.46875 41.9375 L 46.03125 41.9375 C 46.062781 41.822532 46.100383 41.711474 46.125 41.59375 L 45.46875 41.59375 L 45.46875 40.1875 L 46.25 40.1875 L 46.25 39.8125 L 45.46875 39.8125 L 45.46875 38.375 L 46.25 38.375 L 46.25 38.03125 L 45.46875 38.03125 L 45.46875 36.625 L 46.25 36.625 L 46.25 36.25 L 45.46875 36.25 L 45.46875 34.8125 L 46.25 34.8125 L 46.25 34.46875 L 45.46875 34.46875 L 45.46875 33.03125 L 46.25 33.03125 L 46.25 32.6875 L 45.46875 32.6875 L 45.46875 31.28125 L 46.25 31.28125 L 46.25 30.9375 L 45.46875 30.9375 L 45.46875 29.5 L 46.25 29.5 L 46.25 29.15625 L 45.46875 29.15625 L 45.46875 27.75 L 46.25 27.75 L 46.25 27.40625 L 45.46875 27.40625 L 45.46875 25.96875 L 46.25 25.96875 L 46.25 25.59375 L 45.46875 25.59375 L 45.46875 24.1875 L 46.25 24.1875 L 46.25 23.84375 L 45.46875 23.84375 L 45.46875 22.40625 L 46.25 22.40625 L 46.25 22.03125 L 45.46875 22.03125 L 45.46875 20.59375 L 46.25 20.59375 L 46.25 20.25 L 45.46875 20.25 L 45.46875 18.84375 L 46.25 18.84375 L 46.25 18.5 L 45.46875 18.5 L 45.46875 17.0625 L 46.25 17.0625 L 46.25 16.71875 L 45.46875 16.71875 L 45.46875 15.3125 L 46.25 15.3125 L 46.25 14.96875 L 45.46875 14.96875 L 45.46875 13.53125 L 46.25 13.53125 L 46.25 13.1875 L 45.46875 13.1875 L 45.46875 11.75 L 46.25 11.75 L 46.25 11.375 L 45.46875 11.375 L 45.46875 9.96875 L 46.25 9.96875 L 46.25 9.625 L 45.46875 9.625 L 45.46875 8.1875 L 46.25 8.1875 L 46.25 7.8125 L 45.46875 7.8125 L 45.46875 6.40625 L 46.125 6.40625 C 46.100383 6.2885256 46.062781 6.1774685 46.03125 6.0625 L 45.46875 6.0625 L 45.46875 4.6875 C 45.364141 4.5048886 45.24805 4.3257162 45.125 4.15625 L 45.125 4.28125 L 43.71875 4.28125 L 43.71875 2.875 L 43.84375 2.875 C 43.674284 2.7519496 43.495111 2.6358592 43.3125 2.53125 L 41.9375 2.53125 L 41.9375 1.96875 C 41.822532 1.9372189 41.711474 1.8996171 41.59375 1.875 L 41.59375 2.53125 L 40.1875 2.53125 L 40.1875 1.75 L 39.8125 1.75 L 39.8125 2.53125 L 38.375 2.53125 L 38.375 1.75 L 38.03125 1.75 L 38.03125 2.53125 L 36.625 2.53125 L 36.625 1.75 L 36.25 1.75 L 36.25 2.53125 L 34.8125 2.53125 L 34.8125 1.75 L 34.46875 1.75 L 34.46875 2.53125 L 33.03125 2.53125 L 33.03125 1.75 L 32.6875 1.75 L 32.6875 2.53125 L 31.28125 2.53125 L 31.28125 1.75 L 30.9375 1.75 L 30.9375 2.53125 L 29.5 2.53125 L 29.5 1.75 L 29.15625 1.75 L 29.15625 2.53125 L 27.75 2.53125 L 27.75 1.75 L 27.40625 1.75 L 27.40625 2.53125 L 25.96875 2.53125 L 25.96875 1.75 L 25.59375 1.75 L 25.59375 2.53125 L 24.1875 2.53125 L 24.1875 1.75 L 23.84375 1.75 L 23.84375 2.53125 L 22.40625 2.53125 L 22.40625 1.75 L 22.03125 1.75 L 22.03125 2.53125 L 20.59375 2.53125 L 20.59375 1.75 L 20.25 1.75 L 20.25 2.53125 L 18.84375 2.53125 L 18.84375 1.75 L 18.5 1.75 L 18.5 2.53125 L 17.0625 2.53125 L 17.0625 1.75 L 16.71875 1.75 L 16.71875 2.53125 L 15.3125 2.53125 L 15.3125 1.75 L 14.96875 1.75 L 14.96875 2.53125 L 13.53125 2.53125 L 13.53125 1.75 L 13.1875 1.75 L 13.1875 2.53125 L 11.75 2.53125 L 11.75 1.75 L 11.375 1.75 L 11.375 2.53125 L 9.96875 2.53125 L 9.96875 1.75 L 9.625 1.75 L 9.625 2.53125 L 8.1875 2.53125 L 8.1875 1.75 L 7.8125 1.75 z M 4.625 2.875 L 6.0625 2.875 L 6.0625 4.28125 L 4.625 4.28125 L 4.625 2.875 z M 6.40625 2.875 L 7.8125 2.875 L 7.8125 4.28125 L 6.40625 4.28125 L 6.40625 2.875 z M 8.1875 2.875 L 9.625 2.875 L 9.625 4.28125 L 8.1875 4.28125 L 8.1875 2.875 z M 9.96875 2.875 L 11.375 2.875 L 11.375 4.28125 L 9.96875 4.28125 L 9.96875 2.875 z M 11.75 2.875 L 13.1875 2.875 L 13.1875 4.28125 L 11.75 4.28125 L 11.75 2.875 z M 13.53125 2.875 L 14.96875 2.875 L 14.96875 4.28125 L 13.53125 4.28125 L 13.53125 2.875 z M 15.3125 2.875 L 16.71875 2.875 L 16.71875 4.28125 L 15.3125 4.28125 L 15.3125 2.875 z M 17.0625 2.875 L 18.5 2.875 L 18.5 4.28125 L 17.0625 4.28125 L 17.0625 2.875 z M 18.84375 2.875 L 20.25 2.875 L 20.25 4.28125 L 18.84375 4.28125 L 18.84375 2.875 z M 20.59375 2.875 L 22.03125 2.875 L 22.03125 4.28125 L 20.59375 4.28125 L 20.59375 2.875 z M 22.40625 2.875 L 23.84375 2.875 L 23.84375 4.28125 L 22.40625 4.28125 L 22.40625 2.875 z M 24.1875 2.875 L 25.59375 2.875 L 25.59375 4.28125 L 24.1875 4.28125 L 24.1875 2.875 z M 25.96875 2.875 L 27.40625 2.875 L 27.40625 4.28125 L 25.96875 4.28125 L 25.96875 2.875 z M 27.75 2.875 L 29.15625 2.875 L 29.15625 4.28125 L 27.75 4.28125 L 27.75 2.875 z M 29.5 2.875 L 30.9375 2.875 L 30.9375 4.28125 L 29.5 4.28125 L 29.5 2.875 z M 31.28125 2.875 L 32.6875 2.875 L 32.6875 4.28125 L 31.28125 4.28125 L 31.28125 2.875 z M 33.03125 2.875 L 34.46875 2.875 L 34.46875 4.28125 L 33.03125 4.28125 L 33.03125 2.875 z M 34.8125 2.875 L 36.25 2.875 L 36.25 4.28125 L 34.8125 4.28125 L 34.8125 2.875 z M 36.625 2.875 L 38.03125 2.875 L 38.03125 4.28125 L 36.625 4.28125 L 36.625 2.875 z M 38.375 2.875 L 39.8125 2.875 L 39.8125 4.28125 L 38.375 4.28125 L 38.375 2.875 z M 40.1875 2.875 L 41.59375 2.875 L 41.59375 4.28125 L 40.1875 4.28125 L 40.1875 2.875 z M 41.9375 2.875 L 43.375 2.875 L 43.375 4.28125 L 41.9375 4.28125 L 41.9375 2.875 z M 2.875 4.625 L 4.28125 4.625 L 4.28125 6.0625 L 2.875 6.0625 L 2.875 4.625 z M 4.625 4.625 L 6.0625 4.625 L 6.0625 6.0625 L 4.625 6.0625 L 4.625 4.625 z M 6.40625 4.625 L 7.8125 4.625 L 7.8125 6.0625 L 6.40625 6.0625 L 6.40625 4.625 z M 8.1875 4.625 L 9.625 4.625 L 9.625 6.0625 L 8.1875 6.0625 L 8.1875 4.625 z M 9.96875 4.625 L 11.375 4.625 L 11.375 6.0625 L 9.96875 6.0625 L 9.96875 4.625 z M 11.75 4.625 L 13.1875 4.625 L 13.1875 6.0625 L 11.75 6.0625 L 11.75 4.625 z M 13.53125 4.625 L 14.96875 4.625 L 14.96875 6.0625 L 13.53125 6.0625 L 13.53125 4.625 z M 15.3125 4.625 L 16.71875 4.625 L 16.71875 6.0625 L 15.3125 6.0625 L 15.3125 4.625 z M 17.0625 4.625 L 18.5 4.625 L 18.5 6.0625 L 17.0625 6.0625 L 17.0625 4.625 z M 18.84375 4.625 L 20.25 4.625 L 20.25 6.0625 L 18.84375 6.0625 L 18.84375 4.625 z M 20.59375 4.625 L 22.03125 4.625 L 22.03125 6.0625 L 20.59375 6.0625 L 20.59375 4.625 z M 22.40625 4.625 L 23.84375 4.625 L 23.84375 6.0625 L 22.40625 6.0625 L 22.40625 4.625 z M 24.1875 4.625 L 25.59375 4.625 L 25.59375 6.0625 L 24.1875 6.0625 L 24.1875 4.625 z M 25.96875 4.625 L 27.40625 4.625 L 27.40625 6.0625 L 25.96875 6.0625 L 25.96875 4.625 z M 27.75 4.625 L 29.15625 4.625 L 29.15625 6.0625 L 27.75 6.0625 L 27.75 4.625 z M 29.5 4.625 L 30.9375 4.625 L 30.9375 6.0625 L 29.5 6.0625 L 29.5 4.625 z M 31.28125 4.625 L 32.6875 4.625 L 32.6875 6.0625 L 31.28125 6.0625 L 31.28125 4.625 z M 33.03125 4.625 L 34.46875 4.625 L 34.46875 6.0625 L 33.03125 6.0625 L 33.03125 4.625 z M 34.8125 4.625 L 36.25 4.625 L 36.25 6.0625 L 34.8125 6.0625 L 34.8125 4.625 z M 36.625 4.625 L 38.03125 4.625 L 38.03125 6.0625 L 36.625 6.0625 L 36.625 4.625 z M 38.375 4.625 L 39.8125 4.625 L 39.8125 6.0625 L 38.375 6.0625 L 38.375 4.625 z M 40.1875 4.625 L 41.59375 4.625 L 41.59375 6.0625 L 40.1875 6.0625 L 40.1875 4.625 z M 41.9375 4.625 L 43.375 4.625 L 43.375 6.0625 L 41.9375 6.0625 L 41.9375 4.625 z M 43.71875 4.625 L 45.125 4.625 L 45.125 6.0625 L 43.71875 6.0625 L 43.71875 4.625 z M 2.875 6.40625 L 4.28125 6.40625 L 4.28125 7.8125 L 2.875 7.8125 L 2.875 6.40625 z M 4.625 6.40625 L 6.0625 6.40625 L 6.0625 7.8125 L 4.625 7.8125 L 4.625 6.40625 z M 6.40625 6.40625 L 7.8125 6.40625 L 7.8125 7.8125 L 6.40625 7.8125 L 6.40625 6.40625 z M 8.1875 6.40625 L 9.625 6.40625 L 9.625 7.8125 L 8.1875 7.8125 L 8.1875 6.40625 z M 9.96875 6.40625 L 11.375 6.40625 L 11.375 7.8125 L 9.96875 7.8125 L 9.96875 6.40625 z M 11.75 6.40625 L 13.1875 6.40625 L 13.1875 7.8125 L 11.75 7.8125 L 11.75 6.40625 z M 13.53125 6.40625 L 14.96875 6.40625 L 14.96875 7.8125 L 13.53125 7.8125 L 13.53125 6.40625 z M 15.3125 6.40625 L 16.71875 6.40625 L 16.71875 7.8125 L 15.3125 7.8125 L 15.3125 6.40625 z M 17.0625 6.40625 L 18.5 6.40625 L 18.5 7.8125 L 17.0625 7.8125 L 17.0625 6.40625 z M 18.84375 6.40625 L 20.25 6.40625 L 20.25 7.8125 L 18.84375 7.8125 L 18.84375 6.40625 z M 20.59375 6.40625 L 22.03125 6.40625 L 22.03125 7.8125 L 20.59375 7.8125 L 20.59375 6.40625 z M 22.40625 6.40625 L 23.84375 6.40625 L 23.84375 7.8125 L 22.40625 7.8125 L 22.40625 6.40625 z M 24.1875 6.40625 L 25.59375 6.40625 L 25.59375 7.8125 L 24.1875 7.8125 L 24.1875 6.40625 z M 25.96875 6.40625 L 27.40625 6.40625 L 27.40625 7.8125 L 25.96875 7.8125 L 25.96875 6.40625 z M 27.75 6.40625 L 29.15625 6.40625 L 29.15625 7.8125 L 27.75 7.8125 L 27.75 6.40625 z M 29.5 6.40625 L 30.9375 6.40625 L 30.9375 7.8125 L 29.5 7.8125 L 29.5 6.40625 z M 31.28125 6.40625 L 32.6875 6.40625 L 32.6875 7.8125 L 31.28125 7.8125 L 31.28125 6.40625 z M 33.03125 6.40625 L 34.46875 6.40625 L 34.46875 7.8125 L 33.03125 7.8125 L 33.03125 6.40625 z M 34.8125 6.40625 L 36.25 6.40625 L 36.25 7.8125 L 34.8125 7.8125 L 34.8125 6.40625 z M 36.625 6.40625 L 38.03125 6.40625 L 38.03125 7.8125 L 36.625 7.8125 L 36.625 6.40625 z M 38.375 6.40625 L 39.8125 6.40625 L 39.8125 7.8125 L 38.375 7.8125 L 38.375 6.40625 z M 40.1875 6.40625 L 41.59375 6.40625 L 41.59375 7.8125 L 40.1875 7.8125 L 40.1875 6.40625 z M 41.9375 6.40625 L 43.375 6.40625 L 43.375 7.8125 L 41.9375 7.8125 L 41.9375 6.40625 z M 43.71875 6.40625 L 45.125 6.40625 L 45.125 7.8125 L 43.71875 7.8125 L 43.71875 6.40625 z M 2.875 8.1875 L 4.28125 8.1875 L 4.28125 9.625 L 2.875 9.625 L 2.875 8.1875 z M 4.625 8.1875 L 6.0625 8.1875 L 6.0625 9.625 L 4.625 9.625 L 4.625 8.1875 z M 6.40625 8.1875 L 7.8125 8.1875 L 7.8125 9.625 L 6.40625 9.625 L 6.40625 8.1875 z M 8.1875 8.1875 L 9.625 8.1875 L 9.625 9.625 L 8.1875 9.625 L 8.1875 8.1875 z M 9.96875 8.1875 L 11.375 8.1875 L 11.375 9.625 L 9.96875 9.625 L 9.96875 8.1875 z M 11.75 8.1875 L 13.1875 8.1875 L 13.1875 9.625 L 11.75 9.625 L 11.75 8.1875 z M 13.53125 8.1875 L 14.96875 8.1875 L 14.96875 9.625 L 13.53125 9.625 L 13.53125 8.1875 z M 15.3125 8.1875 L 16.71875 8.1875 L 16.71875 9.625 L 15.3125 9.625 L 15.3125 8.1875 z M 17.0625 8.1875 L 18.5 8.1875 L 18.5 9.625 L 17.0625 9.625 L 17.0625 8.1875 z M 18.84375 8.1875 L 20.25 8.1875 L 20.25 9.625 L 18.84375 9.625 L 18.84375 8.1875 z M 20.59375 8.1875 L 22.03125 8.1875 L 22.03125 9.625 L 20.59375 9.625 L 20.59375 8.1875 z M 22.40625 8.1875 L 23.84375 8.1875 L 23.84375 9.625 L 22.40625 9.625 L 22.40625 8.1875 z M 24.1875 8.1875 L 25.59375 8.1875 L 25.59375 9.625 L 24.1875 9.625 L 24.1875 8.1875 z M 25.96875 8.1875 L 27.40625 8.1875 L 27.40625 9.625 L 25.96875 9.625 L 25.96875 8.1875 z M 27.75 8.1875 L 29.15625 8.1875 L 29.15625 9.625 L 27.75 9.625 L 27.75 8.1875 z M 29.5 8.1875 L 30.9375 8.1875 L 30.9375 9.625 L 29.5 9.625 L 29.5 8.1875 z M 31.28125 8.1875 L 32.6875 8.1875 L 32.6875 9.625 L 31.28125 9.625 L 31.28125 8.1875 z M 33.03125 8.1875 L 34.46875 8.1875 L 34.46875 9.625 L 33.03125 9.625 L 33.03125 8.1875 z M 34.8125 8.1875 L 36.25 8.1875 L 36.25 9.625 L 34.8125 9.625 L 34.8125 8.1875 z M 36.625 8.1875 L 38.03125 8.1875 L 38.03125 9.625 L 36.625 9.625 L 36.625 8.1875 z M 38.375 8.1875 L 39.8125 8.1875 L 39.8125 9.625 L 38.375 9.625 L 38.375 8.1875 z M 40.1875 8.1875 L 41.59375 8.1875 L 41.59375 9.625 L 40.1875 9.625 L 40.1875 8.1875 z M 41.9375 8.1875 L 43.375 8.1875 L 43.375 9.625 L 41.9375 9.625 L 41.9375 8.1875 z M 43.71875 8.1875 L 45.125 8.1875 L 45.125 9.625 L 43.71875 9.625 L 43.71875 8.1875 z M 2.875 9.96875 L 4.28125 9.96875 L 4.28125 11.375 L 2.875 11.375 L 2.875 9.96875 z M 4.625 9.96875 L 6.0625 9.96875 L 6.0625 11.375 L 4.625 11.375 L 4.625 9.96875 z M 6.40625 9.96875 L 7.8125 9.96875 L 7.8125 11.375 L 6.40625 11.375 L 6.40625 9.96875 z M 8.1875 9.96875 L 9.625 9.96875 L 9.625 11.375 L 8.1875 11.375 L 8.1875 9.96875 z M 9.96875 9.96875 L 11.375 9.96875 L 11.375 11.375 L 9.96875 11.375 L 9.96875 9.96875 z M 11.75 9.96875 L 13.1875 9.96875 L 13.1875 11.375 L 11.75 11.375 L 11.75 9.96875 z M 13.53125 9.96875 L 14.96875 9.96875 L 14.96875 11.375 L 13.53125 11.375 L 13.53125 9.96875 z M 15.3125 9.96875 L 16.71875 9.96875 L 16.71875 11.375 L 15.3125 11.375 L 15.3125 9.96875 z M 17.0625 9.96875 L 18.5 9.96875 L 18.5 11.375 L 17.0625 11.375 L 17.0625 9.96875 z M 18.84375 9.96875 L 20.25 9.96875 L 20.25 11.375 L 18.84375 11.375 L 18.84375 9.96875 z M 20.59375 9.96875 L 22.03125 9.96875 L 22.03125 11.375 L 20.59375 11.375 L 20.59375 9.96875 z M 22.40625 9.96875 L 23.84375 9.96875 L 23.84375 11.375 L 22.40625 11.375 L 22.40625 9.96875 z M 24.1875 9.96875 L 25.59375 9.96875 L 25.59375 11.375 L 24.1875 11.375 L 24.1875 9.96875 z M 25.96875 9.96875 L 27.40625 9.96875 L 27.40625 11.375 L 25.96875 11.375 L 25.96875 9.96875 z M 27.75 9.96875 L 29.15625 9.96875 L 29.15625 11.375 L 27.75 11.375 L 27.75 9.96875 z M 29.5 9.96875 L 30.9375 9.96875 L 30.9375 11.375 L 29.5 11.375 L 29.5 9.96875 z M 31.28125 9.96875 L 32.6875 9.96875 L 32.6875 11.375 L 31.28125 11.375 L 31.28125 9.96875 z M 33.03125 9.96875 L 34.46875 9.96875 L 34.46875 11.375 L 33.03125 11.375 L 33.03125 9.96875 z M 34.8125 9.96875 L 36.25 9.96875 L 36.25 11.375 L 34.8125 11.375 L 34.8125 9.96875 z M 36.625 9.96875 L 38.03125 9.96875 L 38.03125 11.375 L 36.625 11.375 L 36.625 9.96875 z M 38.375 9.96875 L 39.8125 9.96875 L 39.8125 11.375 L 38.375 11.375 L 38.375 9.96875 z M 40.1875 9.96875 L 41.59375 9.96875 L 41.59375 11.375 L 40.1875 11.375 L 40.1875 9.96875 z M 41.9375 9.96875 L 43.375 9.96875 L 43.375 11.375 L 41.9375 11.375 L 41.9375 9.96875 z M 43.71875 9.96875 L 45.125 9.96875 L 45.125 11.375 L 43.71875 11.375 L 43.71875 9.96875 z M 2.875 11.75 L 4.28125 11.75 L 4.28125 13.1875 L 2.875 13.1875 L 2.875 11.75 z M 4.625 11.75 L 6.0625 11.75 L 6.0625 13.1875 L 4.625 13.1875 L 4.625 11.75 z M 6.40625 11.75 L 7.8125 11.75 L 7.8125 13.1875 L 6.40625 13.1875 L 6.40625 11.75 z M 8.1875 11.75 L 9.625 11.75 L 9.625 13.1875 L 8.1875 13.1875 L 8.1875 11.75 z M 9.96875 11.75 L 11.375 11.75 L 11.375 13.1875 L 9.96875 13.1875 L 9.96875 11.75 z M 11.75 11.75 L 13.1875 11.75 L 13.1875 13.1875 L 11.75 13.1875 L 11.75 11.75 z M 13.53125 11.75 L 14.96875 11.75 L 14.96875 13.1875 L 13.53125 13.1875 L 13.53125 11.75 z M 15.3125 11.75 L 16.71875 11.75 L 16.71875 13.1875 L 15.3125 13.1875 L 15.3125 11.75 z M 17.0625 11.75 L 18.5 11.75 L 18.5 13.1875 L 17.0625 13.1875 L 17.0625 11.75 z M 18.84375 11.75 L 20.25 11.75 L 20.25 13.1875 L 18.84375 13.1875 L 18.84375 11.75 z M 20.59375 11.75 L 22.03125 11.75 L 22.03125 13.1875 L 20.59375 13.1875 L 20.59375 11.75 z M 22.40625 11.75 L 23.84375 11.75 L 23.84375 13.1875 L 22.40625 13.1875 L 22.40625 11.75 z M 24.1875 11.75 L 25.59375 11.75 L 25.59375 13.1875 L 24.1875 13.1875 L 24.1875 11.75 z M 25.96875 11.75 L 27.40625 11.75 L 27.40625 13.1875 L 25.96875 13.1875 L 25.96875 11.75 z M 27.75 11.75 L 29.15625 11.75 L 29.15625 13.1875 L 27.75 13.1875 L 27.75 11.75 z M 29.5 11.75 L 30.9375 11.75 L 30.9375 13.1875 L 29.5 13.1875 L 29.5 11.75 z M 31.28125 11.75 L 32.6875 11.75 L 32.6875 13.1875 L 31.28125 13.1875 L 31.28125 11.75 z M 33.03125 11.75 L 34.46875 11.75 L 34.46875 13.1875 L 33.03125 13.1875 L 33.03125 11.75 z M 34.8125 11.75 L 36.25 11.75 L 36.25 13.1875 L 34.8125 13.1875 L 34.8125 11.75 z M 36.625 11.75 L 38.03125 11.75 L 38.03125 13.1875 L 36.625 13.1875 L 36.625 11.75 z M 38.375 11.75 L 39.8125 11.75 L 39.8125 13.1875 L 38.375 13.1875 L 38.375 11.75 z M 40.1875 11.75 L 41.59375 11.75 L 41.59375 13.1875 L 40.1875 13.1875 L 40.1875 11.75 z M 41.9375 11.75 L 43.375 11.75 L 43.375 13.1875 L 41.9375 13.1875 L 41.9375 11.75 z M 43.71875 11.75 L 45.125 11.75 L 45.125 13.1875 L 43.71875 13.1875 L 43.71875 11.75 z M 2.875 13.53125 L 4.28125 13.53125 L 4.28125 14.96875 L 2.875 14.96875 L 2.875 13.53125 z M 4.625 13.53125 L 6.0625 13.53125 L 6.0625 14.96875 L 4.625 14.96875 L 4.625 13.53125 z M 6.40625 13.53125 L 7.8125 13.53125 L 7.8125 14.96875 L 6.40625 14.96875 L 6.40625 13.53125 z M 8.1875 13.53125 L 9.625 13.53125 L 9.625 14.96875 L 8.1875 14.96875 L 8.1875 13.53125 z M 9.96875 13.53125 L 11.375 13.53125 L 11.375 14.96875 L 9.96875 14.96875 L 9.96875 13.53125 z M 11.75 13.53125 L 13.1875 13.53125 L 13.1875 14.96875 L 11.75 14.96875 L 11.75 13.53125 z M 13.53125 13.53125 L 14.96875 13.53125 L 14.96875 14.96875 L 13.53125 14.96875 L 13.53125 13.53125 z M 15.3125 13.53125 L 16.71875 13.53125 L 16.71875 14.96875 L 15.3125 14.96875 L 15.3125 13.53125 z M 17.0625 13.53125 L 18.5 13.53125 L 18.5 14.96875 L 17.0625 14.96875 L 17.0625 13.53125 z M 18.84375 13.53125 L 20.25 13.53125 L 20.25 14.96875 L 18.84375 14.96875 L 18.84375 13.53125 z M 20.59375 13.53125 L 22.03125 13.53125 L 22.03125 14.96875 L 20.59375 14.96875 L 20.59375 13.53125 z M 22.40625 13.53125 L 23.84375 13.53125 L 23.84375 14.96875 L 22.40625 14.96875 L 22.40625 13.53125 z M 24.1875 13.53125 L 25.59375 13.53125 L 25.59375 14.96875 L 24.1875 14.96875 L 24.1875 13.53125 z M 25.96875 13.53125 L 27.40625 13.53125 L 27.40625 14.96875 L 25.96875 14.96875 L 25.96875 13.53125 z M 27.75 13.53125 L 29.15625 13.53125 L 29.15625 14.96875 L 27.75 14.96875 L 27.75 13.53125 z M 29.5 13.53125 L 30.9375 13.53125 L 30.9375 14.96875 L 29.5 14.96875 L 29.5 13.53125 z M 31.28125 13.53125 L 32.6875 13.53125 L 32.6875 14.96875 L 31.28125 14.96875 L 31.28125 13.53125 z M 33.03125 13.53125 L 34.46875 13.53125 L 34.46875 14.96875 L 33.03125 14.96875 L 33.03125 13.53125 z M 34.8125 13.53125 L 36.25 13.53125 L 36.25 14.96875 L 34.8125 14.96875 L 34.8125 13.53125 z M 36.625 13.53125 L 38.03125 13.53125 L 38.03125 14.96875 L 36.625 14.96875 L 36.625 13.53125 z M 38.375 13.53125 L 39.8125 13.53125 L 39.8125 14.96875 L 38.375 14.96875 L 38.375 13.53125 z M 40.1875 13.53125 L 41.59375 13.53125 L 41.59375 14.96875 L 40.1875 14.96875 L 40.1875 13.53125 z M 41.9375 13.53125 L 43.375 13.53125 L 43.375 14.96875 L 41.9375 14.96875 L 41.9375 13.53125 z M 43.71875 13.53125 L 45.125 13.53125 L 45.125 14.96875 L 43.71875 14.96875 L 43.71875 13.53125 z M 2.875 15.3125 L 4.28125 15.3125 L 4.28125 16.71875 L 2.875 16.71875 L 2.875 15.3125 z M 4.625 15.3125 L 6.0625 15.3125 L 6.0625 16.71875 L 4.625 16.71875 L 4.625 15.3125 z M 6.40625 15.3125 L 7.8125 15.3125 L 7.8125 16.71875 L 6.40625 16.71875 L 6.40625 15.3125 z M 8.1875 15.3125 L 9.625 15.3125 L 9.625 16.71875 L 8.1875 16.71875 L 8.1875 15.3125 z M 9.96875 15.3125 L 11.375 15.3125 L 11.375 16.71875 L 9.96875 16.71875 L 9.96875 15.3125 z M 11.75 15.3125 L 13.1875 15.3125 L 13.1875 16.71875 L 11.75 16.71875 L 11.75 15.3125 z M 13.53125 15.3125 L 14.96875 15.3125 L 14.96875 16.71875 L 13.53125 16.71875 L 13.53125 15.3125 z M 15.3125 15.3125 L 16.71875 15.3125 L 16.71875 16.71875 L 15.3125 16.71875 L 15.3125 15.3125 z M 17.0625 15.3125 L 18.5 15.3125 L 18.5 16.71875 L 17.0625 16.71875 L 17.0625 15.3125 z M 18.84375 15.3125 L 20.25 15.3125 L 20.25 16.71875 L 18.84375 16.71875 L 18.84375 15.3125 z M 20.59375 15.3125 L 22.03125 15.3125 L 22.03125 16.71875 L 20.59375 16.71875 L 20.59375 15.3125 z M 22.40625 15.3125 L 23.84375 15.3125 L 23.84375 16.71875 L 22.40625 16.71875 L 22.40625 15.3125 z M 24.1875 15.3125 L 25.59375 15.3125 L 25.59375 16.71875 L 24.1875 16.71875 L 24.1875 15.3125 z M 25.96875 15.3125 L 27.40625 15.3125 L 27.40625 16.71875 L 25.96875 16.71875 L 25.96875 15.3125 z M 27.75 15.3125 L 29.15625 15.3125 L 29.15625 16.71875 L 27.75 16.71875 L 27.75 15.3125 z M 29.5 15.3125 L 30.9375 15.3125 L 30.9375 16.71875 L 29.5 16.71875 L 29.5 15.3125 z M 31.28125 15.3125 L 32.6875 15.3125 L 32.6875 16.71875 L 31.28125 16.71875 L 31.28125 15.3125 z M 33.03125 15.3125 L 34.46875 15.3125 L 34.46875 16.71875 L 33.03125 16.71875 L 33.03125 15.3125 z M 34.8125 15.3125 L 36.25 15.3125 L 36.25 16.71875 L 34.8125 16.71875 L 34.8125 15.3125 z M 36.625 15.3125 L 38.03125 15.3125 L 38.03125 16.71875 L 36.625 16.71875 L 36.625 15.3125 z M 38.375 15.3125 L 39.8125 15.3125 L 39.8125 16.71875 L 38.375 16.71875 L 38.375 15.3125 z M 40.1875 15.3125 L 41.59375 15.3125 L 41.59375 16.71875 L 40.1875 16.71875 L 40.1875 15.3125 z M 41.9375 15.3125 L 43.375 15.3125 L 43.375 16.71875 L 41.9375 16.71875 L 41.9375 15.3125 z M 43.71875 15.3125 L 45.125 15.3125 L 45.125 16.71875 L 43.71875 16.71875 L 43.71875 15.3125 z M 2.875 17.0625 L 4.28125 17.0625 L 4.28125 18.5 L 2.875 18.5 L 2.875 17.0625 z M 4.625 17.0625 L 6.0625 17.0625 L 6.0625 18.5 L 4.625 18.5 L 4.625 17.0625 z M 6.40625 17.0625 L 7.8125 17.0625 L 7.8125 18.5 L 6.40625 18.5 L 6.40625 17.0625 z M 8.1875 17.0625 L 9.625 17.0625 L 9.625 18.5 L 8.1875 18.5 L 8.1875 17.0625 z M 9.96875 17.0625 L 11.375 17.0625 L 11.375 18.5 L 9.96875 18.5 L 9.96875 17.0625 z M 11.75 17.0625 L 13.1875 17.0625 L 13.1875 18.5 L 11.75 18.5 L 11.75 17.0625 z M 13.53125 17.0625 L 14.96875 17.0625 L 14.96875 18.5 L 13.53125 18.5 L 13.53125 17.0625 z M 15.3125 17.0625 L 16.71875 17.0625 L 16.71875 18.5 L 15.3125 18.5 L 15.3125 17.0625 z M 17.0625 17.0625 L 18.5 17.0625 L 18.5 18.5 L 17.0625 18.5 L 17.0625 17.0625 z M 18.84375 17.0625 L 20.25 17.0625 L 20.25 18.5 L 18.84375 18.5 L 18.84375 17.0625 z M 20.59375 17.0625 L 22.03125 17.0625 L 22.03125 18.5 L 20.59375 18.5 L 20.59375 17.0625 z M 22.40625 17.0625 L 23.84375 17.0625 L 23.84375 18.5 L 22.40625 18.5 L 22.40625 17.0625 z M 24.1875 17.0625 L 25.59375 17.0625 L 25.59375 18.5 L 24.1875 18.5 L 24.1875 17.0625 z M 25.96875 17.0625 L 27.40625 17.0625 L 27.40625 18.5 L 25.96875 18.5 L 25.96875 17.0625 z M 27.75 17.0625 L 29.15625 17.0625 L 29.15625 18.5 L 27.75 18.5 L 27.75 17.0625 z M 29.5 17.0625 L 30.9375 17.0625 L 30.9375 18.5 L 29.5 18.5 L 29.5 17.0625 z M 31.28125 17.0625 L 32.6875 17.0625 L 32.6875 18.5 L 31.28125 18.5 L 31.28125 17.0625 z M 33.03125 17.0625 L 34.46875 17.0625 L 34.46875 18.5 L 33.03125 18.5 L 33.03125 17.0625 z M 34.8125 17.0625 L 36.25 17.0625 L 36.25 18.5 L 34.8125 18.5 L 34.8125 17.0625 z M 36.625 17.0625 L 38.03125 17.0625 L 38.03125 18.5 L 36.625 18.5 L 36.625 17.0625 z M 38.375 17.0625 L 39.8125 17.0625 L 39.8125 18.5 L 38.375 18.5 L 38.375 17.0625 z M 40.1875 17.0625 L 41.59375 17.0625 L 41.59375 18.5 L 40.1875 18.5 L 40.1875 17.0625 z M 41.9375 17.0625 L 43.375 17.0625 L 43.375 18.5 L 41.9375 18.5 L 41.9375 17.0625 z M 43.71875 17.0625 L 45.125 17.0625 L 45.125 18.5 L 43.71875 18.5 L 43.71875 17.0625 z M 2.875 18.84375 L 4.28125 18.84375 L 4.28125 20.25 L 2.875 20.25 L 2.875 18.84375 z M 4.625 18.84375 L 6.0625 18.84375 L 6.0625 20.25 L 4.625 20.25 L 4.625 18.84375 z M 6.40625 18.84375 L 7.8125 18.84375 L 7.8125 20.25 L 6.40625 20.25 L 6.40625 18.84375 z M 8.1875 18.84375 L 9.625 18.84375 L 9.625 20.25 L 8.1875 20.25 L 8.1875 18.84375 z M 9.96875 18.84375 L 11.375 18.84375 L 11.375 20.25 L 9.96875 20.25 L 9.96875 18.84375 z M 11.75 18.84375 L 13.1875 18.84375 L 13.1875 20.25 L 11.75 20.25 L 11.75 18.84375 z M 13.53125 18.84375 L 14.96875 18.84375 L 14.96875 20.25 L 13.53125 20.25 L 13.53125 18.84375 z M 15.3125 18.84375 L 16.71875 18.84375 L 16.71875 20.25 L 15.3125 20.25 L 15.3125 18.84375 z M 17.0625 18.84375 L 18.5 18.84375 L 18.5 20.25 L 17.0625 20.25 L 17.0625 18.84375 z M 18.84375 18.84375 L 20.25 18.84375 L 20.25 20.25 L 18.84375 20.25 L 18.84375 18.84375 z M 20.59375 18.84375 L 22.03125 18.84375 L 22.03125 20.25 L 20.59375 20.25 L 20.59375 18.84375 z M 22.40625 18.84375 L 23.84375 18.84375 L 23.84375 20.25 L 22.40625 20.25 L 22.40625 18.84375 z M 24.1875 18.84375 L 25.59375 18.84375 L 25.59375 20.25 L 24.1875 20.25 L 24.1875 18.84375 z M 25.96875 18.84375 L 27.40625 18.84375 L 27.40625 20.25 L 25.96875 20.25 L 25.96875 18.84375 z M 27.75 18.84375 L 29.15625 18.84375 L 29.15625 20.25 L 27.75 20.25 L 27.75 18.84375 z M 29.5 18.84375 L 30.9375 18.84375 L 30.9375 20.25 L 29.5 20.25 L 29.5 18.84375 z M 31.28125 18.84375 L 32.6875 18.84375 L 32.6875 20.25 L 31.28125 20.25 L 31.28125 18.84375 z M 33.03125 18.84375 L 34.46875 18.84375 L 34.46875 20.25 L 33.03125 20.25 L 33.03125 18.84375 z M 34.8125 18.84375 L 36.25 18.84375 L 36.25 20.25 L 34.8125 20.25 L 34.8125 18.84375 z M 36.625 18.84375 L 38.03125 18.84375 L 38.03125 20.25 L 36.625 20.25 L 36.625 18.84375 z M 38.375 18.84375 L 39.8125 18.84375 L 39.8125 20.25 L 38.375 20.25 L 38.375 18.84375 z M 40.1875 18.84375 L 41.59375 18.84375 L 41.59375 20.25 L 40.1875 20.25 L 40.1875 18.84375 z M 41.9375 18.84375 L 43.375 18.84375 L 43.375 20.25 L 41.9375 20.25 L 41.9375 18.84375 z M 43.71875 18.84375 L 45.125 18.84375 L 45.125 20.25 L 43.71875 20.25 L 43.71875 18.84375 z M 2.875 20.59375 L 4.28125 20.59375 L 4.28125 22.03125 L 2.875 22.03125 L 2.875 20.59375 z M 4.625 20.59375 L 6.0625 20.59375 L 6.0625 22.03125 L 4.625 22.03125 L 4.625 20.59375 z M 6.40625 20.59375 L 7.8125 20.59375 L 7.8125 22.03125 L 6.40625 22.03125 L 6.40625 20.59375 z M 8.1875 20.59375 L 9.625 20.59375 L 9.625 22.03125 L 8.1875 22.03125 L 8.1875 20.59375 z M 9.96875 20.59375 L 11.375 20.59375 L 11.375 22.03125 L 9.96875 22.03125 L 9.96875 20.59375 z M 11.75 20.59375 L 13.1875 20.59375 L 13.1875 22.03125 L 11.75 22.03125 L 11.75 20.59375 z M 13.53125 20.59375 L 14.96875 20.59375 L 14.96875 22.03125 L 13.53125 22.03125 L 13.53125 20.59375 z M 15.3125 20.59375 L 16.71875 20.59375 L 16.71875 22.03125 L 15.3125 22.03125 L 15.3125 20.59375 z M 17.0625 20.59375 L 18.5 20.59375 L 18.5 22.03125 L 17.0625 22.03125 L 17.0625 20.59375 z M 18.84375 20.59375 L 20.25 20.59375 L 20.25 22.03125 L 18.84375 22.03125 L 18.84375 20.59375 z M 20.59375 20.59375 L 22.03125 20.59375 L 22.03125 22.03125 L 20.59375 22.03125 L 20.59375 20.59375 z M 22.40625 20.59375 L 23.84375 20.59375 L 23.84375 22.03125 L 22.40625 22.03125 L 22.40625 20.59375 z M 24.1875 20.59375 L 25.59375 20.59375 L 25.59375 22.03125 L 24.1875 22.03125 L 24.1875 20.59375 z M 25.96875 20.59375 L 27.40625 20.59375 L 27.40625 22.03125 L 25.96875 22.03125 L 25.96875 20.59375 z M 27.75 20.59375 L 29.15625 20.59375 L 29.15625 22.03125 L 27.75 22.03125 L 27.75 20.59375 z M 29.5 20.59375 L 30.9375 20.59375 L 30.9375 22.03125 L 29.5 22.03125 L 29.5 20.59375 z M 31.28125 20.59375 L 32.6875 20.59375 L 32.6875 22.03125 L 31.28125 22.03125 L 31.28125 20.59375 z M 33.03125 20.59375 L 34.46875 20.59375 L 34.46875 22.03125 L 33.03125 22.03125 L 33.03125 20.59375 z M 34.8125 20.59375 L 36.25 20.59375 L 36.25 22.03125 L 34.8125 22.03125 L 34.8125 20.59375 z M 36.625 20.59375 L 38.03125 20.59375 L 38.03125 22.03125 L 36.625 22.03125 L 36.625 20.59375 z M 38.375 20.59375 L 39.8125 20.59375 L 39.8125 22.03125 L 38.375 22.03125 L 38.375 20.59375 z M 40.1875 20.59375 L 41.59375 20.59375 L 41.59375 22.03125 L 40.1875 22.03125 L 40.1875 20.59375 z M 41.9375 20.59375 L 43.375 20.59375 L 43.375 22.03125 L 41.9375 22.03125 L 41.9375 20.59375 z M 43.71875 20.59375 L 45.125 20.59375 L 45.125 22.03125 L 43.71875 22.03125 L 43.71875 20.59375 z M 2.875 22.40625 L 4.28125 22.40625 L 4.28125 23.84375 L 2.875 23.84375 L 2.875 22.40625 z M 4.625 22.40625 L 6.0625 22.40625 L 6.0625 23.84375 L 4.625 23.84375 L 4.625 22.40625 z M 6.40625 22.40625 L 7.8125 22.40625 L 7.8125 23.84375 L 6.40625 23.84375 L 6.40625 22.40625 z M 8.1875 22.40625 L 9.625 22.40625 L 9.625 23.84375 L 8.1875 23.84375 L 8.1875 22.40625 z M 9.96875 22.40625 L 11.375 22.40625 L 11.375 23.84375 L 9.96875 23.84375 L 9.96875 22.40625 z M 11.75 22.40625 L 13.1875 22.40625 L 13.1875 23.84375 L 11.75 23.84375 L 11.75 22.40625 z M 13.53125 22.40625 L 14.96875 22.40625 L 14.96875 23.84375 L 13.53125 23.84375 L 13.53125 22.40625 z M 15.3125 22.40625 L 16.71875 22.40625 L 16.71875 23.84375 L 15.3125 23.84375 L 15.3125 22.40625 z M 17.0625 22.40625 L 18.5 22.40625 L 18.5 23.84375 L 17.0625 23.84375 L 17.0625 22.40625 z M 18.84375 22.40625 L 20.25 22.40625 L 20.25 23.84375 L 18.84375 23.84375 L 18.84375 22.40625 z M 20.59375 22.40625 L 22.03125 22.40625 L 22.03125 23.84375 L 20.59375 23.84375 L 20.59375 22.40625 z M 22.40625 22.40625 L 23.84375 22.40625 L 23.84375 23.84375 L 22.40625 23.84375 L 22.40625 22.40625 z M 24.1875 22.40625 L 25.59375 22.40625 L 25.59375 23.84375 L 24.1875 23.84375 L 24.1875 22.40625 z M 25.96875 22.40625 L 27.40625 22.40625 L 27.40625 23.84375 L 25.96875 23.84375 L 25.96875 22.40625 z M 27.75 22.40625 L 29.15625 22.40625 L 29.15625 23.84375 L 27.75 23.84375 L 27.75 22.40625 z M 29.5 22.40625 L 30.9375 22.40625 L 30.9375 23.84375 L 29.5 23.84375 L 29.5 22.40625 z M 31.28125 22.40625 L 32.6875 22.40625 L 32.6875 23.84375 L 31.28125 23.84375 L 31.28125 22.40625 z M 33.03125 22.40625 L 34.46875 22.40625 L 34.46875 23.84375 L 33.03125 23.84375 L 33.03125 22.40625 z M 34.8125 22.40625 L 36.25 22.40625 L 36.25 23.84375 L 34.8125 23.84375 L 34.8125 22.40625 z M 36.625 22.40625 L 38.03125 22.40625 L 38.03125 23.84375 L 36.625 23.84375 L 36.625 22.40625 z M 38.375 22.40625 L 39.8125 22.40625 L 39.8125 23.84375 L 38.375 23.84375 L 38.375 22.40625 z M 40.1875 22.40625 L 41.59375 22.40625 L 41.59375 23.84375 L 40.1875 23.84375 L 40.1875 22.40625 z M 41.9375 22.40625 L 43.375 22.40625 L 43.375 23.84375 L 41.9375 23.84375 L 41.9375 22.40625 z M 43.71875 22.40625 L 45.125 22.40625 L 45.125 23.84375 L 43.71875 23.84375 L 43.71875 22.40625 z M 2.875 24.1875 L 4.28125 24.1875 L 4.28125 25.59375 L 2.875 25.59375 L 2.875 24.1875 z M 4.625 24.1875 L 6.0625 24.1875 L 6.0625 25.59375 L 4.625 25.59375 L 4.625 24.1875 z M 6.40625 24.1875 L 7.8125 24.1875 L 7.8125 25.59375 L 6.40625 25.59375 L 6.40625 24.1875 z M 8.1875 24.1875 L 9.625 24.1875 L 9.625 25.59375 L 8.1875 25.59375 L 8.1875 24.1875 z M 9.96875 24.1875 L 11.375 24.1875 L 11.375 25.59375 L 9.96875 25.59375 L 9.96875 24.1875 z M 11.75 24.1875 L 13.1875 24.1875 L 13.1875 25.59375 L 11.75 25.59375 L 11.75 24.1875 z M 13.53125 24.1875 L 14.96875 24.1875 L 14.96875 25.59375 L 13.53125 25.59375 L 13.53125 24.1875 z M 15.3125 24.1875 L 16.71875 24.1875 L 16.71875 25.59375 L 15.3125 25.59375 L 15.3125 24.1875 z M 17.0625 24.1875 L 18.5 24.1875 L 18.5 25.59375 L 17.0625 25.59375 L 17.0625 24.1875 z M 18.84375 24.1875 L 20.25 24.1875 L 20.25 25.59375 L 18.84375 25.59375 L 18.84375 24.1875 z M 20.59375 24.1875 L 22.03125 24.1875 L 22.03125 25.59375 L 20.59375 25.59375 L 20.59375 24.1875 z M 22.40625 24.1875 L 23.84375 24.1875 L 23.84375 25.59375 L 22.40625 25.59375 L 22.40625 24.1875 z M 24.1875 24.1875 L 25.59375 24.1875 L 25.59375 25.59375 L 24.1875 25.59375 L 24.1875 24.1875 z M 25.96875 24.1875 L 27.40625 24.1875 L 27.40625 25.59375 L 25.96875 25.59375 L 25.96875 24.1875 z M 27.75 24.1875 L 29.15625 24.1875 L 29.15625 25.59375 L 27.75 25.59375 L 27.75 24.1875 z M 29.5 24.1875 L 30.9375 24.1875 L 30.9375 25.59375 L 29.5 25.59375 L 29.5 24.1875 z M 31.28125 24.1875 L 32.6875 24.1875 L 32.6875 25.59375 L 31.28125 25.59375 L 31.28125 24.1875 z M 33.03125 24.1875 L 34.46875 24.1875 L 34.46875 25.59375 L 33.03125 25.59375 L 33.03125 24.1875 z M 34.8125 24.1875 L 36.25 24.1875 L 36.25 25.59375 L 34.8125 25.59375 L 34.8125 24.1875 z M 36.625 24.1875 L 38.03125 24.1875 L 38.03125 25.59375 L 36.625 25.59375 L 36.625 24.1875 z M 38.375 24.1875 L 39.8125 24.1875 L 39.8125 25.59375 L 38.375 25.59375 L 38.375 24.1875 z M 40.1875 24.1875 L 41.59375 24.1875 L 41.59375 25.59375 L 40.1875 25.59375 L 40.1875 24.1875 z M 41.9375 24.1875 L 43.375 24.1875 L 43.375 25.59375 L 41.9375 25.59375 L 41.9375 24.1875 z M 43.71875 24.1875 L 45.125 24.1875 L 45.125 25.59375 L 43.71875 25.59375 L 43.71875 24.1875 z M 2.875 25.96875 L 4.28125 25.96875 L 4.28125 27.40625 L 2.875 27.40625 L 2.875 25.96875 z M 4.625 25.96875 L 6.0625 25.96875 L 6.0625 27.40625 L 4.625 27.40625 L 4.625 25.96875 z M 6.40625 25.96875 L 7.8125 25.96875 L 7.8125 27.40625 L 6.40625 27.40625 L 6.40625 25.96875 z M 8.1875 25.96875 L 9.625 25.96875 L 9.625 27.40625 L 8.1875 27.40625 L 8.1875 25.96875 z M 9.96875 25.96875 L 11.375 25.96875 L 11.375 27.40625 L 9.96875 27.40625 L 9.96875 25.96875 z M 11.75 25.96875 L 13.1875 25.96875 L 13.1875 27.40625 L 11.75 27.40625 L 11.75 25.96875 z M 13.53125 25.96875 L 14.96875 25.96875 L 14.96875 27.40625 L 13.53125 27.40625 L 13.53125 25.96875 z M 15.3125 25.96875 L 16.71875 25.96875 L 16.71875 27.40625 L 15.3125 27.40625 L 15.3125 25.96875 z M 17.0625 25.96875 L 18.5 25.96875 L 18.5 27.40625 L 17.0625 27.40625 L 17.0625 25.96875 z M 18.84375 25.96875 L 20.25 25.96875 L 20.25 27.40625 L 18.84375 27.40625 L 18.84375 25.96875 z M 20.59375 25.96875 L 22.03125 25.96875 L 22.03125 27.40625 L 20.59375 27.40625 L 20.59375 25.96875 z M 22.40625 25.96875 L 23.84375 25.96875 L 23.84375 27.40625 L 22.40625 27.40625 L 22.40625 25.96875 z M 24.1875 25.96875 L 25.59375 25.96875 L 25.59375 27.40625 L 24.1875 27.40625 L 24.1875 25.96875 z M 25.96875 25.96875 L 27.40625 25.96875 L 27.40625 27.40625 L 25.96875 27.40625 L 25.96875 25.96875 z M 27.75 25.96875 L 29.15625 25.96875 L 29.15625 27.40625 L 27.75 27.40625 L 27.75 25.96875 z M 29.5 25.96875 L 30.9375 25.96875 L 30.9375 27.40625 L 29.5 27.40625 L 29.5 25.96875 z M 31.28125 25.96875 L 32.6875 25.96875 L 32.6875 27.40625 L 31.28125 27.40625 L 31.28125 25.96875 z M 33.03125 25.96875 L 34.46875 25.96875 L 34.46875 27.40625 L 33.03125 27.40625 L 33.03125 25.96875 z M 34.8125 25.96875 L 36.25 25.96875 L 36.25 27.40625 L 34.8125 27.40625 L 34.8125 25.96875 z M 36.625 25.96875 L 38.03125 25.96875 L 38.03125 27.40625 L 36.625 27.40625 L 36.625 25.96875 z M 38.375 25.96875 L 39.8125 25.96875 L 39.8125 27.40625 L 38.375 27.40625 L 38.375 25.96875 z M 40.1875 25.96875 L 41.59375 25.96875 L 41.59375 27.40625 L 40.1875 27.40625 L 40.1875 25.96875 z M 41.9375 25.96875 L 43.375 25.96875 L 43.375 27.40625 L 41.9375 27.40625 L 41.9375 25.96875 z M 43.71875 25.96875 L 45.125 25.96875 L 45.125 27.40625 L 43.71875 27.40625 L 43.71875 25.96875 z M 2.875 27.75 L 4.28125 27.75 L 4.28125 29.15625 L 2.875 29.15625 L 2.875 27.75 z M 4.625 27.75 L 6.0625 27.75 L 6.0625 29.15625 L 4.625 29.15625 L 4.625 27.75 z M 6.40625 27.75 L 7.8125 27.75 L 7.8125 29.15625 L 6.40625 29.15625 L 6.40625 27.75 z M 8.1875 27.75 L 9.625 27.75 L 9.625 29.15625 L 8.1875 29.15625 L 8.1875 27.75 z M 9.96875 27.75 L 11.375 27.75 L 11.375 29.15625 L 9.96875 29.15625 L 9.96875 27.75 z M 11.75 27.75 L 13.1875 27.75 L 13.1875 29.15625 L 11.75 29.15625 L 11.75 27.75 z M 13.53125 27.75 L 14.96875 27.75 L 14.96875 29.15625 L 13.53125 29.15625 L 13.53125 27.75 z M 15.3125 27.75 L 16.71875 27.75 L 16.71875 29.15625 L 15.3125 29.15625 L 15.3125 27.75 z M 17.0625 27.75 L 18.5 27.75 L 18.5 29.15625 L 17.0625 29.15625 L 17.0625 27.75 z M 18.84375 27.75 L 20.25 27.75 L 20.25 29.15625 L 18.84375 29.15625 L 18.84375 27.75 z M 20.59375 27.75 L 22.03125 27.75 L 22.03125 29.15625 L 20.59375 29.15625 L 20.59375 27.75 z M 22.40625 27.75 L 23.84375 27.75 L 23.84375 29.15625 L 22.40625 29.15625 L 22.40625 27.75 z M 24.1875 27.75 L 25.59375 27.75 L 25.59375 29.15625 L 24.1875 29.15625 L 24.1875 27.75 z M 25.96875 27.75 L 27.40625 27.75 L 27.40625 29.15625 L 25.96875 29.15625 L 25.96875 27.75 z M 27.75 27.75 L 29.15625 27.75 L 29.15625 29.15625 L 27.75 29.15625 L 27.75 27.75 z M 29.5 27.75 L 30.9375 27.75 L 30.9375 29.15625 L 29.5 29.15625 L 29.5 27.75 z M 31.28125 27.75 L 32.6875 27.75 L 32.6875 29.15625 L 31.28125 29.15625 L 31.28125 27.75 z M 33.03125 27.75 L 34.46875 27.75 L 34.46875 29.15625 L 33.03125 29.15625 L 33.03125 27.75 z M 34.8125 27.75 L 36.25 27.75 L 36.25 29.15625 L 34.8125 29.15625 L 34.8125 27.75 z M 36.625 27.75 L 38.03125 27.75 L 38.03125 29.15625 L 36.625 29.15625 L 36.625 27.75 z M 38.375 27.75 L 39.8125 27.75 L 39.8125 29.15625 L 38.375 29.15625 L 38.375 27.75 z M 40.1875 27.75 L 41.59375 27.75 L 41.59375 29.15625 L 40.1875 29.15625 L 40.1875 27.75 z M 41.9375 27.75 L 43.375 27.75 L 43.375 29.15625 L 41.9375 29.15625 L 41.9375 27.75 z M 43.71875 27.75 L 45.125 27.75 L 45.125 29.15625 L 43.71875 29.15625 L 43.71875 27.75 z M 2.875 29.5 L 4.28125 29.5 L 4.28125 30.9375 L 2.875 30.9375 L 2.875 29.5 z M 4.625 29.5 L 6.0625 29.5 L 6.0625 30.9375 L 4.625 30.9375 L 4.625 29.5 z M 6.40625 29.5 L 7.8125 29.5 L 7.8125 30.9375 L 6.40625 30.9375 L 6.40625 29.5 z M 8.1875 29.5 L 9.625 29.5 L 9.625 30.9375 L 8.1875 30.9375 L 8.1875 29.5 z M 9.96875 29.5 L 11.375 29.5 L 11.375 30.9375 L 9.96875 30.9375 L 9.96875 29.5 z M 11.75 29.5 L 13.1875 29.5 L 13.1875 30.9375 L 11.75 30.9375 L 11.75 29.5 z M 13.53125 29.5 L 14.96875 29.5 L 14.96875 30.9375 L 13.53125 30.9375 L 13.53125 29.5 z M 15.3125 29.5 L 16.71875 29.5 L 16.71875 30.9375 L 15.3125 30.9375 L 15.3125 29.5 z M 17.0625 29.5 L 18.5 29.5 L 18.5 30.9375 L 17.0625 30.9375 L 17.0625 29.5 z M 18.84375 29.5 L 20.25 29.5 L 20.25 30.9375 L 18.84375 30.9375 L 18.84375 29.5 z M 20.59375 29.5 L 22.03125 29.5 L 22.03125 30.9375 L 20.59375 30.9375 L 20.59375 29.5 z M 22.40625 29.5 L 23.84375 29.5 L 23.84375 30.9375 L 22.40625 30.9375 L 22.40625 29.5 z M 24.1875 29.5 L 25.59375 29.5 L 25.59375 30.9375 L 24.1875 30.9375 L 24.1875 29.5 z M 25.96875 29.5 L 27.40625 29.5 L 27.40625 30.9375 L 25.96875 30.9375 L 25.96875 29.5 z M 27.75 29.5 L 29.15625 29.5 L 29.15625 30.9375 L 27.75 30.9375 L 27.75 29.5 z M 29.5 29.5 L 30.9375 29.5 L 30.9375 30.9375 L 29.5 30.9375 L 29.5 29.5 z M 31.28125 29.5 L 32.6875 29.5 L 32.6875 30.9375 L 31.28125 30.9375 L 31.28125 29.5 z M 33.03125 29.5 L 34.46875 29.5 L 34.46875 30.9375 L 33.03125 30.9375 L 33.03125 29.5 z M 34.8125 29.5 L 36.25 29.5 L 36.25 30.9375 L 34.8125 30.9375 L 34.8125 29.5 z M 36.625 29.5 L 38.03125 29.5 L 38.03125 30.9375 L 36.625 30.9375 L 36.625 29.5 z M 38.375 29.5 L 39.8125 29.5 L 39.8125 30.9375 L 38.375 30.9375 L 38.375 29.5 z M 40.1875 29.5 L 41.59375 29.5 L 41.59375 30.9375 L 40.1875 30.9375 L 40.1875 29.5 z M 41.9375 29.5 L 43.375 29.5 L 43.375 30.9375 L 41.9375 30.9375 L 41.9375 29.5 z M 43.71875 29.5 L 45.125 29.5 L 45.125 30.9375 L 43.71875 30.9375 L 43.71875 29.5 z M 2.875 31.28125 L 4.28125 31.28125 L 4.28125 32.6875 L 2.875 32.6875 L 2.875 31.28125 z M 4.625 31.28125 L 6.0625 31.28125 L 6.0625 32.6875 L 4.625 32.6875 L 4.625 31.28125 z M 6.40625 31.28125 L 7.8125 31.28125 L 7.8125 32.6875 L 6.40625 32.6875 L 6.40625 31.28125 z M 8.1875 31.28125 L 9.625 31.28125 L 9.625 32.6875 L 8.1875 32.6875 L 8.1875 31.28125 z M 9.96875 31.28125 L 11.375 31.28125 L 11.375 32.6875 L 9.96875 32.6875 L 9.96875 31.28125 z M 11.75 31.28125 L 13.1875 31.28125 L 13.1875 32.6875 L 11.75 32.6875 L 11.75 31.28125 z M 13.53125 31.28125 L 14.96875 31.28125 L 14.96875 32.6875 L 13.53125 32.6875 L 13.53125 31.28125 z M 15.3125 31.28125 L 16.71875 31.28125 L 16.71875 32.6875 L 15.3125 32.6875 L 15.3125 31.28125 z M 17.0625 31.28125 L 18.5 31.28125 L 18.5 32.6875 L 17.0625 32.6875 L 17.0625 31.28125 z M 18.84375 31.28125 L 20.25 31.28125 L 20.25 32.6875 L 18.84375 32.6875 L 18.84375 31.28125 z M 20.59375 31.28125 L 22.03125 31.28125 L 22.03125 32.6875 L 20.59375 32.6875 L 20.59375 31.28125 z M 22.40625 31.28125 L 23.84375 31.28125 L 23.84375 32.6875 L 22.40625 32.6875 L 22.40625 31.28125 z M 24.1875 31.28125 L 25.59375 31.28125 L 25.59375 32.6875 L 24.1875 32.6875 L 24.1875 31.28125 z M 25.96875 31.28125 L 27.40625 31.28125 L 27.40625 32.6875 L 25.96875 32.6875 L 25.96875 31.28125 z M 27.75 31.28125 L 29.15625 31.28125 L 29.15625 32.6875 L 27.75 32.6875 L 27.75 31.28125 z M 29.5 31.28125 L 30.9375 31.28125 L 30.9375 32.6875 L 29.5 32.6875 L 29.5 31.28125 z M 31.28125 31.28125 L 32.6875 31.28125 L 32.6875 32.6875 L 31.28125 32.6875 L 31.28125 31.28125 z M 33.03125 31.28125 L 34.46875 31.28125 L 34.46875 32.6875 L 33.03125 32.6875 L 33.03125 31.28125 z M 34.8125 31.28125 L 36.25 31.28125 L 36.25 32.6875 L 34.8125 32.6875 L 34.8125 31.28125 z M 36.625 31.28125 L 38.03125 31.28125 L 38.03125 32.6875 L 36.625 32.6875 L 36.625 31.28125 z M 38.375 31.28125 L 39.8125 31.28125 L 39.8125 32.6875 L 38.375 32.6875 L 38.375 31.28125 z M 40.1875 31.28125 L 41.59375 31.28125 L 41.59375 32.6875 L 40.1875 32.6875 L 40.1875 31.28125 z M 41.9375 31.28125 L 43.375 31.28125 L 43.375 32.6875 L 41.9375 32.6875 L 41.9375 31.28125 z M 43.71875 31.28125 L 45.125 31.28125 L 45.125 32.6875 L 43.71875 32.6875 L 43.71875 31.28125 z M 2.875 33.03125 L 4.28125 33.03125 L 4.28125 34.46875 L 2.875 34.46875 L 2.875 33.03125 z M 4.625 33.03125 L 6.0625 33.03125 L 6.0625 34.46875 L 4.625 34.46875 L 4.625 33.03125 z M 6.40625 33.03125 L 7.8125 33.03125 L 7.8125 34.46875 L 6.40625 34.46875 L 6.40625 33.03125 z M 8.1875 33.03125 L 9.625 33.03125 L 9.625 34.46875 L 8.1875 34.46875 L 8.1875 33.03125 z M 9.96875 33.03125 L 11.375 33.03125 L 11.375 34.46875 L 9.96875 34.46875 L 9.96875 33.03125 z M 11.75 33.03125 L 13.1875 33.03125 L 13.1875 34.46875 L 11.75 34.46875 L 11.75 33.03125 z M 13.53125 33.03125 L 14.96875 33.03125 L 14.96875 34.46875 L 13.53125 34.46875 L 13.53125 33.03125 z M 15.3125 33.03125 L 16.71875 33.03125 L 16.71875 34.46875 L 15.3125 34.46875 L 15.3125 33.03125 z M 17.0625 33.03125 L 18.5 33.03125 L 18.5 34.46875 L 17.0625 34.46875 L 17.0625 33.03125 z M 18.84375 33.03125 L 20.25 33.03125 L 20.25 34.46875 L 18.84375 34.46875 L 18.84375 33.03125 z M 20.59375 33.03125 L 22.03125 33.03125 L 22.03125 34.46875 L 20.59375 34.46875 L 20.59375 33.03125 z M 22.40625 33.03125 L 23.84375 33.03125 L 23.84375 34.46875 L 22.40625 34.46875 L 22.40625 33.03125 z M 24.1875 33.03125 L 25.59375 33.03125 L 25.59375 34.46875 L 24.1875 34.46875 L 24.1875 33.03125 z M 25.96875 33.03125 L 27.40625 33.03125 L 27.40625 34.46875 L 25.96875 34.46875 L 25.96875 33.03125 z M 27.75 33.03125 L 29.15625 33.03125 L 29.15625 34.46875 L 27.75 34.46875 L 27.75 33.03125 z M 29.5 33.03125 L 30.9375 33.03125 L 30.9375 34.46875 L 29.5 34.46875 L 29.5 33.03125 z M 31.28125 33.03125 L 32.6875 33.03125 L 32.6875 34.46875 L 31.28125 34.46875 L 31.28125 33.03125 z M 33.03125 33.03125 L 34.46875 33.03125 L 34.46875 34.46875 L 33.03125 34.46875 L 33.03125 33.03125 z M 34.8125 33.03125 L 36.25 33.03125 L 36.25 34.46875 L 34.8125 34.46875 L 34.8125 33.03125 z M 36.625 33.03125 L 38.03125 33.03125 L 38.03125 34.46875 L 36.625 34.46875 L 36.625 33.03125 z M 38.375 33.03125 L 39.8125 33.03125 L 39.8125 34.46875 L 38.375 34.46875 L 38.375 33.03125 z M 40.1875 33.03125 L 41.59375 33.03125 L 41.59375 34.46875 L 40.1875 34.46875 L 40.1875 33.03125 z M 41.9375 33.03125 L 43.375 33.03125 L 43.375 34.46875 L 41.9375 34.46875 L 41.9375 33.03125 z M 43.71875 33.03125 L 45.125 33.03125 L 45.125 34.46875 L 43.71875 34.46875 L 43.71875 33.03125 z M 2.875 34.8125 L 4.28125 34.8125 L 4.28125 36.25 L 2.875 36.25 L 2.875 34.8125 z M 4.625 34.8125 L 6.0625 34.8125 L 6.0625 36.25 L 4.625 36.25 L 4.625 34.8125 z M 6.40625 34.8125 L 7.8125 34.8125 L 7.8125 36.25 L 6.40625 36.25 L 6.40625 34.8125 z M 8.1875 34.8125 L 9.625 34.8125 L 9.625 36.25 L 8.1875 36.25 L 8.1875 34.8125 z M 9.96875 34.8125 L 11.375 34.8125 L 11.375 36.25 L 9.96875 36.25 L 9.96875 34.8125 z M 11.75 34.8125 L 13.1875 34.8125 L 13.1875 36.25 L 11.75 36.25 L 11.75 34.8125 z M 13.53125 34.8125 L 14.96875 34.8125 L 14.96875 36.25 L 13.53125 36.25 L 13.53125 34.8125 z M 15.3125 34.8125 L 16.71875 34.8125 L 16.71875 36.25 L 15.3125 36.25 L 15.3125 34.8125 z M 17.0625 34.8125 L 18.5 34.8125 L 18.5 36.25 L 17.0625 36.25 L 17.0625 34.8125 z M 18.84375 34.8125 L 20.25 34.8125 L 20.25 36.25 L 18.84375 36.25 L 18.84375 34.8125 z M 20.59375 34.8125 L 22.03125 34.8125 L 22.03125 36.25 L 20.59375 36.25 L 20.59375 34.8125 z M 22.40625 34.8125 L 23.84375 34.8125 L 23.84375 36.25 L 22.40625 36.25 L 22.40625 34.8125 z M 24.1875 34.8125 L 25.59375 34.8125 L 25.59375 36.25 L 24.1875 36.25 L 24.1875 34.8125 z M 25.96875 34.8125 L 27.40625 34.8125 L 27.40625 36.25 L 25.96875 36.25 L 25.96875 34.8125 z M 27.75 34.8125 L 29.15625 34.8125 L 29.15625 36.25 L 27.75 36.25 L 27.75 34.8125 z M 29.5 34.8125 L 30.9375 34.8125 L 30.9375 36.25 L 29.5 36.25 L 29.5 34.8125 z M 31.28125 34.8125 L 32.6875 34.8125 L 32.6875 36.25 L 31.28125 36.25 L 31.28125 34.8125 z M 33.03125 34.8125 L 34.46875 34.8125 L 34.46875 36.25 L 33.03125 36.25 L 33.03125 34.8125 z M 34.8125 34.8125 L 36.25 34.8125 L 36.25 36.25 L 34.8125 36.25 L 34.8125 34.8125 z M 36.625 34.8125 L 38.03125 34.8125 L 38.03125 36.25 L 36.625 36.25 L 36.625 34.8125 z M 38.375 34.8125 L 39.8125 34.8125 L 39.8125 36.25 L 38.375 36.25 L 38.375 34.8125 z M 40.1875 34.8125 L 41.59375 34.8125 L 41.59375 36.25 L 40.1875 36.25 L 40.1875 34.8125 z M 41.9375 34.8125 L 43.375 34.8125 L 43.375 36.25 L 41.9375 36.25 L 41.9375 34.8125 z M 43.71875 34.8125 L 45.125 34.8125 L 45.125 36.25 L 43.71875 36.25 L 43.71875 34.8125 z M 2.875 36.625 L 4.28125 36.625 L 4.28125 38.03125 L 2.875 38.03125 L 2.875 36.625 z M 4.625 36.625 L 6.0625 36.625 L 6.0625 38.03125 L 4.625 38.03125 L 4.625 36.625 z M 6.40625 36.625 L 7.8125 36.625 L 7.8125 38.03125 L 6.40625 38.03125 L 6.40625 36.625 z M 8.1875 36.625 L 9.625 36.625 L 9.625 38.03125 L 8.1875 38.03125 L 8.1875 36.625 z M 9.96875 36.625 L 11.375 36.625 L 11.375 38.03125 L 9.96875 38.03125 L 9.96875 36.625 z M 11.75 36.625 L 13.1875 36.625 L 13.1875 38.03125 L 11.75 38.03125 L 11.75 36.625 z M 13.53125 36.625 L 14.96875 36.625 L 14.96875 38.03125 L 13.53125 38.03125 L 13.53125 36.625 z M 15.3125 36.625 L 16.71875 36.625 L 16.71875 38.03125 L 15.3125 38.03125 L 15.3125 36.625 z M 17.0625 36.625 L 18.5 36.625 L 18.5 38.03125 L 17.0625 38.03125 L 17.0625 36.625 z M 18.84375 36.625 L 20.25 36.625 L 20.25 38.03125 L 18.84375 38.03125 L 18.84375 36.625 z M 20.59375 36.625 L 22.03125 36.625 L 22.03125 38.03125 L 20.59375 38.03125 L 20.59375 36.625 z M 22.40625 36.625 L 23.84375 36.625 L 23.84375 38.03125 L 22.40625 38.03125 L 22.40625 36.625 z M 24.1875 36.625 L 25.59375 36.625 L 25.59375 38.03125 L 24.1875 38.03125 L 24.1875 36.625 z M 25.96875 36.625 L 27.40625 36.625 L 27.40625 38.03125 L 25.96875 38.03125 L 25.96875 36.625 z M 27.75 36.625 L 29.15625 36.625 L 29.15625 38.03125 L 27.75 38.03125 L 27.75 36.625 z M 29.5 36.625 L 30.9375 36.625 L 30.9375 38.03125 L 29.5 38.03125 L 29.5 36.625 z M 31.28125 36.625 L 32.6875 36.625 L 32.6875 38.03125 L 31.28125 38.03125 L 31.28125 36.625 z M 33.03125 36.625 L 34.46875 36.625 L 34.46875 38.03125 L 33.03125 38.03125 L 33.03125 36.625 z M 34.8125 36.625 L 36.25 36.625 L 36.25 38.03125 L 34.8125 38.03125 L 34.8125 36.625 z M 36.625 36.625 L 38.03125 36.625 L 38.03125 38.03125 L 36.625 38.03125 L 36.625 36.625 z M 38.375 36.625 L 39.8125 36.625 L 39.8125 38.03125 L 38.375 38.03125 L 38.375 36.625 z M 40.1875 36.625 L 41.59375 36.625 L 41.59375 38.03125 L 40.1875 38.03125 L 40.1875 36.625 z M 41.9375 36.625 L 43.375 36.625 L 43.375 38.03125 L 41.9375 38.03125 L 41.9375 36.625 z M 43.71875 36.625 L 45.125 36.625 L 45.125 38.03125 L 43.71875 38.03125 L 43.71875 36.625 z M 2.875 38.375 L 4.28125 38.375 L 4.28125 39.8125 L 2.875 39.8125 L 2.875 38.375 z M 4.625 38.375 L 6.0625 38.375 L 6.0625 39.8125 L 4.625 39.8125 L 4.625 38.375 z M 6.40625 38.375 L 7.8125 38.375 L 7.8125 39.8125 L 6.40625 39.8125 L 6.40625 38.375 z M 8.1875 38.375 L 9.625 38.375 L 9.625 39.8125 L 8.1875 39.8125 L 8.1875 38.375 z M 9.96875 38.375 L 11.375 38.375 L 11.375 39.8125 L 9.96875 39.8125 L 9.96875 38.375 z M 11.75 38.375 L 13.1875 38.375 L 13.1875 39.8125 L 11.75 39.8125 L 11.75 38.375 z M 13.53125 38.375 L 14.96875 38.375 L 14.96875 39.8125 L 13.53125 39.8125 L 13.53125 38.375 z M 15.3125 38.375 L 16.71875 38.375 L 16.71875 39.8125 L 15.3125 39.8125 L 15.3125 38.375 z M 17.0625 38.375 L 18.5 38.375 L 18.5 39.8125 L 17.0625 39.8125 L 17.0625 38.375 z M 18.84375 38.375 L 20.25 38.375 L 20.25 39.8125 L 18.84375 39.8125 L 18.84375 38.375 z M 20.59375 38.375 L 22.03125 38.375 L 22.03125 39.8125 L 20.59375 39.8125 L 20.59375 38.375 z M 22.40625 38.375 L 23.84375 38.375 L 23.84375 39.8125 L 22.40625 39.8125 L 22.40625 38.375 z M 24.1875 38.375 L 25.59375 38.375 L 25.59375 39.8125 L 24.1875 39.8125 L 24.1875 38.375 z M 25.96875 38.375 L 27.40625 38.375 L 27.40625 39.8125 L 25.96875 39.8125 L 25.96875 38.375 z M 27.75 38.375 L 29.15625 38.375 L 29.15625 39.8125 L 27.75 39.8125 L 27.75 38.375 z M 29.5 38.375 L 30.9375 38.375 L 30.9375 39.8125 L 29.5 39.8125 L 29.5 38.375 z M 31.28125 38.375 L 32.6875 38.375 L 32.6875 39.8125 L 31.28125 39.8125 L 31.28125 38.375 z M 33.03125 38.375 L 34.46875 38.375 L 34.46875 39.8125 L 33.03125 39.8125 L 33.03125 38.375 z M 34.8125 38.375 L 36.25 38.375 L 36.25 39.8125 L 34.8125 39.8125 L 34.8125 38.375 z M 36.625 38.375 L 38.03125 38.375 L 38.03125 39.8125 L 36.625 39.8125 L 36.625 38.375 z M 38.375 38.375 L 39.8125 38.375 L 39.8125 39.8125 L 38.375 39.8125 L 38.375 38.375 z M 40.1875 38.375 L 41.59375 38.375 L 41.59375 39.8125 L 40.1875 39.8125 L 40.1875 38.375 z M 41.9375 38.375 L 43.375 38.375 L 43.375 39.8125 L 41.9375 39.8125 L 41.9375 38.375 z M 43.71875 38.375 L 45.125 38.375 L 45.125 39.8125 L 43.71875 39.8125 L 43.71875 38.375 z M 2.875 40.1875 L 4.28125 40.1875 L 4.28125 41.59375 L 2.875 41.59375 L 2.875 40.1875 z M 4.625 40.1875 L 6.0625 40.1875 L 6.0625 41.59375 L 4.625 41.59375 L 4.625 40.1875 z M 6.40625 40.1875 L 7.8125 40.1875 L 7.8125 41.59375 L 6.40625 41.59375 L 6.40625 40.1875 z M 8.1875 40.1875 L 9.625 40.1875 L 9.625 41.59375 L 8.1875 41.59375 L 8.1875 40.1875 z M 9.96875 40.1875 L 11.375 40.1875 L 11.375 41.59375 L 9.96875 41.59375 L 9.96875 40.1875 z M 11.75 40.1875 L 13.1875 40.1875 L 13.1875 41.59375 L 11.75 41.59375 L 11.75 40.1875 z M 13.53125 40.1875 L 14.96875 40.1875 L 14.96875 41.59375 L 13.53125 41.59375 L 13.53125 40.1875 z M 15.3125 40.1875 L 16.71875 40.1875 L 16.71875 41.59375 L 15.3125 41.59375 L 15.3125 40.1875 z M 17.0625 40.1875 L 18.5 40.1875 L 18.5 41.59375 L 17.0625 41.59375 L 17.0625 40.1875 z M 18.84375 40.1875 L 20.25 40.1875 L 20.25 41.59375 L 18.84375 41.59375 L 18.84375 40.1875 z M 20.59375 40.1875 L 22.03125 40.1875 L 22.03125 41.59375 L 20.59375 41.59375 L 20.59375 40.1875 z M 22.40625 40.1875 L 23.84375 40.1875 L 23.84375 41.59375 L 22.40625 41.59375 L 22.40625 40.1875 z M 24.1875 40.1875 L 25.59375 40.1875 L 25.59375 41.59375 L 24.1875 41.59375 L 24.1875 40.1875 z M 25.96875 40.1875 L 27.40625 40.1875 L 27.40625 41.59375 L 25.96875 41.59375 L 25.96875 40.1875 z M 27.75 40.1875 L 29.15625 40.1875 L 29.15625 41.59375 L 27.75 41.59375 L 27.75 40.1875 z M 29.5 40.1875 L 30.9375 40.1875 L 30.9375 41.59375 L 29.5 41.59375 L 29.5 40.1875 z M 31.28125 40.1875 L 32.6875 40.1875 L 32.6875 41.59375 L 31.28125 41.59375 L 31.28125 40.1875 z M 33.03125 40.1875 L 34.46875 40.1875 L 34.46875 41.59375 L 33.03125 41.59375 L 33.03125 40.1875 z M 34.8125 40.1875 L 36.25 40.1875 L 36.25 41.59375 L 34.8125 41.59375 L 34.8125 40.1875 z M 36.625 40.1875 L 38.03125 40.1875 L 38.03125 41.59375 L 36.625 41.59375 L 36.625 40.1875 z M 38.375 40.1875 L 39.8125 40.1875 L 39.8125 41.59375 L 38.375 41.59375 L 38.375 40.1875 z M 40.1875 40.1875 L 41.59375 40.1875 L 41.59375 41.59375 L 40.1875 41.59375 L 40.1875 40.1875 z M 41.9375 40.1875 L 43.375 40.1875 L 43.375 41.59375 L 41.9375 41.59375 L 41.9375 40.1875 z M 43.71875 40.1875 L 45.125 40.1875 L 45.125 41.59375 L 43.71875 41.59375 L 43.71875 40.1875 z M 2.875 41.9375 L 4.28125 41.9375 L 4.28125 43.375 L 2.875 43.375 L 2.875 41.9375 z M 4.625 41.9375 L 6.0625 41.9375 L 6.0625 43.375 L 4.625 43.375 L 4.625 41.9375 z M 6.40625 41.9375 L 7.8125 41.9375 L 7.8125 43.375 L 6.40625 43.375 L 6.40625 41.9375 z M 8.1875 41.9375 L 9.625 41.9375 L 9.625 43.375 L 8.1875 43.375 L 8.1875 41.9375 z M 9.96875 41.9375 L 11.375 41.9375 L 11.375 43.375 L 9.96875 43.375 L 9.96875 41.9375 z M 11.75 41.9375 L 13.1875 41.9375 L 13.1875 43.375 L 11.75 43.375 L 11.75 41.9375 z M 13.53125 41.9375 L 14.96875 41.9375 L 14.96875 43.375 L 13.53125 43.375 L 13.53125 41.9375 z M 15.3125 41.9375 L 16.71875 41.9375 L 16.71875 43.375 L 15.3125 43.375 L 15.3125 41.9375 z M 17.0625 41.9375 L 18.5 41.9375 L 18.5 43.375 L 17.0625 43.375 L 17.0625 41.9375 z M 18.84375 41.9375 L 20.25 41.9375 L 20.25 43.375 L 18.84375 43.375 L 18.84375 41.9375 z M 20.59375 41.9375 L 22.03125 41.9375 L 22.03125 43.375 L 20.59375 43.375 L 20.59375 41.9375 z M 22.40625 41.9375 L 23.84375 41.9375 L 23.84375 43.375 L 22.40625 43.375 L 22.40625 41.9375 z M 24.1875 41.9375 L 25.59375 41.9375 L 25.59375 43.375 L 24.1875 43.375 L 24.1875 41.9375 z M 25.96875 41.9375 L 27.40625 41.9375 L 27.40625 43.375 L 25.96875 43.375 L 25.96875 41.9375 z M 27.75 41.9375 L 29.15625 41.9375 L 29.15625 43.375 L 27.75 43.375 L 27.75 41.9375 z M 29.5 41.9375 L 30.9375 41.9375 L 30.9375 43.375 L 29.5 43.375 L 29.5 41.9375 z M 31.28125 41.9375 L 32.6875 41.9375 L 32.6875 43.375 L 31.28125 43.375 L 31.28125 41.9375 z M 33.03125 41.9375 L 34.46875 41.9375 L 34.46875 43.375 L 33.03125 43.375 L 33.03125 41.9375 z M 34.8125 41.9375 L 36.25 41.9375 L 36.25 43.375 L 34.8125 43.375 L 34.8125 41.9375 z M 36.625 41.9375 L 38.03125 41.9375 L 38.03125 43.375 L 36.625 43.375 L 36.625 41.9375 z M 38.375 41.9375 L 39.8125 41.9375 L 39.8125 43.375 L 38.375 43.375 L 38.375 41.9375 z M 40.1875 41.9375 L 41.59375 41.9375 L 41.59375 43.375 L 40.1875 43.375 L 40.1875 41.9375 z M 41.9375 41.9375 L 43.375 41.9375 L 43.375 43.375 L 41.9375 43.375 L 41.9375 41.9375 z M 43.71875 41.9375 L 45.125 41.9375 L 45.125 43.375 L 43.71875 43.375 L 43.71875 41.9375 z M 4.625 43.71875 L 6.0625 43.71875 L 6.0625 45.125 L 4.625 45.125 L 4.625 43.71875 z M 6.40625 43.71875 L 7.8125 43.71875 L 7.8125 45.125 L 6.40625 45.125 L 6.40625 43.71875 z M 8.1875 43.71875 L 9.625 43.71875 L 9.625 45.125 L 8.1875 45.125 L 8.1875 43.71875 z M 9.96875 43.71875 L 11.375 43.71875 L 11.375 45.125 L 9.96875 45.125 L 9.96875 43.71875 z M 11.75 43.71875 L 13.1875 43.71875 L 13.1875 45.125 L 11.75 45.125 L 11.75 43.71875 z M 13.53125 43.71875 L 14.96875 43.71875 L 14.96875 45.125 L 13.53125 45.125 L 13.53125 43.71875 z M 15.3125 43.71875 L 16.71875 43.71875 L 16.71875 45.125 L 15.3125 45.125 L 15.3125 43.71875 z M 17.0625 43.71875 L 18.5 43.71875 L 18.5 45.125 L 17.0625 45.125 L 17.0625 43.71875 z M 18.84375 43.71875 L 20.25 43.71875 L 20.25 45.125 L 18.84375 45.125 L 18.84375 43.71875 z M 20.59375 43.71875 L 22.03125 43.71875 L 22.03125 45.125 L 20.59375 45.125 L 20.59375 43.71875 z M 22.40625 43.71875 L 23.84375 43.71875 L 23.84375 45.125 L 22.40625 45.125 L 22.40625 43.71875 z M 24.1875 43.71875 L 25.59375 43.71875 L 25.59375 45.125 L 24.1875 45.125 L 24.1875 43.71875 z M 25.96875 43.71875 L 27.40625 43.71875 L 27.40625 45.125 L 25.96875 45.125 L 25.96875 43.71875 z M 27.75 43.71875 L 29.15625 43.71875 L 29.15625 45.125 L 27.75 45.125 L 27.75 43.71875 z M 29.5 43.71875 L 30.9375 43.71875 L 30.9375 45.125 L 29.5 45.125 L 29.5 43.71875 z M 31.28125 43.71875 L 32.6875 43.71875 L 32.6875 45.125 L 31.28125 45.125 L 31.28125 43.71875 z M 33.03125 43.71875 L 34.46875 43.71875 L 34.46875 45.125 L 33.03125 45.125 L 33.03125 43.71875 z M 34.8125 43.71875 L 36.25 43.71875 L 36.25 45.125 L 34.8125 45.125 L 34.8125 43.71875 z M 36.625 43.71875 L 38.03125 43.71875 L 38.03125 45.125 L 36.625 45.125 L 36.625 43.71875 z M 38.375 43.71875 L 39.8125 43.71875 L 39.8125 45.125 L 38.375 45.125 L 38.375 43.71875 z M 40.1875 43.71875 L 41.59375 43.71875 L 41.59375 45.125 L 40.1875 45.125 L 40.1875 43.71875 z M 41.9375 43.71875 L 43.375 43.71875 L 43.375 45.125 L 41.9375 45.125 L 41.9375 43.71875 z "
       transform="translate(0,1004.3622)"
       id="path970" />
    <rect
       style="opacity:0.95400002;color:#000000;fill:url(#radialGradient824);fill-opacity:1;fill-rule:nonzero;stroke:none;stroke-width:0.5;marker:none;visibility:visible;display:inline;overflow:visible;enable-background:accumulate"
       id="rect816"
       width="28.184933"
       height="0.34492052"
       x="9.0016327"
       y="1017.5506"
       ry="0" />
    <rect
       ry="0"
       y="29.976341"
       x="-1041.5471"
       height="0.34492052"
       width="28.184933"
       id="rect826"
       style="opacity:0.95099996;color:#000000;fill:url(#radialGradient828);fill-opacity:1;fill-rule:nonzero;stroke:none;stroke-width:0.5;marker:none;visibility:visible;display:inline;overflow:visible;enable-background:accumulate"
       transform="matrix(0,-1,1,0,0,0)" />
    <rect
       transform="matrix(0,-1,1,0,0,0)"
       style="opacity:0.86100003;color:#000000;fill:url(#radialGradient832);fill-opacity:1;fill-rule:nonzero;stroke:none;stroke-width:0.5;marker:none;visibility:visible;display:inline;overflow:visible;enable-background:accumulate"
       id="rect830"
       width="28.184933"
       height="0.34492052"
       x="-1041.5471"
       y="15.866935"
       ry="0" />
    <rect
       style="opacity:0.95400002;color:#000000;fill:url(#radialGradient836);fill-opacity:1;fill-rule:nonzero;stroke:none;stroke-width:0.5;marker:none;visibility:visible;display:inline;overflow:visible;enable-background:accumulate"
       id="rect834"
       width="28.184933"
       height="0.34492052"
       x="9.0016327"
       y="1028.192"
       ry="0" />
    <rect
       ry="0"
       y="1037.111"
       x="9.0016327"
       height="0.34492052"
       width="28.184933"
       id="rect838"
       style="opacity:0.95400002;color:#000000;fill:url(#radialGradient840);fill-opacity:1;fill-rule:nonzero;stroke:none;stroke-width:0.5;marker:none;visibility:visible;display:inline;overflow:visible;enable-background:accumulate" />
    <rect
       style="opacity:0.95099996;color:#000000;fill:url(#radialGradient844);fill-opacity:1;fill-rule:nonzero;stroke:none;stroke-width:0.5;marker:none;visibility:visible;display:inline;overflow:visible;enable-background:accumulate"
       id="rect842"
       width="28.184933"
       height="0.34492052"
       x="-1043.3622"
       y="24.454697"
       ry="0"
       transform="matrix(0,-1,1,0,0,0)" />
    <rect
       transform="matrix(0,-1,1,0,0,0)"
       ry="0"
       y="27.959332"
       x="-1043.3622"
       height="0.34492052"
       width="28.184933"
       id="rect846"
       style="opacity:0.95099996;color:#000000;fill:url(#radialGradient848);fill-opacity:1;fill-rule:nonzero;stroke:none;stroke-width:0.5;marker:none;visibility:visible;display:inline;overflow:visible;enable-background:accumulate" />
    <rect
       ry="0"
       y="1022.4076"
       x="9.0016327"
       height="0.34492052"
       width="28.184933"
       id="rect850"
       style="opacity:0.95400002;color:#000000;fill:url(#radialGradient854);fill-opacity:1;fill-rule:nonzero;stroke:none;stroke-width:0.5;marker:none;visibility:visible;display:inline;overflow:visible;enable-background:accumulate" />
    <rect
       style="opacity:0.95400002;color:#000000;fill:url(#radialGradient856);fill-opacity:1;fill-rule:nonzero;stroke:none;stroke-width:0.5;marker:none;visibility:visible;display:inline;overflow:visible;enable-background:accumulate"
       id="rect852"
       width="28.184933"
       height="0.34492052"
       x="10.813435"
       y="1026.7279"
       ry="0" />
    <g
       style="font-size:34.314785px;font-style:normal;font-variant:normal;font-weight:normal;font-stretch:normal;line-height:125%;letter-spacing:0px;word-spacing:0px;opacity:0.95400002;fill:#ffffff;fill-opacity:1;stroke:none;font-family:Decker;-inkscape-font-specification:Decker"
       id="text3784-5-0"
       transform="matrix(0.78838973,0,0,0.78838973,4.1727456,216.70449)">
      <path
         inkscape:connector-curvature="0"
         d="m 21.989368,1017.8231 0,9.9191 8.277101,0 0,1.6755 -8.277101,0 0,7.2886 q 0,0.8042 0.217818,1.2901 0.234574,0.4859 0.60319,0.754 0.385371,0.2513 0.904784,0.3351 0.519414,0.084 1.089093,0.084 l 1.139358,0 0,1.4409 -10.673105,0 0,-1.4409 0.435637,0 q 0.569679,0 1.072337,-0.067 0.519413,-0.084 0.904784,-0.3184 0.385372,-0.2346 0.60319,-0.687 0.234574,-0.4691 0.234574,-1.2231 l 0,-16.9898 q 0,-0.754 -0.234574,-1.2064 -0.217818,-0.4692 -0.60319,-0.7205 -0.385371,-0.2513 -0.904784,-0.3183 -0.502658,-0.084 -1.072337,-0.084 l -0.435637,0 0,-1.441 17.291435,0 0.167552,5.9984 -1.776058,0 -0.167552,-1.4744 q -0.06702,-0.5865 -0.268085,-1.0891 -0.201063,-0.5195 -0.586434,-0.8881 -0.368616,-0.3853 -0.938295,-0.6032 -0.569679,-0.2345 -1.373932,-0.2345 L 21.989368,1017.8231 Z"
         style="fill:#ffffff;fill-opacity:1;font-family:Droid Serif;-inkscape-font-specification:Droid Serif"
         id="path868-2" />
    </g>
  </g>
</svg>
