<?xml version="1.0" encoding="UTF-8" standalone="no"?>
<!-- Created with Inkscape (http://www.inkscape.org/) -->

<svg
   xmlns:dc="http://purl.org/dc/elements/1.1/"
   xmlns:cc="http://creativecommons.org/ns#"
   xmlns:rdf="http://www.w3.org/1999/02/22-rdf-syntax-ns#"
   xmlns:svg="http://www.w3.org/2000/svg"
   xmlns="http://www.w3.org/2000/svg"
   xmlns:xlink="http://www.w3.org/1999/xlink"
   xmlns:sodipodi="http://sodipodi.sourceforge.net/DTD/sodipodi-0.dtd"
   xmlns:inkscape="http://www.inkscape.org/namespaces/inkscape"
   width="48"
   height="48"
   id="svg2"
   version="1.1"
   inkscape:version="0.48+devel r12137"
   sodipodi:docname="gnome-search-tool.svg">
  <defs
     id="defs4">
    <linearGradient
       gradientTransform="scale(1.0058652,0.994169)"
       gradientUnits="userSpaceOnUse"
       id="ButtonShadow"
       y2="7.0165396"
       x2="45.447727"
       y1="92.539597"
       x1="45.447727">
      <stop
         offset="0"
         style="stop-color:#000000;stop-opacity:1"
         id="stop3750" />
      <stop
         offset="1"
         style="stop-color:#000000;stop-opacity:0.58823532"
         id="stop3752" />
    </linearGradient>
    <linearGradient
       id="linearGradient3737">
      <stop
         offset="0"
         style="stop-color:#ffffff;stop-opacity:1"
         id="stop3739" />
      <stop
         offset="1"
         style="stop-color:#ffffff;stop-opacity:0"
         id="stop3741" />
    </linearGradient>
    <filter
       style="color-interpolation-filters:sRGB"
       id="filter3174">
      <feGaussianBlur
         stdDeviation="1.71"
         id="feGaussianBlur3176" />
    </filter>
    <filter
       style="color-interpolation-filters:sRGB"
       id="filter3794"
       height="1.3839999"
       width="1.3839999"
       y="-0.192"
       x="-0.192">
      <feGaussianBlur
         stdDeviation="5.28"
         id="feGaussianBlur3796" />
    </filter>
    <linearGradient
       gradientUnits="userSpaceOnUse"
       xlink:href="#linearGradient3737"
       id="linearGradient3613"
       y2="138.66119"
       x2="48"
       y1="20.220806"
       x1="48" />
    <clipPath
       id="clipPath3613">
      <rect
         style="fill:#ffffff;fill-opacity:1;fill-rule:nonzero;stroke:none"
         id="rect3615"
         y="6"
         x="6"
         ry="6"
         rx="6"
         height="84"
         width="84" />
    </clipPath>
    <linearGradient
       id="linearGradient908">
      <stop
         style="stop-color:#f9f9f9;stop-opacity:1"
         offset="0"
         id="stop910" />
      <stop
         style="stop-color:#ffffff;stop-opacity:1"
         offset="1"
         id="stop912" />
    </linearGradient>
    <linearGradient
       inkscape:collect="always"
       xlink:href="#linearGradient908"
       id="linearGradient902"
       x1="24.7724"
       y1="1049.8397"
       x2="24.7724"
       y2="1005.4991"
       gradientUnits="userSpaceOnUse" />
  </defs>
  <sodipodi:namedview
     id="base"
     pagecolor="#ffffff"
     bordercolor="#666666"
     borderopacity="1.0"
     inkscape:pageopacity="0.0"
     inkscape:pageshadow="2"
     inkscape:zoom="3.2366623"
     inkscape:cx="-47.271407"
     inkscape:cy="58.660235"
     inkscape:document-units="px"
     inkscape:current-layer="layer1"
     showgrid="false"
     inkscape:window-width="1366"
     inkscape:window-height="714"
     inkscape:window-x="0"
     inkscape:window-y="30"
     inkscape:window-maximized="1">
    <inkscape:grid
       type="xygrid"
       id="grid3850"
       empspacing="5"
       visible="true"
       enabled="true"
       snapvisiblegridlinesonly="true" />
  </sodipodi:namedview>
  <metadata
     id="metadata7">
    <rdf:RDF>
      <cc:Work
         rdf:about="">
        <dc:format>image/svg+xml</dc:format>
        <dc:type
           rdf:resource="http://purl.org/dc/dcmitype/StillImage" />
        <dc:title />
      </cc:Work>
    </rdf:RDF>
  </metadata>
  <g
     inkscape:label="Capa 1"
     inkscape:groupmode="layer"
     id="layer1"
     transform="translate(0,-1004.3622)">
    <g
       id="layer2"
       style="display:none"
       transform="translate(-148.03414,970.398)">
      <rect
         width="86"
         height="85"
         rx="6"
         ry="6"
         x="5"
         y="7"
         id="rect3745"
         style="opacity:0.9;fill:url(#ButtonShadow);fill-opacity:1;fill-rule:nonzero;stroke:none;filter:url(#filter3174)" />
    </g>
    <g
       id="layer5"
       style="display:none"
       transform="translate(-148.03414,970.398)">
      <rect
         width="66"
         height="66"
         rx="12"
         ry="12"
         x="15"
         y="15"
         clip-path="url(#clipPath3613)"
         id="rect3171"
         style="opacity:0.1;fill:url(#linearGradient3613);fill-opacity:1;fill-rule:nonzero;stroke:#ffffff;stroke-width:0.5;stroke-linecap:round;stroke-linejoin:miter;stroke-miterlimit:4;stroke-opacity:1;stroke-dasharray:none;stroke-dashoffset:0;filter:url(#filter3794)" />
    </g>
    <rect
       style="color:#000000;fill:#333333;fill-opacity:1;fill-rule:nonzero;stroke:none;stroke-width:0.2;marker:none;visibility:visible;display:inline;overflow:visible;enable-background:accumulate"
       id="rect6294"
       width="45.5"
       height="45.5"
       x="1.25"
       y="1005.6122"
       ry="6.3565426" />
    <rect
       ry="5.8565426"
       y="1006.1122"
       x="1.75"
       height="44.5"
       width="44.5"
       id="rect6296"
       style="color:#000000;fill:url(#linearGradient902);fill-opacity:1;fill-rule:nonzero;stroke:none;stroke-width:0.2;marker:none;visibility:visible;display:inline;overflow:visible;enable-background:accumulate" />
    <path
       id="path6361"
       d="m 1.7499983,1012.5497 0,-0.5625 c 0,-3.2445 2.599225,-5.875 5.84375,-5.875 l 32.8124997,0 c 3.244525,0 5.84375,2.6305 5.84375,5.875 l 0,0.5625 c 0,-3.2445 -2.599225,-5.875 -5.84375,-5.875 l -32.8124997,0 C 4.3492233,1006.6747 1.7499983,1009.3052 1.7499983,1012.5497 Z"
       style="color:#000000;fill:#ffffff;fill-opacity:1;fill-rule:nonzero;stroke:none;stroke-width:0.2;marker:none;visibility:visible;display:inline;overflow:visible;enable-background:accumulate"
       inkscape:connector-curvature="0" />
    <path
       inkscape:connector-curvature="0"
       style="color:#000000;fill:#000000;fill-opacity:1;fill-rule:nonzero;stroke:none;stroke-width:0.2;marker:none;visibility:visible;display:inline;overflow:visible;enable-background:accumulate"
       d="m 1.7499983,1044.1747 0,0.5625 c 0,3.2445 2.599225,5.875 5.84375,5.875 l 32.8124997,0 c 3.244525,0 5.84375,-2.6305 5.84375,-5.875 l 0,-0.5625 c 0,3.2445 -2.599225,5.875 -5.84375,5.875 l -32.8124997,0 C 4.3492233,1050.0497 1.7499983,1047.4192 1.7499983,1044.1747 Z"
       id="path6388" />
    <g
       transform="matrix(0.9375,0,0,0.9375,1.4999999,1005.8622)"
       id="g5192">
      <g
         style="fill:#000000;fill-opacity:0.4545455"
         inkscape:label="Capa 1"
         id="layer1-6"
         transform="matrix(0.72468517,0,0,0.72468517,6.6082699,-721.51157)">
        <path
           style="fill:#000000;fill-opacity:0.4545455;stroke:none"
           d="m 33.589457,1008.2266 c -1.81569,-0.9867 -3.915,-1.5666 -6.12661,-1.5666 -7.07711,0 -12.79926,5.7735 -12.79926,12.8506 0,3.8434 1.69025,7.2543 4.36289,9.6032 l -2.51402,4.3548 c -0.87788,-0.3432 -1.9205,0 -2.40686,0.8471 l -6.1351099,10.6268 c -0.53666,0.9293 -0.22039,2.1097 0.70914,2.6462 l 3.8350699,2.2147 c 0.92953,0.5365 2.10988,0.22 2.64655,-0.7093 l 6.13512,-10.6267 c 0.49193,-0.8517 0.2874,-1.9234 -0.46945,-2.5077 l 2.51401,-4.3548 c 1.29406,0.4409 2.66568,0.7223 4.11063,0.7223 7.07712,0 12.83921,-5.7509 12.83921,-12.828 C 40.290767,1014.6336 37.583977,1010.3966 33.589457,1008.2266 z m -2.13428,3.8809 c 2.61432,1.4206 4.41277,4.2104 4.41277,7.3952 0,4.6316 -3.76471,8.3619 -8.39652,8.3619 -4.63181,0 -8.38502,-3.7252 -8.38502,-8.3568 0,-4.6317 3.72477,-8.3853 8.35658,-8.3853 C 28.890417,1011.1225 30.266847,1011.4623 31.455177,1012.1075 Z"
           id="rect3910-3"
           inkscape:connector-curvature="0" />
      </g>
      <path
         inkscape:connector-curvature="0"
         id="path4370"
         d="m 26.488822,11.184262 c -3.356604,0 -6.051323,2.725516 -6.051323,6.08204 0,0.104628 -0.0052,0.203885 0,0.307174 0.145644,-3.22606 2.788888,-5.805584 6.051323,-5.805584 1.048931,0 2.056984,0.26965 2.91815,0.737217 1.826639,0.992581 3.074675,2.894511 3.16389,5.099084 0.0064,-0.11398 0.03072,-0.222278 0.03072,-0.337891 0,-2.307978 -1.300048,-4.315335 -3.194607,-5.344823 C 28.545806,11.453912 27.537753,11.184262 26.488822,11.184262 z m -9.24593,6.297062 c -0.0048,0.122802 0,0.244656 0,0.368608 0,2.676993 1.141267,5.064932 2.948868,6.757823 l 0.215021,-0.368609 C 18.519632,22.580589 17.303781,20.17919 17.242892,17.481324 z m 18.553294,0.184304 c -0.210783,4.943239 -4.312962,8.908039 -9.307364,8.908039 -1.047134,0 -2.0418,-0.202682 -2.979586,-0.522196 l -1.812325,3.133172 c 0.08558,0.06607 0.149327,0.164417 0.215022,0.245739 l 1.597303,-2.795281 c 0.937786,0.319514 1.932452,0.522196 2.979586,0.522196 5.128683,0 9.307364,-4.178695 9.307364,-9.307365 C 35.796186,17.787287 35.797419,17.72798 35.796186,17.665628 z m -13.57708,12.901297 c -0.02932,0.156433 -0.100302,0.284608 -0.184304,0.430043 l -4.454019,7.710062 c -0.388917,0.67345 -1.230861,0.910989 -1.904477,0.522195 L 12.911742,37.631921 C 12.55645,37.426856 12.318498,37.07992 12.23596,36.7104 c -0.116512,0.574827 0.138374,1.194975 0.675782,1.505152 l 2.764564,1.597303 c 0.673616,0.388795 1.51556,0.151255 1.904477,-0.522195 l 4.454019,-7.710061 C 22.218172,31.263123 22.288591,30.898998 22.219106,30.566925 Z"
         style="fill:#ffffff;fill-opacity:0.5372549;stroke:none" />
      <path
         inkscape:connector-curvature="0"
         id="path5183"
         d="m 26.519539,8.0000203 c -4.952746,0 -8.974788,3.8987017 -9.24593,8.7851687 0.474358,-4.685557 4.437795,-8.3858428 9.24593,-8.3858428 1.60272,0 3.107498,0.4214962 4.423302,1.136543 2.860482,1.5539398 4.807571,4.5744948 4.853345,8.0479518 0.0027,-0.09231 0,-0.183492 0,-0.276456 0,-3.526029 -1.958576,-6.598256 -4.853345,-8.1708219 C 29.627037,8.4215162 28.122259,8.0000203 26.519539,8.0000203 z m -6.08204,9.5223857 c -0.0023,0.0692 0,0.145253 0,0.215022 0,3.356452 2.725436,6.051323 6.08204,6.051323 3.356604,0 6.08204,-2.725589 6.08204,-6.082041 0,-0.05313 0.0014,-0.100764 0,-0.153586 -0.131404,3.239742 -2.809142,5.805583 -6.08204,5.805583 C 23.236178,23.358707 20.552637,20.776627 20.437499,17.522406 z m -0.184305,7.003562 -1.689455,2.887433 c -0.636186,-0.248713 -1.367716,4.67e-4 -1.720173,0.614347 l -4.454019,7.710061 c -0.161849,0.280262 -0.224036,0.594259 -0.184305,0.890804 0.02711,-0.161476 0.09737,-0.310225 0.184305,-0.46076 l 4.454019,-7.710061 c 0.352457,-0.613881 1.083987,-0.86306 1.720173,-0.614348 l 1.843042,-3.163889 C 20.353008,24.632294 20.30586,24.574405 20.253194,24.525968 z m 1.597304,4.853345 -0.153587,0.276456 c 0.274239,0.211717 0.461142,0.505127 0.522195,0.829369 C 22.260111,30.086887 22.125537,29.674448 21.850498,29.379313 Z"
         style="fill:#000000;fill-opacity:0.39215686;stroke:none" />
    </g>
  </g>
</svg>
