<?xml version="1.0" encoding="UTF-8" standalone="no"?>
<!-- Created with Inkscape (http://www.inkscape.org/) -->

<svg
   xmlns:dc="http://purl.org/dc/elements/1.1/"
   xmlns:cc="http://creativecommons.org/ns#"
   xmlns:rdf="http://www.w3.org/1999/02/22-rdf-syntax-ns#"
   xmlns:svg="http://www.w3.org/2000/svg"
   xmlns="http://www.w3.org/2000/svg"
   xmlns:xlink="http://www.w3.org/1999/xlink"
   xmlns:sodipodi="http://sodipodi.sourceforge.net/DTD/sodipodi-0.dtd"
   xmlns:inkscape="http://www.inkscape.org/namespaces/inkscape"
   width="48"
   height="48"
   id="svg21512"
   version="1.1"
   inkscape:version="0.48+devel r12130"
   sodipodi:docname="gnome-documents.svg">
  <defs
     id="defs21514">
    <linearGradient
       inkscape:collect="always"
       xlink:href="#linearGradient885"
       id="linearGradient897"
       gradientUnits="userSpaceOnUse"
       x1="25.249998"
       y1="-1053.1122"
       x2="25.249998"
       y2="-1004.8622"
       gradientTransform="matrix(0.95833333,0,0,-0.95833333,1.75,-961.51381)" />
    <linearGradient
       inkscape:collect="always"
       id="linearGradient885">
      <stop
         style="stop-color:#e0b134;stop-opacity:1"
         offset="0"
         id="stop887" />
      <stop
         style="stop-color:#ebcb63;stop-opacity:1"
         offset="1"
         id="stop889" />
    </linearGradient>
    <linearGradient
       inkscape:collect="always"
       xlink:href="#linearGradient994"
       id="linearGradient1000"
       x1="-0.79549569"
       y1="4.0709939"
       x2="13.34664"
       y2="18.213129"
       gradientUnits="userSpaceOnUse"
       gradientTransform="matrix(0.9494924,0,0,-0.9494924,0.81702122,1050.8431)" />
    <linearGradient
       inkscape:collect="always"
       id="linearGradient994">
      <stop
         style="stop-color:#000000;stop-opacity:0.27205882"
         offset="0"
         id="stop996" />
      <stop
         style="stop-color:#000000;stop-opacity:0"
         offset="1"
         id="stop998" />
    </linearGradient>
  </defs>
  <sodipodi:namedview
     id="base"
     pagecolor="#ffffff"
     bordercolor="#666666"
     borderopacity="1.0"
     inkscape:pageopacity="0.0"
     inkscape:pageshadow="2"
     inkscape:zoom="2.8"
     inkscape:cx="-14.512673"
     inkscape:cy="20.301027"
     inkscape:document-units="px"
     inkscape:current-layer="layer1"
     showgrid="false"
     width="0px"
     height="0px"
     fit-margin-top="0"
     fit-margin-left="0"
     fit-margin-right="0"
     fit-margin-bottom="0"
     inkscape:window-width="1366"
     inkscape:window-height="717"
     inkscape:window-x="0"
     inkscape:window-y="28"
     inkscape:window-maximized="1" />
  <metadata
     id="metadata21517">
    <rdf:RDF>
      <cc:Work
         rdf:about="">
        <dc:format>image/svg+xml</dc:format>
        <dc:type
           rdf:resource="http://purl.org/dc/dcmitype/StillImage" />
        <dc:title />
      </cc:Work>
    </rdf:RDF>
  </metadata>
  <g
     inkscape:label="Capa 1"
     inkscape:groupmode="layer"
     id="layer1"
     transform="translate(0,-1004.3622)">
    <rect
       style="color:#000000;fill:#333333;fill-opacity:1;fill-rule:nonzero;stroke:none;stroke-width:0.2;marker:none;visibility:visible;display:inline;overflow:visible;enable-background:accumulate"
       id="rect6294"
       width="45.5"
       height="45.5"
       x="1.25"
       y="1005.6122"
       ry="6.3565426" />
    <rect
       ry="5.8565426"
       y="1006.1122"
       x="1.75"
       height="44.5"
       width="44.5"
       id="rect6296"
       style="color:#000000;fill:#ffffff;fill-opacity:1;fill-rule:nonzero;stroke:none;stroke-width:0.2;marker:none;visibility:visible;display:inline;overflow:visible;enable-background:accumulate" />
    <path
       style="fill:#000000;fill-opacity:0.42458101;stroke:none"
       d="M 41.375 2 C 42.362503 2 43.15625 2.79375 43.15625 3.78125 L 43.15625 44.21875 C 43.15625 45.20625 42.362503 46 41.375 46 L 42.125 46 C 42.704787 45.820421 43.263616 45.526426 43.75 45.1875 C 43.8941 44.964103 43.998334 44.717231 44.03125 44.4375 C 43.905282 44.56461 43.794274 44.693264 43.65625 44.8125 C 43.7216 44.6265 43.75 44.42825 43.75 44.21875 L 43.75 3.78125 C 43.75 3.57165 43.7216 3.3735 43.65625 3.1875 C 43.794274 3.306736 43.905282 3.435385 44.03125 3.5625 C 43.998334 3.2827692 43.8941 3.0358967 43.75 2.8125 C 43.263616 2.473574 42.704787 2.179579 42.125 2 L 41.375 2 z "
       transform="translate(0,1004.3622)"
       id="rect1061" />
    <g
       id="g898"
       transform="matrix(0,0.96557061,-0.96557061,0,1016.5265,1005.1022)">
      <g
         id="text861"
         style="font-size:40px;font-style:normal;font-variant:normal;font-weight:bold;font-stretch:normal;line-height:125%;letter-spacing:0px;word-spacing:0px;fill:#000000;fill-opacity:1;stroke:none;font-family:Times New Roman;-inkscape-font-specification:'Times New Roman, Bold'"
         transform="matrix(0.6041298,0,0,0.6041298,-3.7432642,1005.1833)">
        <path
           inkscape:connector-curvature="0"
           id="path866"
           d="m 40.260394,10.201916 0,7.167968 -0.703125,0 q -0.625,-2.480468 -1.386719,-3.554687 -0.761718,-1.09375 -2.089843,-1.738281 -0.742188,-0.351563 -2.597657,-0.351563 l -1.972656,0 0,20.429688 q 0,2.03125 0.214844,2.539062 0.234375,0.507813 0.878906,0.898438 0.664063,0.371093 1.796875,0.371093 l 0.878906,0 0,0.722657 -13.867187,0 0,-0.722657 0.878906,0 q 1.152344,0 1.855469,-0.410156 0.507812,-0.273437 0.800781,-0.9375 0.214844,-0.46875 0.214844,-2.460937 l 0,-20.429688 -1.914063,0 q -2.675781,0 -3.886718,1.132813 -1.699219,1.582031 -2.148438,4.511718 l -0.742187,0 0,-7.167968 L 40.260394,10.201916 Z" />
      </g>
      <rect
         ry="0"
         y="1011.3466"
         x="21.743534"
         height="1.1409271"
         width="20.227606"
         id="rect868"
         style="color:#000000;fill:#6c7587;fill-opacity:1;fill-rule:nonzero;stroke:none;stroke-width:0.2;marker:none;visibility:visible;display:inline;overflow:visible;enable-background:accumulate" />
      <rect
         style="color:#000000;fill:#6c7587;fill-opacity:1;fill-rule:nonzero;stroke:none;stroke-width:0.2;marker:none;visibility:visible;display:inline;overflow:visible;enable-background:accumulate"
         id="rect870"
         width="20.227606"
         height="1.1409271"
         x="21.743534"
         y="1013.3466"
         ry="0" />
      <rect
         ry="0"
         y="1015.3466"
         x="21.743534"
         height="1.1409271"
         width="20.227606"
         id="rect872"
         style="color:#000000;fill:#6c7587;fill-opacity:1;fill-rule:nonzero;stroke:none;stroke-width:0.2;marker:none;visibility:visible;display:inline;overflow:visible;enable-background:accumulate" />
      <rect
         style="color:#000000;fill:#6c7587;fill-opacity:1;fill-rule:nonzero;stroke:none;stroke-width:0.2;marker:none;visibility:visible;display:inline;overflow:visible;enable-background:accumulate"
         id="rect874"
         width="20.227606"
         height="1.1409271"
         x="21.743534"
         y="1017.3466"
         ry="0" />
      <rect
         ry="0"
         y="1019.3466"
         x="21.743534"
         height="1.1409271"
         width="10.540106"
         id="rect876"
         style="color:#000000;fill:#6c7587;fill-opacity:1;fill-rule:nonzero;stroke:none;stroke-width:0.2;marker:none;visibility:visible;display:inline;overflow:visible;enable-background:accumulate" />
      <rect
         style="color:#000000;fill:#6c7587;fill-opacity:1;fill-rule:nonzero;stroke:none;stroke-width:0.2;marker:none;visibility:visible;display:inline;overflow:visible;enable-background:accumulate"
         id="rect878"
         width="20.227606"
         height="1.1409271"
         x="21.743534"
         y="1023.3466"
         ry="0" />
      <rect
         ry="0"
         y="1025.3467"
         x="21.743534"
         height="1.1409271"
         width="20.227606"
         id="rect880"
         style="color:#000000;fill:#6c7587;fill-opacity:1;fill-rule:nonzero;stroke:none;stroke-width:0.2;marker:none;visibility:visible;display:inline;overflow:visible;enable-background:accumulate" />
      <rect
         style="color:#000000;fill:#6c7587;fill-opacity:1;fill-rule:nonzero;stroke:none;stroke-width:0.2;marker:none;visibility:visible;display:inline;overflow:visible;enable-background:accumulate"
         id="rect882"
         width="20.227606"
         height="1.1409271"
         x="21.743534"
         y="1027.3467"
         ry="0" />
      <rect
         ry="0"
         y="1029.3467"
         x="6.2075582"
         height="1.1409271"
         width="35.739761"
         id="rect884"
         style="color:#000000;fill:#6c7587;fill-opacity:1;fill-rule:nonzero;stroke:none;stroke-width:0.2;marker:none;visibility:visible;display:inline;overflow:visible;enable-background:accumulate" />
      <rect
         style="color:#000000;fill:#6c7587;fill-opacity:1;fill-rule:nonzero;stroke:none;stroke-width:0.2;marker:none;visibility:visible;display:inline;overflow:visible;enable-background:accumulate"
         id="rect886"
         width="10.540106"
         height="1.1409271"
         x="6.2075582"
         y="1031.3467"
         ry="0" />
      <rect
         style="color:#000000;fill:#6c7587;fill-opacity:1;fill-rule:nonzero;stroke:none;stroke-width:0.2;marker:none;visibility:visible;display:inline;overflow:visible;enable-background:accumulate"
         id="rect888"
         width="35.739761"
         height="1.1409271"
         x="6.2075582"
         y="1035.3467"
         ry="0" />
      <rect
         ry="0"
         y="1037.3467"
         x="6.2075582"
         height="1.1409271"
         width="35.739761"
         id="rect890"
         style="color:#000000;fill:#6c7587;fill-opacity:1;fill-rule:nonzero;stroke:none;stroke-width:0.2;marker:none;visibility:visible;display:inline;overflow:visible;enable-background:accumulate" />
      <rect
         style="color:#000000;fill:#6c7587;fill-opacity:1;fill-rule:nonzero;stroke:none;stroke-width:0.2;marker:none;visibility:visible;display:inline;overflow:visible;enable-background:accumulate"
         id="rect892"
         width="35.739761"
         height="1.1409271"
         x="6.2075582"
         y="1039.3467"
         ry="0" />
      <rect
         ry="0"
         y="1043.3467"
         x="6.2075582"
         height="1.1409271"
         width="35.739761"
         id="rect894"
         style="color:#000000;fill:#6c7587;fill-opacity:1;fill-rule:nonzero;stroke:none;stroke-width:0.2;marker:none;visibility:visible;display:inline;overflow:visible;enable-background:accumulate" />
      <rect
         style="color:#000000;fill:#6c7587;fill-opacity:1;fill-rule:nonzero;stroke:none;stroke-width:0.2;marker:none;visibility:visible;display:inline;overflow:visible;enable-background:accumulate"
         id="rect896"
         width="35.739761"
         height="1.1409271"
         x="6.2075582"
         y="1041.3467"
         ry="0" />
    </g>
    <path
       style="fill:url(#linearGradient897);fill-opacity:1;stroke:none"
       d="M 7.59375 1.75 C 4.3492254 1.75 1.75 4.3492254 1.75 7.59375 L 1.75 40.40625 C 1.75 43.650775 4.3492254 46.25 7.59375 46.25 L 33.75 46.25 L 33.75 22.09375 C 33.75 21.06135 34.592609 20.21875 35.625 20.21875 L 42 20.21875 L 42 2.84375 C 42 2.497896 41.911859 2.1822446 41.75 1.90625 C 41.310557 1.8016302 40.878615 1.75 40.40625 1.75 L 7.59375 1.75 z "
       transform="translate(0,1004.3622)"
       id="rect893" />
    <path
       style="fill:#000000;fill-opacity:0.10055865;stroke:none"
       d="M 40.15625 1.75 L 40.15625 18 L 33.75 18 C 32.717609 18 31.90625 18.8427 31.90625 19.875 L 31.90625 44.78125 L 3.75 44.78125 C 4.7800146 45.685007 6.1094837 46.25 7.59375 46.25 L 33.75 46.25 L 33.75 22.09375 C 33.75 21.06135 34.592609 20.21875 35.625 20.21875 L 42 20.21875 L 42 2.84375 C 42 2.497896 41.911859 2.1822446 41.75 1.90625 C 41.310557 1.8016302 40.878615 1.75 40.40625 1.75 L 40.15625 1.75 z "
       transform="translate(0,1004.3622)"
       id="path987" />
    <path
       style="fill:#000000;fill-opacity:0.24581006;stroke:none"
       d="M 41.40625 1.84375 C 41.478186 2.045725 41.506051 2.2404 41.53125 2.46875 L 41.53125 19.84375 L 35.15625 19.84375 C 34.124124 19.84375 33.3125 20.68665 33.3125 21.71875 L 33.3125 46.25 L 33.78125 46.25 L 33.78125 22.09375 C 33.78125 21.06165 34.592874 20.25 35.625 20.25 L 42 20.25 L 42 2.875 C 42 2.5133243 41.895839 2.1846527 41.71875 1.90625 C 41.613697 1.8818248 41.513426 1.8624692 41.40625 1.84375 z "
       transform="translate(0,1004.3622)"
       id="path906" />
    <path
       style="opacity:0.272;fill:url(#linearGradient1000);fill-opacity:1;stroke:none"
       d="m 4.8453766,1046.8939 0,-37.598 C 7.707197,1026.8602 10.014643,1044.8587 32.708164,1046.8939 Z"
       id="path992"
       inkscape:connector-curvature="0"
       sodipodi:nodetypes="cccc" />
    <path
       id="path6361"
       d="m 1.7500035,1012.5497 0,-0.5625 c 0,-3.2445 2.5992,-5.875 5.8438,-5.875 l 32.8125005,0 c 3.2445,0 5.8437,2.6305 5.8437,5.875 l 0,0.5625 c 0,-3.2445 -2.5992,-5.875 -5.8437,-5.875 l -32.8125005,0 C 4.3492035,1006.6747 1.7500035,1009.3052 1.7500035,1012.5497 Z"
       style="color:#000000;fill:#ffffff;fill-opacity:1;fill-rule:nonzero;stroke:none;stroke-width:0.2;marker:none;visibility:visible;display:inline;overflow:visible;enable-background:accumulate"
       inkscape:connector-curvature="0" />
    <path
       inkscape:connector-curvature="0"
       style="color:#000000;fill:#000000;fill-opacity:1;fill-rule:nonzero;stroke:none;stroke-width:0.2;marker:none;visibility:visible;display:inline;overflow:visible;enable-background:accumulate"
       d="m 1.7500035,1044.1747 0,0.5625 c 0,3.2445 2.5992,5.875 5.8438,5.875 l 32.8125005,0 c 3.2445,0 5.8437,-2.6305 5.8437,-5.875 l 0,-0.5625 c 0,3.2445 -2.5992,5.875 -5.8437,5.875 l -32.8125005,0 C 4.3492035,1050.0497 1.7500035,1047.4192 1.7500035,1044.1747 Z"
       id="path6388" />
    <path
       style="fill:#000000;fill-opacity:0.42458101;stroke:none"
       d="M 44.65625 3.59375 C 44.662305 3.653809 44.6875 3.7195313 44.6875 3.78125 L 44.6875 44.21875 C 44.6875 44.280469 44.662305 44.346192 44.65625 44.40625 C 44.88733 44.160576 45.095165 43.908005 45.28125 43.625 L 45.28125 4.375 C 45.095165 4.0919947 44.88733 3.8394242 44.65625 3.59375 z "
       transform="translate(0,1004.3622)"
       id="path967" />
  </g>
</svg>
