<?xml version="1.0" encoding="UTF-8" standalone="no"?>
<!-- Created with Inkscape (http://www.inkscape.org/) -->

<svg
   xmlns:dc="http://purl.org/dc/elements/1.1/"
   xmlns:cc="http://creativecommons.org/ns#"
   xmlns:rdf="http://www.w3.org/1999/02/22-rdf-syntax-ns#"
   xmlns:svg="http://www.w3.org/2000/svg"
   xmlns="http://www.w3.org/2000/svg"
   xmlns:xlink="http://www.w3.org/1999/xlink"
   xmlns:sodipodi="http://sodipodi.sourceforge.net/DTD/sodipodi-0.dtd"
   xmlns:inkscape="http://www.inkscape.org/namespaces/inkscape"
   width="48"
   height="48"
   id="svg2"
   version="1.1"
   inkscape:version="0.48+devel r12131"
   sodipodi:docname="gnome-mplayer.svg"
   inkscape:export-filename="/home/uri/Iconos/NITRUX-Buttons/apps/16/gnome-mplayer.png"
   inkscape:export-xdpi="30"
   inkscape:export-ydpi="30">
  <defs
     id="defs4">
    <linearGradient
       inkscape:collect="always"
       id="linearGradient849">
      <stop
         style="stop-color:#c0885f;stop-opacity:1"
         offset="0"
         id="stop851" />
      <stop
         id="stop857"
         offset="0.21651782"
         style="stop-color:#fada8e;stop-opacity:1" />
      <stop
         style="stop-color:#f0e4a9;stop-opacity:1"
         offset="0.53636128"
         id="stop859" />
      <stop
         id="stop861"
         offset="0.875"
         style="stop-color:#d3d2a0;stop-opacity:1" />
      <stop
         style="stop-color:#8aa089;stop-opacity:1"
         offset="1"
         id="stop853" />
    </linearGradient>
    <linearGradient
       inkscape:collect="always"
       xlink:href="#linearGradient3989"
       id="linearGradient3995"
       x1="24.310848"
       y1="1033.9194"
       x2="24.310848"
       y2="1022.8818"
       gradientUnits="userSpaceOnUse"
       gradientTransform="translate(-76.003527,-2.2359362)" />
    <linearGradient
       inkscape:collect="always"
       id="linearGradient3989">
      <stop
         style="stop-color:#777671;stop-opacity:1"
         offset="0"
         id="stop3991" />
      <stop
         style="stop-color:#babab8;stop-opacity:1"
         offset="1"
         id="stop3993" />
    </linearGradient>
    <linearGradient
       inkscape:collect="always"
       xlink:href="#linearGradient3989"
       id="linearGradient4123"
       gradientUnits="userSpaceOnUse"
       gradientTransform="translate(-76.003527,-2.2359362)"
       x1="24.310848"
       y1="1033.9194"
       x2="24.310848"
       y2="1022.8818" />
    <linearGradient
       inkscape:collect="always"
       xlink:href="#linearGradient4072"
       id="linearGradient4078"
       x1="22.75"
       y1="36.875"
       x2="22.75"
       y2="42.5"
       gradientUnits="userSpaceOnUse"
       gradientTransform="translate(-76.003527,1011.3187)" />
    <linearGradient
       inkscape:collect="always"
       id="linearGradient4072">
      <stop
         style="stop-color:#000000;stop-opacity:1;"
         offset="0"
         id="stop4074" />
      <stop
         style="stop-color:#000000;stop-opacity:0;"
         offset="1"
         id="stop4076" />
    </linearGradient>
    <linearGradient
       inkscape:collect="always"
       xlink:href="#linearGradient4072"
       id="linearGradient4084"
       gradientUnits="userSpaceOnUse"
       x1="24.5"
       y1="37.03125"
       x2="24.5"
       y2="38.0625"
       gradientTransform="translate(-76.003527,1011.3187)" />
    <linearGradient
       inkscape:collect="always"
       xlink:href="#linearGradient4112"
       id="linearGradient4110"
       x1="36.98341"
       y1="42.500965"
       x2="36.98341"
       y2="37.567196"
       gradientUnits="userSpaceOnUse" />
    <linearGradient
       id="linearGradient4112"
       inkscape:collect="always">
      <stop
         id="stop4114"
         offset="0"
         style="stop-color:#777671;stop-opacity:1" />
      <stop
         id="stop4116"
         offset="1"
         style="stop-color:#cccccb;stop-opacity:1" />
    </linearGradient>
    <linearGradient
       inkscape:collect="always"
       xlink:href="#linearGradient849"
       id="linearGradient1533"
       x1="24.122074"
       y1="1050.4901"
       x2="22.81179"
       y2="1006.3889"
       gradientUnits="userSpaceOnUse" />
  </defs>
  <sodipodi:namedview
     id="base"
     pagecolor="#ffffff"
     bordercolor="#666666"
     borderopacity="1.0"
     inkscape:pageopacity="0.0"
     inkscape:pageshadow="2"
     inkscape:zoom="4.095876"
     inkscape:cx="-15.742043"
     inkscape:cy="19.912923"
     inkscape:document-units="px"
     inkscape:current-layer="layer1"
     showgrid="false"
     inkscape:window-width="1366"
     inkscape:window-height="717"
     inkscape:window-x="0"
     inkscape:window-y="28"
     inkscape:window-maximized="1"
     width="0px"
     height="0px"
     fit-margin-top="0"
     fit-margin-left="0"
     fit-margin-right="0"
     fit-margin-bottom="0">
    <inkscape:grid
       type="xygrid"
       id="grid3850"
       empspacing="5"
       visible="true"
       enabled="true"
       snapvisiblegridlinesonly="true" />
  </sodipodi:namedview>
  <metadata
     id="metadata7">
    <rdf:RDF>
      <cc:Work
         rdf:about="">
        <dc:format>image/svg+xml</dc:format>
        <dc:type
           rdf:resource="http://purl.org/dc/dcmitype/StillImage" />
        <dc:title />
      </cc:Work>
    </rdf:RDF>
  </metadata>
  <g
     inkscape:label="Capa 1"
     inkscape:groupmode="layer"
     id="layer1"
     transform="translate(0,-1004.3622)">
    <rect
       style="color:#000000;fill:#333333;fill-opacity:1;fill-rule:nonzero;stroke:none;stroke-width:0.2;marker:none;visibility:visible;display:inline;overflow:visible;enable-background:accumulate"
       id="rect6294"
       width="45.5"
       height="45.5"
       x="1.25"
       y="1005.6122"
       ry="6.3565426" />
    <rect
       ry="5.8565426"
       y="1006.1122"
       x="1.75"
       height="44.5"
       width="44.5"
       id="rect6296"
       style="color:#000000;fill:url(#linearGradient1533);fill-opacity:1;fill-rule:nonzero;stroke:none;stroke-width:0.2;marker:none;visibility:visible;display:inline;overflow:visible;enable-background:accumulate" />
    <path
       id="path6361"
       d="m 1.7500033,1012.5497 0,-0.5625 c 0,-3.2445 2.5992,-5.875 5.8438,-5.875 l 32.8125007,0 c 3.2445,0 5.8437,2.6305 5.8437,5.875 l 0,0.5625 c 0,-3.2445 -2.5992,-5.875 -5.8437,-5.875 l -32.8125007,0 C 4.3492033,1006.6747 1.7500033,1009.3052 1.7500033,1012.5497 Z"
       style="color:#000000;fill:#ffffff;fill-opacity:1;fill-rule:nonzero;stroke:none;stroke-width:0.2;marker:none;visibility:visible;display:inline;overflow:visible;enable-background:accumulate"
       inkscape:connector-curvature="0" />
    <path
       inkscape:connector-curvature="0"
       style="color:#000000;fill:#000000;fill-opacity:1;fill-rule:nonzero;stroke:none;stroke-width:0.2;marker:none;visibility:visible;display:inline;overflow:visible;enable-background:accumulate"
       d="m 1.7500033,1044.1747 0,0.5625 c 0,3.2445 2.5992,5.875 5.8438,5.875 l 32.8125007,0 c 3.2445,0 5.8437,-2.6305 5.8437,-5.875 l 0,-0.5625 c 0,3.2445 -2.5992,5.875 -5.8437,5.875 l -32.8125007,0 C 4.3492033,1050.0497 1.7500033,1047.4192 1.7500033,1044.1747 Z"
       id="path6388" />
    <g
       id="g1535"
       transform="matrix(0.93268501,0,0,0.93268501,72.510197,61.293571)">
      <path
         inkscape:connector-curvature="0"
         id="rect3983"
         d="m -70.409777,1020.7826 c -1.077277,0 -1.9375,0.8915 -1.9375,1.9687 l 0,6.75 c 0,1.0773 0.860223,1.9688 1.9375,1.9688 l 36.8125,0 c 1.077277,0 1.9375,-0.8915 1.9375,-1.9688 l 0,-6.75 c 0,-1.0772 -0.860223,-1.9687 -1.9375,-1.9687 L -70.409777,1020.7826 z m 0.3125,0.5312 36.1875,0 c 0.97447,0 1.75,0.7756 1.75,1.75 l 0,6.125 c 0,0.9745 -0.77553,1.75 -1.75,1.75 l -36.1875,0 c -0.97447,0 -1.75,-0.7755 -1.75,-1.75 l 0,-6.125 C -71.847277,1022.0894 -71.071747,1021.3138 -70.097277,1021.3138 Z"
         style="fill:url(#linearGradient3995);fill-opacity:1;stroke:none" />
      <rect
         style="fill:#000000;fill-opacity:0.84357539;stroke:none"
         id="rect3997"
         width="39.691578"
         height="9.6516342"
         x="-71.849312"
         y="1021.3004"
         ry="1.7589719" />
      <path
         inkscape:connector-curvature="0"
         style="fill:url(#linearGradient4123);fill-opacity:1;stroke:none"
         d="m -70.409777,1020.7826 c -1.077277,0 -1.9375,0.8915 -1.9375,1.9687 l 0,6.75 c 0,1.0773 0.860223,1.9688 1.9375,1.9688 l 36.8125,0 c 1.077277,0 1.9375,-0.8915 1.9375,-1.9688 l 0,-6.75 c 0,-1.0772 -0.860223,-1.9687 -1.9375,-1.9687 L -70.409777,1020.7826 z m 0.3125,0.5312 36.1875,0 c 0.97447,0 1.75,0.7756 1.75,1.75 l 0,6.125 c 0,0.9745 -0.77553,1.75 -1.75,1.75 l -36.1875,0 c -0.97447,0 -1.75,-0.7755 -1.75,-1.75 l 0,-6.125 C -71.847277,1022.0894 -71.071747,1021.3138 -70.097277,1021.3138 Z"
         id="path4009" />
      <path
         inkscape:connector-curvature="0"
         id="path4013"
         d="m -70.097277,1021.317 c -0.97447,0 -1.75,0.7756 -1.75,1.75 l 0,0.25 c 0,-0.9744 0.77553,-1.75 1.75,-1.75 l 36.1875,0 c 0.97447,0 1.75,0.7756 1.75,1.75 l 0,-0.25 c 0,-0.9744 -0.77553,-1.75 -1.75,-1.75 L -70.097277,1021.317 z m -2.25,8.1875 0,0.25 c 0,1.0773 0.860223,1.9688 1.9375,1.9688 l 36.8125,0 c 1.077277,0 1.9375,-0.8915 1.9375,-1.9688 l 0,-0.25 c 0,1.0773 -0.860223,1.9688 -1.9375,1.9688 l -36.8125,0 C -71.487054,1031.4733 -72.347277,1030.5818 -72.347277,1029.5045 Z"
         style="fill:#000000;fill-opacity:0.23382628;stroke:none" />
      <path
         style="fill:#000000;fill-opacity:0.11731843;stroke:none"
         d="m -70.112902,1021.5661 c -0.97447,0 -1.75,0.7756 -1.75,1.75 l 0,0.25 c 0,-0.9744 0.77553,-1.75 1.75,-1.75 l 36.1875,0 c 0.97447,0 1.75,0.7756 1.75,1.75 l 0,-0.25 c 0,-0.9744 -0.77553,-1.75 -1.75,-1.75 L -70.112902,1021.5661 z m -2.25,8.1875 0,0.25 c 0,1.0773 0.860223,1.9688 1.9375,1.9688 l 36.8125,0 c 1.077277,0 1.9375,-0.8915 1.9375,-1.9688 l 0,-0.25 c 0,1.0773 -0.860223,1.9688 -1.9375,1.9688 l -36.8125,0 C -71.502679,1031.7224 -72.362902,1030.8309 -72.362902,1029.7536 Z"
         id="path4018"
         inkscape:connector-curvature="0" />
      <path
         inkscape:connector-curvature="0"
         id="path4020"
         d="m -70.112902,1021.8161 c -0.97447,0 -1.75,0.7756 -1.75,1.75 l 0,0.25 c 0,-0.9744 0.77553,-1.75 1.75,-1.75 l 36.1875,0 c 0.97447,0 1.75,0.7756 1.75,1.75 l 0,-0.25 c 0,-0.9744 -0.77553,-1.75 -1.75,-1.75 L -70.112902,1021.8161 z m -2.25,8.1875 0,0.25 c 0,1.0773 0.860223,1.9688 1.9375,1.9688 l 36.8125,0 c 1.077277,0 1.9375,-0.8915 1.9375,-1.9688 l 0,-0.25 c 0,1.0773 -0.860223,1.9688 -1.9375,1.9688 l -36.8125,0 C -71.502679,1031.9724 -72.362902,1031.0809 -72.362902,1030.0036 Z"
         style="fill:#000000;fill-opacity:0.05882353;stroke:none" />
      <path
         sodipodi:nodetypes="ssccsss"
         inkscape:connector-curvature="0"
         id="rect4002"
         d="m -70.097277,1021.3138 c -0.97447,0 -1.75,0.7756 -1.75,1.75 l 0,3.0782 39.6875,0 0,-3.0782 C -32.159777,1022.0894 -32.935307,1021.3138 -33.909777,1021.3138 Z"
         style="fill:#ffffff;fill-opacity:0.17318438;stroke:none" />
      <g
         transform="translate(-75.926343,-2.2359362)"
         id="g4064">
        <rect
           style="fill:#ededed;fill-opacity:1;stroke:none"
           id="rect3985"
           width="1.7704407"
           height="5.7982821"
           x="21.935621"
           y="1025.6063"
           ry="0" />
        <rect
           ry="0"
           y="1025.6063"
           x="24.29394"
           height="5.7982821"
           width="1.7704407"
           id="rect4007"
           style="fill:#ededed;fill-opacity:1;stroke:none" />
        <path
           style="fill:#ffffff;fill-opacity:1;stroke:none"
           d="m 21.935842,1025.6122 0,2.75 1.77,0 0,-2.75 L 21.935842,1025.6122 Z"
           id="path4037"
           inkscape:connector-curvature="0" />
        <path
           style="fill:#ffffff;fill-opacity:1;stroke:none"
           d="m 24.29416,1025.6122 0,2.75 1.77,0 0,-2.75 L 24.29416,1025.6122 Z"
           id="rect4022"
           inkscape:connector-curvature="0" />
      </g>
      <g
         transform="translate(-75.926343,-2.2359362)"
         id="g4048">
        <path
           sodipodi:type="star"
           style="fill:#ededed;fill-opacity:1;stroke:none"
           id="path4030"
           sodipodi:sides="3"
           sodipodi:cx="29.12396"
           sodipodi:cy="24.002563"
           sodipodi:r1="2.5329854"
           sodipodi:r2="1.2664928"
           sodipodi:arg1="0"
           sodipodi:arg2="1.0471976"
           inkscape:flatsided="true"
           inkscape:rounded="0"
           inkscape:randomized="0"
           d="M 31.656946,24.002563 27.857468,26.196193 27.857468,21.808934 Z"
           transform="translate(2.2097087,1004.3596)"
           inkscape:transform-center-x="-0.63324638" />
        <path
           inkscape:connector-curvature="0"
           style="fill:#ffffff;fill-opacity:1;stroke:none"
           d="m 30.0625,21.8125 0,2.1875 3.8125,0 L 30.0625,21.8125 Z"
           transform="translate(0,1004.3622)"
           id="path4039" />
        <rect
           style="fill:#ededed;fill-opacity:1;stroke:none"
           id="rect4044"
           width="1.7704407"
           height="4.781816"
           x="34.012691"
           y="1026.1145"
           ry="0" />
        <path
           inkscape:connector-curvature="0"
           id="path4046"
           d="m 34.01291,1026.1194 0,2.2679 1.77,0 0,-2.2679 L 34.01291,1026.1194 Z"
           style="fill:#ffffff;fill-opacity:1;stroke:none" />
      </g>
      <g
         transform="matrix(-1,0,0,1,-28.080711,-2.2359362)"
         id="g4054">
        <path
           inkscape:transform-center-x="-0.63324638"
           transform="translate(2.2097087,1004.3596)"
           d="M 31.656946,24.002563 27.857468,26.196193 27.857468,21.808934 Z"
           inkscape:randomized="0"
           inkscape:rounded="0"
           inkscape:flatsided="true"
           sodipodi:arg2="1.0471976"
           sodipodi:arg1="0"
           sodipodi:r2="1.2664928"
           sodipodi:r1="2.5329854"
           sodipodi:cy="24.002563"
           sodipodi:cx="29.12396"
           sodipodi:sides="3"
           id="path4056"
           style="fill:#ededed;fill-opacity:1;stroke:none"
           sodipodi:type="star" />
        <path
           inkscape:connector-curvature="0"
           id="path4058"
           transform="translate(0,1004.3622)"
           d="m 30.0625,21.8125 0,2.1875 3.8125,0 L 30.0625,21.8125 Z"
           style="fill:#ffffff;fill-opacity:1;stroke:none" />
        <rect
           ry="0"
           y="1026.1145"
           x="34.012691"
           height="4.781816"
           width="1.7704407"
           id="rect4060"
           style="fill:#ededed;fill-opacity:1;stroke:none" />
        <path
           style="fill:#ffffff;fill-opacity:1;stroke:none"
           d="m 34.01291,1026.1194 0,2.2679 1.77,0 0,-2.2679 L 34.01291,1026.1194 Z"
           id="path4062"
           inkscape:connector-curvature="0" />
      </g>
      <rect
         ry="2.0625"
         y="1048.5687"
         x="-71.128525"
         height="4.125"
         width="39"
         id="rect4070"
         style="fill:url(#linearGradient4078);fill-opacity:1;stroke:none" />
      <path
         inkscape:connector-curvature="0"
         id="rect4080"
         d="m -69.066027,1048.5687 c -0.571312,0 -1.095953,0.221 -1.46875,0.5938 l 37.8125,0 c -0.372797,-0.3728 -0.897437,-0.5938 -1.46875,-0.5938 L -69.066027,1048.5687 Z"
         style="fill:url(#linearGradient4084);fill-opacity:1;stroke:none" />
      <path
         inkscape:connector-curvature="0"
         id="rect4087"
         d="m -71.097277,1050.8812 c 0.127239,1.0188 0.976842,1.8125 2.03125,1.8125 l 34.875,0 c 1.054408,0 1.904011,-0.7937 2.03125,-1.8125 -0.191692,0.9416 -1.031453,1.6563 -2.03125,1.6563 l -34.875,0 C -70.065824,1052.5375 -70.905585,1051.8228 -71.097277,1050.8812 Z"
         style="fill:#000000;fill-opacity:1;stroke:none" />
      <path
         inkscape:connector-curvature="0"
         id="rect4095"
         d="m -71.128527,1050.7603 c -0.0027,0.043 0,0.081 0,0.125 0,1.1426 0.919875,2.0625 2.0625,2.0625 l 34.875,0 c 1.142625,0 2.0625,-0.9199 2.0625,-2.0625 0,-0.044 0.0027,-0.082 0,-0.125 -0.06667,1.0816 -0.963564,1.9375 -2.0625,1.9375 l -34.875,0 C -70.164963,1052.6978 -71.061853,1051.8419 -71.128527,1050.7603 Z"
         style="fill:#ffffff;fill-opacity:0.47486034;stroke:none" />
      <path
         transform="matrix(0.75796178,0,0,0.75796178,-66.450581,1020.3009)"
         d="m 39.46875,40.015625 c 0,1.354824 -1.098301,2.453125 -2.453125,2.453125 -1.354824,0 -2.453125,-1.098301 -2.453125,-2.453125 0,-1.354824 1.098301,-2.453125 2.453125,-2.453125 C 38.370449,37.5625 39.46875,38.660801 39.46875,40.015625 Z"
         sodipodi:ry="2.453125"
         sodipodi:rx="2.453125"
         sodipodi:cy="40.015625"
         sodipodi:cx="37.015625"
         id="path4100"
         style="fill:#000000;fill-opacity:0.47486034;stroke:none"
         sodipodi:type="arc" />
      <path
         sodipodi:type="arc"
         style="fill:url(#linearGradient4110);fill-opacity:1;stroke:none"
         id="path4102"
         sodipodi:cx="37.015625"
         sodipodi:cy="40.015625"
         sodipodi:rx="2.453125"
         sodipodi:ry="2.453125"
         d="m 39.46875,40.015625 c 0,1.354824 -1.098301,2.453125 -2.453125,2.453125 -1.354824,0 -2.453125,-1.098301 -2.453125,-2.453125 0,-1.354824 1.098301,-2.453125 2.453125,-2.453125 C 38.370449,37.5625 39.46875,38.660801 39.46875,40.015625 Z"
         transform="matrix(0.68589995,0,0,0.68589995,-63.783167,1023.1845)" />
      <path
         inkscape:connector-curvature="0"
         id="path4118"
         d="m -38.378527,1048.9437 c -0.929273,0 -1.6875,0.7582 -1.6875,1.6875 0,0.042 -0.003,0.084 0,0.125 0.04858,-0.8857 0.789647,-1.5937 1.6875,-1.5937 0.897853,0 1.607668,0.708 1.65625,1.5937 0.003,-0.041 0,-0.083 0,-0.125 C -36.722277,1049.7019 -37.449254,1048.9437 -38.378527,1048.9437 Z"
         style="fill:#ffffff;fill-opacity:0.5372549;stroke:none" />
    </g>
  </g>
</svg>
