<?xml version="1.0" encoding="UTF-8" standalone="no"?>
<!-- Created with Inkscape (http://www.inkscape.org/) -->

<svg
   xmlns:dc="http://purl.org/dc/elements/1.1/"
   xmlns:cc="http://creativecommons.org/ns#"
   xmlns:rdf="http://www.w3.org/1999/02/22-rdf-syntax-ns#"
   xmlns:svg="http://www.w3.org/2000/svg"
   xmlns="http://www.w3.org/2000/svg"
   xmlns:xlink="http://www.w3.org/1999/xlink"
   xmlns:sodipodi="http://sodipodi.sourceforge.net/DTD/sodipodi-0.dtd"
   xmlns:inkscape="http://www.inkscape.org/namespaces/inkscape"
   width="48"
   height="48"
   id="svg2"
   version="1.1"
   inkscape:version="0.48+devel r12130"
   sodipodi:docname="gnome-do.svg">
  <defs
     id="defs4">
    <linearGradient
       inkscape:collect="always"
       id="linearGradient844">
      <stop
         style="stop-color:#e5e5e5;stop-opacity:1"
         offset="0"
         id="stop846" />
      <stop
         style="stop-color:#fdfdfd;stop-opacity:1"
         offset="1"
         id="stop848" />
    </linearGradient>
    <linearGradient
       inkscape:collect="always"
       xlink:href="#linearGradient844"
       id="linearGradient875"
       x1="24.451389"
       y1="1050.1608"
       x2="24.451389"
       y2="1005.9733"
       gradientUnits="userSpaceOnUse" />
  </defs>
  <sodipodi:namedview
     id="base"
     pagecolor="#ffffff"
     bordercolor="#666666"
     borderopacity="1.0"
     inkscape:pageopacity="0.0"
     inkscape:pageshadow="2"
     inkscape:zoom="5.5384618"
     inkscape:cx="-13.211376"
     inkscape:cy="19.954485"
     inkscape:document-units="px"
     inkscape:current-layer="layer1"
     showgrid="false"
     inkscape:window-width="1366"
     inkscape:window-height="717"
     inkscape:window-x="0"
     inkscape:window-y="28"
     inkscape:window-maximized="1" />
  <metadata
     id="metadata7">
    <rdf:RDF>
      <cc:Work
         rdf:about="">
        <dc:format>image/svg+xml</dc:format>
        <dc:type
           rdf:resource="http://purl.org/dc/dcmitype/StillImage" />
        <dc:title />
      </cc:Work>
    </rdf:RDF>
  </metadata>
  <g
     inkscape:label="Capa 1"
     inkscape:groupmode="layer"
     id="layer1"
     transform="translate(0,-1004.3622)">
    <rect
       style="color:#000000;fill:#333333;fill-opacity:1;fill-rule:nonzero;stroke:none;stroke-width:0.2;marker:none;visibility:visible;display:inline;overflow:visible;enable-background:accumulate"
       id="rect6294"
       width="45.5"
       height="45.5"
       x="1.25"
       y="1005.6122"
       ry="6.3565426" />
    <rect
       ry="5.8565426"
       y="1006.1122"
       x="1.75"
       height="44.5"
       width="44.5"
       id="rect6296"
       style="color:#000000;fill:url(#linearGradient875);fill-opacity:1;fill-rule:nonzero;stroke:none;stroke-width:0.2;marker:none;visibility:visible;display:inline;overflow:visible;enable-background:accumulate" />
    <path
       id="path6361"
       d="m 1.7500034,1012.5497 0,-0.5625 c 0,-3.2445 2.5992,-5.875 5.8438,-5.875 l 32.8125006,0 c 3.2445,0 5.8437,2.6305 5.8437,5.875 l 0,0.5625 c 0,-3.2445 -2.5992,-5.875 -5.8437,-5.875 l -32.8125006,0 C 4.3492034,1006.6747 1.7500034,1009.3052 1.7500034,1012.5497 Z"
       style="color:#000000;fill:#ffffff;fill-opacity:1;fill-rule:nonzero;stroke:none;stroke-width:0.2;marker:none;visibility:visible;display:inline;overflow:visible;enable-background:accumulate"
       inkscape:connector-curvature="0" />
    <path
       inkscape:connector-curvature="0"
       style="color:#000000;fill:#000000;fill-opacity:1;fill-rule:nonzero;stroke:none;stroke-width:0.2;marker:none;visibility:visible;display:inline;overflow:visible;enable-background:accumulate"
       d="m 1.7500034,1044.1747 0,0.5625 c 0,3.2445 2.5992,5.875 5.8438,5.875 l 32.8125006,0 c 3.2445,0 5.8437,-2.6305 5.8437,-5.875 l 0,-0.5625 c 0,3.2445 -2.5992,5.875 -5.8437,5.875 l -32.8125006,0 C 4.3492034,1050.0497 1.7500034,1047.4192 1.7500034,1044.1747 Z"
       id="path6388" />
    <path
       style="fill:#6a6f72;fill-opacity:1"
       d="m 18.252917,1013.3622 -0.202159,0.2599 c -0.110803,0.143 -0.382378,0.4126 -0.577596,0.6064 -0.296091,0.2941 -0.376243,0.3466 -0.577598,0.3466 -0.20134,0 -0.307499,-0.063 -0.635354,-0.3754 -0.216176,-0.2062 -0.463018,-0.4795 -0.548717,-0.6065 -0.181054,-0.2686 -0.236616,-0.2622 -0.953033,0.058 -0.321278,0.1437 -0.457617,0.254 -0.433197,0.3177 0.01957,0.051 0.06294,0.3528 0.08664,0.6931 0.03371,0.4838 0.02408,0.6714 -0.05776,0.8664 -0.03332,0.08 -0.07004,0.1553 -0.115519,0.2022 -0.04548,0.047 -0.08894,0.066 -0.173279,0.086 -0.168679,0.042 -0.468677,0.051 -0.953033,0.029 l -0.750876,-0.029 -0.202159,0.4909 c -0.112159,0.2694 -0.202159,0.5254 -0.202159,0.5776 0,0.052 0.177124,0.252 0.404318,0.4332 0.500669,0.3991 0.808635,0.7804 0.808635,1.0396 0,0.2212 -0.369763,0.639 -0.895274,1.0397 -0.181108,0.1382 -0.317678,0.2963 -0.317678,0.3466 0,0.051 0.08857,0.3048 0.202159,0.5776 l 0.202158,0.491 0.779755,-0.029 c 1.238594,-0.067 1.350817,0.061 1.270713,1.2996 l -0.02887,0.6931 0.259918,0.1443 c 0.52075,0.266 0.924154,0.3984 0.924154,0.2889 0,-0.048 0.187407,-0.2772 0.375437,-0.491 0.188029,-0.2137 0.402971,-0.4345 0.519837,-0.5198 0.127171,-0.093 0.307994,-0.1733 0.404316,-0.1733 0.239811,0 0.649801,0.3225 1.039673,0.8086 0.09269,0.1156 0.139446,0.2003 0.202158,0.26 0.06271,0.06 0.13393,0.1075 0.202159,0.1155 0.136458,0.016 0.321618,-0.065 0.693115,-0.231 0.372759,-0.1668 0.407214,-0.215 0.375438,-0.3466 -0.09505,-0.3936 -0.100238,-1.1213 -0.02888,-1.3862 0.123467,-0.4585 0.264823,-0.5097 1.212952,-0.4621 0.915444,0.046 0.812351,0.093 1.097434,-0.6642 l 0.144399,-0.4044 -0.490957,-0.4332 c -0.591874,-0.4896 -0.78296,-0.791 -0.721995,-1.0685 0.04085,-0.186 0.745808,-0.9293 1.097432,-1.1552 0.147948,-0.095 0.149229,-0.089 0.05776,-0.3465 -0.0525,-0.1479 -0.181522,-0.4114 -0.259919,-0.5776 l -0.144399,-0.3177 -0.866394,0 c -0.287757,0 -0.506157,0.014 -0.664236,0 -0.07904,-0.01 -0.119427,-0.011 -0.173279,-0.029 -0.269257,-0.09 -0.25877,-0.3688 -0.259917,-1.0974 l 0,-0.8665 -0.577597,-0.231 L 18.252917,1013.3622 z m -1.386231,3.0035 c 0.421354,0 0.547198,0.046 0.866394,0.2021 0.705836,0.3467 1.093885,0.9335 1.097433,1.7328 0.0066,1.4862 -1.506332,2.4522 -2.830222,1.7905 -0.734235,-0.3668 -1.098696,-0.9687 -1.097432,-1.8194 2.04e-4,-0.1409 0.0322,-0.2483 0.05776,-0.3754 0.02556,-0.1271 0.06361,-0.26 0.115518,-0.3754 0.103826,-0.2309 0.246798,-0.4378 0.462078,-0.6354 0.10765,-0.099 0.221381,-0.194 0.317678,-0.26 C 16.144781,1016.4279 16.41367,1016.3701 16.866686,1016.3657 z m 11.667441,5.8625 -0.404318,0.5488 c -0.232277,0.2999 -0.774834,0.8931 -1.184071,1.2996 -0.620698,0.6163 -0.819732,0.722 -1.241832,0.722 -0.422073,0 -0.641182,-0.1242 -1.328471,-0.7798 -0.45317,-0.4322 -0.975541,-1.0043 -1.155192,-1.2707 -0.379547,-0.5629 -0.461995,-0.556 -1.963826,0.1155 -0.336751,0.1506 -0.573187,0.2715 -0.721996,0.3755 -0.148809,0.1039 -0.198873,0.1932 -0.173278,0.2599 0.04102,0.1069 0.123577,0.7597 0.173278,1.4728 0.07068,1.0143 0.02715,1.4106 -0.144399,1.8194 -0.27937,0.666 -0.53958,0.7539 -2.570303,0.6643 l -1.588389,-0.086 -0.433197,1.0397 c -0.235123,0.5648 -0.433197,1.1036 -0.433197,1.2129 0,0.1096 0.390127,0.5156 0.866394,0.8954 1.04956,0.8367 1.675029,1.6515 1.675029,2.1948 0,0.4637 -0.746675,1.3259 -1.848306,2.166 -0.37966,0.2896 -0.693117,0.6163 -0.693117,0.722 0,0.1056 0.195082,0.6698 0.433197,1.2418 l 0.433197,1.0397 1.588389,-0.086 c 2.596474,-0.1395 2.882627,0.1174 2.714702,2.7147 l -0.115518,1.4439 0.606476,0.3177 c 1.09163,0.5578 1.934945,0.8072 1.934945,0.5776 0,-0.05 0.09854,-0.171 0.23104,-0.3466 0.397505,-0.5267 1.220911,-1.4645 1.588388,-1.7327 0.266593,-0.1946 0.664475,-0.3466 0.866394,-0.3466 0.502719,0 1.348695,0.656 2.165986,1.675 0.291465,0.3635 0.472319,0.5884 0.664236,0.6932 0.06397,0.035 0.130644,0.05 0.202158,0.058 0.07151,0.01 0.142681,0.017 0.231039,0 0.08836,-0.017 0.203177,-0.045 0.317677,-0.086 0.229003,-0.084 0.505889,-0.2012 0.895274,-0.3754 0.781417,-0.3495 0.875248,-0.4462 0.808635,-0.722 -0.199249,-0.8251 -0.236222,-2.3326 -0.08664,-2.8881 0.258825,-0.9611 0.553852,-1.0817 2.541425,-0.9818 1.919055,0.096 1.712761,0.2016 2.310384,-1.3863 l 0.346558,-0.8663 -1.039674,-0.8665 c -1.240753,-1.0262 -1.687311,-1.6707 -1.55951,-2.2526 0.08563,-0.3898 1.57327,-1.9522 2.310386,-2.4259 0.232608,-0.1494 0.295949,-0.1872 0.231037,-0.4332 -0.02164,-0.082 -0.06759,-0.1828 -0.11552,-0.3176 -0.11005,-0.3097 -0.326613,-0.8644 -0.490956,-1.213 l -0.317678,-0.6354 -1.819428,0 c -0.603224,0 -1.054849,0 -1.386231,-0.029 -0.165691,-0.015 -0.291428,-0.02 -0.404318,-0.058 -0.112888,-0.037 -0.189724,-0.1023 -0.259917,-0.1732 -0.280778,-0.2838 -0.257994,-0.8576 -0.259918,-2.0794 l -0.02889,-1.8483 -1.184072,-0.491 L 28.534127,1022.2282 z m -2.887981,6.3247 c 0.883289,-0.01 1.179175,0.047 1.848308,0.3755 1.479651,0.7265 2.274069,2.0208 2.281505,3.6966 0.01382,3.1154 -3.173955,5.0833 -5.94924,3.6966 -1.539186,-0.7691 -2.255276,-1.971 -2.252625,-3.7543 0.0017,-1.1819 0.397006,-2.1173 1.299591,-2.9458 0.225673,-0.2072 0.433489,-0.3817 0.635356,-0.5199 C 24.114642,1028.6872 24.696485,1028.5623 25.646146,1028.5529 Z"
       id="path907"
       inkscape:connector-curvature="0" />
    <g
       style="fill:#6a6f72;fill-opacity:1"
       transform="matrix(0.46910911,0.09794096,-0.09794096,0.46910911,40.876655,542.48908)"
       inkscape:label="Capa 1"
       id="g854" />
    <path
       style="fill:#ffffff;fill-opacity:0.72067039"
       d="m 14.383023,1014.3397 c -0.0189,0.025 -0.0646,0.039 -0.05776,0.057 0.01957,0.051 0.06294,0.3529 0.08664,0.6931 0.0053,0.076 -0.0031,0.1106 0,0.1734 0.02133,-0.1465 0.02153,-0.3266 0,-0.6354 C 14.402056,1014.4871 14.39654,1014.4526 14.383023,1014.3397 z m 2.483663,1.9927 c -0.453016,0 -0.721905,0.062 -1.010793,0.26 -0.0963,0.066 -0.210027,0.161 -0.317678,0.2598 -0.21528,0.1978 -0.358252,0.4046 -0.462077,0.6354 -0.05191,0.1154 -0.08996,0.2484 -0.115519,0.3754 -0.02556,0.1271 -0.05755,0.2345 -0.05776,0.3754 -1.58e-4,0.1064 0.01761,0.1903 0.02887,0.2889 0.01152,-0.065 0.01514,-0.1338 0.02889,-0.2022 0.02556,-0.127 0.06361,-0.26 0.115519,-0.3754 0.103825,-0.2308 0.246797,-0.4377 0.462077,-0.6354 0.107651,-0.099 0.221381,-0.1939 0.317678,-0.2598 0.288888,-0.1978 0.557777,-0.2556 1.010793,-0.26 0.421354,0 0.547198,0.046 0.866394,0.2022 0.640976,0.3147 1.001672,0.8404 1.068553,1.5306 0.01104,-0.089 0.02929,-0.167 0.02888,-0.2599 -0.0035,-0.7993 -0.391597,-1.3862 -1.097433,-1.7328 C 17.413884,1016.3786 17.28804,1016.3324 16.866686,1016.3324 z m -4.794048,0.6931 c -0.03753,0.1068 -0.115519,0.2623 -0.115519,0.2888 0,0.052 0.177124,0.252 0.404317,0.4332 0.358971,0.2863 0.603631,0.5792 0.721996,0.8086 0.05356,-0.089 0.08663,-0.1689 0.08663,-0.231 0,-0.2592 -0.307965,-0.6405 -0.808635,-1.0396 C 12.247839,1017.1948 12.145319,1017.1047 12.072638,1017.0255 z m 9.616975,0 c -0.351625,0.2259 -1.056585,0.9692 -1.097432,1.1552 -0.02357,0.1073 -0.0026,0.2226 0.05776,0.3466 0.16175,-0.2668 0.729531,-0.8404 1.039672,-1.0397 0.147949,-0.095 0.149229,-0.089 0.05776,-0.3466 C 21.736676,1017.111 21.705587,1017.0635 21.689613,1017.0255 z m -9.616975,2.9747 c -0.0709,0.075 -0.115519,0.1447 -0.115519,0.1732 0,0.051 0.08858,0.3048 0.202159,0.5776 l 0.202158,0.491 0.779755,-0.029 c 0.928944,-0.05 1.214884,0.023 1.270711,0.5776 0.03451,-0.9518 -0.143592,-1.1001 -1.270711,-1.0397 l -0.779755,0.029 -0.202158,-0.4909 C 12.103369,1020.1547 12.108847,1020.1033 12.072638,1020.0002 z m 9.616975,0.029 -0.02888,0.057 c -0.285083,0.7573 -0.181989,0.7105 -1.097433,0.6642 -0.948129,-0.047 -1.089485,0 -1.212952,0.4621 -0.04531,0.1683 -0.04871,0.5001 -0.02888,0.8375 0.0074,-0.1382 0.0079,-0.2972 0.02888,-0.3754 0.123467,-0.4584 0.264823,-0.5096 1.212952,-0.4621 0.915444,0.046 0.81235,0.093 1.097433,-0.6642 l 0.144399,-0.4037 L 21.689613,1020.0291 z m -4.822927,1.9638 c -0.09632,0 -0.277145,0.081 -0.404317,0.1733 -0.116865,0.085 -0.331807,0.3061 -0.519837,0.5198 -0.18803,0.2138 -0.375437,0.443 -0.375437,0.4911 0,0.1095 -0.403404,-0.024 -0.924154,-0.2889 l -0.231039,-0.1444 -0.02887,0.4621 0.259919,0.1444 c 0.52075,0.2659 0.924153,0.3984 0.924153,0.2888 0,-0.047 0.187408,-0.2771 0.375438,-0.491 0.18803,-0.2137 0.402971,-0.4345 0.519836,-0.5198 0.127171,-0.093 0.307995,-0.1733 0.404317,-0.1733 0.23981,0 0.649802,0.3225 1.039673,0.8086 0.09269,0.1156 0.139446,0.2003 0.202158,0.26 0.06271,0.06 0.13393,0.1076 0.202159,0.1155 0.136459,0.016 0.321618,-0.065 0.693115,-0.231 0.372759,-0.1667 0.407214,-0.215 0.375438,-0.3466 -0.01824,-0.076 -0.01717,-0.1943 -0.02888,-0.2888 -0.05123,0.049 -0.16018,0.09 -0.346559,0.1733 -0.371497,0.1664 -0.556657,0.2467 -0.693115,0.2311 -0.06823,-0.01 -0.139446,-0.056 -0.202159,-0.1156 -0.06271,-0.06 -0.109466,-0.1443 -0.202158,-0.26 C 17.516487,1022.3153 17.106497,1021.9928 16.866686,1021.9928 z m 3.552216,1.7906 c -0.0441,0.054 -0.07312,0.1044 -0.05776,0.1444 0.04102,0.1069 0.123577,0.7597 0.173278,1.4728 -0.0048,-0.1613 0.01449,-0.2541 0,-0.4621 C 20.499943,1024.4438 20.460167,1024.058 20.418902,1023.7834 z m 5.227244,4.7363 c -0.949661,0.01 -1.531504,0.1343 -2.137105,0.5487 -0.201867,0.1381 -0.409683,0.3126 -0.635356,0.5199 -0.902585,0.8284 -1.297928,1.7638 -1.299591,2.9457 -1.67e-4,0.1116 0.02338,0.2106 0.02888,0.3176 0.03458,-1.1101 0.407414,-2.0088 1.270711,-2.8012 0.225672,-0.2072 0.433489,-0.3817 0.635356,-0.5199 0.6056,-0.4144 1.187443,-0.5393 2.137104,-0.5488 0.88329,-0.01 1.179175,0.047 1.848309,0.3756 1.409349,0.6919 2.203412,1.9042 2.281505,3.4655 0.0036,-0.076 3.45e-4,-0.1533 0,-0.2311 -0.0074,-1.6757 -0.801854,-2.97 -2.281505,-3.6965 C 26.825321,1028.5668 26.529435,1028.5104 25.646146,1028.5197 z m -10.19457,1.242 c -0.03864,0.1185 -0.08664,0.252 -0.08664,0.2888 0,0.1096 0.390127,0.5155 0.866394,0.8953 0.892126,0.7112 1.490506,1.4087 1.64615,1.935 0.02257,-0.069 0.02887,-0.1442 0.02887,-0.2022 0,-0.5433 -0.62547,-1.3582 -1.675029,-2.1949 C 15.891139,1030.2123 15.593086,1029.9419 15.451576,1029.7615 z m 20.475781,0.087 c -0.04178,0.039 -0.08954,0.062 -0.173278,0.1155 -0.737116,0.4737 -2.224753,2.0361 -2.310385,2.4259 -0.03008,0.1369 -0.0075,0.2852 0.02888,0.4333 0.141937,-0.4299 1.560276,-1.9336 2.281505,-2.3971 0.232609,-0.1495 0.295951,-0.1871 0.231038,-0.4331 C 35.975167,1029.9548 35.945417,1029.8954 35.927357,1029.8482 z m -0.02888,6.0069 -0.20216,0.5199 c -0.597621,1.5878 -0.391329,1.4827 -2.310384,1.3863 -1.987572,-0.1 -2.282599,0.021 -2.541423,0.9819 -0.06041,0.2243 -0.08548,0.6125 -0.08664,1.0396 0.01446,-0.2323 0.04924,-0.4387 0.08664,-0.5776 0.258824,-0.9612 0.553851,-1.0818 2.541423,-0.9818 1.919055,0.096 1.712764,0.2015 2.310384,-1.3863 l 0.346564,-0.867 L 35.898477,1035.8551 z m -20.446902,0.057 c -0.02415,0.037 -0.08664,0.094 -0.08664,0.1155 0,0.1056 0.195081,0.67 0.433198,1.2419 l 0.433197,1.0396 1.588389,-0.087 c 2.173322,-0.1166 2.71899,0.068 2.743581,1.6462 0.06771,-2.0095 -0.374408,-2.2354 -2.743581,-2.1083 l -1.588389,0.087 -0.433197,-1.0397 C 15.654868,1036.4641 15.530569,1036.1533 15.451576,1035.9129 z m 10.194571,4.4764 c -0.201919,0 -0.599801,0.1521 -0.866395,0.3466 -0.367476,0.2681 -1.190884,1.206 -1.588389,1.7328 -0.132501,0.1755 -0.231038,0.2966 -0.231038,0.3465 0,0.2297 -0.843317,-0.02 -1.934947,-0.5776 l -0.577596,-0.2888 -0.02888,0.4332 0.606475,0.3177 c 1.09163,0.5578 1.934947,0.8073 1.934947,0.5776 0,-0.05 0.09854,-0.171 0.231039,-0.3466 0.397505,-0.5267 1.220912,-1.4646 1.588389,-1.7328 0.266593,-0.1945 0.664475,-0.3465 0.866394,-0.3465 0.502719,0 1.348694,0.6561 2.165985,1.675 0.291465,0.3634 0.472319,0.5883 0.664237,0.6931 0.06396,0.035 0.130644,0.049 0.202158,0.057 0.07151,0.01 0.142681,0.017 0.231038,0 0.08836,-0.018 0.203177,-0.045 0.317678,-0.087 0.229002,-0.083 0.505889,-0.2012 0.895274,-0.3754 0.781416,-0.3495 0.875247,-0.4462 0.808635,-0.722 -0.01585,-0.066 -0.01509,-0.1576 -0.02888,-0.2311 -0.06594,0.1363 -0.25881,0.258 -0.779755,0.4911 -0.389385,0.174 -0.666271,0.2922 -0.895274,0.3753 -0.1145,0.041 -0.229319,0.069 -0.317677,0.087 -0.08836,0.018 -0.159528,0.01 -0.231039,0 -0.07151,-0.01 -0.138189,-0.023 -0.202158,-0.057 -0.191918,-0.1048 -0.372772,-0.3297 -0.664236,-0.6931 C 26.99484,1041.0454 26.148865,1040.3893 25.646146,1040.3893 Z"
       id="path903"
       inkscape:connector-curvature="0" />
    <path
       style="fill:#000000;fill-opacity:0.31284916"
       d="m 18.252917,1013.3622 -0.202159,0.2599 c -0.110803,0.143 -0.382378,0.4126 -0.577596,0.6064 -0.296091,0.2941 -0.376243,0.3466 -0.577598,0.3466 -0.20134,0 -0.307499,-0.063 -0.635354,-0.3754 -0.216176,-0.2062 -0.463018,-0.4795 -0.548717,-0.6065 -0.181054,-0.2686 -0.236616,-0.2622 -0.953033,0.058 -0.321278,0.1437 -0.457617,0.254 -0.433197,0.3177 0.0066,0.017 0.01868,0.1662 0.02887,0.231 0.01812,-0.066 0.128018,-0.1651 0.404317,-0.2887 0.716418,-0.3195 0.77198,-0.3263 0.953034,-0.058 0.0857,0.1271 0.332541,0.4003 0.548716,0.6065 0.327855,0.3134 0.434013,0.3754 0.635356,0.3754 0.201353,0 0.281505,-0.053 0.577596,-0.3465 0.195219,-0.194 0.466793,-0.4635 0.577596,-0.6065 l 0.202159,-0.2599 0.548717,0.231 0.577596,0.2311 0,-0.26 -0.577596,-0.231 L 18.252917,1013.3622 z m -3.812135,1.8772 c -0.01,0.1152 -0.04918,0.1995 -0.08664,0.2887 -0.03332,0.08 -0.07004,0.1554 -0.115519,0.2022 -0.04548,0.047 -0.08894,0.066 -0.173279,0.086 -0.168678,0.042 -0.468676,0.051 -0.953033,0.029 l -0.750876,-0.029 -0.202157,0.4909 c -0.112159,0.2694 -0.202159,0.5254 -0.202159,0.5776 0,0.013 0.0376,0.058 0.05776,0.086 0.03345,-0.1101 0.06571,-0.2154 0.144399,-0.4044 l 0.202157,-0.4909 0.750876,0.029 c 0.484358,0.022 0.784355,0.013 0.953033,-0.029 0.08434,-0.022 0.127801,-0.039 0.173279,-0.086 0.04548,-0.047 0.0822,-0.1226 0.115519,-0.2021 C 14.412241,1015.6496 14.44514,1015.479 14.440782,1015.2394 z m 4.967327,0.231 c 0.0172,0.3048 0.0516,0.5173 0.231038,0.5776 0.05385,0.018 0.09424,0.02 0.173279,0.029 0.158079,0.014 0.376479,0 0.664235,0 l 0.866395,0 0.144398,0.3177 c 0.07839,0.1663 0.207418,0.4299 0.259919,0.5776 0.04231,-0.046 0.06289,-0.083 0,-0.2598 -0.0525,-0.1479 -0.181522,-0.4114 -0.259919,-0.5776 l -0.144398,-0.3178 -0.866395,0 c -0.287756,0 -0.506155,0.014 -0.664235,0 -0.07904,-0.01 -0.119427,-0.011 -0.173279,-0.029 C 19.504519,1015.7429 19.439288,1015.6424 19.408109,1015.4704 z m -4.47637,2.9458 c -0.0051,0.039 -0.02882,0.071 -0.02887,0.1155 -0.0012,0.8507 0.363196,1.4524 1.097432,1.8194 1.32389,0.6616 2.836783,-0.3043 2.830222,-1.7906 -1.9e-4,-0.042 -0.02651,-0.074 -0.02888,-0.1155 -0.09443,1.3976 -1.523868,2.2846 -2.801342,1.6461 C 15.3124,1019.7474 14.973824,1019.1837 14.931739,1018.4162 z m 5.689322,0.029 c -0.0032,0.01 -0.02738,0.022 -0.02889,0.029 -0.06097,0.2775 0.130121,0.5789 0.721995,1.0686 l 0.433197,0.3753 0.05776,-0.2021 -0.490957,-0.4332 C 20.890101,1018.9317 20.688343,1018.663 20.621061,1018.445 z m -7.47987,0.058 c -0.101162,0.2338 -0.432601,0.5644 -0.866394,0.8952 -0.181108,0.1382 -0.317678,0.2962 -0.317678,0.3466 0,0.015 0.04367,0.1268 0.05776,0.1732 0.05224,-0.072 0.134741,-0.1644 0.259919,-0.2599 0.525509,-0.4007 0.895274,-0.8185 0.895274,-1.0396 C 13.170071,1018.5816 13.153199,1018.544 13.141191,1018.5028 z m 6.151398,3.4944 c -0.0053,0.2693 0.01441,0.544 0.05776,0.7797 0.0313,-0.041 0.04238,-0.088 0.02888,-0.1444 C 19.33892,1022.4657 19.301592,1022.2236 19.292589,1021.9972 z m 9.241538,0.231 -0.404318,0.5487 c -0.232277,0.2999 -0.774834,0.8932 -1.184071,1.2997 -0.620698,0.6163 -0.819732,0.7219 -1.241832,0.7219 -0.422073,0 -0.641182,-0.1242 -1.328471,-0.7798 -0.45317,-0.4322 -0.975541,-1.0042 -1.155192,-1.2707 -0.379547,-0.5628 -0.461995,-0.5559 -1.963826,0.1155 -0.336751,0.1507 -0.573187,0.2715 -0.721996,0.3755 -0.148809,0.104 -0.198873,0.1932 -0.173278,0.26 0.0057,0.015 0.02173,0.1095 0.02888,0.1444 0.02792,-0.044 0.06999,-0.093 0.144399,-0.1444 0.148809,-0.1039 0.385245,-0.2249 0.721995,-0.3755 1.501832,-0.6715 1.58428,-0.6785 1.963826,-0.1155 0.179652,0.2665 0.702023,0.8384 1.155193,1.2707 0.687288,0.6556 0.906397,0.7797 1.328471,0.7797 0.4221,0 0.621133,-0.1056 1.241832,-0.7219 0.409237,-0.4065 0.951794,-0.9998 1.184071,-1.2996 l 0.404318,-0.5487 1.184072,0.4909 1.184072,0.4909 0,-0.2599 L 29.7182,1022.7196 28.534127,1022.2282 z m -7.970826,3.8988 c -0.0248,0.2612 -0.09073,0.4675 -0.173279,0.6642 -0.279371,0.6659 -0.53958,0.7539 -2.570303,0.6642 l -1.588389,-0.086 -0.433197,1.0397 c -0.235123,0.5647 -0.433197,1.1036 -0.433197,1.2129 0,0.021 0.0029,0.076 0.02887,0.1156 0.05067,-0.2002 0.207731,-0.5964 0.404318,-1.0686 l 0.433196,-1.0397 1.588389,0.086 c 2.030723,0.09 2.290932,0 2.570304,-0.6642 C 20.493381,1026.8048 20.549865,1026.5022 20.563301,1026.127 z m 10.39673,0.3177 c 0.02139,0.4479 0.06434,0.7846 0.231039,0.953 0.07019,0.071 0.147029,0.1354 0.259917,0.1733 0.112889,0.037 0.238627,0.043 0.404318,0.058 0.331381,0.029 0.783004,0.029 1.38623,0.029 l 1.819428,0 0.317678,0.6354 c 0.164342,0.3485 0.380907,0.9033 0.490957,1.2129 0.04793,0.1349 0.09389,0.2354 0.115518,0.3177 0.0368,-0.059 0.03246,-0.137 0,-0.26 -0.02164,-0.082 -0.06758,-0.1828 -0.115518,-0.3176 -0.11005,-0.3096 -0.326615,-0.8644 -0.490957,-1.2129 l -0.317678,-0.6355 -1.819428,0 c -0.603226,0 -1.054849,0 -1.38623,-0.029 -0.165691,-0.015 -0.291429,-0.02 -0.404318,-0.058 -0.112888,-0.037 -0.189724,-0.1023 -0.259917,-0.1733 C 31.050681,1026.996 30.989673,1026.7763 30.960031,1026.4447 z m 2.483663,6.2958 c -0.08941,0.5679 0.356934,1.2002 1.559509,2.1949 l 0.953034,0.8086 0.08664,-0.2022 -1.039674,-0.8664 C 33.976845,1033.8265 33.5076,1033.2476 33.443694,1032.7405 z m -15.566215,0.086 c -0.09851,0.4817 -0.797663,1.2714 -1.819427,2.0505 -0.37966,0.2896 -0.693116,0.6164 -0.693116,0.722 0,0.024 0.03828,0.1328 0.05776,0.2021 0.06052,-0.1352 0.299014,-0.4076 0.635357,-0.6642 1.101632,-0.8401 1.848307,-1.7022 1.848307,-2.166 C 17.906359,1032.9227 17.887465,1032.8803 17.877479,1032.8272 z m 3.725495,0.3755 c 0.09654,1.5725 0.798411,2.6666 2.223745,3.379 2.679689,1.3389 5.724887,-0.4498 5.92036,-3.379 -0.348994,2.7781 -3.318531,4.4191 -5.92036,3.119 C 22.479931,1035.6486 21.759306,1034.6378 21.602974,1033.2026 z m 9.154898,6.9023 c 2.98e-4,0.5925 0.06755,1.2514 0.173279,1.7328 0.01164,-0.053 0.01665,-0.1044 0,-0.1733 C 30.831527,1041.2518 30.773324,1040.6543 30.757872,1040.1049 z m -10.223451,0.4043 -0.115519,1.444 0.02888,0 0.08664,-1.1841 C 20.540711,1040.6718 20.529503,1040.6 20.534421,1040.5092 Z"
       id="path911"
       inkscape:connector-curvature="0" />
    <path
       style="fill:#000000;fill-opacity:0.15868111"
       d="m 18.252917,1013.6221 -0.202159,0.2599 c -0.110803,0.143 -0.382378,0.4125 -0.577596,0.6065 -0.296091,0.294 -0.376243,0.3465 -0.577598,0.3465 -0.20134,0 -0.307499,-0.063 -0.635354,-0.3754 -0.216176,-0.2062 -0.463018,-0.4794 -0.548717,-0.6065 -0.181054,-0.2685 -0.236616,-0.2617 -0.953033,0.058 -0.276299,0.1236 -0.3862,0.223 -0.404317,0.2888 0.0102,0.065 0.01822,0.1339 0.02888,0.231 0.03695,-0.065 0.133676,-0.1518 0.375438,-0.2599 0.716417,-0.3195 0.771979,-0.3268 0.953033,-0.058 0.0857,0.127 0.332541,0.4003 0.548716,0.6064 0.327856,0.3135 0.434014,0.3755 0.635356,0.3755 0.201354,0 0.281505,-0.053 0.577596,-0.3466 0.195219,-0.1939 0.466793,-0.4634 0.577596,-0.6065 l 0.202159,-0.2598 0.548717,0.231 0.577596,0.231 0,-0.2599 -0.577596,-0.2311 L 18.252917,1013.6221 z m -3.812135,1.8771 c -0.01,0.1153 -0.04918,0.1996 -0.08664,0.2889 -0.03332,0.08 -0.07004,0.1551 -0.115519,0.2021 -0.04548,0.047 -0.08894,0.066 -0.173279,0.086 -0.168678,0.042 -0.468676,0.05 -0.953033,0.029 l -0.750876,-0.029 -0.202157,0.4909 c -0.07868,0.189 -0.110951,0.2943 -0.144399,0.4044 0.02016,0.029 0.02142,0.047 0.05776,0.086 0.02359,-0.07 0.04142,-0.1224 0.08664,-0.231 l 0.202158,-0.491 0.750875,0.029 c 0.484358,0.022 0.784356,0.013 0.953034,-0.029 0.08434,-0.022 0.127801,-0.039 0.173279,-0.086 0.04548,-0.047 0.0822,-0.1227 0.115519,-0.2022 C 14.412241,1015.9092 14.44514,1015.7389 14.440782,1015.4992 z m 4.967327,0.2311 c 0.0172,0.3049 0.0516,0.5172 0.231038,0.5776 0.05385,0.018 0.09424,0.02 0.173279,0.029 0.158079,0.014 0.376479,0 0.664235,0 l 0.866395,0 0.144398,0.3176 c 0.05444,0.1155 0.112592,0.2664 0.173279,0.4044 0.0016,0 0.02727,0 0.02889,0 0.03698,-0.024 0.03827,-0.041 0.05776,-0.058 -0.004,-0.012 0.0051,-0.014 0,-0.029 -0.0525,-0.1478 -0.181521,-0.4114 -0.259918,-0.5776 l -0.144399,-0.3177 -0.866394,0 c -0.287756,0 -0.506157,0.014 -0.664235,0 -0.07904,-0.01 -0.119428,-0.011 -0.173279,-0.029 C 19.504519,1016.0029 19.439288,1015.9023 19.408109,1015.7303 z m -4.47637,2.9457 c -0.0051,0.038 -0.02882,0.071 -0.02887,0.1155 -0.0013,0.8507 0.363196,1.4526 1.097432,1.8195 1.32389,0.6616 2.836783,-0.3044 2.830222,-1.7906 -1.9e-4,-0.042 -0.0265,-0.074 -0.02888,-0.1155 -0.0077,0.038 -0.01911,0.078 -0.02888,0.1155 -0.167485,1.3257 -1.533035,2.1501 -2.772462,1.5307 -0.633511,-0.3165 -0.957439,-0.8246 -1.039673,-1.5018 C 14.946889,1018.7945 14.941289,1018.7337 14.931739,1018.676 z m 5.689322,0.029 c -0.0033,0.01 -0.02739,0.022 -0.02889,0.029 -0.06097,0.2775 0.130121,0.5789 0.721995,1.0685 l 0.346558,0.3178 0.08664,-0.2023 -0.433197,-0.3753 C 20.890101,1019.192 20.688343,1018.9229 20.621061,1018.7049 z m -7.47987,0.058 c -0.101162,0.2338 -0.432601,0.5646 -0.866394,0.8953 -0.125178,0.096 -0.207684,0.1876 -0.259919,0.2599 0.01619,0.053 0.02776,0.1214 0.05776,0.2022 0.05156,-0.063 0.104798,-0.1279 0.202159,-0.2022 0.525509,-0.4007 0.895274,-0.8185 0.895274,-1.0397 C 13.170071,1018.8423 13.153199,1018.8039 13.141191,1018.7627 z m 6.151398,3.4945 c -0.0037,0.1893 0.0083,0.3695 0.02887,0.5487 0.0126,-0.01 0.0209,-0.018 0.02889,-0.029 C 19.319082,1022.6211 19.29993,1022.4417 19.292589,1022.2571 z m 9.241538,0.2311 -0.404318,0.5487 c -0.232277,0.2998 -0.774834,0.8931 -1.184071,1.2996 -0.620698,0.6163 -0.819732,0.7219 -1.241832,0.7219 -0.422073,0 -0.641182,-0.1241 -1.328471,-0.7797 -0.45317,-0.4323 -0.975541,-1.0042 -1.155192,-1.2707 -0.379547,-0.563 -0.461995,-0.556 -1.963826,0.1155 -0.336751,0.1507 -0.573187,0.2715 -0.721996,0.3755 -0.0744,0.052 -0.116481,0.1007 -0.144399,0.1444 0.0113,0.055 0.01535,0.1345 0.02889,0.231 0.02745,-0.037 0.056,-0.074 0.115519,-0.1155 0.148809,-0.1039 0.385245,-0.2249 0.721995,-0.3755 1.501832,-0.6714 1.58428,-0.6784 1.963826,-0.1155 0.179652,0.2664 0.702023,0.8385 1.155193,1.2707 0.687288,0.6556 0.906397,0.7798 1.328471,0.7798 0.4221,0 0.621133,-0.1058 1.241832,-0.7221 0.409237,-0.4064 0.951794,-0.9996 1.184071,-1.2995 l 0.404318,-0.5488 1.184072,0.491 1.184072,0.491 0,-0.26 -1.184072,-0.4909 L 28.534127,1022.4882 z m -7.970826,3.8988 c -0.02481,0.2611 -0.09072,0.4674 -0.173279,0.6642 -0.279371,0.6658 -0.53958,0.7537 -2.570303,0.6642 l -1.588389,-0.086 -0.433197,1.0397 c -0.196586,0.4722 -0.353647,0.8684 -0.404317,1.0686 0.01316,0.021 0.03873,0.034 0.05776,0.058 0.07141,-0.2189 0.186023,-0.4808 0.346557,-0.8664 l 0.433197,-1.0397 1.588389,0.086 c 2.030723,0.09 2.290932,0 2.570303,-0.6642 C 20.493381,1027.0654 20.549865,1026.7621 20.563301,1026.387 z m 10.39673,0.3176 c 0.02139,0.4478 0.06434,0.7846 0.231039,0.953 0.0702,0.071 0.147029,0.1354 0.259917,0.1733 0.112889,0.037 0.238627,0.043 0.404318,0.058 0.331381,0.029 0.783004,0.029 1.38623,0.029 l 1.819428,0 0.317678,0.6353 c 0.164342,0.3487 0.380907,0.9034 0.490957,1.2131 0.01679,0.047 0.01354,0.076 0.02888,0.1155 0.02313,-0.02 0.0734,-0.037 0.08663,-0.058 -0.02164,-0.082 -0.06758,-0.1829 -0.115518,-0.3177 -0.11005,-0.3095 -0.326615,-0.8644 -0.490957,-1.2129 l -0.317678,-0.6354 -1.819428,0 c -0.603226,0 -1.054849,-2e-4 -1.38623,-0.029 -0.165691,-0.015 -0.291429,-0.021 -0.404318,-0.058 -0.112888,-0.037 -0.189724,-0.1023 -0.259917,-0.1733 C 31.050681,1027.2565 30.989673,1027.0363 30.960031,1026.7046 z m 2.483663,6.2958 c -0.08941,0.568 0.356934,1.2002 1.559509,2.1948 l 0.866395,0.7509 0.08664,-0.2021 -0.953033,-0.8086 C 33.976845,1034.0872 33.5076,1033.5075 33.443694,1033.0004 z m -15.566215,0.086 c -0.09851,0.4817 -0.797663,1.2714 -1.819427,2.0505 -0.336343,0.2566 -0.574842,0.529 -0.635357,0.6642 0.01948,0.069 0.02271,0.1 0.05776,0.2023 0.08867,-0.1459 0.279628,-0.3793 0.577596,-0.6066 1.101632,-0.84 1.848307,-1.7022 1.848307,-2.1659 C 17.906359,1033.1831 17.887465,1033.1401 17.877479,1033.087 z m 3.725495,0.3755 c 0.09654,1.5726 0.798411,2.6666 2.223745,3.3789 2.679689,1.3391 5.724887,-0.4496 5.92036,-3.3789 -0.348994,2.7782 -3.318531,4.4191 -5.92036,3.1191 C 22.479931,1035.9091 21.759306,1034.8978 21.602974,1033.4625 z m -1.068553,7.3066 -0.08664,1.1841 0.02889,0.029 0.05776,-0.953 C 20.540711,1040.9322 20.529503,1040.8599 20.534421,1040.7691 z m 10.28121,0.5198 c 0.02255,0.2243 0.05077,0.4108 0.08664,0.6065 0.005,-0.01 0.02555,-0.019 0.02889,-0.029 -0.0019,-0.01 0.0019,-0.021 0,-0.029 C 30.894825,1041.6718 30.839694,1041.4922 30.815631,1041.2889 Z"
       id="path916"
       inkscape:connector-curvature="0" />
    <path
       style="fill:#000000;fill-opacity:0.07843137"
       d="m 18.252917,1013.882 -0.202159,0.2599 c -0.110803,0.1431 -0.382378,0.4126 -0.577596,0.6065 -0.296091,0.2941 -0.376243,0.3466 -0.577598,0.3466 -0.20134,0 -0.307499,-0.063 -0.635354,-0.3755 -0.216176,-0.2061 -0.463018,-0.4794 -0.548717,-0.6065 -0.181054,-0.2685 -0.236616,-0.2617 -0.953033,0.058 -0.205617,0.092 -0.314983,0.1698 -0.375437,0.231 0.0121,0.1055 0.02001,0.1325 0.02887,0.2599 0.05151,-0.062 0.139333,-0.1383 0.346557,-0.231 0.716418,-0.3195 0.77198,-0.3268 0.953034,-0.058 0.0857,0.1271 0.332541,0.4003 0.548716,0.6065 0.327855,0.3135 0.434013,0.3755 0.635356,0.3755 0.201353,0 0.281505,-0.053 0.577596,-0.3465 0.195219,-0.194 0.466793,-0.4635 0.577596,-0.6066 l 0.202159,-0.2599 0.548717,0.231 0.577596,0.2311 0,-0.26 -0.577596,-0.231 L 18.252917,1013.882 z m -3.812135,1.8772 c -0.01,0.1152 -0.04918,0.1995 -0.08664,0.2888 -0.03332,0.08 -0.07004,0.1552 -0.115519,0.2022 -0.04548,0.047 -0.08894,0.066 -0.173279,0.086 -0.168678,0.042 -0.468676,0.05 -0.953033,0.029 l -0.750876,-0.029 -0.202157,0.491 c -0.04521,0.1086 -0.05307,0.1392 -0.08664,0.231 0.01928,0.021 0.06367,0.035 0.08664,0.058 0.0046,-0.011 -0.005,-0.017 0,-0.029 l 0.202157,-0.491 0.750876,0.029 c 0.484358,0.022 0.784355,0.013 0.953033,-0.029 0.08434,-0.022 0.127801,-0.039 0.173279,-0.086 0.04548,-0.047 0.0822,-0.1226 0.115519,-0.2021 C 14.412241,1016.1691 14.44514,1015.9988 14.440782,1015.7592 z m 4.967327,0.231 c 0.0172,0.3049 0.0516,0.5173 0.231038,0.5776 0.05385,0.018 0.09424,0.02 0.173279,0.029 0.158079,0.014 0.376479,0 0.664235,0 l 0.866395,0 0.144398,0.3177 c 0.03195,0.067 0.07537,0.1454 0.11552,0.231 0.02417,-0.018 0.03586,-0.072 0.05776,-0.086 -0.06068,-0.1379 -0.118841,-0.2888 -0.173279,-0.4043 l -0.144398,-0.3176 -0.866395,0 c -0.287756,0 -0.506156,0.014 -0.664235,0 -0.07904,-0.01 -0.119427,-0.011 -0.173279,-0.029 C 19.504519,1016.2628 19.439288,1016.1622 19.408109,1015.9902 z m -4.47637,2.9457 c -0.0051,0.038 -0.02882,0.071 -0.02887,0.1156 -0.0013,0.8507 0.363196,1.4525 1.097432,1.8194 1.32389,0.6616 2.836783,-0.3043 2.830222,-1.7905 -1.9e-4,-0.042 -0.0265,-0.074 -0.02888,-0.1155 -0.09443,1.3975 -1.523868,2.2845 -2.801342,1.6461 C 15.3124,1020.2673 14.973824,1019.7035 14.931739,1018.9359 z m 5.689322,0.029 c -0.0033,0.01 -0.02739,0.023 -0.02889,0.029 -0.06097,0.2775 0.130121,0.579 0.721995,1.0685 l 0.288798,0.2311 c 0.02176,-0.059 0.02991,-0.099 0.05776,-0.1732 l -0.346558,-0.3178 C 20.890101,1019.452 20.688343,1019.1829 20.621061,1018.9649 z m -7.47987,0.058 c -0.101162,0.2338 -0.432601,0.5645 -0.866394,0.8952 -0.07853,0.06 -0.147879,0.1164 -0.202159,0.1733 0.02979,0.082 0.04675,0.1051 0.08664,0.2022 0.03986,-0.039 0.05989,-0.073 0.115519,-0.1155 0.525509,-0.4008 0.895274,-0.8185 0.895274,-1.0397 C 13.170071,1019.1021 13.153199,1019.0638 13.141191,1019.0226 z m 15.392936,3.7255 -0.404318,0.5487 c -0.232277,0.2999 -0.774834,0.8931 -1.184071,1.2995 -0.620698,0.6163 -0.819732,0.7221 -1.241832,0.7221 -0.422073,0 -0.641182,-0.1242 -1.328471,-0.7798 -0.45317,-0.4322 -0.975541,-1.0043 -1.155192,-1.2707 -0.379547,-0.5629 -0.461995,-0.5559 -1.963826,0.1155 -0.336751,0.1507 -0.573187,0.2715 -0.721996,0.3755 -0.05952,0.041 -0.08612,0.079 -0.115518,0.1155 0.01132,0.081 0.01702,0.128 0.02888,0.2311 0.02529,-0.028 0.042,-0.055 0.08664,-0.086 0.148809,-0.1039 0.385245,-0.2248 0.721996,-0.3754 1.501831,-0.6715 1.584279,-0.6784 1.963825,-0.1155 0.179651,0.2665 0.702022,0.8384 1.155192,1.2707 0.687289,0.6556 0.906398,0.7797 1.328471,0.7797 0.4221,0 0.621134,-0.1056 1.241832,-0.7219 0.409237,-0.4064 0.951794,-0.9998 1.184071,-1.2996 l 0.404318,-0.5487 1.184072,0.491 1.184073,0.4908 0,-0.2598 -1.184073,-0.491 L 28.534127,1022.7481 z m -7.970826,3.8987 c -0.02481,0.2612 -0.09072,0.4676 -0.173279,0.6643 -0.279371,0.6659 -0.53958,0.7538 -2.570303,0.6642 l -1.588389,-0.086 -0.433197,1.0397 c -0.141464,0.3398 -0.266987,0.6333 -0.346557,0.8665 0.02123,0.027 0.05882,0.055 0.08663,0.086 0.076,-0.2095 0.132546,-0.3872 0.259919,-0.6931 l 0.433196,-1.0397 1.588388,0.086 c 2.030723,0.09 2.290932,-10e-5 2.570305,-0.6642 C 20.493381,1027.3253 20.549865,1027.022 20.563301,1026.6469 z m 10.39673,0.3178 c 0.02139,0.4478 0.06434,0.7845 0.231039,0.9529 0.0702,0.071 0.147029,0.1354 0.259917,0.1734 0.112889,0.036 0.238627,0.043 0.404318,0.058 0.331381,0.028 0.783004,0.029 1.38623,0.029 l 1.819428,0 0.317678,0.6353 c 0.152894,0.3243 0.346605,0.8085 0.462077,1.1263 0.02422,-0.017 0.03977,-0.042 0.05776,-0.058 -0.01535,-0.039 -0.01208,-0.068 -0.02888,-0.1155 -0.11005,-0.3097 -0.326615,-0.8644 -0.490957,-1.213 l -0.317678,-0.6354 -1.819428,0 c -0.603225,0 -1.054848,-2e-4 -1.38623,-0.029 -0.165691,-0.015 -0.291428,-0.021 -0.404318,-0.058 -0.112888,-0.037 -0.189724,-0.1023 -0.259917,-0.1732 C 31.050681,1027.5165 30.989673,1027.2963 30.960031,1026.9646 z m 2.483663,6.2957 c -0.08941,0.568 0.356934,1.2002 1.559508,2.1949 l 0.808636,0.6931 0.08664,-0.2022 -0.895273,-0.7508 C 33.976845,1034.3471 33.5076,1033.7675 33.443694,1033.2604 z m -15.566215,0.086 c -0.09851,0.4817 -0.797664,1.2713 -1.819427,2.0504 -0.289204,0.2207 -0.50339,0.4281 -0.606476,0.5777 0.02233,0.067 0.05828,0.1237 0.08663,0.2021 0.109407,-0.1451 0.271531,-0.3305 0.519837,-0.5198 1.101632,-0.8401 1.848308,-1.7022 1.848308,-2.166 C 17.906359,1033.4431 17.887465,1033.4001 17.877479,1033.347 z m 3.725494,0.3755 c 0.09654,1.5724 0.798411,2.6665 2.223745,3.3789 2.67969,1.3389 5.724887,-0.4497 5.92036,-3.3789 -0.348994,2.7782 -3.318531,4.4191 -5.920359,3.1189 C 22.479931,1036.1691 21.759306,1035.1577 21.602974,1033.7225 z m -1.068553,7.3065 -0.08664,0.953 0.02888,0 0.05776,-0.6931 C 20.540711,1041.1922 20.529503,1041.1197 20.534421,1041.029 Z"
       id="path918"
       inkscape:connector-curvature="0" />
  </g>
</svg>
