<?xml version="1.0" encoding="UTF-8" standalone="no"?>
<!-- Created with Inkscape (http://www.inkscape.org/) -->

<svg
   xmlns:dc="http://purl.org/dc/elements/1.1/"
   xmlns:cc="http://creativecommons.org/ns#"
   xmlns:rdf="http://www.w3.org/1999/02/22-rdf-syntax-ns#"
   xmlns:svg="http://www.w3.org/2000/svg"
   xmlns="http://www.w3.org/2000/svg"
   xmlns:xlink="http://www.w3.org/1999/xlink"
   xmlns:sodipodi="http://sodipodi.sourceforge.net/DTD/sodipodi-0.dtd"
   xmlns:inkscape="http://www.inkscape.org/namespaces/inkscape"
   width="48.000011"
   height="48.014492"
   id="svg5453"
   version="1.1"
   inkscape:version="0.48+devel r12130"
   sodipodi:docname="system-restart.svg">
  <defs
     id="defs5455">
    <linearGradient
       gradientUnits="userSpaceOnUse"
       y2="1005.7004"
       x2="25.1199"
       y1="1051.0239"
       x1="25.1199"
       id="linearGradient885"
       xlink:href="#linearGradient3257-0-4"
       inkscape:collect="always"
       gradientTransform="translate(384.57143,-504.57144)" />
    <linearGradient
       id="linearGradient3257-0-4">
      <stop
         offset="0"
         style="stop-color:#69a123;stop-opacity:1"
         id="stop3259-2-5" />
      <stop
         offset="1"
         style="stop-color:#abbd3b;stop-opacity:1"
         id="stop3261-6-0" />
    </linearGradient>
  </defs>
  <sodipodi:namedview
     id="base"
     pagecolor="#ffffff"
     bordercolor="#666666"
     borderopacity="1.0"
     inkscape:pageopacity="0.0"
     inkscape:pageshadow="2"
     inkscape:zoom="4.9422552"
     inkscape:cx="35.938849"
     inkscape:cy="32.97902"
     inkscape:document-units="px"
     inkscape:current-layer="layer1"
     showgrid="false"
     fit-margin-top="0"
     fit-margin-left="0"
     fit-margin-right="0"
     fit-margin-bottom="0"
     inkscape:window-width="1366"
     inkscape:window-height="717"
     inkscape:window-x="0"
     inkscape:window-y="28"
     inkscape:window-maximized="1" />
  <metadata
     id="metadata5458">
    <rdf:RDF>
      <cc:Work
         rdf:about="">
        <dc:format>image/svg+xml</dc:format>
        <dc:type
           rdf:resource="http://purl.org/dc/dcmitype/StillImage" />
        <dc:title />
      </cc:Work>
    </rdf:RDF>
  </metadata>
  <g
     inkscape:label="Capa 1"
     inkscape:groupmode="layer"
     id="layer1"
     transform="translate(-384.57143,-499.78351)">
    <rect
       style="color:#000000;fill:#333333;fill-opacity:1;fill-rule:nonzero;stroke:none;stroke-width:0.2;marker:none;visibility:visible;display:inline;overflow:visible;enable-background:accumulate"
       id="rect6294"
       width="45.5"
       height="45.5"
       x="385.82144"
       y="501.04074"
       ry="6.3565426" />
    <rect
       ry="5.8565426"
       y="501.54074"
       x="386.32144"
       height="44.5"
       width="44.5"
       id="rect6296"
       style="color:#000000;fill:url(#linearGradient885);fill-opacity:1.0;fill-rule:nonzero;stroke:none;stroke-width:0.2;marker:none;visibility:visible;display:inline;overflow:visible;enable-background:accumulate" />
    <path
       id="path6361"
       d="m 386.32143,507.97828 0,-0.5625 c 0,-3.2445 2.59922,-5.875 5.84375,-5.875 l 32.8125,0 c 3.24452,0 5.84375,2.6305 5.84375,5.875 l 0,0.5625 c 0,-3.2445 -2.59923,-5.875 -5.84375,-5.875 l -32.8125,0 C 388.92065,502.10328 386.32143,504.73378 386.32143,507.97828 Z"
       style="color:#000000;fill:#ffffff;fill-opacity:1;fill-rule:nonzero;stroke:none;stroke-width:0.2;marker:none;visibility:visible;display:inline;overflow:visible;enable-background:accumulate"
       inkscape:connector-curvature="0" />
    <path
       inkscape:connector-curvature="0"
       style="color:#000000;fill:#000000;fill-opacity:1;fill-rule:nonzero;stroke:none;stroke-width:0.2;marker:none;visibility:visible;display:inline;overflow:visible;enable-background:accumulate"
       d="m 386.32143,539.60328 0,0.5625 c 0,3.2445 2.59922,5.875 5.84375,5.875 l 32.8125,0 c 3.24452,0 5.84375,-2.6305 5.84375,-5.875 l 0,-0.5625 c 0,3.2445 -2.59923,5.875 -5.84375,5.875 l -32.8125,0 C 388.92065,545.47828 386.32143,542.84778 386.32143,539.60328 Z"
       id="path6388" />
    <g
       transform="matrix(0.80605942,0,0,0.80605942,77.10978,103.566)"
       id="g821">
      <path
         inkscape:connector-curvature="0"
         id="path858"
         transform="translate(384.57143,499.78351)"
         d="m 26.65625,36.9375 c -0.429333,0 -0.858007,0.07564 -1.25,0.21875 -0.578667,0.211553 -1.013977,0.54578 -1.34375,1 -0.423113,0.584887 -0.65625,1.35428 -0.65625,2.3125 0,0.951993 0.226917,1.721393 0.65625,2.3125 0.336,0.46044 0.77753,0.794667 1.34375,1 0.391993,0.143113 0.820667,0.21875 1.25,0.21875 0.429333,0 0.826757,-0.07564 1.21875,-0.21875 0.56622,-0.205333 1.013977,-0.53956 1.34375,-1 0.423113,-0.584887 0.625,-1.354287 0.625,-2.3125 0,-0.95822 -0.201887,-1.727613 -0.625,-2.3125 -0.329773,-0.45422 -0.77131,-0.788447 -1.34375,-1 C 27.483,37.013143 27.079357,36.9375 26.65625,36.9375 z m 7.25,0 c -0.429333,0 -0.858,0.07564 -1.25,0.21875 -0.57866,0.211553 -1.013977,0.54578 -1.34375,1 -0.423113,0.584887 -0.65625,1.35428 -0.65625,2.3125 0,0.951993 0.226917,1.721393 0.65625,2.3125 0.336,0.46044 0.777537,0.794667 1.34375,1 0.392,0.143113 0.820667,0.21875 1.25,0.21875 0.429327,0 0.82675,-0.07564 1.21875,-0.21875 0.56622,-0.205333 1.013977,-0.53956 1.34375,-1 0.423113,-0.584887 0.65625,-1.354287 0.65625,-2.3125 0,-0.95822 -0.233137,-1.727613 -0.65625,-2.3125 -0.329773,-0.45422 -0.77131,-0.788447 -1.34375,-1 C 34.733,37.013143 34.329357,36.9375 33.90625,36.9375 Z M 4,37.125 l 0,6.71875 1.375,0 0,-2.625 1.4375,0 c 0.4915533,0 0.8006133,0.08836 0.9375,0.28125 0.09956,0.143113 0.15625,0.45853 0.15625,0.96875 0,0.34844 0.00638,0.625833 0.03125,0.8125 0.024867,0.186667 0.0752,0.38206 0.125,0.5625 l 1.53125,0 0,-0.1875 c -0.1430867,-0.056 -0.2188667,-0.163167 -0.25,-0.3125 C 9.3126167,43.194417 9.3125,42.847607 9.3125,42.3125 9.3125,41.727613 9.2368633,41.33019 9.09375,41.09375 8.98797,40.91953 8.7548267,40.761887 8.4375,40.625 8.7610533,40.513 9.03831,40.31747 9.21875,40.03125 9.4054167,39.738803 9.5,39.404583 9.5,39.03125 9.5,38.595697 9.3488567,38.18597 9.09375,37.84375 8.7266367,37.358423 8.1527733,37.125 7.375,37.125 L 4,37.125 z m 6.75,0 0,6.71875 5.09375,0 0,-1.1875 -3.71875,0 0,-1.75 3.25,0 0,-1.1875 -3.25,0 0,-1.40625 3.5625,0 0,-1.1875 L 10.75,37.125 z m 6.21875,0 0,6.71875 2.84375,0 c 0.628447,0 1.107727,-0.07551 1.4375,-0.1875 0.23644,-0.08089 0.46972,-0.225947 0.6875,-0.4375 0.379553,-0.367107 0.5625,-0.821227 0.5625,-1.375 0,-0.373333 -0.07564,-0.707417 -0.21875,-0.96875 -0.167993,-0.304887 -0.432947,-0.513137 -0.8125,-0.65625 0.23022,-0.11822 0.41303,-0.238113 0.53125,-0.375 0.205333,-0.242667 0.3125,-0.583113 0.3125,-1 0,-0.435553 -0.1575,-0.813893 -0.4375,-1.125 C 21.514113,37.32053 20.98422,37.125 20.25,37.125 L 16.96875,37.125 z m 20.6875,0 0,1.1875 2.03125,0 0,5.53125 1.40625,0 0,-5.53125 2,0 0,-1.1875 L 37.65625,37.125 z m -11,1 c 0.479107,0 0.870167,0.157637 1.1875,0.46875 0.410667,0.40444 0.625,1.02878 0.625,1.875 0,0.846213 -0.208113,1.470553 -0.625,1.875 -0.317333,0.311107 -0.714613,0.46875 -1.1875,0.46875 -0.479107,0 -0.895197,-0.157643 -1.21875,-0.46875 -0.416887,-0.404447 -0.625,-1.028787 -0.625,-1.875 0,-0.84622 0.201893,-1.47056 0.625,-1.875 C 25.761053,38.282637 26.183363,38.125 26.65625,38.125 z m 7.25,0 c 0.479107,0 0.870167,0.157637 1.1875,0.46875 0.41066,0.40444 0.625,1.02878 0.625,1.875 0,0.846213 -0.208113,1.470553 -0.625,1.875 -0.317327,0.311107 -0.714613,0.46875 -1.1875,0.46875 -0.479113,0 -0.895197,-0.157643 -1.21875,-0.46875 -0.416887,-0.404447 -0.625,-1.028787 -0.625,-1.875 0,-0.84622 0.233137,-1.47056 0.65625,-1.875 C 33.042303,38.282637 33.433363,38.125 33.90625,38.125 Z M 5.375,38.28125 l 1.71875,0 c 0.3671133,0 0.6445,0.107167 0.8125,0.3125 0.11822,0.149333 0.1875,0.33228 0.1875,0.5625 0,0.32978 -0.10703,0.575643 -0.28125,0.71875 C 7.6382733,40.011887 7.3733267,40.0625 7,40.0625 l -1.625,0 L 5.375,38.28125 z m 12.9375,0 1.59375,0 c 0.329773,0 0.600803,0.0755 0.78125,0.1875 0.18044,0.112 0.28125,0.276137 0.28125,0.53125 0,0.255107 -0.119613,0.463083 -0.3125,0.59375 -0.168,0.112 -0.38884,0.15625 -0.6875,0.15625 l -1.65625,0 L 18.3125,38.28125 z m 0,2.59375 1.78125,0 c 0.28,0 0.519637,0.08186 0.71875,0.21875 0.199107,0.130667 0.3125,0.319977 0.3125,0.59375 0,0.336 -0.09458,0.58822 -0.28125,0.75 -0.18044,0.155553 -0.464053,0.25 -0.8125,0.25 l -1.71875,0 L 18.3125,40.875 Z"
         style="font-size:9.33328247px;font-style:normal;font-variant:normal;font-weight:bold;font-stretch:normal;text-align:start;line-height:125%;letter-spacing:0px;word-spacing:0px;writing-mode:lr-tb;text-anchor:start;fill:#ffffff;fill-opacity:0.5372549;stroke:none;font-family:Helvetica;-inkscape-font-specification:Helvetica Bold" />
      <path
         inkscape:connector-curvature="0"
         id="path877"
         d="m 411.22768,537.91082 c -0.47289,0 -0.8952,0.15763 -1.21875,0.46875 -0.35064,0.33517 -0.53597,0.8304 -0.59375,1.46875 0.0766,-0.55155 0.27642,-0.97792 0.59375,-1.28125 0.32355,-0.31111 0.74586,-0.46875 1.21875,-0.46875 0.47911,0 0.87017,0.15764 1.1875,0.46875 0.308,0.30333 0.51422,0.7297 0.59375,1.28125 -0.0604,-0.63835 -0.25342,-1.13358 -0.59375,-1.46875 C 412.09785,538.06845 411.70679,537.91082 411.22768,537.91082 z m 7.25,0 c -0.47289,0 -0.86395,0.15763 -1.1875,0.46875 -0.35064,0.33517 -0.55987,0.8304 -0.625,1.46875 0.0854,-0.55155 0.30766,-0.97792 0.625,-1.28125 0.32355,-0.31111 0.71461,-0.46875 1.1875,-0.46875 0.47911,0 0.87017,0.15764 1.1875,0.46875 0.308,0.30333 0.51422,0.7297 0.59375,1.28125 -0.0604,-0.63835 -0.25342,-1.13358 -0.59375,-1.46875 C 419.34785,538.06845 418.95679,537.91082 418.47768,537.91082 z m -28.53125,0.15625 0,0.1875 1.71875,0 c 0.36711,0 0.6445,0.10717 0.8125,0.3125 0.10003,0.12636 0.13862,0.28598 0.15625,0.46875 0.003,-0.0367 0.0312,-0.0547 0.0312,-0.0937 0,-0.23022 -0.0693,-0.41317 -0.1875,-0.5625 -0.168,-0.20534 -0.44539,-0.3125 -0.8125,-0.3125 L 389.94643,538.06707 z m 12.9375,0 0,0.1875 1.59375,0 c 0.32977,0 0.6008,0.0755 0.78125,0.1875 0.15268,0.0948 0.22418,0.24454 0.25,0.4375 0.004,-0.0334 0.0312,-0.0584 0.0312,-0.0937 0,-0.25512 -0.10081,-0.41925 -0.28125,-0.53125 -0.18045,-0.112 -0.45148,-0.1875 -0.78125,-0.1875 L 402.88393,538.06707 z m -6.1875,0.0312 0,0.1875 3.5625,0 0,-0.1875 L 396.69643,538.09832 z m 25.53125,0 0,0.1875 2.03125,0 0,-0.1875 L 422.22768,538.09832 z m 3.4375,0 0,0.1875 2,0 0,-0.1875 L 425.66518,538.09832 z m -18.78125,0.59375 c -0.0109,0.38647 -0.11827,0.70795 -0.3125,0.9375 -0.11822,0.13688 -0.30103,0.25678 -0.53125,0.375 0.0617,0.0233 0.10055,0.0669 0.15625,0.0937 0.15408,-0.09 0.28634,-0.17858 0.375,-0.28125 0.20533,-0.24267 0.3125,-0.58311 0.3125,-1 C 406.88393,538.77395 406.88698,538.73406 406.88393,538.69207 z m -12.8125,0.21875 c -0.015,0.33461 -0.11083,0.63925 -0.28125,0.90625 -0.18044,0.28622 -0.4577,0.48175 -0.78125,0.59375 0.072,0.0311 0.12463,0.0606 0.1875,0.0937 0.23681,-0.11639 0.45198,-0.27511 0.59375,-0.5 0.18667,-0.29245 0.28125,-0.62667 0.28125,-1 C 394.07143,538.97223 394.07308,538.94286 394.07143,538.91082 z m 8.8125,1.75 0,0.1875 1.78125,0 c 0.28,0 0.51964,0.0819 0.71875,0.21875 0.17996,0.1181 0.26177,0.29827 0.28125,0.53125 0.004,-0.0452 0.0312,-0.0763 0.0312,-0.125 0,-0.27378 -0.11339,-0.46309 -0.3125,-0.59375 -0.19911,-0.13685 -0.43875,-0.21875 -0.71875,-0.21875 L 402.88393,540.66082 z m -6.1875,0.0312 0,0.1875 3.25,0 0,-0.1875 L 396.69643,540.69207 z m 11.3125,0.21875 c 0.0636,0.73799 0.26892,1.3535 0.625,1.84375 0.336,0.46044 0.77753,0.79467 1.34375,1 0.39199,0.14311 0.82067,0.21875 1.25,0.21875 0.42933,0 0.82676,-0.0756 1.21875,-0.21875 0.56622,-0.20533 1.01398,-0.53956 1.34375,-1 0.34612,-0.47846 0.53312,-1.08473 0.59375,-1.8125 -0.0766,0.64806 -0.27642,1.18633 -0.59375,1.625 -0.32977,0.46044 -0.77753,0.79466 -1.34375,1 -0.39199,0.14315 -0.78942,0.21875 -1.21875,0.21875 -0.42933,0 -0.85801,-0.0756 -1.25,-0.21875 -0.56622,-0.20534 -1.00775,-0.53956 -1.34375,-1 C 408.31193,542.12374 408.09288,541.55654 408.00893,540.91082 z m 7.25,0 c 0.0636,0.73799 0.26892,1.3535 0.625,1.84375 0.336,0.46044 0.77754,0.79467 1.34375,1 0.392,0.14311 0.82067,0.21875 1.25,0.21875 0.42933,0 0.82675,-0.0756 1.21875,-0.21875 0.56622,-0.20533 1.01398,-0.53956 1.34375,-1 0.34612,-0.47846 0.55676,-1.08473 0.625,-1.8125 -0.0854,0.64806 -0.30767,1.18633 -0.625,1.625 -0.32977,0.46044 -0.77753,0.79466 -1.34375,1 -0.392,0.14315 -0.78942,0.21875 -1.21875,0.21875 -0.42933,0 -0.858,-0.0756 -1.25,-0.21875 -0.56621,-0.20534 -1.00775,-0.53956 -1.34375,-1 C 415.56193,542.12374 415.34288,541.55654 415.25893,540.91082 z m -25.3125,0.0937 0,0.1875 1.4375,0 c 0.49155,0 0.80061,0.0884 0.9375,0.28125 0.0498,0.0716 0.0984,0.18323 0.125,0.34375 -0.0247,-0.24457 -0.0603,-0.43828 -0.125,-0.53125 -0.13689,-0.19285 -0.44595,-0.28125 -0.9375,-0.28125 L 389.94643,541.00457 z m 17.09375,1 c -0.0693,0.37855 -0.24659,0.72467 -0.53125,1 -0.21778,0.21155 -0.45106,0.3566 -0.6875,0.4375 -0.32977,0.112 -0.80905,0.1875 -1.4375,0.1875 l -2.84375,0 0,0.1875 2.84375,0 c 0.62845,0 1.10773,-0.0755 1.4375,-0.1875 0.23644,-0.0809 0.46972,-0.22595 0.6875,-0.4375 C 406.84439,542.86761 407.00245,542.47369 407.04018,542.00457 z m -14.53125,1.0625 c 0.004,0.0524 -0.006,0.14449 0,0.1875 0.0249,0.18667 0.0752,0.38206 0.125,0.5625 l 1.53125,0 0,-0.1875 -1.53125,0 C 392.58413,543.44913 392.53383,543.25373 392.50893,543.06707 z m -3.9375,0.5625 0,0.1875 1.375,0 0,-0.1875 L 388.57143,543.62957 z m 6.75,0 0,0.1875 5.09375,0 0,-0.1875 L 395.32143,543.62957 z m 28.9375,0 0,0.1875 1.40625,0 0,-0.1875 L 424.25893,543.62957 Z"
         style="font-size:9.33328247px;font-style:normal;font-variant:normal;font-weight:bold;font-stretch:normal;text-align:start;line-height:125%;letter-spacing:0px;word-spacing:0px;writing-mode:lr-tb;text-anchor:start;fill:#ffffff;fill-opacity:0.16078431;stroke:none;font-family:Helvetica;-inkscape-font-specification:Helvetica Bold" />
      <path
         inkscape:connector-curvature="0"
         id="path882"
         d="m 411.22768,536.5296 c -0.42933,0 -0.85801,0.0756 -1.25,0.21875 -0.57867,0.21156 -1.01398,0.54578 -1.34375,1 -0.35092,0.4851 -0.56006,1.10236 -0.625,1.84375 0.0854,-0.64805 0.30767,-1.21758 0.625,-1.65625 0.32977,-0.45422 0.76508,-0.78845 1.34375,-1 0.39199,-0.14315 0.82067,-0.21875 1.25,-0.21875 0.42311,0 0.82675,0.0756 1.21875,0.21875 0.57244,0.21155 1.01398,0.54578 1.34375,1 0.31733,0.43867 0.51714,1.0082 0.59375,1.65625 -0.0576,-0.74139 -0.24283,-1.35865 -0.59375,-1.84375 -0.32977,-0.45422 -0.77131,-0.78844 -1.34375,-1 C 412.05443,536.60525 411.65079,536.5296 411.22768,536.5296 z m 7.25,0 c -0.42933,0 -0.858,0.0756 -1.25,0.21875 -0.57866,0.21156 -1.01398,0.54578 -1.34375,1 -0.35092,0.4851 -0.56006,1.10236 -0.625,1.84375 0.0854,-0.64805 0.30767,-1.21758 0.625,-1.65625 0.32977,-0.45422 0.76509,-0.78845 1.34375,-1 0.392,-0.14315 0.82067,-0.21875 1.25,-0.21875 0.42311,0 0.82675,0.0756 1.21875,0.21875 0.57244,0.21155 1.01398,0.54578 1.34375,1 0.31733,0.43867 0.5396,1.0082 0.625,1.65625 -0.0649,-0.74139 -0.27408,-1.35865 -0.625,-1.84375 -0.32977,-0.45422 -0.77131,-0.78844 -1.34375,-1 C 419.30443,536.60525 418.90079,536.5296 418.47768,536.5296 z m -29.90625,0.1875 0,0.1875 3.375,0 c 0.77777,0 1.35164,0.23342 1.71875,0.71875 0.23617,0.31681 0.38571,0.69431 0.40625,1.09375 10e-4,-0.0319 0,-0.0613 0,-0.0937 0,-0.43555 -0.15114,-0.84528 -0.40625,-1.1875 -0.36711,-0.48532 -0.94098,-0.71875 -1.71875,-0.71875 L 388.57143,536.7171 z m 6.75,0 0,0.1875 4.9375,0 0,-0.1875 L 395.32143,536.7171 z m 6.21875,0 0,0.1875 3.28125,0 c 0.73422,0 1.26411,0.19553 1.625,0.59375 0.25228,0.28031 0.40971,0.61787 0.4375,1 6.3e-4,-0.0221 0,-0.04 0,-0.0625 0,-0.43555 -0.1575,-0.81389 -0.4375,-1.125 -0.36089,-0.39822 -0.89078,-0.59375 -1.625,-0.59375 L 401.54018,536.7171 z m 20.6875,0 0,0.1875 5.4375,0 0,-0.1875 L 422.22768,536.7171 z m -16.71875,1.96875 c -0.0278,0.20805 -0.11507,0.38743 -0.28125,0.5 -0.168,0.112 -0.38884,0.15625 -0.6875,0.15625 l -1.65625,0 0,0.1875 1.65625,0 c 0.29866,0 0.5195,-0.0442 0.6875,-0.15625 0.19289,-0.13067 0.3125,-0.33864 0.3125,-0.59375 C 405.54018,538.74036 405.51363,538.72094 405.50893,538.68585 z m -12.875,0.15625 c -0.0205,0.27687 -0.0949,0.49764 -0.25,0.625 -0.17423,0.13689 -0.43917,0.1875 -0.8125,0.1875 l -1.625,0 0,0.1875 1.625,0 c 0.37333,0 0.63827,-0.0506 0.8125,-0.1875 0.17422,-0.14311 0.28125,-0.38897 0.28125,-0.71875 C 392.66518,538.90044 392.63714,538.87533 392.63393,538.8421 z m 4.0625,0.46875 0,0.1875 3.25,0 0,-0.1875 L 396.69643,539.31085 z m 9.53125,0.59375 c -0.0601,0.0362 -0.11843,0.0583 -0.1875,0.0937 0.37955,0.14311 0.64451,0.35136 0.8125,0.65625 0.13434,0.24525 0.21005,0.56055 0.21875,0.90625 0.002,-0.0412 0,-0.0826 0,-0.125 0,-0.37333 -0.0756,-0.70741 -0.21875,-0.96875 C 406.71534,540.21786 406.50425,540.04189 406.22768,539.9046 z m -13.03125,0.40625 c -0.0646,0.0317 -0.11817,0.0697 -0.1875,0.0937 0.31733,0.13689 0.55047,0.29453 0.65625,0.46875 0.12462,0.20583 0.20183,0.56395 0.21875,1.03125 0,-0.58488 -0.0756,-0.98231 -0.21875,-1.21875 C 393.58342,540.55119 393.41043,540.42378 393.19643,540.31085 z m 16.21875,0.34375 c 0.0591,0.63835 0.24826,1.13357 0.59375,1.46875 0.32355,0.31111 0.73964,0.46875 1.21875,0.46875 0.47289,0 0.87017,-0.15764 1.1875,-0.46875 0.34549,-0.33518 0.53466,-0.8304 0.59375,-1.46875 -0.0781,0.55155 -0.28109,0.97792 -0.59375,1.28125 -0.31733,0.31111 -0.71461,0.46875 -1.1875,0.46875 -0.47911,0 -0.8952,-0.15764 -1.21875,-0.46875 C 409.69627,541.63252 409.49325,541.20615 409.41518,540.6546 z m 7.25,0 c 0.0591,0.63835 0.24826,1.13357 0.59375,1.46875 0.32355,0.31111 0.73964,0.46875 1.21875,0.46875 0.47289,0 0.87017,-0.15764 1.1875,-0.46875 0.34549,-0.33518 0.53466,-0.8304 0.59375,-1.46875 -0.0781,0.55155 -0.28109,0.97792 -0.59375,1.28125 -0.31733,0.31111 -0.71461,0.46875 -1.1875,0.46875 -0.47911,0 -0.8952,-0.15764 -1.21875,-0.46875 C 416.94627,541.63252 416.74325,541.20615 416.66518,540.6546 z m -11,0.75 c -0.0234,0.26639 -0.0904,0.48668 -0.25,0.625 -0.18044,0.15556 -0.46405,0.25 -0.8125,0.25 l -1.71875,0 0,0.1875 1.71875,0 c 0.34845,0 0.63206,-0.0944 0.8125,-0.25 0.18665,-0.16178 0.28125,-0.414 0.28125,-0.75 C 405.69643,541.44078 405.66725,541.42939 405.66518,541.4046 z m -8.96875,0.84375 0,0.1875 3.71875,0 0,-0.1875 L 396.69643,542.24835 z m -2.78125,0.6875 c 0.004,0.0401 -0.006,0.16038 0,0.1875 0.0311,0.14933 0.10691,0.2565 0.25,0.3125 l 0,-0.1875 C 394.02209,543.19235 393.94631,543.08519 393.91518,542.93585 Z"
         style="font-size:9.33328247px;font-style:normal;font-variant:normal;font-weight:bold;font-stretch:normal;text-align:start;line-height:125%;letter-spacing:0px;word-spacing:0px;writing-mode:lr-tb;text-anchor:start;fill:#000000;fill-opacity:0.5372549;stroke:none;font-family:Helvetica;-inkscape-font-specification:Helvetica Bold" />
    </g>
  </g>
</svg>
