<?xml version="1.0" encoding="UTF-8" standalone="no"?>
<!-- Created with Inkscape (http://www.inkscape.org/) -->

<svg
   xmlns:dc="http://purl.org/dc/elements/1.1/"
   xmlns:cc="http://creativecommons.org/ns#"
   xmlns:rdf="http://www.w3.org/1999/02/22-rdf-syntax-ns#"
   xmlns:svg="http://www.w3.org/2000/svg"
   xmlns="http://www.w3.org/2000/svg"
   xmlns:xlink="http://www.w3.org/1999/xlink"
   xmlns:sodipodi="http://sodipodi.sourceforge.net/DTD/sodipodi-0.dtd"
   xmlns:inkscape="http://www.inkscape.org/namespaces/inkscape"
   width="48"
   height="48"
   id="svg2"
   version="1.1"
   inkscape:version="0.48+devel r12137"
   sodipodi:docname="gigolo.svg">
  <defs
     id="defs4">
    <linearGradient
       inkscape:collect="always"
       id="linearGradient1462">
      <stop
         style="stop-color:#000000;stop-opacity:1"
         offset="0"
         id="stop1464" />
      <stop
         style="stop-color:#666666;stop-opacity:1"
         offset="1"
         id="stop1466" />
    </linearGradient>
    <linearGradient
       inkscape:collect="always"
       xlink:href="#linearGradient1499"
       id="linearGradient1497"
       x1="24.96875"
       y1="23.90625"
       x2="24.96875"
       y2="45.59375"
       gradientUnits="userSpaceOnUse"
       gradientTransform="matrix(0.8919372,0,0,0.8919372,2.5935074,1007.9352)" />
    <linearGradient
       id="linearGradient1499"
       inkscape:collect="always">
      <stop
         id="stop1501"
         offset="0"
         style="stop-color:#0a2956;stop-opacity:1" />
      <stop
         id="stop1503"
         offset="1"
         style="stop-color:#084ba0;stop-opacity:1" />
    </linearGradient>
    <linearGradient
       inkscape:collect="always"
       xlink:href="#linearGradient1483"
       id="linearGradient1489"
       x1="25.19068"
       y1="24.223534"
       x2="25.19068"
       y2="1.8612825"
       gradientUnits="userSpaceOnUse"
       gradientTransform="matrix(0.8919372,0,0,0.87915873,2.5935074,1007.3056)" />
    <linearGradient
       inkscape:collect="always"
       id="linearGradient1483">
      <stop
         style="stop-color:#267aff;stop-opacity:1"
         offset="0"
         id="stop1485" />
      <stop
         style="stop-color:#6992d3;stop-opacity:1"
         offset="1"
         id="stop1487" />
    </linearGradient>
    <linearGradient
       inkscape:collect="always"
       xlink:href="#linearGradient1539"
       id="linearGradient1545"
       x1="24.40625"
       y1="1027.2728"
       x2="24.40625"
       y2="1027.844"
       gradientUnits="userSpaceOnUse"
       gradientTransform="matrix(0.93827159,0,0,1.5957424,1.481482,-611.99136)" />
    <linearGradient
       inkscape:collect="always"
       id="linearGradient1539">
      <stop
         style="stop-color:#000000;stop-opacity:1;"
         offset="0"
         id="stop1541" />
      <stop
         style="stop-color:#000000;stop-opacity:0;"
         offset="1"
         id="stop1543" />
    </linearGradient>
    <linearGradient
       inkscape:collect="always"
       xlink:href="#linearGradient1577"
       id="linearGradient1583"
       x1="19.55019"
       y1="20.5625"
       x2="25.399618"
       y2="20.5625"
       gradientUnits="userSpaceOnUse" />
    <linearGradient
       inkscape:collect="always"
       id="linearGradient1577">
      <stop
         style="stop-color:#b6e500;stop-opacity:1"
         offset="0"
         id="stop1579" />
      <stop
         style="stop-color:#ccff00;stop-opacity:1"
         offset="1"
         id="stop1581" />
    </linearGradient>
    <linearGradient
       inkscape:collect="always"
       xlink:href="#linearGradient1462"
       id="linearGradient1002"
       x1="24"
       y1="1050.6122"
       x2="24"
       y2="1005.9818"
       gradientUnits="userSpaceOnUse" />
  </defs>
  <sodipodi:namedview
     id="base"
     pagecolor="#ffffff"
     bordercolor="#666666"
     borderopacity="1.0"
     inkscape:pageopacity="0.0"
     inkscape:pageshadow="2"
     inkscape:zoom="5.4958878"
     inkscape:cx="15.958897"
     inkscape:cy="29.082968"
     inkscape:document-units="px"
     inkscape:current-layer="layer1"
     showgrid="false"
     inkscape:window-width="1366"
     inkscape:window-height="714"
     inkscape:window-x="0"
     inkscape:window-y="30"
     inkscape:window-maximized="1">
    <inkscape:grid
       type="xygrid"
       id="grid3850" />
  </sodipodi:namedview>
  <metadata
     id="metadata7">
    <rdf:RDF>
      <cc:Work
         rdf:about="">
        <dc:format>image/svg+xml</dc:format>
        <dc:type
           rdf:resource="http://purl.org/dc/dcmitype/StillImage" />
        <dc:title />
      </cc:Work>
    </rdf:RDF>
  </metadata>
  <g
     inkscape:label="Capa 1"
     inkscape:groupmode="layer"
     id="layer1"
     transform="translate(0,-1004.3622)">
    <rect
       style="color:#000000;fill:#333333;fill-opacity:1;fill-rule:nonzero;stroke:none;stroke-width:0.2;marker:none;visibility:visible;display:inline;overflow:visible;enable-background:accumulate"
       id="rect6294"
       width="45.5"
       height="45.5"
       x="1.25"
       y="1005.6122"
       ry="6.3565426" />
    <rect
       ry="5.8565426"
       y="1006.1122"
       x="1.75"
       height="44.5"
       width="44.5"
       id="rect6296"
       style="color:#000000;fill:url(#linearGradient1002);fill-opacity:1;fill-rule:nonzero;stroke:none;stroke-width:0.2;marker:none;visibility:visible;display:inline;overflow:visible;enable-background:accumulate" />
    <path
       id="path6361"
       d="m 1.750004,1012.5497 0,-0.5625 c 0,-3.2445 2.5992,-5.875 5.8438,-5.875 l 32.8125,0 c 3.2445,0 5.8437,2.6305 5.8437,5.875 l 0,0.5625 c 0,-3.2445 -2.5992,-5.875 -5.8437,-5.875 l -32.8125,0 C 4.349204,1006.6747 1.750004,1009.3052 1.750004,1012.5497 Z"
       style="color:#000000;fill:#ffffff;fill-opacity:1;fill-rule:nonzero;stroke:none;stroke-width:0.2;marker:none;visibility:visible;display:inline;overflow:visible;enable-background:accumulate"
       inkscape:connector-curvature="0" />
    <path
       inkscape:connector-curvature="0"
       style="color:#000000;fill:#000000;fill-opacity:1;fill-rule:nonzero;stroke:none;stroke-width:0.2;marker:none;visibility:visible;display:inline;overflow:visible;enable-background:accumulate"
       d="m 1.750004,1044.1747 0,0.5625 c 0,3.2445 2.5992,5.875 5.8438,5.875 l 32.8125,0 c 3.2445,0 5.8437,-2.6305 5.8437,-5.875 l 0,-0.5625 c 0,3.2445 -2.5992,5.875 -5.8437,5.875 l -32.8125,0 C 4.349204,1050.0497 1.750004,1047.4192 1.750004,1044.1747 Z"
       id="path6388" />
    <rect
       style="color:#000000;fill:#000000;fill-opacity:1;fill-rule:nonzero;stroke:none;stroke-width:0.2;marker:none;visibility:visible;display:inline;overflow:visible;enable-background:accumulate"
       id="rect1004"
       width="36.792809"
       height="38"
       x="5.6035957"
       y="1009.3622"
       ry="5.0010924" />
    <path
       style="fill:url(#linearGradient1489);fill-opacity:1;stroke:none"
       d="m 10.704562,1009.848 c -2.6337855,0 -4.7662898,2.1324 -4.7662898,4.7662 l 0,13.9366 36.1234558,0 0,-13.9366 c 0,-2.6338 -2.132503,-4.7662 -4.766289,-4.7662 L 10.704562,1009.848 Z"
       id="rect1476"
       inkscape:connector-curvature="0" />
    <path
       style="fill:#ffffff;fill-opacity:1"
       d="m 27.417534,1022.0034 c 0.0024,-0.5217 0.004,-1.3181 0.004,-1.7694 l 0,-0.8208 -0.01995,0 c -0.01096,0 -0.87414,-0.01 -1.918169,-0.02 -1.044027,-0.013 -1.936182,-0.021 -1.982566,-0.021 l -0.08433,0 0,1.3953 c 0,0.7674 6.89e-4,1.3953 0.0017,1.3953 9.83e-4,0 0.895758,0.1779 1.988699,0.3952 1.09294,0.217 1.991538,0.3952 1.996882,0.3952 C 27.412543,1022.9518 27.41383,1022.8635 27.417534,1022.0034 Z M 23.075,1020.7305 c 0.0021,-0.7496 0.0032,-1.3631 0.0024,-1.3638 -0.0013,0 -2.377708,-0.029 -2.453074,-0.029 l -0.04752,0 0,1.1284 0,1.1283 0.0138,0.01 c 0.01079,0.01 2.462369,0.4909 2.476817,0.4932 C 23.069525,1022.0932 23.072877,1021.4801 23.075,1020.7305 z m -1.19782,-1.6792 c 0.565022,-0.01 1.066643,-0.012 1.114713,-0.013 l 0.0874,0 0,-1.3652 0,-1.3655 -0.01687,0.01 c -0.0093,0 -0.57229,0.1133 -1.251136,0.2477 l -1.234268,0.2444 -5e-5,1.13 -9.9e-5,1.13 0.136467,0 C 20.788453,1019.0634 21.312154,1019.0577 21.87718,1019.0513 z m 3.618172,-0.039 c 1.057284,-0.013 1.923223,-0.022 1.92431,-0.024 0.0013,0 0.0013,-0.7982 4.7e-4,-1.7713 l -0.0017,-1.7695 -1.818502,0.3609 c -1.000177,0.1985 -1.899922,0.3769 -1.999433,0.3965 l -0.180931,0.036 -0.0017,1.3965 -0.0017,1.3964 0.07821,0 C 23.53782,1019.0329 24.438067,1019.0231 25.495352,1019.0112 Z"
       id="path858"
       inkscape:connector-curvature="0"
       sodipodi:nodetypes="ssccsccssscsscccccscssccccssccccsssscssccccs" />
    <path
       style="fill:url(#linearGradient1497);fill-opacity:1;stroke:none"
       d="m 5.9382722,1029.4891 0,12.6543 c 0,2.6337 2.1325043,4.7663 4.7662898,4.7663 l 26.590877,0 c 2.633786,0 4.766289,-2.1326 4.766289,-4.7663 l 0,-12.6543 L 5.9382722,1029.4891 Z"
       id="path1481"
       inkscape:connector-curvature="0" />
    <path
       style="color:#000000;fill:#ffffff;fill-opacity:1;fill-rule:nonzero;stroke:none;stroke-width:1.39999998;marker:none;visibility:visible;display:inline;overflow:visible;enable-background:accumulate"
       d="m 21.875916,1034.4463 0,7.5062 6.508001,-3.7531 L 21.875916,1034.4463 z m -1.397421,3.3619 c -0.474005,0 -0.862412,0.3804 -0.862412,0.8543 0,0.474 0.388407,0.8624 0.862412,0.8624 0.474001,0 0.854423,-0.3884 0.854423,-0.8624 C 21.332918,1038.1886 20.952496,1037.8081 20.478495,1037.8081 z m 0,2.4273 c -0.474005,0 -0.862412,0.3805 -0.862412,0.8546 0,0.474 0.388407,0.8624 0.862412,0.8624 0.474001,0 0.854423,-0.3884 0.854423,-0.8624 C 21.332918,1040.6159 20.952496,1040.2355 20.478495,1040.2355 Z"
       id="path876"
       inkscape:connector-curvature="0" />
    <path
       style="color:#000000;fill:#000000;fill-opacity:0.73513513;fill-rule:nonzero;stroke:none;stroke-width:0.2;marker:none;visibility:visible;display:inline;overflow:visible;enable-background:accumulate"
       d="m 5.6157414,1027.6879 0,1.7299 36.7685186,0 0,-1.7299 L 5.6157414,1027.6879 Z"
       id="path1567"
       inkscape:connector-curvature="0" />
    <path
       style="color:#000000;fill:#000000;fill-opacity:0.5081081;fill-rule:nonzero;stroke:none;stroke-width:0.2;marker:none;visibility:visible;display:inline;overflow:visible;enable-background:accumulate"
       d="m 5.6157414,1027.3066 0,1.7299 36.7685186,0 0,-1.7299 L 5.6157414,1027.3066 Z"
       id="path1565"
       inkscape:connector-curvature="0" />
    <path
       style="color:#000000;fill:#ccff00;fill-opacity:1;fill-rule:nonzero;stroke:none;stroke-width:0.2;marker:none;visibility:visible;display:inline;overflow:visible;enable-background:accumulate"
       d="m 5.6157414,1027.5412 0,1.73 36.7685186,0 0,-1.73 L 5.6157414,1027.5412 Z"
       id="rect1505"
       inkscape:connector-curvature="0" />
    <path
       style="opacity:0.57099998;color:#000000;fill:url(#linearGradient1545);fill-opacity:1;fill-rule:nonzero;stroke:none;stroke-width:0.2;marker:none;visibility:visible;display:inline;overflow:visible;enable-background:accumulate"
       d="m 5.6157414,1027.5412 0,0.821 36.7685186,0 0,-0.821 L 5.6157414,1027.5412 Z"
       id="path1516"
       inkscape:connector-curvature="0" />
    <path
       sodipodi:type="star"
       style="color:#000000;fill:#000000;fill-opacity:0.19459462;fill-rule:nonzero;stroke:none;stroke-width:0.2;marker:none;visibility:visible;display:inline;overflow:visible;enable-background:accumulate"
       id="path1512"
       sodipodi:sides="3"
       sodipodi:cx="21.5"
       sodipodi:cy="20.5625"
       sodipodi:r1="3.8996193"
       sodipodi:r2="1.5597284"
       sodipodi:arg1="0"
       sodipodi:arg2="1.0471976"
       inkscape:flatsided="true"
       inkscape:rounded="0"
       inkscape:randomized="0"
       d="M 25.399619,20.5625 19.55019,23.939669 19.55019,17.185331 Z"
       transform="matrix(0,0.61203936,-1.042457,0,45.435522,1015.573)"
       inkscape:transform-center-y="0.22792436" />
    <path
       inkscape:transform-center-y="0.20918619"
       transform="matrix(0,0.56191311,-0.95707944,0,43.679946,1016.553)"
       d="M 25.399619,20.5625 19.55019,23.939669 19.55019,17.185331 Z"
       inkscape:randomized="0"
       inkscape:rounded="0"
       inkscape:flatsided="true"
       sodipodi:arg2="1.0471976"
       sodipodi:arg1="0"
       sodipodi:r2="1.5597284"
       sodipodi:r1="3.8996193"
       sodipodi:cy="20.5625"
       sodipodi:cx="21.5"
       sodipodi:sides="3"
       id="path1514"
       style="color:#000000;fill:url(#linearGradient1583);fill-opacity:1;fill-rule:nonzero;stroke:none;stroke-width:0.2;marker:none;visibility:visible;display:inline;overflow:visible;enable-background:accumulate"
       sodipodi:type="star" />
  </g>
</svg>
