<?xml version="1.0" encoding="UTF-8" standalone="no"?>
<!-- Created with Inkscape (http://www.inkscape.org/) -->

<svg
   xmlns:dc="http://purl.org/dc/elements/1.1/"
   xmlns:cc="http://creativecommons.org/ns#"
   xmlns:rdf="http://www.w3.org/1999/02/22-rdf-syntax-ns#"
   xmlns:svg="http://www.w3.org/2000/svg"
   xmlns="http://www.w3.org/2000/svg"
   xmlns:sodipodi="http://sodipodi.sourceforge.net/DTD/sodipodi-0.dtd"
   xmlns:inkscape="http://www.inkscape.org/namespaces/inkscape"
   width="48"
   height="48"
   id="svg2"
   version="1.1"
   inkscape:version="0.48+devel r12112"
   sodipodi:docname="calligrasheets.svg">
  <defs
     id="defs4" />
  <sodipodi:namedview
     id="base"
     pagecolor="#ffffff"
     bordercolor="#666666"
     borderopacity="1.0"
     inkscape:pageopacity="0.0"
     inkscape:pageshadow="2"
     inkscape:zoom="5.6568546"
     inkscape:cx="12.382925"
     inkscape:cy="30.352247"
     inkscape:document-units="px"
     inkscape:current-layer="layer1"
     showgrid="false"
     inkscape:window-width="1366"
     inkscape:window-height="718"
     inkscape:window-x="0"
     inkscape:window-y="28"
     inkscape:window-maximized="1"
     showguides="false">
    <inkscape:grid
       type="xygrid"
       id="grid3850" />
  </sodipodi:namedview>
  <metadata
     id="metadata7">
    <rdf:RDF>
      <cc:Work
         rdf:about="">
        <dc:format>image/svg+xml</dc:format>
        <dc:type
           rdf:resource="http://purl.org/dc/dcmitype/StillImage" />
        <dc:title />
      </cc:Work>
    </rdf:RDF>
  </metadata>
  <g
     inkscape:label="Capa 1"
     inkscape:groupmode="layer"
     id="layer1"
     transform="translate(0,-1004.3622)">
    <rect
       style="color:#000000;fill:#333333;fill-opacity:1;fill-rule:nonzero;stroke:none;stroke-width:0.2;marker:none;visibility:visible;display:inline;overflow:visible;enable-background:accumulate"
       id="rect6294"
       width="45.5"
       height="45.5"
       x="1.25"
       y="1005.6122"
       ry="6.3565426" />
    <rect
       ry="5.8565426"
       y="1006.1122"
       x="1.75"
       height="44.5"
       width="44.5"
       id="rect6296"
       style="color:#000000;fill:#f4f4f4;fill-opacity:1;fill-rule:nonzero;stroke:none;stroke-width:0.2;marker:none;visibility:visible;display:inline;overflow:visible;enable-background:accumulate" />
    <path
       id="path6361"
       d="m 1.75,1012.5497 0,-0.5625 c 0,-3.2445 2.5992251,-5.875 5.84375,-5.875 l 32.8125,0 c 3.244525,0 5.84375,2.6305 5.84375,5.875 l 0,0.5625 c 0,-3.2445 -2.599225,-5.875 -5.84375,-5.875 l -32.8125,0 C 4.3492251,1006.6747 1.75,1009.3052 1.75,1012.5497 Z"
       style="color:#000000;fill:#ffffff;fill-opacity:1;fill-rule:nonzero;stroke:none;stroke-width:0.2;marker:none;visibility:visible;display:inline;overflow:visible;enable-background:accumulate"
       inkscape:connector-curvature="0" />
    <path
       inkscape:connector-curvature="0"
       style="color:#000000;fill:#000000;fill-opacity:1;fill-rule:nonzero;stroke:none;stroke-width:0.2;marker:none;visibility:visible;display:inline;overflow:visible;enable-background:accumulate"
       d="m 1.75,1044.1747 0,0.5625 c 0,3.2445 2.5992251,5.875 5.84375,5.875 l 32.8125,0 c 3.244525,0 5.84375,-2.6305 5.84375,-5.875 l 0,-0.5625 c 0,3.2445 -2.599225,5.875 -5.84375,5.875 l -32.8125,0 C 4.3492251,1050.0497 1.75,1047.4192 1.75,1044.1747 Z"
       id="path6388" />
    <rect
       style="color:#000000;fill:#ffffff;fill-opacity:1;fill-rule:nonzero;stroke:none;stroke-width:0.2;marker:none;visibility:visible;display:inline;overflow:visible;enable-background:accumulate"
       id="rect981"
       width="13.403688"
       height="5.097177"
       x="30.691841"
       y="1038.265"
       ry="0" />
    <rect
       ry="0"
       y="1038.265"
       x="17.298157"
       height="5.097177"
       width="13.403688"
       id="rect983"
       style="color:#000000;fill:#ffffff;fill-opacity:1;fill-rule:nonzero;stroke:none;stroke-width:0.2;marker:none;visibility:visible;display:inline;overflow:visible;enable-background:accumulate" />
    <rect
       ry="0"
       y="1043.0707"
       x="30.691841"
       height="0.29151243"
       width="13.403688"
       id="rect985"
       style="color:#000000;fill:#cccccc;fill-opacity:1;fill-rule:nonzero;stroke:none;stroke-width:0.2;marker:none;visibility:visible;display:inline;overflow:visible;enable-background:accumulate" />
    <rect
       style="color:#000000;fill:#cccccc;fill-opacity:1;fill-rule:nonzero;stroke:none;stroke-width:0.2;marker:none;visibility:visible;display:inline;overflow:visible;enable-background:accumulate"
       id="rect987"
       width="13.403688"
       height="0.29151243"
       x="17.298157"
       y="1043.0707"
       ry="0" />
    <rect
       ry="0"
       y="1033.1678"
       x="30.691841"
       height="5.097177"
       width="13.403688"
       id="rect971"
       style="color:#000000;fill:#ffffff;fill-opacity:1;fill-rule:nonzero;stroke:none;stroke-width:0.2;marker:none;visibility:visible;display:inline;overflow:visible;enable-background:accumulate" />
    <rect
       style="color:#000000;fill:#ffffff;fill-opacity:1;fill-rule:nonzero;stroke:none;stroke-width:0.2;marker:none;visibility:visible;display:inline;overflow:visible;enable-background:accumulate"
       id="rect973"
       width="13.403688"
       height="5.097177"
       x="17.298157"
       y="1033.1678"
       ry="0" />
    <rect
       style="color:#000000;fill:#cccccc;fill-opacity:1;fill-rule:nonzero;stroke:none;stroke-width:0.2;marker:none;visibility:visible;display:inline;overflow:visible;enable-background:accumulate"
       id="rect975"
       width="13.403688"
       height="0.29151243"
       x="30.691841"
       y="1037.9735"
       ry="0" />
    <rect
       ry="0"
       y="1037.9735"
       x="17.298157"
       height="0.29151243"
       width="13.403688"
       id="rect977"
       style="color:#000000;fill:#cccccc;fill-opacity:1;fill-rule:nonzero;stroke:none;stroke-width:0.2;marker:none;visibility:visible;display:inline;overflow:visible;enable-background:accumulate" />
    <rect
       style="color:#000000;fill:#ffffff;fill-opacity:1;fill-rule:nonzero;stroke:none;stroke-width:0.2;marker:none;visibility:visible;display:inline;overflow:visible;enable-background:accumulate"
       id="rect933"
       width="13.403688"
       height="5.097177"
       x="30.691841"
       y="1028.0707"
       ry="0" />
    <rect
       ry="0"
       y="1028.0707"
       x="17.298157"
       height="5.097177"
       width="13.403688"
       id="rect935"
       style="color:#000000;fill:#ffffff;fill-opacity:1;fill-rule:nonzero;stroke:none;stroke-width:0.2;marker:none;visibility:visible;display:inline;overflow:visible;enable-background:accumulate" />
    <rect
       ry="0"
       y="1032.8763"
       x="30.691841"
       height="0.29151243"
       width="13.403688"
       id="rect943"
       style="color:#000000;fill:#cccccc;fill-opacity:1;fill-rule:nonzero;stroke:none;stroke-width:0.2;marker:none;visibility:visible;display:inline;overflow:visible;enable-background:accumulate" />
    <rect
       style="color:#000000;fill:#cccccc;fill-opacity:1;fill-rule:nonzero;stroke:none;stroke-width:0.2;marker:none;visibility:visible;display:inline;overflow:visible;enable-background:accumulate"
       id="rect945"
       width="13.403688"
       height="0.29151243"
       x="17.298157"
       y="1032.8763"
       ry="0" />
    <rect
       ry="0"
       y="1023.265"
       x="30.691841"
       height="5.097177"
       width="13.403688"
       id="rect925"
       style="color:#000000;fill:#ffffff;fill-opacity:1;fill-rule:nonzero;stroke:none;stroke-width:0.2;marker:none;visibility:visible;display:inline;overflow:visible;enable-background:accumulate" />
    <rect
       style="color:#000000;fill:#ffffff;fill-opacity:1;fill-rule:nonzero;stroke:none;stroke-width:0.2;marker:none;visibility:visible;display:inline;overflow:visible;enable-background:accumulate"
       id="rect927"
       width="13.403688"
       height="5.097177"
       x="17.298157"
       y="1023.265"
       ry="0" />
    <rect
       ry="0"
       y="1013.3622"
       x="17.298157"
       height="5.097177"
       width="13.403688"
       id="rect893"
       style="color:#000000;fill:#484848;fill-opacity:1;fill-rule:nonzero;stroke:none;stroke-width:0.2;marker:none;visibility:visible;display:inline;overflow:visible;enable-background:accumulate" />
    <rect
       ry="0"
       y="1018.168"
       x="30.691841"
       height="0.29151243"
       width="13.403688"
       id="rect897"
       style="color:#000000;fill:#cccccc;fill-opacity:1;fill-rule:nonzero;stroke:none;stroke-width:0.2;marker:none;visibility:visible;display:inline;overflow:visible;enable-background:accumulate" />
    <rect
       style="color:#000000;fill:#cccccc;fill-opacity:1;fill-rule:nonzero;stroke:none;stroke-width:0.2;marker:none;visibility:visible;display:inline;overflow:visible;enable-background:accumulate"
       id="rect901"
       width="13.403688"
       height="0.29151243"
       x="30.691841"
       y="1013.3622"
       ry="0" />
    <rect
       style="color:#000000;fill:#cccccc;fill-opacity:1;fill-rule:nonzero;stroke:none;stroke-width:0.2;marker:none;visibility:visible;display:inline;overflow:visible;enable-background:accumulate"
       id="rect903"
       width="13.403688"
       height="0.29151243"
       x="30.691841"
       y="1018.168"
       ry="0" />
    <rect
       style="color:#000000;fill:#ffffff;fill-opacity:1;fill-rule:nonzero;stroke:none;stroke-width:0.2;marker:none;visibility:visible;display:inline;overflow:visible;enable-background:accumulate"
       id="rect907"
       width="13.403688"
       height="5.097177"
       x="30.691841"
       y="1018.4593"
       ry="0" />
    <rect
       style="color:#000000;fill:#cccccc;fill-opacity:1;fill-rule:nonzero;stroke:none;stroke-width:0.2;marker:none;visibility:visible;display:inline;overflow:visible;enable-background:accumulate"
       id="rect899"
       width="29.989553"
       height="0.29151243"
       x="-1043.3518"
       y="43.814022"
       ry="0"
       transform="matrix(0,-1,1,0,0,0)" />
    <rect
       ry="0"
       y="1018.4593"
       x="17.298157"
       height="5.097177"
       width="13.403688"
       id="rect909"
       style="color:#000000;fill:#e7fbff;fill-opacity:1;fill-rule:nonzero;stroke:none;stroke-width:0.2;marker:none;visibility:visible;display:inline;overflow:visible;enable-background:accumulate" />
    <rect
       transform="matrix(0,-1,1,0,0,0)"
       ry="0"
       y="30.410334"
       x="-1043.3518"
       height="0.29151243"
       width="29.989553"
       id="rect911"
       style="color:#000000;fill:#cccccc;fill-opacity:1;fill-rule:nonzero;stroke:none;stroke-width:0.2;marker:none;visibility:visible;display:inline;overflow:visible;enable-background:accumulate" />
    <rect
       style="color:#000000;fill:#cccccc;fill-opacity:1;fill-rule:nonzero;stroke:none;stroke-width:0.2;marker:none;visibility:visible;display:inline;overflow:visible;enable-background:accumulate"
       id="rect917"
       width="13.403688"
       height="0.29151243"
       x="30.691841"
       y="1023.265"
       ry="0" />
    <rect
       ry="0"
       y="1023.265"
       x="30.691841"
       height="0.29151243"
       width="13.403688"
       id="rect919"
       style="color:#000000;fill:#cccccc;fill-opacity:1;fill-rule:nonzero;stroke:none;stroke-width:0.2;marker:none;visibility:visible;display:inline;overflow:visible;enable-background:accumulate" />
    <path
       inkscape:connector-curvature="0"
       style="color:#000000;fill:#0055e1;fill-opacity:1;fill-rule:nonzero;stroke:none;stroke-width:0.2;marker:none;visibility:visible;display:inline;overflow:visible;enable-background:accumulate"
       d="m 17.291025,1023.2645 0,0.2929 12.626934,0 0,-0.2929 L 17.291025,1023.2645 Z"
       id="rect921" />
    <rect
       style="color:#000000;fill:#cccccc;fill-opacity:1;fill-rule:nonzero;stroke:none;stroke-width:0.2;marker:none;visibility:visible;display:inline;overflow:visible;enable-background:accumulate"
       id="rect923"
       width="29.989553"
       height="0.29151243"
       x="-1043.3518"
       y="17.298157"
       ry="0"
       transform="matrix(0,-1,1,0,0,0)" />
    <rect
       style="color:#000000;fill:#cccccc;fill-opacity:1;fill-rule:nonzero;stroke:none;stroke-width:0.2;marker:none;visibility:visible;display:inline;overflow:visible;enable-background:accumulate"
       id="rect929"
       width="13.403688"
       height="0.29151243"
       x="30.691841"
       y="1028.0707"
       ry="0" />
    <rect
       ry="0"
       y="1028.0707"
       x="17.298157"
       height="0.29151243"
       width="13.403688"
       id="rect931"
       style="color:#000000;fill:#cccccc;fill-opacity:1;fill-rule:nonzero;stroke:none;stroke-width:0.2;marker:none;visibility:visible;display:inline;overflow:visible;enable-background:accumulate" />
    <rect
       style="color:#000000;fill:#484848;fill-opacity:1;fill-rule:nonzero;stroke:none;stroke-width:0.2;marker:none;visibility:visible;display:inline;overflow:visible;enable-background:accumulate"
       id="rect989"
       width="13.403688"
       height="5.097177"
       x="3.8944662"
       y="1018.4593"
       ry="0" />
    <rect
       ry="0"
       y="1023.265"
       x="3.8944662"
       height="0.29151243"
       width="13.403688"
       id="rect993"
       style="color:#000000;fill:#cccccc;fill-opacity:1;fill-rule:nonzero;stroke:none;stroke-width:0.2;marker:none;visibility:visible;display:inline;overflow:visible;enable-background:accumulate" />
    <rect
       transform="matrix(0,-1,1,0,0,0)"
       ry="0"
       y="3.8944662"
       x="-1043.3517"
       height="0.29151243"
       width="24.892378"
       id="rect995"
       style="color:#000000;fill:#cccccc;fill-opacity:1;fill-rule:nonzero;stroke:none;stroke-width:0.2;marker:none;visibility:visible;display:inline;overflow:visible;enable-background:accumulate" />
    <rect
       style="color:#000000;fill:#cccccc;fill-opacity:1;fill-rule:nonzero;stroke:none;stroke-width:0.2;marker:none;visibility:visible;display:inline;overflow:visible;enable-background:accumulate"
       id="rect997"
       width="13.403688"
       height="0.29151243"
       x="3.8944662"
       y="1018.4593"
       ry="0" />
    <rect
       style="color:#000000;fill:#cccccc;fill-opacity:1;fill-rule:nonzero;stroke:none;stroke-width:0.2;marker:none;visibility:visible;display:inline;overflow:visible;enable-background:accumulate"
       id="rect999"
       width="13.403688"
       height="0.29151243"
       x="3.8944662"
       y="1028.0707"
       ry="0" />
    <rect
       style="color:#000000;fill:#cccccc;fill-opacity:1;fill-rule:nonzero;stroke:none;stroke-width:0.2;marker:none;visibility:visible;display:inline;overflow:visible;enable-background:accumulate"
       id="rect1023"
       width="13.403688"
       height="0.29151243"
       x="3.8944662"
       y="1043.0707"
       ry="0" />
    <rect
       ry="0"
       y="1043.0707"
       x="3.8944662"
       height="0.29151243"
       width="13.403688"
       id="rect1025"
       style="color:#000000;fill:#cccccc;fill-opacity:1;fill-rule:nonzero;stroke:none;stroke-width:0.2;marker:none;visibility:visible;display:inline;overflow:visible;enable-background:accumulate" />
    <rect
       ry="0"
       y="1037.9735"
       x="3.8944662"
       height="0.29151243"
       width="13.403688"
       id="rect1027"
       style="color:#000000;fill:#cccccc;fill-opacity:1;fill-rule:nonzero;stroke:none;stroke-width:0.2;marker:none;visibility:visible;display:inline;overflow:visible;enable-background:accumulate" />
    <rect
       style="color:#000000;fill:#cccccc;fill-opacity:1;fill-rule:nonzero;stroke:none;stroke-width:0.2;marker:none;visibility:visible;display:inline;overflow:visible;enable-background:accumulate"
       id="rect1029"
       width="13.403688"
       height="0.29151243"
       x="3.8944662"
       y="1032.8763"
       ry="0" />
    <rect
       ry="0"
       y="1013.3622"
       x="17.298157"
       height="0.29151243"
       width="13.403688"
       id="rect1107"
       style="color:#000000;fill:#cccccc;fill-opacity:1;fill-rule:nonzero;stroke:none;stroke-width:0.2;marker:none;visibility:visible;display:inline;overflow:visible;enable-background:accumulate" />
    <rect
       ry="0"
       y="1018.168"
       x="17.298157"
       height="0.29151243"
       width="13.403688"
       id="rect1111"
       style="color:#000000;fill:#0055e1;fill-opacity:1;fill-rule:nonzero;stroke:none;stroke-width:0.2;marker:none;visibility:visible;display:inline;overflow:visible;enable-background:accumulate" />
    <rect
       transform="matrix(0,-1,1,0,0,0)"
       ry="0"
       y="17.298157"
       x="-1023.5547"
       height="0.29151243"
       width="5.386775"
       id="rect1113"
       style="color:#000000;fill:#0055e1;fill-opacity:1;fill-rule:nonzero;stroke:none;stroke-width:0.2;marker:none;visibility:visible;display:inline;overflow:visible;enable-background:accumulate" />
    <path
       inkscape:connector-curvature="0"
       style="color:#000000;fill:#0055e1;fill-opacity:1;fill-rule:nonzero;stroke:none;stroke-width:0.2;marker:none;visibility:visible;display:inline;overflow:visible;enable-background:accumulate"
       d="m 30.416006,1018.1668 0,4.5997 0.292968,0 0,-4.5997 L 30.416006,1018.1668 Z"
       id="rect1115" />
    <rect
       style="color:#000000;fill:#0055e1;fill-opacity:1;fill-rule:nonzero;stroke:none;stroke-width:0.2;marker:none;visibility:visible;display:inline;overflow:visible;enable-background:accumulate"
       id="rect1117"
       width="0.99609226"
       height="0.99609226"
       x="30.049795"
       y="1022.913" />
    <path
       inkscape:connector-curvature="0"
       id="path1149"
       style="font-size:3.39965391px;font-style:normal;font-variant:normal;font-weight:normal;font-stretch:normal;line-height:125%;letter-spacing:0px;word-spacing:0px;fill:#ffffff;fill-opacity:1;stroke:none;font-family:Helvetica;-inkscape-font-specification:Helvetica"
       d="m 23.572918,1016.5831 -0.156171,0.4718 -0.503574,0 0.815916,-2.2885 0.551381,0 0.806354,2.2885 -0.519509,0 -0.149797,-0.4718 L 23.572918,1016.5831 z m 0.130673,-0.3951 0.583253,0 -0.286846,-0.9052 L 23.703591,1016.188 Z" />
    <path
       inkscape:connector-curvature="0"
       id="path1146"
       style="font-size:3.39965391px;font-style:normal;font-variant:normal;font-weight:normal;font-stretch:normal;line-height:125%;letter-spacing:0px;word-spacing:0px;fill:#000000;fill-opacity:1;stroke:none;font-family:Helvetica;-inkscape-font-specification:Helvetica"
       d="m 36.450281,1017.0549 0,-2.2884 1.112322,0 q 0.376086,0 0.560942,0.204 0.143423,0.1594 0.143423,0.3824 0,0.2136 -0.105176,0.3379 -0.06055,0.07 -0.178482,0.1307 0.194417,0.073 0.280471,0.2295 0.0733,0.1338 0.0733,0.325 0,0.2837 -0.194417,0.4718 -0.111551,0.1083 -0.232664,0.1498 -0.16892,0.057 -0.490825,0.057 L 36.450281,1017.0549 z m 0.455765,-1.0071 0.0032,0.6119 0.58644,0 q 0.178481,0 0.270909,-0.08 0.09562,-0.083 0.09562,-0.255 0,-0.1402 -0.10199,-0.2072 -0.101989,-0.07 -0.245411,-0.07 L 36.906046,1016.0478 z m 0,-0.886 0.0032,0.5003 0.560942,0 q 0.152984,0 0.239038,-0.057 0.0988,-0.067 0.0988,-0.1976 0,-0.1307 -0.09243,-0.1881 -0.09243,-0.057 -0.261347,-0.057 L 36.906046,1015.1618 Z" />
    <path
       inkscape:connector-curvature="0"
       id="path1162"
       style="font-size:3.39965391px;font-style:normal;font-variant:normal;font-weight:normal;font-stretch:normal;line-height:125%;letter-spacing:0px;word-spacing:0px;fill:#ffffff;fill-opacity:1;stroke:none;font-family:Helvetica;-inkscape-font-specification:Helvetica"
       d="m 9.6656573,1020.5934 0,-0.3123 0.06374,0 q 0.2932197,0 0.4366417,-0.1307 0.114739,-0.1052 0.114739,-0.2614 l 0.366524,0 0.0032,2.263 -0.446204,0 0,-1.5586 L 9.6656573,1020.5934 Z" />
    <path
       inkscape:connector-curvature="0"
       id="path1159"
       style="font-size:3.39965391px;font-style:normal;font-variant:normal;font-weight:normal;font-stretch:normal;line-height:125%;letter-spacing:0px;word-spacing:0px;fill:#000000;fill-opacity:1;stroke:none;font-family:Helvetica;-inkscape-font-specification:Helvetica"
       d="m 9.9875615,1025.482 -0.4334553,0 q 0,-0.478 0.2932196,-0.6756 0.1816682,-0.1243 0.4430172,-0.1243 0.33784,0 0.557754,0.1912 0.219914,0.1881 0.219914,0.5228 0,0.2581 -0.152983,0.4557 -0.10199,0.1339 -0.31553,0.2805 -0.140236,0.099 -0.277284,0.1944 -0.19123,0.1402 -0.229476,0.2231 l 0.981648,0 0,0.3952 -1.5457769,0 q 0,-0.255 0.076491,-0.4144 0.1147376,-0.2421 0.4493909,-0.4844 0.280471,-0.204 0.356963,-0.2709 0.210353,-0.1849 0.210353,-0.3952 0,-0.1275 -0.0733,-0.2167 -0.08605,-0.1052 -0.239038,-0.1052 -0.203979,0 -0.277284,0.1498 Q 9.9875615,1025.3004 9.9875615,1025.482 Z" />
    <path
       inkscape:connector-curvature="0"
       id="path1152"
       style="font-size:3.39965391px;font-style:normal;font-variant:normal;font-weight:normal;font-stretch:normal;line-height:125%;letter-spacing:0px;word-spacing:0px;fill:#000000;fill-opacity:1;stroke:none;font-family:Helvetica;-inkscape-font-specification:Helvetica"
       d="m 23.507581,1020.5934 0,-0.3123 0.06374,0 q 0.29322,0 0.436642,-0.1307 0.114738,-0.1052 0.114738,-0.2614 l 0.366525,0 0.0032,2.263 -0.446203,0 0,-1.5586 L 23.507581,1020.5934 Z" />
    <path
       inkscape:connector-curvature="0"
       id="path1154"
       style="font-size:3.39965391px;font-style:normal;font-variant:normal;font-weight:normal;font-stretch:normal;line-height:125%;letter-spacing:0px;word-spacing:0px;fill:#000000;fill-opacity:1;stroke:none;font-family:Helvetica;-inkscape-font-specification:Helvetica"
       d="m 25.476108,1021.3042 0.570503,0 0,-0.9721 L 25.476108,1021.3042 z m 1.26212,0 -0.0032,0.3473 -0.248599,0 0,0.5005 -0.446205,0 0,-0.5005 -0.892407,0 0,-0.3856 0.828664,-1.3769 0.509948,0 0,1.4152 L 26.738228,1021.3042 Z" />
    <path
       inkscape:connector-curvature="0"
       id="path1156"
       style="font-size:3.39965391px;font-style:normal;font-variant:normal;font-weight:normal;font-stretch:normal;line-height:125%;letter-spacing:0px;word-spacing:0px;fill:#000000;fill-opacity:1;stroke:none;font-family:Helvetica;-inkscape-font-specification:Helvetica"
       d="m 28.448592,1020.4628 -0.443016,0 q -0.01275,-0.102 -0.07649,-0.1594 -0.06374,-0.057 -0.188042,-0.057 -0.197605,0 -0.29322,0.2008 -0.07968,0.1689 -0.07968,0.4239 l 0.0096,0.01 q 0.07649,-0.1052 0.181669,-0.1466 0.108364,-0.041 0.242224,-0.041 0.328279,0 0.519509,0.2199 0.172107,0.2008 0.172107,0.4781 0,0.3729 -0.203979,0.5992 -0.203979,0.2263 -0.535444,0.2263 -0.468514,0 -0.666119,-0.357 -0.152984,-0.2741 -0.152984,-0.7809 0,-0.2996 0.04144,-0.4972 0.06374,-0.3027 0.229476,-0.4748 0.207166,-0.2136 0.567316,-0.2136 0.108365,0 0.223103,0.029 0.162545,0.041 0.239037,0.1179 0.0988,0.096 0.140236,0.1785 Q 28.419908,1020.2938 28.448592,1020.4628 z m -0.40477,0.9625 q 0,-0.1944 -0.108364,-0.2964 -0.08924,-0.083 -0.21354,-0.083 -0.143424,0 -0.232664,0.086 -0.108364,0.1052 -0.108364,0.3028 0,0.188 0.09562,0.3059 0.09561,0.1148 0.258161,0.1148 0.13386,0 0.219914,-0.1052 Q 28.043822,1021.6451 28.043822,1021.4253 Z" />
  </g>
  <g
     inkscape:groupmode="layer"
     id="layer7"
     inkscape:label="Capa" />
</svg>
