<?xml version="1.0" encoding="UTF-8" standalone="no"?>
<!-- Created with Inkscape (http://www.inkscape.org/) -->

<svg
   xmlns:dc="http://purl.org/dc/elements/1.1/"
   xmlns:cc="http://creativecommons.org/ns#"
   xmlns:rdf="http://www.w3.org/1999/02/22-rdf-syntax-ns#"
   xmlns:svg="http://www.w3.org/2000/svg"
   xmlns="http://www.w3.org/2000/svg"
   xmlns:xlink="http://www.w3.org/1999/xlink"
   xmlns:sodipodi="http://sodipodi.sourceforge.net/DTD/sodipodi-0.dtd"
   xmlns:inkscape="http://www.inkscape.org/namespaces/inkscape"
   width="48"
   height="48"
   id="svg2"
   version="1.1"
   inkscape:version="0.48+devel r12064"
   sodipodi:docname="facebook.svg">
  <defs
     id="defs4">
    <linearGradient
       id="linearGradient3700-8">
      <stop
         id="stop3702-1"
         style="stop-color:#2e4f84;stop-opacity:1"
         offset="0" />
      <stop
         id="stop3704-8"
         style="stop-color:#4c77c5;stop-opacity:1"
         offset="1" />
    </linearGradient>
    <linearGradient
       inkscape:collect="always"
       xlink:href="#linearGradient3700-8"
       id="linearGradient833"
       x1="81.871468"
       y1="1049.8873"
       x2="81.871468"
       y2="1004.986"
       gradientUnits="userSpaceOnUse" />
  </defs>
  <sodipodi:namedview
     id="base"
     pagecolor="#ffffff"
     bordercolor="#666666"
     borderopacity="1.0"
     inkscape:pageopacity="0.0"
     inkscape:pageshadow="2"
     inkscape:zoom="5.6568546"
     inkscape:cx="27.028115"
     inkscape:cy="28.504"
     inkscape:document-units="px"
     inkscape:current-layer="layer1"
     showgrid="false"
     inkscape:window-width="1366"
     inkscape:window-height="718"
     inkscape:window-x="0"
     inkscape:window-y="28"
     inkscape:window-maximized="1">
    <inkscape:grid
       type="xygrid"
       id="grid3850" />
  </sodipodi:namedview>
  <metadata
     id="metadata7">
    <rdf:RDF>
      <cc:Work
         rdf:about="">
        <dc:format>image/svg+xml</dc:format>
        <dc:type
           rdf:resource="http://purl.org/dc/dcmitype/StillImage" />
        <dc:title />
      </cc:Work>
    </rdf:RDF>
  </metadata>
  <g
     inkscape:label="Capa 1"
     inkscape:groupmode="layer"
     id="layer1"
     transform="translate(0,-1004.3622)">
    <g
       id="g835"
       transform="translate(-56.786945,0.92549346)">
      <rect
         ry="6.3565426"
         y="1004.6867"
         x="58.036945"
         height="45.5"
         width="45.5"
         id="rect6294"
         style="color:#000000;fill:#333333;fill-opacity:1;fill-rule:nonzero;stroke:none;stroke-width:0.2;marker:none;visibility:visible;display:inline;overflow:visible;enable-background:accumulate" />
      <rect
         style="color:#000000;fill:url(#linearGradient833);fill-opacity:1;fill-rule:nonzero;stroke:none;stroke-width:0.2;marker:none;visibility:visible;display:inline;overflow:visible;enable-background:accumulate"
         id="rect6296"
         width="44.5"
         height="44.5"
         x="58.536945"
         y="1005.1867"
         ry="5.8565426" />
      <path
         inkscape:connector-curvature="0"
         style="color:#000000;fill:#ffffff;fill-opacity:1;fill-rule:nonzero;stroke:none;stroke-width:0.2;marker:none;visibility:visible;display:inline;overflow:visible;enable-background:accumulate"
         d="m 58.536945,1011.6242 0,-0.5625 c 0,-3.2445 2.599225,-5.875 5.84375,-5.875 l 32.8125,0 c 3.244525,0 5.843745,2.6305 5.843745,5.875 l 0,0.5625 c 0,-3.2445 -2.59922,-5.875 -5.843745,-5.875 l -32.8125,0 C 61.13617,1005.7492 58.536945,1008.3797 58.536945,1011.6242 Z"
         id="path6361" />
      <path
         id="path6388"
         d="m 58.536945,1043.2492 0,0.5625 c 0,3.2445 2.599225,5.875 5.84375,5.875 l 32.8125,0 c 3.244525,0 5.843745,-2.6305 5.843745,-5.875 l 0,-0.5625 c 0,3.2445 -2.59922,5.875 -5.843745,5.875 l -32.8125,0 C 61.13617,1049.1242 58.536945,1046.4937 58.536945,1043.2492 Z"
         style="color:#000000;fill:#000000;fill-opacity:1;fill-rule:nonzero;stroke:none;stroke-width:0.2;marker:none;visibility:visible;display:inline;overflow:visible;enable-background:accumulate"
         inkscape:connector-curvature="0" />
    </g>
    <path
       style="fill:#ffffff"
       id="path3835"
       inkscape:connector-curvature="0"
       d="m 35.359556,1043.3622 -6.5621,0 0,-14.1193 -3.529416,0 0,-5.7337 3.529416,0 0,-3.0263 c 0,-4.4654 1.850869,-7.1207 7.110803,-7.1207 l 4.379372,0 0,5.4745 -2.737289,0 c -2.04793,0 -2.182726,0.765 -2.182726,2.193 l -0.008,2.4795 4.958843,0 -0.580205,5.7337 L 35.359556,1029.2429 Z" />
  </g>
</svg>
