<?xml version="1.0" encoding="UTF-8" standalone="no"?>
<!-- Created with Inkscape (http://www.inkscape.org/) -->

<svg
   xmlns:dc="http://purl.org/dc/elements/1.1/"
   xmlns:cc="http://creativecommons.org/ns#"
   xmlns:rdf="http://www.w3.org/1999/02/22-rdf-syntax-ns#"
   xmlns:svg="http://www.w3.org/2000/svg"
   xmlns="http://www.w3.org/2000/svg"
   xmlns:xlink="http://www.w3.org/1999/xlink"
   xmlns:sodipodi="http://sodipodi.sourceforge.net/DTD/sodipodi-0.dtd"
   xmlns:inkscape="http://www.inkscape.org/namespaces/inkscape"
   width="48"
   height="48"
   id="svg2"
   version="1.1"
   inkscape:version="0.48+devel r12012"
   sodipodi:docname="google.svg">
  <defs
     id="defs4">
    <linearGradient
       y2="48"
       x2="90"
       y1="48"
       x1="6"
       gradientTransform="matrix(0,-0.5720176,0.5720176,0,-3.4282867,51.4591)"
       gradientUnits="userSpaceOnUse"
       id="linearGradient918"
       xlink:href="#linearGradient3914-2"
       inkscape:collect="always" />
    <linearGradient
       id="linearGradient3914-2">
      <stop
         id="stop3916-6"
         style="stop-color:#028537;stop-opacity:1"
         offset="0" />
      <stop
         id="stop3918-0"
         style="stop-color:#03b035;stop-opacity:1"
         offset="1" />
    </linearGradient>
    <linearGradient
       gradientTransform="matrix(0.5720176,0,0,0.5720176,-3.4282867,-3.4546)"
       x1="23.362806"
       y1="90.200294"
       x2="27.000059"
       y2="62.572609"
       id="linearGradient3940"
       xlink:href="#linearGradient3934"
       gradientUnits="userSpaceOnUse" />
    <linearGradient
       id="linearGradient3934">
      <stop
         id="stop3936"
         style="stop-color:#e8ac0c;stop-opacity:1"
         offset="0" />
      <stop
         id="stop3938"
         style="stop-color:#e8db0c;stop-opacity:1"
         offset="1" />
    </linearGradient>
    <linearGradient
       gradientTransform="matrix(0.5720176,0,0,0.5720176,-3.4282867,-3.4546)"
       x1="69.788139"
       y1="35.460526"
       x2="69.788139"
       y2="5.5467491"
       id="linearGradient3950"
       xlink:href="#linearGradient3944"
       gradientUnits="userSpaceOnUse" />
    <linearGradient
       id="linearGradient3944">
      <stop
         id="stop3946"
         style="stop-color:#df1a1a;stop-opacity:1"
         offset="0" />
      <stop
         id="stop3948"
         style="stop-color:#e44848;stop-opacity:1"
         offset="1" />
    </linearGradient>
    <linearGradient
       gradientTransform="matrix(0.5720176,0,0,0.5720176,-3.4282867,-3.4546)"
       x1="18.07872"
       y1="59.01622"
       x2="18.215158"
       y2="6.6697359"
       id="linearGradient3930"
       xlink:href="#linearGradient3924"
       gradientUnits="userSpaceOnUse" />
    <linearGradient
       id="linearGradient3924">
      <stop
         id="stop3926"
         style="stop-color:#005ec0;stop-opacity:1"
         offset="0" />
      <stop
         id="stop3928"
         style="stop-color:#0072ea;stop-opacity:1"
         offset="1" />
    </linearGradient>
    <linearGradient
       id="linearGradient4034">
      <stop
         id="stop4036"
         style="stop-color:#ffffff;stop-opacity:1"
         offset="0" />
      <stop
         id="stop4038"
         style="stop-color:#f0f0f0;stop-opacity:1"
         offset="1" />
    </linearGradient>
    <linearGradient
       y2="90.059601"
       x2="24.065893"
       y1="5.1119947"
       x1="24.065893"
       gradientTransform="matrix(0.5720176,0,0,0.5720176,-3.4282867,-3.4546)"
       gradientUnits="userSpaceOnUse"
       id="linearGradient903"
       xlink:href="#linearGradient4034"
       inkscape:collect="always" />
  </defs>
  <sodipodi:namedview
     id="base"
     pagecolor="#ffffff"
     bordercolor="#666666"
     borderopacity="1.0"
     inkscape:pageopacity="0.0"
     inkscape:pageshadow="2"
     inkscape:zoom="4.0000002"
     inkscape:cx="-74.674058"
     inkscape:cy="6.8582821"
     inkscape:document-units="px"
     inkscape:current-layer="layer1"
     showgrid="false"
     inkscape:window-width="1366"
     inkscape:window-height="718"
     inkscape:window-x="0"
     inkscape:window-y="28"
     inkscape:window-maximized="1">
    <inkscape:grid
       type="xygrid"
       id="grid3850" />
  </sodipodi:namedview>
  <metadata
     id="metadata7">
    <rdf:RDF>
      <cc:Work
         rdf:about="">
        <dc:format>image/svg+xml</dc:format>
        <dc:type
           rdf:resource="http://purl.org/dc/dcmitype/StillImage" />
        <dc:title />
      </cc:Work>
    </rdf:RDF>
  </metadata>
  <g
     inkscape:label="Capa 1"
     inkscape:groupmode="layer"
     id="layer1"
     transform="translate(0,-1004.3622)">
    <path
       style="fill:url(#linearGradient918);fill-opacity:1;fill-rule:nonzero;stroke:none"
       d="M 7.375 1.6875 C 4.2307532 1.6875 1.6875 4.2307532 1.6875 7.375 L 1.6875 40.625 C 1.6875 43.769247 4.2307532 46.3125 7.375 46.3125 L 40.625 46.3125 C 43.769247 46.3125 46.3125 43.769247 46.3125 40.625 L 46.3125 7.375 C 46.3125 4.2307532 43.769247 1.6875 40.625 1.6875 L 7.375 1.6875 z "
       transform="translate(0,1004.3622)"
       id="rect2419" />
    <path
       style="fill:url(#linearGradient3940);fill-opacity:1"
       d="M 17.40625 31.84375 C 10.90833 32.26995 2.5206959 32.926 2.25 40.375 C 2.2026379 41.678246 2.5172863 43.154553 3.21875 44.5 C 4.2567045 45.615287 5.7290139 46.3125 7.375 46.3125 L 24 46.3125 C 24.968709 45.109358 25.277253 43.942495 25.375 41.625 C 25.59418 36.4287 20.555682 34.30785 17.40625 31.84375 z "
       transform="translate(0,1004.3622)"
       id="path3932" />
    <path
       style="fill:url(#linearGradient3950);fill-opacity:1;fill-rule:nonzero;stroke:none"
       d="M 25.1875 1.6875 C 26.382382 3.3316943 27.387208 5.014062 27.71875 6.90625 C 28.446831 11.06165 27.204598 14.569 24.84375 17.3125 C 28.739682 13.4687 32.624954 13.2023 36.8125 13.375 C 41.476446 13.567359 44.170263 15.059026 46.3125 16.78125 L 46.3125 7.375 C 46.3125 4.2307532 43.769247 1.6875 40.625 1.6875 L 25.1875 1.6875 z "
       transform="translate(0,1004.3622)"
       id="path3942" />
    <path
       style="fill:url(#linearGradient3930);fill-opacity:1"
       d="M 7.5625 1.6875 C 6.9146468 2.3506936 6.432192 3.1432904 6.1875 4.125 C 5.3014162 7.6799 6.071268 11.82605 7.59375 14.65625 C 9.5625488 18.31625 12.540495 20.7304 16 20 C 18.114297 19.5536 19.920277 18.29515 20.71875 16.71875 C 22.328522 13.54085 21.492682 7.54225 18.78125 3.46875 C 18.289256 2.7296055 17.837523 2.151492 17.40625 1.6875 L 7.5625 1.6875 z M 1.6875 17.71875 L 1.6875 32.90625 C 5.7019836 31.106142 10.046977 30.134583 14.9375 29.8125 C 13.65534 27.8977 12.625659 25.84795 13.46875 22.15625 C 8.1251537 22.324188 4.5384407 21.250313 1.6875 17.71875 z "
       transform="translate(0,1004.3622)"
       id="path3922" />
    <path
       style="fill:url(#linearGradient903);fill-opacity:1;fill-rule:nonzero;stroke:none"
       d="M 7.375 1.6875 C 4.2307532 1.6875 1.6875 4.2307532 1.6875 7.375 L 1.6875 17.71875 C 4.5371117 21.249187 8.1251534 22.324188 13.46875 22.15625 C 12.625659 25.84805 13.65534 27.86655 14.9375 29.78125 C 10.054432 30.1029 5.6966163 31.10859 1.6875 32.90625 L 1.6875 40.625 C 1.6875 42.123261 2.2739507 43.484808 3.21875 44.5 C 2.5166727 43.153462 2.2026378 41.647042 2.25 40.34375 C 2.5206959 32.89485 10.90833 32.26985 17.40625 31.84375 C 20.555681 34.30775 25.59418 36.4286 25.375 41.625 C 25.277253 43.942426 24.968222 45.109191 24 46.3125 L 27.65625 46.3125 C 28.569565 45.065284 29.431906 43.683873 29.96875 42.21875 C 30.550589 40.49455 30.688104 38.0428 30.28125 36.3125 C 29.613975 33.4747 27.828924 31.17255 23.625 27.78125 C 20.255565 25.06315 19.871864 24.56115 20.09375 22.90625 C 20.243121 21.79215 21.032117 20.78195 23.03125 19.09375 C 26.496299 16.15115 28.61485 12.02055 27.71875 6.90625 C 27.387208 5.014062 26.382382 3.3316943 25.1875 1.6875 L 17.40625 1.6875 C 17.837523 2.1514478 18.289256 2.7296055 18.78125 3.46875 C 21.492682 7.54225 22.328522 13.54085 20.71875 16.71875 C 19.920277 18.29515 18.114297 19.5536 16 20 C 12.540495 20.7305 9.5625488 18.31625 7.59375 14.65625 C 6.071268 11.82605 5.3014162 7.68 6.1875 4.125 C 6.432192 3.143351 6.9146468 2.3507131 7.5625 1.6875 L 7.375 1.6875 z "
       transform="translate(0,1004.3622)"
       id="rect3064-7" />
    <path
       style="fill:none;fill-opacity:1;fill-rule:nonzero;stroke:#7d7d7d;stroke-opacity:1;stroke-width:0.4;stroke-miterlimit:4;stroke-dasharray:none"
       d="M 7.375 1.6875 C 4.2307532 1.6875 1.6875 4.2307532 1.6875 7.375 L 1.6875 40.625 C 1.6875 42.296059 2.4173509 43.772512 3.5625 44.8125 C 3.5894953 44.837212 3.5975368 44.882058 3.625 44.90625 C 3.6651701 44.94133 3.7088443 44.966044 3.75 45 C 3.865905 45.096486 3.9703966 45.194112 4.09375 45.28125 C 4.1238637 45.302446 4.156959 45.323128 4.1875 45.34375 C 4.3036821 45.422524 4.4404177 45.492356 4.5625 45.5625 C 4.5952809 45.58115 4.623065 45.606987 4.65625 45.625 C 4.790623 45.698617 4.921786 45.749757 5.0625 45.8125 C 5.3629141 45.946424 5.6746682 46.044304 6 46.125 C 6.0643337 46.141216 6.1222934 46.173504 6.1875 46.1875 C 6.5675222 46.267349 6.9710158 46.3125 7.375 46.3125 L 40.625 46.3125 C 43.769247 46.3125 46.3125 43.769247 46.3125 40.625 L 46.3125 16.78125 L 46.3125 7.375 C 46.3125 4.2307532 43.769247 1.6875 40.625 1.6875 L 25.1875 1.6875 L 7.375 1.6875 z "
       transform="translate(0,1004.3622)"
       id="path1085" />
  </g>
</svg>
