<?xml version="1.0" encoding="UTF-8" standalone="no"?>
<!-- Created with Inkscape (http://www.inkscape.org/) -->

<svg
   xmlns:dc="http://purl.org/dc/elements/1.1/"
   xmlns:cc="http://creativecommons.org/ns#"
   xmlns:rdf="http://www.w3.org/1999/02/22-rdf-syntax-ns#"
   xmlns:svg="http://www.w3.org/2000/svg"
   xmlns="http://www.w3.org/2000/svg"
   xmlns:xlink="http://www.w3.org/1999/xlink"
   xmlns:sodipodi="http://sodipodi.sourceforge.net/DTD/sodipodi-0.dtd"
   xmlns:inkscape="http://www.inkscape.org/namespaces/inkscape"
   width="48"
   height="48"
   id="svg2"
   version="1.1"
   inkscape:version="0.48+devel r12137"
   sodipodi:docname="googleplus.svg">
  <defs
     id="defs4">
    <linearGradient
       id="linearGradient3700-1">
      <stop
         id="stop3702-6-8"
         style="stop-color:#1a1818;stop-opacity:1"
         offset="0" />
      <stop
         id="stop3704-7"
         style="stop-color:#403d3d;stop-opacity:1"
         offset="1" />
    </linearGradient>
    <linearGradient
       inkscape:collect="always"
       xlink:href="#linearGradient3700-1"
       id="linearGradient840"
       x1="24.088388"
       y1="1050.5238"
       x2="24.088388"
       y2="1006.0883"
       gradientUnits="userSpaceOnUse" />
  </defs>
  <sodipodi:namedview
     id="base"
     pagecolor="#ffffff"
     bordercolor="#666666"
     borderopacity="1.0"
     inkscape:pageopacity="0.0"
     inkscape:pageshadow="2"
     inkscape:zoom="4"
     inkscape:cx="2.9392582"
     inkscape:cy="33.241036"
     inkscape:document-units="px"
     inkscape:current-layer="layer1"
     showgrid="false"
     inkscape:window-width="1366"
     inkscape:window-height="714"
     inkscape:window-x="0"
     inkscape:window-y="30"
     inkscape:window-maximized="1">
    <inkscape:grid
       type="xygrid"
       id="grid3850" />
  </sodipodi:namedview>
  <metadata
     id="metadata7">
    <rdf:RDF>
      <cc:Work
         rdf:about="">
        <dc:format>image/svg+xml</dc:format>
        <dc:type
           rdf:resource="http://purl.org/dc/dcmitype/StillImage" />
        <dc:title />
      </cc:Work>
    </rdf:RDF>
  </metadata>
  <g
     inkscape:label="Capa 1"
     inkscape:groupmode="layer"
     id="layer1"
     transform="translate(0,-1004.3622)">
    <rect
       style="color:#000000;fill:#333333;fill-opacity:1;fill-rule:nonzero;stroke:none;stroke-width:0.2;marker:none;visibility:visible;display:inline;overflow:visible;enable-background:accumulate"
       id="rect6294"
       width="45.5"
       height="45.5"
       x="1.25"
       y="1005.6122"
       ry="6.3565426" />
    <rect
       ry="5.8565426"
       y="1006.1122"
       x="1.75"
       height="44.5"
       width="44.5"
       id="rect6296"
       style="color:#000000;fill:url(#linearGradient840);fill-opacity:1;fill-rule:nonzero;stroke:none;stroke-width:0.2;marker:none;visibility:visible;display:inline;overflow:visible;enable-background:accumulate" />
    <path
       inkscape:connector-curvature="0"
       style="color:#000000;fill:#000000;fill-opacity:1;fill-rule:nonzero;stroke:none;stroke-width:0.2;marker:none;visibility:visible;display:inline;overflow:visible;enable-background:accumulate"
       d="m 1.7499988,1044.1748 0,0.5625 c 0,3.2445 2.599225,5.875 5.84375,5.875 l 32.8125002,0 c 3.244525,0 5.84375,-2.6305 5.84375,-5.875 l 0,-0.5625 c 0,3.2445 -2.599225,5.875 -5.84375,5.875 l -32.8125002,0 C 4.3492238,1050.0498 1.7499988,1047.4193 1.7499988,1044.1748 Z"
       id="path6388" />
    <path
       style="fill:#d91f1c;fill-opacity:1;fill-rule:nonzero;stroke:none"
       d="M 7.59375 1.75 C 5.0141137 1.75 2.8475662 3.411318 2.0625 5.71875 L 11.4375 5.71875 L 11.4375 1.75 L 7.59375 1.75 z "
       transform="translate(0,1004.3622)"
       id="rect3822" />
    <path
       style="fill:#eeb91c;fill-opacity:1;fill-rule:nonzero;stroke:none"
       d="M 36.59375 1.75 L 36.59375 5.71875 L 45.9375 5.71875 C 45.152434 3.411318 42.985886 1.75 40.40625 1.75 L 36.59375 1.75 z "
       transform="translate(0,1004.3622)"
       id="path3833" />
    <path
       style="fill:#4776ec;fill-opacity:1;fill-rule:nonzero;stroke:none"
       d="M 11.4375 1.75 L 11.4375 5.71875 L 24 5.71875 L 24 1.75 L 11.4375 1.75 z "
       transform="translate(0,1004.3622)"
       id="path3829" />
    <path
       style="fill:#22a938;fill-opacity:1;fill-rule:nonzero;stroke:none"
       d="M 24 1.75 L 24 5.71875 L 36.59375 5.71875 L 36.59375 1.75 L 24 1.75 z "
       transform="translate(0,1004.3622)"
       id="path3831" />
    <path
       id="path6361"
       d="m 1.7499988,1012.5498 0,-0.5625 c 0,-3.2445 2.599225,-5.875 5.84375,-5.875 l 32.8125002,0 c 3.244525,0 5.84375,2.6305 5.84375,5.875 l 0,0.5625 c 0,-3.2445 -2.599225,-5.875 -5.84375,-5.875 l -32.8125002,0 C 4.3492238,1006.6748 1.7499988,1009.3053 1.7499988,1012.5498 Z"
       style="color:#000000;fill:#ffffff;fill-opacity:1;fill-rule:nonzero;stroke:none;stroke-width:0.2;marker:none;visibility:visible;display:inline;overflow:visible;enable-background:accumulate"
       inkscape:connector-curvature="0" />
    <g
       transform="matrix(0.9375,0,0,0.9375,1.5000002,63.6827)"
       id="g850">
      <path
         d="m 19.372277,1015.1324 c -2.228015,0 -5.019307,0.3329 -7.371623,2.273 -1.774121,1.5265 -2.6415065,3.6308 -2.6415015,5.5288 0,3.2181 2.4846695,6.471 6.8597025,6.471 0.412456,0 0.856631,-0.043 1.310511,-0.082 -0.207162,0.4954 -0.409528,0.9164 -0.409533,1.6179 0,1.2777 0.650415,2.0616 1.2286,2.8047 -1.85699,0.1239 -5.325935,0.3365 -7.883537,1.9044 -2.4370645,1.4448 -3.1738895,3.5512 -3.1738895,5.0371 0,3.0544 2.8811115,5.897 8.8664165,5.897 7.100271,0 10.873201,-3.9215 10.873201,-7.8012 0,-2.8475 -1.665542,-4.2475 -3.481084,-5.7749 l -1.474332,-1.1669 c -0.453897,-0.3715 -1.085269,-0.8531 -1.085275,-1.7613 0,-0.9082 0.632308,-1.4902 1.167177,-2.0264 1.734513,-1.3614 3.460612,-2.8018 3.460612,-5.8563 l 0,-0.3075 -0.02064,-0.2666 -0.02052,-0.2865 -0.04071,-0.2661 -0.06169,-0.2458 -0.04071,-0.245 -0.06192,-0.246 -0.08164,-0.225 -0.08164,-0.2252 -0.08164,-0.2257 -0.08165,-0.2047 -0.1024,-0.2052 -0.1024,-0.1843 -0.1024,-0.1843 -0.122857,-0.1841 -0.1024,-0.1843 -0.12288,-0.1634 -0.122834,-0.1642 -0.1024,-0.1434 -0.12288,-0.1434 -0.122846,-0.1431 -0.12288,-0.123 -0.122845,-0.1433 -0.122857,-0.1227 -0.122892,-0.102 -0.122823,-0.1021 -0.1024,-0.1021 -0.122891,-0.102 -0.1024,-0.1021 -0.102354,-0.081 -0.08186,-0.081 -0.102388,-0.081 2.559575,0 2.641508,-1.4743 L 19.372277,1015.1324 z m 14.784217,0 0,5.2421 -5.242066,0 0,1.311 5.242065,0 0,5.2415 1.310491,0 0,-5.2415 5.242009,0 0,-1.311 -5.242009,0 0,-5.2421 L 34.156494,1015.1324 z m -17.364284,1.3515 c 3.427707,0 5.201097,4.6257 5.20109,7.5963 l 0,0.081 0,0.067 0,0.082 -0.02051,0.081 0,0.081 0,0.081 0,0.1009 -0.0205,0.081 0,0.1021 -0.0205,0.081 0,0.1021 -0.02051,0.102 -0.0205,0.081 -0.0205,0.1021 -0.0205,0.1009 -0.0205,0.1009 -0.0205,0.1021 -0.04091,0.102 -0.04091,0.1021 -0.0205,0.1009 -0.04091,0.1009 -0.06147,0.102 -0.04091,0.1021 -0.04092,0.1021 -0.06147,0.102 -0.06147,0.1009 -0.06147,0.1021 -0.06147,0.081 -0.0819,0.102 -0.06147,0.1021 -0.102388,0.081 -0.08187,0.1021 c -0.661059,0.6598 -1.773232,1.1462 -2.805312,1.1462 -3.550125,0 -5.160137,-4.586 -5.160137,-7.3509 0,-1.0733 0.220846,-2.1844 0.921454,-3.0509 C 14.566044,1017.0295 15.720572,1016.4839 16.79221,1016.4839 z m 2.006712,18.4286 0.04091,0 0.04091,0 0.04091,0 0.04091,0 0.0205,0 0.04091,0 0.0205,0 0.04091,0 0.04091,0 0.0205,0 0.06147,0 0.06147,0 0.04091,0 0.06147,0 0.04091,0 0.06147,0 0.06147,0 0.04091,0.015 0.06147,0 0.06147,0 0.02049,0 0.04091,0.015 c 3.137635,2.23 4.504859,3.3408 4.504859,5.4468 0,2.5595 -2.118982,4.4435 -6.08157,4.4435 -4.416471,0 -7.248759,-2.1072 -7.248759,-5.0373 0,-2.9318 2.632816,-3.909 3.542474,-4.2386 C 16.211032,1034.9892 18.427912,1034.9125 18.798922,1034.9125 Z"
         inkscape:connector-curvature="0"
         id="path208"
         style="font-style:normal;font-variant:normal;font-weight:normal;font-stretch:normal;letter-spacing:normal;word-spacing:normal;text-anchor:start;fill:#ffffff;fill-opacity:1;fill-rule:nonzero;stroke:none" />
      <path
         inkscape:connector-curvature="0"
         id="path835"
         d="m 27.005838,1015.6623 -1.755879,0.9675 -2.544233,0 0.07167,0.1078 0.107503,0.071 0.107502,0.071 0.07167,0.1078 0.143337,0.1077 0.03583,0.036 2.006719,0 2.651736,-1.4692 L 27.005838,1015.6623 z m -10.212766,0.86 c -1.071638,0 -2.241207,0.5496 -2.902575,1.3617 -0.700608,0.8665 -0.895857,1.9726 -0.895857,3.0459 0,0.067 -0.0018,0.1464 0,0.215 0.03679,-0.9841 0.256056,-1.968 0.895857,-2.7592 0.661368,-0.8121 1.830937,-1.3617 2.902575,-1.3617 3.324218,0 5.092228,4.3379 5.195969,7.3102 l 0,-0.071 0,-0.071 0,-0.071 C 21.989048,1021.1486 20.22078,1016.5223 16.793072,1016.5223 z m 12.111981,5.1959 0,0.5017 5.267638,0 0,-0.5017 L 28.905054,1021.7182 z m 6.557671,0 0,0.5017 5.231803,0 0,-0.5017 L 35.462725,1021.7182 z m -9.854423,0.7167 c -0.08275,2.9012 -1.748748,4.3344 -3.44009,5.6618 -0.534868,0.5362 -1.182531,1.0986 -1.182531,2.0068 0,0.064 0.02991,0.1196 0.03584,0.1792 0.12834,-0.7271 0.678686,-1.215 1.146696,-1.6843 1.734513,-1.3613 3.44009,-2.8222 3.44009,-5.8768 L 25.608302,1022.4349 z m -16.2329225,1.1467 c 0.05414,3.183 2.5175675,6.3785 6.8443445,6.3785 0.346009,0 0.733207,-0.074 1.110863,-0.1078 0.0633,-0.1722 0.141784,-0.3265 0.215005,-0.5016 -0.45388,0.039 -0.913412,0.071 -1.325868,0.071 C 12.11813,1029.4227 9.6643745,1026.5907 9.3753785,1023.5816 z m 24.7973125,3.3685 0,0.5016 1.290033,0 0,-0.5016 L 34.172691,1026.9501 z m -17.021276,4.2643 c -0.0069,0.086 -0.03583,0.1559 -0.03583,0.2508 0,0.9935 0.377474,1.72 0.824188,2.3293 0.122044,-0.011 0.283123,-0.029 0.394177,-0.036 C 17.794873,1033.0658 17.230376,1032.3454 17.151415,1031.2144 z m 1.648375,3.7267 c -0.371009,0 -2.603217,0.078 -4.335945,0.6451 -0.90966,0.3295 -3.511758,1.2965 -3.511758,4.2284 0.292581,-2.5243 2.658951,-3.4178 3.511758,-3.7268 1.732728,-0.5675 3.964936,-0.645 4.335945,-0.645 l 0.03583,0 0.03583,0 0.03583,0 0.07167,0 0.03584,0 0.03583,0 0.03583,0 0.03583,0 0.03583,0 0.03583,0 0.07167,0 0.03583,0 0.07167,0 0.03583,0 0.07167,0 0.07167,0 0.03583,0.036 0.03583,0 0.07167,0 0.03583,0 0.03583,0 c 2.987804,2.1235 4.354066,3.2407 4.479284,5.1601 0.0036,-0.073 0.03583,-0.1407 0.03583,-0.215 0,-2.106 -1.377483,-3.2168 -4.515118,-5.4468 l -0.03583,-0.036 -0.03583,0 -0.07167,0 -0.03583,0 -0.03583,0 -0.07167,0 -0.07167,0 -0.03583,0 -0.07167,0 -0.03583,0 -0.07167,0 -0.03583,0 -0.03583,0 -0.03583,0 -0.03583,0 -0.03583,0 -0.03584,0 -0.07167,0 -0.03583,0 -0.03583,0 L 18.799791,1034.9411 z m 8.206047,4.0852 c -0.139575,3.8066 -3.89152,7.5968 -10.857783,7.5968 -5.82228,0 -8.6982285,-2.7037 -8.8510625,-5.6618 -0.0045,0.085 0,0.1699 0,0.2508 0,3.0544 2.8657585,5.9127 8.8510625,5.9127 7.100272,0 10.893617,-3.9321 10.893617,-7.8119 C 27.041672,1039.2109 27.01005,1039.1246 27.005838,1039.0263 Z"
         style="font-style:normal;font-variant:normal;font-weight:normal;font-stretch:normal;letter-spacing:normal;word-spacing:normal;text-anchor:start;fill:#ffffff;fill-opacity:0.3938224;fill-rule:nonzero;stroke:none" />
      <path
         inkscape:connector-curvature="0"
         id="path840"
         d="m 19.373139,1015.1248 c -2.228015,0 -5.029542,0.3533 -7.381858,2.2934 -1.640841,1.4118 -2.4593335,3.3085 -2.5800685,5.0885 0.190275,-1.6952 1.0277125,-3.4662 2.5800685,-4.8018 2.352316,-1.9401 5.153843,-2.2576 7.381858,-2.2576 l 7.955208,0 0.573348,-0.3225 L 19.373139,1015.1248 z m 14.799552,0 0,0.3225 1.290034,0 0,-0.3225 L 34.172691,1015.1248 z m -5.267637,5.2676 0,0.2867 5.267637,0 0,-0.2867 L 28.905054,1020.3924 z m 6.557671,0 0,0.2867 5.231803,0 0,-0.2867 L 35.462725,1020.3924 Z M 13.24548,1023.08 c 0.532638,2.5782 2.09144,5.4826 4.909294,5.4826 0.223125,0 0.456358,-0.029 0.680851,-0.072 -0.02824,-0.096 -0.08534,-0.1867 -0.107502,-0.2867 -0.188719,0.03 -0.386178,0.036 -0.573349,0.036 C 15.448584,1028.2401 13.844066,1025.5705 13.24548,1023.08 z m 4.156775,6.5577 c -0.152803,0.3748 -0.28667,0.7421 -0.286674,1.29 0,0.049 -0.0018,0.096 0,0.1433 0.03134,-0.5962 0.241251,-0.982 0.430011,-1.4333 C 17.496667,1029.6419 17.450926,1029.6334 17.402255,1029.6377 z m 3.619261,1.0392 c 0.114183,0.7252 0.635806,1.139 1.039193,1.4692 l 1.50504,1.1825 c 1.742748,1.4662 3.350155,2.8224 3.475923,5.4468 0,-2.8475 -1.660382,-4.2419 -3.475923,-5.7693 l -1.50504,-1.1825 c -0.335091,-0.2743 -0.729841,-0.6259 -0.931691,-1.1467 -0.01212,0 -0.02375,2e-4 -0.03583,0 C 21.069022,1030.6764 21.045508,1030.6783 21.021516,1030.6769 z m -2.902576,3.0817 c -1.895402,0.1268 -5.193978,0.3823 -7.668533,1.8992 -2.4370645,1.4449 -3.1534155,3.5309 -3.1534155,5.0168 0.09723,-1.4584 0.883247,-3.3842 3.1534155,-4.7301 2.557602,-1.5679 6.026549,-1.7752 7.883539,-1.8992 C 18.261673,1033.9524 18.192059,1033.8537 18.11894,1033.7586 z m -7.166853,6.5935 c 0.159367,2.7969 2.950864,4.8018 7.238522,4.8018 3.962587,0 6.091825,-1.8839 6.091825,-4.4434 0,-0.062 0.0024,-0.1188 0,-0.1792 -0.0788,2.4854 -2.20444,4.3001 -6.091825,4.3001 C 14.050166,1044.8314 11.279425,1042.9979 10.952087,1040.3521 Z"
         style="font-style:normal;font-variant:normal;font-weight:normal;font-stretch:normal;letter-spacing:normal;word-spacing:normal;text-anchor:start;fill:#000000;fill-opacity:0.28185329;fill-rule:nonzero;stroke:none" />
    </g>
  </g>
</svg>
