<?xml version="1.0" encoding="UTF-8" standalone="no"?>
<!-- Created with Inkscape (http://www.inkscape.org/) -->

<svg
   xmlns:dc="http://purl.org/dc/elements/1.1/"
   xmlns:cc="http://creativecommons.org/ns#"
   xmlns:rdf="http://www.w3.org/1999/02/22-rdf-syntax-ns#"
   xmlns:svg="http://www.w3.org/2000/svg"
   xmlns="http://www.w3.org/2000/svg"
   xmlns:xlink="http://www.w3.org/1999/xlink"
   xmlns:sodipodi="http://sodipodi.sourceforge.net/DTD/sodipodi-0.dtd"
   xmlns:inkscape="http://www.inkscape.org/namespaces/inkscape"
   width="48"
   height="48"
   id="svg2"
   version="1.1"
   inkscape:version="0.48+devel r12149"
   sodipodi:docname="software-properties.svg">
  <defs
     id="defs4">
    <linearGradient
       id="linearGradient1445"
       inkscape:collect="always">
      <stop
         id="stop1447"
         offset="0"
         style="stop-color:#c4996c;stop-opacity:1" />
      <stop
         id="stop1449"
         offset="1"
         style="stop-color:#d7ad87;stop-opacity:1" />
    </linearGradient>
    <linearGradient
       gradientTransform="matrix(0.97255569,0,0,1.2057708,0.15694712,999.83903)"
       gradientUnits="userSpaceOnUse"
       y2="11"
       x2="25.5"
       y1="37.25"
       x1="25.5"
       id="linearGradient1625"
       xlink:href="#linearGradient1619"
       inkscape:collect="always" />
    <linearGradient
       id="linearGradient1619"
       inkscape:collect="always">
      <stop
         id="stop1621"
         offset="0"
         style="stop-color:#ddddde;stop-opacity:1" />
      <stop
         id="stop1623"
         offset="1"
         style="stop-color:#ffffff;stop-opacity:1" />
    </linearGradient>
    <linearGradient
       gradientUnits="userSpaceOnUse"
       y2="1006.0883"
       x2="24.441942"
       y1="1050.1703"
       x1="24.441942"
       id="linearGradient1652"
       xlink:href="#linearGradient1445"
       inkscape:collect="always"
       gradientTransform="translate(0,1.7382813e-5)" />
  </defs>
  <sodipodi:namedview
     id="base"
     pagecolor="#ffffff"
     bordercolor="#666666"
     borderopacity="1.0"
     inkscape:pageopacity="0.0"
     inkscape:pageshadow="2"
     inkscape:zoom="5.6568546"
     inkscape:cx="11.790357"
     inkscape:cy="27.610066"
     inkscape:document-units="px"
     inkscape:current-layer="layer1"
     showgrid="false"
     inkscape:window-width="1366"
     inkscape:window-height="716"
     inkscape:window-x="0"
     inkscape:window-y="28"
     inkscape:window-maximized="1">
    <inkscape:grid
       type="xygrid"
       id="grid3850"
       empspacing="5"
       visible="true"
       enabled="true"
       snapvisiblegridlinesonly="true" />
  </sodipodi:namedview>
  <metadata
     id="metadata7">
    <rdf:RDF>
      <cc:Work
         rdf:about="">
        <dc:format>image/svg+xml</dc:format>
        <dc:type
           rdf:resource="http://purl.org/dc/dcmitype/StillImage" />
        <dc:title />
      </cc:Work>
    </rdf:RDF>
  </metadata>
  <g
     inkscape:label="Capa 1"
     inkscape:groupmode="layer"
     id="layer1"
     transform="translate(0,-1004.3622)">
    <rect
       style="color:#000000;fill:#333333;fill-opacity:1;fill-rule:nonzero;stroke:none;stroke-width:0.2;marker:none;visibility:visible;display:inline;overflow:visible;enable-background:accumulate"
       id="rect6294"
       width="45.5"
       height="45.5"
       x="1.25"
       y="1005.6122"
       ry="6.3565426" />
    <rect
       ry="5.8565426"
       y="1006.1122"
       x="1.75"
       height="44.5"
       width="44.5"
       id="rect6296"
       style="color:#000000;fill:url(#linearGradient1652);fill-opacity:1;fill-rule:nonzero;stroke:none;stroke-width:0.2;marker:none;visibility:visible;display:inline;overflow:visible;enable-background:accumulate" />
    <g
       id="g1505"
       transform="matrix(0.56289471,0,0,0.56289471,19.926754,458.27389)">
      <path
         id="path2059"
         transform="translate(0,1004.3622)"
         d="m 22.71875,36.40625 -0.59375,1 -0.59375,1 0.53125,0 0,5.15625 1.28125,0 0,-5.15625 0.5625,0 -0.59375,-1 L 22.71875,36.40625 z m 3.96875,0 -0.59375,1 -0.59375,1 0.5625,0 0,5.15625 1.25,0 0,-5.15625 0.5625,0 -0.59375,-1 L 26.6875,36.40625 z m 13.78125,0.25 0,0.8125 c -2.034055,0.122533 -3.65625,1.294655 -3.65625,2.75 0,-0.2634 0.451152,-0.46875 1,-0.46875 0.548848,0 1,0.20535 1,0.46875 0,-0.2634 0.451153,-0.46875 1,-0.46875 0.261836,0 0.478619,0.04551 0.65625,0.125 l 0,3.9375 c 10e-7,0.1756 -0.136869,0.3125 -0.3125,0.3125 -0.175631,0 -0.3125,-0.1369 -0.3125,-0.3125 l 0,-0.15625 -0.625,0 0,0.15625 c 0,0.5269 0.410605,0.9375 0.9375,0.9375 0.526893,0 0.968749,-0.4106 0.96875,-0.9375 l 0,-3.9375 c 0.17763,-0.07949 0.394414,-0.125 0.65625,-0.125 0.548848,0 1,0.20535 1,0.46875 0,-0.2634 0.451153,-0.46875 1,-0.46875 0.548848,0 1,0.20535 1,0.46875 0,-1.459743 -1.613417,-2.63361 -3.65625,-2.75 l 0,-0.8125 L 40.46875,36.65625 z m -11.3125,0.9375 c 0.05393,0.7136 0.261906,1.3635 0.5625,1.9375 l 0.5625,-0.84375 -0.15625,-0.0625 -0.21875,-0.09375 0.125,-0.1875 0.40625,-0.75 L 29.15625,37.59375 z m 1.71875,0 -0.40625,0.71875 0.1875,0.0625 0.25,0.09375 -0.15625,0.21875 -0.78125,1.25 c 0.575064,0.872812 1.412392,1.487331 2.375,1.625 l 0,2.5625 -1.59375,0 0,0.625 4,0 0,-0.625 -1.59375,0 0,-2.59375 c 1.688929,-0.233677 3.031756,-1.876768 3.1875,-3.9375 L 30.875,37.59375 z m -10.15625,6.375 0,0.78125 7.96875,0 0,-0.78125 L 20.71875,43.96875 Z"
         style="fill:#4f453d;fill-opacity:1;stroke:none"
         inkscape:connector-curvature="0" />
      <path
         id="path1495"
         transform="translate(0,1004.3622)"
         d="m 22.71875,36.40625 -0.59375,1 -0.59375,1 0.15625,0 0.4375,-0.71875 0.59375,-1 0.59375,1 0.4375,0.71875 0.15625,0 -0.59375,-1 L 22.71875,36.40625 z m 3.96875,0 -0.59375,1 -0.59375,1 0.15625,0 0.4375,-0.71875 0.59375,-1 0.59375,1 0.4375,0.71875 0.15625,0 -0.59375,-1 L 26.6875,36.40625 z m 13.78125,0.25 0,0.28125 0.65625,0 0,-0.28125 L 40.46875,36.65625 z m 0,0.8125 c -2.034055,0.122533 -3.65625,1.294655 -3.65625,2.75 0,-0.03512 0.0473,-0.06104 0.0625,-0.09375 0.267179,-1.26366 1.751366,-2.263953 3.59375,-2.375 L 40.46875,37.46875 z m 0.65625,0 0,0.28125 c 1.863301,0.10617 3.374677,1.09484 3.625,2.375 0.01172,0.02892 0.03125,0.06302 0.03125,0.09375 C 44.78125,38.759007 43.167833,37.58514 41.125,37.46875 z m -11.96875,0.125 c 0.0071,0.09437 0.01887,0.189131 0.03125,0.28125 l 1.09375,0.03125 0.15625,-0.3125 L 29.15625,37.59375 z m 1.71875,0 -0.40625,0.71875 0.15625,0.0625 0.25,-0.5 5.4375,0 c 0.01227,-0.09383 0.02401,-0.185523 0.03125,-0.28125 L 30.875,37.59375 z m -0.8125,1 -0.03125,0.0625 -0.125,0.1875 0.21875,0.09375 0.15625,-0.25 L 30.125,38.625 30.0625,38.59375 z m 0.6875,0.09375 -0.78125,1.25 c 0.02969,0.04506 0.06269,0.08135 0.09375,0.125 L 30.75,38.96875 30.90625,38.75 30.75,38.6875 z m 8.46875,4.96875 0,0.15625 c 0,0.0445 0.02557,0.08234 0.03125,0.125 l 0.59375,0 0,0.1875 c 0,0.1756 0.136869,0.3125 0.3125,0.3125 0.175631,0 0.312501,-0.1369 0.3125,-0.3125 l 0,-0.3125 c 10e-7,0.1756 -0.136869,0.3125 -0.3125,0.3125 -0.175631,0 -0.3125,-0.1369 -0.3125,-0.3125 l 0,-0.15625 L 39.21875,43.65625 z m -18.5,0.3125 0,0.28125 7.96875,0 0,-0.28125 L 20.71875,43.96875 Z M 30.75,44.125 l 0,0.28125 1.59375,0 0,-0.28125 L 30.75,44.125 z m 2.40625,0 0,0.28125 1.59375,0 0,-0.28125 L 33.15625,44.125 Z"
         style="fill:#000000;fill-opacity:0.23529412;stroke:none"
         inkscape:connector-curvature="0" />
      <path
         inkscape:connector-curvature="0"
         id="path1500"
         d="m 29.15625,1042.206 c 0.05393,0.7136 0.261906,1.3635 0.5625,1.9375 l 0.5625,-0.8438 -0.125,-0.062 -0.4375,0.6875 c -0.267644,-0.5111 -0.453819,-1.0959 -0.53125,-1.7187 L 29.15625,1042.206 z m 1.15625,0 -0.28125,0.5312 -0.125,0.1875 0.125,0.031 0.40625,-0.75 L 30.3125,1042.206 z m 6,0 c -0.238961,1.9453 -1.534509,3.463 -3.15625,3.6875 l 0,0.25 c 1.688929,-0.2337 3.031756,-1.8768 3.1875,-3.9375 L 36.3125,1042.206 z m -5.71875,0.5 -0.125,0.2187 0.1875,0.062 0.09375,0.031 0.15625,-0.1875 -0.25,-0.094 L 30.59375,1042.706 z m -8.9375,0.094 -0.125,0.2188 0.53125,0 0,-0.2188 L 21.65625,1042.7997 z m 1.6875,0 0,0.2188 0.5625,0 -0.125,-0.2188 L 23.34375,1042.7997 z m 2.28125,0 -0.125,0.2188 0.5625,0 0,-0.2188 L 25.625,1042.7997 z m 1.6875,0 0,0.2188 0.5625,0 L 27.75,1042.8 27.3125,1042.7997 z m 10.5,1.3125 c -0.503111,0 -0.902074,0.2058 -0.96875,0.4375 -0.01384,0.093 -0.03125,0.185 -0.03125,0.2813 0,-0.2634 0.451152,-0.4688 1,-0.4688 0.548848,0 1,0.2054 1,0.4688 0,-0.2634 0.451153,-0.4688 1,-0.4688 0.261836,0 0.478619,0.045 0.65625,0.125 l 0,-0.25 c -0.177631,-0.08 -0.394414,-0.125 -0.65625,-0.125 -0.548847,0 -1,0.2366 -1,0.5 C 38.8125,1044.3488 38.361348,1044.1122 37.8125,1044.1122 z m 3.96875,0 c -0.261836,0 -0.47862,0.045 -0.65625,0.125 l 0,0.25 c 0.17763,-0.08 0.394414,-0.125 0.65625,-0.125 0.548848,0 1,0.2054 1,0.4688 0,-0.2634 0.451153,-0.4688 1,-0.4688 0.548848,0 1,0.2054 1,0.4688 0,-0.097 -0.01748,-0.1875 -0.03125,-0.2813 -0.06668,-0.2317 -0.465639,-0.4375 -0.96875,-0.4375 -0.548847,0 -1,0.2366 -1,0.5 C 42.78125,1044.3488 42.330098,1044.1122 41.78125,1044.1122 z m -11.71875,0.3125 -0.09375,0.125 c 0.575064,0.8728 1.412392,1.4873 2.375,1.625 l 0,-0.25 C 31.429272,1045.794 30.633401,1045.2288 30.0625,1044.4247 z m -8,3.5 0,0.25 1.28125,0 0,-0.25 L 22.0625,1047.9247 z m 4,0 0,0.25 1.25,0 0,-0.25 L 26.0625,1047.9247 z m 15.0625,0.25 c -10e-7,0.5269 -0.441857,0.9375 -0.96875,0.9375 -0.493074,0 -0.858056,-0.3658 -0.90625,-0.8437 -1.74e-4,0 -0.03108,0 -0.03125,0 l 0,0.1562 c 0,0.5269 0.410605,0.9375 0.9375,0.9375 0.526893,0 0.968749,-0.4106 0.96875,-0.9375 L 41.125,1048.1747 z m -20.40625,0.9375 0,0.25 7.96875,0 0,-0.25 L 20.71875,1049.1122 z m 10.03125,0 0,0.25 4,0 0,-0.25 L 30.75,1049.1122 Z"
         style="fill:#ffffff;fill-opacity:0.13714288;stroke:none" />
    </g>
    <g
       id="g1722"
       transform="translate(0,1.7382813e-5)">
      <g
         id="g1716">
        <path
           inkscape:connector-curvature="0"
           style="fill:#ffffff;fill-opacity:0.13714288;stroke:none"
           d="m 1.75,17.34375 0,13.53125 44.5,0 0,-13.53125 L 1.75,17.34375 Z"
           transform="translate(0,1004.3622)"
           id="path1552" />
        <path
           inkscape:connector-curvature="0"
           style="fill:#ffffff;fill-opacity:0.13714288;stroke:none"
           d="m 1.75,23.96875 0,0.28125 44.5,0 0,-0.28125 L 1.75,23.96875 Z"
           transform="translate(0,1004.3622)"
           id="path1554" />
        <path
           inkscape:connector-curvature="0"
           style="fill:#000000;fill-opacity:0.13714288;stroke:none"
           d="m 1.75,24.25 0,0.3125 44.5,0 0,-0.3125 L 1.75,24.25 Z"
           transform="translate(0,1004.3622)"
           id="path1556" />
        <path
           inkscape:connector-curvature="0"
           style="fill:#ffffff;fill-opacity:0.13714288;stroke:none"
           d="m 1.75,24.5625 0,0.28125 44.5,0 0,-0.28125 L 1.75,24.5625 Z"
           transform="translate(0,1004.3622)"
           id="path1558" />
      </g>
      <g
         id="g1710">
        <path
           inkscape:connector-curvature="0"
           style="fill:#ffffff;fill-opacity:0.13714288;stroke:none"
           d="m 17.21875,1.75 0,44.5 13.5625,0 0,-44.5 L 17.21875,1.75 Z"
           transform="translate(0,1004.3622)"
           id="rect1532" />
        <path
           inkscape:connector-curvature="0"
           style="fill:#ffffff;fill-opacity:0.13714288;stroke:none"
           d="m 23.84375,1.75 0,44.5 0.3125,0 0,-44.5 L 23.84375,1.75 Z"
           transform="translate(0,1004.3622)"
           id="rect1537" />
        <path
           inkscape:connector-curvature="0"
           style="fill:#000000;fill-opacity:0.13714288;stroke:none"
           d="m 24.15625,1.75 0,44.5 0.28125,0 0,-44.5 L 24.15625,1.75 Z"
           transform="translate(0,1004.3622)"
           id="rect1539" />
        <path
           inkscape:connector-curvature="0"
           style="fill:#ffffff;fill-opacity:0.13714288;stroke:none"
           d="m 24.4375,1.75 0,44.5 0.3125,0 0,-44.5 L 24.4375,1.75 Z"
           transform="translate(0,1004.3622)"
           id="rect1541" />
      </g>
    </g>
    <g
       id="g1646"
       transform="matrix(0.9375,0,0,0.9375,1.9703587,63.684561)">
      <path
         inkscape:connector-curvature="0"
         id="rect1560"
         d="m 5.71875,1012.9895 0,31.5761 35.559068,0 0,-31.5761 L 5.71875,1012.9895 z m 1.5196183,2.0347 0.7902015,0 0,0.9797 -0.7902015,0 L 7.2383683,1015.0242 z m 31.7296297,0 0.790201,0 0,0.9797 -0.790201,0 L 38.967998,1015.0242 z m -31.7296297,2.4115 0.7902015,0 0,0.9798 -0.7902015,0 L 7.2383683,1017.4357 z m 31.7296297,0 0.790201,0 0,0.9798 -0.790201,0 L 38.967998,1017.4357 z m -31.7296297,2.4116 0.7902015,0 0,0.9796 -0.7902015,0 L 7.2383683,1019.8473 z m 31.7296297,0 0.790201,0 0,0.9796 -0.790201,0 L 38.967998,1019.8473 z m -31.7296297,2.4115 0.7902015,0 0,0.9797 -0.7902015,0 L 7.2383683,1022.2588 z m 31.7296297,0 0.790201,0 0,0.9797 -0.790201,0 L 38.967998,1022.2588 z m -31.7296297,2.4116 0.7902015,0 0,0.9796 -0.7902015,0 L 7.2383683,1024.6704 z m 31.7296297,0 0.790201,0 0,0.9796 -0.790201,0 L 38.967998,1024.6704 z m -31.7296297,2.4115 0.7902015,0 0,0.9797 -0.7902015,0 L 7.2383683,1027.0819 z m 31.7296297,0 0.790201,0 0,0.9797 -0.790201,0 L 38.967998,1027.0819 z m -31.7296297,2.4116 0.7902015,0 0,0.9796 -0.7902015,0 L 7.2383683,1029.4935 z m 31.7296297,0 0.790201,0 0,0.9796 -0.790201,0 L 38.967998,1029.4935 z m -31.7296297,2.4115 0.7902015,0 0,0.9797 -0.7902015,0 L 7.2383683,1031.905 z m 31.7296297,0 0.790201,0 0,0.9797 -0.790201,0 L 38.967998,1031.905 z m -31.7296297,2.4116 0.7902015,0 0,0.9796 -0.7902015,0 L 7.2383683,1034.3166 z m 31.7296297,0 0.790201,0 0,0.9796 -0.790201,0 L 38.967998,1034.3166 z m -31.7296297,2.4115 0.7902015,0 0,0.9797 -0.7902015,0 L 7.2383683,1036.7281 z m 31.7296297,0 0.790201,0 0,0.9797 -0.790201,0 L 38.967998,1036.7281 z m -31.7296297,2.4115 0.7902015,0 0,0.9797 -0.7902015,0 L 7.2383683,1039.1396 z m 31.7296297,0 0.790201,0 0,0.9797 -0.790201,0 L 38.967998,1039.1396 z m -31.7296297,2.4115 0.7902015,0 0,0.9798 -0.7902015,0 L 7.2383683,1041.5511 z m 31.7296297,0 0.790201,0 0,0.9798 -0.790201,0 L 38.967998,1041.5511 Z"
         style="fill:url(#linearGradient1625);fill-opacity:1;stroke:none" />
      <path
         inkscape:connector-curvature="0"
         id="path1614"
         d="m 7.2383683,1015.0337 0,0.4144 0.7902015,0 0,-0.4144 L 7.2383683,1015.0337 z m 31.7296297,0 0,0.4144 0.790201,0 0,-0.4144 L 38.967998,1015.0337 z m -31.7296297,2.4116 0,0.4144 0.7902015,0 0,-0.4144 L 7.2383683,1017.4453 z m 31.7296297,0 0,0.4144 0.790201,0 0,-0.4144 L 38.967998,1017.4453 z m -31.7296297,2.4114 0,0.4145 0.7902015,0 0,-0.4145 L 7.2383683,1019.8567 z m 31.7296297,0 0,0.4145 0.790201,0 0,-0.4145 L 38.967998,1019.8567 z m -31.7296297,2.4116 0,0.4145 0.7902015,0 0,-0.4145 L 7.2383683,1022.2683 z m 31.7296297,0 0,0.4145 0.790201,0 0,-0.4145 L 38.967998,1022.2683 z m -31.7296297,2.4115 0,0.4144 0.7902015,0 0,-0.4144 L 7.2383683,1024.6798 z m 31.7296297,0 0,0.4144 0.790201,0 0,-0.4144 L 38.967998,1024.6798 z m -31.7296297,2.4116 0,0.4144 0.7902015,0 0,-0.4144 L 7.2383683,1027.0914 z m 31.7296297,0 0,0.4144 0.790201,0 0,-0.4144 L 38.967998,1027.0914 z m -31.7296297,2.4115 0,0.4144 0.7902015,0 0,-0.4144 L 7.2383683,1029.5029 z m 31.7296297,0 0,0.4144 0.790201,0 0,-0.4144 L 38.967998,1029.5029 z m -31.7296297,2.4116 0,0.4144 0.7902015,0 0,-0.4144 L 7.2383683,1031.9145 z m 31.7296297,0 0,0.4144 0.790201,0 0,-0.4144 L 38.967998,1031.9145 z m -31.7296297,2.4115 0,0.4144 0.7902015,0 0,-0.4144 L 7.2383683,1034.326 z m 31.7296297,0 0,0.4144 0.790201,0 0,-0.4144 L 38.967998,1034.326 z m -31.7296297,2.4116 0,0.4144 0.7902015,0 0,-0.4144 L 7.2383683,1036.7376 z m 31.7296297,0 0,0.4144 0.790201,0 0,-0.4144 L 38.967998,1036.7376 z m -31.7296297,2.4115 0,0.4144 0.7902015,0 0,-0.4144 L 7.2383683,1039.1491 z m 31.7296297,0 0,0.4144 0.790201,0 0,-0.4144 L 38.967998,1039.1491 z m -31.7296297,2.4116 0,0.4144 0.7902015,0 0,-0.4144 L 7.2383683,1041.5607 z m 31.7296297,0 0,0.4144 0.790201,0 0,-0.4144 L 38.967998,1041.5607 z m -33.249248,3.0144 0,0.4144 35.559068,0 0,-0.4144 L 5.71875,1044.5751 Z"
         style="fill:#000000;fill-opacity:0.19428573;stroke:none" />
    </g>
    <path
       style="fill:#000000;fill-opacity:1;fill-rule:nonzero;stroke:#0e0101;stroke-width:0.00925815;stroke-linejoin:round;stroke-miterlimit:4;stroke-opacity:1;stroke-dasharray:none;stroke-dashoffset:0"
       d="m 17.743282,1037.0248 0,2.7352 0.06543,0 0,-2.7352 L 17.743282,1037.0248 z m 0.177793,0 0,2.7352 0.06543,0 0,-2.7352 L 17.921075,1037.0248 z m -6.134536,0 0,3.0722 0.100985,0 0,-3.0722 L 11.786539,1037.0261 z m 0.177792,0 0,3.0722 0.100986,0 0,-3.0722 L 11.964331,1037.0261 z m 0.354162,0 0,2.7309 0.100986,0 0,-2.7309 L 12.318493,1037.0261 z m 0.53053,0 0,2.7323 0.06827,0 0,-2.7323 L 12.849023,1037.0261 z m 1.06533,0 0,2.7323 0.06827,0 0,-2.7323 L 13.914353,1037.0261 z m 0.17637,0 0,2.7323 0.06827,0 0,-2.7323 L 14.090723,1037.0261 z m 0.177793,0 0,2.7323 0.06827,0 0,-2.7323 L 14.268516,1037.0261 z m 0.851979,0 0,2.7309 0.100986,0 0,-2.7309 L 15.120495,1037.0261 z m 0.177791,0 0,2.7309 0.100986,0 0,-2.7309 L 15.298286,1037.0261 z m 0.884694,0 0,2.7323 0.06827,0 0,-2.7323 L 16.18298,1037.0261 z m 0.17637,0 0,3.0736 0.06827,0 0,-3.0736 L 16.35935,1037.0261 z m 0.177791,0 0,3.0736 0.06827,0 0,-3.0736 L 16.537141,1037.0261 z m 0.354162,0 0,2.7323 0.06827,0 0,-2.7323 L 16.891303,1037.0261 z m -4.392173,0 0,2.7294 0.200549,0 0,-2.7294 L 12.49913,1037.0276 z m 0.709745,0 0,2.7294 0.200549,0 0,-2.7294 L 13.208875,1037.0276 z m 0.352739,0 0,2.7294 0.167836,0 0,-2.7294 L 13.561614,1037.0276 z m 1.066753,0 0,2.728 0.234685,0 0,-2.728 L 14.628367,1037.0276 z m 0.938741,0 0,2.728 0.234686,0 0,-2.728 L 15.567108,1037.0276 z m 1.506254,0 0,2.7294 0.20055,0 0,-2.7294 L 17.073362,1037.0276 z m 0.354161,0 0,2.7294 0.201972,0 0,-2.7294 L 17.427523,1037.0276 z m 0.672766,0 0,2.7294 0.201971,0 0,-2.7294 L 18.100289,1037.0276 Z"
       id="rect2160"
       inkscape:connector-curvature="0" />
    <rect
       style="fill:#000000;fill-opacity:1;stroke:none"
       id="rect1734"
       width="25.439272"
       height="0.41432038"
       x="11.280364"
       y="1035.5323" />
    <rect
       y="1035.0668"
       x="11.280364"
       height="0.23853913"
       width="25.439272"
       id="rect1736"
       style="fill:#000000;fill-opacity:1;stroke:none" />
    <rect
       style="fill:#000000;fill-opacity:1;stroke:none"
       id="rect1742"
       width="25.439272"
       height="0.41432038"
       x="11.280364"
       y="1020.5324" />
    <rect
       y="1020.0667"
       x="11.280364"
       height="0.23853913"
       width="25.439272"
       id="rect1744"
       style="fill:#000000;fill-opacity:1;stroke:none" />
    <g
       style="font-size:2.72262096px;font-style:normal;font-variant:normal;font-weight:normal;font-stretch:normal;text-align:start;line-height:125%;letter-spacing:0px;word-spacing:0px;writing-mode:lr-tb;text-anchor:start;fill:#000000;fill-opacity:1;stroke:none;font-family:Helvetica Neue;-inkscape-font-specification:Helvetica Neue"
       id="text1746"
       transform="matrix(0.9375,0,0,0.9375,1.5,64.272655)">
      <path
         d="m 10.967308,1016.3738 0.245036,0 0,-1.5601 0.0054,0 1.015537,1.5601 0.283153,0 0,-1.944 -0.245036,0 0,1.5764 -0.0054,0 -1.023706,-1.5764 -0.274985,0 L 10.967308,1016.3738 Z"
         id="path872"
         inkscape:connector-curvature="0" />
      <path
         d="m 12.948441,1016.3738 0.258649,0 0,-1.944 -0.258649,0 L 12.948441,1016.3738 Z"
         id="path874"
         inkscape:connector-curvature="0" />
      <path
         d="m 14.085858,1016.3738 0.258649,0 0,-1.7262 0.647984,0 0,-0.2178 -1.554617,0 0,0.2178 0.647984,0 L 14.085858,1016.3738 Z"
         id="path876"
         inkscape:connector-curvature="0" />
      <path
         d="m 15.466823,1015.3256 0,-0.678 0.642538,0 c 0.242313,0 0.345773,0.1416 0.345773,0.3322 0,0.2831 -0.206919,0.3458 -0.449233,0.3458 L 15.466823,1015.3256 z m -0.258649,1.0482 0.258649,0 0,-0.8304 0.631648,0 c 0.250481,0 0.296765,0.1606 0.323991,0.3512 0.03812,0.1906 -0.0027,0.4002 0.07079,0.4792 l 0.288597,0 c -0.108904,-0.1334 -0.09801,-0.3458 -0.11435,-0.5364 -0.01906,-0.1906 -0.06534,-0.3566 -0.29132,-0.4002 l 0,-0.01 c 0.234145,-0.065 0.337605,-0.2587 0.337605,-0.4928 0,-0.3104 -0.225978,-0.5092 -0.590809,-0.5092 l -0.9148,0 L 15.208174,1016.3738 Z"
         id="path878"
         inkscape:connector-curvature="0" />
      <path
         d="m 18.626552,1014.4298 -0.258649,0 0,1.2415 c 0,0.3431 -0.179693,0.531 -0.506408,0.531 -0.34305,0 -0.539079,-0.1879 -0.539079,-0.531 l 0,-1.2415 -0.258649,0 0,1.2415 c 0,0.5173 0.296766,0.7488 0.797728,0.7488 0.484627,0 0.765057,-0.2587 0.765057,-0.7488 L 18.626552,1014.4298 Z"
         id="path880"
         inkscape:connector-curvature="0" />
      <path
         d="m 18.827089,1016.3738 0.291321,0 0.539079,-0.8032 0.522743,0.8032 0.315824,0 -0.683378,-0.9992 0.642539,-0.9448 -0.288598,0 -0.506408,0.7596 -0.484626,-0.7596 -0.310379,0 0.639816,0.9448 L 18.827089,1016.3738 Z"
         id="path882"
         inkscape:connector-curvature="0" />
    </g>
    <g
       style="font-size:1.29611766px;font-style:normal;font-variant:normal;font-weight:normal;font-stretch:normal;text-align:start;line-height:125%;letter-spacing:0px;word-spacing:0px;writing-mode:lr-tb;text-anchor:start;fill:#000000;fill-opacity:1;stroke:none;font-family:Helvetica Neue;-inkscape-font-specification:Helvetica Neue"
       id="text1750"
       transform="matrix(0.9375,0,0,0.9375,1.5,64.272655)">
      <path
         d="m 11.672396,1018.1299 c -0.0078,-0.2034 -0.151646,-0.2929 -0.340879,-0.2929 -0.168495,0 -0.335694,0.083 -0.335694,0.2709 0,0.1698 0.149053,0.2126 0.29681,0.245 0.147758,0.032 0.295515,0.054 0.295515,0.1814 0,0.1335 -0.123131,0.1685 -0.234597,0.1685 -0.139981,0 -0.269592,-0.067 -0.269592,-0.2229 l -0.116651,0 c 0,0.2255 0.174976,0.3266 0.382355,0.3266 0.168495,0 0.361616,-0.079 0.361616,-0.2761 0,-0.1814 -0.147757,-0.2333 -0.295514,-0.267 -0.149054,-0.034 -0.296811,-0.051 -0.296811,-0.1646 0,-0.1205 0.103689,-0.1581 0.207379,-0.1581 0.127019,0 0.215155,0.057 0.229412,0.1892 L 11.672396,1018.1299 Z"
         id="path885"
         inkscape:connector-curvature="0" />
      <path
         d="m 11.849235,1018.7845 0.11017,0 0,-0.6701 -0.11017,0 L 11.849235,1018.7845 z m 0.11017,-0.9254 -0.11017,0 0,0.1348 0.11017,0 L 11.959405,1017.8591 Z"
         id="path887"
         inkscape:connector-curvature="0" />
      <path
         d="m 12.076906,1018.7845 0.565107,0 0,-0.097 -0.427718,0 0.409573,-0.4977 0,-0.075 -0.521039,0 0,0.097 0.378466,0 -0.404389,0.4886 L 12.076906,1018.7845 Z"
         id="path889"
         inkscape:connector-curvature="0" />
      <path
         d="m 13.216801,1018.5719 c -0.01944,0.087 -0.08295,0.1309 -0.17368,0.1309 -0.146461,0 -0.212563,-0.1037 -0.208675,-0.2203 l 0.501598,0 c 0.0065,-0.162 -0.0661,-0.3837 -0.303292,-0.3837 -0.182752,0 -0.314956,0.1478 -0.314956,0.3487 0.0065,0.2048 0.107578,0.3525 0.321437,0.3525 0.15035,0 0.256631,-0.08 0.286442,-0.2281 L 13.216801,1018.5719 z m -0.382355,-0.1866 c 0.0078,-0.1024 0.07647,-0.1893 0.191826,-0.1893 0.108874,0 0.187937,0.084 0.193121,0.1893 L 12.834446,1018.3853 Z"
         id="path891"
         inkscape:connector-curvature="0" />
      <path
         d="m 13.47487,1018.7845 0.143869,0 0,-0.1439 -0.143869,0 L 13.47487,1018.7845 z m 0.143869,-0.6701 -0.143869,0 0,0.1439 0.143869,0 L 13.618739,1018.1144 Z"
         id="path893"
         inkscape:connector-curvature="0" />
      <path
         d="m 14.269836,1017.8655 -0.08814,0 -0.418646,0.5975 0,0.1063 0.403093,0 0,0.2152 0.103689,0 0,-0.2152 0.124427,0 0,-0.097 -0.124427,0 L 14.269836,1017.8655 z m -0.412165,0.6066 0.305883,-0.4497 0.0026,0 0,0.4497 L 13.857671,1018.4721 Z"
         id="path895"
         inkscape:connector-curvature="0" />
      <path
         d="m 14.555812,1018.7845 0.143869,0 0,-0.1439 -0.143869,0 L 14.555812,1018.7845 Z"
         id="path897"
         inkscape:connector-curvature="0" />
      <path
         d="m 14.862141,1018.3334 c 0,0.2022 0.01815,0.4666 0.305884,0.4666 0.287738,0 0.305884,-0.2644 0.305884,-0.4666 0,-0.2035 -0.01815,-0.4679 -0.305884,-0.4679 C 14.880287,1017.8655 14.862141,1018.1299 14.862141,1018.3334 z m 0.116651,0 c 0,-0.1361 0.0013,-0.3694 0.189233,-0.3694 0.187937,0 0.189233,0.2333 0.189233,0.3694 0,0.1374 -0.0013,0.3707 -0.189233,0.3707 C 14.980088,1018.7028 14.978792,1018.4695 14.978792,1018.3321 Z"
         id="path899"
         inkscape:connector-curvature="0" />
      <path
         d="m 16.138352,1017.8811 -0.453642,0 -0.08554,0.477 0.09462,0.01 c 0.04277,-0.052 0.101097,-0.087 0.171088,-0.087 0.123131,0 0.207379,0.087 0.207379,0.2087 0,0.1464 -0.08943,0.2177 -0.194418,0.2177 -0.11017,0 -0.186641,-0.071 -0.193122,-0.1659 l -0.11017,0 c 0.0039,0.1659 0.1335,0.2631 0.292923,0.2631 0.213859,0 0.321437,-0.1503 0.321437,-0.3058 0,-0.21 -0.1335,-0.315 -0.296811,-0.315 -0.06221,0 -0.130908,0.021 -0.171087,0.066 l -0.0026,0 0.04925,-0.2644 0.37069,0 L 16.138352,1017.8811 Z"
         id="path901"
         inkscape:connector-curvature="0" />
      <path
         d="m 16.34008,1018.7845 0.11017,0 0,-0.2541 0.10369,-0.096 0.229412,0.35 0.139981,0 -0.285146,-0.4264 0.265704,-0.2437 -0.147757,0 -0.305884,0.2929 0,-0.5482 -0.11017,0 L 16.34008,1018.7845 Z"
         id="path903"
         inkscape:connector-curvature="0" />
      <path
         d="m 17.276566,1018.6951 c -0.145165,0 -0.189233,-0.1348 -0.189233,-0.2554 0,-0.1283 0.05703,-0.2437 0.198306,-0.2437 0.138684,0 0.190529,0.1219 0.190529,0.2398 C 17.476168,1018.5616 17.421731,1018.6951 17.276566,1018.6951 z m 0.308476,-0.5807 -0.10369,0 0,0.096 -0.0013,0 c -0.04018,-0.074 -0.115354,-0.1115 -0.199602,-0.1115 -0.232005,0 -0.309772,0.1958 -0.309772,0.3539 0,0.1827 0.0998,0.3396 0.299403,0.3396 0.08425,0 0.172384,-0.04 0.208675,-0.1219 l 0.0026,0 0,0.044 c 0,0.1503 -0.05703,0.254 -0.200898,0.254 -0.07258,0 -0.168495,-0.028 -0.17368,-0.1088 l -0.11017,0 c 0.0065,0.1464 0.151646,0.197 0.277369,0.197 0.211268,0 0.311069,-0.1115 0.311069,-0.3292 L 17.585042,1018.1144 Z"
         id="path905"
         inkscape:connector-curvature="0" />
    </g>
    <rect
       style="fill:#000000;fill-opacity:1;stroke:none"
       id="rect1754"
       width="25.439272"
       height="0.23853913"
       x="11.280364"
       y="1029.3054" />
    <rect
       y="23.880732"
       x="-1035.1819"
       height="0.23853913"
       width="5.7850451"
       id="rect1756"
       style="fill:#000000;fill-opacity:1;stroke:none"
       transform="matrix(0,-1,1,0,0,0)" />
    <rect
       transform="matrix(0,-1,1,0,0,0)"
       style="fill:#000000;fill-opacity:1;stroke:none"
       id="rect1758"
       width="26.461729"
       height="0.083773538"
       x="-1041.1868"
       y="11.280364" />
    <rect
       y="36.63586"
       x="-1041.1868"
       height="0.083773538"
       width="26.461729"
       id="rect1760"
       style="fill:#000000;fill-opacity:1;stroke:none"
       transform="matrix(0,-1,1,0,0,0)" />
    <rect
       style="fill:#000000;fill-opacity:1;stroke:none"
       id="rect1762"
       width="25.422089"
       height="0.083773538"
       x="11.280364"
       y="1041.103" />
    <rect
       y="1014.7251"
       x="11.280364"
       height="0.083773538"
       width="25.422089"
       id="rect1764"
       style="fill:#000000;fill-opacity:1;stroke:none" />
    <g
       style="font-size:0.87024665px;font-style:normal;font-variant:normal;font-weight:normal;font-stretch:normal;text-align:start;line-height:125%;letter-spacing:0px;word-spacing:0px;writing-mode:lr-tb;text-anchor:start;fill:#000000;fill-opacity:1;stroke:none;font-family:Helvetica Neue;-inkscape-font-specification:Helvetica Neue"
       id="text855"
       transform="matrix(0.9375,0,0,0.9375,1.5,64.272655)">
      <path
         d="m 11.405912,1030.3938 c -0.0052,-0.1367 -0.101818,-0.1967 -0.228874,-0.1967 -0.113133,0 -0.225394,0.056 -0.225394,0.1819 0,0.114 0.100078,0.1427 0.199286,0.1645 0.09921,0.022 0.198416,0.036 0.198416,0.1218 0,0.09 -0.08267,0.1131 -0.157514,0.1131 -0.09399,0 -0.181012,-0.045 -0.181012,-0.1497 l -0.07832,0 c 0,0.1515 0.117483,0.2193 0.256723,0.2193 0.113132,0 0.242799,-0.053 0.242799,-0.1853 0,-0.1219 -0.09921,-0.1567 -0.198416,-0.1793 -0.100079,-0.023 -0.199287,-0.034 -0.199287,-0.1105 0,-0.081 0.06962,-0.1062 0.13924,-0.1062 0.08528,0 0.14446,0.038 0.154033,0.1271 L 11.405912,1030.3938 Z"
         id="path927"
         inkscape:connector-curvature="0" />
      <path
         d="m 11.830973,1030.6905 c -0.01305,0.058 -0.0557,0.088 -0.116613,0.088 -0.09834,0 -0.14272,-0.07 -0.140109,-0.1479 l 0.336785,0 c 0.0044,-0.1088 -0.04438,-0.2576 -0.203638,-0.2576 -0.122704,0 -0.21147,0.099 -0.21147,0.2341 0.0044,0.1375 0.07223,0.2367 0.215822,0.2367 0.100948,0 0.172308,-0.054 0.192324,-0.1532 L 11.830973,1030.6905 z m -0.256722,-0.1253 c 0.0052,-0.069 0.05134,-0.127 0.128796,-0.127 0.0731,0 0.126186,0.056 0.129667,0.127 L 11.574251,1030.5652 Z"
         id="path929-9"
         inkscape:connector-curvature="0" />
      <path
         d="m 11.985102,1030.8333 0.07397,0 0,-0.2002 c 0,-0.114 0.04351,-0.1819 0.162736,-0.1819 l 0,-0.078 c -0.08006,0 -0.129666,0.033 -0.165347,0.1053 l -0.0017,0 0,-0.095 -0.06962,0 L 11.985102,1030.8333 Z"
         id="path931-5"
         inkscape:connector-curvature="0" />
      <path
         d="m 12.282713,1030.8333 0.07397,0 0,-0.45 -0.07397,0 L 12.282713,1030.8333 z m 0.07397,-0.6214 -0.07397,0 0,0.091 0.07397,0 L 12.356684,1030.2119 Z"
         id="path933-8"
         inkscape:connector-curvature="0" />
      <path
         d="m 12.750607,1030.6766 c 0,0.041 -0.04003,0.1018 -0.137499,0.1018 -0.04525,0 -0.08703,-0.017 -0.08703,-0.066 0,-0.055 0.04177,-0.072 0.09051,-0.081 0.0496,-0.01 0.105299,-0.01 0.134018,-0.031 L 12.750607,1030.6766 z m 0.120094,0.098 c -0.0096,0 -0.01654,0 -0.02263,0 -0.0235,0 -0.0235,-0.016 -0.0235,-0.05 l 0,-0.2315 c 0,-0.1053 -0.0879,-0.1236 -0.168828,-0.1236 -0.100079,0 -0.186233,0.039 -0.190584,0.1505 l 0.07397,0 c 0.0035,-0.066 0.0496,-0.085 0.112261,-0.085 0.04699,0 0.100079,0.01 0.100079,0.075 0,0.056 -0.06962,0.051 -0.151423,0.066 -0.07658,0.015 -0.152293,0.037 -0.152293,0.1384 0,0.09 0.06701,0.1262 0.148812,0.1262 0.06266,0 0.117483,-0.022 0.158385,-0.07 0,0.049 0.02437,0.07 0.06266,0.07 0.0235,0 0.04003,0 0.05309,-0.012 L 12.870701,1030.7741 Z"
         id="path935-7"
         inkscape:connector-curvature="0" />
      <path
         d="m 12.943897,1030.8333 0.07397,0 0,-0.6214 -0.07397,0 L 12.943897,1030.8333 Z"
         id="path937-0"
         inkscape:connector-curvature="0" />
      <path
         d="m 13.149846,1030.8333 0.0966,0 0,-0.097 -0.0966,0 L 13.149846,1030.8333 z m 0.0966,-0.45 -0.0966,0 0,0.097 0.0966,0 L 13.246443,1030.3833 Z"
         id="path939-9"
         inkscape:connector-curvature="0" />
    </g>
    <g
       style="font-size:0.87024665px;font-style:normal;font-variant:normal;font-weight:normal;font-stretch:normal;text-align:start;line-height:125%;letter-spacing:0px;word-spacing:0px;writing-mode:lr-tb;text-anchor:start;fill:#000000;fill-opacity:1;stroke:none;font-family:Helvetica Neue;-inkscape-font-specification:Helvetica Neue"
       id="text863"
       transform="matrix(0.9375,0,0,0.9375,1.5,64.272655)">
      <path
         d="m 25.35542,1030.399 c -0.01914,-0.1323 -0.126186,-0.2019 -0.255853,-0.2019 -0.191454,0 -0.294143,0.1471 -0.294143,0.3272 0,0.181 0.09399,0.3237 0.287181,0.3237 0.156645,0 0.253242,-0.094 0.268907,-0.2488 l -0.08267,0 c -0.0078,0.1026 -0.07049,0.1792 -0.179271,0.1792 -0.148812,0 -0.211469,-0.1183 -0.211469,-0.2602 0,-0.1296 0.06266,-0.2515 0.210599,-0.2515 0.08615,0 0.156645,0.044 0.17405,0.1323 L 25.35542,1030.399 Z"
         id="path942"
         inkscape:connector-curvature="0" />
      <path
         d="m 25.428222,1030.6087 c 0,0.1314 0.07571,0.235 0.218431,0.235 0.142721,0 0.218432,-0.1036 0.218432,-0.235 0,-0.1322 -0.07571,-0.2358 -0.218432,-0.2358 C 25.503933,1030.3729 25.428222,1030.4765 25.428222,1030.6087 z m 0.07832,0 c 0,-0.1096 0.06266,-0.1705 0.140109,-0.1705 0.07745,0 0.14011,0.061 0.14011,0.1705 0,0.1088 -0.06266,0.1697 -0.14011,0.1697 C 25.569202,1030.7784 25.506544,1030.7175 25.506544,1030.6087 Z"
         id="path944"
         inkscape:connector-curvature="0" />
      <path
         d="m 26.354354,1030.2119 -0.07397,0 0,0.2315 -0.0017,0 c -0.03307,-0.053 -0.09921,-0.071 -0.145331,-0.071 -0.137499,0 -0.205379,0.107 -0.205379,0.2341 0,0.127 0.06875,0.2367 0.207119,0.2367 0.06179,0 0.119224,-0.022 0.143591,-0.071 l 0.0017,0 0,0.061 0.07397,0 L 26.354354,1030.2119 z m -0.348098,0.4003 c 0,-0.088 0.03394,-0.174 0.134888,-0.174 0.101819,0 0.14185,0.082 0.14185,0.1705 0,0.084 -0.03829,0.1697 -0.137499,0.1697 C 26.049768,1030.7784 26.006256,1030.6966 26.006256,1030.6122 Z"
         id="path946"
         inkscape:connector-curvature="0" />
      <path
         d="m 26.779687,1030.6905 c -0.01305,0.058 -0.0557,0.088 -0.116613,0.088 -0.09834,0 -0.14272,-0.07 -0.140109,-0.1479 l 0.336785,0 c 0.0044,-0.1088 -0.04438,-0.2576 -0.203638,-0.2576 -0.122704,0 -0.211469,0.099 -0.211469,0.2341 0.0044,0.1375 0.07223,0.2367 0.215821,0.2367 0.100948,0 0.172309,-0.054 0.192324,-0.1532 L 26.779687,1030.6905 z m -0.256722,-0.1253 c 0.0052,-0.069 0.05134,-0.127 0.128796,-0.127 0.0731,0 0.126186,0.056 0.129667,0.127 L 26.522965,1030.5652 Z"
         id="path948"
         inkscape:connector-curvature="0" />
      <path
         d="m 26.952962,1030.8333 0.0966,0 0,-0.097 -0.0966,0 L 26.952962,1030.8333 z m 0.0966,-0.45 -0.0966,0 0,0.097 0.0966,0 L 27.049559,1030.3833 Z"
         id="path950"
         inkscape:connector-curvature="0" />
    </g>
    <path
       id="path6361"
       d="m 1.7499998,1012.5497 0,-0.5625 c 0,-3.2445 2.5992249,-5.875 5.8437499,-5.875 l 32.8125003,0 c 3.244525,0 5.84375,2.6305 5.84375,5.875 l 0,0.5625 c 0,-3.2445 -2.599225,-5.875 -5.84375,-5.875 l -32.8125003,0 C 4.3492247,1006.6747 1.7499998,1009.3052 1.7499998,1012.5497 Z"
       style="color:#000000;fill:#ffffff;fill-opacity:1;fill-rule:nonzero;stroke:none;stroke-width:0.2;marker:none;visibility:visible;display:inline;overflow:visible;enable-background:accumulate"
       inkscape:connector-curvature="0" />
    <path
       inkscape:connector-curvature="0"
       style="color:#000000;fill:#000000;fill-opacity:1;fill-rule:nonzero;stroke:none;stroke-width:0.2;marker:none;visibility:visible;display:inline;overflow:visible;enable-background:accumulate"
       d="m 1.7499998,1044.1747 0,0.5625 c 0,3.2445 2.5992249,5.875 5.8437499,5.875 l 32.8125003,0 c 3.244525,0 5.84375,-2.6305 5.84375,-5.875 l 0,-0.5625 c 0,3.2445 -2.599225,5.875 -5.84375,5.875 l -32.8125003,0 C 4.3492247,1050.0497 1.7499998,1047.4192 1.7499998,1044.1747 Z"
       id="path6388" />
    <text
       xml:space="preserve"
       style="font-size:4.03035402px;font-style:normal;font-variant:normal;font-weight:normal;font-stretch:normal;text-align:start;line-height:125%;letter-spacing:0px;word-spacing:0px;writing-mode:lr-tb;text-anchor:start;fill:#ff0000;fill-opacity:1;stroke:none;font-family:Past Due;-inkscape-font-specification:Past Due"
       x="-504.06277"
       y="904.06116"
       id="text1302"
       sodipodi:linespacing="125%"
       transform="matrix(0.8660254,-0.5,0.5,0.8660254,0,0)"><tspan
         sodipodi:role="line"
         id="tspan1304"
         x="-504.06277"
         y="904.06116">ON HOLD</tspan></text>
  </g>
</svg>
