<?xml version="1.0" encoding="UTF-8" standalone="no"?>
<!-- Created with Inkscape (http://www.inkscape.org/) -->

<svg
   xmlns:dc="http://purl.org/dc/elements/1.1/"
   xmlns:cc="http://creativecommons.org/ns#"
   xmlns:rdf="http://www.w3.org/1999/02/22-rdf-syntax-ns#"
   xmlns:svg="http://www.w3.org/2000/svg"
   xmlns="http://www.w3.org/2000/svg"
   xmlns:xlink="http://www.w3.org/1999/xlink"
   xmlns:sodipodi="http://sodipodi.sourceforge.net/DTD/sodipodi-0.dtd"
   xmlns:inkscape="http://www.inkscape.org/namespaces/inkscape"
   width="48"
   height="48"
   id="svg2"
   version="1.1"
   inkscape:version="0.48+devel r12068"
   sodipodi:docname="grsync.svg">
  <defs
     id="defs4">
    <linearGradient
       id="linearGradient861-5-8">
      <stop
         style="stop-color:#d35fbc;stop-opacity:1"
         offset="0"
         id="stop863-8-7" />
      <stop
         style="stop-color:#a02c89;stop-opacity:1"
         offset="1"
         id="stop865-3-8" />
    </linearGradient>
    <linearGradient
       inkscape:collect="always"
       xlink:href="#linearGradient4602"
       id="linearGradient4608"
       x1="25.986172"
       y1="40.045048"
       x2="25.986172"
       y2="8.5787992"
       gradientUnits="userSpaceOnUse"
       gradientTransform="matrix(0.93006493,0,0,0.93006493,-64.92474,1009.1397)" />
    <linearGradient
       inkscape:collect="always"
       id="linearGradient4602">
      <stop
         style="stop-color:#cccccc;stop-opacity:1"
         offset="0"
         id="stop4604" />
      <stop
         style="stop-color:#ffffff;stop-opacity:1"
         offset="1"
         id="stop4606" />
    </linearGradient>
    <linearGradient
       inkscape:collect="always"
       xlink:href="#linearGradient861-5-8"
       id="linearGradient1430"
       x1="22.786427"
       y1="1005.3812"
       x2="22.786427"
       y2="1049.7522"
       gradientUnits="userSpaceOnUse" />
  </defs>
  <sodipodi:namedview
     id="base"
     pagecolor="#ffffff"
     bordercolor="#666666"
     borderopacity="1.0"
     inkscape:pageopacity="0.0"
     inkscape:pageshadow="2"
     inkscape:zoom="5.6568545"
     inkscape:cx="-11.158651"
     inkscape:cy="23.351981"
     inkscape:document-units="px"
     inkscape:current-layer="layer1"
     showgrid="false"
     inkscape:window-width="1366"
     inkscape:window-height="718"
     inkscape:window-x="0"
     inkscape:window-y="28"
     inkscape:window-maximized="1">
    <inkscape:grid
       type="xygrid"
       id="grid3850" />
  </sodipodi:namedview>
  <metadata
     id="metadata7">
    <rdf:RDF>
      <cc:Work
         rdf:about="">
        <dc:format>image/svg+xml</dc:format>
        <dc:type
           rdf:resource="http://purl.org/dc/dcmitype/StillImage" />
        <dc:title />
      </cc:Work>
    </rdf:RDF>
  </metadata>
  <g
     inkscape:label="Capa 1"
     inkscape:groupmode="layer"
     id="layer1"
     transform="translate(0,-1004.3622)">
    <rect
       style="color:#000000;fill:#333333;fill-opacity:1;fill-rule:nonzero;stroke:none;stroke-width:0.2;marker:none;visibility:visible;display:inline;overflow:visible;enable-background:accumulate"
       id="rect6294"
       width="45.5"
       height="45.5"
       x="1.25"
       y="1005.6122"
       ry="6.3565426" />
    <rect
       ry="5.8565426"
       y="1006.1122"
       x="1.75"
       height="44.5"
       width="44.5"
       id="rect6296"
       style="color:#000000;fill:url(#linearGradient1430);fill-opacity:1;fill-rule:nonzero;stroke:none;stroke-width:0.2;marker:none;visibility:visible;display:inline;overflow:visible;enable-background:accumulate" />
    <path
       id="path6361"
       d="m 1.7500036,1012.5497 0,-0.5625 c 0,-3.2445 2.599225,-5.875 5.84375,-5.875 l 32.8125004,0 c 3.244525,0 5.84375,2.6305 5.84375,5.875 l 0,0.5625 c 0,-3.2445 -2.599225,-5.875 -5.84375,-5.875 l -32.8125004,0 C 4.3492286,1006.6747 1.7500036,1009.3052 1.7500036,1012.5497 Z"
       style="color:#000000;fill:#ffffff;fill-opacity:1;fill-rule:nonzero;stroke:none;stroke-width:0.2;marker:none;visibility:visible;display:inline;overflow:visible;enable-background:accumulate"
       inkscape:connector-curvature="0" />
    <path
       inkscape:connector-curvature="0"
       style="color:#000000;fill:#000000;fill-opacity:1;fill-rule:nonzero;stroke:none;stroke-width:0.2;marker:none;visibility:visible;display:inline;overflow:visible;enable-background:accumulate"
       d="m 1.7500036,1044.1747 0,0.5625 c 0,3.2445 2.599225,5.875 5.84375,5.875 l 32.8125004,0 c 3.244525,0 5.84375,-2.6305 5.84375,-5.875 l 0,-0.5625 c 0,3.2445 -2.599225,5.875 -5.84375,5.875 l -32.8125004,0 C 4.3492286,1050.0497 1.7500036,1047.4192 1.7500036,1044.1747 Z"
       id="path6388" />
    <g
       id="g1432"
       transform="matrix(0.9375,0,0,0.9375,63.940483,61.162856)">
      <path
         inkscape:connector-curvature="0"
         id="path1429"
         d="m -46.730346,1016.5803 -14.241618,4.6793 4.359679,2.4996 c -0.436123,1.2274 -0.668484,2.5179 -0.668484,3.8946 0,6.4748 5.238044,11.7421 11.713004,11.7421 1.266722,0 2.490309,-0.2388 3.633068,-0.6103 -4.698554,-1.5281 -8.109005,-5.9237 -8.109005,-11.1318 0,-0.034 -3.01e-4,-0.053 0,-0.087 l 6.365133,3.6622 L -46.730346,1016.5803 z m 7.091745,6.9464 c -1.266716,0 -2.490311,0.2387 -3.633066,0.6103 4.698549,1.5284 8.109004,5.9237 8.109004,11.1317 0,0.034 2.99e-4,0.053 0,0.087 l -6.365131,-3.6621 3.051774,14.6485 14.241621,-4.6794 -4.35968,-2.4995 c 0.436121,-1.2274 0.668485,-2.5179 0.668485,-3.8947 C -27.925596,1028.7939 -33.163643,1023.5267 -39.638601,1023.5267 Z"
         style="color:#000000;fill:url(#linearGradient4608);fill-opacity:1;fill-rule:nonzero;stroke:none;stroke-width:0.2;marker:none;visibility:visible;display:inline;overflow:visible;enable-background:accumulate" />
      <path
         inkscape:connector-curvature="0"
         id="path4610"
         d="m -59.518738,1022.1315 -1.453226,0.4651 4.039969,2.2961 c 0.09246,-0.3737 0.191039,-0.7423 0.31971,-1.1044 L -59.518738,1022.1315 z m 18.194395,2.8775 c -0.667225,0.1064 -1.322294,0.2617 -1.947324,0.465 4.316127,1.4039 7.553812,5.2318 8.050875,9.8819 l 0.05813,0.029 c 2.99e-4,-0.034 0,-0.053 0,-0.088 C -35.162663,1030.8462 -37.666408,1026.9902 -41.324343,1025.009 z m -8.719359,2.5867 c -3.01e-4,0.034 0,0.053 0,0.087 0,0.4269 0.01347,0.8349 0.05813,1.2497 l 6.307003,3.6331 -0.31971,-1.4825 L -50.043702,1027.5957 z m -7.208002,0.5813 c -0.01837,0.2687 -0.02906,0.5384 -0.02906,0.8138 0,6.4747 5.238043,11.742 11.713003,11.742 1.266721,0 2.490309,-0.2387 3.633067,-0.6103 -0.681065,-0.2215 -1.326852,-0.5071 -1.947324,-0.8429 -0.552483,0.088 -1.112065,0.1454 -1.685743,0.1454 C -51.874846,1039.425 -56.98975,1034.4202 -57.251704,1028.177 z m 15.723909,4.8538 3.051775,14.6485 14.24162,-4.6794 -1.453227,-0.8429 -12.788393,4.2143 -2.732065,-13.1661 L -41.527795,1033.0308 z m 13.573135,3.2842 c -0.0858,1.0013 -0.312329,1.9569 -0.63942,2.8775 l 0.31971,0.2034 c 0.220936,-0.8929 0.348776,-1.8196 0.348776,-2.7902 C -27.925594,1036.5068 -27.952228,1036.4134 -27.95466,1036.315 Z"
         style="color:#000000;fill:#ffffff;fill-opacity:0.11764706;fill-rule:nonzero;stroke:none;stroke-width:0.2;marker:none;visibility:visible;display:inline;overflow:visible;enable-background:accumulate" />
      <path
         inkscape:connector-curvature="0"
         id="path4617"
         d="m -46.730346,1015.6793 -14.241618,4.6793 1.017258,0.5813 13.22436,-4.3305 2.81926,13.6022 0.232516,0.1162 L -46.730346,1015.6793 z m 7.091745,6.9464 c -1.266716,0 -2.490311,0.2387 -3.633066,0.6104 0.48101,0.1564 0.943365,0.3378 1.395098,0.5522 0.725392,-0.151 1.472793,-0.2326 2.237968,-0.2326 6.356314,0 11.496818,5.0817 11.683941,11.3933 0.0094,-0.1933 0.02907,-0.3845 0.02907,-0.5813 C -27.925596,1027.8929 -33.163643,1022.6257 -39.638601,1022.6257 z m -17.2062,1.0173 c -0.275957,0.9913 -0.435968,2.0221 -0.435968,3.1098 0,0.1187 0.02557,0.231 0.02906,0.3488 0.05643,-1.1592 0.265638,-2.2613 0.63942,-3.3133 L -56.844801,1023.643 z m 6.801099,3.9528 c -3.01e-4,0.034 0,0.053 0,0.087 0,4.6749 2.753066,8.7002 6.713906,10.5795 0.475464,-0.099 0.942638,-0.2308 1.395099,-0.3778 -4.431565,-1.4413 -7.720841,-5.4411 -8.079941,-10.2598 L -50.043702,1027.5958 z m 8.515907,3.1971 0.232516,1.0463 6.132616,3.5459 c 2.99e-4,-0.034 0,-0.053 0,-0.088 0,-0.2959 -0.0074,-0.5816 -0.02906,-0.8719 L -41.527795,1030.7929 z m 13.166232,7.6149 c -0.07334,0.2634 -0.140946,0.5269 -0.232517,0.7847 l 3.342421,1.9182 1.01726,-0.3488 L -28.361563,1038.4078 Z"
         style="color:#000000;fill:#000000;fill-opacity:0.25882353;fill-rule:nonzero;stroke:none;stroke-width:0.2;marker:none;visibility:visible;display:inline;overflow:visible;enable-background:accumulate" />
    </g>
  </g>
</svg>
