<?xml version="1.0" encoding="UTF-8" standalone="no"?>
<!-- Created with Inkscape (http://www.inkscape.org/) -->

<svg
   xmlns:dc="http://purl.org/dc/elements/1.1/"
   xmlns:cc="http://creativecommons.org/ns#"
   xmlns:rdf="http://www.w3.org/1999/02/22-rdf-syntax-ns#"
   xmlns:svg="http://www.w3.org/2000/svg"
   xmlns="http://www.w3.org/2000/svg"
   xmlns:xlink="http://www.w3.org/1999/xlink"
   xmlns:sodipodi="http://sodipodi.sourceforge.net/DTD/sodipodi-0.dtd"
   xmlns:inkscape="http://www.inkscape.org/namespaces/inkscape"
   width="48"
   height="48"
   id="svg2"
   version="1.1"
   inkscape:version="0.48+devel r12149"
   sodipodi:docname="guake.svg">
  <defs
     id="defs4">
    <linearGradient
       id="linearGradient3795-4">
      <stop
         style="stop-color:#000000;stop-opacity:1;"
         offset="0"
         id="stop3797-6" />
      <stop
         style="stop-color:#5a5e60;stop-opacity:1;"
         offset="1"
         id="stop3799-6" />
    </linearGradient>
    <linearGradient
       inkscape:collect="always"
       xlink:href="#linearGradient896"
       id="linearGradient876"
       gradientUnits="userSpaceOnUse"
       x1="23.204165"
       y1="1053.158"
       x2="23.204165"
       y2="1004.8474"
       gradientTransform="matrix(0.7737227,0,0,0.62500007,5.4306553,381.2885)" />
    <linearGradient
       id="linearGradient896">
      <stop
         id="stop898"
         offset="0"
         style="stop-color:#3d3d3d;stop-opacity:1" />
      <stop
         id="stop900"
         offset="1"
         style="stop-color:#2b2d2e;stop-opacity:1" />
    </linearGradient>
    <linearGradient
       gradientTransform="matrix(0.95596065,0,0,0.92625525,1.0569452,2.2667)"
       inkscape:collect="always"
       xlink:href="#linearGradient851-6"
       id="linearGradient886"
       x1="22.45064"
       y1="48.169418"
       x2="22.45064"
       y2="38.446701"
       gradientUnits="userSpaceOnUse" />
    <linearGradient
       id="linearGradient851-6">
      <stop
         id="stop853-0"
         offset="0"
         style="stop-color:#cbcbcb;stop-opacity:1" />
      <stop
         id="stop855-1"
         offset="1"
         style="stop-color:#ececec;stop-opacity:1" />
    </linearGradient>
    <radialGradient
       gradientUnits="userSpaceOnUse"
       r="0.93591011"
       fy="44.564526"
       fx="25.593748"
       cy="44.564526"
       cx="25.593748"
       id="radialGradient862"
       xlink:href="#linearGradient3708-8"
       inkscape:collect="always"
       gradientTransform="matrix(1.3935837,2.3072462e-6,-2.2141584e-6,1.3373583,-10.07318,-15.212812)" />
    <linearGradient
       id="linearGradient3708-8">
      <stop
         style="stop-color:#daffc1;stop-opacity:1"
         offset="0"
         id="stop3710-1" />
      <stop
         id="stop3716-9"
         offset="1"
         style="stop-color:#3a9000;stop-opacity:1" />
    </linearGradient>
    <linearGradient
       inkscape:collect="always"
       xlink:href="#linearGradient3795-4"
       id="linearGradient894"
       gradientUnits="userSpaceOnUse"
       gradientTransform="matrix(0.66790353,0,0,0.53952114,7.9703145,469.35184)"
       x1="23.204165"
       y1="1053.158"
       x2="23.204165"
       y2="1004.8474" />
    <linearGradient
       inkscape:collect="always"
       xlink:href="#linearGradient3795-4"
       id="linearGradient885"
       x1="-39.50959"
       y1="1053.8411"
       x2="-39.50959"
       y2="1008.8752"
       gradientUnits="userSpaceOnUse"
       gradientTransform="translate(63.774754,-1007.149)" />
  </defs>
  <sodipodi:namedview
     id="base"
     pagecolor="#ffffff"
     bordercolor="#666666"
     borderopacity="1.0"
     inkscape:pageopacity="0.0"
     inkscape:pageshadow="2"
     inkscape:zoom="4"
     inkscape:cx="-23.503635"
     inkscape:cy="10.71034"
     inkscape:document-units="px"
     inkscape:current-layer="layer1"
     showgrid="false"
     inkscape:window-width="1366"
     inkscape:window-height="716"
     inkscape:window-x="0"
     inkscape:window-y="28"
     inkscape:window-maximized="1" />
  <metadata
     id="metadata7">
    <rdf:RDF>
      <cc:Work
         rdf:about="">
        <dc:format>image/svg+xml</dc:format>
        <dc:type
           rdf:resource="http://purl.org/dc/dcmitype/StillImage" />
        <dc:title />
      </cc:Work>
    </rdf:RDF>
  </metadata>
  <g
     inkscape:label="Capa 1"
     inkscape:groupmode="layer"
     id="layer1"
     transform="translate(0,-1004.3622)">
    <rect
       style="color:#000000;fill:#333333;fill-opacity:1;fill-rule:nonzero;stroke:none;stroke-width:0.2;marker:none;visibility:visible;display:inline;overflow:visible;enable-background:accumulate"
       id="rect6294"
       width="45.5"
       height="45.5"
       x="1.25"
       y="1005.6122"
       ry="6.3565426" />
    <path
       style="color:#000000;fill:url(#linearGradient885);fill-opacity:1.0;fill-rule:nonzero;stroke:none;stroke-width:0.2;marker:none;visibility:visible;display:inline;overflow:visible;enable-background:accumulate"
       d="M 7.59375 1.75 C 4.3492254 1.75 1.75 4.3492254 1.75 7.59375 L 1.75 38.84375 L 2.0625 38.84375 L 45.9375 38.84375 L 46.25 38.84375 L 46.25 7.59375 C 46.25 4.3492254 43.650775 1.75 40.40625 1.75 L 7.59375 1.75 z M 1.75 39.875 L 1.75 40.40625 C 1.75 43.650775 4.3492254 46.25 7.59375 46.25 L 40.40625 46.25 C 43.650775 46.25 46.25 43.650775 46.25 40.40625 L 46.25 39.875 L 1.75 39.875 z "
       id="rect6296"
       transform="translate(0,1004.3622)" />
    <rect
       ry="4.6833968"
       y="1009.015"
       x="5.4306507"
       height="30"
       width="37.138699"
       id="rect872"
       style="fill:url(#linearGradient876);fill-opacity:1;stroke:none" />
    <path
       style="color:#000000;fill:url(#linearGradient886);fill-opacity:1.0;fill-rule:nonzero;stroke:none;stroke-width:0.40000001;marker:none;visibility:visible;display:inline;overflow:visible;enable-background:accumulate"
       d="M 1.75 38.84375 L 1.75 38.90625 L 1.75 39.8125 L 1.75 39.875 C 1.7837985 43.090124 4.3705116 45.6875 7.59375 45.6875 L 40.40625 45.6875 C 43.629488 45.6875 46.216201 43.090124 46.25 39.875 C 46.250223 39.853767 46.25 39.833786 46.25 39.8125 L 46.25 38.90625 L 46.25 38.84375 L 2.0625 38.84375 L 1.75 38.84375 z M 1.78125 40.96875 C 1.8117144 41.371977 1.8847902 41.750746 2 42.125 C 1.8867479 41.75708 1.8209088 41.363734 1.78125 40.96875 z M 46.21875 40.96875 C 46.179091 41.363734 46.113252 41.75708 46 42.125 C 46.11521 41.750746 46.188286 41.371977 46.21875 40.96875 z "
       transform="translate(0,1004.3622)"
       id="rect875" />
    <g
       id="g841"
       transform="matrix(0.95833335,0,0,0.95833335,1.0000034,44.425862)">
      <rect
         style="fill:#333333;fill-opacity:1;stroke:none"
         id="rect848"
         width="26.874998"
         height="1.25"
         x="10.562501"
         y="1046.2162"
         ry="0" />
      <g
         id="g837">
        <rect
           style="fill:#b3b3b3;fill-opacity:1;stroke:none"
           id="rect850"
           width="26.874998"
           height="1.25"
           x="10.562501"
           y="1045.4662"
           ry="0" />
        <rect
           style="fill:#000000;fill-opacity:1;stroke:none"
           id="rect846"
           width="26.874998"
           height="1.25"
           x="10.562501"
           y="1045.8724"
           ry="0" />
      </g>
    </g>
    <path
       sodipodi:type="arc"
       style="fill:url(#radialGradient862);fill-opacity:1;stroke:#1a1a1a;stroke-width:0.23154114;stroke-miterlimit:4;stroke-dasharray:none"
       id="path852"
       sodipodi:cx="25.593748"
       sodipodi:cy="45.09375"
       sodipodi:rx="1.34375"
       sodipodi:ry="1.34375"
       d="m 26.937498,45.09375 c 0,0.742133 -0.601617,1.34375 -1.34375,1.34375 -0.742133,0 -1.34375,-0.601617 -1.34375,-1.34375 0,-0.742133 0.601617,-1.34375 1.34375,-1.34375 C 26.335881,43.75 26.937498,44.351617 26.937498,45.09375 Z"
       transform="matrix(1.1382067,0,0,1.1382067,12.468946,995.96334)" />
    <path
       style="color:#000000;fill:#000000;fill-opacity:0.53164559;fill-rule:nonzero;stroke:none;stroke-width:0.40000001;marker:none;visibility:visible;display:inline;overflow:visible;enable-background:accumulate"
       d="M 1.75 38.84375 L 1.75 38.90625 L 1.75 39.875 L 46.25 39.875 L 46.25 38.90625 L 46.25 38.84375 L 45.9375 38.84375 L 2.0625 38.84375 L 1.75 38.84375 z "
       id="path902"
       transform="translate(0,1004.3622)" />
    <rect
       style="fill:url(#linearGradient894);fill-opacity:1;stroke:none"
       id="rect892"
       width="32.05938"
       height="25.897011"
       x="7.9703169"
       y="1011.2265"
       ry="4.0428658" />
    <g
       transform="matrix(0.35238649,0,0,0.35238649,4.0969035,1015.0026)"
       style="font-size:40px;font-style:normal;font-variant:normal;font-weight:normal;font-stretch:normal;line-height:125%;letter-spacing:0px;word-spacing:0px;fill:#71c837;fill-opacity:1;stroke:none;font-family:Roboto;-inkscape-font-specification:Roboto"
       id="text858">
      <path
         d="m 31.351562,7.203125 0,-0.1171875 -10.683593,-3.5546875 0,-5.9765625 17.167968,7.03125 0,5.1953125 -17.167968,7.03125 0,-5.976562 L 31.351562,7.203125 Z"
         id="path863"
         inkscape:connector-curvature="0"
         style="fill:#71c837;fill-opacity:1" />
      <path
         d="m 56.683594,22.652344 -17.636719,0 0,-4.902344 17.636719,0 L 56.683594,22.652344 Z"
         id="path865"
         inkscape:connector-curvature="0"
         style="fill:#71c837;fill-opacity:1" />
    </g>
    <path
       id="path6361"
       d="m 1.7499986,1012.5497 0,-0.5625 c 0,-3.2445 2.599225,-5.875 5.84375,-5.875 l 32.8125004,0 c 3.244525,0 5.84375,2.6305 5.84375,5.875 l 0,0.5625 c 0,-3.2445 -2.599225,-5.875 -5.84375,-5.875 l -32.8125004,0 C 4.3492236,1006.6747 1.7499986,1009.3052 1.7499986,1012.5497 Z"
       style="color:#000000;fill:#ffffff;fill-opacity:1;fill-rule:nonzero;stroke:none;stroke-width:0.2;marker:none;visibility:visible;display:inline;overflow:visible;enable-background:accumulate"
       inkscape:connector-curvature="0" />
    <path
       inkscape:connector-curvature="0"
       style="color:#000000;fill:#000000;fill-opacity:1;fill-rule:nonzero;stroke:none;stroke-width:0.2;marker:none;visibility:visible;display:inline;overflow:visible;enable-background:accumulate"
       d="m 1.7499986,1044.1747 0,0.5625 c 0,3.2445 2.599225,5.875 5.84375,5.875 l 32.8125004,0 c 3.244525,0 5.84375,-2.6305 5.84375,-5.875 l 0,-0.5625 c 0,3.2445 -2.599225,5.875 -5.84375,5.875 l -32.8125004,0 C 4.3492236,1050.0497 1.7499986,1047.4192 1.7499986,1044.1747 Z"
       id="path6388" />
  </g>
</svg>
