<?xml version="1.0" encoding="UTF-8" standalone="no"?>
<!-- Created with Inkscape (http://www.inkscape.org/) -->

<svg
   xmlns:dc="http://purl.org/dc/elements/1.1/"
   xmlns:cc="http://creativecommons.org/ns#"
   xmlns:rdf="http://www.w3.org/1999/02/22-rdf-syntax-ns#"
   xmlns:svg="http://www.w3.org/2000/svg"
   xmlns="http://www.w3.org/2000/svg"
   xmlns:xlink="http://www.w3.org/1999/xlink"
   xmlns:sodipodi="http://sodipodi.sourceforge.net/DTD/sodipodi-0.dtd"
   xmlns:inkscape="http://www.inkscape.org/namespaces/inkscape"
   width="48"
   height="48"
   id="svg2"
   version="1.1"
   inkscape:version="0.48+devel r12084"
   sodipodi:docname="winff.svg">
  <defs
     id="defs4">
    <radialGradient
       inkscape:collect="always"
       xlink:href="#linearGradient1109"
       id="radialGradient1134"
       cx="24"
       cy="1036.6122"
       fx="24"
       fy="1036.6122"
       r="21"
       gradientTransform="matrix(1.3452381,-3.2415386e-8,2.3809531e-8,0.98809523,-75.105642,2.7575906)"
       gradientUnits="userSpaceOnUse" />
    <linearGradient
       id="linearGradient1109">
      <stop
         id="stop1111"
         style="stop-color:#42c7e6;stop-opacity:1"
         offset="0" />
      <stop
         id="stop1113"
         style="stop-color:#1a69bc;stop-opacity:1"
         offset="1" />
    </linearGradient>
    <linearGradient
       y2="-356.78275"
       x2="362.23645"
       y1="-350.03275"
       x1="362.23645"
       gradientTransform="matrix(1.0809848,0,0,-1.088837,-364.47892,630.02784)"
       gradientUnits="userSpaceOnUse"
       id="linearGradient2159"
       xlink:href="#linearGradient1445"
       inkscape:collect="always" />
    <linearGradient
       id="linearGradient1445">
      <stop
         id="stop1447"
         style="stop-color:#838383;stop-opacity:1"
         offset="0" />
      <stop
         id="stop1449"
         style="stop-color:#000000;stop-opacity:1"
         offset="1" />
    </linearGradient>
    <linearGradient
       gradientTransform="matrix(1.0809848,0,0,-1.088837,-372.74031,630.02784)"
       y2="-360.875"
       x2="362.23645"
       y1="-350.242"
       x1="362.23645"
       gradientUnits="userSpaceOnUse"
       id="linearGradient2148"
       xlink:href="#linearGradient1414"
       inkscape:collect="always" />
    <linearGradient
       id="linearGradient1414">
      <stop
         style="stop-color:#ffffff;stop-opacity:1;"
         offset="0"
         id="stop1416" />
      <stop
         style="stop-color:#999999;stop-opacity:1"
         offset="1"
         id="stop1418" />
    </linearGradient>
    <linearGradient
       gradientTransform="matrix(1.0809848,0,0,1.088837,-64.943137,1004.9003)"
       gradientUnits="userSpaceOnUse"
       y2="12.384645"
       x2="70.216591"
       y1="5.5376897"
       x1="70.216591"
       id="linearGradient1359"
       xlink:href="#linearGradient1445"
       inkscape:collect="always" />
    <linearGradient
       y2="-360.875"
       x2="362.23645"
       y1="-350.242"
       x1="362.23645"
       gradientTransform="matrix(1.0809848,0,0,-1.088837,-340.29811,-374.33436)"
       gradientUnits="userSpaceOnUse"
       id="linearGradient2191"
       xlink:href="#linearGradient1414"
       inkscape:collect="always" />
    <linearGradient
       y2="-356.78275"
       x2="362.23645"
       y1="-350.03275"
       x1="362.23645"
       gradientTransform="matrix(1.0809848,0,0,-1.088837,-348.4411,-374.33436)"
       gradientUnits="userSpaceOnUse"
       id="linearGradient2179"
       xlink:href="#linearGradient1445"
       inkscape:collect="always" />
    <linearGradient
       y2="-360.875"
       x2="362.23645"
       y1="-350.242"
       x1="362.23645"
       gradientTransform="matrix(1.0809848,0,0,-1.088837,-356.5762,630.02784)"
       gradientUnits="userSpaceOnUse"
       id="linearGradient2171"
       xlink:href="#linearGradient1414"
       inkscape:collect="always" />
    <linearGradient
       gradientUnits="userSpaceOnUse"
       y2="8.4241171"
       x2="62.777817"
       y1="12.335301"
       x1="62.777817"
       id="linearGradient1323"
       xlink:href="#linearGradient1325"
       inkscape:collect="always" />
    <linearGradient
       id="linearGradient1325">
      <stop
         offset="0"
         style="stop-color:#959595;stop-opacity:1"
         id="stop1327" />
      <stop
         offset="1"
         style="stop-color:#000000;stop-opacity:1"
         id="stop1329" />
    </linearGradient>
    <radialGradient
       gradientUnits="userSpaceOnUse"
       r="1.5688932"
       fy="10.236078"
       fx="63.263958"
       cy="10.236078"
       cx="63.263958"
       id="radialGradient1315"
       xlink:href="#linearGradient1414"
       inkscape:collect="always" />
    <linearGradient
       y2="1049.5842"
       x2="24.113745"
       y1="1007.2183"
       x1="24.113745"
       gradientTransform="matrix(1.0463902,0,0,1.1163425,-1.23905,-1121.9803)"
       gradientUnits="userSpaceOnUse"
       id="linearGradient2257"
       xlink:href="#linearGradient1408"
       inkscape:collect="always" />
    <linearGradient
       id="linearGradient1408">
      <stop
         style="stop-color:#cccccc;stop-opacity:1"
         offset="0"
         id="stop1410" />
      <stop
         style="stop-color:#999999;stop-opacity:1"
         offset="1"
         id="stop1412" />
    </linearGradient>
    <linearGradient
       gradientTransform="matrix(1.0809848,0,0,1.088837,-364.75116,1397.7614)"
       y2="-352.5625"
       x2="361.026"
       y1="-361.8125"
       x1="361.026"
       gradientUnits="userSpaceOnUse"
       id="linearGradient2157"
       xlink:href="#linearGradient1445"
       inkscape:collect="always" />
    <linearGradient
       gradientTransform="matrix(1.0809848,0,0,1.088837,-372.79098,1397.7614)"
       gradientUnits="userSpaceOnUse"
       y2="-352.5625"
       x2="361.026"
       y1="-358.3125"
       x1="361.026"
       id="linearGradient2140"
       xlink:href="#linearGradient1414"
       inkscape:collect="always" />
    <linearGradient
       inkscape:collect="always"
       xlink:href="#linearGradient1445"
       id="linearGradient1481"
       gradientUnits="userSpaceOnUse"
       x1="69.774361"
       y1="-0.97731781"
       x2="69.774361"
       y2="8.2150707"
       gradientTransform="matrix(1.0809848,0,0,1.088837,-64.884017,0.47)" />
    <linearGradient
       y2="-352.5625"
       x2="361.026"
       y1="-358.3125"
       x1="361.026"
       gradientTransform="matrix(1.0809848,0,0,1.088837,-340.34877,393.3992)"
       gradientUnits="userSpaceOnUse"
       id="linearGradient2189"
       xlink:href="#linearGradient1414"
       inkscape:collect="always" />
    <linearGradient
       y2="-352.5625"
       x2="361.026"
       y1="-361.8125"
       x1="361.026"
       gradientTransform="matrix(1.0809848,0,0,1.088837,-348.49178,393.3992)"
       gradientUnits="userSpaceOnUse"
       id="linearGradient2177"
       xlink:href="#linearGradient1445"
       inkscape:collect="always" />
    <linearGradient
       gradientTransform="matrix(1.0809848,0,0,1.088837,-356.62686,1397.7614)"
       y2="-352.5625"
       x2="361.026"
       y1="-358.3125"
       x1="361.026"
       gradientUnits="userSpaceOnUse"
       id="linearGradient2169"
       xlink:href="#linearGradient1414"
       inkscape:collect="always" />
    <linearGradient
       id="linearGradient1099">
      <stop
         offset="0"
         style="stop-color:#1a1a1a;stop-opacity:1"
         id="stop1101" />
      <stop
         offset="1"
         style="stop-color:#666666;stop-opacity:1"
         id="stop1103" />
    </linearGradient>
    <linearGradient
       inkscape:collect="always"
       xlink:href="#linearGradient1099"
       id="linearGradient1035"
       x1="25.711201"
       y1="1049.9272"
       x2="25.711201"
       y2="1006.3615"
       gradientUnits="userSpaceOnUse" />
  </defs>
  <sodipodi:namedview
     id="base"
     pagecolor="#ffffff"
     bordercolor="#666666"
     borderopacity="1.0"
     inkscape:pageopacity="0.0"
     inkscape:pageshadow="2"
     inkscape:zoom="4.590755"
     inkscape:cx="23.205062"
     inkscape:cy="6.5275532"
     inkscape:document-units="px"
     inkscape:current-layer="layer1"
     showgrid="false"
     inkscape:window-width="1366"
     inkscape:window-height="718"
     inkscape:window-x="0"
     inkscape:window-y="28"
     inkscape:window-maximized="1">
    <inkscape:grid
       type="xygrid"
       id="grid3818" />
  </sodipodi:namedview>
  <metadata
     id="metadata7">
    <rdf:RDF>
      <cc:Work
         rdf:about="">
        <dc:format>image/svg+xml</dc:format>
        <dc:type
           rdf:resource="http://purl.org/dc/dcmitype/StillImage" />
        <dc:title />
      </cc:Work>
    </rdf:RDF>
  </metadata>
  <g
     inkscape:label="Capa 1"
     inkscape:groupmode="layer"
     id="layer1"
     transform="translate(0,-1004.3622)">
    <rect
       style="color:#000000;fill:#333333;fill-opacity:1;fill-rule:nonzero;stroke:none;stroke-width:0.2;marker:none;visibility:visible;display:inline;overflow:visible;enable-background:accumulate"
       id="rect6294"
       width="45.5"
       height="45.5"
       x="1.25"
       y="1005.6122"
       ry="6.3565426" />
    <rect
       ry="5.8565426"
       y="1006.1122"
       x="1.75"
       height="44.5"
       width="44.5"
       id="rect6296"
       style="color:#000000;fill:url(#linearGradient1035);fill-opacity:1;fill-rule:nonzero;stroke:none;stroke-width:0.2;marker:none;visibility:visible;display:inline;overflow:visible;enable-background:accumulate" />
    <path
       id="path6361"
       d="m 1.75,1012.5497 0,-0.5625 c 0,-3.2445 2.599225,-5.875 5.84375,-5.875 l 32.8125,0 c 3.244525,0 5.84375,2.6305 5.84375,5.875 l 0,0.5625 c 0,-3.2445 -2.599225,-5.875 -5.84375,-5.875 l -32.8125,0 C 4.349225,1006.6747 1.75,1009.3052 1.75,1012.5497 Z"
       style="color:#000000;fill:#ffffff;fill-opacity:1;fill-rule:nonzero;stroke:none;stroke-width:0.2;marker:none;visibility:visible;display:inline;overflow:visible;enable-background:accumulate"
       inkscape:connector-curvature="0" />
    <path
       inkscape:connector-curvature="0"
       style="color:#000000;fill:#000000;fill-opacity:1;fill-rule:nonzero;stroke:none;stroke-width:0.2;marker:none;visibility:visible;display:inline;overflow:visible;enable-background:accumulate"
       d="m 1.75,1044.1747 0,0.5625 c 0,3.2445 2.599225,5.875 5.84375,5.875 l 32.8125,0 c 3.244525,0 5.84375,-2.6305 5.84375,-5.875 l 0,-0.5625 c 0,3.2445 -2.599225,5.875 -5.84375,5.875 l -32.8125,0 C 4.349225,1050.0497 1.75,1047.4192 1.75,1044.1747 Z"
       id="path6388" />
    <path
       style="fill:url(#linearGradient2169);fill-opacity:1;stroke:none"
       d="m 24.419573,1006.1214 7.702018,7.7921 8.141165,0 -7.668235,-7.7921 L 24.419573,1006.1214 Z"
       id="path2165"
       inkscape:connector-curvature="0" />
    <path
       style="fill:url(#linearGradient2177);fill-opacity:1;stroke:none"
       d="M 32.5625 1.75 L 40.25 9.5625 L 46.25 9.5625 L 46.25 7.59375 C 46.25 7.5086036 46.253562 7.4279894 46.25 7.34375 L 40.78125 1.78125 C 40.65507 1.7732061 40.53453 1.75 40.40625 1.75 L 32.5625 1.75 z "
       transform="translate(0,1004.3622)"
       id="path2173" />
    <path
       style="fill:url(#linearGradient2189);fill-opacity:1;stroke:none"
       d="M 40.6875 1.75 L 46.25 7.34375 C 46.121838 4.3127952 43.714195 1.8940016 40.6875 1.75 z "
       transform="translate(0,1004.3622)"
       id="path2185" />
    <path
       style="fill:url(#linearGradient1481);fill-opacity:1;stroke:none"
       d="M 7.59375 1.75 C 5.4521953 1.75 3.6149423 2.8870378 2.59375 4.59375 L 7.3125 9.40625 L 7.3125 9.5625 L 15.96875 9.5625 L 8.25 1.75 L 7.59375 1.75 z "
       transform="translate(0,1004.3622)"
       id="path1363" />
    <path
       style="fill:url(#linearGradient2140);fill-opacity:1;stroke:none"
       d="m 8.272362,1006.1214 7.668237,7.7921 8.141167,0 -7.668237,-7.7921 L 8.272362,1006.1214 Z"
       id="path2132"
       inkscape:connector-curvature="0" />
    <path
       style="fill:url(#linearGradient2157);fill-opacity:1;stroke:none"
       d="m 16.312187,1006.1214 7.668236,7.7921 8.141168,0 -7.668237,-7.7921 L 16.312187,1006.1214 Z"
       id="path2153"
       inkscape:connector-curvature="0" />
    <path
       style="fill:url(#linearGradient2257);fill-opacity:1;stroke:none"
       d="M 2.59375 4.59375 C 2.067803 5.4727619 1.75 6.4907801 1.75 7.59375 L 1.75 18.28125 L 7.3125 18.28125 L 7.3125 9.40625 L 2.59375 4.59375 z "
       transform="translate(0,1004.3622)"
       id="rect2246" />
    <g
       id="g2250"
       transform="matrix(1.0809848,0,0,-1.088837,-308.94843,1728.3582)">
      <path
         d="m 64.832851,10.236078 c 0,0.866476 -0.702417,1.568893 -1.568893,1.568893 -0.866476,0 -1.568893,-0.702417 -1.568893,-1.568893 0,-0.8664755 0.702417,-1.5688929 1.568893,-1.5688929 C 64.130434,8.6671851 64.832851,9.3696025 64.832851,10.236078 Z"
         sodipodi:ry="1.5688932"
         sodipodi:rx="1.5688932"
         sodipodi:cy="10.236078"
         sodipodi:cx="63.263958"
         id="path1222"
         style="fill:url(#linearGradient1323);fill-opacity:1;stroke:none"
         sodipodi:type="arc"
         transform="translate(226.73057,644.02194)" />
      <path
         sodipodi:type="arc"
         style="fill:url(#radialGradient1315);fill-opacity:1;stroke:none"
         id="path1224"
         sodipodi:cx="63.263958"
         sodipodi:cy="10.236078"
         sodipodi:rx="1.5688932"
         sodipodi:ry="1.5688932"
         d="m 64.832851,10.236078 c 0,0.866476 -0.702417,1.568893 -1.568893,1.568893 -0.866476,0 -1.568893,-0.702417 -1.568893,-1.568893 0,-0.8664755 0.702417,-1.5688929 1.568893,-1.5688929 C 64.130434,8.6671851 64.832851,9.3696025 64.832851,10.236078 Z"
         transform="matrix(0.83098592,0,0,0.83098592,237.42307,645.75194)" />
    </g>
    <path
       id="path2167"
       d="m 32.156084,1013.8785 -8.647879,8.7787 8.174949,0 8.614098,-8.7787 L 32.156084,1013.8785 Z"
       style="fill:url(#linearGradient2171);fill-opacity:1;stroke:none"
       inkscape:connector-curvature="0" />
    <path
       style="fill:url(#linearGradient2179);fill-opacity:1;stroke:none"
       d="M 40.28125 9.53125 L 31.65625 18.28125 L 39.8125 18.28125 L 46.25 11.75 L 46.25 9.53125 L 40.28125 9.53125 z "
       transform="translate(0,1004.3622)"
       id="path2175" />
    <path
       style="fill:url(#linearGradient2191);fill-opacity:1;stroke:none"
       d="M 46.25 11.71875 L 39.78125 18.28125 L 46.25 18.28125 L 46.25 11.71875 z "
       transform="translate(0,1004.3622)"
       id="path2187" />
    <path
       inkscape:connector-curvature="0"
       style="fill:url(#linearGradient1359);fill-opacity:1;stroke:none"
       d="m 7.339278,1013.9172 -0.03373,8.7448 8.68166,-8.7448 L 7.339278,1013.9172 Z"
       id="path1231" />
    <path
       style="fill:url(#linearGradient2148);fill-opacity:1;stroke:none"
       d="m 15.991979,1013.8785 -8.647879,8.7787 8.174947,0 8.614098,-8.7787 L 15.991979,1013.8785 Z"
       id="path2146"
       inkscape:connector-curvature="0" />
    <path
       id="path2155"
       d="m 24.137346,1013.8785 -8.647879,8.7787 8.290958,0 L 32.394524,1013.8785 Z"
       style="fill:url(#linearGradient2159);fill-opacity:1;stroke:none"
       inkscape:connector-curvature="0"
       sodipodi:nodetypes="ccccc" />
    <g
       id="g1253"
       transform="matrix(0.86013982,0,0,0.86013982,60.831103,152.97354)">
      <rect
         style="fill:#000000;fill-opacity:1;stroke:none"
         id="rect1172"
         width="42.899986"
         height="26.167862"
         x="-64.269897"
         y="1013.9452"
         ry="2.2800593" />
      <rect
         ry="2.2652888"
         y="1014.1273"
         x="-64.069901"
         height="25.803574"
         width="42.499992"
         id="rect1168"
         style="fill:#75ebf6;fill-opacity:1;stroke:none" />
      <rect
         style="fill:url(#radialGradient1134);fill-opacity:1;stroke:none"
         id="rect1130"
         width="42"
         height="25.5"
         x="-63.819904"
         y="1014.2791"
         ry="2.3089201" />
      <path
         id="rect1136"
         d="m -58.288653,1014.2792 25.46875,25.5 5.84375,0 -25.5,-25.5 L -58.288653,1014.2792 z m -5.53125,1.5938 0,5.8125 18.09375,18.0937 5.8125,0 L -63.819903,1015.873 z m 0,12.9375 0,5.8125 5.15625,5.1562 5.8125,0 L -63.819903,1028.8105 Z"
         style="color:#000000;fill:#ffffff;fill-opacity:0.31372549;fill-rule:nonzero;stroke:none;stroke-width:0.2;marker:none;visibility:visible;display:inline;overflow:visible;enable-background:accumulate"
         inkscape:connector-curvature="0" />
      <path
         id="rect1148"
         d="m -45.382403,1014.2792 23.5625,23.5625 0,-5.8437 -17.71875,-17.7188 L -45.382403,1014.2792 Z"
         style="color:#000000;fill:#ffffff;fill-opacity:0.31372549;fill-rule:nonzero;stroke:none;stroke-width:0.2;marker:none;visibility:visible;display:inline;overflow:visible;enable-background:accumulate"
         inkscape:connector-curvature="0" />
      <path
         id="rect1152"
         d="m -32.444903,1014.2792 10.625,10.625 0,-5.8437 -4.78125,-4.7813 L -32.444903,1014.2792 Z"
         style="color:#000000;fill:#ffffff;fill-opacity:0.31372549;fill-rule:nonzero;stroke:none;stroke-width:0.2;marker:none;visibility:visible;display:inline;overflow:visible;enable-background:accumulate"
         inkscape:connector-curvature="0" />
    </g>
  </g>
</svg>
