<?xml version="1.0" encoding="UTF-8" standalone="no"?>
<!-- Created with Inkscape (http://www.inkscape.org/) -->

<svg
   xmlns:dc="http://purl.org/dc/elements/1.1/"
   xmlns:cc="http://creativecommons.org/ns#"
   xmlns:rdf="http://www.w3.org/1999/02/22-rdf-syntax-ns#"
   xmlns:svg="http://www.w3.org/2000/svg"
   xmlns="http://www.w3.org/2000/svg"
   xmlns:xlink="http://www.w3.org/1999/xlink"
   xmlns:sodipodi="http://sodipodi.sourceforge.net/DTD/sodipodi-0.dtd"
   xmlns:inkscape="http://www.inkscape.org/namespaces/inkscape"
   width="48"
   height="48"
   id="svg2"
   version="1.1"
   inkscape:version="0.48+devel r12137"
   sodipodi:docname="hotot.svg">
  <defs
     id="defs4">
    <linearGradient
       inkscape:collect="always"
       id="linearGradient850">
      <stop
         style="stop-color:#000000;stop-opacity:1"
         offset="0"
         id="stop852" />
      <stop
         style="stop-color:#1a1a1a;stop-opacity:1"
         offset="1"
         id="stop854" />
    </linearGradient>
    <linearGradient
       inkscape:collect="always"
       xlink:href="#linearGradient931"
       id="linearGradient1076"
       x1="26.82683"
       y1="39.224621"
       x2="26.82683"
       y2="9.3340816"
       gradientUnits="userSpaceOnUse"
       gradientTransform="matrix(1.0644491,0,0,1.0644491,-0.53170478,1001.8467)" />
    <linearGradient
       id="linearGradient931"
       inkscape:collect="always">
      <stop
         id="stop933"
         offset="0"
         style="stop-color:#84c0e1;stop-opacity:1" />
      <stop
         style="stop-color:#b6daed;stop-opacity:1"
         offset="0.18185091"
         id="stop937" />
      <stop
         id="stop939"
         offset="0.59092546"
         style="stop-color:#2384db;stop-opacity:1" />
      <stop
         id="stop935"
         offset="1"
         style="stop-color:#0b65c2;stop-opacity:1" />
    </linearGradient>
    <linearGradient
       inkscape:collect="always"
       xlink:href="#linearGradient850"
       id="linearGradient884"
       x1="23.5625"
       y1="1051.0497"
       x2="23.5625"
       y2="1005.7372"
       gradientUnits="userSpaceOnUse" />
  </defs>
  <sodipodi:namedview
     id="base"
     pagecolor="#ffffff"
     bordercolor="#666666"
     borderopacity="1.0"
     inkscape:pageopacity="0.0"
     inkscape:pageshadow="2"
     inkscape:zoom="2.8284273"
     inkscape:cx="-46.860592"
     inkscape:cy="16.771866"
     inkscape:document-units="px"
     inkscape:current-layer="layer1"
     showgrid="false"
     inkscape:window-width="1366"
     inkscape:window-height="714"
     inkscape:window-x="0"
     inkscape:window-y="30"
     inkscape:window-maximized="1">
    <inkscape:grid
       type="xygrid"
       id="grid3850" />
  </sodipodi:namedview>
  <metadata
     id="metadata7">
    <rdf:RDF>
      <cc:Work
         rdf:about="">
        <dc:format>image/svg+xml</dc:format>
        <dc:type
           rdf:resource="http://purl.org/dc/dcmitype/StillImage" />
        <dc:title />
      </cc:Work>
    </rdf:RDF>
  </metadata>
  <g
     inkscape:label="Capa 1"
     inkscape:groupmode="layer"
     id="layer1"
     transform="translate(0,-1004.3622)">
    <rect
       style="color:#000000;fill:#333333;fill-opacity:1;fill-rule:nonzero;stroke:none;stroke-width:0.2;marker:none;visibility:visible;display:inline;overflow:visible;enable-background:accumulate"
       id="rect6294"
       width="45.5"
       height="45.5"
       x="1.25"
       y="1005.6122"
       ry="6.3565426" />
    <rect
       ry="5.8565426"
       y="1006.1122"
       x="1.75"
       height="44.5"
       width="44.5"
       id="rect6296"
       style="color:#000000;fill:url(#linearGradient884);fill-opacity:1;fill-rule:nonzero;stroke:none;stroke-width:0.2;marker:none;visibility:visible;display:inline;overflow:visible;enable-background:accumulate" />
    <g
       style="display:inline"
       id="g1094"
       transform="matrix(0.93748828,0,0,0.93748828,0.6110324,65.192647)">
      <path
         inkscape:connector-curvature="0"
         id="path1057"
         d="m 24.948545,1011.3935 -13.77131,13.8045 -0.06653,0 0,0.067 -2.860707,2.8939 2.095634,3.526 1.762994,-0.9314 3.825364,12.6404 9.014553,0 9.014553,0 3.825364,-12.6404 1.762993,0.9314 2.095634,-3.526 -2.860706,-2.8939 0,-0.067 -0.06653,0 L 24.948545,1011.3935 z m 0,11.3762 c 2.688331,0.036 4.85655,2.2257 4.856549,4.9231 0,2.6968 -2.168219,4.9524 -4.856549,4.9896 -2.68833,-0.037 -4.856549,-2.2928 -4.856549,-4.9896 C 20.091995,1024.9954 22.260214,1022.8055 24.948545,1022.7697 z m 0,13.4055 c 0.790835,0.042 1.430354,0.6967 1.430353,1.4968 0,0.7999 -0.639864,1.4211 -1.430353,1.4637 -0.79049,-0.043 -1.430354,-0.6638 -1.430354,-1.4637 C 23.51819,1036.8719 24.157709,1036.217 24.948545,1036.1752 Z"
         style="fill:url(#linearGradient1076);fill-opacity:1" />
      <path
         inkscape:connector-curvature="0"
         id="path1078"
         d="m 24.948545,1022.0088 c -2.688331,0.036 -4.85655,2.2257 -4.856549,4.9231 0,0.1277 0.02372,0.2404 0.03326,0.366 0.186183,-2.5263 2.258058,-4.5231 4.823285,-4.5573 2.565226,0.034 4.637102,2.031 4.823285,4.5573 0.0096,-0.1256 0.03326,-0.2383 0.03326,-0.366 C 29.805095,1024.2345 27.636876,1022.045 24.948545,1022.0088 z m -16.4324327,5.8545 -0.2661123,0.2661 2.095634,3.526 1.762994,-0.9314 3.825364,12.6403 9.014553,0 9.014553,0 3.825364,-12.6403 1.762993,0.9314 2.095634,-3.526 -0.266112,-0.2661 -1.829522,3.0603 -1.762993,-0.9314 -3.825364,12.6403 -9.014553,0 -9.014553,0 -3.825364,-12.6403 -1.762994,0.9314 L 8.5161123,1027.8633 z m 16.4324327,7.551 c -0.790836,0.042 -1.430355,0.6967 -1.430354,1.4968 0,0.1382 0.03084,0.2405 0.06653,0.366 0.159963,-0.6252 0.698012,-1.0959 1.363826,-1.131 0.665814,0.035 1.203863,0.5057 1.363825,1.131 0.03569,-0.1255 0.06653,-0.2278 0.06653,-0.366 C 26.378899,1036.111 25.73938,1035.4558 24.948545,1035.4143 Z"
         style="fill:#ffffff;fill-opacity:0.24324323" />
      <path
         inkscape:connector-curvature="0"
         id="path1085"
         d="m 24.948545,1011.3935 -13.77131,13.8045 -0.06653,0 0,0.067 -2.860707,2.8939 0.1995842,0.3327 2.6611228,-2.6944 0,-0.067 0.06653,0 13.77131,-13.8045 13.771309,13.8045 0.06653,0 0,0.067 2.661122,2.6944 0.199584,-0.3327 -2.860706,-2.8939 0,-0.067 -0.06653,0 L 24.948545,1011.3935 z m -4.823285,16.5654 c -0.0048,0.089 -0.03326,0.176 -0.03326,0.2662 0,2.6967 2.168219,4.9523 4.856549,4.9896 2.68833,-0.037 4.856549,-2.2929 4.856549,-4.9896 0,-0.09 -0.02848,-0.1772 -0.03326,-0.2662 -0.138285,2.5763 -2.224788,4.6875 -4.823285,4.7235 C 22.350048,1032.6464 20.263545,1030.5352 20.12526,1027.9589 z m 3.426195,10.0125 c -0.01172,0.075 -0.03326,0.1548 -0.03326,0.2329 0,0.7998 0.639864,1.421 1.430354,1.4636 0.790489,-0.043 1.430353,-0.6638 1.430353,-1.4636 0,-0.078 -0.02154,-0.158 -0.03326,-0.2329 -0.133282,0.6553 -0.70541,1.127 -1.397089,1.1643 C 24.256866,1039.0984 23.684737,1038.6267 23.551455,1037.9714 Z"
         style="fill:#000000;fill-opacity:0.20077221" />
      <path
         inkscape:connector-curvature="0"
         style="fill:#000000;fill-opacity:0.13899614"
         d="m 24.948545,1011.9257 -13.77131,13.8045 -0.06653,0 0,0.066 -2.860707,2.8942 0.1995842,0.3326 2.6611228,-2.6945 0,-0.066 0.06653,0 13.77131,-13.8047 13.771309,13.8047 0.06653,0 0,0.066 2.661122,2.6945 0.199584,-0.3326 -2.860706,-2.8942 0,-0.066 -0.06653,0 L 24.948545,1011.9257 z m -4.823285,16.5655 c -0.0048,0.089 -0.03326,0.176 -0.03326,0.2661 0,2.6968 2.168219,4.9524 4.856549,4.9896 2.68833,-0.037 4.856549,-2.2928 4.856549,-4.9896 0,-0.09 -0.02848,-0.1771 -0.03326,-0.2661 -0.138285,2.5763 -2.224788,4.6875 -4.823285,4.7235 C 22.350048,1033.1787 20.263545,1031.0675 20.12526,1028.4912 z m 3.426195,10.0124 c -0.01172,0.074 -0.03326,0.1549 -0.03326,0.2329 0,0.7999 0.639864,1.4211 1.430354,1.4637 0.790489,-0.043 1.430353,-0.6638 1.430353,-1.4637 0,-0.078 -0.02154,-0.1579 -0.03326,-0.2329 -0.133282,0.6554 -0.70541,1.1271 -1.397089,1.1643 C 24.256866,1039.6307 23.684737,1039.159 23.551455,1038.5036 Z"
         id="path1090" />
      <path
         id="path1092"
         d="m 24.948545,1012.455 -13.77131,13.8045 -0.06653,0 0,0.066 -2.860707,2.8941 0.1995842,0.3327 2.6611228,-2.6946 0,-0.066 0.06653,0 13.77131,-13.8046 13.771309,13.8046 0.06653,0 0,0.066 2.661122,2.6946 0.199584,-0.3327 -2.860706,-2.8941 0,-0.066 -0.06653,0 L 24.948545,1012.455 z m -4.823285,16.5655 c -0.0048,0.089 -0.03326,0.1759 -0.03326,0.2661 0,2.6968 2.168219,4.9523 4.856549,4.9896 2.68833,-0.037 4.856549,-2.2928 4.856549,-4.9896 0,-0.091 -0.02848,-0.1772 -0.03326,-0.2661 -0.138285,2.5762 -2.224788,4.6875 -4.823285,4.7235 C 22.350048,1033.708 20.263545,1031.5967 20.12526,1029.0205 z m 3.426195,10.0124 c -0.01172,0.075 -0.03326,0.1549 -0.03326,0.2329 0,0.7998 0.639864,1.421 1.430354,1.4636 0.790489,-0.043 1.430353,-0.6638 1.430353,-1.4636 0,-0.078 -0.02154,-0.158 -0.03326,-0.2329 -0.133282,0.6554 -0.70541,1.127 -1.397089,1.1643 C 24.256866,1040.1599 23.684737,1039.6883 23.551455,1039.0329 Z"
         style="fill:#000000;fill-opacity:0.05791506"
         inkscape:connector-curvature="0" />
    </g>
    <path
       style="fill:#ffffff;fill-opacity:0.08494209;stroke:none;display:inline"
       d="M 7.59375 1.75 C 4.3492254 1.75 1.75 4.3492254 1.75 7.59375 L 1.75 24 L 46.25 24 L 46.25 7.59375 C 46.25 4.3492254 43.650775 1.75 40.40625 1.75 L 7.59375 1.75 z "
       transform="translate(0,1004.3622)"
       id="rect858" />
    <path
       id="path6361"
       d="m 1.7499999,1012.5497 0,-0.5625 c 0,-3.2445 2.599225,-5.875 5.84375,-5.875 l 32.8125001,0 c 3.244525,0 5.84375,2.6305 5.84375,5.875 l 0,0.5625 c 0,-3.2445 -2.599225,-5.875 -5.84375,-5.875 l -32.8125001,0 C 4.3492249,1006.6747 1.7499999,1009.3052 1.7499999,1012.5497 Z"
       style="color:#000000;fill:#ffffff;fill-opacity:1;fill-rule:nonzero;stroke:none;stroke-width:0.2;marker:none;visibility:visible;display:inline;overflow:visible;enable-background:accumulate"
       inkscape:connector-curvature="0" />
    <path
       inkscape:connector-curvature="0"
       style="color:#000000;fill:#000000;fill-opacity:1;fill-rule:nonzero;stroke:none;stroke-width:0.2;marker:none;visibility:visible;display:inline;overflow:visible;enable-background:accumulate"
       d="m 1.7499999,1044.1747 0,0.5625 c 0,3.2445 2.599225,5.875 5.84375,5.875 l 32.8125001,0 c 3.244525,0 5.84375,-2.6305 5.84375,-5.875 l 0,-0.5625 c 0,3.2445 -2.599225,5.875 -5.84375,5.875 l -32.8125001,0 C 4.3492249,1050.0497 1.7499999,1047.4192 1.7499999,1044.1747 Z"
       id="path6388" />
  </g>
</svg>
