<?xml version="1.0" encoding="UTF-8" standalone="no"?>
<!-- Created with Inkscape (http://www.inkscape.org/) -->

<svg
   xmlns:dc="http://purl.org/dc/elements/1.1/"
   xmlns:cc="http://creativecommons.org/ns#"
   xmlns:rdf="http://www.w3.org/1999/02/22-rdf-syntax-ns#"
   xmlns:svg="http://www.w3.org/2000/svg"
   xmlns="http://www.w3.org/2000/svg"
   xmlns:xlink="http://www.w3.org/1999/xlink"
   xmlns:sodipodi="http://sodipodi.sourceforge.net/DTD/sodipodi-0.dtd"
   xmlns:inkscape="http://www.inkscape.org/namespaces/inkscape"
   width="48"
   height="48"
   id="svg2"
   version="1.1"
   inkscape:version="0.48+devel r12137"
   sodipodi:docname="gtk-info.svg">
  <defs
     id="defs4">
    <linearGradient
       gradientTransform="scale(1.0058652,0.994169)"
       gradientUnits="userSpaceOnUse"
       id="ButtonShadow"
       y2="7.0165396"
       x2="45.447727"
       y1="92.539597"
       x1="45.447727">
      <stop
         offset="0"
         style="stop-color:#000000;stop-opacity:1"
         id="stop3750" />
      <stop
         offset="1"
         style="stop-color:#000000;stop-opacity:0.58823532"
         id="stop3752" />
    </linearGradient>
    <linearGradient
       id="linearGradient3737">
      <stop
         offset="0"
         style="stop-color:#ffffff;stop-opacity:1"
         id="stop3739" />
      <stop
         offset="1"
         style="stop-color:#ffffff;stop-opacity:0"
         id="stop3741" />
    </linearGradient>
    <filter
       style="color-interpolation-filters:sRGB"
       id="filter3174">
      <feGaussianBlur
         stdDeviation="1.71"
         id="feGaussianBlur3176" />
    </filter>
    <filter
       style="color-interpolation-filters:sRGB"
       id="filter3794"
       height="1.3839999"
       width="1.3839999"
       y="-0.192"
       x="-0.192">
      <feGaussianBlur
         stdDeviation="5.28"
         id="feGaussianBlur3796" />
    </filter>
    <linearGradient
       gradientUnits="userSpaceOnUse"
       xlink:href="#linearGradient3737"
       id="linearGradient3613"
       y2="138.66119"
       x2="48"
       y1="20.220806"
       x1="48" />
    <clipPath
       id="clipPath3613">
      <rect
         style="fill:#ffffff;fill-opacity:1;fill-rule:nonzero;stroke:none"
         id="rect3615"
         y="6"
         x="6"
         ry="6"
         rx="6"
         height="84"
         width="84" />
    </clipPath>
    <linearGradient
       inkscape:collect="always"
       xlink:href="#linearGradient908"
       id="linearGradient858"
       x1="-27.502325"
       y1="1066.4198"
       x2="-27.502325"
       y2="1021.7751"
       gradientUnits="userSpaceOnUse"
       gradientTransform="translate(51.960903,-15.812483)" />
    <linearGradient
       id="linearGradient908">
      <stop
         style="stop-color:#4d78c6;stop-opacity:1"
         offset="0"
         id="stop910" />
      <stop
         style="stop-color:#adc1e6;stop-opacity:1"
         offset="1"
         id="stop912" />
    </linearGradient>
  </defs>
  <sodipodi:namedview
     id="base"
     pagecolor="#ffffff"
     bordercolor="#666666"
     borderopacity="1.0"
     inkscape:pageopacity="0.0"
     inkscape:pageshadow="2"
     inkscape:zoom="6.4733248"
     inkscape:cx="9.5456509"
     inkscape:cy="29.156769"
     inkscape:document-units="px"
     inkscape:current-layer="layer1"
     showgrid="false"
     inkscape:window-width="1366"
     inkscape:window-height="714"
     inkscape:window-x="0"
     inkscape:window-y="30"
     inkscape:window-maximized="1">
    <inkscape:grid
       type="xygrid"
       id="grid3850"
       empspacing="5"
       visible="true"
       enabled="true"
       snapvisiblegridlinesonly="true" />
  </sodipodi:namedview>
  <metadata
     id="metadata7">
    <rdf:RDF>
      <cc:Work
         rdf:about="">
        <dc:format>image/svg+xml</dc:format>
        <dc:type
           rdf:resource="http://purl.org/dc/dcmitype/StillImage" />
        <dc:title />
      </cc:Work>
    </rdf:RDF>
  </metadata>
  <g
     inkscape:label="Capa 1"
     inkscape:groupmode="layer"
     id="layer1"
     transform="translate(0,-1004.3622)">
    <rect
       style="color:#000000;fill:#333333;fill-opacity:1;fill-rule:nonzero;stroke:none;stroke-width:0.2;marker:none;visibility:visible;display:inline;overflow:visible;enable-background:accumulate"
       id="rect6294"
       width="45.5"
       height="45.5"
       x="1.25"
       y="1005.6122"
       ry="6.3565426" />
    <rect
       ry="5.8565426"
       y="1006.1122"
       x="1.75"
       height="44.5"
       width="44.5"
       id="rect6296"
       style="color:#000000;fill:url(#linearGradient858);fill-opacity:1.0;fill-rule:nonzero;stroke:none;stroke-width:0.2;marker:none;visibility:visible;display:inline;overflow:visible;enable-background:accumulate" />
    <path
       id="path6361"
       d="m 1.7500012,1012.5498 0,-0.5625 c 0,-3.2445 2.599225,-5.875 5.84375,-5.875 l 32.8124998,0 c 3.244525,0 5.84375,2.6305 5.84375,5.875 l 0,0.5625 c 0,-3.2445 -2.599225,-5.875 -5.84375,-5.875 l -32.8124998,0 C 4.3492262,1006.6748 1.7500012,1009.3053 1.7500012,1012.5498 Z"
       style="color:#000000;fill:#ffffff;fill-opacity:1;fill-rule:nonzero;stroke:none;stroke-width:0.2;marker:none;visibility:visible;display:inline;overflow:visible;enable-background:accumulate"
       inkscape:connector-curvature="0" />
    <path
       inkscape:connector-curvature="0"
       style="color:#000000;fill:#000000;fill-opacity:1;fill-rule:nonzero;stroke:none;stroke-width:0.2;marker:none;visibility:visible;display:inline;overflow:visible;enable-background:accumulate"
       d="m 1.7500012,1044.1748 0,0.5625 c 0,3.2445 2.599225,5.875 5.84375,5.875 l 32.8124998,0 c 3.244525,0 5.84375,-2.6305 5.84375,-5.875 l 0,-0.5625 c 0,3.2445 -2.599225,5.875 -5.84375,5.875 l -32.8124998,0 C 4.3492262,1050.0498 1.7500012,1047.4193 1.7500012,1044.1748 Z"
       id="path6388" />
    <g
       id="layer2"
       style="display:none"
       transform="translate(-148.03414,970.398)">
      <rect
         width="86"
         height="85"
         rx="6"
         ry="6"
         x="5"
         y="7"
         id="rect3745"
         style="opacity:0.9;fill:url(#ButtonShadow);fill-opacity:1;fill-rule:nonzero;stroke:none;filter:url(#filter3174)" />
    </g>
    <g
       id="layer5"
       style="display:none"
       transform="translate(-148.03414,970.398)">
      <rect
         width="66"
         height="66"
         rx="12"
         ry="12"
         x="15"
         y="15"
         clip-path="url(#clipPath3613)"
         id="rect3171"
         style="opacity:0.1;fill:url(#linearGradient3613);fill-opacity:1;fill-rule:nonzero;stroke:#ffffff;stroke-width:0.5;stroke-linecap:round;stroke-linejoin:miter;stroke-miterlimit:4;stroke-opacity:1;stroke-dasharray:none;stroke-dashoffset:0;filter:url(#filter3794)" />
    </g>
    <g
       id="g873"
       transform="matrix(0.9375,0,0,0.9375,1.5,64.272638)">
      <g
         transform="matrix(1.3540356,0,0,1.3540356,-3.6615694,-375.88498)"
         id="text845"
         style="font-size:55.87999725px;font-style:normal;font-variant:normal;font-weight:normal;font-stretch:normal;text-align:start;line-height:125%;letter-spacing:0px;word-spacing:0px;writing-mode:lr-tb;text-anchor:start;fill:#000000;fill-opacity:0.42857145;stroke:none;font-family:Alex Brush;-inkscape-font-specification:Alex Brush">
        <path
           style="fill:#000000;fill-opacity:0.42857145"
           inkscape:connector-curvature="0"
           id="path852"
           d="m 27.805222,1027.1104 c 0,-1.0617 -1.28524,-1.844 -2.34696,-1.844 -1.396999,0 -2.123439,0.5029 -2.123439,1.5646 0,1.0618 1.06172,2.0117 2.346959,2.0117 C 26.575862,1028.8427 27.805222,1028.0045 27.805222,1027.1104 z m -1.84404,14.92 c 1.45288,-1.5088 2.40284,-2.6822 2.40284,-3.0734 0,-0.2235 -0.05588,-0.3353 -0.22352,-0.3353 -0.16764,0 -0.78232,0.3353 -1.50876,1.2853 -1.1176,1.397 -2.291079,2.5145 -4.302759,4.1909 -0.78232,0.6706 -4.4704,3.4646 -6.31444,3.4646 -0.8382,0 -1.397,-0.5029 -1.397,-1.7882 0,-1.5087 1.397,-4.0792 4.191,-7.7114 2.84988,-3.6881 4.24688,-5.5321 4.24688,-5.4762 0,-0.6706 -1.28524,-1.3411 -1.9558,-1.3411 -1.397,0.056 -3.0734,1.7881 -5.14096,5.1409 -1.89992,3.0734 -3.01752,5.6439 -3.3528,7.5997 -0.05588,0.3353 -0.11176,0.6705 -0.11176,1.0058 0,2.7381 1.22936,3.6881 2.84988,3.6881 C 19.758503,1048.6801 23.223063,1044.7685 25.961182,1042.0304 Z" />
      </g>
      <path
         inkscape:connector-curvature="0"
         id="path856"
         d="m 30.811296,1012.3622 c -1.891588,0 -2.879275,0.6676 -2.879275,2.1053 0,0.1194 0.01177,0.2548 0.03096,0.3715 0.140862,-1.2173 1.104053,-1.7957 2.848315,-1.7957 1.314189,0 2.86757,0.886 3.126954,2.1363 0.02489,-0.1059 0.06192,-0.2019 0.06192,-0.3096 C 34.00017,1013.4324 32.248902,1012.3622 30.811296,1012.3622 z m -5.91335,8.1115 c -1.891587,0.076 -4.166437,2.3952 -6.965987,6.935 -2.572559,4.1615 -4.06617,7.6614 -4.520152,10.3097 -0.07566,0.4539 -0.1548,0.9082 -0.1548,1.3622 0,0.1128 -0.003,0.2013 0,0.3096 0.0248,-0.3407 0.09801,-0.6809 0.1548,-1.0216 0.453982,-2.6482 1.947593,-6.1172 4.520152,-10.2787 2.79955,-4.5398 5.0744,-6.8898 6.965987,-6.966 0.753985,0 2.079044,0.6299 2.507756,1.3622 0.0125,-0.013 0.154799,-0.2211 0.154799,-0.2167 C 27.560501,1021.3614 25.805909,1020.4737 24.897946,1020.4737 z m 9.535663,9.9691 c -0.22699,0 -1.059731,0.4474 -2.043356,1.7338 -1.513271,1.8915 -3.096584,3.4267 -5.82047,5.6966 -1.05929,0.908 -6.048049,4.6749 -8.544944,4.6749 -1.022868,0 -1.726236,-0.5672 -1.857597,-1.9504 -0.004,0.069 -0.03096,0.1503 -0.03096,0.2167 0,1.7404 0.753604,2.4149 1.888557,2.4149 2.496895,0 7.485654,-3.798 8.544944,-4.7059 2.723886,-2.27 4.307199,-3.7741 5.82047,-5.6657 0.983625,-1.2864 1.816366,-1.7338 2.043356,-1.7338 0.1004,0 0.168983,0.034 0.21672,0.093 0.05447,-0.123 0.09288,-0.2311 0.09288,-0.3096 C 34.743208,1030.6046 34.660601,1030.4428 34.433609,1030.4428 Z"
         style="font-size:55.87999725px;font-style:normal;font-variant:normal;font-weight:normal;font-stretch:normal;text-align:start;line-height:125%;letter-spacing:0px;word-spacing:0px;writing-mode:lr-tb;text-anchor:start;fill:#000000;fill-opacity:0.42857145;stroke:none;font-family:Alex Brush;-inkscape-font-specification:Alex Brush" />
      <path
         inkscape:connector-curvature="0"
         id="path867"
         d="m 27.962981,1014.6097 c -0.0031,0.055 -0.03096,0.098 -0.03096,0.1548 0,1.4377 1.448615,2.7245 3.188874,2.7245 1.210616,0 2.879275,-1.1113 2.879275,-2.322 0,-0.063 -0.02438,-0.1239 -0.03096,-0.1857 -0.129412,1.1524 -1.688141,2.1981 -2.848315,2.1981 C 29.445228,1017.1794 28.064231,1015.9818 27.962981,1014.6097 z m -0.464399,7.74 c -0.08963,0.048 -1.931446,2.4338 -5.69663,7.3066 -3.783176,4.9181 -5.66567,8.4216 -5.66567,10.4644 0,0.08 -0.0032,0.1412 0,0.2167 0.05119,-2.0537 1.934398,-5.49 5.66567,-10.3406 3.858838,-4.9939 5.758549,-7.5061 5.758549,-7.4304 C 27.560501,1022.494 27.519442,1022.4218 27.498582,1022.3497 z m 7.213667,8.6688 c -0.14852,0.6185 -1.375536,2.1095 -3.219835,4.0248 -3.70751,3.7075 -8.387997,9.0093 -14.365414,9.0093 -1.919961,0 -3.459459,-0.9853 -3.808073,-3.7152 0.275913,2.9514 1.821373,4.0248 3.808073,4.0248 5.977417,0 10.657904,-5.3018 14.365414,-9.0093 1.967252,-2.043 3.250794,-3.6189 3.250794,-4.1486 C 34.743208,1031.1219 34.724966,1031.0785 34.712249,1031.0185 Z"
         style="font-size:55.87999725px;font-style:normal;font-variant:normal;font-weight:normal;font-stretch:normal;text-align:start;line-height:125%;letter-spacing:0px;word-spacing:0px;writing-mode:lr-tb;text-anchor:start;fill:#ffffff;fill-opacity:0.42857145;stroke:none;font-family:Alex Brush;-inkscape-font-specification:Alex Brush" />
    </g>
  </g>
</svg>
