<?xml version="1.0" encoding="UTF-8" standalone="no"?>
<!-- Created with Inkscape (http://www.inkscape.org/) -->

<svg
   xmlns:dc="http://purl.org/dc/elements/1.1/"
   xmlns:cc="http://creativecommons.org/ns#"
   xmlns:rdf="http://www.w3.org/1999/02/22-rdf-syntax-ns#"
   xmlns:svg="http://www.w3.org/2000/svg"
   xmlns="http://www.w3.org/2000/svg"
   xmlns:xlink="http://www.w3.org/1999/xlink"
   xmlns:sodipodi="http://sodipodi.sourceforge.net/DTD/sodipodi-0.dtd"
   xmlns:inkscape="http://www.inkscape.org/namespaces/inkscape"
   width="48"
   height="48"
   id="svg2"
   version="1.1"
   inkscape:version="0.48+devel r12137"
   sodipodi:docname="indicator-weather.svg">
  <defs
     id="defs4">
    <radialGradient
       fx="0"
       fy="0"
       cx="0"
       cy="0"
       r="1"
       gradientUnits="userSpaceOnUse"
       gradientTransform="matrix(301.28952,0,0,-294.11624,297.63867,297.6377)"
       spreadMethod="pad"
       id="radialGradient24">
      <stop
         style="stop-opacity:1;stop-color:#c9dfef"
         offset="0"
         id="stop26" />
      <stop
         style="stop-opacity:1;stop-color:#96cbe9"
         offset="1"
         id="stop28" />
    </radialGradient>
    <radialGradient
       id="radialGradient2493"
       spreadMethod="pad"
       gradientTransform="matrix(301.28952,0,0,-294.11624,297.63867,297.6377)"
       gradientUnits="userSpaceOnUse"
       r="1"
       cy="0"
       cx="0"
       fy="0"
       fx="0">
      <stop
         id="stop2495"
         offset="0"
         style="stop-opacity:1;stop-color:#4d96ca" />
      <stop
         id="stop2497"
         offset="1"
         style="stop-opacity:1;stop-color:#bfe5fa" />
    </radialGradient>
    <linearGradient
       x1="0"
       y1="0"
       x2="1"
       y2="0"
       gradientUnits="userSpaceOnUse"
       gradientTransform="matrix(-45.039169,16.392914,16.392914,45.039185,201.83008,435.00586)"
       spreadMethod="pad"
       id="linearGradient440">
      <stop
         style="stop-opacity:1;stop-color:#faa932"
         offset="0"
         id="stop442" />
      <stop
         style="stop-opacity:1;stop-color:#ffde23"
         offset="1"
         id="stop444" />
    </linearGradient>
    <linearGradient
       x1="0"
       y1="0"
       x2="1"
       y2="0"
       gradientUnits="userSpaceOnUse"
       gradientTransform="matrix(-21.766113,37.700012,37.700012,21.766113,190.19434,424.35156)"
       spreadMethod="pad"
       id="linearGradient460">
      <stop
         style="stop-opacity:1;stop-color:#faa932"
         offset="0"
         id="stop462" />
      <stop
         style="stop-opacity:1;stop-color:#ffde23"
         offset="1"
         id="stop464" />
    </linearGradient>
    <clipPath
       clipPathUnits="userSpaceOnUse"
       id="clipPath472">
      <path
         inkscape:connector-curvature="0"
         d="m 0,595.276 595.276,0 L 595.276,0 0,0 0,595.276 Z"
         id="path474" />
    </clipPath>
    <clipPath
       clipPathUnits="userSpaceOnUse"
       id="clipPath480">
      <path
         inkscape:connector-curvature="0"
         d="m 158.519,463.792 41.585,0 0,-22.514 -41.585,0 L 158.519,463.792 Z"
         id="path482" />
    </clipPath>
    <linearGradient
       x1="0"
       y1="0"
       x2="1"
       y2="0"
       gradientUnits="userSpaceOnUse"
       gradientTransform="matrix(0,-29.921328,29.921328,0,-27.447821,1042.7243)"
       spreadMethod="pad"
       id="linearGradient504">
      <stop
         style="stop-opacity:1;stop-color:#f9f9f9"
         offset="0"
         id="stop506" />
      <stop
         style="stop-opacity:1;stop-color:#ffffff"
         offset="1"
         id="stop508" />
    </linearGradient>
    <radialGradient
       inkscape:collect="always"
       xlink:href="#radialGradient24"
       id="radialGradient2740"
       cx="24"
       cy="1028.3622"
       fx="24"
       fy="1028.3622"
       r="22.25"
       gradientUnits="userSpaceOnUse" />
    <linearGradient
       inkscape:collect="always"
       xlink:href="#radialGradient2493"
       id="linearGradient2744"
       x1="23.924595"
       y1="1050.6876"
       x2="23.924595"
       y2="1005.8912"
       gradientUnits="userSpaceOnUse" />
  </defs>
  <sodipodi:namedview
     id="base"
     pagecolor="#ffffff"
     bordercolor="#666666"
     borderopacity="1.0"
     inkscape:pageopacity="0.0"
     inkscape:pageshadow="2"
     inkscape:zoom="4.6886621"
     inkscape:cx="-14.392035"
     inkscape:cy="3.203603"
     inkscape:document-units="px"
     inkscape:current-layer="layer1"
     showgrid="false"
     inkscape:window-width="1366"
     inkscape:window-height="714"
     inkscape:window-x="0"
     inkscape:window-y="30"
     inkscape:window-maximized="1">
    <inkscape:grid
       type="xygrid"
       id="grid3850" />
  </sodipodi:namedview>
  <metadata
     id="metadata7">
    <rdf:RDF>
      <cc:Work
         rdf:about="">
        <dc:format>image/svg+xml</dc:format>
        <dc:type
           rdf:resource="http://purl.org/dc/dcmitype/StillImage" />
        <dc:title></dc:title>
      </cc:Work>
    </rdf:RDF>
  </metadata>
  <g
     inkscape:label="Capa 1"
     inkscape:groupmode="layer"
     id="layer1"
     transform="translate(0,-1004.3622)">
    <rect
       style="color:#000000;fill:#333333;fill-opacity:1;fill-rule:nonzero;stroke:none;stroke-width:0.2;marker:none;visibility:visible;display:inline;overflow:visible;enable-background:accumulate"
       id="rect6294"
       width="45.5"
       height="45.5"
       x="1.25"
       y="1005.6122"
       ry="6.3565426" />
    <rect
       ry="5.8565426"
       y="1006.1122"
       x="1.75"
       height="44.5"
       width="44.5"
       id="rect6296"
       style="color:#000000;fill:url(#radialGradient2740);fill-opacity:1.0;fill-rule:nonzero;stroke:none;stroke-width:0.2;marker:none;visibility:visible;display:inline;overflow:visible;enable-background:accumulate" />
    <path
       id="path6361"
       d="m 1.7499999,1012.5497 0,-0.5625 c 0,-3.2445 2.599225,-5.875 5.84375,-5.875 l 32.8125001,0 c 3.244525,0 5.84375,2.6305 5.84375,5.875 l 0,0.5625 c 0,-3.2445 -2.599225,-5.875 -5.84375,-5.875 l -32.8125001,0 C 4.3492249,1006.6747 1.7499999,1009.3052 1.7499999,1012.5497 Z"
       style="color:#000000;fill:#ffffff;fill-opacity:1;fill-rule:nonzero;stroke:none;stroke-width:0.2;marker:none;visibility:visible;display:inline;overflow:visible;enable-background:accumulate"
       inkscape:connector-curvature="0" />
    <path
       inkscape:connector-curvature="0"
       style="color:#000000;fill:#000000;fill-opacity:1;fill-rule:nonzero;stroke:none;stroke-width:0.2;marker:none;visibility:visible;display:inline;overflow:visible;enable-background:accumulate"
       d="m 1.7499999,1044.1747 0,0.5625 c 0,3.2445 2.599225,5.875 5.84375,5.875 l 32.8125001,0 c 3.244525,0 5.84375,-2.6305 5.84375,-5.875 l 0,-0.5625 c 0,3.2445 -2.599225,5.875 -5.84375,5.875 l -32.8125001,0 C 4.3492249,1050.0497 1.7499999,1047.4192 1.7499999,1044.1747 Z"
       id="path6388" />
    <rect
       style="color:#000000;fill:url(#linearGradient2744);fill-opacity:1;fill-rule:nonzero;stroke:none;stroke-width:0.2;marker:none;visibility:visible;display:inline;overflow:visible;enable-background:accumulate"
       id="rect2742"
       width="44.5"
       height="44.5"
       x="1.75"
       y="1006.1122"
       ry="5.8565426" />
    <g
       id="g2746"
       transform="matrix(0.89531266,0,0,0.89531266,48.570861,108.44805)">
      <g
         id="g428"
         transform="matrix(0.38191171,0,0,-0.38191171,-108.11194,1189.0647)">
        <g
           id="g430">
          <g
             id="g436">
            <g
               id="g438">
              <path
                 id="path446"
                 style="fill:url(#linearGradient440);stroke:none"
                 d="m 179.311,466.075 -3.417,0.893 -3.03,-1.814 -3.529,-0.109 -2.391,-2.598 -3.355,-1.101 -1.566,-3.164 -2.911,-1.998 -0.614,-3.477 -2.229,-2.738 0.397,-3.51 -1.364,-3.258 1.364,-3.256 -0.397,-3.509 2.228,-2.739 0.614,-3.476 2.911,-1.998 1.566,-3.165 3.355,-1.101 2.391,-2.598 3.53,-0.11 3.029,-1.813 3.418,0.892 3.417,-0.892 3.028,1.813 3.53,0.109 2.391,2.598 3.355,1.101 1.565,3.165 2.91,1.998 0.614,3.477 2.229,2.738 -0.397,3.509 1.363,3.257 -1.363,3.257 0.397,3.51 -2.229,2.737 -0.613,3.477 -2.91,1.998 -1.564,3.164 -3.356,1.103 -2.39,2.597 -3.53,0.11 -3.029,1.814 L 179.311,466.075 Z"
                 inkscape:connector-curvature="0" />
            </g>
          </g>
        </g>
      </g>
      <g
         id="g448"
         transform="matrix(0.38191171,0,0,-0.38191171,-108.11194,1189.0647)">
        <g
           id="g450">
          <g
             id="g456">
            <g
               id="g458">
              <path
                 id="path466"
                 style="fill:url(#linearGradient460);stroke:none"
                 d="m 157.549,443.201 c 0,-12.018 9.743,-21.762 21.762,-21.762 l 0,0 c 12.02,0 21.763,9.744 21.763,21.762 l 0,0 c 0,12.019 -9.743,21.763 -21.763,21.763 l 0,0 c -12.019,0 -21.762,-9.744 -21.762,-21.763"
                 inkscape:connector-curvature="0" />
            </g>
          </g>
        </g>
      </g>
      <g
         id="g468"
         transform="matrix(0.38191171,0,0,-0.38191171,-108.11194,1189.0647)">
        <g
           clip-path="url(#clipPath472)"
           id="g470">
          <g
             id="g476">
            <g
               id="g478" />
            <g
               id="g484">
              <g
                 id="g486"
                 clip-path="url(#clipPath480)"
                 style="opacity:0.25">
                <g
                   id="g488"
                   transform="translate(179.311,462.1675)">
                  <path
                     id="path490"
                     style="fill:#ffffff;fill-opacity:1;fill-rule:nonzero;stroke:none"
                     d="m 0,0 c 10.904,0 19.831,-10.212 20.707,-20.89 0.047,0.569 0.085,1.14 0.085,1.721 0,11.482 -9.306,20.794 -20.792,20.794 -11.485,0 -20.792,-9.312 -20.792,-20.794 0,-0.581 0.039,-1.152 0.086,-1.721 C -19.83,-10.212 -10.906,0 0,0"
                     inkscape:connector-curvature="0" />
                </g>
              </g>
            </g>
          </g>
        </g>
      </g>
      <path
         id="path510"
         d="m -23.979044,1012.818 c -4.566136,0 -8.640539,2.6767 -10.46875,6.8437 -3.135496,0.3995 -5.793475,2.3932 -7.03125,5.3125 -4.711645,0.1944 -8.5,4.1351 -8.5,8.875 0,4.8931 3.950697,8.875 8.84375,8.875 l 27.375,0 c 4.8934347,0 8.8437497,-3.9819 8.8437497,-8.875 0,-4.468 -3.240653,-8.1796 -7.6249997,-8.7812 0.01986,-0.2692 0.03125,-0.5447 0.03125,-0.8125 C -12.510294,1017.9395 -17.66528,1012.818 -23.979044,1012.818 Z"
         style="fill:url(#linearGradient504);stroke:none"
         inkscape:connector-curvature="0" />
      <path
         inkscape:connector-curvature="0"
         id="path2520"
         d="m -23.979044,1011.691 c -4.566136,0 -8.640539,2.6768 -10.46875,6.8438 -3.135496,0.3995 -5.793475,2.3932 -7.03125,5.3125 -4.711645,0.1944 -8.5,4.1351 -8.5,8.875 0,0.1822 0.01942,0.3525 0.03125,0.5312 0.302942,-4.4687 3.95705,-8.0951 8.46875,-8.2812 1.237775,-2.9193 3.895754,-4.913 7.03125,-5.3125 1.828211,-4.167 5.902614,-6.8438 10.46875,-6.8438 6.153678,0 11.185222,4.8744 11.4375,10.9688 0.01333,-0.2191 0.03125,-0.4399 0.03125,-0.6563 C -12.510294,1016.8125 -17.66528,1011.691 -23.979044,1011.691 z m 11.4375,12.25 c 0.0029,0.1063 0.03125,0.2056 0.03125,0.3125 0,0.2678 -0.01139,0.5433 -0.03125,0.8125 4.1914057,0.5752 7.3249617,3.9842 7.5937497,8.1875 0.01398,-0.1747 0.03125,-0.3525 0.03125,-0.5312 C -4.9165443,1028.2543 -8.1571973,1024.5426 -12.541544,1023.941 Z"
         style="fill:#000000;fill-opacity:0.10424709;stroke:none" />
      <path
         id="path2528"
         d="m -49.947794,1034.443 c -0.01206,0.1879 -0.03125,0.372 -0.03125,0.5625 0,0.1053 -0.0036,0.208 0,0.3125 0.0066,-0.1251 0.0232,-0.2496 0.03125,-0.375 0.305642,4.6161 4.119934,8.2812 8.8125,8.2812 l 27.375,0 c 4.6929317,0 8.5068857,-3.6651 8.8124997,-8.2812 0.0074,0.1225 0.02447,0.2489 0.03125,0.375 0.0036,-0.1045 0,-0.2072 0,-0.3125 0,-0.1862 -0.02013,-0.379 -0.03125,-0.5625 -0.305614,4.6161 -4.119568,8.2812 -8.8124997,8.2812 l -27.375,0 C -45.82786,1042.7242 -49.642152,1039.0591 -49.947794,1034.443 Z"
         style="fill:#000000;fill-opacity:0.21235519;stroke:none"
         inkscape:connector-curvature="0" />
      <path
         inkscape:connector-curvature="0"
         style="fill:#000000;fill-opacity:0.09266411;stroke:none"
         d="m -49.939982,1034.9469 c -0.01206,0.1879 -0.03125,0.372 -0.03125,0.5625 0,0.1053 -0.0036,0.208 0,0.3125 0.0066,-0.1251 0.0232,-0.2496 0.03125,-0.375 0.305642,4.6161 4.119935,8.2812 8.812501,8.2812 l 27.374999,0 c 4.6929317,0 8.5068867,-3.6651 8.8124997,-8.2812 0.0074,0.1225 0.02447,0.2489 0.03125,0.375 0.0036,-0.1045 0,-0.2072 0,-0.3125 0,-0.1862 -0.02013,-0.379 -0.03125,-0.5625 -0.305613,4.6161 -4.119568,8.2812 -8.8124997,8.2812 l -27.374999,0 C -45.820047,1043.2281 -49.63434,1039.563 -49.939982,1034.9469 Z"
         id="path2536" />
      <path
         id="path2538"
         d="m -49.939982,1035.4508 c -0.01206,0.1879 -0.03125,0.372 -0.03125,0.5625 0,0.1053 -0.0036,0.208 0,0.3125 0.0066,-0.1251 0.0232,-0.2496 0.03125,-0.375 0.305642,4.6161 4.119935,8.2812 8.812501,8.2812 l 27.374999,0 c 4.6929317,0 8.5068867,-3.6651 8.8124997,-8.2812 0.0074,0.1225 0.02447,0.2489 0.03125,0.375 0.0036,-0.1045 0,-0.2072 0,-0.3125 0,-0.1862 -0.02013,-0.379 -0.03125,-0.5625 -0.305613,4.6161 -4.119568,8.2812 -8.8124997,8.2812 l -27.374999,0 C -45.820047,1043.732 -49.63434,1040.0669 -49.939982,1035.4508 Z"
         style="fill:#000000;fill-opacity:0.03861006;stroke:none"
         inkscape:connector-curvature="0" />
    </g>
  </g>
</svg>
