<?xml version="1.0" encoding="UTF-8" standalone="no"?>
<!-- Created with Inkscape (http://www.inkscape.org/) -->

<svg
   xmlns:dc="http://purl.org/dc/elements/1.1/"
   xmlns:cc="http://creativecommons.org/ns#"
   xmlns:rdf="http://www.w3.org/1999/02/22-rdf-syntax-ns#"
   xmlns:svg="http://www.w3.org/2000/svg"
   xmlns="http://www.w3.org/2000/svg"
   xmlns:xlink="http://www.w3.org/1999/xlink"
   xmlns:sodipodi="http://sodipodi.sourceforge.net/DTD/sodipodi-0.dtd"
   xmlns:inkscape="http://www.inkscape.org/namespaces/inkscape"
   width="48"
   height="48"
   id="svg2"
   version="1.1"
   inkscape:version="0.48+devel r12130"
   sodipodi:docname="inkscape.svg">
  <defs
     id="defs4">
    <linearGradient
       inkscape:collect="always"
       id="linearGradient4605">
      <stop
         style="stop-color:#4ca1f4;stop-opacity:1"
         offset="0"
         id="stop4607" />
      <stop
         style="stop-color:#165cb2;stop-opacity:1"
         offset="1"
         id="stop4609" />
    </linearGradient>
    <radialGradient
       inkscape:collect="always"
       xlink:href="#linearGradient4605"
       id="radialGradient934"
       cx="49.714283"
       cy="1027.7908"
       fx="49.714283"
       fy="1027.7908"
       r="22.25"
       gradientUnits="userSpaceOnUse"
       gradientTransform="translate(-25.714283,0.57142852)" />
    <linearGradient
       inkscape:collect="always"
       xlink:href="#linearGradient4605"
       id="linearGradient938"
       x1="49.42857"
       y1="1005.2551"
       x2="49.42857"
       y2="1050.0765"
       gradientUnits="userSpaceOnUse"
       gradientTransform="translate(-25.714283,0.57142852)" />
  </defs>
  <sodipodi:namedview
     id="base"
     pagecolor="#ffffff"
     bordercolor="#666666"
     borderopacity="1.0"
     inkscape:pageopacity="0.0"
     inkscape:pageshadow="2"
     inkscape:zoom="2.4748739"
     inkscape:cx="-9.8028995"
     inkscape:cy="-11.752962"
     inkscape:document-units="px"
     inkscape:current-layer="layer1"
     showgrid="false"
     inkscape:window-width="1366"
     inkscape:window-height="717"
     inkscape:window-x="0"
     inkscape:window-y="28"
     inkscape:window-maximized="1" />
  <metadata
     id="metadata7">
    <rdf:RDF>
      <cc:Work
         rdf:about="">
        <dc:format>image/svg+xml</dc:format>
        <dc:type
           rdf:resource="http://purl.org/dc/dcmitype/StillImage" />
        <dc:title />
      </cc:Work>
    </rdf:RDF>
  </metadata>
  <g
     inkscape:label="Capa 1"
     inkscape:groupmode="layer"
     id="layer1"
     transform="translate(0,-1004.3622)">
    <rect
       style="color:#000000;fill:#333333;fill-opacity:1;fill-rule:nonzero;stroke:none;stroke-width:0.2;marker:none;visibility:visible;display:inline;overflow:visible;enable-background:accumulate"
       id="rect6294"
       width="45.5"
       height="45.5"
       x="1.25"
       y="1005.6122"
       ry="6.3565426" />
    <rect
       ry="5.8565426"
       y="1006.1122"
       x="1.75"
       height="44.5"
       width="44.5"
       id="rect6296"
       style="color:#000000;fill:url(#radialGradient934);fill-opacity:1;fill-rule:nonzero;stroke:none;stroke-width:0.2;marker:none;visibility:visible;display:inline;overflow:visible;enable-background:accumulate" />
    <path
       id="path6361"
       d="m 1.750003,1012.5497 0,-0.5625 c 0,-3.2445 2.5992,-5.875 5.8438,-5.875 l 32.812501,0 c 3.2445,0 5.8437,2.6305 5.8437,5.875 l 0,0.5625 c 0,-3.2445 -2.5992,-5.875 -5.8437,-5.875 l -32.812501,0 C 4.349203,1006.6747 1.750003,1009.3052 1.750003,1012.5497 Z"
       style="color:#000000;fill:#ffffff;fill-opacity:1;fill-rule:nonzero;stroke:none;stroke-width:0.2;marker:none;visibility:visible;display:inline;overflow:visible;enable-background:accumulate"
       inkscape:connector-curvature="0" />
    <path
       inkscape:connector-curvature="0"
       style="color:#000000;fill:#000000;fill-opacity:1;fill-rule:nonzero;stroke:none;stroke-width:0.2;marker:none;visibility:visible;display:inline;overflow:visible;enable-background:accumulate"
       d="m 1.750003,1044.1747 0,0.5625 c 0,3.2445 2.5992,5.875 5.8438,5.875 l 32.812501,0 c 3.2445,0 5.8437,-2.6305 5.8437,-5.875 l 0,-0.5625 c 0,3.2445 -2.5992,5.875 -5.8437,5.875 l -32.812501,0 C 4.349203,1050.0497 1.750003,1047.4192 1.750003,1044.1747 Z"
       id="path6388" />
    <rect
       style="opacity:0.30700001;color:#000000;fill:url(#linearGradient938);fill-opacity:1;fill-rule:nonzero;stroke:none;stroke-width:0.2;marker:none;visibility:visible;display:inline;overflow:visible;enable-background:accumulate"
       id="rect936"
       width="44.5"
       height="44.5"
       x="1.75"
       y="1006.1122"
       ry="5.8565426" />
    <path
       style="fill:#ffffff;fill-opacity:0.34061136;stroke:none"
       d="M 9.03125 1.75 L 9.03125 8.75 L 3.3125 8.75 L 3.3125 3.625 C 3.2004017 3.7460207 3.1016217 3.8697643 3 4 L 3 8.75 L 1.75 8.75 L 1.75 9.0625 L 3 9.0625 L 3 14.78125 L 1.75 14.78125 L 1.75 15.09375 L 3 15.09375 L 3 20.78125 L 1.75 20.78125 L 1.75 21.15625 L 3 21.15625 L 3 26.84375 L 1.75 26.84375 L 1.75 27.21875 L 3 27.21875 L 3 32.90625 L 1.75 32.90625 L 1.75 33.21875 L 3 33.21875 L 3 38.9375 L 1.75 38.9375 L 1.75 39.25 L 3 39.25 L 3 44 C 3.1016217 44.130236 3.2004017 44.253979 3.3125 44.375 L 3.3125 39.25 L 9.03125 39.25 L 9.03125 46.25 L 9.34375 46.25 L 9.34375 39.25 L 15.03125 39.25 L 15.03125 46.25 L 15.40625 46.25 L 15.40625 39.25 L 21.09375 39.25 L 21.09375 46.25 L 21.46875 46.25 L 21.46875 39.25 L 27.15625 39.25 L 27.15625 46.25 L 27.46875 46.25 L 27.46875 39.25 L 30.96875 39.25 L 33.1875 39.25 L 33.1875 46.25 L 33.5 46.25 L 33.5 39.25 L 38.75 39.25 L 38.75 46.25 L 39.03125 46.25 L 39.03125 39.25 L 41.25 39.25 L 44.75 39.25 L 44.75 44.28125 C 44.869662 44.146959 44.986754 44.020028 45.09375 43.875 L 45.09375 39.25 L 46.25 39.25 L 46.25 38.9375 L 45.09375 38.9375 L 45.09375 33.21875 L 46.25 33.21875 L 46.25 32.90625 L 45.09375 32.90625 L 45.09375 27.21875 L 46.25 27.21875 L 46.25 26.84375 L 45.09375 26.84375 L 45.09375 21.15625 L 46.25 21.15625 L 46.25 20.78125 L 45.09375 20.78125 L 45.09375 15.09375 L 46.25 15.09375 L 46.25 14.78125 L 45.09375 14.78125 L 45.09375 9.0625 L 46.25 9.0625 L 46.25 8.75 L 45.09375 8.75 L 45.09375 4.125 C 44.986754 3.9799719 44.869662 3.8530413 44.75 3.71875 L 44.75 8.75 L 41.25 8.75 L 39.03125 8.75 L 39.03125 1.75 L 38.75 1.75 L 38.75 8.75 L 33.5 8.75 L 33.5 1.75 L 33.1875 1.75 L 33.1875 8.75 L 30.96875 8.75 L 27.46875 8.75 L 27.46875 1.75 L 27.15625 1.75 L 27.15625 8.75 L 21.46875 8.75 L 21.46875 1.75 L 21.09375 1.75 L 21.09375 8.75 L 15.40625 8.75 L 15.40625 1.75 L 15.03125 1.75 L 15.03125 8.75 L 9.34375 8.75 L 9.34375 1.75 L 9.03125 1.75 z M 3.3125 9.0625 L 9.03125 9.0625 L 9.03125 14.78125 L 3.3125 14.78125 L 3.3125 9.0625 z M 9.34375 9.0625 L 15.03125 9.0625 L 15.03125 14.78125 L 9.34375 14.78125 L 9.34375 9.0625 z M 15.40625 9.0625 L 21.09375 9.0625 L 21.09375 14.78125 L 15.40625 14.78125 L 15.40625 9.0625 z M 21.46875 9.0625 L 27.15625 9.0625 L 27.15625 14.78125 L 21.46875 14.78125 L 21.46875 9.0625 z M 27.46875 9.0625 L 30.96875 9.0625 L 33.1875 9.0625 L 33.1875 14.78125 L 30.96875 14.78125 L 27.46875 14.78125 L 27.46875 9.0625 z M 33.5 9.0625 L 38.75 9.0625 L 38.75 14.78125 L 33.5 14.78125 L 33.5 9.0625 z M 39.03125 9.0625 L 41.25 9.0625 L 44.75 9.0625 L 44.75 14.78125 L 41.25 14.78125 L 39.03125 14.78125 L 39.03125 9.0625 z M 3.3125 15.09375 L 9.03125 15.09375 L 9.03125 20.78125 L 3.3125 20.78125 L 3.3125 15.09375 z M 9.34375 15.09375 L 15.03125 15.09375 L 15.03125 20.78125 L 9.34375 20.78125 L 9.34375 15.09375 z M 15.40625 15.09375 L 21.09375 15.09375 L 21.09375 20.78125 L 15.40625 20.78125 L 15.40625 15.09375 z M 21.46875 15.09375 L 27.15625 15.09375 L 27.15625 20.78125 L 21.46875 20.78125 L 21.46875 15.09375 z M 27.46875 15.09375 L 30.96875 15.09375 L 33.1875 15.09375 L 33.1875 20.78125 L 30.96875 20.78125 L 27.46875 20.78125 L 27.46875 15.09375 z M 33.5 15.09375 L 38.75 15.09375 L 38.75 20.78125 L 33.5 20.78125 L 33.5 15.09375 z M 39.03125 15.09375 L 41.25 15.09375 L 44.75 15.09375 L 44.75 20.78125 L 41.25 20.78125 L 39.03125 20.78125 L 39.03125 15.09375 z M 3.3125 21.15625 L 9.03125 21.15625 L 9.03125 26.84375 L 3.3125 26.84375 L 3.3125 21.15625 z M 9.34375 21.15625 L 15.03125 21.15625 L 15.03125 26.84375 L 9.34375 26.84375 L 9.34375 21.15625 z M 15.40625 21.15625 L 21.09375 21.15625 L 21.09375 26.84375 L 15.40625 26.84375 L 15.40625 21.15625 z M 21.46875 21.15625 L 27.15625 21.15625 L 27.15625 26.84375 L 21.46875 26.84375 L 21.46875 21.15625 z M 27.46875 21.15625 L 30.96875 21.15625 L 33.1875 21.15625 L 33.1875 26.84375 L 30.96875 26.84375 L 27.46875 26.84375 L 27.46875 21.15625 z M 33.5 21.15625 L 38.75 21.15625 L 38.75 26.84375 L 33.5 26.84375 L 33.5 21.15625 z M 39.03125 21.15625 L 41.25 21.15625 L 44.75 21.15625 L 44.75 26.84375 L 41.25 26.84375 L 39.03125 26.84375 L 39.03125 21.15625 z M 3.3125 27.21875 L 9.03125 27.21875 L 9.03125 32.90625 L 3.3125 32.90625 L 3.3125 27.21875 z M 9.34375 27.21875 L 15.03125 27.21875 L 15.03125 32.90625 L 9.34375 32.90625 L 9.34375 27.21875 z M 15.40625 27.21875 L 21.09375 27.21875 L 21.09375 32.90625 L 15.40625 32.90625 L 15.40625 27.21875 z M 21.46875 27.21875 L 27.15625 27.21875 L 27.15625 32.90625 L 21.46875 32.90625 L 21.46875 27.21875 z M 27.46875 27.21875 L 30.96875 27.21875 L 33.1875 27.21875 L 33.1875 32.90625 L 30.96875 32.90625 L 27.46875 32.90625 L 27.46875 27.21875 z M 33.5 27.21875 L 38.75 27.21875 L 38.75 32.90625 L 33.5 32.90625 L 33.5 27.21875 z M 39.03125 27.21875 L 41.25 27.21875 L 44.75 27.21875 L 44.75 32.90625 L 41.25 32.90625 L 39.03125 32.90625 L 39.03125 27.21875 z M 3.3125 33.21875 L 9.03125 33.21875 L 9.03125 38.9375 L 3.3125 38.9375 L 3.3125 33.21875 z M 9.34375 33.21875 L 15.03125 33.21875 L 15.03125 38.9375 L 9.34375 38.9375 L 9.34375 33.21875 z M 15.40625 33.21875 L 21.09375 33.21875 L 21.09375 38.9375 L 15.40625 38.9375 L 15.40625 33.21875 z M 21.46875 33.21875 L 27.15625 33.21875 L 27.15625 38.9375 L 21.46875 38.9375 L 21.46875 33.21875 z M 27.46875 33.21875 L 30.96875 33.21875 L 33.1875 33.21875 L 33.1875 38.9375 L 30.96875 38.9375 L 27.46875 38.9375 L 27.46875 33.21875 z M 33.5 33.21875 L 38.75 33.21875 L 38.75 38.9375 L 33.5 38.9375 L 33.5 33.21875 z M 39.03125 33.21875 L 41.25 33.21875 L 44.75 33.21875 L 44.75 38.9375 L 41.25 38.9375 L 39.03125 38.9375 L 39.03125 33.21875 z "
       transform="translate(0,1004.3622)"
       id="path4783" />
    <g
       id="g940"
       transform="matrix(0.93750001,0,0,0.93750001,52.660715,60.790471)">
      <path
         inkscape:connector-curvature="0"
         id="rect4613"
         d="m -45.285713,1016.0765 c -0.718185,0 -1.285714,0.5674 -1.285714,1.2856 l 0,29.4288 c 0,0.7182 0.567529,1.2856 1.285714,1.2856 l 29.428571,0 c 0.718187,0 1.285715,-0.5674 1.285715,-1.2856 l 0,-29.4288 c 0,-0.7182 -0.567528,-1.2856 -1.285715,-1.2856 L -45.285713,1016.0765 z m 0.190476,0.1905 29.04762,0 c 0.709636,0 1.285715,0.5761 1.285715,1.2855 l 0,29.048 c 0,0.7094 -0.576079,1.2855 -1.285715,1.2855 l -29.04762,0 c -0.709635,0 -1.285714,-0.5761 -1.285714,-1.2855 l 0,-29.048 C -46.380951,1016.8431 -45.804872,1016.267 -45.095237,1016.267 Z"
         style="fill:#ffffff;fill-opacity:1;stroke:none" />
      <path
         inkscape:connector-curvature="0"
         id="rect4660"
         d="m -45.265871,1016.0765 0,32 0.111111,0 0,-32 L -45.265871,1016.0765 z m 0.416666,0 0,32 0.08333,0 0,-32 L -44.849205,1016.0765 z m 0.416667,0 0,32 0.08333,0 0,-32 L -44.432538,1016.0765 z m 0.416667,0 0,32 0.08333,0 0,-32 L -44.015871,1016.0765 z m 0.388888,0 0,32 0.08333,0 0,-32 L -43.626983,1016.0765 z m 0.416668,0 0,32 0.08333,0 0,-32 L -43.210315,1016.0765 z m 0.416666,0 0,32 0.08333,0 0,-32 L -42.793649,1016.0765 z m 0.388888,0 0,32 0.111112,0 0,-32 L -42.404761,1016.0765 z m 0.416668,0 0,32 0.08333,0 0,-32 L -41.988093,1016.0765 z m 0.416666,0 0,32 0.08333,0 0,-32 L -41.571427,1016.0765 z m 0.416666,0 0,32 0.08333,0 0,-32 L -41.154761,1016.0765 z m 0.38889,0 0,32 0.08333,0 0,-32 L -40.765871,1016.0765 z m 1.11111,0 0,32 0.08333,0 0,-32 L -39.654761,1016.0765 z m 0.416668,0 0,32 0.08333,0 0,-32 L -39.238093,1016.0765 z m 0.388888,0 0,32 0.111112,0 0,-32 L -38.849205,1016.0765 z m 0.416666,0 0,32 0.08333,0 0,-32 L -38.432539,1016.0765 z m 0.416668,0 0,32 0.08333,0 0,-32 L -38.015871,1016.0765 z m 0.416666,0 0,32 0.08333,0 0,-32 L -37.599205,1016.0765 z m 0.38889,0 0,32 0.08333,0 0,-32 L -37.210315,1016.0765 z m 0.416666,0 0,32 0.08333,0 0,-32 L -36.793649,1016.0765 z m 0.416666,0 0,32 0.08333,0 0,-32 L -36.376983,1016.0765 z m 0.38889,0 0,32 0.11111,0 0,-32 L -35.988093,1016.0765 z m 0.416666,0 0,32 0.08333,0 0,-32 L -35.571427,1016.0765 z m 0.416666,0 0,32 0.08333,0 0,-32 L -35.154761,1016.0765 z m 0.416668,0 0,32 0.08333,0 0,-32 L -34.738093,1016.0765 z m 0.388888,0 0,32 0.08333,0 0,-32 L -34.349205,1016.0765 z m 1.083334,0 0,32 0.08333,0 0,-32 L -33.265871,1016.0765 z m 0.416666,0 0,32 0.08333,0 0,-32 L -32.849205,1016.0765 z m 0.38889,0 0,32 0.11111,0 0,-32 L -32.460315,1016.0765 z m 0.416666,0 0,32 0.08333,0 0,-32 L -32.043649,1016.0765 z m 0.416666,0 0,32 0.08333,0 0,-32 L -31.626983,1016.0765 z m 0.416668,0 0,32 0.08333,0 0,-32 L -31.210315,1016.0765 z m 0.388888,0 0,32 0.08333,0 0,-32 L -30.821427,1016.0765 z m 0.416666,0 0,32 0.08333,0 0,-32 L -30.404761,1016.0765 z m 0.416668,0 0,32 0.08333,0 0,-32 L -29.988093,1016.0765 z m 0.388888,0 0,32 0.111112,0 0,-32 L -29.599205,1016.0765 z m 0.416666,0 0,32 0.08333,0 0,-32 L -29.182539,1016.0765 z m 0.416668,0 0,32 0.08333,0 0,-32 L -28.765871,1016.0765 z m 0.416666,0 0,32 0.08333,0 0,-32 L -28.349205,1016.0765 z m 0.38889,0 0,32 0.08333,0 0,-32 L -27.960315,1016.0765 z m 1.083332,0 0,32 0.08333,0 0,-32 L -26.876983,1016.0765 z m 0.416668,0 0,32 0.08333,0 0,-32 L -26.460315,1016.0765 z m 0.388888,0 0,32 0.111112,0 0,-32 L -26.071427,1016.0765 z m 0.416666,0 0,32 0.08333,0 0,-32 L -25.654761,1016.0765 z m 0.416668,0 0,32 0.08333,0 0,-32 L -25.238093,1016.0765 z m 0.416666,0 0,32 0.08333,0 0,-32 L -24.821427,1016.0765 z m 0.388888,0 0,32 0.08333,0 0,-32 L -24.432539,1016.0765 z m 0.416668,0 0,32 0.08333,0 0,-32 L -24.015871,1016.0765 z m 0.416666,0 0,32 0.08333,0 0,-32 L -23.599205,1016.0765 z m 0.38889,0 0,32 0.11111,0 0,-32 L -23.210315,1016.0765 z m 0.416666,0 0,32 0.08333,0 0,-32 L -22.793649,1016.0765 z m 0.416666,0 0,32 0.08333,0 0,-32 L -22.376983,1016.0765 z m 0.416668,0 0,32 0.08333,0 0,-32 L -21.960315,1016.0765 z m 0.388888,0 0,32 0.08333,0 0,-32 L -21.571427,1016.0765 z m 1.111112,0 0,32 0.08333,0 0,-32 L -20.460315,1016.0765 z m 0.416666,0 0,32 0.08333,0 0,-32 L -20.043649,1016.0765 z m 0.388888,0 0,32 0.111112,0 0,-32 L -19.654761,1016.0765 z m 0.416668,0 0,32 0.08333,0 0,-32 L -19.238093,1016.0765 z m 0.416666,0 0,32 0.08333,0 0,-32 L -18.821427,1016.0765 z m 0.416666,0 0,32 0.08333,0 0,-32 L -18.404761,1016.0765 z m 0.38889,0 0,32 0.08333,0 0,-32 L -18.015871,1016.0765 z m 0.416666,0 0,32 0.08333,0 0,-32 L -17.599205,1016.0765 z m 0.416666,0 0,32 0.08333,0 0,-32 L -17.182539,1016.0765 z m 0.38889,0 0,32 0.11111,0 0,-32 L -16.793649,1016.0765 z m 0.416666,0 0,32 0.08333,0 0,-32 L -16.376983,1016.0765 z m 0.416668,0 0,32 0.08333,0 0,-32 L -15.960315,1016.0765 z m -29.611112,0.027 c -0.02797,0.01 -0.05609,0.02 -0.08333,0.027 l 0,31.8889 c 0.02725,0.01 0.05536,0.022 0.08333,0.027 L -45.571427,1016.1043 z m 30.027778,0.027 0,31.8889 c 0.02769,-0.01 0.0564,-0.019 0.08333,-0.028 l 0,-31.8334 C -15.487256,1016.1511 -15.515958,1016.1391 -15.543649,1016.132 z m -30.444445,0.1667 c -0.03163,0.022 -0.05378,0.059 -0.08333,0.084 l 0,31.3888 c 0.02955,0.024 0.0517,0.062 0.08333,0.084 L -45.988094,1016.2987 z m 30.833333,0 0,31.5555 c 0.03163,-0.022 0.05379,-0.059 0.08333,-0.084 l 0,-31.3888 C -15.100976,1016.3581 -15.123127,1016.3201 -15.154761,1016.2987 Z"
         style="fill:#ffffff;fill-opacity:0.34061136;stroke:none" />
      <path
         inkscape:connector-curvature="0"
         id="path4698"
         d="m -46.265871,1016.5765 c -0.02398,0.029 -0.062,0.052 -0.08333,0.083 l 31.555556,0 c -0.02134,-0.032 -0.05936,-0.054 -0.08333,-0.083 L -46.265871,1016.5765 z m -0.25,0.4167 c -0.008,0.027 -0.0215,0.055 -0.02778,0.084 l 31.944444,0 c -0.0063,-0.028 -0.01974,-0.057 -0.02777,-0.084 L -46.515871,1016.9932 z m -0.05556,0.3889 0,0.1111 32,0 0,-0.1111 L -46.571427,1017.3821 z m 0,0.4167 0,0.084 32,0 0,-0.084 L -46.571427,1017.7988 z m 0,0.4166 0,0.083 32,0 0,-0.083 L -46.571427,1018.2154 z m 0,0.4167 0,0.084 32,0 0,-0.084 L -46.571427,1018.6321 z m 0,0.3889 0,0.084 32,0 0,-0.084 L -46.571427,1019.021 z m 0,0.4166 0,0.083 32,0 0,-0.083 L -46.571427,1019.4376 z m 0,0.4167 0,0.084 32,0 0,-0.084 L -46.571427,1019.8543 z m 0,0.3889 0,0.111 32,0 0,-0.111 L -46.571427,1020.2432 z m 0,0.4166 0,0.084 32,0 0,-0.084 L -46.571427,1020.6598 z m 0,0.4167 0,0.083 32,0 0,-0.083 L -46.571427,1021.0765 z m 0,0.4167 0,0.084 32,0 0,-0.084 L -46.571427,1021.4932 z m 0,0.3889 0,0.083 32,0 0,-0.083 L -46.571427,1021.8821 z m 0,1.1111 0,0.084 32,0 0,-0.084 L -46.571427,1022.9932 z m 0,0.4167 0,0.083 32,0 0,-0.083 L -46.571427,1023.4099 z m 0,0.3889 0,0.111 32,0 0,-0.111 L -46.571427,1023.7988 z m 0,0.4166 0,0.083 32,0 0,-0.083 L -46.571427,1024.2154 z m 0,0.4167 0,0.084 32,0 0,-0.084 L -46.571427,1024.6321 z m 0,0.4166 0,0.083 32,0 0,-0.083 L -46.571427,1025.0487 z m 0,0.3889 0,0.083 32,0 0,-0.083 L -46.571427,1025.4376 z m 0,0.4167 0,0.084 32,0 0,-0.084 L -46.571427,1025.8543 z m 0,0.4166 0,0.083 32,0 0,-0.083 L -46.571427,1026.2709 z m 0,0.3889 0,0.1111 32,0 0,-0.1111 L -46.571427,1026.6598 z m 0,0.4167 0,0.083 32,0 0,-0.083 L -46.571427,1027.0765 z m 0,0.4167 0,0.084 32,0 0,-0.084 L -46.571427,1027.4932 z m 0,0.4166 0,0.084 32,0 0,-0.084 L -46.571427,1027.9098 z m 0,0.3889 0,0.084 32,0 0,-0.084 L -46.571427,1028.2987 z m 0,1.0834 0,0.084 32,0 0,-0.084 L -46.571427,1029.3821 z m 0,0.4167 0,0.084 32,0 0,-0.084 L -46.571427,1029.7988 z m 0,0.3889 0,0.111 32,0 0,-0.111 L -46.571427,1030.1877 z m 0,0.4166 0,0.084 32,0 0,-0.084 L -46.571427,1030.6043 z m 0,0.4167 0,0.083 32,0 0,-0.083 L -46.571427,1031.021 z m 0,0.4166 0,0.084 32,0 0,-0.084 L -46.571427,1031.4376 z m 0,0.3889 0,0.083 32,0 0,-0.083 L -46.571427,1031.8265 z m 0,0.4167 0,0.084 32,0 0,-0.084 L -46.571427,1032.2432 z m 0,0.4166 0,0.084 32,0 0,-0.084 L -46.571427,1032.6598 z m 0,0.3889 0,0.1111 32,0 0,-0.1111 L -46.571427,1033.0487 z m 0,0.4167 0,0.084 32,0 0,-0.084 L -46.571427,1033.4654 z m 0,0.4167 0,0.083 32,0 0,-0.083 L -46.571427,1033.8821 z m 0,0.4166 0,0.084 32,0 0,-0.084 L -46.571427,1034.2987 z m 0,0.3889 0,0.083 32,0 0,-0.083 L -46.571427,1034.6876 z m 0,1.0833 0,0.084 32,0 0,-0.084 L -46.571427,1035.7709 z m 0,0.4168 0,0.084 32,0 0,-0.084 L -46.571427,1036.1877 z m 0,0.3888 0,0.1111 32,0 0,-0.1111 L -46.571427,1036.5765 z m 0,0.4167 0,0.084 32,0 0,-0.084 L -46.571427,1036.9932 z m 0,0.4167 0,0.084 32,0 0,-0.084 L -46.571427,1037.4099 z m 0,0.4166 0,0.083 32,0 0,-0.083 L -46.571427,1037.8265 z m 0,0.3889 0,0.084 32,0 0,-0.084 L -46.571427,1038.2154 z m 0,0.4167 0,0.083 32,0 0,-0.083 L -46.571427,1038.6321 z m 0,0.4166 0,0.084 32,0 0,-0.084 L -46.571427,1039.0487 z m 0,0.3889 0,0.1111 32,0 0,-0.1111 L -46.571427,1039.4376 z m 0,0.4167 0,0.084 32,0 0,-0.084 L -46.571427,1039.8543 z m 0,0.4166 0,0.084 32,0 0,-0.084 L -46.571427,1040.2709 z m 0,0.4167 0,0.083 32,0 0,-0.083 L -46.571427,1040.6876 z m 0,0.3889 0,0.084 32,0 0,-0.084 L -46.571427,1041.0765 z m 0,1.1112 0,0.084 32,0 0,-0.084 L -46.571427,1042.1877 z m 0,0.4166 0,0.084 32,0 0,-0.084 L -46.571427,1042.6043 z m 0,0.3889 0,0.1111 32,0 0,-0.1111 L -46.571427,1042.9932 z m 0,0.4167 0,0.084 32,0 0,-0.084 L -46.571427,1043.4099 z m 0,0.4166 0,0.083 32,0 0,-0.083 L -46.571427,1043.8265 z m 0,0.4167 0,0.084 32,0 0,-0.084 L -46.571427,1044.2432 z m 0,0.3889 0,0.083 32,0 0,-0.083 L -46.571427,1044.6321 z m 0,0.4166 0,0.084 32,0 0,-0.084 L -46.571427,1045.0487 z m 0,0.4167 0,0.084 32,0 0,-0.084 L -46.571427,1045.4654 z m 0,0.3889 0,0.111 32,0 0,-0.111 L -46.571427,1045.8543 z m 0,0.4166 0,0.084 32,0 0,-0.084 L -46.571427,1046.2709 z m 0,0.4167 0,0.083 32,0 0,-0.083 L -46.571427,1046.6876 z m 0.05556,0.4167 c 0.007,0.027 0.01904,0.056 0.02778,0.084 l 31.833333,0 c 0.0088,-0.027 0.02078,-0.055 0.02777,-0.084 L -46.515871,1047.1043 z m 0.166666,0.3889 c 0.02134,0.032 0.05936,0.054 0.08333,0.084 l 31.38889,0 c 0.02398,-0.029 0.06199,-0.052 0.08333,-0.084 L -46.349205,1047.4932 Z"
         style="fill:#ffffff;fill-opacity:0.34061136;stroke:none" />
      <path
         id="path4727"
         d="m -39.852677,1022.7953 0,5.9375 5.9375,-5.9375 L -39.852677,1022.7953 z m 0.25,0.25 5.03125,0 -5.03125,5.0312 L -39.602677,1023.0453 Z"
         style="fill:#ffffff;stroke:none"
         inkscape:connector-curvature="0" />
      <path
         transform="translate(-54.317311,1008.2201)"
         d="m 14.959728,14.666544 c 0,0.195262 -0.158291,0.353553 -0.353554,0.353553 -0.195262,0 -0.353553,-0.158291 -0.353553,-0.353553 0,-0.195262 0.158291,-0.353553 0.353553,-0.353553 C 14.801437,14.312991 14.959728,14.471282 14.959728,14.666544 Z"
         sodipodi:ry="0.35355338"
         sodipodi:rx="0.35355338"
         sodipodi:cy="14.666544"
         sodipodi:cx="14.606174"
         id="path4735"
         style="fill:#ffffff;fill-opacity:1;stroke:none"
         sodipodi:type="arc" />
      <path
         sodipodi:type="arc"
         style="fill:#ffffff;fill-opacity:1;stroke:none"
         id="path4737"
         sodipodi:cx="14.606174"
         sodipodi:cy="14.666544"
         sodipodi:rx="0.35355338"
         sodipodi:ry="0.35355338"
         d="m 14.959728,14.666544 c 0,0.195262 -0.158291,0.353553 -0.353554,0.353553 -0.195262,0 -0.353553,-0.158291 -0.353553,-0.353553 0,-0.195262 0.158291,-0.353553 0.353553,-0.353553 C 14.801437,14.312991 14.959728,14.471282 14.959728,14.666544 Z"
         transform="translate(-54.317311,1013.8991)" />
      <path
         sodipodi:type="arc"
         style="fill:#ffffff;fill-opacity:1;stroke:none"
         id="path4741"
         sodipodi:cx="14.606174"
         sodipodi:cy="14.666544"
         sodipodi:rx="0.35355338"
         sodipodi:ry="0.35355338"
         d="m 14.959728,14.666544 c 0,0.195262 -0.158291,0.353553 -0.353554,0.353553 -0.195262,0 -0.353553,-0.158291 -0.353553,-0.353553 0,-0.195262 0.158291,-0.353553 0.353553,-0.353553 C 14.801437,14.312991 14.959728,14.471282 14.959728,14.666544 Z"
         transform="translate(-48.726749,1008.2201)" />
      <path
         inkscape:connector-curvature="0"
         style="fill:#ffffff;stroke:none"
         d="m -27.294802,1035.5989 0,-13.3755 -13.375543,13.3755 L -27.294802,1035.5989 z m -0.56318,-0.5632 -11.334011,0 11.334011,-11.334 L -27.857982,1035.0357 Z"
         id="path4743" />
      <path
         sodipodi:type="arc"
         style="fill:#ffffff;fill-opacity:1;stroke:none"
         id="path4745"
         sodipodi:cx="14.606174"
         sodipodi:cy="14.666544"
         sodipodi:rx="0.35355338"
         sodipodi:ry="0.35355338"
         d="m 14.959728,14.666544 c 0,0.195262 -0.158291,0.353553 -0.353554,0.353553 -0.195262,0 -0.353553,-0.158291 -0.353553,-0.353553 0,-0.195262 0.158291,-0.353553 0.353553,-0.353553 C 14.801437,14.312991 14.959728,14.471282 14.959728,14.666544 Z"
         transform="matrix(-2.252723,0,0,-2.252723,5.2900069,1068.4327)" />
      <path
         transform="matrix(-2.252723,0,0,-2.252723,5.2900069,1055.6395)"
         d="m 14.959728,14.666544 c 0,0.195262 -0.158291,0.353553 -0.353554,0.353553 -0.195262,0 -0.353553,-0.158291 -0.353553,-0.353553 0,-0.195262 0.158291,-0.353553 0.353553,-0.353553 C 14.801437,14.312991 14.959728,14.471282 14.959728,14.666544 Z"
         sodipodi:ry="0.35355338"
         sodipodi:rx="0.35355338"
         sodipodi:cy="14.666544"
         sodipodi:cx="14.606174"
         id="path4747"
         style="fill:#ffffff;fill-opacity:1;stroke:none"
         sodipodi:type="arc" />
      <path
         transform="matrix(-2.252723,0,0,-2.252723,-7.3039811,1068.4327)"
         d="m 14.959728,14.666544 c 0,0.195262 -0.158291,0.353553 -0.353554,0.353553 -0.195262,0 -0.353553,-0.158291 -0.353553,-0.353553 0,-0.195262 0.158291,-0.353553 0.353553,-0.353553 C 14.801437,14.312991 14.959728,14.471282 14.959728,14.666544 Z"
         sodipodi:ry="0.35355338"
         sodipodi:rx="0.35355338"
         sodipodi:cy="14.666544"
         sodipodi:cx="14.606174"
         id="path4749"
         style="fill:#ffffff;fill-opacity:1;stroke:none"
         sodipodi:type="arc" />
      <path
         inkscape:connector-curvature="0"
         id="rect4751"
         d="m -31.016779,1031.8186 0,3.5079 0.256048,0 0,-3.2518 3.251804,0 0,-0.2561 L -31.016779,1031.8186 Z"
         style="fill:#ffffff;fill-opacity:0.5372549;stroke:none" />
      <g
         transform="translate(-54.571427,4.3661956)"
         id="g4764">
        <rect
           style="fill:#ffffff;fill-opacity:0.5372549;stroke:none"
           id="rect4756"
           width="1.9224465"
           height="0.37565047"
           x="13.899068"
           y="1020.5645" />
        <rect
           y="1021.3378"
           x="13.899068"
           height="0.37565047"
           width="1.9224465"
           id="rect4758"
           style="fill:#ffffff;fill-opacity:0.5372549;stroke:none" />
      </g>
      <g
         transform="translate(-54.273118,3.7142956)"
         id="g4768">
        <rect
           y="16.78278"
           x="-1020.1335"
           height="0.37565047"
           width="1.9224465"
           id="rect4760"
           style="fill:#ffffff;fill-opacity:0.5372549;stroke:none"
           transform="matrix(0,-1,1,0,0,0)" />
        <rect
           style="fill:#ffffff;fill-opacity:0.5372549;stroke:none"
           id="rect4762"
           width="1.9224465"
           height="0.37565047"
           x="-1020.1335"
           y="17.556095"
           transform="matrix(0,-1,1,0,0,0)" />
      </g>
      <path
         d="m -30.749391,1029.6813 q 0,0.1424 0.06156,0.202 0.05001,0.048 0.140427,0.048 0.07887,0 0.134655,-0.054 0.06541,-0.063 0.06541,-0.175 0,-0.1193 -0.05386,-0.1847 -0.05194,-0.067 -0.153892,-0.067 -0.07502,0 -0.123114,0.04 Q -30.749391,1029.5505 -30.749391,1029.6813 z m -0.240457,0.5983 0.267388,0 q 0.01154,0.069 0.05194,0.1038 0.04232,0.033 0.105801,0.033 0.09426,0 0.153892,-0.083 0.07118,-0.1 0.07118,-0.2981 l -0.0058,0 q -0.04232,0.063 -0.115419,0.092 -0.06156,0.023 -0.14235,0.023 -0.188518,0 -0.302014,-0.1231 -0.111572,-0.125 -0.111572,-0.3039 0,-0.2424 0.130809,-0.3713 0.12119,-0.1193 0.332792,-0.1193 0.240456,0 0.359723,0.1712 0.12119,0.1693 0.12119,0.531 0,0.3674 -0.153892,0.5482 -0.128885,0.152 -0.340487,0.152 -0.175052,0 -0.290471,-0.094 Q -30.972535,1030.4431 -30.989848,1030.2796 Z"
         style="font-size:1.92365324px;font-style:normal;font-variant:normal;font-weight:bold;font-stretch:normal;text-align:start;line-height:125%;letter-spacing:0px;word-spacing:0px;writing-mode:lr-tb;text-anchor:start;fill:#ffffff;fill-opacity:1;stroke:none;font-family:Helvetica;-inkscape-font-specification:Helvetica Bold"
         id="path5022"
         inkscape:connector-curvature="0" />
      <path
         d="m -29.942148,1029.9295 q 0,-0.3598 0.113496,-0.5291 0.115419,-0.1712 0.357799,-0.1712 0.24238,0 0.3578,0.1712 0.117343,0.1693 0.117343,0.5291 0,0.3597 -0.11542,0.5309 -0.115419,0.1712 -0.357799,0.1712 -0.240457,0 -0.3578,-0.1712 Q -29.942148,1030.2873 -29.942148,1029.9295 z m 0.277006,0 q 0,0.2693 0.0404,0.3789 0.04232,0.1077 0.155816,0.1077 0.113495,0 0.153892,-0.1077 0.04232,-0.1077 0.04232,-0.3789 0,-0.2694 -0.04232,-0.3771 -0.04232,-0.1077 -0.155816,-0.1077 -0.111572,0 -0.153892,0.1077 Q -29.665142,1029.6601 -29.665142,1029.9295 Z"
         style="font-size:1.92365324px;font-style:normal;font-variant:normal;font-weight:bold;font-stretch:normal;text-align:start;line-height:125%;letter-spacing:0px;word-spacing:0px;writing-mode:lr-tb;text-anchor:start;fill:#ffffff;fill-opacity:1;stroke:none;font-family:Helvetica;-inkscape-font-specification:Helvetica Bold"
         id="path5024"
         inkscape:connector-curvature="0" />
      <path
         d="m -28.800189,1029.7352 0.0019,-0.5213 0.188518,0 -0.0019,0.5213 L -28.800189,1029.7352 Z"
         style="font-size:1.92365324px;font-style:normal;font-variant:normal;font-weight:bold;font-stretch:normal;text-align:start;line-height:125%;letter-spacing:0px;word-spacing:0px;writing-mode:lr-tb;text-anchor:start;fill:#ffffff;fill-opacity:1;stroke:none;font-family:Helvetica;-inkscape-font-specification:Helvetica Bold"
         id="path5026"
         inkscape:connector-curvature="0" />
      <path
         id="path4776"
         d="m -17.758927,1035.0765 c -1.760408,0 -3.1875,1.4271 -3.1875,3.1875 0,1.7604 1.427092,3.1875 3.1875,3.1875 1.760408,0 3.1875,-1.4271 3.1875,-3.1875 C -14.571427,1036.5036 -15.998519,1035.0765 -17.758927,1035.0765 z m 0,0.3438 c 1.574239,0 2.84375,1.2695 2.84375,2.8437 0,1.5743 -1.269511,2.8438 -2.84375,2.8438 -1.574239,0 -2.84375,-1.2695 -2.84375,-2.8438 C -20.602677,1036.6898 -19.333166,1035.4203 -17.758927,1035.4203 Z"
         style="fill:#ffffff;fill-opacity:1;stroke:none"
         inkscape:connector-curvature="0" />
      <path
         inkscape:connector-curvature="0"
         style="fill:#ffffff;fill-opacity:1;stroke:none"
         d="m -20.940908,1035.0765 c -3.517767,0 -6.36948,2.8517 -6.36948,6.3695 0,3.5177 2.851713,6.3695 6.36948,6.3695 3.517768,0 6.369481,-2.8518 6.369481,-6.3695 C -14.571427,1037.9282 -17.42314,1035.0765 -20.940908,1035.0765 z m 0,0.6869 c 3.145753,0 5.682576,2.5368 5.682576,5.6826 0,3.1457 -2.536823,5.6826 -5.682576,5.6826 -3.145752,0 -5.682575,-2.5369 -5.682575,-5.6826 C -26.623483,1038.3002 -24.08666,1035.7634 -20.940908,1035.7634 Z"
         id="path4781" />
    </g>
  </g>
</svg>
