<?xml version="1.0" encoding="UTF-8" standalone="no"?>
<!-- Created with Inkscape (http://www.inkscape.org/) -->

<svg
   xmlns:dc="http://purl.org/dc/elements/1.1/"
   xmlns:cc="http://creativecommons.org/ns#"
   xmlns:rdf="http://www.w3.org/1999/02/22-rdf-syntax-ns#"
   xmlns:svg="http://www.w3.org/2000/svg"
   xmlns="http://www.w3.org/2000/svg"
   xmlns:xlink="http://www.w3.org/1999/xlink"
   xmlns:sodipodi="http://sodipodi.sourceforge.net/DTD/sodipodi-0.dtd"
   xmlns:inkscape="http://www.inkscape.org/namespaces/inkscape"
   width="48"
   height="48"
   id="svg2"
   version="1.1"
   inkscape:version="0.48+devel r12077"
   sodipodi:docname="akregator.svg">
  <defs
     id="defs4">
    <linearGradient
       id="linearGradient3795">
      <stop
         style="stop-color:#ff6302;stop-opacity:1"
         offset="0"
         id="stop3797" />
      <stop
         style="stop-color:#ffcf00;stop-opacity:1"
         offset="1"
         id="stop3799" />
    </linearGradient>
    <linearGradient
       inkscape:collect="always"
       xlink:href="#linearGradient3795"
       id="linearGradient857"
       x1="24.452297"
       y1="1050.1599"
       x2="24.452297"
       y2="1006.1996"
       gradientUnits="userSpaceOnUse" />
  </defs>
  <sodipodi:namedview
     id="base"
     pagecolor="#ffffff"
     bordercolor="#666666"
     borderopacity="1.0"
     inkscape:pageopacity="0.0"
     inkscape:pageshadow="2"
     inkscape:zoom="4.421875"
     inkscape:cx="20.03749"
     inkscape:cy="23.194567"
     inkscape:document-units="px"
     inkscape:current-layer="layer1"
     showgrid="false"
     inkscape:window-width="1366"
     inkscape:window-height="718"
     inkscape:window-x="0"
     inkscape:window-y="28"
     inkscape:window-maximized="1" />
  <metadata
     id="metadata7">
    <rdf:RDF>
      <cc:Work
         rdf:about="">
        <dc:format>image/svg+xml</dc:format>
        <dc:type
           rdf:resource="http://purl.org/dc/dcmitype/StillImage" />
        <dc:title />
      </cc:Work>
    </rdf:RDF>
  </metadata>
  <g
     inkscape:label="Capa 1"
     inkscape:groupmode="layer"
     id="layer1"
     transform="translate(0,-1004.3622)">
    <rect
       style="color:#000000;fill:#333333;fill-opacity:1;fill-rule:nonzero;stroke:none;stroke-width:0.2;marker:none;visibility:visible;display:inline;overflow:visible;enable-background:accumulate"
       id="rect6294"
       width="45.5"
       height="45.5"
       x="1.25"
       y="1005.6122"
       ry="6.3565426" />
    <rect
       ry="5.8565426"
       y="1006.1122"
       x="1.75"
       height="44.5"
       width="44.5"
       id="rect6296"
       style="color:#000000;fill:url(#linearGradient857);fill-opacity:1;fill-rule:nonzero;stroke:none;stroke-width:0.2;marker:none;visibility:visible;display:inline;overflow:visible;enable-background:accumulate" />
    <path
       id="path6361"
       d="m 1.7500076,1012.5497 0,-0.5625 c 0,-3.2445 2.59922,-5.875 5.84375,-5.875 l 32.8125004,0 c 3.24452,0 5.84375,2.6305 5.84375,5.875 l 0,0.5625 c 0,-3.2445 -2.59923,-5.875 -5.84375,-5.875 l -32.8125004,0 C 4.3492276,1006.6747 1.7500076,1009.3052 1.7500076,1012.5497 Z"
       style="color:#000000;fill:#ffffff;fill-opacity:1;fill-rule:nonzero;stroke:none;stroke-width:0.2;marker:none;visibility:visible;display:inline;overflow:visible;enable-background:accumulate"
       inkscape:connector-curvature="0" />
    <path
       inkscape:connector-curvature="0"
       style="color:#000000;fill:#000000;fill-opacity:1;fill-rule:nonzero;stroke:none;stroke-width:0.2;marker:none;visibility:visible;display:inline;overflow:visible;enable-background:accumulate"
       d="m 1.7500076,1044.1748 0,0.5625 c 0,3.2445 2.59922,5.875 5.84375,5.875 l 32.8125004,0 c 3.24452,0 5.84375,-2.6305 5.84375,-5.875 l 0,-0.5625 c 0,3.2445 -2.59923,5.875 -5.84375,5.875 l -32.8125004,0 C 4.3492276,1050.0498 1.7500076,1047.4193 1.7500076,1044.1748 Z"
       id="path6388" />
    <g
       transform="matrix(0.9375,0,0,0.9375,1.4999999,64.272638)"
       id="g860">
      <path
         style="font-size:13.58991337px;font-style:normal;font-variant:normal;font-weight:bold;font-stretch:normal;text-align:start;line-height:125%;writing-mode:lr-tb;text-anchor:start;fill:#ffffff;fill-opacity:1;stroke:none;font-family:Bitstream Vera Serif"
         id="path4311"
         d="m 8.7869438,1040.4137 c 0,-0.9468 0.32671,-1.7417 0.9800393,-2.3846 0.6533739,-0.6547 1.4525799,-0.9821 2.3976079,-0.9821 0.921696,0 1.703398,0.3274 2.345082,0.9821 0.653351,0.6429 0.980036,1.4378 0.980036,2.3846 0,0.9235 -0.326685,1.7125 -0.980036,2.3672 -0.641684,0.6429 -1.423386,0.9644 -2.345082,0.9644 -0.945028,0 -1.744234,-0.3215 -2.3976079,-0.9644 -0.6533293,-0.643 -0.9800393,-1.432 -0.9800393,-2.3672 m -0.1949575,-15.2038 0,5.6004 c 7.1497557,0 12.9568927,5.8222 12.9568927,12.9902 l 5.615631,0 C 27.16451,1033.5329 18.83352,1025.2099 8.5919863,1025.2099 z m 0.010325,-12.2551 0,6.1909 c 13.5750677,0 24.5973397,11.0437 24.5973397,24.6452 l 6.20846,0 C 39.408111,1026.7645 25.595577,1012.9548 8.6023313,1012.9548 Z"
         inkscape:connector-curvature="0" />
      <path
         inkscape:connector-curvature="0"
         id="path839"
         d="m 8.5913468,1019.1193 0,0.6025 c 13.1508482,0 23.9208122,10.3616 24.5801642,23.3752 C 32.818625,1029.8029 21.944089,1019.1193 8.5913468,1019.1193 z m 0,11.6575 0,0.6024 c 7.1497562,0 12.9527832,5.8149 12.9527832,12.983 l 5.632954,0 c 0,-0.2071 -0.0234,-0.3969 -0.03012,-0.6025 l -5.602831,0 C 21.54413,1036.5917 15.741103,1030.7768 8.5913468,1030.7768 z m 0.2108593,9.9104 c -0.00766,0.099 -0.030123,0.1987 -0.030123,0.3013 0,0.9352 0.3407215,1.7367 0.9940508,2.3796 0.6533741,0.6429 1.4647921,0.9639 2.4098201,0.9639 0.921696,0 1.677768,-0.321 2.319452,-0.9639 0.65335,-0.6547 0.994051,-1.4561 0.994051,-2.3796 0,-0.1031 -0.02238,-0.2019 -0.03012,-0.3013 -0.06586,0.7914 -0.384883,1.4983 -0.963928,2.0784 -0.641684,0.643 -1.397756,0.964 -2.319452,0.964 -0.945028,0 -1.756446,-0.321 -2.4098201,-0.964 C 9.1866853,1042.1954 8.86774,1041.4873 8.8022061,1040.6872 z m 24.3994279,3.0725 c 0.0048,0.2011 0,0.4002 0,0.6025 l 6.205286,0 c 0,-0.2008 0.0039,-0.4027 0,-0.6025 L 33.201634,1043.7597 Z"
         style="font-size:13.58991337px;font-style:normal;font-variant:normal;font-weight:bold;font-stretch:normal;text-align:start;line-height:125%;writing-mode:lr-tb;text-anchor:start;fill:#ffffff;fill-opacity:0.43629342;stroke:none;font-family:Bitstream Vera Serif" />
      <path
         inkscape:connector-curvature="0"
         id="path844"
         d="m 8.5913468,1012.3622 0,0.6025 c 16.4622062,0 29.9592032,12.9597 30.7854512,29.2492 C 38.853578,1025.6456 25.253874,1012.3622 8.5913468,1012.3622 z m 0,12.26 0,0.6025 c 10.0349332,0 18.2288362,8.0021 18.5556142,17.9832 l 0.03012,0 C 27.177084,1032.9402 18.832881,1024.6222 8.5913468,1024.6222 z m 3.5846072,11.8382 c -0.945028,0 -1.756446,0.3394 -2.4098199,0.9941 -0.6533293,0.6429 -0.9940508,1.4329 -0.9940508,2.3796 0,0.1059 0.021767,0.1993 0.030123,0.3013 0.063086,-0.8149 0.3813356,-1.5051 0.963928,-2.0784 0.6533737,-0.6547 1.4647917,-0.9941 2.4098197,-0.9941 0.921696,0 1.677768,0.3394 2.319452,0.9941 0.582254,0.5729 0.900566,1.2641 0.963928,2.0784 0.0085,-0.1015 0.03012,-0.1962 0.03012,-0.3013 0,-0.9467 -0.340701,-1.7367 -0.994051,-2.3796 C 13.853722,1036.7998 13.09765,1036.4604 12.175954,1036.4604 Z"
         style="font-size:13.58991337px;font-style:normal;font-variant:normal;font-weight:bold;font-stretch:normal;text-align:start;line-height:125%;writing-mode:lr-tb;text-anchor:start;fill:#000000;fill-opacity:0.2162162;stroke:none;font-family:Bitstream Vera Serif" />
    </g>
  </g>
</svg>
