<?xml version="1.0" encoding="UTF-8" standalone="no"?>
<!-- Created with Inkscape (http://www.inkscape.org/) -->

<svg
   xmlns:dc="http://purl.org/dc/elements/1.1/"
   xmlns:cc="http://creativecommons.org/ns#"
   xmlns:rdf="http://www.w3.org/1999/02/22-rdf-syntax-ns#"
   xmlns:svg="http://www.w3.org/2000/svg"
   xmlns="http://www.w3.org/2000/svg"
   xmlns:xlink="http://www.w3.org/1999/xlink"
   xmlns:sodipodi="http://sodipodi.sourceforge.net/DTD/sodipodi-0.dtd"
   xmlns:inkscape="http://www.inkscape.org/namespaces/inkscape"
   width="48"
   height="48"
   id="svg944"
   version="1.1"
   inkscape:version="0.48+devel r12137"
   sodipodi:docname="isomaster.svg">
  <defs
     id="defs946">
    <linearGradient
       inkscape:collect="always"
       xlink:href="#linearGradient3763-7-63"
       id="linearGradient1036"
       gradientUnits="userSpaceOnUse"
       gradientTransform="matrix(0.96799712,0,0,1.0252613,0.7681,-1030.3401)"
       x1="33.225124"
       y1="1049.5842"
       x2="33.225124"
       y2="1006.7924" />
    <linearGradient
       id="linearGradient3763-7-63">
      <stop
         style="stop-color:#cccccc;stop-opacity:1"
         offset="0"
         id="stop3765-7-1" />
      <stop
         style="stop-color:#e6e6e6;stop-opacity:1"
         offset="1"
         id="stop3767-6-3" />
    </linearGradient>
  </defs>
  <sodipodi:namedview
     id="base"
     pagecolor="#ffffff"
     bordercolor="#666666"
     borderopacity="1.0"
     inkscape:pageopacity="0.0"
     inkscape:pageshadow="2"
     inkscape:zoom="8.0000001"
     inkscape:cx="10.078152"
     inkscape:cy="44.558234"
     inkscape:document-units="px"
     inkscape:current-layer="layer1"
     showgrid="false"
     width="0px"
     height="0px"
     fit-margin-top="0"
     fit-margin-left="0"
     fit-margin-right="0"
     fit-margin-bottom="0"
     inkscape:window-width="1366"
     inkscape:window-height="714"
     inkscape:window-x="0"
     inkscape:window-y="30"
     inkscape:window-maximized="1">
    <inkscape:grid
       type="xygrid"
       id="grid1823"
       empspacing="5"
       visible="true"
       enabled="true"
       snapvisiblegridlinesonly="true" />
  </sodipodi:namedview>
  <metadata
     id="metadata949">
    <rdf:RDF>
      <cc:Work
         rdf:about="">
        <dc:format>image/svg+xml</dc:format>
        <dc:type
           rdf:resource="http://purl.org/dc/dcmitype/StillImage" />
        <dc:title />
      </cc:Work>
    </rdf:RDF>
  </metadata>
  <g
     inkscape:label="Capa 1"
     inkscape:groupmode="layer"
     id="layer1"
     transform="translate(-1640.5564,-364.34714)">
    <rect
       style="color:#000000;fill:#333333;fill-opacity:1;fill-rule:nonzero;stroke:none;stroke-width:0.2;marker:none;visibility:visible;display:inline;overflow:visible;enable-background:accumulate"
       id="rect6294"
       width="45.5"
       height="45.5"
       x="1641.8064"
       y="365.59714"
       ry="6.3565426" />
    <rect
       ry="5.8565426"
       y="366.09714"
       x="1642.3064"
       height="44.5"
       width="44.5"
       id="rect6296"
       style="color:#000000;fill:#ffffff;fill-opacity:1;fill-rule:nonzero;stroke:none;stroke-width:0.2;marker:none;visibility:visible;display:inline;overflow:visible;enable-background:accumulate" />
    <rect
       style="fill:none;stroke:none"
       id="rect1526"
       width="48"
       height="48"
       x="1640.5564"
       y="364.34714"
       ry="0" />
    <rect
       style="fill:none;stroke:none"
       id="rect1526-9"
       width="48"
       height="48"
       x="1580.1465"
       y="375.23053"
       ry="0" />
    <path
       style="fill:#333333;fill-opacity:1;stroke:none"
       d="M 24.5 1.75 C 22.15361 2.0914394 19.92868 2.7767955 17.875 3.78125 L 17.875 44.21875 C 19.92868 45.223211 22.15361 45.908563 24.5 46.25 L 31.03125 46.25 C 37.321351 45.323229 42.781133 41.782544 46.25 36.78125 L 46.25 11.21875 C 42.781594 6.2098992 37.327357 2.6776579 31.03125 1.75 L 24.5 1.75 z M 27.75 19.84375 C 30.0513 19.84375 31.90625 21.69881 31.90625 24 C 31.90625 26.30119 30.0513 28.15625 27.75 28.15625 C 25.4487 28.15625 23.59375 26.30119 23.59375 24 C 23.59375 21.69881 25.4487 19.84375 27.75 19.84375 z "
       transform="translate(1640.5564,364.34714)"
       id="path3264" />
    <path
       style="fill:#cccccc;fill-opacity:1;stroke:none"
       d="m 1668.3064,380.84714 c -4.1422,0 -7.5,3.35786 -7.5,7.5 0,4.14214 3.3578,7.5 7.5,7.5 4.1421,0 7.5,-3.35786 7.5,-7.5 C 1675.8064,384.205 1672.4485,380.84714 1668.3064,380.84714 z m 0,4.16666 c 1.8409,0 3.3333,1.49239 3.3333,3.33334 0,1.84095 -1.4924,3.33334 -3.3333,3.33334 -1.841,0 -3.3334,-1.49239 -3.3334,-3.33334 C 1664.973,386.50619 1666.4654,385.0138 1668.3064,385.0138 Z"
       id="path4075"
       inkscape:connector-curvature="0" />
    <path
       style="fill:#999999;fill-opacity:1;stroke:none"
       d="m 1668.3063,381.05547 c -4.027,0 -7.2916,3.26465 -7.2916,7.29167 0,4.02702 3.2646,7.29167 7.2916,7.29167 4.027,0 7.2917,-3.26465 7.2917,-7.29167 C 1675.598,384.32012 1672.3333,381.05547 1668.3063,381.05547 z m 0,0.28479 c 3.8763,0 7.0063,3.13084 7.0063,7.00688 0,3.87603 -3.13,7.00687 -7.0063,7.00687 -3.8761,0 -7.0346,-3.13084 -7.0346,-7.00687 C 1661.2716,384.47111 1664.4302,381.34026 1668.3063,381.34026 Z"
       id="path4124"
       inkscape:connector-curvature="0" />
    <path
       inkscape:connector-curvature="0"
       id="path4130"
       d="m 1668.3063,384.63876 c -2.049,0 -3.7083,1.66032 -3.7083,3.70838 0,2.04816 1.6593,3.70837 3.7083,3.70837 2.0491,0 3.7084,-1.66021 3.7084,-3.70837 C 1672.0147,386.29908 1670.3554,384.63876 1668.3063,384.63876 z m 0,0.14505 c 1.9699,0 3.5637,1.59217 3.5637,3.56333 0,1.97115 -1.5938,3.56337 -3.5637,3.56337 -1.9698,0 -3.5786,-1.59222 -3.5786,-3.56337 C 1664.7277,386.37599 1666.3365,384.78381 1668.3063,384.78381 Z"
       style="fill:#b3b3b3;fill-opacity:1;stroke:none" />
    <path
       style="fill:url(#linearGradient1036);fill-opacity:1;stroke:none"
       d="M 7.59375 1.75 C 4.3492254 1.75 1.75 4.3492254 1.75 7.59375 L 1.75 40.40625 C 1.75 43.650775 4.3492254 46.25 7.59375 46.25 L 29.625 46.25 L 29.625 1.75 L 7.59375 1.75 z "
       transform="translate(1640.5564,364.34714)"
       id="rect1034" />
    <g
       id="g869"
       transform="translate(-4.2703,0.42263037)">
      <rect
         style="fill:#ffffff;fill-opacity:1;stroke:none"
         id="rect4068"
         width="7.0516949"
         height="3.6305587"
         x="1649.2672"
         y="376.56442"
         ry="0" />
      <rect
         ry="0"
         y="376.56442"
         x="1649.2672"
         height="3.6305587"
         width="14.22144"
         id="rect4066"
         style="fill:#000000;fill-opacity:1;stroke:none" />
      <g
         id="text4138-1"
         style="font-size:3.43305278px;font-style:normal;font-variant:normal;font-weight:normal;font-stretch:normal;line-height:125%;letter-spacing:0px;word-spacing:0px;fill:#ffffff;fill-opacity:1;stroke:none;font-family:Helvetica 35 Thin;-inkscape-font-specification:'Helvetica 35 Thin, Thin,'"
         transform="translate(5.1465975,1.41483)">
        <path
           id="path830"
           style="fill:#ffffff;font-family:Helvetica 35 Thin;-inkscape-font-specification:'Helvetica 35 Thin, Thin,'"
           d="m 1644.9704,378.19696 0.1509,0 0,-2.26635 0.01,0 0.9437,2.26635 0.1509,0 0.9337,-2.26635 0.01,0 0,2.26635 0.1508,0 0,-2.45074 -0.2162,0 -0.9488,2.28311 -0.01,0 -0.9572,-2.28311 -0.2162,0 L 1644.9704,378.19696 Z"
           inkscape:connector-curvature="0" />
        <path
           id="path832"
           style="fill:#ffffff;font-family:Helvetica 35 Thin;-inkscape-font-specification:'Helvetica 35 Thin, Thin,'"
           d="m 1648.4738,375.74622 -0.9856,2.45074 0.1626,0 0.3118,-0.78618 1.1734,0 0.3101,0.78618 0.1609,0 -0.9689,-2.45074 L 1648.4738,375.74622 z m -0.4626,1.53381 0.5448,-1.3863 0.01,0 0.5263,1.3863 L 1648.0112,377.28003 Z"
           inkscape:connector-curvature="0" />
        <path
           id="path834"
           style="fill:#ffffff;font-family:Helvetica 35 Thin;-inkscape-font-specification:'Helvetica 35 Thin, Thin,'"
           d="m 1651.5348,376.44691 q -0.024,-0.40231 -0.2817,-0.58503 -0.2598,-0.17433 -0.6554,-0.17433 -0.3017,0 -0.5548,0.14751 -0.2615,0.15087 -0.2682,0.50457 0,0.17265 0.075,0.28497 0.069,0.11063 0.1894,0.18271 0.119,0.0654 0.2665,0.10561 0.072,0.0201 0.1509,0.0385 0.072,0.0201 0.1509,0.0402 0.1626,0.0285 0.3134,0.062 0.1442,0.0352 0.2649,0.0956 0.119,0.062 0.1911,0.15924 0.069,0.0989 0.069,0.25648 0,0.15757 -0.065,0.26485 -0.069,0.10561 -0.1776,0.17098 -0.1073,0.0654 -0.2263,0.0939 -0.1241,0.0302 -0.2414,0.0302 -0.3705,0.003 -0.632,-0.17098 -0.2565,-0.17266 -0.2498,-0.56659 l -0.1508,0 q 0.01,0.46601 0.3017,0.66884 0.2917,0.19948 0.7309,0.19948 0.3017,0 0.5733,-0.15757 0.2782,-0.1559 0.2883,-0.53306 0,-0.1844 -0.069,-0.30509 -0.072,-0.11734 -0.1911,-0.18942 -0.1207,-0.0721 -0.2649,-0.11566 -0.1509,-0.0419 -0.3118,-0.0687 -0.079,-0.0218 -0.1525,-0.0386 -0.079,-0.0134 -0.1509,-0.0335 -0.1475,-0.0352 -0.2665,-0.0905 -0.1207,-0.0536 -0.1894,-0.15087 -0.075,-0.0922 -0.075,-0.233 0,-0.15422 0.069,-0.25313 0.065,-0.10393 0.1643,-0.1626 0.2163,-0.10896 0.4392,-0.1056 0.3437,0 0.5599,0.15422 0.2129,0.15757 0.2263,0.47439 L 1651.5348,376.44691 Z"
           inkscape:connector-curvature="0" />
        <path
           id="path836"
           style="fill:#ffffff;font-family:Helvetica 35 Thin;-inkscape-font-specification:'Helvetica 35 Thin, Thin,'"
           d="m 1652.5472,375.87697 0,2.31999 0.1509,0 0,-2.31999 0.8667,0 0,-0.13075 -1.8792,0 0,0.13075 L 1652.5472,375.87697 Z"
           inkscape:connector-curvature="0" />
        <path
           id="path838"
           style="fill:#ffffff;font-family:Helvetica 35 Thin;-inkscape-font-specification:'Helvetica 35 Thin, Thin,'"
           d="m 1653.8849,378.06621 0,-1.07786 1.4081,0 0,-0.13075 -1.4081,0 0,-0.98063 1.497,0 0,-0.13075 -1.6478,0 0,2.45074 1.6645,0 0,-0.13075 L 1653.8849,378.06621 Z"
           inkscape:connector-curvature="0" />
        <path
           id="path840"
           style="fill:#ffffff;font-family:Helvetica 35 Thin;-inkscape-font-specification:'Helvetica 35 Thin, Thin,'"
           d="m 1655.8093,376.95147 0,-1.0745 0.8717,0 q 0.2581,0 0.4392,0.11231 0.1827,0.12069 0.186,0.39896 0,0.29167 -0.1743,0.42578 -0.176,0.13745 -0.4509,0.13745 L 1655.8093,376.95147 z m -0.1508,1.24549 0.1508,0 0,-1.11641 0.8717,0 q 0.1659,0 0.2716,0.0318 0.1072,0.0335 0.1676,0.0922 0.065,0.0553 0.1006,0.13411 0.03,0.0788 0.037,0.17098 0.015,0.18272 0.01,0.36878 0,0.0888 0.015,0.16763 0.01,0.0402 0.017,0.0754 0.01,0.0419 0.024,0.0754 l 0.1693,0 q -0.065,-0.10225 -0.065,-0.28497 0,-0.17769 -0.018,-0.37381 -0.01,-0.19613 -0.109,-0.347 -0.052,-0.0721 -0.1374,-0.12069 -0.092,-0.0402 -0.2297,-0.0587 l 0,-0.007 q 0.5147,-0.10895 0.5247,-0.62693 0,-0.35035 -0.2229,-0.49451 -0.2196,-0.14081 -0.5532,-0.13745 l -1.0225,0 L 1655.6585,378.19696 Z"
           inkscape:connector-curvature="0" />
      </g>
      <rect
         ry="0"
         y="372.4628"
         x="1649.2672"
         height="3.6305587"
         width="7.0516949"
         id="rect4144-1"
         style="fill:#000000;fill-opacity:1;stroke:none" />
      <g
         transform="translate(4.5407975,-2.68681)"
         id="text4098"
         style="font-size:3.24407005px;font-style:normal;font-weight:normal;line-height:125%;letter-spacing:0px;word-spacing:0px;fill:#ffffff;fill-opacity:1;stroke:none;font-family:Impact;-inkscape-font-specification:Impact">
        <path
           inkscape:connector-curvature="0"
           id="path4103"
           style="fill:#ffffff"
           d="m 1646.243,375.68261 0,2.56452 -0.6668,0 0,-2.56452 L 1646.243,375.68261 Z" />
        <path
           inkscape:connector-curvature="0"
           id="path4105"
           style="fill:#ffffff"
           d="m 1647.9269,376.45877 -0.6194,0 0,-0.19008 q 0,-0.13306 -0.024,-0.16949 -0.024,-0.0364 -0.079,-0.0364 -0.06,0 -0.092,0.0491 -0.03,0.0491 -0.03,0.1489 0,0.12831 0.035,0.19325 0.033,0.065 0.1885,0.15682 0.4451,0.26453 0.5608,0.43402 0.1156,0.16949 0.1156,0.54649 0,0.27403 -0.065,0.40392 -0.063,0.12989 -0.2472,0.2186 -0.1837,0.0871 -0.4276,0.0871 -0.2677,0 -0.4578,-0.10138 -0.1885,-0.10138 -0.2471,-0.25819 -0.059,-0.15682 -0.059,-0.44511 l 0,-0.16791 0.6193,0 0,0.31205 q 0,0.14415 0.025,0.18533 0.027,0.0412 0.093,0.0412 0.066,0 0.098,-0.0523 0.033,-0.0523 0.033,-0.15523 0,-0.22651 -0.062,-0.29621 -0.063,-0.0697 -0.312,-0.23285 -0.2487,-0.16474 -0.3295,-0.23919 -0.081,-0.0745 -0.1347,-0.20592 -0.052,-0.13147 -0.052,-0.33581 0,-0.29463 0.074,-0.43086 0.076,-0.13622 0.244,-0.21225 0.1679,-0.0776 0.4055,-0.0776 0.2597,0 0.4419,0.0839 0.1838,0.084 0.2424,0.21226 0.06,0.12672 0.06,0.43244 L 1647.9269,376.45877 Z" />
        <path
           inkscape:connector-curvature="0"
           id="path4107"
           style="fill:#ffffff"
           d="m 1649.7168,377.18425 q 0,0.38651 -0.019,0.54808 -0.017,0.15998 -0.1141,0.29304 -0.095,0.13306 -0.2582,0.20434 -0.1631,0.0713 -0.3801,0.0713 -0.2059,0 -0.3707,-0.0665 -0.1631,-0.0681 -0.2629,-0.20276 -0.1,-0.13464 -0.1188,-0.29304 -0.019,-0.1584 -0.019,-0.55441 l 0,-0.43877 q 0,-0.3865 0.017,-0.54648 0.019,-0.16157 0.114,-0.29463 0.097,-0.13306 0.2598,-0.20434 0.1632,-0.0713 0.3802,-0.0713 0.2059,0 0.3691,0.0681 0.1647,0.0665 0.2645,0.20117 0.1,0.13464 0.1188,0.29305 0.019,0.1584 0.019,0.5544 L 1649.7168,377.18425 z m -0.6669,-0.84269 q 0,-0.179 -0.021,-0.2281 -0.019,-0.0507 -0.081,-0.0507 -0.052,0 -0.081,0.0412 -0.027,0.0396 -0.027,0.23761 l 0,1.19752 q 0,0.22334 0.018,0.27561 0.019,0.0523 0.085,0.0523 0.068,0 0.087,-0.0602 0.019,-0.0602 0.019,-0.2867 L 1649.0499,376.34156 Z" />
      </g>
    </g>
    <path
       inkscape:connector-curvature="0"
       style="color:#000000;fill:#000000;fill-opacity:1;fill-rule:nonzero;stroke:none;stroke-width:0.2;marker:none;visibility:visible;display:inline;overflow:visible;enable-background:accumulate"
       d="m 1642.3063,404.15967 0,0.5625 c 0,3.2445 2.5992,5.875 5.8437,5.875 l 32.8126,0 c 3.2445,0 5.8437,-2.6305 5.8437,-5.875 l 0,-0.5625 c 0,3.2445 -2.5992,5.875 -5.8437,5.875 l -32.8126,0 C 1644.9055,410.03467 1642.3063,407.40417 1642.3063,404.15967 Z"
       id="path6388" />
    <path
       id="path6361"
       d="m 1642.3063,372.53467 0,-0.5625 c 0,-3.2445 2.5992,-5.875 5.8437,-5.875 l 32.8126,0 c 3.2445,0 5.8437,2.6305 5.8437,5.875 l 0,0.5625 c 0,-3.2445 -2.5992,-5.875 -5.8437,-5.875 l -32.8126,0 C 1644.9055,366.65967 1642.3063,369.29017 1642.3063,372.53467 Z"
       style="color:#000000;fill:#ffffff;fill-opacity:1;fill-rule:nonzero;stroke:none;stroke-width:0.2;marker:none;visibility:visible;display:inline;overflow:visible;enable-background:accumulate"
       inkscape:connector-curvature="0" />
  </g>
</svg>
