<?xml version="1.0" encoding="UTF-8" standalone="no"?>
<!-- Created with Inkscape (http://www.inkscape.org/) -->

<svg
   xmlns:dc="http://purl.org/dc/elements/1.1/"
   xmlns:cc="http://creativecommons.org/ns#"
   xmlns:rdf="http://www.w3.org/1999/02/22-rdf-syntax-ns#"
   xmlns:svg="http://www.w3.org/2000/svg"
   xmlns="http://www.w3.org/2000/svg"
   xmlns:xlink="http://www.w3.org/1999/xlink"
   xmlns:sodipodi="http://sodipodi.sourceforge.net/DTD/sodipodi-0.dtd"
   xmlns:inkscape="http://www.inkscape.org/namespaces/inkscape"
   width="48"
   height="48"
   id="svg2"
   version="1.1"
   inkscape:version="0.48+devel r12077"
   sodipodi:docname="jdownloader.svg"
   inkscape:export-filename="/home/uri/splash.png"
   inkscape:export-xdpi="96"
   inkscape:export-ydpi="96">
  <defs
     id="defs4">
    <linearGradient
       inkscape:collect="always"
       xlink:href="#linearGradient1535"
       id="linearGradient1531"
       gradientUnits="userSpaceOnUse"
       gradientTransform="matrix(-1,0,0,1,68.899058,-17.486447)"
       x1="43.763988"
       y1="1028.3622"
       x2="46"
       y2="1028.3622" />
    <linearGradient
       id="linearGradient1535">
      <stop
         id="stop1537"
         style="stop-color:#307b8e;stop-opacity:0"
         offset="0" />
      <stop
         id="stop1539"
         style="stop-color:#14333b;stop-opacity:1"
         offset="1" />
    </linearGradient>
    <linearGradient
       inkscape:collect="always"
       xlink:href="#linearGradient1504"
       id="linearGradient1524"
       gradientUnits="userSpaceOnUse"
       x1="27.137213"
       y1="1006.4232"
       x2="27.137213"
       y2="1050.5029"
       gradientTransform="matrix(0.95505618,0,0,0.95505618,21.227704,29.481993)" />
    <linearGradient
       id="linearGradient1504">
      <stop
         id="stop1506"
         style="stop-color:#f4fafb;stop-opacity:1"
         offset="0" />
      <stop
         id="stop1508"
         style="stop-color:#97cedb;stop-opacity:1"
         offset="1" />
    </linearGradient>
    <linearGradient
       inkscape:collect="always"
       xlink:href="#linearGradient1535"
       id="linearGradient1561"
       gradientUnits="userSpaceOnUse"
       gradientTransform="translate(19.399046,-17.486447)"
       x1="43.763988"
       y1="1028.3622"
       x2="46"
       y2="1028.3622" />
    <linearGradient
       inkscape:collect="always"
       xlink:href="#linearGradient1425"
       id="linearGradient1423"
       x1="82.101364"
       y1="7.2930632"
       x2="82.101364"
       y2="37.449196"
       gradientUnits="userSpaceOnUse" />
    <linearGradient
       id="linearGradient1425"
       inkscape:collect="always">
      <stop
         id="stop1427"
         offset="0"
         style="stop-color:#cbcbcb;stop-opacity:1" />
      <stop
         id="stop1429"
         offset="1"
         style="stop-color:#fdfdfd;stop-opacity:1" />
    </linearGradient>
    <linearGradient
       inkscape:collect="always"
       xlink:href="#linearGradient1467"
       id="linearGradient1433"
       gradientUnits="userSpaceOnUse"
       x1="82.101364"
       y1="7.2930632"
       x2="82.101364"
       y2="37.449196" />
    <linearGradient
       id="linearGradient1467">
      <stop
         id="stop1469"
         style="stop-color:#255f6d;stop-opacity:1"
         offset="0" />
      <stop
         id="stop1471"
         style="stop-color:#102a30;stop-opacity:1"
         offset="1" />
    </linearGradient>
    <linearGradient
       inkscape:collect="always"
       xlink:href="#linearGradient1455"
       id="linearGradient1465"
       gradientUnits="userSpaceOnUse"
       x1="82.101364"
       y1="7.2930632"
       x2="82.101364"
       y2="37.449196" />
    <linearGradient
       id="linearGradient1455">
      <stop
         offset="0"
         style="stop-color:#307b8e;stop-opacity:1"
         id="stop1457" />
      <stop
         offset="1"
         style="stop-color:#14333b;stop-opacity:1"
         id="stop1461" />
    </linearGradient>
    <linearGradient
       inkscape:collect="always"
       xlink:href="#linearGradient1519"
       id="linearGradient1517"
       x1="24.475586"
       y1="15.8617"
       x2="24.475586"
       y2="32.138298"
       gradientUnits="userSpaceOnUse"
       gradientTransform="translate(-48.748738,999.37083)" />
    <linearGradient
       id="linearGradient1519">
      <stop
         offset="0"
         style="stop-color:#183e47;stop-opacity:1"
         id="stop1521" />
      <stop
         offset="1"
         style="stop-color:#102a30;stop-opacity:1"
         id="stop1523" />
    </linearGradient>
    <linearGradient
       inkscape:collect="always"
       xlink:href="#linearGradient1504"
       id="linearGradient1501"
       x1="24.176466"
       y1="1021.5051"
       x2="24.176466"
       y2="1034.7534"
       gradientUnits="userSpaceOnUse"
       gradientTransform="translate(-48.748738,-4.9913696)" />
    <linearGradient
       gradientTransform="translate(-48.748738,999.37083)"
       inkscape:collect="always"
       xlink:href="#linearGradient1569"
       id="linearGradient1575"
       x1="24.089314"
       y1="14.320247"
       x2="24.089314"
       y2="22.143108"
       gradientUnits="userSpaceOnUse" />
    <linearGradient
       inkscape:collect="always"
       id="linearGradient1569">
      <stop
         style="stop-color:#ffffff;stop-opacity:1;"
         offset="0"
         id="stop1571" />
      <stop
         style="stop-color:#ffffff;stop-opacity:0;"
         offset="1"
         id="stop1573" />
    </linearGradient>
    <linearGradient
       gradientTransform="translate(20.149052,-16.736547)"
       inkscape:collect="always"
       xlink:href="#linearGradient1407"
       id="linearGradient1520"
       x1="24.73097"
       y1="1050.1057"
       x2="24.73097"
       y2="1006.2651"
       gradientUnits="userSpaceOnUse" />
    <linearGradient
       inkscape:collect="always"
       id="linearGradient1407">
      <stop
         style="stop-color:#f9f9f9;stop-opacity:1"
         offset="0"
         id="stop1409" />
      <stop
         style="stop-color:#ffffff;stop-opacity:1"
         offset="1"
         id="stop1411" />
    </linearGradient>
  </defs>
  <sodipodi:namedview
     id="base"
     pagecolor="#ffffff"
     bordercolor="#666666"
     borderopacity="1.0"
     inkscape:pageopacity="0.0"
     inkscape:pageshadow="2"
     inkscape:zoom="4.6886624"
     inkscape:cx="-7.4161335"
     inkscape:cy="24.480788"
     inkscape:document-units="px"
     inkscape:current-layer="layer1"
     showgrid="false"
     inkscape:window-width="1366"
     inkscape:window-height="718"
     inkscape:window-x="0"
     inkscape:window-y="28"
     inkscape:window-maximized="1">
    <inkscape:grid
       type="xygrid"
       id="grid3850"
       empspacing="5"
       visible="true"
       enabled="true"
       snapvisiblegridlinesonly="true" />
  </sodipodi:namedview>
  <metadata
     id="metadata7">
    <rdf:RDF>
      <cc:Work
         rdf:about="">
        <dc:format>image/svg+xml</dc:format>
        <dc:type
           rdf:resource="http://purl.org/dc/dcmitype/StillImage" />
        <dc:title />
      </cc:Work>
    </rdf:RDF>
  </metadata>
  <g
     inkscape:label="Capa 1"
     inkscape:groupmode="layer"
     id="layer1"
     transform="translate(0,-1004.3622)">
    <g
       id="g1729"
       transform="translate(-20.149052,16.73659)">
      <rect
         ry="6.3565426"
         y="988.87561"
         x="21.399052"
         height="45.5"
         width="45.5"
         id="rect6294"
         style="color:#000000;fill:#333333;fill-opacity:1;fill-rule:nonzero;stroke:none;stroke-width:0.2;marker:none;visibility:visible;display:inline;overflow:visible;enable-background:accumulate" />
      <rect
         style="color:#000000;fill:url(#linearGradient1520);fill-opacity:1;fill-rule:nonzero;stroke:none;stroke-width:0.2;marker:none;visibility:visible;display:inline;overflow:visible;enable-background:accumulate"
         id="rect6296"
         width="44.5"
         height="44.5"
         x="21.899052"
         y="989.37561"
         ry="5.8565426" />
      <path
         inkscape:connector-curvature="0"
         style="color:#000000;fill:#ffffff;fill-opacity:1;fill-rule:nonzero;stroke:none;stroke-width:0.2;marker:none;visibility:visible;display:inline;overflow:visible;enable-background:accumulate"
         d="m 21.899052,995.81315 0,-0.5625 c 0,-3.2445 2.599225,-5.875 5.84375,-5.875 l 32.8125,0 c 3.244525,0 5.84375,2.6305 5.84375,5.875 l 0,0.5625 c 0,-3.2445 -2.599225,-5.875 -5.84375,-5.875 l -32.8125,0 C 24.498277,989.93815 21.899052,992.56865 21.899052,995.81315 Z"
         id="path6361" />
      <path
         id="path6388"
         d="m 21.899052,1027.4382 0,0.5625 c 0,3.2445 2.599225,5.875 5.84375,5.875 l 32.8125,0 c 3.244525,0 5.84375,-2.6305 5.84375,-5.875 l 0,-0.5625 c 0,3.2445 -2.599225,5.875 -5.84375,5.875 l -32.8125,0 C 24.498277,1033.3132 21.899052,1030.6827 21.899052,1027.4382 Z"
         style="color:#000000;fill:#000000;fill-opacity:1;fill-rule:nonzero;stroke:none;stroke-width:0.2;marker:none;visibility:visible;display:inline;overflow:visible;enable-background:accumulate"
         inkscape:connector-curvature="0" />
      <g
         transform="matrix(0.9375,0,0,0.9375,67.350991,52.215503)"
         id="g1533">
        <path
           transform="matrix(1.0479985,0,0,1.0479985,-109.77353,999.64543)"
           d="m 96.397843,22.638788 c 0,8.431841 -6.835357,15.267198 -15.267197,15.267198 -8.431841,0 -15.267198,-6.835357 -15.267198,-15.267198 0,-8.43184 6.835357,-15.2671974 15.267198,-15.2671974 C 89.562486,7.3715906 96.397843,14.206948 96.397843,22.638788 Z"
           sodipodi:ry="15.267198"
           sodipodi:rx="15.267198"
           sodipodi:cy="22.638788"
           sodipodi:cx="81.130646"
           id="path1451"
           style="opacity:0.52100004;color:#000000;fill:#ffffff;fill-opacity:1;fill-rule:nonzero;stroke:none;stroke-width:0.2;marker:none;visibility:visible;display:inline;overflow:visible;enable-background:accumulate"
           sodipodi:type="arc" />
        <path
           sodipodi:type="arc"
           style="opacity:0.52100004;color:#000000;fill:url(#linearGradient1423);fill-opacity:1;fill-rule:nonzero;stroke:none;stroke-width:0.2;marker:none;visibility:visible;display:inline;overflow:visible;enable-background:accumulate"
           id="path1415"
           sodipodi:cx="81.130646"
           sodipodi:cy="22.638788"
           sodipodi:rx="15.267198"
           sodipodi:ry="15.267198"
           d="m 96.397843,22.638788 c 0,8.431841 -6.835357,15.267198 -15.267197,15.267198 -8.431841,0 -15.267198,-6.835357 -15.267198,-15.267198 0,-8.43184 6.835357,-15.2671974 15.267198,-15.2671974 C 89.562486,7.3715906 96.397843,14.206948 96.397843,22.638788 Z"
           transform="matrix(0.98635153,0,0,0.98635153,-104.77207,1001.041)" />
        <path
           transform="matrix(0.85713964,0,0,0.85713964,-94.289031,1003.9662)"
           d="m 96.397843,22.638788 c 0,8.431841 -6.835357,15.267198 -15.267197,15.267198 -8.431841,0 -15.267198,-6.835357 -15.267198,-15.267198 0,-8.43184 6.835357,-15.2671974 15.267198,-15.2671974 C 89.562486,7.3715906 96.397843,14.206948 96.397843,22.638788 Z"
           sodipodi:ry="15.267198"
           sodipodi:rx="15.267198"
           sodipodi:cy="22.638788"
           sodipodi:cx="81.130646"
           id="path1431"
           style="color:#000000;fill:url(#linearGradient1433);fill-opacity:1;fill-rule:nonzero;stroke:none;stroke-width:0.2;marker:none;visibility:visible;display:inline;overflow:visible;enable-background:accumulate"
           sodipodi:type="arc" />
        <path
           sodipodi:type="arc"
           style="color:#000000;fill:url(#linearGradient1465);fill-opacity:1;fill-rule:nonzero;stroke:none;stroke-width:0.2;marker:none;visibility:visible;display:inline;overflow:visible;enable-background:accumulate"
           id="path1463"
           sodipodi:cx="81.130646"
           sodipodi:cy="22.638788"
           sodipodi:rx="15.267198"
           sodipodi:ry="15.267198"
           d="m 96.397843,22.638788 c 0,8.431841 -6.835357,15.267198 -15.267197,15.267198 -8.431841,0 -15.267198,-6.835357 -15.267198,-15.267198 0,-8.43184 6.835357,-15.2671974 15.267198,-15.2671974 C 89.562486,7.3715906 96.397843,14.206948 96.397843,22.638788 Z"
           transform="matrix(0.79163973,0,0,0.79163973,-88.974981,1005.449)" />
        <path
           style="color:#000000;fill:url(#linearGradient1517);fill-opacity:1;fill-rule:nonzero;stroke:none;stroke-width:0.2;marker:none;visibility:visible;display:inline;overflow:visible;enable-background:accumulate"
           d="m -28.311238,1015.4333 c -0.295517,0 -0.53125,0.2357 -0.53125,0.5312 l 0,7.1251 -2.875,0 6.96875,8.2187 6.96875,-8.2187 -2.875,0 0,-7.1251 c 0,-0.2955 -0.235733,-0.5312 -0.53125,-0.5312 L -28.311238,1015.4333 Z"
           id="rect1483"
           inkscape:connector-curvature="0" />
        <path
           style="color:#000000;fill:url(#linearGradient1501);fill-opacity:1;fill-rule:nonzero;stroke:none;stroke-width:0.2;marker:none;visibility:visible;display:inline;overflow:visible;enable-background:accumulate"
           d="m -27.311238,1016.4333 c -0.305423,0 -0.53125,0.2571 -0.53125,0.5624 l 0,7.0314 -1.875,0 4.96875,5.8749 4.96875,-5.8749 -1.875,0 0,-7.0314 c 0,-0.3053 -0.225827,-0.5624 -0.53125,-0.5624 L -27.311238,1016.4333 Z"
           id="rect1488"
           inkscape:connector-curvature="0" />
        <path
           inkscape:connector-curvature="0"
           style="color:#000000;fill:url(#linearGradient1575);fill-opacity:1;fill-rule:nonzero;stroke:none;stroke-width:0.2;marker:none;visibility:visible;display:inline;overflow:visible;enable-background:accumulate"
           d="m -24.748738,1012.0896 c -5.254232,0 -9.5,3.0928 -9.5,6.9062 0,0.4561 0.07124,0.9124 0.1875,1.3438 2.599499,-0.8616 5.816761,-1.375 9.3125,-1.375 3.495739,0 6.713001,0.5134 9.3125,1.375 0.116264,-0.4314 0.1875,-0.8877 0.1875,-1.3438 C -15.248738,1015.1824 -19.494506,1012.0896 -24.748738,1012.0896 Z"
           id="path1473" />
      </g>
      <path
         id="rect1559"
         d="m 59.555302,990.37565 c -0.01621,0.097 -0.0625,0.1796 -0.0625,0.2813 l 0,40.43755 c 0,0.7852 0.516295,1.4486 1.21875,1.6875 2.659626,-0.4349 4.6875,-2.7136 4.6875,-5.5 l 0,-31.31255 c 0,-3.0987 -2.495047,-5.5938 -5.59375,-5.5938 L 59.555302,990.37565 Z"
         style="opacity:0.07999998;fill:url(#linearGradient1561);fill-opacity:1;stroke:none"
         inkscape:connector-curvature="0" />
      <rect
         ry="5.593327"
         y="990.37561"
         x="22.899052"
         height="42.5"
         width="42.5"
         id="rect1522"
         style="opacity:0.13900003;color:#000000;fill:url(#linearGradient1524);fill-opacity:1;fill-rule:nonzero;stroke:none;stroke-width:0.2;marker:none;visibility:visible;display:inline;overflow:visible;enable-background:accumulate" />
      <path
         inkscape:connector-curvature="0"
         style="opacity:0.07999998;fill:url(#linearGradient1531);fill-opacity:1;stroke:none"
         d="m 28.742802,990.37565 c 0.01621,0.097 0.0625,0.1795 0.0625,0.2813 l 0,40.43755 c 0,0.7852 -0.516295,1.4486 -1.21875,1.6875 -2.659626,-0.435 -4.6875,-2.7137 -4.6875,-5.5 l 0,-31.31255 c 0,-3.0988 2.495047,-5.5938 5.59375,-5.5938 L 28.742802,990.37565 Z"
         id="path1529" />
    </g>
  </g>
</svg>
