<?xml version="1.0" encoding="UTF-8" standalone="no"?>
<!-- Created with Inkscape (http://www.inkscape.org/) -->

<svg
   xmlns:dc="http://purl.org/dc/elements/1.1/"
   xmlns:cc="http://creativecommons.org/ns#"
   xmlns:rdf="http://www.w3.org/1999/02/22-rdf-syntax-ns#"
   xmlns:svg="http://www.w3.org/2000/svg"
   xmlns="http://www.w3.org/2000/svg"
   xmlns:xlink="http://www.w3.org/1999/xlink"
   xmlns:sodipodi="http://sodipodi.sourceforge.net/DTD/sodipodi-0.dtd"
   xmlns:inkscape="http://www.inkscape.org/namespaces/inkscape"
   width="48"
   height="48"
   id="svg2"
   version="1.1"
   inkscape:version="0.48+devel r12137"
   sodipodi:docname="kdenlive.svg">
  <defs
     id="defs4">
    <linearGradient
       inkscape:collect="always"
       id="linearGradient903">
      <stop
         style="stop-color:#999999;stop-opacity:1"
         offset="0"
         id="stop905" />
      <stop
         style="stop-color:#ececec;stop-opacity:1"
         offset="1"
         id="stop907" />
    </linearGradient>
    <linearGradient
       id="linearGradient936"
       inkscape:collect="always">
      <stop
         id="stop938"
         offset="0"
         style="stop-color:#851e14;stop-opacity:1" />
      <stop
         id="stop940"
         offset="1"
         style="stop-color:#e34233;stop-opacity:1" />
    </linearGradient>
    <linearGradient
       inkscape:collect="always"
       xlink:href="#linearGradient965"
       id="linearGradient971"
       x1="9.280777"
       y1="33.681087"
       x2="9.280777"
       y2="4.159379"
       gradientUnits="userSpaceOnUse"
       gradientTransform="translate(0,1003.876)" />
    <linearGradient
       inkscape:collect="always"
       id="linearGradient965">
      <stop
         style="stop-color:#f09f03;stop-opacity:1"
         offset="0"
         id="stop967" />
      <stop
         style="stop-color:#f09f03;stop-opacity:1"
         offset="1"
         id="stop969" />
    </linearGradient>
    <linearGradient
       inkscape:collect="always"
       xlink:href="#linearGradient954"
       id="linearGradient952"
       x1="6.59375"
       y1="1027.2997"
       x2="6.59375"
       y2="1018.6434"
       gradientUnits="userSpaceOnUse"
       gradientTransform="matrix(1.0428571,0,0,1,1.9794643,10.75)" />
    <linearGradient
       id="linearGradient954"
       inkscape:collect="always">
      <stop
         id="stop956"
         offset="0"
         style="stop-color:#4d4d4d;stop-opacity:1" />
      <stop
         id="stop958"
         offset="1"
         style="stop-color:#999999;stop-opacity:1" />
    </linearGradient>
    <linearGradient
       inkscape:collect="always"
       xlink:href="#linearGradient954"
       id="linearGradient1008"
       gradientUnits="userSpaceOnUse"
       gradientTransform="matrix(1.0428571,0,0,1,-23.807594,10.75)"
       x1="6.59375"
       y1="1027.2997"
       x2="6.59375"
       y2="1018.6434" />
    <linearGradient
       inkscape:collect="always"
       xlink:href="#linearGradient965"
       id="linearGradient1075"
       gradientUnits="userSpaceOnUse"
       gradientTransform="translate(0,1003.876)"
       x1="9.280777"
       y1="33.681087"
       x2="9.280777"
       y2="4.159379" />
    <linearGradient
       inkscape:collect="always"
       xlink:href="#linearGradient954"
       id="linearGradient1077"
       gradientUnits="userSpaceOnUse"
       gradientTransform="matrix(1.0428571,0,0,1,1.9794643,10.75)"
       x1="6.59375"
       y1="1027.2997"
       x2="6.59375"
       y2="1018.6434" />
    <linearGradient
       inkscape:collect="always"
       xlink:href="#linearGradient954"
       id="linearGradient1079"
       gradientUnits="userSpaceOnUse"
       gradientTransform="matrix(1.0428571,0,0,1,-23.807594,10.75)"
       x1="6.59375"
       y1="1027.2997"
       x2="6.59375"
       y2="1018.6434" />
    <linearGradient
       inkscape:collect="always"
       xlink:href="#linearGradient903"
       id="linearGradient1092"
       x1="23.9375"
       y1="1050.6747"
       x2="23.9375"
       y2="1005.9872"
       gradientUnits="userSpaceOnUse" />
    <linearGradient
       inkscape:collect="always"
       xlink:href="#linearGradient936"
       id="linearGradient1096"
       gradientUnits="userSpaceOnUse"
       gradientTransform="matrix(0.4844013,0,0,-1,11.374371,0)"
       x1="22.98097"
       y1="-1052.6943"
       x2="22.98097"
       y2="-1004.6325" />
    <linearGradient
       inkscape:collect="always"
       id="linearGradient903-9">
      <stop
         style="stop-color:#999999;stop-opacity:1"
         offset="0"
         id="stop905-1" />
      <stop
         style="stop-color:#ececec;stop-opacity:1"
         offset="1"
         id="stop907-9" />
    </linearGradient>
    <linearGradient
       gradientTransform="translate(-1.5e-7,-1.75)"
       y2="32.1875"
       x2="24.386702"
       y1="48.139664"
       x1="24.386702"
       gradientUnits="userSpaceOnUse"
       id="linearGradient1319"
       xlink:href="#linearGradient903-9"
       inkscape:collect="always" />
  </defs>
  <sodipodi:namedview
     id="base"
     pagecolor="#ffffff"
     bordercolor="#666666"
     borderopacity="1.0"
     inkscape:pageopacity="0.0"
     inkscape:pageshadow="2"
     inkscape:zoom="2.8284273"
     inkscape:cx="-44.354253"
     inkscape:cy="13.31156"
     inkscape:document-units="px"
     inkscape:current-layer="layer1"
     showgrid="false"
     inkscape:window-width="1366"
     inkscape:window-height="714"
     inkscape:window-x="0"
     inkscape:window-y="30"
     inkscape:window-maximized="1">
    <inkscape:grid
       type="xygrid"
       id="grid3850" />
  </sodipodi:namedview>
  <metadata
     id="metadata7">
    <rdf:RDF>
      <cc:Work
         rdf:about="">
        <dc:format>image/svg+xml</dc:format>
        <dc:type
           rdf:resource="http://purl.org/dc/dcmitype/StillImage" />
        <dc:title />
      </cc:Work>
    </rdf:RDF>
  </metadata>
  <g
     inkscape:label="Capa 1"
     inkscape:groupmode="layer"
     id="layer1"
     transform="translate(0,-1004.3622)">
    <rect
       style="color:#000000;fill:#333333;fill-opacity:1;fill-rule:nonzero;stroke:none;stroke-width:0.2;marker:none;visibility:visible;display:inline;overflow:visible;enable-background:accumulate"
       id="rect6294"
       width="45.5"
       height="45.5"
       x="1.25"
       y="1005.6122"
       ry="6.3565426" />
    <rect
       ry="5.8565426"
       y="1006.1122"
       x="1.75"
       height="44.5"
       width="44.5"
       id="rect6296"
       style="color:#000000;fill:url(#linearGradient1092);fill-opacity:1;fill-rule:nonzero;stroke:none;stroke-width:0.2;marker:none;visibility:visible;display:inline;overflow:visible;enable-background:accumulate" />
    <path
       style="fill:url(#linearGradient1319);fill-opacity:1"
       d="M 1.75 33.875 L 1.75 40.40625 C 1.75 43.650775 4.3492254 46.25 7.59375 46.25 L 40.40625 46.25 C 43.650775 46.25 46.25 43.650775 46.25 40.40625 L 46.25 33.875 L 1.75 33.875 z "
       transform="translate(0,1004.3622)"
       id="rect911" />
    <path
       style="opacity:0.95999995;fill:url(#linearGradient1096);fill-opacity:1;stroke:none"
       d="m 13.375,1006.1122 0,44.5 21.25,0 L 34.625,1006.1122 Z"
       id="rect1094"
       inkscape:connector-curvature="0"
       sodipodi:nodetypes="ccccc" />
    <path
       style="fill:#ffffff;fill-opacity:0.40926645"
       d="M 1.75 34.125 L 1.75 34.75 L 46.25 34.75 L 46.25 34.125 L 1.75 34.125 z "
       transform="translate(0,1004.3622)"
       id="rect924" />
    <path
       style="fill:#000000;fill-opacity:0.40926645"
       d="M 1.75 33.5 L 1.75 34.125 L 46.25 34.125 L 46.25 33.5 L 1.75 33.5 z "
       transform="translate(0,1004.3622)"
       id="path932" />
    <g
       id="g1138"
       transform="matrix(0.93750002,0,0,0.93750002,54.937503,57.928923)">
      <g
         transform="matrix(1.045902,0,0,1.045902,-58.434885,-41.805591)"
         id="g1032">
        <g
           id="g979"
           transform="translate(4,13.984283)">
          <path
             id="path977"
             d="m 4.84375,1008.6904 2,3.4375 1.5625,2.6875 0,23.5625 0.875,0 0,-23.5625 1.5625,-2.6875 1.96875,-3.4375 -3.96875,0 L 4.84375,1008.6904 Z"
             style="fill:#000000;fill-opacity:0.12355215"
             inkscape:connector-curvature="0" />
          <path
             sodipodi:nodetypes="cccccccccc"
             inkscape:connector-curvature="0"
             style="fill:#000000;fill-opacity:0.23166025"
             d="m 4.84375,1008.2685 2,3.4375 1.26225,2.6875 0,23.5625 1.475,0 0,-23.5625 1.26275,-2.6875 1.96875,-3.4375 L 8.84375,1008.2685 Z"
             id="path973" />
          <path
             inkscape:connector-curvature="0"
             id="path960"
             d="m 4.84375,1007.7823 2,3.4375 1.5625,2.6875 0,23.5625 0.875,0 0,-23.5625 1.5625,-2.6875 1.96875,-3.4375 -3.96875,0 L 4.84375,1007.7823 Z"
             style="fill:url(#linearGradient971);fill-opacity:1" />
        </g>
        <g
           id="g1020"
           transform="translate(-0.06540394,0)">
          <g
             id="g1010">
            <rect
               style="opacity:0.347;fill:#000000;fill-opacity:1"
               id="rect942"
               width="7.125"
               height="8.875"
               x="5"
               y="1029.2372"
               ry="1.0695438" />
            <rect
               ry="1.0318838"
               y="1029.3934"
               x="5.140625"
               height="8.5625"
               width="6.84375"
               id="rect944"
               style="fill:url(#linearGradient952);fill-opacity:1" />
            <path
               style="fill:#ffffff;stroke:none"
               d="m 7.0036426,1031.0217 0,1.0973 1.6459987,1.5427 -1.6589084,1.504 0,1.1619 L 10.134267,1033.6746 Z"
               id="path3767"
               inkscape:connector-curvature="0"
               sodipodi:nodetypes="ccccccc" />
          </g>
          <g
             id="g1015">
            <rect
               ry="1.0695438"
               y="1029.2372"
               x="-20.787058"
               height="8.875"
               width="7.125"
               id="rect1002"
               style="opacity:0.347;fill:#000000;fill-opacity:1"
               transform="scale(-1,1)" />
            <rect
               style="fill:url(#linearGradient1008);fill-opacity:1"
               id="rect1004"
               width="6.84375"
               height="8.5625"
               x="-20.646433"
               y="1029.3934"
               ry="1.0318838"
               transform="scale(-1,1)" />
            <path
               sodipodi:nodetypes="ccccccc"
               inkscape:connector-curvature="0"
               id="path1006"
               d="m 18.783415,1031.0217 0,1.0973 -1.645998,1.5427 1.658908,1.504 0,1.1619 L 15.652791,1033.6746 Z"
               style="fill:#ffffff;stroke:none" />
          </g>
        </g>
      </g>
      <g
         id="g1047"
         transform="matrix(1.045902,0,0,1.045902,-34.399041,-41.805591)">
        <g
           transform="translate(4,13.984283)"
           id="g1049">
          <path
             inkscape:connector-curvature="0"
             style="fill:#000000;fill-opacity:0.12355215"
             d="m 4.84375,1008.6904 2,3.4375 1.5625,2.6875 0,23.5625 0.875,0 0,-23.5625 1.5625,-2.6875 1.96875,-3.4375 -3.96875,0 L 4.84375,1008.6904 Z"
             id="path1051" />
          <path
             id="path1053"
             d="m 4.84375,1008.2685 2,3.4375 1.26225,2.6875 0,23.5625 1.475,0 0,-23.5625 1.26275,-2.6875 1.96875,-3.4375 L 8.84375,1008.2685 Z"
             style="fill:#000000;fill-opacity:0.23166025"
             inkscape:connector-curvature="0"
             sodipodi:nodetypes="cccccccccc" />
          <path
             style="fill:url(#linearGradient1075);fill-opacity:1"
             d="m 4.84375,1007.7823 2,3.4375 1.5625,2.6875 0,23.5625 0.875,0 0,-23.5625 1.5625,-2.6875 1.96875,-3.4375 -3.96875,0 L 4.84375,1007.7823 Z"
             id="path1055"
             inkscape:connector-curvature="0" />
        </g>
        <g
           transform="translate(-0.06540394,0)"
           id="g1057">
          <g
             id="g1059">
            <rect
               ry="1.0695438"
               y="1029.2372"
               x="5"
               height="8.875"
               width="7.125"
               id="rect1061"
               style="opacity:0.347;fill:#000000;fill-opacity:1" />
            <rect
               style="fill:url(#linearGradient1077);fill-opacity:1"
               id="rect1063"
               width="6.84375"
               height="8.5625"
               x="5.140625"
               y="1029.3934"
               ry="1.0318838" />
            <path
               sodipodi:nodetypes="ccccccc"
               inkscape:connector-curvature="0"
               id="path1065"
               d="m 7.0036426,1031.0217 0,1.0973 1.6459987,1.5427 -1.6589084,1.504 0,1.1619 L 10.134267,1033.6746 Z"
               style="fill:#ffffff;stroke:none" />
          </g>
          <g
             id="g1067">
            <rect
               transform="scale(-1,1)"
               style="opacity:0.347;fill:#000000;fill-opacity:1"
               id="rect1069"
               width="7.125"
               height="8.875"
               x="-20.787058"
               y="1029.2372"
               ry="1.0695438" />
            <rect
               transform="scale(-1,1)"
               ry="1.0318838"
               y="1029.3934"
               x="-20.646433"
               height="8.5625"
               width="6.84375"
               id="rect1071"
               style="fill:url(#linearGradient1079);fill-opacity:1" />
            <path
               style="fill:#ffffff;stroke:none"
               d="m 18.783415,1031.0217 0,1.0973 -1.645998,1.5427 1.658908,1.504 0,1.1619 L 15.652791,1033.6746 Z"
               id="path1073"
               inkscape:connector-curvature="0"
               sodipodi:nodetypes="ccccccc" />
          </g>
        </g>
      </g>
      <rect
         ry="1.25"
         y="1044.9872"
         x="-53.892925"
         height="5.375"
         width="17.75"
         id="rect1111"
         style="fill:#000000;fill-opacity:0.74903475;stroke:none" />
      <rect
         style="fill:#000000;fill-opacity:0.74903475;stroke:none"
         id="rect1141"
         width="17.75"
         height="5.375"
         x="-29.85708"
         y="1044.9872"
         ry="1.25" />
      <g
         id="text1143"
         style="font-size:3.4125123px;font-style:normal;font-variant:normal;font-weight:normal;font-stretch:normal;text-align:start;line-height:125%;letter-spacing:0px;word-spacing:0px;writing-mode:lr-tb;text-anchor:start;fill:#ffffff;fill-opacity:1;stroke:none;font-family:Helvetica Neue;-inkscape-font-specification:Helvetica Neue"
         transform="translate(-56.999998,6.5000095)">
        <path
           id="path1152"
           d="m 5.4797198,1041.1763 c 0,0.5324 0.047775,1.2285 0.8053529,1.2285 0.7575778,0 0.8053529,-0.6961 0.8053529,-1.2285 0,-0.5357 -0.047775,-1.2319 -0.8053529,-1.2319 C 5.527495,1039.9444 5.4797198,1040.6406 5.4797198,1041.1763 z m 0.3071261,0 c 0,-0.3583 0.00341,-0.9725 0.4982268,-0.9725 0.4948143,0 0.4982268,0.6142 0.4982268,0.9725 0,0.3618 -0.00341,0.976 -0.4982268,0.976 C 5.7902584,1042.1489 5.7868459,1041.5347 5.7868459,1041.1729 Z"
           inkscape:connector-curvature="0" />
        <path
           id="path1154"
           d="m 7.3792628,1041.1763 c 0,0.5324 0.047775,1.2285 0.8053529,1.2285 0.7575777,0 0.8053529,-0.6961 0.8053529,-1.2285 0,-0.5357 -0.047775,-1.2319 -0.8053529,-1.2319 C 7.4270379,1039.9444 7.3792628,1040.6406 7.3792628,1041.1763 z m 0.3071261,0 c 0,-0.3583 0.00341,-0.9725 0.4982268,-0.9725 0.4948142,0 0.4982268,0.6142 0.4982268,0.9725 0,0.3618 -0.00341,0.976 -0.4982268,0.976 C 7.6898014,1042.1489 7.6863889,1041.5347 7.6863889,1041.1729 Z"
           inkscape:connector-curvature="0" />
        <path
           id="path1156"
           d="m 9.4187187,1042.3639 0.3787889,0 0,-0.3788 -0.3787889,0 L 9.4187187,1042.3639 z m 0.3787889,-1.7643 -0.3787889,0 0,0.3788 0.3787889,0 L 9.7975076,1040.5996 Z"
           inkscape:connector-curvature="0" />
        <path
           id="path1158"
           d="m 10.522133,1040.801 c -0.01024,-0.2901 0.133088,-0.6006 0.470927,-0.6006 0.255938,0 0.467514,0.174 0.467514,0.4368 0,0.3344 -0.208163,0.4845 -0.617665,0.7371 -0.341251,0.2115 -0.631314,0.4163 -0.67909,0.9896 l 1.579994,0 0,-0.2559 -1.242155,0 c 0.05801,-0.3003 0.375377,-0.4539 0.67909,-0.6382 0.300301,-0.1877 0.586952,-0.4027 0.586952,-0.8292 0,-0.4505 -0.334426,-0.6962 -0.757577,-0.6962 -0.511877,0 -0.801941,0.3652 -0.778053,0.8566 L 10.522133,1040.801 Z"
           inkscape:connector-curvature="0" />
        <path
           id="path1160"
           d="m 12.421676,1040.801 c -0.01024,-0.2901 0.133088,-0.6006 0.470927,-0.6006 0.255938,0 0.467514,0.174 0.467514,0.4368 0,0.3344 -0.208163,0.4845 -0.617665,0.7371 -0.341251,0.2115 -0.631315,0.4163 -0.67909,0.9896 l 1.579993,0 0,-0.2559 -1.242154,0 c 0.05801,-0.3003 0.375376,-0.4539 0.67909,-0.6382 0.300301,-0.1877 0.586952,-0.4027 0.586952,-0.8292 0,-0.4505 -0.334426,-0.6962 -0.757578,-0.6962 -0.511876,0 -0.80194,0.3652 -0.778052,0.8566 L 12.421676,1040.801 Z"
           inkscape:connector-curvature="0" />
        <path
           id="path1162"
           d="m 14.164244,1042.3639 0.378789,0 0,-0.3788 -0.378789,0 L 14.164244,1042.3639 z m 0.378789,-1.7643 -0.378789,0 0,0.3788 0.378789,0 L 14.543033,1040.5996 Z"
           inkscape:connector-curvature="0" />
        <path
           id="path1164"
           d="m 16.431325,1039.9854 -1.194379,0 -0.225226,1.2558 0.249113,0.014 c 0.112613,-0.1365 0.266176,-0.2286 0.450452,-0.2286 0.324188,0 0.546002,0.2286 0.546002,0.5494 0,0.3856 -0.235464,0.5733 -0.511877,0.5733 -0.290064,0 -0.491402,-0.1877 -0.508464,-0.4368 l -0.290064,0 c 0.01024,0.4368 0.351489,0.6927 0.771228,0.6927 0.563064,0 0.846303,-0.3958 0.846303,-0.8053 0,-0.5528 -0.351489,-0.8293 -0.781465,-0.8293 -0.163801,0 -0.344664,0.055 -0.450452,0.1741 l -0.0068,-0.01 0.129675,-0.6962 0.975979,0 L 16.431325,1039.9854 Z"
           inkscape:connector-curvature="0" />
        <path
           id="path1166"
           d="m 18.15683,1039.9444 -0.232051,0 -1.102242,1.5732 0,0.2798 1.061292,0 0,0.5665 0.273001,0 0,-0.5665 0.327601,0 0,-0.2559 -0.327601,0 L 18.15683,1039.9444 z m -1.085179,1.5971 0.805353,-1.1842 0.0068,0 0,1.1842 L 17.071651,1041.5415 Z"
           inkscape:connector-curvature="0" />
      </g>
      <g
         id="text1147"
         style="font-size:3.4125123px;font-style:normal;font-variant:normal;font-weight:normal;font-stretch:normal;text-align:start;line-height:125%;letter-spacing:0px;word-spacing:0px;writing-mode:lr-tb;text-anchor:start;fill:#ffffff;fill-opacity:1;stroke:none;font-family:Helvetica Neue;-inkscape-font-specification:Helvetica Neue"
         transform="translate(-56.999998,6.5000095)">
        <path
           id="path1169"
           d="m 29.515564,1041.1763 c 0,0.5324 0.04777,1.2285 0.805353,1.2285 0.757577,0 0.805352,-0.6961 0.805352,-1.2285 0,-0.5357 -0.04778,-1.2319 -0.805352,-1.2319 C 29.563339,1039.9444 29.515564,1040.6406 29.515564,1041.1763 z m 0.307126,0 c 0,-0.3583 0.0034,-0.9725 0.498227,-0.9725 0.494814,0 0.498226,0.6142 0.498226,0.9725 0,0.3618 -0.0034,0.976 -0.498226,0.976 C 29.826102,1042.1489 29.82269,1041.5347 29.82269,1041.1729 Z"
           inkscape:connector-curvature="0" />
        <path
           id="path1171"
           d="m 31.415107,1041.1763 c 0,0.5324 0.04778,1.2285 0.805353,1.2285 0.757577,0 0.805352,-0.6961 0.805352,-1.2285 0,-0.5357 -0.04778,-1.2319 -0.805352,-1.2319 C 31.462882,1039.9444 31.415107,1040.6406 31.415107,1041.1763 z m 0.307126,0 c 0,-0.3583 0.0034,-0.9725 0.498227,-0.9725 0.494814,0 0.498226,0.6142 0.498226,0.9725 0,0.3618 -0.0034,0.976 -0.498226,0.976 C 31.725645,1042.1489 31.722233,1041.5347 31.722233,1041.1729 Z"
           inkscape:connector-curvature="0" />
        <path
           id="path1173"
           d="m 33.454563,1042.3639 0.378788,0 0,-0.3788 -0.378788,0 L 33.454563,1042.3639 z m 0.378788,-1.7643 -0.378788,0 0,0.3788 0.378788,0 L 33.833351,1040.5996 Z"
           inkscape:connector-curvature="0" />
        <path
           id="path1175"
           d="m 35.547606,1039.9444 -0.232051,0 -1.102242,1.5732 0,0.2798 1.061292,0 0,0.5665 0.273001,0 0,-0.5665 0.327601,0 0,-0.2559 -0.327601,0 L 35.547606,1039.9444 z m -1.085179,1.5971 0.805353,-1.1842 0.0068,0 0,1.1842 L 34.462427,1041.5415 Z"
           inkscape:connector-curvature="0" />
        <path
           id="path1177"
           d="m 37.621187,1039.9854 -1.19438,0 -0.225225,1.2558 0.249113,0.014 c 0.112613,-0.1365 0.266176,-0.2286 0.450452,-0.2286 0.324188,0 0.546002,0.2286 0.546002,0.5494 0,0.3856 -0.235464,0.5733 -0.511877,0.5733 -0.290064,0 -0.491402,-0.1877 -0.508465,-0.4368 l -0.290063,0 c 0.01024,0.4368 0.351489,0.6927 0.771228,0.6927 0.563064,0 0.846303,-0.3958 0.846303,-0.8053 0,-0.5528 -0.351489,-0.8293 -0.781466,-0.8293 -0.1638,0 -0.344663,0.055 -0.450451,0.1741 l -0.0068,-0.01 0.129675,-0.6962 0.975979,0 L 37.621187,1039.9854 Z"
           inkscape:connector-curvature="0" />
        <path
           id="path1179"
           d="m 38.200088,1042.3639 0.378789,0 0,-0.3788 -0.378789,0 L 38.200088,1042.3639 z m 0.378789,-1.7643 -0.378789,0 0,0.3788 0.378789,0 L 38.578877,1040.5996 Z"
           inkscape:connector-curvature="0" />
        <path
           id="path1181"
           d="m 40.078142,1039.9444 -0.221813,0 c -0.06484,0.3652 -0.365139,0.4539 -0.696153,0.4539 l 0,0.232 0.627903,0 0,1.7336 0.290063,0 L 40.078142,1039.9444 Z"
           inkscape:connector-curvature="0" />
        <path
           id="path1183"
           d="m 42.192673,1039.9444 -0.23205,0 -1.102242,1.5732 0,0.2798 1.061291,0 0,0.5665 0.273001,0 0,-0.5665 0.327602,0 0,-0.2559 -0.327602,0 L 42.192673,1039.9444 z m -1.085179,1.5971 0.805353,-1.1842 0.0068,0 0,1.1842 L 41.107494,1041.5415 Z"
           inkscape:connector-curvature="0" />
      </g>
    </g>
    <path
       inkscape:connector-curvature="0"
       style="color:#000000;fill:#000000;fill-opacity:1;fill-rule:nonzero;stroke:none;stroke-width:0.2;marker:none;visibility:visible;display:inline;overflow:visible;enable-background:accumulate"
       d="m 1.7500001,1044.1747 0,0.5625 c 0,3.2445 2.599225,5.875 5.84375,5.875 l 32.8124999,0 c 3.244525,0 5.84375,-2.6305 5.84375,-5.875 l 0,-0.5625 c 0,3.2445 -2.599225,5.875 -5.84375,5.875 l -32.8124999,0 C 4.3492251,1050.0497 1.7500001,1047.4192 1.7500001,1044.1747 Z"
       id="path6388" />
    <path
       id="path6361"
       d="m 1.7500001,1012.5497 0,-0.5625 c 0,-3.2445 2.599225,-5.875 5.84375,-5.875 l 32.8124999,0 c 3.244525,0 5.84375,2.6305 5.84375,5.875 l 0,0.5625 c 0,-3.2445 -2.599225,-5.875 -5.84375,-5.875 l -32.8124999,0 C 4.3492251,1006.6747 1.7500001,1009.3052 1.7500001,1012.5497 Z"
       style="color:#000000;fill:#ffffff;fill-opacity:1;fill-rule:nonzero;stroke:none;stroke-width:0.2;marker:none;visibility:visible;display:inline;overflow:visible;enable-background:accumulate"
       inkscape:connector-curvature="0" />
  </g>
</svg>
