<?xml version="1.0" encoding="UTF-8" standalone="no"?>
<!-- Created with Inkscape (http://www.inkscape.org/) -->

<svg
   xmlns:dc="http://purl.org/dc/elements/1.1/"
   xmlns:cc="http://creativecommons.org/ns#"
   xmlns:rdf="http://www.w3.org/1999/02/22-rdf-syntax-ns#"
   xmlns:svg="http://www.w3.org/2000/svg"
   xmlns="http://www.w3.org/2000/svg"
   xmlns:xlink="http://www.w3.org/1999/xlink"
   xmlns:sodipodi="http://sodipodi.sourceforge.net/DTD/sodipodi-0.dtd"
   xmlns:inkscape="http://www.inkscape.org/namespaces/inkscape"
   width="48"
   height="48"
   id="svg2"
   version="1.1"
   inkscape:version="0.48+devel r12112"
   sodipodi:docname="baobab.svg">
  <defs
     id="defs4">
    <linearGradient
       inkscape:collect="always"
       id="linearGradient877">
      <stop
         style="stop-color:#f4f4f6;stop-opacity:1"
         offset="0"
         id="stop879" />
      <stop
         style="stop-color:#f5f7f6;stop-opacity:1"
         offset="1"
         id="stop881" />
    </linearGradient>
    <linearGradient
       inkscape:collect="always"
       xlink:href="#linearGradient907"
       id="linearGradient901"
       x1="27.400389"
       y1="1034.2426"
       x2="27.400389"
       y2="1021.4263"
       gradientUnits="userSpaceOnUse"
       gradientTransform="matrix(0.98452516,0,0,0.95546598,0.37139707,45.771807)" />
    <linearGradient
       id="linearGradient907"
       inkscape:collect="always">
      <stop
         id="stop909"
         offset="0"
         style="stop-color:#d0d0d0;stop-opacity:1" />
      <stop
         id="stop911"
         offset="1"
         style="stop-color:#d5d5d5;stop-opacity:1" />
    </linearGradient>
    <linearGradient
       inkscape:collect="always"
       xlink:href="#linearGradient895"
       id="linearGradient905"
       gradientUnits="userSpaceOnUse"
       gradientTransform="matrix(0.66426602,0,0,0.95546598,1.7451161,45.77181)"
       x1="27.400389"
       y1="1034.2426"
       x2="27.400389"
       y2="1021.4263" />
    <linearGradient
       inkscape:collect="always"
       id="linearGradient895">
      <stop
         style="stop-color:#a02a18;stop-opacity:1"
         offset="0"
         id="stop897" />
      <stop
         style="stop-color:#ee8970;stop-opacity:1"
         offset="1"
         id="stop899" />
    </linearGradient>
    <linearGradient
       inkscape:collect="always"
       xlink:href="#linearGradient920"
       id="linearGradient926"
       x1="24.218407"
       y1="15.82664"
       x2="24.218407"
       y2="18.655069"
       gradientUnits="userSpaceOnUse"
       gradientTransform="translate(0,1004.3622)" />
    <linearGradient
       inkscape:collect="always"
       id="linearGradient920">
      <stop
         style="stop-color:#000000;stop-opacity:1;"
         offset="0"
         id="stop922" />
      <stop
         style="stop-color:#000000;stop-opacity:0;"
         offset="1"
         id="stop924" />
    </linearGradient>
    <linearGradient
       inkscape:collect="always"
       xlink:href="#linearGradient877"
       id="linearGradient4118"
       x1="24.088388"
       y1="1050.5238"
       x2="24.088388"
       y2="1005.9116"
       gradientUnits="userSpaceOnUse" />
  </defs>
  <sodipodi:namedview
     id="base"
     pagecolor="#ffffff"
     bordercolor="#666666"
     borderopacity="1.0"
     inkscape:pageopacity="0.0"
     inkscape:pageshadow="2"
     inkscape:zoom="5.6568542"
     inkscape:cx="-26.285039"
     inkscape:cy="27.034092"
     inkscape:document-units="px"
     inkscape:current-layer="layer1"
     showgrid="false"
     inkscape:window-width="1366"
     inkscape:window-height="718"
     inkscape:window-x="0"
     inkscape:window-y="28"
     inkscape:window-maximized="1" />
  <metadata
     id="metadata7">
    <rdf:RDF>
      <cc:Work
         rdf:about="">
        <dc:format>image/svg+xml</dc:format>
        <dc:type
           rdf:resource="http://purl.org/dc/dcmitype/StillImage" />
        <dc:title />
      </cc:Work>
    </rdf:RDF>
  </metadata>
  <g
     inkscape:label="Capa 1"
     inkscape:groupmode="layer"
     id="layer1"
     transform="translate(0,-1004.3622)">
    <rect
       style="color:#000000;fill:#333333;fill-opacity:1;fill-rule:nonzero;stroke:none;stroke-width:0.2;marker:none;visibility:visible;display:inline;overflow:visible;enable-background:accumulate"
       id="rect6294"
       width="45.5"
       height="45.5"
       x="1.25"
       y="1005.6122"
       ry="6.3565426" />
    <rect
       ry="5.8565426"
       y="1006.1122"
       x="1.75"
       height="44.5"
       width="44.5"
       id="rect6296"
       style="color:#000000;fill:url(#linearGradient4118);fill-opacity:1;fill-rule:nonzero;stroke:none;stroke-width:0.2;marker:none;visibility:visible;display:inline;overflow:visible;enable-background:accumulate" />
    <path
       id="path6361"
       d="m 1.75,1012.5497 0,-0.5625 c 0,-3.2445 2.5992251,-5.875 5.84375,-5.875 l 32.8125,0 c 3.244525,0 5.84375,2.6305 5.84375,5.875 l 0,0.5625 c 0,-3.2445 -2.599225,-5.875 -5.84375,-5.875 l -32.8125,0 C 4.3492251,1006.6747 1.75,1009.3052 1.75,1012.5497 Z"
       style="color:#000000;fill:#ffffff;fill-opacity:1;fill-rule:nonzero;stroke:none;stroke-width:0.2;marker:none;visibility:visible;display:inline;overflow:visible;enable-background:accumulate"
       inkscape:connector-curvature="0" />
    <path
       inkscape:connector-curvature="0"
       style="color:#000000;fill:#000000;fill-opacity:1;fill-rule:nonzero;stroke:none;stroke-width:0.2;marker:none;visibility:visible;display:inline;overflow:visible;enable-background:accumulate"
       d="m 1.75,1044.1747 0,0.5625 c 0,3.2445 2.5992251,5.875 5.84375,5.875 l 32.8125,0 c 3.244525,0 5.84375,-2.6305 5.84375,-5.875 l 0,-0.5625 c 0,3.2445 -2.599225,5.875 -5.84375,5.875 l -32.8125,0 C 4.3492251,1050.0497 1.75,1047.4192 1.75,1044.1747 Z"
       id="path6388" />
    <g
       id="g1000"
       transform="matrix(0.97571082,0,0,0.97571082,0.58294032,24.646047)">
      <g
         transform="translate(0,0.1893308)"
         id="g951">
        <rect
           style="color:#000000;fill:#000000;fill-opacity:0.02484472;fill-rule:nonzero;stroke:none;stroke-width:0.2;marker:none;visibility:visible;display:inline;overflow:visible;enable-background:accumulate"
           id="rect889"
           width="39.421204"
           height="12.904698"
           x="4.2893982"
           y="1022.478"
           ry="6.4523492" />
        <rect
           ry="6.4523492"
           y="1022.0992"
           x="4.2893982"
           height="12.904698"
           width="39.421204"
           id="rect887"
           style="color:#000000;fill:#000000;fill-opacity:0.0559006;fill-rule:nonzero;stroke:none;stroke-width:0.2;marker:none;visibility:visible;display:inline;overflow:visible;enable-background:accumulate" />
        <rect
           style="color:#000000;fill:#000000;fill-opacity:0.18012426;fill-rule:nonzero;stroke:none;stroke-width:0.2;marker:none;visibility:visible;display:inline;overflow:visible;enable-background:accumulate"
           id="rect885"
           width="39.421204"
           height="12.904698"
           x="4.2893982"
           y="1021.7205"
           ry="6.4523492" />
      </g>
      <g
         transform="translate(0,0.56817601)"
         id="g956">
        <rect
           ry="6.4523492"
           y="1021.3417"
           x="4.2893982"
           height="12.904698"
           width="39.421204"
           id="rect891"
           style="color:#000000;fill:#ffffff;fill-opacity:1;fill-rule:nonzero;stroke:none;stroke-width:0.2;marker:none;visibility:visible;display:inline;overflow:visible;enable-background:accumulate" />
        <rect
           style="color:#000000;fill:url(#linearGradient901);fill-opacity:1;fill-rule:nonzero;stroke:none;stroke-width:0.2;marker:none;visibility:visible;display:inline;overflow:visible;enable-background:accumulate"
           id="rect893"
           width="38.811165"
           height="12.33"
           x="4.5944176"
           y="1021.629"
           ry="6.165" />
        <path
           style="color:#000000;fill:url(#linearGradient905);fill-opacity:1;fill-rule:nonzero;stroke:none;stroke-width:0.2;marker:none;visibility:visible;display:inline;overflow:visible;enable-background:accumulate"
           d="m 10.75,1021.6434 c -3.41541,0 -6.15625,2.7409 -6.15625,6.1563 0,3.4154 2.74084,6.1562 6.15625,6.1562 l 13.875,0 c 0.298535,0 0.58803,-0.022 0.875,-0.062 l 0,-12.1875 c -0.28697,-0.041 -0.576465,-0.062 -0.875,-0.062 L 10.75,1021.6434 Z"
           id="rect903"
           inkscape:connector-curvature="0" />
        <path
           style="opacity:0.5;color:#000000;fill:url(#linearGradient926);fill-opacity:1;fill-rule:nonzero;stroke:none;stroke-width:0.2;marker:none;visibility:visible;display:inline;overflow:visible;enable-background:accumulate"
           d="m 10.75,1021.6434 c -1.5416131,0 -2.9213111,0.54 -4,1.4688 l 34.5,0 c -1.078689,-0.9288 -2.458387,-1.4688 -4,-1.4688 L 10.75,1021.6434 Z"
           id="rect913"
           inkscape:connector-curvature="0" />
      </g>
      <g
         transform="translate(-0.89044556,-0.62498262)"
         id="g935">
        <rect
           style="opacity:0.5;color:#000000;fill:#000000;fill-opacity:1;fill-rule:nonzero;stroke:none;stroke-width:0.2;marker:none;visibility:visible;display:inline;overflow:visible;enable-background:accumulate"
           id="rect931"
           width="0.17233495"
           height="22.5"
           x="10.890446"
           y="1017.7372"
           ry="0" />
        <rect
           ry="0"
           y="1017.7372"
           x="10.71811"
           height="22.5"
           width="0.17233495"
           id="rect933"
           style="opacity:0.25;color:#000000;fill:#ffffff;fill-opacity:0.5372549;fill-rule:nonzero;stroke:none;stroke-width:0.2;marker:none;visibility:visible;display:inline;overflow:visible;enable-background:accumulate" />
      </g>
      <g
         id="g939"
         transform="translate(13.109555,-0.62498262)">
        <rect
           ry="0"
           y="1017.7372"
           x="10.890446"
           height="22.5"
           width="0.17233495"
           id="rect941"
           style="opacity:0.5;color:#000000;fill:#000000;fill-opacity:1;fill-rule:nonzero;stroke:none;stroke-width:0.2;marker:none;visibility:visible;display:inline;overflow:visible;enable-background:accumulate" />
        <rect
           style="opacity:0.25;color:#000000;fill:#ffffff;fill-opacity:0.5372549;fill-rule:nonzero;stroke:none;stroke-width:0.2;marker:none;visibility:visible;display:inline;overflow:visible;enable-background:accumulate"
           id="rect943"
           width="0.17233495"
           height="22.5"
           x="10.71811"
           y="1017.7372"
           ry="0" />
      </g>
      <g
         transform="translate(27.109555,-0.62498262)"
         id="g945">
        <rect
           style="opacity:0.5;color:#000000;fill:#000000;fill-opacity:1;fill-rule:nonzero;stroke:none;stroke-width:0.2;marker:none;visibility:visible;display:inline;overflow:visible;enable-background:accumulate"
           id="rect947"
           width="0.17233495"
           height="22.5"
           x="10.890446"
           y="1017.7372"
           ry="0" />
        <rect
           ry="0"
           y="1017.7372"
           x="10.71811"
           height="22.5"
           width="0.17233495"
           id="rect949"
           style="opacity:0.25;color:#000000;fill:#ffffff;fill-opacity:0.5372549;fill-rule:nonzero;stroke:none;stroke-width:0.2;marker:none;visibility:visible;display:inline;overflow:visible;enable-background:accumulate" />
      </g>
      <path
         inkscape:connector-curvature="0"
         style="font-size:2.62429023px;font-style:normal;font-variant:normal;font-weight:normal;font-stretch:normal;line-height:125%;letter-spacing:0px;word-spacing:0px;fill:#000000;fill-opacity:1;stroke:none;font-family:Helvetica;-inkscape-font-specification:Helvetica"
         d="m 9.78125,8 c 0,0.088949 -0.028204,0.1583867 -0.09375,0.21875 -0.081937,0.074656 -0.2074851,0.125 -0.375,0.125 l -0.0625,0 0,0.25 0.46875,0 0,1.34375 0.375,0 0,-1.9375 L 9.78125,8 z m 1.5625,0 c -0.229422,0 -0.390751,0.08799 -0.5,0.25 -0.107428,0.1602751 -0.1875,0.4095369 -0.1875,0.75 0,0.3386591 0.07825,0.586117 0.1875,0.75 0.111069,0.162079 0.272398,0.25 0.5,0.25 0.229422,0 0.390751,-0.087921 0.5,-0.25 C 11.952999,9.5879904 12,9.3405325 12,9 12,8.6595369 11.95482,8.4102751 11.84375,8.25 11.734501,8.0879904 11.573173,8 11.34375,8 z m 1.5,0 c -0.229423,0 -0.390751,0.08799 -0.5,0.25 C 12.236322,8.4102751 12.1875,8.6595369 12.1875,9 c 0,0.3386591 0.047,0.586117 0.15625,0.75 0.11107,0.162079 0.303648,0.25 0.53125,0.25 0.229423,0 0.390751,-0.087921 0.5,-0.25 C 13.484249,9.5879904 13.53125,9.3405325 13.53125,9 13.53125,8.6595369 13.48607,8.4102751 13.375,8.25 13.265751,8.0879904 13.073172,8 12.84375,8 z m -1.5,0.3125 c 0.107431,0 0.178695,0.054257 0.21875,0.15625 C 11.60256,8.5706738 11.625,8.7450863 11.625,9 c 0,0.2567176 -0.02244,0.4292568 -0.0625,0.53125 C 11.52426,9.6332432 11.451178,9.6875 11.34375,9.6875 11.236319,9.6875 11.165055,9.633243 11.125,9.53125 11.086763,9.4274528 11.0625,9.2549137 11.0625,9 11.0625,8.7450863 11.08676,8.5706738 11.125,8.46875 11.165058,8.3667568 11.238143,8.3125 11.34375,8.3125 z m 1.5,0 c 0.107431,0 0.209945,0.054257 0.25,0.15625 C 13.133805,8.5706738 13.125,8.7450863 13.125,9 c 0,0.2567176 0.0088,0.4292568 -0.03125,0.53125 C 13.05551,9.6332432 12.982428,9.6875 12.875,9.6875 12.767569,9.6875 12.665055,9.633243 12.625,9.53125 12.586763,9.4274528 12.59375,9.2549137 12.59375,9 c 0,-0.2549137 -0.007,-0.4293262 0.03125,-0.53125 C 12.665058,8.3667568 12.738143,8.3125 12.84375,8.3125 Z"
         transform="matrix(0.96084813,0,0,0.96084813,0.93964492,1005.6423)"
         id="path1151" />
      <path
         inkscape:connector-curvature="0"
         style="font-size:2.62429023px;font-style:normal;font-variant:normal;font-weight:normal;font-stretch:normal;line-height:125%;letter-spacing:0px;word-spacing:0px;fill:#000000;fill-opacity:1;stroke:none;font-family:Helvetica;-inkscape-font-specification:Helvetica"
         d="m 25.90625,8 c -0.229422,0 -0.390751,0.08799 -0.5,0.25 C 25.298822,8.4102751 25.25,8.6595369 25.25,9 c 0,0.3386591 0.047,0.586117 0.15625,0.75 0.111069,0.162079 0.272398,0.25 0.5,0.25 0.229422,0 0.390751,-0.087921 0.5,-0.25 0.109249,-0.1620096 0.1875,-0.4094675 0.1875,-0.75 0,-0.3404631 -0.07643,-0.5897249 -0.1875,-0.75 C 26.297001,8.0879904 26.135673,8 25.90625,8 Z M 27.4375,8 C 27.208077,8 27.015499,8.0879904 26.90625,8.25 26.798822,8.4102751 26.75,8.6595369 26.75,9 c 0,0.3386591 0.07825,0.586117 0.1875,0.75 0.11107,0.162079 0.272398,0.25 0.5,0.25 0.229423,0 0.390751,-0.087921 0.5,-0.25 C 28.046749,9.5879904 28.09375,9.3405325 28.09375,9 28.09375,8.6595369 28.04857,8.4102751 27.9375,8.25 27.828251,8.0879904 27.666922,8 27.4375,8 Z M 23.90625,8.03125 23.75,9.09375 24.09375,9.125 C 24.128344,9.0652611 24.191732,9.0222026 24.25,9 c 0.02913,-0.011101 0.07402,-0.03125 0.125,-0.03125 0.09468,0 0.167767,0.052148 0.21875,0.125 0.0437,0.063763 0.0625,0.1241114 0.0625,0.21875 0,0.1075439 -0.04095,0.2139483 -0.09375,0.28125 -0.05098,0.067302 -0.12953,0.09375 -0.21875,0.09375 -0.08194,0 -0.141978,-0.016707 -0.1875,-0.0625 -0.04552,-0.047389 -0.0534,-0.1350045 -0.0625,-0.21875 l -0.375,0 c 0,0.1839347 0.05276,0.3318989 0.1875,0.4375 C 24.022782,9.9347807 24.172594,10 24.34375,10 c 0.254914,0 0.438684,-0.084313 0.5625,-0.25 0.09104,-0.122045 0.125,-0.2921699 0.125,-0.46875 0,-0.2057904 -0.0564,-0.3540597 -0.1875,-0.46875 -0.109249,-0.096512 -0.223872,-0.15625 -0.375,-0.15625 -0.08194,0 -0.155022,0.03891 -0.21875,0.0625 -0.04188,0.015958 -0.112552,0.031278 -0.15625,0.0625 l 0.09375,-0.4375 0.78125,0 0,-0.3125 L 23.90625,8.03125 z m 2,0.28125 c 0.107425,0 0.178688,0.054257 0.21875,0.15625 0.04005,0.1019238 0.0625,0.2763363 0.0625,0.53125 0,0.2567176 -0.02245,0.4292568 -0.0625,0.53125 C 26.08676,9.6332432 26.013678,9.6875 25.90625,9.6875 25.798819,9.6875 25.727555,9.633243 25.6875,9.53125 25.649263,9.4274528 25.625,9.2549137 25.625,9 25.625,8.7450863 25.64926,8.5706738 25.6875,8.46875 25.727558,8.3667568 25.800643,8.3125 25.90625,8.3125 z m 1.53125,0 c 0.107431,0 0.178695,0.054257 0.21875,0.15625 0.04006,0.1019238 0.0625,0.2763363 0.0625,0.53125 0,0.2567176 -0.02244,0.4292568 -0.0625,0.53125 C 27.61801,9.6332432 27.544928,9.6875 27.4375,9.6875 27.330069,9.6875 27.258805,9.633243 27.21875,9.53125 27.180513,9.4274528 27.15625,9.2549137 27.15625,9 c 0,-0.2549137 0.02426,-0.4293262 0.0625,-0.53125 C 27.258808,8.3667568 27.331893,8.3125 27.4375,8.3125 Z"
         transform="matrix(0.96084813,0,0,0.96084813,0.93964492,1005.6423)"
         id="path1144" />
      <path
         inkscape:connector-curvature="0"
         style="font-size:2.62429023px;font-style:normal;font-variant:normal;font-weight:normal;font-stretch:normal;line-height:125%;letter-spacing:0px;word-spacing:0px;fill:#000000;fill-opacity:1;stroke:none;font-family:Helvetica;-inkscape-font-specification:Helvetica"
         d="m 38.90625,8 c 0,0.088949 -0.0282,0.1583867 -0.09375,0.21875 -0.08194,0.074656 -0.207485,0.125 -0.375,0.125 l -0.03125,0 0,0.25 0.4375,0 0,1.34375 0.40625,0 L 39.21875,8 38.90625,8 z m 1.5625,0 c -0.229422,0 -0.390751,0.08799 -0.5,0.25 C 39.861322,8.4102751 39.8125,8.6595369 39.8125,9 c 0,0.3386591 0.047,0.586117 0.15625,0.75 0.111069,0.162079 0.272398,0.25 0.5,0.25 C 40.698172,10 40.890751,9.912079 41,9.75 41.109249,9.5879904 41.15625,9.3405325 41.15625,9 41.15625,8.6595369 41.11107,8.4102751 41,8.25 40.890751,8.0879904 40.698173,8 40.46875,8 Z M 42,8 C 41.770577,8 41.609249,8.08799 41.5,8.25 41.392572,8.4102751 41.34375,8.6595369 41.34375,9 c 0,0.3386591 0.047,0.586117 0.15625,0.75 C 41.61107,9.912079 41.772398,10 42,10 42.229423,10 42.390751,9.912079 42.5,9.75 42.609249,9.5879904 42.6875,9.3405325 42.6875,9 42.6875,8.6595369 42.61107,8.4102751 42.5,8.25 42.390751,8.0879904 42.229422,8 42,8 z m 1.53125,0 C 43.301828,8 43.109249,8.0879904 43,8.25 42.892572,8.4102751 42.84375,8.6595369 42.84375,9 c 0,0.3386591 0.047,0.586117 0.15625,0.75 0.111069,0.162079 0.303648,0.25 0.53125,0.25 0.229422,0 0.390751,-0.087921 0.5,-0.25 C 44.140499,9.5879904 44.1875,9.3405325 44.1875,9 44.1875,8.6595369 44.14232,8.4102751 44.03125,8.25 43.922001,8.0879904 43.760673,8 43.53125,8 z m -3.0625,0.3125 c 0.107425,0 0.178688,0.054257 0.21875,0.15625 C 40.727555,8.5706738 40.75,8.7450863 40.75,9 40.75,9.2567176 40.72756,9.4292568 40.6875,9.53125 40.649263,9.6332432 40.576178,9.6875 40.46875,9.6875 40.361325,9.6875 40.290062,9.6332432 40.25,9.53125 40.211763,9.4274528 40.21875,9.2549137 40.21875,9 40.21875,8.7450863 40.21175,8.5706738 40.25,8.46875 40.290058,8.3667568 40.363143,8.3125 40.46875,8.3125 z m 1.53125,0 c 0.107431,0 0.178695,0.054257 0.21875,0.15625 0.04006,0.1019238 0.0625,0.2763363 0.0625,0.53125 0,0.2567176 -0.02244,0.4292568 -0.0625,0.53125 C 42.180513,9.6332432 42.107428,9.6875 42,9.6875 41.892569,9.6875 41.821305,9.6332432 41.78125,9.53125 41.743013,9.4274528 41.71875,9.2549137 41.71875,9 c 0,-0.2549137 0.02426,-0.4293262 0.0625,-0.53125 C 41.821308,8.3667568 41.894393,8.3125 42,8.3125 z m 1.53125,0 c 0.107425,0 0.178688,0.054257 0.21875,0.15625 0.04006,0.1019238 0.0625,0.2763363 0.0625,0.53125 0,0.2567176 -0.02244,0.4292568 -0.0625,0.53125 C 43.71176,9.6332432 43.638678,9.6875 43.53125,9.6875 43.423819,9.6875 43.352555,9.633243 43.3125,9.53125 43.274263,9.4274528 43.25,9.2549137 43.25,9 43.25,8.7450863 43.274263,8.5706738 43.3125,8.46875 43.352558,8.3667568 43.425643,8.3125 43.53125,8.3125 Z"
         transform="matrix(0.96084813,0,0,0.96084813,0.93964492,1005.6423)"
         id="path1135" />
      <path
         style="font-size:2.62429023px;font-style:normal;font-variant:normal;font-weight:normal;font-stretch:normal;line-height:125%;letter-spacing:0px;word-spacing:0px;fill:#000000;fill-opacity:1;stroke:none;font-family:Helvetica;-inkscape-font-specification:Helvetica"
         d="m 31.187268,1041.6741 0,1.8917 0.360318,0 0,-0.1802 c 0.04199,0.073 0.10318,0.1435 0.180159,0.1802 0.06648,0.031 0.156235,0.03 0.240212,0.03 0.195947,0 0.345426,-0.086 0.450398,-0.2402 0.09098,-0.1347 0.120106,-0.2988 0.120106,-0.5105 0,-0.2309 -0.06294,-0.411 -0.180159,-0.5404 -0.106722,-0.119 -0.22589,-0.1802 -0.390345,-0.1802 -0.08048,0 -0.173732,0.027 -0.240212,0.06 -0.06648,0.031 -0.120672,0.07 -0.180159,0.1501 l 0,-0.6606 L 31.187268,1041.6741 z m 7.836917,0 0,0.3003 0.09008,0 0,-0.3003 L 39.024185,1041.6741 z m 1.801591,0 0,0.3003 0.09008,0 0,-0.3003 L 40.825776,1041.6741 z m -16.484551,0.03 -0.69061,1.141 0,0.3003 0.750663,0 0,0.4204 0.360318,0 0,-0.4204 0.210186,0 0,-0.2702 -0.210186,0 0,-1.1711 L 24.341225,1041.7041 z m 1.411246,0 c -0.167955,0 -0.3119,0.027 -0.420371,0.1201 -0.108471,0.091 -0.150133,0.2347 -0.150133,0.3904 0,0.168 0.0915,0.2851 0.240212,0.3603 -0.120716,0.056 -0.226499,0.1282 -0.270238,0.2402 -0.02275,0.058 -0.03003,0.151 -0.03003,0.2402 0,0.1488 0.05391,0.2554 0.150133,0.3603 0.115469,0.1242 0.291759,0.2102 0.51045,0.2102 0.222191,0 0.393233,-0.097 0.510451,-0.2402 0.09098,-0.1102 0.120106,-0.2417 0.120106,-0.3903 0,-0.1156 -0.01107,-0.1968 -0.06005,-0.2703 -0.04199,-0.063 -0.113962,-0.1028 -0.210186,-0.1501 0.07523,-0.039 0.11514,-0.1175 0.150133,-0.1802 0.03499,-0.063 0.06005,-0.1244 0.06005,-0.2101 0,-0.1365 -0.04866,-0.2394 -0.150133,-0.3303 C 26.094397,1041.758 25.93792,1041.7041 25.752471,1041.7041 z m 1.531351,0 c -0.197696,0 -0.366704,0.063 -0.480424,0.1802 -0.09098,0.095 -0.145172,0.2241 -0.180159,0.3903 -0.02275,0.1085 -0.03003,0.2559 -0.03003,0.4204 0,0.2781 0.03613,0.4801 0.120106,0.6306 0.108471,0.1959 0.283297,0.3002 0.540477,0.3002 0.181951,0 0.338428,-0.056 0.450397,-0.1801 0.11197,-0.1242 0.150133,-0.3057 0.150133,-0.5105 0,-0.1522 -0.02563,-0.2801 -0.120106,-0.3903 -0.104972,-0.1208 -0.270196,-0.1802 -0.450398,-0.1802 -0.07348,0 -0.120672,0.01 -0.180159,0.03 -0.05774,0.023 -0.108145,0.062 -0.150132,0.1201 0,-0.1399 0.01631,-0.2675 0.06005,-0.3603 0.05248,-0.1102 0.131741,-0.1501 0.240212,-0.1501 0.06823,0 0.115146,0 0.150132,0.03 0.03499,0.032 0.05305,0.094 0.06005,0.1502 l 0.360318,0 c -0.01575,-0.093 -0.03558,-0.17 -0.06005,-0.2102 -0.02275,-0.045 -0.06587,-0.098 -0.120106,-0.1502 -0.04199,-0.042 -0.09093,-0.067 -0.180159,-0.09 C 27.401002,1041.7182 27.343309,1041.7041 27.283822,1041.7041 z m -1.501325,0.3003 c 0.06123,0 0.109892,0.016 0.150133,0.06 0.04199,0.042 0.06005,0.082 0.06005,0.1502 0,0.068 -0.01981,0.1361 -0.06005,0.1801 -0.03849,0.042 -0.0784,0.06 -0.150133,0.06 -0.07523,0 -0.136423,-0.014 -0.180159,-0.06 -0.04199,-0.047 -0.06005,-0.1188 -0.06005,-0.1801 0,-0.072 0.01807,-0.1102 0.06005,-0.1502 C 25.646077,1042.0224 25.70027,1042.0044 25.782497,1042.0044 z m -1.381219,0.06 0,0.8108 -0.480424,0 L 24.401278,1042.0644 z m 5.194585,0.06 c -0.108471,0 -0.196757,0.032 -0.270238,0.09 -0.04549,0.035 -0.07987,0.082 -0.120106,0.1501 l 0,-0.2102 -0.360318,0 0,1.4113 0.390344,0 0,-0.8408 c 0,-0.084 -0.005,-0.1615 0.03003,-0.2102 0.03674,-0.049 0.09968,-0.09 0.180159,-0.09 0.09797,0 0.178691,0.055 0.210185,0.1201 0.01749,0.035 0.03003,0.091 0.03003,0.1801 l 0,0.8408 0.360318,0 0,-0.8408 c 0,-0.089 0.02157,-0.1595 0.06005,-0.2102 0.04024,-0.051 0.09268,-0.09 0.180159,-0.09 0.06123,0 0.115139,0.046 0.150132,0.09 0.03674,0.042 0.06005,0.1123 0.06005,0.2102 l 0,0.8408 0.360318,0 0,-0.9609 c 0,-0.1486 -0.05916,-0.279 -0.150132,-0.3603 -0.09098,-0.082 -0.18858,-0.1201 -0.330292,-0.1201 -0.09622,0 -0.198508,0.032 -0.270238,0.09 -0.03325,0.026 -0.07287,0.085 -0.120106,0.1501 -0.05073,-0.078 -0.09415,-0.1448 -0.150133,-0.1801 C 29.78009,1042.1492 29.692087,1042.1245 29.595863,1042.1245 z m 5.164559,0.06 c -0.200751,0.01 -0.350449,0.068 -0.450398,0.2101 -0.09995,0.1436 -0.154403,0.3166 -0.150132,0.5105 -0.0017,0.1905 0.04931,0.3505 0.150132,0.4804 0.09995,0.1307 0.253063,0.2059 0.450398,0.2102 0.328891,-0.01 0.540732,-0.1616 0.60053,-0.4804 l -0.120106,0 c -0.05723,0.264 -0.215601,0.3869 -0.480424,0.3903 -0.165727,0 -0.278309,-0.056 -0.360318,-0.1801 -0.08457,-0.118 -0.121815,-0.2581 -0.120106,-0.4204 l 1.080954,0 c 0.01111,-0.2016 -0.02357,-0.3746 -0.120106,-0.5105 C 35.142606,1042.2563 34.972278,1042.188 34.760422,1042.1846 z m 1.351193,0 c -0.100803,0 -0.190792,0.031 -0.270239,0.09 -0.07859,0.057 -0.127922,0.1216 -0.150132,0.2102 l 0,-0.2702 -0.09008,0 0,1.3512 0.09008,0 0,-0.8107 c 0.0034,-0.1726 0.05786,-0.2801 0.150132,-0.3604 0.08799,-0.078 0.169436,-0.1201 0.270239,-0.1201 0.02477,0 0.05505,-0.01 0.09008,0 0.03332,0.01 0.08508,0.034 0.120106,0.06 0.03503,0.023 0.06616,0.042 0.09008,0.09 0.02477,0.051 0.03003,0.1248 0.03003,0.2102 l 0,0.9308 0.09008,0 0,-0.8107 c 0,-0.1624 0.03981,-0.2766 0.120106,-0.3604 0.07859,-0.085 0.177251,-0.1201 0.300265,-0.1201 0.02221,0 0.05506,-0.01 0.09008,0 0.03503,0.01 0.08508,0.036 0.120106,0.06 0.03844,0.023 0.06531,0.042 0.09008,0.09 0.02477,0.053 0.03003,0.1244 0.03003,0.2102 l 0,0.9308 0.09008,0 0,-0.9308 c -0.0017,-0.159 -0.01322,-0.2552 -0.09008,-0.3303 -0.07688,-0.072 -0.204715,-0.1201 -0.330291,-0.1201 -0.211857,0 -0.346905,0.1097 -0.420371,0.3002 -0.01281,-0.073 -0.05604,-0.152 -0.120106,-0.2102 -0.03331,-0.027 -0.07226,-0.044 -0.120106,-0.06 C 36.243081,1042.1992 36.176538,1042.1846 36.111615,1042.1846 z m 2.101855,0 c -0.323766,0 -0.491657,0.1531 -0.510451,0.4504 l 0.09008,0 c 0.02392,-0.2384 0.168364,-0.3587 0.420371,-0.3604 0.07859,0 0.130612,0.011 0.180159,0.03 0.04869,0.023 0.09363,0.031 0.120106,0.06 0.02819,0.03 0.04981,0.062 0.06005,0.09 0.0085,0.03 0,0.073 0,0.09 0,0.055 0.0051,0.088 0,0.1201 -0.0068,0.033 -0.03015,0.069 -0.06005,0.09 -0.05297,0.035 -0.175928,0.049 -0.390345,0.06 -0.02648,0 -0.06189,-0.01 -0.09008,0 -0.02819,0.01 -0.06104,0.024 -0.09008,0.03 -0.05809,0.012 -0.09973,0.03 -0.150132,0.06 -0.04955,0.028 -0.09021,0.071 -0.120106,0.1201 -0.03075,0.052 -0.06005,0.1006 -0.06005,0.1802 0.0017,0.1392 0.06473,0.2438 0.150132,0.3002 0.08372,0.058 0.170418,0.09 0.300265,0.09 0.128993,0 0.242302,-0.029 0.330292,-0.09 0.08543,-0.058 0.148552,-0.1298 0.180159,-0.2102 l 0,0.06 c -0.0017,0.057 0.0052,0.1153 0.03003,0.1501 0.0205,0.04 0.07325,0.06 0.150133,0.06 0.02648,0 0.06189,0.01 0.09008,0 l 0,-0.09 c -0.03161,0.01 -0.07214,0 -0.09008,0 -0.04186,0 -0.05151,-0.025 -0.06005,-0.06 -0.01025,-0.033 -0.0017,-0.049 0,-0.09 l 0,-0.7807 c -0.0017,-0.1358 -0.05363,-0.249 -0.150133,-0.3003 C 38.449792,1042.1959 38.336483,1042.1832 38.21347,1042.1846 z m 1.80159,0 c -0.106783,0 -0.181396,0.036 -0.270238,0.09 -0.08884,0.057 -0.173454,0.1371 -0.210186,0.2402 l 0,-0.3002 -0.09008,0 0,1.3512 0.09008,0 0,-0.7207 c 0,-0.1683 0.06214,-0.317 0.150133,-0.4203 0.08543,-0.1034 0.179941,-0.1485 0.330291,-0.1502 0.09141,0 0.186393,0 0.240212,0.03 0.05297,0.03 0.06787,0.072 0.09008,0.1201 0.02477,0.048 0.05322,0.1016 0.06005,0.1501 0.0034,0.051 0,0.084 0,0.1201 l 0,0.8708 0.09008,0 0,-0.8408 c 0,-0.043 0.0034,-0.088 0,-0.1501 -0.0068,-0.06 -0.03015,-0.1214 -0.06005,-0.1802 -0.02819,-0.06 -0.05348,-0.1101 -0.120106,-0.1501 C 40.249545,1042.2059 40.134655,1042.1859 40.01506,1042.1846 z m 1.80159,0 c -0.106783,0 -0.181395,0.036 -0.270238,0.09 -0.08884,0.057 -0.173452,0.1371 -0.210186,0.2402 l 0,-0.3002 -0.09008,0 0,1.3512 0.09008,0 0,-0.7207 c 0,-0.1683 0.06214,-0.317 0.150133,-0.4203 0.08543,-0.1034 0.179942,-0.1485 0.330291,-0.1502 0.09141,0 0.186393,0 0.240212,0.03 0.05297,0.03 0.06787,0.072 0.09008,0.1201 0.02477,0.048 0.05322,0.1016 0.06005,0.1501 0.0034,0.051 0,0.084 0,0.1201 l 0,0.8708 0.09008,0 0,-0.8408 c 0,-0.043 0.0034,-0.088 0,-0.1501 -0.0068,-0.06 -0.03015,-0.1214 -0.06005,-0.1802 -0.02819,-0.06 -0.05347,-0.1101 -0.120106,-0.1501 C 42.051136,1042.2059 41.936245,1042.1859 41.81665,1042.1846 z m 1.321167,0 c -0.188792,0.01 -0.352158,0.056 -0.450398,0.1801 -0.100803,0.1264 -0.150133,0.295 -0.150133,0.4804 0,0.1905 0.05446,0.3557 0.150133,0.4805 0.09653,0.1272 0.254772,0.1784 0.450398,0.1801 0.228942,0 0.383892,-0.095 0.480424,-0.3002 l 0,0.3002 c 0,0.023 0.0034,0.072 0,0.1201 -0.0068,0.051 -0.03015,0.092 -0.06005,0.1502 -0.0299,0.055 -0.0835,0.1116 -0.150133,0.1501 -0.06578,0.042 -0.152352,0.059 -0.270238,0.06 -0.113617,0 -0.191647,-0.01 -0.270239,-0.06 -0.0803,-0.052 -0.136464,-0.1531 -0.150133,-0.2702 l -0.120106,0 c 0.01025,0.152 0.08192,0.2653 0.180159,0.3302 0.09568,0.062 0.213386,0.09 0.360319,0.09 0.145223,0 0.249137,-0.011 0.330291,-0.06 0.0803,-0.047 0.145134,-0.1105 0.180159,-0.1802 0.03503,-0.07 0.05322,-0.1469 0.06005,-0.2102 0.0051,-0.063 0,-0.093 0,-0.1201 l 0,-1.2911 -0.09008,0 0,0.2702 c -0.03844,-0.1034 -0.09131,-0.1572 -0.180159,-0.2102 C 43.348384,1042.2226 43.246308,1042.1846 43.137817,1042.1846 z m -9.638508,0.03 0,1.3512 0.09008,0 0,-0.7507 c 0.006,-0.1 0.03615,-0.1538 0.06005,-0.2102 0.02307,-0.055 0.07141,-0.1321 0.120106,-0.1801 0.06321,-0.059 0.113524,-0.1002 0.180159,-0.1201 0.06493,-0.017 0.126344,-0.01 0.180159,0 l 0,-0.09 c -0.123867,-0.01 -0.235468,0 -0.330291,0.06 -0.09653,0.059 -0.151115,0.1486 -0.180159,0.2402 l -0.03003,0 0,-0.3002 L 33.499309,1042.2146 z m 5.524876,0 0,1.3512 0.09008,0 0,-1.3512 L 39.024185,1042.2146 z m 1.801591,0 0,1.3512 0.09008,0 0,-1.3512 L 40.825776,1042.2146 z m -6.065354,0.06 c 0.15633,0.01 0.274892,0.047 0.360318,0.1502 0.08372,0.1067 0.146715,0.2434 0.150132,0.3903 l -0.990874,0 c 0.01281,-0.1392 0.03639,-0.2501 0.120106,-0.3603 C 34.483822,1042.3446 34.610072,1042.2789 34.760422,1042.2746 z m 8.377395,0 c 0.166581,0.01 0.280017,0.071 0.360318,0.1802 0.0803,0.1119 0.120106,0.2331 0.120106,0.3903 0,0.1572 -0.0398,0.2802 -0.120106,0.3904 -0.0803,0.117 -0.193737,0.1775 -0.360318,0.1801 -0.157185,0 -0.27831,-0.034 -0.360319,-0.1501 -0.08286,-0.1102 -0.120106,-0.2598 -0.120106,-0.4204 0,-0.1503 0.03895,-0.275 0.120106,-0.3903 C 42.85609,1042.3395 42.975507,1042.2789 43.137817,1042.2746 z m -11.289966,0.1802 c 0.110222,0 0.185979,0.033 0.240212,0.1201 0.04549,0.073 0.09008,0.1761 0.09008,0.3003 0,0.105 -0.04809,0.1933 -0.09008,0.2702 -0.05423,0.1 -0.133491,0.1501 -0.240212,0.1501 -0.110218,0 -0.184225,-0.038 -0.240212,-0.1201 -0.04899,-0.072 -0.06005,-0.1565 -0.06005,-0.2702 0,-0.1312 0.01807,-0.255 0.06005,-0.3303 C 31.658376,1042.4822 31.732382,1042.4548 31.847851,1042.4548 z m -4.624082,0.2102 c 0.06823,0 0.131172,0.015 0.180159,0.06 0.05949,0.056 0.09008,0.1336 0.09008,0.2402 0,0.1208 -0.01106,0.2129 -0.06005,0.2703 -0.04724,0.058 -0.106679,0.09 -0.180159,0.09 -0.08923,0 -0.157699,-0.027 -0.210186,-0.09 -0.05249,-0.065 -0.09008,-0.1671 -0.09008,-0.2703 0,-0.1082 0.03059,-0.1822 0.09008,-0.2402 C 27.092597,1042.6777 27.14504,1042.665 27.223769,1042.665 z m -1.471298,0.06 c 0.09447,0 0.191225,0.056 0.240212,0.1201 0.04024,0.053 0.06005,0.1032 0.06005,0.1802 0,0.077 -0.01982,0.1558 -0.06005,0.2102 -0.04724,0.065 -0.12096,0.09 -0.210186,0.09 -0.08398,0 -0.161198,-0.037 -0.210185,-0.09 -0.04724,-0.054 -0.06005,-0.1193 -0.06005,-0.2102 0,-0.096 0.01107,-0.1629 0.06005,-0.2102 C 25.623048,1042.7664 25.678991,1042.725 25.752471,1042.725 z m 12.821317,0.06 0,0.2702 c 0,0.017 0.0085,0.041 0,0.09 -0.01111,0.049 -0.02759,0.096 -0.06005,0.1501 -0.03331,0.055 -0.08179,0.1118 -0.150133,0.1502 -0.06663,0.043 -0.184941,0.06 -0.300265,0.06 -0.117034,0 -0.182123,-0.032 -0.240212,-0.09 -0.06151,-0.054 -0.09008,-0.1266 -0.09008,-0.2101 0.0017,-0.1931 0.115169,-0.285 0.360318,-0.3003 0.09995,-0.01 0.208004,-0.019 0.300265,-0.03 0.04613,-0.01 0.08679,-0.019 0.120106,-0.03 C 38.547908,1042.8351 38.554141,1042.8064 38.573788,1042.7851 Z"
         id="path1171"
         inkscape:connector-curvature="0" />
    </g>
  </g>
</svg>
