<?xml version="1.0" encoding="UTF-8" standalone="no"?>
<!-- Created with Inkscape (http://www.inkscape.org/) -->

<svg
   xmlns:dc="http://purl.org/dc/elements/1.1/"
   xmlns:cc="http://creativecommons.org/ns#"
   xmlns:rdf="http://www.w3.org/1999/02/22-rdf-syntax-ns#"
   xmlns:svg="http://www.w3.org/2000/svg"
   xmlns="http://www.w3.org/2000/svg"
   xmlns:xlink="http://www.w3.org/1999/xlink"
   xmlns:sodipodi="http://sodipodi.sourceforge.net/DTD/sodipodi-0.dtd"
   xmlns:inkscape="http://www.inkscape.org/namespaces/inkscape"
   width="48"
   height="48"
   id="svg2"
   version="1.1"
   inkscape:version="0.48+devel r12064"
   sodipodi:docname="ktp-contactlist.svg">
  <defs
     id="defs4">
    <linearGradient
       inkscape:collect="always"
       xlink:href="#linearGradient2077"
       id="linearGradient1997"
       x1="82.499847"
       y1="-1036.9731"
       x2="82.499847"
       y2="-989.46442"
       gradientUnits="userSpaceOnUse"
       gradientTransform="translate(-57.640627,-14.867202)" />
    <linearGradient
       id="linearGradient2077">
      <stop
         style="stop-color:#f2f2f2;stop-opacity:1"
         offset="0"
         id="stop2079" />
      <stop
         style="stop-color:#ffffff;stop-opacity:1"
         offset="1"
         id="stop2081" />
    </linearGradient>
    <radialGradient
       inkscape:collect="always"
       xlink:href="#linearGradient1999"
       id="radialGradient2128"
       cx="32.007812"
       cy="1019.0713"
       fx="32.007812"
       fy="1019.0713"
       r="18.121655"
       gradientTransform="matrix(0.90076074,0,0,0.86018579,-67.93375,-874.47122)"
       gradientUnits="userSpaceOnUse" />
    <linearGradient
       id="linearGradient1999">
      <stop
         id="stop2001"
         offset="0"
         style="stop-color:#9fd7e4;stop-opacity:1" />
      <stop
         id="stop2003"
         offset="1"
         style="stop-color:#007e9e;stop-opacity:1" />
    </linearGradient>
    <linearGradient
       inkscape:collect="always"
       xlink:href="#linearGradient2077"
       id="linearGradient881"
       x1="23.734835"
       y1="46.515163"
       x2="23.734835"
       y2="1.7261375"
       gradientUnits="userSpaceOnUse" />
  </defs>
  <sodipodi:namedview
     id="base"
     pagecolor="#ffffff"
     bordercolor="#666666"
     borderopacity="1.0"
     inkscape:pageopacity="0.0"
     inkscape:pageshadow="2"
     inkscape:zoom="1.4142136"
     inkscape:cx="37.825003"
     inkscape:cy="-11.036134"
     inkscape:document-units="px"
     inkscape:current-layer="layer7"
     showgrid="false"
     inkscape:window-width="1366"
     inkscape:window-height="718"
     inkscape:window-x="0"
     inkscape:window-y="28"
     inkscape:window-maximized="1"
     showguides="false">
    <inkscape:grid
       type="xygrid"
       id="grid3850" />
  </sodipodi:namedview>
  <metadata
     id="metadata7">
    <rdf:RDF>
      <cc:Work
         rdf:about="">
        <dc:format>image/svg+xml</dc:format>
        <dc:type
           rdf:resource="http://purl.org/dc/dcmitype/StillImage" />
        <dc:title />
      </cc:Work>
    </rdf:RDF>
  </metadata>
  <g
     inkscape:label="Capa 1"
     inkscape:groupmode="layer"
     id="layer1"
     transform="translate(0,-1004.3622)" />
  <g
     inkscape:groupmode="layer"
     id="layer7"
     inkscape:label="Capa">
    <rect
       style="color:#000000;fill:#333333;fill-opacity:1;fill-rule:nonzero;stroke:none;stroke-width:0.2;marker:none;visibility:visible;display:inline;overflow:visible;enable-background:accumulate"
       id="rect6294"
       width="45.5"
       height="45.5"
       x="1.25"
       y="1.25"
       ry="6.3565426" />
    <rect
       ry="5.8565426"
       y="1.75"
       x="1.75"
       height="44.5"
       width="44.5"
       id="rect6296"
       style="color:#000000;fill:url(#linearGradient881);fill-opacity:1;fill-rule:nonzero;stroke:none;stroke-width:0.2;marker:none;visibility:visible;display:inline;overflow:visible;enable-background:accumulate" />
    <path
       id="path6361"
       d="m 1.750001,8.187517 0,-0.5625 c 0,-3.2445 2.599225,-5.875 5.84375,-5.875 l 32.8125,0 c 3.244525,0 5.84375,2.6305 5.84375,5.875 l 0,0.5625 c 0,-3.2445 -2.599225,-5.875 -5.84375,-5.875 l -32.8125,0 C 4.349226,2.312517 1.750001,4.943017 1.750001,8.187517 Z"
       style="color:#000000;fill:#ffffff;fill-opacity:1;fill-rule:nonzero;stroke:none;stroke-width:0.2;marker:none;visibility:visible;display:inline;overflow:visible;enable-background:accumulate"
       inkscape:connector-curvature="0" />
    <path
       inkscape:connector-curvature="0"
       style="color:#000000;fill:#000000;fill-opacity:1;fill-rule:nonzero;stroke:none;stroke-width:0.2;marker:none;visibility:visible;display:inline;overflow:visible;enable-background:accumulate"
       d="m 1.750001,39.812517 0,0.5625 c 0,3.2445 2.599225,5.875 5.84375,5.875 l 32.8125,0 c 3.244525,0 5.84375,-2.6305 5.84375,-5.875 l 0,-0.5625 c 0,3.2445 -2.599225,5.875 -5.84375,5.875 l -32.8125,0 C 4.349226,45.687517 1.750001,43.057017 1.750001,39.812517 Z"
       id="path6388" />
    <g
       id="g883"
       transform="matrix(0.9387491,0,0,0.93750001,67.478626,14.134358)">
      <path
         sodipodi:nodetypes="ssscccss"
         inkscape:connector-curvature="0"
         id="path2030"
         d="m -46.333026,-5.4766486 c -9.017517,0 -16.305741,5.9482996 -16.305741,13.3122996 0,7.364 7.288224,13.3503 16.305741,13.3503 1.452341,0 2.867577,-0.1645 4.207933,-0.4551 l 5.224851,4.9685 0,-6.9787 c 4.172942,-2.4153 6.908024,-6.3901 6.908024,-10.885 C -29.992218,0.471651 -37.315509,-5.4766486 -46.333026,-5.4766486 Z"
         style="color:#000000;fill:url(#radialGradient2128);fill-opacity:1;fill-rule:nonzero;stroke:none;stroke-width:0.2;marker:none;visibility:visible;display:inline;overflow:visible;enable-background:accumulate" />
      <path
         inkscape:connector-curvature="0"
         id="path5692_2_"
         d="m -45.006346,-0.118249 -2.770521,0.274 0,11.3256 2.740076,-0.3958 0,-4.8408 3.653435,5.3584 2.861858,-0.9133 -3.744771,-5.1453 3.775216,-4.8713 -2.922748,-0.6697 -3.62299,4.8712 L -45.006346,-0.118249 z m -6.241285,2.7705 c -0.03104,0 -0.06802,0.01 -0.09134,0.03 l -1.065585,1.0961 c -0.04537,0.046 -0.06388,0.1276 -0.03045,0.1826 l 1.248256,2.0703 c -0.224073,0.3768 -0.389213,0.7894 -0.517569,1.2178 l -2.313843,0.4872 c -0.06453,0.014 -0.12178,0.055 -0.12178,0.1217 l 0,1.5223 c 0,0.064 0.0596,0.1372 0.12178,0.1522 l 2.252951,0.548 c 0.120044,0.4963 0.302151,0.9682 0.548016,1.4005 l -1.309148,1.979 c -0.03635,0.055 -0.01651,0.1358 0.03045,0.1826 l 1.065586,1.0656 c 0.04537,0.045 0.127347,0.064 0.182671,0.031 l 2.039835,-1.2483 c 0.401086,0.2315 0.82154,0.4245 1.278702,0.548 l 0.487125,2.2834 c 0.01344,0.065 0.05598,0.1218 0.121781,0.1218 l 1.522265,0 c 0.06415,0 0.136915,-0.059 0.152226,-0.1218 l 0.548016,-2.2834 c 0.471251,-0.1271 0.928738,-0.3365 1.339592,-0.5784 l 2.00939,1.3396 c 0.05533,0.036 0.135707,0.016 0.182671,-0.031 l 1.065586,-1.0656 c 0.04565,-0.046 0.06398,-0.1277 0.03045,-0.1826 l -0.730687,-1.2178 -0.243562,0.091 c -0.03466,0.011 -0.07095,0 -0.09134,-0.031 0,0 -0.460481,-0.6975 -1.065585,-1.5831 -0.723364,1.4157 -2.197504,2.3747 -3.896998,2.3747 -2.414545,0 -4.384122,-1.939 -4.384122,-4.3537 0,-1.7763 1.066871,-3.304 2.58785,-3.9883 l 0,-1.1265 c -0.276816,0.096 -0.5374,0.1965 -0.791578,0.3349 -1.92e-4,0 -0.02976,-9e-4 -0.03045,0 l -2.039835,-1.3396 C -51.184051,2.664651 -51.216592,2.648951 -51.24763,2.652251 Z"
         style="fill:#ffffff;fill-opacity:1;stroke:none" />
      <path
         inkscape:connector-curvature="0"
         id="path2110"
         d="m -46.343642,-5.4388486 c -9.017516,0 -16.298139,5.9404996 -16.298139,13.3044996 0,0.1739 0.02011,0.3454 0.02815,0.5177 0.320828,-7.1316 7.457339,-12.8175996 16.26999,-12.8175996 8.876401,0 16.102026,5.7656996 16.326289,12.9696996 0.01304,-0.2181 0.02815,-0.4489 0.02815,-0.6698 C -29.989204,0.501651 -37.326124,-5.4388486 -46.343642,-5.4388486 Z"
         style="color:#000000;fill:#000000;fill-opacity:0.18235294;fill-rule:nonzero;stroke:none;stroke-width:0.2;marker:none;visibility:visible;display:inline;overflow:visible;enable-background:accumulate" />
      <path
         inkscape:connector-curvature="0"
         id="path2115"
         d="m -62.613632,8.256151 c -0.0047,0.1321 -0.02815,0.2627 -0.02815,0.3958 0,7.3639 7.280623,13.3655 16.298139,13.3655 1.45234,0 2.88196,-0.1661 4.222316,-0.4567 l 5.207523,4.9626 0,-0.8221 -5.207523,-4.993 c -1.340356,0.2906 -2.769976,0.4567 -4.222316,0.4567 C -55.185762,21.164951 -62.337688,15.422651 -62.613632,8.256151 z m 32.596279,0.092 c -0.205019,4.277 -2.887855,8.0312 -6.89645,10.3514 l 0,0.8525 c 4.17294,-2.4154 6.924598,-6.4045 6.924598,-10.8994 C -29.989204,8.549451 -30.01453,8.449451 -30.017353,8.347451 Z"
         style="color:#000000;fill:#ffffff;fill-opacity:1;fill-rule:nonzero;stroke:none;stroke-width:0.2;marker:none;visibility:visible;display:inline;overflow:visible;enable-background:accumulate" />
    </g>
  </g>
</svg>
