<?xml version="1.0" encoding="UTF-8" standalone="no"?>
<!-- Created with Inkscape (http://www.inkscape.org/) -->

<svg
   xmlns:dc="http://purl.org/dc/elements/1.1/"
   xmlns:cc="http://creativecommons.org/ns#"
   xmlns:rdf="http://www.w3.org/1999/02/22-rdf-syntax-ns#"
   xmlns:svg="http://www.w3.org/2000/svg"
   xmlns="http://www.w3.org/2000/svg"
   xmlns:xlink="http://www.w3.org/1999/xlink"
   xmlns:sodipodi="http://sodipodi.sourceforge.net/DTD/sodipodi-0.dtd"
   xmlns:inkscape="http://www.inkscape.org/namespaces/inkscape"
   width="48"
   height="48"
   id="svg2"
   version="1.1"
   inkscape:version="0.48+devel r12114"
   sodipodi:docname="config-users.svg">
  <defs
     id="defs4">
    <linearGradient
       inkscape:collect="always"
       id="linearGradient864">
      <stop
         style="stop-color:#48413d;stop-opacity:1"
         offset="0"
         id="stop866" />
      <stop
         style="stop-color:#544e4a;stop-opacity:1"
         offset="1"
         id="stop868" />
    </linearGradient>
    <linearGradient
       inkscape:collect="always"
       xlink:href="#linearGradient884"
       id="linearGradient891"
       x1="22.999998"
       y1="1044.6122"
       x2="22.999998"
       y2="1012.3622"
       gradientUnits="userSpaceOnUse"
       gradientTransform="matrix(0.9375,0,0,0.9375,1.5,64.272689)" />
    <linearGradient
       inkscape:collect="always"
       id="linearGradient884">
      <stop
         style="stop-color:#dadada;stop-opacity:1"
         offset="0"
         id="stop886" />
      <stop
         style="stop-color:#ffffff;stop-opacity:1"
         offset="1"
         id="stop889" />
    </linearGradient>
    <linearGradient
       inkscape:collect="always"
       xlink:href="#linearGradient864"
       id="linearGradient882"
       x1="24"
       y1="1050.6122"
       x2="24"
       y2="1005.8622"
       gradientUnits="userSpaceOnUse" />
  </defs>
  <sodipodi:namedview
     id="base"
     pagecolor="#ffffff"
     bordercolor="#666666"
     borderopacity="1.0"
     inkscape:pageopacity="0.0"
     inkscape:pageshadow="2"
     inkscape:zoom="5.6568546"
     inkscape:cx="-4.1468783"
     inkscape:cy="34.960844"
     inkscape:document-units="px"
     inkscape:current-layer="layer1"
     showgrid="false"
     inkscape:window-width="1366"
     inkscape:window-height="718"
     inkscape:window-x="0"
     inkscape:window-y="28"
     inkscape:window-maximized="1">
    <inkscape:grid
       type="xygrid"
       id="grid3850" />
  </sodipodi:namedview>
  <metadata
     id="metadata7">
    <rdf:RDF>
      <cc:Work
         rdf:about="">
        <dc:format>image/svg+xml</dc:format>
        <dc:type
           rdf:resource="http://purl.org/dc/dcmitype/StillImage" />
        <dc:title />
      </cc:Work>
    </rdf:RDF>
  </metadata>
  <g
     inkscape:label="Capa 1"
     inkscape:groupmode="layer"
     id="layer1"
     transform="translate(0,-1004.3622)">
    <rect
       style="color:#000000;fill:#333333;fill-opacity:1;fill-rule:nonzero;stroke:none;stroke-width:0.2;marker:none;visibility:visible;display:inline;overflow:visible;enable-background:accumulate"
       id="rect6294"
       width="45.5"
       height="45.5"
       x="1.25"
       y="1005.6122"
       ry="6.3565426" />
    <rect
       ry="5.8565426"
       y="1006.1122"
       x="1.75"
       height="44.5"
       width="44.5"
       id="rect6296"
       style="color:#000000;fill:url(#linearGradient882);fill-opacity:1;fill-rule:nonzero;stroke:none;stroke-width:0.2;marker:none;visibility:visible;display:inline;overflow:visible;enable-background:accumulate" />
    <path
       id="path6361"
       d="m 1.7499999,1012.5497 0,-0.5625 c 0,-3.2445 2.599225,-5.875 5.84375,-5.875 l 32.8125001,0 c 3.244525,0 5.84375,2.6305 5.84375,5.875 l 0,0.5625 c 0,-3.2445 -2.599225,-5.875 -5.84375,-5.875 l -32.8125001,0 C 4.3492249,1006.6747 1.7499999,1009.3052 1.7499999,1012.5497 Z"
       style="color:#000000;fill:#ffffff;fill-opacity:1;fill-rule:nonzero;stroke:none;stroke-width:0.2;marker:none;visibility:visible;display:inline;overflow:visible;enable-background:accumulate"
       inkscape:connector-curvature="0" />
    <path
       inkscape:connector-curvature="0"
       style="color:#000000;fill:#000000;fill-opacity:1;fill-rule:nonzero;stroke:none;stroke-width:0.2;marker:none;visibility:visible;display:inline;overflow:visible;enable-background:accumulate"
       d="m 1.7499999,1044.1747 0,0.5625 c 0,3.2445 2.599225,5.875 5.84375,5.875 l 32.8125001,0 c 3.244525,0 5.84375,-2.6305 5.84375,-5.875 l 0,-0.5625 c 0,3.2445 -2.599225,5.875 -5.84375,5.875 l -32.8125001,0 C 4.3492249,1050.0497 1.7499999,1047.4192 1.7499999,1044.1747 Z"
       id="path6388" />
    <g
       id="g825"
       transform="matrix(0.95794643,0,0,0.95794643,1.0092857,42.615498)">
      <path
         inkscape:connector-curvature="0"
         id="rect3973"
         d="m 24.000005,1013.3622 c -3.310612,0 -5.970396,2.6593 -5.970396,5.9702 0,3.311 2.659784,6.0193 5.970396,6.0193 3.310602,0 5.970386,-2.7083 5.970386,-6.0193 C 29.970391,1016.0215 27.310607,1013.3622 24.000005,1013.3622 z m -5.526316,14.7527 c -2.84333,0 -5.13158,2.2889 -5.13158,5.1322 l 0,2.3678 0,1.0369 0,6.7104 21.315782,0 0,-6.7104 0,-1.0369 0,-2.3678 c 0,-2.8433 -2.28825,-5.1322 -5.13157,-5.1322 L 18.473689,1028.1149 Z"
         style="color:#000000;fill:url(#linearGradient891);fill-opacity:1;fill-rule:nonzero;stroke:none;stroke-width:1.39999998;marker:none;visibility:visible;display:inline;overflow:visible;enable-background:accumulate" />
      <g
         transform="matrix(0.92575957,0,0,0.92575957,1.7817703,76.271637)"
         id="g905">
        <path
           style="color:#000000;fill:#000000;fill-opacity:0.45116278;fill-rule:nonzero;stroke:none;stroke-width:1.39999998;marker:none;visibility:visible;display:inline;overflow:visible;enable-background:accumulate"
           d="m 17.65625,1019.1286 c -0.0079,0.063 -0.03125,0.1239 -0.03125,0.1875 0,3.5317 2.843681,6.4063 6.375,6.4063 3.531309,0 6.375,-2.8746 6.375,-6.4063 0,-0.064 -0.02339,-0.1247 -0.03125,-0.1875 -0.193526,3.3573 -2.938773,6.0313 -6.34375,6.0313 C 20.595014,1025.1599 17.849775,1022.4859 17.65625,1019.1286 z m -5.03125,25.25 0,0.5625 22.75,0 0,-0.5625 L 12.625,1044.3786 Z"
           id="path893"
           inkscape:connector-curvature="0" />
        <path
           inkscape:connector-curvature="0"
           id="path901"
           d="m 17.65625,1019.6866 c -0.0079,0.063 -0.03125,0.1239 -0.03125,0.1875 0,3.5317 2.843681,6.4063 6.375,6.4063 3.531309,0 6.375,-2.8746 6.375,-6.4063 0,-0.064 -0.02339,-0.1247 -0.03125,-0.1875 -0.193526,3.3573 -2.938773,6.0313 -6.34375,6.0313 C 20.595014,1025.7179 17.849775,1023.0439 17.65625,1019.6866 z m -5.03125,25.25 0,0.5625 22.75,0 0,-0.5625 L 12.625,1044.9366 Z"
           style="color:#000000;fill:#000000;fill-opacity:0.18139535;fill-rule:nonzero;stroke:none;stroke-width:1.39999998;marker:none;visibility:visible;display:inline;overflow:visible;enable-background:accumulate" />
        <path
           style="color:#000000;fill:#000000;fill-opacity:0.08837208;fill-rule:nonzero;stroke:none;stroke-width:1.39999998;marker:none;visibility:visible;display:inline;overflow:visible;enable-background:accumulate"
           d="m 17.65625,1020.2556 c -0.0079,0.063 -0.03125,0.1239 -0.03125,0.1875 0,3.5317 2.843681,6.4063 6.375,6.4063 3.531309,0 6.375,-2.8746 6.375,-6.4063 0,-0.064 -0.02339,-0.1247 -0.03125,-0.1875 -0.193526,3.3573 -2.938773,6.0313 -6.34375,6.0313 C 20.595014,1026.2869 17.849775,1023.6129 17.65625,1020.2556 z m -5.03125,25.25 0,0.5625 22.75,0 0,-0.5625 L 12.625,1045.5056 Z"
           id="path903"
           inkscape:connector-curvature="0" />
      </g>
    </g>
  </g>
</svg>
