<?xml version="1.0" encoding="UTF-8" standalone="no"?>
<!-- Created with Inkscape (http://www.inkscape.org/) -->

<svg
   xmlns:dc="http://purl.org/dc/elements/1.1/"
   xmlns:cc="http://creativecommons.org/ns#"
   xmlns:rdf="http://www.w3.org/1999/02/22-rdf-syntax-ns#"
   xmlns:svg="http://www.w3.org/2000/svg"
   xmlns="http://www.w3.org/2000/svg"
   xmlns:xlink="http://www.w3.org/1999/xlink"
   xmlns:sodipodi="http://sodipodi.sourceforge.net/DTD/sodipodi-0.dtd"
   xmlns:inkscape="http://www.inkscape.org/namespaces/inkscape"
   width="48"
   height="48"
   id="svg2"
   version="1.1"
   inkscape:version="0.48+devel r12068"
   sodipodi:docname="libreoffice-impress.svg">
  <defs
     id="defs4">
    <linearGradient
       gradientTransform="matrix(0.80813804,0,0,0.80813804,-50.438037,1008.9184)"
       inkscape:collect="always"
       xlink:href="#linearGradient862"
       id="linearGradient4573"
       x1="19.734877"
       y1="20.913715"
       x2="19.734877"
       y2="33.109589"
       gradientUnits="userSpaceOnUse" />
    <linearGradient
       id="linearGradient862">
      <stop
         id="stop864"
         offset="0"
         style="stop-color:#fd5713;stop-opacity:1;" />
      <stop
         id="stop866"
         offset="1"
         style="stop-color:#d34204;stop-opacity:1" />
    </linearGradient>
  </defs>
  <sodipodi:namedview
     id="base"
     pagecolor="#ffffff"
     bordercolor="#666666"
     borderopacity="1.0"
     inkscape:pageopacity="0.0"
     inkscape:pageshadow="2"
     inkscape:zoom="6.7343754"
     inkscape:cx="6.5695404"
     inkscape:cy="19.533927"
     inkscape:document-units="px"
     inkscape:current-layer="layer1"
     showgrid="false"
     inkscape:window-width="1366"
     inkscape:window-height="718"
     inkscape:window-x="0"
     inkscape:window-y="28"
     inkscape:window-maximized="1">
    <inkscape:grid
       type="xygrid"
       id="grid3850" />
  </sodipodi:namedview>
  <metadata
     id="metadata7">
    <rdf:RDF>
      <cc:Work
         rdf:about="">
        <dc:format>image/svg+xml</dc:format>
        <dc:type
           rdf:resource="http://purl.org/dc/dcmitype/StillImage" />
        <dc:title />
      </cc:Work>
    </rdf:RDF>
  </metadata>
  <g
     inkscape:label="Capa 1"
     inkscape:groupmode="layer"
     id="layer1"
     transform="translate(0,-1004.3622)">
    <rect
       style="color:#000000;fill:#333333;fill-opacity:1;fill-rule:nonzero;stroke:none;stroke-width:0.2;marker:none;visibility:visible;display:inline;overflow:visible;enable-background:accumulate"
       id="rect6294"
       width="45.5"
       height="45.5"
       x="1.25"
       y="1005.6122"
       ry="6.3565426" />
    <rect
       ry="5.8565426"
       y="1006.1122"
       x="1.75"
       height="44.5"
       width="44.5"
       id="rect6296"
       style="color:#000000;fill:#ffffff;fill-opacity:1;fill-rule:nonzero;stroke:none;stroke-width:0.2;marker:none;visibility:visible;display:inline;overflow:visible;enable-background:accumulate" />
    <path
       id="path6361"
       d="m 1.7500022,1012.5497 0,-0.5625 c 0,-3.2445 2.599225,-5.875 5.84375,-5.875 l 32.8125008,0 c 3.244525,0 5.84375,2.6305 5.84375,5.875 l 0,0.5625 c 0,-3.2445 -2.599225,-5.875 -5.84375,-5.875 l -32.8125008,0 C 4.3492272,1006.6747 1.7500022,1009.3052 1.7500022,1012.5497 Z"
       style="color:#000000;fill:#ffffff;fill-opacity:1;fill-rule:nonzero;stroke:none;stroke-width:0.2;marker:none;visibility:visible;display:inline;overflow:visible;enable-background:accumulate"
       inkscape:connector-curvature="0" />
    <path
       inkscape:connector-curvature="0"
       style="color:#000000;fill:#000000;fill-opacity:1;fill-rule:nonzero;stroke:none;stroke-width:0.2;marker:none;visibility:visible;display:inline;overflow:visible;enable-background:accumulate"
       d="m 1.7500022,1044.1747 0,0.5625 c 0,3.2445 2.599225,5.875 5.84375,5.875 l 32.8125008,0 c 3.244525,0 5.84375,-2.6305 5.84375,-5.875 l 0,-0.5625 c 0,3.2445 -2.599225,5.875 -5.84375,5.875 l -32.8125008,0 C 4.3492272,1050.0497 1.7500022,1047.4192 1.7500022,1044.1747 Z"
       id="path6388" />
    <path
       sodipodi:nodetypes="ccccccccccc"
       inkscape:connector-curvature="0"
       id="path1324"
       d="m 12.594593,1013.3622 0,30 22.810819,0 -10e-6,-22.4414 -7.551518,0 L 27.853877,1013.3622 z m 17.30527,0 5.505547,5.5127 L 35.405387,1013.3622 Z"
       style="color:#000000;fill:#000000;fill-opacity:1;fill-rule:nonzero;stroke:none;stroke-width:1.39999998;marker:none;visibility:visible;display:inline;overflow:visible;enable-background:accumulate" />
    <g
       id="g858"
       transform="matrix(0.93750439,0,0,0.93750439,51.722473,62.69564)">
      <path
         id="path5343"
         d="m -45.804021,1035.6974 4.065944,3.8386 0,-3.8386 L -45.804021,1035.6974 Z"
         style="fill:#762502;fill-opacity:1;stroke:none"
         inkscape:connector-curvature="0" />
      <rect
         ry="0"
         y="1025.2887"
         x="-45.804024"
         height="10.412836"
         width="16.848322"
         id="rect4565"
         style="color:#000000;fill:url(#linearGradient4573);fill-opacity:1;fill-rule:nonzero;stroke:none;stroke-width:0.2;marker:none;visibility:visible;display:inline;overflow:visible;enable-background:accumulate" />
      <path
         inkscape:connector-curvature="0"
         id="rect5380"
         d="m -28.955699,1025.2886 0,10.4047 -0.277798,0 0,-10.0764 -16.566828,0 0,-0.3283 L -28.955699,1025.2886 Z"
         style="color:#000000;fill:#ffffff;fill-opacity:0.48235294;fill-rule:nonzero;stroke:none;stroke-width:0.2;marker:none;visibility:visible;display:inline;overflow:visible;enable-background:accumulate" />
      <path
         id="path5393"
         d="m -45.804021,1035.6974 4.065944,3.8386 0,-0.5808 -3.055772,-2.879 3.055772,0 0,-0.3788 L -45.804021,1035.6974 Z"
         style="fill:#000000;fill-opacity:0.17647059;stroke:none"
         inkscape:connector-curvature="0" />
      <path
         inkscape:connector-curvature="0"
         id="path869"
         d="m -42.817361,1028.4326 c -0.244141,0 -0.452474,0.045 -0.625,0.125 -0.172526,0.078 -0.296875,0.1725 -0.375,0.3125 -0.0765,0.14 -0.125,0.3535 -0.125,0.6562 0,0.2099 0.04004,0.3961 0.09375,0.5313 0.05534,0.135 0.104493,0.2359 0.1875,0.3125 0.08301,0.076 0.275716,0.2057 0.53125,0.375 0.255531,0.1676 0.403643,0.2721 0.46875,0.3437 0.06347,0.072 0.09375,0.236 0.09375,0.4688 0,0.1054 -0.02832,0.196 -0.0625,0.25 -0.03255,0.054 -0.08789,0.062 -0.15625,0.062 -0.06836,0 -0.09733,-0.02 -0.125,-0.062 -0.02604,-0.042 -0.03125,-0.1332 -0.03125,-0.2813 l 0,-0.4687 -0.96875,0 0,0.25 c 0,0.2962 0.03353,0.5263 0.09375,0.6875 0.06022,0.1611 0.181315,0.302 0.375,0.4062 0.195313,0.1041 0.443685,0.1563 0.71875,0.1563 0.250651,0 0.467448,-0.067 0.65625,-0.1563 0.1888,-0.091 0.309893,-0.179 0.375,-0.3125 0.06673,-0.1335 0.09375,-0.3435 0.09375,-0.625 0,-0.3874 -0.03744,-0.6696 -0.15625,-0.8437 -0.118815,-0.1742 -0.417643,-0.4157 -0.875,-0.6875 -0.159505,-0.094 -0.24707,-0.1521 -0.28125,-0.2188 -0.03581,-0.067 -0.0625,-0.1807 -0.0625,-0.3125 0,-0.1023 3.23e-4,-0.1681 0.03125,-0.2187 0.03255,-0.051 0.0944,-0.094 0.15625,-0.094 0.05697,0 0.100587,0.025 0.125,0.062 0.02441,0.037 0.03125,0.1445 0.03125,0.2813 l 0,0.2812 0.9375,0 0,-0.1562 c 0,-0.3142 -6.53e-4,-0.5261 -0.0625,-0.6563 -0.06022,-0.1318 -0.186198,-0.2575 -0.375,-0.3437 C -42.317036,1028.4713 -42.550434,1028.4326 -42.817361,1028.4326 z m 10.78125,0 c -0.244141,0 -0.452474,0.045 -0.625,0.125 -0.172526,0.078 -0.296875,0.1725 -0.375,0.3125 -0.0765,0.14 -0.125,0.3535 -0.125,0.6562 0,0.2099 0.04004,0.3961 0.09375,0.5313 0.05534,0.135 0.104493,0.2359 0.1875,0.3125 0.08301,0.076 0.275716,0.2057 0.53125,0.375 0.255531,0.1676 0.403643,0.2721 0.46875,0.3437 0.06347,0.072 0.09375,0.236 0.09375,0.4688 0,0.1054 -0.02832,0.196 -0.0625,0.25 -0.03255,0.054 -0.08789,0.062 -0.15625,0.062 -0.06836,0 -0.09733,-0.02 -0.125,-0.062 -0.02604,-0.042 -0.03125,-0.1332 -0.03125,-0.2813 l 0,-0.4687 -0.96875,0 0,0.25 c 0,0.2962 0.03353,0.5263 0.09375,0.6875 0.06022,0.1611 0.181315,0.302 0.375,0.4062 0.195313,0.1041 0.443685,0.1563 0.71875,0.1563 0.250651,0 0.467448,-0.067 0.65625,-0.1563 0.1888,-0.091 0.309893,-0.179 0.375,-0.3125 0.06673,-0.1335 0.09375,-0.3435 0.09375,-0.625 0,-0.3874 -0.03744,-0.6696 -0.15625,-0.8437 -0.118815,-0.1742 -0.417643,-0.4157 -0.875,-0.6875 -0.159505,-0.094 -0.24707,-0.1521 -0.28125,-0.2188 -0.03581,-0.067 -0.0625,-0.1807 -0.0625,-0.3125 0,-0.1023 3.23e-4,-0.1681 0.03125,-0.2187 0.03255,-0.051 0.0944,-0.094 0.15625,-0.094 0.05697,0 0.100587,0.025 0.125,0.062 0.02441,0.037 0.03125,0.1445 0.03125,0.2813 l 0,0.2812 0.9375,0 0,-0.1562 c 0,-0.3142 -6.53e-4,-0.5261 -0.0625,-0.6563 -0.06022,-0.1318 -0.186198,-0.2575 -0.375,-0.3437 C -31.535786,1028.4713 -31.769184,1028.4326 -32.036111,1028.4326 z m -9.21875,0.094 0,3.9375 1.625,0 0,-0.7812 -0.625,0 0,-3.1563 L -41.254861,1028.5263 z m 1.90625,0 0,3.9375 1,0 0,-3.9375 L -39.348611,1028.5263 z m 1.4375,0 0,3.9375 1.28125,0 c 0.245769,0 0.44043,-0.01 0.5625,-0.031 0.122071,-0.028 0.229493,-0.09 0.3125,-0.1563 0.08301,-0.068 0.123697,-0.1624 0.15625,-0.2812 0.03418,-0.1205 0.0625,-0.3327 0.0625,-0.6875 l 0,-1.4063 c 0,-0.3743 -0.0085,-0.6231 -0.03125,-0.75 -0.02279,-0.1286 -0.09636,-0.2395 -0.1875,-0.3437 -0.09115,-0.1044 -0.199219,-0.1735 -0.375,-0.2188 -0.174153,-0.045 -0.534831,-0.062 -1.03125,-0.062 L -37.911111,1028.5263 z m 2.75,0 0,3.9375 1.78125,0 0,-0.7812 -0.75,0 0,-0.875 0.65625,0 0,-0.75 -0.65625,0 0,-0.75 0.6875,0 0,-0.7813 L -35.161111,1028.5263 z m -1.71875,0.6563 c 0.112305,0 0.178063,0.01 0.21875,0.031 0.04069,0.023 0.08236,0.074 0.09375,0.125 0.01139,0.051 0,0.1647 0,0.3438 l 0,1.5312 c 0,0.2639 -0.02832,0.44 -0.0625,0.5 -0.03418,0.059 -0.101888,0.062 -0.25,0.062 L -36.879861,1029.1826 Z"
         style="font-size:5px;font-style:normal;font-variant:normal;font-weight:bold;font-stretch:normal;line-height:125%;letter-spacing:0px;word-spacing:0px;fill:#ffffff;fill-opacity:1;stroke:none;font-family:Impact;-inkscape-font-specification:Impact Bold" />
      <path
         inkscape:connector-curvature="0"
         id="path888"
         d="m -42.818766,1028.2507 c -0.244141,0 -0.452474,0.045 -0.625,0.125 -0.172526,0.078 -0.296875,0.1725 -0.375,0.3125 -0.0558,0.1022 -0.0757,0.2511 -0.09375,0.4375 0.02169,-0.1087 0.0555,-0.18 0.09375,-0.25 0.07813,-0.14 0.202474,-0.2345 0.375,-0.3125 0.172526,-0.08 0.380859,-0.125 0.625,-0.125 0.266927,0 0.500325,0.039 0.6875,0.125 0.188802,0.086 0.31478,0.212 0.375,0.3438 0.03092,0.065 0.05461,0.1415 0.0625,0.25 -0.0035,-0.1905 -0.0173,-0.3424 -0.0625,-0.4375 -0.06022,-0.1318 -0.186198,-0.2576 -0.375,-0.3438 C -42.318441,1028.2901 -42.551839,1028.2507 -42.818766,1028.2507 z m 10.78125,0 c -0.244141,0 -0.452474,0.045 -0.625,0.125 -0.172526,0.078 -0.296875,0.1725 -0.375,0.3125 -0.0558,0.1022 -0.0757,0.2511 -0.09375,0.4375 0.02169,-0.1087 0.0555,-0.18 0.09375,-0.25 0.07813,-0.14 0.202474,-0.2345 0.375,-0.3125 0.172526,-0.08 0.380859,-0.125 0.625,-0.125 0.266927,0 0.500325,0.039 0.6875,0.125 0.188802,0.086 0.31478,0.212 0.375,0.3438 0.03092,0.065 0.05461,0.1415 0.0625,0.25 -0.0035,-0.1905 -0.0173,-0.3424 -0.0625,-0.4375 -0.06022,-0.1318 -0.186198,-0.2576 -0.375,-0.3438 C -31.537191,1028.2901 -31.770589,1028.2507 -32.037516,1028.2507 z m -9.21875,0.094 0,0.1875 1,0 0,-0.1875 L -41.256266,1028.3445 z m 1.90625,0 0,0.1875 1,0 0,-0.1875 L -39.350016,1028.3445 z m 1.4375,0 0,0.1875 0.75,0 c 0.496419,0 0.857097,0.018 1.03125,0.062 0.175781,0.045 0.28385,0.1143 0.375,0.2187 0.09114,0.1042 0.16471,0.2152 0.1875,0.3438 -0.004,-0.047 0.0057,-0.1558 0,-0.1875 -0.02279,-0.1286 -0.09636,-0.2396 -0.1875,-0.3438 -0.09115,-0.1044 -0.199219,-0.1734 -0.375,-0.2187 -0.174153,-0.045 -0.534831,-0.062 -1.03125,-0.062 L -37.912516,1028.3445 z m 2.75,0 0,0.1875 1.71875,0 0,-0.1875 L -35.162516,1028.3445 z m -7.78125,0.9375 c -0.0061,0.039 -0.03125,0.066 -0.03125,0.125 0,0.1318 0.02669,0.2455 0.0625,0.3125 0.03418,0.067 0.121745,0.1247 0.28125,0.2187 0.457357,0.2718 0.756185,0.5133 0.875,0.6875 0.0594,0.087 0.100789,0.2031 0.125,0.3438 -0.01907,-0.2206 -0.0434,-0.4117 -0.125,-0.5313 -0.118815,-0.1742 -0.417643,-0.4157 -0.875,-0.6875 -0.159505,-0.094 -0.24707,-0.152 -0.28125,-0.2187 C -42.940751,1029.4792 -42.935483,1029.3789 -42.943766,1029.282 z m 10.75,0 c -0.0055,0.038 0,0.068 0,0.125 0,0.1318 0.02669,0.2455 0.0625,0.3125 0.03418,0.067 0.121745,0.1247 0.28125,0.2187 0.457357,0.2718 0.756185,0.5133 0.875,0.6875 0.0594,0.087 0.100789,0.2031 0.125,0.3438 -0.01907,-0.2206 -0.0434,-0.4117 -0.125,-0.5313 -0.118815,-0.1742 -0.417643,-0.4157 -0.875,-0.6875 -0.159505,-0.094 -0.24707,-0.152 -0.28125,-0.2187 C -32.160189,1029.4779 -32.186,1029.382 -32.193766,1029.282 z m -1.9375,0.5937 0,0.1875 0.65625,0 0,-0.1875 L -34.131266,1029.8757 z m -9.78125,1 0,0.1875 0.96875,0 0,-0.1875 c -0.0076,-0.01 -0.02325,0.01 -0.03125,0 L -43.912516,1030.8757 z m 10.78125,0 0,0.1875 0.96875,0 0,-0.1875 c -0.0076,-0.01 -0.02325,0.01 -0.03125,0 L -33.131266,1030.8757 z m -3.4375,0.1563 c 0,0.2639 -0.02832,0.44 -0.0625,0.5 -0.03418,0.059 -0.101888,0.062 -0.25,0.062 l 0,0.1875 c 0.148112,0 0.21582,0 0.25,-0.062 0.03418,-0.06 0.0625,-0.2361 0.0625,-0.5 L -36.568766,1031.032 z m -6.375,0.3125 0,0.1875 c 0,0.1481 0.0052,0.2392 0.03125,0.2812 0.02767,0.042 0.05664,0.062 0.125,0.062 0.06836,0 0.1237,-0.01 0.15625,-0.062 0.03418,-0.054 0.0625,-0.1446 0.0625,-0.25 0,-0.046 0.0024,-0.084 0,-0.125 -0.0092,0.074 -0.03636,0.1462 -0.0625,0.1875 -0.03255,0.054 -0.08789,0.062 -0.15625,0.062 -0.06836,0 -0.09733,-0.021 -0.125,-0.062 C -42.938556,1031.5837 -42.943766,1031.4926 -42.943766,1031.3445 z m 10.78125,0 0,0.1875 c 0,0.1481 0.0052,0.2392 0.03125,0.2812 0.02767,0.042 0.05664,0.062 0.125,0.062 0.06836,0 0.1237,-0.01 0.15625,-0.062 0.03418,-0.054 0.0625,-0.1446 0.0625,-0.25 0,-0.046 0.0024,-0.084 0,-0.125 -0.0092,0.074 -0.03636,0.1462 -0.0625,0.1875 -0.03255,0.054 -0.08789,0.062 -0.15625,0.062 -0.06836,0 -0.09733,-0.021 -0.125,-0.062 C -32.157306,1031.5837 -32.162516,1031.4926 -32.162516,1031.3445 z m -8.09375,0.1562 0,0.1875 0.625,0 0,-0.1875 L -40.256266,1031.5007 z m 6.125,0 0,0.1875 0.75,0 0,-0.1875 L -34.131266,1031.5007 Z"
         style="font-size:5px;font-style:normal;font-variant:normal;font-weight:bold;font-stretch:normal;line-height:125%;letter-spacing:0px;word-spacing:0px;fill:#000000;fill-opacity:0.39215686;stroke:none;font-family:Impact;-inkscape-font-specification:Impact Bold" />
      <path
         inkscape:connector-curvature="0"
         id="path894"
         d="m -42.787516,1029.0554 c -0.06185,0 -0.1237,0.074 -0.15625,0.125 -0.01732,0.028 0.0034,0.083 0,0.125 0.03255,-0.051 0.0944,-0.094 0.15625,-0.094 0.05697,0 0.100587,0.025 0.125,0.062 -0.0046,-0.056 0.0134,-0.136 0,-0.1563 C -42.686929,1029.0809 -42.730546,1029.0554 -42.787516,1029.0554 z m 10.78125,0 c -0.06185,0 -0.1237,0.074 -0.15625,0.125 -0.01732,0.028 0.0034,0.083 0,0.125 0.03255,-0.051 0.0944,-0.094 0.15625,-0.094 0.05697,0 0.100587,0.025 0.125,0.062 -0.0046,-0.056 0.0134,-0.136 0,-0.1563 C -31.905679,1029.0809 -31.949296,1029.0554 -32.006266,1029.0554 z m -4.875,0.125 0,0.125 c 0.112305,0 0.178063,0.01 0.21875,0.031 0.04069,0.023 0.08236,0.074 0.09375,0.125 2.4e-4,-0.035 0.0041,-0.1065 0,-0.125 -0.01139,-0.051 -0.05306,-0.102 -0.09375,-0.125 C -36.703203,1029.1907 -36.768961,1029.1804 -36.881266,1029.1804 z m 2.75,0.125 0,0.125 0.6875,0 0,-0.125 L -34.131266,1029.3054 z m -8.5,0.375 0,0.1563 0.9375,0 0,-0.1563 L -42.631266,1029.6804 z m 10.78125,0 0,0.1563 0.9375,0 0,-0.1563 L -31.850016,1029.6804 z m -12.0625,0.125 c 0.01467,0.1399 0.02385,0.2777 0.0625,0.375 0.05534,0.135 0.104493,0.2359 0.1875,0.3125 0.08301,0.076 0.275716,0.2057 0.53125,0.375 0.255531,0.1676 0.403643,0.2722 0.46875,0.3438 0.03173,0.036 0.047,0.077 0.0625,0.1562 -0.01295,-0.132 -0.0182,-0.231 -0.0625,-0.2812 -0.06511,-0.072 -0.213219,-0.1762 -0.46875,-0.3438 -0.255534,-0.1693 -0.44824,-0.299 -0.53125,-0.375 -0.08301,-0.077 -0.13216,-0.1775 -0.1875,-0.3125 C -43.876871,1029.9878 -43.895792,1029.8951 -43.912516,1029.8054 z m 10.78125,0 c 0.01467,0.1399 0.02385,0.2777 0.0625,0.375 0.05534,0.135 0.104493,0.2359 0.1875,0.3125 0.08301,0.076 0.275716,0.2057 0.53125,0.375 0.255531,0.1676 0.403643,0.2722 0.46875,0.3438 0.03173,0.036 0.047,0.077 0.0625,0.1562 -0.01295,-0.132 -0.0182,-0.231 -0.0625,-0.2812 -0.06511,-0.072 -0.213219,-0.1762 -0.46875,-0.3438 -0.255534,-0.1693 -0.44824,-0.299 -0.53125,-0.375 -0.08301,-0.077 -0.13216,-0.1775 -0.1875,-0.3125 C -33.095621,1029.9878 -33.114542,1029.8951 -33.131266,1029.8054 z m -1,1 0,0.125 0.65625,0 0,-0.125 L -34.131266,1030.8054 z m -9.75,0.875 c 0.01442,0.1675 0.02242,0.3302 0.0625,0.4375 0.06022,0.1611 0.181315,0.3021 0.375,0.4063 0.195313,0.1041 0.443685,0.1562 0.71875,0.1562 0.250651,0 0.467448,-0.067 0.65625,-0.1562 0.1888,-0.091 0.309893,-0.179 0.375,-0.3125 0.0454,-0.091 0.04986,-0.2462 0.0625,-0.4063 -0.0151,0.1044 -0.02913,0.2145 -0.0625,0.2813 -0.06511,0.1335 -0.1862,0.2215 -0.375,0.3125 -0.188802,0.089 -0.405599,0.1562 -0.65625,0.1562 -0.275065,0 -0.523437,-0.052 -0.71875,-0.1562 -0.193685,-0.1042 -0.31478,-0.2452 -0.375,-0.4063 C -43.848876,1031.9123 -43.865356,1031.7951 -43.881266,1031.6804 z m 10.78125,0 c 0.01442,0.1675 0.02242,0.3302 0.0625,0.4375 0.06022,0.1611 0.181315,0.3021 0.375,0.4063 0.195313,0.1041 0.443685,0.1562 0.71875,0.1562 0.250651,0 0.467448,-0.067 0.65625,-0.1562 0.1888,-0.091 0.309893,-0.179 0.375,-0.3125 0.0454,-0.091 0.04986,-0.2462 0.0625,-0.4063 -0.0151,0.1044 -0.02913,0.2145 -0.0625,0.2813 -0.06511,0.1335 -0.1862,0.2215 -0.375,0.3125 -0.188802,0.089 -0.405599,0.1562 -0.65625,0.1562 -0.275065,0 -0.523437,-0.052 -0.71875,-0.1562 -0.193685,-0.1042 -0.31478,-0.2452 -0.375,-0.4063 C -33.067626,1031.9123 -33.084106,1031.7951 -33.100016,1031.6804 z m -2.5,0.3125 c -0.03255,0.1188 -0.07324,0.2133 -0.15625,0.2813 -0.08301,0.066 -0.190429,0.1282 -0.3125,0.1562 -0.12207,0.021 -0.316731,0.031 -0.5625,0.031 l -1.28125,0 0,0.125 1.28125,0 c 0.245769,0 0.44043,-0.01 0.5625,-0.031 0.122071,-0.028 0.229493,-0.09 0.3125,-0.1562 0.08301,-0.068 0.123697,-0.1625 0.15625,-0.2813 C -35.593852,1032.0962 -35.605667,1032.0209 -35.600016,1031.9929 z m -5.65625,0.4688 0,0.125 1.625,0 0,-0.125 L -41.256266,1032.4617 z m 1.90625,0 0,0.125 1,0 0,-0.125 L -39.350016,1032.4617 z m 4.1875,0 0,0.125 1.78125,0 0,-0.125 L -35.162516,1032.4617 Z"
         style="font-size:5px;font-style:normal;font-variant:normal;font-weight:bold;font-stretch:normal;line-height:125%;letter-spacing:0px;word-spacing:0px;fill:#ffffff;fill-opacity:0.54901961;stroke:none;font-family:Impact;-inkscape-font-specification:Impact Bold" />
    </g>
  </g>
</svg>
