<?xml version="1.0" encoding="UTF-8" standalone="no"?>
<!-- Created with Inkscape (http://www.inkscape.org/) -->

<svg
   xmlns:dc="http://purl.org/dc/elements/1.1/"
   xmlns:cc="http://creativecommons.org/ns#"
   xmlns:rdf="http://www.w3.org/1999/02/22-rdf-syntax-ns#"
   xmlns:svg="http://www.w3.org/2000/svg"
   xmlns="http://www.w3.org/2000/svg"
   xmlns:xlink="http://www.w3.org/1999/xlink"
   xmlns:sodipodi="http://sodipodi.sourceforge.net/DTD/sodipodi-0.dtd"
   xmlns:inkscape="http://www.inkscape.org/namespaces/inkscape"
   width="48"
   height="48"
   id="svg2"
   version="1.1"
   inkscape:version="0.48+devel r12068"
   sodipodi:docname="libreoffice-draw.svg">
  <defs
     id="defs4">
    <linearGradient
       gradientTransform="matrix(0.80813804,0,0,0.80813804,-13.058174,1014.1676)"
       inkscape:collect="always"
       xlink:href="#linearGradient3795-2"
       id="linearGradient4573-6"
       x1="19.734877"
       y1="20.913715"
       x2="19.734877"
       y2="33.109589"
       gradientUnits="userSpaceOnUse" />
    <linearGradient
       id="linearGradient3795-2">
      <stop
         style="stop-color:#fed826;stop-opacity:1;"
         offset="0"
         id="stop3797-9" />
      <stop
         style="stop-color:#ebac3c;stop-opacity:1;"
         offset="1"
         id="stop3799-4" />
    </linearGradient>
  </defs>
  <sodipodi:namedview
     id="base"
     pagecolor="#ffffff"
     bordercolor="#666666"
     borderopacity="1.0"
     inkscape:pageopacity="0.0"
     inkscape:pageshadow="2"
     inkscape:zoom="19.04769"
     inkscape:cx="8.7163461"
     inkscape:cy="24.279689"
     inkscape:document-units="px"
     inkscape:current-layer="layer1"
     showgrid="false"
     inkscape:window-width="1366"
     inkscape:window-height="718"
     inkscape:window-x="0"
     inkscape:window-y="28"
     inkscape:window-maximized="1">
    <inkscape:grid
       type="xygrid"
       id="grid3850" />
  </sodipodi:namedview>
  <metadata
     id="metadata7">
    <rdf:RDF>
      <cc:Work
         rdf:about="">
        <dc:format>image/svg+xml</dc:format>
        <dc:type
           rdf:resource="http://purl.org/dc/dcmitype/StillImage" />
        <dc:title />
      </cc:Work>
    </rdf:RDF>
  </metadata>
  <g
     inkscape:label="Capa 1"
     inkscape:groupmode="layer"
     id="layer1"
     transform="translate(0,-1004.3622)">
    <rect
       style="color:#000000;fill:#333333;fill-opacity:1;fill-rule:nonzero;stroke:none;stroke-width:0.2;marker:none;visibility:visible;display:inline;overflow:visible;enable-background:accumulate"
       id="rect6294"
       width="45.5"
       height="45.5"
       x="1.25"
       y="1005.6122"
       ry="6.3565426" />
    <rect
       ry="5.8565426"
       y="1006.1122"
       x="1.75"
       height="44.5"
       width="44.5"
       id="rect6296"
       style="color:#000000;fill:#ffffff;fill-opacity:1;fill-rule:nonzero;stroke:none;stroke-width:0.2;marker:none;visibility:visible;display:inline;overflow:visible;enable-background:accumulate" />
    <path
       id="path6361"
       d="m 1.7500022,1012.5497 0,-0.5625 c 0,-3.2445 2.599225,-5.875 5.84375,-5.875 l 32.8125008,0 c 3.244525,0 5.84375,2.6305 5.84375,5.875 l 0,0.5625 c 0,-3.2445 -2.599225,-5.875 -5.84375,-5.875 l -32.8125008,0 C 4.3492272,1006.6747 1.7500022,1009.3052 1.7500022,1012.5497 Z"
       style="color:#000000;fill:#ffffff;fill-opacity:1;fill-rule:nonzero;stroke:none;stroke-width:0.2;marker:none;visibility:visible;display:inline;overflow:visible;enable-background:accumulate"
       inkscape:connector-curvature="0" />
    <path
       inkscape:connector-curvature="0"
       style="color:#000000;fill:#000000;fill-opacity:1;fill-rule:nonzero;stroke:none;stroke-width:0.2;marker:none;visibility:visible;display:inline;overflow:visible;enable-background:accumulate"
       d="m 1.7500022,1044.1747 0,0.5625 c 0,3.2445 2.599225,5.875 5.84375,5.875 l 32.8125008,0 c 3.244525,0 5.84375,-2.6305 5.84375,-5.875 l 0,-0.5625 c 0,3.2445 -2.599225,5.875 -5.84375,5.875 l -32.8125008,0 C 4.3492272,1050.0497 1.7500022,1047.4192 1.7500022,1044.1747 Z"
       id="path6388" />
    <path
       sodipodi:nodetypes="ccccccccccc"
       inkscape:connector-curvature="0"
       id="path1324"
       d="m 12.594593,1013.3622 0,30 22.810819,0 -10e-6,-22.4414 -7.551518,0 L 27.853877,1013.3622 z m 17.30527,0 5.505547,5.5127 L 35.405387,1013.3622 Z"
       style="color:#000000;fill:#000000;fill-opacity:1;fill-rule:nonzero;stroke:none;stroke-width:1.39999998;marker:none;visibility:visible;display:inline;overflow:visible;enable-background:accumulate" />
    <g
       id="g882"
       transform="matrix(0.93750439,0,0,0.93750439,16.678691,57.774439)">
      <path
         id="path5343-1"
         d="m -8.4241579,1040.9466 4.0659442,3.8386 0,-3.8386 L -8.4241579,1040.9466 Z"
         style="fill:#6d4a0b;fill-opacity:1;stroke:none"
         inkscape:connector-curvature="0" />
      <rect
         ry="0"
         y="1030.538"
         x="-8.4241648"
         height="10.412836"
         width="16.848322"
         id="rect4565-1"
         style="color:#000000;fill:url(#linearGradient4573-6);fill-opacity:1;fill-rule:nonzero;stroke:none;stroke-width:0.2;marker:none;visibility:visible;display:inline;overflow:visible;enable-background:accumulate" />
      <path
         inkscape:connector-curvature="0"
         id="rect5380-5"
         d="m 8.4241645,1030.5378 0,10.4047 -0.277798,0 0,-10.0764 -16.5668284,0 0,-0.3283 L 8.4241645,1030.5378 Z"
         style="color:#000000;fill:#ffffff;fill-opacity:0.48235294;fill-rule:nonzero;stroke:none;stroke-width:0.2;marker:none;visibility:visible;display:inline;overflow:visible;enable-background:accumulate" />
      <path
         id="path5393-9"
         d="m -8.4241579,1040.9466 4.0659442,3.8386 0,-0.5808 -3.0557722,-2.879 3.0557722,0 0,-0.3788 L -8.4241579,1040.9466 Z"
         style="fill:#000000;fill-opacity:0.17647059;stroke:none"
         inkscape:connector-curvature="0" />
      <path
         id="path863"
         d="m -5.8764007,1033.7578 0,3.9687 1.28125,0 c 0.245768,0 0.440429,-0.01 0.5625,-0.031 0.12207,-0.028 0.229492,-0.09 0.3125,-0.1563 0.08301,-0.068 0.123697,-0.1624 0.15625,-0.2812 0.03418,-0.1205 0.0625,-0.364 0.0625,-0.7188 l 0,-1.375 c 0,-0.3743 -0.0085,-0.6231 -0.03125,-0.75 -0.02279,-0.1286 -0.09635,-0.2396 -0.1875,-0.3437 -0.09115,-0.1045 -0.230469,-0.1735 -0.40625,-0.2188 -0.174154,-0.045 -0.503581,-0.094 -1,-0.094 L -5.8764007,1033.7578 z m 2.75,0 0,3.9687 1.03125,0 0,-1.7812 c 0.141601,0 0.217447,0.012 0.25,0.062 0.03418,0.05 0.0625,0.1947 0.0625,0.4062 l 0,1.3125 0.9375,0 0,-1.0625 c 0,-0.319 0.01791,-0.4925 0,-0.5625 -0.01628,-0.072 -0.08626,-0.1654 -0.15625,-0.25 -0.06999,-0.084 -0.202799,-0.1368 -0.40625,-0.1875 0.224609,-0.021 0.392253,-0.082 0.46875,-0.1875 0.0765,-0.1058 0.09375,-0.3174 0.09375,-0.625 0,-0.3369 -0.0472,-0.597 -0.15625,-0.75 -0.107422,-0.1547 -0.233724,-0.2439 -0.40625,-0.2812 -0.170899,-0.037 -0.514974,-0.062 -1,-0.062 L -3.1264007,1033.7578 z m 3,0 -0.53125,3.9687 1.0625,0 0.0625,-0.7187 0.375,0 0.03125,0.7187 1.0625002,0 -0.5937502,-3.9687 L -0.1264007,1033.7578 z m 1.9375002,0 0.46875,3.9687 1.28125,0 c 0.149737,-1.0498 0.240557,-1.7321 0.28125,-2.0625 0.08952,0.7731 0.195313,1.4554 0.3125,2.0625 l 1.28125,0 0.4375,-3.9687 -0.96875,0 c -0.133463,0.9147 -0.255533,1.8571 -0.3125,2.8125 l -0.09375,-1.5 c -0.06022,-0.7536 -0.110353,-1.197 -0.125,-1.3125 l -1.0625,0 c -0.151369,1.1181 -0.243817,2.0302 -0.28125,2.7187 l -0.125,-1.3437 -0.09375,-1.375 L 1.8110995,1033.7578 z m -6.6875002,0.6875 c 0.112305,0 0.209313,0.01 0.25,0.031 0.04069,0.023 0.05111,0.074 0.0625,0.125 0.01139,0.051 0.03125,0.1647 0.03125,0.3438 l 0,1.5312 c 0,0.2639 -0.02832,0.4087 -0.0625,0.4688 -0.03418,0.059 -0.133138,0.094 -0.28125,0.094 L -4.8764007,1034.4453 z m 2.78125,0 c 0.118815,0 0.206056,0.023 0.25,0.062 0.04557,0.039 0.0625,0.1246 0.0625,0.25 l 0,0.2187 c 0,0.1741 -0.0153,0.2798 -0.0625,0.3125 -0.04557,0.031 -0.13444,0.031 -0.25,0.031 L -2.0951507,1034.4453 z m 2.75,0.2187 c 0.05208,0.6575 0.104163,1.2086 0.15625,1.6563 l -0.375,0 C 0.4621403,1035.9703 0.5506823,1035.4192 0.6548493,1034.664 Z"
         style="font-size:5px;font-style:normal;font-variant:normal;font-weight:normal;font-stretch:normal;line-height:125%;letter-spacing:0px;word-spacing:0px;fill:#ffffff;fill-opacity:1;stroke:none;font-family:Impact;-inkscape-font-specification:Impact"
         inkscape:connector-curvature="0" />
      <path
         inkscape:connector-curvature="0"
         id="path876"
         d="m -5.8764007,1033.5996 0,0.1563 0.75,0 c 0.496419,0 0.825846,0.049 1,0.094 0.175781,0.045 0.3151,0.1143 0.40625,0.2188 0.09115,0.1041 0.16471,0.2151 0.1875,0.3437 -0.0036,-0.037 0.0047,-0.1299 0,-0.1562 -0.02279,-0.1286 -0.09635,-0.2397 -0.1875,-0.3438 -0.09115,-0.1045 -0.230469,-0.1734 -0.40625,-0.2187 -0.174154,-0.045 -0.503581,-0.094 -1,-0.094 L -5.8764007,1033.5996 z m 2.75,0 0,0.1563 0.71875,0 c 0.485026,0 0.829101,0.026 1,0.062 0.172526,0.037 0.298828,0.1265 0.40625,0.2812 0.05452,0.076 0.09957,0.1862 0.125,0.3125 -0.02165,-0.1927 -0.0511,-0.3651 -0.125,-0.4687 -0.107422,-0.1548 -0.233724,-0.244 -0.40625,-0.2813 -0.170899,-0.037 -0.514974,-0.062 -1,-0.062 L -3.1264007,1033.5996 z m 3,0 -0.53125,3.9688 0.03125,0 0.5,-3.8125 1.46875,0 0.5625002,3.8125 0.03125,0 -0.5937502,-3.9688 L -0.1264007,1033.5996 z m 1.9375002,0 0.03125,0.1563 0.96875,0 0,-0.1563 L 1.8110995,1033.5996 z m 1.5,0 c -0.08558,0.6322 -0.138882,1.1902 -0.1875,1.6875 0.04671,-0.4539 0.111815,-0.9722 0.1875,-1.5312 l 1.0625,0 c -0.0027,-0.023 0.0017,-0.1427 0,-0.1563 L 3.3110995,1033.5996 z m 1.59375,0 c -0.07409,0.5078 -0.129622,1.0402 -0.1875,1.5625 0.05432,-0.4694 0.120769,-0.9489 0.1875,-1.4062 l 0.9375,0 0.03125,0 0,-0.1563 L 4.9048495,1033.5996 z m -6.6875002,1.4375 c -0.0097,0.052 -0.0389,0.077 -0.0625,0.094 -0.04557,0.031 -0.13444,0.031 -0.25,0.031 l 0,0.1563 c 0.11556,0 0.20443,-3e-4 0.25,-0.031 C -1.8046937,1035.2592 -1.7866877,1035.1695 -1.7826507,1035.0371 z m 0.625,0.5625 c -0.07459,0.026 -0.149587,0.053 -0.25,0.062 0.203451,0.051 0.33626,0.1034 0.40625,0.1875 0.06999,0.085 0.13997,0.178 0.15625,0.25 -5.99e-4,-0.036 0.005,-0.1368 0,-0.1562 -0.01628,-0.072 -0.08626,-0.1654 -0.15625,-0.25 -0.02985,-0.036 -0.07169,-0.067 -0.125,-0.094 C -1.1355917,1035.595 -1.1477417,1035.604 -1.1576507,1035.5996 z m 1.625,0.5625 c -0.0036,0.037 -0.02877,0.123 -0.03125,0.1563 l 0.375,0 c -0.0049,-0.042 0.0049,-0.1126 0,-0.1563 L 0.4673493,1036.1621 z m -5.03125,0.4688 c -0.01135,0.077 -0.01416,0.1262 -0.03125,0.1562 -0.03418,0.059 -0.133138,0.094 -0.28125,0.094 l 0,0.1562 c 0.148112,0 0.24707,-0.035 0.28125,-0.094 C -4.5696007,1036.8985 -4.5735207,1036.7848 -4.5639007,1036.6308 Z"
         style="font-size:5px;font-style:normal;font-variant:normal;font-weight:normal;font-stretch:normal;line-height:125%;letter-spacing:0px;word-spacing:0px;fill:#000000;fill-opacity:0.54901961;stroke:none;font-family:Impact;-inkscape-font-specification:Impact" />
      <path
         inkscape:connector-curvature="0"
         id="path881"
         d="m -4.8764007,1034.4413 0,0.125 c 0.112305,0 0.209313,0.01 0.25,0.031 0.04069,0.022 0.05111,0.074 0.0625,0.125 -0.005,-0.035 0.0041,-0.107 0,-0.125 -0.01139,-0.051 -0.02181,-0.102 -0.0625,-0.125 C -4.6670877,1034.4516 -4.7640957,1034.4413 -4.8764007,1034.4413 z m 2.78125,0 0,0.125 c 0.118815,0 0.206056,0.023 0.25,0.062 0.02279,0.02 0.05257,0.052 0.0625,0.094 -0.0032,-0.1056 -0.02149,-0.1837 -0.0625,-0.2188 C -1.8890947,1034.4648 -1.9763357,1034.4413 -2.0951507,1034.4413 z m 2.75,0.3438 c -0.09406,0.6712 -0.194641,1.2073 -0.21875,1.5312 8.6e-5,-9e-4 0.03116,10e-4 0.03125,0 C 0.4999853,1035.9647 0.5586643,1035.4824 0.6548493,1034.7851 z m -1.53125,0.4375 c -0.01388,0.1046 -0.02425,0.1971 -0.0625,0.25 -0.0765,0.1055 -0.244141,0.1665 -0.46875,0.1875 0.09058,0.023 0.155486,0.068 0.21875,0.094 0.108737,-0.032 0.202752,-0.091 0.25,-0.1562 C -0.8879907,1035.5272 -0.8872087,1035.3838 -0.8764007,1035.2226 z m 4.7187502,0.4375 c -0.0024,0.02 0.0028,0.1028 0,0.125 0.08952,0.7731 0.195313,1.4554 0.3125,2.0625 l 1.28125,0 0,-0.125 -1.28125,0 C 4.0376625,1037.1156 3.9318695,1036.4333 3.8423495,1035.6601 z m -5.9375002,0.2812 0,0.125 c 0.141601,0 0.217447,0.012 0.25,0.062 0.03418,0.051 0.0625,0.1948 0.0625,0.4063 l 0,-0.125 c 0,-0.2115 -0.02832,-0.3553 -0.0625,-0.4063 C -1.8777037,1035.9538 -1.9535497,1035.9413 -2.0951507,1035.9413 z m 2.5625,1.0625 0,0.125 0.375,0 0,-0.125 L 0.4673493,1037.0038 z m -4.03125,0.25 c -0.03255,0.1188 -0.07324,0.2133 -0.15625,0.2813 -0.08301,0.066 -0.19043,0.1282 -0.3125,0.1562 -0.122071,0.021 -0.316732,0.031 -0.5625,0.031 l -1.28125,0 0,0.125 1.28125,0 c 0.245768,0 0.440429,-0.01 0.5625,-0.031 0.12207,-0.028 0.229492,-0.09 0.3125,-0.1562 0.08301,-0.068 0.123697,-0.1625 0.15625,-0.2813 C -3.5580007,1037.358 -3.5693357,1037.2819 -3.5639007,1037.2538 z m 0.4375,0.4688 0,0.125 1.03125,0 0,-0.125 L -3.1264007,1037.7226 z m 1.34375,0 0,0.125 0.9375,0 0,-0.125 L -1.7826507,1037.7226 z m 1.125,0 0,0.125 1.0625,0 0,-0.125 -1.03125,0 L -0.6576507,1037.7226 z m 1.53125,0 0,0.125 1.0625002,0 -0.03125,-0.125 L 0.8735993,1037.7226 z m 1.4062502,0 0,0.125 1.28125,0 c 0.0089,-0.062 -0.0085,-0.065 0,-0.125 L 2.2798495,1037.7226 Z"
         style="font-size:5px;font-style:normal;font-variant:normal;font-weight:normal;font-stretch:normal;line-height:125%;letter-spacing:0px;word-spacing:0px;fill:#ffffff;fill-opacity:0.54901961;stroke:none;font-family:Impact;-inkscape-font-specification:Impact" />
    </g>
  </g>
</svg>
