<?xml version="1.0" encoding="UTF-8" standalone="no"?>
<!-- Created with Inkscape (http://www.inkscape.org/) -->

<svg
   xmlns:dc="http://purl.org/dc/elements/1.1/"
   xmlns:cc="http://creativecommons.org/ns#"
   xmlns:rdf="http://www.w3.org/1999/02/22-rdf-syntax-ns#"
   xmlns:svg="http://www.w3.org/2000/svg"
   xmlns="http://www.w3.org/2000/svg"
   xmlns:xlink="http://www.w3.org/1999/xlink"
   xmlns:sodipodi="http://sodipodi.sourceforge.net/DTD/sodipodi-0.dtd"
   xmlns:inkscape="http://www.inkscape.org/namespaces/inkscape"
   width="48"
   height="48"
   id="svg2"
   version="1.1"
   inkscape:version="0.48+devel r12068"
   sodipodi:docname="libreoffice-math.svg">
  <defs
     id="defs4">
    <linearGradient
       id="linearGradient3795-8">
      <stop
         style="stop-color:#6a6a6a;stop-opacity:1;"
         offset="0"
         id="stop3797-9" />
      <stop
         style="stop-color:#3e3e3e;stop-opacity:1;"
         offset="1"
         id="stop3799-9" />
    </linearGradient>
    <linearGradient
       gradientTransform="matrix(0.80812257,0,0,0.80811015,1.9570175,1005.1392)"
       inkscape:collect="always"
       xlink:href="#linearGradient3795"
       id="linearGradient4573"
       x1="19.734877"
       y1="20.913715"
       x2="19.734877"
       y2="33.109589"
       gradientUnits="userSpaceOnUse" />
    <linearGradient
       id="linearGradient3795">
      <stop
         style="stop-color:#6a6a6a;stop-opacity:1;"
         offset="0"
         id="stop3797" />
      <stop
         style="stop-color:#3e3e3e;stop-opacity:1;"
         offset="1"
         id="stop3799" />
    </linearGradient>
  </defs>
  <sodipodi:namedview
     id="base"
     pagecolor="#ffffff"
     bordercolor="#666666"
     borderopacity="1.0"
     inkscape:pageopacity="0.0"
     inkscape:pageshadow="2"
     inkscape:zoom="9.5238449"
     inkscape:cx="30.144487"
     inkscape:cy="24.303548"
     inkscape:document-units="px"
     inkscape:current-layer="layer1"
     showgrid="false"
     inkscape:window-width="1366"
     inkscape:window-height="718"
     inkscape:window-x="0"
     inkscape:window-y="28"
     inkscape:window-maximized="1">
    <inkscape:grid
       type="xygrid"
       id="grid3850" />
  </sodipodi:namedview>
  <metadata
     id="metadata7">
    <rdf:RDF>
      <cc:Work
         rdf:about="">
        <dc:format>image/svg+xml</dc:format>
        <dc:type
           rdf:resource="http://purl.org/dc/dcmitype/StillImage" />
        <dc:title />
      </cc:Work>
    </rdf:RDF>
  </metadata>
  <g
     inkscape:label="Capa 1"
     inkscape:groupmode="layer"
     id="layer1"
     transform="translate(0,-1004.3622)">
    <rect
       style="color:#000000;fill:#333333;fill-opacity:1;fill-rule:nonzero;stroke:none;stroke-width:0.2;marker:none;visibility:visible;display:inline;overflow:visible;enable-background:accumulate"
       id="rect6294"
       width="45.5"
       height="45.5"
       x="1.25"
       y="1005.6122"
       ry="6.3565426" />
    <rect
       ry="5.8565426"
       y="1006.1122"
       x="1.75"
       height="44.5"
       width="44.5"
       id="rect6296"
       style="color:#000000;fill:#ffffff;fill-opacity:1;fill-rule:nonzero;stroke:none;stroke-width:0.2;marker:none;visibility:visible;display:inline;overflow:visible;enable-background:accumulate" />
    <path
       id="path6361"
       d="m 1.7499999,1012.5497 0,-0.5625 c 0,-3.2445 2.599225,-5.875 5.84375,-5.875 l 32.8125001,0 c 3.244525,0 5.84375,2.6305 5.84375,5.875 l 0,0.5625 c 0,-3.2445 -2.599225,-5.875 -5.84375,-5.875 l -32.8125001,0 C 4.3492249,1006.6747 1.7499999,1009.3052 1.7499999,1012.5497 Z"
       style="color:#000000;fill:#ffffff;fill-opacity:1;fill-rule:nonzero;stroke:none;stroke-width:0.2;marker:none;visibility:visible;display:inline;overflow:visible;enable-background:accumulate"
       inkscape:connector-curvature="0" />
    <path
       inkscape:connector-curvature="0"
       style="color:#000000;fill:#000000;fill-opacity:1;fill-rule:nonzero;stroke:none;stroke-width:0.2;marker:none;visibility:visible;display:inline;overflow:visible;enable-background:accumulate"
       d="m 1.7499999,1044.1747 0,0.5625 c 0,3.2445 2.599225,5.875 5.84375,5.875 l 32.8125001,0 c 3.244525,0 5.84375,-2.6305 5.84375,-5.875 l 0,-0.5625 c 0,3.2445 -2.599225,5.875 -5.84375,5.875 l -32.8125001,0 C 4.3492249,1050.0497 1.7499999,1047.4192 1.7499999,1044.1747 Z"
       id="path6388" />
    <path
       sodipodi:nodetypes="ccccccccccc"
       inkscape:connector-curvature="0"
       id="path1324"
       d="m 12.594591,1013.3622 0,30 22.810818,0 -1.1e-5,-22.4414 -7.551517,0 L 27.853875,1013.3622 z m 17.305269,0 5.505548,5.5127 L 35.405385,1013.3622 Z"
       style="color:#000000;fill:#000000;fill-opacity:1;fill-rule:nonzero;stroke:none;stroke-width:1.39999998;marker:none;visibility:visible;display:inline;overflow:visible;enable-background:accumulate" />
    <g
       id="g852"
       transform="matrix(0.93752999,0,0,0.93752999,2.6017921,66.213077)">
      <path
         id="path5343"
         d="m 6.5909451,1031.9173 4.0658659,3.8385 0,-3.8385 L 6.5909451,1031.9173 Z"
         style="fill:#3c3c3c;fill-opacity:1;stroke:none"
         inkscape:connector-curvature="0" />
      <rect
         ry="0"
         y="1021.5088"
         x="6.5909443"
         height="10.412477"
         width="16.848"
         id="rect4565"
         style="color:#000000;fill:url(#linearGradient4573);fill-opacity:1;fill-rule:nonzero;stroke:none;stroke-width:0.2;marker:none;visibility:visible;display:inline;overflow:visible;enable-background:accumulate" />
      <path
         inkscape:connector-curvature="0"
         id="rect5380"
         d="m 23.438944,1021.5088 0,10.4044 -0.277792,0 0,-10.076 -16.5665113,0 0,-0.3284 L 23.438944,1021.5088 Z"
         style="color:#000000;fill:#ffffff;fill-opacity:0.48235294;fill-rule:nonzero;stroke:none;stroke-width:0.2;marker:none;visibility:visible;display:inline;overflow:visible;enable-background:accumulate" />
      <path
         id="path5393"
         d="m 6.5909451,1031.9173 4.0658659,3.8385 0,-0.5808 -3.0557127,-2.8789 3.0557127,0 0,-0.3788 L 6.5909451,1031.9173 Z"
         style="fill:#000000;fill-opacity:0.17647059;stroke:none"
         inkscape:connector-curvature="0" />
      <path
         id="path837"
         d="m 9.7634443,1024.7285 0,3.9688 0.9062497,0 0,-2.625 0.375,2.625 0.625,0 0.375,-2.6875 0,2.6875 0.875,0 0,-3.9688 -1.34375,0 -0.21875,1.8438 -0.15625,-1 c -0.04395,-0.3223 -0.08594,-0.6061 -0.125,-0.8438 L 9.7634443,1024.7285 z m 3.8749997,0 -0.53125,3.9688 1.0625,0 0.0625,-0.7188 0.375,0 0.03125,0.7188 1.0625,0 -0.59375,-3.9688 L 13.638444,1024.7285 z m 1.78125,0 0,0.8125 0.625,0 0,3.1563 1.03125,0 0,-3.1563 0.59375,0 0,-0.8125 L 15.419694,1024.7285 z m 2.5,0 0,3.9688 1.03125,0 0,-1.6563 0.28125,0 0,1.6563 1.03125,0 0,-3.9688 -1.03125,0 0,1.4375 -0.28125,0 0,-1.4375 L 17.919694,1024.7285 z m -3.5,0.9063 c 0.05208,0.6575 0.104163,1.2087 0.15625,1.6562 l -0.34375,0 C 14.258235,1026.9411 14.315527,1026.39 14.419694,1025.6348 Z"
         style="font-size:5px;font-style:normal;font-variant:normal;font-weight:normal;font-stretch:normal;line-height:125%;letter-spacing:0px;word-spacing:0px;fill:#ffffff;fill-opacity:1;stroke:none;font-family:Impact;-inkscape-font-specification:Impact"
         inkscape:connector-curvature="0" />
      <path
         inkscape:connector-curvature="0"
         id="path850"
         d="m 9.7634443,1024.5098 0,0.2187 1.3124997,0 c 0.03906,0.2376 0.08105,0.5216 0.125,0.8438 l 0.15625,1 0.21875,-1.8438 1.34375,0 0,-0.2187 -1.34375,0 -0.21875,1.8437 -0.15625,-1 c -0.04395,-0.3222 -0.08594,-0.6061 -0.125,-0.8437 L 9.7634443,1024.5098 z m 3.8749997,0 -0.53125,3.9687 0.03125,0 0.5,-3.75 1.46875,0 0.5625,3.75 0.03125,0 -0.59375,-3.9687 L 13.638444,1024.5098 z m 1.78125,0 0,0.2187 2.25,0 0,-0.2187 L 15.419694,1024.5098 z m 2.5,0 0,0.2187 1.03125,0 0,-0.2187 L 17.919694,1024.5098 z m 1.3125,0 0,0.2187 1.03125,0 0,-0.2187 L 19.232194,1024.5098 z m -0.28125,1.4375 0,0.2187 0.28125,0 0,-0.2187 L 18.950944,1025.9473 z m -4.6875,1.125 c -0.0046,0.053 -0.0278,0.1724 -0.03125,0.2187 l 0.34375,0 c -0.0069,-0.059 -0.02434,-0.1557 -0.03125,-0.2187 L 14.263444,1027.0723 Z"
         style="font-size:5px;font-style:normal;font-variant:normal;font-weight:normal;font-stretch:normal;line-height:125%;letter-spacing:0px;word-spacing:0px;fill:#000000;fill-opacity:0.39215686;stroke:none;font-family:Impact;-inkscape-font-specification:Impact" />
      <path
         sodipodi:nodetypes="cccccccccccccccccccccccccccccccccccccccccccccccccccccccccccc"
         inkscape:connector-curvature="0"
         id="path855"
         d="m 15.419694,1025.5415 0,0.1875 0.625,0 L 16.044694,1025.5415 z m 1.65625,0 0,0.1875 0.59375,0 L 17.669694,1025.5415 z m -5.40625,3.1562 -0.625,0 c -0.48017,-3.3785 -0.438031,-2.8787 0,0.1875 l 0.625,0 C 12.110557,1025.743 12.151653,1025.2437 11.669694,1028.6977 z m 7.28125,-1.6562 0,0.1875 0.28125,0 L 19.232194,1027.0415 z m -4.71875,0.9375 0,0.1875 0.375,0 L 14.607194,1027.979 z m -4.4687497,0.7187 0,0.1875 0.9062497,0 L 10.669694,1028.6977 z m 2.2812497,0 0,0.1875 0.875,0 L 12.919694,1028.6977 z m 1.09375,0 -0.03125,0.1875 1.0625,0 L 14.169694,1028.6977 z m 1.5,0 0,0.1875 1.0625,0 L 15.669694,1028.6977 z m 1.40625,0 0,0.1875 1.03125,0 L 17.075944,1028.6977 z m 1.875,0 0,0.1875 1.03125,0 L 18.950944,1028.6977 z m 1.3125,0 0,0.1875 1.03125,0 L 20.263444,1028.6977 Z"
         style="font-size:5px;font-style:normal;font-variant:normal;font-weight:normal;font-stretch:normal;line-height:125%;letter-spacing:0px;word-spacing:0px;fill:#ffffff;fill-opacity:0.54901961;stroke:none;font-family:Impact;-inkscape-font-specification:Impact" />
    </g>
  </g>
</svg>
