<?xml version="1.0" encoding="UTF-8" standalone="no"?>
<!-- Created with Inkscape (http://www.inkscape.org/) -->

<svg
   xmlns:dc="http://purl.org/dc/elements/1.1/"
   xmlns:cc="http://creativecommons.org/ns#"
   xmlns:rdf="http://www.w3.org/1999/02/22-rdf-syntax-ns#"
   xmlns:svg="http://www.w3.org/2000/svg"
   xmlns="http://www.w3.org/2000/svg"
   xmlns:xlink="http://www.w3.org/1999/xlink"
   xmlns:sodipodi="http://sodipodi.sourceforge.net/DTD/sodipodi-0.dtd"
   xmlns:inkscape="http://www.inkscape.org/namespaces/inkscape"
   width="48"
   height="48"
   id="svg2"
   version="1.1"
   inkscape:version="0.48+devel r12068"
   sodipodi:docname="libreoffice-main.svg">
  <defs
     id="defs4">
    <linearGradient
       gradientTransform="matrix(0.80813804,0,0,0.80813804,1.0117714,1004.5084)"
       inkscape:collect="always"
       xlink:href="#linearGradient3795-1"
       id="linearGradient4573"
       x1="19.734877"
       y1="20.913715"
       x2="19.734877"
       y2="33.109589"
       gradientUnits="userSpaceOnUse" />
    <linearGradient
       id="linearGradient3795-1">
      <stop
         style="stop-color:#cfcfcf;stop-opacity:1;"
         offset="0"
         id="stop3797-4" />
      <stop
         style="stop-color:#a7a7a7;stop-opacity:1;"
         offset="1"
         id="stop3799-1" />
    </linearGradient>
  </defs>
  <sodipodi:namedview
     id="base"
     pagecolor="#ffffff"
     bordercolor="#666666"
     borderopacity="1.0"
     inkscape:pageopacity="0.0"
     inkscape:pageshadow="2"
     inkscape:zoom="9.5238449"
     inkscape:cx="19.941207"
     inkscape:cy="26.843501"
     inkscape:document-units="px"
     inkscape:current-layer="layer1"
     showgrid="false"
     inkscape:window-width="1366"
     inkscape:window-height="718"
     inkscape:window-x="0"
     inkscape:window-y="28"
     inkscape:window-maximized="1">
    <inkscape:grid
       type="xygrid"
       id="grid3850" />
  </sodipodi:namedview>
  <metadata
     id="metadata7">
    <rdf:RDF>
      <cc:Work
         rdf:about="">
        <dc:format>image/svg+xml</dc:format>
        <dc:type
           rdf:resource="http://purl.org/dc/dcmitype/StillImage" />
        <dc:title />
      </cc:Work>
    </rdf:RDF>
  </metadata>
  <g
     inkscape:label="Capa 1"
     inkscape:groupmode="layer"
     id="layer1"
     transform="translate(0,-1004.3622)">
    <rect
       style="color:#000000;fill:#333333;fill-opacity:1;fill-rule:nonzero;stroke:none;stroke-width:0.2;marker:none;visibility:visible;display:inline;overflow:visible;enable-background:accumulate"
       id="rect6294"
       width="45.5"
       height="45.5"
       x="1.25"
       y="1005.6122"
       ry="6.3565426" />
    <rect
       ry="5.8565426"
       y="1006.1122"
       x="1.75"
       height="44.5"
       width="44.5"
       id="rect6296"
       style="color:#000000;fill:#ffffff;fill-opacity:1;fill-rule:nonzero;stroke:none;stroke-width:0.2;marker:none;visibility:visible;display:inline;overflow:visible;enable-background:accumulate" />
    <path
       id="path6361"
       d="m 1.7499995,1012.5497 0,-0.5625 c 0,-3.2445 2.599225,-5.875 5.84375,-5.875 l 32.8124995,0 c 3.244525,0 5.84375,2.6305 5.84375,5.875 l 0,0.5625 c 0,-3.2445 -2.599225,-5.875 -5.84375,-5.875 l -32.8124995,0 C 4.3492245,1006.6747 1.7499995,1009.3052 1.7499995,1012.5497 Z"
       style="color:#000000;fill:#ffffff;fill-opacity:1;fill-rule:nonzero;stroke:none;stroke-width:0.2;marker:none;visibility:visible;display:inline;overflow:visible;enable-background:accumulate"
       inkscape:connector-curvature="0" />
    <path
       inkscape:connector-curvature="0"
       style="color:#000000;fill:#000000;fill-opacity:1;fill-rule:nonzero;stroke:none;stroke-width:0.2;marker:none;visibility:visible;display:inline;overflow:visible;enable-background:accumulate"
       d="m 1.7499995,1044.1747 0,0.5625 c 0,3.2445 2.599225,5.875 5.84375,5.875 l 32.8124995,0 c 3.244525,0 5.84375,-2.6305 5.84375,-5.875 l 0,-0.5625 c 0,3.2445 -2.599225,5.875 -5.84375,5.875 l -32.8124995,0 C 4.3492245,1050.0497 1.7499995,1047.4192 1.7499995,1044.1747 Z"
       id="path6388" />
    <path
       sodipodi:nodetypes="ccccccccccc"
       inkscape:connector-curvature="0"
       id="path1324"
       d="m 12.594589,1013.3622 0,30 22.810819,0 -1e-5,-22.4414 -7.551518,0 L 27.853873,1013.3622 z m 17.30527,0 5.505547,5.5127 L 35.405383,1013.3622 Z"
       style="color:#000000;fill:#000000;fill-opacity:1;fill-rule:nonzero;stroke:none;stroke-width:1.39999998;marker:none;visibility:visible;display:inline;overflow:visible;enable-background:accumulate" />
    <g
       id="g956"
       transform="matrix(0.93750439,0,0,0.93750439,3.4880506,66.830031)">
      <path
         id="path5343"
         d="m 5.6457874,1031.2874 4.065944,3.8386 0,-3.8386 L 5.6457874,1031.2874 Z"
         style="fill:#3c3c3c;fill-opacity:1;stroke:none"
         inkscape:connector-curvature="0" />
      <rect
         ry="0"
         y="1020.8787"
         x="5.6457863"
         height="10.412836"
         width="16.848322"
         id="rect4565"
         style="color:#000000;fill:url(#linearGradient4573);fill-opacity:1;fill-rule:nonzero;stroke:none;stroke-width:0.2;marker:none;visibility:visible;display:inline;overflow:visible;enable-background:accumulate" />
      <path
         inkscape:connector-curvature="0"
         id="rect5380"
         d="m 22.494109,1020.8786 0,10.4047 -0.277798,0 0,-10.0764 -16.5668276,0 0,-0.3283 L 22.494109,1020.8786 Z"
         style="color:#000000;fill:#ffffff;fill-opacity:0.48235294;fill-rule:nonzero;stroke:none;stroke-width:0.2;marker:none;visibility:visible;display:inline;overflow:visible;enable-background:accumulate" />
      <path
         id="path5393"
         d="m 5.6457874,1031.2874 4.065944,3.8386 0,-0.5808 -3.055772,-2.879 3.055772,0 0,-0.3788 L 5.6457874,1031.2874 Z"
         style="fill:#000000;fill-opacity:0.17647059;stroke:none"
         inkscape:connector-curvature="0" />
      <path
         inkscape:connector-curvature="0"
         id="path863"
         d="m 8.8810424,1024.0361 c -0.222982,0 -0.426107,0.021 -0.59375,0.094 -0.167643,0.073 -0.275716,0.1758 -0.375,0.3125 -0.09765,0.1367 -0.167967,0.3028 -0.1875,0.4688 -0.01791,0.1644 -0.03125,0.4466 -0.03125,0.8437 l 0,0.6563 c 0,0.4069 0.01172,0.7122 0.03125,0.875 0.01953,0.1628 0.08496,0.2991 0.1875,0.4375 0.102539,0.1383 0.238607,0.2425 0.40625,0.3125 0.169271,0.068 0.350911,0.094 0.5625,0.094 0.222982,0 0.426107,-0.021 0.59375,-0.094 0.167643,-0.073 0.308593,-0.1758 0.40625,-0.3125 0.09928,-0.1368 0.1383426,-0.3045 0.1562496,-0.4688 0.01953,-0.1661 0.03125,-0.4466 0.03125,-0.8437 l 0,-0.6563 c 0,-0.4069 -0.01172,-0.7123 -0.03125,-0.875 -0.01953,-0.1628 -0.08496,-0.2992 -0.1874996,-0.4375 -0.102539,-0.1383 -0.236979,-0.2442 -0.40625,-0.3125 C 9.2758994,1024.0598 9.0926314,1024.0361 8.8810424,1024.0361 z m 8.1874996,0 c -0.222982,0 -0.421224,0.017 -0.59375,0.094 -0.170898,0.075 -0.308593,0.1806 -0.40625,0.3125 -0.09603,0.1318 -0.167967,0.263 -0.1875,0.4063 -0.01953,0.1416 -0.03125,0.3714 -0.03125,0.6562 l 0,1.1563 c 0,0.3874 0.03028,0.6813 0.09375,0.875 0.06348,0.192 0.210937,0.3284 0.40625,0.4375 0.195313,0.109 0.448893,0.1562 0.75,0.1562 0.289713,0 0.52181,-0.059 0.71875,-0.1875 0.198567,-0.1286 0.318033,-0.2666 0.375,-0.4375 0.05859,-0.1709 0.09375,-0.4665 0.09375,-0.875 l 0,-0.1562 -1.03125,0 0,0.5 c 0,0.2164 -0.0068,0.3475 -0.03125,0.4062 -0.02279,0.059 -0.07975,0.094 -0.15625,0.094 -0.07975,0 -0.133463,-0.035 -0.15625,-0.094 -0.02279,-0.059 -0.03125,-0.1829 -0.03125,-0.375 l 0,-1.8437 c 0,-0.2004 0.0085,-0.315 0.03125,-0.375 0.02279,-0.06 0.07162,-0.094 0.15625,-0.094 0.07487,0 0.13509,0.012 0.15625,0.062 0.02279,0.049 0.03125,0.1748 0.03125,0.375 l 0,0.6875 1.03125,0 0,-0.375 c 0,-0.3695 -0.0319,-0.6384 -0.09375,-0.8125 -0.06185,-0.1758 -0.17806,-0.3204 -0.375,-0.4375 C 17.621602,1024.0751 17.371277,1024.0361 17.068542,1024.0361 z m -6.625,0.062 0,3.9687 1.03125,0 0,-1.6562 0.65625,0 0,-0.75 -0.65625,0 0,-0.75 0.71875,0 0,-0.8125 L 10.443542,1024.0986 z m 2,0 0,3.9687 1.03125,0 0,-1.6562 0.625,0 0,-0.75 -0.625,0 0,-0.75 0.71875,0 0,-0.8125 L 12.443542,1024.0986 z m 2,0 0,3.9687 1.03125,0 0,-3.9687 L 14.443542,1024.0986 z m 4.21875,0 0,3.9687 1.78125,0 0,-0.8125 -0.75,0 0,-0.8437 0.625,0 0,-0.75 -0.625,0 0,-0.75 0.6875,0 0,-0.8125 L 18.662292,1024.0986 z m -9.7812496,0.5937 c 0.06347,0 0.105467,0.042 0.125,0.094 0.02116,0.05 0.03125,0.1598 0.03125,0.3437 l 0,1.8125 c 0,0.2326 -0.01172,0.3755 -0.03125,0.4375 -0.01953,0.062 -0.05501,0.094 -0.125,0.094 -0.06836,0 -0.105467,-0.04 -0.125,-0.094 -0.01791,-0.054 -0.03125,-0.1767 -0.03125,-0.4062 l 0,-1.8438 c 0,-0.2035 0.0036,-0.3343 0.03125,-0.375 C 8.7853374,1024.7128 8.8273294,1024.6923 8.8810424,1024.6923 Z"
         style="font-size:5px;font-style:normal;font-variant:normal;font-weight:normal;font-stretch:normal;line-height:125%;letter-spacing:0px;word-spacing:0px;fill:#ffffff;fill-opacity:1;stroke:none;font-family:Impact;-inkscape-font-specification:Impact" />
      <path
         inkscape:connector-curvature="0"
         id="path882"
         d="m 8.8810424,1023.8798 c -0.222982,0 -0.426107,0.02 -0.59375,0.094 -0.167643,0.073 -0.275716,0.1757 -0.375,0.3125 -0.09765,0.1367 -0.167967,0.3027 -0.1875,0.4687 -0.0033,0.03 0.0029,0.1178 0,0.1563 0.01953,-0.1661 0.08985,-0.3321 0.1875,-0.4688 0.09928,-0.1368 0.207357,-0.2395 0.375,-0.3125 0.167643,-0.073 0.370768,-0.094 0.59375,-0.094 0.211589,0 0.394857,0.024 0.5625,0.094 0.169271,0.068 0.303711,0.1741 0.40625,0.3125 0.10254,0.1383 0.1679696,0.2747 0.1874996,0.4375 -0.003,-0.038 0.0035,-0.1272 0,-0.1562 -0.01953,-0.1628 -0.08496,-0.2992 -0.1874996,-0.4375 -0.102539,-0.1384 -0.236979,-0.2442 -0.40625,-0.3125 C 9.2758994,1023.9035 9.0926314,1023.8798 8.8810424,1023.8798 z m 8.1874996,0 c -0.222982,0 -0.421224,0.017 -0.59375,0.094 -0.170898,0.075 -0.308593,0.1806 -0.40625,0.3125 -0.09603,0.1318 -0.167967,0.2629 -0.1875,0.4062 -0.0046,0.034 0.0037,0.1131 0,0.1563 0.01953,-0.1433 0.09147,-0.2745 0.1875,-0.4063 0.09766,-0.1319 0.235352,-0.2375 0.40625,-0.3125 0.172526,-0.077 0.370768,-0.094 0.59375,-0.094 0.302735,0 0.55306,0.04 0.75,0.1562 0.19694,0.1171 0.31315,0.2617 0.375,0.4375 0.03093,0.087 0.04679,0.2086 0.0625,0.3438 -0.01405,-0.2018 -0.02131,-0.3841 -0.0625,-0.5 -0.06185,-0.1758 -0.17806,-0.3204 -0.375,-0.4375 C 17.621602,1023.9188 17.371277,1023.8798 17.068542,1023.8798 z m -6.625,0.062 0,0.1563 1.75,0 0,-0.1563 L 10.443542,1023.9423 z m 2,0 0,0.1563 1.75,0 0,-0.1563 L 12.443542,1023.9423 z m 2,0 0,0.1563 1.03125,0 0,-0.1563 L 14.443542,1023.9423 z m 4.21875,0 0,0.1563 1.71875,0 0,-0.1563 L 18.662292,1023.9423 z m -7.1875,1.5625 0,0.1563 0.65625,0 0,-0.1563 L 11.474792,1025.5048 z m 2,0 0,0.1563 0.625,0 0,-0.1563 L 13.474792,1025.5048 z m 6.21875,0 0,0.1563 0.625,0 0,-0.1563 L 19.693542,1025.5048 z m -2.4375,0.8125 0,0.1563 1.03125,0 0,-0.1563 L 17.256042,1026.3173 z m 2.4375,0.7813 0,0.1562 0.75,0 0,-0.1562 L 19.693542,1027.0986 z m -10.9374996,0.125 c 0.005,0.043 -0.0068,0.1356 0,0.1562 0.01953,0.054 0.05664,0.094 0.125,0.094 0.06999,0 0.10547,-0.032 0.125,-0.094 0.0069,-0.022 -0.0048,-0.1134 0,-0.1562 -0.01953,0.062 -0.05501,0.094 -0.125,0.094 C 8.8126854,1027.3173 8.7755754,1027.2776 8.7560424,1027.2236 z m 8.1562496,0 c 0.0049,0.047 -0.0094,0.1318 0,0.1562 0.02279,0.059 0.0765,0.094 0.15625,0.094 0.0765,0 0.13346,-0.035 0.15625,-0.094 0.0093,-0.022 -0.0048,-0.1119 0,-0.1562 -0.02279,0.059 -0.07975,0.094 -0.15625,0.094 C 16.988789,1027.3173 16.935079,1027.2822 16.912292,1027.2236 Z"
         style="font-size:5px;font-style:normal;font-variant:normal;font-weight:normal;font-stretch:normal;line-height:125%;letter-spacing:0px;word-spacing:0px;fill:#000000;fill-opacity:0.39215686;stroke:none;font-family:Impact;-inkscape-font-specification:Impact" />
      <path
         inkscape:connector-curvature="0"
         id="path887"
         d="m 8.8810424,1024.6884 c -0.05371,0 -0.09571,0.021 -0.125,0.062 -0.01373,0.02 0.0044,0.125 0,0.1875 0.02929,-0.042 0.07129,-0.062 0.125,-0.062 0.06347,0 0.105467,0.042 0.125,0.094 -0.0051,-0.064 0.01145,-0.1604 0,-0.1875 C 8.9865094,1024.7301 8.9445124,1024.6884 8.8810424,1024.6884 z m 8.1874996,0 c -0.08463,0 -0.13346,0.034 -0.15625,0.094 -0.0113,0.03 0.005,0.127 0,0.1875 0.02279,-0.06 0.07162,-0.094 0.15625,-0.094 0.07487,0 0.13509,0.012 0.15625,0.062 -0.005,-0.062 0.01132,-0.1632 0,-0.1875 C 17.203632,1024.7009 17.143412,1024.6884 17.068542,1024.6884 z m -5.59375,0.2187 0,0.1875 0.71875,0 0,-0.1875 L 11.474792,1024.9071 z m 2,0 0,0.1875 0.71875,0 0,-0.1875 L 13.474792,1024.9071 z m 6.21875,0 0,0.1875 0.6875,0 0,-0.1875 L 19.693542,1024.9071 z m -2.4375,0.9063 0,0.1875 1.03125,0 0,-0.1875 L 17.256042,1025.8134 z m -5.78125,0.5937 0,0.1875 0.65625,0 0,-0.1875 L 11.474792,1026.4071 z m 2,0 0,0.1875 0.625,0 0,-0.1875 L 13.474792,1026.4071 z m 6.21875,0 0,0.1875 0.625,0 0,-0.1875 L 19.693542,1026.4071 z m -3.8125,0.75 c 0.01322,0.2254 0.01891,0.4295 0.0625,0.5625 0.06348,0.1921 0.210937,0.3285 0.40625,0.4375 0.195313,0.109 0.448893,0.1563 0.75,0.1563 0.289713,0 0.52181,-0.059 0.71875,-0.1875 0.198567,-0.1286 0.318033,-0.2666 0.375,-0.4375 0.0396,-0.1155 0.04793,-0.3055 0.0625,-0.5313 -0.01611,0.1464 -0.03321,0.2584 -0.0625,0.3438 -0.05697,0.171 -0.176433,0.3089 -0.375,0.4375 -0.19694,0.1285 -0.429037,0.1875 -0.71875,0.1875 -0.301107,0 -0.554687,-0.047 -0.75,-0.1563 -0.195313,-0.1091 -0.34277,-0.2454 -0.40625,-0.4375 C 15.911807,1027.4353 15.896546,1027.3033 15.881042,1027.1571 z m -5.84375,0.094 c -0.01791,0.1644 -0.05697,0.332 -0.1562496,0.4687 -0.09766,0.1367 -0.238607,0.2395 -0.40625,0.3125 -0.167643,0.073 -0.370768,0.094 -0.59375,0.094 -0.211589,0 -0.393229,-0.026 -0.5625,-0.094 -0.167643,-0.07 -0.303711,-0.1742 -0.40625,-0.3125 -0.10254,-0.1383 -0.16797,-0.2747 -0.1875,-0.4375 0.0034,0.047 -0.0042,0.1527 0,0.1875 0.01953,0.1628 0.08496,0.2992 0.1875,0.4375 0.102539,0.1384 0.238607,0.2425 0.40625,0.3125 0.169271,0.068 0.350911,0.094 0.5625,0.094 0.222982,0 0.426107,-0.021 0.59375,-0.094 0.167643,-0.073 0.308593,-0.1757 0.40625,-0.3125 0.09928,-0.1367 0.1383426,-0.3044 0.1562496,-0.4687 C 10.041627,1027.4015 10.03377,1027.299 10.037292,1027.2509 z m 0.40625,0.8125 0,0.1875 1.03125,0 0,-0.1875 L 10.443542,1028.0634 z m 2,0 0,0.1875 1.03125,0 0,-0.1875 L 12.443542,1028.0634 z m 2,0 0,0.1875 1.03125,0 0,-0.1875 L 14.443542,1028.0634 z m 4.21875,0 0,0.1875 1.78125,0 0,-0.1875 L 18.662292,1028.0634 Z"
         style="font-size:5px;font-style:normal;font-variant:normal;font-weight:normal;font-stretch:normal;line-height:125%;letter-spacing:0px;word-spacing:0px;fill:#ffffff;fill-opacity:0.39215686;stroke:none;font-family:Impact;-inkscape-font-specification:Impact" />
    </g>
  </g>
</svg>
