<?xml version="1.0" encoding="UTF-8" standalone="no"?>
<!-- Created with Inkscape (http://www.inkscape.org/) -->

<svg
   xmlns:dc="http://purl.org/dc/elements/1.1/"
   xmlns:cc="http://creativecommons.org/ns#"
   xmlns:rdf="http://www.w3.org/1999/02/22-rdf-syntax-ns#"
   xmlns:svg="http://www.w3.org/2000/svg"
   xmlns="http://www.w3.org/2000/svg"
   xmlns:xlink="http://www.w3.org/1999/xlink"
   xmlns:sodipodi="http://sodipodi.sourceforge.net/DTD/sodipodi-0.dtd"
   xmlns:inkscape="http://www.inkscape.org/namespaces/inkscape"
   width="48"
   height="48"
   id="svg2"
   version="1.1"
   inkscape:version="0.48+devel r12149"
   sodipodi:docname="qtlinguistic.svg">
  <defs
     id="defs4">
    <linearGradient
       inkscape:collect="always"
       id="linearGradient843">
      <stop
         style="stop-color:#e5e5e5;stop-opacity:1"
         offset="0"
         id="stop845" />
      <stop
         style="stop-color:#e7e7e7;stop-opacity:1"
         offset="1"
         id="stop847" />
    </linearGradient>
    <linearGradient
       inkscape:collect="always"
       xlink:href="#linearGradient853"
       id="linearGradient859"
       x1="20.682873"
       y1="35.802406"
       x2="20.682873"
       y2="15.649865"
       gradientUnits="userSpaceOnUse"
       gradientTransform="matrix(-1.2440817,0,0,1.3153468,51.044233,992.0154)" />
    <linearGradient
       inkscape:collect="always"
       id="linearGradient853">
      <stop
         style="stop-color:#8cbbcf;stop-opacity:1"
         offset="0"
         id="stop855" />
      <stop
         style="stop-color:#a9ccdb;stop-opacity:1"
         offset="1"
         id="stop857" />
    </linearGradient>
    <linearGradient
       inkscape:collect="always"
       xlink:href="#linearGradient896"
       id="linearGradient902"
       x1="25.25"
       y1="33.479038"
       x2="25.25"
       y2="17.209579"
       gradientUnits="userSpaceOnUse" />
    <linearGradient
       inkscape:collect="always"
       id="linearGradient896">
      <stop
         style="stop-color:#ffffff;stop-opacity:1;"
         offset="0"
         id="stop898" />
      <stop
         style="stop-color:#ffffff;stop-opacity:0;"
         offset="1"
         id="stop900" />
    </linearGradient>
    <linearGradient
       inkscape:collect="always"
       xlink:href="#linearGradient843"
       id="linearGradient1453"
       x1="25.823139"
       y1="1050.6162"
       x2="25.823139"
       y2="1006.0754"
       gradientUnits="userSpaceOnUse" />
  </defs>
  <sodipodi:namedview
     id="base"
     pagecolor="#ffffff"
     bordercolor="#666666"
     borderopacity="1.0"
     inkscape:pageopacity="0.0"
     inkscape:pageshadow="2"
     inkscape:zoom="8.7076928"
     inkscape:cx="63.441923"
     inkscape:cy="24.128907"
     inkscape:document-units="px"
     inkscape:current-layer="layer1"
     showgrid="false"
     inkscape:window-width="1366"
     inkscape:window-height="716"
     inkscape:window-x="0"
     inkscape:window-y="28"
     inkscape:window-maximized="1"
     showguides="true"
     inkscape:guide-bbox="true">
    <inkscape:grid
       type="xygrid"
       id="grid3850" />
  </sodipodi:namedview>
  <metadata
     id="metadata7">
    <rdf:RDF>
      <cc:Work
         rdf:about="">
        <dc:format>image/svg+xml</dc:format>
        <dc:type
           rdf:resource="http://purl.org/dc/dcmitype/StillImage" />
        <dc:title />
      </cc:Work>
    </rdf:RDF>
  </metadata>
  <g
     inkscape:label="Capa 1"
     inkscape:groupmode="layer"
     id="layer1"
     transform="translate(0,-1004.3622)">
    <rect
       style="color:#000000;fill:#333333;fill-opacity:1;fill-rule:nonzero;stroke:none;stroke-width:0.2;marker:none;visibility:visible;display:inline;overflow:visible;enable-background:accumulate"
       id="rect6294"
       width="45.5"
       height="45.5"
       x="1.25"
       y="1005.6122"
       ry="6.3565426" />
    <rect
       ry="5.8565426"
       y="1006.1122"
       x="1.7499981"
       height="44.5"
       width="44.5"
       id="rect6296"
       style="color:#000000;fill:url(#linearGradient1453);fill-opacity:1.0;fill-rule:nonzero;stroke:none;stroke-width:0.2;marker:none;visibility:visible;display:inline;overflow:visible;enable-background:accumulate" />
    <path
       id="path6361"
       d="m 1.7499983,1012.5498 0,-0.5625 c 0,-3.2445 2.599225,-5.875 5.84375,-5.875 l 32.8125007,0 c 3.244525,0 5.843749,2.6305 5.843749,5.875 l 0,0.5625 c 0,-3.2445 -2.599224,-5.875 -5.843749,-5.875 l -32.8125007,0 C 4.3492233,1006.6748 1.7499983,1009.3053 1.7499983,1012.5498 Z"
       style="color:#000000;fill:#ffffff;fill-opacity:1;fill-rule:nonzero;stroke:none;stroke-width:0.2;marker:none;visibility:visible;display:inline;overflow:visible;enable-background:accumulate"
       inkscape:connector-curvature="0" />
    <path
       inkscape:connector-curvature="0"
       style="color:#000000;fill:#000000;fill-opacity:1;fill-rule:nonzero;stroke:none;stroke-width:0.2;marker:none;visibility:visible;display:inline;overflow:visible;enable-background:accumulate"
       d="m 1.7499983,1044.1748 0,0.5625 c 0,3.2445 2.599225,5.875 5.84375,5.875 l 32.8125007,0 c 3.244525,0 5.843749,-2.6305 5.843749,-5.875 l 0,-0.5625 c 0,3.2445 -2.599224,5.875 -5.843749,5.875 l -32.8125007,0 C 4.3492233,1050.0498 1.7499983,1047.4193 1.7499983,1044.1748 Z"
       id="path6388" />
    <g
       id="g857"
       transform="matrix(0.96392665,0,0,0.96392665,0.86311654,37.5192)">
      <path
         inkscape:connector-curvature="0"
         id="path851"
         d="m 23.985149,1012.3623 c 9.352499,0 16.95124,5.9751 16.95124,13.3592 0,7.3841 -7.598741,13.3995 -16.95124,13.3995 -1.726126,0 -3.395338,-0.2264 -4.964292,-0.6054 l -8.112378,4.7222 1.977644,-7.4263 c -3.5637785,-2.4511 -5.8118525,-6.0653 -5.8118525,-10.09 C 7.0742705,1018.3374 14.63265,1012.3623 23.985149,1012.3623 Z"
         style="fill:url(#linearGradient859);fill-opacity:1;stroke:none" />
      <path
         inkscape:connector-curvature="0"
         id="path865"
         d="m 23.985149,1012.3623 c 9.352499,0 16.95124,5.9751 16.95124,13.3592 0,0.095 0.0025,0.1883 0,0.2825 -0.191434,-7.2529 -7.718671,-13.0767 -16.95124,-13.0767 -9.215436,0 -16.6938065,5.8022 -16.9108785,13.0364 -0.0018,-0.081 0,-0.1612 0,-0.2422 C 7.0742705,1018.3374 14.63265,1012.3623 23.985149,1012.3623 z m -11.220106,23.9335 c 0.03976,0.028 0.08099,0.053 0.12108,0.081 l -1.816204,6.7401 -0.16144,0.1211 L 12.765043,1036.2958 Z"
         style="fill:#000000;fill-opacity:0.23634201;stroke:none" />
      <path
         inkscape:connector-curvature="0"
         id="path870"
         d="m 23.974235,1012.9247 c 9.219364,0 16.725408,5.8241 16.9375,13.0625 -0.0019,0.073 0.0034,0.1463 0,0.2188 -0.437634,-7.0763 -7.86582,-12.7188 -16.9375,-12.7188 -9.107964,0 -16.4938115,5.6651 -16.8749995,12.7813 -0.00328,-0.063 -0.029061,-0.1248 -0.03125,-0.1875 C 7.2155585,1018.7981 14.714299,1012.9247 23.974235,1012.9247 z m -11.21875,23.9375 c 0.03975,0.028 0.08491,0.035 0.125,0.062 l -1.65625,6.125 -0.125,0.094 L 12.755485,1036.8622 Z"
         style="fill:#000000;fill-opacity:0.118171;stroke:none" />
      <path
         inkscape:connector-curvature="0"
         id="path872"
         d="m 23.974235,1013.4872 c 9.108053,0 16.554555,5.665 16.9375,12.7813 -0.0049,0.094 -0.02388,0.188 -0.03125,0.2812 -0.576374,-6.9724 -7.928938,-12.5 -16.90625,-12.5 -9.001727,0 -16.3368895,5.5322 -16.8749995,12.5313 -0.00414,-0.051 0.00342,-0.1052 0,-0.1563 C 7.3775905,1019.2342 14.798543,1013.4872 23.974235,1013.4872 z m -11.21875,23.9375 c 0.03975,0.028 0.08491,0.035 0.125,0.062 l -1.46875,5.4688 -0.15625,0.062 L 12.755485,1037.4247 Z"
         style="fill:#000000;fill-opacity:0.05882353;stroke:none" />
      <path
         inkscape:connector-curvature="0"
         id="path874"
         d="m 40.855668,1027.0988 c -0.727772,6.8583 -7.999755,12.2694 -16.870519,12.2694 -1.726126,0 -3.395338,-0.2264 -4.964292,-0.6053 l -8.112378,4.7221 0.08072,-0.2825 8.031658,-4.6818 c 1.568954,0.3789 3.238166,0.6053 4.964292,0.6053 C 32.753116,1039.1261 39.986596,1033.8439 40.855668,1027.0988 z m -33.6603175,0.1214 c 0.479019,3.4215 2.572466,6.4519 5.6907725,8.5966 l -0.04036,0.2019 C 9.6815515,1033.8259 7.6061905,1030.7208 7.1953505,1027.2199 Z"
         style="fill:#ffffff;fill-opacity:1;stroke:none" />
      <path
         transform="matrix(-1.0691507,0,0,1.0559441,49.706606,999.9129)"
         d="m 38.499999,21.4375 c 0,4.936045 -6.47449,8.9375 -14.461179,8.9375 -7.986688,0 -14.4611785,-4.001455 -14.4611785,-8.9375 C 9.5776415,16.501455 16.052132,12.5 24.03882,12.5 32.025509,12.5 38.499999,16.501455 38.499999,21.4375 Z"
         sodipodi:ry="8.9375"
         sodipodi:rx="14.461179"
         sodipodi:cy="21.4375"
         sodipodi:cx="24.03882"
         id="path894"
         style="opacity:0.46200005;fill:url(#linearGradient902);fill-opacity:1;stroke:none"
         sodipodi:type="arc" />
    </g>
    <g
       id="g867"
       transform="translate(-1.3550002,-2.0520395)">
      <path
         sodipodi:nodetypes="csssssssssscsscccsssssssssccscccccccscscssscccccscs"
         style="fill:#000000;fill-opacity:0.5372549"
         id="path2400"
         d="m 41.175622,1049.3994 c 0.141025,0 0.148437,-0.02 0.148437,-0.4063 0,-0.3613 -0.0135,-0.4062 -0.122059,-0.4062 -0.231493,0 -0.428259,-0.1401 -0.537717,-0.3828 -0.06038,-0.1339 -0.09835,-0.2523 -0.08438,-0.263 0.01398,-0.011 0.158305,-0.096 0.320739,-0.1886 0.806441,-0.4617 1.167955,-1.4976 1.170255,-3.3531 0.0027,-2.2319 -0.55919,-3.2899 -1.891619,-3.5615 -0.418971,-0.085 -0.894193,-0.04 -1.267058,0.1222 -0.556967,0.2416 -0.981169,0.8884 -1.189926,1.8143 -0.148466,0.6585 -0.146664,2.4609 0.0031,3.1562 0.219777,1.02 0.73846,1.7758 1.361102,1.9834 0.230583,0.077 0.262728,0.1149 0.35965,0.4255 0.150741,0.4831 0.285423,0.7176 0.500073,0.8704 0.214695,0.1529 0.639734,0.2548 0.901221,0.2161 C 40.946327,1049.4114 41.093983,1049.3994 41.175624,1049.3994 z m -1.413066,-2.3316 c -0.19056,-0.095 -0.419336,-0.4273 -0.498997,-0.7247 -0.260475,-0.9727 -0.238657,-3.3809 0.03687,-4.0695 0.12507,-0.3126 0.413898,-0.5617 0.651253,-0.5617 0.262652,0 0.592969,0.3167 0.715694,0.6862 0.217024,0.6534 0.253592,2.8468 0.06283,3.7687 C 40.578526,1046.8998 40.176477,1047.2742 39.762556,1047.0678 z m 4.186503,0.4536 c 0.591402,-0.1314 0.625,-0.1604 0.625,-0.5401 0,-0.2948 -0.01462,-0.336 -0.109375,-0.3078 -0.374861,0.1113 -0.462186,0.1121 -0.580643,0.01 -0.115624,-0.1047 -0.122482,-0.2013 -0.122482,-1.7262 l 0,-1.6153 0.375,0 0.375,0 0,-0.3669 0,-0.367 -0.375,-0.043 -0.375,-0.042 0,-0.5869 c 0,-0.3229 -0.0211,-0.5998 -0.04687,-0.6155 -0.02578,-0.015 -0.185356,-0.038 -0.35461,-0.051 l -0.307737,-0.022 -0.107223,0.4375 c -0.05897,0.2406 -0.124935,0.5149 -0.14658,0.6094 -0.03367,0.147 -0.07079,0.1719 -0.256915,0.1719 l -0.21756,0 0,0.4062 0,0.4063 0.1875,0 0.1875,0 0,1.8149 c 0,2.2177 0.02492,2.3029 0.71875,2.4556 C 43.617337,1047.5888 43.652508,1047.5872 43.949059,1047.5214 Z"
         inkscape:connector-curvature="0" />
      <path
         inkscape:connector-curvature="0"
         id="path1427"
         d="m 39.542809,1040.8092 c -0.217785,0.021 -0.438567,0.075 -0.625,0.1563 -0.556967,0.2416 -0.978743,0.8866 -1.1875,1.8125 -0.04479,0.1986 -0.07625,0.4987 -0.09375,0.8437 0.01837,-0.2724 0.05663,-0.5229 0.09375,-0.6875 0.208757,-0.9259 0.630533,-1.5709 1.1875,-1.8125 0.372865,-0.1622 0.831029,-0.21 1.25,-0.125 1.165875,0.2377 1.751043,1.0798 1.875,2.7813 -0.101087,-1.8008 -0.675867,-2.6931 -1.875,-2.9375 C 39.958324,1040.798 39.760594,1040.7883 39.542809,1040.8092 z m 3.5,0.4375 -0.09375,0.4375 c -0.05897,0.2406 -0.134605,0.5305 -0.15625,0.625 -0.03367,0.147 -0.06388,0.1563 -0.25,0.1563 l -0.21875,0 0,0.1875 0.21875,0 c 0.186125,0 0.21633,-0.04 0.25,-0.1875 0.02164,-0.094 0.09728,-0.3532 0.15625,-0.5938 l 0.09375,-0.4375 0.3125,0 c 0.169254,0.013 0.34922,0.047 0.375,0.062 -0.0064,-0.046 0.0077,-0.1828 0,-0.1875 -0.02578,-0.015 -0.205746,-0.018 -0.375,-0.031 L 43.042809,1041.2467 z m 0.71875,1.2813 0,0.1562 0.375,0.062 0.375,0.031 0,-0.1563 -0.375,-0.062 L 43.761559,1042.528 z m -2.9375,2.75 c -0.02001,0.3454 -0.04606,0.6445 -0.09375,0.875 -0.15168,0.733 -0.554829,1.1126 -0.96875,0.9062 -0.19056,-0.095 -0.420339,-0.4213 -0.5,-0.7187 -0.06512,-0.2432 -0.125971,-0.5642 -0.15625,-0.9375 0.02915,0.4334 0.08257,0.8498 0.15625,1.125 0.07966,0.2974 0.30944,0.6237 0.5,0.7187 0.413921,0.2064 0.81707,-0.1732 0.96875,-0.9062 C 40.785942,1046.0716 40.805933,1045.6934 40.824059,1045.278 z m 2.96875,1.0625 c 0.01421,0.3154 0.02823,0.4406 0.09375,0.5 0.118457,0.1021 0.187639,0.1113 0.5625,0 0.04738,-0.014 0.07825,-0.012 0.09375,0.031 -0.0077,-0.1469 -0.02037,-0.2093 -0.09375,-0.1875 -0.374861,0.1113 -0.444043,0.1021 -0.5625,0 C 43.828747,1046.6319 43.808977,1046.5683 43.792809,1046.3405 z m -3.15625,1.75 c -0.01142,0.01 -0.05983,0.029 -0.0625,0.031 -0.01397,0.011 0.03337,0.1161 0.09375,0.25 0.109458,0.2427 0.299757,0.375 0.53125,0.375 0.05428,0 0.07681,0.037 0.09375,0.094 -0.0081,-0.1775 -0.01011,-0.25 -0.09375,-0.25 -0.231493,0 -0.421792,-0.1323 -0.53125,-0.375 C 40.641644,1048.1574 40.651905,1048.1352 40.636559,1048.0905 Z"
         style="fill:#000000;fill-opacity:1" />
    </g>
  </g>
</svg>
