<?xml version="1.0" encoding="UTF-8" standalone="no"?>
<!-- Created with Inkscape (http://www.inkscape.org/) -->

<svg
   xmlns:dc="http://purl.org/dc/elements/1.1/"
   xmlns:cc="http://creativecommons.org/ns#"
   xmlns:rdf="http://www.w3.org/1999/02/22-rdf-syntax-ns#"
   xmlns:svg="http://www.w3.org/2000/svg"
   xmlns="http://www.w3.org/2000/svg"
   xmlns:xlink="http://www.w3.org/1999/xlink"
   xmlns:sodipodi="http://sodipodi.sourceforge.net/DTD/sodipodi-0.dtd"
   xmlns:inkscape="http://www.inkscape.org/namespaces/inkscape"
   width="48"
   height="48"
   id="svg965"
   version="1.1"
   inkscape:version="0.48+devel r12130"
   sodipodi:docname="system-log-out.svg">
  <defs
     id="defs967">
    <linearGradient
       gradientUnits="userSpaceOnUse"
       y2="1005.7004"
       x2="25.1199"
       y1="1051.0239"
       x1="25.1199"
       id="linearGradient885"
       xlink:href="#linearGradient3257-0-3"
       inkscape:collect="always"
       gradientTransform="translate(0,1.7382813e-5)" />
    <linearGradient
       id="linearGradient3257-0-3">
      <stop
         offset="0"
         style="stop-color:#1f2732;stop-opacity:1"
         id="stop3259-2-3" />
      <stop
         offset="1"
         style="stop-color:#333b46;stop-opacity:1"
         id="stop3261-6-7" />
    </linearGradient>
  </defs>
  <sodipodi:namedview
     id="base"
     pagecolor="#ffffff"
     bordercolor="#666666"
     borderopacity="1.0"
     inkscape:pageopacity="0.0"
     inkscape:pageshadow="2"
     inkscape:zoom="3.959798"
     inkscape:cx="41.629324"
     inkscape:cy="49.604966"
     inkscape:document-units="px"
     inkscape:current-layer="layer1"
     showgrid="false"
     inkscape:window-width="1366"
     inkscape:window-height="717"
     inkscape:window-x="0"
     inkscape:window-y="28"
     inkscape:window-maximized="1" />
  <metadata
     id="metadata970">
    <rdf:RDF>
      <cc:Work
         rdf:about="">
        <dc:format>image/svg+xml</dc:format>
        <dc:type
           rdf:resource="http://purl.org/dc/dcmitype/StillImage" />
        <dc:title />
      </cc:Work>
    </rdf:RDF>
  </metadata>
  <g
     inkscape:label="Capa 1"
     inkscape:groupmode="layer"
     id="layer1"
     transform="translate(0,-1004.3622)">
    <rect
       style="color:#000000;fill:#333333;fill-opacity:1;fill-rule:nonzero;stroke:none;stroke-width:0.2;marker:none;visibility:visible;display:inline;overflow:visible;enable-background:accumulate"
       id="rect6294"
       width="45.5"
       height="45.5"
       x="1.25"
       y="1005.6122"
       ry="6.3565426" />
    <rect
       ry="5.8565426"
       y="1006.1122"
       x="1.75"
       height="44.5"
       width="44.5"
       id="rect6296"
       style="color:#000000;fill:url(#linearGradient885);fill-opacity:1.0;fill-rule:nonzero;stroke:none;stroke-width:0.2;marker:none;visibility:visible;display:inline;overflow:visible;enable-background:accumulate" />
    <path
       id="path6361"
       d="m 1.7499969,1012.5497 0,-0.5625 c 0,-3.2445 2.599225,-5.875 5.84375,-5.875 l 32.8125001,0 c 3.244525,0 5.84375,2.6305 5.84375,5.875 l 0,0.5625 c 0,-3.2445 -2.599225,-5.875 -5.84375,-5.875 l -32.8125001,0 C 4.3492219,1006.6747 1.7499969,1009.3052 1.7499969,1012.5497 Z"
       style="color:#000000;fill:#ffffff;fill-opacity:1;fill-rule:nonzero;stroke:none;stroke-width:0.2;marker:none;visibility:visible;display:inline;overflow:visible;enable-background:accumulate"
       inkscape:connector-curvature="0" />
    <path
       inkscape:connector-curvature="0"
       style="color:#000000;fill:#000000;fill-opacity:1;fill-rule:nonzero;stroke:none;stroke-width:0.2;marker:none;visibility:visible;display:inline;overflow:visible;enable-background:accumulate"
       d="m 1.7499969,1044.1747 0,0.5625 c 0,3.2445 2.599225,5.875 5.84375,5.875 l 32.8125001,0 c 3.244525,0 5.84375,-2.6305 5.84375,-5.875 l 0,-0.5625 c 0,3.2445 -2.599225,5.875 -5.84375,5.875 l -32.8125001,0 C 4.3492219,1050.0497 1.7499969,1047.4192 1.7499969,1044.1747 Z"
       id="path6388" />
    <g
       id="g858"
       transform="matrix(0.80771095,0,0,0.80771095,-41.847257,196.4637)">
      <path
         id="path866"
         d="m 67.553578,1045.2996 c -0.429327,0 -0.82675,0.076 -1.21875,0.2188 -0.578667,0.2115 -1.045227,0.5458 -1.375,1 -0.423107,0.5849 -0.625001,1.3543 -0.625001,2.3125 0,0.952 0.195674,1.7214 0.625001,2.3125 0.336,0.4604 0.80878,0.7946 1.375,1 0.392,0.1431 0.789423,0.2187 1.21875,0.2187 0.429333,0 0.82675,-0.076 1.21875,-0.2187 0.56622,-0.2054 1.013977,-0.5396 1.34375,-1 0.423107,-0.5849 0.65625,-1.3543 0.65625,-2.3125 0,-0.9582 -0.233143,-1.7276 -0.65625,-2.3125 -0.329773,-0.4542 -0.771303,-0.7885 -1.34375,-1 C 68.380335,1045.3753 67.976691,1045.2996 67.553578,1045.2996 z m 7.3125,0 c -1.070213,0 -1.908893,0.3658 -2.5,1.0938 -0.522667,0.6409 -0.78125,1.4732 -0.78125,2.4687 0,1.1263 0.31528,1.9904 0.9375,2.625 0.56622,0.5787 1.29137,0.875 2.15625,0.875 0.535113,0 0.995447,-0.1073 1.375,-0.3437 0.211553,-0.1307 0.451197,-0.3764 0.71875,-0.6875 l 0.125,0.8437 0.9375,0 0,-3.5937 -2.8125,0 0,1.125 1.5625,0 c -0.124447,0.5849 -0.395613,1.0011 -0.8125,1.25 -0.248887,0.1493 -0.52006,0.2187 -0.8125,0.2187 -0.56622,0 -1.013977,-0.1576 -1.34375,-0.4687 -0.410667,-0.3858 -0.59375,-1.0038 -0.59375,-1.8438 0,-0.8026 0.1705,-1.4144 0.5625,-1.8437 0.34222,-0.3734 0.796203,-0.5625 1.34375,-0.5625 0.435553,0 0.820107,0.1638 1.125,0.4687 0.23644,0.2365 0.34375,0.4321 0.34375,0.625 l 1.40625,0 c 0,-0.5413 -0.25209,-1.0269 -0.71875,-1.4687 C 76.531048,1045.5582 75.799405,1045.2996 74.866078,1045.2996 z m 9.78125,0 c -0.429333,0 -0.826757,0.076 -1.21875,0.2188 -0.578667,0.2115 -1.045227,0.5458 -1.375,1 -0.423113,0.5849 -0.625,1.3543 -0.625,2.3125 0,0.952 0.195667,1.7214 0.625,2.3125 0.336,0.4604 0.80878,0.7946 1.375,1 0.391993,0.1431 0.789417,0.2187 1.21875,0.2187 0.429333,0 0.858007,-0.076 1.25,-0.2187 0.56622,-0.2054 1.013977,-0.5396 1.34375,-1 0.423113,-0.5849 0.625,-1.3543 0.625,-2.3125 0,-0.9582 -0.201887,-1.7276 -0.625,-2.3125 -0.329773,-0.4542 -0.80256,-0.7885 -1.375,-1 C 85.474078,1045.3753 85.070435,1045.2996 84.647328,1045.2996 z m -25.718751,0.1875 0,6.6875 4.71875,0 0,-1.2187 -3.3125,0 0,-5.4688 L 58.928577,1045.4871 z m 30.031251,0 -0.03125,4.4375 c 0,0.6783 0.182803,1.2206 0.53125,1.625 0.28,0.3049 0.633173,0.5194 1.0625,0.6563 0.317333,0.1 0.69553,0.1562 1.09375,0.1562 0.877327,0 1.539553,-0.1955 2,-0.5937 0.491547,-0.4231 0.71875,-1.0789 0.71875,-1.9375 l 0,-4.3438 -1.40625,0 0,4.4063 c 0,0.4169 -0.12597,0.751 -0.34375,0.9687 -0.217773,0.2178 -0.533333,0.3125 -1,0.3125 -0.34844,0 -0.651,-0.1197 -0.875,-0.3437 -0.224,-0.2302 -0.34375,-0.5582 -0.34375,-1 l 0,-4.3438 L 88.959828,1045.4871 z m 6.1875,0 0,1.1875 2.031248,0 0,5.5 1.40625,0 0,-5.5 2.031254,0 0,-1.1875 L 95.147328,1045.4871 z m -27.59375,1 c 0.479113,0 0.870173,0.1577 1.1875,0.4688 0.410667,0.4044 0.625,1.0288 0.625,1.875 0,0.8462 -0.208113,1.4705 -0.625,1.875 -0.317333,0.3111 -0.714613,0.4687 -1.1875,0.4687 -0.479107,0 -0.863947,-0.1576 -1.1875,-0.4687 -0.416887,-0.4045 -0.625,-1.0288 -0.625,-1.875 0,-0.8462 0.201893,-1.4706 0.625,-1.875 C 66.689631,1046.6448 67.080691,1046.4871 67.553578,1046.4871 z m 17.09375,0 c 0.479107,0 0.870167,0.1577 1.1875,0.4688 0.410667,0.4044 0.625,1.0288 0.625,1.875 0,0.8462 -0.208113,1.4705 -0.625,1.875 -0.317333,0.3111 -0.714613,0.4687 -1.1875,0.4687 -0.479107,0 -0.863947,-0.1576 -1.1875,-0.4687 -0.416887,-0.4045 -0.625,-1.0288 -0.625,-1.875 0,-0.8462 0.201893,-1.4706 0.625,-1.875 C 83.783381,1046.6448 84.174441,1046.4871 84.647328,1046.4871 Z"
         style="font-size:9.33328247px;font-style:normal;font-variant:normal;font-weight:bold;font-stretch:normal;text-align:start;line-height:125%;letter-spacing:0px;word-spacing:0px;writing-mode:lr-tb;text-anchor:start;fill:#ffffff;fill-opacity:0.5372543;stroke:none;font-family:Helvetica;-inkscape-font-specification:Helvetica Bold"
         inkscape:connector-curvature="0" />
      <path
         inkscape:connector-curvature="0"
         id="path885"
         d="m 74.928578,1046.447 c -0.54755,0 -1.00153,0.1891 -1.34375,0.5625 -0.33001,0.3614 -0.48478,0.8436 -0.53125,1.4687 0.0663,-0.5308 0.23725,-0.9592 0.53125,-1.2812 0.34222,-0.3734 0.7962,-0.5625 1.34375,-0.5625 0.43555,0 0.82011,0.1638 1.125,0.4687 0.23644,0.2365 0.34375,0.4321 0.34375,0.625 l 1.40625,0 c 0,-0.062 0.007,-0.1268 0,-0.1875 l -1.40625,0 c 0,-0.1929 -0.10731,-0.3886 -0.34375,-0.625 C 75.748688,1046.6108 75.364128,1046.447 74.928578,1046.447 z m -7.375,0.031 c -0.47289,0 -0.86395,0.1576 -1.1875,0.4687 -0.35064,0.3352 -0.53597,0.8304 -0.59375,1.4688 0.0766,-0.5516 0.27642,-0.978 0.59375,-1.2813 0.32355,-0.3111 0.71461,-0.4687 1.1875,-0.4687 0.47911,0 0.87017,0.1576 1.1875,0.4687 0.308,0.3033 0.51422,0.7297 0.59375,1.2813 -0.0604,-0.6384 -0.25342,-1.1336 -0.59375,-1.4688 C 68.423748,1046.6358 68.032688,1046.4782 67.553578,1046.4782 z m 17.09375,0 c -0.47289,0 -0.86395,0.1576 -1.1875,0.4687 -0.35064,0.3352 -0.53597,0.8304 -0.59375,1.4688 0.0766,-0.5516 0.27642,-0.978 0.59375,-1.2813 0.32355,-0.3111 0.71461,-0.4687 1.1875,-0.4687 0.47911,0 0.87017,0.1576 1.1875,0.4687 0.308,0.3033 0.51422,0.7297 0.59375,1.2813 -0.0604,-0.6384 -0.25342,-1.1336 -0.59375,-1.4688 C 85.517498,1046.6358 85.126438,1046.4782 84.647328,1046.4782 z m 10.5,0.1875 0,0.1875 2.031248,0 0,-0.1875 L 95.147328,1046.6657 z m 3.437498,0 0,0.1875 2.031254,0 0,-0.1875 L 98.584826,1046.6657 z m -34.218749,2.8125 c 0.0563,0.738 0.23767,1.3535 0.593751,1.8437 0.336,0.4604 0.80878,0.7947 1.375,1 0.392,0.1431 0.78942,0.2188 1.21875,0.2188 0.42933,0 0.82675,-0.076 1.21875,-0.2188 0.56622,-0.2053 1.01398,-0.5396 1.34375,-1 0.35092,-0.4851 0.56006,-1.1024 0.625,-1.8437 -0.0854,0.648 -0.30767,1.2175 -0.625,1.6562 -0.32977,0.4604 -0.77753,0.7947 -1.34375,1 -0.392,0.1432 -0.78942,0.2188 -1.21875,0.2188 -0.42933,0 -0.82675,-0.076 -1.21875,-0.2188 -0.56622,-0.2053 -1.039,-0.5396 -1.375,-1 C 64.637827,1050.6911 64.441237,1050.1239 64.366077,1049.4782 z m 17.093751,0 c 0.0563,0.738 0.23767,1.3535 0.59375,1.8437 0.336,0.4604 0.80878,0.7947 1.375,1 0.39199,0.1431 0.78942,0.2188 1.21875,0.2188 0.42933,0 0.85801,-0.076 1.25,-0.2188 0.56622,-0.2053 1.01398,-0.5396 1.34375,-1 0.35092,-0.4851 0.53615,-1.1024 0.59375,-1.8437 -0.0766,0.648 -0.27642,1.2175 -0.59375,1.6562 -0.32977,0.4604 -0.77753,0.7947 -1.34375,1 -0.39199,0.1432 -0.82067,0.2188 -1.25,0.2188 -0.42933,0 -0.82676,-0.076 -1.21875,-0.2188 -0.56622,-0.2053 -1.039,-0.5396 -1.375,-1 C 81.731578,1050.6911 81.534988,1050.1239 81.459828,1049.4782 z m -9.8125,0.1562 c 0.0969,0.832 0.37124,1.5174 0.875,2.0313 0.56622,0.5786 1.29137,0.875 2.15625,0.875 0.53511,0 0.99545,-0.1073 1.375,-0.3438 0.21155,-0.1307 0.4512,-0.3764 0.71875,-0.6875 l 0.125,0.8438 0.9375,0 0,-0.1875 -0.9375,0 -0.125,-0.8438 c -0.26755,0.3111 -0.5072,0.5568 -0.71875,0.6875 -0.37955,0.2364 -0.83989,0.3438 -1.375,0.3438 -0.86488,0 -1.59003,-0.2964 -2.15625,-0.875 C 72.055658,1051.0022 71.765168,1050.3824 71.647328,1049.6345 z m 3.375,0.062 0,0.1875 1.5,0 c 0.0184,-0.063 0.048,-0.1195 0.0625,-0.1875 L 75.022328,1049.697 z m 13.9375,0.6875 c 0.0464,0.5414 0.20397,1.0002 0.5,1.3438 0.28,0.3048 0.63317,0.5193 1.0625,0.6562 0.31733,0.1 0.69553,0.1563 1.09375,0.1563 0.87733,0 1.53955,-0.1956 2,-0.5938 0.40736,-0.3506 0.6221,-0.878 0.6875,-1.5312 -0.0869,0.5665 -0.31884,1.0264 -0.6875,1.3437 -0.46045,0.3982 -1.12267,0.5938 -2,0.5938 -0.39822,0 -0.77642,-0.057 -1.09375,-0.1563 -0.42933,-0.1369 -0.7825,-0.3514 -1.0625,-0.6562 C 89.198488,1051.2374 89.027578,1050.8421 88.959828,1050.3845 z m -30.031251,1.7813 0,0.1875 4.71875,0 0,-0.1875 L 58.928577,1052.1657 z m 38.249999,0 0,0.1875 1.40625,0 0,-0.1875 L 97.178576,1052.1657 Z"
         style="font-size:9.33328247px;font-style:normal;font-variant:normal;font-weight:bold;font-stretch:normal;text-align:start;line-height:125%;letter-spacing:0px;word-spacing:0px;writing-mode:lr-tb;text-anchor:start;fill:#ffffff;fill-opacity:0.15686275;stroke:none;font-family:Helvetica;-inkscape-font-specification:Helvetica Bold" />
      <path
         inkscape:connector-curvature="0"
         id="path897"
         d="m 67.553578,1045.1121 c -0.42933,0 -0.82675,0.076 -1.21875,0.2188 -0.57867,0.2115 -1.04523,0.5458 -1.375,1 -0.346121,0.4784 -0.533121,1.0847 -0.593751,1.8125 0.0766,-0.6481 0.27642,-1.1863 0.593751,-1.625 0.32977,-0.4542 0.79633,-0.7885 1.375,-1 0.392,-0.1432 0.78942,-0.2188 1.21875,-0.2188 0.42311,0 0.82676,0.076 1.21875,0.2188 0.57245,0.2115 1.01398,0.5458 1.34375,1 0.31733,0.4387 0.5396,0.9769 0.625,1.625 -0.0682,-0.7278 -0.27888,-1.3341 -0.625,-1.8125 -0.32977,-0.4542 -0.7713,-0.7885 -1.34375,-1 C 68.380338,1045.1878 67.976688,1045.1121 67.553578,1045.1121 z m 7.3125,0 c -1.07021,0 -1.90889,0.3658 -2.5,1.0938 -0.42583,0.5221 -0.64053,1.1765 -0.71875,1.9375 0.0972,-0.6841 0.32675,-1.2693 0.71875,-1.75 0.59111,-0.728 1.42979,-1.0938 2.5,-1.0938 0.93333,0 1.66497,0.2586 2.21875,0.7813 0.34999,0.3313 0.59472,0.6768 0.6875,1.0625 -0.0584,-0.4553 -0.28398,-0.868 -0.6875,-1.25 C 76.531048,1045.3707 75.799408,1045.1121 74.866078,1045.1121 z m 9.78125,0 c -0.42933,0 -0.82676,0.076 -1.21875,0.2188 -0.57867,0.2115 -1.04523,0.5458 -1.375,1 -0.34612,0.4784 -0.53313,1.0847 -0.59375,1.8125 0.0766,-0.6481 0.27642,-1.1863 0.59375,-1.625 0.32977,-0.4542 0.79633,-0.7885 1.375,-1 0.39199,-0.1432 0.78942,-0.2188 1.21875,-0.2188 0.42311,0 0.82675,0.076 1.21875,0.2188 0.57244,0.2115 1.04523,0.5458 1.375,1 0.31733,0.4387 0.51713,0.9769 0.59375,1.625 -0.0606,-0.7278 -0.24763,-1.3341 -0.59375,-1.8125 -0.32977,-0.4542 -0.80256,-0.7885 -1.375,-1 C 85.474078,1045.1878 85.070438,1045.1121 84.647328,1045.1121 z m -25.718751,0.1875 0,0.1875 1.40625,0 0,-0.1875 L 58.928577,1045.2996 z m 30.031251,0 0,0.1875 1.40625,0 0,-0.1875 L 88.959828,1045.2996 z m 3.96875,0 0,0.1875 1.40625,0 0,-0.1875 L 92.928578,1045.2996 z m 2.21875,0 0,0.1875 5.468752,0 0,-0.1875 L 95.147328,1045.2996 z m -20.125,3.0938 0,0.1875 2.8125,0 0,-0.1875 L 75.022328,1048.3934 z m -9.25,0.8437 c 0.0591,0.6384 0.24826,1.1336 0.59375,1.4688 0.32355,0.3111 0.70839,0.4687 1.1875,0.4687 0.47289,0 0.87017,-0.1576 1.1875,-0.4687 0.34549,-0.3352 0.53466,-0.8304 0.59375,-1.4688 -0.0781,0.5516 -0.28109,0.978 -0.59375,1.2813 -0.31733,0.3111 -0.71461,0.4687 -1.1875,0.4687 -0.47911,0 -0.86395,-0.1576 -1.1875,-0.4687 C 66.053408,1050.2151 65.850398,1049.7887 65.772328,1049.2371 z m 17.09375,0 c 0.0591,0.6384 0.24826,1.1336 0.59375,1.4688 0.32355,0.3111 0.70839,0.4687 1.1875,0.4687 0.47289,0 0.87017,-0.1576 1.1875,-0.4687 0.34549,-0.3352 0.53466,-0.8304 0.59375,-1.4688 -0.0781,0.5516 -0.28109,0.978 -0.59375,1.2813 -0.31733,0.3111 -0.71461,0.4687 -1.1875,0.4687 -0.47911,0 -0.86395,-0.1576 -1.1875,-0.4687 C 83.147158,1050.2151 82.944148,1049.7887 82.866078,1049.2371 z m -9.8125,0.031 c 0.0554,0.6222 0.22607,1.1215 0.5625,1.4375 0.32977,0.3111 0.77753,0.4688 1.34375,0.4688 0.29244,0 0.56361,-0.069 0.8125,-0.2188 0.41689,-0.2489 0.68805,-0.6651 0.8125,-1.25 l -0.0625,0 c -0.14011,0.4823 -0.38156,0.8426 -0.75,1.0625 -0.24889,0.1494 -0.52006,0.2188 -0.8125,0.2188 -0.56622,0 -1.01398,-0.1577 -1.34375,-0.4688 C 73.308078,1050.2291 73.124318,1049.8146 73.053578,1049.2684 z m 17.3125,0.375 0,0.1875 c 0,0.4418 0.11975,0.7698 0.34375,1 0.224,0.224 0.52656,0.3438 0.875,0.3438 0.46667,0 0.78223,-0.095 1,-0.3125 0.21778,-0.2178 0.34375,-0.5519 0.34375,-0.9688 l 0,-0.1875 c 0,0.4169 -0.12597,0.751 -0.34375,0.9688 -0.21777,0.2178 -0.53333,0.3125 -1,0.3125 -0.34844,0 -0.651,-0.1198 -0.875,-0.3438 C 90.485828,1050.4132 90.366078,1050.0852 90.366078,1049.6434 z m -30.031251,1.125 0,0.1875 3.3125,0 0,-0.1875 L 60.334827,1050.7684 Z"
         style="font-size:9.33328247px;font-style:normal;font-variant:normal;font-weight:bold;font-stretch:normal;text-align:start;line-height:125%;letter-spacing:0px;word-spacing:0px;writing-mode:lr-tb;text-anchor:start;fill:#000000;fill-opacity:0.5372543;stroke:none;font-family:Helvetica;-inkscape-font-specification:Helvetica Bold" />
    </g>
  </g>
</svg>
