<?xml version="1.0" encoding="UTF-8" standalone="no"?>
<!-- Created with Inkscape (http://www.inkscape.org/) -->

<svg
   xmlns:dc="http://purl.org/dc/elements/1.1/"
   xmlns:cc="http://creativecommons.org/ns#"
   xmlns:rdf="http://www.w3.org/1999/02/22-rdf-syntax-ns#"
   xmlns:svg="http://www.w3.org/2000/svg"
   xmlns="http://www.w3.org/2000/svg"
   xmlns:xlink="http://www.w3.org/1999/xlink"
   xmlns:sodipodi="http://sodipodi.sourceforge.net/DTD/sodipodi-0.dtd"
   xmlns:inkscape="http://www.inkscape.org/namespaces/inkscape"
   width="48"
   height="48"
   id="svg2"
   version="1.1"
   inkscape:version="0.48+devel r12137"
   sodipodi:docname="midori.svg">
  <defs
     id="defs4">
    <linearGradient
       inkscape:collect="always"
       id="linearGradient870">
      <stop
         style="stop-color:#2c9f0e;stop-opacity:1"
         offset="0"
         id="stop872" />
      <stop
         style="stop-color:#a3e279;stop-opacity:1"
         offset="1"
         id="stop874" />
    </linearGradient>
    <linearGradient
       x1="59"
       y1="40"
       x2="69"
       y2="40"
       id="linearGradient4578"
       xlink:href="#linearGradient5932-3-2-4"
       gradientUnits="userSpaceOnUse"
       gradientTransform="matrix(0.32085591,0.32085591,-0.24975391,0.24975391,19.449201,991.02608)" />
    <linearGradient
       id="linearGradient5932-3-2-4">
      <stop
         id="stop5934-3-2-9"
         style="stop-color:#ff7c53;stop-opacity:1"
         offset="0" />
      <stop
         id="stop5940-1-4-5"
         style="stop-color:#f21919;stop-opacity:1"
         offset="0.5" />
      <stop
         id="stop5942-5-4-7"
         style="stop-color:#db1414;stop-opacity:1"
         offset="0.5" />
      <stop
         id="stop5936-2-5-0"
         style="stop-color:#9b1818;stop-opacity:1"
         offset="1" />
    </linearGradient>
    <linearGradient
       x1="59"
       y1="88"
       x2="69"
       y2="88"
       id="linearGradient4580"
       xlink:href="#linearGradient5944-6-9-3"
       gradientUnits="userSpaceOnUse"
       gradientTransform="matrix(0.32085591,0.32085591,-0.24975391,0.24975391,19.449201,991.02608)" />
    <linearGradient
       id="linearGradient5944-6-9-3">
      <stop
         id="stop5946-9-5-0"
         style="stop-color:#f0f0f0;stop-opacity:1"
         offset="0" />
      <stop
         id="stop5952-4-9-7"
         style="stop-color:#e6e6e6;stop-opacity:1"
         offset="0.5" />
      <stop
         id="stop5954-4-7-2"
         style="stop-color:#d2d2d2;stop-opacity:1"
         offset="0.5" />
      <stop
         id="stop5948-6-2-1"
         style="stop-color:#bebebe;stop-opacity:1"
         offset="1" />
    </linearGradient>
    <linearGradient
       inkscape:collect="always"
       xlink:href="#linearGradient990"
       id="linearGradient996"
       x1="15.9375"
       y1="1030.6747"
       x2="15.604473"
       y2="1027.4832"
       gradientUnits="userSpaceOnUse"
       gradientTransform="matrix(0.62620339,-0.62620339,0.62620339,0.62620339,-635.00231,398.60039)" />
    <linearGradient
       inkscape:collect="always"
       id="linearGradient990">
      <stop
         style="stop-color:#000000;stop-opacity:1;"
         offset="0"
         id="stop992" />
      <stop
         style="stop-color:#000000;stop-opacity:0;"
         offset="1"
         id="stop994" />
    </linearGradient>
    <linearGradient
       inkscape:collect="always"
       xlink:href="#linearGradient990"
       id="linearGradient1007"
       gradientUnits="userSpaceOnUse"
       gradientTransform="matrix(0.62620339,-0.62620339,-0.62620339,-0.62620339,652.95422,1686.5569)"
       x1="15.9375"
       y1="1030.6747"
       x2="15.604473"
       y2="1027.4832" />
    <linearGradient
       inkscape:collect="always"
       xlink:href="#linearGradient990"
       id="linearGradient1013"
       gradientUnits="userSpaceOnUse"
       gradientTransform="matrix(-0.62620339,0.62620339,0.62620339,0.62620339,-604.94478,368.54284)"
       x1="15.9375"
       y1="1030.6747"
       x2="15.604473"
       y2="1027.4832" />
    <linearGradient
       inkscape:collect="always"
       xlink:href="#linearGradient990"
       id="linearGradient1015"
       gradientUnits="userSpaceOnUse"
       gradientTransform="matrix(-0.62620339,0.62620339,-0.62620339,-0.62620339,683.01176,1656.4994)"
       x1="15.9375"
       y1="1030.6747"
       x2="15.604473"
       y2="1027.4832" />
    <linearGradient
       inkscape:collect="always"
       xlink:href="#linearGradient947"
       id="linearGradient953"
       x1="15.707031"
       y1="1028.3778"
       x2="15.707031"
       y2="1028.2216"
       gradientUnits="userSpaceOnUse"
       gradientTransform="matrix(1.2182024,-1.2182024,0.62620339,0.62620339,-637.19999,400.79807)" />
    <linearGradient
       inkscape:collect="always"
       id="linearGradient947">
      <stop
         style="stop-color:#ffffff;stop-opacity:1;"
         offset="0"
         id="stop949" />
      <stop
         style="stop-color:#ffffff;stop-opacity:0;"
         offset="1"
         id="stop951" />
    </linearGradient>
    <linearGradient
       inkscape:collect="always"
       xlink:href="#linearGradient947"
       id="linearGradient976"
       gradientUnits="userSpaceOnUse"
       gradientTransform="matrix(1.2182024,-1.2182024,-0.62620339,-0.62620339,650.7278,1688.7258)"
       x1="15.707031"
       y1="1028.3778"
       x2="15.707031"
       y2="1028.2216" />
    <linearGradient
       inkscape:collect="always"
       xlink:href="#linearGradient947"
       id="linearGradient982"
       gradientUnits="userSpaceOnUse"
       gradientTransform="matrix(-1.2182024,1.2182024,0.62620339,0.62620339,-602.74709,366.34515)"
       x1="15.707031"
       y1="1028.3778"
       x2="15.707031"
       y2="1028.2216" />
    <linearGradient
       inkscape:collect="always"
       xlink:href="#linearGradient947"
       id="linearGradient984"
       gradientUnits="userSpaceOnUse"
       gradientTransform="matrix(-1.2182024,1.2182024,-0.62620339,-0.62620339,685.1807,1654.2729)"
       x1="15.707031"
       y1="1028.3778"
       x2="15.707031"
       y2="1028.2216" />
    <linearGradient
       inkscape:collect="always"
       xlink:href="#linearGradient3698-2"
       id="linearGradient975"
       gradientUnits="userSpaceOnUse"
       x1="15.455017"
       y1="24.457449"
       x2="15.455017"
       y2="20.531212" />
    <linearGradient
       id="linearGradient3698-2">
      <stop
         id="stop3700-0"
         offset="0"
         style="stop-color:#b3b3b3;stop-opacity:1" />
      <stop
         id="stop3702-6"
         offset="1"
         style="stop-color:#e6e6e6;stop-opacity:1" />
    </linearGradient>
    <linearGradient
       inkscape:collect="always"
       xlink:href="#linearGradient870"
       id="linearGradient1034"
       x1="26.090487"
       y1="1051.1558"
       x2="26.090487"
       y2="1006.5153"
       gradientUnits="userSpaceOnUse" />
  </defs>
  <sodipodi:namedview
     id="base"
     pagecolor="#ffffff"
     bordercolor="#666666"
     borderopacity="1.0"
     inkscape:pageopacity="0.0"
     inkscape:pageshadow="2"
     inkscape:zoom="3.3153848"
     inkscape:cx="19.213743"
     inkscape:cy="35.205428"
     inkscape:document-units="px"
     inkscape:current-layer="layer1"
     showgrid="false"
     inkscape:window-width="1366"
     inkscape:window-height="714"
     inkscape:window-x="0"
     inkscape:window-y="30"
     inkscape:window-maximized="1" />
  <metadata
     id="metadata7">
    <rdf:RDF>
      <cc:Work
         rdf:about="">
        <dc:format>image/svg+xml</dc:format>
        <dc:type
           rdf:resource="http://purl.org/dc/dcmitype/StillImage" />
        <dc:title />
      </cc:Work>
    </rdf:RDF>
  </metadata>
  <g
     inkscape:label="Capa 1"
     inkscape:groupmode="layer"
     id="layer1"
     transform="translate(0,-1004.3622)">
    <rect
       style="color:#000000;fill:#333333;fill-opacity:1;fill-rule:nonzero;stroke:none;stroke-width:0.2;marker:none;visibility:visible;display:inline;overflow:visible;enable-background:accumulate"
       id="rect6294"
       width="45.5"
       height="45.5"
       x="1.25"
       y="1005.6122"
       ry="6.3565426" />
    <rect
       ry="5.8565426"
       y="1006.1122"
       x="1.75"
       height="44.5"
       width="44.5"
       id="rect6296"
       style="color:#000000;fill:url(#linearGradient1034);fill-opacity:1;fill-rule:nonzero;stroke:none;stroke-width:0.2;marker:none;visibility:visible;display:inline;overflow:visible;enable-background:accumulate" />
    <path
       style="fill:#000000;fill-opacity:0.15062764;fill-rule:nonzero;stroke:none"
       d="M 7.59375 1.75 C 4.8001189 1.75 2.4984293 3.7031547 1.90625 6.3125 C 1.9159191 6.3340494 1.9344767 6.3528426 1.9375 6.375 C 1.955321 6.5068931 1.8815683 6.7240825 1.8125 6.875 C 1.7827553 7.1151477 1.75 7.3452954 1.75 7.59375 L 1.75 13.96875 C 1.8875588 13.954863 2.0243804 14.042305 2.09375 14.21875 C 2.196583 14.48155 2.04943 14.7295 2.09375 15 C 2.1297 15.2201 2.419486 15.4287 2.5625 15.625 C 2.720638 15.8428 2.819082 16.0422 2.96875 16.1875 C 2.9797 16.3422 2.9797 16.37655 2.96875 16.53125 C 3.166465 16.76405 3.396641 16.96705 3.59375 17.21875 C 3.859647 17.55795 4.280882 17.9886 4.21875 18.5625 C 4.19932 18.7438 4.023301 18.90525 4.03125 19.09375 C 4.03855 19.25675 4.255599 19.4366 4.4375 19.5625 C 4.629165 19.6955 4.783598 19.8643 4.9375 19.9375 C 5.045864 19.9895 5.242959 20.0047 5.375 20.0625 C 5.547136 20.1375 5.67789 20.30545 5.875 20.40625 C 6.118946 20.53105 6.454379 20.6125 6.75 20.75 C 7.034733 20.882 7.398077 21.0609 7.625 21.0625 C 7.853132 21.0625 8.091939 20.8192 8.34375 20.8125 C 8.934474 20.7985 9.210496 21.5757 9.6875 21.8125 C 9.80727 21.8735 9.970493 21.87225 10.125 21.90625 C 10.250301 21.93125 10.317643 21.98785 10.4375 22.03125 C 10.692421 22.11525 11.014985 22.0949 11.21875 22.1875 C 11.525952 22.3233 11.73592 22.9078 12 23.0625 C 12.0128 23.2182 11.97949 23.41545 12.03125 23.53125 C 12.155945 23.70045 12.325671 23.67075 12.53125 23.78125 C 12.777012 23.91375 12.860691 24.2708 13.09375 24.375 C 13.17333 24.414 13.372887 24.4025 13.5 24.4375 C 13.624638 24.475744 13.726562 24.54912 13.8125 24.625 L 14.71875 24.09375 L 15.125 23.84375 C 14.657112 23.720389 14.389691 24.088146 13.96875 24.09375 C 13.543505 24.09375 12.947406 23.3998 12.96875 23 C 12.98213 22.7561 13.095792 22.39545 13.125 22.09375 C 13.14869 21.85425 13.310166 21.7191 13.3125 21.5 C 13.3163 21.2073 12.93985 20.9724 12.75 20.9375 C 12.29987 20.8565 11.67214 21.10855 11.15625 20.90625 C 11.05765 20.74305 11.257195 20.62755 11.3125 20.46875 C 11.34352 20.38175 11.33737 20.25555 11.375 20.15625 C 11.4322 20.00375 11.584354 19.9124 11.65625 19.75 C 11.71035 19.6258 11.726551 19.43485 11.78125 19.28125 C 11.84389 19.10605 11.955357 18.9981 11.96875 18.875 C 11.98637 18.712 11.939617 18.51325 11.8125 18.40625 C 11.412231 18.42525 11.133778 18.4619 10.90625 18.5625 C 10.384916 18.7999 10.489567 19.48975 9.96875 19.65625 C 9.788664 19.71425 9.542071 19.712 9.34375 19.75 C 9.172824 19.781 8.957621 19.8786 8.78125 19.875 C 8.572562 19.865 8.21784 19.66445 8.09375 19.53125 C 7.983055 19.41145 7.717918 18.82405 7.6875 18.71875 C 7.482438 18.00895 7.698615 17.3685 7.96875 16.875 C 8.02596 16.7692 8.113649 16.6723 8.15625 16.5625 C 8.22072 16.395 8.1682 16.14935 8.21875 15.96875 C 8.31113 15.63315 8.751583 15.4119 9.0625 15.25 C 9.414722 15.0668 9.71488 14.7773 10.125 14.75 C 10.329369 14.738 10.647332 14.80175 10.84375 14.84375 C 11.025134 14.88375 11.155572 15.01965 11.3125 15.03125 C 11.757789 15.06825 11.855467 14.6941 12.21875 14.5 C 12.594046 14.554 12.848584 14.459 13.1875 14.5 C 13.418655 14.524 13.601163 14.76725 13.78125 14.78125 C 13.932734 14.79225 14.072192 14.63325 14.21875 14.65625 C 14.361073 14.67625 14.601841 14.98235 14.625 15.15625 C 14.65362 15.37295 14.469178 15.5746 14.53125 15.8125 C 14.758172 16.0437 15.144524 16.08535 15.46875 16.21875 C 15.67986 16.04475 15.49737 15.72075 15.46875 15.46875 C 15.45658 15.35745 15.48034 15.25855 15.46875 15.15625 C 15.44992 14.98285 15.37559 14.836 15.375 14.6875 C 15.3711 14.0019 15.946354 13.67685 16.40625 13.40625 C 16.605175 13.28875 16.764756 13.0863 16.9375 13 C 17.181446 12.8777 17.360548 12.83245 17.5625 12.71875 C 17.927511 12.51385 18.24591 12.3573 18.53125 12.125 C 18.663205 11.8141 18.51529 11.40095 18.53125 11.09375 C 18.663291 11.01475 18.797594 11.142 18.9375 11.125 C 19.157767 11.077 19.156469 10.7492 19.28125 10.625 C 19.35299 10.555 19.566208 10.508 19.65625 10.4375 C 19.875914 10.2656 19.933335 10.0117 20.125 9.9375 C 20.143139 9.9309 20.189823 9.9421441 20.21875 9.9375 L 20.21875 9 L 20.6875 9.78125 C 20.808404 9.7166036 20.914249 9.6445355 21.0625 9.59375 C 21.21338 9.54075 21.535938 9.52675 21.59375 9.46875 C 21.66489 9.39775 21.60196 9.20235 21.625 9.09375 C 21.741832 8.54985 22.578237 8.4329 23.0625 8.25 C 23.401932 8.1209 23.720786 7.89615 24.09375 7.96875 C 24.02071 8.22715 23.691067 8.1233 23.75 8.4375 C 23.83216 8.8728 24.408597 8.3144 24.5625 8.25 C 24.856394 8.1263 25.364335 8.04595 25.75 7.90625 C 26.088224 7.78315 26.693783 7.60565 26.375 7.21875 C 26.109106 7.20475 25.981762 7.5258 25.75 7.625 C 25.589961 7.647 25.604937 7.48155 25.46875 7.46875 C 25.339736 7.45775 25.289502 7.5829 25.15625 7.5625 C 25.023692 7.5415 24.833241 7.3425 24.8125 7.1875 C 24.75961 6.7853 25.145896 6.6125 25.3125 6.3125 C 25.20241 5.9487 24.710425 6.23675 24.40625 6.09375 C 24.43547 5.87715 24.653147 5.7289 24.90625 5.6875 C 25.113645 5.6505 25.564016 5.68125 25.6875 5.78125 C 25.75993 5.84225 25.700221 5.99285 25.8125 6.09375 C 25.935379 6.20515 26.090655 6.2145 26.25 6.1875 C 26.30779 5.9132 25.892479 5.96305 25.9375 5.78125 C 26.262935 5.56835 26.789046 5.7455 27.1875 5.6875 C 27.416845 5.6505 27.671753 5.4896 27.875 5.375 C 28.068393 5.2657 28.326191 5.0702 28.53125 5.25 C 28.58725 5.4466 28.32824 5.5268 28.21875 5.625 C 27.850111 5.9527 27.474049 6.33795 27.1875 6.71875 C 27.363354 6.89045 27.702564 6.7747 28 6.8125 C 28.116227 6.8255 28.252034 6.88725 28.375 6.90625 C 28.518534 6.92925 28.668739 6.9065 28.78125 6.9375 C 28.983888 6.9885 29.04978 7.21875 29.25 7.21875 C 29.579669 7.21875 29.561741 6.8475 29.375 6.625 C 29.434 6.3973 29.549041 6.2841 29.46875 6.125 C 29.32029 5.8278 28.746749 6.1348 28.71875 5.75 C 28.70114 5.5098 28.944232 5.52355 29.03125 5.34375 C 28.99169 4.87945 29.419933 4.82255 29.375 4.40625 C 29.35617 4.23215 29.184775 4.25685 29.0625 4.09375 C 28.99925 4.01175 28.982208 3.84595 28.90625 3.78125 C 28.654354 3.56835 28.124773 3.5939 28.09375 3.1875 C 28.08216 2.9478 28.15846 2.7605 28.125 2.5 C 28.104193 2.337232 28.021267 1.9814227 27.90625 1.75 L 27.28125 1.75 C 27.147371 1.8710521 26.99344 2.0228536 26.84375 2.09375 C 26.668502 2.17475 26.425854 2.25155 26.25 2.21875 C 26.135676 2.19875 25.923875 2.0335 25.90625 1.8125 C 25.904306 1.7872 25.904343 1.7708728 25.90625 1.75 L 22.9375 1.75 C 22.934972 1.7579271 22.93902 1.7732241 22.9375 1.78125 C 22.91374 1.90645 22.96139 2.04265 22.96875 2.15625 C 23.04118 3.30855 22.091178 3.8436 20.96875 3.8125 C 20.748568 4.0232 20.807356 4.42985 20.6875 4.71875 C 20.586587 4.96155 20.242737 5.2081 20 5.1875 C 19.820518 5.1735 19.594352 4.9173 19.59375 4.75 C 19.593084 4.5437 19.897022 4.45405 19.71875 4.21875 C 19.74434 4.05865 20.106311 3.9424 20.0625 3.6875 C 20.01747 3.4221 19.643464 3.57265 19.3125 3.53125 C 19.071576 3.50125 18.744782 3.3679 18.53125 3.25 C 18.249023 3.0937 18.024289 2.7955 17.65625 2.75 C 17.446955 2.727 17.254846 2.8055 17.15625 2.6875 C 17.048061 2.5584 17.18142 2.37015 17.1875 2.28125 C 17.1808 2.13465 16.918519 2.0812 16.90625 1.9375 C 16.90295 1.8991375 16.948977 1.8249514 17 1.75 L 7.59375 1.75 z M 43.65625 2.71875 C 43.620602 2.8760923 43.6719 3.0464037 43.65625 3.28125 C 43.793737 3.34125 43.858882 3.6211 44.09375 3.75 C 44.18257 3.8 44.3271 3.7675 44.40625 3.8125 C 44.543738 3.8885 44.652992 4.05 44.625 4.1875 C 44.5843 4.3848 44.321878 4.3531 44.1875 4.5 C 44.21062 4.7806 43.976156 4.8126 43.90625 5 C 43.94827 5.1187 44.137414 5.07875 44.15625 5.21875 C 44.12947 5.37235 43.846622 5.4007 43.90625 5.5625 C 44.164194 5.7641 44.44355 5.528 44.6875 5.5 C 45.091717 5.44975 45.492479 5.5123875 45.8125 5.4375 C 45.370166 4.3240753 44.640195 3.372203 43.65625 2.71875 z M 42.96875 3.53125 C 42.909863 3.5465 42.862784 3.593 42.8125 3.625 C 42.629388 3.7369 42.548053 3.91465 42.40625 3.96875 C 42.210955 4.04175 42.091624 3.97385 42.0625 4.15625 C 42.03874 4.30465 42.191736 4.3607 42.1875 4.5 C 42.11629 4.6773 41.910259 4.724 41.875 4.9375 C 42.118946 5.3361 42.697026 5.00025 43 4.90625 C 43.136268 4.86325 43.332618 4.8637 43.40625 4.75 C 43.49019 4.623 43.40641 4.40345 43.46875 4.21875 C 43.53867 4.01645 43.74243 3.9932 43.71875 3.8125 C 43.697448 3.6529 43.42896 3.52775 43.15625 3.53125 C 43.094272 3.53125 43.027637 3.516 42.96875 3.53125 z M 13.5625 4.21875 C 13.590658 4.21805 13.601637 4.21875 13.625 4.21875 C 13.975424 4.21925 13.814518 4.89745 13.5625 4.90625 C 13.187722 4.91825 13.260655 4.28905 13.5625 4.21875 z M 46 5.84375 C 45.837334 5.9355732 45.536288 6.0917206 45.4375 6.09375 C 45.300622 6.09375 45.19226 5.9708 45.09375 6 C 44.949006 6.047 44.975562 6.3173 44.8125 6.375 C 44.493114 6.4881 43.955046 6.0868 43.84375 6.5625 C 43.98063 6.8381 44.323484 6.7853 44.5625 6.9375 C 44.712778 7.0315 45.022922 7.43255 45.0625 7.59375 C 45.09588 7.72995 45.05594 8.26145 45 8.40625 C 44.850931 8.79055 44.50476 8.66665 44.0625 8.65625 C 43.941437 8.65625 43.799403 8.6955 43.6875 8.6875 C 42.941656 8.6355 42.212016 8.37535 41.875 8.90625 C 41.90233 9.31535 41.965048 9.582 41.875 9.9375 C 41.80872 10.1984 41.582255 10.42965 41.59375 10.65625 C 41.59935 10.77225 41.753166 10.87375 41.78125 11.03125 C 41.79583 11.11325 41.74229 11.299 41.78125 11.375 C 41.903526 11.6123 42.219653 11.4065 42.4375 11.4375 C 42.650424 11.4745 42.908664 11.79265 42.90625 12.03125 C 42.90425 12.19705 42.730258 12.465 42.625 12.625 C 42.414586 12.9444 42.144902 12.9547 41.84375 13.125 C 41.592544 13.2674 41.490999 13.5024 41.34375 13.75 C 41.184316 14.0177 41.090575 14.20615 41.15625 14.59375 C 40.940907 15.02065 40.602232 15.26555 40.15625 15.46875 C 40.024293 15.52875 39.839815 15.56665 39.71875 15.65625 C 39.62263 15.72525 39.574379 15.9084 39.4375 16.0625 C 39.268992 16.2511 39.088833 16.32535 39 16.46875 C 38.93129 16.58065 38.919177 16.7887 38.84375 16.9375 C 38.740932 17.1397 38.510063 17.2326 38.375 17.4375 C 38.31297 17.5315 38.256168 17.7508 38.1875 17.875 C 38.034807 18.1522 37.784502 18.34985 37.8125 18.59375 C 37.84043 18.83005 38.106766 18.8568 38.125 19.0625 C 38.13598 19.179 38.05756 19.2485 38.0625 19.375 L 38.15625 19.375 L 38.0625 19.4375 C 38.086781 19.592371 38.174617 19.718368 38.1875 19.84375 C 38.22395 20.20165 38.067489 20.34925 38 20.59375 C 37.96766 20.71085 37.99919 20.81475 37.96875 20.90625 C 37.90975 21.08505 37.661177 21.25695 37.65625 21.46875 C 37.65355 21.61955 37.799712 21.75755 37.8125 21.96875 C 37.8213 22.11395 37.75574 22.2408 37.78125 22.375 C 37.83242 22.6373 38.296234 22.95255 38.5 23.15625 C 38.772549 23.42895 39.132566 23.6506 39.25 23.9375 C 39.34923 24.1814 39.341464 24.5037 39.53125 24.6875 C 39.671761 24.8223 39.913663 24.89015 40.09375 25.03125 C 40.261566 25.16195 40.445606 25.2978 40.625 25.4375 C 40.918285 25.6671 41.345259 26.0977 41.8125 26.0625 C 42.056445 26.0465 42.316966 25.8618 42.59375 25.8125 C 42.878482 25.7615 43.244094 25.723 43.53125 25.75 C 43.751516 25.77 43.958761 25.91735 44.1875 25.90625 C 44.42894 25.89625 44.725633 25.71345 45 25.59375 C 45.333466 25.4486 45.771727 25.278684 46.25 25.21875 L 46.25 11.59375 C 46.030769 11.627575 45.782429 11.679072 45.625 11.75 C 45.513086 11.802 45.425386 11.9275 45.28125 12 C 45.21621 12.031 45.117582 12.0245 45.03125 12.0625 C 44.89437 12.1245 44.755132 12.2799 44.625 12.3125 C 44.436356 12.3615 44.153146 12.26325 43.8125 12.28125 C 43.567954 12.29125 43.159878 12.2996 43.15625 12 C 43.14965 11.5541 43.922735 11.7036 44.34375 11.625 C 44.502484 11.596 44.591477 11.45635 44.78125 11.34375 C 44.87195 11.28875 44.977286 11.27665 45.0625 11.21875 C 45.208451 11.11635 45.416164 10.89745 45.4375 10.78125 C 45.4563 10.67355 45.39365 10.5172 45.40625 10.4375 C 45.42271 10.3341 45.525497 10.22275 45.65625 10.09375 C 45.83376 9.9184733 46.038116 9.7051074 46.25 9.5625 L 46.25 7.59375 C 46.25 6.9756159 46.175925 6.4022803 46 5.84375 z M 17.4375 7.5 L 17.5 7.5 C 17.612513 7.51 17.769973 7.6144 17.90625 7.625 C 18.035179 7.635 18.139682 7.57475 18.21875 7.59375 C 18.420093 7.64775 18.501773 7.94455 18.3125 8.09375 C 18.154968 8.11175 18.087395 8.01225 17.96875 8.03125 C 17.641499 8.08825 17.525801 8.73995 17.28125 8.71875 C 17.050611 8.70075 16.922069 8.13605 17.15625 7.96875 C 17.16515 7.82265 17.055145 7.80055 17.0625 7.65625 C 17.124326 7.58885 17.270407 7.5086 17.4375 7.5 z M 16.375 7.5625 C 16.467 7.5625 16.531339 7.586 16.5625 7.625 C 16.53024 7.8817 16.323316 7.84895 16.125 7.96875 C 15.782456 8.17545 15.577718 8.4958 15.46875 8.9375 C 15.43713 9.0673 15.131813 9.4087 14.96875 9.375 C 14.58671 9.296 15.069227 8.57575 15.15625 8.46875 C 15.25237 8.35015 15.355029 8.2619 15.46875 8.125 C 15.57884 7.9924 15.674788 7.79255 15.78125 7.71875 C 15.887892 7.65215 16.172584 7.5704 16.375 7.5625 z M 19.1875 8.4375 C 19.346712 8.4375 19.499743 8.442 19.5625 8.5 C 19.48406 8.8181 18.781939 8.7397 18.53125 8.625 C 18.54766 8.5058 18.74863 8.48445 18.90625 8.46875 C 18.989987 8.46975 19.091973 8.4407 19.1875 8.4375 z M 17.71875 9.03125 C 17.80092 9.03125 17.883133 9.0315 17.96875 9.0625 C 17.746752 9.2482 17.505826 9.34845 17.125 9.46875 C 16.941892 9.52675 16.624773 9.60985 16.59375 9.40625 C 16.55548 9.15565 16.863956 9.2102 17.03125 9.1875 C 17.24163 9.1611 17.472153 9.03905 17.71875 9.03125 z M 1.75 15.21875 L 1.75 17.09375 C 1.8530725 17.20933 2.0344483 17.2884 2.09375 17.34375 C 2.235554 17.47625 2.334368 17.70335 2.5625 17.65625 C 2.733426 17.43445 2.426535 17.27665 2.34375 17.09375 C 2.25007 16.88745 2.227312 16.5174 2.125 16.1875 C 2.06054 15.979 1.874546 15.8107 1.8125 15.625 C 1.7641475 15.479875 1.778673 15.352189 1.75 15.21875 z M 19 22.75 C 18.830102 22.757019 18.681698 23.00431 18.5 23.09375 C 18.494012 23.586385 18.553713 24.09446 18.6875 24.59375 C 19.473822 27.52835 22.502898 29.25505 25.4375 28.46875 C 26.240088 28.253704 26.934444 27.876365 27.53125 27.375 C 27.43077 27.16427 27.22545 27.007435 27.15625 26.8125 C 27.10637 26.6717 27.13755 26.5004 27.09375 26.375 C 27.03111 26.196 26.850939 26.0873 26.65625 25.9375 C 26.307656 25.6693 25.998263 25.4362 25.5 25.375 C 25.28103 25.351 25.077099 25.42125 24.8125 25.40625 C 24.532086 25.39025 24.178563 25.14585 23.96875 24.90625 C 23.7649 24.67185 23.646417 24.487 23.46875 24.375 C 23.300243 24.2675 23.083681 24.26595 22.96875 24.15625 C 22.91766 24.10625 22.92975 24.01875 22.875 23.90625 C 22.79049 23.73105 22.644662 23.61615 22.75 23.40625 C 22.557731 23.30565 22.553736 23.599 22.34375 23.5625 C 22.156405 23.2969 22.018991 23.1721 21.59375 23.25 C 21.399664 23.288 21.289422 23.52515 21.0625 23.53125 C 20.876367 23.53125 20.714509 23.3476 20.46875 23.3125 C 20.28322 23.2895 20.069541 23.3415 19.9375 23.3125 C 19.731922 23.2695 19.6567 23.1236 19.46875 23 C 19.331265 22.912 19.077253 22.7478 19 22.75 z M 15.0625 27 C 15.03034 27.032196 14.997596 27.055488 14.96875 27.09375 C 14.88303 27.20795 14.815759 27.3571 14.75 27.4375 C 14.63265 27.5811 14.46323 27.6174 14.375 27.75 C 14.32512 27.823 14.266774 27.99285 14.21875 28.09375 C 14.073316 28.40035 13.878418 28.6319 14 29 C 14.04995 29.1514 14.311898 29.22825 14.3125 29.40625 C 14.313052 29.61645 13.847151 29.80115 13.8125 30.03125 C 13.78631 30.20145 13.945907 30.5271 14 30.75 C 14.04077 30.9185 14.369547 31.0131 14.46875 31.125 C 14.637865 31.3152 14.782991 31.5741 14.9375 31.8125 C 15.242888 32.2816 15.483814 32.8578 15.78125 33.3125 C 15.93766 33.5503 16.145353 33.78395 16.25 34.03125 C 16.30352 34.15595 16.29387 34.29425 16.34375 34.40625 C 16.515971 34.79485 17.295094 35.21325 17.6875 35.40625 C 17.871216 35.49325 18.050242 35.50005 18.21875 35.59375 C 18.474187 35.73575 18.99607 36.11975 19.125 36.34375 C 19.240623 36.54495 19.31909 37.0551 19.375 37.375 C 19.44925 37.7975 19.35634 38.1046 19.375 38.5625 C 19.38597 38.8104 19.46578 39.064 19.46875 39.3125 C 19.46995 39.3975 19.44054 39.4738 19.4375 39.5625 C 19.42654 39.863 19.49433 40.1975 19.46875 40.5 C 19.45478 40.665 19.4253 40.8 19.4375 40.9375 C 19.4503 41.0871 19.51965 41.21285 19.53125 41.34375 C 19.54341 41.48515 19.48853 41.67145 19.5 41.78125 C 19.53294 42.08505 19.752872 42.31565 19.8125 42.59375 C 19.85995 42.81535 19.90353 43.26575 19.875 43.53125 C 19.86042 43.67045 19.77126 43.81625 19.75 43.96875 C 19.73412 44.08895 19.76701 44.23065 19.75 44.34375 C 19.72562 44.51235 19.61532 44.62445 19.625 44.78125 C 19.64634 45.10625 20.011427 45.39405 20.0625 45.71875 C 20.08012 45.82765 20.02632 45.92635 20.03125 46.03125 C 20.034718 46.110349 20.072705 46.178238 20.09375 46.25 L 24.65625 46.25 C 24.693565 46.060767 24.575366 45.714256 24.6875 45.5625 C 24.77209 45.4494 25.227979 45.43615 25.40625 45.40625 C 25.661776 45.36225 25.949526 45.31065 26.09375 45.21875 C 26.251285 45.11495 26.496055 44.82835 26.46875 44.53125 C 26.45525 44.38975 26.358283 44.34405 26.25 44.21875 C 26.15935 44.11295 26.128258 43.9749 26.0625 43.875 C 25.949987 43.7059 25.768699 43.7412 25.71875 43.5 C 26.06432 43.433 26.593674 43.7655 27.09375 43.625 C 27.330957 43.559 27.671159 43.06645 27.78125 42.84375 C 27.81648 42.77475 27.80479 42.6483 27.84375 42.5625 C 27.88574 42.4725 27.986088 42.39255 28 42.34375 C 28.03714 42.21235 28.00153 42.11385 28.03125 42.03125 C 28.11887 41.78675 28.355168 41.71205 28.5 41.53125 C 28.609481 41.39485 28.645959 41.22965 28.75 41.09375 C 28.863204 40.94515 28.987666 40.8183 29.0625 40.6875 C 29.13371 40.2479 28.865916 39.9479 28.96875 39.5625 C 29.084372 39.1301 29.674641 38.85135 30.09375 38.65625 C 30.237973 38.58925 30.413813 38.4781 30.53125 38.4375 C 30.82134 38.3341 31.172208 38.4081 31.4375 38.3125 C 31.888924 38.1473 31.933649 37.6613 32.15625 37.25 C 32.262101 37.0554 32.38551 36.85745 32.40625 36.71875 C 32.42508 36.59405 32.38498 36.49125 32.40625 36.34375 C 32.42751 36.19905 32.554172 36.06585 32.59375 35.90625 C 32.64605 35.69725 32.65625 35.38915 32.65625 35.15625 C 32.65625 34.96555 32.57101 34.7973 32.5625 34.625 C 32.53145 34.0005 32.800092 33.93375 33.03125 33.59375 C 33.146267 33.42465 33.169117 33.21475 33.25 33.09375 C 33.63817 32.51465 34.329987 32.2504 34.28125 31.375 C 34.26553 31.085 34.088529 30.43635 33.875 30.34375 C 33.753329 30.28975 33.457619 30.32 33.28125 30.25 C 32.711782 30.0377 32.371284 29.3575 31.78125 29.3125 C 31.655259 29.3025 31.548055 29.34575 31.40625 29.34375 C 31.172673 29.34375 30.821051 29.18565 30.5625 29.15625 C 30.398227 29.14025 30.192347 29.20525 30.09375 29.15625 C 29.942872 29.08425 29.903526 28.80145 29.78125 28.71875 C 29.68336 28.65275 29.522164 28.6212 29.375 28.5625 C 29.269344 28.521536 29.164866 28.499873 29.0625 28.46875 C 28.701266 28.81414 28.3074 29.138075 27.875 29.40625 L 27.78125 37.34375 L 23.78125 30.5 C 22.943546 30.4735 22.106773 30.2967 21.34375 30 L 18.5 32.6875 L 19.40625 28.875 C 18.767864 28.3624 18.223086 27.74355 17.78125 27.03125 L 15.0625 27 z "
       transform="translate(0,1004.3622)"
       id="path34-1" />
    <path
       style="fill:#ffffff;fill-opacity:0.1589958;fill-rule:nonzero;stroke:none"
       d="M 16.96875 1.75 C 16.940831 1.8000694 16.903846 1.8783021 16.90625 1.90625 C 16.91065 1.95825 16.953 1.99525 17 2.03125 C 17.075706 1.9200585 17.154975 1.813479 17.21875 1.75 L 16.96875 1.75 z M 25.875 1.75 C 25.873781 1.7701365 25.87322 1.789344 25.875 1.8125 C 25.8785 1.8565 25.91969 1.86625 25.9375 1.90625 C 25.96928 1.856225 25.999793 1.8070607 26.03125 1.75 L 25.875 1.75 z M 22.9375 2.0625 C 22.91984 2.1555 22.91751 2.24975 22.9375 2.34375 C 22.9417 2.27175 22.97365 2.2029 22.96875 2.125 C 22.967427 2.10477 22.946589 2.0849056 22.9375 2.0625 z M 17.125 2.4375 C 17.09982 2.5125 17.07091 2.59175 17.125 2.65625 C 17.1345 2.66725 17.14498 2.6805 17.15625 2.6875 C 17.17508 2.6425 17.18552 2.5915 17.1875 2.5625 C 17.185181 2.5124 17.168888 2.4725 17.125 2.4375 z M 28.125 2.84375 C 28.11343 2.95625 28.08796 3.0676 28.09375 3.1875 C 28.09585 3.2145 28.11895 3.227 28.125 3.25 C 28.137464 3.1192 28.134652 2.99135 28.125 2.84375 z M 43.625 3.09375 C 43.6232 3.22815 43.6689 3.3727 43.65625 3.5625 C 43.793737 3.6225 43.858882 3.90235 44.09375 4.03125 C 44.18257 4.08125 44.29585 4.04875 44.375 4.09375 C 44.43229 4.12575 44.492203 4.1946 44.53125 4.25 C 44.55279 4.227 44.58592 4.2245 44.59375 4.1875 C 44.62174 4.05 44.51249 3.85725 44.375 3.78125 C 44.29585 3.73625 44.18257 3.76775 44.09375 3.71875 C 43.858882 3.58985 43.793737 3.31 43.65625 3.25 C 43.660285 3.1905 43.629037 3.14725 43.625 3.09375 z M 20 3.875 C 19.90758 3.9953 19.736343 4.0774 19.71875 4.1875 C 19.77223 4.2585 19.79282 4.3206 19.78125 4.375 C 19.889902 4.27 20.095358 4.1912 20.0625 4 C 20.053891 3.9521 20.029907 3.9003 20 3.875 z M 43.625 4 C 43.57083 4.054 43.50371 4.086 43.46875 4.1875 C 43.40641 4.3722 43.49019 4.59175 43.40625 4.71875 C 43.33262 4.83245 43.136268 4.832 43 4.875 C 42.734898 4.957 42.248311 5.22895 41.96875 5.03125 C 41.91672 5.08325 41.858441 5.13025 41.84375 5.21875 C 42.087696 5.61735 42.697026 5.2815 43 5.1875 C 43.136268 5.1445 43.332618 5.14455 43.40625 5.03125 C 43.49019 4.90425 43.40641 4.6847 43.46875 4.5 C 43.53867 4.2977 43.74243 4.27445 43.71875 4.09375 C 43.712572 4.05015 43.667245 4.0381 43.625 4 z M 13.5625 4.1875 C 13.346681 4.2375 13.245541 4.59465 13.34375 4.78125 C 13.37862 4.65215 13.444325 4.5275 13.5625 4.5 C 13.59066 4.4993 13.60164 4.5 13.625 4.5 C 13.6907 4.5001 13.7496 4.5225 13.78125 4.5625 C 13.82724 4.3742 13.81341 4.1878 13.625 4.1875 C 13.601637 4.1903 13.590658 4.1868 13.5625 4.1875 z M 42.09375 4.34375 C 42.07382 4.36475 42.06978 4.3915 42.0625 4.4375 C 42.0525 4.4995 42.067 4.54765 42.09375 4.59375 C 42.1237 4.56175 42.1697 4.545 42.1875 4.5 C 42.189336 4.442 42.122931 4.39075 42.09375 4.34375 z M 19.71875 4.5 C 19.66828 4.575 19.59345 4.6572 19.59375 4.75 C 19.593943 4.803 19.62181 4.84605 19.65625 4.90625 C 19.731964 4.77895 19.852454 4.6765 19.71875 4.5 z M 29.3125 4.65625 C 29.21476 4.86365 29.00158 4.9643 29.03125 5.3125 C 28.94423 5.4923 28.70114 5.47855 28.71875 5.71875 C 28.72355 5.78575 28.75005 5.8426 28.78125 5.875 C 28.84769 5.793 28.973238 5.7449 29.03125 5.625 C 28.99169 5.1607 29.388683 5.13505 29.34375 4.71875 C 29.341258 4.69855 29.31917 4.67405 29.3125 4.65625 z M 44.03125 5.09375 C 43.97841 5.14875 43.93554 5.20275 43.90625 5.28125 C 43.92201 5.32625 43.96102 5.353 44 5.375 C 44.0646 5.33 44.14286 5.29505 44.15625 5.21875 C 44.146832 5.15185 44.084132 5.12185 44.03125 5.09375 z M 28.34375 5.15625 C 28.177354 5.13925 28.020045 5.293 27.875 5.375 C 27.671753 5.4896 27.416845 5.6505 27.1875 5.6875 C 26.789046 5.7455 26.262935 5.56805 25.9375 5.78125 C 25.90373 5.91765 26.128831 5.8959 26.21875 6 C 26.523533 5.956 26.888659 6.043 27.1875 6 C 27.416845 5.963 27.671753 5.8021 27.875 5.6875 C 28.031421 5.5995 28.197794 5.4554 28.375 5.5 C 28.46838 5.438 28.535754 5.3755 28.5 5.25 C 28.448735 5.2085 28.399215 5.16215 28.34375 5.15625 z M 45.8125 5.40625 C 45.496768 5.4797594 45.091717 5.4185 44.6875 5.46875 C 44.504537 5.48975 44.289762 5.6397 44.09375 5.625 C 44.00796 5.703 43.861529 5.72205 43.90625 5.84375 C 44.164194 6.04535 44.44355 5.80825 44.6875 5.78125 C 45.140334 5.7249562 45.577376 5.7802474 45.90625 5.65625 C 45.878074 5.5764291 45.843985 5.4844202 45.8125 5.40625 z M 24.90625 5.6875 C 24.653147 5.7285 24.43547 5.87715 24.40625 6.09375 C 24.45422 6.11675 24.50702 6.12 24.5625 6.125 C 24.57333 6.126 24.58274 6.1244 24.59375 6.125 C 24.68154 6.063 24.78986 6.019 24.90625 6 C 25.113645 5.963 25.564016 5.98975 25.6875 6.09375 C 25.75993 6.15475 25.70022 6.30535 25.8125 6.40625 C 25.935379 6.51765 26.090655 6.49575 26.25 6.46875 C 26.29768 6.24255 26.040609 6.24825 25.96875 6.15625 C 25.91935 6.14325 25.855931 6.13275 25.8125 6.09375 C 25.700221 5.99285 25.75993 5.84225 25.6875 5.78125 C 25.564016 5.68505 25.113645 5.6505 24.90625 5.6875 z M 1.90625 6.3125 C 1.8892839 6.3872586 1.8578422 6.4554164 1.84375 6.53125 C 1.8596979 6.5527374 1.8951657 6.5720073 1.90625 6.59375 C 1.92984 6.51675 1.94528 6.4326 1.9375 6.375 C 1.9345349 6.353225 1.9153365 6.333485 1.90625 6.3125 z M 16.4375 6.3125 C 16.063361 6.3225 15.5825 6.62065 15.1875 6.71875 C 14.933272 6.78775 14.68271 6.7857 14.625 7 C 14.67532 7.084 14.744215 7.13975 14.8125 7.15625 L 14.84375 7.15625 C 14.945348 7.11525 15.05403 7.06725 15.1875 7.03125 C 15.5825 6.93325 16.063361 6.6327 16.4375 6.625 C 16.49094 6.625 16.544916 6.611 16.59375 6.625 C 16.716582 6.658 16.934008 6.87675 17.03125 7.09375 C 17.197263 6.83045 16.779363 6.3618 16.59375 6.3125 C 16.544916 6.2985 16.49094 6.3125 16.4375 6.3125 z M 29.4375 6.4375 C 29.4177 6.4945 29.39467 6.5491 29.375 6.625 C 29.40612 6.662 29.4175 6.708 29.4375 6.75 C 29.473608 6.6457 29.474232 6.5316 29.4375 6.4375 z M 25.1875 6.46875 C 25.003459 6.67605 24.770448 6.83655 24.8125 7.15625 C 24.8151 7.17525 24.83642 7.19875 24.84375 7.21875 C 24.94005 6.98825 25.187547 6.85 25.3125 6.625 C 25.29027 6.5522 25.236815 6.49785 25.1875 6.46875 z M 43.96875 6.6875 C 43.92243 6.7245 43.864618 6.75455 43.84375 6.84375 C 43.98063 7.11935 44.323484 7.06655 44.5625 7.21875 C 44.712778 7.31275 45.022922 7.7138 45.0625 7.875 C 45.0678 7.7642 45.07406 7.64095 45.0625 7.59375 C 45.02292 7.43255 44.712778 7.00025 44.5625 6.90625 C 44.383238 6.79265 44.135522 6.7921 43.96875 6.6875 z M 27.375 6.78125 C 27.31407 6.85325 27.24234 6.9271 27.1875 7 C 27.363354 7.1717 27.671314 7.087 27.96875 7.125 C 28.084977 7.138 28.252034 7.1685 28.375 7.1875 C 28.518534 7.2105 28.668739 7.219 28.78125 7.25 C 28.983888 7.301 29.01853 7.5 29.21875 7.5 C 29.493474 7.5 29.537517 7.2737 29.4375 7.0625 C 29.3973 7.1315 29.337431 7.1875 29.21875 7.1875 C 29.01853 7.1875 28.983888 6.9885 28.78125 6.9375 C 28.668739 6.9065 28.518534 6.898 28.375 6.875 C 28.252034 6.856 28.084977 6.8245 27.96875 6.8125 C 27.757731 6.7859 27.549705 6.81835 27.375 6.78125 z M 17.4375 7.46875 C 17.270407 7.47875 17.093076 7.5577 17.03125 7.625 C 17.02535 7.7415 17.10198 7.788 17.125 7.875 C 17.20236 7.828 17.322009 7.78725 17.4375 7.78125 L 17.5 7.78125 C 17.612513 7.79125 17.738723 7.9269 17.875 7.9375 C 18.003929 7.9475 18.108432 7.855 18.1875 7.875 C 18.25998 7.894 18.308771 7.96605 18.34375 8.03125 C 18.484769 7.87415 18.37475 7.6127 18.1875 7.5625 C 18.10843 7.5435 18.003929 7.635 17.875 7.625 C 17.738723 7.614 17.612513 7.47875 17.5 7.46875 L 17.4375 7.46875 z M 26.375 7.53125 C 26.274662 7.65535 26.094952 7.7428 25.90625 7.8125 C 25.89476 7.8225 25.88683 7.83375 25.875 7.84375 C 25.83654 7.87575 25.79431 7.88825 25.75 7.90625 C 25.70999 7.91625 25.67782 7.91825 25.65625 7.90625 C 25.285476 8.02705 24.83415 8.10445 24.5625 8.21875 C 24.427835 8.27475 23.949929 8.71425 23.78125 8.53125 C 23.7393 8.57325 23.73114 8.61825 23.75 8.71875 C 23.83216 9.15405 24.408597 8.59565 24.5625 8.53125 C 24.856394 8.40755 25.364335 8.3272 25.75 8.1875 C 26.079768 8.0692 26.641407 7.89895 26.375 7.53125 z M 16.375 7.5625 C 16.34666 7.5625 16.31218 7.58975 16.28125 7.59375 C 16.091229 7.61775 15.872962 7.66175 15.78125 7.71875 C 15.674788 7.79275 15.57884 7.96115 15.46875 8.09375 C 15.355029 8.23065 15.25237 8.35015 15.15625 8.46875 C 15.0801 8.56275 14.682273 9.1229 14.84375 9.3125 C 14.91436 9.0852 15.105316 8.84395 15.15625 8.78125 C 15.25237 8.66265 15.355029 8.54315 15.46875 8.40625 C 15.57884 8.27365 15.674788 8.10505 15.78125 8.03125 C 15.86827 7.97725 16.0667 7.93325 16.25 7.90625 C 16.29173 7.88925 16.33819 7.86075 16.375 7.84375 C 16.47104 7.79875 16.54424 7.73915 16.5625 7.59375 C 16.54692 7.57475 16.50304 7.5695 16.46875 7.5625 C 16.426256 7.5674 16.415475 7.5593 16.375 7.5625 z M 23.8125 7.9375 C 23.541884 7.9785 23.285824 8.12195 23.03125 8.21875 C 22.546987 8.40165 21.741832 8.5186 21.625 9.0625 C 21.60788 9.1435 21.6348 9.2825 21.625 9.375 C 21.741832 8.8311 22.546987 8.71415 23.03125 8.53125 C 23.263362 8.44325 23.505173 8.33575 23.75 8.28125 C 23.7538 8.27125 23.7449 8.258 23.75 8.25 C 23.82606 8.1309 24.03897 8.1313 24.09375 7.9375 C 24.000509 7.9191 23.902705 7.9239 23.8125 7.9375 z M 21.625 9.375 C 21.6216 9.407 21.61202 9.44975 21.59375 9.46875 C 21.53594 9.52675 21.18213 9.5095 21.03125 9.5625 C 20.887654 9.6119382 20.765529 9.6772318 20.65625 9.75 L 20.8125 10 C 20.884415 9.9545157 20.947599 9.903656 21.03125 9.875 C 21.18213 9.822 21.535938 9.808 21.59375 9.75 C 21.66489 9.6785 21.60196 9.4836 21.625 9.375 z M 17.0625 8.03125 C 17.00574 8.13285 17.00142 8.27845 17.03125 8.40625 C 17.05088 8.34225 17.07426 8.2862 17.125 8.25 C 17.131291 8.1469 17.091969 8.09785 17.0625 8.03125 z M 19.1875 8.40625 L 19.1875 8.4375 C 19.09197 8.4375 18.989987 8.4385 18.90625 8.4375 C 18.74863 8.4535 18.54766 8.47455 18.53125 8.59375 C 18.656595 8.65075 18.88159 8.72365 19.09375 8.71875 C 19.12435 8.71805 19.15819 8.71875 19.1875 8.71875 C 19.361433 8.70075 19.528937 8.60495 19.5625 8.46875 C 19.499743 8.41195 19.346712 8.40625 19.1875 8.40625 z M 17.71875 9 C 17.472153 9.01 17.24163 9.12985 17.03125 9.15625 C 16.863956 9.17925 16.55548 9.1242 16.59375 9.375 C 16.60335 9.438 16.63598 9.4816 16.6875 9.5 L 16.71875 9.5 C 16.80203 9.482 16.919015 9.47575 17 9.46875 L 17.03125 9.46875 C 17.0631 9.46875 17.09226 9.4445 17.125 9.4375 C 17.21259 9.4095 17.269412 9.401 17.34375 9.375 C 17.592619 9.285 17.797812 9.17425 17.96875 9.03125 C 17.883133 9.00015 17.80092 9 17.71875 9 z M 41.875 9.15625 C 41.8661 9.16825 41.85218 9.1745 41.84375 9.1875 C 41.85583 9.3683 41.89141 9.51035 41.90625 9.65625 C 41.914268 9.49875 41.895455 9.32695 41.875 9.15625 z M 46.25 9.53125 C 46.037218 9.6722974 45.832502 9.8884659 45.65625 10.0625 C 45.525497 10.1915 45.42271 10.30285 45.40625 10.40625 C 45.39675 10.46625 45.42381 10.56505 45.4375 10.65625 C 45.47972 10.57125 45.550494 10.4793 45.65625 10.375 C 45.832502 10.200966 46.037218 9.9847974 46.25 9.84375 L 46.25 9.53125 z M 20.125 9.90625 C 19.933335 9.98025 19.875914 10.23435 19.65625 10.40625 C 19.56621 10.47625 19.35299 10.555 19.28125 10.625 C 19.156469 10.7492 19.157767 11.04575 18.9375 11.09375 C 18.797594 11.11075 18.663291 10.9833 18.53125 11.0625 C 18.52655 11.1535 18.553 11.2706 18.5625 11.375 C 18.68246 11.327 18.808087 11.42225 18.9375 11.40625 C 19.157767 11.35825 19.156469 11.0617 19.28125 10.9375 C 19.35299 10.8675 19.566208 10.78925 19.65625 10.71875 C 19.875914 10.54685 19.933335 10.29295 20.125 10.21875 C 20.143585 10.211988 20.188914 10.22032 20.21875 10.21875 L 20.21875 9.90625 C 20.188914 9.9074975 20.143585 9.9005697 20.125 9.90625 z M 41.625 10.78125 C 41.60358 10.83925 41.59088 10.8812 41.59375 10.9375 C 41.59935 11.0535 41.721916 11.18625 41.75 11.34375 C 41.7274 11.25975 41.76337 11.10645 41.75 11.03125 C 41.73315 10.93965 41.667735 10.85345 41.625 10.78125 z M 45.40625 10.78125 C 45.35812 10.90505 45.196101 11.12505 45.0625 11.21875 C 44.97729 11.27675 44.87195 11.2575 44.78125 11.3125 C 44.591477 11.4251 44.502484 11.596 44.34375 11.625 C 43.922735 11.704 43.14965 11.52285 43.15625 11.96875 C 43.157021 12.03275 43.18733 12.0856 43.21875 12.125 C 43.401792 11.9031 43.992904 12.003 44.34375 11.9375 C 44.502484 11.9085 44.591477 11.7376 44.78125 11.625 C 44.87195 11.57 44.977286 11.58925 45.0625 11.53125 C 45.208451 11.42885 45.416164 11.1787 45.4375 11.0625 C 45.452685 10.9784 45.418861 10.86405 45.40625 10.78125 z M 41.75 11.375 C 41.7523 11.464 41.71494 11.58785 41.75 11.65625 C 41.872276 11.89355 42.219653 11.719 42.4375 11.75 C 42.605178 11.779 42.772127 11.95845 42.84375 12.15625 C 42.86136 12.10325 42.90574 12.0426 42.90625 12 C 42.90865 11.7614 42.650424 11.4745 42.4375 11.4375 C 42.219653 11.4095 41.872276 11.6123 41.75 11.375 z M 18.5625 11.90625 C 18.5541 11.98325 18.52911 12.0564 18.5 12.125 C 18.21466 12.3573 17.927511 12.51385 17.5625 12.71875 C 17.360548 12.83245 17.181446 12.84645 16.9375 12.96875 C 16.764756 13.05475 16.605175 13.2575 16.40625 13.375 C 15.946354 13.6456 15.3711 13.97065 15.375 14.65625 C 15.375149 14.69425 15.39843 14.74225 15.40625 14.78125 C 15.4932 14.22005 15.98969 13.9326 16.40625 13.6875 C 16.605175 13.57 16.764756 13.36755 16.9375 13.28125 C 17.181446 13.15895 17.360548 13.14495 17.5625 13.03125 C 17.927511 12.82635 18.21466 12.63855 18.5 12.40625 C 18.565978 12.25425 18.575049 12.08835 18.5625 11.90625 z M 1.75 13.96875 L 1.75 14.25 C 1.8909435 14.226337 2.0231415 14.32055 2.09375 14.5 C 2.10255 14.405 2.13266 14.2869 2.09375 14.1875 C 2.029426 14.028 1.908833 13.96775 1.78125 13.96875 C 1.7710271 13.96875 1.7603241 13.96782 1.75 13.96875 z M 12.71875 14.46875 C 12.565839 14.488375 12.406398 14.527 12.21875 14.5 C 11.855467 14.6941 11.757789 15.037 11.3125 15 C 11.155572 14.988 11.025133 14.88375 10.84375 14.84375 C 10.647331 14.80175 10.329369 14.70675 10.125 14.71875 C 9.71488 14.74575 9.414722 15.0668 9.0625 15.25 C 8.751583 15.4119 8.311132 15.6019 8.21875 15.9375 C 8.16819 16.1181 8.22075 16.36375 8.15625 16.53125 C 8.11365 16.64105 8.025958 16.73795 7.96875 16.84375 C 7.754594 17.23505 7.559223 17.74145 7.59375 18.28125 C 7.62825 17.86175 7.795582 17.47265 7.96875 17.15625 C 8.02596 17.05045 8.113648 16.95355 8.15625 16.84375 C 8.22072 16.67625 8.16819 16.4306 8.21875 16.25 C 8.31113 15.9144 8.751583 15.69315 9.0625 15.53125 C 9.414722 15.34805 9.71488 15.05855 10.125 15.03125 C 10.329369 15.01925 10.647331 15.083 10.84375 15.125 C 11.025133 15.165 11.155572 15.3009 11.3125 15.3125 C 11.757789 15.3495 11.855467 15.0066 12.21875 14.8125 C 12.594046 14.8665 12.848584 14.74025 13.1875 14.78125 C 13.418655 14.80525 13.601163 15.0485 13.78125 15.0625 C 13.932734 15.0735 14.040942 14.9145 14.1875 14.9375 C 14.313079 14.9555 14.499975 15.22955 14.5625 15.40625 C 14.59084 15.32125 14.63656 15.24385 14.625 15.15625 C 14.60184 14.98235 14.329823 14.645 14.1875 14.625 C 14.040942 14.602 13.932734 14.761 13.78125 14.75 C 13.601163 14.7358 13.418655 14.49275 13.1875 14.46875 C 13.018042 14.44825 12.871661 14.449125 12.71875 14.46875 z M 2.09375 14.96875 C 2.07767 15.07435 2.07528 15.16855 2.09375 15.28125 C 2.1297 15.50135 2.388236 15.70995 2.53125 15.90625 C 2.689388 16.12405 2.819082 16.3547 2.96875 16.5 C 2.9797 16.3453 2.9797 16.3422 2.96875 16.1875 C 2.819082 16.0422 2.689388 15.81155 2.53125 15.59375 C 2.388236 15.39725 2.129699 15.18885 2.09375 14.96875 z M 2.96875 16.5 C 2.9797 16.6547 2.9797 16.6578 2.96875 16.8125 C 3.166465 17.0453 3.396641 17.27955 3.59375 17.53125 C 3.818589 17.81815 4.126358 18.14915 4.1875 18.59375 C 4.1936 18.57275 4.21648 18.55225 4.21875 18.53125 C 4.28088 17.95735 3.859647 17.55795 3.59375 17.21875 C 3.396641 16.96635 3.166465 16.7328 2.96875 16.5 z M 14.5625 15.8125 C 14.53099 15.9095 14.47164 15.98515 14.5 16.09375 C 14.726922 16.32495 15.144524 16.39785 15.46875 16.53125 C 15.592932 16.42895 15.56802 16.25405 15.53125 16.09375 C 15.51584 16.13675 15.50911 16.18575 15.46875 16.21875 C 15.165336 16.09375 14.79608 16.0077 14.5625 15.8125 z M 1.75 17.0625 L 1.75 17.375 C 1.851887 17.496036 2.034449 17.6009 2.09375 17.65625 C 2.235555 17.78875 2.303118 18.01585 2.53125 17.96875 C 2.61671 17.85785 2.59682 17.75055 2.53125 17.65625 C 2.303118 17.70325 2.235555 17.47625 2.09375 17.34375 C 2.034449 17.288025 1.8518872 17.183559 1.75 17.0625 z M 37.84375 18.6875 C 37.82074 18.7445 37.8055 18.814 37.8125 18.875 C 37.83554 19.0699 38.019181 19.119 38.09375 19.25 C 38.11711 19.18 38.1326 19.11195 38.125 19.03125 C 38.110224 18.86415 37.925669 18.8291 37.84375 18.6875 z M 11.9375 18.90625 C 11.90139 19.00765 11.83345 19.104 11.78125 19.25 C 11.72655 19.4036 11.71035 19.59455 11.65625 19.71875 C 11.58435 19.88115 11.40095 20.00375 11.34375 20.15625 C 11.30612 20.25525 11.34352 20.38175 11.3125 20.46875 C 11.25719 20.62755 11.05765 20.74305 11.15625 20.90625 C 11.17716 20.91625 11.1975 20.89625 11.21875 20.90625 C 11.24979 20.86525 11.29643 20.82725 11.3125 20.78125 C 11.34352 20.69425 11.3061 20.56805 11.34375 20.46875 C 11.40095 20.31625 11.584354 20.19365 11.65625 20.03125 C 11.71035 19.90705 11.72655 19.7161 11.78125 19.5625 C 11.84389 19.3873 11.955357 19.27935 11.96875 19.15625 C 11.97756 19.07475 11.96594 18.98695 11.9375 18.90625 z M 4.09375 19.21875 C 4.07366 19.26875 4.029 19.3216 4.03125 19.375 C 4.03855 19.538 4.255599 19.71785 4.4375 19.84375 C 4.629165 19.97675 4.783597 20.14555 4.9375 20.21875 C 5.045864 20.27075 5.242959 20.28575 5.375 20.34375 C 5.547136 20.41875 5.677889 20.5867 5.875 20.6875 C 6.118945 20.8123 6.423129 20.89375 6.71875 21.03125 C 7.003483 21.16325 7.398077 21.34215 7.625 21.34375 C 7.853132 21.34375 8.091939 21.1317 8.34375 21.125 C 8.934474 21.111 9.210495 21.85695 9.6875 22.09375 C 9.80727 22.15475 9.939242 22.1535 10.09375 22.1875 C 10.21905 22.2125 10.317643 22.2695 10.4375 22.3125 C 10.692421 22.3965 11.014985 22.37655 11.21875 22.46875 C 11.525952 22.60455 11.73592 23.18905 12 23.34375 C 11.9983 23.24045 12.008 23.12835 12 23.03125 C 11.73592 22.87655 11.525952 22.3233 11.21875 22.1875 C 11.014985 22.0945 10.692421 22.084 10.4375 22 C 10.317643 21.957 10.21905 21.9 10.09375 21.875 C 9.939242 21.841 9.80727 21.84225 9.6875 21.78125 C 9.210495 21.54445 8.934474 20.7985 8.34375 20.8125 C 8.091939 20.8225 7.853132 21.03125 7.625 21.03125 C 7.398077 21.03125 7.003483 20.85075 6.71875 20.71875 C 6.423129 20.58125 6.118945 20.53105 5.875 20.40625 C 5.677889 20.30545 5.547136 20.10625 5.375 20.03125 C 5.242959 19.97325 5.045864 19.95825 4.9375 19.90625 C 4.783597 19.83325 4.629165 19.66425 4.4375 19.53125 C 4.313807 19.44565 4.167159 19.33535 4.09375 19.21875 z M 12 23.34375 C 12.0128 23.49945 11.97949 23.72795 12.03125 23.84375 C 12.155945 24.01295 12.325671 23.952 12.53125 24.0625 C 12.777012 24.195 12.860691 24.55205 13.09375 24.65625 C 13.17333 24.69525 13.372887 24.68475 13.5 24.71875 C 13.522111 24.725535 13.542412 24.740956 13.5625 24.75 L 13.8125 24.625 C 13.728617 24.544795 13.632428 24.446884 13.5 24.40625 C 13.372887 24.37125 13.17333 24.38175 13.09375 24.34375 C 12.860691 24.23955 12.777012 23.8825 12.53125 23.75 C 12.325671 23.6395 12.155945 23.70005 12.03125 23.53125 C 12.01174 23.48745 12.001036 23.40625 12 23.34375 z M 38.09375 19.5 C 38.07394 19.548 38.06003 19.59305 38.0625 19.65625 C 38.0692 19.81705 38.15347 19.9407 38.1875 20.0625 C 38.19875 19.9945 38.1966 19.902 38.1875 19.8125 C 38.177408 19.7146 38.133383 19.6091 38.09375 19.5 z M 13.28125 21.625 C 13.23287 21.7708 13.142931 21.8812 13.125 22.0625 C 13.09579 22.3642 12.95088 22.7561 12.9375 23 C 12.9354 23.039 12.95941 23.081 12.96875 23.125 C 13.00869 22.896 13.101596 22.6167 13.125 22.375 C 13.14869 22.1355 13.310166 22.00035 13.3125 21.78125 C 13.313163 21.73055 13.301458 21.6714 13.28125 21.625 z M 37.6875 21.625 C 37.66251 21.673 37.65748 21.697 37.65625 21.75 C 37.65405 21.8757 37.73724 22.00285 37.78125 22.15625 C 37.79742 22.08325 37.8169 22.0101 37.8125 21.9375 C 37.804176 21.8003 37.734632 21.7188 37.6875 21.625 z M 37.78125 22.4375 C 37.7627 22.5215 37.73546 22.611 37.75 22.6875 C 37.80117 22.9498 38.264984 23.2338 38.46875 23.4375 C 38.741299 23.7102 39.101316 23.93185 39.21875 24.21875 C 39.31798 24.46265 39.341464 24.78495 39.53125 24.96875 C 39.671761 25.10355 39.882413 25.20265 40.0625 25.34375 C 40.230316 25.47445 40.414356 25.57905 40.59375 25.71875 C 40.887035 25.94835 41.345259 26.4102 41.8125 26.375 C 42.056445 26.359 42.316966 26.14305 42.59375 26.09375 C 42.878482 26.04275 43.244094 26.0355 43.53125 26.0625 C 43.751516 26.0825 43.958761 26.1986 44.1875 26.1875 C 44.42894 26.1775 44.725633 25.9947 45 25.875 C 45.326295 25.732971 45.784596 25.560743 46.25 25.5 L 46.25 25.1875 C 45.784596 25.248243 45.326295 25.420471 45 25.5625 C 44.725633 25.6822 44.42894 25.865 44.1875 25.875 C 43.958761 25.886 43.751516 25.77 43.53125 25.75 C 43.244094 25.723 42.878482 25.73025 42.59375 25.78125 C 42.316966 25.83025 42.056445 26.0465 41.8125 26.0625 C 41.345259 26.0975 40.887035 25.63585 40.59375 25.40625 C 40.414356 25.26655 40.230316 25.16195 40.0625 25.03125 C 39.882413 24.89015 39.671761 24.79105 39.53125 24.65625 C 39.341464 24.47245 39.31798 24.15015 39.21875 23.90625 C 39.101316 23.61935 38.741299 23.3977 38.46875 23.125 C 38.280658 22.9371 37.883778 22.6849 37.78125 22.4375 z M 14 28.96875 C 13.98553 29.06475 13.96043 29.16145 14 29.28125 C 14.03372 29.38345 14.144242 29.466 14.21875 29.5625 C 14.26118 29.5125 14.31264 29.45885 14.3125 29.40625 C 14.311898 29.22965 14.04995 29.12015 14 28.96875 z M 13.84375 30.25 C 13.82983 30.276 13.81654 30.31675 13.8125 30.34375 C 13.78631 30.51395 13.945907 30.80835 14 31.03125 C 14.04077 31.19975 14.369547 31.29435 14.46875 31.40625 C 14.637865 31.59645 14.782991 31.8866 14.9375 32.125 C 15.242888 32.5941 15.483814 33.1703 15.78125 33.625 C 15.93766 33.8628 16.145353 34.0652 16.25 34.3125 C 16.30352 34.4372 16.29387 34.5755 16.34375 34.6875 C 16.515971 35.0761 17.263844 35.4945 17.65625 35.6875 C 17.839966 35.7745 18.050242 35.81255 18.21875 35.90625 C 18.474187 36.04825 18.99607 36.43225 19.125 36.65625 C 19.240623 36.85745 19.28784 37.33635 19.34375 37.65625 C 19.33985 37.55475 19.36323 37.45465 19.34375 37.34375 C 19.28784 37.02385 19.240623 36.54495 19.125 36.34375 C 18.99607 36.11975 18.474187 35.73575 18.21875 35.59375 C 18.050242 35.49975 17.839966 35.462 17.65625 35.375 C 17.263844 35.182 16.515971 34.7636 16.34375 34.375 C 16.29387 34.263 16.30352 34.1247 16.25 34 C 16.145353 33.7527 15.93766 33.5503 15.78125 33.3125 C 15.483814 32.8578 15.242888 32.2816 14.9375 31.8125 C 14.782991 31.5741 14.637865 31.28395 14.46875 31.09375 C 14.36955 30.98185 14.04077 30.88725 14 30.71875 C 13.964632 30.57415 13.889314 30.4059 13.84375 30.25 z M 34.25 31.5625 C 34.18605 32.2718 33.604061 32.56555 33.25 33.09375 C 33.16912 33.21475 33.146267 33.3934 33.03125 33.5625 C 32.800092 33.9025 32.53145 33.96925 32.5625 34.59375 C 32.564 34.62275 32.58847 34.6585 32.59375 34.6875 C 32.63374 34.2781 32.833969 34.1652 33.03125 33.875 C 33.146267 33.7059 33.169117 33.52725 33.25 33.40625 C 33.63817 32.82715 34.329987 32.53165 34.28125 31.65625 C 34.279988 31.63385 34.253328 31.59 34.25 31.5625 z M 32.65625 35.4375 C 32.646823 35.592159 32.624431 35.752385 32.59375 35.875 C 32.55417 36.0346 32.39626 36.1678 32.375 36.3125 C 32.36077 36.4115 32.39453 36.481 32.40625 36.5625 C 32.44825 36.4419 32.559972 36.3237 32.59375 36.1875 C 32.64605 35.9785 32.65625 35.6704 32.65625 35.4375 z M 32.375 36.75 C 32.33282 36.8831 32.248326 37.04955 32.15625 37.21875 C 31.933649 37.63005 31.888924 38.11605 31.4375 38.28125 C 31.172208 38.37725 30.79009 38.3342 30.5 38.4375 C 30.382563 38.4785 30.237973 38.58925 30.09375 38.65625 C 29.674641 38.85135 29.084372 39.09885 28.96875 39.53125 C 28.940017 39.639 28.955056 39.742389 28.96875 39.84375 C 29.084372 39.41135 29.674641 39.16385 30.09375 38.96875 C 30.237973 38.90175 30.382563 38.7906 30.5 38.75 C 30.79009 38.6466 31.172208 38.68905 31.4375 38.59375 C 31.888924 38.42855 31.933649 37.94255 32.15625 37.53125 C 32.262101 37.33665 32.38551 37.1387 32.40625 37 C 32.418847 36.9181 32.386173 36.8367 32.375 36.75 z M 19.375 38.5625 C 19.3723 38.6639 19.3703 38.7605 19.375 38.875 C 19.3837 39.0708 19.41382 39.27185 19.4375 39.46875 C 19.45183 39.41175 19.46961 39.3737 19.46875 39.3125 C 19.46578 39.0663 19.38597 38.8104 19.375 38.5625 z M 29.03125 40.6875 C 28.95768 40.8118 28.857482 40.95275 28.75 41.09375 C 28.645959 41.22965 28.609481 41.39485 28.5 41.53125 C 28.355168 41.71205 28.11887 41.78675 28.03125 42.03125 C 28.00153 42.11425 28.00589 42.21235 27.96875 42.34375 C 27.95484 42.39275 27.88574 42.4725 27.84375 42.5625 C 27.80479 42.6485 27.78523 42.7435 27.75 42.8125 C 27.639909 43.0352 27.330957 43.559 27.09375 43.625 C 26.593674 43.7655 26.06432 43.40175 25.71875 43.46875 C 25.75969 43.66655 25.894411 43.68805 26 43.78125 C 26.317822 43.84525 26.718693 44.01165 27.09375 43.90625 C 27.330957 43.84025 27.639909 43.3477 27.75 43.125 C 27.78523 43.056 27.80479 42.9608 27.84375 42.875 C 27.88574 42.785 27.954838 42.70505 27.96875 42.65625 C 28.00589 42.52485 28.00153 42.42635 28.03125 42.34375 C 28.11887 42.09925 28.355168 41.9933 28.5 41.8125 C 28.609481 41.6761 28.645959 41.54215 28.75 41.40625 C 28.863204 41.25765 28.956416 41.09955 29.03125 40.96875 C 29.049053 40.86145 29.042629 40.7841 29.03125 40.6875 z M 19.46875 40.96875 C 19.45455 41.05075 19.4305 41.13995 19.4375 41.21875 C 19.44822 41.34405 19.47678 41.4533 19.5 41.5625 C 19.5099 41.4755 19.53823 41.3936 19.53125 41.3125 C 19.52154 41.2055 19.492648 41.08855 19.46875 40.96875 z M 19.53125 41.8125 C 19.52145 41.9025 19.49342 41.9995 19.5 42.0625 C 19.53294 42.3663 19.752872 42.5969 19.8125 42.875 C 19.83622 42.9858 19.86548 43.16975 19.875 43.34375 C 19.8838 43.08025 19.85204 42.7472 19.8125 42.5625 C 19.757372 42.3085 19.586067 42.0846 19.53125 41.8125 z M 26.4375 44.75 C 26.37184 44.9535 26.207148 45.1128 26.09375 45.1875 C 25.949526 45.2795 25.661776 45.36225 25.40625 45.40625 C 25.227979 45.43625 24.77209 45.41825 24.6875 45.53125 C 24.62547 45.61525 24.63549 45.76115 24.65625 45.90625 C 24.66305 45.88425 24.67467 45.86075 24.6875 45.84375 C 24.77209 45.73065 25.227979 45.74875 25.40625 45.71875 C 25.661776 45.67475 25.949526 45.5919 26.09375 45.5 C 26.251285 45.3962 26.496055 45.1096 26.46875 44.8125 C 26.466169 44.7849 26.445645 44.7713 26.4375 44.75 z M 19.65625 44.875 C 19.63326 44.938 19.62084 44.9951 19.625 45.0625 C 19.64495 45.3664 19.94827 45.6406 20.03125 45.9375 C 20.04173 45.8555 20.07535 45.7669 20.0625 45.6875 C 20.016968 45.398 19.734304 45.1546 19.65625 44.875 z M 20.0625 46.125 C 20.057512 46.16734 20.038806 46.20722 20.03125 46.25 L 20.09375 46.25 C 20.081808 46.20915 20.070269 46.169745 20.0625 46.125 z "
       transform="translate(0,1004.3622)"
       id="path1112-6" />
    <path
       style="fill:#000000;fill-opacity:0.15062764;fill-rule:nonzero;stroke:none"
       d="M 22.9375 1.75 C 22.934975 1.757979 22.93902 1.7732241 22.9375 1.78125 C 22.92562 1.84425 22.92357 1.90245 22.9375 1.96875 C 22.962896 1.893758 23.026764 1.8202011 23.09375 1.75 L 22.9375 1.75 z M 27.28125 1.75 C 27.146531 1.8722225 26.992628 2.0232385 26.84375 2.09375 C 26.668502 2.17475 26.425854 2.2828 26.25 2.25 C 26.15243 2.233 25.968154 2.08015 25.90625 1.90625 C 25.89036 1.94625 25.87014 1.9993 25.875 2.0625 C 25.89262 2.2835 26.135676 2.44875 26.25 2.46875 C 26.425854 2.50175 26.668502 2.3938 26.84375 2.3125 C 27.16616 2.1598 27.44983 1.72225 27.71875 1.78125 C 27.931067 1.82725 28.09395 2.5071 28.125 2.75 C 28.1311 2.666 28.13717 2.5947 28.125 2.5 C 28.104193 2.3389742 28.020659 1.9827737 27.90625 1.75 L 27.28125 1.75 z M 16.96875 2.0625 C 16.94337 2.1075 16.90405 2.1615 16.90625 2.1875 C 16.91495 2.2893 17.042705 2.3631 17.125 2.4375 L 17.15625 2.4375 C 17.17934 2.3795 17.18507 2.31675 17.1875 2.28125 C 17.182944 2.18415 17.05313 2.1317 16.96875 2.0625 z M 22.96875 2.40625 C 22.890087 3.3786451 22.001396 3.8723492 20.96875 3.84375 C 20.748568 4.05445 20.807356 4.42985 20.6875 4.71875 C 20.586587 4.96155 20.211487 5.2081 19.96875 5.1875 C 19.834139 5.1775 19.69117 5.04805 19.625 4.90625 C 19.61088 4.93725 19.59363 4.964 19.59375 5 C 19.594352 5.1673 19.789268 5.4235 19.96875 5.4375 C 20.211487 5.4585 20.586587 5.1803 20.6875 4.9375 C 20.807356 4.6486 20.74857 4.2732 20.96875 4.0625 C 22.091178 4.0935 23.04118 3.55855 22.96875 2.40625 z M 17.125 2.6875 C 17.09243 2.7715 17.06279 2.8633 17.125 2.9375 C 17.2236 3.0555 17.446955 2.94775 17.65625 2.96875 C 18.024289 3.01375 18.249023 3.31245 18.53125 3.46875 C 18.744782 3.58665 19.071576 3.75125 19.3125 3.78125 C 19.607058 3.81825 19.931205 3.711 20.03125 3.875 C 20.05879 3.828 20.07345 3.78295 20.0625 3.71875 C 20.01747 3.45335 19.643464 3.57265 19.3125 3.53125 C 19.071576 3.50125 18.744782 3.3679 18.53125 3.25 C 18.249023 3.0937 18.024289 2.7955 17.65625 2.75 C 17.446955 2.7303 17.223596 2.8055 17.125 2.6875 z M 43.65625 2.71875 C 43.641 2.7747528 43.661771 2.8439044 43.65625 2.90625 C 43.664973 2.8855619 43.724877 2.845606 43.75 2.8125 C 43.714279 2.7876083 43.692551 2.7428583 43.65625 2.71875 z M 28.125 3.25 C 28.1198 3.312 28.09057 3.3717 28.09375 3.4375 C 28.12477 3.8439 28.654354 3.7871 28.90625 4 C 28.98221 4.065 28.99925 4.2305 29.0625 4.3125 C 29.15421 4.4348 29.257092 4.4814 29.3125 4.5625 C 29.3199 4.5205 29.34945 4.4905 29.34375 4.4375 C 29.32492 4.2634 29.184775 4.25685 29.0625 4.09375 C 28.99925 4.01175 28.98221 3.84595 28.90625 3.78125 C 28.667675 3.58305 28.20061 3.5918 28.125 3.25 z M 42.96875 3.53125 C 42.910878 3.54675 42.862784 3.593 42.8125 3.625 C 42.629388 3.7369 42.548053 3.91465 42.40625 3.96875 C 42.210955 4.04175 42.091624 3.97875 42.0625 4.15625 C 42.0545 4.20625 42.07491 4.24325 42.09375 4.28125 C 42.15354 4.21825 42.259779 4.2425 42.40625 4.1875 C 42.548053 4.1335 42.629388 3.9869 42.8125 3.875 C 42.913068 3.811 43.032294 3.78125 43.15625 3.78125 C 43.360783 3.78125 43.557986 3.8353 43.65625 3.9375 C 43.68088 3.9015 43.72615 3.8695 43.71875 3.8125 C 43.697448 3.6566 43.42896 3.52775 43.15625 3.53125 C 43.094272 3.53125 43.026622 3.51575 42.96875 3.53125 z M 44.5625 4.25 C 44.49061 4.3883 44.277707 4.3672 44.15625 4.5 C 44.17937 4.7806 43.976156 4.8126 43.90625 5 C 43.92201 5.044 43.96102 5.07175 44 5.09375 C 44.08761 4.99875 44.172653 4.91775 44.15625 4.71875 C 44.290628 4.57185 44.55305 4.6348 44.59375 4.4375 C 44.605787 4.3825 44.591977 4.3114 44.5625 4.25 z M 13.8125 4.5625 C 13.78076 4.7384 13.688509 4.9331 13.5625 4.9375 C 13.434211 4.9375 13.375895 4.8505 13.34375 4.75 C 13.29556 4.9478 13.33925 5.16335 13.5625 5.15625 C 13.751514 5.15395 13.898975 4.7598 13.8125 4.5625 z M 42.125 4.59375 C 42.03511 4.71135 41.873133 4.7596 41.84375 4.9375 C 41.86662 4.9745 41.90915 5.00625 41.9375 5.03125 C 42.01449 4.94225 42.140027 4.8682 42.1875 4.75 C 42.189194 4.6987 42.151473 4.63725 42.125 4.59375 z M 44.0625 5.375 C 43.97835 5.437 43.867262 5.457 43.90625 5.5625 C 43.94064 5.5895 43.96529 5.613 44 5.625 C 44.0646 5.58 44.14286 5.54595 44.15625 5.46875 C 44.149187 5.42155 44.099309 5.3988 44.0625 5.375 z M 28.4375 5.46875 C 28.37034 5.53175 28.279812 5.5702 28.21875 5.625 C 27.850111 5.9527 27.474049 6.33795 27.1875 6.71875 C 27.22112 6.75175 27.26941 6.76525 27.3125 6.78125 C 27.580847 6.45275 27.899051 6.1592 28.21875 5.875 C 28.32824 5.777 28.556 5.6966 28.5 5.5 C 28.478787 5.4865 28.459597 5.47995 28.4375 5.46875 z M 28.75 5.875 C 28.73723 5.907 28.71519 5.952 28.71875 6 C 28.74675 6.3848 29.28904 6.078 29.4375 6.375 C 29.457877 6.290012 29.477489 6.2042346 29.4375 6.125 C 29.307597 5.8701 28.875535 6.08 28.75 5.875 z M 46 5.875 C 45.835042 5.9651765 45.535636 6.091734 45.4375 6.09375 C 45.300622 6.09375 45.19226 5.971 45.09375 6 C 44.949006 6.047 44.944312 6.3173 44.78125 6.375 C 44.461864 6.4881 43.955046 6.0868 43.84375 6.5625 C 43.86295 6.6015 43.87964 6.62925 43.90625 6.65625 C 44.087163 6.41185 44.501787 6.724 44.78125 6.625 C 44.944312 6.567 44.949006 6.26575 45.09375 6.21875 C 45.19226 6.18975 45.300622 6.34375 45.4375 6.34375 C 45.543161 6.34375 45.8813 6.1545386 46.03125 6.0625 C 46.014433 6.0011835 46.018734 5.9354829 46 5.875 z M 26.09375 5.96875 C 26.04042 5.98475 25.983603 6.00125 25.9375 6.03125 C 25.91184 6.13485 26.0248 6.16875 26.125 6.21875 C 26.16919 6.21875 26.20379 6.1945 26.25 6.1875 C 26.278895 6.055 26.184374 6.00785 26.09375 5.96875 z M 24.5 6.125 C 24.44314 6.186 24.41721 6.26245 24.40625 6.34375 C 24.657779 6.46195 25.030208 6.2965 25.21875 6.4375 C 25.24793 6.4005 25.28997 6.38475 25.3125 6.34375 C 25.212572 6.01785 24.804644 6.1905 24.5 6.125 z M 1.90625 6.5625 C 1.8824969 6.6649643 1.8491546 6.7522692 1.8125 6.84375 C 1.7987868 6.9497466 1.7892609 7.0485173 1.78125 7.15625 C 1.8483376 7.0086114 1.957641 6.7740966 1.9375 6.625 C 1.934477 6.6073 1.915919 6.5841 1.90625 6.5625 z M 29.40625 6.75 C 29.39226 6.791 29.38778 6.826 29.375 6.875 C 29.42169 6.931 29.44781 6.9978 29.46875 7.0625 C 29.502057 6.9691 29.470101 6.862 29.40625 6.75 z M 15.4375 7.03125 C 15.18996 7.0981406 14.901404 7.2812 14.71875 7.15625 C 14.68406 7.18825 14.63943 7.22725 14.625 7.28125 C 14.853132 7.66015 15.323472 7.191 15.65625 7.25 C 15.824758 7.28 15.927147 7.50525 16.09375 7.53125 C 16.207554 7.55325 16.8607 7.48475 16.90625 7.46875 C 17.086263 7.39175 17.104757 7.2688 17.0625 7.125 C 17.03415 7.176 16.98426 7.217 16.90625 7.25 C 16.8607 7.267 16.207554 7.3345 16.09375 7.3125 C 15.927147 7.2906 15.824758 7.06125 15.65625 7.03125 C 15.583455 7.01825 15.520013 7.0089531 15.4375 7.03125 z M 24.84375 7.21875 C 24.82505 7.28175 24.80218 7.359 24.8125 7.4375 C 24.83324 7.5925 24.992442 7.7915 25.125 7.8125 C 25.258252 7.8325 25.339736 7.70805 25.46875 7.71875 C 25.604937 7.73175 25.589961 7.897 25.75 7.875 C 25.981762 7.776 26.109106 7.45475 26.375 7.46875 C 26.39492 7.49275 26.39327 7.50925 26.40625 7.53125 C 26.45819 7.44225 26.47922 7.34515 26.375 7.21875 C 26.109106 7.20475 25.981762 7.5258 25.75 7.625 C 25.589961 7.647 25.604937 7.48155 25.46875 7.46875 C 25.339736 7.45775 25.258252 7.61415 25.125 7.59375 C 25.002384 7.57945 24.884711 7.36825 24.84375 7.21875 z M 16.4375 7.8125 C 16.35292 7.8745 16.243227 7.9286 16.125 8 C 15.782456 8.2067 15.577718 8.4958 15.46875 8.9375 C 15.43713 9.0673 15.100563 9.4087 14.9375 9.375 C 14.88974 9.365 14.86682 9.3395 14.84375 9.3125 C 14.8043 9.4605 14.78918 9.5943 14.9375 9.625 C 15.100563 9.659 15.43713 9.3173 15.46875 9.1875 C 15.577718 8.7458 15.782456 8.42545 16.125 8.21875 C 16.323316 8.09895 16.53024 8.10045 16.5625 7.84375 C 16.541445 7.82145 16.49048 7.8182 16.4375 7.8125 z M 17.09375 7.875 C 17.07565 7.888 17.04307 7.89325 17.03125 7.90625 C 17.02825 7.96625 17.07308 7.99525 17.09375 8.03125 C 17.10843 8.01225 17.10548 7.98175 17.125 7.96875 C 17.127738 7.92865 17.106815 7.9038 17.09375 7.875 z M 18.375 8 C 18.35779 8.035 18.34657 8.06675 18.3125 8.09375 C 18.154968 8.11175 18.087395 8.0435 17.96875 8.0625 C 17.641499 8.1195 17.494551 8.73995 17.25 8.71875 C 17.13468 8.70875 17.061938 8.56995 17.03125 8.40625 C 16.97829 8.63575 17.07702 8.95525 17.25 8.96875 C 17.494551 8.98975 17.641499 8.33825 17.96875 8.28125 C 18.087395 8.26225 18.154968 8.36275 18.3125 8.34375 C 18.425229 8.25995 18.423523 8.1133 18.375 8 z M 45.0625 8.03125 C 45.04697 8.20135 45.02797 8.3651 45 8.4375 C 44.850931 8.8218 44.50476 8.66665 44.0625 8.65625 C 43.941437 8.65625 43.799403 8.6955 43.6875 8.6875 C 42.941656 8.6355 42.180766 8.37535 41.84375 8.90625 C 41.84935 8.99025 41.86639 9.0504 41.875 9.125 C 42.22228 8.6405 42.958468 8.8867 43.6875 8.9375 C 43.799403 8.9475 43.941437 8.90625 44.0625 8.90625 C 44.50476 8.91625 44.850931 9.04055 45 8.65625 C 45.043031 8.55025 45.061512 8.24665 45.0625 8.03125 z M 23.875 8.1875 C 23.78657 8.2365 23.720533 8.2805 23.75 8.4375 C 23.7548 8.4635 23.7419 8.481 23.75 8.5 C 23.82606 8.3809 24.03897 8.3813 24.09375 8.1875 C 24.021229 8.1793 23.945642 8.1815 23.875 8.1875 z M 19.40625 8.6875 C 19.248091 8.7575 18.982472 8.75675 18.78125 8.71875 C 18.661461 8.74075 18.543557 8.7858 18.53125 8.875 C 18.781939 8.9897 19.48406 9.0681 19.5625 8.75 C 19.531122 8.7272 19.471939 8.6973 19.40625 8.6875 z M 17.71875 9.28125 C 17.68709 9.28225 17.65611 9.3085 17.625 9.3125 L 17.59375 9.3125 C 17.457929 9.3765 17.315413 9.40845 17.125 9.46875 C 16.973936 9.51675 16.722121 9.5951 16.625 9.5 C 16.59915 9.53 16.58418 9.59395 16.59375 9.65625 C 16.62477 9.85985 16.941892 9.77725 17.125 9.71875 C 17.505826 9.59845 17.746752 9.4982 17.96875 9.3125 C 17.883133 9.2881 17.80092 9.28125 17.71875 9.28125 z M 41.90625 9.6875 C 41.90215 9.7695 41.89755 9.8486 41.875 9.9375 C 41.80872 10.1984 41.582255 10.42965 41.59375 10.65625 C 41.59473 10.67625 41.61737 10.69875 41.625 10.71875 C 41.68927 10.54445 41.82529 10.3832 41.875 10.1875 C 41.920024 10.0162 41.92003 9.8507 41.90625 9.6875 z M 45.4375 10.625 C 45.429602 10.638368 45.407894 10.64605 45.40625 10.65625 C 45.40235 10.68025 45.42956 10.715 45.4375 10.75 C 45.445333 10.7123 45.449916 10.6764 45.4375 10.625 z M 46.25 11.5625 C 46.031029 11.593742 45.790135 11.644125 45.625 11.71875 C 45.513086 11.77075 45.425386 11.89625 45.28125 11.96875 C 45.21621 11.99975 45.117582 11.99325 45.03125 12.03125 C 44.89437 12.09325 44.755132 12.24865 44.625 12.28125 C 44.436356 12.33025 44.153146 12.232 43.8125 12.25 C 43.598522 12.26 43.270236 12.263 43.1875 12.0625 C 43.16639 12.1005 43.15543 12.16305 43.15625 12.21875 C 43.15985 12.51835 43.567954 12.51 43.8125 12.5 C 44.153146 12.482 44.436356 12.58025 44.625 12.53125 C 44.755132 12.49825 44.89437 12.34325 45.03125 12.28125 C 45.11758 12.24325 45.21621 12.24875 45.28125 12.21875 C 45.425386 12.14675 45.513086 12.02075 45.625 11.96875 C 45.790135 11.8945 46.031029 11.843859 46.25 11.8125 L 46.25 11.5625 z M 42.875 12.15625 C 42.825252 12.310202 42.704866 12.472386 42.625 12.59375 C 42.414586 12.91315 42.144902 12.9547 41.84375 13.125 C 41.592544 13.2674 41.459749 13.5024 41.3125 13.75 C 41.158048 14.0093 41.071221 14.16905 41.125 14.53125 C 41.1325 14.30925 41.19293 14.16955 41.3125 13.96875 C 41.459749 13.72115 41.592544 13.48615 41.84375 13.34375 C 42.144902 13.17345 42.414586 13.16315 42.625 12.84375 C 42.730258 12.68375 42.90425 12.4158 42.90625 12.25 C 42.906642 12.2189 42.886585 12.19695 42.875 12.15625 z M 41.125 14.59375 C 40.910277 15.006281 40.594034 15.238035 40.15625 15.4375 C 40.024293 15.4975 39.839815 15.5355 39.71875 15.625 C 39.62263 15.694 39.574379 15.87715 39.4375 16.03125 C 39.268992 16.21985 39.088833 16.2941 39 16.4375 C 38.93129 16.5494 38.887927 16.75745 38.8125 16.90625 C 38.709682 17.10845 38.510063 17.2326 38.375 17.4375 C 38.31297 17.5315 38.256168 17.71955 38.1875 17.84375 C 38.034807 18.12095 37.784502 18.3186 37.8125 18.5625 C 37.8154 18.5865 37.83628 18.605 37.84375 18.625 C 37.91278 18.4528 38.07298 18.2704 38.1875 18.0625 C 38.25617 17.9383 38.31297 17.75025 38.375 17.65625 C 38.510063 17.45135 38.709682 17.35845 38.8125 17.15625 C 38.88793 17.00745 38.93129 16.7994 39 16.6875 C 39.08883 16.5441 39.268992 16.4386 39.4375 16.25 C 39.574379 16.0959 39.62263 15.91275 39.71875 15.84375 C 39.839815 15.75375 40.024293 15.7477 40.15625 15.6875 C 40.602232 15.4843 40.909657 15.20815 41.125 14.78125 C 41.110634 14.70485 41.124734 14.66045 41.125 14.59375 z M 15.40625 14.78125 C 15.396602 14.822306 15.37475 14.862635 15.375 14.90625 C 15.37559 15.05475 15.44992 15.2016 15.46875 15.375 C 15.47085 15.301 15.47685 15.22785 15.46875 15.15625 C 15.453544 15.02415 15.426645 14.90475 15.40625 14.78125 z M 1.75 15.34375 L 1.75 15.5625 C 1.7645188 15.658838 1.78027 15.747 1.8125 15.84375 C 1.87455 16.02945 2.060536 16.19775 2.125 16.40625 C 2.227314 16.73615 2.21882 17.1062 2.3125 17.3125 C 2.35889 17.4149 2.49903 17.48675 2.5625 17.59375 C 2.64715 17.39855 2.388041 17.2294 2.3125 17.0625 C 2.21882 16.8562 2.22731 16.5174 2.125 16.1875 C 2.06054 15.979 1.874545 15.8107 1.8125 15.625 C 1.78027 15.52825 1.7645187 15.440088 1.75 15.34375 z M 14.59375 15.34375 C 14.551661 15.489552 14.456184 15.613344 14.5 15.78125 C 14.5054 15.79125 14.52568 15.77125 14.53125 15.78125 C 14.56768 15.64165 14.643504 15.5151 14.625 15.375 C 14.622786 15.3662 14.599734 15.36245 14.59375 15.34375 z M 15.46875 15.5 C 15.466191 15.560747 15.461464 15.620729 15.46875 15.6875 C 15.48202 15.8043 15.53764 15.9374 15.5625 16.0625 C 15.598895 15.8949 15.490215 15.689 15.46875 15.5 z M 7.59375 18.3125 C 7.5903394 18.51414 7.6253764 18.722415 7.6875 18.9375 C 7.71792 19.0428 7.983054 19.6302 8.09375 19.75 C 8.21784 19.8832 8.572562 20.08375 8.78125 20.09375 C 8.957621 20.09375 9.172824 19.99975 9.34375 19.96875 C 9.542071 19.93075 9.788664 19.933 9.96875 19.875 C 10.489566 19.7085 10.384915 19.01865 10.90625 18.78125 C 11.133777 18.68065 11.380981 18.644 11.78125 18.625 C 11.86045 18.692 11.91324 18.80235 11.9375 18.90625 C 11.9447 18.88625 11.96652 18.86375 11.96875 18.84375 C 11.98637 18.68075 11.90837 18.482 11.78125 18.375 C 11.380981 18.394 11.133777 18.43105 10.90625 18.53125 C 10.384915 18.76865 10.489566 19.48975 9.96875 19.65625 C 9.788664 19.71425 9.542071 19.712 9.34375 19.75 C 9.172824 19.781 8.957621 19.8786 8.78125 19.875 C 8.572562 19.865 8.21784 19.66445 8.09375 19.53125 C 7.983054 19.41145 7.717917 18.82405 7.6875 18.71875 C 7.6451846 18.57946 7.6048216 18.453825 7.59375 18.3125 z M 4.1875 18.59375 C 4.1426786 18.749389 4.0243018 18.897751 4.03125 19.0625 C 4.03305 19.1035 4.04015 19.1445 4.0625 19.1875 C 4.10746 19.0472 4.203526 18.92325 4.21875 18.78125 C 4.227156 18.71175 4.195255 18.66565 4.1875 18.59375 z M 38.09375 19.25 C 38.082014 19.279231 38.060971 19.30475 38.0625 19.34375 C 38.06295 19.35425 38.059353 19.36562 38.0625 19.375 L 38.09375 19.375 C 38.102799 19.343956 38.128378 19.317127 38.125 19.28125 C 38.122721 19.26315 38.102853 19.2712 38.09375 19.25 z M 38.1875 20.0625 C 38.149143 20.250213 38.048086 20.38827 38 20.5625 C 37.96766 20.6796 37.99919 20.81475 37.96875 20.90625 C 37.90975 21.08505 37.661177 21.2257 37.65625 21.4375 C 37.655664 21.4705 37.67605 21.50025 37.6875 21.53125 C 37.76247 21.38715 37.9245 21.2591 37.96875 21.125 C 37.99919 21.034 37.96765 20.89835 38 20.78125 C 38.067489 20.54425 38.22395 20.4204 38.1875 20.0625 z M 12.375 20.90625 C 11.993159 20.945648 11.543167 21.089225 11.15625 20.9375 C 11.123872 20.997886 11.11275 21.053 11.15625 21.125 C 11.67214 21.3273 12.26862 21.07525 12.71875 21.15625 C 12.881734 21.18625 13.198883 21.36045 13.28125 21.59375 C 13.29403 21.55175 13.31199 21.51575 13.3125 21.46875 C 13.3163 21.17605 12.9086 20.94115 12.71875 20.90625 C 12.606217 20.888 12.50228 20.893117 12.375 20.90625 z M 37.78125 22.125 C 37.76267 22.209883 37.735462 22.298528 37.75 22.375 C 37.7525 22.388 37.77694 22.39325 37.78125 22.40625 C 37.79847 22.32325 37.81752 22.23905 37.8125 22.15625 C 37.810836 22.13675 37.787171 22.1497 37.78125 22.125 z M 19 22.71875 C 18.830102 22.725769 18.681698 22.97306 18.5 23.0625 C 18.498757 23.132823 18.498511 23.210582 18.5 23.28125 C 18.681698 23.200989 18.830102 22.975769 19 22.96875 C 19.07725 22.96875 19.331265 23.0995 19.46875 23.1875 C 19.6567 23.3111 19.731922 23.48825 19.9375 23.53125 C 20.069541 23.56025 20.28322 23.477 20.46875 23.5 C 20.714509 23.535 20.845117 23.75 21.03125 23.75 C 21.258172 23.74 21.368414 23.50675 21.5625 23.46875 C 21.987741 23.39075 22.156405 23.51575 22.34375 23.78125 C 22.553736 23.81725 22.557731 23.5244 22.75 23.625 C 22.72688 23.56 22.70353 23.49885 22.75 23.40625 C 22.557731 23.30565 22.553736 23.56775 22.34375 23.53125 C 22.156405 23.26565 21.987741 23.14085 21.5625 23.21875 C 21.368414 23.25675 21.258172 23.52515 21.03125 23.53125 C 20.845117 23.53125 20.714509 23.31635 20.46875 23.28125 C 20.28322 23.25825 20.069541 23.3415 19.9375 23.3125 C 19.731922 23.2695 19.6567 23.09235 19.46875 22.96875 C 19.331265 22.88865 19.077253 22.7478 19 22.75 L 19 22.71875 z M 12.96875 23.09375 C 12.96305 23.13175 12.93936 23.18475 12.9375 23.21875 C 12.91616 23.61855 13.543505 24.3125 13.96875 24.3125 C 14.267189 24.305986 14.480969 24.129699 14.75 24.0625 L 15.15625 23.8125 C 14.670135 23.665212 14.398282 24.056781 13.96875 24.0625 C 13.575691 24.0625 13.032667 23.49805 12.96875 23.09375 z M 22.75 23.6875 C 22.693177 23.861441 22.798418 23.966219 22.875 24.125 C 22.92975 24.2375 22.91766 24.29375 22.96875 24.34375 C 23.083681 24.45345 23.300243 24.455 23.46875 24.5625 C 23.646417 24.6745 23.7649 24.8906 23.96875 25.125 C 24.178563 25.3646 24.532086 25.609 24.8125 25.625 C 25.077099 25.64 25.28103 25.56975 25.5 25.59375 C 25.998263 25.65475 26.307656 25.88805 26.65625 26.15625 C 26.850939 26.30605 27.03111 26.41475 27.09375 26.59375 C 27.13755 26.71915 27.10637 26.89045 27.15625 27.03125 C 27.21144 27.186696 27.333764 27.295005 27.4375 27.4375 C 27.466724 27.413957 27.502562 27.3991 27.53125 27.375 C 27.449683 27.133341 27.230108 26.9893 27.15625 26.78125 C 27.10637 26.64045 27.13755 26.46915 27.09375 26.34375 C 27.03111 26.16475 26.850939 26.0873 26.65625 25.9375 C 26.307656 25.6693 25.998263 25.40495 25.5 25.34375 C 25.28103 25.31975 25.077099 25.42125 24.8125 25.40625 C 24.532086 25.39025 24.178563 25.14585 23.96875 24.90625 C 23.7649 24.67185 23.646417 24.45575 23.46875 24.34375 C 23.300243 24.23625 23.083681 24.2347 22.96875 24.125 C 22.91766 24.075 22.92975 23.9875 22.875 23.875 C 22.832745 23.7961 22.782308 23.7598 22.75 23.6875 z M 15 27 C 14.978514 27.02266 14.956731 27.036992 14.9375 27.0625 C 14.85178 27.1767 14.815759 27.32585 14.75 27.40625 C 14.63265 27.54985 14.46323 27.58615 14.375 27.71875 C 14.32512 27.79175 14.266774 27.9616 14.21875 28.0625 C 14.086741 28.3408 13.939431 28.5642 14 28.875 C 14.03 28.6756 14.120651 28.5193 14.21875 28.3125 C 14.26677 28.2116 14.32512 28.04175 14.375 27.96875 C 14.46323 27.83615 14.63265 27.79985 14.75 27.65625 C 14.81576 27.57625 14.85178 27.39545 14.9375 27.28125 C 15.0291 27.15975 15.141707 27.075 15.25 27 L 15 27 z M 29.0625 28.46875 C 29.009377 28.519543 28.960981 28.575743 28.90625 28.625 C 29.049309 28.669382 29.192248 28.722512 29.34375 28.78125 C 29.490914 28.84025 29.68336 28.8712 29.78125 28.9375 C 29.903526 29.0205 29.942872 29.303 30.09375 29.375 C 30.19235 29.424 30.398227 29.359 30.5625 29.375 C 30.821051 29.404 31.172673 29.5625 31.40625 29.5625 C 31.548055 29.5625 31.655259 29.49 31.78125 29.5 C 32.371284 29.545 32.711782 30.25645 33.28125 30.46875 C 33.457619 30.53875 33.722079 30.47925 33.84375 30.53125 C 34.045386 30.61825 34.218137 31.22175 34.25 31.53125 C 34.2541 31.47125 34.28493 31.40985 34.28125 31.34375 C 34.26553 31.05375 34.057279 30.4051 33.84375 30.3125 C 33.722079 30.2585 33.457619 30.322 33.28125 30.25 C 32.711782 30.0377 32.371284 29.32625 31.78125 29.28125 C 31.655259 29.27125 31.548055 29.3145 31.40625 29.3125 C 31.172673 29.3125 30.821051 29.1544 30.5625 29.125 C 30.398227 29.109 30.192347 29.174 30.09375 29.125 C 29.942872 29.053 29.903526 28.7702 29.78125 28.6875 C 29.68336 28.6215 29.490914 28.6215 29.34375 28.5625 C 29.247621 28.52523 29.149174 28.504255 29.0625 28.46875 z M 14.25 29.53125 C 14.141709 29.697843 13.840891 29.842689 13.8125 30.03125 C 13.806 30.07425 13.83118 30.1313 13.84375 30.1875 C 13.93938 29.9867 14.312999 29.8151 14.3125 29.625 C 14.312349 29.59 14.273265 29.56845 14.25 29.53125 z M 32.5625 34.6875 C 32.56016 34.736285 32.55925 34.779167 32.5625 34.84375 C 32.5696 34.98765 32.63568 35.12745 32.65625 35.28125 C 32.65815 35.22825 32.65625 35.1731 32.65625 35.125 C 32.65625 34.9673 32.584591 34.8391 32.5625 34.6875 z M 32.375 36.53125 C 32.3652 36.59925 32.3651 36.66125 32.375 36.71875 C 32.3778 36.70775 32.40469 36.6975 32.40625 36.6875 C 32.41573 36.6353 32.386023 36.59385 32.375 36.53125 z M 19.46875 39.4375 C 19.458326 39.467591 19.438846 39.49225 19.4375 39.53125 C 19.4357 39.58125 19.435 39.6359 19.4375 39.6875 C 19.45158 39.6385 19.46951 39.58485 19.46875 39.53125 C 19.468263 39.50105 19.472887 39.4784 19.46875 39.4375 z M 28.96875 39.96875 C 28.960642 40.179639 29.004737 40.368657 29.03125 40.59375 C 29.053337 40.357578 29.002579 40.175044 28.96875 39.96875 z M 19.875 43.53125 C 19.852763 43.662072 19.769856 43.795071 19.75 43.9375 C 19.73941 44.0175 19.7465 44.1072 19.75 44.1875 C 19.77126 44.035 19.86042 43.8892 19.875 43.75 C 19.882133 43.6945 19.874412 43.61445 19.875 43.53125 z M 25.875 43.6875 C 25.821254 43.6942 25.766161 43.70955 25.71875 43.71875 C 25.777025 43.930062 25.954837 43.931939 26.0625 44.09375 C 26.12826 44.19375 26.15935 44.30045 26.25 44.40625 C 26.34554 44.51685 26.409242 44.5802 26.4375 44.6875 C 26.45218 44.6255 26.47462 44.5638 26.46875 44.5 C 26.45525 44.3585 26.358283 44.3128 26.25 44.1875 C 26.15935 44.0817 26.128258 43.94365 26.0625 43.84375 C 26.01639 43.77475 25.960355 43.75475 25.90625 43.71875 C 25.89403 43.71875 25.88694 43.6885 25.875 43.6875 z M 19.75 44.34375 C 19.718211 44.496506 19.615889 44.602424 19.625 44.75 C 19.627 44.781 19.64856 44.81375 19.65625 44.84375 C 19.68708 44.74975 19.7344 44.63915 19.75 44.53125 C 19.760825 44.47015 19.754163 44.42185 19.75 44.34375 z M 20.03125 45.90625 C 20.028684 45.948954 20.02949 45.99341 20.03125 46.03125 C 20.042804 45.988406 20.069041 45.946655 20.0625 45.90625 C 20.060299 45.90445 20.034554 45.91995 20.03125 45.90625 z "
       transform="translate(0,1004.3622)"
       id="path1119-1" />
    <g
       id="g1200">
      <path
         inkscape:connector-curvature="0"
         id="path918"
         d="m 29.507235,1019.6728 -0.166047,0.166 -0.747213,3.0996 c 0.0362,0.029 0.07504,0.053 0.110699,0.083 L 29.507235,1019.6728 z m -5.839327,3.487 c -0.364867,0.023 -0.712483,0.068 -1.079308,0.1661 -2.51289,0.6733 -4.142981,2.9873 -4.068158,5.4795 0.162202,-2.2742 1.742085,-4.3029 4.068158,-4.926 2.934601,-0.7865 5.93857,0.9675 6.724914,3.902 0.115447,0.4309 0.155356,0.846 0.166047,1.273 0.04486,-0.6006 -0.0013,-1.2118 -0.166047,-1.8265 C 28.625463,1024.6601 26.22197,1023.0064 23.667908,1023.1598 z m -9.187949,0.5258 2.546058,2.7121 c 0.04264,-0.1309 0.08859,-0.2594 0.138372,-0.3875 L 15.144148,1023.8516 14.479959,1023.6856 z m 22.776148,1.7158 -5.922352,3.4869 c -0.02655,0.8378 -0.201539,1.6448 -0.498141,2.4078 l 0.138372,0.1383 c 0.20638,-0.6414 0.337961,-1.3321 0.359769,-2.0201 l 6.835612,-4.0129 L 37.256107,1025.4014 z m -26.51221,7.0293 -0.9132603,0.5535 7.9425933,0.083 c 0.416784,0.6719 0.928795,1.2485 1.5221,1.7435 l 0.110698,-0.4428 c -0.638387,-0.5125 -1.190962,-1.1419 -1.632798,-1.8542 L 10.743896,1032.4307 z m 18.95706,0.8027 c -0.512511,0.6382 -1.114331,1.1909 -1.82652,1.6327 l 0,0.5535 c 0.712189,-0.4418 1.314009,-0.9945 1.82652,-1.6328 l 3.819087,0.9132 -0.664189,-0.7196 L 29.700957,1033.2334 z m -8.357711,2.2415 -2.684431,2.5184 -0.166047,0.7196 2.850478,-2.6845 c 0.763024,0.2965 1.597655,0.4716 2.43536,0.4981 l 4.012808,6.8357 0,-0.5535 -4.012808,-6.8357 C 22.940901,1035.9465 22.10627,1035.7714 21.343246,1035.4749 Z"
         style="color:#000000;fill:#ffffff;fill-opacity:0.05882353;fill-rule:nonzero;stroke:none;stroke-width:0.80000001;marker:none;visibility:visible;display:inline;overflow:visible;enable-background:accumulate" />
      <path
         inkscape:connector-curvature="0"
         id="path911"
         d="m 29.507235,1018.5693 -0.166047,0.166 -0.747213,3.0996 c 0.0362,0.029 0.07504,0.053 0.110699,0.083 L 29.507235,1018.5693 z m -5.839327,3.487 c -0.364867,0.023 -0.712483,0.068 -1.079308,0.166 -2.51289,0.6733 -4.142981,2.9874 -4.068158,5.4795 0.162202,-2.2742 1.742085,-4.3028 4.068158,-4.926 2.934601,-0.7864 5.93857,0.9675 6.724914,3.9021 0.115447,0.4309 0.155356,0.846 0.166047,1.273 0.04486,-0.6006 -0.0013,-1.2118 -0.166047,-1.8265 C 28.625463,1023.5566 26.22197,1021.9029 23.667908,1022.0563 z m -9.187949,0.5257 2.546058,2.7121 c 0.04264,-0.1308 0.08859,-0.2594 0.138372,-0.3874 L 15.144148,1022.7481 14.479959,1022.582 z m 22.776148,1.7159 -5.922352,3.487 c -0.02655,0.8376 -0.201539,1.6446 -0.498141,2.4077 l 0.138372,0.1383 c 0.20638,-0.6414 0.337961,-1.3321 0.359769,-2.0202 l 6.835612,-4.0128 L 37.256107,1024.2979 z m -26.51221,7.0292 -0.9132603,0.5535 7.9425933,0.083 c 0.416784,0.6719 0.928795,1.2484 1.5221,1.7434 l 0.110698,-0.4427 c -0.638387,-0.5126 -1.190962,-1.1419 -1.632798,-1.8542 L 10.743896,1031.3271 z m 18.95706,0.8027 c -0.512511,0.6383 -1.114331,1.1909 -1.82652,1.6328 l 0,0.5535 c 0.712189,-0.4419 1.314009,-0.9945 1.82652,-1.6328 l 3.819087,0.9131 -0.664189,-0.7195 L 29.700957,1032.1298 z m -8.357711,2.2416 -2.684431,2.5184 -0.166047,0.7195 2.850478,-2.6844 c 0.763024,0.2965 1.597655,0.4715 2.43536,0.4981 l 4.012808,6.8357 0,-0.5535 -4.012808,-6.8357 C 22.940901,1034.8429 22.10627,1034.668 21.343246,1034.3714 Z"
         style="color:#000000;fill:#ffffff;fill-opacity:0.23718106;fill-rule:nonzero;stroke:none;stroke-width:0.80000001;marker:none;visibility:visible;display:inline;overflow:visible;enable-background:accumulate" />
      <path
         style="color:#000000;fill:#ffffff;fill-opacity:0.11899252;fill-rule:nonzero;stroke:none;stroke-width:0.80000001;marker:none;visibility:visible;display:inline;overflow:visible;enable-background:accumulate"
         d="m 29.507235,1019.1193 -0.166047,0.166 -0.747213,3.0996 c 0.0362,0.029 0.07504,0.053 0.110699,0.083 L 29.507235,1019.1193 z m -5.839327,3.487 c -0.364867,0.022 -0.712483,0.068 -1.079308,0.1661 -2.51289,0.6733 -4.142981,2.9873 -4.068158,5.4795 0.162202,-2.2741 1.742085,-4.3029 4.068158,-4.926 2.934601,-0.7865 5.93857,0.9675 6.724914,3.902 0.115447,0.4309 0.155356,0.846 0.166047,1.273 0.04486,-0.6006 -0.0013,-1.2118 -0.166047,-1.8265 C 28.625463,1024.1066 26.22197,1022.4529 23.667908,1022.6063 z m -9.187949,0.5258 2.546058,2.7121 c 0.04264,-0.1309 0.08859,-0.2594 0.138372,-0.3875 L 15.144148,1023.2981 14.479959,1023.1321 z m 22.776148,1.7158 -5.922352,3.487 c -0.02655,0.8377 -0.201539,1.6447 -0.498141,2.4077 l 0.138372,0.1384 c 0.20638,-0.6415 0.337961,-1.3322 0.359769,-2.0202 l 6.835612,-4.0129 L 37.256107,1024.8479 z m -26.51221,7.0294 -0.9132603,0.5534 7.9425933,0.083 c 0.416784,0.6719 0.928795,1.2485 1.5221,1.7435 l 0.110698,-0.4428 c -0.638387,-0.5125 -1.190962,-1.1419 -1.632798,-1.8541 L 10.743896,1031.8773 z m 18.95706,0.8026 c -0.512511,0.6383 -1.114331,1.1909 -1.82652,1.6327 l 0,0.5535 c 0.712189,-0.4418 1.314009,-0.9945 1.82652,-1.6327 l 3.819087,0.9132 -0.664189,-0.7197 L 29.700957,1032.6799 z m -8.357711,2.2415 -2.684431,2.5184 -0.166047,0.7196 2.850478,-2.6845 c 0.763024,0.2965 1.597655,0.4716 2.43536,0.4981 l 4.012808,6.8357 0,-0.5535 -4.012808,-6.8356 C 22.940901,1035.393 22.10627,1035.218 21.343246,1034.9214 Z"
         id="path916"
         inkscape:connector-curvature="0" />
      <path
         d="m 20.203299,1013.3624 -0.06804,7.9378 c -0.712188,0.4419 -1.33296,0.9982 -1.84547,1.6365 l -3.816818,-0.9053 2.692433,2.8529 c -0.296602,0.763 -0.46795,1.5787 -0.494498,2.4164 l -6.8404201,4.0279 7.9379141,0.067 c 0.441836,0.7123 0.998076,1.3329 1.636462,1.8455 l -0.905294,3.8168 2.852816,-2.6925 c 0.763023,0.2967 1.578749,0.468 2.416453,0.4945 l 4.027866,6.8405 0.06801,-7.938 c 0.712189,-0.4417 1.33296,-0.998 1.845472,-1.6364 l 3.816817,0.9053 -2.692434,-2.8528 c 0.296603,-0.7631 0.46795,-1.5788 0.494499,-2.4164 l 6.840441,-4.0279 -7.937935,-0.068 c -0.441837,-0.7122 -0.998076,-1.333 -1.636464,-1.8454 l 0.905295,-3.817 -2.852815,2.6925 c -0.763023,-0.2966 -1.578748,-0.468 -2.416452,-0.4945 L 20.203299,1013.3624 z m 2.372927,8.8559 c 2.934602,-0.7864 5.951003,0.9552 6.737347,3.8898 0.786321,2.9346 -0.955208,5.951 -3.889809,6.7373 -2.934602,0.7863 -5.951003,-0.9552 -6.737325,-3.8898 C 17.900097,1026.021 19.641625,1023.0047 22.576226,1022.2183 Z"
         inkscape:connector-curvature="0"
         id="path4588"
         style="color:#000000;fill:#000000;fill-opacity:0.57322172;fill-rule:nonzero;stroke:none;stroke-width:0.80000001;marker:none;visibility:visible;display:inline;overflow:visible;enable-background:accumulate" />
      <path
         id="path936"
         d="m 20.20859,1013.3622 -0.08302,7.9426 c -0.712189,0.4419 -1.31401,0.9945 -1.82652,1.6328 l -3.819086,-0.9132 2.68443,2.8504 c -0.296603,0.763 -0.471593,1.5977 -0.498142,2.4353 l -6.8356113,4.0129 0.8025613,0 6.420493,-3.7914 c 0.02655,-0.8377 0.201539,-1.6447 0.498143,-2.4077 l -2.684431,-2.8505 3.819087,0.9133 c 0.51251,-0.6384 1.11433,-1.2185 1.826519,-1.6605 l 0.08302,-7.4998 L 20.20859,1013.3622 z m 9.298645,4.6493 -2.850477,2.6845 c -0.688224,-0.2676 -1.434859,-0.4211 -2.186289,-0.4706 l 0.138373,0.2215 c 0.837704,0.026 1.672337,0.2015 2.435359,0.4981 l 2.269313,-2.1586 L 29.507235,1018.0115 z m -2.324661,5.0368 c 1.004124,0.7154 1.786915,1.788 2.13094,3.0719 0.78632,2.9346 -0.967509,5.9386 -3.90211,6.7248 -1.42467,0.3819 -2.841778,0.159 -4.040484,-0.4981 1.267578,0.837 2.845325,1.1713 4.427927,0.7473 2.934602,-0.7863 4.688431,-3.8179 3.90211,-6.7526 C 29.314825,1024.9006 28.370428,1023.7559 27.182574,1023.0483 z m 3.265596,0.6089 c 0.05499,0.082 0.114152,0.1653 0.166047,0.2491 l 7.195381,0.054 0.359769,-0.2208 L 30.44817,1023.6572 z m -12.508893,7.9702 c 0.414592,0.6136 0.900231,1.1502 1.466751,1.6051 l -0.91326,3.8191 0.581166,-0.5535 0.719537,-3.0165 c -0.638387,-0.5125 -1.190961,-1.142 -1.632797,-1.8542 L 17.939277,1031.6274 z m 5.950027,3.4594 3.90211,6.6141 0,-0.4151 -3.625365,-6.199 C 24.075166,1035.0838 23.97963,1035.093 23.889304,1035.0868 Z"
         style="color:#000000;fill:#000000;fill-opacity:0.49790793;fill-rule:nonzero;stroke:none;stroke-width:0.80000001;marker:none;visibility:visible;display:inline;overflow:visible;enable-background:accumulate"
         inkscape:connector-curvature="0" />
      <path
         d="m 25.604027,1029.1494 -3.208603,-3.2086 13.59252,-10.3839 L 25.604027,1029.1494 Z"
         inkscape:connector-curvature="0"
         id="path5923-0-5"
         style="fill:url(#linearGradient4578);fill-opacity:1;fill-rule:evenodd;stroke:none" />
      <path
         d="m 25.604028,1029.1494 -3.208604,-3.2086 -10.383855,13.5925 L 25.604028,1029.1494 Z"
         inkscape:connector-curvature="0"
         id="path5926-8-6"
         style="fill:url(#linearGradient4580);fill-opacity:1;fill-rule:evenodd;stroke:none" />
      <path
         id="path986"
         d="M 22.40539,1025.9503 11.994758,1039.5311 23.990467,1027.5354 22.40539,1025.9503 Z"
         style="opacity:0.46700003;fill:url(#linearGradient996);fill-opacity:1;stroke:none"
         inkscape:connector-curvature="0" />
      <path
         inkscape:connector-curvature="0"
         style="opacity:0.46700003;fill:url(#linearGradient1007);fill-opacity:1;stroke:none"
         d="M 25.604256,1029.1492 12.023501,1039.5598 24.01921,1027.5641 25.604256,1029.1492 Z"
         id="path1005" />
      <path
         inkscape:connector-curvature="0"
         style="opacity:0.46700003;fill:url(#linearGradient1013);fill-opacity:1;stroke:none"
         d="M 22.405193,1025.9506 35.985947,1015.5399 23.990239,1027.5356 22.405193,1025.9506 Z"
         id="path1009" />
      <path
         id="path1011"
         d="M 25.604027,1029.1494 36.01469,1015.5686 24.018981,1027.5644 25.604027,1029.1494 Z"
         style="opacity:0.46700003;fill:url(#linearGradient1015);fill-opacity:1;stroke:none"
         inkscape:connector-curvature="0" />
      <path
         id="rect945"
         d="m 12.640531,1038.6896 -0.645773,0.8415 11.995709,-11.9957 -0.09784,-0.098 L 12.640531,1038.6896 Z"
         style="opacity:0.37700004;fill:url(#linearGradient953);fill-opacity:1;stroke:none"
         inkscape:connector-curvature="0" />
      <path
         inkscape:connector-curvature="0"
         style="opacity:0.37700004;fill:url(#linearGradient976);fill-opacity:1;stroke:none"
         d="m 12.836188,1038.8853 -0.84143,0.6458 11.995709,-11.9957 0.09781,0.098 L 12.836188,1038.8853 Z"
         id="path974" />
      <path
         inkscape:connector-curvature="0"
         style="opacity:0.37700004;fill:url(#linearGradient982);fill-opacity:1;stroke:none"
         d="m 35.144518,1016.1857 0.841429,-0.6458 -11.995708,11.9957 -0.09781,-0.098 L 35.144518,1016.1857 Z"
         id="path978" />
      <path
         id="path980"
         d="m 35.340144,1016.3813 0.645803,-0.8414 -11.995708,11.9957 0.09781,0.098 L 35.340144,1016.3813 Z"
         style="opacity:0.37700004;fill:url(#linearGradient984);fill-opacity:1;stroke:none"
         inkscape:connector-curvature="0" />
      <path
         sodipodi:type="arc"
         style="fill:url(#linearGradient975);fill-opacity:1;stroke:none"
         id="path963"
         sodipodi:cx="15.423767"
         sodipodi:cy="22.499962"
         sodipodi:rx="1.9887378"
         sodipodi:ry="1.9887378"
         d="m 17.412505,22.499962 a 1.9887378,1.9887378 0 1 1 -3.977476,0 A 1.9887378,1.9887378 0 1 1 17.412505,22.499962 Z"
         transform="matrix(0.90160337,0,0,0.90160337,10.093882,1007.1377)" />
      <path
         style="fill:#000000;fill-opacity:0.23529412;stroke:none"
         d="m 22.337671,1028.1175 c 0.259548,0.6706 0.900207,1.1552 1.662331,1.1552 0.762124,0 1.402783,-0.4846 1.662332,-1.1552 -0.272201,0.6437 -0.919625,1.0989 -1.662332,1.0989 C 23.257296,1029.2164 22.609871,1028.7612 22.337671,1028.1175 Z"
         id="path965"
         inkscape:connector-curvature="0" />
      <path
         inkscape:connector-curvature="0"
         id="path967"
         d="m 22.337671,1028.1725 c 0.259548,0.6704 0.900207,1.1551 1.662331,1.1551 0.762124,0 1.402783,-0.4847 1.662332,-1.1551 -0.272201,0.6436 -0.919625,1.0988 -1.662332,1.0988 C 23.257296,1029.2713 22.609871,1028.8161 22.337671,1028.1725 Z"
         style="fill:#000000;fill-opacity:0.13807529;stroke:none" />
      <path
         style="fill:#000000;fill-opacity:0.07949793;stroke:none"
         d="m 22.337671,1028.2273 c 0.259548,0.6706 0.900207,1.1553 1.662331,1.1553 0.762124,0 1.402783,-0.4847 1.662332,-1.1553 -0.272201,0.6437 -0.919625,1.099 -1.662332,1.099 C 23.257296,1029.3263 22.609871,1028.871 22.337671,1028.2273 Z"
         id="path969"
         inkscape:connector-curvature="0" />
      <path
         style="fill:#ffffff;fill-opacity:0.73640167;stroke:none"
         d="m 24.000002,1025.6256 c -0.990275,0 -1.799652,0.8094 -1.799652,1.7997 0,0.025 0.01316,0.046 0.01417,0.071 0.0317,-0.9624 0.815316,-1.7288 1.785482,-1.7288 0.970166,0 1.753788,0.7664 1.785481,1.7288 0.001,-0.025 0.01417,-0.046 0.01417,-0.071 C 25.799655,1026.435 24.990278,1025.6256 24.000002,1025.6256 Z"
         id="path971"
         inkscape:connector-curvature="0" />
      <path
         inkscape:connector-curvature="0"
         id="path973"
         d="m 22.337671,1028.2823 c 0.259548,0.6704 0.900207,1.1552 1.662331,1.1552 0.762124,0 1.402783,-0.4848 1.662332,-1.1552 -0.272201,0.6436 -0.919625,1.0989 -1.662332,1.0989 C 23.257296,1029.3812 22.609871,1028.9259 22.337671,1028.2823 Z"
         style="fill:#000000;fill-opacity:0.03921569;stroke:none" />
      <path
         transform="matrix(0.01383727,0,0,0.01383727,23.735822,1026.3048)"
         d="m 56.568541,88.658638 a 37.476658,37.476658 0 1 1 -74.953316,0 A 37.476658,37.476658 0 1 1 56.568541,88.658638 Z"
         sodipodi:ry="37.476658"
         sodipodi:rx="37.476658"
         sodipodi:cy="88.658638"
         sodipodi:cx="19.091883"
         id="path1066"
         style="fill:#1a1a1a;fill-opacity:0.54811719;stroke:none"
         sodipodi:type="arc" />
      <path
         inkscape:connector-curvature="0"
         id="path1068"
         d="m 23.999984,1027.013 c -0.286401,0 -0.518466,0.2321 -0.518466,0.5185 0,0.018 8.42e-4,0.036 0.0027,0.053 0.02714,-0.2609 0.24781,-0.4639 0.515871,-0.4639 0.268062,0 0.488723,0.203 0.51587,0.4639 0.0018,-0.018 0.0026,-0.035 0.0026,-0.053 C 24.518449,1027.2451 24.286386,1027.013 23.999984,1027.013 Z"
         style="fill:#000000;fill-opacity:0.54811719;stroke:none" />
      <path
         inkscape:connector-curvature="0"
         id="path1073"
         d="m 23.48198,1027.5544 c -2.88e-4,0.01 -4.43e-4,0.015 -4.43e-4,0.022 0,0.2864 0.232064,0.5185 0.518465,0.5185 0.286401,0 0.518465,-0.2321 0.518465,-0.5185 0,-0.01 -1.33e-4,-0.014 -4.43e-4,-0.022 -0.0139,0.274 -0.240581,0.4917 -0.518033,0.4917 C 23.722561,1028.0461 23.495868,1027.8284 23.48198,1027.5544 Z"
         style="fill:#ffffff;fill-opacity:0.54811719;stroke:none" />
    </g>
    <path
       inkscape:connector-curvature="0"
       style="color:#000000;fill:#000000;fill-opacity:1;fill-rule:nonzero;stroke:none;stroke-width:0.2;marker:none;visibility:visible;display:inline;overflow:visible;enable-background:accumulate"
       d="m 1.7500001,1044.1747 0,0.5625 c 0,3.2445 2.5992248,5.875 5.8437498,5.875 l 32.8125001,0 c 3.244525,0 5.84375,-2.6305 5.84375,-5.875 l 0,-0.5625 c 0,3.2445 -2.599225,5.875 -5.84375,5.875 l -32.8125001,0 C 4.3492249,1050.0497 1.7500001,1047.4192 1.7500001,1044.1747 Z"
       id="path6388" />
    <path
       id="path6361"
       d="m 1.7500001,1012.5497 0,-0.5625 c 0,-3.2445 2.5992248,-5.875 5.8437498,-5.875 l 32.8125001,0 c 3.244525,0 5.84375,2.6305 5.84375,5.875 l 0,0.5625 c 0,-3.2445 -2.599225,-5.875 -5.84375,-5.875 l -32.8125001,0 C 4.3492249,1006.6747 1.7500001,1009.3052 1.7500001,1012.5497 Z"
       style="color:#000000;fill:#ffffff;fill-opacity:1;fill-rule:nonzero;stroke:none;stroke-width:0.2;marker:none;visibility:visible;display:inline;overflow:visible;enable-background:accumulate"
       inkscape:connector-curvature="0" />
  </g>
</svg>
