<?xml version="1.0" encoding="UTF-8" standalone="no"?>
<!-- Created with Inkscape (http://www.inkscape.org/) -->

<svg
   xmlns:dc="http://purl.org/dc/elements/1.1/"
   xmlns:cc="http://creativecommons.org/ns#"
   xmlns:rdf="http://www.w3.org/1999/02/22-rdf-syntax-ns#"
   xmlns:svg="http://www.w3.org/2000/svg"
   xmlns="http://www.w3.org/2000/svg"
   xmlns:xlink="http://www.w3.org/1999/xlink"
   xmlns:sodipodi="http://sodipodi.sourceforge.net/DTD/sodipodi-0.dtd"
   xmlns:inkscape="http://www.inkscape.org/namespaces/inkscape"
   width="48"
   height="48"
   id="svg2"
   version="1.1"
   inkscape:version="0.48+devel r12149"
   sodipodi:docname="netbeans.svg">
  <defs
     id="defs4">
    <linearGradient
       inkscape:collect="always"
       id="linearGradient1126">
      <stop
         style="stop-color:#f9f9f9;stop-opacity:1"
         offset="0"
         id="stop1128" />
      <stop
         style="stop-color:#ffffff;stop-opacity:1"
         offset="1"
         id="stop1130" />
    </linearGradient>
    <linearGradient
       inkscape:collect="always"
       xlink:href="#linearGradient1449"
       id="linearGradient1455"
       x1="18.25"
       y1="1027.8622"
       x2="18.25"
       y2="1012.6122"
       gradientUnits="userSpaceOnUse"
       gradientTransform="matrix(0.84798449,0,0,0.84798449,3.6483729,155.94406)" />
    <linearGradient
       inkscape:collect="always"
       id="linearGradient1449">
      <stop
         style="stop-color:#ff6600;stop-opacity:1"
         offset="0"
         id="stop1451" />
      <stop
         style="stop-color:#fdce04;stop-opacity:1"
         offset="1"
         id="stop1453" />
    </linearGradient>
    <linearGradient
       inkscape:collect="always"
       xlink:href="#linearGradient1501"
       id="linearGradient1477"
       x1="33.23402"
       y1="40.928932"
       x2="33.23402"
       y2="24.842253"
       gradientUnits="userSpaceOnUse"
       gradientTransform="matrix(0.84798449,0,0,0.84798449,3.6483729,1007.6276)" />
    <linearGradient
       id="linearGradient1501"
       inkscape:collect="always">
      <stop
         id="stop1503"
         offset="0"
         style="stop-color:#ff0082;stop-opacity:1" />
      <stop
         id="stop1505"
         offset="1"
         style="stop-color:#e604fd;stop-opacity:1" />
    </linearGradient>
    <linearGradient
       inkscape:collect="always"
       xlink:href="#linearGradient1495"
       id="linearGradient1485"
       x1="16.970562"
       y1="40.752155"
       x2="16.970562"
       y2="24.311922"
       gradientUnits="userSpaceOnUse"
       gradientTransform="matrix(0.84798449,0,0,0.84798449,3.6483729,1007.6276)" />
    <linearGradient
       id="linearGradient1495"
       inkscape:collect="always">
      <stop
         id="stop1497"
         offset="0"
         style="stop-color:#0086ff;stop-opacity:1" />
      <stop
         id="stop1499"
         offset="1"
         style="stop-color:#04dcfd;stop-opacity:1" />
    </linearGradient>
    <linearGradient
       inkscape:collect="always"
       xlink:href="#linearGradient1501"
       id="linearGradient1475"
       x1="34.294678"
       y1="32.797203"
       x2="34.294678"
       y2="16.003418"
       gradientUnits="userSpaceOnUse"
       gradientTransform="matrix(0.84798449,0,0,0.84798449,3.6483729,1007.6276)" />
    <linearGradient
       inkscape:collect="always"
       xlink:href="#linearGradient1489"
       id="linearGradient1487"
       x1="18.738329"
       y1="32.266872"
       x2="18.738329"
       y2="15.826641"
       gradientUnits="userSpaceOnUse"
       gradientTransform="matrix(0.84798449,0,0,0.84798449,3.6483729,1007.6276)" />
    <linearGradient
       id="linearGradient1489"
       inkscape:collect="always">
      <stop
         id="stop1491"
         offset="0"
         style="stop-color:#529c21;stop-opacity:1" />
      <stop
         id="stop1493"
         offset="1"
         style="stop-color:#e9fc65;stop-opacity:1" />
    </linearGradient>
    <linearGradient
       inkscape:collect="always"
       xlink:href="#linearGradient1449"
       id="linearGradient1467"
       gradientUnits="userSpaceOnUse"
       x1="18.25"
       y1="1027.8622"
       x2="18.25"
       y2="1012.6122"
       gradientTransform="matrix(-0.84798449,0,0,0.84798449,44.351626,155.94406)" />
    <linearGradient
       inkscape:collect="always"
       xlink:href="#linearGradient1449"
       id="linearGradient1603"
       gradientUnits="userSpaceOnUse"
       x1="18.25"
       y1="1027.8622"
       x2="18.25"
       y2="1012.6122"
       gradientTransform="matrix(0.6889874,0,0,0.6889874,7.4643029,319.45066)" />
    <linearGradient
       inkscape:collect="always"
       xlink:href="#linearGradient1501"
       id="linearGradient1605"
       gradientUnits="userSpaceOnUse"
       x1="33.23402"
       y1="40.928932"
       x2="33.23402"
       y2="24.842253"
       gradientTransform="matrix(0.6889874,0,0,0.6889874,7.4643029,1011.4435)" />
    <linearGradient
       inkscape:collect="always"
       xlink:href="#linearGradient1495"
       id="linearGradient1607"
       gradientUnits="userSpaceOnUse"
       x1="16.970562"
       y1="40.752155"
       x2="16.970562"
       y2="24.311922"
       gradientTransform="matrix(0.6889874,0,0,0.6889874,7.4643029,1011.4435)" />
    <linearGradient
       inkscape:collect="always"
       xlink:href="#linearGradient1501"
       id="linearGradient1609"
       gradientUnits="userSpaceOnUse"
       x1="34.294678"
       y1="32.797203"
       x2="34.294678"
       y2="16.003418"
       gradientTransform="matrix(0.6889874,0,0,0.6889874,7.4643029,1011.4435)" />
    <linearGradient
       inkscape:collect="always"
       xlink:href="#linearGradient1489"
       id="linearGradient1611"
       gradientUnits="userSpaceOnUse"
       x1="18.738329"
       y1="32.266872"
       x2="18.738329"
       y2="15.826641"
       gradientTransform="matrix(0.6889874,0,0,0.6889874,7.4643029,1011.4435)" />
    <linearGradient
       inkscape:collect="always"
       xlink:href="#linearGradient1449"
       id="linearGradient1613"
       gradientUnits="userSpaceOnUse"
       gradientTransform="matrix(-0.6889874,0,0,0.6889874,40.535696,319.45066)"
       x1="18.25"
       y1="1027.8622"
       x2="18.25"
       y2="1012.6122" />
    <linearGradient
       inkscape:collect="always"
       xlink:href="#linearGradient1449"
       id="linearGradient1637"
       gradientUnits="userSpaceOnUse"
       gradientTransform="matrix(0.47699128,0,0,0.47699128,12.55221,537.45947)"
       x1="18.25"
       y1="1027.8622"
       x2="18.25"
       y2="1012.6122" />
    <linearGradient
       inkscape:collect="always"
       xlink:href="#linearGradient1501"
       id="linearGradient1639"
       gradientUnits="userSpaceOnUse"
       gradientTransform="matrix(0.47699128,0,0,0.47699128,12.55221,1016.5314)"
       x1="33.23402"
       y1="40.928932"
       x2="33.23402"
       y2="24.842253" />
    <linearGradient
       inkscape:collect="always"
       xlink:href="#linearGradient1495"
       id="linearGradient1641"
       gradientUnits="userSpaceOnUse"
       gradientTransform="matrix(0.47699128,0,0,0.47699128,12.55221,1016.5314)"
       x1="16.970562"
       y1="40.752155"
       x2="16.970562"
       y2="24.311922" />
    <linearGradient
       inkscape:collect="always"
       xlink:href="#linearGradient1501"
       id="linearGradient1643"
       gradientUnits="userSpaceOnUse"
       gradientTransform="matrix(0.47699128,0,0,0.47699128,12.55221,1016.5314)"
       x1="34.294678"
       y1="32.797203"
       x2="34.294678"
       y2="16.003418" />
    <linearGradient
       inkscape:collect="always"
       xlink:href="#linearGradient1489"
       id="linearGradient1645"
       gradientUnits="userSpaceOnUse"
       gradientTransform="matrix(0.47699128,0,0,0.47699128,12.55221,1016.5314)"
       x1="18.738329"
       y1="32.266872"
       x2="18.738329"
       y2="15.826641" />
    <linearGradient
       inkscape:collect="always"
       xlink:href="#linearGradient1449"
       id="linearGradient1647"
       gradientUnits="userSpaceOnUse"
       gradientTransform="matrix(-0.47699128,0,0,0.47699128,35.447786,537.45947)"
       x1="18.25"
       y1="1027.8622"
       x2="18.25"
       y2="1012.6122" />
    <linearGradient
       inkscape:collect="always"
       xlink:href="#linearGradient1666"
       id="linearGradient1712"
       gradientUnits="userSpaceOnUse"
       gradientTransform="matrix(-0.42399224,0.73437611,0.73437611,0.42399224,28.290097,1006.9623)"
       x1="15.762662"
       y1="8.0730209"
       x2="19.541199"
       y2="14.617639" />
    <linearGradient
       inkscape:collect="always"
       id="linearGradient1666">
      <stop
         style="stop-color:#ffffff;stop-opacity:1;"
         offset="0"
         id="stop1668" />
      <stop
         style="stop-color:#ffffff;stop-opacity:0;"
         offset="1"
         id="stop1670" />
    </linearGradient>
    <linearGradient
       inkscape:collect="always"
       xlink:href="#linearGradient1666"
       id="linearGradient1672"
       x1="23.1875"
       y1="29"
       x2="23.1875"
       y2="10.0625"
       gradientUnits="userSpaceOnUse"
       gradientTransform="matrix(0.84798449,0,0,0.84798449,3.6483729,1007.6276)" />
    <linearGradient
       inkscape:collect="always"
       xlink:href="#linearGradient1676"
       id="linearGradient1694"
       gradientUnits="userSpaceOnUse"
       gradientTransform="matrix(0.42399224,-0.73437611,-0.73437611,-0.42399224,31.438476,1055.7894)"
       x1="16.661312"
       y1="2.7071338"
       x2="21.884518"
       y2="11.753991" />
    <linearGradient
       inkscape:collect="always"
       id="linearGradient1676">
      <stop
         style="stop-color:#000000;stop-opacity:1;"
         offset="0"
         id="stop1678" />
      <stop
         style="stop-color:#000000;stop-opacity:0;"
         offset="1"
         id="stop1680" />
    </linearGradient>
    <linearGradient
       inkscape:collect="always"
       xlink:href="#linearGradient1666"
       id="linearGradient1698"
       gradientUnits="userSpaceOnUse"
       x1="15.762662"
       y1="8.0730209"
       x2="19.541199"
       y2="14.617639"
       gradientTransform="matrix(0.42399224,0.73437611,-0.73437611,0.42399224,19.709904,1006.9623)" />
    <linearGradient
       inkscape:collect="always"
       xlink:href="#linearGradient1676"
       id="linearGradient1716"
       gradientUnits="userSpaceOnUse"
       gradientTransform="matrix(-0.42399224,-0.73437611,0.73437611,-0.42399224,16.56152,1055.7894)"
       x1="16.661312"
       y1="2.7071338"
       x2="21.884518"
       y2="11.753991" />
    <linearGradient
       inkscape:collect="always"
       xlink:href="#linearGradient1126"
       id="linearGradient1132"
       x1="25.809397"
       y1="1051.1248"
       x2="25.809397"
       y2="1005.6932"
       gradientUnits="userSpaceOnUse" />
  </defs>
  <sodipodi:namedview
     id="base"
     pagecolor="#ffffff"
     bordercolor="#666666"
     borderopacity="1.0"
     inkscape:pageopacity="0.0"
     inkscape:pageshadow="2"
     inkscape:zoom="5.6568545"
     inkscape:cx="24.872414"
     inkscape:cy="26.846946"
     inkscape:document-units="px"
     inkscape:current-layer="layer1"
     showgrid="false"
     inkscape:window-width="1366"
     inkscape:window-height="714"
     inkscape:window-x="0"
     inkscape:window-y="30"
     inkscape:window-maximized="1"
     showguides="true"
     inkscape:guide-bbox="true">
    <inkscape:grid
       type="xygrid"
       id="grid3850" />
  </sodipodi:namedview>
  <metadata
     id="metadata7">
    <rdf:RDF>
      <cc:Work
         rdf:about="">
        <dc:format>image/svg+xml</dc:format>
        <dc:type
           rdf:resource="http://purl.org/dc/dcmitype/StillImage" />
        <dc:title />
      </cc:Work>
    </rdf:RDF>
  </metadata>
  <g
     inkscape:label="Capa 1"
     inkscape:groupmode="layer"
     id="layer1"
     transform="translate(0,-1004.3622)">
    <rect
       style="color:#000000;fill:#333333;fill-opacity:1;fill-rule:nonzero;stroke:none;stroke-width:0.2;marker:none;visibility:visible;display:inline;overflow:visible;enable-background:accumulate"
       id="rect6294"
       width="45.5"
       height="45.5"
       x="1.25"
       y="1005.6122"
       ry="6.3565426" />
    <rect
       ry="5.8565426"
       y="1006.1122"
       x="1.75"
       height="44.5"
       width="44.5"
       id="rect6296"
       style="color:#000000;fill:url(#linearGradient1132);fill-opacity:1;fill-rule:nonzero;stroke:none;stroke-width:0.2;marker:none;visibility:visible;display:inline;overflow:visible;enable-background:accumulate" />
    <path
       id="path6361"
       d="m 1.7499997,1012.5497 0,-0.5625 c 0,-3.2445 2.5992255,-5.875 5.8437505,-5.875 l 32.8124998,0 c 3.244525,0 5.84375,2.6305 5.84375,5.875 l 0,0.5625 c 0,-3.2445 -2.599225,-5.875 -5.84375,-5.875 l -32.8124998,0 C 4.3492252,1006.6747 1.7499997,1009.3052 1.7499997,1012.5497 Z"
       style="color:#000000;fill:#ffffff;fill-opacity:1;fill-rule:nonzero;stroke:none;stroke-width:0.2;marker:none;visibility:visible;display:inline;overflow:visible;enable-background:accumulate"
       inkscape:connector-curvature="0" />
    <path
       inkscape:connector-curvature="0"
       style="color:#000000;fill:#000000;fill-opacity:1;fill-rule:nonzero;stroke:none;stroke-width:0.2;marker:none;visibility:visible;display:inline;overflow:visible;enable-background:accumulate"
       d="m 1.7499997,1044.1747 0,0.5625 c 0,3.2445 2.5992255,5.875 5.8437505,5.875 l 32.8124998,0 c 3.244525,0 5.84375,-2.6305 5.84375,-5.875 l 0,-0.5625 c 0,3.2445 -2.599225,5.875 -5.84375,5.875 l -32.8124998,0 C 4.3492252,1050.0497 1.7499997,1047.4192 1.7499997,1044.1747 Z"
       id="path6388" />
    <g
       id="g1134">
      <path
         inkscape:connector-curvature="0"
         style="fill:url(#linearGradient1455);fill-opacity:1;stroke:none"
         d="m 24,1014.4115 0,13.5677 -11.739285,-6.7838 L 24,1014.4115 Z"
         id="path1425" />
      <path
         inkscape:connector-curvature="0"
         id="path1416"
         d="M 24,1041.547 35.739286,1034.7632 24,1027.9792 24,1041.547 Z"
         style="fill:url(#linearGradient1477);fill-opacity:1;stroke:none" />
      <path
         inkscape:connector-curvature="0"
         id="path1413"
         d="m 24,1041.547 0,-13.5678 -11.739285,6.784 L 24,1041.547 Z"
         style="fill:url(#linearGradient1485);fill-opacity:1;stroke:none" />
      <path
         inkscape:connector-curvature="0"
         id="path1421"
         d="m 24,1027.9792 11.739286,6.784 0,-13.5678 L 24,1027.9792 Z"
         style="fill:url(#linearGradient1475);fill-opacity:1;stroke:none" />
      <path
         inkscape:connector-curvature="0"
         id="path1419"
         d="m 12.260715,1021.1954 0,13.5678 L 24,1027.9792 12.260715,1021.1954 Z"
         style="fill:url(#linearGradient1487);fill-opacity:1;stroke:none" />
      <path
         id="path1465"
         d="m 24,1014.4115 0,13.5677 11.739286,-6.7838 L 24,1014.4115 Z"
         style="fill:url(#linearGradient1467);fill-opacity:1;stroke:none"
         inkscape:connector-curvature="0" />
      <path
         id="path1591"
         d="m 24,1016.9555 0,11.0237 -9.538169,-5.5118 L 24,1016.9555 Z"
         style="fill:url(#linearGradient1603);fill-opacity:1;stroke:none"
         inkscape:connector-curvature="0" />
      <path
         inkscape:connector-curvature="0"
         style="fill:url(#linearGradient1605);fill-opacity:1;stroke:none"
         d="m 24,1039.003 9.538166,-5.5118 L 24,1027.9792 24,1039.003 Z"
         id="path1593" />
      <path
         inkscape:connector-curvature="0"
         style="fill:url(#linearGradient1607);fill-opacity:1;stroke:none"
         d="m 24,1039.003 0,-11.0238 -9.538169,5.512 L 24,1039.003 Z"
         id="path1595" />
      <path
         inkscape:connector-curvature="0"
         style="fill:url(#linearGradient1609);fill-opacity:1;stroke:none"
         d="m 24,1027.9792 9.538166,5.512 0,-11.0238 L 24,1027.9792 Z"
         id="path1597" />
      <path
         inkscape:connector-curvature="0"
         style="fill:url(#linearGradient1611);fill-opacity:1;stroke:none"
         d="m 14.461831,1022.4674 0,11.0238 L 24,1027.9792 14.461831,1022.4674 Z"
         id="path1599" />
      <path
         inkscape:connector-curvature="0"
         style="fill:url(#linearGradient1613);fill-opacity:1;stroke:none"
         d="m 24,1016.9555 0,11.0237 9.538166,-5.5118 L 24,1016.9555 Z"
         id="path1601" />
      <path
         inkscape:connector-curvature="0"
         id="path1569"
         d="m 24,1016.9555 -9.538169,5.5119 0,11.0238 9.538169,5.5118 9.538166,-5.5118 0,-11.0238 L 24,1016.9555 z m 0,0.3015 9.279806,5.361 0,10.7224 -9.279806,5.3612 -9.279798,-5.3612 0,-10.7224 L 24,1017.257 Z"
         style="fill:#000000;fill-opacity:0.01214576;stroke:none" />
      <path
         inkscape:connector-curvature="0"
         style="fill:url(#linearGradient1637);fill-opacity:1;stroke:none"
         d="m 24,1020.3474 0,7.6318 -6.603349,-3.8159 L 24,1020.3474 Z"
         id="path1625" />
      <path
         id="path1627"
         d="m 24,1035.6111 6.603356,-3.816 L 24,1027.9792 24,1035.6111 Z"
         style="fill:url(#linearGradient1639);fill-opacity:1;stroke:none"
         inkscape:connector-curvature="0" />
      <path
         id="path1629"
         d="m 24,1035.6111 0,-7.6319 -6.603349,3.8159 L 24,1035.6111 Z"
         style="fill:url(#linearGradient1641);fill-opacity:1;stroke:none"
         inkscape:connector-curvature="0" />
      <path
         id="path1631"
         d="m 24,1027.9792 6.603356,3.8159 0,-7.6318 L 24,1027.9792 Z"
         style="fill:url(#linearGradient1643);fill-opacity:1;stroke:none"
         inkscape:connector-curvature="0" />
      <path
         id="path1633"
         d="m 17.396651,1024.1633 0,7.6318 L 24,1027.9792 17.396651,1024.1633 Z"
         style="fill:url(#linearGradient1645);fill-opacity:1;stroke:none"
         inkscape:connector-curvature="0" />
      <path
         id="path1635"
         d="m 24,1020.3474 0,7.6318 6.603356,-3.8159 L 24,1020.3474 Z"
         style="fill:url(#linearGradient1647);fill-opacity:1;stroke:none"
         inkscape:connector-curvature="0" />
      <path
         id="path1710"
         d="m 23.989292,1027.9792 11.744654,-6.7745 0.006,13.5585 -6.603879,3.8064 -5.14077,2.968 L 23.989292,1027.9792 Z"
         style="fill:url(#linearGradient1712);fill-opacity:1;stroke:none"
         inkscape:connector-curvature="0" />
      <path
         style="fill:#000000;fill-opacity:0.01214576;stroke:none"
         d="m 24,1020.3474 -6.603349,3.8159 0,7.6318 6.603349,3.816 6.603356,-3.816 0,-7.6318 L 24,1020.3474 z m 0,0.2088 6.424476,3.7114 0,7.4234 -6.424476,3.7115 -6.424475,-3.7115 0,-7.4234 L 24,1020.5562 Z"
         id="path1649"
         inkscape:connector-curvature="0" />
      <path
         inkscape:connector-curvature="0"
         id="path1651"
         d="m 24,1014.4115 -11.739285,6.7839 11.739285,6.7838 6.598386,-3.8159 5.1409,-2.9679 L 24,1014.4115 Z"
         style="fill:url(#linearGradient1672);fill-opacity:1;stroke:none" />
      <path
         style="fill:#000000;fill-opacity:0.06882593;stroke:none"
         d="m 24,1014.4115 -11.739285,6.7839 0,13.5678 L 24,1041.547 l 11.739286,-6.7838 0,-13.5678 L 24,1014.4115 z m 0,0.3712 11.421296,6.5982 0,13.1966 L 24,1041.1761 l -11.421291,-6.5986 0,-13.1966 L 24,1014.7827 Z"
         id="path1690"
         inkscape:connector-curvature="0" />
      <path
         inkscape:connector-curvature="0"
         id="path1692"
         d="m 24,1041.547 11.739286,-6.7838 0,-13.5413 -5.1409,2.968 L 24,1027.9792 24,1041.547 Z"
         style="fill:url(#linearGradient1694);fill-opacity:1;stroke:none" />
      <path
         inkscape:connector-curvature="0"
         style="fill:url(#linearGradient1698);fill-opacity:1;stroke:none"
         d="m 24.010709,1027.9792 -11.744651,-6.7745 -0.0053,13.5585 6.603882,3.8064 5.140769,2.968 L 24.010709,1027.9792 Z"
         id="path1696" />
      <path
         style="fill:url(#linearGradient1716);fill-opacity:1;stroke:none"
         d="m 24,1041.547 -11.739285,-6.7838 0,-13.5413 5.140906,2.968 L 24,1027.9792 24,1041.547 Z"
         id="path1714"
         inkscape:connector-curvature="0" />
      <path
         inkscape:connector-curvature="0"
         id="path1718"
         d="m 12.260715,1021.1822 0,0.9009 6.598379,3.816 5.140906,2.9679 5.140908,-2.9679 6.598378,-3.816 0,-0.9009 -6.598378,3.8159 L 24,1027.966 18.859094,1024.9981 12.260715,1021.1822 Z"
         style="fill:#000000;fill-opacity:0.27125507;stroke:none" />
      <path
         style="fill:#000000;fill-opacity:0.27125507;stroke:none"
         d="m 12.260715,1033.8621 0,0.9011 6.598379,3.8159 5.140906,2.9679 5.140908,-2.9679 6.598378,-3.8159 0,-0.9011 -6.598378,3.8159 L 24,1040.646 18.859094,1037.678 12.260715,1033.8621 Z"
         id="path1776"
         inkscape:connector-curvature="0" />
      <path
         inkscape:connector-curvature="0"
         id="path1784"
         d="m 12.260715,1034.7697 0,0.9011 6.598379,3.8159 5.140906,2.9679 5.140908,-2.9679 6.598378,-3.8159 0,-0.9011 -6.598378,3.8159 L 24,1041.5536 18.859094,1038.5856 12.260715,1034.7697 Z"
         style="fill:#000000;fill-opacity:0.12955466;stroke:none" />
      <path
         style="fill:#000000;fill-opacity:0.07692309;stroke:none"
         d="m 12.260715,1035.6773 0,0.9011 6.598379,3.8159 5.140906,2.9679 5.140908,-2.9679 6.598378,-3.8159 0,-0.9011 -6.598378,3.8159 L 24,1042.4613 18.859094,1039.4932 12.260715,1035.6773 Z"
         id="path1786"
         inkscape:connector-curvature="0" />
      <path
         style="fill:#000000;fill-opacity:0.16194332;stroke:none"
         d="m 12.260715,1022.0831 0,0.901 6.598379,3.8159 5.140906,2.968 5.140908,-2.968 6.598378,-3.8159 0,-0.901 -6.598378,3.816 L 24,1028.867 18.859094,1025.8991 12.260715,1022.0831 Z"
         id="path1788"
         inkscape:connector-curvature="0" />
      <path
         inkscape:connector-curvature="0"
         id="path1790"
         d="m 12.260715,1022.9841 0,0.901 6.598379,3.8159 5.140906,2.968 5.140908,-2.968 6.598378,-3.8159 0,-0.901 L 29.140908,1026.8 24,1029.768 18.859094,1026.8 12.260715,1022.9841 Z"
         style="fill:#000000;fill-opacity:0.10526315;stroke:none" />
      <path
         style="fill:#000000;fill-opacity:0.05668018;stroke:none"
         d="m 12.260715,1023.8851 0,0.901 6.598379,3.8159 5.140906,2.968 5.140908,-2.968 6.598378,-3.8159 0,-0.901 -6.598378,3.8159 L 24,1030.669 18.859094,1027.701 12.260715,1023.8851 Z"
         id="path1792"
         inkscape:connector-curvature="0" />
      <path
         inkscape:connector-curvature="0"
         id="path1794"
         d="m 12.260715,1024.7795 0,0.901 6.598379,3.8159 5.140906,2.9679 5.140908,-2.9679 6.598378,-3.8159 0,-0.901 -6.598378,3.8159 L 24,1031.5634 18.859094,1028.5954 12.260715,1024.7795 Z"
         style="fill:#000000;fill-opacity:0.03264268;stroke:none" />
      <path
         style="fill:#000000;fill-opacity:0.01303484;stroke:none"
         d="m 12.260715,1025.687 0,0.9011 6.598379,3.8159 5.140906,2.9679 5.140908,-2.9679 6.598378,-3.8159 0,-0.9011 -6.598378,3.816 L 24,1032.471 18.859094,1029.503 12.260715,1025.687 Z"
         id="path1796"
         inkscape:connector-curvature="0" />
      <path
         inkscape:connector-curvature="0"
         id="path1798"
         d="m 12.260715,1026.5881 0,0.9009 6.598379,3.8159 5.140906,2.9681 5.140908,-2.9681 6.598378,-3.8159 0,-0.9009 -6.598378,3.8159 L 24,1033.3719 18.859094,1030.404 12.260715,1026.5881 Z"
         style="fill:#000000;fill-opacity:0.00392157;stroke:none" />
      <path
         inkscape:connector-curvature="0"
         id="path1800"
         d="m 12.260715,1022.4674 0,-0.901 6.598379,-3.8159 5.140906,-2.968 5.140908,2.968 6.598378,3.8159 0,0.901 -6.598378,-3.816 L 24,1015.6835 18.859094,1018.6514 12.260715,1022.4674 Z"
         style="fill:#ffffff;fill-opacity:0.10931175;stroke:none" />
      <path
         style="fill:#ffffff;fill-opacity:0.06477733;stroke:none"
         d="m 12.260715,1023.3418 0,-0.9009 6.598379,-3.816 5.140906,-2.968 5.140908,2.968 6.598378,3.816 0,0.9009 -6.598378,-3.8159 L 24,1016.558 18.859094,1019.5259 12.260715,1023.3418 Z"
         id="path1802"
         inkscape:connector-curvature="0" />
      <path
         inkscape:connector-curvature="0"
         id="path1804"
         d="m 12.260715,1024.2427 0,-0.9009 6.598379,-3.8159 L 24,1016.558 l 5.140908,2.9679 6.598378,3.8159 0,0.9009 -6.598378,-3.8159 L 24,1017.4589 18.859094,1020.4268 12.260715,1024.2427 Z"
         style="fill:#ffffff;fill-opacity:0.04048582;stroke:none" />
      <path
         transform="matrix(0.84798449,0,0,0.84798449,4.1377339,1007.4381)"
         d="m 24.660349,24.223534 c 0,0.683417 -0.554019,1.237437 -1.237436,1.237437 -0.683418,0 -1.237437,-0.55402 -1.237437,-1.237437 0,-0.683418 0.554019,-1.237437 1.237437,-1.237437 C 24.10633,22.986097 24.660349,23.540116 24.660349,24.223534 Z"
         sodipodi:ry="1.2374369"
         sodipodi:rx="1.2374369"
         sodipodi:cy="24.223534"
         sodipodi:cx="23.422913"
         id="path1878"
         style="fill:#000000;fill-opacity:0.5372549;stroke:none"
         sodipodi:type="arc" />
      <path
         sodipodi:type="arc"
         style="fill:#000000;fill-opacity:0.5372549;stroke:none"
         id="path1880"
         sodipodi:cx="23.422913"
         sodipodi:cy="24.223534"
         sodipodi:rx="1.2374369"
         sodipodi:ry="1.2374369"
         d="m 24.660349,24.223534 c 0,0.683417 -0.554019,1.237437 -1.237436,1.237437 -0.683418,0 -1.237437,-0.55402 -1.237437,-1.237437 0,-0.683418 0.554019,-1.237437 1.237437,-1.237437 C 24.10633,22.986097 24.660349,23.540116 24.660349,24.223534 Z"
         transform="matrix(0.84798449,0,0,0.84798449,4.1377339,993.87036)" />
      <path
         transform="matrix(0.84798449,0,0,0.84798449,-7.7340491,1000.6542)"
         d="m 24.660349,24.223534 c 0,0.683417 -0.554019,1.237437 -1.237436,1.237437 -0.683418,0 -1.237437,-0.55402 -1.237437,-1.237437 0,-0.683418 0.554019,-1.237437 1.237437,-1.237437 C 24.10633,22.986097 24.660349,23.540116 24.660349,24.223534 Z"
         sodipodi:ry="1.2374369"
         sodipodi:rx="1.2374369"
         sodipodi:cy="24.223534"
         sodipodi:cx="23.422913"
         id="path1882"
         style="fill:#000000;fill-opacity:0.5372549;stroke:none"
         sodipodi:type="arc" />
      <path
         sodipodi:type="arc"
         style="fill:#000000;fill-opacity:0.5372549;stroke:none"
         id="path1884"
         sodipodi:cx="23.422913"
         sodipodi:cy="24.223534"
         sodipodi:rx="1.2374369"
         sodipodi:ry="1.2374369"
         d="m 24.660349,24.223534 c 0,0.683417 -0.554019,1.237437 -1.237436,1.237437 -0.683418,0 -1.237437,-0.55402 -1.237437,-1.237437 0,-0.683418 0.554019,-1.237437 1.237437,-1.237437 C 24.10633,22.986097 24.660349,23.540116 24.660349,24.223534 Z"
         transform="matrix(0.84798449,0,0,0.84798449,16.009516,1000.6542)" />
      <path
         transform="matrix(0.84798449,0,0,0.84798449,16.009516,1014.222)"
         d="m 24.660349,24.223534 c 0,0.683417 -0.554019,1.237437 -1.237436,1.237437 -0.683418,0 -1.237437,-0.55402 -1.237437,-1.237437 0,-0.683418 0.554019,-1.237437 1.237437,-1.237437 C 24.10633,22.986097 24.660349,23.540116 24.660349,24.223534 Z"
         sodipodi:ry="1.2374369"
         sodipodi:rx="1.2374369"
         sodipodi:cy="24.223534"
         sodipodi:cx="23.422913"
         id="path1886"
         style="fill:#000000;fill-opacity:0.5372549;stroke:none"
         sodipodi:type="arc" />
      <path
         sodipodi:type="arc"
         style="fill:#000000;fill-opacity:0.5372549;stroke:none"
         id="path1888"
         sodipodi:cx="23.422913"
         sodipodi:cy="24.223534"
         sodipodi:rx="1.2374369"
         sodipodi:ry="1.2374369"
         d="m 24.660349,24.223534 c 0,0.683417 -0.554019,1.237437 -1.237436,1.237437 -0.683418,0 -1.237437,-0.55402 -1.237437,-1.237437 0,-0.683418 0.554019,-1.237437 1.237437,-1.237437 C 24.10633,22.986097 24.660349,23.540116 24.660349,24.223534 Z"
         transform="matrix(0.84798449,0,0,0.84798449,-7.7340491,1014.222)" />
      <path
         sodipodi:type="arc"
         style="fill:#000000;fill-opacity:0.5372549;stroke:none"
         id="path1890"
         sodipodi:cx="23.422913"
         sodipodi:cy="24.223534"
         sodipodi:rx="1.2374369"
         sodipodi:ry="1.2374369"
         d="m 24.660349,24.223534 c 0,0.683417 -0.554019,1.237437 -1.237436,1.237437 -0.683418,0 -1.237437,-0.55402 -1.237437,-1.237437 0,-0.683418 0.554019,-1.237437 1.237437,-1.237437 C 24.10633,22.986097 24.660349,23.540116 24.660349,24.223534 Z"
         transform="matrix(0.84798449,0,0,0.84798449,4.1377339,1021.0058)" />
    </g>
  </g>
</svg>
