<?xml version="1.0" encoding="UTF-8" standalone="no"?>
<!-- Created with Inkscape (http://www.inkscape.org/) -->

<svg
   xmlns:dc="http://purl.org/dc/elements/1.1/"
   xmlns:cc="http://creativecommons.org/ns#"
   xmlns:rdf="http://www.w3.org/1999/02/22-rdf-syntax-ns#"
   xmlns:svg="http://www.w3.org/2000/svg"
   xmlns="http://www.w3.org/2000/svg"
   xmlns:xlink="http://www.w3.org/1999/xlink"
   xmlns:sodipodi="http://sodipodi.sourceforge.net/DTD/sodipodi-0.dtd"
   xmlns:inkscape="http://www.inkscape.org/namespaces/inkscape"
   width="48"
   height="48"
   id="svg2"
   version="1.1"
   inkscape:version="0.48+devel r12084"
   sodipodi:docname="nitroshare.svg">
  <defs
     id="defs4">
    <linearGradient
       inkscape:collect="always"
       id="linearGradient1368">
      <stop
         style="stop-color:#3e3e3e;stop-opacity:1"
         offset="0"
         id="stop1370" />
      <stop
         style="stop-color:#424242;stop-opacity:1"
         offset="1"
         id="stop1372" />
    </linearGradient>
    <linearGradient
       inkscape:collect="always"
       xlink:href="#linearGradient6011"
       id="linearGradient2845"
       x1="25.69384"
       y1="1016.8641"
       x2="25.69384"
       y2="1035.4147"
       gradientUnits="userSpaceOnUse"
       gradientTransform="matrix(1.2773788,0,0,1.2773788,-60.157092,-289.66729)" />
    <linearGradient
       id="linearGradient6011">
      <stop
         offset="0"
         style="stop-color:#ffffff;stop-opacity:1"
         id="stop6013" />
      <stop
         offset="0.5"
         style="stop-color:#ffffff;stop-opacity:1"
         id="stop6015" />
      <stop
         offset="0.5"
         style="stop-color:#c8c8c8;stop-opacity:1"
         id="stop6017" />
      <stop
         offset="1"
         style="stop-color:#ebebeb;stop-opacity:1"
         id="stop6019" />
    </linearGradient>
    <linearGradient
       inkscape:collect="always"
       xlink:href="#linearGradient1368"
       id="linearGradient1442"
       x1="24.5"
       y1="1051.3622"
       x2="24.5"
       y2="1006.0818"
       gradientUnits="userSpaceOnUse" />
  </defs>
  <sodipodi:namedview
     id="base"
     pagecolor="#ffffff"
     bordercolor="#666666"
     borderopacity="1.0"
     inkscape:pageopacity="0.0"
     inkscape:pageshadow="2"
     inkscape:zoom="4"
     inkscape:cx="9.3228374"
     inkscape:cy="7.8180341"
     inkscape:document-units="px"
     inkscape:current-layer="layer1"
     showgrid="false"
     inkscape:window-width="1366"
     inkscape:window-height="718"
     inkscape:window-x="0"
     inkscape:window-y="28"
     inkscape:window-maximized="1" />
  <metadata
     id="metadata7">
    <rdf:RDF>
      <cc:Work
         rdf:about="">
        <dc:format>image/svg+xml</dc:format>
        <dc:type
           rdf:resource="http://purl.org/dc/dcmitype/StillImage" />
        <dc:title />
      </cc:Work>
    </rdf:RDF>
  </metadata>
  <g
     inkscape:label="Capa 1"
     inkscape:groupmode="layer"
     id="layer1"
     transform="translate(0,-1004.3622)">
    <rect
       style="color:#000000;fill:#333333;fill-opacity:1;fill-rule:nonzero;stroke:none;stroke-width:0.2;marker:none;visibility:visible;display:inline;overflow:visible;enable-background:accumulate"
       id="rect6294"
       width="45.5"
       height="45.5"
       x="1.25"
       y="1005.6122"
       ry="6.3565426" />
    <rect
       ry="5.8565426"
       y="1006.1122"
       x="1.75"
       height="44.5"
       width="44.5"
       id="rect6296"
       style="color:#000000;fill:url(#linearGradient1442);fill-opacity:1;fill-rule:nonzero;stroke:none;stroke-width:0.2;marker:none;visibility:visible;display:inline;overflow:visible;enable-background:accumulate" />
    <path
       id="path6361"
       d="m 1.75,1012.5497 0,-0.5625 c 0,-3.2445 2.599225,-5.875 5.84375,-5.875 l 32.8125,0 c 3.244525,0 5.84375,2.6305 5.84375,5.875 l 0,0.5625 c 0,-3.2445 -2.599225,-5.875 -5.84375,-5.875 l -32.8125,0 C 4.349225,1006.6747 1.75,1009.3052 1.75,1012.5497 Z"
       style="color:#000000;fill:#ffffff;fill-opacity:1;fill-rule:nonzero;stroke:none;stroke-width:0.2;marker:none;visibility:visible;display:inline;overflow:visible;enable-background:accumulate"
       inkscape:connector-curvature="0" />
    <path
       inkscape:connector-curvature="0"
       style="color:#000000;fill:#000000;fill-opacity:1;fill-rule:nonzero;stroke:none;stroke-width:0.2;marker:none;visibility:visible;display:inline;overflow:visible;enable-background:accumulate"
       d="m 1.75,1044.1747 0,0.5625 c 0,3.2445 2.599225,5.875 5.84375,5.875 l 32.8125,0 c 3.244525,0 5.84375,-2.6305 5.84375,-5.875 l 0,-0.5625 c 0,3.2445 -2.599225,5.875 -5.84375,5.875 l -32.8125,0 C 4.349225,1050.0497 1.75,1047.4192 1.75,1044.1747 Z"
       id="path6388" />
    <g
       id="g1444"
       transform="matrix(0.94721786,0,0,0.94721786,51.942926,57.98671)">
      <path
         inkscape:connector-curvature="0"
         id="path2847"
         d="m -40.375,1017.8464 -1,1 -4.875,0 0,1.3437 4.875,0 2.34375,-2.3437 L -40.375,1017.8464 z m -8.28125,21.0937 0,1.3438 30.5,0 0,-1.3438 L -48.65625,1038.9401 Z"
         style="color:#000000;fill:#000000;fill-opacity:1;fill-rule:nonzero;stroke:none;stroke-width:0.40000001;marker:none;visibility:visible;display:inline;overflow:visible;enable-background:accumulate" />
      <path
         sodipodi:nodetypes="ccccccccccc"
         inkscape:connector-curvature="0"
         id="rect821"
         d="m -48.660682,1016.8314 0,22.4379 30.488833,0 0,-9.2601 -2.404157,1.7214 0,5.1939 -25.680516,0 0,-17.7484 4.867678,0 L -39.044048,1016.8314 Z"
         style="color:#000000;fill:#ffffff;fill-opacity:1;fill-rule:nonzero;stroke:none;stroke-width:0.40000001;marker:none;visibility:visible;display:inline;overflow:visible;enable-background:accumulate" />
      <path
         inkscape:connector-curvature="0"
         id="path2849"
         d="m -11.21875,1020.4714 -14.0625,10.6562 0,1.3438 14.9375,-11.3125 L -11.21875,1020.4714 z m -17.90625,3.875 c -8.170141,0 -11.509782,3.5667 -14.71875,7.7812 -0.03456,0.4737 -0.0625,0.9527 -0.0625,1.4375 3.230208,-4.2538 6.552787,-7.875 14.78125,-7.875 1.316522,0 2.6085,0.1674 3.84375,0.4375 l 0,-1.3437 C -26.5165,1024.5137 -27.808478,1024.3464 -29.125,1024.3464 Z"
         style="color:#000000;fill:#000000;fill-opacity:1;fill-rule:nonzero;stroke:none;stroke-width:0.40000001;marker:none;visibility:visible;display:inline;overflow:visible;enable-background:accumulate" />
      <path
         sodipodi:nodetypes="ccscscccc"
         inkscape:connector-curvature="0"
         id="path827"
         d="m -25.267827,1008.6122 0,7.238 c -0.609295,-0.066 -1.180692,-0.2277 -1.809519,-0.2277 -10.182162,0 -16.825155,7.4715 -16.825155,16.9195 3.230208,-4.2538 6.560987,-7.8728 14.78945,-7.8728 1.316522,0 2.609974,0.1824 3.845224,0.4526 l 0,6.333 L -10.339317,1020.145 Z"
         style="color:#000000;fill:url(#linearGradient2845);fill-opacity:1;fill-rule:nonzero;stroke:none;stroke-width:0.40000001;marker:none;visibility:visible;display:inline;overflow:visible;enable-background:accumulate" />
    </g>
  </g>
</svg>
