<?xml version="1.0" encoding="UTF-8" standalone="no"?>
<!-- Created with Inkscape (http://www.inkscape.org/) -->

<svg
   xmlns:dc="http://purl.org/dc/elements/1.1/"
   xmlns:cc="http://creativecommons.org/ns#"
   xmlns:rdf="http://www.w3.org/1999/02/22-rdf-syntax-ns#"
   xmlns:svg="http://www.w3.org/2000/svg"
   xmlns="http://www.w3.org/2000/svg"
   xmlns:xlink="http://www.w3.org/1999/xlink"
   xmlns:sodipodi="http://sodipodi.sourceforge.net/DTD/sodipodi-0.dtd"
   xmlns:inkscape="http://www.inkscape.org/namespaces/inkscape"
   width="48"
   height="48"
   id="svg2"
   version="1.1"
   inkscape:version="0.48+devel r12149"
   sodipodi:docname="nvidia-settings.svg">
  <defs
     id="defs4">
    <linearGradient
       inkscape:collect="always"
       id="linearGradient872-0">
      <stop
         style="stop-color:#000000;stop-opacity:1"
         offset="0"
         id="stop874-3" />
      <stop
         style="stop-color:#1a1a1a;stop-opacity:1"
         offset="1"
         id="stop876-9" />
    </linearGradient>
    <linearGradient
       x1="0"
       y1="0"
       x2="1"
       y2="0"
       gradientUnits="userSpaceOnUse"
       gradientTransform="matrix(13.526835,20.525875,20.525875,-13.526835,19.18986,1021.0543)"
       spreadMethod="pad"
       id="linearGradient6194">
      <stop
         style="stop-opacity:1;stop-color:#ffffff"
         offset="0"
         id="stop6196" />
      <stop
         style="stop-opacity:1;stop-color:#29282b"
         offset="0.168498"
         id="stop6198" />
      <stop
         style="stop-opacity:1;stop-color:#868c95"
         offset="0.263736"
         id="stop6200" />
      <stop
         style="stop-opacity:1;stop-color:#92979f"
         offset="0.395604"
         id="stop6202" />
      <stop
         style="stop-opacity:1;stop-color:#737881"
         offset="0.542125"
         id="stop6204" />
      <stop
         style="stop-opacity:1;stop-color:#70757e"
         offset="0.626374"
         id="stop6206" />
      <stop
         style="stop-opacity:1;stop-color:#e4e6e8"
         offset="0.717949"
         id="stop6208" />
      <stop
         style="stop-opacity:1;stop-color:#ffffff"
         offset="0.791209"
         id="stop6210" />
      <stop
         style="stop-opacity:1;stop-color:#1d191a"
         offset="1"
         id="stop6212" />
    </linearGradient>
    <linearGradient
       inkscape:collect="always"
       xlink:href="#linearGradient872-0"
       id="linearGradient976"
       x1="23.347015"
       y1="1051.0829"
       x2="23.347015"
       y2="1006.3078"
       gradientUnits="userSpaceOnUse"
       gradientTransform="translate(0,-1004.3622)" />
    <linearGradient
       inkscape:collect="always"
       xlink:href="#linearGradient2408"
       id="linearGradient1104"
       x1="42.24963"
       y1="44.069542"
       x2="42.24963"
       y2="24.665476"
       gradientUnits="userSpaceOnUse"
       gradientTransform="translate(0.0122937,1003.8153)" />
    <linearGradient
       id="linearGradient2408"
       inkscape:collect="always">
      <stop
         id="stop2410"
         offset="0"
         style="stop-color:#7eaf05;stop-opacity:1" />
      <stop
         id="stop2412"
         offset="1"
         style="stop-color:#83c320;stop-opacity:1" />
    </linearGradient>
    <linearGradient
       inkscape:collect="always"
       id="linearGradient1079">
      <stop
         style="stop-color:#7eaf05;stop-opacity:1"
         offset="0"
         id="stop1081" />
      <stop
         style="stop-color:#9fdf3c;stop-opacity:1"
         offset="1"
         id="stop1083" />
    </linearGradient>
    <linearGradient
       inkscape:collect="always"
       xlink:href="#linearGradient1079"
       id="linearGradient1068"
       gradientUnits="userSpaceOnUse"
       gradientTransform="matrix(0.95625005,0,0,1,1.05,-1006.1122)"
       x1="24.04163"
       y1="1051.3015"
       x2="24.04163"
       y2="1045.8214" />
  </defs>
  <sodipodi:namedview
     id="base"
     pagecolor="#ffffff"
     bordercolor="#666666"
     borderopacity="1.0"
     inkscape:pageopacity="0.0"
     inkscape:pageshadow="2"
     inkscape:zoom="45.254834"
     inkscape:cx="44.750347"
     inkscape:cy="9.157248"
     inkscape:document-units="px"
     inkscape:current-layer="layer1"
     showgrid="false"
     inkscape:window-width="1366"
     inkscape:window-height="714"
     inkscape:window-x="0"
     inkscape:window-y="30"
     inkscape:window-maximized="1" />
  <metadata
     id="metadata7">
    <rdf:RDF>
      <cc:Work
         rdf:about="">
        <dc:format>image/svg+xml</dc:format>
        <dc:type
           rdf:resource="http://purl.org/dc/dcmitype/StillImage" />
        <dc:title />
      </cc:Work>
    </rdf:RDF>
  </metadata>
  <g
     inkscape:label="Capa 1"
     inkscape:groupmode="layer"
     id="layer1"
     transform="translate(0,-1004.3622)">
    <path
       style="color:#000000;fill:#333333;fill-opacity:1;fill-rule:nonzero;stroke:none;stroke-width:0.2;marker:none;visibility:visible;display:inline;overflow:visible;enable-background:accumulate"
       d="M 7.59375 1.25 C 4.0722254 1.25 1.25 4.0722254 1.25 7.59375 L 1.25 40.40625 C 1.25 43.927775 4.0722254 46.75 7.59375 46.75 L 40.40625 46.75 C 43.927775 46.75 46.75 43.927775 46.75 40.40625 L 46.75 7.59375 C 46.75 4.0722254 43.927775 1.25 40.40625 1.25 L 7.59375 1.25 z M 1.75 39.84375 L 5.90625 42.59375 L 45.90625 42.34375 C 45.508399 43.470851 44.792003 44.436468 43.84375 45.125 C 42.662872 45.131243 41.806685 45.15625 40.40625 45.15625 L 7.59375 45.15625 C 6.1556363 45.15625 4.9670691 45.081831 3.96875 44.96875 C 3.9576126 44.967488 3.9485875 44.970024 3.9375 44.96875 C 2.5972987 43.897291 1.75 42.26328 1.75 40.40625 L 1.75 39.84375 z "
       transform="translate(0,1004.3622)"
       id="rect6294" />
    <rect
       ry="5.8565426"
       y="1006.1122"
       x="1.75"
       height="44.5"
       width="44.5"
       id="rect6296-7"
       style="color:#000000;fill:#ffffff;fill-opacity:1;fill-rule:nonzero;stroke:none;stroke-width:0.2;marker:none;visibility:visible;display:inline;overflow:visible;enable-background:accumulate" />
    <path
       style="color:#000000;fill:url(#linearGradient976);fill-opacity:1;fill-rule:nonzero;stroke:none;stroke-width:0.2;marker:none;visibility:visible;display:inline;overflow:visible;enable-background:accumulate"
       d="M 7.59375 1.75 C 4.3492254 1.75 1.75 4.3492254 1.75 7.59375 L 1.75 39.84375 L 5.90625 42.59375 L 45.90625 42.34375 C 46.122434 41.731306 46.25 41.094515 46.25 40.40625 L 46.25 7.59375 C 46.25 4.3492254 43.650775 1.75 40.40625 1.75 L 7.59375 1.75 z M 3.96875 44.96875 C 4.9670917 45.759985 6.2152109 46.25 7.59375 46.25 L 40.40625 46.25 C 41.695872 46.25 42.87829 45.826026 43.84375 45.125 C 42.662872 45.131243 41.806685 45.15625 40.40625 45.15625 L 7.59375 45.15625 C 6.1556363 45.15625 4.9670691 45.081831 3.96875 44.96875 z "
       transform="translate(0,1004.3622)"
       id="rect6296" />
    <path
       id="path6361"
       d="m 1.7499999,1012.5497 0,-0.5625 c 0,-3.2445 2.599225,-5.875 5.84375,-5.875 l 32.8125001,0 c 3.244525,0 5.84375,2.6305 5.84375,5.875 l 0,0.5625 c 0,-3.2445 -2.599225,-5.875 -5.84375,-5.875 l -32.8125001,0 C 4.3492249,1006.6747 1.7499999,1009.3052 1.7499999,1012.5497 Z"
       style="color:#000000;fill:#ffffff;fill-opacity:1;fill-rule:nonzero;stroke:none;stroke-width:0.2;marker:none;visibility:visible;display:inline;overflow:visible;enable-background:accumulate"
       inkscape:connector-curvature="0" />
    <path
       style="fill:#ffffff;fill-opacity:0.11764706;stroke:none"
       d="M 8.28125 1.75 L 1.75 8.28125 L 1.75 9.53125 L 9.53125 1.75 L 8.28125 1.75 z M 10.625 1.75 L 1.75 10.625 L 1.75 11.875 L 11.875 1.75 L 10.625 1.75 z M 12.96875 1.75 L 1.75 12.96875 L 1.75 14.21875 L 14.21875 1.75 L 12.96875 1.75 z M 15.28125 1.75 L 1.75 15.28125 L 1.75 16.53125 L 16.53125 1.75 L 15.28125 1.75 z M 17.625 1.75 L 1.75 17.625 L 1.75 18.875 L 18.875 1.75 L 17.625 1.75 z M 19.96875 1.75 L 1.75 19.96875 L 1.75 21.21875 L 21.21875 1.75 L 19.96875 1.75 z M 22.28125 1.75 L 1.75 22.28125 L 1.75 23.53125 L 23.53125 1.75 L 22.28125 1.75 z M 24.625 1.75 L 1.75 24.625 L 1.75 25.875 L 25.875 1.75 L 24.625 1.75 z M 26.96875 1.75 L 1.75 26.96875 L 1.75 28.21875 L 28.21875 1.75 L 26.96875 1.75 z M 29.28125 1.75 L 1.75 29.28125 L 1.75 30.53125 L 30.53125 1.75 L 29.28125 1.75 z M 31.625 1.75 L 1.75 31.625 L 1.75 32.875 L 32.875 1.75 L 31.625 1.75 z M 33.96875 1.75 L 1.75 33.96875 L 1.75 35.21875 L 35.21875 1.75 L 33.96875 1.75 z M 36.28125 1.75 L 1.75 36.28125 L 1.75 37.5625 L 37.53125 1.75 L 36.28125 1.75 z M 38.625 1.75 L 1.75 38.65625 L 1.75 39.84375 L 1.78125 39.84375 L 39.875 1.75 L 38.625 1.75 z M 7 1.78125 C 6.5179807 1.8299094 6.0647364 1.9361706 5.625 2.09375 L 2.09375 5.625 C 1.9158523 6.1214359 1.8191715 6.6383315 1.78125 7.1875 L 7.1875 1.78125 C 7.1247777 1.7855811 7.0621514 1.7749759 7 1.78125 z M 40.9375 1.78125 L 2.4375 40.28125 L 3.15625 40.78125 L 42 1.96875 C 41.651298 1.869161 41.309975 1.8148848 40.9375 1.78125 z M 42.78125 2.25 L 3.8125 41.21875 L 4.59375 41.71875 L 43.5625 2.6875 C 43.312088 2.5270271 43.056032 2.3714298 42.78125 2.25 z M 44.21875 3.15625 L 5.25 42.15625 L 5.90625 42.59375 L 6.03125 42.59375 L 44.84375 3.78125 C 44.649038 3.5541959 44.445804 3.3509625 44.21875 3.15625 z M 45.3125 4.4375 L 7.125 42.59375 L 8.375 42.59375 L 45.75 5.21875 C 45.62857 4.943968 45.472973 4.6879124 45.3125 4.4375 z M 46.03125 6 L 9.46875 42.5625 L 10.71875 42.5625 L 46.21875 7.0625 C 46.185115 6.6900253 46.130839 6.3487019 46.03125 6 z M 46.25 8.125 L 11.8125 42.5625 L 13.0625 42.5625 L 46.25 9.375 L 46.25 8.125 z M 46.25 10.46875 L 14.15625 42.53125 L 15.40625 42.53125 L 46.25 11.71875 L 46.25 10.46875 z M 46.25 12.78125 L 16.5 42.53125 L 17.75 42.53125 L 46.25 14.03125 L 46.25 12.78125 z M 46.25 15.125 L 18.875 42.5 L 20.09375 42.5 L 46.25 16.375 L 46.25 15.125 z M 46.25 17.46875 L 21.1875 42.5 L 22.4375 42.5 L 46.25 18.71875 L 46.25 17.46875 z M 46.25 19.78125 L 23.5625 42.46875 L 24.8125 42.46875 L 46.25 21.03125 L 46.25 19.78125 z M 46.25 22.125 L 25.90625 42.46875 L 27.125 42.46875 L 46.25 23.375 L 46.25 22.125 z M 46.25 24.46875 L 28.25 42.46875 L 29.5 42.4375 L 46.25 25.71875 L 46.25 24.46875 z M 46.25 26.78125 L 30.59375 42.4375 L 31.84375 42.4375 L 46.25 28.03125 L 46.25 26.78125 z M 46.25 29.125 L 32.9375 42.4375 L 34.1875 42.40625 L 46.25 30.375 L 46.25 29.125 z M 46.25 31.46875 L 35.28125 42.40625 L 36.53125 42.40625 L 46.25 32.71875 L 46.25 31.46875 z M 46.25 33.78125 L 37.625 42.40625 L 38.90625 42.375 L 46.25 35.03125 L 46.25 33.78125 z M 46.25 36.125 L 40 42.375 L 41.25 42.375 L 46.25 37.375 L 46.25 36.125 z M 46.25 38.46875 L 42.34375 42.375 L 43.59375 42.34375 L 46.25 39.71875 L 46.25 38.46875 z M 46.21875 40.8125 L 44.6875 42.34375 L 45.90625 42.34375 C 46.077682 41.856071 46.181556 41.351125 46.21875 40.8125 z M 4.6875 45.03125 L 4.40625 45.3125 C 4.6594192 45.476382 4.9404234 45.594938 5.21875 45.71875 L 5.84375 45.09375 C 5.4282847 45.073757 5.0541659 45.063257 4.6875 45.03125 z M 6.90625 45.125 L 6 46.03125 C 6.3487019 46.130839 6.6900253 46.185115 7.0625 46.21875 L 8.125 45.15625 L 7.59375 45.15625 C 7.3425416 45.15625 7.1425457 45.129351 6.90625 45.125 z M 43.15625 45.125 C 42.7515 45.129472 42.28282 45.151263 41.875 45.15625 L 40.8125 46.21875 C 41.361669 46.180828 41.878564 46.084148 42.375 45.90625 L 43.15625 45.125 z M 9.21875 45.15625 L 8.125 46.25 L 9.34375 46.25 L 10.4375 45.15625 L 9.21875 45.15625 z M 11.53125 45.15625 L 10.4375 46.25 L 11.6875 46.25 L 12.78125 45.15625 L 11.53125 45.15625 z M 13.875 45.15625 L 12.78125 46.25 L 14.03125 46.25 L 15.125 45.15625 L 13.875 45.15625 z M 16.21875 45.15625 L 15.125 46.25 L 16.34375 46.25 L 17.4375 45.15625 L 16.21875 45.15625 z M 18.53125 45.15625 L 17.4375 46.25 L 18.6875 46.25 L 19.78125 45.15625 L 18.53125 45.15625 z M 20.875 45.15625 L 19.78125 46.25 L 21.03125 46.25 L 22.125 45.15625 L 20.875 45.15625 z M 23.21875 45.15625 L 22.125 46.25 L 23.34375 46.25 L 24.4375 45.15625 L 23.21875 45.15625 z M 25.53125 45.15625 L 24.4375 46.25 L 25.6875 46.25 L 26.78125 45.15625 L 25.53125 45.15625 z M 27.875 45.15625 L 26.78125 46.25 L 28.03125 46.25 L 29.125 45.15625 L 27.875 45.15625 z M 30.21875 45.15625 L 29.125 46.25 L 30.34375 46.25 L 31.4375 45.15625 L 30.21875 45.15625 z M 32.53125 45.15625 L 31.4375 46.25 L 32.6875 46.25 L 33.78125 45.15625 L 32.53125 45.15625 z M 34.875 45.15625 L 33.78125 46.25 L 35.03125 46.25 L 36.125 45.15625 L 34.875 45.15625 z M 37.21875 45.15625 L 36.125 46.25 L 37.34375 46.25 L 38.4375 45.15625 L 37.21875 45.15625 z M 39.53125 45.15625 L 38.4375 46.25 L 39.6875 46.25 L 40.78125 45.15625 C 40.640312 45.156788 40.559012 45.15625 40.40625 45.15625 L 39.53125 45.15625 z "
       transform="translate(0,1004.3622)"
       id="rect1261" />
    <g
       id="g978"
       transform="matrix(0.83535654,0,0,0.83535654,52.494542,169.77783)">
      <path
         inkscape:connector-curvature="0"
         id="path2399"
         d="m -51.176344,1008.6129 1.437499,4.5625 1.875,0 1.46875,-4.5625 -0.09375,0 -1.375,4.3125 -1.875,0 -1.343749,-4.3125 L -51.176344,1008.6129 z m 16.812499,0.5938 -0.78125,2.125 0.09375,0 0.6875,-1.875 0.6875,1.875 0.09375,0 L -34.363845,1009.2067 z m -8.15625,0.1562 0,0.25 0.5625,0 c 0.77135,0 1.275766,0.3296 1.3125,1.1875 0.0025,-0.043 0,-0.079 0,-0.125 0,-0.9333 -0.511406,-1.3125 -1.3125,-1.3125 L -42.520095,1009.3629 z m -12.156249,0.094 0,0.25 1.03125,0 c 0.3325,0 0.558517,0.079 0.71875,0.25 0.203125,0.2165 0.28125,0.58 0.28125,1.2187 l 0,-0.25 c 0,-0.6387 -0.07813,-1.0022 -0.28125,-1.2187 -0.160233,-0.1706 -0.38625,-0.25 -0.71875,-0.25 L -54.676344,1009.4567 z m 15.249999,1.75 c -0.06332,0.487 -0.198535,0.9071 -0.40625,1.125 -0.391718,0.4137 -0.765078,0.5937 -1.875,0.5937 l -2.09375,0 0,0.25 2.09375,0 c 1.109922,0 1.483282,-0.18 1.875,-0.5937 C -39.590395,1012.3276 -39.464513,1011.7992 -39.426345,1011.2067 z m 4,0.9062 -0.28125,0.8125 -1.1875,0 -0.09375,0.25 1.28125,0 0.28125,-0.8125 2.125,0 0.25,0.8125 1.375,0 -0.09375,-0.25 -1.28125,0 -0.25,-0.8125 L -35.426345,1012.1129 z m -20.531249,0.8123 0,0.25 1.28125,0 0,-0.25 L -55.957594,1012.9254 z m 3.3125,0 0,0.25 1.25,0 0,-0.25 L -52.645094,1012.9254 z m 6.781249,0 0,0.25 1.28125,0 0,-0.25 L -45.863845,1012.9254 z m 7.0625,0 0,0.25 1.3125,0 0,-0.25 L -38.801345,1012.9254 Z"
         style="fill:#000000;fill-opacity:1;fill-rule:nonzero;stroke:none" />
      <path
         style="fill:#000000;fill-opacity:0.50857143;fill-rule:nonzero;stroke:none"
         d="m -51.176344,1008.8551 1.437499,4.5625 1.875,0 1.46875,-4.5625 -0.09375,0 -1.375,4.3125 -1.875,0 -1.343749,-4.3125 L -51.176344,1008.8551 z m 16.812499,0.5938 -0.78125,2.125 0.09375,0 0.6875,-1.875 0.6875,1.875 0.09375,0 L -34.363845,1009.4489 z m -8.15625,0.1562 0,0.25 0.5625,0 c 0.77135,0 1.275766,0.3296 1.3125,1.1875 0.0025,-0.043 0,-0.079 0,-0.125 0,-0.9333 -0.511406,-1.3125 -1.3125,-1.3125 L -42.520095,1009.6051 z m -12.156249,0.094 0,0.25 1.03125,0 c 0.3325,0 0.558517,0.079 0.71875,0.25 0.203125,0.2165 0.28125,0.58 0.28125,1.2187 l 0,-0.25 c 0,-0.6387 -0.07813,-1.0022 -0.28125,-1.2187 -0.160233,-0.1706 -0.38625,-0.25 -0.71875,-0.25 L -54.676344,1009.6989 z m 15.249999,1.75 c -0.06332,0.487 -0.198535,0.9071 -0.40625,1.125 -0.391718,0.4137 -0.765078,0.5937 -1.875,0.5937 l -2.09375,0 0,0.25 2.09375,0 c 1.109922,0 1.483282,-0.18 1.875,-0.5937 C -39.590395,1012.5698 -39.464513,1012.0414 -39.426345,1011.4489 z m 4,0.9062 -0.28125,0.8125 -1.1875,0 -0.09375,0.25 1.28125,0 0.28125,-0.8125 2.125,0 0.25,0.8125 1.375,0 -0.09375,-0.25 -1.28125,0 -0.25,-0.8125 L -35.426345,1012.3551 z m -20.531249,0.8123 0,0.25 1.28125,0 0,-0.25 L -55.957594,1013.1676 z m 3.3125,0 0,0.25 1.25,0 0,-0.25 L -52.645094,1013.1676 z m 6.781249,0 0,0.25 1.28125,0 0,-0.25 L -45.863845,1013.1676 z m 7.0625,0 0,0.25 1.3125,0 0,-0.25 L -38.801345,1013.1676 Z"
         id="path2404"
         inkscape:connector-curvature="0" />
      <path
         inkscape:connector-curvature="0"
         id="path2406"
         d="m -51.176344,1009.1051 1.437499,4.5625 1.875,0 1.46875,-4.5625 -0.09375,0 -1.375,4.3125 -1.875,0 -1.343749,-4.3125 L -51.176344,1009.1051 z m 16.812499,0.5938 -0.78125,2.125 0.09375,0 0.6875,-1.875 0.6875,1.875 0.09375,0 L -34.363845,1009.6989 z m -8.15625,0.1562 0,0.25 0.5625,0 c 0.77135,0 1.275766,0.3296 1.3125,1.1875 0.0025,-0.043 0,-0.079 0,-0.125 0,-0.9333 -0.511406,-1.3125 -1.3125,-1.3125 L -42.520095,1009.8551 z m -12.156249,0.094 0,0.25 1.03125,0 c 0.3325,0 0.558517,0.079 0.71875,0.25 0.203125,0.2165 0.28125,0.58 0.28125,1.2187 l 0,-0.25 c 0,-0.6387 -0.07813,-1.0022 -0.28125,-1.2187 -0.160233,-0.1706 -0.38625,-0.25 -0.71875,-0.25 L -54.676344,1009.9489 z m 15.249999,1.75 c -0.06332,0.487 -0.198535,0.9071 -0.40625,1.125 -0.391718,0.4137 -0.765078,0.5937 -1.875,0.5937 l -2.09375,0 0,0.25 2.09375,0 c 1.109922,0 1.483282,-0.18 1.875,-0.5937 C -39.590395,1012.8198 -39.464513,1012.2914 -39.426345,1011.6989 z m 4,0.9062 -0.28125,0.8125 -1.1875,0 -0.09375,0.25 1.28125,0 0.28125,-0.8125 2.125,0 0.25,0.8125 1.375,0 -0.09375,-0.25 -1.28125,0 -0.25,-0.8125 L -35.426345,1012.6051 z m -20.531249,0.8123 0,0.25 1.28125,0 0,-0.25 L -55.957594,1013.4176 z m 3.3125,0 0,0.25 1.25,0 0,-0.25 L -52.645094,1013.4176 z m 6.781249,0 0,0.25 1.28125,0 0,-0.25 L -45.863845,1013.4176 z m 7.0625,0 0,0.25 1.3125,0 0,-0.25 L -38.801345,1013.4176 Z"
         style="fill:#000000;fill-opacity:0.26285718;fill-rule:nonzero;stroke:none" />
      <path
         id="path22"
         style="fill:#ffffff;fill-opacity:1;fill-rule:nonzero;stroke:none"
         d="m -34.351658,1009.1942 0.777969,2.1289 -1.580547,0 L -34.351658,1009.1942 z m -0.83375,-0.8291 -1.793359,4.5443 1.266328,0 0.283828,-0.8032 2.122344,0 0.268672,0.8032 1.374922,0 -1.80711,-4.5447 L -35.185408,1008.3651 z m -3.60039,4.5458 1.284609,0 0,-4.5472 -1.284921,-2e-4 L -38.785798,1012.911 z m -8.920234,-4.5474 -1.071876,3.6042 -1.027109,-3.604 -1.386405,-2e-4 1.466874,4.5474 1.851094,0 1.478281,-4.5474 L -47.706032,1008.3635 z m 5.193672,0.9902 0.552265,0 c 0.801094,0 1.319219,0.3598 1.319219,1.2931 0,0.9337 -0.518125,1.2935 -1.319219,1.2935 l -0.552265,0 L -42.51236,1009.3537 z m -1.273907,-0.9902 0,4.5474 2.083125,0 c 1.109922,0 1.47211,-0.1847 1.863828,-0.5984 0.276954,-0.2905 0.455938,-0.9284 0.455938,-1.6253 0,-0.6392 -0.151563,-1.2095 -0.415703,-1.5645 -0.47586,-0.6351 -1.161328,-0.7592 -2.184688,-0.7592 L -43.786267,1008.3635 z m -12.171327,-0.01 0,4.5537 1.295702,0 0,-3.4577 1.00383,0 c 0.3325,0 0.569375,0.083 0.729608,0.2536 0.203125,0.2165 0.286017,0.5655 0.286017,1.2042 l 0,1.9996 1.255468,0 0,-2.516 c 0,-1.7957 -1.14461,-2.0378 -2.264375,-2.0378 L -55.957594,1008.3571 z m 10.103359,0.01 4.75e-4,4.5476 1.284296,0 0,-4.5475 L -45.854235,1008.3634 Z"
         inkscape:connector-curvature="0" />
    </g>
    <path
       style="fill:url(#linearGradient1068);fill-opacity:1;stroke:none"
       d="M 1.8125 41.125 C 2.1711863 44.020899 4.59768 46.25 7.59375 46.25 L 40.40625 46.25 C 42.562848 46.25 44.421115 45.101719 45.4375 43.375 L 5.21875 43.375 L 1.8125 41.125 z "
       transform="translate(0,1004.3622)"
       id="path1066" />
    <path
       inkscape:connector-curvature="0"
       style="color:#000000;fill:#000000;fill-opacity:1;fill-rule:nonzero;stroke:none;stroke-width:0.2;marker:none;visibility:visible;display:inline;overflow:visible;enable-background:accumulate"
       d="m 1.7499999,1044.1747 0,0.5625 c 0,3.2445 2.599225,5.875 5.84375,5.875 l 32.8125001,0 c 3.244525,0 5.84375,-2.6305 5.84375,-5.875 l 0,-0.5625 c 0,3.2445 -2.599225,5.875 -5.84375,5.875 l -32.8125001,0 C 4.3492249,1050.0497 1.7499999,1047.4192 1.7499999,1044.1747 Z"
       id="path6388" />
    <g
       id="g1161"
       transform="translate(-1.762294,-1.2763239)">
      <path
         sodipodi:nodetypes="cccccccccccccccccccccccc"
         inkscape:connector-curvature="0"
         id="path1106"
         d="m 47.668544,1031.0497 c -9.684445,0.316 -15.96875,5.6875 -15.96875,5.6875 0,0 0.02651,0.2355 0.03125,0.3125 C 33.312998,1035.8481 39.208982,1031.8424 47.668544,1031.706 z m -22.90625,3.4688 c -0.0903,0.049 -0.5,0.25 -0.5,0.25 0,0 0.466588,6.2547 3.78125,13.1562 l 5.8125,0 c -0.100214,-0.2304 -0.157325,-0.4591 -0.25,-0.6875 l -5.125,0 C 25.498917,1041.0281 24.868084,1035.5968 24.762294,1034.5185 z m 22.90625,4.375 c -2.875069,0.3549 -5.1875,1.9375 -5.1875,1.9375 0,0 0.01862,0.1953 0.03125,0.4062 C 43.382368,1040.7253 45.375231,1039.6908 47.668544,1039.5185 z m -10.6875,0.1875 c -0.187274,0.1078 -0.46875,0.25 -0.46875,0.25 0,0 -0.0015,4.1878 2.09375,8.5937 l 4.96875,0 c -0.107727,-0.2326 -0.18814,-0.4566 -0.28125,-0.6875 l -4.25,0 C 37.267523,1043.5026 37.021943,1040.0845 36.981044,1039.081 Z"
         style="fill:#000000;fill-opacity:1;fill-rule:nonzero;stroke:none" />
      <path
         sodipodi:nodetypes="ccccccccccccccc"
         inkscape:connector-curvature="0"
         id="path24"
         d="m 48.012294,1027.7216 c -12.232587,0.2299 -23.40625,6.5 -23.40625,6.5 0,0 0.466588,6.2547 3.78125,13.1562 l 5.8125,0 c -2.385467,-5.4838 -2.59375,-10.5 -2.59375,-10.5 C 31.606044,1036.8778 38.073849,1031.3194 48.012294,1031.1591 z m -0.3125,7.875 c -6.401806,0.339 -10.84375,3.1875 -10.84375,3.1875 0,0 -0.0015,4.1878 2.09375,8.5937 l 4.96875,0 c -1.494981,-3.2274 -1.53125,-6.4062 -1.53125,-6.4062 0,0 2.546415,-1.7687 5.625,-2 l 0,-3.375 C 47.908743,1035.6007 47.802343,1035.5911 47.699794,1035.5966 Z"
         style="fill:url(#linearGradient1104);fill-opacity:1;fill-rule:nonzero;stroke:none" />
    </g>
  </g>
</svg>
