<?xml version="1.0" encoding="UTF-8" standalone="no"?>
<!-- Created with Inkscape (http://www.inkscape.org/) -->

<svg
   xmlns:dc="http://purl.org/dc/elements/1.1/"
   xmlns:cc="http://creativecommons.org/ns#"
   xmlns:rdf="http://www.w3.org/1999/02/22-rdf-syntax-ns#"
   xmlns:svg="http://www.w3.org/2000/svg"
   xmlns="http://www.w3.org/2000/svg"
   xmlns:xlink="http://www.w3.org/1999/xlink"
   xmlns:sodipodi="http://sodipodi.sourceforge.net/DTD/sodipodi-0.dtd"
   xmlns:inkscape="http://www.inkscape.org/namespaces/inkscape"
   width="48"
   height="48"
   id="svg2"
   version="1.1"
   inkscape:version="0.48+devel r12149"
   sodipodi:docname="soundconverter.svg">
  <defs
     id="defs4">
    <linearGradient
       inkscape:collect="always"
       id="linearGradient1491">
      <stop
         style="stop-color:#f9f9f9;stop-opacity:1"
         offset="0"
         id="stop1493" />
      <stop
         style="stop-color:#ffffff;stop-opacity:1"
         offset="1"
         id="stop1495" />
    </linearGradient>
    <linearGradient
       id="linearGradient918">
      <stop
         id="stop920"
         offset="0"
         style="stop-color:#ffffff;stop-opacity:1" />
      <stop
         id="stop922"
         offset="1"
         style="stop-color:#e2e2e2;stop-opacity:1" />
    </linearGradient>
    <linearGradient
       inkscape:collect="always"
       xlink:href="#linearGradient915"
       id="linearGradient921"
       x1="-588.45697"
       y1="1241.1125"
       x2="-588.45697"
       y2="1120.5662"
       gradientUnits="userSpaceOnUse"
       gradientTransform="matrix(0.16898508,0,0,0.16898508,134.43328,876.25737)" />
    <linearGradient
       inkscape:collect="always"
       id="linearGradient915">
      <stop
         style="stop-color:#ff3e21;stop-opacity:1"
         offset="0"
         id="stop917" />
      <stop
         style="stop-color:#fd4e21;stop-opacity:1"
         offset="1"
         id="stop919" />
    </linearGradient>
    <radialGradient
       inkscape:collect="always"
       xlink:href="#linearGradient968"
       id="radialGradient974"
       cx="34.689678"
       cy="1086.9642"
       fx="34.689678"
       fy="1086.9642"
       r="38.431187"
       gradientTransform="matrix(1,0,0,0.27875669,0,783.96565)"
       gradientUnits="userSpaceOnUse" />
    <linearGradient
       inkscape:collect="always"
       id="linearGradient968">
      <stop
         style="stop-color:#808080;stop-opacity:1"
         offset="0"
         id="stop970" />
      <stop
         style="stop-color:#cccccc;stop-opacity:0;"
         offset="1"
         id="stop972" />
    </linearGradient>
    <linearGradient
       inkscape:collect="always"
       xlink:href="#linearGradient1491"
       id="linearGradient1497"
       x1="28.042402"
       y1="1050.6166"
       x2="28.042402"
       y2="1005.8887"
       gradientUnits="userSpaceOnUse" />
  </defs>
  <sodipodi:namedview
     id="base"
     pagecolor="#ffffff"
     bordercolor="#666666"
     borderopacity="1.0"
     inkscape:pageopacity="0.0"
     inkscape:pageshadow="2"
     inkscape:zoom="6.2534759"
     inkscape:cx="33.893244"
     inkscape:cy="32.767181"
     inkscape:document-units="px"
     inkscape:current-layer="layer1"
     showgrid="false"
     inkscape:window-width="1366"
     inkscape:window-height="716"
     inkscape:window-x="0"
     inkscape:window-y="28"
     inkscape:window-maximized="1">
    <inkscape:grid
       type="xygrid"
       id="grid3850" />
  </sodipodi:namedview>
  <metadata
     id="metadata7">
    <rdf:RDF>
      <cc:Work
         rdf:about="">
        <dc:format>image/svg+xml</dc:format>
        <dc:type
           rdf:resource="http://purl.org/dc/dcmitype/StillImage" />
        <dc:title />
      </cc:Work>
    </rdf:RDF>
  </metadata>
  <g
     inkscape:label="Capa 1"
     inkscape:groupmode="layer"
     id="layer1"
     transform="translate(0,-1004.3622)">
    <rect
       style="color:#000000;fill:#333333;fill-opacity:1;fill-rule:nonzero;stroke:none;stroke-width:0.2;marker:none;visibility:visible;display:inline;overflow:visible;enable-background:accumulate"
       id="rect6294"
       width="45.5"
       height="45.5"
       x="1.25"
       y="1005.6122"
       ry="6.3565426" />
    <rect
       ry="5.8565426"
       y="1006.1122"
       x="1.75"
       height="44.5"
       width="44.5"
       id="rect6296"
       style="color:#000000;fill:url(#linearGradient1497);fill-opacity:1;fill-rule:nonzero;stroke:none;stroke-width:0.2;marker:none;visibility:visible;display:inline;overflow:visible;enable-background:accumulate" />
    <path
       id="path6361"
       d="m 1.7500002,1012.5497 0,-0.5625 c 0,-3.2445 2.5992249,-5.875 5.8437499,-5.875 l 32.8124999,0 c 3.244525,0 5.84375,2.6305 5.84375,5.875 l 0,0.5625 c 0,-3.2445 -2.599225,-5.875 -5.84375,-5.875 l -32.8124999,0 C 4.3492251,1006.6747 1.7500002,1009.3052 1.7500002,1012.5497 Z"
       style="color:#000000;fill:#ffffff;fill-opacity:1;fill-rule:nonzero;stroke:none;stroke-width:0.2;marker:none;visibility:visible;display:inline;overflow:visible;enable-background:accumulate"
       inkscape:connector-curvature="0" />
    <path
       inkscape:connector-curvature="0"
       style="color:#000000;fill:#000000;fill-opacity:1;fill-rule:nonzero;stroke:none;stroke-width:0.2;marker:none;visibility:visible;display:inline;overflow:visible;enable-background:accumulate"
       d="m 1.7500002,1044.1747 0,0.5625 c 0,3.2445 2.5992249,5.875 5.8437499,5.875 l 32.8124999,0 c 3.244525,0 5.84375,-2.6305 5.84375,-5.875 l 0,-0.5625 c 0,3.2445 -2.599225,5.875 -5.84375,5.875 l -32.8124999,0 C 4.3492251,1050.0497 1.7500002,1047.4192 1.7500002,1044.1747 Z"
       id="path6388" />
    <g
       transform="matrix(0.93750003,0,0,0.93750003,1.4999993,64.272605)"
       id="g1456">
      <g
         transform="matrix(0.60406134,0,0,0.60406134,2.8595917,387.16247)"
         id="g976">
        <path
           style="fill:url(#linearGradient921);fill-opacity:1"
           d="m 35.051654,1084.9356 c 10e-4,-1.225 -0.53731,-8.8716 -0.65832,-9.3464 -0.11465,-0.4498 -0.14236,-0.3927 -0.24585,0.5069 -0.0642,0.5577 -0.22422,2.4474 -0.35571,4.1993 -0.13148,1.752 -0.26861,3.215 -0.30472,3.2511 -0.0361,0.036 -0.19728,-1.0931 -0.35814,-2.5094 -0.16086,-1.4164 -0.33962,-2.8793 -0.39726,-3.2511 -0.0937,-0.6045 -0.1168,-0.6313 -0.21845,-0.2535 -0.0625,0.2324 -0.25167,1.4305 -0.42034,2.6626 -0.16867,1.2321 -0.33929,2.2076 -0.37916,2.1677 -0.0399,-0.04 -0.1745,-1.2381 -0.29917,-2.6626 -0.30107,-3.4404 -0.43841,-4.4134 -0.59968,-4.2484 -0.14531,0.1488 -0.66436,3.4306 -0.66436,4.2006 0,0.8585 -0.17547,0.314 -0.41698,-1.2939 -0.13106,-0.8725 -0.30753,-1.7734 -0.39217,-2.002 -0.14953,-0.4038 -0.15677,-0.399 -0.25624,0.169 -0.0563,0.3215 -0.23162,2.3336 -0.3896,4.4712 -0.15798,2.1377 -0.33667,3.9441 -0.3971,4.0143 -0.0604,0.07 -0.24231,-1.8689 -0.40418,-4.3091 -0.16186,-2.4402 -0.35298,-4.7029 -0.42469,-5.0282 -0.11338,-0.5143 -0.15608,-0.3819 -0.32715,1.0139 -0.10822,0.8829 -0.27976,2.5552 -0.3812,3.7161 -0.10144,1.1609 -0.2092,2.1355 -0.23947,2.1658 -0.0303,0.03 -0.11369,-1.1857 -0.18539,-2.7022 -0.0775,-1.6398 -0.18029,-2.586 -0.25356,-2.3348 -0.0678,0.2324 -0.13079,0.7412 -0.14005,1.1307 -0.0199,0.8373 -0.27177,1.0895 -0.43064,0.4313 -0.33724,-1.3973 -0.46884,-1.7595 -0.59051,-1.6257 -0.0741,0.082 -0.31284,1.6086 -0.53046,3.3936 -0.21761,1.7849 -0.41686,3.2241 -0.44276,3.1982 -0.0259,-0.026 -0.20717,-1.9046 -0.40281,-4.1748 -0.19564,-2.2702 -0.41621,-4.1916 -0.49016,-4.2698 -0.074,-0.078 -0.26978,0.6062 -0.43517,1.5209 l -0.30073,1.663 -0.41666,-0.9294 c -0.39031,-0.8706 -0.42442,-0.9021 -0.5394,-0.4968 -0.0675,0.238 -0.25697,1.3406 -0.42102,2.4503 -0.16405,1.1097 -0.35042,2.0757 -0.41417,2.1467 -0.0637,0.071 -0.24467,-1.1077 -0.40204,-2.6193 -0.15737,-1.5115 -0.34919,-2.9764 -0.42627,-3.2553 -0.12318,-0.4455 -0.17425,-0.3227 -0.42164,1.014 -0.15481,0.8364 -0.28132,1.6919 -0.28114,1.901 6.8e-4,0.658 -0.25568,0.4154 -0.58516,-0.5539 -0.17464,-0.5138 -0.37273,-0.875 -0.44018,-0.8027 -0.0675,0.072 -0.29251,0.8756 -0.50011,1.7851 -0.2076,0.9094 -0.39999,1.631 -0.42754,1.6035 -0.0275,-0.028 -0.17079,-0.7717 -0.31832,-1.6536 -0.14754,-0.8819 -0.31449,-1.7936 -0.37101,-2.026 l -0.10276,-0.4224 -0.13528,0.4224 c -0.0744,0.2324 -0.26537,1.3184 -0.42439,2.4135 -0.15901,1.095 -0.32259,1.9575 -0.3635,1.9166 -0.0409,-0.041 -0.26292,-0.8989 -0.49335,-1.9065 -0.23043,-1.0077 -0.57651,-2.3644 -0.76906,-3.015 -0.42001,-1.4191 -0.48137,-1.3246 -0.91817,1.4149 -0.16504,1.0352 -0.35132,1.8247 -0.41395,1.7545 -0.0626,-0.07 -0.24826,-0.4889 -0.41252,-0.9304 -0.16426,-0.4414 -0.35308,-0.8026 -0.4196,-0.8026 -0.0665,0 -0.25647,0.5133 -0.42211,1.1406 -0.16564,0.6274 -0.35666,1.2025 -0.42449,1.2781 -0.0678,0.076 -0.25813,-0.5707 -0.42289,-1.4363 -0.16475,-0.8656 -0.35806,-1.6847 -0.42957,-1.8201 -0.13163,-0.2493 -0.19416,-0.074 -0.6855796,1.9163 l -0.20369,0.8251 -0.41757,-1.0437 c -0.22967,-0.574 -0.44294,-1.0183 -0.47394,-0.9873 -0.031,0.031 -0.23933,0.6236 -0.46294,1.317 -0.2305,0.7146 -0.4473,1.1508 -0.50063,1.0071 -0.0517,-0.1394 -0.22347,-1.007 -0.38163,-1.928 -0.16979,-0.9887 -0.33946,-1.577 -0.41426,-1.4364 -0.0697,0.131 -0.22495,0.8845 -0.34503,1.6745 -0.12008,0.79 -0.27148,1.4981 -0.33644,1.5736 -0.065,0.075 -0.33089,-0.517 -0.59095,-1.3164 -0.26007,-0.7995 -0.52831,-1.3935 -0.5961,-1.3201 -0.0678,0.073 -0.2524,0.5864 -0.41026,1.1399 l -0.28702,1.0065 -0.4548,-1.091 -0.4548,-1.0909 -2.36086995,-0.092 c -1.29848,-0.051 -1.90461005,-0.1079 -1.34696,-0.1277 0.55765,-0.02 1.64061995,-0.085 2.40659995,-0.1444 l 1.39268,-0.1084 0.39792,0.9016 0.39791,0.9016 0.29767,-1.2146 c 0.16372,-0.6681 0.35214,-1.2147 0.41872,-1.2147 0.0666,0 0.30552,0.5691 0.531,1.2647 0.22547,0.6956 0.46698,1.2659 0.53669,1.2674 0.0697,0 0.12674,-0.068 0.12674,-0.1551 0,-0.1218 0.29757,-1.9523 0.68861,-4.2358 0.008,-0.046 0.21894,0.9421 0.46886,2.1968 l 0.4544,2.2813 0.40558,-1.0984 0.40558,-1.0984 0.3516,0.7993 c 0.19337,0.4396 0.39597,0.8008 0.4502,0.8027 0.0542,0 0.28128,-0.7243 0.50454,-1.6136 l 0.4059296,-1.6169 0.38316,1.5747 c 0.54158,2.2257 0.53534,2.2188 0.97044,1.0749 l 0.38292,-1.0068 0.38704,0.7533 0.38704,0.7532 0.12889,-0.4731 c 0.0709,-0.2603 0.26324,-1.458 0.42743,-2.6616 0.1642,-1.2035 0.34085,-2.188 0.39257,-2.1877 0.0517,0 0.27183,0.7798 0.48914,1.7321 0.58711,2.5729 1.08062,4.2108 1.22363,4.0611 0.0697,-0.073 0.28997,-1.1196 0.48942,-2.3258 0.19946,-1.2061 0.3837,-2.214 0.40944,-2.2398 0.0257,-0.026 0.18494,0.771 0.35378,1.7706 0.16884,0.9995 0.36367,1.9694 0.43297,2.1553 0.14974,0.4016 0.19295,0.321 0.64638,-1.2064 l 0.28797,-0.9701 0.30266,0.7925 c 0.16647,0.4359 0.35847,0.7925 0.42668,0.7925 0.0682,0 0.33603,-1.4638 0.59517,-3.253 0.25913,-1.7891 0.50121,-3.2846 0.53795,-3.3233 0.0367,-0.039 0.0668,0.3913 0.0668,0.9555 0,1.0603 0.42444,5.3175 0.61935,6.2123 0.10668,0.4897 0.11791,0.4782 0.32997,-0.3369 0.12074,-0.464 0.27019,-1.2492 0.33211,-1.7448 0.12611,-1.0094 0.23066,-0.9804 0.66408,0.1843 0.16505,0.4436 0.32723,0.7793 0.36039,0.7462 0.0784,-0.078 0.56596,-3.5238 0.63824,-4.5098 0.0307,-0.4183 0.07,-1.0647 0.0874,-1.4364 0.0675,-1.4419 0.33859,0.1127 0.67989,3.8988 0.18933,2.1004 0.34424,3.9036 0.34424,4.0072 0,0.118 0.0571,0.1284 0.15293,0.028 0.0841,-0.088 0.24407,-0.8829 0.35546,-1.7659 0.29348,-2.3262 0.38353,-2.4621 0.74553,-1.1247 0.16746,0.6186 0.36044,1.1247 0.42885,1.1247 0.0684,0 0.21947,-1.1596 0.33568,-2.577 0.32182,-3.9249 0.47072,-4.5226 0.51576,-2.0701 0.0205,1.1153 0.089,2.4841 0.15235,3.0418 l 0.1151,1.0139 0.14263,-1.7744 c 0.0784,-0.9758 0.17346,-2.1545 0.21114,-2.6192 0.18204,-2.2451 0.33405,-3.3566 0.42754,-3.1262 0.0566,0.1394 0.23221,2.2649 0.39031,4.7234 0.41376,6.4341 0.51424,6.4474 0.94969,0.1256 0.20219,-2.9353 0.36015,-3.4352 0.54442,-1.7228 0.28105,2.6117 0.52317,4.3091 0.61465,4.3091 0.0572,0 0.23554,-1.3498 0.39643,-2.9995 0.16088,-1.6497 0.34069,-3.4177 0.39957,-3.9289 l 0.10704,-0.9294 0.12631,0.6759 c 0.0695,0.3718 0.14274,1.1703 0.16283,1.7744 0.0201,0.6041 0.14029,2.3151 0.26712,3.8021 0.12683,1.4871 0.23322,2.8559 0.23642,3.0418 0.0148,0.8556 0.33011,-0.3199 0.60279,-2.2469 0.16065,-1.1353 0.31366,-2.0426 0.34002,-2.0162 0.0264,0.026 0.17341,1.0343 0.32677,2.24 0.15336,1.2056 0.34767,2.2643 0.43182,2.3526 0.0932,0.098 0.15298,-0.014 0.15298,-0.2865 0,-0.2459 0.0731,-1.3827 0.16242,-2.5264 0.18777,-2.4038 0.37285,-5.2558 0.42006,-6.4728 0.018,-0.4647 0.053,-1.0731 0.0776,-1.3519 l 0.0449,-0.507 0.15274,0.507 c 0.084,0.2788 0.17252,1.2863 0.19671,2.2388 0.0242,0.9526 0.082,1.732 0.12846,1.7322 0.0465,10e-5 0.0924,0.6656 0.10212,1.4788 0.01,0.8132 0.0795,2.3911 0.15506,3.5064 0.11396,1.6813 0.15939,1.9085 0.2659,1.3295 0.13208,-0.718 0.35288,-5.3563 0.38708,-8.1311 0.0106,-0.8597 0.0796,-1.5631 0.1534,-1.5631 0.0738,-10e-5 0.12181,-0.095 0.10672,-0.2113 -0.0151,-0.1162 -0.0161,-0.8956 -0.002,-1.7321 0.0379,-2.2909 0.29515,-1.4019 0.41566,1.4364 0.31209,7.3504 0.69674,11.9062 0.77758,9.2097 0.0167,-0.5577 0.0593,-1.166 0.0946,-1.3519 0.0353,-0.1859 0.075,-1.1364 0.0882,-2.1123 0.0289,-2.1395 0.32009,-6.119 0.49296,-6.7366 0.082,-0.293 0.16394,0.2482 0.23951,1.5825 0.25091,4.4304 0.61726,9.4421 0.69596,9.5208 0.0457,0.046 0.0833,0.014 0.0835,-0.072 3.3e-4,-0.1354 0.288,-2.8678 0.61728,-5.8618 0.059,-0.5365 0.13786,-0.9448 0.17526,-0.9074 0.0374,0.037 0.102,0.5523 0.14355,1.1443 0.2289,3.2613 0.55658,6.1457 0.68373,6.0185 0.07,-0.07 0.35462,-3.2489 0.50301,-5.6181 0.23287,-3.7179 0.22671,-3.6813 0.48222,-2.8727 0.11748,0.3718 0.15905,0.7388 0.0924,0.8156 -0.0667,0.077 -0.0628,0.419 0.009,0.7604 0.0714,0.3415 0.22778,1.7086 0.34744,3.0381 0.11966,1.3296 0.27042,2.3181 0.33503,2.1968 0.0646,-0.1213 0.25186,-1.2683 0.41612,-2.5489 0.16426,-1.2806 0.35192,-2.3613 0.41702,-2.4015 0.0651,-0.04 0.21248,1.1224 0.32751,2.5837 0.11504,1.4613 0.26466,3.0743 0.33251,3.5845 l 0.12335,0.9275 0.11623,-0.8449 c 0.16509,-1.2001 0.42641,-5.3436 0.43164,-6.8439 0.005,-1.5415 0.17029,-2.8392 0.37707,-2.967 0.0842,-0.052 0.15781,0 0.1635,0.1265 0.0468,1.0017 0.1461,2.6054 0.21765,3.5164 0.0474,0.6042 0.14644,1.9349 0.21998,2.9573 l 0.13371,1.8588 0.11187,-1.0984 c 0.0615,-0.6041 0.12307,-1.6687 0.13676,-2.3658 0.0369,-1.8792 0.27357,-1.1391 0.52969,1.6564 0.12179,1.3292 0.27314,2.4487 0.33633,2.4877 0.0632,0.039 0.25188,-0.435 0.41929,-1.0534 0.35362,-1.3064 0.42617,-1.2086 0.74701,1.0072 0.11776,0.8132 0.27242,1.4786 0.34369,1.4786 0.15056,0 0.44851,-2.623 0.67935,-5.9806 0.0888,-1.2911 0.19764,-2.3837 0.24195,-2.428 0.12586,-0.1258 0.25011,0.6021 0.34572,2.0254 0.0889,1.3229 0.55695,4.7104 0.66594,4.8194 0.0327,0.033 0.19745,-0.3245 0.36618,-0.7937 0.29933,-0.8324 0.578,-1.1173 0.578,-0.5908 0,0.4294 0.53295,2.6407 0.61635,2.5573 0.14732,-0.1473 0.75346,-5.429 0.66397,-5.7856 -0.0496,-0.1975 0.0199,-0.5045 0.15432,-0.6822 0.2396,-0.3166 0.24497,-0.3163 0.26985,0.015 0.014,0.1859 0.0133,0.4042 -0.002,0.4852 -0.0148,0.081 0.12832,1.2278 0.31795,2.5485 0.18964,1.3208 0.3448,2.4902 0.3448,2.5988 0,0.4573 0.31381,0.1408 0.60008,-0.6052 l 0.30802,-0.8027 0.32134,1.0984 c 0.17673,0.6041 0.3823,1.1623 0.45682,1.2404 0.0745,0.078 0.30894,-0.8151 0.52095,-1.9848 0.21201,-1.1697 0.40608,-2.1062 0.43127,-2.081 0.0252,0.025 0.2122,1.0895 0.41558,2.365 0.20337,1.2756 0.42417,2.3192 0.49065,2.3192 0.15078,0 0.70059,-1.9044 1.20739,-4.1822 0.21195,-0.9525 0.43501,-1.675 0.49569,-1.6054 0.0607,0.07 0.24721,1.0772 0.41451,2.239 0.1673,1.1617 0.35603,2.3024 0.41942,2.5347 0.11049,0.4051 0.13117,0.3915 0.50133,-0.3289 l 0.38609,-0.7514 0.31746,0.8359 c 0.1746,0.4597 0.31983,0.9499 0.32273,1.0894 0.0116,0.5593 0.30441,-0.2788 0.63931,-1.8302 0.1872,-0.8671 0.37044,-1.6067 0.4072,-1.6435 0.0368,-0.037 0.24056,0.6537 0.45287,1.5344 0.21231,0.8807 0.41549,1.6013 0.45149,1.6013 0.036,0 0.24421,-0.3517 0.46267,-0.7816 l 0.3972,-0.7815 0.39306,1.051 c 0.44008,1.1768 0.48413,1.1508 0.9348,-0.5509 0.16714,-0.6312 0.35495,-1.0874 0.41737,-1.0139 0.0624,0.073 0.25323,0.6278 0.42404,1.232 0.47277,1.6721 0.52268,1.7038 0.84956,0.5388 0.16138,-0.5752 0.34748,-1.0458 0.41354,-1.0458 0.0661,0 0.26343,0.2662 0.43862,0.5914 0.17518,0.3253 0.35826,0.5906 0.40682,0.5894 0.0486,0 0.26222,-0.2705 0.47476,-0.5986 l 0.38644,-0.5964 2.40181,0.1144 c 1.321,0.063 2.4335,0.1422 2.47222,0.1761 0.0388,0.034 -1.00753,0.062 -2.32509,0.062 l -2.39556,0 -0.4631,0.6695 c -0.25471,0.3682 -0.50729,0.6724 -0.56129,0.6759 -0.054,0 -0.20086,-0.1854 -0.32635,-0.4199 -0.1255,-0.2345 -0.30277,-0.4015 -0.39394,-0.3711 -0.0912,0.03 -0.30993,0.5816 -0.48612,1.2248 -0.17621,0.6432 -0.34898,1.1981 -0.38395,1.233 -0.035,0.035 -0.14639,-0.2672 -0.2476,-0.6716 -0.4571,-1.8265 -0.56616,-2.1716 -0.68618,-2.1716 -0.0705,0 -0.30153,0.7018 -0.5135,1.5597 l -0.38539,1.5597 -0.44302,-1.433 -0.44302,-1.433 -0.40144,0.9643 c -0.2208,0.5304 -0.45488,0.9313 -0.52019,0.891 -0.0653,-0.04 -0.16608,-0.3603 -0.22395,-0.7109 -0.0579,-0.3506 -0.18959,-0.9374 -0.29273,-1.3041 -0.24021,-0.854 -0.35872,-0.6333 -0.74228,1.3822 -0.16332,0.8583 -0.35169,1.5266 -0.41861,1.4853 -0.0669,-0.041 -0.2565,-0.5734 -0.42131,-1.1822 -0.1648,-0.6089 -0.36053,-1.1446 -0.43495,-1.1906 -0.0744,-0.046 -0.26841,0.278 -0.4311,0.7201 -0.16269,0.4421 -0.34447,0.8612 -0.40395,0.9314 -0.0595,0.07 -0.2432,-0.7193 -0.40824,-1.7544 -0.43709,-2.7414 -0.49846,-2.8349 -0.9279,-1.415 -0.19676,0.6506 -0.55308,2.0561 -0.79182,3.1233 -0.23874,1.0672 -0.45928,1.9656 -0.49008,1.9964 -0.0308,0.031 -0.10721,-0.3481 -0.16979,-0.842 -0.17134,-1.3521 -0.61252,-3.9272 -0.68531,-4 -0.0831,-0.083 -0.1853,0.3831 -0.51262,2.3397 -0.14753,0.8819 -0.29334,1.6286 -0.32401,1.6593 -0.0307,0.031 -0.22353,-0.6909 -0.42857,-1.6035 -0.20504,-0.9126 -0.42499,-1.7159 -0.48879,-1.7851 -0.0638,-0.069 -0.25801,0.292 -0.43159,0.8027 -0.17359,0.5107 -0.36898,0.9285 -0.43419,0.9285 -0.0652,0 -0.16804,-0.3612 -0.22852,-0.8027 -0.0605,-0.4414 -0.19572,-1.2954 -0.30056,-1.8977 -0.2514,-1.4442 -0.38469,-1.0764 -0.76592,2.1136 -0.16055,1.3435 -0.34261,2.3863 -0.40458,2.3175 -0.062,-0.069 -0.2462,-0.8858 -0.4094,-1.8152 -0.43719,-2.4897 -0.47638,-2.5476 -0.97435,-1.4384 -0.47129,1.0498 -0.36905,1.2026 -0.81849,-1.2231 -0.11624,-0.6274 -0.26294,-1.1406 -0.32599,-1.1406 -0.11918,0 -0.15463,0.2938 -0.59047,4.8948 -0.14497,1.5305 -0.28457,2.8036 -0.31021,2.8292 -0.0256,0.026 -0.22316,-1.2835 -0.43893,-2.9093 -0.21577,-1.6257 -0.45423,-2.9559 -0.52991,-2.9559 -0.12505,0 -0.26318,0.411 -0.58177,1.7309 -0.1656,0.6861 -0.41135,0.3918 -0.43064,-0.5157 -0.009,-0.436 -0.0777,-0.9829 -0.15214,-1.2152 -0.10488,-0.3275 -0.13926,-0.2135 -0.15291,0.5069 -0.0276,1.4547 -0.23112,4.7419 -0.28999,4.683 -0.0292,-0.029 -0.13061,-0.9617 -0.22542,-2.0723 -0.0948,-1.1105 -0.26231,-2.8557 -0.37221,-3.878 -0.26996,-2.5115 -0.40098,-1.938 -0.76243,3.3374 -0.1576,2.3003 -0.33446,4.1824 -0.39301,4.1824 -0.0586,0 -0.23856,-1.6245 -0.40003,-3.61 -0.30988,-3.8104 -0.47404,-4.8557 -0.66709,-4.2478 -0.059,0.1859 -0.22835,1.0969 -0.37628,2.0246 -0.14792,0.9276 -0.29287,1.7105 -0.3221,1.7397 -0.0292,0.029 -0.10503,-0.4636 -0.16842,-1.0951 -0.17635,-1.7569 -0.45449,-3.3274 -0.62087,-3.5057 -0.0925,-0.099 -0.14981,-0.075 -0.14981,0.063 0,0.1229 -0.11054,1.4118 -0.24565,2.8643 -0.13511,1.4524 -0.29757,3.2491 -0.36101,3.9926 -0.0634,0.7436 -0.13923,1.2759 -0.16842,1.1829 -0.0292,-0.093 -0.17307,-1.4617 -0.31973,-3.0417 -0.4962,-5.3457 -0.59839,-5.4359 -1.03546,-0.9136 -0.15636,1.6178 -0.33494,2.9993 -0.39685,3.0699 -0.0619,0.071 -0.20508,-1.222 -0.31816,-2.8727 -0.2934,-4.2828 -0.38944,-5.0879 -0.5539,-4.6433 -0.0741,0.2002 -0.26664,2.4531 -0.4279,5.0064 -0.16126,2.5534 -0.34277,4.6118 -0.40336,4.5744 -0.0606,-0.038 -0.15924,-1.1166 -0.21924,-2.3981 -0.17834,-3.8095 -0.49763,-7.9909 -0.61016,-7.9909 -0.0577,0 -0.11944,0.1747 -0.13712,0.3883 -0.13809,1.6685 -0.54702,8.8468 -0.54769,9.6141 -5.1e-4,0.5289 -0.0769,1.0086 -0.16982,1.0661 C 35.120364,1085.4519 35.051304,1085.2654 35.051654,1084.9355 Z"
           id="path911"
           inkscape:connector-curvature="0"
           sodipodi:nodetypes="csssssssscsssscsscssssssssscssscscssscssscsssssscsssssscssscscscscscscssscscccccccccssscscscccccscsscccsscscscssscssscssssscssssssssssscssssssssscssssssscsssscsssssssccssssscsccssscssccscscsscssccsscssscsssscsccsccsccssscscscssscssscssscssscsscsssscccscscccscscssscccscssscssccssscscscssssssscssssscsssscscssssssssscssscsssscscssscccc" />
        <path
           style="fill:none;stroke:url(#radialGradient974);stroke-width:0.16898507px;stroke-linecap:butt;stroke-linejoin:miter;stroke-opacity:1"
           d="m -3.7415056,1086.9197 c 3.23316005,0 5.22666,0 5.22666,0 l 2.44581,-0.6533 1.08888,0.5528 1.2449,-0.4137 0.99502,0.379 0.47383,-0.2369 0.80549,0.3791 0.99502,-0.616 0.8528796,0.5212 0.85288,-0.379 0.85288,0.6159 1.65837,-0.7581 0.99502,0.7107 0.94765,-0.4738 0.71073,0.3791 0.75811,-0.4265 1.04241,0.7582 0.94764,-0.9951 0.66335,0.6634 1.08978,-0.2369 0.61597,0.6633 0.90026,-1.1372 0.94764,0.616 0.94764,-0.1895 0.2843,0.5686 0.37905,-1.0424 0.85288,1.2793 0.94764,-1.3267 0.85288,1.1372 0.85288,-0.7108 0.85288,0.7108 0.90026,-0.9477 0.90025,0.7107 0.94765,-0.8055 0.99502,1.3741 0.61597,-1.4214 0.66335,1.4688 1.0424,-1.5162 0.90026,1.4214 0.61597,-1.2793 1.04241,0.9003 0.85287,-0.8529 0.99503,0.995 0.75811,-0.6633 0.90026,0.5212 0.94764,-0.995 0.8055,1.611 0.75811,-1.5163 0.28429,1.0424 0.71073,-0.8528 0.75812,0.6159 0.80549,-0.6633 0.99503,0.7107 1.13717,-0.4738 0.71073,0.2843 0.61596,-0.3791 0.99503,0.6634 0.71073,-0.5686 0.75811,0.2369 0.85288,-0.5686 1.51623,0.4738 0.47382,-0.4738 1.42146,0.7107 0.75812,-0.4264 1.42146,0.047 0.90026,-0.3317 0.47382,0.5686 0.94764,-0.5686 0.42644,0.4264 1.3267,-0.1895 0.75811,0.3317 1.18455,-0.4738 1.04241,0.4264 1.80052,-0.3317 1.70575,0.3317 3.64842,0"
           id="path923"
           inkscape:connector-curvature="0" />
      </g>
      <g
         transform="matrix(0.97502115,0,0,0.97502115,0.59949261,23.754425)"
         id="g1038">
        <path
           style="fill:#000000;fill-opacity:1;stroke:none"
           d="m 4.0809708,1013.9347 16.7135082,0 0,6.4653 L 4.0809708,1020.4 Z"
           id="rect991"
           inkscape:connector-curvature="0" />
        <g
           style="font-size:5px;font-style:normal;font-weight:normal;line-height:125%;letter-spacing:0px;word-spacing:0px;fill:#000000;fill-opacity:1;stroke:none;font-family:Impact;-inkscape-font-specification:Impact"
           id="text993"
           transform="translate(0,5.0470583)">
          <g
             id="g1031"
             transform="translate(0.00632785,-3e-4)">
            <path
               id="path1002"
               style="fill:#ffffff"
               d="m 8.0808105,1011.3403 -0.9545898,0 0,-0.293 q 0,-0.2051 -0.036621,-0.2612 -0.036621,-0.056 -0.1220703,-0.056 -0.092773,0 -0.1416016,0.076 -0.046387,0.076 -0.046387,0.2295 0,0.1977 0.053711,0.2978 0.05127,0.1001 0.2905273,0.2417 0.6860352,0.4078 0.8642578,0.669 0.1782227,0.2612 0.1782227,0.8423 0,0.4223 -0.1000977,0.6225 -0.097656,0.2002 -0.3808594,0.3369 -0.2832031,0.1343 -0.6591797,0.1343 -0.4125976,0 -0.7055664,-0.1562 -0.2905273,-0.1563 -0.3808593,-0.398 -0.090332,-0.2417 -0.090332,-0.686 l 0,-0.2588 0.9545899,0 0,0.481 q 0,0.2221 0.039063,0.2856 0.041504,0.064 0.1440429,0.064 0.1025391,0 0.1513672,-0.081 0.05127,-0.081 0.05127,-0.2392 0,-0.3492 -0.095215,-0.4566 -0.097656,-0.1074 -0.480957,-0.3589 -0.3833008,-0.2539 -0.5078125,-0.3686 -0.1245117,-0.1148 -0.2075195,-0.3174 -0.080566,-0.2026 -0.080566,-0.5176 0,-0.4541 0.114746,-0.664 0.1171875,-0.21 0.3759766,-0.3272 0.2587891,-0.1196 0.625,-0.1196 0.4003906,0 0.6811524,0.1294 0.2832031,0.1294 0.3735351,0.3271 0.092773,0.1953 0.092773,0.6665 L 8.0808105,1011.3403 Z"
               inkscape:connector-curvature="0" />
            <path
               id="path1004"
               style="fill:#ffffff"
               d="m 10.8396,1012.4584 q 0,0.5957 -0.0293,0.8448 -0.02686,0.2465 -0.175782,0.4516 -0.146484,0.2051 -0.397949,0.315 -0.2514646,0.1098 -0.5859372,0.1098 -0.3173828,0 -0.5712891,-0.1025 -0.2514648,-0.105 -0.4052734,-0.3125 -0.1538086,-0.2075 -0.1831055,-0.4517 -0.029297,-0.2441 -0.029297,-0.8545 l 0,-0.6762 q 0,-0.5957 0.026855,-0.8423 0.029297,-0.249 0.1757812,-0.4541 0.1489258,-0.2051 0.4003907,-0.315 0.2514648,-0.1098 0.5859375,-0.1098 0.3173828,0 0.5688468,0.105 0.253907,0.1025 0.407715,0.31 0.153809,0.2075 0.183106,0.4517 0.0293,0.2441 0.0293,0.8545 L 10.8396,1012.4584 z m -1.0278324,-1.2988 q 0,-0.2759 -0.031738,-0.3516 -0.029297,-0.078 -0.1245117,-0.078 -0.080566,0 -0.1245117,0.063 -0.041504,0.061 -0.041504,0.3662 l 0,1.8457 q 0,0.3442 0.026855,0.4248 0.029297,0.081 0.131836,0.081 0.1049804,0 0.1342773,-0.093 0.029297,-0.093 0.029297,-0.4419 L 9.8117676,1011.1596 Z"
               inkscape:connector-curvature="0" />
            <path
               id="path1006"
               style="fill:#ffffff"
               d="m 13.561768,1010.144 0,2.6416 q 0,0.4492 -0.0293,0.6323 -0.0293,0.1807 -0.17334,0.3735 -0.144043,0.1905 -0.38086,0.2906 -0.234375,0.098 -0.554199,0.098 -0.354004,0 -0.625,-0.1172 -0.270996,-0.1171 -0.405273,-0.3051 -0.134278,-0.188 -0.158692,-0.3955 -0.02441,-0.21 -0.02441,-0.879 l 0,-2.3388 1.027832,0 0,2.9638 q 0,0.2588 0.02686,0.3321 0.0293,0.071 0.114746,0.071 0.09766,0 0.124512,-0.078 0.0293,-0.081 0.0293,-0.376 l 0,-2.9126 L 13.561768,1010.144 Z"
               inkscape:connector-curvature="0" />
            <path
               id="path1008"
               style="fill:#ffffff"
               d="m 16.254639,1010.144 0,3.9526 -0.900879,0 -0.534668,-1.7969 0,1.7969 -0.859375,0 0,-3.9526 0.859375,0 0.576172,1.7798 0,-1.7798 L 16.254639,1010.144 Z"
               inkscape:connector-curvature="0" />
            <path
               id="path1010"
               style="fill:#ffffff"
               d="m 16.664795,1010.144 0.769043,0 q 0.744629,0 1.005859,0.068 0.263672,0.068 0.400391,0.2247 0.136719,0.1562 0.170898,0.3491 0.03418,0.1904 0.03418,0.7519 l 0,1.3843 q 0,0.5322 -0.05127,0.7129 -0.04883,0.1782 -0.173339,0.2808 -0.124512,0.1001 -0.307618,0.1416 -0.183105,0.039 -0.551757,0.039 l -1.296387,0 L 16.664795,1010.144 z m 1.027832,0.6763 0,2.6 q 0.222168,0 0.273437,-0.088 0.05127,-0.09 0.05127,-0.4859 l 0,-1.5356 q 0,-0.2686 -0.01709,-0.3443 -0.01709,-0.076 -0.07813,-0.1098 Q 17.861084,1010.8203 17.692627,1010.8203 Z"
               inkscape:connector-curvature="0" />
          </g>
          <path
             d="m 25.014331,1013.9745 q -0.45166,0.1465 -0.976563,0.1465 -1.831054,0 -1.831054,-1.8188 0,-1.7212 1.831054,-1.7212 0.524903,0 0.976563,0.1465 l 0,0.3906 q -0.45166,-0.1709 -0.927734,-0.1709 -1.428223,0 -1.428223,1.355 0,1.4526 1.428223,1.4526 0.476074,0 0.927734,-0.1709 L 25.014331,1013.9745 Z"
             style="font-style:normal;font-variant:normal;font-weight:normal;font-stretch:normal;font-family:Sansation;-inkscape-font-specification:Sansation"
             id="path1012"
             inkscape:connector-curvature="0" />
          <path
             d="m 26.03728,1012.8051 q 0,0.9253 0.769043,0.9253 0.769043,0 0.769043,-0.9253 0,-0.9057 -0.769043,-0.9057 Q 26.03728,1011.8994 26.03728,1012.8051 z m -0.45166,0.01 q 0,-1.2818 1.220703,-1.2818 1.220703,0 1.220703,1.2818 0,1.2793 -1.220703,1.2793 Q 25.590503,1014.0942 25.58562,1012.8149 Z"
             style="font-style:normal;font-variant:normal;font-weight:normal;font-stretch:normal;font-family:Sansation;-inkscape-font-specification:Sansation"
             id="path1014"
             inkscape:connector-curvature="0" />
          <path
             d="m 28.637378,1014.0966 0,-2.5635 0.305176,0 0.08057,0.3272 q 0.393066,-0.3272 0.864258,-0.3272 0.959473,0 0.959473,0.9546 l 0,1.6089 -0.451661,0 0,-1.6162 q 0,-0.5713 -0.568847,-0.5713 -0.388184,0 -0.737305,0.3247 l 0,1.8628 L 28.637378,1014.0966 Z"
             style="font-style:normal;font-variant:normal;font-weight:normal;font-stretch:normal;font-family:Sansation;-inkscape-font-specification:Sansation"
             id="path1016"
             inkscape:connector-curvature="0" />
          <path
             d="m 31.21062,1011.5331 0.488281,0 0.734864,2.0093 0.72998,-2.0093 0.488281,0 -1.04248,2.5635 -0.419922,0 L 31.21062,1011.5331 Z"
             style="font-style:normal;font-variant:normal;font-weight:normal;font-stretch:normal;font-family:Sansation;-inkscape-font-specification:Sansation"
             id="path1018"
             inkscape:connector-curvature="0" />
          <path
             d="m 35.075366,1011.5331 q 1.09375,0 1.09375,1.0816 0,0.1538 -0.02197,0.3296 l -1.799316,0 q 0,0.7861 0.917969,0.7861 0.437012,0 0.776367,-0.098 l 0,0.3662 q -0.339355,0.098 -0.825195,0.098 -1.320801,0 -1.320801,-1.311 Q 33.896167,1011.5331 35.075366,1011.5331 z m -0.727539,1.0352 1.386719,0 q -0.01465,-0.6738 -0.65918,-0.6738 Q 34.391772,1011.8945 34.347827,1012.5683 Z"
             style="font-style:normal;font-variant:normal;font-weight:normal;font-stretch:normal;font-family:Sansation;-inkscape-font-specification:Sansation"
             id="path1020"
             inkscape:connector-curvature="0" />
          <path
             d="m 36.781909,1014.0966 0,-2.5635 0.305176,0 0.08057,0.3272 q 0.336914,-0.3272 0.810547,-0.3272 l 0,0.376 q -0.458984,0 -0.744629,0.3247 l 0,1.8628 L 36.781909,1014.0966 Z"
             style="font-style:normal;font-variant:normal;font-weight:normal;font-stretch:normal;font-family:Sansation;-inkscape-font-specification:Sansation"
             id="path1022"
             inkscape:connector-curvature="0" />
          <path
             d="m 38.4323,1011.1181 0.283203,0 0.09766,0.415 0.693359,0 0,0.3663 -0.622558,0 0,1.4721 q 0,0.3589 0.310058,0.3589 l 0.3125,0 0,0.3662 -0.429687,0 q -0.644531,0 -0.644531,-0.6909 L 38.4323,1011.1181 Z"
             style="font-style:normal;font-variant:normal;font-weight:normal;font-stretch:normal;font-family:Sansation;-inkscape-font-specification:Sansation"
             id="path1024"
             inkscape:connector-curvature="0" />
          <path
             d="m 41.139819,1011.5331 q 1.09375,0 1.09375,1.0816 0,0.1538 -0.02197,0.3296 l -1.799317,0 q 0,0.7861 0.917969,0.7861 0.437012,0 0.776367,-0.098 l 0,0.3662 q -0.339355,0.098 -0.825195,0.098 -1.320801,0 -1.320801,-1.311 Q 39.96062,1011.5331 41.139819,1011.5331 z m -0.727539,1.0352 1.386719,0 q -0.01465,-0.6738 -0.65918,-0.6738 Q 40.456226,1011.8945 40.41228,1012.5683 Z"
             style="font-style:normal;font-variant:normal;font-weight:normal;font-stretch:normal;font-family:Sansation;-inkscape-font-specification:Sansation"
             id="path1026"
             inkscape:connector-curvature="0" />
          <path
             d="m 42.846362,1014.0966 0,-2.5635 0.305176,0 0.08057,0.3272 q 0.336914,-0.3272 0.810547,-0.3272 l 0,0.376 q -0.458984,0 -0.744629,0.3247 l 0,1.8628 L 42.846362,1014.0966 Z"
             style="font-style:normal;font-variant:normal;font-weight:normal;font-stretch:normal;font-family:Sansation;-inkscape-font-specification:Sansation"
             id="path1028"
             inkscape:connector-curvature="0" />
        </g>
      </g>
    </g>
  </g>
</svg>
