<?xml version="1.0" encoding="UTF-8" standalone="no"?>
<!-- Created with Inkscape (http://www.inkscape.org/) -->

<svg
   xmlns:dc="http://purl.org/dc/elements/1.1/"
   xmlns:cc="http://creativecommons.org/ns#"
   xmlns:rdf="http://www.w3.org/1999/02/22-rdf-syntax-ns#"
   xmlns:svg="http://www.w3.org/2000/svg"
   xmlns="http://www.w3.org/2000/svg"
   xmlns:xlink="http://www.w3.org/1999/xlink"
   xmlns:sodipodi="http://sodipodi.sourceforge.net/DTD/sodipodi-0.dtd"
   xmlns:inkscape="http://www.inkscape.org/namespaces/inkscape"
   width="48"
   height="48"
   id="svg2"
   version="1.1"
   inkscape:version="0.48+devel r12149"
   sodipodi:docname="omgwords.svg">
  <defs
     id="defs4">
    <linearGradient
       id="linearGradient1404"
       inkscape:collect="always">
      <stop
         id="stop1406"
         offset="0"
         style="stop-color:#592041;stop-opacity:1;" />
      <stop
         id="stop1408"
         offset="1"
         style="stop-color:#bd498c;stop-opacity:1" />
    </linearGradient>
    <linearGradient
       gradientTransform="matrix(0.89797776,0,0,0.89797776,2.4482861,104.29233)"
       gradientUnits="userSpaceOnUse"
       y2="1012.7642"
       x2="30.405592"
       y1="1044.9376"
       x1="30.405592"
       id="linearGradient1424"
       xlink:href="#linearGradient1418"
       inkscape:collect="always" />
    <linearGradient
       id="linearGradient1418"
       inkscape:collect="always">
      <stop
         id="stop1420"
         offset="0"
         style="stop-color:#f05112;stop-opacity:1" />
      <stop
         id="stop1422"
         offset="1"
         style="stop-color:#f48254;stop-opacity:1" />
    </linearGradient>
    <linearGradient
       gradientUnits="userSpaceOnUse"
       y2="1006.2235"
       x2="29.875261"
       y1="1050.7712"
       x1="29.875261"
       id="linearGradient905"
       xlink:href="#linearGradient1404"
       inkscape:collect="always"
       gradientTransform="translate(1.262207e-7,-1.9154687e-5)" />
  </defs>
  <sodipodi:namedview
     id="base"
     pagecolor="#ffffff"
     bordercolor="#666666"
     borderopacity="1.0"
     inkscape:pageopacity="0.0"
     inkscape:pageshadow="2"
     inkscape:zoom="5.6568543"
     inkscape:cx="13.562871"
     inkscape:cy="31.405794"
     inkscape:document-units="px"
     inkscape:current-layer="layer1"
     showgrid="false"
     inkscape:window-width="1366"
     inkscape:window-height="714"
     inkscape:window-x="0"
     inkscape:window-y="30"
     inkscape:window-maximized="1">
    <inkscape:grid
       type="xygrid"
       id="grid3850" />
  </sodipodi:namedview>
  <metadata
     id="metadata7">
    <rdf:RDF>
      <cc:Work
         rdf:about="">
        <dc:format>image/svg+xml</dc:format>
        <dc:type
           rdf:resource="http://purl.org/dc/dcmitype/StillImage" />
        <dc:title />
      </cc:Work>
    </rdf:RDF>
  </metadata>
  <g
     inkscape:label="Capa 1"
     inkscape:groupmode="layer"
     id="layer1"
     transform="translate(0,-1004.3622)">
    <rect
       style="color:#000000;fill:#333333;fill-opacity:1;fill-rule:nonzero;stroke:none;stroke-width:0.2;marker:none;visibility:visible;display:inline;overflow:visible;enable-background:accumulate"
       id="rect6294"
       width="45.5"
       height="45.5"
       x="1.25"
       y="1005.6122"
       ry="6.3565426" />
    <rect
       ry="5.8565426"
       y="1006.1122"
       x="1.75"
       height="44.5"
       width="44.5"
       id="rect6296"
       style="color:#000000;fill:url(#linearGradient905);fill-opacity:1;fill-rule:nonzero;stroke:none;stroke-width:0.2;marker:none;visibility:visible;display:inline;overflow:visible;enable-background:accumulate" />
    <path
       id="path6361"
       d="m 1.7500001,1012.5497 0,-0.5625 c 0,-3.2445 2.599225,-5.875 5.84375,-5.875 l 32.8124999,0 c 3.244525,0 5.84375,2.6305 5.84375,5.875 l 0,0.5625 c 0,-3.2445 -2.599225,-5.875 -5.84375,-5.875 l -32.8124999,0 C 4.3492251,1006.6747 1.7500001,1009.3052 1.7500001,1012.5497 Z"
       style="color:#000000;fill:#ffffff;fill-opacity:1;fill-rule:nonzero;stroke:none;stroke-width:0.2;marker:none;visibility:visible;display:inline;overflow:visible;enable-background:accumulate"
       inkscape:connector-curvature="0" />
    <path
       inkscape:connector-curvature="0"
       style="color:#000000;fill:#000000;fill-opacity:1;fill-rule:nonzero;stroke:none;stroke-width:0.2;marker:none;visibility:visible;display:inline;overflow:visible;enable-background:accumulate"
       d="m 1.7500001,1044.1747 0,0.5625 c 0,3.2445 2.599225,5.875 5.84375,5.875 l 32.8124999,0 c 3.244525,0 5.84375,-2.6305 5.84375,-5.875 l 0,-0.5625 c 0,3.2445 -2.599225,5.875 -5.84375,5.875 l -32.8124999,0 C 4.3492251,1050.0497 1.7500001,1047.4192 1.7500001,1044.1747 Z"
       id="path6388" />
    <path
       style="fill:#000000;fill-opacity:0.2348178;stroke:none"
       d="m 9.5759841,1027.4792 c -0.0012,0.075 0,0.1492 0,0.2244 0,7.6961 6.4555369,13.9187 14.4237689,13.9187 2.28109,0 4.452371,-0.4927 6.370029,-1.4031 l 6.285844,2.301 -0.196433,-0.5051 -6.089411,-2.2168 c -1.917658,0.9105 -4.088939,1.4031 -6.370029,1.4031 C 16.09964,1041.2014 9.6850571,1035.0843 9.5759841,1027.4792 z m 28.8475359,0.055 c -0.06688,3.6108 -1.563601,6.8764 -3.956715,9.3166 l 0.112248,0.2806 c 2.375299,-2.4838 3.844467,-5.7808 3.844467,-9.4288 C 38.42352,1027.6473 38.424211,1027.5916 38.42352,1027.5352 Z"
       id="path1426"
       inkscape:connector-curvature="0" />
    <path
       inkscape:connector-curvature="0"
       id="path1431"
       d="m 9.5759841,1027.9001 c -0.0012,0.074 0,0.1493 0,0.2245 0,7.6961 6.4555369,13.9186 14.4237689,13.9186 2.28109,0 4.452371,-0.4926 6.370029,-1.403 l 6.285844,2.3011 -0.196433,-0.5052 -6.089411,-2.2169 c -1.917658,0.9105 -4.088939,1.4032 -6.370029,1.4032 C 16.09964,1041.6224 9.6850571,1035.5053 9.5759841,1027.9001 z m 28.8475359,0.055 c -0.06688,3.6108 -1.563601,6.8765 -3.956715,9.3165 l 0.112248,0.2806 c 2.375299,-2.4837 3.844467,-5.7807 3.844467,-9.4287 C 38.42352,1028.0682 38.424211,1028.0125 38.42352,1027.9563 Z"
       style="fill:#000000;fill-opacity:0.11702785;stroke:none" />
    <path
       style="fill:#000000;fill-opacity:0.05882353;stroke:none"
       d="m 9.5759841,1028.321 c -0.0012,0.075 0,0.1494 0,0.2246 0,7.6961 6.4555369,13.9187 14.4237689,13.9187 2.28109,0 4.452371,-0.4927 6.370029,-1.4032 l 6.285844,2.3011 -0.196433,-0.5051 -6.089411,-2.2168 c -1.917658,0.9104 -4.088939,1.403 -6.370029,1.403 C 16.09964,1042.0433 9.6850571,1035.9262 9.5759841,1028.321 z m 28.8475359,0.055 c -0.06688,3.6107 -1.563601,6.8764 -3.956715,9.3165 l 0.112248,0.2806 c 2.375299,-2.4837 3.844467,-5.7808 3.844467,-9.4288 C 38.42352,1028.4891 38.424211,1028.4335 38.42352,1028.3772 Z"
       id="path1433"
       inkscape:connector-curvature="0" />
    <path
       inkscape:connector-curvature="0"
       style="fill:url(#linearGradient1424);fill-opacity:1;stroke:none"
       d="m 23.999753,1013.3622 c -7.968232,0 -14.4237689,6.2312 -14.4237689,13.9272 0,7.6961 6.4555369,13.9272 14.4237689,13.9272 2.28109,0 4.442986,-0.5083 6.360644,-1.4188 l 6.289709,2.3173 -2.175388,-5.2492 c 2.449253,-2.4974 3.948802,-5.8651 3.948802,-9.5765 C 38.42352,1019.5934 31.967983,1013.3622 23.999753,1013.3622 Z"
       id="path3194-7" />
    <path
       style="fill:#ffffff;fill-opacity:0.2348178;stroke:none"
       d="m 23.999753,1013.3711 c -7.968232,0 -14.4237689,6.2227 -14.4237689,13.9186 0,0.085 0.02649,0.1678 0.02806,0.2526 0.143427,-7.5759 6.5173919,-13.6661 14.3957069,-13.6661 7.898758,0 14.312554,6.119 14.423767,13.7222 0.0023,-0.1034 0,-0.2046 0,-0.3087 C 38.42352,1019.5938 31.967983,1013.3711 23.999753,1013.3711 Z"
       id="path1435"
       inkscape:connector-curvature="0"
       sodipodi:nodetypes="sscscss" />
    <path
       id="path1440"
       d="m 23.999753,1013.8762 c -7.968232,0 -14.4237689,6.2226 -14.4237689,13.9186 0,0.085 0.02649,0.1678 0.02806,0.2527 0.143427,-7.5761 6.5173919,-13.6661 14.3957069,-13.6661 7.898758,0 14.312554,6.1189 14.423767,13.7221 0.0023,-0.1034 0,-0.2046 0,-0.3087 C 38.42352,1020.0988 31.967983,1013.8762 23.999753,1013.8762 Z"
       style="fill:#ffffff;fill-opacity:0.11791699;stroke:none"
       inkscape:connector-curvature="0"
       sodipodi:nodetypes="sscscss" />
    <path
       inkscape:connector-curvature="0"
       style="fill:#ffffff;fill-opacity:0.05882353;stroke:none"
       d="m 23.999753,1014.3814 c -7.968232,0 -14.4237689,6.2225 -14.4237689,13.9185 0,0.085 0.02649,0.1678 0.02806,0.2527 0.143427,-7.576 6.5173919,-13.6662 14.3957069,-13.6662 7.898758,0 14.312554,6.119 14.423767,13.7223 0.0023,-0.1034 0,-0.2048 0,-0.3088 C 38.42352,1020.6039 31.967983,1014.3814 23.999753,1014.3814 Z"
       id="path1442"
       sodipodi:nodetypes="sscscss" />
    <g
       transform="matrix(0.91798443,0,0,0.91798443,1.8871839,85.027817)"
       id="g962">
      <path
         inkscape:connector-curvature="0"
         id="path953"
         d="m 33.75,1021.4872 0.125,1.5 0.53125,2.9688 1.25,-0.062 0,-0.2188 -1.25,0.062 -0.53125,-2.9687 -0.09375,-1.2813 L 33.75,1021.4872 z m -3.28125,1.2813 c -0.462939,0.025 -0.866446,0.2043 -1.125,0.5312 -0.221543,0.2807 -0.312672,0.7059 -0.3125,1.25 0.02525,-0.4414 0.120781,-0.7884 0.3125,-1.0312 0.258554,-0.3269 0.662061,-0.5065 1.125,-0.5313 0.31069,-0.017 0.543551,0.035 0.75,0.1563 0.209548,0.1212 0.370517,0.3179 0.46875,0.5625 l 2.03125,-0.4688 c -0.0248,-0.07 -0.06585,-0.1208 -0.09375,-0.1875 l -1.9375,0.4375 c -0.09823,-0.2446 -0.259202,-0.4413 -0.46875,-0.5625 C 31.012301,1022.8037 30.77944,1022.7515 30.46875,1022.7685 z m -5.5625,0.5312 -1.0625,5.0938 -1.5625,0.094 -1.625,-4.9375 0,0.2188 0,0.031 1.625,4.9063 1.5625,-0.094 1.0625,-5.0937 L 24.90625,1023.2997 z m -9.59375,0.375 c -0.425655,0.023 -0.75887,0.1639 -1,0.4688 -0.208976,0.2642 -0.309991,0.7077 -0.3125,1.25 0.02865,-0.4383 0.131655,-0.8026 0.3125,-1.0313 0.24113,-0.3049 0.574345,-0.4455 1,-0.4687 0.444291,-0.024 0.788039,0.1008 1.0625,0.375 0.277388,0.271 0.464244,0.7225 0.5,1.3437 -0.0011,-0.075 0.0046,-0.138 0,-0.2187 -0.03576,-0.6212 -0.222612,-1.0728 -0.5,-1.3438 C 16.100539,1023.7755 15.756791,1023.6507 15.3125,1023.6747 z m 11.59375,1.25 c 2.45e-4,0.077 -0.0045,0.14 0,0.2188 0.03938,0.6841 0.221226,1.2994 0.53125,1.8125 0.313129,0.513 0.756337,0.8854 1.28125,1.125 0.528015,0.2399 1.157832,0.325 1.96875,0.2812 0.658668,-0.035 1.248737,-0.1398 1.71875,-0.3125 0.472935,-0.1759 1.024159,-0.493 1.625,-0.9375 l 0,-0.2187 c -0.600841,0.4445 -1.152065,0.7616 -1.625,0.9375 -0.470013,0.1727 -1.060082,0.2775 -1.71875,0.3125 -0.810918,0.044 -1.440735,-0.041 -1.96875,-0.2813 -0.524913,-0.2396 -0.968121,-0.612 -1.28125,-1.125 C 27.127476,1026.2241 26.94563,1025.6088 26.90625,1024.9247 z m 5.1875,0.625 -1.4375,0.094 0,0.2187 1.4375,-0.094 L 32.09375,1025.5497 z m -20.1875,0.1875 c 0.0012,0.076 -0.0045,0.1402 0,0.2188 0.04439,0.7712 0.219163,1.4098 0.5625,1.9062 0.343335,0.4962 0.764277,0.8523 1.28125,1.0625 0.357677,0.1443 0.798056,0.2198 1.28125,0.25 l 0.125,0 0.625,-0.062 0.03125,0.062 c 0.712316,-0.05 1.280634,-0.2128 1.75,-0.5 0.493645,-0.3034 0.85487,-0.7436 1.09375,-1.25 0.147243,-0.3103 0.240365,-0.6595 0.28125,-1.0625 -0.04915,0.3165 -0.16035,0.5889 -0.28125,0.8438 -0.23888,0.5064 -0.600105,0.9466 -1.09375,1.25 -0.49072,0.3002 -1.085659,0.459 -1.84375,0.5 -0.770528,0.041 -1.448677,-0.04 -1.96875,-0.25 -0.516973,-0.2102 -0.937915,-0.5663 -1.28125,-1.0625 C 12.125413,1027.1471 11.95064,1026.5084 11.90625,1025.7372 z m 24.1875,2 -1.875,0.094 0,0.2187 1.90625,-0.062 L 36.09375,1027.7372 z m -9.1875,0.5 -1.71875,0.094 0,0.2187 1.71875,-0.094 L 26.90625,1028.2372 z m -5.96875,0.3125 -1.71875,0.094 0,0.2187 0.875,-0.031 0.84375,-0.062 L 20.9375,1028.5497 z m 11.875,0.3438 c -0.154539,0.01 -0.26924,0.058 -0.34375,0.125 -0.07463,0.067 -0.09905,0.159 -0.09375,0.25 0.0019,0.033 0.01334,0.037 0.03125,0.062 0.01147,-0.041 0.02519,-0.06 0.0625,-0.094 0.07451,-0.067 0.189211,-0.1166 0.34375,-0.125 0.18779,-0.01 0.358177,0.047 0.46875,0.125 0.112528,0.079 0.20587,0.2211 0.25,0.4063 l 1.21875,-0.1563 c -0.01391,-0.074 -0.04224,-0.1516 -0.0625,-0.2187 l -1.15625,0.1562 c -0.04413,-0.1852 -0.137472,-0.3272 -0.25,-0.4062 C 33.170677,1028.9401 33.00029,1028.8835 32.8125,1028.8935 z m 2.03125,0.1562 0,0.2188 0.375,1.875 0.78125,-0.031 0.15625,-1.9375 0,-0.125 -0.15625,1.8435 -0.78125,0.031 L 34.84375,1029.0497 z m -16.75,0.1563 -0.65625,4 -1.3125,0.062 -0.90625,-2.5625 -0.59375,2.6562 -1.3125,0.062 -1.125,-3.9062 -0.0625,0 0,0.031 1.1875,4.0938 1.3125,-0.062 0.59375,-2.6563 0.90625,2.5625 1.3125,-0.062 0.6875,-4.2187 L 18.09375,1029.206 z m 10.46875,0.1562 -0.3125,0.031 0,0.2187 0.3125,-0.031 c 0.344282,-0.018 0.591883,0.064 0.75,0.2187 0.158112,0.1545 0.255649,0.4347 0.28125,0.875 -3.95e-4,-0.072 0.0048,-0.1356 0,-0.2187 -0.0256,-0.4403 -0.123138,-0.7205 -0.28125,-0.875 C 29.154383,1029.4262 28.906782,1029.3442 28.5625,1029.3622 z m -4.0625,0.125 -0.5625,0.031 0,0.2187 0.03125,0 0.53125,-0.031 c 0.242562,-0.013 0.407796,0.028 0.5,0.094 0.0656,0.048 0.13014,0.1078 0.15625,0.1875 0.01421,-0.04 0.0026,-0.08 0,-0.125 C 25.14845,1029.7283 25.0922,1029.6482 25,1029.5812 24.907796,1029.515 24.742562,1029.4742 24.5,1029.4872 z m 6.65625,0.062 c -0.0029,0.042 -0.0025,0.083 0,0.125 0.01889,0.3249 0.174918,0.585 0.4375,0.7813 0.260625,0.1962 0.659701,0.3112 1.25,0.4062 0.360414,0.056 0.584746,0.139 0.6875,0.2188 0.08149,0.063 0.136103,0.1413 0.15625,0.2187 0.02206,-0.055 0.03455,-0.1 0.03125,-0.1562 -0.0062,-0.1077 -0.08475,-0.2013 -0.1875,-0.2813 -0.102754,-0.08 -0.327086,-0.1627 -0.6875,-0.2187 -0.590299,-0.095 -0.989375,-0.2101 -1.25,-0.4063 C 31.358739,1030.0616 31.197291,1029.8279 31.15625,1029.5497 z m -11,0.25 c -0.267997,0.015 -0.504528,0.089 -0.65625,0.2813 -0.10946,0.1386 -0.139369,0.3612 -0.15625,0.625 0.03109,-0.158 0.0804,-0.3102 0.15625,-0.4063 0.151722,-0.192 0.388253,-0.2666 0.65625,-0.2812 0.279729,-0.015 0.483339,0.077 0.65625,0.25 0.164198,0.1603 0.282608,0.3962 0.3125,0.75 -0.0011,-0.057 0.0035,-0.095 0,-0.1563 -0.02274,-0.391 -0.137751,-0.6731 -0.3125,-0.8437 C 20.639589,1029.8459 20.435979,1029.7847 20.15625,1029.7997 z m 6.3125,0.2188 c -0.01703,0.097 -0.04778,0.1943 -0.09375,0.2812 -0.09206,0.1718 -0.234283,0.324 -0.40625,0.4375 -0.109616,0.072 -0.242457,0.1325 -0.4375,0.1875 0.130779,0.034 0.208497,0.056 0.28125,0.094 0.04932,-0.023 0.117506,-0.037 0.15625,-0.062 0.171967,-0.1135 0.314193,-0.2657 0.40625,-0.4375 C 26.453149,1030.3708 26.468966,1030.2038 26.46875,1030.0185 z m 4.46875,0.9375 c -0.01865,0.1681 -0.04808,0.3118 -0.09375,0.4375 -0.08951,0.2493 -0.230084,0.4799 -0.40625,0.6562 -0.176283,0.1745 -0.352468,0.309 -0.5625,0.375 -0.287078,0.092 -0.544557,0.112 -0.78125,0.125 l -2,0.125 0,0.2188 2,-0.125 c 0.236693,-0.013 0.494172,-0.033 0.78125,-0.125 0.210032,-0.066 0.386217,-0.2005 0.5625,-0.375 0.176166,-0.1763 0.316739,-0.407 0.40625,-0.6563 C 30.907187,1031.4377 30.927888,1031.2167 30.9375,1030.956 z m 4.0625,0.094 c -0.01365,0.2065 -0.07686,0.4089 -0.1875,0.5938 -0.139512,0.2331 -0.357951,0.3992 -0.625,0.5312 -0.267167,0.1302 -0.614589,0.228 -1.03125,0.25 -0.731608,0.04 -1.233745,-0.056 -1.53125,-0.3125 -0.246014,-0.2124 -0.415725,-0.4882 -0.5,-0.8125 l -0.03125,0 c 0.06155,0.4175 0.233745,0.7744 0.53125,1.0313 0.297505,0.2569 0.799642,0.3521 1.53125,0.3125 0.416661,-0.022 0.764083,-0.1198 1.03125,-0.25 0.267049,-0.132 0.485488,-0.2982 0.625,-0.5313 0.139497,-0.2331 0.202981,-0.4837 0.1875,-0.75 C 34.998732,1031.0904 35.00241,1031.0713 35,1031.0497 z m -17,0.031 c -6.85e-4,0.075 -0.0046,0.1396 0,0.2187 0.02823,0.4857 0.158644,0.9064 0.375,1.2188 0.216355,0.3122 0.486922,0.524 0.8125,0.6562 0.327531,0.1318 0.702369,0.182 1.1875,0.1563 0.477301,-0.026 0.878637,-0.1233 1.1875,-0.3125 0.310701,-0.1912 0.56853,-0.4624 0.71875,-0.7813 0.100174,-0.2114 0.133674,-0.4676 0.15625,-0.75 -0.0315,0.2013 -0.08022,0.3708 -0.15625,0.5313 -0.15022,0.3189 -0.408049,0.59 -0.71875,0.7812 -0.308863,0.1892 -0.710199,0.2865 -1.1875,0.3125 -0.485131,0.026 -0.859969,-0.024 -1.1875,-0.1562 -0.325578,-0.1322 -0.596145,-0.3441 -0.8125,-0.6563 C 18.158644,1031.9873 18.02823,1031.5667 18,1031.081 z m 6.15625,0.062 -0.15625,0.031 0,0.2188 0.03125,0 0.125,-0.031 c 0.121281,-0.01 0.212911,0 0.3125,0.062 0.07328,0.045 0.181708,0.1844 0.28125,0.3438 l 0.78125,1.2187 1.5,-0.062 -0.125,-0.2187 -1.375,0.062 -0.78125,-1.2188 c -0.09954,-0.1594 -0.20797,-0.2987 -0.28125,-0.3437 C 24.369161,1031.147 24.277531,1031.1335 24.15625,1031.1435 z m 12.125,1.0312 -1.1875,0.062 0,0.2188 1.1875,-0.062 L 36.28125,1032.1747 z m -12.1875,0.6875 -1.3125,0.031 0,0.2187 1.34375,-0.031 0,-0.2188 L 24.09375,1032.8622 Z"
         style="font-size:1.00904107px;font-style:normal;font-variant:normal;font-weight:bold;font-stretch:normal;fill:#000000;fill-opacity:0.23469083;stroke:none;font-family:Arial Black;-inkscape-font-specification:'Arial Black, Bold'" />
      <path
         style="font-size:1.00904107px;font-style:normal;font-variant:normal;font-weight:bold;font-stretch:normal;fill:#000000;fill-opacity:0.11791699;stroke:none;font-family:Arial Black;-inkscape-font-specification:'Arial Black, Bold'"
         d="m 33.75,1021.706 0.125,1.5 0.53125,2.9688 1.25,-0.062 0,-0.2188 -1.25,0.062 -0.53125,-2.9687 -0.09375,-1.2813 L 33.75,1021.706 z m -3.28125,1.2813 c -0.462939,0.025 -0.866446,0.2043 -1.125,0.5312 -0.221543,0.2807 -0.312672,0.7059 -0.3125,1.25 0.02525,-0.4414 0.120781,-0.7884 0.3125,-1.0312 0.258554,-0.3269 0.662061,-0.5065 1.125,-0.5313 0.31069,-0.017 0.543551,0.035 0.75,0.1563 0.209548,0.1212 0.370517,0.3179 0.46875,0.5625 l 2.03125,-0.4688 c -0.0248,-0.07 -0.06585,-0.1208 -0.09375,-0.1875 l -1.9375,0.4375 c -0.09823,-0.2446 -0.259202,-0.4413 -0.46875,-0.5625 C 31.012301,1023.0225 30.77944,1022.9703 30.46875,1022.9873 z m -5.5625,0.5312 -1.0625,5.0938 -1.5625,0.094 -1.625,-4.9375 0,0.2188 0,0.031 1.625,4.9063 1.5625,-0.094 1.0625,-5.0937 L 24.90625,1023.5185 z m -9.59375,0.375 c -0.425655,0.023 -0.75887,0.1639 -1,0.4688 -0.208976,0.2642 -0.309991,0.7077 -0.3125,1.25 0.02865,-0.4383 0.131655,-0.8026 0.3125,-1.0313 0.24113,-0.3049 0.574345,-0.4455 1,-0.4687 0.444291,-0.024 0.788039,0.1008 1.0625,0.375 0.277388,0.271 0.464244,0.7225 0.5,1.3437 -0.0011,-0.075 0.0046,-0.138 0,-0.2187 -0.03576,-0.6212 -0.222612,-1.0728 -0.5,-1.3438 C 16.100539,1023.9943 15.756791,1023.8695 15.3125,1023.8935 z m 11.59375,1.25 c 2.45e-4,0.077 -0.0045,0.14 0,0.2188 0.03938,0.6841 0.221226,1.2994 0.53125,1.8125 0.313129,0.513 0.756337,0.8854 1.28125,1.125 0.528015,0.2399 1.157832,0.325 1.96875,0.2812 0.658668,-0.035 1.248737,-0.1398 1.71875,-0.3125 0.472935,-0.1759 1.024159,-0.493 1.625,-0.9375 l 0,-0.2187 c -0.600841,0.4445 -1.152065,0.7616 -1.625,0.9375 -0.470013,0.1727 -1.060082,0.2775 -1.71875,0.3125 -0.810918,0.044 -1.440735,-0.041 -1.96875,-0.2813 -0.524913,-0.2396 -0.968121,-0.612 -1.28125,-1.125 C 27.127476,1026.4429 26.94563,1025.8276 26.90625,1025.1435 z m 5.1875,0.625 -1.4375,0.094 0,0.2187 1.4375,-0.094 L 32.09375,1025.7685 z m -20.1875,0.1875 c 0.0012,0.076 -0.0045,0.1402 0,0.2188 0.04439,0.7712 0.219163,1.4098 0.5625,1.9062 0.343335,0.4962 0.764277,0.8523 1.28125,1.0625 0.357677,0.1443 0.798056,0.2198 1.28125,0.25 l 0.125,0 0.625,-0.062 0.03125,0.062 c 0.712316,-0.05 1.280634,-0.2128 1.75,-0.5 0.493645,-0.3034 0.85487,-0.7436 1.09375,-1.25 0.147243,-0.3103 0.240365,-0.6595 0.28125,-1.0625 -0.04915,0.3165 -0.16035,0.5889 -0.28125,0.8438 -0.23888,0.5064 -0.600105,0.9466 -1.09375,1.25 -0.49072,0.3002 -1.085659,0.459 -1.84375,0.5 -0.770528,0.041 -1.448677,-0.04 -1.96875,-0.25 -0.516973,-0.2102 -0.937915,-0.5663 -1.28125,-1.0625 C 12.125413,1027.3659 11.95064,1026.7272 11.90625,1025.956 z m 24.1875,2 -1.875,0.094 0,0.2187 1.90625,-0.062 L 36.09375,1027.956 z m -9.1875,0.5 -1.71875,0.094 0,0.2187 1.71875,-0.094 L 26.90625,1028.456 z m -5.96875,0.3125 -1.71875,0.094 0,0.2187 0.875,-0.031 0.84375,-0.062 L 20.9375,1028.7685 z m 11.875,0.3438 c -0.154539,0.01 -0.26924,0.058 -0.34375,0.125 -0.07463,0.067 -0.09905,0.159 -0.09375,0.25 0.0019,0.033 0.01334,0.037 0.03125,0.062 0.01147,-0.041 0.02519,-0.06 0.0625,-0.094 0.07451,-0.067 0.189211,-0.1166 0.34375,-0.125 0.18779,-0.01 0.358177,0.047 0.46875,0.125 0.112528,0.079 0.20587,0.2211 0.25,0.4063 l 1.21875,-0.1563 c -0.01391,-0.074 -0.04224,-0.1516 -0.0625,-0.2187 l -1.15625,0.1562 c -0.04413,-0.1852 -0.137472,-0.3272 -0.25,-0.4062 C 33.170677,1029.1589 33.00029,1029.1023 32.8125,1029.1123 z m 2.03125,0.1562 0,0.2188 0.375,1.875 0.78125,-0.031 0.15625,-1.9375 0,-0.125 -0.15625,1.8435 -0.78125,0.031 L 34.84375,1029.2685 z m -16.75,0.1563 -0.65625,4 -1.3125,0.062 -0.90625,-2.5625 -0.59375,2.6562 -1.3125,0.062 -1.125,-3.9062 -0.0625,0 0,0.031 1.1875,4.0938 1.3125,-0.062 0.59375,-2.6563 0.90625,2.5625 1.3125,-0.062 0.6875,-4.2187 L 18.09375,1029.4248 z m 10.46875,0.1562 -0.3125,0.031 0,0.2187 0.3125,-0.031 c 0.344282,-0.018 0.591883,0.064 0.75,0.2187 0.158112,0.1545 0.255649,0.4347 0.28125,0.875 -3.95e-4,-0.072 0.0048,-0.1356 0,-0.2187 -0.0256,-0.4403 -0.123138,-0.7205 -0.28125,-0.875 C 29.154383,1029.645 28.906782,1029.563 28.5625,1029.581 z m -4.0625,0.125 -0.5625,0.031 0,0.2187 0.03125,0 0.53125,-0.031 c 0.242562,-0.013 0.407796,0.028 0.5,0.094 0.0656,0.048 0.13014,0.1078 0.15625,0.1875 0.01421,-0.04 0.0026,-0.08 0,-0.125 C 25.14845,1029.9471 25.0922,1029.867 25,1029.8 24.907796,1029.7338 24.742562,1029.693 24.5,1029.706 z m 6.65625,0.062 c -0.0029,0.042 -0.0025,0.083 0,0.125 0.01889,0.3249 0.174918,0.585 0.4375,0.7813 0.260625,0.1962 0.659701,0.3112 1.25,0.4062 0.360414,0.056 0.584746,0.139 0.6875,0.2188 0.08149,0.063 0.136103,0.1413 0.15625,0.2187 0.02206,-0.055 0.03455,-0.1 0.03125,-0.1562 -0.0062,-0.1077 -0.08475,-0.2013 -0.1875,-0.2813 -0.102754,-0.08 -0.327086,-0.1627 -0.6875,-0.2187 -0.590299,-0.095 -0.989375,-0.2101 -1.25,-0.4063 C 31.358739,1030.2804 31.197291,1030.0467 31.15625,1029.7685 z m -11,0.25 c -0.267997,0.015 -0.504528,0.089 -0.65625,0.2813 -0.10946,0.1386 -0.139369,0.3612 -0.15625,0.625 0.03109,-0.158 0.0804,-0.3102 0.15625,-0.4063 0.151722,-0.192 0.388253,-0.2666 0.65625,-0.2812 0.279729,-0.015 0.483339,0.077 0.65625,0.25 0.164198,0.1603 0.282608,0.3962 0.3125,0.75 -0.0011,-0.057 0.0035,-0.095 0,-0.1563 -0.02274,-0.391 -0.137751,-0.6731 -0.3125,-0.8437 C 20.639589,1030.0647 20.435979,1030.0035 20.15625,1030.0185 z m 6.3125,0.2188 c -0.01703,0.097 -0.04778,0.1943 -0.09375,0.2812 -0.09206,0.1718 -0.234283,0.324 -0.40625,0.4375 -0.109616,0.072 -0.242457,0.1325 -0.4375,0.1875 0.130779,0.034 0.208497,0.056 0.28125,0.094 0.04932,-0.023 0.117506,-0.037 0.15625,-0.062 0.171967,-0.1135 0.314193,-0.2657 0.40625,-0.4375 C 26.453149,1030.5896 26.468966,1030.4226 26.46875,1030.2373 z m 4.46875,0.9375 c -0.01865,0.1681 -0.04808,0.3118 -0.09375,0.4375 -0.08951,0.2493 -0.230084,0.4799 -0.40625,0.6562 -0.176283,0.1745 -0.352468,0.309 -0.5625,0.375 -0.287078,0.092 -0.544557,0.112 -0.78125,0.125 l -2,0.125 0,0.2188 2,-0.125 c 0.236693,-0.013 0.494172,-0.033 0.78125,-0.125 0.210032,-0.066 0.386217,-0.2005 0.5625,-0.375 0.176166,-0.1763 0.316739,-0.407 0.40625,-0.6563 C 30.907187,1031.6565 30.927888,1031.4355 30.9375,1031.1748 z m 4.0625,0.094 c -0.01365,0.2065 -0.07686,0.4089 -0.1875,0.5938 -0.139512,0.2331 -0.357951,0.3992 -0.625,0.5312 -0.267167,0.1302 -0.614589,0.228 -1.03125,0.25 -0.731608,0.04 -1.233745,-0.056 -1.53125,-0.3125 -0.246014,-0.2124 -0.415725,-0.4882 -0.5,-0.8125 l -0.03125,0 c 0.06155,0.4175 0.233745,0.7744 0.53125,1.0313 0.297505,0.2569 0.799642,0.3521 1.53125,0.3125 0.416661,-0.022 0.764083,-0.1198 1.03125,-0.25 0.267049,-0.132 0.485488,-0.2982 0.625,-0.5313 0.139497,-0.2331 0.202981,-0.4837 0.1875,-0.75 C 34.998732,1031.3092 35.00241,1031.2901 35,1031.2685 z m -17,0.031 c -6.85e-4,0.075 -0.0046,0.1396 0,0.2187 0.02823,0.4857 0.158644,0.9064 0.375,1.2188 0.216355,0.3122 0.486922,0.524 0.8125,0.6562 0.327531,0.1318 0.702369,0.182 1.1875,0.1563 0.477301,-0.026 0.878637,-0.1233 1.1875,-0.3125 0.310701,-0.1912 0.56853,-0.4624 0.71875,-0.7813 0.100174,-0.2114 0.133674,-0.4676 0.15625,-0.75 -0.0315,0.2013 -0.08022,0.3708 -0.15625,0.5313 -0.15022,0.3189 -0.408049,0.59 -0.71875,0.7812 -0.308863,0.1892 -0.710199,0.2865 -1.1875,0.3125 -0.485131,0.026 -0.859969,-0.024 -1.1875,-0.1562 -0.325578,-0.1322 -0.596145,-0.3441 -0.8125,-0.6563 C 18.158644,1032.2061 18.02823,1031.7855 18,1031.2998 z m 6.15625,0.062 -0.15625,0.031 0,0.2188 0.03125,0 0.125,-0.031 c 0.121281,-0.01 0.212911,0 0.3125,0.062 0.07328,0.045 0.181708,0.1844 0.28125,0.3438 l 0.78125,1.2187 1.5,-0.062 -0.125,-0.2187 -1.375,0.062 -0.78125,-1.2188 c -0.09954,-0.1594 -0.20797,-0.2987 -0.28125,-0.3437 C 24.369161,1031.3658 24.277531,1031.3523 24.15625,1031.3623 z m 12.125,1.0312 -1.1875,0.062 0,0.2188 1.1875,-0.062 L 36.28125,1032.3935 z m -12.1875,0.6875 -1.3125,0.031 0,0.2187 1.34375,-0.031 0,-0.2188 L 24.09375,1033.081 Z"
         id="path958"
         inkscape:connector-curvature="0" />
      <path
         inkscape:connector-curvature="0"
         id="path960"
         d="m 33.75,1021.9248 0.125,1.5 0.53125,2.9688 1.25,-0.062 0,-0.2188 -1.25,0.062 -0.53125,-2.9687 -0.09375,-1.2813 L 33.75,1021.9248 z m -3.28125,1.2813 c -0.462939,0.025 -0.866446,0.2043 -1.125,0.5312 -0.221543,0.2807 -0.312672,0.7059 -0.3125,1.25 0.02525,-0.4414 0.120781,-0.7884 0.3125,-1.0312 0.258554,-0.3269 0.662061,-0.5065 1.125,-0.5313 0.31069,-0.017 0.543551,0.035 0.75,0.1563 0.209548,0.1212 0.370517,0.3179 0.46875,0.5625 l 2.03125,-0.4688 c -0.0248,-0.07 -0.06585,-0.1208 -0.09375,-0.1875 l -1.9375,0.4375 c -0.09823,-0.2446 -0.259202,-0.4413 -0.46875,-0.5625 C 31.012301,1023.2413 30.77944,1023.1891 30.46875,1023.2061 z m -5.5625,0.5312 -1.0625,5.0938 -1.5625,0.094 -1.625,-4.9375 0,0.2188 0,0.031 1.625,4.9063 1.5625,-0.094 1.0625,-5.0937 L 24.90625,1023.7373 z m -9.59375,0.375 c -0.425655,0.023 -0.75887,0.1639 -1,0.4688 -0.208976,0.2642 -0.309991,0.7077 -0.3125,1.25 0.02865,-0.4383 0.131655,-0.8026 0.3125,-1.0313 0.24113,-0.3049 0.574345,-0.4455 1,-0.4687 0.444291,-0.024 0.788039,0.1008 1.0625,0.375 0.277388,0.271 0.464244,0.7225 0.5,1.3437 -0.0011,-0.075 0.0046,-0.138 0,-0.2187 -0.03576,-0.6212 -0.222612,-1.0728 -0.5,-1.3438 C 16.100539,1024.2131 15.756791,1024.0883 15.3125,1024.1123 z m 11.59375,1.25 c 2.45e-4,0.077 -0.0045,0.14 0,0.2188 0.03938,0.6841 0.221226,1.2994 0.53125,1.8125 0.313129,0.513 0.756337,0.8854 1.28125,1.125 0.528015,0.2399 1.157832,0.325 1.96875,0.2812 0.658668,-0.035 1.248737,-0.1398 1.71875,-0.3125 0.472935,-0.1759 1.024159,-0.493 1.625,-0.9375 l 0,-0.2187 c -0.600841,0.4445 -1.152065,0.7616 -1.625,0.9375 -0.470013,0.1727 -1.060082,0.2775 -1.71875,0.3125 -0.810918,0.044 -1.440735,-0.041 -1.96875,-0.2813 -0.524913,-0.2396 -0.968121,-0.612 -1.28125,-1.125 C 27.127476,1026.6617 26.94563,1026.0464 26.90625,1025.3623 z m 5.1875,0.625 -1.4375,0.094 0,0.2187 1.4375,-0.094 L 32.09375,1025.9873 z m -20.1875,0.1875 c 0.0012,0.076 -0.0045,0.1402 0,0.2188 0.04439,0.7712 0.219163,1.4098 0.5625,1.9062 0.343335,0.4962 0.764277,0.8523 1.28125,1.0625 0.357677,0.1443 0.798056,0.2198 1.28125,0.25 l 0.125,0 0.625,-0.062 0.03125,0.062 c 0.712316,-0.05 1.280634,-0.2128 1.75,-0.5 0.493645,-0.3034 0.85487,-0.7436 1.09375,-1.25 0.147243,-0.3103 0.240365,-0.6595 0.28125,-1.0625 -0.04915,0.3165 -0.16035,0.5889 -0.28125,0.8438 -0.23888,0.5064 -0.600105,0.9466 -1.09375,1.25 -0.49072,0.3002 -1.085659,0.459 -1.84375,0.5 -0.770528,0.041 -1.448677,-0.04 -1.96875,-0.25 -0.516973,-0.2102 -0.937915,-0.5663 -1.28125,-1.0625 C 12.125413,1027.5847 11.95064,1026.946 11.90625,1026.1748 z m 24.1875,2 -1.875,0.094 0,0.2187 1.90625,-0.062 L 36.09375,1028.1748 z m -9.1875,0.5 -1.71875,0.094 0,0.2187 1.71875,-0.094 L 26.90625,1028.6748 z m -5.96875,0.3125 -1.71875,0.094 0,0.2187 0.875,-0.031 0.84375,-0.062 L 20.9375,1028.9873 z m 11.875,0.3438 c -0.154539,0.01 -0.26924,0.058 -0.34375,0.125 -0.07463,0.067 -0.09905,0.159 -0.09375,0.25 0.0019,0.033 0.01334,0.037 0.03125,0.062 0.01147,-0.041 0.02519,-0.06 0.0625,-0.094 0.07451,-0.067 0.189211,-0.1166 0.34375,-0.125 0.18779,-0.01 0.358177,0.047 0.46875,0.125 0.112528,0.079 0.20587,0.2211 0.25,0.4063 l 1.21875,-0.1563 c -0.01391,-0.074 -0.04224,-0.1516 -0.0625,-0.2187 l -1.15625,0.1562 c -0.04413,-0.1852 -0.137472,-0.3272 -0.25,-0.4062 C 33.170677,1029.3777 33.00029,1029.3211 32.8125,1029.3311 z m 2.03125,0.1562 0,0.2188 0.375,1.875 0.78125,-0.031 0.15625,-1.9375 0,-0.125 -0.15625,1.8435 -0.78125,0.031 L 34.84375,1029.4873 z m -16.75,0.1563 -0.65625,4 -1.3125,0.062 -0.90625,-2.5625 -0.59375,2.6562 -1.3125,0.062 -1.125,-3.9062 -0.0625,0 0,0.031 1.1875,4.0938 1.3125,-0.062 0.59375,-2.6563 0.90625,2.5625 1.3125,-0.062 0.6875,-4.2187 L 18.09375,1029.6436 z m 10.46875,0.1562 -0.3125,0.031 0,0.2187 0.3125,-0.031 c 0.344282,-0.018 0.591883,0.064 0.75,0.2187 0.158112,0.1545 0.255649,0.4347 0.28125,0.875 -3.95e-4,-0.072 0.0048,-0.1356 0,-0.2187 -0.0256,-0.4403 -0.123138,-0.7205 -0.28125,-0.875 C 29.154383,1029.8638 28.906782,1029.7818 28.5625,1029.7998 z m -4.0625,0.125 -0.5625,0.031 0,0.2187 0.03125,0 0.53125,-0.031 c 0.242562,-0.013 0.407796,0.028 0.5,0.094 0.0656,0.048 0.13014,0.1078 0.15625,0.1875 0.01421,-0.04 0.0026,-0.08 0,-0.125 C 25.14845,1030.1659 25.0922,1030.0858 25,1030.0188 24.907796,1029.9526 24.742562,1029.9118 24.5,1029.9248 z m 6.65625,0.062 c -0.0029,0.042 -0.0025,0.083 0,0.125 0.01889,0.3249 0.174918,0.585 0.4375,0.7813 0.260625,0.1962 0.659701,0.3112 1.25,0.4062 0.360414,0.056 0.584746,0.139 0.6875,0.2188 0.08149,0.063 0.136103,0.1413 0.15625,0.2187 0.02206,-0.055 0.03455,-0.1 0.03125,-0.1562 -0.0062,-0.1077 -0.08475,-0.2013 -0.1875,-0.2813 -0.102754,-0.08 -0.327086,-0.1627 -0.6875,-0.2187 -0.590299,-0.095 -0.989375,-0.2101 -1.25,-0.4063 C 31.358739,1030.4992 31.197291,1030.2655 31.15625,1029.9873 z m -11,0.25 c -0.267997,0.015 -0.504528,0.089 -0.65625,0.2813 -0.10946,0.1386 -0.139369,0.3612 -0.15625,0.625 0.03109,-0.158 0.0804,-0.3102 0.15625,-0.4063 0.151722,-0.192 0.388253,-0.2666 0.65625,-0.2812 0.279729,-0.015 0.483339,0.077 0.65625,0.25 0.164198,0.1603 0.282608,0.3962 0.3125,0.75 -0.0011,-0.057 0.0035,-0.095 0,-0.1563 -0.02274,-0.391 -0.137751,-0.6731 -0.3125,-0.8437 C 20.639589,1030.2835 20.435979,1030.2223 20.15625,1030.2373 z m 6.3125,0.2188 c -0.01703,0.097 -0.04778,0.1943 -0.09375,0.2812 -0.09206,0.1718 -0.234283,0.324 -0.40625,0.4375 -0.109616,0.072 -0.242457,0.1325 -0.4375,0.1875 0.130779,0.034 0.208497,0.056 0.28125,0.094 0.04932,-0.023 0.117506,-0.037 0.15625,-0.062 0.171967,-0.1135 0.314193,-0.2657 0.40625,-0.4375 C 26.453149,1030.8084 26.468966,1030.6414 26.46875,1030.4561 z m 4.46875,0.9375 c -0.01865,0.1681 -0.04808,0.3118 -0.09375,0.4375 -0.08951,0.2493 -0.230084,0.4799 -0.40625,0.6562 -0.176283,0.1745 -0.352468,0.309 -0.5625,0.375 -0.287078,0.092 -0.544557,0.112 -0.78125,0.125 l -2,0.125 0,0.2188 2,-0.125 c 0.236693,-0.013 0.494172,-0.033 0.78125,-0.125 0.210032,-0.066 0.386217,-0.2005 0.5625,-0.375 0.176166,-0.1763 0.316739,-0.407 0.40625,-0.6563 C 30.907187,1031.8753 30.927888,1031.6543 30.9375,1031.3936 z m 4.0625,0.094 c -0.01365,0.2065 -0.07686,0.4089 -0.1875,0.5938 -0.139512,0.2331 -0.357951,0.3992 -0.625,0.5312 -0.267167,0.1302 -0.614589,0.228 -1.03125,0.25 -0.731608,0.04 -1.233745,-0.056 -1.53125,-0.3125 -0.246014,-0.2124 -0.415725,-0.4882 -0.5,-0.8125 l -0.03125,0 c 0.06155,0.4175 0.233745,0.7744 0.53125,1.0313 0.297505,0.2569 0.799642,0.3521 1.53125,0.3125 0.416661,-0.022 0.764083,-0.1198 1.03125,-0.25 0.267049,-0.132 0.485488,-0.2982 0.625,-0.5313 0.139497,-0.2331 0.202981,-0.4837 0.1875,-0.75 C 34.998732,1031.528 35.00241,1031.5089 35,1031.4873 z m -17,0.031 c -6.85e-4,0.075 -0.0046,0.1396 0,0.2187 0.02823,0.4857 0.158644,0.9064 0.375,1.2188 0.216355,0.3122 0.486922,0.524 0.8125,0.6562 0.327531,0.1318 0.702369,0.182 1.1875,0.1563 0.477301,-0.026 0.878637,-0.1233 1.1875,-0.3125 0.310701,-0.1912 0.56853,-0.4624 0.71875,-0.7813 0.100174,-0.2114 0.133674,-0.4676 0.15625,-0.75 -0.0315,0.2013 -0.08022,0.3708 -0.15625,0.5313 -0.15022,0.3189 -0.408049,0.59 -0.71875,0.7812 -0.308863,0.1892 -0.710199,0.2865 -1.1875,0.3125 -0.485131,0.026 -0.859969,-0.024 -1.1875,-0.1562 -0.325578,-0.1322 -0.596145,-0.3441 -0.8125,-0.6563 C 18.158644,1032.4249 18.02823,1032.0043 18,1031.5186 z m 6.15625,0.062 -0.15625,0.031 0,0.2188 0.03125,0 0.125,-0.031 c 0.121281,-0.01 0.212911,0 0.3125,0.062 0.07328,0.045 0.181708,0.1844 0.28125,0.3438 l 0.78125,1.2187 1.5,-0.062 -0.125,-0.2187 -1.375,0.062 -0.78125,-1.2188 c -0.09954,-0.1594 -0.20797,-0.2987 -0.28125,-0.3437 C 24.369161,1031.5846 24.277531,1031.5711 24.15625,1031.5811 z m 12.125,1.0312 -1.1875,0.062 0,0.2188 1.1875,-0.062 L 36.28125,1032.6123 z m -12.1875,0.6875 -1.3125,0.031 0,0.2187 1.34375,-0.031 0,-0.2188 L 24.09375,1033.2998 Z"
         style="font-size:1.00904107px;font-style:normal;font-variant:normal;font-weight:bold;font-stretch:normal;fill:#000000;fill-opacity:0.05882353;stroke:none;font-family:Arial Black;-inkscape-font-specification:'Arial Black, Bold'" />
      <path
         inkscape:connector-curvature="0"
         id="path2848"
         d="m 35.798015,1021.1497 -2.040323,0.1074 0.107385,1.5034 0.536927,2.9799 1.261779,-0.054 0.214771,-3.0336 L 35.798015,1021.1497 z m -5.396118,0.1611 c -0.782955,0.042 -1.401728,0.1915 -1.852399,0.4295 -0.577538,0.3079 -0.984935,0.738 -1.261779,1.2886 -0.27702,0.5477 -0.4173,1.1858 -0.375849,1.9061 0.03938,0.6841 0.226903,1.2856 0.536927,1.7987 0.313129,0.513 0.736866,0.8879 1.261779,1.1275 0.528015,0.2399 1.175712,0.3391 1.98663,0.2953 0.658668,-0.035 1.248155,-0.1494 1.718168,-0.3221 0.472935,-0.1759 1.00994,-0.4951 1.610781,-0.9396 l -0.161078,-2.792 -3.275256,0.1611 0.08054,1.3691 1.422858,-0.08 0.02685,0.6443 c -0.26737,0.1739 -0.514278,0.2985 -0.724852,0.3758 -0.210584,0.078 -0.435034,0.1214 -0.671158,0.1342 -0.497116,0.027 -0.884002,-0.1116 -1.18124,-0.4027 -0.294138,-0.2912 -0.468974,-0.7891 -0.510082,-1.5034 -0.03869,-0.6721 0.06653,-1.1796 0.322156,-1.5034 0.258554,-0.3269 0.637763,-0.512 1.100702,-0.5368 0.31069,-0.017 0.545249,0.04 0.751698,0.161 0.209548,0.1212 0.385001,0.3192 0.483234,0.5638 l 2.013477,-0.4564 c -0.148811,-0.4194 -0.353026,-0.7842 -0.617466,-1.047 -0.261517,-0.2659 -0.582936,-0.452 -0.966469,-0.5638 C 31.739625,1021.3023 31.156881,1021.2704 30.401897,1021.3108 z m -3.865876,0.3221 -2.765175,0.1611 -0.832238,4.0538 -1.315471,-3.9465 -2.765175,0.1611 0.375848,6.5774 1.718168,-0.08 -0.29531,-5.0203 1.637628,4.9397 1.557089,-0.08 1.047008,-5.1009 0.29531,5.0203 1.718167,-0.08 L 26.536021,1021.6329 z m -11.302317,0.51 c -1.109185,0.059 -1.96356,0.3867 -2.550405,1.0203 -0.586848,0.6335 -0.840549,1.4999 -0.778545,2.5772 0.04439,0.7712 0.220437,1.4097 0.563774,1.9061 0.343335,0.4962 0.771653,0.8368 1.288626,1.047 0.520073,0.2097 1.189256,0.3097 1.959784,0.2685 0.758091,-0.041 1.361678,-0.2099 1.852398,-0.5101 0.493645,-0.3034 0.861822,-0.7285 1.100702,-1.2349 0.241799,-0.5097 0.33969,-1.1349 0.29531,-1.9062 -0.06115,-1.0623 -0.397986,-1.8878 -1.047008,-2.443 C 17.269134,1022.3097 16.370841,1022.082 15.233704,1022.1429 z m 0.08053,1.5303 c 0.444291,-0.024 0.799394,0.1017 1.073855,0.3759 0.277388,0.271 0.447479,0.7211 0.483235,1.3423 0.04249,0.7382 -0.06317,1.2586 -0.29531,1.5571 -0.232152,0.2984 -0.566552,0.4583 -1.020162,0.4832 -0.441191,0.024 -0.799228,-0.099 -1.073854,-0.3758 -0.271527,-0.2774 -0.444894,-0.7566 -0.483235,-1.4229 -0.03869,-0.6722 0.08103,-1.1716 0.322156,-1.4765 C 14.562049,1023.8516 14.888587,1023.6964 15.314242,1023.6732 z m 20.698544,2.4431 -1.879245,0.1074 0.08054,1.6107 1.906092,-0.08 L 36.012786,1026.1163 z m 0.08053,1.906 -1.288626,0.08 0.0537,0.9397 0.349004,1.8792 0.80539,-0.027 0.134232,-1.9329 L 36.093325,1028.0223 z m -3.167871,0.1074 c -0.447964,0.024 -0.822012,0.091 -1.073854,0.2148 -0.249997,0.1216 -0.41892,0.2854 -0.536927,0.4832 -0.116167,0.1958 -0.173492,0.404 -0.161078,0.6175 0.01889,0.3249 0.166959,0.5823 0.429541,0.7786 0.260625,0.1962 0.67148,0.3345 1.261779,0.4295 0.360414,0.056 0.595252,0.1349 0.698006,0.2147 0.102747,0.08 0.154892,0.1608 0.161078,0.2685 0.0066,0.1133 -0.03562,0.2297 -0.134232,0.3222 -0.09678,0.091 -0.239796,0.1239 -0.429542,0.1342 -0.254302,0.014 -0.443909,-0.055 -0.59062,-0.2148 -0.09016,-0.099 -0.149008,-0.2326 -0.187924,-0.4295 l -1.261779,0.1342 c 0.06155,0.4175 0.239422,0.7633 0.536927,1.0202 0.297505,0.2569 0.798634,0.3617 1.530242,0.3221 0.416661,-0.022 0.752995,-0.1114 1.020162,-0.2416 0.267049,-0.132 0.477954,-0.3038 0.617466,-0.5369 0.139497,-0.2331 0.203406,-0.4854 0.187925,-0.7517 -0.01319,-0.2268 -0.0887,-0.4405 -0.214771,-0.6175 -0.124116,-0.1771 -0.304291,-0.3205 -0.563774,-0.4295 -0.25764,-0.1112 -0.67377,-0.2059 -1.261778,-0.2954 -0.237488,-0.034 -0.390608,-0.082 -0.456388,-0.1342 -0.06763,-0.049 -0.10352,-0.095 -0.107386,-0.161 -0.0053,-0.091 0.0059,-0.1746 0.08053,-0.2416 0.07451,-0.067 0.194464,-0.099 0.349003,-0.1074 0.18779,-0.01 0.345815,0.029 0.456388,0.1074 0.112528,0.079 0.197487,0.2174 0.241617,0.4026 l 1.234933,-0.161 c -0.07982,-0.4278 -0.262839,-0.732 -0.563773,-0.9128 C 33.888141,1028.1614 33.475134,1028.0997 32.925454,1028.1297 z m -4.080647,0.2953 -1.98663,0.1074 0.241617,4.1343 1.986631,-0.1074 c 0.236693,-0.013 0.491466,-0.042 0.778544,-0.1342 0.210032,-0.066 0.387491,-0.2013 0.563774,-0.3758 0.176166,-0.1763 0.313184,-0.395 0.402695,-0.6443 0.09135,-0.2514 0.133193,-0.5761 0.107386,-1.0202 -0.01648,-0.2833 -0.07594,-0.5561 -0.161079,-0.8054 -0.08515,-0.2494 -0.208265,-0.4619 -0.375848,-0.6443 -0.167591,-0.1823 -0.37093,-0.3406 -0.617467,-0.4295 C 29.539842,1028.4165 29.234082,1028.4044 28.844808,1028.425 z m -4.080646,0.2148 -2.228248,0.1074 0.241617,4.1612 1.342318,-0.054 -0.107385,-1.6914 0.134231,-0.027 c 0.121281,-0.01 0.222568,0.021 0.322157,0.08 0.07328,0.045 0.168921,0.1628 0.268463,0.3222 l 0.778545,1.2349 1.503396,-0.08 -0.724852,-1.1812 c -0.03481,-0.059 -0.08755,-0.1353 -0.187924,-0.2417 -0.09842,-0.1065 -0.190743,-0.1838 -0.241618,-0.2148 -0.07535,-0.047 -0.18759,-0.092 -0.349002,-0.1342 0.195043,-0.055 0.346772,-0.1158 0.456388,-0.1879 0.171967,-0.1135 0.310638,-0.2577 0.402695,-0.4295 0.09194,-0.1738 0.120779,-0.3601 0.107386,-0.5907 -0.01538,-0.2644 -0.09795,-0.4951 -0.241617,-0.6711 -0.143788,-0.178 -0.315842,-0.2923 -0.536928,-0.349 C 25.482693,1028.6342 25.174953,1028.6174 24.764161,1028.6398 z m -4.671267,0.1879 c -0.698353,0.038 -1.241518,0.2453 -1.610782,0.6443 -0.369264,0.3992 -0.522674,0.9326 -0.483234,1.6108 0.02823,0.4857 0.159493,0.8957 0.375849,1.2081 0.216355,0.3122 0.479813,0.539 0.805391,0.6712 0.327531,0.1318 0.722955,0.1868 1.208086,0.1611 0.477301,-0.026 0.872377,-0.133 1.18124,-0.3222 0.310701,-0.1912 0.547785,-0.4596 0.698005,-0.7785 0.152064,-0.321 0.216154,-0.7226 0.187925,-1.2082 -0.03889,-0.6688 -0.262314,-1.1809 -0.671159,-1.5302 C 21.375251,1028.9329 20.808848,1028.7891 20.092894,1028.8277 z m -1.959784,0.1611 -1.261779,0.08 -0.322157,2.3356 -0.778544,-2.2819 -1.261779,0.08 -0.536927,2.3356 -0.59062,-2.2819 -1.261779,0.054 0,0.027 1.208086,4.0806 1.288625,-0.054 0.59062,-2.6578 0.912777,2.5772 1.315471,-0.08 L 18.13311,1028.9888 z m 10.443234,0.3758 c 0.344282,-0.018 0.593581,0.06 0.751698,0.2148 0.158112,0.1545 0.242863,0.4457 0.268464,0.886 0.01933,0.3325 0.0042,0.572 -0.0537,0.7248 -0.05795,0.151 -0.127759,0.256 -0.241617,0.3222 -0.113969,0.065 -0.312847,0.1188 -0.59062,0.1342 l -0.349002,0.027 -0.107386,-2.282 L 28.576344,1029.3646 z m -4.080647,0.1342 c 0.242562,-0.013 0.417877,0.014 0.510081,0.08 0.0922,0.067 0.153261,0.1612 0.161078,0.2953 0.0053,0.091 -0.02787,0.1686 -0.08054,0.2417 -0.05071,0.073 -0.127734,0.1396 -0.214771,0.161 -0.171905,0.047 -0.28836,0.054 -0.349003,0.054 l -0.536927,0.027 -0.0537,-0.8322 L 24.495698,1029.4988 z m -4.34911,0.2954 c 0.279729,-0.015 0.498248,0.069 0.671159,0.2416 0.174749,0.1706 0.27257,0.4412 0.29531,0.8322 0.02701,0.4649 -0.01503,0.8054 -0.161078,0.9934 -0.146062,0.188 -0.358716,0.2798 -0.644313,0.2953 -0.277778,0.015 -0.52499,-0.068 -0.698005,-0.2416 -0.171061,-0.1747 -0.27093,-0.4665 -0.29531,-0.886 -0.0246,-0.4233 0.03622,-0.7475 0.187924,-0.9396 C 19.653979,1029.8975 19.87859,1029.8088 20.146587,1029.7942 z m 16.08097,1.3691 -1.18124,0.054 0.0537,1.0203 1.18124,-0.054 L 36.227557,1031.1633 Z"
         style="font-size:1.00904107px;font-style:normal;font-variant:normal;font-weight:bold;font-stretch:normal;fill:#ffffff;fill-opacity:1;stroke:none;font-family:Arial Black;-inkscape-font-specification:'Arial Black, Bold'" />
    </g>
  </g>
</svg>
