<?xml version="1.0" encoding="UTF-8" standalone="no"?>
<!-- Created with Inkscape (http://www.inkscape.org/) -->

<svg
   xmlns:dc="http://purl.org/dc/elements/1.1/"
   xmlns:cc="http://creativecommons.org/ns#"
   xmlns:rdf="http://www.w3.org/1999/02/22-rdf-syntax-ns#"
   xmlns:svg="http://www.w3.org/2000/svg"
   xmlns="http://www.w3.org/2000/svg"
   xmlns:xlink="http://www.w3.org/1999/xlink"
   xmlns:sodipodi="http://sodipodi.sourceforge.net/DTD/sodipodi-0.dtd"
   xmlns:inkscape="http://www.inkscape.org/namespaces/inkscape"
   width="48"
   height="48"
   id="svg2"
   version="1.1"
   inkscape:version="0.48+devel r12149"
   sodipodi:docname="onboard.svg">
  <defs
     id="defs4">
    <linearGradient
       id="linearGradient861-4">
      <stop
         style="stop-color:#ffffff;stop-opacity:1"
         offset="0"
         id="stop863-9" />
      <stop
         style="stop-color:#cccccc;stop-opacity:1"
         offset="1"
         id="stop865-0" />
    </linearGradient>
    <linearGradient
       inkscape:collect="always"
       xlink:href="#linearGradient848"
       id="linearGradient854"
       x1="27.577164"
       y1="-1052.8926"
       x2="27.577164"
       y2="-1005.3396"
       gradientUnits="userSpaceOnUse" />
    <linearGradient
       inkscape:collect="always"
       id="linearGradient848">
      <stop
         style="stop-color:#3a3e3f;stop-opacity:1"
         offset="0"
         id="stop850" />
      <stop
         style="stop-color:#494d4f;stop-opacity:1"
         offset="1"
         id="stop852" />
    </linearGradient>
    <linearGradient
       id="linearGradient860"
       inkscape:collect="always">
      <stop
         id="stop862"
         offset="0"
         style="stop-color:#131515;stop-opacity:1" />
      <stop
         id="stop864"
         offset="1"
         style="stop-color:#383c40;stop-opacity:1" />
    </linearGradient>
    <linearGradient
       inkscape:collect="always"
       xlink:href="#linearGradient877"
       id="linearGradient883"
       x1="3.5624998"
       y1="24.750002"
       x2="9.062499"
       y2="24.750002"
       gradientUnits="userSpaceOnUse"
       gradientTransform="matrix(0.90634487,0,0,0.90634487,2.299244,1004.2325)" />
    <linearGradient
       inkscape:collect="always"
       id="linearGradient877">
      <stop
         style="stop-color:#ffffff;stop-opacity:1;"
         offset="0"
         id="stop879" />
      <stop
         style="stop-color:#ffffff;stop-opacity:0;"
         offset="1"
         id="stop881" />
    </linearGradient>
    <linearGradient
       inkscape:collect="always"
       xlink:href="#linearGradient877"
       id="linearGradient887"
       gradientUnits="userSpaceOnUse"
       x1="3.5624998"
       y1="24.750002"
       x2="9.062499"
       y2="24.750002"
       gradientTransform="matrix(0,0.90634487,-0.90634487,0,45.752278,1006.6615)" />
    <linearGradient
       inkscape:collect="always"
       xlink:href="#linearGradient897"
       id="linearGradient893"
       gradientUnits="userSpaceOnUse"
       x1="3.5624998"
       y1="24.750002"
       x2="9.062499"
       y2="24.750002"
       gradientTransform="matrix(-0.90634487,0,0,-0.90634487,45.700758,1050.0629)" />
    <linearGradient
       id="linearGradient897"
       inkscape:collect="always">
      <stop
         id="stop899"
         offset="0"
         style="stop-color:#000000;stop-opacity:1" />
      <stop
         id="stop901"
         offset="1"
         style="stop-color:#000000;stop-opacity:0" />
    </linearGradient>
    <linearGradient
       inkscape:collect="always"
       xlink:href="#linearGradient897"
       id="linearGradient895"
       gradientUnits="userSpaceOnUse"
       gradientTransform="matrix(0,-0.90634487,0.90634487,0,2.196204,1050.0629)"
       x1="3.5624998"
       y1="24.750002"
       x2="9.062499"
       y2="24.750002" />
    <linearGradient
       inkscape:collect="always"
       xlink:href="#linearGradient848"
       id="linearGradient921"
       x1="25.249998"
       y1="1050.7587"
       x2="25.249998"
       y2="1006.0818"
       gradientUnits="userSpaceOnUse" />
    <linearGradient
       inkscape:collect="always"
       xlink:href="#linearGradient860"
       id="linearGradient947"
       x1="-24.606674"
       y1="1032.7521"
       x2="-24.606674"
       y2="1003.9146"
       gradientUnits="userSpaceOnUse"
       gradientTransform="matrix(0.98634812,0,0,0.98634812,48.455688,23.974141)" />
  </defs>
  <sodipodi:namedview
     id="base"
     pagecolor="#ffffff"
     bordercolor="#666666"
     borderopacity="1.0"
     inkscape:pageopacity="0.0"
     inkscape:pageshadow="2"
     inkscape:zoom="8.0000004"
     inkscape:cx="21.702192"
     inkscape:cy="37.693994"
     inkscape:document-units="px"
     inkscape:current-layer="layer1"
     showgrid="false"
     inkscape:window-width="1366"
     inkscape:window-height="714"
     inkscape:window-x="0"
     inkscape:window-y="30"
     inkscape:window-maximized="1">
    <inkscape:grid
       type="xygrid"
       id="grid3850" />
  </sodipodi:namedview>
  <metadata
     id="metadata7">
    <rdf:RDF>
      <cc:Work
         rdf:about="">
        <dc:format>image/svg+xml</dc:format>
        <dc:type
           rdf:resource="http://purl.org/dc/dcmitype/StillImage" />
        <dc:title />
      </cc:Work>
    </rdf:RDF>
  </metadata>
  <g
     inkscape:label="Capa 1"
     inkscape:groupmode="layer"
     id="layer1"
     transform="translate(0,-1004.3622)">
    <rect
       style="color:#000000;fill:#333333;fill-opacity:1;fill-rule:nonzero;stroke:none;stroke-width:0.2;marker:none;visibility:visible;display:inline;overflow:visible;enable-background:accumulate"
       id="rect6294"
       width="45.5"
       height="45.5"
       x="1.25"
       y="1005.6122"
       ry="6.3565426" />
    <rect
       ry="5.8565426"
       y="1006.1122"
       x="1.75"
       height="44.5"
       width="44.5"
       id="rect6296"
       style="color:#000000;fill:url(#linearGradient921);fill-opacity:1.0;fill-rule:nonzero;stroke:none;stroke-width:0.2;marker:none;visibility:visible;display:inline;overflow:visible;enable-background:accumulate" />
    <path
       id="path6361"
       d="m 1.7500002,1012.5497 0,-0.5625 c 0,-3.2445 2.5992247,-5.875 5.8437497,-5.875 l 32.8125001,0 c 3.244525,0 5.84375,2.6305 5.84375,5.875 l 0,0.5625 c 0,-3.2445 -2.599225,-5.875 -5.84375,-5.875 l -32.8125001,0 C 4.3492249,1006.6747 1.7500002,1009.3052 1.7500002,1012.5497 Z"
       style="color:#000000;fill:#ffffff;fill-opacity:1;fill-rule:nonzero;stroke:none;stroke-width:0.2;marker:none;visibility:visible;display:inline;overflow:visible;enable-background:accumulate"
       inkscape:connector-curvature="0" />
    <path
       inkscape:connector-curvature="0"
       style="color:#000000;fill:#000000;fill-opacity:1;fill-rule:nonzero;stroke:none;stroke-width:0.2;marker:none;visibility:visible;display:inline;overflow:visible;enable-background:accumulate"
       d="m 1.7500002,1044.1747 0,0.5625 c 0,3.2445 2.5992247,5.875 5.8437497,5.875 l 32.8125001,0 c 3.244525,0 5.84375,-2.6305 5.84375,-5.875 l 0,-0.5625 c 0,3.2445 -2.599225,5.875 -5.84375,5.875 l -32.8125001,0 C 4.3492249,1050.0497 1.7500002,1047.4192 1.7500002,1044.1747 Z"
       id="path6388" />
    <g
       id="g969">
      <g
         id="g961">
        <rect
           style="color:#000000;fill:#000000;fill-opacity:0.60392157;fill-rule:nonzero;stroke:none;stroke-width:0.2;marker:none;visibility:visible;display:inline;overflow:visible;enable-background:accumulate"
           id="rect935"
           width="30"
           height="30"
           x="9"
           y="1013.3622"
           ry="3.9482305" />
        <rect
           ry="3.8034627"
           y="1013.9122"
           x="9.5500031"
           height="28.899996"
           width="28.899996"
           id="rect939"
           style="color:#000000;fill:url(#linearGradient947);fill-opacity:1;fill-rule:nonzero;stroke:none;stroke-width:0.2;marker:none;visibility:visible;display:inline;overflow:visible;enable-background:accumulate" />
        <path
           style="fill:url(#linearGradient883);fill-opacity:1;stroke:none"
           d="m 11.369175,1014.4535 c -1.096225,0.666 -1.8125,1.8684 -1.8125,3.25 l 0,21.3125 c 0,0.1753 0.0085,0.3312 0.03125,0.5 0.09308,0.5515 0.543138,0.9688 1.125,0.9688 l 1.8125,0 c -0.650923,0 -1.15625,-0.5053 -1.15625,-1.1563 L 11.369175,1014.4535 Z"
           id="rect872"
           inkscape:connector-curvature="0" />
        <path
           style="fill:url(#linearGradient887);fill-opacity:1;stroke:none"
           d="m 13.337925,1013.9223 c -1.468229,0 -2.709323,0.8189 -3.34375,2.0312 0.190476,-0.1365 0.399085,-0.2187 0.65625,-0.2187 l 26.6875,0 c 0.252711,0 0.467557,0.087 0.65625,0.2187 -0.635393,-1.2092 -1.877766,-2.0312 -3.34375,-2.0312 L 13.337925,1013.9223 Z"
           id="path885"
           inkscape:connector-curvature="0" />
        <path
           style="fill:url(#linearGradient893);fill-opacity:1;stroke:none"
           d="m 36.462925,1014.391 c 0.101505,0.1732 0.1875,0.3747 0.1875,0.5938 l 0,26.6562 c 0,0.2848 -0.116851,0.55 -0.28125,0.75 1.229615,-0.6288 2.09375,-1.894 2.09375,-3.375 l 0,-21.3125 C 38.462925,1016.2624 37.638648,1015.0366 36.462925,1014.391 Z"
           id="path889"
           inkscape:connector-curvature="0" />
        <path
           style="fill:url(#linearGradient895);fill-opacity:1;stroke:none"
           d="m 38.025425,1040.7348 c -0.199996,0.1644 -0.465221,0.25 -0.75,0.25 l -26.65625,0 c -0.203413,0 -0.397829,-0.037 -0.5625,-0.125 0.650145,1.1595 1.852192,1.9375 3.28125,1.9375 l 21.3125,0 C 36.131407,1042.7973 37.396636,1041.9644 38.025425,1040.7348 Z"
           id="path891"
           inkscape:connector-curvature="0" />
      </g>
      <g
         transform="matrix(0.90634487,0,0,0.90634487,2.2477231,96.311359)"
         id="g925">
        <g
           style="font-size:21.14264107px;font-style:normal;font-variant:normal;font-weight:normal;font-stretch:normal;text-align:start;line-height:125%;letter-spacing:0px;word-spacing:0px;writing-mode:lr-tb;text-anchor:start;fill:#ffffff;fill-opacity:1;stroke:none;font-family:Helvetica Neue;-inkscape-font-specification:Helvetica Neue"
           id="text903"
           transform="translate(-0.077958,2.4276826)">
          <path
             d="m 16.847175,1025.9345 c 0,4.1017 2.431404,7.9073 7.230783,7.9073 4.79938,0 7.230783,-3.8056 7.230783,-7.9073 0,-4.1017 -2.431403,-7.9073 -7.230783,-7.9073 C 19.278579,1018.0272 16.847175,1021.8328 16.847175,1025.9345 z m 2.008551,0 c 0,-3.0445 1.543413,-6.2159 5.222232,-6.2159 3.67882,0 5.222233,3.1714 5.222233,6.2159 0,3.0445 -1.543413,6.2159 -5.222233,6.2159 C 20.399139,1032.1504 18.855726,1028.979 18.855726,1025.9345 Z"
             id="path908"
             inkscape:connector-curvature="0" />
        </g>
        <path
           style="font-size:21.14264107px;font-style:normal;font-variant:normal;font-weight:normal;font-stretch:normal;text-align:start;line-height:125%;letter-spacing:0px;word-spacing:0px;writing-mode:lr-tb;text-anchor:start;fill:#000000;fill-opacity:0.27606572;stroke:none;font-family:Helvetica Neue;-inkscape-font-specification:Helvetica Neue"
           d="m 24,1022.1474 c -3.678819,0 -5.21875,3.1742 -5.21875,6.2187 0,0.051 -8.78e-4,0.1049 0,0.1563 0.05128,-2.9965 1.601892,-6.0625 5.21875,-6.0625 3.616859,0 5.16747,3.066 5.21875,6.0625 8.78e-4,-0.051 0,-0.105 0,-0.1563 C 29.21875,1025.3216 27.67882,1022.1474 24,1022.1474 z m -7.1875,6.9687 c 0.170948,3.9267 2.563315,7.4688 7.1875,7.4688 4.624186,0 7.016552,-3.5421 7.1875,-7.4688 -0.284698,3.7978 -2.688081,7.1563 -7.1875,7.1563 C 19.500582,1036.2724 17.097198,1032.9139 16.8125,1029.1161 Z"
           id="path912"
           inkscape:connector-curvature="0" />
        <path
           inkscape:connector-curvature="0"
           id="path921"
           d="m 24,1022.456 c -3.678819,0 -5.21875,3.1742 -5.21875,6.2187 0,0.051 -8.78e-4,0.1049 0,0.1563 0.05128,-2.9965 1.601892,-6.0625 5.21875,-6.0625 3.616859,0 5.16747,3.066 5.21875,6.0625 8.78e-4,-0.051 0,-0.105 0,-0.1563 C 29.21875,1025.6302 27.67882,1022.456 24,1022.456 z m -7.1875,6.9687 c 0.170948,3.9267 2.563315,7.4688 7.1875,7.4688 4.624186,0 7.016552,-3.5421 7.1875,-7.4688 -0.284698,3.7978 -2.688081,7.1563 -7.1875,7.1563 C 19.500582,1036.581 17.097198,1033.2225 16.8125,1029.4247 Z"
           style="font-size:21.14264107px;font-style:normal;font-variant:normal;font-weight:normal;font-stretch:normal;text-align:start;line-height:125%;letter-spacing:0px;word-spacing:0px;writing-mode:lr-tb;text-anchor:start;fill:#000000;fill-opacity:0.15789472;stroke:none;font-family:Helvetica Neue;-inkscape-font-specification:Helvetica Neue" />
        <path
           style="font-size:21.14264107px;font-style:normal;font-variant:normal;font-weight:normal;font-stretch:normal;text-align:start;line-height:125%;letter-spacing:0px;word-spacing:0px;writing-mode:lr-tb;text-anchor:start;fill:#000000;fill-opacity:0.03921569;stroke:none;font-family:Helvetica Neue;-inkscape-font-specification:Helvetica Neue"
           d="m 24,1022.7685 c -3.678819,0 -5.21875,3.1742 -5.21875,6.2187 0,0.051 -8.78e-4,0.1049 0,0.1563 0.05128,-2.9965 1.601892,-6.0625 5.21875,-6.0625 3.616859,0 5.16747,3.066 5.21875,6.0625 8.78e-4,-0.051 0,-0.105 0,-0.1563 C 29.21875,1025.9427 27.67882,1022.7685 24,1022.7685 z m -7.1875,6.9687 c 0.170948,3.9267 2.563315,7.4688 7.1875,7.4688 4.624186,0 7.016552,-3.5421 7.1875,-7.4688 -0.284698,3.7978 -2.688081,7.1563 -7.1875,7.1563 C 19.500582,1036.8935 17.097198,1033.535 16.8125,1029.7372 Z"
           id="path923"
           inkscape:connector-curvature="0" />
      </g>
    </g>
  </g>
</svg>
