<?xml version="1.0" encoding="UTF-8" standalone="no"?>
<!-- Created with Inkscape (http://www.inkscape.org/) -->

<svg
   xmlns:dc="http://purl.org/dc/elements/1.1/"
   xmlns:cc="http://creativecommons.org/ns#"
   xmlns:rdf="http://www.w3.org/1999/02/22-rdf-syntax-ns#"
   xmlns:svg="http://www.w3.org/2000/svg"
   xmlns="http://www.w3.org/2000/svg"
   xmlns:xlink="http://www.w3.org/1999/xlink"
   xmlns:sodipodi="http://sodipodi.sourceforge.net/DTD/sodipodi-0.dtd"
   xmlns:inkscape="http://www.inkscape.org/namespaces/inkscape"
   width="48"
   height="48"
   id="svg2"
   version="1.1"
   inkscape:version="0.48+devel r12064"
   sodipodi:docname="opera-widget.svg">
  <defs
     id="defs4">
    <linearGradient
       inkscape:collect="always"
       id="linearGradient835">
      <stop
         style="stop-color:#e6e6e6;stop-opacity:1"
         offset="0"
         id="stop837" />
      <stop
         style="stop-color:#f9f9f9;stop-opacity:1"
         offset="1"
         id="stop839" />
    </linearGradient>
    <linearGradient
       gradientTransform="translate(34.513083,-4.4666933)"
       inkscape:collect="always"
       xlink:href="#linearGradient3708"
       id="linearGradient847-7"
       x1="28.03096"
       y1="1044.0826"
       x2="28.03096"
       y2="1012.629"
       gradientUnits="userSpaceOnUse" />
    <linearGradient
       id="linearGradient3708">
      <stop
         id="stop3710"
         offset="0"
         style="stop-color:#3d5e80;stop-opacity:1" />
      <stop
         id="stop3712"
         offset="1"
         style="stop-color:#729dc7;stop-opacity:1" />
    </linearGradient>
    <linearGradient
       inkscape:collect="always"
       xlink:href="#linearGradient835"
       id="linearGradient888"
       x1="24.554192"
       y1="1050.4592"
       x2="24.554192"
       y2="1005.9116"
       gradientUnits="userSpaceOnUse" />
  </defs>
  <sodipodi:namedview
     id="base"
     pagecolor="#ffffff"
     bordercolor="#666666"
     borderopacity="1.0"
     inkscape:pageopacity="0.0"
     inkscape:pageshadow="2"
     inkscape:zoom="5.6568545"
     inkscape:cx="15.22485"
     inkscape:cy="26.802664"
     inkscape:document-units="px"
     inkscape:current-layer="layer1"
     showgrid="false"
     inkscape:window-width="1366"
     inkscape:window-height="718"
     inkscape:window-x="0"
     inkscape:window-y="28"
     inkscape:window-maximized="1" />
  <metadata
     id="metadata7">
    <rdf:RDF>
      <cc:Work
         rdf:about="">
        <dc:format>image/svg+xml</dc:format>
        <dc:type
           rdf:resource="http://purl.org/dc/dcmitype/StillImage" />
        <dc:title />
      </cc:Work>
    </rdf:RDF>
  </metadata>
  <g
     inkscape:label="Capa 1"
     inkscape:groupmode="layer"
     id="layer1"
     transform="translate(0,-1004.3622)">
    <rect
       style="color:#000000;fill:#333333;fill-opacity:1;fill-rule:nonzero;stroke:none;stroke-width:0.2;marker:none;visibility:visible;display:inline;overflow:visible;enable-background:accumulate"
       id="rect6294"
       width="45.5"
       height="45.5"
       x="1.2499995"
       y="1005.6122"
       ry="6.3565426" />
    <rect
       ry="5.8565426"
       y="1006.1122"
       x="1.7499995"
       height="44.5"
       width="44.5"
       id="rect6296"
       style="color:#000000;fill:url(#linearGradient888);fill-opacity:1;fill-rule:nonzero;stroke:none;stroke-width:0.2;marker:none;visibility:visible;display:inline;overflow:visible;enable-background:accumulate" />
    <path
       id="path6361"
       d="m 1.75,1012.5497 0,-0.5625 c 0,-3.2445 2.599225,-5.875 5.84375,-5.875 l 32.8125,0 c 3.244525,0 5.84375,2.6305 5.84375,5.875 l 0,0.5625 c 0,-3.2445 -2.599225,-5.875 -5.84375,-5.875 l -32.8125,0 C 4.349225,1006.6747 1.75,1009.3052 1.75,1012.5497 Z"
       style="color:#000000;fill:#ffffff;fill-opacity:1;fill-rule:nonzero;stroke:none;stroke-width:0.2;marker:none;visibility:visible;display:inline;overflow:visible;enable-background:accumulate"
       inkscape:connector-curvature="0" />
    <path
       inkscape:connector-curvature="0"
       style="color:#000000;fill:#000000;fill-opacity:1;fill-rule:nonzero;stroke:none;stroke-width:0.2;marker:none;visibility:visible;display:inline;overflow:visible;enable-background:accumulate"
       d="m 1.75,1044.1747 0,0.5625 c 0,3.2445 2.599225,5.875 5.84375,5.875 l 32.8125,0 c 3.244525,0 5.84375,-2.6305 5.84375,-5.875 l 0,-0.5625 c 0,3.2445 -2.599225,5.875 -5.84375,5.875 l -32.8125,0 C 4.349225,1050.0497 1.75,1047.4192 1.75,1044.1747 Z"
       id="path6388" />
    <g
       id="g846"
       transform="matrix(0.91691525,0,0,0.91691525,-29.651539,89.207446)">
      <path
         inkscape:connector-curvature="0"
         id="path824"
         d="m 58.513083,1009.4264 c -5.481165,0 -6.423486,5.42 -6.53125,12.375 0.209949,-6.3526 1.37728,-11.125 6.53125,-11.125 5.242766,0 6.339339,4.7724 6.53125,11.125 C 64.94832,1014.8464 64.088682,1009.4264 58.513083,1009.4264 z m -13.0625,14.5625 c -0.0065,0.2064 -0.03125,0.4167 -0.03125,0.625 0,8.8277 5.861164,16 13.09375,16 7.232585,0 13.09375,-7.1723 13.09375,-16 0,-0.2083 -0.02477,-0.4186 -0.03125,-0.625 -0.273213,8.5352 -6.003852,15.375 -13.0625,15.375 C 51.454434,1039.3639 45.723796,1032.5241 45.450583,1023.9889 Z"
         style="fill:#ffffff;fill-opacity:0.99438201;fill-rule:nonzero;stroke:none;display:inline" />
      <path
         d="m 58.513083,1007.8955 c -7.232591,0 -13.107189,7.1596 -13.107189,15.9871 0,8.8277 5.874603,16.0129 13.107189,16.0129 7.232585,0 13.10719,-7.1852 13.10719,-16.0129 C 71.620273,1015.0551 65.745668,1007.8955 58.513083,1007.8955 z m 0,2.048 c 5.991733,0 6.566391,6.239 6.566391,13.9391 6e-6,7.7003 -0.796458,13.9521 -6.566391,13.9521 -5.871726,0 -6.566397,-6.2518 -6.566397,-13.9521 C 51.946686,1016.1825 52.622832,1009.9435 58.513083,1009.9435 Z"
         inkscape:connector-curvature="0"
         id="path3539-3"
         style="fill:url(#linearGradient847-7);fill-opacity:1;fill-rule:nonzero;stroke:none;display:inline" />
      <path
         sodipodi:nodetypes="sscscss"
         inkscape:connector-curvature="0"
         id="path831"
         d="m 58.513083,1007.8955 c -7.232591,0 -13.09375,7.1725 -13.09375,16 0,0.1593 0.02745,0.3105 0.03125,0.4687 0.216119,-8.597 5.9665,-15.5 13.0625,-15.5 7.095994,0 12.846381,6.903 13.0625,15.5 0.0038,-0.1582 0.03125,-0.3094 0.03125,-0.4687 C 71.606833,1015.068 65.745668,1007.8955 58.513083,1007.8955 Z"
         style="fill:#000000;fill-opacity:0.35393258;fill-rule:nonzero;stroke:none;display:inline" />
    </g>
    <g
       id="g908"
       transform="matrix(0.4868806,0,0,0.4868806,46.11009,547.22135)">
      <path
         sodipodi:nodetypes="ssssssssscsssscccsccccssccsssssccssscsscssccsssscsss"
         inkscape:connector-curvature="0"
         id="path866"
         d="m -22.893251,1026.8282 c 0.03092,-0.1481 1.254738,-1.0662 1.674087,-1.2558 0.228162,-0.1032 0.537568,-0.1621 0.687531,-0.1308 0.373364,0.078 0.904141,0.6986 1.353137,1.5821 0.426986,0.8402 0.410184,0.8347 1.674985,0.5588 0.634551,-0.1385 0.725486,-0.1896 0.718794,-0.4049 -0.02005,-0.6436 0.17303,-1.7693 0.370252,-2.1587 0.341263,-0.6737 0.583754,-0.7129 2.044419,-0.3305 1.410298,0.3692 1.245247,0.4256 1.935288,-0.6609 l 0.387918,-0.6109 -0.637766,-0.7985 c -0.76236,-0.9546 -0.992305,-1.4993 -0.807174,-1.9116 0.124045,-0.2762 1.459252,-1.1972 2.080155,-1.4347 0.261243,-0.1 0.270038,-0.123 0.211284,-0.5534 -0.03372,-0.2471 -0.116903,-0.6821 -0.184904,-0.9664 l -0.123594,-0.5173 -1.354879,-0.2829 c -1.79204,-0.3741 -1.742247,-0.2961 -1.366125,-2.1119 l 0.285289,-1.3772 -0.80562,-0.5402 -0.80562,-0.5402 -0.398168,0.3393 c -0.219013,0.1867 -0.698394,0.5343 -1.065365,0.7727 -0.556548,0.3615 -0.729479,0.4204 -1.042969,0.3549 -0.313469,-0.065 -0.457075,-0.1964 -0.865854,-0.7899 -0.269554,-0.3913 -0.565434,-0.8962 -0.657557,-1.1219 -0.194601,-0.4769 -0.255615,-0.4861 -1.475132,-0.2202 -0.546899,0.1192 -0.788658,0.2225 -0.771324,0.3296 0.01388,0.086 -0.03502,0.5954 -0.108704,1.1329 -0.104771,0.7642 -0.187099,1.0542 -0.377904,1.3312 -0.310736,0.4513 -0.51339,0.4591 -2.007699,0.078 l -1.1761,-0.3002 -0.476728,0.6964 c -0.262193,0.383 -0.490597,0.7628 -0.507551,0.844 -0.01699,0.081 0.210379,0.4389 0.505216,0.7948 0.649745,0.7842 0.982499,1.4834 0.89825,1.8869 -0.0719,0.3444 -0.758406,0.8809 -1.706839,1.334 -0.326875,0.1562 -0.607693,0.348 -0.624069,0.4265 -0.01637,0.078 0.04236,0.5203 0.130514,0.9821 l 0.160278,0.8395 1.200182,0.1843 c 1.94998,0.2991 2.101719,0.5342 1.574279,2.4371 l -0.29402,1.0608 0.394522,0.3175 C -23.524245,1026.6758 -22.928862,1026.9987 -22.893251,1026.8282 z m 1.65618,-4.7044 c -1.023865,-0.81 -1.382361,-1.8363 -1.103866,-3.1604 0.184534,-0.8775 0.63958,-1.5036 1.438401,-1.979 0.798937,-0.4756 1.271134,-0.5538 2.213468,-0.3667 0.657283,0.1308 0.87245,0.2237 1.318489,0.5714 0.986251,0.7691 1.378031,1.8477 1.123717,3.0934 C -16.719671,1022.5984 -19.390933,1023.5841 -21.237071,1022.1238 Z"
         style="fill:#1a1a1a" />
      <path
         style="fill:#1a1a1a"
         d="m -12.474643,1015.0031 c 0,-0.1029 0.687391,-0.8845 0.940302,-1.0691 0.13761,-0.1004 0.335477,-0.1827 0.439703,-0.1827 0.259493,0 0.699277,0.3395 1.1211465,0.8655 0.4011941,0.5002 0.3892373,0.4989 1.1932088,0.1393 0.4033504,-0.1805 0.4567973,-0.2272 0.4224128,-0.3696 -0.1028479,-0.4259 -0.1307847,-1.2024 -0.053574,-1.4892 0.1335998,-0.4961 0.2896429,-0.5559 1.3155857,-0.5044 0.9905759,0.05 0.8884968,0.1104 1.1969764,-0.7092 l 0.1734108,-0.4607 -0.5357765,-0.4432 c -0.6404503,-0.5297 -0.8693219,-0.8605 -0.8033532,-1.1608 0.0442,-0.2012 0.8053658,-1.0003 1.1858488,-1.2448 0.1600909,-0.1029 0.1627461,-0.1194 0.063766,-0.3979 -0.056805,-0.1598 -0.1726877,-0.438 -0.2575175,-0.6179 l -0.1542353,-0.3273 -0.9416574,0 c -1.2454907,0 -1.2014767,0.045 -1.2034645,-1.2166 l -0.0015,-0.9569 -0.6116362,-0.2477 -0.6116354,-0.2477 -0.2180013,0.2813 c -0.119897,0.1548 -0.3908295,0.4529 -0.6020685,0.6628 -0.320392,0.3181 -0.427375,0.3813 -0.645255,0.3813 -0.217865,0 -0.331723,-0.067 -0.686486,-0.4057 -0.233917,-0.2231 -0.501175,-0.5182 -0.593906,-0.6557 -0.195915,-0.2905 -0.237824,-0.2882 -1.013038,0.058 -0.347646,0.1555 -0.494283,0.2579 -0.467859,0.3268 0.02117,0.055 0.05947,0.4014 0.08513,0.7696 0.03648,0.5235 0.02198,0.7281 -0.06657,0.9392 -0.144206,0.3437 -0.278083,0.3771 -1.326299,0.3308 l -0.825001,-0.036 -0.220663,0.5301 c -0.121366,0.2915 -0.220664,0.5762 -0.220664,0.6327 0,0.056 0.201141,0.2631 0.446981,0.4591 0.54176,0.4319 0.86058,0.8513 0.86058,1.1317 0,0.2394 -0.382609,0.6921 -0.951249,1.1257 -0.195972,0.1495 -0.356312,0.3163 -0.356312,0.3709 0,0.054 0.100563,0.3406 0.223473,0.6359 l 0.223473,0.5368 0.824925,-0.044 c 1.340244,-0.072 1.473995,0.064 1.387315,1.4042 l -0.04832,0.7474 0.306884,0.1565 C -12.916065,1014.9893 -12.474643,1015.1216 -12.474643,1015.0031 z m 0.448867,-3.3633 c -0.794495,-0.3971 -1.175949,-1.0307 -1.17458,-1.9513 8.8e-4,-0.6101 0.216875,-1.0903 0.682771,-1.518 0.46595,-0.4278 0.769553,-0.5456 1.423146,-0.552 0.455935,0 0.612149,0.028 0.957541,0.1972 0.7637654,0.3751 1.1746623,1.039 1.1785007,1.904 C -8.9512626,1011.3278 -10.593232,1012.3556 -12.025776,1011.6398 Z"
         id="path911"
         inkscape:connector-curvature="0"
         sodipodi:nodetypes="ssssssssscsssscccsccccssccsssssccssscsscssccsssscsss" />
    </g>
  </g>
</svg>
