<?xml version="1.0" encoding="UTF-8" standalone="no"?>
<!-- Created with Inkscape (http://www.inkscape.org/) -->

<svg
   xmlns:dc="http://purl.org/dc/elements/1.1/"
   xmlns:cc="http://creativecommons.org/ns#"
   xmlns:rdf="http://www.w3.org/1999/02/22-rdf-syntax-ns#"
   xmlns:svg="http://www.w3.org/2000/svg"
   xmlns="http://www.w3.org/2000/svg"
   xmlns:xlink="http://www.w3.org/1999/xlink"
   xmlns:sodipodi="http://sodipodi.sourceforge.net/DTD/sodipodi-0.dtd"
   xmlns:inkscape="http://www.inkscape.org/namespaces/inkscape"
   width="48"
   height="48"
   id="svg2"
   version="1.1"
   inkscape:version="0.48+devel r12149"
   sodipodi:docname="pdfmod.svg">
  <defs
     id="defs4">
    <linearGradient
       id="linearGradient853">
      <stop
         style="stop-color:#f9f9f9;stop-opacity:1"
         offset="0"
         id="stop855" />
      <stop
         style="stop-color:#ffffff;stop-opacity:1"
         offset="1"
         id="stop857" />
    </linearGradient>
    <linearGradient
       id="linearGradient868">
      <stop
         id="stop870"
         offset="0"
         style="stop-color:#aa0000;stop-opacity:1" />
      <stop
         id="stop872"
         offset="1"
         style="stop-color:#ff3939;stop-opacity:1" />
    </linearGradient>
    <linearGradient
       gradientUnits="userSpaceOnUse"
       y2="1006.2651"
       x2="24.265165"
       y1="1050.347"
       x1="24.265165"
       id="linearGradient859"
       xlink:href="#linearGradient853"
       inkscape:collect="always" />
    <linearGradient
       inkscape:collect="always"
       xlink:href="#linearGradient868"
       id="linearGradient851"
       x1="94.639023"
       y1="1050.868"
       x2="94.639023"
       y2="1019.1337"
       gradientUnits="userSpaceOnUse" />
  </defs>
  <sodipodi:namedview
     id="base"
     pagecolor="#ffffff"
     bordercolor="#666666"
     borderopacity="1.0"
     inkscape:pageopacity="0.0"
     inkscape:pageshadow="2"
     inkscape:zoom="8.0000004"
     inkscape:cx="52.459863"
     inkscape:cy="31.884777"
     inkscape:document-units="px"
     inkscape:current-layer="layer1"
     showgrid="false"
     inkscape:window-width="1366"
     inkscape:window-height="714"
     inkscape:window-x="0"
     inkscape:window-y="30"
     inkscape:window-maximized="1"
     showguides="false" />
  <metadata
     id="metadata7">
    <rdf:RDF>
      <cc:Work
         rdf:about="">
        <dc:format>image/svg+xml</dc:format>
        <dc:type
           rdf:resource="http://purl.org/dc/dcmitype/StillImage" />
        <dc:title />
      </cc:Work>
    </rdf:RDF>
  </metadata>
  <g
     inkscape:label="Capa 1"
     inkscape:groupmode="layer"
     id="layer1"
     transform="translate(0,-1004.3622)">
    <g
       id="layer1-6"
       inkscape:label="Capa 1"
       transform="translate(0,1.7382813e-5)">
      <rect
         ry="6.3565426"
         y="1005.6122"
         x="1.25"
         height="45.5"
         width="45.5"
         id="rect6294"
         style="color:#000000;fill:#333333;fill-opacity:1;fill-rule:nonzero;stroke:none;stroke-width:0.2;marker:none;visibility:visible;display:inline;overflow:visible;enable-background:accumulate" />
      <rect
         style="color:#000000;fill:url(#linearGradient859);fill-opacity:1;fill-rule:nonzero;stroke:none;stroke-width:0.2;marker:none;visibility:visible;display:inline;overflow:visible;enable-background:accumulate"
         id="rect6296"
         width="44.5"
         height="44.5"
         x="1.75"
         y="1006.1122"
         ry="5.8565426" />
      <path
         inkscape:connector-curvature="0"
         style="color:#000000;fill:#ffffff;fill-opacity:1;fill-rule:nonzero;stroke:none;stroke-width:0.2;marker:none;visibility:visible;display:inline;overflow:visible;enable-background:accumulate"
         d="m 1.750007,1012.5497 0,-0.5625 c 0,-3.2445 2.59922,-5.875 5.84375,-5.875 l 32.812496,0 c 3.244525,0 5.84375,2.6305 5.84375,5.875 l 0,0.5625 c 0,-3.2445 -2.599225,-5.875 -5.84375,-5.875 l -32.812496,0 C 4.349227,1006.6747 1.750007,1009.3052 1.750007,1012.5497 Z"
         id="path6361" />
      <path
         id="path6388"
         d="m 1.750007,1044.1747 0,0.5625 c 0,3.2445 2.59922,5.875 5.84375,5.875 l 32.812496,0 c 3.244525,0 5.84375,-2.6305 5.84375,-5.875 l 0,-0.5625 c 0,3.2445 -2.599225,5.875 -5.84375,5.875 l -32.812496,0 C 4.349227,1050.0497 1.750007,1047.4192 1.750007,1044.1747 Z"
         style="color:#000000;fill:#000000;fill-opacity:1;fill-rule:nonzero;stroke:none;stroke-width:0.2;marker:none;visibility:visible;display:inline;overflow:visible;enable-background:accumulate"
         inkscape:connector-curvature="0" />
      <g
         transform="matrix(0.91777601,0,0,0.91777601,-57.607424,78.275741)"
         id="g861">
        <path
           d="m 87.074303,1019.5488 c -0.551721,0 -0.660546,0.024 -0.882487,0.212 -0.441856,0.37 -0.693659,1.51 -0.691108,3.1664 0.0024,1.7136 0.237198,3.344 0.776166,5.4657 l 0.340239,1.3233 -0.318974,0.996 c -1.013116,3.2375 -2.481947,6.6071 -4.646366,10.6439 -3.280271,6.1199 -5.815331,9.3319 -7.580918,9.6177 -0.284081,0.044 -0.297708,0.036 -0.297708,-0.1696 0,-1.033 1.958227,-3.6153 4.136012,-5.4544 1.112454,-0.9398 -0.182124,-0.312 -1.679922,0.8153 -1.509401,1.1358 -2.759707,2.6087 -3.147197,3.7067 -0.275535,0.7811 -0.21725,1.0572 0.287075,1.3132 0.901098,0.4582 1.359657,0.4766 2.126484,0.096 1.49061,-0.7404 3.461902,-3.0816 5.656448,-6.7152 0.711582,-1.178 0.934871,-1.4721 1.116403,-1.4721 0.06395,0 0.73645,-0.1869 1.48854,-0.4129 3.005936,-0.9062 6.615363,-1.6373 10.153963,-2.0655 l 1.180199,-0.1488 0.595415,0.297 c 1.550631,0.7781 3.711249,1.5324 5.294943,1.8425 1.07112,0.2101 2.46592,0.2491 2.93455,0.085 0.29529,-0.1026 0.91043,-0.4674 0.91043,-0.5874 -1.20198,0.5634 -3.0137,-0.1328 -4.3766,-0.5348 -0.898599,-0.283 -2.876164,-1.0566 -2.987707,-1.1654 2.394366,-0.463 6.885647,-0.566 7.368267,1.0908 0.1414,-1e-4 0.10506,-0.665 -0.0532,-0.9314 -0.29635,-0.5003 -1.15507,-0.9038 -2.3923,-1.1338 -1.00169,-0.1862 -3.375255,-0.2385 -5.231149,-0.1162 l -1.648026,0.106 -0.595415,-0.36 c -3.414164,-2.0688 -5.222362,-4.4016 -6.857912,-8.8336 -0.245439,-0.6653 -0.261953,-0.7567 -0.180751,-1.176 0.285896,-1.476 0.551214,-6.4641 0.35087,-6.5873 -0.364887,1.6342 -0.659971,3.2688 -1.031344,4.7446 -0.07672,0 -0.301481,-1.1498 -0.478461,-2.4886 -0.192552,-1.457 -0.122625,-3.4272 0.138224,-4.0992 0.104528,-0.2688 0.240862,-0.5143 0.308338,-0.5402 0.668621,0.1916 1.040751,0.7212 1.137669,1.5356 0.09487,0 0.119231,-0.1554 0.138223,-0.6562 C 88.47703,1019.8552 88.181716,1019.5488 87.074303,1019.5488 z m 0.265809,12.1593 c 0.03786,-0.01 0.05944,0.071 0.106327,0.201 0.05769,0.1622 0.380744,0.8246 0.712373,1.4724 1.426918,2.7858 3.007066,4.613 5.284315,6.1106 0.115372,0.075 0.186654,0.163 0.159486,0.1907 -0.02714,0.024 -0.490707,0.1281 -1.020712,0.2224 -3.614228,0.644 -8.113834,1.9981 -10.302816,3.0926 -0.03481,0.019 -0.06377,-0.018 -0.06377,-0.072 10e-7,-0.057 0.215168,-0.5056 0.489091,-0.9955 2.063214,-3.6909 3.449601,-6.6734 4.231701,-9.1299 C 87.184191,1032.0194 87.27696,1031.7276 87.340112,1031.7081 Z"
           inkscape:connector-curvature="0"
           id="path846"
           style="fill:#000000;fill-opacity:0.5372549;fill-rule:nonzero;stroke:none;enable-background:new" />
        <path
           style="fill:url(#linearGradient851);fill-opacity:1.0;fill-rule:nonzero;stroke:none;enable-background:new"
           id="rect3364-1"
           inkscape:connector-curvature="0"
           d="m 87.074303,1018.8613 c -0.551721,0 -0.660546,0.024 -0.882487,0.212 -0.441856,0.37 -0.693659,1.51 -0.691108,3.1664 0.0024,1.7136 0.237198,3.344 0.776166,5.4657 l 0.340239,1.3233 -0.318974,0.996 c -1.013116,3.2375 -2.481947,6.6071 -4.646366,10.6439 -3.280271,6.1199 -5.815331,9.3319 -7.580918,9.6177 -0.284081,0.044 -0.297708,0.036 -0.297708,-0.1696 0,-1.033 1.958227,-3.6153 4.136012,-5.4544 1.112454,-0.9398 -0.182124,-0.312 -1.679922,0.8153 -1.509401,1.1358 -2.759707,2.6087 -3.147197,3.7067 -0.275535,0.7811 -0.21725,1.0572 0.287075,1.3132 0.901098,0.4582 1.359657,0.4766 2.126484,0.096 1.49061,-0.7404 3.461902,-3.0816 5.656448,-6.7152 0.711582,-1.178 0.934871,-1.4721 1.116403,-1.4721 0.06395,0 0.73645,-0.1869 1.48854,-0.4129 3.005936,-0.9062 6.615363,-1.6373 10.153963,-2.0655 l 1.180199,-0.1488 0.595415,0.297 c 1.550631,0.7781 3.711249,1.5324 5.294943,1.8425 1.07112,0.2101 2.46592,0.2491 2.93455,0.085 0.29529,-0.1026 0.91043,-0.4674 0.91043,-0.5874 -1.20198,0.5634 -3.0137,-0.1328 -4.3766,-0.5348 -0.898599,-0.283 -2.876164,-1.0566 -2.987707,-1.1654 2.394366,-0.463 6.885647,-0.566 7.368267,1.0908 0.1414,-1e-4 0.10506,-0.665 -0.0532,-0.9314 -0.29635,-0.5003 -1.15507,-0.9038 -2.3923,-1.1338 -1.00169,-0.1862 -3.375255,-0.2385 -5.231149,-0.1162 l -1.648026,0.106 -0.595415,-0.36 c -3.414164,-2.0688 -5.222362,-4.4016 -6.857912,-8.8336 -0.245439,-0.6653 -0.261953,-0.7567 -0.180751,-1.176 0.285896,-1.476 0.551214,-6.4641 0.35087,-6.5873 -0.364887,1.6342 -0.659971,3.2688 -1.031344,4.7446 -0.07672,0 -0.301481,-1.1498 -0.478461,-2.4886 -0.192552,-1.457 -0.122625,-3.4272 0.138224,-4.0992 0.104528,-0.2688 0.240862,-0.5143 0.308338,-0.5402 0.668621,0.1916 1.040751,0.7212 1.137669,1.5356 0.09487,0 0.119231,-0.1554 0.138223,-0.6562 C 88.47703,1019.1677 88.181716,1018.8613 87.074303,1018.8613 z m 0.265809,12.1593 c 0.03786,-0.01 0.05944,0.071 0.106327,0.201 0.05769,0.1622 0.380744,0.8246 0.712373,1.4724 1.426918,2.7858 3.007066,4.613 5.284315,6.1106 0.115372,0.075 0.186654,0.163 0.159486,0.1907 -0.02714,0.024 -0.490707,0.1281 -1.020712,0.2224 -3.614228,0.644 -8.113834,1.9981 -10.302816,3.0926 -0.03481,0.019 -0.06377,-0.018 -0.06377,-0.072 10e-7,-0.057 0.215168,-0.5056 0.489091,-0.9955 2.063214,-3.6909 3.449601,-6.6734 4.231701,-9.1299 C 87.184191,1031.3319 87.27696,1031.0401 87.340112,1031.0206 Z" />
      </g>
    </g>
  </g>
</svg>
