<?xml version="1.0" encoding="UTF-8" standalone="no"?>
<!-- Created with Inkscape (http://www.inkscape.org/) -->

<svg
   xmlns:dc="http://purl.org/dc/elements/1.1/"
   xmlns:cc="http://creativecommons.org/ns#"
   xmlns:rdf="http://www.w3.org/1999/02/22-rdf-syntax-ns#"
   xmlns:svg="http://www.w3.org/2000/svg"
   xmlns="http://www.w3.org/2000/svg"
   xmlns:xlink="http://www.w3.org/1999/xlink"
   xmlns:sodipodi="http://sodipodi.sourceforge.net/DTD/sodipodi-0.dtd"
   xmlns:inkscape="http://www.inkscape.org/namespaces/inkscape"
   width="48"
   height="48"
   id="svg2"
   version="1.1"
   inkscape:version="0.48+devel r12149"
   sodipodi:docname="playonlinux.svg">
  <defs
     id="defs4">
    <linearGradient
       inkscape:collect="always"
       xlink:href="#linearGradient849"
       id="linearGradient855"
       x1="24.395184"
       y1="-1052.7157"
       x2="24.395184"
       y2="-1004.986"
       gradientUnits="userSpaceOnUse" />
    <linearGradient
       inkscape:collect="always"
       id="linearGradient849">
      <stop
         style="stop-color:#438420;stop-opacity:1"
         offset="0"
         id="stop851" />
      <stop
         style="stop-color:#99cc45;stop-opacity:1"
         offset="1"
         id="stop853" />
    </linearGradient>
    <linearGradient
       inkscape:collect="always"
       xlink:href="#linearGradient849"
       id="linearGradient868"
       x1="26.669901"
       y1="1050.8922"
       x2="26.669901"
       y2="1006.3724"
       gradientUnits="userSpaceOnUse" />
  </defs>
  <sodipodi:namedview
     id="base"
     pagecolor="#ffffff"
     bordercolor="#666666"
     borderopacity="1.0"
     inkscape:pageopacity="0.0"
     inkscape:pageshadow="2"
     inkscape:zoom="1.6835938"
     inkscape:cx="-3.9846698"
     inkscape:cy="68.925476"
     inkscape:document-units="px"
     inkscape:current-layer="layer1"
     showgrid="false"
     inkscape:window-width="1366"
     inkscape:window-height="714"
     inkscape:window-x="0"
     inkscape:window-y="30"
     inkscape:window-maximized="1" />
  <metadata
     id="metadata7">
    <rdf:RDF>
      <cc:Work
         rdf:about="">
        <dc:format>image/svg+xml</dc:format>
        <dc:type
           rdf:resource="http://purl.org/dc/dcmitype/StillImage" />
        <dc:title />
      </cc:Work>
    </rdf:RDF>
  </metadata>
  <g
     inkscape:label="Capa 1"
     inkscape:groupmode="layer"
     id="layer1"
     transform="translate(0,-1004.3622)">
    <rect
       style="color:#000000;fill:#333333;fill-opacity:1;fill-rule:nonzero;stroke:none;stroke-width:0.2;marker:none;visibility:visible;display:inline;overflow:visible;enable-background:accumulate"
       id="rect6294"
       width="45.5"
       height="45.5"
       x="1.25"
       y="1005.6122"
       ry="6.3565426" />
    <rect
       ry="5.8565426"
       y="1006.1122"
       x="1.75"
       height="44.5"
       width="44.5"
       id="rect6296"
       style="color:#000000;fill:url(#linearGradient868);fill-opacity:1.0;fill-rule:nonzero;stroke:none;stroke-width:0.2;marker:none;visibility:visible;display:inline;overflow:visible;enable-background:accumulate" />
    <path
       id="path6361"
       d="m 1.7499992,1012.5497 0,-0.5625 c 0,-3.2445 2.599225,-5.875 5.84375,-5.875 l 32.8124998,0 c 3.244525,0 5.84375,2.6305 5.84375,5.875 l 0,0.5625 c 0,-3.2445 -2.599225,-5.875 -5.84375,-5.875 l -32.8124998,0 C 4.3492242,1006.6747 1.7499992,1009.3052 1.7499992,1012.5497 Z"
       style="color:#000000;fill:#ffffff;fill-opacity:1;fill-rule:nonzero;stroke:none;stroke-width:0.2;marker:none;visibility:visible;display:inline;overflow:visible;enable-background:accumulate"
       inkscape:connector-curvature="0" />
    <path
       inkscape:connector-curvature="0"
       style="color:#000000;fill:#000000;fill-opacity:1;fill-rule:nonzero;stroke:none;stroke-width:0.2;marker:none;visibility:visible;display:inline;overflow:visible;enable-background:accumulate"
       d="m 1.7499992,1044.1747 0,0.5625 c 0,3.2445 2.599225,5.875 5.84375,5.875 l 32.8124998,0 c 3.244525,0 5.84375,-2.6305 5.84375,-5.875 l 0,-0.5625 c 0,3.2445 -2.599225,5.875 -5.84375,5.875 l -32.8124998,0 C 4.3492242,1050.0497 1.7499992,1047.4192 1.7499992,1044.1747 Z"
       id="path6388" />
    <g
       id="g896"
       transform="matrix(0.9375,0,0,0.9375,1.5,63.734044)">
      <path
         transform="matrix(1.1547194,0,0,1.1547194,-1.7200615,1000.5811)"
         d="m 35.885668,24.311924 c 0,7.517592 -6.094213,13.611805 -13.611805,13.611805 -7.517592,0 -13.6118051,-6.094213 -13.6118051,-13.611805 0,-7.517592 6.0942131,-13.611805 13.6118051,-13.611805 C 29.791455,10.700119 35.885668,16.794332 35.885668,24.311924 Z"
         sodipodi:ry="13.611805"
         sodipodi:rx="13.611805"
         sodipodi:cy="24.311924"
         sodipodi:cx="22.273863"
         id="path857"
         style="fill:#000000;fill-opacity:0.5372549;stroke:none"
         sodipodi:type="arc" />
      <path
         inkscape:connector-curvature="0"
         id="path859"
         d="m 8.312884,1028.9119 c -0.00203,0.1041 -0.030699,0.2025 -0.030699,0.307 0,8.6807 7.037106,15.7178 15.717815,15.7178 8.68071,0 15.717815,-7.0371 15.717815,-15.7178 0,-0.1045 -0.02867,-0.2029 -0.0307,-0.307 -0.150427,8.5506 -7.100596,15.4416 -15.687116,15.4416 C 15.413481,1044.3535 8.4633115,1037.4625 8.312884,1028.9119 Z"
         style="fill:#ffffff;fill-opacity:0.5372549;stroke:none" />
      <path
         style="fill:#000000;fill-opacity:0.5372549;stroke:none"
         d="m 8.312884,1028.9615 c -0.00203,-0.1041 -0.030699,-0.2025 -0.030699,-0.307 0,-8.6807 7.037106,-15.7178 15.717815,-15.7178 8.68071,0 15.717815,7.0371 15.717815,15.7178 0,0.1045 -0.02867,0.2029 -0.0307,0.307 -0.150427,-8.5506 -7.100596,-15.4416 -15.687116,-15.4416 C 15.413481,1013.5199 8.4633115,1020.4109 8.312884,1028.9615 Z"
         id="path864"
         inkscape:connector-curvature="0" />
      <path
         sodipodi:nodetypes="ssccsccssscsscccccscssccccssccccsssscssccccs"
         inkscape:connector-curvature="0"
         id="path858"
         d="m 32.054661,1035.2625 c 0.0057,-1.2295 0.0096,-3.1057 0.0096,-4.1695 l 0,-1.9341 -0.047,0 c -0.02583,0 -2.059777,-0.023 -4.519876,-0.049 -2.460091,-0.028 -4.562319,-0.049 -4.671615,-0.049 l -0.198712,0 0,3.2878 c 0,1.8084 0.0016,3.288 0.0039,3.2882 0.0023,0 2.110718,0.4189 4.686067,0.9309 2.57535,0.5115 4.692761,0.9309 4.705355,0.9316 C 32.042901,1037.4975 32.045933,1037.2893 32.054661,1035.2625 z m -10.232529,-2.9995 c 0.0049,-1.7661 0.0077,-3.2122 0.0059,-3.2136 -0.0031,0 -5.602714,-0.066 -5.7803,-0.066 l -0.111999,0 0,2.6588 0,2.6589 0.03251,0.01 c 0.02542,0.01 5.802202,1.1563 5.836246,1.1617 C 21.809233,1035.4738 21.817134,1034.0293 21.822132,1032.263 z m -2.82248,-3.9568 c 1.331391,-0.014 2.513382,-0.03 2.626651,-0.031 l 0.20594,0 0,-3.2172 0,-3.2172 -0.03974,0.01 c -0.02183,0.01 -1.348512,0.2665 -2.948111,0.5834 l -2.908368,0.5759 -1.16e-4,2.6628 -2.35e-4,2.6628 0.321561,0 C 16.434231,1028.3347 17.668254,1028.3217 18.999652,1028.3062 z m 8.525676,-0.094 c 2.49133,-0.029 4.531787,-0.052 4.534347,-0.057 0.0028,0 0.0028,-1.881 0.0013,-4.1742 l -0.0039,-4.1695 -4.285027,0.8503 c -2.356764,0.4678 -4.476879,0.888 -4.711362,0.9343 l -0.426335,0.084 -0.0039,3.2906 -0.0039,3.2908 0.18429,0 C 22.912704,1028.2628 25.033998,1028.2401 27.525328,1028.212 Z"
         style="fill:#ffffff;fill-opacity:1" />
    </g>
  </g>
</svg>
