<?xml version="1.0" encoding="UTF-8" standalone="no"?>
<!-- Created with Inkscape (http://www.inkscape.org/) -->

<svg
   xmlns:dc="http://purl.org/dc/elements/1.1/"
   xmlns:cc="http://creativecommons.org/ns#"
   xmlns:rdf="http://www.w3.org/1999/02/22-rdf-syntax-ns#"
   xmlns:svg="http://www.w3.org/2000/svg"
   xmlns="http://www.w3.org/2000/svg"
   xmlns:xlink="http://www.w3.org/1999/xlink"
   xmlns:sodipodi="http://sodipodi.sourceforge.net/DTD/sodipodi-0.dtd"
   xmlns:inkscape="http://www.inkscape.org/namespaces/inkscape"
   width="48"
   height="48"
   id="svg2"
   version="1.1"
   inkscape:version="0.48+devel r12149"
   sodipodi:docname="preferences-desktop-screensaver.svg">
  <defs
     id="defs4">
    <linearGradient
       inkscape:collect="always"
       id="linearGradient1420">
      <stop
         style="stop-color:#9034ca;stop-opacity:1"
         offset="0"
         id="stop1422" />
      <stop
         style="stop-color:#e18baf;stop-opacity:1"
         offset="1"
         id="stop1424" />
    </linearGradient>
    <linearGradient
       inkscape:collect="always"
       xlink:href="#linearGradient1420"
       id="linearGradient1467"
       x1="26.651339"
       y1="1050.6107"
       x2="26.651339"
       y2="1006.4971"
       gradientUnits="userSpaceOnUse" />
  </defs>
  <sodipodi:namedview
     id="base"
     pagecolor="#ffffff"
     bordercolor="#666666"
     borderopacity="1.0"
     inkscape:pageopacity="0.0"
     inkscape:pageshadow="2"
     inkscape:zoom="3.2268548"
     inkscape:cx="-7.5003613"
     inkscape:cy="28.541013"
     inkscape:document-units="px"
     inkscape:current-layer="layer1"
     showgrid="false"
     inkscape:window-width="1366"
     inkscape:window-height="714"
     inkscape:window-x="0"
     inkscape:window-y="30"
     inkscape:window-maximized="1">
    <inkscape:grid
       type="xygrid"
       id="grid3850" />
  </sodipodi:namedview>
  <metadata
     id="metadata7">
    <rdf:RDF>
      <cc:Work
         rdf:about="">
        <dc:format>image/svg+xml</dc:format>
        <dc:type
           rdf:resource="http://purl.org/dc/dcmitype/StillImage" />
        <dc:title />
      </cc:Work>
    </rdf:RDF>
  </metadata>
  <g
     inkscape:label="Capa 1"
     inkscape:groupmode="layer"
     id="layer1"
     transform="translate(0,-1004.3622)">
    <rect
       style="color:#000000;fill:#333333;fill-opacity:1;fill-rule:nonzero;stroke:none;stroke-width:0.2;marker:none;visibility:visible;display:inline;overflow:visible;enable-background:accumulate"
       id="rect6294"
       width="45.5"
       height="45.5"
       x="1.25"
       y="1005.6122"
       ry="6.3565426" />
    <rect
       ry="5.8565426"
       y="1006.1122"
       x="1.75"
       height="44.5"
       width="44.5"
       id="rect6296"
       style="color:#000000;fill:url(#linearGradient1467);fill-opacity:1.0;fill-rule:nonzero;stroke:none;stroke-width:0.2;marker:none;visibility:visible;display:inline;overflow:visible;enable-background:accumulate" />
    <path
       id="path6361"
       d="m 1.7499997,1012.5497 0,-0.5625 c 0,-3.2445 2.599225,-5.875 5.8437497,-5.875 l 32.8124996,0 c 3.244525,0 5.84375,2.6305 5.84375,5.875 l 0,0.5625 c 0,-3.2445 -2.599225,-5.875 -5.84375,-5.875 l -32.8124996,0 C 4.3492247,1006.6747 1.7499997,1009.3052 1.7499997,1012.5497 Z"
       style="color:#000000;fill:#ffffff;fill-opacity:1;fill-rule:nonzero;stroke:none;stroke-width:0.2;marker:none;visibility:visible;display:inline;overflow:visible;enable-background:accumulate"
       inkscape:connector-curvature="0" />
    <path
       inkscape:connector-curvature="0"
       style="color:#000000;fill:#000000;fill-opacity:1;fill-rule:nonzero;stroke:none;stroke-width:0.2;marker:none;visibility:visible;display:inline;overflow:visible;enable-background:accumulate"
       d="m 1.7499997,1044.1747 0,0.5625 c 0,3.2445 2.599225,5.875 5.8437497,5.875 l 32.8124996,0 c 3.244525,0 5.84375,-2.6305 5.84375,-5.875 l 0,-0.5625 c 0,3.2445 -2.599225,5.875 -5.84375,5.875 l -32.8124996,0 C 4.3492247,1050.0497 1.7499997,1047.4192 1.7499997,1044.1747 Z"
       id="path6388" />
    <g
       id="g879"
       transform="matrix(0.9599355,0,0,0.9599355,0.96154817,40.841849)">
      <path
         id="rect1433"
         d="m 23.999999,1013.1104 c -8.387103,0 -15.1994727,6.8123 -15.1994727,15.1995 0,8.3871 6.8123697,15.1995 15.1994727,15.1995 8.387104,0 15.199474,-6.8124 15.199474,-15.1995 C 39.199473,1019.9227 32.387103,1013.1104 23.999999,1013.1104 z m 0,1.0029 c 7.833729,0 14.196622,6.3628 14.196622,14.1966 0,7.8337 -6.362893,14.1966 -14.196622,14.1966 -7.833728,0 -14.1966209,-6.3629 -14.1966209,-14.1966 C 9.8033781,1020.4761 16.166271,1014.1133 23.999999,1014.1133 z m 0.06268,4.7635 c -2.296279,0 -4.136764,1.8406 -4.136764,4.1368 l 0,3.4786 0.68946,0 0,-3.4786 c 0,-1.9034 1.543879,-3.4473 3.447304,-3.4473 1.903425,0 3.447303,1.5439 3.447303,3.4473 l 0,3.4786 0.689461,0 0,-3.4786 C 28.199442,1020.7174 26.358957,1018.8768 24.062678,1018.8768 z m -5.829077,9.0884 0,7.49 11.658153,0 0,-7.49 L 18.233601,1027.9652 Z M 24,1029.0934 c 0.709633,0 1.284904,0.5752 1.284904,1.2848 0,0.4201 -0.221018,0.7684 -0.532765,1.0029 l 0,1.943 c 0,0.3931 -0.327659,0.7209 -0.720799,0.7209 l -0.06268,0 c -0.39314,0 -0.720799,-0.3278 -0.720799,-0.7209 l 0,-1.943 c -0.311747,-0.2345 -0.532765,-0.5828 -0.532765,-1.0029 C 22.715096,1029.6686 23.290366,1029.0934 23.999999,1029.0934 Z"
         style="fill:#2d3e7b;fill-opacity:1;stroke:none"
         inkscape:connector-curvature="0" />
      <path
         inkscape:connector-curvature="0"
         id="path1453"
         d="m 23.999999,1013.1101 c -8.387103,0 -15.1994727,6.8122 -15.1994727,15.1994 0,0.062 -7.582e-4,0.1255 0,0.188 0.1007685,-8.3008 6.8750467,-15.0114 15.1994727,-15.0114 8.324427,0 15.098706,6.7106 15.199474,15.0114 7.59e-4,-0.062 0,-0.1253 0,-0.188 C 39.199473,1019.9223 32.387103,1013.1101 23.999999,1013.1101 z m 0.06268,5.7664 c -2.296279,0 -4.136764,1.8405 -4.136764,4.1367 l 0,0.3761 c 0,-2.2962 1.840485,-4.1368 4.136764,-4.1368 2.296279,0 4.136764,1.8406 4.136764,4.1368 l 0,-0.3761 C 28.199442,1020.717 26.358957,1018.8765 24.062678,1018.8765 z m -5.829077,9.0883 0,0.3761 11.658153,0 0,-0.3761 L 18.233601,1027.9648 z m -8.3675446,1.7863 C 10.41716,1037.083 16.528397,1042.8822 24,1042.8822 c 7.471604,0 13.582841,-5.7992 14.133944,-13.1311 C 37.406207,1036.9049 31.34412,1042.5062 24,1042.5062 16.65588,1042.5062 10.593793,1036.9049 9.8660564,1029.7511 z m 12.8803786,0.8148 c -0.0078,0.057 -0.03134,0.1286 -0.03134,0.188 0,0.4201 0.221018,0.7684 0.532765,1.0029 l 0,-0.3761 C 22.983185,1031.1816 22.800579,1030.9034 22.746435,1030.5659 z m 2.507129,0 c -0.05414,0.3375 -0.23675,0.6157 -0.501426,0.8148 l 0,0.3761 c 0.311747,-0.2345 0.532765,-0.5828 0.532765,-1.0029 C 25.284903,1030.6945 25.261392,1030.6233 25.253564,1030.5659 z m -2.005703,2.7578 0,0.3761 c 0,0.3931 0.327659,0.7209 0.720799,0.7209 l 0.06268,0 c 0.39314,0 0.720799,-0.3278 0.720799,-0.7209 l 0,-0.3761 c 0,0.3932 -0.327659,0.7209 -0.720799,0.7209 l -0.06268,0 C 23.57552,1034.0446 23.247861,1033.7169 23.247861,1033.3237 Z"
         style="fill:#000000;fill-opacity:0.23529412;stroke:none" />
      <path
         inkscape:connector-curvature="0"
         id="path1458"
         d="m 23.999999,1014.1211 c -7.439732,0 -13.537845,5.7496 -14.1339426,13.0371 0.7277366,-7.154 6.7898236,-12.7551 14.1339426,-12.7551 7.34412,0 13.406207,5.6011 14.133944,12.7551 C 37.537845,1019.8707 31.439732,1014.1211 23.999999,1014.1211 z m 0.06268,5.453 c -1.903425,0 -3.447304,1.5439 -3.447304,3.4473 l 0,0.282 c 0,-1.9034 1.543879,-3.4473 3.447304,-3.4473 1.903425,0 3.447303,1.5439 3.447303,3.4473 l 0,-0.282 C 27.509981,1021.118 25.966103,1019.5741 24.062678,1019.5741 z m -4.136764,6.9259 0,0.2821 0.68946,0 0,-0.2821 L 19.925914,1026.5 z m 7.584067,0 0,0.2821 0.689461,0 0,-0.2821 L 27.509981,1026.5 z m -18.7094547,1.9744 c -3.37e-4,0.042 0,0.083 0,0.1254 0,8.3871 6.8123697,15.1994 15.1994727,15.1994 8.387104,0 15.199474,-6.8123 15.199474,-15.1994 0,-0.042 3.38e-4,-0.083 0,-0.1254 C 39.115354,1036.7896 32.334873,1043.5172 24,1043.5172 15.665127,1043.5172 8.8846455,1036.7896 8.8005263,1028.4744 Z M 24,1029.1012 c -0.709633,0 -1.284903,0.5751 -1.284903,1.2849 0,0.053 0.02456,0.106 0.03134,0.1567 0.06672,-0.647 0.588966,-1.1596 1.253564,-1.1596 0.664599,0 1.186847,0.5126 1.253565,1.1596 0.0068,-0.051 0.03134,-0.1037 0.03134,-0.1567 C 25.284903,1029.6763 24.709632,1029.1012 23.999999,1029.1012 z m -5.766398,6.3618 0,0.2821 11.658153,0 0,-0.2821 L 18.233601,1035.463 Z"
         style="fill:#ffffff;fill-opacity:0.23529412;stroke:none" />
      <path
         style="fill:#ffffff;fill-opacity:0.11677384;stroke:none"
         d="m 23.999999,1014.3981 c -7.439732,0 -13.537845,5.7495 -14.1339426,13.0371 0.7277366,-7.154 6.7898236,-12.7551 14.1339426,-12.7551 7.34412,0 13.406207,5.6011 14.133944,12.7551 C 37.537845,1020.1476 31.439732,1014.3981 23.999999,1014.3981 z m 0.06268,5.453 c -1.903425,0 -3.447304,1.5439 -3.447304,3.4473 l 0,0.282 c 0,-1.9034 1.543879,-3.4473 3.447304,-3.4473 1.903425,0 3.447303,1.5439 3.447303,3.4473 l 0,-0.282 C 27.509981,1021.395 25.966103,1019.8511 24.062678,1019.8511 z m -4.136764,6.9259 0,0.2821 0.68946,0 0,-0.2821 L 19.925914,1026.777 z m 7.584067,0 0,0.2821 0.689461,0 0,-0.2821 L 27.509981,1026.777 z m -18.7094547,1.9744 c -3.37e-4,0.042 0,0.083 0,0.1254 0,8.3871 6.8123697,15.1994 15.1994727,15.1994 8.387104,0 15.199474,-6.8123 15.199474,-15.1994 0,-0.042 3.38e-4,-0.083 0,-0.1254 C 39.115354,1037.0666 32.334873,1043.7942 24,1043.7942 15.665127,1043.7942 8.8846455,1037.0666 8.8005263,1028.7514 Z M 24,1029.3782 c -0.709633,0 -1.284903,0.5751 -1.284903,1.2848 0,0.053 0.02456,0.106 0.03134,0.1568 0.06672,-0.6471 0.588966,-1.1596 1.253564,-1.1596 0.664599,0 1.186847,0.5125 1.253565,1.1596 0.0068,-0.051 0.03134,-0.1037 0.03134,-0.1568 C 25.284903,1029.9533 24.709632,1029.3782 23.999999,1029.3782 z m -5.766398,6.3618 0,0.2821 11.658153,0 0,-0.2821 L 18.233601,1035.74 Z"
         id="path1463"
         inkscape:connector-curvature="0" />
      <path
         inkscape:connector-curvature="0"
         id="path1465"
         d="m 23.999999,1014.6841 c -7.439732,0 -13.537845,5.7496 -14.1339426,13.0371 0.7277366,-7.154 6.7898236,-12.7551 14.1339426,-12.7551 7.34412,0 13.406207,5.6011 14.133944,12.7551 C 37.537845,1020.4337 31.439732,1014.6841 23.999999,1014.6841 z m 0.06268,5.453 c -1.903425,0 -3.447304,1.5439 -3.447304,3.4473 l 0,0.282 c 0,-1.9034 1.543879,-3.4473 3.447304,-3.4473 1.903425,0 3.447303,1.5439 3.447303,3.4473 l 0,-0.282 C 27.509981,1021.681 25.966103,1020.1371 24.062678,1020.1371 z m -4.136764,6.9259 0,0.2821 0.68946,0 0,-0.2821 L 19.925914,1027.063 z m 7.584067,0 0,0.2821 0.689461,0 0,-0.2821 L 27.509981,1027.063 z m -18.7094547,1.9744 c -3.37e-4,0.042 0,0.083 0,0.1254 0,8.3871 6.8123697,15.1994 15.1994727,15.1994 8.387104,0 15.199474,-6.8123 15.199474,-15.1994 0,-0.042 3.38e-4,-0.083 0,-0.1254 C 39.115354,1037.3526 32.334873,1044.0802 24,1044.0802 15.665127,1044.0802 8.8846455,1037.3526 8.8005263,1029.0374 Z M 24,1029.6642 c -0.709633,0 -1.284903,0.5751 -1.284903,1.2849 0,0.053 0.02456,0.106 0.03134,0.1567 0.06672,-0.647 0.588966,-1.1596 1.253564,-1.1596 0.664599,0 1.186847,0.5126 1.253565,1.1596 0.0068,-0.051 0.03134,-0.1037 0.03134,-0.1567 C 25.284903,1030.2393 24.709632,1029.6642 23.999999,1029.6642 z m -5.766398,6.3618 0,0.2821 11.658153,0 0,-0.2821 L 18.233601,1036.026 Z"
         style="fill:#ffffff;fill-opacity:0.05882353;stroke:none" />
      <path
         style="fill:#000000;fill-opacity:0.11677384;stroke:none"
         d="m 23.999999,1013.4781 c -8.387103,0 -15.1994727,6.8123 -15.1994727,15.1994 0,0.062 -7.582e-4,0.1256 0,0.1881 0.1007685,-8.3008 6.8750467,-15.0114 15.1994727,-15.0114 8.324427,0 15.098706,6.7106 15.199474,15.0114 7.59e-4,-0.062 0,-0.1254 0,-0.1881 C 39.199473,1020.2904 32.387103,1013.4781 23.999999,1013.4781 z m 0.06268,5.7664 c -2.296279,0 -4.136764,1.8405 -4.136764,4.1368 l 0,0.376 c 0,-2.2962 1.840485,-4.1367 4.136764,-4.1367 2.296279,0 4.136764,1.8405 4.136764,4.1367 l 0,-0.376 C 28.199442,1021.085 26.358957,1019.2445 24.062678,1019.2445 z m -5.829077,9.0883 0,0.3761 11.658153,0 0,-0.3761 L 18.233601,1028.3328 z m -8.3675446,1.7863 c 0.5511026,7.332 6.6623396,13.1312 14.1339426,13.1312 7.471604,0 13.582841,-5.7992 14.133944,-13.1312 C 37.406207,1037.273 31.34412,1042.8742 24,1042.8742 16.65588,1042.8742 10.593793,1037.273 9.8660564,1030.1191 z m 12.8803786,0.8148 c -0.0078,0.057 -0.03134,0.1286 -0.03134,0.1881 0,0.4201 0.221018,0.7684 0.532765,1.0028 l 0,-0.376 C 22.983185,1031.5497 22.800579,1031.2714 22.746435,1030.9339 z m 2.507129,0 c -0.05414,0.3375 -0.23675,0.6158 -0.501426,0.8149 l 0,0.376 c 0.311747,-0.2344 0.532765,-0.5827 0.532765,-1.0028 C 25.284903,1031.0625 25.261392,1030.9913 25.253564,1030.9339 z m -2.005703,2.7579 0,0.3761 c 0,0.3931 0.327659,0.7208 0.720799,0.7208 l 0.06268,0 c 0.39314,0 0.720799,-0.3277 0.720799,-0.7208 l 0,-0.3761 c 0,0.3931 -0.327659,0.7208 -0.720799,0.7208 l -0.06268,0 C 23.57552,1034.4126 23.247861,1034.0849 23.247861,1033.6918 Z"
         id="path1467"
         inkscape:connector-curvature="0" />
      <path
         inkscape:connector-curvature="0"
         id="path1469"
         d="m 23.999999,1013.8491 c -8.387103,0 -15.1994727,6.8123 -15.1994727,15.1994 0,0.062 -7.582e-4,0.1256 0,0.1881 0.1007685,-8.3008 6.8750467,-15.0114 15.1994727,-15.0114 8.324427,0 15.098706,6.7106 15.199474,15.0114 7.59e-4,-0.062 0,-0.1254 0,-0.1881 C 39.199473,1020.6614 32.387103,1013.8491 23.999999,1013.8491 z m 0.06268,5.7664 c -2.296279,0 -4.136764,1.8406 -4.136764,4.1368 l 0,0.3761 c 0,-2.2963 1.840485,-4.1368 4.136764,-4.1368 2.296279,0 4.136764,1.8405 4.136764,4.1368 l 0,-0.3761 C 28.199442,1021.4561 26.358957,1019.6155 24.062678,1019.6155 z m -5.829077,9.0884 0,0.376 11.658153,0 0,-0.376 L 18.233601,1028.7039 z m -8.3675446,1.7862 c 0.5511026,7.332 6.6623396,13.1312 14.1339426,13.1312 7.471604,0 13.582841,-5.7992 14.133944,-13.1312 C 37.406207,1037.644 31.34412,1043.2452 24,1043.2452 16.65588,1043.2452 10.593793,1037.644 9.8660564,1030.4901 z m 12.8803786,0.8149 c -0.0078,0.057 -0.03134,0.1285 -0.03134,0.188 0,0.4201 0.221018,0.7684 0.532765,1.0028 l 0,-0.376 C 22.983185,1031.9207 22.800579,1031.6424 22.746435,1031.305 z m 2.507129,0 c -0.05414,0.3374 -0.23675,0.6157 -0.501426,0.8148 l 0,0.376 c 0.311747,-0.2344 0.532765,-0.5827 0.532765,-1.0028 C 25.284903,1031.4335 25.261392,1031.3623 25.253564,1031.305 z m -2.005703,2.7578 0,0.3761 c 0,0.3931 0.327659,0.7208 0.720799,0.7208 l 0.06268,0 c 0.39314,0 0.720799,-0.3277 0.720799,-0.7208 l 0,-0.3761 c 0,0.3931 -0.327659,0.7209 -0.720799,0.7209 l -0.06268,0 C 23.57552,1034.7837 23.247861,1034.4559 23.247861,1034.0628 Z"
         style="fill:#000000;fill-opacity:0.05882353;stroke:none" />
    </g>
  </g>
</svg>
