<?xml version="1.0" encoding="UTF-8" standalone="no"?>
<!-- Created with Inkscape (http://www.inkscape.org/) -->

<svg
   xmlns:dc="http://purl.org/dc/elements/1.1/"
   xmlns:cc="http://creativecommons.org/ns#"
   xmlns:rdf="http://www.w3.org/1999/02/22-rdf-syntax-ns#"
   xmlns:svg="http://www.w3.org/2000/svg"
   xmlns="http://www.w3.org/2000/svg"
   xmlns:xlink="http://www.w3.org/1999/xlink"
   xmlns:sodipodi="http://sodipodi.sourceforge.net/DTD/sodipodi-0.dtd"
   xmlns:inkscape="http://www.inkscape.org/namespaces/inkscape"
   width="48"
   height="48"
   id="svg2"
   version="1.1"
   inkscape:version="0.48+devel r12106"
   sodipodi:docname="application-default-icon.svg">
  <defs
     id="defs4">
    <linearGradient
       inkscape:collect="always"
       id="linearGradient865">
      <stop
         style="stop-color:#000000;stop-opacity:1"
         offset="0"
         id="stop867" />
      <stop
         style="stop-color:#4d4d4d;stop-opacity:1"
         offset="1"
         id="stop869" />
    </linearGradient>
    <linearGradient
       inkscape:collect="always"
       xlink:href="#linearGradient873"
       id="linearGradient879"
       x1="28.387375"
       y1="1046.0605"
       x2="28.387375"
       y2="1011.8457"
       gradientUnits="userSpaceOnUse" />
    <linearGradient
       inkscape:collect="always"
       id="linearGradient873">
      <stop
         style="stop-color:#8b8b8b;stop-opacity:1"
         offset="0"
         id="stop875" />
      <stop
         style="stop-color:#e1e1e1;stop-opacity:1"
         offset="1"
         id="stop877" />
    </linearGradient>
    <linearGradient
       inkscape:collect="always"
       xlink:href="#linearGradient873"
       id="linearGradient965"
       gradientUnits="userSpaceOnUse"
       x1="28.387375"
       y1="1046.0605"
       x2="28.387375"
       y2="1011.8457" />
    <linearGradient
       inkscape:collect="always"
       xlink:href="#linearGradient886"
       id="linearGradient892"
       x1="-27.5"
       y1="16.875"
       x2="-27.5"
       y2="37"
       gradientUnits="userSpaceOnUse"
       gradientTransform="matrix(0.94674517,0,0,0.94674517,53.053242,1003.3326)" />
    <linearGradient
       inkscape:collect="always"
       id="linearGradient886">
      <stop
         style="stop-color:#535353;stop-opacity:1"
         offset="0"
         id="stop888" />
      <stop
         style="stop-color:#f0f0f0;stop-opacity:1"
         offset="1"
         id="stop890" />
    </linearGradient>
    <linearGradient
       inkscape:collect="always"
       xlink:href="#linearGradient873"
       id="linearGradient994"
       gradientUnits="userSpaceOnUse"
       x1="28.387375"
       y1="1046.0605"
       x2="28.387375"
       y2="1011.8457" />
    <linearGradient
       inkscape:collect="always"
       xlink:href="#linearGradient873"
       id="linearGradient992"
       gradientUnits="userSpaceOnUse"
       x1="28.387375"
       y1="1046.0605"
       x2="28.387375"
       y2="1011.8457" />
    <linearGradient
       inkscape:collect="always"
       xlink:href="#linearGradient886"
       id="linearGradient996"
       gradientUnits="userSpaceOnUse"
       gradientTransform="matrix(0.94674517,0,0,0.94674517,53.053242,1003.3326)"
       x1="-27.5"
       y1="16.875"
       x2="-27.5"
       y2="37" />
    <linearGradient
       inkscape:collect="always"
       xlink:href="#linearGradient873"
       id="linearGradient1016"
       gradientUnits="userSpaceOnUse"
       x1="28.387375"
       y1="1046.0605"
       x2="28.387375"
       y2="1011.8457" />
    <linearGradient
       inkscape:collect="always"
       xlink:href="#linearGradient873"
       id="linearGradient1014"
       gradientUnits="userSpaceOnUse"
       x1="28.387375"
       y1="1046.0605"
       x2="28.387375"
       y2="1011.8457" />
    <linearGradient
       inkscape:collect="always"
       xlink:href="#linearGradient886"
       id="linearGradient1018"
       gradientUnits="userSpaceOnUse"
       gradientTransform="matrix(0.94674517,0,0,0.94674517,53.053242,1003.3326)"
       x1="-27.5"
       y1="16.875"
       x2="-27.5"
       y2="37" />
    <linearGradient
       inkscape:collect="always"
       xlink:href="#linearGradient865"
       id="linearGradient997"
       x1="24.088388"
       y1="1050.5238"
       x2="24.088388"
       y2="1006.4419"
       gradientUnits="userSpaceOnUse" />
  </defs>
  <sodipodi:namedview
     id="base"
     pagecolor="#ffffff"
     bordercolor="#666666"
     borderopacity="1.0"
     inkscape:pageopacity="0.0"
     inkscape:pageshadow="2"
     inkscape:zoom="1.4142136"
     inkscape:cx="-2.1812107"
     inkscape:cy="-59.994786"
     inkscape:document-units="px"
     inkscape:current-layer="layer1"
     showgrid="false"
     inkscape:window-width="1366"
     inkscape:window-height="718"
     inkscape:window-x="0"
     inkscape:window-y="28"
     inkscape:window-maximized="1">
    <inkscape:grid
       type="xygrid"
       id="grid3850" />
  </sodipodi:namedview>
  <metadata
     id="metadata7">
    <rdf:RDF>
      <cc:Work
         rdf:about="">
        <dc:format>image/svg+xml</dc:format>
        <dc:type
           rdf:resource="http://purl.org/dc/dcmitype/StillImage" />
        <dc:title />
      </cc:Work>
    </rdf:RDF>
  </metadata>
  <g
     inkscape:label="Capa 1"
     inkscape:groupmode="layer"
     id="layer1"
     transform="translate(0,-1004.3622)">
    <rect
       style="color:#000000;fill:#333333;fill-opacity:1;fill-rule:nonzero;stroke:none;stroke-width:0.2;marker:none;visibility:visible;display:inline;overflow:visible;enable-background:accumulate"
       id="rect6294"
       width="45.5"
       height="45.5"
       x="1.25"
       y="1005.6122"
       ry="6.3565426" />
    <rect
       ry="5.8565426"
       y="1006.1122"
       x="1.75"
       height="44.5"
       width="44.5"
       id="rect6296"
       style="color:#000000;fill:url(#linearGradient997);fill-opacity:1;fill-rule:nonzero;stroke:none;stroke-width:0.2;marker:none;visibility:visible;display:inline;overflow:visible;enable-background:accumulate" />
    <path
       style="color:#000000;fill:#000000;fill-opacity:0.15686275;fill-rule:nonzero;stroke:none;stroke-width:0.2;marker:none;visibility:visible;display:inline;overflow:visible;enable-background:accumulate"
       d="M 8.34375 1.75 C 7.2603664 2.2375731 6.5 3.3285894 6.5 4.59375 C 6.5 6.31385 7.9048633 7.71875 9.625 7.71875 C 11.345137 7.71875 12.75 6.31385 12.75 4.59375 C 12.75 3.3285894 11.989634 2.2375731 10.90625 1.75 L 8.34375 1.75 z M 17.9375 1.75 C 16.854117 2.2375731 16.09375 3.3285894 16.09375 4.59375 C 16.09375 6.31385 17.498614 7.71875 19.21875 7.71875 C 20.938887 7.71875 22.3125 6.31385 22.3125 4.59375 C 22.3125 3.3285894 21.552134 2.2375731 20.46875 1.75 L 17.9375 1.75 z M 27.53125 1.75 C 26.447866 2.2375731 25.6875 3.3285894 25.6875 4.59375 C 25.6875 6.31385 27.061113 7.71875 28.78125 7.71875 C 30.501386 7.71875 31.90625 6.31385 31.90625 4.59375 C 31.90625 3.3285894 31.145883 2.2375731 30.0625 1.75 L 27.53125 1.75 z M 37.09375 1.75 C 36.010367 2.2375731 35.25 3.3285894 35.25 4.59375 C 35.25 6.31385 36.654864 7.71875 38.375 7.71875 C 40.095136 7.71875 41.5 6.31385 41.5 4.59375 C 41.5 3.3285894 40.739633 2.2375731 39.65625 1.75 L 37.09375 1.75 z M 3.0625 3.90625 C 2.3261138 4.8131728 1.867016 5.9454613 1.78125 7.1875 C 2.6124633 6.6268539 3.15625 5.6690199 3.15625 4.59375 C 3.15625 4.3568564 3.1133895 4.1282748 3.0625 3.90625 z M 44.9375 3.90625 C 44.886611 4.1282748 44.84375 4.3568564 44.84375 4.59375 C 44.84375 5.6690199 45.387537 6.6268539 46.21875 7.1875 C 46.132984 5.9454613 45.673886 4.8131728 44.9375 3.90625 z M 9.625 11.0625 C 7.9048633 11.0625 6.5 12.4674 6.5 14.1875 C 6.5 15.9076 7.9048633 17.28125 9.625 17.28125 C 11.345137 17.28125 12.75 15.9076 12.75 14.1875 C 12.75 12.4674 11.345137 11.0625 9.625 11.0625 z M 19.21875 11.0625 C 17.498614 11.0625 16.09375 12.4674 16.09375 14.1875 C 16.09375 15.9076 17.498614 17.28125 19.21875 17.28125 C 20.938887 17.28125 22.3125 15.9076 22.3125 14.1875 C 22.3125 12.4674 20.938887 11.0625 19.21875 11.0625 z M 28.78125 11.0625 C 27.061113 11.0625 25.6875 12.4674 25.6875 14.1875 C 25.6875 15.9076 27.061113 17.28125 28.78125 17.28125 C 30.501386 17.28125 31.90625 15.9076 31.90625 14.1875 C 31.90625 12.4674 30.501386 11.0625 28.78125 11.0625 z M 38.375 11.0625 C 36.654864 11.0625 35.25 12.4674 35.25 14.1875 C 35.25 15.9076 36.654864 17.28125 38.375 17.28125 C 40.095136 17.28125 41.5 15.9076 41.5 14.1875 C 41.5 12.4674 40.095136 11.0625 38.375 11.0625 z M 1.75 11.59375 L 1.75 16.78125 C 2.5983858 16.223396 3.15625 15.27592 3.15625 14.1875 C 3.1562501 13.103083 2.5932818 12.152455 1.75 11.59375 z M 46.25 11.59375 C 45.406718 12.152455 44.84375 13.103083 44.84375 14.1875 C 44.84375 15.27592 45.401614 16.223396 46.25 16.78125 L 46.25 11.59375 z M 9.625 20.65625 C 7.9048633 20.65625 6.5 22.0299 6.5 23.75 C 6.5 25.4701 7.9048633 26.875 9.625 26.875 C 11.345137 26.875 12.75 25.4701 12.75 23.75 C 12.75 22.0299 11.345137 20.65625 9.625 20.65625 z M 19.21875 20.65625 C 17.498614 20.65625 16.09375 22.0299 16.09375 23.75 C 16.09375 25.4701 17.498614 26.875 19.21875 26.875 C 20.938887 26.875 22.3125 25.4701 22.3125 23.75 C 22.3125 22.0299 20.938887 20.65625 19.21875 20.65625 z M 28.78125 20.65625 C 27.061113 20.65625 25.6875 22.0299 25.6875 23.75 C 25.6875 25.4701 27.061113 26.875 28.78125 26.875 C 30.501386 26.875 31.90625 25.4701 31.90625 23.75 C 31.90625 22.0299 30.501386 20.65625 28.78125 20.65625 z M 38.375 20.65625 C 36.654864 20.65625 35.25 22.0299 35.25 23.75 C 35.25 25.4701 36.654864 26.875 38.375 26.875 C 40.095136 26.875 41.5 25.4701 41.5 23.75 C 41.5 22.0299 40.095136 20.65625 38.375 20.65625 z M 1.75 21.15625 L 1.75 26.34375 C 2.5932817 25.78502 3.15625 24.834495 3.15625 23.75 C 3.1562501 22.661659 2.5983859 21.714078 1.75 21.15625 z M 46.25 21.15625 C 45.401614 21.714078 44.84375 22.661659 44.84375 23.75 C 44.84375 24.834495 45.406718 25.78502 46.25 26.34375 L 46.25 21.15625 z M 9.625 30.21875 C 7.9048633 30.21875 6.5 31.62365 6.5 33.34375 C 6.5 35.06395 7.9048633 36.46875 9.625 36.46875 C 11.345137 36.46875 12.75 35.06395 12.75 33.34375 C 12.75 31.62365 11.345137 30.21875 9.625 30.21875 z M 19.21875 30.21875 C 17.498614 30.21875 16.09375 31.62365 16.09375 33.34375 C 16.09375 35.06395 17.498614 36.46875 19.21875 36.46875 C 20.938887 36.46875 22.3125 35.06395 22.3125 33.34375 C 22.3125 31.62365 20.938887 30.21875 19.21875 30.21875 z M 28.78125 30.21875 C 27.061113 30.21875 25.6875 31.62365 25.6875 33.34375 C 25.6875 35.06395 27.061113 36.46875 28.78125 36.46875 C 30.501386 36.46875 31.90625 35.06395 31.90625 33.34375 C 31.90625 31.62365 30.501386 30.21875 28.78125 30.21875 z M 38.375 30.21875 C 36.654864 30.21875 35.25 31.62365 35.25 33.34375 C 35.25 35.06395 36.654864 36.46875 38.375 36.46875 C 40.095136 36.46875 41.5 35.06395 41.5 33.34375 C 41.5 31.62365 40.095136 30.21875 38.375 30.21875 z M 1.75 30.75 L 1.75 35.9375 C 2.5932817 35.378771 3.15625 34.428324 3.15625 33.34375 C 3.1562501 32.259333 2.5932818 31.308678 1.75 30.75 z M 46.25 30.75 C 45.406718 31.308678 44.84375 32.259333 44.84375 33.34375 C 44.84375 34.428324 45.406718 35.378771 46.25 35.9375 L 46.25 30.75 z M 9.625 39.8125 C 7.9048633 39.8125 6.5 41.2174 6.5 42.9375 C 6.5 44.6576 7.9048633 46.03125 9.625 46.03125 C 11.345137 46.03125 12.75 44.6576 12.75 42.9375 C 12.75 41.2174 11.345137 39.8125 9.625 39.8125 z M 19.21875 39.8125 C 17.498614 39.8125 16.09375 41.2174 16.09375 42.9375 C 16.09375 44.6576 17.498614 46.03125 19.21875 46.03125 C 20.938887 46.03125 22.3125 44.6576 22.3125 42.9375 C 22.3125 41.2174 20.938887 39.8125 19.21875 39.8125 z M 28.78125 39.8125 C 27.061113 39.8125 25.6875 41.2174 25.6875 42.9375 C 25.6875 44.6576 27.061113 46.03125 28.78125 46.03125 C 30.501386 46.03125 31.90625 44.6576 31.90625 42.9375 C 31.90625 41.2174 30.501386 39.8125 28.78125 39.8125 z M 38.375 39.8125 C 36.654864 39.8125 35.25 41.2174 35.25 42.9375 C 35.25 44.6576 36.654864 46.03125 38.375 46.03125 C 40.095136 46.03125 41.5 44.6576 41.5 42.9375 C 41.5 41.2174 40.095136 39.8125 38.375 39.8125 z M 1.75 40.34375 L 1.75 40.40625 C 1.75 41.752804 2.2104444 42.981594 2.96875 43.96875 C 3.0870145 43.641161 3.15625 43.304536 3.15625 42.9375 C 3.1562501 41.853083 2.5932818 40.902455 1.75 40.34375 z M 46.25 40.34375 C 45.406718 40.902455 44.84375 41.853083 44.84375 42.9375 C 44.84375 43.304536 44.912986 43.641161 45.03125 43.96875 C 45.789556 42.981594 46.25 41.752804 46.25 40.40625 L 46.25 40.34375 z "
       transform="translate(0,1004.3622)"
       id="path918" />
    <path
       style="color:#000000;fill:#ffffff;fill-opacity:0.07692309;fill-rule:nonzero;stroke:none;stroke-width:0.2;marker:none;visibility:visible;display:inline;overflow:visible;enable-background:accumulate"
       d="M 3.125 4.84375 C 3.0494265 5.8186628 2.5410636 6.6693388 1.78125 7.1875 C 1.7718279 7.3239484 1.75 7.454827 1.75 7.59375 L 1.75 7.65625 C 2.5932818 7.0975198 3.15625 6.1469954 3.15625 5.0625 C 3.15625 4.9801 3.1312435 4.92425 3.125 4.84375 z M 6.53125 4.84375 C 6.52502 4.92375 6.5 4.9804 6.5 5.0625 C 6.5 6.7826 7.9048631 8.1875 9.625 8.1875 C 11.345136 8.1875 12.75 6.7826 12.75 5.0625 C 12.75 4.9805 12.725 4.92425 12.71875 4.84375 C 12.594253 6.44975 11.262996 7.71875 9.625 7.71875 C 7.9870052 7.71875 6.655747 6.44975 6.53125 4.84375 z M 16.125 4.84375 C 16.1188 4.92375 16.09375 4.9804 16.09375 5.0625 C 16.09375 6.7826 17.498614 8.1875 19.21875 8.1875 C 20.938887 8.1875 22.3125 6.7826 22.3125 5.0625 C 22.3125 4.9805 22.2875 4.92425 22.28125 4.84375 C 22.156753 6.44975 20.856746 7.71875 19.21875 7.71875 C 17.58076 7.71875 16.249497 6.44975 16.125 4.84375 z M 25.71875 4.84375 C 25.71255 4.92375 25.6875 4.9804 25.6875 5.0625 C 25.6875 6.7826 27.061113 8.1875 28.78125 8.1875 C 30.501386 8.1875 31.90625 6.7826 31.90625 5.0625 C 31.90625 4.9805 31.88125 4.92425 31.875 4.84375 C 31.750503 6.44975 30.419244 7.71875 28.78125 7.71875 C 27.143259 7.71875 25.843247 6.44975 25.71875 4.84375 z M 35.28125 4.84375 C 35.27505 4.92375 35.25 4.9804 35.25 5.0625 C 35.25 6.7826 36.654863 8.1875 38.375 8.1875 C 40.095136 8.1875 41.5 6.7826 41.5 5.0625 C 41.5 4.9805 41.475 4.92425 41.46875 4.84375 C 41.344252 6.44975 40.012995 7.71875 38.375 7.71875 C 36.737008 7.71875 35.405746 6.44975 35.28125 4.84375 z M 44.875 4.84375 C 44.8688 4.92375 44.84375 4.9804 44.84375 5.0625 C 44.84375 6.1469954 45.406718 7.0975198 46.25 7.65625 L 46.25 7.59375 C 46.25 7.454827 46.228172 7.3239484 46.21875 7.1875 C 45.458938 6.6693388 44.950574 5.8186628 44.875 4.84375 z M 3.125 14.40625 C 3.048656 15.391102 2.5225937 16.264664 1.75 16.78125 L 1.75 17.25 C 2.5932818 16.691319 3.15625 15.740824 3.15625 14.65625 C 3.15625 14.57375 3.1312435 14.48675 3.125 14.40625 z M 6.53125 14.40625 C 6.52502 14.48725 6.5 14.57405 6.5 14.65625 C 6.5 16.37635 7.9048631 17.78125 9.625 17.78125 C 11.345136 17.78125 12.75 16.37635 12.75 14.65625 C 12.75 14.57325 12.725 14.48675 12.71875 14.40625 C 12.594253 16.01215 11.262996 17.28125 9.625 17.28125 C 7.9870052 17.28125 6.655747 16.01215 6.53125 14.40625 z M 16.125 14.40625 C 16.1188 14.48725 16.09375 14.57405 16.09375 14.65625 C 16.09375 16.37635 17.498614 17.78125 19.21875 17.78125 C 20.938887 17.78125 22.3125 16.37635 22.3125 14.65625 C 22.3125 14.57325 22.2875 14.48675 22.28125 14.40625 C 22.156753 16.01215 20.856746 17.28125 19.21875 17.28125 C 17.58076 17.28125 16.249497 16.01215 16.125 14.40625 z M 25.71875 14.40625 C 25.71255 14.48725 25.6875 14.57405 25.6875 14.65625 C 25.6875 16.37635 27.061113 17.78125 28.78125 17.78125 C 30.501386 17.78125 31.90625 16.37635 31.90625 14.65625 C 31.90625 14.57325 31.88125 14.48675 31.875 14.40625 C 31.750503 16.01215 30.419244 17.28125 28.78125 17.28125 C 27.143259 17.28125 25.843247 16.01215 25.71875 14.40625 z M 35.28125 14.40625 C 35.27505 14.48725 35.25 14.57405 35.25 14.65625 C 35.25 16.37635 36.654863 17.78125 38.375 17.78125 C 40.095136 17.78125 41.5 16.37635 41.5 14.65625 C 41.5 14.57325 41.475 14.48675 41.46875 14.40625 C 41.344252 16.01215 40.012995 17.28125 38.375 17.28125 C 36.737008 17.28125 35.405746 16.01215 35.28125 14.40625 z M 44.875 14.40625 C 44.8688 14.48725 44.84375 14.57405 44.84375 14.65625 C 44.84375 15.740824 45.406718 16.691319 46.25 17.25 L 46.25 16.78125 C 45.477408 16.264664 44.951345 15.391102 44.875 14.40625 z M 3.125 24 C 3.04874 24.983769 2.521198 25.826999 1.75 26.34375 L 1.75 26.84375 C 2.5983859 26.285896 3.15625 25.33842 3.15625 24.25 C 3.15625 24.1676 3.1312435 24.0805 3.125 24 z M 6.53125 24 C 6.52502 24.081 6.5 24.1679 6.5 24.25 C 6.5 25.9701 7.9048631 27.34375 9.625 27.34375 C 11.345136 27.34375 12.75 25.9701 12.75 24.25 C 12.75 24.167 12.725 24.0805 12.71875 24 C 12.594253 25.606 11.262996 26.875 9.625 26.875 C 7.9870052 26.875 6.655747 25.606 6.53125 24 z M 16.125 24 C 16.1188 24.081 16.09375 24.1679 16.09375 24.25 C 16.09375 25.9701 17.498614 27.34375 19.21875 27.34375 C 20.938887 27.34375 22.3125 25.9701 22.3125 24.25 C 22.3125 24.167 22.2875 24.0805 22.28125 24 C 22.156753 25.606 20.856746 26.875 19.21875 26.875 C 17.58076 26.875 16.249497 25.606 16.125 24 z M 25.71875 24 C 25.71255 24.081 25.6875 24.1679 25.6875 24.25 C 25.6875 25.9701 27.061113 27.34375 28.78125 27.34375 C 30.501386 27.34375 31.90625 25.9701 31.90625 24.25 C 31.90625 24.167 31.88125 24.0805 31.875 24 C 31.750503 25.606 30.419244 26.875 28.78125 26.875 C 27.143259 26.875 25.843247 25.606 25.71875 24 z M 35.28125 24 C 35.27505 24.081 35.25 24.1679 35.25 24.25 C 35.25 25.9701 36.654863 27.34375 38.375 27.34375 C 40.095136 27.34375 41.5 25.9701 41.5 24.25 C 41.5 24.167 41.475 24.0805 41.46875 24 C 41.344252 25.606 40.012995 26.875 38.375 26.875 C 36.737008 26.875 35.405746 25.606 35.28125 24 z M 44.875 24 C 44.8688 24.081 44.84375 24.1679 44.84375 24.25 C 44.84375 25.33842 45.401614 26.285896 46.25 26.84375 L 46.25 26.34375 C 45.478804 25.826999 44.951261 24.983769 44.875 24 z M 3.125 33.59375 C 3.048656 34.578602 2.5225937 35.420932 1.75 35.9375 L 1.75 36.40625 C 2.5932818 35.84752 3.15625 34.896995 3.15625 33.8125 C 3.15625 33.7301 3.1312435 33.67425 3.125 33.59375 z M 6.53125 33.59375 C 6.52502 33.67475 6.5 33.7304 6.5 33.8125 C 6.5 35.5326 7.9048631 36.9375 9.625 36.9375 C 11.345136 36.9375 12.75 35.5326 12.75 33.8125 C 12.75 33.7305 12.725 33.67425 12.71875 33.59375 C 12.594253 35.19975 11.262996 36.46875 9.625 36.46875 C 7.9870052 36.46875 6.655747 35.19975 6.53125 33.59375 z M 16.125 33.59375 C 16.1188 33.67475 16.09375 33.7304 16.09375 33.8125 C 16.09375 35.5326 17.498614 36.9375 19.21875 36.9375 C 20.938887 36.9375 22.3125 35.5326 22.3125 33.8125 C 22.3125 33.7305 22.2875 33.67425 22.28125 33.59375 C 22.156753 35.19975 20.856746 36.46875 19.21875 36.46875 C 17.58076 36.46875 16.249497 35.19975 16.125 33.59375 z M 25.71875 33.59375 C 25.71255 33.67475 25.6875 33.7304 25.6875 33.8125 C 25.6875 35.5326 27.061113 36.9375 28.78125 36.9375 C 30.501386 36.9375 31.90625 35.5326 31.90625 33.8125 C 31.90625 33.7305 31.88125 33.67425 31.875 33.59375 C 31.750503 35.19975 30.419244 36.46875 28.78125 36.46875 C 27.143259 36.46875 25.843247 35.19975 25.71875 33.59375 z M 35.28125 33.59375 C 35.27505 33.67475 35.25 33.7304 35.25 33.8125 C 35.25 35.5326 36.654863 36.9375 38.375 36.9375 C 40.095136 36.9375 41.5 35.5326 41.5 33.8125 C 41.5 33.7305 41.475 33.67425 41.46875 33.59375 C 41.344252 35.19975 40.012995 36.46875 38.375 36.46875 C 36.737008 36.46875 35.405746 35.19975 35.28125 33.59375 z M 44.875 33.59375 C 44.8688 33.67475 44.84375 33.7304 44.84375 33.8125 C 44.84375 34.896995 45.406718 35.84752 46.25 36.40625 L 46.25 35.9375 C 45.477408 35.420932 44.951345 34.578602 44.875 33.59375 z M 3.125 43.15625 C 3.1036716 43.431367 3.0555365 43.718154 2.96875 43.96875 C 3.0008114 44.010487 3.0293467 44.052919 3.0625 44.09375 C 3.1128644 43.873159 3.15625 43.641961 3.15625 43.40625 C 3.15625 43.32385 3.1312435 43.23675 3.125 43.15625 z M 6.53125 43.15625 C 6.52502 43.23725 6.5 43.32415 6.5 43.40625 C 6.5 44.671411 7.2603664 45.762427 8.34375 46.25 L 10.90625 46.25 C 11.989634 45.762427 12.75 44.671411 12.75 43.40625 C 12.75 43.32425 12.725 43.23675 12.71875 43.15625 C 12.594253 44.76215 11.262996 46.03125 9.625 46.03125 C 7.9870052 46.03125 6.655747 44.76215 6.53125 43.15625 z M 16.125 43.15625 C 16.1188 43.23725 16.09375 43.32415 16.09375 43.40625 C 16.09375 44.671411 16.854117 45.762427 17.9375 46.25 L 20.46875 46.25 C 21.552134 45.762427 22.3125 44.671411 22.3125 43.40625 C 22.3125 43.32425 22.2875 43.23675 22.28125 43.15625 C 22.156753 44.76215 20.856746 46.03125 19.21875 46.03125 C 17.58076 46.03125 16.249497 44.76215 16.125 43.15625 z M 25.71875 43.15625 C 25.71255 43.23725 25.6875 43.32415 25.6875 43.40625 C 25.6875 44.671411 26.447866 45.762427 27.53125 46.25 L 30.0625 46.25 C 31.145883 45.762427 31.90625 44.671411 31.90625 43.40625 C 31.90625 43.32425 31.88125 43.23675 31.875 43.15625 C 31.750503 44.76215 30.419244 46.03125 28.78125 46.03125 C 27.143259 46.03125 25.843247 44.76215 25.71875 43.15625 z M 35.28125 43.15625 C 35.27505 43.23725 35.25 43.32415 35.25 43.40625 C 35.25 44.671411 36.010367 45.762427 37.09375 46.25 L 39.65625 46.25 C 40.739633 45.762427 41.5 44.671411 41.5 43.40625 C 41.5 43.32425 41.475 43.23675 41.46875 43.15625 C 41.344252 44.76215 40.012995 46.03125 38.375 46.03125 C 36.737008 46.03125 35.405746 44.76215 35.28125 43.15625 z M 44.875 43.15625 C 44.8688 43.23725 44.84375 43.32415 44.84375 43.40625 C 44.84375 43.641961 44.887136 43.873159 44.9375 44.09375 C 44.970653 44.052919 44.999189 44.010487 45.03125 43.96875 C 44.944463 43.718154 44.896329 43.431367 44.875 43.15625 z "
       transform="translate(0,1004.3622)"
       id="path954" />
    <g
       id="g1020"
       transform="matrix(0.65655994,0,0,0.65655994,3.2431424,357.67582)">
      <g
         id="g967">
        <g
           id="g910"
           inkscape:label="Capa 1"
           transform="matrix(0.97649957,0,0,0.97649957,0.56401169,24.166997)"
           style="fill:#000000;fill-opacity:0.5372549">
          <path
             sodipodi:nodetypes="ssssssssscsssscccsccccssccsssssccssscsscssccsssscsss"
             inkscape:connector-curvature="0"
             id="path912"
             d="m 19.665365,1044.6142 c 0,-0.3157 2.108324,-2.7129 2.884039,-3.2791 0.422068,-0.308 1.028953,-0.5603 1.34863,-0.5603 0.7959,0 2.14478,1.0414 3.438711,2.6546 1.230518,1.5342 1.193845,1.5301 3.659737,0.4271 1.237132,-0.5534 1.401061,-0.6967 1.295599,-1.1335 -0.315449,-1.3062 -0.401135,-3.688 -0.164318,-4.5674 0.409769,-1.5217 0.888375,-1.7052 4.035084,-1.5471 3.038234,0.1528 2.725143,0.3384 3.671293,-2.1753 l 0.531875,-1.4132 -1.643301,-1.3592 c -1.96435,-1.6248 -2.666331,-2.6393 -2.463996,-3.5604 0.135568,-0.6172 2.470169,-3.0679 3.637163,-3.8179 0.491021,-0.3155 0.499165,-0.3663 0.195578,-1.2205 -0.174229,-0.4902 -0.529657,-1.3433 -0.789842,-1.8952 l -0.473061,-1.0039 -2.888194,0 c -3.820093,0 -3.685096,0.1382 -3.691193,-3.7313 l -0.0046,-2.9349 -1.875973,-0.7598 -1.875971,-0.7598 -0.66864,0.8628 c -0.367741,0.4748 -1.198728,1.3892 -1.846629,2.0328 -0.982686,0.9757 -1.310819,1.1697 -1.979085,1.1697 -0.668224,0 -1.01744,-0.2064 -2.10555,-1.2444 -0.717456,-0.6842 -1.537171,-1.5894 -1.821592,-2.0111 -0.600896,-0.8912 -0.729437,-0.8839 -3.107126,0.1792 -1.066279,0.4768 -1.516036,0.791 -1.434991,1.0022 0.06493,0.1693 0.182418,1.2313 0.261103,2.3605 0.111898,1.6057 0.06741,2.2332 -0.204186,2.8805 -0.442299,1.0542 -0.852917,1.1566 -4.067942,1.0148 l -2.5303924,-0.1116 -0.6768044,1.6258 c -0.372246,0.8941 -0.676808,1.7674 -0.676808,1.9405 0,0.1735 0.616929,0.8069 1.3709532,1.4081 1.6616536,1.3248 2.6395196,2.611 2.6395196,3.4712 0,0.7341 -1.173516,2.1227 -2.9176124,3.4527 -0.6010736,0.4585 -1.0928604,0.9702 -1.0928604,1.1374 0,0.1671 0.30844,1.0448 0.6854236,1.9504 l 0.6854214,1.6465 2.5301598,-0.1354 c 4.110716,-0.2206 4.520947,0.195 4.255089,4.3069 l -0.148196,2.2922 0.941258,0.4802 C 18.311463,1044.572 19.665365,1044.9778 19.665365,1044.6142 z m 1.376739,-10.3158 c -2.436828,-1.2178 -3.606799,-3.1613 -3.602602,-5.9847 0.0027,-1.8712 0.665187,-3.3442 2.094155,-4.656 1.429133,-1.3122 2.360325,-1.6733 4.364986,-1.693 1.398416,-0.013 1.877547,0.085 2.936913,0.6049 2.342573,1.1504 3.602851,3.1866 3.614624,5.8396 C 30.472063,1033.3415 25.435914,1036.494 21.042104,1034.2984 Z"
             style="fill:#000000;fill-opacity:0.5372549" />
        </g>
        <g
           style="fill:url(#linearGradient879);fill-opacity:1"
           transform="matrix(0.92449625,0,0,0.92449625,1.8120913,77.645244)"
           inkscape:label="Capa 1"
           id="g905">
          <path
             style="fill:url(#linearGradient965);fill-opacity:1"
             d="m 19.665365,1044.6142 c 0,-0.3157 2.108324,-2.7129 2.884039,-3.2791 0.422068,-0.308 1.028953,-0.5603 1.34863,-0.5603 0.7959,0 2.14478,1.0414 3.438711,2.6546 1.230518,1.5342 1.193845,1.5301 3.659737,0.4271 1.237132,-0.5534 1.401061,-0.6967 1.295599,-1.1335 -0.315449,-1.3062 -0.401135,-3.688 -0.164318,-4.5674 0.409769,-1.5217 0.888375,-1.7052 4.035084,-1.5471 3.038234,0.1528 2.725143,0.3384 3.671293,-2.1753 l 0.531875,-1.4132 -1.643301,-1.3592 c -1.96435,-1.6248 -2.666331,-2.6393 -2.463996,-3.5604 0.135568,-0.6172 2.470169,-3.0679 3.637163,-3.8179 0.491021,-0.3155 0.499165,-0.3663 0.195578,-1.2205 -0.174229,-0.4902 -0.529657,-1.3433 -0.789842,-1.8952 l -0.473061,-1.0039 -2.888194,0 c -3.820093,0 -3.685096,0.1382 -3.691193,-3.7313 l -0.0046,-2.9349 -1.875973,-0.7598 -1.875971,-0.7598 -0.66864,0.8628 c -0.367741,0.4748 -1.198728,1.3892 -1.846629,2.0328 -0.982686,0.9757 -1.310819,1.1697 -1.979085,1.1697 -0.668224,0 -1.01744,-0.2064 -2.10555,-1.2444 -0.717456,-0.6842 -1.537171,-1.5894 -1.821592,-2.0111 -0.600896,-0.8912 -0.729437,-0.8839 -3.107126,0.1792 -1.066279,0.4768 -1.516036,0.791 -1.434991,1.0022 0.06493,0.1693 0.182418,1.2313 0.261103,2.3605 0.111898,1.6057 0.06741,2.2332 -0.204186,2.8805 -0.442299,1.0542 -0.852917,1.1566 -4.067942,1.0148 l -2.5303924,-0.1116 -0.6768044,1.6258 c -0.372246,0.8941 -0.676808,1.7674 -0.676808,1.9405 0,0.1735 0.616929,0.8069 1.3709532,1.4081 1.6616536,1.3248 2.6395196,2.611 2.6395196,3.4712 0,0.7341 -1.173516,2.1227 -2.9176124,3.4527 -0.6010736,0.4585 -1.0928604,0.9702 -1.0928604,1.1374 0,0.1671 0.30844,1.0448 0.6854236,1.9504 l 0.6854214,1.6465 2.5301598,-0.1354 c 4.110716,-0.2206 4.520947,0.195 4.255089,4.3069 l -0.148196,2.2922 0.941258,0.4802 C 18.311463,1044.572 19.665365,1044.9778 19.665365,1044.6142 z m 1.376739,-10.3158 c -2.436828,-1.2178 -3.606799,-3.1613 -3.602602,-5.9847 0.0027,-1.8712 0.665187,-3.3442 2.094155,-4.656 1.429133,-1.3122 2.360325,-1.6733 4.364986,-1.693 1.398416,-0.013 1.877547,0.085 2.936913,0.6049 2.342573,1.1504 3.602851,3.1866 3.614624,5.8396 C 30.472063,1033.3415 25.435914,1036.494 21.042104,1034.2984 Z"
             id="path907"
             inkscape:connector-curvature="0"
             sodipodi:nodetypes="ssssssssscsssscccsccccssccsssssccssscsscssccsssscsss" />
        </g>
        <path
           style="color:#000000;fill:url(#linearGradient892);fill-opacity:1;fill-rule:nonzero;stroke:none;stroke-width:0.2;marker:none;visibility:visible;display:inline;overflow:visible;enable-background:accumulate"
           d="m 24,1019.0723 c -5.130691,0 -9.289937,4.1592 -9.289937,9.2899 0,5.1307 4.159246,9.2899 9.289937,9.2899 5.13069,0 9.289937,-4.1592 9.289937,-9.2899 C 33.289937,1023.2315 29.13069,1019.0723 24,1019.0723 z m 0,1.8935 c 4.084945,0 7.396446,3.3115 7.396446,7.3964 0,4.0849 -3.311501,7.3965 -7.396446,7.3965 -4.084945,0 -7.396447,-3.3116 -7.396447,-7.3965 C 16.603553,1024.2773 19.915055,1020.9658 24,1020.9658 Z"
           id="path881"
           inkscape:connector-curvature="0" />
        <path
           style="color:#000000;fill:#ffffff;fill-opacity:1;fill-rule:nonzero;stroke:none;stroke-width:0.2;marker:none;visibility:visible;display:inline;overflow:visible;enable-background:accumulate"
           d="m 24,1019.0723 c -5.130691,0 -9.289937,4.1592 -9.289937,9.2899 0,5.1307 4.159246,9.2899 9.289937,9.2899 5.13069,0 9.289937,-4.1592 9.289937,-9.2899 C 33.289937,1023.2315 29.13069,1019.0723 24,1019.0723 z m 0,0.3846 c 4.918273,0 8.905321,3.987 8.905321,8.9053 0,4.9183 -3.987048,8.9054 -8.905321,8.9054 -4.918273,0 -8.905322,-3.9871 -8.905322,-8.9054 C 15.094678,1023.4439 19.081727,1019.4569 24,1019.4569 Z"
           id="path894"
           inkscape:connector-curvature="0" />
        <path
           style="fill:#ffffff;fill-opacity:0.5372549"
           d="m 28.14201,1013.2143 -0.621302,0.7988 c -0.339975,0.439 -1.087408,1.2689 -1.68639,1.8639 -0.74593,0.7406 -1.099421,0.9981 -1.53846,1.0651 0.09726,0.016 0.185317,0.03 0.295857,0.03 0.617809,0 0.925829,-0.1927 1.834319,-1.0947 0.598982,-0.595 1.346415,-1.4249 1.68639,-1.8639 l 0.473373,-0.6213 L 28.14201,1013.2143 z m -8.579878,0.1479 c -0.37392,0.022 -0.971923,0.2778 -2.071005,0.7692 -0.985771,0.4408 -1.406286,0.722 -1.331361,0.9172 0.06002,0.1565 0.163943,1.1455 0.236687,2.1894 0.10345,1.4844 0.07358,2.0643 -0.177515,2.6627 -0.294536,0.702 -0.590291,0.9429 -1.834319,0.9763 1.699823,0.019 2.093808,-0.1844 2.426035,-0.9763 0.251093,-0.5984 0.280964,-1.1783 0.177514,-2.6627 -0.07274,-1.0439 -0.176662,-2.0329 -0.236686,-2.1894 -0.07492,-0.1952 0.34559,-0.4764 1.33136,-0.9172 0.824313,-0.3685 1.37338,-0.6083 1.745562,-0.71 C 19.746337,1013.3895 19.671432,1013.3559 19.562132,1013.3622 z m -9.437866,7.3669 -0.6213014,1.5088 c -0.34414,0.8267 -0.6213015,1.6448 -0.6213015,1.8048 0,0.1604 0.5455105,0.7459 1.2426029,1.3018 1.536192,1.2248 2.45562,2.4001 2.45562,3.1952 0,0.6787 -1.079896,1.9657 -2.6923062,3.1953 -0.5556903,0.4238 -1.0059167,0.9105 -1.0059167,1.0651 0,0.1544 0.2727816,0.9379 0.6213015,1.7751 l 0.6213014,1.5385 0.591716,-0.03 -0.621302,-1.5089 c -0.3485196,-0.8372 -0.6213012,-1.6207 -0.6213012,-1.7751 0,-0.1546 0.4502265,-0.6413 1.0059172,-1.0651 1.61241,-1.2296 2.692306,-2.5166 2.692306,-3.1953 0,-0.7951 -0.919428,-1.9704 -2.45562,-3.1952 -0.697093,-0.5559 -1.2426032,-1.1414 -1.2426032,-1.3018 0,-0.16 0.2771614,-0.9781 0.6213012,-1.8048 l 0.621302,-1.4788 L 10.124266,1020.7291 z m 14.171592,1.7159 c 0.985231,0.014 1.47143,0.1372 2.337277,0.5622 2.165699,1.0635 3.33231,2.932 3.343194,5.3846 0.01517,3.4199 -2.599094,5.9176 -5.6213,6.0947 3.261747,0.1337 6.229161,-2.4556 6.213015,-6.0947 -0.01088,-2.4526 -1.177494,-4.3211 -3.343194,-5.3846 -0.97938,-0.4807 -1.429061,-0.5745 -2.721892,-0.5622 C 24.426129,1022.4458 24.369379,1022.4432 24.295858,1022.445 z m -9.97041,13.4912 c -0.09577,4e-4 -0.223277,0.027 -0.325444,0.03 2.346924,0.044 2.603352,0.7939 2.396449,3.994 l -0.118344,2.1302 0.857988,0.4438 c 1.521018,0.777 2.727661,1.1431 2.840236,0.8876 -0.516296,-0.1208 -1.311327,-0.4088 -2.24852,-0.8876 l -0.857988,-0.4438 0.118343,-2.1302 C 17.20323,1036.6336 16.940611,1035.9251 14.325448,1035.9362 z m 19.615376,0 c 0.386566,-7e-4 0.759184,0.032 1.301775,0.059 0.855219,0.043 1.403652,0.082 1.804733,0.059 -0.339125,-0.012 -0.679627,-0.032 -1.213018,-0.059 C 35.021232,1035.9545 34.420997,1035.9076 33.940824,1035.9362 z m -9.437866,3.9053 c -0.07389,0 -0.166015,0 -0.266272,0.03 0.747074,0.2172 1.804796,1.1351 2.840236,2.426 0.747978,0.9326 1.019871,1.2467 1.745561,1.0651 -0.355833,-0.099 -0.641139,-0.4259 -1.153846,-1.0651 C 26.472403,1040.8057 25.238765,1039.8415 24.502958,1039.8415 Z"
           id="path901"
           inkscape:connector-curvature="0" />
      </g>
      <g
         transform="matrix(0.72444437,-0.19411428,0.19411428,0.72444437,-174.25646,270.77973)"
         id="g976">
        <g
           style="fill:#000000;fill-opacity:0.5372549"
           transform="matrix(0.97649957,0,0,0.97649957,0.56401169,24.166997)"
           inkscape:label="Capa 1"
           id="g978">
          <path
             style="fill:#000000;fill-opacity:0.5372549"
             d="m 19.665365,1044.6142 c 0,-0.3157 2.108324,-2.7129 2.884039,-3.2791 0.422068,-0.308 1.028953,-0.5603 1.34863,-0.5603 0.7959,0 2.14478,1.0414 3.438711,2.6546 1.230518,1.5342 1.193845,1.5301 3.659737,0.4271 1.237132,-0.5534 1.401061,-0.6967 1.295599,-1.1335 -0.315449,-1.3062 -0.401135,-3.688 -0.164318,-4.5674 0.409769,-1.5217 0.888375,-1.7052 4.035084,-1.5471 3.038234,0.1528 2.725143,0.3384 3.671293,-2.1753 l 0.531875,-1.4132 -1.643301,-1.3592 c -1.96435,-1.6248 -2.666331,-2.6393 -2.463996,-3.5604 0.135568,-0.6172 2.470169,-3.0679 3.637163,-3.8179 0.491021,-0.3155 0.499165,-0.3663 0.195578,-1.2205 -0.174229,-0.4902 -0.529657,-1.3433 -0.789842,-1.8952 l -0.473061,-1.0039 -2.888194,0 c -3.820093,0 -3.685096,0.1382 -3.691193,-3.7313 l -0.0046,-2.9349 -1.875973,-0.7598 -1.875971,-0.7598 -0.66864,0.8628 c -0.367741,0.4748 -1.198728,1.3892 -1.846629,2.0328 -0.982686,0.9757 -1.310819,1.1697 -1.979085,1.1697 -0.668224,0 -1.01744,-0.2064 -2.10555,-1.2444 -0.717456,-0.6842 -1.537171,-1.5894 -1.821592,-2.0111 -0.600896,-0.8912 -0.729437,-0.8839 -3.107126,0.1792 -1.066279,0.4768 -1.516036,0.791 -1.434991,1.0022 0.06493,0.1693 0.182418,1.2313 0.261103,2.3605 0.111898,1.6057 0.06741,2.2332 -0.204186,2.8805 -0.442299,1.0542 -0.852917,1.1566 -4.067942,1.0148 l -2.5303924,-0.1116 -0.6768044,1.6258 c -0.372246,0.8941 -0.676808,1.7674 -0.676808,1.9405 0,0.1735 0.616929,0.8069 1.3709532,1.4081 1.6616536,1.3248 2.6395196,2.611 2.6395196,3.4712 0,0.7341 -1.173516,2.1227 -2.9176124,3.4527 -0.6010736,0.4585 -1.0928604,0.9702 -1.0928604,1.1374 0,0.1671 0.30844,1.0448 0.6854236,1.9504 l 0.6854214,1.6465 2.5301598,-0.1354 c 4.110716,-0.2206 4.520947,0.195 4.255089,4.3069 l -0.148196,2.2922 0.941258,0.4802 C 18.311463,1044.572 19.665365,1044.9778 19.665365,1044.6142 z m 1.376739,-10.3158 c -2.436828,-1.2178 -3.606799,-3.1613 -3.602602,-5.9847 0.0027,-1.8712 0.665187,-3.3442 2.094155,-4.656 1.429133,-1.3122 2.360325,-1.6733 4.364986,-1.693 1.398416,-0.013 1.877547,0.085 2.936913,0.6049 2.342573,1.1504 3.602851,3.1866 3.614624,5.8396 C 30.472063,1033.3415 25.435914,1036.494 21.042104,1034.2984 Z"
             id="path980"
             inkscape:connector-curvature="0"
             sodipodi:nodetypes="ssssssssscsssscccsccccssccsssssccssscsscssccsssscsss" />
        </g>
        <g
           id="g982"
           inkscape:label="Capa 1"
           transform="matrix(0.92449625,0,0,0.92449625,1.8120913,77.645244)"
           style="fill:url(#linearGradient994);fill-opacity:1">
          <path
             sodipodi:nodetypes="ssssssssscsssscccsccccssccsssssccssscsscssccsssscsss"
             inkscape:connector-curvature="0"
             id="path984"
             d="m 19.665365,1044.6142 c 0,-0.3157 2.108324,-2.7129 2.884039,-3.2791 0.422068,-0.308 1.028953,-0.5603 1.34863,-0.5603 0.7959,0 2.14478,1.0414 3.438711,2.6546 1.230518,1.5342 1.193845,1.5301 3.659737,0.4271 1.237132,-0.5534 1.401061,-0.6967 1.295599,-1.1335 -0.315449,-1.3062 -0.401135,-3.688 -0.164318,-4.5674 0.409769,-1.5217 0.888375,-1.7052 4.035084,-1.5471 3.038234,0.1528 2.725143,0.3384 3.671293,-2.1753 l 0.531875,-1.4132 -1.643301,-1.3592 c -1.96435,-1.6248 -2.666331,-2.6393 -2.463996,-3.5604 0.135568,-0.6172 2.470169,-3.0679 3.637163,-3.8179 0.491021,-0.3155 0.499165,-0.3663 0.195578,-1.2205 -0.174229,-0.4902 -0.529657,-1.3433 -0.789842,-1.8952 l -0.473061,-1.0039 -2.888194,0 c -3.820093,0 -3.685096,0.1382 -3.691193,-3.7313 l -0.0046,-2.9349 -1.875973,-0.7598 -1.875971,-0.7598 -0.66864,0.8628 c -0.367741,0.4748 -1.198728,1.3892 -1.846629,2.0328 -0.982686,0.9757 -1.310819,1.1697 -1.979085,1.1697 -0.668224,0 -1.01744,-0.2064 -2.10555,-1.2444 -0.717456,-0.6842 -1.537171,-1.5894 -1.821592,-2.0111 -0.600896,-0.8912 -0.729437,-0.8839 -3.107126,0.1792 -1.066279,0.4768 -1.516036,0.791 -1.434991,1.0022 0.06493,0.1693 0.182418,1.2313 0.261103,2.3605 0.111898,1.6057 0.06741,2.2332 -0.204186,2.8805 -0.442299,1.0542 -0.852917,1.1566 -4.067942,1.0148 l -2.5303924,-0.1116 -0.6768044,1.6258 c -0.372246,0.8941 -0.676808,1.7674 -0.676808,1.9405 0,0.1735 0.616929,0.8069 1.3709532,1.4081 1.6616536,1.3248 2.6395196,2.611 2.6395196,3.4712 0,0.7341 -1.173516,2.1227 -2.9176124,3.4527 -0.6010736,0.4585 -1.0928604,0.9702 -1.0928604,1.1374 0,0.1671 0.30844,1.0448 0.6854236,1.9504 l 0.6854214,1.6465 2.5301598,-0.1354 c 4.110716,-0.2206 4.520947,0.195 4.255089,4.3069 l -0.148196,2.2922 0.941258,0.4802 C 18.311463,1044.572 19.665365,1044.9778 19.665365,1044.6142 z m 1.376739,-10.3158 c -2.436828,-1.2178 -3.606799,-3.1613 -3.602602,-5.9847 0.0027,-1.8712 0.665187,-3.3442 2.094155,-4.656 1.429133,-1.3122 2.360325,-1.6733 4.364986,-1.693 1.398416,-0.013 1.877547,0.085 2.936913,0.6049 2.342573,1.1504 3.602851,3.1866 3.614624,5.8396 C 30.472063,1033.3415 25.435914,1036.494 21.042104,1034.2984 Z"
             style="fill:url(#linearGradient992);fill-opacity:1" />
        </g>
        <path
           inkscape:connector-curvature="0"
           id="path986"
           d="m 24,1019.0723 c -5.130691,0 -9.289937,4.1592 -9.289937,9.2899 0,5.1307 4.159246,9.2899 9.289937,9.2899 5.13069,0 9.289937,-4.1592 9.289937,-9.2899 C 33.289937,1023.2315 29.13069,1019.0723 24,1019.0723 z m 0,1.8935 c 4.084945,0 7.396446,3.3115 7.396446,7.3964 0,4.0849 -3.311501,7.3965 -7.396446,7.3965 -4.084945,0 -7.396447,-3.3116 -7.396447,-7.3965 C 16.603553,1024.2773 19.915055,1020.9658 24,1020.9658 Z"
           style="color:#000000;fill:url(#linearGradient996);fill-opacity:1;fill-rule:nonzero;stroke:none;stroke-width:0.2;marker:none;visibility:visible;display:inline;overflow:visible;enable-background:accumulate" />
        <path
           inkscape:connector-curvature="0"
           id="path988"
           d="m 24,1019.0723 c -5.130691,0 -9.289937,4.1592 -9.289937,9.2899 0,5.1307 4.159246,9.2899 9.289937,9.2899 5.13069,0 9.289937,-4.1592 9.289937,-9.2899 C 33.289937,1023.2315 29.13069,1019.0723 24,1019.0723 z m 0,0.3846 c 4.918273,0 8.905321,3.987 8.905321,8.9053 0,4.9183 -3.987048,8.9054 -8.905321,8.9054 -4.918273,0 -8.905322,-3.9871 -8.905322,-8.9054 C 15.094678,1023.4439 19.081727,1019.4569 24,1019.4569 Z"
           style="color:#000000;fill:#ffffff;fill-opacity:1;fill-rule:nonzero;stroke:none;stroke-width:0.2;marker:none;visibility:visible;display:inline;overflow:visible;enable-background:accumulate" />
        <path
           inkscape:connector-curvature="0"
           id="path990"
           d="m 28.14201,1013.2143 -0.621302,0.7988 c -0.339975,0.439 -1.087408,1.2689 -1.68639,1.8639 -0.74593,0.7406 -1.099421,0.9981 -1.53846,1.0651 0.09726,0.016 0.185317,0.03 0.295857,0.03 0.617809,0 0.925829,-0.1927 1.834319,-1.0947 0.598982,-0.595 1.346415,-1.4249 1.68639,-1.8639 l 0.473373,-0.6213 L 28.14201,1013.2143 z m -8.579878,0.1479 c -0.37392,0.022 -0.971923,0.2778 -2.071005,0.7692 -0.985771,0.4408 -1.406286,0.722 -1.331361,0.9172 0.06002,0.1565 0.163943,1.1455 0.236687,2.1894 0.10345,1.4844 0.07358,2.0643 -0.177515,2.6627 -0.294536,0.702 -0.590291,0.9429 -1.834319,0.9763 1.699823,0.019 2.093808,-0.1844 2.426035,-0.9763 0.251093,-0.5984 0.280964,-1.1783 0.177514,-2.6627 -0.07274,-1.0439 -0.176662,-2.0329 -0.236686,-2.1894 -0.07492,-0.1952 0.34559,-0.4764 1.33136,-0.9172 0.824313,-0.3685 1.37338,-0.6083 1.745562,-0.71 C 19.746337,1013.3895 19.671432,1013.3559 19.562132,1013.3622 z m -9.437866,7.3669 -0.6213014,1.5088 c -0.34414,0.8267 -0.6213015,1.6448 -0.6213015,1.8048 0,0.1604 0.5455105,0.7459 1.2426029,1.3018 1.536192,1.2248 2.45562,2.4001 2.45562,3.1952 0,0.6787 -1.079896,1.9657 -2.6923062,3.1953 -0.5556903,0.4238 -1.0059167,0.9105 -1.0059167,1.0651 0,0.1544 0.2727816,0.9379 0.6213015,1.7751 l 0.6213014,1.5385 0.591716,-0.03 -0.621302,-1.5089 c -0.3485196,-0.8372 -0.6213012,-1.6207 -0.6213012,-1.7751 0,-0.1546 0.4502265,-0.6413 1.0059172,-1.0651 1.61241,-1.2296 2.692306,-2.5166 2.692306,-3.1953 0,-0.7951 -0.919428,-1.9704 -2.45562,-3.1952 -0.697093,-0.5559 -1.2426032,-1.1414 -1.2426032,-1.3018 0,-0.16 0.2771614,-0.9781 0.6213012,-1.8048 l 0.621302,-1.4788 L 10.124266,1020.7291 z m 14.171592,1.7159 c 0.985231,0.014 1.47143,0.1372 2.337277,0.5622 2.165699,1.0635 3.33231,2.932 3.343194,5.3846 0.01517,3.4199 -2.599094,5.9176 -5.6213,6.0947 3.261747,0.1337 6.229161,-2.4556 6.213015,-6.0947 -0.01088,-2.4526 -1.177494,-4.3211 -3.343194,-5.3846 -0.97938,-0.4807 -1.429061,-0.5745 -2.721892,-0.5622 C 24.426129,1022.4458 24.369379,1022.4432 24.295858,1022.445 z m -9.97041,13.4912 c -0.09577,4e-4 -0.223277,0.027 -0.325444,0.03 2.346924,0.044 2.603352,0.7939 2.396449,3.994 l -0.118344,2.1302 0.857988,0.4438 c 1.521018,0.777 2.727661,1.1431 2.840236,0.8876 -0.516296,-0.1208 -1.311327,-0.4088 -2.24852,-0.8876 l -0.857988,-0.4438 0.118343,-2.1302 C 17.20323,1036.6336 16.940611,1035.9251 14.325448,1035.9362 z m 19.615376,0 c 0.386566,-7e-4 0.759184,0.032 1.301775,0.059 0.855219,0.043 1.403652,0.082 1.804733,0.059 -0.339125,-0.012 -0.679627,-0.032 -1.213018,-0.059 C 35.021232,1035.9545 34.420997,1035.9076 33.940824,1035.9362 z m -9.437866,3.9053 c -0.07389,0 -0.166015,0 -0.266272,0.03 0.747074,0.2172 1.804796,1.1351 2.840236,2.426 0.747978,0.9326 1.019871,1.2467 1.745561,1.0651 -0.355833,-0.099 -0.641139,-0.4259 -1.153846,-1.0651 C 26.472403,1040.8057 25.238765,1039.8415 24.502958,1039.8415 Z"
           style="fill:#ffffff;fill-opacity:0.5372549" />
      </g>
      <g
         id="g998"
         transform="matrix(-0.25483374,-0.44138499,0.44138499,-0.25483374,-401.96753,1302.5017)">
        <g
           id="g1000"
           inkscape:label="Capa 1"
           transform="matrix(0.97649957,0,0,0.97649957,0.56401169,24.166997)"
           style="fill:#000000;fill-opacity:0.5372549">
          <path
             sodipodi:nodetypes="ssssssssscsssscccsccccssccsssssccssscsscssccsssscsss"
             inkscape:connector-curvature="0"
             id="path1002"
             d="m 19.665365,1044.6142 c 0,-0.3157 2.108324,-2.7129 2.884039,-3.2791 0.422068,-0.308 1.028953,-0.5603 1.34863,-0.5603 0.7959,0 2.14478,1.0414 3.438711,2.6546 1.230518,1.5342 1.193845,1.5301 3.659737,0.4271 1.237132,-0.5534 1.401061,-0.6967 1.295599,-1.1335 -0.315449,-1.3062 -0.401135,-3.688 -0.164318,-4.5674 0.409769,-1.5217 0.888375,-1.7052 4.035084,-1.5471 3.038234,0.1528 2.725143,0.3384 3.671293,-2.1753 l 0.531875,-1.4132 -1.643301,-1.3592 c -1.96435,-1.6248 -2.666331,-2.6393 -2.463996,-3.5604 0.135568,-0.6172 2.470169,-3.0679 3.637163,-3.8179 0.491021,-0.3155 0.499165,-0.3663 0.195578,-1.2205 -0.174229,-0.4902 -0.529657,-1.3433 -0.789842,-1.8952 l -0.473061,-1.0039 -2.888194,0 c -3.820093,0 -3.685096,0.1382 -3.691193,-3.7313 l -0.0046,-2.9349 -1.875973,-0.7598 -1.875971,-0.7598 -0.66864,0.8628 c -0.367741,0.4748 -1.198728,1.3892 -1.846629,2.0328 -0.982686,0.9757 -1.310819,1.1697 -1.979085,1.1697 -0.668224,0 -1.01744,-0.2064 -2.10555,-1.2444 -0.717456,-0.6842 -1.537171,-1.5894 -1.821592,-2.0111 -0.600896,-0.8912 -0.729437,-0.8839 -3.107126,0.1792 -1.066279,0.4768 -1.516036,0.791 -1.434991,1.0022 0.06493,0.1693 0.182418,1.2313 0.261103,2.3605 0.111898,1.6057 0.06741,2.2332 -0.204186,2.8805 -0.442299,1.0542 -0.852917,1.1566 -4.067942,1.0148 l -2.5303924,-0.1116 -0.6768044,1.6258 c -0.372246,0.8941 -0.676808,1.7674 -0.676808,1.9405 0,0.1735 0.616929,0.8069 1.3709532,1.4081 1.6616536,1.3248 2.6395196,2.611 2.6395196,3.4712 0,0.7341 -1.173516,2.1227 -2.9176124,3.4527 -0.6010736,0.4585 -1.0928604,0.9702 -1.0928604,1.1374 0,0.1671 0.30844,1.0448 0.6854236,1.9504 l 0.6854214,1.6465 2.5301598,-0.1354 c 4.110716,-0.2206 4.520947,0.195 4.255089,4.3069 l -0.148196,2.2922 0.941258,0.4802 C 18.311463,1044.572 19.665365,1044.9778 19.665365,1044.6142 z m 1.376739,-10.3158 c -2.436828,-1.2178 -3.606799,-3.1613 -3.602602,-5.9847 0.0027,-1.8712 0.665187,-3.3442 2.094155,-4.656 1.429133,-1.3122 2.360325,-1.6733 4.364986,-1.693 1.398416,-0.013 1.877547,0.085 2.936913,0.6049 2.342573,1.1504 3.602851,3.1866 3.614624,5.8396 C 30.472063,1033.3415 25.435914,1036.494 21.042104,1034.2984 Z"
             style="fill:#000000;fill-opacity:0.5372549" />
        </g>
        <g
           style="fill:url(#linearGradient1016);fill-opacity:1"
           transform="matrix(0.92449625,0,0,0.92449625,1.8120913,77.645244)"
           inkscape:label="Capa 1"
           id="g1004">
          <path
             style="fill:url(#linearGradient1014);fill-opacity:1"
             d="m 19.665365,1044.6142 c 0,-0.3157 2.108324,-2.7129 2.884039,-3.2791 0.422068,-0.308 1.028953,-0.5603 1.34863,-0.5603 0.7959,0 2.14478,1.0414 3.438711,2.6546 1.230518,1.5342 1.193845,1.5301 3.659737,0.4271 1.237132,-0.5534 1.401061,-0.6967 1.295599,-1.1335 -0.315449,-1.3062 -0.401135,-3.688 -0.164318,-4.5674 0.409769,-1.5217 0.888375,-1.7052 4.035084,-1.5471 3.038234,0.1528 2.725143,0.3384 3.671293,-2.1753 l 0.531875,-1.4132 -1.643301,-1.3592 c -1.96435,-1.6248 -2.666331,-2.6393 -2.463996,-3.5604 0.135568,-0.6172 2.470169,-3.0679 3.637163,-3.8179 0.491021,-0.3155 0.499165,-0.3663 0.195578,-1.2205 -0.174229,-0.4902 -0.529657,-1.3433 -0.789842,-1.8952 l -0.473061,-1.0039 -2.888194,0 c -3.820093,0 -3.685096,0.1382 -3.691193,-3.7313 l -0.0046,-2.9349 -1.875973,-0.7598 -1.875971,-0.7598 -0.66864,0.8628 c -0.367741,0.4748 -1.198728,1.3892 -1.846629,2.0328 -0.982686,0.9757 -1.310819,1.1697 -1.979085,1.1697 -0.668224,0 -1.01744,-0.2064 -2.10555,-1.2444 -0.717456,-0.6842 -1.537171,-1.5894 -1.821592,-2.0111 -0.600896,-0.8912 -0.729437,-0.8839 -3.107126,0.1792 -1.066279,0.4768 -1.516036,0.791 -1.434991,1.0022 0.06493,0.1693 0.182418,1.2313 0.261103,2.3605 0.111898,1.6057 0.06741,2.2332 -0.204186,2.8805 -0.442299,1.0542 -0.852917,1.1566 -4.067942,1.0148 l -2.5303924,-0.1116 -0.6768044,1.6258 c -0.372246,0.8941 -0.676808,1.7674 -0.676808,1.9405 0,0.1735 0.616929,0.8069 1.3709532,1.4081 1.6616536,1.3248 2.6395196,2.611 2.6395196,3.4712 0,0.7341 -1.173516,2.1227 -2.9176124,3.4527 -0.6010736,0.4585 -1.0928604,0.9702 -1.0928604,1.1374 0,0.1671 0.30844,1.0448 0.6854236,1.9504 l 0.6854214,1.6465 2.5301598,-0.1354 c 4.110716,-0.2206 4.520947,0.195 4.255089,4.3069 l -0.148196,2.2922 0.941258,0.4802 C 18.311463,1044.572 19.665365,1044.9778 19.665365,1044.6142 z m 1.376739,-10.3158 c -2.436828,-1.2178 -3.606799,-3.1613 -3.602602,-5.9847 0.0027,-1.8712 0.665187,-3.3442 2.094155,-4.656 1.429133,-1.3122 2.360325,-1.6733 4.364986,-1.693 1.398416,-0.013 1.877547,0.085 2.936913,0.6049 2.342573,1.1504 3.602851,3.1866 3.614624,5.8396 C 30.472063,1033.3415 25.435914,1036.494 21.042104,1034.2984 Z"
             id="path1006"
             inkscape:connector-curvature="0"
             sodipodi:nodetypes="ssssssssscsssscccsccccssccsssssccssscsscssccsssscsss" />
        </g>
        <path
           style="color:#000000;fill:url(#linearGradient1018);fill-opacity:1;fill-rule:nonzero;stroke:none;stroke-width:0.2;marker:none;visibility:visible;display:inline;overflow:visible;enable-background:accumulate"
           d="m 24,1019.0723 c -5.130691,0 -9.289937,4.1592 -9.289937,9.2899 0,5.1307 4.159246,9.2899 9.289937,9.2899 5.13069,0 9.289937,-4.1592 9.289937,-9.2899 C 33.289937,1023.2315 29.13069,1019.0723 24,1019.0723 z m 0,1.8935 c 4.084945,0 7.396446,3.3115 7.396446,7.3964 0,4.0849 -3.311501,7.3965 -7.396446,7.3965 -4.084945,0 -7.396447,-3.3116 -7.396447,-7.3965 C 16.603553,1024.2773 19.915055,1020.9658 24,1020.9658 Z"
           id="path1008"
           inkscape:connector-curvature="0" />
        <path
           style="color:#000000;fill:#ffffff;fill-opacity:1;fill-rule:nonzero;stroke:none;stroke-width:0.2;marker:none;visibility:visible;display:inline;overflow:visible;enable-background:accumulate"
           d="m 24,1019.0723 c -5.130691,0 -9.289937,4.1592 -9.289937,9.2899 0,5.1307 4.159246,9.2899 9.289937,9.2899 5.13069,0 9.289937,-4.1592 9.289937,-9.2899 C 33.289937,1023.2315 29.13069,1019.0723 24,1019.0723 z m 0,0.3846 c 4.918273,0 8.905321,3.987 8.905321,8.9053 0,4.9183 -3.987048,8.9054 -8.905321,8.9054 -4.918273,0 -8.905322,-3.9871 -8.905322,-8.9054 C 15.094678,1023.4439 19.081727,1019.4569 24,1019.4569 Z"
           id="path1010"
           inkscape:connector-curvature="0" />
        <path
           style="fill:#ffffff;fill-opacity:0.5372549"
           d="m 28.14201,1013.2143 -0.621302,0.7988 c -0.339975,0.439 -1.087408,1.2689 -1.68639,1.8639 -0.74593,0.7406 -1.099421,0.9981 -1.53846,1.0651 0.09726,0.016 0.185317,0.03 0.295857,0.03 0.617809,0 0.925829,-0.1927 1.834319,-1.0947 0.598982,-0.595 1.346415,-1.4249 1.68639,-1.8639 l 0.473373,-0.6213 L 28.14201,1013.2143 z m -8.579878,0.1479 c -0.37392,0.022 -0.971923,0.2778 -2.071005,0.7692 -0.985771,0.4408 -1.406286,0.722 -1.331361,0.9172 0.06002,0.1565 0.163943,1.1455 0.236687,2.1894 0.10345,1.4844 0.07358,2.0643 -0.177515,2.6627 -0.294536,0.702 -0.590291,0.9429 -1.834319,0.9763 1.699823,0.019 2.093808,-0.1844 2.426035,-0.9763 0.251093,-0.5984 0.280964,-1.1783 0.177514,-2.6627 -0.07274,-1.0439 -0.176662,-2.0329 -0.236686,-2.1894 -0.07492,-0.1952 0.34559,-0.4764 1.33136,-0.9172 0.824313,-0.3685 1.37338,-0.6083 1.745562,-0.71 C 19.746337,1013.3895 19.671432,1013.3559 19.562132,1013.3622 z m -9.437866,7.3669 -0.6213014,1.5088 c -0.34414,0.8267 -0.6213015,1.6448 -0.6213015,1.8048 0,0.1604 0.5455105,0.7459 1.2426029,1.3018 1.536192,1.2248 2.45562,2.4001 2.45562,3.1952 0,0.6787 -1.079896,1.9657 -2.6923062,3.1953 -0.5556903,0.4238 -1.0059167,0.9105 -1.0059167,1.0651 0,0.1544 0.2727816,0.9379 0.6213015,1.7751 l 0.6213014,1.5385 0.591716,-0.03 -0.621302,-1.5089 c -0.3485196,-0.8372 -0.6213012,-1.6207 -0.6213012,-1.7751 0,-0.1546 0.4502265,-0.6413 1.0059172,-1.0651 1.61241,-1.2296 2.692306,-2.5166 2.692306,-3.1953 0,-0.7951 -0.919428,-1.9704 -2.45562,-3.1952 -0.697093,-0.5559 -1.2426032,-1.1414 -1.2426032,-1.3018 0,-0.16 0.2771614,-0.9781 0.6213012,-1.8048 l 0.621302,-1.4788 L 10.124266,1020.7291 z m 14.171592,1.7159 c 0.985231,0.014 1.47143,0.1372 2.337277,0.5622 2.165699,1.0635 3.33231,2.932 3.343194,5.3846 0.01517,3.4199 -2.599094,5.9176 -5.6213,6.0947 3.261747,0.1337 6.229161,-2.4556 6.213015,-6.0947 -0.01088,-2.4526 -1.177494,-4.3211 -3.343194,-5.3846 -0.97938,-0.4807 -1.429061,-0.5745 -2.721892,-0.5622 C 24.426129,1022.4458 24.369379,1022.4432 24.295858,1022.445 z m -9.97041,13.4912 c -0.09577,4e-4 -0.223277,0.027 -0.325444,0.03 2.346924,0.044 2.603352,0.7939 2.396449,3.994 l -0.118344,2.1302 0.857988,0.4438 c 1.521018,0.777 2.727661,1.1431 2.840236,0.8876 -0.516296,-0.1208 -1.311327,-0.4088 -2.24852,-0.8876 l -0.857988,-0.4438 0.118343,-2.1302 C 17.20323,1036.6336 16.940611,1035.9251 14.325448,1035.9362 z m 19.615376,0 c 0.386566,-7e-4 0.759184,0.032 1.301775,0.059 0.855219,0.043 1.403652,0.082 1.804733,0.059 -0.339125,-0.012 -0.679627,-0.032 -1.213018,-0.059 C 35.021232,1035.9545 34.420997,1035.9076 33.940824,1035.9362 z m -9.437866,3.9053 c -0.07389,0 -0.166015,0 -0.266272,0.03 0.747074,0.2172 1.804796,1.1351 2.840236,2.426 0.747978,0.9326 1.019871,1.2467 1.745561,1.0651 -0.355833,-0.099 -0.641139,-0.4259 -1.153846,-1.0651 C 26.472403,1040.8057 25.238765,1039.8415 24.502958,1039.8415 Z"
           id="path1012"
           inkscape:connector-curvature="0" />
      </g>
    </g>
    <path
       inkscape:connector-curvature="0"
       style="color:#000000;fill:#000000;fill-opacity:1;fill-rule:nonzero;stroke:none;stroke-width:0.2;marker:none;visibility:visible;display:inline;overflow:visible;enable-background:accumulate"
       d="m 1.7499999,1044.1747 0,0.5625 c 0,3.2445 2.599225,5.875 5.84375,5.875 l 32.8125001,0 c 3.244525,0 5.84375,-2.6305 5.84375,-5.875 l 0,-0.5625 c 0,3.2445 -2.599225,5.875 -5.84375,5.875 l -32.8125001,0 C 4.3492249,1050.0497 1.7499999,1047.4192 1.7499999,1044.1747 Z"
       id="path6388" />
    <path
       id="path6361"
       d="m 1.7499999,1012.5497 0,-0.5625 c 0,-3.2445 2.599225,-5.875 5.84375,-5.875 l 32.8125001,0 c 3.244525,0 5.84375,2.6305 5.84375,5.875 l 0,0.5625 c 0,-3.2445 -2.599225,-5.875 -5.84375,-5.875 l -32.8125001,0 C 4.3492249,1006.6747 1.7499999,1009.3052 1.7499999,1012.5497 Z"
       style="color:#000000;fill:#ffffff;fill-opacity:1;fill-rule:nonzero;stroke:none;stroke-width:0.2;marker:none;visibility:visible;display:inline;overflow:visible;enable-background:accumulate"
       inkscape:connector-curvature="0" />
  </g>
</svg>
