<?xml version="1.0" encoding="UTF-8" standalone="no"?>
<!-- Created with Inkscape (http://www.inkscape.org/) -->

<svg
   xmlns:dc="http://purl.org/dc/elements/1.1/"
   xmlns:cc="http://creativecommons.org/ns#"
   xmlns:rdf="http://www.w3.org/1999/02/22-rdf-syntax-ns#"
   xmlns:svg="http://www.w3.org/2000/svg"
   xmlns="http://www.w3.org/2000/svg"
   xmlns:xlink="http://www.w3.org/1999/xlink"
   xmlns:sodipodi="http://sodipodi.sourceforge.net/DTD/sodipodi-0.dtd"
   xmlns:inkscape="http://www.inkscape.org/namespaces/inkscape"
   width="48"
   height="48"
   id="svg2"
   version="1.1"
   inkscape:version="0.48+devel r12149"
   sodipodi:docname="qreator.svg">
  <defs
     id="defs4">
    <linearGradient
       id="linearGradient3373">
      <stop
         id="stop3375"
         offset="0"
         style="stop-color:#000000;stop-opacity:1" />
      <stop
         id="stop3377"
         offset="1"
         style="stop-color:#333333;stop-opacity:1" />
    </linearGradient>
    <linearGradient
       inkscape:collect="always"
       id="linearGradient1026">
      <stop
         style="stop-color:#ffffff;stop-opacity:1;"
         offset="0"
         id="stop1028" />
      <stop
         style="stop-color:#ffffff;stop-opacity:0;"
         offset="1"
         id="stop1030" />
    </linearGradient>
    <linearGradient
       gradientTransform="matrix(0.9047619,0,0,0.9047619,2.2857138,2.2857)"
       inkscape:collect="always"
       xlink:href="#linearGradient1050"
       id="linearGradient1056"
       x1="24.432327"
       y1="20.92634"
       x2="24.432327"
       y2="41.396667"
       gradientUnits="userSpaceOnUse" />
    <linearGradient
       inkscape:collect="always"
       id="linearGradient1050">
      <stop
         style="stop-color:#ff0000;stop-opacity:1;"
         offset="0"
         id="stop1052" />
      <stop
         style="stop-color:#ff0000;stop-opacity:0;"
         offset="1"
         id="stop1054" />
    </linearGradient>
    <linearGradient
       gradientTransform="matrix(0.9047619,0,0,0.9047619,2.2857142,2.2858)"
       inkscape:collect="always"
       xlink:href="#linearGradient1004"
       id="linearGradient1010"
       x1="-0.7470817"
       y1="30.07004"
       x2="5.4630351"
       y2="30.07004"
       gradientUnits="userSpaceOnUse" />
    <linearGradient
       inkscape:collect="always"
       id="linearGradient1004">
      <stop
         style="stop-color:#000000;stop-opacity:1;"
         offset="0"
         id="stop1006" />
      <stop
         style="stop-color:#000000;stop-opacity:0;"
         offset="1"
         id="stop1008" />
    </linearGradient>
    <linearGradient
       inkscape:collect="always"
       xlink:href="#linearGradient1004"
       id="linearGradient1022"
       gradientUnits="userSpaceOnUse"
       gradientTransform="matrix(0,0.9047619,0.9047619,0,2.2857142,2.2858)"
       x1="-0.7470817"
       y1="30.07004"
       x2="5.4630351"
       y2="30.07004" />
    <linearGradient
       inkscape:collect="always"
       xlink:href="#linearGradient1004"
       id="linearGradient1014"
       gradientUnits="userSpaceOnUse"
       x1="-0.7470817"
       y1="30.07004"
       x2="5.4630351"
       y2="30.07004"
       gradientTransform="matrix(-0.9047619,0,0,0.9047619,45.714286,2.2858)" />
    <linearGradient
       inkscape:collect="always"
       xlink:href="#linearGradient1004"
       id="linearGradient1020"
       gradientUnits="userSpaceOnUse"
       x1="-0.7470817"
       y1="30.07004"
       x2="5.4630351"
       y2="30.07004"
       gradientTransform="matrix(0,-0.9047619,0.9047619,0,2.2857142,45.7142)" />
    <linearGradient
       inkscape:collect="always"
       xlink:href="#linearGradient3373"
       id="linearGradient941"
       x1="26.6"
       y1="1050.6185"
       x2="26.6"
       y2="1006.1146"
       gradientUnits="userSpaceOnUse" />
    <linearGradient
       inkscape:collect="always"
       xlink:href="#linearGradient1026"
       id="linearGradient949"
       gradientUnits="userSpaceOnUse"
       gradientTransform="matrix(0.85393258,0,0,0.85393258,3.5056185,150.21023)"
       x1="24.255766"
       y1="1006.5768"
       x2="24.255766"
       y2="1050.464" />
  </defs>
  <sodipodi:namedview
     id="base"
     pagecolor="#ffffff"
     bordercolor="#666666"
     borderopacity="1.0"
     inkscape:pageopacity="0.0"
     inkscape:pageshadow="2"
     inkscape:zoom="8"
     inkscape:cx="19.938733"
     inkscape:cy="31.794742"
     inkscape:document-units="px"
     inkscape:current-layer="layer1"
     showgrid="false"
     inkscape:window-width="1366"
     inkscape:window-height="716"
     inkscape:window-x="0"
     inkscape:window-y="28"
     inkscape:window-maximized="1" />
  <metadata
     id="metadata7">
    <rdf:RDF>
      <cc:Work
         rdf:about="">
        <dc:format>image/svg+xml</dc:format>
        <dc:type
           rdf:resource="http://purl.org/dc/dcmitype/StillImage" />
        <dc:title />
      </cc:Work>
    </rdf:RDF>
  </metadata>
  <g
     inkscape:label="Capa 1"
     inkscape:groupmode="layer"
     id="layer1"
     transform="translate(0,-1004.3622)">
    <g
       id="text6110-1-8-2"
       style="font-size:220.81851196px;font-style:normal;font-weight:normal;line-height:125%;letter-spacing:0px;word-spacing:0px;fill:#fff8c1;fill-opacity:1;stroke:none;font-family:Sans"
       transform="matrix(0.04171372,0,0,0.04113493,-48.809893,998.2314)" />
    <rect
       style="color:#000000;fill:#333333;fill-opacity:1;fill-rule:nonzero;stroke:none;stroke-width:0.2;marker:none;visibility:visible;display:inline;overflow:visible;enable-background:accumulate"
       id="rect6294"
       width="45.5"
       height="45.5"
       x="1.25"
       y="1005.6122"
       ry="6.3565426" />
    <rect
       ry="5.8565426"
       y="1006.1122"
       x="1.75"
       height="44.5"
       width="44.5"
       id="rect6296"
       style="color:#000000;fill:url(#linearGradient941);fill-opacity:1;fill-rule:nonzero;stroke:none;stroke-width:0.2;marker:none;visibility:visible;display:inline;overflow:visible;enable-background:accumulate" />
    <path
       id="path6361"
       d="m 1.7500008,1012.5497 0,-0.5625 c 0,-3.2445 2.599225,-5.875 5.84375,-5.875 l 32.8125002,0 c 3.244525,0 5.84375,2.6305 5.84375,5.875 l 0,0.5625 c 0,-3.2445 -2.599225,-5.875 -5.84375,-5.875 l -32.8125002,0 C 4.3492258,1006.6747 1.7500008,1009.3052 1.7500008,1012.5497 Z"
       style="color:#000000;fill:#ffffff;fill-opacity:1;fill-rule:nonzero;stroke:none;stroke-width:0.2;marker:none;visibility:visible;display:inline;overflow:visible;enable-background:accumulate"
       inkscape:connector-curvature="0" />
    <path
       inkscape:connector-curvature="0"
       style="color:#000000;fill:#000000;fill-opacity:1;fill-rule:nonzero;stroke:none;stroke-width:0.2;marker:none;visibility:visible;display:inline;overflow:visible;enable-background:accumulate"
       d="m 1.7500008,1044.1747 0,0.5625 c 0,3.2445 2.599225,5.875 5.84375,5.875 l 32.8125002,0 c 3.244525,0 5.84375,-2.6305 5.84375,-5.875 l 0,-0.5625 c 0,3.2445 -2.599225,5.875 -5.84375,5.875 l -32.8125002,0 C 4.3492258,1050.0497 1.7500008,1047.4192 1.7500008,1044.1747 Z"
       id="path6388" />
    <g
       id="text6110-1-8-2-8"
       style="font-size:220.81851196px;font-style:normal;font-weight:normal;line-height:125%;letter-spacing:0px;word-spacing:0px;fill:#fff8c1;fill-opacity:1;stroke:none;font-family:Sans"
       transform="matrix(0.04171372,0,0,0.04113493,-102.60989,996.23143)" />
    <rect
       style="color:#000000;fill:#ffffff;fill-opacity:1;fill-rule:nonzero;stroke:none;stroke-width:0.2;marker:none;visibility:visible;display:inline;overflow:visible;enable-background:accumulate"
       id="rect943"
       width="38"
       height="38"
       x="5"
       y="1009.3622"
       ry="5.001092" />
    <path
       style="fill:#000000"
       d="m 6.9545475,1041.2933 0,-4.1143 4.1144175,0 4.114419,0 0,4.1143 0,4.1144 -4.114419,0 -4.1144175,0 L 6.9545475,1041.2933 z m 7.0532885,0 0,-2.939 -2.938871,0 -2.9388705,0 0,2.939 0,2.9389 2.9388705,0 2.938871,0 L 14.007835,1041.2933 z m -4.7021935,0 0,-1.7635 1.7633225,0 1.763325,0 0,1.7635 0,1.7631 -1.763325,0 -1.7633225,0 L 9.3056425,1041.2933 z m 7.0532925,3.5267 0,-0.5878 0.587773,0 0.587773,0 0,-0.5879 0,-0.5879 0.587775,0 0.587775,0 0,-0.5877 0,-0.5877 0.587774,0 0.587775,0 0,0.5877 0,0.5877 0.587772,0 0.587775,0 0,-1.1754 0,-1.1754 0.587776,0 0.587774,0 0,-0.588 0,-0.5878 -1.17555,0 -1.175547,0 0,-1.1755 0,-1.1753 -0.587775,0 -0.587774,0 0,-0.5881 0,-0.5877 -0.587773,0 -0.587776,0 0,0.5877 0,0.5881 -0.587773,0 -0.587773,0 0,-0.5881 0,-0.5877 -1.763322,0 -1.763323,0 0,-0.5877 0,-0.5878 -0.587778,0 -0.587772,0 0,-0.5877 0,-0.5877 -0.587775,0 -0.587774,0 0,-0.588 0,-0.5877 -0.5877745,0 -0.587775,0 0,-1.1755 0,-1.1755 0.587775,0 0.5877745,0 0,-0.5879 0,-0.5878 0.587774,0 0.587775,0 0,-0.5877 0,-0.5877 0.587772,0 0.587778,0 0,1.1754 0,1.1757 -0.587778,0 -0.587772,0 0,0.5878 0,0.5877 1.17555,0 1.175546,0 0,-0.5877 0,-0.5878 0.587777,0 0.587772,0 0,0.5878 0,0.5877 -0.587772,0 -0.587777,0 0,0.5877 0,0.5878 0.587777,0 0.587772,0 0,0.5877 0,0.588 0.587774,0 0.587776,0 0,-0.588 0,-0.5877 1.175547,0 1.175549,0 0,-1.1755 0,-1.1755 -0.587774,0 -0.587775,0 0,0.5878 0,0.5877 -0.587774,0 -0.587773,0 0,-0.5877 0,-0.5878 0.587773,0 0.587774,0 0,-1.1757 0,-1.1754 -0.587774,0 -0.587773,0 0,-1.1757 0,-1.1755 -0.587776,0 -0.587774,0 0,0.5878 0,0.5877 -1.175549,0 -1.175546,0 0,-0.5877 0,-0.5878 -0.587778,0 -0.587772,0 0,0.5878 0,0.5877 -0.587775,0 -0.587774,0 0,0.5879 0,0.5878 -0.5877745,0 -0.587775,0 0,0.5877 0,0.5877 -0.587774,0 -0.587774,0 0,1.1757 0,1.1755 -0.587774,0 -0.587773,0 0,-1.1755 0,-1.1757 0.587773,0 0.587774,0 0,-0.5877 0,-0.5877 0.587774,0 0.587774,0 0,-0.5878 0,-0.5879 -0.587774,0 -0.587774,0 0,-0.5877 0,-0.5878 -0.587774,0 -0.587773,0 0,-1.1755 0,-1.1757 1.175547,0 1.175548,0 0,-0.5877 0,-0.5877 1.1755495,0 1.175549,0 0,1.1754 0,1.1757 0.587772,0 0.587778,0 0,-1.1757 0,-1.1754 0.587773,0 0.587773,0 0,-0.5878 0,-0.5877 0.587777,0 0.587772,0 0,0.5877 0,0.5878 -0.587772,0 -0.587777,0 0,0.5877 0,0.5877 2.351099,0 2.351096,0 0,-0.5877 0,-0.5877 -1.175549,0 -1.175547,0 0,-1.7632 0,-1.7635 0.587773,0 0.587774,0 0,-1.1754 0,-1.1758 -0.587774,0 -0.587773,0 0,-1.7631 0,-1.7635 0.587773,0 0.587774,0 0,0.5879 0,0.5878 0.587775,0 0.587774,0 0,-0.5878 0,-0.5879 0.587774,0 0.587775,0 0,-0.5878 0,-0.5877 0.587772,0 0.587775,0 0,0.5877 0,0.5878 1.763324,0 1.763322,0 0,-0.5878 0,-0.5877 1.175549,0 1.175549,0 0,1.1755 0,1.1757 -0.587775,0 -0.587774,0 0,0.5878 0,0.5877 1.175549,0 1.175548,0 0,0.5877 0,0.5877 1.763322,0 1.763322,0 0,2.3512 0,2.3512 1.17555,0 1.17555,0 0,0.5877 0,0.5878 1.175546,0 1.17555,0 0,-0.5878 0,-0.5877 1.763323,0 1.763323,0 0,1.1755 0,1.1754 -1.175551,0 -1.175546,0 0,-0.5877 0,-0.5877 -0.587776,0 -0.587773,0 0,1.7634 0,1.7632 -0.587774,0 -0.587776,0 0,0.5878 0,0.5877 0.587776,0 0.587774,0 0,1.1757 0,1.1754 -1.17555,0 -1.175546,0 0,0.5878 0,0.5879 -0.587777,0 -0.587773,0 0,-0.5879 0,-0.5878 0.587773,0 0.587777,0 0,-0.5877 0,-0.5877 -2.3511,0 -2.351095,0 0,-1.1757 0,-1.1755 -0.587774,0 -0.587775,0 0,-0.5877 0,-0.5878 -0.587772,0 -0.587776,0 0,1.1755 0,1.1755 -0.587775,0 -0.587774,0 0,0.5879 0,0.5878 0.587774,0 0.587775,0 0,0.5877 0,0.5877 -1.175549,0 -1.175549,0 0,-1.1754 0,-1.1757 0.587775,0 0.587774,0 0,-0.5877 0,-0.5878 -0.587774,0 -0.587775,0 0,-0.5877 0,-0.5878 -0.587774,0 -0.587773,0 0,1.1755 0,1.1755 -0.587775,0 -0.587774,0 0,0.5879 0,0.5878 -0.587774,0 -0.587776,0 0,0.5877 0,0.5877 0.587776,0 0.587774,0 0,1.1757 0,1.1755 2.351096,0 2.351098,0 0,-0.5877 0,-0.5878 0.587776,0 0.587772,0 0,-0.5879 0,-0.5878 1.175549,0 1.175549,0 0,2.3512 0,2.3512 -1.763323,0 -1.763323,0 0,0.5877 0,0.5877 0.587776,0 0.587772,0 0,0.5878 0,0.5877 -0.587772,0 -0.587776,0 0,-0.5877 0,-0.5878 -1.175549,0 -1.175549,0 0,0.5878 0,0.5877 0.587775,0 0.587774,0 0,0.5877 0,0.5881 1.763325,0 1.763321,0 0,-0.5881 0,-0.5877 0.587773,0 0.587776,0 0,-0.5877 0,-0.5878 1.175546,0 1.17555,0 0,-0.5877 0,-0.5877 0.587773,0 0.587777,0 0,-0.588 0,-0.5877 -0.587777,0 -0.587773,0 0,-0.5878 0,-0.5877 2.351096,0 2.351099,0 0,-2.3512 0,-2.3511 1.175546,0 1.175551,0 0,-0.5877 0,-0.5878 0.587772,0 0.587775,0 0,1.1755 0,1.1757 -1.175547,0 -1.175551,0 0,1.7632 0,1.7634 1.175551,0 1.175547,0 0,1.1755 0,1.1757 -0.587775,0 -0.587772,0 0,-0.588 0,-0.5877 -2.351098,0 -2.351099,0 0,0.5877 0,0.588 0.587776,0 0.587775,0 0,1.1754 0,1.1755 0.587772,0 0.587776,0 0,-0.5877 0,-0.5878 1.763323,0 1.763321,0 0,0.5878 0,0.5877 -1.763321,0 -1.763323,0 0,0.5877 0,0.5881 0.587775,0 0.587772,0 0,0.5877 0,0.5876 -0.587772,0 -0.587775,0 0,1.7633 0,1.7634 -0.587776,0 -0.587772,0 0,0.5877 0,0.5877 1.175548,0 1.175546,0 0,-0.5877 0,-0.5877 0.587777,0 0.587773,0 0,-0.5877 0,-0.5877 -0.587773,0 -0.587777,0 0,-0.588 0,-0.5878 0.587777,0 0.587773,0 0,-0.5877 0,-0.5878 0.587773,0 0.587774,0 0,1.7633 0,1.7634 -0.587774,0 -0.587773,0 0,0.5877 0,0.5877 0.587773,0 0.587774,0 0,0.5879 0,0.5879 -0.587774,0 -0.587773,0 0,-0.5879 0,-0.5879 -0.587773,0 -0.587777,0 0,1.1758 0,1.1755 -0.587772,0 -0.587774,0 0,-0.5877 0,-0.5878 -0.587776,0 -0.587773,0 0,0.5878 0,0.5877 -1.763323,0 -1.763323,0 0,-0.5877 0,-0.5878 -0.587773,0 -0.587776,0 0,-0.5879 0,-0.5879 -0.587773,0 -0.587774,0 0,-0.5877 0,-0.5877 -0.587776,0 -0.587773,0 0,-1.1754 0,-1.1758 -0.587774,0 -0.587775,0 0,-0.5877 0,-0.5878 -1.175548,0 -1.175549,0 0,0.5878 0,0.5877 0.587775,0 0.587775,0 0,1.1758 0,1.1754 -0.587775,0 -0.587775,0 0,1.1754 0,1.1758 -2.351095,0 -2.351099,0 0,0.5878 0,0.5877 -1.175547,0 -1.175549,0 0,-0.5877 0,-0.5878 -0.587774,0 -0.587775,0 0,0.5878 0,0.5877 -0.587774,0 -0.587773,0 L 16.358934,1044.82 z m 3.526645,-1.1757 0,-0.5879 -0.587775,0 -0.587774,0 0,0.5879 0,0.5879 0.587774,0 0.587775,0 L 19.885579,1043.6443 z m 12.931033,-1.1756 0,-0.5877 0.587773,0 0.587776,0 0,-0.5877 0,-0.5877 -1.175549,0 -1.17555,0 0,1.1754 0,1.1754 0.587777,0 0.587773,0 L 32.816613,1042.4687 z m -9.404387,-1.1754 0,-0.5877 -0.587775,0 -0.587774,0 0,0.5877 0,0.5877 0.587774,0 0.587775,0 L 23.412225,1041.2933 z m 12.931033,0 0,-0.5877 -0.587774,0 -0.587776,0 0,0.5877 0,0.5877 0.587776,0 0.587774,0 L 36.343259,1041.2933 z m -12.931033,-2.3512 0,-0.5878 0.587773,0 0.587773,0 0,-0.5876 0,-0.5877 -0.587773,0 -0.587773,0 0,-1.1758 0,-1.1755 0.587773,0 0.587773,0 0,-1.1754 0,-1.1757 -1.175547,0 -1.175549,0 0,-0.5878 0,-0.5877 -0.587774,0 -0.587776,0 0,-1.1755 0,-1.1757 -0.587775,0 -0.587772,0 0,-0.5877 0,-0.5877 -0.587775,0 -0.587774,0 0,1.1754 0,1.1757 0.587774,0 0.587775,0 0,1.7632 0,1.7635 -0.587775,0 -0.587774,0 0,0.5877 0,0.5877 0.587774,0 0.587775,0 0,1.1755 0,1.1758 0.587772,0 0.587775,0 0,0.5877 0,0.5876 0.587776,0 0.587774,0 0,0.5878 0,0.5877 0.587774,0 0.587775,0 L 23.412225,1038.9421 z m -3.526646,-4.7021 0,-0.5877 0.587772,0 0.587775,0 0,-0.588 0,-0.5877 0.587776,0 0.587774,0 0,0.5877 0,0.588 0.587775,0 0.587775,0 0,0.5877 0,0.5877 -0.587775,0 -0.587775,0 0,-0.5877 0,-0.5877 -0.587774,0 -0.587776,0 0,0.5877 0,0.5877 -0.587775,0 -0.587772,0 L 19.885579,1034.24 z m 10.579936,4.7021 0,-0.5878 -0.587775,0 -0.587773,0 0,0.5878 0,0.5877 0.587773,0 0.587775,0 L 30.465516,1038.9421 z m 4.702192,-1.1754 0,-1.7635 -1.763322,0 -1.763323,0 0,1.7635 0,1.7631 1.763323,0 1.763322,0 L 35.167708,1037.7667 z m -2.351096,0 0,-0.5877 0.587774,0 0.587776,0 0,0.5877 0,0.5876 -0.587776,0 -0.587774,0 L 32.816613,1037.7667 z m -15.282131,-2.939 0,-1.1754 -0.587774,0 -0.587773,0 0,1.1754 0,1.1755 0.587773,0 0.587774,0 L 17.534481,1034.8277 z m -2.351097,-0.5877 0,-0.5877 -1.175549,0 -1.175546,0 0,0.5877 0,0.5877 1.175546,0 1.175549,0 L 15.183384,1034.24 z m 11.755486,-1.1757 0,-0.5877 0.587776,0 0.587772,0 0,-0.5878 0,-0.5877 0.587775,0 0.587774,0 0,-0.5877 0,-0.5878 -0.587774,0 -0.587775,0 0,0.5878 0,0.5877 -0.587772,0 -0.587776,0 0,0.5877 0,0.5878 -0.587775,0 -0.587774,0 0,0.5877 0,0.588 0.587774,0 0.587775,0 L 26.93887,1033.0643 z m -15.28213,-1.1755 0,-0.5877 -0.587775,0 -0.587774,0 0,0.5877 0,0.5878 0.587774,0 0.587775,0 L 11.65674,1031.8888 z m -1.175549,-5.8777 0,-0.5878 0.587774,0 0.587775,0 0,-0.5877 0,-0.5878 -0.587775,0 -0.587774,0 0,-0.5877 0,-0.588 -0.5877735,0 -0.587775,0 0,0.588 0,0.5877 -0.587774,0 -0.587774,0 0,0.5878 0,0.5877 0.587774,0 0.587774,0 0,0.5878 0,0.5877 0.587775,0 0.5877735,0 L 10.481191,1026.0111 z m 8.228839,0 0,-0.5878 -0.587774,0 -0.587775,0 0,-0.5877 0,-0.5878 -0.587774,0 -0.587773,0 0,0.5878 0,0.5877 0.587773,0 0.587774,0 0,0.5878 0,0.5877 0.587775,0 0.587774,0 L 18.71003,1026.0111 z m 2.351096,0 0,-0.5878 0.587776,0 0.587774,0 0,-0.5877 0,-0.5878 -0.587774,0 -0.587776,0 0,-0.5877 0,-0.588 0.587776,0 0.587774,0 0,-0.5877 0,-0.5877 0.587774,0 0.587775,0 0,0.5877 0,0.5877 1.175547,0 1.175549,0 0,-0.5877 0,-0.5877 0.587774,0 0.587775,0 0,-0.5878 0,-0.5877 0.587776,0 0.587772,0 0,0.5877 0,0.5878 1.175549,0 1.175549,0 0,0.5877 0,0.5877 -1.175549,0 -1.175549,0 0,0.588 0,0.5877 0.587775,0 0.587774,0 0,0.5878 0,0.5877 0.587773,0 0.587776,0 0,-0.5877 0,-0.5878 0.587774,0 0.587773,0 0,1.1755 0,1.1755 0.587776,0 0.587773,0 0,-1.7632 0,-1.7635 0.587773,0 0.587777,0 0,-0.5877 0,-0.5877 -1.17555,0 -1.175549,0 0,-0.5878 0,-0.5877 -0.587773,0 -0.587774,0 0,-1.7635 0,-1.7631 -0.587776,0 -0.587773,0 0,1.1755 0,1.1753 -0.587774,0 -0.587775,0 0,-1.7631 0,-1.7635 -0.587772,0 -0.587776,0 0,0.588 0,0.5878 -0.587775,0 -0.587774,0 0,0.5877 0,0.5877 -0.587774,0 -0.587775,0 0,-1.1754 0,-1.1758 0.587775,0 0.587774,0 0,-0.5877 0,-0.5877 -0.587774,0 -0.587775,0 0,-0.5877 0,-0.5878 0.587775,0 0.587774,0 0,-0.5878 0,-0.5879 -0.587774,0 -0.587775,0 0,0.5879 0,0.5878 -0.587774,0 -0.587773,0 0,0.5878 0,0.5877 -0.587775,0 -0.587774,0 0,3.5267 0,3.5266 -0.587774,0 -0.587776,0 0,-0.5878 0,-0.5877 -0.587775,0 -0.587772,0 0,-0.5877 0,-0.5881 0.587772,0 0.587775,0 0,-0.5877 0,-0.5877 -0.587775,0 -0.587772,0 0,0.5877 0,0.5877 -0.587775,0 -0.587774,0 0,-0.5877 0,-0.5877 -0.587774,0 -0.587775,0 0,0.5877 0,0.5877 0.587775,0 0.587774,0 0,1.1758 0,1.1755 1.175549,0 1.175547,0 0,0.5877 0,0.5877 -1.175547,0 -1.175549,0 0,0.588 0,0.5877 1.175549,0 1.175547,0 0,0.5878 0,0.5877 -0.587775,0 -0.587772,0 0,0.5878 0,0.5877 0.587772,0 0.587775,0 L 21.061126,1026.0111 z m 2.351099,-6.4657 0,-1.1753 0.587773,0 0.587774,0 0,0.5876 0,0.5877 0.587775,0 0.587774,0 0,-0.5877 0,-0.5876 0.587774,0 0.587775,0 0,1.1753 0,1.1758 -1.763323,0 -1.763322,0 L 23.412225,1019.5454 z m -8.228841,5.2902 0,-0.5878 -1.175549,0 -1.175546,0 0,0.5878 0,0.5877 1.175546,0 1.175549,0 L 15.183384,1024.8356 z m 19.984324,0 0,-0.5878 -0.587773,0 -0.587773,0 0,0.5878 0,0.5877 0.587773,0 0.587773,0 L 35.167708,1024.8356 z m -15.282129,-8.2288 0,-0.588 0.587772,0 0.587775,0 0,-0.5877 0,-0.5877 -0.587775,0 -0.587772,0 0,0.5877 0,0.5877 -0.587775,0 -0.587774,0 0,0.588 0,0.5878 0.587774,0 0.587775,0 L 19.885579,1016.6068 z m 7.053291,28.2132 0,-0.5878 0.587776,0 0.587772,0 0,-0.5879 0,-0.5879 0.587775,0 0.587774,0 0,0.5879 0,0.5879 0.587773,0 0.587776,0 0,0.5878 0,0.5877 -1.763323,0 -1.763323,0 L 26.93887,1044.82 z m -9.404389,-4.7024 0,-0.5878 0.587775,0 0.587774,0 0,0.5878 0,0.588 -0.587774,0 -0.587775,0 L 17.534481,1040.1176 z m -9.4043865,-5.2899 0,-1.1754 0.587774,0 0.587774,0 0,1.1754 0,1.1755 -0.587774,0 -0.587774,0 L 8.1300945,1034.8277 z m 31.7398095,-5.29 0,-0.5878 0.587773,0 0.587774,0 0,0.5878 0,0.5879 -0.587774,0 -0.587773,0 L 39.869904,1029.5377 z m -25.862069,-1.1755 0,-0.5877 0.587777,0 0.587772,0 0,0.5877 0,0.5877 -0.587772,0 -0.587777,0 L 14.007835,1028.3622 z m -7.0532875,-7.0533 0,-0.5877 0.587773,0 0.587774,0 0,0.5877 0,0.5878 -0.587774,0 -0.587773,0 L 6.9545475,1021.3089 z m 0,-5.8778 0,-4.1144 4.1144175,0 4.114419,0 0,4.1144 0,4.1143 -4.114419,0 -4.1144175,0 L 6.9545475,1015.4311 z m 7.0532875,0 0,-2.9389 -2.93887,0 -2.9388705,0 0,2.9389 0,2.939 2.9388705,0 2.93887,0 L 14.007835,1015.4311 z m -4.7021925,0 0,-1.7631 1.7633225,0 1.763324,0 0,1.7631 0,1.7635 -1.763324,0 -1.7633225,0 L 9.3056425,1015.4311 z m 23.5109695,0 0,-4.1144 4.114419,0 4.11442,0 0,4.1144 0,4.1143 -4.11442,0 -4.114419,0 L 32.816613,1015.4311 z m 7.053292,0 0,-2.9389 -2.938873,0 -2.938869,0 0,2.9389 0,2.939 2.938869,0 2.938873,0 L 39.869904,1015.4311 z m -4.702196,0 0,-1.7631 1.763323,0 1.763323,0 0,1.7631 0,1.7635 -1.763323,0 -1.763323,0 L 35.167708,1015.4311 z m -5.877741,-1.1754 0,-0.5877 -0.587774,0 -0.587775,0 0,-1.1758 0,-1.1755 0.587775,0 0.587774,0 0,1.1755 0,1.1758 1.175549,0 1.175547,0 0,0.5877 0,0.5877 -1.175547,0 -1.175549,0 L 29.289968,1014.2557 Z"
       id="path849"
       inkscape:connector-curvature="0" />
    <rect
       ry="5.001092"
       y="1009.3622"
       x="5"
       height="38"
       width="38"
       id="rect947"
       style="opacity:0.67900002;color:#000000;fill:url(#linearGradient949);fill-opacity:1;fill-rule:nonzero;stroke:none;stroke-width:0.2;marker:none;visibility:visible;display:inline;overflow:visible;enable-background:accumulate" />
    <path
       style="fill:url(#linearGradient1010);fill-opacity:1;stroke:none"
       d="M 9.375 5.0625 C 6.9091011 5.3751232 5 7.4465146 5 10 L 5 38 C 5 40.553485 6.9091011 42.624877 9.375 42.9375 L 9.375 5.0625 z "
       transform="translate(0,1004.3622)"
       id="rect999" />
    <path
       style="fill:url(#linearGradient1022);fill-opacity:1;stroke:none"
       d="M 10 5 C 7.4465146 5 5.3751232 6.9091011 5.0625 9.375 L 42.9375 9.375 C 42.624877 6.9091011 40.553485 5 38 5 L 10 5 z "
       transform="translate(0,1004.3622)"
       id="path1018" />
    <path
       style="fill:url(#linearGradient1014);fill-opacity:1;stroke:none"
       d="M 38.625 5.0625 L 38.625 42.9375 C 41.090899 42.624877 43 40.553485 43 38 L 43 10 C 43 7.4465146 41.090899 5.3751232 38.625 5.0625 z "
       transform="translate(0,1004.3622)"
       id="path1012" />
    <path
       style="fill:url(#linearGradient1020);fill-opacity:1;stroke:none"
       d="M 5.0625 38.625 C 5.3751232 41.090899 7.4465146 43 10 43 L 38 43 C 40.553485 43 42.624877 41.090899 42.9375 38.625 L 5.0625 38.625 z "
       transform="translate(0,1004.3622)"
       id="path1016" />
    <path
       style="fill:url(#linearGradient1056);fill-opacity:1;stroke:none"
       d="M 5 24.4375 L 5 38 C 5 40.770605 7.2293951 43 10 43 L 38 43 C 40.770605 43 43 40.770605 43 38 L 43 24.4375 L 5 24.4375 z "
       transform="translate(0,1004.3622)"
       id="rect1034" />
    <path
       style="fill:#ff0000;fill-opacity:1;stroke:none"
       d="m 4.9999995,1028.3653 0,0.4493 37.9999995,0 0,-0.4493 L 4.9999995,1028.3653 Z"
       id="rect1058"
       inkscape:connector-curvature="0" />
    <path
       inkscape:connector-curvature="0"
       id="path1063"
       d="m 4.9999995,1028.6342 0,0.1804 37.9999995,0 0,-0.1804 L 4.9999995,1028.6342 Z"
       style="fill:#aa0000;fill-opacity:1;stroke:none" />
    <path
       inkscape:connector-curvature="0"
       id="path1065"
       d="m 4.9999995,1028.3653 0,0.1356 37.9999995,0 0,-0.1356 L 4.9999995,1028.3653 Z"
       style="fill:#ffaaaa;fill-opacity:1;stroke:none" />
  </g>
</svg>
