<?xml version="1.0" encoding="UTF-8" standalone="no"?>
<!-- Created with Inkscape (http://www.inkscape.org/) -->

<svg
   xmlns:dc="http://purl.org/dc/elements/1.1/"
   xmlns:cc="http://creativecommons.org/ns#"
   xmlns:rdf="http://www.w3.org/1999/02/22-rdf-syntax-ns#"
   xmlns:svg="http://www.w3.org/2000/svg"
   xmlns="http://www.w3.org/2000/svg"
   xmlns:xlink="http://www.w3.org/1999/xlink"
   xmlns:sodipodi="http://sodipodi.sourceforge.net/DTD/sodipodi-0.dtd"
   xmlns:inkscape="http://www.inkscape.org/namespaces/inkscape"
   width="48"
   height="48"
   id="svg2"
   version="1.1"
   inkscape:version="0.48+devel r12149"
   sodipodi:docname="redshift.svg"
   inkscape:export-filename="/home/uri/Iconos/NITRUX-Buttons/apps/512/redshift.png"
   inkscape:export-xdpi="960"
   inkscape:export-ydpi="960">
  <defs
     id="defs4">
    <linearGradient
       id="linearGradient1215">
      <stop
         id="stop1217"
         offset="0"
         style="stop-color:#000000;stop-opacity:1" />
      <stop
         id="stop1219"
         offset="1"
         style="stop-color:#442e2e;stop-opacity:1" />
    </linearGradient>
    <linearGradient
       inkscape:collect="always"
       xlink:href="#linearGradient909"
       id="linearGradient1616"
       x1="102.62415"
       y1="-20.826147"
       x2="102.62415"
       y2="55.187504"
       gradientUnits="userSpaceOnUse"
       gradientTransform="matrix(0.41206482,0,0,0.41206482,-14.12616,1022.3201)" />
    <linearGradient
       id="linearGradient909">
      <stop
         id="stop911"
         offset="0"
         style="stop-color:#ffffff;stop-opacity:1" />
      <stop
         style="stop-color:#e2e2e2;stop-opacity:1"
         offset="0.5"
         id="stop913" />
      <stop
         id="stop915"
         offset="1"
         style="stop-color:#999999;stop-opacity:1" />
    </linearGradient>
    <linearGradient
       inkscape:collect="always"
       xlink:href="#linearGradient1622-8"
       id="linearGradient1620"
       gradientUnits="userSpaceOnUse"
       x1="102.62415"
       y1="-20.826147"
       x2="102.62415"
       y2="55.187504"
       gradientTransform="matrix(0.41206482,0,0,0.41206482,-14.126158,1022.788)" />
    <linearGradient
       id="linearGradient1622-8">
      <stop
         id="stop1624-9"
         offset="0"
         style="stop-color:#ff5555;stop-opacity:1" />
      <stop
         id="stop1626-4"
         offset="1"
         style="stop-color:#d40000;stop-opacity:1" />
    </linearGradient>
    <linearGradient
       inkscape:collect="always"
       xlink:href="#linearGradient1622-8"
       id="linearGradient922"
       gradientUnits="userSpaceOnUse"
       gradientTransform="matrix(0.41206482,0,0,0.41206482,-14.126158,1023.2588)"
       x1="102.62415"
       y1="-20.826147"
       x2="102.62415"
       y2="55.187504" />
    <linearGradient
       inkscape:collect="always"
       xlink:href="#linearGradient1622-8"
       id="linearGradient926"
       gradientUnits="userSpaceOnUse"
       gradientTransform="matrix(0.41206482,0,0,0.41206482,-14.126158,1023.7296)"
       x1="102.62415"
       y1="-20.826147"
       x2="102.62415"
       y2="55.187504" />
    <linearGradient
       y2="1004.8474"
       x2="23.204165"
       y1="1052.4241"
       x1="23.204165"
       gradientTransform="matrix(0.92447917,0,0,0.99835625,3.625,-1002.7006)"
       gradientUnits="userSpaceOnUse"
       id="linearGradient1026"
       xlink:href="#linearGradient1215"
       inkscape:collect="always" />
  </defs>
  <sodipodi:namedview
     id="base"
     pagecolor="#ffffff"
     bordercolor="#666666"
     borderopacity="1.0"
     inkscape:pageopacity="0.0"
     inkscape:pageshadow="2"
     inkscape:zoom="7.1572984"
     inkscape:cx="52.136752"
     inkscape:cy="24.860209"
     inkscape:document-units="px"
     inkscape:current-layer="layer1"
     showgrid="false"
     inkscape:window-width="1366"
     inkscape:window-height="716"
     inkscape:window-x="0"
     inkscape:window-y="28"
     inkscape:window-maximized="1" />
  <metadata
     id="metadata7">
    <rdf:RDF>
      <cc:Work
         rdf:about="">
        <dc:format>image/svg+xml</dc:format>
        <dc:type
           rdf:resource="http://purl.org/dc/dcmitype/StillImage" />
        <dc:title />
      </cc:Work>
    </rdf:RDF>
  </metadata>
  <g
     inkscape:label="Capa 1"
     inkscape:groupmode="layer"
     id="layer1"
     transform="translate(0,-1004.3622)">
    <rect
       style="color:#000000;fill:#333333;fill-opacity:1;fill-rule:nonzero;stroke:none;stroke-width:0.2;marker:none;visibility:visible;display:inline;overflow:visible;enable-background:accumulate"
       id="rect6294"
       width="45.5"
       height="45.5"
       x="1.25"
       y="1005.6122"
       ry="6.3565426" />
    <path
       style="fill:url(#linearGradient1026);fill-opacity:1;stroke:none"
       d="M 7.59375 1.75 C 4.3492254 1.75 1.75 4.3492254 1.75 7.59375 L 1.75 40.40625 C 1.75 43.650775 4.3492254 46.25 7.59375 46.25 L 40.40625 46.25 C 43.650775 46.25 46.25 43.650775 46.25 40.40625 L 46.25 7.59375 C 46.25 4.3492254 43.650775 1.75 40.40625 1.75 L 7.59375 1.75 z "
       id="rect2991-9"
       transform="translate(0,1004.3622)" />
    <g
       id="g3762"
       transform="matrix(1.0959406,0,0,1.0959406,15.026013,-116.08545)">
      <g
         transform="translate(0.1767767,0.30935922)"
         id="g3758" />
    </g>
    <path
       id="path6361"
       d="m 1.7499989,1012.5497 0,-0.5625 c 0,-3.2445 2.599225,-5.875 5.84375,-5.875 l 32.8125011,0 c 3.244525,0 5.84375,2.6305 5.84375,5.875 l 0,0.5625 c 0,-3.2445 -2.599225,-5.875 -5.84375,-5.875 l -32.8125011,0 C 4.3492239,1006.6747 1.7499989,1009.3052 1.7499989,1012.5497 Z"
       style="color:#000000;fill:#ffffff;fill-opacity:1;fill-rule:nonzero;stroke:none;stroke-width:0.2;marker:none;visibility:visible;display:inline;overflow:visible;enable-background:accumulate"
       inkscape:connector-curvature="0" />
    <path
       inkscape:connector-curvature="0"
       style="color:#000000;fill:#000000;fill-opacity:1;fill-rule:nonzero;stroke:none;stroke-width:0.2;marker:none;visibility:visible;display:inline;overflow:visible;enable-background:accumulate"
       d="m 1.7499989,1044.1747 0,0.5625 c 0,3.2445 2.599225,5.875 5.84375,5.875 l 32.8125011,0 c 3.244525,0 5.84375,-2.6305 5.84375,-5.875 l 0,-0.5625 c 0,3.2445 -2.599225,5.875 -5.84375,5.875 l -32.8125011,0 C 4.3492239,1050.0497 1.7499989,1047.4192 1.7499989,1044.1747 Z"
       id="path6388" />
    <g
       id="g928"
       transform="matrix(0.93749979,0,0,0.93749979,2.3661311,62.470531)">
      <path
         inkscape:connector-curvature="0"
         id="path1593"
         d="m 23.230091,1014.2848 -1.068793,1.2619 c -1.402137,1.6664 -3.321873,2.2977 -5.524244,1.8028 l -1.699767,-0.3863 0,1.8543 c 0,2.3402 -0.931645,3.9181 -2.98747,5.0735 l -1.609628,0.9015 1.055916,1.1073 c 1.671179,1.7444 2.042692,3.3159 1.30058,5.447 -0.827538,2.3764 -0.819737,2.4209 0.399187,2.4209 1.444749,0 3.864533,1.0734 4.159279,1.8414 0.273018,0.7116 1.204194,0.846 1.583875,0.2318 0.29918,-0.4841 -0.781877,-2.6712 -2.098955,-4.2494 -2.163221,-2.592 -2.203389,-6.2632 -0.115893,-9.5548 4.155228,-6.5521 14.795698,-3.3002 14.795698,4.5198 0,2.2686 -0.777707,4.2566 -2.459508,6.2969 -1.2555,1.5231 -1.675468,3.3867 -0.759745,3.3867 0.270896,0 0.987068,-0.4584 1.583875,-1.0302 0.617462,-0.5915 1.860596,-1.1905 2.897327,-1.3778 1.283845,-0.232 1.776007,-0.4995 1.66114,-0.9144 -0.08966,-0.3236 -0.350485,-1.2533 -0.57947,-2.0602 -0.527962,-1.8605 -0.174856,-3.2654 1.249076,-4.9577 0.619621,-0.7363 0.944048,-1.3927 0.721113,-1.4679 -2.612664,-0.8815 -4.485507,-3.5738 -4.236545,-6.0651 0.122127,-1.2221 0.0633,-1.2733 -1.107422,-1.0946 -2.926504,0.447 -3.898421,0.1962 -5.549997,-1.4164 L 23.230091,1014.2848 z m -0.03863,13.0959 -0.798375,1.0173 -0.798376,1.0172 -0.824129,-1.0172 c -0.62144,-0.7608 -0.943674,-0.8913 -1.30058,-0.5409 -0.465802,0.4574 0.198022,2.3172 1.339211,3.7473 0.615542,0.7713 1.463011,0.624 1.983062,-0.3477 l 0.463572,-0.8628 0.60522,0.8628 c 0.332986,0.4755 0.867517,0.8627 1.197564,0.8627 0.854668,0 2.538439,-3.5652 1.957308,-4.1464 -0.320245,-0.3203 -0.684584,-0.1976 -1.30058,0.4636 l -0.86276,0.9272 -0.837007,-0.9916 L 23.191461,1027.3807 z m 3.232134,8.7049 c -0.103411,0 -0.206232,0.01 -0.334803,0.013 -0.617141,0.036 -1.538143,0.1887 -2.910207,0.425 -3.61212,0.6222 -4.417385,0.9666 -3.940371,1.7384 0.345661,0.5592 1.088544,0.5615 4.172157,0.013 3.421436,-0.6088 3.888861,-0.773 3.888861,-1.4164 C 27.299232,1036.3482 27.147464,1036.0984 26.423594,1036.0856 z m -0.399188,2.4337 c -0.624048,0.029 -1.538992,0.1778 -2.871576,0.4121 -3.513583,0.6178 -4.400193,1.0172 -3.914617,1.8028 0.341742,0.5529 0.694796,0.5561 3.760092,0.025 3.946254,-0.6829 4.300926,-0.7878 4.300926,-1.4037 C 27.299232,1038.7384 27.064482,1038.4714 26.024406,1038.5193 z m -0.527958,2.408 c -0.631127,0.015 -1.48823,0.1288 -2.588282,0.3477 -2.047377,0.4074 -2.849944,0.7485 -2.948839,1.2619 -0.107499,0.5582 0.153626,0.7008 1.236194,0.6696 2.149792,-0.062 5.400649,-0.9395 5.58863,-1.5066 C 26.965476,1041.153 26.54833,1040.9015 25.496448,1040.9273 z m -1.377842,2.4725 c -0.268551,0.011 -0.623294,0.044 -1.068793,0.1158 -1.233479,0.2002 -1.446063,0.3696 -1.068793,0.8241 l 0.01288,0 c 0.619499,0.7465 1.786335,0.7028 2.433758,-0.077 C 24.967118,1043.6125 24.924263,1043.3659 24.118606,1043.3998 Z"
         style="fill:url(#linearGradient1616);fill-opacity:1" />
      <path
         inkscape:connector-curvature="0"
         id="path1618"
         d="m 31.519048,1017.9578 c -0.0072,0.1313 -0.01134,0.2298 -0.02913,0.4078 -0.02331,0.2333 -0.04188,0.4639 -0.02913,0.6991 0.0037,-0.078 0.02132,-0.1549 0.02913,-0.233 C 31.531959,1018.411 31.557864,1018.1394 31.519048,1017.9578 z m -8.38866,0.5535 c -2.479071,-0.024 -4.937175,1.0673 -6.495385,3.5244 -1.012684,1.5968 -1.531987,3.2844 -1.543747,4.8933 0.09917,-1.4632 0.630468,-2.9872 1.543747,-4.4273 4.101217,-6.4669 14.526499,-3.377 14.796663,4.2234 0.001,-0.058 0,-0.1163 0,-0.1747 C 31.431666,1021.6629 27.262174,1018.5516 23.130388,1018.5113 z m 12.58299,6.3497 c -0.120899,0.2729 -0.359846,0.6455 -0.699055,1.0486 -1.099378,1.3065 -1.546284,2.4224 -1.456365,3.7283 0.04248,-1.1109 0.493747,-2.1183 1.456365,-3.2623 0.619622,-0.7364 0.951122,-1.4103 0.728182,-1.4855 C 35.73056,1024.8861 35.725292,1024.8651 35.713378,1024.861 z m -25.078597,0.233 -0.291273,0.1748 1.048583,1.1068 c 1.044486,1.0902 1.585713,2.0991 1.660255,3.2331 0.05431,-1.3224 -0.476504,-2.4635 -1.660255,-3.6991 L 10.634781,1025.094 z m 8.70906,3.4953 c -0.148697,0.6947 0.469629,2.2587 1.456364,3.4953 0.615542,0.7714 1.460606,0.6221 1.980656,-0.3496 l 0.466037,-0.8738 0.611673,0.8738 c 0.332985,0.4755 0.864171,0.8447 1.194219,0.8447 0.80125,0 2.329633,-3.1199 2.03891,-3.9904 -0.121089,1.1897 -1.341712,3.5244 -2.03891,3.5244 -0.330048,0 -0.861233,-0.3692 -1.194219,-0.8447 l -0.611673,-0.8738 -0.466037,0.8738 c -0.520051,0.9717 -1.365114,1.1209 -1.980656,0.3495 C 19.991864,1030.6056 19.441349,1029.3823 19.343841,1028.5893 z m 14.9423,4.6312 c -0.17065,0.2469 -0.674345,0.4441 -1.602001,0.6117 -1.036732,0.1873 -2.295267,0.7775 -2.912729,1.369 -0.596807,0.5718 -1.301978,1.0486 -1.572874,1.0486 -0.276883,0 -0.419558,-0.1862 -0.466037,-0.4661 -0.07765,0.5443 0.05836,0.9321 0.466037,0.9321 0.270896,0 0.976067,-0.4768 1.572874,-1.0486 0.617462,-0.5916 1.875998,-1.1817 2.912729,-1.369 1.283841,-0.232 1.775127,-0.4881 1.660255,-0.9029 C 34.336717,1033.3676 34.296203,1033.2567 34.286141,1033.2205 z m -22.107614,0.3204 c -0.128831,0.6677 0.109864,0.6991 0.902946,0.6991 1.444749,0 3.870457,1.067 4.165203,1.835 0.273018,0.7116 1.22232,0.8472 1.602001,0.233 0.0575,-0.093 0.03635,-0.2636 0,-0.466 -0.379681,0.6141 -1.328983,0.4785 -1.602001,-0.233 -0.294746,-0.7681 -2.720454,-1.835 -4.165203,-1.835 C 12.553273,1033.774 12.282462,1033.7438 12.178527,1033.5409 z m 15.087937,3.5244 c -0.136246,0.4708 -0.851047,0.6907 -3.844803,1.2234 -3.083612,0.5484 -3.848668,0.5301 -4.194329,-0.029 -0.01906,-0.031 -0.01426,-0.058 -0.02913,-0.087 -0.107649,0.1668 -0.106822,0.3334 0.02913,0.5534 0.34566,0.5592 1.110716,0.5775 4.194329,0.029 3.421435,-0.6087 3.87393,-0.7837 3.87393,-1.4272 C 27.295592,1037.2316 27.279973,1037.143 27.266464,1037.0653 z m 0,2.505 c -0.12184,0.442 -0.82874,0.5967 -4.281712,1.1942 -3.065296,0.5309 -3.415679,0.5238 -3.75742,-0.029 -0.02302,-0.037 -0.01241,-0.081 -0.02913,-0.1165 -0.11107,0.1742 -0.108381,0.36 0.02913,0.5825 0.341741,0.5529 0.692123,0.5591 3.75742,0.029 3.946254,-0.6827 4.310839,-0.7822 4.310839,-1.3981 C 27.295592,1039.7335 27.280819,1039.6514 27.266464,1039.5703 z m -0.495164,2.1263 c -0.187981,0.567 -3.413521,1.4531 -5.563313,1.5146 -0.744266,0.021 -1.108457,-0.041 -1.223346,-0.2622 -0.0066,0.021 -0.02501,0.037 -0.02913,0.058 -0.1075,0.5581 0.169905,0.701 1.252473,0.6699 2.149792,-0.062 5.375333,-0.9475 5.563313,-1.5146 C 26.833827,1041.974 26.852584,1041.8156 26.7713,1041.6966 z m -2.097165,2.2428 c -0.05973,0.098 -0.126403,0.1919 -0.233018,0.3204 -0.647423,0.7801 -1.827194,0.8338 -2.446693,0.087 -0.02913,-0.035 -0.03636,-0.056 -0.05825,-0.087 -0.185216,0.1267 -0.13849,0.3163 0.05825,0.5534 0.619499,0.7464 1.79927,0.6928 2.446693,-0.087 C 24.798511,1044.2952 24.880387,1044.0516 24.674135,1043.9394 Z"
         style="opacity:0.3;fill:url(#linearGradient1620);fill-opacity:1" />
      <path
         inkscape:connector-curvature="0"
         style="opacity:0.11940302;fill:url(#linearGradient922);fill-opacity:1"
         d="m 31.519048,1018.4287 c -0.0073,0.1312 -0.01133,0.2297 -0.02913,0.4078 -0.02331,0.2332 -0.04189,0.4638 -0.02913,0.699 0.0036,-0.078 0.02132,-0.1549 0.02913,-0.233 C 31.531959,1018.8817 31.557864,1018.6102 31.519048,1018.4287 z m -8.38866,0.5533 c -2.479071,-0.024 -4.937175,1.0675 -6.495385,3.5245 -1.012684,1.5968 -1.531987,3.2844 -1.543747,4.8934 0.09917,-1.4633 0.630468,-2.9873 1.543747,-4.4274 4.101217,-6.467 14.526499,-3.377 14.796663,4.2234 0.001,-0.058 0,-0.1163 0,-0.1747 C 31.431666,1022.1337 27.262174,1019.0224 23.130388,1018.982 z m 12.58299,6.3498 c -0.120899,0.273 -0.359846,0.6455 -0.699055,1.0486 -1.099378,1.3066 -1.546284,2.4223 -1.456365,3.7283 0.04248,-1.1109 0.493747,-2.1183 1.456365,-3.2623 0.619622,-0.7364 0.951122,-1.4102 0.728182,-1.4854 C 35.73056,1025.3569 35.725292,1025.3359 35.713378,1025.3318 z m -25.078597,0.233 -0.291273,0.1748 1.048583,1.1068 c 1.044486,1.0902 1.585713,2.0991 1.660255,3.2332 0.05431,-1.3225 -0.476504,-2.4636 -1.660255,-3.6992 L 10.634781,1025.5648 z m 8.70906,3.4953 c -0.148697,0.6947 0.469629,2.2588 1.456364,3.4953 0.615542,0.7713 1.460606,0.6221 1.980656,-0.3496 l 0.466037,-0.8738 0.611673,0.8738 c 0.332985,0.4755 0.864171,0.8448 1.194219,0.8448 0.80125,0 2.329633,-3.1201 2.03891,-3.9905 -0.121089,1.1898 -1.341712,3.5244 -2.03891,3.5244 -0.330048,0 -0.861233,-0.3693 -1.194219,-0.8447 l -0.611673,-0.8738 -0.466037,0.8738 c -0.520051,0.9717 -1.365114,1.1209 -1.980656,0.3495 C 19.991864,1031.0763 19.441349,1029.8531 19.343841,1029.0601 z m 14.9423,4.6313 c -0.17065,0.2469 -0.674345,0.444 -1.602001,0.6116 -1.036732,0.1872 -2.295267,0.7775 -2.912729,1.369 -0.596807,0.5719 -1.301978,1.0486 -1.572874,1.0486 -0.276883,0 -0.419558,-0.1862 -0.466037,-0.466 -0.07765,0.5442 0.05837,0.932 0.466037,0.932 0.270896,0 0.976067,-0.4768 1.572874,-1.0485 0.617462,-0.5916 1.875998,-1.1818 2.912729,-1.3691 1.283841,-0.232 1.775127,-0.4881 1.660255,-0.9029 C 34.336717,1033.8384 34.296203,1033.7275 34.286141,1033.6914 z m -22.107614,0.3203 c -0.128831,0.6678 0.109864,0.6991 0.902946,0.6991 1.444749,0 3.870457,1.067 4.165203,1.835 0.273018,0.7116 1.22232,0.8472 1.602001,0.2331 0.0575,-0.093 0.03634,-0.2636 0,-0.4661 -0.379681,0.6142 -1.328983,0.4786 -1.602001,-0.233 -0.294746,-0.768 -2.720454,-1.8351 -4.165203,-1.8351 C 12.553273,1034.2447 12.282462,1034.2145 12.178527,1034.0117 z m 15.087937,3.5245 c -0.136246,0.4708 -0.851047,0.6905 -3.844803,1.2233 -3.083612,0.5484 -3.848668,0.5301 -4.194329,-0.029 -0.01905,-0.031 -0.01426,-0.058 -0.02913,-0.088 -0.107649,0.1668 -0.106822,0.3334 0.02913,0.5534 0.34566,0.5592 1.110716,0.5776 4.194329,0.029 3.421435,-0.6088 3.87393,-0.7838 3.87393,-1.4273 C 27.295592,1037.7024 27.279973,1037.6138 27.266464,1037.5362 z m 0,2.5049 c -0.12184,0.442 -0.82874,0.5967 -4.281712,1.1942 -3.065296,0.5309 -3.415679,0.5238 -3.75742,-0.029 -0.02302,-0.037 -0.01241,-0.081 -0.02913,-0.1165 -0.11107,0.1742 -0.108381,0.36 0.02913,0.5825 0.341741,0.5529 0.692123,0.5591 3.75742,0.029 3.946254,-0.6827 4.310839,-0.7822 4.310839,-1.3981 C 27.295592,1040.2043 27.280819,1040.1222 27.266464,1040.0411 z m -0.495164,2.1263 c -0.187981,0.567 -3.413521,1.4531 -5.563313,1.5146 -0.744266,0.021 -1.108457,-0.041 -1.223346,-0.2621 -0.0066,0.02 -0.02501,0.037 -0.02913,0.058 -0.1075,0.5581 0.169905,0.7009 1.252473,0.6699 2.149792,-0.062 5.375333,-0.9476 5.563313,-1.5147 C 26.833827,1042.4448 26.852584,1042.2865 26.7713,1042.1674 z m -2.097165,2.2428 c -0.05973,0.098 -0.126403,0.1919 -0.233018,0.3204 -0.647423,0.7801 -1.827194,0.8338 -2.446693,0.088 -0.02913,-0.035 -0.03636,-0.056 -0.05825,-0.088 -0.185216,0.1267 -0.13849,0.3163 0.05825,0.5534 0.619499,0.7464 1.79927,0.6927 2.446693,-0.088 C 24.798511,1044.7661 24.880387,1044.5224 24.674135,1044.4102 Z"
         id="path920" />
      <path
         id="path924"
         d="m 31.519048,1018.8995 c -0.0073,0.1312 -0.01133,0.2297 -0.02913,0.4077 -0.02331,0.2332 -0.04189,0.4639 -0.02913,0.6991 0.0036,-0.078 0.02132,-0.1549 0.02913,-0.233 C 31.531959,1019.3525 31.557864,1019.081 31.519048,1018.8995 z m -8.38866,0.5533 c -2.479071,-0.024 -4.937175,1.0674 -6.495385,3.5245 -1.012684,1.5968 -1.531987,3.2844 -1.543747,4.8934 0.09917,-1.4633 0.630468,-2.9873 1.543747,-4.4274 4.101217,-6.467 14.526499,-3.377 14.796663,4.2234 0.001,-0.058 0,-0.1163 0,-0.1747 C 31.431666,1022.6045 27.262174,1019.4932 23.130388,1019.4528 z m 12.58299,6.3498 c -0.120899,0.273 -0.359846,0.6454 -0.699055,1.0486 -1.099378,1.3065 -1.546284,2.4223 -1.456365,3.7283 0.04248,-1.1109 0.493747,-2.1183 1.456365,-3.2623 0.619622,-0.7364 0.951122,-1.4102 0.728182,-1.4854 C 35.73056,1025.8277 35.725292,1025.8067 35.713378,1025.8026 z m -25.078597,0.233 -0.291273,0.1748 1.048583,1.1068 c 1.044486,1.0902 1.585713,2.0991 1.660255,3.2332 0.05431,-1.3225 -0.476504,-2.4636 -1.660255,-3.6992 L 10.634781,1026.0356 z m 8.70906,3.4953 c -0.148697,0.6946 0.469629,2.2588 1.456364,3.4952 0.615542,0.7714 1.460606,0.6222 1.980656,-0.3495 l 0.466037,-0.8738 0.611673,0.8738 c 0.332985,0.4755 0.864171,0.8448 1.194219,0.8448 0.80125,0 2.329633,-3.1201 2.03891,-3.9905 -0.121089,1.1898 -1.341712,3.5244 -2.03891,3.5244 -0.330048,0 -0.861233,-0.3693 -1.194219,-0.8447 l -0.611673,-0.8738 -0.466037,0.8738 c -0.520051,0.9717 -1.365114,1.1209 -1.980656,0.3495 C 19.991864,1031.5471 19.441349,1030.3239 19.343841,1029.5309 z m 14.9423,4.6313 c -0.17065,0.2469 -0.674345,0.444 -1.602001,0.6116 -1.036732,0.1872 -2.295267,0.7775 -2.912729,1.369 -0.596807,0.5718 -1.301978,1.0486 -1.572874,1.0486 -0.276883,0 -0.419558,-0.1862 -0.466037,-0.466 -0.07765,0.5442 0.05837,0.932 0.466037,0.932 0.270896,0 0.976067,-0.4768 1.572874,-1.0485 0.617462,-0.5916 1.875998,-1.1818 2.912729,-1.3691 1.283841,-0.232 1.775127,-0.4881 1.660255,-0.9029 C 34.336717,1034.3091 34.296203,1034.1983 34.286141,1034.1622 z m -22.107614,0.3203 c -0.128831,0.6678 0.109864,0.6991 0.902946,0.6991 1.444749,0 3.870457,1.067 4.165203,1.835 0.273018,0.7116 1.22232,0.8472 1.602001,0.2331 0.0575,-0.093 0.03634,-0.2636 0,-0.4661 -0.379681,0.6142 -1.328983,0.4785 -1.602001,-0.233 -0.294746,-0.768 -2.720454,-1.8351 -4.165203,-1.8351 C 12.553273,1034.7155 12.282462,1034.6853 12.178527,1034.4825 z m 15.087937,3.5245 c -0.136246,0.4708 -0.851047,0.6905 -3.844803,1.2233 -3.083612,0.5484 -3.848668,0.5301 -4.194329,-0.029 -0.01905,-0.031 -0.01426,-0.058 -0.02913,-0.088 -0.107649,0.1668 -0.106822,0.3334 0.02913,0.5534 0.34566,0.5592 1.110716,0.5776 4.194329,0.029 3.421435,-0.6088 3.87393,-0.7838 3.87393,-1.4273 C 27.295592,1038.1732 27.279973,1038.0846 27.266464,1038.007 z m 0,2.5049 c -0.12184,0.442 -0.82874,0.5967 -4.281712,1.1942 -3.065296,0.5309 -3.415679,0.5238 -3.75742,-0.029 -0.02302,-0.037 -0.01241,-0.081 -0.02913,-0.1165 -0.11107,0.1742 -0.108381,0.3599 0.02913,0.5825 0.341741,0.5529 0.692123,0.5591 3.75742,0.029 3.946254,-0.6827 4.310839,-0.7822 4.310839,-1.3981 C 27.295592,1040.6751 27.280819,1040.593 27.266464,1040.5119 z m -0.495164,2.1263 c -0.187981,0.567 -3.413521,1.4531 -5.563313,1.5146 -0.744266,0.021 -1.108457,-0.041 -1.223346,-0.2621 -0.0066,0.021 -0.02501,0.037 -0.02913,0.058 -0.1075,0.5581 0.169905,0.7009 1.252473,0.6698 2.149792,-0.062 5.375333,-0.9475 5.563313,-1.5146 C 26.833827,1042.9156 26.852584,1042.7573 26.7713,1042.6382 z m -2.097165,2.2428 c -0.05973,0.098 -0.126403,0.1919 -0.233018,0.3204 -0.647423,0.7801 -1.827194,0.8338 -2.446693,0.088 -0.02913,-0.035 -0.03636,-0.056 -0.05825,-0.088 -0.185216,0.1267 -0.13849,0.3163 0.05825,0.5534 0.619499,0.7464 1.79927,0.6927 2.446693,-0.088 C 24.798511,1045.2369 24.880387,1044.9932 24.674135,1044.881 Z"
         style="opacity:0.06700003;fill:url(#linearGradient926);fill-opacity:1"
         inkscape:connector-curvature="0" />
    </g>
  </g>
</svg>
