<?xml version="1.0" encoding="UTF-8" standalone="no"?>
<!-- Created with Inkscape (http://www.inkscape.org/) -->

<svg
   xmlns:dc="http://purl.org/dc/elements/1.1/"
   xmlns:cc="http://creativecommons.org/ns#"
   xmlns:rdf="http://www.w3.org/1999/02/22-rdf-syntax-ns#"
   xmlns:svg="http://www.w3.org/2000/svg"
   xmlns="http://www.w3.org/2000/svg"
   xmlns:xlink="http://www.w3.org/1999/xlink"
   xmlns:sodipodi="http://sodipodi.sourceforge.net/DTD/sodipodi-0.dtd"
   xmlns:inkscape="http://www.inkscape.org/namespaces/inkscape"
   width="48"
   height="48"
   id="svg2"
   version="1.1"
   inkscape:version="0.48+devel r12149"
   sodipodi:docname="screenlets.svg"
   inkscape:export-filename="/home/uri/Iconos/NITRUX-Buttons/apps/16/screenlets.png"
   inkscape:export-xdpi="30"
   inkscape:export-ydpi="30">
  <defs
     id="defs4">
    <linearGradient
       inkscape:collect="always"
       id="linearGradient840">
      <stop
         style="stop-color:#1e1e1e;stop-opacity:1"
         offset="0"
         id="stop842" />
      <stop
         style="stop-color:#2f2f2f;stop-opacity:1"
         offset="1"
         id="stop844" />
    </linearGradient>
    <linearGradient
       inkscape:collect="always"
       xlink:href="#linearGradient840"
       id="linearGradient866"
       x1="28.326162"
       y1="1050.7148"
       x2="28.326162"
       y2="1006.1509"
       gradientUnits="userSpaceOnUse" />
  </defs>
  <sodipodi:namedview
     id="base"
     pagecolor="#ffffff"
     bordercolor="#666666"
     borderopacity="1.0"
     inkscape:pageopacity="0.0"
     inkscape:pageshadow="2"
     inkscape:zoom="4.3186038"
     inkscape:cx="-54.769686"
     inkscape:cy="61.064851"
     inkscape:document-units="px"
     inkscape:current-layer="layer1"
     showgrid="false"
     inkscape:window-width="1366"
     inkscape:window-height="716"
     inkscape:window-x="0"
     inkscape:window-y="28"
     inkscape:window-maximized="1">
    <inkscape:grid
       type="xygrid"
       id="grid3850" />
  </sodipodi:namedview>
  <metadata
     id="metadata7">
    <rdf:RDF>
      <cc:Work
         rdf:about="">
        <dc:format>image/svg+xml</dc:format>
        <dc:type
           rdf:resource="http://purl.org/dc/dcmitype/StillImage" />
        <dc:title />
      </cc:Work>
    </rdf:RDF>
  </metadata>
  <g
     inkscape:label="Capa 1"
     inkscape:groupmode="layer"
     id="layer1"
     transform="translate(0,-1004.3622)">
    <rect
       style="color:#000000;fill:#333333;fill-opacity:1;fill-rule:nonzero;stroke:none;stroke-width:0.2;marker:none;visibility:visible;display:inline;overflow:visible;enable-background:accumulate"
       id="rect6294"
       width="45.5"
       height="45.5"
       x="1.25"
       y="1005.6122"
       ry="6.3565426" />
    <rect
       ry="5.8565426"
       y="1006.1122"
       x="1.75"
       height="44.5"
       width="44.5"
       id="rect6296"
       style="color:#000000;fill:url(#linearGradient866);fill-opacity:1.0;fill-rule:nonzero;stroke:none;stroke-width:0.2;marker:none;visibility:visible;display:inline;overflow:visible;enable-background:accumulate" />
    <path
       id="path6361"
       d="m 1.7499999,1012.5497 0,-0.5625 c 0,-3.2445 2.599225,-5.875 5.84375,-5.875 l 32.8125001,0 c 3.244525,0 5.84375,2.6305 5.84375,5.875 l 0,0.5625 c 0,-3.2445 -2.599225,-5.875 -5.84375,-5.875 l -32.8125001,0 C 4.3492249,1006.6747 1.7499999,1009.3052 1.7499999,1012.5497 Z"
       style="color:#000000;fill:#ffffff;fill-opacity:1;fill-rule:nonzero;stroke:none;stroke-width:0.2;marker:none;visibility:visible;display:inline;overflow:visible;enable-background:accumulate"
       inkscape:connector-curvature="0" />
    <path
       inkscape:connector-curvature="0"
       style="color:#000000;fill:#000000;fill-opacity:1;fill-rule:nonzero;stroke:none;stroke-width:0.2;marker:none;visibility:visible;display:inline;overflow:visible;enable-background:accumulate"
       d="m 1.7499999,1044.1747 0,0.5625 c 0,3.2445 2.599225,5.875 5.84375,5.875 l 32.8125001,0 c 3.244525,0 5.84375,-2.6305 5.84375,-5.875 l 0,-0.5625 c 0,3.2445 -2.599225,5.875 -5.84375,5.875 l -32.8125001,0 C 4.3492249,1050.0497 1.7499999,1047.4192 1.7499999,1044.1747 Z"
       id="path6388" />
    <g
       id="g1078"
       transform="matrix(0.9375,0,0,0.9375,1.5001505,64.272637)">
      <path
         id="path850"
         d="m 9.8125,1030.8935 c -0.1334291,0 -0.25,0.1166 -0.25,0.25 l 0,0.6562 c 0,0.1332 0.1165709,0.2188 0.25,0.2188 l 0.0625,0 c 0.13343,0 0.25,-0.086 0.25,-0.2188 l 0,-0.6562 c 0,-0.1334 -0.11657,-0.25 -0.25,-0.25 L 9.8125,1030.8935 Z M 7.25,1031.956 c -0.061572,0 -0.1403325,0.014 -0.1875,0.062 L 7,1032.081 c -0.094337,0.094 -0.094337,0.2494 0,0.3437 l 0.46875,0.4688 c 0.094367,0.094 0.249412,0.094 0.34375,0 l 0.0625,-0.062 c 0.094337,-0.094 0.094367,-0.2494 0,-0.3438 L 7.40625,1032.019 C 7.3590822,1031.971 7.3115832,1031.956 7.25,1031.956 z m 5.21875,0 c -0.06158,0 -0.140337,0.014 -0.1875,0.062 l -0.46875,0.4687 c -0.09437,0.094 -0.09433,0.2495 0,0.3438 l 0.0625,0.062 c 0.09433,0.094 0.24938,0.094 0.34375,0 l 0.4375,-0.4688 c 0.09437,-0.095 0.09437,-0.2495 0,-0.3437 L 12.625,1032.018 C 12.577848,1031.9711 12.530332,1031.956 12.46875,1031.956 z m -2.625,0.9062 c -0.3995363,0 -0.7486991,0.1101 -1.0625,0.3125 -0.2703899,-0.084 -0.5772123,-0.125 -0.875,-0.125 -1.6084883,0 -2.90625,1.2979 -2.90625,2.9063 0,1.1059 0.6213571,2.0712 1.53125,2.5625 l 0,-0.6875 c -0.5707378,-0.4238 -0.9375,-1.1124 -0.9375,-1.875 0,-1.2841 1.0284752,-2.3125 2.3125,-2.3125 1.0527102,0 1.9639681,0.6935 2.25,1.6562 l 0.53125,0 c 0.02384,0 0.04113,0 0.0625,0 l 0.03125,0 c 0.799983,0.068 1.40625,0.7455 1.40625,1.5625 0,0.7679 -0.550311,1.4023 -1.28125,1.5313 l 0,0.4375 c 0.975511,-0.1338 1.71875,-0.9552 1.71875,-1.9688 0,-0.671 -0.30847,-1.259 -0.8125,-1.625 0.02469,-0.1245 0.03125,-0.2426 0.03125,-0.375 C 11.843726,1033.7557 10.951299,1032.8622 9.84375,1032.8622 z m -0.28125,0.4375 c 0.094671,-0.016 0.1813993,0 0.28125,0 0.861082,0 1.5625,0.7014 1.5625,1.5625 0,0.047 0.0044,0.1086 0,0.1563 -0.231683,-0.095 -0.515188,-0.1563 -0.78125,-0.1563 -0.259438,-0.6339 -0.7440938,-1.1492 -1.34375,-1.4687 C 9.3695761,1033.3588 9.4678288,1033.3158 9.5625,1033.2997 z m 3.34375,1.2813 c -0.133457,0 -0.25,0.1167 -0.25,0.25 l 0,0.062 c 0,0.1334 0.116543,0.25 0.25,0.25 l 0.65625,0 c 0.133412,0 0.25,-0.1166 0.25,-0.25 l 0,-0.062 c 0,-0.1333 -0.116588,-0.25 -0.25,-0.25 L 12.90625,1034.581 z m -5.53125,2.875 c -0.2077185,0 -0.40625,0.167 -0.40625,0.375 0,0.2075 0.1985315,0.375 0.40625,0.375 0.2077185,0 0.375,-0.1675 0.375,-0.375 C 7.75,1037.623 7.5827185,1037.456 7.375,1037.456 z m 2.71875,0 c -0.2077185,0 -0.375,0.167 -0.375,0.375 0,0.2075 0.1672815,0.375 0.375,0.375 0.207718,0 0.375,-0.1675 0.375,-0.375 C 10.46875,1037.623 10.301468,1037.456 10.09375,1037.456 z m -1.375,0.9062 c -0.2077185,0 -0.375,0.1674 -0.375,0.375 0,0.2078 0.1672815,0.375 0.375,0.375 0.2077185,0 0.375,-0.1672 0.375,-0.375 C 9.09375,1038.5296 8.9264685,1038.3622 8.71875,1038.3622 z m -1.34375,0.9063 c -0.2077185,0 -0.40625,0.1673 -0.40625,0.375 0,0.2077 0.1985315,0.4062 0.40625,0.4062 0.2077185,0 0.375,-0.1985 0.375,-0.4062 C 7.75,1039.4358 7.5827185,1039.2685 7.375,1039.2685 z m 2.71875,0 c -0.2077185,0 -0.375,0.1673 -0.375,0.375 0,0.2077 0.1672815,0.4062 0.375,0.4062 0.207718,0 0.375,-0.1985 0.375,-0.4062 C 10.46875,1039.4358 10.301468,1039.2685 10.09375,1039.2685 z m -1.375,0.9062 c -0.2077185,0 -0.375,0.1671 -0.375,0.375 0,0.2076 0.1672815,0.4063 0.375,0.4063 0.2077185,0 0.375,-0.1987 0.375,-0.4063 C 9.09375,1040.3418 8.9264685,1040.1747 8.71875,1040.1747 Z"
         style="fill:#ffffff;fill-opacity:1;stroke:none"
         inkscape:connector-curvature="0" />
      <path
         id="path1043"
         d="m 21.15625,1019.5497 c -1.093053,1.8163 -2.662515,2.9279 -4.75,3.2813 l 0,0.8125 c 1.816276,-0.1726 3.357736,-0.9121 4.65625,-2.2188 l 0,15.5625 0.96875,0 0,-17.4375 L 21.15625,1019.5497 z m 15.78125,0 -8.46875,12.0313 0,0.9687 8.46875,0 0,4.4375 0.96875,0 0,-4.4375 2.9375,0 0,-0.8437 -2.9375,0 0,-12.1563 L 36.9375,1019.5497 z m -0.0625,1.3125 0.0625,0 0,10.8438 -7.53125,0 L 36.875,1020.8622 Z"
         style="font-size:25.24705887px;font-style:normal;font-variant:normal;font-weight:normal;font-stretch:normal;text-align:start;line-height:125%;letter-spacing:0px;word-spacing:0px;writing-mode:lr-tb;text-anchor:start;fill:#ffffff;fill-opacity:1;stroke:none;font-family:Helvetica 35 Thin;-inkscape-font-specification:'Helvetica 35 Thin, Thin,'"
         inkscape:connector-curvature="0" />
      <path
         style="fill:#ffffff;fill-opacity:1;stroke:none"
         d="m 41.910318,1012.3622 c -0.593699,0 -1.079669,0.4787 -1.079669,1.0724 0,0.5937 0.48597,1.0797 1.079669,1.0797 0.593699,0 1.072423,-0.486 1.072423,-1.0797 C 42.982741,1012.8409 42.504017,1012.3622 41.910318,1012.3622 z m 0,0.232 c 0.465639,0 0.840546,0.3749 0.840546,0.8404 0,0.4656 -0.374907,0.8479 -0.840546,0.8479 -0.465637,0 -0.847792,-0.3823 -0.847792,-0.8479 C 41.062526,1012.9691 41.444681,1012.5942 41.910318,1012.5942 Z"
         id="path975"
         inkscape:connector-curvature="0" />
      <path
         id="path1024"
         d="m 5.875,1012.3622 c -0.5758654,0 -0.875,0.4268 -0.875,0.9688 0,0.5444 0.2938994,1 0.875,1 0.4711626,0 0.7653837,-0.2841 0.8125,-0.75 l -0.25,0 c -0.023558,0.3088 -0.2353037,0.5312 -0.5625,0.5312 -0.4476045,0 -0.625,-0.3546 -0.625,-0.7812 0,-0.39 0.180013,-0.75 0.625,-0.75 0.2591394,0 0.4788986,0.1106 0.53125,0.375 l 0.25,0 C 6.598663,1012.5582 6.265018,1012.3622 5.875,1012.3622 z m 1.09375,0.031 0,1.2187 c 0,0.4973 0.2996171,0.7188 0.78125,0.7188 0.4659275,0 0.71875,-0.2477 0.71875,-0.7188 l 0,-1.2187 -0.25,0 0,1.2187 c 0,0.3298 -0.1546416,0.5 -0.46875,0.5 -0.3298138,0 -0.53125,-0.1702 -0.53125,-0.5 l 0,-1.2187 L 6.96875,1012.3935 z m 1.90625,0 0,1.875 0.25,0 0,-0.7813 0.59375,0 c 0.2408164,0 0.286324,0.1293 0.3125,0.3125 0.03665,0.1832 0.02309,0.3928 0.09375,0.4688 l 0.25,0 c -0.104702,-0.1283 -0.07804,-0.3167 -0.09375,-0.5 -0.01832,-0.1832 -0.06399,-0.3645 -0.28125,-0.4063 0.225111,-0.063 0.3125,-0.2436 0.3125,-0.4687 0,-0.2984 -0.211745,-0.5 -0.5625,-0.5 L 8.875,1012.3935 z m 1.78125,0 0,1.875 0.25,0 0,-0.7813 0.625,0 c 0.240817,0 0.286324,0.1293 0.3125,0.3125 0.03665,0.1832 -0.0082,0.3928 0.0625,0.4688 l 0.28125,0 c -0.104702,-0.1283 -0.109292,-0.3167 -0.125,-0.5 -0.01832,-0.1832 -0.06399,-0.3645 -0.28125,-0.4063 0.225111,-0.063 0.34375,-0.2436 0.34375,-0.4687 0,-0.2984 -0.211745,-0.5 -0.5625,-0.5 L 10.65625,1012.3935 z m 1.8125,0 0,1.875 1.28125,0 0,-0.1875 -1.03125,0 0,-0.6563 0.96875,0 0,-0.2187 -0.96875,0 0,-0.5938 1.03125,0 0,-0.2187 L 12.46875,1012.3935 z m 1.59375,0 0,1.875 0.25,0 0,-1.5 0.96875,1.5 0.28125,0 0,-1.875 -0.25,0 0,1.5312 -1,-1.5312 L 14.0625,1012.3935 z m 1.6875,0 0,0.2187 0.625,0 0,1.6563 0.25,0 0,-1.6563 0.625,0 0,-0.2187 L 15.75,1012.3935 z m 1.71875,0 0,1.875 1.21875,0 0,-0.1875 -0.96875,0 0,-1.6875 L 17.46875,1012.3935 z m 0.96875,0 0.71875,1.125 0,0.75 0.25,0 0,-0.75 0.71875,-1.125 -0.28125,0 -0.5625,0.9062 -0.5625,-0.9062 L 18.4375,1012.3935 z m -9.3125,0.2187 0.625,0 c 0.2329638,0 0.3125,0.1293 0.3125,0.3125 0,0.2722 -0.1732863,0.3438 -0.40625,0.3438 l -0.53125,0 L 9.125,1012.6122 z m 1.78125,0 0.625,0 c 0.232963,0 0.34375,0.1293 0.34375,0.3125 0,0.2722 -0.204536,0.3438 -0.4375,0.3438 l -0.53125,0 L 10.90625,1012.6122 Z"
         style="font-size:2.61757016px;font-style:normal;font-variant:normal;font-weight:normal;font-stretch:normal;text-align:start;line-height:125%;letter-spacing:0px;word-spacing:0px;writing-mode:lr-tb;text-anchor:start;fill:#ffffff;fill-opacity:1;stroke:none;font-family:Helvetica Neue;-inkscape-font-specification:Helvetica Neue"
         inkscape:connector-curvature="0" />
      <path
         id="rect988"
         d="m 5.9723997,1044.1097 37.0272793,0 0,0.2525 L 5.9723997,1044.3622 Z"
         style="fill:#ffffff;fill-opacity:0.4857143;stroke:none"
         inkscape:connector-curvature="0" />
      <path
         inkscape:connector-curvature="0"
         style="font-size:25.24705887px;font-style:normal;font-variant:normal;font-weight:normal;font-stretch:normal;text-align:start;line-height:125%;letter-spacing:0px;word-spacing:0px;writing-mode:lr-tb;text-anchor:start;fill:#ffffff;fill-opacity:0.25714291;stroke:none;font-family:Helvetica 35 Thin;-inkscape-font-specification:'Helvetica 35 Thin, Thin,'"
         d="m 21.15625,1019.9708 c -1.093053,1.8163 -2.662515,2.9279 -4.75,3.2813 l 0,0.8125 c 1.816276,-0.1726 3.357736,-0.9121 4.65625,-2.2188 l 0,15.5625 0.96875,0 0,-17.4375 L 21.15625,1019.9708 z m 15.78125,0 -8.46875,12.0313 0,0.9687 8.46875,0 0,4.4375 0.96875,0 0,-4.4375 2.9375,0 0,-0.8437 -2.9375,0 0,-12.1563 L 36.9375,1019.9708 z m -0.0625,1.3125 0.0625,0 0,10.8438 -7.53125,0 L 36.875,1021.2833 Z"
         id="path1074" />
      <path
         inkscape:connector-curvature="0"
         style="font-size:2.61757016px;font-style:normal;font-variant:normal;font-weight:normal;font-stretch:normal;text-align:start;line-height:125%;letter-spacing:0px;word-spacing:0px;writing-mode:lr-tb;text-anchor:start;fill:#ffffff;fill-opacity:0.14857142;stroke:none;font-family:Helvetica Neue;-inkscape-font-specification:Helvetica Neue"
         d="m 5.875,1012.426 c -0.5758654,0 -0.875,0.4268 -0.875,0.9688 0,0.5444 0.2938994,1 0.875,1 0.4711626,0 0.7653837,-0.2841 0.8125,-0.75 l -0.25,0 c -0.023558,0.3088 -0.2353037,0.5312 -0.5625,0.5312 -0.4476045,0 -0.625,-0.3546 -0.625,-0.7812 0,-0.39 0.180013,-0.75 0.625,-0.75 0.2591394,0 0.4788986,0.1106 0.53125,0.375 l 0.25,0 C 6.598663,1012.622 6.265018,1012.426 5.875,1012.426 z m 1.09375,0.031 0,1.2187 c 0,0.4973 0.2996171,0.7188 0.78125,0.7188 0.4659275,0 0.71875,-0.2477 0.71875,-0.7188 l 0,-1.2187 -0.25,0 0,1.2187 c 0,0.3298 -0.1546416,0.5 -0.46875,0.5 -0.3298138,0 -0.53125,-0.1702 -0.53125,-0.5 l 0,-1.2187 L 6.96875,1012.4573 z m 1.90625,0 0,1.875 0.25,0 0,-0.7813 0.59375,0 c 0.2408164,0 0.286324,0.1293 0.3125,0.3125 0.03665,0.1832 0.02309,0.3928 0.09375,0.4688 l 0.25,0 c -0.104702,-0.1283 -0.07804,-0.3167 -0.09375,-0.5 -0.01832,-0.1832 -0.06399,-0.3645 -0.28125,-0.4063 0.225111,-0.063 0.3125,-0.2436 0.3125,-0.4687 0,-0.2984 -0.211745,-0.5 -0.5625,-0.5 L 8.875,1012.4573 z m 1.78125,0 0,1.875 0.25,0 0,-0.7813 0.625,0 c 0.240817,0 0.286324,0.1293 0.3125,0.3125 0.03665,0.1832 -0.0082,0.3928 0.0625,0.4688 l 0.28125,0 c -0.104702,-0.1283 -0.109292,-0.3167 -0.125,-0.5 -0.01832,-0.1832 -0.06399,-0.3645 -0.28125,-0.4063 0.225111,-0.063 0.34375,-0.2436 0.34375,-0.4687 0,-0.2984 -0.211745,-0.5 -0.5625,-0.5 L 10.65625,1012.4573 z m 1.8125,0 0,1.875 1.28125,0 0,-0.1875 -1.03125,0 0,-0.6563 0.96875,0 0,-0.2187 -0.96875,0 0,-0.5938 1.03125,0 0,-0.2187 L 12.46875,1012.4573 z m 1.59375,0 0,1.875 0.25,0 0,-1.5 0.96875,1.5 0.28125,0 0,-1.875 -0.25,0 0,1.5312 -1,-1.5312 L 14.0625,1012.4573 z m 1.6875,0 0,0.2187 0.625,0 0,1.6563 0.25,0 0,-1.6563 0.625,0 0,-0.2187 L 15.75,1012.4573 z m 1.71875,0 0,1.875 1.21875,0 0,-0.1875 -0.96875,0 0,-1.6875 L 17.46875,1012.4573 z m 0.96875,0 0.71875,1.125 0,0.75 0.25,0 0,-0.75 0.71875,-1.125 -0.28125,0 -0.5625,0.9062 -0.5625,-0.9062 L 18.4375,1012.4573 z m -9.3125,0.2187 0.625,0 c 0.2329638,0 0.3125,0.1293 0.3125,0.3125 0,0.2722 -0.1732863,0.3438 -0.40625,0.3438 l -0.53125,0 L 9.125,1012.676 z m 1.78125,0 0.625,0 c 0.232963,0 0.34375,0.1293 0.34375,0.3125 0,0.2722 -0.204536,0.3438 -0.4375,0.3438 l -0.53125,0 L 10.90625,1012.676 Z"
         id="path1076" />
    </g>
  </g>
</svg>
