<?xml version="1.0" encoding="UTF-8" standalone="no"?>
<!-- Created with Inkscape (http://www.inkscape.org/) -->

<svg
   xmlns:dc="http://purl.org/dc/elements/1.1/"
   xmlns:cc="http://creativecommons.org/ns#"
   xmlns:rdf="http://www.w3.org/1999/02/22-rdf-syntax-ns#"
   xmlns:svg="http://www.w3.org/2000/svg"
   xmlns="http://www.w3.org/2000/svg"
   xmlns:xlink="http://www.w3.org/1999/xlink"
   xmlns:sodipodi="http://sodipodi.sourceforge.net/DTD/sodipodi-0.dtd"
   xmlns:inkscape="http://www.inkscape.org/namespaces/inkscape"
   width="48"
   height="48"
   id="svg2"
   version="1.1"
   inkscape:version="0.48+devel r12149"
   sodipodi:docname="scanner.svg">
  <defs
     id="defs4">
    <linearGradient
       inkscape:collect="always"
       xlink:href="#linearGradient16368"
       id="linearGradient16384"
       gradientUnits="userSpaceOnUse"
       x1="-4.3722496"
       y1="27.844995"
       x2="6.505054"
       y2="27.844995"
       gradientTransform="matrix(0,-1,1,0,1e-6,46)" />
    <linearGradient
       inkscape:collect="always"
       id="linearGradient16368">
      <stop
         style="stop-color:#1a1a1a;stop-opacity:1;"
         offset="0"
         id="stop16370" />
      <stop
         style="stop-color:#1a1a1a;stop-opacity:0;"
         offset="1"
         id="stop16372" />
    </linearGradient>
    <linearGradient
       inkscape:collect="always"
       xlink:href="#linearGradient16368"
       id="linearGradient16378"
       gradientUnits="userSpaceOnUse"
       x1="-4.3722496"
       y1="27.844995"
       x2="6.505054"
       y2="27.844995"
       gradientTransform="matrix(-1,0,0,1,46,2)" />
    <linearGradient
       gradientTransform="translate(2,2)"
       inkscape:collect="always"
       xlink:href="#linearGradient16368"
       id="linearGradient16374"
       x1="-4.3722496"
       y1="27.844995"
       x2="6.505054"
       y2="27.844995"
       gradientUnits="userSpaceOnUse" />
    <linearGradient
       inkscape:collect="always"
       xlink:href="#linearGradient16368"
       id="linearGradient16386"
       gradientUnits="userSpaceOnUse"
       gradientTransform="matrix(0,1,1,0,1e-6,2)"
       x1="-4.3722496"
       y1="27.844995"
       x2="6.505054"
       y2="27.844995" />
    <linearGradient
       inkscape:collect="always"
       xlink:href="#linearGradient3021-6"
       id="linearGradient16343"
       gradientUnits="userSpaceOnUse"
       gradientTransform="matrix(1.0682854,0,0,-0.64663125,-1.638852,-656.43683)"
       x1="23.157747"
       y1="-1052.0176"
       x2="23.157747"
       y2="-1004.4557" />
    <linearGradient
       id="linearGradient3021-6">
      <stop
         style="stop-color:#60b5cc;stop-opacity:1;"
         offset="0"
         id="stop3023-2" />
      <stop
         style="stop-color:#ffffff;stop-opacity:0"
         offset="1"
         id="stop3025-2" />
    </linearGradient>
    <linearGradient
       id="linearGradient1086-2">
      <stop
         style="stop-color:#e8e8e8;stop-opacity:1"
         offset="0"
         id="stop1088-1" />
      <stop
         style="stop-color:#ffffff;stop-opacity:1"
         offset="1"
         id="stop1090-3" />
    </linearGradient>
    <linearGradient
       id="linearGradient3795-1-6-7">
      <stop
         style="stop-color:#000000;stop-opacity:1"
         offset="0"
         id="stop1162-1" />
      <stop
         style="stop-color:#333333;stop-opacity:1"
         offset="1"
         id="stop1164-0" />
    </linearGradient>
    <linearGradient
       gradientTransform="translate(-9.0942383e-7,1005.4559)"
       gradientUnits="userSpaceOnUse"
       y2="-13.625"
       x2="26.25"
       y1="20.25"
       x1="26.25"
       id="linearGradient1847-1"
       xlink:href="#linearGradient2198-1"
       inkscape:collect="always" />
    <linearGradient
       id="linearGradient2198-1"
       inkscape:collect="always">
      <stop
         id="stop2200-5"
         offset="0"
         style="stop-color:#ffffff;stop-opacity:1;" />
      <stop
         id="stop2202-6"
         offset="1"
         style="stop-color:#ffffff;stop-opacity:0;" />
    </linearGradient>
    <linearGradient
       gradientTransform="translate(-9.0942383e-7,1023.4559)"
       y2="2.9920094"
       x2="26.25"
       y1="20.25"
       x1="26.25"
       gradientUnits="userSpaceOnUse"
       id="linearGradient1857-2"
       xlink:href="#linearGradient2198-1"
       inkscape:collect="always" />
    <linearGradient
       gradientUnits="userSpaceOnUse"
       y2="1006.4419"
       x2="23.911612"
       y1="1050.7006"
       x1="23.911612"
       id="linearGradient1971"
       xlink:href="#linearGradient2026-1"
       inkscape:collect="always"
       gradientTransform="translate(-9.0942383e-7,2.5236094e-5)" />
    <linearGradient
       id="linearGradient2026-1"
       inkscape:collect="always">
      <stop
         id="stop2028-4"
         offset="0"
         style="stop-color:#adb3c2;stop-opacity:1" />
      <stop
         id="stop2030-7"
         offset="1"
         style="stop-color:#a0a5b8;stop-opacity:1" />
    </linearGradient>
    <linearGradient
       inkscape:collect="always"
       xlink:href="#linearGradient3795-1-6-7"
       id="linearGradient2752"
       gradientUnits="userSpaceOnUse"
       gradientTransform="matrix(0.85393258,0,0,0.85393258,3.5056171,150.21025)"
       x1="23.911612"
       y1="1050.7006"
       x2="23.911612"
       y2="1006.4419" />
    <linearGradient
       inkscape:collect="always"
       xlink:href="#linearGradient1086-2"
       id="linearGradient2756"
       gradientUnits="userSpaceOnUse"
       gradientTransform="matrix(0.71910112,0,0,0.71910112,6.7415722,288.86581)"
       x1="23.911612"
       y1="1050.7006"
       x2="23.911612"
       y2="1006.4419" />
  </defs>
  <sodipodi:namedview
     id="base"
     pagecolor="#ffffff"
     bordercolor="#666666"
     borderopacity="1.0"
     inkscape:pageopacity="0.0"
     inkscape:pageshadow="2"
     inkscape:zoom="8"
     inkscape:cx="32.318709"
     inkscape:cy="25.060112"
     inkscape:document-units="px"
     inkscape:current-layer="layer1"
     showgrid="false"
     inkscape:window-width="1366"
     inkscape:window-height="716"
     inkscape:window-x="0"
     inkscape:window-y="28"
     inkscape:window-maximized="1">
    <inkscape:grid
       type="xygrid"
       id="grid3850" />
  </sodipodi:namedview>
  <metadata
     id="metadata7">
    <rdf:RDF>
      <cc:Work
         rdf:about="">
        <dc:format>image/svg+xml</dc:format>
        <dc:type
           rdf:resource="http://purl.org/dc/dcmitype/StillImage" />
        <dc:title />
      </cc:Work>
    </rdf:RDF>
  </metadata>
  <g
     inkscape:label="Capa 1"
     inkscape:groupmode="layer"
     id="layer1"
     transform="translate(0,-1004.3622)">
    <rect
       style="color:#000000;fill:#333333;fill-opacity:1;fill-rule:nonzero;stroke:none;stroke-width:0.2;marker:none;visibility:visible;display:inline;overflow:visible;enable-background:accumulate"
       id="rect6294-9"
       width="45.5"
       height="45.5"
       x="1.25"
       y="1005.6122"
       ry="6.3565426" />
    <rect
       ry="5.8565426"
       y="1006.1122"
       x="1.75"
       height="44.5"
       width="44.5"
       id="rect6296-4"
       style="color:#000000;fill:url(#linearGradient1971);fill-opacity:1;fill-rule:nonzero;stroke:none;stroke-width:0.2;marker:none;visibility:visible;display:inline;overflow:visible;enable-background:accumulate" />
    <path
       inkscape:connector-curvature="0"
       style="color:#000000;fill:url(#linearGradient1857-2);fill-opacity:1;fill-rule:nonzero;stroke:none;stroke-width:0.2;marker:none;visibility:visible;display:inline;overflow:visible;enable-background:accumulate"
       d="m 1.7499991,1025.581 0,18 44.4999999,0 0,-18 L 1.7499991,1025.581 Z"
       id="path25065-7" />
    <path
       inkscape:connector-curvature="0"
       style="color:#000000;fill:url(#linearGradient1847-1);fill-opacity:1;fill-rule:nonzero;stroke:none;stroke-width:0.2;marker:none;visibility:visible;display:inline;overflow:visible;enable-background:accumulate"
       d="m 7.5937491,1006.1122 c -3.244524,0 -5.84375,2.5992 -5.84375,5.8438 l 0,13.625 44.4999999,0 0,-13.625 c 0,-3.2446 -2.599225,-5.8438 -5.84375,-5.8438 L 7.5937491,1006.1122 Z"
       id="path25067-6" />
    <path
       inkscape:connector-curvature="0"
       style="color:#000000;fill:#000000;fill-opacity:1;fill-rule:nonzero;stroke:none;stroke-width:0.2;marker:none;visibility:visible;display:inline;overflow:visible;enable-background:accumulate"
       d="m 1.7500001,1044.1748 0,0.5625 c 0,3.2445 2.599225,5.875 5.84375,5.875 l 32.8124989,0 c 3.244525,0 5.84375,-2.6305 5.84375,-5.875 l 0,-0.5625 c 0,3.2445 -2.599225,5.875 -5.84375,5.875 l -32.8124989,0 C 4.3492251,1050.0498 1.7500001,1047.4193 1.7500001,1044.1748 Z"
       id="path6388-7" />
    <path
       id="path6361-8"
       d="m 1.7500001,1012.5498 0,-0.5625 c 0,-3.2446 2.599225,-5.8751 5.84375,-5.8751 l 32.8124989,0 c 3.244525,0 5.84375,2.6305 5.84375,5.8751 l 0,0.5625 c 0,-3.2446 -2.599225,-5.8751 -5.84375,-5.8751 l -32.8124989,0 C 4.3492251,1006.6747 1.7500001,1009.3052 1.7500001,1012.5498 Z"
       style="color:#000000;fill:#ffffff;fill-opacity:1;fill-rule:nonzero;stroke:none;stroke-width:0.2;marker:none;visibility:visible;display:inline;overflow:visible;enable-background:accumulate"
       inkscape:connector-curvature="0" />
    <rect
       style="color:#000000;fill:url(#linearGradient2752);fill-opacity:1.0;fill-rule:nonzero;stroke:none;stroke-width:0.2;marker:none;visibility:visible;display:inline;overflow:visible;enable-background:accumulate"
       id="rect2750"
       width="38"
       height="38"
       x="5"
       y="1009.3622"
       ry="5.001092" />
    <rect
       ry="4.2114453"
       y="1012.3622"
       x="8"
       height="32"
       width="32"
       id="rect2754"
       style="color:#000000;fill:url(#linearGradient2756);fill-opacity:1;fill-rule:nonzero;stroke:none;stroke-width:0.2;marker:none;visibility:visible;display:inline;overflow:visible;enable-background:accumulate" />
    <g
       id="g2791">
      <g
         id="g2787">
        <path
           style="color:#000000;fill:#ffffff;fill-opacity:0.15686275;fill-rule:nonzero;stroke:none;stroke-width:0.2;marker:none;visibility:visible;display:inline;overflow:visible;enable-background:accumulate"
           d="m 8,1040.1786 0,0.375 c 0,2.3332 1.8856093,4.2188 4.21875,4.2188 l 23.5625,0 c 2.333141,0 4.21875,-1.8856 4.21875,-4.2188 l 0,-0.375 c 0,2.3332 -1.885609,4.1875 -4.21875,4.1875 l -23.5625,0 C 9.8856093,1044.3661 8,1042.5118 8,1040.1786 Z"
           id="rect2778"
           inkscape:connector-curvature="0" />
        <path
           inkscape:connector-curvature="0"
           id="path2785"
           d="m 8,1016.5497 0,-0.375 c 0,-2.3332 1.8856093,-4.2188 4.21875,-4.2188 l 23.5625,0 c 2.333141,0 4.21875,1.8856 4.21875,4.2188 l 0,0.375 c 0,-2.3332 -1.885609,-4.1875 -4.21875,-4.1875 l -23.5625,0 C 9.8856093,1012.3622 8,1014.2165 8,1016.5497 Z"
           style="color:#000000;fill:#ffffff;fill-opacity:0.15686275;fill-rule:nonzero;stroke:none;stroke-width:0.2;marker:none;visibility:visible;display:inline;overflow:visible;enable-background:accumulate" />
      </g>
    </g>
    <g
       id="g2796"
       transform="matrix(0,1,-1,0,1052.3642,1004.3641)">
      <g
         id="g2798">
        <path
           inkscape:connector-curvature="0"
           id="path2800"
           d="m 8,1040.1786 0,0.375 c 0,2.3332 1.8856093,4.2188 4.21875,4.2188 l 23.5625,0 c 2.333141,0 4.21875,-1.8856 4.21875,-4.2188 l 0,-0.375 c 0,2.3332 -1.885609,4.1875 -4.21875,4.1875 l -23.5625,0 C 9.8856093,1044.3661 8,1042.5118 8,1040.1786 Z"
           style="color:#000000;fill:#ffffff;fill-opacity:0.15686275;fill-rule:nonzero;stroke:none;stroke-width:0.2;marker:none;visibility:visible;display:inline;overflow:visible;enable-background:accumulate" />
        <path
           style="color:#000000;fill:#ffffff;fill-opacity:0.15686275;fill-rule:nonzero;stroke:none;stroke-width:0.2;marker:none;visibility:visible;display:inline;overflow:visible;enable-background:accumulate"
           d="m 8,1016.5497 0,-0.375 c 0,-2.3332 1.8856093,-4.2188 4.21875,-4.2188 l 23.5625,0 c 2.333141,0 4.21875,1.8856 4.21875,4.2188 l 0,0.375 c 0,-2.3332 -1.885609,-4.1875 -4.21875,-4.1875 l -23.5625,0 C 9.8856093,1012.3622 8,1014.2165 8,1016.5497 Z"
           id="path2802"
           inkscape:connector-curvature="0" />
      </g>
    </g>
    <path
       style="fill:url(#linearGradient16343);fill-opacity:1;stroke:none"
       d="M 10 5 C 7.2293951 5 5 7.2293951 5 10 L 5 24.0625 L 43 24.0625 L 43 10 C 43 7.2293951 40.770605 5 38 5 L 10 5 z "
       transform="translate(0,1004.3622)"
       id="rect16341" />
    <path
       style="fill:#0b8fb3;fill-opacity:1;stroke:none"
       d="M 5 24.0625 L 5 24.4375 L 43 24.4375 L 43 24.0625 L 5 24.0625 z "
       transform="translate(0,1004.3622)"
       id="rect16352" />
    <path
       style="fill:#000000;fill-opacity:0.18857141;stroke:none"
       d="m 5,1028.2684 0,0.1563 38,0 0,-0.1563 L 5,1028.2684 Z"
       id="path16357"
       inkscape:connector-curvature="0" />
    <path
       style="fill:#ffffff;fill-opacity:0.18857141;stroke:none"
       d="m 5,1028.6435 0,0.1562 38,0 0,-0.1562 L 5,1028.6435 Z"
       id="path16359"
       inkscape:connector-curvature="0" />
    <path
       style="fill:url(#linearGradient16386);fill-opacity:1;stroke:none"
       d="M 10 5 C 7.3809965 5 5.2572047 7.0041546 5.03125 9.5625 L 42.96875 9.5625 C 42.742795 7.0041546 40.619004 5 38 5 L 10 5 z "
       transform="translate(0,1004.3622)"
       id="path16382" />
    <path
       style="fill:url(#linearGradient16374);fill-opacity:1;stroke:none"
       d="M 9.5 5.03125 C 6.972043 5.2864449 5 7.4025576 5 10 L 5 38 C 5 40.619004 7.0041546 42.742795 9.5625 42.96875 L 9.5625 5.03125 C 9.5414382 5.0331102 9.5209843 5.0291317 9.5 5.03125 z "
       transform="translate(0,1004.3622)"
       id="rect16361" />
    <path
       style="fill:url(#linearGradient16378);fill-opacity:1;stroke:none"
       d="M 38.4375 5.03125 L 38.4375 42.96875 C 40.995845 42.742795 43 40.619004 43 38 L 43 10 C 43 7.3809965 40.995845 5.2572047 38.4375 5.03125 z "
       transform="translate(0,1004.3622)"
       id="path16376" />
    <path
       style="fill:url(#linearGradient16384);fill-opacity:1;stroke:none"
       d="M 5.03125 38.4375 C 5.2572047 40.995845 7.3809965 43 10 43 L 38 43 C 40.619004 43 42.742795 40.995845 42.96875 38.4375 L 5.03125 38.4375 z "
       transform="translate(0,1004.3622)"
       id="path16380" />
  </g>
</svg>
