<?xml version="1.0" encoding="UTF-8" standalone="no"?>
<!-- Created with Inkscape (http://www.inkscape.org/) -->

<svg
   xmlns:dc="http://purl.org/dc/elements/1.1/"
   xmlns:cc="http://creativecommons.org/ns#"
   xmlns:rdf="http://www.w3.org/1999/02/22-rdf-syntax-ns#"
   xmlns:svg="http://www.w3.org/2000/svg"
   xmlns="http://www.w3.org/2000/svg"
   xmlns:xlink="http://www.w3.org/1999/xlink"
   xmlns:sodipodi="http://sodipodi.sourceforge.net/DTD/sodipodi-0.dtd"
   xmlns:inkscape="http://www.inkscape.org/namespaces/inkscape"
   width="48"
   height="48"
   id="svg2"
   version="1.1"
   inkscape:version="0.48+devel r12149"
   sodipodi:docname="softwarecenter.svg">
  <defs
     id="defs4">
    <linearGradient
       inkscape:collect="always"
       id="linearGradient1699">
      <stop
         style="stop-color:#dccbad;stop-opacity:1"
         offset="0"
         id="stop1701" />
      <stop
         style="stop-color:#dac7a9;stop-opacity:1"
         offset="1"
         id="stop1703" />
    </linearGradient>
    <linearGradient
       inkscape:collect="always"
       xlink:href="#linearGradient913"
       id="linearGradient849"
       gradientUnits="userSpaceOnUse"
       gradientTransform="matrix(0.33111877,0,0,1.0527596,27.778153,1001.2554)"
       x1="25.307169"
       y1="44.376076"
       x2="25.307169"
       y2="16.274082" />
    <linearGradient
       id="linearGradient913"
       inkscape:collect="always">
      <stop
         id="stop915"
         offset="0"
         style="stop-color:#8cccd5;stop-opacity:1;" />
      <stop
         id="stop917"
         offset="1"
         style="stop-color:#a8ccc2;stop-opacity:1" />
    </linearGradient>
    <linearGradient
       inkscape:collect="always"
       xlink:href="#linearGradient913"
       id="linearGradient1693"
       x1="25.307169"
       y1="44.376076"
       x2="25.307169"
       y2="16.274082"
       gradientUnits="userSpaceOnUse"
       gradientTransform="matrix(0.4766443,0,0,0.71644681,4.2026398,1006.6375)" />
    <linearGradient
       inkscape:collect="always"
       xlink:href="#linearGradient1699"
       id="linearGradient1161"
       x1="23.788807"
       y1="1050.6265"
       x2="23.788807"
       y2="1006.1208"
       gradientUnits="userSpaceOnUse" />
  </defs>
  <sodipodi:namedview
     id="base"
     pagecolor="#ffffff"
     bordercolor="#666666"
     borderopacity="1.0"
     inkscape:pageopacity="0.0"
     inkscape:pageshadow="2"
     inkscape:zoom="8.9173045"
     inkscape:cx="2.8768189"
     inkscape:cy="23.865442"
     inkscape:document-units="px"
     inkscape:current-layer="layer1"
     showgrid="false"
     inkscape:window-width="1366"
     inkscape:window-height="716"
     inkscape:window-x="0"
     inkscape:window-y="28"
     inkscape:window-maximized="1"
     showguides="true"
     inkscape:guide-bbox="true">
    <inkscape:grid
       type="xygrid"
       id="grid3011" />
  </sodipodi:namedview>
  <metadata
     id="metadata7">
    <rdf:RDF>
      <cc:Work
         rdf:about="">
        <dc:format>image/svg+xml</dc:format>
        <dc:type
           rdf:resource="http://purl.org/dc/dcmitype/StillImage" />
        <dc:title />
      </cc:Work>
    </rdf:RDF>
  </metadata>
  <g
     inkscape:label="Capa 1"
     inkscape:groupmode="layer"
     id="layer1"
     transform="translate(0,-1004.3622)">
    <rect
       style="color:#000000;fill:#333333;fill-opacity:1;fill-rule:nonzero;stroke:none;stroke-width:0.2;marker:none;visibility:visible;display:inline;overflow:visible;enable-background:accumulate"
       id="rect6294"
       width="45.5"
       height="45.5"
       x="1.25"
       y="1005.6122"
       ry="6.3565426" />
    <rect
       ry="5.8565426"
       y="1006.1122"
       x="1.75"
       height="44.5"
       width="44.5"
       id="rect6296"
       style="color:#000000;fill:url(#linearGradient1161);fill-opacity:1.0;fill-rule:nonzero;stroke:none;stroke-width:0.2;marker:none;visibility:visible;display:inline;overflow:visible;enable-background:accumulate" />
    <path
       style="fill:#ffffff;fill-opacity:0.11764706;stroke:none"
       d="M 13.71875 1.75 L 1.75 13.71875 L 1.75 14.34375 L 14.34375 1.75 L 13.71875 1.75 z M 15.71875 1.75 L 1.75 15.71875 L 1.75 16.34375 L 16.34375 1.75 L 15.71875 1.75 z M 17.71875 1.75 L 1.75 17.71875 L 1.75 18.34375 L 18.34375 1.75 L 17.71875 1.75 z M 19.71875 1.75 L 1.75 19.71875 L 1.75 20.34375 L 20.34375 1.75 L 19.71875 1.75 z M 21.71875 1.75 L 1.75 21.71875 L 1.75 22.34375 L 22.34375 1.75 L 21.71875 1.75 z M 23.71875 1.75 L 1.75 23.71875 L 1.75 24.34375 L 24.34375 1.75 L 23.71875 1.75 z M 25.71875 1.75 L 1.75 25.71875 L 1.75 26.34375 L 26.34375 1.75 L 25.71875 1.75 z M 27.71875 1.75 L 1.75 27.71875 L 1.75 28.34375 L 28.34375 1.75 L 27.71875 1.75 z M 29.71875 1.75 L 1.75 29.71875 L 1.75 30.34375 L 30.34375 1.75 L 29.71875 1.75 z M 31.71875 1.75 L 1.75 31.71875 L 1.75 32.34375 L 32.34375 1.75 L 31.71875 1.75 z M 33.71875 1.75 L 1.75 33.71875 L 1.75 34.34375 L 34.34375 1.75 L 33.71875 1.75 z M 35.71875 1.75 L 1.75 35.71875 L 1.75 36.34375 L 36.34375 1.75 L 35.71875 1.75 z M 37.71875 1.75 L 1.75 37.71875 L 1.75 38.34375 L 38.34375 1.75 L 37.71875 1.75 z M 39.71875 1.75 L 1.75 39.71875 L 1.75 40.34375 L 40.34375 1.75 L 39.71875 1.75 z M 41.5625 1.875 L 1.875 41.5625 C 1.8770583 41.57261 1.87289 41.583659 1.875 41.59375 C 1.9106362 41.76417 1.9499817 41.929212 2 42.09375 L 42.09375 2 C 41.929212 1.9499817 41.76417 1.9106362 41.59375 1.875 L 41.5625 1.875 z M 43.0625 2.40625 L 2.40625 43.0625 C 2.4719185 43.191054 2.5503308 43.314716 2.625 43.4375 L 43.4375 2.625 C 43.314716 2.5503308 43.191054 2.4719185 43.0625 2.40625 z M 44.25 3.21875 L 3.21875 44.25 C 3.3177649 44.362848 3.4239112 44.457629 3.53125 44.5625 L 44.5625 3.53125 C 44.457629 3.4239112 44.362848 3.3177649 44.25 3.21875 z M 45.1875 4.25 L 4.25 45.1875 C 4.3794191 45.277683 4.5194272 45.357808 4.65625 45.4375 L 45.4375 4.65625 C 45.357808 4.5194272 45.277683 4.3794191 45.1875 4.25 z M 45.875 5.59375 L 5.59375 45.875 C 5.7443048 45.930077 5.9063672 45.988429 6.0625 46.03125 L 46.03125 6.0625 C 45.988429 5.9063672 45.930077 5.7443048 45.875 5.59375 z M 46.21875 7.25 L 7.25 46.21875 C 7.3658791 46.225523 7.4761136 46.25 7.59375 46.25 L 7.84375 46.25 L 46.25 7.84375 L 46.25 7.59375 C 46.25 7.4761136 46.225523 7.3658791 46.21875 7.25 z M 46.25 9.21875 L 9.21875 46.25 L 9.84375 46.25 L 46.25 9.84375 L 46.25 9.21875 z M 46.25 11.21875 L 11.21875 46.25 L 11.84375 46.25 L 46.25 11.84375 L 46.25 11.21875 z M 46.25 13.21875 L 13.21875 46.25 L 13.84375 46.25 L 46.25 13.84375 L 46.25 13.21875 z M 46.25 15.21875 L 15.21875 46.25 L 15.84375 46.25 L 46.25 15.84375 L 46.25 15.21875 z M 46.25 17.21875 L 17.21875 46.25 L 17.84375 46.25 L 46.25 17.84375 L 46.25 17.21875 z M 46.25 19.21875 L 19.21875 46.25 L 19.84375 46.25 L 46.25 19.84375 L 46.25 19.21875 z M 46.25 21.21875 L 21.21875 46.25 L 21.84375 46.25 L 46.25 21.84375 L 46.25 21.21875 z M 46.25 23.21875 L 23.21875 46.25 L 23.84375 46.25 L 46.25 23.84375 L 46.25 23.21875 z M 46.25 25.21875 L 25.21875 46.25 L 25.84375 46.25 L 46.25 25.84375 L 46.25 25.21875 z M 46.25 27.21875 L 27.21875 46.25 L 27.84375 46.25 L 46.25 27.84375 L 46.25 27.21875 z M 46.25 29.21875 L 29.21875 46.25 L 29.84375 46.25 L 46.25 29.84375 L 46.25 29.21875 z M 46.25 31.21875 L 31.21875 46.25 L 31.84375 46.25 L 46.25 31.84375 L 46.25 31.21875 z M 46.25 33.21875 L 33.21875 46.25 L 33.84375 46.25 L 46.25 33.84375 L 46.25 33.21875 z M 46.25 35.21875 L 35.21875 46.25 L 35.84375 46.25 L 46.25 35.84375 L 46.25 35.21875 z M 46.25 37.21875 L 37.21875 46.25 L 37.84375 46.25 L 46.25 37.84375 L 46.25 37.21875 z M 46.25 39.21875 L 39.21875 46.25 L 39.84375 46.25 L 46.25 39.84375 L 46.25 39.21875 z M 46.15625 41.3125 L 41.3125 46.15625 C 41.58174 46.113719 41.838234 46.077675 42.09375 46 L 42.125 46 L 46 42.125 C 46.003011 42.11528 45.997038 42.103492 46 42.09375 C 46.077675 41.838234 46.113719 41.58174 46.15625 41.3125 z "
       transform="translate(0,1004.3622)"
       id="rect951" />
    <path
       sodipodi:nodetypes="csscssssssc"
       inkscape:connector-curvature="0"
       id="path1127"
       d="m 25.599101,1020.1083 0,17.6911 c 0,0.099 -0.07085,0.1651 -0.177597,0.1651 l -19.7111084,0 0,0.6053 c 0,0.099 0.1004464,0.1651 0.2071985,0.1651 l 20.3031039,0 c 0.106752,0 0.177599,-0.066 0.177599,-0.1651 l 0,-18.2689 C 26.398297,1020.2017 26.25398,1020.2025 26.220698,1020.1083 Z"
       style="fill:#000000;fill-opacity:0.21142859;stroke:none" />
    <path
       style="fill:#554e46;fill-opacity:1;stroke:none"
       d="m 27.23046,44.4375 0,1.8125 13.17579,0 C 42.077102,46.25 43.559975,45.552571 44.625,44.4375 Z"
       id="rect875"
       transform="translate(0,1004.3622)"
       inkscape:connector-curvature="0"
       sodipodi:nodetypes="ccscc" />
    <rect
       ry="0.26318988"
       y="1018.1031"
       x="28.831766"
       height="29.962639"
       width="14.165248"
       id="rect845"
       style="fill:url(#linearGradient849);fill-opacity:1;stroke:none" />
    <path
       inkscape:connector-curvature="0"
       style="fill:#ffffff;fill-opacity:0.37142861;stroke:none"
       d="m 35.021108,1018.1031 -6.19052,6.1906 0,6.5207 12.711201,-12.7113 L 35.021108,1018.1031 Z M 43,1019.4788 l -14.169412,14.1695 0,1.9534 L 43,1021.4598 43,1019.4788 z m 0,10.125 -2.393668,0.6603 -11.775744,11.7758 0,5.7503 c 0,0.1458 0.129327,0.2751 0.275134,0.2751 l 0.220107,0 L 43,1034.3636 43,1029.6038 z m 0,7.6213 -10.840288,10.8402 1.953453,0 L 43,1039.206 43,1037.2251 Z"
       id="path934" />
    <rect
       style="fill:url(#linearGradient1693);fill-opacity:1;stroke:none"
       id="rect1685"
       width="20.390825"
       height="20.390827"
       x="5.7193131"
       y="1018.1031"
       ry="0.1791117" />
    <path
       inkscape:connector-curvature="0"
       style="fill:#ffffff;fill-opacity:0.37142861;stroke:none"
       d="m 17.385004,1018.1031 -11.6656905,11.6933 0,7.7862 0.027513,0.1101 L 25.336383,1018.1031 17.385004,1018.1031 z m 8.721755,2.6689 -17.6911302,17.7186 2.3936682,0 15.297462,-15.2699 L 26.106759,1020.772 Z"
       id="rect926" />
    <path
       style="fill:#78a99a;fill-opacity:1;stroke:none"
       d="m 24.932312,1019.5264 0,17.6911 c 0,0.099 -0.06585,0.1651 -0.16508,0.1651 l -18.3217465,0 0,0.6053 c 0,0.099 0.093367,0.1651 0.192594,0.1651 l 18.8720145,0 c 0.09923,0 0.165082,-0.066 0.165082,-0.1651 l 0,-18.269 C 25.675176,1019.6197 25.541031,1019.6206 25.510094,1019.5264 Z"
       id="rect919"
       inkscape:connector-curvature="0"
       sodipodi:nodetypes="csscssssssc" />
    <path
       style="fill:#d29e69;fill-opacity:1;stroke:none"
       d="M 5.71875 43.34375 L 5.71875 45.9375 C 6.313479 46.139847 6.9288617 46.25 7.59375 46.25 L 8.96875 46.25 L 25.3125 46.25 L 25.3125 43.34375 L 5.71875 43.34375 z "
       transform="translate(0,1004.3622)"
       id="rect891" />
    <rect
       ry="0"
       y="1047.7075"
       x="5.7193131"
       height="0.55121732"
       width="19.589556"
       id="rect893"
       style="fill:#e4ac6e;fill-opacity:1;stroke:none" />
    <rect
       ry="0"
       y="1045.295"
       x="5.7193131"
       height="2.4188905"
       width="19.589556"
       id="rect895"
       style="fill:#9fc369;fill-opacity:1;stroke:none" />
    <rect
       style="fill:#c3d699;fill-opacity:1;stroke:none"
       id="rect897"
       width="19.589556"
       height="0.23993853"
       x="5.7193131"
       y="1045.295"
       ry="0" />
    <path
       style="fill:#000000;fill-opacity:0.39215686;stroke:none"
       d="m 5.9013739,1018.1031 c -0.099228,0 -0.1820604,0.083 -0.1820604,0.1821 l 0,20.0267 c 0,0.099 0.082831,0.1821 0.1820604,0.1821 l 20.0267041,0 c 0.09923,0 0.18206,-0.083 0.18206,-0.1821 l 0,-20.0267 c 0,-0.099 -0.08283,-0.1821 -0.18206,-0.1821 L 5.9013739,1018.1031 z m 0.1365458,0.1518 19.7536113,0 c 0.09781,0 0.16689,0.069 0.16689,0.1669 l 0,19.7536 c 0,0.098 -0.06909,0.1669 -0.16689,0.1669 l -19.7536113,0 c -0.09781,0 -0.1668889,-0.069 -0.1668889,-0.1669 l 0,-19.7536 C 5.8710308,1018.3239 5.9401093,1018.2549 6.0379197,1018.2549 Z"
       id="rect1707"
       inkscape:connector-curvature="0" />
    <path
       sodipodi:nodetypes="csscssssssc"
       inkscape:connector-curvature="0"
       id="path1054"
       d="m 41.239141,1019.1762 0,26.4954 c 0,0.099 -0.06585,0.1651 -0.165081,0.1651 l -11.27831,0 0,0.6053 c 0,0.099 0.09337,0.1651 0.192594,0.1651 l 11.828579,0 c 0.09923,0 0.165081,-0.066 0.165081,-0.1651 l 0,-27.0732 C 41.982004,1019.2696 41.916079,1019.1762 41.816923,1019.1762 Z"
       style="fill:#78a99a;fill-opacity:1;stroke:none" />
    <path
       inkscape:connector-curvature="0"
       id="path847"
       d="m 28.958242,1018.1031 c -0.06893,0 -0.126476,0.1217 -0.126476,0.2675 l 0,29.4277 c 0,0.1458 0.05755,0.2676 0.126476,0.2676 l 13.912297,0 c 0.06893,0 0.126475,-0.1217 0.126475,-0.2676 l 0,-29.4277 c 0,-0.1457 -0.05755,-0.2675 -0.126475,-0.2675 L 28.958242,1018.1031 z m 0.09486,0.223 13.722584,0 c 0.06795,0 0.115936,0.1009 0.115936,0.2453 l 0,29.0262 c 0,0.1438 -0.04799,0.2453 -0.115936,0.2453 l -13.722584,0 c -0.06795,0 -0.115936,-0.1009 -0.115936,-0.2453 l 0,-29.0262 C 28.937163,1018.4275 28.985152,1018.3261 29.053099,1018.3261 Z"
       style="fill:#000000;fill-opacity:0.39215686;stroke:none" />
    <rect
       style="fill:#434343;fill-opacity:1;stroke:none"
       id="rect851"
       width="11.575666"
       height="1.760859"
       x="30.126556"
       y="1032.204"
       ry="0" />
    <rect
       ry="0"
       y="28.831766"
       x="-1048.0658"
       height="1.3717605"
       width="29.110819"
       id="rect853"
       style="fill:#434343;fill-opacity:1;stroke:none"
       transform="matrix(0,-1,1,0,0,0)" />
    <path
       inkscape:connector-curvature="0"
       style="fill:#434343;fill-opacity:1;stroke:none"
       d="m 5.7193135,1037.7203 0,0.6053 c 0,0.05 0.022654,0.077 0.055027,0.1101 0.032373,0.032 0.087955,0.054 0.1375671,0.054 l 20.0297714,0 c 0.04961,0 0.07768,-0.023 0.110053,-0.054 0.03237,-0.032 0.05503,-0.061 0.05503,-0.1101 l 0,-0.6053 L 5.7193135,1037.7203 Z"
       id="rect859" />
    <path
       id="path867"
       d="m 25.340202,1018.1074 0.605296,0 c 0.04931,0 0.07748,0.023 0.110054,0.054 0.03258,0.032 0.05458,0.088 0.05458,0.1376 l 0,20.0298 c 0,0.05 -0.02289,0.077 -0.05458,0.1101 -0.03258,0.032 -0.06075,0.054 -0.110054,0.054 l -0.605296,0 L 25.340202,1018.1074 Z"
       style="fill:#434343;fill-opacity:1;stroke:none"
       inkscape:connector-curvature="0" />
    <rect
       transform="matrix(0,-1,1,0,0,0)"
       style="fill:#434343;fill-opacity:1;stroke:none"
       id="rect871"
       width="29.110819"
       height="1.3717605"
       x="-1048.0658"
       y="41.625252"
       ry="0" />
    <path
       inkscape:connector-curvature="0"
       style="fill:#434343;fill-opacity:1;stroke:none"
       d="m 6.489249,1018.1074 -0.6052952,0 c -0.049304,0 -0.077478,0.023 -0.1100537,0.054 -0.032576,0.032 -0.054587,0.088 -0.054587,0.1376 l 0,20.0298 c 0,0.05 0.022891,0.077 0.054587,0.1101 0.032576,0.032 0.06075,0.054 0.1100537,0.054 l 0.6052952,0 L 6.489249,1018.1074 Z"
       id="path869" />
    <rect
       ry="0"
       y="1046.3049"
       x="30.126556"
       height="1.760859"
       width="11.575666"
       id="rect873"
       style="fill:#434343;fill-opacity:1;stroke:none" />
    <path
       style="fill:#8f8477;fill-opacity:1;stroke:none"
       d="m 28.25814,1047.2685 c 0,0.5104 0,1.0208 0,1.5312 5.104167,0 10.208333,0 15.3125,0 C 43.57064,1048.2893 43.57064,1047.7789 43.57064,1047.2685 Z"
       id="path908"
       inkscape:connector-curvature="0"
       sodipodi:nodetypes="ccccc" />
    <path
       style="fill:#c5813c;fill-opacity:1;stroke:none"
       d="m 6.582308,1050.0368 c 0.722092,0.3579 1.5244285,0.5754 2.3878465,0.5754 l 16.3409255,0 0,-0.5754 L 6.582308,1050.0368 Z"
       id="rect949"
       inkscape:connector-curvature="0" />
    <rect
       style="fill:#ffffff;fill-opacity:1;stroke:none"
       id="rect1046"
       width="14.63714"
       height="7.3735967"
       x="8.5961552"
       y="1024.6118" />
    <rect
       y="1025.0553"
       x="8.9813423"
       height="6.4865479"
       width="13.866765"
       id="rect1048"
       style="fill:#ff5555;fill-opacity:1;stroke:none" />
    <path
       style="font-size:4.51496696px;font-style:normal;font-variant:normal;font-weight:900;font-stretch:normal;text-align:start;line-height:125%;letter-spacing:0px;word-spacing:0px;writing-mode:lr-tb;text-anchor:start;fill:#ffffff;fill-opacity:1;stroke:none;font-family:Helvetica Neue;-inkscape-font-specification:Helvetica Neue Heavy"
       d="m 11.650145,1026.8128 c -0.862599,0 -1.430698,0.6191 -1.430698,1.4857 0,0.8666 0.568099,1.4858 1.430698,1.4858 0.8626,0 1.430699,-0.6192 1.430699,-1.4858 C 13.080844,1027.4319 12.512745,1026.8128 11.650145,1026.8128 z m 1.815886,0.054 0,2.8614 0.88043,0 0,-0.8804 0.522755,0 c 0.651918,0 1.100537,-0.3028 1.100537,-0.9905 0,-0.4055 -0.27434,-0.9905 -1.04551,-0.9905 L 13.466031,1026.8679 z m 2.80637,0 0,2.8614 2.393667,0 0,-0.7428 -1.540751,0 0,-0.3577 1.348157,0 0,-0.6604 -1.348157,0 0,-0.3575 1.485724,0 0,-0.743 L 16.272401,1026.8679 z m 2.778855,0 0,2.8614 0.825402,0 0,-1.5682 0.02752,0 0.852917,1.5682 0.852916,0 0,-2.8614 -0.825403,0 0,1.5408 -0.825402,-1.5408 L 19.051256,1026.8679 z m -7.401111,0.6604 c 0.222606,0 0.577783,0.1383 0.577783,0.7704 0,0.6319 -0.355177,0.7703 -0.577783,0.7703 -0.222606,0 -0.550269,-0.1384 -0.550269,-0.7703 C 11.099876,1027.6665 11.427539,1027.5281 11.650145,1027.5281 z m 2.696316,0.083 0.385187,0 c 0.214657,0 0.412702,0.017 0.412702,0.2751 0,0.2862 -0.241147,0.3026 -0.467728,0.3026 l -0.330161,0 L 14.346461,1027.6107 Z"
       id="path1063"
       inkscape:connector-curvature="0" />
    <path
       style="fill:#434343;fill-opacity:1;stroke:none"
       d="m 15.914726,1018.6259 -7.2360302,6.2456 1.4913952,0 5.744635,-4.98 5.744634,4.98 1.491396,0 L 15.914726,1018.6259 Z"
       id="path1081"
       inkscape:connector-curvature="0" />
    <rect
       ry="0"
       y="1030.8008"
       x="30.841906"
       height="4.5672283"
       width="0.59780985"
       id="rect1058"
       style="fill:#434343;fill-opacity:1;stroke:none" />
    <rect
       ry="0"
       y="1033.9648"
       x="30.126556"
       height="0.37955919"
       width="11.575666"
       id="rect1060"
       style="fill:#434343;fill-opacity:0.37714287;stroke:none" />
    <rect
       style="fill:#7da542;fill-opacity:1;stroke:none"
       id="rect1086"
       width="18.929235"
       height="1.7035414"
       x="6.0494742"
       y="1045.7628"
       ry="0" />
    <g
       id="g1094"
       transform="matrix(0.8804295,0,0,0.8804295,3.078025,124.91874)">
      <rect
         style="fill:#000000;fill-opacity:0.17714287;stroke:none"
         id="rect1088"
         width="22.25"
         height="0.27252442"
         x="3"
         y="1045.0995"
         ry="0" />
      <rect
         ry="0"
         y="1044.8269"
         x="3"
         height="0.27252442"
         width="22.25"
         id="rect1090"
         style="fill:#000000;fill-opacity:0.07428571;stroke:none" />
      <rect
         style="fill:#000000;fill-opacity:0.03428572;stroke:none"
         id="rect1092"
         width="22.25"
         height="0.27252442"
         x="3"
         y="1044.5543"
         ry="0" />
    </g>
    <path
       style="fill:#000000;fill-opacity:0.17714287;stroke:none"
       d="M 5.5 40.9375 L 5.5 45.84375 C 5.5701949 45.870719 5.6472658 45.913179 5.71875 45.9375 L 5.71875 40.9375 L 5.5 40.9375 z "
       transform="translate(0,1004.3622)"
       id="rect1101" />
    <path
       style="fill:#000000;fill-opacity:0.07428571;stroke:none"
       d="M 5.21875 40.9375 L 5.21875 45.75 C 5.3059751 45.788546 5.4105731 45.809392 5.5 45.84375 L 5.5 40.9375 L 5.21875 40.9375 z "
       transform="translate(0,1004.3622)"
       id="rect1103" />
    <path
       style="fill:#000000;fill-opacity:0.03428572;stroke:none"
       d="M 5 40.9375 L 5 45.625 C 5.0763159 45.662819 5.1405722 45.715452 5.21875 45.75 L 5.21875 40.9375 L 5 40.9375 z "
       transform="translate(0,1004.3622)"
       id="rect1105" />
    <g
       transform="matrix(0,-0.23683371,-0.8804295,0,945.68519,1051.2752)"
       id="g1107">
      <rect
         style="fill:#000000;fill-opacity:0.17714287;stroke:none"
         id="rect1109"
         width="22.25"
         height="0.27252442"
         x="3"
         y="1045.0995"
         ry="0" />
      <rect
         ry="0"
         y="1044.8269"
         x="3"
         height="0.27252442"
         width="22.25"
         id="rect1111"
         style="fill:#000000;fill-opacity:0.07428571;stroke:none" />
      <rect
         style="fill:#000000;fill-opacity:0.03428572;stroke:none"
         id="rect1113"
         width="22.25"
         height="0.27252442"
         x="3"
         y="1044.5543"
         ry="0" />
    </g>
    <rect
       y="1031.9852"
       x="8.5961552"
       height="0.27513421"
       width="14.63714"
       id="rect1121"
       style="fill:#000000;fill-opacity:0.21714286;stroke:none" />
    <rect
       style="fill:#000000;fill-opacity:0.09142857;stroke:none"
       id="rect1123"
       width="14.63714"
       height="0.27513421"
       x="8.5961552"
       y="1032.2604" />
    <rect
       y="1032.5355"
       x="8.5961552"
       height="0.27513421"
       width="14.63714"
       id="rect1125"
       style="fill:#000000;fill-opacity:0.03999999;stroke:none" />
    <path
       style="fill:#000000;fill-opacity:0.05714285;stroke:none"
       d="M 1.75 12.40625 L 1.75 17.1875 C 2.5818879 17.8904 3.6631708 18.3125 4.84375 18.3125 C 6.4178547 18.3125 7.7837604 17.57145 8.65625 16.40625 C 9.5287401 17.57145 10.925895 18.3125 12.5 18.3125 C 14.074105 18.3125 15.471261 17.57145 16.34375 16.40625 C 17.21624 17.57145 18.582145 18.3125 20.15625 18.3125 C 21.730354 18.3125 23.12751 17.57145 24 16.40625 C 24.87249 17.57145 26.269646 18.3125 27.84375 18.3125 C 29.417855 18.3125 30.78376 17.57145 31.65625 16.40625 C 32.528739 17.57145 33.925895 18.3125 35.5 18.3125 C 37.074105 18.3125 38.471261 17.57145 39.34375 16.40625 C 40.21624 17.57145 41.582145 18.3125 43.15625 18.3125 C 44.336828 18.3125 45.418113 17.8904 46.25 17.1875 L 46.25 12.40625 L 1.75 12.40625 z "
       transform="translate(0,1004.3622)"
       id="path1695" />
    <path
       style="fill:#fdf3da;fill-opacity:1;stroke:none"
       d="M 7.59375 1.75 C 4.3492254 1.75 1.75 4.3492254 1.75 7.59375 L 1.75 15 C 2.5818879 15.702914 3.6631708 16.125 4.84375 16.125 C 7.4983334 16.125 9.625 13.99835 9.625 11.34375 L 9.625 1.75 L 7.59375 1.75 z "
       transform="translate(0,1004.3622)"
       id="rect1628" />
    <path
       inkscape:connector-curvature="0"
       style="fill:#c5081c;fill-opacity:1;stroke:none"
       d="m 7.7083353,1006.1122 0,9.5833 c 0,2.6546 2.137083,4.7917 4.7916667,4.7917 2.654583,0 4.791667,-2.1371 4.791667,-4.7917 l 0,-9.5833 L 7.7083353,1006.1122 Z"
       id="rect1630" />
    <path
       inkscape:connector-curvature="0"
       style="fill:#fdf3da;fill-opacity:1;stroke:none"
       d="m 15.375002,1006.1122 0,9.5833 c 0,2.6546 2.137083,4.7917 4.791667,4.7917 2.654583,0 4.791666,-2.1371 4.791666,-4.7917 l 0,-9.5833 L 15.375002,1006.1122 Z"
       id="rect1632" />
    <path
       inkscape:connector-curvature="0"
       style="fill:#c5081c;fill-opacity:1;stroke:none"
       d="m 23.041669,1006.1122 0,9.5833 c 0,2.6546 2.137083,4.7917 4.791666,4.7917 2.654584,0 4.791667,-2.1371 4.791667,-4.7917 l 0,-9.5833 L 23.041669,1006.1122 Z"
       id="rect1634" />
    <path
       inkscape:connector-curvature="0"
       style="fill:#fdf3da;fill-opacity:1;stroke:none"
       d="m 30.708335,1006.1122 0,9.5833 c 0,2.6546 2.137084,4.7917 4.791667,4.7917 2.654583,0 4.791667,-2.1371 4.791667,-4.7917 l 0,-9.5833 L 30.708335,1006.1122 Z"
       id="rect1636" />
    <path
       style="fill:#c5081c;fill-opacity:1;stroke:none"
       d="M 38.375 1.75 L 38.375 11.34375 C 38.375 13.99835 40.501666 16.125 43.15625 16.125 C 44.336828 16.125 45.418113 15.702914 46.25 15 L 46.25 7.59375 C 46.25 4.3492254 43.650775 1.75 40.40625 1.75 L 38.375 1.75 z "
       transform="translate(0,1004.3622)"
       id="rect1638" />
    <path
       style="fill:#000000;fill-opacity:0.26857144;stroke:none"
       d="M 1.75 10.1875 L 1.75 15 C 2.5818879 15.702914 3.6631708 16.125 4.84375 16.125 C 6.4178547 16.125 7.7837604 15.38385 8.65625 14.21875 C 9.5287401 15.38385 10.925895 16.125 12.5 16.125 C 14.074105 16.125 15.471261 15.38385 16.34375 14.21875 C 17.21624 15.38385 18.582145 16.125 20.15625 16.125 C 21.730354 16.125 23.12751 15.38385 24 14.21875 C 24.87249 15.38385 26.269646 16.125 27.84375 16.125 C 29.417855 16.125 30.78376 15.38385 31.65625 14.21875 C 32.528739 15.38385 33.925895 16.125 35.5 16.125 C 37.074105 16.125 38.471261 15.38385 39.34375 14.21875 C 40.21624 15.38385 41.582145 16.125 43.15625 16.125 C 44.336828 16.125 45.418113 15.702914 46.25 15 L 46.25 10.1875 L 1.75 10.1875 z "
       transform="translate(0,1004.3622)"
       id="path1662" />
    <path
       style="fill:#000000;fill-opacity:0.26857144;stroke:none"
       d="M 1.75 10.1875 L 1.75 10.5 L 46.25 10.5 L 46.25 10.1875 L 1.75 10.1875 z "
       transform="translate(0,1004.3622)"
       id="rect1678" />
    <path
       style="fill:#ffffff;fill-opacity:0.26857144;stroke:none"
       d="M 1.75 9.90625 L 1.75 10.1875 L 46.25 10.1875 L 46.25 9.90625 L 1.75 9.90625 z "
       transform="translate(0,1004.3622)"
       id="path1683" />
    <path
       inkscape:connector-curvature="0"
       style="color:#000000;fill:#000000;fill-opacity:1;fill-rule:nonzero;stroke:none;stroke-width:0.2;marker:none;visibility:visible;display:inline;overflow:visible;enable-background:accumulate"
       d="m 1.7500013,1044.1748 0,0.5625 c 0,3.2445 2.599225,5.875 5.84375,5.875 l 32.8124997,0 c 3.244525,0 5.84375,-2.6305 5.84375,-5.875 l 0,-0.5625 c 0,3.2445 -2.599225,5.875 -5.84375,5.875 l -32.8124997,0 C 4.3492263,1050.0498 1.7500013,1047.4193 1.7500013,1044.1748 Z"
       id="path6388" />
    <path
       id="path6361-5"
       d="m 1.7499988,1012.5497 0,-0.5625 c 0,-3.2445 2.5992249,-5.875 5.8437495,-5.875 l 32.8125027,0 c 3.244519,0 5.84375,2.6305 5.84375,5.875 l 0,0.5625 c 0,-3.2445 -2.599231,-5.875 -5.84375,-5.875 l -32.8125027,0 C 4.3492237,1006.6747 1.7499988,1009.3052 1.7499988,1012.5497 Z"
       style="color:#000000;fill:#ffffff;fill-opacity:1;fill-rule:nonzero;stroke:none;stroke-width:0.2;marker:none;visibility:visible;display:inline;overflow:visible;enable-background:accumulate"
       inkscape:connector-curvature="0" />
  </g>
</svg>
