<?xml version="1.0" encoding="UTF-8" standalone="no"?>
<!-- Created with Inkscape (http://www.inkscape.org/) -->

<svg
   xmlns:dc="http://purl.org/dc/elements/1.1/"
   xmlns:cc="http://creativecommons.org/ns#"
   xmlns:rdf="http://www.w3.org/1999/02/22-rdf-syntax-ns#"
   xmlns:svg="http://www.w3.org/2000/svg"
   xmlns="http://www.w3.org/2000/svg"
   xmlns:xlink="http://www.w3.org/1999/xlink"
   xmlns:sodipodi="http://sodipodi.sourceforge.net/DTD/sodipodi-0.dtd"
   xmlns:inkscape="http://www.inkscape.org/namespaces/inkscape"
   width="48"
   height="48"
   id="svg2"
   version="1.1"
   inkscape:version="0.48+devel r12149"
   sodipodi:docname="sonata.svg">
  <defs
     id="defs4">
    <linearGradient
       inkscape:collect="always"
       id="linearGradient1429">
      <stop
         style="stop-color:#205297;stop-opacity:1"
         offset="0"
         id="stop1431" />
      <stop
         style="stop-color:#60ace8;stop-opacity:1"
         offset="1"
         id="stop1433" />
    </linearGradient>
    <linearGradient
       inkscape:collect="always"
       xlink:href="#linearGradient1437"
       id="linearGradient1443"
       x1="33.14563"
       y1="1044.6724"
       x2="33.14563"
       y2="1012.4106"
       gradientUnits="userSpaceOnUse"
       gradientTransform="matrix(0.9033478,0,0,0.9033478,-51.378832,104.23711)" />
    <linearGradient
       inkscape:collect="always"
       id="linearGradient1437">
      <stop
         style="stop-color:#ffffff;stop-opacity:1;"
         offset="0"
         id="stop1439" />
      <stop
         style="stop-color:#ffffff;stop-opacity:1"
         offset="1"
         id="stop1441" />
    </linearGradient>
    <linearGradient
       inkscape:collect="always"
       xlink:href="#linearGradient1429"
       id="linearGradient1439"
       x1="26.339725"
       y1="1050.6121"
       x2="26.339725"
       y2="1006.0829"
       gradientUnits="userSpaceOnUse" />
  </defs>
  <sodipodi:namedview
     id="base"
     pagecolor="#ffffff"
     bordercolor="#666666"
     borderopacity="1.0"
     inkscape:pageopacity="0.0"
     inkscape:pageshadow="2"
     inkscape:zoom="5.6568543"
     inkscape:cx="30.350302"
     inkscape:cy="43.997908"
     inkscape:document-units="px"
     inkscape:current-layer="layer1"
     showgrid="false"
     inkscape:window-width="1366"
     inkscape:window-height="716"
     inkscape:window-x="0"
     inkscape:window-y="28"
     inkscape:window-maximized="1"
     showguides="true"
     inkscape:guide-bbox="true">
    <inkscape:grid
       type="xygrid"
       id="grid3850" />
  </sodipodi:namedview>
  <metadata
     id="metadata7">
    <rdf:RDF>
      <cc:Work
         rdf:about="">
        <dc:format>image/svg+xml</dc:format>
        <dc:type
           rdf:resource="http://purl.org/dc/dcmitype/StillImage" />
        <dc:title />
      </cc:Work>
    </rdf:RDF>
  </metadata>
  <g
     inkscape:label="Capa 1"
     inkscape:groupmode="layer"
     id="layer1"
     transform="translate(0,-1004.3622)">
    <rect
       style="color:#000000;fill:#333333;fill-opacity:1;fill-rule:nonzero;stroke:none;stroke-width:0.2;marker:none;visibility:visible;display:inline;overflow:visible;enable-background:accumulate"
       id="rect6294"
       width="45.5"
       height="45.5"
       x="1.25"
       y="1005.6122"
       ry="6.3565426" />
    <rect
       ry="5.8565426"
       y="1006.1122"
       x="1.75"
       height="44.5"
       width="44.5"
       id="rect6296"
       style="color:#000000;fill:url(#linearGradient1439);fill-opacity:1;fill-rule:nonzero;stroke:none;stroke-width:0.2;marker:none;visibility:visible;display:inline;overflow:visible;enable-background:accumulate" />
    <path
       id="path6361"
       d="m 1.7499998,1012.5498 0,-0.5625 c 0,-3.2445 2.599225,-5.875 5.84375,-5.875 l 32.8125002,0 c 3.244525,0 5.84375,2.6305 5.84375,5.875 l 0,0.5625 c 0,-3.2445 -2.599225,-5.875 -5.84375,-5.875 l -32.8125002,0 C 4.3492248,1006.6748 1.7499998,1009.3053 1.7499998,1012.5498 Z"
       style="color:#000000;fill:#ffffff;fill-opacity:1;fill-rule:nonzero;stroke:none;stroke-width:0.2;marker:none;visibility:visible;display:inline;overflow:visible;enable-background:accumulate"
       inkscape:connector-curvature="0" />
    <path
       inkscape:connector-curvature="0"
       style="color:#000000;fill:#000000;fill-opacity:1;fill-rule:nonzero;stroke:none;stroke-width:0.2;marker:none;visibility:visible;display:inline;overflow:visible;enable-background:accumulate"
       d="m 1.7499998,1044.1748 0,0.5625 c 0,3.2445 2.599225,5.875 5.84375,5.875 l 32.8125002,0 c 3.244525,0 5.84375,-2.6305 5.84375,-5.875 l 0,-0.5625 c 0,3.2445 -2.599225,5.875 -5.84375,5.875 l -32.8125002,0 C 4.3492248,1050.0498 1.7499998,1047.4193 1.7499998,1044.1748 Z"
       id="path6388" />
    <g
       id="g1441"
       transform="translate(53.698484,-4.7313)">
      <path
         inkscape:connector-curvature="0"
         id="rect837"
         d="m -17.882597,1018.7522 -17.327109,2.1359 0,4.6062 0,2.9423 0,12.5749 c -0.578353,-0.2224 -1.218802,-0.3603 -1.904266,-0.3603 -2.429971,0 -4.4004,1.5742 -4.4004,3.5084 0,1.9341 1.970429,3.4997 4.4004,3.4997 2.42997,0 4.400399,-1.5656 4.400399,-3.4997 0,-0.068 -0.01219,-0.1378 -0.01716,-0.2059 l 0.01716,0 0,-15.8516 12.334843,-1.6299 0,12.4035 c -0.577423,-0.2216 -1.220256,-0.3517 -1.904266,-0.3517 -2.429971,0 -4.4004,1.5656 -4.4004,3.4997 0,1.9342 1.970429,3.4997 4.4004,3.4997 2.42997,0 4.400399,-1.5655 4.400399,-3.4997 l 0,-15.886 0,-0.6434 L -17.882597,1018.7522 Z"
         style="fill:url(#linearGradient1443);fill-opacity:1;stroke:none" />
      <path
         inkscape:connector-curvature="0"
         id="path1451"
         d="m -17.870275,1018.0935 -17.332985,2.1455 0,0.621 17.332985,-2.1454 L -17.870275,1018.0935 z m -4.403819,19.7607 c -2.429971,0 -4.403821,1.5664 -4.403821,3.5005 0,0.093 0.01926,0.191 0.02823,0.2823 0.225375,-1.7657 2.097494,-3.1617 4.375591,-3.1617 0.684009,0 1.313961,0.1452 1.891385,0.3669 l 0,-0.621 C -20.960133,1037.9995 -21.590085,1037.8542 -22.274094,1037.8542 z m -14.848781,2.1455 c -2.42997,0 -4.40382,1.5663 -4.40382,3.5004 0,0.084 0.02094,0.1717 0.02823,0.2541 0.225375,-1.7666 2.097494,-3.1334 4.37559,-3.1334 0.685464,0 1.34126,0.1444 1.919613,0.3669 l 0,-0.6211 C -35.781613,1040.1442 -36.437409,1039.9997 -37.122874,1039.9997 Z"
         style="fill:#000000;fill-opacity:0.23529412;stroke:none" />
      <path
         inkscape:connector-curvature="0"
         id="path1456"
         d="m -20.38271,1026.4696 -12.336344,1.6373 0,0.4235 12.336344,-1.6373 L -20.38271,1026.4696 z m 2.512435,15.5546 c 0,1.9342 -1.97385,3.5005 -4.403819,3.5005 -2.340942,0 -4.238452,-1.4671 -4.375592,-3.303 -0.0068,0.08 -0.02823,0.145 -0.02823,0.2259 0,1.9342 1.973851,3.5004 4.403821,3.5004 2.429971,0 4.403821,-1.5662 4.403821,-3.5004 L -17.870275,1042.0242 z m -14.84878,2.1172 c 0,1.9341 -1.97385,3.5004 -4.40382,3.5004 -2.336166,0 -4.231499,-1.4441 -4.37559,-3.2746 -0.0058,0.073 -0.02823,0.1512 -0.02823,0.2259 0,1.9341 1.97385,3.5004 4.40382,3.5004 2.42997,0 4.403821,-1.5663 4.403821,-3.5004 0,-0.069 0.005,-0.1295 0,-0.1977 L -32.719054,1044.1414 Z"
         style="fill:#ffffff;fill-opacity:0.23529412;stroke:none" />
    </g>
  </g>
</svg>
