<?xml version="1.0" encoding="UTF-8" standalone="no"?>
<!-- Created with Inkscape (http://www.inkscape.org/) -->

<svg
   xmlns:dc="http://purl.org/dc/elements/1.1/"
   xmlns:cc="http://creativecommons.org/ns#"
   xmlns:rdf="http://www.w3.org/1999/02/22-rdf-syntax-ns#"
   xmlns:svg="http://www.w3.org/2000/svg"
   xmlns="http://www.w3.org/2000/svg"
   xmlns:xlink="http://www.w3.org/1999/xlink"
   xmlns:sodipodi="http://sodipodi.sourceforge.net/DTD/sodipodi-0.dtd"
   xmlns:inkscape="http://www.inkscape.org/namespaces/inkscape"
   width="48"
   height="48"
   id="svg2"
   version="1.1"
   inkscape:version="0.48+devel r12149"
   sodipodi:docname="sound-juicer.svg">
  <defs
     id="defs4">
    <linearGradient
       inkscape:collect="always"
       id="linearGradient895">
      <stop
         style="stop-color:#dbdbdc;stop-opacity:1"
         offset="0"
         id="stop897" />
      <stop
         style="stop-color:#eff0f0;stop-opacity:1"
         offset="1"
         id="stop899" />
    </linearGradient>
    <linearGradient
       gradientTransform="matrix(0.95833334,0,0,0.95833334,0.99999833,0.8119)"
       inkscape:collect="always"
       xlink:href="#linearGradient938"
       id="linearGradient936"
       x1="26.162951"
       y1="47.911613"
       x2="26.162951"
       y2="24.488701"
       gradientUnits="userSpaceOnUse" />
    <linearGradient
       id="linearGradient938"
       inkscape:collect="always">
      <stop
         id="stop940"
         offset="0"
         style="stop-color:#f79721;stop-opacity:1" />
      <stop
         id="stop942"
         offset="1"
         style="stop-color:#ffd564;stop-opacity:1" />
    </linearGradient>
    <linearGradient
       gradientTransform="matrix(0.95833334,0,0,0.95833334,0.99999833,0.8119)"
       inkscape:collect="always"
       xlink:href="#linearGradient930"
       id="linearGradient928"
       x1="25.013901"
       y1="47.911613"
       x2="25.013901"
       y2="21.660275"
       gradientUnits="userSpaceOnUse" />
    <linearGradient
       id="linearGradient930"
       inkscape:collect="always">
      <stop
         id="stop932"
         offset="0"
         style="stop-color:#eb7635;stop-opacity:1" />
      <stop
         id="stop934"
         offset="1"
         style="stop-color:#fbae40;stop-opacity:1" />
    </linearGradient>
    <linearGradient
       gradientTransform="matrix(0.95833334,0,0,0.95833334,0.99999833,0.8119)"
       inkscape:collect="always"
       xlink:href="#linearGradient920"
       id="linearGradient926"
       x1="26.249998"
       y1="48.25"
       x2="26.249998"
       y2="30.875"
       gradientUnits="userSpaceOnUse" />
    <linearGradient
       inkscape:collect="always"
       id="linearGradient920">
      <stop
         style="stop-color:#dd6932;stop-opacity:1"
         offset="0"
         id="stop922" />
      <stop
         style="stop-color:#eb9b3a;stop-opacity:1"
         offset="1"
         id="stop924" />
    </linearGradient>
    <linearGradient
       gradientTransform="translate(-2e-6,1.529)"
       inkscape:collect="always"
       xlink:href="#linearGradient949"
       id="linearGradient955"
       x1="23.864853"
       y1="-4.8562298"
       x2="23.864853"
       y2="22.013826"
       gradientUnits="userSpaceOnUse" />
    <linearGradient
       inkscape:collect="always"
       id="linearGradient949">
      <stop
         style="stop-color:#ffffff;stop-opacity:1;"
         offset="0"
         id="stop951" />
      <stop
         style="stop-color:#ffffff;stop-opacity:0;"
         offset="1"
         id="stop953" />
    </linearGradient>
    <linearGradient
       inkscape:collect="always"
       xlink:href="#linearGradient895"
       id="linearGradient978"
       x1="23.995287"
       y1="1050.6169"
       x2="23.995287"
       y2="1006.1068"
       gradientUnits="userSpaceOnUse" />
  </defs>
  <sodipodi:namedview
     id="base"
     pagecolor="#ffffff"
     bordercolor="#666666"
     borderopacity="1.0"
     inkscape:pageopacity="0.0"
     inkscape:pageshadow="2"
     inkscape:zoom="4"
     inkscape:cx="28.440399"
     inkscape:cy="20.985394"
     inkscape:document-units="px"
     inkscape:current-layer="layer1"
     showgrid="false"
     inkscape:window-width="1366"
     inkscape:window-height="716"
     inkscape:window-x="0"
     inkscape:window-y="28"
     inkscape:window-maximized="1"
     width="0px"
     height="0px"
     fit-margin-top="0"
     fit-margin-left="0"
     fit-margin-right="0"
     fit-margin-bottom="0">
    <inkscape:grid
       type="xygrid"
       id="grid3850"
       empspacing="5"
       visible="true"
       enabled="true"
       snapvisiblegridlinesonly="true" />
  </sodipodi:namedview>
  <metadata
     id="metadata7">
    <rdf:RDF>
      <cc:Work
         rdf:about="">
        <dc:format>image/svg+xml</dc:format>
        <dc:type
           rdf:resource="http://purl.org/dc/dcmitype/StillImage" />
        <dc:title />
      </cc:Work>
    </rdf:RDF>
  </metadata>
  <g
     inkscape:label="Capa 1"
     inkscape:groupmode="layer"
     id="layer1"
     transform="translate(0,-1004.3622)">
    <rect
       style="color:#000000;fill:#333333;fill-opacity:1;fill-rule:nonzero;stroke:none;stroke-width:0.2;marker:none;visibility:visible;display:inline;overflow:visible;enable-background:accumulate"
       id="rect6294"
       width="45.5"
       height="45.5"
       x="1.25"
       y="1005.6122"
       ry="6.3565426" />
    <rect
       ry="5.8565426"
       y="1006.1122"
       x="1.75"
       height="44.5"
       width="44.5"
       id="rect6296"
       style="color:#000000;fill:url(#linearGradient978);fill-opacity:1;fill-rule:nonzero;stroke:none;stroke-width:0.2;marker:none;visibility:visible;display:inline;overflow:visible;enable-background:accumulate" />
    <path
       style="fill:url(#linearGradient955);fill-opacity:1;stroke:none"
       d="M 7.59375,1.75 C 4.3492254,1.75 1.75,4.3492254 1.75,7.59375 l 0,15.8125 44.5,0 0,-15.8125 C 46.25,4.3492254 43.650775,1.75 40.40625,1.75 Z"
       transform="translate(0,1004.3622)"
       id="rect944"
       inkscape:connector-curvature="0"
       sodipodi:nodetypes="ssccsss" />
    <path
       style="fill:#000000;fill-opacity:0.23529412;stroke:none"
       d="M 1.75 24.03125 L 1.75 24.375 C 8.3414067 24.304116 13.307297 27.800293 20.875 27.15625 C 29.666637 26.408126 39.190352 28.592615 46.25 26.625 L 46.25 26.3125 C 39.19079 28.27799 29.664825 26.095587 20.875 26.84375 C 13.510859 27.47045 8.6133505 24.14505 2.28125 24.03125 C 2.1063204 24.027106 1.9274203 24.027226 1.75 24.03125 z "
       transform="translate(0,1004.3622)"
       id="path972" />
    <path
       style="fill:#000000;fill-opacity:0.11915403;stroke:none"
       d="M 1.75 23.6875 L 1.75 24.03125 C 8.3412494 23.960482 13.307418 27.487782 20.875 26.84375 C 29.664825 26.095684 39.19079 28.27808 46.25 26.3125 L 46.25 26 C 39.19079 27.965574 29.664825 25.751741 20.875 26.5 C 13.510859 27.1266 8.6133505 23.8012 2.28125 23.6875 C 2.1063204 23.683356 1.9274203 23.683476 1.75 23.6875 z "
       transform="translate(0,1004.3622)"
       id="path977" />
    <path
       style="fill:#000000;fill-opacity:0.05882353;stroke:none"
       d="M 1.75 23.375 L 1.75 23.71875 C 8.3414067 23.647872 13.307297 27.175389 20.875 26.53125 C 29.664825 25.78328 39.19079 27.965497 46.25 26 L 46.25 25.65625 C 39.19079 27.62174 29.664825 25.439337 20.875 26.1875 C 13.510859 26.8142 8.6133505 23.4888 2.28125 23.375 C 2.1063204 23.370856 1.9274203 23.370976 1.75 23.375 z "
       transform="translate(0,1004.3622)"
       id="path979" />
    <path
       style="fill:url(#linearGradient936);fill-opacity:1;stroke:none"
       d="M 1.75 24.34375 L 1.75 40.40625 C 1.75 43.650775 4.3492254 46.25 7.59375 46.25 L 40.40625 46.25 C 43.650775 46.25 46.25 43.650775 46.25 40.40625 L 46.25 26.625 C 39.19035 28.592608 29.666637 26.40803 20.875 27.15625 C 13.307418 27.800379 8.3412494 24.273071 1.75 24.34375 z "
       transform="translate(0,1004.3622)"
       id="path910" />
    <path
       style="fill:url(#linearGradient928);fill-opacity:1;stroke:none"
       d="M 46.25 22.15625 C 39.190701 24.73385 29.665185 31.439403 20.875 32.1875 C 13.307297 32.831543 8.3414067 27.559205 1.75 27.5 L 1.75 40.40625 C 1.75 43.650775 4.3492254 46.25 7.59375 46.25 L 40.40625 46.25 C 43.650775 46.25 46.25 43.650775 46.25 40.40625 L 46.25 22.15625 z "
       transform="translate(0,1004.3622)"
       id="path905" />
    <path
       style="fill:url(#linearGradient926);fill-opacity:1;stroke:none"
       d="M 1.75 30.65625 L 1.75 40.40625 C 1.75 43.650775 4.3492254 46.25 7.59375 46.25 L 40.40625 46.25 C 43.650775 46.25 46.25 43.650775 46.25 40.40625 L 46.25 36 C 39.658591 36.059288 34.692703 41.331543 27.125 40.6875 C 18.334815 39.939403 8.8092967 33.23385 1.75 30.65625 z "
       transform="translate(0,1004.3622)"
       id="path912" />
    <path
       style="fill:#000000;fill-opacity:0.23394129;stroke:none"
       d="M 1.75 30.34375 L 1.75 30.65625 C 8.8092967 33.23385 18.334815 39.939403 27.125 40.6875 C 34.692703 41.331543 39.658593 36.059288 46.25 36 L 46.25 35.6875 C 39.658593 35.746705 34.692703 41.050389 27.125 40.40625 C 18.334815 39.658153 8.8092967 32.92126 1.75 30.34375 z "
       transform="translate(0,1004.3622)"
       id="path957" />
    <path
       style="fill:#000000;fill-opacity:0.11656823;stroke:none"
       d="M 1.75 30.0625 L 1.75 30.34375 C 8.8092967 32.92126 18.334815 39.658153 27.125 40.40625 C 34.692703 41.050389 39.658593 35.746705 46.25 35.6875 L 46.25 35.40625 C 39.658593 35.465455 34.692703 40.737793 27.125 40.09375 C 18.334815 39.345557 8.8092967 32.64001 1.75 30.0625 z "
       transform="translate(0,1004.3622)"
       id="path962" />
    <path
       style="fill:#000000;fill-opacity:0.05882353;stroke:none"
       d="M 1.75 29.75 L 1.75 30.0625 C 8.8092967 32.64001 18.334815 39.345557 27.125 40.09375 C 34.692703 40.737793 39.658593 35.465455 46.25 35.40625 L 46.25 35.09375 C 39.658593 35.152955 34.692703 40.456543 27.125 39.8125 C 18.334815 39.064403 8.8092967 32.327516 1.75 29.75 z "
       transform="translate(0,1004.3622)"
       id="path964" />
    <path
       style="fill:#000000;fill-opacity:0.23394129;stroke:none"
       d="M 46.25 21.84375 C 39.190703 24.42135 29.665185 31.158153 20.875 31.90625 C 13.307297 32.550389 8.3414067 27.246705 1.75 27.1875 L 1.75 27.5 C 8.3414067 27.559288 13.307297 32.831543 20.875 32.1875 C 29.667035 31.439246 39.190255 24.701386 46.25 22.125 L 46.25 21.84375 z "
       transform="translate(0,1004.3622)"
       id="path966" />
    <path
       style="fill:#000000;fill-opacity:0.11656823;stroke:none"
       d="M 46.25 21.53125 C 39.190703 24.10876 29.665185 30.845557 20.875 31.59375 C 13.307297 32.237793 8.3414067 26.965455 1.75 26.90625 L 1.75 27.1875 C 8.3414067 27.246705 13.307297 32.550389 20.875 31.90625 C 29.665185 31.158153 39.190703 24.42135 46.25 21.84375 L 46.25 21.53125 z "
       transform="translate(0,1004.3622)"
       id="path968" />
    <path
       style="fill:#000000;fill-opacity:0.05882353;stroke:none"
       d="M 46.25 21.25 C 39.190703 23.827516 29.665185 30.533153 20.875 31.28125 C 13.307297 31.925293 8.3414067 26.652955 1.75 26.59375 L 1.75 26.90625 C 8.3414067 26.965455 13.307297 32.237793 20.875 31.59375 C 29.665185 30.845557 39.190703 24.10876 46.25 21.53125 L 46.25 21.25 z "
       transform="translate(0,1004.3622)"
       id="path970" />
    <path
       id="path6361"
       d="m 1.7499999,1012.5497 0,-0.5625 c 0,-3.2445 2.599225,-5.875 5.84375,-5.875 l 32.8125001,0 c 3.244525,0 5.84375,2.6305 5.84375,5.875 l 0,0.5625 c 0,-3.2445 -2.599225,-5.875 -5.84375,-5.875 l -32.8125001,0 C 4.3492249,1006.6747 1.7499999,1009.3052 1.7499999,1012.5497 Z"
       style="color:#000000;fill:#ffffff;fill-opacity:1;fill-rule:nonzero;stroke:none;stroke-width:0.2;marker:none;visibility:visible;display:inline;overflow:visible;enable-background:accumulate"
       inkscape:connector-curvature="0" />
    <path
       inkscape:connector-curvature="0"
       style="color:#000000;fill:#000000;fill-opacity:1;fill-rule:nonzero;stroke:none;stroke-width:0.2;marker:none;visibility:visible;display:inline;overflow:visible;enable-background:accumulate"
       d="m 1.7499999,1044.1747 0,0.5625 c 0,3.2445 2.599225,5.875 5.84375,5.875 l 32.8125001,0 c 3.244525,0 5.84375,-2.6305 5.84375,-5.875 l 0,-0.5625 c 0,3.2445 -2.599225,5.875 -5.84375,5.875 l -32.8125001,0 C 4.3492249,1050.0497 1.7499999,1047.4192 1.7499999,1044.1747 Z"
       id="path6388" />
  </g>
</svg>
