<?xml version="1.0" encoding="UTF-8" standalone="no"?>
<!-- Created with Inkscape (http://www.inkscape.org/) -->

<svg
   xmlns:dc="http://purl.org/dc/elements/1.1/"
   xmlns:cc="http://creativecommons.org/ns#"
   xmlns:rdf="http://www.w3.org/1999/02/22-rdf-syntax-ns#"
   xmlns:svg="http://www.w3.org/2000/svg"
   xmlns="http://www.w3.org/2000/svg"
   xmlns:xlink="http://www.w3.org/1999/xlink"
   xmlns:sodipodi="http://sodipodi.sourceforge.net/DTD/sodipodi-0.dtd"
   xmlns:inkscape="http://www.inkscape.org/namespaces/inkscape"
   width="48"
   height="48"
   id="svg2"
   version="1.1"
   inkscape:version="0.48+devel r12149"
   sodipodi:docname="steam.svg">
  <defs
     id="defs4">
    <linearGradient
       id="linearGradient829"
       inkscape:collect="always">
      <stop
         id="stop831"
         offset="0"
         style="stop-color:#000000;stop-opacity:1" />
      <stop
         id="stop833"
         offset="1"
         style="stop-color:#333333;stop-opacity:1" />
    </linearGradient>
    <linearGradient
       inkscape:collect="always"
       xlink:href="#linearGradient829"
       id="linearGradient1422"
       x1="26.374998"
       y1="1050.6171"
       x2="26.374998"
       y2="1006.1122"
       gradientUnits="userSpaceOnUse" />
  </defs>
  <sodipodi:namedview
     id="base"
     pagecolor="#ffffff"
     bordercolor="#666666"
     borderopacity="1.0"
     inkscape:pageopacity="0.0"
     inkscape:pageshadow="2"
     inkscape:zoom="5.6568546"
     inkscape:cx="32.470922"
     inkscape:cy="40.816657"
     inkscape:document-units="px"
     inkscape:current-layer="layer1"
     showgrid="false"
     inkscape:window-width="1366"
     inkscape:window-height="716"
     inkscape:window-x="0"
     inkscape:window-y="28"
     inkscape:window-maximized="1">
    <inkscape:grid
       type="xygrid"
       id="grid3850" />
  </sodipodi:namedview>
  <metadata
     id="metadata7">
    <rdf:RDF>
      <cc:Work
         rdf:about="">
        <dc:format>image/svg+xml</dc:format>
        <dc:type
           rdf:resource="http://purl.org/dc/dcmitype/StillImage" />
        <dc:title />
      </cc:Work>
    </rdf:RDF>
  </metadata>
  <g
     inkscape:label="Capa 1"
     inkscape:groupmode="layer"
     id="layer1"
     transform="translate(0,-1004.3622)">
    <rect
       style="color:#000000;fill:#333333;fill-opacity:1;fill-rule:nonzero;stroke:none;stroke-width:0.2;marker:none;visibility:visible;display:inline;overflow:visible;enable-background:accumulate"
       id="rect6294"
       width="45.5"
       height="45.5"
       x="1.25"
       y="1005.6122"
       ry="6.3565426" />
    <rect
       ry="5.8565426"
       y="1006.1122"
       x="1.750001"
       height="44.5"
       width="44.5"
       id="rect6296"
       style="color:#000000;fill:url(#linearGradient1422);fill-opacity:1.0;fill-rule:nonzero;stroke:none;stroke-width:0.2;marker:none;visibility:visible;display:inline;overflow:visible;enable-background:accumulate" />
    <path
       id="path6361"
       d="m 1.7499999,1012.5497 0,-0.5625 c 0,-3.2445 2.599225,-5.875 5.84375,-5.875 l 32.8125011,0 c 3.244525,0 5.84375,2.6305 5.84375,5.875 l 0,0.5625 c 0,-3.2445 -2.599225,-5.875 -5.84375,-5.875 l -32.8125011,0 C 4.3492249,1006.6747 1.7499999,1009.3052 1.7499999,1012.5497 Z"
       style="color:#000000;fill:#ffffff;fill-opacity:1;fill-rule:nonzero;stroke:none;stroke-width:0.2;marker:none;visibility:visible;display:inline;overflow:visible;enable-background:accumulate"
       inkscape:connector-curvature="0" />
    <path
       inkscape:connector-curvature="0"
       style="color:#000000;fill:#000000;fill-opacity:1;fill-rule:nonzero;stroke:none;stroke-width:0.2;marker:none;visibility:visible;display:inline;overflow:visible;enable-background:accumulate"
       d="m 1.7499999,1044.1747 0,0.5625 c 0,3.2445 2.599225,5.875 5.84375,5.875 l 32.8125011,0 c 3.244525,0 5.84375,-2.6305 5.84375,-5.875 l 0,-0.5625 c 0,3.2445 -2.599225,5.875 -5.84375,5.875 l -32.8125011,0 C 4.3492249,1050.0497 1.7499999,1047.4192 1.7499999,1044.1747 Z"
       id="path6388" />
    <path
       style="color:#000000;fill:#ffffff;fill-opacity:1;fill-rule:nonzero;stroke:none;stroke-width:1.5;marker:none;visibility:visible;display:inline;overflow:visible;enable-background:accumulate"
       d="m 34.375667,1013.3659 c -0.546774,-0.016 -1.109824,0.019 -1.669356,0.1171 -4.313919,0.7556 -7.206479,4.7622 -6.706713,9.0789 l -4.510191,8.2882 c -0.09296,0.01 -0.170714,0.046 -0.263582,0.058 -1.11067,0.199 -2.089819,0.6726 -2.899409,1.3472 l -16.576415,-5.0662 0,7.4389 14.672764,4.5394 c 0.999803,2.8443 3.94793,4.6361 6.999582,4.1002 3.260367,-0.5724 5.44976,-3.5917 5.09593,-6.8532 l 6.735999,-6.5601 c 0.121263,-0.012 0.233165,-0.017 0.351443,-0.058 4.476387,-0.7844 7.437995,-5.078 6.648139,-9.5768 C 41.562609,1016.28 38.203081,1013.4778 34.375667,1013.3659 z m -0.615026,2.6065 c 0.187881,-0.01 0.398645,-0.01 0.585739,0 2.619302,0.076 4.915562,1.9605 5.388799,4.6566 0.540913,3.0813 -1.504173,6.0224 -4.568764,6.5603 -3.064525,0.5384 -5.990143,-1.517 -6.530991,-4.598 -0.541105,-3.0829 1.504115,-6.0225 4.568765,-6.5603 C 33.395722,1015.9973 33.572762,1015.9813 33.760641,1015.9724 z m 0.527165,1.4936 c -0.274446,-0.01 -0.568406,0.013 -0.849321,0.058 -2.248042,0.3899 -3.73532,2.5729 -3.338714,4.8322 0.396773,2.2597 2.526469,3.7631 4.773775,3.368 2.247785,-0.392 3.764665,-2.5436 3.367999,-4.803 C 37.894511,1018.9459 36.208927,1017.5238 34.287806,1017.466 z m -11.861216,14.6142 c 2.30458,0.07 4.357862,1.7894 4.773773,4.1588 0.475289,2.7078 -1.319091,5.2974 -4.012311,5.7695 -2.081378,0.3637 -4.076381,-0.6464 -5.095931,-2.3722 l 3.192277,0.8785 c 1.808747,0.5117 3.914461,-0.6503 4.422331,-2.4601 0.507869,-1.8097 -0.678515,-3.9182 -2.489391,-4.4223 l -3.280138,-0.9371 c 0.460883,-0.2552 0.974914,-0.4315 1.522921,-0.5272 C 21.796765,1032.1091 22.097358,1032.0704 22.42659,1032.0802 Z"
       id="path3907"
       inkscape:connector-curvature="0" />
  </g>
</svg>
