<?xml version="1.0" encoding="UTF-8" standalone="no"?>
<!-- Created with Inkscape (http://www.inkscape.org/) -->

<svg
   xmlns:dc="http://purl.org/dc/elements/1.1/"
   xmlns:cc="http://creativecommons.org/ns#"
   xmlns:rdf="http://www.w3.org/1999/02/22-rdf-syntax-ns#"
   xmlns:svg="http://www.w3.org/2000/svg"
   xmlns="http://www.w3.org/2000/svg"
   xmlns:xlink="http://www.w3.org/1999/xlink"
   xmlns:sodipodi="http://sodipodi.sourceforge.net/DTD/sodipodi-0.dtd"
   xmlns:inkscape="http://www.inkscape.org/namespaces/inkscape"
   width="48"
   height="48"
   id="svg2"
   version="1.1"
   inkscape:version="0.48+devel r12130"
   sodipodi:docname="system-shutdown.svg">
  <defs
     id="defs4">
    <linearGradient
       inkscape:collect="always"
       xlink:href="#linearGradient3257-0-4"
       id="linearGradient885"
       x1="25.1199"
       y1="1051.0239"
       x2="25.1199"
       y2="1005.7004"
       gradientUnits="userSpaceOnUse" />
    <linearGradient
       id="linearGradient3257-0-4">
      <stop
         offset="0"
         style="stop-color:#a12923;stop-opacity:1"
         id="stop3259-2-5" />
      <stop
         offset="1"
         style="stop-color:#bd433b;stop-opacity:1"
         id="stop3261-6-0" />
    </linearGradient>
  </defs>
  <sodipodi:namedview
     id="base"
     pagecolor="#ffffff"
     bordercolor="#666666"
     borderopacity="1.0"
     inkscape:pageopacity="0.0"
     inkscape:pageshadow="2"
     inkscape:zoom="7.0603642"
     inkscape:cx="-7.1533551"
     inkscape:cy="36.73719"
     inkscape:document-units="px"
     inkscape:current-layer="layer1"
     showgrid="false"
     inkscape:window-width="1366"
     inkscape:window-height="717"
     inkscape:window-x="0"
     inkscape:window-y="28"
     inkscape:window-maximized="1"
     showguides="false" />
  <metadata
     id="metadata7">
    <rdf:RDF>
      <cc:Work
         rdf:about="">
        <dc:format>image/svg+xml</dc:format>
        <dc:type
           rdf:resource="http://purl.org/dc/dcmitype/StillImage" />
        <dc:title />
      </cc:Work>
    </rdf:RDF>
  </metadata>
  <g
     inkscape:label="Capa 1"
     inkscape:groupmode="layer"
     id="layer1"
     transform="translate(0,-1004.3622)">
    <rect
       style="color:#000000;fill:#333333;fill-opacity:1;fill-rule:nonzero;stroke:none;stroke-width:0.2;marker:none;visibility:visible;display:inline;overflow:visible;enable-background:accumulate"
       id="rect6294"
       width="45.5"
       height="45.5"
       x="1.25"
       y="1005.6122"
       ry="6.3565426" />
    <rect
       ry="5.8565426"
       y="1006.1122"
       x="1.75"
       height="44.5"
       width="44.5"
       id="rect6296"
       style="color:#000000;fill:url(#linearGradient885);fill-opacity:1.0;fill-rule:nonzero;stroke:none;stroke-width:0.2;marker:none;visibility:visible;display:inline;overflow:visible;enable-background:accumulate" />
    <path
       id="path6361"
       d="m 1.7499969,1012.5497 0,-0.5625 c 0,-3.2445 2.599225,-5.875 5.84375,-5.875 l 32.8125001,0 c 3.244525,0 5.84375,2.6305 5.84375,5.875 l 0,0.5625 c 0,-3.2445 -2.599225,-5.875 -5.84375,-5.875 l -32.8125001,0 C 4.3492219,1006.6747 1.7499969,1009.3052 1.7499969,1012.5497 Z"
       style="color:#000000;fill:#ffffff;fill-opacity:1;fill-rule:nonzero;stroke:none;stroke-width:0.2;marker:none;visibility:visible;display:inline;overflow:visible;enable-background:accumulate"
       inkscape:connector-curvature="0" />
    <path
       inkscape:connector-curvature="0"
       style="color:#000000;fill:#000000;fill-opacity:1;fill-rule:nonzero;stroke:none;stroke-width:0.2;marker:none;visibility:visible;display:inline;overflow:visible;enable-background:accumulate"
       d="m 1.7499969,1044.1747 0,0.5625 c 0,3.2445 2.599225,5.875 5.84375,5.875 l 32.8125001,0 c 3.244525,0 5.84375,-2.6305 5.84375,-5.875 l 0,-0.5625 c 0,3.2445 -2.599225,5.875 -5.84375,5.875 l -32.8125001,0 C 4.3492219,1050.0497 1.7499969,1047.4192 1.7499969,1044.1747 Z"
       id="path6388" />
    <g
       id="g846"
       transform="matrix(0.7872466,0,0,0.7872466,2.6010136,221.04903)">
      <path
         inkscape:connector-curvature="0"
         id="path855"
         transform="translate(0,1004.3622)"
         d="m 7.21875,36.9375 c -0.429331,0 -0.8267521,0.07562 -1.21875,0.21875 -0.5786635,0.211533 -1.0452241,0.5458 -1.375,1 C 4.2018912,38.741117 4,39.510483 4,40.46875 c 0,0.952 0.226919,1.721433 0.65625,2.3125 0.3359981,0.460467 0.7775309,0.794667 1.34375,1 C 6.3919979,43.924317 6.789419,44 7.21875,44 c 0.429331,0 0.8580021,-0.07568 1.25,-0.21875 0.5662191,-0.205333 1.013974,-0.539533 1.34375,-1 0.423109,-0.584867 0.625,-1.3543 0.625,-2.3125 0,-0.958267 -0.201891,-1.727633 -0.625,-2.3125 -0.329776,-0.4542 -0.8025587,-0.788467 -1.375,-1 C 8.0455021,37.013117 7.6418588,36.9375 7.21875,36.9375 z m 4.34375,0.1875 0,6.6875 1.40625,0 0,-2.8125 2.9375,0 0,-1.1875 -2.9375,0 0,-1.5 3.375,0 0,-1.1875 L 11.5625,37.125 z m 5.71875,0 0,6.6875 1.375,0 0,-2.8125 2.9375,0 0,-1.1875 -2.9375,0 0,-1.5 3.375,0 0,-1.1875 L 17.28125,37.125 z m -10.0625,1 c 0.4791085,0 0.9014183,0.157617 1.21875,0.46875 0.4106644,0.4044 0.59375,1.028733 0.59375,1.875 0,0.8462 -0.2081134,1.470533 -0.625,1.875 -0.3173316,0.311067 -0.7146137,0.46875 -1.1875,0.46875 -0.4791085,0 -0.8639463,-0.157683 -1.1875,-0.46875 -0.4168867,-0.404467 -0.625,-1.0288 -0.625,-1.875 0,-0.846267 0.2018912,-1.4706 0.625,-1.875 C 6.3548038,38.282617 6.7458637,38.125 7.21875,38.125 Z"
         style="font-size:9.33328247px;font-style:normal;font-variant:normal;font-weight:bold;font-stretch:normal;text-align:start;line-height:125%;letter-spacing:0px;word-spacing:0px;writing-mode:lr-tb;text-anchor:start;fill:#ffffff;fill-opacity:0.5372549;stroke:none;font-family:Helvetica;-inkscape-font-specification:Helvetica Bold" />
      <path
         inkscape:connector-curvature="0"
         id="path873"
         d="m 7.21875,1042.4841 c -0.4728863,0 -0.8639462,0.1575 -1.1875,0.4687 -0.37285,0.3564 -0.5512439,0.8944 -0.59375,1.5938 0.076615,-0.5516 0.2764184,-0.978 0.59375,-1.2813 0.3235538,-0.3111 0.7146137,-0.4687 1.1875,-0.4687 0.4791085,0 0.9014183,0.1576 1.21875,0.4687 0.3079983,0.3033 0.4917573,0.7297 0.5625,1.2813 -0.038882,-0.6994 -0.2006162,-1.2374 -0.5625,-1.5938 C 8.1201683,1042.6416 7.6978585,1042.4841 7.21875,1042.4841 z m 5.75,0.1875 0,0.3125 3.375,0 0,-0.3125 L 12.96875,1042.6716 z m 5.6875,0 0,0.3125 3.375,0 0,-0.3125 L 18.65625,1042.6716 z m -5.6875,2.6875 0,0.3125 2.9375,0 0,-0.3125 L 12.96875,1045.3591 z m 5.6875,0 0,0.3125 2.9375,0 0,-0.3125 L 18.65625,1045.3591 z m -14.625,0.1562 c 0.05313,0.779 0.2543147,1.4272 0.625,1.9375 0.3359981,0.4605 0.7775309,0.7947 1.34375,1 0.3919979,0.1431 0.789419,0.2188 1.21875,0.2188 0.429331,0 0.8580021,-0.076 1.25,-0.2188 0.5662191,-0.2053 1.013974,-0.5395 1.34375,-1 0.365313,-0.505 0.545817,-1.1546 0.59375,-1.9375 -0.07662,0.6481 -0.276418,1.1863 -0.59375,1.625 -0.329776,0.4604 -0.7775309,0.7946 -1.34375,1 -0.3919979,0.1427 -0.820669,0.2188 -1.25,0.2188 -0.429331,0 -0.8267521,-0.076 -1.21875,-0.2188 -0.5662191,-0.2054 -1.0077519,-0.5396 -1.34375,-1 C 4.3342517,1046.697 4.1151959,1046.161 4.03125,1045.5153 z m 7.53125,2.6563 0,0.3125 1.40625,0 0,-0.3125 L 11.5625,1048.1716 z m 5.71875,0 0,0.3125 1.375,0 0,-0.3125 L 17.28125,1048.1716 Z"
         style="font-size:9.33328247px;font-style:normal;font-variant:normal;font-weight:bold;font-stretch:normal;text-align:start;line-height:125%;letter-spacing:0px;word-spacing:0px;writing-mode:lr-tb;text-anchor:start;fill:#ffffff;fill-opacity:0.16201118;stroke:none;font-family:Helvetica;-inkscape-font-specification:Helvetica Bold" />
      <path
         inkscape:connector-curvature="0"
         id="path878"
         d="m 7.21875,1041.0501 c -0.429331,0 -0.8267521,0.076 -1.21875,0.2188 -0.5786635,0.2115 -1.0452241,0.5458 -1.375,1 -0.3557167,0.4917 -0.5392678,1.1198 -0.59375,1.875 0.076615,-0.6481 0.2764184,-1.1863 0.59375,-1.625 0.3297759,-0.4542 0.7963365,-0.7885 1.375,-1 0.3919979,-0.1427 0.789419,-0.2188 1.21875,-0.2188 0.4231088,0 0.8267521,0.076 1.21875,0.2188 0.5724413,0.2115 1.045224,0.5458 1.375,1 0.317332,0.4387 0.517135,0.9769 0.59375,1.625 -0.05448,-0.7552 -0.238033,-1.3833 -0.59375,-1.875 -0.329776,-0.4542 -0.8025587,-0.7885 -1.375,-1 C 8.0455021,1041.1258 7.6418588,1041.0501 7.21875,1041.0501 z m 4.34375,0.1875 0,0.25 4.78125,0 0,-0.25 L 11.5625,1041.2376 z m 5.71875,0 0,0.25 4.75,0 0,-0.25 L 17.28125,1041.2376 z m -4.3125,2.6875 0,0.25 2.9375,0 0,-0.25 L 12.96875,1043.9251 z m 5.6875,0 0,0.25 2.9375,0 0,-0.25 L 18.65625,1043.9251 z m -13.21875,1.25 c 0.051622,0.6685 0.2373234,1.1854 0.59375,1.5313 0.3235537,0.3111 0.7083915,0.4687 1.1875,0.4687 0.4728863,0 0.8701684,-0.1576 1.1875,-0.4687 0.3564265,-0.3459 0.5421283,-0.8628 0.59375,-1.5313 -0.078074,0.5516 -0.281085,0.9779 -0.59375,1.2813 -0.3173316,0.3111 -0.7146137,0.4687 -1.1875,0.4687 -0.4791085,0 -0.8639463,-0.1576 -1.1875,-0.4687 C 5.718585,1046.153 5.5155734,1045.7267 5.4375,1045.1751 Z"
         style="font-size:9.33328247px;font-style:normal;font-variant:normal;font-weight:bold;font-stretch:normal;text-align:start;line-height:125%;letter-spacing:0px;word-spacing:0px;writing-mode:lr-tb;text-anchor:start;fill:#000000;fill-opacity:0.5372549;stroke:none;font-family:Helvetica;-inkscape-font-specification:Helvetica Bold" />
    </g>
  </g>
</svg>
