<?xml version="1.0" encoding="UTF-8" standalone="no"?>
<!-- Created with Inkscape (http://www.inkscape.org/) -->

<svg
   xmlns:dc="http://purl.org/dc/elements/1.1/"
   xmlns:cc="http://creativecommons.org/ns#"
   xmlns:rdf="http://www.w3.org/1999/02/22-rdf-syntax-ns#"
   xmlns:svg="http://www.w3.org/2000/svg"
   xmlns="http://www.w3.org/2000/svg"
   xmlns:xlink="http://www.w3.org/1999/xlink"
   xmlns:sodipodi="http://sodipodi.sourceforge.net/DTD/sodipodi-0.dtd"
   xmlns:inkscape="http://www.inkscape.org/namespaces/inkscape"
   width="48"
   height="48"
   id="svg2"
   version="1.1"
   inkscape:version="0.48+devel r12149"
   sodipodi:docname="thunderbird.svg">
  <defs
     id="defs4">
    <linearGradient
       y2="47.431961"
       x2="26.936655"
       y1="28.263252"
       x1="26.936655"
       gradientTransform="matrix(1.5941642,0,0,-1.5941642,-14.259948,1081.3003)"
       gradientUnits="userSpaceOnUse"
       id="linearGradient1489"
       xlink:href="#linearGradient916"
       inkscape:collect="always" />
    <linearGradient
       gradientUnits="userSpaceOnUse"
       y2="1005.9872"
       x2="23.812502"
       y1="1051.1122"
       x1="23.812502"
       id="linearGradient1474"
       xlink:href="#linearGradient916"
       inkscape:collect="always" />
    <linearGradient
       y2="29.079058"
       x2="26.465649"
       y1="48.17094"
       x1="26.465649"
       gradientTransform="matrix(1.5941642,0,0,1.5941642,-14.259948,975.42405)"
       gradientUnits="userSpaceOnUse"
       id="linearGradient1486"
       xlink:href="#linearGradient916"
       inkscape:collect="always" />
    <linearGradient
       id="linearGradient916"
       inkscape:collect="always">
      <stop
         id="stop918"
         offset="0"
         style="stop-color:#c6a653;stop-opacity:1" />
      <stop
         id="stop920"
         offset="1"
         style="stop-color:#efde7f;stop-opacity:1" />
    </linearGradient>
  </defs>
  <sodipodi:namedview
     id="base"
     pagecolor="#ffffff"
     bordercolor="#666666"
     borderopacity="1.0"
     inkscape:pageopacity="0.0"
     inkscape:pageshadow="2"
     inkscape:zoom="2.3443309"
     inkscape:cx="-3.7850644"
     inkscape:cy="-27.97827"
     inkscape:document-units="px"
     inkscape:current-layer="layer1"
     showgrid="false"
     inkscape:window-width="1366"
     inkscape:window-height="716"
     inkscape:window-x="0"
     inkscape:window-y="28"
     inkscape:window-maximized="1">
    <inkscape:grid
       type="xygrid"
       id="grid3850" />
  </sodipodi:namedview>
  <metadata
     id="metadata7">
    <rdf:RDF>
      <cc:Work
         rdf:about="">
        <dc:format>image/svg+xml</dc:format>
        <dc:type
           rdf:resource="http://purl.org/dc/dcmitype/StillImage" />
        <dc:title />
      </cc:Work>
    </rdf:RDF>
  </metadata>
  <g
     inkscape:label="Capa 1"
     inkscape:groupmode="layer"
     id="layer1"
     transform="translate(0,-1004.3622)">
    <rect
       style="color:#000000;fill:#333333;fill-opacity:1;fill-rule:nonzero;stroke:none;stroke-width:0.2;marker:none;visibility:visible;display:inline;overflow:visible;enable-background:accumulate"
       id="rect6294-7"
       width="45.5"
       height="45.5"
       x="1.25"
       y="1005.6122"
       ry="6.3565426" />
    <path
       inkscape:connector-curvature="0"
       style="fill:url(#linearGradient1474);fill-opacity:1.0;stroke:none"
       d="m 7.59375,1006.1122 c -3.2445246,0 -5.84375,2.5992 -5.84375,5.8438 l 0,32.8125 c 0,3.2445 2.5992254,5.8437 5.84375,5.8437 l 32.8125,0 c 3.244525,0 5.84375,-2.5992 5.84375,-5.8437 l 0,-32.8125 c 0,-3.2446 -2.599225,-5.8438 -5.84375,-5.8438 L 7.59375,1006.1122 Z"
       id="rect2991" />
    <path
       inkscape:connector-curvature="0"
       style="color:#000000;fill:#000000;fill-opacity:0.30337123;fill-rule:nonzero;stroke:none;stroke-width:0.2;marker:none;visibility:visible;display:inline;overflow:visible;enable-background:accumulate"
       d="m 24,1021.3935 -22.25,17.4062 0,5.9688 c 0,3.2445 2.5992254,5.8437 5.84375,5.8437 l 32.8125,0 c 3.244525,0 5.84375,-2.5992 5.84375,-5.8437 l 0,-5.9688 L 24,1021.3935 Z"
       id="path1482" />
    <path
       inkscape:connector-curvature="0"
       style="color:#000000;fill:url(#linearGradient1486);fill-opacity:1.0;fill-rule:nonzero;stroke:none;stroke-width:0.2;marker:none;visibility:visible;display:inline;overflow:visible;enable-background:accumulate"
       d="m 24,1022.0497 -22.25,17.375 0,5.3438 c 0,3.2445 2.5992254,5.8437 5.84375,5.8437 l 32.8125,0 c 3.244525,0 5.84375,-2.5992 5.84375,-5.8437 l 0,-5.3438 L 24,1022.0497 Z"
       id="path1484" />
    <path
       inkscape:connector-curvature="0"
       style="color:#000000;fill:#000000;fill-opacity:0.30337123;fill-rule:nonzero;stroke:none;stroke-width:0.2;marker:none;visibility:visible;display:inline;overflow:visible;enable-background:accumulate"
       d="m 7.59375,1006.1122 c -3.2445246,0 -5.84375,2.5992 -5.84375,5.8438 l 0,5.9687 22.25,17.4063 22.25,-17.4063 0,-5.9687 c 0,-3.2446 -2.599225,-5.8438 -5.84375,-5.8438 L 7.59375,1006.1122 Z"
       id="path1485" />
    <path
       inkscape:connector-curvature="0"
       style="color:#000000;fill:url(#linearGradient1489);fill-opacity:1;fill-rule:nonzero;stroke:none;stroke-width:0.2;marker:none;visibility:visible;display:inline;overflow:visible;enable-background:accumulate"
       d="m 7.59375,1006.1122 c -3.2445246,0 -5.84375,2.5992 -5.84375,5.8438 l 0,5.3437 22.25,17.375 22.25,-17.375 0,-5.3437 c 0,-3.2446 -2.599225,-5.8438 -5.84375,-5.8438 L 7.59375,1006.1122 Z"
       id="path1487" />
    <path
       id="path6361-8"
       d="m 1.7500007,1012.5498 0,-0.5625 c 0,-3.2445 2.5992,-5.875 5.8438,-5.875 l 32.8125003,0 c 3.2445,0 5.8437,2.6305 5.8437,5.875 l 0,0.5625 c 0,-3.2445 -2.5992,-5.875 -5.8437,-5.875 l -32.8125003,0 C 4.3492007,1006.6748 1.7500007,1009.3053 1.7500007,1012.5498 Z"
       style="color:#000000;fill:#ffffff;fill-opacity:1;fill-rule:nonzero;stroke:none;stroke-width:0.2;marker:none;visibility:visible;display:inline;overflow:visible;enable-background:accumulate"
       inkscape:connector-curvature="0" />
    <path
       inkscape:connector-curvature="0"
       style="color:#000000;fill:#000000;fill-opacity:1;fill-rule:nonzero;stroke:none;stroke-width:0.2;marker:none;visibility:visible;display:inline;overflow:visible;enable-background:accumulate"
       d="m 1.7500007,1044.1748 0,0.5625 c 0,3.2445 2.5992,5.875 5.8438,5.875 l 32.8125003,0 c 3.2445,0 5.8437,-2.6305 5.8437,-5.875 l 0,-0.5625 c 0,3.2445 -2.5992,5.875 -5.8437,5.875 l -32.8125003,0 C 4.3492007,1050.0498 1.7500007,1047.4193 1.7500007,1044.1748 Z"
       id="path6388-9" />
  </g>
</svg>
