<?xml version="1.0" encoding="UTF-8" standalone="no"?>
<!-- Created with Inkscape (http://www.inkscape.org/) -->

<svg
   xmlns:dc="http://purl.org/dc/elements/1.1/"
   xmlns:cc="http://creativecommons.org/ns#"
   xmlns:rdf="http://www.w3.org/1999/02/22-rdf-syntax-ns#"
   xmlns:svg="http://www.w3.org/2000/svg"
   xmlns="http://www.w3.org/2000/svg"
   xmlns:xlink="http://www.w3.org/1999/xlink"
   xmlns:sodipodi="http://sodipodi.sourceforge.net/DTD/sodipodi-0.dtd"
   xmlns:inkscape="http://www.inkscape.org/namespaces/inkscape"
   width="48"
   height="48"
   id="svg2"
   version="1.1"
   inkscape:version="0.48+devel r12149"
   sodipodi:docname="turpial.svg">
  <defs
     id="defs4">
    <linearGradient
       id="linearGradient839">
      <stop
         id="stop841"
         offset="0"
         style="stop-color:#ffa700;stop-opacity:1" />
      <stop
         id="stop843"
         offset="1"
         style="stop-color:#ffce58;stop-opacity:1" />
    </linearGradient>
    <linearGradient
       y2="-1001.6555"
       x2="73.72438"
       y1="-1049.6484"
       x1="73.72438"
       gradientTransform="matrix(1,0,0,-1,-52.11767,-1001.657)"
       gradientUnits="userSpaceOnUse"
       id="linearGradient879"
       xlink:href="#linearGradient839"
       inkscape:collect="always" />
  </defs>
  <sodipodi:namedview
     id="base"
     pagecolor="#ffffff"
     bordercolor="#666666"
     borderopacity="1.0"
     inkscape:pageopacity="0.0"
     inkscape:pageshadow="2"
     inkscape:zoom="6.2534756"
     inkscape:cx="38.9784"
     inkscape:cy="28.035408"
     inkscape:document-units="px"
     inkscape:current-layer="layer1"
     showgrid="false"
     inkscape:window-width="1366"
     inkscape:window-height="716"
     inkscape:window-x="0"
     inkscape:window-y="28"
     inkscape:window-maximized="1" />
  <metadata
     id="metadata7">
    <rdf:RDF>
      <cc:Work
         rdf:about="">
        <dc:format>image/svg+xml</dc:format>
        <dc:type
           rdf:resource="http://purl.org/dc/dcmitype/StillImage" />
        <dc:title />
      </cc:Work>
    </rdf:RDF>
  </metadata>
  <g
     inkscape:label="Capa 1"
     inkscape:groupmode="layer"
     id="layer1"
     transform="translate(0,-1004.3622)">
    <rect
       style="color:#000000;fill:#333333;fill-opacity:1;fill-rule:nonzero;stroke:none;stroke-width:0.2;marker:none;visibility:visible;display:inline;overflow:visible;enable-background:accumulate"
       id="rect6294"
       width="45.5"
       height="45.5"
       x="1.25"
       y="1005.6122"
       ry="6.3565426" />
    <path
       style="fill:url(#linearGradient879);fill-opacity:1;stroke:none"
       d="M 7.59375 1.75 C 4.3492254 1.75 1.75 4.3492254 1.75 7.59375 L 1.75 40.40625 C 1.75 43.650775 4.3492254 46.25 7.59375 46.25 L 40.40625 46.25 C 43.650775 46.25 46.25 43.650775 46.25 40.40625 L 46.25 7.59375 C 46.25 4.3492254 43.650775 1.75 40.40625 1.75 L 7.59375 1.75 z "
       transform="translate(0,1004.3622)"
       id="rect2991-1" />
    <path
       id="path6361"
       d="m 1.75,1012.5497 0,-0.5625 c 0,-3.2445 2.5992249,-5.875 5.84375,-5.875 l 32.8125,0 c 3.244525,0 5.84375,2.6305 5.84375,5.875 l 0,0.5625 c 0,-3.2445 -2.599225,-5.875 -5.84375,-5.875 l -32.8125,0 C 4.3492249,1006.6747 1.75,1009.3052 1.75,1012.5497 Z"
       style="color:#000000;fill:#ffffff;fill-opacity:1;fill-rule:nonzero;stroke:none;stroke-width:0.2;marker:none;visibility:visible;display:inline;overflow:visible;enable-background:accumulate"
       inkscape:connector-curvature="0" />
    <path
       inkscape:connector-curvature="0"
       style="color:#000000;fill:#000000;fill-opacity:1;fill-rule:nonzero;stroke:none;stroke-width:0.2;marker:none;visibility:visible;display:inline;overflow:visible;enable-background:accumulate"
       d="m 1.75,1044.1747 0,0.5625 c 0,3.2445 2.5992249,5.875 5.84375,5.875 l 32.8125,0 c 3.244525,0 5.84375,-2.6305 5.84375,-5.875 l 0,-0.5625 c 0,3.2445 -2.599225,5.875 -5.84375,5.875 l -32.8125,0 C 4.3492249,1050.0497 1.75,1047.4192 1.75,1044.1747 Z"
       id="path6388" />
    <g
       id="g855"
       transform="matrix(0.93750098,0,0,0.93750098,1.4999765,64.271614)">
      <path
         inkscape:connector-curvature="0"
         id="path5988"
         d="m 29.243075,1012.3647 c -10.10705,0.1417 -17.338361,12.1722 -23.276747,19.5074 2.0774236,1.1454 5.841259,2.3937 10.075276,2.3937 2.768377,0 5.731913,-0.5312 8.592567,-1.947 3.491122,-1.7275 5.234771,-4.8924 5.234142,-7.7531 -6.9e-4,-1.6409 -0.56714,-3.1823 -1.697077,-4.3051 -1.131225,-1.1209 -2.832712,-1.8579 -5.198413,-1.8579 -0.788569,0 -1.657802,0.088 -2.590275,0.268 l -0.160776,-0.8217 c 0.97958,-0.1891 1.90376,-0.2858 2.751051,-0.2858 2.538645,0 4.484401,0.812 5.787925,2.1078 1.304171,1.2953 1.947801,3.0622 1.947172,4.8947 -6.9e-4,3.1969 -1.935809,6.641 -5.698605,8.5034 -2.994879,1.4822 -6.09415,2.0365 -8.967711,2.0365 -4.437791,0 -8.3308483,-1.2922 -10.5397394,-2.5188 l 0.2679595,-0.4824 c -0.345919,0.4231 -0.6986216,0.8463 -1.03611,1.2327 3.8305545,2.3959 7.5582839,3.975 11.0577949,4.841 1.511106,0.3739 2.975562,0.6137 4.394535,0.7324 l 0.928927,5.1449 0.821742,-0.1429 -0.893199,-4.9483 c 0.721925,0.036 1.433112,0.028 2.125812,0 l 0.928926,5.0912 0.821744,-0.1429 -0.893199,-4.9841 c 9.180496,-0.7221 15.493266,-7.0093 15.845337,-15.756 0.04517,-1.1183 -0.0085,-2.275 -0.160774,-3.4656 l 3.554926,-1.84 -3.912206,-0.2501 3.34056,-2.6974 -4.519583,0.3215 C 34.960097,1013.1741 31.998665,1012.326 29.243075,1012.3647 z m 3.304832,3.7336 c 0.258126,0 0.489141,0.073 0.732424,0.1964 0.243282,0.1242 0.496034,0.3066 0.750285,0.5182 0.507861,0.4233 1.042876,1.0102 1.57203,1.7149 l -0.660967,0.5002 c -0.742749,-0.9945 -1.524762,-1.7262 -2.036492,-1.9829 -0.167782,-0.086 -0.295975,-0.1084 -0.35728,-0.1084 l -0.05359,0 -0.03572,0.036 c -0.03871,0.052 -0.109118,0.2377 -0.107174,0.5358 -0.0013,0.4478 0.117894,1.1445 0.410871,2.1081 l -0.786015,0.2499 c -0.305876,-1.0111 -0.463205,-1.772 -0.464462,-2.358 6.91e-4,-0.2929 0.03794,-0.5449 0.125049,-0.7681 0.08454,-0.2214 0.249573,-0.425 0.464462,-0.5359 C 32.243276,1016.1299 32.398198,1016.0983 32.547907,1016.0983 z m -7.30636,3.4477 -0.214368,1.8757 c -5.431797,1.9954 -9.024586,6.6906 -10.253916,10.8256 l -1.857852,0.3215 0.250095,-0.8039 c 1.367507,-4.5998 5.13621,-9.6611 11.272162,-11.9152 L 25.241547,1019.546 Z"
         style="fill:#1a1a1a;fill-opacity:0.82186202;fill-rule:nonzero;stroke:none" />
      <path
         inkscape:connector-curvature="0"
         id="path845"
         d="m 42.693282,1015.2391 -0.495187,0.031 -2.847321,2.2902 0.433288,0.031 L 42.693282,1015.2391 z m -10.151319,0.8047 c -0.149709,0 -0.291339,0.019 -0.433288,0.093 -0.214889,0.1109 -0.379699,0.3356 -0.464237,0.5571 -0.0871,0.2232 -0.123106,0.4498 -0.123796,0.7427 1.36e-4,0.063 -0.0039,0.1486 0,0.2167 0.01226,-0.2246 0.05334,-0.4384 0.123796,-0.6189 0.08454,-0.2215 0.249348,-0.4153 0.464237,-0.5262 0.141949,-0.074 0.283579,-0.093 0.433288,-0.093 0.258126,0 0.499497,0.062 0.74278,0.1857 0.243281,0.1242 0.488528,0.3144 0.742779,0.5261 0.450002,0.375 0.923039,0.8854 1.392711,1.4855 l 0.185695,-0.1547 c -0.529154,-0.7047 -1.070545,-1.2789 -1.578406,-1.7022 -0.254251,-0.2117 -0.499498,-0.4019 -0.742779,-0.5261 C 33.04146,1016.1063 32.800089,1016.0438 32.541963,1016.0438 z m -9.563285,1.4545 c -0.847291,0 -1.774893,0.089 -2.754473,0.2786 l 0.0619,0.3714 c 0.956453,-0.1813 1.863287,-0.2786 2.692575,-0.2786 2.538645,0 4.483967,0.8088 5.78749,2.1046 1.14115,1.1334 1.778243,2.6256 1.918847,4.2091 -0.07203,-1.7141 -0.692803,-3.3628 -1.918847,-4.5805 C 27.462645,1018.3071 25.517323,1017.4983 22.978678,1017.4983 z m 9.40854,0.1238 c -0.0082,0.064 -0.03148,0.1039 -0.03095,0.1857 -0.0011,0.3912 0.09122,1.0121 0.309492,1.7951 l 0.09285,-0.031 C 32.497218,1018.7123 32.409799,1018.0697 32.387218,1017.6221 z m 10.244165,0.5262 -2.909219,1.5165 c 0.01496,0.1169 0.0179,0.2242 0.03095,0.3405 l 3.528201,-1.8261 L 42.631383,1018.1483 z m -17.393417,1.3308 -0.804678,0.3095 c -6.135952,2.2541 -9.89798,7.3157 -11.265487,11.9155 l -0.247593,0.8046 0.123796,-0.031 0.123797,-0.4023 c 1.367507,-4.5997 5.129535,-9.6613 11.265487,-11.9154 l 0.773729,-0.2785 L 25.237966,1019.4791 z m 14.638944,3.6211 c -0.352072,8.7467 -6.665465,15.062 -15.845961,15.7841 l 0.0619,0.3403 c 9.146403,-0.7457 15.432795,-7.0264 15.784062,-15.753 C 39.881838,1023.3496 39.874335,1023.2231 39.87691,1023.1002 z m -9.996573,1.5474 c -0.04815,2.8284 -1.819742,5.9105 -5.261354,7.6135 -2.860654,1.4159 -5.804536,1.9498 -8.572912,1.9498 -4.120606,0 -7.7948728,-1.1711 -9.9037255,-2.2903 -0.061912,0.077 -0.1240628,0.1716 -0.1856948,0.2476 2.0774236,1.1454 5.8554033,2.4141 10.0894203,2.4141 2.768376,0 5.712258,-0.5339 8.572912,-1.9498 3.491122,-1.7275 5.261983,-4.9076 5.261354,-7.7683 C 29.880305,1024.7889 29.882756,1024.7225 29.880337,1024.6476 z m -24.1093812,7.7682 c -0.051461,0.063 -0.1030568,0.1229 -0.1547457,0.1857 0.011324,0.01 0.019542,0.025 0.030949,0.031 L 5.7709558,1032.4158 z m -0.8356268,0.9904 c -0.069395,0.081 -0.1483136,0.1694 -0.216644,0.2476 3.8305545,2.3959 7.580282,3.9621 11.079793,4.8281 1.511105,0.3738 2.975805,0.6241 4.394778,0.7427 l 0.928474,5.1376 0.804678,-0.1547 -0.0619,-0.3405 -0.742779,0.1238 -0.928474,-5.1375 c -1.418973,-0.1187 -2.883673,-0.369 -4.394778,-0.7428 C 12.36342,1037.2604 8.6915728,1035.7285 4.935329,1033.4062 z m 16.093554,5.509 0.0619,0.3404 c 0.700713,0.033 1.400668,0.027 2.073592,0 l 0.928475,5.1066 0.835626,-0.1547 -0.0619,-0.3405 -0.773728,0.1238 -0.928475,-5.0756 C 22.471673,1038.9429 21.750808,1038.9508 21.028883,1038.9152 Z"
         style="fill:#ffffff;fill-opacity:0.39271258;fill-rule:nonzero;stroke:none" />
      <path
         inkscape:connector-curvature="0"
         id="path850"
         d="m 29.230405,1012.3635 c -10.10705,0.1416 -17.335368,12.1627 -23.2737543,19.4979 0.092742,0.051 0.2101355,0.1033 0.3094914,0.1548 5.8837849,-7.3618 13.0210059,-18.9873 22.9642629,-19.1266 2.75559,-0.039 5.729343,0.8116 8.944302,2.8783 l 3.806744,-0.2476 0.711831,-0.5881 -4.518575,0.3095 C 34.959748,1013.175 31.985995,1012.3247 29.230405,1012.3635 z m 3.24966,4.5804 -0.03095,0.031 c -0.03871,0.053 -0.09479,0.228 -0.09285,0.5261 -1.38e-4,0.048 0.02822,0.1316 0.03095,0.1857 0.0222,-0.09 0.04254,-0.1594 0.0619,-0.1857 l 0.03095,-0.031 0.0619,0 c 0.0613,0 0.203608,0.01 0.37139,0.093 0.511729,0.2567 1.299894,0.9863 2.042643,1.9808 l 0.649932,-0.4952 c -0.08792,-0.1171 -0.190446,-0.1991 -0.278542,-0.3095 l -0.37139,0.2785 c -0.742749,-0.9944 -1.530914,-1.724 -2.042643,-1.9807 -0.167782,-0.086 -0.310085,-0.093 -0.37139,-0.093 L 32.480065,1016.9439 z m 7.489692,0.7119 -0.618983,0.4952 3.002067,0.1856 0.928474,-0.4642 L 39.969757,1017.6558 z m -8.418166,0.1238 c -0.0076,0.083 -0.03074,0.1571 -0.03095,0.2476 0.0013,0.5859 0.15836,1.3409 0.464237,2.3521 l 0.773728,-0.2476 c -0.05859,-0.1927 -0.07868,-0.3237 -0.123796,-0.4952 l -0.649932,0.2167 C 31.722146,1018.9846 31.59036,1018.3265 31.551591,1017.7796 z m -11.327386,0.588 0.154746,0.8356 c 0.932473,-0.1799 1.811158,-0.2785 2.599727,-0.2785 2.365701,0 4.068231,0.736 5.199456,1.8569 1.048001,1.0414 1.594524,2.4545 1.671254,3.9615 0.0016,-0.062 0.03096,-0.124 0.03095,-0.1857 -6.9e-4,-1.6409 -0.572266,-3.1791 -1.702203,-4.3019 -1.131225,-1.1209 -2.833755,-1.857 -5.199456,-1.857 -0.788569,0 -1.667254,0.099 -2.599727,0.2786 l -0.0619,-0.3095 C 20.285946,1018.3734 20.255424,1018.3616 20.224205,1018.3676 z m 5.013761,1.7022 -0.0619,0.031 -0.154746,1.3309 c -5.431797,1.9954 -9.014835,6.6662 -10.244166,10.8012 l -1.671254,0.3095 -0.185694,0.5571 1.856948,-0.3405 c 1.229331,-4.135 4.812369,-8.8058 10.244166,-10.8012 L 25.237966,1020.0698 z m 14.515147,0.1238 -0.03095,0.031 c 0.07613,0.5954 0.127938,1.1864 0.154746,1.7641 C 39.865026,1021.3999 39.817243,1020.8012 39.753113,1020.1936 z m -9.037149,4.5495 c -0.07319,3.1443 -2.003781,6.4985 -5.694642,8.3253 -2.994879,1.4822 -6.10169,2.0427 -8.975251,2.0427 -4.289865,0 -8.0634915,-1.2255 -10.3060643,-2.4141 l -0.2475932,0.4024 c 2.2088912,1.2267 6.1158665,2.5378 10.5536575,2.5378 2.873561,0 5.980372,-0.5604 8.975251,-2.0426 3.762796,-1.8624 5.693952,-5.3142 5.694642,-8.511 C 30.716003,1024.9693 30.720941,1024.8568 30.715964,1024.7431 z m -24.9759573,7.9539 c -0.07733,-0.041 -0.1739634,-0.083 -0.2475932,-0.1237 l 0.2785423,-0.4643 c -0.345919,0.4232 -0.7147824,0.8516 -1.0522708,1.238 0.1029999,0.064 0.2066426,0.1224 0.3094914,0.1857 C 5.2608171,1033.2596 5.5059442,1032.9829 5.7400067,1032.697 z m 18.2909423,6.747 0.804678,4.4876 0.09285,-0.031 -0.804677,-4.4566 C 24.092376,1039.4466 24.062437,1039.4415 24.030949,1039.444 z m -3.002066,0.031 0.804677,4.4567 0.09285,-0.031 -0.804678,-4.4257 C 21.090855,1039.4735 21.059797,1039.4764 21.028883,1039.4749 Z"
         style="fill:#000000;fill-opacity:0.59109312;fill-rule:nonzero;stroke:none" />
    </g>
  </g>
</svg>
