<?xml version="1.0" encoding="UTF-8" standalone="no"?>
<!-- Created with Inkscape (http://www.inkscape.org/) -->

<svg
   xmlns:dc="http://purl.org/dc/elements/1.1/"
   xmlns:cc="http://creativecommons.org/ns#"
   xmlns:rdf="http://www.w3.org/1999/02/22-rdf-syntax-ns#"
   xmlns:svg="http://www.w3.org/2000/svg"
   xmlns="http://www.w3.org/2000/svg"
   xmlns:xlink="http://www.w3.org/1999/xlink"
   xmlns:sodipodi="http://sodipodi.sourceforge.net/DTD/sodipodi-0.dtd"
   xmlns:inkscape="http://www.inkscape.org/namespaces/inkscape"
   width="48"
   height="48"
   id="svg2"
   version="1.1"
   inkscape:version="0.48+devel r12064"
   sodipodi:docname="ubuntuone.svg">
  <defs
     id="defs4">
    <linearGradient
       id="linearGradient998"
       inkscape:collect="always">
      <stop
         id="stop1000"
         offset="0"
         style="stop-color:#c4cdd5;stop-opacity:1" />
      <stop
         id="stop1002"
         offset="1"
         style="stop-color:#dbe1e6;stop-opacity:1" />
    </linearGradient>
    <linearGradient
       inkscape:collect="always"
       xlink:href="#linearGradient3795-8"
       id="linearGradient983"
       x1="23.75"
       y1="1043.6122"
       x2="23.75"
       y2="1012.3622"
       gradientUnits="userSpaceOnUse"
       gradientTransform="matrix(0.91917194,0,0,0.91917194,1.9398685,83.17196)" />
    <linearGradient
       id="linearGradient3795-8">
      <stop
         style="stop-color:#dd4814;stop-opacity:1"
         offset="0"
         id="stop3797-1" />
      <stop
         style="stop-color:#ed632b;stop-opacity:1"
         offset="1"
         id="stop3799-7" />
    </linearGradient>
    <linearGradient
       inkscape:collect="always"
       xlink:href="#linearGradient998"
       id="linearGradient844"
       x1="26.492975"
       y1="1043.1232"
       x2="26.492975"
       y2="1011.215"
       gradientUnits="userSpaceOnUse"
       gradientTransform="matrix(0.48827894,0,0,0.48827894,11.892875,529.57211)" />
    <linearGradient
       inkscape:collect="always"
       xlink:href="#linearGradient998"
       id="linearGradient6327"
       x1="76.208755"
       y1="1050.9463"
       x2="76.208755"
       y2="1006.7269"
       gradientUnits="userSpaceOnUse"
       gradientTransform="translate(-52.022358,0)" />
  </defs>
  <sodipodi:namedview
     id="base"
     pagecolor="#ffffff"
     bordercolor="#666666"
     borderopacity="1.0"
     inkscape:pageopacity="0.0"
     inkscape:pageshadow="2"
     inkscape:zoom="4.5907549"
     inkscape:cx="0.30305223"
     inkscape:cy="18.452952"
     inkscape:document-units="px"
     inkscape:current-layer="layer1"
     showgrid="false"
     inkscape:window-width="1366"
     inkscape:window-height="718"
     inkscape:window-x="0"
     inkscape:window-y="28"
     inkscape:window-maximized="1" />
  <metadata
     id="metadata7">
    <rdf:RDF>
      <cc:Work
         rdf:about="">
        <dc:format>image/svg+xml</dc:format>
        <dc:type
           rdf:resource="http://purl.org/dc/dcmitype/StillImage" />
        <dc:title />
      </cc:Work>
    </rdf:RDF>
  </metadata>
  <g
     inkscape:label="Capa 1"
     inkscape:groupmode="layer"
     id="layer1"
     transform="translate(0,-1004.3622)">
    <rect
       style="color:#000000;fill:#333333;fill-opacity:1;fill-rule:nonzero;stroke:none;stroke-width:0.2;marker:none;visibility:visible;display:inline;overflow:visible;enable-background:accumulate"
       id="rect6294"
       width="45.5"
       height="45.5"
       x="1.25"
       y="1005.9777"
       ry="6.3565426" />
    <rect
       ry="5.8565426"
       y="1006.4777"
       x="1.75"
       height="44.5"
       width="44.5"
       id="rect6296"
       style="color:#000000;fill:url(#linearGradient6327);fill-opacity:1;fill-rule:nonzero;stroke:none;stroke-width:0.2;marker:none;visibility:visible;display:inline;overflow:visible;enable-background:accumulate" />
    <path
       style="fill:#ffffff;fill-opacity:0.29411765;stroke:none"
       d="m 7.59375,1006.4872 c -3.244525,0 -5.84375,2.5992 -5.84375,5.8438 l 0,19.9375 44.5,0 0,-19.9375 c 0,-3.2446 -2.630475,-5.8438 -5.875,-5.8438 L 7.59375,1006.4872 Z"
       id="path6329"
       inkscape:connector-curvature="0" />
    <path
       style="fill:#ffffff;fill-opacity:0.5372549;fill-rule:evenodd;stroke:none"
       d="m 42.900465,1033.5672 c -0.20921,5.0499 -4.34721,9.0482 -9.45023,9.0482 l -18.900477,0 c -5.0934085,0 -9.2266615,-3.983 -9.4502365,-9.0194 -0.0034,0.105 0,0.2101 0,0.3159 0,5.2377 4.21253,9.4503 9.4502365,9.4503 l 18.900477,0 c 5.2377,0 9.45023,-4.2126 9.45023,-9.4503 C 42.900465,1033.7969 42.904525,1033.6814 42.900465,1033.5672 Z"
       id="path961"
       inkscape:connector-curvature="0"
       sodipodi:nodetypes="csscssssc" />
    <path
       inkscape:connector-curvature="0"
       d="m 27.151442,1013.3658 c -3.549581,0 -6.590308,2.2322 -8.20679,5.4495 -0.910346,-0.7574 -2.07281,-1.2477 -3.348512,-1.2477 -2.899336,0 -5.252414,2.3531 -5.252414,5.2525 0,0.6512 0.111351,1.2628 0.32817,1.8384 -3.2974635,1.4728 -5.5805815,4.8091 -5.5805815,8.6665 0,5.2377 4.216635,9.4542 9.4543405,9.4542 l 18.90868,0 c 5.237701,0 9.454351,-4.2165 9.454351,-9.4542 0,-4.1494 -2.66614,-7.6497 -6.368031,-8.9291 0.009,-0.1787 0.0651,-0.3425 0.0651,-0.5253 C 36.605775,1018.0719 32.370245,1013.3658 27.151442,1013.3658 Z"
       style="fill:url(#linearGradient983);fill-opacity:1;fill-rule:evenodd;stroke:none"
       id="rect3193" />
    <path
       d="m 17.535109,1023.3816 0,5.1074 c 0,4.2467 0.149178,5.2632 0.31527,5.9591 0.624418,2.6149 2.304256,4.1143 5.01134,4.4761 1.465396,0.196 4.425048,-0.032 6.752658,-0.5172 l 0.850498,-0.1746 0,-14.851 -4.30992,-0.015 0,11.8525 -4.30992,0 0,-8.3505 -1.616225,0 L 22.383773,1023.3707 Z"
       inkscape:connector-curvature="0"
       id="path829"
       style="fill:url(#linearGradient844);fill-opacity:1" />
    <path
       inkscape:connector-curvature="0"
       style="fill:#000000;fill-opacity:0.23033711;fill-rule:evenodd;stroke:none"
       d="m 27.159648,1013.3622 c -3.549582,0 -6.598618,2.2403 -8.2151,5.4576 -0.910345,-0.7574 -2.085019,-1.2639 -3.360722,-1.2639 -2.899335,0 -5.227791,2.3572 -5.227791,5.2566 0,0.296 0.01197,0.5816 0.05745,0.8617 0.368065,-2.5402 2.528669,-4.5098 5.170341,-4.5098 1.275703,0 2.450377,0.5066 3.360722,1.2639 1.616482,-3.2172 4.665518,-5.4576 8.215099,-5.4576 4.892628,0 8.908368,4.1266 9.392788,9.4216 0.009,-0.1786 0.0575,-0.3344 0.0575,-0.5171 C 36.609905,1018.0765 32.378435,1013.3622 27.159648,1013.3622 z m 9.392787,11.0301 c 0.0323,0.353 0.0575,0.7291 0.0575,1.0915 0,0.1827 -0.0491,0.3384 -0.0575,0.517 3.47052,1.1995 6.01284,4.3494 6.31931,8.1577 0.0235,-0.273 0.0287,-0.5538 0.0287,-0.833 C 42.900465,1029.176 40.254335,1025.6718 36.552435,1024.3923 z m -26.167675,0.4021 c -3.1411905,1.5348 -5.2852385,4.7873 -5.2852385,8.5311 0,0.2984 0.002,0.5991 0.02872,0.8903 0.262906,-3.5501 2.452383,-6.5757 5.5437555,-7.9564 C 10.497932,1025.7972 10.419828,1025.3048 10.38476,1024.7944 Z"
       id="path993" />
    <path
       style="fill:#ffffff;fill-opacity:0.29411765;stroke:none"
       d="M 22.375 19 L 17.53125 19.03125 L 17.53125 24.125 C 17.53125 25.91385 17.550696 27.046245 17.59375 27.90625 L 21.84375 27.90625 L 21.84375 22.5 L 20.21875 22.5 L 22.375 19 z M 26.15625 19 L 26.15625 27.90625 L 30.46875 27.90625 L 30.46875 19.03125 L 26.15625 19 z "
       transform="translate(0,1004.3622)"
       id="path6348" />
    <path
       style="color:#000000;fill:#000000;fill-opacity:1;fill-rule:nonzero;stroke:none;stroke-width:0.2;marker:none;visibility:visible;display:inline;overflow:visible;enable-background:accumulate"
       d="M 1.75 40.1875 L 1.75 40.75 C 1.75 43.994525 4.3492254 46.625 7.59375 46.625 L 40.40625 46.625 C 43.650775 46.625 46.25 43.994525 46.25 40.75 L 46.25 40.1875 C 46.25 43.432 43.650775 46.0625 40.40625 46.0625 L 7.59375 46.0625 C 4.3492254 46.0625 1.75 43.432 1.75 40.1875 z "
       id="rect6353"
       transform="translate(0,1004.3622)" />
    <path
       id="path6361"
       d="m 1.75,1012.9152 0,-0.5625 c 0,-3.2445 2.5992254,-5.875 5.84375,-5.875 l 32.8125,0 c 3.244525,0 5.84375,2.6305 5.84375,5.875 l 0,0.5625 c 0,-3.2445 -2.599225,-5.875 -5.84375,-5.875 l -32.8125,0 C 4.3492254,1007.0402 1.75,1009.6707 1.75,1012.9152 Z"
       style="color:#000000;fill:#ffffff;fill-opacity:1;fill-rule:nonzero;stroke:none;stroke-width:0.2;marker:none;visibility:visible;display:inline;overflow:visible;enable-background:accumulate"
       inkscape:connector-curvature="0" />
  </g>
</svg>
