<?xml version="1.0" encoding="UTF-8" standalone="no"?>
<!-- Created with Inkscape (http://www.inkscape.org/) -->

<svg
   xmlns:dc="http://purl.org/dc/elements/1.1/"
   xmlns:cc="http://creativecommons.org/ns#"
   xmlns:rdf="http://www.w3.org/1999/02/22-rdf-syntax-ns#"
   xmlns:svg="http://www.w3.org/2000/svg"
   xmlns="http://www.w3.org/2000/svg"
   xmlns:xlink="http://www.w3.org/1999/xlink"
   xmlns:sodipodi="http://sodipodi.sourceforge.net/DTD/sodipodi-0.dtd"
   xmlns:inkscape="http://www.inkscape.org/namespaces/inkscape"
   width="48"
   height="48"
   id="svg2"
   version="1.1"
   inkscape:version="0.48+devel r12149"
   sodipodi:docname="unetbootin.svg">
  <defs
     id="defs4">
    <linearGradient
       inkscape:collect="always"
       xlink:href="#linearGradient841"
       id="linearGradient847"
       x1="25.499998"
       y1="-1052.6122"
       x2="25.499998"
       y2="-1004.3726"
       gradientUnits="userSpaceOnUse" />
    <linearGradient
       inkscape:collect="always"
       id="linearGradient841">
      <stop
         style="stop-color:#bfbfbf;stop-opacity:1"
         offset="0"
         id="stop843" />
      <stop
         style="stop-color:#d9d9d9;stop-opacity:1"
         offset="1"
         id="stop845" />
    </linearGradient>
    <linearGradient
       inkscape:collect="always"
       xlink:href="#linearGradient853"
       id="linearGradient851"
       gradientUnits="userSpaceOnUse"
       x1="25.499998"
       y1="-1052.6122"
       x2="25.499998"
       y2="-1004.3726"
       gradientTransform="matrix(0.87499999,0,0,0.78335421,-57.76955,-218.56656)" />
    <linearGradient
       id="linearGradient853"
       inkscape:collect="always">
      <stop
         id="stop855"
         offset="0"
         style="stop-color:#333335;stop-opacity:1" />
      <stop
         id="stop857"
         offset="1"
         style="stop-color:#303030;stop-opacity:1" />
    </linearGradient>
    <linearGradient
       inkscape:collect="always"
       xlink:href="#linearGradient864"
       id="linearGradient870"
       x1="2.9168153"
       y1="26.477438"
       x2="4.2426405"
       y2="26.477438"
       gradientUnits="userSpaceOnUse"
       gradientTransform="matrix(1.0197136,0,0,1.1750313,-61.242677,1001.0715)" />
    <linearGradient
       inkscape:collect="always"
       id="linearGradient864">
      <stop
         style="stop-color:#000000;stop-opacity:1;"
         offset="0"
         id="stop866" />
      <stop
         style="stop-color:#000000;stop-opacity:0;"
         offset="1"
         id="stop868" />
    </linearGradient>
    <linearGradient
       inkscape:collect="always"
       xlink:href="#linearGradient864"
       id="linearGradient885"
       gradientUnits="userSpaceOnUse"
       gradientTransform="matrix(0,-1.1750313,1.0197136,0,-56.78143,1046.9341)"
       x1="2.9168153"
       y1="26.477438"
       x2="4.2426405"
       y2="26.477438" />
    <linearGradient
       inkscape:collect="always"
       xlink:href="#linearGradient864"
       id="linearGradient905"
       gradientUnits="userSpaceOnUse"
       gradientTransform="matrix(-1.0197136,0,0,1.1750313,-12.296501,1001.0715)"
       x1="2.9168153"
       y1="26.477438"
       x2="4.2426405"
       y2="26.477438" />
    <linearGradient
       inkscape:collect="always"
       xlink:href="#linearGradient864"
       id="linearGradient909"
       gradientUnits="userSpaceOnUse"
       gradientTransform="matrix(0,1.1750313,1.0197136,0,-56.78143,1001.3506)"
       x1="2.9168153"
       y1="26.477438"
       x2="4.2426405"
       y2="26.477438" />
    <linearGradient
       inkscape:collect="always"
       xlink:href="#linearGradient915"
       id="linearGradient913"
       x1="10.5"
       y1="4.0000019"
       x2="10.5"
       y2="38.75"
       gradientUnits="userSpaceOnUse"
       gradientTransform="matrix(1,0,0,0.73678092,-60.95705,1005.2554)" />
    <linearGradient
       id="linearGradient915"
       inkscape:collect="always">
      <stop
         id="stop917"
         offset="0"
         style="stop-color:#fbf44e;stop-opacity:1" />
      <stop
         id="stop919"
         offset="1"
         style="stop-color:#fefdab;stop-opacity:1" />
    </linearGradient>
    <linearGradient
       inkscape:collect="always"
       xlink:href="#linearGradient915"
       id="linearGradient943"
       gradientUnits="userSpaceOnUse"
       gradientTransform="matrix(1,0,0,0.73678092,-34.95705,1005.2554)"
       x1="10.5"
       y1="4.0000019"
       x2="10.5"
       y2="38.75" />
    <linearGradient
       inkscape:collect="always"
       xlink:href="#linearGradient915"
       id="linearGradient953"
       gradientUnits="userSpaceOnUse"
       gradientTransform="matrix(1,0,0,0.44465424,-50.95705,1016.5388)"
       x1="10.5"
       y1="4.0000019"
       x2="10.5"
       y2="38.75" />
    <linearGradient
       inkscape:collect="always"
       xlink:href="#linearGradient915"
       id="linearGradient963"
       gradientUnits="userSpaceOnUse"
       gradientTransform="matrix(1,0,0,0.44465424,-42.95705,1016.5388)"
       x1="10.5"
       y1="4.0000019"
       x2="10.5"
       y2="38.75" />
    <linearGradient
       inkscape:collect="always"
       xlink:href="#linearGradient915"
       id="linearGradient1084"
       gradientUnits="userSpaceOnUse"
       gradientTransform="matrix(1,0,0,0.08471904,9.8124999,1039.6753)"
       x1="10.5"
       y1="4.0000019"
       x2="10.5"
       y2="38.75" />
    <linearGradient
       inkscape:collect="always"
       xlink:href="#linearGradient915"
       id="linearGradient1092"
       gradientUnits="userSpaceOnUse"
       gradientTransform="matrix(1,0,0,0.08471904,18.032616,1039.6753)"
       x1="10.5"
       y1="4.0000019"
       x2="10.5"
       y2="38.75" />
    <linearGradient
       inkscape:collect="always"
       xlink:href="#linearGradient841"
       id="linearGradient1050"
       x1="29.374998"
       y1="1050.6161"
       x2="29.374998"
       y2="1006.1044"
       gradientUnits="userSpaceOnUse" />
  </defs>
  <sodipodi:namedview
     id="base"
     pagecolor="#ffffff"
     bordercolor="#666666"
     borderopacity="1.0"
     inkscape:pageopacity="0.0"
     inkscape:pageshadow="2"
     inkscape:zoom="4"
     inkscape:cx="-26.46699"
     inkscape:cy="37.833069"
     inkscape:document-units="px"
     inkscape:current-layer="layer1"
     showgrid="false"
     inkscape:window-width="1366"
     inkscape:window-height="716"
     inkscape:window-x="0"
     inkscape:window-y="28"
     inkscape:window-maximized="1"
     showguides="true"
     inkscape:guide-bbox="true" />
  <metadata
     id="metadata7">
    <rdf:RDF>
      <cc:Work
         rdf:about="">
        <dc:format>image/svg+xml</dc:format>
        <dc:type
           rdf:resource="http://purl.org/dc/dcmitype/StillImage" />
        <dc:title />
      </cc:Work>
    </rdf:RDF>
  </metadata>
  <g
     inkscape:label="Capa 1"
     inkscape:groupmode="layer"
     id="layer1"
     transform="translate(0,-1004.3622)">
    <rect
       style="color:#000000;fill:#333333;fill-opacity:1;fill-rule:nonzero;stroke:none;stroke-width:0.2;marker:none;visibility:visible;display:inline;overflow:visible;enable-background:accumulate"
       id="rect6294"
       width="45.5"
       height="45.5"
       x="1.25"
       y="1005.6122"
       ry="6.3565426" />
    <rect
       ry="5.8565426"
       y="1006.1122"
       x="1.7500001"
       height="44.5"
       width="44.5"
       id="rect6296"
       style="color:#000000;fill:url(#linearGradient1050);fill-opacity:1;fill-rule:nonzero;stroke:none;stroke-width:0.2;marker:none;visibility:visible;display:inline;overflow:visible;enable-background:accumulate" />
    <path
       id="path6361"
       d="m 1.7499999,1012.5497 0,-0.5625 c 0,-3.2445 2.599225,-5.875 5.84375,-5.875 l 32.8125001,0 c 3.244525,0 5.84375,2.6305 5.84375,5.875 l 0,0.5625 c 0,-3.2445 -2.599225,-5.875 -5.84375,-5.875 l -32.8125001,0 C 4.3492249,1006.6747 1.7499999,1009.3052 1.7499999,1012.5497 Z"
       style="color:#000000;fill:#ffffff;fill-opacity:1;fill-rule:nonzero;stroke:none;stroke-width:0.2;marker:none;visibility:visible;display:inline;overflow:visible;enable-background:accumulate"
       inkscape:connector-curvature="0" />
    <g
       id="g1052"
       transform="matrix(0.90476023,0,0,0.90476023,57.267662,98.799689)">
      <rect
         style="fill:url(#linearGradient851);fill-opacity:1;stroke:none"
         id="rect849"
         width="42"
         height="37.601002"
         x="-57.76955"
         y="-1042.9388"
         ry="1.5232667"
         transform="scale(1,-1)" />
      <path
         id="rect859"
         d="m -56.2383,1005.3224 c -0.632917,0 -1.175618,0.3904 -1.40625,0.9375 -0.02742,0.072 -0.04458,0.1415 -0.0625,0.2188 -0.0057,0.023 -0.02653,0.039 -0.03125,0.062 -0.002,0.01 0.0018,0.021 0,0.031 -0.0165,0.09 -0.03125,0.1862 -0.03125,0.2813 -1.75e-4,0.01 0,0.021 0,0.031 l 0,34.5313 c 0,0.1055 0.01412,0.2136 0.03125,0.3125 0.141574,0.6953 0.761596,1.2187 1.5,1.2187 l 0.78125,0 c -0.732343,0 -1.3125,-0.6873 -1.3125,-1.5312 l 0,-34.5313 c 0,-0.8438 0.580157,-1.5625 1.3125,-1.5625 L -56.2383,1005.3224 Z"
         style="fill:url(#linearGradient870);fill-opacity:1;stroke:none"
         inkscape:connector-curvature="0" />
      <path
         id="path883"
         d="m -15.8008,1041.7599 c -0.07592,0.016 -0.13848,0.031 -0.21875,0.031 l -41.6875,0 c 0.0189,0.075 0.03303,0.1488 0.0625,0.2187 0.192193,0.4559 0.597052,0.8051 1.09375,0.9063 0.09934,0.02 0.207014,0.031 0.3125,0.031 l 38.9375,0 c 0.105486,0 0.21316,-0.011 0.3125,-0.031 0.496698,-0.1012 0.901557,-0.4504 1.09375,-0.9063 C -15.859955,1041.9279 -15.820723,1041.8487 -15.8008,1041.7599 Z"
         style="fill:url(#linearGradient885);fill-opacity:1;stroke:none"
         inkscape:connector-curvature="0" />
      <path
         inkscape:connector-curvature="0"
         style="fill:url(#linearGradient905);fill-opacity:1;stroke:none"
         d="m -17.300878,1005.3224 c 0.632917,0 1.175618,0.3904 1.40625,0.9375 0.02742,0.072 0.04458,0.1415 0.0625,0.2188 0.0057,0.023 0.02653,0.039 0.03125,0.062 0.002,0.01 -0.0018,0.021 0,0.031 0.0165,0.09 0.03125,0.1862 0.03125,0.2813 1.75e-4,0.01 0,0.021 0,0.031 l 0,34.5313 c 0,0.1054 -0.01412,0.2136 -0.03125,0.3125 -0.141574,0.6953 -0.761596,1.2187 -1.5,1.2187 l -0.78125,0 c 0.732343,0 1.3125,-0.6873 1.3125,-1.5312 l 0,-34.5313 c 0,-0.8438 -0.580157,-1.5625 -1.3125,-1.5625 L -17.300878,1005.3224 Z"
         id="path903" />
      <path
         inkscape:connector-curvature="0"
         style="fill:url(#linearGradient909);fill-opacity:1;stroke:none"
         d="m -15.8008,1006.5248 c -0.07592,-0.016 -0.13848,-0.031 -0.21875,-0.031 l -41.6875,0 c 0.0189,-0.075 0.03303,-0.1489 0.0625,-0.2188 0.192193,-0.4559 0.597052,-0.8051 1.09375,-0.9062 0.09934,-0.02 0.207014,-0.031 0.3125,-0.031 l 38.9375,0 c 0.105486,0 0.21316,0.011 0.3125,0.031 0.496698,0.1011 0.901557,0.4503 1.09375,0.9062 C -15.859955,1006.3569 -15.820723,1006.436 -15.8008,1006.5248 Z"
         id="path907" />
      <rect
         ry="0"
         y="1008.2026"
         x="-51.58205"
         height="25.51104"
         width="3.6249998"
         id="rect911"
         style="fill:url(#linearGradient913);fill-opacity:1;stroke:none" />
      <rect
         style="fill:#000000;fill-opacity:0.48178136;stroke:none"
         id="rect921"
         width="0.70818442"
         height="25.51104"
         x="-47.95705"
         y="1008.2026"
         ry="0" />
      <rect
         ry="0"
         y="1008.2026"
         x="-52.290234"
         height="25.51104"
         width="0.70818442"
         id="rect925"
         style="fill:#000000;fill-opacity:0.48178136;stroke:none" />
      <path
         id="path1056"
         d="m -51.58205,1008.1991 0,0.7187 3.625,0 0,-0.7187 L -51.58205,1008.1991 Z"
         style="fill:#000000;fill-opacity:0.48178136;stroke:none"
         inkscape:connector-curvature="0" />
      <path
         inkscape:connector-curvature="0"
         id="rect927"
         d="m -51.58205,1032.9947 0,0.7188 3.625,0 0,-0.7188 L -51.58205,1032.9947 Z"
         style="fill:#000000;fill-opacity:0.48178136;stroke:none" />
      <rect
         style="fill:url(#linearGradient943);fill-opacity:1;stroke:none"
         id="rect935"
         width="3.6249998"
         height="25.51104"
         x="-25.58205"
         y="1008.2026"
         ry="0" />
      <rect
         ry="0"
         y="1008.2026"
         x="-21.95705"
         height="25.51104"
         width="0.70818442"
         id="rect937"
         style="fill:#000000;fill-opacity:0.48178136;stroke:none" />
      <rect
         style="fill:#000000;fill-opacity:0.48178136;stroke:none"
         id="rect939"
         width="0.70818442"
         height="25.51104"
         x="-26.290234"
         y="1008.2026"
         ry="0" />
      <path
         id="path1068"
         d="m -25.58205,1008.1991 0,0.7188 3.625,0 0,-0.7188 L -25.58205,1008.1991 Z"
         style="fill:#000000;fill-opacity:0.48178136;stroke:none"
         inkscape:connector-curvature="0" />
      <path
         inkscape:connector-curvature="0"
         id="path941"
         d="m -25.58205,1032.9948 0,0.7187 3.625,0 0,-0.7187 L -25.58205,1032.9948 Z"
         style="fill:#000000;fill-opacity:0.48178136;stroke:none" />
      <rect
         ry="0"
         y="1018.3174"
         x="-41.58205"
         height="15.396153"
         width="3.6249998"
         id="rect945"
         style="fill:url(#linearGradient953);fill-opacity:1;stroke:none" />
      <rect
         style="fill:#000000;fill-opacity:0.48178136;stroke:none"
         id="rect947"
         width="0.70818442"
         height="15.396153"
         x="-37.95705"
         y="1018.3174"
         ry="0" />
      <rect
         ry="0"
         y="1018.3174"
         x="-42.290234"
         height="15.396153"
         width="0.70818442"
         id="rect949"
         style="fill:#000000;fill-opacity:0.48178136;stroke:none" />
      <rect
         style="fill:url(#linearGradient963);fill-opacity:1;stroke:none"
         id="rect955"
         width="3.6249998"
         height="15.396153"
         x="-33.58205"
         y="1018.3174"
         ry="0" />
      <rect
         ry="0"
         y="1018.3174"
         x="-29.95705"
         height="15.396153"
         width="0.70818442"
         id="rect957"
         style="fill:#000000;fill-opacity:0.48178136;stroke:none" />
      <rect
         style="fill:#000000;fill-opacity:0.48178136;stroke:none"
         id="rect959"
         width="0.70818442"
         height="15.396153"
         x="-34.290234"
         y="1018.3174"
         ry="0" />
      <path
         style="fill:#000000;fill-opacity:0.48178136;stroke:none"
         d="m -33.58205,1032.9948 0,0.7187 3.625,0 0,-0.7187 L -33.58205,1032.9948 Z"
         id="path1070"
         inkscape:connector-curvature="0" />
      <path
         inkscape:connector-curvature="0"
         id="path1072"
         d="m -41.58205,1032.9948 0,0.7187 3.625,0 0,-0.7187 L -41.58205,1032.9948 Z"
         style="fill:#000000;fill-opacity:0.48178136;stroke:none" />
      <path
         inkscape:connector-curvature="0"
         id="path1074"
         d="m -33.58205,1018.3174 0,0.7187 3.625,0 0,-0.7187 L -33.58205,1018.3174 Z"
         style="fill:#000000;fill-opacity:0.48178136;stroke:none" />
      <path
         style="fill:#000000;fill-opacity:0.48178136;stroke:none"
         d="m -41.58205,1018.3174 0,0.7187 3.625,0 0,-0.7187 L -41.58205,1018.3174 Z"
         id="path1076"
         inkscape:connector-curvature="0" />
      <g
         transform="translate(-60.76955,-1.1022802)"
         id="g1099">
        <rect
           ry="0"
           y="1040.0142"
           x="19.1875"
           height="2.9333971"
           width="3.6249998"
           id="rect1078"
           style="fill:url(#linearGradient1084);fill-opacity:1;stroke:none" />
        <rect
           style="fill:#000000;fill-opacity:0.48178136;stroke:none"
           id="rect1080"
           width="0.70818442"
           height="2.9333971"
           x="22.8125"
           y="1040.0142"
           ry="0" />
        <rect
           ry="0"
           y="1040.0142"
           x="18.479317"
           height="2.9333971"
           width="0.70818442"
           id="rect1082"
           style="fill:#000000;fill-opacity:0.48178136;stroke:none" />
      </g>
      <g
         transform="translate(-60.989666,-1.1022802)"
         id="g1094">
        <rect
           style="fill:url(#linearGradient1092);fill-opacity:1;stroke:none"
           id="rect1086"
           width="3.6249998"
           height="2.9333971"
           x="27.407616"
           y="1040.0142"
           ry="0" />
        <rect
           ry="0"
           y="1040.0142"
           x="31.032616"
           height="2.9333971"
           width="0.70818442"
           id="rect1088"
           style="fill:#000000;fill-opacity:0.48178136;stroke:none" />
        <rect
           style="fill:#000000;fill-opacity:0.48178136;stroke:none"
           id="rect1090"
           width="0.70818442"
           height="2.9333971"
           x="26.699432"
           y="1040.0142"
           ry="0" />
      </g>
      <path
         inkscape:connector-curvature="0"
         id="path1104"
         d="m -33.58205,1038.9119 0,0.7187 3.625,0 0,-0.7187 L -33.58205,1038.9119 Z"
         style="fill:#000000;fill-opacity:0.48178136;stroke:none" />
      <path
         style="fill:#000000;fill-opacity:0.48178136;stroke:none"
         d="m -41.58205,1038.9119 0,0.7187 3.625,0 0,-0.7187 L -41.58205,1038.9119 Z"
         id="path1106"
         inkscape:connector-curvature="0" />
      <path
         style="fill:#000000;fill-opacity:0.48178136;stroke:none"
         d="m -33.58205,1041.1266 0,0.7187 3.625,0 0,-0.7187 L -33.58205,1041.1266 Z"
         id="path1108"
         inkscape:connector-curvature="0" />
      <path
         inkscape:connector-curvature="0"
         id="path1110"
         d="m -41.58205,1041.1266 0,0.7187 3.625,0 0,-0.7187 L -41.58205,1041.1266 Z"
         style="fill:#000000;fill-opacity:0.48178136;stroke:none" />
    </g>
    <g
       id="g1148"
       transform="translate(0.00824431,-1.2702489)">
      <path
         style="color:#000000;fill:#000000;fill-opacity:0.54494413;fill-rule:nonzero;stroke:none;stroke-width:0.40000001;marker:none;visibility:visible;display:inline;overflow:visible;enable-background:accumulate"
         d="m 26.194665,1044.6103 c -0.154189,-0.1542 -0.398237,-0.1542 -0.552427,0 l -1.298204,1.2982 -3.585252,0.9115 1.33135,1.3424 -0.60767,0.6077 c -0.15419,0.1542 -0.159714,0.4038 -0.0055,0.5579 l 0.0442,0.044 -0.76235,0.7626 0.845214,0.8452 0.762349,-0.7623 0.03867,0.038 c 0.15419,0.1542 0.409287,0.1542 0.563476,0 l 0.60767,-0.6077 1.342398,1.3314 0.911505,-3.5853 1.298204,-1.2982 c 0.154189,-0.1542 0.148665,-0.4038 -0.0055,-0.558 L 26.194665,1044.6103 z m -4.988417,5.3641 0.171252,0.1712 -0.154679,0.1547 -0.171253,-0.1712 L 21.206248,1049.9744 z m 0.381175,0.3812 0.171252,0.1712 -0.154679,0.1547 -0.171253,-0.1713 L 21.587423,1050.3556 Z"
         id="path1728"
         inkscape:connector-curvature="0" />
      <path
         inkscape:connector-curvature="0"
         id="path1138"
         transform="translate(0,1004.3622)"
         d="m 25.90625,40.125 c -0.09956,0 -0.172905,0.0479 -0.25,0.125 l -1.3125,1.28125 -3.59375,0.9375 0.25,0.25 3.34375,-0.875 1.3125,-1.28125 c 0.15419,-0.1542 0.377061,-0.1542 0.53125,0 L 27.125,41.5 c 0.03237,0.03238 0.07459,0.05472 0.09375,0.09375 0.05627,-0.142481 0.02187,-0.2906 -0.09375,-0.40625 L 26.1875,40.25 C 26.110405,40.1729 26.005809,40.125 25.90625,40.125 z m -3.96875,3.84375 -0.46875,0.4375 c -0.115642,0.11565 -0.118778,0.295061 -0.0625,0.4375 0.01979,-0.04749 0.02395,-0.08645 0.0625,-0.125 L 22.09375,44.125 21.9375,43.96875 z m -0.53125,1.1875 -0.65625,0.625 0.15625,0.15625 0.15625,-0.15625 0.15625,-0.15625 0.3125,-0.3125 -0.0625,-0.03125 C 21.430197,45.242725 21.425009,45.20373 21.40625,45.15625 Z M 21.1875,45.9375 21.0625,46.0625 21.21875,46.25 21.375,46.09375 21.21875,45.9375 21.1875,45.9375 z m 0.40625,0.375 L 21.4375,46.46875 21.59375,46.625 21.75,46.46875 21.59375,46.3125 Z"
         style="opacity:0.6;color:#000000;fill:#000000;fill-opacity:0.54494413;fill-rule:nonzero;stroke:none;stroke-width:0.40000001;marker:none;visibility:visible;display:inline;overflow:visible;enable-background:accumulate" />
      <path
         inkscape:connector-curvature="0"
         id="path1143"
         d="m 27.207031,1046.0036 c -0.0184,0.039 -0.06137,0.061 -0.09375,0.094 l -1.28125,1.2813 -0.9375,3.5937 -1.34375,-1.3125 -0.59375,0.5938 c -0.154189,0.1542 -0.40831,0.1542 -0.5625,0 l -0.03125,-0.031 -0.625,0.625 -0.15625,0.125 -0.15625,-0.1562 -0.1875,-0.1875 -0.1875,-0.1563 0,-0.031 -0.125,-0.125 -0.1875,0.1562 0.84375,0.8438 0.78125,-0.7813 0.03125,0.062 c 0.15419,0.1542 0.408311,0.1542 0.5625,0 l 0.59375,-0.625 1.34375,1.3438 0.9375,-3.5938 1.28125,-1.3125 C 27.228923,1046.2942 27.266395,1046.146 27.207031,1046.0036 z m -6.1875,1.0937 -0.28125,0.062 1.15625,1.1563 0.1875,-0.1563 L 21.019531,1047.0973 z m 0.375,2.125 c -0.03578,0.086 -0.0271,0.1936 0,0.2813 l 0.125,-0.125 -0.0625,-0.062 C 21.426188,1049.2852 21.412683,1049.2592 21.394531,1049.2223 z m -0.15625,0.7813 -0.1875,0.125 0.15625,0.1562 0.15625,-0.1562 L 21.238281,1050.0036 z m 0.34375,0.3437 -0.15625,0.1563 0.15625,0.1875 0.15625,-0.1563 L 21.582031,1050.3473 Z"
         style="color:#000000;fill:#ffffff;fill-opacity:0.23886641;fill-rule:nonzero;stroke:none;stroke-width:0.40000001;marker:none;visibility:visible;display:inline;overflow:visible;enable-background:accumulate" />
    </g>
    <path
       inkscape:connector-curvature="0"
       style="color:#000000;fill:#000000;fill-opacity:1;fill-rule:nonzero;stroke:none;stroke-width:0.2;marker:none;visibility:visible;display:inline;overflow:visible;enable-background:accumulate"
       d="m 1.7499999,1044.1747 0,0.5625 c 0,3.2445 2.599225,5.875 5.84375,5.875 l 32.8125001,0 c 3.244525,0 5.84375,-2.6305 5.84375,-5.875 l 0,-0.5625 c 0,3.2445 -2.599225,5.875 -5.84375,5.875 l -32.8125001,0 C 4.3492249,1050.0497 1.7499999,1047.4192 1.7499999,1044.1747 Z"
       id="path6388" />
  </g>
</svg>
