<?xml version="1.0" encoding="UTF-8" standalone="no"?>
<!-- Created with Inkscape (http://www.inkscape.org/) -->

<svg
   xmlns:dc="http://purl.org/dc/elements/1.1/"
   xmlns:cc="http://creativecommons.org/ns#"
   xmlns:rdf="http://www.w3.org/1999/02/22-rdf-syntax-ns#"
   xmlns:svg="http://www.w3.org/2000/svg"
   xmlns="http://www.w3.org/2000/svg"
   xmlns:xlink="http://www.w3.org/1999/xlink"
   xmlns:sodipodi="http://sodipodi.sourceforge.net/DTD/sodipodi-0.dtd"
   xmlns:inkscape="http://www.inkscape.org/namespaces/inkscape"
   width="48"
   height="48"
   id="svg2"
   version="1.1"
   inkscape:version="0.48+devel r12149"
   sodipodi:docname="usb-creator-gtk.svg">
  <defs
     id="defs4">
    <linearGradient
       gradientTransform="matrix(0.92708313,0,0,-0.92708313,1.749998,74.985015)"
       y2="-1004.3513"
       x2="25.455843"
       y1="-1052.3827"
       x1="25.455843"
       gradientUnits="userSpaceOnUse"
       id="linearGradient4245"
       xlink:href="#linearGradient3225"
       inkscape:collect="always" />
    <linearGradient
       inkscape:collect="always"
       id="linearGradient3225">
      <stop
         style="stop-color:#dbdedd;stop-opacity:1"
         offset="0"
         id="stop3227" />
      <stop
         style="stop-color:#e0e2e1;stop-opacity:1"
         offset="1"
         id="stop3229" />
    </linearGradient>
    <linearGradient
       inkscape:collect="always"
       xlink:href="#linearGradient3244"
       id="linearGradient3241"
       gradientUnits="userSpaceOnUse"
       x1="25.455843"
       y1="-1033.114"
       x2="25.455843"
       y2="-1004.3513"
       gradientTransform="matrix(0.92708313,0,0,-0.92708313,1.749998,74.985015)" />
    <linearGradient
       id="linearGradient3244"
       inkscape:collect="always">
      <stop
         id="stop3246"
         offset="0"
         style="stop-color:#7d7b85;stop-opacity:1" />
      <stop
         id="stop3248"
         offset="1"
         style="stop-color:#9fa1aa;stop-opacity:1" />
    </linearGradient>
    <linearGradient
       gradientTransform="matrix(0.92708313,0,0,0.92708313,1.749998,1006.1122)"
       inkscape:collect="always"
       xlink:href="#linearGradient3282"
       id="linearGradient3288"
       x1="24.125"
       y1="7.5"
       x2="24.125"
       y2="11.25"
       gradientUnits="userSpaceOnUse" />
    <linearGradient
       inkscape:collect="always"
       id="linearGradient3282">
      <stop
         style="stop-color:#000000;stop-opacity:1;"
         offset="0"
         id="stop3284" />
      <stop
         style="stop-color:#000000;stop-opacity:0;"
         offset="1"
         id="stop3286" />
    </linearGradient>
    <linearGradient
       inkscape:collect="always"
       xlink:href="#linearGradient3282"
       id="linearGradient3292"
       gradientUnits="userSpaceOnUse"
       x1="24.125"
       y1="7.5"
       x2="24.125"
       y2="11.25"
       gradientTransform="matrix(0.92708313,0,0,-0.92708313,1.749998,1032.7438)" />
  </defs>
  <sodipodi:namedview
     id="base"
     pagecolor="#ffffff"
     bordercolor="#666666"
     borderopacity="1.0"
     inkscape:pageopacity="0.0"
     inkscape:pageshadow="2"
     inkscape:zoom="4.0000001"
     inkscape:cx="16.327"
     inkscape:cy="30.299346"
     inkscape:document-units="px"
     inkscape:current-layer="layer1"
     showgrid="false"
     inkscape:window-width="1366"
     inkscape:window-height="716"
     inkscape:window-x="0"
     inkscape:window-y="28"
     inkscape:window-maximized="1" />
  <metadata
     id="metadata7">
    <rdf:RDF>
      <cc:Work
         rdf:about="">
        <dc:format>image/svg+xml</dc:format>
        <dc:type
           rdf:resource="http://purl.org/dc/dcmitype/StillImage" />
        <dc:title />
      </cc:Work>
    </rdf:RDF>
  </metadata>
  <g
     inkscape:label="Capa 1"
     inkscape:groupmode="layer"
     id="layer1"
     transform="translate(0,-1004.3622)">
    <rect
       style="color:#000000;fill:#333333;fill-opacity:1;fill-rule:nonzero;stroke:none;stroke-width:0.2;marker:none;visibility:visible;display:inline;overflow:visible;enable-background:accumulate"
       id="rect6294"
       width="45.5"
       height="45.5"
       x="1.25"
       y="1005.6122"
       ry="6.3565426" />
    <path
       inkscape:connector-curvature="0"
       style="fill:url(#linearGradient4245);fill-opacity:1;stroke:none"
       d="m 7.593737,1006.105 c -3.244524,0 -5.843749,2.6304 -5.843749,5.875 l 0,32.7812 c 0,3.2445 2.599225,5.8438 5.843749,5.8438 l 32.8125,0 c 3.244525,0 5.84375,-2.5993 5.84375,-5.8438 l 0,-32.7812 c 0,-3.2446 -2.599225,-5.875 -5.84375,-5.875 L 7.593737,1006.105 Z"
       id="rect2991-1-7" />
    <path
       inkscape:connector-curvature="0"
       style="fill:url(#linearGradient3241);fill-opacity:1;stroke:none"
       d="m 7.593737,1006.105 c -3.244524,0 -5.843749,2.6304 -5.843749,5.875 l 0,20.75 44.499999,0 0,-20.75 c 0,-3.2446 -2.599225,-5.875 -5.84375,-5.875 L 7.593737,1006.105 Z"
       id="rect3237" />
    <path
       inkscape:connector-curvature="0"
       style="fill:#ffffff;fill-opacity:1"
       d="m 1.749998,1032.7369 0,0.4056 44.499979,0 0,-0.4056 L 1.749998,1032.7369 Z"
       id="rect3257" />
    <rect
       style="fill:#464a4e;fill-opacity:1"
       id="rect3262"
       width="9.0957069"
       height="9.0957069"
       x="9.2912903"
       y="1014.8766"
       ry="1.1472065" />
    <rect
       ry="1.1472065"
       y="1014.8766"
       x="29.612946"
       height="9.0957069"
       width="9.0957069"
       id="rect3264"
       style="fill:#464a4e;fill-opacity:1" />
    <g
       id="g4139"
       transform="matrix(0.92708313,0,0,0.59942491,4.053947,407.52247)">
      <g
         id="g4135">
        <path
           style="fill:#e3d83f;fill-opacity:1"
           d="m 9.5546396,1013.2997 0,15.0313 1.0000004,0 0,-15.0313 L 9.5546396,1013.2997 Z"
           id="path4121"
           inkscape:connector-curvature="0" />
        <path
           style="fill:#e19805;fill-opacity:1"
           d="m 8.5546396,1013.2997 0,15.0313 1,0 0,-15.0313 L 8.5546396,1013.2997 Z"
           id="path4125"
           inkscape:connector-curvature="0" />
      </g>
      <g
         transform="translate(-0.09375,0)"
         id="g4131">
        <path
           inkscape:connector-curvature="0"
           id="path4127"
           d="m 11.64839,1013.2997 0,15.0313 1,0 0,-15.0313 L 11.64839,1013.2997 Z"
           style="fill:#e3d83f;fill-opacity:1" />
        <path
           inkscape:connector-curvature="0"
           id="path4129"
           d="m 10.64839,1013.2997 0,15.0313 1,0 0,-15.0313 L 10.64839,1013.2997 Z"
           style="fill:#e19805;fill-opacity:1" />
      </g>
    </g>
    <g
       transform="matrix(0.92708313,0,0,0.59942491,24.375997,407.52247)"
       id="g4147">
      <g
         id="g4149">
        <path
           inkscape:connector-curvature="0"
           id="path4151"
           d="m 9.5546396,1013.2997 0,15.0313 1.0000004,0 0,-15.0313 L 9.5546396,1013.2997 Z"
           style="fill:#e3d83f;fill-opacity:1" />
        <path
           inkscape:connector-curvature="0"
           id="path4153"
           d="m 8.5546396,1013.2997 0,15.0313 1,0 0,-15.0313 L 8.5546396,1013.2997 Z"
           style="fill:#e19805;fill-opacity:1" />
      </g>
      <g
         id="g4155"
         transform="translate(-0.09375,0)">
        <path
           style="fill:#e3d83f;fill-opacity:1"
           d="m 11.64839,1013.2997 0,15.0313 1,0 0,-15.0313 L 11.64839,1013.2997 Z"
           id="path4157"
           inkscape:connector-curvature="0" />
        <path
           style="fill:#e19805;fill-opacity:1"
           d="m 10.64839,1013.2997 0,15.0313 1,0 0,-15.0313 L 10.64839,1013.2997 Z"
           id="path4159"
           inkscape:connector-curvature="0" />
      </g>
    </g>
    <path
       inkscape:connector-curvature="0"
       style="fill:url(#linearGradient3288);fill-opacity:1"
       d="m 10.209637,1014.8905 c -0.52367,0.1066 -0.92713,0.5737 -0.92713,1.1299 l 0,1.3907 c 0,-0.5561 0.40346,-1.0232 0.92713,-1.1299 0.0743,-0.016 0.15236,0 0.23178,0 l 6.80826,0 c 0.63552,0 1.12986,0.4944 1.12986,1.1299 l 0,-1.3907 c 0,-0.6356 -0.49434,-1.1299 -1.12986,-1.1299 l -6.80826,0 C 10.361997,1014.8905 10.284417,1014.8753 10.209637,1014.8905 z m 20.30887,0 c -0.52365,0.1066 -0.89808,0.5737 -0.89808,1.1299 l 0,1.3907 c 0,-0.5561 0.37443,-1.0232 0.89808,-1.1299 0.0743,-0.016 0.15236,0 0.23177,0 l 6.80829,0 c 0.63551,0 1.1589,0.4944 1.1589,1.1299 l 0,-1.3907 c 0,-0.6356 -0.52339,-1.1299 -1.1589,-1.1299 l -6.80829,0 C 30.670867,1014.8905 30.593307,1014.8753 30.518507,1014.8905 Z"
       id="rect3272" />
    <path
       id="path3290"
       d="m 10.209637,1023.9656 c -0.52367,-0.1066 -0.92713,-0.5737 -0.92713,-1.1299 l 0,-1.3907 c 0,0.5561 0.40346,1.0232 0.92713,1.13 0.0743,0.015 0.15236,0 0.23178,0 l 6.80826,0 c 0.63552,0 1.12986,-0.4944 1.12986,-1.13 l 0,1.3907 c 0,0.6356 -0.49434,1.1299 -1.12986,1.1299 l -6.80826,0 C 10.361997,1023.9656 10.284417,1023.9809 10.209637,1023.9656 z m 20.30887,0 c -0.52365,-0.1066 -0.89808,-0.5737 -0.89808,-1.1299 l 0,-1.3907 c 0,0.5561 0.37443,1.0232 0.89808,1.13 0.0743,0.015 0.15236,0 0.23177,0 l 6.80829,0 c 0.63551,0 1.1589,-0.4944 1.1589,-1.13 l 0,1.3907 c 0,0.6356 -0.52339,1.1299 -1.1589,1.1299 l -6.80829,0 C 30.670867,1023.9656 30.593307,1023.9809 30.518507,1023.9656 Z"
       style="fill:url(#linearGradient3292);fill-opacity:1"
       inkscape:connector-curvature="0" />
    <path
       style="fill:#ffffff;fill-opacity:0.5372549"
       d="m 9.282507,1022.8361 0,0.2897 c 0,0.6355 0.52338,1.1298 1.15891,1.1298 l 6.80826,0 c 0.63552,0 1.12986,-0.4943 1.12986,-1.1298 l 0,-0.2897 c 0,0.6355 -0.49434,1.1298 -1.12986,1.1298 l -6.80826,0 C 9.805887,1023.9659 9.282507,1023.4716 9.282507,1022.8361 z m 20.33792,0 0,0.2897 c 0,0.6355 0.49434,1.1298 1.12985,1.1298 l 6.80829,0 c 0.63551,0 1.1589,-0.4943 1.1589,-1.1298 l 0,-0.2897 c 0,0.6355 -0.52339,1.1298 -1.1589,1.1298 l -6.80829,0 C 30.114767,1023.9659 29.620427,1023.4716 29.620427,1022.8361 Z"
       id="rect3296"
       inkscape:connector-curvature="0" />
    <path
       id="path4106"
       d="m 9.282507,1016.0113 0,-0.2896 c 0,-0.6357 0.52338,-1.13 1.15891,-1.13 l 6.80826,0 c 0.63552,0 1.12986,0.4943 1.12986,1.13 l 0,0.2896 c 0,-0.6355 -0.49434,-1.1299 -1.12986,-1.1299 l -6.80826,0 C 9.805887,1014.8814 9.282507,1015.3758 9.282507,1016.0113 z m 20.33792,0 0,-0.2896 c 0,-0.6357 0.49434,-1.13 1.12985,-1.13 l 6.80829,0 c 0.63551,0 1.1589,0.4943 1.1589,1.13 l 0,0.2896 c 0,-0.6355 -0.52339,-1.1299 -1.1589,-1.1299 l -6.80829,0 C 30.114767,1014.8814 29.620427,1015.3758 29.620427,1016.0113 Z"
       style="fill:#000000;fill-opacity:0.81176471"
       inkscape:connector-curvature="0" />
    <path
       id="path1334"
       d="m 23.999677,1034.8166 -0.83717,1.4497 0.59721,0 0,7.4094 -1.52421,-1.4427 c -0.0986,-0.1227 -0.1675,-0.2834 -0.17134,-0.4486 0,-0.6686 0,-1.0656 0,-1.2117 0.28227,-0.099 0.48595,-0.3652 0.48595,-0.6815 0,-0.4001 -0.3247,-0.7249 -0.725,-0.7249 -0.40045,0 -0.72506,0.3248 -0.72506,0.7249 0,0.3163 0.20355,0.5824 0.48557,0.6815 l 0,1.1975 c 0,0.3244 0.17805,0.6646 0.38681,0.881 -0.007,-0.01 -0.0134,-0.013 0,3e-4 0.006,0.01 1.61694,1.5307 1.61694,1.5307 0.0985,0.1224 0.16694,0.283 0.17086,0.4482 l 0,0.8383 c -0.5538,0.111 -0.97097,0.5999 -0.97097,1.1865 0,0.6688 0.54205,1.2109 1.21065,1.2109 0.6688,0 1.21088,-0.5421 1.21088,-1.2109 0,-0.5866 -0.41753,-1.0756 -0.97178,-1.1867 l 0,-0.8236 c 0,0 0,0 0,-0.011 l 0,-1.8213 c 0.005,-0.1648 0.0723,-0.3251 0.17136,-0.4477 0,0 1.61175,-1.5257 1.61684,-1.5304 0.0134,-0.013 0.007,-0.01 0,-10e-5 0.20884,-0.2164 0.38676,-0.5567 0.38676,-0.8813 l 0,-1.154 0.48596,0 0,-1.45 -1.44984,0 0,1.45 0.48543,0 c 0,0 0,0.304 0,1.1681 -0.005,0.1654 -0.0722,0.3262 -0.17112,0.4489 l -1.52462,1.4431 0,-5.5976 0.59822,0 L 23.999677,1034.8166 Z"
       inkscape:connector-curvature="0"
       style="fill:#000000;fill-opacity:0.5372549" />
    <path
       inkscape:connector-curvature="0"
       style="fill:#000000;fill-opacity:0.5372549"
       d="m 23.999977,1034.8228 -0.84014,1.4486 0.17384,0 0.6663,-1.1589 0.66631,1.1589 0.17384,0 L 23.999977,1034.8228 z m 1.44851,2.5206 0,0.2897 1.44863,0 0,-0.2897 L 25.448487,1037.3434 z m -3.62139,1.8252 c -0.40045,0 -0.72425,0.3241 -0.72425,0.7242 0,0.06 0.0159,0.1185 0.0284,0.1739 0.0569,-0.3438 0.33521,-0.6084 0.69521,-0.6084 0.35994,0 0.63871,0.2646 0.69535,0.6084 0.0141,-0.056 0.0284,-0.1143 0.0284,-0.1739 C 22.551477,1039.4927 22.227407,1039.1686 21.827097,1039.1686 z m 4.11399,0.8111 c -0.005,0.1653 -0.0749,0.3118 -0.17384,0.4346 l -1.53549,1.4485 0,0.2898 1.53549,-1.4485 c 0.0986,-0.1229 0.16921,-0.2694 0.17384,-0.4347 L 25.941087,1039.9797 z m -3.88221,1.7963 0,0.2897 c 0.004,0.1651 0.0749,0.3407 0.17384,0.4634 l 1.53548,1.4196 0,-0.2606 -1.53548,-1.4486 C 22.134287,1042.1166 22.062717,1041.9412 22.058877,1041.776 z m 1.70932,3.6793 c -0.55366,0.1111 -0.98507,0.6013 -0.98507,1.1878 0,0.065 0.0197,0.1403 0.0284,0.2028 0.0424,-0.5435 0.43273,-0.9959 0.95604,-1.1008 L 23.768197,1045.4553 z m 0.46356,0 0,0.2898 c 0.52372,0.105 0.91359,0.5573 0.95602,1.1008 0.0105,-0.063 0.0284,-0.1376 0.0284,-0.2028 C 25.216837,1046.0565 24.785877,1045.5665 24.231757,1045.4553 Z"
       id="path4177" />
    <path
       style="fill:#ffffff;fill-opacity:0.23529412"
       d="m 23.304637,1036.2677 -0.1448,0.2317 0.60836,0 0,-0.2317 L 23.304637,1036.2677 z m 0.92712,0 0,0.2317 0.60837,0 -0.1448,-0.2317 L 24.231757,1036.2677 z m 1.21673,2.5496 0,0.2028 0.4926,0 0,-0.2028 L 25.448487,1038.8173 z m 0.95617,0 0,0.2028 0.49246,0 0,-0.2028 L 26.404657,1038.8173 z m 0,1.1299 c 0,0.3245 -0.16799,0.6815 -0.37672,0.898 -0.006,0.011 -1.62234,1.5356 -1.62234,1.5356 -0.0986,0.1224 -0.1692,0.2696 -0.17384,0.4344 l 0,0.2318 c 0.005,-0.1648 0.0749,-0.341 0.17384,-0.4636 0,0 1.61713,-1.5017 1.62234,-1.5064 0.20873,-0.2166 0.37672,-0.5735 0.37672,-0.898 L 26.404657,1039.9472 z m -5.27277,0.087 c -0.004,0.029 -0.0284,0.057 -0.0284,0.087 0,0.3163 0.21059,0.5672 0.49247,0.6664 l 0,-0.2029 C 21.357897,1040.501 21.183277,1040.2847 21.131887,1040.034 z m 1.39055,0 c -0.0517,0.2507 -0.2258,0.467 -0.46356,0.5505 l 0,0.2028 c 0.28227,-0.099 0.4926,-0.3501 0.4926,-0.6663 C 22.551477,1040.0902 22.526157,1040.0638 22.522437,1040.034 z m -0.92713,1.7382 0,0.2318 c 0,0.3245 0.16796,0.6529 0.37672,0.8692 0.006,0.011 1.62234,1.5355 1.62234,1.5355 0.0985,0.1224 0.1699,0.2985 0.17383,0.4636 l 0,-0.2318 c -0.004,-0.1651 -0.0751,-0.341 -0.17383,-0.4636 0,0 -1.61721,-1.5262 -1.62234,-1.5355 C 21.763267,1042.4251 21.595307,1042.0968 21.595307,1041.7723 z m 1.21686,5.0122 c -0.003,0.031 -0.0284,0.055 -0.0284,0.087 0,0.6686 0.54827,1.2167 1.21685,1.2167 0.6688,0 1.21678,-0.5481 1.21678,-1.2167 0,-0.032 -0.0263,-0.056 -0.0284,-0.087 -0.0635,0.6097 -0.56153,1.0718 -1.18781,1.0718 C 23.373887,1047.8562 22.875057,1047.3941 22.812167,1046.7843 Z"
       id="path4182"
       inkscape:connector-curvature="0" />
    <path
       id="path6361"
       d="m 1.749988,1012.5497 0,-0.5625 c 0,-3.2445 2.599219,-5.875 5.843749,-5.875 l 32.8125,0 c 3.24452,0 5.84375,2.6305 5.84375,5.875 l 0,0.5625 c 0,-3.2445 -2.59923,-5.875 -5.84375,-5.875 l -32.8125,0 C 4.349207,1006.6747 1.749988,1009.3052 1.749988,1012.5497 Z"
       style="color:#000000;fill:#ffffff;fill-opacity:1;fill-rule:nonzero;stroke:none;stroke-width:0.2;marker:none;visibility:visible;display:inline;overflow:visible;enable-background:accumulate"
       inkscape:connector-curvature="0" />
    <path
       inkscape:connector-curvature="0"
       style="color:#000000;fill:#000000;fill-opacity:1;fill-rule:nonzero;stroke:none;stroke-width:0.2;marker:none;visibility:visible;display:inline;overflow:visible;enable-background:accumulate"
       d="m 1.749988,1044.1747 0,0.5625 c 0,3.2445 2.599219,5.875 5.843749,5.875 l 32.8125,0 c 3.24452,0 5.84375,-2.6305 5.84375,-5.875 l 0,-0.5625 c 0,3.2445 -2.59923,5.875 -5.84375,5.875 l -32.8125,0 C 4.349207,1050.0497 1.749988,1047.4192 1.749988,1044.1747 Z"
       id="path6388" />
  </g>
</svg>
