<?xml version="1.0" encoding="UTF-8" standalone="no"?>
<!-- Created with Inkscape (http://www.inkscape.org/) -->

<svg
   xmlns:dc="http://purl.org/dc/elements/1.1/"
   xmlns:cc="http://creativecommons.org/ns#"
   xmlns:rdf="http://www.w3.org/1999/02/22-rdf-syntax-ns#"
   xmlns:svg="http://www.w3.org/2000/svg"
   xmlns="http://www.w3.org/2000/svg"
   xmlns:sodipodi="http://sodipodi.sourceforge.net/DTD/sodipodi-0.dtd"
   xmlns:inkscape="http://www.inkscape.org/namespaces/inkscape"
   width="48"
   height="48"
   id="svg2"
   version="1.1"
   inkscape:version="0.48+devel r12149"
   sodipodi:docname="wine-winetricks.svg">
  <defs
     id="defs4" />
  <sodipodi:namedview
     id="base"
     pagecolor="#ffffff"
     bordercolor="#666666"
     borderopacity="1.0"
     inkscape:pageopacity="0.0"
     inkscape:pageshadow="2"
     inkscape:zoom="4.590755"
     inkscape:cx="-22.784385"
     inkscape:cy="45.320253"
     inkscape:document-units="px"
     inkscape:current-layer="layer1"
     showgrid="false"
     inkscape:window-width="1366"
     inkscape:window-height="716"
     inkscape:window-x="0"
     inkscape:window-y="28"
     inkscape:window-maximized="1">
    <inkscape:grid
       type="xygrid"
       id="grid3850" />
  </sodipodi:namedview>
  <metadata
     id="metadata7">
    <rdf:RDF>
      <cc:Work
         rdf:about="">
        <dc:format>image/svg+xml</dc:format>
        <dc:type
           rdf:resource="http://purl.org/dc/dcmitype/StillImage" />
        <dc:title />
      </cc:Work>
    </rdf:RDF>
  </metadata>
  <g
     inkscape:label="Capa 1"
     inkscape:groupmode="layer"
     id="layer1"
     transform="translate(0,-1004.3622)">
    <rect
       style="color:#000000;fill:#333333;fill-opacity:1;fill-rule:nonzero;stroke:none;stroke-width:0.2;marker:none;visibility:visible;display:inline;overflow:visible;enable-background:accumulate"
       id="rect6294"
       width="45.5"
       height="45.5"
       x="1.25"
       y="1005.6122"
       ry="6.3565426" />
    <rect
       ry="5.8565426"
       y="1006.1122"
       x="1.75"
       height="44.5"
       width="44.5"
       id="rect6296"
       style="color:#000000;fill:#e54f3a;fill-opacity:1;fill-rule:nonzero;stroke:none;stroke-width:0.2;marker:none;visibility:visible;display:inline;overflow:visible;enable-background:accumulate" />
    <path
       id="path6361"
       d="m 1.7499878,1012.5497 0,-0.5625 c 0,-3.2445 2.59922,-5.875 5.84375,-5.875 l 32.8125002,0 c 3.24452,0 5.84375,2.6305 5.84375,5.875 l 0,0.5625 c 0,-3.2445 -2.59923,-5.875 -5.84375,-5.875 l -32.8125002,0 C 4.3492078,1006.6747 1.7499878,1009.3052 1.7499878,1012.5497 Z"
       style="color:#000000;fill:#ffffff;fill-opacity:1;fill-rule:nonzero;stroke:none;stroke-width:0.2;marker:none;visibility:visible;display:inline;overflow:visible;enable-background:accumulate"
       inkscape:connector-curvature="0" />
    <path
       inkscape:connector-curvature="0"
       style="color:#000000;fill:#000000;fill-opacity:1;fill-rule:nonzero;stroke:none;stroke-width:0.2;marker:none;visibility:visible;display:inline;overflow:visible;enable-background:accumulate"
       d="m 1.7499878,1044.1747 0,0.5625 c 0,3.2445 2.59922,5.875 5.84375,5.875 l 32.8125002,0 c 3.24452,0 5.84375,-2.6305 5.84375,-5.875 l 0,-0.5625 c 0,3.2445 -2.59923,5.875 -5.84375,5.875 l -32.8125002,0 C 4.3492078,1050.0497 1.7499878,1047.4192 1.7499878,1044.1747 Z"
       id="path6388" />
    <g
       transform="matrix(0.40530134,0,0,0.40530134,-170.71609,808.05316)"
       id="_x32__action_settings"
       style="fill:#ffffff">
      <path
         style="fill:#ffffff"
         inkscape:connector-curvature="0"
         d="m 464.538,530.565 c -2.811,0 -5.121,2.3 -5.121,5.121 l 0,15.765 c 0,2.82 2.311,5.121 5.121,5.121 l 1.76,0 c 2.811,0 5.122,-2.301 5.122,-5.121 l 0,-15.765 c 0,-2.821 -2.312,-5.121 -5.122,-5.121 L 464.538,530.565 z m 30.009,24.007 c -2.811,0 -5.121,2.299 -5.121,5.121 l 0,15.764 c 0,2.822 2.311,5.121 5.121,5.121 l 1.761,0 c 2.81,0 5.122,-2.299 5.122,-5.121 l 0,-15.764 c 0,-2.822 -2.313,-5.121 -5.122,-5.121 L 494.547,554.572 z m 0,-48.013 c -2.811,0 -5.121,2.301 -5.121,5.121 l 0,15.765 c 0,2.821 2.311,5.122 5.121,5.122 l 1.761,0 c 2.821,0 5.122,-2.301 5.122,-5.122 l 0,-15.765 c 0,-2.82 -2.301,-5.121 -5.122,-5.121 L 494.547,506.559 z m -8.122,11.003 -42.013,0 0,4.001 42.013,0 L 486.425,517.562 z m 30.009,4.001 0,-4.001 -12.004,0 0,4.001 L 516.434,521.563 z m -60.019,20.005 -12.003,0 0,4 12.003,0 L 456.415,541.568 z m 60.019,4 0,-4 -42.013,0 0,4 L 516.434,545.568 z m -30.009,20.006 -42.013,0 0,4.002 42.013,0 L 486.425,565.574 z m 30.009,4.002 0,-4.002 -12.004,0 0,4.002 L 516.434,569.576 Z"
         id="path1128" />
    </g>
  </g>
</svg>
