<?xml version="1.0" encoding="UTF-8" standalone="no"?>
<!-- Created with Inkscape (http://www.inkscape.org/) -->

<svg
   xmlns:dc="http://purl.org/dc/elements/1.1/"
   xmlns:cc="http://creativecommons.org/ns#"
   xmlns:rdf="http://www.w3.org/1999/02/22-rdf-syntax-ns#"
   xmlns:svg="http://www.w3.org/2000/svg"
   xmlns="http://www.w3.org/2000/svg"
   xmlns:xlink="http://www.w3.org/1999/xlink"
   xmlns:sodipodi="http://sodipodi.sourceforge.net/DTD/sodipodi-0.dtd"
   xmlns:inkscape="http://www.inkscape.org/namespaces/inkscape"
   width="48"
   height="48"
   id="svg2"
   version="1.1"
   inkscape:version="0.48+devel r12084"
   sodipodi:docname="wireshark.svg">
  <defs
     id="defs4">
    <linearGradient
       id="linearGradient852">
      <stop
         id="stop854"
         offset="0"
         style="stop-color:#7bbee3;stop-opacity:1" />
      <stop
         id="stop856"
         offset="1"
         style="stop-color:#126391;stop-opacity:1" />
    </linearGradient>
    <linearGradient
       inkscape:collect="always"
       xlink:href="#linearGradient852"
       id="linearGradient833"
       x1="81.047722"
       y1="1004.2203"
       x2="81.047722"
       y2="1049.8116"
       gradientUnits="userSpaceOnUse"
       gradientTransform="translate(-57.936775,1.186785)" />
  </defs>
  <sodipodi:namedview
     id="base"
     pagecolor="#ffffff"
     bordercolor="#666666"
     borderopacity="1.0"
     inkscape:pageopacity="0.0"
     inkscape:pageshadow="2"
     inkscape:zoom="6.2731295"
     inkscape:cx="39.886073"
     inkscape:cy="21.289801"
     inkscape:document-units="px"
     inkscape:current-layer="layer1"
     showgrid="false"
     inkscape:window-width="1366"
     inkscape:window-height="718"
     inkscape:window-x="0"
     inkscape:window-y="28"
     inkscape:window-maximized="1">
    <inkscape:grid
       type="xygrid"
       id="grid3850" />
  </sodipodi:namedview>
  <metadata
     id="metadata7">
    <rdf:RDF>
      <cc:Work
         rdf:about="">
        <dc:format>image/svg+xml</dc:format>
        <dc:type
           rdf:resource="http://purl.org/dc/dcmitype/StillImage" />
        <dc:title />
      </cc:Work>
    </rdf:RDF>
  </metadata>
  <g
     inkscape:label="Capa 1"
     inkscape:groupmode="layer"
     id="layer1"
     transform="translate(0,-1004.3622)">
    <rect
       style="color:#000000;fill:#333333;fill-opacity:1;fill-rule:nonzero;stroke:none;stroke-width:0.2;marker:none;visibility:visible;display:inline;overflow:visible;enable-background:accumulate"
       id="rect6294"
       width="45.5"
       height="45.5"
       x="1.25"
       y="1005.6122"
       ry="6.3565426" />
    <rect
       ry="5.8565426"
       y="1006.1122"
       x="1.75"
       height="44.5"
       width="44.5"
       id="rect6296"
       style="color:#000000;fill:url(#linearGradient833);fill-opacity:1;fill-rule:nonzero;stroke:none;stroke-width:0.2;marker:none;visibility:visible;display:inline;overflow:visible;enable-background:accumulate" />
    <path
       id="path6361"
       d="m 1.7499998,1012.5497 0,-0.5625 c 0,-3.2445 2.599225,-5.875 5.84375,-5.875 l 32.8125002,0 c 3.244525,0 5.843745,2.6305 5.843745,5.875 l 0,0.5625 c 0,-3.2445 -2.59922,-5.875 -5.843745,-5.875 l -32.8125002,0 C 4.3492248,1006.6747 1.7499998,1009.3052 1.7499998,1012.5497 Z"
       style="color:#000000;fill:#ffffff;fill-opacity:1;fill-rule:nonzero;stroke:none;stroke-width:0.2;marker:none;visibility:visible;display:inline;overflow:visible;enable-background:accumulate"
       inkscape:connector-curvature="0" />
    <path
       inkscape:connector-curvature="0"
       style="color:#000000;fill:#000000;fill-opacity:1;fill-rule:nonzero;stroke:none;stroke-width:0.2;marker:none;visibility:visible;display:inline;overflow:visible;enable-background:accumulate"
       d="m 1.7499998,1044.1747 0,0.5625 c 0,3.2445 2.599225,5.875 5.84375,5.875 l 32.8125002,0 c 3.244525,0 5.843745,-2.6305 5.843745,-5.875 l 0,-0.5625 c 0,3.2445 -2.59922,5.875 -5.843745,5.875 l -32.8125002,0 C 4.3492248,1050.0497 1.7499998,1047.4192 1.7499998,1044.1747 Z"
       id="path6388" />
    <path
       style="font-size:xx-small;font-style:normal;font-variant:normal;font-weight:normal;font-stretch:normal;text-indent:0;text-align:start;text-decoration:none;line-height:normal;letter-spacing:normal;word-spacing:normal;text-transform:none;direction:ltr;block-progression:tb;writing-mode:lr-tb;text-anchor:start;color:#000000;fill:#ffffff;fill-opacity:1;stroke:none;stroke-width:6;marker:none;visibility:visible;display:inline;overflow:visible;enable-background:accumulate;font-family:Abandoned Bitplane;-inkscape-font-specification:Abandoned Bitplane"
       d="M 35.125 9 C 23.065372 9.8995 16.702342 17.14655 13.75 23.90625 C 11.482538 29.09755 11.124781 33.16515 11.03125 35.21875 L 1.75 35.21875 L 1.75 39 L 12.78125 39 A 1.8729293 1.8729293 0 0 0 14.625 37.125 C 14.625 37.125 14.568541 31.33035 17.15625 25.40625 C 19.476157 20.09445 23.682817 14.83425 32.25 13.21875 C 27.224124 26.30465 33.59375 38.03125 33.59375 38.03125 A 1.8729293 1.8729293 0 0 0 35.21875 39 L 46.25 39 L 46.25 35.21875 L 36.4375 35.21875 C 35.314357 32.90735 31.040647 22.85485 36.90625 11.78125 A 1.8729293 1.8729293 0 0 0 35.125 9 z "
       transform="translate(0,1004.3622)"
       id="path3660" />
  </g>
</svg>
