<?xml version="1.0" encoding="UTF-8" standalone="no"?>
<!-- Created with Inkscape (http://www.inkscape.org/) -->

<svg
   xmlns:dc="http://purl.org/dc/elements/1.1/"
   xmlns:cc="http://creativecommons.org/ns#"
   xmlns:rdf="http://www.w3.org/1999/02/22-rdf-syntax-ns#"
   xmlns:svg="http://www.w3.org/2000/svg"
   xmlns="http://www.w3.org/2000/svg"
   xmlns:xlink="http://www.w3.org/1999/xlink"
   xmlns:sodipodi="http://sodipodi.sourceforge.net/DTD/sodipodi-0.dtd"
   xmlns:inkscape="http://www.inkscape.org/namespaces/inkscape"
   width="48"
   height="48"
   id="svg2"
   version="1.1"
   inkscape:version="0.48+devel r12118"
   sodipodi:docname="desktop-effects.svg">
  <defs
     id="defs4">
    <linearGradient
       gradientTransform="translate(-1640.5564,640.01508)"
       inkscape:collect="always"
       xlink:href="#linearGradient1434"
       id="linearGradient1508"
       x1="1664.9338"
       y1="410.44421"
       x2="1664.9338"
       y2="366.07327"
       gradientUnits="userSpaceOnUse" />
    <linearGradient
       inkscape:collect="always"
       id="linearGradient1434">
      <stop
         style="stop-color:#f3f3f3;stop-opacity:1"
         offset="0"
         id="stop1436" />
      <stop
         style="stop-color:#ededed;stop-opacity:1"
         offset="1"
         id="stop1438" />
    </linearGradient>
    <linearGradient
       inkscape:collect="always"
       xlink:href="#linearGradient3795"
       id="linearGradient852"
       x1="23.398647"
       y1="1015.8618"
       x2="23.398647"
       y2="1045.6122"
       gradientUnits="userSpaceOnUse"
       gradientTransform="matrix(0.84859218,0,0,0.84859218,1695.1435,-482.23348)" />
    <linearGradient
       id="linearGradient3795">
      <stop
         style="stop-color:#adaeae;stop-opacity:1"
         offset="0"
         id="stop3797" />
      <stop
         id="stop3832"
         offset="0.47395626"
         style="stop-color:#ffffff;stop-opacity:1" />
      <stop
         style="stop-color:#f0f0f0;stop-opacity:1"
         offset="1"
         id="stop3799" />
    </linearGradient>
    <linearGradient
       gradientTransform="translate(1691.5097,366.42684)"
       inkscape:collect="always"
       xlink:href="#linearGradient1469"
       id="linearGradient1475"
       x1="24"
       y1="8"
       x2="24"
       y2="29.125"
       gradientUnits="userSpaceOnUse" />
    <linearGradient
       inkscape:collect="always"
       id="linearGradient1469">
      <stop
         style="stop-color:#ffffff;stop-opacity:1;"
         offset="0"
         id="stop1471" />
      <stop
         style="stop-color:#ffffff;stop-opacity:0;"
         offset="1"
         id="stop1473" />
    </linearGradient>
    <linearGradient
       inkscape:collect="always"
       xlink:href="#linearGradient1485"
       id="linearGradient1491"
       x1="23.65625"
       y1="1016.2997"
       x2="23.65625"
       y2="1017.8309"
       gradientUnits="userSpaceOnUse"
       gradientTransform="translate(1691.5097,-637.77908)" />
    <linearGradient
       inkscape:collect="always"
       id="linearGradient1485">
      <stop
         style="stop-color:#000000;stop-opacity:1;"
         offset="0"
         id="stop1487" />
      <stop
         style="stop-color:#000000;stop-opacity:0;"
         offset="1"
         id="stop1489" />
    </linearGradient>
    <linearGradient
       gradientTransform="translate(1691.5097,366.42684)"
       inkscape:collect="always"
       xlink:href="#linearGradient1485"
       id="linearGradient1504"
       x1="23.9375"
       y1="8.25"
       x2="23.9375"
       y2="10.0625"
       gradientUnits="userSpaceOnUse" />
  </defs>
  <sodipodi:namedview
     id="base"
     pagecolor="#ffffff"
     bordercolor="#666666"
     borderopacity="1.0"
     inkscape:pageopacity="0.0"
     inkscape:pageshadow="2"
     inkscape:zoom="2.8284272"
     inkscape:cx="-76.076056"
     inkscape:cy="52.015465"
     inkscape:document-units="px"
     inkscape:current-layer="layer1"
     showgrid="false"
     inkscape:window-width="1366"
     inkscape:window-height="718"
     inkscape:window-x="0"
     inkscape:window-y="28"
     inkscape:window-maximized="1">
    <inkscape:grid
       type="xygrid"
       id="grid3850" />
  </sodipodi:namedview>
  <metadata
     id="metadata7">
    <rdf:RDF>
      <cc:Work
         rdf:about="">
        <dc:format>image/svg+xml</dc:format>
        <dc:type
           rdf:resource="http://purl.org/dc/dcmitype/StillImage" />
        <dc:title />
      </cc:Work>
    </rdf:RDF>
  </metadata>
  <g
     inkscape:label="Capa 1"
     inkscape:groupmode="layer"
     id="layer1"
     transform="translate(0,-1004.3622)">
    <rect
       style="color:#000000;fill:#333333;fill-opacity:1;fill-rule:nonzero;stroke:none;stroke-width:0.2;marker:none;visibility:visible;display:inline;overflow:visible;enable-background:accumulate"
       id="rect6294"
       width="45.5"
       height="45.5"
       x="1.25"
       y="1005.6122"
       ry="6.3565426" />
    <rect
       ry="5.8565426"
       y="1006.1122"
       x="1.75"
       height="44.5"
       width="44.5"
       id="rect6296"
       style="color:#000000;fill:url(#linearGradient1508);fill-opacity:1;fill-rule:nonzero;stroke:none;stroke-width:0.2;marker:none;visibility:visible;display:inline;overflow:visible;enable-background:accumulate" />
    <path
       id="path6361"
       d="m 1.750003,1012.5497 0,-0.5625 c 0,-3.2445 2.5991996,-5.875 5.8437996,-5.875 l 32.8125014,0 c 3.2445,0 5.8437,2.6305 5.8437,5.875 l 0,0.5625 c 0,-3.2445 -2.5992,-5.875 -5.8437,-5.875 l -32.8125014,0 C 4.3492026,1006.6747 1.750003,1009.3052 1.750003,1012.5497 Z"
       style="color:#000000;fill:#ffffff;fill-opacity:1;fill-rule:nonzero;stroke:none;stroke-width:0.2;marker:none;visibility:visible;display:inline;overflow:visible;enable-background:accumulate"
       inkscape:connector-curvature="0" />
    <path
       inkscape:connector-curvature="0"
       style="color:#000000;fill:#000000;fill-opacity:1;fill-rule:nonzero;stroke:none;stroke-width:0.2;marker:none;visibility:visible;display:inline;overflow:visible;enable-background:accumulate"
       d="m 1.750003,1044.1747 0,0.5625 c 0,3.2445 2.5991996,5.875 5.8437996,5.875 l 32.8125014,0 c 3.2445,0 5.8437,-2.6305 5.8437,-5.875 l 0,-0.5625 c 0,3.2445 -2.5992,5.875 -5.8437,5.875 l -32.8125014,0 C 4.3492026,1050.0497 1.750003,1047.4192 1.750003,1044.1747 Z"
       id="path6388" />
    <g
       id="g1510"
       transform="matrix(0.89898684,0,0,0.89898684,-1518.2206,677.37358)">
      <path
         style="color:#000000;fill:#000000;fill-opacity:0.08296946;fill-rule:nonzero;stroke:none;stroke-width:0.40000001;marker:none;visibility:visible;display:inline;overflow:visible;enable-background:accumulate"
         d="m 1709.869,374.24964 c -2.7665,0 -4.996,2.2158 -4.996,4.9653 l 0,22.4238 c 0,2.7495 2.2295,4.9654 4.996,4.9654 l 11.2814,0 c 2.7665,0 4.996,-2.2159 4.996,-4.9654 l 0,-22.4238 C 1726.1464,376.46544 1723.9169,374.24964 1721.1504,374.24964 z m 0.1934,0.4805 10.8946,0 c 2.6843,0 4.8671,2.1373 4.8671,4.8051 l 0,21.7832 c 0,2.6678 -2.1828,4.8051 -4.8671,4.8051 l -10.8946,0 c -2.6843,0 -4.8671,-2.1373 -4.8671,-4.8051 l 0,-21.7832 C 1705.1953,376.86744 1707.3781,374.73014 1710.0624,374.73014 Z"
         id="path1459"
         inkscape:connector-curvature="0"
         sodipodi:nodetypes="ssssssssssssssssss" />
      <path
         sodipodi:nodetypes="ssssssssssssssssss"
         inkscape:connector-curvature="0"
         id="rect1449"
         d="m 1710.041,374.73394 c -2.6822,0 -4.8438,2.1495 -4.8438,4.8167 l 0,21.7524 c 0,2.6672 2.1616,4.8167 4.8438,4.8167 l 10.9375,0 c 2.6821,0 4.8437,-2.1495 4.8437,-4.8167 l 0,-21.7524 C 1725.8222,376.88344 1723.6606,374.73394 1720.9785,374.73394 z m 0.1875,0.4662 10.5625,0 c 2.6025,0 4.7187,2.0733 4.7187,4.6612 l 0,21.131 c 0,2.5879 -2.1162,4.6612 -4.7187,4.6612 l -10.5625,0 c -2.6025,0 -4.7188,-2.0733 -4.7188,-4.6612 l 0,-21.131 C 1705.5097,377.27344 1707.626,375.20014 1710.2285,375.20014 Z"
         style="color:#000000;fill:#000000;fill-opacity:0.13537119;fill-rule:nonzero;stroke:none;stroke-width:0.40000001;marker:none;visibility:visible;display:inline;overflow:visible;enable-background:accumulate" />
      <path
         inkscape:connector-curvature="0"
         id="rect842"
         d="m 1710.2285,375.20274 c -2.6025,0 -4.7188,2.073 -4.7188,4.6604 l 0,21.1274 c 0,2.5874 2.1163,4.6604 4.7188,4.6604 l 10.5625,0 c 2.6025,0 4.7187,-2.073 4.7187,-4.6604 l 0,-21.1274 c 0,-2.5874 -2.1162,-4.6604 -4.7187,-4.6604 L 1710.2285,375.20274 z m 0.2187,0.466 10.125,0 c 2.524,0 4.5625,2.0268 4.5625,4.5362 l 0,20.4438 c 0,2.5094 -2.0385,4.5362 -4.5625,4.5362 l -10.125,0 c -2.524,0 -4.5625,-2.0268 -4.5625,-4.5362 l 0,-20.4438 C 1705.8847,377.69554 1707.9232,375.66874 1710.4472,375.66874 Z"
         style="color:#000000;fill:#000000;fill-opacity:0.25327513;fill-rule:nonzero;stroke:none;stroke-width:0.40000001;marker:none;visibility:visible;display:inline;overflow:visible;enable-background:accumulate" />
      <rect
         style="color:#000000;fill:url(#linearGradient852);fill-opacity:1;fill-rule:nonzero;stroke:none;stroke-width:0.40000001;marker:none;visibility:visible;display:inline;overflow:visible;enable-background:accumulate"
         id="rect844"
         width="19.265337"
         height="29.700727"
         x="1705.8771"
         y="375.57642"
         ry="4.5558796" />
      <path
         sodipodi:nodetypes="ssssssssssssssssss"
         inkscape:connector-curvature="0"
         id="path1461"
         d="m 1709.6932,373.74144 c -2.8527,0 -5.1517,2.2854 -5.1517,5.1213 l 0,23.1282 c 0,2.8359 2.299,5.1214 5.1517,5.1214 l 11.633,0 c 2.8527,0 5.1517,-2.2855 5.1517,-5.1214 l 0,-23.1282 C 1726.4779,376.02684 1724.1789,373.74144 1721.3262,373.74144 z m 0.1995,0.4956 11.234,0 c 2.768,0 5.0188,2.2044 5.0188,4.956 l 0,22.4676 c 0,2.7516 -2.2508,4.956 -5.0188,4.956 l -11.234,0 c -2.768,0 -5.0188,-2.2044 -5.0188,-4.956 l 0,-22.4676 C 1704.8739,376.44144 1707.1247,374.23704 1709.8927,374.23704 Z"
         style="color:#000000;fill:#ffffff;fill-opacity:0.53711787;fill-rule:nonzero;stroke:none;stroke-width:0.40000001;marker:none;visibility:visible;display:inline;overflow:visible;enable-background:accumulate" />
      <path
         id="rect1463"
         d="m 1710.4472,375.58309 c -2.524,0 -4.5625,2.03854 -4.5625,4.5625 l 0,20.5625 c 0,0.65558 0.1278,1.28154 0.375,1.84375 l 0,-19.15625 c 0,-2.4257 1.9493,-4.375 4.375,-4.375 l 9.75,0 c 2.4257,0 4.375,1.9493 4.375,4.375 l 0,19.15625 c 0.2472,-0.56221 0.375,-1.18817 0.375,-1.84375 l 0,-20.5625 c 0,-2.52396 -2.0385,-4.5625 -4.5625,-4.5625 L 1710.4472,375.58309 Z"
         style="color:#000000;fill:url(#linearGradient1475);fill-opacity:1;fill-rule:nonzero;stroke:none;stroke-width:0.40000001;marker:none;visibility:visible;display:inline;overflow:visible;enable-background:accumulate"
         inkscape:connector-curvature="0" />
      <path
         inkscape:connector-curvature="0"
         id="rect1477"
         d="m 1710.666,378.98934 c -2.2025,0 -3.9563,1.6297 -4.25,3.75 -0.027,0.1978 -0.094,0.3883 -0.094,0.5938 0,0.053 0,0.1031 0,0.1562 l 0,0.031 c -7e-4,0.032 0,0.062 0,0.094 l 0,0.1875 c 0,-0.2467 0.023,-0.4834 0.062,-0.7187 0.01,-0.052 0.022,-0.1046 0.031,-0.1563 0.4051,-1.9853 2.143,-3.4687 4.25,-3.4687 l 9.6875,0 c 2.1069,0 3.8448,1.4834 4.25,3.4687 0.01,0.051 0.023,0.1045 0.031,0.1563 0.039,0.2353 0.062,0.472 0.062,0.7187 l 0,-0.1875 c 0,-0.032 7e-4,-0.062 0,-0.094 l 0,-0.031 c 0,-0.053 0,-0.1036 0,-0.1562 0,-0.2055 -0.066,-0.396 -0.094,-0.5938 -0.2938,-2.1203 -2.0476,-3.75 -4.25,-3.75 L 1710.666,378.98934 Z"
         style="opacity:0.43200001;color:#000000;fill:url(#linearGradient1491);fill-opacity:1;fill-rule:nonzero;stroke:none;stroke-width:0.40000001;marker:none;visibility:visible;display:inline;overflow:visible;enable-background:accumulate" />
      <path
         id="path1493"
         d="m 1710.4472,375.58309 c -2.524,0 -4.5625,2.03854 -4.5625,4.5625 l 0,1.1875 c 0,-2.524 2.0385,-4.5625 4.5625,-4.5625 l 10.125,0 c 2.524,0 4.5625,2.0385 4.5625,4.5625 l 0,-1.1875 c 0,-2.52396 -2.0385,-4.5625 -4.5625,-4.5625 L 1710.4472,375.58309 Z"
         style="opacity:0.67699998;color:#000000;fill:url(#linearGradient1504);fill-opacity:1;fill-rule:nonzero;stroke:none;stroke-width:0.40000001;marker:none;visibility:visible;display:inline;overflow:visible;enable-background:accumulate"
         inkscape:connector-curvature="0" />
      <rect
         ry="0"
         y="382.14624"
         x="1714.9132"
         height="3"
         width="1.0124999"
         id="rect1515"
         style="fill:#000000;fill-opacity:0.32919258;stroke:none" />
      <path
         id="path1517"
         d="m 1715.5097,399.33309 c -0.8284,0 -1.5,0.6716 -1.5,1.5 0,0.8284 0.6716,1.5 1.5,1.5 0.8284,0 1.5,-0.6716 1.5,-1.5 C 1717.0097,400.00469 1716.3381,399.33309 1715.5097,399.33309 z m 0,0.5 c 0.5514,0 1,0.4488 1,1 0,0.5514 -0.4486,1.03125 -1,1.03125 -0.5514,0 -1,-0.48005 -1,-1.03125 C 1714.5097,400.28169 1714.9583,399.83309 1715.5097,399.83309 Z"
         style="fill:#000000;fill-opacity:0.32919258;stroke:none"
         inkscape:connector-curvature="0" />
      <path
         id="rect1533"
         d="m 1714.916,385.14559 0,0.15625 1,0 0,-0.15625 L 1714.916,385.14559 Z"
         style="fill:#ffffff;fill-opacity:0.49689445;stroke:none"
         inkscape:connector-curvature="0" />
      <path
         sodipodi:nodetypes="cscsc"
         inkscape:connector-curvature="0"
         id="path1535"
         d="m 1714.041,401.15344 c 0.077,0.7556 0.6926,1.3437 1.4687,1.3437 0.7761,0 1.3912,-0.5881 1.4688,-1.3437 -0.1399,0.6835 -0.7439,1.1875 -1.4688,1.1875 C 1714.7848,402.34094 1714.1808,401.83694 1714.041,401.15344 Z"
         style="fill:#f9f9f9;fill-opacity:1;stroke:none" />
    </g>
  </g>
</svg>
