<?xml version="1.0" encoding="UTF-8" standalone="no"?>
<!-- Created with Inkscape (http://www.inkscape.org/) -->

<svg
   xmlns:dc="http://purl.org/dc/elements/1.1/"
   xmlns:cc="http://creativecommons.org/ns#"
   xmlns:rdf="http://www.w3.org/1999/02/22-rdf-syntax-ns#"
   xmlns:svg="http://www.w3.org/2000/svg"
   xmlns="http://www.w3.org/2000/svg"
   xmlns:xlink="http://www.w3.org/1999/xlink"
   xmlns:sodipodi="http://sodipodi.sourceforge.net/DTD/sodipodi-0.dtd"
   xmlns:inkscape="http://www.inkscape.org/namespaces/inkscape"
   width="48"
   height="48"
   id="svg2"
   version="1.1"
   inkscape:version="0.48+devel r12149"
   sodipodi:docname="xbmc.svg">
  <defs
     id="defs4">
    <linearGradient
       id="linearGradient895-4">
      <stop
         id="stop897-6"
         offset="0"
         style="stop-color:#293662;stop-opacity:1" />
      <stop
         id="stop899-7"
         offset="1"
         style="stop-color:#424f7d;stop-opacity:1" />
    </linearGradient>
    <linearGradient
       gradientTransform="translate(-31.206215,999.40815)"
       x1="56"
       y1="64"
       x2="16"
       y2="64"
       id="linearGradient3716-3"
       xlink:href="#linearGradient3710-0"
       gradientUnits="userSpaceOnUse" />
    <linearGradient
       id="linearGradient3710-0">
      <stop
         id="stop3712-8-4"
         style="stop-color:#d9822e;stop-opacity:1"
         offset="0" />
      <stop
         id="stop3714-2"
         style="stop-color:#d9822e;stop-opacity:0"
         offset="1" />
    </linearGradient>
    <linearGradient
       inkscape:collect="always"
       xlink:href="#linearGradient895-4"
       id="linearGradient937"
       x1="29.874998"
       y1="1050.6747"
       x2="29.874998"
       y2="1006.1105"
       gradientUnits="userSpaceOnUse" />
  </defs>
  <sodipodi:namedview
     id="base"
     pagecolor="#ffffff"
     bordercolor="#666666"
     borderopacity="1.0"
     inkscape:pageopacity="0.0"
     inkscape:pageshadow="2"
     inkscape:zoom="5.6568545"
     inkscape:cx="65.226704"
     inkscape:cy="42.914481"
     inkscape:document-units="px"
     inkscape:current-layer="layer1"
     showgrid="false"
     inkscape:window-width="1366"
     inkscape:window-height="716"
     inkscape:window-x="0"
     inkscape:window-y="28"
     inkscape:window-maximized="1"
     showguides="false"
     inkscape:guide-bbox="true">
    <inkscape:grid
       type="xygrid"
       id="grid3850" />
  </sodipodi:namedview>
  <metadata
     id="metadata7">
    <rdf:RDF>
      <cc:Work
         rdf:about="">
        <dc:format>image/svg+xml</dc:format>
        <dc:type
           rdf:resource="http://purl.org/dc/dcmitype/StillImage" />
        <dc:title></dc:title>
      </cc:Work>
    </rdf:RDF>
  </metadata>
  <g
     inkscape:label="Capa 1"
     inkscape:groupmode="layer"
     id="layer1"
     transform="translate(0,-1004.3622)">
    <rect
       style="color:#000000;fill:#333333;fill-opacity:1;fill-rule:nonzero;stroke:none;stroke-width:0.2;marker:none;visibility:visible;display:inline;overflow:visible;enable-background:accumulate"
       id="rect6294"
       width="45.5"
       height="45.5"
       x="1.25"
       y="1005.6122"
       ry="6.3565426" />
    <rect
       ry="5.8565426"
       y="1006.1122"
       x="1.75"
       height="44.5"
       width="44.5"
       id="rect6296"
       style="color:#000000;fill:url(#linearGradient937);fill-opacity:1.0;fill-rule:nonzero;stroke:none;stroke-width:0.2;marker:none;visibility:visible;display:inline;overflow:visible;enable-background:accumulate" />
    <path
       id="path6361"
       d="m 1.7499882,1012.5498 0,-0.5625 c 0,-3.2445 2.5992199,-5.875 5.8437499,-5.875 l 32.8124999,0 c 3.24452,0 5.84375,2.6305 5.84375,5.875 l 0,0.5625 c 0,-3.2445 -2.59923,-5.875 -5.84375,-5.875 l -32.8124999,0 C 4.3492081,1006.6748 1.7499882,1009.3053 1.7499882,1012.5498 Z"
       style="color:#000000;fill:#ffffff;fill-opacity:1;fill-rule:nonzero;stroke:none;stroke-width:0.2;marker:none;visibility:visible;display:inline;overflow:visible;enable-background:accumulate"
       inkscape:connector-curvature="0" />
    <path
       inkscape:connector-curvature="0"
       style="color:#000000;fill:#000000;fill-opacity:1;fill-rule:nonzero;stroke:none;stroke-width:0.2;marker:none;visibility:visible;display:inline;overflow:visible;enable-background:accumulate"
       d="m 1.7499882,1044.1748 0,0.5625 c 0,3.2445 2.5992199,5.875 5.8437499,5.875 l 32.8124999,0 c 3.24452,0 5.84375,-2.6305 5.84375,-5.875 l 0,-0.5625 c 0,3.2445 -2.59923,5.875 -5.84375,5.875 l -32.8124999,0 C 4.3492081,1050.0498 1.7499882,1047.4193 1.7499882,1044.1748 Z"
       id="path6388" />
    <g
       transform="matrix(0.9047619,0,0,0.9047619,2.2857142,97.600296)"
       id="g903">
      <path
         inkscape:connector-curvature="0"
         id="path857"
         d="m 18.1875,1022.8036 c -0.0038,0.08 -0.01943,0.1576 -0.03125,0.25 l -0.03125,0.125 0.03125,0 C 18.168465,1023.0448 18.195254,1022.9115 18.1875,1022.8036 z m 24.75,0.6563 c -0.03517,0.1161 -0.06318,0.2395 -0.125,0.3437 -0.165264,0.2783 -0.507679,0.5769 -0.8125,0.7188 -0.27715,0.1292 -0.365801,0.1362 -1.125,0.1562 -0.664288,0.017 -0.710231,0 -0.90625,0.062 -0.263502,0.078 -0.555919,0.2206 -0.78125,0.375 -0.227523,0.1559 -0.608087,0.5362 -0.75,0.75 -0.290157,0.437 -0.430966,0.9356 -0.4375,1.4063 0.04886,-0.3903 0.200099,-0.7987 0.4375,-1.1563 0.141913,-0.2138 0.522477,-0.5941 0.75,-0.75 0.225331,-0.1544 0.517748,-0.2971 0.78125,-0.375 0.196019,-0.058 0.241962,-0.045 0.90625,-0.062 0.759199,-0.02 0.84785,-0.027 1.125,-0.1562 0.304821,-0.1419 0.647236,-0.4405 0.8125,-0.7188 0.09026,-0.1521 0.176206,-0.3857 0.1875,-0.5 l 0,-0.094 L 42.9375,1023.4599 z m -36.53125,0.375 c 0.0074,0.1028 -0.015267,0.1926 0,0.25 0.095366,0.3583 0.3593375,0.6728 0.71875,0.8125 0.1208015,0.047 0.180984,0.047 0.78125,0.062 0.7169735,0.018 0.873658,0.038 1.15625,0.1562 0.463632,0.1943 0.8666475,0.6649 1,1.1875 -0.0071,-0.084 0.01852,-0.1774 0,-0.25 -0.1333525,-0.5226 -0.536368,-0.9932 -1,-1.1875 -0.282592,-0.1182 -0.4392765,-0.1382 -1.15625,-0.1562 -0.600266,-0.014 -0.6604485,-0.015 -0.78125,-0.062 C 6.7655875,1024.5077 6.501616,1024.1932 6.40625,1023.8349 z m 9.9375,0.5 c -0.0051,0 -0.05727,0.048 -0.125,0.094 -0.161614,0.1099 -0.352728,0.1648 -0.5625,0.2188 -0.139026,0.035 -0.226201,0.062 -0.59375,0.062 -0.768034,0 -1.13757,0.063 -1.53125,0.25 -0.558607,0.2651 -1.103712,0.8018 -1.375,1.3437 -0.15152,0.3027 -0.250379,0.76 -0.25,1.0938 5.4e-5,0.042 -0.0031,0.083 0,0.125 0.01855,-0.3184 0.115107,-0.6993 0.25,-0.9688 0.271288,-0.5419 0.816393,-1.0786 1.375,-1.3437 0.39368,-0.1868 0.763216,-0.25 1.53125,-0.25 0.367549,0 0.454724,-0.028 0.59375,-0.062 0.209772,-0.054 0.400886,-0.1089 0.5625,-0.2188 0.04877,-0.033 0.07288,-0.046 0.09375,-0.062 C 16.312382,1024.5894 16.348916,1024.3349 16.34375,1024.3349 z m 1.59375,0.3437 -0.03125,0.062 c -0.01204,0.029 -0.09718,0.5627 -0.1875,1.1875 -0.110812,0.7665 -0.154758,1.1199 -0.15625,1.375 0.0193,-0.2493 0.07704,-0.5771 0.15625,-1.125 0.09032,-0.6248 0.175456,-1.1583 0.1875,-1.1875 l 0.03125,-0.062 1.25,0 c 1.435633,0.01 1.437158,0.01 1.8125,0.1875 0.527306,0.2542 0.887893,0.7646 1,1.3438 -0.04361,-0.6787 -0.39889,-1.304 -1,-1.5938 -0.375342,-0.1775 -0.376867,-0.1775 -1.8125,-0.1875 L 17.9375,1024.6786 z m 9.28125,0 c -0.08776,0.01 -0.139384,0.042 -0.21875,0.062 -0.735615,0.1942 -1.401755,0.7527 -1.75,1.4688 -0.0685,0.1409 -0.13066,0.3375 -0.15625,0.4375 -0.0256,0.099 -0.12335,0.7213 -0.21875,1.375 -0.03881,0.2659 -0.08925,0.4995 -0.125,0.7187 -0.02566,0.1574 -0.04349,0.239 -0.0625,0.3438 -0.01086,0.06 -0.02365,0.1202 -0.03125,0.1562 -0.01565,0.073 -0.01596,0.1365 -0.03125,0.1875 -0.109471,0.322 -0.329231,0.5934 -0.59375,0.8125 -0.03813,0.032 -0.0846,0.066 -0.125,0.094 -0.01742,0.011 -0.01344,0.02 -0.03125,0.031 -0.04108,0.027 -0.082,0.071 -0.125,0.094 -0.123343,0.068 -0.270853,0.1202 -0.40625,0.1562 -0.158267,0.047 -0.313322,0.048 -0.375,0.031 -0.01118,0.068 -0.03744,0.2461 -0.03125,0.25 0.04016,0.025 0.230398,0.021 0.40625,-0.031 0.135397,-0.036 0.282907,-0.088 0.40625,-0.1562 0.043,-0.023 0.08392,-0.067 0.125,-0.094 0.01781,-0.011 0.01383,-0.02 0.03125,-0.031 0.0404,-0.028 0.08687,-0.062 0.125,-0.094 0.264519,-0.2191 0.484279,-0.4905 0.59375,-0.8125 0.01529,-0.051 0.0156,-0.1149 0.03125,-0.1875 0.0076,-0.036 0.02039,-0.096 0.03125,-0.1562 0.01901,-0.1048 0.03684,-0.1864 0.0625,-0.3438 0.03575,-0.2192 0.08619,-0.4528 0.125,-0.7187 0.0954,-0.6537 0.193154,-1.2756 0.21875,-1.375 0.02559,-0.1 0.08775,-0.2966 0.15625,-0.4375 0.348245,-0.7161 1.014385,-1.2746 1.75,-1.4688 0.158732,-0.042 0.267079,-0.062 0.59375,-0.062 0.453546,0 0.616311,0.052 0.9375,0.2188 0.370893,0.192 0.738469,0.613 0.875,1.0312 0.03702,0.1134 0.07617,0.2137 0.09375,0.3125 -0.0038,-0.2077 -0.0298,-0.3666 -0.09375,-0.5625 -0.136531,-0.4182 -0.504107,-0.8392 -0.875,-1.0312 -0.321189,-0.1668 -0.483954,-0.2188 -0.9375,-0.2188 C 27.430415,1024.6786 27.306512,1024.6684 27.21875,1024.6786 z m 6.375,0 c -0.404113,8e-4 -0.517307,0.017 -0.8125,0.125 -0.685999,0.2519 -1.322693,0.8749 -1.59375,1.5625 -0.09557,0.2425 -0.167471,0.5285 -0.4375,2.375 -0.152664,1.044 -0.26901,1.8963 -0.28125,1.9063 -0.03774,0.024 -0.338062,-0.014 -0.46875,-0.062 -0.381552,-0.1428 -0.711786,-0.4884 -0.8125,-0.875 0.0026,0.078 -0.01597,0.1886 0,0.25 0.100714,0.3866 0.430948,0.7322 0.8125,0.875 0.130688,0.049 0.431007,0.085 0.46875,0.062 0.01224,-0.01 0.128586,-0.8623 0.28125,-1.9063 0.270029,-1.8465 0.34193,-2.1325 0.4375,-2.375 0.271057,-0.6876 0.907751,-1.3106 1.59375,-1.5625 0.295193,-0.1084 0.408387,-0.1242 0.8125,-0.125 0.457626,0 0.575815,0.026 0.90625,0.1875 0.348819,0.1713 0.66022,0.5177 0.84375,0.9063 0.06819,0.1443 0.102889,0.2286 0.125,0.3437 -0.01107,-0.2282 -0.0206,-0.3727 -0.125,-0.5937 -0.18353,-0.3886 -0.494931,-0.735 -0.84375,-0.9063 C 34.169565,1024.7046 34.051376,1024.6786 33.59375,1024.6786 z m -9.9375,1.6563 -0.03125,0.1875 c 0.0043,-0.064 0.02649,-0.08 0.03125,-0.125 L 23.65625,1026.3349 z m -7.6875,1.3125 c -5.19e-4,0.046 -1.22e-4,0.1007 0,0.1562 0.0019,0.8645 0.306859,1.5552 0.9375,2.1875 0.356635,0.3576 0.696376,0.5878 1.15625,0.75 0.18189,0.064 0.573821,0.1657 0.78125,0.1875 0.179082,0.019 0.660586,-0.01 0.84375,-0.031 0.835427,-0.101 1.580111,-0.4104 2.28125,-0.9688 0.525542,-0.4186 0.914133,-0.8947 1.21875,-1.4687 0.03817,-0.072 0.06941,-0.094 0.09375,-0.125 0.002,-0.01 -0.0022,-0.019 0,-0.031 -0.0026,0.01 0.0019,-0.041 0,-0.031 -0.01569,0.052 -0.02056,0.044 0.03125,-0.25 -0.0034,0 -0.06986,0.084 -0.125,0.1875 -0.304617,0.574 -0.693208,1.0501 -1.21875,1.4687 -0.701139,0.5584 -1.445823,0.8678 -2.28125,0.9688 -0.183164,0.021 -0.664668,0.05 -0.84375,0.031 -0.207429,-0.022 -0.59936,-0.1235 -0.78125,-0.1875 -0.459874,-0.1622 -0.799615,-0.3924 -1.15625,-0.75 C 16.299024,1029.1323 15.992278,1028.4675 15.96875,1027.6474 z m -5.34375,1.3437 c -0.0031,0 -0.124179,0.095 -0.25,0.2188 -0.7185105,0.7074 -1.5358455,1.1732 -2.375,1.3437 -0.4002935,0.079 -0.698862,0.1038 -1.875,0.094 l -1.0625,-0.031 c -0.033371,0.073 -0.058967,0.1434 -0.0625,0.1875 l 0,0.062 1.125,0.031 c 1.176138,0.01 1.4747065,-0.015 1.875,-0.094 0.8391545,-0.1705 1.6564895,-0.6363 2.375,-1.3437 0.125821,-0.1239 0.246932,-0.2188 0.25,-0.2188 0.003,0 0.064,0.085 0.125,0.1875 0.368347,0.6207 0.919456,1.0583 1.59375,1.2813 0.457546,0.1513 0.533552,0.1774 1.96875,0.1875 l 1.28125,0 0.03125,-0.062 c 0.02455,-0.065 0.04245,-0.2294 0.03125,-0.375 -0.0047,0.043 -0.02259,0.1021 -0.03125,0.125 l -0.03125,0.062 -1.28125,0 c -1.435198,-0.01 -1.511204,-0.036 -1.96875,-0.1875 -0.674294,-0.223 -1.225403,-0.6606 -1.59375,-1.2813 C 10.689,1029.0761 10.628,1028.9911 10.625,1028.9911 z m 26.15625,0 c -0.02949,0 -0.03018,0.01 -0.15625,0.875 -0.06236,0.4285 -0.1176,0.7713 -0.125,0.7813 -0.02252,0.022 -0.228675,0.01 -0.375,-0.031 -0.387504,-0.099 -0.730082,-0.4219 -0.875,-0.8125 -0.0273,-0.074 -0.05126,-0.143 -0.0625,-0.2187 -0.0086,0.2088 0.01094,0.3297 0.0625,0.4687 0.144918,0.3906 0.487496,0.7133 0.875,0.8125 0.146325,0.038 0.352484,0.053 0.375,0.031 0.0074,-0.01 0.06264,-0.3528 0.125,-0.7813 0.126071,-0.8662 0.126762,-0.875 0.15625,-0.875 0.01148,0 0.05401,0.055 0.09375,0.125 0.186336,0.3257 0.582832,0.7388 0.90625,0.9688 0.353206,0.2512 0.785933,0.4443 1.25,0.5312 0.230504,0.043 0.382719,0.053 1.53125,0.062 0.693805,0.01 1.281608,0.01 1.3125,0 0.05424,-0.014 0.06305,-0.025 0.0625,-0.2187 -7.5e-5,-0.022 0.0013,-0.039 0,-0.062 -0.0089,0.029 -0.03538,0.024 -0.0625,0.031 -0.03089,0.01 -0.618695,0.01 -1.3125,0 -1.148531,-0.01 -1.300746,-0.019 -1.53125,-0.062 -0.464067,-0.087 -0.896794,-0.28 -1.25,-0.5312 -0.323418,-0.23 -0.719914,-0.6431 -0.90625,-0.9688 C 36.83526,1029.0461 36.79273,1028.9911 36.78125,1028.9911 Z M 3,1034.1161 l 0,0.25 c 5.39846,-0.017 17.179416,0.029 21.15625,0.094 6.723589,0.153 14.262266,0.2338 20.71875,1.1562 0.0037,0.01 -0.02332,0.025 -0.03125,0.031 0.03614,-0.017 0.09552,-0.038 0.125,-0.031 0.0032,0 0.02719,-10e-5 0.03125,0 l 0,-0.25 c -0.0041,-10e-5 -0.02805,0 -0.03125,0 -0.02948,-0.01 -0.08886,0.014 -0.125,0.031 0.0079,-0.01 0.03495,-0.021 0.03125,-0.031 -6.456484,-0.9224 -13.995161,-1.0032 -20.71875,-1.1562 C 20.179416,1034.1449 8.39846,1034.0991 3,1034.1161 Z"
         style="fill:#000000;fill-opacity:0.23529412" />
      <path
         style="fill:#000000;fill-opacity:0.11764706"
         d="m 18.1875,1023.0536 c -0.0038,0.08 -0.01943,0.1576 -0.03125,0.25 l -0.03125,0.125 0.03125,0 C 18.168465,1023.2948 18.195254,1023.1615 18.1875,1023.0536 z m 24.75,0.6563 c -0.03517,0.1161 -0.06318,0.2395 -0.125,0.3437 -0.165264,0.2783 -0.507679,0.5769 -0.8125,0.7188 -0.27715,0.1292 -0.365801,0.1362 -1.125,0.1562 -0.664288,0.017 -0.710231,0 -0.90625,0.062 -0.263502,0.078 -0.555919,0.2206 -0.78125,0.375 -0.227523,0.1559 -0.608087,0.5362 -0.75,0.75 -0.290157,0.437 -0.430966,0.9356 -0.4375,1.4063 0.04886,-0.3903 0.200099,-0.7987 0.4375,-1.1563 0.141913,-0.2138 0.522477,-0.5941 0.75,-0.75 0.225331,-0.1544 0.517748,-0.2971 0.78125,-0.375 0.196019,-0.058 0.241962,-0.045 0.90625,-0.062 0.759199,-0.02 0.84785,-0.027 1.125,-0.1562 0.304821,-0.1419 0.647236,-0.4405 0.8125,-0.7188 0.09026,-0.1521 0.176206,-0.3857 0.1875,-0.5 l 0,-0.094 L 42.9375,1023.7099 z m -36.53125,0.375 c 0.0074,0.1028 -0.015267,0.1926 0,0.25 0.095366,0.3583 0.3593375,0.6728 0.71875,0.8125 0.1208015,0.047 0.180984,0.047 0.78125,0.062 0.7169735,0.018 0.873658,0.038 1.15625,0.1562 0.463632,0.1943 0.8666475,0.6649 1,1.1875 -0.0071,-0.084 0.01852,-0.1774 0,-0.25 -0.1333525,-0.5226 -0.536368,-0.9932 -1,-1.1875 -0.282592,-0.1182 -0.4392765,-0.1382 -1.15625,-0.1562 -0.600266,-0.014 -0.6604485,-0.015 -0.78125,-0.062 C 6.7655875,1024.7577 6.501616,1024.4432 6.40625,1024.0849 z m 9.9375,0.5 c -0.0051,0 -0.05727,0.048 -0.125,0.094 -0.161614,0.1099 -0.352728,0.1648 -0.5625,0.2188 -0.139026,0.035 -0.226201,0.062 -0.59375,0.062 -0.768034,0 -1.13757,0.063 -1.53125,0.25 -0.558607,0.2651 -1.103712,0.8018 -1.375,1.3437 -0.15152,0.3027 -0.250379,0.76 -0.25,1.0938 5.4e-5,0.042 -0.0031,0.083 0,0.125 0.01855,-0.3184 0.115107,-0.6993 0.25,-0.9688 0.271288,-0.5419 0.816393,-1.0786 1.375,-1.3437 0.39368,-0.1868 0.763216,-0.25 1.53125,-0.25 0.367549,0 0.454724,-0.028 0.59375,-0.062 0.209772,-0.054 0.400886,-0.1089 0.5625,-0.2188 0.04877,-0.033 0.07288,-0.046 0.09375,-0.062 C 16.312382,1024.8394 16.348916,1024.5849 16.34375,1024.5849 z m 1.59375,0.3437 -0.03125,0.062 c -0.01204,0.029 -0.09718,0.5627 -0.1875,1.1875 -0.110812,0.7665 -0.154758,1.1199 -0.15625,1.375 0.0193,-0.2493 0.07704,-0.5771 0.15625,-1.125 0.09032,-0.6248 0.175456,-1.1583 0.1875,-1.1875 l 0.03125,-0.062 1.25,0 c 1.435633,0.01 1.437158,0.01 1.8125,0.1875 0.527306,0.2542 0.887893,0.7646 1,1.3438 -0.04361,-0.6787 -0.39889,-1.304 -1,-1.5938 -0.375342,-0.1775 -0.376867,-0.1775 -1.8125,-0.1875 L 17.9375,1024.9286 z m 9.28125,0 c -0.08776,0.01 -0.139384,0.042 -0.21875,0.062 -0.735615,0.1942 -1.401755,0.7527 -1.75,1.4688 -0.0685,0.1409 -0.13066,0.3375 -0.15625,0.4375 -0.0256,0.099 -0.12335,0.7213 -0.21875,1.375 -0.03881,0.2659 -0.08925,0.4995 -0.125,0.7187 -0.02566,0.1574 -0.04349,0.239 -0.0625,0.3438 -0.01086,0.06 -0.02365,0.1202 -0.03125,0.1562 -0.01565,0.073 -0.01596,0.1365 -0.03125,0.1875 -0.109471,0.322 -0.329231,0.5934 -0.59375,0.8125 -0.03813,0.032 -0.0846,0.066 -0.125,0.094 -0.01742,0.011 -0.01344,0.02 -0.03125,0.031 -0.04108,0.027 -0.082,0.071 -0.125,0.094 -0.123343,0.068 -0.270853,0.1202 -0.40625,0.1562 -0.158267,0.047 -0.313322,0.048 -0.375,0.031 -0.01118,0.068 -0.03744,0.2461 -0.03125,0.25 0.04016,0.025 0.230398,0.021 0.40625,-0.031 0.135397,-0.036 0.282907,-0.088 0.40625,-0.1562 0.043,-0.023 0.08392,-0.067 0.125,-0.094 0.01781,-0.011 0.01383,-0.02 0.03125,-0.031 0.0404,-0.028 0.08687,-0.062 0.125,-0.094 0.264519,-0.2191 0.484279,-0.4905 0.59375,-0.8125 0.01529,-0.051 0.0156,-0.1149 0.03125,-0.1875 0.0076,-0.036 0.02039,-0.096 0.03125,-0.1562 0.01901,-0.1048 0.03684,-0.1864 0.0625,-0.3438 0.03575,-0.2192 0.08619,-0.4528 0.125,-0.7187 0.0954,-0.6537 0.193154,-1.2756 0.21875,-1.375 0.02559,-0.1 0.08775,-0.2966 0.15625,-0.4375 0.348245,-0.7161 1.014385,-1.2746 1.75,-1.4688 0.158732,-0.042 0.267079,-0.062 0.59375,-0.062 0.453546,0 0.616311,0.052 0.9375,0.2188 0.370893,0.192 0.738469,0.613 0.875,1.0312 0.03702,0.1134 0.07617,0.2137 0.09375,0.3125 -0.0038,-0.2077 -0.0298,-0.3666 -0.09375,-0.5625 -0.136531,-0.4182 -0.504107,-0.8392 -0.875,-1.0312 -0.321189,-0.1668 -0.483954,-0.2188 -0.9375,-0.2188 C 27.430415,1024.9286 27.306512,1024.9184 27.21875,1024.9286 z m 6.375,0 c -0.404113,8e-4 -0.517307,0.017 -0.8125,0.125 -0.685999,0.2519 -1.322693,0.8749 -1.59375,1.5625 -0.09557,0.2425 -0.167471,0.5285 -0.4375,2.375 -0.152664,1.044 -0.26901,1.8963 -0.28125,1.9063 -0.03774,0.024 -0.338062,-0.014 -0.46875,-0.062 -0.381552,-0.1428 -0.711786,-0.4884 -0.8125,-0.875 0.0026,0.078 -0.01597,0.1886 0,0.25 0.100714,0.3866 0.430948,0.7322 0.8125,0.875 0.130688,0.049 0.431007,0.085 0.46875,0.062 0.01224,-0.01 0.128586,-0.8623 0.28125,-1.9063 0.270029,-1.8465 0.34193,-2.1325 0.4375,-2.375 0.271057,-0.6876 0.907751,-1.3106 1.59375,-1.5625 0.295193,-0.1084 0.408387,-0.1242 0.8125,-0.125 0.457626,0 0.575815,0.026 0.90625,0.1875 0.348819,0.1713 0.66022,0.5177 0.84375,0.9063 0.06819,0.1443 0.102889,0.2286 0.125,0.3437 -0.01107,-0.2282 -0.0206,-0.3727 -0.125,-0.5937 -0.18353,-0.3886 -0.494931,-0.735 -0.84375,-0.9063 C 34.169565,1024.9546 34.051376,1024.9286 33.59375,1024.9286 z m -9.9375,1.6563 -0.03125,0.1875 c 0.0043,-0.064 0.02649,-0.08 0.03125,-0.125 L 23.65625,1026.5849 z m -7.6875,1.3125 c -5.19e-4,0.046 -1.22e-4,0.1007 0,0.1562 0.0019,0.8645 0.306859,1.5552 0.9375,2.1875 0.356635,0.3576 0.696376,0.5878 1.15625,0.75 0.18189,0.064 0.573821,0.1657 0.78125,0.1875 0.179082,0.019 0.660586,-0.01 0.84375,-0.031 0.835427,-0.101 1.580111,-0.4104 2.28125,-0.9688 0.525542,-0.4186 0.914133,-0.8947 1.21875,-1.4687 0.03817,-0.072 0.06941,-0.094 0.09375,-0.125 0.002,-0.01 -0.0022,-0.019 0,-0.031 -0.0026,0.01 0.0019,-0.041 0,-0.031 -0.01569,0.052 -0.02056,0.044 0.03125,-0.25 -0.0034,0 -0.06986,0.084 -0.125,0.1875 -0.304617,0.574 -0.693208,1.0501 -1.21875,1.4687 -0.701139,0.5584 -1.445823,0.8678 -2.28125,0.9688 -0.183164,0.021 -0.664668,0.05 -0.84375,0.031 -0.207429,-0.022 -0.59936,-0.1235 -0.78125,-0.1875 -0.459874,-0.1622 -0.799615,-0.3924 -1.15625,-0.75 C 16.299024,1029.3823 15.992278,1028.7175 15.96875,1027.8974 z m -5.34375,1.3437 c -0.0031,0 -0.124179,0.095 -0.25,0.2188 -0.7185105,0.7074 -1.5358455,1.1732 -2.375,1.3437 -0.4002935,0.079 -0.698862,0.1038 -1.875,0.094 l -1.0625,-0.031 c -0.033371,0.073 -0.058967,0.1434 -0.0625,0.1875 l 0,0.062 1.125,0.031 c 1.176138,0.01 1.4747065,-0.015 1.875,-0.094 0.8391545,-0.1705 1.6564895,-0.6363 2.375,-1.3437 0.125821,-0.1239 0.246932,-0.2188 0.25,-0.2188 0.003,0 0.064,0.085 0.125,0.1875 0.368347,0.6207 0.919456,1.0583 1.59375,1.2813 0.457546,0.1513 0.533552,0.1774 1.96875,0.1875 l 1.28125,0 0.03125,-0.062 c 0.02455,-0.065 0.04245,-0.2294 0.03125,-0.375 -0.0047,0.043 -0.02259,0.1021 -0.03125,0.125 l -0.03125,0.062 -1.28125,0 c -1.435198,-0.01 -1.511204,-0.036 -1.96875,-0.1875 -0.674294,-0.223 -1.225403,-0.6606 -1.59375,-1.2813 C 10.689,1029.3261 10.628,1029.2411 10.625,1029.2411 z m 26.15625,0 c -0.02949,0 -0.03018,0.01 -0.15625,0.875 -0.06236,0.4285 -0.1176,0.7713 -0.125,0.7813 -0.02252,0.022 -0.228675,0.01 -0.375,-0.031 -0.387504,-0.099 -0.730082,-0.4219 -0.875,-0.8125 -0.0273,-0.074 -0.05126,-0.143 -0.0625,-0.2187 -0.0086,0.2088 0.01094,0.3297 0.0625,0.4687 0.144918,0.3906 0.487496,0.7133 0.875,0.8125 0.146325,0.038 0.352484,0.053 0.375,0.031 0.0074,-0.01 0.06264,-0.3528 0.125,-0.7813 0.126071,-0.8662 0.126762,-0.875 0.15625,-0.875 0.01148,0 0.05401,0.055 0.09375,0.125 0.186336,0.3257 0.582832,0.7388 0.90625,0.9688 0.353206,0.2512 0.785933,0.4443 1.25,0.5312 0.230504,0.043 0.382719,0.053 1.53125,0.062 0.693805,0.01 1.281608,0.01 1.3125,0 0.05424,-0.014 0.06305,-0.025 0.0625,-0.2187 -7.5e-5,-0.022 0.0013,-0.039 0,-0.062 -0.0089,0.029 -0.03538,0.024 -0.0625,0.031 -0.03089,0.01 -0.618695,0.01 -1.3125,0 -1.148531,-0.01 -1.300746,-0.019 -1.53125,-0.062 -0.464067,-0.087 -0.896794,-0.28 -1.25,-0.5312 -0.323418,-0.23 -0.719914,-0.6431 -0.90625,-0.9688 C 36.83526,1029.2961 36.79273,1029.2411 36.78125,1029.2411 Z M 3,1034.3661 l 0,0.25 c 5.39846,-0.017 17.179416,0.029 21.15625,0.094 6.723589,0.153 14.262266,0.2338 20.71875,1.1562 0.0037,0.01 -0.02332,0.025 -0.03125,0.031 0.03614,-0.017 0.09552,-0.038 0.125,-0.031 0.0032,0 0.02719,-10e-5 0.03125,0 l 0,-0.25 c -0.0041,-10e-5 -0.02805,0 -0.03125,0 -0.02948,-0.01 -0.08886,0.014 -0.125,0.031 0.0079,-0.01 0.03495,-0.021 0.03125,-0.031 -6.456484,-0.9224 -13.995161,-1.0032 -20.71875,-1.1562 C 20.179416,1034.3949 8.39846,1034.3491 3,1034.3661 Z"
         id="path872"
         inkscape:connector-curvature="0" />
      <path
         inkscape:connector-curvature="0"
         id="path874"
         d="m 18.1875,1023.3036 c -0.0038,0.08 -0.01943,0.1576 -0.03125,0.25 l -0.03125,0.125 0.03125,0 C 18.168465,1023.5448 18.195254,1023.4115 18.1875,1023.3036 z m 24.75,0.6563 c -0.03517,0.1161 -0.06318,0.2395 -0.125,0.3437 -0.165264,0.2783 -0.507679,0.5769 -0.8125,0.7188 -0.27715,0.1292 -0.365801,0.1362 -1.125,0.1562 -0.664288,0.017 -0.710231,0 -0.90625,0.062 -0.263502,0.078 -0.555919,0.2206 -0.78125,0.375 -0.227523,0.1559 -0.608087,0.5362 -0.75,0.75 -0.290157,0.437 -0.430966,0.9356 -0.4375,1.4063 0.04886,-0.3903 0.200099,-0.7987 0.4375,-1.1563 0.141913,-0.2138 0.522477,-0.5941 0.75,-0.75 0.225331,-0.1544 0.517748,-0.2971 0.78125,-0.375 0.196019,-0.058 0.241962,-0.045 0.90625,-0.062 0.759199,-0.02 0.84785,-0.027 1.125,-0.1562 0.304821,-0.1419 0.647236,-0.4405 0.8125,-0.7188 0.09026,-0.1521 0.176206,-0.3857 0.1875,-0.5 l 0,-0.094 L 42.9375,1023.9599 z m -36.53125,0.375 c 0.0074,0.1028 -0.015267,0.1926 0,0.25 0.095366,0.3583 0.3593375,0.6728 0.71875,0.8125 0.1208015,0.047 0.180984,0.047 0.78125,0.062 0.7169735,0.018 0.873658,0.038 1.15625,0.1562 0.463632,0.1943 0.8666475,0.6649 1,1.1875 -0.0071,-0.084 0.01852,-0.1774 0,-0.25 -0.1333525,-0.5226 -0.536368,-0.9932 -1,-1.1875 -0.282592,-0.1182 -0.4392765,-0.1382 -1.15625,-0.1562 -0.600266,-0.014 -0.6604485,-0.015 -0.78125,-0.062 C 6.7655875,1025.0077 6.501616,1024.6932 6.40625,1024.3349 z m 9.9375,0.5 c -0.0051,0 -0.05727,0.048 -0.125,0.094 -0.161614,0.1099 -0.352728,0.1648 -0.5625,0.2188 -0.139026,0.035 -0.226201,0.062 -0.59375,0.062 -0.768034,0 -1.13757,0.063 -1.53125,0.25 -0.558607,0.2651 -1.103712,0.8018 -1.375,1.3437 -0.15152,0.3027 -0.250379,0.76 -0.25,1.0938 5.4e-5,0.042 -0.0031,0.083 0,0.125 0.01855,-0.3184 0.115107,-0.6993 0.25,-0.9688 0.271288,-0.5419 0.816393,-1.0786 1.375,-1.3437 0.39368,-0.1868 0.763216,-0.25 1.53125,-0.25 0.367549,0 0.454724,-0.028 0.59375,-0.062 0.209772,-0.054 0.400886,-0.1089 0.5625,-0.2188 0.04877,-0.033 0.07288,-0.046 0.09375,-0.062 C 16.312382,1025.0894 16.348916,1024.8349 16.34375,1024.8349 z m 1.59375,0.3437 -0.03125,0.062 c -0.01204,0.029 -0.09718,0.5627 -0.1875,1.1875 -0.110812,0.7665 -0.154758,1.1199 -0.15625,1.375 0.0193,-0.2493 0.07704,-0.5771 0.15625,-1.125 0.09032,-0.6248 0.175456,-1.1583 0.1875,-1.1875 l 0.03125,-0.062 1.25,0 c 1.435633,0.01 1.437158,0.01 1.8125,0.1875 0.527306,0.2542 0.887893,0.7646 1,1.3438 -0.04361,-0.6787 -0.39889,-1.304 -1,-1.5938 -0.375342,-0.1775 -0.376867,-0.1775 -1.8125,-0.1875 L 17.9375,1025.1786 z m 9.28125,0 c -0.08776,0.01 -0.139384,0.042 -0.21875,0.062 -0.735615,0.1942 -1.401755,0.7527 -1.75,1.4688 -0.0685,0.1409 -0.13066,0.3375 -0.15625,0.4375 -0.0256,0.099 -0.12335,0.7213 -0.21875,1.375 -0.03881,0.2659 -0.08925,0.4995 -0.125,0.7187 -0.02566,0.1574 -0.04349,0.239 -0.0625,0.3438 -0.01086,0.06 -0.02365,0.1202 -0.03125,0.1562 -0.01565,0.073 -0.01596,0.1365 -0.03125,0.1875 -0.109471,0.322 -0.329231,0.5934 -0.59375,0.8125 -0.03813,0.032 -0.0846,0.066 -0.125,0.094 -0.01742,0.011 -0.01344,0.02 -0.03125,0.031 -0.04108,0.027 -0.082,0.071 -0.125,0.094 -0.123343,0.068 -0.270853,0.1202 -0.40625,0.1562 -0.158267,0.047 -0.313322,0.048 -0.375,0.031 -0.01118,0.068 -0.03744,0.2461 -0.03125,0.25 0.04016,0.025 0.230398,0.021 0.40625,-0.031 0.135397,-0.036 0.282907,-0.088 0.40625,-0.1562 0.043,-0.023 0.08392,-0.067 0.125,-0.094 0.01781,-0.011 0.01383,-0.02 0.03125,-0.031 0.0404,-0.028 0.08687,-0.062 0.125,-0.094 0.264519,-0.2191 0.484279,-0.4905 0.59375,-0.8125 0.01529,-0.051 0.0156,-0.1149 0.03125,-0.1875 0.0076,-0.036 0.02039,-0.096 0.03125,-0.1562 0.01901,-0.1048 0.03684,-0.1864 0.0625,-0.3438 0.03575,-0.2192 0.08619,-0.4528 0.125,-0.7187 0.0954,-0.6537 0.193154,-1.2756 0.21875,-1.375 0.02559,-0.1 0.08775,-0.2966 0.15625,-0.4375 0.348245,-0.7161 1.014385,-1.2746 1.75,-1.4688 0.158732,-0.042 0.267079,-0.062 0.59375,-0.062 0.453546,0 0.616311,0.052 0.9375,0.2188 0.370893,0.192 0.738469,0.613 0.875,1.0312 0.03702,0.1134 0.07617,0.2137 0.09375,0.3125 -0.0038,-0.2077 -0.0298,-0.3666 -0.09375,-0.5625 -0.136531,-0.4182 -0.504107,-0.8392 -0.875,-1.0312 -0.321189,-0.1668 -0.483954,-0.2188 -0.9375,-0.2188 C 27.430415,1025.1786 27.306512,1025.1684 27.21875,1025.1786 z m 6.375,0 c -0.404113,8e-4 -0.517307,0.017 -0.8125,0.125 -0.685999,0.2519 -1.322693,0.8749 -1.59375,1.5625 -0.09557,0.2425 -0.167471,0.5285 -0.4375,2.375 -0.152664,1.044 -0.26901,1.8963 -0.28125,1.9063 -0.03774,0.024 -0.338062,-0.014 -0.46875,-0.062 -0.381552,-0.1428 -0.711786,-0.4884 -0.8125,-0.875 0.0026,0.078 -0.01597,0.1886 0,0.25 0.100714,0.3866 0.430948,0.7322 0.8125,0.875 0.130688,0.049 0.431007,0.085 0.46875,0.062 0.01224,-0.01 0.128586,-0.8623 0.28125,-1.9063 0.270029,-1.8465 0.34193,-2.1325 0.4375,-2.375 0.271057,-0.6876 0.907751,-1.3106 1.59375,-1.5625 0.295193,-0.1084 0.408387,-0.1242 0.8125,-0.125 0.457626,0 0.575815,0.026 0.90625,0.1875 0.348819,0.1713 0.66022,0.5177 0.84375,0.9063 0.06819,0.1443 0.102889,0.2286 0.125,0.3437 -0.01107,-0.2282 -0.0206,-0.3727 -0.125,-0.5937 -0.18353,-0.3886 -0.494931,-0.735 -0.84375,-0.9063 C 34.169565,1025.2046 34.051376,1025.1786 33.59375,1025.1786 z m -9.9375,1.6563 -0.03125,0.1875 c 0.0043,-0.064 0.02649,-0.08 0.03125,-0.125 L 23.65625,1026.8349 z m -7.6875,1.3125 c -5.19e-4,0.046 -1.22e-4,0.1007 0,0.1562 0.0019,0.8645 0.306859,1.5552 0.9375,2.1875 0.356635,0.3576 0.696376,0.5878 1.15625,0.75 0.18189,0.064 0.573821,0.1657 0.78125,0.1875 0.179082,0.019 0.660586,-0.01 0.84375,-0.031 0.835427,-0.101 1.580111,-0.4104 2.28125,-0.9688 0.525542,-0.4186 0.914133,-0.8947 1.21875,-1.4687 0.03817,-0.072 0.06941,-0.094 0.09375,-0.125 0.002,-0.01 -0.0022,-0.019 0,-0.031 -0.0026,0.01 0.0019,-0.041 0,-0.031 -0.01569,0.052 -0.02056,0.044 0.03125,-0.25 -0.0034,0 -0.06986,0.084 -0.125,0.1875 -0.304617,0.574 -0.693208,1.0501 -1.21875,1.4687 -0.701139,0.5584 -1.445823,0.8678 -2.28125,0.9688 -0.183164,0.021 -0.664668,0.05 -0.84375,0.031 -0.207429,-0.022 -0.59936,-0.1235 -0.78125,-0.1875 -0.459874,-0.1622 -0.799615,-0.3924 -1.15625,-0.75 C 16.299024,1029.6323 15.992278,1028.9675 15.96875,1028.1474 z m -5.34375,1.3437 c -0.0031,0 -0.124179,0.095 -0.25,0.2188 -0.7185105,0.7074 -1.5358455,1.1732 -2.375,1.3437 -0.4002935,0.079 -0.698862,0.1038 -1.875,0.094 l -1.0625,-0.031 c -0.033371,0.073 -0.058967,0.1434 -0.0625,0.1875 l 0,0.062 1.125,0.031 c 1.176138,0.01 1.4747065,-0.015 1.875,-0.094 0.8391545,-0.1705 1.6564895,-0.6363 2.375,-1.3437 0.125821,-0.1239 0.246932,-0.2188 0.25,-0.2188 0.003,0 0.064,0.085 0.125,0.1875 0.368347,0.6207 0.919456,1.0583 1.59375,1.2813 0.457546,0.1513 0.533552,0.1774 1.96875,0.1875 l 1.28125,0 0.03125,-0.062 c 0.02455,-0.065 0.04245,-0.2294 0.03125,-0.375 -0.0047,0.043 -0.02259,0.1021 -0.03125,0.125 l -0.03125,0.062 -1.28125,0 c -1.435198,-0.01 -1.511204,-0.036 -1.96875,-0.1875 -0.674294,-0.223 -1.225403,-0.6606 -1.59375,-1.2813 C 10.689,1029.5761 10.628,1029.4911 10.625,1029.4911 z m 26.15625,0 c -0.02949,0 -0.03018,0.01 -0.15625,0.875 -0.06236,0.4285 -0.1176,0.7713 -0.125,0.7813 -0.02252,0.022 -0.228675,0.01 -0.375,-0.031 -0.387504,-0.099 -0.730082,-0.4219 -0.875,-0.8125 -0.0273,-0.074 -0.05126,-0.143 -0.0625,-0.2187 -0.0086,0.2088 0.01094,0.3297 0.0625,0.4687 0.144918,0.3906 0.487496,0.7133 0.875,0.8125 0.146325,0.038 0.352484,0.053 0.375,0.031 0.0074,-0.01 0.06264,-0.3528 0.125,-0.7813 0.126071,-0.8662 0.126762,-0.875 0.15625,-0.875 0.01148,0 0.05401,0.055 0.09375,0.125 0.186336,0.3257 0.582832,0.7388 0.90625,0.9688 0.353206,0.2512 0.785933,0.4443 1.25,0.5312 0.230504,0.043 0.382719,0.053 1.53125,0.062 0.693805,0.01 1.281608,0.01 1.3125,0 0.05424,-0.014 0.06305,-0.025 0.0625,-0.2187 -7.5e-5,-0.022 0.0013,-0.039 0,-0.062 -0.0089,0.029 -0.03538,0.024 -0.0625,0.031 -0.03089,0.01 -0.618695,0.01 -1.3125,0 -1.148531,-0.01 -1.300746,-0.019 -1.53125,-0.062 -0.464067,-0.087 -0.896794,-0.28 -1.25,-0.5312 -0.323418,-0.23 -0.719914,-0.6431 -0.90625,-0.9688 C 36.83526,1029.5461 36.79273,1029.4911 36.78125,1029.4911 Z M 3,1034.6161 l 0,0.25 c 5.39846,-0.017 17.179416,0.029 21.15625,0.094 6.723589,0.153 14.262266,0.2338 20.71875,1.1562 0.0037,0.01 -0.02332,0.025 -0.03125,0.031 0.03614,-0.017 0.09552,-0.038 0.125,-0.031 0.0032,0 0.02719,-10e-5 0.03125,0 l 0,-0.25 c -0.0041,-10e-5 -0.02805,0 -0.03125,0 -0.02948,-0.01 -0.08886,0.014 -0.125,0.031 0.0079,-0.01 0.03495,-0.021 0.03125,-0.031 -6.456484,-0.9224 -13.995161,-1.0032 -20.71875,-1.1562 C 20.179416,1034.6449 8.39846,1034.5991 3,1034.6161 Z"
         style="fill:#000000;fill-opacity:0.05882353" />
      <g
         transform="matrix(0.5,0,0,0.5,15.603108,502.97658)"
         id="g879">
        <path
           style="fill:#bdd1e3;fill-opacity:1"
           id="path3672"
           inkscape:connector-curvature="0"
           d="m 36.499271,1040.4633 c -0.650076,0 -1.316248,0.077 -1.956319,0.2371 -1.53161,0.3842 -2.954529,1.1681 -4.137911,2.2883 -0.214733,0.2033 -0.400825,0.3676 -0.414977,0.3676 -0.01416,0 -0.133699,-0.1485 -0.272699,-0.332 -0.337084,-0.4451 -0.934856,-1.0295 -1.387208,-1.3516 -0.726534,-0.5174 -1.751943,-0.9472 -2.655851,-1.1146 -0.542207,-0.1004 -2.003502,-0.1028 -2.52543,-0.012 -1.891292,0.3297 -3.511137,1.1814 -4.956008,2.6203 -0.823568,0.8201 -1.366344,1.6036 -1.861467,2.6795 -0.206728,0.475 -0.2102,0.4811 -0.260843,1.2331 -0.07129,1.0589 -0.190773,1.6767 -0.509828,2.561 -0.0795,0.2204 -0.169424,0.6365 -0.272699,1.3042 -0.08963,0.6174 -0.234261,1.6214 -0.462403,3.1776 -0.116861,0.7971 -0.161476,1.2138 -0.130421,1.233 0.08031,0.05 0.454537,0.011 0.806241,-0.083 0.270794,-0.073 0.523984,-0.1847 0.77067,-0.3201 0.086,-0.047 0.166823,-0.1002 0.248987,-0.1541 0.03563,-0.023 0.07187,-0.047 0.106708,-0.071 0.0808,-0.057 0.160884,-0.1147 0.23713,-0.1778 0.529038,-0.4381 0.94299,-1.0159 1.161934,-1.6599 0.03058,-0.1024 0.06355,-0.2224 0.09485,-0.3676 0.01518,-0.073 0.03756,-0.1885 0.05928,-0.3082 0.03802,-0.2097 0.06725,-0.3849 0.118564,-0.6996 0.07151,-0.4384 0.147654,-0.9146 0.225273,-1.4465 0.190805,-1.3074 0.387497,-2.5399 0.43869,-2.7388 0.05119,-0.1989 0.206834,-0.5838 0.343838,-0.8655 0.69649,-1.4323 2.014577,-2.5402 3.485805,-2.9286 0.317465,-0.084 0.508591,-0.1052 1.161934,-0.1067 0.907091,0 1.242802,0.071 1.885181,0.4031 0.741786,0.384 1.469839,1.2622 1.742902,2.0986 0.296184,0.9073 0.291878,1.1775 -0.130422,4.0668 -0.365395,2.5 -0.400483,2.9715 -0.272698,3.4621 0.201427,0.7733 0.849379,1.4811 1.612481,1.7666 0.261377,0.098 0.861174,0.1889 0.936661,0.1423 0.02447,-0.015 0.287497,-1.7299 0.592825,-3.8178 0.540059,-3.693 0.638816,-4.2577 0.829954,-4.7426 0.542115,-1.3753 1.817394,-2.6263 3.189392,-3.1301 0.590388,-0.2168 0.816112,-0.2473 1.624337,-0.249 0.915253,0 1.153171,0.043 1.814041,0.3676 0.697639,0.3426 1.316559,1.0013 1.68362,1.7784 0.27276,0.5775 0.32167,0.8415 0.320126,1.6718 -0.0012,0.676 -0.02382,0.9149 -0.331982,2.9641 -0.381798,2.5388 -0.39623,2.8736 -0.177847,3.4621 0.289836,0.7812 0.979751,1.426 1.754759,1.6244 0.292651,0.075 0.701926,0.1043 0.746958,0.059 0.0148,-0.015 0.124256,-0.7199 0.248986,-1.5769 0.252142,-1.7324 0.261149,-1.7666 0.320124,-1.7666 0.02296,0 0.09836,0.1101 0.177848,0.249 0.372673,0.6514 1.167205,1.52 1.814041,1.98 0.706412,0.5024 1.609153,0.8695 2.537287,1.0434 0.461009,0.086 0.738197,0.099 3.035258,0.1186 1.387611,0.012 2.570355,0 2.632138,-0.012 0.108473,-0.027 0.107794,-0.039 0.106708,-0.4268 -7.59e-4,-0.2211 -0.02132,-0.4915 -0.04743,-0.6047 -0.142061,-0.6165 -0.656954,-1.286 -1.233073,-1.5888 -0.485835,-0.2553 -0.791405,-0.2955 -1.991889,-0.2964 -1.099905,-8e-4 -1.578706,-0.056 -2.12231,-0.2371 -0.853646,-0.2838 -1.710804,-1.0808 -2.122308,-1.98 -0.606419,-1.3252 -0.392349,-3.0396 0.557254,-4.4699 0.283826,-0.4275 1.03887,-1.1822 1.493916,-1.494 0.450663,-0.3087 1.014338,-0.5794 1.541342,-0.7351 0.392038,-0.1158 0.485467,-0.1197 1.814042,-0.1541 1.518399,-0.039 1.698431,-0.074 2.252731,-0.332 0.609642,-0.2838 1.281952,-0.8779 1.61248,-1.4346 0.180526,-0.3041 0.356821,-0.7674 0.379408,-0.9959 l 0.01183,-0.166 -2.395008,-0.012 c -2.490346,-0.014 -2.935383,0.015 -3.746648,0.1897 -2.128137,0.457 -4.255375,1.9419 -5.572545,3.9008 -0.321991,0.4789 -0.339319,0.4847 -0.509828,0 -0.487619,-1.3862 -1.695592,-2.7342 -3.058966,-3.4147 C 38.631165,1040.7001 37.582701,1040.4687 36.499242,1040.4633 Z" />
        <path
           style="fill:#85c226;fill-opacity:1"
           id="path3670"
           inkscape:connector-curvature="0"
           d="m 2.6727383,1036.7285 c -0.205446,0 -0.241064,0.016 -0.260842,0.1067 -0.0124,0.057 -0.132387,0.9004 -0.2727,1.8733 -0.140316,0.9729 -0.270161,1.7759 -0.284556,1.7904 -0.01438,0.014 -1.02140199,0.044 -2.24087399,0.059 -2.16900301,0.027 -2.23093001,0.024 -2.77441601,0.1423 -1.757434,0.382 -3.275252,1.2369 -4.742591,2.6677 l -0.521686,0.498 -0.083,-0.1304 c -0.544316,-0.879 -0.953071,-1.3711 -1.5176293,-1.8378 -0.842653,-0.6965 -1.774207,-1.105 -2.940407,-1.2805 -0.366261,-0.055 -0.969223,-0.071 -2.952262,-0.071 -2.230294,-2e-4 -2.488571,0.01 -2.513574,0.071 -0.05217,0.136 -0.02956,0.8698 0.03555,1.1145 0.190732,0.7165 0.727665,1.2976 1.44649,1.5769 0.241603,0.094 0.364524,0.1113 1.565056,0.1423 1.433947,0.037 1.746829,0.083 2.312013,0.3201 0.927264,0.3887 1.713327,1.3261 1.980032,2.3713 0.176432,0.6915 0.107368,1.698 -0.165991,2.5018 -0.571144,1.6792 -2.119957,3.123 -3.841499,3.5806 -0.400885,0.1066 -0.55994,0.1218 -1.825898,0.1541 -1.460399,0.037 -1.622087,0.059 -2.157878,0.2965 -0.568846,0.2515 -1.208314,0.7864 -1.58877,1.3279 -0.244209,0.3476 -0.502581,0.8996 -0.521685,1.1382 l -0.01183,0.1541 2.264587,0.024 c 2.352276,0.014 2.957917,-0.015 3.758504,-0.1779 1.678309,-0.341 3.317427,-1.2647 4.754448,-2.6795 0.251642,-0.2478 0.4562673,-0.4506 0.4624033,-0.4506 0.0061,0 0.11515,0.162 0.23713,0.3676 0.736694,1.2413 1.85266,2.1505 3.201249,2.5965 0.915092,0.3026 1.065956,0.3119 3.936351,0.332 l 2.58471101,0.024 0.04743,-0.1185 c 0.06824,-0.1795 0.05485,-0.7537 -0.02372,-1.0553 -0.204993,-0.787 -0.774659,-1.4044 -1.52948501,-1.648 -0.271649,-0.088 -0.466702,-0.1 -1.671764,-0.1304 -1.532146,-0.039 -1.732943,-0.071 -2.395008,-0.415 -1.088422,-0.5663 -1.836093,-1.8305 -1.837755,-3.1064 -7.58e-4,-0.6675 0.230494,-1.6355 0.533542,-2.2409 0.542575,-1.0838 1.633489,-2.1494 2.750703,-2.6796 0.787361,-0.3736 1.487334,-0.486 3.023402,-0.4861 0.73509801,0 0.96687801,-0.024 1.24493001,-0.095 0.419545,-0.1075 0.767568,-0.2546 1.09079599,-0.4743 0.135456,-0.092 0.262584,-0.166 0.272699,-0.166 0.04825,0 -0.01305,0.441 -0.331981,2.6203 -0.44411599,3.0347 -0.44035199,3.036 -0.43868999,3.7941 0.0038,1.7289 0.60018399,3.1578 1.86146699,4.4224 0.71327,0.7152 1.415978,1.1695 2.335726,1.494 0.36378,0.1283 1.150197,0.2883 1.565055,0.3319 0.358165,0.038 1.329148,0.033 1.695477,-0.012 1.670853,-0.202 3.1150397,-0.8157 4.5173177,-1.9326 1.051084,-0.8372 1.880628,-1.828 2.489861,-2.976 0.110286,-0.2078 0.206678,-0.3743 0.213416,-0.3675 -0.232793,1.3195 -0.01131,0.3407 0.154135,-0.4506 0.319055,-0.8843 0.438533,-1.5021 0.509828,-2.561 l 0.02371,-0.7114 -0.083,-0.5572 c -0.176974,-1.1897 -0.632653,-2.1827 -1.434634,-3.1301 -0.71368,-0.8431 -1.639756,-1.487 -2.667707,-1.8496 -1.013564,-0.3576 -1.727221,-0.4129 -4.8018727,-0.415 l -2.063028,-0.012 0.03555,-0.2371 c 0.16489,-1.2894 -0.01768,-1.9588 -0.711389,-2.6559 -0.504083,-0.5065 -1.097864,-0.7825 -1.695475,-0.7825 L 2.6727403,1036.7285 z m 1.968175,6.6633 2.549143,0.024 c 2.8712667,0.019 2.8536847,0.017 3.6043687,0.3794 1.406148,0.6778 2.238173,2.2492 2.051171,3.8652 -0.141029,1.2187 -0.623791,2.2425 -1.434633,3.0827 -0.850229,0.881 -1.6938537,1.3768 -2.6914207,1.5887 -0.491833,0.1045 -1.446533,0.1182 -1.92075,0.024 -1.411718,-0.2812 -2.577962,-1.5121 -2.845555,-2.9878 -0.107608,-0.5934 -0.07009,-1.1148 0.2727,-3.4858 0.180639,-1.2495 0.355318,-2.3248 0.379406,-2.3832 L 4.6409133,1043.3918 Z" />
        <path
           style="fill:url(#linearGradient3716-3);fill-opacity:1"
           id="path3666"
           inkscape:connector-curvature="0"
           d="m 58.793785,1061.3769 c -18.496609,0.2639 -37.457065,0.2637 -55.9999997,0.2813 -14.5944333,0.01 -24.4443073,0.01 -28.0000003,0 l 0,0.625 c 10.79692,-0.035 34.3588323,0.058 42.3125,0.1875 13.44718,0.306 28.524531,0.4678 41.4375,2.3125 0.0073,0.01 -0.01545,0.018 -0.03125,0.031 0.07227,-0.033 0.191042,-0.046 0.25,-0.031 0.0064,0 0.02313,-2e-4 0.03125,0 L 58.793785,1061.3769 Z" />
      </g>
      <path
         style="fill:#ffffff;fill-opacity:0.23529412"
         d="m 18.1875,1022.5536 c -0.0038,0.08 -0.01943,0.1576 -0.03125,0.25 l -0.03125,0.125 0.03125,0 C 18.168465,1022.7948 18.195254,1022.6615 18.1875,1022.5536 z m 24.75,0.6563 c -0.03517,0.1161 -0.06318,0.2395 -0.125,0.3437 -0.165264,0.2783 -0.507679,0.5769 -0.8125,0.7188 -0.27715,0.1292 -0.365801,0.1362 -1.125,0.1562 -0.664288,0.017 -0.710231,0 -0.90625,0.062 -0.263502,0.078 -0.555919,0.2206 -0.78125,0.375 -0.227523,0.1559 -0.608087,0.5362 -0.75,0.75 -0.290157,0.437 -0.430966,0.9356 -0.4375,1.4063 0.04886,-0.3903 0.200099,-0.7987 0.4375,-1.1563 0.141913,-0.2138 0.522477,-0.5941 0.75,-0.75 0.225331,-0.1544 0.517748,-0.2971 0.78125,-0.375 0.196019,-0.058 0.241962,-0.045 0.90625,-0.062 0.759199,-0.02 0.84785,-0.027 1.125,-0.1562 0.304821,-0.1419 0.647236,-0.4405 0.8125,-0.7188 0.09026,-0.1521 0.176206,-0.3857 0.1875,-0.5 l 0,-0.094 L 42.9375,1023.2099 z m -36.53125,0.375 c 0.0074,0.1028 -0.015267,0.1926 0,0.25 0.095366,0.3583 0.3593375,0.6728 0.71875,0.8125 0.1208015,0.047 0.180984,0.047 0.78125,0.062 0.7169735,0.018 0.873658,0.038 1.15625,0.1562 0.463632,0.1943 0.8666475,0.6649 1,1.1875 -0.0071,-0.084 0.01852,-0.1774 0,-0.25 -0.1333525,-0.5226 -0.536368,-0.9932 -1,-1.1875 -0.282592,-0.1182 -0.4392765,-0.1382 -1.15625,-0.1562 -0.600266,-0.014 -0.6604485,-0.015 -0.78125,-0.062 C 6.7655875,1024.2577 6.501616,1023.9432 6.40625,1023.5849 z m 9.9375,0.5 c -0.0051,0 -0.05727,0.048 -0.125,0.094 -0.161614,0.1099 -0.352728,0.1648 -0.5625,0.2188 -0.139026,0.035 -0.226201,0.062 -0.59375,0.062 -0.768034,0 -1.13757,0.063 -1.53125,0.25 -0.558607,0.2651 -1.103712,0.8018 -1.375,1.3437 -0.15152,0.3027 -0.250379,0.76 -0.25,1.0938 5.4e-5,0.042 -0.0031,0.083 0,0.125 0.01855,-0.3184 0.115107,-0.6993 0.25,-0.9688 0.271288,-0.5419 0.816393,-1.0786 1.375,-1.3437 0.39368,-0.1868 0.763216,-0.25 1.53125,-0.25 0.367549,0 0.454724,-0.028 0.59375,-0.062 0.209772,-0.054 0.400886,-0.1089 0.5625,-0.2188 0.04877,-0.033 0.07288,-0.046 0.09375,-0.062 C 16.312382,1024.3394 16.348916,1024.0849 16.34375,1024.0849 z m 1.59375,0.3437 -0.03125,0.062 c -0.01204,0.029 -0.09718,0.5627 -0.1875,1.1875 -0.110812,0.7665 -0.154758,1.1199 -0.15625,1.375 0.0193,-0.2493 0.07704,-0.5771 0.15625,-1.125 0.09032,-0.6248 0.175456,-1.1583 0.1875,-1.1875 l 0.03125,-0.062 1.25,0 c 1.435633,0.01 1.437158,0.01 1.8125,0.1875 0.527306,0.2542 0.887893,0.7646 1,1.3438 -0.04361,-0.6787 -0.39889,-1.304 -1,-1.5938 -0.375342,-0.1775 -0.376867,-0.1775 -1.8125,-0.1875 L 17.9375,1024.4286 z m 9.28125,0 c -0.08776,0.01 -0.139384,0.042 -0.21875,0.062 -0.735615,0.1942 -1.401755,0.7527 -1.75,1.4688 -0.0685,0.1409 -0.13066,0.3375 -0.15625,0.4375 -0.0256,0.099 -0.12335,0.7213 -0.21875,1.375 -0.03881,0.2659 -0.08925,0.4995 -0.125,0.7187 -0.02566,0.1574 -0.04349,0.239 -0.0625,0.3438 -0.01086,0.06 -0.02365,0.1202 -0.03125,0.1562 -0.01565,0.073 -0.01596,0.1365 -0.03125,0.1875 -0.109471,0.322 -0.329231,0.5934 -0.59375,0.8125 -0.03813,0.032 -0.0846,0.066 -0.125,0.094 -0.01742,0.011 -0.01344,0.02 -0.03125,0.031 -0.04108,0.027 -0.082,0.071 -0.125,0.094 -0.123343,0.068 -0.270853,0.1202 -0.40625,0.1562 -0.158267,0.047 -0.313322,0.048 -0.375,0.031 -0.01118,0.068 -0.03744,0.2461 -0.03125,0.25 0.04016,0.025 0.230398,0.021 0.40625,-0.031 0.135397,-0.036 0.282907,-0.088 0.40625,-0.1562 0.043,-0.023 0.08392,-0.067 0.125,-0.094 0.01781,-0.011 0.01383,-0.02 0.03125,-0.031 0.0404,-0.028 0.08687,-0.062 0.125,-0.094 0.264519,-0.2191 0.484279,-0.4905 0.59375,-0.8125 0.01529,-0.051 0.0156,-0.1149 0.03125,-0.1875 0.0076,-0.036 0.02039,-0.096 0.03125,-0.1562 0.01901,-0.1048 0.03684,-0.1864 0.0625,-0.3438 0.03575,-0.2192 0.08619,-0.4528 0.125,-0.7187 0.0954,-0.6537 0.193154,-1.2756 0.21875,-1.375 0.02559,-0.1 0.08775,-0.2966 0.15625,-0.4375 0.348245,-0.7161 1.014385,-1.2746 1.75,-1.4688 0.158732,-0.042 0.267079,-0.062 0.59375,-0.062 0.453546,0 0.616311,0.052 0.9375,0.2188 0.370893,0.192 0.738469,0.613 0.875,1.0312 0.03702,0.1134 0.07617,0.2137 0.09375,0.3125 -0.0038,-0.2077 -0.0298,-0.3666 -0.09375,-0.5625 -0.136531,-0.4182 -0.504107,-0.8392 -0.875,-1.0312 -0.321189,-0.1668 -0.483954,-0.2188 -0.9375,-0.2188 C 27.430415,1024.4286 27.306512,1024.4184 27.21875,1024.4286 z m 6.375,0 c -0.404113,8e-4 -0.517307,0.017 -0.8125,0.125 -0.685999,0.2519 -1.322693,0.8749 -1.59375,1.5625 -0.09557,0.2425 -0.167471,0.5285 -0.4375,2.375 -0.152664,1.044 -0.26901,1.8963 -0.28125,1.9063 -0.03774,0.024 -0.338062,-0.014 -0.46875,-0.062 -0.381552,-0.1428 -0.711786,-0.4884 -0.8125,-0.875 0.0026,0.078 -0.01597,0.1886 0,0.25 0.100714,0.3866 0.430948,0.7322 0.8125,0.875 0.130688,0.049 0.431007,0.085 0.46875,0.062 0.01224,-0.01 0.128586,-0.8623 0.28125,-1.9063 0.270029,-1.8465 0.34193,-2.1325 0.4375,-2.375 0.271057,-0.6876 0.907751,-1.3106 1.59375,-1.5625 0.295193,-0.1084 0.408387,-0.1242 0.8125,-0.125 0.457626,0 0.575815,0.026 0.90625,0.1875 0.348819,0.1713 0.66022,0.5177 0.84375,0.9063 0.06819,0.1443 0.102889,0.2286 0.125,0.3437 -0.01107,-0.2282 -0.0206,-0.3727 -0.125,-0.5937 -0.18353,-0.3886 -0.494931,-0.735 -0.84375,-0.9063 C 34.169565,1024.4546 34.051376,1024.4286 33.59375,1024.4286 z m -9.9375,1.6563 -0.03125,0.1875 c 0.0043,-0.064 0.02649,-0.08 0.03125,-0.125 L 23.65625,1026.0849 z m -7.6875,1.3125 c -5.19e-4,0.046 -1.22e-4,0.1007 0,0.1562 0.0019,0.8645 0.306859,1.5552 0.9375,2.1875 0.356635,0.3576 0.696376,0.5878 1.15625,0.75 0.18189,0.064 0.573821,0.1657 0.78125,0.1875 0.179082,0.019 0.660586,-0.01 0.84375,-0.031 0.835427,-0.101 1.580111,-0.4104 2.28125,-0.9688 0.525542,-0.4186 0.914133,-0.8947 1.21875,-1.4687 0.03817,-0.072 0.06941,-0.094 0.09375,-0.125 0.002,-0.01 -0.0022,-0.019 0,-0.031 -0.0026,0.01 0.0019,-0.041 0,-0.031 -0.01569,0.052 -0.02056,0.044 0.03125,-0.25 -0.0034,0 -0.06986,0.084 -0.125,0.1875 -0.304617,0.574 -0.693208,1.0501 -1.21875,1.4687 -0.701139,0.5584 -1.445823,0.8678 -2.28125,0.9688 -0.183164,0.021 -0.664668,0.05 -0.84375,0.031 -0.207429,-0.022 -0.59936,-0.1235 -0.78125,-0.1875 -0.459874,-0.1622 -0.799615,-0.3924 -1.15625,-0.75 C 16.299024,1028.8823 15.992278,1028.2175 15.96875,1027.3974 z m -5.34375,1.3437 c -0.0031,0 -0.124179,0.095 -0.25,0.2188 -0.7185105,0.7074 -1.5358455,1.1732 -2.375,1.3437 -0.4002935,0.079 -0.698862,0.1038 -1.875,0.094 l -1.0625,-0.031 c -0.033371,0.073 -0.058967,0.1434 -0.0625,0.1875 l 0,0.062 1.125,0.031 c 1.176138,0.01 1.4747065,-0.015 1.875,-0.094 0.8391545,-0.1705 1.6564895,-0.6363 2.375,-1.3437 0.125821,-0.1239 0.246932,-0.2188 0.25,-0.2188 0.003,0 0.064,0.085 0.125,0.1875 0.368347,0.6207 0.919456,1.0583 1.59375,1.2813 0.457546,0.1513 0.533552,0.1774 1.96875,0.1875 l 1.28125,0 0.03125,-0.062 c 0.02455,-0.065 0.04245,-0.2294 0.03125,-0.375 -0.0047,0.043 -0.02259,0.1021 -0.03125,0.125 l -0.03125,0.062 -1.28125,0 c -1.435198,-0.01 -1.511204,-0.036 -1.96875,-0.1875 -0.674294,-0.223 -1.225403,-0.6606 -1.59375,-1.2813 C 10.689,1028.8261 10.628,1028.7411 10.625,1028.7411 z m 26.15625,0 c -0.02949,0 -0.03018,0.01 -0.15625,0.875 -0.06236,0.4285 -0.1176,0.7713 -0.125,0.7813 -0.02252,0.022 -0.228675,0.01 -0.375,-0.031 -0.387504,-0.099 -0.730082,-0.4219 -0.875,-0.8125 -0.0273,-0.074 -0.05126,-0.143 -0.0625,-0.2187 -0.0086,0.2088 0.01094,0.3297 0.0625,0.4687 0.144918,0.3906 0.487496,0.7133 0.875,0.8125 0.146325,0.038 0.352484,0.053 0.375,0.031 0.0074,-0.01 0.06264,-0.3528 0.125,-0.7813 0.126071,-0.8662 0.126762,-0.875 0.15625,-0.875 0.01148,0 0.05401,0.055 0.09375,0.125 0.186336,0.3257 0.582832,0.7388 0.90625,0.9688 0.353206,0.2512 0.785933,0.4443 1.25,0.5312 0.230504,0.043 0.382719,0.053 1.53125,0.062 0.693805,0.01 1.281608,0.01 1.3125,0 0.05424,-0.014 0.06305,-0.025 0.0625,-0.2187 -7.5e-5,-0.022 0.0013,-0.039 0,-0.062 -0.0089,0.029 -0.03538,0.024 -0.0625,0.031 -0.03089,0.01 -0.618695,0.01 -1.3125,0 -1.148531,-0.01 -1.300746,-0.019 -1.53125,-0.062 -0.464067,-0.087 -0.896794,-0.28 -1.25,-0.5312 -0.323418,-0.23 -0.719914,-0.6431 -0.90625,-0.9688 C 36.83526,1028.7961 36.79273,1028.7411 36.78125,1028.7411 Z M 3,1033.8661 l 0,0.25 c 5.39846,-0.017 17.179416,0.029 21.15625,0.094 6.723589,0.153 14.262266,0.2338 20.71875,1.1562 0.0037,0.01 -0.02332,0.025 -0.03125,0.031 0.03614,-0.017 0.09552,-0.038 0.125,-0.031 0.0032,0 0.02719,-10e-5 0.03125,0 l 0,-0.25 c -0.0041,-10e-5 -0.02805,0 -0.03125,0 -0.02948,-0.01 -0.08886,0.014 -0.125,0.031 0.0079,-0.01 0.03495,-0.021 0.03125,-0.031 -6.456484,-0.9224 -13.995161,-1.0032 -20.71875,-1.1562 C 20.179416,1033.8949 8.39846,1033.8491 3,1033.8661 Z"
         id="path876"
         inkscape:connector-curvature="0" />
      <path
         inkscape:connector-curvature="0"
         id="path888"
         transform="translate(0,1004.3622)"
         d="m 16.84375,16.96875 c -0.01717,0.01025 -0.02631,0.041 -0.03125,0.0625 -8.12e-4,0.0038 0.0022,0.108447 0,0.125 0.0099,-0.043 0.02228,-0.03125 0.125,-0.03125 0.298806,0 0.591708,0.1224 0.84375,0.375 0.252536,0.253708 0.387501,0.515428 0.40625,0.875 0.0098,-0.44305 -0.121427,-0.713859 -0.40625,-1 C 17.529208,17.1217 17.236306,16.96875 16.9375,16.96875 16.886139,16.96875 16.860923,16.9585 16.84375,16.96875 z m -0.15625,1 c -0.07016,0.4865 -0.149052,0.89905 -0.15625,0.90625 -0.0072,0.01 -0.515264,0.02425 -1.125,0.03125 -1.084501,0.014 -1.103257,0.0035 -1.375,0.0625 -0.878717,0.191 -1.641331,0.62835 -2.375,1.34375 l -0.25,0.21875 -0.0625,-0.0625 C 11.071592,20.02925 10.876029,19.7959 10.59375,19.5625 10.172424,19.2143 9.7081,19.0252 9.125,18.9375 8.9418695,18.9095 8.6477695,18.875 7.65625,18.875 6.541103,18.8749 6.3875015,18.9015 6.375,18.9375 c -0.00612,0.01594 0.00108,0.08538 0,0.125 0.012501,-0.035 0.166103,-0.0626 1.28125,-0.0625 0.9915195,0 1.2856195,0.0345 1.46875,0.0625 0.5831,0.0877 1.047424,0.2768 1.46875,0.625 0.282279,0.2334 0.477842,0.46675 0.75,0.90625 l 0.0625,0.0625 0.25,-0.21875 c 0.733669,-0.7154 1.496283,-1.15275 2.375,-1.34375 0.271743,-0.062 0.290499,-0.0485 1.375,-0.0625 0.609736,-0.007 1.1178,-0.02125 1.125,-0.03125 0.0072,-0.0072 0.08609,-0.41975 0.15625,-0.90625 C 16.696691,18.030029 16.679094,18.029524 16.6875,17.96875 z m 1.46875,0.84375 -0.03125,0.125 1.03125,0 c 1.537326,0.001 1.899468,0.03995 2.40625,0.21875 0.513975,0.1813 0.98691,0.48465 1.34375,0.90625 0.400991,0.4737 0.59901,0.9677 0.6875,1.5625 l 0.0625,0.25 0,-0.09375 L 23.59375,21.5 C 23.50526,20.9052 23.307241,20.4112 22.90625,19.9375 22.54941,19.5159 22.076475,19.21255 21.5625,19.03125 21.055718,18.85245 20.693576,18.8135 19.15625,18.8125 L 18.15625,18.8125 z m 5.5,3.0625 0,0.03125 0,0.125 c 0.02334,-0.121657 0.05885,-0.223 0.125,-0.375 0.247562,-0.5379 0.494466,-0.93375 0.90625,-1.34375 0.722435,-0.7195 1.554354,-1.1476 2.5,-1.3125 0.260964,-0.041 0.978896,-0.01875 1.25,0.03125 0.451954,0.0837 0.980483,0.27255 1.34375,0.53125 0.226176,0.1611 0.518958,0.465 0.6875,0.6875 0.0695,0.0923 0.1179,0.15625 0.125,0.15625 0.0071,0 0.111384,-0.0858 0.21875,-0.1875 0.591692,-0.5601 1.296695,-0.9329 2.0625,-1.125 0.320036,-0.081 0.643712,-0.125 0.96875,-0.125 0.541729,0.0027 1.060201,0.13605 1.5,0.34375 0.681687,0.3403 1.28744,0.9944 1.53125,1.6875 0.08525,0.2423 0.120254,0.2394 0.28125,0 0.658585,-0.9795 1.717182,-1.709 2.78125,-1.9375 0.405633,-0.084 0.629827,-0.10375 1.875,-0.09375 l 1.1875,0 c 0.0011,-0.0069 -6.19e-4,-0.02499 0,-0.03125 l 0,-0.09375 -1.1875,0 c -1.245173,-0.01 -1.469367,0.0087 -1.875,0.09375 -1.064068,0.2285 -2.122665,0.958 -2.78125,1.9375 -0.160996,0.2394 -0.195996,0.2423 -0.28125,0 -0.24381,-0.6931 -0.849563,-1.3472 -1.53125,-1.6875 -0.439799,-0.2077 -0.958271,-0.34105 -1.5,-0.34375 -0.325038,0 -0.648714,0.0444 -0.96875,0.125 -0.765805,0.1921 -1.470808,0.5649 -2.0625,1.125 -0.107366,0.1017 -0.211674,0.1875 -0.21875,0.1875 -0.0071,0 -0.0555,-0.06425 -0.125,-0.15625 -0.168542,-0.2225 -0.461324,-0.5264 -0.6875,-0.6875 -0.363267,-0.2587 -0.891796,-0.44755 -1.34375,-0.53125 -0.271104,-0.05 -0.989036,-0.07225 -1.25,-0.03125 -0.945646,0.1649 -1.777565,0.593 -2.5,1.3125 -0.411784,0.41 -0.658688,0.80585 -0.90625,1.34375 C 23.716298,21.68049 23.679592,21.757721 23.65625,21.875 z m 0,0.15625 c -0.0048,0.04556 -0.02697,0.06149 -0.03125,0.125 l 0,0.125 C 23.634116,22.14589 23.643121,22.099682 23.65625,22.03125 z m -7.34375,-1.9375 c 0.01314,0.04436 0.01907,0.203176 -0.125,1.1875 0.12165,-0.844989 0.178114,-1.1875 0.15625,-1.1875 C 16.342941,20.09375 16.315594,20.091497 16.3125,20.09375 z m -0.125,1.3125 C 16.065629,22.240826 16.015807,22.600302 16,22.8125 16.027034,22.572988 16.076471,22.1649 16.1875,21.40625 z m -6.09375,0.90625 c -0.01904,0.209522 -0.0598,0.433284 -0.125,0.625 C 9.683178,23.7771 8.923271,24.48995 8.0625,24.71875 7.8620575,24.77175 7.757979,24.7965 7.125,24.8125 6.3948005,24.8315 6.3303955,24.8193 6.0625,24.9375 5.778077,25.0633 5.471478,25.3542 5.28125,25.625 5.1591455,25.7988 5.009552,26.0682 5,26.1875 l 0,0.0625 0.03125,0 c 0.037547,-0.134138 0.1437858,-0.348818 0.25,-0.5 0.190228,-0.2708 0.496827,-0.5617 0.78125,-0.6875 0.2678955,-0.115 0.3323005,-0.106 1.0625,-0.125 0.632979,-0.016 0.7370575,-0.04075 0.9375,-0.09375 C 8.923271,24.61495 9.683178,23.9021 9.96875,23.0625 10.050724,22.82146 10.086609,22.570346 10.09375,22.3125 z m 11.9375,0.15625 C 21.95615,23.065079 21.710999,23.587072 21.3125,24 c -0.425114,0.4405 -0.844966,0.67525 -1.34375,0.78125 -0.245916,0.052 -0.731641,0.047 -0.96875,0 -0.705859,-0.1406 -1.272454,-0.73095 -1.40625,-1.46875 0.0045,0.03552 -0.0063,0.09021 0,0.125 0.133796,0.7378 0.700391,1.3594 1.40625,1.5 0.237109,0.047 0.722834,0.052 0.96875,0 0.498784,-0.106 0.918636,-0.372 1.34375,-0.8125 0.405421,-0.4201 0.64823,-0.9532 0.71875,-1.5625 C 22.034931,22.530693 22.029152,22.500476 22.03125,22.46875 z m -10.125,0.6875 c 8.31e-4,0.6379 0.362039,1.2793 0.90625,1.5625 0.331032,0.1717 0.421427,0.19875 1.1875,0.21875 0.602531,0.015 0.707925,0.0185 0.84375,0.0625 0.377413,0.1218 0.678754,0.419 0.78125,0.8125 -0.0045,-0.04296 0.0086,-0.0919 0,-0.125 C 15.522504,25.294 15.221163,24.9968 14.84375,24.875 14.707925,24.831 14.602531,24.8275 14,24.8125 13.233927,24.7925 13.143532,24.76525 12.8125,24.59375 12.303936,24.3291 11.950434,23.751344 11.90625,23.15625 Z M 38,23.21875 c 0.01691,0.231151 0.0636,0.453789 0.15625,0.65625 0.205752,0.4496 0.635677,0.82685 1.0625,0.96875 0.271802,0.091 0.512547,0.1246 1.0625,0.125 0.600242,4e-4 0.757083,0.02855 1,0.15625 0.28806,0.1514 0.55397,0.47295 0.625,0.78125 -0.0053,-0.04259 0.0052,-0.102584 0,-0.125 -0.07103,-0.3083 -0.33694,-0.62985 -0.625,-0.78125 -0.242917,-0.1277 -0.399758,-0.15585 -1,-0.15625 -0.549953,-4e-4 -0.790698,-0.0344 -1.0625,-0.125 C 38.791927,24.57685 38.362002,24.1996 38.15625,23.75 38.080447,23.58435 38.02494,23.40488 38,23.21875 z m -8.65625,0.5 C 29.241466,24.419487 29.194157,24.776459 29.1875,25 29.211712,24.749413 29.252401,24.34375 29.34375,23.71875 z m -6.03125,0.0625 c -9.85e-4,0.0093 -0.03145,0.02803 -0.03125,0.03125 5.35e-4,0.0086 -0.0058,0.112981 0,0.09375 C 23.284336,23.874797 23.286196,23.930359 23.3125,23.78125 z m 12.03125,0.0625 c -0.101799,0.682672 -0.164559,1.03981 -0.15625,1.25 C 35.200724,24.859537 35.2483,24.47845 35.34375,23.84375 z m -12.0625,0.1875 c -0.0041,0.01844 -0.02604,0.02881 -0.03125,0.0625 -0.0035,0.02422 0.0037,0.09866 0,0.125 0.01232,-0.0793 0.01967,-0.09025 0.03125,-0.15625 C 23.27865,24.0725 23.28315,24.02125 23.28125,24.03125 z m -0.25,1.625 c -0.05843,0.3985 -0.10928,0.6154 -0.09375,0.625 0.004,0.0025 0.0244,-0.0019 0.03125,0 0.0072,-0.07387 0.01593,-0.182369 0.0625,-0.5 C 23.0402,25.720199 23.022948,25.713643 23.03125,25.65625 Z M 45,29.3125 c -9.248304,0.132 -18.728533,0.1162 -28,0.125 -7.297217,0.01 -12.2221535,0.01 -14,0 l 0,0.125 c 1.7778465,0.01 6.702783,0.01 14,0 9.271467,-0.0088 18.751696,0.007 28,-0.125 L 45,29.3125 Z"
         style="fill:#ffffff;fill-opacity:0.35294118" />
    </g>
  </g>
</svg>
