<?xml version="1.0" encoding="UTF-8" standalone="no"?>
<!-- Created with Inkscape (http://www.inkscape.org/) -->

<svg
   xmlns:dc="http://purl.org/dc/elements/1.1/"
   xmlns:cc="http://creativecommons.org/ns#"
   xmlns:rdf="http://www.w3.org/1999/02/22-rdf-syntax-ns#"
   xmlns:svg="http://www.w3.org/2000/svg"
   xmlns="http://www.w3.org/2000/svg"
   xmlns:xlink="http://www.w3.org/1999/xlink"
   xmlns:sodipodi="http://sodipodi.sourceforge.net/DTD/sodipodi-0.dtd"
   xmlns:inkscape="http://www.inkscape.org/namespaces/inkscape"
   width="48"
   height="48"
   id="svg2"
   version="1.1"
   inkscape:version="0.48+devel r12137"
   sodipodi:docname="gnome-session.svg">
  <defs
     id="defs4">
    <linearGradient
       gradientTransform="translate(-5.1628113e-8,-2.635203e-5)"
       inkscape:collect="always"
       xlink:href="#linearGradient3545"
       id="linearGradient2189"
       x1="24.176777"
       y1="1050.4354"
       x2="24.176777"
       y2="1005.9116"
       gradientUnits="userSpaceOnUse" />
    <linearGradient
       id="linearGradient3545">
      <stop
         offset="0"
         style="stop-color:#fafafa;stop-opacity:1"
         id="stop3547" />
      <stop
         offset="0.5"
         style="stop-color:#dcdcdc;stop-opacity:1"
         id="stop3671" />
      <stop
         offset="0.5"
         style="stop-color:#c8c8c8;stop-opacity:1"
         id="stop3674" />
      <stop
         offset="1"
         style="stop-color:#ebebeb;stop-opacity:1"
         id="stop3549" />
    </linearGradient>
    <linearGradient
       inkscape:collect="always"
       xlink:href="#linearGradient3545"
       id="linearGradient933"
       x1="24.395052"
       y1="1019.4653"
       x2="24.395052"
       y2="1037.009"
       gradientUnits="userSpaceOnUse"
       gradientTransform="translate(55.195959,1.5493683)" />
  </defs>
  <sodipodi:namedview
     id="base"
     pagecolor="#ffffff"
     bordercolor="#666666"
     borderopacity="1.0"
     inkscape:pageopacity="0.0"
     inkscape:pageshadow="2"
     inkscape:zoom="3.3153848"
     inkscape:cx="-5.365619"
     inkscape:cy="43.002778"
     inkscape:document-units="px"
     inkscape:current-layer="layer1"
     showgrid="false"
     inkscape:window-width="1366"
     inkscape:window-height="714"
     inkscape:window-x="0"
     inkscape:window-y="30"
     inkscape:window-maximized="1">
    <inkscape:grid
       type="xygrid"
       id="grid3850" />
  </sodipodi:namedview>
  <metadata
     id="metadata7">
    <rdf:RDF>
      <cc:Work
         rdf:about="">
        <dc:format>image/svg+xml</dc:format>
        <dc:type
           rdf:resource="http://purl.org/dc/dcmitype/StillImage" />
        <dc:title />
      </cc:Work>
    </rdf:RDF>
  </metadata>
  <g
     inkscape:label="Capa 1"
     inkscape:groupmode="layer"
     id="layer1"
     transform="translate(0,-1004.3622)">
    <rect
       style="color:#000000;fill:#333333;fill-opacity:1;fill-rule:nonzero;stroke:none;stroke-width:0.2;marker:none;visibility:visible;display:inline;overflow:visible;enable-background:accumulate"
       id="rect6294"
       width="45.5"
       height="45.5"
       x="1.25"
       y="1005.6122"
       ry="6.3565426" />
    <rect
       ry="5.8565426"
       y="1006.1122"
       x="1.75"
       height="44.5"
       width="44.5"
       id="rect6296"
       style="color:#000000;fill:url(#linearGradient2189);fill-opacity:1;fill-rule:nonzero;stroke:none;stroke-width:0.2;marker:none;visibility:visible;display:inline;overflow:visible;enable-background:accumulate" />
    <path
       id="path6361"
       d="m 1.7499999,1012.5497 0,-0.5625 c 0,-3.2445 2.599225,-5.875 5.84375,-5.875 l 32.8125001,0 c 3.244525,0 5.84375,2.6305 5.84375,5.875 l 0,0.5625 c 0,-3.2445 -2.599225,-5.875 -5.84375,-5.875 l -32.8125001,0 C 4.3492249,1006.6747 1.7499999,1009.3052 1.7499999,1012.5497 Z"
       style="color:#000000;fill:#ffffff;fill-opacity:1;fill-rule:nonzero;stroke:none;stroke-width:0.2;marker:none;visibility:visible;display:inline;overflow:visible;enable-background:accumulate"
       inkscape:connector-curvature="0" />
    <path
       inkscape:connector-curvature="0"
       style="color:#000000;fill:#000000;fill-opacity:1;fill-rule:nonzero;stroke:none;stroke-width:0.2;marker:none;visibility:visible;display:inline;overflow:visible;enable-background:accumulate"
       d="m 1.7499999,1044.1747 0,0.5625 c 0,3.2445 2.599225,5.875 5.84375,5.875 l 32.8125001,0 c 3.244525,0 5.84375,-2.6305 5.84375,-5.875 l 0,-0.5625 c 0,3.2445 -2.599225,5.875 -5.84375,5.875 l -32.8125001,0 C 4.3492249,1050.0497 1.7499999,1047.4192 1.7499999,1044.1747 Z"
       id="path6388" />
    <g
       id="g2191"
       transform="matrix(0.89931935,0,0,0.89931935,-47.222458,101.94924)">
      <g
         transform="translate(55.195959,1.5493683)"
         style="fill:#666666"
         inkscape:label="Capa 1"
         id="layer1-1">
        <path
           style="fill:#666666"
           d="m 19.762311,1044.2323 c 0,-0.3083 2.061172,-2.6491 2.819538,-3.202 0.412628,-0.3008 1.005941,-0.5471 1.318469,-0.5471 0.7781,0 2.096812,1.0169 3.361805,2.5922 1.202998,1.4981 1.167145,1.4941 3.577888,0.417 1.209464,-0.5404 1.369727,-0.6803 1.266623,-1.1068 -0.308394,-1.2755 -0.392163,-3.6014 -0.160642,-4.4601 0.400604,-1.4859 0.868506,-1.6651 3.944839,-1.5107 2.970286,0.1492 2.664197,0.3304 3.589186,-2.1242 l 0.51998,-1.38 -1.606549,-1.3273 c -1.920418,-1.5866 -2.606699,-2.5772 -2.40889,-3.4767 0.132536,-0.6027 2.414925,-2.9958 3.555819,-3.7282 0.48004,-0.3081 0.488002,-0.3577 0.191204,-1.1918 -0.170332,-0.4787 -0.517811,-1.3117 -0.772177,-1.8507 l -0.462481,-0.9803 -2.8236,0 c -3.734658,0 -3.602681,0.135 -3.608641,-3.6436 l -0.0045,-2.8659 -1.834017,-0.7419 -1.834016,-0.742 -0.653686,0.8425 c -0.359517,0.4637 -1.171919,1.3566 -1.80533,1.9851 -0.960709,0.9527 -1.281502,1.1422 -1.934823,1.1422 -0.653279,0 -0.994686,-0.2016 -2.058461,-1.2152 -0.70141,-0.6681 -1.502792,-1.552 -1.780852,-1.9638 -0.587457,-0.8703 -0.713123,-0.8631 -3.037636,0.175 -1.042433,0.4656 -1.48213,0.7724 -1.402898,0.9786 0.06347,0.1653 0.178338,1.2024 0.255263,2.305 0.109396,1.568 0.06591,2.1808 -0.199619,2.8129 -0.432407,1.0294 -0.833841,1.1294 -3.976964,0.9909 l -2.4738006,-0.109 -0.6616679,1.5876 c -0.3639208,0.8731 -0.6616714,1.7259 -0.6616714,1.8949 0,0.1694 0.6031316,0.788 1.3402923,1.375 1.6244906,1.2937 2.5804876,2.5497 2.5804876,3.3897 0,0.7168 -1.147271,2.0728 -2.852361,3.3715 -0.5876308,0.4477 -1.0684189,0.9474 -1.0684189,1.1107 0,0.1632 0.3015418,1.0202 0.6700943,1.9045 l 0.6700921,1.6079 2.4735745,-0.1323 c 4.01878,-0.2154 4.419836,0.1905 4.159924,4.2057 l -0.144881,2.2384 0.920207,0.4689 C 18.438689,1044.1911 19.762311,1044.5874 19.762311,1044.2323 z m 1.792157,-11.0202 c -2.00774,-1.0022 -2.971697,-2.6017 -2.968239,-4.9252 0.0022,-1.5399 0.548058,-2.7521 1.725406,-3.8317 1.177485,-1.0799 1.944709,-1.377 3.596379,-1.3932 1.152177,-0.011 1.54694,0.07 2.419768,0.4978 1.930082,0.9467 2.968445,2.6224 2.978144,4.8058 C 29.323956,1032.4246 25.174595,1035.019 21.554468,1033.2121 Z"
           id="path866"
           inkscape:connector-curvature="0"
           sodipodi:nodetypes="ssssssssscsssscccsccccssccsssssccssscsscssccsssscsss" />
      </g>
      <path
         id="path848"
         d="m 83.602209,1013.9115 -0.65625,0.8438 c -0.359517,0.4637 -1.179089,1.3402 -1.8125,1.9687 -0.960709,0.9527 -1.284179,1.1563 -1.9375,1.1563 -0.653279,0 -0.998725,-0.2051 -2.0625,-1.2188 -0.70141,-0.668 -1.503189,-1.5568 -1.78125,-1.9687 -0.587457,-0.8703 -0.706737,-0.8505 -3.03125,0.1875 -1.042433,0.4656 -1.485482,0.7625 -1.40625,0.9687 0.06347,0.1653 0.173075,1.2099 0.25,2.3125 0.109396,1.568 0.07803,2.1804 -0.1875,2.8125 -0.432407,1.0294 -0.825627,1.1385 -3.96875,1 l -2.5,-0.125 -0.65625,1.5938 c -0.363921,0.8732 -0.65625,1.7372 -0.65625,1.9062 0,0.1694 0.606589,0.788 1.34375,1.375 1.624491,1.2937 2.5625,2.535 2.5625,3.375 0,0.7168 -1.13866,2.0763 -2.84375,3.375 -0.587631,0.4477 -1.0625,0.9617 -1.0625,1.125 0,0.1632 0.287698,0.9907 0.65625,1.875 l 0.6875,1.625 2.46875,-0.125 c 4.01878,-0.2154 4.416162,0.1723 4.15625,4.1875 l -0.125,2.25 0.90625,0.4688 c 1.689675,0.8622 3,1.2613 3,0.9062 0,-0.3083 2.085384,-2.6659 2.84375,-3.2187 0.412628,-0.3008 0.999972,-0.5313 1.3125,-0.5313 0.7781,0 2.078757,1.0184 3.34375,2.5938 1.202997,1.4981 1.183007,1.4832 3.59375,0.4062 1.209463,-0.5404 1.353104,-0.6673 1.25,-1.0937 -0.308394,-1.2755 -0.387771,-3.6101 -0.15625,-4.4688 0.400604,-1.4859 0.892417,-1.6543 3.96875,-1.5 2.970285,0.1492 2.637511,0.3296 3.5625,-2.125 l 0.53125,-1.375 -1.59375,-1.3437 c -1.920419,-1.5865 -2.604059,-2.5692 -2.40625,-3.4688 0.132535,-0.6027 2.390356,-2.9863 3.53125,-3.7187 0.480041,-0.308 0.484299,-0.3847 0.1875,-1.2188 -0.170331,-0.4787 -0.495634,-1.3047 -0.75,-1.8437 l -0.46875,-0.9688 -2.8125,0 c -3.734658,0 -3.61904,0.1225 -3.625,-3.6562 l 0,-2.875 -1.84375,-0.7188 L 83.602209,1013.9115 z m -0.28125,1 1.71875,0.6875 1.71875,0.6875 0,2.6875 c 0.0056,3.5425 -0.09502,3.4375 3.40625,3.4375 l 2.625,0 0.4375,0.9063 c 0.23847,0.5053 0.559063,1.2699 0.71875,1.7187 0.278251,0.782 0.262542,0.8675 -0.1875,1.1563 -1.069598,0.6866 -3.188247,2.9349 -3.3125,3.5 -0.185448,0.8433 0.449591,1.7626 2.25,3.25 l 1.5,1.25 -0.5,1.2812 c -0.867185,2.3012 -0.559081,2.1399 -3.34375,2 -2.884089,-0.1447 -3.343181,0.013 -3.71875,1.4063 -0.217053,0.805 -0.132872,2.9917 0.15625,4.1875 0.09666,0.3998 -0.05362,0.5245 -1.1875,1.0312 -2.260092,1.0097 -2.215929,1.0295 -3.34375,-0.375 -1.185942,-1.4769 -2.426775,-2.4375 -3.15625,-2.4375 -0.292998,0 -0.831907,0.218 -1.21875,0.5 -0.710974,0.5183 -2.6875,2.711 -2.6875,3 0,0.3329 -1.228415,-0.035 -2.8125,-0.8437 l -0.84375,-0.4375 0.125,-2.0938 c 0.24367,-3.7643 -0.138608,-4.1394 -3.90625,-3.9375 l -2.3125,0.125 -0.625,-1.5312 c -0.345521,-0.829 -0.625,-1.597 -0.625,-1.75 0,-0.1531 0.449091,-0.6428 1,-1.0625 1.598537,-1.2175 2.65625,-2.4843 2.65625,-3.1563 0,-0.7875 -0.883276,-1.9746 -2.40625,-3.1875 -0.691095,-0.5503 -1.25,-1.1224 -1.25,-1.2812 0,-0.1585 0.283821,-0.9627 0.625,-1.7813 l 0.59375,-1.5 2.34375,0.125 c 2.946705,0.1298 3.313365,0.027 3.71875,-0.9375 0.248933,-0.5926 0.29006,-1.155 0.1875,-2.625 -0.07212,-1.0337 -0.15925,-2.0325 -0.21875,-2.1875 -0.07428,-0.1933 0.33521,-0.4697 1.3125,-0.9062 2.179252,-0.9732 2.293004,-1.0034 2.84375,-0.1875 0.260684,0.3861 0.998672,1.2174 1.65625,1.8437 0.997299,0.9503 1.325045,1.1563 1.9375,1.1563 0.612494,0 0.911827,-0.2006 1.8125,-1.0938 0.593829,-0.5892 1.381699,-1.409 1.71875,-1.8437 L 83.320959,1014.9115 Z"
         style="fill:#000000;fill-opacity:0.27058824"
         inkscape:connector-curvature="0" />
      <path
         sodipodi:nodetypes="ccscccccccccccscccsccscccccccccccccccccccscccccccccccsccccscsscccsccc"
         inkscape:connector-curvature="0"
         id="path862"
         d="m 71.008459,1016.5208 c -0.08147,0.087 -0.118817,0.1536 -0.09375,0.2188 0.06347,0.1653 0.173075,1.2099 0.25,2.3125 0.01793,0.257 0.02184,0.4463 0.03125,0.6562 0.01446,-0.3971 0.01549,-0.8613 -0.03125,-1.5312 C 71.118799,1017.519 71.062407,1016.9608 71.008459,1016.5208 z m 8.101121,7.6846 c -1.651647,0.016 -2.430563,0.3158 -3.608031,1.3957 -1.177332,1.0796 -1.709649,2.2789 -1.71184,3.8188 -2.3e-4,0.1544 0.01799,0.2997 0.02634,0.4476 0.06906,-1.3993 0.585418,-2.5202 1.685504,-3.529 1.177468,-1.0799 1.956384,-1.3796 3.608031,-1.3957 1.152161,-0.011 1.550095,0.072 2.422912,0.5003 1.817433,0.8915 2.827895,2.4251 2.949631,4.4244 0.0074,-0.1238 0.0269,-0.2417 0.02634,-0.3687 -0.0097,-2.1833 -1.045912,-3.8464 -2.975967,-4.7931 C 80.659675,1024.2778 80.261741,1024.1944 79.10958,1024.2054 z m -15.757371,1.4092 c -0.100247,0.2944 -0.15625,0.5486 -0.15625,0.625 0,0.1694 0.606589,0.788 1.34375,1.375 1.344355,1.0706 2.202969,2.1017 2.46875,2.9062 0.06189,-0.153 0.09375,-0.2859 0.09375,-0.4062 0,-0.84 -0.938009,-2.1126 -2.5625,-3.4063 C 64.023697,1026.2974 63.575971,1025.8916 63.352209,1025.6146 z m 31.625,0.1562 c -0.06151,0.053 -0.145376,0.089 -0.25,0.1563 -1.140894,0.7324 -3.398714,3.1473 -3.53125,3.75 -0.05545,0.2522 -0.05996,0.5037 0.03125,0.7812 0.275185,-0.7025 2.400906,-2.9194 3.5,-3.625 C 95.169438,1026.5495 95.205444,1026.4314 94.977209,1025.7708 z m -0.03125,9.375 -0.28125,0.6875 c -0.924989,2.4546 -0.592214,2.2742 -3.5625,2.125 -3.076333,-0.1544 -3.568146,0.045 -3.96875,1.5313 -0.125693,0.4662 -0.139407,1.353 -0.09375,2.2812 0.0055,-0.5754 0.01,-1.0956 0.09375,-1.4062 0.400604,-1.4859 0.892417,-1.6544 3.96875,-1.5 2.970286,0.1492 2.637511,0.3296 3.5625,-2.125 L 95.195959,1035.3646 z m -31.59375,0.062 c -0.09069,0.1132 -0.15625,0.2281 -0.15625,0.2818 0,0.1632 0.287698,0.9907 0.65625,1.875 l 0.6875,1.625 2.46875,-0.125 c 3.257424,-0.1746 4.109161,0.08 4.1875,2.3125 0.101116,-3.0567 -0.542295,-3.4141 -4.1875,-3.2188 l -2.46875,0.1563 -0.6875,-1.625 C 63.650214,1036.0049 63.475333,1035.5669 63.352209,1035.2083 z m 15.75,6.8438 c -0.312528,0 -0.899872,0.2304 -1.3125,0.5312 -0.758366,0.5529 -2.84375,2.9105 -2.84375,3.2188 0,0.3551 -1.310325,-0.044 -3,-0.9063 l -0.84375,-0.4375 -0.0625,0.8438 0.90625,0.4687 c 1.689675,0.8622 3,1.2614 3,0.9063 0,-0.3083 2.085384,-2.6659 2.84375,-3.2188 0.412628,-0.3008 0.999972,-0.5312 1.3125,-0.5312 0.7781,0 2.078757,1.0184 3.34375,2.5937 1.202998,1.4981 1.183007,1.4834 3.59375,0.4063 1.209464,-0.5404 1.353104,-0.6673 1.25,-1.0938 -0.03195,-0.1321 -0.03547,-0.3168 -0.0625,-0.4687 -0.142047,0.1829 -0.467257,0.3657 -1.1875,0.6875 -2.410743,1.0771 -2.390752,1.0918 -3.59375,-0.4063 C 81.180966,1043.0705 79.880309,1042.0521 79.102209,1042.0521 Z"
         style="fill:#ffffff;fill-opacity:1" />
      <path
         sodipodi:nodetypes="cccsccccccccscccccccccccccscccccccscccccccscccccsccccccccccsccscccccccccccccc"
         inkscape:connector-curvature="0"
         id="path876"
         d="m 83.602209,1013.4475 -0.65625,0.8437 c -0.359517,0.4637 -1.179089,1.3403 -1.8125,1.9688 -0.960709,0.9527 -1.284179,1.1562 -1.9375,1.1562 -0.653279,0 -0.998725,-0.2051 -2.0625,-1.2187 -0.70141,-0.6681 -1.50319,-1.557 -1.78125,-1.9688 -0.587457,-0.8703 -0.706737,-0.8506 -3.03125,0.1875 -1.042433,0.4656 -1.485482,0.7626 -1.40625,0.9688 0.01092,0.028 0.01775,0.2053 0.03125,0.2812 0.139103,-0.1951 0.593175,-0.4633 1.375,-0.8125 2.324513,-1.0381 2.443793,-1.0578 3.03125,-0.1875 0.27806,0.4118 1.07984,1.3007 1.78125,1.9688 1.063775,1.0136 1.409221,1.2187 2.0625,1.2187 0.653321,0 0.976791,-0.1723 1.9375,-1.125 0.633411,-0.6285 1.452983,-1.5363 1.8125,-2 l 0.65625,-0.8437 1.8125,0.75 1.84375,0.75 0,-0.4688 L 85.414709,1014.1975 z m -12.375,5.5312 c -0.0025,0.6739 -0.0757,1.1163 -0.25,1.5313 -0.432407,1.0294 -0.825627,1.1385 -3.96875,1 l -2.5,-0.125 -0.65625,1.5937 c -0.363921,0.8731 -0.65625,1.7373 -0.65625,1.9063 0,0.034 0.018,0.09 0.0625,0.1562 0.08843,-0.3337 0.303313,-0.9282 0.59375,-1.625 l 0.65625,-1.5937 2.5,0.125 c 3.143123,0.1385 3.536343,0.029 3.96875,-1 C 71.188381,1020.4448 71.262125,1019.9472 71.227209,1018.9787 z m 16.0625,0.9688 c 0.07727,1.9928 0.559599,1.9375 3.59375,1.9375 l 2.8125,0 0.46875,0.9687 c 0.254366,0.539 0.579668,1.3963 0.75,1.875 0.06397,0.1798 0.122271,0.2889 0.15625,0.4063 0.07514,-0.1607 0.02069,-0.3778 -0.15625,-0.875 -0.170332,-0.4787 -0.495634,-1.3048 -0.75,-1.8438 l -0.46875,-0.9687 -2.8125,0 C 88.082466,1021.4475 87.430167,1021.5036 87.289709,1019.9475 z m -2.78125,10.2229 c -0.104414,3.9522 -4.201464,6.4382 -7.765548,4.6593 -1.75594,-0.8765 -2.71241,-2.2046 -2.921952,-4.0802 0.120693,2.0712 1.052844,3.542 2.921952,4.4751 3.618414,1.806 7.78357,-0.7865 7.765548,-4.8436 C 84.508147,1030.3108 84.510888,1030.2394 84.508459,1030.1704 z m 6.65625,-0.4109 c -0.110408,0.8671 0.605421,1.8301 2.4375,3.3437 l 1.46875,1.25 0.125,-0.3437 -1.59375,-1.3438 C 92.073556,1031.4033 91.305973,1030.5223 91.164709,1029.76 z m -24.09375,0.094 c -0.179756,0.7514 -1.257238,1.9717 -2.8125,3.1563 -0.587631,0.4477 -1.0625,0.9617 -1.0625,1.125 0,0.035 0.06775,0.1873 0.09375,0.2812 0.14945,-0.2278 0.508439,-0.618 0.96875,-0.9687 1.70509,-1.2987 2.84375,-2.6582 2.84375,-3.375 C 67.102209,1029.9986 67.085527,1029.9337 67.070959,1029.8537 z m 4.15625,10.6875 c -0.009,0.3522 -0.03453,0.7242 -0.0625,1.1563 l -0.125,2.25 0.03125,0 0.09375,-1.8125 C 71.205067,1041.5115 71.229793,1041.0018 71.227209,1040.5412 z m 15.78125,0.6563 c 0.01244,0.9103 0.116604,1.9003 0.28125,2.625 0.04398,-0.099 0.03239,-0.2098 0,-0.3438 C 87.142994,1042.8719 87.043734,1042.0087 87.008459,1041.1975 Z"
         style="fill:#000000;fill-opacity:0.8" />
      <path
         inkscape:connector-curvature="0"
         id="path922"
         d="m 79.195959,1020.849 c -5.01193,0 -9.0625,4.0506 -9.0625,9.0625 0,5.0119 4.05057,9.0625 9.0625,9.0625 5.01193,0 9.0625,-4.0506 9.0625,-9.0625 C 88.258459,1024.8996 84.207889,1020.849 79.195959,1020.849 z m 0,1.8012 c 4.017131,0 7.261258,3.2442 7.261258,7.2613 0,4.0171 -3.244127,7.2613 -7.261258,7.2613 -4.017131,0 -7.261258,-3.2442 -7.261258,-7.2613 C 71.934701,1025.8944 75.178828,1022.6502 79.195959,1022.6502 Z"
         style="color:#000000;fill:url(#linearGradient933);fill-opacity:1;fill-rule:nonzero;stroke:none;stroke-width:0.2;marker:none;visibility:visible;display:inline;overflow:visible;enable-background:accumulate" />
    </g>
  </g>
</svg>
