<?xml version="1.0" encoding="UTF-8" standalone="no"?>
<!-- Created with Inkscape (http://www.inkscape.org/) -->

<svg
   xmlns:dc="http://purl.org/dc/elements/1.1/"
   xmlns:cc="http://creativecommons.org/ns#"
   xmlns:rdf="http://www.w3.org/1999/02/22-rdf-syntax-ns#"
   xmlns:svg="http://www.w3.org/2000/svg"
   xmlns="http://www.w3.org/2000/svg"
   xmlns:xlink="http://www.w3.org/1999/xlink"
   xmlns:sodipodi="http://sodipodi.sourceforge.net/DTD/sodipodi-0.dtd"
   xmlns:inkscape="http://www.inkscape.org/namespaces/inkscape"
   width="48"
   height="48"
   id="svg2"
   version="1.1"
   inkscape:version="0.48+devel r12149"
   sodipodi:docname="xfce4-panel.svg">
  <defs
     id="defs4">
    <linearGradient
       id="linearGradient3700-46-1">
      <stop
         offset="0"
         style="stop-color:#2276c5;stop-opacity:1"
         id="stop3702-4-1" />
      <stop
         offset="1"
         style="stop-color:#68baf4;stop-opacity:1"
         id="stop3704-2-4" />
    </linearGradient>
    <linearGradient
       inkscape:collect="always"
       xlink:href="#linearGradient1378"
       id="linearGradient1365"
       x1="274.54669"
       y1="698.57471"
       x2="302.72244"
       y2="728.87933"
       gradientUnits="userSpaceOnUse"
       gradientTransform="matrix(0.95833549,0,0,0.95833549,-252.54825,334.72905)" />
    <linearGradient
       inkscape:collect="always"
       id="linearGradient1378">
      <stop
         style="stop-color:#ffffff;stop-opacity:0.26595744"
         offset="0"
         id="stop1380" />
      <stop
         style="stop-color:#ffffff;stop-opacity:0;"
         offset="1"
         id="stop1382" />
    </linearGradient>
    <linearGradient
       inkscape:collect="always"
       xlink:href="#linearGradient1378"
       id="linearGradient1384"
       x1="310.04129"
       y1="733.65088"
       x2="260.49445"
       y2="695.97229"
       gradientUnits="userSpaceOnUse"
       gradientTransform="matrix(1.0624126,0,0,1.0624126,-280.03229,-743.05239)" />
    <linearGradient
       inkscape:collect="always"
       xlink:href="#linearGradient1181"
       id="linearGradient1179"
       x1="286.30896"
       y1="706.15204"
       x2="286.30896"
       y2="699.95312"
       gradientUnits="userSpaceOnUse"
       gradientTransform="matrix(0.52787004,0,0,0.62976333,-128.66758,-439.70138)" />
    <linearGradient
       id="linearGradient1181">
      <stop
         id="stop1183"
         style="stop-color:#f9f9f9;stop-opacity:1"
         offset="0" />
      <stop
         id="stop1185"
         style="stop-color:#ffffff;stop-opacity:1"
         offset="1" />
    </linearGradient>
    <linearGradient
       inkscape:collect="always"
       xlink:href="#linearGradient1191"
       id="linearGradient1189"
       gradientUnits="userSpaceOnUse"
       gradientTransform="matrix(0.1011089,0,0,0.62976333,-23.836734,-439.70138)"
       x1="308.95895"
       y1="706.13269"
       x2="308.95895"
       y2="699.66486" />
    <linearGradient
       id="linearGradient1191">
      <stop
         offset="0"
         style="stop-color:#000000;stop-opacity:1"
         id="stop1193" />
      <stop
         offset="1"
         style="stop-color:#4d4d4d;stop-opacity:1"
         id="stop1195" />
    </linearGradient>
    <linearGradient
       y2="1004.8474"
       x2="23.204165"
       y1="1053.158"
       x1="23.204165"
       gradientTransform="matrix(0.95833549,0,0,0.95833549,0.99994742,-961.5147)"
       gradientUnits="userSpaceOnUse"
       id="linearGradient1048"
       xlink:href="#linearGradient3700-46-1"
       inkscape:collect="always" />
  </defs>
  <sodipodi:namedview
     id="base"
     pagecolor="#ffffff"
     bordercolor="#666666"
     borderopacity="1.0"
     inkscape:pageopacity="0"
     inkscape:pageshadow="2"
     inkscape:zoom="4.6886621"
     inkscape:cx="10.962489"
     inkscape:cy="26.774918"
     inkscape:document-units="px"
     inkscape:current-layer="layer1"
     showgrid="false"
     inkscape:window-width="1366"
     inkscape:window-height="716"
     inkscape:window-x="0"
     inkscape:window-y="28"
     inkscape:window-maximized="1">
    <inkscape:grid
       type="xygrid"
       id="grid3850" />
  </sodipodi:namedview>
  <metadata
     id="metadata7">
    <rdf:RDF>
      <cc:Work
         rdf:about="">
        <dc:format>image/svg+xml</dc:format>
        <dc:type
           rdf:resource="http://purl.org/dc/dcmitype/StillImage" />
        <dc:title></dc:title>
      </cc:Work>
    </rdf:RDF>
  </metadata>
  <g
     inkscape:label="Capa 1"
     inkscape:groupmode="layer"
     id="layer1"
     transform="translate(0,-1004.3622)">
    <rect
       style="color:#000000;fill:#333333;fill-opacity:1;fill-rule:nonzero;stroke:none;stroke-width:0.2;marker:none;visibility:visible;display:inline;overflow:visible;enable-background:accumulate"
       id="rect6294"
       width="45.5"
       height="45.5"
       x="1.25"
       y="1005.6122"
       ry="6.3565426" />
    <path
       style="fill:url(#linearGradient1048);fill-opacity:1;stroke:none"
       d="M 7.59375 1.75 C 4.3492254 1.75 1.75 4.3492254 1.75 7.59375 L 1.75 40.40625 C 1.75 43.650775 4.3492254 46.25 7.59375 46.25 L 40.40625 46.25 C 43.650775 46.25 46.25 43.650775 46.25 40.40625 L 46.25 7.59375 C 46.25 4.3492254 43.650775 1.75 40.40625 1.75 L 7.59375 1.75 z "
       transform="translate(0,1004.3622)"
       id="rect2991" />
    <path
       style="fill:#ffffff;fill-opacity:0.15204677;stroke:none"
       d="M 7.59375 1.75 C 4.3492254 1.75 1.75 4.3492254 1.75 7.59375 L 1.75 26.96875 C 15.969001 17.658317 36.333483 12.238469 46.25 10 L 46.25 7.59375 C 46.25 4.3492254 43.650775 1.75 40.40625 1.75 L 7.59375 1.75 z "
       transform="translate(0,1004.3622)"
       id="rect1340" />
    <path
       style="fill:url(#linearGradient1384);fill-opacity:1;stroke:none"
       d="M 7.59375 1.75 C 4.3492254 1.75 1.75 4.3492254 1.75 7.59375 L 1.75 25.5 C 19.027021 27.004729 36.225706 31.5926 46.25 34.65625 L 46.25 19.15625 L 16.09375 1.75 L 7.59375 1.75 z "
       transform="translate(0,1004.3622)"
       id="path1376" />
    <path
       style="opacity:0.5;fill:url(#linearGradient1365);fill-opacity:1;stroke:none"
       d="m 0.99994816,1016.8933 0,22.5508 C 10.80872,1032.5343 24.370845,1027.7349 34.901066,1024.7397 24.039044,1021.2607 11.415094,1018.6714 0.99994816,1016.8933 Z"
       id="path1357"
       inkscape:connector-curvature="0" />
    <path
       style="fill:url(#linearGradient1179);fill-opacity:1;stroke:none"
       d="M 7.59375 1.75 C 5.3124436 1.75 3.3740467 3.0429226 2.40625 4.9375 L 45.59375 4.9375 C 44.625953 3.0429226 42.687556 1.75 40.40625 1.75 L 7.59375 1.75 z "
       transform="translate(0,1004.3622)"
       id="rect1171" />
    <path
       style="fill:url(#linearGradient1189);fill-opacity:1;stroke:none"
       d="M 7.59375 1.75 C 5.3124436 1.75 3.3740467 3.0429226 2.40625 4.9375 L 9.8125 4.9375 L 9.8125 1.75 L 7.59375 1.75 z "
       transform="translate(0,1004.3622)"
       id="rect1187" />
    <path
       id="path6361"
       d="m 1.75,1012.5497 0,-0.5625 c 0,-3.2445 2.59922,-5.875 5.8437499,-5.875 l 32.8125001,0 c 3.24452,0 5.84375,2.6305 5.84375,5.875 l 0,0.5625 c 0,-3.2445 -2.59923,-5.875 -5.84375,-5.875 l -32.8125001,0 C 4.34922,1006.6747 1.75,1009.3052 1.75,1012.5497 Z"
       style="color:#000000;fill:#ffffff;fill-opacity:1;fill-rule:nonzero;stroke:none;stroke-width:0.2;marker:none;visibility:visible;display:inline;overflow:visible;enable-background:accumulate"
       inkscape:connector-curvature="0" />
    <path
       inkscape:connector-curvature="0"
       style="color:#000000;fill:#000000;fill-opacity:1;fill-rule:nonzero;stroke:none;stroke-width:0.2;marker:none;visibility:visible;display:inline;overflow:visible;enable-background:accumulate"
       d="m 1.75,1044.1747 0,0.5625 c 0,3.2445 2.59922,5.875 5.8437499,5.875 l 32.8125001,0 c 3.24452,0 5.84375,-2.6305 5.84375,-5.875 l 0,-0.5625 c 0,3.2445 -2.59923,5.875 -5.84375,5.875 l -32.8125001,0 C 4.34922,1050.0497 1.75,1047.4192 1.75,1044.1747 Z"
       id="path6388" />
  </g>
</svg>
