<?xml version="1.0" encoding="UTF-8" standalone="no"?>
<!-- Created with Inkscape (http://www.inkscape.org/) -->

<svg
   xmlns:dc="http://purl.org/dc/elements/1.1/"
   xmlns:cc="http://creativecommons.org/ns#"
   xmlns:rdf="http://www.w3.org/1999/02/22-rdf-syntax-ns#"
   xmlns:svg="http://www.w3.org/2000/svg"
   xmlns="http://www.w3.org/2000/svg"
   xmlns:xlink="http://www.w3.org/1999/xlink"
   xmlns:sodipodi="http://sodipodi.sourceforge.net/DTD/sodipodi-0.dtd"
   xmlns:inkscape="http://www.inkscape.org/namespaces/inkscape"
   width="48"
   height="48"
   id="svg6393"
   version="1.1"
   inkscape:version="0.48+devel r12126"
   sodipodi:docname="evolution-tasks.svg">
  <defs
     id="defs6395">
    <linearGradient
       inkscape:collect="always"
       id="linearGradient1453">
      <stop
         style="stop-color:#fbf3c2;stop-opacity:1"
         offset="0"
         id="stop1455" />
      <stop
         style="stop-color:#fdfad1;stop-opacity:1"
         offset="1"
         id="stop1457" />
    </linearGradient>
    <linearGradient
       inkscape:collect="always"
       xlink:href="#linearGradient1453"
       id="linearGradient1620"
       x1="425.71429"
       y1="754.61218"
       x2="425.71429"
       y2="709.63373"
       gradientUnits="userSpaceOnUse" />
  </defs>
  <sodipodi:namedview
     id="base"
     pagecolor="#ffffff"
     bordercolor="#666666"
     borderopacity="1.0"
     inkscape:pageopacity="0.0"
     inkscape:pageshadow="2"
     inkscape:zoom="5.6"
     inkscape:cx="59.827384"
     inkscape:cy="32.124096"
     inkscape:document-units="px"
     inkscape:current-layer="layer1"
     showgrid="false"
     fit-margin-top="0"
     fit-margin-left="0"
     fit-margin-right="0"
     fit-margin-bottom="0"
     inkscape:window-width="1366"
     inkscape:window-height="718"
     inkscape:window-x="0"
     inkscape:window-y="28"
     inkscape:window-maximized="1" />
  <metadata
     id="metadata6398">
    <rdf:RDF>
      <cc:Work
         rdf:about="">
        <dc:format>image/svg+xml</dc:format>
        <dc:type
           rdf:resource="http://purl.org/dc/dcmitype/StillImage" />
        <dc:title />
      </cc:Work>
    </rdf:RDF>
  </metadata>
  <g
     inkscape:label="Capa 1"
     inkscape:groupmode="layer"
     id="layer1"
     transform="translate(-401.71429,-708.36218)">
    <rect
       style="color:#000000;fill:#333333;fill-opacity:1;fill-rule:nonzero;stroke:none;stroke-width:0.2;marker:none;visibility:visible;display:inline;overflow:visible;enable-background:accumulate"
       id="rect6294"
       width="45.5"
       height="45.5"
       x="402.96429"
       y="709.61218"
       ry="6.3565426" />
    <rect
       ry="5.8565426"
       y="710.11218"
       x="403.46429"
       height="44.5"
       width="44.5"
       id="rect6296"
       style="color:#000000;fill:url(#linearGradient1620);fill-opacity:1;fill-rule:nonzero;stroke:none;stroke-width:0.2;marker:none;visibility:visible;display:inline;overflow:visible;enable-background:accumulate" />
    <path
       id="path6361"
       d="m 403.46427,716.5497 0,-0.5625 c 0,-3.2445 2.5992,-5.875 5.8438,-5.875 l 32.8125,0 c 3.2445,0 5.8437,2.6305 5.8437,5.875 l 0,0.5625 c 0,-3.2445 -2.5992,-5.875 -5.8437,-5.875 l -32.8125,0 C 406.06347,710.6747 403.46427,713.3052 403.46427,716.5497 Z"
       style="color:#000000;fill:#ffffff;fill-opacity:1;fill-rule:nonzero;stroke:none;stroke-width:0.2;marker:none;visibility:visible;display:inline;overflow:visible;enable-background:accumulate"
       inkscape:connector-curvature="0" />
    <path
       inkscape:connector-curvature="0"
       style="color:#000000;fill:#000000;fill-opacity:1;fill-rule:nonzero;stroke:none;stroke-width:0.2;marker:none;visibility:visible;display:inline;overflow:visible;enable-background:accumulate"
       d="m 403.46427,748.1747 0,0.5625 c 0,3.2445 2.5992,5.875 5.8438,5.875 l 32.8125,0 c 3.2445,0 5.8437,-2.6305 5.8437,-5.875 l 0,-0.5625 c 0,3.2445 -2.5992,5.875 -5.8437,5.875 l -32.8125,0 C 406.06347,754.0497 403.46427,751.4192 403.46427,748.1747 Z"
       id="path6388" />
    <path
       style="fill:#4d4d4d;fill-opacity:0.35371178;stroke:none"
       d="M 8.15625 1.75 L 8.15625 5.8125 L 2.03125 5.8125 C 1.9919041 5.9345833 1.9689343 6.0620099 1.9375 6.1875 L 8.15625 6.1875 L 8.15625 11.8125 L 1.75 11.8125 L 1.75 12.1875 L 8.15625 12.1875 L 8.15625 17.8125 L 1.75 17.8125 L 1.75 18.1875 L 8.15625 18.1875 L 8.15625 23.8125 L 1.75 23.8125 L 1.75 24.1875 L 8.15625 24.1875 L 8.15625 29.8125 L 1.75 29.8125 L 1.75 30.1875 L 8.15625 30.1875 L 8.15625 35.8125 L 1.75 35.8125 L 1.75 36.1875 L 8.15625 36.1875 L 8.15625 41.8125 L 1.9375 41.8125 C 1.9689343 41.93799 1.9919041 42.065417 2.03125 42.1875 L 8.15625 42.1875 L 8.15625 46.25 L 8.53125 46.25 L 8.53125 42.1875 L 9.40625 42.1875 L 9.40625 46.25 L 9.78125 46.25 L 9.78125 42.1875 L 45.96875 42.1875 C 46.008096 42.065417 46.031066 41.93799 46.0625 41.8125 L 9.78125 41.8125 L 9.78125 36.1875 L 46.25 36.1875 L 46.25 35.8125 L 9.78125 35.8125 L 9.78125 30.1875 L 46.25 30.1875 L 46.25 29.8125 L 9.78125 29.8125 L 9.78125 24.1875 L 46.25 24.1875 L 46.25 23.8125 L 9.78125 23.8125 L 9.78125 18.1875 L 46.25 18.1875 L 46.25 17.8125 L 9.78125 17.8125 L 9.78125 12.1875 L 46.25 12.1875 L 46.25 11.8125 L 9.78125 11.8125 L 9.78125 6.1875 L 46.0625 6.1875 C 46.031066 6.0620099 46.008096 5.9345833 45.96875 5.8125 L 9.78125 5.8125 L 9.78125 1.75 L 9.40625 1.75 L 9.40625 5.8125 L 8.53125 5.8125 L 8.53125 1.75 L 8.15625 1.75 z M 8.53125 6.1875 L 9.40625 6.1875 L 9.40625 11.8125 L 8.53125 11.8125 L 8.53125 6.1875 z M 8.53125 12.1875 L 9.40625 12.1875 L 9.40625 17.8125 L 8.53125 17.8125 L 8.53125 12.1875 z M 8.53125 18.1875 L 9.40625 18.1875 L 9.40625 23.8125 L 8.53125 23.8125 L 8.53125 18.1875 z M 8.53125 24.1875 L 9.40625 24.1875 L 9.40625 29.8125 L 8.53125 29.8125 L 8.53125 24.1875 z M 8.53125 30.1875 L 9.40625 30.1875 L 9.40625 35.8125 L 8.53125 35.8125 L 8.53125 30.1875 z M 8.53125 36.1875 L 9.40625 36.1875 L 9.40625 41.8125 L 8.53125 41.8125 L 8.53125 36.1875 z "
       transform="translate(401.71429,708.36218)"
       id="path1494" />
    <path
       style="fill:#666666;fill-opacity:1;stroke:none"
       d="m 406.06558,715.86218 -0.53425,0.53425 0.96576,0.96575 -0.96576,0.96575 0.53425,0.53425 0.96575,-0.96575 0.96576,0.96575 0.53424,-0.53425 -0.96575,-0.96575 0.96575,-0.96575 -0.53424,-0.53425 -0.96576,0.96575 L 406.06558,715.86218 Z"
       id="rect1472"
       inkscape:connector-curvature="0" />
    <path
       style="fill:#666666;fill-opacity:1;stroke:none"
       d="m 408.41482,727.86218 -1.95146,1.95145 -0.81553,-0.81552 -0.52427,0.52427 0.81553,0.81553 0.52427,0.52427 0.52428,-0.52427 1.95145,-1.95146 L 408.41482,727.86218 Z"
       id="rect1476"
       inkscape:connector-curvature="0" />
    <path
       inkscape:connector-curvature="0"
       id="path1496"
       d="m 408.41482,721.86218 -1.95146,1.95145 -0.81553,-0.81552 -0.52427,0.52427 0.81553,0.81553 0.52427,0.52427 0.52428,-0.52427 1.95145,-1.95146 L 408.41482,721.86218 Z"
       style="fill:#666666;fill-opacity:1;stroke:none" />
    <path
       inkscape:connector-curvature="0"
       id="path1498"
       d="m 406.06558,733.86218 -0.53425,0.53425 0.96576,0.96575 -0.96576,0.96575 0.53425,0.53425 0.96575,-0.96575 0.96576,0.96575 0.53424,-0.53425 -0.96575,-0.96575 0.96575,-0.96575 -0.53424,-0.53425 -0.96576,0.96575 L 406.06558,733.86218 Z"
       style="fill:#666666;fill-opacity:1;stroke:none" />
    <path
       inkscape:connector-curvature="0"
       id="path1500"
       d="m 408.41482,745.86218 -1.95146,1.95145 -0.81553,-0.81552 -0.52427,0.52427 0.81553,0.81553 0.52427,0.52427 0.52428,-0.52427 1.95145,-1.95146 L 408.41482,745.86218 Z"
       style="fill:#666666;fill-opacity:1;stroke:none" />
    <path
       style="fill:#666666;fill-opacity:1;stroke:none"
       d="m 406.06558,739.86218 -0.53425,0.53425 0.96576,0.96575 -0.96576,0.96575 0.53425,0.53425 0.96575,-0.96575 0.96576,0.96575 0.53424,-0.53425 -0.96575,-0.96575 0.96575,-0.96575 -0.53424,-0.53425 -0.96576,0.96575 L 406.06558,739.86218 Z"
       id="path1504"
       inkscape:connector-curvature="0" />
    <path
       inkscape:connector-curvature="0"
       id="path1654"
       style="font-size:2.50919676px;font-style:normal;font-variant:normal;font-weight:bold;font-stretch:normal;text-align:start;line-height:125%;letter-spacing:0px;word-spacing:0px;writing-mode:lr-tb;text-anchor:start;fill:#706f6c;fill-opacity:1;stroke:none;font-family:Helvetica;-inkscape-font-specification:Helvetica Bold"
       d="m 414.87043,717.99451 -0.50937,-1.80161 0.40147,0 q 0.0979,0.41653 0.16812,0.73269 0.0427,0.18568 0.0753,0.3538 0.0326,0.16811 0.0427,0.23084 0.0326,-0.18819 0.0678,-0.37387 0.0502,-0.26848 0.18819,-0.94346 l 0.39896,0 q 0.14553,0.68752 0.19823,0.94095 0.0351,0.17314 0.0702,0.37638 0.0326,-0.16811 0.0753,-0.36383 0.0452,-0.19572 0.22332,-0.9535 l 0.3814,0 -0.50686,1.80161 -0.36133,0 q -0.0401,-0.1907 -0.14051,-0.68 -0.0402,-0.20073 -0.0778,-0.39143 -0.0376,-0.19321 -0.0627,-0.33372 -0.0301,0.17313 -0.0552,0.31114 -0.0401,0.20575 -0.0778,0.39143 -0.0753,0.35129 -0.14805,0.70258 L 414.87043,717.99451 Z" />
    <path
       inkscape:connector-curvature="0"
       id="path1656"
       style="font-size:2.50919676px;font-style:normal;font-variant:normal;font-weight:bold;font-stretch:normal;text-align:start;line-height:125%;letter-spacing:0px;word-spacing:0px;writing-mode:lr-tb;text-anchor:start;fill:#706f6c;fill-opacity:1;stroke:none;font-family:Helvetica;-inkscape-font-specification:Helvetica Bold"
       d="m 417.83693,717.0109 0.002,0.72265 q 0,0.11041 0.0201,0.15306 0.0201,0.0427 0.0577,0.0552 l 0,0.0527 -0.37889,0 q -0.0251,-0.0753 -0.0326,-0.15808 -0.0853,0.0903 -0.15557,0.12797 -0.11542,0.0652 -0.27601,0.0652 -0.16812,0 -0.27852,-0.0903 -0.12797,-0.10538 -0.12797,-0.29859 0,-0.18819 0.10288,-0.29358 0.10538,-0.10789 0.28605,-0.13298 l 0.31364,-0.0477 q 0.0728,-0.01 0.0979,-0.0351 0.0276,-0.0276 0.0276,-0.0702 0,-0.0979 -0.0828,-0.13299 -0.0527,-0.0226 -0.15055,-0.0226 -0.11542,0 -0.16812,0.0627 -0.0376,0.0452 -0.0452,0.12295 l -0.33874,0 q 0.0251,-0.27602 0.20826,-0.38642 0.13299,-0.0803 0.38642,-0.0803 0.20073,0 0.33623,0.0677 Q 417.83693,716.79009 417.83693,717.0109 z m -0.34126,0.50435 0,-0.17063 q -0.0251,0.0201 -0.0803,0.0402 -0.0552,0.0176 -0.16812,0.0351 -0.1104,0.0176 -0.15808,0.0502 -0.0703,0.0477 -0.0703,0.14805 0,0.0828 0.0552,0.12546 0.0452,0.0351 0.10789,0.0351 0.12546,0 0.2183,-0.0728 Q 417.49567,717.63318 417.49567,717.51525 Z" />
    <path
       inkscape:connector-curvature="0"
       id="path1658"
       style="font-size:2.50919676px;font-style:normal;font-variant:normal;font-weight:bold;font-stretch:normal;text-align:start;line-height:125%;letter-spacing:0px;word-spacing:0px;writing-mode:lr-tb;text-anchor:start;fill:#706f6c;fill-opacity:1;stroke:none;font-family:Helvetica;-inkscape-font-specification:Helvetica Bold"
       d="m 418.51602,717.57296 0,0.42155 -0.35129,0 0,-1.80161 0.34878,0 0,0.97357 0.44162,-0.50686 0.43158,0 -0.47173,0.5169 0.48678,0.818 -0.42154,0 -0.32118,-0.5721 L 418.51602,717.57296 Z" />
    <path
       inkscape:connector-curvature="0"
       id="path1660"
       style="font-size:2.50919676px;font-style:normal;font-variant:normal;font-weight:bold;font-stretch:normal;text-align:start;line-height:125%;letter-spacing:0px;word-spacing:0px;writing-mode:lr-tb;text-anchor:start;fill:#706f6c;fill-opacity:1;stroke:none;font-family:Helvetica;-inkscape-font-specification:Helvetica Bold"
       d="m 420.3858,717.60307 0.36132,0 q -0.0652,0.22332 -0.24088,0.33373 -0.14804,0.0928 -0.34627,0.0928 -0.30863,0 -0.47424,-0.15808 -0.1907,-0.18318 -0.1907,-0.5721 0,-0.22834 0.0979,-0.39645 0.16059,-0.27852 0.53948,-0.27852 0.25343,0 0.41402,0.138 0.21579,0.18568 0.21579,0.59719 l -0.003,0.0627 -0.91586,0 q 0.0226,0.17815 0.0953,0.25343 0.0753,0.0728 0.22081,0.0728 0.0778,0 0.14052,-0.0376 Q 420.36573,717.67333 420.3858,717.60307 z m -0.52944,-0.409 0.54449,0 q -0.0151,-0.14804 -0.10036,-0.22081 -0.0703,-0.0602 -0.17063,-0.0602 -0.12295,0 -0.1907,0.0728 Q 419.87141,717.05858 419.85636,717.19407 Z" />
    <path
       inkscape:connector-curvature="0"
       id="path1662"
       style="font-size:2.50919676px;font-style:normal;font-variant:normal;font-weight:bold;font-stretch:normal;text-align:start;line-height:125%;letter-spacing:0px;word-spacing:0px;writing-mode:lr-tb;text-anchor:start;fill:#706f6c;fill-opacity:1;stroke:none;font-family:Helvetica;-inkscape-font-specification:Helvetica Bold"
       d="m 422.89747,716.65961 0,1.3349 -0.33624,0 0,-0.18819 q -0.13298,0.22332 -0.41151,0.22332 -0.20826,0 -0.32619,-0.11794 -0.12797,-0.12797 -0.12797,-0.37387 l -0.003,-0.87822 0.3538,0 0,0.82804 q 0,0.14051 0.0728,0.20073 0.0552,0.0452 0.15557,0.0452 0.1079,0 0.17816,-0.0602 0.0928,-0.0803 0.0928,-0.24339 l 0,-0.77033 L 422.89747,716.65961 Z" />
    <path
       inkscape:connector-curvature="0"
       id="path1664"
       style="font-size:2.50919676px;font-style:normal;font-variant:normal;font-weight:bold;font-stretch:normal;text-align:start;line-height:125%;letter-spacing:0px;word-spacing:0px;writing-mode:lr-tb;text-anchor:start;fill:#706f6c;fill-opacity:1;stroke:none;font-family:Helvetica;-inkscape-font-specification:Helvetica Bold"
       d="m 423.5557,717.35717 q 0,0.16561 0.0677,0.26598 0.0803,0.11793 0.23837,0.11793 0.15306,0 0.23085,-0.14303 0.0602,-0.1104 0.0602,-0.26095 0,-0.17816 -0.0652,-0.28354 -0.0778,-0.12546 -0.23587,-0.12546 -0.1656,0 -0.23837,0.13299 Q 423.5557,717.16647 423.5557,717.35717 z m -0.003,-0.69756 0.003,0.19321 q 0.0703,-0.10538 0.138,-0.15306 0.10539,-0.0753 0.26347,-0.0753 0.23586,0 0.38893,0.17062 0.16811,0.18568 0.16811,0.5169 0,0.30361 -0.13048,0.49682 -0.15055,0.22081 -0.43158,0.22081 -0.15808,0 -0.26346,-0.0753 -0.0627,-0.0452 -0.11543,-0.13048 l -0.003,0.69003 -0.35128,0 0,-1.8543 L 423.55319,716.65961 Z" />
    <path
       inkscape:connector-curvature="0"
       id="path1666"
       style="font-size:2.50919676px;font-style:normal;font-variant:normal;font-weight:bold;font-stretch:normal;text-align:start;line-height:125%;letter-spacing:0px;word-spacing:0px;writing-mode:lr-tb;text-anchor:start;fill:#706f6c;fill-opacity:1;stroke:none;font-family:Helvetica;-inkscape-font-specification:Helvetica Bold"
       d="m 426.24223,717.60307 0.36132,0 q -0.0652,0.22332 -0.24088,0.33373 -0.14805,0.0928 -0.34627,0.0928 -0.30863,0 -0.47424,-0.15808 -0.1907,-0.18318 -0.1907,-0.5721 0,-0.22834 0.0979,-0.39645 0.16059,-0.27852 0.53948,-0.27852 0.25343,0 0.41401,0.138 0.21579,0.18568 0.21579,0.59719 l -0.002,0.0627 -0.91586,0 q 0.0226,0.17815 0.0954,0.25343 0.0753,0.0728 0.22081,0.0728 0.0778,0 0.14051,-0.0376 Q 426.22215,717.67333 426.24223,717.60307 z m -0.52945,-0.409 0.5445,0 q -0.015,-0.14804 -0.10037,-0.22081 -0.0703,-0.0602 -0.17062,-0.0602 -0.12295,0 -0.1907,0.0728 Q 425.72784,717.05858 425.71278,717.19407 Z" />
    <path
       inkscape:connector-curvature="0"
       id="path1668"
       style="font-size:2.50919676px;font-style:normal;font-variant:normal;font-weight:bold;font-stretch:normal;text-align:start;line-height:125%;letter-spacing:0px;word-spacing:0px;writing-mode:lr-tb;text-anchor:start;fill:#706f6c;fill-opacity:1;stroke:none;font-family:Helvetica;-inkscape-font-specification:Helvetica Bold"
       d="m 427.93252,717.0109 0.003,0.72265 q 0,0.11041 0.0201,0.15306 0.0201,0.0427 0.0577,0.0552 l 0,0.0527 -0.37889,0 q -0.0251,-0.0753 -0.0326,-0.15808 -0.0853,0.0903 -0.15557,0.12797 -0.11543,0.0652 -0.27601,0.0652 -0.16812,0 -0.27852,-0.0903 -0.12797,-0.10538 -0.12797,-0.29859 0,-0.18819 0.10287,-0.29358 0.10539,-0.10789 0.28605,-0.13298 l 0.31365,-0.0477 q 0.0728,-0.01 0.0979,-0.0351 0.0276,-0.0276 0.0276,-0.0702 0,-0.0979 -0.0828,-0.13299 -0.0527,-0.0226 -0.15055,-0.0226 -0.11543,0 -0.16812,0.0627 -0.0376,0.0452 -0.0452,0.12295 l -0.33874,0 q 0.0251,-0.27602 0.20827,-0.38642 0.13298,-0.0803 0.38641,-0.0803 0.20074,0 0.33623,0.0677 Q 427.93252,716.79009 427.93252,717.0109 z m -0.34125,0.50435 0,-0.17063 q -0.0251,0.0201 -0.0803,0.0402 -0.0552,0.0176 -0.16812,0.0351 -0.1104,0.0176 -0.15808,0.0502 -0.0703,0.0477 -0.0703,0.14805 0,0.0828 0.0552,0.12546 0.0452,0.0351 0.10789,0.0351 0.12546,0 0.2183,-0.0728 Q 427.59127,717.63318 427.59127,717.51525 Z" />
    <path
       inkscape:connector-curvature="0"
       id="path1670"
       style="font-size:2.50919676px;font-style:normal;font-variant:normal;font-weight:bold;font-stretch:normal;text-align:start;line-height:125%;letter-spacing:0px;word-spacing:0px;writing-mode:lr-tb;text-anchor:start;fill:#706f6c;fill-opacity:1;stroke:none;font-family:Helvetica;-inkscape-font-specification:Helvetica Bold"
       d="m 428.24778,717.99451 -0.003,-1.3349 0.33623,0 0.003,0.23085 q 0.0728,-0.13299 0.13048,-0.18317 0.0928,-0.0828 0.23837,-0.0828 l 0.0703,0.005 -0.003,0.35631 q -0.0226,-0.003 -0.0452,-0.003 -0.0201,-0.003 -0.0527,-0.003 -0.18568,0 -0.26346,0.10288 -0.0602,0.0778 -0.0602,0.21579 l 0,0.69505 L 428.24778,717.99451 Z" />
    <path
       inkscape:connector-curvature="0"
       id="path1672"
       style="font-size:2.50919676px;font-style:normal;font-variant:normal;font-weight:bold;font-stretch:normal;text-align:start;line-height:125%;letter-spacing:0px;word-spacing:0px;writing-mode:lr-tb;text-anchor:start;fill:#706f6c;fill-opacity:1;stroke:none;font-family:Helvetica;-inkscape-font-specification:Helvetica Bold"
       d="m 429.58687,716.1929 0,1.80161 -0.35129,0 0,-1.80161 L 429.58687,716.1929 Z" />
    <path
       inkscape:connector-curvature="0"
       id="path1674"
       style="font-size:2.50919676px;font-style:normal;font-variant:normal;font-weight:bold;font-stretch:normal;text-align:start;line-height:125%;letter-spacing:0px;word-spacing:0px;writing-mode:lr-tb;text-anchor:start;fill:#706f6c;fill-opacity:1;stroke:none;font-family:Helvetica;-inkscape-font-specification:Helvetica Bold"
       d="m 431.1083,716.65961 -0.45667,1.31231 q -0.12797,0.37889 -0.20325,0.46421 -0.0853,0.0953 -0.31114,0.0953 l -0.16059,-0.005 0,-0.28103 0.0678,0.005 q 0.1079,0 0.15055,-0.0301 0.0577,-0.0401 0.0803,-0.17062 l -0.49431,-1.3901 0.39143,0 0.28856,0.98361 0.27601,-0.98361 L 431.1083,716.65961 Z" />
    <path
       inkscape:connector-curvature="0"
       id="path1631"
       style="font-size:2.50919676px;font-style:normal;font-variant:normal;font-weight:bold;font-stretch:normal;text-align:start;line-height:125%;letter-spacing:0px;word-spacing:0px;writing-mode:lr-tb;text-anchor:start;fill:#706f6c;fill-opacity:1;stroke:none;font-family:Helvetica;-inkscape-font-specification:Helvetica Bold"
       d="m 415.3547,723.32706 0,-0.30361 0.75276,0 0,0.97106 -0.24841,0 -0.0376,-0.22583 q -0.10789,0.12546 -0.19321,0.17815 -0.15306,0.0954 -0.36885,0.0954 -0.34878,0 -0.57711,-0.23335 -0.25092,-0.25594 -0.25092,-0.71011 0,-0.40147 0.21077,-0.65992 0.23837,-0.29357 0.66996,-0.29357 0.37638,0 0.59969,0.21077 0.18819,0.17815 0.18819,0.39645 l -0.37638,0 q 0,-0.0778 -0.0953,-0.17313 -0.12295,-0.12295 -0.29859,-0.12295 -0.22081,0 -0.35881,0.15055 -0.15808,0.17314 -0.15808,0.49682 0,0.33874 0.1656,0.49431 0.13299,0.12546 0.36133,0.12546 0.11793,0 0.2183,-0.0602 0.16811,-0.10037 0.2183,-0.33623 L 415.3547,723.32706 Z" />
    <path
       inkscape:connector-curvature="0"
       id="path1633"
       style="font-size:2.50919676px;font-style:normal;font-variant:normal;font-weight:bold;font-stretch:normal;text-align:start;line-height:125%;letter-spacing:0px;word-spacing:0px;writing-mode:lr-tb;text-anchor:start;fill:#706f6c;fill-opacity:1;stroke:none;font-family:Helvetica;-inkscape-font-specification:Helvetica Bold"
       d="m 417.2199,723.60307 0.36132,0 q -0.0652,0.22332 -0.24088,0.33373 -0.14804,0.0928 -0.34627,0.0928 -0.30863,0 -0.47424,-0.15808 -0.1907,-0.18318 -0.1907,-0.5721 0,-0.22834 0.0979,-0.39645 0.16059,-0.27852 0.53948,-0.27852 0.25343,0 0.41402,0.138 0.21579,0.18568 0.21579,0.59719 l -0.003,0.0627 -0.91586,0 q 0.0226,0.17815 0.0953,0.25343 0.0753,0.0728 0.22081,0.0728 0.0778,0 0.14052,-0.0376 Q 417.19982,723.67333 417.2199,723.60307 z m -0.52944,-0.409 0.54449,0 q -0.015,-0.14804 -0.10036,-0.22081 -0.0703,-0.0602 -0.17063,-0.0602 -0.12295,0 -0.1907,0.0728 Q 416.70551,723.05858 416.69046,723.19407 Z" />
    <path
       inkscape:connector-curvature="0"
       id="path1635"
       style="font-size:2.50919676px;font-style:normal;font-variant:normal;font-weight:bold;font-stretch:normal;text-align:start;line-height:125%;letter-spacing:0px;word-spacing:0px;writing-mode:lr-tb;text-anchor:start;fill:#706f6c;fill-opacity:1;stroke:none;font-family:Helvetica;-inkscape-font-specification:Helvetica Bold"
       d="m 418.22518,722.29829 -0.002,0.36132 0.2208,0 0,0.25092 -0.2183,0 -0.002,0.72516 q 0,0.0652 0.0226,0.0878 0.0251,0.0201 0.12546,0.0201 l 0.0728,-0.005 0,0.26597 -0.1656,0.005 -0.0452,0 q -0.21328,0 -0.29357,-0.0778 -0.0652,-0.0627 -0.0652,-0.21078 l 0,-0.81047 -0.18067,0 -0.002,-0.25092 0.18066,0 0.003,-0.36132 L 418.22518,722.29829 Z" />
    <path
       inkscape:connector-curvature="0"
       id="path1637"
       style="font-size:2.50919676px;font-style:normal;font-variant:normal;font-weight:bold;font-stretch:normal;text-align:start;line-height:125%;letter-spacing:0px;word-spacing:0px;writing-mode:lr-tb;text-anchor:start;fill:#706f6c;fill-opacity:1;stroke:none;font-family:Helvetica;-inkscape-font-specification:Helvetica Bold"
       d="m 420.6524,723.32706 q 0,0.34376 -0.20575,0.53195 -0.18568,0.17063 -0.47675,0.17063 -0.29107,0 -0.47675,-0.17063 -0.20575,-0.18819 -0.20575,-0.53195 0,-0.34125 0.20575,-0.53195 0.18568,-0.17062 0.47424,-0.17062 0.28856,0 0.47675,0.17062 Q 420.6524,722.98581 420.6524,723.32706 z m -0.36132,0 q 0,-0.16561 -0.0577,-0.26597 -0.0803,-0.14052 -0.26346,-0.14052 -0.18066,0 -0.26096,0.13801 -0.0602,0.10538 -0.0602,0.26848 0,0.16561 0.0577,0.26598 0.0803,0.14051 0.26347,0.14051 0.18066,0 0.26096,-0.13801 Q 420.29108,723.49016 420.29108,723.32706 Z" />
    <path
       inkscape:connector-curvature="0"
       id="path1639"
       style="font-size:2.50919676px;font-style:normal;font-variant:normal;font-weight:bold;font-stretch:normal;text-align:start;line-height:125%;letter-spacing:0px;word-spacing:0px;writing-mode:lr-tb;text-anchor:start;fill:#706f6c;fill-opacity:1;stroke:none;font-family:Helvetica;-inkscape-font-specification:Helvetica Bold"
       d="m 422.10354,722.65961 0,1.3349 -0.33623,0 0,-0.18819 q -0.13299,0.22332 -0.41151,0.22332 -0.20826,0 -0.3262,-0.11794 -0.12797,-0.12797 -0.12797,-0.37387 l -0.002,-0.87822 0.35379,0 0,0.82804 q 0,0.14051 0.0728,0.20073 0.0552,0.0452 0.15557,0.0452 0.10789,0 0.17815,-0.0602 0.0928,-0.0803 0.0928,-0.24339 l 0,-0.77033 L 422.10354,722.65961 Z" />
    <path
       inkscape:connector-curvature="0"
       id="path1641"
       style="font-size:2.50919676px;font-style:normal;font-variant:normal;font-weight:bold;font-stretch:normal;text-align:start;line-height:125%;letter-spacing:0px;word-spacing:0px;writing-mode:lr-tb;text-anchor:start;fill:#706f6c;fill-opacity:1;stroke:none;font-family:Helvetica;-inkscape-font-specification:Helvetica Bold"
       d="m 422.82701,722.29829 -0.003,0.36132 0.22081,0 0,0.25092 -0.2183,0 -0.003,0.72516 q 0,0.0652 0.0226,0.0878 0.0251,0.0201 0.12546,0.0201 l 0.0728,-0.005 0,0.26597 -0.1656,0.005 -0.0452,0 q -0.21328,0 -0.29358,-0.0778 -0.0652,-0.0627 -0.0652,-0.21078 l 0,-0.81047 -0.18066,0 -0.003,-0.25092 0.18067,0 0.002,-0.36132 L 422.82701,722.29829 Z" />
    <path
       inkscape:connector-curvature="0"
       id="path1643"
       style="font-size:2.50919676px;font-style:normal;font-variant:normal;font-weight:bold;font-stretch:normal;text-align:start;line-height:125%;letter-spacing:0px;word-spacing:0px;writing-mode:lr-tb;text-anchor:start;fill:#706f6c;fill-opacity:1;stroke:none;font-family:Helvetica;-inkscape-font-specification:Helvetica Bold"
       d="m 425.25423,723.32706 q 0,0.34376 -0.20576,0.53195 -0.18568,0.17063 -0.47674,0.17063 -0.29107,0 -0.47675,-0.17063 -0.20575,-0.18819 -0.20575,-0.53195 0,-0.34125 0.20575,-0.53195 0.18568,-0.17062 0.47424,-0.17062 0.28856,0 0.47675,0.17062 Q 425.25423,722.98581 425.25423,723.32706 z m -0.36133,0 q 0,-0.16561 -0.0577,-0.26597 -0.0803,-0.14052 -0.26346,-0.14052 -0.18066,0 -0.26096,0.13801 -0.0602,0.10538 -0.0602,0.26848 0,0.16561 0.0577,0.26598 0.0803,0.14051 0.26347,0.14051 0.18066,0 0.26095,-0.13801 Q 424.8929,723.49016 424.8929,723.32706 Z" />
    <path
       inkscape:connector-curvature="0"
       id="path1645"
       style="font-size:2.50919676px;font-style:normal;font-variant:normal;font-weight:bold;font-stretch:normal;text-align:start;line-height:125%;letter-spacing:0px;word-spacing:0px;writing-mode:lr-tb;text-anchor:start;fill:#706f6c;fill-opacity:1;stroke:none;font-family:Helvetica;-inkscape-font-specification:Helvetica Bold"
       d="m 425.90744,722.91053 0,1.08398 -0.35128,0 0,-1.08398 -0.19321,0 -0.003,-0.25092 0.19321,0 0,-0.10789 q 0,-0.19823 0.10036,-0.28856 0.10288,-0.0928 0.29358,-0.0928 l 0.17815,0.005 0,0.28354 -0.0979,0 q -0.0828,0 -0.10287,0.0276 -0.0176,0.0276 -0.0176,0.12044 l -0.003,0.0527 0.22834,0 0.003,0.25092 L 425.90744,722.91053 Z" />
    <path
       inkscape:connector-curvature="0"
       id="path1647"
       style="font-size:2.50919676px;font-style:normal;font-variant:normal;font-weight:bold;font-stretch:normal;text-align:start;line-height:125%;letter-spacing:0px;word-spacing:0px;writing-mode:lr-tb;text-anchor:start;fill:#706f6c;fill-opacity:1;stroke:none;font-family:Helvetica;-inkscape-font-specification:Helvetica Bold"
       d="m 427.96079,723.3371 q 0,-0.17816 -0.0652,-0.28354 -0.0778,-0.12546 -0.23586,-0.12546 -0.16561,0 -0.23838,0.13299 -0.0602,0.10789 -0.0602,0.29608 0,0.1631 0.0703,0.26598 0.0803,0.11793 0.23837,0.11793 0.15306,0 0.23085,-0.14303 Q 427.96079,723.48765 427.96079,723.3371 z m -0.58715,-1.1442 0,0.63985 q 0.0853,-0.11542 0.18066,-0.16059 0.0953,-0.0477 0.21077,-0.0477 0.23587,0 0.38893,0.17062 0.16811,0.18568 0.16811,0.5169 0,0.30361 -0.13048,0.49682 -0.15055,0.22081 -0.43158,0.22081 -0.12044,0 -0.21579,-0.0452 -0.1104,-0.0527 -0.17062,-0.15808 l -0.005,0.16812 -0.34376,0 0,-1.80161 L 427.37364,722.1929 Z" />
    <path
       inkscape:connector-curvature="0"
       id="path1649"
       style="font-size:2.50919676px;font-style:normal;font-variant:normal;font-weight:bold;font-stretch:normal;text-align:start;line-height:125%;letter-spacing:0px;word-spacing:0px;writing-mode:lr-tb;text-anchor:start;fill:#706f6c;fill-opacity:1;stroke:none;font-family:Helvetica;-inkscape-font-specification:Helvetica Bold"
       d="m 429.35422,723.60307 0.36132,0 q -0.0652,0.22332 -0.24088,0.33373 -0.14804,0.0928 -0.34627,0.0928 -0.30863,0 -0.47424,-0.15808 -0.1907,-0.18318 -0.1907,-0.5721 0,-0.22834 0.0979,-0.39645 0.16059,-0.27852 0.53948,-0.27852 0.25343,0 0.41402,0.138 0.21579,0.18568 0.21579,0.59719 l -0.003,0.0627 -0.91586,0 q 0.0226,0.17815 0.0953,0.25343 0.0753,0.0728 0.22081,0.0728 0.0778,0 0.14051,-0.0376 Q 429.33414,723.67333 429.35422,723.60307 z m -0.52944,-0.409 0.54449,0 q -0.015,-0.14804 -0.10037,-0.22081 -0.0702,-0.0602 -0.17062,-0.0602 -0.12295,0 -0.1907,0.0728 Q 428.83983,723.05858 428.82478,723.19407 Z" />
    <path
       inkscape:connector-curvature="0"
       id="path1651"
       style="font-size:2.50919676px;font-style:normal;font-variant:normal;font-weight:bold;font-stretch:normal;text-align:start;line-height:125%;letter-spacing:0px;word-spacing:0px;writing-mode:lr-tb;text-anchor:start;fill:#706f6c;fill-opacity:1;stroke:none;font-family:Helvetica;-inkscape-font-specification:Helvetica Bold"
       d="m 431.18503,722.1929 0,1.80161 -0.34376,0 0,-0.16812 q -0.0627,0.10539 -0.17314,0.15808 -0.0953,0.0452 -0.2183,0.0452 -0.27852,0 -0.42907,-0.22081 -0.13299,-0.19572 -0.13299,-0.49682 0,-0.33122 0.16561,-0.5169 0.15055,-0.17062 0.38642,-0.17062 0.15306,0 0.25844,0.0702 0.0728,0.0477 0.12797,0.13801 l 0.005,-0.63985 L 431.18503,722.1929 z m -0.93593,1.1442 q 0,0.15306 0.0577,0.26095 0.0753,0.14303 0.22834,0.14303 0.15808,0 0.24088,-0.11793 0.0728,-0.10288 0.0728,-0.26598 0,-0.18568 -0.0602,-0.29358 -0.0753,-0.13549 -0.2434,-0.13549 -0.15557,0 -0.23084,0.12546 Q 430.2491,723.16145 430.2491,723.3371 Z" />
    <path
       inkscape:connector-curvature="0"
       id="path1606"
       style="font-size:2.50919676px;font-style:normal;font-variant:normal;font-weight:bold;font-stretch:normal;text-align:start;line-height:125%;letter-spacing:0px;word-spacing:0px;writing-mode:lr-tb;text-anchor:start;fill:#706f6c;fill-opacity:1;stroke:none;font-family:Helvetica;-inkscape-font-specification:Helvetica Bold"
       d="m 415.83647,728.4614 0,0.31867 -0.95601,0 0,0.37888 0.87822,0 0,0.31867 -0.87822,0 0,0.46671 0.99866,0 0,0.31867 -1.36751,0 0,-1.8016 L 415.83647,728.4614 Z" />
    <path
       inkscape:connector-curvature="0"
       id="path1608"
       style="font-size:2.50919676px;font-style:normal;font-variant:normal;font-weight:bold;font-stretch:normal;text-align:start;line-height:125%;letter-spacing:0px;word-spacing:0px;writing-mode:lr-tb;text-anchor:start;fill:#706f6c;fill-opacity:1;stroke:none;font-family:Helvetica;-inkscape-font-specification:Helvetica Bold"
       d="m 417.23903,729.2794 0.003,0.72264 q 0,0.11041 0.0201,0.15307 0.0201,0.0426 0.0577,0.0552 l 0,0.0527 -0.37888,0 q -0.0251,-0.0753 -0.0326,-0.15808 -0.0853,0.0903 -0.15557,0.12797 -0.11543,0.0652 -0.27602,0.0652 -0.16811,0 -0.27852,-0.0903 -0.12797,-0.10539 -0.12797,-0.2986 0,-0.18819 0.10288,-0.29357 0.10539,-0.1079 0.28605,-0.13299 l 0.31365,-0.0477 q 0.0728,-0.01 0.0979,-0.0351 0.0276,-0.0276 0.0276,-0.0703 0,-0.0979 -0.0828,-0.13299 -0.0527,-0.0226 -0.15056,-0.0226 -0.11542,0 -0.16811,0.0627 -0.0376,0.0452 -0.0452,0.12295 l -0.33874,0 q 0.0251,-0.27601 0.20826,-0.38642 0.13299,-0.0803 0.38642,-0.0803 0.20074,0 0.33623,0.0678 Q 417.23903,729.05859 417.23903,729.2794 z m -0.34125,0.50434 0,-0.17062 q -0.0251,0.0201 -0.0803,0.0402 -0.0552,0.0176 -0.16812,0.0351 -0.11041,0.0176 -0.15808,0.0502 -0.0703,0.0477 -0.0703,0.14804 0,0.0828 0.0552,0.12546 0.0452,0.0351 0.1079,0.0351 0.12546,0 0.2183,-0.0728 Q 416.89778,729.90168 416.89778,729.78374 Z" />
    <path
       inkscape:connector-curvature="0"
       id="path1610"
       style="font-size:2.50919676px;font-style:normal;font-variant:normal;font-weight:bold;font-stretch:normal;text-align:start;line-height:125%;letter-spacing:0px;word-spacing:0px;writing-mode:lr-tb;text-anchor:start;fill:#706f6c;fill-opacity:1;stroke:none;font-family:Helvetica;-inkscape-font-specification:Helvetica Bold"
       d="m 417.95074,728.56678 -0.003,0.36133 0.22081,0 0,0.25092 -0.2183,0 -0.003,0.72516 q 0,0.0652 0.0226,0.0878 0.0251,0.0201 0.12546,0.0201 l 0.0728,-0.005 0,0.26598 -0.16561,0.005 -0.0452,0 q -0.21328,0 -0.29358,-0.0778 -0.0652,-0.0627 -0.0652,-0.21077 l 0,-0.81047 -0.18066,0 -0.003,-0.25092 0.18066,0 0.003,-0.36133 L 417.95074,728.56678 Z" />
    <path
       inkscape:connector-curvature="0"
       id="path1612"
       style="font-size:2.50919676px;font-style:normal;font-variant:normal;font-weight:bold;font-stretch:normal;text-align:start;line-height:125%;letter-spacing:0px;word-spacing:0px;writing-mode:lr-tb;text-anchor:start;fill:#706f6c;fill-opacity:1;stroke:none;font-family:Helvetica;-inkscape-font-specification:Helvetica Bold"
       d="m 420.01663,729.60559 q 0,-0.17815 -0.0652,-0.28354 -0.0778,-0.12546 -0.23586,-0.12546 -0.16561,0 -0.23837,0.13299 -0.0602,0.10789 -0.0602,0.29608 0,0.1631 0.0703,0.26598 0.0803,0.11793 0.23838,0.11793 0.15306,0 0.23084,-0.14302 Q 420.01663,729.75614 420.01663,729.60559 z m -0.58715,-1.14419 0,0.63984 q 0.0853,-0.11542 0.18066,-0.16059 0.0953,-0.0477 0.21078,-0.0477 0.23586,0 0.38892,0.17062 0.16812,0.18568 0.16812,0.5169 0,0.30361 -0.13048,0.49682 -0.15055,0.22081 -0.43158,0.22081 -0.12044,0 -0.21579,-0.0452 -0.11041,-0.0527 -0.17063,-0.15808 l -0.005,0.16812 -0.34376,0 0,-1.8016 L 419.42948,728.4614 Z" />
    <path
       inkscape:connector-curvature="0"
       id="path1614"
       style="font-size:2.50919676px;font-style:normal;font-variant:normal;font-weight:bold;font-stretch:normal;text-align:start;line-height:125%;letter-spacing:0px;word-spacing:0px;writing-mode:lr-tb;text-anchor:start;fill:#706f6c;fill-opacity:1;stroke:none;font-family:Helvetica;-inkscape-font-specification:Helvetica Bold"
       d="m 420.62217,730.263 -0.003,-1.33489 0.33624,0 0.002,0.23084 q 0.0728,-0.13298 0.13048,-0.18317 0.0928,-0.0828 0.23838,-0.0828 l 0.0702,0.005 -0.002,0.3563 q -0.0226,-0.003 -0.0452,-0.003 -0.0201,-0.003 -0.0527,-0.003 -0.18568,0 -0.26347,0.10288 -0.0602,0.0778 -0.0602,0.21579 l 0,0.69505 L 420.62217,730.263 Z" />
    <path
       inkscape:connector-curvature="0"
       id="path1616"
       style="font-size:2.50919676px;font-style:normal;font-variant:normal;font-weight:bold;font-stretch:normal;text-align:start;line-height:125%;letter-spacing:0px;word-spacing:0px;writing-mode:lr-tb;text-anchor:start;fill:#706f6c;fill-opacity:1;stroke:none;font-family:Helvetica;-inkscape-font-specification:Helvetica Bold"
       d="m 422.38531,729.87157 0.36133,0 q -0.0652,0.22331 -0.24088,0.33372 -0.14805,0.0928 -0.34627,0.0928 -0.30863,0 -0.47424,-0.15808 -0.1907,-0.18317 -0.1907,-0.5721 0,-0.22833 0.0979,-0.39645 0.16059,-0.27852 0.53948,-0.27852 0.25342,0 0.41401,0.138 0.21579,0.18569 0.21579,0.59719 l -0.002,0.0627 -0.91586,0 q 0.0226,0.17816 0.0953,0.25343 0.0753,0.0728 0.22081,0.0728 0.0778,0 0.14051,-0.0376 Q 422.36524,729.94182 422.38531,729.87157 z m -0.52944,-0.409 0.5445,0 q -0.0151,-0.14805 -0.10037,-0.22081 -0.0703,-0.0602 -0.17062,-0.0602 -0.12295,0 -0.1907,0.0728 Q 421.87093,729.32707 421.85587,729.46257 Z" />
    <path
       inkscape:connector-curvature="0"
       id="path1618"
       style="font-size:2.50919676px;font-style:normal;font-variant:normal;font-weight:bold;font-stretch:normal;text-align:start;line-height:125%;letter-spacing:0px;word-spacing:0px;writing-mode:lr-tb;text-anchor:start;fill:#706f6c;fill-opacity:1;stroke:none;font-family:Helvetica;-inkscape-font-specification:Helvetica Bold"
       d="m 424.07561,729.2794 0.003,0.72264 q 0,0.11041 0.0201,0.15307 0.0201,0.0426 0.0577,0.0552 l 0,0.0527 -0.37889,0 q -0.0251,-0.0753 -0.0326,-0.15808 -0.0853,0.0903 -0.15557,0.12797 -0.11543,0.0652 -0.27601,0.0652 -0.16812,0 -0.27853,-0.0903 -0.12796,-0.10539 -0.12796,-0.2986 0,-0.18819 0.10287,-0.29357 0.10539,-0.1079 0.28605,-0.13299 l 0.31365,-0.0477 q 0.0728,-0.01 0.0979,-0.0351 0.0276,-0.0276 0.0276,-0.0703 0,-0.0979 -0.0828,-0.13299 -0.0527,-0.0226 -0.15055,-0.0226 -0.11543,0 -0.16812,0.0627 -0.0376,0.0452 -0.0452,0.12295 l -0.33874,0 q 0.0251,-0.27601 0.20827,-0.38642 0.13298,-0.0803 0.38641,-0.0803 0.20074,0 0.33623,0.0678 Q 424.07561,729.05859 424.07561,729.2794 z m -0.34125,0.50434 0,-0.17062 q -0.0251,0.0201 -0.0803,0.0402 -0.0552,0.0176 -0.16812,0.0351 -0.1104,0.0176 -0.15808,0.0502 -0.0703,0.0477 -0.0703,0.14804 0,0.0828 0.0552,0.12546 0.0452,0.0351 0.10789,0.0351 0.12546,0 0.2183,-0.0728 Q 423.73436,729.90168 423.73436,729.78374 Z" />
    <path
       inkscape:connector-curvature="0"
       id="path1620"
       style="font-size:2.50919676px;font-style:normal;font-variant:normal;font-weight:bold;font-stretch:normal;text-align:start;line-height:125%;letter-spacing:0px;word-spacing:0px;writing-mode:lr-tb;text-anchor:start;fill:#706f6c;fill-opacity:1;stroke:none;font-family:Helvetica;-inkscape-font-specification:Helvetica Bold"
       d="m 424.7547,729.84146 0,0.42154 -0.35129,0 0,-1.8016 0.34878,0 0,0.97357 0.44162,-0.50686 0.43158,0 -0.47173,0.51689 0.48679,0.818 -0.42155,0 -0.32117,-0.5721 L 424.7547,729.84146 Z" />
    <path
       inkscape:connector-curvature="0"
       id="path1622"
       style="font-size:2.50919676px;font-style:normal;font-variant:normal;font-weight:bold;font-stretch:normal;text-align:start;line-height:125%;letter-spacing:0px;word-spacing:0px;writing-mode:lr-tb;text-anchor:start;fill:#706f6c;fill-opacity:1;stroke:none;font-family:Helvetica;-inkscape-font-specification:Helvetica Bold"
       d="m 426.2456,729.17903 0,1.08397 -0.35129,0 0,-1.08397 -0.19321,0 -0.003,-0.25092 0.19321,0 0,-0.1079 q 0,-0.19822 0.10037,-0.28856 0.10287,-0.0928 0.29357,-0.0928 l 0.17816,0.005 0,0.28354 -0.0979,0 q -0.0828,0 -0.10288,0.0276 -0.0176,0.0276 -0.0176,0.12044 l -0.003,0.0527 0.22833,0 0.003,0.25092 L 426.2456,729.17903 Z" />
    <path
       inkscape:connector-curvature="0"
       id="path1624"
       style="font-size:2.50919676px;font-style:normal;font-variant:normal;font-weight:bold;font-stretch:normal;text-align:start;line-height:125%;letter-spacing:0px;word-spacing:0px;writing-mode:lr-tb;text-anchor:start;fill:#706f6c;fill-opacity:1;stroke:none;font-family:Helvetica;-inkscape-font-specification:Helvetica Bold"
       d="m 427.75609,729.2794 0.003,0.72264 q 0,0.11041 0.0201,0.15307 0.0201,0.0426 0.0577,0.0552 l 0,0.0527 -0.37889,0 q -0.0251,-0.0753 -0.0326,-0.15808 -0.0853,0.0903 -0.15557,0.12797 -0.11542,0.0652 -0.27601,0.0652 -0.16812,0 -0.27852,-0.0903 -0.12797,-0.10539 -0.12797,-0.2986 0,-0.18819 0.10288,-0.29357 0.10538,-0.1079 0.28604,-0.13299 l 0.31365,-0.0477 q 0.0728,-0.01 0.0979,-0.0351 0.0276,-0.0276 0.0276,-0.0703 0,-0.0979 -0.0828,-0.13299 -0.0527,-0.0226 -0.15055,-0.0226 -0.11542,0 -0.16812,0.0627 -0.0376,0.0452 -0.0452,0.12295 l -0.33875,0 q 0.0251,-0.27601 0.20827,-0.38642 0.13299,-0.0803 0.38641,-0.0803 0.20074,0 0.33624,0.0678 Q 427.75609,729.05859 427.75609,729.2794 z m -0.34125,0.50434 0,-0.17062 q -0.0251,0.0201 -0.0803,0.0402 -0.0552,0.0176 -0.16812,0.0351 -0.1104,0.0176 -0.15808,0.0502 -0.0702,0.0477 -0.0702,0.14804 0,0.0828 0.0552,0.12546 0.0452,0.0351 0.10789,0.0351 0.12546,0 0.2183,-0.0728 Q 427.41484,729.90168 427.41484,729.78374 Z" />
    <path
       inkscape:connector-curvature="0"
       id="path1626"
       style="font-size:2.50919676px;font-style:normal;font-variant:normal;font-weight:bold;font-stretch:normal;text-align:start;line-height:125%;letter-spacing:0px;word-spacing:0px;writing-mode:lr-tb;text-anchor:start;fill:#706f6c;fill-opacity:1;stroke:none;font-family:Helvetica;-inkscape-font-specification:Helvetica Bold"
       d="m 429.17289,729.3346 -0.34376,0 q -0.0151,-0.0853 -0.0502,-0.12044 -0.0552,-0.0552 -0.18568,-0.0552 -0.12796,0 -0.18066,0.0427 -0.0376,0.0301 -0.0376,0.0878 0,0.0778 0.21579,0.12546 0.31115,0.0677 0.40399,0.11041 0.2183,0.10287 0.2183,0.31365 0,0.25593 -0.21329,0.37387 -0.15557,0.0853 -0.37136,0.0853 -0.26848,0 -0.43409,-0.0954 -0.20826,-0.12044 -0.20826,-0.36634 l 0.36132,0 q 0,0.0928 0.0652,0.14553 0.0677,0.0502 0.22583,0.0502 0.11793,0 0.17815,-0.0502 0.0452,-0.0376 0.0452,-0.0878 0,-0.0828 -0.21328,-0.13048 -0.31867,-0.0703 -0.40147,-0.1079 -0.2158,-0.10036 -0.2158,-0.31615 0,-0.17565 0.11292,-0.29609 0.14302,-0.15055 0.42656,-0.15055 0.25343,0 0.39896,0.0778 Q 429.17289,729.07866 429.17289,729.3346 Z" />
    <path
       inkscape:connector-curvature="0"
       id="path1628"
       style="font-size:2.50919676px;font-style:normal;font-variant:normal;font-weight:bold;font-stretch:normal;text-align:start;line-height:125%;letter-spacing:0px;word-spacing:0px;writing-mode:lr-tb;text-anchor:start;fill:#706f6c;fill-opacity:1;stroke:none;font-family:Helvetica;-inkscape-font-specification:Helvetica Bold"
       d="m 429.86453,728.56678 -0.003,0.36133 0.22081,0 0,0.25092 -0.2183,0 -0.003,0.72516 q 0,0.0652 0.0226,0.0878 0.0251,0.0201 0.12546,0.0201 l 0.0728,-0.005 0,0.26598 -0.16561,0.005 -0.0452,0 q -0.21328,0 -0.29357,-0.0778 -0.0652,-0.0627 -0.0652,-0.21077 l 0,-0.81047 -0.18066,0 -0.003,-0.25092 0.18066,0 0.003,-0.36133 L 429.86453,728.56678 Z" />
    <path
       inkscape:connector-curvature="0"
       id="path1591"
       style="font-size:2.50919676px;font-style:normal;font-variant:normal;font-weight:bold;font-stretch:normal;text-align:start;line-height:125%;letter-spacing:0px;word-spacing:0px;writing-mode:lr-tb;text-anchor:start;fill:#706f6c;fill-opacity:1;stroke:none;font-family:Helvetica;-inkscape-font-specification:Helvetica Bold"
       d="m 414.51161,736.0033 0,-1.80161 0.79542,0 q 0.40649,0 0.59468,0.30111 0.138,0.22081 0.138,0.55704 0,0.36383 -0.15055,0.61475 -0.19572,0.32871 -0.59719,0.32871 L 414.51161,736.0033 z m 0.36634,-1.49047 0.003,1.17933 0.36635,0 q 0.21077,0 0.31866,-0.1907 0.0903,-0.16059 0.0903,-0.41402 0,-0.35129 -0.14805,-0.48679 -0.0953,-0.0878 -0.26848,-0.0878 L 414.87795,734.51283 Z" />
    <path
       inkscape:connector-curvature="0"
       id="path1593"
       style="font-size:2.50919676px;font-style:normal;font-variant:normal;font-weight:bold;font-stretch:normal;text-align:start;line-height:125%;letter-spacing:0px;word-spacing:0px;writing-mode:lr-tb;text-anchor:start;fill:#706f6c;fill-opacity:1;stroke:none;font-family:Helvetica;-inkscape-font-specification:Helvetica Bold"
       d="m 416.29479,736.0033 -0.003,-1.3349 0.33623,0 0.003,0.23085 q 0.0728,-0.13299 0.13048,-0.18317 0.0928,-0.0828 0.23837,-0.0828 l 0.0703,0.005 -0.003,0.35631 q -0.0226,-0.003 -0.0452,-0.003 -0.0201,-0.003 -0.0527,-0.003 -0.18568,0 -0.26346,0.10288 -0.0602,0.0778 -0.0602,0.21579 l 0,0.69505 L 416.29479,736.0033 Z" />
    <path
       inkscape:connector-curvature="0"
       id="path1595"
       style="font-size:2.50919676px;font-style:normal;font-variant:normal;font-weight:bold;font-stretch:normal;text-align:start;line-height:125%;letter-spacing:0px;word-spacing:0px;writing-mode:lr-tb;text-anchor:start;fill:#706f6c;fill-opacity:1;stroke:none;font-family:Helvetica;-inkscape-font-specification:Helvetica Bold"
       d="m 418.05793,735.61186 0.36132,0 q -0.0652,0.22332 -0.24088,0.33372 -0.14804,0.0928 -0.34627,0.0928 -0.30863,0 -0.47424,-0.15807 -0.19069,-0.18318 -0.19069,-0.5721 0,-0.22834 0.0978,-0.39645 0.16059,-0.27853 0.53948,-0.27853 0.25343,0 0.41402,0.13801 0.21579,0.18568 0.21579,0.59719 l -0.003,0.0627 -0.91586,0 q 0.0226,0.17815 0.0953,0.25343 0.0753,0.0728 0.22081,0.0728 0.0778,0 0.14052,-0.0376 Q 418.03786,735.68212 418.05793,735.61186 z m -0.52944,-0.409 0.5445,0 q -0.0151,-0.14804 -0.10037,-0.22081 -0.0703,-0.0602 -0.17063,-0.0602 -0.12295,0 -0.1907,0.0728 Q 417.54355,735.06737 417.52849,735.20286 Z" />
    <path
       inkscape:connector-curvature="0"
       id="path1597"
       style="font-size:2.50919676px;font-style:normal;font-variant:normal;font-weight:bold;font-stretch:normal;text-align:start;line-height:125%;letter-spacing:0px;word-spacing:0px;writing-mode:lr-tb;text-anchor:start;fill:#706f6c;fill-opacity:1;stroke:none;font-family:Helvetica;-inkscape-font-specification:Helvetica Bold"
       d="m 419.7683,735.07489 -0.34376,0 q -0.015,-0.0853 -0.0502,-0.12044 -0.0552,-0.0552 -0.18568,-0.0552 -0.12797,0 -0.18067,0.0427 -0.0376,0.0301 -0.0376,0.0878 0,0.0778 0.21579,0.12546 0.31114,0.0678 0.40398,0.1104 0.2183,0.10288 0.2183,0.31365 0,0.25594 -0.21328,0.37387 -0.15557,0.0853 -0.37136,0.0853 -0.26849,0 -0.4341,-0.0953 -0.20826,-0.12045 -0.20826,-0.36635 l 0.36133,0 q 0,0.0928 0.0652,0.14554 0.0678,0.0502 0.22583,0.0502 0.11793,0 0.17815,-0.0502 0.0452,-0.0376 0.0452,-0.0878 0,-0.0828 -0.21328,-0.13047 -0.31867,-0.0703 -0.40147,-0.1079 -0.21579,-0.10037 -0.21579,-0.31616 0,-0.17564 0.11291,-0.29608 0.14302,-0.15056 0.42656,-0.15056 0.25343,0 0.39897,0.0778 Q 419.7683,734.81896 419.7683,735.07489 Z" />
    <path
       inkscape:connector-curvature="0"
       id="path1599"
       style="font-size:2.50919676px;font-style:normal;font-variant:normal;font-weight:bold;font-stretch:normal;text-align:start;line-height:125%;letter-spacing:0px;word-spacing:0px;writing-mode:lr-tb;text-anchor:start;fill:#706f6c;fill-opacity:1;stroke:none;font-family:Helvetica;-inkscape-font-specification:Helvetica Bold"
       d="m 421.16502,735.07489 -0.34376,0 q -0.0151,-0.0853 -0.0502,-0.12044 -0.0552,-0.0552 -0.18568,-0.0552 -0.12797,0 -0.18066,0.0427 -0.0376,0.0301 -0.0376,0.0878 0,0.0778 0.21579,0.12546 0.31114,0.0678 0.40398,0.1104 0.2183,0.10288 0.2183,0.31365 0,0.25594 -0.21328,0.37387 -0.15557,0.0853 -0.37136,0.0853 -0.26849,0 -0.43409,-0.0953 -0.20827,-0.12045 -0.20827,-0.36635 l 0.36133,0 q 0,0.0928 0.0652,0.14554 0.0677,0.0502 0.22582,0.0502 0.11794,0 0.17816,-0.0502 0.0452,-0.0376 0.0452,-0.0878 0,-0.0828 -0.21328,-0.13047 -0.31867,-0.0703 -0.40147,-0.1079 -0.21579,-0.10037 -0.21579,-0.31616 0,-0.17564 0.11291,-0.29608 0.14303,-0.15056 0.42656,-0.15056 0.25343,0 0.39897,0.0778 Q 421.16502,734.81896 421.16502,735.07489 Z" />
    <path
       inkscape:connector-curvature="0"
       id="path1601"
       style="font-size:2.50919676px;font-style:normal;font-variant:normal;font-weight:bold;font-stretch:normal;text-align:start;line-height:125%;letter-spacing:0px;word-spacing:0px;writing-mode:lr-tb;text-anchor:start;fill:#706f6c;fill-opacity:1;stroke:none;font-family:Helvetica;-inkscape-font-specification:Helvetica Bold"
       d="m 423.36304,734.6684 0,1.3349 -0.33623,0 0,-0.18819 q -0.13299,0.22331 -0.41151,0.22331 -0.20827,0 -0.3262,-0.11793 -0.12797,-0.12797 -0.12797,-0.37387 l -0.003,-0.87822 0.3538,0 0,0.82804 q 0,0.14051 0.0728,0.20073 0.0552,0.0452 0.15557,0.0452 0.10789,0 0.17815,-0.0602 0.0928,-0.0803 0.0928,-0.24339 l 0,-0.77033 L 423.36304,734.6684 Z" />
    <path
       inkscape:connector-curvature="0"
       id="path1603"
       style="font-size:2.50919676px;font-style:normal;font-variant:normal;font-weight:bold;font-stretch:normal;text-align:start;line-height:125%;letter-spacing:0px;word-spacing:0px;writing-mode:lr-tb;text-anchor:start;fill:#706f6c;fill-opacity:1;stroke:none;font-family:Helvetica;-inkscape-font-specification:Helvetica Bold"
       d="m 424.02127,735.36596 q 0,0.16561 0.0678,0.26597 0.0803,0.11794 0.23837,0.11794 0.15306,0 0.23085,-0.14303 0.0602,-0.1104 0.0602,-0.26095 0,-0.17816 -0.0652,-0.28354 -0.0778,-0.12546 -0.23586,-0.12546 -0.16561,0 -0.23838,0.13298 Q 424.02127,735.17526 424.02127,735.36596 z m -0.003,-0.69756 0.003,0.19321 q 0.0703,-0.10538 0.13801,-0.15306 0.10538,-0.0753 0.26346,-0.0753 0.23587,0 0.38893,0.17063 0.16812,0.18568 0.16812,0.51689 0,0.30362 -0.13048,0.49683 -0.15055,0.2208 -0.43158,0.2208 -0.15808,0 -0.26347,-0.0753 -0.0627,-0.0452 -0.11542,-0.13048 l -0.003,0.69003 -0.35129,0 0,-1.8543 L 424.01876,734.6684 Z" />
    <path
       inkscape:connector-curvature="0"
       id="path1560"
       style="font-size:2.50919676px;font-style:normal;font-variant:normal;font-weight:bold;font-stretch:normal;text-align:start;line-height:125%;letter-spacing:0px;word-spacing:0px;writing-mode:lr-tb;text-anchor:start;fill:#706f6c;fill-opacity:1;stroke:none;font-family:Helvetica;-inkscape-font-specification:Helvetica Bold"
       d="m 415.27692,740.77378 0,1.48293 -0.37638,0 0,-1.48293 -0.5445,0 0,-0.31867 1.46537,0 0,0.31867 L 415.27692,740.77378 Z" />
    <path
       inkscape:connector-curvature="0"
       id="path1562"
       style="font-size:2.50919676px;font-style:normal;font-variant:normal;font-weight:bold;font-stretch:normal;text-align:start;line-height:125%;letter-spacing:0px;word-spacing:0px;writing-mode:lr-tb;text-anchor:start;fill:#706f6c;fill-opacity:1;stroke:none;font-family:Helvetica;-inkscape-font-specification:Helvetica Bold"
       d="m 416.91068,741.27311 0.003,0.72265 q 0,0.1104 0.0201,0.15306 0.0201,0.0426 0.0577,0.0552 l 0,0.0527 -0.37889,0 q -0.0251,-0.0753 -0.0326,-0.15808 -0.0853,0.0903 -0.15557,0.12797 -0.11542,0.0652 -0.27601,0.0652 -0.16811,0 -0.27852,-0.0903 -0.12797,-0.10538 -0.12797,-0.29859 0,-0.18819 0.10288,-0.29358 0.10539,-0.10789 0.28605,-0.13299 l 0.31365,-0.0477 q 0.0728,-0.01 0.0979,-0.0351 0.0276,-0.0276 0.0276,-0.0703 0,-0.0979 -0.0828,-0.13298 -0.0527,-0.0226 -0.15055,-0.0226 -0.11542,0 -0.16811,0.0627 -0.0376,0.0452 -0.0452,0.12295 l -0.33874,0 q 0.0251,-0.27601 0.20826,-0.38641 0.13299,-0.0803 0.38642,-0.0803 0.20073,0 0.33623,0.0677 Q 416.91068,741.0523 416.91068,741.27311 z m -0.34125,0.50435 0,-0.17063 q -0.0251,0.0201 -0.0803,0.0402 -0.0552,0.0176 -0.16811,0.0351 -0.11041,0.0176 -0.15808,0.0502 -0.0703,0.0477 -0.0703,0.14804 0,0.0828 0.0552,0.12546 0.0452,0.0351 0.1079,0.0351 0.12546,0 0.2183,-0.0728 Q 416.56943,741.89539 416.56943,741.77746 Z" />
    <path
       inkscape:connector-curvature="0"
       id="path1564"
       style="font-size:2.50919676px;font-style:normal;font-variant:normal;font-weight:bold;font-stretch:normal;text-align:start;line-height:125%;letter-spacing:0px;word-spacing:0px;writing-mode:lr-tb;text-anchor:start;fill:#706f6c;fill-opacity:1;stroke:none;font-family:Helvetica;-inkscape-font-specification:Helvetica Bold"
       d="m 417.58977,741.83517 0,0.42154 -0.35129,0 0,-1.8016 0.34878,0 0,0.97357 0.44162,-0.50686 0.43158,0 -0.47173,0.5169 0.48679,0.81799 -0.42155,0 -0.32118,-0.57209 L 417.58977,741.83517 Z" />
    <path
       inkscape:connector-curvature="0"
       id="path1566"
       style="font-size:2.50919676px;font-style:normal;font-variant:normal;font-weight:bold;font-stretch:normal;text-align:start;line-height:125%;letter-spacing:0px;word-spacing:0px;writing-mode:lr-tb;text-anchor:start;fill:#706f6c;fill-opacity:1;stroke:none;font-family:Helvetica;-inkscape-font-specification:Helvetica Bold"
       d="m 419.45955,741.86528 0.36133,0 q -0.0652,0.22332 -0.24089,0.33372 -0.14804,0.0928 -0.34627,0.0928 -0.30863,0 -0.47423,-0.15808 -0.1907,-0.18317 -0.1907,-0.57209 0,-0.22834 0.0979,-0.39646 0.16058,-0.27852 0.53947,-0.27852 0.25343,0 0.41402,0.13801 0.21579,0.18568 0.21579,0.59719 l -0.003,0.0627 -0.91585,0 q 0.0226,0.17815 0.0953,0.25343 0.0753,0.0728 0.2208,0.0728 0.0778,0 0.14052,-0.0376 Q 419.43948,741.93554 419.45955,741.86528 z m -0.52944,-0.409 0.5445,0 q -0.0151,-0.14804 -0.10037,-0.22081 -0.0703,-0.0602 -0.17063,-0.0602 -0.12295,0 -0.19069,0.0728 Q 418.94517,741.32078 418.93011,741.45628 Z" />
    <path
       inkscape:connector-curvature="0"
       id="path1568"
       style="font-size:2.50919676px;font-style:normal;font-variant:normal;font-weight:bold;font-stretch:normal;text-align:start;line-height:125%;letter-spacing:0px;word-spacing:0px;writing-mode:lr-tb;text-anchor:start;fill:#706f6c;fill-opacity:1;stroke:none;font-family:Helvetica;-inkscape-font-specification:Helvetica Bold"
       d="m 422.05402,741.58927 q 0,0.34376 -0.20575,0.53195 -0.18568,0.17062 -0.47675,0.17062 -0.29107,0 -0.47675,-0.17062 -0.20575,-0.18819 -0.20575,-0.53195 0,-0.34125 0.20575,-0.53195 0.18568,-0.17063 0.47424,-0.17063 0.28856,0 0.47675,0.17063 Q 422.05402,741.24802 422.05402,741.58927 z m -0.36132,0 q 0,-0.16561 -0.0577,-0.26598 -0.0803,-0.14051 -0.26347,-0.14051 -0.18066,0 -0.26096,0.138 -0.0602,0.10539 -0.0602,0.26849 0,0.1656 0.0577,0.26597 0.0803,0.14052 0.26346,0.14052 0.18066,0 0.26096,-0.13801 Q 421.6927,741.75237 421.6927,741.58927 Z" />
    <path
       inkscape:connector-curvature="0"
       id="path1570"
       style="font-size:2.50919676px;font-style:normal;font-variant:normal;font-weight:bold;font-stretch:normal;text-align:start;line-height:125%;letter-spacing:0px;word-spacing:0px;writing-mode:lr-tb;text-anchor:start;fill:#706f6c;fill-opacity:1;stroke:none;font-family:Helvetica;-inkscape-font-specification:Helvetica Bold"
       d="m 423.50516,740.92182 0,1.33489 -0.33623,0 0,-0.18819 q -0.13299,0.22332 -0.41151,0.22332 -0.20826,0 -0.32619,-0.11793 -0.12797,-0.12797 -0.12797,-0.37387 l -0.003,-0.87822 0.35379,0 0,0.82804 q 0,0.14051 0.0728,0.20073 0.0552,0.0452 0.15557,0.0452 0.1079,0 0.17815,-0.0602 0.0928,-0.0803 0.0928,-0.2434 l 0,-0.77032 L 423.50516,740.92182 Z" />
    <path
       inkscape:connector-curvature="0"
       id="path1572"
       style="font-size:2.50919676px;font-style:normal;font-variant:normal;font-weight:bold;font-stretch:normal;text-align:start;line-height:125%;letter-spacing:0px;word-spacing:0px;writing-mode:lr-tb;text-anchor:start;fill:#706f6c;fill-opacity:1;stroke:none;font-family:Helvetica;-inkscape-font-specification:Helvetica Bold"
       d="m 424.22863,740.5605 -0.003,0.36132 0.22081,0 0,0.25092 -0.2183,0 -0.003,0.72516 q 0,0.0652 0.0226,0.0878 0.0251,0.0201 0.12546,0.0201 l 0.0728,-0.005 0,0.26597 -0.1656,0.005 -0.0452,0 q -0.21328,0 -0.29358,-0.0778 -0.0652,-0.0627 -0.0652,-0.21077 l 0,-0.81047 -0.18067,0 -0.003,-0.25092 0.18067,0 0.003,-0.36132 L 424.22863,740.5605 Z" />
    <path
       inkscape:connector-curvature="0"
       id="path1574"
       style="font-size:2.50919676px;font-style:normal;font-variant:normal;font-weight:bold;font-stretch:normal;text-align:start;line-height:125%;letter-spacing:0px;word-spacing:0px;writing-mode:lr-tb;text-anchor:start;fill:#706f6c;fill-opacity:1;stroke:none;font-family:Helvetica;-inkscape-font-specification:Helvetica Bold"
       d="m 425.76258,740.5605 -0.003,0.36132 0.22081,0 0,0.25092 -0.2183,0 -0.003,0.72516 q 0,0.0652 0.0226,0.0878 0.0251,0.0201 0.12546,0.0201 l 0.0728,-0.005 0,0.26597 -0.16561,0.005 -0.0452,0 q -0.21328,0 -0.29357,-0.0778 -0.0652,-0.0627 -0.0652,-0.21077 l 0,-0.81047 -0.18066,0 -0.003,-0.25092 0.18066,0 0.003,-0.36132 L 425.76258,740.5605 Z" />
    <path
       inkscape:connector-curvature="0"
       id="path1576"
       style="font-size:2.50919676px;font-style:normal;font-variant:normal;font-weight:bold;font-stretch:normal;text-align:start;line-height:125%;letter-spacing:0px;word-spacing:0px;writing-mode:lr-tb;text-anchor:start;fill:#706f6c;fill-opacity:1;stroke:none;font-family:Helvetica;-inkscape-font-specification:Helvetica Bold"
       d="m 427.41108,741.33333 0.003,0.92338 -0.35129,0 0,-0.81047 q 0,-0.11291 -0.0301,-0.16811 -0.0502,-0.0954 -0.19823,-0.0954 -0.12044,0 -0.19822,0.0803 -0.0778,0.0803 -0.0778,0.22834 l 0,0.7653 -0.35129,0 0,-1.8016 0.34878,0 0,0.63985 q 0.0427,-0.0878 0.14805,-0.14805 0.10538,-0.0602 0.24339,-0.0602 0.20324,0 0.33372,0.11793 Q 427.41108,741.12005 427.41108,741.33333 Z" />
    <path
       inkscape:connector-curvature="0"
       id="path1578"
       style="font-size:2.50919676px;font-style:normal;font-variant:normal;font-weight:bold;font-stretch:normal;text-align:start;line-height:125%;letter-spacing:0px;word-spacing:0px;writing-mode:lr-tb;text-anchor:start;fill:#706f6c;fill-opacity:1;stroke:none;font-family:Helvetica;-inkscape-font-specification:Helvetica Bold"
       d="m 428.52599,741.86528 0.36132,0 q -0.0652,0.22332 -0.24088,0.33372 -0.14805,0.0928 -0.34627,0.0928 -0.30863,0 -0.47424,-0.15808 -0.1907,-0.18317 -0.1907,-0.57209 0,-0.22834 0.0979,-0.39646 0.16059,-0.27852 0.53948,-0.27852 0.25343,0 0.41401,0.13801 0.2158,0.18568 0.2158,0.59719 l -0.003,0.0627 -0.91586,0 q 0.0226,0.17815 0.0953,0.25343 0.0753,0.0728 0.22081,0.0728 0.0778,0 0.14051,-0.0376 Q 428.50591,741.93554 428.52599,741.86528 z m -0.52944,-0.409 0.54449,0 q -0.015,-0.14804 -0.10037,-0.22081 -0.0702,-0.0602 -0.17062,-0.0602 -0.12295,0 -0.1907,0.0728 Q 428.0116,741.32078 427.99655,741.45628 Z" />
    <path
       inkscape:connector-curvature="0"
       id="path1580"
       style="font-size:2.50919676px;font-style:normal;font-variant:normal;font-weight:bold;font-stretch:normal;text-align:start;line-height:125%;letter-spacing:0px;word-spacing:0px;writing-mode:lr-tb;text-anchor:start;fill:#706f6c;fill-opacity:1;stroke:none;font-family:Helvetica;-inkscape-font-specification:Helvetica Bold"
       d="m 430.22718,740.5605 -0.003,0.36132 0.22081,0 0,0.25092 -0.2183,0 -0.003,0.72516 q 0,0.0652 0.0226,0.0878 0.0251,0.0201 0.12546,0.0201 l 0.0728,-0.005 0,0.26597 -0.16561,0.005 -0.0452,0 q -0.21328,0 -0.29358,-0.0778 -0.0652,-0.0627 -0.0652,-0.21077 l 0,-0.81047 -0.18066,0 -0.003,-0.25092 0.18067,0 0.002,-0.36132 L 430.22718,740.5605 Z" />
    <path
       inkscape:connector-curvature="0"
       id="path1582"
       style="font-size:2.50919676px;font-style:normal;font-variant:normal;font-weight:bold;font-stretch:normal;text-align:start;line-height:125%;letter-spacing:0px;word-spacing:0px;writing-mode:lr-tb;text-anchor:start;fill:#706f6c;fill-opacity:1;stroke:none;font-family:Helvetica;-inkscape-font-specification:Helvetica Bold"
       d="m 430.66876,742.25671 -0.003,-1.33489 0.33623,0 0.003,0.23085 q 0.0728,-0.13299 0.13048,-0.18317 0.0928,-0.0828 0.23838,-0.0828 l 0.0702,0.005 -0.003,0.35631 q -0.0226,-0.003 -0.0452,-0.003 -0.0201,-0.003 -0.0527,-0.003 -0.18569,0 -0.26347,0.10288 -0.0602,0.0778 -0.0602,0.21579 l 0,0.69504 L 430.66876,742.25671 Z" />
    <path
       inkscape:connector-curvature="0"
       id="path1584"
       style="font-size:2.50919676px;font-style:normal;font-variant:normal;font-weight:bold;font-stretch:normal;text-align:start;line-height:125%;letter-spacing:0px;word-spacing:0px;writing-mode:lr-tb;text-anchor:start;fill:#706f6c;fill-opacity:1;stroke:none;font-family:Helvetica;-inkscape-font-specification:Helvetica Bold"
       d="m 432.72548,741.27311 0.003,0.72265 q 0,0.1104 0.0201,0.15306 0.0201,0.0426 0.0577,0.0552 l 0,0.0527 -0.37889,0 q -0.0251,-0.0753 -0.0326,-0.15808 -0.0853,0.0903 -0.15557,0.12797 -0.11543,0.0652 -0.27602,0.0652 -0.16811,0 -0.27852,-0.0903 -0.12797,-0.10538 -0.12797,-0.29859 0,-0.18819 0.10288,-0.29358 0.10539,-0.10789 0.28605,-0.13299 l 0.31365,-0.0477 q 0.0728,-0.01 0.0979,-0.0351 0.0276,-0.0276 0.0276,-0.0703 0,-0.0979 -0.0828,-0.13298 -0.0527,-0.0226 -0.15056,-0.0226 -0.11542,0 -0.16811,0.0627 -0.0376,0.0452 -0.0452,0.12295 l -0.33874,0 q 0.0251,-0.27601 0.20826,-0.38641 0.13299,-0.0803 0.38642,-0.0803 0.20074,0 0.33623,0.0677 Q 432.72548,741.0523 432.72548,741.27311 z m -0.34125,0.50435 0,-0.17063 q -0.0251,0.0201 -0.0803,0.0402 -0.0552,0.0176 -0.16811,0.0351 -0.11041,0.0176 -0.15808,0.0502 -0.0703,0.0477 -0.0703,0.14804 0,0.0828 0.0552,0.12546 0.0452,0.0351 0.1079,0.0351 0.12546,0 0.2183,-0.0728 Q 432.38423,741.89539 432.38423,741.77746 Z" />
    <path
       inkscape:connector-curvature="0"
       id="path1586"
       style="font-size:2.50919676px;font-style:normal;font-variant:normal;font-weight:bold;font-stretch:normal;text-align:start;line-height:125%;letter-spacing:0px;word-spacing:0px;writing-mode:lr-tb;text-anchor:start;fill:#706f6c;fill-opacity:1;stroke:none;font-family:Helvetica;-inkscape-font-specification:Helvetica Bold"
       d="m 434.14227,741.32831 -0.34376,0 q -0.015,-0.0853 -0.0502,-0.12044 -0.0552,-0.0552 -0.18568,-0.0552 -0.12797,0 -0.18066,0.0427 -0.0376,0.0301 -0.0376,0.0878 0,0.0778 0.21579,0.12546 0.31114,0.0677 0.40398,0.1104 0.2183,0.10288 0.2183,0.31365 0,0.25594 -0.21328,0.37387 -0.15557,0.0853 -0.37136,0.0853 -0.26849,0 -0.43409,-0.0953 -0.20827,-0.12044 -0.20827,-0.36634 l 0.36133,0 q 0,0.0928 0.0652,0.14553 0.0677,0.0502 0.22582,0.0502 0.11794,0 0.17816,-0.0502 0.0452,-0.0376 0.0452,-0.0878 0,-0.0828 -0.21328,-0.13048 -0.31867,-0.0702 -0.40147,-0.10789 -0.21579,-0.10037 -0.21579,-0.31616 0,-0.17564 0.11291,-0.29609 0.14303,-0.15055 0.42657,-0.15055 0.25343,0 0.39896,0.0778 Q 434.14227,741.07237 434.14227,741.32831 Z" />
    <path
       inkscape:connector-curvature="0"
       id="path1588"
       style="font-size:2.50919676px;font-style:normal;font-variant:normal;font-weight:bold;font-stretch:normal;text-align:start;line-height:125%;letter-spacing:0px;word-spacing:0px;writing-mode:lr-tb;text-anchor:start;fill:#706f6c;fill-opacity:1;stroke:none;font-family:Helvetica;-inkscape-font-specification:Helvetica Bold"
       d="m 435.64438,741.33333 0.003,0.92338 -0.35129,0 0,-0.81047 q 0,-0.11291 -0.0301,-0.16811 -0.0502,-0.0954 -0.19822,-0.0954 -0.12045,0 -0.19823,0.0803 -0.0778,0.0803 -0.0778,0.22834 l 0,0.7653 -0.35128,0 0,-1.8016 0.34877,0 0,0.63985 q 0.0427,-0.0878 0.14805,-0.14805 0.10538,-0.0602 0.24339,-0.0602 0.20324,0 0.33372,0.11793 Q 435.64438,741.12005 435.64438,741.33333 Z" />
    <path
       inkscape:connector-curvature="0"
       id="path1531"
       style="font-size:2.50919676px;font-style:normal;font-variant:normal;font-weight:bold;font-stretch:normal;text-align:start;line-height:125%;letter-spacing:0px;word-spacing:0px;writing-mode:lr-tb;text-anchor:start;fill:#706f6c;fill-opacity:1;stroke:none;font-family:Helvetica;-inkscape-font-specification:Helvetica Bold"
       d="m 415.3547,747.57798 0,-0.30362 0.75276,0 0,0.97106 -0.24841,0 -0.0376,-0.22583 q -0.10789,0.12546 -0.19321,0.17816 -0.15306,0.0953 -0.36885,0.0953 -0.34878,0 -0.57711,-0.23336 -0.25092,-0.25594 -0.25092,-0.7101 0,-0.40147 0.21077,-0.65992 0.23837,-0.29358 0.66996,-0.29358 0.37638,0 0.59969,0.21078 0.18819,0.17815 0.18819,0.39645 l -0.37638,0 q 0,-0.0778 -0.0953,-0.17313 -0.12295,-0.12296 -0.29859,-0.12296 -0.22081,0 -0.35881,0.15056 -0.15808,0.17313 -0.15808,0.49682 0,0.33874 0.1656,0.49431 0.13299,0.12546 0.36133,0.12546 0.11793,0 0.2183,-0.0602 0.16811,-0.10037 0.2183,-0.33623 L 415.3547,747.57798 Z" />
    <path
       inkscape:connector-curvature="0"
       id="path1533"
       style="font-size:2.50919676px;font-style:normal;font-variant:normal;font-weight:bold;font-stretch:normal;text-align:start;line-height:125%;letter-spacing:0px;word-spacing:0px;writing-mode:lr-tb;text-anchor:start;fill:#706f6c;fill-opacity:1;stroke:none;font-family:Helvetica;-inkscape-font-specification:Helvetica Bold"
       d="m 417.2199,747.85399 0.36132,0 q -0.0652,0.22332 -0.24088,0.33372 -0.14804,0.0928 -0.34627,0.0928 -0.30863,0 -0.47424,-0.15808 -0.1907,-0.18317 -0.1907,-0.5721 0,-0.22833 0.0979,-0.39645 0.16059,-0.27852 0.53948,-0.27852 0.25343,0 0.41402,0.13801 0.21579,0.18568 0.21579,0.59719 l -0.003,0.0627 -0.91586,0 q 0.0226,0.17815 0.0953,0.25342 0.0753,0.0728 0.22081,0.0728 0.0778,0 0.14052,-0.0376 Q 417.19982,747.92425 417.2199,747.85399 z m -0.52944,-0.409 0.54449,0 q -0.015,-0.14804 -0.10036,-0.22081 -0.0703,-0.0602 -0.17063,-0.0602 -0.12295,0 -0.1907,0.0728 Q 416.70551,747.30949 416.69046,747.44499 Z" />
    <path
       inkscape:connector-curvature="0"
       id="path1535"
       style="font-size:2.50919676px;font-style:normal;font-variant:normal;font-weight:bold;font-stretch:normal;text-align:start;line-height:125%;letter-spacing:0px;word-spacing:0px;writing-mode:lr-tb;text-anchor:start;fill:#706f6c;fill-opacity:1;stroke:none;font-family:Helvetica;-inkscape-font-specification:Helvetica Bold"
       d="m 418.22518,746.54921 -0.002,0.36132 0.2208,0 0,0.25092 -0.2183,0 -0.002,0.72516 q 0,0.0652 0.0226,0.0878 0.0251,0.0201 0.12546,0.0201 l 0.0728,-0.005 0,0.26598 -0.1656,0.005 -0.0452,0 q -0.21328,0 -0.29357,-0.0778 -0.0652,-0.0627 -0.0652,-0.21077 l 0,-0.81047 -0.18067,0 -0.002,-0.25092 0.18066,0 0.003,-0.36132 L 418.22518,746.54921 Z" />
    <path
       inkscape:connector-curvature="0"
       id="path1537"
       style="font-size:2.50919676px;font-style:normal;font-variant:normal;font-weight:bold;font-stretch:normal;text-align:start;line-height:125%;letter-spacing:0px;word-spacing:0px;writing-mode:lr-tb;text-anchor:start;fill:#706f6c;fill-opacity:1;stroke:none;font-family:Helvetica;-inkscape-font-specification:Helvetica Bold"
       d="m 420.49181,746.44382 0.35129,0 0,1.8016 -0.37638,0 -0.73519,-1.28471 -0.005,1.28471 -0.35129,0 0,-1.8016 0.39645,0 0.71261,1.2546 L 420.49181,746.44382 Z" />
    <path
       inkscape:connector-curvature="0"
       id="path1539"
       style="font-size:2.50919676px;font-style:normal;font-variant:normal;font-weight:bold;font-stretch:normal;text-align:start;line-height:125%;letter-spacing:0px;word-spacing:0px;writing-mode:lr-tb;text-anchor:start;fill:#706f6c;fill-opacity:1;stroke:none;font-family:Helvetica;-inkscape-font-specification:Helvetica Bold"
       d="m 421.186,746.91053 0.35128,0 0,1.33489 -0.35128,0 L 421.186,746.91053 z m 0.35128,-0.48428 0,0.3262 -0.35128,0 0,-0.3262 L 421.53728,746.42625 Z" />
    <path
       inkscape:connector-curvature="0"
       id="path1541"
       style="font-size:2.50919676px;font-style:normal;font-variant:normal;font-weight:bold;font-stretch:normal;text-align:start;line-height:125%;letter-spacing:0px;word-spacing:0px;writing-mode:lr-tb;text-anchor:start;fill:#706f6c;fill-opacity:1;stroke:none;font-family:Helvetica;-inkscape-font-specification:Helvetica Bold"
       d="m 422.26832,746.54921 -0.003,0.36132 0.22081,0 0,0.25092 -0.2183,0 -0.003,0.72516 q 0,0.0652 0.0226,0.0878 0.0251,0.0201 0.12546,0.0201 l 0.0728,-0.005 0,0.26598 -0.1656,0.005 -0.0452,0 q -0.21328,0 -0.29358,-0.0778 -0.0652,-0.0627 -0.0652,-0.21077 l 0,-0.81047 -0.18067,0 -0.003,-0.25092 0.18067,0 0.003,-0.36132 L 422.26832,746.54921 Z" />
    <path
       inkscape:connector-curvature="0"
       id="path1543"
       style="font-size:2.50919676px;font-style:normal;font-variant:normal;font-weight:bold;font-stretch:normal;text-align:start;line-height:125%;letter-spacing:0px;word-spacing:0px;writing-mode:lr-tb;text-anchor:start;fill:#706f6c;fill-opacity:1;stroke:none;font-family:Helvetica;-inkscape-font-specification:Helvetica Bold"
       d="m 422.7099,748.24542 -0.003,-1.33489 0.33624,0 0.003,0.23085 q 0.0728,-0.13299 0.13047,-0.18318 0.0928,-0.0828 0.23838,-0.0828 l 0.0702,0.005 -0.002,0.35631 q -0.0226,-0.003 -0.0452,-0.003 -0.0201,-0.003 -0.0527,-0.003 -0.18568,0 -0.26347,0.10287 -0.0602,0.0778 -0.0602,0.21579 l 0,0.69505 L 422.7099,748.24542 Z" />
    <path
       inkscape:connector-curvature="0"
       id="path1545"
       style="font-size:2.50919676px;font-style:normal;font-variant:normal;font-weight:bold;font-stretch:normal;text-align:start;line-height:125%;letter-spacing:0px;word-spacing:0px;writing-mode:lr-tb;text-anchor:start;fill:#706f6c;fill-opacity:1;stroke:none;font-family:Helvetica;-inkscape-font-specification:Helvetica Bold"
       d="m 424.89208,746.91053 0,1.33489 -0.33623,0 0,-0.18819 q -0.13299,0.22332 -0.41151,0.22332 -0.20826,0 -0.3262,-0.11793 -0.12796,-0.12797 -0.12796,-0.37387 l -0.003,-0.87822 0.35379,0 0,0.82803 q 0,0.14052 0.0728,0.20074 0.0552,0.0452 0.15557,0.0452 0.1079,0 0.17815,-0.0602 0.0928,-0.0803 0.0928,-0.2434 l 0,-0.77032 L 424.89208,746.91053 Z" />
    <path
       inkscape:connector-curvature="0"
       id="path1547"
       style="font-size:2.50919676px;font-style:normal;font-variant:normal;font-weight:bold;font-stretch:normal;text-align:start;line-height:125%;letter-spacing:0px;word-spacing:0px;writing-mode:lr-tb;text-anchor:start;fill:#706f6c;fill-opacity:1;stroke:none;font-family:Helvetica;-inkscape-font-specification:Helvetica Bold"
       d="m 425.96182,747.56543 0.45417,0.67999 -0.43409,0 -0.23085,-0.40147 -0.23085,0.40147 -0.42405,0 0.45416,-0.67999 -0.43911,-0.6549 0.42657,0 0.22582,0.38893 0.22081,-0.38893 0.41402,0 L 425.96182,747.56543 Z" />
    <path
       inkscape:connector-curvature="0"
       id="path1549"
       style="font-size:2.50919676px;font-style:normal;font-variant:normal;font-weight:bold;font-stretch:normal;text-align:start;line-height:125%;letter-spacing:0px;word-spacing:0px;writing-mode:lr-tb;text-anchor:start;fill:#706f6c;fill-opacity:1;stroke:none;font-family:Helvetica;-inkscape-font-specification:Helvetica Bold"
       d="m 427.32177,746.91053 0.35128,0 0,1.33489 -0.35128,0 L 427.32177,746.91053 z m 0.35128,-0.48428 0,0.3262 -0.35128,0 0,-0.3262 L 427.67305,746.42625 Z" />
    <path
       inkscape:connector-curvature="0"
       id="path1551"
       style="font-size:2.50919676px;font-style:normal;font-variant:normal;font-weight:bold;font-stretch:normal;text-align:start;line-height:125%;letter-spacing:0px;word-spacing:0px;writing-mode:lr-tb;text-anchor:start;fill:#706f6c;fill-opacity:1;stroke:none;font-family:Helvetica;-inkscape-font-specification:Helvetica Bold"
       d="m 428.80306,747.75864 0.3563,0 q -0.0151,0.17313 -0.12546,0.31114 -0.1656,0.21077 -0.48427,0.21077 -0.33623,0 -0.49682,-0.22583 -0.12295,-0.17313 -0.12295,-0.43911 0,-0.34125 0.15055,-0.53195 0.1631,-0.20826 0.48929,-0.20826 0.21077,0 0.36133,0.0979 0.20826,0.13299 0.23084,0.41402 l -0.3563,0 q -0.0226,-0.11543 -0.0903,-0.17063 -0.0552,-0.0452 -0.14302,-0.0452 -0.15055,0 -0.22332,0.13047 -0.0577,0.10288 -0.0577,0.25594 0,0.23838 0.0652,0.33623 0.0678,0.0979 0.20575,0.0979 0.11543,0 0.18568,-0.0928 Q 428.80306,747.82639 428.80306,747.75864 Z" />
    <path
       inkscape:connector-curvature="0"
       id="path1553"
       style="font-size:2.50919676px;font-style:normal;font-variant:normal;font-weight:bold;font-stretch:normal;text-align:start;line-height:125%;letter-spacing:0px;word-spacing:0px;writing-mode:lr-tb;text-anchor:start;fill:#706f6c;fill-opacity:1;stroke:none;font-family:Helvetica;-inkscape-font-specification:Helvetica Bold"
       d="m 430.69409,747.57798 q 0,0.34376 -0.20576,0.53195 -0.18568,0.17062 -0.47674,0.17062 -0.29107,0 -0.47675,-0.17062 -0.20575,-0.18819 -0.20575,-0.53195 0,-0.34125 0.20575,-0.53195 0.18568,-0.17063 0.47424,-0.17063 0.28856,0 0.47675,0.17063 Q 430.69409,747.23673 430.69409,747.57798 z m -0.36133,0 q 0,-0.16561 -0.0577,-0.26598 -0.0803,-0.14051 -0.26346,-0.14051 -0.18066,0 -0.26096,0.138 -0.0602,0.10539 -0.0602,0.26849 0,0.1656 0.0577,0.26597 0.0803,0.14052 0.26347,0.14052 0.18066,0 0.26095,-0.13801 Q 430.33276,747.74107 430.33276,747.57798 Z" />
    <path
       inkscape:connector-curvature="0"
       id="path1555"
       style="font-size:2.50919676px;font-style:normal;font-variant:normal;font-weight:bold;font-stretch:normal;text-align:start;line-height:125%;letter-spacing:0px;word-spacing:0px;writing-mode:lr-tb;text-anchor:start;fill:#706f6c;fill-opacity:1;stroke:none;font-family:Helvetica;-inkscape-font-specification:Helvetica Bold"
       d="m 432.14523,747.32204 0.003,0.92338 -0.35129,0 0,-0.81047 q 0,-0.11291 -0.0301,-0.16811 -0.0502,-0.0954 -0.19823,-0.0954 -0.12044,0 -0.19822,0.0803 -0.0778,0.0803 -0.0778,0.22834 l 0,0.7653 -0.35129,0 0,-1.33489 0.33373,0 0,0.19572 q 0.0853,-0.12797 0.18066,-0.17816 0.0979,-0.0527 0.22583,-0.0527 0.20324,0 0.33372,0.11793 Q 432.14523,747.10876 432.14523,747.32204 Z" />
    <path
       inkscape:connector-curvature="0"
       id="path1557"
       style="font-size:2.50919676px;font-style:normal;font-variant:normal;font-weight:bold;font-stretch:normal;text-align:start;line-height:125%;letter-spacing:0px;word-spacing:0px;writing-mode:lr-tb;text-anchor:start;fill:#706f6c;fill-opacity:1;stroke:none;font-family:Helvetica;-inkscape-font-specification:Helvetica Bold"
       d="m 433.57378,747.31702 -0.34376,0 q -0.015,-0.0853 -0.0502,-0.12044 -0.0552,-0.0552 -0.18568,-0.0552 -0.12797,0 -0.18066,0.0426 -0.0376,0.0301 -0.0376,0.0878 0,0.0778 0.21579,0.12546 0.31114,0.0678 0.40398,0.11041 0.2183,0.10288 0.2183,0.31365 0,0.25594 -0.21328,0.37387 -0.15557,0.0853 -0.37136,0.0853 -0.26849,0 -0.43409,-0.0953 -0.20827,-0.12044 -0.20827,-0.36634 l 0.36133,0 q 0,0.0928 0.0652,0.14553 0.0677,0.0502 0.22583,0.0502 0.11793,0 0.17815,-0.0502 0.0452,-0.0376 0.0452,-0.0878 0,-0.0828 -0.21328,-0.13048 -0.31867,-0.0703 -0.40147,-0.10789 -0.21579,-0.10037 -0.21579,-0.31616 0,-0.17565 0.11291,-0.29609 0.14303,-0.15055 0.42657,-0.15055 0.25343,0 0.39896,0.0778 Q 433.57378,747.06108 433.57378,747.31702 Z" />
  </g>
</svg>
