<?xml version="1.0" encoding="UTF-8" standalone="no"?>
<!-- Created with Inkscape (http://www.inkscape.org/) -->

<svg
   xmlns:dc="http://purl.org/dc/elements/1.1/"
   xmlns:cc="http://creativecommons.org/ns#"
   xmlns:rdf="http://www.w3.org/1999/02/22-rdf-syntax-ns#"
   xmlns:svg="http://www.w3.org/2000/svg"
   xmlns="http://www.w3.org/2000/svg"
   xmlns:xlink="http://www.w3.org/1999/xlink"
   xmlns:sodipodi="http://sodipodi.sourceforge.net/DTD/sodipodi-0.dtd"
   xmlns:inkscape="http://www.inkscape.org/namespaces/inkscape"
   width="48"
   height="48"
   id="svg2"
   version="1.1"
   inkscape:version="0.48+devel r12149"
   sodipodi:docname="workspace-switcher.svg">
  <defs
     id="defs4">
    <linearGradient
       inkscape:collect="always"
       xlink:href="#linearGradient1671"
       id="linearGradient1677"
       x1="971.34314"
       y1="407.1814"
       x2="971.34314"
       y2="344.10745"
       gradientUnits="userSpaceOnUse" />
    <linearGradient
       inkscape:collect="always"
       id="linearGradient1671">
      <stop
         style="stop-color:#000000;stop-opacity:1"
         offset="0"
         id="stop1673" />
      <stop
         style="stop-color:#666666;stop-opacity:1"
         offset="1"
         id="stop1675" />
    </linearGradient>
    <linearGradient
       inkscape:collect="always"
       xlink:href="#linearGradient1671"
       id="linearGradient1679"
       gradientUnits="userSpaceOnUse"
       x1="971.34314"
       y1="407.1814"
       x2="971.34314"
       y2="344.10745" />
    <linearGradient
       inkscape:collect="always"
       xlink:href="#linearGradient1645"
       id="linearGradient1651"
       x1="28.799999"
       y1="-1052.3872"
       x2="28.799999"
       y2="-1004.3872"
       gradientUnits="userSpaceOnUse"
       gradientTransform="matrix(1,0,0,-1,-1.0424805e-6,-1004.3622)" />
    <linearGradient
       inkscape:collect="always"
       id="linearGradient1645">
      <stop
         style="stop-color:#000000;stop-opacity:1;"
         offset="0"
         id="stop1647" />
      <stop
         style="stop-color:#eaeaea;stop-opacity:0.29411766"
         offset="1"
         id="stop1649" />
    </linearGradient>
  </defs>
  <sodipodi:namedview
     id="base"
     pagecolor="#ffffff"
     bordercolor="#666666"
     borderopacity="1.0"
     inkscape:pageopacity="0.0"
     inkscape:pageshadow="2"
     inkscape:zoom="2.9076923"
     inkscape:cx="1.5896094"
     inkscape:cy="9.6690107"
     inkscape:document-units="px"
     inkscape:current-layer="layer1"
     showgrid="false"
     inkscape:window-width="1366"
     inkscape:window-height="716"
     inkscape:window-x="0"
     inkscape:window-y="28"
     inkscape:window-maximized="1">
    <inkscape:grid
       type="xygrid"
       id="grid3850" />
  </sodipodi:namedview>
  <metadata
     id="metadata7">
    <rdf:RDF>
      <cc:Work
         rdf:about="">
        <dc:format>image/svg+xml</dc:format>
        <dc:type
           rdf:resource="http://purl.org/dc/dcmitype/StillImage" />
        <dc:title />
      </cc:Work>
    </rdf:RDF>
  </metadata>
  <g
     inkscape:label="Capa 1"
     inkscape:groupmode="layer"
     id="layer1"
     transform="translate(0,-1004.3622)">
    <rect
       style="color:#000000;fill:#333333;fill-opacity:1;fill-rule:nonzero;stroke:none;stroke-width:0.2;marker:none;visibility:visible;display:inline;overflow:visible;enable-background:accumulate"
       id="rect6294"
       width="45.5"
       height="45.5"
       x="1.25"
       y="1005.6122"
       ry="6.3565426" />
    <rect
       ry="5.8565426"
       y="1006.1122"
       x="1.75"
       height="44.5"
       width="44.5"
       id="rect6296"
       style="color:#000000;fill:#f9f9f9;fill-opacity:1;fill-rule:nonzero;stroke:none;stroke-width:0.2;marker:none;visibility:visible;display:inline;overflow:visible;enable-background:accumulate" />
    <g
       id="g1637">
      <path
         id="path1436"
         transform="translate(0,1004.3622)"
         d="M 7.59375 1.75 C 7.380554 1.75 7.1758191 1.7593588 6.96875 1.78125 L 16.34375 8.21875 L 16.34375 1.75 L 7.59375 1.75 z "
         style="fill:#00d1f8;fill-opacity:1;stroke:none" />
      <path
         id="path1438"
         transform="translate(0,1004.3622)"
         d="M 16.34375 1.75 L 16.34375 8.21875 L 25.75 1.75 L 16.34375 1.75 z "
         style="fill:#00c6f5;fill-opacity:1;stroke:none" />
      <path
         id="path1440"
         transform="translate(0,1004.3622)"
         d="M 25.75 1.75 L 16.34375 8.21875 L 31.65625 8.21875 L 31.65625 1.75 L 25.75 1.75 z "
         style="fill:#00e5fc;fill-opacity:1;stroke:none" />
      <path
         id="path1442"
         transform="translate(0,1004.3622)"
         d="M 6.96875 1.78125 C 4.0245356 2.0925097 1.75 4.5624214 1.75 7.59375 L 1.75 8.21875 L 16.34375 8.21875 L 6.96875 1.78125 z "
         style="fill:#01afec;fill-opacity:1;stroke:none" />
      <path
         id="path1446"
         transform="translate(0,1004.3622)"
         d="M 31.65625 1.75 L 31.65625 8.21875 L 41.03125 1.78125 C 40.824181 1.7593588 40.619446 1.75 40.40625 1.75 L 31.65625 1.75 z "
         style="fill:#0056ad;fill-opacity:1;stroke:none" />
      <path
         id="path1448"
         transform="translate(0,1004.3622)"
         d="M 41.03125 1.78125 L 31.65625 8.21875 L 46.25 8.21875 L 46.25 7.59375 C 46.25 4.5624214 43.975465 2.0925097 41.03125 1.78125 z "
         style="fill:#0180d1;fill-opacity:1;stroke:none" />
      <path
         id="path1455"
         transform="translate(0,1004.3622)"
         d="M 1.75 8.1875 L 1.75 18.21875 L 16.34375 8.1875 L 1.75 8.1875 z "
         style="fill:#0056ad;fill-opacity:1;stroke:none" />
      <path
         id="path1457"
         transform="translate(0,1004.3622)"
         d="M 16.34375 8.1875 L 1.75 18.21875 L 1.75 18.71875 L 16.34375 18.71875 L 16.34375 8.1875 z "
         style="fill:#00d1f8;fill-opacity:1;stroke:none" />
      <path
         style="fill:#00e5fc;fill-opacity:1;stroke:none"
         d="m 16.333332,1023.0963 0,-10.5316 L 31.666665,1012.5647 Z"
         id="path1459"
         inkscape:connector-curvature="0"
         sodipodi:nodetypes="cccc" />
      <path
         sodipodi:nodetypes="cccc"
         inkscape:connector-curvature="0"
         id="path1461"
         d="m 31.666665,1012.5647 0,10.5316 L 16.333332,1023.0963 Z"
         style="fill:#01afec;fill-opacity:1;stroke:none" />
      <path
         sodipodi:nodetypes="cccc"
         inkscape:connector-curvature="0"
         id="path1463"
         d="m 31.666665,1023.0963 0,-10.5316 L 46.999997,1012.5647 Z"
         style="fill:#00c6f5;fill-opacity:1;stroke:none" />
      <path
         id="path1465"
         transform="translate(0,1004.3622)"
         d="M 46.25 8.6875 L 31.65625 18.71875 L 46.25 18.71875 L 46.25 8.6875 z "
         style="fill:#01afec;fill-opacity:1;stroke:none" />
      <path
         id="path1467"
         transform="translate(0,1004.3622)"
         d="M 1.75 18.71875 L 1.75 19.25 L 16.34375 29.28125 L 16.34375 18.71875 L 1.75 18.71875 z "
         style="fill:#00d1f8;fill-opacity:1;stroke:none" />
      <path
         sodipodi:nodetypes="cccc"
         inkscape:connector-curvature="0"
         id="path1469"
         d="m 16.333332,1033.628 0,-10.5317 L 31.666668,1023.0963 Z"
         style="fill:#00c6f5;fill-opacity:1;stroke:none" />
      <path
         style="fill:#00e5fc;fill-opacity:1;stroke:none"
         d="m 31.666668,1023.0963 0,10.5317 L 16.333332,1033.628 Z"
         id="path1471"
         inkscape:connector-curvature="0"
         sodipodi:nodetypes="cccc" />
      <path
         id="path1473"
         transform="translate(0,1004.3622)"
         d="M 1.75 19.25 L 1.75 29.28125 L 16.34375 29.28125 L 1.75 19.25 z "
         style="fill:#01afec;fill-opacity:1;stroke:none" />
      <path
         style="fill:#0056ad;fill-opacity:1;stroke:none"
         d="m 31.666668,1033.628 0,-10.5317 L 47,1023.0963 Z"
         id="path1475"
         inkscape:connector-curvature="0"
         sodipodi:nodetypes="cccc" />
      <path
         id="path1477"
         transform="translate(0,1004.3622)"
         d="M 46.25 19.25 L 31.65625 29.28125 L 46.25 29.28125 L 46.25 19.25 z "
         style="fill:#0180d1;fill-opacity:1;stroke:none" />
      <path
         id="path1479"
         transform="translate(0,1004.3622)"
         d="M 1.75 29.28125 L 1.75 39.3125 L 16.34375 29.28125 L 1.75 29.28125 z "
         style="fill:#0056ad;fill-opacity:1;stroke:none" />
      <path
         id="path1481"
         transform="translate(0,1004.3622)"
         d="M 16.34375 29.28125 L 1.75 39.3125 L 1.75 39.8125 L 16.34375 39.8125 L 16.34375 29.28125 z "
         style="fill:#00d1f8;fill-opacity:1;stroke:none" />
      <path
         sodipodi:nodetypes="cccc"
         inkscape:connector-curvature="0"
         id="path1483"
         d="m 16.333332,1044.1597 0,-10.5317 L 31.666665,1033.628 Z"
         style="fill:#00e5fc;fill-opacity:1;stroke:none" />
      <path
         style="fill:#01afec;fill-opacity:1;stroke:none"
         d="m 31.666665,1033.628 0,10.5316 L 16.333332,1044.1597 Z"
         id="path1485"
         inkscape:connector-curvature="0"
         sodipodi:nodetypes="cccc" />
      <path
         id="path1487"
         transform="translate(0,1004.3622)"
         d="M 31.65625 29.28125 L 31.65625 39.8125 L 46.25 29.78125 L 46.25 29.28125 L 31.65625 29.28125 z "
         style="fill:#00c6f5;fill-opacity:1;stroke:none" />
      <path
         id="path1489"
         transform="translate(0,1004.3622)"
         d="M 46.25 29.78125 L 31.65625 39.8125 L 46.25 39.8125 L 46.25 29.78125 z "
         style="fill:#01afec;fill-opacity:1;stroke:none" />
      <path
         id="path1503"
         transform="translate(0,1004.3622)"
         d="M 1.75 39.78125 L 1.75 40.3125 L 10.40625 46.25 L 16.34375 46.25 L 16.34375 39.78125 L 1.75 39.78125 z "
         style="fill:#00d1f8;fill-opacity:1;stroke:none" />
      <path
         id="path1505"
         transform="translate(0,1004.3622)"
         d="M 16.34375 39.78125 L 16.34375 46.25 L 22.25 46.25 L 31.65625 39.78125 L 16.34375 39.78125 z "
         style="fill:#00c6f5;fill-opacity:1;stroke:none" />
      <path
         id="path1507"
         transform="translate(0,1004.3622)"
         d="M 31.65625 39.78125 L 22.25 46.25 L 31.65625 46.25 L 31.65625 39.78125 z "
         style="fill:#00e5fc;fill-opacity:1;stroke:none" />
      <path
         id="path1509"
         transform="translate(0,1004.3622)"
         d="M 1.75 40.3125 L 1.75 40.40625 C 1.75 43.650775 4.3492254 46.25 7.59375 46.25 L 10.40625 46.25 L 1.75 40.3125 z "
         style="fill:#01afec;fill-opacity:1;stroke:none" />
      <path
         id="path1511"
         transform="translate(0,1004.3622)"
         d="M 31.65625 39.78125 L 31.65625 46.25 L 37.59375 46.25 L 46.25 40.3125 L 46.25 39.78125 L 31.65625 39.78125 z "
         style="fill:#0056ad;fill-opacity:1;stroke:none" />
      <path
         id="path1513"
         transform="translate(0,1004.3622)"
         d="M 46.25 40.3125 L 37.59375 46.25 L 40.40625 46.25 C 43.650775 46.25 46.25 43.650775 46.25 40.40625 L 46.25 40.3125 z "
         style="fill:#0180d1;fill-opacity:1;stroke:none" />
    </g>
    <path
       style="opacity:0.7;fill:url(#linearGradient1651);fill-opacity:1;stroke:none"
       d="M 7.59375 1.75 C 4.3492254 1.75 1.75 4.3492254 1.75 7.59375 L 1.75 40.40625 C 1.75 43.650775 4.3492254 46.25 7.59375 46.25 L 40.40625 46.25 C 43.650775 46.25 46.25 43.650775 46.25 40.40625 L 46.25 7.59375 C 46.25 4.3492254 43.650775 1.75 40.40625 1.75 L 7.59375 1.75 z "
       transform="translate(0,1004.3622)"
       id="rect2991-1-7" />
    <g
       id="g1735"
       transform="matrix(0.91603053,0,0,0.91603053,2.0152673,86.283059)">
      <g
         style="fill:url(#linearGradient1677);fill-opacity:1"
         id="_x31__navigation_forward"
         transform="matrix(0.50374662,0,0,0.50374662,-459.61162,839.20383)">
        <polygon
           id="polygon1155"
           points="961.994,407.265 993.76,375.507 961.994,343.741 956.496,349.243 978.865,371.614 926.299,371.614 926.299,379.394 978.865,379.394 956.496,401.765 "
           style="fill:url(#linearGradient1679);fill-opacity:1" />
      </g>
      <path
         inkscape:connector-curvature="0"
         id="polygon1683"
         d="m 22.4375,1015.3739 -0.21875,0.2188 10.84375,10.8125 0.4375,0 L 22.4375,1015.3739 z m 18.3125,13.1875 -15.75,15.7813 -2.5625,-2.5313 -0.21875,0.2188 2.78125,2.7812 16,-16 L 40.75,1028.5614 z m -33.75,1.75 0,0.4688 26.03125,0 L 33.5,1030.3114 7,1030.3114 Z"
         style="fill:#ffffff;fill-opacity:0.20588235" />
      <path
         inkscape:connector-curvature="0"
         id="polygon1694"
         d="m 25,1012.0614 -2.78125,2.7813 0.15625,0.1562 2.625,-2.625 15.84375,15.8438 L 41,1028.0614 25,1012.0614 z m -18,14.0313 0,0.3125 26.5,0 -0.3125,-0.3125 L 7,1026.0927 z m 26.1875,4.25 -10.96875,10.9375 0.15625,0.1562 L 33.5,1030.3427 33.1875,1030.3427 Z"
         style="fill:#000000;fill-opacity:0.21176471" />
    </g>
    <path
       inkscape:connector-curvature="0"
       style="color:#000000;fill:#000000;fill-opacity:1;fill-rule:nonzero;stroke:none;stroke-width:0.2;marker:none;visibility:visible;display:inline;overflow:visible;enable-background:accumulate"
       d="m 1.7499884,1044.1747 0,0.5625 c 0,3.2445 2.5992199,5.875 5.8437499,5.875 l 32.8124997,0 c 3.24452,0 5.84375,-2.6305 5.84375,-5.875 l 0,-0.5625 c 0,3.2445 -2.59923,5.875 -5.84375,5.875 l -32.8124997,0 C 4.3492083,1050.0497 1.7499884,1047.4192 1.7499884,1044.1747 Z"
       id="path6388" />
    <path
       id="path6361"
       d="m 1.7499884,1012.5497 0,-0.5625 c 0,-3.2445 2.5992199,-5.875 5.8437499,-5.875 l 32.8124997,0 c 3.24452,0 5.84375,2.6305 5.84375,5.875 l 0,0.5625 c 0,-3.2445 -2.59923,-5.875 -5.84375,-5.875 l -32.8124997,0 C 4.3492083,1006.6747 1.7499884,1009.3052 1.7499884,1012.5497 Z"
       style="color:#000000;fill:#ffffff;fill-opacity:1;fill-rule:nonzero;stroke:none;stroke-width:0.2;marker:none;visibility:visible;display:inline;overflow:visible;enable-background:accumulate"
       inkscape:connector-curvature="0" />
  </g>
</svg>
