<?xml version="1.0" encoding="UTF-8" standalone="no"?>
<!-- Created with Inkscape (http://www.inkscape.org/) -->

<svg
   xmlns:dc="http://purl.org/dc/elements/1.1/"
   xmlns:cc="http://creativecommons.org/ns#"
   xmlns:rdf="http://www.w3.org/1999/02/22-rdf-syntax-ns#"
   xmlns:svg="http://www.w3.org/2000/svg"
   xmlns="http://www.w3.org/2000/svg"
   xmlns:xlink="http://www.w3.org/1999/xlink"
   xmlns:sodipodi="http://sodipodi.sourceforge.net/DTD/sodipodi-0.dtd"
   xmlns:inkscape="http://www.inkscape.org/namespaces/inkscape"
   width="48"
   height="48"
   id="svg2"
   version="1.1"
   inkscape:version="0.48+devel r12137"
   sodipodi:docname="evolution-calendar.svg">
  <defs
     id="defs4">
    <linearGradient
       id="linearGradient974">
      <stop
         style="stop-color:#000000;stop-opacity:1"
         offset="0"
         id="stop976" />
      <stop
         style="stop-color:#333333;stop-opacity:1"
         offset="1"
         id="stop978" />
    </linearGradient>
    <linearGradient
       id="linearGradient980">
      <stop
         id="stop982"
         offset="0"
         style="stop-color:#f9f9f9;stop-opacity:1" />
      <stop
         id="stop984"
         offset="1"
         style="stop-color:#ffffff;stop-opacity:1" />
    </linearGradient>
    <linearGradient
       id="linearGradient1620">
      <stop
         style="stop-color:#d84a22;stop-opacity:1"
         offset="0"
         id="stop1622" />
      <stop
         style="stop-color:#c02f17;stop-opacity:1"
         offset="1"
         id="stop1624" />
    </linearGradient>
    <linearGradient
       id="linearGradient943">
      <stop
         style="stop-color:#000000;stop-opacity:1"
         offset="0"
         id="stop945" />
      <stop
         style="stop-color:#000000;stop-opacity:0"
         offset="1"
         id="stop947" />
    </linearGradient>
    <linearGradient
       inkscape:collect="always"
       xlink:href="#linearGradient1634"
       id="linearGradient1830"
       gradientUnits="userSpaceOnUse"
       gradientTransform="matrix(0.88679437,0,0,0.88679437,1.6358503,117.17559)"
       x1="26.516502"
       y1="1021.9566"
       x2="26.516502"
       y2="1042.2859" />
    <linearGradient
       inkscape:collect="always"
       id="linearGradient1634">
      <stop
         style="stop-color:#000000;stop-opacity:1;"
         offset="0"
         id="stop1636" />
      <stop
         style="stop-color:#4d4d4d;stop-opacity:1"
         offset="1"
         id="stop1638" />
    </linearGradient>
    <linearGradient
       inkscape:collect="always"
       xlink:href="#linearGradient4240"
       id="linearGradient4302"
       gradientUnits="userSpaceOnUse"
       gradientTransform="matrix(1,0,0,0.57224554,1.3305997e-4,434.96532)"
       x1="0.88388348"
       y1="1017.3162"
       x2="6.8500972"
       y2="1017.3162" />
    <linearGradient
       id="linearGradient4240"
       inkscape:collect="always">
      <stop
         id="stop4242"
         offset="0"
         style="stop-color:#aeaaa8;stop-opacity:1" />
      <stop
         style="stop-color:#e7e6e6;stop-opacity:1"
         offset="0.28524905"
         id="stop4246" />
      <stop
         id="stop4248"
         offset="0.75"
         style="stop-color:#e5e5e5;stop-opacity:1" />
      <stop
         id="stop4244"
         offset="1"
         style="stop-color:#949393;stop-opacity:1" />
    </linearGradient>
    <linearGradient
       inkscape:collect="always"
       xlink:href="#linearGradient4240"
       id="linearGradient4304"
       gradientUnits="userSpaceOnUse"
       gradientTransform="matrix(1,0,0,0.57224554,1.3305997e-4,436.30907)"
       x1="0.88388348"
       y1="1017.3162"
       x2="6.8500972"
       y2="1017.3162" />
    <linearGradient
       inkscape:collect="always"
       xlink:href="#linearGradient4240"
       id="linearGradient4232"
       x1="0.88388348"
       y1="1017.3162"
       x2="6.8500972"
       y2="1017.3162"
       gradientUnits="userSpaceOnUse"
       gradientTransform="matrix(1,0,0,0.57224554,1.3305997e-4,434.96532)" />
    <linearGradient
       inkscape:collect="always"
       xlink:href="#linearGradient4240"
       id="linearGradient4258"
       gradientUnits="userSpaceOnUse"
       gradientTransform="matrix(1,0,0,0.57224554,1.3305997e-4,436.30907)"
       x1="0.88388348"
       y1="1017.3162"
       x2="6.8500972"
       y2="1017.3162" />
    <linearGradient
       inkscape:collect="always"
       xlink:href="#linearGradient974"
       id="linearGradient1036"
       x1="23.573439"
       y1="1051.0387"
       x2="23.573439"
       y2="1005.9677"
       gradientUnits="userSpaceOnUse" />
    <linearGradient
       inkscape:collect="always"
       xlink:href="#linearGradient1620"
       id="linearGradient1060"
       gradientUnits="userSpaceOnUse"
       x1="28.701048"
       y1="1005.9677"
       x2="28.701048"
       y2="1015.3181"
       gradientTransform="matrix(0.84535235,0,0,0.84535235,3.7136298,159.22471)" />
    <linearGradient
       inkscape:collect="always"
       xlink:href="#linearGradient943"
       id="linearGradient1067"
       gradientUnits="userSpaceOnUse"
       gradientTransform="matrix(0.79367536,0,0,0.81448202,4.9537507,191.20379)"
       x1="28.701048"
       y1="1005.9677"
       x2="28.701048"
       y2="1015.3181" />
    <linearGradient
       inkscape:collect="always"
       xlink:href="#linearGradient980"
       id="linearGradient1071"
       gradientUnits="userSpaceOnUse"
       x1="23.573439"
       y1="1051.0387"
       x2="23.573439"
       y2="1005.9677"
       gradientTransform="matrix(0.84535235,0,0,0.84535235,3.7115451,159.22471)" />
  </defs>
  <sodipodi:namedview
     id="base"
     pagecolor="#ffffff"
     bordercolor="#666666"
     borderopacity="1.0"
     inkscape:pageopacity="0.0"
     inkscape:pageshadow="2"
     inkscape:zoom="8"
     inkscape:cx="11.237724"
     inkscape:cy="24.588326"
     inkscape:document-units="px"
     inkscape:current-layer="layer1"
     showgrid="false"
     inkscape:window-width="1366"
     inkscape:window-height="714"
     inkscape:window-x="0"
     inkscape:window-y="30"
     inkscape:window-maximized="1"
     showguides="false">
    <inkscape:grid
       type="xygrid"
       id="grid3850" />
  </sodipodi:namedview>
  <metadata
     id="metadata7">
    <rdf:RDF>
      <cc:Work
         rdf:about="">
        <dc:format>image/svg+xml</dc:format>
        <dc:type
           rdf:resource="http://purl.org/dc/dcmitype/StillImage" />
        <dc:title />
      </cc:Work>
    </rdf:RDF>
  </metadata>
  <g
     inkscape:label="Capa 1"
     inkscape:groupmode="layer"
     id="layer1"
     transform="translate(0,-1004.3622)">
    <rect
       style="color:#000000;fill:#333333;fill-opacity:1;fill-rule:nonzero;stroke:none;stroke-width:0.2;marker:none;visibility:visible;display:inline;overflow:visible;enable-background:accumulate"
       id="rect6294"
       width="45.5"
       height="45.5"
       x="1.25"
       y="1005.6122"
       ry="6.3565426" />
    <rect
       ry="5.8565426"
       y="1006.1122"
       x="1.75"
       height="44.5"
       width="44.5"
       id="rect6296"
       style="color:#000000;fill:url(#linearGradient1036);fill-opacity:1;fill-rule:nonzero;stroke:none;stroke-width:0.2;marker:none;visibility:visible;display:inline;overflow:visible;enable-background:accumulate" />
    <path
       id="path6361"
       d="m 1.7500051,1012.5498 0,-0.5625 c 0,-3.2445 2.5992,-5.875 5.8438,-5.875 l 32.8125009,0 c 3.2445,0 5.8437,2.6305 5.8437,5.875 l 0,0.5625 c 0,-3.2445 -2.5992,-5.875 -5.8437,-5.875 l -32.8125009,0 C 4.3492051,1006.6748 1.7500051,1009.3053 1.7500051,1012.5498 Z"
       style="color:#000000;fill:#ffffff;fill-opacity:1;fill-rule:nonzero;stroke:none;stroke-width:0.2;marker:none;visibility:visible;display:inline;overflow:visible;enable-background:accumulate"
       inkscape:connector-curvature="0" />
    <path
       inkscape:connector-curvature="0"
       style="color:#000000;fill:#000000;fill-opacity:1;fill-rule:nonzero;stroke:none;stroke-width:0.2;marker:none;visibility:visible;display:inline;overflow:visible;enable-background:accumulate"
       d="m 1.7500051,1044.1748 0,0.5625 c 0,3.2445 2.5992,5.875 5.8438,5.875 l 32.8125009,0 c 3.2445,0 5.8437,-2.6305 5.8437,-5.875 l 0,-0.5625 c 0,3.2445 -2.5992,5.875 -5.8437,5.875 l -32.8125009,0 C 4.3492051,1050.0498 1.7500051,1047.4193 1.7500051,1044.1748 Z"
       id="path6388" />
    <g
       id="g877">
      <path
         inkscape:connector-curvature="0"
         id="rect1069"
         d="m 10.137456,1009.744 c -2.7427659,0 -4.946546,2.2038 -4.946546,4.9466 l 0,27.7251 c 0,2.7427 2.2037801,4.9465 4.946546,4.9465 l 27.725087,0 c 2.742766,0 4.946547,-2.2038 4.946547,-4.9465 l 0,-27.7251 c 0,-2.7428 -2.203781,-4.9466 -4.946547,-4.9466 L 10.137456,1009.744 z m 4.091588,2.0458 c 1.148893,0 2.076328,0.9274 2.076328,2.0763 0,1.1489 -0.927435,2.0764 -2.076328,2.0764 -1.148893,0 -2.076328,-0.9275 -2.076328,-2.0764 C 12.152716,1012.7172 13.080151,1011.7898 14.229044,1011.7898 z m 19.541912,0 c 1.148893,0 2.076328,0.9274 2.076328,2.0763 0,1.1489 -0.927435,2.0764 -2.076328,2.0764 -1.148894,0 -2.076328,-0.9275 -2.076328,-2.0764 C 31.694628,1012.7172 32.622062,1011.7898 33.770956,1011.7898 Z"
         style="color:#000000;fill:url(#linearGradient1071);fill-opacity:1;fill-rule:nonzero;stroke:none;stroke-width:0.2;marker:none;visibility:visible;display:inline;overflow:visible;enable-background:accumulate" />
      <path
         inkscape:connector-curvature="0"
         id="rect1058"
         d="m 10.137456,1009.744 c -2.7427662,0 -4.946546,2.2038 -4.946546,4.9466 l 0,3.6946 37.61818,0 0,-3.6946 c 0,-2.7428 -2.20378,-4.9466 -4.946547,-4.9466 L 10.137456,1009.744 z m 4.091588,2.0458 c 1.148893,0 2.076328,0.9274 2.076328,2.0763 0,1.1489 -0.927435,2.0764 -2.076328,2.0764 -1.148893,0 -2.076328,-0.9275 -2.076328,-2.0764 C 12.152716,1012.7172 13.080151,1011.7898 14.229044,1011.7898 z m 19.541912,0 c 1.148893,0 2.076328,0.9274 2.076328,2.0763 0,1.1489 -0.927435,2.0764 -2.076328,2.0764 -1.148894,0 -2.076328,-0.9275 -2.076328,-2.0764 C 31.694628,1012.7172 32.622062,1011.7898 33.770956,1011.7898 Z"
         style="color:#000000;fill:url(#linearGradient1060);fill-opacity:1;fill-rule:nonzero;stroke:none;stroke-width:0.2;marker:none;visibility:visible;display:inline;overflow:visible;enable-background:accumulate" />
      <path
         inkscape:connector-curvature="0"
         id="path1065"
         d="m 10.992415,1010.66 c -2.575101,0 -4.641204,2.1208 -4.641204,4.7634 l 0,1.7404 35.297578,0 0,-1.7404 c 0,-2.6426 -2.066102,-4.7634 -4.641204,-4.7634 L 10.992415,1010.66 z m 3.236629,1.1298 c 1.148893,0 2.076328,0.9274 2.076328,2.0763 0,1.1489 -0.927435,2.0764 -2.076328,2.0764 -1.148893,0 -2.076328,-0.9275 -2.076328,-2.0764 C 12.152716,1012.7172 13.080151,1011.7898 14.229044,1011.7898 z m 19.541912,0 c 1.148893,0 2.076328,0.9274 2.076328,2.0763 0,1.1489 -0.927435,2.0764 -2.076328,2.0764 -1.148894,0 -2.076328,-0.9275 -2.076328,-2.0764 C 31.694628,1012.7172 32.622062,1011.7898 33.770956,1011.7898 Z"
         style="opacity:0.28900003;color:#000000;fill:url(#linearGradient1067);fill-opacity:1;fill-rule:nonzero;stroke:none;stroke-width:0.2;marker:none;visibility:visible;display:inline;overflow:visible;enable-background:accumulate" />
      <path
         inkscape:connector-curvature="0"
         id="rect1073"
         d="m 5.19091,1038.8295 0,0.6603 c 0,2.7428 2.197261,4.9402 4.940028,4.9402 l 27.738124,0 c 2.742766,0 4.940028,-2.1974 4.940028,-4.9402 l 0,-0.6603 c 0,2.7427 -2.197262,4.9665 -4.940028,4.9665 l -27.738124,0 C 7.388171,1043.796 5.19091,1041.5722 5.19091,1038.8295 Z"
         style="color:#000000;fill:#1a1a1a;fill-opacity:0.63921569;fill-rule:nonzero;stroke:none;stroke-width:0.2;marker:none;visibility:visible;display:inline;overflow:visible;enable-background:accumulate" />
      <path
         style="color:#000000;fill:#1a1a1a;fill-opacity:0.44889119;fill-rule:nonzero;stroke:none;stroke-width:0.2;marker:none;visibility:visible;display:inline;overflow:visible;enable-background:accumulate"
         d="m 5.19091,1040.0408 0,0.6601 c 0,2.7429 2.197261,4.9402 4.940028,4.9402 l 27.738124,0 c 2.742766,0 4.940028,-2.1973 4.940028,-4.9402 l 0,-0.6601 c 0,2.7425 -2.197262,4.9663 -4.940028,4.9663 l -27.738124,0 C 7.388171,1045.0071 5.19091,1042.7833 5.19091,1040.0408 Z"
         id="path1078"
         inkscape:connector-curvature="0" />
      <path
         inkscape:connector-curvature="0"
         id="path1080"
         d="m 5.19091,1041.188 0,0.6604 c 0,2.7428 2.197261,4.9401 4.940028,4.9401 l 27.738124,0 c 2.742766,0 4.940028,-2.1973 4.940028,-4.9401 l 0,-0.6604 c 0,2.7427 -2.197262,4.9665 -4.940028,4.9665 l -27.738124,0 C 7.388171,1046.1545 5.19091,1043.9307 5.19091,1041.188 Z"
         style="color:#000000;fill:#1a1a1a;fill-opacity:0.2745098;fill-rule:nonzero;stroke:none;stroke-width:0.2;marker:none;visibility:visible;display:inline;overflow:visible;enable-background:accumulate" />
      <path
         d="m 21.472351,1030.0885 -3.489949,0 q 0,-3.8492 2.360849,-5.4402 1.462699,-1.0009 3.566933,-1.0009 2.720109,0 4.490745,1.5398 1.770637,1.514 1.770637,4.2085 0,2.0785 -1.231747,3.6695 -0.821165,1.0778 -2.54048,2.2582 -1.1291,0.7956 -2.232541,1.5653 -1.539683,1.1291 -1.847619,1.7963 l 7.903708,0 0,3.182 -12.445775,0 q 0,-2.0529 0.615873,-3.3359 0.92381,-1.9503 3.618257,-3.9006 2.258203,-1.6423 2.874076,-2.1811 1.693651,-1.4884 1.693651,-3.182 0,-1.0265 -0.590211,-1.745 -0.692859,-0.847 -1.924605,-0.847 -1.64233,0 -2.232541,1.2063 Q 21.472351,1028.6258 21.472351,1030.0885 Z"
         style="font-size:28.93725586px;font-style:normal;font-variant:normal;font-weight:bold;font-stretch:normal;text-align:start;line-height:125%;letter-spacing:0px;word-spacing:0px;writing-mode:lr-tb;text-anchor:start;fill:url(#linearGradient1830);fill-opacity:1;stroke:none;font-family:Helvetica;-inkscape-font-specification:Helvetica Bold"
         id="path1817"
         inkscape:connector-curvature="0" />
      <path
         d="m 20.890812,1013.6139 -0.119977,0.3624 -0.386869,0 0.626825,-1.7581 0.423598,0 0.619481,1.7581 -0.399112,0 -0.115083,-0.3624 L 20.890812,1013.6139 z m 0.100391,-0.3036 0.448082,0 -0.220369,-0.6955 L 20.991203,1013.3103 Z"
         style="font-size:2.76111388px;font-style:normal;font-variant:normal;font-weight:bold;font-stretch:normal;text-align:start;line-height:125%;letter-spacing:0px;word-spacing:0px;writing-mode:lr-tb;text-anchor:start;fill:#ffffff;fill-opacity:1;stroke:none;font-family:Helvetica;-inkscape-font-specification:Helvetica Bold"
         id="path1793"
         inkscape:connector-curvature="0" />
      <path
         d="m 22.657816,1013.3421 0,0.6342 -0.367279,0 0,-1.7581 0.803121,0 q 0.254646,0 0.399112,0.1519 0.146911,0.1493 0.146911,0.4112 0,0.1861 -0.102838,0.3404 -0.146913,0.2204 -0.457877,0.2204 L 22.657816,1013.3421 z m -0.0025,-0.3037 0.340347,0 q 0.176295,0 0.239957,-0.1077 0.03428,-0.059 0.03428,-0.1666 0,-0.1296 -0.07589,-0.186 -0.0759,-0.056 -0.247302,-0.056 l -0.291376,0 L 22.655369,1013.0384 Z"
         style="font-size:2.76111388px;font-style:normal;font-variant:normal;font-weight:bold;font-stretch:normal;text-align:start;line-height:125%;letter-spacing:0px;word-spacing:0px;writing-mode:lr-tb;text-anchor:start;fill:#ffffff;fill-opacity:1;stroke:none;font-family:Helvetica;-inkscape-font-specification:Helvetica Bold"
         id="path1795"
         inkscape:connector-curvature="0" />
      <path
         d="m 23.926085,1013.9763 0,-1.7581 0.888819,0 q 0.306068,0 0.450532,0.1909 0.100391,0.1347 0.100391,0.3062 0,0.1468 -0.07345,0.2619 -0.07101,0.1128 -0.198331,0.1569 0.124876,0.054 0.166501,0.1223 0.05633,0.093 0.05633,0.3231 0,0.2107 0.01224,0.2694 0.01224,0.059 0.06856,0.081 l 0,0.047 -0.406457,0 q -0.01959,-0.07 -0.02938,-0.1445 -0.0098,-0.073 -0.0098,-0.2106 0,-0.2008 -0.03918,-0.2572 -0.05387,-0.076 -0.247303,-0.076 l -0.379523,0 0,0.6881 L 23.926085,1013.9763 z m 0.357488,-0.9843 0.430942,0 q 0.146912,0 0.215471,-0.054 0.06856,-0.057 0.06856,-0.1861 0,-0.09 -0.04653,-0.1494 -0.0661,-0.081 -0.210574,-0.081 l -0.457876,0 L 24.283573,1012.992 Z"
         style="font-size:2.76111388px;font-style:normal;font-variant:normal;font-weight:bold;font-stretch:normal;text-align:start;line-height:125%;letter-spacing:0px;word-spacing:0px;writing-mode:lr-tb;text-anchor:start;fill:#ffffff;fill-opacity:1;stroke:none;font-family:Helvetica;-inkscape-font-specification:Helvetica Bold"
         id="path1797"
         inkscape:connector-curvature="0" />
      <path
         d="m 26.033436,1012.2182 0,1.7581 -0.367281,0 0,-1.7581 L 26.033436,1012.2182 Z"
         style="font-size:2.76111388px;font-style:normal;font-variant:normal;font-weight:bold;font-stretch:normal;text-align:start;line-height:125%;letter-spacing:0px;word-spacing:0px;writing-mode:lr-tb;text-anchor:start;fill:#ffffff;fill-opacity:1;stroke:none;font-family:Helvetica;-inkscape-font-specification:Helvetica Bold"
         id="path1799"
         inkscape:connector-curvature="0" />
      <path
         d="m 26.741906,1012.2182 0,1.4398 0.874129,0 0,0.3183 -1.241411,0 0,-1.7581 L 26.741906,1012.2182 Z"
         style="font-size:2.76111388px;font-style:normal;font-variant:normal;font-weight:bold;font-stretch:normal;text-align:start;line-height:125%;letter-spacing:0px;word-spacing:0px;writing-mode:lr-tb;text-anchor:start;fill:#ffffff;fill-opacity:1;stroke:none;font-family:Helvetica;-inkscape-font-specification:Helvetica Bold"
         id="path1801"
         inkscape:connector-curvature="0" />
      <path
         d="m 16.172058,1014.6201 0.981021,0 0.36602,1.7217 0.07874,0.5746 0.05639,-0.5746 0.366019,-1.7217 0.971443,0 0,3.2772 -0.613934,0 0,-1.8567 0.05213,-1.1246 -0.0086,0 -0.654367,2.9813 -0.366021,0 -0.65756,-2.9813 -0.0086,0 0.05213,1.229 0,1.7523 -0.614998,0 L 16.172058,1014.6201 Z"
         style="font-size:4.91455078px;font-style:normal;font-variant:normal;font-weight:bold;font-stretch:condensed;text-align:start;line-height:125%;letter-spacing:0px;word-spacing:0px;writing-mode:lr-tb;text-anchor:start;fill:#ffffff;fill-opacity:1;stroke:none;font-family:HelveticaCondensed;-inkscape-font-specification:HelveticaCondensed Bold Condensed"
         id="path1804"
         inkscape:connector-curvature="0" />
      <path
         d="m 21.682581,1016.5598 q -0.0086,0.4746 -0.06917,0.7577 -0.06596,0.283 -0.296861,0.4755 -0.23089,0.1916 -0.696928,0.1916 -0.706504,0 -0.885258,-0.3533 -0.178755,-0.349 -0.195779,-1.0108 l 0,-0.069 0,-0.4138 q 0,-0.01 0,-0.017 0,-0.01 -0.0086,-0.052 0.0043,-0.084 0.01278,-0.2182 0.0043,-0.1352 0.03512,-0.349 0.02554,-0.2086 0.07767,-0.3703 0.04894,-0.1617 0.109593,-0.2532 0.195778,-0.2394 0.391557,-0.3043 0.192585,-0.062 0.462845,-0.062 0.47455,0 0.709697,0.231 0.235147,0.2362 0.296859,0.5543 0.05639,0.3181 0.05639,0.7363 L 21.682581,1016.5598 z m -1.516219,-0.8937 0,1.1853 q 0,0.6277 0.45327,0.6277 0.430925,0 0.430925,-0.6277 l 0,-1.1332 q 0,-0.218 -0.08301,-0.449 -0.08724,-0.2267 -0.347932,-0.231 -0.0043,0 -0.0096,0 -0.217058,0 -0.326652,0.1565 Q 20.166362,1015.3607 20.166362,1015.6661 Z"
         style="font-size:4.91455078px;font-style:normal;font-variant:normal;font-weight:bold;font-stretch:condensed;text-align:start;line-height:125%;letter-spacing:0px;word-spacing:0px;writing-mode:lr-tb;text-anchor:start;fill:#ffffff;fill-opacity:1;stroke:none;font-family:HelveticaCondensed;-inkscape-font-specification:HelveticaCondensed Bold Condensed"
         id="path1806"
         inkscape:connector-curvature="0" />
      <path
         d="m 22.233738,1014.6201 0.640536,0 0.618192,1.5907 0.301116,0.9545 q -0.06065,-0.7842 -0.08301,-1.1247 -0.02128,-0.3351 -0.02128,-0.6883 l 0,-0.7322 0.613935,0 0,3.2772 -0.632024,0 -0.653303,-1.6077 -0.27026,-0.8768 q 0.03512,0.4756 0.06491,0.9247 0.0266,0.4532 0.0266,0.7277 l 0,0.8321 -0.605423,0 L 22.233738,1014.6201 Z"
         style="font-size:4.91455078px;font-style:normal;font-variant:normal;font-weight:bold;font-stretch:condensed;text-align:start;line-height:125%;letter-spacing:0px;word-spacing:0px;writing-mode:lr-tb;text-anchor:start;fill:#ffffff;fill-opacity:1;stroke:none;font-family:HelveticaCondensed;-inkscape-font-specification:HelveticaCondensed Bold Condensed"
         id="path1808"
         inkscape:connector-curvature="0" />
      <path
         d="m 24.915052,1014.6201 1.176797,0 q 0.505406,0 0.727785,0.3789 0.187266,0.3267 0.187266,1.0289 0,0.1266 -0.0043,0.2617 -0.01702,0.3915 -0.04363,0.6405 -0.03086,0.2479 -0.10853,0.4702 -0.083,0.2267 -0.261748,0.3619 -0.183011,0.1351 -0.488381,0.1351 l -1.18531,0 L 24.915052,1014.6201 z m 0.613935,0.483 0,2.3197 0.323459,0 q 0.243658,0 0.356444,-0.1405 0.11385,-0.1352 0.144706,-0.3788 0.01702,-0.1787 0.02128,-0.4704 0,-0.1 -0.0043,-0.2137 -0.0086,-0.6139 -0.08724,-0.8671 -0.08298,-0.2492 -0.326651,-0.2492 L 25.528987,1015.1031 Z"
         style="font-size:4.91455078px;font-style:normal;font-variant:normal;font-weight:bold;font-stretch:condensed;text-align:start;line-height:125%;letter-spacing:0px;word-spacing:0px;writing-mode:lr-tb;text-anchor:start;fill:#ffffff;fill-opacity:1;stroke:none;font-family:HelveticaCondensed;-inkscape-font-specification:HelveticaCondensed Bold Condensed"
         id="path1810"
         inkscape:connector-curvature="0" />
      <path
         d="m 28.084745,1014.6201 0.832058,0 0.733104,3.2772 -0.658623,0 -0.152155,-0.8235 -0.715016,0 -0.170242,0.8235 -0.644791,0 L 28.084745,1014.6201 z m 0.653304,1.9653 -0.195778,-1.0981 -0.05213,-0.5012 -0.0086,0 -0.04788,0.5012 -0.222378,1.0981 L 28.738049,1016.5854 Z"
         style="font-size:4.91455078px;font-style:normal;font-variant:normal;font-weight:bold;font-stretch:condensed;text-align:start;line-height:125%;letter-spacing:0px;word-spacing:0px;writing-mode:lr-tb;text-anchor:start;fill:#ffffff;fill-opacity:1;stroke:none;font-family:HelveticaCondensed;-inkscape-font-specification:HelveticaCondensed Bold Condensed"
         id="path1812"
         inkscape:connector-curvature="0" />
      <path
         d="m 30.669231,1015.9884 q 0.03512,-0.2001 0.121299,-0.4138 l 0.375595,-0.9545 0.661816,0 -0.858658,1.8908 0,1.3864 -0.613935,0 0,-1.3864 -0.850146,-1.8908 0.66288,0 0.383044,0.9545 q 0.06596,0.1649 0.109594,0.4138 L 30.669231,1015.9884 Z"
         style="font-size:4.91455078px;font-style:normal;font-variant:normal;font-weight:bold;font-stretch:condensed;text-align:start;line-height:125%;letter-spacing:0px;word-spacing:0px;writing-mode:lr-tb;text-anchor:start;fill:#ffffff;fill-opacity:1;stroke:none;font-family:HelveticaCondensed;-inkscape-font-specification:HelveticaCondensed Bold Condensed"
         id="path1814"
         inkscape:connector-curvature="0" />
      <g
         transform="matrix(0.97709558,0,0,0.97709558,-18.984935,23.74494)"
         id="g1127">
        <path
           inkscape:connector-curvature="0"
           style="fill:#000000;fill-opacity:0.72052403;stroke:none"
           d="m 34,6.84375 c -1.175825,0 -2.125,0.9491747 -2.125,2.125 0,0.052226 -0.0037,0.1049667 0,0.15625 0.06444,-1.1178958 0.990955,-2 2.125,-2 1.134045,0 2.060557,0.8821042 2.125,2 0.0037,-0.051283 0,-0.1040243 0,-0.15625 C 36.125,7.7929247 35.175825,6.84375 34,6.84375 Z"
           transform="translate(0,1004.3622)"
           id="path1092" />
        <path
           inkscape:connector-curvature="0"
           style="fill:#ffffff;fill-opacity:0.33624459;stroke:none"
           d="m 31.875,9.09375 c -0.0037,0.0512 0,0.10425 0,0.15625 0.06444,1.1178 0.990955,2 2.125,2 1.134045,0 2.060557,-0.8822 2.125,-2 0,-0.0522 0.0037,-0.10525 0,-0.15625 -0.06444,1.1178 -0.990955,2 -2.125,2 C 32.865955,11.09375 31.93944,10.21155 31.875,9.09375 Z"
           transform="translate(0,1004.3622)"
           id="path1121" />
      </g>
      <g
         id="g1131"
         transform="matrix(0.97709558,0,0,0.97709558,0.54243224,23.74494)">
        <path
           id="path1133"
           transform="translate(0,1004.3622)"
           d="m 34,6.84375 c -1.175825,0 -2.125,0.9491747 -2.125,2.125 0,0.052226 -0.0037,0.1049667 0,0.15625 0.06444,-1.1178958 0.990955,-2 2.125,-2 1.134045,0 2.060557,0.8821042 2.125,2 0.0037,-0.051283 0,-0.1040243 0,-0.15625 C 36.125,7.7929247 35.175825,6.84375 34,6.84375 Z"
           style="fill:#000000;fill-opacity:0.72052403;stroke:none"
           inkscape:connector-curvature="0" />
        <path
           id="path1135"
           transform="translate(0,1004.3622)"
           d="m 31.875,9.09375 c -0.0037,0.0512 0,0.10425 0,0.15625 0.06444,1.1178 0.990955,2 2.125,2 1.134045,0 2.060557,-0.8822 2.125,-2 0,-0.0522 0.0037,-0.10525 0,-0.15625 -0.06444,1.1178 -0.990955,2 -2.125,2 C 32.865955,11.09375 31.93944,10.21155 31.875,9.09375 Z"
           style="fill:#ffffff;fill-opacity:0.33624459;stroke:none"
           inkscape:connector-curvature="0" />
      </g>
      <g
         transform="matrix(0,0.77594506,-0.77594506,0,820.07081,1008.7564)"
         id="g4531">
        <g
           transform="translate(0,20.594485)"
           id="g4292">
          <path
             inkscape:connector-curvature="0"
             id="path4294"
             d="m 1.2011357,1016.4247 c -0.22607317,0 -0.41982726,0.1788 -0.41982726,0.3874 l 0,0.5811 c 0,0.012 -0.001231,0.019 0,0.032 -8.26e-4,0.01 0,0.022 0,0.032 l 0,1.614 c 0,0.2086 0.19375409,0.3552 0.41982726,0.3552 l 5.597697,0 c 0.2260732,0 0.4198273,-0.1466 0.4198273,-0.3552 l 0,-1.614 c 0.00241,-0.012 -0.00123,-0.021 0,-0.032 -8.26e-4,-0.01 0.00162,-0.023 0,-0.032 l 0,-0.5811 c 0,-0.2086 -0.1937541,-0.3874 -0.4198273,-0.3874 L 1.2011357,1016.4247 Z"
             style="font-size:24px;font-style:normal;font-variant:normal;font-weight:normal;font-stretch:normal;line-height:125%;letter-spacing:-0.03px;word-spacing:0px;fill:#000000;fill-opacity:0.70980392;stroke:none;font-family:Derivia;-inkscape-font-specification:Derivia" />
          <g
             transform="translate(2.2398699e-8,0.02670689)"
             id="g4296">
            <rect
               style="font-size:24px;font-style:normal;font-variant:normal;font-weight:normal;font-stretch:normal;line-height:125%;letter-spacing:-0.03px;word-spacing:0px;fill:url(#linearGradient4302);fill-opacity:1;stroke:none;font-family:Derivia;-inkscape-font-specification:Derivia"
               id="rect4298"
               width="5.7417612"
               height="0.73903143"
               x="1.1292524"
               y="1016.8575"
               ry="0.20858462" />
            <rect
               ry="0.20858462"
               y="1018.2012"
               x="1.1292524"
               height="0.73903143"
               width="5.7417612"
               id="rect4300"
               style="font-size:24px;font-style:normal;font-variant:normal;font-weight:normal;font-stretch:normal;line-height:125%;letter-spacing:-0.03px;word-spacing:0px;fill:url(#linearGradient4304);fill-opacity:1;stroke:none;font-family:Derivia;-inkscape-font-specification:Derivia" />
          </g>
        </g>
      </g>
      <g
         transform="matrix(0,0.77594506,-0.77594506,0,823.61799,1008.7564)"
         id="g4517">
        <g
           id="g4272"
           transform="translate(0,1.3549804e-6)">
          <path
             inkscape:connector-curvature="0"
             id="rect4206"
             d="m 1.2011357,1016.4247 c -0.22607317,0 -0.41982726,0.1788 -0.41982726,0.3874 l 0,0.5811 c 0,0.012 -0.001231,0.019 0,0.032 -8.26e-4,0.01 0,0.022 0,0.032 l 0,1.614 c 0,0.2086 0.19375409,0.3552 0.41982726,0.3552 l 5.597697,0 c 0.2260732,0 0.4198273,-0.1466 0.4198273,-0.3552 l 0,-1.614 c 0.00241,-0.012 -0.00123,-0.021 0,-0.032 -8.26e-4,-0.01 0.00162,-0.023 0,-0.032 l 0,-0.5811 c 0,-0.2086 -0.1937541,-0.3874 -0.4198273,-0.3874 L 1.2011357,1016.4247 Z"
             style="font-size:24px;font-style:normal;font-variant:normal;font-weight:normal;font-stretch:normal;line-height:125%;letter-spacing:-0.03px;word-spacing:0px;fill:#000000;fill-opacity:0.70980392;stroke:none;font-family:Derivia;-inkscape-font-specification:Derivia" />
          <g
             transform="translate(2.2398699e-8,0.02670689)"
             id="g4260">
            <rect
               style="font-size:24px;font-style:normal;font-variant:normal;font-weight:normal;font-stretch:normal;line-height:125%;letter-spacing:-0.03px;word-spacing:0px;fill:url(#linearGradient4232);fill-opacity:1;stroke:none;font-family:Derivia;-inkscape-font-specification:Derivia"
               id="rect4202"
               width="5.7417612"
               height="0.73903143"
               x="1.1292524"
               y="1016.8575"
               ry="0.20858462" />
            <rect
               ry="0.20858462"
               y="1018.2012"
               x="1.1292524"
               height="0.73903143"
               width="5.7417612"
               id="rect4256"
               style="font-size:24px;font-style:normal;font-variant:normal;font-weight:normal;font-stretch:normal;line-height:125%;letter-spacing:-0.03px;word-spacing:0px;fill:url(#linearGradient4258);fill-opacity:1;stroke:none;font-family:Derivia;-inkscape-font-specification:Derivia" />
          </g>
        </g>
      </g>
    </g>
  </g>
</svg>
