<?xml version="1.0" encoding="UTF-8" standalone="no"?>
<!-- Created with Inkscape (http://www.inkscape.org/) -->

<svg
   xmlns:dc="http://purl.org/dc/elements/1.1/"
   xmlns:cc="http://creativecommons.org/ns#"
   xmlns:rdf="http://www.w3.org/1999/02/22-rdf-syntax-ns#"
   xmlns:svg="http://www.w3.org/2000/svg"
   xmlns="http://www.w3.org/2000/svg"
   xmlns:xlink="http://www.w3.org/1999/xlink"
   xmlns:sodipodi="http://sodipodi.sourceforge.net/DTD/sodipodi-0.dtd"
   xmlns:inkscape="http://www.inkscape.org/namespaces/inkscape"
   width="48"
   height="48"
   id="svg2"
   version="1.1"
   inkscape:version="0.48+devel r12068"
   sodipodi:docname="y-ppa-manager.svg"
   inkscape:export-filename="/home/uri/Documentos/SVG-PNG/y-ppa-manager.svg.png"
   inkscape:export-xdpi="1200"
   inkscape:export-ydpi="1200">
  <defs
     id="defs4">
    <linearGradient
       id="linearGradient3795">
      <stop
         style="stop-color:#2497ea;stop-opacity:1;"
         offset="0"
         id="stop3797" />
      <stop
         style="stop-color:#116dad;stop-opacity:1;"
         offset="1"
         id="stop3799" />
    </linearGradient>
    <linearGradient
       inkscape:collect="always"
       xlink:href="#linearGradient3795"
       id="linearGradient1404"
       x1="24.392179"
       y1="1005.874"
       x2="24.392179"
       y2="1050.6963"
       gradientUnits="userSpaceOnUse" />
  </defs>
  <sodipodi:namedview
     id="base"
     pagecolor="#ffffff"
     bordercolor="#666666"
     borderopacity="1.0"
     inkscape:pageopacity="0.0"
     inkscape:pageshadow="2"
     inkscape:zoom="6.492308"
     inkscape:cx="20.968076"
     inkscape:cy="34.061722"
     inkscape:document-units="px"
     inkscape:current-layer="layer1"
     showgrid="false"
     inkscape:window-width="1366"
     inkscape:window-height="718"
     inkscape:window-x="0"
     inkscape:window-y="28"
     inkscape:window-maximized="1">
    <inkscape:grid
       type="xygrid"
       id="grid3850" />
  </sodipodi:namedview>
  <metadata
     id="metadata7">
    <rdf:RDF>
      <cc:Work
         rdf:about="">
        <dc:format>image/svg+xml</dc:format>
        <dc:type
           rdf:resource="http://purl.org/dc/dcmitype/StillImage" />
        <dc:title />
      </cc:Work>
    </rdf:RDF>
  </metadata>
  <g
     inkscape:label="Capa 1"
     inkscape:groupmode="layer"
     id="layer1"
     transform="translate(0,-1004.3622)">
    <rect
       style="color:#000000;fill:#333333;fill-opacity:1;fill-rule:nonzero;stroke:none;stroke-width:0.2;marker:none;visibility:visible;display:inline;overflow:visible;enable-background:accumulate"
       id="rect6294"
       width="45.5"
       height="45.5"
       x="1.25"
       y="1005.6122"
       ry="6.3565426" />
    <rect
       ry="5.8565426"
       y="1006.1122"
       x="1.75"
       height="44.5"
       width="44.5"
       id="rect6296"
       style="color:#000000;fill:url(#linearGradient1404);fill-opacity:1;fill-rule:nonzero;stroke:none;stroke-width:0.2;marker:none;visibility:visible;display:inline;overflow:visible;enable-background:accumulate" />
    <path
       id="path6361"
       d="m 1.7499986,1012.5498 0,-0.5625 c 0,-3.2445 2.599225,-5.875 5.84375,-5.875 l 32.8125004,0 c 3.244525,0 5.84375,2.6305 5.84375,5.875 l 0,0.5625 c 0,-3.2445 -2.599225,-5.875 -5.84375,-5.875 l -32.8125004,0 C 4.3492236,1006.6748 1.7499986,1009.3053 1.7499986,1012.5498 Z"
       style="color:#000000;fill:#ffffff;fill-opacity:1;fill-rule:nonzero;stroke:none;stroke-width:0.2;marker:none;visibility:visible;display:inline;overflow:visible;enable-background:accumulate"
       inkscape:connector-curvature="0" />
    <path
       inkscape:connector-curvature="0"
       style="color:#000000;fill:#000000;fill-opacity:1;fill-rule:nonzero;stroke:none;stroke-width:0.2;marker:none;visibility:visible;display:inline;overflow:visible;enable-background:accumulate"
       d="m 1.7499986,1044.1748 0,0.5625 c 0,3.2445 2.599225,5.875 5.84375,5.875 l 32.8125004,0 c 3.244525,0 5.84375,-2.6305 5.84375,-5.875 l 0,-0.5625 c 0,3.2445 -2.599225,5.875 -5.84375,5.875 l -32.8125004,0 C 4.3492236,1050.0498 1.7499986,1047.4193 1.7499986,1044.1748 Z"
       id="path6388" />
    <g
       id="g1453"
       transform="matrix(0.41503984,0,0,0.41503984,1.0849522,613.64943)">
      <path
         d="m 27.16,1031.5518 0,10.76 -6,0 0,-10.84 -9.92,-17.88 7.08,0 5.92,12.48 5.72,-12.48 6.8,0 L 27.16,1031.5518 Z"
         style="font-size:40px;font-style:normal;font-variant:normal;font-weight:normal;font-stretch:normal;line-height:125%;letter-spacing:0px;word-spacing:0px;fill:#ffffff;fill-opacity:1;stroke:none;font-family:Helvetica;-inkscape-font-specification:Helvetica"
         id="path1413"
         inkscape:connector-curvature="0" />
      <path
         style="font-size:40px;font-style:normal;font-variant:normal;font-weight:normal;font-stretch:normal;line-height:125%;letter-spacing:0px;word-spacing:0px;fill:#ffffff;fill-opacity:0.19607843;stroke:none;font-family:Helvetica;-inkscape-font-specification:Helvetica"
         d="m 11.25,1014.4648 9.90625,17.9063 0,-0.9063 -9.40625,-17 L 11.25,1014.4648 z m 25.03125,0 -9.125,17.0938 0,0.875 L 36.75,1014.4648 36.28125,1014.4648 z m -15.125,27.8438 0,0.875 6,0 0,-0.875 L 21.15625,1042.3086 Z"
         id="path1423"
         inkscape:connector-curvature="0" />
      <path
         style="font-size:40px;font-style:normal;font-variant:normal;font-weight:normal;font-stretch:normal;line-height:125%;letter-spacing:0px;word-spacing:0px;fill:#000000;fill-opacity:0.23529412;stroke:none;font-family:Helvetica;-inkscape-font-specification:Helvetica"
         d="m 11.25,1012.864 0.40625,0.7187 6.65625,0 5.9375,12.4688 5.71875,-12.4688 6.40625,0 0.375,-0.7187 -6.78125,0 -5.71875,12.5 -5.9375,-12.5 L 11.25,1012.864 Z"
         id="path1439"
         inkscape:connector-curvature="0" />
      <path
         transform="translate(0,1004.3622)"
         id="path1448"
         d="m 17.6875,9.21875 5.9375,12.5 L 23.9375,21.0625 18.3125,9.21875 17.6875,9.21875 z m 18.46875,0 -9.625,17.96875 0,10.75 0.625,0 0,-10.75 L 36.75,9.21875 36.15625,9.21875 Z"
         style="font-size:40px;font-style:normal;font-variant:normal;font-weight:normal;font-stretch:normal;line-height:125%;letter-spacing:0px;word-spacing:0px;fill:#000000;fill-opacity:0.14705882;stroke:none;font-family:Helvetica;-inkscape-font-specification:Helvetica"
         inkscape:connector-curvature="0" />
    </g>
    <g
       id="g1534"
       transform="matrix(0.95574506,0,0,0.88942485,1.0621185,113.71126)">
      <path
         inkscape:connector-curvature="0"
         id="rect1459"
         d="m 20.296875,1004.081 0,24.2812 0,24.2813 c 0.30494,-0.5297 0.61332,-0.1511 0.90625,-0.6875 l 0.9375,0.6875 0.9375,-0.6875 c 0.30541,0.5293 0.611694,0.1519 0.90625,0.6875 0.310564,-0.5324 0.621108,-0.1586 0.9375,-0.6875 l 0.9375,0.6875 0.90625,-0.6875 c 0.3125,0.5312 0.625,0.1562 0.9375,0.6875 l 0,-24.2813 0,-24.2812 c -0.3125,0.5312 -0.625,0.1562 -0.9375,0.6875 l -0.90625,-0.6875 -0.9375,0.6875 c -0.316392,-0.529 -0.626936,-0.1553 -0.9375,-0.6875 -0.294556,0.5354 -0.60084,0.1581 -0.90625,0.6875 l -0.9375,-0.6875 -0.9375,0.6875 C 20.910195,1004.2319 20.601815,1004.6105 20.296875,1004.081 Z"
         style="color:#000000;fill:#000000;fill-opacity:0.14705882;fill-rule:nonzero;stroke:none;stroke-width:0.2;marker:none;visibility:visible;display:inline;overflow:visible;enable-background:accumulate" />
      <path
         inkscape:connector-curvature="0"
         id="rect1461"
         d="m 22.15625,1004.3935 -0.9375,0.625 -0.3125,-0.1875 0,23.5312 0,23.5313 0.3125,-0.1875 0.9375,0.625 0.9375,-0.625 0.46875,0.4375 0,-23.7813 0,-23.7812 -0.46875,0.4375 L 22.15625,1004.3935 z m 3.71875,0 -0.9375,0.625 -0.5,-0.4688 0,23.8125 0,23.8125 0.5,-0.4687 0.9375,0.625 0.90625,-0.625 0.3125,0.1562 0,-23.5 0,-23.5 -0.3125,0.1563 L 25.875,1004.3935 Z"
         style="color:#000000;fill:#ffffff;fill-opacity:0.5372549;fill-rule:nonzero;stroke:none;stroke-width:0.2;marker:none;visibility:visible;display:inline;overflow:visible;enable-background:accumulate" />
    </g>
    <g
       id="g1440"
       transform="matrix(0.744,0,0,0.744,3.0780498,264.60343)">
      <rect
         y="1035.462"
         x="39.150471"
         height="15.625"
         width="13.5"
         id="rect1532"
         style="color:#000000;fill:#ffffff;fill-opacity:1;fill-rule:nonzero;stroke:none;stroke-width:0.2;marker:none;visibility:visible;display:inline;overflow:visible;enable-background:accumulate" />
      <g
         transform="matrix(0.91149012,0,0,0.91149012,11.947464,94.300707)"
         id="g1595">
        <path
           style="fill:#000000"
           d="m 32.510557,1043.4073 0,-1.144 1.144004,0 1.144003,0 0,1.144 0,1.144 -1.144003,0 -1.144004,0 L 32.510557,1043.4073 z m 1.961149,0 0,-0.8171 -0.817145,0 -0.817145,0 0,0.8171 0,0.8172 0.817145,0 0.817145,0 L 34.471706,1043.4073 z m -1.307432,0 0,-0.4903 0.490287,0 0.490287,0 0,0.4903 0,0.4903 -0.490287,0 -0.490287,0 L 33.164274,1043.4073 z m 1.961148,0.9806 c 0,-0.1557 0.0078,-0.1634 0.163429,-0.1634 0.155647,0 0.163429,-0.01 0.163429,-0.1635 0,-0.1556 0.0078,-0.1634 0.163429,-0.1634 0.155647,0 0.16343,-0.01 0.16343,-0.1634 0,-0.1557 0.0078,-0.1635 0.163429,-0.1635 0.155646,0 0.163429,0.01 0.163429,0.1635 0,0.1556 0.0078,0.1634 0.163429,0.1634 l 0.163429,0 0,-0.3269 0,-0.3268 0.163429,0 c 0.155646,0 0.163429,-0.01 0.163429,-0.1634 l 0,-0.1635 -0.326858,0 -0.326858,0 0,-0.3268 0,-0.3269 -0.163429,0 c -0.155647,0 -0.163429,-0.01 -0.163429,-0.1634 0,-0.1557 -0.0078,-0.1634 -0.16343,-0.1634 -0.155646,0 -0.163429,0.01 -0.163429,0.1634 0,0.1556 -0.0078,0.1634 -0.163429,0.1634 -0.155646,0 -0.163429,-0.01 -0.163429,-0.1634 l 0,-0.1634 -0.490287,0 -0.490287,0 0,-0.1635 c 0,-0.1556 -0.0078,-0.1634 -0.163429,-0.1634 -0.155647,0 -0.163429,-0.01 -0.163429,-0.1634 0,-0.1557 -0.0078,-0.1635 -0.163429,-0.1635 -0.155647,0 -0.163429,-0.01 -0.163429,-0.1634 0,-0.1556 -0.0078,-0.1634 -0.163429,-0.1634 l -0.163429,0 0,-0.3269 0,-0.3268 0.163429,0 c 0.155646,0 0.163429,-0.01 0.163429,-0.1635 0,-0.1556 0.0078,-0.1634 0.163429,-0.1634 0.155647,0 0.163429,-0.01 0.163429,-0.1634 0,-0.1557 0.0078,-0.1635 0.163429,-0.1635 l 0.163429,0 0,0.3269 0,0.3269 -0.163429,0 c -0.155647,0 -0.163429,0.01 -0.163429,0.1634 l 0,0.1634 0.326858,0 0.326858,0 0,-0.1634 c 0,-0.1557 0.0078,-0.1634 0.163429,-0.1634 0.155647,0 0.163429,0.01 0.163429,0.1634 0,0.1556 -0.0078,0.1634 -0.163429,0.1634 -0.155647,0 -0.163429,0.01 -0.163429,0.1634 0,0.1557 0.0078,0.1635 0.163429,0.1635 0.155647,0 0.163429,0.01 0.163429,0.1634 0,0.1557 0.0078,0.1634 0.163429,0.1634 0.155647,0 0.163429,-0.01 0.163429,-0.1634 l 0,-0.1634 0.326858,0 0.326859,0 0,-0.3269 0,-0.3268 -0.16343,0 c -0.155646,0 -0.163429,0.01 -0.163429,0.1634 0,0.1556 -0.0078,0.1634 -0.163429,0.1634 -0.155646,0 -0.163429,-0.01 -0.163429,-0.1634 0,-0.1557 0.0078,-0.1634 0.163429,-0.1634 l 0.163429,0 0,-0.3269 0,-0.3269 -0.163429,0 -0.163429,0 0,-0.3268 0,-0.3269 -0.163429,0 c -0.155646,0 -0.163429,0.01 -0.163429,0.1635 l 0,0.1634 -0.326858,0 -0.326858,0 0,-0.1634 c 0,-0.1557 -0.0078,-0.1635 -0.163429,-0.1635 -0.155647,0 -0.163429,0.01 -0.163429,0.1635 0,0.1556 -0.0078,0.1634 -0.163429,0.1634 -0.155647,0 -0.163429,0.01 -0.163429,0.1634 0,0.1557 -0.0078,0.1634 -0.163429,0.1634 -0.155647,0 -0.163429,0.01 -0.163429,0.1635 0,0.1556 -0.0078,0.1634 -0.163429,0.1634 l -0.163429,0 0,0.3269 0,0.3268 -0.16343,0 -0.163429,0 0,-0.3268 0,-0.3269 0.163429,0 c 0.155647,0 0.16343,-0.01 0.16343,-0.1634 0,-0.1557 0.0078,-0.1635 0.163429,-0.1635 0.155646,0 0.163429,-0.01 0.163429,-0.1634 0,-0.1556 -0.0078,-0.1634 -0.163429,-0.1634 -0.155647,0 -0.163429,-0.01 -0.163429,-0.1634 0,-0.1557 -0.0078,-0.1635 -0.16343,-0.1635 l -0.163429,0 0,-0.3268 0,-0.3269 0.326859,0 0.326858,0 0,-0.1634 0,-0.1634 0.326858,0 0.326858,0 0,0.3268 0,0.3269 0.163429,0 0.163429,0 0,-0.3269 0,-0.3268 0.163429,0 c 0.155647,0 0.163429,-0.01 0.163429,-0.1635 0,-0.1556 0.0078,-0.1634 0.163429,-0.1634 0.155647,0 0.163429,0.01 0.163429,0.1634 0,0.1557 -0.0078,0.1635 -0.163429,0.1635 -0.155647,0 -0.163429,0.01 -0.163429,0.1634 l 0,0.1634 0.653716,0 0.653717,0 0,-0.1634 0,-0.1634 -0.326859,0 -0.326858,0 0,-0.4903 0,-0.4903 0.163429,0 0.163429,0 0,-0.3269 0,-0.3268 -0.163429,0 -0.163429,0 0,-0.4903 0,-0.4903 0.163429,0 c 0.155647,0 0.163429,0.01 0.163429,0.1634 0,0.1557 0.0078,0.1634 0.163429,0.1634 0.155647,0 0.16343,-0.01 0.16343,-0.1634 0,-0.1556 0.0078,-0.1634 0.163429,-0.1634 0.155646,0 0.163429,-0.01 0.163429,-0.1634 0,-0.1557 0.0078,-0.1635 0.163429,-0.1635 0.155646,0 0.163429,0.01 0.163429,0.1635 l 0,0.1634 0.490287,0 0.490287,0 0,-0.1634 0,-0.1635 0.326858,0 0.326858,0 0,0.3269 0,0.3268 -0.163429,0 c -0.155646,0 -0.163429,0.01 -0.163429,0.1635 l 0,0.1634 0.326858,0 0.326858,0 0,0.1634 0,0.1635 0.490288,0 0.490287,0 0,0.6537 0,0.6537 0.326858,0 0.326858,0 0,0.1634 0,0.1635 0.326858,0 0.326858,0 0,-0.1635 0,-0.1634 0.490287,0 0.490287,0 0,0.3269 0,0.3268 -0.326858,0 -0.326858,0 0,-0.1634 c 0,-0.1557 -0.0078,-0.1634 -0.163429,-0.1634 l -0.163429,0 0,0.4902 0,0.4903 -0.163429,0 c -0.155646,0 -0.163429,0.01 -0.163429,0.1635 0,0.1556 0.0078,0.1634 0.163429,0.1634 l 0.163429,0 0,0.3268 0,0.3269 -0.326858,0 -0.326858,0 0,0.1634 c 0,0.1557 -0.0078,0.1635 -0.163429,0.1635 -0.155647,0 -0.163429,-0.01 -0.163429,-0.1635 0,-0.1556 0.0078,-0.1634 0.163429,-0.1634 0.155646,0 0.163429,-0.01 0.163429,-0.1634 l 0,-0.1635 -0.653716,0 -0.653717,0 0,-0.3268 0,-0.3269 -0.163429,0 c -0.155646,0 -0.163429,-0.01 -0.163429,-0.1634 0,-0.1556 -0.0078,-0.1634 -0.163429,-0.1634 l -0.163429,0 0,0.3268 0,0.3269 -0.163429,0 c -0.155646,0 -0.163429,0.01 -0.163429,0.1634 0,0.1557 0.0078,0.1634 0.163429,0.1634 0.155647,0 0.163429,0.01 0.163429,0.1635 l 0,0.1634 -0.326858,0 -0.326858,0 0,-0.3269 0,-0.3268 0.163429,0 c 0.155647,0 0.163429,-0.01 0.163429,-0.1634 0,-0.1557 -0.0078,-0.1635 -0.163429,-0.1635 -0.155646,0 -0.163429,-0.01 -0.163429,-0.1634 0,-0.1556 -0.0078,-0.1634 -0.163429,-0.1634 l -0.163429,0 0,0.3268 0,0.3269 -0.163429,0 c -0.155647,0 -0.163429,0.01 -0.163429,0.1634 0,0.1557 -0.0078,0.1634 -0.163429,0.1634 -0.155647,0 -0.163429,0.01 -0.163429,0.1635 0,0.1556 0.0078,0.1634 0.163429,0.1634 l 0.163429,0 0,0.3269 0,0.3268 0.653716,0 0.653716,0 0,-0.1634 c 0,-0.1557 0.0078,-0.1634 0.163429,-0.1634 0.155647,0 0.163429,-0.01 0.163429,-0.1635 l 0,-0.1634 0.326858,0 0.326859,0 0,0.6537 0,0.6537 -0.490288,0 -0.490287,0 0,0.1635 c 0,0.1556 0.0078,0.1634 0.163429,0.1634 0.155647,0 0.163429,0.01 0.163429,0.1634 0,0.1557 -0.0078,0.1635 -0.163429,0.1635 -0.155646,0 -0.163429,-0.01 -0.163429,-0.1635 l 0,-0.1634 -0.326858,0 -0.326858,0 0,0.1634 c 0,0.1557 0.0078,0.1635 0.163429,0.1635 0.155647,0 0.163429,0.01 0.163429,0.1634 l 0,0.1634 0.490287,0 0.490287,0 0,-0.1634 c 0,-0.1557 0.0078,-0.1634 0.16343,-0.1634 0.155646,0 0.163429,-0.01 0.163429,-0.1635 l 0,-0.1634 0.326858,0 0.326858,0 0,-0.1634 c 0,-0.1557 0.0078,-0.1635 0.163429,-0.1635 0.155646,0 0.163429,-0.01 0.163429,-0.1634 0,-0.1556 -0.0078,-0.1634 -0.163429,-0.1634 -0.155647,0 -0.163429,-0.01 -0.163429,-0.1635 l 0,-0.1634 0.653716,0 0.653716,0 0,-0.6537 0,-0.6537 0.326858,0 0.326858,0 0,-0.1634 c 0,-0.1557 0.0078,-0.1635 0.16343,-0.1635 l 0.163429,0 0,0.3269 0,0.3268 -0.326859,0 -0.326858,0 0,0.4903 0,0.4903 0.326858,0 0.326859,0 0,0.3269 0,0.3268 -0.163429,0 c -0.155647,0 -0.16343,-0.01 -0.16343,-0.1634 l 0,-0.1634 -0.653716,0 -0.653716,0 0,0.1634 c 0,0.1557 0.0078,0.1634 0.163429,0.1634 l 0.163429,0 0,0.3269 0,0.3269 0.163429,0 c 0.155647,0 0.163429,-0.01 0.163429,-0.1635 l 0,-0.1634 0.490287,0 0.490288,0 0,0.1634 0,0.1635 -0.490288,0 -0.490287,0 0,0.1634 c 0,0.1556 0.0078,0.1634 0.163429,0.1634 0.155647,0 0.163429,0.01 0.163429,0.1634 0,0.1557 -0.0078,0.1635 -0.163429,0.1635 l -0.163429,0 0,0.4903 0,0.4902 -0.163429,0 c -0.155646,0 -0.163429,0.01 -0.163429,0.1635 l 0,0.1634 0.326858,0 0.326858,0 0,-0.1634 c 0,-0.1557 0.0078,-0.1635 0.163429,-0.1635 0.155647,0 0.163429,-0.01 0.163429,-0.1634 0,-0.1556 -0.0078,-0.1634 -0.163429,-0.1634 -0.155646,0 -0.163429,-0.01 -0.163429,-0.1634 0,-0.1557 0.0078,-0.1635 0.163429,-0.1635 0.155647,0 0.163429,-0.01 0.163429,-0.1634 0,-0.1556 0.0078,-0.1634 0.16343,-0.1634 l 0.163429,0 0,0.4903 0,0.4902 -0.163429,0 c -0.155647,0 -0.16343,0.01 -0.16343,0.1635 0,0.1556 0.0078,0.1634 0.16343,0.1634 0.155646,0 0.163429,0.01 0.163429,0.1634 0,0.1557 -0.0078,0.1635 -0.163429,0.1635 -0.155647,0 -0.16343,-0.01 -0.16343,-0.1635 0,-0.1556 -0.0078,-0.1634 -0.163429,-0.1634 l -0.163429,0 0,0.3269 0,0.3268 -0.163429,0 c -0.155646,0 -0.163429,-0.01 -0.163429,-0.1634 0,-0.1557 -0.0078,-0.1634 -0.163429,-0.1634 -0.155646,0 -0.163429,0.01 -0.163429,0.1634 l 0,0.1634 -0.490287,0 -0.490287,0 0,-0.1634 c 0,-0.1557 -0.0078,-0.1634 -0.163429,-0.1634 -0.155647,0 -0.163429,-0.01 -0.163429,-0.1635 0,-0.1556 -0.0078,-0.1634 -0.163429,-0.1634 -0.155647,0 -0.163429,-0.01 -0.163429,-0.1634 0,-0.1557 -0.0078,-0.1635 -0.163429,-0.1635 l -0.16343,0 0,-0.3268 0,-0.3269 -0.163429,0 c -0.155646,0 -0.163429,-0.01 -0.163429,-0.1634 l 0,-0.1634 -0.326858,0 -0.326858,0 0,0.1634 c 0,0.1556 0.0078,0.1634 0.163429,0.1634 l 0.163429,0 0,0.3269 0,0.3268 -0.163429,0 -0.163429,0 0,0.3269 0,0.3269 -0.653716,0 -0.653716,0 0,0.1634 0,0.1634 -0.326858,0 -0.326858,0 0,-0.1634 c 0,-0.1557 -0.0078,-0.1634 -0.16343,-0.1634 -0.155646,0 -0.163429,0.01 -0.163429,0.1634 0,0.1556 -0.0078,0.1634 -0.163429,0.1634 C 35.133205,1044.5513 35.125422,1044.5435 35.125422,1044.3879 z m 0.980575,-0.3269 c 0,-0.1556 -0.0078,-0.1634 -0.163429,-0.1634 -0.155647,0 -0.163429,0.01 -0.163429,0.1634 0,0.1557 0.0078,0.1635 0.163429,0.1635 C 36.098214,1044.2245 36.105997,1044.2167 36.105997,1044.061 z m 3.595439,-0.3268 c 0,-0.1557 0.0078,-0.1635 0.163429,-0.1635 0.155646,0 0.163429,-0.01 0.163429,-0.1634 l 0,-0.1634 -0.326858,0 -0.326858,0 0,0.3268 0,0.3269 0.163429,0 C 39.693653,1043.8976 39.701436,1043.8898 39.701436,1043.7342 z m -2.614865,-0.3269 c 0,-0.1556 -0.0078,-0.1634 -0.163429,-0.1634 -0.155647,0 -0.163429,0.01 -0.163429,0.1634 0,0.1557 0.0078,0.1634 0.163429,0.1634 C 37.078788,1043.5707 37.086571,1043.563 37.086571,1043.4073 z m 3.595439,0 c 0,-0.1556 -0.0078,-0.1634 -0.163429,-0.1634 -0.155646,0 -0.163429,0.01 -0.163429,0.1634 0,0.1557 0.0078,0.1634 0.163429,0.1634 C 40.674228,1043.5707 40.68201,1043.563 40.68201,1043.4073 z m -3.595439,-0.6537 c 0,-0.1556 0.0078,-0.1634 0.163429,-0.1634 0.155647,0 0.163429,-0.01 0.163429,-0.1635 0,-0.1556 -0.0078,-0.1634 -0.163429,-0.1634 l -0.163429,0 0,-0.3268 0,-0.3269 0.163429,0 0.163429,0 0,-0.3269 0,-0.3268 -0.326858,0 -0.326858,0 0,-0.1635 c 0,-0.1556 -0.0078,-0.1634 -0.163429,-0.1634 l -0.163429,0 0,-0.3268 0,-0.3269 -0.163429,0 c -0.155647,0 -0.163429,-0.01 -0.163429,-0.1634 0,-0.1557 -0.0078,-0.1635 -0.163429,-0.1635 l -0.163429,0 0,0.3269 0,0.3269 0.163429,0 0.163429,0 0,0.4902 0,0.4903 -0.163429,0 c -0.155647,0 -0.163429,0.01 -0.163429,0.1635 0,0.1556 0.0078,0.1634 0.163429,0.1634 l 0.163429,0 0,0.3269 0,0.3268 0.163429,0 c 0.155646,0 0.163429,0.01 0.163429,0.1634 0,0.1557 0.0078,0.1635 0.163429,0.1635 0.155646,0 0.163429,0.01 0.163429,0.1634 0,0.1556 0.0078,0.1634 0.163429,0.1634 C 37.078788,1042.917 37.086571,1042.9092 37.086571,1042.7536 z m -0.980574,-1.3074 c 0,-0.1557 0.0078,-0.1635 0.163429,-0.1635 0.155646,0 0.163429,-0.01 0.163429,-0.1634 0,-0.1556 0.0078,-0.1634 0.163429,-0.1634 0.155646,0 0.163429,0.01 0.163429,0.1634 0,0.1557 0.0078,0.1634 0.163429,0.1634 0.155646,0 0.163429,0.01 0.163429,0.1635 0,0.1556 -0.0078,0.1634 -0.163429,0.1634 -0.155647,0 -0.163429,-0.01 -0.163429,-0.1634 0,-0.1557 -0.0078,-0.1635 -0.163429,-0.1635 -0.155647,0 -0.163429,0.01 -0.163429,0.1635 0,0.1556 -0.0078,0.1634 -0.163429,0.1634 C 36.113779,1041.6096 36.105997,1041.6018 36.105997,1041.4462 z m 2.941723,1.3074 c 0,-0.1556 -0.0078,-0.1634 -0.163429,-0.1634 -0.155647,0 -0.16343,0.01 -0.16343,0.1634 0,0.1556 0.0078,0.1634 0.16343,0.1634 C 39.039937,1042.917 39.04772,1042.9092 39.04772,1042.7536 z m 1.307432,-0.3269 0,-0.4902 -0.490287,0 -0.490287,0 0,0.4902 0,0.4903 0.490287,0 0.490287,0 L 40.355152,1042.4267 z m -0.653716,0 c 0,-0.1556 0.0078,-0.1634 0.163429,-0.1634 0.155646,0 0.163429,0.01 0.163429,0.1634 0,0.1557 -0.0078,0.1635 -0.163429,0.1635 C 39.709218,1042.5902 39.701436,1042.5824 39.701436,1042.4267 z m -4.249156,-0.8171 0,-0.3269 -0.163429,0 -0.163429,0 0,0.3269 0,0.3269 0.163429,0 0.163429,0 L 35.45228,1041.6096 z m -0.653716,-0.1634 0,-0.1635 -0.326858,0 -0.326858,0 0,0.1635 0,0.1634 0.326858,0 0.326858,0 L 34.798564,1041.4462 z m 3.268581,-0.3269 c 0,-0.1556 0.0078,-0.1634 0.163429,-0.1634 0.155647,0 0.163429,-0.01 0.163429,-0.1635 0,-0.1556 0.0078,-0.1634 0.163429,-0.1634 0.155647,0 0.163429,-0.01 0.163429,-0.1634 0,-0.1557 -0.0078,-0.1634 -0.163429,-0.1634 -0.155646,0 -0.163429,0.01 -0.163429,0.1634 0,0.1556 -0.0078,0.1634 -0.163429,0.1634 -0.155646,0 -0.163429,0.01 -0.163429,0.1634 0,0.1557 -0.0078,0.1635 -0.163429,0.1635 -0.155646,0 -0.163429,0.01 -0.163429,0.1634 0,0.1557 0.0078,0.1634 0.163429,0.1634 C 38.059363,1041.2827 38.067145,1041.275 38.067145,1041.1193 z m -4.249155,-0.3269 c 0,-0.1556 -0.0078,-0.1634 -0.163429,-0.1634 -0.155647,0 -0.163429,0.01 -0.163429,0.1634 0,0.1557 0.0078,0.1635 0.163429,0.1635 C 33.810208,1040.9559 33.81799,1040.9481 33.81799,1040.7924 z m -0.326858,-1.6342 c 0,-0.1557 0.0078,-0.1635 0.163429,-0.1635 0.155647,0 0.163429,-0.01 0.163429,-0.1634 0,-0.1556 -0.0078,-0.1634 -0.163429,-0.1634 -0.155647,0 -0.163429,-0.01 -0.163429,-0.1635 0,-0.1556 -0.0078,-0.1634 -0.163429,-0.1634 -0.155647,0 -0.163429,0.01 -0.163429,0.1634 0,0.1557 -0.0078,0.1635 -0.163429,0.1635 -0.155647,0 -0.163429,0.01 -0.163429,0.1634 0,0.1556 0.0078,0.1634 0.163429,0.1634 0.155646,0 0.163429,0.01 0.163429,0.1635 0,0.1556 0.0078,0.1634 0.163429,0.1634 C 33.483349,1039.3216 33.491132,1039.3138 33.491132,1039.1582 z m 2.288007,0 c 0,-0.1557 -0.0078,-0.1635 -0.16343,-0.1635 -0.155646,0 -0.163429,-0.01 -0.163429,-0.1634 0,-0.1556 -0.0078,-0.1634 -0.163429,-0.1634 -0.155646,0 -0.163429,0.01 -0.163429,0.1634 0,0.1556 0.0078,0.1634 0.163429,0.1634 0.155647,0 0.163429,0.01 0.163429,0.1635 0,0.1556 0.0078,0.1634 0.163429,0.1634 C 35.771356,1039.3216 35.779139,1039.3138 35.779139,1039.1582 z m 0.653716,0 c 0,-0.1557 0.0078,-0.1635 0.163429,-0.1635 0.155646,0 0.163429,-0.01 0.163429,-0.1634 0,-0.1556 -0.0078,-0.1634 -0.163429,-0.1634 -0.155647,0 -0.163429,-0.01 -0.163429,-0.1635 0,-0.1556 0.0078,-0.1634 0.163429,-0.1634 0.155646,0 0.163429,-0.01 0.163429,-0.1634 0,-0.1557 0.0078,-0.1634 0.163429,-0.1634 0.155646,0 0.163429,0.01 0.163429,0.1634 l 0,0.1634 0.326858,0 0.326858,0 0,-0.1634 c 0,-0.1557 0.0078,-0.1634 0.163429,-0.1634 0.155647,0 0.163429,-0.01 0.163429,-0.1635 0,-0.1556 0.0078,-0.1634 0.163429,-0.1634 0.155647,0 0.163429,0.01 0.163429,0.1634 l 0,0.1635 0.326858,0 0.326859,0 0,0.1634 0,0.1634 -0.326859,0 -0.326858,0 0,0.1634 c 0,0.1557 0.0078,0.1635 0.163429,0.1635 0.155647,0 0.163429,0.01 0.163429,0.1634 0,0.1556 0.0078,0.1634 0.16343,0.1634 0.155646,0 0.163429,-0.01 0.163429,-0.1634 0,-0.1556 0.0078,-0.1634 0.163429,-0.1634 l 0.163429,0 0,0.3268 0,0.3269 0.163429,0 0.163429,0 0,-0.4903 0,-0.4903 0.163429,0 c 0.155646,0 0.163429,-0.01 0.163429,-0.1634 l 0,-0.1634 -0.326858,0 -0.326858,0 0,-0.1635 c 0,-0.1556 -0.0078,-0.1634 -0.163429,-0.1634 l -0.163429,0 0,-0.4903 0,-0.4903 -0.163429,0 -0.16343,0 0,0.3269 0,0.3268 -0.163429,0 -0.163429,0 0,-0.4902 0,-0.4903 -0.163429,0 c -0.155646,0 -0.163429,0.01 -0.163429,0.1634 0,0.1556 -0.0078,0.1634 -0.163429,0.1634 -0.155646,0 -0.163429,0.01 -0.163429,0.1635 0,0.1556 -0.0078,0.1634 -0.163429,0.1634 l -0.163429,0 0,-0.3269 0,-0.3268 0.163429,0 c 0.155647,0 0.163429,-0.01 0.163429,-0.1635 0,-0.1556 -0.0078,-0.1634 -0.163429,-0.1634 -0.155646,0 -0.163429,-0.01 -0.163429,-0.1634 0,-0.1557 0.0078,-0.1635 0.163429,-0.1635 0.155647,0 0.163429,-0.01 0.163429,-0.1634 0,-0.1556 -0.0078,-0.1634 -0.163429,-0.1634 -0.155646,0 -0.163429,0.01 -0.163429,0.1634 0,0.1557 -0.0078,0.1634 -0.163429,0.1634 -0.155647,0 -0.163429,0.01 -0.163429,0.1635 0,0.1556 -0.0078,0.1634 -0.163429,0.1634 l -0.163429,0 0,0.9806 0,0.9806 -0.163429,0 c -0.155647,0 -0.163429,-0.01 -0.163429,-0.1635 0,-0.1556 -0.0078,-0.1634 -0.163429,-0.1634 -0.155647,0 -0.163429,-0.01 -0.163429,-0.1634 0,-0.1557 0.0078,-0.1635 0.163429,-0.1635 0.155646,0 0.163429,-0.01 0.163429,-0.1634 0,-0.1556 -0.0078,-0.1634 -0.163429,-0.1634 -0.155647,0 -0.163429,0.01 -0.163429,0.1634 0,0.1557 -0.0078,0.1634 -0.163429,0.1634 -0.155647,0 -0.163429,-0.01 -0.163429,-0.1634 0,-0.1556 -0.0078,-0.1634 -0.16343,-0.1634 -0.155646,0 -0.163429,0.01 -0.163429,0.1634 0,0.1557 0.0078,0.1634 0.163429,0.1634 l 0.16343,0 0,0.3269 0,0.3269 0.326858,0 0.326858,0 0,0.1634 0,0.1634 -0.326858,0 -0.326858,0 0,0.1634 0,0.1635 0.326858,0 0.326858,0 0,0.1634 c 0,0.1556 -0.0078,0.1634 -0.163429,0.1634 -0.155647,0 -0.163429,0.01 -0.163429,0.1635 0,0.1556 0.0078,0.1634 0.163429,0.1634 C 36.425072,1039.3216 36.432855,1039.3138 36.432855,1039.1582 z m 0.653716,-1.7978 0,-0.3268 0.163429,0 c 0.155647,0 0.163429,0.01 0.163429,0.1634 0,0.1557 0.0078,0.1634 0.163429,0.1634 0.155647,0 0.163429,-0.01 0.163429,-0.1634 0,-0.1556 0.0078,-0.1634 0.163429,-0.1634 l 0.163429,0 0,0.3268 0,0.3269 -0.490287,0 -0.490287,0 L 37.086571,1037.3604 z m -2.288007,1.4709 0,-0.1634 -0.326858,0 -0.326858,0 0,0.1634 0,0.1634 0.326858,0 0.326858,0 L 34.798564,1038.8313 z m 5.556588,0 c 0,-0.1556 -0.0078,-0.1634 -0.163429,-0.1634 -0.155647,0 -0.163429,0.01 -0.163429,0.1634 0,0.1556 0.0078,0.1634 0.163429,0.1634 C 40.34737,1038.9947 40.355152,1038.9869 40.355152,1038.8313 z m -4.249155,-2.288 c 0,-0.1557 0.0078,-0.1634 0.163429,-0.1634 0.155646,0 0.163429,-0.01 0.163429,-0.1635 0,-0.1556 -0.0078,-0.1634 -0.163429,-0.1634 -0.155647,0 -0.163429,0.01 -0.163429,0.1634 0,0.1557 -0.0078,0.1635 -0.163429,0.1635 -0.155647,0 -0.163429,0.01 -0.163429,0.1634 0,0.1556 0.0078,0.1634 0.163429,0.1634 C 36.098214,1036.7067 36.105997,1036.6989 36.105997,1036.5433 z m 1.961148,7.8446 c 0,-0.1557 0.0078,-0.1634 0.163429,-0.1634 0.155647,0 0.163429,-0.01 0.163429,-0.1635 0,-0.1556 0.0078,-0.1634 0.163429,-0.1634 0.155647,0 0.163429,0.01 0.163429,0.1634 0,0.1557 0.0078,0.1635 0.16343,0.1635 0.155646,0 0.163429,0.01 0.163429,0.1634 l 0,0.1634 -0.490288,0 -0.490287,0 L 38.067145,1044.3879 z m -2.614865,-1.3074 c 0,-0.1557 0.0078,-0.1635 0.163429,-0.1635 0.155647,0 0.16343,0.01 0.16343,0.1635 0,0.1556 -0.0078,0.1634 -0.16343,0.1634 C 35.460063,1043.2439 35.45228,1043.2361 35.45228,1043.0805 z m -2.614864,-1.4709 0,-0.3269 0.163429,0 0.163429,0 0,0.3269 0,0.3269 -0.163429,0 -0.163429,0 L 32.837416,1041.6096 z m 8.825168,-1.4709 c 0,-0.1556 0.0078,-0.1634 0.16343,-0.1634 0.155646,0 0.163429,0.01 0.163429,0.1634 0,0.1557 -0.0078,0.1635 -0.163429,0.1635 C 41.670367,1040.3022 41.662584,1040.2944 41.662584,1040.1387 z m -7.190878,-0.3268 c 0,-0.1557 0.0078,-0.1635 0.163429,-0.1635 0.155647,0 0.163429,0.01 0.163429,0.1635 0,0.1556 -0.0078,0.1634 -0.163429,0.1634 C 34.479488,1039.9753 34.471706,1039.9675 34.471706,1039.8119 z m -1.961149,-1.9612 c 0,-0.1556 0.0078,-0.1634 0.163429,-0.1634 0.155647,0 0.16343,0.01 0.16343,0.1634 0,0.1557 -0.0078,0.1635 -0.16343,0.1635 C 32.51834,1038.0142 32.510557,1038.0064 32.510557,1037.8507 z m 0,-1.6343 0,-1.144 1.144004,0 1.144003,0 0,1.144 0,1.144 -1.144003,0 -1.144004,0 L 32.510557,1036.2164 z m 1.961149,0 0,-0.8171 -0.817145,0 -0.817145,0 0,0.8171 0,0.8172 0.817145,0 0.817145,0 L 34.471706,1036.2164 z m -1.307432,0 0,-0.4903 0.490287,0 0.490287,0 0,0.4903 0,0.4903 -0.490287,0 -0.490287,0 L 33.164274,1036.2164 z m 6.537162,0 0,-1.144 1.144003,0 1.144004,0 0,1.144 0,1.144 -1.144004,0 -1.144003,0 L 39.701436,1036.2164 z m 1.961148,0 0,-0.8171 -0.817145,0 -0.817145,0 0,0.8171 0,0.8172 0.817145,0 0.817145,0 L 41.662584,1036.2164 z m -1.307432,0 0,-0.4903 0.490287,0 0.490287,0 0,0.4903 0,0.4903 -0.490287,0 -0.490287,0 L 40.355152,1036.2164 z m -1.634291,-0.3268 c 0,-0.1557 -0.0078,-0.1635 -0.163429,-0.1635 l -0.163429,0 0,-0.3268 0,-0.3269 0.163429,0 0.163429,0 0,0.3269 0,0.3268 0.326859,0 0.326858,0 0,0.1635 0,0.1634 -0.326858,0 -0.326859,0 L 38.720861,1035.8896 Z"
           id="path1561"
           inkscape:connector-curvature="0" />
        <path
           inkscape:connector-curvature="0"
           style="font-size:1.57811153px;font-style:normal;font-variant:normal;font-weight:normal;font-stretch:normal;line-height:125%;letter-spacing:0px;word-spacing:0px;fill:#000000;fill-opacity:1;stroke:none;font-family:Helvetica;-inkscape-font-specification:Helvetica"
           d="m 33.3125,41.65625 0,0.90625 0.1875,0 0,-0.34375 0.21875,0 c 0.106513,0 0.19968,-0.01828 0.25,-0.09375 C 34.003977,42.0724 34,42.0015 34,41.9375 c 0,-0.08953 -0.01218,-0.167417 -0.0625,-0.21875 -0.04948,-0.052 -0.131527,-0.0625 -0.21875,-0.0625 L 33.3125,41.65625 z m 0.84375,0 0,0.90625 0.1875,0 0,-0.34375 0.21875,0 c 0.106513,0 0.19968,-0.01828 0.25,-0.09375 0.03523,-0.0526 0.03125,-0.1235 0.03125,-0.1875 0,-0.08953 -0.01218,-0.167417 -0.0625,-0.21875 -0.04948,-0.052 -0.131528,-0.0625 -0.21875,-0.0625 L 34.15625,41.65625 z m 1,0 -0.3125,0.90625 0.1875,0 0.0625,-0.1875 0.34375,0 0.0625,0.1875 0.1875,0 L 35.375,41.65625 35.15625,41.65625 z m 0.96875,0 0,0.90625 0.15625,0 0,-0.78125 0.15625,0.78125 0.1875,0 0.1875,-0.78125 0,0.78125 0.1875,0 0,-0.90625 -0.28125,0 -0.15625,0.6875 L 36.375,41.65625 36.125,41.65625 z m -2.625,0.15625 0.15625,0 c 0.05871,0 0.099,0.01192 0.125,0.03125 0.026,0.01933 0.03125,0.04908 0.03125,0.09375 0,0.03733 0.01174,0.0425 0,0.0625 -0.0218,0.03667 -0.06461,0.0625 -0.125,0.0625 l -0.1875,0 L 33.5,41.8125 z m 0.84375,0 0.15625,0 c 0.05871,0 0.099,0.01192 0.125,0.03125 0.026,0.01933 0.03125,0.04908 0.03125,0.09375 0,0.03733 0.01174,0.0425 0,0.0625 -0.0218,0.03667 -0.06461,0.0625 -0.125,0.0625 l -0.1875,0 L 34.34375,41.8125 z m 0.9375,0.03125 0.09375,0.375 -0.21875,0 L 35.28125,41.84375 Z M 37.4375,41.875 c -0.08471,0 -0.174303,0.0046 -0.21875,0.03125 -0.06122,0.03687 -0.08536,0.09523 -0.09375,0.1875 l 0.1875,0 c 0.0025,-0.026 -0.01258,-0.04783 0,-0.0625 C 37.330113,42.010583 37.36767,42 37.40625,42 c 0.03271,0 0.04489,-0.0073 0.0625,0 0.02768,0.012 0.0625,0.06108 0.0625,0.09375 0,0.014 -0.02202,0.02192 -0.03125,0.03125 -0.0084,0.0047 -0.0069,-0.0067 -0.03125,0 l -0.15625,0.03125 c -0.06038,0.0087 -0.121023,0.0265 -0.15625,0.0625 -0.03439,0.0354 -0.0625,0.09358 -0.0625,0.15625 0,0.06447 0.05098,0.120917 0.09375,0.15625 0.0369,0.03067 0.06881,0.03125 0.125,0.03125 0.05367,0 0.08642,-0.0093 0.125,-0.03125 0.02348,-0.01333 0.06523,-0.0325 0.09375,-0.0625 0.0025,0.028 -0.0084,0.06908 0,0.09375 l 0.21875,0 0,-0.03125 C 37.73741,42.52725 37.72546,42.51467 37.71875,42.5 37.71205,42.486 37.6875,42.44292 37.6875,42.40625 l 0,-0.34375 c 0,-0.0738 -0.02836,-0.12325 -0.09375,-0.15625 C 37.548461,41.883583 37.504595,41.875 37.4375,41.875 z m 0.40625,0 0,0.6875 0.1875,0 0,-0.40625 c 0,-0.04893 0.0052,-0.06642 0.03125,-0.09375 C 38.0885,42.03517 38.116,42 38.15625,42 c 0.04948,0 0.108227,0.0305 0.125,0.0625 0.01007,0.018 0,0.05575 0,0.09375 l 0,0.40625 0.1875,0 0,-0.46875 c 0,-0.07133 -0.01892,-0.118583 -0.0625,-0.15625 -0.04361,-0.03933 -0.119567,-0.0625 -0.1875,-0.0625 -0.04277,0 -0.06104,-0.01733 -0.09375,0 -0.03187,0.01667 -0.06523,0.05108 -0.09375,0.09375 l 0,-0.09375 L 37.84375,41.875 z m 1.0625,0 c -0.0847,0 -0.143047,0.0046 -0.1875,0.03125 -0.06122,0.03687 -0.116613,0.09523 -0.125,0.1875 l 0.1875,0 c 0.0025,-0.026 -0.01258,-0.04783 0,-0.0625 C 38.798863,42.010583 38.83642,42 38.875,42 c 0.03271,0 0.04489,-0.0073 0.0625,0 0.02768,0.012 0.0625,0.06108 0.0625,0.09375 0,0.014 -0.02202,0.02192 -0.03125,0.03125 -0.0084,0.0047 -0.0069,-0.0067 -0.03125,0 l -0.15625,0.03125 c -0.06038,0.0087 -0.121023,0.0265 -0.15625,0.0625 -0.03439,0.0354 -0.0625,0.09358 -0.0625,0.15625 0,0.06447 0.05098,0.120917 0.09375,0.15625 0.0369,0.03067 0.06881,0.03125 0.125,0.03125 0.05367,0 0.08642,-0.0093 0.125,-0.03125 0.02348,-0.01333 0.06523,-0.0325 0.09375,-0.0625 0.0025,0.028 -0.0084,0.06908 0,0.09375 l 0.21875,0 0,-0.03125 C 39.20616,42.52725 39.19421,42.51467 39.1875,42.5 39.1808,42.486 39.15625,42.44292 39.15625,42.40625 l 0,-0.34375 c 0,-0.0738 -0.02836,-0.12325 -0.09375,-0.15625 C 39.017211,41.883583 38.973344,41.875 38.90625,41.875 z m 0.65625,0 c -0.07884,0 -0.13718,0.0052 -0.1875,0.0625 -0.05535,0.06207 -0.09375,0.170583 -0.09375,0.28125 0,0.112467 0.03756,0.188 0.09375,0.25 0.05116,0.056 0.134044,0.09375 0.21875,0.09375 0.0478,0 0.06272,-0.01058 0.09375,-0.03125 0.02349,-0.016 0.04573,-0.0325 0.0625,-0.0625 l 0,0.0625 c 0,0.102267 -0.03191,0.15625 -0.125,0.15625 -0.04613,0 -0.07446,-0.01658 -0.09375,-0.03125 C 39.519543,42.647583 39.505067,42.647 39.5,42.625 l -0.1875,0 c 0,0.0658 0.03085,0.118917 0.09375,0.15625 0.05368,0.03067 0.109503,0.03125 0.1875,0.03125 0.144253,0 0.26134,-0.01995 0.3125,-0.09375 0.03019,-0.0436 0.03125,-0.130683 0.03125,-0.21875 l 0,-0.625 -0.15625,0 L 39.75,41.96875 C 39.73574,41.93742 39.7439,41.92558 39.71875,41.90625 39.682687,41.87825 39.617853,41.875 39.5625,41.875 z m 0.78125,0 c -0.126642,0 -0.196327,0.03193 -0.25,0.125 -0.03271,0.0562 -0.0625,0.111167 -0.0625,0.1875 0,0.129867 0.03001,0.251167 0.09375,0.3125 0.05535,0.05267 0.146843,0.0625 0.25,0.0625 0.06626,0 0.10677,-5.83e-4 0.15625,-0.03125 0.05871,-0.03687 0.103193,-0.112833 0.125,-0.1875 l -0.15625,0 c -0.0067,0.02347 -0.04067,0.05023 -0.0625,0.0625 -0.02096,0.01267 -0.0365,0.03125 -0.0625,0.03125 -0.04864,0 -0.09984,-0.03783 -0.125,-0.0625 -0.02433,-0.0254 -0.0237,-0.06567 -0.03125,-0.125 l 0.46875,0 0,-0.03125 c 0,-0.1376 -0.05287,-0.21925 -0.125,-0.28125 C 40.508825,41.8915 40.428457,41.875 40.34375,41.875 z m 0.4375,0 0,0.6875 0.1875,0 0,-0.375 c 0,-0.04613 0.01112,-0.06775 0.03125,-0.09375 0.026,-0.03467 0.06294,-0.0625 0.125,-0.0625 l 0.03125,0 0.03125,0 0,-0.15625 -0.03125,0 c -0.04864,0 -0.09397,0.0039 -0.125,0.03125 -0.01928,0.01667 -0.03817,0.04908 -0.0625,0.09375 l 0,-0.125 L 40.78125,41.875 Z M 39.625,42 c 0.0478,0 0.06691,0.0245 0.09375,0.0625 0.02684,0.03707 0.03125,0.10025 0.03125,0.15625 0,0.05473 -0.01028,0.09167 -0.03125,0.125 -0.02516,0.04067 -0.03924,0.0625 -0.09375,0.0625 -0.04864,0 -0.100673,-0.02183 -0.125,-0.0625 -0.01929,-0.03233 -0.03125,-0.07433 -0.03125,-0.125 0,-0.07213 0.03314,-0.120917 0.0625,-0.15625 C 39.55473,42.033833 39.58642,42 39.625,42 z m 0.71875,0 c 0.03355,0 0.07026,0.01125 0.09375,0.03125 0.02848,0.02447 0.05743,0.07567 0.0625,0.125 l -0.28125,0 c 0.005,-0.04527 0.0086,-0.101133 0.03125,-0.125 C 40.272647,42.006583 40.302657,42 40.34375,42 z m -2.8125,0.21875 0,0.09375 c 0,0.0394 -0.03063,0.07048 -0.0625,0.09375 -0.03103,0.02467 -0.05182,0.03125 -0.09375,0.03125 -0.02097,0 -0.0474,0.01133 -0.0625,0 -0.01845,-0.014 -0.03125,-0.0345 -0.03125,-0.0625 0,-0.03333 0.0078,-0.07775 0.03125,-0.09375 0.01593,-0.01 0.05684,-0.02458 0.09375,-0.03125 0.03774,-0.0053 0.04405,0.0067 0.0625,0 C 37.487203,42.243333 37.522863,42.225417 37.53125,42.21875 z m 1.46875,0 0,0.09375 c 0,0.0394 -0.03063,0.07048 -0.0625,0.09375 -0.03103,0.02467 -0.05182,0.03125 -0.09375,0.03125 -0.02097,0 -0.0474,0.01133 -0.0625,0 C 38.762797,42.4235 38.75,42.403 38.75,42.375 c 0,-0.03333 0.0078,-0.07775 0.03125,-0.09375 0.01593,-0.01 0.05685,-0.02458 0.09375,-0.03125 0.03774,-0.0053 0.04405,0.0067 0.0625,0 C 38.955953,42.243333 38.991613,42.225417 39,42.21875 Z"
           transform="translate(0,1004.3622)"
           id="path1564" />
      </g>
    </g>
  </g>
</svg>
