<?xml version="1.0" encoding="UTF-8" standalone="no"?>
<!-- Created with Inkscape (http://www.inkscape.org/) -->

<svg
   xmlns:dc="http://purl.org/dc/elements/1.1/"
   xmlns:cc="http://creativecommons.org/ns#"
   xmlns:rdf="http://www.w3.org/1999/02/22-rdf-syntax-ns#"
   xmlns:svg="http://www.w3.org/2000/svg"
   xmlns="http://www.w3.org/2000/svg"
   xmlns:xlink="http://www.w3.org/1999/xlink"
   xmlns:sodipodi="http://sodipodi.sourceforge.net/DTD/sodipodi-0.dtd"
   xmlns:inkscape="http://www.inkscape.org/namespaces/inkscape"
   width="48"
   height="48"
   id="svg2"
   version="1.1"
   inkscape:version="0.48+devel r12084"
   sodipodi:docname="yahoo.svg">
  <defs
     id="defs4">
    <linearGradient
       id="linearGradient3843-5">
      <stop
         offset="0"
         style="stop-color:#65216c;stop-opacity:1"
         id="stop3845-0" />
      <stop
         offset="1"
         style="stop-color:#982ea4;stop-opacity:1"
         id="stop3847-4" />
    </linearGradient>
    <linearGradient
       inkscape:collect="always"
       xlink:href="#linearGradient3843-5"
       id="linearGradient833"
       x1="76.777382"
       y1="1012.7606"
       x2="76.777382"
       y2="969.13959"
       gradientUnits="userSpaceOnUse"
       gradientTransform="translate(-51.985863,37.060093)" />
  </defs>
  <sodipodi:namedview
     id="base"
     pagecolor="#ffffff"
     bordercolor="#666666"
     borderopacity="1.0"
     inkscape:pageopacity="0.0"
     inkscape:pageshadow="2"
     inkscape:zoom="4.4218752"
     inkscape:cx="57.657039"
     inkscape:cy="35.131674"
     inkscape:document-units="px"
     inkscape:current-layer="layer1"
     showgrid="false"
     inkscape:window-width="1366"
     inkscape:window-height="718"
     inkscape:window-x="0"
     inkscape:window-y="28"
     inkscape:window-maximized="1">
    <inkscape:grid
       type="xygrid"
       id="grid3850" />
  </sodipodi:namedview>
  <metadata
     id="metadata7">
    <rdf:RDF>
      <cc:Work
         rdf:about="">
        <dc:format>image/svg+xml</dc:format>
        <dc:type
           rdf:resource="http://purl.org/dc/dcmitype/StillImage" />
        <dc:title />
      </cc:Work>
    </rdf:RDF>
  </metadata>
  <g
     inkscape:label="Capa 1"
     inkscape:groupmode="layer"
     id="layer1"
     transform="translate(0,-1004.3622)">
    <rect
       style="color:#000000;fill:#333333;fill-opacity:1;fill-rule:nonzero;stroke:none;stroke-width:0.2;marker:none;visibility:visible;display:inline;overflow:visible;enable-background:accumulate"
       id="rect6294"
       width="45.5"
       height="45.5"
       x="1.25"
       y="1005.6122"
       ry="6.3565426" />
    <rect
       ry="5.8565426"
       y="1006.1122"
       x="1.75"
       height="44.5"
       width="44.5"
       id="rect6296"
       style="color:#000000;fill:url(#linearGradient833);fill-opacity:1;fill-rule:nonzero;stroke:none;stroke-width:0.2;marker:none;visibility:visible;display:inline;overflow:visible;enable-background:accumulate" />
    <path
       id="path6361"
       d="m 1.7499993,1012.5497 0,-0.5625 c 0,-3.2445 2.599225,-5.875 5.84375,-5.875 l 32.8124997,0 c 3.244525,0 5.84375,2.6305 5.84375,5.875 l 0,0.5625 c 0,-3.2445 -2.599225,-5.875 -5.84375,-5.875 l -32.8124997,0 C 4.3492243,1006.6747 1.7499993,1009.3052 1.7499993,1012.5497 Z"
       style="color:#000000;fill:#ffffff;fill-opacity:1;fill-rule:nonzero;stroke:none;stroke-width:0.2;marker:none;visibility:visible;display:inline;overflow:visible;enable-background:accumulate"
       inkscape:connector-curvature="0" />
    <path
       inkscape:connector-curvature="0"
       style="color:#000000;fill:#000000;fill-opacity:1;fill-rule:nonzero;stroke:none;stroke-width:0.2;marker:none;visibility:visible;display:inline;overflow:visible;enable-background:accumulate"
       d="m 1.7499993,1044.1747 0,0.5625 c 0,3.2445 2.599225,5.875 5.84375,5.875 l 32.8124997,0 c 3.244525,0 5.84375,-2.6305 5.84375,-5.875 l 0,-0.5625 c 0,3.2445 -2.599225,5.875 -5.84375,5.875 l -32.8124997,0 C 4.3492243,1050.0497 1.7499993,1047.4192 1.7499993,1044.1747 Z"
       id="path6388" />
    <path
       style="color:#000000;fill:#ffffff;fill-opacity:1;fill-rule:nonzero;stroke:none;stroke-width:1.5;marker:none;visibility:visible;display:inline;overflow:visible;enable-background:accumulate"
       id="path3851"
       inkscape:connector-curvature="0"
       d="m 34.879533,1018.8622 0.05017,13.3188 2.269961,0.3011 3.147855,-12.8799 L 34.879533,1018.8622 z m -14.823755,0.4013 c -6.850733,0 -12.4032968,4.1584 -12.4032968,9.2931 0,5.1347 5.5525638,9.3056 12.4032968,9.3056 6.850728,0 12.403296,-4.1709 12.403296,-9.3056 C 32.459074,1023.422 26.906506,1019.2636 20.055778,1019.2636 z m -7.788118,4.8911 7.32409,0.1003 -0.10033,0.5393 -2.257425,0.1756 3.223101,4.3393 c 0,0 2.947318,-2.3596 2.972274,-2.734 -0.187172,-0.1497 -1.906268,-0.2884 -1.906268,-0.2884 l -0.163034,-0.765 6.283163,0.038 -0.426402,0.7399 -1.843565,0.3135 c 0,0 -2.716574,1.9022 -4.238939,3.5869 -0.112308,1.098 0.03761,2.9847 0.03761,2.9847 l 2.320129,0.063 c 0,0 -0.03046,0.6199 -0.01254,0.7149 -0.03722,-0.084 -7.186135,0.063 -7.186135,0.063 l 0.163034,-0.765 c 0,0 1.907846,0.086 2.219804,-0.3261 l -0.05017,-2.6462 c -0.486653,-0.9484 -3.677476,-4.6427 -4.251481,-5.1419 l -2.09438,-0.2759 L 12.26766,1024.1546 z m 22.172929,9.4938 -0.363698,2.6337 2.771619,0.4515 0.413861,-2.7717 L 34.440589,1033.6484 Z" />
  </g>
</svg>
