<?xml version="1.0" encoding="UTF-8" standalone="no"?>
<!-- Created with Inkscape (http://www.inkscape.org/) -->

<svg
   xmlns:dc="http://purl.org/dc/elements/1.1/"
   xmlns:cc="http://creativecommons.org/ns#"
   xmlns:rdf="http://www.w3.org/1999/02/22-rdf-syntax-ns#"
   xmlns:svg="http://www.w3.org/2000/svg"
   xmlns="http://www.w3.org/2000/svg"
   xmlns:sodipodi="http://sodipodi.sourceforge.net/DTD/sodipodi-0.dtd"
   xmlns:inkscape="http://www.inkscape.org/namespaces/inkscape"
   width="48"
   height="48"
   id="svg1593"
   version="1.1"
   inkscape:version="0.48+devel r12149"
   sodipodi:docname="input-tablet.svg">
  <defs
     id="defs1595">
    <linearGradient
       id="linearGradient24"
       spreadMethod="pad"
       gradientTransform="matrix(52.1704,52.1704,-52.1704,52.1704,-2.4508489,-0.7288)"
       gradientUnits="userSpaceOnUse"
       y2="0"
       x2="1"
       y1="0"
       x1="0">
      <stop
         id="stop26"
         offset="0"
         style="stop-opacity:1;stop-color:#ffffff" />
      <stop
         id="stop28"
         offset="0.47145039"
         style="stop-opacity:1;stop-color:#ffffff" />
      <stop
         id="stop30"
         offset="1"
         style="stop-opacity:1;stop-color:#e7e8e9" />
    </linearGradient>
    <linearGradient
       id="linearGradient138-2"
       spreadMethod="pad"
       gradientTransform="matrix(52.1704,52.1704,-52.1704,52.1704,-2.4508478,-0.7288)"
       gradientUnits="userSpaceOnUse"
       y2="0"
       x2="1"
       y1="0"
       x1="0">
      <stop
         id="stop140-2"
         offset="0"
         style="stop-opacity:1;stop-color:#ffffff" />
      <stop
         id="stop142-5"
         offset="0.02630913"
         style="stop-opacity:1;stop-color:#ffffff" />
      <stop
         id="stop144-9"
         offset="1"
         style="stop-opacity:1;stop-color:#e7e8e9" />
    </linearGradient>
    <linearGradient
       id="linearGradient160"
       spreadMethod="pad"
       gradientTransform="matrix(45.160998,45.160998,-45.160998,45.160998,1.0539115,0.77)"
       gradientUnits="userSpaceOnUse"
       y2="0"
       x2="1"
       y1="0"
       x1="0">
      <stop
         id="stop162"
         offset="0"
         style="stop-opacity:1;stop-color:#ffffff" />
      <stop
         id="stop164"
         offset="0.26598501"
         style="stop-opacity:1;stop-color:#ffffff" />
      <stop
         id="stop166"
         offset="1"
         style="stop-opacity:1;stop-color:#f1f2f2" />
    </linearGradient>
    <linearGradient
       id="linearGradient182"
       spreadMethod="pad"
       gradientTransform="matrix(47.153225,0,0,48.403225,0.42330716,1032.7527)"
       gradientUnits="userSpaceOnUse"
       y2="0"
       x2="1"
       y1="0"
       x1="0">
      <stop
         id="stop184"
         offset="0"
         style="stop-opacity:1;stop-color:#ffffff" />
      <stop
         id="stop186"
         offset="0.26598501"
         style="stop-opacity:1;stop-color:#ffffff" />
      <stop
         id="stop188"
         offset="1"
         style="stop-opacity:1;stop-color:#f1f2f2" />
    </linearGradient>
    <linearGradient
       id="linearGradient214"
       spreadMethod="pad"
       gradientTransform="matrix(9.2536692,0,0,9.2536692,19.007445,1011.5674)"
       gradientUnits="userSpaceOnUse"
       y2="0"
       x2="1"
       y1="0"
       x1="0">
      <stop
         id="stop216"
         offset="0"
         style="stop-opacity:1;stop-color:#00b0f0" />
      <stop
         id="stop218"
         offset="0.02630913"
         style="stop-opacity:1;stop-color:#00b0f0" />
      <stop
         id="stop220"
         offset="1"
         style="stop-opacity:1;stop-color:#337abe" />
    </linearGradient>
    <linearGradient
       id="linearGradient324"
       spreadMethod="pad"
       gradientTransform="matrix(0,-8.5417206,8.5417206,0,23.61711,1015.784)"
       gradientUnits="userSpaceOnUse"
       y2="0"
       x2="1"
       y1="0"
       x1="0">
      <stop
         id="stop326"
         offset="0"
         style="stop-opacity:1;stop-color:#ffffff" />
      <stop
         id="stop328"
         offset="0.47587091"
         style="stop-opacity:1;stop-color:#ffffff" />
      <stop
         id="stop330"
         offset="0.484665"
         style="stop-opacity:1;stop-color:#ffffff" />
      <stop
         id="stop332"
         offset="0.9487092"
         style="stop-opacity:1;stop-color:#ffffff" />
      <stop
         id="stop334"
         offset="1"
         style="stop-opacity:1;stop-color:#ffffff" />
    </linearGradient>
    <linearGradient
       id="linearGradient466"
       spreadMethod="pad"
       gradientTransform="matrix(-1.8623494,-3.81838,3.81838,-1.8623494,15.60327,1011.5897)"
       gradientUnits="userSpaceOnUse"
       y2="0"
       x2="1"
       y1="0"
       x1="0">
      <stop
         id="stop468"
         offset="0"
         style="stop-opacity:1;stop-color:#ffffff" />
      <stop
         id="stop470"
         offset="0.26598501"
         style="stop-opacity:1;stop-color:#ffffff" />
      <stop
         id="stop472"
         offset="1"
         style="stop-opacity:1;stop-color:#aaacae" />
    </linearGradient>
    <linearGradient
       id="linearGradient504"
       spreadMethod="pad"
       gradientTransform="matrix(-1.8623494,-3.81838,3.81838,-1.8623494,16.896066,1016.6492)"
       gradientUnits="userSpaceOnUse"
       y2="0"
       x2="1"
       y1="0"
       x1="0">
      <stop
         id="stop506"
         offset="0"
         style="stop-opacity:1;stop-color:#ffffff" />
      <stop
         id="stop508"
         offset="0.26598501"
         style="stop-opacity:1;stop-color:#ffffff" />
      <stop
         id="stop510"
         offset="1"
         style="stop-opacity:1;stop-color:#aaacae" />
    </linearGradient>
    <linearGradient
       id="linearGradient542"
       spreadMethod="pad"
       gradientTransform="matrix(-2.5562945,-3.3923173,3.3923173,-2.5562969,33.828248,1011.377)"
       gradientUnits="userSpaceOnUse"
       y2="0"
       x2="1"
       y1="0"
       x1="0">
      <stop
         id="stop544"
         offset="0"
         style="stop-opacity:1;stop-color:#ffffff" />
      <stop
         id="stop546"
         offset="0.26598501"
         style="stop-opacity:1;stop-color:#ffffff" />
      <stop
         id="stop548"
         offset="1"
         style="stop-opacity:1;stop-color:#aaacae" />
    </linearGradient>
    <linearGradient
       id="linearGradient628"
       spreadMethod="pad"
       gradientTransform="matrix(-1.8624104,-3.818506,3.818506,-1.8624104,32.188579,1016.6493)"
       gradientUnits="userSpaceOnUse"
       y2="0"
       x2="1"
       y1="0"
       x1="0">
      <stop
         id="stop630"
         offset="0"
         style="stop-opacity:1;stop-color:#ffffff" />
      <stop
         id="stop632"
         offset="0.26598501"
         style="stop-opacity:1;stop-color:#ffffff" />
      <stop
         id="stop634"
         offset="1"
         style="stop-opacity:1;stop-color:#aaacae" />
    </linearGradient>
  </defs>
  <sodipodi:namedview
     id="base"
     pagecolor="#000000"
     bordercolor="#666666"
     borderopacity="1.0"
     inkscape:pageopacity="0"
     inkscape:pageshadow="2"
     inkscape:zoom="8"
     inkscape:cx="18.521046"
     inkscape:cy="22.695807"
     inkscape:document-units="px"
     inkscape:current-layer="layer1"
     showgrid="false"
     inkscape:window-width="1366"
     inkscape:window-height="716"
     inkscape:window-x="0"
     inkscape:window-y="28"
     inkscape:window-maximized="1" />
  <metadata
     id="metadata1598">
    <rdf:RDF>
      <cc:Work
         rdf:about="">
        <dc:format>image/svg+xml</dc:format>
        <dc:type
           rdf:resource="http://purl.org/dc/dcmitype/StillImage" />
        <dc:title></dc:title>
      </cc:Work>
    </rdf:RDF>
  </metadata>
  <g
     inkscape:label="Capa 1"
     inkscape:groupmode="layer"
     id="layer1"
     transform="translate(0,-1004.3622)">
    <rect
       style="fill:#ffffff;fill-opacity:1;stroke:none"
       id="rect2991-1"
       width="48"
       height="48"
       x="0"
       y="-1052.3622"
       ry="1.9445436"
       transform="scale(1,-1)" />
    <path
       style="fill:url(#linearGradient24);stroke:none"
       d="M 0.4375 0.71875 C 0.16925802 1.0519931 0 1.474478 0 1.9375 L 0 46.0625 C 0 47.139777 0.86022285 48 1.9375 48 L 46.0625 48 C 47.139777 48 48 47.139777 48 46.0625 L 48 1.9375 C 48 1.474478 47.830742 1.0519931 47.5625 0.71875 L 0.4375 0.71875 z "
       transform="translate(0,1004.3622)"
       id="path32" />
    <path
       style="opacity:0.21000701;fill:#292929;fill-opacity:1;fill-rule:nonzero;stroke:none"
       d="M 0.4375 0.71875 C 0.16925802 1.0519931 0 1.474478 0 1.9375 L 0 46.0625 C 0 47.139777 0.86022285 48 1.9375 48 L 46.0625 48 C 47.139777 48 48 47.139777 48 46.0625 L 48 1.9375 C 48 1.474478 47.830742 1.0519931 47.5625 0.71875 L 0.4375 0.71875 z "
       transform="translate(0,1004.3622)"
       id="path92" />
    <path
       style="fill:url(#linearGradient138-2);stroke:none"
       d="M 0.4375 0.71875 C 0.16925802 1.0519931 0 1.474478 0 1.9375 L 0 46.0625 C 0 47.139777 0.86022285 48 1.9375 48 L 46.0625 48 C 47.139777 48 48 47.139777 48 46.0625 L 48 1.9375 C 48 1.474478 47.830742 1.0519931 47.5625 0.71875 L 0.4375 0.71875 z "
       transform="translate(0,1004.3622)"
       id="path146" />
    <path
       style="fill:url(#linearGradient160);stroke:none"
       d="M 23.625 1.375 C 22.37463 1.375 21.232083 1.78065 20.28125 2.46875 L 0.78125 2.46875 C 0.51650644 2.46875 0.24802011 2.5362987 0 2.59375 L 0 44.125 C 0.24788973 44.182381 0.51665772 44.21875 0.78125 44.21875 L 46.5 44.21875 C 47.0463 44.21875 47.539158 44.073795 48 43.84375 L 48 2.84375 C 47.540014 2.6147465 47.044955 2.46875 46.5 2.46875 L 27 2.46875 C 26.049167 1.78065 24.875217 1.375 23.625 1.375 z "
       id="path168"
       transform="translate(0,1004.3622)" />
    <path
       d="m 0.42338864,1045.8942 47.15322236,0 0,-26.2838 -47.15322236,0 L 0.42338864,1045.8942 Z"
       style="fill:url(#linearGradient182);stroke:none"
       id="path190"
       inkscape:connector-curvature="0" />
    <g
       id="g1082">
      <path
         inkscape:connector-curvature="0"
         id="path222"
         style="fill:url(#linearGradient214);stroke:none"
         d="m 19.007523,1011.5674 c 0,2.5553 2.07137,4.6263 4.626772,4.6263 l 0,0 c 2.555249,0 4.626763,-2.071 4.626763,-4.6263 l 0,0 c 0,-2.5554 -2.071514,-4.6272 -4.626763,-4.6272 l 0,0 c -2.555402,0 -4.626772,2.0718 -4.626772,4.6272" />
      <path
         d="m 28.261117,1011.5673 c 0,2.5545 -2.071515,4.6263 -4.626772,4.6263 -2.555394,0 -4.6269,-2.0718 -4.6269,-4.6263 0,-2.5553 2.071506,-4.6271 4.6269,-4.6271 2.555257,0 4.626772,2.0718 4.626772,4.6271"
         style="opacity:0.47000104;fill:#292929;fill-opacity:1;fill-rule:nonzero;stroke:none"
         id="path278"
         inkscape:connector-curvature="0" />
      <path
         d="m 28.261117,1011.5673 c 0,2.5545 -2.071515,4.6263 -4.626772,4.6263 -2.555394,0 -4.6269,-2.0718 -4.6269,-4.6263 0,-2.5553 2.071506,-4.6271 4.6269,-4.6271 C 26.189602,1006.9402 28.261117,1009.012 28.261117,1011.5673 Z"
         style="fill:none;stroke:#858789;stroke-width:0.14236201;stroke-linecap:butt;stroke-linejoin:miter;stroke-miterlimit:10;stroke-opacity:1;stroke-dasharray:none"
         id="path282"
         inkscape:connector-curvature="0" />
      <path
         inkscape:connector-curvature="0"
         id="path384"
         style="fill:url(#linearGradient324);stroke:none"
         d="m 27.887923,1011.5129 c 0,2.3587 -1.91206,4.2711 -4.270861,4.2711 -2.358793,0 -4.270861,-1.9124 -4.270861,-4.2711 0,-2.3586 1.912068,-4.271 4.270861,-4.271 2.358801,0 4.270861,1.9124 4.270861,4.271" />
      <path
         inkscape:connector-curvature="0"
         id="path400"
         style="opacity:0.47000104;fill:#292929;fill-opacity:1;fill-rule:nonzero;stroke:none"
         d="m 27.887971,1011.5129 c 0,2.3587 -1.912213,4.271 -4.270861,4.271 -2.358801,0 -4.270861,-1.9123 -4.270861,-4.271 0,-2.3587 1.91206,-4.271 4.270861,-4.271 2.358648,0 4.270861,1.9123 4.270861,4.271" />
      <path
         d="m 23.59285,1015.6486 c -2.227683,0 -4.040093,-1.8129 -4.040093,-4.0403 0,-2.2273 1.81241,-4.0403 4.040093,-4.0403 2.22782,0 4.040231,1.813 4.040231,4.0403 0,2.2274 -1.812411,4.0403 -4.040231,4.0403"
         style="fill:#f1f2f2;fill-opacity:1;fill-rule:nonzero;stroke:none"
         id="path404"
         inkscape:connector-curvature="0" />
      <path
         d="m 23.59285,1015.6486 c -2.227683,0 -4.040093,-1.8129 -4.040093,-4.0403 0,-2.2273 1.81241,-4.0403 4.040093,-4.0403 2.22782,0 4.040231,1.813 4.040231,4.0403 0,2.2274 -1.812411,4.0403 -4.040231,4.0403"
         style="fill:#000000;fill-opacity:1;fill-rule:nonzero;stroke:none"
         id="path452"
         inkscape:connector-curvature="0" />
      <path
         inkscape:connector-curvature="0"
         id="path474"
         style="fill:url(#linearGradient466);stroke:none"
         d="m 12.548419,1009.6804 c 0,1.1734 0.950834,2.1241 2.123754,2.1241 l 0,0 c 1.172783,0 2.123762,-0.9507 2.123762,-2.1241 l 0,0 c 0,-1.1725 -0.950979,-2.1232 -2.123762,-2.1232 l 0,0 c -1.17292,0 -2.123754,0.9507 -2.123754,2.1232" />
      <path
         d="m 14.672144,1011.4003 c -0.948556,0 -1.720159,-0.771 -1.720159,-1.7199 0,-0.9482 0.771603,-1.7199 1.720159,-1.7199 0.948564,0 1.720167,0.7717 1.720167,1.7199 0,0.9489 -0.771603,1.7199 -1.720167,1.7199"
         style="fill:#c3cdd9;fill-opacity:1;fill-rule:nonzero;stroke:none"
         id="path486"
         inkscape:connector-curvature="0" />
      <path
         d="m 14.672144,1011.4003 c -0.948556,0 -1.720159,-0.771 -1.720159,-1.7199 0,-0.9482 0.771603,-1.7199 1.720159,-1.7199 0.948564,0 1.720167,0.7717 1.720167,1.7199 C 16.392311,1010.6293 15.620708,1011.4003 14.672144,1011.4003 Z"
         style="fill:none;stroke:#858789;stroke-width:0.14236201;stroke-linecap:butt;stroke-linejoin:miter;stroke-miterlimit:10;stroke-opacity:1;stroke-dasharray:none"
         id="path490"
         inkscape:connector-curvature="0" />
      <path
         inkscape:connector-curvature="0"
         id="path512"
         style="fill:url(#linearGradient504);stroke:none"
         d="m 13.841064,1014.7399 c 0,1.1734 0.950979,2.1241 2.123761,2.1241 l 0,0 c 1.172921,0 2.123754,-0.9507 2.123754,-2.1241 l 0,0 c 0,-1.1725 -0.950833,-2.1233 -2.123754,-2.1233 l 0,0 c -1.172782,0 -2.123761,0.9508 -2.123761,2.1233" />
      <path
         d="m 15.964865,1016.4606 c -0.948556,0 -1.720159,-0.7718 -1.720159,-1.7207 0,-0.9482 0.771603,-1.7199 1.720159,-1.7199 0.948556,0 1.720159,0.7717 1.720159,1.7199 0,0.9489 -0.771603,1.7207 -1.720159,1.7207"
         style="fill:#c3cdd9;fill-opacity:1;fill-rule:nonzero;stroke:none"
         id="path524"
         inkscape:connector-curvature="0" />
      <path
         d="m 15.964865,1016.4606 c -0.948556,0 -1.720159,-0.7718 -1.720159,-1.7207 0,-0.9482 0.771603,-1.7199 1.720159,-1.7199 0.948556,0 1.720159,0.7717 1.720159,1.7199 C 17.685024,1015.6888 16.913421,1016.4606 15.964865,1016.4606 Z"
         style="fill:none;stroke:#858789;stroke-width:0.14236201;stroke-linecap:butt;stroke-linejoin:miter;stroke-miterlimit:10;stroke-opacity:1;stroke-dasharray:none"
         id="path528"
         inkscape:connector-curvature="0" />
      <path
         inkscape:connector-curvature="0"
         id="path550"
         style="fill:url(#linearGradient542);stroke:none"
         d="m 30.426384,1009.6804 c 0,1.1734 0.950833,2.1241 2.123616,2.1241 l 0,0 c 1.17292,0 2.123754,-0.9507 2.123754,-2.1241 l 0,0 c 0,-1.1725 -0.950834,-2.1232 -2.123754,-2.1232 l 0,0 c -1.172783,0 -2.123616,0.9507 -2.123616,2.1232" />
      <path
         d="m 32.55004,1011.4003 c 0.948419,0 1.720304,-0.771 1.720304,-1.7199 0,-0.9482 -0.771885,-1.7199 -1.720304,-1.7199 -0.948419,0 -1.720304,0.7717 -1.720304,1.7199 0,0.9489 0.771885,1.7199 1.720304,1.7199"
         style="fill:#c3cdd9;fill-opacity:1;fill-rule:nonzero;stroke:none"
         id="path562"
         inkscape:connector-curvature="0" />
      <path
         d="m 32.55004,1011.4003 c 0.948419,0 1.720304,-0.771 1.720304,-1.7199 0,-0.9482 -0.771885,-1.7199 -1.720304,-1.7199 -0.948419,0 -1.720304,0.7717 -1.720304,1.7199 C 30.829736,1010.6293 31.601621,1011.4003 32.55004,1011.4003 Z"
         style="fill:none;stroke:#858789;stroke-width:0.14236201;stroke-linecap:butt;stroke-linejoin:miter;stroke-miterlimit:10;stroke-opacity:1;stroke-dasharray:none"
         id="path566"
         inkscape:connector-curvature="0" />
      <path
         inkscape:connector-curvature="0"
         id="path582"
         style="opacity:0.41999799;fill:#ffffff;fill-opacity:1;fill-rule:nonzero;stroke:none"
         d="m 32.469552,1010.9172 c 0.770318,0 1.397276,-0.6353 1.397276,-1.4174 0,-0.7815 -0.626958,-1.4168 -1.397276,-1.4168 -0.770326,0 -1.397284,0.6353 -1.397284,1.4168 0,0.7821 0.626958,1.4174 1.397284,1.4174" />
      <path
         inkscape:connector-curvature="0"
         id="path598"
         style="opacity:0.41999799;fill:#ffffff;fill-opacity:1;fill-rule:nonzero;stroke:none"
         d="m 14.567523,1010.9172 c 0.770326,0 1.397284,-0.6353 1.397284,-1.4174 0,-0.7815 -0.626958,-1.4168 -1.397284,-1.4168 -0.770318,0 -1.397284,0.6353 -1.397284,1.4168 0,0.7821 0.626966,1.4174 1.397284,1.4174" />
      <path
         inkscape:connector-curvature="0"
         id="path614"
         style="opacity:0.41999799;fill:#ffffff;fill-opacity:1;fill-rule:nonzero;stroke:none"
         d="m 15.777605,1015.9971 c 0.770318,0 1.397276,-0.6361 1.397276,-1.4174 0,-0.7815 -0.626958,-1.4176 -1.397276,-1.4176 -0.770326,0 -1.397284,0.6361 -1.397284,1.4176 0,0.7813 0.626958,1.4174 1.397284,1.4174" />
      <path
         inkscape:connector-curvature="0"
         id="path636"
         style="fill:url(#linearGradient628);stroke:none"
         d="m 29.133594,1014.7399 c 0,1.1734 0.950833,2.1241 2.123754,2.1241 l 0,0 c 1.17292,0 2.123761,-0.9507 2.123761,-2.1241 l 0,0 c 0,-1.1725 -0.950841,-2.1233 -2.123761,-2.1233 l 0,0 c -1.172921,0 -2.123754,0.9508 -2.123754,2.1233" />
      <path
         d="m 31.257395,1016.4606 c 0.948411,0 1.720159,-0.7718 1.720159,-1.7207 0,-0.9482 -0.771748,-1.7199 -1.720159,-1.7199 -0.948564,0 -1.720304,0.7717 -1.720304,1.7199 0,0.9489 0.77174,1.7207 1.720304,1.7207"
         style="fill:#c3cdd9;fill-opacity:1;fill-rule:nonzero;stroke:none"
         id="path648"
         inkscape:connector-curvature="0" />
      <path
         d="m 31.257395,1016.4606 c 0.948411,0 1.720159,-0.7718 1.720159,-1.7207 0,-0.9482 -0.771748,-1.7199 -1.720159,-1.7199 -0.948564,0 -1.720304,0.7717 -1.720304,1.7199 C 29.537091,1015.6888 30.308831,1016.4606 31.257395,1016.4606 Z"
         style="fill:none;stroke:#858789;stroke-width:0.14236201;stroke-linecap:butt;stroke-linejoin:miter;stroke-miterlimit:10;stroke-opacity:1;stroke-dasharray:none"
         id="path652"
         inkscape:connector-curvature="0" />
      <path
         d="m 21.037981,1010.634 c 0.246991,-0.4629 0.620691,-0.819 1.06216,-1.0526 l -0.170551,-0.5595 c -0.445594,0.2701 -0.826837,0.6589 -1.089639,1.1527 -0.778434,1.461 -0.225075,3.2764 1.235988,4.0547 0.03912,0.023 0.07861,0.038 0.11815,0.06 -1.313576,-0.7778 -1.832624,-2.3854 -1.156124,-3.6551"
         style="fill:#96989b;fill-opacity:1;fill-rule:nonzero;stroke:none"
         id="path656"
         inkscape:connector-curvature="0" />
      <path
         d="m 26.195752,1012.534 c -0.246999,0.4637 -0.620699,0.819 -1.06216,1.0526 l 0.170405,0.5595 c 0.445595,-0.2693 0.826983,-0.6589 1.089785,-1.1519 0.778434,-1.4618 0.225075,-3.2772 -1.235988,-4.0555 -0.03912,-0.023 -0.07873,-0.038 -0.11815,-0.06 1.313432,0.7776 1.832625,2.3852 1.156122,3.6549"
         style="fill:#96989b;fill-opacity:1;fill-rule:nonzero;stroke:none"
         id="path660"
         inkscape:connector-curvature="0" />
      <path
         d="m 23.212133,1009.0551 0.844207,0 -0.422103,-0.7919"
         style="fill:#96989b;fill-opacity:1;fill-rule:nonzero;stroke:none"
         id="path664"
         inkscape:connector-curvature="0" />
      <path
         d="m 23.212133,1014.0665 0.844207,0 -0.422103,0.7919"
         style="fill:#96989b;fill-opacity:1;fill-rule:nonzero;stroke:none"
         id="path668"
         inkscape:connector-curvature="0" />
      <path
         inkscape:connector-curvature="0"
         id="path684"
         style="opacity:0.41999799;fill:#ffffff;fill-opacity:1;fill-rule:nonzero;stroke:none"
         d="m 31.072209,1015.9971 c 0.770464,0 1.397421,-0.6361 1.397421,-1.4174 0,-0.7815 -0.626957,-1.4176 -1.397421,-1.4176 -0.770181,0 -1.397139,0.6361 -1.397139,1.4176 0,0.7813 0.626958,1.4174 1.397139,1.4174" />
      <g
         id="text686"
         style="font-size:1.70834446px;font-variant:normal;font-weight:bold;font-stretch:normal;writing-mode:lr-tb;fill:#606163;fill-opacity:1;fill-rule:nonzero;stroke:none;font-family:Myriad Pro;-inkscape-font-specification:MyriadPro-Bold">
        <path
           id="path1078"
           style=""
           d="m 15.329183,1009.225 -0.804124,0.2769 0.804124,0.2753 0,0.2085 -1.069384,-0.3862 0,-0.1968 1.069384,-0.3862 L 15.329183,1009.225 Z" />
        <path
           id="path1080"
           style=""
           d="m 32.269161,1009.225 0,-0.2085 1.069384,0.3862 0,0.1968 -1.069384,0.3862 0,-0.2085 0.804957,-0.2753 L 32.269161,1009.225 Z" />
      </g>
      <g
         id="text690"
         style="font-size:1.17233694px;font-style:italic;font-variant:normal;font-weight:bold;font-stretch:normal;writing-mode:lr-tb;fill:#606163;fill-opacity:1;fill-rule:nonzero;stroke:none;font-family:Myriad Pro Light;-inkscape-font-specification:MyriadPro-SemiboldIt">
        <path
           id="path1065"
           style=""
           d="m 30.475059,1014.2159 0.594182,0 -0.03263,0.1665 -0.373797,0 -0.03091,0.1592 0.352045,0 -0.0332,0.1665 -0.351472,0 -0.07041,0.3624 -0.220386,0 L 30.475059,1014.2159 Z" />
        <path
           id="path1067"
           style=""
           d="m 31.049508,1014.2159 0.246145,0 0.195771,0.5919 0.115059,-0.5919 0.208364,0 -0.166577,0.8546 -0.246145,0 -0.195771,-0.5919 -0.114486,0.5919 -0.208937,0 L 31.049508,1014.2159 Z" />
        <path
           id="path1069"
           style=""
           d="m 31.91115,1014.9085 0.371507,0 -0.03148,0.162 -0.620514,0 0.03206,-0.1631 0.363493,-0.2742 q 0.05953,-0.046 0.09044,-0.093 0.03148,-0.047 0.03148,-0.091 0,-0.047 -0.03206,-0.073 -0.03206,-0.026 -0.08987,-0.026 -0.05438,0 -0.121355,0.022 -0.06697,0.021 -0.151122,0.066 l 0.03664,-0.1814 q 0.07785,-0.029 0.152839,-0.042 0.07499,-0.014 0.148259,-0.014 0.130514,0 0.205503,0.057 0.07499,0.056 0.07499,0.1534 0,0.084 -0.04579,0.1523 -0.04579,0.069 -0.201496,0.1854 L 31.91115,1014.9085 Z" />
        <path
           id="path1071"
           style=""
           d="m 15.171376,1014.2159 0.594183,0 -0.03263,0.1665 -0.373797,0 -0.03091,0.1592 0.352045,0 -0.0332,0.1665 -0.351472,0 -0.07041,0.3624 -0.220386,0 L 15.171376,1014.2159 Z" />
        <path
           id="path1073"
           style=""
           d="m 15.745816,1014.2159 0.246145,0 0.195771,0.5919 0.115059,-0.5919 0.208364,0 -0.166577,0.8546 -0.246145,0 -0.195771,-0.5919 -0.114486,0.5919 -0.208937,0 L 15.745816,1014.2159 Z" />
        <path
           id="path1075"
           style=""
           d="m 16.398536,1014.9182 0.194626,0 0.107045,-0.5524 -0.207792,0.041 0.02919,-0.1499 0.206647,-0.041 0.209509,0 -0.135666,0.7023 0.193482,0 -0.02919,0.1523 -0.59819,0 L 16.398536,1014.9182 Z" />
      </g>
    </g>
    <path
       inkscape:connector-curvature="0"
       id="path704"
       style="fill:#aaacae;fill-opacity:1;fill-rule:evenodd;stroke:none"
       d="m 20.270564,1047.8162 0.564318,0 c 0.0024,-0.01 -0.004,-0.027 0.0033,-0.029 l 0.08311,0 0,-0.029 0.02774,0 c 0.0024,-0.012 -0.0041,-0.027 0.0033,-0.028 l 0.05197,0 0,-0.06 0.02774,0 c 0.0023,-0.01 -0.0041,-0.027 0.0033,-0.029 l 0.02763,0 0,-0.1419 c 0.0088,0 0.02977,0.014 0.02774,-0.01 l 0,-0.021 c -0.002,-0.01 -0.02618,0 -0.02774,-0.01 l 0,-0.1088 -0.03104,0 0,-0.031 c -0.0086,0 -0.0252,0 -0.02774,0 l 0,-0.055 -0.05537,0 0,-0.057 c -0.0086,0 -0.0252,0 -0.02774,0 l 0,-0.057 c -0.0085,0 -0.02509,0 -0.02774,0 l 0,-0.054 0.02774,0 0,-0.057 0.02774,0 0,-0.06 0.02763,0 c 0.0024,-0.01 -0.004,-0.026 0.0034,-0.028 l 0.02423,0 0,-0.086 0.02774,0 0,-0.088 c -0.0086,0 -0.0252,0 -0.02774,0 l 0,-0.1037 c -0.0085,0 -0.0252,0 -0.02774,0 l 0,-0.029 c -0.0085,0 -0.02504,0 -0.02763,0 l 0,-0.026 c -0.0086,0 -0.0252,0 -0.02774,0 l 0,-0.026 -0.05878,0 0,-0.029 -0.592084,0 L 20.270564,1047.8162 z m -0.05537,-1.3293 0.647461,0 0,0.031 0.08659,0 0,0.026 c 0.0027,0.01 0.01936,0 0.02763,0 l 0,0.028 0.02774,0 0,0.029 0.02774,0 0,0.029 0.03104,0 0,0.057 c 0.0027,0.011 0.01947,0 0.02774,0 l 0,0.083 c 0.0027,0.01 0.01936,0 0.02763,0 l 0,0.1149 -0.02763,0 0,0.1127 -0.02774,0 0,0.031 -0.03104,0 0,0.057 -0.02433,0 c -0.0082,0 -0.0011,0.022 -0.0033,0.029 l -0.02774,0 0,0.054 c 0.0027,0.01 0.01947,0 0.02774,0 l 0,0.029 c 0.0027,0.01 0.01936,0 0.02774,0 l 0,0.029 0.03104,0 0,0.029 0.02774,0 0,0.054 c 0.0027,0.011 0.01936,0 0.02763,0 l 0,0.029 0.02774,0 0,0.1127 c 0.0027,0.01 0.01947,0 0.02774,0 l 0,0.088 -0.02774,0 0,0.1127 -0.02774,0 0,0.059 -0.02404,0 c -0.0083,0 -0.002,0.022 -0.0034,0.029 l -0.02423,0 c -0.0082,0 -0.0011,0.022 -0.0034,0.028 l -0.02763,0 c -0.0082,0 -0.0011,0.022 -0.0033,0.029 l -0.02774,0 0,0.029 -0.02774,0 0,0.028 -0.05196,0 c -0.0081,0 -0.001,0.024 -0.0033,0.031 l -0.08311,0 c -0.0073,0 -0.001,0.022 -0.0033,0.028 l -0.650882,0 0,-1.3849 0.03115,0 L 20.215184,1046.4869 Z" />
    <path
       inkscape:connector-curvature="0"
       id="path708"
       style="fill:#aaacae;fill-opacity:1;fill-rule:evenodd;stroke:none"
       d="m 21.71092,1046.7428 -0.02774,0 0,0.086 -0.02763,0 0,0.06 -0.02774,0 0,0.085 -0.02763,0 0,0.088 -0.02774,0 0,0.057 -0.03115,0 0,0.088 -0.02774,0 0,0.057 -0.02774,0 0,0.086 -0.02763,0 0,0.088 -0.02774,0 0,0.057 -0.02763,0 0,0.088 0.02763,0 c 0.0024,-0.01 -0.004,-0.027 0.0034,-0.028 l 0.588673,0 0,0.028 0.02763,0 0,-0.088 c -0.0085,0 -0.0251,0 -0.02763,0 l 0,-0.083 c -0.0086,0 -0.0252,0 -0.02774,0 l 0,-0.057 c -0.0085,0 -0.0252,0 -0.02763,0 l 0,-0.083 c -0.0086,0 -0.0252,0 -0.02774,0 l 0,-0.085 c -0.0085,0 -0.0252,0 -0.02763,0 l 0,-0.054 c -0.0095,0 -0.02763,0 -0.03133,0 l 0,-0.083 c -0.0085,0 -0.02506,0 -0.02763,0 l 0,-0.086 c -0.0085,0 -0.0252,0 -0.02774,0 l 0,-0.054 c -0.0085,0 -0.02503,0 -0.02774,0 l 0,-0.086 c -0.0084,0 -0.02491,0 -0.02763,0 l 0,-0.054 c -0.0085,0 -0.02502,0 -0.02763,0 l 0,-0.086 -0.03115,0 L 21.71092,1046.7428 z m 0,-0.2559 0.03115,0 0,0.028 c 0.0027,0.01 0.01936,0 0.02763,0 l 0,0.054 c 0.0028,0.011 0.01947,0 0.02763,0 l 0,0.083 c 0.0028,0.011 0.01947,0 0.02774,0 l 0,0.057 c 0.0027,0.01 0.01947,0 0.02774,0 l 0,0.083 c 0.0027,0.01 0.01936,0 0.02763,0 l 0,0.086 c 0.0035,0.011 0.02179,0 0.03133,0 l 0,0.054 c 0.0026,0.01 0.01936,0 0.02763,0 l 0,0.086 c 0.0027,0.012 0.01936,0 0.02774,0 l 0,0.054 c 0.0026,0.01 0.01936,0 0.02763,0 l 0,0.083 c 0.0027,0.011 0.01936,0 0.02774,0 l 0,0.085 c 0.0027,0.01 0.01936,0 0.02763,0 l 0,0.055 c 0.0035,0.01 0.02179,0 0.03133,0 l 0,0.086 c 0.0026,0.01 0.01936,0 0.02763,0 l 0,0.083 c 0.0027,0.01 0.01936,0 0.02763,0 l 0,0.057 c 0.0028,0.014 0.01947,0 0.02774,0 l 0,0.083 c 0.0027,0.01 0.01936,0 0.02763,0 l 0,0.086 c 0.0027,0.01 0.01947,0 0.02774,0 l 0,0.054 c 0.0035,0.012 0.0218,0 0.03115,0 l 0,0.083 c 0.0027,0.01 0.01936,0 0.02763,0 l 0,0.06 -0.08657,0 0,-0.057 c -0.0027,-0.01 -0.01936,0 -0.02763,0 l 0,-0.054 c -0.0027,-0.01 -0.01947,0 -0.02774,0 l 0,-0.083 c -0.0027,-0.01 -0.01936,0 -0.02763,0 l 0,-0.028 c -0.0028,-0.014 -0.01947,0 -0.02763,0 l 0,-0.029 -0.05896,0 0,-0.029 -0.588666,0 c -0.0082,0 -0.0011,0.022 -0.0034,0.029 l -0.05527,0 c -0.0082,0 -0.0011,0.022 -0.0034,0.029 l -0.02763,0 0,0.06 -0.02774,0 0,0.057 -0.02763,0 0,0.088 -0.02774,0 0,0.028 -0.08658,0 0,-0.06 0.02763,0 0,-0.057 0.03133,0 0,-0.086 0.02763,0 0,-0.088 0.02774,0 0,-0.057 0.02763,0 0,-0.088 0.02774,0 0,-0.057 0.02763,0 0,-0.088 0.03115,0 0,-0.086 0.02763,0 0,-0.057 0.02774,0 0,-0.088 0.02763,0 0,-0.085 0.02774,0 0,-0.06 0.02774,0 0,-0.085 0.03115,0 0,-0.088 0.02774,0 0,-0.057 0.02763,0 0,-0.088 0.02774,0 0,-0.086 0.02763,0 0,-0.057 0.02774,0 L 21.71092,1046.4869 Z" />
    <path
       inkscape:connector-curvature="0"
       id="path712"
       style="fill:#aaacae;fill-opacity:1;fill-rule:evenodd;stroke:none"
       d="m 22.389578,1046.4869 0.114158,0 0,0.031 0.08657,0 0,0.026 c 0.0027,0.01 0.01936,0 0.02774,0 l 0,0.028 0.02763,0 0,0.055 c 0.0027,0.01 0.01947,0 0.02774,0 l 0,0.057 c 0.0027,0.01 0.01936,0 0.02763,0 l 0,0.083 c 0.0028,0.01 0.01947,0 0.02774,0 l 0,0.055 c 0.0035,0.011 0.02179,0 0.03115,0 l 0,0.086 c 0.0027,0.01 0.01936,0 0.02774,0 l 0,0.083 c 0.0027,0.01 0.01936,0 0.02763,0 l 0,0.057 c 0.0027,0.01 0.01936,0 0.02774,0 l 0,0.083 c 0.0027,0.01 0.01936,0 0.02763,0 l 0,0.057 c 0.0027,0.01 0.01948,0 0.02774,0 l 0,0.083 c 0.0035,0.011 0.02179,0 0.03115,0 l 0,0.054 c 0.0027,0.01 0.01936,0 0.02763,0 l 0,0.086 c 0.0027,0.01 0.01947,0 0.02774,0 l 0,0.055 c 0.01013,0.01 0.03572,0 0.05196,0 0.0082,0 0.001,-0.022 0.0033,-0.029 l 0.02774,0 0,-0.057 0.03115,0 0,-0.06 0.02763,0 0,-0.057 0.02774,0 0,-0.057 0.02763,0 0,-0.059 0.02774,0 0,-0.057 0.02423,0 c 0.0082,0 0.0011,-0.022 0.0033,-0.028 l 0.02774,0 c 0.0082,0 0.0011,-0.022 0.0033,-0.029 l 0.02433,0 c 0.0081,0 0.001,-0.022 0.0033,-0.028 l 0.02763,0 0,-0.031 0.0797,0 c 0.0084,-0.1527 0.001,-0.3195 0.0033,-0.4778 l 0.03115,0 0,-0.031 0.05537,0 0,0.028 c 0.0027,0.01 0.01947,0 0.02774,0 l 0,1.3574 -0.02774,0 0,0.028 -0.05537,0 0,-0.028 -0.03115,0 0,-0.7893 c -0.01013,-0.01 -0.03572,0 -0.05185,0 -0.0083,0 -0.0011,0.022 -0.0034,0.028 l -0.02774,0 0,0.029 -0.02763,0 0,0.06 -0.02774,0 0,0.057 -0.03115,0 0,0.057 -0.02763,0 0,0.059 -0.02423,0 c -0.0082,0 -0.0011,0.022 -0.0034,0.029 l -0.02763,0 0,0.057 -0.02774,0 0,0.057 -0.02763,0 0,0.031 -0.02774,0 c -0.0082,0 -10e-4,0.022 -0.0033,0.028 l -0.110918,0 0,-0.026 c -0.0027,-0.01 -0.01936,0 -0.02763,0 l 0,-0.031 -0.03115,0 0,-0.083 c -0.0027,-0.014 -0.01947,0 -0.02774,0 l 0,-0.054 c -0.0027,-0.01 -0.01936,0 -0.02763,0 l 0,-0.085 c -0.0028,-0.01 -0.01947,0 -0.02774,0 l 0,-0.083 c -0.0027,-0.01 -0.01936,0 -0.02763,0 l 0,-0.057 c -0.0028,-0.012 -0.01947,0 -0.02774,0 l 0,-0.083 c -0.0035,-0.014 -0.02179,0 -0.03115,0 l 0,-0.057 c -0.0027,-0.011 -0.01936,0 -0.02774,0 l 0,-0.083 c -0.0027,-0.014 -0.01936,0 -0.02763,0 l 0,-0.054 c -0.0027,-0.01 -0.01936,0 -0.02774,0 l 0,-0.086 c -0.0026,-0.011 -0.01936,0 -0.02763,0 l 0,-0.054 c -0.0027,-0.01 -0.01936,0 -0.02774,0 l 0,-0.086 c -0.0035,-0.01 -0.02161,0 -0.03115,0 l 0,-0.029 -0.05537,0 0,-0.029 c -0.01284,0 -0.01791,0 -0.02423,0 -0.01257,0.012 -0.0033,0.1242 -0.0033,0.1629 l 0,1.1391 -0.02763,0 0,0.028 -0.05897,0 L 22.389578,1046.4869 Z" />
    <path
       inkscape:connector-curvature="0"
       id="path716"
       style="fill:#aaacae;fill-opacity:1;fill-rule:evenodd;stroke:none"
       d="m 23.778036,1047.8162 0.592081,0 c 0.0023,-0.01 -0.0041,-0.027 0.0033,-0.029 l 0.05197,0 c 0.0024,-0.01 -0.004,-0.027 0.0033,-0.029 l 0.05537,0 0,-0.028 0.02774,0 c 0.0023,-0.013 -0.0041,-0.027 0.0033,-0.029 l 0.02422,0 0,-0.059 0.02774,0 0,-0.085 0.02763,0 0,-0.1421 c -0.0084,0 -0.0251,0 -0.02763,0 l 0,-0.054 c -0.0085,0 -0.02509,0 -0.02774,0 l 0,-0.057 -0.02763,0 0,-0.029 c -0.0085,0 -0.0252,0 -0.02774,0 l 0,-0.026 -0.02763,0 0,-0.029 c -0.0094,0 -0.02745,0 -0.03115,0 l 0,-0.1661 0.03115,0 c 0.0024,-0.014 -0.0041,-0.027 0.0033,-0.028 l 0.02423,0 0,-0.06 0.02774,0 0,-0.057 0.02763,0 0,-0.142 c -0.0085,0 -0.02503,0 -0.02763,0 l 0,-0.083 c -0.0085,0 -0.0252,0 -0.02774,0 l 0,-0.029 c -0.0085,0 -0.02504,0 -0.02763,0 l 0,-0.026 -0.03115,0 0,-0.029 -0.05537,0 0,-0.029 -0.592084,0 L 23.778036,1047.8162 z m -0.05897,-1.3293 0.651023,0 0,0.031 0.08659,0 0,0.026 c 0.0027,0.01 0.01936,0 0.02763,0 l 0,0.028 0.02774,0 0,0.026 c 0.0027,0.01 0.01936,0 0.02763,0 l 0,0.029 0.02774,0 0,0.028 0.02763,0 0,0.086 c 0.0036,0.01 0.0219,0 0.03115,0 l 0,0.1696 -0.03115,0 0,0.085 -0.02763,0 0,0.031 -0.02774,0 0,0.057 -0.02763,0 0,0.1127 c 0.0027,0.011 0.01936,0 0.02763,0 l 0,0.029 0.02774,0 0,0.026 c 0.0027,0.01 0.01947,0 0.02763,0 l 0,0.028 0.03115,0 0,0.055 c 0.0027,0.01 0.01947,10e-4 0.02774,0 l 0,0.086 c 0.0027,0.014 0.01947,0 0.02774,0 l 0,0.1421 -0.02774,0 0,0.085 -0.02774,0 0,0.059 -0.03115,0 0,0.057 -0.02423,0 c -0.0082,0 -0.001,0.022 -0.0033,0.029 l -0.02774,0 0,0.029 -0.05196,0 c -0.0081,0 -10e-4,0.022 -0.0033,0.028 l -0.02763,0 0,0.031 -0.110918,0 c -0.0081,0 -10e-4,0.022 -0.0033,0.028 l -0.623261,0 0,-0.026 c -0.0027,-0.01 -0.01936,0 -0.02763,0 l 0,-1.3572 0.02763,0 L 23.719094,1046.4869 Z" />
    <path
       inkscape:connector-curvature="0"
       id="path720"
       style="fill:#aaacae;fill-opacity:1;fill-rule:evenodd;stroke:none"
       d="m 25.242594,1046.5733 -0.10734,0 c -0.0024,0.01 0.0041,0.027 -0.0033,0.029 l -0.02774,0 c -0.0024,0.01 0.0041,0.027 -0.0033,0.029 l -0.05196,0 0,0.028 -0.02774,0 0,0.031 -0.02763,0 0,0.057 -0.02774,0 c -0.0023,0.011 0.0041,0.027 -0.0033,0.029 l -0.02774,0 0,0.088 -0.02763,0 0,0.085 -0.02774,0 0,0.5092 c 0.0085,0 0.0252,0 0.02774,0 l 0,0.1126 c 0.0085,0 0.0251,0 0.02763,0 l 0,0.054 c 0.0094,0 0.02745,0 0.03115,0 l 0,0.054 c 0.0086,0 0.02502,0 0.02774,0 l 0,0.029 c 0.0085,0 0.02502,0 0.02763,0 l 0,0.026 c 0.0086,0 0.0252,0 0.02774,0 l 0,0.026 c 0.0085,0 0.02503,0 0.02774,0 l 0,0.026 c 0.0085,0 0.02502,0 0.02763,0 l 0,0.026 0.08657,0 0,0.028 0.284013,0 c 0.0024,-0.01 -0.0041,-0.027 0.0033,-0.028 l 0.05196,0 c 0.0023,-0.014 -0.0041,-0.027 0.0033,-0.029 l 0.05183,0 0,-0.029 0.02774,0 c 0.0024,-0.014 -0.0041,-0.027 0.0034,-0.028 l 0.02763,0 0,-0.029 0.02774,0 0,-0.031 0.02763,0 0,-0.057 0.02763,0 0,-0.057 0.02793,0 0,-0.1158 0.02763,0 0,-0.4811 c -0.0086,0 -0.0252,0 -0.02763,0 l 0,-0.1038 c -0.0086,0 -0.0252,0 -0.02793,0 l 0,-0.057 c -0.0084,0 -0.02491,0 -0.02763,0 l 0,-0.054 c -0.0085,0 -0.02503,0 -0.02763,0 l 0,-0.054 c -0.0085,0 -0.02502,0 -0.02774,0 l 0,-0.029 -0.03115,0 0,-0.028 -0.05537,0 0,-0.029 -0.05537,0 0,-0.029 -0.114332,0 0,-0.028 -0.141934,0 c -0.0023,0.01 0.0041,0.026 -0.0033,0.028 m -0.0796,-0.088 0.33925,0 0,0.031 0.08301,0 0,0.026 c 0.0028,0.01 0.01947,0 0.02774,0 l 0,0.028 0.03115,0 0,0.029 0.05537,0 0,0.054 c 0.0028,0.01 0.01947,0 0.02763,0 l 0,0.029 c 0.0028,0.01 0.01947,0 0.02793,0 l 0,0.028 0.02763,0 0,0.054 c 0.0034,0.014 0.02161,0 0.03115,0 l 0,0.085 c 0.0027,0.01 0.01936,0 0.02774,0 l 0,0.1037 c 0.0027,0.01 0.01936,0 0.02763,0 l 0,0.4535 -0.02763,0 0,0.1158 -0.02774,0 0,0.085 -0.03115,0 0,0.057 -0.02763,0 0,0.06 -0.02423,0 c -0.0083,0 -0.0011,0.022 -0.0035,0.028 l -0.02763,0 0,0.029 -0.02763,0 0,0.029 -0.02774,0 0,0.028 -0.03115,0 0,0.031 -0.05197,0 c -0.0081,0 -10e-4,0.022 -0.0033,0.029 l -0.110744,0 c -0.0082,0 -10e-4,0.022 -0.0033,0.029 l -0.252834,0 0,-0.029 -0.08657,0 0,-0.029 -0.05537,0 0,-0.028 c -0.0027,-0.01 -0.01936,0 -0.02774,0 l 0,-0.028 -0.02763,0 0,-0.029 -0.02774,0 0,-0.029 -0.03115,0 0,-0.028 -0.02763,0 0,-0.057 c -0.0027,-0.012 -0.01947,0 -0.02774,0 l 0,-0.054 c -0.0027,-0.014 -0.01936,0 -0.02763,0 l 0,-0.054 c -0.0028,-0.01 -0.01947,0 -0.02774,0 l 0,-0.1128 c -0.0027,-0.011 -0.01947,0 -0.02763,0 l 0,-0.4814 0.02763,0 0,-0.1126 0.02774,0 0,-0.088 0.02763,0 0,-0.057 0.02423,0 c 0.0082,0 0.0011,-0.022 0.0034,-0.028 l 0.02763,0 0,-0.06 0.02774,0 c 0.0082,0 0.0011,-0.022 0.0033,-0.029 l 0.02774,0 0,-0.029 0.05196,0 c 0.0073,0 0.001,-0.022 0.0033,-0.028 l 0.02774,0 0,-0.029 0.08311,0 c 0.0082,0 0.001,-0.024 0.0033,-0.031" />
    <path
       inkscape:connector-curvature="0"
       id="path724"
       style="fill:#aaacae;fill-opacity:1;fill-rule:evenodd;stroke:none"
       d="m 26.457952,1046.5733 -0.10734,0 c -0.0024,0.01 0.004,0.027 -0.0034,0.029 l -0.05537,0 0,0.029 -0.02763,0 c -0.0024,0.012 0.004,0.027 -0.0034,0.028 l -0.02423,0 0,0.031 -0.02774,0 c -0.0024,0.014 0.0041,0.026 -0.0032,0.028 l -0.02433,0 0,0.057 -0.02774,0 0,0.057 -0.03104,0 0,0.1149 -0.02792,0 0,0.5371 c 0.0086,0 0.0252,0 0.02792,0 l 0,0.086 c 0.0094,0 0.02734,0 0.03104,0 l 0,0.054 c 0.0086,0 0.0252,0 0.02774,0 l 0,0.054 c 0.0085,0 0.02503,0 0.02763,0 l 0,0.057 0.02774,0 0,0.028 0.05537,0 0,0.029 0.03115,0 0,0.029 0.08311,0 0,0.028 0.284012,0 c 0.0024,-0.01 -0.0041,-0.027 0.0033,-0.028 l 0.05197,0 c 0.0023,-0.01 -0.0041,-0.027 0.0033,-0.029 l 0.05184,0 c 0.0025,-0.01 -0.004,-0.027 0.0034,-0.029 l 0.02774,0 0,-0.028 0.02745,0 0,-0.029 0.02792,0 0,-0.031 0.02763,0 0,-0.057 0.02763,0 0,-0.085 0.02793,0 0,-0.1159 0.03104,0 0,-0.4535 c -0.0092,0 -0.02745,0 -0.03104,0 l 0,-0.1037 c -0.0086,0 -0.0252,0 -0.02793,0 l 0,-0.057 c -0.0084,0 -0.02491,0 -0.02763,0 l 0,-0.054 -0.02763,0 0,-0.029 c -0.0085,0 -0.02508,0 -0.02792,0 l 0,-0.057 -0.02745,0 0,-0.028 -0.05897,0 0,-0.029 -0.05537,0 0,-0.029 -0.114332,0 0,-0.028 -0.142076,0 c -0.0023,0.01 0.0042,0.026 -0.0032,0.028 m -0.07989,-0.088 0.339534,0 0,0.031 0.08301,0 0,0.029 0.03133,0 0,0.026 c 0.0027,0.01 0.01937,0 0.02745,0 l 0,0.026 c 0.0029,0.014 0.01965,0 0.02792,0 l 0,0.029 0.02763,0 0,0.026 c 0.0028,0.01 0.01947,0 0.02763,0 l 0,0.029 c 0.0028,0.01 0.01947,0 0.02793,0 l 0,0.028 0.03104,0 0,0.082 c 0.0027,0.011 0.01936,0 0.02774,0 l 0,0.086 c 0.0027,0.01 0.01936,0 0.02763,0 l 0,0.1037 c 0.0028,0.011 0.01947,0 0.02774,0 l 0,0.426 -0.02774,0 0,0.1159 -0.02763,0 0,0.085 -0.02774,0 0,0.057 -0.03104,0 0,0.06 -0.02423,0 c -0.0083,0 -0.0011,0.022 -0.0035,0.028 l -0.02763,0 0,0.029 -0.02423,0 c -0.0083,0 -0.0011,0.022 -0.0033,0.029 l -0.02792,0 0,0.028 -0.05527,0 c -0.0083,0 -0.001,0.024 -0.0034,0.031 l -0.05185,0 c -0.0082,0 -0.0011,0.022 -0.0033,0.029 l -0.07989,0 c -0.0073,0 -10e-4,0.022 -0.0032,0.029 l -0.256253,0 0,-0.029 -0.08311,0 0,-0.029 -0.05878,0 0,-0.028 c -0.0027,-0.014 -0.01936,0 -0.02774,0 l 0,-0.028 -0.02774,0 0,-0.029 -0.05537,0 0,-0.055 c -0.0035,-0.01 -0.02161,0 -0.03104,0 l 0,-0.029 -0.02792,0 0,-0.057 c -0.0026,-0.01 -0.01922,0 -0.02763,0 l 0,-0.083 c -0.0027,-0.01 -0.01936,0 -0.02763,0 l 0,-0.1128 c -0.0028,-0.012 -0.01947,0 -0.02793,0 l 0,-0.509 0.02793,0 0,-0.085 0.02763,0 0,-0.088 0.02763,0 0,-0.057 0.02792,0 0,-0.06 0.02763,0 c 0.0082,0 0.001,-0.022 0.0033,-0.028 l 0.02774,0 0,-0.029 0.02763,0 0,-0.029 0.05196,0 c 0.0082,0 0.0011,-0.022 0.0034,-0.028 l 0.02763,0 0,-0.029 0.08311,0 c 0.0083,0 0.001,-0.024 0.0032,-0.031" />
    <path
       inkscape:connector-curvature="0"
       style="opacity:0.15;fill:#ffffff;fill-opacity:1;stroke:none"
       d="m 0,1004.3622 0,48 16.78125,0 12.84375,-48 L 0,1004.3622 Z"
       id="rect3790" />
    <g
       transform="translate(-384.57143,504.56421)"
       id="g1395">
      <path
         id="rect846"
         d="m 384.57143,544.79799 0,1.0625 c 0,1.0773 0.86022,1.9375 1.9375,1.9375 l 44.125,0 c 1.07728,0 1.9375,-0.8602 1.9375,-1.9375 l 0,-1.0625 c 0,1.0773 -0.86022,1.9375 -1.9375,1.9375 l -44.125,0 C 385.43165,546.73549 384.57143,545.87529 384.57143,544.79799 Z"
         style="fill:#000000;fill-opacity:1;stroke:none"
         inkscape:connector-curvature="0" />
      <path
         id="path7515"
         d="m 387.10268,500.45429 c -0.91709,0 -1.67115,0.6395 -1.84375,1.5 0.33561,-0.2799 0.77451,-0.4375 1.25,-0.4375 l 44.125,0 c 0.47549,0 0.91439,0.1576 1.25,0.4375 -0.1726,-0.8605 -0.92666,-1.5 -1.84375,-1.5 L 387.10268,500.45429 Z"
         style="fill:#ffffff;fill-opacity:0.5372549;stroke:none"
         inkscape:connector-curvature="0" />
      <path
         id="rect4280-3"
         d="m 386.50893,499.79799 c -1.07728,0 -1.9375,0.8602 -1.9375,1.9375 l 0,43.0625 c 0,0.7934 0.48002,1.449 1.15625,1.75 -0.30934,-0.3333 -0.5,-0.7824 -0.5,-1.2812 l 0,-42.9375 c 0,-1.0482 0.8269,-1.875 1.875,-1.875 l 42.9375,0 c 1.0481,0 1.875,0.8268 1.875,1.875 l 0,42.9375 c 0,0.4988 -0.19066,0.9479 -0.5,1.2812 0.67623,-0.301 1.15625,-0.9566 1.15625,-1.75 l 0,-43.0625 c 0,-1.0773 -0.86022,-1.9375 -1.9375,-1.9375 L 386.50893,499.79799 Z"
         style="fill:#000000;fill-opacity:0.39215686;stroke:none"
         inkscape:connector-curvature="0" />
    </g>
  </g>
</svg>
