<?xml version="1.0" encoding="UTF-8" standalone="no"?>
<!-- Created with Inkscape (http://www.inkscape.org/) -->

<svg
   xmlns:dc="http://purl.org/dc/elements/1.1/"
   xmlns:cc="http://creativecommons.org/ns#"
   xmlns:rdf="http://www.w3.org/1999/02/22-rdf-syntax-ns#"
   xmlns:svg="http://www.w3.org/2000/svg"
   xmlns="http://www.w3.org/2000/svg"
   xmlns:xlink="http://www.w3.org/1999/xlink"
   xmlns:sodipodi="http://sodipodi.sourceforge.net/DTD/sodipodi-0.dtd"
   xmlns:inkscape="http://www.inkscape.org/namespaces/inkscape"
   width="48px"
   height="48px"
   id="svg4141"
   version="1.1"
   inkscape:version="0.48+devel r12012"
   sodipodi:docname="media-optical.svg">
  <defs
     id="defs4143">
    <style
       id="style2464"
       type="text/css" />
    <linearGradient
       id="linearGradient3883">
      <stop
         style="stop-color:#ff00b7;stop-opacity:0.18085106;"
         offset="0"
         id="stop3885" />
      <stop
         style="stop-color:#999999;stop-opacity:0;"
         offset="1"
         id="stop3887" />
    </linearGradient>
    <linearGradient
       id="linearGradient3789">
      <stop
         style="stop-color:#ff0013;stop-opacity:0.18085106;"
         offset="0"
         id="stop3791" />
      <stop
         style="stop-color:#ffffff;stop-opacity:0"
         offset="1"
         id="stop3793" />
    </linearGradient>
    <linearGradient
       id="linearGradient3802">
      <stop
         id="stop3804"
         offset="0"
         style="stop-color:#ffc300;stop-opacity:0.18039216;" />
      <stop
         id="stop3806"
         offset="1"
         style="stop-color:#ffffff;stop-opacity:0" />
    </linearGradient>
    <linearGradient
       id="linearGradient3823">
      <stop
         style="stop-color:#4d9600;stop-opacity:0.18039216;"
         offset="0"
         id="stop3825" />
      <stop
         style="stop-color:#ffffff;stop-opacity:0"
         offset="1"
         id="stop3827" />
    </linearGradient>
    <linearGradient
       id="linearGradient3877">
      <stop
         style="stop-color:#00dfff;stop-opacity:0.18039216;"
         offset="0"
         id="stop3879" />
      <stop
         style="stop-color:#ffffff;stop-opacity:0"
         offset="1"
         id="stop3881" />
    </linearGradient>
    <linearGradient
       id="linearGradient3981">
      <stop
         id="stop3983"
         offset="0"
         style="stop-color:#9a9a9a;stop-opacity:0.18039216;" />
      <stop
         id="stop3985"
         offset="1"
         style="stop-color:#ffffff;stop-opacity:0" />
    </linearGradient>
    <linearGradient
       id="linearGradient3993">
      <stop
         style="stop-color:#000000;stop-opacity:0.43617022;"
         offset="0"
         id="stop3995" />
      <stop
         style="stop-color:#ffffff;stop-opacity:0"
         offset="1"
         id="stop3997" />
    </linearGradient>
    <linearGradient
       id="linearGradient4009">
      <stop
         style="stop-color:#9a9a9a;stop-opacity:0.64361703;"
         offset="0"
         id="stop4011" />
      <stop
         style="stop-color:#ffffff;stop-opacity:0"
         offset="1"
         id="stop4013" />
    </linearGradient>
    <linearGradient
       id="linearGradient3763-7">
      <stop
         id="stop3765-7"
         offset="0"
         style="stop-color:#ffffff;stop-opacity:1;" />
      <stop
         id="stop3767-6"
         offset="1"
         style="stop-color:#c1c1c1;stop-opacity:1;" />
    </linearGradient>
    <radialGradient
       inkscape:collect="always"
       xlink:href="#linearGradient3763-7"
       id="radialGradient3813"
       gradientUnits="userSpaceOnUse"
       gradientTransform="matrix(2.1778136,0,0,1.4276559,-25.584147,-12.730943)"
       cx="22.767857"
       cy="26.303572"
       fx="22.767857"
       fy="26.303572"
       r="20.267857" />
    <linearGradient
       inkscape:collect="always"
       xlink:href="#linearGradient3883"
       id="linearGradient3815"
       gradientUnits="userSpaceOnUse"
       gradientTransform="matrix(-0.29408212,-0.97358563,0.97358563,-0.29408212,10.713751,1065.0624)"
       x1="14.889573"
       y1="31.294256"
       x2="15.601078"
       y2="18.919888" />
    <linearGradient
       inkscape:collect="always"
       xlink:href="#linearGradient3789"
       id="linearGradient3817"
       gradientUnits="userSpaceOnUse"
       gradientTransform="matrix(-0.67794346,-0.75812001,0.75812001,-0.67794346,25.979387,1068.344)"
       x1="14.889573"
       y1="31.294256"
       x2="15.601078"
       y2="18.919888" />
    <linearGradient
       inkscape:collect="always"
       xlink:href="#linearGradient3802"
       id="linearGradient3819"
       gradientUnits="userSpaceOnUse"
       gradientTransform="matrix(-0.67794346,-0.75812001,0.75812001,-0.67794346,-735.44769,1749.2449)"
       x1="8.837532"
       y1="1029.6663"
       x2="19.113844"
       y2="1029.6663" />
    <linearGradient
       inkscape:collect="always"
       xlink:href="#linearGradient3823"
       id="linearGradient3821"
       gradientUnits="userSpaceOnUse"
       gradientTransform="matrix(-0.67794346,-0.75812001,0.75812001,-0.67794346,-735.44769,1749.2449)"
       x1="8.8624401"
       y1="1028.451"
       x2="19.059441"
       y2="1028.451" />
    <linearGradient
       inkscape:collect="always"
       xlink:href="#linearGradient3802"
       id="linearGradient3824"
       gradientUnits="userSpaceOnUse"
       gradientTransform="matrix(-0.67794346,-0.75812001,0.75812001,-0.67794346,-735.44769,1749.2449)"
       x1="8.8729076"
       y1="1027.5348"
       x2="19.17152"
       y2="1027.5348" />
    <linearGradient
       inkscape:collect="always"
       xlink:href="#linearGradient3877"
       id="linearGradient3826"
       gradientUnits="userSpaceOnUse"
       gradientTransform="matrix(-0.67794346,-0.75812001,0.75812001,-0.67794346,-735.44769,1749.2449)"
       x1="8.8799152"
       y1="1027.0327"
       x2="19.235598"
       y2="1027.0327" />
    <linearGradient
       inkscape:collect="always"
       xlink:href="#linearGradient3877"
       id="linearGradient3828"
       gradientUnits="userSpaceOnUse"
       gradientTransform="matrix(-0.67794346,-0.75812001,0.75812001,-0.67794346,-735.15554,1749.537)"
       x1="8.8905392"
       y1="1026.2065"
       x2="19.3482"
       y2="1026.2065" />
    <linearGradient
       inkscape:collect="always"
       xlink:href="#linearGradient3981"
       id="linearGradient3830"
       gradientUnits="userSpaceOnUse"
       gradientTransform="matrix(-0.55682302,0.85105899,-0.85105899,-0.55682302,915.58397,1583.6819)"
       x1="8.8905392"
       y1="1026.2065"
       x2="19.3482"
       y2="1026.2065" />
    <linearGradient
       inkscape:collect="always"
       xlink:href="#linearGradient3883"
       id="linearGradient3832"
       gradientUnits="userSpaceOnUse"
       gradientTransform="matrix(0.29408212,0.97358563,-0.97358563,0.29408212,42.322649,1000.5363)"
       x1="14.889573"
       y1="31.294256"
       x2="15.601078"
       y2="18.919888" />
    <linearGradient
       inkscape:collect="always"
       xlink:href="#linearGradient3789"
       id="linearGradient3834"
       gradientUnits="userSpaceOnUse"
       gradientTransform="matrix(0.67794346,0.75812001,-0.75812001,0.67794346,26.989594,997.0523)"
       x1="14.889573"
       y1="31.294256"
       x2="15.601078"
       y2="18.919888" />
    <linearGradient
       inkscape:collect="always"
       xlink:href="#linearGradient3802"
       id="linearGradient3836"
       gradientUnits="userSpaceOnUse"
       gradientTransform="matrix(0.67794346,0.75812001,-0.75812001,0.67794346,788.41667,316.15151)"
       x1="8.837532"
       y1="1029.6663"
       x2="19.113844"
       y2="1029.6663" />
    <linearGradient
       inkscape:collect="always"
       xlink:href="#linearGradient3823"
       id="linearGradient3838"
       gradientUnits="userSpaceOnUse"
       gradientTransform="matrix(0.67794346,0.75812001,-0.75812001,0.67794346,788.41667,316.15151)"
       x1="8.8624401"
       y1="1028.451"
       x2="19.059441"
       y2="1028.451" />
    <linearGradient
       inkscape:collect="always"
       xlink:href="#linearGradient3802"
       id="linearGradient3840"
       gradientUnits="userSpaceOnUse"
       gradientTransform="matrix(0.67794346,0.75812001,-0.75812001,0.67794346,788.41667,316.15151)"
       x1="8.8729076"
       y1="1027.5348"
       x2="19.17152"
       y2="1027.5348" />
    <linearGradient
       inkscape:collect="always"
       xlink:href="#linearGradient3877"
       id="linearGradient3842"
       gradientUnits="userSpaceOnUse"
       gradientTransform="matrix(0.67794346,0.75812001,-0.75812001,0.67794346,788.41667,316.15151)"
       x1="8.8799152"
       y1="1027.0327"
       x2="19.235598"
       y2="1027.0327" />
    <linearGradient
       inkscape:collect="always"
       xlink:href="#linearGradient3877"
       id="linearGradient3844"
       gradientUnits="userSpaceOnUse"
       gradientTransform="matrix(0.67794346,0.75812001,-0.75812001,0.67794346,788.41667,316.15151)"
       x1="8.8905392"
       y1="1026.2065"
       x2="19.3482"
       y2="1026.2065" />
    <linearGradient
       inkscape:collect="always"
       xlink:href="#linearGradient3993"
       id="linearGradient3846"
       gradientUnits="userSpaceOnUse"
       gradientTransform="matrix(0.49583409,-0.88797626,0.88797626,0.49583409,-899.06057,546.33514)"
       x1="8.8905392"
       y1="1026.2065"
       x2="19.3482"
       y2="1026.2065" />
    <linearGradient
       inkscape:collect="always"
       xlink:href="#linearGradient3993"
       id="linearGradient3848"
       gradientUnits="userSpaceOnUse"
       gradientTransform="matrix(0.58974519,-0.82858548,0.82858548,0.58974519,-840.51965,448.28576)"
       x1="8.8905392"
       y1="1026.2065"
       x2="19.3482"
       y2="1026.2065" />
    <linearGradient
       inkscape:collect="always"
       xlink:href="#linearGradient4009"
       id="linearGradient3850"
       gradientUnits="userSpaceOnUse"
       gradientTransform="matrix(0.72722764,-0.71098048,0.71098048,0.72722764,-723.18298,303.80541)"
       x1="8.8905392"
       y1="1026.2065"
       x2="19.3482"
       y2="1026.2065" />
  </defs>
  <sodipodi:namedview
     id="base"
     pagecolor="#ffffff"
     bordercolor="#666666"
     borderopacity="1.0"
     inkscape:pageopacity="0.0"
     inkscape:pageshadow="2"
     inkscape:zoom="7"
     inkscape:cx="-46.407854"
     inkscape:cy="32.261161"
     inkscape:current-layer="g4079"
     showgrid="true"
     inkscape:grid-bbox="true"
     inkscape:document-units="px"
     inkscape:window-width="1366"
     inkscape:window-height="718"
     inkscape:window-x="0"
     inkscape:window-y="28"
     inkscape:window-maximized="1" />
  <metadata
     id="metadata4146">
    <rdf:RDF>
      <cc:Work
         rdf:about="">
        <dc:format>image/svg+xml</dc:format>
        <dc:type
           rdf:resource="http://purl.org/dc/dcmitype/StillImage" />
        <dc:title />
      </cc:Work>
    </rdf:RDF>
  </metadata>
  <g
     id="layer1"
     inkscape:label="Layer 1"
     inkscape:groupmode="layer">
    <g
       id="g4079"
       transform="matrix(1.2902545,0,0,1.2902545,-10.176612,-1307.9718)">
      <g
         id="g1095">
        <rect
           y="1014.3683"
           x="7.8872905"
           height="37.201962"
           width="37.201962"
           id="rect3332"
           style="fill:none;stroke:none" />
        <path
           id="path2985"
           transform="matrix(0.77504089,0,0,0.77504089,7.8872905,1013.7316)"
           d="m 24,2.59375 c -12.26881,0 -22.21875,9.94994 -22.21875,22.21875 0,12.26881 9.94994,22.21875 22.21875,22.21875 12.26881,0 22.21875,-9.94994 22.21875,-22.21875 C 46.21875,12.54369 36.26881,2.59375 24,2.59375 z M 24.03125,19.625 c 2.889149,0 5.25,2.360851 5.25,5.25 0,2.889149 -2.360851,5.21875 -5.25,5.21875 -2.889149,0 -5.21875,-2.329601 -5.21875,-5.21875 0,-2.889149 2.329601,-5.25 5.21875,-5.25 z"
           style="fill:url(#radialGradient3813);fill-opacity:1;stroke:none"
           inkscape:connector-curvature="0" />
        <path
           sodipodi:type="arc"
           style="fill:none;stroke:#999999;stroke-width:1.60000002;stroke-miterlimit:4;stroke-opacity:1;stroke-dasharray:none"
           id="path3771"
           sodipodi:cx="25.669643"
           sodipodi:cy="27.0625"
           sodipodi:rx="7.5446429"
           sodipodi:ry="7.5446429"
           d="m 33.214286,27.0625 c 0,4.166791 -3.377851,7.544643 -7.544643,7.544643 -4.166791,0 -7.544643,-3.377852 -7.544643,-7.544643 0,-4.166791 3.377852,-7.544643 7.544643,-7.544643 C 29.836435,19.517857 33.214286,22.895709 33.214286,27.0625 Z"
           transform="matrix(0.84776161,0,0,0.84776161,4.7556374,1010.0617)" />
        <path
           transform="matrix(0.53739406,0,0,0.53739406,12.722661,1018.4611)"
           d="m 33.214286,27.0625 c 0,4.166791 -3.377851,7.544643 -7.544643,7.544643 -4.166791,0 -7.544643,-3.377852 -7.544643,-7.544643 0,-4.166791 3.377852,-7.544643 7.544643,-7.544643 C 29.836435,19.517857 33.214286,22.895709 33.214286,27.0625 Z"
           sodipodi:ry="7.5446429"
           sodipodi:rx="7.5446429"
           sodipodi:cy="27.0625"
           sodipodi:cx="25.669643"
           id="path3773"
           style="fill:none;stroke:#999999;stroke-width:1.67762256;stroke-miterlimit:4;stroke-opacity:1;stroke-dasharray:none"
           sodipodi:type="arc" />
        <path
           sodipodi:nodetypes="ccccc"
           inkscape:connector-curvature="0"
           id="path3990"
           d="m 30.61994,1038.6369 5.334611,8.634 c -1.679741,1.1448 -3.283554,1.7929 -5.283732,2.3061 l -2.944941,-9.7497 c 1.16815,-0.2359 2.105386,-0.6766 2.894062,-1.1904 z"
           style="fill:url(#linearGradient3815);fill-opacity:1;stroke:none" />
        <path
           style="fill:url(#linearGradient3817);fill-opacity:1;stroke:none"
           d="m 32.854446,1035.982 8.483441,5.571 c -1.038733,1.7474 -2.218442,3.0123 -3.814295,4.3229 l -6.789092,-7.5921 c 0.958919,-0.7072 1.62227,-1.5028 2.119946,-2.3018 z"
           id="path3992"
           inkscape:connector-curvature="0"
           sodipodi:nodetypes="ccccc" />
        <path
           sodipodi:nodetypes="ccccc"
           inkscape:connector-curvature="0"
           id="path3994"
           d="m 32.61697,1036.3302 8.314501,5.8201 c -1.089978,1.7158 -2.306726,2.9453 -3.94067,4.2078 l -6.561025,-7.7899 c 0.979522,-0.6786 1.666053,-1.4542 2.187164,-2.238 z"
           style="fill:url(#linearGradient3819);fill-opacity:1;stroke:none" />
        <path
           style="fill:url(#linearGradient3821);fill-opacity:1;stroke:none"
           d="m 32.398224,1036.6695 7.798086,6.4957 c -1.229691,1.6185 -2.545049,2.7418 -4.279007,3.8632 l -5.886045,-8.3117 c 1.033013,-0.5944 1.782076,-1.3098 2.366966,-2.0472 z"
           id="path3996"
           inkscape:connector-curvature="0"
           sodipodi:nodetypes="ccccc" />
        <path
           sodipodi:nodetypes="ccccc"
           inkscape:connector-curvature="0"
           id="path3998"
           d="m 32.150703,1036.9678 7.430526,6.9131 c -1.316436,1.5486 -2.691407,2.5982 -4.484147,3.6229 l -5.421935,-8.6217 c 1.063981,-0.5367 1.851106,-1.21 2.475556,-1.9143 z"
           style="fill:url(#linearGradient3824);fill-opacity:1;stroke:none" />
        <path
           sodipodi:nodetypes="ccccc"
           inkscape:connector-curvature="0"
           id="path4000"
           d="m 31.995083,1037.1379 7.231905,7.1207 c -1.359897,1.5109 -2.763968,2.521 -4.585002,3.4946 l -5.1757,-8.7717 c 1.078797,-0.5065 1.884701,-1.1573 2.528797,-1.8436 z"
           style="fill:url(#linearGradient3826);fill-opacity:1;stroke:none" />
        <path
           style="fill:url(#linearGradient3828);fill-opacity:1;stroke:none"
           d="m 32.028596,1037.7043 6.88803,7.4538 c -1.429661,1.4451 -2.879788,2.3879 -4.744741,3.2745 l -4.756187,-9.006 c 1.101479,-0.4551 1.937141,-1.0671 2.612898,-1.7223 z"
           id="path4002"
           inkscape:connector-curvature="0"
           sodipodi:nodetypes="ccccc" />
        <path
           inkscape:transform-center-y="-9.2428144"
           inkscape:transform-center-x="-7.670158"
           sodipodi:nodetypes="ccccc"
           inkscape:connector-curvature="0"
           id="path3198"
           d="m 29.444468,1026.8748 5.4171,-8.5826 c 1.765894,1.007 3.051887,2.1637 4.390884,3.7356 l -7.468151,6.9251 c -0.724585,-0.9462 -1.532051,-1.5949 -2.339833,-2.0781 z"
           style="fill:url(#linearGradient3830);fill-opacity:1;stroke:none" />
        <path
           style="fill:url(#linearGradient3832);fill-opacity:1;stroke:none"
           d="m 22.416461,1026.9617 -5.334611,-8.634 c 1.679741,-1.1447 3.283554,-1.7928 5.283731,-2.3062 l 2.944942,9.7498 c -1.168151,0.2359 -2.105386,0.6766 -2.894062,1.1904 z"
           id="path3829"
           inkscape:connector-curvature="0"
           sodipodi:nodetypes="ccccc" />
        <path
           sodipodi:nodetypes="ccccc"
           inkscape:connector-curvature="0"
           id="path3019"
           d="m 20.114535,1029.4144 -8.483441,-5.571 c 1.038733,-1.7476 2.218442,-3.0124 3.814294,-4.3229 l 6.789093,7.592 c -0.958919,0.7073 -1.62227,1.5029 -2.119946,2.3019 z"
           style="fill:url(#linearGradient3834);fill-opacity:1;stroke:none" />
        <path
           style="fill:url(#linearGradient3836);fill-opacity:1;stroke:none"
           d="m 20.35201,1029.0662 -8.3145,-5.8201 c 1.089978,-1.7159 2.306726,-2.9453 3.94067,-4.2079 l 6.561025,7.79 c -0.979522,0.6786 -1.666053,1.4541 -2.187164,2.238 z"
           id="path3798"
           inkscape:connector-curvature="0"
           sodipodi:nodetypes="ccccc" />
        <path
           sodipodi:nodetypes="ccccc"
           inkscape:connector-curvature="0"
           id="path3819"
           d="m 20.570757,1028.7269 -7.798086,-6.4957 c 1.229691,-1.6185 2.545048,-2.7418 4.279007,-3.8632 l 5.886045,8.3117 c -1.033013,0.5944 -1.782077,1.3097 -2.366966,2.0472 z"
           style="fill:url(#linearGradient3838);fill-opacity:1;stroke:none" />
        <path
           style="fill:url(#linearGradient3840);fill-opacity:1;stroke:none"
           d="m 20.818278,1028.4286 -7.430527,-6.9131 c 1.316437,-1.5486 2.691408,-2.5982 4.484148,-3.623 l 5.421934,8.6217 c -1.06398,0.5368 -1.851105,1.2101 -2.475555,1.9144 z"
           id="path3839"
           inkscape:connector-curvature="0"
           sodipodi:nodetypes="ccccc" />
        <path
           style="fill:url(#linearGradient3842);fill-opacity:1;stroke:none"
           d="m 20.973898,1028.2584 -7.231905,-7.1206 c 1.359897,-1.5109 2.763968,-2.5211 4.585002,-3.4946 l 5.1757,8.7717 c -1.078797,0.5064 -1.884701,1.1572 -2.528797,1.8435 z"
           id="path3841"
           inkscape:connector-curvature="0"
           sodipodi:nodetypes="ccccc" />
        <path
           sodipodi:nodetypes="ccccc"
           inkscape:connector-curvature="0"
           id="path3843"
           d="m 21.232539,1027.9842 -6.888029,-7.4538 c 1.42966,-1.4451 2.879788,-2.3879 4.74474,-3.2745 l 4.756187,9.0061 c -1.101479,0.455 -1.93714,1.0671 -2.612898,1.7222 z"
           style="fill:url(#linearGradient3844);fill-opacity:1;stroke:none" />
        <path
           style="fill:url(#linearGradient3846);fill-opacity:1;stroke:none"
           d="m 23.908885,1039.6958 -4.802537,8.9409 c -1.832083,-0.8807 -3.195954,-1.9445 -4.641778,-3.4188 l 6.964672,-7.4311 c 0.789062,0.893 1.640001,1.4835 2.479643,1.909 z"
           id="path3987"
           inkscape:connector-curvature="0"
           sodipodi:nodetypes="ccccc"
           inkscape:transform-center-x="7.0608935"
           inkscape:transform-center-y="9.6868356" />
        <path
           inkscape:transform-center-y="8.9746856"
           inkscape:transform-center-x="7.9945275"
           sodipodi:nodetypes="ccccc"
           inkscape:connector-curvature="0"
           id="path3999"
           d="m 23.12001,1039.3897 -5.74925,8.3636 c -1.725066,-1.0753 -2.964756,-2.2815 -4.241119,-3.9047 l 7.733777,-6.627 c 0.686939,0.9737 1.468372,1.6536 2.256592,2.1681 z"
           style="fill:url(#linearGradient3848);fill-opacity:1;stroke:none" />
        <path
           style="fill:url(#linearGradient3850);fill-opacity:1;stroke:none"
           d="m 22.056277,1038.5814 -7.140188,7.2126 c -1.507241,-1.3639 -2.513594,-2.7707 -3.482157,-4.5944 l 8.785616,-5.1518 c 0.503544,1.08 1.152144,1.8876 1.836729,2.5336 z"
           id="path4003"
           inkscape:connector-curvature="0"
           sodipodi:nodetypes="ccccc"
           inkscape:transform-center-x="9.3069495"
           inkscape:transform-center-y="7.5890356" />
      </g>
      <path
         inkscape:connector-curvature="0"
         style="fill:#969696;fill-opacity:1"
         d="m 24.889497,1019.2692 c -0.514451,0 -0.468521,0.1306 -0.484515,0.2714 -0.0052,0.046 -5.15e-4,0.1541 0,0.2713 5e-4,0.1172 -0.0052,0.2449 0,0.2907 0.01598,0.1407 -0.02993,0.2713 0.484515,0.2713 0.51445,0 0.449132,-0.1306 0.465134,-0.2713 0.0031,-0.027 0.0177,-0.094 0.01938,-0.155 l -0.29071,0 c -8.06e-4,0.031 0.001,0.068 0,0.078 -0.008,0.07 0.0091,0.097 -0.193806,0.097 -0.20286,0 -0.205178,-0.027 -0.213186,-0.097 -0.0026,-0.023 -2.48e-4,-0.1546 0,-0.2132 2.5e-4,-0.058 -0.0026,-0.1709 0,-0.1938 0.008,-0.07 0.01033,-0.1163 0.213186,-0.1163 0.202871,0 0.185809,0.046 0.193806,0.1163 0.0011,0.01 -8.06e-4,0.025 0,0.058 l 0.29071,0 c -0.0018,-0.063 -0.01629,-0.1082 -0.01938,-0.1356 C 25.338618,1019.4003 25.403948,1019.2697 24.889497,1019.2697 z m 1.104694,0 c -0.51445,0 -0.44913,0.1306 -0.465134,0.2714 -0.0052,0.046 -0.0199,0.1541 -0.01938,0.2713 5.01e-4,0.1172 0.0142,0.2449 0.01938,0.2907 0.01602,0.1407 -0.04932,0.2713 0.465134,0.2713 0.514459,0 0.468512,-0.1306 0.484515,-0.2713 0.0052,-0.046 -4.84e-4,-0.1735 0,-0.2907 5e-4,-0.1172 0.0052,-0.2255 0,-0.2713 C 26.462693,1019.3998 26.50865,1019.2692 25.994191,1019.2692 z m 4.690105,0 c -0.514445,0 -0.449125,0.1306 -0.465129,0.2714 -0.0056,0.046 -0.0199,0.1541 -0.01935,0.2713 5e-4,0.1172 0.01416,0.2449 0.01935,0.2907 0.01601,0.1407 -0.04933,0.2713 0.465129,0.2713 0.514463,0 0.468516,-0.1306 0.48452,-0.2713 0.0028,-0.027 -0.0019,-0.094 0,-0.155 l -0.271334,0 c -7.75e-4,0.031 9.3e-4,0.068 0,0.078 -0.0083,0.07 -0.01037,0.097 -0.213186,0.097 -0.202857,0 -0.185808,-0.027 -0.193805,-0.097 -0.0028,-0.023 -0.01962,-0.1546 -0.01935,-0.2132 2.5e-4,-0.058 0.01675,-0.1709 0.01935,-0.1938 0.0083,-0.07 -0.0093,-0.1163 0.193805,-0.1163 0.202874,0 0.205189,0.046 0.213186,0.1163 9.3e-4,0.01 -7.75e-4,0.025 0,0.058 l 0.271334,0 c -0.0019,-0.063 0.0028,-0.1082 0,-0.1356 C 31.152802,1019.4003 31.198713,1019.2697 30.684296,1019.2697 z m -7.694098,0.019 c -0.127377,0 -0.213187,0.1052 -0.213187,0.2325 l 0,1.0272 c 0,0.054 -0.04349,0.097 -0.0969,0.097 l -0.96903,0 c -0.373838,0 -0.678322,0.3045 -0.678322,0.6783 l 0,2.5777 c 0,0.3737 0.304484,0.6782 0.678322,0.6782 l 1.686113,0 0.426373,0 c 0.127377,0 0.213186,-0.1051 0.213186,-0.2326 l 0,-4.8257 c 0,-0.1274 -0.08581,-0.2325 -0.213186,-0.2325 L 22.990198,1019.2887 z m 3.662934,0 0,1.0659 0.271328,0 0,-0.7946 0.271329,0.7946 0.271328,0 0.271328,-0.7946 0,0.7946 0.271329,0 0,-1.0659 -0.406993,0 -0.271328,0.7945 -0.271328,-0.7945 L 26.653132,1019.2887 z m 1.569829,0 0,1.0659 0.271328,0 0,-0.252 0.174426,0 c 0.514461,0 0.452149,-0.1303 0.465135,-0.2713 0.0022,-0.024 0.01939,-0.1021 0.01938,-0.1356 0,-0.042 -0.01715,-0.119 -0.01938,-0.1357 -0.01894,-0.1404 0.04933,-0.2713 -0.465135,-0.2713 L 28.222961,1019.2887 z m 1.220979,0 -0.31009,1.0659 0.271327,0 0.07757,-0.2326 0.348853,0 0.05813,0.2326 0.271324,0 -0.310087,-1.0659 L 29.443968,1019.2887 z m 1.783014,0 0,0.2713 0.251951,0 0,0.7946 0.271324,0 0,-0.7946 0.251951,0 0,-0.2713 L 31.226954,1019.2887 z m -5.232763,0.2131 c 0.202871,0 0.205189,0.046 0.213187,0.1163 0.0026,0.023 -2.48e-4,0.1352 0,0.1938 2.5e-4,0.058 0.0026,0.1903 0,0.2132 -0.008,0.07 -0.01033,0.097 -0.213187,0.097 -0.202861,0 -0.185807,-0.027 -0.193806,-0.097 -0.0026,-0.023 -2.48e-4,-0.1546 0,-0.2132 2.59e-4,-0.058 -0.0026,-0.1709 0,-0.1938 C 25.808345,1019.5477 25.791314,1019.5018 25.994191,1019.5018 z m -2.90709,0.019 0.63956,0 c 0.05338,0 0.0969,0.043 0.0969,0.097 l 0,4.632 c 0,0.054 -0.04352,0.097 -0.0969,0.097 l -0.32947,0 -1.686113,0 c -0.24523,0 -0.445754,-0.2005 -0.445754,-0.4456 l 0,-2.5777 c 0,-0.2453 0.200525,-0.4458 0.445754,-0.4458 l 1.046552,0 c 0.127377,0 0.232568,-0.1051 0.232568,-0.2325 l 0,-1.0272 C 22.990198,1019.5645 23.03372,1019.5213 23.087101,1019.5213 z m 6.570027,0 0.116284,0.4264 -0.251951,0 L 29.657128,1019.5213 z m -1.162839,0.019 0.174426,0 c 0.202834,0 0.1858,0.027 0.193805,0.097 0.0026,0.023 -2.49e-4,-2e-4 0,0.058 2.48e-4,0.057 0.0026,0.035 0,0.058 -0.008,0.07 0.0091,0.1163 -0.193805,0.1163 l -0.174426,0 L 28.494289,1019.5411 z m -3.895501,1.1047 c -0.127377,0 -0.232568,0.1052 -0.232568,0.2325 l 0,3.4691 c 0,0.1275 0.105189,0.2326 0.232568,0.2326 l 0.406993,0 0.406993,0 c 0.127405,0 0.232567,-0.1051 0.232567,-0.2326 l 0,-3.4691 c 0,-0.1273 -0.105162,-0.2325 -0.232567,-0.2325 L 24.598788,1020.6454 z m 2.073725,0 c -0.373808,0 -0.658942,0.3045 -0.658942,0.6783 l 0,1.1629 c 0,0.3738 0.285134,0.6782 0.658942,0.6782 l 0.930268,0 c 0.08454,0 0.155046,0.07 0.155046,0.1551 0,0.084 -0.07051,0.1357 -0.155046,0.1357 l -1.376022,0 c -0.127387,0 -0.232568,0.1051 -0.232568,0.2325 l 0,0.6589 c 0,0.1275 0.105188,0.2326 0.232568,0.2326 l 1.957441,-0.019 c 0.373807,0 0.67832,-0.2851 0.67832,-0.6589 l 0,-1.1823 c 0,-0.3738 -0.304503,-0.659 -0.67832,-0.659 l -0.930269,0 c -0.0845,0 -0.155045,-0.07 -0.155045,-0.155 0,-0.084 0.07055,-0.155 0.155045,-0.155 l 0.67832,0 0.562038,0 c 0.127368,0 0.232567,-0.1052 0.232567,-0.2326 l 0,-0.6396 c 0,-0.1273 -0.105151,-0.2325 -0.232567,-0.2325 L 26.672513,1020.6453 z m 3.178418,0 c -0.373844,0 -0.658939,0.3045 -0.658939,0.6783 l 0,2.5777 c 0,0.3737 0.285105,0.6782 0.658939,0.6782 l 1.472925,0 c 0.373834,0 0.678324,-0.3045 0.678324,-0.6782 l 0,-0.814 c 0,-0.1274 -0.105149,-0.2326 -0.23257,-0.2326 l -0.736461,0 c -0.127374,0 -0.232569,0.1051 -0.232569,0.2326 l 0,0.4457 c 0,0.1399 -0.07331,0.2519 -0.213186,0.2519 -0.139897,0 -0.193805,-0.112 -0.193805,-0.2519 l 0,-1.8024 c 0,-0.1399 0.05387,-0.2519 0.193805,-0.2519 0.13986,0 0.213186,0.112 0.213186,0.2519 l 0,0.4263 c 0,0.1275 0.105187,0.2326 0.232569,0.2326 l 0.348853,0 0.387608,0 c 0.127421,0 0.23257,-0.1051 0.23257,-0.2326 l 0,-0.8333 c 0,-0.3738 -0.30447,-0.6783 -0.678324,-0.6783 L 29.850931,1020.6454 z m -1.453545,0.2132 c 0.05339,0 0.0969,0.043 0.0969,0.097 l 0,0.4651 c 0,0.054 -0.04348,0.097 -0.0969,0.097 l -0.465135,0 -0.67832,0 c -0.210203,0 -0.387612,0.1774 -0.387612,0.3876 9e-6,0.2103 0.177409,0.3876 0.387612,0.3876 l 0.930269,0 c 0.245199,0 0.445753,0.1813 0.445753,0.4264 l 0,1.1823 c 0,0.2451 -0.200554,0.4456 -0.445753,0.4456 l -1.860539,0 c -0.05338,0 -0.0969,-0.043 -0.0969,-0.097 l 0,-0.4458 c 0,-0.054 0.04352,-0.097 0.0969,-0.097 l 1.27912,-0.019 c 0.210242,0 0.368232,-0.1579 0.368232,-0.3682 9e-6,-0.2102 -0.15799,-0.3876 -0.368232,-0.3876 l -0.930268,0 c -0.245201,0 -0.426374,-0.2006 -0.426374,-0.4457 l 0,-1.1629 c 0,-0.2452 0.181173,-0.4458 0.426374,-0.4458 L 28.397386,1020.8585 z m -3.701696,0.019 0.620181,0 c 0.05342,0 0.0969,0.043 0.0969,0.097 l 0,3.2754 c 0,0.054 -0.0435,0.097 -0.0969,0.097 l -0.31009,0 -0.310091,0 c -0.05344,0 -0.0969,-0.043 -0.0969,-0.097 l 0,-3.2754 C 24.598788,1020.9213 24.642283,1020.878 24.69569,1020.878 z m 5.155241,0 1.472925,0 c 0.24524,0 0.445754,0.2006 0.445754,0.4458 l 0,0.7364 c 0,0.054 -0.0435,0.097 -0.0969,0.097 l -0.290706,0 -0.251952,0 c -0.05341,0 -0.0969,-0.043 -0.0969,-0.097 l 0,-0.3294 c 0,-0.267 -0.178744,-0.4846 -0.445755,-0.4846 -0.267028,0 -0.426373,0.2176 -0.426373,0.4846 l 0,1.8023 c 0,0.2672 0.159345,0.4846 0.426373,0.4846 0.267002,0 0.445755,-0.2174 0.445755,-0.4846 l 0,-0.3487 c 0,-0.054 0.0435,-0.097 0.0969,-0.097 l 0.542658,0 c 0.05341,0 0.0969,0.043 0.0969,0.097 l 0,0.717 c 0,0.2452 -0.200514,0.4457 -0.445754,0.4457 l -1.472925,0 c -0.24524,0 -0.426373,-0.2005 -0.426373,-0.4457 l 0,-2.5776 C 29.424558,1021.0786 29.605691,1020.878 29.850931,1020.878 z m -7.325868,0.3682 c -0.266991,0 -0.484515,0.2176 -0.484515,0.4846 l 0,1.8023 c 0,0.2672 0.217525,0.4846 0.484515,0.4846 0.267039,0 0.465135,-0.2174 0.465135,-0.4846 l 0,-0.1356 0,-1.6667 C 22.990198,1021.4638 22.792102,1021.2462 22.525063,1021.2462 z m 0,0.2326 c 0.139902,0 0.251948,0.1121 0.251948,0.252 l 0,1.6667 0,0.1356 c 0,0.1399 -0.112046,0.252 -0.251948,0.252 -0.139862,0 -0.271329,-0.1121 -0.271329,-0.252 l 0,-1.8023 C 22.253734,1021.5909 22.38521,1021.4788 22.525063,1021.4788 Z"
         id="path4044" />
    </g>
  </g>
</svg>
